<?xml version="1.0" encoding="utf-8" standalone="no"?>
<!DOCTYPE svg PUBLIC "-//W3C//DTD SVG 1.1//EN"
  "http://www.w3.org/Graphics/SVG/1.1/DTD/svg11.dtd">
<svg xmlns:xlink="http://www.w3.org/1999/xlink" width="401.690625pt" height="268.200625pt" viewBox="0 0 401.690625 268.200625" xmlns="http://www.w3.org/2000/svg" version="1.1">
 <metadata>
  <rdf:RDF xmlns:dc="http://purl.org/dc/elements/1.1/" xmlns:cc="http://creativecommons.org/ns#" xmlns:rdf="http://www.w3.org/1999/02/22-rdf-syntax-ns#">
   <cc:Work>
    <dc:type rdf:resource="http://purl.org/dc/dcmitype/StillImage"/>
    <dc:date>2026-05-01T08:28:20.072201</dc:date>
    <dc:format>image/svg+xml</dc:format>
    <dc:creator>
     <cc:Agent>
      <dc:title>Matplotlib v3.10.8, https://matplotlib.org/</dc:title>
     </cc:Agent>
    </dc:creator>
   </cc:Work>
  </rdf:RDF>
 </metadata>
 <defs>
  <style type="text/css">*{stroke-linejoin: round; stroke-linecap: butt}</style>
 </defs>
 <g id="figure_1">
  <g id="patch_1">
   <path d="M 0 268.200625 
L 401.690625 268.200625 
L 401.690625 0 
L 0 0 
z
" style="fill: #ffffff"/>
  </g>
  <g id="axes_1">
   <g id="patch_2">
    <path d="M 59.690625 228.96 
L 394.490625 228.96 
L 394.490625 7.2 
L 59.690625 7.2 
z
" style="fill: #ffffff"/>
   </g>
   <g id="matplotlib.axis_1">
    <g id="xtick_1">
     <g id="line2d_1">
      <defs>
       <path id="mb1e04e95f0" d="M 0 0 
L 0 3.5 
" style="stroke: #000000; stroke-width: 0.8"/>
      </defs>
      <g>
       <use xlink:href="#mb1e04e95f0" x="74.552621" y="228.96" style="stroke: #000000; stroke-width: 0.8"/>
      </g>
     </g>
     <g id="text_1">
      <!-- 0.0 -->
      <g transform="translate(66.601058 243.558437) scale(0.1 -0.1)">
       <defs>
        <path id="DejaVuSans-30" d="M 2034 4250 
Q 1547 4250 1301 3770 
Q 1056 3291 1056 2328 
Q 1056 1369 1301 889 
Q 1547 409 2034 409 
Q 2525 409 2770 889 
Q 3016 1369 3016 2328 
Q 3016 3291 2770 3770 
Q 2525 4250 2034 4250 
z
M 2034 4750 
Q 2819 4750 3233 4129 
Q 3647 3509 3647 2328 
Q 3647 1150 3233 529 
Q 2819 -91 2034 -91 
Q 1250 -91 836 529 
Q 422 1150 422 2328 
Q 422 3509 836 4129 
Q 1250 4750 2034 4750 
z
" transform="scale(0.015625)"/>
        <path id="DejaVuSans-2e" d="M 684 794 
L 1344 794 
L 1344 0 
L 684 0 
L 684 794 
z
" transform="scale(0.015625)"/>
       </defs>
       <use xlink:href="#DejaVuSans-30"/>
       <use xlink:href="#DejaVuSans-2e" transform="translate(63.623047 0)"/>
       <use xlink:href="#DejaVuSans-30" transform="translate(95.410156 0)"/>
      </g>
     </g>
    </g>
    <g id="xtick_2">
     <g id="line2d_2">
      <g>
       <use xlink:href="#mb1e04e95f0" x="132.286021" y="228.96" style="stroke: #000000; stroke-width: 0.8"/>
      </g>
     </g>
     <g id="text_2">
      <!-- 0.2 -->
      <g transform="translate(124.334459 243.558437) scale(0.1 -0.1)">
       <defs>
        <path id="DejaVuSans-32" d="M 1228 531 
L 3431 531 
L 3431 0 
L 469 0 
L 469 531 
Q 828 903 1448 1529 
Q 2069 2156 2228 2338 
Q 2531 2678 2651 2914 
Q 2772 3150 2772 3378 
Q 2772 3750 2511 3984 
Q 2250 4219 1831 4219 
Q 1534 4219 1204 4116 
Q 875 4013 500 3803 
L 500 4441 
Q 881 4594 1212 4672 
Q 1544 4750 1819 4750 
Q 2544 4750 2975 4387 
Q 3406 4025 3406 3419 
Q 3406 3131 3298 2873 
Q 3191 2616 2906 2266 
Q 2828 2175 2409 1742 
Q 1991 1309 1228 531 
z
" transform="scale(0.015625)"/>
       </defs>
       <use xlink:href="#DejaVuSans-30"/>
       <use xlink:href="#DejaVuSans-2e" transform="translate(63.623047 0)"/>
       <use xlink:href="#DejaVuSans-32" transform="translate(95.410156 0)"/>
      </g>
     </g>
    </g>
    <g id="xtick_3">
     <g id="line2d_3">
      <g>
       <use xlink:href="#mb1e04e95f0" x="190.019422" y="228.96" style="stroke: #000000; stroke-width: 0.8"/>
      </g>
     </g>
     <g id="text_3">
      <!-- 0.4 -->
      <g transform="translate(182.067859 243.558437) scale(0.1 -0.1)">
       <defs>
        <path id="DejaVuSans-34" d="M 2419 4116 
L 825 1625 
L 2419 1625 
L 2419 4116 
z
M 2253 4666 
L 3047 4666 
L 3047 1625 
L 3713 1625 
L 3713 1100 
L 3047 1100 
L 3047 0 
L 2419 0 
L 2419 1100 
L 313 1100 
L 313 1709 
L 2253 4666 
z
" transform="scale(0.015625)"/>
       </defs>
       <use xlink:href="#DejaVuSans-30"/>
       <use xlink:href="#DejaVuSans-2e" transform="translate(63.623047 0)"/>
       <use xlink:href="#DejaVuSans-34" transform="translate(95.410156 0)"/>
      </g>
     </g>
    </g>
    <g id="xtick_4">
     <g id="line2d_4">
      <g>
       <use xlink:href="#mb1e04e95f0" x="247.752822" y="228.96" style="stroke: #000000; stroke-width: 0.8"/>
      </g>
     </g>
     <g id="text_4">
      <!-- 0.6 -->
      <g transform="translate(239.801259 243.558437) scale(0.1 -0.1)">
       <defs>
        <path id="DejaVuSans-36" d="M 2113 2584 
Q 1688 2584 1439 2293 
Q 1191 2003 1191 1497 
Q 1191 994 1439 701 
Q 1688 409 2113 409 
Q 2538 409 2786 701 
Q 3034 994 3034 1497 
Q 3034 2003 2786 2293 
Q 2538 2584 2113 2584 
z
M 3366 4563 
L 3366 3988 
Q 3128 4100 2886 4159 
Q 2644 4219 2406 4219 
Q 1781 4219 1451 3797 
Q 1122 3375 1075 2522 
Q 1259 2794 1537 2939 
Q 1816 3084 2150 3084 
Q 2853 3084 3261 2657 
Q 3669 2231 3669 1497 
Q 3669 778 3244 343 
Q 2819 -91 2113 -91 
Q 1303 -91 875 529 
Q 447 1150 447 2328 
Q 447 3434 972 4092 
Q 1497 4750 2381 4750 
Q 2619 4750 2861 4703 
Q 3103 4656 3366 4563 
z
" transform="scale(0.015625)"/>
       </defs>
       <use xlink:href="#DejaVuSans-30"/>
       <use xlink:href="#DejaVuSans-2e" transform="translate(63.623047 0)"/>
       <use xlink:href="#DejaVuSans-36" transform="translate(95.410156 0)"/>
      </g>
     </g>
    </g>
    <g id="xtick_5">
     <g id="line2d_5">
      <g>
       <use xlink:href="#mb1e04e95f0" x="305.486222" y="228.96" style="stroke: #000000; stroke-width: 0.8"/>
      </g>
     </g>
     <g id="text_5">
      <!-- 0.8 -->
      <g transform="translate(297.53466 243.558437) scale(0.1 -0.1)">
       <defs>
        <path id="DejaVuSans-38" d="M 2034 2216 
Q 1584 2216 1326 1975 
Q 1069 1734 1069 1313 
Q 1069 891 1326 650 
Q 1584 409 2034 409 
Q 2484 409 2743 651 
Q 3003 894 3003 1313 
Q 3003 1734 2745 1975 
Q 2488 2216 2034 2216 
z
M 1403 2484 
Q 997 2584 770 2862 
Q 544 3141 544 3541 
Q 544 4100 942 4425 
Q 1341 4750 2034 4750 
Q 2731 4750 3128 4425 
Q 3525 4100 3525 3541 
Q 3525 3141 3298 2862 
Q 3072 2584 2669 2484 
Q 3125 2378 3379 2068 
Q 3634 1759 3634 1313 
Q 3634 634 3220 271 
Q 2806 -91 2034 -91 
Q 1263 -91 848 271 
Q 434 634 434 1313 
Q 434 1759 690 2068 
Q 947 2378 1403 2484 
z
M 1172 3481 
Q 1172 3119 1398 2916 
Q 1625 2713 2034 2713 
Q 2441 2713 2670 2916 
Q 2900 3119 2900 3481 
Q 2900 3844 2670 4047 
Q 2441 4250 2034 4250 
Q 1625 4250 1398 4047 
Q 1172 3844 1172 3481 
z
" transform="scale(0.015625)"/>
       </defs>
       <use xlink:href="#DejaVuSans-30"/>
       <use xlink:href="#DejaVuSans-2e" transform="translate(63.623047 0)"/>
       <use xlink:href="#DejaVuSans-38" transform="translate(95.410156 0)"/>
      </g>
     </g>
    </g>
    <g id="xtick_6">
     <g id="line2d_6">
      <g>
       <use xlink:href="#mb1e04e95f0" x="363.219622" y="228.96" style="stroke: #000000; stroke-width: 0.8"/>
      </g>
     </g>
     <g id="text_6">
      <!-- 1.0 -->
      <g transform="translate(355.26806 243.558437) scale(0.1 -0.1)">
       <defs>
        <path id="DejaVuSans-31" d="M 794 531 
L 1825 531 
L 1825 4091 
L 703 3866 
L 703 4441 
L 1819 4666 
L 2450 4666 
L 2450 531 
L 3481 531 
L 3481 0 
L 794 0 
L 794 531 
z
" transform="scale(0.015625)"/>
       </defs>
       <use xlink:href="#DejaVuSans-31"/>
       <use xlink:href="#DejaVuSans-2e" transform="translate(63.623047 0)"/>
       <use xlink:href="#DejaVuSans-30" transform="translate(95.410156 0)"/>
      </g>
     </g>
    </g>
    <g id="text_7">
     <!-- wavelength [Å] -->
     <g transform="translate(189.053125 258.920937) scale(0.1 -0.1)">
      <defs>
       <path id="DejaVuSans-77" d="M 269 3500 
L 844 3500 
L 1563 769 
L 2278 3500 
L 2956 3500 
L 3675 769 
L 4391 3500 
L 4966 3500 
L 4050 0 
L 3372 0 
L 2619 2869 
L 1863 0 
L 1184 0 
L 269 3500 
z
" transform="scale(0.015625)"/>
       <path id="DejaVuSans-61" d="M 2194 1759 
Q 1497 1759 1228 1600 
Q 959 1441 959 1056 
Q 959 750 1161 570 
Q 1363 391 1709 391 
Q 2188 391 2477 730 
Q 2766 1069 2766 1631 
L 2766 1759 
L 2194 1759 
z
M 3341 1997 
L 3341 0 
L 2766 0 
L 2766 531 
Q 2569 213 2275 61 
Q 1981 -91 1556 -91 
Q 1019 -91 701 211 
Q 384 513 384 1019 
Q 384 1609 779 1909 
Q 1175 2209 1959 2209 
L 2766 2209 
L 2766 2266 
Q 2766 2663 2505 2880 
Q 2244 3097 1772 3097 
Q 1472 3097 1187 3025 
Q 903 2953 641 2809 
L 641 3341 
Q 956 3463 1253 3523 
Q 1550 3584 1831 3584 
Q 2591 3584 2966 3190 
Q 3341 2797 3341 1997 
z
" transform="scale(0.015625)"/>
       <path id="DejaVuSans-76" d="M 191 3500 
L 800 3500 
L 1894 563 
L 2988 3500 
L 3597 3500 
L 2284 0 
L 1503 0 
L 191 3500 
z
" transform="scale(0.015625)"/>
       <path id="DejaVuSans-65" d="M 3597 1894 
L 3597 1613 
L 953 1613 
Q 991 1019 1311 708 
Q 1631 397 2203 397 
Q 2534 397 2845 478 
Q 3156 559 3463 722 
L 3463 178 
Q 3153 47 2828 -22 
Q 2503 -91 2169 -91 
Q 1331 -91 842 396 
Q 353 884 353 1716 
Q 353 2575 817 3079 
Q 1281 3584 2069 3584 
Q 2775 3584 3186 3129 
Q 3597 2675 3597 1894 
z
M 3022 2063 
Q 3016 2534 2758 2815 
Q 2500 3097 2075 3097 
Q 1594 3097 1305 2825 
Q 1016 2553 972 2059 
L 3022 2063 
z
" transform="scale(0.015625)"/>
       <path id="DejaVuSans-6c" d="M 603 4863 
L 1178 4863 
L 1178 0 
L 603 0 
L 603 4863 
z
" transform="scale(0.015625)"/>
       <path id="DejaVuSans-6e" d="M 3513 2113 
L 3513 0 
L 2938 0 
L 2938 2094 
Q 2938 2591 2744 2837 
Q 2550 3084 2163 3084 
Q 1697 3084 1428 2787 
Q 1159 2491 1159 1978 
L 1159 0 
L 581 0 
L 581 3500 
L 1159 3500 
L 1159 2956 
Q 1366 3272 1645 3428 
Q 1925 3584 2291 3584 
Q 2894 3584 3203 3211 
Q 3513 2838 3513 2113 
z
" transform="scale(0.015625)"/>
       <path id="DejaVuSans-67" d="M 2906 1791 
Q 2906 2416 2648 2759 
Q 2391 3103 1925 3103 
Q 1463 3103 1205 2759 
Q 947 2416 947 1791 
Q 947 1169 1205 825 
Q 1463 481 1925 481 
Q 2391 481 2648 825 
Q 2906 1169 2906 1791 
z
M 3481 434 
Q 3481 -459 3084 -895 
Q 2688 -1331 1869 -1331 
Q 1566 -1331 1297 -1286 
Q 1028 -1241 775 -1147 
L 775 -588 
Q 1028 -725 1275 -790 
Q 1522 -856 1778 -856 
Q 2344 -856 2625 -561 
Q 2906 -266 2906 331 
L 2906 616 
Q 2728 306 2450 153 
Q 2172 0 1784 0 
Q 1141 0 747 490 
Q 353 981 353 1791 
Q 353 2603 747 3093 
Q 1141 3584 1784 3584 
Q 2172 3584 2450 3431 
Q 2728 3278 2906 2969 
L 2906 3500 
L 3481 3500 
L 3481 434 
z
" transform="scale(0.015625)"/>
       <path id="DejaVuSans-74" d="M 1172 4494 
L 1172 3500 
L 2356 3500 
L 2356 3053 
L 1172 3053 
L 1172 1153 
Q 1172 725 1289 603 
Q 1406 481 1766 481 
L 2356 481 
L 2356 0 
L 1766 0 
Q 1100 0 847 248 
Q 594 497 594 1153 
L 594 3053 
L 172 3053 
L 172 3500 
L 594 3500 
L 594 4494 
L 1172 4494 
z
" transform="scale(0.015625)"/>
       <path id="DejaVuSans-68" d="M 3513 2113 
L 3513 0 
L 2938 0 
L 2938 2094 
Q 2938 2591 2744 2837 
Q 2550 3084 2163 3084 
Q 1697 3084 1428 2787 
Q 1159 2491 1159 1978 
L 1159 0 
L 581 0 
L 581 4863 
L 1159 4863 
L 1159 2956 
Q 1366 3272 1645 3428 
Q 1925 3584 2291 3584 
Q 2894 3584 3203 3211 
Q 3513 2838 3513 2113 
z
" transform="scale(0.015625)"/>
       <path id="DejaVuSans-20" transform="scale(0.015625)"/>
       <path id="DejaVuSans-5b" d="M 550 4863 
L 1875 4863 
L 1875 4416 
L 1125 4416 
L 1125 -397 
L 1875 -397 
L 1875 -844 
L 550 -844 
L 550 4863 
z
" transform="scale(0.015625)"/>
       <path id="DejaVuSans-c5" d="M 2663 5081 
Q 2663 5278 2523 5417 
Q 2384 5556 2188 5556 
Q 1988 5556 1852 5420 
Q 1716 5284 1716 5081 
Q 1716 4884 1853 4746 
Q 1991 4609 2188 4609 
Q 2384 4609 2523 4746 
Q 2663 4884 2663 5081 
z
M 2188 4044 
L 1338 1722 
L 3041 1722 
L 2188 4044 
z
M 1716 4366 
Q 1525 4494 1428 4673 
Q 1331 4853 1331 5081 
Q 1331 5441 1579 5691 
Q 1828 5941 2188 5941 
Q 2544 5941 2795 5689 
Q 3047 5438 3047 5081 
Q 3047 4863 2948 4678 
Q 2850 4494 2663 4366 
L 4325 0 
L 3669 0 
L 3244 1197 
L 1141 1197 
L 716 0 
L 50 0 
L 1716 4366 
z
" transform="scale(0.015625)"/>
       <path id="DejaVuSans-5d" d="M 1947 4863 
L 1947 -844 
L 622 -844 
L 622 -397 
L 1369 -397 
L 1369 4416 
L 622 4416 
L 622 4863 
L 1947 4863 
z
" transform="scale(0.015625)"/>
      </defs>
      <use xlink:href="#DejaVuSans-77"/>
      <use xlink:href="#DejaVuSans-61" transform="translate(81.787109 0)"/>
      <use xlink:href="#DejaVuSans-76" transform="translate(143.066406 0)"/>
      <use xlink:href="#DejaVuSans-65" transform="translate(202.246094 0)"/>
      <use xlink:href="#DejaVuSans-6c" transform="translate(263.769531 0)"/>
      <use xlink:href="#DejaVuSans-65" transform="translate(291.552734 0)"/>
      <use xlink:href="#DejaVuSans-6e" transform="translate(353.076172 0)"/>
      <use xlink:href="#DejaVuSans-67" transform="translate(416.455078 0)"/>
      <use xlink:href="#DejaVuSans-74" transform="translate(479.931641 0)"/>
      <use xlink:href="#DejaVuSans-68" transform="translate(519.140625 0)"/>
      <use xlink:href="#DejaVuSans-20" transform="translate(582.519531 0)"/>
      <use xlink:href="#DejaVuSans-5b" transform="translate(614.306641 0)"/>
      <use xlink:href="#DejaVuSans-c5" transform="translate(653.320312 0)"/>
      <use xlink:href="#DejaVuSans-5d" transform="translate(721.728516 0)"/>
     </g>
    </g>
   </g>
   <g id="matplotlib.axis_2">
    <g id="ytick_1">
     <g id="line2d_7">
      <defs>
       <path id="m71f242ffad" d="M 0 0 
L -3.5 0 
" style="stroke: #000000; stroke-width: 0.8"/>
      </defs>
      <g>
       <use xlink:href="#m71f242ffad" x="59.690625" y="218.88" style="stroke: #000000; stroke-width: 0.8"/>
      </g>
     </g>
     <g id="text_8">
      <!-- 0 -->
      <g transform="translate(46.328125 222.679219) scale(0.1 -0.1)">
       <use xlink:href="#DejaVuSans-30"/>
      </g>
     </g>
    </g>
    <g id="ytick_2">
     <g id="line2d_8">
      <g>
       <use xlink:href="#m71f242ffad" x="59.690625" y="176.375466" style="stroke: #000000; stroke-width: 0.8"/>
      </g>
     </g>
     <g id="text_9">
      <!-- 5000 -->
      <g transform="translate(27.240625 180.174685) scale(0.1 -0.1)">
       <defs>
        <path id="DejaVuSans-35" d="M 691 4666 
L 3169 4666 
L 3169 4134 
L 1269 4134 
L 1269 2991 
Q 1406 3038 1543 3061 
Q 1681 3084 1819 3084 
Q 2600 3084 3056 2656 
Q 3513 2228 3513 1497 
Q 3513 744 3044 326 
Q 2575 -91 1722 -91 
Q 1428 -91 1123 -41 
Q 819 9 494 109 
L 494 744 
Q 775 591 1075 516 
Q 1375 441 1709 441 
Q 2250 441 2565 725 
Q 2881 1009 2881 1497 
Q 2881 1984 2565 2268 
Q 2250 2553 1709 2553 
Q 1456 2553 1204 2497 
Q 953 2441 691 2322 
L 691 4666 
z
" transform="scale(0.015625)"/>
       </defs>
       <use xlink:href="#DejaVuSans-35"/>
       <use xlink:href="#DejaVuSans-30" transform="translate(63.623047 0)"/>
       <use xlink:href="#DejaVuSans-30" transform="translate(127.246094 0)"/>
       <use xlink:href="#DejaVuSans-30" transform="translate(190.869141 0)"/>
      </g>
     </g>
    </g>
    <g id="ytick_3">
     <g id="line2d_9">
      <g>
       <use xlink:href="#m71f242ffad" x="59.690625" y="133.870932" style="stroke: #000000; stroke-width: 0.8"/>
      </g>
     </g>
     <g id="text_10">
      <!-- 10000 -->
      <g transform="translate(20.878125 137.670151) scale(0.1 -0.1)">
       <use xlink:href="#DejaVuSans-31"/>
       <use xlink:href="#DejaVuSans-30" transform="translate(63.623047 0)"/>
       <use xlink:href="#DejaVuSans-30" transform="translate(127.246094 0)"/>
       <use xlink:href="#DejaVuSans-30" transform="translate(190.869141 0)"/>
       <use xlink:href="#DejaVuSans-30" transform="translate(254.492188 0)"/>
      </g>
     </g>
    </g>
    <g id="ytick_4">
     <g id="line2d_10">
      <g>
       <use xlink:href="#m71f242ffad" x="59.690625" y="91.366399" style="stroke: #000000; stroke-width: 0.8"/>
      </g>
     </g>
     <g id="text_11">
      <!-- 15000 -->
      <g transform="translate(20.878125 95.165617) scale(0.1 -0.1)">
       <use xlink:href="#DejaVuSans-31"/>
       <use xlink:href="#DejaVuSans-35" transform="translate(63.623047 0)"/>
       <use xlink:href="#DejaVuSans-30" transform="translate(127.246094 0)"/>
       <use xlink:href="#DejaVuSans-30" transform="translate(190.869141 0)"/>
       <use xlink:href="#DejaVuSans-30" transform="translate(254.492188 0)"/>
      </g>
     </g>
    </g>
    <g id="ytick_5">
     <g id="line2d_11">
      <g>
       <use xlink:href="#m71f242ffad" x="59.690625" y="48.861865" style="stroke: #000000; stroke-width: 0.8"/>
      </g>
     </g>
     <g id="text_12">
      <!-- 20000 -->
      <g transform="translate(20.878125 52.661084) scale(0.1 -0.1)">
       <use xlink:href="#DejaVuSans-32"/>
       <use xlink:href="#DejaVuSans-30" transform="translate(63.623047 0)"/>
       <use xlink:href="#DejaVuSans-30" transform="translate(127.246094 0)"/>
       <use xlink:href="#DejaVuSans-30" transform="translate(190.869141 0)"/>
       <use xlink:href="#DejaVuSans-30" transform="translate(254.492188 0)"/>
      </g>
     </g>
    </g>
    <g id="text_13">
     <!-- [9.99999999999999521e-41*m^4*counts] -->
     <g transform="translate(14.798438 226.028437) rotate(-90) scale(0.1 -0.1)">
      <defs>
       <path id="DejaVuSans-39" d="M 703 97 
L 703 672 
Q 941 559 1184 500 
Q 1428 441 1663 441 
Q 2288 441 2617 861 
Q 2947 1281 2994 2138 
Q 2813 1869 2534 1725 
Q 2256 1581 1919 1581 
Q 1219 1581 811 2004 
Q 403 2428 403 3163 
Q 403 3881 828 4315 
Q 1253 4750 1959 4750 
Q 2769 4750 3195 4129 
Q 3622 3509 3622 2328 
Q 3622 1225 3098 567 
Q 2575 -91 1691 -91 
Q 1453 -91 1209 -44 
Q 966 3 703 97 
z
M 1959 2075 
Q 2384 2075 2632 2365 
Q 2881 2656 2881 3163 
Q 2881 3666 2632 3958 
Q 2384 4250 1959 4250 
Q 1534 4250 1286 3958 
Q 1038 3666 1038 3163 
Q 1038 2656 1286 2365 
Q 1534 2075 1959 2075 
z
" transform="scale(0.015625)"/>
       <path id="DejaVuSans-2d" d="M 313 2009 
L 1997 2009 
L 1997 1497 
L 313 1497 
L 313 2009 
z
" transform="scale(0.015625)"/>
       <path id="DejaVuSans-2a" d="M 3009 3897 
L 1888 3291 
L 3009 2681 
L 2828 2375 
L 1778 3009 
L 1778 1831 
L 1422 1831 
L 1422 3009 
L 372 2375 
L 191 2681 
L 1313 3291 
L 191 3897 
L 372 4206 
L 1422 3572 
L 1422 4750 
L 1778 4750 
L 1778 3572 
L 2828 4206 
L 3009 3897 
z
" transform="scale(0.015625)"/>
       <path id="DejaVuSans-6d" d="M 3328 2828 
Q 3544 3216 3844 3400 
Q 4144 3584 4550 3584 
Q 5097 3584 5394 3201 
Q 5691 2819 5691 2113 
L 5691 0 
L 5113 0 
L 5113 2094 
Q 5113 2597 4934 2840 
Q 4756 3084 4391 3084 
Q 3944 3084 3684 2787 
Q 3425 2491 3425 1978 
L 3425 0 
L 2847 0 
L 2847 2094 
Q 2847 2600 2669 2842 
Q 2491 3084 2119 3084 
Q 1678 3084 1418 2786 
Q 1159 2488 1159 1978 
L 1159 0 
L 581 0 
L 581 3500 
L 1159 3500 
L 1159 2956 
Q 1356 3278 1631 3431 
Q 1906 3584 2284 3584 
Q 2666 3584 2933 3390 
Q 3200 3197 3328 2828 
z
" transform="scale(0.015625)"/>
       <path id="DejaVuSans-5e" d="M 2988 4666 
L 4684 2925 
L 4056 2925 
L 2681 4159 
L 1306 2925 
L 678 2925 
L 2375 4666 
L 2988 4666 
z
" transform="scale(0.015625)"/>
       <path id="DejaVuSans-63" d="M 3122 3366 
L 3122 2828 
Q 2878 2963 2633 3030 
Q 2388 3097 2138 3097 
Q 1578 3097 1268 2742 
Q 959 2388 959 1747 
Q 959 1106 1268 751 
Q 1578 397 2138 397 
Q 2388 397 2633 464 
Q 2878 531 3122 666 
L 3122 134 
Q 2881 22 2623 -34 
Q 2366 -91 2075 -91 
Q 1284 -91 818 406 
Q 353 903 353 1747 
Q 353 2603 823 3093 
Q 1294 3584 2113 3584 
Q 2378 3584 2631 3529 
Q 2884 3475 3122 3366 
z
" transform="scale(0.015625)"/>
       <path id="DejaVuSans-6f" d="M 1959 3097 
Q 1497 3097 1228 2736 
Q 959 2375 959 1747 
Q 959 1119 1226 758 
Q 1494 397 1959 397 
Q 2419 397 2687 759 
Q 2956 1122 2956 1747 
Q 2956 2369 2687 2733 
Q 2419 3097 1959 3097 
z
M 1959 3584 
Q 2709 3584 3137 3096 
Q 3566 2609 3566 1747 
Q 3566 888 3137 398 
Q 2709 -91 1959 -91 
Q 1206 -91 779 398 
Q 353 888 353 1747 
Q 353 2609 779 3096 
Q 1206 3584 1959 3584 
z
" transform="scale(0.015625)"/>
       <path id="DejaVuSans-75" d="M 544 1381 
L 544 3500 
L 1119 3500 
L 1119 1403 
Q 1119 906 1312 657 
Q 1506 409 1894 409 
Q 2359 409 2629 706 
Q 2900 1003 2900 1516 
L 2900 3500 
L 3475 3500 
L 3475 0 
L 2900 0 
L 2900 538 
Q 2691 219 2414 64 
Q 2138 -91 1772 -91 
Q 1169 -91 856 284 
Q 544 659 544 1381 
z
M 1991 3584 
L 1991 3584 
z
" transform="scale(0.015625)"/>
       <path id="DejaVuSans-73" d="M 2834 3397 
L 2834 2853 
Q 2591 2978 2328 3040 
Q 2066 3103 1784 3103 
Q 1356 3103 1142 2972 
Q 928 2841 928 2578 
Q 928 2378 1081 2264 
Q 1234 2150 1697 2047 
L 1894 2003 
Q 2506 1872 2764 1633 
Q 3022 1394 3022 966 
Q 3022 478 2636 193 
Q 2250 -91 1575 -91 
Q 1294 -91 989 -36 
Q 684 19 347 128 
L 347 722 
Q 666 556 975 473 
Q 1284 391 1588 391 
Q 1994 391 2212 530 
Q 2431 669 2431 922 
Q 2431 1156 2273 1281 
Q 2116 1406 1581 1522 
L 1381 1569 
Q 847 1681 609 1914 
Q 372 2147 372 2553 
Q 372 3047 722 3315 
Q 1072 3584 1716 3584 
Q 2034 3584 2315 3537 
Q 2597 3491 2834 3397 
z
" transform="scale(0.015625)"/>
      </defs>
      <use xlink:href="#DejaVuSans-5b"/>
      <use xlink:href="#DejaVuSans-39" transform="translate(39.013672 0)"/>
      <use xlink:href="#DejaVuSans-2e" transform="translate(102.636719 0)"/>
      <use xlink:href="#DejaVuSans-39" transform="translate(134.423828 0)"/>
      <use xlink:href="#DejaVuSans-39" transform="translate(198.046875 0)"/>
      <use xlink:href="#DejaVuSans-39" transform="translate(261.669922 0)"/>
      <use xlink:href="#DejaVuSans-39" transform="translate(325.292969 0)"/>
      <use xlink:href="#DejaVuSans-39" transform="translate(388.916016 0)"/>
      <use xlink:href="#DejaVuSans-39" transform="translate(452.539062 0)"/>
      <use xlink:href="#DejaVuSans-39" transform="translate(516.162109 0)"/>
      <use xlink:href="#DejaVuSans-39" transform="translate(579.785156 0)"/>
      <use xlink:href="#DejaVuSans-39" transform="translate(643.408203 0)"/>
      <use xlink:href="#DejaVuSans-39" transform="translate(707.03125 0)"/>
      <use xlink:href="#DejaVuSans-39" transform="translate(770.654297 0)"/>
      <use xlink:href="#DejaVuSans-39" transform="translate(834.277344 0)"/>
      <use xlink:href="#DejaVuSans-39" transform="translate(897.900391 0)"/>
      <use xlink:href="#DejaVuSans-39" transform="translate(961.523438 0)"/>
      <use xlink:href="#DejaVuSans-35" transform="translate(1025.146484 0)"/>
      <use xlink:href="#DejaVuSans-32" transform="translate(1088.769531 0)"/>
      <use xlink:href="#DejaVuSans-31" transform="translate(1152.392578 0)"/>
      <use xlink:href="#DejaVuSans-65" transform="translate(1216.015625 0)"/>
      <use xlink:href="#DejaVuSans-2d" transform="translate(1277.539062 0)"/>
      <use xlink:href="#DejaVuSans-34" transform="translate(1313.623047 0)"/>
      <use xlink:href="#DejaVuSans-31" transform="translate(1377.246094 0)"/>
      <use xlink:href="#DejaVuSans-2a" transform="translate(1440.869141 0)"/>
      <use xlink:href="#DejaVuSans-6d" transform="translate(1490.869141 0)"/>
      <use xlink:href="#DejaVuSans-5e" transform="translate(1588.28125 0)"/>
      <use xlink:href="#DejaVuSans-34" transform="translate(1672.070312 0)"/>
      <use xlink:href="#DejaVuSans-2a" transform="translate(1735.693359 0)"/>
      <use xlink:href="#DejaVuSans-63" transform="translate(1785.693359 0)"/>
      <use xlink:href="#DejaVuSans-6f" transform="translate(1840.673828 0)"/>
      <use xlink:href="#DejaVuSans-75" transform="translate(1901.855469 0)"/>
      <use xlink:href="#DejaVuSans-6e" transform="translate(1965.234375 0)"/>
      <use xlink:href="#DejaVuSans-74" transform="translate(2028.613281 0)"/>
      <use xlink:href="#DejaVuSans-73" transform="translate(2067.822266 0)"/>
      <use xlink:href="#DejaVuSans-5d" transform="translate(2119.921875 0)"/>
     </g>
    </g>
   </g>
   <g id="line2d_12">
    <path d="M 74.908807 218.88 
L 127.66517 218.777174 
L 127.66517 218.762518 
L 135.781534 218.665286 
L 135.781534 218.648947 
L 141.868807 218.537889 
L 141.868807 218.513575 
L 145.926989 218.435183 
L 145.926989 218.402396 
L 148.970625 218.33428 
L 148.970625 218.279273 
L 152.014261 218.194424 
L 152.014261 218.157774 
L 155.057898 218.053066 
L 155.057898 217.989385 
L 157.086989 217.936759 
L 157.086989 217.873376 
L 159.11608 217.796777 
L 159.11608 217.743733 
L 161.14517 217.700745 
L 161.14517 217.596573 
L 163.174261 217.534232 
L 163.174261 217.446061 
L 165.203352 217.345804 
L 165.203352 217.243324 
L 167.232443 217.135046 
L 167.232443 217.019578 
L 169.261534 216.911408 
L 169.261534 216.802127 
L 171.290625 216.756825 
L 171.290625 216.593948 
L 172.30517 216.593948 
L 172.30517 216.475386 
L 173.319716 216.475386 
L 173.319716 216.326507 
L 174.334261 216.326507 
L 174.334261 216.209755 
L 175.348807 216.209755 
L 175.348807 216.045136 
L 176.363352 216.045136 
L 176.363352 215.873253 
L 178.392443 215.786375 
L 178.392443 215.615513 
L 179.406989 215.615513 
L 179.406989 215.393313 
L 180.421534 215.393313 
L 180.421534 215.230071 
L 181.43608 215.230071 
L 181.43608 215.059217 
L 182.450625 215.059217 
L 182.450625 214.926258 
L 183.46517 214.926258 
L 183.46517 214.714968 
L 184.479716 214.714968 
L 184.479716 214.572558 
L 185.494261 214.572558 
L 185.494261 214.364642 
L 186.508807 214.364642 
L 186.508807 214.176905 
L 187.523352 214.176905 
L 187.523352 213.927246 
L 188.537898 213.927246 
L 188.537898 213.728319 
L 189.552443 213.728319 
L 189.552443 213.513027 
L 190.566989 213.513027 
L 190.566989 213.197635 
L 191.581534 213.197635 
L 191.581534 212.971279 
L 192.59608 212.971279 
L 192.59608 212.721858 
L 193.610625 212.721858 
L 193.610625 212.472759 
L 194.62517 212.472759 
L 194.62517 212.263251 
L 195.639716 212.263251 
L 195.639716 211.904037 
L 196.654261 211.904037 
L 196.654261 211.678927 
L 197.668807 211.678927 
L 197.668807 211.493392 
L 198.683352 211.493392 
L 198.683352 211.112641 
L 199.697898 211.112641 
L 199.697898 210.827357 
L 200.712443 210.827357 
L 200.712443 210.614472 
L 201.726989 210.614472 
L 201.726989 210.25772 
L 202.741534 210.25772 
L 202.741534 209.815499 
L 203.75608 209.815499 
L 203.75608 209.63979 
L 204.770625 209.63979 
L 204.770625 209.196111 
L 205.78517 209.196111 
L 205.78517 208.778692 
L 206.799716 208.778692 
L 206.799716 208.313273 
L 208.828807 208.274011 
L 208.828807 207.991944 
L 209.843352 207.991944 
L 209.843352 207.413073 
L 210.857898 207.413073 
L 210.857898 207.094684 
L 211.872443 207.094684 
L 211.872443 206.617927 
L 212.886989 206.617927 
L 212.886989 206.24358 
L 213.901534 206.24358 
L 213.901534 205.949435 
L 215.930625 205.940306 
L 215.930625 205.281907 
L 216.94517 205.281907 
L 216.94517 204.759417 
L 217.959716 204.759417 
L 217.959716 204.64631 
L 218.974261 204.64631 
L 218.974261 203.935687 
L 219.988807 203.935687 
L 219.988807 203.598977 
L 221.003352 203.598977 
L 221.003352 203.13719 
L 222.017898 203.13719 
L 222.017898 202.66402 
L 223.032443 202.66402 
L 223.032443 202.33968 
L 224.046989 202.33968 
L 224.046989 201.68398 
L 225.061534 201.68398 
L 225.061534 201.253775 
L 226.07608 201.253775 
L 226.07608 200.744125 
L 227.090625 200.744125 
L 227.090625 200.04484 
L 228.10517 200.04484 
L 228.10517 199.642012 
L 229.119716 199.642012 
L 229.119716 199.482527 
L 230.134261 199.482527 
L 230.134261 198.779753 
L 231.148807 198.779753 
L 231.148807 198.392991 
L 232.163352 198.392991 
L 232.163352 197.60331 
L 233.177898 197.60331 
L 233.177898 197.479129 
L 234.192443 197.479129 
L 234.192443 196.929355 
L 235.206989 196.929355 
L 235.206989 196.410273 
L 236.221534 196.410273 
L 236.221534 196.036988 
L 237.23608 196.036988 
L 237.23608 195.158093 
L 238.250625 195.158093 
L 238.250625 194.62365 
L 239.26517 194.62365 
L 239.26517 194.469852 
L 240.279716 194.469852 
L 240.279716 193.187419 
L 241.294261 193.187419 
L 241.294261 191.213811 
L 242.308807 191.213811 
L 242.308807 190.850935 
L 243.323352 190.850935 
L 243.323352 190.106572 
L 244.337898 190.106572 
L 244.337898 189.576984 
L 245.352443 189.576984 
L 245.352443 189.19462 
L 246.366989 189.19462 
L 246.366989 188.463372 
L 247.381534 188.463372 
L 247.381534 187.35562 
L 249.410625 187.273224 
L 249.410625 185.519806 
L 250.42517 185.519806 
L 250.42517 182.802239 
L 251.439716 182.802239 
L 251.439716 181.383654 
L 252.454261 181.383654 
L 252.454261 180.251199 
L 253.468807 180.251199 
L 253.468807 180.841933 
L 254.483352 180.841933 
L 254.483352 179.586468 
L 255.497898 179.586468 
L 255.497898 178.454013 
L 256.512443 178.454013 
L 256.512443 176.764391 
L 259.55608 176.84698 
L 259.55608 175.082897 
L 260.570625 175.082897 
L 260.570625 173.054198 
L 261.58517 173.054198 
L 261.58517 171.77528 
L 262.599716 171.77528 
L 262.599716 172.301535 
L 263.614261 172.301535 
L 263.614261 172.017448 
L 264.628807 172.017448 
L 264.628807 169.922709 
L 265.643352 169.922709 
L 265.643352 167.69003 
L 266.657898 167.69003 
L 266.657898 167.311001 
L 267.672443 167.311001 
L 267.672443 167.802812 
L 268.686989 167.802812 
L 268.686989 166.234769 
L 269.701534 166.234769 
L 269.701534 165.383578 
L 270.71608 165.383578 
L 270.71608 163.973453 
L 271.730625 163.973453 
L 271.730625 163.049992 
L 273.759716 163.146752 
L 273.759716 161.529537 
L 274.774261 161.529537 
L 274.774261 159.540877 
L 275.788807 159.540877 
L 275.788807 158.51541 
L 276.803352 158.51541 
L 276.803352 158.937906 
L 277.817898 158.937906 
L 277.817898 158.410199 
L 278.832443 158.410199 
L 278.832443 155.930491 
L 279.846989 155.930491 
L 279.846989 154.686378 
L 280.861534 154.686378 
L 280.861534 152.92691 
L 281.87608 152.92691 
L 281.87608 152.371085 
L 282.890625 152.371085 
L 282.890625 152.689275 
L 283.90517 152.689275 
L 283.90517 149.706436 
L 284.919716 149.706436 
L 284.919716 148.560773 
L 285.934261 148.560773 
L 285.934261 147.53125 
L 287.963352 147.448707 
L 287.963352 147.014588 
L 288.977898 147.014588 
L 288.977898 143.980918 
L 289.992443 143.980918 
L 289.992443 140.79468 
L 291.006989 140.79468 
L 291.006989 140.322141 
L 292.021534 140.322141 
L 292.021534 139.2798 
L 293.03608 139.2798 
L 293.03608 138.164613 
L 294.050625 138.164613 
L 294.050625 137.283582 
L 295.06517 137.283582 
L 295.06517 136.190219 
L 296.079716 136.190219 
L 296.079716 134.297871 
L 297.094261 134.297871 
L 297.094261 133.964417 
L 298.108807 133.964417 
L 298.108807 133.421248 
L 299.123352 133.421248 
L 299.123352 131.559267 
L 300.137898 131.559267 
L 300.137898 130.60773 
L 301.152443 130.60773 
L 301.152443 128.744977 
L 302.166989 128.744977 
L 302.166989 125.487278 
L 303.181534 125.487278 
L 303.181534 126.628384 
L 304.19608 126.628384 
L 304.19608 124.677484 
L 305.210625 124.677484 
L 305.210625 125.213415 
L 306.22517 125.213415 
L 306.22517 122.719909 
L 307.239716 122.719909 
L 307.239716 121.783747 
L 308.254261 121.783747 
L 308.254261 121.342812 
L 309.268807 121.342812 
L 309.268807 115.248642 
L 310.283352 115.248642 
L 310.283352 114.700101 
L 311.297898 114.700101 
L 311.297898 111.799416 
L 312.312443 111.799416 
L 312.312443 111.683101 
L 313.326989 111.683101 
L 313.326989 111.50733 
L 314.341534 111.50733 
L 314.341534 107.504606 
L 315.35608 107.504606 
L 315.35608 105.31158 
L 316.370625 105.31158 
L 316.370625 109.620817 
L 317.38517 109.620817 
L 317.38517 111.846644 
L 318.399716 111.846644 
L 318.399716 110.683547 
L 319.414261 110.683547 
L 319.414261 107.405244 
L 320.428807 107.405244 
L 320.428807 105.171215 
L 321.443352 105.171215 
L 321.443352 102.715499 
L 322.457898 102.715499 
L 322.457898 97.061608 
L 323.472443 97.061608 
L 323.472443 95.179122 
L 324.486989 95.179122 
L 324.486989 92.139093 
L 325.501534 92.139093 
L 325.501534 92.501502 
L 326.51608 92.501502 
L 326.51608 88.307326 
L 327.530625 88.307326 
L 327.530625 87.055551 
L 328.54517 87.055551 
L 328.54517 85.043251 
L 329.559716 85.043251 
L 329.559716 84.211806 
L 330.574261 84.211806 
L 330.574261 85.861206 
L 331.588807 85.861206 
L 331.588807 82.148145 
L 332.603352 82.148145 
L 332.603352 77.500374 
L 333.617898 77.500374 
L 333.617898 77.205415 
L 334.632443 77.205415 
L 334.632443 74.188141 
L 335.646989 74.188141 
L 335.646989 74.018306 
L 336.661534 74.018306 
L 336.661534 71.445453 
L 337.67608 71.445453 
L 337.67608 66.012394 
L 338.690625 66.012394 
L 338.690625 65.244474 
L 339.70517 65.244474 
L 339.70517 61.226899 
L 340.719716 61.226899 
L 340.719716 60.450593 
L 341.734261 60.450593 
L 341.734261 56.875779 
L 342.748807 56.875779 
L 342.748807 58.080202 
L 343.763352 58.080202 
L 343.763352 56.110714 
L 344.777898 56.110714 
L 344.777898 56.346714 
L 345.792443 56.346714 
L 345.792443 54.250825 
L 346.806989 54.250825 
L 346.806989 51.13863 
L 347.821534 51.13863 
L 347.821534 49.887187 
L 348.83608 49.887187 
L 348.83608 49.004471 
L 349.850625 49.004471 
L 349.850625 46.645967 
L 350.86517 46.645967 
L 350.86517 49.206932 
L 351.879716 49.206932 
L 351.879716 47.309968 
L 352.894261 47.309968 
L 352.894261 40.191936 
L 353.908807 40.191936 
L 353.908807 40.52133 
L 354.923352 40.52133 
L 354.923352 40.319566 
L 355.937898 40.319566 
L 355.937898 37.668711 
L 356.952443 37.668711 
L 356.952443 34.465961 
L 357.966989 34.465961 
L 357.966989 31.744924 
L 358.981534 31.744924 
L 358.981534 30.812995 
L 359.99608 30.812995 
L 359.99608 33.130605 
L 361.010625 33.130605 
L 361.010625 28.426963 
L 362.02517 28.426963 
L 362.02517 20.016512 
L 363.039716 20.016512 
L 363.039716 18.891652 
L 364.054261 18.891652 
L 364.054261 21.749435 
L 365.068807 21.749435 
L 365.068807 30.724416 
L 366.083352 30.724416 
L 366.083352 37.341343 
L 367.097898 37.341343 
L 367.097898 75.038714 
L 368.112443 75.038714 
L 368.112443 122.376694 
L 369.126989 122.376694 
L 369.126989 164.930984 
L 370.141534 164.930984 
L 370.141534 187.928161 
L 371.15608 187.928161 
L 371.15608 197.158556 
L 372.170625 197.158556 
L 372.170625 204.685839 
L 373.18517 204.685839 
L 373.18517 208.902608 
L 374.199716 208.902608 
L 374.199716 211.795738 
L 375.214261 211.795738 
L 375.214261 214.017049 
L 376.228807 214.017049 
L 376.228807 215.872257 
L 377.243352 215.872257 
L 377.243352 217.586157 
L 378.257898 217.586157 
L 378.257898 218.631688 
L 379.272443 218.631688 
L 379.272443 218.631688 
" clip-path="url(#pb14a238901)" style="fill: none; stroke: #1f77b4; stroke-width: 1.5; stroke-linecap: square"/>
   </g>
   <g id="LineCollection_1">
    <path d="M 75.41608 218.88 
L 75.41608 218.88 
" clip-path="url(#pb14a238901)" style="fill: none; stroke: #1f77b4; stroke-width: 1.5"/>
    <path d="M 76.430625 218.88 
L 76.430625 218.88 
" clip-path="url(#pb14a238901)" style="fill: none; stroke: #1f77b4; stroke-width: 1.5"/>
    <path d="M 77.44517 218.88 
L 77.44517 218.88 
" clip-path="url(#pb14a238901)" style="fill: none; stroke: #1f77b4; stroke-width: 1.5"/>
    <path d="M 78.459716 218.879999 
L 78.459716 218.879999 
" clip-path="url(#pb14a238901)" style="fill: none; stroke: #1f77b4; stroke-width: 1.5"/>
    <path d="M 79.474261 218.879998 
L 79.474261 218.879998 
" clip-path="url(#pb14a238901)" style="fill: none; stroke: #1f77b4; stroke-width: 1.5"/>
    <path d="M 80.488807 218.879997 
L 80.488807 218.879997 
" clip-path="url(#pb14a238901)" style="fill: none; stroke: #1f77b4; stroke-width: 1.5"/>
    <path d="M 81.503352 218.879994 
L 81.503352 218.879994 
" clip-path="url(#pb14a238901)" style="fill: none; stroke: #1f77b4; stroke-width: 1.5"/>
    <path d="M 82.517898 218.879991 
L 82.517898 218.87999 
" clip-path="url(#pb14a238901)" style="fill: none; stroke: #1f77b4; stroke-width: 1.5"/>
    <path d="M 83.532443 218.879984 
L 83.532443 218.879983 
" clip-path="url(#pb14a238901)" style="fill: none; stroke: #1f77b4; stroke-width: 1.5"/>
    <path d="M 84.546989 218.879972 
L 84.546989 218.87997 
" clip-path="url(#pb14a238901)" style="fill: none; stroke: #1f77b4; stroke-width: 1.5"/>
    <path d="M 85.561534 218.87995 
L 85.561534 218.879948 
" clip-path="url(#pb14a238901)" style="fill: none; stroke: #1f77b4; stroke-width: 1.5"/>
    <path d="M 86.57608 218.879925 
L 86.57608 218.879921 
" clip-path="url(#pb14a238901)" style="fill: none; stroke: #1f77b4; stroke-width: 1.5"/>
    <path d="M 87.590625 218.879892 
L 87.590625 218.879887 
" clip-path="url(#pb14a238901)" style="fill: none; stroke: #1f77b4; stroke-width: 1.5"/>
    <path d="M 88.60517 218.879849 
L 88.60517 218.879842 
" clip-path="url(#pb14a238901)" style="fill: none; stroke: #1f77b4; stroke-width: 1.5"/>
    <path d="M 89.619716 218.879791 
L 89.619716 218.879782 
" clip-path="url(#pb14a238901)" style="fill: none; stroke: #1f77b4; stroke-width: 1.5"/>
    <path d="M 90.634261 218.879701 
L 90.634261 218.879688 
" clip-path="url(#pb14a238901)" style="fill: none; stroke: #1f77b4; stroke-width: 1.5"/>
    <path d="M 91.648807 218.87961 
L 91.648807 218.879593 
" clip-path="url(#pb14a238901)" style="fill: none; stroke: #1f77b4; stroke-width: 1.5"/>
    <path d="M 92.663352 218.879492 
L 92.663352 218.879471 
" clip-path="url(#pb14a238901)" style="fill: none; stroke: #1f77b4; stroke-width: 1.5"/>
    <path d="M 93.677898 218.879353 
L 93.677898 218.879327 
" clip-path="url(#pb14a238901)" style="fill: none; stroke: #1f77b4; stroke-width: 1.5"/>
    <path d="M 94.692443 218.879111 
L 94.692443 218.879075 
" clip-path="url(#pb14a238901)" style="fill: none; stroke: #1f77b4; stroke-width: 1.5"/>
    <path d="M 95.706989 218.878923 
L 95.706989 218.878883 
" clip-path="url(#pb14a238901)" style="fill: none; stroke: #1f77b4; stroke-width: 1.5"/>
    <path d="M 96.721534 218.878654 
L 96.721534 218.878604 
" clip-path="url(#pb14a238901)" style="fill: none; stroke: #1f77b4; stroke-width: 1.5"/>
    <path d="M 97.73608 218.878207 
L 97.73608 218.878142 
" clip-path="url(#pb14a238901)" style="fill: none; stroke: #1f77b4; stroke-width: 1.5"/>
    <path d="M 98.750625 218.877766 
L 98.750625 218.877687 
" clip-path="url(#pb14a238901)" style="fill: none; stroke: #1f77b4; stroke-width: 1.5"/>
    <path d="M 99.76517 218.877259 
L 99.76517 218.877165 
" clip-path="url(#pb14a238901)" style="fill: none; stroke: #1f77b4; stroke-width: 1.5"/>
    <path d="M 100.779716 218.876674 
L 100.779716 218.876564 
" clip-path="url(#pb14a238901)" style="fill: none; stroke: #1f77b4; stroke-width: 1.5"/>
    <path d="M 101.794261 218.875857 
L 101.794261 218.875724 
" clip-path="url(#pb14a238901)" style="fill: none; stroke: #1f77b4; stroke-width: 1.5"/>
    <path d="M 102.808807 218.874903 
L 102.808807 218.874744 
" clip-path="url(#pb14a238901)" style="fill: none; stroke: #1f77b4; stroke-width: 1.5"/>
    <path d="M 103.823352 218.873734 
L 103.823352 218.873542 
" clip-path="url(#pb14a238901)" style="fill: none; stroke: #1f77b4; stroke-width: 1.5"/>
    <path d="M 104.837898 218.872389 
L 104.837898 218.872158 
" clip-path="url(#pb14a238901)" style="fill: none; stroke: #1f77b4; stroke-width: 1.5"/>
    <path d="M 105.852443 218.870883 
L 105.852443 218.870615 
" clip-path="url(#pb14a238901)" style="fill: none; stroke: #1f77b4; stroke-width: 1.5"/>
    <path d="M 106.866989 218.869485 
L 106.866989 218.869187 
" clip-path="url(#pb14a238901)" style="fill: none; stroke: #1f77b4; stroke-width: 1.5"/>
    <path d="M 107.881534 218.867572 
L 107.881534 218.867222 
" clip-path="url(#pb14a238901)" style="fill: none; stroke: #1f77b4; stroke-width: 1.5"/>
    <path d="M 108.89608 218.864965 
L 108.89608 218.864554 
" clip-path="url(#pb14a238901)" style="fill: none; stroke: #1f77b4; stroke-width: 1.5"/>
    <path d="M 109.910625 218.862257 
L 109.910625 218.861782 
" clip-path="url(#pb14a238901)" style="fill: none; stroke: #1f77b4; stroke-width: 1.5"/>
    <path d="M 110.92517 218.860016 
L 110.92517 218.859495 
" clip-path="url(#pb14a238901)" style="fill: none; stroke: #1f77b4; stroke-width: 1.5"/>
    <path d="M 111.939716 218.856847 
L 111.939716 218.856247 
" clip-path="url(#pb14a238901)" style="fill: none; stroke: #1f77b4; stroke-width: 1.5"/>
    <path d="M 112.954261 218.853421 
L 112.954261 218.852751 
" clip-path="url(#pb14a238901)" style="fill: none; stroke: #1f77b4; stroke-width: 1.5"/>
    <path d="M 113.968807 218.84964 
L 113.968807 218.848882 
" clip-path="url(#pb14a238901)" style="fill: none; stroke: #1f77b4; stroke-width: 1.5"/>
    <path d="M 114.983352 218.845088 
L 114.983352 218.844232 
" clip-path="url(#pb14a238901)" style="fill: none; stroke: #1f77b4; stroke-width: 1.5"/>
    <path d="M 115.997898 218.841075 
L 115.997898 218.840117 
" clip-path="url(#pb14a238901)" style="fill: none; stroke: #1f77b4; stroke-width: 1.5"/>
    <path d="M 117.012443 218.836938 
L 117.012443 218.835882 
" clip-path="url(#pb14a238901)" style="fill: none; stroke: #1f77b4; stroke-width: 1.5"/>
    <path d="M 118.026989 218.832275 
L 118.026989 218.831125 
" clip-path="url(#pb14a238901)" style="fill: none; stroke: #1f77b4; stroke-width: 1.5"/>
    <path d="M 119.041534 218.827014 
L 119.041534 218.825723 
" clip-path="url(#pb14a238901)" style="fill: none; stroke: #1f77b4; stroke-width: 1.5"/>
    <path d="M 120.05608 218.820038 
L 120.05608 218.818592 
" clip-path="url(#pb14a238901)" style="fill: none; stroke: #1f77b4; stroke-width: 1.5"/>
    <path d="M 121.070625 218.81345 
L 121.070625 218.811848 
" clip-path="url(#pb14a238901)" style="fill: none; stroke: #1f77b4; stroke-width: 1.5"/>
    <path d="M 122.08517 218.808121 
L 122.08517 218.806369 
" clip-path="url(#pb14a238901)" style="fill: none; stroke: #1f77b4; stroke-width: 1.5"/>
    <path d="M 123.099716 218.80195 
L 123.099716 218.800093 
" clip-path="url(#pb14a238901)" style="fill: none; stroke: #1f77b4; stroke-width: 1.5"/>
    <path d="M 124.114261 218.798514 
L 124.114261 218.796536 
" clip-path="url(#pb14a238901)" style="fill: none; stroke: #1f77b4; stroke-width: 1.5"/>
    <path d="M 125.128807 218.789045 
L 125.128807 218.786834 
" clip-path="url(#pb14a238901)" style="fill: none; stroke: #1f77b4; stroke-width: 1.5"/>
    <path d="M 126.143352 218.786167 
L 126.143352 218.783848 
" clip-path="url(#pb14a238901)" style="fill: none; stroke: #1f77b4; stroke-width: 1.5"/>
    <path d="M 127.157898 218.778407 
L 127.157898 218.775941 
" clip-path="url(#pb14a238901)" style="fill: none; stroke: #1f77b4; stroke-width: 1.5"/>
    <path d="M 128.172443 218.76391 
L 128.172443 218.761126 
" clip-path="url(#pb14a238901)" style="fill: none; stroke: #1f77b4; stroke-width: 1.5"/>
    <path d="M 129.186989 218.7537 
L 129.186989 218.750731 
" clip-path="url(#pb14a238901)" style="fill: none; stroke: #1f77b4; stroke-width: 1.5"/>
    <path d="M 130.201534 218.738749 
L 130.201534 218.735446 
" clip-path="url(#pb14a238901)" style="fill: none; stroke: #1f77b4; stroke-width: 1.5"/>
    <path d="M 131.21608 218.725604 
L 131.21608 218.722056 
" clip-path="url(#pb14a238901)" style="fill: none; stroke: #1f77b4; stroke-width: 1.5"/>
    <path d="M 132.230625 218.713222 
L 132.230625 218.709316 
" clip-path="url(#pb14a238901)" style="fill: none; stroke: #1f77b4; stroke-width: 1.5"/>
    <path d="M 133.24517 218.706738 
L 133.24517 218.702739 
" clip-path="url(#pb14a238901)" style="fill: none; stroke: #1f77b4; stroke-width: 1.5"/>
    <path d="M 134.259716 218.685424 
L 134.259716 218.68097 
" clip-path="url(#pb14a238901)" style="fill: none; stroke: #1f77b4; stroke-width: 1.5"/>
    <path d="M 135.274261 218.667723 
L 135.274261 218.662849 
" clip-path="url(#pb14a238901)" style="fill: none; stroke: #1f77b4; stroke-width: 1.5"/>
    <path d="M 136.288807 218.651519 
L 136.288807 218.646375 
" clip-path="url(#pb14a238901)" style="fill: none; stroke: #1f77b4; stroke-width: 1.5"/>
    <path d="M 137.303352 218.635721 
L 137.303352 218.630176 
" clip-path="url(#pb14a238901)" style="fill: none; stroke: #1f77b4; stroke-width: 1.5"/>
    <path d="M 138.317898 218.618764 
L 138.317898 218.612923 
" clip-path="url(#pb14a238901)" style="fill: none; stroke: #1f77b4; stroke-width: 1.5"/>
    <path d="M 139.332443 218.585752 
L 139.332443 218.579246 
" clip-path="url(#pb14a238901)" style="fill: none; stroke: #1f77b4; stroke-width: 1.5"/>
    <path d="M 140.346989 218.570836 
L 140.346989 218.564023 
" clip-path="url(#pb14a238901)" style="fill: none; stroke: #1f77b4; stroke-width: 1.5"/>
    <path d="M 141.361534 218.541596 
L 141.361534 218.534182 
" clip-path="url(#pb14a238901)" style="fill: none; stroke: #1f77b4; stroke-width: 1.5"/>
    <path d="M 142.37608 218.517517 
L 142.37608 218.509633 
" clip-path="url(#pb14a238901)" style="fill: none; stroke: #1f77b4; stroke-width: 1.5"/>
    <path d="M 143.390625 218.489391 
L 143.390625 218.480991 
" clip-path="url(#pb14a238901)" style="fill: none; stroke: #1f77b4; stroke-width: 1.5"/>
    <path d="M 144.40517 218.468894 
L 144.40517 218.460057 
" clip-path="url(#pb14a238901)" style="fill: none; stroke: #1f77b4; stroke-width: 1.5"/>
    <path d="M 145.419716 218.439881 
L 145.419716 218.430484 
" clip-path="url(#pb14a238901)" style="fill: none; stroke: #1f77b4; stroke-width: 1.5"/>
    <path d="M 146.434261 218.407427 
L 146.434261 218.397365 
" clip-path="url(#pb14a238901)" style="fill: none; stroke: #1f77b4; stroke-width: 1.5"/>
    <path d="M 147.448807 218.365233 
L 147.448807 218.354391 
" clip-path="url(#pb14a238901)" style="fill: none; stroke: #1f77b4; stroke-width: 1.5"/>
    <path d="M 148.463352 218.339953 
L 148.463352 218.328608 
" clip-path="url(#pb14a238901)" style="fill: none; stroke: #1f77b4; stroke-width: 1.5"/>
    <path d="M 149.477898 218.285513 
L 149.477898 218.273033 
" clip-path="url(#pb14a238901)" style="fill: none; stroke: #1f77b4; stroke-width: 1.5"/>
    <path d="M 150.492443 218.257025 
L 150.492443 218.244234 
" clip-path="url(#pb14a238901)" style="fill: none; stroke: #1f77b4; stroke-width: 1.5"/>
    <path d="M 151.506989 218.201353 
L 151.506989 218.187495 
" clip-path="url(#pb14a238901)" style="fill: none; stroke: #1f77b4; stroke-width: 1.5"/>
    <path d="M 152.521534 218.165034 
L 152.521534 218.150514 
" clip-path="url(#pb14a238901)" style="fill: none; stroke: #1f77b4; stroke-width: 1.5"/>
    <path d="M 153.53608 218.113706 
L 153.53608 218.0982 
" clip-path="url(#pb14a238901)" style="fill: none; stroke: #1f77b4; stroke-width: 1.5"/>
    <path d="M 154.550625 218.061296 
L 154.550625 218.044836 
" clip-path="url(#pb14a238901)" style="fill: none; stroke: #1f77b4; stroke-width: 1.5"/>
    <path d="M 155.56517 217.998166 
L 155.56517 217.980604 
" clip-path="url(#pb14a238901)" style="fill: none; stroke: #1f77b4; stroke-width: 1.5"/>
    <path d="M 156.579716 217.945817 
L 156.579716 217.927701 
" clip-path="url(#pb14a238901)" style="fill: none; stroke: #1f77b4; stroke-width: 1.5"/>
    <path d="M 157.594261 217.883144 
L 157.594261 217.863609 
" clip-path="url(#pb14a238901)" style="fill: none; stroke: #1f77b4; stroke-width: 1.5"/>
    <path d="M 158.608807 217.807259 
L 158.608807 217.786295 
" clip-path="url(#pb14a238901)" style="fill: none; stroke: #1f77b4; stroke-width: 1.5"/>
    <path d="M 159.623352 217.754542 
L 159.623352 217.732923 
" clip-path="url(#pb14a238901)" style="fill: none; stroke: #1f77b4; stroke-width: 1.5"/>
    <path d="M 160.637898 217.711858 
L 160.637898 217.689633 
" clip-path="url(#pb14a238901)" style="fill: none; stroke: #1f77b4; stroke-width: 1.5"/>
    <path d="M 161.652443 217.608518 
L 161.652443 217.584628 
" clip-path="url(#pb14a238901)" style="fill: none; stroke: #1f77b4; stroke-width: 1.5"/>
    <path d="M 162.666989 217.546654 
L 162.666989 217.52181 
" clip-path="url(#pb14a238901)" style="fill: none; stroke: #1f77b4; stroke-width: 1.5"/>
    <path d="M 163.681534 217.459244 
L 163.681534 217.432878 
" clip-path="url(#pb14a238901)" style="fill: none; stroke: #1f77b4; stroke-width: 1.5"/>
    <path d="M 164.69608 217.359821 
L 164.69608 217.331787 
" clip-path="url(#pb14a238901)" style="fill: none; stroke: #1f77b4; stroke-width: 1.5"/>
    <path d="M 165.710625 217.258273 
L 165.710625 217.228376 
" clip-path="url(#pb14a238901)" style="fill: none; stroke: #1f77b4; stroke-width: 1.5"/>
    <path d="M 166.72517 217.15106 
L 166.72517 217.119032 
" clip-path="url(#pb14a238901)" style="fill: none; stroke: #1f77b4; stroke-width: 1.5"/>
    <path d="M 167.739716 217.036516 
L 167.739716 217.002641 
" clip-path="url(#pb14a238901)" style="fill: none; stroke: #1f77b4; stroke-width: 1.5"/>
    <path d="M 168.754261 216.929288 
L 168.754261 216.893529 
" clip-path="url(#pb14a238901)" style="fill: none; stroke: #1f77b4; stroke-width: 1.5"/>
    <path d="M 169.768807 216.820596 
L 169.768807 216.783659 
" clip-path="url(#pb14a238901)" style="fill: none; stroke: #1f77b4; stroke-width: 1.5"/>
    <path d="M 170.783352 216.775755 
L 170.783352 216.737896 
" clip-path="url(#pb14a238901)" style="fill: none; stroke: #1f77b4; stroke-width: 1.5"/>
    <path d="M 171.797898 216.614161 
L 171.797898 216.573736 
" clip-path="url(#pb14a238901)" style="fill: none; stroke: #1f77b4; stroke-width: 1.5"/>
    <path d="M 172.812443 216.496621 
L 172.812443 216.454151 
" clip-path="url(#pb14a238901)" style="fill: none; stroke: #1f77b4; stroke-width: 1.5"/>
    <path d="M 173.826989 216.348868 
L 173.826989 216.304147 
" clip-path="url(#pb14a238901)" style="fill: none; stroke: #1f77b4; stroke-width: 1.5"/>
    <path d="M 174.841534 216.232871 
L 174.841534 216.186638 
" clip-path="url(#pb14a238901)" style="fill: none; stroke: #1f77b4; stroke-width: 1.5"/>
    <path d="M 175.85608 216.069452 
L 175.85608 216.02082 
" clip-path="url(#pb14a238901)" style="fill: none; stroke: #1f77b4; stroke-width: 1.5"/>
    <path d="M 176.870625 215.899246 
L 176.870625 215.847259 
" clip-path="url(#pb14a238901)" style="fill: none; stroke: #1f77b4; stroke-width: 1.5"/>
    <path d="M 177.88517 215.812805 
L 177.88517 215.759945 
" clip-path="url(#pb14a238901)" style="fill: none; stroke: #1f77b4; stroke-width: 1.5"/>
    <path d="M 178.899716 215.643269 
L 178.899716 215.587757 
" clip-path="url(#pb14a238901)" style="fill: none; stroke: #1f77b4; stroke-width: 1.5"/>
    <path d="M 179.914261 215.422518 
L 179.914261 215.364109 
" clip-path="url(#pb14a238901)" style="fill: none; stroke: #1f77b4; stroke-width: 1.5"/>
    <path d="M 180.928807 215.260552 
L 180.928807 215.199591 
" clip-path="url(#pb14a238901)" style="fill: none; stroke: #1f77b4; stroke-width: 1.5"/>
    <path d="M 181.943352 215.091238 
L 181.943352 215.027195 
" clip-path="url(#pb14a238901)" style="fill: none; stroke: #1f77b4; stroke-width: 1.5"/>
    <path d="M 182.957898 214.958984 
L 182.957898 214.893533 
" clip-path="url(#pb14a238901)" style="fill: none; stroke: #1f77b4; stroke-width: 1.5"/>
    <path d="M 183.972443 214.749288 
L 183.972443 214.680648 
" clip-path="url(#pb14a238901)" style="fill: none; stroke: #1f77b4; stroke-width: 1.5"/>
    <path d="M 184.986989 214.608072 
L 184.986989 214.537045 
" clip-path="url(#pb14a238901)" style="fill: none; stroke: #1f77b4; stroke-width: 1.5"/>
    <path d="M 186.001534 214.401359 
L 186.001534 214.327925 
" clip-path="url(#pb14a238901)" style="fill: none; stroke: #1f77b4; stroke-width: 1.5"/>
    <path d="M 187.01608 214.215299 
L 187.01608 214.138511 
" clip-path="url(#pb14a238901)" style="fill: none; stroke: #1f77b4; stroke-width: 1.5"/>
    <path d="M 188.030625 213.967453 
L 188.030625 213.88704 
" clip-path="url(#pb14a238901)" style="fill: none; stroke: #1f77b4; stroke-width: 1.5"/>
    <path d="M 189.04517 213.770094 
L 189.04517 213.686544 
" clip-path="url(#pb14a238901)" style="fill: none; stroke: #1f77b4; stroke-width: 1.5"/>
    <path d="M 190.059716 213.556375 
L 190.059716 213.469679 
" clip-path="url(#pb14a238901)" style="fill: none; stroke: #1f77b4; stroke-width: 1.5"/>
    <path d="M 191.074261 213.24317 
L 191.074261 213.152101 
" clip-path="url(#pb14a238901)" style="fill: none; stroke: #1f77b4; stroke-width: 1.5"/>
    <path d="M 192.088807 213.018183 
L 192.088807 212.924374 
" clip-path="url(#pb14a238901)" style="fill: none; stroke: #1f77b4; stroke-width: 1.5"/>
    <path d="M 193.103352 212.770534 
L 193.103352 212.673181 
" clip-path="url(#pb14a238901)" style="fill: none; stroke: #1f77b4; stroke-width: 1.5"/>
    <path d="M 194.117898 212.523214 
L 194.117898 212.422304 
" clip-path="url(#pb14a238901)" style="fill: none; stroke: #1f77b4; stroke-width: 1.5"/>
    <path d="M 195.132443 212.315187 
L 195.132443 212.211316 
" clip-path="url(#pb14a238901)" style="fill: none; stroke: #1f77b4; stroke-width: 1.5"/>
    <path d="M 196.146989 211.958659 
L 196.146989 211.849414 
" clip-path="url(#pb14a238901)" style="fill: none; stroke: #1f77b4; stroke-width: 1.5"/>
    <path d="M 197.161534 211.734976 
L 197.161534 211.622878 
" clip-path="url(#pb14a238901)" style="fill: none; stroke: #1f77b4; stroke-width: 1.5"/>
    <path d="M 198.17608 211.550961 
L 198.17608 211.435823 
" clip-path="url(#pb14a238901)" style="fill: none; stroke: #1f77b4; stroke-width: 1.5"/>
    <path d="M 199.190625 211.173713 
L 199.190625 211.051569 
" clip-path="url(#pb14a238901)" style="fill: none; stroke: #1f77b4; stroke-width: 1.5"/>
    <path d="M 200.20517 210.890509 
L 200.20517 210.764205 
" clip-path="url(#pb14a238901)" style="fill: none; stroke: #1f77b4; stroke-width: 1.5"/>
    <path d="M 201.219716 210.679169 
L 201.219716 210.549775 
" clip-path="url(#pb14a238901)" style="fill: none; stroke: #1f77b4; stroke-width: 1.5"/>
    <path d="M 202.234261 210.324906 
L 202.234261 210.190534 
" clip-path="url(#pb14a238901)" style="fill: none; stroke: #1f77b4; stroke-width: 1.5"/>
    <path d="M 203.248807 209.886263 
L 203.248807 209.744736 
" clip-path="url(#pb14a238901)" style="fill: none; stroke: #1f77b4; stroke-width: 1.5"/>
    <path d="M 204.263352 209.711533 
L 204.263352 209.568048 
" clip-path="url(#pb14a238901)" style="fill: none; stroke: #1f77b4; stroke-width: 1.5"/>
    <path d="M 205.277898 209.270837 
L 205.277898 209.121384 
" clip-path="url(#pb14a238901)" style="fill: none; stroke: #1f77b4; stroke-width: 1.5"/>
    <path d="M 206.292443 208.856902 
L 206.292443 208.700482 
" clip-path="url(#pb14a238901)" style="fill: none; stroke: #1f77b4; stroke-width: 1.5"/>
    <path d="M 207.306989 208.395387 
L 207.306989 208.23116 
" clip-path="url(#pb14a238901)" style="fill: none; stroke: #1f77b4; stroke-width: 1.5"/>
    <path d="M 208.321534 208.355529 
L 208.321534 208.192492 
" clip-path="url(#pb14a238901)" style="fill: none; stroke: #1f77b4; stroke-width: 1.5"/>
    <path d="M 209.33608 208.07497 
L 209.33608 207.908918 
" clip-path="url(#pb14a238901)" style="fill: none; stroke: #1f77b4; stroke-width: 1.5"/>
    <path d="M 210.350625 207.50061 
L 210.350625 207.325535 
" clip-path="url(#pb14a238901)" style="fill: none; stroke: #1f77b4; stroke-width: 1.5"/>
    <path d="M 211.36517 207.184613 
L 211.36517 207.004755 
" clip-path="url(#pb14a238901)" style="fill: none; stroke: #1f77b4; stroke-width: 1.5"/>
    <path d="M 212.379716 206.711602 
L 212.379716 206.524251 
" clip-path="url(#pb14a238901)" style="fill: none; stroke: #1f77b4; stroke-width: 1.5"/>
    <path d="M 213.394261 206.338553 
L 213.394261 206.148606 
" clip-path="url(#pb14a238901)" style="fill: none; stroke: #1f77b4; stroke-width: 1.5"/>
    <path d="M 214.408807 206.047724 
L 214.408807 205.851146 
" clip-path="url(#pb14a238901)" style="fill: none; stroke: #1f77b4; stroke-width: 1.5"/>
    <path d="M 215.423352 206.038195 
L 215.423352 205.842417 
" clip-path="url(#pb14a238901)" style="fill: none; stroke: #1f77b4; stroke-width: 1.5"/>
    <path d="M 216.437898 205.385545 
L 216.437898 205.17827 
" clip-path="url(#pb14a238901)" style="fill: none; stroke: #1f77b4; stroke-width: 1.5"/>
    <path d="M 217.452443 204.86627 
L 217.452443 204.652564 
" clip-path="url(#pb14a238901)" style="fill: none; stroke: #1f77b4; stroke-width: 1.5"/>
    <path d="M 218.466989 204.752382 
L 218.466989 204.540238 
" clip-path="url(#pb14a238901)" style="fill: none; stroke: #1f77b4; stroke-width: 1.5"/>
    <path d="M 219.481534 204.049017 
L 219.481534 203.822357 
" clip-path="url(#pb14a238901)" style="fill: none; stroke: #1f77b4; stroke-width: 1.5"/>
    <path d="M 220.49608 203.713518 
L 220.49608 203.484435 
" clip-path="url(#pb14a238901)" style="fill: none; stroke: #1f77b4; stroke-width: 1.5"/>
    <path d="M 221.510625 203.254547 
L 221.510625 203.019834 
" clip-path="url(#pb14a238901)" style="fill: none; stroke: #1f77b4; stroke-width: 1.5"/>
    <path d="M 222.52517 202.78528 
L 222.52517 202.542761 
" clip-path="url(#pb14a238901)" style="fill: none; stroke: #1f77b4; stroke-width: 1.5"/>
    <path d="M 223.539716 202.462925 
L 223.539716 202.216435 
" clip-path="url(#pb14a238901)" style="fill: none; stroke: #1f77b4; stroke-width: 1.5"/>
    <path d="M 224.554261 201.812295 
L 224.554261 201.555666 
" clip-path="url(#pb14a238901)" style="fill: none; stroke: #1f77b4; stroke-width: 1.5"/>
    <path d="M 225.568807 201.384824 
L 225.568807 201.122725 
" clip-path="url(#pb14a238901)" style="fill: none; stroke: #1f77b4; stroke-width: 1.5"/>
    <path d="M 226.583352 200.879983 
L 226.583352 200.608267 
" clip-path="url(#pb14a238901)" style="fill: none; stroke: #1f77b4; stroke-width: 1.5"/>
    <path d="M 227.597898 200.185888 
L 227.597898 199.903792 
" clip-path="url(#pb14a238901)" style="fill: none; stroke: #1f77b4; stroke-width: 1.5"/>
    <path d="M 228.612443 199.785445 
L 228.612443 199.49858 
" clip-path="url(#pb14a238901)" style="fill: none; stroke: #1f77b4; stroke-width: 1.5"/>
    <path d="M 229.626989 199.627234 
L 229.626989 199.33782 
" clip-path="url(#pb14a238901)" style="fill: none; stroke: #1f77b4; stroke-width: 1.5"/>
    <path d="M 230.641534 198.928282 
L 230.641534 198.631225 
" clip-path="url(#pb14a238901)" style="fill: none; stroke: #1f77b4; stroke-width: 1.5"/>
    <path d="M 231.65608 198.54523 
L 231.65608 198.240752 
" clip-path="url(#pb14a238901)" style="fill: none; stroke: #1f77b4; stroke-width: 1.5"/>
    <path d="M 232.670625 197.761537 
L 232.670625 197.445082 
" clip-path="url(#pb14a238901)" style="fill: none; stroke: #1f77b4; stroke-width: 1.5"/>
    <path d="M 233.68517 197.638664 
L 233.68517 197.319594 
" clip-path="url(#pb14a238901)" style="fill: none; stroke: #1f77b4; stroke-width: 1.5"/>
    <path d="M 234.699716 197.094015 
L 234.699716 196.764696 
" clip-path="url(#pb14a238901)" style="fill: none; stroke: #1f77b4; stroke-width: 1.5"/>
    <path d="M 235.714261 196.580118 
L 235.714261 196.240427 
" clip-path="url(#pb14a238901)" style="fill: none; stroke: #1f77b4; stroke-width: 1.5"/>
    <path d="M 236.728807 196.208125 
L 236.728807 195.865852 
" clip-path="url(#pb14a238901)" style="fill: none; stroke: #1f77b4; stroke-width: 1.5"/>
    <path d="M 237.743352 195.335965 
L 237.743352 194.980221 
" clip-path="url(#pb14a238901)" style="fill: none; stroke: #1f77b4; stroke-width: 1.5"/>
    <path d="M 238.757898 194.807019 
L 238.757898 194.440282 
" clip-path="url(#pb14a238901)" style="fill: none; stroke: #1f77b4; stroke-width: 1.5"/>
    <path d="M 239.772443 194.654061 
L 239.772443 194.285643 
" clip-path="url(#pb14a238901)" style="fill: none; stroke: #1f77b4; stroke-width: 1.5"/>
    <path d="M 240.786989 193.380604 
L 240.786989 192.994233 
" clip-path="url(#pb14a238901)" style="fill: none; stroke: #1f77b4; stroke-width: 1.5"/>
    <path d="M 241.801534 191.425658 
L 241.801534 191.001965 
" clip-path="url(#pb14a238901)" style="fill: none; stroke: #1f77b4; stroke-width: 1.5"/>
    <path d="M 242.81608 191.066325 
L 242.81608 190.635546 
" clip-path="url(#pb14a238901)" style="fill: none; stroke: #1f77b4; stroke-width: 1.5"/>
    <path d="M 243.830625 190.326522 
L 243.830625 189.886623 
" clip-path="url(#pb14a238901)" style="fill: none; stroke: #1f77b4; stroke-width: 1.5"/>
    <path d="M 244.84517 189.798747 
L 244.84517 189.355221 
" clip-path="url(#pb14a238901)" style="fill: none; stroke: #1f77b4; stroke-width: 1.5"/>
    <path d="M 245.859716 189.419647 
L 245.859716 188.969593 
" clip-path="url(#pb14a238901)" style="fill: none; stroke: #1f77b4; stroke-width: 1.5"/>
    <path d="M 246.874261 188.695961 
L 246.874261 188.230782 
" clip-path="url(#pb14a238901)" style="fill: none; stroke: #1f77b4; stroke-width: 1.5"/>
    <path d="M 247.888807 187.595671 
L 247.888807 187.115569 
" clip-path="url(#pb14a238901)" style="fill: none; stroke: #1f77b4; stroke-width: 1.5"/>
    <path d="M 248.903352 187.514695 
L 248.903352 187.031753 
" clip-path="url(#pb14a238901)" style="fill: none; stroke: #1f77b4; stroke-width: 1.5"/>
    <path d="M 249.917898 185.777573 
L 249.917898 185.262039 
" clip-path="url(#pb14a238901)" style="fill: none; stroke: #1f77b4; stroke-width: 1.5"/>
    <path d="M 250.932443 183.087398 
L 250.932443 182.51708 
" clip-path="url(#pb14a238901)" style="fill: none; stroke: #1f77b4; stroke-width: 1.5"/>
    <path d="M 251.946989 181.681053 
L 251.946989 181.086255 
" clip-path="url(#pb14a238901)" style="fill: none; stroke: #1f77b4; stroke-width: 1.5"/>
    <path d="M 252.961534 180.550874 
L 252.961534 179.951524 
" clip-path="url(#pb14a238901)" style="fill: none; stroke: #1f77b4; stroke-width: 1.5"/>
    <path d="M 253.97608 181.137311 
L 253.97608 180.546555 
" clip-path="url(#pb14a238901)" style="fill: none; stroke: #1f77b4; stroke-width: 1.5"/>
    <path d="M 254.990625 179.889035 
L 254.990625 179.283901 
" clip-path="url(#pb14a238901)" style="fill: none; stroke: #1f77b4; stroke-width: 1.5"/>
    <path d="M 256.00517 178.767706 
L 256.00517 178.140319 
" clip-path="url(#pb14a238901)" style="fill: none; stroke: #1f77b4; stroke-width: 1.5"/>
    <path d="M 257.019716 177.091741 
L 257.019716 176.437041 
" clip-path="url(#pb14a238901)" style="fill: none; stroke: #1f77b4; stroke-width: 1.5"/>
    <path d="M 258.034261 177.150266 
L 258.034261 176.502908 
" clip-path="url(#pb14a238901)" style="fill: none; stroke: #1f77b4; stroke-width: 1.5"/>
    <path d="M 259.048807 177.169105 
L 259.048807 176.524855 
" clip-path="url(#pb14a238901)" style="fill: none; stroke: #1f77b4; stroke-width: 1.5"/>
    <path d="M 260.063352 175.419559 
L 260.063352 174.746234 
" clip-path="url(#pb14a238901)" style="fill: none; stroke: #1f77b4; stroke-width: 1.5"/>
    <path d="M 261.077898 173.40364 
L 261.077898 172.704756 
" clip-path="url(#pb14a238901)" style="fill: none; stroke: #1f77b4; stroke-width: 1.5"/>
    <path d="M 262.092443 172.136445 
L 262.092443 171.414116 
" clip-path="url(#pb14a238901)" style="fill: none; stroke: #1f77b4; stroke-width: 1.5"/>
    <path d="M 263.106989 172.65493 
L 263.106989 171.948141 
" clip-path="url(#pb14a238901)" style="fill: none; stroke: #1f77b4; stroke-width: 1.5"/>
    <path d="M 264.121534 172.370392 
L 264.121534 171.664504 
" clip-path="url(#pb14a238901)" style="fill: none; stroke: #1f77b4; stroke-width: 1.5"/>
    <path d="M 265.13608 170.297106 
L 265.13608 169.548313 
" clip-path="url(#pb14a238901)" style="fill: none; stroke: #1f77b4; stroke-width: 1.5"/>
    <path d="M 266.150625 168.079083 
L 266.150625 167.300977 
" clip-path="url(#pb14a238901)" style="fill: none; stroke: #1f77b4; stroke-width: 1.5"/>
    <path d="M 267.16517 167.701007 
L 267.16517 166.920995 
" clip-path="url(#pb14a238901)" style="fill: none; stroke: #1f77b4; stroke-width: 1.5"/>
    <path d="M 268.179716 168.185353 
L 268.179716 167.420272 
" clip-path="url(#pb14a238901)" style="fill: none; stroke: #1f77b4; stroke-width: 1.5"/>
    <path d="M 269.194261 166.628945 
L 269.194261 165.840592 
" clip-path="url(#pb14a238901)" style="fill: none; stroke: #1f77b4; stroke-width: 1.5"/>
    <path d="M 270.208807 165.786422 
L 270.208807 164.980734 
" clip-path="url(#pb14a238901)" style="fill: none; stroke: #1f77b4; stroke-width: 1.5"/>
    <path d="M 271.223352 164.388324 
L 271.223352 163.558581 
" clip-path="url(#pb14a238901)" style="fill: none; stroke: #1f77b4; stroke-width: 1.5"/>
    <path d="M 272.237898 163.47308 
L 272.237898 162.626904 
" clip-path="url(#pb14a238901)" style="fill: none; stroke: #1f77b4; stroke-width: 1.5"/>
    <path d="M 273.252443 163.564408 
L 273.252443 162.729096 
" clip-path="url(#pb14a238901)" style="fill: none; stroke: #1f77b4; stroke-width: 1.5"/>
    <path d="M 274.266989 161.960212 
L 274.266989 161.098863 
" clip-path="url(#pb14a238901)" style="fill: none; stroke: #1f77b4; stroke-width: 1.5"/>
    <path d="M 275.281534 159.986902 
L 275.281534 159.094852 
" clip-path="url(#pb14a238901)" style="fill: none; stroke: #1f77b4; stroke-width: 1.5"/>
    <path d="M 276.29608 158.967783 
L 276.29608 158.063037 
" clip-path="url(#pb14a238901)" style="fill: none; stroke: #1f77b4; stroke-width: 1.5"/>
    <path d="M 277.310625 159.390036 
L 277.310625 158.485777 
" clip-path="url(#pb14a238901)" style="fill: none; stroke: #1f77b4; stroke-width: 1.5"/>
    <path d="M 278.32517 158.866686 
L 278.32517 157.953711 
" clip-path="url(#pb14a238901)" style="fill: none; stroke: #1f77b4; stroke-width: 1.5"/>
    <path d="M 279.339716 156.402261 
L 279.339716 155.458721 
" clip-path="url(#pb14a238901)" style="fill: none; stroke: #1f77b4; stroke-width: 1.5"/>
    <path d="M 280.354261 155.166583 
L 280.354261 154.206173 
" clip-path="url(#pb14a238901)" style="fill: none; stroke: #1f77b4; stroke-width: 1.5"/>
    <path d="M 281.368807 153.415621 
L 281.368807 152.438199 
" clip-path="url(#pb14a238901)" style="fill: none; stroke: #1f77b4; stroke-width: 1.5"/>
    <path d="M 282.383352 152.861227 
L 282.383352 151.880942 
" clip-path="url(#pb14a238901)" style="fill: none; stroke: #1f77b4; stroke-width: 1.5"/>
    <path d="M 283.397898 153.182153 
L 283.397898 152.196397 
" clip-path="url(#pb14a238901)" style="fill: none; stroke: #1f77b4; stroke-width: 1.5"/>
    <path d="M 284.412443 150.220566 
L 284.412443 149.192307 
" clip-path="url(#pb14a238901)" style="fill: none; stroke: #1f77b4; stroke-width: 1.5"/>
    <path d="M 285.426989 149.081181 
L 285.426989 148.040365 
" clip-path="url(#pb14a238901)" style="fill: none; stroke: #1f77b4; stroke-width: 1.5"/>
    <path d="M 286.441534 148.059623 
L 286.441534 147.002878 
" clip-path="url(#pb14a238901)" style="fill: none; stroke: #1f77b4; stroke-width: 1.5"/>
    <path d="M 287.45608 147.984014 
L 287.45608 146.913399 
" clip-path="url(#pb14a238901)" style="fill: none; stroke: #1f77b4; stroke-width: 1.5"/>
    <path d="M 288.470625 147.548953 
L 288.470625 146.480223 
" clip-path="url(#pb14a238901)" style="fill: none; stroke: #1f77b4; stroke-width: 1.5"/>
    <path d="M 289.48517 144.541463 
L 289.48517 143.420373 
" clip-path="url(#pb14a238901)" style="fill: none; stroke: #1f77b4; stroke-width: 1.5"/>
    <path d="M 290.499716 141.377756 
L 290.499716 140.211605 
" clip-path="url(#pb14a238901)" style="fill: none; stroke: #1f77b4; stroke-width: 1.5"/>
    <path d="M 291.514261 140.905128 
L 291.514261 139.739155 
" clip-path="url(#pb14a238901)" style="fill: none; stroke: #1f77b4; stroke-width: 1.5"/>
    <path d="M 292.528807 139.870779 
L 292.528807 138.688822 
" clip-path="url(#pb14a238901)" style="fill: none; stroke: #1f77b4; stroke-width: 1.5"/>
    <path d="M 293.543352 138.762488 
L 293.543352 137.566737 
" clip-path="url(#pb14a238901)" style="fill: none; stroke: #1f77b4; stroke-width: 1.5"/>
    <path d="M 294.557898 137.885893 
L 294.557898 136.681271 
" clip-path="url(#pb14a238901)" style="fill: none; stroke: #1f77b4; stroke-width: 1.5"/>
    <path d="M 295.572443 136.806194 
L 295.572443 135.574244 
" clip-path="url(#pb14a238901)" style="fill: none; stroke: #1f77b4; stroke-width: 1.5"/>
    <path d="M 296.586989 134.931313 
L 296.586989 133.664428 
" clip-path="url(#pb14a238901)" style="fill: none; stroke: #1f77b4; stroke-width: 1.5"/>
    <path d="M 297.601534 134.599496 
L 297.601534 133.329339 
" clip-path="url(#pb14a238901)" style="fill: none; stroke: #1f77b4; stroke-width: 1.5"/>
    <path d="M 298.61608 134.062936 
L 298.61608 132.77956 
" clip-path="url(#pb14a238901)" style="fill: none; stroke: #1f77b4; stroke-width: 1.5"/>
    <path d="M 299.630625 132.222581 
L 299.630625 130.895953 
" clip-path="url(#pb14a238901)" style="fill: none; stroke: #1f77b4; stroke-width: 1.5"/>
    <path d="M 300.64517 131.269962 
L 300.64517 129.945498 
" clip-path="url(#pb14a238901)" style="fill: none; stroke: #1f77b4; stroke-width: 1.5"/>
    <path d="M 301.659716 129.417374 
L 301.659716 128.07258 
" clip-path="url(#pb14a238901)" style="fill: none; stroke: #1f77b4; stroke-width: 1.5"/>
    <path d="M 302.674261 126.186102 
L 302.674261 124.788455 
" clip-path="url(#pb14a238901)" style="fill: none; stroke: #1f77b4; stroke-width: 1.5"/>
    <path d="M 303.688807 127.319928 
L 303.688807 125.93684 
" clip-path="url(#pb14a238901)" style="fill: none; stroke: #1f77b4; stroke-width: 1.5"/>
    <path d="M 304.703352 125.386727 
L 304.703352 123.968241 
" clip-path="url(#pb14a238901)" style="fill: none; stroke: #1f77b4; stroke-width: 1.5"/>
    <path d="M 305.717898 125.917701 
L 305.717898 124.509128 
" clip-path="url(#pb14a238901)" style="fill: none; stroke: #1f77b4; stroke-width: 1.5"/>
    <path d="M 306.732443 123.439948 
L 306.732443 121.999871 
" clip-path="url(#pb14a238901)" style="fill: none; stroke: #1f77b4; stroke-width: 1.5"/>
    <path d="M 307.746989 122.515551 
L 307.746989 121.051944 
" clip-path="url(#pb14a238901)" style="fill: none; stroke: #1f77b4; stroke-width: 1.5"/>
    <path d="M 308.761534 122.080489 
L 308.761534 120.605136 
" clip-path="url(#pb14a238901)" style="fill: none; stroke: #1f77b4; stroke-width: 1.5"/>
    <path d="M 309.77608 116.024508 
L 309.77608 114.472776 
" clip-path="url(#pb14a238901)" style="fill: none; stroke: #1f77b4; stroke-width: 1.5"/>
    <path d="M 310.790625 115.488209 
L 310.790625 113.911993 
" clip-path="url(#pb14a238901)" style="fill: none; stroke: #1f77b4; stroke-width: 1.5"/>
    <path d="M 311.80517 112.606874 
L 311.80517 110.991957 
" clip-path="url(#pb14a238901)" style="fill: none; stroke: #1f77b4; stroke-width: 1.5"/>
    <path d="M 312.819716 112.489754 
L 312.819716 110.876447 
" clip-path="url(#pb14a238901)" style="fill: none; stroke: #1f77b4; stroke-width: 1.5"/>
    <path d="M 313.834261 112.322152 
L 313.834261 110.692507 
" clip-path="url(#pb14a238901)" style="fill: none; stroke: #1f77b4; stroke-width: 1.5"/>
    <path d="M 314.848807 108.350237 
L 314.848807 106.658976 
" clip-path="url(#pb14a238901)" style="fill: none; stroke: #1f77b4; stroke-width: 1.5"/>
    <path d="M 315.863352 106.17049 
L 315.863352 104.452669 
" clip-path="url(#pb14a238901)" style="fill: none; stroke: #1f77b4; stroke-width: 1.5"/>
    <path d="M 316.877898 110.462417 
L 316.877898 108.779218 
" clip-path="url(#pb14a238901)" style="fill: none; stroke: #1f77b4; stroke-width: 1.5"/>
    <path d="M 317.892443 112.682182 
L 317.892443 111.011105 
" clip-path="url(#pb14a238901)" style="fill: none; stroke: #1f77b4; stroke-width: 1.5"/>
    <path d="M 318.906989 111.530561 
L 318.906989 109.836533 
" clip-path="url(#pb14a238901)" style="fill: none; stroke: #1f77b4; stroke-width: 1.5"/>
    <path d="M 319.921534 108.277633 
L 319.921534 106.532855 
" clip-path="url(#pb14a238901)" style="fill: none; stroke: #1f77b4; stroke-width: 1.5"/>
    <path d="M 320.93608 106.066201 
L 320.93608 104.27623 
" clip-path="url(#pb14a238901)" style="fill: none; stroke: #1f77b4; stroke-width: 1.5"/>
    <path d="M 321.950625 103.614167 
L 321.950625 101.816831 
" clip-path="url(#pb14a238901)" style="fill: none; stroke: #1f77b4; stroke-width: 1.5"/>
    <path d="M 322.96517 97.996051 
L 322.96517 96.127164 
" clip-path="url(#pb14a238901)" style="fill: none; stroke: #1f77b4; stroke-width: 1.5"/>
    <path d="M 323.979716 96.124638 
L 323.979716 94.233606 
" clip-path="url(#pb14a238901)" style="fill: none; stroke: #1f77b4; stroke-width: 1.5"/>
    <path d="M 324.994261 93.109718 
L 324.994261 91.168468 
" clip-path="url(#pb14a238901)" style="fill: none; stroke: #1f77b4; stroke-width: 1.5"/>
    <path d="M 326.008807 93.47469 
L 326.008807 91.528314 
" clip-path="url(#pb14a238901)" style="fill: none; stroke: #1f77b4; stroke-width: 1.5"/>
    <path d="M 327.023352 89.313901 
L 327.023352 87.30075 
" clip-path="url(#pb14a238901)" style="fill: none; stroke: #1f77b4; stroke-width: 1.5"/>
    <path d="M 328.037898 88.068774 
L 328.037898 86.042327 
" clip-path="url(#pb14a238901)" style="fill: none; stroke: #1f77b4; stroke-width: 1.5"/>
    <path d="M 329.052443 86.068789 
L 329.052443 84.017714 
" clip-path="url(#pb14a238901)" style="fill: none; stroke: #1f77b4; stroke-width: 1.5"/>
    <path d="M 330.066989 85.2479 
L 330.066989 83.175713 
" clip-path="url(#pb14a238901)" style="fill: none; stroke: #1f77b4; stroke-width: 1.5"/>
    <path d="M 331.081534 86.886905 
L 331.081534 84.835508 
" clip-path="url(#pb14a238901)" style="fill: none; stroke: #1f77b4; stroke-width: 1.5"/>
    <path d="M 332.09608 83.205261 
L 332.09608 81.091029 
" clip-path="url(#pb14a238901)" style="fill: none; stroke: #1f77b4; stroke-width: 1.5"/>
    <path d="M 333.110625 78.577356 
L 333.110625 76.423392 
" clip-path="url(#pb14a238901)" style="fill: none; stroke: #1f77b4; stroke-width: 1.5"/>
    <path d="M 334.12517 78.269803 
L 334.12517 76.141028 
" clip-path="url(#pb14a238901)" style="fill: none; stroke: #1f77b4; stroke-width: 1.5"/>
    <path d="M 335.139716 75.28772 
L 335.139716 73.088563 
" clip-path="url(#pb14a238901)" style="fill: none; stroke: #1f77b4; stroke-width: 1.5"/>
    <path d="M 336.154261 75.123978 
L 336.154261 72.912634 
" clip-path="url(#pb14a238901)" style="fill: none; stroke: #1f77b4; stroke-width: 1.5"/>
    <path d="M 337.168807 72.576139 
L 337.168807 70.314768 
" clip-path="url(#pb14a238901)" style="fill: none; stroke: #1f77b4; stroke-width: 1.5"/>
    <path d="M 338.183352 67.200523 
L 338.183352 64.824266 
" clip-path="url(#pb14a238901)" style="fill: none; stroke: #1f77b4; stroke-width: 1.5"/>
    <path d="M 339.197898 66.443598 
L 339.197898 64.045349 
" clip-path="url(#pb14a238901)" style="fill: none; stroke: #1f77b4; stroke-width: 1.5"/>
    <path d="M 340.212443 62.469475 
L 340.212443 59.984322 
" clip-path="url(#pb14a238901)" style="fill: none; stroke: #1f77b4; stroke-width: 1.5"/>
    <path d="M 341.226989 61.690379 
L 341.226989 59.210808 
" clip-path="url(#pb14a238901)" style="fill: none; stroke: #1f77b4; stroke-width: 1.5"/>
    <path d="M 342.241534 58.156462 
L 342.241534 55.595097 
" clip-path="url(#pb14a238901)" style="fill: none; stroke: #1f77b4; stroke-width: 1.5"/>
    <path d="M 343.25608 59.337314 
L 343.25608 56.823089 
" clip-path="url(#pb14a238901)" style="fill: none; stroke: #1f77b4; stroke-width: 1.5"/>
    <path d="M 344.270625 57.387027 
L 344.270625 54.834401 
" clip-path="url(#pb14a238901)" style="fill: none; stroke: #1f77b4; stroke-width: 1.5"/>
    <path d="M 345.28517 57.627435 
L 345.28517 55.065993 
" clip-path="url(#pb14a238901)" style="fill: none; stroke: #1f77b4; stroke-width: 1.5"/>
    <path d="M 346.299716 55.571812 
L 346.299716 52.929839 
" clip-path="url(#pb14a238901)" style="fill: none; stroke: #1f77b4; stroke-width: 1.5"/>
    <path d="M 347.314261 52.470766 
L 347.314261 49.806494 
" clip-path="url(#pb14a238901)" style="fill: none; stroke: #1f77b4; stroke-width: 1.5"/>
    <path d="M 348.328807 51.230358 
L 348.328807 48.544017 
" clip-path="url(#pb14a238901)" style="fill: none; stroke: #1f77b4; stroke-width: 1.5"/>
    <path d="M 349.343352 50.367177 
L 349.343352 47.641765 
" clip-path="url(#pb14a238901)" style="fill: none; stroke: #1f77b4; stroke-width: 1.5"/>
    <path d="M 350.357898 48.032947 
L 350.357898 45.258987 
" clip-path="url(#pb14a238901)" style="fill: none; stroke: #1f77b4; stroke-width: 1.5"/>
    <path d="M 351.372443 50.594364 
L 351.372443 47.8195 
" clip-path="url(#pb14a238901)" style="fill: none; stroke: #1f77b4; stroke-width: 1.5"/>
    <path d="M 352.386989 48.69617 
L 352.386989 45.923765 
" clip-path="url(#pb14a238901)" style="fill: none; stroke: #1f77b4; stroke-width: 1.5"/>
    <path d="M 353.401534 41.640747 
L 353.401534 38.743125 
" clip-path="url(#pb14a238901)" style="fill: none; stroke: #1f77b4; stroke-width: 1.5"/>
    <path d="M 354.41608 41.969672 
L 354.41608 39.072987 
" clip-path="url(#pb14a238901)" style="fill: none; stroke: #1f77b4; stroke-width: 1.5"/>
    <path d="M 355.430625 41.781805 
L 355.430625 38.857327 
" clip-path="url(#pb14a238901)" style="fill: none; stroke: #1f77b4; stroke-width: 1.5"/>
    <path d="M 356.44517 39.163293 
L 356.44517 36.174128 
" clip-path="url(#pb14a238901)" style="fill: none; stroke: #1f77b4; stroke-width: 1.5"/>
    <path d="M 357.459716 35.950854 
L 357.459716 32.981069 
" clip-path="url(#pb14a238901)" style="fill: none; stroke: #1f77b4; stroke-width: 1.5"/>
    <path d="M 358.474261 33.252182 
L 358.474261 30.237666 
" clip-path="url(#pb14a238901)" style="fill: none; stroke: #1f77b4; stroke-width: 1.5"/>
    <path d="M 359.488807 32.33459 
L 359.488807 29.291401 
" clip-path="url(#pb14a238901)" style="fill: none; stroke: #1f77b4; stroke-width: 1.5"/>
    <path d="M 360.503352 34.657295 
L 360.503352 31.603915 
" clip-path="url(#pb14a238901)" style="fill: none; stroke: #1f77b4; stroke-width: 1.5"/>
    <path d="M 361.517898 29.991638 
L 361.517898 26.862289 
" clip-path="url(#pb14a238901)" style="fill: none; stroke: #1f77b4; stroke-width: 1.5"/>
    <path d="M 362.532443 21.628985 
L 362.532443 18.404039 
" clip-path="url(#pb14a238901)" style="fill: none; stroke: #1f77b4; stroke-width: 1.5"/>
    <path d="M 363.546989 20.5033 
L 363.546989 17.280004 
" clip-path="url(#pb14a238901)" style="fill: none; stroke: #1f77b4; stroke-width: 1.5"/>
    <path d="M 364.561534 23.348618 
L 364.561534 20.150251 
" clip-path="url(#pb14a238901)" style="fill: none; stroke: #1f77b4; stroke-width: 1.5"/>
    <path d="M 365.57608 32.292321 
L 365.57608 29.156512 
" clip-path="url(#pb14a238901)" style="fill: none; stroke: #1f77b4; stroke-width: 1.5"/>
    <path d="M 366.590625 38.901576 
L 366.590625 35.78111 
" clip-path="url(#pb14a238901)" style="fill: none; stroke: #1f77b4; stroke-width: 1.5"/>
    <path d="M 367.60517 76.430753 
L 367.60517 73.646674 
" clip-path="url(#pb14a238901)" style="fill: none; stroke: #1f77b4; stroke-width: 1.5"/>
    <path d="M 368.619716 123.507942 
L 368.619716 121.245445 
" clip-path="url(#pb14a238901)" style="fill: none; stroke: #1f77b4; stroke-width: 1.5"/>
    <path d="M 369.634261 165.776643 
L 369.634261 164.085324 
" clip-path="url(#pb14a238901)" style="fill: none; stroke: #1f77b4; stroke-width: 1.5"/>
    <path d="M 370.648807 188.526818 
L 370.648807 187.329504 
" clip-path="url(#pb14a238901)" style="fill: none; stroke: #1f77b4; stroke-width: 1.5"/>
    <path d="M 371.663352 197.538937 
L 371.663352 196.778175 
" clip-path="url(#pb14a238901)" style="fill: none; stroke: #1f77b4; stroke-width: 1.5"/>
    <path d="M 372.677898 204.904075 
L 372.677898 204.467604 
" clip-path="url(#pb14a238901)" style="fill: none; stroke: #1f77b4; stroke-width: 1.5"/>
    <path d="M 373.692443 209.045966 
L 373.692443 208.759249 
" clip-path="url(#pb14a238901)" style="fill: none; stroke: #1f77b4; stroke-width: 1.5"/>
    <path d="M 374.706989 211.898687 
L 374.706989 211.692789 
" clip-path="url(#pb14a238901)" style="fill: none; stroke: #1f77b4; stroke-width: 1.5"/>
    <path d="M 375.721534 214.09119 
L 375.721534 213.942908 
" clip-path="url(#pb14a238901)" style="fill: none; stroke: #1f77b4; stroke-width: 1.5"/>
    <path d="M 376.73608 215.927508 
L 376.73608 215.817006 
" clip-path="url(#pb14a238901)" style="fill: none; stroke: #1f77b4; stroke-width: 1.5"/>
    <path d="M 377.750625 217.619115 
L 377.750625 217.553198 
" clip-path="url(#pb14a238901)" style="fill: none; stroke: #1f77b4; stroke-width: 1.5"/>
    <path d="M 378.76517 218.64549 
L 378.76517 218.617886 
" clip-path="url(#pb14a238901)" style="fill: none; stroke: #1f77b4; stroke-width: 1.5"/>
   </g>
   <g id="patch_3">
    <path d="M 59.690625 228.96 
L 59.690625 7.2 
" style="fill: none; stroke: #000000; stroke-width: 0.8; stroke-linejoin: miter; stroke-linecap: square"/>
   </g>
   <g id="patch_4">
    <path d="M 394.490625 228.96 
L 394.490625 7.2 
" style="fill: none; stroke: #000000; stroke-width: 0.8; stroke-linejoin: miter; stroke-linecap: square"/>
   </g>
   <g id="patch_5">
    <path d="M 59.690625 228.96 
L 394.490625 228.96 
" style="fill: none; stroke: #000000; stroke-width: 0.8; stroke-linejoin: miter; stroke-linecap: square"/>
   </g>
   <g id="patch_6">
    <path d="M 59.690625 7.2 
L 394.490625 7.2 
" style="fill: none; stroke: #000000; stroke-width: 0.8; stroke-linejoin: miter; stroke-linecap: square"/>
   </g>
  </g>
 </g>
 <defs>
  <clipPath id="pb14a238901">
   <rect x="59.690625" y="7.2" width="334.8" height="221.76"/>
  </clipPath>
 </defs>
</svg>
