<?xml version="1.0" encoding="utf-8" standalone="no"?>
<!DOCTYPE svg PUBLIC "-//W3C//DTD SVG 1.1//EN"
  "http://www.w3.org/Graphics/SVG/1.1/DTD/svg11.dtd">
<svg xmlns:xlink="http://www.w3.org/1999/xlink" width="395.328125pt" height="268.200625pt" viewBox="0 0 395.328125 268.200625" xmlns="http://www.w3.org/2000/svg" version="1.1">
 <metadata>
  <rdf:RDF xmlns:dc="http://purl.org/dc/elements/1.1/" xmlns:cc="http://creativecommons.org/ns#" xmlns:rdf="http://www.w3.org/1999/02/22-rdf-syntax-ns#">
   <cc:Work>
    <dc:type rdf:resource="http://purl.org/dc/dcmitype/StillImage"/>
    <dc:date>2026-04-23T13:07:34.123935</dc:date>
    <dc:format>image/svg+xml</dc:format>
    <dc:creator>
     <cc:Agent>
      <dc:title>Matplotlib v3.10.8, https://matplotlib.org/</dc:title>
     </cc:Agent>
    </dc:creator>
   </cc:Work>
  </rdf:RDF>
 </metadata>
 <defs>
  <style type="text/css">*{stroke-linejoin: round; stroke-linecap: butt}</style>
 </defs>
 <g id="figure_1">
  <g id="patch_1">
   <path d="M 0 268.200625 
L 395.328125 268.200625 
L 395.328125 0 
L 0 0 
z
" style="fill: #ffffff"/>
  </g>
  <g id="axes_1">
   <g id="patch_2">
    <path d="M 53.328125 228.96 
L 388.128125 228.96 
L 388.128125 7.2 
L 53.328125 7.2 
z
" style="fill: #ffffff"/>
   </g>
   <g id="matplotlib.axis_1">
    <g id="xtick_1">
     <g id="line2d_1">
      <defs>
       <path id="m2cbde392f9" d="M 0 0 
L 0 3.5 
" style="stroke: #000000; stroke-width: 0.8"/>
      </defs>
      <g>
       <use xlink:href="#m2cbde392f9" x="104.719975" y="228.96" style="stroke: #000000; stroke-width: 0.8"/>
      </g>
     </g>
     <g id="text_1">
      <!-- 2 -->
      <g transform="translate(101.538725 243.558437) scale(0.1 -0.1)">
       <defs>
        <path id="DejaVuSans-32" d="M 1228 531 
L 3431 531 
L 3431 0 
L 469 0 
L 469 531 
Q 828 903 1448 1529 
Q 2069 2156 2228 2338 
Q 2531 2678 2651 2914 
Q 2772 3150 2772 3378 
Q 2772 3750 2511 3984 
Q 2250 4219 1831 4219 
Q 1534 4219 1204 4116 
Q 875 4013 500 3803 
L 500 4441 
Q 881 4594 1212 4672 
Q 1544 4750 1819 4750 
Q 2544 4750 2975 4387 
Q 3406 4025 3406 3419 
Q 3406 3131 3298 2873 
Q 3191 2616 2906 2266 
Q 2828 2175 2409 1742 
Q 1991 1309 1228 531 
z
" transform="scale(0.015625)"/>
       </defs>
       <use xlink:href="#DejaVuSans-32"/>
      </g>
     </g>
    </g>
    <g id="xtick_2">
     <g id="line2d_2">
      <g>
       <use xlink:href="#m2cbde392f9" x="177.155358" y="228.96" style="stroke: #000000; stroke-width: 0.8"/>
      </g>
     </g>
     <g id="text_2">
      <!-- 4 -->
      <g transform="translate(173.974108 243.558437) scale(0.1 -0.1)">
       <defs>
        <path id="DejaVuSans-34" d="M 2419 4116 
L 825 1625 
L 2419 1625 
L 2419 4116 
z
M 2253 4666 
L 3047 4666 
L 3047 1625 
L 3713 1625 
L 3713 1100 
L 3047 1100 
L 3047 0 
L 2419 0 
L 2419 1100 
L 313 1100 
L 313 1709 
L 2253 4666 
z
" transform="scale(0.015625)"/>
       </defs>
       <use xlink:href="#DejaVuSans-34"/>
      </g>
     </g>
    </g>
    <g id="xtick_3">
     <g id="line2d_3">
      <g>
       <use xlink:href="#m2cbde392f9" x="249.590741" y="228.96" style="stroke: #000000; stroke-width: 0.8"/>
      </g>
     </g>
     <g id="text_3">
      <!-- 6 -->
      <g transform="translate(246.409491 243.558437) scale(0.1 -0.1)">
       <defs>
        <path id="DejaVuSans-36" d="M 2113 2584 
Q 1688 2584 1439 2293 
Q 1191 2003 1191 1497 
Q 1191 994 1439 701 
Q 1688 409 2113 409 
Q 2538 409 2786 701 
Q 3034 994 3034 1497 
Q 3034 2003 2786 2293 
Q 2538 2584 2113 2584 
z
M 3366 4563 
L 3366 3988 
Q 3128 4100 2886 4159 
Q 2644 4219 2406 4219 
Q 1781 4219 1451 3797 
Q 1122 3375 1075 2522 
Q 1259 2794 1537 2939 
Q 1816 3084 2150 3084 
Q 2853 3084 3261 2657 
Q 3669 2231 3669 1497 
Q 3669 778 3244 343 
Q 2819 -91 2113 -91 
Q 1303 -91 875 529 
Q 447 1150 447 2328 
Q 447 3434 972 4092 
Q 1497 4750 2381 4750 
Q 2619 4750 2861 4703 
Q 3103 4656 3366 4563 
z
" transform="scale(0.015625)"/>
       </defs>
       <use xlink:href="#DejaVuSans-36"/>
      </g>
     </g>
    </g>
    <g id="xtick_4">
     <g id="line2d_4">
      <g>
       <use xlink:href="#m2cbde392f9" x="322.026125" y="228.96" style="stroke: #000000; stroke-width: 0.8"/>
      </g>
     </g>
     <g id="text_4">
      <!-- 8 -->
      <g transform="translate(318.844875 243.558437) scale(0.1 -0.1)">
       <defs>
        <path id="DejaVuSans-38" d="M 2034 2216 
Q 1584 2216 1326 1975 
Q 1069 1734 1069 1313 
Q 1069 891 1326 650 
Q 1584 409 2034 409 
Q 2484 409 2743 651 
Q 3003 894 3003 1313 
Q 3003 1734 2745 1975 
Q 2488 2216 2034 2216 
z
M 1403 2484 
Q 997 2584 770 2862 
Q 544 3141 544 3541 
Q 544 4100 942 4425 
Q 1341 4750 2034 4750 
Q 2731 4750 3128 4425 
Q 3525 4100 3525 3541 
Q 3525 3141 3298 2862 
Q 3072 2584 2669 2484 
Q 3125 2378 3379 2068 
Q 3634 1759 3634 1313 
Q 3634 634 3220 271 
Q 2806 -91 2034 -91 
Q 1263 -91 848 271 
Q 434 634 434 1313 
Q 434 1759 690 2068 
Q 947 2378 1403 2484 
z
M 1172 3481 
Q 1172 3119 1398 2916 
Q 1625 2713 2034 2713 
Q 2441 2713 2670 2916 
Q 2900 3119 2900 3481 
Q 2900 3844 2670 4047 
Q 2441 4250 2034 4250 
Q 1625 4250 1398 4047 
Q 1172 3844 1172 3481 
z
" transform="scale(0.015625)"/>
       </defs>
       <use xlink:href="#DejaVuSans-38"/>
      </g>
     </g>
    </g>
    <g id="text_5">
     <!-- wavelength [Å] -->
     <g transform="translate(182.690625 258.920937) scale(0.1 -0.1)">
      <defs>
       <path id="DejaVuSans-77" d="M 269 3500 
L 844 3500 
L 1563 769 
L 2278 3500 
L 2956 3500 
L 3675 769 
L 4391 3500 
L 4966 3500 
L 4050 0 
L 3372 0 
L 2619 2869 
L 1863 0 
L 1184 0 
L 269 3500 
z
" transform="scale(0.015625)"/>
       <path id="DejaVuSans-61" d="M 2194 1759 
Q 1497 1759 1228 1600 
Q 959 1441 959 1056 
Q 959 750 1161 570 
Q 1363 391 1709 391 
Q 2188 391 2477 730 
Q 2766 1069 2766 1631 
L 2766 1759 
L 2194 1759 
z
M 3341 1997 
L 3341 0 
L 2766 0 
L 2766 531 
Q 2569 213 2275 61 
Q 1981 -91 1556 -91 
Q 1019 -91 701 211 
Q 384 513 384 1019 
Q 384 1609 779 1909 
Q 1175 2209 1959 2209 
L 2766 2209 
L 2766 2266 
Q 2766 2663 2505 2880 
Q 2244 3097 1772 3097 
Q 1472 3097 1187 3025 
Q 903 2953 641 2809 
L 641 3341 
Q 956 3463 1253 3523 
Q 1550 3584 1831 3584 
Q 2591 3584 2966 3190 
Q 3341 2797 3341 1997 
z
" transform="scale(0.015625)"/>
       <path id="DejaVuSans-76" d="M 191 3500 
L 800 3500 
L 1894 563 
L 2988 3500 
L 3597 3500 
L 2284 0 
L 1503 0 
L 191 3500 
z
" transform="scale(0.015625)"/>
       <path id="DejaVuSans-65" d="M 3597 1894 
L 3597 1613 
L 953 1613 
Q 991 1019 1311 708 
Q 1631 397 2203 397 
Q 2534 397 2845 478 
Q 3156 559 3463 722 
L 3463 178 
Q 3153 47 2828 -22 
Q 2503 -91 2169 -91 
Q 1331 -91 842 396 
Q 353 884 353 1716 
Q 353 2575 817 3079 
Q 1281 3584 2069 3584 
Q 2775 3584 3186 3129 
Q 3597 2675 3597 1894 
z
M 3022 2063 
Q 3016 2534 2758 2815 
Q 2500 3097 2075 3097 
Q 1594 3097 1305 2825 
Q 1016 2553 972 2059 
L 3022 2063 
z
" transform="scale(0.015625)"/>
       <path id="DejaVuSans-6c" d="M 603 4863 
L 1178 4863 
L 1178 0 
L 603 0 
L 603 4863 
z
" transform="scale(0.015625)"/>
       <path id="DejaVuSans-6e" d="M 3513 2113 
L 3513 0 
L 2938 0 
L 2938 2094 
Q 2938 2591 2744 2837 
Q 2550 3084 2163 3084 
Q 1697 3084 1428 2787 
Q 1159 2491 1159 1978 
L 1159 0 
L 581 0 
L 581 3500 
L 1159 3500 
L 1159 2956 
Q 1366 3272 1645 3428 
Q 1925 3584 2291 3584 
Q 2894 3584 3203 3211 
Q 3513 2838 3513 2113 
z
" transform="scale(0.015625)"/>
       <path id="DejaVuSans-67" d="M 2906 1791 
Q 2906 2416 2648 2759 
Q 2391 3103 1925 3103 
Q 1463 3103 1205 2759 
Q 947 2416 947 1791 
Q 947 1169 1205 825 
Q 1463 481 1925 481 
Q 2391 481 2648 825 
Q 2906 1169 2906 1791 
z
M 3481 434 
Q 3481 -459 3084 -895 
Q 2688 -1331 1869 -1331 
Q 1566 -1331 1297 -1286 
Q 1028 -1241 775 -1147 
L 775 -588 
Q 1028 -725 1275 -790 
Q 1522 -856 1778 -856 
Q 2344 -856 2625 -561 
Q 2906 -266 2906 331 
L 2906 616 
Q 2728 306 2450 153 
Q 2172 0 1784 0 
Q 1141 0 747 490 
Q 353 981 353 1791 
Q 353 2603 747 3093 
Q 1141 3584 1784 3584 
Q 2172 3584 2450 3431 
Q 2728 3278 2906 2969 
L 2906 3500 
L 3481 3500 
L 3481 434 
z
" transform="scale(0.015625)"/>
       <path id="DejaVuSans-74" d="M 1172 4494 
L 1172 3500 
L 2356 3500 
L 2356 3053 
L 1172 3053 
L 1172 1153 
Q 1172 725 1289 603 
Q 1406 481 1766 481 
L 2356 481 
L 2356 0 
L 1766 0 
Q 1100 0 847 248 
Q 594 497 594 1153 
L 594 3053 
L 172 3053 
L 172 3500 
L 594 3500 
L 594 4494 
L 1172 4494 
z
" transform="scale(0.015625)"/>
       <path id="DejaVuSans-68" d="M 3513 2113 
L 3513 0 
L 2938 0 
L 2938 2094 
Q 2938 2591 2744 2837 
Q 2550 3084 2163 3084 
Q 1697 3084 1428 2787 
Q 1159 2491 1159 1978 
L 1159 0 
L 581 0 
L 581 4863 
L 1159 4863 
L 1159 2956 
Q 1366 3272 1645 3428 
Q 1925 3584 2291 3584 
Q 2894 3584 3203 3211 
Q 3513 2838 3513 2113 
z
" transform="scale(0.015625)"/>
       <path id="DejaVuSans-20" transform="scale(0.015625)"/>
       <path id="DejaVuSans-5b" d="M 550 4863 
L 1875 4863 
L 1875 4416 
L 1125 4416 
L 1125 -397 
L 1875 -397 
L 1875 -844 
L 550 -844 
L 550 4863 
z
" transform="scale(0.015625)"/>
       <path id="DejaVuSans-c5" d="M 2663 5081 
Q 2663 5278 2523 5417 
Q 2384 5556 2188 5556 
Q 1988 5556 1852 5420 
Q 1716 5284 1716 5081 
Q 1716 4884 1853 4746 
Q 1991 4609 2188 4609 
Q 2384 4609 2523 4746 
Q 2663 4884 2663 5081 
z
M 2188 4044 
L 1338 1722 
L 3041 1722 
L 2188 4044 
z
M 1716 4366 
Q 1525 4494 1428 4673 
Q 1331 4853 1331 5081 
Q 1331 5441 1579 5691 
Q 1828 5941 2188 5941 
Q 2544 5941 2795 5689 
Q 3047 5438 3047 5081 
Q 3047 4863 2948 4678 
Q 2850 4494 2663 4366 
L 4325 0 
L 3669 0 
L 3244 1197 
L 1141 1197 
L 716 0 
L 50 0 
L 1716 4366 
z
" transform="scale(0.015625)"/>
       <path id="DejaVuSans-5d" d="M 1947 4863 
L 1947 -844 
L 622 -844 
L 622 -397 
L 1369 -397 
L 1369 4416 
L 622 4416 
L 622 4863 
L 1947 4863 
z
" transform="scale(0.015625)"/>
      </defs>
      <use xlink:href="#DejaVuSans-77"/>
      <use xlink:href="#DejaVuSans-61" transform="translate(81.787109 0)"/>
      <use xlink:href="#DejaVuSans-76" transform="translate(143.066406 0)"/>
      <use xlink:href="#DejaVuSans-65" transform="translate(202.246094 0)"/>
      <use xlink:href="#DejaVuSans-6c" transform="translate(263.769531 0)"/>
      <use xlink:href="#DejaVuSans-65" transform="translate(291.552734 0)"/>
      <use xlink:href="#DejaVuSans-6e" transform="translate(353.076172 0)"/>
      <use xlink:href="#DejaVuSans-67" transform="translate(416.455078 0)"/>
      <use xlink:href="#DejaVuSans-74" transform="translate(479.931641 0)"/>
      <use xlink:href="#DejaVuSans-68" transform="translate(519.140625 0)"/>
      <use xlink:href="#DejaVuSans-20" transform="translate(582.519531 0)"/>
      <use xlink:href="#DejaVuSans-5b" transform="translate(614.306641 0)"/>
      <use xlink:href="#DejaVuSans-c5" transform="translate(653.320312 0)"/>
      <use xlink:href="#DejaVuSans-5d" transform="translate(721.728516 0)"/>
     </g>
    </g>
   </g>
   <g id="matplotlib.axis_2">
    <g id="ytick_1">
     <g id="line2d_5">
      <defs>
       <path id="m230476545e" d="M 0 0 
L -3.5 0 
" style="stroke: #000000; stroke-width: 0.8"/>
      </defs>
      <g>
       <use xlink:href="#m230476545e" x="53.328125" y="219.252763" style="stroke: #000000; stroke-width: 0.8"/>
      </g>
     </g>
     <g id="text_6">
      <!-- 0 -->
      <g transform="translate(39.965625 223.051982) scale(0.1 -0.1)">
       <defs>
        <path id="DejaVuSans-30" d="M 2034 4250 
Q 1547 4250 1301 3770 
Q 1056 3291 1056 2328 
Q 1056 1369 1301 889 
Q 1547 409 2034 409 
Q 2525 409 2770 889 
Q 3016 1369 3016 2328 
Q 3016 3291 2770 3770 
Q 2525 4250 2034 4250 
z
M 2034 4750 
Q 2819 4750 3233 4129 
Q 3647 3509 3647 2328 
Q 3647 1150 3233 529 
Q 2819 -91 2034 -91 
Q 1250 -91 836 529 
Q 422 1150 422 2328 
Q 422 3509 836 4129 
Q 1250 4750 2034 4750 
z
" transform="scale(0.015625)"/>
       </defs>
       <use xlink:href="#DejaVuSans-30"/>
      </g>
     </g>
    </g>
    <g id="ytick_2">
     <g id="line2d_6">
      <g>
       <use xlink:href="#m230476545e" x="53.328125" y="190.30452" style="stroke: #000000; stroke-width: 0.8"/>
      </g>
     </g>
     <g id="text_7">
      <!-- 1000 -->
      <g transform="translate(20.878125 194.103739) scale(0.1 -0.1)">
       <defs>
        <path id="DejaVuSans-31" d="M 794 531 
L 1825 531 
L 1825 4091 
L 703 3866 
L 703 4441 
L 1819 4666 
L 2450 4666 
L 2450 531 
L 3481 531 
L 3481 0 
L 794 0 
L 794 531 
z
" transform="scale(0.015625)"/>
       </defs>
       <use xlink:href="#DejaVuSans-31"/>
       <use xlink:href="#DejaVuSans-30" transform="translate(63.623047 0)"/>
       <use xlink:href="#DejaVuSans-30" transform="translate(127.246094 0)"/>
       <use xlink:href="#DejaVuSans-30" transform="translate(190.869141 0)"/>
      </g>
     </g>
    </g>
    <g id="ytick_3">
     <g id="line2d_7">
      <g>
       <use xlink:href="#m230476545e" x="53.328125" y="161.356277" style="stroke: #000000; stroke-width: 0.8"/>
      </g>
     </g>
     <g id="text_8">
      <!-- 2000 -->
      <g transform="translate(20.878125 165.155496) scale(0.1 -0.1)">
       <use xlink:href="#DejaVuSans-32"/>
       <use xlink:href="#DejaVuSans-30" transform="translate(63.623047 0)"/>
       <use xlink:href="#DejaVuSans-30" transform="translate(127.246094 0)"/>
       <use xlink:href="#DejaVuSans-30" transform="translate(190.869141 0)"/>
      </g>
     </g>
    </g>
    <g id="ytick_4">
     <g id="line2d_8">
      <g>
       <use xlink:href="#m230476545e" x="53.328125" y="132.408034" style="stroke: #000000; stroke-width: 0.8"/>
      </g>
     </g>
     <g id="text_9">
      <!-- 3000 -->
      <g transform="translate(20.878125 136.207253) scale(0.1 -0.1)">
       <defs>
        <path id="DejaVuSans-33" d="M 2597 2516 
Q 3050 2419 3304 2112 
Q 3559 1806 3559 1356 
Q 3559 666 3084 287 
Q 2609 -91 1734 -91 
Q 1441 -91 1130 -33 
Q 819 25 488 141 
L 488 750 
Q 750 597 1062 519 
Q 1375 441 1716 441 
Q 2309 441 2620 675 
Q 2931 909 2931 1356 
Q 2931 1769 2642 2001 
Q 2353 2234 1838 2234 
L 1294 2234 
L 1294 2753 
L 1863 2753 
Q 2328 2753 2575 2939 
Q 2822 3125 2822 3475 
Q 2822 3834 2567 4026 
Q 2313 4219 1838 4219 
Q 1578 4219 1281 4162 
Q 984 4106 628 3988 
L 628 4550 
Q 988 4650 1302 4700 
Q 1616 4750 1894 4750 
Q 2613 4750 3031 4423 
Q 3450 4097 3450 3541 
Q 3450 3153 3228 2886 
Q 3006 2619 2597 2516 
z
" transform="scale(0.015625)"/>
       </defs>
       <use xlink:href="#DejaVuSans-33"/>
       <use xlink:href="#DejaVuSans-30" transform="translate(63.623047 0)"/>
       <use xlink:href="#DejaVuSans-30" transform="translate(127.246094 0)"/>
       <use xlink:href="#DejaVuSans-30" transform="translate(190.869141 0)"/>
      </g>
     </g>
    </g>
    <g id="ytick_5">
     <g id="line2d_9">
      <g>
       <use xlink:href="#m230476545e" x="53.328125" y="103.459791" style="stroke: #000000; stroke-width: 0.8"/>
      </g>
     </g>
     <g id="text_10">
      <!-- 4000 -->
      <g transform="translate(20.878125 107.25901) scale(0.1 -0.1)">
       <use xlink:href="#DejaVuSans-34"/>
       <use xlink:href="#DejaVuSans-30" transform="translate(63.623047 0)"/>
       <use xlink:href="#DejaVuSans-30" transform="translate(127.246094 0)"/>
       <use xlink:href="#DejaVuSans-30" transform="translate(190.869141 0)"/>
      </g>
     </g>
    </g>
    <g id="ytick_6">
     <g id="line2d_10">
      <g>
       <use xlink:href="#m230476545e" x="53.328125" y="74.511548" style="stroke: #000000; stroke-width: 0.8"/>
      </g>
     </g>
     <g id="text_11">
      <!-- 5000 -->
      <g transform="translate(20.878125 78.310767) scale(0.1 -0.1)">
       <defs>
        <path id="DejaVuSans-35" d="M 691 4666 
L 3169 4666 
L 3169 4134 
L 1269 4134 
L 1269 2991 
Q 1406 3038 1543 3061 
Q 1681 3084 1819 3084 
Q 2600 3084 3056 2656 
Q 3513 2228 3513 1497 
Q 3513 744 3044 326 
Q 2575 -91 1722 -91 
Q 1428 -91 1123 -41 
Q 819 9 494 109 
L 494 744 
Q 775 591 1075 516 
Q 1375 441 1709 441 
Q 2250 441 2565 725 
Q 2881 1009 2881 1497 
Q 2881 1984 2565 2268 
Q 2250 2553 1709 2553 
Q 1456 2553 1204 2497 
Q 953 2441 691 2322 
L 691 4666 
z
" transform="scale(0.015625)"/>
       </defs>
       <use xlink:href="#DejaVuSans-35"/>
       <use xlink:href="#DejaVuSans-30" transform="translate(63.623047 0)"/>
       <use xlink:href="#DejaVuSans-30" transform="translate(127.246094 0)"/>
       <use xlink:href="#DejaVuSans-30" transform="translate(190.869141 0)"/>
      </g>
     </g>
    </g>
    <g id="ytick_7">
     <g id="line2d_11">
      <g>
       <use xlink:href="#m230476545e" x="53.328125" y="45.563306" style="stroke: #000000; stroke-width: 0.8"/>
      </g>
     </g>
     <g id="text_12">
      <!-- 6000 -->
      <g transform="translate(20.878125 49.362524) scale(0.1 -0.1)">
       <use xlink:href="#DejaVuSans-36"/>
       <use xlink:href="#DejaVuSans-30" transform="translate(63.623047 0)"/>
       <use xlink:href="#DejaVuSans-30" transform="translate(127.246094 0)"/>
       <use xlink:href="#DejaVuSans-30" transform="translate(190.869141 0)"/>
      </g>
     </g>
    </g>
    <g id="ytick_8">
     <g id="line2d_12">
      <g>
       <use xlink:href="#m230476545e" x="53.328125" y="16.615063" style="stroke: #000000; stroke-width: 0.8"/>
      </g>
     </g>
     <g id="text_13">
      <!-- 7000 -->
      <g transform="translate(20.878125 20.414281) scale(0.1 -0.1)">
       <defs>
        <path id="DejaVuSans-37" d="M 525 4666 
L 3525 4666 
L 3525 4397 
L 1831 0 
L 1172 0 
L 2766 4134 
L 525 4134 
L 525 4666 
z
" transform="scale(0.015625)"/>
       </defs>
       <use xlink:href="#DejaVuSans-37"/>
       <use xlink:href="#DejaVuSans-30" transform="translate(63.623047 0)"/>
       <use xlink:href="#DejaVuSans-30" transform="translate(127.246094 0)"/>
       <use xlink:href="#DejaVuSans-30" transform="translate(190.869141 0)"/>
      </g>
     </g>
    </g>
    <g id="text_14">
     <!-- [counts] -->
     <g transform="translate(14.798438 138.6925) rotate(-90) scale(0.1 -0.1)">
      <defs>
       <path id="DejaVuSans-63" d="M 3122 3366 
L 3122 2828 
Q 2878 2963 2633 3030 
Q 2388 3097 2138 3097 
Q 1578 3097 1268 2742 
Q 959 2388 959 1747 
Q 959 1106 1268 751 
Q 1578 397 2138 397 
Q 2388 397 2633 464 
Q 2878 531 3122 666 
L 3122 134 
Q 2881 22 2623 -34 
Q 2366 -91 2075 -91 
Q 1284 -91 818 406 
Q 353 903 353 1747 
Q 353 2603 823 3093 
Q 1294 3584 2113 3584 
Q 2378 3584 2631 3529 
Q 2884 3475 3122 3366 
z
" transform="scale(0.015625)"/>
       <path id="DejaVuSans-6f" d="M 1959 3097 
Q 1497 3097 1228 2736 
Q 959 2375 959 1747 
Q 959 1119 1226 758 
Q 1494 397 1959 397 
Q 2419 397 2687 759 
Q 2956 1122 2956 1747 
Q 2956 2369 2687 2733 
Q 2419 3097 1959 3097 
z
M 1959 3584 
Q 2709 3584 3137 3096 
Q 3566 2609 3566 1747 
Q 3566 888 3137 398 
Q 2709 -91 1959 -91 
Q 1206 -91 779 398 
Q 353 888 353 1747 
Q 353 2609 779 3096 
Q 1206 3584 1959 3584 
z
" transform="scale(0.015625)"/>
       <path id="DejaVuSans-75" d="M 544 1381 
L 544 3500 
L 1119 3500 
L 1119 1403 
Q 1119 906 1312 657 
Q 1506 409 1894 409 
Q 2359 409 2629 706 
Q 2900 1003 2900 1516 
L 2900 3500 
L 3475 3500 
L 3475 0 
L 2900 0 
L 2900 538 
Q 2691 219 2414 64 
Q 2138 -91 1772 -91 
Q 1169 -91 856 284 
Q 544 659 544 1381 
z
M 1991 3584 
L 1991 3584 
z
" transform="scale(0.015625)"/>
       <path id="DejaVuSans-73" d="M 2834 3397 
L 2834 2853 
Q 2591 2978 2328 3040 
Q 2066 3103 1784 3103 
Q 1356 3103 1142 2972 
Q 928 2841 928 2578 
Q 928 2378 1081 2264 
Q 1234 2150 1697 2047 
L 1894 2003 
Q 2506 1872 2764 1633 
Q 3022 1394 3022 966 
Q 3022 478 2636 193 
Q 2250 -91 1575 -91 
Q 1294 -91 989 -36 
Q 684 19 347 128 
L 347 722 
Q 666 556 975 473 
Q 1284 391 1588 391 
Q 1994 391 2212 530 
Q 2431 669 2431 922 
Q 2431 1156 2273 1281 
Q 2116 1406 1581 1522 
L 1381 1569 
Q 847 1681 609 1914 
Q 372 2147 372 2553 
Q 372 3047 722 3315 
Q 1072 3584 1716 3584 
Q 2034 3584 2315 3537 
Q 2597 3491 2834 3397 
z
" transform="scale(0.015625)"/>
      </defs>
      <use xlink:href="#DejaVuSans-5b"/>
      <use xlink:href="#DejaVuSans-63" transform="translate(39.013672 0)"/>
      <use xlink:href="#DejaVuSans-6f" transform="translate(93.994141 0)"/>
      <use xlink:href="#DejaVuSans-75" transform="translate(155.175781 0)"/>
      <use xlink:href="#DejaVuSans-6e" transform="translate(218.554688 0)"/>
      <use xlink:href="#DejaVuSans-74" transform="translate(281.933594 0)"/>
      <use xlink:href="#DejaVuSans-73" transform="translate(321.142578 0)"/>
      <use xlink:href="#DejaVuSans-5d" transform="translate(373.242188 0)"/>
     </g>
    </g>
   </g>
   <g id="line2d_13">
    <path d="M 68.546307 177.219914 
L 69.560852 177.219914 
L 69.560852 166.219582 
L 70.575398 166.219582 
L 70.575398 156.377179 
L 71.589943 156.377179 
L 71.589943 148.184827 
L 72.604489 148.184827 
L 72.604489 126.618386 
L 73.619034 126.618386 
L 73.619034 122.59458 
L 74.63358 122.59458 
L 74.63358 120.973478 
L 75.648125 120.973478 
L 75.648125 121.697184 
L 76.66267 121.697184 
L 76.66267 120.365565 
L 77.677216 120.365565 
L 77.677216 116.862828 
L 78.691761 116.862828 
L 78.691761 115.936484 
L 79.706307 115.936484 
L 79.706307 110.436318 
L 80.720852 110.436318 
L 80.720852 110.146836 
L 81.735398 110.146836 
L 81.735398 114.952244 
L 82.749943 114.952244 
L 82.749943 108.178355 
L 83.764489 108.178355 
L 83.764489 115.039089 
L 84.779034 115.039089 
L 84.779034 113.157453 
L 85.79358 113.157453 
L 85.79358 116.949673 
L 86.808125 116.949673 
L 86.808125 115.704898 
L 87.82267 115.704898 
L 87.82267 113.302194 
L 88.837216 113.302194 
L 88.837216 110.957386 
L 89.851761 110.957386 
L 89.851761 115.791743 
L 90.866307 115.791743 
L 90.866307 112.810074 
L 91.880852 112.810074 
L 91.880852 117.64443 
L 92.895398 117.64443 
L 92.895398 120.741892 
L 93.909943 120.741892 
L 93.909943 123.723561 
L 94.924489 123.723561 
L 94.924489 123.984096 
L 96.95358 123.955147 
L 96.95358 129.889537 
L 97.968125 129.889537 
L 97.968125 127.978953 
L 98.98267 127.978953 
L 98.98267 130.121123 
L 99.997216 130.121123 
L 99.997216 127.776315 
L 101.011761 127.776315 
L 101.011761 126.87892 
L 102.026307 126.87892 
L 102.026307 129.744796 
L 103.040852 129.744796 
L 103.040852 132.842258 
L 104.055398 132.842258 
L 104.055398 131.539587 
L 105.069943 131.539587 
L 105.069943 131.713277 
L 106.084489 131.713277 
L 106.084489 128.789504 
L 107.099034 128.789504 
L 107.099034 132.118552 
L 108.11358 132.118552 
L 108.11358 127.226299 
L 109.128125 127.226299 
L 109.128125 128.52897 
L 110.14267 128.52897 
L 110.14267 130.121123 
L 111.157216 130.121123 
L 111.157216 127.921057 
L 112.171761 127.921057 
L 112.171761 128.702659 
L 113.186307 128.702659 
L 113.186307 129.831641 
L 114.200852 129.831641 
L 114.200852 129.51321 
L 115.215398 129.51321 
L 115.215398 132.089604 
L 116.229943 132.089604 
L 116.229943 132.523827 
L 117.244489 132.523827 
L 117.244489 123.26039 
L 118.259034 123.26039 
L 118.259034 122.652476 
L 119.27358 122.652476 
L 119.27358 125.952576 
L 120.288125 125.952576 
L 120.288125 136.200254 
L 121.30267 136.200254 
L 121.30267 156.174542 
L 122.317216 156.174542 
L 122.317216 162.687896 
L 123.331761 162.687896 
L 123.331761 122.131408 
L 124.346307 122.131408 
L 124.346307 95.672714 
L 125.360852 95.672714 
L 125.360852 100.796553 
L 126.375398 100.796553 
L 126.375398 80.880162 
L 127.389943 80.880162 
L 127.389943 49.152888 
L 128.404489 49.152888 
L 128.404489 35.663006 
L 129.419034 35.663006 
L 129.419034 36.299868 
L 130.43358 36.299868 
L 130.43358 40.410518 
L 131.448125 40.410518 
L 131.448125 41.655293 
L 132.46267 41.655293 
L 132.46267 41.221069 
L 133.477216 41.221069 
L 133.477216 40.439467 
L 134.491761 40.439467 
L 134.491761 42.378999 
L 135.506307 42.378999 
L 135.506307 36.473557 
L 136.520852 36.473557 
L 136.520852 26.891689 
L 137.535398 26.891689 
L 137.535398 19.683576 
L 138.549943 19.683576 
L 138.549943 22.346815 
L 139.564489 22.346815 
L 139.564489 21.420471 
L 140.579034 21.420471 
L 140.579034 24.315295 
L 141.59358 24.315295 
L 141.59358 21.681005 
L 142.608125 21.681005 
L 142.608125 20.552024 
L 143.62267 20.552024 
L 143.62267 25.328484 
L 144.637216 25.328484 
L 144.637216 27.296964 
L 145.651761 27.296964 
L 145.651761 30.278633 
L 146.666307 30.278633 
L 146.666307 28.802273 
L 147.680852 28.802273 
L 147.680852 31.639201 
L 148.695398 31.639201 
L 148.695398 34.041905 
L 149.709943 34.041905 
L 149.709943 32.941872 
L 150.724489 32.941872 
L 150.724489 35.11299 
L 151.739034 35.11299 
L 151.739034 40.728949 
L 152.75358 40.728949 
L 152.75358 36.849884 
L 153.768125 36.849884 
L 153.768125 42.234258 
L 154.78267 42.234258 
L 154.78267 45.968581 
L 155.797216 45.968581 
L 155.797216 46.229115 
L 156.811761 46.229115 
L 156.811761 51.960867 
L 157.826307 51.960867 
L 157.826307 56.187311 
L 158.840852 56.187311 
L 158.840852 56.563638 
L 159.855398 56.563638 
L 159.855398 59.603203 
L 160.869943 59.603203 
L 160.869943 58.67686 
L 161.884489 58.67686 
L 161.884489 61.716425 
L 162.899034 61.716425 
L 162.899034 65.682334 
L 163.91358 65.682334 
L 163.91358 68.837693 
L 164.928125 68.837693 
L 164.928125 74.569445 
L 165.94267 74.569445 
L 165.94267 77.840596 
L 166.957216 77.840596 
L 166.957216 85.482933 
L 167.971761 85.482933 
L 167.971761 87.82774 
L 168.986307 87.82774 
L 168.986307 90.114651 
L 170.000852 90.114651 
L 170.000852 104.588773 
L 171.015398 104.588773 
L 171.015398 101.143932 
L 172.029943 101.143932 
L 172.029943 116.747035 
L 173.044489 116.747035 
L 173.044489 123.636717 
L 174.059034 123.636717 
L 174.059034 137.58977 
L 175.07358 137.58977 
L 175.07358 155.450836 
L 176.088125 155.450836 
L 176.088125 159.764124 
L 177.10267 159.764124 
L 177.10267 128.094746 
L 178.117216 128.094746 
L 178.117216 125.084129 
L 179.131761 125.084129 
L 179.131761 122.797218 
L 180.146307 122.797218 
L 180.146307 47.676527 
L 181.160852 47.676527 
L 181.160852 31.436563 
L 182.175398 31.436563 
L 182.175398 21.015196 
L 183.189943 21.015196 
L 183.189943 26.804844 
L 184.204489 26.804844 
L 184.204489 22.057332 
L 185.219034 22.057332 
L 185.219034 24.807415 
L 186.23358 24.807415 
L 186.23358 29.381238 
L 187.248125 29.381238 
L 187.248125 23.157366 
L 188.26267 23.157366 
L 188.26267 24.40214 
L 189.277216 24.40214 
L 189.277216 21.217833 
L 190.291761 21.217833 
L 190.291761 33.926112 
L 191.306307 33.926112 
L 191.306307 30.075996 
L 192.320852 30.075996 
L 192.320852 42.69743 
L 193.335398 42.69743 
L 193.335398 29.323341 
L 194.349943 29.323341 
L 194.349943 32.652389 
L 195.364489 32.652389 
L 195.364489 36.213023 
L 196.379034 36.213023 
L 196.379034 38.644676 
L 197.39358 38.644676 
L 197.39358 45.65015 
L 198.408125 45.65015 
L 198.408125 39.773657 
L 199.42267 39.773657 
L 199.42267 47.705476 
L 200.437216 47.705476 
L 200.437216 42.494792 
L 201.451761 42.494792 
L 201.451761 47.444941 
L 202.466307 47.444941 
L 202.466307 53.031952 
L 203.480852 53.031952 
L 203.480852 52.74247 
L 204.495398 52.74247 
L 204.495398 55.463605 
L 205.509943 55.463605 
L 205.509943 61.397994 
L 206.524489 61.397994 
L 206.524489 64.987577 
L 207.539034 64.987577 
L 207.539034 69.908778 
L 208.55358 69.908778 
L 208.55358 70.285105 
L 209.568125 70.285105 
L 209.568125 63.627009 
L 210.58267 63.627009 
L 210.58267 72.774654 
L 211.597216 72.774654 
L 211.597216 73.758894 
L 212.611761 73.758894 
L 212.611761 76.653718 
L 213.626307 76.653718 
L 213.626307 81.980195 
L 214.640852 81.980195 
L 214.640852 84.238158 
L 215.655398 84.238158 
L 215.655398 90.925202 
L 217.684489 90.95415 
L 217.684489 89.998858 
L 218.699034 89.998858 
L 218.699034 106.470409 
L 219.71358 106.470409 
L 219.71358 104.386135 
L 220.728125 104.386135 
L 220.728125 105.341427 
L 221.74267 105.341427 
L 221.74267 111.044231 
L 222.757216 111.044231 
L 222.757216 121.002427 
L 223.771761 121.002427 
L 223.771761 122.131408 
L 224.786307 122.131408 
L 224.786307 127.950005 
L 225.800852 127.950005 
L 225.800852 153.511303 
L 226.815398 153.511303 
L 226.815398 169.172303 
L 227.829943 169.172303 
L 227.829943 186.107025 
L 228.844489 186.107025 
L 228.844489 159.561486 
L 229.859034 159.561486 
L 229.859034 152.932339 
L 230.87358 152.932339 
L 230.87358 133.855446 
L 231.888125 133.855446 
L 231.888125 115.965432 
L 232.90267 115.965432 
L 232.90267 99.899158 
L 233.917216 99.899158 
L 233.917216 107.946769 
L 234.931761 107.946769 
L 234.931761 106.296719 
L 235.946307 106.296719 
L 235.946307 106.701995 
L 236.960852 106.701995 
L 236.960852 106.499357 
L 237.975398 106.499357 
L 237.975398 112.86797 
L 238.989943 112.86797 
L 238.989943 102.765034 
L 240.004489 102.765034 
L 240.004489 108.525734 
L 241.019034 108.525734 
L 241.019034 110.146836 
L 242.03358 110.146836 
L 242.03358 114.865399 
L 243.048125 114.865399 
L 243.048125 114.19959 
L 244.06267 114.19959 
L 244.06267 110.117887 
L 245.077216 110.117887 
L 245.077216 120.828737 
L 246.091761 120.828737 
L 246.091761 114.19959 
L 247.106307 114.19959 
L 247.106307 114.778554 
L 248.120852 114.778554 
L 248.120852 121.205064 
L 249.135398 121.205064 
L 249.135398 119.381325 
L 250.149943 119.381325 
L 250.149943 120.973478 
L 251.164489 120.973478 
L 251.164489 123.26039 
L 252.179034 123.26039 
L 252.179034 124.24463 
L 253.19358 124.24463 
L 253.19358 129.426365 
L 254.208125 129.426365 
L 254.208125 126.097317 
L 255.22267 126.097317 
L 255.22267 127.284195 
L 256.237216 127.284195 
L 256.237216 134.347567 
L 257.251761 134.347567 
L 257.251761 126.589438 
L 258.266307 126.589438 
L 258.266307 133.79755 
L 259.280852 133.79755 
L 259.280852 133.102792 
L 260.295398 133.102792 
L 260.295398 134.260722 
L 261.309943 134.260722 
L 261.309943 140.71618 
L 262.324489 140.71618 
L 262.324489 142.105696 
L 263.339034 142.105696 
L 263.339034 138.110838 
L 264.35358 138.110838 
L 264.35358 146.071605 
L 265.368125 146.071605 
L 265.368125 148.503257 
L 266.38267 148.503257 
L 266.38267 147.461121 
L 267.397216 147.461121 
L 267.397216 144.276814 
L 268.411761 144.276814 
L 268.411761 157.882488 
L 269.426307 157.882488 
L 269.426307 151.542823 
L 270.440852 151.542823 
L 270.440852 155.132405 
L 271.455398 155.132405 
L 271.455398 157.969333 
L 272.469943 157.969333 
L 272.469943 161.501018 
L 273.484489 161.501018 
L 273.484489 169.606527 
L 274.499034 169.606527 
L 274.499034 177.4515 
L 275.51358 177.4515 
L 275.51358 190.217675 
L 276.528125 190.217675 
L 276.528125 200.52325 
L 277.54267 200.52325 
L 277.54267 209.786688 
L 278.557216 209.786688 
L 278.557216 199.886389 
L 279.571761 199.886389 
L 279.571761 179.333136 
L 280.586307 179.333136 
L 280.586307 171.719748 
L 281.600852 171.719748 
L 281.600852 158.83778 
L 282.615398 158.83778 
L 282.615398 154.958716 
L 283.629943 154.958716 
L 283.629943 150.298048 
L 284.644489 150.298048 
L 284.644489 152.266529 
L 285.659034 152.266529 
L 285.659034 158.085126 
L 286.67358 158.085126 
L 286.67358 158.83778 
L 287.688125 158.83778 
L 287.688125 153.713941 
L 288.70267 153.713941 
L 288.70267 155.71137 
L 289.717216 155.71137 
L 289.717216 158.866728 
L 290.731761 158.866728 
L 290.731761 154.495544 
L 291.746307 154.495544 
L 291.746307 155.971904 
L 292.760852 155.971904 
L 292.760852 158.461453 
L 293.775398 158.461453 
L 293.775398 160.429933 
L 294.789943 160.429933 
L 294.789943 161.269433 
L 295.804489 161.269433 
L 295.804489 154.669233 
L 296.819034 154.669233 
L 296.819034 162.079983 
L 297.83358 162.079983 
L 297.83358 161.414174 
L 298.848125 161.414174 
L 298.848125 164.28005 
L 299.86267 164.28005 
L 299.86267 166.219582 
L 300.877216 166.219582 
L 300.877216 165.466928 
L 301.891761 165.466928 
L 301.891761 164.540584 
L 303.920852 164.569532 
L 303.920852 165.177445 
L 304.935398 165.177445 
L 304.935398 166.045893 
L 305.949943 166.045893 
L 305.949943 173.080316 
L 306.964489 173.080316 
L 306.964489 169.664423 
L 307.979034 169.664423 
L 307.979034 170.909197 
L 308.99358 170.909197 
L 308.99358 174.49878 
L 310.008125 174.49878 
L 310.008125 169.722319 
L 311.02267 169.722319 
L 311.02267 173.34085 
L 312.037216 173.34085 
L 312.037216 175.598813 
L 314.066307 175.656709 
L 314.066307 179.188395 
L 315.080852 179.188395 
L 315.080852 178.319948 
L 316.095398 178.319948 
L 316.095398 178.78312 
L 317.109943 178.78312 
L 317.109943 181.41741 
L 318.124489 181.41741 
L 318.124489 183.501683 
L 319.139034 183.501683 
L 319.139034 187.236006 
L 320.15358 187.236006 
L 320.15358 191.838777 
L 321.168125 191.838777 
L 321.168125 200.204819 
L 322.18267 200.204819 
L 322.18267 205.097072 
L 323.197216 205.097072 
L 323.197216 209.728791 
L 324.211761 209.728791 
L 324.211761 218.760643 
L 325.226307 218.760643 
L 325.226307 217.950092 
L 326.240852 217.950092 
L 326.240852 205.676037 
L 327.255398 205.676037 
L 327.255398 198.612666 
L 328.269943 198.612666 
L 328.269943 194.09674 
L 329.284489 194.09674 
L 329.284489 192.996707 
L 330.299034 192.996707 
L 330.299034 188.133402 
L 332.328125 188.133402 
L 332.328125 189.349228 
L 333.34267 189.349228 
L 333.34267 185.006992 
L 334.357216 185.006992 
L 334.357216 187.062317 
L 335.371761 187.062317 
L 335.371761 189.117642 
L 336.386307 189.117642 
L 336.386307 187.322851 
L 337.400852 187.322851 
L 337.400852 189.059746 
L 338.415398 189.059746 
L 338.415398 188.538677 
L 339.429943 188.538677 
L 339.429943 183.791166 
L 340.444489 183.791166 
L 340.444489 191.28876 
L 341.459034 191.28876 
L 341.459034 188.915005 
L 342.47358 188.915005 
L 342.47358 188.075505 
L 343.488125 188.075505 
L 343.488125 186.454404 
L 344.50267 186.454404 
L 344.50267 189.233435 
L 346.531761 189.14659 
L 346.531761 188.538677 
L 347.546307 188.538677 
L 347.546307 187.699178 
L 348.560852 187.699178 
L 348.560852 187.930764 
L 349.575398 187.930764 
L 349.575398 188.799212 
L 350.589943 188.799212 
L 350.589943 192.041415 
L 351.604489 192.041415 
L 351.604489 190.47821 
L 352.619034 190.47821 
L 352.619034 192.388794 
L 353.63358 192.388794 
L 353.63358 188.857108 
L 354.648125 188.857108 
L 354.648125 190.97033 
L 355.66267 190.97033 
L 355.66267 187.814971 
L 356.677216 187.814971 
L 356.677216 191.809829 
L 357.691761 191.809829 
L 357.691761 193.286189 
L 358.706307 193.286189 
L 358.706307 195.891531 
L 359.720852 195.891531 
L 359.720852 195.659945 
L 360.735398 195.659945 
L 360.735398 192.330897 
L 361.749943 192.330897 
L 361.749943 199.017941 
L 362.764489 199.017941 
L 362.764489 195.109929 
L 363.779034 195.109929 
L 363.779034 196.499444 
L 364.79358 196.499444 
L 364.79358 200.089026 
L 365.808125 200.089026 
L 365.808125 199.278476 
L 366.82267 199.278476 
L 366.82267 200.494302 
L 367.837216 200.494302 
L 367.837216 202.115403 
L 368.851761 202.115403 
L 368.851761 207.036605 
L 369.866307 207.036605 
L 369.866307 210.394601 
L 370.880852 210.394601 
L 370.880852 214.505251 
L 371.895398 214.505251 
L 371.895398 214.215769 
L 372.909943 214.215769 
L 372.909943 214.215769 
" clip-path="url(#pee0d6d9540)" style="fill: none; stroke: #1f77b4; stroke-width: 1.5; stroke-linecap: square"/>
   </g>
   <g id="LineCollection_1">
    <path d="M 69.05358 178.322991 
L 69.05358 176.116838 
" clip-path="url(#pee0d6d9540)" style="fill: none; stroke: #1f77b4; stroke-width: 1.5"/>
    <path d="M 70.068125 167.458621 
L 70.068125 164.980543 
" clip-path="url(#pee0d6d9540)" style="fill: none; stroke: #1f77b4; stroke-width: 1.5"/>
    <path d="M 71.08267 157.726304 
L 71.08267 155.028055 
" clip-path="url(#pee0d6d9540)" style="fill: none; stroke: #1f77b4; stroke-width: 1.5"/>
    <path d="M 72.097216 149.619153 
L 72.097216 146.7505 
" clip-path="url(#pee0d6d9540)" style="fill: none; stroke: #1f77b4; stroke-width: 1.5"/>
    <path d="M 73.111761 128.255946 
L 73.111761 124.980826 
" clip-path="url(#pee0d6d9540)" style="fill: none; stroke: #1f77b4; stroke-width: 1.5"/>
    <path d="M 74.126307 124.267328 
L 74.126307 120.921832 
" clip-path="url(#pee0d6d9540)" style="fill: none; stroke: #1f77b4; stroke-width: 1.5"/>
    <path d="M 75.140852 122.660195 
L 75.140852 119.286762 
" clip-path="url(#pee0d6d9540)" style="fill: none; stroke: #1f77b4; stroke-width: 1.5"/>
    <path d="M 76.155398 123.377679 
L 76.155398 120.01669 
" clip-path="url(#pee0d6d9540)" style="fill: none; stroke: #1f77b4; stroke-width: 1.5"/>
    <path d="M 77.169943 122.05749 
L 77.169943 118.67364 
" clip-path="url(#pee0d6d9540)" style="fill: none; stroke: #1f77b4; stroke-width: 1.5"/>
    <path d="M 78.184489 118.584458 
L 78.184489 115.141198 
" clip-path="url(#pee0d6d9540)" style="fill: none; stroke: #1f77b4; stroke-width: 1.5"/>
    <path d="M 79.199034 117.665884 
L 79.199034 114.207084 
" clip-path="url(#pee0d6d9540)" style="fill: none; stroke: #1f77b4; stroke-width: 1.5"/>
    <path d="M 80.21358 112.211155 
L 80.21358 108.661481 
" clip-path="url(#pee0d6d9540)" style="fill: none; stroke: #1f77b4; stroke-width: 1.5"/>
    <path d="M 81.228125 111.924031 
L 81.228125 108.36964 
" clip-path="url(#pee0d6d9540)" style="fill: none; stroke: #1f77b4; stroke-width: 1.5"/>
    <path d="M 82.24267 116.689862 
L 82.24267 113.214626 
" clip-path="url(#pee0d6d9540)" style="fill: none; stroke: #1f77b4; stroke-width: 1.5"/>
    <path d="M 83.257216 109.971511 
L 83.257216 106.385199 
" clip-path="url(#pee0d6d9540)" style="fill: none; stroke: #1f77b4; stroke-width: 1.5"/>
    <path d="M 84.271761 116.775983 
L 84.271761 113.302194 
" clip-path="url(#pee0d6d9540)" style="fill: none; stroke: #1f77b4; stroke-width: 1.5"/>
    <path d="M 85.286307 114.909957 
L 85.286307 111.404948 
" clip-path="url(#pee0d6d9540)" style="fill: none; stroke: #1f77b4; stroke-width: 1.5"/>
    <path d="M 86.300852 118.670572 
L 86.300852 115.228773 
" clip-path="url(#pee0d6d9540)" style="fill: none; stroke: #1f77b4; stroke-width: 1.5"/>
    <path d="M 87.315398 117.436235 
L 87.315398 113.973561 
" clip-path="url(#pee0d6d9540)" style="fill: none; stroke: #1f77b4; stroke-width: 1.5"/>
    <path d="M 88.329943 115.053503 
L 88.329943 111.550885 
" clip-path="url(#pee0d6d9540)" style="fill: none; stroke: #1f77b4; stroke-width: 1.5"/>
    <path d="M 89.344489 112.727968 
L 89.344489 109.186804 
" clip-path="url(#pee0d6d9540)" style="fill: none; stroke: #1f77b4; stroke-width: 1.5"/>
    <path d="M 90.359034 117.522354 
L 90.359034 114.061132 
" clip-path="url(#pee0d6d9540)" style="fill: none; stroke: #1f77b4; stroke-width: 1.5"/>
    <path d="M 91.37358 114.565445 
L 91.37358 111.054702 
" clip-path="url(#pee0d6d9540)" style="fill: none; stroke: #1f77b4; stroke-width: 1.5"/>
    <path d="M 92.388125 119.359476 
L 92.388125 115.929384 
" clip-path="url(#pee0d6d9540)" style="fill: none; stroke: #1f77b4; stroke-width: 1.5"/>
    <path d="M 93.40267 122.430595 
L 93.40267 119.05319 
" clip-path="url(#pee0d6d9540)" style="fill: none; stroke: #1f77b4; stroke-width: 1.5"/>
    <path d="M 94.417216 125.386511 
L 94.417216 122.060612 
" clip-path="url(#pee0d6d9540)" style="fill: none; stroke: #1f77b4; stroke-width: 1.5"/>
    <path d="M 95.431761 125.644776 
L 95.431761 122.323415 
" clip-path="url(#pee0d6d9540)" style="fill: none; stroke: #1f77b4; stroke-width: 1.5"/>
    <path d="M 96.446307 125.61608 
L 96.446307 122.294214 
" clip-path="url(#pee0d6d9540)" style="fill: none; stroke: #1f77b4; stroke-width: 1.5"/>
    <path d="M 97.460852 131.497924 
L 97.460852 128.28115 
" clip-path="url(#pee0d6d9540)" style="fill: none; stroke: #1f77b4; stroke-width: 1.5"/>
    <path d="M 98.475398 129.604443 
L 98.475398 126.353464 
" clip-path="url(#pee0d6d9540)" style="fill: none; stroke: #1f77b4; stroke-width: 1.5"/>
    <path d="M 99.489943 131.727425 
L 99.489943 128.514822 
" clip-path="url(#pee0d6d9540)" style="fill: none; stroke: #1f77b4; stroke-width: 1.5"/>
    <path d="M 100.504489 129.403608 
L 100.504489 126.149022 
" clip-path="url(#pee0d6d9540)" style="fill: none; stroke: #1f77b4; stroke-width: 1.5"/>
    <path d="M 101.519034 128.514175 
L 101.519034 125.243664 
" clip-path="url(#pee0d6d9540)" style="fill: none; stroke: #1f77b4; stroke-width: 1.5"/>
    <path d="M 102.53358 131.354485 
L 102.53358 128.135107 
" clip-path="url(#pee0d6d9540)" style="fill: none; stroke: #1f77b4; stroke-width: 1.5"/>
    <path d="M 103.548125 134.42385 
L 103.548125 131.260666 
" clip-path="url(#pee0d6d9540)" style="fill: none; stroke: #1f77b4; stroke-width: 1.5"/>
    <path d="M 104.56267 133.133056 
L 104.56267 129.946118 
" clip-path="url(#pee0d6d9540)" style="fill: none; stroke: #1f77b4; stroke-width: 1.5"/>
    <path d="M 105.577216 133.305167 
L 105.577216 130.121386 
" clip-path="url(#pee0d6d9540)" style="fill: none; stroke: #1f77b4; stroke-width: 1.5"/>
    <path d="M 106.591761 130.40776 
L 106.591761 127.171248 
" clip-path="url(#pee0d6d9540)" style="fill: none; stroke: #1f77b4; stroke-width: 1.5"/>
    <path d="M 107.606307 133.706753 
L 107.606307 130.530351 
" clip-path="url(#pee0d6d9540)" style="fill: none; stroke: #1f77b4; stroke-width: 1.5"/>
    <path d="M 108.620852 128.858477 
L 108.620852 125.594121 
" clip-path="url(#pee0d6d9540)" style="fill: none; stroke: #1f77b4; stroke-width: 1.5"/>
    <path d="M 109.635398 130.149554 
L 109.635398 126.908385 
" clip-path="url(#pee0d6d9540)" style="fill: none; stroke: #1f77b4; stroke-width: 1.5"/>
    <path d="M 110.649943 131.727425 
L 110.649943 128.514822 
" clip-path="url(#pee0d6d9540)" style="fill: none; stroke: #1f77b4; stroke-width: 1.5"/>
    <path d="M 111.664489 129.547062 
L 111.664489 126.295052 
" clip-path="url(#pee0d6d9540)" style="fill: none; stroke: #1f77b4; stroke-width: 1.5"/>
    <path d="M 112.679034 130.321692 
L 112.679034 127.083627 
" clip-path="url(#pee0d6d9540)" style="fill: none; stroke: #1f77b4; stroke-width: 1.5"/>
    <path d="M 113.69358 131.440549 
L 113.69358 128.222733 
" clip-path="url(#pee0d6d9540)" style="fill: none; stroke: #1f77b4; stroke-width: 1.5"/>
    <path d="M 114.708125 131.12498 
L 114.708125 127.90144 
" clip-path="url(#pee0d6d9540)" style="fill: none; stroke: #1f77b4; stroke-width: 1.5"/>
    <path d="M 115.72267 133.678068 
L 115.72267 130.501139 
" clip-path="url(#pee0d6d9540)" style="fill: none; stroke: #1f77b4; stroke-width: 1.5"/>
    <path d="M 116.737216 134.108331 
L 116.737216 130.939324 
" clip-path="url(#pee0d6d9540)" style="fill: none; stroke: #1f77b4; stroke-width: 1.5"/>
    <path d="M 117.751761 124.927366 
L 117.751761 121.593413 
" clip-path="url(#pee0d6d9540)" style="fill: none; stroke: #1f77b4; stroke-width: 1.5"/>
    <path d="M 118.766307 124.324723 
L 118.766307 120.98023 
" clip-path="url(#pee0d6d9540)" style="fill: none; stroke: #1f77b4; stroke-width: 1.5"/>
    <path d="M 119.780852 127.596011 
L 119.780852 124.309142 
" clip-path="url(#pee0d6d9540)" style="fill: none; stroke: #1f77b4; stroke-width: 1.5"/>
    <path d="M 120.795398 137.75081 
L 120.795398 134.649698 
" clip-path="url(#pee0d6d9540)" style="fill: none; stroke: #1f77b4; stroke-width: 1.5"/>
    <path d="M 121.809943 157.525839 
L 121.809943 154.823245 
" clip-path="url(#pee0d6d9540)" style="fill: none; stroke: #1f77b4; stroke-width: 1.5"/>
    <path d="M 122.824489 163.967527 
L 122.824489 161.408266 
" clip-path="url(#pee0d6d9540)" style="fill: none; stroke: #1f77b4; stroke-width: 1.5"/>
    <path d="M 123.839034 123.808159 
L 123.839034 120.454657 
" clip-path="url(#pee0d6d9540)" style="fill: none; stroke: #1f77b4; stroke-width: 1.5"/>
    <path d="M 124.85358 97.564122 
L 124.85358 93.781306 
" clip-path="url(#pee0d6d9540)" style="fill: none; stroke: #1f77b4; stroke-width: 1.5"/>
    <path d="M 125.868125 102.648336 
L 125.868125 98.94477 
" clip-path="url(#pee0d6d9540)" style="fill: none; stroke: #1f77b4; stroke-width: 1.5"/>
    <path d="M 126.88267 82.881572 
L 126.88267 78.878752 
" clip-path="url(#pee0d6d9540)" style="fill: none; stroke: #1f77b4; stroke-width: 1.5"/>
    <path d="M 127.897216 51.371917 
L 127.897216 46.933858 
" clip-path="url(#pee0d6d9540)" style="fill: none; stroke: #1f77b4; stroke-width: 1.5"/>
    <path d="M 128.911761 37.968348 
L 128.911761 33.357665 
" clip-path="url(#pee0d6d9540)" style="fill: none; stroke: #1f77b4; stroke-width: 1.5"/>
    <path d="M 129.926307 38.601208 
L 129.926307 33.998528 
" clip-path="url(#pee0d6d9540)" style="fill: none; stroke: #1f77b4; stroke-width: 1.5"/>
    <path d="M 130.940852 42.685858 
L 130.940852 38.135179 
" clip-path="url(#pee0d6d9540)" style="fill: none; stroke: #1f77b4; stroke-width: 1.5"/>
    <path d="M 131.955398 43.9227 
L 131.955398 39.387886 
" clip-path="url(#pee0d6d9540)" style="fill: none; stroke: #1f77b4; stroke-width: 1.5"/>
    <path d="M 132.969943 43.491246 
L 132.969943 38.950892 
" clip-path="url(#pee0d6d9540)" style="fill: none; stroke: #1f77b4; stroke-width: 1.5"/>
    <path d="M 133.984489 42.714622 
L 133.984489 38.164311 
" clip-path="url(#pee0d6d9540)" style="fill: none; stroke: #1f77b4; stroke-width: 1.5"/>
    <path d="M 134.999034 44.641781 
L 134.999034 40.116216 
" clip-path="url(#pee0d6d9540)" style="fill: none; stroke: #1f77b4; stroke-width: 1.5"/>
    <path d="M 136.01358 38.773805 
L 136.01358 34.17331 
" clip-path="url(#pee0d6d9540)" style="fill: none; stroke: #1f77b4; stroke-width: 1.5"/>
    <path d="M 137.028125 29.251459 
L 137.028125 24.531919 
" clip-path="url(#pee0d6d9540)" style="fill: none; stroke: #1f77b4; stroke-width: 1.5"/>
    <path d="M 138.04267 22.087152 
L 138.04267 17.280001 
" clip-path="url(#pee0d6d9540)" style="fill: none; stroke: #1f77b4; stroke-width: 1.5"/>
    <path d="M 139.057216 24.734299 
L 139.057216 19.959331 
" clip-path="url(#pee0d6d9540)" style="fill: none; stroke: #1f77b4; stroke-width: 1.5"/>
    <path d="M 140.071761 23.813565 
L 140.071761 19.027377 
" clip-path="url(#pee0d6d9540)" style="fill: none; stroke: #1f77b4; stroke-width: 1.5"/>
    <path d="M 141.086307 26.690816 
L 141.086307 21.939775 
" clip-path="url(#pee0d6d9540)" style="fill: none; stroke: #1f77b4; stroke-width: 1.5"/>
    <path d="M 142.100852 24.072522 
L 142.100852 19.289488 
" clip-path="url(#pee0d6d9540)" style="fill: none; stroke: #1f77b4; stroke-width: 1.5"/>
    <path d="M 143.115398 22.950364 
L 143.115398 18.153683 
" clip-path="url(#pee0d6d9540)" style="fill: none; stroke: #1f77b4; stroke-width: 1.5"/>
    <path d="M 144.129943 27.697823 
L 144.129943 22.959145 
" clip-path="url(#pee0d6d9540)" style="fill: none; stroke: #1f77b4; stroke-width: 1.5"/>
    <path d="M 145.144489 29.654247 
L 145.144489 24.939681 
" clip-path="url(#pee0d6d9540)" style="fill: none; stroke: #1f77b4; stroke-width: 1.5"/>
    <path d="M 146.159034 32.617537 
L 146.159034 27.93973 
" clip-path="url(#pee0d6d9540)" style="fill: none; stroke: #1f77b4; stroke-width: 1.5"/>
    <path d="M 147.17358 31.150295 
L 147.17358 26.454251 
" clip-path="url(#pee0d6d9540)" style="fill: none; stroke: #1f77b4; stroke-width: 1.5"/>
    <path d="M 148.188125 33.969669 
L 148.188125 29.308732 
" clip-path="url(#pee0d6d9540)" style="fill: none; stroke: #1f77b4; stroke-width: 1.5"/>
    <path d="M 149.20267 36.357402 
L 149.20267 31.726407 
" clip-path="url(#pee0d6d9540)" style="fill: none; stroke: #1f77b4; stroke-width: 1.5"/>
    <path d="M 150.217216 35.264235 
L 150.217216 30.619508 
" clip-path="url(#pee0d6d9540)" style="fill: none; stroke: #1f77b4; stroke-width: 1.5"/>
    <path d="M 151.231761 37.421782 
L 151.231761 32.804197 
" clip-path="url(#pee0d6d9540)" style="fill: none; stroke: #1f77b4; stroke-width: 1.5"/>
    <path d="M 152.246307 43.002262 
L 152.246307 38.455636 
" clip-path="url(#pee0d6d9540)" style="fill: none; stroke: #1f77b4; stroke-width: 1.5"/>
    <path d="M 153.260852 39.147762 
L 153.260852 34.552007 
" clip-path="url(#pee0d6d9540)" style="fill: none; stroke: #1f77b4; stroke-width: 1.5"/>
    <path d="M 154.275398 44.497966 
L 154.275398 39.97055 
" clip-path="url(#pee0d6d9540)" style="fill: none; stroke: #1f77b4; stroke-width: 1.5"/>
    <path d="M 155.289943 48.208285 
L 155.289943 43.728877 
" clip-path="url(#pee0d6d9540)" style="fill: none; stroke: #1f77b4; stroke-width: 1.5"/>
    <path d="M 156.304489 48.467134 
L 156.304489 43.991096 
" clip-path="url(#pee0d6d9540)" style="fill: none; stroke: #1f77b4; stroke-width: 1.5"/>
    <path d="M 157.319034 54.161505 
L 157.319034 49.760229 
" clip-path="url(#pee0d6d9540)" style="fill: none; stroke: #1f77b4; stroke-width: 1.5"/>
    <path d="M 158.33358 58.359972 
L 158.33358 54.014649 
" clip-path="url(#pee0d6d9540)" style="fill: none; stroke: #1f77b4; stroke-width: 1.5"/>
    <path d="M 159.348125 58.733791 
L 159.348125 54.393485 
" clip-path="url(#pee0d6d9540)" style="fill: none; stroke: #1f77b4; stroke-width: 1.5"/>
    <path d="M 160.36267 61.752988 
L 160.36267 57.453419 
" clip-path="url(#pee0d6d9540)" style="fill: none; stroke: #1f77b4; stroke-width: 1.5"/>
    <path d="M 161.377216 60.832872 
L 161.377216 56.520847 
" clip-path="url(#pee0d6d9540)" style="fill: none; stroke: #1f77b4; stroke-width: 1.5"/>
    <path d="M 162.391761 63.851934 
L 162.391761 59.580916 
" clip-path="url(#pee0d6d9540)" style="fill: none; stroke: #1f77b4; stroke-width: 1.5"/>
    <path d="M 163.406307 67.790792 
L 163.406307 63.573877 
" clip-path="url(#pee0d6d9540)" style="fill: none; stroke: #1f77b4; stroke-width: 1.5"/>
    <path d="M 164.420852 70.924377 
L 164.420852 66.751009 
" clip-path="url(#pee0d6d9540)" style="fill: none; stroke: #1f77b4; stroke-width: 1.5"/>
    <path d="M 165.435398 76.615985 
L 165.435398 72.522905 
" clip-path="url(#pee0d6d9540)" style="fill: none; stroke: #1f77b4; stroke-width: 1.5"/>
    <path d="M 166.449943 79.863869 
L 166.449943 75.817323 
" clip-path="url(#pee0d6d9540)" style="fill: none; stroke: #1f77b4; stroke-width: 1.5"/>
    <path d="M 167.464489 87.450774 
L 167.464489 83.515091 
" clip-path="url(#pee0d6d9540)" style="fill: none; stroke: #1f77b4; stroke-width: 1.5"/>
    <path d="M 168.479034 89.778259 
L 168.479034 85.877221 
" clip-path="url(#pee0d6d9540)" style="fill: none; stroke: #1f77b4; stroke-width: 1.5"/>
    <path d="M 169.49358 92.048125 
L 169.49358 88.181177 
" clip-path="url(#pee0d6d9540)" style="fill: none; stroke: #1f77b4; stroke-width: 1.5"/>
    <path d="M 170.508125 106.410673 
L 170.508125 102.766872 
" clip-path="url(#pee0d6d9540)" style="fill: none; stroke: #1f77b4; stroke-width: 1.5"/>
    <path d="M 171.52267 102.992997 
L 171.52267 99.294866 
" clip-path="url(#pee0d6d9540)" style="fill: none; stroke: #1f77b4; stroke-width: 1.5"/>
    <path d="M 172.537216 118.469638 
L 172.537216 115.024432 
" clip-path="url(#pee0d6d9540)" style="fill: none; stroke: #1f77b4; stroke-width: 1.5"/>
    <path d="M 173.551761 125.300422 
L 173.551761 121.973011 
" clip-path="url(#pee0d6d9540)" style="fill: none; stroke: #1f77b4; stroke-width: 1.5"/>
    <path d="M 174.566307 139.1273 
L 174.566307 136.052239 
" clip-path="url(#pee0d6d9540)" style="fill: none; stroke: #1f77b4; stroke-width: 1.5"/>
    <path d="M 175.580852 156.809862 
L 175.580852 154.091809 
" clip-path="url(#pee0d6d9540)" style="fill: none; stroke: #1f77b4; stroke-width: 1.5"/>
    <path d="M 176.595398 161.076409 
L 176.595398 158.451839 
" clip-path="url(#pee0d6d9540)" style="fill: none; stroke: #1f77b4; stroke-width: 1.5"/>
    <path d="M 177.609943 129.719204 
L 177.609943 126.470288 
" clip-path="url(#pee0d6d9540)" style="fill: none; stroke: #1f77b4; stroke-width: 1.5"/>
    <path d="M 178.624489 126.735194 
L 178.624489 123.433064 
" clip-path="url(#pee0d6d9540)" style="fill: none; stroke: #1f77b4; stroke-width: 1.5"/>
    <path d="M 179.639034 124.468211 
L 179.639034 121.126224 
" clip-path="url(#pee0d6d9540)" style="fill: none; stroke: #1f77b4; stroke-width: 1.5"/>
    <path d="M 180.65358 49.905166 
L 180.65358 45.447888 
" clip-path="url(#pee0d6d9540)" style="fill: none; stroke: #1f77b4; stroke-width: 1.5"/>
    <path d="M 181.668125 33.76829 
L 181.668125 29.104837 
" clip-path="url(#pee0d6d9540)" style="fill: none; stroke: #1f77b4; stroke-width: 1.5"/>
    <path d="M 182.68267 23.410739 
L 182.68267 18.619652 
" clip-path="url(#pee0d6d9540)" style="fill: none; stroke: #1f77b4; stroke-width: 1.5"/>
    <path d="M 183.697216 29.165147 
L 183.697216 24.444541 
" clip-path="url(#pee0d6d9540)" style="fill: none; stroke: #1f77b4; stroke-width: 1.5"/>
    <path d="M 184.711761 24.446571 
L 184.711761 19.668094 
" clip-path="url(#pee0d6d9540)" style="fill: none; stroke: #1f77b4; stroke-width: 1.5"/>
    <path d="M 185.726307 27.179935 
L 185.726307 22.434895 
" clip-path="url(#pee0d6d9540)" style="fill: none; stroke: #1f77b4; stroke-width: 1.5"/>
    <path d="M 186.740852 31.725688 
L 186.740852 27.036787 
" clip-path="url(#pee0d6d9540)" style="fill: none; stroke: #1f77b4; stroke-width: 1.5"/>
    <path d="M 187.755398 25.539931 
L 187.755398 20.7748 
" clip-path="url(#pee0d6d9540)" style="fill: none; stroke: #1f77b4; stroke-width: 1.5"/>
    <path d="M 188.769943 26.777131 
L 188.769943 22.027149 
" clip-path="url(#pee0d6d9540)" style="fill: none; stroke: #1f77b4; stroke-width: 1.5"/>
    <path d="M 189.784489 23.612152 
L 189.784489 18.823514 
" clip-path="url(#pee0d6d9540)" style="fill: none; stroke: #1f77b4; stroke-width: 1.5"/>
    <path d="M 190.799034 36.242333 
L 190.799034 31.609891 
" clip-path="url(#pee0d6d9540)" style="fill: none; stroke: #1f77b4; stroke-width: 1.5"/>
    <path d="M 191.81358 32.416153 
L 191.81358 27.735839 
" clip-path="url(#pee0d6d9540)" style="fill: none; stroke: #1f77b4; stroke-width: 1.5"/>
    <path d="M 192.828125 44.958174 
L 192.828125 40.436685 
" clip-path="url(#pee0d6d9540)" style="fill: none; stroke: #1f77b4; stroke-width: 1.5"/>
    <path d="M 193.84267 31.668149 
L 193.84267 26.978534 
" clip-path="url(#pee0d6d9540)" style="fill: none; stroke: #1f77b4; stroke-width: 1.5"/>
    <path d="M 194.857216 34.976556 
L 194.857216 30.328222 
" clip-path="url(#pee0d6d9540)" style="fill: none; stroke: #1f77b4; stroke-width: 1.5"/>
    <path d="M 195.871761 38.514909 
L 195.871761 33.911137 
" clip-path="url(#pee0d6d9540)" style="fill: none; stroke: #1f77b4; stroke-width: 1.5"/>
    <path d="M 196.886307 40.93122 
L 196.886307 36.358131 
" clip-path="url(#pee0d6d9540)" style="fill: none; stroke: #1f77b4; stroke-width: 1.5"/>
    <path d="M 197.900852 47.891911 
L 197.900852 43.40839 
" clip-path="url(#pee0d6d9540)" style="fill: none; stroke: #1f77b4; stroke-width: 1.5"/>
    <path d="M 198.915398 42.053044 
L 198.915398 37.49427 
" clip-path="url(#pee0d6d9540)" style="fill: none; stroke: #1f77b4; stroke-width: 1.5"/>
    <path d="M 199.929943 49.933926 
L 199.929943 45.477025 
" clip-path="url(#pee0d6d9540)" style="fill: none; stroke: #1f77b4; stroke-width: 1.5"/>
    <path d="M 200.944489 44.756834 
L 200.944489 40.23275 
" clip-path="url(#pee0d6d9540)" style="fill: none; stroke: #1f77b4; stroke-width: 1.5"/>
    <path d="M 201.959034 49.675084 
L 201.959034 45.214799 
" clip-path="url(#pee0d6d9540)" style="fill: none; stroke: #1f77b4; stroke-width: 1.5"/>
    <path d="M 202.97358 55.225534 
L 202.97358 50.838371 
" clip-path="url(#pee0d6d9540)" style="fill: none; stroke: #1f77b4; stroke-width: 1.5"/>
    <path d="M 203.988125 54.937961 
L 203.988125 50.546979 
" clip-path="url(#pee0d6d9540)" style="fill: none; stroke: #1f77b4; stroke-width: 1.5"/>
    <path d="M 205.00267 57.641082 
L 205.00267 53.286127 
" clip-path="url(#pee0d6d9540)" style="fill: none; stroke: #1f77b4; stroke-width: 1.5"/>
    <path d="M 206.017216 63.535661 
L 206.017216 59.260328 
" clip-path="url(#pee0d6d9540)" style="fill: none; stroke: #1f77b4; stroke-width: 1.5"/>
    <path d="M 207.031761 67.100798 
L 207.031761 62.874355 
" clip-path="url(#pee0d6d9540)" style="fill: none; stroke: #1f77b4; stroke-width: 1.5"/>
    <path d="M 208.046307 71.98802 
L 208.046307 67.829536 
" clip-path="url(#pee0d6d9540)" style="fill: none; stroke: #1f77b4; stroke-width: 1.5"/>
    <path d="M 209.060852 72.361725 
L 209.060852 68.208485 
" clip-path="url(#pee0d6d9540)" style="fill: none; stroke: #1f77b4; stroke-width: 1.5"/>
    <path d="M 210.075398 65.749529 
L 210.075398 61.504489 
" clip-path="url(#pee0d6d9540)" style="fill: none; stroke: #1f77b4; stroke-width: 1.5"/>
    <path d="M 211.089943 74.833849 
L 211.089943 70.715459 
" clip-path="url(#pee0d6d9540)" style="fill: none; stroke: #1f77b4; stroke-width: 1.5"/>
    <path d="M 212.104489 75.811159 
L 212.104489 71.706629 
" clip-path="url(#pee0d6d9540)" style="fill: none; stroke: #1f77b4; stroke-width: 1.5"/>
    <path d="M 213.119034 78.685465 
L 213.119034 74.621972 
" clip-path="url(#pee0d6d9540)" style="fill: none; stroke: #1f77b4; stroke-width: 1.5"/>
    <path d="M 214.13358 83.973634 
L 214.13358 79.986756 
" clip-path="url(#pee0d6d9540)" style="fill: none; stroke: #1f77b4; stroke-width: 1.5"/>
    <path d="M 215.148125 86.215135 
L 215.148125 82.261182 
" clip-path="url(#pee0d6d9540)" style="fill: none; stroke: #1f77b4; stroke-width: 1.5"/>
    <path d="M 216.16267 92.852599 
L 216.16267 88.997806 
" clip-path="url(#pee0d6d9540)" style="fill: none; stroke: #1f77b4; stroke-width: 1.5"/>
    <path d="M 217.177216 92.88133 
L 217.177216 89.026971 
" clip-path="url(#pee0d6d9540)" style="fill: none; stroke: #1f77b4; stroke-width: 1.5"/>
    <path d="M 218.191761 91.933199 
L 218.191761 88.064518 
" clip-path="url(#pee0d6d9540)" style="fill: none; stroke: #1f77b4; stroke-width: 1.5"/>
    <path d="M 219.206307 108.277299 
L 219.206307 104.663519 
" clip-path="url(#pee0d6d9540)" style="fill: none; stroke: #1f77b4; stroke-width: 1.5"/>
    <path d="M 220.220852 106.209645 
L 220.220852 102.562626 
" clip-path="url(#pee0d6d9540)" style="fill: none; stroke: #1f77b4; stroke-width: 1.5"/>
    <path d="M 221.235398 107.157338 
L 221.235398 103.525516 
" clip-path="url(#pee0d6d9540)" style="fill: none; stroke: #1f77b4; stroke-width: 1.5"/>
    <path d="M 222.249943 112.814103 
L 222.249943 109.274359 
" clip-path="url(#pee0d6d9540)" style="fill: none; stroke: #1f77b4; stroke-width: 1.5"/>
    <path d="M 223.264489 122.688895 
L 223.264489 119.315959 
" clip-path="url(#pee0d6d9540)" style="fill: none; stroke: #1f77b4; stroke-width: 1.5"/>
    <path d="M 224.279034 123.808159 
L 224.279034 120.454657 
" clip-path="url(#pee0d6d9540)" style="fill: none; stroke: #1f77b4; stroke-width: 1.5"/>
    <path d="M 225.29358 129.575752 
L 225.29358 126.324258 
" clip-path="url(#pee0d6d9540)" style="fill: none; stroke: #1f77b4; stroke-width: 1.5"/>
    <path d="M 226.308125 154.890832 
L 226.308125 152.131775 
" clip-path="url(#pee0d6d9540)" style="fill: none; stroke: #1f77b4; stroke-width: 1.5"/>
    <path d="M 227.32267 170.376355 
L 227.32267 167.968251 
" clip-path="url(#pee0d6d9540)" style="fill: none; stroke: #1f77b4; stroke-width: 1.5"/>
    <path d="M 228.337216 187.086571 
L 228.337216 185.127479 
" clip-path="url(#pee0d6d9540)" style="fill: none; stroke: #1f77b4; stroke-width: 1.5"/>
    <path d="M 229.351761 160.876004 
L 229.351761 158.246968 
" clip-path="url(#pee0d6d9540)" style="fill: none; stroke: #1f77b4; stroke-width: 1.5"/>
    <path d="M 230.366307 154.317929 
L 230.366307 151.546749 
" clip-path="url(#pee0d6d9540)" style="fill: none; stroke: #1f77b4; stroke-width: 1.5"/>
    <path d="M 231.380852 135.427739 
L 231.380852 132.283154 
" clip-path="url(#pee0d6d9540)" style="fill: none; stroke: #1f77b4; stroke-width: 1.5"/>
    <path d="M 232.395398 117.69459 
L 232.395398 114.236275 
" clip-path="url(#pee0d6d9540)" style="fill: none; stroke: #1f77b4; stroke-width: 1.5"/>
    <path d="M 233.409943 101.757941 
L 233.409943 98.040374 
" clip-path="url(#pee0d6d9540)" style="fill: none; stroke: #1f77b4; stroke-width: 1.5"/>
    <path d="M 234.424489 109.741794 
L 234.424489 106.151745 
" clip-path="url(#pee0d6d9540)" style="fill: none; stroke: #1f77b4; stroke-width: 1.5"/>
    <path d="M 235.439034 108.105 
L 235.439034 104.488439 
" clip-path="url(#pee0d6d9540)" style="fill: none; stroke: #1f77b4; stroke-width: 1.5"/>
    <path d="M 236.45358 108.507028 
L 236.45358 104.896961 
" clip-path="url(#pee0d6d9540)" style="fill: none; stroke: #1f77b4; stroke-width: 1.5"/>
    <path d="M 237.468125 108.306015 
L 237.468125 104.692699 
" clip-path="url(#pee0d6d9540)" style="fill: none; stroke: #1f77b4; stroke-width: 1.5"/>
    <path d="M 238.48267 114.622864 
L 238.48267 111.113076 
" clip-path="url(#pee0d6d9540)" style="fill: none; stroke: #1f77b4; stroke-width: 1.5"/>
    <path d="M 239.497216 104.601366 
L 239.497216 100.928702 
" clip-path="url(#pee0d6d9540)" style="fill: none; stroke: #1f77b4; stroke-width: 1.5"/>
    <path d="M 240.511761 110.316084 
L 240.511761 106.735384 
" clip-path="url(#pee0d6d9540)" style="fill: none; stroke: #1f77b4; stroke-width: 1.5"/>
    <path d="M 241.526307 111.924031 
L 241.526307 108.36964 
" clip-path="url(#pee0d6d9540)" style="fill: none; stroke: #1f77b4; stroke-width: 1.5"/>
    <path d="M 242.540852 116.603741 
L 242.540852 113.127058 
" clip-path="url(#pee0d6d9540)" style="fill: none; stroke: #1f77b4; stroke-width: 1.5"/>
    <path d="M 243.555398 115.943466 
L 243.555398 112.455713 
" clip-path="url(#pee0d6d9540)" style="fill: none; stroke: #1f77b4; stroke-width: 1.5"/>
    <path d="M 244.569943 111.895319 
L 244.569943 108.340456 
" clip-path="url(#pee0d6d9540)" style="fill: none; stroke: #1f77b4; stroke-width: 1.5"/>
    <path d="M 245.584489 122.516695 
L 245.584489 119.140779 
" clip-path="url(#pee0d6d9540)" style="fill: none; stroke: #1f77b4; stroke-width: 1.5"/>
    <path d="M 246.599034 115.943466 
L 246.599034 112.455713 
" clip-path="url(#pee0d6d9540)" style="fill: none; stroke: #1f77b4; stroke-width: 1.5"/>
    <path d="M 247.61358 116.517619 
L 247.61358 113.03949 
" clip-path="url(#pee0d6d9540)" style="fill: none; stroke: #1f77b4; stroke-width: 1.5"/>
    <path d="M 248.628125 122.889792 
L 248.628125 119.520336 
" clip-path="url(#pee0d6d9540)" style="fill: none; stroke: #1f77b4; stroke-width: 1.5"/>
    <path d="M 249.64267 121.081649 
L 249.64267 117.681001 
" clip-path="url(#pee0d6d9540)" style="fill: none; stroke: #1f77b4; stroke-width: 1.5"/>
    <path d="M 250.657216 122.660195 
L 250.657216 119.286762 
" clip-path="url(#pee0d6d9540)" style="fill: none; stroke: #1f77b4; stroke-width: 1.5"/>
    <path d="M 251.671761 124.927366 
L 251.671761 121.593413 
" clip-path="url(#pee0d6d9540)" style="fill: none; stroke: #1f77b4; stroke-width: 1.5"/>
    <path d="M 252.686307 125.903038 
L 252.686307 122.586221 
" clip-path="url(#pee0d6d9540)" style="fill: none; stroke: #1f77b4; stroke-width: 1.5"/>
    <path d="M 253.700852 131.038915 
L 253.700852 127.813816 
" clip-path="url(#pee0d6d9540)" style="fill: none; stroke: #1f77b4; stroke-width: 1.5"/>
    <path d="M 254.715398 127.739476 
L 254.715398 124.455158 
" clip-path="url(#pee0d6d9540)" style="fill: none; stroke: #1f77b4; stroke-width: 1.5"/>
    <path d="M 255.729943 128.91586 
L 255.729943 125.652531 
" clip-path="url(#pee0d6d9540)" style="fill: none; stroke: #1f77b4; stroke-width: 1.5"/>
    <path d="M 256.744489 135.915322 
L 256.744489 132.779812 
" clip-path="url(#pee0d6d9540)" style="fill: none; stroke: #1f77b4; stroke-width: 1.5"/>
    <path d="M 257.759034 128.227253 
L 257.759034 124.951622 
" clip-path="url(#pee0d6d9540)" style="fill: none; stroke: #1f77b4; stroke-width: 1.5"/>
    <path d="M 258.77358 135.370375 
L 258.77358 132.224725 
" clip-path="url(#pee0d6d9540)" style="fill: none; stroke: #1f77b4; stroke-width: 1.5"/>
    <path d="M 259.788125 134.681998 
L 259.788125 131.523587 
" clip-path="url(#pee0d6d9540)" style="fill: none; stroke: #1f77b4; stroke-width: 1.5"/>
    <path d="M 260.80267 135.829279 
L 260.80267 132.692165 
" clip-path="url(#pee0d6d9540)" style="fill: none; stroke: #1f77b4; stroke-width: 1.5"/>
    <path d="M 261.817216 142.223992 
L 261.817216 139.208368 
" clip-path="url(#pee0d6d9540)" style="fill: none; stroke: #1f77b4; stroke-width: 1.5"/>
    <path d="M 262.831761 143.600109 
L 262.831761 140.611282 
" clip-path="url(#pee0d6d9540)" style="fill: none; stroke: #1f77b4; stroke-width: 1.5"/>
    <path d="M 263.846307 139.643456 
L 263.846307 136.578221 
" clip-path="url(#pee0d6d9540)" style="fill: none; stroke: #1f77b4; stroke-width: 1.5"/>
    <path d="M 264.860852 147.5271 
L 264.860852 144.61611 
" clip-path="url(#pee0d6d9540)" style="fill: none; stroke: #1f77b4; stroke-width: 1.5"/>
    <path d="M 265.875398 149.934367 
L 265.875398 147.072148 
" clip-path="url(#pee0d6d9540)" style="fill: none; stroke: #1f77b4; stroke-width: 1.5"/>
    <path d="M 266.889943 148.902732 
L 266.889943 146.01951 
" clip-path="url(#pee0d6d9540)" style="fill: none; stroke: #1f77b4; stroke-width: 1.5"/>
    <path d="M 267.904489 145.750049 
L 267.904489 142.803579 
" clip-path="url(#pee0d6d9540)" style="fill: none; stroke: #1f77b4; stroke-width: 1.5"/>
    <path d="M 268.919034 159.215365 
L 268.919034 156.549611 
" clip-path="url(#pee0d6d9540)" style="fill: none; stroke: #1f77b4; stroke-width: 1.5"/>
    <path d="M 269.93358 152.942853 
L 269.93358 150.142793 
" clip-path="url(#pee0d6d9540)" style="fill: none; stroke: #1f77b4; stroke-width: 1.5"/>
    <path d="M 270.948125 156.494819 
L 270.948125 153.769991 
" clip-path="url(#pee0d6d9540)" style="fill: none; stroke: #1f77b4; stroke-width: 1.5"/>
    <path d="M 271.96267 159.301267 
L 271.96267 156.637399 
" clip-path="url(#pee0d6d9540)" style="fill: none; stroke: #1f77b4; stroke-width: 1.5"/>
    <path d="M 272.977216 162.794004 
L 272.977216 160.208033 
" clip-path="url(#pee0d6d9540)" style="fill: none; stroke: #1f77b4; stroke-width: 1.5"/>
    <path d="M 273.991761 170.805347 
L 273.991761 168.407706 
" clip-path="url(#pee0d6d9540)" style="fill: none; stroke: #1f77b4; stroke-width: 1.5"/>
    <path d="M 275.006307 178.551534 
L 275.006307 176.351467 
" clip-path="url(#pee0d6d9540)" style="fill: none; stroke: #1f77b4; stroke-width: 1.5"/>
    <path d="M 276.020852 191.134471 
L 276.020852 189.30088 
" clip-path="url(#pee0d6d9540)" style="fill: none; stroke: #1f77b4; stroke-width: 1.5"/>
    <path d="M 277.035398 201.259583 
L 277.035398 199.786917 
" clip-path="url(#pee0d6d9540)" style="fill: none; stroke: #1f77b4; stroke-width: 1.5"/>
    <path d="M 278.049943 210.310163 
L 278.049943 209.263213 
" clip-path="url(#pee0d6d9540)" style="fill: none; stroke: #1f77b4; stroke-width: 1.5"/>
    <path d="M 279.064489 200.635136 
L 279.064489 199.137641 
" clip-path="url(#pee0d6d9540)" style="fill: none; stroke: #1f77b4; stroke-width: 1.5"/>
    <path d="M 280.079034 180.408126 
L 280.079034 178.258146 
" clip-path="url(#pee0d6d9540)" style="fill: none; stroke: #1f77b4; stroke-width: 1.5"/>
    <path d="M 281.09358 172.892777 
L 281.09358 170.546719 
" clip-path="url(#pee0d6d9540)" style="fill: none; stroke: #1f77b4; stroke-width: 1.5"/>
    <path d="M 282.108125 160.160243 
L 282.108125 157.515317 
" clip-path="url(#pee0d6d9540)" style="fill: none; stroke: #1f77b4; stroke-width: 1.5"/>
    <path d="M 283.12267 156.322974 
L 283.12267 153.594458 
" clip-path="url(#pee0d6d9540)" style="fill: none; stroke: #1f77b4; stroke-width: 1.5"/>
    <path d="M 284.137216 151.710889 
L 284.137216 148.885208 
" clip-path="url(#pee0d6d9540)" style="fill: none; stroke: #1f77b4; stroke-width: 1.5"/>
    <path d="M 285.151761 153.659057 
L 285.151761 150.874001 
" clip-path="url(#pee0d6d9540)" style="fill: none; stroke: #1f77b4; stroke-width: 1.5"/>
    <path d="M 286.166307 159.415801 
L 286.166307 156.754451 
" clip-path="url(#pee0d6d9540)" style="fill: none; stroke: #1f77b4; stroke-width: 1.5"/>
    <path d="M 287.180852 160.160243 
L 287.180852 157.515317 
" clip-path="url(#pee0d6d9540)" style="fill: none; stroke: #1f77b4; stroke-width: 1.5"/>
    <path d="M 288.195398 155.091342 
L 288.195398 152.33654 
" clip-path="url(#pee0d6d9540)" style="fill: none; stroke: #1f77b4; stroke-width: 1.5"/>
    <path d="M 289.209943 157.067619 
L 289.209943 154.355121 
" clip-path="url(#pee0d6d9540)" style="fill: none; stroke: #1f77b4; stroke-width: 1.5"/>
    <path d="M 290.224489 160.188874 
L 290.224489 157.544583 
" clip-path="url(#pee0d6d9540)" style="fill: none; stroke: #1f77b4; stroke-width: 1.5"/>
    <path d="M 291.239034 155.864707 
L 291.239034 153.126381 
" clip-path="url(#pee0d6d9540)" style="fill: none; stroke: #1f77b4; stroke-width: 1.5"/>
    <path d="M 292.25358 157.32537 
L 292.25358 154.618438 
" clip-path="url(#pee0d6d9540)" style="fill: none; stroke: #1f77b4; stroke-width: 1.5"/>
    <path d="M 293.268125 159.788028 
L 293.268125 157.134878 
" clip-path="url(#pee0d6d9540)" style="fill: none; stroke: #1f77b4; stroke-width: 1.5"/>
    <path d="M 294.28267 161.734854 
L 294.28267 159.125013 
" clip-path="url(#pee0d6d9540)" style="fill: none; stroke: #1f77b4; stroke-width: 1.5"/>
    <path d="M 295.297216 162.565008 
L 295.297216 159.973857 
" clip-path="url(#pee0d6d9540)" style="fill: none; stroke: #1f77b4; stroke-width: 1.5"/>
    <path d="M 296.311761 156.036559 
L 296.311761 153.301907 
" clip-path="url(#pee0d6d9540)" style="fill: none; stroke: #1f77b4; stroke-width: 1.5"/>
    <path d="M 297.326307 163.366471 
L 297.326307 160.793495 
" clip-path="url(#pee0d6d9540)" style="fill: none; stroke: #1f77b4; stroke-width: 1.5"/>
    <path d="M 298.340852 162.708131 
L 298.340852 160.120216 
" clip-path="url(#pee0d6d9540)" style="fill: none; stroke: #1f77b4; stroke-width: 1.5"/>
    <path d="M 299.355398 165.541542 
L 299.355398 163.018557 
" clip-path="url(#pee0d6d9540)" style="fill: none; stroke: #1f77b4; stroke-width: 1.5"/>
    <path d="M 300.369943 167.458621 
L 300.369943 164.980543 
" clip-path="url(#pee0d6d9540)" style="fill: none; stroke: #1f77b4; stroke-width: 1.5"/>
    <path d="M 301.384489 166.714728 
L 301.384489 164.219128 
" clip-path="url(#pee0d6d9540)" style="fill: none; stroke: #1f77b4; stroke-width: 1.5"/>
    <path d="M 302.399034 165.799084 
L 302.399034 163.282084 
" clip-path="url(#pee0d6d9540)" style="fill: none; stroke: #1f77b4; stroke-width: 1.5"/>
    <path d="M 303.41358 165.827699 
L 303.41358 163.311366 
" clip-path="url(#pee0d6d9540)" style="fill: none; stroke: #1f77b4; stroke-width: 1.5"/>
    <path d="M 304.428125 166.428599 
L 304.428125 163.926292 
" clip-path="url(#pee0d6d9540)" style="fill: none; stroke: #1f77b4; stroke-width: 1.5"/>
    <path d="M 305.44267 167.286959 
L 305.44267 164.804826 
" clip-path="url(#pee0d6d9540)" style="fill: none; stroke: #1f77b4; stroke-width: 1.5"/>
    <path d="M 306.457216 174.236435 
L 306.457216 171.924197 
" clip-path="url(#pee0d6d9540)" style="fill: none; stroke: #1f77b4; stroke-width: 1.5"/>
    <path d="M 307.471761 170.862545 
L 307.471761 168.466301 
" clip-path="url(#pee0d6d9540)" style="fill: none; stroke: #1f77b4; stroke-width: 1.5"/>
    <path d="M 308.486307 172.092186 
L 308.486307 169.726209 
" clip-path="url(#pee0d6d9540)" style="fill: none; stroke: #1f77b4; stroke-width: 1.5"/>
    <path d="M 309.500852 175.637001 
L 309.500852 173.360558 
" clip-path="url(#pee0d6d9540)" style="fill: none; stroke: #1f77b4; stroke-width: 1.5"/>
    <path d="M 310.515398 170.919741 
L 310.515398 168.524898 
" clip-path="url(#pee0d6d9540)" style="fill: none; stroke: #1f77b4; stroke-width: 1.5"/>
    <path d="M 311.529943 174.493702 
L 311.529943 172.187997 
" clip-path="url(#pee0d6d9540)" style="fill: none; stroke: #1f77b4; stroke-width: 1.5"/>
    <path d="M 312.544489 176.722959 
L 312.544489 174.474666 
" clip-path="url(#pee0d6d9540)" style="fill: none; stroke: #1f77b4; stroke-width: 1.5"/>
    <path d="M 313.559034 176.78011 
L 313.559034 174.533309 
" clip-path="url(#pee0d6d9540)" style="fill: none; stroke: #1f77b4; stroke-width: 1.5"/>
    <path d="M 314.57358 180.265332 
L 314.57358 178.111458 
" clip-path="url(#pee0d6d9540)" style="fill: none; stroke: #1f77b4; stroke-width: 1.5"/>
    <path d="M 315.588125 179.408494 
L 315.588125 177.231401 
" clip-path="url(#pee0d6d9540)" style="fill: none; stroke: #1f77b4; stroke-width: 1.5"/>
    <path d="M 316.60267 179.86549 
L 316.60267 177.700749 
" clip-path="url(#pee0d6d9540)" style="fill: none; stroke: #1f77b4; stroke-width: 1.5"/>
    <path d="M 317.617216 182.46396 
L 317.617216 180.37086 
" clip-path="url(#pee0d6d9540)" style="fill: none; stroke: #1f77b4; stroke-width: 1.5"/>
    <path d="M 318.631761 184.518999 
L 318.631761 182.484368 
" clip-path="url(#pee0d6d9540)" style="fill: none; stroke: #1f77b4; stroke-width: 1.5"/>
    <path d="M 319.646307 188.198726 
L 319.646307 186.273287 
" clip-path="url(#pee0d6d9540)" style="fill: none; stroke: #1f77b4; stroke-width: 1.5"/>
    <path d="M 320.660852 192.729612 
L 320.660852 190.947942 
" clip-path="url(#pee0d6d9540)" style="fill: none; stroke: #1f77b4; stroke-width: 1.5"/>
    <path d="M 321.675398 200.947385 
L 321.675398 199.462253 
" clip-path="url(#pee0d6d9540)" style="fill: none; stroke: #1f77b4; stroke-width: 1.5"/>
    <path d="M 322.689943 205.737215 
L 322.689943 204.45693 
" clip-path="url(#pee0d6d9540)" style="fill: none; stroke: #1f77b4; stroke-width: 1.5"/>
    <path d="M 323.704489 210.253865 
L 323.704489 209.203718 
" clip-path="url(#pee0d6d9540)" style="fill: none; stroke: #1f77b4; stroke-width: 1.5"/>
    <path d="M 324.719034 218.88 
L 324.719034 218.641286 
" clip-path="url(#pee0d6d9540)" style="fill: none; stroke: #1f77b4; stroke-width: 1.5"/>
    <path d="M 325.73358 218.144283 
L 325.73358 217.755901 
" clip-path="url(#pee0d6d9540)" style="fill: none; stroke: #1f77b4; stroke-width: 1.5"/>
    <path d="M 326.748125 206.302952 
L 326.748125 205.049122 
" clip-path="url(#pee0d6d9540)" style="fill: none; stroke: #1f77b4; stroke-width: 1.5"/>
    <path d="M 327.76267 199.385644 
L 327.76267 197.839688 
" clip-path="url(#pee0d6d9540)" style="fill: none; stroke: #1f77b4; stroke-width: 1.5"/>
    <path d="M 328.777216 194.9501 
L 328.777216 193.24338 
" clip-path="url(#pee0d6d9540)" style="fill: none; stroke: #1f77b4; stroke-width: 1.5"/>
    <path d="M 329.791761 193.868525 
L 329.791761 192.124889 
" clip-path="url(#pee0d6d9540)" style="fill: none; stroke: #1f77b4; stroke-width: 1.5"/>
    <path d="M 330.806307 189.082534 
L 330.806307 187.18427 
" clip-path="url(#pee0d6d9540)" style="fill: none; stroke: #1f77b4; stroke-width: 1.5"/>
    <path d="M 331.820852 189.082534 
L 331.820852 187.18427 
" clip-path="url(#pee0d6d9540)" style="fill: none; stroke: #1f77b4; stroke-width: 1.5"/>
    <path d="M 332.835398 190.279634 
L 332.835398 188.418823 
" clip-path="url(#pee0d6d9540)" style="fill: none; stroke: #1f77b4; stroke-width: 1.5"/>
    <path d="M 333.849943 186.00266 
L 333.849943 184.011324 
" clip-path="url(#pee0d6d9540)" style="fill: none; stroke: #1f77b4; stroke-width: 1.5"/>
    <path d="M 334.864489 188.027644 
L 334.864489 186.09699 
" clip-path="url(#pee0d6d9540)" style="fill: none; stroke: #1f77b4; stroke-width: 1.5"/>
    <path d="M 335.879034 190.051644 
L 335.879034 188.183641 
" clip-path="url(#pee0d6d9540)" style="fill: none; stroke: #1f77b4; stroke-width: 1.5"/>
    <path d="M 336.89358 188.284264 
L 336.89358 186.361438 
" clip-path="url(#pee0d6d9540)" style="fill: none; stroke: #1f77b4; stroke-width: 1.5"/>
    <path d="M 337.908125 189.994644 
L 337.908125 188.124847 
" clip-path="url(#pee0d6d9540)" style="fill: none; stroke: #1f77b4; stroke-width: 1.5"/>
    <path d="M 338.92267 189.481608 
L 338.92267 187.595746 
" clip-path="url(#pee0d6d9540)" style="fill: none; stroke: #1f77b4; stroke-width: 1.5"/>
    <path d="M 339.937216 184.804354 
L 339.937216 182.777977 
" clip-path="url(#pee0d6d9540)" style="fill: none; stroke: #1f77b4; stroke-width: 1.5"/>
    <path d="M 340.951761 192.188487 
L 340.951761 190.389033 
" clip-path="url(#pee0d6d9540)" style="fill: none; stroke: #1f77b4; stroke-width: 1.5"/>
    <path d="M 341.966307 189.852141 
L 341.966307 187.977868 
" clip-path="url(#pee0d6d9540)" style="fill: none; stroke: #1f77b4; stroke-width: 1.5"/>
    <path d="M 342.980852 189.02552 
L 342.980852 187.125491 
" clip-path="url(#pee0d6d9540)" style="fill: none; stroke: #1f77b4; stroke-width: 1.5"/>
    <path d="M 343.995398 187.428804 
L 343.995398 185.480004 
" clip-path="url(#pee0d6d9540)" style="fill: none; stroke: #1f77b4; stroke-width: 1.5"/>
    <path d="M 345.009943 190.165641 
L 345.009943 188.30123 
" clip-path="url(#pee0d6d9540)" style="fill: none; stroke: #1f77b4; stroke-width: 1.5"/>
    <path d="M 346.024489 190.080143 
L 346.024489 188.213038 
" clip-path="url(#pee0d6d9540)" style="fill: none; stroke: #1f77b4; stroke-width: 1.5"/>
    <path d="M 347.039034 189.481608 
L 347.039034 187.595746 
" clip-path="url(#pee0d6d9540)" style="fill: none; stroke: #1f77b4; stroke-width: 1.5"/>
    <path d="M 348.05358 188.654909 
L 348.05358 186.743448 
" clip-path="url(#pee0d6d9540)" style="fill: none; stroke: #1f77b4; stroke-width: 1.5"/>
    <path d="M 349.068125 188.882981 
L 349.068125 186.978547 
" clip-path="url(#pee0d6d9540)" style="fill: none; stroke: #1f77b4; stroke-width: 1.5"/>
    <path d="M 350.08267 189.738135 
L 350.08267 187.860288 
" clip-path="url(#pee0d6d9540)" style="fill: none; stroke: #1f77b4; stroke-width: 1.5"/>
    <path d="M 351.097216 192.928951 
L 351.097216 191.153878 
" clip-path="url(#pee0d6d9540)" style="fill: none; stroke: #1f77b4; stroke-width: 1.5"/>
    <path d="M 352.111761 191.390883 
L 352.111761 189.565536 
" clip-path="url(#pee0d6d9540)" style="fill: none; stroke: #1f77b4; stroke-width: 1.5"/>
    <path d="M 353.126307 193.270647 
L 353.126307 191.506941 
" clip-path="url(#pee0d6d9540)" style="fill: none; stroke: #1f77b4; stroke-width: 1.5"/>
    <path d="M 354.140852 189.795138 
L 354.140852 187.919078 
" clip-path="url(#pee0d6d9540)" style="fill: none; stroke: #1f77b4; stroke-width: 1.5"/>
    <path d="M 355.155398 191.875165 
L 355.155398 190.065495 
" clip-path="url(#pee0d6d9540)" style="fill: none; stroke: #1f77b4; stroke-width: 1.5"/>
    <path d="M 356.169943 188.768947 
L 356.169943 186.860996 
" clip-path="url(#pee0d6d9540)" style="fill: none; stroke: #1f77b4; stroke-width: 1.5"/>
    <path d="M 357.184489 192.701134 
L 357.184489 190.918524 
" clip-path="url(#pee0d6d9540)" style="fill: none; stroke: #1f77b4; stroke-width: 1.5"/>
    <path d="M 358.199034 194.153188 
L 358.199034 192.419191 
" clip-path="url(#pee0d6d9540)" style="fill: none; stroke: #1f77b4; stroke-width: 1.5"/>
    <path d="M 359.21358 196.713885 
L 359.21358 195.069177 
" clip-path="url(#pee0d6d9540)" style="fill: none; stroke: #1f77b4; stroke-width: 1.5"/>
    <path d="M 360.228125 196.486365 
L 360.228125 194.833525 
" clip-path="url(#pee0d6d9540)" style="fill: none; stroke: #1f77b4; stroke-width: 1.5"/>
    <path d="M 361.24267 193.2137 
L 361.24267 191.448094 
" clip-path="url(#pee0d6d9540)" style="fill: none; stroke: #1f77b4; stroke-width: 1.5"/>
    <path d="M 362.257216 199.783293 
L 362.257216 198.25259 
" clip-path="url(#pee0d6d9540)" style="fill: none; stroke: #1f77b4; stroke-width: 1.5"/>
    <path d="M 363.271761 195.945927 
L 363.271761 194.273931 
" clip-path="url(#pee0d6d9540)" style="fill: none; stroke: #1f77b4; stroke-width: 1.5"/>
    <path d="M 364.286307 197.311028 
L 364.286307 195.68786 
" clip-path="url(#pee0d6d9540)" style="fill: none; stroke: #1f77b4; stroke-width: 1.5"/>
    <path d="M 365.300852 200.833846 
L 365.300852 199.344207 
" clip-path="url(#pee0d6d9540)" style="fill: none; stroke: #1f77b4; stroke-width: 1.5"/>
    <path d="M 366.315398 200.038884 
L 366.315398 198.518067 
" clip-path="url(#pee0d6d9540)" style="fill: none; stroke: #1f77b4; stroke-width: 1.5"/>
    <path d="M 367.329943 201.231204 
L 367.329943 199.7574 
" clip-path="url(#pee0d6d9540)" style="fill: none; stroke: #1f77b4; stroke-width: 1.5"/>
    <path d="M 368.344489 202.819744 
L 368.344489 201.411062 
" clip-path="url(#pee0d6d9540)" style="fill: none; stroke: #1f77b4; stroke-width: 1.5"/>
    <path d="M 369.359034 207.631278 
L 369.359034 206.441931 
" clip-path="url(#pee0d6d9540)" style="fill: none; stroke: #1f77b4; stroke-width: 1.5"/>
    <path d="M 370.37358 210.900988 
L 370.37358 209.888213 
" clip-path="url(#pee0d6d9540)" style="fill: none; stroke: #1f77b4; stroke-width: 1.5"/>
    <path d="M 371.388125 214.87597 
L 371.388125 214.134533 
" clip-path="url(#pee0d6d9540)" style="fill: none; stroke: #1f77b4; stroke-width: 1.5"/>
    <path d="M 372.40267 214.597622 
L 372.40267 213.833915 
" clip-path="url(#pee0d6d9540)" style="fill: none; stroke: #1f77b4; stroke-width: 1.5"/>
   </g>
   <g id="patch_3">
    <path d="M 53.328125 228.96 
L 53.328125 7.2 
" style="fill: none; stroke: #000000; stroke-width: 0.8; stroke-linejoin: miter; stroke-linecap: square"/>
   </g>
   <g id="patch_4">
    <path d="M 388.128125 228.96 
L 388.128125 7.2 
" style="fill: none; stroke: #000000; stroke-width: 0.8; stroke-linejoin: miter; stroke-linecap: square"/>
   </g>
   <g id="patch_5">
    <path d="M 53.328125 228.96 
L 388.128125 228.96 
" style="fill: none; stroke: #000000; stroke-width: 0.8; stroke-linejoin: miter; stroke-linecap: square"/>
   </g>
   <g id="patch_6">
    <path d="M 53.328125 7.2 
L 388.128125 7.2 
" style="fill: none; stroke: #000000; stroke-width: 0.8; stroke-linejoin: miter; stroke-linecap: square"/>
   </g>
  </g>
 </g>
 <defs>
  <clipPath id="pee0d6d9540">
   <rect x="53.328125" y="7.2" width="334.8" height="221.76"/>
  </clipPath>
 </defs>
</svg>
