<?xml version="1.0" encoding="UTF-8" standalone="no"?>
<!DOCTYPE svg PUBLIC "-//W3C//DTD SVG 1.1//EN"
 "http://www.w3.org/Graphics/SVG/1.1/DTD/svg11.dtd">
<!-- Generated by graphviz version 14.1.2 (20260126.1125)
 -->
<!-- Pages: 1 -->
<svg width="2926pt" height="476pt"
 viewBox="0.00 0.00 2926.00 476.00" xmlns="http://www.w3.org/2000/svg" xmlns:xlink="http://www.w3.org/1999/xlink">
<g id="graph0" class="graph" transform="scale(1 1) rotate(0) translate(4 471.62)">
<polygon fill="white" stroke="none" points="-4,4 -4,-471.62 2921.5,-471.62 2921.5,4 -4,4"/>
<g id="clust11" class="cluster">
<title>cluster_NeXusClass</title>
<polygon fill="#f0f0ff" stroke="#f0f0ff" points="652.88,-90.62 652.88,-198.62 825.12,-198.62 825.12,-90.62 652.88,-90.62"/>
<text xml:space="preserve" text-anchor="middle" x="739" y="-181.32" font-family="Times,serif" font-size="14.00">NeXusClass</text>
</g>
<g id="clust12" class="cluster">
<title>cluster_NeXusComponentLocationSpec</title>
<polygon fill="#f0f0ff" stroke="#f0f0ff" points="619.75,-206.62 619.75,-349.62 859.25,-349.62 859.25,-206.62 619.75,-206.62"/>
<text xml:space="preserve" text-anchor="middle" x="739.5" y="-332.32" font-family="Times,serif" font-size="14.00">NeXusComponentLocationSpec</text>
</g>
<g id="clust13" class="cluster">
<title>cluster_NeXusComponent</title>
<polygon fill="#f0f0ff" stroke="#f0f0ff" points="949,-199.62 949,-342.62 1134,-342.62 1134,-199.62 949,-199.62"/>
<text xml:space="preserve" text-anchor="middle" x="1041.5" y="-325.32" font-family="Times,serif" font-size="14.00">NeXusComponent</text>
</g>
<g id="clust18" class="cluster">
<title>cluster_NeXusTransformationChain</title>
<polygon fill="#f0f0ff" stroke="#f0f0ff" points="1198,-213.62 1198,-336.62 1412,-336.62 1412,-213.62 1198,-213.62"/>
<text xml:space="preserve" text-anchor="start" x="1206" y="-320.32" font-family="Times,serif" font-size="14.00">NeXusTransformationChain</text>
<text xml:space="preserve" text-anchor="start" x="1223.62" y="-309.18" font-family="Times,serif" font-size="11.00">via:</text>
<text xml:space="preserve" text-anchor="start" x="1243.88" y="-309.18" font-family="Times,serif" font-style="italic" font-size="11.00">get_transformation_chain</text>
</g>
<g id="clust19" class="cluster">
<title>cluster_NeXusTransformation</title>
<polygon fill="#f0f0ff" stroke="#f0f0ff" points="1578,-195.62 1578,-318.62 1763,-318.62 1763,-195.62 1578,-195.62"/>
<text xml:space="preserve" text-anchor="start" x="1592.12" y="-302.32" font-family="Times,serif" font-size="14.00">NeXusTransformation</text>
<text xml:space="preserve" text-anchor="start" x="1610.12" y="-291.18" font-family="Times,serif" font-size="11.00">via:</text>
<text xml:space="preserve" text-anchor="start" x="1630.38" y="-291.18" font-family="Times,serif" font-style="italic" font-size="11.00">to_transformation</text>
</g>
<g id="clust20" class="cluster">
<title>cluster_Position</title>
<polygon fill="#f0f0ff" stroke="#f0f0ff" points="1978.38,-211.62 1978.38,-308.62 2157.38,-308.62 2157.38,-211.62 1978.38,-211.62"/>
<text xml:space="preserve" text-anchor="start" x="2039.38" y="-292.32" font-family="Times,serif" font-size="14.00">Position</text>
<text xml:space="preserve" text-anchor="start" x="2008.62" y="-281.18" font-family="Times,serif" font-size="11.00">via:</text>
<text xml:space="preserve" text-anchor="start" x="2028.88" y="-281.18" font-family="Times,serif" font-style="italic" font-size="11.00">compute_position</text>
</g>
<g id="clust25" class="cluster">
<title>cluster_TransformationTimeFilter</title>
<polygon fill="#f0f0ff" stroke="#f0f0ff" points="1204.38,-344.62 1204.38,-459.62 1405.62,-459.62 1405.62,-344.62 1204.38,-344.62"/>
<text xml:space="preserve" text-anchor="middle" x="1305" y="-442.32" font-family="Times,serif" font-size="14.00">TransformationTimeFilter</text>
</g>
<!-- DetectorBankSizes -->
<g id="node1" class="node">
<title>DetectorBankSizes</title>
<polygon fill="none" stroke="black" points="1746.38,-120.25 1594.62,-120.25 1594.62,-95 1746.38,-95 1746.38,-120.25"/>
<text xml:space="preserve" text-anchor="start" x="1602.62" y="-102.95" font-family="Times,serif" font-size="14.00">DetectorBankSizes</text>
</g>
<!-- EmptyDetector[SampleRun] -->
<g id="node2" class="node">
<title>EmptyDetector[SampleRun]</title>
<polygon fill="none" stroke="black" points="2176.75,-166.12 1959,-166.12 1959,-133.12 2176.75,-133.12 2176.75,-166.12"/>
<text xml:space="preserve" text-anchor="start" x="1967" y="-149.82" font-family="Times,serif" font-size="14.00">EmptyDetector[SampleRun]</text>
<text xml:space="preserve" text-anchor="start" x="1991.38" y="-138.67" font-family="Times,serif" font-size="11.00">via:</text>
<text xml:space="preserve" text-anchor="start" x="2011.62" y="-138.67" font-family="Times,serif" font-style="italic" font-size="11.00">get_calibrated_detector</text>
</g>
<!-- DetectorBankSizes&#45;&gt;EmptyDetector[SampleRun] -->
<g id="edge8" class="edge">
<title>DetectorBankSizes:e&#45;&gt;EmptyDetector[SampleRun]:w</title>
<path fill="none" stroke="black" d="M1747.38,-107.62C1796.68,-107.62 1808.66,-114.91 1857,-124.62 1898.44,-132.95 1909.87,-146.94 1946.85,-149.29"/>
<polygon fill="black" stroke="black" points="1946.39,-152.77 1956.49,-149.58 1946.6,-145.78 1946.39,-152.77"/>
</g>
<!-- DetectorLtotal[SampleRun] -->
<g id="node3" class="node">
<title>DetectorLtotal[SampleRun]</title>
<polygon fill="none" stroke="black" points="2591,-247.12 2278.75,-247.12 2278.75,-214.12 2591,-214.12 2591,-247.12"/>
<text xml:space="preserve" text-anchor="start" x="2336.62" y="-230.82" font-family="Times,serif" font-size="14.00">DetectorLtotal[SampleRun]</text>
<text xml:space="preserve" text-anchor="start" x="2286.75" y="-219.67" font-family="Times,serif" font-size="11.00">via:</text>
<text xml:space="preserve" text-anchor="start" x="2307" y="-219.67" font-family="Times,serif" font-style="italic" font-size="11.00">detector_ltotal_from_straight_line_approximation</text>
</g>
<!-- EmptyDetector[SampleRun]&#45;&gt;DetectorLtotal[SampleRun] -->
<g id="edge1" class="edge">
<title>EmptyDetector[SampleRun]:e&#45;&gt;DetectorLtotal[SampleRun]:w</title>
<path fill="none" stroke="black" d="M2177.75,-149.62C2231.13,-149.62 2222.87,-219.34 2267.34,-229.42"/>
<polygon fill="black" stroke="black" points="2266.93,-232.89 2277.24,-230.47 2267.67,-225.93 2266.93,-232.89"/>
</g>
<!-- RawDetector[SampleRun] -->
<g id="node37" class="node">
<title>RawDetector[SampleRun]</title>
<polygon fill="none" stroke="black" points="2535.5,-148.12 2334.25,-148.12 2334.25,-115.12 2535.5,-115.12 2535.5,-148.12"/>
<text xml:space="preserve" text-anchor="start" x="2342.25" y="-131.82" font-family="Times,serif" font-size="14.00">RawDetector[SampleRun]</text>
<text xml:space="preserve" text-anchor="start" x="2356.88" y="-120.67" font-family="Times,serif" font-size="11.00">via:</text>
<text xml:space="preserve" text-anchor="start" x="2377.12" y="-120.67" font-family="Times,serif" font-style="italic" font-size="11.00">assemble_detector_data</text>
</g>
<!-- EmptyDetector[SampleRun]&#45;&gt;RawDetector[SampleRun] -->
<g id="edge42" class="edge">
<title>EmptyDetector[SampleRun]:e&#45;&gt;RawDetector[SampleRun]:w</title>
<path fill="none" stroke="black" d="M2177.75,-149.62C2243.38,-149.62 2261.65,-133.61 2321.92,-131.79"/>
<polygon fill="black" stroke="black" points="2321.79,-135.29 2331.74,-131.65 2321.69,-128.29 2321.79,-135.29"/>
</g>
<!-- WavelengthDetector[SampleRun] -->
<g id="node38" class="node">
<title>WavelengthDetector[SampleRun]</title>
<polygon fill="none" stroke="black" points="2917.5,-131.12 2663,-131.12 2663,-98.12 2917.5,-98.12 2917.5,-131.12"/>
<text xml:space="preserve" text-anchor="start" x="2671" y="-114.83" font-family="Times,serif" font-size="14.00">WavelengthDetector[SampleRun]</text>
<text xml:space="preserve" text-anchor="start" x="2706.62" y="-103.68" font-family="Times,serif" font-size="11.00">via:</text>
<text xml:space="preserve" text-anchor="start" x="2726.88" y="-103.68" font-family="Times,serif" font-style="italic" font-size="11.00">detector_wavelength_data</text>
</g>
<!-- DetectorLtotal[SampleRun]&#45;&gt;WavelengthDetector[SampleRun] -->
<g id="edge46" class="edge">
<title>DetectorLtotal[SampleRun]:e&#45;&gt;WavelengthDetector[SampleRun]:w</title>
<path fill="none" stroke="black" d="M2591,-230.62C2647.41,-230.62 2608.72,-130.36 2651.76,-116.26"/>
<polygon fill="black" stroke="black" points="2652.11,-119.75 2661.5,-114.84 2651.1,-112.82 2652.11,-119.75"/>
</g>
<!-- Position[NXsource, SampleRun] -->
<g id="node4" class="node">
<title>Position[NXsource, SampleRun]</title>
<polygon fill="none" stroke="black" points="2148.25,-241.75 1987.5,-241.75 1987.5,-219.5 2148.25,-219.5 2148.25,-241.75"/>
<text xml:space="preserve" text-anchor="start" x="1995.5" y="-226.35" font-family="Times,serif" font-size="12.00">[NXsource, SampleRun]</text>
</g>
<!-- Position[NXsource, SampleRun]&#45;&gt;DetectorLtotal[SampleRun] -->
<g id="edge2" class="edge">
<title>Position[NXsource, SampleRun]:e&#45;&gt;DetectorLtotal[SampleRun]:w</title>
<path fill="none" stroke="black" d="M2149.25,-230.62C2202.87,-230.62 2219.03,-230.62 2267.52,-230.62"/>
<polygon fill="black" stroke="black" points="2267.24,-234.13 2277.24,-230.63 2267.24,-227.13 2267.24,-234.13"/>
</g>
<!-- Position[NXsample, SampleRun] -->
<g id="node5" class="node">
<title>Position[NXsample, SampleRun]</title>
<polygon fill="none" stroke="black" points="2149.38,-267.75 1986.38,-267.75 1986.38,-245.5 2149.38,-245.5 2149.38,-267.75"/>
<text xml:space="preserve" text-anchor="start" x="1994.38" y="-252.35" font-family="Times,serif" font-size="12.00">[NXsample, SampleRun]</text>
</g>
<!-- Position[NXsample, SampleRun]&#45;&gt;DetectorLtotal[SampleRun] -->
<g id="edge3" class="edge">
<title>Position[NXsample, SampleRun]:e&#45;&gt;DetectorLtotal[SampleRun]:w</title>
<path fill="none" stroke="black" d="M2150.38,-256.62C2204.61,-256.62 2218.69,-234.06 2267.43,-230.97"/>
<polygon fill="black" stroke="black" points="2267.35,-234.48 2277.24,-230.67 2267.13,-227.48 2267.35,-234.48"/>
</g>
<!-- GravityVector -->
<g id="node6" class="node">
<title>GravityVector</title>
<polygon fill="none" stroke="black" points="2144.12,-350.12 1991.62,-350.12 1991.62,-317.12 2144.12,-317.12 2144.12,-350.12"/>
<text xml:space="preserve" text-anchor="start" x="2018.38" y="-333.82" font-family="Times,serif" font-size="14.00">GravityVector</text>
<text xml:space="preserve" text-anchor="start" x="1999.62" y="-322.68" font-family="Times,serif" font-size="11.00">via:</text>
<text xml:space="preserve" text-anchor="start" x="2019.88" y="-322.68" font-family="Times,serif" font-style="italic" font-size="11.00">gravity_vector_neg_y</text>
</g>
<!-- GravityVector&#45;&gt;DetectorLtotal[SampleRun] -->
<g id="edge4" class="edge">
<title>GravityVector:e&#45;&gt;DetectorLtotal[SampleRun]:w</title>
<path fill="none" stroke="black" d="M2145.12,-333.62C2174.52,-333.62 2182.52,-326.26 2206.75,-309.62 2242.4,-285.16 2233.45,-239.79 2267.37,-231.83"/>
<polygon fill="black" stroke="black" points="2267.67,-235.32 2277.24,-230.78 2266.93,-228.36 2267.67,-235.32"/>
</g>
<!-- DetectorPositionOffset[SampleRun] -->
<g id="node7" class="node">
<title>DetectorPositionOffset[SampleRun]</title>
<polygon fill="none" stroke="black" points="1805.62,-157.12 1535.38,-157.12 1535.38,-124.12 1805.62,-124.12 1805.62,-157.12"/>
<text xml:space="preserve" text-anchor="start" x="1543.38" y="-140.82" font-family="Times,serif" font-size="14.00">DetectorPositionOffset[SampleRun]</text>
<text xml:space="preserve" text-anchor="start" x="1583.88" y="-129.67" font-family="Times,serif" font-size="11.00">via:</text>
<text xml:space="preserve" text-anchor="start" x="1604.12" y="-129.67" font-family="Times,serif" font-style="italic" font-size="11.00">no_detector_position_offset</text>
</g>
<!-- DetectorPositionOffset[SampleRun]&#45;&gt;EmptyDetector[SampleRun] -->
<g id="edge7" class="edge">
<title>DetectorPositionOffset[SampleRun]:e&#45;&gt;EmptyDetector[SampleRun]:w</title>
<path fill="none" stroke="black" d="M1806.62,-140.62C1870.07,-140.62 1888.49,-148.6 1946.66,-149.54"/>
<polygon fill="black" stroke="black" points="1946.46,-153.03 1956.49,-149.61 1946.51,-146.03 1946.46,-153.03"/>
</g>
<!-- NeXusComponent[NXdetector, SampleRun] -->
<g id="node8" class="node">
<title>NeXusComponent[NXdetector, SampleRun]</title>
<polygon fill="none" stroke="black" points="1126,-239.12 957,-239.12 957,-208.12 1126,-208.12 1126,-239.12"/>
<text xml:space="preserve" text-anchor="start" x="965" y="-224.72" font-family="Times,serif" font-size="12.00">[NXdetector, SampleRun]</text>
<text xml:space="preserve" text-anchor="start" x="967.25" y="-213.67" font-family="Times,serif" font-size="11.00">via:</text>
<text xml:space="preserve" text-anchor="start" x="987.5" y="-213.67" font-family="Times,serif" font-style="italic" font-size="11.00">load_nexus_component</text>
</g>
<!-- NeXusComponent[NXdetector, SampleRun]&#45;&gt;EmptyDetector[SampleRun] -->
<g id="edge5" class="edge">
<title>NeXusComponent[NXdetector, SampleRun]:e&#45;&gt;EmptyDetector[SampleRun]:w</title>
<path fill="none" stroke="black" d="M1127,-223.62C1166.11,-223.62 1160.96,-184.18 1198,-171.62 1232.68,-159.87 1820.43,-159.46 1857,-157.62 1897.93,-155.57 1910.72,-150.63 1946.64,-149.76"/>
<polygon fill="black" stroke="black" points="1946.53,-153.26 1956.49,-149.64 1946.45,-146.26 1946.53,-153.26"/>
</g>
<!-- NeXusTransformationChain[NXdetector, SampleRun] -->
<g id="node28" class="node">
<title>NeXusTransformationChain[NXdetector, SampleRun]</title>
<polygon fill="none" stroke="black" points="1389,-243.75 1220,-243.75 1220,-221.5 1389,-221.5 1389,-243.75"/>
<text xml:space="preserve" text-anchor="start" x="1228" y="-228.35" font-family="Times,serif" font-size="12.00">[NXdetector, SampleRun]</text>
</g>
<!-- NeXusComponent[NXdetector, SampleRun]&#45;&gt;NeXusTransformationChain[NXdetector, SampleRun] -->
<g id="edge28" class="edge">
<title>NeXusComponent[NXdetector, SampleRun]:e&#45;&gt;NeXusTransformationChain[NXdetector, SampleRun]:w</title>
<path fill="none" stroke="black" d="M1127,-223.62C1164.07,-223.62 1175.7,-230.95 1207.8,-232.38"/>
<polygon fill="black" stroke="black" points="1207.41,-235.88 1217.49,-232.59 1207.56,-228.88 1207.41,-235.88"/>
</g>
<!-- NeXusTransformation[NXdetector, SampleRun] -->
<g id="node9" class="node">
<title>NeXusTransformation[NXdetector, SampleRun]</title>
<polygon fill="none" stroke="black" points="1755,-225.75 1586,-225.75 1586,-203.5 1755,-203.5 1755,-225.75"/>
<text xml:space="preserve" text-anchor="start" x="1594" y="-210.35" font-family="Times,serif" font-size="12.00">[NXdetector, SampleRun]</text>
</g>
<!-- NeXusTransformation[NXdetector, SampleRun]&#45;&gt;EmptyDetector[SampleRun] -->
<g id="edge6" class="edge">
<title>NeXusTransformation[NXdetector, SampleRun]:e&#45;&gt;EmptyDetector[SampleRun]:w</title>
<path fill="none" stroke="black" d="M1756,-214.62C1846.35,-214.62 1862.42,-154.97 1946.54,-149.96"/>
<polygon fill="black" stroke="black" points="1946.59,-153.46 1956.49,-149.67 1946.39,-146.46 1946.59,-153.46"/>
</g>
<!-- LookupTable -->
<g id="node10" class="node">
<title>LookupTable</title>
<polygon fill="none" stroke="black" points="452,-62.12 315.25,-62.12 315.25,-29.12 452,-29.12 452,-62.12"/>
<text xml:space="preserve" text-anchor="start" x="338.62" y="-45.83" font-family="Times,serif" font-size="14.00">LookupTable</text>
<text xml:space="preserve" text-anchor="start" x="323.25" y="-34.68" font-family="Times,serif" font-size="11.00">via:</text>
<text xml:space="preserve" text-anchor="start" x="343.5" y="-34.68" font-family="Times,serif" font-style="italic" font-size="11.00">load_lookup_table</text>
</g>
<!-- ErrorLimitedLookupTable[NXdetector] -->
<g id="node11" class="node">
<title>ErrorLimitedLookupTable[NXdetector]</title>
<polygon fill="none" stroke="black" points="885,-62.12 593,-62.12 593,-29.12 885,-29.12 885,-62.12"/>
<text xml:space="preserve" text-anchor="start" x="601" y="-45.83" font-family="Times,serif" font-size="14.00">ErrorLimitedLookupTable[NXdetector]</text>
<text xml:space="preserve" text-anchor="start" x="617.88" y="-34.68" font-family="Times,serif" font-size="11.00">via:</text>
<text xml:space="preserve" text-anchor="start" x="638.12" y="-34.68" font-family="Times,serif" font-style="italic" font-size="11.00">mask_large_uncertainty_in_lut_detector</text>
</g>
<!-- LookupTable&#45;&gt;ErrorLimitedLookupTable[NXdetector] -->
<g id="edge9" class="edge">
<title>LookupTable:e&#45;&gt;ErrorLimitedLookupTable[NXdetector]:w</title>
<path fill="none" stroke="black" d="M453,-45.62C511.21,-45.62 528.58,-45.62 581.53,-45.62"/>
<polygon fill="black" stroke="black" points="581.49,-49.13 591.49,-45.63 581.49,-42.13 581.49,-49.13"/>
</g>
<!-- ErrorLimitedLookupTable[NXdetector]&#45;&gt;WavelengthDetector[SampleRun] -->
<g id="edge45" class="edge">
<title>ErrorLimitedLookupTable[NXdetector]:e&#45;&gt;WavelengthDetector[SampleRun]:w</title>
<path fill="none" stroke="black" d="M885,-45.62C1071.01,-45.63 1117.49,-50.63 1303.5,-50.62 1303.5,-50.62 1303.5,-50.62 2068.88,-50.62 2301.39,-50.63 2364.86,-29.52 2591,-83.62 2620.78,-90.75 2626.92,-109.3 2651.62,-113.68"/>
<polygon fill="black" stroke="black" points="2651.24,-117.16 2661.49,-114.5 2651.81,-110.19 2651.24,-117.16"/>
</g>
<!-- LookupTableRelativeErrorThreshold -->
<g id="node12" class="node">
<title>LookupTableRelativeErrorThreshold</title>
<polygon fill="none" stroke="black" points="521,-25.25 246.25,-25.25 246.25,0 521,0 521,-25.25"/>
<text xml:space="preserve" text-anchor="start" x="254.25" y="-7.95" font-family="Times,serif" font-size="14.00">LookupTableRelativeErrorThreshold</text>
</g>
<!-- LookupTableRelativeErrorThreshold&#45;&gt;ErrorLimitedLookupTable[NXdetector] -->
<g id="edge10" class="edge">
<title>LookupTableRelativeErrorThreshold:e&#45;&gt;ErrorLimitedLookupTable[NXdetector]:w</title>
<path fill="none" stroke="black" d="M521,-12.62C551.94,-12.62 556.92,-38.12 581.57,-44.29"/>
<polygon fill="black" stroke="black" points="581.16,-47.77 591.5,-45.45 581.97,-40.81 581.16,-47.77"/>
</g>
<!-- NeXusName[NXdetector] -->
<g id="node13" class="node">
<title>NeXusName[NXdetector]</title>
<polygon fill="none" stroke="black" points="482,-91.25 285.25,-91.25 285.25,-66 482,-66 482,-91.25"/>
<text xml:space="preserve" text-anchor="start" x="293.25" y="-73.95" font-family="Times,serif" font-size="14.00">NeXusName[NXdetector]</text>
</g>
<!-- NeXusName[NXdetector]&#45;&gt;ErrorLimitedLookupTable[NXdetector] -->
<g id="edge11" class="edge">
<title>NeXusName[NXdetector]:e&#45;&gt;ErrorLimitedLookupTable[NXdetector]:w</title>
<path fill="none" stroke="black" d="M483,-78.62C529.95,-78.62 540.41,-50.7 581.52,-46.23"/>
<polygon fill="black" stroke="black" points="581.69,-49.72 591.49,-45.7 581.32,-42.73 581.69,-49.72"/>
</g>
<!-- NeXusComponentLocationSpec[NXdetector, SampleRun] -->
<g id="node19" class="node">
<title>NeXusComponentLocationSpec[NXdetector, SampleRun]</title>
<polygon fill="none" stroke="black" points="830.25,-246.12 647.75,-246.12 647.75,-215.12 830.25,-215.12 830.25,-246.12"/>
<text xml:space="preserve" text-anchor="start" x="662.5" y="-231.72" font-family="Times,serif" font-size="12.00">[NXdetector, SampleRun]</text>
<text xml:space="preserve" text-anchor="start" x="655.75" y="-220.67" font-family="Times,serif" font-size="11.00">via:</text>
<text xml:space="preserve" text-anchor="start" x="676" y="-220.67" font-family="Times,serif" font-style="italic" font-size="11.00">component_spec_by_name</text>
</g>
<!-- NeXusName[NXdetector]&#45;&gt;NeXusComponentLocationSpec[NXdetector, SampleRun] -->
<g id="edge14" class="edge">
<title>NeXusName[NXdetector]:e&#45;&gt;NeXusComponentLocationSpec[NXdetector, SampleRun]:w</title>
<path fill="none" stroke="black" d="M483,-78.62C578.32,-78.62 550.03,-218.7 635.45,-229.91"/>
<polygon fill="black" stroke="black" points="635.04,-233.39 645.24,-230.53 635.48,-226.41 635.04,-233.39"/>
</g>
<!-- NeXusDataLocationSpec[NXdetector, SampleRun] -->
<g id="node24" class="node">
<title>NeXusDataLocationSpec[NXdetector, SampleRun]</title>
<polygon fill="none" stroke="black" points="1857,-91.12 1484,-91.12 1484,-58.12 1857,-58.12 1857,-91.12"/>
<text xml:space="preserve" text-anchor="start" x="1492" y="-74.83" font-family="Times,serif" font-size="14.00">NeXusDataLocationSpec[NXdetector, SampleRun]</text>
<text xml:space="preserve" text-anchor="start" x="1621" y="-63.68" font-family="Times,serif" font-size="11.00">via:</text>
<text xml:space="preserve" text-anchor="start" x="1641.25" y="-63.68" font-family="Times,serif" font-style="italic" font-size="11.00">data_by_name</text>
</g>
<!-- NeXusName[NXdetector]&#45;&gt;NeXusDataLocationSpec[NXdetector, SampleRun] -->
<g id="edge23" class="edge">
<title>NeXusName[NXdetector]:e&#45;&gt;NeXusDataLocationSpec[NXdetector, SampleRun]:w</title>
<path fill="none" stroke="black" d="M483,-78.62C531.9,-78.62 544.11,-77.12 593,-76.62 985.21,-72.62 1086.09,-74.59 1472.77,-74.62"/>
<polygon fill="black" stroke="black" points="1472.49,-78.12 1482.49,-74.62 1472.49,-71.12 1472.49,-78.12"/>
</g>
<!-- Filename[SampleRun] -->
<g id="node14" class="node">
<title>Filename[SampleRun]</title>
<polygon fill="none" stroke="black" points="174.25,-245.25 0,-245.25 0,-220 174.25,-220 174.25,-245.25"/>
<text xml:space="preserve" text-anchor="start" x="8" y="-227.95" font-family="Times,serif" font-size="14.00">Filename[SampleRun]</text>
</g>
<!-- NeXusFileSpec[SampleRun] -->
<g id="node18" class="node">
<title>NeXusFileSpec[SampleRun]</title>
<polygon fill="none" stroke="black" points="491.75,-264.12 275.5,-264.12 275.5,-231.12 491.75,-231.12 491.75,-264.12"/>
<text xml:space="preserve" text-anchor="start" x="283.5" y="-247.82" font-family="Times,serif" font-size="14.00">NeXusFileSpec[SampleRun]</text>
<text xml:space="preserve" text-anchor="start" x="314.25" y="-236.67" font-family="Times,serif" font-size="11.00">via:</text>
<text xml:space="preserve" text-anchor="start" x="334.5" y="-236.67" font-family="Times,serif" font-style="italic" font-size="11.00">file_path_to_file_spec</text>
</g>
<!-- Filename[SampleRun]&#45;&gt;NeXusFileSpec[SampleRun] -->
<g id="edge26" class="edge">
<title>Filename[SampleRun]:e&#45;&gt;NeXusFileSpec[SampleRun]:w</title>
<path fill="none" stroke="black" d="M174.25,-232.62C215.25,-232.62 227.34,-245.05 263.15,-247.28"/>
<polygon fill="black" stroke="black" points="262.89,-250.78 272.99,-247.58 263.1,-243.78 262.89,-250.78"/>
</g>
<!-- LookupTableFilename -->
<g id="node15" class="node">
<title>LookupTableFilename</title>
<polygon fill="none" stroke="black" points="173.12,-58.25 1.12,-58.25 1.12,-33 173.12,-33 173.12,-58.25"/>
<text xml:space="preserve" text-anchor="start" x="9.12" y="-40.95" font-family="Times,serif" font-size="14.00">LookupTableFilename</text>
</g>
<!-- LookupTableFilename&#45;&gt;LookupTable -->
<g id="edge12" class="edge">
<title>LookupTableFilename:e&#45;&gt;LookupTable:w</title>
<path fill="none" stroke="black" d="M174.12,-45.62C232.39,-45.62 249.77,-45.62 302.77,-45.62"/>
<polygon fill="black" stroke="black" points="302.74,-49.13 312.74,-45.63 302.74,-42.13 302.74,-49.13"/>
</g>
<!-- NeXusClass[NXdetector] -->
<g id="node16" class="node">
<title>NeXusClass[NXdetector]</title>
<polygon fill="none" stroke="black" points="817.12,-130.12 660.88,-130.12 660.88,-99.12 817.12,-99.12 817.12,-130.12"/>
<text xml:space="preserve" text-anchor="start" x="700" y="-115.72" font-family="Times,serif" font-size="12.00">[NXdetector]</text>
<text xml:space="preserve" text-anchor="start" x="668.88" y="-104.67" font-family="Times,serif" font-size="11.00">via:</text>
<text xml:space="preserve" text-anchor="start" x="689.12" y="-104.67" font-family="Times,serif" font-style="italic" font-size="11.00">nx_class_for_detector</text>
</g>
<!-- NeXusClass[NXdetector]&#45;&gt;NeXusComponent[NXdetector, SampleRun] -->
<g id="edge18" class="edge">
<title>NeXusClass[NXdetector]:e&#45;&gt;NeXusComponent[NXdetector, SampleRun]:w</title>
<path fill="none" stroke="black" d="M818.12,-114.62C849.15,-114.62 859.29,-117.26 885,-134.62 923.49,-160.62 908.51,-213.89 944.93,-222.45"/>
<polygon fill="black" stroke="black" points="944.18,-225.89 954.49,-223.47 944.92,-218.93 944.18,-225.89"/>
</g>
<!-- NeXusClass[NXsource] -->
<g id="node17" class="node">
<title>NeXusClass[NXsource]</title>
<polygon fill="none" stroke="black" points="812.25,-165.12 665.75,-165.12 665.75,-134.12 812.25,-134.12 812.25,-165.12"/>
<text xml:space="preserve" text-anchor="start" x="704.88" y="-150.72" font-family="Times,serif" font-size="12.00">[NXsource]</text>
<text xml:space="preserve" text-anchor="start" x="673.75" y="-139.67" font-family="Times,serif" font-size="11.00">via:</text>
<text xml:space="preserve" text-anchor="start" x="694" y="-139.67" font-family="Times,serif" font-style="italic" font-size="11.00">nx_class_for_source</text>
</g>
<!-- NeXusComponent[NXsource, SampleRun] -->
<g id="node23" class="node">
<title>NeXusComponent[NXsource, SampleRun]</title>
<polygon fill="none" stroke="black" points="1123.75,-274.12 959.25,-274.12 959.25,-243.12 1123.75,-243.12 1123.75,-274.12"/>
<text xml:space="preserve" text-anchor="start" x="969.12" y="-259.73" font-family="Times,serif" font-size="12.00">[NXsource, SampleRun]</text>
<text xml:space="preserve" text-anchor="start" x="967.25" y="-248.68" font-family="Times,serif" font-size="11.00">via:</text>
<text xml:space="preserve" text-anchor="start" x="987.5" y="-248.68" font-family="Times,serif" font-style="italic" font-size="11.00">load_nexus_component</text>
</g>
<!-- NeXusClass[NXsource]&#45;&gt;NeXusComponent[NXsource, SampleRun] -->
<g id="edge21" class="edge">
<title>NeXusClass[NXsource]:e&#45;&gt;NeXusComponent[NXsource, SampleRun]:w</title>
<path fill="none" stroke="black" d="M813.25,-149.62C889.94,-149.62 878.98,-248.24 947.11,-257.87"/>
<polygon fill="black" stroke="black" points="946.53,-261.34 956.74,-258.52 947,-254.36 946.53,-261.34"/>
</g>
<!-- NeXusFileSpec[SampleRun]&#45;&gt;NeXusComponentLocationSpec[NXdetector, SampleRun] -->
<g id="edge13" class="edge">
<title>NeXusFileSpec[SampleRun]:e&#45;&gt;NeXusComponentLocationSpec[NXdetector, SampleRun]:w</title>
<path fill="none" stroke="black" d="M492.75,-247.62C557.71,-247.62 575.88,-232.5 635.54,-230.78"/>
<polygon fill="black" stroke="black" points="635.29,-234.29 645.24,-230.65 635.19,-227.29 635.29,-234.29"/>
</g>
<!-- NeXusComponentLocationSpec[NXsample, SampleRun] -->
<g id="node20" class="node">
<title>NeXusComponentLocationSpec[NXsample, SampleRun]</title>
<polygon fill="none" stroke="black" points="824.62,-316.12 653.38,-316.12 653.38,-285.12 824.62,-285.12 824.62,-316.12"/>
<text xml:space="preserve" text-anchor="start" x="665.5" y="-301.73" font-family="Times,serif" font-size="12.00">[NXsample, SampleRun]</text>
<text xml:space="preserve" text-anchor="start" x="661.38" y="-290.68" font-family="Times,serif" font-size="11.00">via:</text>
<text xml:space="preserve" text-anchor="start" x="681.62" y="-290.68" font-family="Times,serif" font-style="italic" font-size="11.00">unique_component_spec</text>
</g>
<!-- NeXusFileSpec[SampleRun]&#45;&gt;NeXusComponentLocationSpec[NXsample, SampleRun] -->
<g id="edge15" class="edge">
<title>NeXusFileSpec[SampleRun]:e&#45;&gt;NeXusComponentLocationSpec[NXsample, SampleRun]:w</title>
<path fill="none" stroke="black" d="M492.75,-247.62C563.56,-247.62 576.38,-295.18 641.07,-300.2"/>
<polygon fill="black" stroke="black" points="640.74,-303.69 650.86,-300.57 641,-296.69 640.74,-303.69"/>
</g>
<!-- NeXusComponentLocationSpec[NXsource, SampleRun] -->
<g id="node21" class="node">
<title>NeXusComponentLocationSpec[NXsource, SampleRun]</title>
<polygon fill="none" stroke="black" points="824.62,-281.12 653.38,-281.12 653.38,-250.12 824.62,-250.12 824.62,-281.12"/>
<text xml:space="preserve" text-anchor="start" x="666.62" y="-266.73" font-family="Times,serif" font-size="12.00">[NXsource, SampleRun]</text>
<text xml:space="preserve" text-anchor="start" x="661.38" y="-255.68" font-family="Times,serif" font-size="11.00">via:</text>
<text xml:space="preserve" text-anchor="start" x="681.62" y="-255.68" font-family="Times,serif" font-style="italic" font-size="11.00">unique_component_spec</text>
</g>
<!-- NeXusFileSpec[SampleRun]&#45;&gt;NeXusComponentLocationSpec[NXsource, SampleRun] -->
<g id="edge16" class="edge">
<title>NeXusFileSpec[SampleRun]:e&#45;&gt;NeXusComponentLocationSpec[NXsource, SampleRun]:w</title>
<path fill="none" stroke="black" d="M492.75,-247.62C560.24,-247.62 578.98,-263.71 641.13,-265.47"/>
<polygon fill="black" stroke="black" points="640.81,-268.97 650.86,-265.6 640.91,-261.97 640.81,-268.97"/>
</g>
<!-- NeXusFileSpec[SampleRun]&#45;&gt;NeXusDataLocationSpec[NXdetector, SampleRun] -->
<g id="edge22" class="edge">
<title>NeXusFileSpec[SampleRun]:e&#45;&gt;NeXusDataLocationSpec[NXdetector, SampleRun]:w</title>
<path fill="none" stroke="black" d="M492.75,-247.62C575.91,-247.62 520.46,-130.31 593,-89.62 634.2,-66.52 1362.8,-73.85 1472.6,-74.57"/>
<polygon fill="black" stroke="black" points="1472.47,-78.07 1482.49,-74.62 1472.5,-71.07 1472.47,-78.07"/>
</g>
<!-- NeXusComponentLocationSpec[NXdetector, SampleRun]&#45;&gt;NeXusComponent[NXdetector, SampleRun] -->
<g id="edge17" class="edge">
<title>NeXusComponentLocationSpec[NXdetector, SampleRun]:e&#45;&gt;NeXusComponent[NXdetector, SampleRun]:w</title>
<path fill="none" stroke="black" d="M831.25,-230.62C882.77,-230.62 898.27,-224.6 944.58,-223.73"/>
<polygon fill="black" stroke="black" points="944.52,-227.23 954.49,-223.64 944.45,-220.23 944.52,-227.23"/>
</g>
<!-- NeXusComponent[NXsample, SampleRun] -->
<g id="node22" class="node">
<title>NeXusComponent[NXsample, SampleRun]</title>
<polygon fill="none" stroke="black" points="1123,-309.12 960,-309.12 960,-278.12 1123,-278.12 1123,-309.12"/>
<text xml:space="preserve" text-anchor="start" x="968" y="-294.73" font-family="Times,serif" font-size="12.00">[NXsample, SampleRun]</text>
<text xml:space="preserve" text-anchor="start" x="977.75" y="-283.68" font-family="Times,serif" font-size="11.00">via:</text>
<text xml:space="preserve" text-anchor="start" x="998" y="-283.68" font-family="Times,serif" font-style="italic" font-size="11.00">load_nexus_sample</text>
</g>
<!-- NeXusComponentLocationSpec[NXsample, SampleRun]&#45;&gt;NeXusComponent[NXsample, SampleRun] -->
<g id="edge19" class="edge">
<title>NeXusComponentLocationSpec[NXsample, SampleRun]:e&#45;&gt;NeXusComponent[NXsample, SampleRun]:w</title>
<path fill="none" stroke="black" d="M825.62,-300.62C881.04,-300.62 897.5,-294.52 947.74,-293.71"/>
<polygon fill="black" stroke="black" points="947.51,-297.22 957.49,-293.64 947.46,-290.22 947.51,-297.22"/>
</g>
<!-- NeXusComponentLocationSpec[NXsource, SampleRun]&#45;&gt;NeXusComponent[NXsource, SampleRun] -->
<g id="edge20" class="edge">
<title>NeXusComponentLocationSpec[NXsource, SampleRun]:e&#45;&gt;NeXusComponent[NXsource, SampleRun]:w</title>
<path fill="none" stroke="black" d="M825.62,-265.62C880.62,-265.62 897.02,-259.55 946.74,-258.72"/>
<polygon fill="black" stroke="black" points="946.77,-262.22 956.74,-258.64 946.71,-255.22 946.77,-262.22"/>
</g>
<!-- NeXusTransformationChain[NXsample, SampleRun] -->
<g id="node29" class="node">
<title>NeXusTransformationChain[NXsample, SampleRun]</title>
<polygon fill="none" stroke="black" points="1386,-295.75 1223,-295.75 1223,-273.5 1386,-273.5 1386,-295.75"/>
<text xml:space="preserve" text-anchor="start" x="1231" y="-280.35" font-family="Times,serif" font-size="12.00">[NXsample, SampleRun]</text>
</g>
<!-- NeXusComponent[NXsample, SampleRun]&#45;&gt;NeXusTransformationChain[NXsample, SampleRun] -->
<g id="edge29" class="edge">
<title>NeXusComponent[NXsample, SampleRun]:e&#45;&gt;NeXusTransformationChain[NXsample, SampleRun]:w</title>
<path fill="none" stroke="black" d="M1124,-293.62C1163.64,-293.62 1176,-286.23 1210.52,-284.85"/>
<polygon fill="black" stroke="black" points="1210.56,-288.35 1220.49,-284.65 1210.42,-281.35 1210.56,-288.35"/>
</g>
<!-- NeXusTransformationChain[NXsource, SampleRun] -->
<g id="node30" class="node">
<title>NeXusTransformationChain[NXsource, SampleRun]</title>
<polygon fill="none" stroke="black" points="1384.88,-269.75 1224.12,-269.75 1224.12,-247.5 1384.88,-247.5 1384.88,-269.75"/>
<text xml:space="preserve" text-anchor="start" x="1232.12" y="-254.35" font-family="Times,serif" font-size="12.00">[NXsource, SampleRun]</text>
</g>
<!-- NeXusComponent[NXsource, SampleRun]&#45;&gt;NeXusTransformationChain[NXsource, SampleRun] -->
<g id="edge30" class="edge">
<title>NeXusComponent[NXsource, SampleRun]:e&#45;&gt;NeXusTransformationChain[NXsource, SampleRun]:w</title>
<path fill="none" stroke="black" d="M1124.75,-258.62C1164.37,-258.62 1177.07,-258.62 1211.64,-258.62"/>
<polygon fill="black" stroke="black" points="1211.61,-262.13 1221.61,-258.63 1211.61,-255.13 1211.61,-262.13"/>
</g>
<!-- NeXusData[NXdetector, SampleRun] -->
<g id="node26" class="node">
<title>NeXusData[NXdetector, SampleRun]</title>
<polygon fill="none" stroke="black" points="2206.75,-115.12 1929,-115.12 1929,-82.12 2206.75,-82.12 2206.75,-115.12"/>
<text xml:space="preserve" text-anchor="start" x="1937" y="-98.83" font-family="Times,serif" font-size="14.00">NeXusData[NXdetector, SampleRun]</text>
<text xml:space="preserve" text-anchor="start" x="2012" y="-87.68" font-family="Times,serif" font-size="11.00">via:</text>
<text xml:space="preserve" text-anchor="start" x="2032.25" y="-87.68" font-family="Times,serif" font-style="italic" font-size="11.00">load_nexus_data</text>
</g>
<!-- NeXusDataLocationSpec[NXdetector, SampleRun]&#45;&gt;NeXusData[NXdetector, SampleRun] -->
<g id="edge25" class="edge">
<title>NeXusDataLocationSpec[NXdetector, SampleRun]:e&#45;&gt;NeXusData[NXdetector, SampleRun]:w</title>
<path fill="none" stroke="black" d="M1857,-74.62C1886.51,-74.62 1893.68,-93 1917.61,-97.59"/>
<polygon fill="black" stroke="black" points="1917.22,-101.07 1927.49,-98.49 1917.85,-94.1 1917.22,-101.07"/>
</g>
<!-- TimeInterval[SampleRun] -->
<g id="node25" class="node">
<title>TimeInterval[SampleRun]</title>
<polygon fill="none" stroke="black" points="1404.38,-205.12 1204.62,-205.12 1204.62,-172.12 1404.38,-172.12 1404.38,-205.12"/>
<text xml:space="preserve" text-anchor="start" x="1212.62" y="-188.82" font-family="Times,serif" font-size="14.00">TimeInterval[SampleRun]</text>
<text xml:space="preserve" text-anchor="start" x="1245.62" y="-177.67" font-family="Times,serif" font-size="11.00">via:</text>
<text xml:space="preserve" text-anchor="start" x="1265.88" y="-177.67" font-family="Times,serif" font-style="italic" font-size="11.00">full_time_interval</text>
</g>
<!-- TimeInterval[SampleRun]&#45;&gt;NeXusTransformation[NXdetector, SampleRun] -->
<g id="edge32" class="edge">
<title>TimeInterval[SampleRun]:e&#45;&gt;NeXusTransformation[NXdetector, SampleRun]:w</title>
<path fill="none" stroke="black" d="M1405.38,-188.62C1482.1,-188.62 1502.4,-212.15 1573.62,-214.45"/>
<polygon fill="black" stroke="black" points="1573.43,-217.94 1583.49,-214.6 1573.54,-210.94 1573.43,-217.94"/>
</g>
<!-- TimeInterval[SampleRun]&#45;&gt;NeXusDataLocationSpec[NXdetector, SampleRun] -->
<g id="edge24" class="edge">
<title>TimeInterval[SampleRun]:e&#45;&gt;NeXusDataLocationSpec[NXdetector, SampleRun]:w</title>
<path fill="none" stroke="black" d="M1405.38,-188.62C1462.72,-188.62 1428.04,-89.68 1472.8,-76.15"/>
<polygon fill="black" stroke="black" points="1473.06,-79.65 1482.5,-74.83 1472.12,-72.71 1473.06,-79.65"/>
</g>
<!-- NeXusTransformation[NXsample, SampleRun] -->
<g id="node32" class="node">
<title>NeXusTransformation[NXsample, SampleRun]</title>
<polygon fill="none" stroke="black" points="1752,-277.75 1589,-277.75 1589,-255.5 1752,-255.5 1752,-277.75"/>
<text xml:space="preserve" text-anchor="start" x="1597" y="-262.35" font-family="Times,serif" font-size="12.00">[NXsample, SampleRun]</text>
</g>
<!-- TimeInterval[SampleRun]&#45;&gt;NeXusTransformation[NXsample, SampleRun] -->
<g id="edge35" class="edge">
<title>TimeInterval[SampleRun]:e&#45;&gt;NeXusTransformation[NXsample, SampleRun]:w</title>
<path fill="none" stroke="black" d="M1405.38,-188.62C1450.15,-188.62 1442.92,-233.8 1484,-251.62 1523.16,-268.62 1538.6,-267.08 1576.64,-266.69"/>
<polygon fill="black" stroke="black" points="1576.51,-270.19 1586.49,-266.63 1576.47,-263.19 1576.51,-270.19"/>
</g>
<!-- NeXusTransformation[NXsource, SampleRun] -->
<g id="node34" class="node">
<title>NeXusTransformation[NXsource, SampleRun]</title>
<polygon fill="none" stroke="black" points="1750.88,-251.75 1590.12,-251.75 1590.12,-229.5 1750.88,-229.5 1750.88,-251.75"/>
<text xml:space="preserve" text-anchor="start" x="1598.12" y="-236.35" font-family="Times,serif" font-size="12.00">[NXsource, SampleRun]</text>
</g>
<!-- TimeInterval[SampleRun]&#45;&gt;NeXusTransformation[NXsource, SampleRun] -->
<g id="edge38" class="edge">
<title>TimeInterval[SampleRun]:e&#45;&gt;NeXusTransformation[NXsource, SampleRun]:w</title>
<path fill="none" stroke="black" d="M1405.38,-188.62C1444,-188.62 1447,-214.55 1484,-225.62 1525.33,-237.99 1539.5,-240.28 1577.68,-240.59"/>
<polygon fill="black" stroke="black" points="1577.6,-244.09 1587.61,-240.62 1577.62,-237.09 1577.6,-244.09"/>
</g>
<!-- NeXusData[NXdetector, SampleRun]&#45;&gt;RawDetector[SampleRun] -->
<g id="edge43" class="edge">
<title>NeXusData[NXdetector, SampleRun]:e&#45;&gt;RawDetector[SampleRun]:w</title>
<path fill="none" stroke="black" d="M2206.75,-98.62C2260.88,-98.62 2273.52,-127.27 2321.97,-131.18"/>
<polygon fill="black" stroke="black" points="2321.61,-134.67 2331.74,-131.57 2321.88,-127.68 2321.61,-134.67"/>
</g>
<!-- PreopenNeXusFile -->
<g id="node27" class="node">
<title>PreopenNeXusFile</title>
<polygon fill="none" stroke="black" points="161.5,-274.25 12.75,-274.25 12.75,-249 161.5,-249 161.5,-274.25"/>
<text xml:space="preserve" text-anchor="start" x="20.75" y="-256.95" font-family="Times,serif" font-size="14.00">PreopenNeXusFile</text>
</g>
<!-- PreopenNeXusFile&#45;&gt;NeXusFileSpec[SampleRun] -->
<g id="edge27" class="edge">
<title>PreopenNeXusFile:e&#45;&gt;NeXusFileSpec[SampleRun]:w</title>
<path fill="none" stroke="black" d="M162.5,-261.62C208.65,-261.62 222.22,-249.78 263.15,-247.88"/>
<polygon fill="black" stroke="black" points="263.07,-251.38 272.99,-247.66 262.91,-244.38 263.07,-251.38"/>
</g>
<!-- NeXusTransformationChain[NXdetector, SampleRun]&#45;&gt;NeXusTransformation[NXdetector, SampleRun] -->
<g id="edge31" class="edge">
<title>NeXusTransformationChain[NXdetector, SampleRun]:e&#45;&gt;NeXusTransformation[NXdetector, SampleRun]:w</title>
<path fill="none" stroke="black" d="M1390,-232.62C1473.13,-232.62 1495.95,-216.21 1573.66,-214.73"/>
<polygon fill="black" stroke="black" points="1573.52,-218.23 1583.49,-214.64 1573.45,-211.23 1573.52,-218.23"/>
</g>
<!-- NeXusTransformationChain[NXsample, SampleRun]&#45;&gt;NeXusTransformation[NXsample, SampleRun] -->
<g id="edge34" class="edge">
<title>NeXusTransformationChain[NXsample, SampleRun]:e&#45;&gt;NeXusTransformation[NXsample, SampleRun]:w</title>
<path fill="none" stroke="black" d="M1387,-284.62C1472.84,-284.62 1496.33,-268.14 1576.8,-266.72"/>
<polygon fill="black" stroke="black" points="1576.52,-270.22 1586.49,-266.64 1576.46,-263.22 1576.52,-270.22"/>
</g>
<!-- NeXusTransformationChain[NXsource, SampleRun]&#45;&gt;NeXusTransformation[NXsource, SampleRun] -->
<g id="edge37" class="edge">
<title>NeXusTransformationChain[NXsource, SampleRun]:e&#45;&gt;NeXusTransformation[NXsource, SampleRun]:w</title>
<path fill="none" stroke="black" d="M1385.88,-258.62C1472.67,-258.62 1496.43,-242.14 1577.81,-240.72"/>
<polygon fill="black" stroke="black" points="1577.64,-244.22 1587.61,-240.64 1577.58,-237.22 1577.64,-244.22"/>
</g>
<!-- TransformationTimeFilter[NXdetector, SampleRun] -->
<g id="node31" class="node">
<title>TransformationTimeFilter[NXdetector, SampleRun]</title>
<polygon fill="none" stroke="black" points="1389,-374.75 1220,-374.75 1220,-352.5 1389,-352.5 1389,-374.75"/>
<text xml:space="preserve" text-anchor="start" x="1228" y="-359.35" font-family="Times,serif" font-size="12.00">[NXdetector, SampleRun]</text>
</g>
<!-- TransformationTimeFilter[NXdetector, SampleRun]&#45;&gt;NeXusTransformation[NXdetector, SampleRun] -->
<g id="edge33" class="edge">
<title>TransformationTimeFilter[NXdetector, SampleRun]:e&#45;&gt;NeXusTransformation[NXdetector, SampleRun]:w</title>
<path fill="none" stroke="black" d="M1390,-363.62C1462.75,-363.62 1422.56,-268.58 1484,-229.62 1519.03,-207.41 1536.49,-213.27 1573.89,-214.45"/>
<polygon fill="black" stroke="black" points="1573.43,-217.94 1583.49,-214.6 1573.54,-210.94 1573.43,-217.94"/>
</g>
<!-- NeXusTransformation[NXsample, SampleRun]&#45;&gt;Position[NXsample, SampleRun] -->
<g id="edge40" class="edge">
<title>NeXusTransformation[NXsample, SampleRun]:e&#45;&gt;Position[NXsample, SampleRun]:w</title>
<path fill="none" stroke="black" d="M1753,-266.62C1852.44,-266.62 1879.94,-257.37 1973.89,-256.67"/>
<polygon fill="black" stroke="black" points="1973.87,-260.17 1983.86,-256.63 1973.85,-253.17 1973.87,-260.17"/>
</g>
<!-- TransformationTimeFilter[NXsample, SampleRun] -->
<g id="node33" class="node">
<title>TransformationTimeFilter[NXsample, SampleRun]</title>
<polygon fill="none" stroke="black" points="1386,-426.75 1223,-426.75 1223,-404.5 1386,-404.5 1386,-426.75"/>
<text xml:space="preserve" text-anchor="start" x="1231" y="-411.35" font-family="Times,serif" font-size="12.00">[NXsample, SampleRun]</text>
</g>
<!-- TransformationTimeFilter[NXsample, SampleRun]&#45;&gt;NeXusTransformation[NXsample, SampleRun] -->
<g id="edge36" class="edge">
<title>TransformationTimeFilter[NXsample, SampleRun]:e&#45;&gt;NeXusTransformation[NXsample, SampleRun]:w</title>
<path fill="none" stroke="black" d="M1387,-415.62C1494.29,-415.62 1478.14,-276.92 1576.75,-267.16"/>
<polygon fill="black" stroke="black" points="1576.67,-270.67 1586.49,-266.7 1576.33,-263.68 1576.67,-270.67"/>
</g>
<!-- NeXusTransformation[NXsource, SampleRun]&#45;&gt;Position[NXsource, SampleRun] -->
<g id="edge41" class="edge">
<title>NeXusTransformation[NXsource, SampleRun]:e&#45;&gt;Position[NXsource, SampleRun]:w</title>
<path fill="none" stroke="black" d="M1751.88,-240.62C1852.37,-240.62 1880.1,-231.35 1975.2,-230.67"/>
<polygon fill="black" stroke="black" points="1975,-234.17 1984.99,-230.63 1974.97,-227.17 1975,-234.17"/>
</g>
<!-- TransformationTimeFilter[NXsource, SampleRun] -->
<g id="node35" class="node">
<title>TransformationTimeFilter[NXsource, SampleRun]</title>
<polygon fill="none" stroke="black" points="1384.88,-400.75 1224.12,-400.75 1224.12,-378.5 1384.88,-378.5 1384.88,-400.75"/>
<text xml:space="preserve" text-anchor="start" x="1232.12" y="-385.35" font-family="Times,serif" font-size="12.00">[NXsource, SampleRun]</text>
</g>
<!-- TransformationTimeFilter[NXsource, SampleRun]&#45;&gt;NeXusTransformation[NXsource, SampleRun] -->
<g id="edge39" class="edge">
<title>TransformationTimeFilter[NXsource, SampleRun]:e&#45;&gt;NeXusTransformation[NXsource, SampleRun]:w</title>
<path fill="none" stroke="black" d="M1385.88,-389.62C1399.26,-389.62 1402.42,-383.98 1412,-374.62 1456.21,-331.42 1432.44,-289.72 1484,-255.62 1520.06,-231.78 1538.67,-239.03 1577.81,-240.42"/>
<polygon fill="black" stroke="black" points="1577.55,-243.92 1587.61,-240.6 1577.68,-236.92 1577.55,-243.92"/>
</g>
<!-- PulseStrideOffset -->
<g id="node36" class="node">
<title>PulseStrideOffset</title>
<polygon fill="none" stroke="black" points="2505.88,-111.25 2363.88,-111.25 2363.88,-86 2505.88,-86 2505.88,-111.25"/>
<text xml:space="preserve" text-anchor="start" x="2371.88" y="-93.95" font-family="Times,serif" font-size="14.00">PulseStrideOffset</text>
</g>
<!-- PulseStrideOffset&#45;&gt;WavelengthDetector[SampleRun] -->
<g id="edge47" class="edge">
<title>PulseStrideOffset:e&#45;&gt;WavelengthDetector[SampleRun]:w</title>
<path fill="none" stroke="black" d="M2506.88,-98.62C2572.68,-98.62 2591.19,-112.86 2651.64,-114.48"/>
<polygon fill="black" stroke="black" points="2651.44,-117.97 2661.49,-114.61 2651.53,-110.98 2651.44,-117.97"/>
</g>
<!-- RawDetector[SampleRun]&#45;&gt;WavelengthDetector[SampleRun] -->
<g id="edge44" class="edge">
<title>RawDetector[SampleRun]:e&#45;&gt;WavelengthDetector[SampleRun]:w</title>
<path fill="none" stroke="black" d="M2536.5,-131.62C2589.24,-131.62 2604.22,-116.93 2651.65,-114.87"/>
<polygon fill="black" stroke="black" points="2651.56,-118.37 2661.49,-114.66 2651.41,-111.37 2651.56,-118.37"/>
</g>
</g>
</svg>
