<?xml version="1.0" encoding="UTF-8" standalone="no"?>
<!DOCTYPE svg PUBLIC "-//W3C//DTD SVG 1.1//EN"
 "http://www.w3.org/Graphics/SVG/1.1/DTD/svg11.dtd">
<!-- Generated by graphviz version 14.1.2 (20260126.1125)
 -->
<!-- Pages: 1 -->
<svg width="3211pt" height="476pt"
 viewBox="0.00 0.00 3211.00 476.00" xmlns="http://www.w3.org/2000/svg" xmlns:xlink="http://www.w3.org/1999/xlink">
<g id="graph0" class="graph" transform="scale(1 1) rotate(0) translate(4 471.62)">
<polygon fill="white" stroke="none" points="-4,4 -4,-471.62 3207.25,-471.62 3207.25,4 -4,4"/>
<g id="clust11" class="cluster">
<title>cluster_NeXusClass</title>
<polygon fill="#f0f0ff" stroke="#f0f0ff" points="893.25,-90.62 893.25,-198.62 1065.5,-198.62 1065.5,-90.62 893.25,-90.62"/>
<text xml:space="preserve" text-anchor="middle" x="979.38" y="-181.32" font-family="Times,serif" font-size="14.00">NeXusClass</text>
</g>
<g id="clust12" class="cluster">
<title>cluster_NeXusComponentLocationSpec</title>
<polygon fill="#f0f0ff" stroke="#f0f0ff" points="860.12,-206.62 860.12,-349.62 1099.62,-349.62 1099.62,-206.62 860.12,-206.62"/>
<text xml:space="preserve" text-anchor="middle" x="979.88" y="-332.32" font-family="Times,serif" font-size="14.00">NeXusComponentLocationSpec</text>
</g>
<g id="clust13" class="cluster">
<title>cluster_NeXusComponent</title>
<polygon fill="#f0f0ff" stroke="#f0f0ff" points="1234.75,-199.62 1234.75,-342.62 1419.75,-342.62 1419.75,-199.62 1234.75,-199.62"/>
<text xml:space="preserve" text-anchor="middle" x="1327.25" y="-325.32" font-family="Times,serif" font-size="14.00">NeXusComponent</text>
</g>
<g id="clust18" class="cluster">
<title>cluster_NeXusTransformationChain</title>
<polygon fill="#f0f0ff" stroke="#f0f0ff" points="1483.75,-213.62 1483.75,-336.62 1697.75,-336.62 1697.75,-213.62 1483.75,-213.62"/>
<text xml:space="preserve" text-anchor="start" x="1491.75" y="-320.32" font-family="Times,serif" font-size="14.00">NeXusTransformationChain</text>
<text xml:space="preserve" text-anchor="start" x="1509.38" y="-309.18" font-family="Times,serif" font-size="11.00">via:</text>
<text xml:space="preserve" text-anchor="start" x="1529.62" y="-309.18" font-family="Times,serif" font-style="italic" font-size="11.00">get_transformation_chain</text>
</g>
<g id="clust19" class="cluster">
<title>cluster_NeXusTransformation</title>
<polygon fill="#f0f0ff" stroke="#f0f0ff" points="1863.75,-195.62 1863.75,-318.62 2048.75,-318.62 2048.75,-195.62 1863.75,-195.62"/>
<text xml:space="preserve" text-anchor="start" x="1877.88" y="-302.32" font-family="Times,serif" font-size="14.00">NeXusTransformation</text>
<text xml:space="preserve" text-anchor="start" x="1895.88" y="-291.18" font-family="Times,serif" font-size="11.00">via:</text>
<text xml:space="preserve" text-anchor="start" x="1916.12" y="-291.18" font-family="Times,serif" font-style="italic" font-size="11.00">to_transformation</text>
</g>
<g id="clust20" class="cluster">
<title>cluster_Position</title>
<polygon fill="#f0f0ff" stroke="#f0f0ff" points="2264.12,-211.62 2264.12,-308.62 2443.12,-308.62 2443.12,-211.62 2264.12,-211.62"/>
<text xml:space="preserve" text-anchor="start" x="2325.12" y="-292.32" font-family="Times,serif" font-size="14.00">Position</text>
<text xml:space="preserve" text-anchor="start" x="2294.38" y="-281.18" font-family="Times,serif" font-size="11.00">via:</text>
<text xml:space="preserve" text-anchor="start" x="2314.62" y="-281.18" font-family="Times,serif" font-style="italic" font-size="11.00">compute_position</text>
</g>
<g id="clust25" class="cluster">
<title>cluster_TransformationTimeFilter</title>
<polygon fill="#f0f0ff" stroke="#f0f0ff" points="1490.12,-344.62 1490.12,-459.62 1691.38,-459.62 1691.38,-344.62 1490.12,-344.62"/>
<text xml:space="preserve" text-anchor="middle" x="1590.75" y="-442.32" font-family="Times,serif" font-size="14.00">TransformationTimeFilter</text>
</g>
<!-- DetectorBankSizes -->
<g id="node1" class="node">
<title>DetectorBankSizes</title>
<polygon fill="none" stroke="black" points="2032.12,-120.25 1880.38,-120.25 1880.38,-95 2032.12,-95 2032.12,-120.25"/>
<text xml:space="preserve" text-anchor="start" x="1888.38" y="-102.95" font-family="Times,serif" font-size="14.00">DetectorBankSizes</text>
</g>
<!-- EmptyDetector[SampleRun] -->
<g id="node2" class="node">
<title>EmptyDetector[SampleRun]</title>
<polygon fill="none" stroke="black" points="2462.5,-166.12 2244.75,-166.12 2244.75,-133.12 2462.5,-133.12 2462.5,-166.12"/>
<text xml:space="preserve" text-anchor="start" x="2252.75" y="-149.82" font-family="Times,serif" font-size="14.00">EmptyDetector[SampleRun]</text>
<text xml:space="preserve" text-anchor="start" x="2277.12" y="-138.67" font-family="Times,serif" font-size="11.00">via:</text>
<text xml:space="preserve" text-anchor="start" x="2297.38" y="-138.67" font-family="Times,serif" font-style="italic" font-size="11.00">get_calibrated_detector</text>
</g>
<!-- DetectorBankSizes&#45;&gt;EmptyDetector[SampleRun] -->
<g id="edge8" class="edge">
<title>DetectorBankSizes:e&#45;&gt;EmptyDetector[SampleRun]:w</title>
<path fill="none" stroke="black" d="M2033.12,-107.62C2082.43,-107.62 2094.41,-114.91 2142.75,-124.62 2184.19,-132.95 2195.62,-146.94 2232.6,-149.29"/>
<polygon fill="black" stroke="black" points="2232.14,-152.77 2242.24,-149.58 2232.35,-145.78 2232.14,-152.77"/>
</g>
<!-- DetectorLtotal[SampleRun] -->
<g id="node3" class="node">
<title>DetectorLtotal[SampleRun]</title>
<polygon fill="none" stroke="black" points="2876.75,-247.12 2564.5,-247.12 2564.5,-214.12 2876.75,-214.12 2876.75,-247.12"/>
<text xml:space="preserve" text-anchor="start" x="2622.38" y="-230.82" font-family="Times,serif" font-size="14.00">DetectorLtotal[SampleRun]</text>
<text xml:space="preserve" text-anchor="start" x="2572.5" y="-219.67" font-family="Times,serif" font-size="11.00">via:</text>
<text xml:space="preserve" text-anchor="start" x="2592.75" y="-219.67" font-family="Times,serif" font-style="italic" font-size="11.00">detector_ltotal_from_straight_line_approximation</text>
</g>
<!-- EmptyDetector[SampleRun]&#45;&gt;DetectorLtotal[SampleRun] -->
<g id="edge1" class="edge">
<title>EmptyDetector[SampleRun]:e&#45;&gt;DetectorLtotal[SampleRun]:w</title>
<path fill="none" stroke="black" d="M2463.5,-149.62C2516.88,-149.62 2508.62,-219.34 2553.09,-229.42"/>
<polygon fill="black" stroke="black" points="2552.68,-232.89 2562.99,-230.47 2553.42,-225.93 2552.68,-232.89"/>
</g>
<!-- RawDetector[SampleRun] -->
<g id="node37" class="node">
<title>RawDetector[SampleRun]</title>
<polygon fill="none" stroke="black" points="2821.25,-148.12 2620,-148.12 2620,-115.12 2821.25,-115.12 2821.25,-148.12"/>
<text xml:space="preserve" text-anchor="start" x="2628" y="-131.82" font-family="Times,serif" font-size="14.00">RawDetector[SampleRun]</text>
<text xml:space="preserve" text-anchor="start" x="2642.62" y="-120.67" font-family="Times,serif" font-size="11.00">via:</text>
<text xml:space="preserve" text-anchor="start" x="2662.88" y="-120.67" font-family="Times,serif" font-style="italic" font-size="11.00">assemble_detector_data</text>
</g>
<!-- EmptyDetector[SampleRun]&#45;&gt;RawDetector[SampleRun] -->
<g id="edge42" class="edge">
<title>EmptyDetector[SampleRun]:e&#45;&gt;RawDetector[SampleRun]:w</title>
<path fill="none" stroke="black" d="M2463.5,-149.62C2529.13,-149.62 2547.4,-133.61 2607.67,-131.79"/>
<polygon fill="black" stroke="black" points="2607.54,-135.29 2617.49,-131.65 2607.44,-128.29 2607.54,-135.29"/>
</g>
<!-- WavelengthDetector[SampleRun] -->
<g id="node38" class="node">
<title>WavelengthDetector[SampleRun]</title>
<polygon fill="none" stroke="black" points="3203.25,-131.12 2948.75,-131.12 2948.75,-98.12 3203.25,-98.12 3203.25,-131.12"/>
<text xml:space="preserve" text-anchor="start" x="2956.75" y="-114.83" font-family="Times,serif" font-size="14.00">WavelengthDetector[SampleRun]</text>
<text xml:space="preserve" text-anchor="start" x="2992.38" y="-103.68" font-family="Times,serif" font-size="11.00">via:</text>
<text xml:space="preserve" text-anchor="start" x="3012.62" y="-103.68" font-family="Times,serif" font-style="italic" font-size="11.00">detector_wavelength_data</text>
</g>
<!-- DetectorLtotal[SampleRun]&#45;&gt;WavelengthDetector[SampleRun] -->
<g id="edge46" class="edge">
<title>DetectorLtotal[SampleRun]:e&#45;&gt;WavelengthDetector[SampleRun]:w</title>
<path fill="none" stroke="black" d="M2876.75,-230.62C2933.16,-230.62 2894.47,-130.36 2937.51,-116.26"/>
<polygon fill="black" stroke="black" points="2937.86,-119.75 2947.25,-114.84 2936.85,-112.82 2937.86,-119.75"/>
</g>
<!-- Position[NXsource, SampleRun] -->
<g id="node4" class="node">
<title>Position[NXsource, SampleRun]</title>
<polygon fill="none" stroke="black" points="2434,-241.75 2273.25,-241.75 2273.25,-219.5 2434,-219.5 2434,-241.75"/>
<text xml:space="preserve" text-anchor="start" x="2281.25" y="-226.35" font-family="Times,serif" font-size="12.00">[NXsource, SampleRun]</text>
</g>
<!-- Position[NXsource, SampleRun]&#45;&gt;DetectorLtotal[SampleRun] -->
<g id="edge2" class="edge">
<title>Position[NXsource, SampleRun]:e&#45;&gt;DetectorLtotal[SampleRun]:w</title>
<path fill="none" stroke="black" d="M2435,-230.62C2488.62,-230.62 2504.78,-230.62 2553.27,-230.62"/>
<polygon fill="black" stroke="black" points="2552.99,-234.13 2562.99,-230.63 2552.99,-227.13 2552.99,-234.13"/>
</g>
<!-- Position[NXsample, SampleRun] -->
<g id="node5" class="node">
<title>Position[NXsample, SampleRun]</title>
<polygon fill="none" stroke="black" points="2435.12,-267.75 2272.12,-267.75 2272.12,-245.5 2435.12,-245.5 2435.12,-267.75"/>
<text xml:space="preserve" text-anchor="start" x="2280.12" y="-252.35" font-family="Times,serif" font-size="12.00">[NXsample, SampleRun]</text>
</g>
<!-- Position[NXsample, SampleRun]&#45;&gt;DetectorLtotal[SampleRun] -->
<g id="edge3" class="edge">
<title>Position[NXsample, SampleRun]:e&#45;&gt;DetectorLtotal[SampleRun]:w</title>
<path fill="none" stroke="black" d="M2436.12,-256.62C2490.36,-256.62 2504.44,-234.06 2553.18,-230.97"/>
<polygon fill="black" stroke="black" points="2553.1,-234.48 2562.99,-230.67 2552.88,-227.48 2553.1,-234.48"/>
</g>
<!-- GravityVector -->
<g id="node6" class="node">
<title>GravityVector</title>
<polygon fill="none" stroke="black" points="2429.88,-350.12 2277.38,-350.12 2277.38,-317.12 2429.88,-317.12 2429.88,-350.12"/>
<text xml:space="preserve" text-anchor="start" x="2304.12" y="-333.82" font-family="Times,serif" font-size="14.00">GravityVector</text>
<text xml:space="preserve" text-anchor="start" x="2285.38" y="-322.68" font-family="Times,serif" font-size="11.00">via:</text>
<text xml:space="preserve" text-anchor="start" x="2305.62" y="-322.68" font-family="Times,serif" font-style="italic" font-size="11.00">gravity_vector_neg_y</text>
</g>
<!-- GravityVector&#45;&gt;DetectorLtotal[SampleRun] -->
<g id="edge4" class="edge">
<title>GravityVector:e&#45;&gt;DetectorLtotal[SampleRun]:w</title>
<path fill="none" stroke="black" d="M2430.88,-333.62C2460.27,-333.62 2468.27,-326.26 2492.5,-309.62 2528.15,-285.16 2519.2,-239.79 2553.12,-231.83"/>
<polygon fill="black" stroke="black" points="2553.42,-235.32 2562.99,-230.78 2552.68,-228.36 2553.42,-235.32"/>
</g>
<!-- DetectorPositionOffset[SampleRun] -->
<g id="node7" class="node">
<title>DetectorPositionOffset[SampleRun]</title>
<polygon fill="none" stroke="black" points="2091.38,-157.12 1821.12,-157.12 1821.12,-124.12 2091.38,-124.12 2091.38,-157.12"/>
<text xml:space="preserve" text-anchor="start" x="1829.12" y="-140.82" font-family="Times,serif" font-size="14.00">DetectorPositionOffset[SampleRun]</text>
<text xml:space="preserve" text-anchor="start" x="1869.62" y="-129.67" font-family="Times,serif" font-size="11.00">via:</text>
<text xml:space="preserve" text-anchor="start" x="1889.88" y="-129.67" font-family="Times,serif" font-style="italic" font-size="11.00">no_detector_position_offset</text>
</g>
<!-- DetectorPositionOffset[SampleRun]&#45;&gt;EmptyDetector[SampleRun] -->
<g id="edge7" class="edge">
<title>DetectorPositionOffset[SampleRun]:e&#45;&gt;EmptyDetector[SampleRun]:w</title>
<path fill="none" stroke="black" d="M2092.38,-140.62C2155.82,-140.62 2174.24,-148.6 2232.41,-149.54"/>
<polygon fill="black" stroke="black" points="2232.21,-153.03 2242.24,-149.61 2232.26,-146.03 2232.21,-153.03"/>
</g>
<!-- NeXusComponent[NXdetector, SampleRun] -->
<g id="node8" class="node">
<title>NeXusComponent[NXdetector, SampleRun]</title>
<polygon fill="none" stroke="black" points="1411.75,-239.12 1242.75,-239.12 1242.75,-208.12 1411.75,-208.12 1411.75,-239.12"/>
<text xml:space="preserve" text-anchor="start" x="1250.75" y="-224.72" font-family="Times,serif" font-size="12.00">[NXdetector, SampleRun]</text>
<text xml:space="preserve" text-anchor="start" x="1253" y="-213.67" font-family="Times,serif" font-size="11.00">via:</text>
<text xml:space="preserve" text-anchor="start" x="1273.25" y="-213.67" font-family="Times,serif" font-style="italic" font-size="11.00">load_nexus_component</text>
</g>
<!-- NeXusComponent[NXdetector, SampleRun]&#45;&gt;EmptyDetector[SampleRun] -->
<g id="edge5" class="edge">
<title>NeXusComponent[NXdetector, SampleRun]:e&#45;&gt;EmptyDetector[SampleRun]:w</title>
<path fill="none" stroke="black" d="M1412.75,-223.62C1451.86,-223.62 1446.71,-184.18 1483.75,-171.62 1518.43,-159.87 2106.18,-159.46 2142.75,-157.62 2183.68,-155.57 2196.47,-150.63 2232.39,-149.76"/>
<polygon fill="black" stroke="black" points="2232.28,-153.26 2242.24,-149.64 2232.2,-146.26 2232.28,-153.26"/>
</g>
<!-- NeXusTransformationChain[NXdetector, SampleRun] -->
<g id="node28" class="node">
<title>NeXusTransformationChain[NXdetector, SampleRun]</title>
<polygon fill="none" stroke="black" points="1674.75,-243.75 1505.75,-243.75 1505.75,-221.5 1674.75,-221.5 1674.75,-243.75"/>
<text xml:space="preserve" text-anchor="start" x="1513.75" y="-228.35" font-family="Times,serif" font-size="12.00">[NXdetector, SampleRun]</text>
</g>
<!-- NeXusComponent[NXdetector, SampleRun]&#45;&gt;NeXusTransformationChain[NXdetector, SampleRun] -->
<g id="edge28" class="edge">
<title>NeXusComponent[NXdetector, SampleRun]:e&#45;&gt;NeXusTransformationChain[NXdetector, SampleRun]:w</title>
<path fill="none" stroke="black" d="M1412.75,-223.62C1449.82,-223.62 1461.45,-230.95 1493.55,-232.38"/>
<polygon fill="black" stroke="black" points="1493.16,-235.88 1503.24,-232.59 1493.31,-228.88 1493.16,-235.88"/>
</g>
<!-- NeXusTransformation[NXdetector, SampleRun] -->
<g id="node9" class="node">
<title>NeXusTransformation[NXdetector, SampleRun]</title>
<polygon fill="none" stroke="black" points="2040.75,-225.75 1871.75,-225.75 1871.75,-203.5 2040.75,-203.5 2040.75,-225.75"/>
<text xml:space="preserve" text-anchor="start" x="1879.75" y="-210.35" font-family="Times,serif" font-size="12.00">[NXdetector, SampleRun]</text>
</g>
<!-- NeXusTransformation[NXdetector, SampleRun]&#45;&gt;EmptyDetector[SampleRun] -->
<g id="edge6" class="edge">
<title>NeXusTransformation[NXdetector, SampleRun]:e&#45;&gt;EmptyDetector[SampleRun]:w</title>
<path fill="none" stroke="black" d="M2041.75,-214.62C2132.1,-214.62 2148.17,-154.97 2232.29,-149.96"/>
<polygon fill="black" stroke="black" points="2232.34,-153.46 2242.24,-149.67 2232.14,-146.46 2232.34,-153.46"/>
</g>
<!-- LookupTable[SampleRun, NXdetector] -->
<g id="node10" class="node">
<title>LookupTable[SampleRun, NXdetector]</title>
<polygon fill="none" stroke="black" points="716,-62.12 427,-62.12 427,-29.12 716,-29.12 716,-62.12"/>
<text xml:space="preserve" text-anchor="start" x="435" y="-45.83" font-family="Times,serif" font-size="14.00">LookupTable[SampleRun, NXdetector]</text>
<text xml:space="preserve" text-anchor="start" x="483.75" y="-34.68" font-family="Times,serif" font-size="11.00">via:</text>
<text xml:space="preserve" text-anchor="start" x="504" y="-34.68" font-family="Times,serif" font-style="italic" font-size="11.00">load_lookup_table_from_file</text>
</g>
<!-- ErrorLimitedLookupTable[SampleRun, NXdetector] -->
<g id="node11" class="node">
<title>ErrorLimitedLookupTable[SampleRun, NXdetector]</title>
<polygon fill="none" stroke="black" points="1170.75,-62.12 788,-62.12 788,-29.12 1170.75,-29.12 1170.75,-62.12"/>
<text xml:space="preserve" text-anchor="start" x="796" y="-45.83" font-family="Times,serif" font-size="14.00">ErrorLimitedLookupTable[SampleRun, NXdetector]</text>
<text xml:space="preserve" text-anchor="start" x="884.5" y="-34.68" font-family="Times,serif" font-size="11.00">via:</text>
<text xml:space="preserve" text-anchor="start" x="904.75" y="-34.68" font-family="Times,serif" font-style="italic" font-size="11.00">mask_large_uncertainty_in_lut</text>
</g>
<!-- LookupTable[SampleRun, NXdetector]&#45;&gt;ErrorLimitedLookupTable[SampleRun, NXdetector] -->
<g id="edge9" class="edge">
<title>LookupTable[SampleRun, NXdetector]:e&#45;&gt;ErrorLimitedLookupTable[SampleRun, NXdetector]:w</title>
<path fill="none" stroke="black" d="M716,-45.62C743.88,-45.62 753.54,-45.62 776.72,-45.62"/>
<polygon fill="black" stroke="black" points="776.49,-49.13 786.49,-45.63 776.49,-42.13 776.49,-49.13"/>
</g>
<!-- ErrorLimitedLookupTable[SampleRun, NXdetector]&#45;&gt;WavelengthDetector[SampleRun] -->
<g id="edge45" class="edge">
<title>ErrorLimitedLookupTable[SampleRun, NXdetector]:e&#45;&gt;WavelengthDetector[SampleRun]:w</title>
<path fill="none" stroke="black" d="M1170.75,-45.62C1356.76,-45.63 1403.24,-50.63 1589.25,-50.62 1589.25,-50.62 1589.25,-50.62 2354.62,-50.62 2587.14,-50.63 2650.61,-29.52 2876.75,-83.62 2906.53,-90.75 2912.67,-109.3 2937.37,-113.68"/>
<polygon fill="black" stroke="black" points="2936.99,-117.16 2947.24,-114.5 2937.56,-110.19 2936.99,-117.16"/>
</g>
<!-- LookupTableRelativeErrorThreshold -->
<g id="node12" class="node">
<title>LookupTableRelativeErrorThreshold</title>
<polygon fill="none" stroke="black" points="708.88,-25.25 434.12,-25.25 434.12,0 708.88,0 708.88,-25.25"/>
<text xml:space="preserve" text-anchor="start" x="442.12" y="-7.95" font-family="Times,serif" font-size="14.00">LookupTableRelativeErrorThreshold</text>
</g>
<!-- LookupTableRelativeErrorThreshold&#45;&gt;ErrorLimitedLookupTable[SampleRun, NXdetector] -->
<g id="edge10" class="edge">
<title>LookupTableRelativeErrorThreshold:e&#45;&gt;ErrorLimitedLookupTable[SampleRun, NXdetector]:w</title>
<path fill="none" stroke="black" d="M709.88,-12.62C743.45,-12.62 749.29,-38.8 776.8,-44.53"/>
<polygon fill="black" stroke="black" points="776.2,-47.99 786.49,-45.48 776.88,-41.02 776.2,-47.99"/>
</g>
<!-- NeXusName[NXdetector] -->
<g id="node13" class="node">
<title>NeXusName[NXdetector]</title>
<polygon fill="none" stroke="black" points="669.88,-91.25 473.12,-91.25 473.12,-66 669.88,-66 669.88,-91.25"/>
<text xml:space="preserve" text-anchor="start" x="481.12" y="-73.95" font-family="Times,serif" font-size="14.00">NeXusName[NXdetector]</text>
</g>
<!-- NeXusName[NXdetector]&#45;&gt;ErrorLimitedLookupTable[SampleRun, NXdetector] -->
<g id="edge11" class="edge">
<title>NeXusName[NXdetector]:e&#45;&gt;ErrorLimitedLookupTable[SampleRun, NXdetector]:w</title>
<path fill="none" stroke="black" d="M670.88,-78.62C720.94,-78.62 732.34,-50.34 776.67,-46.14"/>
<polygon fill="black" stroke="black" points="776.66,-49.65 786.49,-45.69 776.34,-42.65 776.66,-49.65"/>
</g>
<!-- NeXusComponentLocationSpec[NXdetector, SampleRun] -->
<g id="node19" class="node">
<title>NeXusComponentLocationSpec[NXdetector, SampleRun]</title>
<polygon fill="none" stroke="black" points="1070.62,-246.12 888.12,-246.12 888.12,-215.12 1070.62,-215.12 1070.62,-246.12"/>
<text xml:space="preserve" text-anchor="start" x="902.88" y="-231.72" font-family="Times,serif" font-size="12.00">[NXdetector, SampleRun]</text>
<text xml:space="preserve" text-anchor="start" x="896.12" y="-220.67" font-family="Times,serif" font-size="11.00">via:</text>
<text xml:space="preserve" text-anchor="start" x="916.38" y="-220.67" font-family="Times,serif" font-style="italic" font-size="11.00">component_spec_by_name</text>
</g>
<!-- NeXusName[NXdetector]&#45;&gt;NeXusComponentLocationSpec[NXdetector, SampleRun] -->
<g id="edge14" class="edge">
<title>NeXusName[NXdetector]:e&#45;&gt;NeXusComponentLocationSpec[NXdetector, SampleRun]:w</title>
<path fill="none" stroke="black" d="M670.88,-78.62C745.72,-78.62 724.29,-160.35 788,-199.62 823.92,-221.76 838.43,-229.33 875.91,-230.47"/>
<polygon fill="black" stroke="black" points="875.56,-233.96 885.61,-230.6 875.66,-226.96 875.56,-233.96"/>
</g>
<!-- NeXusDataLocationSpec[NXdetector, SampleRun] -->
<g id="node24" class="node">
<title>NeXusDataLocationSpec[NXdetector, SampleRun]</title>
<polygon fill="none" stroke="black" points="2142.75,-91.12 1769.75,-91.12 1769.75,-58.12 2142.75,-58.12 2142.75,-91.12"/>
<text xml:space="preserve" text-anchor="start" x="1777.75" y="-74.83" font-family="Times,serif" font-size="14.00">NeXusDataLocationSpec[NXdetector, SampleRun]</text>
<text xml:space="preserve" text-anchor="start" x="1906.75" y="-63.68" font-family="Times,serif" font-size="11.00">via:</text>
<text xml:space="preserve" text-anchor="start" x="1927" y="-63.68" font-family="Times,serif" font-style="italic" font-size="11.00">data_by_name</text>
</g>
<!-- NeXusName[NXdetector]&#45;&gt;NeXusDataLocationSpec[NXdetector, SampleRun] -->
<g id="edge23" class="edge">
<title>NeXusName[NXdetector]:e&#45;&gt;NeXusDataLocationSpec[NXdetector, SampleRun]:w</title>
<path fill="none" stroke="black" d="M670.88,-78.62C722.94,-78.62 735.94,-77.12 788,-76.62 1220.48,-72.49 1331.47,-74.59 1758.32,-74.62"/>
<polygon fill="black" stroke="black" points="1758.24,-78.12 1768.24,-74.62 1758.24,-71.12 1758.24,-78.12"/>
</g>
<!-- Filename[SampleRun] -->
<g id="node14" class="node">
<title>Filename[SampleRun]</title>
<polygon fill="none" stroke="black" points="264.62,-245.25 90.38,-245.25 90.38,-220 264.62,-220 264.62,-245.25"/>
<text xml:space="preserve" text-anchor="start" x="98.38" y="-227.95" font-family="Times,serif" font-size="14.00">Filename[SampleRun]</text>
</g>
<!-- NeXusFileSpec[SampleRun] -->
<g id="node18" class="node">
<title>NeXusFileSpec[SampleRun]</title>
<polygon fill="none" stroke="black" points="679.62,-264.12 463.38,-264.12 463.38,-231.12 679.62,-231.12 679.62,-264.12"/>
<text xml:space="preserve" text-anchor="start" x="471.38" y="-247.82" font-family="Times,serif" font-size="14.00">NeXusFileSpec[SampleRun]</text>
<text xml:space="preserve" text-anchor="start" x="502.12" y="-236.67" font-family="Times,serif" font-size="11.00">via:</text>
<text xml:space="preserve" text-anchor="start" x="522.38" y="-236.67" font-family="Times,serif" font-style="italic" font-size="11.00">file_path_to_file_spec</text>
</g>
<!-- Filename[SampleRun]&#45;&gt;NeXusFileSpec[SampleRun] -->
<g id="edge26" class="edge">
<title>Filename[SampleRun]:e&#45;&gt;NeXusFileSpec[SampleRun]:w</title>
<path fill="none" stroke="black" d="M265.62,-232.62C349.38,-232.62 372.62,-246.31 450.95,-247.54"/>
<polygon fill="black" stroke="black" points="450.83,-251.04 460.86,-247.61 450.89,-244.04 450.83,-251.04"/>
</g>
<!-- LookupTableFilename[SampleRun, NXdetector] -->
<g id="node15" class="node">
<title>LookupTableFilename[SampleRun, NXdetector]</title>
<polygon fill="none" stroke="black" points="355,-58.25 0,-58.25 0,-33 355,-33 355,-58.25"/>
<text xml:space="preserve" text-anchor="start" x="8" y="-40.95" font-family="Times,serif" font-size="14.00">LookupTableFilename[SampleRun, NXdetector]</text>
</g>
<!-- LookupTableFilename[SampleRun, NXdetector]&#45;&gt;LookupTable[SampleRun, NXdetector] -->
<g id="edge12" class="edge">
<title>LookupTableFilename[SampleRun, NXdetector]:e&#45;&gt;LookupTable[SampleRun, NXdetector]:w</title>
<path fill="none" stroke="black" d="M355,-45.62C382.88,-45.62 392.54,-45.62 415.72,-45.62"/>
<polygon fill="black" stroke="black" points="415.49,-49.13 425.49,-45.63 415.49,-42.13 415.49,-49.13"/>
</g>
<!-- NeXusClass[NXdetector] -->
<g id="node16" class="node">
<title>NeXusClass[NXdetector]</title>
<polygon fill="none" stroke="black" points="1057.5,-130.12 901.25,-130.12 901.25,-99.12 1057.5,-99.12 1057.5,-130.12"/>
<text xml:space="preserve" text-anchor="start" x="940.38" y="-115.72" font-family="Times,serif" font-size="12.00">[NXdetector]</text>
<text xml:space="preserve" text-anchor="start" x="909.25" y="-104.67" font-family="Times,serif" font-size="11.00">via:</text>
<text xml:space="preserve" text-anchor="start" x="929.5" y="-104.67" font-family="Times,serif" font-style="italic" font-size="11.00">nx_class_for_detector</text>
</g>
<!-- NeXusClass[NXdetector]&#45;&gt;NeXusComponent[NXdetector, SampleRun] -->
<g id="edge18" class="edge">
<title>NeXusClass[NXdetector]:e&#45;&gt;NeXusComponent[NXdetector, SampleRun]:w</title>
<path fill="none" stroke="black" d="M1058.5,-114.62C1109.17,-114.62 1127.2,-108.71 1170.75,-134.62 1210.66,-158.38 1194.49,-213.52 1230.71,-222.41"/>
<polygon fill="black" stroke="black" points="1229.92,-225.84 1240.25,-223.46 1230.69,-218.88 1229.92,-225.84"/>
</g>
<!-- NeXusClass[NXsource] -->
<g id="node17" class="node">
<title>NeXusClass[NXsource]</title>
<polygon fill="none" stroke="black" points="1052.62,-165.12 906.12,-165.12 906.12,-134.12 1052.62,-134.12 1052.62,-165.12"/>
<text xml:space="preserve" text-anchor="start" x="945.25" y="-150.72" font-family="Times,serif" font-size="12.00">[NXsource]</text>
<text xml:space="preserve" text-anchor="start" x="914.12" y="-139.67" font-family="Times,serif" font-size="11.00">via:</text>
<text xml:space="preserve" text-anchor="start" x="934.38" y="-139.67" font-family="Times,serif" font-style="italic" font-size="11.00">nx_class_for_source</text>
</g>
<!-- NeXusComponent[NXsource, SampleRun] -->
<g id="node23" class="node">
<title>NeXusComponent[NXsource, SampleRun]</title>
<polygon fill="none" stroke="black" points="1409.5,-274.12 1245,-274.12 1245,-243.12 1409.5,-243.12 1409.5,-274.12"/>
<text xml:space="preserve" text-anchor="start" x="1254.88" y="-259.73" font-family="Times,serif" font-size="12.00">[NXsource, SampleRun]</text>
<text xml:space="preserve" text-anchor="start" x="1253" y="-248.68" font-family="Times,serif" font-size="11.00">via:</text>
<text xml:space="preserve" text-anchor="start" x="1273.25" y="-248.68" font-family="Times,serif" font-style="italic" font-size="11.00">load_nexus_component</text>
</g>
<!-- NeXusClass[NXsource]&#45;&gt;NeXusComponent[NXsource, SampleRun] -->
<g id="edge21" class="edge">
<title>NeXusClass[NXsource]:e&#45;&gt;NeXusComponent[NXsource, SampleRun]:w</title>
<path fill="none" stroke="black" d="M1053.62,-149.62C1111.32,-149.62 1121.15,-176.15 1170.75,-205.62 1201.65,-223.99 1203.73,-251.91 1232.58,-257.59"/>
<polygon fill="black" stroke="black" points="1232.22,-261.07 1242.49,-258.49 1232.85,-254.1 1232.22,-261.07"/>
</g>
<!-- NeXusFileSpec[SampleRun]&#45;&gt;NeXusComponentLocationSpec[NXdetector, SampleRun] -->
<g id="edge13" class="edge">
<title>NeXusFileSpec[SampleRun]:e&#45;&gt;NeXusComponentLocationSpec[NXdetector, SampleRun]:w</title>
<path fill="none" stroke="black" d="M680.62,-247.62C768.76,-247.62 792.99,-232.05 875.63,-230.72"/>
<polygon fill="black" stroke="black" points="875.64,-234.22 885.61,-230.64 875.58,-227.22 875.64,-234.22"/>
</g>
<!-- NeXusComponentLocationSpec[NXsample, SampleRun] -->
<g id="node20" class="node">
<title>NeXusComponentLocationSpec[NXsample, SampleRun]</title>
<polygon fill="none" stroke="black" points="1065,-316.12 893.75,-316.12 893.75,-285.12 1065,-285.12 1065,-316.12"/>
<text xml:space="preserve" text-anchor="start" x="905.88" y="-301.73" font-family="Times,serif" font-size="12.00">[NXsample, SampleRun]</text>
<text xml:space="preserve" text-anchor="start" x="901.75" y="-290.68" font-family="Times,serif" font-size="11.00">via:</text>
<text xml:space="preserve" text-anchor="start" x="922" y="-290.68" font-family="Times,serif" font-style="italic" font-size="11.00">unique_component_spec</text>
</g>
<!-- NeXusFileSpec[SampleRun]&#45;&gt;NeXusComponentLocationSpec[NXsample, SampleRun] -->
<g id="edge15" class="edge">
<title>NeXusFileSpec[SampleRun]:e&#45;&gt;NeXusComponentLocationSpec[NXsample, SampleRun]:w</title>
<path fill="none" stroke="black" d="M680.62,-247.62C730.68,-247.62 739.41,-269.58 788,-281.62 829.98,-292.03 843.2,-299.29 881.3,-300.46"/>
<polygon fill="black" stroke="black" points="881.19,-303.96 891.24,-300.6 881.29,-296.96 881.19,-303.96"/>
</g>
<!-- NeXusComponentLocationSpec[NXsource, SampleRun] -->
<g id="node21" class="node">
<title>NeXusComponentLocationSpec[NXsource, SampleRun]</title>
<polygon fill="none" stroke="black" points="1065,-281.12 893.75,-281.12 893.75,-250.12 1065,-250.12 1065,-281.12"/>
<text xml:space="preserve" text-anchor="start" x="907" y="-266.73" font-family="Times,serif" font-size="12.00">[NXsource, SampleRun]</text>
<text xml:space="preserve" text-anchor="start" x="901.75" y="-255.68" font-family="Times,serif" font-size="11.00">via:</text>
<text xml:space="preserve" text-anchor="start" x="922" y="-255.68" font-family="Times,serif" font-style="italic" font-size="11.00">unique_component_spec</text>
</g>
<!-- NeXusFileSpec[SampleRun]&#45;&gt;NeXusComponentLocationSpec[NXsource, SampleRun] -->
<g id="edge16" class="edge">
<title>NeXusFileSpec[SampleRun]:e&#45;&gt;NeXusComponentLocationSpec[NXsource, SampleRun]:w</title>
<path fill="none" stroke="black" d="M680.62,-247.62C771.36,-247.62 796.13,-264.18 881.46,-265.54"/>
<polygon fill="black" stroke="black" points="881.21,-269.03 891.24,-265.61 881.26,-262.03 881.21,-269.03"/>
</g>
<!-- NeXusFileSpec[SampleRun]&#45;&gt;NeXusDataLocationSpec[NXdetector, SampleRun] -->
<g id="edge22" class="edge">
<title>NeXusFileSpec[SampleRun]:e&#45;&gt;NeXusDataLocationSpec[NXdetector, SampleRun]:w</title>
<path fill="none" stroke="black" d="M680.62,-247.62C765.53,-247.62 713.27,-129.93 788,-89.62 810.76,-77.35 1648.59,-74.87 1758.51,-74.64"/>
<polygon fill="black" stroke="black" points="1758.24,-78.14 1768.24,-74.63 1758.23,-71.14 1758.24,-78.14"/>
</g>
<!-- NeXusComponentLocationSpec[NXdetector, SampleRun]&#45;&gt;NeXusComponent[NXdetector, SampleRun] -->
<g id="edge17" class="edge">
<title>NeXusComponentLocationSpec[NXdetector, SampleRun]:e&#45;&gt;NeXusComponent[NXdetector, SampleRun]:w</title>
<path fill="none" stroke="black" d="M1071.62,-230.62C1143.46,-230.62 1164.02,-224.32 1230.65,-223.68"/>
<polygon fill="black" stroke="black" points="1230.25,-227.18 1240.24,-223.63 1230.22,-220.18 1230.25,-227.18"/>
</g>
<!-- NeXusComponent[NXsample, SampleRun] -->
<g id="node22" class="node">
<title>NeXusComponent[NXsample, SampleRun]</title>
<polygon fill="none" stroke="black" points="1408.75,-309.12 1245.75,-309.12 1245.75,-278.12 1408.75,-278.12 1408.75,-309.12"/>
<text xml:space="preserve" text-anchor="start" x="1253.75" y="-294.73" font-family="Times,serif" font-size="12.00">[NXsample, SampleRun]</text>
<text xml:space="preserve" text-anchor="start" x="1263.5" y="-283.68" font-family="Times,serif" font-size="11.00">via:</text>
<text xml:space="preserve" text-anchor="start" x="1283.75" y="-283.68" font-family="Times,serif" font-style="italic" font-size="11.00">load_nexus_sample</text>
</g>
<!-- NeXusComponentLocationSpec[NXsample, SampleRun]&#45;&gt;NeXusComponent[NXsample, SampleRun] -->
<g id="edge19" class="edge">
<title>NeXusComponentLocationSpec[NXsample, SampleRun]:e&#45;&gt;NeXusComponent[NXsample, SampleRun]:w</title>
<path fill="none" stroke="black" d="M1066,-300.62C1141.62,-300.62 1163.17,-294.29 1233.52,-293.67"/>
<polygon fill="black" stroke="black" points="1233.25,-297.17 1243.24,-293.63 1233.22,-290.17 1233.25,-297.17"/>
</g>
<!-- NeXusComponentLocationSpec[NXsource, SampleRun]&#45;&gt;NeXusComponent[NXsource, SampleRun] -->
<g id="edge20" class="edge">
<title>NeXusComponentLocationSpec[NXsource, SampleRun]:e&#45;&gt;NeXusComponent[NXsource, SampleRun]:w</title>
<path fill="none" stroke="black" d="M1066,-265.62C1141.31,-265.62 1162.77,-259.29 1232.81,-258.67"/>
<polygon fill="black" stroke="black" points="1232.5,-262.17 1242.49,-258.63 1232.47,-255.17 1232.5,-262.17"/>
</g>
<!-- NeXusTransformationChain[NXsample, SampleRun] -->
<g id="node29" class="node">
<title>NeXusTransformationChain[NXsample, SampleRun]</title>
<polygon fill="none" stroke="black" points="1671.75,-295.75 1508.75,-295.75 1508.75,-273.5 1671.75,-273.5 1671.75,-295.75"/>
<text xml:space="preserve" text-anchor="start" x="1516.75" y="-280.35" font-family="Times,serif" font-size="12.00">[NXsample, SampleRun]</text>
</g>
<!-- NeXusComponent[NXsample, SampleRun]&#45;&gt;NeXusTransformationChain[NXsample, SampleRun] -->
<g id="edge29" class="edge">
<title>NeXusComponent[NXsample, SampleRun]:e&#45;&gt;NeXusTransformationChain[NXsample, SampleRun]:w</title>
<path fill="none" stroke="black" d="M1409.75,-293.62C1449.39,-293.62 1461.75,-286.23 1496.27,-284.85"/>
<polygon fill="black" stroke="black" points="1496.31,-288.35 1506.24,-284.65 1496.17,-281.35 1496.31,-288.35"/>
</g>
<!-- NeXusTransformationChain[NXsource, SampleRun] -->
<g id="node30" class="node">
<title>NeXusTransformationChain[NXsource, SampleRun]</title>
<polygon fill="none" stroke="black" points="1670.62,-269.75 1509.88,-269.75 1509.88,-247.5 1670.62,-247.5 1670.62,-269.75"/>
<text xml:space="preserve" text-anchor="start" x="1517.88" y="-254.35" font-family="Times,serif" font-size="12.00">[NXsource, SampleRun]</text>
</g>
<!-- NeXusComponent[NXsource, SampleRun]&#45;&gt;NeXusTransformationChain[NXsource, SampleRun] -->
<g id="edge30" class="edge">
<title>NeXusComponent[NXsource, SampleRun]:e&#45;&gt;NeXusTransformationChain[NXsource, SampleRun]:w</title>
<path fill="none" stroke="black" d="M1410.5,-258.62C1450.12,-258.62 1462.82,-258.62 1497.39,-258.62"/>
<polygon fill="black" stroke="black" points="1497.36,-262.13 1507.36,-258.63 1497.36,-255.13 1497.36,-262.13"/>
</g>
<!-- NeXusData[NXdetector, SampleRun] -->
<g id="node26" class="node">
<title>NeXusData[NXdetector, SampleRun]</title>
<polygon fill="none" stroke="black" points="2492.5,-115.12 2214.75,-115.12 2214.75,-82.12 2492.5,-82.12 2492.5,-115.12"/>
<text xml:space="preserve" text-anchor="start" x="2222.75" y="-98.83" font-family="Times,serif" font-size="14.00">NeXusData[NXdetector, SampleRun]</text>
<text xml:space="preserve" text-anchor="start" x="2297.75" y="-87.68" font-family="Times,serif" font-size="11.00">via:</text>
<text xml:space="preserve" text-anchor="start" x="2318" y="-87.68" font-family="Times,serif" font-style="italic" font-size="11.00">load_nexus_data</text>
</g>
<!-- NeXusDataLocationSpec[NXdetector, SampleRun]&#45;&gt;NeXusData[NXdetector, SampleRun] -->
<g id="edge25" class="edge">
<title>NeXusDataLocationSpec[NXdetector, SampleRun]:e&#45;&gt;NeXusData[NXdetector, SampleRun]:w</title>
<path fill="none" stroke="black" d="M2142.75,-74.62C2172.26,-74.62 2179.43,-93 2203.36,-97.59"/>
<polygon fill="black" stroke="black" points="2202.97,-101.07 2213.24,-98.49 2203.6,-94.1 2202.97,-101.07"/>
</g>
<!-- TimeInterval[SampleRun] -->
<g id="node25" class="node">
<title>TimeInterval[SampleRun]</title>
<polygon fill="none" stroke="black" points="1690.12,-205.12 1490.38,-205.12 1490.38,-172.12 1690.12,-172.12 1690.12,-205.12"/>
<text xml:space="preserve" text-anchor="start" x="1498.38" y="-188.82" font-family="Times,serif" font-size="14.00">TimeInterval[SampleRun]</text>
<text xml:space="preserve" text-anchor="start" x="1531.38" y="-177.67" font-family="Times,serif" font-size="11.00">via:</text>
<text xml:space="preserve" text-anchor="start" x="1551.62" y="-177.67" font-family="Times,serif" font-style="italic" font-size="11.00">full_time_interval</text>
</g>
<!-- TimeInterval[SampleRun]&#45;&gt;NeXusTransformation[NXdetector, SampleRun] -->
<g id="edge32" class="edge">
<title>TimeInterval[SampleRun]:e&#45;&gt;NeXusTransformation[NXdetector, SampleRun]:w</title>
<path fill="none" stroke="black" d="M1691.12,-188.62C1767.85,-188.62 1788.15,-212.15 1859.37,-214.45"/>
<polygon fill="black" stroke="black" points="1859.18,-217.94 1869.24,-214.6 1859.29,-210.94 1859.18,-217.94"/>
</g>
<!-- TimeInterval[SampleRun]&#45;&gt;NeXusDataLocationSpec[NXdetector, SampleRun] -->
<g id="edge24" class="edge">
<title>TimeInterval[SampleRun]:e&#45;&gt;NeXusDataLocationSpec[NXdetector, SampleRun]:w</title>
<path fill="none" stroke="black" d="M1691.12,-188.62C1748.47,-188.62 1713.79,-89.68 1758.55,-76.15"/>
<polygon fill="black" stroke="black" points="1758.81,-79.65 1768.25,-74.83 1757.87,-72.71 1758.81,-79.65"/>
</g>
<!-- NeXusTransformation[NXsample, SampleRun] -->
<g id="node32" class="node">
<title>NeXusTransformation[NXsample, SampleRun]</title>
<polygon fill="none" stroke="black" points="2037.75,-277.75 1874.75,-277.75 1874.75,-255.5 2037.75,-255.5 2037.75,-277.75"/>
<text xml:space="preserve" text-anchor="start" x="1882.75" y="-262.35" font-family="Times,serif" font-size="12.00">[NXsample, SampleRun]</text>
</g>
<!-- TimeInterval[SampleRun]&#45;&gt;NeXusTransformation[NXsample, SampleRun] -->
<g id="edge35" class="edge">
<title>TimeInterval[SampleRun]:e&#45;&gt;NeXusTransformation[NXsample, SampleRun]:w</title>
<path fill="none" stroke="black" d="M1691.12,-188.62C1735.9,-188.62 1728.67,-233.8 1769.75,-251.62 1808.91,-268.62 1824.35,-267.08 1862.39,-266.69"/>
<polygon fill="black" stroke="black" points="1862.26,-270.19 1872.24,-266.63 1862.22,-263.19 1862.26,-270.19"/>
</g>
<!-- NeXusTransformation[NXsource, SampleRun] -->
<g id="node34" class="node">
<title>NeXusTransformation[NXsource, SampleRun]</title>
<polygon fill="none" stroke="black" points="2036.62,-251.75 1875.88,-251.75 1875.88,-229.5 2036.62,-229.5 2036.62,-251.75"/>
<text xml:space="preserve" text-anchor="start" x="1883.88" y="-236.35" font-family="Times,serif" font-size="12.00">[NXsource, SampleRun]</text>
</g>
<!-- TimeInterval[SampleRun]&#45;&gt;NeXusTransformation[NXsource, SampleRun] -->
<g id="edge38" class="edge">
<title>TimeInterval[SampleRun]:e&#45;&gt;NeXusTransformation[NXsource, SampleRun]:w</title>
<path fill="none" stroke="black" d="M1691.12,-188.62C1729.75,-188.62 1732.75,-214.55 1769.75,-225.62 1811.08,-237.99 1825.25,-240.28 1863.43,-240.59"/>
<polygon fill="black" stroke="black" points="1863.35,-244.09 1873.36,-240.62 1863.37,-237.09 1863.35,-244.09"/>
</g>
<!-- NeXusData[NXdetector, SampleRun]&#45;&gt;RawDetector[SampleRun] -->
<g id="edge43" class="edge">
<title>NeXusData[NXdetector, SampleRun]:e&#45;&gt;RawDetector[SampleRun]:w</title>
<path fill="none" stroke="black" d="M2492.5,-98.62C2546.63,-98.62 2559.27,-127.27 2607.72,-131.18"/>
<polygon fill="black" stroke="black" points="2607.36,-134.67 2617.49,-131.57 2607.63,-127.68 2607.36,-134.67"/>
</g>
<!-- PreopenNeXusFile -->
<g id="node27" class="node">
<title>PreopenNeXusFile</title>
<polygon fill="none" stroke="black" points="251.88,-274.25 103.12,-274.25 103.12,-249 251.88,-249 251.88,-274.25"/>
<text xml:space="preserve" text-anchor="start" x="111.12" y="-256.95" font-family="Times,serif" font-size="14.00">PreopenNeXusFile</text>
</g>
<!-- PreopenNeXusFile&#45;&gt;NeXusFileSpec[SampleRun] -->
<g id="edge27" class="edge">
<title>PreopenNeXusFile:e&#45;&gt;NeXusFileSpec[SampleRun]:w</title>
<path fill="none" stroke="black" d="M252.88,-261.62C342.28,-261.62 367.01,-248.78 450.98,-247.7"/>
<polygon fill="black" stroke="black" points="450.88,-251.2 460.86,-247.63 450.84,-244.2 450.88,-251.2"/>
</g>
<!-- NeXusTransformationChain[NXdetector, SampleRun]&#45;&gt;NeXusTransformation[NXdetector, SampleRun] -->
<g id="edge31" class="edge">
<title>NeXusTransformationChain[NXdetector, SampleRun]:e&#45;&gt;NeXusTransformation[NXdetector, SampleRun]:w</title>
<path fill="none" stroke="black" d="M1675.75,-232.62C1758.88,-232.62 1781.7,-216.21 1859.41,-214.73"/>
<polygon fill="black" stroke="black" points="1859.27,-218.23 1869.24,-214.64 1859.2,-211.23 1859.27,-218.23"/>
</g>
<!-- NeXusTransformationChain[NXsample, SampleRun]&#45;&gt;NeXusTransformation[NXsample, SampleRun] -->
<g id="edge34" class="edge">
<title>NeXusTransformationChain[NXsample, SampleRun]:e&#45;&gt;NeXusTransformation[NXsample, SampleRun]:w</title>
<path fill="none" stroke="black" d="M1672.75,-284.62C1758.59,-284.62 1782.08,-268.14 1862.55,-266.72"/>
<polygon fill="black" stroke="black" points="1862.27,-270.22 1872.24,-266.64 1862.21,-263.22 1862.27,-270.22"/>
</g>
<!-- NeXusTransformationChain[NXsource, SampleRun]&#45;&gt;NeXusTransformation[NXsource, SampleRun] -->
<g id="edge37" class="edge">
<title>NeXusTransformationChain[NXsource, SampleRun]:e&#45;&gt;NeXusTransformation[NXsource, SampleRun]:w</title>
<path fill="none" stroke="black" d="M1671.62,-258.62C1758.42,-258.62 1782.18,-242.14 1863.56,-240.72"/>
<polygon fill="black" stroke="black" points="1863.39,-244.22 1873.36,-240.64 1863.33,-237.22 1863.39,-244.22"/>
</g>
<!-- TransformationTimeFilter[NXdetector, SampleRun] -->
<g id="node31" class="node">
<title>TransformationTimeFilter[NXdetector, SampleRun]</title>
<polygon fill="none" stroke="black" points="1674.75,-374.75 1505.75,-374.75 1505.75,-352.5 1674.75,-352.5 1674.75,-374.75"/>
<text xml:space="preserve" text-anchor="start" x="1513.75" y="-359.35" font-family="Times,serif" font-size="12.00">[NXdetector, SampleRun]</text>
</g>
<!-- TransformationTimeFilter[NXdetector, SampleRun]&#45;&gt;NeXusTransformation[NXdetector, SampleRun] -->
<g id="edge33" class="edge">
<title>TransformationTimeFilter[NXdetector, SampleRun]:e&#45;&gt;NeXusTransformation[NXdetector, SampleRun]:w</title>
<path fill="none" stroke="black" d="M1675.75,-363.62C1748.5,-363.62 1708.31,-268.58 1769.75,-229.62 1804.78,-207.41 1822.24,-213.27 1859.64,-214.45"/>
<polygon fill="black" stroke="black" points="1859.18,-217.94 1869.24,-214.6 1859.29,-210.94 1859.18,-217.94"/>
</g>
<!-- NeXusTransformation[NXsample, SampleRun]&#45;&gt;Position[NXsample, SampleRun] -->
<g id="edge40" class="edge">
<title>NeXusTransformation[NXsample, SampleRun]:e&#45;&gt;Position[NXsample, SampleRun]:w</title>
<path fill="none" stroke="black" d="M2038.75,-266.62C2138.19,-266.62 2165.69,-257.37 2259.64,-256.67"/>
<polygon fill="black" stroke="black" points="2259.62,-260.17 2269.61,-256.63 2259.6,-253.17 2259.62,-260.17"/>
</g>
<!-- TransformationTimeFilter[NXsample, SampleRun] -->
<g id="node33" class="node">
<title>TransformationTimeFilter[NXsample, SampleRun]</title>
<polygon fill="none" stroke="black" points="1671.75,-426.75 1508.75,-426.75 1508.75,-404.5 1671.75,-404.5 1671.75,-426.75"/>
<text xml:space="preserve" text-anchor="start" x="1516.75" y="-411.35" font-family="Times,serif" font-size="12.00">[NXsample, SampleRun]</text>
</g>
<!-- TransformationTimeFilter[NXsample, SampleRun]&#45;&gt;NeXusTransformation[NXsample, SampleRun] -->
<g id="edge36" class="edge">
<title>TransformationTimeFilter[NXsample, SampleRun]:e&#45;&gt;NeXusTransformation[NXsample, SampleRun]:w</title>
<path fill="none" stroke="black" d="M1672.75,-415.62C1780.04,-415.62 1763.89,-276.92 1862.5,-267.16"/>
<polygon fill="black" stroke="black" points="1862.42,-270.67 1872.24,-266.7 1862.08,-263.68 1862.42,-270.67"/>
</g>
<!-- NeXusTransformation[NXsource, SampleRun]&#45;&gt;Position[NXsource, SampleRun] -->
<g id="edge41" class="edge">
<title>NeXusTransformation[NXsource, SampleRun]:e&#45;&gt;Position[NXsource, SampleRun]:w</title>
<path fill="none" stroke="black" d="M2037.62,-240.62C2138.12,-240.62 2165.85,-231.35 2260.95,-230.67"/>
<polygon fill="black" stroke="black" points="2260.75,-234.17 2270.74,-230.63 2260.72,-227.17 2260.75,-234.17"/>
</g>
<!-- TransformationTimeFilter[NXsource, SampleRun] -->
<g id="node35" class="node">
<title>TransformationTimeFilter[NXsource, SampleRun]</title>
<polygon fill="none" stroke="black" points="1670.62,-400.75 1509.88,-400.75 1509.88,-378.5 1670.62,-378.5 1670.62,-400.75"/>
<text xml:space="preserve" text-anchor="start" x="1517.88" y="-385.35" font-family="Times,serif" font-size="12.00">[NXsource, SampleRun]</text>
</g>
<!-- TransformationTimeFilter[NXsource, SampleRun]&#45;&gt;NeXusTransformation[NXsource, SampleRun] -->
<g id="edge39" class="edge">
<title>TransformationTimeFilter[NXsource, SampleRun]:e&#45;&gt;NeXusTransformation[NXsource, SampleRun]:w</title>
<path fill="none" stroke="black" d="M1671.62,-389.62C1685.01,-389.62 1688.17,-383.98 1697.75,-374.62 1741.96,-331.42 1718.19,-289.72 1769.75,-255.62 1805.81,-231.78 1824.42,-239.03 1863.56,-240.42"/>
<polygon fill="black" stroke="black" points="1863.3,-243.92 1873.36,-240.6 1863.43,-236.92 1863.3,-243.92"/>
</g>
<!-- PulseStrideOffset -->
<g id="node36" class="node">
<title>PulseStrideOffset</title>
<polygon fill="none" stroke="black" points="2791.62,-111.25 2649.62,-111.25 2649.62,-86 2791.62,-86 2791.62,-111.25"/>
<text xml:space="preserve" text-anchor="start" x="2657.62" y="-93.95" font-family="Times,serif" font-size="14.00">PulseStrideOffset</text>
</g>
<!-- PulseStrideOffset&#45;&gt;WavelengthDetector[SampleRun] -->
<g id="edge47" class="edge">
<title>PulseStrideOffset:e&#45;&gt;WavelengthDetector[SampleRun]:w</title>
<path fill="none" stroke="black" d="M2792.62,-98.62C2858.43,-98.62 2876.94,-112.86 2937.39,-114.48"/>
<polygon fill="black" stroke="black" points="2937.19,-117.97 2947.24,-114.61 2937.28,-110.98 2937.19,-117.97"/>
</g>
<!-- RawDetector[SampleRun]&#45;&gt;WavelengthDetector[SampleRun] -->
<g id="edge44" class="edge">
<title>RawDetector[SampleRun]:e&#45;&gt;WavelengthDetector[SampleRun]:w</title>
<path fill="none" stroke="black" d="M2822.25,-131.62C2874.99,-131.62 2889.97,-116.93 2937.4,-114.87"/>
<polygon fill="black" stroke="black" points="2937.31,-118.37 2947.24,-114.66 2937.16,-111.37 2937.31,-118.37"/>
</g>
</g>
</svg>
