<?xml version="1.0" encoding="UTF-8" standalone="no"?>
<!DOCTYPE svg PUBLIC "-//W3C//DTD SVG 1.1//EN"
 "http://www.w3.org/Graphics/SVG/1.1/DTD/svg11.dtd">
<!-- Generated by graphviz version 14.1.2 (20260126.1125)
 -->
<!-- Pages: 1 -->
<svg width="560pt" height="378pt"
 viewBox="0.00 0.00 560.00 378.00" xmlns="http://www.w3.org/2000/svg" xmlns:xlink="http://www.w3.org/1999/xlink">
<g id="graph0" class="graph" transform="scale(1 1) rotate(0) translate(4 374.25)">
<polygon fill="white" stroke="none" points="-4,4 -4,-374.25 556.38,-374.25 556.38,4 -4,4"/>
<!-- DetectorName -->
<g id="node1" class="node">
<title>DetectorName</title>
<polygon fill="none" stroke="black" points="448.12,-309 261.88,-309 261.88,-276 448.12,-276 448.12,-309"/>
<text xml:space="preserve" text-anchor="start" x="302.88" y="-292.7" font-family="Times,serif" font-size="14.00">DetectorName</text>
<text xml:space="preserve" text-anchor="start" x="269.88" y="-281.55" font-family="Times,serif" font-size="11.00">via:</text>
<text xml:space="preserve" text-anchor="start" x="290.12" y="-281.55" font-family="Times,serif" font-style="italic" font-size="11.00">detector_name_from_index</text>
</g>
<!-- DetectorBankPrefix -->
<g id="node2" class="node">
<title>DetectorBankPrefix</title>
<polygon fill="none" stroke="black" points="364.25,-240 169.75,-240 169.75,-207 364.25,-207 364.25,-240"/>
<text xml:space="preserve" text-anchor="start" x="196.88" y="-223.7" font-family="Times,serif" font-size="14.00">DetectorBankPrefix</text>
<text xml:space="preserve" text-anchor="start" x="177.75" y="-212.55" font-family="Times,serif" font-size="11.00">via:</text>
<text xml:space="preserve" text-anchor="start" x="198" y="-212.55" font-family="Times,serif" font-style="italic" font-size="11.00">load_event_data_bank_name</text>
</g>
<!-- DetectorName&#45;&gt;DetectorBankPrefix -->
<g id="edge1" class="edge">
<title>DetectorName&#45;&gt;DetectorBankPrefix</title>
<path fill="none" stroke="black" d="M334.15,-275.62C323.05,-267.17 309.2,-256.63 296.97,-247.32"/>
<polygon fill="black" stroke="black" points="299.29,-244.69 289.21,-241.41 295.05,-250.26 299.29,-244.69"/>
</g>
<!-- RawEventProbability -->
<g id="node5" class="node">
<title>RawEventProbability</title>
<polygon fill="none" stroke="black" points="350.75,-171 183.25,-171 183.25,-138 350.75,-138 350.75,-171"/>
<text xml:space="preserve" text-anchor="start" x="191.25" y="-154.7" font-family="Times,serif" font-size="14.00">RawEventProbability</text>
<text xml:space="preserve" text-anchor="start" x="198.38" y="-143.55" font-family="Times,serif" font-size="11.00">via:</text>
<text xml:space="preserve" text-anchor="start" x="218.62" y="-143.55" font-family="Times,serif" font-style="italic" font-size="11.00">load_raw_event_data</text>
</g>
<!-- DetectorName&#45;&gt;RawEventProbability -->
<g id="edge11" class="edge">
<title>DetectorName&#45;&gt;RawEventProbability</title>
<path fill="none" stroke="black" d="M363.01,-275.62C370.85,-257.65 379.88,-228.13 367,-207 358.98,-193.85 346.41,-183.92 332.86,-176.46"/>
<polygon fill="black" stroke="black" points="334.73,-173.49 324.22,-172.14 331.6,-179.75 334.73,-173.49"/>
</g>
<!-- DetectorBankPrefix&#45;&gt;RawEventProbability -->
<g id="edge12" class="edge">
<title>DetectorBankPrefix&#45;&gt;RawEventProbability</title>
<path fill="none" stroke="black" d="M267,-206.62C267,-199.45 267,-190.76 267,-182.6"/>
<polygon fill="black" stroke="black" points="270.5,-182.78 267,-172.78 263.5,-182.78 270.5,-182.78"/>
</g>
<!-- FilePath -->
<g id="node3" class="node">
<title>FilePath</title>
<polygon fill="none" stroke="black" points="235.62,-305.12 160.38,-305.12 160.38,-279.88 235.62,-279.88 235.62,-305.12"/>
<text xml:space="preserve" text-anchor="start" x="168.38" y="-287.82" font-family="Times,serif" font-size="14.00">FilePath</text>
</g>
<!-- FilePath&#45;&gt;DetectorBankPrefix -->
<g id="edge2" class="edge">
<title>FilePath&#45;&gt;DetectorBankPrefix</title>
<path fill="none" stroke="black" d="M210.34,-279.52C219.29,-270.82 231.71,-258.77 242.64,-248.16"/>
<polygon fill="black" stroke="black" points="244.8,-250.94 249.53,-241.46 239.92,-245.92 244.8,-250.94"/>
</g>
<!-- FilePath&#45;&gt;RawEventProbability -->
<g id="edge10" class="edge">
<title>FilePath&#45;&gt;RawEventProbability</title>
<path fill="none" stroke="black" d="M187.32,-279.65C173.4,-262.68 152.44,-230.88 167,-207 175.02,-193.85 187.59,-183.92 201.14,-176.46"/>
<polygon fill="black" stroke="black" points="202.4,-179.75 209.78,-172.14 199.27,-173.49 202.4,-179.75"/>
</g>
<!-- DetectorIndex -->
<g id="node4" class="node">
<title>DetectorIndex</title>
<polygon fill="none" stroke="red" stroke-dasharray="5,2" points="414,-370.25 296,-370.25 296,-345 414,-345 414,-370.25"/>
<text xml:space="preserve" text-anchor="start" x="304" y="-352.95" font-family="Times,serif" font-size="14.00" fill="red">DetectorIndex</text>
</g>
<!-- DetectorIndex&#45;&gt;DetectorName -->
<g id="edge3" class="edge">
<title>DetectorIndex&#45;&gt;DetectorName</title>
<path fill="none" stroke="black" d="M355,-344.75C355,-337.95 355,-329.13 355,-320.72"/>
<polygon fill="black" stroke="black" points="358.5,-320.89 355,-310.89 351.5,-320.89 358.5,-320.89"/>
</g>
<!-- MaximumProbability -->
<g id="node6" class="node">
<title>MaximumProbability</title>
<polygon fill="none" stroke="black" points="166,-102 0,-102 0,-69 166,-69 166,-102"/>
<text xml:space="preserve" text-anchor="start" x="8" y="-85.7" font-family="Times,serif" font-size="14.00">MaximumProbability</text>
<text xml:space="preserve" text-anchor="start" x="12.5" y="-74.55" font-family="Times,serif" font-size="11.00">via:</text>
<text xml:space="preserve" text-anchor="start" x="32.75" y="-74.55" font-family="Times,serif" font-style="italic" font-size="11.00">maximum_probability</text>
</g>
<!-- RawEventProbability&#45;&gt;MaximumProbability -->
<g id="edge4" class="edge">
<title>RawEventProbability&#45;&gt;MaximumProbability</title>
<path fill="none" stroke="black" d="M223.39,-137.62C197.69,-128.26 164.94,-116.34 137.53,-106.36"/>
<polygon fill="black" stroke="black" points="138.95,-103.15 128.35,-103.01 136.55,-109.72 138.95,-103.15"/>
</g>
<!-- MaximumTimeOfArrival -->
<g id="node7" class="node">
<title>MaximumTimeOfArrival</title>
<polygon fill="none" stroke="black" points="360.88,-102 173.12,-102 173.12,-69 360.88,-69 360.88,-102"/>
<text xml:space="preserve" text-anchor="start" x="181.12" y="-85.7" font-family="Times,serif" font-size="14.00">MaximumTimeOfArrival</text>
<text xml:space="preserve" text-anchor="start" x="189.75" y="-74.55" font-family="Times,serif" font-size="11.00">via:</text>
<text xml:space="preserve" text-anchor="start" x="210" y="-74.55" font-family="Times,serif" font-style="italic" font-size="11.00">calculate_maximum_toa</text>
</g>
<!-- RawEventProbability&#45;&gt;MaximumTimeOfArrival -->
<g id="edge5" class="edge">
<title>RawEventProbability&#45;&gt;MaximumTimeOfArrival</title>
<path fill="none" stroke="black" d="M267,-137.62C267,-130.45 267,-121.76 267,-113.6"/>
<polygon fill="black" stroke="black" points="270.5,-113.78 267,-103.78 263.5,-113.78 270.5,-113.78"/>
</g>
<!-- MinimumTimeOfArrival -->
<g id="node8" class="node">
<title>MinimumTimeOfArrival</title>
<polygon fill="none" stroke="black" points="552.38,-102 367.62,-102 367.62,-69 552.38,-69 552.38,-102"/>
<text xml:space="preserve" text-anchor="start" x="375.62" y="-85.7" font-family="Times,serif" font-size="14.00">MinimumTimeOfArrival</text>
<text xml:space="preserve" text-anchor="start" x="383.88" y="-74.55" font-family="Times,serif" font-size="11.00">via:</text>
<text xml:space="preserve" text-anchor="start" x="404.12" y="-74.55" font-family="Times,serif" font-style="italic" font-size="11.00">calculate_minimum_toa</text>
</g>
<!-- RawEventProbability&#45;&gt;MinimumTimeOfArrival -->
<g id="edge6" class="edge">
<title>RawEventProbability&#45;&gt;MinimumTimeOfArrival</title>
<path fill="none" stroke="black" d="M312.74,-137.62C339.82,-128.22 374.36,-116.23 403.18,-106.22"/>
<polygon fill="black" stroke="black" points="404.19,-109.58 412.49,-102.99 401.9,-102.97 404.19,-109.58"/>
</g>
<!-- NMXRawDataMetadata -->
<g id="node9" class="node">
<title>NMXRawDataMetadata</title>
<polygon fill="none" stroke="black" points="365.38,-33 168.62,-33 168.62,0 365.38,0 365.38,-33"/>
<text xml:space="preserve" text-anchor="start" x="182.62" y="-16.7" font-family="Times,serif" font-size="14.00">NMXRawDataMetadata</text>
<text xml:space="preserve" text-anchor="start" x="176.62" y="-5.55" font-family="Times,serif" font-size="11.00">via:</text>
<text xml:space="preserve" text-anchor="start" x="196.88" y="-5.55" font-family="Times,serif" font-style="italic" font-size="11.00">retrieve_raw_data_metadata</text>
</g>
<!-- MaximumProbability&#45;&gt;NMXRawDataMetadata -->
<g id="edge9" class="edge">
<title>MaximumProbability&#45;&gt;NMXRawDataMetadata</title>
<path fill="none" stroke="black" d="M126.61,-68.62C152.31,-59.26 185.06,-47.34 212.47,-37.36"/>
<polygon fill="black" stroke="black" points="213.45,-40.72 221.65,-34.01 211.05,-34.15 213.45,-40.72"/>
</g>
<!-- MaximumTimeOfArrival&#45;&gt;NMXRawDataMetadata -->
<g id="edge8" class="edge">
<title>MaximumTimeOfArrival&#45;&gt;NMXRawDataMetadata</title>
<path fill="none" stroke="black" d="M267,-68.62C267,-61.45 267,-52.76 267,-44.6"/>
<polygon fill="black" stroke="black" points="270.5,-44.78 267,-34.78 263.5,-44.78 270.5,-44.78"/>
</g>
<!-- MinimumTimeOfArrival&#45;&gt;NMXRawDataMetadata -->
<g id="edge7" class="edge">
<title>MinimumTimeOfArrival&#45;&gt;NMXRawDataMetadata</title>
<path fill="none" stroke="black" d="M414.26,-68.62C387.18,-59.22 352.64,-47.23 323.82,-37.22"/>
<polygon fill="black" stroke="black" points="325.1,-33.97 314.51,-33.99 322.81,-40.58 325.1,-33.97"/>
</g>
</g>
</svg>
