<?xml version="1.0" encoding="UTF-8" standalone="no"?>
<!DOCTYPE svg PUBLIC "-//W3C//DTD SVG 1.1//EN"
 "http://www.w3.org/Graphics/SVG/1.1/DTD/svg11.dtd">
<!-- Generated by graphviz version 14.1.2 (20260126.1125)
 -->
<!-- Pages: 1 -->
<svg width="979pt" height="654pt"
 viewBox="0.00 0.00 979.00 654.00" xmlns="http://www.w3.org/2000/svg" xmlns:xlink="http://www.w3.org/1999/xlink">
<g id="graph0" class="graph" transform="scale(1 1) rotate(0) translate(4 650.25)">
<polygon fill="white" stroke="none" points="-4,4 -4,-650.25 974.75,-650.25 974.75,4 -4,4"/>
<!-- FilePath -->
<g id="node1" class="node">
<title>FilePath</title>
<polygon fill="none" stroke="black" points="361.62,-581.12 286.38,-581.12 286.38,-555.88 361.62,-555.88 361.62,-581.12"/>
<text xml:space="preserve" text-anchor="start" x="294.38" y="-563.83" font-family="Times,serif" font-size="14.00">FilePath</text>
</g>
<!-- CrystalRotation -->
<g id="node2" class="node">
<title>CrystalRotation</title>
<polygon fill="none" stroke="black" points="154,-447 0,-447 0,-414 154,-414 154,-447"/>
<text xml:space="preserve" text-anchor="start" x="20.75" y="-430.7" font-family="Times,serif" font-size="14.00">CrystalRotation</text>
<text xml:space="preserve" text-anchor="start" x="8" y="-419.55" font-family="Times,serif" font-size="11.00">via:</text>
<text xml:space="preserve" text-anchor="start" x="28.25" y="-419.55" font-family="Times,serif" font-style="italic" font-size="11.00">load_crystal_rotation</text>
</g>
<!-- FilePath&#45;&gt;CrystalRotation -->
<g id="edge1" class="edge">
<title>FilePath&#45;&gt;CrystalRotation</title>
<path fill="none" stroke="black" d="M286.08,-564.12C246.6,-559.03 184.44,-546.5 140,-516 118.33,-501.13 101.15,-476.35 90.24,-457.46"/>
<polygon fill="black" stroke="black" points="93.32,-455.8 85.42,-448.73 87.19,-459.18 93.32,-455.8"/>
</g>
<!-- McStasInstrument -->
<g id="node3" class="node">
<title>McStasInstrument</title>
<polygon fill="none" stroke="black" points="334.38,-516 143.62,-516 143.62,-483 334.38,-483 334.38,-516"/>
<text xml:space="preserve" text-anchor="start" x="172.25" y="-499.7" font-family="Times,serif" font-size="14.00">McStasInstrument</text>
<text xml:space="preserve" text-anchor="start" x="151.62" y="-488.55" font-family="Times,serif" font-size="11.00">via:</text>
<text xml:space="preserve" text-anchor="start" x="171.88" y="-488.55" font-family="Times,serif" font-style="italic" font-size="11.00">read_mcstas_geometry_xml</text>
</g>
<!-- FilePath&#45;&gt;McStasInstrument -->
<g id="edge7" class="edge">
<title>FilePath&#45;&gt;McStasInstrument</title>
<path fill="none" stroke="black" d="M308.8,-555.52C297.44,-546.57 281.57,-534.06 267.83,-523.23"/>
<polygon fill="black" stroke="black" points="270.39,-520.78 260.37,-517.34 266.05,-526.28 270.39,-520.78"/>
</g>
<!-- DetectorBankPrefix(panel) -->
<g id="node5" class="node">
<title>DetectorBankPrefix(panel)</title>
<polygon fill="none" stroke="black" points="576.88,-516 374.79,-516 371.12,-512.33 371.12,-483 573.21,-483 576.88,-486.67 576.88,-516"/>
<polyline fill="none" stroke="black" points="573.21,-512.33 371.12,-512.33"/>
<polyline fill="none" stroke="black" points="573.21,-512.33 573.21,-483"/>
<polyline fill="none" stroke="black" points="573.21,-512.33 576.88,-516"/>
<text xml:space="preserve" text-anchor="start" x="379.12" y="-499.7" font-family="Times,serif" font-size="14.00">DetectorBankPrefix(panel)</text>
<text xml:space="preserve" text-anchor="start" x="384.75" y="-488.55" font-family="Times,serif" font-size="11.00">via:</text>
<text xml:space="preserve" text-anchor="start" x="405" y="-488.55" font-family="Times,serif" font-style="italic" font-size="11.00">load_event_data_bank_name</text>
</g>
<!-- FilePath&#45;&gt;DetectorBankPrefix(panel) -->
<g id="edge4" class="edge">
<title>FilePath&#45;&gt;DetectorBankPrefix(panel)</title>
<path fill="none" stroke="black" d="M350.82,-555.52C372.2,-545.97 402.64,-532.37 427.92,-521.08"/>
<polygon fill="black" stroke="black" points="429.3,-524.3 437.01,-517.02 426.45,-517.91 429.3,-524.3"/>
</g>
<!-- RawEventProbability(panel) -->
<g id="node8" class="node">
<title>RawEventProbability(panel)</title>
<polygon fill="none" stroke="black" points="897.5,-447 684.17,-447 680.5,-443.33 680.5,-414 893.83,-414 897.5,-417.67 897.5,-447"/>
<polyline fill="none" stroke="black" points="893.83,-443.33 680.5,-443.33"/>
<polyline fill="none" stroke="black" points="893.83,-443.33 893.83,-414"/>
<polyline fill="none" stroke="black" points="893.83,-443.33 897.5,-447"/>
<text xml:space="preserve" text-anchor="start" x="688.5" y="-430.7" font-family="Times,serif" font-size="14.00">RawEventProbability(panel)</text>
<text xml:space="preserve" text-anchor="start" x="720.38" y="-419.55" font-family="Times,serif" font-size="11.00">via:</text>
<text xml:space="preserve" text-anchor="start" x="740.62" y="-419.55" font-family="Times,serif" font-style="italic" font-size="11.00">load_raw_event_data</text>
</g>
<!-- FilePath&#45;&gt;RawEventProbability(panel) -->
<g id="edge27" class="edge">
<title>FilePath&#45;&gt;RawEventProbability(panel)</title>
<path fill="none" stroke="black" d="M326.46,-555.61C331.05,-536.76 342.8,-500.36 368,-483 422.15,-445.69 590.81,-454.69 668.94,-447.78"/>
<polygon fill="black" stroke="black" points="669.15,-451.28 678.72,-446.75 668.41,-444.32 669.15,-451.28"/>
</g>
<!-- NMXExperimentMetadata -->
<g id="node12" class="node">
<title>NMXExperimentMetadata</title>
<polygon fill="none" stroke="black" points="267.12,-378 62.87,-378 62.87,-345 267.12,-345 267.12,-378"/>
<text xml:space="preserve" text-anchor="start" x="70.88" y="-361.7" font-family="Times,serif" font-size="14.00">NMXExperimentMetadata</text>
<text xml:space="preserve" text-anchor="start" x="79.12" y="-350.55" font-family="Times,serif" font-size="11.00">via:</text>
<text xml:space="preserve" text-anchor="start" x="99.38" y="-350.55" font-family="Times,serif" font-style="italic" font-size="11.00">load_experiment_metadata</text>
</g>
<!-- CrystalRotation&#45;&gt;NMXExperimentMetadata -->
<g id="edge13" class="edge">
<title>CrystalRotation&#45;&gt;NMXExperimentMetadata</title>
<path fill="none" stroke="black" d="M97.85,-413.62C108.95,-405.17 122.8,-394.63 135.03,-385.32"/>
<polygon fill="black" stroke="black" points="136.95,-388.26 142.79,-379.41 132.71,-382.69 136.95,-388.26"/>
</g>
<!-- McStasInstrument&#45;&gt;CrystalRotation -->
<g id="edge2" class="edge">
<title>McStasInstrument&#45;&gt;CrystalRotation</title>
<path fill="none" stroke="black" d="M200.61,-482.62C178.38,-473.43 150.16,-461.76 126.3,-451.89"/>
<polygon fill="black" stroke="black" points="127.65,-448.66 117.08,-448.07 124.98,-455.13 127.65,-448.66"/>
</g>
<!-- NMXDetectorMetadata(panel) -->
<g id="node11" class="node">
<title>NMXDetectorMetadata(panel)</title>
<polygon fill="none" stroke="black" points="408,-447 179.67,-447 176,-443.33 176,-414 404.33,-414 408,-417.67 408,-447"/>
<polyline fill="none" stroke="black" points="404.33,-443.33 176,-443.33"/>
<polyline fill="none" stroke="black" points="404.33,-443.33 404.33,-414"/>
<polyline fill="none" stroke="black" points="404.33,-443.33 408,-447"/>
<text xml:space="preserve" text-anchor="start" x="184" y="-430.7" font-family="Times,serif" font-size="14.00">NMXDetectorMetadata(panel)</text>
<text xml:space="preserve" text-anchor="start" x="214.38" y="-419.55" font-family="Times,serif" font-size="11.00">via:</text>
<text xml:space="preserve" text-anchor="start" x="234.62" y="-419.55" font-family="Times,serif" font-style="italic" font-size="11.00">load_detector_metadata</text>
</g>
<!-- McStasInstrument&#45;&gt;NMXDetectorMetadata(panel) -->
<g id="edge10" class="edge">
<title>McStasInstrument&#45;&gt;NMXDetectorMetadata(panel)</title>
<path fill="none" stroke="black" d="M251.56,-482.62C257.83,-474.7 265.56,-464.93 272.57,-456.06"/>
<polygon fill="black" stroke="black" points="275.13,-458.47 278.59,-448.45 269.64,-454.12 275.13,-458.47"/>
</g>
<!-- McStasInstrument&#45;&gt;NMXExperimentMetadata -->
<g id="edge12" class="edge">
<title>McStasInstrument&#45;&gt;NMXExperimentMetadata</title>
<path fill="none" stroke="black" d="M208.98,-482.63C195.66,-473.95 181.17,-461.91 173,-447 163.44,-429.55 161.74,-407 162.27,-389.58"/>
<polygon fill="black" stroke="black" points="165.75,-389.91 162.85,-379.72 158.76,-389.5 165.75,-389.91"/>
</g>
<!-- PixelIds(panel) -->
<g id="node18" class="node">
<title>PixelIds(panel)</title>
<polygon fill="none" stroke="black" points="550.62,-447 419.04,-447 415.38,-443.33 415.38,-414 546.96,-414 550.62,-417.67 550.62,-447"/>
<polyline fill="none" stroke="black" points="546.96,-443.33 415.38,-443.33"/>
<polyline fill="none" stroke="black" points="546.96,-443.33 546.96,-414"/>
<polyline fill="none" stroke="black" points="546.96,-443.33 550.62,-447"/>
<text xml:space="preserve" text-anchor="start" x="429.75" y="-430.7" font-family="Times,serif" font-size="14.00">PixelIds(panel)</text>
<text xml:space="preserve" text-anchor="start" x="423.38" y="-419.55" font-family="Times,serif" font-size="11.00">via:</text>
<text xml:space="preserve" text-anchor="start" x="443.62" y="-419.55" font-family="Times,serif" font-style="italic" font-size="11.00">retrieve_pixel_ids</text>
</g>
<!-- McStasInstrument&#45;&gt;PixelIds(panel) -->
<g id="edge24" class="edge">
<title>McStasInstrument&#45;&gt;PixelIds(panel)</title>
<path fill="none" stroke="black" d="M297.13,-482.54C332.29,-472.88 377.29,-460.53 414.21,-450.39"/>
<polygon fill="black" stroke="black" points="414.71,-453.88 423.43,-447.86 412.86,-447.13 414.71,-453.88"/>
</g>
<!-- DetectorName(panel) -->
<g id="node4" class="node">
<title>DetectorName(panel)</title>
<polygon fill="none" stroke="black" points="603.12,-585 420.54,-585 416.88,-581.33 416.88,-552 599.46,-552 603.12,-555.67 603.12,-585"/>
<polyline fill="none" stroke="black" points="599.46,-581.33 416.88,-581.33"/>
<polyline fill="none" stroke="black" points="599.46,-581.33 599.46,-552"/>
<polyline fill="none" stroke="black" points="599.46,-581.33 603.12,-585"/>
<text xml:space="preserve" text-anchor="start" x="433.12" y="-568.7" font-family="Times,serif" font-size="14.00">DetectorName(panel)</text>
<text xml:space="preserve" text-anchor="start" x="424.88" y="-557.55" font-family="Times,serif" font-size="11.00">via:</text>
<text xml:space="preserve" text-anchor="start" x="445.12" y="-557.55" font-family="Times,serif" font-style="italic" font-size="11.00">detector_name_from_index</text>
</g>
<!-- DetectorName(panel)&#45;&gt;DetectorBankPrefix(panel) -->
<g id="edge3" class="edge">
<title>DetectorName(panel)&#45;&gt;DetectorBankPrefix(panel)</title>
<path fill="none" stroke="black" d="M501.47,-551.62C497.39,-544.03 492.4,-534.75 487.8,-526.19"/>
<polygon fill="black" stroke="black" points="491,-524.75 483.19,-517.6 484.84,-528.06 491,-524.75"/>
</g>
<!-- DetectorName(panel)&#45;&gt;RawEventProbability(panel) -->
<g id="edge28" class="edge">
<title>DetectorName(panel)&#45;&gt;RawEventProbability(panel)</title>
<path fill="none" stroke="black" d="M542.55,-551.63C592.92,-527.08 689.78,-479.86 745.91,-452.51"/>
<polygon fill="black" stroke="black" points="747.41,-455.67 754.86,-448.14 744.34,-449.38 747.41,-455.67"/>
</g>
<!-- DetectorName(panel)&#45;&gt;NMXDetectorMetadata(panel) -->
<g id="edge11" class="edge">
<title>DetectorName(panel)&#45;&gt;NMXDetectorMetadata(panel)</title>
<path fill="none" stroke="black" d="M445.69,-551.52C420.16,-543.36 391.38,-531.76 368,-516 364.65,-513.74 334.44,-479.75 313.14,-455.58"/>
<polygon fill="black" stroke="black" points="316,-453.52 306.76,-448.33 310.74,-458.15 316,-453.52"/>
</g>
<!-- DetectorName(panel)&#45;&gt;PixelIds(panel) -->
<g id="edge25" class="edge">
<title>DetectorName(panel)&#45;&gt;PixelIds(panel)</title>
<path fill="none" stroke="black" d="M543.55,-551.71C557.51,-543.24 572.24,-531.35 580,-516 586.62,-502.91 587.56,-495.57 580,-483 572.21,-470.04 559.94,-460.17 546.71,-452.72"/>
<polygon fill="black" stroke="black" points="548.31,-449.61 537.82,-448.17 545.13,-455.84 548.31,-449.61"/>
</g>
<!-- DetectorBankPrefix(panel)&#45;&gt;RawEventProbability(panel) -->
<g id="edge29" class="edge">
<title>DetectorBankPrefix(panel)&#45;&gt;RawEventProbability(panel)</title>
<path fill="none" stroke="black" d="M549.05,-482.54C595.31,-472.7 654.78,-460.05 702.94,-449.8"/>
<polygon fill="black" stroke="black" points="703.45,-453.28 712.5,-447.77 701.99,-446.43 703.45,-453.28"/>
</g>
<!-- DetectorIndex(panel) -->
<g id="node6" class="node">
<title>DetectorIndex(panel)</title>
<polygon fill="none" stroke="black" points="593.75,-646.25 429.06,-646.25 426.25,-643.44 426.25,-621 590.94,-621 593.75,-623.81 593.75,-646.25"/>
<polyline fill="none" stroke="black" points="590.94,-643.44 426.25,-643.44"/>
<polyline fill="none" stroke="black" points="590.94,-643.44 590.94,-621"/>
<polyline fill="none" stroke="black" points="590.94,-643.44 593.75,-646.25"/>
<text xml:space="preserve" text-anchor="start" x="434.25" y="-628.95" font-family="Times,serif" font-size="14.00">DetectorIndex(panel)</text>
</g>
<!-- DetectorIndex(panel)&#45;&gt;DetectorName(panel) -->
<g id="edge5" class="edge">
<title>DetectorIndex(panel)&#45;&gt;DetectorName(panel)</title>
<path fill="none" stroke="black" d="M510,-620.75C510,-613.95 510,-605.13 510,-596.72"/>
<polygon fill="black" stroke="black" points="513.5,-596.89 510,-586.89 506.5,-596.89 513.5,-596.89"/>
</g>
<!-- MaximumCounts -->
<g id="node7" class="node">
<title>MaximumCounts</title>
<polygon fill="none" stroke="black" points="747.75,-374.12 610.25,-374.12 610.25,-348.88 747.75,-348.88 747.75,-374.12"/>
<text xml:space="preserve" text-anchor="start" x="618.25" y="-356.82" font-family="Times,serif" font-size="14.00">MaximumCounts</text>
</g>
<!-- McStasWeight2CountScaleFactor(panel) -->
<g id="node10" class="node">
<title>McStasWeight2CountScaleFactor(panel)</title>
<polygon fill="none" stroke="black" points="831.38,-309 530.29,-309 526.62,-305.33 526.62,-276 827.71,-276 831.38,-279.67 831.38,-309"/>
<polyline fill="none" stroke="black" points="827.71,-305.33 526.62,-305.33"/>
<polyline fill="none" stroke="black" points="827.71,-305.33 827.71,-276"/>
<polyline fill="none" stroke="black" points="827.71,-305.33 831.38,-309"/>
<text xml:space="preserve" text-anchor="start" x="534.62" y="-292.7" font-family="Times,serif" font-size="14.00">McStasWeight2CountScaleFactor(panel)</text>
<text xml:space="preserve" text-anchor="start" x="552.25" y="-281.55" font-family="Times,serif" font-size="11.00">via:</text>
<text xml:space="preserve" text-anchor="start" x="572.5" y="-281.55" font-family="Times,serif" font-style="italic" font-size="11.00">mcstas_weight_to_probability_scalefactor</text>
</g>
<!-- MaximumCounts&#45;&gt;McStasWeight2CountScaleFactor(panel) -->
<g id="edge8" class="edge">
<title>MaximumCounts&#45;&gt;McStasWeight2CountScaleFactor(panel)</title>
<path fill="none" stroke="black" d="M679,-348.52C679,-340.71 679,-330.19 679,-320.43"/>
<polygon fill="black" stroke="black" points="682.5,-320.67 679,-310.67 675.5,-320.67 682.5,-320.67"/>
</g>
<!-- MaximumProbability(panel) -->
<g id="node9" class="node">
<title>MaximumProbability(panel)</title>
<polygon fill="none" stroke="black" points="970.75,-378 758.92,-378 755.25,-374.33 755.25,-345 967.08,-345 970.75,-348.67 970.75,-378"/>
<polyline fill="none" stroke="black" points="967.08,-374.33 755.25,-374.33"/>
<polyline fill="none" stroke="black" points="967.08,-374.33 967.08,-345"/>
<polyline fill="none" stroke="black" points="967.08,-374.33 970.75,-378"/>
<text xml:space="preserve" text-anchor="start" x="763.25" y="-361.7" font-family="Times,serif" font-size="14.00">MaximumProbability(panel)</text>
<text xml:space="preserve" text-anchor="start" x="792.5" y="-350.55" font-family="Times,serif" font-size="11.00">via:</text>
<text xml:space="preserve" text-anchor="start" x="812.75" y="-350.55" font-family="Times,serif" font-style="italic" font-size="11.00">maximum_probability</text>
</g>
<!-- RawEventProbability(panel)&#45;&gt;MaximumProbability(panel) -->
<g id="edge6" class="edge">
<title>RawEventProbability(panel)&#45;&gt;MaximumProbability(panel)</title>
<path fill="none" stroke="black" d="M806.54,-413.62C815.59,-405.42 826.83,-395.25 836.88,-386.15"/>
<polygon fill="black" stroke="black" points="839.15,-388.82 844.21,-379.51 834.45,-383.63 839.15,-388.82"/>
</g>
<!-- NMXReducedProbability(panel) -->
<g id="node13" class="node">
<title>NMXReducedProbability(panel)</title>
<polygon fill="none" stroke="black" points="602.88,-378 364.79,-378 361.12,-374.33 361.12,-345 599.21,-345 602.88,-348.67 602.88,-378"/>
<polyline fill="none" stroke="black" points="599.21,-374.33 361.12,-374.33"/>
<polyline fill="none" stroke="black" points="599.21,-374.33 599.21,-345"/>
<polyline fill="none" stroke="black" points="599.21,-374.33 602.88,-378"/>
<text xml:space="preserve" text-anchor="start" x="369.12" y="-361.7" font-family="Times,serif" font-size="14.00">NMXReducedProbability(panel)</text>
<text xml:space="preserve" text-anchor="start" x="388.25" y="-350.55" font-family="Times,serif" font-size="11.00">via:</text>
<text xml:space="preserve" text-anchor="start" x="408.5" y="-350.55" font-family="Times,serif" font-style="italic" font-size="11.00">reduce_raw_event_probability</text>
</g>
<!-- RawEventProbability(panel)&#45;&gt;NMXReducedProbability(panel) -->
<g id="edge21" class="edge">
<title>RawEventProbability(panel)&#45;&gt;NMXReducedProbability(panel)</title>
<path fill="none" stroke="black" d="M715.86,-413.54C670.87,-403.72 613.06,-391.1 566.17,-380.87"/>
<polygon fill="black" stroke="black" points="567.11,-377.49 556.59,-378.78 565.62,-384.33 567.11,-377.49"/>
</g>
<!-- MaximumProbability(panel)&#45;&gt;McStasWeight2CountScaleFactor(panel) -->
<g id="edge9" class="edge">
<title>MaximumProbability(panel)&#45;&gt;McStasWeight2CountScaleFactor(panel)</title>
<path fill="none" stroke="black" d="M819.39,-344.62C793.69,-335.26 760.94,-323.34 733.53,-313.36"/>
<polygon fill="black" stroke="black" points="734.95,-310.15 724.35,-310.01 732.55,-316.72 734.95,-310.15"/>
</g>
<!-- NMXReducedCounts(panel) -->
<g id="node14" class="node">
<title>NMXReducedCounts(panel)</title>
<polygon fill="none" stroke="black" points="563.25,-240 348.42,-240 344.75,-236.33 344.75,-207 559.58,-207 563.25,-210.67 563.25,-240"/>
<polyline fill="none" stroke="black" points="559.58,-236.33 344.75,-236.33"/>
<polyline fill="none" stroke="black" points="559.58,-236.33 559.58,-207"/>
<polyline fill="none" stroke="black" points="559.58,-236.33 563.25,-240"/>
<text xml:space="preserve" text-anchor="start" x="355.38" y="-223.7" font-family="Times,serif" font-size="14.00">NMXReducedCounts(panel)</text>
<text xml:space="preserve" text-anchor="start" x="352.75" y="-212.55" font-family="Times,serif" font-size="11.00">via:</text>
<text xml:space="preserve" text-anchor="start" x="373" y="-212.55" font-family="Times,serif" font-style="italic" font-size="11.00">raw_event_probability_to_counts</text>
</g>
<!-- McStasWeight2CountScaleFactor(panel)&#45;&gt;NMXReducedCounts(panel) -->
<g id="edge15" class="edge">
<title>McStasWeight2CountScaleFactor(panel)&#45;&gt;NMXReducedCounts(panel)</title>
<path fill="none" stroke="black" d="M625.39,-275.54C593.26,-265.97 552.19,-253.74 518.31,-243.65"/>
<polygon fill="black" stroke="black" points="519.62,-240.39 509.04,-240.89 517.62,-247.1 519.62,-240.39"/>
</g>
<!-- NMXReducedDataGroup(panel) -->
<g id="node15" class="node">
<title>NMXReducedDataGroup(panel)</title>
<polygon fill="none" stroke="black" points="429.5,-102 192.17,-102 188.5,-98.33 188.5,-69 425.83,-69 429.5,-72.67 429.5,-102"/>
<polyline fill="none" stroke="black" points="425.83,-98.33 188.5,-98.33"/>
<polyline fill="none" stroke="black" points="425.83,-98.33 425.83,-69"/>
<polyline fill="none" stroke="black" points="425.83,-98.33 429.5,-102"/>
<text xml:space="preserve" text-anchor="start" x="196.5" y="-85.7" font-family="Times,serif" font-size="14.00">NMXReducedDataGroup(panel)</text>
<text xml:space="preserve" text-anchor="start" x="225.75" y="-74.55" font-family="Times,serif" font-size="11.00">via:</text>
<text xml:space="preserve" text-anchor="start" x="246" y="-74.55" font-family="Times,serif" font-style="italic" font-size="11.00">format_nmx_reduced_data</text>
</g>
<!-- NMXDetectorMetadata(panel)&#45;&gt;NMXReducedDataGroup(panel) -->
<g id="edge20" class="edge">
<title>NMXDetectorMetadata(panel)&#45;&gt;NMXReducedDataGroup(panel)</title>
<path fill="none" stroke="black" d="M292.58,-413.59C293.45,-388.2 295,-336.96 295,-293.5 295,-293.5 295,-293.5 295,-222.5 295,-184.63 300.44,-141.13 304.54,-113.73"/>
<polygon fill="black" stroke="black" points="308,-114.27 306.07,-103.85 301.08,-113.2 308,-114.27"/>
</g>
<!-- NMXExperimentMetadata&#45;&gt;NMXReducedDataGroup(panel) -->
<g id="edge19" class="edge">
<title>NMXExperimentMetadata&#45;&gt;NMXReducedDataGroup(panel)</title>
<path fill="none" stroke="black" d="M173.36,-344.58C197.22,-299.18 265.79,-168.72 295.26,-112.64"/>
<polygon fill="black" stroke="black" points="298.35,-114.28 299.91,-103.8 292.16,-111.02 298.35,-114.28"/>
</g>
<!-- NMXReducedProbability(panel)&#45;&gt;NMXReducedCounts(panel) -->
<g id="edge14" class="edge">
<title>NMXReducedProbability(panel)&#45;&gt;NMXReducedCounts(panel)</title>
<path fill="none" stroke="black" d="M478.73,-344.63C474.01,-321.7 465.22,-279.01 459.49,-251.18"/>
<polygon fill="black" stroke="black" points="463,-250.84 457.55,-241.75 456.14,-252.25 463,-250.84"/>
</g>
<!-- NMXReducedCounts(panel)&#45;&gt;NMXReducedDataGroup(panel) -->
<g id="edge17" class="edge">
<title>NMXReducedCounts(panel)&#45;&gt;NMXReducedDataGroup(panel)</title>
<path fill="none" stroke="black" d="M392.94,-206.61C372.84,-198.75 351.86,-187.34 337,-171 322.65,-155.23 315.64,-131.91 312.22,-113.76"/>
<polygon fill="black" stroke="black" points="315.68,-113.27 310.65,-103.94 308.77,-114.37 315.68,-113.27"/>
</g>
<!-- ProtonCharge(panel) -->
<g id="node17" class="node">
<title>ProtonCharge(panel)</title>
<polygon fill="none" stroke="black" points="566,-171 343.67,-171 340,-167.33 340,-138 562.33,-138 566,-141.67 566,-171"/>
<polyline fill="none" stroke="black" points="562.33,-167.33 340,-167.33"/>
<polyline fill="none" stroke="black" points="562.33,-167.33 562.33,-138"/>
<polyline fill="none" stroke="black" points="562.33,-167.33 566,-171"/>
<text xml:space="preserve" text-anchor="start" x="378.38" y="-154.7" font-family="Times,serif" font-size="14.00">ProtonCharge(panel)</text>
<text xml:space="preserve" text-anchor="start" x="348" y="-143.55" font-family="Times,serif" font-size="11.00">via:</text>
<text xml:space="preserve" text-anchor="start" x="368.25" y="-143.55" font-family="Times,serif" font-style="italic" font-size="11.00">proton_charge_from_event_counts</text>
</g>
<!-- NMXReducedCounts(panel)&#45;&gt;ProtonCharge(panel) -->
<g id="edge26" class="edge">
<title>NMXReducedCounts(panel)&#45;&gt;ProtonCharge(panel)</title>
<path fill="none" stroke="black" d="M453.76,-206.62C453.66,-199.45 453.53,-190.76 453.4,-182.6"/>
<polygon fill="black" stroke="black" points="456.91,-182.72 453.26,-172.78 449.91,-182.83 456.91,-182.72"/>
</g>
<!-- NMXReducedDataGroup -->
<g id="node16" class="node">
<title>NMXReducedDataGroup</title>
<polygon fill="none" stroke="black" points="404.75,-33 213.25,-33 213.25,0 404.75,0 404.75,-33"/>
<text xml:space="preserve" text-anchor="start" x="221.25" y="-16.7" font-family="Times,serif" font-size="14.00">NMXReducedDataGroup</text>
<text xml:space="preserve" text-anchor="start" x="259.88" y="-5.55" font-family="Times,serif" font-size="11.00">via:</text>
<text xml:space="preserve" text-anchor="start" x="280.12" y="-5.55" font-family="Times,serif" font-style="italic" font-size="11.00">merge_panels</text>
</g>
<!-- NMXReducedDataGroup(panel)&#45;&gt;NMXReducedDataGroup -->
<g id="edge16" class="edge">
<title>NMXReducedDataGroup(panel)&#45;&gt;NMXReducedDataGroup</title>
<path fill="none" stroke="black" d="M309,-68.62C309,-61.45 309,-52.76 309,-44.6"/>
<polygon fill="black" stroke="black" points="312.5,-44.78 309,-34.78 305.5,-44.78 312.5,-44.78"/>
</g>
<!-- ProtonCharge(panel)&#45;&gt;NMXReducedDataGroup(panel) -->
<g id="edge18" class="edge">
<title>ProtonCharge(panel)&#45;&gt;NMXReducedDataGroup(panel)</title>
<path fill="none" stroke="black" d="M418.87,-137.62C399.38,-128.55 374.71,-117.07 353.68,-107.29"/>
<polygon fill="black" stroke="black" points="355.3,-104.18 344.75,-103.13 352.34,-110.53 355.3,-104.18"/>
</g>
<!-- PixelIds(panel)&#45;&gt;NMXReducedProbability(panel) -->
<g id="edge22" class="edge">
<title>PixelIds(panel)&#45;&gt;NMXReducedProbability(panel)</title>
<path fill="none" stroke="black" d="M482.76,-413.62C482.66,-406.45 482.53,-397.76 482.4,-389.6"/>
<polygon fill="black" stroke="black" points="485.91,-389.72 482.26,-379.78 478.91,-389.83 485.91,-389.72"/>
</g>
<!-- TimeBinSteps -->
<g id="node19" class="node">
<title>TimeBinSteps</title>
<polygon fill="none" stroke="black" points="673.88,-443.12 558.12,-443.12 558.12,-417.88 673.88,-417.88 673.88,-443.12"/>
<text xml:space="preserve" text-anchor="start" x="566.12" y="-425.82" font-family="Times,serif" font-size="14.00">TimeBinSteps</text>
</g>
<!-- TimeBinSteps&#45;&gt;NMXReducedProbability(panel) -->
<g id="edge23" class="edge">
<title>TimeBinSteps&#45;&gt;NMXReducedProbability(panel)</title>
<path fill="none" stroke="black" d="M592.04,-417.52C573.2,-408.1 546.47,-394.74 524.08,-383.54"/>
<polygon fill="black" stroke="black" points="525.68,-380.42 515.17,-379.08 522.54,-386.69 525.68,-380.42"/>
</g>
</g>
</svg>
