<?xml version="1.0" encoding="utf-8" standalone="no"?>
<!DOCTYPE svg PUBLIC "-//W3C//DTD SVG 1.1//EN"
  "http://www.w3.org/Graphics/SVG/1.1/DTD/svg11.dtd">
<svg xmlns:xlink="http://www.w3.org/1999/xlink" width="388.965625pt" height="268.200625pt" viewBox="0 0 388.965625 268.200625" xmlns="http://www.w3.org/2000/svg" version="1.1">
 <metadata>
  <rdf:RDF xmlns:dc="http://purl.org/dc/elements/1.1/" xmlns:cc="http://creativecommons.org/ns#" xmlns:rdf="http://www.w3.org/1999/02/22-rdf-syntax-ns#">
   <cc:Work>
    <dc:type rdf:resource="http://purl.org/dc/dcmitype/StillImage"/>
    <dc:date>2026-04-20T12:22:19.175803</dc:date>
    <dc:format>image/svg+xml</dc:format>
    <dc:creator>
     <cc:Agent>
      <dc:title>Matplotlib v3.10.8, https://matplotlib.org/</dc:title>
     </cc:Agent>
    </dc:creator>
   </cc:Work>
  </rdf:RDF>
 </metadata>
 <defs>
  <style type="text/css">*{stroke-linejoin: round; stroke-linecap: butt}</style>
 </defs>
 <g id="figure_1">
  <g id="patch_1">
   <path d="M 0 268.200625 
L 388.965625 268.200625 
L 388.965625 0 
L 0 0 
z
" style="fill: #ffffff"/>
  </g>
  <g id="axes_1">
   <g id="patch_2">
    <path d="M 46.965625 228.96 
L 381.765625 228.96 
L 381.765625 7.2 
L 46.965625 7.2 
z
" style="fill: #ffffff"/>
   </g>
   <g id="matplotlib.axis_1">
    <g id="xtick_1">
     <g id="line2d_1">
      <defs>
       <path id="m0476533a5b" d="M 0 0 
L 0 3.5 
" style="stroke: #000000; stroke-width: 0.8"/>
      </defs>
      <g>
       <use xlink:href="#m0476533a5b" x="65.450498" y="228.96" style="stroke: #000000; stroke-width: 0.8"/>
      </g>
     </g>
     <g id="text_1">
      <!-- 6.0 -->
      <g transform="translate(57.498936 243.558437) scale(0.1 -0.1)">
       <defs>
        <path id="DejaVuSans-36" d="M 2113 2584 
Q 1688 2584 1439 2293 
Q 1191 2003 1191 1497 
Q 1191 994 1439 701 
Q 1688 409 2113 409 
Q 2538 409 2786 701 
Q 3034 994 3034 1497 
Q 3034 2003 2786 2293 
Q 2538 2584 2113 2584 
z
M 3366 4563 
L 3366 3988 
Q 3128 4100 2886 4159 
Q 2644 4219 2406 4219 
Q 1781 4219 1451 3797 
Q 1122 3375 1075 2522 
Q 1259 2794 1537 2939 
Q 1816 3084 2150 3084 
Q 2853 3084 3261 2657 
Q 3669 2231 3669 1497 
Q 3669 778 3244 343 
Q 2819 -91 2113 -91 
Q 1303 -91 875 529 
Q 447 1150 447 2328 
Q 447 3434 972 4092 
Q 1497 4750 2381 4750 
Q 2619 4750 2861 4703 
Q 3103 4656 3366 4563 
z
" transform="scale(0.015625)"/>
        <path id="DejaVuSans-2e" d="M 684 794 
L 1344 794 
L 1344 0 
L 684 0 
L 684 794 
z
" transform="scale(0.015625)"/>
        <path id="DejaVuSans-30" d="M 2034 4250 
Q 1547 4250 1301 3770 
Q 1056 3291 1056 2328 
Q 1056 1369 1301 889 
Q 1547 409 2034 409 
Q 2525 409 2770 889 
Q 3016 1369 3016 2328 
Q 3016 3291 2770 3770 
Q 2525 4250 2034 4250 
z
M 2034 4750 
Q 2819 4750 3233 4129 
Q 3647 3509 3647 2328 
Q 3647 1150 3233 529 
Q 2819 -91 2034 -91 
Q 1250 -91 836 529 
Q 422 1150 422 2328 
Q 422 3509 836 4129 
Q 1250 4750 2034 4750 
z
" transform="scale(0.015625)"/>
       </defs>
       <use xlink:href="#DejaVuSans-36"/>
       <use xlink:href="#DejaVuSans-2e" transform="translate(63.623047 0)"/>
       <use xlink:href="#DejaVuSans-30" transform="translate(95.410156 0)"/>
      </g>
     </g>
    </g>
    <g id="xtick_2">
     <g id="line2d_2">
      <g>
       <use xlink:href="#m0476533a5b" x="123.095126" y="228.96" style="stroke: #000000; stroke-width: 0.8"/>
      </g>
     </g>
     <g id="text_2">
      <!-- 6.5 -->
      <g transform="translate(115.143564 243.558437) scale(0.1 -0.1)">
       <defs>
        <path id="DejaVuSans-35" d="M 691 4666 
L 3169 4666 
L 3169 4134 
L 1269 4134 
L 1269 2991 
Q 1406 3038 1543 3061 
Q 1681 3084 1819 3084 
Q 2600 3084 3056 2656 
Q 3513 2228 3513 1497 
Q 3513 744 3044 326 
Q 2575 -91 1722 -91 
Q 1428 -91 1123 -41 
Q 819 9 494 109 
L 494 744 
Q 775 591 1075 516 
Q 1375 441 1709 441 
Q 2250 441 2565 725 
Q 2881 1009 2881 1497 
Q 2881 1984 2565 2268 
Q 2250 2553 1709 2553 
Q 1456 2553 1204 2497 
Q 953 2441 691 2322 
L 691 4666 
z
" transform="scale(0.015625)"/>
       </defs>
       <use xlink:href="#DejaVuSans-36"/>
       <use xlink:href="#DejaVuSans-2e" transform="translate(63.623047 0)"/>
       <use xlink:href="#DejaVuSans-35" transform="translate(95.410156 0)"/>
      </g>
     </g>
    </g>
    <g id="xtick_3">
     <g id="line2d_3">
      <g>
       <use xlink:href="#m0476533a5b" x="180.739754" y="228.96" style="stroke: #000000; stroke-width: 0.8"/>
      </g>
     </g>
     <g id="text_3">
      <!-- 7.0 -->
      <g transform="translate(172.788192 243.558437) scale(0.1 -0.1)">
       <defs>
        <path id="DejaVuSans-37" d="M 525 4666 
L 3525 4666 
L 3525 4397 
L 1831 0 
L 1172 0 
L 2766 4134 
L 525 4134 
L 525 4666 
z
" transform="scale(0.015625)"/>
       </defs>
       <use xlink:href="#DejaVuSans-37"/>
       <use xlink:href="#DejaVuSans-2e" transform="translate(63.623047 0)"/>
       <use xlink:href="#DejaVuSans-30" transform="translate(95.410156 0)"/>
      </g>
     </g>
    </g>
    <g id="xtick_4">
     <g id="line2d_4">
      <g>
       <use xlink:href="#m0476533a5b" x="238.384383" y="228.96" style="stroke: #000000; stroke-width: 0.8"/>
      </g>
     </g>
     <g id="text_4">
      <!-- 7.5 -->
      <g transform="translate(230.43282 243.558437) scale(0.1 -0.1)">
       <use xlink:href="#DejaVuSans-37"/>
       <use xlink:href="#DejaVuSans-2e" transform="translate(63.623047 0)"/>
       <use xlink:href="#DejaVuSans-35" transform="translate(95.410156 0)"/>
      </g>
     </g>
    </g>
    <g id="xtick_5">
     <g id="line2d_5">
      <g>
       <use xlink:href="#m0476533a5b" x="296.029011" y="228.96" style="stroke: #000000; stroke-width: 0.8"/>
      </g>
     </g>
     <g id="text_5">
      <!-- 8.0 -->
      <g transform="translate(288.077448 243.558437) scale(0.1 -0.1)">
       <defs>
        <path id="DejaVuSans-38" d="M 2034 2216 
Q 1584 2216 1326 1975 
Q 1069 1734 1069 1313 
Q 1069 891 1326 650 
Q 1584 409 2034 409 
Q 2484 409 2743 651 
Q 3003 894 3003 1313 
Q 3003 1734 2745 1975 
Q 2488 2216 2034 2216 
z
M 1403 2484 
Q 997 2584 770 2862 
Q 544 3141 544 3541 
Q 544 4100 942 4425 
Q 1341 4750 2034 4750 
Q 2731 4750 3128 4425 
Q 3525 4100 3525 3541 
Q 3525 3141 3298 2862 
Q 3072 2584 2669 2484 
Q 3125 2378 3379 2068 
Q 3634 1759 3634 1313 
Q 3634 634 3220 271 
Q 2806 -91 2034 -91 
Q 1263 -91 848 271 
Q 434 634 434 1313 
Q 434 1759 690 2068 
Q 947 2378 1403 2484 
z
M 1172 3481 
Q 1172 3119 1398 2916 
Q 1625 2713 2034 2713 
Q 2441 2713 2670 2916 
Q 2900 3119 2900 3481 
Q 2900 3844 2670 4047 
Q 2441 4250 2034 4250 
Q 1625 4250 1398 4047 
Q 1172 3844 1172 3481 
z
" transform="scale(0.015625)"/>
       </defs>
       <use xlink:href="#DejaVuSans-38"/>
       <use xlink:href="#DejaVuSans-2e" transform="translate(63.623047 0)"/>
       <use xlink:href="#DejaVuSans-30" transform="translate(95.410156 0)"/>
      </g>
     </g>
    </g>
    <g id="xtick_6">
     <g id="line2d_6">
      <g>
       <use xlink:href="#m0476533a5b" x="353.673639" y="228.96" style="stroke: #000000; stroke-width: 0.8"/>
      </g>
     </g>
     <g id="text_6">
      <!-- 8.5 -->
      <g transform="translate(345.722076 243.558437) scale(0.1 -0.1)">
       <use xlink:href="#DejaVuSans-38"/>
       <use xlink:href="#DejaVuSans-2e" transform="translate(63.623047 0)"/>
       <use xlink:href="#DejaVuSans-35" transform="translate(95.410156 0)"/>
      </g>
     </g>
    </g>
    <g id="text_7">
     <!-- wavelength [Å] -->
     <g transform="translate(176.328125 258.920937) scale(0.1 -0.1)">
      <defs>
       <path id="DejaVuSans-77" d="M 269 3500 
L 844 3500 
L 1563 769 
L 2278 3500 
L 2956 3500 
L 3675 769 
L 4391 3500 
L 4966 3500 
L 4050 0 
L 3372 0 
L 2619 2869 
L 1863 0 
L 1184 0 
L 269 3500 
z
" transform="scale(0.015625)"/>
       <path id="DejaVuSans-61" d="M 2194 1759 
Q 1497 1759 1228 1600 
Q 959 1441 959 1056 
Q 959 750 1161 570 
Q 1363 391 1709 391 
Q 2188 391 2477 730 
Q 2766 1069 2766 1631 
L 2766 1759 
L 2194 1759 
z
M 3341 1997 
L 3341 0 
L 2766 0 
L 2766 531 
Q 2569 213 2275 61 
Q 1981 -91 1556 -91 
Q 1019 -91 701 211 
Q 384 513 384 1019 
Q 384 1609 779 1909 
Q 1175 2209 1959 2209 
L 2766 2209 
L 2766 2266 
Q 2766 2663 2505 2880 
Q 2244 3097 1772 3097 
Q 1472 3097 1187 3025 
Q 903 2953 641 2809 
L 641 3341 
Q 956 3463 1253 3523 
Q 1550 3584 1831 3584 
Q 2591 3584 2966 3190 
Q 3341 2797 3341 1997 
z
" transform="scale(0.015625)"/>
       <path id="DejaVuSans-76" d="M 191 3500 
L 800 3500 
L 1894 563 
L 2988 3500 
L 3597 3500 
L 2284 0 
L 1503 0 
L 191 3500 
z
" transform="scale(0.015625)"/>
       <path id="DejaVuSans-65" d="M 3597 1894 
L 3597 1613 
L 953 1613 
Q 991 1019 1311 708 
Q 1631 397 2203 397 
Q 2534 397 2845 478 
Q 3156 559 3463 722 
L 3463 178 
Q 3153 47 2828 -22 
Q 2503 -91 2169 -91 
Q 1331 -91 842 396 
Q 353 884 353 1716 
Q 353 2575 817 3079 
Q 1281 3584 2069 3584 
Q 2775 3584 3186 3129 
Q 3597 2675 3597 1894 
z
M 3022 2063 
Q 3016 2534 2758 2815 
Q 2500 3097 2075 3097 
Q 1594 3097 1305 2825 
Q 1016 2553 972 2059 
L 3022 2063 
z
" transform="scale(0.015625)"/>
       <path id="DejaVuSans-6c" d="M 603 4863 
L 1178 4863 
L 1178 0 
L 603 0 
L 603 4863 
z
" transform="scale(0.015625)"/>
       <path id="DejaVuSans-6e" d="M 3513 2113 
L 3513 0 
L 2938 0 
L 2938 2094 
Q 2938 2591 2744 2837 
Q 2550 3084 2163 3084 
Q 1697 3084 1428 2787 
Q 1159 2491 1159 1978 
L 1159 0 
L 581 0 
L 581 3500 
L 1159 3500 
L 1159 2956 
Q 1366 3272 1645 3428 
Q 1925 3584 2291 3584 
Q 2894 3584 3203 3211 
Q 3513 2838 3513 2113 
z
" transform="scale(0.015625)"/>
       <path id="DejaVuSans-67" d="M 2906 1791 
Q 2906 2416 2648 2759 
Q 2391 3103 1925 3103 
Q 1463 3103 1205 2759 
Q 947 2416 947 1791 
Q 947 1169 1205 825 
Q 1463 481 1925 481 
Q 2391 481 2648 825 
Q 2906 1169 2906 1791 
z
M 3481 434 
Q 3481 -459 3084 -895 
Q 2688 -1331 1869 -1331 
Q 1566 -1331 1297 -1286 
Q 1028 -1241 775 -1147 
L 775 -588 
Q 1028 -725 1275 -790 
Q 1522 -856 1778 -856 
Q 2344 -856 2625 -561 
Q 2906 -266 2906 331 
L 2906 616 
Q 2728 306 2450 153 
Q 2172 0 1784 0 
Q 1141 0 747 490 
Q 353 981 353 1791 
Q 353 2603 747 3093 
Q 1141 3584 1784 3584 
Q 2172 3584 2450 3431 
Q 2728 3278 2906 2969 
L 2906 3500 
L 3481 3500 
L 3481 434 
z
" transform="scale(0.015625)"/>
       <path id="DejaVuSans-74" d="M 1172 4494 
L 1172 3500 
L 2356 3500 
L 2356 3053 
L 1172 3053 
L 1172 1153 
Q 1172 725 1289 603 
Q 1406 481 1766 481 
L 2356 481 
L 2356 0 
L 1766 0 
Q 1100 0 847 248 
Q 594 497 594 1153 
L 594 3053 
L 172 3053 
L 172 3500 
L 594 3500 
L 594 4494 
L 1172 4494 
z
" transform="scale(0.015625)"/>
       <path id="DejaVuSans-68" d="M 3513 2113 
L 3513 0 
L 2938 0 
L 2938 2094 
Q 2938 2591 2744 2837 
Q 2550 3084 2163 3084 
Q 1697 3084 1428 2787 
Q 1159 2491 1159 1978 
L 1159 0 
L 581 0 
L 581 4863 
L 1159 4863 
L 1159 2956 
Q 1366 3272 1645 3428 
Q 1925 3584 2291 3584 
Q 2894 3584 3203 3211 
Q 3513 2838 3513 2113 
z
" transform="scale(0.015625)"/>
       <path id="DejaVuSans-20" transform="scale(0.015625)"/>
       <path id="DejaVuSans-5b" d="M 550 4863 
L 1875 4863 
L 1875 4416 
L 1125 4416 
L 1125 -397 
L 1875 -397 
L 1875 -844 
L 550 -844 
L 550 4863 
z
" transform="scale(0.015625)"/>
       <path id="DejaVuSans-c5" d="M 2663 5081 
Q 2663 5278 2523 5417 
Q 2384 5556 2188 5556 
Q 1988 5556 1852 5420 
Q 1716 5284 1716 5081 
Q 1716 4884 1853 4746 
Q 1991 4609 2188 4609 
Q 2384 4609 2523 4746 
Q 2663 4884 2663 5081 
z
M 2188 4044 
L 1338 1722 
L 3041 1722 
L 2188 4044 
z
M 1716 4366 
Q 1525 4494 1428 4673 
Q 1331 4853 1331 5081 
Q 1331 5441 1579 5691 
Q 1828 5941 2188 5941 
Q 2544 5941 2795 5689 
Q 3047 5438 3047 5081 
Q 3047 4863 2948 4678 
Q 2850 4494 2663 4366 
L 4325 0 
L 3669 0 
L 3244 1197 
L 1141 1197 
L 716 0 
L 50 0 
L 1716 4366 
z
" transform="scale(0.015625)"/>
       <path id="DejaVuSans-5d" d="M 1947 4863 
L 1947 -844 
L 622 -844 
L 622 -397 
L 1369 -397 
L 1369 4416 
L 622 4416 
L 622 4863 
L 1947 4863 
z
" transform="scale(0.015625)"/>
      </defs>
      <use xlink:href="#DejaVuSans-77"/>
      <use xlink:href="#DejaVuSans-61" transform="translate(81.787109 0)"/>
      <use xlink:href="#DejaVuSans-76" transform="translate(143.066406 0)"/>
      <use xlink:href="#DejaVuSans-65" transform="translate(202.246094 0)"/>
      <use xlink:href="#DejaVuSans-6c" transform="translate(263.769531 0)"/>
      <use xlink:href="#DejaVuSans-65" transform="translate(291.552734 0)"/>
      <use xlink:href="#DejaVuSans-6e" transform="translate(353.076172 0)"/>
      <use xlink:href="#DejaVuSans-67" transform="translate(416.455078 0)"/>
      <use xlink:href="#DejaVuSans-74" transform="translate(479.931641 0)"/>
      <use xlink:href="#DejaVuSans-68" transform="translate(519.140625 0)"/>
      <use xlink:href="#DejaVuSans-20" transform="translate(582.519531 0)"/>
      <use xlink:href="#DejaVuSans-5b" transform="translate(614.306641 0)"/>
      <use xlink:href="#DejaVuSans-c5" transform="translate(653.320312 0)"/>
      <use xlink:href="#DejaVuSans-5d" transform="translate(721.728516 0)"/>
     </g>
    </g>
   </g>
   <g id="matplotlib.axis_2">
    <g id="ytick_1">
     <g id="line2d_7">
      <defs>
       <path id="m17801f8043" d="M 0 0 
L -3.5 0 
" style="stroke: #000000; stroke-width: 0.8"/>
      </defs>
      <g>
       <use xlink:href="#m17801f8043" x="46.965625" y="218.88" style="stroke: #000000; stroke-width: 0.8"/>
      </g>
     </g>
     <g id="text_8">
      <!-- 0 -->
      <g transform="translate(33.603125 222.679219) scale(0.1 -0.1)">
       <use xlink:href="#DejaVuSans-30"/>
      </g>
     </g>
    </g>
    <g id="ytick_2">
     <g id="line2d_8">
      <g>
       <use xlink:href="#m17801f8043" x="46.965625" y="177.653006" style="stroke: #000000; stroke-width: 0.8"/>
      </g>
     </g>
     <g id="text_9">
      <!-- 100 -->
      <g transform="translate(20.878125 181.452225) scale(0.1 -0.1)">
       <defs>
        <path id="DejaVuSans-31" d="M 794 531 
L 1825 531 
L 1825 4091 
L 703 3866 
L 703 4441 
L 1819 4666 
L 2450 4666 
L 2450 531 
L 3481 531 
L 3481 0 
L 794 0 
L 794 531 
z
" transform="scale(0.015625)"/>
       </defs>
       <use xlink:href="#DejaVuSans-31"/>
       <use xlink:href="#DejaVuSans-30" transform="translate(63.623047 0)"/>
       <use xlink:href="#DejaVuSans-30" transform="translate(127.246094 0)"/>
      </g>
     </g>
    </g>
    <g id="ytick_3">
     <g id="line2d_9">
      <g>
       <use xlink:href="#m17801f8043" x="46.965625" y="136.426012" style="stroke: #000000; stroke-width: 0.8"/>
      </g>
     </g>
     <g id="text_10">
      <!-- 200 -->
      <g transform="translate(20.878125 140.225231) scale(0.1 -0.1)">
       <defs>
        <path id="DejaVuSans-32" d="M 1228 531 
L 3431 531 
L 3431 0 
L 469 0 
L 469 531 
Q 828 903 1448 1529 
Q 2069 2156 2228 2338 
Q 2531 2678 2651 2914 
Q 2772 3150 2772 3378 
Q 2772 3750 2511 3984 
Q 2250 4219 1831 4219 
Q 1534 4219 1204 4116 
Q 875 4013 500 3803 
L 500 4441 
Q 881 4594 1212 4672 
Q 1544 4750 1819 4750 
Q 2544 4750 2975 4387 
Q 3406 4025 3406 3419 
Q 3406 3131 3298 2873 
Q 3191 2616 2906 2266 
Q 2828 2175 2409 1742 
Q 1991 1309 1228 531 
z
" transform="scale(0.015625)"/>
       </defs>
       <use xlink:href="#DejaVuSans-32"/>
       <use xlink:href="#DejaVuSans-30" transform="translate(63.623047 0)"/>
       <use xlink:href="#DejaVuSans-30" transform="translate(127.246094 0)"/>
      </g>
     </g>
    </g>
    <g id="ytick_4">
     <g id="line2d_10">
      <g>
       <use xlink:href="#m17801f8043" x="46.965625" y="95.199018" style="stroke: #000000; stroke-width: 0.8"/>
      </g>
     </g>
     <g id="text_11">
      <!-- 300 -->
      <g transform="translate(20.878125 98.998237) scale(0.1 -0.1)">
       <defs>
        <path id="DejaVuSans-33" d="M 2597 2516 
Q 3050 2419 3304 2112 
Q 3559 1806 3559 1356 
Q 3559 666 3084 287 
Q 2609 -91 1734 -91 
Q 1441 -91 1130 -33 
Q 819 25 488 141 
L 488 750 
Q 750 597 1062 519 
Q 1375 441 1716 441 
Q 2309 441 2620 675 
Q 2931 909 2931 1356 
Q 2931 1769 2642 2001 
Q 2353 2234 1838 2234 
L 1294 2234 
L 1294 2753 
L 1863 2753 
Q 2328 2753 2575 2939 
Q 2822 3125 2822 3475 
Q 2822 3834 2567 4026 
Q 2313 4219 1838 4219 
Q 1578 4219 1281 4162 
Q 984 4106 628 3988 
L 628 4550 
Q 988 4650 1302 4700 
Q 1616 4750 1894 4750 
Q 2613 4750 3031 4423 
Q 3450 4097 3450 3541 
Q 3450 3153 3228 2886 
Q 3006 2619 2597 2516 
z
" transform="scale(0.015625)"/>
       </defs>
       <use xlink:href="#DejaVuSans-33"/>
       <use xlink:href="#DejaVuSans-30" transform="translate(63.623047 0)"/>
       <use xlink:href="#DejaVuSans-30" transform="translate(127.246094 0)"/>
      </g>
     </g>
    </g>
    <g id="ytick_5">
     <g id="line2d_11">
      <g>
       <use xlink:href="#m17801f8043" x="46.965625" y="53.972025" style="stroke: #000000; stroke-width: 0.8"/>
      </g>
     </g>
     <g id="text_12">
      <!-- 400 -->
      <g transform="translate(20.878125 57.771243) scale(0.1 -0.1)">
       <defs>
        <path id="DejaVuSans-34" d="M 2419 4116 
L 825 1625 
L 2419 1625 
L 2419 4116 
z
M 2253 4666 
L 3047 4666 
L 3047 1625 
L 3713 1625 
L 3713 1100 
L 3047 1100 
L 3047 0 
L 2419 0 
L 2419 1100 
L 313 1100 
L 313 1709 
L 2253 4666 
z
" transform="scale(0.015625)"/>
       </defs>
       <use xlink:href="#DejaVuSans-34"/>
       <use xlink:href="#DejaVuSans-30" transform="translate(63.623047 0)"/>
       <use xlink:href="#DejaVuSans-30" transform="translate(127.246094 0)"/>
      </g>
     </g>
    </g>
    <g id="ytick_6">
     <g id="line2d_12">
      <g>
       <use xlink:href="#m17801f8043" x="46.965625" y="12.745031" style="stroke: #000000; stroke-width: 0.8"/>
      </g>
     </g>
     <g id="text_13">
      <!-- 500 -->
      <g transform="translate(20.878125 16.544249) scale(0.1 -0.1)">
       <use xlink:href="#DejaVuSans-35"/>
       <use xlink:href="#DejaVuSans-30" transform="translate(63.623047 0)"/>
       <use xlink:href="#DejaVuSans-30" transform="translate(127.246094 0)"/>
      </g>
     </g>
    </g>
    <g id="text_14">
     <!-- [counts] -->
     <g transform="translate(14.798438 138.6925) rotate(-90) scale(0.1 -0.1)">
      <defs>
       <path id="DejaVuSans-63" d="M 3122 3366 
L 3122 2828 
Q 2878 2963 2633 3030 
Q 2388 3097 2138 3097 
Q 1578 3097 1268 2742 
Q 959 2388 959 1747 
Q 959 1106 1268 751 
Q 1578 397 2138 397 
Q 2388 397 2633 464 
Q 2878 531 3122 666 
L 3122 134 
Q 2881 22 2623 -34 
Q 2366 -91 2075 -91 
Q 1284 -91 818 406 
Q 353 903 353 1747 
Q 353 2603 823 3093 
Q 1294 3584 2113 3584 
Q 2378 3584 2631 3529 
Q 2884 3475 3122 3366 
z
" transform="scale(0.015625)"/>
       <path id="DejaVuSans-6f" d="M 1959 3097 
Q 1497 3097 1228 2736 
Q 959 2375 959 1747 
Q 959 1119 1226 758 
Q 1494 397 1959 397 
Q 2419 397 2687 759 
Q 2956 1122 2956 1747 
Q 2956 2369 2687 2733 
Q 2419 3097 1959 3097 
z
M 1959 3584 
Q 2709 3584 3137 3096 
Q 3566 2609 3566 1747 
Q 3566 888 3137 398 
Q 2709 -91 1959 -91 
Q 1206 -91 779 398 
Q 353 888 353 1747 
Q 353 2609 779 3096 
Q 1206 3584 1959 3584 
z
" transform="scale(0.015625)"/>
       <path id="DejaVuSans-75" d="M 544 1381 
L 544 3500 
L 1119 3500 
L 1119 1403 
Q 1119 906 1312 657 
Q 1506 409 1894 409 
Q 2359 409 2629 706 
Q 2900 1003 2900 1516 
L 2900 3500 
L 3475 3500 
L 3475 0 
L 2900 0 
L 2900 538 
Q 2691 219 2414 64 
Q 2138 -91 1772 -91 
Q 1169 -91 856 284 
Q 544 659 544 1381 
z
M 1991 3584 
L 1991 3584 
z
" transform="scale(0.015625)"/>
       <path id="DejaVuSans-73" d="M 2834 3397 
L 2834 2853 
Q 2591 2978 2328 3040 
Q 2066 3103 1784 3103 
Q 1356 3103 1142 2972 
Q 928 2841 928 2578 
Q 928 2378 1081 2264 
Q 1234 2150 1697 2047 
L 1894 2003 
Q 2506 1872 2764 1633 
Q 3022 1394 3022 966 
Q 3022 478 2636 193 
Q 2250 -91 1575 -91 
Q 1294 -91 989 -36 
Q 684 19 347 128 
L 347 722 
Q 666 556 975 473 
Q 1284 391 1588 391 
Q 1994 391 2212 530 
Q 2431 669 2431 922 
Q 2431 1156 2273 1281 
Q 2116 1406 1581 1522 
L 1381 1569 
Q 847 1681 609 1914 
Q 372 2147 372 2553 
Q 372 3047 722 3315 
Q 1072 3584 1716 3584 
Q 2034 3584 2315 3537 
Q 2597 3491 2834 3397 
z
" transform="scale(0.015625)"/>
      </defs>
      <use xlink:href="#DejaVuSans-5b"/>
      <use xlink:href="#DejaVuSans-63" transform="translate(39.013672 0)"/>
      <use xlink:href="#DejaVuSans-6f" transform="translate(93.994141 0)"/>
      <use xlink:href="#DejaVuSans-75" transform="translate(155.175781 0)"/>
      <use xlink:href="#DejaVuSans-6e" transform="translate(218.554688 0)"/>
      <use xlink:href="#DejaVuSans-74" transform="translate(281.933594 0)"/>
      <use xlink:href="#DejaVuSans-73" transform="translate(321.142578 0)"/>
      <use xlink:href="#DejaVuSans-5d" transform="translate(373.242188 0)"/>
     </g>
    </g>
   </g>
   <g id="line2d_13">
    <path d="M 79.023718 217.23092 
L 82.482395 217.23092 
L 82.482395 218.05546 
L 85.941073 218.05546 
L 85.941073 218.46773 
L 89.399751 218.46773 
L 89.399751 217.23092 
L 92.858428 217.23092 
L 92.858428 215.99411 
L 96.317106 215.99411 
L 96.317106 216.81865 
L 99.775784 216.81865 
L 99.775784 215.99411 
L 103.234462 215.99411 
L 103.234462 213.932761 
L 106.693139 213.932761 
L 106.693139 215.99411 
L 110.151817 215.99411 
L 110.151817 215.58184 
L 113.610495 215.58184 
L 113.610495 213.108221 
L 117.069172 213.108221 
L 117.069172 214.757301 
L 120.52785 214.757301 
L 120.52785 214.345031 
L 123.986528 214.345031 
L 123.986528 209.810061 
L 127.445205 209.810061 
L 127.445205 212.695951 
L 130.903883 212.695951 
L 130.903883 211.871411 
L 134.362561 211.871411 
L 134.362561 206.099632 
L 137.821238 206.099632 
L 137.821238 203.213742 
L 141.279916 203.213742 
L 141.279916 202.389202 
L 144.738594 202.389202 
L 144.738594 187.547485 
L 148.197271 187.547485 
L 148.197271 188.372025 
L 151.655949 188.372025 
L 151.655949 185.486135 
L 155.114627 185.486135 
L 155.114627 182.187975 
L 158.573305 182.187975 
L 158.573305 174.354847 
L 162.031982 174.354847 
L 162.031982 162.811288 
L 165.49066 162.811288 
L 165.49066 158.276319 
L 168.949338 158.276319 
L 168.949338 130.241963 
L 172.408015 130.241963 
L 172.408015 118.286135 
L 175.866693 118.286135 
L 175.866693 102.207607 
L 179.325371 102.207607 
L 179.325371 90.664049 
L 182.784048 90.664049 
L 182.784048 66.752393 
L 186.242726 66.752393 
L 186.242726 60.980613 
L 189.701404 60.980613 
L 189.701404 39.954847 
L 193.160081 39.954847 
L 193.160081 63.454233 
L 196.618759 63.454233 
L 196.618759 73.348712 
L 200.077437 73.348712 
L 200.077437 50.673865 
L 203.536114 50.673865 
L 203.536114 17.28 
L 206.994792 17.28 
L 206.994792 19.75362 
L 210.45347 19.75362 
L 210.45347 39.954847 
L 213.912147 39.954847 
L 213.912147 50.673865 
L 217.370825 50.673865 
L 217.370825 60.156074 
L 220.829503 60.156074 
L 220.829503 66.340123 
L 224.288181 66.340123 
L 224.288181 67.989202 
L 227.746858 67.989202 
L 227.746858 59.743804 
L 231.205536 59.743804 
L 231.205536 63.041963 
L 234.664214 63.041963 
L 234.664214 71.287362 
L 238.122891 71.287362 
L 238.122891 66.340123 
L 241.581569 66.340123 
L 241.581569 60.156074 
L 245.040247 60.156074 
L 245.040247 57.682454 
L 248.498924 57.682454 
L 248.498924 79.532761 
L 251.957602 79.532761 
L 251.957602 91.488589 
L 255.41628 91.488589 
L 255.41628 79.532761 
L 258.874957 79.532761 
L 258.874957 89.427239 
L 262.333635 89.427239 
L 262.333635 90.664049 
L 265.792313 90.664049 
L 265.792313 103.032147 
L 269.25099 103.032147 
L 269.25099 102.207607 
L 272.709668 102.207607 
L 272.709668 119.110675 
L 276.168346 119.110675 
L 276.168346 96.435828 
L 279.627024 96.435828 
L 279.627024 73.760982 
L 283.085701 73.760982 
L 283.085701 81.59411 
L 286.544379 81.59411 
L 286.544379 127.356074 
L 290.003057 127.356074 
L 290.003057 103.032147 
L 293.461734 103.032147 
L 293.461734 117.873865 
L 296.920412 117.873865 
L 296.920412 104.681227 
L 300.37909 104.681227 
L 300.37909 113.338896 
L 303.837767 113.338896 
L 303.837767 107.567117 
L 307.296445 107.567117 
L 307.296445 114.575706 
L 310.755123 114.575706 
L 310.755123 109.216196 
L 314.2138 109.216196 
L 314.2138 123.645644 
L 317.672478 123.645644 
L 317.672478 122.821104 
L 321.131156 122.821104 
L 321.131156 147.969571 
L 324.589833 147.969571 
L 324.589833 149.20638 
L 328.048511 149.20638 
L 328.048511 162.399018 
L 331.507189 162.399018 
L 331.507189 172.293497 
L 334.965866 172.293497 
L 334.965866 176.416196 
L 338.424544 176.416196 
L 338.424544 176.828466 
L 341.883222 176.828466 
L 341.883222 183.424785 
L 345.3419 183.424785 
L 345.3419 196.617423 
L 348.800577 196.617423 
L 348.800577 204.038282 
L 352.259255 204.038282 
L 352.259255 210.634601 
L 355.717933 210.634601 
L 355.717933 218.88 
L 362.635288 218.88 
L 362.635288 218.88 
" clip-path="url(#pdadc81ec4c)" style="fill: none; stroke: #1f77b4; stroke-width: 1.5; stroke-linecap: square"/>
   </g>
   <g id="line2d_14">
    <path d="M 79.023718 218.88 
L 99.775784 218.88 
L 99.775784 218.46773 
L 103.234462 218.46773 
L 103.234462 215.99411 
L 106.693139 215.99411 
L 106.693139 218.88 
L 123.986528 218.88 
L 123.986528 216.40638 
L 127.445205 216.40638 
L 127.445205 207.336442 
L 130.903883 207.336442 
L 130.903883 211.459141 
L 134.362561 211.459141 
L 134.362561 203.626012 
L 137.821238 203.626012 
L 137.821238 204.450552 
L 141.279916 204.450552 
L 141.279916 197.441963 
L 144.738594 197.441963 
L 144.738594 195.380613 
L 148.197271 195.380613 
L 148.197271 184.661595 
L 155.114627 184.661595 
L 155.114627 171.468957 
L 158.573305 171.468957 
L 158.573305 178.477546 
L 162.031982 178.477546 
L 162.031982 161.986748 
L 165.49066 161.986748 
L 165.49066 150.44319 
L 168.949338 150.44319 
L 168.949338 128.180613 
L 172.408015 128.180613 
L 172.408015 124.882454 
L 175.866693 124.882454 
L 175.866693 110.040736 
L 179.325371 110.040736 
L 179.325371 68.401472 
L 182.784048 68.401472 
L 182.784048 72.936442 
L 186.242726 72.936442 
L 186.242726 58.094724 
L 189.701404 58.094724 
L 189.701404 70.462822 
L 193.160081 70.462822 
L 193.160081 60.156074 
L 196.618759 60.156074 
L 196.618759 32.533988 
L 200.077437 32.533988 
L 200.077437 38.305767 
L 203.536114 38.305767 
L 203.536114 51.910675 
L 206.994792 51.910675 
L 206.994792 45.314356 
L 210.45347 45.314356 
L 210.45347 39.130307 
L 213.912147 39.130307 
L 213.912147 46.963436 
L 217.370825 46.963436 
L 217.370825 70.875092 
L 220.829503 70.875092 
L 220.829503 47.375706 
L 224.288181 47.375706 
L 224.288181 76.646871 
L 227.746858 76.646871 
L 227.746858 61.805153 
L 231.205536 61.805153 
L 231.205536 63.866503 
L 234.664214 63.866503 
L 234.664214 70.050552 
L 238.122891 70.050552 
L 238.122891 79.120491 
L 241.581569 79.120491 
L 241.581569 65.927853 
L 245.040247 65.927853 
L 245.040247 84.89227 
L 248.498924 84.89227 
L 248.498924 81.59411 
L 251.957602 81.59411 
L 251.957602 68.401472 
L 255.41628 68.401472 
L 255.41628 102.619877 
L 258.874957 102.619877 
L 258.874957 68.813742 
L 262.333635 68.813742 
L 262.333635 86.54135 
L 265.792313 86.54135 
L 265.792313 99.321718 
L 269.25099 99.321718 
L 269.25099 69.226012 
L 272.709668 69.226012 
L 272.709668 100.146258 
L 276.168346 100.146258 
L 276.168346 122.821104 
L 279.627024 122.821104 
L 279.627024 78.708221 
L 283.085701 78.708221 
L 283.085701 110.453006 
L 286.544379 110.453006 
L 286.544379 105.505767 
L 290.003057 105.505767 
L 290.003057 98.909448 
L 293.461734 98.909448 
L 293.461734 113.751166 
L 296.920412 113.751166 
L 296.920412 107.567117 
L 300.37909 107.567117 
L 300.37909 97.672638 
L 303.837767 97.672638 
L 303.837767 118.698405 
L 307.296445 118.698405 
L 307.296445 122.408834 
L 310.755123 122.408834 
L 310.755123 112.926626 
L 314.2138 112.926626 
L 314.2138 136.838282 
L 317.672478 136.838282 
L 317.672478 139.724172 
L 321.131156 139.724172 
L 321.131156 117.049325 
L 324.589833 117.049325 
L 324.589833 159.513129 
L 328.048511 159.513129 
L 328.048511 166.933988 
L 331.507189 166.933988 
L 331.507189 149.61865 
L 334.965866 149.61865 
L 334.965866 171.881227 
L 338.424544 171.881227 
L 338.424544 185.073865 
L 341.883222 185.073865 
L 341.883222 185.898405 
L 345.3419 185.898405 
L 345.3419 191.257914 
L 348.800577 191.257914 
L 348.800577 204.450552 
L 352.259255 204.450552 
L 352.259255 206.099632 
L 355.717933 206.099632 
L 355.717933 210.222331 
L 359.17661 210.222331 
L 359.17661 218.46773 
L 362.635288 218.46773 
L 362.635288 218.46773 
" clip-path="url(#pdadc81ec4c)" style="fill: none; stroke: #ff7f0e; stroke-width: 1.5; stroke-linecap: square"/>
   </g>
   <g id="line2d_15">
    <path d="M 79.023718 218.88 
L 96.317106 218.88 
L 96.317106 217.64319 
L 99.775784 217.64319 
L 99.775784 218.88 
L 110.151817 218.88 
L 110.151817 217.64319 
L 113.610495 217.64319 
L 113.610495 218.88 
L 120.52785 218.88 
L 120.52785 215.99411 
L 123.986528 215.99411 
L 123.986528 214.345031 
L 127.445205 214.345031 
L 127.445205 208.985521 
L 130.903883 208.985521 
L 130.903883 207.748712 
L 134.362561 207.748712 
L 134.362561 206.099632 
L 137.821238 206.099632 
L 137.821238 204.450552 
L 141.279916 204.450552 
L 141.279916 198.678773 
L 144.738594 198.678773 
L 144.738594 190.845644 
L 148.197271 190.845644 
L 148.197271 189.608834 
L 151.655949 189.608834 
L 151.655949 182.187975 
L 155.114627 182.187975 
L 155.114627 175.591656 
L 158.573305 175.591656 
L 158.573305 172.705767 
L 162.031982 172.705767 
L 162.031982 170.644417 
L 165.49066 170.644417 
L 165.49066 133.127853 
L 168.949338 133.127853 
L 168.949338 137.250552 
L 172.408015 137.250552 
L 172.408015 130.241963 
L 175.866693 130.241963 
L 175.866693 99.733988 
L 179.325371 99.733988 
L 179.325371 83.24319 
L 182.784048 83.24319 
L 182.784048 68.813742 
L 186.242726 68.813742 
L 186.242726 49.849325 
L 189.701404 49.849325 
L 189.701404 75.410061 
L 193.160081 75.410061 
L 193.160081 58.919264 
L 196.618759 58.919264 
L 196.618759 49.437055 
L 200.077437 49.437055 
L 200.077437 33.770798 
L 203.536114 33.770798 
L 203.536114 35.007607 
L 206.994792 35.007607 
L 206.994792 45.314356 
L 210.45347 45.314356 
L 210.45347 53.972025 
L 213.912147 53.972025 
L 213.912147 42.840736 
L 217.370825 42.840736 
L 217.370825 60.980613 
L 220.829503 60.980613 
L 220.829503 63.866503 
L 224.288181 63.866503 
L 224.288181 68.401472 
L 227.746858 68.401472 
L 227.746858 63.866503 
L 231.205536 63.866503 
L 231.205536 66.752393 
L 234.664214 66.752393 
L 234.664214 66.340123 
L 238.122891 66.340123 
L 238.122891 73.760982 
L 241.581569 73.760982 
L 241.581569 77.059141 
L 245.040247 77.059141 
L 245.040247 72.936442 
L 248.498924 72.936442 
L 248.498924 86.54135 
L 251.957602 86.54135 
L 251.957602 63.041963 
L 255.41628 63.041963 
L 255.41628 102.207607 
L 258.874957 102.207607 
L 258.874957 65.515583 
L 262.333635 65.515583 
L 262.333635 102.619877 
L 265.792313 102.619877 
L 265.792313 82.83092 
L 269.25099 82.83092 
L 269.25099 75.410061 
L 272.709668 75.410061 
L 272.709668 102.619877 
L 276.168346 102.619877 
L 276.168346 110.040736 
L 279.627024 110.040736 
L 279.627024 86.95362 
L 283.085701 86.95362 
L 283.085701 111.689816 
L 286.544379 111.689816 
L 286.544379 101.383067 
L 290.003057 101.383067 
L 290.003057 100.970798 
L 293.461734 100.970798 
L 293.461734 111.277546 
L 296.920412 111.277546 
L 296.920412 112.514356 
L 300.37909 112.514356 
L 300.37909 104.268957 
L 303.837767 104.268957 
L 303.837767 112.102086 
L 307.296445 112.102086 
L 307.296445 120.759755 
L 310.755123 120.759755 
L 310.755123 113.338896 
L 314.2138 113.338896 
L 314.2138 135.189202 
L 317.672478 135.189202 
L 317.672478 143.022331 
L 321.131156 143.022331 
L 321.131156 126.119264 
L 324.589833 126.119264 
L 324.589833 152.91681 
L 328.048511 152.91681 
L 328.048511 161.574479 
L 331.507189 161.574479 
L 331.507189 155.802699 
L 334.965866 155.802699 
L 334.965866 170.232147 
L 338.424544 170.232147 
L 338.424544 185.073865 
L 341.883222 185.073865 
L 341.883222 187.135215 
L 345.3419 187.135215 
L 345.3419 189.196564 
L 348.800577 189.196564 
L 348.800577 205.687362 
L 352.259255 205.687362 
L 352.259255 204.038282 
L 355.717933 204.038282 
L 355.717933 212.695951 
L 359.17661 212.695951 
L 359.17661 218.88 
L 362.635288 218.88 
L 362.635288 218.88 
" clip-path="url(#pdadc81ec4c)" style="fill: none; stroke: #2ca02c; stroke-width: 1.5; stroke-linecap: square"/>
   </g>
   <g id="line2d_16">
    <path d="M 79.023718 218.88 
L 120.52785 218.88 
L 120.52785 215.99411 
L 123.986528 215.99411 
L 123.986528 214.345031 
L 127.445205 214.345031 
L 127.445205 208.573252 
L 130.903883 208.573252 
L 130.903883 214.757301 
L 137.821238 214.757301 
L 137.821238 205.275092 
L 141.279916 205.275092 
L 141.279916 198.266503 
L 144.738594 198.266503 
L 144.738594 194.556074 
L 148.197271 194.556074 
L 148.197271 187.547485 
L 151.655949 187.547485 
L 151.655949 176.416196 
L 155.114627 176.416196 
L 155.114627 180.951166 
L 158.573305 180.951166 
L 158.573305 171.056687 
L 162.031982 171.056687 
L 162.031982 169.407607 
L 165.49066 169.407607 
L 165.49066 138.899632 
L 168.949338 138.899632 
L 168.949338 127.356074 
L 172.408015 127.356074 
L 172.408015 129.829693 
L 175.866693 129.829693 
L 175.866693 105.505767 
L 179.325371 105.505767 
L 179.325371 82.83092 
L 182.784048 82.83092 
L 182.784048 66.340123 
L 186.242726 66.340123 
L 186.242726 52.322945 
L 189.701404 52.322945 
L 189.701404 74.173252 
L 193.160081 74.173252 
L 193.160081 63.454233 
L 196.618759 63.454233 
L 196.618759 39.542577 
L 200.077437 39.542577 
L 200.077437 42.840736 
L 203.536114 42.840736 
L 203.536114 33.358528 
L 206.994792 33.358528 
L 206.994792 45.314356 
L 210.45347 45.314356 
L 210.45347 51.498405 
L 213.912147 51.498405 
L 213.912147 44.902086 
L 217.370825 44.902086 
L 217.370825 77.059141 
L 220.829503 77.059141 
L 220.829503 60.568344 
L 224.288181 60.568344 
L 224.288181 52.735215 
L 227.746858 52.735215 
L 227.746858 70.050552 
L 231.205536 70.050552 
L 231.205536 60.568344 
L 234.664214 60.568344 
L 234.664214 72.936442 
L 238.122891 72.936442 
L 238.122891 70.462822 
L 241.581569 70.462822 
L 241.581569 78.295951 
L 245.040247 78.295951 
L 245.040247 70.462822 
L 248.498924 70.462822 
L 248.498924 82.41865 
L 251.957602 82.41865 
L 251.957602 76.234601 
L 255.41628 76.234601 
L 255.41628 93.549939 
L 258.874957 93.549939 
L 258.874957 76.234601 
L 262.333635 76.234601 
L 262.333635 93.962209 
L 265.792313 93.962209 
L 265.792313 90.664049 
L 269.25099 90.664049 
L 269.25099 64.691043 
L 272.709668 64.691043 
L 272.709668 105.093497 
L 276.168346 105.093497 
L 276.168346 103.856687 
L 279.627024 103.856687 
L 279.627024 96.435828 
L 283.085701 96.435828 
L 283.085701 95.199018 
L 286.544379 95.199018 
L 286.544379 109.216196 
L 290.003057 109.216196 
L 290.003057 104.268957 
L 293.461734 104.268957 
L 293.461734 117.049325 
L 296.920412 117.049325 
L 296.920412 104.268957 
L 300.37909 104.268957 
L 300.37909 107.154847 
L 303.837767 107.154847 
L 303.837767 125.294724 
L 307.296445 125.294724 
L 307.296445 109.216196 
L 310.755123 109.216196 
L 310.755123 114.987975 
L 314.2138 114.987975 
L 314.2138 130.654233 
L 317.672478 130.654233 
L 317.672478 141.785521 
L 321.131156 141.785521 
L 321.131156 132.303313 
L 324.589833 132.303313 
L 324.589833 153.74135 
L 328.048511 153.74135 
L 328.048511 155.390429 
L 331.507189 155.390429 
L 331.507189 161.986748 
L 334.965866 161.986748 
L 334.965866 162.399018 
L 338.424544 162.399018 
L 338.424544 187.547485 
L 341.883222 187.547485 
L 341.883222 191.257914 
L 345.3419 191.257914 
L 345.3419 189.196564 
L 348.800577 189.196564 
L 348.800577 213.520491 
L 352.259255 213.520491 
L 352.259255 204.862822 
L 355.717933 204.862822 
L 355.717933 210.634601 
L 359.17661 210.634601 
L 359.17661 218.46773 
L 362.635288 218.46773 
L 362.635288 218.46773 
" clip-path="url(#pdadc81ec4c)" style="fill: none; stroke: #d62728; stroke-width: 1.5; stroke-linecap: square"/>
   </g>
   <g id="line2d_17">
    <path d="M 62.183807 218.46773 
L 69.101162 218.46773 
L 69.101162 217.64319 
L 72.55984 217.64319 
L 72.55984 218.05546 
L 76.018518 218.05546 
L 76.018518 218.88 
L 79.477195 218.88 
L 79.477195 216.40638 
L 82.935873 216.40638 
L 82.935873 218.46773 
L 89.853228 218.46773 
L 89.853228 216.81865 
L 93.311906 216.81865 
L 93.311906 217.23092 
L 96.770584 217.23092 
L 96.770584 215.58184 
L 100.229261 215.58184 
L 100.229261 213.108221 
L 103.687939 213.108221 
L 103.687939 215.169571 
L 110.605294 215.169571 
L 110.605294 216.40638 
L 114.063972 216.40638 
L 114.063972 214.345031 
L 117.52265 214.345031 
L 117.52265 213.520491 
L 120.981327 213.520491 
L 120.981327 213.932761 
L 124.440005 213.932761 
L 124.440005 213.108221 
L 127.898683 213.108221 
L 127.898683 206.924172 
L 131.357361 206.924172 
L 131.357361 207.748712 
L 134.816038 207.748712 
L 134.816038 204.862822 
L 138.274716 204.862822 
L 138.274716 205.687362 
L 141.733394 205.687362 
L 141.733394 196.205153 
L 145.192071 196.205153 
L 145.192071 194.968344 
L 148.650749 194.968344 
L 148.650749 183.837055 
L 152.109427 183.837055 
L 152.109427 180.126626 
L 155.568104 180.126626 
L 155.568104 180.951166 
L 159.026782 180.951166 
L 159.026782 171.468957 
L 162.48546 171.468957 
L 162.48546 161.986748 
L 165.944137 161.986748 
L 165.944137 147.145031 
L 169.402815 147.145031 
L 169.402815 127.356074 
L 172.861493 127.356074 
L 172.861493 111.689816 
L 176.32017 111.689816 
L 176.32017 101.383067 
L 179.778848 101.383067 
L 179.778848 83.65546 
L 183.237526 83.65546 
L 183.237526 72.111902 
L 186.696204 72.111902 
L 186.696204 53.147485 
L 190.154881 53.147485 
L 190.154881 72.936442 
L 193.613559 72.936442 
L 193.613559 57.270184 
L 197.072237 57.270184 
L 197.072237 41.603926 
L 200.530914 41.603926 
L 200.530914 51.910675 
L 203.989592 51.910675 
L 203.989592 27.586748 
L 207.44827 27.586748 
L 207.44827 42.016196 
L 210.906947 42.016196 
L 210.906947 60.980613 
L 214.365625 60.980613 
L 214.365625 45.726626 
L 217.824303 45.726626 
L 217.824303 63.454233 
L 221.28298 63.454233 
L 221.28298 56.033374 
L 224.741658 56.033374 
L 224.741658 66.752393 
L 228.200336 66.752393 
L 228.200336 65.515583 
L 231.659013 65.515583 
L 231.659013 58.919264 
L 235.117691 58.919264 
L 235.117691 74.173252 
L 238.576369 74.173252 
L 238.576369 75.410061 
L 242.035046 75.410061 
L 242.035046 78.708221 
L 245.493724 78.708221 
L 245.493724 67.164663 
L 248.952402 67.164663 
L 248.952402 85.30454 
L 255.869757 85.30454 
L 255.869757 84.48 
L 259.328435 84.48 
L 259.328435 82.00638 
L 262.787113 82.00638 
L 262.787113 88.190429 
L 266.24579 88.190429 
L 266.24579 80.357301 
L 269.704468 80.357301 
L 269.704468 91.076319 
L 273.163146 91.076319 
L 273.163146 90.664049 
L 276.621823 90.664049 
L 276.621823 101.795337 
L 280.080501 101.795337 
L 280.080501 103.032147 
L 283.539179 103.032147 
L 283.539179 93.962209 
L 286.997856 93.962209 
L 286.997856 108.391656 
L 290.456534 108.391656 
L 290.456534 106.742577 
L 293.915212 106.742577 
L 293.915212 105.093497 
L 297.373889 105.093497 
L 297.373889 110.865276 
L 300.832567 110.865276 
L 300.832567 110.453006 
L 307.749923 110.453006 
L 307.749923 120.759755 
L 311.2086 120.759755 
L 311.2086 124.470184 
L 314.667278 124.470184 
L 314.667278 133.952393 
L 318.125956 133.952393 
L 318.125956 137.250552 
L 321.584633 137.250552 
L 321.584633 134.776933 
L 325.043311 134.776933 
L 325.043311 149.20638 
L 328.501989 149.20638 
L 328.501989 154.56589 
L 331.960666 154.56589 
L 331.960666 159.925399 
L 335.419344 159.925399 
L 335.419344 171.468957 
L 338.878022 171.468957 
L 338.878022 183.012515 
L 342.336699 183.012515 
L 342.336699 192.906994 
L 345.795377 192.906994 
L 345.795377 193.319264 
L 349.254055 193.319264 
L 349.254055 203.213742 
L 352.712732 203.213742 
L 352.712732 206.924172 
L 356.17141 206.924172 
L 356.17141 210.222331 
L 359.630088 210.222331 
L 359.630088 215.58184 
L 363.088765 215.58184 
L 363.088765 217.64319 
L 366.547443 217.64319 
L 366.547443 217.64319 
" clip-path="url(#pdadc81ec4c)" style="fill: none; stroke: #9467bd; stroke-width: 1.5; stroke-linecap: square"/>
   </g>
   <g id="patch_3">
    <path d="M 46.965625 228.96 
L 46.965625 7.2 
" style="fill: none; stroke: #000000; stroke-width: 0.8; stroke-linejoin: miter; stroke-linecap: square"/>
   </g>
   <g id="patch_4">
    <path d="M 381.765625 228.96 
L 381.765625 7.2 
" style="fill: none; stroke: #000000; stroke-width: 0.8; stroke-linejoin: miter; stroke-linecap: square"/>
   </g>
   <g id="patch_5">
    <path d="M 46.965625 228.96 
L 381.765625 228.96 
" style="fill: none; stroke: #000000; stroke-width: 0.8; stroke-linejoin: miter; stroke-linecap: square"/>
   </g>
   <g id="patch_6">
    <path d="M 46.965625 7.2 
L 381.765625 7.2 
" style="fill: none; stroke: #000000; stroke-width: 0.8; stroke-linejoin: miter; stroke-linecap: square"/>
   </g>
   <g id="legend_1">
    <g id="patch_7">
     <path d="M 300.542188 88.590625 
L 374.765625 88.590625 
Q 376.765625 88.590625 376.765625 86.590625 
L 376.765625 14.2 
Q 376.765625 12.2 374.765625 12.2 
L 300.542188 12.2 
Q 298.542188 12.2 298.542188 14.2 
L 298.542188 86.590625 
Q 298.542188 88.590625 300.542188 88.590625 
z
" style="fill: #ffffff; opacity: 0.8; stroke: #cccccc; stroke-linejoin: miter"/>
    </g>
    <g id="line2d_18">
     <path d="M 302.542188 20.298437 
L 302.542188 20.298437 
L 312.542188 20.298437 
L 312.542188 20.298437 
L 322.542188 20.298437 
" style="fill: none; stroke: #1f77b4; stroke-width: 1.5; stroke-linecap: square"/>
    </g>
    <g id="text_15">
     <!-- beam -->
     <g transform="translate(330.542188 23.798437) scale(0.1 -0.1)">
      <defs>
       <path id="DejaVuSans-62" d="M 3116 1747 
Q 3116 2381 2855 2742 
Q 2594 3103 2138 3103 
Q 1681 3103 1420 2742 
Q 1159 2381 1159 1747 
Q 1159 1113 1420 752 
Q 1681 391 2138 391 
Q 2594 391 2855 752 
Q 3116 1113 3116 1747 
z
M 1159 2969 
Q 1341 3281 1617 3432 
Q 1894 3584 2278 3584 
Q 2916 3584 3314 3078 
Q 3713 2572 3713 1747 
Q 3713 922 3314 415 
Q 2916 -91 2278 -91 
Q 1894 -91 1617 61 
Q 1341 213 1159 525 
L 1159 0 
L 581 0 
L 581 4863 
L 1159 4863 
L 1159 2969 
z
" transform="scale(0.015625)"/>
       <path id="DejaVuSans-6d" d="M 3328 2828 
Q 3544 3216 3844 3400 
Q 4144 3584 4550 3584 
Q 5097 3584 5394 3201 
Q 5691 2819 5691 2113 
L 5691 0 
L 5113 0 
L 5113 2094 
Q 5113 2597 4934 2840 
Q 4756 3084 4391 3084 
Q 3944 3084 3684 2787 
Q 3425 2491 3425 1978 
L 3425 0 
L 2847 0 
L 2847 2094 
Q 2847 2600 2669 2842 
Q 2491 3084 2119 3084 
Q 1678 3084 1418 2786 
Q 1159 2488 1159 1978 
L 1159 0 
L 581 0 
L 581 3500 
L 1159 3500 
L 1159 2956 
Q 1356 3278 1631 3431 
Q 1906 3584 2284 3584 
Q 2666 3584 2933 3390 
Q 3200 3197 3328 2828 
z
" transform="scale(0.015625)"/>
      </defs>
      <use xlink:href="#DejaVuSans-62"/>
      <use xlink:href="#DejaVuSans-65" transform="translate(63.476562 0)"/>
      <use xlink:href="#DejaVuSans-61" transform="translate(125 0)"/>
      <use xlink:href="#DejaVuSans-6d" transform="translate(186.279297 0)"/>
     </g>
    </g>
    <g id="line2d_19">
     <path d="M 302.542188 34.976562 
L 302.542188 34.976562 
L 312.542188 34.976562 
L 312.542188 34.976562 
L 322.542188 34.976562 
" style="fill: none; stroke: #ff7f0e; stroke-width: 1.5; stroke-linecap: square"/>
    </g>
    <g id="text_16">
     <!-- sample -->
     <g transform="translate(330.542188 38.476562) scale(0.1 -0.1)">
      <defs>
       <path id="DejaVuSans-70" d="M 1159 525 
L 1159 -1331 
L 581 -1331 
L 581 3500 
L 1159 3500 
L 1159 2969 
Q 1341 3281 1617 3432 
Q 1894 3584 2278 3584 
Q 2916 3584 3314 3078 
Q 3713 2572 3713 1747 
Q 3713 922 3314 415 
Q 2916 -91 2278 -91 
Q 1894 -91 1617 61 
Q 1341 213 1159 525 
z
M 3116 1747 
Q 3116 2381 2855 2742 
Q 2594 3103 2138 3103 
Q 1681 3103 1420 2742 
Q 1159 2381 1159 1747 
Q 1159 1113 1420 752 
Q 1681 391 2138 391 
Q 2594 391 2855 752 
Q 3116 1113 3116 1747 
z
" transform="scale(0.015625)"/>
      </defs>
      <use xlink:href="#DejaVuSans-73"/>
      <use xlink:href="#DejaVuSans-61" transform="translate(52.099609 0)"/>
      <use xlink:href="#DejaVuSans-6d" transform="translate(113.378906 0)"/>
      <use xlink:href="#DejaVuSans-70" transform="translate(210.791016 0)"/>
      <use xlink:href="#DejaVuSans-6c" transform="translate(274.267578 0)"/>
      <use xlink:href="#DejaVuSans-65" transform="translate(302.050781 0)"/>
     </g>
    </g>
    <g id="line2d_20">
     <path d="M 302.542188 49.654687 
L 302.542188 49.654687 
L 312.542188 49.654687 
L 312.542188 49.654687 
L 322.542188 49.654687 
" style="fill: none; stroke: #2ca02c; stroke-width: 1.5; stroke-linecap: square"/>
    </g>
    <g id="text_17">
     <!-- monitor -->
     <g transform="translate(330.542188 53.154687) scale(0.1 -0.1)">
      <defs>
       <path id="DejaVuSans-69" d="M 603 3500 
L 1178 3500 
L 1178 0 
L 603 0 
L 603 3500 
z
M 603 4863 
L 1178 4863 
L 1178 4134 
L 603 4134 
L 603 4863 
z
" transform="scale(0.015625)"/>
       <path id="DejaVuSans-72" d="M 2631 2963 
Q 2534 3019 2420 3045 
Q 2306 3072 2169 3072 
Q 1681 3072 1420 2755 
Q 1159 2438 1159 1844 
L 1159 0 
L 581 0 
L 581 3500 
L 1159 3500 
L 1159 2956 
Q 1341 3275 1631 3429 
Q 1922 3584 2338 3584 
Q 2397 3584 2469 3576 
Q 2541 3569 2628 3553 
L 2631 2963 
z
" transform="scale(0.015625)"/>
      </defs>
      <use xlink:href="#DejaVuSans-6d"/>
      <use xlink:href="#DejaVuSans-6f" transform="translate(97.412109 0)"/>
      <use xlink:href="#DejaVuSans-6e" transform="translate(158.59375 0)"/>
      <use xlink:href="#DejaVuSans-69" transform="translate(221.972656 0)"/>
      <use xlink:href="#DejaVuSans-74" transform="translate(249.755859 0)"/>
      <use xlink:href="#DejaVuSans-6f" transform="translate(288.964844 0)"/>
      <use xlink:href="#DejaVuSans-72" transform="translate(350.146484 0)"/>
     </g>
    </g>
    <g id="line2d_21">
     <path d="M 302.542188 64.332812 
L 302.542188 64.332812 
L 312.542188 64.332812 
L 312.542188 64.332812 
L 322.542188 64.332812 
" style="fill: none; stroke: #d62728; stroke-width: 1.5; stroke-linecap: square"/>
    </g>
    <g id="text_18">
     <!-- detector -->
     <g transform="translate(330.542188 67.832812) scale(0.1 -0.1)">
      <defs>
       <path id="DejaVuSans-64" d="M 2906 2969 
L 2906 4863 
L 3481 4863 
L 3481 0 
L 2906 0 
L 2906 525 
Q 2725 213 2448 61 
Q 2172 -91 1784 -91 
Q 1150 -91 751 415 
Q 353 922 353 1747 
Q 353 2572 751 3078 
Q 1150 3584 1784 3584 
Q 2172 3584 2448 3432 
Q 2725 3281 2906 2969 
z
M 947 1747 
Q 947 1113 1208 752 
Q 1469 391 1925 391 
Q 2381 391 2643 752 
Q 2906 1113 2906 1747 
Q 2906 2381 2643 2742 
Q 2381 3103 1925 3103 
Q 1469 3103 1208 2742 
Q 947 2381 947 1747 
z
" transform="scale(0.015625)"/>
      </defs>
      <use xlink:href="#DejaVuSans-64"/>
      <use xlink:href="#DejaVuSans-65" transform="translate(63.476562 0)"/>
      <use xlink:href="#DejaVuSans-74" transform="translate(125 0)"/>
      <use xlink:href="#DejaVuSans-65" transform="translate(164.208984 0)"/>
      <use xlink:href="#DejaVuSans-63" transform="translate(225.732422 0)"/>
      <use xlink:href="#DejaVuSans-74" transform="translate(280.712891 0)"/>
      <use xlink:href="#DejaVuSans-6f" transform="translate(319.921875 0)"/>
      <use xlink:href="#DejaVuSans-72" transform="translate(381.103516 0)"/>
     </g>
    </g>
    <g id="line2d_22">
     <path d="M 302.542188 79.010937 
L 302.542188 79.010937 
L 312.542188 79.010937 
L 312.542188 79.010937 
L 322.542188 79.010937 
" style="fill: none; stroke: #9467bd; stroke-width: 1.5; stroke-linecap: square"/>
    </g>
    <g id="text_19">
     <!-- true -->
     <g transform="translate(330.542188 82.510937) scale(0.1 -0.1)">
      <use xlink:href="#DejaVuSans-74"/>
      <use xlink:href="#DejaVuSans-72" transform="translate(39.208984 0)"/>
      <use xlink:href="#DejaVuSans-75" transform="translate(80.322266 0)"/>
      <use xlink:href="#DejaVuSans-65" transform="translate(143.701172 0)"/>
     </g>
    </g>
   </g>
  </g>
 </g>
 <defs>
  <clipPath id="pdadc81ec4c">
   <rect x="46.965625" y="7.2" width="334.8" height="221.76"/>
  </clipPath>
 </defs>
</svg>
