<?xml version="1.0" encoding="utf-8" standalone="no"?>
<!DOCTYPE svg PUBLIC "-//W3C//DTD SVG 1.1//EN"
  "http://www.w3.org/Graphics/SVG/1.1/DTD/svg11.dtd">
<svg xmlns:xlink="http://www.w3.org/1999/xlink" width="872.39952pt" height="296.39952pt" viewBox="0 0 872.39952 296.39952" xmlns="http://www.w3.org/2000/svg" version="1.1">
 <metadata>
  <rdf:RDF xmlns:dc="http://purl.org/dc/elements/1.1/" xmlns:cc="http://creativecommons.org/ns#" xmlns:rdf="http://www.w3.org/1999/02/22-rdf-syntax-ns#">
   <cc:Work>
    <dc:type rdf:resource="http://purl.org/dc/dcmitype/StillImage"/>
    <dc:date>2026-02-24T15:28:34.721170</dc:date>
    <dc:format>image/svg+xml</dc:format>
    <dc:creator>
     <cc:Agent>
      <dc:title>Matplotlib v3.10.8, https://matplotlib.org/</dc:title>
     </cc:Agent>
    </dc:creator>
   </cc:Work>
  </rdf:RDF>
 </metadata>
 <defs>
  <style type="text/css">*{stroke-linejoin: round; stroke-linecap: butt}</style>
 </defs>
 <g id="figure_1">
  <g id="patch_1">
   <path d="M 0 296.39952 
L 872.39952 296.39952 
L 872.39952 0 
L 0 0 
z
" style="fill: #ffffff"/>
  </g>
  <g id="axes_1">
   <g id="patch_2">
    <path d="M 53.328125 257.158895 
L 414.59976 257.158895 
L 414.59976 7.2 
L 53.328125 7.2 
z
" style="fill: #ffffff"/>
   </g>
   <g id="matplotlib.axis_1">
    <g id="xtick_1">
     <g id="line2d_1">
      <defs>
       <path id="me60b331339" d="M 0 0 
L 0 3.5 
" style="stroke: #000000; stroke-width: 0.8"/>
      </defs>
      <g>
       <use xlink:href="#me60b331339" x="68.846967" y="257.158895" style="stroke: #000000; stroke-width: 0.8"/>
      </g>
     </g>
     <g id="text_1">
      <!-- 0 -->
      <g transform="translate(65.665717 271.757332) scale(0.1 -0.1)">
       <defs>
        <path id="DejaVuSans-30" d="M 2034 4250 
Q 1547 4250 1301 3770 
Q 1056 3291 1056 2328 
Q 1056 1369 1301 889 
Q 1547 409 2034 409 
Q 2525 409 2770 889 
Q 3016 1369 3016 2328 
Q 3016 3291 2770 3770 
Q 2525 4250 2034 4250 
z
M 2034 4750 
Q 2819 4750 3233 4129 
Q 3647 3509 3647 2328 
Q 3647 1150 3233 529 
Q 2819 -91 2034 -91 
Q 1250 -91 836 529 
Q 422 1150 422 2328 
Q 422 3509 836 4129 
Q 1250 4750 2034 4750 
z
" transform="scale(0.015625)"/>
       </defs>
       <use xlink:href="#DejaVuSans-30"/>
      </g>
     </g>
    </g>
    <g id="xtick_2">
     <g id="line2d_2">
      <g>
       <use xlink:href="#me60b331339" x="135.062389" y="257.158895" style="stroke: #000000; stroke-width: 0.8"/>
      </g>
     </g>
     <g id="text_2">
      <!-- 1000 -->
      <g transform="translate(122.337389 271.757332) scale(0.1 -0.1)">
       <defs>
        <path id="DejaVuSans-31" d="M 794 531 
L 1825 531 
L 1825 4091 
L 703 3866 
L 703 4441 
L 1819 4666 
L 2450 4666 
L 2450 531 
L 3481 531 
L 3481 0 
L 794 0 
L 794 531 
z
" transform="scale(0.015625)"/>
       </defs>
       <use xlink:href="#DejaVuSans-31"/>
       <use xlink:href="#DejaVuSans-30" transform="translate(63.623047 0)"/>
       <use xlink:href="#DejaVuSans-30" transform="translate(127.246094 0)"/>
       <use xlink:href="#DejaVuSans-30" transform="translate(190.869141 0)"/>
      </g>
     </g>
    </g>
    <g id="xtick_3">
     <g id="line2d_3">
      <g>
       <use xlink:href="#me60b331339" x="201.27781" y="257.158895" style="stroke: #000000; stroke-width: 0.8"/>
      </g>
     </g>
     <g id="text_3">
      <!-- 2000 -->
      <g transform="translate(188.55281 271.757332) scale(0.1 -0.1)">
       <defs>
        <path id="DejaVuSans-32" d="M 1228 531 
L 3431 531 
L 3431 0 
L 469 0 
L 469 531 
Q 828 903 1448 1529 
Q 2069 2156 2228 2338 
Q 2531 2678 2651 2914 
Q 2772 3150 2772 3378 
Q 2772 3750 2511 3984 
Q 2250 4219 1831 4219 
Q 1534 4219 1204 4116 
Q 875 4013 500 3803 
L 500 4441 
Q 881 4594 1212 4672 
Q 1544 4750 1819 4750 
Q 2544 4750 2975 4387 
Q 3406 4025 3406 3419 
Q 3406 3131 3298 2873 
Q 3191 2616 2906 2266 
Q 2828 2175 2409 1742 
Q 1991 1309 1228 531 
z
" transform="scale(0.015625)"/>
       </defs>
       <use xlink:href="#DejaVuSans-32"/>
       <use xlink:href="#DejaVuSans-30" transform="translate(63.623047 0)"/>
       <use xlink:href="#DejaVuSans-30" transform="translate(127.246094 0)"/>
       <use xlink:href="#DejaVuSans-30" transform="translate(190.869141 0)"/>
      </g>
     </g>
    </g>
    <g id="xtick_4">
     <g id="line2d_4">
      <g>
       <use xlink:href="#me60b331339" x="267.493232" y="257.158895" style="stroke: #000000; stroke-width: 0.8"/>
      </g>
     </g>
     <g id="text_4">
      <!-- 3000 -->
      <g transform="translate(254.768232 271.757332) scale(0.1 -0.1)">
       <defs>
        <path id="DejaVuSans-33" d="M 2597 2516 
Q 3050 2419 3304 2112 
Q 3559 1806 3559 1356 
Q 3559 666 3084 287 
Q 2609 -91 1734 -91 
Q 1441 -91 1130 -33 
Q 819 25 488 141 
L 488 750 
Q 750 597 1062 519 
Q 1375 441 1716 441 
Q 2309 441 2620 675 
Q 2931 909 2931 1356 
Q 2931 1769 2642 2001 
Q 2353 2234 1838 2234 
L 1294 2234 
L 1294 2753 
L 1863 2753 
Q 2328 2753 2575 2939 
Q 2822 3125 2822 3475 
Q 2822 3834 2567 4026 
Q 2313 4219 1838 4219 
Q 1578 4219 1281 4162 
Q 984 4106 628 3988 
L 628 4550 
Q 988 4650 1302 4700 
Q 1616 4750 1894 4750 
Q 2613 4750 3031 4423 
Q 3450 4097 3450 3541 
Q 3450 3153 3228 2886 
Q 3006 2619 2597 2516 
z
" transform="scale(0.015625)"/>
       </defs>
       <use xlink:href="#DejaVuSans-33"/>
       <use xlink:href="#DejaVuSans-30" transform="translate(63.623047 0)"/>
       <use xlink:href="#DejaVuSans-30" transform="translate(127.246094 0)"/>
       <use xlink:href="#DejaVuSans-30" transform="translate(190.869141 0)"/>
      </g>
     </g>
    </g>
    <g id="xtick_5">
     <g id="line2d_5">
      <g>
       <use xlink:href="#me60b331339" x="333.708653" y="257.158895" style="stroke: #000000; stroke-width: 0.8"/>
      </g>
     </g>
     <g id="text_5">
      <!-- 4000 -->
      <g transform="translate(320.983653 271.757332) scale(0.1 -0.1)">
       <defs>
        <path id="DejaVuSans-34" d="M 2419 4116 
L 825 1625 
L 2419 1625 
L 2419 4116 
z
M 2253 4666 
L 3047 4666 
L 3047 1625 
L 3713 1625 
L 3713 1100 
L 3047 1100 
L 3047 0 
L 2419 0 
L 2419 1100 
L 313 1100 
L 313 1709 
L 2253 4666 
z
" transform="scale(0.015625)"/>
       </defs>
       <use xlink:href="#DejaVuSans-34"/>
       <use xlink:href="#DejaVuSans-30" transform="translate(63.623047 0)"/>
       <use xlink:href="#DejaVuSans-30" transform="translate(127.246094 0)"/>
       <use xlink:href="#DejaVuSans-30" transform="translate(190.869141 0)"/>
      </g>
     </g>
    </g>
    <g id="xtick_6">
     <g id="line2d_6">
      <g>
       <use xlink:href="#me60b331339" x="399.924075" y="257.158895" style="stroke: #000000; stroke-width: 0.8"/>
      </g>
     </g>
     <g id="text_6">
      <!-- 5000 -->
      <g transform="translate(387.199075 271.757332) scale(0.1 -0.1)">
       <defs>
        <path id="DejaVuSans-35" d="M 691 4666 
L 3169 4666 
L 3169 4134 
L 1269 4134 
L 1269 2991 
Q 1406 3038 1543 3061 
Q 1681 3084 1819 3084 
Q 2600 3084 3056 2656 
Q 3513 2228 3513 1497 
Q 3513 744 3044 326 
Q 2575 -91 1722 -91 
Q 1428 -91 1123 -41 
Q 819 9 494 109 
L 494 744 
Q 775 591 1075 516 
Q 1375 441 1709 441 
Q 2250 441 2565 725 
Q 2881 1009 2881 1497 
Q 2881 1984 2565 2268 
Q 2250 2553 1709 2553 
Q 1456 2553 1204 2497 
Q 953 2441 691 2322 
L 691 4666 
z
" transform="scale(0.015625)"/>
       </defs>
       <use xlink:href="#DejaVuSans-35"/>
       <use xlink:href="#DejaVuSans-30" transform="translate(63.623047 0)"/>
       <use xlink:href="#DejaVuSans-30" transform="translate(127.246094 0)"/>
       <use xlink:href="#DejaVuSans-30" transform="translate(190.869141 0)"/>
      </g>
     </g>
    </g>
    <g id="text_7">
     <!-- birth_time [µs] -->
     <g transform="translate(197.14363 285.435457) scale(0.1 -0.1)">
      <defs>
       <path id="DejaVuSans-62" d="M 3116 1747 
Q 3116 2381 2855 2742 
Q 2594 3103 2138 3103 
Q 1681 3103 1420 2742 
Q 1159 2381 1159 1747 
Q 1159 1113 1420 752 
Q 1681 391 2138 391 
Q 2594 391 2855 752 
Q 3116 1113 3116 1747 
z
M 1159 2969 
Q 1341 3281 1617 3432 
Q 1894 3584 2278 3584 
Q 2916 3584 3314 3078 
Q 3713 2572 3713 1747 
Q 3713 922 3314 415 
Q 2916 -91 2278 -91 
Q 1894 -91 1617 61 
Q 1341 213 1159 525 
L 1159 0 
L 581 0 
L 581 4863 
L 1159 4863 
L 1159 2969 
z
" transform="scale(0.015625)"/>
       <path id="DejaVuSans-69" d="M 603 3500 
L 1178 3500 
L 1178 0 
L 603 0 
L 603 3500 
z
M 603 4863 
L 1178 4863 
L 1178 4134 
L 603 4134 
L 603 4863 
z
" transform="scale(0.015625)"/>
       <path id="DejaVuSans-72" d="M 2631 2963 
Q 2534 3019 2420 3045 
Q 2306 3072 2169 3072 
Q 1681 3072 1420 2755 
Q 1159 2438 1159 1844 
L 1159 0 
L 581 0 
L 581 3500 
L 1159 3500 
L 1159 2956 
Q 1341 3275 1631 3429 
Q 1922 3584 2338 3584 
Q 2397 3584 2469 3576 
Q 2541 3569 2628 3553 
L 2631 2963 
z
" transform="scale(0.015625)"/>
       <path id="DejaVuSans-74" d="M 1172 4494 
L 1172 3500 
L 2356 3500 
L 2356 3053 
L 1172 3053 
L 1172 1153 
Q 1172 725 1289 603 
Q 1406 481 1766 481 
L 2356 481 
L 2356 0 
L 1766 0 
Q 1100 0 847 248 
Q 594 497 594 1153 
L 594 3053 
L 172 3053 
L 172 3500 
L 594 3500 
L 594 4494 
L 1172 4494 
z
" transform="scale(0.015625)"/>
       <path id="DejaVuSans-68" d="M 3513 2113 
L 3513 0 
L 2938 0 
L 2938 2094 
Q 2938 2591 2744 2837 
Q 2550 3084 2163 3084 
Q 1697 3084 1428 2787 
Q 1159 2491 1159 1978 
L 1159 0 
L 581 0 
L 581 4863 
L 1159 4863 
L 1159 2956 
Q 1366 3272 1645 3428 
Q 1925 3584 2291 3584 
Q 2894 3584 3203 3211 
Q 3513 2838 3513 2113 
z
" transform="scale(0.015625)"/>
       <path id="DejaVuSans-5f" d="M 3263 -1063 
L 3263 -1509 
L -63 -1509 
L -63 -1063 
L 3263 -1063 
z
" transform="scale(0.015625)"/>
       <path id="DejaVuSans-6d" d="M 3328 2828 
Q 3544 3216 3844 3400 
Q 4144 3584 4550 3584 
Q 5097 3584 5394 3201 
Q 5691 2819 5691 2113 
L 5691 0 
L 5113 0 
L 5113 2094 
Q 5113 2597 4934 2840 
Q 4756 3084 4391 3084 
Q 3944 3084 3684 2787 
Q 3425 2491 3425 1978 
L 3425 0 
L 2847 0 
L 2847 2094 
Q 2847 2600 2669 2842 
Q 2491 3084 2119 3084 
Q 1678 3084 1418 2786 
Q 1159 2488 1159 1978 
L 1159 0 
L 581 0 
L 581 3500 
L 1159 3500 
L 1159 2956 
Q 1356 3278 1631 3431 
Q 1906 3584 2284 3584 
Q 2666 3584 2933 3390 
Q 3200 3197 3328 2828 
z
" transform="scale(0.015625)"/>
       <path id="DejaVuSans-65" d="M 3597 1894 
L 3597 1613 
L 953 1613 
Q 991 1019 1311 708 
Q 1631 397 2203 397 
Q 2534 397 2845 478 
Q 3156 559 3463 722 
L 3463 178 
Q 3153 47 2828 -22 
Q 2503 -91 2169 -91 
Q 1331 -91 842 396 
Q 353 884 353 1716 
Q 353 2575 817 3079 
Q 1281 3584 2069 3584 
Q 2775 3584 3186 3129 
Q 3597 2675 3597 1894 
z
M 3022 2063 
Q 3016 2534 2758 2815 
Q 2500 3097 2075 3097 
Q 1594 3097 1305 2825 
Q 1016 2553 972 2059 
L 3022 2063 
z
" transform="scale(0.015625)"/>
       <path id="DejaVuSans-20" transform="scale(0.015625)"/>
       <path id="DejaVuSans-5b" d="M 550 4863 
L 1875 4863 
L 1875 4416 
L 1125 4416 
L 1125 -397 
L 1875 -397 
L 1875 -844 
L 550 -844 
L 550 4863 
z
" transform="scale(0.015625)"/>
       <path id="DejaVuSans-b5" d="M 544 -1331 
L 544 3500 
L 1119 3500 
L 1119 1325 
Q 1119 872 1334 640 
Q 1550 409 1972 409 
Q 2434 409 2667 671 
Q 2900 934 2900 1459 
L 2900 3500 
L 3475 3500 
L 3475 806 
Q 3475 619 3529 530 
Q 3584 441 3700 441 
Q 3728 441 3778 458 
Q 3828 475 3916 513 
L 3916 50 
Q 3788 -22 3673 -56 
Q 3559 -91 3450 -91 
Q 3234 -91 3106 31 
Q 2978 153 2931 403 
Q 2775 156 2548 32 
Q 2322 -91 2016 -91 
Q 1697 -91 1473 31 
Q 1250 153 1119 397 
L 1119 -1331 
L 544 -1331 
z
" transform="scale(0.015625)"/>
       <path id="DejaVuSans-73" d="M 2834 3397 
L 2834 2853 
Q 2591 2978 2328 3040 
Q 2066 3103 1784 3103 
Q 1356 3103 1142 2972 
Q 928 2841 928 2578 
Q 928 2378 1081 2264 
Q 1234 2150 1697 2047 
L 1894 2003 
Q 2506 1872 2764 1633 
Q 3022 1394 3022 966 
Q 3022 478 2636 193 
Q 2250 -91 1575 -91 
Q 1294 -91 989 -36 
Q 684 19 347 128 
L 347 722 
Q 666 556 975 473 
Q 1284 391 1588 391 
Q 1994 391 2212 530 
Q 2431 669 2431 922 
Q 2431 1156 2273 1281 
Q 2116 1406 1581 1522 
L 1381 1569 
Q 847 1681 609 1914 
Q 372 2147 372 2553 
Q 372 3047 722 3315 
Q 1072 3584 1716 3584 
Q 2034 3584 2315 3537 
Q 2597 3491 2834 3397 
z
" transform="scale(0.015625)"/>
       <path id="DejaVuSans-5d" d="M 1947 4863 
L 1947 -844 
L 622 -844 
L 622 -397 
L 1369 -397 
L 1369 4416 
L 622 4416 
L 622 4863 
L 1947 4863 
z
" transform="scale(0.015625)"/>
      </defs>
      <use xlink:href="#DejaVuSans-62"/>
      <use xlink:href="#DejaVuSans-69" transform="translate(63.476562 0)"/>
      <use xlink:href="#DejaVuSans-72" transform="translate(91.259766 0)"/>
      <use xlink:href="#DejaVuSans-74" transform="translate(132.373047 0)"/>
      <use xlink:href="#DejaVuSans-68" transform="translate(171.582031 0)"/>
      <use xlink:href="#DejaVuSans-5f" transform="translate(234.960938 0)"/>
      <use xlink:href="#DejaVuSans-74" transform="translate(284.960938 0)"/>
      <use xlink:href="#DejaVuSans-69" transform="translate(324.169922 0)"/>
      <use xlink:href="#DejaVuSans-6d" transform="translate(351.953125 0)"/>
      <use xlink:href="#DejaVuSans-65" transform="translate(449.365234 0)"/>
      <use xlink:href="#DejaVuSans-20" transform="translate(510.888672 0)"/>
      <use xlink:href="#DejaVuSans-5b" transform="translate(542.675781 0)"/>
      <use xlink:href="#DejaVuSans-b5" transform="translate(581.689453 0)"/>
      <use xlink:href="#DejaVuSans-73" transform="translate(645.3125 0)"/>
      <use xlink:href="#DejaVuSans-5d" transform="translate(697.412109 0)"/>
     </g>
    </g>
   </g>
   <g id="matplotlib.axis_2">
    <g id="ytick_1">
     <g id="line2d_7">
      <defs>
       <path id="md0bc3c5779" d="M 0 0 
L -3.5 0 
" style="stroke: #000000; stroke-width: 0.8"/>
      </defs>
      <g>
       <use xlink:href="#md0bc3c5779" x="53.328125" y="245.797127" style="stroke: #000000; stroke-width: 0.8"/>
      </g>
     </g>
     <g id="text_8">
      <!-- 0 -->
      <g transform="translate(39.965625 249.596346) scale(0.1 -0.1)">
       <use xlink:href="#DejaVuSans-30"/>
      </g>
     </g>
    </g>
    <g id="ytick_2">
     <g id="line2d_8">
      <g>
       <use xlink:href="#md0bc3c5779" x="53.328125" y="208.636807" style="stroke: #000000; stroke-width: 0.8"/>
      </g>
     </g>
     <g id="text_9">
      <!-- 200 -->
      <g transform="translate(27.240625 212.436025) scale(0.1 -0.1)">
       <use xlink:href="#DejaVuSans-32"/>
       <use xlink:href="#DejaVuSans-30" transform="translate(63.623047 0)"/>
       <use xlink:href="#DejaVuSans-30" transform="translate(127.246094 0)"/>
      </g>
     </g>
    </g>
    <g id="ytick_3">
     <g id="line2d_9">
      <g>
       <use xlink:href="#md0bc3c5779" x="53.328125" y="171.476486" style="stroke: #000000; stroke-width: 0.8"/>
      </g>
     </g>
     <g id="text_10">
      <!-- 400 -->
      <g transform="translate(27.240625 175.275705) scale(0.1 -0.1)">
       <use xlink:href="#DejaVuSans-34"/>
       <use xlink:href="#DejaVuSans-30" transform="translate(63.623047 0)"/>
       <use xlink:href="#DejaVuSans-30" transform="translate(127.246094 0)"/>
      </g>
     </g>
    </g>
    <g id="ytick_4">
     <g id="line2d_10">
      <g>
       <use xlink:href="#md0bc3c5779" x="53.328125" y="134.316166" style="stroke: #000000; stroke-width: 0.8"/>
      </g>
     </g>
     <g id="text_11">
      <!-- 600 -->
      <g transform="translate(27.240625 138.115385) scale(0.1 -0.1)">
       <defs>
        <path id="DejaVuSans-36" d="M 2113 2584 
Q 1688 2584 1439 2293 
Q 1191 2003 1191 1497 
Q 1191 994 1439 701 
Q 1688 409 2113 409 
Q 2538 409 2786 701 
Q 3034 994 3034 1497 
Q 3034 2003 2786 2293 
Q 2538 2584 2113 2584 
z
M 3366 4563 
L 3366 3988 
Q 3128 4100 2886 4159 
Q 2644 4219 2406 4219 
Q 1781 4219 1451 3797 
Q 1122 3375 1075 2522 
Q 1259 2794 1537 2939 
Q 1816 3084 2150 3084 
Q 2853 3084 3261 2657 
Q 3669 2231 3669 1497 
Q 3669 778 3244 343 
Q 2819 -91 2113 -91 
Q 1303 -91 875 529 
Q 447 1150 447 2328 
Q 447 3434 972 4092 
Q 1497 4750 2381 4750 
Q 2619 4750 2861 4703 
Q 3103 4656 3366 4563 
z
" transform="scale(0.015625)"/>
       </defs>
       <use xlink:href="#DejaVuSans-36"/>
       <use xlink:href="#DejaVuSans-30" transform="translate(63.623047 0)"/>
       <use xlink:href="#DejaVuSans-30" transform="translate(127.246094 0)"/>
      </g>
     </g>
    </g>
    <g id="ytick_5">
     <g id="line2d_11">
      <g>
       <use xlink:href="#md0bc3c5779" x="53.328125" y="97.155846" style="stroke: #000000; stroke-width: 0.8"/>
      </g>
     </g>
     <g id="text_12">
      <!-- 800 -->
      <g transform="translate(27.240625 100.955064) scale(0.1 -0.1)">
       <defs>
        <path id="DejaVuSans-38" d="M 2034 2216 
Q 1584 2216 1326 1975 
Q 1069 1734 1069 1313 
Q 1069 891 1326 650 
Q 1584 409 2034 409 
Q 2484 409 2743 651 
Q 3003 894 3003 1313 
Q 3003 1734 2745 1975 
Q 2488 2216 2034 2216 
z
M 1403 2484 
Q 997 2584 770 2862 
Q 544 3141 544 3541 
Q 544 4100 942 4425 
Q 1341 4750 2034 4750 
Q 2731 4750 3128 4425 
Q 3525 4100 3525 3541 
Q 3525 3141 3298 2862 
Q 3072 2584 2669 2484 
Q 3125 2378 3379 2068 
Q 3634 1759 3634 1313 
Q 3634 634 3220 271 
Q 2806 -91 2034 -91 
Q 1263 -91 848 271 
Q 434 634 434 1313 
Q 434 1759 690 2068 
Q 947 2378 1403 2484 
z
M 1172 3481 
Q 1172 3119 1398 2916 
Q 1625 2713 2034 2713 
Q 2441 2713 2670 2916 
Q 2900 3119 2900 3481 
Q 2900 3844 2670 4047 
Q 2441 4250 2034 4250 
Q 1625 4250 1398 4047 
Q 1172 3844 1172 3481 
z
" transform="scale(0.015625)"/>
       </defs>
       <use xlink:href="#DejaVuSans-38"/>
       <use xlink:href="#DejaVuSans-30" transform="translate(63.623047 0)"/>
       <use xlink:href="#DejaVuSans-30" transform="translate(127.246094 0)"/>
      </g>
     </g>
    </g>
    <g id="ytick_6">
     <g id="line2d_12">
      <g>
       <use xlink:href="#md0bc3c5779" x="53.328125" y="59.995525" style="stroke: #000000; stroke-width: 0.8"/>
      </g>
     </g>
     <g id="text_13">
      <!-- 1000 -->
      <g transform="translate(20.878125 63.794744) scale(0.1 -0.1)">
       <use xlink:href="#DejaVuSans-31"/>
       <use xlink:href="#DejaVuSans-30" transform="translate(63.623047 0)"/>
       <use xlink:href="#DejaVuSans-30" transform="translate(127.246094 0)"/>
       <use xlink:href="#DejaVuSans-30" transform="translate(190.869141 0)"/>
      </g>
     </g>
    </g>
    <g id="ytick_7">
     <g id="line2d_13">
      <g>
       <use xlink:href="#md0bc3c5779" x="53.328125" y="22.835205" style="stroke: #000000; stroke-width: 0.8"/>
      </g>
     </g>
     <g id="text_14">
      <!-- 1200 -->
      <g transform="translate(20.878125 26.634424) scale(0.1 -0.1)">
       <use xlink:href="#DejaVuSans-31"/>
       <use xlink:href="#DejaVuSans-32" transform="translate(63.623047 0)"/>
       <use xlink:href="#DejaVuSans-30" transform="translate(127.246094 0)"/>
       <use xlink:href="#DejaVuSans-30" transform="translate(190.869141 0)"/>
      </g>
     </g>
    </g>
    <g id="text_15">
     <!-- [counts] -->
     <g transform="translate(14.798438 152.791947) rotate(-90) scale(0.1 -0.1)">
      <defs>
       <path id="DejaVuSans-63" d="M 3122 3366 
L 3122 2828 
Q 2878 2963 2633 3030 
Q 2388 3097 2138 3097 
Q 1578 3097 1268 2742 
Q 959 2388 959 1747 
Q 959 1106 1268 751 
Q 1578 397 2138 397 
Q 2388 397 2633 464 
Q 2878 531 3122 666 
L 3122 134 
Q 2881 22 2623 -34 
Q 2366 -91 2075 -91 
Q 1284 -91 818 406 
Q 353 903 353 1747 
Q 353 2603 823 3093 
Q 1294 3584 2113 3584 
Q 2378 3584 2631 3529 
Q 2884 3475 3122 3366 
z
" transform="scale(0.015625)"/>
       <path id="DejaVuSans-6f" d="M 1959 3097 
Q 1497 3097 1228 2736 
Q 959 2375 959 1747 
Q 959 1119 1226 758 
Q 1494 397 1959 397 
Q 2419 397 2687 759 
Q 2956 1122 2956 1747 
Q 2956 2369 2687 2733 
Q 2419 3097 1959 3097 
z
M 1959 3584 
Q 2709 3584 3137 3096 
Q 3566 2609 3566 1747 
Q 3566 888 3137 398 
Q 2709 -91 1959 -91 
Q 1206 -91 779 398 
Q 353 888 353 1747 
Q 353 2609 779 3096 
Q 1206 3584 1959 3584 
z
" transform="scale(0.015625)"/>
       <path id="DejaVuSans-75" d="M 544 1381 
L 544 3500 
L 1119 3500 
L 1119 1403 
Q 1119 906 1312 657 
Q 1506 409 1894 409 
Q 2359 409 2629 706 
Q 2900 1003 2900 1516 
L 2900 3500 
L 3475 3500 
L 3475 0 
L 2900 0 
L 2900 538 
Q 2691 219 2414 64 
Q 2138 -91 1772 -91 
Q 1169 -91 856 284 
Q 544 659 544 1381 
z
M 1991 3584 
L 1991 3584 
z
" transform="scale(0.015625)"/>
       <path id="DejaVuSans-6e" d="M 3513 2113 
L 3513 0 
L 2938 0 
L 2938 2094 
Q 2938 2591 2744 2837 
Q 2550 3084 2163 3084 
Q 1697 3084 1428 2787 
Q 1159 2491 1159 1978 
L 1159 0 
L 581 0 
L 581 3500 
L 1159 3500 
L 1159 2956 
Q 1366 3272 1645 3428 
Q 1925 3584 2291 3584 
Q 2894 3584 3203 3211 
Q 3513 2838 3513 2113 
z
" transform="scale(0.015625)"/>
      </defs>
      <use xlink:href="#DejaVuSans-5b"/>
      <use xlink:href="#DejaVuSans-63" transform="translate(39.013672 0)"/>
      <use xlink:href="#DejaVuSans-6f" transform="translate(93.994141 0)"/>
      <use xlink:href="#DejaVuSans-75" transform="translate(155.175781 0)"/>
      <use xlink:href="#DejaVuSans-6e" transform="translate(218.554688 0)"/>
      <use xlink:href="#DejaVuSans-74" transform="translate(281.933594 0)"/>
      <use xlink:href="#DejaVuSans-73" transform="translate(321.142578 0)"/>
      <use xlink:href="#DejaVuSans-5d" transform="translate(373.242188 0)"/>
     </g>
    </g>
   </g>
   <g id="line2d_14">
    <path d="M 69.749563 232.976817 
L 70.844325 232.976817 
L 70.844325 226.47376 
L 71.939088 226.47376 
L 71.939088 220.342308 
L 73.033851 220.342308 
L 73.033851 212.352839 
L 74.128613 212.352839 
L 74.128613 199.160925 
L 75.223376 199.160925 
L 75.223376 189.499242 
L 76.318138 189.499242 
L 76.318138 183.739392 
L 77.412901 183.739392 
L 77.412901 172.033891 
L 78.507663 172.033891 
L 78.507663 175.935725 
L 79.602426 175.935725 
L 79.602426 167.574653 
L 80.697188 167.574653 
L 80.697188 152.896326 
L 81.791951 152.896326 
L 81.791951 145.835865 
L 82.886713 145.835865 
L 82.886713 140.076016 
L 83.981476 140.076016 
L 83.981476 133.944563 
L 85.076238 133.944563 
L 85.076238 125.026086 
L 86.171001 125.026086 
L 86.171001 119.452038 
L 88.360526 119.452038 
L 88.360526 114.621196 
L 89.455288 114.621196 
L 89.455288 109.23295 
L 90.550051 109.23295 
L 90.550051 104.58791 
L 91.644814 104.58791 
L 91.644814 100.686076 
L 92.739576 100.686076 
L 92.739576 98.82806 
L 93.834339 98.82806 
L 93.834339 96.784242 
L 94.929101 96.784242 
L 94.929101 94.926226 
L 96.023864 94.926226 
L 96.023864 89.352178 
L 97.118626 89.352178 
L 97.118626 95.29783 
L 98.213389 95.29783 
L 98.213389 73.373241 
L 99.308151 73.373241 
L 99.308151 75.788661 
L 100.402914 75.788661 
L 100.402914 65.755375 
L 101.497676 65.755375 
L 101.497676 70.028812 
L 102.592439 70.028812 
L 102.592439 73.373241 
L 103.687201 73.373241 
L 103.687201 68.914002 
L 104.781964 68.914002 
L 104.781964 68.170796 
L 105.876726 68.170796 
L 105.876726 63.897359 
L 106.971489 63.897359 
L 106.971489 51.634453 
L 108.066252 51.634453 
L 108.066252 69.099804 
L 109.161014 69.099804 
L 109.161014 57.0227 
L 110.255777 57.0227 
L 110.255777 64.08316 
L 111.350539 64.08316 
L 111.350539 45.317199 
L 112.445302 45.317199 
L 112.445302 50.891247 
L 113.540064 50.891247 
L 113.540064 54.049874 
L 114.634827 54.049874 
L 114.634827 57.0227 
L 115.729589 57.0227 
L 115.729589 41.229563 
L 116.824352 41.229563 
L 116.824352 46.989413 
L 117.919114 46.989413 
L 117.919114 55.536287 
L 119.013877 55.536287 
L 119.013877 50.891247 
L 121.203402 50.891247 
L 121.203402 49.962239 
L 122.298164 49.962239 
L 122.298164 37.513531 
L 123.392927 37.513531 
L 123.392927 35.469714 
L 124.487689 35.469714 
L 124.487689 42.530175 
L 125.582452 42.530175 
L 125.582452 51.634453 
L 126.677215 51.634453 
L 126.677215 49.033231 
L 127.771977 49.033231 
L 127.771977 38.814143 
L 128.86674 38.814143 
L 128.86674 38.999944 
L 129.961502 38.999944 
L 129.961502 38.442539 
L 132.151027 38.442539 
L 132.151027 38.999944 
L 133.24579 38.999944 
L 133.24579 34.354904 
L 134.340552 34.354904 
L 134.340552 38.256738 
L 135.435315 38.256738 
L 135.435315 37.32773 
L 136.530077 37.32773 
L 136.530077 47.732619 
L 137.62484 47.732619 
L 137.62484 39.557349 
L 138.719602 39.557349 
L 138.719602 49.590635 
L 139.814365 49.590635 
L 139.814365 38.256738 
L 140.909127 38.256738 
L 140.909127 45.317199 
L 142.00389 45.317199 
L 142.00389 27.108642 
L 143.098652 27.108642 
L 143.098652 26.179634 
L 144.193415 26.179634 
L 144.193415 36.770325 
L 145.288178 36.770325 
L 145.288178 42.901778 
L 146.38294 42.901778 
L 146.38294 43.644984 
L 147.477703 43.644984 
L 147.477703 40.672159 
L 148.572465 40.672159 
L 148.572465 36.21292 
L 149.667228 36.21292 
L 149.667228 27.666046 
L 150.76199 27.666046 
L 150.76199 39.557349 
L 151.856753 39.557349 
L 151.856753 24.693221 
L 152.951515 24.693221 
L 152.951515 37.141928 
L 154.046278 37.141928 
L 154.046278 37.513531 
L 155.14104 37.513531 
L 155.14104 36.770325 
L 156.235803 36.770325 
L 156.235803 29.338261 
L 157.330565 29.338261 
L 157.330565 26.92284 
L 158.425328 26.92284 
L 158.425328 28.780856 
L 159.52009 28.780856 
L 159.52009 41.415365 
L 160.614853 41.415365 
L 160.614853 28.966658 
L 161.709615 28.966658 
L 161.709615 26.92284 
L 162.804378 26.92284 
L 162.804378 23.764213 
L 163.899141 23.764213 
L 163.899141 31.939483 
L 164.993903 31.939483 
L 164.993903 26.92284 
L 166.088666 26.92284 
L 166.088666 22.835205 
L 167.183428 22.835205 
L 167.183428 37.513531 
L 168.278191 37.513531 
L 168.278191 35.098111 
L 169.372953 35.098111 
L 169.372953 35.841317 
L 170.467716 35.841317 
L 170.467716 31.196277 
L 171.562478 31.196277 
L 171.562478 32.68269 
L 172.657241 32.68269 
L 172.657241 23.764213 
L 173.752003 23.764213 
L 173.752003 39.928952 
L 174.846766 39.928952 
L 174.846766 29.895666 
L 175.941528 29.895666 
L 175.941528 21.906197 
L 177.036291 21.906197 
L 177.036291 43.459183 
L 178.131053 43.459183 
L 178.131053 36.21292 
L 179.225816 36.21292 
L 179.225816 37.699333 
L 180.320579 37.699333 
L 180.320579 31.382078 
L 181.415341 31.382078 
L 181.415341 31.939483 
L 182.510104 31.939483 
L 182.510104 30.638872 
L 183.604866 30.638872 
L 183.604866 38.442539 
L 184.699629 38.442539 
L 184.699629 18.561768 
L 185.794391 18.561768 
L 185.794391 33.797499 
L 186.889154 33.797499 
L 186.889154 35.655515 
L 187.983916 35.655515 
L 187.983916 37.699333 
L 189.078679 37.699333 
L 189.078679 32.496888 
L 190.173441 32.496888 
L 190.173441 41.043762 
L 191.268204 41.043762 
L 191.268204 39.185746 
L 192.362966 39.185746 
L 192.362966 29.338261 
L 193.457729 29.338261 
L 193.457729 30.081467 
L 194.552491 30.081467 
L 194.552491 29.895666 
L 195.647254 29.895666 
L 195.647254 40.85796 
L 196.742016 40.85796 
L 196.742016 36.398722 
L 197.836779 36.398722 
L 197.836779 38.256738 
L 198.931542 38.256738 
L 198.931542 18.74757 
L 200.026304 18.74757 
L 200.026304 24.321618 
L 201.121067 24.321618 
L 201.121067 25.622229 
L 202.215829 25.622229 
L 202.215829 26.737038 
L 203.310592 26.737038 
L 203.310592 32.496888 
L 204.405354 32.496888 
L 204.405354 27.108642 
L 205.500117 27.108642 
L 205.500117 34.540706 
L 206.594879 34.540706 
L 206.594879 37.32773 
L 207.689642 37.32773 
L 207.689642 30.267269 
L 208.784404 30.267269 
L 208.784404 26.179634 
L 209.879167 26.179634 
L 209.879167 39.928952 
L 210.973929 39.928952 
L 210.973929 33.054293 
L 212.068692 33.054293 
L 212.068692 37.513531 
L 213.163454 37.513531 
L 213.163454 33.054293 
L 214.258217 33.054293 
L 214.258217 28.03765 
L 215.352979 28.03765 
L 215.352979 29.709864 
L 216.447742 29.709864 
L 216.447742 35.098111 
L 217.542505 35.098111 
L 217.542505 22.463602 
L 218.637267 22.463602 
L 218.637267 39.371547 
L 219.73203 39.371547 
L 219.73203 27.108642 
L 220.826792 27.108642 
L 220.826792 36.584523 
L 221.921555 36.584523 
L 221.921555 32.868491 
L 223.016317 32.868491 
L 223.016317 31.753682 
L 224.11108 31.753682 
L 224.11108 29.709864 
L 225.205842 29.709864 
L 225.205842 32.311086 
L 226.300605 32.311086 
L 226.300605 36.21292 
L 227.395367 36.21292 
L 227.395367 25.064824 
L 228.49013 25.064824 
L 228.49013 28.595054 
L 229.584892 28.595054 
L 229.584892 27.666046 
L 230.679655 27.666046 
L 230.679655 24.321618 
L 231.774417 24.321618 
L 231.774417 23.950014 
L 232.86918 23.950014 
L 232.86918 31.753682 
L 233.963942 31.753682 
L 233.963942 31.939483 
L 235.058705 31.939483 
L 235.058705 18.933371 
L 236.153468 18.933371 
L 236.153468 25.80803 
L 237.24823 25.80803 
L 237.24823 21.906197 
L 238.342993 21.906197 
L 238.342993 30.638872 
L 239.437755 30.638872 
L 239.437755 35.841317 
L 240.532518 35.841317 
L 240.532518 25.622229 
L 241.62728 25.622229 
L 241.62728 23.764213 
L 242.722043 23.764213 
L 242.722043 38.070936 
L 243.816805 38.070936 
L 243.816805 18.561768 
L 244.911568 18.561768 
L 244.911568 41.415365 
L 246.00633 41.415365 
L 246.00633 30.638872 
L 247.101093 30.638872 
L 247.101093 29.338261 
L 248.195855 29.338261 
L 248.195855 23.206808 
L 249.290618 23.206808 
L 249.290618 33.983301 
L 250.38538 33.983301 
L 250.38538 36.584523 
L 251.480143 36.584523 
L 251.480143 29.709864 
L 252.574906 29.709864 
L 252.574906 30.638872 
L 253.669668 30.638872 
L 253.669668 31.382078 
L 254.764431 31.382078 
L 254.764431 28.595054 
L 255.859193 28.595054 
L 255.859193 40.672159 
L 256.953956 40.672159 
L 256.953956 41.786968 
L 258.048718 41.786968 
L 258.048718 42.344373 
L 259.143481 42.344373 
L 259.143481 47.175215 
L 260.238243 47.175215 
L 260.238243 47.918421 
L 261.333006 47.918421 
L 261.333006 56.651096 
L 262.427768 56.651096 
L 262.427768 72.815836 
L 263.522531 72.815836 
L 263.522531 71.701026 
L 264.617293 71.701026 
L 264.617293 81.176908 
L 265.712056 81.176908 
L 265.712056 90.095385 
L 266.806818 90.095385 
L 266.806818 114.435395 
L 267.901581 114.435395 
L 267.901581 107.560735 
L 268.996343 107.560735 
L 268.996343 110.161958 
L 270.091106 110.161958 
L 270.091106 129.856927 
L 271.185869 129.856927 
L 271.185869 138.218 
L 272.280631 138.218 
L 272.280631 140.447619 
L 273.375394 140.447619 
L 273.375394 148.808691 
L 274.470156 148.808691 
L 274.470156 152.338921 
L 275.564919 152.338921 
L 275.564919 161.257398 
L 276.659681 161.257398 
L 276.659681 157.355565 
L 277.754444 157.355565 
L 277.754444 167.203049 
L 278.849206 167.203049 
L 278.849206 165.530835 
L 279.943969 165.530835 
L 279.943969 175.749923 
L 282.133494 175.749923 
L 282.133494 181.13817 
L 283.228256 181.13817 
L 283.228256 181.509773 
L 284.323019 181.509773 
L 284.323019 184.296797 
L 285.417781 184.296797 
L 285.417781 190.42825 
L 286.512544 190.42825 
L 286.512544 195.07329 
L 287.607306 195.07329 
L 287.607306 194.330083 
L 288.702069 194.330083 
L 288.702069 197.117107 
L 289.796832 197.117107 
L 289.796832 201.390544 
L 290.891594 201.390544 
L 290.891594 198.975123 
L 291.986357 198.975123 
L 291.986357 202.876957 
L 293.081119 202.876957 
L 293.081119 213.467648 
L 294.175882 213.467648 
L 294.175882 205.292378 
L 295.270644 205.292378 
L 295.270644 209.380013 
L 296.365407 209.380013 
L 296.365407 211.238029 
L 297.460169 211.238029 
L 297.460169 214.954061 
L 298.554932 214.954061 
L 298.554932 214.76826 
L 299.649694 214.76826 
L 299.649694 219.4133 
L 300.744457 219.4133 
L 300.744457 219.041696 
L 301.839219 219.041696 
L 301.839219 222.386125 
L 302.933982 222.386125 
L 302.933982 222.014522 
L 304.028744 222.014522 
L 304.028744 225.544752 
L 305.123507 225.544752 
L 305.123507 227.960173 
L 306.218269 227.960173 
L 306.218269 224.801546 
L 307.313032 224.801546 
L 307.313032 227.960173 
L 308.407795 227.960173 
L 308.407795 228.889181 
L 309.502557 228.889181 
L 309.502557 228.517578 
L 310.59732 228.517578 
L 310.59732 230.932999 
L 311.692082 230.932999 
L 311.692082 228.889181 
L 312.786845 228.889181 
L 312.786845 227.960173 
L 313.881607 227.960173 
L 313.881607 230.561396 
L 314.97637 230.561396 
L 314.97637 233.534221 
L 316.071132 233.534221 
L 316.071132 233.162618 
L 317.165895 233.162618 
L 317.165895 235.578039 
L 318.260657 235.578039 
L 318.260657 236.135444 
L 319.35542 236.135444 
L 319.35542 235.392237 
L 320.450182 235.392237 
L 320.450182 232.419412 
L 321.544945 232.419412 
L 321.544945 236.87865 
L 322.639707 236.87865 
L 322.639707 238.179261 
L 323.73447 238.179261 
L 323.73447 236.87865 
L 324.829233 236.87865 
L 324.829233 235.206436 
L 325.923995 235.206436 
L 325.923995 237.621857 
L 327.018758 237.621857 
L 327.018758 238.550865 
L 328.11352 238.550865 
L 328.11352 239.479873 
L 329.208283 239.479873 
L 329.208283 240.594682 
L 330.303045 240.594682 
L 330.303045 240.966285 
L 331.397808 240.966285 
L 331.397808 239.479873 
L 332.49257 239.479873 
L 332.49257 239.294071 
L 333.587333 239.294071 
L 333.587333 241.52369 
L 335.776858 241.52369 
L 335.776858 241.709492 
L 336.87162 241.709492 
L 336.87162 241.337889 
L 337.966383 241.337889 
L 337.966383 241.709492 
L 339.061145 241.709492 
L 339.061145 243.195905 
L 340.155908 243.195905 
L 340.155908 242.452698 
L 341.25067 242.452698 
L 341.25067 241.709492 
L 342.345433 241.709492 
L 342.345433 242.6385 
L 343.440196 242.6385 
L 343.440196 240.966285 
L 344.534958 240.966285 
L 344.534958 243.567508 
L 345.629721 243.567508 
L 345.629721 242.452698 
L 346.724483 242.452698 
L 346.724483 242.6385 
L 347.819246 242.6385 
L 347.819246 242.266897 
L 348.914008 242.266897 
L 348.914008 243.567508 
L 350.008771 243.567508 
L 350.008771 243.753309 
L 351.103533 243.753309 
L 351.103533 243.381706 
L 352.198296 243.381706 
L 352.198296 243.567508 
L 353.293058 243.567508 
L 353.293058 243.381706 
L 354.387821 243.381706 
L 354.387821 243.195905 
L 355.482583 243.195905 
L 355.482583 244.310714 
L 356.577346 244.310714 
L 356.577346 243.381706 
L 358.766871 243.381706 
L 358.766871 242.824301 
L 359.861633 242.824301 
L 359.861633 244.496516 
L 360.956396 244.496516 
L 360.956396 244.124913 
L 362.051159 244.124913 
L 362.051159 244.868119 
L 363.145921 244.868119 
L 363.145921 245.239722 
L 364.240684 245.239722 
L 364.240684 244.124913 
L 365.335446 244.124913 
L 365.335446 244.868119 
L 366.430209 244.868119 
L 366.430209 245.053921 
L 367.524971 245.053921 
L 367.524971 244.310714 
L 368.619734 244.310714 
L 368.619734 244.682317 
L 369.714496 244.682317 
L 369.714496 245.053921 
L 370.809259 245.053921 
L 370.809259 245.239722 
L 371.904021 245.239722 
L 371.904021 245.053921 
L 374.093546 245.053921 
L 374.093546 244.682317 
L 375.188309 244.682317 
L 375.188309 245.611325 
L 376.283071 245.611325 
L 376.283071 245.797127 
L 377.377834 245.797127 
L 377.377834 245.053921 
L 378.472596 245.053921 
L 378.472596 245.425524 
L 379.567359 245.425524 
L 379.567359 244.682317 
L 380.662122 244.682317 
L 380.662122 245.425524 
L 383.946409 245.425524 
L 383.946409 245.053921 
L 385.041172 245.053921 
L 385.041172 245.611325 
L 388.325459 245.611325 
L 388.325459 245.239722 
L 390.514984 245.239722 
L 390.514984 245.611325 
L 391.609747 245.611325 
L 391.609747 245.239722 
L 392.704509 245.239722 
L 392.704509 245.611325 
L 393.799272 245.611325 
L 393.799272 245.797127 
L 394.894034 245.797127 
L 394.894034 244.682317 
L 395.988797 244.682317 
L 395.988797 245.425524 
L 397.08356 245.425524 
L 397.08356 245.611325 
L 398.178322 245.611325 
L 398.178322 245.611325 
" clip-path="url(#p11251347e2)" style="fill: none; stroke: #1f77b4; stroke-width: 1.5; stroke-linecap: square"/>
   </g>
   <g id="patch_3">
    <path d="M 53.328125 257.158895 
L 53.328125 7.2 
" style="fill: none; stroke: #000000; stroke-width: 0.8; stroke-linejoin: miter; stroke-linecap: square"/>
   </g>
   <g id="patch_4">
    <path d="M 414.59976 257.158895 
L 414.59976 7.2 
" style="fill: none; stroke: #000000; stroke-width: 0.8; stroke-linejoin: miter; stroke-linecap: square"/>
   </g>
   <g id="patch_5">
    <path d="M 53.328125 257.158895 
L 414.59976 257.158895 
" style="fill: none; stroke: #000000; stroke-width: 0.8; stroke-linejoin: miter; stroke-linecap: square"/>
   </g>
   <g id="patch_6">
    <path d="M 53.328125 7.2 
L 414.59976 7.2 
" style="fill: none; stroke: #000000; stroke-width: 0.8; stroke-linejoin: miter; stroke-linecap: square"/>
   </g>
  </g>
  <g id="axes_2">
   <g id="patch_7">
    <path d="M 503.927885 257.158895 
L 865.19952 257.158895 
L 865.19952 7.2 
L 503.927885 7.2 
z
" style="fill: #ffffff"/>
   </g>
   <g id="matplotlib.axis_3">
    <g id="xtick_7">
     <g id="line2d_15">
      <g>
       <use xlink:href="#me60b331339" x="517.039401" y="257.158895" style="stroke: #000000; stroke-width: 0.8"/>
      </g>
     </g>
     <g id="text_16">
      <!-- 0.0 -->
      <g transform="translate(509.087839 271.757332) scale(0.1 -0.1)">
       <defs>
        <path id="DejaVuSans-2e" d="M 684 794 
L 1344 794 
L 1344 0 
L 684 0 
L 684 794 
z
" transform="scale(0.015625)"/>
       </defs>
       <use xlink:href="#DejaVuSans-30"/>
       <use xlink:href="#DejaVuSans-2e" transform="translate(63.623047 0)"/>
       <use xlink:href="#DejaVuSans-30" transform="translate(95.410156 0)"/>
      </g>
     </g>
    </g>
    <g id="xtick_8">
     <g id="line2d_16">
      <g>
       <use xlink:href="#me60b331339" x="558.722415" y="257.158895" style="stroke: #000000; stroke-width: 0.8"/>
      </g>
     </g>
     <g id="text_17">
      <!-- 2.5 -->
      <g transform="translate(550.770853 271.757332) scale(0.1 -0.1)">
       <use xlink:href="#DejaVuSans-32"/>
       <use xlink:href="#DejaVuSans-2e" transform="translate(63.623047 0)"/>
       <use xlink:href="#DejaVuSans-35" transform="translate(95.410156 0)"/>
      </g>
     </g>
    </g>
    <g id="xtick_9">
     <g id="line2d_17">
      <g>
       <use xlink:href="#me60b331339" x="600.405429" y="257.158895" style="stroke: #000000; stroke-width: 0.8"/>
      </g>
     </g>
     <g id="text_18">
      <!-- 5.0 -->
      <g transform="translate(592.453867 271.757332) scale(0.1 -0.1)">
       <use xlink:href="#DejaVuSans-35"/>
       <use xlink:href="#DejaVuSans-2e" transform="translate(63.623047 0)"/>
       <use xlink:href="#DejaVuSans-30" transform="translate(95.410156 0)"/>
      </g>
     </g>
    </g>
    <g id="xtick_10">
     <g id="line2d_18">
      <g>
       <use xlink:href="#me60b331339" x="642.088444" y="257.158895" style="stroke: #000000; stroke-width: 0.8"/>
      </g>
     </g>
     <g id="text_19">
      <!-- 7.5 -->
      <g transform="translate(634.136881 271.757332) scale(0.1 -0.1)">
       <defs>
        <path id="DejaVuSans-37" d="M 525 4666 
L 3525 4666 
L 3525 4397 
L 1831 0 
L 1172 0 
L 2766 4134 
L 525 4134 
L 525 4666 
z
" transform="scale(0.015625)"/>
       </defs>
       <use xlink:href="#DejaVuSans-37"/>
       <use xlink:href="#DejaVuSans-2e" transform="translate(63.623047 0)"/>
       <use xlink:href="#DejaVuSans-35" transform="translate(95.410156 0)"/>
      </g>
     </g>
    </g>
    <g id="xtick_11">
     <g id="line2d_19">
      <g>
       <use xlink:href="#me60b331339" x="683.771458" y="257.158895" style="stroke: #000000; stroke-width: 0.8"/>
      </g>
     </g>
     <g id="text_20">
      <!-- 10.0 -->
      <g transform="translate(672.638645 271.757332) scale(0.1 -0.1)">
       <use xlink:href="#DejaVuSans-31"/>
       <use xlink:href="#DejaVuSans-30" transform="translate(63.623047 0)"/>
       <use xlink:href="#DejaVuSans-2e" transform="translate(127.246094 0)"/>
       <use xlink:href="#DejaVuSans-30" transform="translate(159.033203 0)"/>
      </g>
     </g>
    </g>
    <g id="xtick_12">
     <g id="line2d_20">
      <g>
       <use xlink:href="#me60b331339" x="725.454472" y="257.158895" style="stroke: #000000; stroke-width: 0.8"/>
      </g>
     </g>
     <g id="text_21">
      <!-- 12.5 -->
      <g transform="translate(714.321659 271.757332) scale(0.1 -0.1)">
       <use xlink:href="#DejaVuSans-31"/>
       <use xlink:href="#DejaVuSans-32" transform="translate(63.623047 0)"/>
       <use xlink:href="#DejaVuSans-2e" transform="translate(127.246094 0)"/>
       <use xlink:href="#DejaVuSans-35" transform="translate(159.033203 0)"/>
      </g>
     </g>
    </g>
    <g id="xtick_13">
     <g id="line2d_21">
      <g>
       <use xlink:href="#me60b331339" x="767.137486" y="257.158895" style="stroke: #000000; stroke-width: 0.8"/>
      </g>
     </g>
     <g id="text_22">
      <!-- 15.0 -->
      <g transform="translate(756.004673 271.757332) scale(0.1 -0.1)">
       <use xlink:href="#DejaVuSans-31"/>
       <use xlink:href="#DejaVuSans-35" transform="translate(63.623047 0)"/>
       <use xlink:href="#DejaVuSans-2e" transform="translate(127.246094 0)"/>
       <use xlink:href="#DejaVuSans-30" transform="translate(159.033203 0)"/>
      </g>
     </g>
    </g>
    <g id="xtick_14">
     <g id="line2d_22">
      <g>
       <use xlink:href="#me60b331339" x="808.8205" y="257.158895" style="stroke: #000000; stroke-width: 0.8"/>
      </g>
     </g>
     <g id="text_23">
      <!-- 17.5 -->
      <g transform="translate(797.687687 271.757332) scale(0.1 -0.1)">
       <use xlink:href="#DejaVuSans-31"/>
       <use xlink:href="#DejaVuSans-37" transform="translate(63.623047 0)"/>
       <use xlink:href="#DejaVuSans-2e" transform="translate(127.246094 0)"/>
       <use xlink:href="#DejaVuSans-35" transform="translate(159.033203 0)"/>
      </g>
     </g>
    </g>
    <g id="xtick_15">
     <g id="line2d_23">
      <g>
       <use xlink:href="#me60b331339" x="850.503514" y="257.158895" style="stroke: #000000; stroke-width: 0.8"/>
      </g>
     </g>
     <g id="text_24">
      <!-- 20.0 -->
      <g transform="translate(839.370701 271.757332) scale(0.1 -0.1)">
       <use xlink:href="#DejaVuSans-32"/>
       <use xlink:href="#DejaVuSans-30" transform="translate(63.623047 0)"/>
       <use xlink:href="#DejaVuSans-2e" transform="translate(127.246094 0)"/>
       <use xlink:href="#DejaVuSans-30" transform="translate(159.033203 0)"/>
      </g>
     </g>
    </g>
    <g id="text_25">
     <!-- wavelength [Å] -->
     <g transform="translate(646.526202 287.119832) scale(0.1 -0.1)">
      <defs>
       <path id="DejaVuSans-77" d="M 269 3500 
L 844 3500 
L 1563 769 
L 2278 3500 
L 2956 3500 
L 3675 769 
L 4391 3500 
L 4966 3500 
L 4050 0 
L 3372 0 
L 2619 2869 
L 1863 0 
L 1184 0 
L 269 3500 
z
" transform="scale(0.015625)"/>
       <path id="DejaVuSans-61" d="M 2194 1759 
Q 1497 1759 1228 1600 
Q 959 1441 959 1056 
Q 959 750 1161 570 
Q 1363 391 1709 391 
Q 2188 391 2477 730 
Q 2766 1069 2766 1631 
L 2766 1759 
L 2194 1759 
z
M 3341 1997 
L 3341 0 
L 2766 0 
L 2766 531 
Q 2569 213 2275 61 
Q 1981 -91 1556 -91 
Q 1019 -91 701 211 
Q 384 513 384 1019 
Q 384 1609 779 1909 
Q 1175 2209 1959 2209 
L 2766 2209 
L 2766 2266 
Q 2766 2663 2505 2880 
Q 2244 3097 1772 3097 
Q 1472 3097 1187 3025 
Q 903 2953 641 2809 
L 641 3341 
Q 956 3463 1253 3523 
Q 1550 3584 1831 3584 
Q 2591 3584 2966 3190 
Q 3341 2797 3341 1997 
z
" transform="scale(0.015625)"/>
       <path id="DejaVuSans-76" d="M 191 3500 
L 800 3500 
L 1894 563 
L 2988 3500 
L 3597 3500 
L 2284 0 
L 1503 0 
L 191 3500 
z
" transform="scale(0.015625)"/>
       <path id="DejaVuSans-6c" d="M 603 4863 
L 1178 4863 
L 1178 0 
L 603 0 
L 603 4863 
z
" transform="scale(0.015625)"/>
       <path id="DejaVuSans-67" d="M 2906 1791 
Q 2906 2416 2648 2759 
Q 2391 3103 1925 3103 
Q 1463 3103 1205 2759 
Q 947 2416 947 1791 
Q 947 1169 1205 825 
Q 1463 481 1925 481 
Q 2391 481 2648 825 
Q 2906 1169 2906 1791 
z
M 3481 434 
Q 3481 -459 3084 -895 
Q 2688 -1331 1869 -1331 
Q 1566 -1331 1297 -1286 
Q 1028 -1241 775 -1147 
L 775 -588 
Q 1028 -725 1275 -790 
Q 1522 -856 1778 -856 
Q 2344 -856 2625 -561 
Q 2906 -266 2906 331 
L 2906 616 
Q 2728 306 2450 153 
Q 2172 0 1784 0 
Q 1141 0 747 490 
Q 353 981 353 1791 
Q 353 2603 747 3093 
Q 1141 3584 1784 3584 
Q 2172 3584 2450 3431 
Q 2728 3278 2906 2969 
L 2906 3500 
L 3481 3500 
L 3481 434 
z
" transform="scale(0.015625)"/>
       <path id="DejaVuSans-c5" d="M 2663 5081 
Q 2663 5278 2523 5417 
Q 2384 5556 2188 5556 
Q 1988 5556 1852 5420 
Q 1716 5284 1716 5081 
Q 1716 4884 1853 4746 
Q 1991 4609 2188 4609 
Q 2384 4609 2523 4746 
Q 2663 4884 2663 5081 
z
M 2188 4044 
L 1338 1722 
L 3041 1722 
L 2188 4044 
z
M 1716 4366 
Q 1525 4494 1428 4673 
Q 1331 4853 1331 5081 
Q 1331 5441 1579 5691 
Q 1828 5941 2188 5941 
Q 2544 5941 2795 5689 
Q 3047 5438 3047 5081 
Q 3047 4863 2948 4678 
Q 2850 4494 2663 4366 
L 4325 0 
L 3669 0 
L 3244 1197 
L 1141 1197 
L 716 0 
L 50 0 
L 1716 4366 
z
" transform="scale(0.015625)"/>
      </defs>
      <use xlink:href="#DejaVuSans-77"/>
      <use xlink:href="#DejaVuSans-61" transform="translate(81.787109 0)"/>
      <use xlink:href="#DejaVuSans-76" transform="translate(143.066406 0)"/>
      <use xlink:href="#DejaVuSans-65" transform="translate(202.246094 0)"/>
      <use xlink:href="#DejaVuSans-6c" transform="translate(263.769531 0)"/>
      <use xlink:href="#DejaVuSans-65" transform="translate(291.552734 0)"/>
      <use xlink:href="#DejaVuSans-6e" transform="translate(353.076172 0)"/>
      <use xlink:href="#DejaVuSans-67" transform="translate(416.455078 0)"/>
      <use xlink:href="#DejaVuSans-74" transform="translate(479.931641 0)"/>
      <use xlink:href="#DejaVuSans-68" transform="translate(519.140625 0)"/>
      <use xlink:href="#DejaVuSans-20" transform="translate(582.519531 0)"/>
      <use xlink:href="#DejaVuSans-5b" transform="translate(614.306641 0)"/>
      <use xlink:href="#DejaVuSans-c5" transform="translate(653.320312 0)"/>
      <use xlink:href="#DejaVuSans-5d" transform="translate(721.728516 0)"/>
     </g>
    </g>
   </g>
   <g id="matplotlib.axis_4">
    <g id="ytick_8">
     <g id="line2d_24">
      <g>
       <use xlink:href="#md0bc3c5779" x="503.927885" y="245.849522" style="stroke: #000000; stroke-width: 0.8"/>
      </g>
     </g>
     <g id="text_26">
      <!-- 0 -->
      <g transform="translate(490.565385 249.64874) scale(0.1 -0.1)">
       <use xlink:href="#DejaVuSans-30"/>
      </g>
     </g>
    </g>
    <g id="ytick_9">
     <g id="line2d_25">
      <g>
       <use xlink:href="#md0bc3c5779" x="503.927885" y="193.454927" style="stroke: #000000; stroke-width: 0.8"/>
      </g>
     </g>
     <g id="text_27">
      <!-- 1000 -->
      <g transform="translate(471.477885 197.254145) scale(0.1 -0.1)">
       <use xlink:href="#DejaVuSans-31"/>
       <use xlink:href="#DejaVuSans-30" transform="translate(63.623047 0)"/>
       <use xlink:href="#DejaVuSans-30" transform="translate(127.246094 0)"/>
       <use xlink:href="#DejaVuSans-30" transform="translate(190.869141 0)"/>
      </g>
     </g>
    </g>
    <g id="ytick_10">
     <g id="line2d_26">
      <g>
       <use xlink:href="#md0bc3c5779" x="503.927885" y="141.060331" style="stroke: #000000; stroke-width: 0.8"/>
      </g>
     </g>
     <g id="text_28">
      <!-- 2000 -->
      <g transform="translate(471.477885 144.85955) scale(0.1 -0.1)">
       <use xlink:href="#DejaVuSans-32"/>
       <use xlink:href="#DejaVuSans-30" transform="translate(63.623047 0)"/>
       <use xlink:href="#DejaVuSans-30" transform="translate(127.246094 0)"/>
       <use xlink:href="#DejaVuSans-30" transform="translate(190.869141 0)"/>
      </g>
     </g>
    </g>
    <g id="ytick_11">
     <g id="line2d_27">
      <g>
       <use xlink:href="#md0bc3c5779" x="503.927885" y="88.665736" style="stroke: #000000; stroke-width: 0.8"/>
      </g>
     </g>
     <g id="text_29">
      <!-- 3000 -->
      <g transform="translate(471.477885 92.464955) scale(0.1 -0.1)">
       <use xlink:href="#DejaVuSans-33"/>
       <use xlink:href="#DejaVuSans-30" transform="translate(63.623047 0)"/>
       <use xlink:href="#DejaVuSans-30" transform="translate(127.246094 0)"/>
       <use xlink:href="#DejaVuSans-30" transform="translate(190.869141 0)"/>
      </g>
     </g>
    </g>
    <g id="ytick_12">
     <g id="line2d_28">
      <g>
       <use xlink:href="#md0bc3c5779" x="503.927885" y="36.271141" style="stroke: #000000; stroke-width: 0.8"/>
      </g>
     </g>
     <g id="text_30">
      <!-- 4000 -->
      <g transform="translate(471.477885 40.07036) scale(0.1 -0.1)">
       <use xlink:href="#DejaVuSans-34"/>
       <use xlink:href="#DejaVuSans-30" transform="translate(63.623047 0)"/>
       <use xlink:href="#DejaVuSans-30" transform="translate(127.246094 0)"/>
       <use xlink:href="#DejaVuSans-30" transform="translate(190.869141 0)"/>
      </g>
     </g>
    </g>
    <g id="text_31">
     <!-- [counts] -->
     <g transform="translate(465.398197 152.791947) rotate(-90) scale(0.1 -0.1)">
      <use xlink:href="#DejaVuSans-5b"/>
      <use xlink:href="#DejaVuSans-63" transform="translate(39.013672 0)"/>
      <use xlink:href="#DejaVuSans-6f" transform="translate(93.994141 0)"/>
      <use xlink:href="#DejaVuSans-75" transform="translate(155.175781 0)"/>
      <use xlink:href="#DejaVuSans-6e" transform="translate(218.554688 0)"/>
      <use xlink:href="#DejaVuSans-74" transform="translate(281.933594 0)"/>
      <use xlink:href="#DejaVuSans-73" transform="translate(321.142578 0)"/>
      <use xlink:href="#DejaVuSans-5d" transform="translate(373.242188 0)"/>
     </g>
    </g>
   </g>
   <g id="line2d_29">
    <path d="M 520.349323 156.883499 
L 521.444085 156.883499 
L 521.444085 151.696434 
L 522.538848 151.696434 
L 522.538848 143.78485 
L 523.633611 143.78485 
L 523.633611 138.65018 
L 524.728373 138.65018 
L 524.728373 147.66205 
L 525.823136 147.66205 
L 525.823136 148.552758 
L 526.917898 148.552758 
L 526.917898 142.474985 
L 528.012661 142.474985 
L 528.012661 132.624802 
L 529.107423 132.624802 
L 529.107423 102.864672 
L 530.202186 102.864672 
L 530.202186 84.998115 
L 531.296948 84.998115 
L 531.296948 65.192958 
L 532.391711 65.192958 
L 532.391711 41.510601 
L 533.486473 41.510601 
L 533.486473 25.635038 
L 534.581236 25.635038 
L 534.581236 26.735325 
L 535.675998 26.735325 
L 535.675998 23.958411 
L 536.770761 23.958411 
L 536.770761 18.561768 
L 537.865523 18.561768 
L 537.865523 29.093082 
L 538.960286 29.093082 
L 538.960286 46.592876 
L 540.055048 46.592876 
L 540.055048 43.920752 
L 541.149811 43.920752 
L 541.149811 61.630125 
L 542.244574 61.630125 
L 542.244574 67.603109 
L 543.339336 67.603109 
L 543.339336 71.585098 
L 544.434099 71.585098 
L 544.434099 82.221201 
L 545.528861 82.221201 
L 545.528861 90.18518 
L 546.623624 90.18518 
L 546.623624 93.95759 
L 547.718386 93.95759 
L 547.718386 99.039866 
L 548.813149 99.039866 
L 548.813149 98.253947 
L 549.907911 98.253947 
L 549.907911 90.551942 
L 551.002674 90.551942 
L 551.002674 91.547439 
L 552.097436 91.547439 
L 552.097436 81.173309 
L 553.192199 81.173309 
L 553.192199 75.567087 
L 554.286961 75.567087 
L 554.286961 73.052147 
L 555.381724 73.052147 
L 555.381724 62.206466 
L 556.476486 62.206466 
L 556.476486 50.208103 
L 557.571249 50.208103 
L 557.571249 51.255995 
L 558.666012 51.255995 
L 558.666012 34.280146 
L 559.760774 34.280146 
L 559.760774 40.567498 
L 560.855537 40.567498 
L 560.855537 41.982152 
L 561.950299 41.982152 
L 561.950299 60.896601 
L 563.045062 60.896601 
L 563.045062 62.363649 
L 564.139824 62.363649 
L 564.139824 77.348504 
L 565.234587 77.348504 
L 565.234587 79.077525 
L 566.329349 79.077525 
L 566.329349 89.818417 
L 567.424112 89.818417 
L 567.424112 99.511417 
L 568.518874 99.511417 
L 568.518874 107.842158 
L 569.613637 107.842158 
L 569.613637 112.138515 
L 570.708399 112.138515 
L 570.708399 119.997704 
L 571.803162 119.997704 
L 571.803162 124.975191 
L 572.897924 124.975191 
L 572.897924 131.786488 
L 573.992687 131.786488 
L 573.992687 139.278915 
L 575.087449 139.278915 
L 575.087449 146.299791 
L 576.182212 146.299791 
L 576.182212 146.771342 
L 577.276975 146.771342 
L 577.276975 155.626029 
L 578.371737 155.626029 
L 578.371737 158.612521 
L 579.4665 158.612521 
L 579.4665 159.031678 
L 580.561262 159.031678 
L 580.561262 164.061559 
L 581.656025 164.061559 
L 581.656025 167.676786 
L 582.750787 167.676786 
L 582.750787 174.016532 
L 583.84555 174.016532 
L 583.84555 176.898234 
L 584.940312 176.898234 
L 584.940312 179.203597 
L 586.035075 179.203597 
L 586.035075 181.142197 
L 587.129837 181.142197 
L 587.129837 185.962499 
L 588.2246 185.962499 
L 588.2246 188.634624 
L 589.319362 188.634624 
L 589.319362 193.297743 
L 590.414125 193.297743 
L 590.414125 192.407035 
L 592.60365 192.302245 
L 592.60365 196.441418 
L 593.698412 196.441418 
L 593.698412 200.161435 
L 594.793175 200.161435 
L 594.793175 200.999748 
L 595.887938 200.999748 
L 595.887938 205.138921 
L 596.9827 205.138921 
L 596.9827 206.972732 
L 598.077463 206.972732 
L 598.077463 209.644856 
L 599.172225 209.644856 
L 599.172225 209.016121 
L 600.266988 209.016121 
L 600.266988 212.526559 
L 601.36175 212.526559 
L 601.36175 213.312478 
L 602.456513 213.312478 
L 602.456513 214.989105 
L 603.551275 214.989105 
L 603.551275 215.879813 
L 604.646038 215.879813 
L 604.646038 218.23757 
L 605.7408 218.23757 
L 605.7408 218.866305 
L 606.835563 218.866305 
L 606.835563 220.909694 
L 607.930325 220.909694 
L 607.930325 219.023489 
L 609.025088 219.023489 
L 609.025088 220.490538 
L 610.11985 220.490538 
L 610.11985 222.953084 
L 611.214613 222.953084 
L 611.214613 223.634213 
L 612.309375 223.634213 
L 612.309375 225.153657 
L 613.404138 225.153657 
L 613.404138 224.786894 
L 614.498901 224.786894 
L 614.498901 225.206051 
L 615.593663 225.206051 
L 615.593663 227.197046 
L 616.688426 227.197046 
L 616.688426 227.878176 
L 618.877951 227.93057 
L 618.877951 228.873673 
L 619.972713 228.873673 
L 619.972713 229.86917 
L 621.067476 229.86917 
L 621.067476 229.345224 
L 622.162238 229.345224 
L 622.162238 229.502408 
L 623.257001 229.502408 
L 623.257001 231.23143 
L 624.351763 231.23143 
L 624.351763 231.545797 
L 625.446526 231.545797 
L 625.446526 231.964954 
L 626.541288 231.964954 
L 626.541288 233.274819 
L 627.636051 233.274819 
L 627.636051 233.589186 
L 628.730813 233.589186 
L 628.730813 233.74637 
L 629.825576 233.74637 
L 629.825576 235.68497 
L 630.920339 235.68497 
L 630.920339 234.637078 
L 633.109864 234.532289 
L 633.109864 235.475392 
L 634.204626 235.475392 
L 634.204626 235.265813 
L 635.299389 235.265813 
L 635.299389 236.523284 
L 636.394151 236.523284 
L 636.394151 237.204413 
L 637.488914 237.204413 
L 637.488914 237.04723 
L 638.583676 237.04723 
L 638.583676 238.3047 
L 639.678439 238.3047 
L 639.678439 236.208916 
L 640.773201 236.208916 
L 640.773201 237.571176 
L 641.867964 237.571176 
L 641.867964 239.719354 
L 642.962726 239.719354 
L 642.962726 239.195408 
L 644.057489 239.195408 
L 644.057489 238.199911 
L 645.152251 238.199911 
L 645.152251 239.300197 
L 646.247014 239.300197 
L 646.247014 238.776251 
L 647.341776 238.776251 
L 647.341776 239.719354 
L 648.436539 239.719354 
L 648.436539 237.885543 
L 649.531302 237.885543 
L 649.531302 238.3047 
L 650.626064 238.3047 
L 650.626064 239.928932 
L 652.815589 239.928932 
L 652.815589 239.300197 
L 653.910352 239.300197 
L 653.910352 240.138511 
L 657.194639 240.2433 
L 657.194639 241.134008 
L 658.289402 241.134008 
L 658.289402 240.714851 
L 659.384164 240.714851 
L 659.384164 241.186403 
L 662.668452 241.134008 
L 662.668452 240.872035 
L 663.763214 240.872035 
L 663.763214 241.815138 
L 664.857977 241.815138 
L 664.857977 241.186403 
L 665.952739 241.186403 
L 665.952739 241.919927 
L 668.142265 241.815138 
L 668.142265 242.915424 
L 669.237027 242.915424 
L 669.237027 241.50077 
L 670.33179 241.50077 
L 670.33179 242.496268 
L 671.426552 242.496268 
L 671.426552 242.077111 
L 672.521315 242.077111 
L 672.521315 243.177397 
L 673.616077 243.177397 
L 673.616077 242.024716 
L 674.71084 242.024716 
L 674.71084 242.443873 
L 676.900365 242.443873 
L 676.900365 243.072608 
L 677.995127 243.072608 
L 677.995127 242.653451 
L 679.08989 242.653451 
L 679.08989 243.282186 
L 680.184652 243.282186 
L 680.184652 243.125003 
L 681.279415 243.125003 
L 681.279415 242.548662 
L 682.374177 242.548662 
L 682.374177 244.1205 
L 683.46894 244.1205 
L 683.46894 243.544159 
L 684.563702 243.544159 
L 684.563702 243.177397 
L 685.658465 243.177397 
L 685.658465 242.758241 
L 686.753228 242.758241 
L 686.753228 243.43937 
L 688.942753 243.386976 
L 688.942753 243.753738 
L 691.132278 243.858527 
L 691.132278 244.015711 
L 692.22704 244.015711 
L 692.22704 243.753738 
L 694.416565 243.806132 
L 694.416565 244.1205 
L 697.700853 244.015711 
L 697.700853 244.382473 
L 698.795615 244.382473 
L 698.795615 243.858527 
L 699.890378 243.858527 
L 699.890378 244.330078 
L 700.98514 244.330078 
L 700.98514 243.858527 
L 702.079903 243.858527 
L 702.079903 243.701343 
L 703.174666 243.701343 
L 703.174666 244.225289 
L 704.269428 244.225289 
L 704.269428 244.382473 
L 706.458953 244.487262 
L 706.458953 244.854024 
L 708.648478 244.749235 
L 708.648478 244.487262 
L 709.743241 244.487262 
L 709.743241 244.330078 
L 710.838003 244.330078 
L 710.838003 244.696841 
L 711.932766 244.696841 
L 711.932766 245.115997 
L 715.217053 245.011208 
L 715.217053 244.696841 
L 716.311816 244.696841 
L 716.311816 245.063603 
L 718.501341 245.168392 
L 718.501341 244.644446 
L 721.785629 244.539657 
L 721.785629 245.063603 
L 722.880391 245.063603 
L 722.880391 244.80163 
L 723.975154 244.80163 
L 723.975154 244.487262 
L 725.069916 244.487262 
L 725.069916 244.906419 
L 727.259441 244.958814 
L 727.259441 245.220786 
L 728.354204 245.220786 
L 728.354204 244.906419 
L 729.448966 244.906419 
L 729.448966 244.749235 
L 731.638491 244.644446 
L 731.638491 245.063603 
L 733.828016 244.958814 
L 733.828016 244.906419 
L 734.922779 244.906419 
L 734.922779 244.696841 
L 736.017541 244.696841 
L 736.017541 244.854024 
L 738.207066 244.958814 
L 738.207066 245.220786 
L 739.301829 245.220786 
L 739.301829 244.958814 
L 741.491354 244.906419 
L 741.491354 245.168392 
L 742.586117 245.168392 
L 742.586117 244.854024 
L 743.680879 244.854024 
L 743.680879 245.011208 
L 744.775642 245.011208 
L 744.775642 245.273181 
L 746.965167 245.220786 
L 746.965167 245.535154 
L 749.154692 245.482759 
L 749.154692 245.115997 
L 751.344217 245.011208 
L 751.344217 244.80163 
L 752.438979 244.80163 
L 752.438979 245.325576 
L 754.628504 245.37797 
L 754.628504 245.482759 
L 755.723267 245.482759 
L 755.723267 245.273181 
L 756.818029 245.273181 
L 756.818029 245.482759 
L 757.912792 245.482759 
L 757.912792 245.168392 
L 759.007555 245.168392 
L 759.007555 245.325576 
L 761.19708 245.325576 
L 761.19708 245.535154 
L 762.291842 245.535154 
L 762.291842 245.325576 
L 763.386605 245.325576 
L 763.386605 245.587549 
L 765.57613 245.482759 
L 765.57613 245.220786 
L 766.670892 245.220786 
L 766.670892 245.639943 
L 767.765655 245.639943 
L 767.765655 245.37797 
L 771.049942 245.325576 
L 771.049942 245.587549 
L 774.33423 245.535154 
L 774.33423 245.37797 
L 776.523755 245.430365 
L 776.523755 245.692338 
L 778.71328 245.587549 
L 778.71328 245.325576 
L 779.808043 245.325576 
L 779.808043 245.639943 
L 780.902805 245.639943 
L 780.902805 245.430365 
L 781.997568 245.430365 
L 781.997568 245.692338 
L 784.187093 245.587549 
L 784.187093 245.325576 
L 785.281855 245.325576 
L 785.281855 245.692338 
L 787.47138 245.744732 
L 787.47138 245.482759 
L 788.566143 245.482759 
L 788.566143 245.692338 
L 794.039956 245.639943 
L 794.039956 245.430365 
L 796.229481 245.37797 
L 796.229481 245.639943 
L 797.324243 245.639943 
L 797.324243 245.325576 
L 799.513768 245.37797 
L 799.513768 245.639943 
L 801.703293 245.639943 
L 801.703293 245.797127 
L 806.082343 245.744732 
L 806.082343 245.639943 
L 810.461393 245.639943 
L 810.461393 245.482759 
L 812.650919 245.535154 
L 812.650919 245.692338 
L 815.935206 245.587549 
L 815.935206 245.535154 
L 818.124731 245.535154 
L 818.124731 245.797127 
L 820.314256 245.744732 
L 820.314256 245.587549 
L 822.503781 245.692338 
L 822.503781 245.744732 
L 848.778082 245.797127 
L 848.778082 245.797127 
" clip-path="url(#p2aaf483cdf)" style="fill: none; stroke: #1f77b4; stroke-width: 1.5; stroke-linecap: square"/>
   </g>
   <g id="patch_8">
    <path d="M 503.927885 257.158895 
L 503.927885 7.2 
" style="fill: none; stroke: #000000; stroke-width: 0.8; stroke-linejoin: miter; stroke-linecap: square"/>
   </g>
   <g id="patch_9">
    <path d="M 865.19952 257.158895 
L 865.19952 7.2 
" style="fill: none; stroke: #000000; stroke-width: 0.8; stroke-linejoin: miter; stroke-linecap: square"/>
   </g>
   <g id="patch_10">
    <path d="M 503.927885 257.158895 
L 865.19952 257.158895 
" style="fill: none; stroke: #000000; stroke-width: 0.8; stroke-linejoin: miter; stroke-linecap: square"/>
   </g>
   <g id="patch_11">
    <path d="M 503.927885 7.2 
L 865.19952 7.2 
" style="fill: none; stroke: #000000; stroke-width: 0.8; stroke-linejoin: miter; stroke-linecap: square"/>
   </g>
  </g>
 </g>
 <defs>
  <clipPath id="p11251347e2">
   <rect x="53.328125" y="7.2" width="361.271635" height="249.958895"/>
  </clipPath>
  <clipPath id="p2aaf483cdf">
   <rect x="503.927885" y="7.2" width="361.271635" height="249.958895"/>
  </clipPath>
 </defs>
</svg>
