<?xml version="1.0" encoding="utf-8" standalone="no"?>
<!DOCTYPE svg PUBLIC "-//W3C//DTD SVG 1.1//EN"
  "http://www.w3.org/Graphics/SVG/1.1/DTD/svg11.dtd">
<svg xmlns:xlink="http://www.w3.org/1999/xlink" width="872.39952pt" height="296.39952pt" viewBox="0 0 872.39952 296.39952" xmlns="http://www.w3.org/2000/svg" version="1.1">
 <metadata>
  <rdf:RDF xmlns:dc="http://purl.org/dc/elements/1.1/" xmlns:cc="http://creativecommons.org/ns#" xmlns:rdf="http://www.w3.org/1999/02/22-rdf-syntax-ns#">
   <cc:Work>
    <dc:type rdf:resource="http://purl.org/dc/dcmitype/StillImage"/>
    <dc:date>2026-02-24T15:28:42.267601</dc:date>
    <dc:format>image/svg+xml</dc:format>
    <dc:creator>
     <cc:Agent>
      <dc:title>Matplotlib v3.10.8, https://matplotlib.org/</dc:title>
     </cc:Agent>
    </dc:creator>
   </cc:Work>
  </rdf:RDF>
 </metadata>
 <defs>
  <style type="text/css">*{stroke-linejoin: round; stroke-linecap: butt}</style>
 </defs>
 <g id="figure_1">
  <g id="patch_1">
   <path d="M 0 296.39952 
L 872.39952 296.39952 
L 872.39952 0 
L 0 0 
z
" style="fill: #ffffff"/>
  </g>
  <g id="axes_1">
   <g id="patch_2">
    <path d="M 46.965625 257.158895 
L 414.59976 257.158895 
L 414.59976 22.318125 
L 46.965625 22.318125 
z
" style="fill: #ffffff"/>
   </g>
   <g id="matplotlib.axis_1">
    <g id="xtick_1">
     <g id="line2d_1">
      <defs>
       <path id="m0135c54d5d" d="M 0 0 
L 0 3.5 
" style="stroke: #000000; stroke-width: 0.8"/>
      </defs>
      <g>
       <use xlink:href="#m0135c54d5d" x="81.266418" y="257.158895" style="stroke: #000000; stroke-width: 0.8"/>
      </g>
     </g>
     <g id="text_1">
      <!-- 1.0 -->
      <g transform="translate(73.314855 271.757332) scale(0.1 -0.1)">
       <defs>
        <path id="DejaVuSans-31" d="M 794 531 
L 1825 531 
L 1825 4091 
L 703 3866 
L 703 4441 
L 1819 4666 
L 2450 4666 
L 2450 531 
L 3481 531 
L 3481 0 
L 794 0 
L 794 531 
z
" transform="scale(0.015625)"/>
        <path id="DejaVuSans-2e" d="M 684 794 
L 1344 794 
L 1344 0 
L 684 0 
L 684 794 
z
" transform="scale(0.015625)"/>
        <path id="DejaVuSans-30" d="M 2034 4250 
Q 1547 4250 1301 3770 
Q 1056 3291 1056 2328 
Q 1056 1369 1301 889 
Q 1547 409 2034 409 
Q 2525 409 2770 889 
Q 3016 1369 3016 2328 
Q 3016 3291 2770 3770 
Q 2525 4250 2034 4250 
z
M 2034 4750 
Q 2819 4750 3233 4129 
Q 3647 3509 3647 2328 
Q 3647 1150 3233 529 
Q 2819 -91 2034 -91 
Q 1250 -91 836 529 
Q 422 1150 422 2328 
Q 422 3509 836 4129 
Q 1250 4750 2034 4750 
z
" transform="scale(0.015625)"/>
       </defs>
       <use xlink:href="#DejaVuSans-31"/>
       <use xlink:href="#DejaVuSans-2e" transform="translate(63.623047 0)"/>
       <use xlink:href="#DejaVuSans-30" transform="translate(95.410156 0)"/>
      </g>
     </g>
    </g>
    <g id="xtick_2">
     <g id="line2d_2">
      <g>
       <use xlink:href="#m0135c54d5d" x="125.241793" y="257.158895" style="stroke: #000000; stroke-width: 0.8"/>
      </g>
     </g>
     <g id="text_2">
      <!-- 1.5 -->
      <g transform="translate(117.29023 271.757332) scale(0.1 -0.1)">
       <defs>
        <path id="DejaVuSans-35" d="M 691 4666 
L 3169 4666 
L 3169 4134 
L 1269 4134 
L 1269 2991 
Q 1406 3038 1543 3061 
Q 1681 3084 1819 3084 
Q 2600 3084 3056 2656 
Q 3513 2228 3513 1497 
Q 3513 744 3044 326 
Q 2575 -91 1722 -91 
Q 1428 -91 1123 -41 
Q 819 9 494 109 
L 494 744 
Q 775 591 1075 516 
Q 1375 441 1709 441 
Q 2250 441 2565 725 
Q 2881 1009 2881 1497 
Q 2881 1984 2565 2268 
Q 2250 2553 1709 2553 
Q 1456 2553 1204 2497 
Q 953 2441 691 2322 
L 691 4666 
z
" transform="scale(0.015625)"/>
       </defs>
       <use xlink:href="#DejaVuSans-31"/>
       <use xlink:href="#DejaVuSans-2e" transform="translate(63.623047 0)"/>
       <use xlink:href="#DejaVuSans-35" transform="translate(95.410156 0)"/>
      </g>
     </g>
    </g>
    <g id="xtick_3">
     <g id="line2d_3">
      <g>
       <use xlink:href="#m0135c54d5d" x="169.217168" y="257.158895" style="stroke: #000000; stroke-width: 0.8"/>
      </g>
     </g>
     <g id="text_3">
      <!-- 2.0 -->
      <g transform="translate(161.265605 271.757332) scale(0.1 -0.1)">
       <defs>
        <path id="DejaVuSans-32" d="M 1228 531 
L 3431 531 
L 3431 0 
L 469 0 
L 469 531 
Q 828 903 1448 1529 
Q 2069 2156 2228 2338 
Q 2531 2678 2651 2914 
Q 2772 3150 2772 3378 
Q 2772 3750 2511 3984 
Q 2250 4219 1831 4219 
Q 1534 4219 1204 4116 
Q 875 4013 500 3803 
L 500 4441 
Q 881 4594 1212 4672 
Q 1544 4750 1819 4750 
Q 2544 4750 2975 4387 
Q 3406 4025 3406 3419 
Q 3406 3131 3298 2873 
Q 3191 2616 2906 2266 
Q 2828 2175 2409 1742 
Q 1991 1309 1228 531 
z
" transform="scale(0.015625)"/>
       </defs>
       <use xlink:href="#DejaVuSans-32"/>
       <use xlink:href="#DejaVuSans-2e" transform="translate(63.623047 0)"/>
       <use xlink:href="#DejaVuSans-30" transform="translate(95.410156 0)"/>
      </g>
     </g>
    </g>
    <g id="xtick_4">
     <g id="line2d_4">
      <g>
       <use xlink:href="#m0135c54d5d" x="213.192543" y="257.158895" style="stroke: #000000; stroke-width: 0.8"/>
      </g>
     </g>
     <g id="text_4">
      <!-- 2.5 -->
      <g transform="translate(205.24098 271.757332) scale(0.1 -0.1)">
       <use xlink:href="#DejaVuSans-32"/>
       <use xlink:href="#DejaVuSans-2e" transform="translate(63.623047 0)"/>
       <use xlink:href="#DejaVuSans-35" transform="translate(95.410156 0)"/>
      </g>
     </g>
    </g>
    <g id="xtick_5">
     <g id="line2d_5">
      <g>
       <use xlink:href="#m0135c54d5d" x="257.167918" y="257.158895" style="stroke: #000000; stroke-width: 0.8"/>
      </g>
     </g>
     <g id="text_5">
      <!-- 3.0 -->
      <g transform="translate(249.216355 271.757332) scale(0.1 -0.1)">
       <defs>
        <path id="DejaVuSans-33" d="M 2597 2516 
Q 3050 2419 3304 2112 
Q 3559 1806 3559 1356 
Q 3559 666 3084 287 
Q 2609 -91 1734 -91 
Q 1441 -91 1130 -33 
Q 819 25 488 141 
L 488 750 
Q 750 597 1062 519 
Q 1375 441 1716 441 
Q 2309 441 2620 675 
Q 2931 909 2931 1356 
Q 2931 1769 2642 2001 
Q 2353 2234 1838 2234 
L 1294 2234 
L 1294 2753 
L 1863 2753 
Q 2328 2753 2575 2939 
Q 2822 3125 2822 3475 
Q 2822 3834 2567 4026 
Q 2313 4219 1838 4219 
Q 1578 4219 1281 4162 
Q 984 4106 628 3988 
L 628 4550 
Q 988 4650 1302 4700 
Q 1616 4750 1894 4750 
Q 2613 4750 3031 4423 
Q 3450 4097 3450 3541 
Q 3450 3153 3228 2886 
Q 3006 2619 2597 2516 
z
" transform="scale(0.015625)"/>
       </defs>
       <use xlink:href="#DejaVuSans-33"/>
       <use xlink:href="#DejaVuSans-2e" transform="translate(63.623047 0)"/>
       <use xlink:href="#DejaVuSans-30" transform="translate(95.410156 0)"/>
      </g>
     </g>
    </g>
    <g id="xtick_6">
     <g id="line2d_6">
      <g>
       <use xlink:href="#m0135c54d5d" x="301.143293" y="257.158895" style="stroke: #000000; stroke-width: 0.8"/>
      </g>
     </g>
     <g id="text_6">
      <!-- 3.5 -->
      <g transform="translate(293.19173 271.757332) scale(0.1 -0.1)">
       <use xlink:href="#DejaVuSans-33"/>
       <use xlink:href="#DejaVuSans-2e" transform="translate(63.623047 0)"/>
       <use xlink:href="#DejaVuSans-35" transform="translate(95.410156 0)"/>
      </g>
     </g>
    </g>
    <g id="xtick_7">
     <g id="line2d_7">
      <g>
       <use xlink:href="#m0135c54d5d" x="345.118668" y="257.158895" style="stroke: #000000; stroke-width: 0.8"/>
      </g>
     </g>
     <g id="text_7">
      <!-- 4.0 -->
      <g transform="translate(337.167105 271.757332) scale(0.1 -0.1)">
       <defs>
        <path id="DejaVuSans-34" d="M 2419 4116 
L 825 1625 
L 2419 1625 
L 2419 4116 
z
M 2253 4666 
L 3047 4666 
L 3047 1625 
L 3713 1625 
L 3713 1100 
L 3047 1100 
L 3047 0 
L 2419 0 
L 2419 1100 
L 313 1100 
L 313 1709 
L 2253 4666 
z
" transform="scale(0.015625)"/>
       </defs>
       <use xlink:href="#DejaVuSans-34"/>
       <use xlink:href="#DejaVuSans-2e" transform="translate(63.623047 0)"/>
       <use xlink:href="#DejaVuSans-30" transform="translate(95.410156 0)"/>
      </g>
     </g>
    </g>
    <g id="xtick_8">
     <g id="line2d_8">
      <g>
       <use xlink:href="#m0135c54d5d" x="389.094043" y="257.158895" style="stroke: #000000; stroke-width: 0.8"/>
      </g>
     </g>
     <g id="text_8">
      <!-- 4.5 -->
      <g transform="translate(381.14248 271.757332) scale(0.1 -0.1)">
       <use xlink:href="#DejaVuSans-34"/>
       <use xlink:href="#DejaVuSans-2e" transform="translate(63.623047 0)"/>
       <use xlink:href="#DejaVuSans-35" transform="translate(95.410156 0)"/>
      </g>
     </g>
    </g>
    <g id="text_9">
     <!-- wavelength [Å] -->
     <g transform="translate(192.745193 287.119832) scale(0.1 -0.1)">
      <defs>
       <path id="DejaVuSans-77" d="M 269 3500 
L 844 3500 
L 1563 769 
L 2278 3500 
L 2956 3500 
L 3675 769 
L 4391 3500 
L 4966 3500 
L 4050 0 
L 3372 0 
L 2619 2869 
L 1863 0 
L 1184 0 
L 269 3500 
z
" transform="scale(0.015625)"/>
       <path id="DejaVuSans-61" d="M 2194 1759 
Q 1497 1759 1228 1600 
Q 959 1441 959 1056 
Q 959 750 1161 570 
Q 1363 391 1709 391 
Q 2188 391 2477 730 
Q 2766 1069 2766 1631 
L 2766 1759 
L 2194 1759 
z
M 3341 1997 
L 3341 0 
L 2766 0 
L 2766 531 
Q 2569 213 2275 61 
Q 1981 -91 1556 -91 
Q 1019 -91 701 211 
Q 384 513 384 1019 
Q 384 1609 779 1909 
Q 1175 2209 1959 2209 
L 2766 2209 
L 2766 2266 
Q 2766 2663 2505 2880 
Q 2244 3097 1772 3097 
Q 1472 3097 1187 3025 
Q 903 2953 641 2809 
L 641 3341 
Q 956 3463 1253 3523 
Q 1550 3584 1831 3584 
Q 2591 3584 2966 3190 
Q 3341 2797 3341 1997 
z
" transform="scale(0.015625)"/>
       <path id="DejaVuSans-76" d="M 191 3500 
L 800 3500 
L 1894 563 
L 2988 3500 
L 3597 3500 
L 2284 0 
L 1503 0 
L 191 3500 
z
" transform="scale(0.015625)"/>
       <path id="DejaVuSans-65" d="M 3597 1894 
L 3597 1613 
L 953 1613 
Q 991 1019 1311 708 
Q 1631 397 2203 397 
Q 2534 397 2845 478 
Q 3156 559 3463 722 
L 3463 178 
Q 3153 47 2828 -22 
Q 2503 -91 2169 -91 
Q 1331 -91 842 396 
Q 353 884 353 1716 
Q 353 2575 817 3079 
Q 1281 3584 2069 3584 
Q 2775 3584 3186 3129 
Q 3597 2675 3597 1894 
z
M 3022 2063 
Q 3016 2534 2758 2815 
Q 2500 3097 2075 3097 
Q 1594 3097 1305 2825 
Q 1016 2553 972 2059 
L 3022 2063 
z
" transform="scale(0.015625)"/>
       <path id="DejaVuSans-6c" d="M 603 4863 
L 1178 4863 
L 1178 0 
L 603 0 
L 603 4863 
z
" transform="scale(0.015625)"/>
       <path id="DejaVuSans-6e" d="M 3513 2113 
L 3513 0 
L 2938 0 
L 2938 2094 
Q 2938 2591 2744 2837 
Q 2550 3084 2163 3084 
Q 1697 3084 1428 2787 
Q 1159 2491 1159 1978 
L 1159 0 
L 581 0 
L 581 3500 
L 1159 3500 
L 1159 2956 
Q 1366 3272 1645 3428 
Q 1925 3584 2291 3584 
Q 2894 3584 3203 3211 
Q 3513 2838 3513 2113 
z
" transform="scale(0.015625)"/>
       <path id="DejaVuSans-67" d="M 2906 1791 
Q 2906 2416 2648 2759 
Q 2391 3103 1925 3103 
Q 1463 3103 1205 2759 
Q 947 2416 947 1791 
Q 947 1169 1205 825 
Q 1463 481 1925 481 
Q 2391 481 2648 825 
Q 2906 1169 2906 1791 
z
M 3481 434 
Q 3481 -459 3084 -895 
Q 2688 -1331 1869 -1331 
Q 1566 -1331 1297 -1286 
Q 1028 -1241 775 -1147 
L 775 -588 
Q 1028 -725 1275 -790 
Q 1522 -856 1778 -856 
Q 2344 -856 2625 -561 
Q 2906 -266 2906 331 
L 2906 616 
Q 2728 306 2450 153 
Q 2172 0 1784 0 
Q 1141 0 747 490 
Q 353 981 353 1791 
Q 353 2603 747 3093 
Q 1141 3584 1784 3584 
Q 2172 3584 2450 3431 
Q 2728 3278 2906 2969 
L 2906 3500 
L 3481 3500 
L 3481 434 
z
" transform="scale(0.015625)"/>
       <path id="DejaVuSans-74" d="M 1172 4494 
L 1172 3500 
L 2356 3500 
L 2356 3053 
L 1172 3053 
L 1172 1153 
Q 1172 725 1289 603 
Q 1406 481 1766 481 
L 2356 481 
L 2356 0 
L 1766 0 
Q 1100 0 847 248 
Q 594 497 594 1153 
L 594 3053 
L 172 3053 
L 172 3500 
L 594 3500 
L 594 4494 
L 1172 4494 
z
" transform="scale(0.015625)"/>
       <path id="DejaVuSans-68" d="M 3513 2113 
L 3513 0 
L 2938 0 
L 2938 2094 
Q 2938 2591 2744 2837 
Q 2550 3084 2163 3084 
Q 1697 3084 1428 2787 
Q 1159 2491 1159 1978 
L 1159 0 
L 581 0 
L 581 4863 
L 1159 4863 
L 1159 2956 
Q 1366 3272 1645 3428 
Q 1925 3584 2291 3584 
Q 2894 3584 3203 3211 
Q 3513 2838 3513 2113 
z
" transform="scale(0.015625)"/>
       <path id="DejaVuSans-20" transform="scale(0.015625)"/>
       <path id="DejaVuSans-5b" d="M 550 4863 
L 1875 4863 
L 1875 4416 
L 1125 4416 
L 1125 -397 
L 1875 -397 
L 1875 -844 
L 550 -844 
L 550 4863 
z
" transform="scale(0.015625)"/>
       <path id="DejaVuSans-c5" d="M 2663 5081 
Q 2663 5278 2523 5417 
Q 2384 5556 2188 5556 
Q 1988 5556 1852 5420 
Q 1716 5284 1716 5081 
Q 1716 4884 1853 4746 
Q 1991 4609 2188 4609 
Q 2384 4609 2523 4746 
Q 2663 4884 2663 5081 
z
M 2188 4044 
L 1338 1722 
L 3041 1722 
L 2188 4044 
z
M 1716 4366 
Q 1525 4494 1428 4673 
Q 1331 4853 1331 5081 
Q 1331 5441 1579 5691 
Q 1828 5941 2188 5941 
Q 2544 5941 2795 5689 
Q 3047 5438 3047 5081 
Q 3047 4863 2948 4678 
Q 2850 4494 2663 4366 
L 4325 0 
L 3669 0 
L 3244 1197 
L 1141 1197 
L 716 0 
L 50 0 
L 1716 4366 
z
" transform="scale(0.015625)"/>
       <path id="DejaVuSans-5d" d="M 1947 4863 
L 1947 -844 
L 622 -844 
L 622 -397 
L 1369 -397 
L 1369 4416 
L 622 4416 
L 622 4863 
L 1947 4863 
z
" transform="scale(0.015625)"/>
      </defs>
      <use xlink:href="#DejaVuSans-77"/>
      <use xlink:href="#DejaVuSans-61" transform="translate(81.787109 0)"/>
      <use xlink:href="#DejaVuSans-76" transform="translate(143.066406 0)"/>
      <use xlink:href="#DejaVuSans-65" transform="translate(202.246094 0)"/>
      <use xlink:href="#DejaVuSans-6c" transform="translate(263.769531 0)"/>
      <use xlink:href="#DejaVuSans-65" transform="translate(291.552734 0)"/>
      <use xlink:href="#DejaVuSans-6e" transform="translate(353.076172 0)"/>
      <use xlink:href="#DejaVuSans-67" transform="translate(416.455078 0)"/>
      <use xlink:href="#DejaVuSans-74" transform="translate(479.931641 0)"/>
      <use xlink:href="#DejaVuSans-68" transform="translate(519.140625 0)"/>
      <use xlink:href="#DejaVuSans-20" transform="translate(582.519531 0)"/>
      <use xlink:href="#DejaVuSans-5b" transform="translate(614.306641 0)"/>
      <use xlink:href="#DejaVuSans-c5" transform="translate(653.320312 0)"/>
      <use xlink:href="#DejaVuSans-5d" transform="translate(721.728516 0)"/>
     </g>
    </g>
   </g>
   <g id="matplotlib.axis_2">
    <g id="ytick_1">
     <g id="line2d_9">
      <defs>
       <path id="md618a09533" d="M 0 0 
L -3.5 0 
" style="stroke: #000000; stroke-width: 0.8"/>
      </defs>
      <g>
       <use xlink:href="#md618a09533" x="46.965625" y="246.484315" style="stroke: #000000; stroke-width: 0.8"/>
      </g>
     </g>
     <g id="text_10">
      <!-- 0 -->
      <g transform="translate(33.603125 250.283533) scale(0.1 -0.1)">
       <use xlink:href="#DejaVuSans-30"/>
      </g>
     </g>
    </g>
    <g id="ytick_2">
     <g id="line2d_10">
      <g>
       <use xlink:href="#md618a09533" x="46.965625" y="195.225825" style="stroke: #000000; stroke-width: 0.8"/>
      </g>
     </g>
     <g id="text_11">
      <!-- 200 -->
      <g transform="translate(20.878125 199.025044) scale(0.1 -0.1)">
       <use xlink:href="#DejaVuSans-32"/>
       <use xlink:href="#DejaVuSans-30" transform="translate(63.623047 0)"/>
       <use xlink:href="#DejaVuSans-30" transform="translate(127.246094 0)"/>
      </g>
     </g>
    </g>
    <g id="ytick_3">
     <g id="line2d_11">
      <g>
       <use xlink:href="#md618a09533" x="46.965625" y="143.967335" style="stroke: #000000; stroke-width: 0.8"/>
      </g>
     </g>
     <g id="text_12">
      <!-- 400 -->
      <g transform="translate(20.878125 147.766554) scale(0.1 -0.1)">
       <use xlink:href="#DejaVuSans-34"/>
       <use xlink:href="#DejaVuSans-30" transform="translate(63.623047 0)"/>
       <use xlink:href="#DejaVuSans-30" transform="translate(127.246094 0)"/>
      </g>
     </g>
    </g>
    <g id="ytick_4">
     <g id="line2d_12">
      <g>
       <use xlink:href="#md618a09533" x="46.965625" y="92.708846" style="stroke: #000000; stroke-width: 0.8"/>
      </g>
     </g>
     <g id="text_13">
      <!-- 600 -->
      <g transform="translate(20.878125 96.508065) scale(0.1 -0.1)">
       <defs>
        <path id="DejaVuSans-36" d="M 2113 2584 
Q 1688 2584 1439 2293 
Q 1191 2003 1191 1497 
Q 1191 994 1439 701 
Q 1688 409 2113 409 
Q 2538 409 2786 701 
Q 3034 994 3034 1497 
Q 3034 2003 2786 2293 
Q 2538 2584 2113 2584 
z
M 3366 4563 
L 3366 3988 
Q 3128 4100 2886 4159 
Q 2644 4219 2406 4219 
Q 1781 4219 1451 3797 
Q 1122 3375 1075 2522 
Q 1259 2794 1537 2939 
Q 1816 3084 2150 3084 
Q 2853 3084 3261 2657 
Q 3669 2231 3669 1497 
Q 3669 778 3244 343 
Q 2819 -91 2113 -91 
Q 1303 -91 875 529 
Q 447 1150 447 2328 
Q 447 3434 972 4092 
Q 1497 4750 2381 4750 
Q 2619 4750 2861 4703 
Q 3103 4656 3366 4563 
z
" transform="scale(0.015625)"/>
       </defs>
       <use xlink:href="#DejaVuSans-36"/>
       <use xlink:href="#DejaVuSans-30" transform="translate(63.623047 0)"/>
       <use xlink:href="#DejaVuSans-30" transform="translate(127.246094 0)"/>
      </g>
     </g>
    </g>
    <g id="ytick_5">
     <g id="line2d_13">
      <g>
       <use xlink:href="#md618a09533" x="46.965625" y="41.450356" style="stroke: #000000; stroke-width: 0.8"/>
      </g>
     </g>
     <g id="text_14">
      <!-- 800 -->
      <g transform="translate(20.878125 45.249575) scale(0.1 -0.1)">
       <defs>
        <path id="DejaVuSans-38" d="M 2034 2216 
Q 1584 2216 1326 1975 
Q 1069 1734 1069 1313 
Q 1069 891 1326 650 
Q 1584 409 2034 409 
Q 2484 409 2743 651 
Q 3003 894 3003 1313 
Q 3003 1734 2745 1975 
Q 2488 2216 2034 2216 
z
M 1403 2484 
Q 997 2584 770 2862 
Q 544 3141 544 3541 
Q 544 4100 942 4425 
Q 1341 4750 2034 4750 
Q 2731 4750 3128 4425 
Q 3525 4100 3525 3541 
Q 3525 3141 3298 2862 
Q 3072 2584 2669 2484 
Q 3125 2378 3379 2068 
Q 3634 1759 3634 1313 
Q 3634 634 3220 271 
Q 2806 -91 2034 -91 
Q 1263 -91 848 271 
Q 434 634 434 1313 
Q 434 1759 690 2068 
Q 947 2378 1403 2484 
z
M 1172 3481 
Q 1172 3119 1398 2916 
Q 1625 2713 2034 2713 
Q 2441 2713 2670 2916 
Q 2900 3119 2900 3481 
Q 2900 3844 2670 4047 
Q 2441 4250 2034 4250 
Q 1625 4250 1398 4047 
Q 1172 3844 1172 3481 
z
" transform="scale(0.015625)"/>
       </defs>
       <use xlink:href="#DejaVuSans-38"/>
       <use xlink:href="#DejaVuSans-30" transform="translate(63.623047 0)"/>
       <use xlink:href="#DejaVuSans-30" transform="translate(127.246094 0)"/>
      </g>
     </g>
    </g>
    <g id="text_15">
     <!-- [counts] -->
     <g transform="translate(14.798437 160.35101) rotate(-90) scale(0.1 -0.1)">
      <defs>
       <path id="DejaVuSans-63" d="M 3122 3366 
L 3122 2828 
Q 2878 2963 2633 3030 
Q 2388 3097 2138 3097 
Q 1578 3097 1268 2742 
Q 959 2388 959 1747 
Q 959 1106 1268 751 
Q 1578 397 2138 397 
Q 2388 397 2633 464 
Q 2878 531 3122 666 
L 3122 134 
Q 2881 22 2623 -34 
Q 2366 -91 2075 -91 
Q 1284 -91 818 406 
Q 353 903 353 1747 
Q 353 2603 823 3093 
Q 1294 3584 2113 3584 
Q 2378 3584 2631 3529 
Q 2884 3475 3122 3366 
z
" transform="scale(0.015625)"/>
       <path id="DejaVuSans-6f" d="M 1959 3097 
Q 1497 3097 1228 2736 
Q 959 2375 959 1747 
Q 959 1119 1226 758 
Q 1494 397 1959 397 
Q 2419 397 2687 759 
Q 2956 1122 2956 1747 
Q 2956 2369 2687 2733 
Q 2419 3097 1959 3097 
z
M 1959 3584 
Q 2709 3584 3137 3096 
Q 3566 2609 3566 1747 
Q 3566 888 3137 398 
Q 2709 -91 1959 -91 
Q 1206 -91 779 398 
Q 353 888 353 1747 
Q 353 2609 779 3096 
Q 1206 3584 1959 3584 
z
" transform="scale(0.015625)"/>
       <path id="DejaVuSans-75" d="M 544 1381 
L 544 3500 
L 1119 3500 
L 1119 1403 
Q 1119 906 1312 657 
Q 1506 409 1894 409 
Q 2359 409 2629 706 
Q 2900 1003 2900 1516 
L 2900 3500 
L 3475 3500 
L 3475 0 
L 2900 0 
L 2900 538 
Q 2691 219 2414 64 
Q 2138 -91 1772 -91 
Q 1169 -91 856 284 
Q 544 659 544 1381 
z
M 1991 3584 
L 1991 3584 
z
" transform="scale(0.015625)"/>
       <path id="DejaVuSans-73" d="M 2834 3397 
L 2834 2853 
Q 2591 2978 2328 3040 
Q 2066 3103 1784 3103 
Q 1356 3103 1142 2972 
Q 928 2841 928 2578 
Q 928 2378 1081 2264 
Q 1234 2150 1697 2047 
L 1894 2003 
Q 2506 1872 2764 1633 
Q 3022 1394 3022 966 
Q 3022 478 2636 193 
Q 2250 -91 1575 -91 
Q 1294 -91 989 -36 
Q 684 19 347 128 
L 347 722 
Q 666 556 975 473 
Q 1284 391 1588 391 
Q 1994 391 2212 530 
Q 2431 669 2431 922 
Q 2431 1156 2273 1281 
Q 2116 1406 1581 1522 
L 1381 1569 
Q 847 1681 609 1914 
Q 372 2147 372 2553 
Q 372 3047 722 3315 
Q 1072 3584 1716 3584 
Q 2034 3584 2315 3537 
Q 2597 3491 2834 3397 
z
" transform="scale(0.015625)"/>
      </defs>
      <use xlink:href="#DejaVuSans-5b"/>
      <use xlink:href="#DejaVuSans-63" transform="translate(39.013672 0)"/>
      <use xlink:href="#DejaVuSans-6f" transform="translate(93.994141 0)"/>
      <use xlink:href="#DejaVuSans-75" transform="translate(155.175781 0)"/>
      <use xlink:href="#DejaVuSans-6e" transform="translate(218.554688 0)"/>
      <use xlink:href="#DejaVuSans-74" transform="translate(281.933594 0)"/>
      <use xlink:href="#DejaVuSans-73" transform="translate(321.142578 0)"/>
      <use xlink:href="#DejaVuSans-5d" transform="translate(373.242188 0)"/>
     </g>
    </g>
   </g>
   <g id="line2d_14">
    <path d="M 63.676268 246.484315 
L 73.702653 246.484315 
L 73.702653 237.770371 
L 75.373717 237.770371 
L 75.373717 231.619353 
L 77.044782 231.619353 
L 77.044782 221.623947 
L 78.715846 221.623947 
L 78.715846 213.935174 
L 80.38691 213.935174 
L 80.38691 209.065617 
L 82.057974 209.065617 
L 82.057974 199.582797 
L 83.729039 199.582797 
L 83.729039 194.969533 
L 85.400103 194.969533 
L 85.400103 181.386033 
L 87.071167 181.386033 
L 87.071167 177.541646 
L 88.742231 177.541646 
L 88.742231 173.184674 
L 90.413296 173.184674 
L 90.413296 160.626345 
L 92.08436 160.626345 
L 92.08436 151.656109 
L 93.755424 151.656109 
L 93.755424 146.786552 
L 95.426488 146.786552 
L 95.426488 135.509685 
L 97.097553 135.509685 
L 97.097553 114.749996 
L 98.768617 114.749996 
L 98.768617 121.669892 
L 100.439681 121.669892 
L 100.439681 120.901015 
L 102.110745 120.901015 
L 102.110745 107.573808 
L 103.78181 107.573808 
L 103.78181 99.372449 
L 105.452874 99.372449 
L 105.452874 104.498298 
L 107.123938 104.498298 
L 107.123938 105.267176 
L 108.795002 105.267176 
L 108.795002 90.658506 
L 110.466067 90.658506 
L 110.466067 85.020072 
L 112.137131 85.020072 
L 112.137131 71.949158 
L 113.808195 71.949158 
L 113.808195 59.64712 
L 115.479259 59.64712 
L 115.479259 58.878243 
L 117.150323 58.878243 
L 117.150323 64.772969 
L 118.821388 64.772969 
L 118.821388 45.294743 
L 120.492452 45.294743 
L 120.492452 62.722629 
L 122.163516 62.722629 
L 122.163516 32.992705 
L 123.834581 32.992705 
L 123.834581 61.184875 
L 125.505645 61.184875 
L 125.505645 46.576205 
L 127.176709 46.576205 
L 127.176709 36.837092 
L 128.847773 36.837092 
L 128.847773 48.11396 
L 130.518838 48.11396 
L 130.518838 54.264979 
L 132.189902 54.264979 
L 132.189902 42.731818 
L 133.860966 42.731818 
L 133.860966 65.285554 
L 135.53203 65.285554 
L 135.53203 58.109365 
L 137.203095 58.109365 
L 137.203095 55.033856 
L 138.874159 55.033856 
L 138.874159 65.541846 
L 140.545223 65.541846 
L 140.545223 75.024667 
L 142.216287 75.024667 
L 142.216287 81.688271 
L 143.887352 81.688271 
L 143.887352 67.848478 
L 145.558416 67.848478 
L 145.558416 65.541846 
L 147.22948 65.541846 
L 147.22948 83.226025 
L 148.900544 83.226025 
L 148.900544 75.793544 
L 150.571609 75.793544 
L 150.571609 84.76378 
L 152.242673 84.76378 
L 152.242673 78.356469 
L 153.913737 78.356469 
L 153.913737 86.045242 
L 155.584801 86.045242 
L 155.584801 104.498298 
L 157.255866 104.498298 
L 157.255866 84.76378 
L 158.92693 84.76378 
L 158.92693 84.507487 
L 160.597994 84.507487 
L 160.597994 87.326704 
L 162.269058 87.326704 
L 162.269058 86.81412 
L 163.940123 86.81412 
L 163.940123 82.200855 
L 165.611187 82.200855 
L 165.611187 91.427384 
L 167.282251 91.427384 
L 167.282251 83.994903 
L 168.953315 83.994903 
L 168.953315 88.608167 
L 170.62438 88.608167 
L 170.62438 96.29694 
L 172.295444 96.29694 
L 172.295444 93.477723 
L 173.966508 93.477723 
L 173.966508 85.532657 
L 175.637572 85.532657 
L 175.637572 98.34728 
L 177.308637 98.34728 
L 177.308637 87.070412 
L 178.979701 87.070412 
L 178.979701 100.910204 
L 180.650765 100.910204 
L 180.650765 100.653912 
L 182.321829 100.653912 
L 182.321829 94.2466 
L 183.992894 94.2466 
L 183.992894 96.553233 
L 185.663958 96.553233 
L 185.663958 90.145921 
L 187.335022 90.145921 
L 187.335022 101.935374 
L 189.006086 101.935374 
L 189.006086 105.779761 
L 190.677151 105.779761 
L 190.677151 116.800336 
L 192.348215 116.800336 
L 192.348215 115.518874 
L 194.019279 115.518874 
L 194.019279 127.052034 
L 195.690343 127.052034 
L 195.690343 121.669892 
L 197.361408 121.669892 
L 197.361408 130.896421 
L 199.032472 130.896421 
L 199.032472 123.720232 
L 200.703536 123.720232 
L 200.703536 143.198458 
L 202.3746 143.198458 
L 202.3746 160.626345 
L 204.045665 160.626345 
L 204.045665 159.601175 
L 205.716729 159.601175 
L 205.716729 165.239609 
L 207.387793 165.239609 
L 207.387793 181.12974 
L 209.058857 181.12974 
L 209.058857 186.255589 
L 210.729922 186.255589 
L 210.729922 191.894023 
L 212.400986 191.894023 
L 212.400986 197.276165 
L 214.07205 197.276165 
L 214.07205 204.964938 
L 215.743114 204.964938 
L 215.743114 220.342485 
L 217.414179 220.342485 
L 217.414179 212.910004 
L 219.085243 212.910004 
L 219.085243 224.955749 
L 220.756307 224.955749 
L 220.756307 230.081598 
L 222.427371 230.081598 
L 222.427371 236.232617 
L 224.098435 236.232617 
L 224.098435 240.077003 
L 225.7695 240.077003 
L 225.7695 242.383635 
L 227.440564 242.383635 
L 227.440564 245.202852 
L 229.111628 245.202852 
L 229.111628 241.102173 
L 230.782693 241.102173 
L 230.782693 231.619353 
L 232.453757 231.619353 
L 232.453757 228.031258 
L 234.124821 228.031258 
L 234.124821 219.573608 
L 235.795885 219.573608 
L 235.795885 216.498098 
L 237.466949 216.498098 
L 237.466949 204.964938 
L 239.138014 204.964938 
L 239.138014 192.406608 
L 240.809078 192.406608 
L 240.809078 189.843684 
L 242.480142 189.843684 
L 242.480142 194.969533 
L 244.151207 194.969533 
L 244.151207 190.612561 
L 245.822271 190.612561 
L 245.822271 177.541646 
L 247.493335 177.541646 
L 247.493335 180.360863 
L 249.164399 180.360863 
L 249.164399 178.054231 
L 250.835464 178.054231 
L 250.835464 166.264778 
L 252.506528 166.264778 
L 252.506528 168.058825 
L 254.177592 168.058825 
L 254.177592 169.59658 
L 255.848656 169.59658 
L 255.848656 160.626345 
L 257.51972 160.626345 
L 257.51972 149.862062 
L 259.190785 149.862062 
L 259.190785 153.962741 
L 260.861849 153.962741 
L 260.861849 149.093184 
L 262.532913 149.093184 
L 262.532913 150.118354 
L 264.203978 150.118354 
L 264.203978 133.715637 
L 265.875042 133.715637 
L 265.875042 130.896421 
L 267.546106 130.896421 
L 267.546106 134.484515 
L 269.21717 134.484515 
L 269.21717 128.333496 
L 270.888234 128.333496 
L 270.888234 132.434175 
L 272.559299 132.434175 
L 272.559299 129.102373 
L 274.230363 129.102373 
L 274.230363 120.901015 
L 275.901427 120.901015 
L 275.901427 110.90561 
L 277.572492 110.90561 
L 277.572492 117.569213 
L 279.243556 117.569213 
L 279.243556 129.871251 
L 280.91462 129.871251 
L 280.91462 109.111562 
L 282.585684 109.111562 
L 282.585684 112.187072 
L 284.256749 112.187072 
L 284.256749 117.825506 
L 285.927813 117.825506 
L 285.927813 109.624147 
L 287.598877 109.624147 
L 287.598877 112.187072 
L 289.269941 112.187072 
L 289.269941 112.955949 
L 290.941006 112.955949 
L 290.941006 132.94676 
L 292.61207 132.94676 
L 292.61207 114.749996 
L 294.283134 114.749996 
L 294.283134 131.409005 
L 295.954198 131.409005 
L 295.954198 129.871251 
L 297.625263 129.871251 
L 297.625263 137.047439 
L 299.296327 137.047439 
L 299.296327 134.484515 
L 300.967391 134.484515 
L 300.967391 144.736213 
L 302.638455 144.736213 
L 302.638455 128.077204 
L 304.309519 128.077204 
L 304.309519 141.148118 
L 305.980584 141.148118 
L 305.980584 138.841486 
L 307.651648 138.841486 
L 307.651648 137.303732 
L 309.322712 137.303732 
L 309.322712 132.94676 
L 310.993777 132.94676 
L 310.993777 148.324307 
L 312.664841 148.324307 
L 312.664841 142.685873 
L 314.335905 142.685873 
L 314.335905 154.987911 
L 316.006969 154.987911 
L 316.006969 153.962741 
L 317.678033 153.962741 
L 317.678033 154.987911 
L 319.349098 154.987911 
L 319.349098 148.068015 
L 321.020162 148.068015 
L 321.020162 164.470731 
L 322.691226 164.470731 
L 322.691226 161.395222 
L 326.033355 161.395222 
L 326.033355 158.832297 
L 327.704419 158.832297 
L 327.704419 159.601175 
L 329.375483 159.601175 
L 329.375483 157.807128 
L 331.046547 157.807128 
L 331.046547 165.239609 
L 332.717612 165.239609 
L 332.717612 171.903212 
L 334.388676 171.903212 
L 334.388676 172.928382 
L 337.730805 172.928382 
L 337.730805 169.083995 
L 339.401869 169.083995 
L 339.401869 173.697259 
L 341.072933 173.697259 
L 341.072933 183.692665 
L 342.743997 183.692665 
L 342.743997 178.054231 
L 344.415062 178.054231 
L 344.415062 184.461542 
L 346.086126 184.461542 
L 346.086126 187.280759 
L 347.75719 187.280759 
L 347.75719 181.12974 
L 349.428254 181.12974 
L 349.428254 184.20525 
L 351.099318 184.20525 
L 351.099318 200.864259 
L 352.770383 200.864259 
L 352.770383 197.276165 
L 354.441447 197.276165 
L 354.441447 196.76358 
L 356.112511 196.76358 
L 356.112511 202.914598 
L 357.783576 202.914598 
L 357.783576 205.477523 
L 359.45464 205.477523 
L 359.45464 208.040447 
L 361.125704 208.040447 
L 361.125704 216.754391 
L 362.796768 216.754391 
L 362.796768 214.447759 
L 364.467832 214.447759 
L 364.467832 218.292145 
L 366.138897 218.292145 
L 366.138897 223.930579 
L 367.809961 223.930579 
L 367.809961 226.493504 
L 369.481025 226.493504 
L 369.481025 228.543843 
L 371.15209 228.543843 
L 371.15209 229.825305 
L 372.823154 229.825305 
L 372.823154 234.182277 
L 374.494218 234.182277 
L 374.494218 236.232617 
L 376.165282 236.232617 
L 376.165282 236.488909 
L 377.836346 236.488909 
L 377.836346 240.589588 
L 379.507411 240.589588 
L 379.507411 243.152513 
L 381.178475 243.152513 
L 381.178475 242.383635 
L 382.849539 242.383635 
L 382.849539 244.177683 
L 384.520603 244.177683 
L 384.520603 243.92139 
L 386.191668 243.92139 
L 386.191668 245.715437 
L 387.862732 245.715437 
L 387.862732 246.484315 
L 397.889117 246.484315 
L 397.889117 246.484315 
" clip-path="url(#p5ef56dc79d)" style="fill: none; stroke: #1f77b4; stroke-width: 1.5; stroke-linecap: square"/>
   </g>
   <g id="line2d_15">
    <path d="M 63.676268 246.484315 
L 72.031589 246.484315 
L 72.031589 243.665098 
L 73.702653 243.665098 
L 73.702653 237.257786 
L 75.373717 237.257786 
L 75.373717 231.36306 
L 77.044782 231.36306 
L 77.044782 221.111362 
L 78.715846 221.111362 
L 78.715846 217.010683 
L 80.38691 217.010683 
L 80.38691 207.527862 
L 82.057974 207.527862 
L 82.057974 199.839089 
L 83.729039 199.839089 
L 83.729039 191.894023 
L 85.400103 191.894023 
L 85.400103 181.898618 
L 87.071167 181.898618 
L 87.071167 180.873448 
L 88.742231 180.873448 
L 88.742231 168.57141 
L 90.413296 168.57141 
L 90.413296 164.470731 
L 92.08436 164.470731 
L 92.08436 154.987911 
L 93.755424 154.987911 
L 93.755424 143.967335 
L 95.426488 143.967335 
L 95.426488 130.640128 
L 97.097553 130.640128 
L 97.097553 121.926185 
L 98.768617 121.926185 
L 98.768617 115.518874 
L 100.439681 115.518874 
L 100.439681 121.669892 
L 102.110745 121.669892 
L 102.110745 108.342685 
L 103.78181 108.342685 
L 103.78181 96.040648 
L 105.452874 96.040648 
L 105.452874 110.136732 
L 107.123938 110.136732 
L 107.123938 102.191666 
L 108.795002 102.191666 
L 108.795002 83.73861 
L 110.466067 83.73861 
L 110.466067 87.839289 
L 112.137131 87.839289 
L 112.137131 76.049837 
L 113.808195 76.049837 
L 113.808195 59.134535 
L 115.479259 59.134535 
L 115.479259 65.798139 
L 117.150323 65.798139 
L 117.150323 50.420592 
L 118.821388 50.420592 
L 118.821388 59.64712 
L 120.492452 59.64712 
L 120.492452 55.033856 
L 122.163516 55.033856 
L 122.163516 41.962941 
L 123.834581 41.962941 
L 123.834581 50.676884 
L 125.505645 50.676884 
L 125.505645 48.370252 
L 127.176709 48.370252 
L 127.176709 42.731818 
L 130.518838 42.731818 
L 130.518838 54.008686 
L 132.189902 54.008686 
L 132.189902 49.908007 
L 133.860966 49.908007 
L 133.860966 60.159705 
L 135.53203 60.159705 
L 135.53203 62.210045 
L 137.203095 62.210045 
L 137.203095 51.958347 
L 138.874159 51.958347 
L 138.874159 70.15511 
L 140.545223 70.15511 
L 140.545223 65.798139 
L 142.216287 65.798139 
L 142.216287 76.306129 
L 143.887352 76.306129 
L 143.887352 67.592186 
L 145.558416 67.592186 
L 145.558416 69.898818 
L 147.22948 69.898818 
L 147.22948 94.502893 
L 148.900544 94.502893 
L 148.900544 67.592186 
L 150.571609 67.592186 
L 150.571609 84.507487 
L 152.242673 84.507487 
L 152.242673 90.658506 
L 153.913737 90.658506 
L 153.913737 88.351874 
L 155.584801 88.351874 
L 155.584801 91.939968 
L 157.255866 91.939968 
L 157.255866 93.221431 
L 158.92693 93.221431 
L 158.92693 80.406808 
L 160.597994 80.406808 
L 160.597994 80.150516 
L 162.269058 80.150516 
L 162.269058 89.120752 
L 163.940123 89.120752 
L 163.940123 87.326704 
L 165.611187 87.326704 
L 165.611187 90.145921 
L 167.282251 90.145921 
L 167.282251 89.377044 
L 168.953315 89.377044 
L 168.953315 82.71344 
L 170.62438 82.71344 
L 170.62438 92.965138 
L 172.295444 92.965138 
L 172.295444 94.2466 
L 173.966508 94.2466 
L 173.966508 88.351874 
L 175.637572 88.351874 
L 175.637572 95.015478 
L 177.308637 95.015478 
L 177.308637 91.427384 
L 178.979701 91.427384 
L 178.979701 96.553233 
L 180.650765 96.553233 
L 180.650765 102.447959 
L 182.321829 102.447959 
L 182.321829 95.27177 
L 183.992894 95.27177 
L 183.992894 86.557827 
L 185.663958 86.557827 
L 185.663958 105.779761 
L 187.335022 105.779761 
L 187.335022 98.603572 
L 189.006086 98.603572 
L 189.006086 108.086393 
L 190.677151 108.086393 
L 190.677151 112.187072 
L 192.348215 112.187072 
L 192.348215 118.338091 
L 194.019279 118.338091 
L 194.019279 120.38843 
L 195.690343 120.38843 
L 195.690343 130.127543 
L 197.361408 130.127543 
L 197.361408 119.875845 
L 199.032472 119.875845 
L 199.032472 134.484515 
L 200.703536 134.484515 
L 200.703536 135.765977 
L 202.3746 135.765977 
L 202.3746 157.03825 
L 204.045665 157.03825 
L 204.045665 168.57141 
L 205.716729 168.57141 
L 205.716729 160.882637 
L 207.387793 160.882637 
L 207.387793 183.18008 
L 209.058857 183.18008 
L 209.058857 185.743004 
L 210.729922 185.743004 
L 210.729922 189.331099 
L 212.400986 189.331099 
L 212.400986 200.095381 
L 214.07205 200.095381 
L 214.07205 205.22123 
L 215.743114 205.22123 
L 215.743114 217.266975 
L 217.414179 217.266975 
L 217.414179 216.498098 
L 219.085243 216.498098 
L 219.085243 222.649117 
L 220.756307 222.649117 
L 220.756307 230.33789 
L 222.427371 230.33789 
L 222.427371 236.488909 
L 224.098435 236.488909 
L 224.098435 239.820711 
L 225.7695 239.820711 
L 225.7695 242.127343 
L 227.440564 242.127343 
L 227.440564 245.202852 
L 229.111628 245.202852 
L 229.111628 240.845881 
L 230.782693 240.845881 
L 230.782693 231.619353 
L 232.453757 231.619353 
L 232.453757 228.543843 
L 234.124821 228.543843 
L 234.124821 219.061023 
L 235.795885 219.061023 
L 235.795885 216.498098 
L 237.466949 216.498098 
L 237.466949 202.145721 
L 239.138014 202.145721 
L 239.138014 191.381438 
L 240.809078 191.381438 
L 240.809078 194.71324 
L 242.480142 194.71324 
L 242.480142 195.73841 
L 244.151207 195.73841 
L 244.151207 190.099976 
L 245.822271 190.099976 
L 245.822271 176.516476 
L 247.493335 176.516476 
L 247.493335 181.898618 
L 249.164399 181.898618 
L 249.164399 174.722429 
L 250.835464 174.722429 
L 250.835464 162.932977 
L 252.506528 162.932977 
L 252.506528 174.209844 
L 254.177592 174.209844 
L 254.177592 169.083995 
L 255.848656 169.083995 
L 255.848656 159.344882 
L 257.51972 159.344882 
L 257.51972 152.424986 
L 259.190785 152.424986 
L 259.190785 145.761383 
L 260.861849 145.761383 
L 260.861849 155.244203 
L 262.532913 155.244203 
L 262.532913 149.093184 
L 264.203978 149.093184 
L 264.203978 134.484515 
L 265.875042 134.484515 
L 265.875042 128.077204 
L 267.546106 128.077204 
L 267.546106 135.253392 
L 269.21717 135.253392 
L 269.21717 134.484515 
L 270.888234 134.484515 
L 270.888234 126.283156 
L 272.559299 126.283156 
L 272.559299 129.358666 
L 274.230363 129.358666 
L 274.230363 120.132138 
L 275.901427 120.132138 
L 275.901427 116.800336 
L 277.572492 116.800336 
L 277.572492 120.644723 
L 279.243556 120.644723 
L 279.243556 113.981119 
L 280.91462 113.981119 
L 280.91462 122.695062 
L 282.585684 122.695062 
L 282.585684 107.8301 
L 284.256749 107.8301 
L 284.256749 116.544043 
L 285.927813 116.544043 
L 285.927813 115.262581 
L 287.598877 115.262581 
L 287.598877 103.216836 
L 289.269941 103.216836 
L 289.269941 121.4136 
L 290.941006 121.4136 
L 290.941006 124.232817 
L 292.61207 124.232817 
L 292.61207 124.489109 
L 294.283134 124.489109 
L 294.283134 124.232817 
L 295.954198 124.232817 
L 295.954198 138.328902 
L 297.625263 138.328902 
L 297.625263 128.589789 
L 299.296327 128.589789 
L 299.296327 139.610364 
L 300.967391 139.610364 
L 300.967391 140.891826 
L 302.638455 140.891826 
L 302.638455 132.690468 
L 304.309519 132.690468 
L 304.309519 144.736213 
L 305.980584 144.736213 
L 305.980584 131.92159 
L 307.651648 131.92159 
L 307.651648 135.509685 
L 309.322712 135.509685 
L 309.322712 140.891826 
L 310.993777 140.891826 
L 310.993777 137.047439 
L 312.664841 137.047439 
L 312.664841 146.273967 
L 314.335905 146.273967 
L 314.335905 153.962741 
L 316.006969 153.962741 
L 316.006969 161.395222 
L 317.678033 161.395222 
L 317.678033 148.836892 
L 319.349098 148.836892 
L 319.349098 151.143524 
L 321.020162 151.143524 
L 321.020162 165.239609 
L 322.691226 165.239609 
L 322.691226 155.500496 
L 324.362291 155.500496 
L 324.362291 163.189269 
L 326.033355 163.189269 
L 326.033355 160.370052 
L 327.704419 160.370052 
L 327.704419 158.832297 
L 329.375483 158.832297 
L 329.375483 163.701854 
L 331.046547 163.701854 
L 331.046547 161.138929 
L 332.717612 161.138929 
L 332.717612 171.390627 
L 334.388676 171.390627 
L 334.388676 173.440967 
L 336.05974 173.440967 
L 336.05974 173.184674 
L 337.730805 173.184674 
L 337.730805 168.57141 
L 339.401869 168.57141 
L 339.401869 175.235014 
L 341.072933 175.235014 
L 341.072933 180.873448 
L 342.743997 180.873448 
L 342.743997 176.003891 
L 344.415062 176.003891 
L 344.415062 189.331099 
L 346.086126 189.331099 
L 346.086126 176.772769 
L 347.75719 176.772769 
L 347.75719 196.250995 
L 349.428254 196.250995 
L 349.428254 184.461542 
L 351.099318 184.461542 
L 351.099318 199.070212 
L 352.770383 199.070212 
L 352.770383 188.818514 
L 354.441447 188.818514 
L 354.441447 204.708646 
L 356.112511 204.708646 
L 356.112511 198.045042 
L 357.783576 198.045042 
L 357.783576 206.2464 
L 359.45464 206.2464 
L 359.45464 212.397419 
L 361.125704 212.397419 
L 361.125704 213.166296 
L 362.796768 213.166296 
L 362.796768 215.985513 
L 364.467832 215.985513 
L 364.467832 215.216636 
L 366.138897 215.216636 
L 366.138897 225.212041 
L 367.809961 225.212041 
L 367.809961 226.749796 
L 369.481025 226.749796 
L 369.481025 231.619353 
L 371.15209 231.619353 
L 371.15209 224.699456 
L 372.823154 224.699456 
L 372.823154 235.463739 
L 374.494218 235.463739 
L 374.494218 235.720032 
L 376.165282 235.720032 
L 376.165282 237.001494 
L 377.836346 237.001494 
L 377.836346 240.077003 
L 379.507411 240.077003 
L 379.507411 242.89622 
L 381.178475 242.89622 
L 381.178475 242.639928 
L 382.849539 242.639928 
L 382.849539 243.92139 
L 384.520603 243.92139 
L 384.520603 244.177683 
L 386.191668 244.177683 
L 386.191668 245.715437 
L 387.862732 245.715437 
L 387.862732 246.228022 
L 389.533796 246.228022 
L 389.533796 246.484315 
L 397.889117 246.484315 
L 397.889117 246.484315 
" clip-path="url(#p5ef56dc79d)" style="fill: none; stroke: #ff7f0e; stroke-width: 1.5; stroke-linecap: square"/>
   </g>
   <g id="patch_3">
    <path d="M 46.965625 257.158895 
L 46.965625 22.318125 
" style="fill: none; stroke: #000000; stroke-width: 0.8; stroke-linejoin: miter; stroke-linecap: square"/>
   </g>
   <g id="patch_4">
    <path d="M 414.59976 257.158895 
L 414.59976 22.318125 
" style="fill: none; stroke: #000000; stroke-width: 0.8; stroke-linejoin: miter; stroke-linecap: square"/>
   </g>
   <g id="patch_5">
    <path d="M 46.965625 257.158895 
L 414.59976 257.158895 
" style="fill: none; stroke: #000000; stroke-width: 0.8; stroke-linejoin: miter; stroke-linecap: square"/>
   </g>
   <g id="patch_6">
    <path d="M 46.965625 22.318125 
L 414.59976 22.318125 
" style="fill: none; stroke: #000000; stroke-width: 0.8; stroke-linejoin: miter; stroke-linecap: square"/>
   </g>
   <g id="text_16">
    <!-- Pixel 1 -->
    <g transform="translate(211.18613 16.318125) scale(0.12 -0.12)">
     <defs>
      <path id="DejaVuSans-50" d="M 1259 4147 
L 1259 2394 
L 2053 2394 
Q 2494 2394 2734 2622 
Q 2975 2850 2975 3272 
Q 2975 3691 2734 3919 
Q 2494 4147 2053 4147 
L 1259 4147 
z
M 628 4666 
L 2053 4666 
Q 2838 4666 3239 4311 
Q 3641 3956 3641 3272 
Q 3641 2581 3239 2228 
Q 2838 1875 2053 1875 
L 1259 1875 
L 1259 0 
L 628 0 
L 628 4666 
z
" transform="scale(0.015625)"/>
      <path id="DejaVuSans-69" d="M 603 3500 
L 1178 3500 
L 1178 0 
L 603 0 
L 603 3500 
z
M 603 4863 
L 1178 4863 
L 1178 4134 
L 603 4134 
L 603 4863 
z
" transform="scale(0.015625)"/>
      <path id="DejaVuSans-78" d="M 3513 3500 
L 2247 1797 
L 3578 0 
L 2900 0 
L 1881 1375 
L 863 0 
L 184 0 
L 1544 1831 
L 300 3500 
L 978 3500 
L 1906 2253 
L 2834 3500 
L 3513 3500 
z
" transform="scale(0.015625)"/>
     </defs>
     <use xlink:href="#DejaVuSans-50"/>
     <use xlink:href="#DejaVuSans-69" transform="translate(58.052734 0)"/>
     <use xlink:href="#DejaVuSans-78" transform="translate(85.835938 0)"/>
     <use xlink:href="#DejaVuSans-65" transform="translate(141.890625 0)"/>
     <use xlink:href="#DejaVuSans-6c" transform="translate(203.414062 0)"/>
     <use xlink:href="#DejaVuSans-20" transform="translate(231.197266 0)"/>
     <use xlink:href="#DejaVuSans-31" transform="translate(262.984375 0)"/>
    </g>
   </g>
   <g id="legend_1">
    <g id="patch_7">
     <path d="M 310.596635 59.9525 
L 407.59976 59.9525 
Q 409.59976 59.9525 409.59976 57.9525 
L 409.59976 29.318125 
Q 409.59976 27.318125 407.59976 27.318125 
L 310.596635 27.318125 
Q 308.596635 27.318125 308.596635 29.318125 
L 308.596635 57.9525 
Q 308.596635 59.9525 310.596635 59.9525 
z
" style="fill: #ffffff; opacity: 0.8; stroke: #cccccc; stroke-linejoin: miter"/>
    </g>
    <g id="line2d_16">
     <path d="M 312.596635 35.416562 
L 312.596635 35.416562 
L 322.596635 35.416562 
L 322.596635 35.416562 
L 332.596635 35.416562 
" style="fill: none; stroke: #1f77b4; stroke-width: 1.5; stroke-linecap: square"/>
    </g>
    <g id="text_17">
     <!-- wfm -->
     <g transform="translate(340.596635 38.916562) scale(0.1 -0.1)">
      <defs>
       <path id="DejaVuSans-66" d="M 2375 4863 
L 2375 4384 
L 1825 4384 
Q 1516 4384 1395 4259 
Q 1275 4134 1275 3809 
L 1275 3500 
L 2222 3500 
L 2222 3053 
L 1275 3053 
L 1275 0 
L 697 0 
L 697 3053 
L 147 3053 
L 147 3500 
L 697 3500 
L 697 3744 
Q 697 4328 969 4595 
Q 1241 4863 1831 4863 
L 2375 4863 
z
" transform="scale(0.015625)"/>
       <path id="DejaVuSans-6d" d="M 3328 2828 
Q 3544 3216 3844 3400 
Q 4144 3584 4550 3584 
Q 5097 3584 5394 3201 
Q 5691 2819 5691 2113 
L 5691 0 
L 5113 0 
L 5113 2094 
Q 5113 2597 4934 2840 
Q 4756 3084 4391 3084 
Q 3944 3084 3684 2787 
Q 3425 2491 3425 1978 
L 3425 0 
L 2847 0 
L 2847 2094 
Q 2847 2600 2669 2842 
Q 2491 3084 2119 3084 
Q 1678 3084 1418 2786 
Q 1159 2488 1159 1978 
L 1159 0 
L 581 0 
L 581 3500 
L 1159 3500 
L 1159 2956 
Q 1356 3278 1631 3431 
Q 1906 3584 2284 3584 
Q 2666 3584 2933 3390 
Q 3200 3197 3328 2828 
z
" transform="scale(0.015625)"/>
      </defs>
      <use xlink:href="#DejaVuSans-77"/>
      <use xlink:href="#DejaVuSans-66" transform="translate(81.787109 0)"/>
      <use xlink:href="#DejaVuSans-6d" transform="translate(116.992188 0)"/>
     </g>
    </g>
    <g id="line2d_17">
     <path d="M 312.596635 50.094687 
L 312.596635 50.094687 
L 322.596635 50.094687 
L 322.596635 50.094687 
L 332.596635 50.094687 
" style="fill: none; stroke: #ff7f0e; stroke-width: 1.5; stroke-linecap: square"/>
    </g>
    <g id="text_18">
     <!-- ground_truth -->
     <g transform="translate(340.596635 53.594687) scale(0.1 -0.1)">
      <defs>
       <path id="DejaVuSans-72" d="M 2631 2963 
Q 2534 3019 2420 3045 
Q 2306 3072 2169 3072 
Q 1681 3072 1420 2755 
Q 1159 2438 1159 1844 
L 1159 0 
L 581 0 
L 581 3500 
L 1159 3500 
L 1159 2956 
Q 1341 3275 1631 3429 
Q 1922 3584 2338 3584 
Q 2397 3584 2469 3576 
Q 2541 3569 2628 3553 
L 2631 2963 
z
" transform="scale(0.015625)"/>
       <path id="DejaVuSans-64" d="M 2906 2969 
L 2906 4863 
L 3481 4863 
L 3481 0 
L 2906 0 
L 2906 525 
Q 2725 213 2448 61 
Q 2172 -91 1784 -91 
Q 1150 -91 751 415 
Q 353 922 353 1747 
Q 353 2572 751 3078 
Q 1150 3584 1784 3584 
Q 2172 3584 2448 3432 
Q 2725 3281 2906 2969 
z
M 947 1747 
Q 947 1113 1208 752 
Q 1469 391 1925 391 
Q 2381 391 2643 752 
Q 2906 1113 2906 1747 
Q 2906 2381 2643 2742 
Q 2381 3103 1925 3103 
Q 1469 3103 1208 2742 
Q 947 2381 947 1747 
z
" transform="scale(0.015625)"/>
       <path id="DejaVuSans-5f" d="M 3263 -1063 
L 3263 -1509 
L -63 -1509 
L -63 -1063 
L 3263 -1063 
z
" transform="scale(0.015625)"/>
      </defs>
      <use xlink:href="#DejaVuSans-67"/>
      <use xlink:href="#DejaVuSans-72" transform="translate(63.476562 0)"/>
      <use xlink:href="#DejaVuSans-6f" transform="translate(102.339844 0)"/>
      <use xlink:href="#DejaVuSans-75" transform="translate(163.521484 0)"/>
      <use xlink:href="#DejaVuSans-6e" transform="translate(226.900391 0)"/>
      <use xlink:href="#DejaVuSans-64" transform="translate(290.279297 0)"/>
      <use xlink:href="#DejaVuSans-5f" transform="translate(353.755859 0)"/>
      <use xlink:href="#DejaVuSans-74" transform="translate(403.755859 0)"/>
      <use xlink:href="#DejaVuSans-72" transform="translate(442.964844 0)"/>
      <use xlink:href="#DejaVuSans-75" transform="translate(484.078125 0)"/>
      <use xlink:href="#DejaVuSans-74" transform="translate(547.457031 0)"/>
      <use xlink:href="#DejaVuSans-68" transform="translate(586.666016 0)"/>
     </g>
    </g>
   </g>
  </g>
  <g id="axes_2">
   <g id="patch_8">
    <path d="M 497.565385 257.158895 
L 865.19952 257.158895 
L 865.19952 22.318125 
L 497.565385 22.318125 
z
" style="fill: #ffffff"/>
   </g>
   <g id="matplotlib.axis_3">
    <g id="xtick_9">
     <g id="line2d_18">
      <g>
       <use xlink:href="#m0135c54d5d" x="531.866178" y="257.158895" style="stroke: #000000; stroke-width: 0.8"/>
      </g>
     </g>
     <g id="text_19">
      <!-- 1.0 -->
      <g transform="translate(523.914615 271.757332) scale(0.1 -0.1)">
       <use xlink:href="#DejaVuSans-31"/>
       <use xlink:href="#DejaVuSans-2e" transform="translate(63.623047 0)"/>
       <use xlink:href="#DejaVuSans-30" transform="translate(95.410156 0)"/>
      </g>
     </g>
    </g>
    <g id="xtick_10">
     <g id="line2d_19">
      <g>
       <use xlink:href="#m0135c54d5d" x="575.841553" y="257.158895" style="stroke: #000000; stroke-width: 0.8"/>
      </g>
     </g>
     <g id="text_20">
      <!-- 1.5 -->
      <g transform="translate(567.88999 271.757332) scale(0.1 -0.1)">
       <use xlink:href="#DejaVuSans-31"/>
       <use xlink:href="#DejaVuSans-2e" transform="translate(63.623047 0)"/>
       <use xlink:href="#DejaVuSans-35" transform="translate(95.410156 0)"/>
      </g>
     </g>
    </g>
    <g id="xtick_11">
     <g id="line2d_20">
      <g>
       <use xlink:href="#m0135c54d5d" x="619.816928" y="257.158895" style="stroke: #000000; stroke-width: 0.8"/>
      </g>
     </g>
     <g id="text_21">
      <!-- 2.0 -->
      <g transform="translate(611.865365 271.757332) scale(0.1 -0.1)">
       <use xlink:href="#DejaVuSans-32"/>
       <use xlink:href="#DejaVuSans-2e" transform="translate(63.623047 0)"/>
       <use xlink:href="#DejaVuSans-30" transform="translate(95.410156 0)"/>
      </g>
     </g>
    </g>
    <g id="xtick_12">
     <g id="line2d_21">
      <g>
       <use xlink:href="#m0135c54d5d" x="663.792303" y="257.158895" style="stroke: #000000; stroke-width: 0.8"/>
      </g>
     </g>
     <g id="text_22">
      <!-- 2.5 -->
      <g transform="translate(655.84074 271.757332) scale(0.1 -0.1)">
       <use xlink:href="#DejaVuSans-32"/>
       <use xlink:href="#DejaVuSans-2e" transform="translate(63.623047 0)"/>
       <use xlink:href="#DejaVuSans-35" transform="translate(95.410156 0)"/>
      </g>
     </g>
    </g>
    <g id="xtick_13">
     <g id="line2d_22">
      <g>
       <use xlink:href="#m0135c54d5d" x="707.767677" y="257.158895" style="stroke: #000000; stroke-width: 0.8"/>
      </g>
     </g>
     <g id="text_23">
      <!-- 3.0 -->
      <g transform="translate(699.816115 271.757332) scale(0.1 -0.1)">
       <use xlink:href="#DejaVuSans-33"/>
       <use xlink:href="#DejaVuSans-2e" transform="translate(63.623047 0)"/>
       <use xlink:href="#DejaVuSans-30" transform="translate(95.410156 0)"/>
      </g>
     </g>
    </g>
    <g id="xtick_14">
     <g id="line2d_23">
      <g>
       <use xlink:href="#m0135c54d5d" x="751.743052" y="257.158895" style="stroke: #000000; stroke-width: 0.8"/>
      </g>
     </g>
     <g id="text_24">
      <!-- 3.5 -->
      <g transform="translate(743.79149 271.757332) scale(0.1 -0.1)">
       <use xlink:href="#DejaVuSans-33"/>
       <use xlink:href="#DejaVuSans-2e" transform="translate(63.623047 0)"/>
       <use xlink:href="#DejaVuSans-35" transform="translate(95.410156 0)"/>
      </g>
     </g>
    </g>
    <g id="xtick_15">
     <g id="line2d_24">
      <g>
       <use xlink:href="#m0135c54d5d" x="795.718427" y="257.158895" style="stroke: #000000; stroke-width: 0.8"/>
      </g>
     </g>
     <g id="text_25">
      <!-- 4.0 -->
      <g transform="translate(787.766865 271.757332) scale(0.1 -0.1)">
       <use xlink:href="#DejaVuSans-34"/>
       <use xlink:href="#DejaVuSans-2e" transform="translate(63.623047 0)"/>
       <use xlink:href="#DejaVuSans-30" transform="translate(95.410156 0)"/>
      </g>
     </g>
    </g>
    <g id="xtick_16">
     <g id="line2d_25">
      <g>
       <use xlink:href="#m0135c54d5d" x="839.693802" y="257.158895" style="stroke: #000000; stroke-width: 0.8"/>
      </g>
     </g>
     <g id="text_26">
      <!-- 4.5 -->
      <g transform="translate(831.74224 271.757332) scale(0.1 -0.1)">
       <use xlink:href="#DejaVuSans-34"/>
       <use xlink:href="#DejaVuSans-2e" transform="translate(63.623047 0)"/>
       <use xlink:href="#DejaVuSans-35" transform="translate(95.410156 0)"/>
      </g>
     </g>
    </g>
    <g id="text_27">
     <!-- wavelength [Å] -->
     <g transform="translate(643.344952 287.119832) scale(0.1 -0.1)">
      <use xlink:href="#DejaVuSans-77"/>
      <use xlink:href="#DejaVuSans-61" transform="translate(81.787109 0)"/>
      <use xlink:href="#DejaVuSans-76" transform="translate(143.066406 0)"/>
      <use xlink:href="#DejaVuSans-65" transform="translate(202.246094 0)"/>
      <use xlink:href="#DejaVuSans-6c" transform="translate(263.769531 0)"/>
      <use xlink:href="#DejaVuSans-65" transform="translate(291.552734 0)"/>
      <use xlink:href="#DejaVuSans-6e" transform="translate(353.076172 0)"/>
      <use xlink:href="#DejaVuSans-67" transform="translate(416.455078 0)"/>
      <use xlink:href="#DejaVuSans-74" transform="translate(479.931641 0)"/>
      <use xlink:href="#DejaVuSans-68" transform="translate(519.140625 0)"/>
      <use xlink:href="#DejaVuSans-20" transform="translate(582.519531 0)"/>
      <use xlink:href="#DejaVuSans-5b" transform="translate(614.306641 0)"/>
      <use xlink:href="#DejaVuSans-c5" transform="translate(653.320312 0)"/>
      <use xlink:href="#DejaVuSans-5d" transform="translate(721.728516 0)"/>
     </g>
    </g>
   </g>
   <g id="matplotlib.axis_4">
    <g id="ytick_6">
     <g id="line2d_26">
      <g>
       <use xlink:href="#md618a09533" x="497.565385" y="246.484315" style="stroke: #000000; stroke-width: 0.8"/>
      </g>
     </g>
     <g id="text_28">
      <!-- 0 -->
      <g transform="translate(484.202885 250.283533) scale(0.1 -0.1)">
       <use xlink:href="#DejaVuSans-30"/>
      </g>
     </g>
    </g>
    <g id="ytick_7">
     <g id="line2d_27">
      <g>
       <use xlink:href="#md618a09533" x="497.565385" y="194.476614" style="stroke: #000000; stroke-width: 0.8"/>
      </g>
     </g>
     <g id="text_29">
      <!-- 200 -->
      <g transform="translate(471.477885 198.275833) scale(0.1 -0.1)">
       <use xlink:href="#DejaVuSans-32"/>
       <use xlink:href="#DejaVuSans-30" transform="translate(63.623047 0)"/>
       <use xlink:href="#DejaVuSans-30" transform="translate(127.246094 0)"/>
      </g>
     </g>
    </g>
    <g id="ytick_8">
     <g id="line2d_28">
      <g>
       <use xlink:href="#md618a09533" x="497.565385" y="142.468914" style="stroke: #000000; stroke-width: 0.8"/>
      </g>
     </g>
     <g id="text_30">
      <!-- 400 -->
      <g transform="translate(471.477885 146.268133) scale(0.1 -0.1)">
       <use xlink:href="#DejaVuSans-34"/>
       <use xlink:href="#DejaVuSans-30" transform="translate(63.623047 0)"/>
       <use xlink:href="#DejaVuSans-30" transform="translate(127.246094 0)"/>
      </g>
     </g>
    </g>
    <g id="ytick_9">
     <g id="line2d_29">
      <g>
       <use xlink:href="#md618a09533" x="497.565385" y="90.461214" style="stroke: #000000; stroke-width: 0.8"/>
      </g>
     </g>
     <g id="text_31">
      <!-- 600 -->
      <g transform="translate(471.477885 94.260433) scale(0.1 -0.1)">
       <use xlink:href="#DejaVuSans-36"/>
       <use xlink:href="#DejaVuSans-30" transform="translate(63.623047 0)"/>
       <use xlink:href="#DejaVuSans-30" transform="translate(127.246094 0)"/>
      </g>
     </g>
    </g>
    <g id="ytick_10">
     <g id="line2d_30">
      <g>
       <use xlink:href="#md618a09533" x="497.565385" y="38.453514" style="stroke: #000000; stroke-width: 0.8"/>
      </g>
     </g>
     <g id="text_32">
      <!-- 800 -->
      <g transform="translate(471.477885 42.252733) scale(0.1 -0.1)">
       <use xlink:href="#DejaVuSans-38"/>
       <use xlink:href="#DejaVuSans-30" transform="translate(63.623047 0)"/>
       <use xlink:href="#DejaVuSans-30" transform="translate(127.246094 0)"/>
      </g>
     </g>
    </g>
    <g id="text_33">
     <!-- [counts] -->
     <g transform="translate(465.398198 160.35101) rotate(-90) scale(0.1 -0.1)">
      <use xlink:href="#DejaVuSans-5b"/>
      <use xlink:href="#DejaVuSans-63" transform="translate(39.013672 0)"/>
      <use xlink:href="#DejaVuSans-6f" transform="translate(93.994141 0)"/>
      <use xlink:href="#DejaVuSans-75" transform="translate(155.175781 0)"/>
      <use xlink:href="#DejaVuSans-6e" transform="translate(218.554688 0)"/>
      <use xlink:href="#DejaVuSans-74" transform="translate(281.933594 0)"/>
      <use xlink:href="#DejaVuSans-73" transform="translate(321.142578 0)"/>
      <use xlink:href="#DejaVuSans-5d" transform="translate(373.242188 0)"/>
     </g>
    </g>
   </g>
   <g id="line2d_31">
    <path d="M 514.276028 246.484315 
L 522.631349 246.484315 
L 522.631349 245.704199 
L 524.302413 245.704199 
L 524.302413 236.86289 
L 525.973477 236.86289 
L 525.973477 230.101889 
L 527.644542 230.101889 
L 527.644542 222.040695 
L 529.315606 222.040695 
L 529.315606 212.939348 
L 530.98667 212.939348 
L 530.98667 207.478539 
L 532.657734 207.478539 
L 532.657734 199.937423 
L 534.328799 199.937423 
L 534.328799 196.816961 
L 535.999863 196.816961 
L 535.999863 180.694574 
L 537.670927 180.694574 
L 537.670927 174.713688 
L 539.341991 174.713688 
L 539.341991 172.113303 
L 541.013056 172.113303 
L 541.013056 159.891494 
L 542.68412 159.891494 
L 542.68412 149.229915 
L 544.355184 149.229915 
L 544.355184 146.889569 
L 546.026248 146.889569 
L 546.026248 132.327413 
L 547.697313 132.327413 
L 547.697313 113.604641 
L 549.368377 113.604641 
L 549.368377 118.805411 
L 551.039441 118.805411 
L 551.039441 119.585526 
L 552.710505 119.585526 
L 552.710505 102.943062 
L 554.38157 102.943062 
L 554.38157 96.182061 
L 556.052634 96.182061 
L 556.052634 105.543447 
L 557.723698 105.543447 
L 557.723698 103.203101 
L 559.394762 103.203101 
L 559.394762 85.780521 
L 561.065827 85.780521 
L 561.065827 85.520483 
L 562.736891 85.520483 
L 562.736891 68.878019 
L 564.407955 68.878019 
L 564.407955 55.616055 
L 566.079019 55.616055 
L 566.079019 59.516633 
L 567.750084 59.516633 
L 567.750084 61.336902 
L 569.421148 61.336902 
L 569.421148 41.834014 
L 571.092212 41.834014 
L 571.092212 60.03671 
L 572.763276 60.03671 
L 572.763276 32.992705 
L 574.434341 32.992705 
L 574.434341 55.616055 
L 576.105405 55.616055 
L 576.105405 39.753706 
L 579.447533 39.753706 
L 579.447533 42.094053 
L 581.118598 42.094053 
L 581.118598 50.415285 
L 582.789662 50.415285 
L 582.789662 44.694438 
L 584.460726 44.694438 
L 584.460726 61.336902 
L 586.13179 61.336902 
L 586.13179 52.495593 
L 587.802855 52.495593 
L 587.802855 53.275709 
L 589.473919 53.275709 
L 589.473919 66.277634 
L 591.144983 66.277634 
L 591.144983 70.178211 
L 592.816047 70.178211 
L 592.816047 77.979366 
L 594.487112 77.979366 
L 594.487112 64.717403 
L 596.158176 64.717403 
L 596.158176 64.457364 
L 597.82924 64.457364 
L 597.82924 81.619905 
L 599.500304 81.619905 
L 599.500304 70.178211 
L 601.171369 70.178211 
L 601.171369 83.960252 
L 602.842433 83.960252 
L 602.842433 76.939212 
L 604.513497 76.939212 
L 604.513497 80.059674 
L 606.184561 80.059674 
L 606.184561 105.02337 
L 607.855626 105.02337 
L 607.855626 85.260444 
L 609.52669 85.260444 
L 609.52669 76.419135 
L 611.197754 76.419135 
L 611.197754 89.941137 
L 612.868818 89.941137 
L 612.868818 81.099828 
L 614.539882 81.099828 
L 614.539882 77.979366 
L 616.210947 77.979366 
L 616.210947 100.602716 
L 617.882011 100.602716 
L 617.882011 74.598866 
L 619.553075 74.598866 
L 619.553075 81.879944 
L 621.22414 81.879944 
L 621.22414 99.562562 
L 622.895204 99.562562 
L 622.895204 89.941137 
L 624.566268 89.941137 
L 624.566268 85.520483 
L 626.237332 85.520483 
L 626.237332 90.721253 
L 627.908397 90.721253 
L 627.908397 87.860829 
L 629.579461 87.860829 
L 629.579461 92.281484 
L 631.250525 92.281484 
L 631.250525 105.283409 
L 632.921589 105.283409 
L 632.921589 93.321638 
L 634.592654 93.321638 
L 634.592654 90.201176 
L 636.263718 90.201176 
L 636.263718 90.981291 
L 637.934782 90.981291 
L 637.934782 98.782446 
L 639.605846 98.782446 
L 639.605846 102.943062 
L 641.27691 102.943062 
L 641.27691 115.944987 
L 642.947975 115.944987 
L 642.947975 113.084564 
L 644.619039 113.084564 
L 644.619039 124.526258 
L 646.290103 124.526258 
L 646.290103 120.885719 
L 647.961168 120.885719 
L 647.961168 128.426835 
L 649.632232 128.426835 
L 649.632232 122.44595 
L 651.303296 122.44595 
L 651.303296 143.509068 
L 652.97436 143.509068 
L 652.97436 158.331263 
L 654.645424 158.331263 
L 654.645424 157.291109 
L 656.316489 157.291109 
L 656.316489 163.011956 
L 657.987553 163.011956 
L 657.987553 181.214651 
L 659.658617 181.214651 
L 659.658617 183.554997 
L 661.329682 183.554997 
L 661.329682 192.136268 
L 663.000746 192.136268 
L 663.000746 197.076999 
L 664.67181 197.076999 
L 664.67181 206.698424 
L 666.342874 206.698424 
L 666.342874 217.620041 
L 668.013938 217.620041 
L 668.013938 212.419271 
L 669.685003 212.419271 
L 669.685003 224.901119 
L 671.356067 224.901119 
L 671.356067 230.621966 
L 673.027131 230.621966 
L 673.027131 235.562698 
L 674.698195 235.562698 
L 674.698195 239.983352 
L 676.36926 239.983352 
L 676.36926 242.06366 
L 678.040324 242.06366 
L 678.040324 245.184122 
L 679.711388 245.184122 
L 679.711388 241.283545 
L 681.382452 241.283545 
L 681.382452 231.922159 
L 683.053517 231.922159 
L 683.053517 227.241465 
L 684.724581 227.241465 
L 684.724581 219.44031 
L 686.395645 219.44031 
L 686.395645 216.05981 
L 688.06671 216.05981 
L 688.06671 204.098039 
L 689.737774 204.098039 
L 689.737774 189.795921 
L 691.408838 189.795921 
L 691.408838 190.05596 
L 693.079902 190.05596 
L 693.079902 194.996691 
L 694.750967 194.996691 
L 694.750967 190.05596 
L 696.422031 190.05596 
L 696.422031 176.793996 
L 698.093095 176.793996 
L 698.093095 178.874304 
L 699.764159 178.874304 
L 699.764159 176.793996 
L 701.435224 176.793996 
L 701.435224 165.352302 
L 703.106288 165.352302 
L 703.106288 166.652495 
L 704.777352 166.652495 
L 704.777352 168.212726 
L 706.448416 168.212726 
L 706.448416 160.411571 
L 708.119481 160.411571 
L 708.119481 149.489954 
L 709.790545 149.489954 
L 709.790545 149.749992 
L 711.461609 149.749992 
L 711.461609 147.929723 
L 713.132673 147.929723 
L 713.132673 148.4498 
L 714.803738 148.4498 
L 714.803738 134.147682 
L 716.474802 134.147682 
L 716.474802 126.866604 
L 718.145866 126.866604 
L 718.145866 132.84749 
L 719.81693 132.84749 
L 719.81693 128.426835 
L 721.487995 128.426835 
L 721.487995 128.946912 
L 723.159059 128.946912 
L 723.159059 126.866604 
L 724.830123 126.866604 
L 724.830123 120.62568 
L 726.501187 120.62568 
L 726.501187 109.704063 
L 728.172252 109.704063 
L 728.172252 116.985141 
L 729.843316 116.985141 
L 729.843316 124.786296 
L 731.51438 124.786296 
L 731.51438 108.923948 
L 733.185444 108.923948 
L 733.185444 109.183986 
L 734.856509 109.183986 
L 734.856509 115.944987 
L 736.527573 115.944987 
L 736.527573 108.923948 
L 738.198637 108.923948 
L 738.198637 107.883794 
L 739.869701 107.883794 
L 739.869701 113.604641 
L 741.540766 113.604641 
L 741.540766 129.466989 
L 743.21183 129.466989 
L 743.21183 113.864679 
L 744.882894 113.864679 
L 744.882894 129.466989 
L 746.553958 129.466989 
L 746.553958 128.166797 
L 748.225023 128.166797 
L 748.225023 137.008106 
L 749.896087 137.008106 
L 749.896087 130.767182 
L 751.567151 130.767182 
L 751.567151 143.769107 
L 753.238215 143.769107 
L 753.238215 125.82645 
L 754.909279 125.82645 
L 754.909279 139.348452 
L 756.580344 139.348452 
L 756.580344 138.828375 
L 758.251408 138.828375 
L 758.251408 136.22799 
L 759.922472 136.22799 
L 759.922472 129.727028 
L 761.593537 129.727028 
L 761.593537 144.809261 
L 763.264601 144.809261 
L 763.264601 142.208876 
L 764.935665 142.208876 
L 764.935665 156.510993 
L 766.606729 156.510993 
L 766.606729 153.130493 
L 768.277793 153.130493 
L 768.277793 151.310223 
L 769.948858 151.310223 
L 769.948858 147.669684 
L 771.619922 147.669684 
L 771.619922 163.271994 
L 773.290986 163.271994 
L 773.290986 159.111378 
L 774.962051 159.111378 
L 774.962051 161.451725 
L 776.633115 161.451725 
L 776.633115 158.071224 
L 779.975243 158.071224 
L 779.975243 155.210801 
L 781.646308 155.210801 
L 781.646308 164.832225 
L 783.317372 164.832225 
L 783.317372 172.63338 
L 784.988436 172.63338 
L 784.988436 171.073149 
L 786.6595 171.073149 
L 786.6595 170.032995 
L 788.330565 170.032995 
L 788.330565 168.992841 
L 790.001629 168.992841 
L 790.001629 170.032995 
L 791.672693 170.032995 
L 791.672693 185.375267 
L 793.343757 185.375267 
L 793.343757 177.314073 
L 795.014822 177.314073 
L 795.014822 184.075074 
L 796.685886 184.075074 
L 796.685886 185.375267 
L 798.35695 185.375267 
L 798.35695 179.134343 
L 800.028014 179.134343 
L 800.028014 184.075074 
L 801.699079 184.075074 
L 801.699079 199.677384 
L 803.370143 199.677384 
L 803.370143 197.076999 
L 805.041207 197.076999 
L 805.041207 196.556922 
L 806.712271 196.556922 
L 806.712271 201.757692 
L 808.383336 201.757692 
L 808.383336 204.098039 
L 810.0544 204.098039 
L 810.0544 208.518693 
L 811.725464 208.518693 
L 811.725464 214.759617 
L 813.396528 214.759617 
L 813.396528 215.019656 
L 815.067593 215.019656 
L 815.067593 218.920233 
L 816.738657 218.920233 
L 816.738657 222.560772 
L 818.409721 222.560772 
L 818.409721 226.201311 
L 820.080785 226.201311 
L 820.080785 229.84185 
L 821.75185 229.84185 
L 821.75185 228.801696 
L 823.422914 228.801696 
L 823.422914 233.48239 
L 825.093978 233.48239 
L 825.093978 235.302659 
L 826.765042 235.302659 
L 826.765042 237.903044 
L 828.436107 237.903044 
L 828.436107 239.463275 
L 830.107171 239.463275 
L 830.107171 243.363853 
L 831.778235 243.363853 
L 831.778235 242.323699 
L 833.449299 242.323699 
L 833.449299 243.88393 
L 835.120363 243.88393 
L 835.120363 244.143968 
L 836.791428 244.143968 
L 836.791428 245.704199 
L 838.462492 245.704199 
L 838.462492 246.224276 
L 840.133556 246.224276 
L 840.133556 246.484315 
L 848.488877 246.484315 
L 848.488877 246.484315 
" clip-path="url(#p1f8b150f0e)" style="fill: none; stroke: #1f77b4; stroke-width: 1.5; stroke-linecap: square"/>
   </g>
   <g id="line2d_32">
    <path d="M 514.276028 246.484315 
L 522.631349 246.484315 
L 522.631349 243.623891 
L 524.302413 243.623891 
L 524.302413 237.122929 
L 525.973477 237.122929 
L 525.973477 231.142043 
L 527.644542 231.142043 
L 527.644542 220.740503 
L 529.315606 220.740503 
L 529.315606 216.579887 
L 530.98667 216.579887 
L 530.98667 206.958462 
L 532.657734 206.958462 
L 532.657734 199.157307 
L 534.328799 199.157307 
L 534.328799 191.096114 
L 535.999863 191.096114 
L 535.999863 180.954612 
L 537.670927 180.954612 
L 537.670927 179.914458 
L 539.341991 179.914458 
L 539.341991 167.43261 
L 541.013056 167.43261 
L 541.013056 163.271994 
L 542.68412 163.271994 
L 542.68412 153.65057 
L 544.355184 153.65057 
L 544.355184 142.468914 
L 546.026248 142.468914 
L 546.026248 128.946912 
L 547.697313 128.946912 
L 547.697313 120.105603 
L 549.368377 120.105603 
L 549.368377 113.604641 
L 551.039441 113.604641 
L 551.039441 119.845565 
L 552.710505 119.845565 
L 552.710505 106.323563 
L 554.38157 106.323563 
L 554.38157 93.841715 
L 556.052634 93.841715 
L 556.052634 108.143832 
L 557.723698 108.143832 
L 557.723698 100.082639 
L 559.394762 100.082639 
L 559.394762 81.359867 
L 561.065827 81.359867 
L 561.065827 85.520483 
L 562.736891 85.520483 
L 562.736891 73.558712 
L 564.407955 73.558712 
L 564.407955 56.396171 
L 566.079019 56.396171 
L 566.079019 63.157172 
L 567.750084 63.157172 
L 567.750084 47.554861 
L 569.421148 47.554861 
L 569.421148 56.916248 
L 571.092212 56.916248 
L 571.092212 52.235555 
L 572.763276 52.235555 
L 572.763276 38.973591 
L 574.434341 38.973591 
L 574.434341 47.8149 
L 576.105405 47.8149 
L 576.105405 45.474553 
L 577.776469 45.474553 
L 577.776469 39.753706 
L 581.118598 39.753706 
L 581.118598 51.195401 
L 582.789662 51.195401 
L 582.789662 47.034784 
L 584.460726 47.034784 
L 584.460726 57.436325 
L 586.13179 57.436325 
L 586.13179 59.516633 
L 587.802855 59.516633 
L 587.802855 49.115092 
L 589.473919 49.115092 
L 589.473919 67.577826 
L 591.144983 67.577826 
L 591.144983 63.157172 
L 592.816047 63.157172 
L 592.816047 73.81875 
L 594.487112 73.81875 
L 594.487112 64.977441 
L 596.158176 64.977441 
L 596.158176 67.317788 
L 597.82924 67.317788 
L 597.82924 92.281484 
L 599.500304 92.281484 
L 599.500304 64.977441 
L 601.171369 64.977441 
L 601.171369 82.139982 
L 602.842433 82.139982 
L 602.842433 88.380906 
L 604.513497 88.380906 
L 604.513497 86.04056 
L 606.184561 86.04056 
L 606.184561 89.681099 
L 607.855626 89.681099 
L 607.855626 90.981291 
L 609.52669 90.981291 
L 609.52669 77.979366 
L 611.197754 77.979366 
L 611.197754 77.719328 
L 612.868818 77.719328 
L 612.868818 86.820675 
L 614.539882 86.820675 
L 614.539882 85.000406 
L 616.210947 85.000406 
L 616.210947 87.860829 
L 617.882011 87.860829 
L 617.882011 87.080714 
L 619.553075 87.080714 
L 619.553075 80.319713 
L 621.22414 80.319713 
L 621.22414 90.721253 
L 622.895204 90.721253 
L 622.895204 92.021445 
L 624.566268 92.021445 
L 624.566268 86.04056 
L 626.237332 86.04056 
L 626.237332 92.801561 
L 627.908397 92.801561 
L 627.908397 89.161022 
L 629.579461 89.161022 
L 629.579461 94.361792 
L 631.250525 94.361792 
L 631.250525 100.342677 
L 632.921589 100.342677 
L 632.921589 93.061599 
L 634.592654 93.061599 
L 634.592654 84.22029 
L 636.263718 84.22029 
L 636.263718 103.723178 
L 637.934782 103.723178 
L 637.934782 96.4421 
L 639.605846 96.4421 
L 639.605846 106.063524 
L 641.27691 106.063524 
L 641.27691 110.22414 
L 642.947975 110.22414 
L 642.947975 116.465064 
L 644.619039 116.465064 
L 644.619039 118.545372 
L 646.290103 118.545372 
L 646.290103 128.426835 
L 647.961168 128.426835 
L 647.961168 118.025295 
L 649.632232 118.025295 
L 649.632232 132.84749 
L 651.303296 132.84749 
L 651.303296 134.147682 
L 652.97436 134.147682 
L 652.97436 155.730878 
L 654.645424 155.730878 
L 654.645424 167.43261 
L 656.316489 167.43261 
L 656.316489 159.631455 
L 657.987553 159.631455 
L 657.987553 182.254805 
L 659.658617 182.254805 
L 659.658617 184.85519 
L 661.329682 184.85519 
L 661.329682 188.495729 
L 663.000746 188.495729 
L 663.000746 199.417346 
L 664.67181 199.417346 
L 664.67181 204.618116 
L 666.342874 204.618116 
L 666.342874 216.839925 
L 668.013938 216.839925 
L 668.013938 216.05981 
L 669.685003 216.05981 
L 669.685003 222.300734 
L 671.356067 222.300734 
L 671.356067 230.101889 
L 673.027131 230.101889 
L 673.027131 236.342813 
L 674.698195 236.342813 
L 674.698195 239.723314 
L 676.36926 239.723314 
L 676.36926 242.06366 
L 678.040324 242.06366 
L 678.040324 245.184122 
L 679.711388 245.184122 
L 679.711388 240.763468 
L 681.382452 240.763468 
L 681.382452 231.402082 
L 683.053517 231.402082 
L 683.053517 228.281619 
L 684.724581 228.281619 
L 684.724581 218.660195 
L 686.395645 218.660195 
L 686.395645 216.05981 
L 688.06671 216.05981 
L 688.06671 201.497654 
L 689.737774 201.497654 
L 689.737774 190.576037 
L 691.408838 190.576037 
L 691.408838 193.956537 
L 693.079902 193.956537 
L 693.079902 194.996691 
L 694.750967 194.996691 
L 694.750967 189.275844 
L 696.422031 189.275844 
L 696.422031 175.493804 
L 698.093095 175.493804 
L 698.093095 180.954612 
L 699.764159 180.954612 
L 699.764159 173.673534 
L 701.435224 173.673534 
L 701.435224 161.711763 
L 703.106288 161.711763 
L 703.106288 173.153457 
L 704.777352 173.153457 
L 704.777352 167.952687 
L 706.448416 167.952687 
L 706.448416 158.071224 
L 708.119481 158.071224 
L 708.119481 151.050185 
L 709.790545 151.050185 
L 709.790545 144.289184 
L 711.461609 144.289184 
L 711.461609 153.910608 
L 713.132673 153.910608 
L 713.132673 147.669684 
L 714.803738 147.669684 
L 714.803738 132.84749 
L 716.474802 132.84749 
L 716.474802 126.346527 
L 718.145866 126.346527 
L 718.145866 133.627605 
L 719.81693 133.627605 
L 719.81693 132.84749 
L 721.487995 132.84749 
L 721.487995 124.526258 
L 723.159059 124.526258 
L 723.159059 127.64672 
L 724.830123 127.64672 
L 724.830123 118.285334 
L 726.501187 118.285334 
L 726.501187 114.904833 
L 728.172252 114.904833 
L 728.172252 118.805411 
L 729.843316 118.805411 
L 729.843316 112.04441 
L 731.51438 112.04441 
L 731.51438 120.885719 
L 733.185444 120.885719 
L 733.185444 105.803486 
L 734.856509 105.803486 
L 734.856509 114.644795 
L 736.527573 114.644795 
L 736.527573 113.344602 
L 738.198637 113.344602 
L 738.198637 101.122793 
L 739.869701 101.122793 
L 739.869701 119.585526 
L 741.540766 119.585526 
L 741.540766 122.44595 
L 743.21183 122.44595 
L 743.21183 122.705988 
L 744.882894 122.705988 
L 744.882894 122.44595 
L 746.553958 122.44595 
L 746.553958 136.748067 
L 748.225023 136.748067 
L 748.225023 126.866604 
L 749.896087 126.866604 
L 749.896087 138.04826 
L 751.567151 138.04826 
L 751.567151 139.348452 
L 753.238215 139.348452 
L 753.238215 131.02722 
L 754.909279 131.02722 
L 754.909279 143.24903 
L 756.580344 143.24903 
L 756.580344 130.247105 
L 758.251408 130.247105 
L 758.251408 133.887644 
L 759.922472 133.887644 
L 759.922472 139.348452 
L 761.593537 139.348452 
L 761.593537 135.447875 
L 763.264601 135.447875 
L 763.264601 144.809261 
L 764.935665 144.809261 
L 764.935665 152.610416 
L 766.606729 152.610416 
L 766.606729 160.151532 
L 768.277793 160.151532 
L 768.277793 147.409646 
L 769.948858 147.409646 
L 769.948858 149.749992 
L 771.619922 149.749992 
L 771.619922 164.05211 
L 773.290986 164.05211 
L 773.290986 154.170647 
L 774.962051 154.170647 
L 774.962051 161.971802 
L 776.633115 161.971802 
L 776.633115 159.111378 
L 778.304179 159.111378 
L 778.304179 157.551147 
L 779.975243 157.551147 
L 779.975243 162.491879 
L 781.646308 162.491879 
L 781.646308 159.891494 
L 783.317372 159.891494 
L 783.317372 170.293034 
L 784.988436 170.293034 
L 784.988436 172.373342 
L 786.6595 172.373342 
L 786.6595 172.113303 
L 788.330565 172.113303 
L 788.330565 167.43261 
L 790.001629 167.43261 
L 790.001629 174.193611 
L 791.672693 174.193611 
L 791.672693 179.914458 
L 793.343757 179.914458 
L 793.343757 174.973727 
L 795.014822 174.973727 
L 795.014822 188.495729 
L 796.685886 188.495729 
L 796.685886 175.753842 
L 798.35695 175.753842 
L 798.35695 195.516768 
L 800.028014 195.516768 
L 800.028014 183.554997 
L 801.699079 183.554997 
L 801.699079 198.377192 
L 803.370143 198.377192 
L 803.370143 187.975652 
L 805.041207 187.975652 
L 805.041207 204.098039 
L 806.712271 204.098039 
L 806.712271 197.337038 
L 808.383336 197.337038 
L 808.383336 205.65827 
L 810.0544 205.65827 
L 810.0544 211.899194 
L 811.725464 211.899194 
L 811.725464 212.679309 
L 813.396528 212.679309 
L 813.396528 215.539733 
L 815.067593 215.539733 
L 815.067593 214.759617 
L 816.738657 214.759617 
L 816.738657 224.901119 
L 818.409721 224.901119 
L 818.409721 226.46135 
L 820.080785 226.46135 
L 820.080785 231.402082 
L 821.75185 231.402082 
L 821.75185 224.381042 
L 823.422914 224.381042 
L 823.422914 235.302659 
L 825.093978 235.302659 
L 825.093978 235.562698 
L 826.765042 235.562698 
L 826.765042 236.86289 
L 828.436107 236.86289 
L 828.436107 239.983352 
L 830.107171 239.983352 
L 830.107171 242.843776 
L 831.778235 242.843776 
L 831.778235 242.583737 
L 833.449299 242.583737 
L 833.449299 243.88393 
L 835.120363 243.88393 
L 835.120363 244.143968 
L 836.791428 244.143968 
L 836.791428 245.704199 
L 838.462492 245.704199 
L 838.462492 246.224276 
L 840.133556 246.224276 
L 840.133556 246.484315 
L 848.488877 246.484315 
L 848.488877 246.484315 
" clip-path="url(#p1f8b150f0e)" style="fill: none; stroke: #ff7f0e; stroke-width: 1.5; stroke-linecap: square"/>
   </g>
   <g id="patch_9">
    <path d="M 497.565385 257.158895 
L 497.565385 22.318125 
" style="fill: none; stroke: #000000; stroke-width: 0.8; stroke-linejoin: miter; stroke-linecap: square"/>
   </g>
   <g id="patch_10">
    <path d="M 865.19952 257.158895 
L 865.19952 22.318125 
" style="fill: none; stroke: #000000; stroke-width: 0.8; stroke-linejoin: miter; stroke-linecap: square"/>
   </g>
   <g id="patch_11">
    <path d="M 497.565385 257.158895 
L 865.19952 257.158895 
" style="fill: none; stroke: #000000; stroke-width: 0.8; stroke-linejoin: miter; stroke-linecap: square"/>
   </g>
   <g id="patch_12">
    <path d="M 497.565385 22.318125 
L 865.19952 22.318125 
" style="fill: none; stroke: #000000; stroke-width: 0.8; stroke-linejoin: miter; stroke-linecap: square"/>
   </g>
   <g id="text_34">
    <!-- Pixel 2 -->
    <g transform="translate(661.78589 16.318125) scale(0.12 -0.12)">
     <use xlink:href="#DejaVuSans-50"/>
     <use xlink:href="#DejaVuSans-69" transform="translate(58.052734 0)"/>
     <use xlink:href="#DejaVuSans-78" transform="translate(85.835938 0)"/>
     <use xlink:href="#DejaVuSans-65" transform="translate(141.890625 0)"/>
     <use xlink:href="#DejaVuSans-6c" transform="translate(203.414062 0)"/>
     <use xlink:href="#DejaVuSans-20" transform="translate(231.197266 0)"/>
     <use xlink:href="#DejaVuSans-32" transform="translate(262.984375 0)"/>
    </g>
   </g>
   <g id="legend_2">
    <g id="patch_13">
     <path d="M 761.196395 59.9525 
L 858.19952 59.9525 
Q 860.19952 59.9525 860.19952 57.9525 
L 860.19952 29.318125 
Q 860.19952 27.318125 858.19952 27.318125 
L 761.196395 27.318125 
Q 759.196395 27.318125 759.196395 29.318125 
L 759.196395 57.9525 
Q 759.196395 59.9525 761.196395 59.9525 
z
" style="fill: #ffffff; opacity: 0.8; stroke: #cccccc; stroke-linejoin: miter"/>
    </g>
    <g id="line2d_33">
     <path d="M 763.196395 35.416562 
L 763.196395 35.416562 
L 773.196395 35.416562 
L 773.196395 35.416562 
L 783.196395 35.416562 
" style="fill: none; stroke: #1f77b4; stroke-width: 1.5; stroke-linecap: square"/>
    </g>
    <g id="text_35">
     <!-- wfm -->
     <g transform="translate(791.196395 38.916562) scale(0.1 -0.1)">
      <use xlink:href="#DejaVuSans-77"/>
      <use xlink:href="#DejaVuSans-66" transform="translate(81.787109 0)"/>
      <use xlink:href="#DejaVuSans-6d" transform="translate(116.992188 0)"/>
     </g>
    </g>
    <g id="line2d_34">
     <path d="M 763.196395 50.094687 
L 763.196395 50.094687 
L 773.196395 50.094687 
L 773.196395 50.094687 
L 783.196395 50.094687 
" style="fill: none; stroke: #ff7f0e; stroke-width: 1.5; stroke-linecap: square"/>
    </g>
    <g id="text_36">
     <!-- ground_truth -->
     <g transform="translate(791.196395 53.594687) scale(0.1 -0.1)">
      <use xlink:href="#DejaVuSans-67"/>
      <use xlink:href="#DejaVuSans-72" transform="translate(63.476562 0)"/>
      <use xlink:href="#DejaVuSans-6f" transform="translate(102.339844 0)"/>
      <use xlink:href="#DejaVuSans-75" transform="translate(163.521484 0)"/>
      <use xlink:href="#DejaVuSans-6e" transform="translate(226.900391 0)"/>
      <use xlink:href="#DejaVuSans-64" transform="translate(290.279297 0)"/>
      <use xlink:href="#DejaVuSans-5f" transform="translate(353.755859 0)"/>
      <use xlink:href="#DejaVuSans-74" transform="translate(403.755859 0)"/>
      <use xlink:href="#DejaVuSans-72" transform="translate(442.964844 0)"/>
      <use xlink:href="#DejaVuSans-75" transform="translate(484.078125 0)"/>
      <use xlink:href="#DejaVuSans-74" transform="translate(547.457031 0)"/>
      <use xlink:href="#DejaVuSans-68" transform="translate(586.666016 0)"/>
     </g>
    </g>
   </g>
  </g>
 </g>
 <defs>
  <clipPath id="p5ef56dc79d">
   <rect x="46.965625" y="22.318125" width="367.634135" height="234.84077"/>
  </clipPath>
  <clipPath id="p1f8b150f0e">
   <rect x="497.565385" y="22.318125" width="367.634135" height="234.84077"/>
  </clipPath>
 </defs>
</svg>
