<?xml version="1.0" encoding="utf-8" standalone="no"?>
<!DOCTYPE svg PUBLIC "-//W3C//DTD SVG 1.1//EN"
  "http://www.w3.org/Graphics/SVG/1.1/DTD/svg11.dtd">
<svg xmlns:xlink="http://www.w3.org/1999/xlink" width="872.39952pt" height="296.39952pt" viewBox="0 0 872.39952 296.39952" xmlns="http://www.w3.org/2000/svg" version="1.1">
 <metadata>
  <rdf:RDF xmlns:dc="http://purl.org/dc/elements/1.1/" xmlns:cc="http://creativecommons.org/ns#" xmlns:rdf="http://www.w3.org/1999/02/22-rdf-syntax-ns#">
   <cc:Work>
    <dc:type rdf:resource="http://purl.org/dc/dcmitype/StillImage"/>
    <dc:date>2026-02-24T15:35:10.778262</dc:date>
    <dc:format>image/svg+xml</dc:format>
    <dc:creator>
     <cc:Agent>
      <dc:title>Matplotlib v3.10.8, https://matplotlib.org/</dc:title>
     </cc:Agent>
    </dc:creator>
   </cc:Work>
  </rdf:RDF>
 </metadata>
 <defs>
  <style type="text/css">*{stroke-linejoin: round; stroke-linecap: butt}</style>
 </defs>
 <g id="figure_1">
  <g id="patch_1">
   <path d="M 0 296.39952 
L 872.39952 296.39952 
L 872.39952 0 
L 0 0 
z
" style="fill: #ffffff"/>
  </g>
  <g id="axes_1">
   <g id="patch_2">
    <path d="M 46.965625 257.158895 
L 414.59976 257.158895 
L 414.59976 22.318125 
L 46.965625 22.318125 
z
" style="fill: #ffffff"/>
   </g>
   <g id="matplotlib.axis_1">
    <g id="xtick_1">
     <g id="line2d_1">
      <defs>
       <path id="ma29cd5483c" d="M 0 0 
L 0 3.5 
" style="stroke: #000000; stroke-width: 0.8"/>
      </defs>
      <g>
       <use xlink:href="#ma29cd5483c" x="81.266418" y="257.158895" style="stroke: #000000; stroke-width: 0.8"/>
      </g>
     </g>
     <g id="text_1">
      <!-- 1.0 -->
      <g transform="translate(73.314855 271.757332) scale(0.1 -0.1)">
       <defs>
        <path id="DejaVuSans-31" d="M 794 531 
L 1825 531 
L 1825 4091 
L 703 3866 
L 703 4441 
L 1819 4666 
L 2450 4666 
L 2450 531 
L 3481 531 
L 3481 0 
L 794 0 
L 794 531 
z
" transform="scale(0.015625)"/>
        <path id="DejaVuSans-2e" d="M 684 794 
L 1344 794 
L 1344 0 
L 684 0 
L 684 794 
z
" transform="scale(0.015625)"/>
        <path id="DejaVuSans-30" d="M 2034 4250 
Q 1547 4250 1301 3770 
Q 1056 3291 1056 2328 
Q 1056 1369 1301 889 
Q 1547 409 2034 409 
Q 2525 409 2770 889 
Q 3016 1369 3016 2328 
Q 3016 3291 2770 3770 
Q 2525 4250 2034 4250 
z
M 2034 4750 
Q 2819 4750 3233 4129 
Q 3647 3509 3647 2328 
Q 3647 1150 3233 529 
Q 2819 -91 2034 -91 
Q 1250 -91 836 529 
Q 422 1150 422 2328 
Q 422 3509 836 4129 
Q 1250 4750 2034 4750 
z
" transform="scale(0.015625)"/>
       </defs>
       <use xlink:href="#DejaVuSans-31"/>
       <use xlink:href="#DejaVuSans-2e" transform="translate(63.623047 0)"/>
       <use xlink:href="#DejaVuSans-30" transform="translate(95.410156 0)"/>
      </g>
     </g>
    </g>
    <g id="xtick_2">
     <g id="line2d_2">
      <g>
       <use xlink:href="#ma29cd5483c" x="125.241793" y="257.158895" style="stroke: #000000; stroke-width: 0.8"/>
      </g>
     </g>
     <g id="text_2">
      <!-- 1.5 -->
      <g transform="translate(117.29023 271.757332) scale(0.1 -0.1)">
       <defs>
        <path id="DejaVuSans-35" d="M 691 4666 
L 3169 4666 
L 3169 4134 
L 1269 4134 
L 1269 2991 
Q 1406 3038 1543 3061 
Q 1681 3084 1819 3084 
Q 2600 3084 3056 2656 
Q 3513 2228 3513 1497 
Q 3513 744 3044 326 
Q 2575 -91 1722 -91 
Q 1428 -91 1123 -41 
Q 819 9 494 109 
L 494 744 
Q 775 591 1075 516 
Q 1375 441 1709 441 
Q 2250 441 2565 725 
Q 2881 1009 2881 1497 
Q 2881 1984 2565 2268 
Q 2250 2553 1709 2553 
Q 1456 2553 1204 2497 
Q 953 2441 691 2322 
L 691 4666 
z
" transform="scale(0.015625)"/>
       </defs>
       <use xlink:href="#DejaVuSans-31"/>
       <use xlink:href="#DejaVuSans-2e" transform="translate(63.623047 0)"/>
       <use xlink:href="#DejaVuSans-35" transform="translate(95.410156 0)"/>
      </g>
     </g>
    </g>
    <g id="xtick_3">
     <g id="line2d_3">
      <g>
       <use xlink:href="#ma29cd5483c" x="169.217168" y="257.158895" style="stroke: #000000; stroke-width: 0.8"/>
      </g>
     </g>
     <g id="text_3">
      <!-- 2.0 -->
      <g transform="translate(161.265605 271.757332) scale(0.1 -0.1)">
       <defs>
        <path id="DejaVuSans-32" d="M 1228 531 
L 3431 531 
L 3431 0 
L 469 0 
L 469 531 
Q 828 903 1448 1529 
Q 2069 2156 2228 2338 
Q 2531 2678 2651 2914 
Q 2772 3150 2772 3378 
Q 2772 3750 2511 3984 
Q 2250 4219 1831 4219 
Q 1534 4219 1204 4116 
Q 875 4013 500 3803 
L 500 4441 
Q 881 4594 1212 4672 
Q 1544 4750 1819 4750 
Q 2544 4750 2975 4387 
Q 3406 4025 3406 3419 
Q 3406 3131 3298 2873 
Q 3191 2616 2906 2266 
Q 2828 2175 2409 1742 
Q 1991 1309 1228 531 
z
" transform="scale(0.015625)"/>
       </defs>
       <use xlink:href="#DejaVuSans-32"/>
       <use xlink:href="#DejaVuSans-2e" transform="translate(63.623047 0)"/>
       <use xlink:href="#DejaVuSans-30" transform="translate(95.410156 0)"/>
      </g>
     </g>
    </g>
    <g id="xtick_4">
     <g id="line2d_4">
      <g>
       <use xlink:href="#ma29cd5483c" x="213.192543" y="257.158895" style="stroke: #000000; stroke-width: 0.8"/>
      </g>
     </g>
     <g id="text_4">
      <!-- 2.5 -->
      <g transform="translate(205.24098 271.757332) scale(0.1 -0.1)">
       <use xlink:href="#DejaVuSans-32"/>
       <use xlink:href="#DejaVuSans-2e" transform="translate(63.623047 0)"/>
       <use xlink:href="#DejaVuSans-35" transform="translate(95.410156 0)"/>
      </g>
     </g>
    </g>
    <g id="xtick_5">
     <g id="line2d_5">
      <g>
       <use xlink:href="#ma29cd5483c" x="257.167918" y="257.158895" style="stroke: #000000; stroke-width: 0.8"/>
      </g>
     </g>
     <g id="text_5">
      <!-- 3.0 -->
      <g transform="translate(249.216355 271.757332) scale(0.1 -0.1)">
       <defs>
        <path id="DejaVuSans-33" d="M 2597 2516 
Q 3050 2419 3304 2112 
Q 3559 1806 3559 1356 
Q 3559 666 3084 287 
Q 2609 -91 1734 -91 
Q 1441 -91 1130 -33 
Q 819 25 488 141 
L 488 750 
Q 750 597 1062 519 
Q 1375 441 1716 441 
Q 2309 441 2620 675 
Q 2931 909 2931 1356 
Q 2931 1769 2642 2001 
Q 2353 2234 1838 2234 
L 1294 2234 
L 1294 2753 
L 1863 2753 
Q 2328 2753 2575 2939 
Q 2822 3125 2822 3475 
Q 2822 3834 2567 4026 
Q 2313 4219 1838 4219 
Q 1578 4219 1281 4162 
Q 984 4106 628 3988 
L 628 4550 
Q 988 4650 1302 4700 
Q 1616 4750 1894 4750 
Q 2613 4750 3031 4423 
Q 3450 4097 3450 3541 
Q 3450 3153 3228 2886 
Q 3006 2619 2597 2516 
z
" transform="scale(0.015625)"/>
       </defs>
       <use xlink:href="#DejaVuSans-33"/>
       <use xlink:href="#DejaVuSans-2e" transform="translate(63.623047 0)"/>
       <use xlink:href="#DejaVuSans-30" transform="translate(95.410156 0)"/>
      </g>
     </g>
    </g>
    <g id="xtick_6">
     <g id="line2d_6">
      <g>
       <use xlink:href="#ma29cd5483c" x="301.143293" y="257.158895" style="stroke: #000000; stroke-width: 0.8"/>
      </g>
     </g>
     <g id="text_6">
      <!-- 3.5 -->
      <g transform="translate(293.19173 271.757332) scale(0.1 -0.1)">
       <use xlink:href="#DejaVuSans-33"/>
       <use xlink:href="#DejaVuSans-2e" transform="translate(63.623047 0)"/>
       <use xlink:href="#DejaVuSans-35" transform="translate(95.410156 0)"/>
      </g>
     </g>
    </g>
    <g id="xtick_7">
     <g id="line2d_7">
      <g>
       <use xlink:href="#ma29cd5483c" x="345.118668" y="257.158895" style="stroke: #000000; stroke-width: 0.8"/>
      </g>
     </g>
     <g id="text_7">
      <!-- 4.0 -->
      <g transform="translate(337.167105 271.757332) scale(0.1 -0.1)">
       <defs>
        <path id="DejaVuSans-34" d="M 2419 4116 
L 825 1625 
L 2419 1625 
L 2419 4116 
z
M 2253 4666 
L 3047 4666 
L 3047 1625 
L 3713 1625 
L 3713 1100 
L 3047 1100 
L 3047 0 
L 2419 0 
L 2419 1100 
L 313 1100 
L 313 1709 
L 2253 4666 
z
" transform="scale(0.015625)"/>
       </defs>
       <use xlink:href="#DejaVuSans-34"/>
       <use xlink:href="#DejaVuSans-2e" transform="translate(63.623047 0)"/>
       <use xlink:href="#DejaVuSans-30" transform="translate(95.410156 0)"/>
      </g>
     </g>
    </g>
    <g id="xtick_8">
     <g id="line2d_8">
      <g>
       <use xlink:href="#ma29cd5483c" x="389.094043" y="257.158895" style="stroke: #000000; stroke-width: 0.8"/>
      </g>
     </g>
     <g id="text_8">
      <!-- 4.5 -->
      <g transform="translate(381.14248 271.757332) scale(0.1 -0.1)">
       <use xlink:href="#DejaVuSans-34"/>
       <use xlink:href="#DejaVuSans-2e" transform="translate(63.623047 0)"/>
       <use xlink:href="#DejaVuSans-35" transform="translate(95.410156 0)"/>
      </g>
     </g>
    </g>
    <g id="text_9">
     <!-- wavelength [Å] -->
     <g transform="translate(192.745193 287.119832) scale(0.1 -0.1)">
      <defs>
       <path id="DejaVuSans-77" d="M 269 3500 
L 844 3500 
L 1563 769 
L 2278 3500 
L 2956 3500 
L 3675 769 
L 4391 3500 
L 4966 3500 
L 4050 0 
L 3372 0 
L 2619 2869 
L 1863 0 
L 1184 0 
L 269 3500 
z
" transform="scale(0.015625)"/>
       <path id="DejaVuSans-61" d="M 2194 1759 
Q 1497 1759 1228 1600 
Q 959 1441 959 1056 
Q 959 750 1161 570 
Q 1363 391 1709 391 
Q 2188 391 2477 730 
Q 2766 1069 2766 1631 
L 2766 1759 
L 2194 1759 
z
M 3341 1997 
L 3341 0 
L 2766 0 
L 2766 531 
Q 2569 213 2275 61 
Q 1981 -91 1556 -91 
Q 1019 -91 701 211 
Q 384 513 384 1019 
Q 384 1609 779 1909 
Q 1175 2209 1959 2209 
L 2766 2209 
L 2766 2266 
Q 2766 2663 2505 2880 
Q 2244 3097 1772 3097 
Q 1472 3097 1187 3025 
Q 903 2953 641 2809 
L 641 3341 
Q 956 3463 1253 3523 
Q 1550 3584 1831 3584 
Q 2591 3584 2966 3190 
Q 3341 2797 3341 1997 
z
" transform="scale(0.015625)"/>
       <path id="DejaVuSans-76" d="M 191 3500 
L 800 3500 
L 1894 563 
L 2988 3500 
L 3597 3500 
L 2284 0 
L 1503 0 
L 191 3500 
z
" transform="scale(0.015625)"/>
       <path id="DejaVuSans-65" d="M 3597 1894 
L 3597 1613 
L 953 1613 
Q 991 1019 1311 708 
Q 1631 397 2203 397 
Q 2534 397 2845 478 
Q 3156 559 3463 722 
L 3463 178 
Q 3153 47 2828 -22 
Q 2503 -91 2169 -91 
Q 1331 -91 842 396 
Q 353 884 353 1716 
Q 353 2575 817 3079 
Q 1281 3584 2069 3584 
Q 2775 3584 3186 3129 
Q 3597 2675 3597 1894 
z
M 3022 2063 
Q 3016 2534 2758 2815 
Q 2500 3097 2075 3097 
Q 1594 3097 1305 2825 
Q 1016 2553 972 2059 
L 3022 2063 
z
" transform="scale(0.015625)"/>
       <path id="DejaVuSans-6c" d="M 603 4863 
L 1178 4863 
L 1178 0 
L 603 0 
L 603 4863 
z
" transform="scale(0.015625)"/>
       <path id="DejaVuSans-6e" d="M 3513 2113 
L 3513 0 
L 2938 0 
L 2938 2094 
Q 2938 2591 2744 2837 
Q 2550 3084 2163 3084 
Q 1697 3084 1428 2787 
Q 1159 2491 1159 1978 
L 1159 0 
L 581 0 
L 581 3500 
L 1159 3500 
L 1159 2956 
Q 1366 3272 1645 3428 
Q 1925 3584 2291 3584 
Q 2894 3584 3203 3211 
Q 3513 2838 3513 2113 
z
" transform="scale(0.015625)"/>
       <path id="DejaVuSans-67" d="M 2906 1791 
Q 2906 2416 2648 2759 
Q 2391 3103 1925 3103 
Q 1463 3103 1205 2759 
Q 947 2416 947 1791 
Q 947 1169 1205 825 
Q 1463 481 1925 481 
Q 2391 481 2648 825 
Q 2906 1169 2906 1791 
z
M 3481 434 
Q 3481 -459 3084 -895 
Q 2688 -1331 1869 -1331 
Q 1566 -1331 1297 -1286 
Q 1028 -1241 775 -1147 
L 775 -588 
Q 1028 -725 1275 -790 
Q 1522 -856 1778 -856 
Q 2344 -856 2625 -561 
Q 2906 -266 2906 331 
L 2906 616 
Q 2728 306 2450 153 
Q 2172 0 1784 0 
Q 1141 0 747 490 
Q 353 981 353 1791 
Q 353 2603 747 3093 
Q 1141 3584 1784 3584 
Q 2172 3584 2450 3431 
Q 2728 3278 2906 2969 
L 2906 3500 
L 3481 3500 
L 3481 434 
z
" transform="scale(0.015625)"/>
       <path id="DejaVuSans-74" d="M 1172 4494 
L 1172 3500 
L 2356 3500 
L 2356 3053 
L 1172 3053 
L 1172 1153 
Q 1172 725 1289 603 
Q 1406 481 1766 481 
L 2356 481 
L 2356 0 
L 1766 0 
Q 1100 0 847 248 
Q 594 497 594 1153 
L 594 3053 
L 172 3053 
L 172 3500 
L 594 3500 
L 594 4494 
L 1172 4494 
z
" transform="scale(0.015625)"/>
       <path id="DejaVuSans-68" d="M 3513 2113 
L 3513 0 
L 2938 0 
L 2938 2094 
Q 2938 2591 2744 2837 
Q 2550 3084 2163 3084 
Q 1697 3084 1428 2787 
Q 1159 2491 1159 1978 
L 1159 0 
L 581 0 
L 581 4863 
L 1159 4863 
L 1159 2956 
Q 1366 3272 1645 3428 
Q 1925 3584 2291 3584 
Q 2894 3584 3203 3211 
Q 3513 2838 3513 2113 
z
" transform="scale(0.015625)"/>
       <path id="DejaVuSans-20" transform="scale(0.015625)"/>
       <path id="DejaVuSans-5b" d="M 550 4863 
L 1875 4863 
L 1875 4416 
L 1125 4416 
L 1125 -397 
L 1875 -397 
L 1875 -844 
L 550 -844 
L 550 4863 
z
" transform="scale(0.015625)"/>
       <path id="DejaVuSans-c5" d="M 2663 5081 
Q 2663 5278 2523 5417 
Q 2384 5556 2188 5556 
Q 1988 5556 1852 5420 
Q 1716 5284 1716 5081 
Q 1716 4884 1853 4746 
Q 1991 4609 2188 4609 
Q 2384 4609 2523 4746 
Q 2663 4884 2663 5081 
z
M 2188 4044 
L 1338 1722 
L 3041 1722 
L 2188 4044 
z
M 1716 4366 
Q 1525 4494 1428 4673 
Q 1331 4853 1331 5081 
Q 1331 5441 1579 5691 
Q 1828 5941 2188 5941 
Q 2544 5941 2795 5689 
Q 3047 5438 3047 5081 
Q 3047 4863 2948 4678 
Q 2850 4494 2663 4366 
L 4325 0 
L 3669 0 
L 3244 1197 
L 1141 1197 
L 716 0 
L 50 0 
L 1716 4366 
z
" transform="scale(0.015625)"/>
       <path id="DejaVuSans-5d" d="M 1947 4863 
L 1947 -844 
L 622 -844 
L 622 -397 
L 1369 -397 
L 1369 4416 
L 622 4416 
L 622 4863 
L 1947 4863 
z
" transform="scale(0.015625)"/>
      </defs>
      <use xlink:href="#DejaVuSans-77"/>
      <use xlink:href="#DejaVuSans-61" transform="translate(81.787109 0)"/>
      <use xlink:href="#DejaVuSans-76" transform="translate(143.066406 0)"/>
      <use xlink:href="#DejaVuSans-65" transform="translate(202.246094 0)"/>
      <use xlink:href="#DejaVuSans-6c" transform="translate(263.769531 0)"/>
      <use xlink:href="#DejaVuSans-65" transform="translate(291.552734 0)"/>
      <use xlink:href="#DejaVuSans-6e" transform="translate(353.076172 0)"/>
      <use xlink:href="#DejaVuSans-67" transform="translate(416.455078 0)"/>
      <use xlink:href="#DejaVuSans-74" transform="translate(479.931641 0)"/>
      <use xlink:href="#DejaVuSans-68" transform="translate(519.140625 0)"/>
      <use xlink:href="#DejaVuSans-20" transform="translate(582.519531 0)"/>
      <use xlink:href="#DejaVuSans-5b" transform="translate(614.306641 0)"/>
      <use xlink:href="#DejaVuSans-c5" transform="translate(653.320312 0)"/>
      <use xlink:href="#DejaVuSans-5d" transform="translate(721.728516 0)"/>
     </g>
    </g>
   </g>
   <g id="matplotlib.axis_2">
    <g id="ytick_1">
     <g id="line2d_9">
      <defs>
       <path id="m1f67fc0fef" d="M 0 0 
L -3.5 0 
" style="stroke: #000000; stroke-width: 0.8"/>
      </defs>
      <g>
       <use xlink:href="#m1f67fc0fef" x="46.965625" y="246.484315" style="stroke: #000000; stroke-width: 0.8"/>
      </g>
     </g>
     <g id="text_10">
      <!-- 0 -->
      <g transform="translate(33.603125 250.283533) scale(0.1 -0.1)">
       <use xlink:href="#DejaVuSans-30"/>
      </g>
     </g>
    </g>
    <g id="ytick_2">
     <g id="line2d_10">
      <g>
       <use xlink:href="#m1f67fc0fef" x="46.965625" y="219.797863" style="stroke: #000000; stroke-width: 0.8"/>
      </g>
     </g>
     <g id="text_11">
      <!-- 100 -->
      <g transform="translate(20.878125 223.597082) scale(0.1 -0.1)">
       <use xlink:href="#DejaVuSans-31"/>
       <use xlink:href="#DejaVuSans-30" transform="translate(63.623047 0)"/>
       <use xlink:href="#DejaVuSans-30" transform="translate(127.246094 0)"/>
      </g>
     </g>
    </g>
    <g id="ytick_3">
     <g id="line2d_11">
      <g>
       <use xlink:href="#m1f67fc0fef" x="46.965625" y="193.111412" style="stroke: #000000; stroke-width: 0.8"/>
      </g>
     </g>
     <g id="text_12">
      <!-- 200 -->
      <g transform="translate(20.878125 196.910631) scale(0.1 -0.1)">
       <use xlink:href="#DejaVuSans-32"/>
       <use xlink:href="#DejaVuSans-30" transform="translate(63.623047 0)"/>
       <use xlink:href="#DejaVuSans-30" transform="translate(127.246094 0)"/>
      </g>
     </g>
    </g>
    <g id="ytick_4">
     <g id="line2d_12">
      <g>
       <use xlink:href="#m1f67fc0fef" x="46.965625" y="166.424961" style="stroke: #000000; stroke-width: 0.8"/>
      </g>
     </g>
     <g id="text_13">
      <!-- 300 -->
      <g transform="translate(20.878125 170.22418) scale(0.1 -0.1)">
       <use xlink:href="#DejaVuSans-33"/>
       <use xlink:href="#DejaVuSans-30" transform="translate(63.623047 0)"/>
       <use xlink:href="#DejaVuSans-30" transform="translate(127.246094 0)"/>
      </g>
     </g>
    </g>
    <g id="ytick_5">
     <g id="line2d_13">
      <g>
       <use xlink:href="#m1f67fc0fef" x="46.965625" y="139.73851" style="stroke: #000000; stroke-width: 0.8"/>
      </g>
     </g>
     <g id="text_14">
      <!-- 400 -->
      <g transform="translate(20.878125 143.537729) scale(0.1 -0.1)">
       <use xlink:href="#DejaVuSans-34"/>
       <use xlink:href="#DejaVuSans-30" transform="translate(63.623047 0)"/>
       <use xlink:href="#DejaVuSans-30" transform="translate(127.246094 0)"/>
      </g>
     </g>
    </g>
    <g id="ytick_6">
     <g id="line2d_14">
      <g>
       <use xlink:href="#m1f67fc0fef" x="46.965625" y="113.052059" style="stroke: #000000; stroke-width: 0.8"/>
      </g>
     </g>
     <g id="text_15">
      <!-- 500 -->
      <g transform="translate(20.878125 116.851278) scale(0.1 -0.1)">
       <use xlink:href="#DejaVuSans-35"/>
       <use xlink:href="#DejaVuSans-30" transform="translate(63.623047 0)"/>
       <use xlink:href="#DejaVuSans-30" transform="translate(127.246094 0)"/>
      </g>
     </g>
    </g>
    <g id="ytick_7">
     <g id="line2d_15">
      <g>
       <use xlink:href="#m1f67fc0fef" x="46.965625" y="86.365608" style="stroke: #000000; stroke-width: 0.8"/>
      </g>
     </g>
     <g id="text_16">
      <!-- 600 -->
      <g transform="translate(20.878125 90.164826) scale(0.1 -0.1)">
       <defs>
        <path id="DejaVuSans-36" d="M 2113 2584 
Q 1688 2584 1439 2293 
Q 1191 2003 1191 1497 
Q 1191 994 1439 701 
Q 1688 409 2113 409 
Q 2538 409 2786 701 
Q 3034 994 3034 1497 
Q 3034 2003 2786 2293 
Q 2538 2584 2113 2584 
z
M 3366 4563 
L 3366 3988 
Q 3128 4100 2886 4159 
Q 2644 4219 2406 4219 
Q 1781 4219 1451 3797 
Q 1122 3375 1075 2522 
Q 1259 2794 1537 2939 
Q 1816 3084 2150 3084 
Q 2853 3084 3261 2657 
Q 3669 2231 3669 1497 
Q 3669 778 3244 343 
Q 2819 -91 2113 -91 
Q 1303 -91 875 529 
Q 447 1150 447 2328 
Q 447 3434 972 4092 
Q 1497 4750 2381 4750 
Q 2619 4750 2861 4703 
Q 3103 4656 3366 4563 
z
" transform="scale(0.015625)"/>
       </defs>
       <use xlink:href="#DejaVuSans-36"/>
       <use xlink:href="#DejaVuSans-30" transform="translate(63.623047 0)"/>
       <use xlink:href="#DejaVuSans-30" transform="translate(127.246094 0)"/>
      </g>
     </g>
    </g>
    <g id="ytick_8">
     <g id="line2d_16">
      <g>
       <use xlink:href="#m1f67fc0fef" x="46.965625" y="59.679157" style="stroke: #000000; stroke-width: 0.8"/>
      </g>
     </g>
     <g id="text_17">
      <!-- 700 -->
      <g transform="translate(20.878125 63.478375) scale(0.1 -0.1)">
       <defs>
        <path id="DejaVuSans-37" d="M 525 4666 
L 3525 4666 
L 3525 4397 
L 1831 0 
L 1172 0 
L 2766 4134 
L 525 4134 
L 525 4666 
z
" transform="scale(0.015625)"/>
       </defs>
       <use xlink:href="#DejaVuSans-37"/>
       <use xlink:href="#DejaVuSans-30" transform="translate(63.623047 0)"/>
       <use xlink:href="#DejaVuSans-30" transform="translate(127.246094 0)"/>
      </g>
     </g>
    </g>
    <g id="ytick_9">
     <g id="line2d_17">
      <g>
       <use xlink:href="#m1f67fc0fef" x="46.965625" y="32.992705" style="stroke: #000000; stroke-width: 0.8"/>
      </g>
     </g>
     <g id="text_18">
      <!-- 800 -->
      <g transform="translate(20.878125 36.791924) scale(0.1 -0.1)">
       <defs>
        <path id="DejaVuSans-38" d="M 2034 2216 
Q 1584 2216 1326 1975 
Q 1069 1734 1069 1313 
Q 1069 891 1326 650 
Q 1584 409 2034 409 
Q 2484 409 2743 651 
Q 3003 894 3003 1313 
Q 3003 1734 2745 1975 
Q 2488 2216 2034 2216 
z
M 1403 2484 
Q 997 2584 770 2862 
Q 544 3141 544 3541 
Q 544 4100 942 4425 
Q 1341 4750 2034 4750 
Q 2731 4750 3128 4425 
Q 3525 4100 3525 3541 
Q 3525 3141 3298 2862 
Q 3072 2584 2669 2484 
Q 3125 2378 3379 2068 
Q 3634 1759 3634 1313 
Q 3634 634 3220 271 
Q 2806 -91 2034 -91 
Q 1263 -91 848 271 
Q 434 634 434 1313 
Q 434 1759 690 2068 
Q 947 2378 1403 2484 
z
M 1172 3481 
Q 1172 3119 1398 2916 
Q 1625 2713 2034 2713 
Q 2441 2713 2670 2916 
Q 2900 3119 2900 3481 
Q 2900 3844 2670 4047 
Q 2441 4250 2034 4250 
Q 1625 4250 1398 4047 
Q 1172 3844 1172 3481 
z
" transform="scale(0.015625)"/>
       </defs>
       <use xlink:href="#DejaVuSans-38"/>
       <use xlink:href="#DejaVuSans-30" transform="translate(63.623047 0)"/>
       <use xlink:href="#DejaVuSans-30" transform="translate(127.246094 0)"/>
      </g>
     </g>
    </g>
    <g id="text_19">
     <!-- [counts] -->
     <g transform="translate(14.798437 160.35101) rotate(-90) scale(0.1 -0.1)">
      <defs>
       <path id="DejaVuSans-63" d="M 3122 3366 
L 3122 2828 
Q 2878 2963 2633 3030 
Q 2388 3097 2138 3097 
Q 1578 3097 1268 2742 
Q 959 2388 959 1747 
Q 959 1106 1268 751 
Q 1578 397 2138 397 
Q 2388 397 2633 464 
Q 2878 531 3122 666 
L 3122 134 
Q 2881 22 2623 -34 
Q 2366 -91 2075 -91 
Q 1284 -91 818 406 
Q 353 903 353 1747 
Q 353 2603 823 3093 
Q 1294 3584 2113 3584 
Q 2378 3584 2631 3529 
Q 2884 3475 3122 3366 
z
" transform="scale(0.015625)"/>
       <path id="DejaVuSans-6f" d="M 1959 3097 
Q 1497 3097 1228 2736 
Q 959 2375 959 1747 
Q 959 1119 1226 758 
Q 1494 397 1959 397 
Q 2419 397 2687 759 
Q 2956 1122 2956 1747 
Q 2956 2369 2687 2733 
Q 2419 3097 1959 3097 
z
M 1959 3584 
Q 2709 3584 3137 3096 
Q 3566 2609 3566 1747 
Q 3566 888 3137 398 
Q 2709 -91 1959 -91 
Q 1206 -91 779 398 
Q 353 888 353 1747 
Q 353 2609 779 3096 
Q 1206 3584 1959 3584 
z
" transform="scale(0.015625)"/>
       <path id="DejaVuSans-75" d="M 544 1381 
L 544 3500 
L 1119 3500 
L 1119 1403 
Q 1119 906 1312 657 
Q 1506 409 1894 409 
Q 2359 409 2629 706 
Q 2900 1003 2900 1516 
L 2900 3500 
L 3475 3500 
L 3475 0 
L 2900 0 
L 2900 538 
Q 2691 219 2414 64 
Q 2138 -91 1772 -91 
Q 1169 -91 856 284 
Q 544 659 544 1381 
z
M 1991 3584 
L 1991 3584 
z
" transform="scale(0.015625)"/>
       <path id="DejaVuSans-73" d="M 2834 3397 
L 2834 2853 
Q 2591 2978 2328 3040 
Q 2066 3103 1784 3103 
Q 1356 3103 1142 2972 
Q 928 2841 928 2578 
Q 928 2378 1081 2264 
Q 1234 2150 1697 2047 
L 1894 2003 
Q 2506 1872 2764 1633 
Q 3022 1394 3022 966 
Q 3022 478 2636 193 
Q 2250 -91 1575 -91 
Q 1294 -91 989 -36 
Q 684 19 347 128 
L 347 722 
Q 666 556 975 473 
Q 1284 391 1588 391 
Q 1994 391 2212 530 
Q 2431 669 2431 922 
Q 2431 1156 2273 1281 
Q 2116 1406 1581 1522 
L 1381 1569 
Q 847 1681 609 1914 
Q 372 2147 372 2553 
Q 372 3047 722 3315 
Q 1072 3584 1716 3584 
Q 2034 3584 2315 3537 
Q 2597 3491 2834 3397 
z
" transform="scale(0.015625)"/>
      </defs>
      <use xlink:href="#DejaVuSans-5b"/>
      <use xlink:href="#DejaVuSans-63" transform="translate(39.013672 0)"/>
      <use xlink:href="#DejaVuSans-6f" transform="translate(93.994141 0)"/>
      <use xlink:href="#DejaVuSans-75" transform="translate(155.175781 0)"/>
      <use xlink:href="#DejaVuSans-6e" transform="translate(218.554688 0)"/>
      <use xlink:href="#DejaVuSans-74" transform="translate(281.933594 0)"/>
      <use xlink:href="#DejaVuSans-73" transform="translate(321.142578 0)"/>
      <use xlink:href="#DejaVuSans-5d" transform="translate(373.242188 0)"/>
     </g>
    </g>
   </g>
   <g id="line2d_18">
    <path d="M 63.676268 246.484315 
L 72.031589 246.484315 
L 72.031589 244.616263 
L 73.702653 244.616263 
L 73.702653 233.941683 
L 75.373717 233.941683 
L 75.373717 230.205579 
L 77.044782 230.205579 
L 77.044782 216.862354 
L 78.715846 216.862354 
L 78.715846 210.991335 
L 80.38691 210.991335 
L 80.38691 210.190741 
L 82.057974 210.190741 
L 82.057974 198.448702 
L 83.729039 198.448702 
L 83.729039 185.372341 
L 85.400103 185.372341 
L 85.400103 178.433864 
L 87.071167 178.433864 
L 87.071167 169.360471 
L 88.742231 169.360471 
L 88.742231 174.964625 
L 90.413296 174.964625 
L 90.413296 147.210716 
L 92.08436 147.210716 
L 92.08436 152.814871 
L 93.755424 152.814871 
L 93.755424 135.201813 
L 95.426488 135.201813 
L 95.426488 131.46571 
L 97.097553 131.46571 
L 97.097553 110.917143 
L 98.768617 110.917143 
L 98.768617 102.110614 
L 100.439681 102.110614 
L 100.439681 114.653246 
L 102.110745 114.653246 
L 102.110745 93.304085 
L 103.78181 93.304085 
L 103.78181 112.251465 
L 105.452874 112.251465 
L 105.452874 93.837814 
L 107.123938 93.837814 
L 107.123938 75.691027 
L 108.795002 75.691027 
L 108.795002 81.828911 
L 110.466067 81.828911 
L 110.466067 71.954924 
L 112.137131 71.954924 
L 112.137131 57.010511 
L 113.808195 57.010511 
L 113.808195 48.203983 
L 115.479259 48.203983 
L 115.479259 50.872628 
L 117.150323 50.872628 
L 117.150323 55.409324 
L 118.821388 55.409324 
L 118.821388 53.808137 
L 120.492452 53.808137 
L 120.492452 56.209918 
L 122.163516 56.209918 
L 122.163516 37.529402 
L 123.834581 37.529402 
L 123.834581 50.072034 
L 125.505645 50.072034 
L 125.505645 36.461944 
L 127.176709 36.461944 
L 127.176709 45.802202 
L 128.847773 45.802202 
L 128.847773 41.799234 
L 130.518838 41.799234 
L 130.518838 51.139492 
L 132.189902 51.139492 
L 132.189902 50.605763 
L 133.860966 50.605763 
L 133.860966 36.19508 
L 135.53203 36.19508 
L 135.53203 74.890434 
L 137.203095 74.890434 
L 137.203095 43.667286 
L 138.874159 43.667286 
L 138.874159 62.614666 
L 142.216287 62.614666 
L 142.216287 75.691027 
L 143.887352 75.691027 
L 143.887352 63.148395 
L 145.558416 63.148395 
L 145.558416 75.424163 
L 147.22948 75.424163 
L 147.22948 78.092808 
L 148.900544 78.092808 
L 148.900544 57.54424 
L 150.571609 57.54424 
L 150.571609 73.556111 
L 152.242673 73.556111 
L 152.242673 64.749582 
L 153.913737 64.749582 
L 153.913737 87.966795 
L 155.584801 87.966795 
L 155.584801 78.893401 
L 157.255866 78.893401 
L 157.255866 78.626537 
L 158.92693 78.626537 
L 158.92693 90.368575 
L 160.597994 90.368575 
L 160.597994 84.764421 
L 162.269058 84.764421 
L 162.269058 67.951956 
L 163.940123 67.951956 
L 163.940123 84.497556 
L 165.611187 84.497556 
L 165.611187 80.494588 
L 167.282251 80.494588 
L 167.282251 84.764421 
L 168.953315 84.764421 
L 168.953315 78.626537 
L 170.62438 78.626537 
L 170.62438 75.957892 
L 172.295444 75.957892 
L 172.295444 87.166201 
L 173.966508 87.166201 
L 173.966508 81.295182 
L 175.637572 81.295182 
L 175.637572 90.63544 
L 177.308637 90.63544 
L 177.308637 96.506459 
L 178.979701 96.506459 
L 178.979701 84.764421 
L 180.650765 84.764421 
L 180.650765 94.638408 
L 182.321829 94.638408 
L 182.321829 85.831879 
L 183.992894 85.831879 
L 183.992894 97.573917 
L 185.663958 97.573917 
L 185.663958 91.436033 
L 187.335022 91.436033 
L 187.335022 102.644343 
L 189.006086 102.644343 
L 189.006086 101.843749 
L 190.677151 101.843749 
L 190.677151 113.318923 
L 192.348215 113.318923 
L 192.348215 111.450872 
L 194.019279 111.450872 
L 194.019279 104.779259 
L 195.690343 104.779259 
L 195.690343 110.383414 
L 197.361408 110.383414 
L 197.361408 131.999439 
L 199.032472 131.999439 
L 199.032472 136.536136 
L 200.703536 136.536136 
L 200.703536 135.201813 
L 202.3746 135.201813 
L 202.3746 151.213684 
L 204.045665 151.213684 
L 204.045665 169.627335 
L 205.716729 169.627335 
L 205.716729 164.823774 
L 207.387793 164.823774 
L 207.387793 166.158097 
L 209.058857 166.158097 
L 209.058857 180.035051 
L 210.729922 180.035051 
L 210.729922 187.507258 
L 212.400986 187.507258 
L 212.400986 194.17887 
L 214.07205 194.17887 
L 214.07205 202.985399 
L 215.743114 202.985399 
L 215.743114 213.126251 
L 217.414179 213.126251 
L 217.414179 218.196676 
L 219.085243 218.196676 
L 219.085243 228.070663 
L 220.756307 228.070663 
L 220.756307 231.806766 
L 222.427371 231.806766 
L 222.427371 237.144057 
L 224.098435 237.144057 
L 224.098435 242.481347 
L 225.7695 242.481347 
L 225.7695 243.015076 
L 227.440564 243.015076 
L 227.440564 244.349398 
L 229.111628 244.349398 
L 229.111628 240.346431 
L 230.782693 240.346431 
L 230.782693 233.407953 
L 232.453757 233.407953 
L 232.453757 224.33456 
L 234.124821 224.33456 
L 234.124821 222.733373 
L 235.795885 222.733373 
L 235.795885 214.727438 
L 237.466949 214.727438 
L 237.466949 204.586586 
L 239.138014 204.586586 
L 239.138014 201.117348 
L 240.809078 201.117348 
L 240.809078 193.378277 
L 242.480142 193.378277 
L 242.480142 187.774122 
L 244.151207 187.774122 
L 244.151207 188.040987 
L 245.822271 188.040987 
L 245.822271 172.829709 
L 247.493335 172.829709 
L 247.493335 176.032084 
L 249.164399 176.032084 
L 249.164399 172.029116 
L 250.835464 172.029116 
L 250.835464 167.492419 
L 252.506528 167.492419 
L 252.506528 161.354535 
L 254.177592 161.354535 
L 254.177592 150.41309 
L 255.848656 150.41309 
L 255.848656 148.545039 
L 257.51972 148.545039 
L 257.51972 149.078768 
L 259.190785 149.078768 
L 259.190785 142.407155 
L 260.861849 142.407155 
L 260.861849 143.741478 
L 262.532913 143.741478 
L 262.532913 153.615465 
L 264.203978 153.615465 
L 264.203978 144.008342 
L 265.875042 144.008342 
L 265.875042 131.999439 
L 267.546106 131.999439 
L 267.546106 120.524265 
L 269.21717 120.524265 
L 269.21717 127.462742 
L 270.888234 127.462742 
L 270.888234 111.984601 
L 272.559299 111.984601 
L 272.559299 112.785194 
L 274.230363 112.785194 
L 274.230363 107.447904 
L 275.901427 107.447904 
L 275.901427 115.720704 
L 277.572492 115.720704 
L 277.572492 119.189943 
L 279.243556 119.189943 
L 279.243556 100.509427 
L 280.91462 100.509427 
L 280.91462 105.046124 
L 282.585684 105.046124 
L 282.585684 119.990536 
L 284.256749 119.990536 
L 284.256749 108.782227 
L 285.927813 108.782227 
L 285.927813 111.717736 
L 289.269941 111.717736 
L 289.269941 118.389349 
L 290.941006 118.389349 
L 290.941006 113.852652 
L 292.61207 113.852652 
L 292.61207 116.521298 
L 294.283134 116.521298 
L 294.283134 120.257401 
L 295.954198 120.257401 
L 295.954198 115.987568 
L 297.625263 115.987568 
L 297.625263 117.321891 
L 299.296327 117.321891 
L 299.296327 131.198846 
L 300.967391 131.198846 
L 300.967391 133.066897 
L 302.638455 133.066897 
L 302.638455 130.131388 
L 304.309519 130.131388 
L 304.309519 119.990536 
L 305.980584 119.990536 
L 305.980584 128.797065 
L 307.651648 128.797065 
L 307.651648 136.269271 
L 309.322712 136.269271 
L 309.322712 137.870458 
L 310.993777 137.870458 
L 310.993777 141.072833 
L 312.664841 141.072833 
L 312.664841 152.281142 
L 314.335905 152.281142 
L 314.335905 152.014278 
L 316.006969 152.014278 
L 316.006969 148.278174 
L 317.678033 148.278174 
L 317.678033 148.545039 
L 319.349098 148.545039 
L 319.349098 156.817839 
L 321.020162 156.817839 
L 321.020162 147.477581 
L 322.691226 147.477581 
L 322.691226 160.020213 
L 324.362291 160.020213 
L 324.362291 150.946819 
L 326.033355 150.946819 
L 326.033355 153.081736 
L 327.704419 153.081736 
L 327.704419 158.952755 
L 329.375483 158.952755 
L 329.375483 155.216652 
L 331.046547 155.216652 
L 331.046547 169.093606 
L 332.717612 169.093606 
L 332.717612 171.228522 
L 334.388676 171.228522 
L 334.388676 166.691826 
L 336.05974 166.691826 
L 336.05974 167.225555 
L 337.730805 167.225555 
L 337.730805 171.228522 
L 339.401869 171.228522 
L 339.401869 173.363438 
L 341.072933 173.363438 
L 341.072933 182.970561 
L 342.743997 182.970561 
L 342.743997 176.032084 
L 344.415062 176.032084 
L 344.415062 186.439799 
L 346.086126 186.439799 
L 346.086126 185.372341 
L 347.75719 185.372341 
L 347.75719 190.175903 
L 351.099318 190.175903 
L 351.099318 182.703696 
L 352.770383 182.703696 
L 352.770383 203.252264 
L 354.441447 203.252264 
L 354.441447 196.580651 
L 356.112511 196.580651 
L 356.112511 199.783025 
L 357.783576 199.783025 
L 357.783576 206.187773 
L 359.45464 206.187773 
L 359.45464 205.120315 
L 361.125704 205.120315 
L 361.125704 210.72447 
L 362.796768 210.72447 
L 362.796768 220.598457 
L 364.467832 220.598457 
L 364.467832 219.797863 
L 366.138897 219.797863 
L 366.138897 223.533967 
L 367.809961 223.533967 
L 367.809961 228.070663 
L 369.481025 228.070663 
L 369.481025 227.536934 
L 371.15209 227.536934 
L 371.15209 228.337528 
L 372.823154 228.337528 
L 372.823154 230.739308 
L 374.494218 230.739308 
L 374.494218 236.877192 
L 376.165282 236.877192 
L 376.165282 236.076599 
L 377.836346 236.076599 
L 377.836346 238.211515 
L 379.507411 238.211515 
L 379.507411 241.147024 
L 381.178475 241.147024 
L 381.178475 244.349398 
L 382.849539 244.349398 
L 382.849539 241.147024 
L 384.520603 241.147024 
L 384.520603 244.082534 
L 386.191668 244.082534 
L 386.191668 246.484315 
L 397.889117 246.484315 
L 397.889117 246.484315 
" clip-path="url(#pb48582e09d)" style="fill: none; stroke: #1f77b4; stroke-width: 1.5; stroke-linecap: square"/>
   </g>
   <g id="line2d_19">
    <path d="M 63.676268 246.484315 
L 72.031589 246.484315 
L 72.031589 244.616263 
L 73.702653 244.616263 
L 73.702653 233.141089 
L 75.373717 233.141089 
L 75.373717 229.938715 
L 77.044782 229.938715 
L 77.044782 217.396083 
L 78.715846 217.396083 
L 78.715846 211.791928 
L 80.38691 211.791928 
L 80.38691 208.856418 
L 82.057974 208.856418 
L 82.057974 194.979464 
L 83.729039 194.979464 
L 83.729039 191.243361 
L 85.400103 191.243361 
L 85.400103 177.366406 
L 87.071167 177.366406 
L 87.071167 172.029116 
L 88.742231 172.029116 
L 88.742231 171.228522 
L 90.413296 171.228522 
L 90.413296 149.879361 
L 92.08436 149.879361 
L 92.08436 144.542071 
L 93.755424 144.542071 
L 93.755424 139.73851 
L 95.426488 139.73851 
L 95.426488 129.06393 
L 97.097553 129.06393 
L 97.097553 114.386381 
L 98.768617 114.386381 
L 98.768617 104.779259 
L 100.439681 104.779259 
L 100.439681 109.315956 
L 102.110745 109.315956 
L 102.110745 101.576885 
L 103.78181 101.576885 
L 103.78181 104.512394 
L 105.452874 104.512394 
L 105.452874 86.098743 
L 107.123938 86.098743 
L 107.123938 79.693995 
L 108.795002 79.693995 
L 108.795002 85.565014 
L 110.466067 85.565014 
L 110.466067 79.42713 
L 112.137131 79.42713 
L 112.137131 43.400421 
L 113.808195 43.400421 
L 113.808195 56.209918 
L 115.479259 56.209918 
L 115.479259 51.673221 
L 117.150323 51.673221 
L 117.150323 54.608731 
L 118.821388 54.608731 
L 118.821388 56.209918 
L 120.492452 56.209918 
L 120.492452 53.274408 
L 122.163516 53.274408 
L 122.163516 45.268473 
L 123.834581 45.268473 
L 123.834581 51.139492 
L 125.505645 51.139492 
L 125.505645 34.327028 
L 127.176709 34.327028 
L 127.176709 32.992705 
L 128.847773 32.992705 
L 128.847773 53.808137 
L 130.518838 53.808137 
L 130.518838 45.802202 
L 132.189902 45.802202 
L 132.189902 53.541273 
L 133.860966 53.541273 
L 133.860966 42.599828 
L 135.53203 42.599828 
L 135.53203 59.946021 
L 137.203095 59.946021 
L 137.203095 46.069067 
L 138.874159 46.069067 
L 138.874159 73.022382 
L 140.545223 73.022382 
L 140.545223 66.350769 
L 142.216287 66.350769 
L 142.216287 69.553144 
L 143.887352 69.553144 
L 143.887352 59.412292 
L 145.558416 59.412292 
L 145.558416 81.028317 
L 147.22948 81.028317 
L 147.22948 64.215853 
L 148.900544 64.215853 
L 148.900544 71.154331 
L 150.571609 71.154331 
L 150.571609 69.286279 
L 152.242673 69.286279 
L 152.242673 63.682124 
L 153.913737 63.682124 
L 153.913737 77.825943 
L 155.584801 77.825943 
L 155.584801 87.69993 
L 157.255866 87.69993 
L 157.255866 85.565014 
L 158.92693 85.565014 
L 158.92693 83.963827 
L 160.597994 83.963827 
L 160.597994 84.764421 
L 162.269058 84.764421 
L 162.269058 73.289247 
L 163.940123 73.289247 
L 163.940123 80.227724 
L 165.611187 80.227724 
L 165.611187 80.761453 
L 167.282251 80.761453 
L 167.282251 82.095776 
L 168.953315 82.095776 
L 168.953315 80.494588 
L 170.62438 80.494588 
L 170.62438 83.163234 
L 172.295444 83.163234 
L 172.295444 84.230692 
L 173.966508 84.230692 
L 173.966508 81.028317 
L 175.637572 81.028317 
L 175.637572 83.430098 
L 177.308637 83.430098 
L 177.308637 96.773324 
L 178.979701 96.773324 
L 178.979701 96.506459 
L 180.650765 96.506459 
L 180.650765 89.567982 
L 182.321829 89.567982 
L 182.321829 84.497556 
L 183.992894 84.497556 
L 183.992894 91.969762 
L 185.663958 91.969762 
L 185.663958 90.101711 
L 187.335022 90.101711 
L 187.335022 105.312988 
L 189.006086 105.312988 
L 189.006086 106.380446 
L 190.677151 106.380446 
L 190.677151 114.119517 
L 192.348215 114.119517 
L 192.348215 104.24553 
L 194.019279 104.24553 
L 194.019279 110.383414 
L 195.690343 110.383414 
L 195.690343 114.653246 
L 197.361408 114.653246 
L 197.361408 123.19291 
L 199.032472 123.19291 
L 199.032472 140.805968 
L 200.703536 140.805968 
L 200.703536 136.803 
L 202.3746 136.803 
L 202.3746 152.014278 
L 204.045665 152.014278 
L 204.045665 161.888264 
L 205.716729 161.888264 
L 205.716729 168.026148 
L 207.387793 168.026148 
L 207.387793 166.691826 
L 209.058857 166.691826 
L 209.058857 183.237425 
L 210.729922 183.237425 
L 210.729922 185.372341 
L 212.400986 185.372341 
L 212.400986 194.17887 
L 214.07205 194.17887 
L 214.07205 203.252264 
L 215.743114 203.252264 
L 215.743114 212.325657 
L 217.414179 212.325657 
L 217.414179 217.929812 
L 219.085243 217.929812 
L 219.085243 227.803799 
L 220.756307 227.803799 
L 220.756307 231.806766 
L 222.427371 231.806766 
L 222.427371 237.677786 
L 224.098435 237.677786 
L 224.098435 242.214482 
L 225.7695 242.214482 
L 225.7695 243.28194 
L 229.111628 243.28194 
L 229.111628 239.545837 
L 230.782693 239.545837 
L 230.782693 233.674818 
L 232.453757 233.674818 
L 232.453757 224.868289 
L 234.124821 224.868289 
L 234.124821 221.932779 
L 235.795885 221.932779 
L 235.795885 213.926844 
L 237.466949 213.926844 
L 237.466949 203.785993 
L 239.138014 203.785993 
L 239.138014 201.117348 
L 240.809078 201.117348 
L 240.809078 194.445735 
L 242.480142 194.445735 
L 242.480142 189.642174 
L 244.151207 189.642174 
L 244.151207 188.574716 
L 245.822271 188.574716 
L 245.822271 170.427929 
L 247.493335 170.427929 
L 247.493335 176.832677 
L 249.164399 176.832677 
L 249.164399 173.630303 
L 250.835464 173.630303 
L 250.835464 164.823774 
L 252.506528 164.823774 
L 252.506528 160.553942 
L 254.177592 160.553942 
L 254.177592 148.545039 
L 255.848656 148.545039 
L 255.848656 151.480548 
L 257.51972 151.480548 
L 257.51972 148.545039 
L 259.190785 148.545039 
L 259.190785 137.336729 
L 260.861849 137.336729 
L 260.861849 156.017245 
L 262.532913 156.017245 
L 262.532913 144.808936 
L 264.203978 144.808936 
L 264.203978 138.137323 
L 265.875042 138.137323 
L 265.875042 137.870458 
L 267.546106 137.870458 
L 267.546106 124.527233 
L 269.21717 124.527233 
L 269.21717 123.459775 
L 270.888234 123.459775 
L 270.888234 114.92011 
L 272.559299 114.92011 
L 272.559299 113.052059 
L 274.230363 113.052059 
L 274.230363 105.312988 
L 275.901427 105.312988 
L 275.901427 115.720704 
L 277.572492 115.720704 
L 277.572492 107.981633 
L 279.243556 107.981633 
L 279.243556 109.849685 
L 280.91462 109.849685 
L 280.91462 112.251465 
L 282.585684 112.251465 
L 282.585684 117.321891 
L 284.256749 117.321891 
L 284.256749 107.18104 
L 285.927813 107.18104 
L 285.927813 105.846717 
L 287.598877 105.846717 
L 287.598877 115.453839 
L 289.269941 115.453839 
L 289.269941 117.588756 
L 290.941006 117.588756 
L 290.941006 122.926046 
L 292.61207 122.926046 
L 292.61207 111.450872 
L 294.283134 111.450872 
L 294.283134 117.85562 
L 295.954198 117.85562 
L 295.954198 118.122485 
L 297.625263 118.122485 
L 297.625263 122.659181 
L 299.296327 122.659181 
L 299.296327 128.797065 
L 302.638455 128.797065 
L 302.638455 128.263336 
L 304.309519 128.263336 
L 304.309519 122.659181 
L 305.980584 122.659181 
L 305.980584 127.462742 
L 307.651648 127.462742 
L 307.651648 135.735542 
L 309.322712 135.735542 
L 309.322712 138.137323 
L 310.993777 138.137323 
L 310.993777 145.876394 
L 312.664841 145.876394 
L 312.664841 153.882329 
L 314.335905 153.882329 
L 314.335905 145.609529 
L 316.006969 145.609529 
L 316.006969 146.410123 
L 317.678033 146.410123 
L 317.678033 157.618432 
L 319.349098 157.618432 
L 319.349098 150.946819 
L 321.020162 150.946819 
L 321.020162 152.814871 
L 322.691226 152.814871 
L 322.691226 152.548007 
L 324.362291 152.548007 
L 324.362291 151.747413 
L 326.033355 151.747413 
L 326.033355 155.216652 
L 327.704419 155.216652 
L 327.704419 154.416058 
L 329.375483 154.416058 
L 329.375483 164.290045 
L 331.046547 164.290045 
L 331.046547 162.155129 
L 332.717612 162.155129 
L 332.717612 171.495387 
L 334.388676 171.495387 
L 334.388676 170.694793 
L 336.05974 170.694793 
L 336.05974 169.360471 
L 337.730805 169.360471 
L 337.730805 169.093606 
L 339.401869 169.093606 
L 339.401869 177.633271 
L 341.072933 177.633271 
L 341.072933 174.964625 
L 342.743997 174.964625 
L 342.743997 182.436832 
L 344.415062 182.436832 
L 344.415062 185.105477 
L 346.086126 185.105477 
L 346.086126 181.636238 
L 347.75719 181.636238 
L 347.75719 190.709632 
L 349.428254 190.709632 
L 349.428254 187.240393 
L 351.099318 187.240393 
L 351.099318 188.84158 
L 352.770383 188.84158 
L 352.770383 196.580651 
L 354.441447 196.580651 
L 354.441447 200.04989 
L 356.112511 200.04989 
L 356.112511 201.651077 
L 357.783576 201.651077 
L 357.783576 205.920909 
L 359.45464 205.920909 
L 359.45464 203.785993 
L 361.125704 203.785993 
L 361.125704 211.258199 
L 362.796768 211.258199 
L 362.796768 220.331592 
L 364.467832 220.331592 
L 364.467832 218.99727 
L 366.138897 218.99727 
L 366.138897 223.267102 
L 367.809961 223.267102 
L 367.809961 228.871257 
L 369.481025 228.871257 
L 369.481025 227.27007 
L 371.15209 227.27007 
L 371.15209 229.138121 
L 372.823154 229.138121 
L 372.823154 228.871257 
L 374.494218 228.871257 
L 374.494218 238.478379 
L 376.165282 238.478379 
L 376.165282 235.809734 
L 377.836346 235.809734 
L 377.836346 237.94465 
L 379.507411 237.94465 
L 379.507411 241.413889 
L 381.178475 241.413889 
L 381.178475 244.349398 
L 382.849539 244.349398 
L 382.849539 241.413889 
L 384.520603 241.413889 
L 384.520603 244.082534 
L 386.191668 244.082534 
L 386.191668 245.683721 
L 387.862732 245.683721 
L 387.862732 245.950586 
L 389.533796 245.950586 
L 389.533796 246.484315 
L 397.889117 246.484315 
L 397.889117 246.484315 
" clip-path="url(#pb48582e09d)" style="fill: none; stroke: #ff7f0e; stroke-width: 1.5; stroke-linecap: square"/>
   </g>
   <g id="patch_3">
    <path d="M 46.965625 257.158895 
L 46.965625 22.318125 
" style="fill: none; stroke: #000000; stroke-width: 0.8; stroke-linejoin: miter; stroke-linecap: square"/>
   </g>
   <g id="patch_4">
    <path d="M 414.59976 257.158895 
L 414.59976 22.318125 
" style="fill: none; stroke: #000000; stroke-width: 0.8; stroke-linejoin: miter; stroke-linecap: square"/>
   </g>
   <g id="patch_5">
    <path d="M 46.965625 257.158895 
L 414.59976 257.158895 
" style="fill: none; stroke: #000000; stroke-width: 0.8; stroke-linejoin: miter; stroke-linecap: square"/>
   </g>
   <g id="patch_6">
    <path d="M 46.965625 22.318125 
L 414.59976 22.318125 
" style="fill: none; stroke: #000000; stroke-width: 0.8; stroke-linejoin: miter; stroke-linecap: square"/>
   </g>
   <g id="text_20">
    <!-- Pixel 1 -->
    <g transform="translate(211.18613 16.318125) scale(0.12 -0.12)">
     <defs>
      <path id="DejaVuSans-50" d="M 1259 4147 
L 1259 2394 
L 2053 2394 
Q 2494 2394 2734 2622 
Q 2975 2850 2975 3272 
Q 2975 3691 2734 3919 
Q 2494 4147 2053 4147 
L 1259 4147 
z
M 628 4666 
L 2053 4666 
Q 2838 4666 3239 4311 
Q 3641 3956 3641 3272 
Q 3641 2581 3239 2228 
Q 2838 1875 2053 1875 
L 1259 1875 
L 1259 0 
L 628 0 
L 628 4666 
z
" transform="scale(0.015625)"/>
      <path id="DejaVuSans-69" d="M 603 3500 
L 1178 3500 
L 1178 0 
L 603 0 
L 603 3500 
z
M 603 4863 
L 1178 4863 
L 1178 4134 
L 603 4134 
L 603 4863 
z
" transform="scale(0.015625)"/>
      <path id="DejaVuSans-78" d="M 3513 3500 
L 2247 1797 
L 3578 0 
L 2900 0 
L 1881 1375 
L 863 0 
L 184 0 
L 1544 1831 
L 300 3500 
L 978 3500 
L 1906 2253 
L 2834 3500 
L 3513 3500 
z
" transform="scale(0.015625)"/>
     </defs>
     <use xlink:href="#DejaVuSans-50"/>
     <use xlink:href="#DejaVuSans-69" transform="translate(58.052734 0)"/>
     <use xlink:href="#DejaVuSans-78" transform="translate(85.835938 0)"/>
     <use xlink:href="#DejaVuSans-65" transform="translate(141.890625 0)"/>
     <use xlink:href="#DejaVuSans-6c" transform="translate(203.414062 0)"/>
     <use xlink:href="#DejaVuSans-20" transform="translate(231.197266 0)"/>
     <use xlink:href="#DejaVuSans-31" transform="translate(262.984375 0)"/>
    </g>
   </g>
   <g id="legend_1">
    <g id="patch_7">
     <path d="M 310.596635 59.9525 
L 407.59976 59.9525 
Q 409.59976 59.9525 409.59976 57.9525 
L 409.59976 29.318125 
Q 409.59976 27.318125 407.59976 27.318125 
L 310.596635 27.318125 
Q 308.596635 27.318125 308.596635 29.318125 
L 308.596635 57.9525 
Q 308.596635 59.9525 310.596635 59.9525 
z
" style="fill: #ffffff; opacity: 0.8; stroke: #cccccc; stroke-linejoin: miter"/>
    </g>
    <g id="line2d_20">
     <path d="M 312.596635 35.416562 
L 312.596635 35.416562 
L 322.596635 35.416562 
L 322.596635 35.416562 
L 332.596635 35.416562 
" style="fill: none; stroke: #1f77b4; stroke-width: 1.5; stroke-linecap: square"/>
    </g>
    <g id="text_21">
     <!-- wfm -->
     <g transform="translate(340.596635 38.916562) scale(0.1 -0.1)">
      <defs>
       <path id="DejaVuSans-66" d="M 2375 4863 
L 2375 4384 
L 1825 4384 
Q 1516 4384 1395 4259 
Q 1275 4134 1275 3809 
L 1275 3500 
L 2222 3500 
L 2222 3053 
L 1275 3053 
L 1275 0 
L 697 0 
L 697 3053 
L 147 3053 
L 147 3500 
L 697 3500 
L 697 3744 
Q 697 4328 969 4595 
Q 1241 4863 1831 4863 
L 2375 4863 
z
" transform="scale(0.015625)"/>
       <path id="DejaVuSans-6d" d="M 3328 2828 
Q 3544 3216 3844 3400 
Q 4144 3584 4550 3584 
Q 5097 3584 5394 3201 
Q 5691 2819 5691 2113 
L 5691 0 
L 5113 0 
L 5113 2094 
Q 5113 2597 4934 2840 
Q 4756 3084 4391 3084 
Q 3944 3084 3684 2787 
Q 3425 2491 3425 1978 
L 3425 0 
L 2847 0 
L 2847 2094 
Q 2847 2600 2669 2842 
Q 2491 3084 2119 3084 
Q 1678 3084 1418 2786 
Q 1159 2488 1159 1978 
L 1159 0 
L 581 0 
L 581 3500 
L 1159 3500 
L 1159 2956 
Q 1356 3278 1631 3431 
Q 1906 3584 2284 3584 
Q 2666 3584 2933 3390 
Q 3200 3197 3328 2828 
z
" transform="scale(0.015625)"/>
      </defs>
      <use xlink:href="#DejaVuSans-77"/>
      <use xlink:href="#DejaVuSans-66" transform="translate(81.787109 0)"/>
      <use xlink:href="#DejaVuSans-6d" transform="translate(116.992188 0)"/>
     </g>
    </g>
    <g id="line2d_21">
     <path d="M 312.596635 50.094687 
L 312.596635 50.094687 
L 322.596635 50.094687 
L 322.596635 50.094687 
L 332.596635 50.094687 
" style="fill: none; stroke: #ff7f0e; stroke-width: 1.5; stroke-linecap: square"/>
    </g>
    <g id="text_22">
     <!-- ground_truth -->
     <g transform="translate(340.596635 53.594687) scale(0.1 -0.1)">
      <defs>
       <path id="DejaVuSans-72" d="M 2631 2963 
Q 2534 3019 2420 3045 
Q 2306 3072 2169 3072 
Q 1681 3072 1420 2755 
Q 1159 2438 1159 1844 
L 1159 0 
L 581 0 
L 581 3500 
L 1159 3500 
L 1159 2956 
Q 1341 3275 1631 3429 
Q 1922 3584 2338 3584 
Q 2397 3584 2469 3576 
Q 2541 3569 2628 3553 
L 2631 2963 
z
" transform="scale(0.015625)"/>
       <path id="DejaVuSans-64" d="M 2906 2969 
L 2906 4863 
L 3481 4863 
L 3481 0 
L 2906 0 
L 2906 525 
Q 2725 213 2448 61 
Q 2172 -91 1784 -91 
Q 1150 -91 751 415 
Q 353 922 353 1747 
Q 353 2572 751 3078 
Q 1150 3584 1784 3584 
Q 2172 3584 2448 3432 
Q 2725 3281 2906 2969 
z
M 947 1747 
Q 947 1113 1208 752 
Q 1469 391 1925 391 
Q 2381 391 2643 752 
Q 2906 1113 2906 1747 
Q 2906 2381 2643 2742 
Q 2381 3103 1925 3103 
Q 1469 3103 1208 2742 
Q 947 2381 947 1747 
z
" transform="scale(0.015625)"/>
       <path id="DejaVuSans-5f" d="M 3263 -1063 
L 3263 -1509 
L -63 -1509 
L -63 -1063 
L 3263 -1063 
z
" transform="scale(0.015625)"/>
      </defs>
      <use xlink:href="#DejaVuSans-67"/>
      <use xlink:href="#DejaVuSans-72" transform="translate(63.476562 0)"/>
      <use xlink:href="#DejaVuSans-6f" transform="translate(102.339844 0)"/>
      <use xlink:href="#DejaVuSans-75" transform="translate(163.521484 0)"/>
      <use xlink:href="#DejaVuSans-6e" transform="translate(226.900391 0)"/>
      <use xlink:href="#DejaVuSans-64" transform="translate(290.279297 0)"/>
      <use xlink:href="#DejaVuSans-5f" transform="translate(353.755859 0)"/>
      <use xlink:href="#DejaVuSans-74" transform="translate(403.755859 0)"/>
      <use xlink:href="#DejaVuSans-72" transform="translate(442.964844 0)"/>
      <use xlink:href="#DejaVuSans-75" transform="translate(484.078125 0)"/>
      <use xlink:href="#DejaVuSans-74" transform="translate(547.457031 0)"/>
      <use xlink:href="#DejaVuSans-68" transform="translate(586.666016 0)"/>
     </g>
    </g>
   </g>
  </g>
  <g id="axes_2">
   <g id="patch_8">
    <path d="M 497.565385 257.158895 
L 865.19952 257.158895 
L 865.19952 22.318125 
L 497.565385 22.318125 
z
" style="fill: #ffffff"/>
   </g>
   <g id="matplotlib.axis_3">
    <g id="xtick_9">
     <g id="line2d_22">
      <g>
       <use xlink:href="#ma29cd5483c" x="531.866178" y="257.158895" style="stroke: #000000; stroke-width: 0.8"/>
      </g>
     </g>
     <g id="text_23">
      <!-- 1.0 -->
      <g transform="translate(523.914615 271.757332) scale(0.1 -0.1)">
       <use xlink:href="#DejaVuSans-31"/>
       <use xlink:href="#DejaVuSans-2e" transform="translate(63.623047 0)"/>
       <use xlink:href="#DejaVuSans-30" transform="translate(95.410156 0)"/>
      </g>
     </g>
    </g>
    <g id="xtick_10">
     <g id="line2d_23">
      <g>
       <use xlink:href="#ma29cd5483c" x="575.841553" y="257.158895" style="stroke: #000000; stroke-width: 0.8"/>
      </g>
     </g>
     <g id="text_24">
      <!-- 1.5 -->
      <g transform="translate(567.88999 271.757332) scale(0.1 -0.1)">
       <use xlink:href="#DejaVuSans-31"/>
       <use xlink:href="#DejaVuSans-2e" transform="translate(63.623047 0)"/>
       <use xlink:href="#DejaVuSans-35" transform="translate(95.410156 0)"/>
      </g>
     </g>
    </g>
    <g id="xtick_11">
     <g id="line2d_24">
      <g>
       <use xlink:href="#ma29cd5483c" x="619.816928" y="257.158895" style="stroke: #000000; stroke-width: 0.8"/>
      </g>
     </g>
     <g id="text_25">
      <!-- 2.0 -->
      <g transform="translate(611.865365 271.757332) scale(0.1 -0.1)">
       <use xlink:href="#DejaVuSans-32"/>
       <use xlink:href="#DejaVuSans-2e" transform="translate(63.623047 0)"/>
       <use xlink:href="#DejaVuSans-30" transform="translate(95.410156 0)"/>
      </g>
     </g>
    </g>
    <g id="xtick_12">
     <g id="line2d_25">
      <g>
       <use xlink:href="#ma29cd5483c" x="663.792303" y="257.158895" style="stroke: #000000; stroke-width: 0.8"/>
      </g>
     </g>
     <g id="text_26">
      <!-- 2.5 -->
      <g transform="translate(655.84074 271.757332) scale(0.1 -0.1)">
       <use xlink:href="#DejaVuSans-32"/>
       <use xlink:href="#DejaVuSans-2e" transform="translate(63.623047 0)"/>
       <use xlink:href="#DejaVuSans-35" transform="translate(95.410156 0)"/>
      </g>
     </g>
    </g>
    <g id="xtick_13">
     <g id="line2d_26">
      <g>
       <use xlink:href="#ma29cd5483c" x="707.767677" y="257.158895" style="stroke: #000000; stroke-width: 0.8"/>
      </g>
     </g>
     <g id="text_27">
      <!-- 3.0 -->
      <g transform="translate(699.816115 271.757332) scale(0.1 -0.1)">
       <use xlink:href="#DejaVuSans-33"/>
       <use xlink:href="#DejaVuSans-2e" transform="translate(63.623047 0)"/>
       <use xlink:href="#DejaVuSans-30" transform="translate(95.410156 0)"/>
      </g>
     </g>
    </g>
    <g id="xtick_14">
     <g id="line2d_27">
      <g>
       <use xlink:href="#ma29cd5483c" x="751.743052" y="257.158895" style="stroke: #000000; stroke-width: 0.8"/>
      </g>
     </g>
     <g id="text_28">
      <!-- 3.5 -->
      <g transform="translate(743.79149 271.757332) scale(0.1 -0.1)">
       <use xlink:href="#DejaVuSans-33"/>
       <use xlink:href="#DejaVuSans-2e" transform="translate(63.623047 0)"/>
       <use xlink:href="#DejaVuSans-35" transform="translate(95.410156 0)"/>
      </g>
     </g>
    </g>
    <g id="xtick_15">
     <g id="line2d_28">
      <g>
       <use xlink:href="#ma29cd5483c" x="795.718427" y="257.158895" style="stroke: #000000; stroke-width: 0.8"/>
      </g>
     </g>
     <g id="text_29">
      <!-- 4.0 -->
      <g transform="translate(787.766865 271.757332) scale(0.1 -0.1)">
       <use xlink:href="#DejaVuSans-34"/>
       <use xlink:href="#DejaVuSans-2e" transform="translate(63.623047 0)"/>
       <use xlink:href="#DejaVuSans-30" transform="translate(95.410156 0)"/>
      </g>
     </g>
    </g>
    <g id="xtick_16">
     <g id="line2d_29">
      <g>
       <use xlink:href="#ma29cd5483c" x="839.693802" y="257.158895" style="stroke: #000000; stroke-width: 0.8"/>
      </g>
     </g>
     <g id="text_30">
      <!-- 4.5 -->
      <g transform="translate(831.74224 271.757332) scale(0.1 -0.1)">
       <use xlink:href="#DejaVuSans-34"/>
       <use xlink:href="#DejaVuSans-2e" transform="translate(63.623047 0)"/>
       <use xlink:href="#DejaVuSans-35" transform="translate(95.410156 0)"/>
      </g>
     </g>
    </g>
    <g id="text_31">
     <!-- wavelength [Å] -->
     <g transform="translate(643.344952 287.119832) scale(0.1 -0.1)">
      <use xlink:href="#DejaVuSans-77"/>
      <use xlink:href="#DejaVuSans-61" transform="translate(81.787109 0)"/>
      <use xlink:href="#DejaVuSans-76" transform="translate(143.066406 0)"/>
      <use xlink:href="#DejaVuSans-65" transform="translate(202.246094 0)"/>
      <use xlink:href="#DejaVuSans-6c" transform="translate(263.769531 0)"/>
      <use xlink:href="#DejaVuSans-65" transform="translate(291.552734 0)"/>
      <use xlink:href="#DejaVuSans-6e" transform="translate(353.076172 0)"/>
      <use xlink:href="#DejaVuSans-67" transform="translate(416.455078 0)"/>
      <use xlink:href="#DejaVuSans-74" transform="translate(479.931641 0)"/>
      <use xlink:href="#DejaVuSans-68" transform="translate(519.140625 0)"/>
      <use xlink:href="#DejaVuSans-20" transform="translate(582.519531 0)"/>
      <use xlink:href="#DejaVuSans-5b" transform="translate(614.306641 0)"/>
      <use xlink:href="#DejaVuSans-c5" transform="translate(653.320312 0)"/>
      <use xlink:href="#DejaVuSans-5d" transform="translate(721.728516 0)"/>
     </g>
    </g>
   </g>
   <g id="matplotlib.axis_4">
    <g id="ytick_10">
     <g id="line2d_30">
      <g>
       <use xlink:href="#m1f67fc0fef" x="497.565385" y="246.484315" style="stroke: #000000; stroke-width: 0.8"/>
      </g>
     </g>
     <g id="text_32">
      <!-- 0 -->
      <g transform="translate(484.202885 250.283533) scale(0.1 -0.1)">
       <use xlink:href="#DejaVuSans-30"/>
      </g>
     </g>
    </g>
    <g id="ytick_11">
     <g id="line2d_31">
      <g>
       <use xlink:href="#m1f67fc0fef" x="497.565385" y="220.062086" style="stroke: #000000; stroke-width: 0.8"/>
      </g>
     </g>
     <g id="text_33">
      <!-- 100 -->
      <g transform="translate(471.477885 223.861304) scale(0.1 -0.1)">
       <use xlink:href="#DejaVuSans-31"/>
       <use xlink:href="#DejaVuSans-30" transform="translate(63.623047 0)"/>
       <use xlink:href="#DejaVuSans-30" transform="translate(127.246094 0)"/>
      </g>
     </g>
    </g>
    <g id="ytick_12">
     <g id="line2d_32">
      <g>
       <use xlink:href="#m1f67fc0fef" x="497.565385" y="193.639857" style="stroke: #000000; stroke-width: 0.8"/>
      </g>
     </g>
     <g id="text_34">
      <!-- 200 -->
      <g transform="translate(471.477885 197.439076) scale(0.1 -0.1)">
       <use xlink:href="#DejaVuSans-32"/>
       <use xlink:href="#DejaVuSans-30" transform="translate(63.623047 0)"/>
       <use xlink:href="#DejaVuSans-30" transform="translate(127.246094 0)"/>
      </g>
     </g>
    </g>
    <g id="ytick_13">
     <g id="line2d_33">
      <g>
       <use xlink:href="#m1f67fc0fef" x="497.565385" y="167.217628" style="stroke: #000000; stroke-width: 0.8"/>
      </g>
     </g>
     <g id="text_35">
      <!-- 300 -->
      <g transform="translate(471.477885 171.016847) scale(0.1 -0.1)">
       <use xlink:href="#DejaVuSans-33"/>
       <use xlink:href="#DejaVuSans-30" transform="translate(63.623047 0)"/>
       <use xlink:href="#DejaVuSans-30" transform="translate(127.246094 0)"/>
      </g>
     </g>
    </g>
    <g id="ytick_14">
     <g id="line2d_34">
      <g>
       <use xlink:href="#m1f67fc0fef" x="497.565385" y="140.795399" style="stroke: #000000; stroke-width: 0.8"/>
      </g>
     </g>
     <g id="text_36">
      <!-- 400 -->
      <g transform="translate(471.477885 144.594618) scale(0.1 -0.1)">
       <use xlink:href="#DejaVuSans-34"/>
       <use xlink:href="#DejaVuSans-30" transform="translate(63.623047 0)"/>
       <use xlink:href="#DejaVuSans-30" transform="translate(127.246094 0)"/>
      </g>
     </g>
    </g>
    <g id="ytick_15">
     <g id="line2d_35">
      <g>
       <use xlink:href="#m1f67fc0fef" x="497.565385" y="114.37317" style="stroke: #000000; stroke-width: 0.8"/>
      </g>
     </g>
     <g id="text_37">
      <!-- 500 -->
      <g transform="translate(471.477885 118.172389) scale(0.1 -0.1)">
       <use xlink:href="#DejaVuSans-35"/>
       <use xlink:href="#DejaVuSans-30" transform="translate(63.623047 0)"/>
       <use xlink:href="#DejaVuSans-30" transform="translate(127.246094 0)"/>
      </g>
     </g>
    </g>
    <g id="ytick_16">
     <g id="line2d_36">
      <g>
       <use xlink:href="#m1f67fc0fef" x="497.565385" y="87.950941" style="stroke: #000000; stroke-width: 0.8"/>
      </g>
     </g>
     <g id="text_38">
      <!-- 600 -->
      <g transform="translate(471.477885 91.75016) scale(0.1 -0.1)">
       <use xlink:href="#DejaVuSans-36"/>
       <use xlink:href="#DejaVuSans-30" transform="translate(63.623047 0)"/>
       <use xlink:href="#DejaVuSans-30" transform="translate(127.246094 0)"/>
      </g>
     </g>
    </g>
    <g id="ytick_17">
     <g id="line2d_37">
      <g>
       <use xlink:href="#m1f67fc0fef" x="497.565385" y="61.528713" style="stroke: #000000; stroke-width: 0.8"/>
      </g>
     </g>
     <g id="text_39">
      <!-- 700 -->
      <g transform="translate(471.477885 65.327931) scale(0.1 -0.1)">
       <use xlink:href="#DejaVuSans-37"/>
       <use xlink:href="#DejaVuSans-30" transform="translate(63.623047 0)"/>
       <use xlink:href="#DejaVuSans-30" transform="translate(127.246094 0)"/>
      </g>
     </g>
    </g>
    <g id="ytick_18">
     <g id="line2d_38">
      <g>
       <use xlink:href="#m1f67fc0fef" x="497.565385" y="35.106484" style="stroke: #000000; stroke-width: 0.8"/>
      </g>
     </g>
     <g id="text_40">
      <!-- 800 -->
      <g transform="translate(471.477885 38.905703) scale(0.1 -0.1)">
       <use xlink:href="#DejaVuSans-38"/>
       <use xlink:href="#DejaVuSans-30" transform="translate(63.623047 0)"/>
       <use xlink:href="#DejaVuSans-30" transform="translate(127.246094 0)"/>
      </g>
     </g>
    </g>
    <g id="text_41">
     <!-- [counts] -->
     <g transform="translate(465.398198 160.35101) rotate(-90) scale(0.1 -0.1)">
      <use xlink:href="#DejaVuSans-5b"/>
      <use xlink:href="#DejaVuSans-63" transform="translate(39.013672 0)"/>
      <use xlink:href="#DejaVuSans-6f" transform="translate(93.994141 0)"/>
      <use xlink:href="#DejaVuSans-75" transform="translate(155.175781 0)"/>
      <use xlink:href="#DejaVuSans-6e" transform="translate(218.554688 0)"/>
      <use xlink:href="#DejaVuSans-74" transform="translate(281.933594 0)"/>
      <use xlink:href="#DejaVuSans-73" transform="translate(321.142578 0)"/>
      <use xlink:href="#DejaVuSans-5d" transform="translate(373.242188 0)"/>
     </g>
    </g>
   </g>
   <g id="line2d_39">
    <path d="M 514.276028 246.484315 
L 522.631349 246.484315 
L 522.631349 245.691648 
L 524.302413 245.691648 
L 524.302413 233.2732 
L 525.973477 233.2732 
L 525.973477 229.309866 
L 527.644542 229.309866 
L 527.644542 218.21253 
L 529.315606 218.21253 
L 529.315606 214.513418 
L 530.98667 214.513418 
L 530.98667 208.700527 
L 532.657734 208.700527 
L 532.657734 198.924303 
L 534.328799 198.924303 
L 534.328799 185.713188 
L 535.999863 185.713188 
L 535.999863 179.371853 
L 537.670927 179.371853 
L 537.670927 169.595629 
L 539.341991 169.595629 
L 539.341991 174.35163 
L 541.013056 174.35163 
L 541.013056 148.98629 
L 542.68412 148.98629 
L 542.68412 153.478069 
L 544.355184 153.478069 
L 544.355184 137.360509 
L 546.026248 137.360509 
L 546.026248 133.661397 
L 547.697313 133.661397 
L 547.697313 115.165837 
L 549.368377 115.165837 
L 549.368377 99.3125 
L 551.039441 99.3125 
L 551.039441 115.430059 
L 552.710505 115.430059 
L 552.710505 96.141832 
L 554.38157 96.141832 
L 554.38157 110.145614 
L 556.052634 110.145614 
L 556.052634 96.406055 
L 557.723698 96.406055 
L 557.723698 81.345384 
L 559.394762 81.345384 
L 559.394762 82.402273 
L 561.065827 82.402273 
L 561.065827 77.646272 
L 562.736891 77.646272 
L 562.736891 52.809377 
L 564.407955 52.809377 
L 564.407955 57.829601 
L 566.079019 57.829601 
L 566.079019 45.939598 
L 567.750084 45.939598 
L 567.750084 56.772711 
L 569.421148 56.772711 
L 569.421148 56.244267 
L 571.092212 56.244267 
L 571.092212 58.88649 
L 572.763276 58.88649 
L 572.763276 32.992705 
L 574.434341 32.992705 
L 574.434341 55.980045 
L 576.105405 55.980045 
L 576.105405 46.732264 
L 577.776469 46.732264 
L 577.776469 40.39093 
L 579.447533 40.39093 
L 579.447533 48.846043 
L 581.118598 48.846043 
L 581.118598 49.110265 
L 582.789662 49.110265 
L 582.789662 52.01671 
L 584.460726 52.01671 
L 584.460726 42.76893 
L 586.13179 42.76893 
L 586.13179 70.776493 
L 587.802855 70.776493 
L 587.802855 45.939598 
L 589.473919 45.939598 
L 589.473919 70.51227 
L 591.144983 70.51227 
L 591.144983 57.829601 
L 592.816047 57.829601 
L 592.816047 81.345384 
L 594.487112 81.345384 
L 594.487112 61.26449 
L 596.158176 61.26449 
L 596.158176 78.703161 
L 597.82924 78.703161 
L 597.82924 80.288495 
L 599.500304 80.288495 
L 599.500304 59.943379 
L 601.171369 59.943379 
L 601.171369 73.94716 
L 602.842433 73.94716 
L 602.842433 65.756269 
L 604.513497 65.756269 
L 604.513497 94.028054 
L 606.184561 94.028054 
L 606.184561 74.739827 
L 607.855626 74.739827 
L 607.855626 84.516052 
L 609.52669 84.516052 
L 609.52669 89.536275 
L 611.197754 89.536275 
L 611.197754 87.950941 
L 612.868818 87.950941 
L 612.868818 65.227825 
L 614.539882 65.227825 
L 614.539882 90.328942 
L 616.210947 90.328942 
L 616.210947 82.138051 
L 617.882011 82.138051 
L 617.882011 82.402273 
L 619.553075 82.402273 
L 619.553075 86.101385 
L 621.22414 86.101385 
L 621.22414 77.117828 
L 622.895204 77.117828 
L 622.895204 91.650053 
L 624.566268 91.650053 
L 624.566268 78.174717 
L 626.237332 78.174717 
L 626.237332 92.706943 
L 627.908397 92.706943 
L 627.908397 94.820721 
L 629.579461 94.820721 
L 629.579461 90.328942 
L 631.250525 90.328942 
L 631.250525 95.349166 
L 632.921589 95.349166 
L 632.921589 86.62983 
L 634.592654 86.62983 
L 634.592654 96.934499 
L 636.263718 96.934499 
L 636.263718 96.670277 
L 637.934782 96.670277 
L 637.934782 100.105167 
L 639.605846 100.105167 
L 639.605846 106.182279 
L 641.27691 106.182279 
L 641.27691 114.637393 
L 642.947975 114.637393 
L 642.947975 112.523614 
L 644.619039 112.523614 
L 644.619039 104.861168 
L 646.290103 104.861168 
L 646.290103 113.844726 
L 647.961168 113.844726 
L 647.961168 132.340286 
L 649.632232 132.340286 
L 649.632232 137.360509 
L 651.303296 137.360509 
L 651.303296 136.832065 
L 652.97436 136.832065 
L 652.97436 151.100068 
L 654.645424 151.100068 
L 654.645424 167.746073 
L 656.316489 167.746073 
L 656.316489 170.91674 
L 657.987553 170.91674 
L 657.987553 165.10385 
L 659.658617 165.10385 
L 659.658617 180.428742 
L 661.329682 180.428742 
L 661.329682 188.091189 
L 663.000746 188.091189 
L 663.000746 195.753635 
L 664.67181 195.753635 
L 664.67181 202.623415 
L 666.342874 202.623415 
L 666.342874 213.192306 
L 668.013938 213.192306 
L 668.013938 218.740974 
L 669.685003 218.740974 
L 669.685003 228.517199 
L 671.356067 228.517199 
L 671.356067 230.8952 
L 673.027131 230.8952 
L 673.027131 238.557646 
L 674.698195 238.557646 
L 674.698195 241.992536 
L 676.36926 241.992536 
L 676.36926 243.313647 
L 678.040324 243.313647 
L 678.040324 244.370536 
L 679.711388 244.370536 
L 679.711388 240.671424 
L 681.382452 240.671424 
L 681.382452 233.2732 
L 683.053517 233.2732 
L 683.053517 224.818087 
L 684.724581 224.818087 
L 684.724581 223.761198 
L 686.395645 223.761198 
L 686.395645 215.041862 
L 688.06671 215.041862 
L 688.06671 202.887637 
L 689.737774 202.887637 
L 689.737774 203.151859 
L 691.408838 203.151859 
L 691.408838 193.904079 
L 693.079902 193.904079 
L 693.079902 187.826967 
L 694.750967 187.826967 
L 694.750967 189.148078 
L 696.422031 189.148078 
L 696.422031 173.030518 
L 698.093095 173.030518 
L 698.093095 177.522297 
L 699.764159 177.522297 
L 699.764159 171.709407 
L 701.435224 171.709407 
L 701.435224 167.746073 
L 703.106288 167.746073 
L 703.106288 162.990071 
L 704.777352 162.990071 
L 704.777352 151.100068 
L 706.448416 151.100068 
L 706.448416 147.929401 
L 708.119481 147.929401 
L 708.119481 152.42118 
L 709.790545 152.42118 
L 709.790545 143.966067 
L 711.461609 143.966067 
L 711.461609 143.437622 
L 713.132673 143.437622 
L 713.132673 155.85607 
L 714.803738 155.85607 
L 714.803738 143.1734 
L 716.474802 143.1734 
L 716.474802 131.547619 
L 718.145866 131.547619 
L 718.145866 123.885173 
L 719.81693 123.885173 
L 719.81693 130.226508 
L 721.487995 130.226508 
L 721.487995 115.165837 
L 723.159059 115.165837 
L 723.159059 108.031835 
L 724.830123 108.031835 
L 724.830123 114.37317 
L 726.501187 114.37317 
L 726.501187 113.844726 
L 728.172252 113.844726 
L 728.172252 121.507172 
L 729.843316 121.507172 
L 729.843316 100.105167 
L 731.51438 100.105167 
L 731.51438 110.145614 
L 733.185444 110.145614 
L 733.185444 119.393394 
L 734.856509 119.393394 
L 734.856509 113.052059 
L 736.527573 113.052059 
L 736.527573 109.617169 
L 738.198637 109.617169 
L 738.198637 112.523614 
L 739.869701 112.523614 
L 739.869701 121.24295 
L 741.540766 121.24295 
L 741.540766 114.637393 
L 743.21183 114.637393 
L 743.21183 119.129171 
L 744.882894 119.129171 
L 744.882894 119.393394 
L 746.553958 119.393394 
L 746.553958 117.015393 
L 748.225023 117.015393 
L 748.225023 120.450283 
L 749.896087 120.450283 
L 749.896087 130.49073 
L 751.567151 130.49073 
L 751.567151 135.510953 
L 753.238215 135.510953 
L 753.238215 130.226508 
L 754.909279 130.226508 
L 754.909279 121.771394 
L 756.580344 121.771394 
L 756.580344 129.698063 
L 758.251408 129.698063 
L 758.251408 138.945843 
L 759.922472 138.945843 
L 759.922472 136.832065 
L 761.593537 136.832065 
L 761.593537 145.022956 
L 763.264601 145.022956 
L 763.264601 151.100068 
L 764.935665 151.100068 
L 764.935665 152.949624 
L 766.606729 152.949624 
L 766.606729 149.514735 
L 768.277793 149.514735 
L 768.277793 146.872512 
L 769.948858 146.872512 
L 769.948858 159.555182 
L 771.619922 159.555182 
L 771.619922 150.307402 
L 773.290986 150.307402 
L 773.290986 157.705626 
L 774.962051 157.705626 
L 774.962051 154.79918 
L 776.633115 154.79918 
L 776.633115 150.043179 
L 778.304179 150.043179 
L 778.304179 161.140515 
L 779.975243 161.140515 
L 779.975243 158.498292 
L 781.646308 158.498292 
L 781.646308 170.652518 
L 783.317372 170.652518 
L 783.317372 169.067184 
L 786.6595 169.067184 
L 786.6595 166.424961 
L 788.330565 166.424961 
L 788.330565 173.030518 
L 790.001629 173.030518 
L 790.001629 173.823185 
L 791.672693 173.823185 
L 791.672693 184.392077 
L 793.343757 184.392077 
L 793.343757 176.993853 
L 795.014822 176.993853 
L 795.014822 187.826967 
L 796.685886 187.826967 
L 796.685886 184.656299 
L 798.35695 184.656299 
L 798.35695 190.997634 
L 800.028014 190.997634 
L 800.028014 192.054523 
L 801.699079 192.054523 
L 801.699079 182.278298 
L 803.370143 182.278298 
L 803.370143 201.830748 
L 805.041207 201.830748 
L 805.041207 195.753635 
L 806.712271 195.753635 
L 806.712271 202.623415 
L 808.383336 202.623415 
L 808.383336 207.115194 
L 810.0544 207.115194 
L 810.0544 204.208748 
L 811.725464 204.208748 
L 811.725464 211.606972 
L 813.396528 211.606972 
L 813.396528 220.854753 
L 816.738657 220.854753 
L 816.738657 224.02542 
L 818.409721 224.02542 
L 818.409721 227.46031 
L 820.080785 227.46031 
L 820.080785 228.252977 
L 821.75185 228.252977 
L 821.75185 226.931865 
L 823.422914 226.931865 
L 823.422914 231.687866 
L 825.093978 231.687866 
L 825.093978 237.236534 
L 826.765042 237.236534 
L 826.765042 236.972312 
L 828.436107 236.972312 
L 828.436107 237.764979 
L 830.107171 237.764979 
L 830.107171 241.199869 
L 831.778235 241.199869 
L 831.778235 244.106314 
L 833.449299 244.106314 
L 833.449299 241.464091 
L 835.120363 241.464091 
L 835.120363 244.634759 
L 836.791428 244.634759 
L 836.791428 246.220092 
L 838.462492 246.220092 
L 838.462492 246.484315 
L 848.488877 246.484315 
L 848.488877 246.484315 
" clip-path="url(#p581bfede86)" style="fill: none; stroke: #1f77b4; stroke-width: 1.5; stroke-linecap: square"/>
   </g>
   <g id="line2d_40">
    <path d="M 514.276028 246.484315 
L 522.631349 246.484315 
L 522.631349 244.634759 
L 524.302413 244.634759 
L 524.302413 233.2732 
L 525.973477 233.2732 
L 525.973477 230.102533 
L 527.644542 230.102533 
L 527.644542 217.684085 
L 529.315606 217.684085 
L 529.315606 212.135417 
L 530.98667 212.135417 
L 530.98667 209.228972 
L 532.657734 209.228972 
L 532.657734 195.489413 
L 534.328799 195.489413 
L 534.328799 191.790301 
L 535.999863 191.790301 
L 535.999863 178.050742 
L 537.670927 178.050742 
L 537.670927 172.766296 
L 539.341991 172.766296 
L 539.341991 171.973629 
L 541.013056 171.973629 
L 541.013056 150.835846 
L 542.68412 150.835846 
L 542.68412 145.5514 
L 544.355184 145.5514 
L 544.355184 140.795399 
L 546.026248 140.795399 
L 546.026248 130.226508 
L 547.697313 130.226508 
L 547.697313 115.694282 
L 549.368377 115.694282 
L 549.368377 106.182279 
L 551.039441 106.182279 
L 551.039441 110.674058 
L 552.710505 110.674058 
L 552.710505 103.011612 
L 554.38157 103.011612 
L 554.38157 105.918057 
L 556.052634 105.918057 
L 556.052634 87.686719 
L 557.723698 87.686719 
L 557.723698 81.345384 
L 559.394762 81.345384 
L 559.394762 87.158275 
L 561.065827 87.158275 
L 561.065827 81.081162 
L 562.736891 81.081162 
L 562.736891 45.411153 
L 564.407955 45.411153 
L 564.407955 58.093823 
L 566.079019 58.093823 
L 566.079019 53.602044 
L 567.750084 53.602044 
L 567.750084 56.508489 
L 569.421148 56.508489 
L 569.421148 58.093823 
L 571.092212 58.093823 
L 571.092212 55.187378 
L 572.763276 55.187378 
L 572.763276 47.260709 
L 574.434341 47.260709 
L 574.434341 53.073599 
L 576.105405 53.073599 
L 576.105405 36.427595 
L 577.776469 36.427595 
L 577.776469 35.106484 
L 579.447533 35.106484 
L 579.447533 55.715822 
L 581.118598 55.715822 
L 581.118598 47.789154 
L 582.789662 47.789154 
L 582.789662 55.4516 
L 584.460726 55.4516 
L 584.460726 44.618486 
L 586.13179 44.618486 
L 586.13179 61.792935 
L 587.802855 61.792935 
L 587.802855 48.053376 
L 589.473919 48.053376 
L 589.473919 74.739827 
L 591.144983 74.739827 
L 591.144983 68.13427 
L 592.816047 68.13427 
L 592.816047 71.304937 
L 594.487112 71.304937 
L 594.487112 61.26449 
L 596.158176 61.26449 
L 596.158176 82.666496 
L 597.82924 82.666496 
L 597.82924 66.020492 
L 599.500304 66.020492 
L 599.500304 72.890271 
L 601.171369 72.890271 
L 601.171369 71.040715 
L 602.842433 71.040715 
L 602.842433 65.492047 
L 604.513497 65.492047 
L 604.513497 79.495828 
L 606.184561 79.495828 
L 606.184561 89.272053 
L 607.855626 89.272053 
L 607.855626 87.158275 
L 609.52669 87.158275 
L 609.52669 85.572941 
L 611.197754 85.572941 
L 611.197754 86.365608 
L 612.868818 86.365608 
L 612.868818 75.004049 
L 614.539882 75.004049 
L 614.539882 81.873829 
L 616.210947 81.873829 
L 616.210947 82.402273 
L 617.882011 82.402273 
L 617.882011 83.723385 
L 619.553075 83.723385 
L 619.553075 82.138051 
L 621.22414 82.138051 
L 621.22414 84.780274 
L 622.895204 84.780274 
L 622.895204 85.837163 
L 624.566268 85.837163 
L 624.566268 82.666496 
L 626.237332 82.666496 
L 626.237332 85.044496 
L 627.908397 85.044496 
L 627.908397 98.255611 
L 629.579461 98.255611 
L 629.579461 97.991388 
L 631.250525 97.991388 
L 631.250525 91.121609 
L 632.921589 91.121609 
L 632.921589 86.101385 
L 634.592654 86.101385 
L 634.592654 93.49961 
L 636.263718 93.49961 
L 636.263718 91.650053 
L 637.934782 91.650053 
L 637.934782 106.710724 
L 639.605846 106.710724 
L 639.605846 107.767613 
L 641.27691 107.767613 
L 641.27691 115.430059 
L 642.947975 115.430059 
L 642.947975 105.653835 
L 644.619039 105.653835 
L 644.619039 111.730947 
L 646.290103 111.730947 
L 646.290103 115.958504 
L 647.961168 115.958504 
L 647.961168 124.413617 
L 649.632232 124.413617 
L 649.632232 141.852288 
L 651.303296 141.852288 
L 651.303296 137.888954 
L 652.97436 137.888954 
L 652.97436 152.949624 
L 654.645424 152.949624 
L 654.645424 162.725849 
L 656.316489 162.725849 
L 656.316489 168.802962 
L 657.987553 168.802962 
L 657.987553 167.48185 
L 659.658617 167.48185 
L 659.658617 183.863632 
L 661.329682 183.863632 
L 661.329682 185.97741 
L 663.000746 185.97741 
L 663.000746 194.696746 
L 664.67181 194.696746 
L 664.67181 203.680304 
L 666.342874 203.680304 
L 666.342874 212.663862 
L 668.013938 212.663862 
L 668.013938 218.21253 
L 669.685003 218.21253 
L 669.685003 227.988754 
L 671.356067 227.988754 
L 671.356067 231.952089 
L 673.027131 231.952089 
L 673.027131 237.764979 
L 674.698195 237.764979 
L 674.698195 242.256758 
L 676.36926 242.256758 
L 676.36926 243.313647 
L 679.711388 243.313647 
L 679.711388 239.614535 
L 681.382452 239.614535 
L 681.382452 233.801645 
L 683.053517 233.801645 
L 683.053517 225.082309 
L 684.724581 225.082309 
L 684.724581 222.175864 
L 686.395645 222.175864 
L 686.395645 214.249195 
L 688.06671 214.249195 
L 688.06671 204.208748 
L 689.737774 204.208748 
L 689.737774 201.566526 
L 691.408838 201.566526 
L 691.408838 194.960968 
L 693.079902 194.960968 
L 693.079902 190.204967 
L 694.750967 190.204967 
L 694.750967 189.148078 
L 696.422031 189.148078 
L 696.422031 171.180962 
L 698.093095 171.180962 
L 698.093095 177.522297 
L 699.764159 177.522297 
L 699.764159 174.35163 
L 701.435224 174.35163 
L 701.435224 165.632294 
L 703.106288 165.632294 
L 703.106288 161.404738 
L 704.777352 161.404738 
L 704.777352 149.514735 
L 706.448416 149.514735 
L 706.448416 152.42118 
L 708.119481 152.42118 
L 708.119481 149.514735 
L 709.790545 149.514735 
L 709.790545 138.417399 
L 711.461609 138.417399 
L 711.461609 156.912959 
L 713.132673 156.912959 
L 713.132673 145.815623 
L 714.803738 145.815623 
L 714.803738 139.210065 
L 716.474802 139.210065 
L 716.474802 138.945843 
L 718.145866 138.945843 
L 718.145866 125.734729 
L 719.81693 125.734729 
L 719.81693 124.67784 
L 721.487995 124.67784 
L 721.487995 116.222726 
L 723.159059 116.222726 
L 723.159059 114.37317 
L 724.830123 114.37317 
L 724.830123 106.710724 
L 726.501187 106.710724 
L 726.501187 117.015393 
L 728.172252 117.015393 
L 728.172252 109.352947 
L 729.843316 109.352947 
L 729.843316 111.202503 
L 731.51438 111.202503 
L 731.51438 113.580503 
L 733.185444 113.580503 
L 733.185444 118.600727 
L 734.856509 118.600727 
L 734.856509 108.56028 
L 736.527573 108.56028 
L 736.527573 107.239169 
L 738.198637 107.239169 
L 738.198637 116.751171 
L 739.869701 116.751171 
L 739.869701 118.864949 
L 741.540766 118.864949 
L 741.540766 124.149395 
L 743.21183 124.149395 
L 743.21183 112.787837 
L 744.882894 112.787837 
L 744.882894 119.129171 
L 746.553958 119.129171 
L 746.553958 119.393394 
L 748.225023 119.393394 
L 748.225023 123.885173 
L 749.896087 123.885173 
L 749.896087 129.962285 
L 753.238215 129.962285 
L 753.238215 129.433841 
L 754.909279 129.433841 
L 754.909279 123.885173 
L 756.580344 123.885173 
L 756.580344 128.641174 
L 758.251408 128.641174 
L 758.251408 136.832065 
L 759.922472 136.832065 
L 759.922472 139.210065 
L 761.593537 139.210065 
L 761.593537 146.872512 
L 763.264601 146.872512 
L 763.264601 154.79918 
L 764.935665 154.79918 
L 764.935665 146.60829 
L 766.606729 146.60829 
L 766.606729 147.400956 
L 768.277793 147.400956 
L 768.277793 158.498292 
L 769.948858 158.498292 
L 769.948858 151.892735 
L 771.619922 151.892735 
L 771.619922 153.742291 
L 773.290986 153.742291 
L 773.290986 153.478069 
L 774.962051 153.478069 
L 774.962051 152.685402 
L 776.633115 152.685402 
L 776.633115 156.120292 
L 778.304179 156.120292 
L 778.304179 155.327625 
L 779.975243 155.327625 
L 779.975243 165.10385 
L 781.646308 165.10385 
L 781.646308 162.990071 
L 783.317372 162.990071 
L 783.317372 172.237851 
L 784.988436 172.237851 
L 784.988436 171.445185 
L 786.6595 171.445185 
L 786.6595 170.124073 
L 788.330565 170.124073 
L 788.330565 169.859851 
L 790.001629 169.859851 
L 790.001629 178.314964 
L 791.672693 178.314964 
L 791.672693 175.672741 
L 793.343757 175.672741 
L 793.343757 183.070965 
L 795.014822 183.070965 
L 795.014822 185.713188 
L 796.685886 185.713188 
L 796.685886 182.278298 
L 798.35695 182.278298 
L 798.35695 191.261856 
L 800.028014 191.261856 
L 800.028014 187.826967 
L 801.699079 187.826967 
L 801.699079 189.4123 
L 803.370143 189.4123 
L 803.370143 197.074747 
L 805.041207 197.074747 
L 805.041207 200.509636 
L 806.712271 200.509636 
L 806.712271 202.09497 
L 808.383336 202.09497 
L 808.383336 206.322527 
L 810.0544 206.322527 
L 810.0544 204.208748 
L 811.725464 204.208748 
L 811.725464 211.606972 
L 813.396528 211.606972 
L 813.396528 220.59053 
L 815.067593 220.59053 
L 815.067593 219.269419 
L 816.738657 219.269419 
L 816.738657 223.496975 
L 818.409721 223.496975 
L 818.409721 229.045644 
L 820.080785 229.045644 
L 820.080785 227.46031 
L 821.75185 227.46031 
L 821.75185 229.309866 
L 823.422914 229.309866 
L 823.422914 229.045644 
L 825.093978 229.045644 
L 825.093978 238.557646 
L 826.765042 238.557646 
L 826.765042 235.915423 
L 828.436107 235.915423 
L 828.436107 238.029201 
L 830.107171 238.029201 
L 830.107171 241.464091 
L 831.778235 241.464091 
L 831.778235 244.370536 
L 833.449299 244.370536 
L 833.449299 241.464091 
L 835.120363 241.464091 
L 835.120363 244.106314 
L 836.791428 244.106314 
L 836.791428 245.691648 
L 838.462492 245.691648 
L 838.462492 245.95587 
L 840.133556 245.95587 
L 840.133556 246.484315 
L 848.488877 246.484315 
L 848.488877 246.484315 
" clip-path="url(#p581bfede86)" style="fill: none; stroke: #ff7f0e; stroke-width: 1.5; stroke-linecap: square"/>
   </g>
   <g id="patch_9">
    <path d="M 497.565385 257.158895 
L 497.565385 22.318125 
" style="fill: none; stroke: #000000; stroke-width: 0.8; stroke-linejoin: miter; stroke-linecap: square"/>
   </g>
   <g id="patch_10">
    <path d="M 865.19952 257.158895 
L 865.19952 22.318125 
" style="fill: none; stroke: #000000; stroke-width: 0.8; stroke-linejoin: miter; stroke-linecap: square"/>
   </g>
   <g id="patch_11">
    <path d="M 497.565385 257.158895 
L 865.19952 257.158895 
" style="fill: none; stroke: #000000; stroke-width: 0.8; stroke-linejoin: miter; stroke-linecap: square"/>
   </g>
   <g id="patch_12">
    <path d="M 497.565385 22.318125 
L 865.19952 22.318125 
" style="fill: none; stroke: #000000; stroke-width: 0.8; stroke-linejoin: miter; stroke-linecap: square"/>
   </g>
   <g id="text_42">
    <!-- Pixel 2 -->
    <g transform="translate(661.78589 16.318125) scale(0.12 -0.12)">
     <use xlink:href="#DejaVuSans-50"/>
     <use xlink:href="#DejaVuSans-69" transform="translate(58.052734 0)"/>
     <use xlink:href="#DejaVuSans-78" transform="translate(85.835938 0)"/>
     <use xlink:href="#DejaVuSans-65" transform="translate(141.890625 0)"/>
     <use xlink:href="#DejaVuSans-6c" transform="translate(203.414062 0)"/>
     <use xlink:href="#DejaVuSans-20" transform="translate(231.197266 0)"/>
     <use xlink:href="#DejaVuSans-32" transform="translate(262.984375 0)"/>
    </g>
   </g>
   <g id="legend_2">
    <g id="patch_13">
     <path d="M 761.196395 59.9525 
L 858.19952 59.9525 
Q 860.19952 59.9525 860.19952 57.9525 
L 860.19952 29.318125 
Q 860.19952 27.318125 858.19952 27.318125 
L 761.196395 27.318125 
Q 759.196395 27.318125 759.196395 29.318125 
L 759.196395 57.9525 
Q 759.196395 59.9525 761.196395 59.9525 
z
" style="fill: #ffffff; opacity: 0.8; stroke: #cccccc; stroke-linejoin: miter"/>
    </g>
    <g id="line2d_41">
     <path d="M 763.196395 35.416562 
L 763.196395 35.416562 
L 773.196395 35.416562 
L 773.196395 35.416562 
L 783.196395 35.416562 
" style="fill: none; stroke: #1f77b4; stroke-width: 1.5; stroke-linecap: square"/>
    </g>
    <g id="text_43">
     <!-- wfm -->
     <g transform="translate(791.196395 38.916562) scale(0.1 -0.1)">
      <use xlink:href="#DejaVuSans-77"/>
      <use xlink:href="#DejaVuSans-66" transform="translate(81.787109 0)"/>
      <use xlink:href="#DejaVuSans-6d" transform="translate(116.992188 0)"/>
     </g>
    </g>
    <g id="line2d_42">
     <path d="M 763.196395 50.094687 
L 763.196395 50.094687 
L 773.196395 50.094687 
L 773.196395 50.094687 
L 783.196395 50.094687 
" style="fill: none; stroke: #ff7f0e; stroke-width: 1.5; stroke-linecap: square"/>
    </g>
    <g id="text_44">
     <!-- ground_truth -->
     <g transform="translate(791.196395 53.594687) scale(0.1 -0.1)">
      <use xlink:href="#DejaVuSans-67"/>
      <use xlink:href="#DejaVuSans-72" transform="translate(63.476562 0)"/>
      <use xlink:href="#DejaVuSans-6f" transform="translate(102.339844 0)"/>
      <use xlink:href="#DejaVuSans-75" transform="translate(163.521484 0)"/>
      <use xlink:href="#DejaVuSans-6e" transform="translate(226.900391 0)"/>
      <use xlink:href="#DejaVuSans-64" transform="translate(290.279297 0)"/>
      <use xlink:href="#DejaVuSans-5f" transform="translate(353.755859 0)"/>
      <use xlink:href="#DejaVuSans-74" transform="translate(403.755859 0)"/>
      <use xlink:href="#DejaVuSans-72" transform="translate(442.964844 0)"/>
      <use xlink:href="#DejaVuSans-75" transform="translate(484.078125 0)"/>
      <use xlink:href="#DejaVuSans-74" transform="translate(547.457031 0)"/>
      <use xlink:href="#DejaVuSans-68" transform="translate(586.666016 0)"/>
     </g>
    </g>
   </g>
  </g>
 </g>
 <defs>
  <clipPath id="pb48582e09d">
   <rect x="46.965625" y="22.318125" width="367.634135" height="234.84077"/>
  </clipPath>
  <clipPath id="p581bfede86">
   <rect x="497.565385" y="22.318125" width="367.634135" height="234.84077"/>
  </clipPath>
 </defs>
</svg>
