<?xml version="1.0" encoding="utf-8" standalone="no"?>
<!DOCTYPE svg PUBLIC "-//W3C//DTD SVG 1.1//EN"
  "http://www.w3.org/Graphics/SVG/1.1/DTD/svg11.dtd">
<svg xmlns:xlink="http://www.w3.org/1999/xlink" width="398.469422pt" height="266.51625pt" viewBox="0 0 398.469422 266.51625" xmlns="http://www.w3.org/2000/svg" version="1.1">
 <metadata>
  <rdf:RDF xmlns:dc="http://purl.org/dc/elements/1.1/" xmlns:cc="http://creativecommons.org/ns#" xmlns:rdf="http://www.w3.org/1999/02/22-rdf-syntax-ns#">
   <cc:Work>
    <dc:type rdf:resource="http://purl.org/dc/dcmitype/StillImage"/>
    <dc:date>2026-02-24T15:28:41.268166</dc:date>
    <dc:format>image/svg+xml</dc:format>
    <dc:creator>
     <cc:Agent>
      <dc:title>Matplotlib v3.10.8, https://matplotlib.org/</dc:title>
     </cc:Agent>
    </dc:creator>
   </cc:Work>
  </rdf:RDF>
 </metadata>
 <defs>
  <style type="text/css">*{stroke-linejoin: round; stroke-linecap: butt}</style>
 </defs>
 <g id="figure_1">
  <g id="patch_1">
   <path d="M 0 266.51625 
L 398.469422 266.51625 
L 398.469422 0 
L 0 0 
z
" style="fill: #ffffff"/>
  </g>
  <g id="axes_1">
   <g id="patch_2">
    <path d="M 46.965625 228.96 
L 381.765625 228.96 
L 381.765625 7.2 
L 46.965625 7.2 
z
" style="fill: #ffffff"/>
   </g>
   <g id="matplotlib.axis_1">
    <g id="xtick_1">
     <g id="line2d_1">
      <defs>
       <path id="mb92ecff5ad" d="M 0 0 
L 0 3.5 
" style="stroke: #000000; stroke-width: 0.8"/>
      </defs>
      <g>
       <use xlink:href="#mb92ecff5ad" x="71.093819" y="228.96" style="stroke: #000000; stroke-width: 0.8"/>
      </g>
     </g>
     <g id="text_1">
      <!-- 20000 -->
      <g transform="translate(55.187569 243.558437) scale(0.1 -0.1)">
       <defs>
        <path id="DejaVuSans-32" d="M 1228 531 
L 3431 531 
L 3431 0 
L 469 0 
L 469 531 
Q 828 903 1448 1529 
Q 2069 2156 2228 2338 
Q 2531 2678 2651 2914 
Q 2772 3150 2772 3378 
Q 2772 3750 2511 3984 
Q 2250 4219 1831 4219 
Q 1534 4219 1204 4116 
Q 875 4013 500 3803 
L 500 4441 
Q 881 4594 1212 4672 
Q 1544 4750 1819 4750 
Q 2544 4750 2975 4387 
Q 3406 4025 3406 3419 
Q 3406 3131 3298 2873 
Q 3191 2616 2906 2266 
Q 2828 2175 2409 1742 
Q 1991 1309 1228 531 
z
" transform="scale(0.015625)"/>
        <path id="DejaVuSans-30" d="M 2034 4250 
Q 1547 4250 1301 3770 
Q 1056 3291 1056 2328 
Q 1056 1369 1301 889 
Q 1547 409 2034 409 
Q 2525 409 2770 889 
Q 3016 1369 3016 2328 
Q 3016 3291 2770 3770 
Q 2525 4250 2034 4250 
z
M 2034 4750 
Q 2819 4750 3233 4129 
Q 3647 3509 3647 2328 
Q 3647 1150 3233 529 
Q 2819 -91 2034 -91 
Q 1250 -91 836 529 
Q 422 1150 422 2328 
Q 422 3509 836 4129 
Q 1250 4750 2034 4750 
z
" transform="scale(0.015625)"/>
       </defs>
       <use xlink:href="#DejaVuSans-32"/>
       <use xlink:href="#DejaVuSans-30" transform="translate(63.623047 0)"/>
       <use xlink:href="#DejaVuSans-30" transform="translate(127.246094 0)"/>
       <use xlink:href="#DejaVuSans-30" transform="translate(190.869141 0)"/>
       <use xlink:href="#DejaVuSans-30" transform="translate(254.492188 0)"/>
      </g>
     </g>
    </g>
    <g id="xtick_2">
     <g id="line2d_2">
      <g>
       <use xlink:href="#mb92ecff5ad" x="114.560869" y="228.96" style="stroke: #000000; stroke-width: 0.8"/>
      </g>
     </g>
     <g id="text_2">
      <!-- 30000 -->
      <g transform="translate(98.654619 243.558437) scale(0.1 -0.1)">
       <defs>
        <path id="DejaVuSans-33" d="M 2597 2516 
Q 3050 2419 3304 2112 
Q 3559 1806 3559 1356 
Q 3559 666 3084 287 
Q 2609 -91 1734 -91 
Q 1441 -91 1130 -33 
Q 819 25 488 141 
L 488 750 
Q 750 597 1062 519 
Q 1375 441 1716 441 
Q 2309 441 2620 675 
Q 2931 909 2931 1356 
Q 2931 1769 2642 2001 
Q 2353 2234 1838 2234 
L 1294 2234 
L 1294 2753 
L 1863 2753 
Q 2328 2753 2575 2939 
Q 2822 3125 2822 3475 
Q 2822 3834 2567 4026 
Q 2313 4219 1838 4219 
Q 1578 4219 1281 4162 
Q 984 4106 628 3988 
L 628 4550 
Q 988 4650 1302 4700 
Q 1616 4750 1894 4750 
Q 2613 4750 3031 4423 
Q 3450 4097 3450 3541 
Q 3450 3153 3228 2886 
Q 3006 2619 2597 2516 
z
" transform="scale(0.015625)"/>
       </defs>
       <use xlink:href="#DejaVuSans-33"/>
       <use xlink:href="#DejaVuSans-30" transform="translate(63.623047 0)"/>
       <use xlink:href="#DejaVuSans-30" transform="translate(127.246094 0)"/>
       <use xlink:href="#DejaVuSans-30" transform="translate(190.869141 0)"/>
       <use xlink:href="#DejaVuSans-30" transform="translate(254.492188 0)"/>
      </g>
     </g>
    </g>
    <g id="xtick_3">
     <g id="line2d_3">
      <g>
       <use xlink:href="#mb92ecff5ad" x="158.02792" y="228.96" style="stroke: #000000; stroke-width: 0.8"/>
      </g>
     </g>
     <g id="text_3">
      <!-- 40000 -->
      <g transform="translate(142.12167 243.558437) scale(0.1 -0.1)">
       <defs>
        <path id="DejaVuSans-34" d="M 2419 4116 
L 825 1625 
L 2419 1625 
L 2419 4116 
z
M 2253 4666 
L 3047 4666 
L 3047 1625 
L 3713 1625 
L 3713 1100 
L 3047 1100 
L 3047 0 
L 2419 0 
L 2419 1100 
L 313 1100 
L 313 1709 
L 2253 4666 
z
" transform="scale(0.015625)"/>
       </defs>
       <use xlink:href="#DejaVuSans-34"/>
       <use xlink:href="#DejaVuSans-30" transform="translate(63.623047 0)"/>
       <use xlink:href="#DejaVuSans-30" transform="translate(127.246094 0)"/>
       <use xlink:href="#DejaVuSans-30" transform="translate(190.869141 0)"/>
       <use xlink:href="#DejaVuSans-30" transform="translate(254.492188 0)"/>
      </g>
     </g>
    </g>
    <g id="xtick_4">
     <g id="line2d_4">
      <g>
       <use xlink:href="#mb92ecff5ad" x="201.49497" y="228.96" style="stroke: #000000; stroke-width: 0.8"/>
      </g>
     </g>
     <g id="text_4">
      <!-- 50000 -->
      <g transform="translate(185.58872 243.558437) scale(0.1 -0.1)">
       <defs>
        <path id="DejaVuSans-35" d="M 691 4666 
L 3169 4666 
L 3169 4134 
L 1269 4134 
L 1269 2991 
Q 1406 3038 1543 3061 
Q 1681 3084 1819 3084 
Q 2600 3084 3056 2656 
Q 3513 2228 3513 1497 
Q 3513 744 3044 326 
Q 2575 -91 1722 -91 
Q 1428 -91 1123 -41 
Q 819 9 494 109 
L 494 744 
Q 775 591 1075 516 
Q 1375 441 1709 441 
Q 2250 441 2565 725 
Q 2881 1009 2881 1497 
Q 2881 1984 2565 2268 
Q 2250 2553 1709 2553 
Q 1456 2553 1204 2497 
Q 953 2441 691 2322 
L 691 4666 
z
" transform="scale(0.015625)"/>
       </defs>
       <use xlink:href="#DejaVuSans-35"/>
       <use xlink:href="#DejaVuSans-30" transform="translate(63.623047 0)"/>
       <use xlink:href="#DejaVuSans-30" transform="translate(127.246094 0)"/>
       <use xlink:href="#DejaVuSans-30" transform="translate(190.869141 0)"/>
       <use xlink:href="#DejaVuSans-30" transform="translate(254.492188 0)"/>
      </g>
     </g>
    </g>
    <g id="xtick_5">
     <g id="line2d_5">
      <g>
       <use xlink:href="#mb92ecff5ad" x="244.96202" y="228.96" style="stroke: #000000; stroke-width: 0.8"/>
      </g>
     </g>
     <g id="text_5">
      <!-- 60000 -->
      <g transform="translate(229.05577 243.558437) scale(0.1 -0.1)">
       <defs>
        <path id="DejaVuSans-36" d="M 2113 2584 
Q 1688 2584 1439 2293 
Q 1191 2003 1191 1497 
Q 1191 994 1439 701 
Q 1688 409 2113 409 
Q 2538 409 2786 701 
Q 3034 994 3034 1497 
Q 3034 2003 2786 2293 
Q 2538 2584 2113 2584 
z
M 3366 4563 
L 3366 3988 
Q 3128 4100 2886 4159 
Q 2644 4219 2406 4219 
Q 1781 4219 1451 3797 
Q 1122 3375 1075 2522 
Q 1259 2794 1537 2939 
Q 1816 3084 2150 3084 
Q 2853 3084 3261 2657 
Q 3669 2231 3669 1497 
Q 3669 778 3244 343 
Q 2819 -91 2113 -91 
Q 1303 -91 875 529 
Q 447 1150 447 2328 
Q 447 3434 972 4092 
Q 1497 4750 2381 4750 
Q 2619 4750 2861 4703 
Q 3103 4656 3366 4563 
z
" transform="scale(0.015625)"/>
       </defs>
       <use xlink:href="#DejaVuSans-36"/>
       <use xlink:href="#DejaVuSans-30" transform="translate(63.623047 0)"/>
       <use xlink:href="#DejaVuSans-30" transform="translate(127.246094 0)"/>
       <use xlink:href="#DejaVuSans-30" transform="translate(190.869141 0)"/>
       <use xlink:href="#DejaVuSans-30" transform="translate(254.492188 0)"/>
      </g>
     </g>
    </g>
    <g id="xtick_6">
     <g id="line2d_6">
      <g>
       <use xlink:href="#mb92ecff5ad" x="288.429071" y="228.96" style="stroke: #000000; stroke-width: 0.8"/>
      </g>
     </g>
     <g id="text_6">
      <!-- 70000 -->
      <g transform="translate(272.522821 243.558437) scale(0.1 -0.1)">
       <defs>
        <path id="DejaVuSans-37" d="M 525 4666 
L 3525 4666 
L 3525 4397 
L 1831 0 
L 1172 0 
L 2766 4134 
L 525 4134 
L 525 4666 
z
" transform="scale(0.015625)"/>
       </defs>
       <use xlink:href="#DejaVuSans-37"/>
       <use xlink:href="#DejaVuSans-30" transform="translate(63.623047 0)"/>
       <use xlink:href="#DejaVuSans-30" transform="translate(127.246094 0)"/>
       <use xlink:href="#DejaVuSans-30" transform="translate(190.869141 0)"/>
       <use xlink:href="#DejaVuSans-30" transform="translate(254.492188 0)"/>
      </g>
     </g>
    </g>
    <g id="xtick_7">
     <g id="line2d_7">
      <g>
       <use xlink:href="#mb92ecff5ad" x="331.896121" y="228.96" style="stroke: #000000; stroke-width: 0.8"/>
      </g>
     </g>
     <g id="text_7">
      <!-- 80000 -->
      <g transform="translate(315.989871 243.558437) scale(0.1 -0.1)">
       <defs>
        <path id="DejaVuSans-38" d="M 2034 2216 
Q 1584 2216 1326 1975 
Q 1069 1734 1069 1313 
Q 1069 891 1326 650 
Q 1584 409 2034 409 
Q 2484 409 2743 651 
Q 3003 894 3003 1313 
Q 3003 1734 2745 1975 
Q 2488 2216 2034 2216 
z
M 1403 2484 
Q 997 2584 770 2862 
Q 544 3141 544 3541 
Q 544 4100 942 4425 
Q 1341 4750 2034 4750 
Q 2731 4750 3128 4425 
Q 3525 4100 3525 3541 
Q 3525 3141 3298 2862 
Q 3072 2584 2669 2484 
Q 3125 2378 3379 2068 
Q 3634 1759 3634 1313 
Q 3634 634 3220 271 
Q 2806 -91 2034 -91 
Q 1263 -91 848 271 
Q 434 634 434 1313 
Q 434 1759 690 2068 
Q 947 2378 1403 2484 
z
M 1172 3481 
Q 1172 3119 1398 2916 
Q 1625 2713 2034 2713 
Q 2441 2713 2670 2916 
Q 2900 3119 2900 3481 
Q 2900 3844 2670 4047 
Q 2441 4250 2034 4250 
Q 1625 4250 1398 4047 
Q 1172 3844 1172 3481 
z
" transform="scale(0.015625)"/>
       </defs>
       <use xlink:href="#DejaVuSans-38"/>
       <use xlink:href="#DejaVuSans-30" transform="translate(63.623047 0)"/>
       <use xlink:href="#DejaVuSans-30" transform="translate(127.246094 0)"/>
       <use xlink:href="#DejaVuSans-30" transform="translate(190.869141 0)"/>
       <use xlink:href="#DejaVuSans-30" transform="translate(254.492188 0)"/>
      </g>
     </g>
    </g>
    <g id="xtick_8">
     <g id="line2d_8">
      <g>
       <use xlink:href="#mb92ecff5ad" x="375.363172" y="228.96" style="stroke: #000000; stroke-width: 0.8"/>
      </g>
     </g>
     <g id="text_8">
      <!-- 90000 -->
      <g transform="translate(359.456922 243.558437) scale(0.1 -0.1)">
       <defs>
        <path id="DejaVuSans-39" d="M 703 97 
L 703 672 
Q 941 559 1184 500 
Q 1428 441 1663 441 
Q 2288 441 2617 861 
Q 2947 1281 2994 2138 
Q 2813 1869 2534 1725 
Q 2256 1581 1919 1581 
Q 1219 1581 811 2004 
Q 403 2428 403 3163 
Q 403 3881 828 4315 
Q 1253 4750 1959 4750 
Q 2769 4750 3195 4129 
Q 3622 3509 3622 2328 
Q 3622 1225 3098 567 
Q 2575 -91 1691 -91 
Q 1453 -91 1209 -44 
Q 966 3 703 97 
z
M 1959 2075 
Q 2384 2075 2632 2365 
Q 2881 2656 2881 3163 
Q 2881 3666 2632 3958 
Q 2384 4250 1959 4250 
Q 1534 4250 1286 3958 
Q 1038 3666 1038 3163 
Q 1038 2656 1286 2365 
Q 1534 2075 1959 2075 
z
" transform="scale(0.015625)"/>
       </defs>
       <use xlink:href="#DejaVuSans-39"/>
       <use xlink:href="#DejaVuSans-30" transform="translate(63.623047 0)"/>
       <use xlink:href="#DejaVuSans-30" transform="translate(127.246094 0)"/>
       <use xlink:href="#DejaVuSans-30" transform="translate(190.869141 0)"/>
       <use xlink:href="#DejaVuSans-30" transform="translate(254.492188 0)"/>
      </g>
     </g>
    </g>
    <g id="text_9">
     <!-- tof [µs] -->
     <g transform="translate(196.309375 257.236562) scale(0.1 -0.1)">
      <defs>
       <path id="DejaVuSans-74" d="M 1172 4494 
L 1172 3500 
L 2356 3500 
L 2356 3053 
L 1172 3053 
L 1172 1153 
Q 1172 725 1289 603 
Q 1406 481 1766 481 
L 2356 481 
L 2356 0 
L 1766 0 
Q 1100 0 847 248 
Q 594 497 594 1153 
L 594 3053 
L 172 3053 
L 172 3500 
L 594 3500 
L 594 4494 
L 1172 4494 
z
" transform="scale(0.015625)"/>
       <path id="DejaVuSans-6f" d="M 1959 3097 
Q 1497 3097 1228 2736 
Q 959 2375 959 1747 
Q 959 1119 1226 758 
Q 1494 397 1959 397 
Q 2419 397 2687 759 
Q 2956 1122 2956 1747 
Q 2956 2369 2687 2733 
Q 2419 3097 1959 3097 
z
M 1959 3584 
Q 2709 3584 3137 3096 
Q 3566 2609 3566 1747 
Q 3566 888 3137 398 
Q 2709 -91 1959 -91 
Q 1206 -91 779 398 
Q 353 888 353 1747 
Q 353 2609 779 3096 
Q 1206 3584 1959 3584 
z
" transform="scale(0.015625)"/>
       <path id="DejaVuSans-66" d="M 2375 4863 
L 2375 4384 
L 1825 4384 
Q 1516 4384 1395 4259 
Q 1275 4134 1275 3809 
L 1275 3500 
L 2222 3500 
L 2222 3053 
L 1275 3053 
L 1275 0 
L 697 0 
L 697 3053 
L 147 3053 
L 147 3500 
L 697 3500 
L 697 3744 
Q 697 4328 969 4595 
Q 1241 4863 1831 4863 
L 2375 4863 
z
" transform="scale(0.015625)"/>
       <path id="DejaVuSans-20" transform="scale(0.015625)"/>
       <path id="DejaVuSans-5b" d="M 550 4863 
L 1875 4863 
L 1875 4416 
L 1125 4416 
L 1125 -397 
L 1875 -397 
L 1875 -844 
L 550 -844 
L 550 4863 
z
" transform="scale(0.015625)"/>
       <path id="DejaVuSans-b5" d="M 544 -1331 
L 544 3500 
L 1119 3500 
L 1119 1325 
Q 1119 872 1334 640 
Q 1550 409 1972 409 
Q 2434 409 2667 671 
Q 2900 934 2900 1459 
L 2900 3500 
L 3475 3500 
L 3475 806 
Q 3475 619 3529 530 
Q 3584 441 3700 441 
Q 3728 441 3778 458 
Q 3828 475 3916 513 
L 3916 50 
Q 3788 -22 3673 -56 
Q 3559 -91 3450 -91 
Q 3234 -91 3106 31 
Q 2978 153 2931 403 
Q 2775 156 2548 32 
Q 2322 -91 2016 -91 
Q 1697 -91 1473 31 
Q 1250 153 1119 397 
L 1119 -1331 
L 544 -1331 
z
" transform="scale(0.015625)"/>
       <path id="DejaVuSans-73" d="M 2834 3397 
L 2834 2853 
Q 2591 2978 2328 3040 
Q 2066 3103 1784 3103 
Q 1356 3103 1142 2972 
Q 928 2841 928 2578 
Q 928 2378 1081 2264 
Q 1234 2150 1697 2047 
L 1894 2003 
Q 2506 1872 2764 1633 
Q 3022 1394 3022 966 
Q 3022 478 2636 193 
Q 2250 -91 1575 -91 
Q 1294 -91 989 -36 
Q 684 19 347 128 
L 347 722 
Q 666 556 975 473 
Q 1284 391 1588 391 
Q 1994 391 2212 530 
Q 2431 669 2431 922 
Q 2431 1156 2273 1281 
Q 2116 1406 1581 1522 
L 1381 1569 
Q 847 1681 609 1914 
Q 372 2147 372 2553 
Q 372 3047 722 3315 
Q 1072 3584 1716 3584 
Q 2034 3584 2315 3537 
Q 2597 3491 2834 3397 
z
" transform="scale(0.015625)"/>
       <path id="DejaVuSans-5d" d="M 1947 4863 
L 1947 -844 
L 622 -844 
L 622 -397 
L 1369 -397 
L 1369 4416 
L 622 4416 
L 622 4863 
L 1947 4863 
z
" transform="scale(0.015625)"/>
      </defs>
      <use xlink:href="#DejaVuSans-74"/>
      <use xlink:href="#DejaVuSans-6f" transform="translate(39.208984 0)"/>
      <use xlink:href="#DejaVuSans-66" transform="translate(100.390625 0)"/>
      <use xlink:href="#DejaVuSans-20" transform="translate(135.595703 0)"/>
      <use xlink:href="#DejaVuSans-5b" transform="translate(167.382812 0)"/>
      <use xlink:href="#DejaVuSans-b5" transform="translate(206.396484 0)"/>
      <use xlink:href="#DejaVuSans-73" transform="translate(270.019531 0)"/>
      <use xlink:href="#DejaVuSans-5d" transform="translate(322.119141 0)"/>
     </g>
    </g>
   </g>
   <g id="matplotlib.axis_2">
    <g id="ytick_1">
     <g id="line2d_9">
      <defs>
       <path id="m7131e83723" d="M 0 0 
L -3.5 0 
" style="stroke: #000000; stroke-width: 0.8"/>
      </defs>
      <g>
       <use xlink:href="#m7131e83723" x="46.965625" y="220.043077" style="stroke: #000000; stroke-width: 0.8"/>
      </g>
     </g>
     <g id="text_10">
      <!-- 0 -->
      <g transform="translate(33.603125 223.842296) scale(0.1 -0.1)">
       <use xlink:href="#DejaVuSans-30"/>
      </g>
     </g>
    </g>
    <g id="ytick_2">
     <g id="line2d_10">
      <g>
       <use xlink:href="#m7131e83723" x="46.965625" y="181.273846" style="stroke: #000000; stroke-width: 0.8"/>
      </g>
     </g>
     <g id="text_11">
      <!-- 100 -->
      <g transform="translate(20.878125 185.073065) scale(0.1 -0.1)">
       <defs>
        <path id="DejaVuSans-31" d="M 794 531 
L 1825 531 
L 1825 4091 
L 703 3866 
L 703 4441 
L 1819 4666 
L 2450 4666 
L 2450 531 
L 3481 531 
L 3481 0 
L 794 0 
L 794 531 
z
" transform="scale(0.015625)"/>
       </defs>
       <use xlink:href="#DejaVuSans-31"/>
       <use xlink:href="#DejaVuSans-30" transform="translate(63.623047 0)"/>
       <use xlink:href="#DejaVuSans-30" transform="translate(127.246094 0)"/>
      </g>
     </g>
    </g>
    <g id="ytick_3">
     <g id="line2d_11">
      <g>
       <use xlink:href="#m7131e83723" x="46.965625" y="142.504615" style="stroke: #000000; stroke-width: 0.8"/>
      </g>
     </g>
     <g id="text_12">
      <!-- 200 -->
      <g transform="translate(20.878125 146.303834) scale(0.1 -0.1)">
       <use xlink:href="#DejaVuSans-32"/>
       <use xlink:href="#DejaVuSans-30" transform="translate(63.623047 0)"/>
       <use xlink:href="#DejaVuSans-30" transform="translate(127.246094 0)"/>
      </g>
     </g>
    </g>
    <g id="ytick_4">
     <g id="line2d_12">
      <g>
       <use xlink:href="#m7131e83723" x="46.965625" y="103.735385" style="stroke: #000000; stroke-width: 0.8"/>
      </g>
     </g>
     <g id="text_13">
      <!-- 300 -->
      <g transform="translate(20.878125 107.534603) scale(0.1 -0.1)">
       <use xlink:href="#DejaVuSans-33"/>
       <use xlink:href="#DejaVuSans-30" transform="translate(63.623047 0)"/>
       <use xlink:href="#DejaVuSans-30" transform="translate(127.246094 0)"/>
      </g>
     </g>
    </g>
    <g id="ytick_5">
     <g id="line2d_13">
      <g>
       <use xlink:href="#m7131e83723" x="46.965625" y="64.966154" style="stroke: #000000; stroke-width: 0.8"/>
      </g>
     </g>
     <g id="text_14">
      <!-- 400 -->
      <g transform="translate(20.878125 68.765373) scale(0.1 -0.1)">
       <use xlink:href="#DejaVuSans-34"/>
       <use xlink:href="#DejaVuSans-30" transform="translate(63.623047 0)"/>
       <use xlink:href="#DejaVuSans-30" transform="translate(127.246094 0)"/>
      </g>
     </g>
    </g>
    <g id="ytick_6">
     <g id="line2d_14">
      <g>
       <use xlink:href="#m7131e83723" x="46.965625" y="26.196923" style="stroke: #000000; stroke-width: 0.8"/>
      </g>
     </g>
     <g id="text_15">
      <!-- 500 -->
      <g transform="translate(20.878125 29.996142) scale(0.1 -0.1)">
       <use xlink:href="#DejaVuSans-35"/>
       <use xlink:href="#DejaVuSans-30" transform="translate(63.623047 0)"/>
       <use xlink:href="#DejaVuSans-30" transform="translate(127.246094 0)"/>
      </g>
     </g>
    </g>
    <g id="text_16">
     <!-- [counts] -->
     <g transform="translate(14.798438 138.6925) rotate(-90) scale(0.1 -0.1)">
      <defs>
       <path id="DejaVuSans-63" d="M 3122 3366 
L 3122 2828 
Q 2878 2963 2633 3030 
Q 2388 3097 2138 3097 
Q 1578 3097 1268 2742 
Q 959 2388 959 1747 
Q 959 1106 1268 751 
Q 1578 397 2138 397 
Q 2388 397 2633 464 
Q 2878 531 3122 666 
L 3122 134 
Q 2881 22 2623 -34 
Q 2366 -91 2075 -91 
Q 1284 -91 818 406 
Q 353 903 353 1747 
Q 353 2603 823 3093 
Q 1294 3584 2113 3584 
Q 2378 3584 2631 3529 
Q 2884 3475 3122 3366 
z
" transform="scale(0.015625)"/>
       <path id="DejaVuSans-75" d="M 544 1381 
L 544 3500 
L 1119 3500 
L 1119 1403 
Q 1119 906 1312 657 
Q 1506 409 1894 409 
Q 2359 409 2629 706 
Q 2900 1003 2900 1516 
L 2900 3500 
L 3475 3500 
L 3475 0 
L 2900 0 
L 2900 538 
Q 2691 219 2414 64 
Q 2138 -91 1772 -91 
Q 1169 -91 856 284 
Q 544 659 544 1381 
z
M 1991 3584 
L 1991 3584 
z
" transform="scale(0.015625)"/>
       <path id="DejaVuSans-6e" d="M 3513 2113 
L 3513 0 
L 2938 0 
L 2938 2094 
Q 2938 2591 2744 2837 
Q 2550 3084 2163 3084 
Q 1697 3084 1428 2787 
Q 1159 2491 1159 1978 
L 1159 0 
L 581 0 
L 581 3500 
L 1159 3500 
L 1159 2956 
Q 1366 3272 1645 3428 
Q 1925 3584 2291 3584 
Q 2894 3584 3203 3211 
Q 3513 2838 3513 2113 
z
" transform="scale(0.015625)"/>
      </defs>
      <use xlink:href="#DejaVuSans-5b"/>
      <use xlink:href="#DejaVuSans-63" transform="translate(39.013672 0)"/>
      <use xlink:href="#DejaVuSans-6f" transform="translate(93.994141 0)"/>
      <use xlink:href="#DejaVuSans-75" transform="translate(155.175781 0)"/>
      <use xlink:href="#DejaVuSans-6e" transform="translate(218.554688 0)"/>
      <use xlink:href="#DejaVuSans-74" transform="translate(281.933594 0)"/>
      <use xlink:href="#DejaVuSans-73" transform="translate(321.142578 0)"/>
      <use xlink:href="#DejaVuSans-5d" transform="translate(373.242188 0)"/>
     </g>
    </g>
   </g>
   <g id="line2d_15">
    <path d="M 62.183807 211.126154 
L 63.198352 211.126154 
L 63.198352 208.024615 
L 64.212898 208.024615 
L 64.212898 199.495385 
L 65.227443 199.495385 
L 65.227443 200.270769 
L 66.241989 200.270769 
L 66.241989 196.781538 
L 67.256534 196.781538 
L 67.256534 185.926154 
L 68.27108 185.926154 
L 68.27108 183.6 
L 69.285625 183.6 
L 69.285625 176.621538 
L 70.30017 176.621538 
L 70.30017 175.070769 
L 71.314716 175.070769 
L 71.314716 172.744615 
L 72.329261 172.744615 
L 72.329261 171.581538 
L 73.343807 171.581538 
L 73.343807 154.135385 
L 74.358352 154.135385 
L 74.358352 156.073846 
L 75.372898 156.073846 
L 75.372898 151.421538 
L 76.387443 151.421538 
L 76.387443 142.504615 
L 77.401989 142.504615 
L 77.401989 140.566154 
L 78.416534 140.566154 
L 78.416534 135.526154 
L 79.43108 135.526154 
L 79.43108 132.812308 
L 80.445625 132.812308 
L 80.445625 122.732308 
L 81.46017 122.732308 
L 81.46017 127.772308 
L 82.474716 127.772308 
L 82.474716 112.264615 
L 83.489261 112.264615 
L 83.489261 115.366154 
L 84.503807 115.366154 
L 84.503807 104.123077 
L 85.518352 104.123077 
L 85.518352 102.96 
L 86.532898 102.96 
L 86.532898 97.144615 
L 87.547443 97.144615 
L 87.547443 95.206154 
L 89.576534 95.206154 
L 89.576534 87.064615 
L 90.59108 87.064615 
L 90.59108 81.636923 
L 91.605625 81.636923 
L 91.605625 76.209231 
L 92.62017 76.209231 
L 92.62017 84.738462 
L 93.634716 84.738462 
L 93.634716 71.556923 
L 94.649261 71.556923 
L 94.649261 83.187692 
L 95.663807 83.187692 
L 95.663807 67.292308 
L 96.678352 67.292308 
L 96.678352 71.169231 
L 97.692898 71.169231 
L 97.692898 78.923077 
L 98.707443 78.923077 
L 98.707443 64.190769 
L 99.721989 64.190769 
L 99.721989 61.864615 
L 100.736534 61.864615 
L 100.736534 45.193846 
L 101.75108 45.193846 
L 101.75108 56.436923 
L 102.765625 56.436923 
L 102.765625 49.070769 
L 103.78017 49.070769 
L 103.78017 40.153846 
L 104.794716 40.153846 
L 104.794716 51.784615 
L 105.809261 51.784615 
L 105.809261 41.704615 
L 106.823807 41.704615 
L 106.823807 39.378462 
L 107.838352 39.378462 
L 107.838352 25.809231 
L 108.852898 25.809231 
L 108.852898 45.969231 
L 109.867443 45.969231 
L 109.867443 37.052308 
L 110.881989 37.052308 
L 110.881989 46.744615 
L 111.896534 46.744615 
L 111.896534 26.972308 
L 112.91108 26.972308 
L 112.91108 21.156923 
L 113.925625 21.156923 
L 113.925625 17.28 
L 114.94017 17.28 
L 114.94017 33.175385 
L 115.954716 33.175385 
L 115.954716 29.686154 
L 116.969261 29.686154 
L 116.969261 56.049231 
L 117.983807 56.049231 
L 117.983807 35.113846 
L 118.998352 35.113846 
L 118.998352 52.947692 
L 120.012898 52.947692 
L 120.012898 33.563077 
L 121.027443 33.563077 
L 121.027443 54.886154 
L 122.041989 54.886154 
L 122.041989 44.418462 
L 123.056534 44.418462 
L 123.056534 35.501538 
L 124.07108 35.501538 
L 124.07108 32.012308 
L 125.085625 32.012308 
L 125.085625 53.335385 
L 126.10017 53.335385 
L 126.10017 41.704615 
L 127.114716 41.704615 
L 127.114716 52.947692 
L 128.129261 52.947692 
L 128.129261 45.193846 
L 129.143807 45.193846 
L 129.143807 59.538462 
L 130.158352 59.538462 
L 130.158352 59.150769 
L 131.172898 59.150769 
L 131.172898 49.070769 
L 132.187443 49.070769 
L 132.187443 48.295385 
L 133.201989 48.295385 
L 133.201989 62.64 
L 134.216534 62.64 
L 134.216534 59.926154 
L 135.23108 59.926154 
L 135.23108 46.744615 
L 136.245625 46.744615 
L 136.245625 51.009231 
L 137.26017 51.009231 
L 137.26017 52.172308 
L 138.274716 52.172308 
L 138.274716 44.806154 
L 139.289261 44.806154 
L 139.289261 73.107692 
L 140.303807 73.107692 
L 140.303807 56.049231 
L 141.318352 56.049231 
L 141.318352 82.412308 
L 142.332898 82.412308 
L 142.332898 63.415385 
L 143.347443 63.415385 
L 143.347443 73.495385 
L 144.361989 73.495385 
L 144.361989 73.107692 
L 145.376534 73.107692 
L 145.376534 55.661538 
L 146.39108 55.661538 
L 146.39108 66.129231 
L 147.405625 66.129231 
L 147.405625 69.618462 
L 148.42017 69.618462 
L 148.42017 74.658462 
L 149.434716 74.658462 
L 149.434716 70.006154 
L 150.449261 70.006154 
L 150.449261 75.821538 
L 151.463807 75.821538 
L 151.463807 56.436923 
L 152.478352 56.436923 
L 152.478352 76.596923 
L 153.492898 76.596923 
L 153.492898 49.458462 
L 154.507443 49.458462 
L 154.507443 64.578462 
L 155.521989 64.578462 
L 155.521989 78.535385 
L 156.536534 78.535385 
L 156.536534 66.129231 
L 157.55108 66.129231 
L 157.55108 76.984615 
L 158.565625 76.984615 
L 158.565625 83.187692 
L 159.58017 83.187692 
L 159.58017 66.516923 
L 160.594716 66.516923 
L 160.594716 75.433846 
L 161.609261 75.433846 
L 161.609261 80.473846 
L 162.623807 80.473846 
L 162.623807 69.230769 
L 163.638352 69.230769 
L 163.638352 75.046154 
L 164.652898 75.046154 
L 164.652898 83.187692 
L 165.667443 83.187692 
L 165.667443 61.476923 
L 166.681989 61.476923 
L 166.681989 63.027692 
L 167.696534 63.027692 
L 167.696534 81.636923 
L 168.71108 81.636923 
L 168.71108 90.553846 
L 169.725625 90.553846 
L 169.725625 78.147692 
L 170.74017 78.147692 
L 170.74017 72.72 
L 171.754716 72.72 
L 171.754716 75.046154 
L 172.769261 75.046154 
L 172.769261 89.003077 
L 173.783807 89.003077 
L 173.783807 89.390769 
L 174.798352 89.390769 
L 174.798352 97.92 
L 175.812898 97.92 
L 175.812898 85.901538 
L 176.827443 85.901538 
L 176.827443 80.473846 
L 177.841989 80.473846 
L 177.841989 98.307692 
L 178.856534 98.307692 
L 178.856534 107.612308 
L 179.87108 107.612308 
L 179.87108 86.676923 
L 180.885625 86.676923 
L 180.885625 110.326154 
L 181.90017 110.326154 
L 181.90017 104.510769 
L 182.914716 104.510769 
L 182.914716 117.692308 
L 183.929261 117.692308 
L 183.929261 119.630769 
L 184.943807 119.630769 
L 184.943807 113.04 
L 185.958352 113.04 
L 185.958352 120.018462 
L 186.972898 120.018462 
L 186.972898 130.873846 
L 187.987443 130.873846 
L 187.987443 121.181538 
L 189.001989 121.181538 
L 189.001989 137.076923 
L 190.016534 137.076923 
L 190.016534 143.28 
L 191.03108 143.28 
L 191.03108 154.523077 
L 192.045625 154.523077 
L 192.045625 159.563077 
L 193.06017 159.563077 
L 193.06017 162.276923 
L 194.074716 162.276923 
L 194.074716 159.175385 
L 195.089261 159.175385 
L 195.089261 163.052308 
L 196.103807 163.052308 
L 196.103807 164.215385 
L 197.118352 164.215385 
L 197.118352 176.621538 
L 198.132898 176.621538 
L 198.132898 182.436923 
L 199.147443 182.436923 
L 199.147443 177.396923 
L 200.161989 177.396923 
L 200.161989 185.538462 
L 201.176534 185.538462 
L 201.176534 189.803077 
L 202.19108 189.803077 
L 202.19108 194.843077 
L 203.205625 194.843077 
L 203.205625 196.006154 
L 204.22017 196.006154 
L 204.22017 202.596923 
L 205.234716 202.596923 
L 205.234716 208.024615 
L 206.249261 208.024615 
L 206.249261 211.901538 
L 207.263807 211.901538 
L 207.263807 213.452308 
L 209.292898 213.452308 
L 209.292898 213.064615 
L 210.307443 213.064615 
L 210.307443 215.778462 
L 211.321989 215.778462 
L 211.321989 218.88 
L 213.35108 218.88 
L 213.35108 213.064615 
L 214.365625 213.064615 
L 214.365625 211.126154 
L 215.38017 211.126154 
L 215.38017 207.249231 
L 216.394716 207.249231 
L 216.394716 199.495385 
L 217.409261 199.495385 
L 217.409261 201.046154 
L 218.423807 201.046154 
L 218.423807 195.618462 
L 219.438352 195.618462 
L 219.438352 188.64 
L 220.452898 188.64 
L 220.452898 191.741538 
L 221.467443 191.741538 
L 221.467443 182.049231 
L 222.481989 182.049231 
L 222.481989 178.56 
L 223.496534 178.56 
L 223.496534 177.009231 
L 224.51108 177.009231 
L 224.51108 175.846154 
L 225.525625 175.846154 
L 225.525625 170.030769 
L 226.54017 170.030769 
L 226.54017 172.744615 
L 227.554716 172.744615 
L 227.554716 159.563077 
L 228.569261 159.563077 
L 228.569261 161.889231 
L 229.583807 161.889231 
L 229.583807 162.664615 
L 230.598352 162.664615 
L 230.598352 155.298462 
L 231.612898 155.298462 
L 231.612898 153.36 
L 232.627443 153.36 
L 232.627443 148.707692 
L 233.641989 148.707692 
L 233.641989 154.910769 
L 234.656534 154.910769 
L 234.656534 145.993846 
L 235.67108 145.993846 
L 235.67108 134.363077 
L 236.685625 134.363077 
L 236.685625 144.055385 
L 237.70017 144.055385 
L 237.70017 139.015385 
L 238.714716 139.015385 
L 238.714716 129.323077 
L 239.729261 129.323077 
L 239.729261 137.464615 
L 240.743807 137.464615 
L 240.743807 124.283077 
L 241.758352 124.283077 
L 241.758352 127.772308 
L 242.772898 127.772308 
L 242.772898 135.526154 
L 243.787443 135.526154 
L 243.787443 126.996923 
L 244.801989 126.996923 
L 244.801989 113.427692 
L 245.816534 113.427692 
L 245.816534 116.529231 
L 246.83108 116.529231 
L 246.83108 115.366154 
L 247.845625 115.366154 
L 247.845625 113.815385 
L 248.86017 113.815385 
L 248.86017 111.876923 
L 249.874716 111.876923 
L 249.874716 112.264615 
L 250.889261 112.264615 
L 250.889261 115.366154 
L 251.903807 115.366154 
L 251.903807 109.938462 
L 252.918352 109.938462 
L 252.918352 113.04 
L 253.932898 113.04 
L 253.932898 106.449231 
L 254.947443 106.449231 
L 254.947443 109.938462 
L 255.961989 109.938462 
L 255.961989 99.470769 
L 256.976534 99.470769 
L 256.976534 109.938462 
L 257.99108 109.938462 
L 257.99108 94.043077 
L 259.005625 94.043077 
L 259.005625 96.756923 
L 260.02017 96.756923 
L 260.02017 94.818462 
L 261.034716 94.818462 
L 261.034716 106.061538 
L 262.049261 106.061538 
L 262.049261 73.495385 
L 263.063807 73.495385 
L 263.063807 88.227692 
L 264.078352 88.227692 
L 264.078352 75.821538 
L 265.092898 75.821538 
L 265.092898 89.778462 
L 266.107443 89.778462 
L 266.107443 101.796923 
L 267.121989 101.796923 
L 267.121989 87.064615 
L 268.136534 87.064615 
L 268.136534 87.84 
L 269.15108 87.84 
L 269.15108 109.938462 
L 270.165625 109.938462 
L 270.165625 104.898462 
L 271.18017 104.898462 
L 271.18017 94.430769 
L 272.194716 94.430769 
L 272.194716 99.083077 
L 273.209261 99.083077 
L 273.209261 100.633846 
L 274.223807 100.633846 
L 274.223807 88.615385 
L 275.238352 88.615385 
L 275.238352 98.307692 
L 276.252898 98.307692 
L 276.252898 109.550769 
L 278.281989 109.550769 
L 278.281989 112.264615 
L 279.296534 112.264615 
L 279.296534 102.96 
L 280.31108 102.96 
L 280.31108 106.449231 
L 281.325625 106.449231 
L 281.325625 113.04 
L 282.34017 113.04 
L 282.34017 122.344615 
L 283.354716 122.344615 
L 283.354716 122.732308 
L 284.369261 122.732308 
L 284.369261 117.692308 
L 285.383807 117.692308 
L 285.383807 113.815385 
L 286.398352 113.815385 
L 286.398352 121.181538 
L 287.412898 121.181538 
L 287.412898 136.301538 
L 288.427443 136.301538 
L 288.427443 103.347692 
L 289.441989 103.347692 
L 289.441989 119.243077 
L 290.456534 119.243077 
L 290.456534 122.732308 
L 291.47108 122.732308 
L 291.47108 127.384615 
L 292.485625 127.384615 
L 292.485625 125.446154 
L 293.50017 125.446154 
L 293.50017 115.753846 
L 294.514716 115.753846 
L 294.514716 125.833846 
L 295.529261 125.833846 
L 295.529261 133.975385 
L 296.543807 133.975385 
L 296.543807 123.12 
L 297.558352 123.12 
L 297.558352 131.649231 
L 298.572898 131.649231 
L 298.572898 137.464615 
L 299.587443 137.464615 
L 299.587443 130.873846 
L 300.601989 130.873846 
L 300.601989 130.098462 
L 301.616534 130.098462 
L 301.616534 133.2 
L 302.63108 133.2 
L 302.63108 137.852308 
L 303.645625 137.852308 
L 303.645625 119.630769 
L 304.66017 119.630769 
L 304.66017 133.975385 
L 305.674716 133.975385 
L 305.674716 136.689231 
L 306.689261 136.689231 
L 306.689261 140.953846 
L 307.703807 140.953846 
L 307.703807 134.363077 
L 308.718352 134.363077 
L 308.718352 144.830769 
L 309.732898 144.830769 
L 309.732898 142.504615 
L 310.747443 142.504615 
L 310.747443 150.258462 
L 311.761989 150.258462 
L 311.761989 142.504615 
L 312.776534 142.504615 
L 312.776534 154.910769 
L 313.79108 154.910769 
L 313.79108 149.870769 
L 314.805625 149.870769 
L 314.805625 141.341538 
L 315.82017 141.341538 
L 315.82017 152.196923 
L 316.834716 152.196923 
L 316.834716 158.787692 
L 317.849261 158.787692 
L 317.849261 149.870769 
L 318.863807 149.870769 
L 318.863807 146.381538 
L 319.878352 146.381538 
L 319.878352 143.28 
L 320.892898 143.28 
L 320.892898 163.44 
L 321.907443 163.44 
L 321.907443 164.603077 
L 322.921989 164.603077 
L 322.921989 165.766154 
L 323.936534 165.766154 
L 323.936534 151.809231 
L 324.95108 151.809231 
L 324.95108 160.338462 
L 325.965625 160.338462 
L 325.965625 164.215385 
L 326.98017 164.215385 
L 326.98017 163.827692 
L 327.994716 163.827692 
L 327.994716 165.378462 
L 329.009261 165.378462 
L 329.009261 163.052308 
L 330.023807 163.052308 
L 330.023807 163.827692 
L 331.038352 163.827692 
L 331.038352 182.824615 
L 332.052898 182.824615 
L 332.052898 175.458462 
L 333.067443 175.458462 
L 333.067443 173.52 
L 334.081989 173.52 
L 334.081989 178.56 
L 335.096534 178.56 
L 335.096534 177.009231 
L 336.11108 177.009231 
L 336.11108 184.375385 
L 337.125625 184.375385 
L 337.125625 182.436923 
L 338.14017 182.436923 
L 338.14017 183.987692 
L 339.154716 183.987692 
L 339.154716 186.313846 
L 340.169261 186.313846 
L 340.169261 187.476923 
L 342.198352 187.476923 
L 342.198352 189.027692 
L 343.212898 189.027692 
L 343.212898 190.190769 
L 344.227443 190.190769 
L 344.227443 195.230769 
L 345.241989 195.230769 
L 345.241989 197.169231 
L 346.256534 197.169231 
L 346.256534 199.107692 
L 347.27108 199.107692 
L 347.27108 197.944615 
L 348.285625 197.944615 
L 348.285625 200.658462 
L 349.30017 200.658462 
L 349.30017 202.984615 
L 350.314716 202.984615 
L 350.314716 206.086154 
L 351.329261 206.086154 
L 351.329261 205.698462 
L 352.343807 205.698462 
L 352.343807 210.350769 
L 353.358352 210.350769 
L 353.358352 209.187692 
L 354.372898 209.187692 
L 354.372898 212.676923 
L 355.387443 212.676923 
L 355.387443 210.738462 
L 356.401989 210.738462 
L 356.401989 212.289231 
L 357.416534 212.289231 
L 357.416534 211.901538 
L 358.43108 211.901538 
L 358.43108 213.452308 
L 359.445625 213.452308 
L 359.445625 213.84 
L 360.46017 213.84 
L 360.46017 215.003077 
L 361.474716 215.003077 
L 361.474716 218.104615 
L 363.503807 218.104615 
L 363.503807 218.492308 
L 364.518352 218.492308 
L 364.518352 218.104615 
L 365.532898 218.104615 
L 365.532898 216.941538 
L 366.547443 216.941538 
L 366.547443 216.941538 
" clip-path="url(#p5cf275c5d7)" style="fill: none; stroke: #1f77b4; stroke-width: 1.5; stroke-linecap: square"/>
   </g>
   <g id="patch_3">
    <path d="M 46.965625 228.96 
L 46.965625 7.2 
" style="fill: none; stroke: #000000; stroke-width: 0.8; stroke-linejoin: miter; stroke-linecap: square"/>
   </g>
   <g id="patch_4">
    <path d="M 381.765625 228.96 
L 381.765625 7.2 
" style="fill: none; stroke: #000000; stroke-width: 0.8; stroke-linejoin: miter; stroke-linecap: square"/>
   </g>
   <g id="patch_5">
    <path d="M 46.965625 228.96 
L 381.765625 228.96 
" style="fill: none; stroke: #000000; stroke-width: 0.8; stroke-linejoin: miter; stroke-linecap: square"/>
   </g>
   <g id="patch_6">
    <path d="M 46.965625 7.2 
L 381.765625 7.2 
" style="fill: none; stroke: #000000; stroke-width: 0.8; stroke-linejoin: miter; stroke-linecap: square"/>
   </g>
  </g>
 </g>
 <defs>
  <clipPath id="p5cf275c5d7">
   <rect x="46.965625" y="7.2" width="334.8" height="221.76"/>
  </clipPath>
 </defs>
</svg>
