<?xml version="1.0" encoding="utf-8" standalone="no"?>
<!DOCTYPE svg PUBLIC "-//W3C//DTD SVG 1.1//EN"
  "http://www.w3.org/Graphics/SVG/1.1/DTD/svg11.dtd">
<svg xmlns:xlink="http://www.w3.org/1999/xlink" width="395.328125pt" height="266.51625pt" viewBox="0 0 395.328125 266.51625" xmlns="http://www.w3.org/2000/svg" version="1.1">
 <metadata>
  <rdf:RDF xmlns:dc="http://purl.org/dc/elements/1.1/" xmlns:cc="http://creativecommons.org/ns#" xmlns:rdf="http://www.w3.org/1999/02/22-rdf-syntax-ns#">
   <cc:Work>
    <dc:type rdf:resource="http://purl.org/dc/dcmitype/StillImage"/>
    <dc:date>2026-02-24T15:29:10.999919</dc:date>
    <dc:format>image/svg+xml</dc:format>
    <dc:creator>
     <cc:Agent>
      <dc:title>Matplotlib v3.10.8, https://matplotlib.org/</dc:title>
     </cc:Agent>
    </dc:creator>
   </cc:Work>
  </rdf:RDF>
 </metadata>
 <defs>
  <style type="text/css">*{stroke-linejoin: round; stroke-linecap: butt}</style>
 </defs>
 <g id="figure_1">
  <g id="patch_1">
   <path d="M 0 266.51625 
L 395.328125 266.51625 
L 395.328125 0 
L 0 0 
z
" style="fill: #ffffff"/>
  </g>
  <g id="axes_1">
   <g id="patch_2">
    <path d="M 53.328125 228.96 
L 388.128125 228.96 
L 388.128125 7.2 
L 53.328125 7.2 
z
" style="fill: #ffffff"/>
   </g>
   <g id="matplotlib.axis_1">
    <g id="xtick_1">
     <g id="line2d_1">
      <defs>
       <path id="m0d3ba2afbb" d="M 0 0 
L 0 3.5 
" style="stroke: #000000; stroke-width: 0.8"/>
      </defs>
      <g>
       <use xlink:href="#m0d3ba2afbb" x="108.635165" y="228.96" style="stroke: #000000; stroke-width: 0.8"/>
      </g>
     </g>
     <g id="text_1">
      <!-- 20000 -->
      <g transform="translate(92.728915 243.558437) scale(0.1 -0.1)">
       <defs>
        <path id="DejaVuSans-32" d="M 1228 531 
L 3431 531 
L 3431 0 
L 469 0 
L 469 531 
Q 828 903 1448 1529 
Q 2069 2156 2228 2338 
Q 2531 2678 2651 2914 
Q 2772 3150 2772 3378 
Q 2772 3750 2511 3984 
Q 2250 4219 1831 4219 
Q 1534 4219 1204 4116 
Q 875 4013 500 3803 
L 500 4441 
Q 881 4594 1212 4672 
Q 1544 4750 1819 4750 
Q 2544 4750 2975 4387 
Q 3406 4025 3406 3419 
Q 3406 3131 3298 2873 
Q 3191 2616 2906 2266 
Q 2828 2175 2409 1742 
Q 1991 1309 1228 531 
z
" transform="scale(0.015625)"/>
        <path id="DejaVuSans-30" d="M 2034 4250 
Q 1547 4250 1301 3770 
Q 1056 3291 1056 2328 
Q 1056 1369 1301 889 
Q 1547 409 2034 409 
Q 2525 409 2770 889 
Q 3016 1369 3016 2328 
Q 3016 3291 2770 3770 
Q 2525 4250 2034 4250 
z
M 2034 4750 
Q 2819 4750 3233 4129 
Q 3647 3509 3647 2328 
Q 3647 1150 3233 529 
Q 2819 -91 2034 -91 
Q 1250 -91 836 529 
Q 422 1150 422 2328 
Q 422 3509 836 4129 
Q 1250 4750 2034 4750 
z
" transform="scale(0.015625)"/>
       </defs>
       <use xlink:href="#DejaVuSans-32"/>
       <use xlink:href="#DejaVuSans-30" transform="translate(63.623047 0)"/>
       <use xlink:href="#DejaVuSans-30" transform="translate(127.246094 0)"/>
       <use xlink:href="#DejaVuSans-30" transform="translate(190.869141 0)"/>
       <use xlink:href="#DejaVuSans-30" transform="translate(254.492188 0)"/>
      </g>
     </g>
    </g>
    <g id="xtick_2">
     <g id="line2d_2">
      <g>
       <use xlink:href="#m0d3ba2afbb" x="171.182323" y="228.96" style="stroke: #000000; stroke-width: 0.8"/>
      </g>
     </g>
     <g id="text_2">
      <!-- 30000 -->
      <g transform="translate(155.276073 243.558437) scale(0.1 -0.1)">
       <defs>
        <path id="DejaVuSans-33" d="M 2597 2516 
Q 3050 2419 3304 2112 
Q 3559 1806 3559 1356 
Q 3559 666 3084 287 
Q 2609 -91 1734 -91 
Q 1441 -91 1130 -33 
Q 819 25 488 141 
L 488 750 
Q 750 597 1062 519 
Q 1375 441 1716 441 
Q 2309 441 2620 675 
Q 2931 909 2931 1356 
Q 2931 1769 2642 2001 
Q 2353 2234 1838 2234 
L 1294 2234 
L 1294 2753 
L 1863 2753 
Q 2328 2753 2575 2939 
Q 2822 3125 2822 3475 
Q 2822 3834 2567 4026 
Q 2313 4219 1838 4219 
Q 1578 4219 1281 4162 
Q 984 4106 628 3988 
L 628 4550 
Q 988 4650 1302 4700 
Q 1616 4750 1894 4750 
Q 2613 4750 3031 4423 
Q 3450 4097 3450 3541 
Q 3450 3153 3228 2886 
Q 3006 2619 2597 2516 
z
" transform="scale(0.015625)"/>
       </defs>
       <use xlink:href="#DejaVuSans-33"/>
       <use xlink:href="#DejaVuSans-30" transform="translate(63.623047 0)"/>
       <use xlink:href="#DejaVuSans-30" transform="translate(127.246094 0)"/>
       <use xlink:href="#DejaVuSans-30" transform="translate(190.869141 0)"/>
       <use xlink:href="#DejaVuSans-30" transform="translate(254.492188 0)"/>
      </g>
     </g>
    </g>
    <g id="xtick_3">
     <g id="line2d_3">
      <g>
       <use xlink:href="#m0d3ba2afbb" x="233.729482" y="228.96" style="stroke: #000000; stroke-width: 0.8"/>
      </g>
     </g>
     <g id="text_3">
      <!-- 40000 -->
      <g transform="translate(217.823232 243.558437) scale(0.1 -0.1)">
       <defs>
        <path id="DejaVuSans-34" d="M 2419 4116 
L 825 1625 
L 2419 1625 
L 2419 4116 
z
M 2253 4666 
L 3047 4666 
L 3047 1625 
L 3713 1625 
L 3713 1100 
L 3047 1100 
L 3047 0 
L 2419 0 
L 2419 1100 
L 313 1100 
L 313 1709 
L 2253 4666 
z
" transform="scale(0.015625)"/>
       </defs>
       <use xlink:href="#DejaVuSans-34"/>
       <use xlink:href="#DejaVuSans-30" transform="translate(63.623047 0)"/>
       <use xlink:href="#DejaVuSans-30" transform="translate(127.246094 0)"/>
       <use xlink:href="#DejaVuSans-30" transform="translate(190.869141 0)"/>
       <use xlink:href="#DejaVuSans-30" transform="translate(254.492188 0)"/>
      </g>
     </g>
    </g>
    <g id="xtick_4">
     <g id="line2d_4">
      <g>
       <use xlink:href="#m0d3ba2afbb" x="296.27664" y="228.96" style="stroke: #000000; stroke-width: 0.8"/>
      </g>
     </g>
     <g id="text_4">
      <!-- 50000 -->
      <g transform="translate(280.37039 243.558437) scale(0.1 -0.1)">
       <defs>
        <path id="DejaVuSans-35" d="M 691 4666 
L 3169 4666 
L 3169 4134 
L 1269 4134 
L 1269 2991 
Q 1406 3038 1543 3061 
Q 1681 3084 1819 3084 
Q 2600 3084 3056 2656 
Q 3513 2228 3513 1497 
Q 3513 744 3044 326 
Q 2575 -91 1722 -91 
Q 1428 -91 1123 -41 
Q 819 9 494 109 
L 494 744 
Q 775 591 1075 516 
Q 1375 441 1709 441 
Q 2250 441 2565 725 
Q 2881 1009 2881 1497 
Q 2881 1984 2565 2268 
Q 2250 2553 1709 2553 
Q 1456 2553 1204 2497 
Q 953 2441 691 2322 
L 691 4666 
z
" transform="scale(0.015625)"/>
       </defs>
       <use xlink:href="#DejaVuSans-35"/>
       <use xlink:href="#DejaVuSans-30" transform="translate(63.623047 0)"/>
       <use xlink:href="#DejaVuSans-30" transform="translate(127.246094 0)"/>
       <use xlink:href="#DejaVuSans-30" transform="translate(190.869141 0)"/>
       <use xlink:href="#DejaVuSans-30" transform="translate(254.492188 0)"/>
      </g>
     </g>
    </g>
    <g id="xtick_5">
     <g id="line2d_5">
      <g>
       <use xlink:href="#m0d3ba2afbb" x="358.823798" y="228.96" style="stroke: #000000; stroke-width: 0.8"/>
      </g>
     </g>
     <g id="text_5">
      <!-- 60000 -->
      <g transform="translate(342.917548 243.558437) scale(0.1 -0.1)">
       <defs>
        <path id="DejaVuSans-36" d="M 2113 2584 
Q 1688 2584 1439 2293 
Q 1191 2003 1191 1497 
Q 1191 994 1439 701 
Q 1688 409 2113 409 
Q 2538 409 2786 701 
Q 3034 994 3034 1497 
Q 3034 2003 2786 2293 
Q 2538 2584 2113 2584 
z
M 3366 4563 
L 3366 3988 
Q 3128 4100 2886 4159 
Q 2644 4219 2406 4219 
Q 1781 4219 1451 3797 
Q 1122 3375 1075 2522 
Q 1259 2794 1537 2939 
Q 1816 3084 2150 3084 
Q 2853 3084 3261 2657 
Q 3669 2231 3669 1497 
Q 3669 778 3244 343 
Q 2819 -91 2113 -91 
Q 1303 -91 875 529 
Q 447 1150 447 2328 
Q 447 3434 972 4092 
Q 1497 4750 2381 4750 
Q 2619 4750 2861 4703 
Q 3103 4656 3366 4563 
z
" transform="scale(0.015625)"/>
       </defs>
       <use xlink:href="#DejaVuSans-36"/>
       <use xlink:href="#DejaVuSans-30" transform="translate(63.623047 0)"/>
       <use xlink:href="#DejaVuSans-30" transform="translate(127.246094 0)"/>
       <use xlink:href="#DejaVuSans-30" transform="translate(190.869141 0)"/>
       <use xlink:href="#DejaVuSans-30" transform="translate(254.492188 0)"/>
      </g>
     </g>
    </g>
    <g id="text_6">
     <!-- tof [µs] -->
     <g transform="translate(202.671875 257.236562) scale(0.1 -0.1)">
      <defs>
       <path id="DejaVuSans-74" d="M 1172 4494 
L 1172 3500 
L 2356 3500 
L 2356 3053 
L 1172 3053 
L 1172 1153 
Q 1172 725 1289 603 
Q 1406 481 1766 481 
L 2356 481 
L 2356 0 
L 1766 0 
Q 1100 0 847 248 
Q 594 497 594 1153 
L 594 3053 
L 172 3053 
L 172 3500 
L 594 3500 
L 594 4494 
L 1172 4494 
z
" transform="scale(0.015625)"/>
       <path id="DejaVuSans-6f" d="M 1959 3097 
Q 1497 3097 1228 2736 
Q 959 2375 959 1747 
Q 959 1119 1226 758 
Q 1494 397 1959 397 
Q 2419 397 2687 759 
Q 2956 1122 2956 1747 
Q 2956 2369 2687 2733 
Q 2419 3097 1959 3097 
z
M 1959 3584 
Q 2709 3584 3137 3096 
Q 3566 2609 3566 1747 
Q 3566 888 3137 398 
Q 2709 -91 1959 -91 
Q 1206 -91 779 398 
Q 353 888 353 1747 
Q 353 2609 779 3096 
Q 1206 3584 1959 3584 
z
" transform="scale(0.015625)"/>
       <path id="DejaVuSans-66" d="M 2375 4863 
L 2375 4384 
L 1825 4384 
Q 1516 4384 1395 4259 
Q 1275 4134 1275 3809 
L 1275 3500 
L 2222 3500 
L 2222 3053 
L 1275 3053 
L 1275 0 
L 697 0 
L 697 3053 
L 147 3053 
L 147 3500 
L 697 3500 
L 697 3744 
Q 697 4328 969 4595 
Q 1241 4863 1831 4863 
L 2375 4863 
z
" transform="scale(0.015625)"/>
       <path id="DejaVuSans-20" transform="scale(0.015625)"/>
       <path id="DejaVuSans-5b" d="M 550 4863 
L 1875 4863 
L 1875 4416 
L 1125 4416 
L 1125 -397 
L 1875 -397 
L 1875 -844 
L 550 -844 
L 550 4863 
z
" transform="scale(0.015625)"/>
       <path id="DejaVuSans-b5" d="M 544 -1331 
L 544 3500 
L 1119 3500 
L 1119 1325 
Q 1119 872 1334 640 
Q 1550 409 1972 409 
Q 2434 409 2667 671 
Q 2900 934 2900 1459 
L 2900 3500 
L 3475 3500 
L 3475 806 
Q 3475 619 3529 530 
Q 3584 441 3700 441 
Q 3728 441 3778 458 
Q 3828 475 3916 513 
L 3916 50 
Q 3788 -22 3673 -56 
Q 3559 -91 3450 -91 
Q 3234 -91 3106 31 
Q 2978 153 2931 403 
Q 2775 156 2548 32 
Q 2322 -91 2016 -91 
Q 1697 -91 1473 31 
Q 1250 153 1119 397 
L 1119 -1331 
L 544 -1331 
z
" transform="scale(0.015625)"/>
       <path id="DejaVuSans-73" d="M 2834 3397 
L 2834 2853 
Q 2591 2978 2328 3040 
Q 2066 3103 1784 3103 
Q 1356 3103 1142 2972 
Q 928 2841 928 2578 
Q 928 2378 1081 2264 
Q 1234 2150 1697 2047 
L 1894 2003 
Q 2506 1872 2764 1633 
Q 3022 1394 3022 966 
Q 3022 478 2636 193 
Q 2250 -91 1575 -91 
Q 1294 -91 989 -36 
Q 684 19 347 128 
L 347 722 
Q 666 556 975 473 
Q 1284 391 1588 391 
Q 1994 391 2212 530 
Q 2431 669 2431 922 
Q 2431 1156 2273 1281 
Q 2116 1406 1581 1522 
L 1381 1569 
Q 847 1681 609 1914 
Q 372 2147 372 2553 
Q 372 3047 722 3315 
Q 1072 3584 1716 3584 
Q 2034 3584 2315 3537 
Q 2597 3491 2834 3397 
z
" transform="scale(0.015625)"/>
       <path id="DejaVuSans-5d" d="M 1947 4863 
L 1947 -844 
L 622 -844 
L 622 -397 
L 1369 -397 
L 1369 4416 
L 622 4416 
L 622 4863 
L 1947 4863 
z
" transform="scale(0.015625)"/>
      </defs>
      <use xlink:href="#DejaVuSans-74"/>
      <use xlink:href="#DejaVuSans-6f" transform="translate(39.208984 0)"/>
      <use xlink:href="#DejaVuSans-66" transform="translate(100.390625 0)"/>
      <use xlink:href="#DejaVuSans-20" transform="translate(135.595703 0)"/>
      <use xlink:href="#DejaVuSans-5b" transform="translate(167.382812 0)"/>
      <use xlink:href="#DejaVuSans-b5" transform="translate(206.396484 0)"/>
      <use xlink:href="#DejaVuSans-73" transform="translate(270.019531 0)"/>
      <use xlink:href="#DejaVuSans-5d" transform="translate(322.119141 0)"/>
     </g>
    </g>
   </g>
   <g id="matplotlib.axis_2">
    <g id="ytick_1">
     <g id="line2d_6">
      <defs>
       <path id="m9b7906ee5b" d="M 0 0 
L -3.5 0 
" style="stroke: #000000; stroke-width: 0.8"/>
      </defs>
      <g>
       <use xlink:href="#m9b7906ee5b" x="53.328125" y="219.804417" style="stroke: #000000; stroke-width: 0.8"/>
      </g>
     </g>
     <g id="text_7">
      <!-- 0 -->
      <g transform="translate(39.965625 223.603636) scale(0.1 -0.1)">
       <use xlink:href="#DejaVuSans-30"/>
      </g>
     </g>
    </g>
    <g id="ytick_2">
     <g id="line2d_7">
      <g>
       <use xlink:href="#m9b7906ee5b" x="53.328125" y="181.287031" style="stroke: #000000; stroke-width: 0.8"/>
      </g>
     </g>
     <g id="text_8">
      <!-- 500 -->
      <g transform="translate(27.240625 185.08625) scale(0.1 -0.1)">
       <use xlink:href="#DejaVuSans-35"/>
       <use xlink:href="#DejaVuSans-30" transform="translate(63.623047 0)"/>
       <use xlink:href="#DejaVuSans-30" transform="translate(127.246094 0)"/>
      </g>
     </g>
    </g>
    <g id="ytick_3">
     <g id="line2d_8">
      <g>
       <use xlink:href="#m9b7906ee5b" x="53.328125" y="142.769645" style="stroke: #000000; stroke-width: 0.8"/>
      </g>
     </g>
     <g id="text_9">
      <!-- 1000 -->
      <g transform="translate(20.878125 146.568863) scale(0.1 -0.1)">
       <defs>
        <path id="DejaVuSans-31" d="M 794 531 
L 1825 531 
L 1825 4091 
L 703 3866 
L 703 4441 
L 1819 4666 
L 2450 4666 
L 2450 531 
L 3481 531 
L 3481 0 
L 794 0 
L 794 531 
z
" transform="scale(0.015625)"/>
       </defs>
       <use xlink:href="#DejaVuSans-31"/>
       <use xlink:href="#DejaVuSans-30" transform="translate(63.623047 0)"/>
       <use xlink:href="#DejaVuSans-30" transform="translate(127.246094 0)"/>
       <use xlink:href="#DejaVuSans-30" transform="translate(190.869141 0)"/>
      </g>
     </g>
    </g>
    <g id="ytick_4">
     <g id="line2d_9">
      <g>
       <use xlink:href="#m9b7906ee5b" x="53.328125" y="104.252258" style="stroke: #000000; stroke-width: 0.8"/>
      </g>
     </g>
     <g id="text_10">
      <!-- 1500 -->
      <g transform="translate(20.878125 108.051477) scale(0.1 -0.1)">
       <use xlink:href="#DejaVuSans-31"/>
       <use xlink:href="#DejaVuSans-35" transform="translate(63.623047 0)"/>
       <use xlink:href="#DejaVuSans-30" transform="translate(127.246094 0)"/>
       <use xlink:href="#DejaVuSans-30" transform="translate(190.869141 0)"/>
      </g>
     </g>
    </g>
    <g id="ytick_5">
     <g id="line2d_10">
      <g>
       <use xlink:href="#m9b7906ee5b" x="53.328125" y="65.734872" style="stroke: #000000; stroke-width: 0.8"/>
      </g>
     </g>
     <g id="text_11">
      <!-- 2000 -->
      <g transform="translate(20.878125 69.534091) scale(0.1 -0.1)">
       <use xlink:href="#DejaVuSans-32"/>
       <use xlink:href="#DejaVuSans-30" transform="translate(63.623047 0)"/>
       <use xlink:href="#DejaVuSans-30" transform="translate(127.246094 0)"/>
       <use xlink:href="#DejaVuSans-30" transform="translate(190.869141 0)"/>
      </g>
     </g>
    </g>
    <g id="ytick_6">
     <g id="line2d_11">
      <g>
       <use xlink:href="#m9b7906ee5b" x="53.328125" y="27.217486" style="stroke: #000000; stroke-width: 0.8"/>
      </g>
     </g>
     <g id="text_12">
      <!-- 2500 -->
      <g transform="translate(20.878125 31.016704) scale(0.1 -0.1)">
       <use xlink:href="#DejaVuSans-32"/>
       <use xlink:href="#DejaVuSans-35" transform="translate(63.623047 0)"/>
       <use xlink:href="#DejaVuSans-30" transform="translate(127.246094 0)"/>
       <use xlink:href="#DejaVuSans-30" transform="translate(190.869141 0)"/>
      </g>
     </g>
    </g>
    <g id="text_13">
     <!-- [counts] -->
     <g transform="translate(14.798438 138.6925) rotate(-90) scale(0.1 -0.1)">
      <defs>
       <path id="DejaVuSans-63" d="M 3122 3366 
L 3122 2828 
Q 2878 2963 2633 3030 
Q 2388 3097 2138 3097 
Q 1578 3097 1268 2742 
Q 959 2388 959 1747 
Q 959 1106 1268 751 
Q 1578 397 2138 397 
Q 2388 397 2633 464 
Q 2878 531 3122 666 
L 3122 134 
Q 2881 22 2623 -34 
Q 2366 -91 2075 -91 
Q 1284 -91 818 406 
Q 353 903 353 1747 
Q 353 2603 823 3093 
Q 1294 3584 2113 3584 
Q 2378 3584 2631 3529 
Q 2884 3475 3122 3366 
z
" transform="scale(0.015625)"/>
       <path id="DejaVuSans-75" d="M 544 1381 
L 544 3500 
L 1119 3500 
L 1119 1403 
Q 1119 906 1312 657 
Q 1506 409 1894 409 
Q 2359 409 2629 706 
Q 2900 1003 2900 1516 
L 2900 3500 
L 3475 3500 
L 3475 0 
L 2900 0 
L 2900 538 
Q 2691 219 2414 64 
Q 2138 -91 1772 -91 
Q 1169 -91 856 284 
Q 544 659 544 1381 
z
M 1991 3584 
L 1991 3584 
z
" transform="scale(0.015625)"/>
       <path id="DejaVuSans-6e" d="M 3513 2113 
L 3513 0 
L 2938 0 
L 2938 2094 
Q 2938 2591 2744 2837 
Q 2550 3084 2163 3084 
Q 1697 3084 1428 2787 
Q 1159 2491 1159 1978 
L 1159 0 
L 581 0 
L 581 3500 
L 1159 3500 
L 1159 2956 
Q 1366 3272 1645 3428 
Q 1925 3584 2291 3584 
Q 2894 3584 3203 3211 
Q 3513 2838 3513 2113 
z
" transform="scale(0.015625)"/>
      </defs>
      <use xlink:href="#DejaVuSans-5b"/>
      <use xlink:href="#DejaVuSans-63" transform="translate(39.013672 0)"/>
      <use xlink:href="#DejaVuSans-6f" transform="translate(93.994141 0)"/>
      <use xlink:href="#DejaVuSans-75" transform="translate(155.175781 0)"/>
      <use xlink:href="#DejaVuSans-6e" transform="translate(218.554688 0)"/>
      <use xlink:href="#DejaVuSans-74" transform="translate(281.933594 0)"/>
      <use xlink:href="#DejaVuSans-73" transform="translate(321.142578 0)"/>
      <use xlink:href="#DejaVuSans-5d" transform="translate(373.242188 0)"/>
     </g>
    </g>
   </g>
   <g id="line2d_12">
    <path d="M 68.546307 133.371402 
L 69.560852 133.371402 
L 69.560852 107.256614 
L 70.575398 107.256614 
L 70.575398 103.173771 
L 71.589943 103.173771 
L 71.589943 99.399068 
L 72.604489 99.399068 
L 72.604489 93.082216 
L 73.619034 93.082216 
L 73.619034 90.617104 
L 74.63358 90.617104 
L 74.63358 95.547329 
L 75.648125 95.547329 
L 75.648125 94.699947 
L 76.66267 94.699947 
L 76.66267 83.761009 
L 77.677216 83.761009 
L 77.677216 80.602583 
L 78.691761 80.602583 
L 78.691761 70.048819 
L 79.706307 70.048819 
L 79.706307 69.89475 
L 80.720852 69.89475 
L 80.720852 61.18982 
L 81.735398 61.18982 
L 81.735398 59.263951 
L 82.749943 59.263951 
L 82.749943 54.872969 
L 83.764489 54.872969 
L 83.764489 55.797386 
L 84.779034 55.797386 
L 84.779034 56.490699 
L 85.79358 56.490699 
L 85.79358 36.692763 
L 86.808125 36.692763 
L 86.808125 40.236362 
L 87.82267 40.236362 
L 87.82267 38.618632 
L 88.837216 38.618632 
L 88.837216 31.993642 
L 89.851761 31.993642 
L 89.851761 17.28 
L 90.866307 17.28 
L 90.866307 27.44859 
L 91.880852 27.44859 
L 91.880852 46.630248 
L 92.895398 46.630248 
L 92.895398 48.479083 
L 93.909943 48.479083 
L 93.909943 43.856997 
L 94.924489 43.856997 
L 94.924489 40.159327 
L 95.939034 40.159327 
L 95.939034 29.528529 
L 96.95358 29.528529 
L 96.95358 33.149163 
L 97.968125 33.149163 
L 97.968125 50.096813 
L 98.98267 50.096813 
L 98.98267 57.261047 
L 99.997216 57.261047 
L 99.997216 50.867161 
L 101.011761 50.867161 
L 101.011761 57.877325 
L 102.026307 57.877325 
L 102.026307 69.663645 
L 103.040852 69.663645 
L 103.040852 67.96888 
L 104.055398 67.96888 
L 104.055398 78.445609 
L 105.069943 78.445609 
L 105.069943 86.380191 
L 106.084489 86.380191 
L 106.084489 96.779885 
L 107.099034 96.779885 
L 107.099034 99.938311 
L 108.11358 99.938311 
L 108.11358 111.570562 
L 109.128125 111.570562 
L 109.128125 126.361238 
L 110.14267 126.361238 
L 110.14267 128.364142 
L 111.157216 128.364142 
L 111.157216 127.593794 
L 112.171761 127.593794 
L 112.171761 136.298724 
L 113.186307 136.298724 
L 113.186307 145.619931 
L 114.200852 145.619931 
L 114.200852 154.710034 
L 115.215398 154.710034 
L 115.215398 159.178051 
L 116.229943 159.178051 
L 116.229943 163.954207 
L 117.244489 163.954207 
L 117.244489 170.656232 
L 118.259034 170.656232 
L 118.259034 172.659136 
L 119.27358 172.659136 
L 119.27358 184.291387 
L 120.288125 184.291387 
L 120.288125 188.22016 
L 121.30267 188.22016 
L 121.30267 193.304455 
L 122.317216 193.304455 
L 122.317216 198.38875 
L 123.331761 198.38875 
L 123.331761 178.590814 
L 124.346307 178.590814 
L 124.346307 148.470218 
L 125.360852 148.470218 
L 125.360852 137.146106 
L 126.375398 137.146106 
L 126.375398 97.242094 
L 127.389943 97.242094 
L 127.389943 96.548781 
L 128.404489 96.548781 
L 128.404489 100.939763 
L 129.419034 100.939763 
L 129.419034 96.85692 
L 130.43358 96.85692 
L 130.43358 97.935407 
L 131.448125 97.935407 
L 131.448125 94.160703 
L 132.46267 94.160703 
L 132.46267 99.013894 
L 133.477216 99.013894 
L 133.477216 102.095285 
L 135.506307 102.172319 
L 135.506307 108.64324 
L 136.520852 108.64324 
L 136.520852 114.420848 
L 137.535398 114.420848 
L 137.535398 105.947023 
L 138.549943 105.947023 
L 138.549943 113.034222 
L 139.564489 113.034222 
L 139.564489 114.035674 
L 140.579034 114.035674 
L 140.579034 117.34817 
L 141.59358 117.34817 
L 141.59358 109.105449 
L 142.608125 109.105449 
L 142.608125 112.649049 
L 143.62267 112.649049 
L 143.62267 113.80457 
L 144.637216 113.80457 
L 144.637216 119.813282 
L 145.651761 119.813282 
L 145.651761 124.743508 
L 146.666307 124.743508 
L 146.666307 123.742056 
L 148.695398 123.819091 
L 148.695398 121.816186 
L 149.709943 121.816186 
L 149.709943 129.288559 
L 150.724489 129.288559 
L 150.724489 130.90629 
L 151.739034 130.90629 
L 151.739034 118.9659 
L 152.75358 118.9659 
L 152.75358 121.276943 
L 153.768125 121.276943 
L 153.768125 127.593794 
L 154.78267 127.593794 
L 154.78267 130.829255 
L 155.797216 130.829255 
L 155.797216 132.755124 
L 156.811761 132.755124 
L 156.811761 126.669377 
L 157.826307 126.669377 
L 157.826307 133.525472 
L 158.840852 133.525472 
L 158.840852 139.919358 
L 159.855398 139.919358 
L 159.855398 136.221689 
L 160.869943 136.221689 
L 160.869943 130.290011 
L 161.884489 130.290011 
L 161.884489 128.441177 
L 162.899034 128.441177 
L 162.899034 135.990585 
L 163.91358 135.990585 
L 163.91358 136.606863 
L 164.928125 136.606863 
L 164.928125 142.230401 
L 165.94267 142.230401 
L 165.94267 149.086496 
L 166.957216 149.086496 
L 166.957216 150.858296 
L 167.971761 150.858296 
L 167.971761 156.404799 
L 168.986307 156.404799 
L 168.986307 153.554513 
L 170.000852 153.554513 
L 170.000852 158.330669 
L 171.015398 158.330669 
L 171.015398 155.865556 
L 172.029943 155.865556 
L 172.029943 160.179503 
L 173.044489 160.179503 
L 173.044489 166.727459 
L 174.059034 166.727459 
L 174.059034 164.570485 
L 175.07358 164.570485 
L 175.07358 172.659136 
L 176.088125 172.659136 
L 176.088125 159.64026 
L 177.10267 159.64026 
L 177.10267 154.170791 
L 178.117216 154.170791 
L 178.117216 145.311792 
L 179.131761 145.311792 
L 179.131761 142.69261 
L 180.146307 142.69261 
L 180.146307 143.617027 
L 181.160852 143.617027 
L 181.160852 140.766741 
L 182.175398 140.766741 
L 182.175398 145.003653 
L 183.189943 145.003653 
L 183.189943 142.307436 
L 184.204489 142.307436 
L 184.204489 151.782713 
L 185.219034 151.782713 
L 185.219034 155.865556 
L 186.23358 155.865556 
L 186.23358 150.010913 
L 187.248125 150.010913 
L 187.248125 161.25799 
L 188.26267 161.25799 
L 188.26267 157.714391 
L 189.277216 157.714391 
L 189.277216 162.644616 
L 190.291761 162.644616 
L 190.291761 157.021078 
L 191.306307 157.021078 
L 191.306307 162.644616 
L 192.320852 162.644616 
L 192.320852 164.031242 
L 193.335398 164.031242 
L 193.335398 159.332121 
L 194.349943 159.332121 
L 194.349943 164.570485 
L 195.364489 164.570485 
L 195.364489 164.955659 
L 196.379034 164.955659 
L 196.379034 163.723103 
L 197.39358 163.723103 
L 197.39358 168.268154 
L 198.408125 168.268154 
L 198.408125 168.422224 
L 199.42267 168.422224 
L 199.42267 167.035598 
L 200.437216 167.035598 
L 200.437216 167.882981 
L 201.451761 167.882981 
L 201.451761 168.345189 
L 202.466307 168.345189 
L 202.466307 168.576293 
L 203.480852 168.576293 
L 203.480852 170.348093 
L 204.495398 170.348093 
L 204.495398 176.43384 
L 205.509943 176.43384 
L 205.509943 182.057379 
L 206.524489 182.057379 
L 206.524489 181.74924 
L 207.539034 181.74924 
L 207.539034 173.814658 
L 208.55358 173.814658 
L 208.55358 177.127153 
L 209.568125 177.127153 
L 209.568125 181.055927 
L 210.58267 181.055927 
L 210.58267 184.445457 
L 211.597216 184.445457 
L 211.597216 188.297195 
L 212.611761 188.297195 
L 212.611761 186.910569 
L 213.626307 186.910569 
L 213.626307 188.682369 
L 214.640852 188.682369 
L 214.640852 191.840795 
L 215.655398 191.840795 
L 215.655398 190.993412 
L 216.669943 190.993412 
L 216.669943 193.304455 
L 217.684489 193.304455 
L 217.684489 193.766664 
L 218.699034 193.766664 
L 218.699034 192.534108 
L 219.71358 192.534108 
L 219.71358 194.459977 
L 220.728125 194.459977 
L 220.728125 198.69689 
L 221.74267 198.69689 
L 221.74267 198.157646 
L 222.757216 198.157646 
L 222.757216 201.855315 
L 223.771761 201.855315 
L 223.771761 199.467237 
L 224.786307 199.467237 
L 224.786307 198.157646 
L 225.800852 198.157646 
L 225.800852 191.532656 
L 226.815398 191.532656 
L 226.815398 192.611143 
L 227.829943 192.611143 
L 227.829943 188.5283 
L 228.844489 188.5283 
L 228.844489 192.071899 
L 229.859034 192.071899 
L 229.859034 190.454169 
L 230.87358 190.454169 
L 230.87358 191.532656 
L 231.888125 191.532656 
L 231.888125 189.914925 
L 232.90267 189.914925 
L 232.90267 190.608238 
L 233.917216 190.608238 
L 233.917216 193.304455 
L 234.931761 193.304455 
L 234.931761 195.384394 
L 235.946307 195.384394 
L 235.946307 196.693985 
L 236.960852 196.693985 
L 236.960852 199.775376 
L 237.975398 199.775376 
L 237.975398 201.547176 
L 238.989943 201.547176 
L 238.989943 200.237585 
L 240.004489 200.237585 
L 240.004489 199.159098 
L 241.019034 199.159098 
L 241.019034 200.006481 
L 242.03358 200.006481 
L 242.03358 201.393107 
L 243.048125 201.393107 
L 243.048125 201.624211 
L 244.06267 201.624211 
L 244.06267 198.927994 
L 245.077216 198.927994 
L 245.077216 200.622759 
L 246.091761 200.622759 
L 246.091761 203.241941 
L 247.106307 203.241941 
L 247.106307 204.320428 
L 248.120852 204.320428 
L 248.120852 204.551532 
L 249.135398 204.551532 
L 249.135398 207.478854 
L 250.149943 207.478854 
L 250.149943 206.246297 
L 251.164489 206.246297 
L 251.164489 207.016645 
L 252.179034 207.016645 
L 252.179034 205.552984 
L 253.19358 205.552984 
L 253.19358 208.095132 
L 254.208125 208.095132 
L 254.208125 209.250653 
L 255.22267 209.250653 
L 255.22267 211.099488 
L 256.237216 211.099488 
L 256.237216 210.32914 
L 257.251761 210.32914 
L 257.251761 208.942514 
L 258.266307 208.942514 
L 258.266307 210.560245 
L 259.280852 210.560245 
L 259.280852 212.794253 
L 260.295398 212.794253 
L 260.295398 214.334948 
L 261.309943 214.334948 
L 261.309943 213.333496 
L 262.324489 213.333496 
L 262.324489 213.564601 
L 263.339034 213.564601 
L 263.339034 213.949775 
L 264.35358 213.949775 
L 264.35358 214.797157 
L 265.368125 214.797157 
L 265.368125 215.721574 
L 266.38267 215.721574 
L 266.38267 213.025357 
L 267.397216 213.025357 
L 267.397216 215.567505 
L 268.411761 215.567505 
L 268.411761 216.337853 
L 269.426307 216.337853 
L 269.426307 215.028261 
L 270.440852 215.028261 
L 270.440852 212.794253 
L 271.455398 212.794253 
L 271.455398 211.484662 
L 272.469943 211.484662 
L 272.469943 209.173619 
L 273.484489 209.173619 
L 273.484489 209.635827 
L 274.499034 209.635827 
L 274.499034 206.708506 
L 275.51358 206.708506 
L 275.51358 208.942514 
L 276.528125 208.942514 
L 276.528125 209.943966 
L 277.54267 209.943966 
L 277.54267 206.785541 
L 278.557216 206.785541 
L 278.557216 206.246297 
L 279.571761 206.246297 
L 279.571761 210.252105 
L 280.586307 210.252105 
L 280.586307 208.634375 
L 281.600852 208.634375 
L 281.600852 210.406175 
L 282.615398 210.406175 
L 282.615398 210.098036 
L 283.629943 210.098036 
L 283.629943 208.326236 
L 284.644489 208.326236 
L 284.644489 210.714314 
L 285.659034 210.714314 
L 285.659034 209.327688 
L 286.67358 209.327688 
L 286.67358 211.099488 
L 287.688125 211.099488 
L 287.688125 213.795705 
L 288.70267 213.795705 
L 288.70267 214.026809 
L 289.717216 214.026809 
L 289.717216 211.638731 
L 290.731761 211.638731 
L 290.731761 212.486114 
L 292.760852 212.563149 
L 292.760852 212.177975 
L 293.775398 212.177975 
L 293.775398 212.717218 
L 294.789943 212.717218 
L 294.789943 213.333496 
L 295.804489 213.333496 
L 295.804489 213.179427 
L 296.819034 213.179427 
L 296.819034 213.487566 
L 297.83358 213.487566 
L 297.83358 214.180879 
L 298.848125 214.180879 
L 298.848125 216.029713 
L 299.86267 216.029713 
L 299.86267 216.337853 
L 300.877216 216.337853 
L 300.877216 212.717218 
L 301.891761 212.717218 
L 301.891761 214.180879 
L 302.906307 214.180879 
L 302.906307 216.954131 
L 303.920852 216.954131 
L 303.920852 217.185235 
L 304.935398 217.185235 
L 304.935398 216.877096 
L 305.949943 216.877096 
L 305.949943 216.723026 
L 306.964489 216.723026 
L 306.964489 217.570409 
L 307.979034 217.570409 
L 307.979034 217.031165 
L 308.99358 217.031165 
L 308.99358 218.032618 
L 310.008125 218.032618 
L 310.008125 218.263722 
L 311.02267 218.263722 
L 311.02267 218.032618 
L 312.037216 218.032618 
L 312.037216 218.417791 
L 313.051761 218.417791 
L 313.051761 218.186687 
L 314.066307 218.186687 
L 314.066307 217.570409 
L 315.080852 217.570409 
L 315.080852 216.260818 
L 316.095398 216.260818 
L 316.095398 216.106748 
L 317.109943 216.106748 
L 317.109943 215.3364 
L 319.139034 215.413435 
L 319.139034 214.334948 
L 320.15358 214.334948 
L 320.15358 212.25501 
L 321.168125 212.25501 
L 321.168125 209.789897 
L 322.18267 209.789897 
L 322.18267 209.558793 
L 323.197216 209.558793 
L 323.197216 205.090776 
L 324.211761 205.090776 
L 324.211761 205.861123 
L 325.226307 205.861123 
L 325.226307 204.474498 
L 326.240852 204.474498 
L 326.240852 204.166358 
L 327.255398 204.166358 
L 327.255398 201.701246 
L 328.269943 201.701246 
L 328.269943 204.089324 
L 329.284489 204.089324 
L 329.284489 205.630019 
L 330.299034 205.630019 
L 330.299034 206.93961 
L 331.31358 206.93961 
L 331.31358 205.398915 
L 332.328125 205.398915 
L 332.328125 204.705602 
L 333.34267 204.705602 
L 333.34267 208.326236 
L 334.357216 208.326236 
L 334.357216 207.016645 
L 335.371761 207.016645 
L 335.371761 203.935254 
L 336.386307 203.935254 
L 336.386307 203.781185 
L 337.400852 203.781185 
L 337.400852 207.324784 
L 338.415398 207.324784 
L 338.415398 208.942514 
L 339.429943 208.942514 
L 339.429943 207.016645 
L 340.444489 207.016645 
L 340.444489 203.087872 
L 341.459034 203.087872 
L 341.459034 206.93961 
L 342.47358 206.93961 
L 342.47358 207.709958 
L 343.488125 207.709958 
L 343.488125 208.788445 
L 344.50267 208.788445 
L 344.50267 209.789897 
L 345.517216 209.789897 
L 345.517216 208.788445 
L 346.531761 208.788445 
L 346.531761 205.784089 
L 347.546307 205.784089 
L 347.546307 207.709958 
L 348.560852 207.709958 
L 348.560852 211.869836 
L 349.575398 211.869836 
L 349.575398 211.176523 
L 351.604489 211.253558 
L 351.604489 209.019549 
L 352.619034 209.019549 
L 352.619034 209.173619 
L 353.63358 209.173619 
L 353.63358 209.481758 
L 354.648125 209.481758 
L 354.648125 210.252105 
L 355.66267 210.252105 
L 355.66267 208.018097 
L 356.677216 208.018097 
L 356.677216 212.640183 
L 357.691761 212.640183 
L 357.691761 213.641635 
L 358.706307 213.641635 
L 358.706307 212.871288 
L 359.720852 212.871288 
L 359.720852 211.176523 
L 360.735398 211.176523 
L 360.735398 213.333496 
L 362.764489 213.333496 
L 362.764489 213.102392 
L 363.779034 213.102392 
L 363.779034 213.795705 
L 364.79358 213.795705 
L 364.79358 214.103844 
L 365.808125 214.103844 
L 365.808125 215.49047 
L 367.837216 215.49047 
L 367.837216 217.339305 
L 368.851761 217.339305 
L 368.851761 216.645992 
L 369.866307 216.645992 
L 369.866307 218.571861 
L 371.895398 218.571861 
L 371.895398 218.88 
L 372.909943 218.88 
L 372.909943 218.88 
" clip-path="url(#pd1ff5c9bb8)" style="fill: none; stroke: #1f77b4; stroke-width: 1.5; stroke-linecap: square"/>
   </g>
   <g id="patch_3">
    <path d="M 53.328125 228.96 
L 53.328125 7.2 
" style="fill: none; stroke: #000000; stroke-width: 0.8; stroke-linejoin: miter; stroke-linecap: square"/>
   </g>
   <g id="patch_4">
    <path d="M 388.128125 228.96 
L 388.128125 7.2 
" style="fill: none; stroke: #000000; stroke-width: 0.8; stroke-linejoin: miter; stroke-linecap: square"/>
   </g>
   <g id="patch_5">
    <path d="M 53.328125 228.96 
L 388.128125 228.96 
" style="fill: none; stroke: #000000; stroke-width: 0.8; stroke-linejoin: miter; stroke-linecap: square"/>
   </g>
   <g id="patch_6">
    <path d="M 53.328125 7.2 
L 388.128125 7.2 
" style="fill: none; stroke: #000000; stroke-width: 0.8; stroke-linejoin: miter; stroke-linecap: square"/>
   </g>
  </g>
 </g>
 <defs>
  <clipPath id="pd1ff5c9bb8">
   <rect x="53.328125" y="7.2" width="334.8" height="221.76"/>
  </clipPath>
 </defs>
</svg>
