<?xml version="1.0" encoding="utf-8" standalone="no"?>
<!DOCTYPE svg PUBLIC "-//W3C//DTD SVG 1.1//EN"
  "http://www.w3.org/Graphics/SVG/1.1/DTD/svg11.dtd">
<svg xmlns:xlink="http://www.w3.org/1999/xlink" width="872.39952pt" height="296.39952pt" viewBox="0 0 872.39952 296.39952" xmlns="http://www.w3.org/2000/svg" version="1.1">
 <metadata>
  <rdf:RDF xmlns:dc="http://purl.org/dc/elements/1.1/" xmlns:cc="http://creativecommons.org/ns#" xmlns:rdf="http://www.w3.org/1999/02/22-rdf-syntax-ns#">
   <cc:Work>
    <dc:type rdf:resource="http://purl.org/dc/dcmitype/StillImage"/>
    <dc:date>2026-02-24T15:35:35.813223</dc:date>
    <dc:format>image/svg+xml</dc:format>
    <dc:creator>
     <cc:Agent>
      <dc:title>Matplotlib v3.10.8, https://matplotlib.org/</dc:title>
     </cc:Agent>
    </dc:creator>
   </cc:Work>
  </rdf:RDF>
 </metadata>
 <defs>
  <style type="text/css">*{stroke-linejoin: round; stroke-linecap: butt}</style>
 </defs>
 <g id="figure_1">
  <g id="patch_1">
   <path d="M 0 296.39952 
L 872.39952 296.39952 
L 872.39952 0 
L 0 0 
z
" style="fill: #ffffff"/>
  </g>
  <g id="axes_1">
   <g id="patch_2">
    <path d="M 53.328125 257.158895 
L 414.59976 257.158895 
L 414.59976 7.2 
L 53.328125 7.2 
z
" style="fill: #ffffff"/>
   </g>
   <g id="matplotlib.axis_1">
    <g id="xtick_1">
     <g id="line2d_1">
      <defs>
       <path id="m1955cebde9" d="M 0 0 
L 0 3.5 
" style="stroke: #000000; stroke-width: 0.8"/>
      </defs>
      <g>
       <use xlink:href="#m1955cebde9" x="68.912855" y="257.158895" style="stroke: #000000; stroke-width: 0.8"/>
      </g>
     </g>
     <g id="text_1">
      <!-- 0 -->
      <g transform="translate(65.731605 271.757332) scale(0.1 -0.1)">
       <defs>
        <path id="DejaVuSans-30" d="M 2034 4250 
Q 1547 4250 1301 3770 
Q 1056 3291 1056 2328 
Q 1056 1369 1301 889 
Q 1547 409 2034 409 
Q 2525 409 2770 889 
Q 3016 1369 3016 2328 
Q 3016 3291 2770 3770 
Q 2525 4250 2034 4250 
z
M 2034 4750 
Q 2819 4750 3233 4129 
Q 3647 3509 3647 2328 
Q 3647 1150 3233 529 
Q 2819 -91 2034 -91 
Q 1250 -91 836 529 
Q 422 1150 422 2328 
Q 422 3509 836 4129 
Q 1250 4750 2034 4750 
z
" transform="scale(0.015625)"/>
       </defs>
       <use xlink:href="#DejaVuSans-30"/>
      </g>
     </g>
    </g>
    <g id="xtick_2">
     <g id="line2d_2">
      <g>
       <use xlink:href="#m1955cebde9" x="135.090438" y="257.158895" style="stroke: #000000; stroke-width: 0.8"/>
      </g>
     </g>
     <g id="text_2">
      <!-- 1000 -->
      <g transform="translate(122.365438 271.757332) scale(0.1 -0.1)">
       <defs>
        <path id="DejaVuSans-31" d="M 794 531 
L 1825 531 
L 1825 4091 
L 703 3866 
L 703 4441 
L 1819 4666 
L 2450 4666 
L 2450 531 
L 3481 531 
L 3481 0 
L 794 0 
L 794 531 
z
" transform="scale(0.015625)"/>
       </defs>
       <use xlink:href="#DejaVuSans-31"/>
       <use xlink:href="#DejaVuSans-30" transform="translate(63.623047 0)"/>
       <use xlink:href="#DejaVuSans-30" transform="translate(127.246094 0)"/>
       <use xlink:href="#DejaVuSans-30" transform="translate(190.869141 0)"/>
      </g>
     </g>
    </g>
    <g id="xtick_3">
     <g id="line2d_3">
      <g>
       <use xlink:href="#m1955cebde9" x="201.268022" y="257.158895" style="stroke: #000000; stroke-width: 0.8"/>
      </g>
     </g>
     <g id="text_3">
      <!-- 2000 -->
      <g transform="translate(188.543022 271.757332) scale(0.1 -0.1)">
       <defs>
        <path id="DejaVuSans-32" d="M 1228 531 
L 3431 531 
L 3431 0 
L 469 0 
L 469 531 
Q 828 903 1448 1529 
Q 2069 2156 2228 2338 
Q 2531 2678 2651 2914 
Q 2772 3150 2772 3378 
Q 2772 3750 2511 3984 
Q 2250 4219 1831 4219 
Q 1534 4219 1204 4116 
Q 875 4013 500 3803 
L 500 4441 
Q 881 4594 1212 4672 
Q 1544 4750 1819 4750 
Q 2544 4750 2975 4387 
Q 3406 4025 3406 3419 
Q 3406 3131 3298 2873 
Q 3191 2616 2906 2266 
Q 2828 2175 2409 1742 
Q 1991 1309 1228 531 
z
" transform="scale(0.015625)"/>
       </defs>
       <use xlink:href="#DejaVuSans-32"/>
       <use xlink:href="#DejaVuSans-30" transform="translate(63.623047 0)"/>
       <use xlink:href="#DejaVuSans-30" transform="translate(127.246094 0)"/>
       <use xlink:href="#DejaVuSans-30" transform="translate(190.869141 0)"/>
      </g>
     </g>
    </g>
    <g id="xtick_4">
     <g id="line2d_4">
      <g>
       <use xlink:href="#m1955cebde9" x="267.445605" y="257.158895" style="stroke: #000000; stroke-width: 0.8"/>
      </g>
     </g>
     <g id="text_4">
      <!-- 3000 -->
      <g transform="translate(254.720605 271.757332) scale(0.1 -0.1)">
       <defs>
        <path id="DejaVuSans-33" d="M 2597 2516 
Q 3050 2419 3304 2112 
Q 3559 1806 3559 1356 
Q 3559 666 3084 287 
Q 2609 -91 1734 -91 
Q 1441 -91 1130 -33 
Q 819 25 488 141 
L 488 750 
Q 750 597 1062 519 
Q 1375 441 1716 441 
Q 2309 441 2620 675 
Q 2931 909 2931 1356 
Q 2931 1769 2642 2001 
Q 2353 2234 1838 2234 
L 1294 2234 
L 1294 2753 
L 1863 2753 
Q 2328 2753 2575 2939 
Q 2822 3125 2822 3475 
Q 2822 3834 2567 4026 
Q 2313 4219 1838 4219 
Q 1578 4219 1281 4162 
Q 984 4106 628 3988 
L 628 4550 
Q 988 4650 1302 4700 
Q 1616 4750 1894 4750 
Q 2613 4750 3031 4423 
Q 3450 4097 3450 3541 
Q 3450 3153 3228 2886 
Q 3006 2619 2597 2516 
z
" transform="scale(0.015625)"/>
       </defs>
       <use xlink:href="#DejaVuSans-33"/>
       <use xlink:href="#DejaVuSans-30" transform="translate(63.623047 0)"/>
       <use xlink:href="#DejaVuSans-30" transform="translate(127.246094 0)"/>
       <use xlink:href="#DejaVuSans-30" transform="translate(190.869141 0)"/>
      </g>
     </g>
    </g>
    <g id="xtick_5">
     <g id="line2d_5">
      <g>
       <use xlink:href="#m1955cebde9" x="333.623188" y="257.158895" style="stroke: #000000; stroke-width: 0.8"/>
      </g>
     </g>
     <g id="text_5">
      <!-- 4000 -->
      <g transform="translate(320.898188 271.757332) scale(0.1 -0.1)">
       <defs>
        <path id="DejaVuSans-34" d="M 2419 4116 
L 825 1625 
L 2419 1625 
L 2419 4116 
z
M 2253 4666 
L 3047 4666 
L 3047 1625 
L 3713 1625 
L 3713 1100 
L 3047 1100 
L 3047 0 
L 2419 0 
L 2419 1100 
L 313 1100 
L 313 1709 
L 2253 4666 
z
" transform="scale(0.015625)"/>
       </defs>
       <use xlink:href="#DejaVuSans-34"/>
       <use xlink:href="#DejaVuSans-30" transform="translate(63.623047 0)"/>
       <use xlink:href="#DejaVuSans-30" transform="translate(127.246094 0)"/>
       <use xlink:href="#DejaVuSans-30" transform="translate(190.869141 0)"/>
      </g>
     </g>
    </g>
    <g id="xtick_6">
     <g id="line2d_6">
      <g>
       <use xlink:href="#m1955cebde9" x="399.800771" y="257.158895" style="stroke: #000000; stroke-width: 0.8"/>
      </g>
     </g>
     <g id="text_6">
      <!-- 5000 -->
      <g transform="translate(387.075771 271.757332) scale(0.1 -0.1)">
       <defs>
        <path id="DejaVuSans-35" d="M 691 4666 
L 3169 4666 
L 3169 4134 
L 1269 4134 
L 1269 2991 
Q 1406 3038 1543 3061 
Q 1681 3084 1819 3084 
Q 2600 3084 3056 2656 
Q 3513 2228 3513 1497 
Q 3513 744 3044 326 
Q 2575 -91 1722 -91 
Q 1428 -91 1123 -41 
Q 819 9 494 109 
L 494 744 
Q 775 591 1075 516 
Q 1375 441 1709 441 
Q 2250 441 2565 725 
Q 2881 1009 2881 1497 
Q 2881 1984 2565 2268 
Q 2250 2553 1709 2553 
Q 1456 2553 1204 2497 
Q 953 2441 691 2322 
L 691 4666 
z
" transform="scale(0.015625)"/>
       </defs>
       <use xlink:href="#DejaVuSans-35"/>
       <use xlink:href="#DejaVuSans-30" transform="translate(63.623047 0)"/>
       <use xlink:href="#DejaVuSans-30" transform="translate(127.246094 0)"/>
       <use xlink:href="#DejaVuSans-30" transform="translate(190.869141 0)"/>
      </g>
     </g>
    </g>
    <g id="text_7">
     <!-- birth_time [µs] -->
     <g transform="translate(197.14363 285.435457) scale(0.1 -0.1)">
      <defs>
       <path id="DejaVuSans-62" d="M 3116 1747 
Q 3116 2381 2855 2742 
Q 2594 3103 2138 3103 
Q 1681 3103 1420 2742 
Q 1159 2381 1159 1747 
Q 1159 1113 1420 752 
Q 1681 391 2138 391 
Q 2594 391 2855 752 
Q 3116 1113 3116 1747 
z
M 1159 2969 
Q 1341 3281 1617 3432 
Q 1894 3584 2278 3584 
Q 2916 3584 3314 3078 
Q 3713 2572 3713 1747 
Q 3713 922 3314 415 
Q 2916 -91 2278 -91 
Q 1894 -91 1617 61 
Q 1341 213 1159 525 
L 1159 0 
L 581 0 
L 581 4863 
L 1159 4863 
L 1159 2969 
z
" transform="scale(0.015625)"/>
       <path id="DejaVuSans-69" d="M 603 3500 
L 1178 3500 
L 1178 0 
L 603 0 
L 603 3500 
z
M 603 4863 
L 1178 4863 
L 1178 4134 
L 603 4134 
L 603 4863 
z
" transform="scale(0.015625)"/>
       <path id="DejaVuSans-72" d="M 2631 2963 
Q 2534 3019 2420 3045 
Q 2306 3072 2169 3072 
Q 1681 3072 1420 2755 
Q 1159 2438 1159 1844 
L 1159 0 
L 581 0 
L 581 3500 
L 1159 3500 
L 1159 2956 
Q 1341 3275 1631 3429 
Q 1922 3584 2338 3584 
Q 2397 3584 2469 3576 
Q 2541 3569 2628 3553 
L 2631 2963 
z
" transform="scale(0.015625)"/>
       <path id="DejaVuSans-74" d="M 1172 4494 
L 1172 3500 
L 2356 3500 
L 2356 3053 
L 1172 3053 
L 1172 1153 
Q 1172 725 1289 603 
Q 1406 481 1766 481 
L 2356 481 
L 2356 0 
L 1766 0 
Q 1100 0 847 248 
Q 594 497 594 1153 
L 594 3053 
L 172 3053 
L 172 3500 
L 594 3500 
L 594 4494 
L 1172 4494 
z
" transform="scale(0.015625)"/>
       <path id="DejaVuSans-68" d="M 3513 2113 
L 3513 0 
L 2938 0 
L 2938 2094 
Q 2938 2591 2744 2837 
Q 2550 3084 2163 3084 
Q 1697 3084 1428 2787 
Q 1159 2491 1159 1978 
L 1159 0 
L 581 0 
L 581 4863 
L 1159 4863 
L 1159 2956 
Q 1366 3272 1645 3428 
Q 1925 3584 2291 3584 
Q 2894 3584 3203 3211 
Q 3513 2838 3513 2113 
z
" transform="scale(0.015625)"/>
       <path id="DejaVuSans-5f" d="M 3263 -1063 
L 3263 -1509 
L -63 -1509 
L -63 -1063 
L 3263 -1063 
z
" transform="scale(0.015625)"/>
       <path id="DejaVuSans-6d" d="M 3328 2828 
Q 3544 3216 3844 3400 
Q 4144 3584 4550 3584 
Q 5097 3584 5394 3201 
Q 5691 2819 5691 2113 
L 5691 0 
L 5113 0 
L 5113 2094 
Q 5113 2597 4934 2840 
Q 4756 3084 4391 3084 
Q 3944 3084 3684 2787 
Q 3425 2491 3425 1978 
L 3425 0 
L 2847 0 
L 2847 2094 
Q 2847 2600 2669 2842 
Q 2491 3084 2119 3084 
Q 1678 3084 1418 2786 
Q 1159 2488 1159 1978 
L 1159 0 
L 581 0 
L 581 3500 
L 1159 3500 
L 1159 2956 
Q 1356 3278 1631 3431 
Q 1906 3584 2284 3584 
Q 2666 3584 2933 3390 
Q 3200 3197 3328 2828 
z
" transform="scale(0.015625)"/>
       <path id="DejaVuSans-65" d="M 3597 1894 
L 3597 1613 
L 953 1613 
Q 991 1019 1311 708 
Q 1631 397 2203 397 
Q 2534 397 2845 478 
Q 3156 559 3463 722 
L 3463 178 
Q 3153 47 2828 -22 
Q 2503 -91 2169 -91 
Q 1331 -91 842 396 
Q 353 884 353 1716 
Q 353 2575 817 3079 
Q 1281 3584 2069 3584 
Q 2775 3584 3186 3129 
Q 3597 2675 3597 1894 
z
M 3022 2063 
Q 3016 2534 2758 2815 
Q 2500 3097 2075 3097 
Q 1594 3097 1305 2825 
Q 1016 2553 972 2059 
L 3022 2063 
z
" transform="scale(0.015625)"/>
       <path id="DejaVuSans-20" transform="scale(0.015625)"/>
       <path id="DejaVuSans-5b" d="M 550 4863 
L 1875 4863 
L 1875 4416 
L 1125 4416 
L 1125 -397 
L 1875 -397 
L 1875 -844 
L 550 -844 
L 550 4863 
z
" transform="scale(0.015625)"/>
       <path id="DejaVuSans-b5" d="M 544 -1331 
L 544 3500 
L 1119 3500 
L 1119 1325 
Q 1119 872 1334 640 
Q 1550 409 1972 409 
Q 2434 409 2667 671 
Q 2900 934 2900 1459 
L 2900 3500 
L 3475 3500 
L 3475 806 
Q 3475 619 3529 530 
Q 3584 441 3700 441 
Q 3728 441 3778 458 
Q 3828 475 3916 513 
L 3916 50 
Q 3788 -22 3673 -56 
Q 3559 -91 3450 -91 
Q 3234 -91 3106 31 
Q 2978 153 2931 403 
Q 2775 156 2548 32 
Q 2322 -91 2016 -91 
Q 1697 -91 1473 31 
Q 1250 153 1119 397 
L 1119 -1331 
L 544 -1331 
z
" transform="scale(0.015625)"/>
       <path id="DejaVuSans-73" d="M 2834 3397 
L 2834 2853 
Q 2591 2978 2328 3040 
Q 2066 3103 1784 3103 
Q 1356 3103 1142 2972 
Q 928 2841 928 2578 
Q 928 2378 1081 2264 
Q 1234 2150 1697 2047 
L 1894 2003 
Q 2506 1872 2764 1633 
Q 3022 1394 3022 966 
Q 3022 478 2636 193 
Q 2250 -91 1575 -91 
Q 1294 -91 989 -36 
Q 684 19 347 128 
L 347 722 
Q 666 556 975 473 
Q 1284 391 1588 391 
Q 1994 391 2212 530 
Q 2431 669 2431 922 
Q 2431 1156 2273 1281 
Q 2116 1406 1581 1522 
L 1381 1569 
Q 847 1681 609 1914 
Q 372 2147 372 2553 
Q 372 3047 722 3315 
Q 1072 3584 1716 3584 
Q 2034 3584 2315 3537 
Q 2597 3491 2834 3397 
z
" transform="scale(0.015625)"/>
       <path id="DejaVuSans-5d" d="M 1947 4863 
L 1947 -844 
L 622 -844 
L 622 -397 
L 1369 -397 
L 1369 4416 
L 622 4416 
L 622 4863 
L 1947 4863 
z
" transform="scale(0.015625)"/>
      </defs>
      <use xlink:href="#DejaVuSans-62"/>
      <use xlink:href="#DejaVuSans-69" transform="translate(63.476562 0)"/>
      <use xlink:href="#DejaVuSans-72" transform="translate(91.259766 0)"/>
      <use xlink:href="#DejaVuSans-74" transform="translate(132.373047 0)"/>
      <use xlink:href="#DejaVuSans-68" transform="translate(171.582031 0)"/>
      <use xlink:href="#DejaVuSans-5f" transform="translate(234.960938 0)"/>
      <use xlink:href="#DejaVuSans-74" transform="translate(284.960938 0)"/>
      <use xlink:href="#DejaVuSans-69" transform="translate(324.169922 0)"/>
      <use xlink:href="#DejaVuSans-6d" transform="translate(351.953125 0)"/>
      <use xlink:href="#DejaVuSans-65" transform="translate(449.365234 0)"/>
      <use xlink:href="#DejaVuSans-20" transform="translate(510.888672 0)"/>
      <use xlink:href="#DejaVuSans-5b" transform="translate(542.675781 0)"/>
      <use xlink:href="#DejaVuSans-b5" transform="translate(581.689453 0)"/>
      <use xlink:href="#DejaVuSans-73" transform="translate(645.3125 0)"/>
      <use xlink:href="#DejaVuSans-5d" transform="translate(697.412109 0)"/>
     </g>
    </g>
   </g>
   <g id="matplotlib.axis_2">
    <g id="ytick_1">
     <g id="line2d_7">
      <defs>
       <path id="m827a276406" d="M 0 0 
L -3.5 0 
" style="stroke: #000000; stroke-width: 0.8"/>
      </defs>
      <g>
       <use xlink:href="#m827a276406" x="53.328125" y="245.797127" style="stroke: #000000; stroke-width: 0.8"/>
      </g>
     </g>
     <g id="text_8">
      <!-- 0 -->
      <g transform="translate(39.965625 249.596346) scale(0.1 -0.1)">
       <use xlink:href="#DejaVuSans-30"/>
      </g>
     </g>
    </g>
    <g id="ytick_2">
     <g id="line2d_8">
      <g>
       <use xlink:href="#m827a276406" x="53.328125" y="209.555443" style="stroke: #000000; stroke-width: 0.8"/>
      </g>
     </g>
     <g id="text_9">
      <!-- 200 -->
      <g transform="translate(27.240625 213.354662) scale(0.1 -0.1)">
       <use xlink:href="#DejaVuSans-32"/>
       <use xlink:href="#DejaVuSans-30" transform="translate(63.623047 0)"/>
       <use xlink:href="#DejaVuSans-30" transform="translate(127.246094 0)"/>
      </g>
     </g>
    </g>
    <g id="ytick_3">
     <g id="line2d_9">
      <g>
       <use xlink:href="#m827a276406" x="53.328125" y="173.313759" style="stroke: #000000; stroke-width: 0.8"/>
      </g>
     </g>
     <g id="text_10">
      <!-- 400 -->
      <g transform="translate(27.240625 177.112978) scale(0.1 -0.1)">
       <use xlink:href="#DejaVuSans-34"/>
       <use xlink:href="#DejaVuSans-30" transform="translate(63.623047 0)"/>
       <use xlink:href="#DejaVuSans-30" transform="translate(127.246094 0)"/>
      </g>
     </g>
    </g>
    <g id="ytick_4">
     <g id="line2d_10">
      <g>
       <use xlink:href="#m827a276406" x="53.328125" y="137.072075" style="stroke: #000000; stroke-width: 0.8"/>
      </g>
     </g>
     <g id="text_11">
      <!-- 600 -->
      <g transform="translate(27.240625 140.871294) scale(0.1 -0.1)">
       <defs>
        <path id="DejaVuSans-36" d="M 2113 2584 
Q 1688 2584 1439 2293 
Q 1191 2003 1191 1497 
Q 1191 994 1439 701 
Q 1688 409 2113 409 
Q 2538 409 2786 701 
Q 3034 994 3034 1497 
Q 3034 2003 2786 2293 
Q 2538 2584 2113 2584 
z
M 3366 4563 
L 3366 3988 
Q 3128 4100 2886 4159 
Q 2644 4219 2406 4219 
Q 1781 4219 1451 3797 
Q 1122 3375 1075 2522 
Q 1259 2794 1537 2939 
Q 1816 3084 2150 3084 
Q 2853 3084 3261 2657 
Q 3669 2231 3669 1497 
Q 3669 778 3244 343 
Q 2819 -91 2113 -91 
Q 1303 -91 875 529 
Q 447 1150 447 2328 
Q 447 3434 972 4092 
Q 1497 4750 2381 4750 
Q 2619 4750 2861 4703 
Q 3103 4656 3366 4563 
z
" transform="scale(0.015625)"/>
       </defs>
       <use xlink:href="#DejaVuSans-36"/>
       <use xlink:href="#DejaVuSans-30" transform="translate(63.623047 0)"/>
       <use xlink:href="#DejaVuSans-30" transform="translate(127.246094 0)"/>
      </g>
     </g>
    </g>
    <g id="ytick_5">
     <g id="line2d_11">
      <g>
       <use xlink:href="#m827a276406" x="53.328125" y="100.830391" style="stroke: #000000; stroke-width: 0.8"/>
      </g>
     </g>
     <g id="text_12">
      <!-- 800 -->
      <g transform="translate(27.240625 104.62961) scale(0.1 -0.1)">
       <defs>
        <path id="DejaVuSans-38" d="M 2034 2216 
Q 1584 2216 1326 1975 
Q 1069 1734 1069 1313 
Q 1069 891 1326 650 
Q 1584 409 2034 409 
Q 2484 409 2743 651 
Q 3003 894 3003 1313 
Q 3003 1734 2745 1975 
Q 2488 2216 2034 2216 
z
M 1403 2484 
Q 997 2584 770 2862 
Q 544 3141 544 3541 
Q 544 4100 942 4425 
Q 1341 4750 2034 4750 
Q 2731 4750 3128 4425 
Q 3525 4100 3525 3541 
Q 3525 3141 3298 2862 
Q 3072 2584 2669 2484 
Q 3125 2378 3379 2068 
Q 3634 1759 3634 1313 
Q 3634 634 3220 271 
Q 2806 -91 2034 -91 
Q 1263 -91 848 271 
Q 434 634 434 1313 
Q 434 1759 690 2068 
Q 947 2378 1403 2484 
z
M 1172 3481 
Q 1172 3119 1398 2916 
Q 1625 2713 2034 2713 
Q 2441 2713 2670 2916 
Q 2900 3119 2900 3481 
Q 2900 3844 2670 4047 
Q 2441 4250 2034 4250 
Q 1625 4250 1398 4047 
Q 1172 3844 1172 3481 
z
" transform="scale(0.015625)"/>
       </defs>
       <use xlink:href="#DejaVuSans-38"/>
       <use xlink:href="#DejaVuSans-30" transform="translate(63.623047 0)"/>
       <use xlink:href="#DejaVuSans-30" transform="translate(127.246094 0)"/>
      </g>
     </g>
    </g>
    <g id="ytick_6">
     <g id="line2d_12">
      <g>
       <use xlink:href="#m827a276406" x="53.328125" y="64.588707" style="stroke: #000000; stroke-width: 0.8"/>
      </g>
     </g>
     <g id="text_13">
      <!-- 1000 -->
      <g transform="translate(20.878125 68.387925) scale(0.1 -0.1)">
       <use xlink:href="#DejaVuSans-31"/>
       <use xlink:href="#DejaVuSans-30" transform="translate(63.623047 0)"/>
       <use xlink:href="#DejaVuSans-30" transform="translate(127.246094 0)"/>
       <use xlink:href="#DejaVuSans-30" transform="translate(190.869141 0)"/>
      </g>
     </g>
    </g>
    <g id="ytick_7">
     <g id="line2d_13">
      <g>
       <use xlink:href="#m827a276406" x="53.328125" y="28.347023" style="stroke: #000000; stroke-width: 0.8"/>
      </g>
     </g>
     <g id="text_14">
      <!-- 1200 -->
      <g transform="translate(20.878125 32.146241) scale(0.1 -0.1)">
       <use xlink:href="#DejaVuSans-31"/>
       <use xlink:href="#DejaVuSans-32" transform="translate(63.623047 0)"/>
       <use xlink:href="#DejaVuSans-30" transform="translate(127.246094 0)"/>
       <use xlink:href="#DejaVuSans-30" transform="translate(190.869141 0)"/>
      </g>
     </g>
    </g>
    <g id="text_15">
     <!-- [counts] -->
     <g transform="translate(14.798438 152.791947) rotate(-90) scale(0.1 -0.1)">
      <defs>
       <path id="DejaVuSans-63" d="M 3122 3366 
L 3122 2828 
Q 2878 2963 2633 3030 
Q 2388 3097 2138 3097 
Q 1578 3097 1268 2742 
Q 959 2388 959 1747 
Q 959 1106 1268 751 
Q 1578 397 2138 397 
Q 2388 397 2633 464 
Q 2878 531 3122 666 
L 3122 134 
Q 2881 22 2623 -34 
Q 2366 -91 2075 -91 
Q 1284 -91 818 406 
Q 353 903 353 1747 
Q 353 2603 823 3093 
Q 1294 3584 2113 3584 
Q 2378 3584 2631 3529 
Q 2884 3475 3122 3366 
z
" transform="scale(0.015625)"/>
       <path id="DejaVuSans-6f" d="M 1959 3097 
Q 1497 3097 1228 2736 
Q 959 2375 959 1747 
Q 959 1119 1226 758 
Q 1494 397 1959 397 
Q 2419 397 2687 759 
Q 2956 1122 2956 1747 
Q 2956 2369 2687 2733 
Q 2419 3097 1959 3097 
z
M 1959 3584 
Q 2709 3584 3137 3096 
Q 3566 2609 3566 1747 
Q 3566 888 3137 398 
Q 2709 -91 1959 -91 
Q 1206 -91 779 398 
Q 353 888 353 1747 
Q 353 2609 779 3096 
Q 1206 3584 1959 3584 
z
" transform="scale(0.015625)"/>
       <path id="DejaVuSans-75" d="M 544 1381 
L 544 3500 
L 1119 3500 
L 1119 1403 
Q 1119 906 1312 657 
Q 1506 409 1894 409 
Q 2359 409 2629 706 
Q 2900 1003 2900 1516 
L 2900 3500 
L 3475 3500 
L 3475 0 
L 2900 0 
L 2900 538 
Q 2691 219 2414 64 
Q 2138 -91 1772 -91 
Q 1169 -91 856 284 
Q 544 659 544 1381 
z
M 1991 3584 
L 1991 3584 
z
" transform="scale(0.015625)"/>
       <path id="DejaVuSans-6e" d="M 3513 2113 
L 3513 0 
L 2938 0 
L 2938 2094 
Q 2938 2591 2744 2837 
Q 2550 3084 2163 3084 
Q 1697 3084 1428 2787 
Q 1159 2491 1159 1978 
L 1159 0 
L 581 0 
L 581 3500 
L 1159 3500 
L 1159 2956 
Q 1366 3272 1645 3428 
Q 1925 3584 2291 3584 
Q 2894 3584 3203 3211 
Q 3513 2838 3513 2113 
z
" transform="scale(0.015625)"/>
      </defs>
      <use xlink:href="#DejaVuSans-5b"/>
      <use xlink:href="#DejaVuSans-63" transform="translate(39.013672 0)"/>
      <use xlink:href="#DejaVuSans-6f" transform="translate(93.994141 0)"/>
      <use xlink:href="#DejaVuSans-75" transform="translate(155.175781 0)"/>
      <use xlink:href="#DejaVuSans-6e" transform="translate(218.554688 0)"/>
      <use xlink:href="#DejaVuSans-74" transform="translate(281.933594 0)"/>
      <use xlink:href="#DejaVuSans-73" transform="translate(321.142578 0)"/>
      <use xlink:href="#DejaVuSans-5d" transform="translate(373.242188 0)"/>
     </g>
    </g>
   </g>
   <g id="line2d_14">
    <path d="M 69.749563 236.374289 
L 70.844325 236.374289 
L 70.844325 227.676285 
L 71.939088 227.676285 
L 71.939088 218.978281 
L 73.033851 218.978281 
L 73.033851 212.817195 
L 74.128613 212.817195 
L 74.128613 202.850731 
L 75.223376 202.850731 
L 75.223376 193.065477 
L 76.318138 193.065477 
L 76.318138 180.924513 
L 77.412901 180.924513 
L 77.412901 175.669468 
L 78.507663 175.669468 
L 78.507663 173.494967 
L 79.602426 173.494967 
L 79.602426 166.790256 
L 80.697188 166.790256 
L 80.697188 160.810378 
L 81.791951 160.810378 
L 81.791951 145.770079 
L 82.886713 145.770079 
L 82.886713 141.421077 
L 83.981476 141.421077 
L 83.981476 140.152618 
L 85.076238 140.152618 
L 85.076238 134.17274 
L 86.171001 134.17274 
L 86.171001 110.978062 
L 87.265763 110.978062 
L 87.265763 125.293528 
L 88.360526 125.293528 
L 88.360526 128.011654 
L 89.455288 128.011654 
L 89.455288 114.058605 
L 90.550051 114.058605 
L 90.550051 114.964648 
L 91.644814 114.964648 
L 91.644814 101.192808 
L 92.739576 101.192808 
L 92.739576 94.306888 
L 93.834339 94.306888 
L 93.834339 100.467974 
L 94.929101 100.467974 
L 94.929101 85.246467 
L 96.023864 85.246467 
L 96.023864 96.662597 
L 97.118626 96.662597 
L 97.118626 79.810214 
L 98.213389 79.810214 
L 98.213389 92.676012 
L 99.308151 92.676012 
L 99.308151 83.253174 
L 100.402914 83.253174 
L 100.402914 78.722964 
L 101.497676 78.722964 
L 101.497676 64.951124 
L 102.592439 64.951124 
L 102.592439 72.19946 
L 103.687201 72.19946 
L 103.687201 69.481334 
L 104.781964 69.481334 
L 104.781964 65.494749 
L 105.876726 65.494749 
L 105.876726 79.447797 
L 106.971489 79.447797 
L 106.971489 66.400791 
L 108.066252 66.400791 
L 108.066252 57.702787 
L 109.161014 57.702787 
L 109.161014 66.038374 
L 110.255777 66.038374 
L 110.255777 64.22629 
L 111.350539 64.22629 
L 111.350539 67.850458 
L 112.445302 67.850458 
L 112.445302 62.232997 
L 114.634827 62.232997 
L 114.634827 57.159161 
L 115.729589 57.159161 
L 115.729589 62.232997 
L 116.824352 62.232997 
L 116.824352 50.092033 
L 117.919114 50.092033 
L 117.919114 61.145747 
L 119.013877 61.145747 
L 119.013877 50.273242 
L 120.108639 50.273242 
L 120.108639 56.071911 
L 121.203402 56.071911 
L 121.203402 55.165869 
L 122.298164 55.165869 
L 122.298164 48.09874 
L 123.392927 48.09874 
L 123.392927 66.400791 
L 124.487689 66.400791 
L 124.487689 57.159161 
L 125.582452 57.159161 
L 125.582452 44.474572 
L 126.677215 44.474572 
L 126.677215 42.481279 
L 127.771977 42.481279 
L 127.771977 56.434328 
L 128.86674 56.434328 
L 128.86674 51.904117 
L 129.961502 51.904117 
L 129.961502 50.45445 
L 131.056265 50.45445 
L 131.056265 48.461157 
L 132.151027 48.461157 
L 132.151027 37.769861 
L 133.24579 37.769861 
L 133.24579 43.56853 
L 134.340552 43.56853 
L 134.340552 43.024905 
L 135.435315 43.024905 
L 135.435315 49.185991 
L 136.530077 49.185991 
L 136.530077 52.810159 
L 137.62484 52.810159 
L 137.62484 38.494694 
L 138.719602 38.494694 
L 138.719602 39.581945 
L 139.814365 39.581945 
L 139.814365 43.749738 
L 140.909127 43.749738 
L 140.909127 46.467865 
L 142.00389 46.467865 
L 142.00389 51.722909 
L 143.098652 51.722909 
L 143.098652 42.118863 
L 144.193415 42.118863 
L 144.193415 44.65578 
L 145.288178 44.65578 
L 145.288178 40.12557 
L 147.477703 40.12557 
L 147.477703 39.763153 
L 148.572465 39.763153 
L 148.572465 32.514816 
L 149.667228 32.514816 
L 149.667228 41.575237 
L 150.76199 41.575237 
L 150.76199 33.23965 
L 151.856753 33.23965 
L 151.856753 31.789983 
L 152.951515 31.789983 
L 152.951515 24.722854 
L 154.046278 24.722854 
L 154.046278 40.487987 
L 155.14104 40.487987 
L 155.14104 41.394029 
L 156.235803 41.394029 
L 156.235803 42.481279 
L 157.330565 42.481279 
L 157.330565 45.199406 
L 158.425328 45.199406 
L 158.425328 32.333608 
L 159.52009 32.333608 
L 159.52009 45.924239 
L 160.614853 45.924239 
L 160.614853 31.246357 
L 161.709615 31.246357 
L 161.709615 45.199406 
L 162.804378 45.199406 
L 162.804378 32.514816 
L 163.899141 32.514816 
L 163.899141 38.313486 
L 164.993903 38.313486 
L 164.993903 33.23965 
L 166.088666 33.23965 
L 166.088666 46.286656 
L 167.183428 46.286656 
L 167.183428 29.615482 
L 169.372953 29.615482 
L 169.372953 45.561823 
L 170.467716 45.561823 
L 170.467716 41.21282 
L 171.562478 41.21282 
L 171.562478 43.749738 
L 172.657241 43.749738 
L 172.657241 38.132277 
L 173.752003 38.132277 
L 173.752003 42.481279 
L 174.846766 42.481279 
L 174.846766 33.602067 
L 175.941528 33.602067 
L 175.941528 38.132277 
L 177.036291 38.132277 
L 177.036291 31.608774 
L 178.131053 31.608774 
L 178.131053 28.165814 
L 179.225816 28.165814 
L 179.225816 31.427566 
L 180.320579 31.427566 
L 180.320579 32.696025 
L 181.415341 32.696025 
L 181.415341 35.957776 
L 182.510104 35.957776 
L 182.510104 36.863818 
L 183.604866 36.863818 
L 183.604866 44.293364 
L 184.699629 44.293364 
L 184.699629 36.501402 
L 185.794391 36.501402 
L 185.794391 34.870526 
L 186.889154 34.870526 
L 186.889154 34.689317 
L 187.983916 34.689317 
L 187.983916 45.561823 
L 189.078679 45.561823 
L 189.078679 35.776568 
L 190.173441 35.776568 
L 190.173441 36.863818 
L 191.268204 36.863818 
L 191.268204 48.461157 
L 192.362966 48.461157 
L 192.362966 25.991313 
L 193.457729 25.991313 
L 193.457729 32.333608 
L 194.552491 32.333608 
L 194.552491 33.058442 
L 195.647254 33.058442 
L 195.647254 47.917532 
L 196.742016 47.917532 
L 196.742016 35.776568 
L 197.836779 35.776568 
L 197.836779 37.045027 
L 198.931542 37.045027 
L 198.931542 34.326901 
L 200.026304 34.326901 
L 200.026304 33.964484 
L 201.121067 33.964484 
L 201.121067 34.689317 
L 202.215829 34.689317 
L 202.215829 40.306778 
L 203.310592 40.306778 
L 203.310592 42.843696 
L 204.405354 42.843696 
L 204.405354 41.21282 
L 205.500117 41.21282 
L 205.500117 38.132277 
L 206.594879 38.132277 
L 206.594879 37.951069 
L 207.689642 37.951069 
L 207.689642 42.662488 
L 208.784404 42.662488 
L 208.784404 26.534938 
L 209.879167 26.534938 
L 209.879167 34.145692 
L 210.973929 34.145692 
L 210.973929 43.749738 
L 212.068692 43.749738 
L 212.068692 31.608774 
L 213.163454 31.608774 
L 213.163454 30.159107 
L 214.258217 30.159107 
L 214.258217 31.789983 
L 215.352979 31.789983 
L 215.352979 38.675903 
L 216.447742 38.675903 
L 216.447742 48.642366 
L 217.542505 48.642366 
L 217.542505 31.427566 
L 218.637267 31.427566 
L 218.637267 32.152399 
L 219.73203 32.152399 
L 219.73203 29.79669 
L 220.826792 29.79669 
L 220.826792 35.957776 
L 221.921555 35.957776 
L 221.921555 49.548408 
L 223.016317 49.548408 
L 223.016317 28.890648 
L 224.11108 28.890648 
L 224.11108 30.702732 
L 225.205842 30.702732 
L 225.205842 29.977898 
L 226.300605 29.977898 
L 226.300605 35.957776 
L 227.395367 35.957776 
L 227.395367 33.783275 
L 228.49013 33.783275 
L 228.49013 47.373907 
L 229.584892 47.373907 
L 229.584892 44.65578 
L 230.679655 44.65578 
L 230.679655 33.602067 
L 231.774417 33.602067 
L 231.774417 23.635604 
L 232.86918 23.635604 
L 232.86918 45.199406 
L 233.963942 45.199406 
L 233.963942 35.232943 
L 235.058705 35.232943 
L 235.058705 18.561768 
L 236.153468 18.561768 
L 236.153468 39.944362 
L 237.24823 39.944362 
L 237.24823 35.051734 
L 238.342993 35.051734 
L 238.342993 36.863818 
L 239.437755 36.863818 
L 239.437755 28.709439 
L 240.532518 28.709439 
L 240.532518 23.454395 
L 241.62728 23.454395 
L 241.62728 34.870526 
L 242.722043 34.870526 
L 242.722043 30.340315 
L 243.816805 30.340315 
L 243.816805 33.420858 
L 244.911568 33.420858 
L 244.911568 36.68261 
L 246.00633 36.68261 
L 246.00633 31.608774 
L 247.101093 31.608774 
L 247.101093 45.924239 
L 248.195855 45.924239 
L 248.195855 39.219528 
L 249.290618 39.219528 
L 249.290618 38.675903 
L 250.38538 38.675903 
L 250.38538 39.944362 
L 251.480143 39.944362 
L 251.480143 42.481279 
L 252.574906 42.481279 
L 252.574906 45.199406 
L 253.669668 45.199406 
L 253.669668 41.031612 
L 254.764431 41.031612 
L 254.764431 38.857111 
L 255.859193 38.857111 
L 255.859193 40.306778 
L 256.953956 40.306778 
L 256.953956 39.581945 
L 258.048718 39.581945 
L 258.048718 34.508109 
L 259.143481 34.508109 
L 259.143481 43.206113 
L 260.238243 43.206113 
L 260.238243 59.152454 
L 261.333006 59.152454 
L 261.333006 61.87058 
L 262.427768 61.87058 
L 262.427768 67.306833 
L 263.522531 67.306833 
L 263.522531 82.890757 
L 264.617293 82.890757 
L 264.617293 91.407553 
L 265.712056 91.407553 
L 265.712056 100.105557 
L 266.806818 100.105557 
L 266.806818 107.535102 
L 267.901581 107.535102 
L 267.901581 115.87069 
L 268.996343 115.87069 
L 268.996343 124.749902 
L 270.091106 124.749902 
L 270.091106 127.649237 
L 271.185869 127.649237 
L 271.185869 137.796909 
L 272.280631 137.796909 
L 272.280631 144.50162 
L 273.375394 144.50162 
L 273.375394 141.421077 
L 274.470156 141.421077 
L 274.470156 152.112374 
L 275.564919 152.112374 
L 275.564919 155.192917 
L 276.659681 155.192917 
L 276.659681 160.447961 
L 277.754444 160.447961 
L 277.754444 164.615755 
L 278.849206 164.615755 
L 278.849206 172.0453 
L 279.943969 172.0453 
L 279.943969 173.313759 
L 281.038731 173.313759 
L 281.038731 175.850677 
L 282.133494 175.850677 
L 282.133494 185.273515 
L 283.228256 185.273515 
L 283.228256 185.635931 
L 284.323019 185.635931 
L 284.323019 188.172849 
L 285.417781 188.172849 
L 285.417781 188.716475 
L 286.512544 188.716475 
L 286.512544 189.441308 
L 287.607306 189.441308 
L 287.607306 194.696353 
L 288.702069 194.696353 
L 288.702069 202.125898 
L 289.796832 202.125898 
L 289.796832 201.219856 
L 290.891594 201.219856 
L 290.891594 205.206441 
L 291.986357 205.206441 
L 291.986357 201.219856 
L 293.081119 201.219856 
L 293.081119 208.468192 
L 294.175882 208.468192 
L 294.175882 208.105776 
L 295.270644 208.105776 
L 295.270644 212.998403 
L 296.365407 212.998403 
L 296.365407 214.810487 
L 297.460169 214.810487 
L 297.460169 214.085653 
L 298.554932 214.085653 
L 298.554932 216.984988 
L 299.649694 216.984988 
L 299.649694 214.085653 
L 300.744457 214.085653 
L 300.744457 222.058824 
L 301.839219 222.058824 
L 301.839219 217.528613 
L 302.933982 217.528613 
L 302.933982 221.152782 
L 304.028744 221.152782 
L 304.028744 226.226618 
L 305.123507 226.226618 
L 305.123507 222.058824 
L 306.218269 222.058824 
L 306.218269 228.21991 
L 307.313032 228.21991 
L 307.313032 226.951451 
L 308.407795 226.951451 
L 308.407795 227.857493 
L 309.502557 227.857493 
L 309.502557 228.038702 
L 310.59732 228.038702 
L 310.59732 231.66287 
L 311.692082 231.66287 
L 311.692082 233.474954 
L 312.786845 233.474954 
L 312.786845 230.756828 
L 313.881607 230.756828 
L 313.881607 233.656163 
L 314.97637 233.656163 
L 314.97637 234.380997 
L 316.071132 234.380997 
L 316.071132 232.931329 
L 317.165895 232.931329 
L 317.165895 234.924622 
L 318.260657 234.924622 
L 318.260657 236.011872 
L 319.35542 236.011872 
L 319.35542 234.199788 
L 320.450182 234.199788 
L 320.450182 233.837371 
L 321.544945 233.837371 
L 321.544945 234.924622 
L 322.639707 234.924622 
L 322.639707 237.280331 
L 323.73447 237.280331 
L 323.73447 238.367582 
L 324.829233 238.367582 
L 324.829233 236.555498 
L 325.923995 236.555498 
L 325.923995 238.54879 
L 327.018758 238.54879 
L 327.018758 237.46154 
L 328.11352 237.46154 
L 328.11352 239.817249 
L 329.208283 239.817249 
L 329.208283 239.636041 
L 330.303045 239.636041 
L 330.303045 240.360874 
L 331.397808 240.360874 
L 331.397808 239.273624 
L 332.49257 239.273624 
L 332.49257 237.823957 
L 333.587333 237.823957 
L 333.587333 238.911207 
L 334.682095 238.911207 
L 334.682095 239.998458 
L 335.776858 239.998458 
L 335.776858 238.911207 
L 336.87162 238.911207 
L 336.87162 241.99175 
L 337.966383 241.99175 
L 337.966383 241.448125 
L 339.061145 241.448125 
L 339.061145 241.629333 
L 340.155908 241.629333 
L 340.155908 242.716584 
L 341.25067 242.716584 
L 341.25067 242.172959 
L 342.345433 242.172959 
L 342.345433 242.535375 
L 343.440196 242.535375 
L 343.440196 242.172959 
L 344.534958 242.172959 
L 344.534958 243.260209 
L 345.629721 243.260209 
L 345.629721 243.441418 
L 346.724483 243.441418 
L 346.724483 243.079001 
L 347.819246 243.079001 
L 347.819246 243.803834 
L 348.914008 243.803834 
L 348.914008 242.897792 
L 350.008771 242.897792 
L 350.008771 243.622626 
L 351.103533 243.622626 
L 351.103533 244.709877 
L 352.198296 244.709877 
L 352.198296 243.622626 
L 353.293058 243.622626 
L 353.293058 243.985043 
L 354.387821 243.985043 
L 354.387821 244.166251 
L 355.482583 244.166251 
L 355.482583 244.528668 
L 356.577346 244.528668 
L 356.577346 244.166251 
L 360.956396 244.166251 
L 360.956396 244.709877 
L 363.145921 244.709877 
L 363.145921 243.985043 
L 364.240684 243.985043 
L 364.240684 244.34746 
L 366.430209 244.34746 
L 366.430209 245.253502 
L 367.524971 245.253502 
L 367.524971 244.34746 
L 368.619734 244.34746 
L 368.619734 244.891085 
L 369.714496 244.891085 
L 369.714496 245.253502 
L 370.809259 245.253502 
L 370.809259 244.891085 
L 371.904021 244.891085 
L 371.904021 245.253502 
L 372.998784 245.253502 
L 372.998784 245.615919 
L 374.093546 245.615919 
L 374.093546 244.891085 
L 375.188309 244.891085 
L 375.188309 244.709877 
L 376.283071 244.709877 
L 376.283071 245.072293 
L 378.472596 245.072293 
L 378.472596 245.615919 
L 379.567359 245.615919 
L 379.567359 245.253502 
L 383.946409 245.253502 
L 383.946409 244.891085 
L 385.041172 244.891085 
L 385.041172 245.615919 
L 386.135934 245.615919 
L 386.135934 245.253502 
L 389.420222 245.253502 
L 389.420222 245.797127 
L 390.514984 245.797127 
L 390.514984 245.253502 
L 392.704509 245.253502 
L 392.704509 245.43471 
L 393.799272 245.43471 
L 393.799272 245.615919 
L 394.894034 245.615919 
L 394.894034 245.43471 
L 398.178322 245.43471 
L 398.178322 245.43471 
" clip-path="url(#pdaeb8724eb)" style="fill: none; stroke: #1f77b4; stroke-width: 1.5; stroke-linecap: square"/>
   </g>
   <g id="patch_3">
    <path d="M 53.328125 257.158895 
L 53.328125 7.2 
" style="fill: none; stroke: #000000; stroke-width: 0.8; stroke-linejoin: miter; stroke-linecap: square"/>
   </g>
   <g id="patch_4">
    <path d="M 414.59976 257.158895 
L 414.59976 7.2 
" style="fill: none; stroke: #000000; stroke-width: 0.8; stroke-linejoin: miter; stroke-linecap: square"/>
   </g>
   <g id="patch_5">
    <path d="M 53.328125 257.158895 
L 414.59976 257.158895 
" style="fill: none; stroke: #000000; stroke-width: 0.8; stroke-linejoin: miter; stroke-linecap: square"/>
   </g>
   <g id="patch_6">
    <path d="M 53.328125 7.2 
L 414.59976 7.2 
" style="fill: none; stroke: #000000; stroke-width: 0.8; stroke-linejoin: miter; stroke-linecap: square"/>
   </g>
  </g>
  <g id="axes_2">
   <g id="patch_7">
    <path d="M 503.927885 257.158895 
L 865.19952 257.158895 
L 865.19952 7.2 
L 503.927885 7.2 
z
" style="fill: #ffffff"/>
   </g>
   <g id="matplotlib.axis_3">
    <g id="xtick_7">
     <g id="line2d_15">
      <g>
       <use xlink:href="#m1955cebde9" x="517.01588" y="257.158895" style="stroke: #000000; stroke-width: 0.8"/>
      </g>
     </g>
     <g id="text_16">
      <!-- 0.0 -->
      <g transform="translate(509.064317 271.757332) scale(0.1 -0.1)">
       <defs>
        <path id="DejaVuSans-2e" d="M 684 794 
L 1344 794 
L 1344 0 
L 684 0 
L 684 794 
z
" transform="scale(0.015625)"/>
       </defs>
       <use xlink:href="#DejaVuSans-30"/>
       <use xlink:href="#DejaVuSans-2e" transform="translate(63.623047 0)"/>
       <use xlink:href="#DejaVuSans-30" transform="translate(95.410156 0)"/>
      </g>
     </g>
    </g>
    <g id="xtick_8">
     <g id="line2d_16">
      <g>
       <use xlink:href="#m1955cebde9" x="558.991447" y="257.158895" style="stroke: #000000; stroke-width: 0.8"/>
      </g>
     </g>
     <g id="text_17">
      <!-- 2.5 -->
      <g transform="translate(551.039884 271.757332) scale(0.1 -0.1)">
       <use xlink:href="#DejaVuSans-32"/>
       <use xlink:href="#DejaVuSans-2e" transform="translate(63.623047 0)"/>
       <use xlink:href="#DejaVuSans-35" transform="translate(95.410156 0)"/>
      </g>
     </g>
    </g>
    <g id="xtick_9">
     <g id="line2d_17">
      <g>
       <use xlink:href="#m1955cebde9" x="600.967014" y="257.158895" style="stroke: #000000; stroke-width: 0.8"/>
      </g>
     </g>
     <g id="text_18">
      <!-- 5.0 -->
      <g transform="translate(593.015452 271.757332) scale(0.1 -0.1)">
       <use xlink:href="#DejaVuSans-35"/>
       <use xlink:href="#DejaVuSans-2e" transform="translate(63.623047 0)"/>
       <use xlink:href="#DejaVuSans-30" transform="translate(95.410156 0)"/>
      </g>
     </g>
    </g>
    <g id="xtick_10">
     <g id="line2d_18">
      <g>
       <use xlink:href="#m1955cebde9" x="642.942581" y="257.158895" style="stroke: #000000; stroke-width: 0.8"/>
      </g>
     </g>
     <g id="text_19">
      <!-- 7.5 -->
      <g transform="translate(634.991019 271.757332) scale(0.1 -0.1)">
       <defs>
        <path id="DejaVuSans-37" d="M 525 4666 
L 3525 4666 
L 3525 4397 
L 1831 0 
L 1172 0 
L 2766 4134 
L 525 4134 
L 525 4666 
z
" transform="scale(0.015625)"/>
       </defs>
       <use xlink:href="#DejaVuSans-37"/>
       <use xlink:href="#DejaVuSans-2e" transform="translate(63.623047 0)"/>
       <use xlink:href="#DejaVuSans-35" transform="translate(95.410156 0)"/>
      </g>
     </g>
    </g>
    <g id="xtick_11">
     <g id="line2d_19">
      <g>
       <use xlink:href="#m1955cebde9" x="684.918148" y="257.158895" style="stroke: #000000; stroke-width: 0.8"/>
      </g>
     </g>
     <g id="text_20">
      <!-- 10.0 -->
      <g transform="translate(673.785336 271.757332) scale(0.1 -0.1)">
       <use xlink:href="#DejaVuSans-31"/>
       <use xlink:href="#DejaVuSans-30" transform="translate(63.623047 0)"/>
       <use xlink:href="#DejaVuSans-2e" transform="translate(127.246094 0)"/>
       <use xlink:href="#DejaVuSans-30" transform="translate(159.033203 0)"/>
      </g>
     </g>
    </g>
    <g id="xtick_12">
     <g id="line2d_20">
      <g>
       <use xlink:href="#m1955cebde9" x="726.893715" y="257.158895" style="stroke: #000000; stroke-width: 0.8"/>
      </g>
     </g>
     <g id="text_21">
      <!-- 12.5 -->
      <g transform="translate(715.760903 271.757332) scale(0.1 -0.1)">
       <use xlink:href="#DejaVuSans-31"/>
       <use xlink:href="#DejaVuSans-32" transform="translate(63.623047 0)"/>
       <use xlink:href="#DejaVuSans-2e" transform="translate(127.246094 0)"/>
       <use xlink:href="#DejaVuSans-35" transform="translate(159.033203 0)"/>
      </g>
     </g>
    </g>
    <g id="xtick_13">
     <g id="line2d_21">
      <g>
       <use xlink:href="#m1955cebde9" x="768.869283" y="257.158895" style="stroke: #000000; stroke-width: 0.8"/>
      </g>
     </g>
     <g id="text_22">
      <!-- 15.0 -->
      <g transform="translate(757.73647 271.757332) scale(0.1 -0.1)">
       <use xlink:href="#DejaVuSans-31"/>
       <use xlink:href="#DejaVuSans-35" transform="translate(63.623047 0)"/>
       <use xlink:href="#DejaVuSans-2e" transform="translate(127.246094 0)"/>
       <use xlink:href="#DejaVuSans-30" transform="translate(159.033203 0)"/>
      </g>
     </g>
    </g>
    <g id="xtick_14">
     <g id="line2d_22">
      <g>
       <use xlink:href="#m1955cebde9" x="810.84485" y="257.158895" style="stroke: #000000; stroke-width: 0.8"/>
      </g>
     </g>
     <g id="text_23">
      <!-- 17.5 -->
      <g transform="translate(799.712037 271.757332) scale(0.1 -0.1)">
       <use xlink:href="#DejaVuSans-31"/>
       <use xlink:href="#DejaVuSans-37" transform="translate(63.623047 0)"/>
       <use xlink:href="#DejaVuSans-2e" transform="translate(127.246094 0)"/>
       <use xlink:href="#DejaVuSans-35" transform="translate(159.033203 0)"/>
      </g>
     </g>
    </g>
    <g id="xtick_15">
     <g id="line2d_23">
      <g>
       <use xlink:href="#m1955cebde9" x="852.820417" y="257.158895" style="stroke: #000000; stroke-width: 0.8"/>
      </g>
     </g>
     <g id="text_24">
      <!-- 20.0 -->
      <g transform="translate(841.687604 271.757332) scale(0.1 -0.1)">
       <use xlink:href="#DejaVuSans-32"/>
       <use xlink:href="#DejaVuSans-30" transform="translate(63.623047 0)"/>
       <use xlink:href="#DejaVuSans-2e" transform="translate(127.246094 0)"/>
       <use xlink:href="#DejaVuSans-30" transform="translate(159.033203 0)"/>
      </g>
     </g>
    </g>
    <g id="text_25">
     <!-- wavelength [Å] -->
     <g transform="translate(646.526202 287.119832) scale(0.1 -0.1)">
      <defs>
       <path id="DejaVuSans-77" d="M 269 3500 
L 844 3500 
L 1563 769 
L 2278 3500 
L 2956 3500 
L 3675 769 
L 4391 3500 
L 4966 3500 
L 4050 0 
L 3372 0 
L 2619 2869 
L 1863 0 
L 1184 0 
L 269 3500 
z
" transform="scale(0.015625)"/>
       <path id="DejaVuSans-61" d="M 2194 1759 
Q 1497 1759 1228 1600 
Q 959 1441 959 1056 
Q 959 750 1161 570 
Q 1363 391 1709 391 
Q 2188 391 2477 730 
Q 2766 1069 2766 1631 
L 2766 1759 
L 2194 1759 
z
M 3341 1997 
L 3341 0 
L 2766 0 
L 2766 531 
Q 2569 213 2275 61 
Q 1981 -91 1556 -91 
Q 1019 -91 701 211 
Q 384 513 384 1019 
Q 384 1609 779 1909 
Q 1175 2209 1959 2209 
L 2766 2209 
L 2766 2266 
Q 2766 2663 2505 2880 
Q 2244 3097 1772 3097 
Q 1472 3097 1187 3025 
Q 903 2953 641 2809 
L 641 3341 
Q 956 3463 1253 3523 
Q 1550 3584 1831 3584 
Q 2591 3584 2966 3190 
Q 3341 2797 3341 1997 
z
" transform="scale(0.015625)"/>
       <path id="DejaVuSans-76" d="M 191 3500 
L 800 3500 
L 1894 563 
L 2988 3500 
L 3597 3500 
L 2284 0 
L 1503 0 
L 191 3500 
z
" transform="scale(0.015625)"/>
       <path id="DejaVuSans-6c" d="M 603 4863 
L 1178 4863 
L 1178 0 
L 603 0 
L 603 4863 
z
" transform="scale(0.015625)"/>
       <path id="DejaVuSans-67" d="M 2906 1791 
Q 2906 2416 2648 2759 
Q 2391 3103 1925 3103 
Q 1463 3103 1205 2759 
Q 947 2416 947 1791 
Q 947 1169 1205 825 
Q 1463 481 1925 481 
Q 2391 481 2648 825 
Q 2906 1169 2906 1791 
z
M 3481 434 
Q 3481 -459 3084 -895 
Q 2688 -1331 1869 -1331 
Q 1566 -1331 1297 -1286 
Q 1028 -1241 775 -1147 
L 775 -588 
Q 1028 -725 1275 -790 
Q 1522 -856 1778 -856 
Q 2344 -856 2625 -561 
Q 2906 -266 2906 331 
L 2906 616 
Q 2728 306 2450 153 
Q 2172 0 1784 0 
Q 1141 0 747 490 
Q 353 981 353 1791 
Q 353 2603 747 3093 
Q 1141 3584 1784 3584 
Q 2172 3584 2450 3431 
Q 2728 3278 2906 2969 
L 2906 3500 
L 3481 3500 
L 3481 434 
z
" transform="scale(0.015625)"/>
       <path id="DejaVuSans-c5" d="M 2663 5081 
Q 2663 5278 2523 5417 
Q 2384 5556 2188 5556 
Q 1988 5556 1852 5420 
Q 1716 5284 1716 5081 
Q 1716 4884 1853 4746 
Q 1991 4609 2188 4609 
Q 2384 4609 2523 4746 
Q 2663 4884 2663 5081 
z
M 2188 4044 
L 1338 1722 
L 3041 1722 
L 2188 4044 
z
M 1716 4366 
Q 1525 4494 1428 4673 
Q 1331 4853 1331 5081 
Q 1331 5441 1579 5691 
Q 1828 5941 2188 5941 
Q 2544 5941 2795 5689 
Q 3047 5438 3047 5081 
Q 3047 4863 2948 4678 
Q 2850 4494 2663 4366 
L 4325 0 
L 3669 0 
L 3244 1197 
L 1141 1197 
L 716 0 
L 50 0 
L 1716 4366 
z
" transform="scale(0.015625)"/>
      </defs>
      <use xlink:href="#DejaVuSans-77"/>
      <use xlink:href="#DejaVuSans-61" transform="translate(81.787109 0)"/>
      <use xlink:href="#DejaVuSans-76" transform="translate(143.066406 0)"/>
      <use xlink:href="#DejaVuSans-65" transform="translate(202.246094 0)"/>
      <use xlink:href="#DejaVuSans-6c" transform="translate(263.769531 0)"/>
      <use xlink:href="#DejaVuSans-65" transform="translate(291.552734 0)"/>
      <use xlink:href="#DejaVuSans-6e" transform="translate(353.076172 0)"/>
      <use xlink:href="#DejaVuSans-67" transform="translate(416.455078 0)"/>
      <use xlink:href="#DejaVuSans-74" transform="translate(479.931641 0)"/>
      <use xlink:href="#DejaVuSans-68" transform="translate(519.140625 0)"/>
      <use xlink:href="#DejaVuSans-20" transform="translate(582.519531 0)"/>
      <use xlink:href="#DejaVuSans-5b" transform="translate(614.306641 0)"/>
      <use xlink:href="#DejaVuSans-c5" transform="translate(653.320312 0)"/>
      <use xlink:href="#DejaVuSans-5d" transform="translate(721.728516 0)"/>
     </g>
    </g>
   </g>
   <g id="matplotlib.axis_4">
    <g id="ytick_8">
     <g id="line2d_24">
      <g>
       <use xlink:href="#m827a276406" x="503.927885" y="245.797127" style="stroke: #000000; stroke-width: 0.8"/>
      </g>
     </g>
     <g id="text_26">
      <!-- 0 -->
      <g transform="translate(490.565385 249.596346) scale(0.1 -0.1)">
       <use xlink:href="#DejaVuSans-30"/>
      </g>
     </g>
    </g>
    <g id="ytick_9">
     <g id="line2d_25">
      <g>
       <use xlink:href="#m827a276406" x="503.927885" y="192.01361" style="stroke: #000000; stroke-width: 0.8"/>
      </g>
     </g>
     <g id="text_27">
      <!-- 1000 -->
      <g transform="translate(471.477885 195.812829) scale(0.1 -0.1)">
       <use xlink:href="#DejaVuSans-31"/>
       <use xlink:href="#DejaVuSans-30" transform="translate(63.623047 0)"/>
       <use xlink:href="#DejaVuSans-30" transform="translate(127.246094 0)"/>
       <use xlink:href="#DejaVuSans-30" transform="translate(190.869141 0)"/>
      </g>
     </g>
    </g>
    <g id="ytick_10">
     <g id="line2d_26">
      <g>
       <use xlink:href="#m827a276406" x="503.927885" y="138.230093" style="stroke: #000000; stroke-width: 0.8"/>
      </g>
     </g>
     <g id="text_28">
      <!-- 2000 -->
      <g transform="translate(471.477885 142.029312) scale(0.1 -0.1)">
       <use xlink:href="#DejaVuSans-32"/>
       <use xlink:href="#DejaVuSans-30" transform="translate(63.623047 0)"/>
       <use xlink:href="#DejaVuSans-30" transform="translate(127.246094 0)"/>
       <use xlink:href="#DejaVuSans-30" transform="translate(190.869141 0)"/>
      </g>
     </g>
    </g>
    <g id="ytick_11">
     <g id="line2d_27">
      <g>
       <use xlink:href="#m827a276406" x="503.927885" y="84.446576" style="stroke: #000000; stroke-width: 0.8"/>
      </g>
     </g>
     <g id="text_29">
      <!-- 3000 -->
      <g transform="translate(471.477885 88.245795) scale(0.1 -0.1)">
       <use xlink:href="#DejaVuSans-33"/>
       <use xlink:href="#DejaVuSans-30" transform="translate(63.623047 0)"/>
       <use xlink:href="#DejaVuSans-30" transform="translate(127.246094 0)"/>
       <use xlink:href="#DejaVuSans-30" transform="translate(190.869141 0)"/>
      </g>
     </g>
    </g>
    <g id="ytick_12">
     <g id="line2d_28">
      <g>
       <use xlink:href="#m827a276406" x="503.927885" y="30.663059" style="stroke: #000000; stroke-width: 0.8"/>
      </g>
     </g>
     <g id="text_30">
      <!-- 4000 -->
      <g transform="translate(471.477885 34.462278) scale(0.1 -0.1)">
       <use xlink:href="#DejaVuSans-34"/>
       <use xlink:href="#DejaVuSans-30" transform="translate(63.623047 0)"/>
       <use xlink:href="#DejaVuSans-30" transform="translate(127.246094 0)"/>
       <use xlink:href="#DejaVuSans-30" transform="translate(190.869141 0)"/>
      </g>
     </g>
    </g>
    <g id="text_31">
     <!-- [counts] -->
     <g transform="translate(465.398197 152.791947) rotate(-90) scale(0.1 -0.1)">
      <use xlink:href="#DejaVuSans-5b"/>
      <use xlink:href="#DejaVuSans-63" transform="translate(39.013672 0)"/>
      <use xlink:href="#DejaVuSans-6f" transform="translate(93.994141 0)"/>
      <use xlink:href="#DejaVuSans-75" transform="translate(155.175781 0)"/>
      <use xlink:href="#DejaVuSans-6e" transform="translate(218.554688 0)"/>
      <use xlink:href="#DejaVuSans-74" transform="translate(281.933594 0)"/>
      <use xlink:href="#DejaVuSans-73" transform="translate(321.142578 0)"/>
      <use xlink:href="#DejaVuSans-5d" transform="translate(373.242188 0)"/>
     </g>
    </g>
   </g>
   <g id="line2d_29">
    <path d="M 520.349323 155.494602 
L 521.444085 155.494602 
L 521.444085 146.835456 
L 522.538848 146.835456 
L 522.538848 139.897382 
L 523.633611 139.897382 
L 523.633611 139.198196 
L 524.728373 139.198196 
L 524.728373 143.608445 
L 525.823136 143.608445 
L 525.823136 147.319508 
L 526.917898 147.319508 
L 526.917898 141.726022 
L 528.012661 141.726022 
L 528.012661 124.353946 
L 529.107423 124.353946 
L 529.107423 102.464054 
L 530.202186 102.464054 
L 530.202186 74.281492 
L 531.296948 74.281492 
L 531.296948 59.329674 
L 532.391711 59.329674 
L 532.391711 34.051421 
L 533.486473 34.051421 
L 533.486473 21.089593 
L 534.581236 21.089593 
L 534.581236 24.209037 
L 535.675998 24.209037 
L 535.675998 18.561768 
L 536.770761 18.561768 
L 536.770761 20.713109 
L 537.865523 20.713109 
L 537.865523 28.565502 
L 538.960286 28.565502 
L 538.960286 33.782503 
L 540.055048 33.782503 
L 540.055048 45.345959 
L 541.149811 45.345959 
L 541.149811 58.146436 
L 542.244574 58.146436 
L 542.244574 64.116407 
L 543.339336 64.116407 
L 543.339336 74.227708 
L 544.434099 74.227708 
L 544.434099 85.41468 
L 545.528861 85.41468 
L 545.528861 89.771144 
L 546.623624 89.771144 
L 546.623624 89.448443 
L 547.718386 89.448443 
L 547.718386 97.515971 
L 548.813149 97.515971 
L 548.813149 93.589774 
L 549.907911 93.589774 
L 549.907911 91.976269 
L 551.002674 91.976269 
L 551.002674 92.729238 
L 552.097436 92.729238 
L 552.097436 84.984411 
L 553.192199 84.984411 
L 553.192199 74.066357 
L 554.286961 74.066357 
L 554.286961 70.946913 
L 555.381724 70.946913 
L 555.381724 60.728045 
L 556.476486 60.728045 
L 556.476486 48.035135 
L 558.666012 48.035135 
L 558.666012 41.204629 
L 559.760774 41.204629 
L 559.760774 30.071441 
L 560.855537 30.071441 
L 560.855537 39.107071 
L 561.950299 39.107071 
L 561.950299 40.935711 
L 563.045062 40.935711 
L 563.045062 53.252136 
L 564.139824 53.252136 
L 564.139824 66.16018 
L 565.234587 66.16018 
L 565.234587 76.432832 
L 566.329349 76.432832 
L 566.329349 81.542266 
L 567.424112 81.542266 
L 567.424112 92.514104 
L 568.518874 92.514104 
L 568.518874 104.023776 
L 569.613637 104.023776 
L 569.613637 108.702942 
L 570.708399 108.702942 
L 570.708399 119.083161 
L 571.803162 119.083161 
L 571.803162 124.837997 
L 572.897924 124.837997 
L 572.897924 128.979328 
L 573.992687 128.979328 
L 573.992687 134.949299 
L 575.087449 134.949299 
L 575.087449 135.325783 
L 576.182212 135.325783 
L 576.182212 144.576548 
L 577.276975 144.576548 
L 577.276975 147.21194 
L 578.371737 147.21194 
L 578.371737 154.795416 
L 579.4665 154.795416 
L 579.4665 158.936747 
L 580.561262 158.936747 
L 580.561262 160.173768 
L 581.656025 160.173768 
L 581.656025 165.444553 
L 582.750787 165.444553 
L 582.750787 170.60777 
L 583.84555 170.60777 
L 583.84555 171.629657 
L 584.940312 171.629657 
L 584.940312 176.846658 
L 587.129837 176.954225 
L 587.129837 181.364474 
L 588.2246 181.364474 
L 588.2246 185.667155 
L 589.319362 185.667155 
L 589.319362 187.764712 
L 590.414125 187.764712 
L 590.414125 192.981713 
L 592.60365 192.874146 
L 592.60365 194.971704 
L 593.698412 194.971704 
L 593.698412 201.425726 
L 594.793175 201.425726 
L 594.793175 202.017344 
L 595.887938 202.017344 
L 595.887938 202.178695 
L 596.9827 202.178695 
L 596.9827 206.481376 
L 598.077463 206.481376 
L 598.077463 208.955418 
L 599.172225 208.955418 
L 599.172225 207.126778 
L 600.266988 207.126778 
L 600.266988 209.762171 
L 601.36175 209.762171 
L 601.36175 210.891625 
L 602.456513 210.891625 
L 602.456513 212.612697 
L 603.551275 212.612697 
L 603.551275 213.849718 
L 604.646038 213.849718 
L 604.646038 213.41945 
L 605.7408 213.41945 
L 605.7408 216.807811 
L 606.835563 216.807811 
L 606.835563 217.614564 
L 607.930325 217.614564 
L 607.930325 221.917246 
L 609.025088 221.917246 
L 609.025088 221.271843 
L 610.11985 221.271843 
L 610.11985 220.411307 
L 611.214613 220.411307 
L 611.214613 222.239947 
L 612.309375 222.239947 
L 612.309375 221.271843 
L 613.404138 221.271843 
L 613.404138 223.907236 
L 614.498901 223.907236 
L 614.498901 224.28372 
L 615.593663 224.28372 
L 615.593663 224.660205 
L 616.688426 224.660205 
L 616.688426 224.875339 
L 617.783188 224.875339 
L 617.783188 227.940999 
L 618.877951 227.940999 
L 618.877951 229.231804 
L 619.972713 229.231804 
L 619.972713 228.478835 
L 621.067476 228.478835 
L 621.067476 229.446938 
L 623.257001 229.339371 
L 623.257001 230.899093 
L 624.351763 230.899093 
L 624.351763 232.297464 
L 625.446526 232.297464 
L 625.446526 229.715855 
L 626.541288 229.715855 
L 626.541288 231.275577 
L 628.730813 231.275577 
L 628.730813 233.642052 
L 629.825576 233.642052 
L 629.825576 232.512598 
L 630.920339 232.512598 
L 630.920339 233.158001 
L 632.015101 233.158001 
L 632.015101 236.06231 
L 633.109864 236.06231 
L 633.109864 234.663939 
L 634.204626 234.663939 
L 634.204626 235.470692 
L 635.299389 235.470692 
L 635.299389 236.438795 
L 636.394151 236.438795 
L 636.394151 234.771506 
L 637.488914 234.771506 
L 637.488914 237.675816 
L 638.583676 237.675816 
L 638.583676 237.245548 
L 639.678439 237.245548 
L 639.678439 236.600146 
L 640.773201 236.600146 
L 640.773201 237.030414 
L 641.867964 237.030414 
L 641.867964 237.998517 
L 642.962726 237.998517 
L 642.962726 238.428785 
L 644.057489 238.428785 
L 644.057489 238.052301 
L 645.152251 238.052301 
L 645.152251 237.460682 
L 646.247014 237.460682 
L 646.247014 239.71959 
L 648.436539 239.773373 
L 648.436539 239.020404 
L 649.531302 239.020404 
L 649.531302 240.042291 
L 652.815589 240.042291 
L 652.815589 239.71959 
L 653.910352 239.71959 
L 653.910352 241.333095 
L 655.005114 241.333095 
L 655.005114 240.257425 
L 656.099877 240.257425 
L 656.099877 240.418775 
L 658.289402 240.472559 
L 658.289402 241.171745 
L 659.384164 241.171745 
L 659.384164 240.902827 
L 660.478927 240.902827 
L 660.478927 241.171745 
L 661.573689 241.171745 
L 661.573689 241.494446 
L 662.668452 241.494446 
L 662.668452 241.655796 
L 663.763214 241.655796 
L 663.763214 241.333095 
L 664.857977 241.333095 
L 664.857977 241.602013 
L 665.952739 241.602013 
L 665.952739 241.064178 
L 667.047502 241.064178 
L 667.047502 242.516333 
L 668.142265 242.516333 
L 668.142265 242.086064 
L 669.237027 242.086064 
L 669.237027 242.408765 
L 670.33179 242.408765 
L 670.33179 241.386879 
L 671.426552 241.386879 
L 671.426552 242.301198 
L 672.521315 242.301198 
L 672.521315 242.677683 
L 673.616077 242.677683 
L 673.616077 242.462549 
L 674.71084 242.462549 
L 674.71084 243.000384 
L 675.805602 243.000384 
L 675.805602 242.731467 
L 676.900365 242.731467 
L 676.900365 242.462549 
L 677.995127 242.462549 
L 677.995127 241.978497 
L 680.184652 241.978497 
L 680.184652 243.000384 
L 681.279415 243.000384 
L 681.279415 242.6239 
L 682.374177 242.6239 
L 682.374177 243.538219 
L 684.563702 243.538219 
L 684.563702 243.376869 
L 685.658465 243.376869 
L 685.658465 243.86092 
L 686.753228 243.86092 
L 686.753228 243.269302 
L 687.84799 243.269302 
L 687.84799 242.570116 
L 688.942753 242.570116 
L 688.942753 243.645786 
L 690.037515 243.645786 
L 690.037515 243.376869 
L 694.416565 243.269302 
L 694.416565 243.538219 
L 695.511328 243.538219 
L 695.511328 243.269302 
L 696.60609 243.269302 
L 696.60609 244.076055 
L 697.700853 244.076055 
L 697.700853 243.69957 
L 698.795615 243.69957 
L 698.795615 244.291189 
L 699.890378 244.291189 
L 699.890378 243.592003 
L 700.98514 243.592003 
L 700.98514 244.183622 
L 702.079903 244.183622 
L 702.079903 243.69957 
L 703.174666 243.69957 
L 703.174666 244.076055 
L 706.458953 244.129838 
L 706.458953 243.807137 
L 707.553716 243.807137 
L 707.553716 244.076055 
L 708.648478 244.076055 
L 708.648478 244.560106 
L 709.743241 244.560106 
L 709.743241 244.291189 
L 710.838003 244.291189 
L 710.838003 244.129838 
L 713.027528 244.022271 
L 713.027528 244.721457 
L 714.122291 244.721457 
L 714.122291 243.86092 
L 716.311816 243.914704 
L 716.311816 244.667673 
L 717.406578 244.667673 
L 717.406578 244.936591 
L 718.501341 244.936591 
L 718.501341 244.667673 
L 720.690866 244.77524 
L 720.690866 245.044158 
L 721.785629 245.044158 
L 721.785629 244.721457 
L 726.164679 244.829024 
L 726.164679 244.936591 
L 728.354204 244.936591 
L 728.354204 245.097941 
L 729.448966 245.097941 
L 729.448966 244.936591 
L 730.543729 244.936591 
L 730.543729 245.097941 
L 734.922779 244.990374 
L 734.922779 244.882807 
L 736.017541 244.882807 
L 736.017541 244.237405 
L 737.112304 244.237405 
L 737.112304 245.044158 
L 739.301829 245.097941 
L 739.301829 244.721457 
L 740.396592 244.721457 
L 740.396592 245.097941 
L 742.586117 245.205508 
L 742.586117 245.313075 
L 743.680879 245.313075 
L 743.680879 244.77524 
L 744.775642 244.77524 
L 744.775642 245.259292 
L 745.870404 245.259292 
L 745.870404 245.097941 
L 748.059929 245.097941 
L 748.059929 245.259292 
L 753.533742 245.366859 
L 753.533742 245.044158 
L 755.723267 245.151725 
L 755.723267 245.581993 
L 756.81803 245.581993 
L 756.81803 245.420642 
L 759.007555 245.366859 
L 759.007555 245.151725 
L 761.19708 245.259292 
L 761.19708 245.420642 
L 762.291842 245.420642 
L 762.291842 245.151725 
L 765.57613 245.044158 
L 765.57613 245.313075 
L 766.670892 245.313075 
L 766.670892 245.474426 
L 767.765655 245.474426 
L 767.765655 245.259292 
L 769.95518 245.366859 
L 769.95518 245.420642 
L 778.71328 245.474426 
L 778.71328 245.259292 
L 780.902805 245.366859 
L 780.902805 245.528209 
L 781.997568 245.528209 
L 781.997568 245.366859 
L 783.09233 245.366859 
L 783.09233 245.205508 
L 784.187093 245.205508 
L 784.187093 245.528209 
L 785.281855 245.528209 
L 785.281855 245.366859 
L 788.566143 245.420642 
L 788.566143 245.528209 
L 792.945193 245.581993 
L 792.945193 245.68956 
L 794.039956 245.68956 
L 794.039956 245.528209 
L 795.134718 245.528209 
L 795.134718 245.68956 
L 802.798056 245.635776 
L 802.798056 245.313075 
L 803.892818 245.313075 
L 803.892818 245.68956 
L 809.366631 245.743344 
L 809.366631 245.474426 
L 811.556156 245.581993 
L 811.556156 245.635776 
L 840.019982 245.635776 
L 840.019982 245.797127 
L 845.493794 245.797127 
L 845.493794 245.635776 
L 848.778082 245.743344 
L 848.778082 245.743344 
" clip-path="url(#pfd2999f0d0)" style="fill: none; stroke: #1f77b4; stroke-width: 1.5; stroke-linecap: square"/>
   </g>
   <g id="patch_8">
    <path d="M 503.927885 257.158895 
L 503.927885 7.2 
" style="fill: none; stroke: #000000; stroke-width: 0.8; stroke-linejoin: miter; stroke-linecap: square"/>
   </g>
   <g id="patch_9">
    <path d="M 865.19952 257.158895 
L 865.19952 7.2 
" style="fill: none; stroke: #000000; stroke-width: 0.8; stroke-linejoin: miter; stroke-linecap: square"/>
   </g>
   <g id="patch_10">
    <path d="M 503.927885 257.158895 
L 865.19952 257.158895 
" style="fill: none; stroke: #000000; stroke-width: 0.8; stroke-linejoin: miter; stroke-linecap: square"/>
   </g>
   <g id="patch_11">
    <path d="M 503.927885 7.2 
L 865.19952 7.2 
" style="fill: none; stroke: #000000; stroke-width: 0.8; stroke-linejoin: miter; stroke-linecap: square"/>
   </g>
  </g>
 </g>
 <defs>
  <clipPath id="pdaeb8724eb">
   <rect x="53.328125" y="7.2" width="361.271635" height="249.958895"/>
  </clipPath>
  <clipPath id="pfd2999f0d0">
   <rect x="503.927885" y="7.2" width="361.271635" height="249.958895"/>
  </clipPath>
 </defs>
</svg>
