<?xml version="1.0" encoding="utf-8" standalone="no"?>
<!DOCTYPE svg PUBLIC "-//W3C//DTD SVG 1.1//EN"
  "http://www.w3.org/Graphics/SVG/1.1/DTD/svg11.dtd">
<svg xmlns:xlink="http://www.w3.org/1999/xlink" width="395.328125pt" height="269.577173pt" viewBox="0 0 395.328125 269.577173" xmlns="http://www.w3.org/2000/svg" version="1.1">
 <metadata>
  <rdf:RDF xmlns:dc="http://purl.org/dc/elements/1.1/" xmlns:cc="http://creativecommons.org/ns#" xmlns:rdf="http://www.w3.org/1999/02/22-rdf-syntax-ns#">
   <cc:Work>
    <dc:type rdf:resource="http://purl.org/dc/dcmitype/StillImage"/>
    <dc:date>2026-02-24T15:28:54.527395</dc:date>
    <dc:format>image/svg+xml</dc:format>
    <dc:creator>
     <cc:Agent>
      <dc:title>Matplotlib v3.10.8, https://matplotlib.org/</dc:title>
     </cc:Agent>
    </dc:creator>
   </cc:Work>
  </rdf:RDF>
 </metadata>
 <defs>
  <style type="text/css">*{stroke-linejoin: round; stroke-linecap: butt}</style>
 </defs>
 <g id="figure_1">
  <g id="patch_1">
   <path d="M 0 269.577173 
L 395.328125 269.577173 
L 395.328125 0 
L 0 0 
z
" style="fill: #ffffff"/>
  </g>
  <g id="axes_1">
   <g id="patch_2">
    <path d="M 53.328125 232.020923 
L 388.128125 232.020923 
L 388.128125 10.260923 
L 53.328125 10.260923 
z
" style="fill: #ffffff"/>
   </g>
   <g id="matplotlib.axis_1">
    <g id="xtick_1">
     <g id="line2d_1">
      <defs>
       <path id="md9676e2fe2" d="M 0 0 
L 0 3.5 
" style="stroke: #000000; stroke-width: 0.8"/>
      </defs>
      <g>
       <use xlink:href="#md9676e2fe2" x="58.813171" y="232.020923" style="stroke: #000000; stroke-width: 0.8"/>
      </g>
     </g>
     <g id="text_1">
      <!-- 25000 -->
      <g transform="translate(42.906921 246.61936) scale(0.1 -0.1)">
       <defs>
        <path id="DejaVuSans-32" d="M 1228 531 
L 3431 531 
L 3431 0 
L 469 0 
L 469 531 
Q 828 903 1448 1529 
Q 2069 2156 2228 2338 
Q 2531 2678 2651 2914 
Q 2772 3150 2772 3378 
Q 2772 3750 2511 3984 
Q 2250 4219 1831 4219 
Q 1534 4219 1204 4116 
Q 875 4013 500 3803 
L 500 4441 
Q 881 4594 1212 4672 
Q 1544 4750 1819 4750 
Q 2544 4750 2975 4387 
Q 3406 4025 3406 3419 
Q 3406 3131 3298 2873 
Q 3191 2616 2906 2266 
Q 2828 2175 2409 1742 
Q 1991 1309 1228 531 
z
" transform="scale(0.015625)"/>
        <path id="DejaVuSans-35" d="M 691 4666 
L 3169 4666 
L 3169 4134 
L 1269 4134 
L 1269 2991 
Q 1406 3038 1543 3061 
Q 1681 3084 1819 3084 
Q 2600 3084 3056 2656 
Q 3513 2228 3513 1497 
Q 3513 744 3044 326 
Q 2575 -91 1722 -91 
Q 1428 -91 1123 -41 
Q 819 9 494 109 
L 494 744 
Q 775 591 1075 516 
Q 1375 441 1709 441 
Q 2250 441 2565 725 
Q 2881 1009 2881 1497 
Q 2881 1984 2565 2268 
Q 2250 2553 1709 2553 
Q 1456 2553 1204 2497 
Q 953 2441 691 2322 
L 691 4666 
z
" transform="scale(0.015625)"/>
        <path id="DejaVuSans-30" d="M 2034 4250 
Q 1547 4250 1301 3770 
Q 1056 3291 1056 2328 
Q 1056 1369 1301 889 
Q 1547 409 2034 409 
Q 2525 409 2770 889 
Q 3016 1369 3016 2328 
Q 3016 3291 2770 3770 
Q 2525 4250 2034 4250 
z
M 2034 4750 
Q 2819 4750 3233 4129 
Q 3647 3509 3647 2328 
Q 3647 1150 3233 529 
Q 2819 -91 2034 -91 
Q 1250 -91 836 529 
Q 422 1150 422 2328 
Q 422 3509 836 4129 
Q 1250 4750 2034 4750 
z
" transform="scale(0.015625)"/>
       </defs>
       <use xlink:href="#DejaVuSans-32"/>
       <use xlink:href="#DejaVuSans-35" transform="translate(63.623047 0)"/>
       <use xlink:href="#DejaVuSans-30" transform="translate(127.246094 0)"/>
       <use xlink:href="#DejaVuSans-30" transform="translate(190.869141 0)"/>
       <use xlink:href="#DejaVuSans-30" transform="translate(254.492188 0)"/>
      </g>
     </g>
    </g>
    <g id="xtick_2">
     <g id="line2d_2">
      <g>
       <use xlink:href="#md9676e2fe2" x="96.575409" y="232.020923" style="stroke: #000000; stroke-width: 0.8"/>
      </g>
     </g>
     <g id="text_2">
      <!-- 50000 -->
      <g transform="translate(80.669159 246.61936) scale(0.1 -0.1)">
       <use xlink:href="#DejaVuSans-35"/>
       <use xlink:href="#DejaVuSans-30" transform="translate(63.623047 0)"/>
       <use xlink:href="#DejaVuSans-30" transform="translate(127.246094 0)"/>
       <use xlink:href="#DejaVuSans-30" transform="translate(190.869141 0)"/>
       <use xlink:href="#DejaVuSans-30" transform="translate(254.492188 0)"/>
      </g>
     </g>
    </g>
    <g id="xtick_3">
     <g id="line2d_3">
      <g>
       <use xlink:href="#md9676e2fe2" x="134.337647" y="232.020923" style="stroke: #000000; stroke-width: 0.8"/>
      </g>
     </g>
     <g id="text_3">
      <!-- 75000 -->
      <g transform="translate(118.431397 246.61936) scale(0.1 -0.1)">
       <defs>
        <path id="DejaVuSans-37" d="M 525 4666 
L 3525 4666 
L 3525 4397 
L 1831 0 
L 1172 0 
L 2766 4134 
L 525 4134 
L 525 4666 
z
" transform="scale(0.015625)"/>
       </defs>
       <use xlink:href="#DejaVuSans-37"/>
       <use xlink:href="#DejaVuSans-35" transform="translate(63.623047 0)"/>
       <use xlink:href="#DejaVuSans-30" transform="translate(127.246094 0)"/>
       <use xlink:href="#DejaVuSans-30" transform="translate(190.869141 0)"/>
       <use xlink:href="#DejaVuSans-30" transform="translate(254.492188 0)"/>
      </g>
     </g>
    </g>
    <g id="xtick_4">
     <g id="line2d_4">
      <g>
       <use xlink:href="#md9676e2fe2" x="172.099885" y="232.020923" style="stroke: #000000; stroke-width: 0.8"/>
      </g>
     </g>
     <g id="text_4">
      <!-- 100000 -->
      <g transform="translate(153.012385 246.61936) scale(0.1 -0.1)">
       <defs>
        <path id="DejaVuSans-31" d="M 794 531 
L 1825 531 
L 1825 4091 
L 703 3866 
L 703 4441 
L 1819 4666 
L 2450 4666 
L 2450 531 
L 3481 531 
L 3481 0 
L 794 0 
L 794 531 
z
" transform="scale(0.015625)"/>
       </defs>
       <use xlink:href="#DejaVuSans-31"/>
       <use xlink:href="#DejaVuSans-30" transform="translate(63.623047 0)"/>
       <use xlink:href="#DejaVuSans-30" transform="translate(127.246094 0)"/>
       <use xlink:href="#DejaVuSans-30" transform="translate(190.869141 0)"/>
       <use xlink:href="#DejaVuSans-30" transform="translate(254.492188 0)"/>
       <use xlink:href="#DejaVuSans-30" transform="translate(318.115234 0)"/>
      </g>
     </g>
    </g>
    <g id="xtick_5">
     <g id="line2d_5">
      <g>
       <use xlink:href="#md9676e2fe2" x="209.862122" y="232.020923" style="stroke: #000000; stroke-width: 0.8"/>
      </g>
     </g>
     <g id="text_5">
      <!-- 125000 -->
      <g transform="translate(190.774622 246.61936) scale(0.1 -0.1)">
       <use xlink:href="#DejaVuSans-31"/>
       <use xlink:href="#DejaVuSans-32" transform="translate(63.623047 0)"/>
       <use xlink:href="#DejaVuSans-35" transform="translate(127.246094 0)"/>
       <use xlink:href="#DejaVuSans-30" transform="translate(190.869141 0)"/>
       <use xlink:href="#DejaVuSans-30" transform="translate(254.492188 0)"/>
       <use xlink:href="#DejaVuSans-30" transform="translate(318.115234 0)"/>
      </g>
     </g>
    </g>
    <g id="xtick_6">
     <g id="line2d_6">
      <g>
       <use xlink:href="#md9676e2fe2" x="247.62436" y="232.020923" style="stroke: #000000; stroke-width: 0.8"/>
      </g>
     </g>
     <g id="text_6">
      <!-- 150000 -->
      <g transform="translate(228.53686 246.61936) scale(0.1 -0.1)">
       <use xlink:href="#DejaVuSans-31"/>
       <use xlink:href="#DejaVuSans-35" transform="translate(63.623047 0)"/>
       <use xlink:href="#DejaVuSans-30" transform="translate(127.246094 0)"/>
       <use xlink:href="#DejaVuSans-30" transform="translate(190.869141 0)"/>
       <use xlink:href="#DejaVuSans-30" transform="translate(254.492188 0)"/>
       <use xlink:href="#DejaVuSans-30" transform="translate(318.115234 0)"/>
      </g>
     </g>
    </g>
    <g id="xtick_7">
     <g id="line2d_7">
      <g>
       <use xlink:href="#md9676e2fe2" x="285.386598" y="232.020923" style="stroke: #000000; stroke-width: 0.8"/>
      </g>
     </g>
     <g id="text_7">
      <!-- 175000 -->
      <g transform="translate(266.299098 246.61936) scale(0.1 -0.1)">
       <use xlink:href="#DejaVuSans-31"/>
       <use xlink:href="#DejaVuSans-37" transform="translate(63.623047 0)"/>
       <use xlink:href="#DejaVuSans-35" transform="translate(127.246094 0)"/>
       <use xlink:href="#DejaVuSans-30" transform="translate(190.869141 0)"/>
       <use xlink:href="#DejaVuSans-30" transform="translate(254.492188 0)"/>
       <use xlink:href="#DejaVuSans-30" transform="translate(318.115234 0)"/>
      </g>
     </g>
    </g>
    <g id="xtick_8">
     <g id="line2d_8">
      <g>
       <use xlink:href="#md9676e2fe2" x="323.148836" y="232.020923" style="stroke: #000000; stroke-width: 0.8"/>
      </g>
     </g>
     <g id="text_8">
      <!-- 200000 -->
      <g transform="translate(304.061336 246.61936) scale(0.1 -0.1)">
       <use xlink:href="#DejaVuSans-32"/>
       <use xlink:href="#DejaVuSans-30" transform="translate(63.623047 0)"/>
       <use xlink:href="#DejaVuSans-30" transform="translate(127.246094 0)"/>
       <use xlink:href="#DejaVuSans-30" transform="translate(190.869141 0)"/>
       <use xlink:href="#DejaVuSans-30" transform="translate(254.492188 0)"/>
       <use xlink:href="#DejaVuSans-30" transform="translate(318.115234 0)"/>
      </g>
     </g>
    </g>
    <g id="xtick_9">
     <g id="line2d_9">
      <g>
       <use xlink:href="#md9676e2fe2" x="360.911073" y="232.020923" style="stroke: #000000; stroke-width: 0.8"/>
      </g>
     </g>
     <g id="text_9">
      <!-- 225000 -->
      <g transform="translate(341.823573 246.61936) scale(0.1 -0.1)">
       <use xlink:href="#DejaVuSans-32"/>
       <use xlink:href="#DejaVuSans-32" transform="translate(63.623047 0)"/>
       <use xlink:href="#DejaVuSans-35" transform="translate(127.246094 0)"/>
       <use xlink:href="#DejaVuSans-30" transform="translate(190.869141 0)"/>
       <use xlink:href="#DejaVuSans-30" transform="translate(254.492188 0)"/>
       <use xlink:href="#DejaVuSans-30" transform="translate(318.115234 0)"/>
      </g>
     </g>
    </g>
    <g id="text_10">
     <!-- tof [µs] -->
     <g transform="translate(202.671875 260.297485) scale(0.1 -0.1)">
      <defs>
       <path id="DejaVuSans-74" d="M 1172 4494 
L 1172 3500 
L 2356 3500 
L 2356 3053 
L 1172 3053 
L 1172 1153 
Q 1172 725 1289 603 
Q 1406 481 1766 481 
L 2356 481 
L 2356 0 
L 1766 0 
Q 1100 0 847 248 
Q 594 497 594 1153 
L 594 3053 
L 172 3053 
L 172 3500 
L 594 3500 
L 594 4494 
L 1172 4494 
z
" transform="scale(0.015625)"/>
       <path id="DejaVuSans-6f" d="M 1959 3097 
Q 1497 3097 1228 2736 
Q 959 2375 959 1747 
Q 959 1119 1226 758 
Q 1494 397 1959 397 
Q 2419 397 2687 759 
Q 2956 1122 2956 1747 
Q 2956 2369 2687 2733 
Q 2419 3097 1959 3097 
z
M 1959 3584 
Q 2709 3584 3137 3096 
Q 3566 2609 3566 1747 
Q 3566 888 3137 398 
Q 2709 -91 1959 -91 
Q 1206 -91 779 398 
Q 353 888 353 1747 
Q 353 2609 779 3096 
Q 1206 3584 1959 3584 
z
" transform="scale(0.015625)"/>
       <path id="DejaVuSans-66" d="M 2375 4863 
L 2375 4384 
L 1825 4384 
Q 1516 4384 1395 4259 
Q 1275 4134 1275 3809 
L 1275 3500 
L 2222 3500 
L 2222 3053 
L 1275 3053 
L 1275 0 
L 697 0 
L 697 3053 
L 147 3053 
L 147 3500 
L 697 3500 
L 697 3744 
Q 697 4328 969 4595 
Q 1241 4863 1831 4863 
L 2375 4863 
z
" transform="scale(0.015625)"/>
       <path id="DejaVuSans-20" transform="scale(0.015625)"/>
       <path id="DejaVuSans-5b" d="M 550 4863 
L 1875 4863 
L 1875 4416 
L 1125 4416 
L 1125 -397 
L 1875 -397 
L 1875 -844 
L 550 -844 
L 550 4863 
z
" transform="scale(0.015625)"/>
       <path id="DejaVuSans-b5" d="M 544 -1331 
L 544 3500 
L 1119 3500 
L 1119 1325 
Q 1119 872 1334 640 
Q 1550 409 1972 409 
Q 2434 409 2667 671 
Q 2900 934 2900 1459 
L 2900 3500 
L 3475 3500 
L 3475 806 
Q 3475 619 3529 530 
Q 3584 441 3700 441 
Q 3728 441 3778 458 
Q 3828 475 3916 513 
L 3916 50 
Q 3788 -22 3673 -56 
Q 3559 -91 3450 -91 
Q 3234 -91 3106 31 
Q 2978 153 2931 403 
Q 2775 156 2548 32 
Q 2322 -91 2016 -91 
Q 1697 -91 1473 31 
Q 1250 153 1119 397 
L 1119 -1331 
L 544 -1331 
z
" transform="scale(0.015625)"/>
       <path id="DejaVuSans-73" d="M 2834 3397 
L 2834 2853 
Q 2591 2978 2328 3040 
Q 2066 3103 1784 3103 
Q 1356 3103 1142 2972 
Q 928 2841 928 2578 
Q 928 2378 1081 2264 
Q 1234 2150 1697 2047 
L 1894 2003 
Q 2506 1872 2764 1633 
Q 3022 1394 3022 966 
Q 3022 478 2636 193 
Q 2250 -91 1575 -91 
Q 1294 -91 989 -36 
Q 684 19 347 128 
L 347 722 
Q 666 556 975 473 
Q 1284 391 1588 391 
Q 1994 391 2212 530 
Q 2431 669 2431 922 
Q 2431 1156 2273 1281 
Q 2116 1406 1581 1522 
L 1381 1569 
Q 847 1681 609 1914 
Q 372 2147 372 2553 
Q 372 3047 722 3315 
Q 1072 3584 1716 3584 
Q 2034 3584 2315 3537 
Q 2597 3491 2834 3397 
z
" transform="scale(0.015625)"/>
       <path id="DejaVuSans-5d" d="M 1947 4863 
L 1947 -844 
L 622 -844 
L 622 -397 
L 1369 -397 
L 1369 4416 
L 622 4416 
L 622 4863 
L 1947 4863 
z
" transform="scale(0.015625)"/>
      </defs>
      <use xlink:href="#DejaVuSans-74"/>
      <use xlink:href="#DejaVuSans-6f" transform="translate(39.208984 0)"/>
      <use xlink:href="#DejaVuSans-66" transform="translate(100.390625 0)"/>
      <use xlink:href="#DejaVuSans-20" transform="translate(135.595703 0)"/>
      <use xlink:href="#DejaVuSans-5b" transform="translate(167.382812 0)"/>
      <use xlink:href="#DejaVuSans-b5" transform="translate(206.396484 0)"/>
      <use xlink:href="#DejaVuSans-73" transform="translate(270.019531 0)"/>
      <use xlink:href="#DejaVuSans-5d" transform="translate(322.119141 0)"/>
     </g>
    </g>
   </g>
   <g id="matplotlib.axis_2">
    <g id="ytick_1">
     <g id="line2d_10">
      <defs>
       <path id="mf22389a936" d="M 0 0 
L -3.5 0 
" style="stroke: #000000; stroke-width: 0.8"/>
      </defs>
      <g>
       <use xlink:href="#mf22389a936" x="53.328125" y="221.940923" style="stroke: #000000; stroke-width: 0.8"/>
      </g>
     </g>
     <g id="text_11">
      <!-- 0 -->
      <g transform="translate(39.965625 225.740142) scale(0.1 -0.1)">
       <use xlink:href="#DejaVuSans-30"/>
      </g>
     </g>
    </g>
    <g id="ytick_2">
     <g id="line2d_11">
      <g>
       <use xlink:href="#mf22389a936" x="53.328125" y="191.806394" style="stroke: #000000; stroke-width: 0.8"/>
      </g>
     </g>
     <g id="text_12">
      <!-- 200 -->
      <g transform="translate(27.240625 195.605612) scale(0.1 -0.1)">
       <use xlink:href="#DejaVuSans-32"/>
       <use xlink:href="#DejaVuSans-30" transform="translate(63.623047 0)"/>
       <use xlink:href="#DejaVuSans-30" transform="translate(127.246094 0)"/>
      </g>
     </g>
    </g>
    <g id="ytick_3">
     <g id="line2d_12">
      <g>
       <use xlink:href="#mf22389a936" x="53.328125" y="161.671864" style="stroke: #000000; stroke-width: 0.8"/>
      </g>
     </g>
     <g id="text_13">
      <!-- 400 -->
      <g transform="translate(27.240625 165.471083) scale(0.1 -0.1)">
       <defs>
        <path id="DejaVuSans-34" d="M 2419 4116 
L 825 1625 
L 2419 1625 
L 2419 4116 
z
M 2253 4666 
L 3047 4666 
L 3047 1625 
L 3713 1625 
L 3713 1100 
L 3047 1100 
L 3047 0 
L 2419 0 
L 2419 1100 
L 313 1100 
L 313 1709 
L 2253 4666 
z
" transform="scale(0.015625)"/>
       </defs>
       <use xlink:href="#DejaVuSans-34"/>
       <use xlink:href="#DejaVuSans-30" transform="translate(63.623047 0)"/>
       <use xlink:href="#DejaVuSans-30" transform="translate(127.246094 0)"/>
      </g>
     </g>
    </g>
    <g id="ytick_4">
     <g id="line2d_13">
      <g>
       <use xlink:href="#mf22389a936" x="53.328125" y="131.537335" style="stroke: #000000; stroke-width: 0.8"/>
      </g>
     </g>
     <g id="text_14">
      <!-- 600 -->
      <g transform="translate(27.240625 135.336554) scale(0.1 -0.1)">
       <defs>
        <path id="DejaVuSans-36" d="M 2113 2584 
Q 1688 2584 1439 2293 
Q 1191 2003 1191 1497 
Q 1191 994 1439 701 
Q 1688 409 2113 409 
Q 2538 409 2786 701 
Q 3034 994 3034 1497 
Q 3034 2003 2786 2293 
Q 2538 2584 2113 2584 
z
M 3366 4563 
L 3366 3988 
Q 3128 4100 2886 4159 
Q 2644 4219 2406 4219 
Q 1781 4219 1451 3797 
Q 1122 3375 1075 2522 
Q 1259 2794 1537 2939 
Q 1816 3084 2150 3084 
Q 2853 3084 3261 2657 
Q 3669 2231 3669 1497 
Q 3669 778 3244 343 
Q 2819 -91 2113 -91 
Q 1303 -91 875 529 
Q 447 1150 447 2328 
Q 447 3434 972 4092 
Q 1497 4750 2381 4750 
Q 2619 4750 2861 4703 
Q 3103 4656 3366 4563 
z
" transform="scale(0.015625)"/>
       </defs>
       <use xlink:href="#DejaVuSans-36"/>
       <use xlink:href="#DejaVuSans-30" transform="translate(63.623047 0)"/>
       <use xlink:href="#DejaVuSans-30" transform="translate(127.246094 0)"/>
      </g>
     </g>
    </g>
    <g id="ytick_5">
     <g id="line2d_14">
      <g>
       <use xlink:href="#mf22389a936" x="53.328125" y="101.402806" style="stroke: #000000; stroke-width: 0.8"/>
      </g>
     </g>
     <g id="text_15">
      <!-- 800 -->
      <g transform="translate(27.240625 105.202025) scale(0.1 -0.1)">
       <defs>
        <path id="DejaVuSans-38" d="M 2034 2216 
Q 1584 2216 1326 1975 
Q 1069 1734 1069 1313 
Q 1069 891 1326 650 
Q 1584 409 2034 409 
Q 2484 409 2743 651 
Q 3003 894 3003 1313 
Q 3003 1734 2745 1975 
Q 2488 2216 2034 2216 
z
M 1403 2484 
Q 997 2584 770 2862 
Q 544 3141 544 3541 
Q 544 4100 942 4425 
Q 1341 4750 2034 4750 
Q 2731 4750 3128 4425 
Q 3525 4100 3525 3541 
Q 3525 3141 3298 2862 
Q 3072 2584 2669 2484 
Q 3125 2378 3379 2068 
Q 3634 1759 3634 1313 
Q 3634 634 3220 271 
Q 2806 -91 2034 -91 
Q 1263 -91 848 271 
Q 434 634 434 1313 
Q 434 1759 690 2068 
Q 947 2378 1403 2484 
z
M 1172 3481 
Q 1172 3119 1398 2916 
Q 1625 2713 2034 2713 
Q 2441 2713 2670 2916 
Q 2900 3119 2900 3481 
Q 2900 3844 2670 4047 
Q 2441 4250 2034 4250 
Q 1625 4250 1398 4047 
Q 1172 3844 1172 3481 
z
" transform="scale(0.015625)"/>
       </defs>
       <use xlink:href="#DejaVuSans-38"/>
       <use xlink:href="#DejaVuSans-30" transform="translate(63.623047 0)"/>
       <use xlink:href="#DejaVuSans-30" transform="translate(127.246094 0)"/>
      </g>
     </g>
    </g>
    <g id="ytick_6">
     <g id="line2d_15">
      <g>
       <use xlink:href="#mf22389a936" x="53.328125" y="71.268277" style="stroke: #000000; stroke-width: 0.8"/>
      </g>
     </g>
     <g id="text_16">
      <!-- 1000 -->
      <g transform="translate(20.878125 75.067496) scale(0.1 -0.1)">
       <use xlink:href="#DejaVuSans-31"/>
       <use xlink:href="#DejaVuSans-30" transform="translate(63.623047 0)"/>
       <use xlink:href="#DejaVuSans-30" transform="translate(127.246094 0)"/>
       <use xlink:href="#DejaVuSans-30" transform="translate(190.869141 0)"/>
      </g>
     </g>
    </g>
    <g id="ytick_7">
     <g id="line2d_16">
      <g>
       <use xlink:href="#mf22389a936" x="53.328125" y="41.133748" style="stroke: #000000; stroke-width: 0.8"/>
      </g>
     </g>
     <g id="text_17">
      <!-- 1200 -->
      <g transform="translate(20.878125 44.932967) scale(0.1 -0.1)">
       <use xlink:href="#DejaVuSans-31"/>
       <use xlink:href="#DejaVuSans-32" transform="translate(63.623047 0)"/>
       <use xlink:href="#DejaVuSans-30" transform="translate(127.246094 0)"/>
       <use xlink:href="#DejaVuSans-30" transform="translate(190.869141 0)"/>
      </g>
     </g>
    </g>
    <g id="ytick_8">
     <g id="line2d_17">
      <g>
       <use xlink:href="#mf22389a936" x="53.328125" y="10.999219" style="stroke: #000000; stroke-width: 0.8"/>
      </g>
     </g>
     <g id="text_18">
      <!-- 1400 -->
      <g transform="translate(20.878125 14.798437) scale(0.1 -0.1)">
       <use xlink:href="#DejaVuSans-31"/>
       <use xlink:href="#DejaVuSans-34" transform="translate(63.623047 0)"/>
       <use xlink:href="#DejaVuSans-30" transform="translate(127.246094 0)"/>
       <use xlink:href="#DejaVuSans-30" transform="translate(190.869141 0)"/>
      </g>
     </g>
    </g>
    <g id="text_19">
     <!-- [counts] -->
     <g transform="translate(14.798438 141.753423) rotate(-90) scale(0.1 -0.1)">
      <defs>
       <path id="DejaVuSans-63" d="M 3122 3366 
L 3122 2828 
Q 2878 2963 2633 3030 
Q 2388 3097 2138 3097 
Q 1578 3097 1268 2742 
Q 959 2388 959 1747 
Q 959 1106 1268 751 
Q 1578 397 2138 397 
Q 2388 397 2633 464 
Q 2878 531 3122 666 
L 3122 134 
Q 2881 22 2623 -34 
Q 2366 -91 2075 -91 
Q 1284 -91 818 406 
Q 353 903 353 1747 
Q 353 2603 823 3093 
Q 1294 3584 2113 3584 
Q 2378 3584 2631 3529 
Q 2884 3475 3122 3366 
z
" transform="scale(0.015625)"/>
       <path id="DejaVuSans-75" d="M 544 1381 
L 544 3500 
L 1119 3500 
L 1119 1403 
Q 1119 906 1312 657 
Q 1506 409 1894 409 
Q 2359 409 2629 706 
Q 2900 1003 2900 1516 
L 2900 3500 
L 3475 3500 
L 3475 0 
L 2900 0 
L 2900 538 
Q 2691 219 2414 64 
Q 2138 -91 1772 -91 
Q 1169 -91 856 284 
Q 544 659 544 1381 
z
M 1991 3584 
L 1991 3584 
z
" transform="scale(0.015625)"/>
       <path id="DejaVuSans-6e" d="M 3513 2113 
L 3513 0 
L 2938 0 
L 2938 2094 
Q 2938 2591 2744 2837 
Q 2550 3084 2163 3084 
Q 1697 3084 1428 2787 
Q 1159 2491 1159 1978 
L 1159 0 
L 581 0 
L 581 3500 
L 1159 3500 
L 1159 2956 
Q 1366 3272 1645 3428 
Q 1925 3584 2291 3584 
Q 2894 3584 3203 3211 
Q 3513 2838 3513 2113 
z
" transform="scale(0.015625)"/>
      </defs>
      <use xlink:href="#DejaVuSans-5b"/>
      <use xlink:href="#DejaVuSans-63" transform="translate(39.013672 0)"/>
      <use xlink:href="#DejaVuSans-6f" transform="translate(93.994141 0)"/>
      <use xlink:href="#DejaVuSans-75" transform="translate(155.175781 0)"/>
      <use xlink:href="#DejaVuSans-6e" transform="translate(218.554688 0)"/>
      <use xlink:href="#DejaVuSans-74" transform="translate(281.933594 0)"/>
      <use xlink:href="#DejaVuSans-73" transform="translate(321.142578 0)"/>
      <use xlink:href="#DejaVuSans-5d" transform="translate(373.242188 0)"/>
     </g>
    </g>
   </g>
   <g id="line2d_18">
    <path d="M 68.546307 219.078143 
L 69.301552 219.078143 
L 69.301552 218.626125 
L 70.056796 218.626125 
L 70.056796 216.366035 
L 70.812041 216.366035 
L 70.812041 212.147201 
L 71.567286 212.147201 
L 71.567286 195.57321 
L 72.322531 195.57321 
L 72.322531 187.738232 
L 73.077775 187.738232 
L 73.077775 147.960654 
L 73.83302 147.960654 
L 73.83302 92.51312 
L 74.588265 92.51312 
L 74.588265 44.900564 
L 75.34351 44.900564 
L 75.34351 20.340923 
L 76.098754 20.340923 
L 76.098754 20.792941 
L 76.853999 20.792941 
L 76.853999 34.956169 
L 77.609244 34.956169 
L 77.609244 34.052134 
L 78.364489 34.052134 
L 78.364489 55.748995 
L 79.119733 55.748995 
L 79.119733 51.228815 
L 79.874978 51.228815 
L 79.874978 87.39025 
L 80.630223 87.39025 
L 80.630223 56.803703 
L 81.385468 56.803703 
L 81.385468 91.609084 
L 82.140712 91.609084 
L 82.140712 99.89608 
L 82.895957 99.89608 
L 82.895957 106.073658 
L 83.651202 106.073658 
L 83.651202 143.74182 
L 84.406447 143.74182 
L 84.406447 166.493389 
L 85.161691 166.493389 
L 85.161691 195.57321 
L 85.916936 195.57321 
L 85.916936 220.132851 
L 86.672181 220.132851 
L 86.672181 221.940923 
L 372.909943 221.940923 
L 372.909943 221.940923 
" clip-path="url(#ped3f4274df)" style="fill: none; stroke: #1f77b4; stroke-width: 1.5; stroke-linecap: square"/>
   </g>
   <g id="line2d_19">
    <path d="M 68.546307 221.940923 
L 164.462391 221.940923 
L 164.462391 221.338232 
L 165.217635 221.338232 
L 165.217635 221.639577 
L 165.97288 221.639577 
L 165.97288 221.940923 
L 167.48337 221.940923 
L 167.48337 221.036887 
L 168.238615 221.036887 
L 168.238615 219.831506 
L 168.993859 219.831506 
L 168.993859 221.940923 
L 169.749104 221.940923 
L 169.749104 221.79025 
L 170.504349 221.79025 
L 170.504349 217.270071 
L 171.259594 217.270071 
L 171.259594 216.215362 
L 172.014838 216.215362 
L 172.014838 218.776797 
L 172.770083 218.776797 
L 172.770083 215.009981 
L 173.525328 215.009981 
L 173.525328 212.448546 
L 174.280573 212.448546 
L 174.280573 215.763344 
L 175.035817 215.763344 
L 175.035817 206.722986 
L 175.791062 206.722986 
L 175.791062 205.065586 
L 176.546307 205.065586 
L 176.546307 207.175004 
L 177.301552 207.175004 
L 177.301552 196.477246 
L 178.056796 196.477246 
L 178.056796 198.586663 
L 178.812041 198.586663 
L 178.812041 191.354376 
L 179.567286 191.354376 
L 179.567286 180.957963 
L 180.322531 180.957963 
L 180.322531 171.164241 
L 181.077775 171.164241 
L 181.077775 172.369622 
L 181.83302 172.369622 
L 181.83302 170.260205 
L 182.588265 170.260205 
L 182.588265 168.904151 
L 183.34351 168.904151 
L 183.34351 157.603703 
L 184.098754 157.603703 
L 184.098754 144.796528 
L 184.853999 144.796528 
L 184.853999 168.301461 
L 185.609244 168.301461 
L 185.609244 154.439577 
L 186.364489 154.439577 
L 186.364489 160.466483 
L 187.119733 160.466483 
L 187.119733 152.33016 
L 187.874978 152.33016 
L 187.874978 149.46738 
L 188.630223 149.46738 
L 188.630223 160.165138 
L 189.385468 160.165138 
L 189.385468 155.494286 
L 190.140712 155.494286 
L 190.140712 157.754376 
L 190.895957 157.754376 
L 190.895957 168.602806 
L 191.651202 168.602806 
L 191.651202 165.137335 
L 192.406447 165.137335 
L 192.406447 157.302358 
L 193.161691 157.302358 
L 193.161691 165.890699 
L 193.916936 165.890699 
L 193.916936 166.041371 
L 194.672181 166.041371 
L 194.672181 162.425228 
L 195.427426 162.425228 
L 195.427426 173.725676 
L 196.18267 173.725676 
L 196.18267 171.766932 
L 196.937915 171.766932 
L 196.937915 167.09608 
L 197.69316 167.09608 
L 197.69316 177.191147 
L 198.448405 177.191147 
L 198.448405 169.054824 
L 199.203649 169.054824 
L 199.203649 169.95886 
L 199.958894 169.95886 
L 199.958894 165.890699 
L 200.714139 165.890699 
L 200.714139 175.383075 
L 201.469384 175.383075 
L 201.469384 181.560654 
L 202.224628 181.560654 
L 202.224628 164.383972 
L 202.979873 164.383972 
L 202.979873 182.314017 
L 203.735118 182.314017 
L 203.735118 177.793838 
L 204.490363 177.793838 
L 204.490363 179.149891 
L 205.245608 179.149891 
L 205.245608 185.478143 
L 206.000852 185.478143 
L 206.000852 173.424331 
L 206.756097 173.424331 
L 206.756097 191.354376 
L 207.511342 191.354376 
L 207.511342 183.519398 
L 208.266587 183.519398 
L 208.266587 192.107739 
L 209.021831 192.107739 
L 209.021831 191.806394 
L 209.777076 191.806394 
L 209.777076 194.367829 
L 210.532321 194.367829 
L 210.532321 196.326573 
L 211.287566 196.326573 
L 211.287566 198.586663 
L 212.04281 198.586663 
L 212.04281 200.545407 
L 212.798055 200.545407 
L 212.798055 209.284421 
L 213.5533 209.284421 
L 213.5533 212.749891 
L 214.308545 212.749891 
L 214.308545 212.448546 
L 215.063789 212.448546 
L 215.063789 219.53016 
L 215.819034 219.53016 
L 215.819034 221.940923 
L 372.909943 221.940923 
L 372.909943 221.940923 
" clip-path="url(#ped3f4274df)" style="fill: none; stroke: #ff7f0e; stroke-width: 1.5; stroke-linecap: square"/>
   </g>
   <g id="line2d_20">
    <path d="M 68.546307 221.940923 
L 212.04281 221.940923 
L 212.04281 221.639577 
L 213.5533 221.639577 
L 213.5533 221.940923 
L 217.329524 221.940923 
L 217.329524 220.886214 
L 218.084768 220.886214 
L 218.084768 221.940923 
L 219.595258 221.940923 
L 219.595258 221.036887 
L 220.350503 221.036887 
L 220.350503 219.831506 
L 221.105747 219.831506 
L 221.105747 216.818053 
L 221.860992 216.818053 
L 221.860992 219.078143 
L 222.616237 219.078143 
L 222.616237 218.626125 
L 223.371482 218.626125 
L 223.371482 217.119398 
L 224.126726 217.119398 
L 224.126726 216.215362 
L 224.881971 216.215362 
L 224.881971 216.366035 
L 225.637216 216.366035 
L 225.637216 215.461999 
L 226.392461 215.461999 
L 226.392461 210.640474 
L 227.147705 210.640474 
L 227.147705 211.695183 
L 227.90295 211.695183 
L 227.90295 206.873658 
L 228.658195 206.873658 
L 228.658195 210.791147 
L 229.41344 210.791147 
L 229.41344 203.860205 
L 230.168684 203.860205 
L 230.168684 205.668277 
L 230.923929 205.668277 
L 230.923929 198.43599 
L 231.679174 198.43599 
L 231.679174 201.901461 
L 232.434419 201.901461 
L 232.434419 189.395631 
L 233.189663 189.395631 
L 233.189663 193.614465 
L 233.944908 193.614465 
L 233.944908 184.875452 
L 234.700153 184.875452 
L 234.700153 177.040474 
L 235.455398 177.040474 
L 235.455398 185.32747 
L 236.210642 185.32747 
L 236.210642 177.191147 
L 236.965887 177.191147 
L 236.965887 179.300564 
L 237.721132 179.300564 
L 237.721132 174.027021 
L 238.476377 174.027021 
L 238.476377 167.548098 
L 239.231622 167.548098 
L 239.231622 174.931057 
L 239.986866 174.931057 
L 239.986866 182.766035 
L 240.742111 182.766035 
L 240.742111 169.506842 
L 241.497356 169.506842 
L 241.497356 172.520295 
L 242.252601 172.520295 
L 242.252601 171.766932 
L 243.007845 171.766932 
L 243.007845 170.410878 
L 243.76309 170.410878 
L 243.76309 162.274555 
L 244.518335 162.274555 
L 244.518335 183.218053 
L 245.27358 183.218053 
L 245.27358 170.109533 
L 246.028824 170.109533 
L 246.028824 172.520295 
L 246.784069 172.520295 
L 246.784069 176.136438 
L 247.539314 176.136438 
L 247.539314 184.724779 
L 248.294559 184.724779 
L 248.294559 174.479039 
L 249.049803 174.479039 
L 249.049803 175.533748 
L 249.805048 175.533748 
L 249.805048 182.163344 
L 250.560293 182.163344 
L 250.560293 178.999219 
L 251.315538 178.999219 
L 251.315538 176.588456 
L 252.070782 176.588456 
L 252.070782 177.34182 
L 252.826027 177.34182 
L 252.826027 182.766035 
L 253.581272 182.766035 
L 253.581272 182.615362 
L 254.336517 182.615362 
L 254.336517 188.943613 
L 255.091761 188.943613 
L 255.091761 177.040474 
L 255.847006 177.040474 
L 255.847006 182.916708 
L 256.602251 182.916708 
L 256.602251 184.423434 
L 257.357496 184.423434 
L 257.357496 184.272761 
L 258.11274 184.272761 
L 258.11274 181.560654 
L 258.867985 181.560654 
L 258.867985 185.628815 
L 259.62323 185.628815 
L 259.62323 177.793838 
L 260.378475 177.793838 
L 260.378475 186.683524 
L 261.133719 186.683524 
L 261.133719 188.943613 
L 261.888964 188.943613 
L 261.888964 185.779488 
L 262.644209 185.779488 
L 262.644209 190.148995 
L 263.399454 190.148995 
L 263.399454 177.94451 
L 264.154698 177.94451 
L 264.154698 196.477246 
L 264.909943 196.477246 
L 264.909943 189.546304 
L 265.665188 189.546304 
L 265.665188 186.834196 
L 266.420433 186.834196 
L 266.420433 193.915811 
L 267.175677 193.915811 
L 267.175677 193.011775 
L 267.930922 193.011775 
L 267.930922 188.19025 
L 268.686167 188.19025 
L 268.686167 194.970519 
L 269.441412 194.970519 
L 269.441412 201.600116 
L 270.196656 201.600116 
L 270.196656 189.244959 
L 270.951901 189.244959 
L 270.951901 200.244062 
L 271.707146 200.244062 
L 271.707146 200.093389 
L 272.462391 200.093389 
L 272.462391 200.846752 
L 273.217635 200.846752 
L 273.217635 200.394734 
L 273.97288 200.394734 
L 273.97288 204.161551 
L 274.728125 204.161551 
L 274.728125 200.244062 
L 275.48337 200.244062 
L 275.48337 210.94182 
L 276.238615 210.94182 
L 276.238615 206.873658 
L 276.993859 206.873658 
L 276.993859 211.54451 
L 277.749104 211.54451 
L 277.749104 214.708636 
L 278.504349 214.708636 
L 278.504349 214.40729 
L 279.259594 214.40729 
L 279.259594 217.571416 
L 280.014838 217.571416 
L 280.014838 221.940923 
L 280.770083 221.940923 
L 280.770083 220.283524 
L 281.525328 220.283524 
L 281.525328 221.79025 
L 282.280573 221.79025 
L 282.280573 221.940923 
L 372.909943 221.940923 
L 372.909943 221.940923 
" clip-path="url(#ped3f4274df)" style="fill: none; stroke: #2ca02c; stroke-width: 1.5; stroke-linecap: square"/>
   </g>
   <g id="line2d_21">
    <path d="M 68.546307 221.940923 
L 278.504349 221.940923 
L 278.504349 221.79025 
L 280.770083 221.79025 
L 280.770083 221.639577 
L 281.525328 221.639577 
L 281.525328 221.940923 
L 286.056796 221.940923 
L 286.056796 221.488905 
L 286.812041 221.488905 
L 286.812041 221.18756 
L 287.567286 221.18756 
L 287.567286 221.940923 
L 291.34351 221.940923 
L 291.34351 219.831506 
L 292.098754 219.831506 
L 292.098754 218.92747 
L 292.853999 218.92747 
L 292.853999 220.584869 
L 293.609244 220.584869 
L 293.609244 218.776797 
L 294.364489 218.776797 
L 294.364489 217.722089 
L 295.874978 217.722089 
L 295.874978 220.132851 
L 296.630223 220.132851 
L 296.630223 215.311326 
L 297.385468 215.311326 
L 297.385468 216.818053 
L 298.140712 216.818053 
L 298.140712 216.366035 
L 298.895957 216.366035 
L 298.895957 211.996528 
L 299.651202 211.996528 
L 299.651202 214.256618 
L 300.406447 214.256618 
L 300.406447 211.845856 
L 301.161691 211.845856 
L 301.161691 213.8046 
L 301.916936 213.8046 
L 301.916936 209.887111 
L 302.672181 209.887111 
L 302.672181 208.380385 
L 303.427426 208.380385 
L 303.427426 211.243165 
L 304.18267 211.243165 
L 304.18267 202.504151 
L 304.937915 202.504151 
L 304.937915 210.037784 
L 305.69316 210.037784 
L 305.69316 202.202806 
L 306.448405 202.202806 
L 306.448405 200.846752 
L 307.203649 200.846752 
L 307.203649 195.723882 
L 307.958894 195.723882 
L 307.958894 196.477246 
L 308.714139 196.477246 
L 308.714139 198.134645 
L 309.469384 198.134645 
L 309.469384 196.778591 
L 310.224628 196.778591 
L 310.224628 186.683524 
L 310.979873 186.683524 
L 310.979873 193.31312 
L 311.735118 193.31312 
L 311.735118 186.984869 
L 312.490363 186.984869 
L 312.490363 194.819847 
L 313.245608 194.819847 
L 313.245608 184.272761 
L 314.000852 184.272761 
L 314.000852 183.368725 
L 314.756097 183.368725 
L 314.756097 183.971416 
L 315.511342 183.971416 
L 315.511342 186.683524 
L 316.266587 186.683524 
L 316.266587 193.463793 
L 317.021831 193.463793 
L 317.021831 186.984869 
L 317.777076 186.984869 
L 317.777076 183.06738 
L 318.532321 183.06738 
L 318.532321 178.697873 
L 319.287566 178.697873 
L 319.287566 193.011775 
L 320.04281 193.011775 
L 320.04281 184.875452 
L 320.798055 184.875452 
L 320.798055 180.053927 
L 321.5533 180.053927 
L 321.5533 183.368725 
L 322.308545 183.368725 
L 322.308545 183.519398 
L 323.063789 183.519398 
L 323.063789 193.31312 
L 323.819034 193.31312 
L 323.819034 181.711326 
L 324.574279 181.711326 
L 324.574279 184.724779 
L 325.329524 184.724779 
L 325.329524 186.382178 
L 326.084768 186.382178 
L 326.084768 191.354376 
L 326.840013 191.354376 
L 326.840013 191.203703 
L 327.595258 191.203703 
L 327.595258 188.491595 
L 328.350503 188.491595 
L 328.350503 187.738232 
L 329.105747 187.738232 
L 329.105747 189.998322 
L 329.860992 189.998322 
L 329.860992 191.806394 
L 330.616237 191.806394 
L 330.616237 190.45034 
L 331.371482 190.45034 
L 331.371482 188.039577 
L 332.126726 188.039577 
L 332.126726 189.094286 
L 332.881971 189.094286 
L 332.881971 185.93016 
L 333.637216 185.93016 
L 333.637216 197.079936 
L 334.392461 197.079936 
L 334.392461 190.45034 
L 335.147705 190.45034 
L 335.147705 193.463793 
L 335.90295 193.463793 
L 335.90295 194.066483 
L 336.658195 194.066483 
L 336.658195 193.765138 
L 337.41344 193.765138 
L 337.41344 194.066483 
L 338.168684 194.066483 
L 338.168684 188.340923 
L 338.923929 188.340923 
L 338.923929 194.970519 
L 339.679174 194.970519 
L 339.679174 197.230609 
L 340.434419 197.230609 
L 340.434419 189.094286 
L 341.189663 189.094286 
L 341.189663 193.31312 
L 341.944908 193.31312 
L 341.944908 197.381282 
L 342.700153 197.381282 
L 342.700153 190.902358 
L 343.455398 190.902358 
L 343.455398 187.58756 
L 344.210642 187.58756 
L 344.210642 193.614465 
L 344.965887 193.614465 
L 344.965887 199.038681 
L 345.721132 199.038681 
L 345.721132 197.230609 
L 346.476377 197.230609 
L 346.476377 196.025228 
L 347.231622 196.025228 
L 347.231622 201.901461 
L 347.986866 201.901461 
L 347.986866 186.382178 
L 348.742111 186.382178 
L 348.742111 196.627918 
L 349.497356 196.627918 
L 349.497356 203.106842 
L 350.252601 203.106842 
L 350.252601 197.983972 
L 351.007845 197.983972 
L 351.007845 196.477246 
L 351.76309 196.477246 
L 351.76309 196.778591 
L 352.518335 196.778591 
L 352.518335 202.052134 
L 353.27358 202.052134 
L 353.27358 203.257515 
L 354.028824 203.257515 
L 354.028824 196.929264 
L 354.784069 196.929264 
L 354.784069 196.627918 
L 355.539314 196.627918 
L 355.539314 203.257515 
L 356.294559 203.257515 
L 356.294559 206.722986 
L 357.049803 206.722986 
L 357.049803 198.285317 
L 357.805048 198.285317 
L 357.805048 201.29877 
L 358.560293 201.29877 
L 358.560293 205.366932 
L 359.315538 205.366932 
L 359.315538 207.777694 
L 360.070782 207.777694 
L 360.070782 204.312223 
L 360.826027 204.312223 
L 360.826027 207.777694 
L 361.581272 207.777694 
L 361.581272 202.654824 
L 362.336517 202.654824 
L 362.336517 212.749891 
L 363.091761 212.749891 
L 363.091761 203.408187 
L 363.847006 203.408187 
L 363.847006 208.68173 
L 364.602251 208.68173 
L 364.602251 214.105945 
L 365.357496 214.105945 
L 365.357496 210.188456 
L 366.11274 210.188456 
L 366.11274 212.448546 
L 366.867985 212.448546 
L 366.867985 216.06469 
L 367.62323 216.06469 
L 367.62323 215.461999 
L 368.378475 215.461999 
L 368.378475 216.516708 
L 369.133719 216.516708 
L 369.133719 216.06469 
L 369.888964 216.06469 
L 369.888964 218.174107 
L 370.644209 218.174107 
L 370.644209 221.338232 
L 371.399454 221.338232 
L 371.399454 220.735542 
L 372.154698 220.735542 
L 372.154698 221.338232 
L 372.909943 221.338232 
L 372.909943 221.338232 
" clip-path="url(#ped3f4274df)" style="fill: none; stroke: #d62728; stroke-width: 1.5; stroke-linecap: square"/>
   </g>
   <g id="patch_3">
    <path d="M 53.328125 232.020923 
L 53.328125 10.260923 
" style="fill: none; stroke: #000000; stroke-width: 0.8; stroke-linejoin: miter; stroke-linecap: square"/>
   </g>
   <g id="patch_4">
    <path d="M 388.128125 232.020923 
L 388.128125 10.260923 
" style="fill: none; stroke: #000000; stroke-width: 0.8; stroke-linejoin: miter; stroke-linecap: square"/>
   </g>
   <g id="patch_5">
    <path d="M 53.328125 232.020923 
L 388.128125 232.020923 
" style="fill: none; stroke: #000000; stroke-width: 0.8; stroke-linejoin: miter; stroke-linecap: square"/>
   </g>
   <g id="patch_6">
    <path d="M 53.328125 10.260923 
L 388.128125 10.260923 
" style="fill: none; stroke: #000000; stroke-width: 0.8; stroke-linejoin: miter; stroke-linecap: square"/>
   </g>
   <g id="legend_1">
    <g id="patch_7">
     <path d="M 306.904688 76.973423 
L 381.128125 76.973423 
Q 383.128125 76.973423 383.128125 74.973423 
L 383.128125 17.260923 
Q 383.128125 15.260923 381.128125 15.260923 
L 306.904688 15.260923 
Q 304.904688 15.260923 304.904688 17.260923 
L 304.904688 74.973423 
Q 304.904688 76.973423 306.904688 76.973423 
z
" style="fill: #ffffff; opacity: 0.8; stroke: #cccccc; stroke-linejoin: miter"/>
    </g>
    <g id="line2d_22">
     <path d="M 308.904688 23.35936 
L 308.904688 23.35936 
L 318.904688 23.35936 
L 318.904688 23.35936 
L 328.904688 23.35936 
" style="fill: none; stroke: #1f77b4; stroke-width: 1.5; stroke-linecap: square"/>
    </g>
    <g id="text_20">
     <!-- beam -->
     <g transform="translate(336.904688 26.85936) scale(0.1 -0.1)">
      <defs>
       <path id="DejaVuSans-62" d="M 3116 1747 
Q 3116 2381 2855 2742 
Q 2594 3103 2138 3103 
Q 1681 3103 1420 2742 
Q 1159 2381 1159 1747 
Q 1159 1113 1420 752 
Q 1681 391 2138 391 
Q 2594 391 2855 752 
Q 3116 1113 3116 1747 
z
M 1159 2969 
Q 1341 3281 1617 3432 
Q 1894 3584 2278 3584 
Q 2916 3584 3314 3078 
Q 3713 2572 3713 1747 
Q 3713 922 3314 415 
Q 2916 -91 2278 -91 
Q 1894 -91 1617 61 
Q 1341 213 1159 525 
L 1159 0 
L 581 0 
L 581 4863 
L 1159 4863 
L 1159 2969 
z
" transform="scale(0.015625)"/>
       <path id="DejaVuSans-65" d="M 3597 1894 
L 3597 1613 
L 953 1613 
Q 991 1019 1311 708 
Q 1631 397 2203 397 
Q 2534 397 2845 478 
Q 3156 559 3463 722 
L 3463 178 
Q 3153 47 2828 -22 
Q 2503 -91 2169 -91 
Q 1331 -91 842 396 
Q 353 884 353 1716 
Q 353 2575 817 3079 
Q 1281 3584 2069 3584 
Q 2775 3584 3186 3129 
Q 3597 2675 3597 1894 
z
M 3022 2063 
Q 3016 2534 2758 2815 
Q 2500 3097 2075 3097 
Q 1594 3097 1305 2825 
Q 1016 2553 972 2059 
L 3022 2063 
z
" transform="scale(0.015625)"/>
       <path id="DejaVuSans-61" d="M 2194 1759 
Q 1497 1759 1228 1600 
Q 959 1441 959 1056 
Q 959 750 1161 570 
Q 1363 391 1709 391 
Q 2188 391 2477 730 
Q 2766 1069 2766 1631 
L 2766 1759 
L 2194 1759 
z
M 3341 1997 
L 3341 0 
L 2766 0 
L 2766 531 
Q 2569 213 2275 61 
Q 1981 -91 1556 -91 
Q 1019 -91 701 211 
Q 384 513 384 1019 
Q 384 1609 779 1909 
Q 1175 2209 1959 2209 
L 2766 2209 
L 2766 2266 
Q 2766 2663 2505 2880 
Q 2244 3097 1772 3097 
Q 1472 3097 1187 3025 
Q 903 2953 641 2809 
L 641 3341 
Q 956 3463 1253 3523 
Q 1550 3584 1831 3584 
Q 2591 3584 2966 3190 
Q 3341 2797 3341 1997 
z
" transform="scale(0.015625)"/>
       <path id="DejaVuSans-6d" d="M 3328 2828 
Q 3544 3216 3844 3400 
Q 4144 3584 4550 3584 
Q 5097 3584 5394 3201 
Q 5691 2819 5691 2113 
L 5691 0 
L 5113 0 
L 5113 2094 
Q 5113 2597 4934 2840 
Q 4756 3084 4391 3084 
Q 3944 3084 3684 2787 
Q 3425 2491 3425 1978 
L 3425 0 
L 2847 0 
L 2847 2094 
Q 2847 2600 2669 2842 
Q 2491 3084 2119 3084 
Q 1678 3084 1418 2786 
Q 1159 2488 1159 1978 
L 1159 0 
L 581 0 
L 581 3500 
L 1159 3500 
L 1159 2956 
Q 1356 3278 1631 3431 
Q 1906 3584 2284 3584 
Q 2666 3584 2933 3390 
Q 3200 3197 3328 2828 
z
" transform="scale(0.015625)"/>
      </defs>
      <use xlink:href="#DejaVuSans-62"/>
      <use xlink:href="#DejaVuSans-65" transform="translate(63.476562 0)"/>
      <use xlink:href="#DejaVuSans-61" transform="translate(125 0)"/>
      <use xlink:href="#DejaVuSans-6d" transform="translate(186.279297 0)"/>
     </g>
    </g>
    <g id="line2d_23">
     <path d="M 308.904688 38.037485 
L 308.904688 38.037485 
L 318.904688 38.037485 
L 318.904688 38.037485 
L 328.904688 38.037485 
" style="fill: none; stroke: #ff7f0e; stroke-width: 1.5; stroke-linecap: square"/>
    </g>
    <g id="text_21">
     <!-- sample -->
     <g transform="translate(336.904688 41.537485) scale(0.1 -0.1)">
      <defs>
       <path id="DejaVuSans-70" d="M 1159 525 
L 1159 -1331 
L 581 -1331 
L 581 3500 
L 1159 3500 
L 1159 2969 
Q 1341 3281 1617 3432 
Q 1894 3584 2278 3584 
Q 2916 3584 3314 3078 
Q 3713 2572 3713 1747 
Q 3713 922 3314 415 
Q 2916 -91 2278 -91 
Q 1894 -91 1617 61 
Q 1341 213 1159 525 
z
M 3116 1747 
Q 3116 2381 2855 2742 
Q 2594 3103 2138 3103 
Q 1681 3103 1420 2742 
Q 1159 2381 1159 1747 
Q 1159 1113 1420 752 
Q 1681 391 2138 391 
Q 2594 391 2855 752 
Q 3116 1113 3116 1747 
z
" transform="scale(0.015625)"/>
       <path id="DejaVuSans-6c" d="M 603 4863 
L 1178 4863 
L 1178 0 
L 603 0 
L 603 4863 
z
" transform="scale(0.015625)"/>
      </defs>
      <use xlink:href="#DejaVuSans-73"/>
      <use xlink:href="#DejaVuSans-61" transform="translate(52.099609 0)"/>
      <use xlink:href="#DejaVuSans-6d" transform="translate(113.378906 0)"/>
      <use xlink:href="#DejaVuSans-70" transform="translate(210.791016 0)"/>
      <use xlink:href="#DejaVuSans-6c" transform="translate(274.267578 0)"/>
      <use xlink:href="#DejaVuSans-65" transform="translate(302.050781 0)"/>
     </g>
    </g>
    <g id="line2d_24">
     <path d="M 308.904688 52.71561 
L 308.904688 52.71561 
L 318.904688 52.71561 
L 318.904688 52.71561 
L 328.904688 52.71561 
" style="fill: none; stroke: #2ca02c; stroke-width: 1.5; stroke-linecap: square"/>
    </g>
    <g id="text_22">
     <!-- monitor -->
     <g transform="translate(336.904688 56.21561) scale(0.1 -0.1)">
      <defs>
       <path id="DejaVuSans-69" d="M 603 3500 
L 1178 3500 
L 1178 0 
L 603 0 
L 603 3500 
z
M 603 4863 
L 1178 4863 
L 1178 4134 
L 603 4134 
L 603 4863 
z
" transform="scale(0.015625)"/>
       <path id="DejaVuSans-72" d="M 2631 2963 
Q 2534 3019 2420 3045 
Q 2306 3072 2169 3072 
Q 1681 3072 1420 2755 
Q 1159 2438 1159 1844 
L 1159 0 
L 581 0 
L 581 3500 
L 1159 3500 
L 1159 2956 
Q 1341 3275 1631 3429 
Q 1922 3584 2338 3584 
Q 2397 3584 2469 3576 
Q 2541 3569 2628 3553 
L 2631 2963 
z
" transform="scale(0.015625)"/>
      </defs>
      <use xlink:href="#DejaVuSans-6d"/>
      <use xlink:href="#DejaVuSans-6f" transform="translate(97.412109 0)"/>
      <use xlink:href="#DejaVuSans-6e" transform="translate(158.59375 0)"/>
      <use xlink:href="#DejaVuSans-69" transform="translate(221.972656 0)"/>
      <use xlink:href="#DejaVuSans-74" transform="translate(249.755859 0)"/>
      <use xlink:href="#DejaVuSans-6f" transform="translate(288.964844 0)"/>
      <use xlink:href="#DejaVuSans-72" transform="translate(350.146484 0)"/>
     </g>
    </g>
    <g id="line2d_25">
     <path d="M 308.904688 67.393735 
L 308.904688 67.393735 
L 318.904688 67.393735 
L 318.904688 67.393735 
L 328.904688 67.393735 
" style="fill: none; stroke: #d62728; stroke-width: 1.5; stroke-linecap: square"/>
    </g>
    <g id="text_23">
     <!-- detector -->
     <g transform="translate(336.904688 70.893735) scale(0.1 -0.1)">
      <defs>
       <path id="DejaVuSans-64" d="M 2906 2969 
L 2906 4863 
L 3481 4863 
L 3481 0 
L 2906 0 
L 2906 525 
Q 2725 213 2448 61 
Q 2172 -91 1784 -91 
Q 1150 -91 751 415 
Q 353 922 353 1747 
Q 353 2572 751 3078 
Q 1150 3584 1784 3584 
Q 2172 3584 2448 3432 
Q 2725 3281 2906 2969 
z
M 947 1747 
Q 947 1113 1208 752 
Q 1469 391 1925 391 
Q 2381 391 2643 752 
Q 2906 1113 2906 1747 
Q 2906 2381 2643 2742 
Q 2381 3103 1925 3103 
Q 1469 3103 1208 2742 
Q 947 2381 947 1747 
z
" transform="scale(0.015625)"/>
      </defs>
      <use xlink:href="#DejaVuSans-64"/>
      <use xlink:href="#DejaVuSans-65" transform="translate(63.476562 0)"/>
      <use xlink:href="#DejaVuSans-74" transform="translate(125 0)"/>
      <use xlink:href="#DejaVuSans-65" transform="translate(164.208984 0)"/>
      <use xlink:href="#DejaVuSans-63" transform="translate(225.732422 0)"/>
      <use xlink:href="#DejaVuSans-74" transform="translate(280.712891 0)"/>
      <use xlink:href="#DejaVuSans-6f" transform="translate(319.921875 0)"/>
      <use xlink:href="#DejaVuSans-72" transform="translate(381.103516 0)"/>
     </g>
    </g>
   </g>
  </g>
 </g>
 <defs>
  <clipPath id="ped3f4274df">
   <rect x="53.328125" y="10.260923" width="334.8" height="221.76"/>
  </clipPath>
 </defs>
</svg>
