<?xml version="1.0" encoding="utf-8" standalone="no"?>
<!DOCTYPE svg PUBLIC "-//W3C//DTD SVG 1.1//EN"
  "http://www.w3.org/Graphics/SVG/1.1/DTD/svg11.dtd">
<svg xmlns:xlink="http://www.w3.org/1999/xlink" width="388.965625pt" height="268.200625pt" viewBox="0 0 388.965625 268.200625" xmlns="http://www.w3.org/2000/svg" version="1.1">
 <metadata>
  <rdf:RDF xmlns:dc="http://purl.org/dc/elements/1.1/" xmlns:cc="http://creativecommons.org/ns#" xmlns:rdf="http://www.w3.org/1999/02/22-rdf-syntax-ns#">
   <cc:Work>
    <dc:type rdf:resource="http://purl.org/dc/dcmitype/StillImage"/>
    <dc:date>2026-02-24T15:35:15.779609</dc:date>
    <dc:format>image/svg+xml</dc:format>
    <dc:creator>
     <cc:Agent>
      <dc:title>Matplotlib v3.10.8, https://matplotlib.org/</dc:title>
     </cc:Agent>
    </dc:creator>
   </cc:Work>
  </rdf:RDF>
 </metadata>
 <defs>
  <style type="text/css">*{stroke-linejoin: round; stroke-linecap: butt}</style>
 </defs>
 <g id="figure_1">
  <g id="patch_1">
   <path d="M 0 268.200625 
L 388.965625 268.200625 
L 388.965625 0 
L 0 0 
z
" style="fill: #ffffff"/>
  </g>
  <g id="axes_1">
   <g id="patch_2">
    <path d="M 46.965625 228.96 
L 381.765625 228.96 
L 381.765625 7.2 
L 46.965625 7.2 
z
" style="fill: #ffffff"/>
   </g>
   <g id="matplotlib.axis_1">
    <g id="xtick_1">
     <g id="line2d_1">
      <defs>
       <path id="m3f02df3343" d="M 0 0 
L 0 3.5 
" style="stroke: #000000; stroke-width: 0.8"/>
      </defs>
      <g>
       <use xlink:href="#m3f02df3343" x="78.202946" y="228.96" style="stroke: #000000; stroke-width: 0.8"/>
      </g>
     </g>
     <g id="text_1">
      <!-- 1.0 -->
      <g transform="translate(70.251383 243.558437) scale(0.1 -0.1)">
       <defs>
        <path id="DejaVuSans-31" d="M 794 531 
L 1825 531 
L 1825 4091 
L 703 3866 
L 703 4441 
L 1819 4666 
L 2450 4666 
L 2450 531 
L 3481 531 
L 3481 0 
L 794 0 
L 794 531 
z
" transform="scale(0.015625)"/>
        <path id="DejaVuSans-2e" d="M 684 794 
L 1344 794 
L 1344 0 
L 684 0 
L 684 794 
z
" transform="scale(0.015625)"/>
        <path id="DejaVuSans-30" d="M 2034 4250 
Q 1547 4250 1301 3770 
Q 1056 3291 1056 2328 
Q 1056 1369 1301 889 
Q 1547 409 2034 409 
Q 2525 409 2770 889 
Q 3016 1369 3016 2328 
Q 3016 3291 2770 3770 
Q 2525 4250 2034 4250 
z
M 2034 4750 
Q 2819 4750 3233 4129 
Q 3647 3509 3647 2328 
Q 3647 1150 3233 529 
Q 2819 -91 2034 -91 
Q 1250 -91 836 529 
Q 422 1150 422 2328 
Q 422 3509 836 4129 
Q 1250 4750 2034 4750 
z
" transform="scale(0.015625)"/>
       </defs>
       <use xlink:href="#DejaVuSans-31"/>
       <use xlink:href="#DejaVuSans-2e" transform="translate(63.623047 0)"/>
       <use xlink:href="#DejaVuSans-30" transform="translate(95.410156 0)"/>
      </g>
     </g>
    </g>
    <g id="xtick_2">
     <g id="line2d_2">
      <g>
       <use xlink:href="#m3f02df3343" x="118.250792" y="228.96" style="stroke: #000000; stroke-width: 0.8"/>
      </g>
     </g>
     <g id="text_2">
      <!-- 1.5 -->
      <g transform="translate(110.29923 243.558437) scale(0.1 -0.1)">
       <defs>
        <path id="DejaVuSans-35" d="M 691 4666 
L 3169 4666 
L 3169 4134 
L 1269 4134 
L 1269 2991 
Q 1406 3038 1543 3061 
Q 1681 3084 1819 3084 
Q 2600 3084 3056 2656 
Q 3513 2228 3513 1497 
Q 3513 744 3044 326 
Q 2575 -91 1722 -91 
Q 1428 -91 1123 -41 
Q 819 9 494 109 
L 494 744 
Q 775 591 1075 516 
Q 1375 441 1709 441 
Q 2250 441 2565 725 
Q 2881 1009 2881 1497 
Q 2881 1984 2565 2268 
Q 2250 2553 1709 2553 
Q 1456 2553 1204 2497 
Q 953 2441 691 2322 
L 691 4666 
z
" transform="scale(0.015625)"/>
       </defs>
       <use xlink:href="#DejaVuSans-31"/>
       <use xlink:href="#DejaVuSans-2e" transform="translate(63.623047 0)"/>
       <use xlink:href="#DejaVuSans-35" transform="translate(95.410156 0)"/>
      </g>
     </g>
    </g>
    <g id="xtick_3">
     <g id="line2d_3">
      <g>
       <use xlink:href="#m3f02df3343" x="158.298639" y="228.96" style="stroke: #000000; stroke-width: 0.8"/>
      </g>
     </g>
     <g id="text_3">
      <!-- 2.0 -->
      <g transform="translate(150.347077 243.558437) scale(0.1 -0.1)">
       <defs>
        <path id="DejaVuSans-32" d="M 1228 531 
L 3431 531 
L 3431 0 
L 469 0 
L 469 531 
Q 828 903 1448 1529 
Q 2069 2156 2228 2338 
Q 2531 2678 2651 2914 
Q 2772 3150 2772 3378 
Q 2772 3750 2511 3984 
Q 2250 4219 1831 4219 
Q 1534 4219 1204 4116 
Q 875 4013 500 3803 
L 500 4441 
Q 881 4594 1212 4672 
Q 1544 4750 1819 4750 
Q 2544 4750 2975 4387 
Q 3406 4025 3406 3419 
Q 3406 3131 3298 2873 
Q 3191 2616 2906 2266 
Q 2828 2175 2409 1742 
Q 1991 1309 1228 531 
z
" transform="scale(0.015625)"/>
       </defs>
       <use xlink:href="#DejaVuSans-32"/>
       <use xlink:href="#DejaVuSans-2e" transform="translate(63.623047 0)"/>
       <use xlink:href="#DejaVuSans-30" transform="translate(95.410156 0)"/>
      </g>
     </g>
    </g>
    <g id="xtick_4">
     <g id="line2d_4">
      <g>
       <use xlink:href="#m3f02df3343" x="198.346486" y="228.96" style="stroke: #000000; stroke-width: 0.8"/>
      </g>
     </g>
     <g id="text_4">
      <!-- 2.5 -->
      <g transform="translate(190.394924 243.558437) scale(0.1 -0.1)">
       <use xlink:href="#DejaVuSans-32"/>
       <use xlink:href="#DejaVuSans-2e" transform="translate(63.623047 0)"/>
       <use xlink:href="#DejaVuSans-35" transform="translate(95.410156 0)"/>
      </g>
     </g>
    </g>
    <g id="xtick_5">
     <g id="line2d_5">
      <g>
       <use xlink:href="#m3f02df3343" x="238.394333" y="228.96" style="stroke: #000000; stroke-width: 0.8"/>
      </g>
     </g>
     <g id="text_5">
      <!-- 3.0 -->
      <g transform="translate(230.442771 243.558437) scale(0.1 -0.1)">
       <defs>
        <path id="DejaVuSans-33" d="M 2597 2516 
Q 3050 2419 3304 2112 
Q 3559 1806 3559 1356 
Q 3559 666 3084 287 
Q 2609 -91 1734 -91 
Q 1441 -91 1130 -33 
Q 819 25 488 141 
L 488 750 
Q 750 597 1062 519 
Q 1375 441 1716 441 
Q 2309 441 2620 675 
Q 2931 909 2931 1356 
Q 2931 1769 2642 2001 
Q 2353 2234 1838 2234 
L 1294 2234 
L 1294 2753 
L 1863 2753 
Q 2328 2753 2575 2939 
Q 2822 3125 2822 3475 
Q 2822 3834 2567 4026 
Q 2313 4219 1838 4219 
Q 1578 4219 1281 4162 
Q 984 4106 628 3988 
L 628 4550 
Q 988 4650 1302 4700 
Q 1616 4750 1894 4750 
Q 2613 4750 3031 4423 
Q 3450 4097 3450 3541 
Q 3450 3153 3228 2886 
Q 3006 2619 2597 2516 
z
" transform="scale(0.015625)"/>
       </defs>
       <use xlink:href="#DejaVuSans-33"/>
       <use xlink:href="#DejaVuSans-2e" transform="translate(63.623047 0)"/>
       <use xlink:href="#DejaVuSans-30" transform="translate(95.410156 0)"/>
      </g>
     </g>
    </g>
    <g id="xtick_6">
     <g id="line2d_6">
      <g>
       <use xlink:href="#m3f02df3343" x="278.44218" y="228.96" style="stroke: #000000; stroke-width: 0.8"/>
      </g>
     </g>
     <g id="text_6">
      <!-- 3.5 -->
      <g transform="translate(270.490618 243.558437) scale(0.1 -0.1)">
       <use xlink:href="#DejaVuSans-33"/>
       <use xlink:href="#DejaVuSans-2e" transform="translate(63.623047 0)"/>
       <use xlink:href="#DejaVuSans-35" transform="translate(95.410156 0)"/>
      </g>
     </g>
    </g>
    <g id="xtick_7">
     <g id="line2d_7">
      <g>
       <use xlink:href="#m3f02df3343" x="318.490027" y="228.96" style="stroke: #000000; stroke-width: 0.8"/>
      </g>
     </g>
     <g id="text_7">
      <!-- 4.0 -->
      <g transform="translate(310.538464 243.558437) scale(0.1 -0.1)">
       <defs>
        <path id="DejaVuSans-34" d="M 2419 4116 
L 825 1625 
L 2419 1625 
L 2419 4116 
z
M 2253 4666 
L 3047 4666 
L 3047 1625 
L 3713 1625 
L 3713 1100 
L 3047 1100 
L 3047 0 
L 2419 0 
L 2419 1100 
L 313 1100 
L 313 1709 
L 2253 4666 
z
" transform="scale(0.015625)"/>
       </defs>
       <use xlink:href="#DejaVuSans-34"/>
       <use xlink:href="#DejaVuSans-2e" transform="translate(63.623047 0)"/>
       <use xlink:href="#DejaVuSans-30" transform="translate(95.410156 0)"/>
      </g>
     </g>
    </g>
    <g id="xtick_8">
     <g id="line2d_8">
      <g>
       <use xlink:href="#m3f02df3343" x="358.537874" y="228.96" style="stroke: #000000; stroke-width: 0.8"/>
      </g>
     </g>
     <g id="text_8">
      <!-- 4.5 -->
      <g transform="translate(350.586311 243.558437) scale(0.1 -0.1)">
       <use xlink:href="#DejaVuSans-34"/>
       <use xlink:href="#DejaVuSans-2e" transform="translate(63.623047 0)"/>
       <use xlink:href="#DejaVuSans-35" transform="translate(95.410156 0)"/>
      </g>
     </g>
    </g>
    <g id="text_9">
     <!-- wavelength [Å] -->
     <g transform="translate(176.328125 258.920937) scale(0.1 -0.1)">
      <defs>
       <path id="DejaVuSans-77" d="M 269 3500 
L 844 3500 
L 1563 769 
L 2278 3500 
L 2956 3500 
L 3675 769 
L 4391 3500 
L 4966 3500 
L 4050 0 
L 3372 0 
L 2619 2869 
L 1863 0 
L 1184 0 
L 269 3500 
z
" transform="scale(0.015625)"/>
       <path id="DejaVuSans-61" d="M 2194 1759 
Q 1497 1759 1228 1600 
Q 959 1441 959 1056 
Q 959 750 1161 570 
Q 1363 391 1709 391 
Q 2188 391 2477 730 
Q 2766 1069 2766 1631 
L 2766 1759 
L 2194 1759 
z
M 3341 1997 
L 3341 0 
L 2766 0 
L 2766 531 
Q 2569 213 2275 61 
Q 1981 -91 1556 -91 
Q 1019 -91 701 211 
Q 384 513 384 1019 
Q 384 1609 779 1909 
Q 1175 2209 1959 2209 
L 2766 2209 
L 2766 2266 
Q 2766 2663 2505 2880 
Q 2244 3097 1772 3097 
Q 1472 3097 1187 3025 
Q 903 2953 641 2809 
L 641 3341 
Q 956 3463 1253 3523 
Q 1550 3584 1831 3584 
Q 2591 3584 2966 3190 
Q 3341 2797 3341 1997 
z
" transform="scale(0.015625)"/>
       <path id="DejaVuSans-76" d="M 191 3500 
L 800 3500 
L 1894 563 
L 2988 3500 
L 3597 3500 
L 2284 0 
L 1503 0 
L 191 3500 
z
" transform="scale(0.015625)"/>
       <path id="DejaVuSans-65" d="M 3597 1894 
L 3597 1613 
L 953 1613 
Q 991 1019 1311 708 
Q 1631 397 2203 397 
Q 2534 397 2845 478 
Q 3156 559 3463 722 
L 3463 178 
Q 3153 47 2828 -22 
Q 2503 -91 2169 -91 
Q 1331 -91 842 396 
Q 353 884 353 1716 
Q 353 2575 817 3079 
Q 1281 3584 2069 3584 
Q 2775 3584 3186 3129 
Q 3597 2675 3597 1894 
z
M 3022 2063 
Q 3016 2534 2758 2815 
Q 2500 3097 2075 3097 
Q 1594 3097 1305 2825 
Q 1016 2553 972 2059 
L 3022 2063 
z
" transform="scale(0.015625)"/>
       <path id="DejaVuSans-6c" d="M 603 4863 
L 1178 4863 
L 1178 0 
L 603 0 
L 603 4863 
z
" transform="scale(0.015625)"/>
       <path id="DejaVuSans-6e" d="M 3513 2113 
L 3513 0 
L 2938 0 
L 2938 2094 
Q 2938 2591 2744 2837 
Q 2550 3084 2163 3084 
Q 1697 3084 1428 2787 
Q 1159 2491 1159 1978 
L 1159 0 
L 581 0 
L 581 3500 
L 1159 3500 
L 1159 2956 
Q 1366 3272 1645 3428 
Q 1925 3584 2291 3584 
Q 2894 3584 3203 3211 
Q 3513 2838 3513 2113 
z
" transform="scale(0.015625)"/>
       <path id="DejaVuSans-67" d="M 2906 1791 
Q 2906 2416 2648 2759 
Q 2391 3103 1925 3103 
Q 1463 3103 1205 2759 
Q 947 2416 947 1791 
Q 947 1169 1205 825 
Q 1463 481 1925 481 
Q 2391 481 2648 825 
Q 2906 1169 2906 1791 
z
M 3481 434 
Q 3481 -459 3084 -895 
Q 2688 -1331 1869 -1331 
Q 1566 -1331 1297 -1286 
Q 1028 -1241 775 -1147 
L 775 -588 
Q 1028 -725 1275 -790 
Q 1522 -856 1778 -856 
Q 2344 -856 2625 -561 
Q 2906 -266 2906 331 
L 2906 616 
Q 2728 306 2450 153 
Q 2172 0 1784 0 
Q 1141 0 747 490 
Q 353 981 353 1791 
Q 353 2603 747 3093 
Q 1141 3584 1784 3584 
Q 2172 3584 2450 3431 
Q 2728 3278 2906 2969 
L 2906 3500 
L 3481 3500 
L 3481 434 
z
" transform="scale(0.015625)"/>
       <path id="DejaVuSans-74" d="M 1172 4494 
L 1172 3500 
L 2356 3500 
L 2356 3053 
L 1172 3053 
L 1172 1153 
Q 1172 725 1289 603 
Q 1406 481 1766 481 
L 2356 481 
L 2356 0 
L 1766 0 
Q 1100 0 847 248 
Q 594 497 594 1153 
L 594 3053 
L 172 3053 
L 172 3500 
L 594 3500 
L 594 4494 
L 1172 4494 
z
" transform="scale(0.015625)"/>
       <path id="DejaVuSans-68" d="M 3513 2113 
L 3513 0 
L 2938 0 
L 2938 2094 
Q 2938 2591 2744 2837 
Q 2550 3084 2163 3084 
Q 1697 3084 1428 2787 
Q 1159 2491 1159 1978 
L 1159 0 
L 581 0 
L 581 4863 
L 1159 4863 
L 1159 2956 
Q 1366 3272 1645 3428 
Q 1925 3584 2291 3584 
Q 2894 3584 3203 3211 
Q 3513 2838 3513 2113 
z
" transform="scale(0.015625)"/>
       <path id="DejaVuSans-20" transform="scale(0.015625)"/>
       <path id="DejaVuSans-5b" d="M 550 4863 
L 1875 4863 
L 1875 4416 
L 1125 4416 
L 1125 -397 
L 1875 -397 
L 1875 -844 
L 550 -844 
L 550 4863 
z
" transform="scale(0.015625)"/>
       <path id="DejaVuSans-c5" d="M 2663 5081 
Q 2663 5278 2523 5417 
Q 2384 5556 2188 5556 
Q 1988 5556 1852 5420 
Q 1716 5284 1716 5081 
Q 1716 4884 1853 4746 
Q 1991 4609 2188 4609 
Q 2384 4609 2523 4746 
Q 2663 4884 2663 5081 
z
M 2188 4044 
L 1338 1722 
L 3041 1722 
L 2188 4044 
z
M 1716 4366 
Q 1525 4494 1428 4673 
Q 1331 4853 1331 5081 
Q 1331 5441 1579 5691 
Q 1828 5941 2188 5941 
Q 2544 5941 2795 5689 
Q 3047 5438 3047 5081 
Q 3047 4863 2948 4678 
Q 2850 4494 2663 4366 
L 4325 0 
L 3669 0 
L 3244 1197 
L 1141 1197 
L 716 0 
L 50 0 
L 1716 4366 
z
" transform="scale(0.015625)"/>
       <path id="DejaVuSans-5d" d="M 1947 4863 
L 1947 -844 
L 622 -844 
L 622 -397 
L 1369 -397 
L 1369 4416 
L 622 4416 
L 622 4863 
L 1947 4863 
z
" transform="scale(0.015625)"/>
      </defs>
      <use xlink:href="#DejaVuSans-77"/>
      <use xlink:href="#DejaVuSans-61" transform="translate(81.787109 0)"/>
      <use xlink:href="#DejaVuSans-76" transform="translate(143.066406 0)"/>
      <use xlink:href="#DejaVuSans-65" transform="translate(202.246094 0)"/>
      <use xlink:href="#DejaVuSans-6c" transform="translate(263.769531 0)"/>
      <use xlink:href="#DejaVuSans-65" transform="translate(291.552734 0)"/>
      <use xlink:href="#DejaVuSans-6e" transform="translate(353.076172 0)"/>
      <use xlink:href="#DejaVuSans-67" transform="translate(416.455078 0)"/>
      <use xlink:href="#DejaVuSans-74" transform="translate(479.931641 0)"/>
      <use xlink:href="#DejaVuSans-68" transform="translate(519.140625 0)"/>
      <use xlink:href="#DejaVuSans-20" transform="translate(582.519531 0)"/>
      <use xlink:href="#DejaVuSans-5b" transform="translate(614.306641 0)"/>
      <use xlink:href="#DejaVuSans-c5" transform="translate(653.320312 0)"/>
      <use xlink:href="#DejaVuSans-5d" transform="translate(721.728516 0)"/>
     </g>
    </g>
   </g>
   <g id="matplotlib.axis_2">
    <g id="ytick_1">
     <g id="line2d_9">
      <defs>
       <path id="mc05fa4fd09" d="M 0 0 
L -3.5 0 
" style="stroke: #000000; stroke-width: 0.8"/>
      </defs>
      <g>
       <use xlink:href="#mc05fa4fd09" x="46.965625" y="218.88" style="stroke: #000000; stroke-width: 0.8"/>
      </g>
     </g>
     <g id="text_10">
      <!-- 0 -->
      <g transform="translate(33.603125 222.679219) scale(0.1 -0.1)">
       <use xlink:href="#DejaVuSans-30"/>
      </g>
     </g>
    </g>
    <g id="ytick_2">
     <g id="line2d_10">
      <g>
       <use xlink:href="#mc05fa4fd09" x="46.965625" y="192.900619" style="stroke: #000000; stroke-width: 0.8"/>
      </g>
     </g>
     <g id="text_11">
      <!-- 100 -->
      <g transform="translate(20.878125 196.699837) scale(0.1 -0.1)">
       <use xlink:href="#DejaVuSans-31"/>
       <use xlink:href="#DejaVuSans-30" transform="translate(63.623047 0)"/>
       <use xlink:href="#DejaVuSans-30" transform="translate(127.246094 0)"/>
      </g>
     </g>
    </g>
    <g id="ytick_3">
     <g id="line2d_11">
      <g>
       <use xlink:href="#mc05fa4fd09" x="46.965625" y="166.921237" style="stroke: #000000; stroke-width: 0.8"/>
      </g>
     </g>
     <g id="text_12">
      <!-- 200 -->
      <g transform="translate(20.878125 170.720456) scale(0.1 -0.1)">
       <use xlink:href="#DejaVuSans-32"/>
       <use xlink:href="#DejaVuSans-30" transform="translate(63.623047 0)"/>
       <use xlink:href="#DejaVuSans-30" transform="translate(127.246094 0)"/>
      </g>
     </g>
    </g>
    <g id="ytick_4">
     <g id="line2d_12">
      <g>
       <use xlink:href="#mc05fa4fd09" x="46.965625" y="140.941856" style="stroke: #000000; stroke-width: 0.8"/>
      </g>
     </g>
     <g id="text_13">
      <!-- 300 -->
      <g transform="translate(20.878125 144.741074) scale(0.1 -0.1)">
       <use xlink:href="#DejaVuSans-33"/>
       <use xlink:href="#DejaVuSans-30" transform="translate(63.623047 0)"/>
       <use xlink:href="#DejaVuSans-30" transform="translate(127.246094 0)"/>
      </g>
     </g>
    </g>
    <g id="ytick_5">
     <g id="line2d_13">
      <g>
       <use xlink:href="#mc05fa4fd09" x="46.965625" y="114.962474" style="stroke: #000000; stroke-width: 0.8"/>
      </g>
     </g>
     <g id="text_14">
      <!-- 400 -->
      <g transform="translate(20.878125 118.761693) scale(0.1 -0.1)">
       <use xlink:href="#DejaVuSans-34"/>
       <use xlink:href="#DejaVuSans-30" transform="translate(63.623047 0)"/>
       <use xlink:href="#DejaVuSans-30" transform="translate(127.246094 0)"/>
      </g>
     </g>
    </g>
    <g id="ytick_6">
     <g id="line2d_14">
      <g>
       <use xlink:href="#mc05fa4fd09" x="46.965625" y="88.983093" style="stroke: #000000; stroke-width: 0.8"/>
      </g>
     </g>
     <g id="text_15">
      <!-- 500 -->
      <g transform="translate(20.878125 92.782312) scale(0.1 -0.1)">
       <use xlink:href="#DejaVuSans-35"/>
       <use xlink:href="#DejaVuSans-30" transform="translate(63.623047 0)"/>
       <use xlink:href="#DejaVuSans-30" transform="translate(127.246094 0)"/>
      </g>
     </g>
    </g>
    <g id="ytick_7">
     <g id="line2d_15">
      <g>
       <use xlink:href="#mc05fa4fd09" x="46.965625" y="63.003711" style="stroke: #000000; stroke-width: 0.8"/>
      </g>
     </g>
     <g id="text_16">
      <!-- 600 -->
      <g transform="translate(20.878125 66.80293) scale(0.1 -0.1)">
       <defs>
        <path id="DejaVuSans-36" d="M 2113 2584 
Q 1688 2584 1439 2293 
Q 1191 2003 1191 1497 
Q 1191 994 1439 701 
Q 1688 409 2113 409 
Q 2538 409 2786 701 
Q 3034 994 3034 1497 
Q 3034 2003 2786 2293 
Q 2538 2584 2113 2584 
z
M 3366 4563 
L 3366 3988 
Q 3128 4100 2886 4159 
Q 2644 4219 2406 4219 
Q 1781 4219 1451 3797 
Q 1122 3375 1075 2522 
Q 1259 2794 1537 2939 
Q 1816 3084 2150 3084 
Q 2853 3084 3261 2657 
Q 3669 2231 3669 1497 
Q 3669 778 3244 343 
Q 2819 -91 2113 -91 
Q 1303 -91 875 529 
Q 447 1150 447 2328 
Q 447 3434 972 4092 
Q 1497 4750 2381 4750 
Q 2619 4750 2861 4703 
Q 3103 4656 3366 4563 
z
" transform="scale(0.015625)"/>
       </defs>
       <use xlink:href="#DejaVuSans-36"/>
       <use xlink:href="#DejaVuSans-30" transform="translate(63.623047 0)"/>
       <use xlink:href="#DejaVuSans-30" transform="translate(127.246094 0)"/>
      </g>
     </g>
    </g>
    <g id="ytick_8">
     <g id="line2d_16">
      <g>
       <use xlink:href="#mc05fa4fd09" x="46.965625" y="37.02433" style="stroke: #000000; stroke-width: 0.8"/>
      </g>
     </g>
     <g id="text_17">
      <!-- 700 -->
      <g transform="translate(20.878125 40.823549) scale(0.1 -0.1)">
       <defs>
        <path id="DejaVuSans-37" d="M 525 4666 
L 3525 4666 
L 3525 4397 
L 1831 0 
L 1172 0 
L 2766 4134 
L 525 4134 
L 525 4666 
z
" transform="scale(0.015625)"/>
       </defs>
       <use xlink:href="#DejaVuSans-37"/>
       <use xlink:href="#DejaVuSans-30" transform="translate(63.623047 0)"/>
       <use xlink:href="#DejaVuSans-30" transform="translate(127.246094 0)"/>
      </g>
     </g>
    </g>
    <g id="ytick_9">
     <g id="line2d_17">
      <g>
       <use xlink:href="#mc05fa4fd09" x="46.965625" y="11.044948" style="stroke: #000000; stroke-width: 0.8"/>
      </g>
     </g>
     <g id="text_18">
      <!-- 800 -->
      <g transform="translate(20.878125 14.844167) scale(0.1 -0.1)">
       <defs>
        <path id="DejaVuSans-38" d="M 2034 2216 
Q 1584 2216 1326 1975 
Q 1069 1734 1069 1313 
Q 1069 891 1326 650 
Q 1584 409 2034 409 
Q 2484 409 2743 651 
Q 3003 894 3003 1313 
Q 3003 1734 2745 1975 
Q 2488 2216 2034 2216 
z
M 1403 2484 
Q 997 2584 770 2862 
Q 544 3141 544 3541 
Q 544 4100 942 4425 
Q 1341 4750 2034 4750 
Q 2731 4750 3128 4425 
Q 3525 4100 3525 3541 
Q 3525 3141 3298 2862 
Q 3072 2584 2669 2484 
Q 3125 2378 3379 2068 
Q 3634 1759 3634 1313 
Q 3634 634 3220 271 
Q 2806 -91 2034 -91 
Q 1263 -91 848 271 
Q 434 634 434 1313 
Q 434 1759 690 2068 
Q 947 2378 1403 2484 
z
M 1172 3481 
Q 1172 3119 1398 2916 
Q 1625 2713 2034 2713 
Q 2441 2713 2670 2916 
Q 2900 3119 2900 3481 
Q 2900 3844 2670 4047 
Q 2441 4250 2034 4250 
Q 1625 4250 1398 4047 
Q 1172 3844 1172 3481 
z
" transform="scale(0.015625)"/>
       </defs>
       <use xlink:href="#DejaVuSans-38"/>
       <use xlink:href="#DejaVuSans-30" transform="translate(63.623047 0)"/>
       <use xlink:href="#DejaVuSans-30" transform="translate(127.246094 0)"/>
      </g>
     </g>
    </g>
    <g id="text_19">
     <!-- [counts] -->
     <g transform="translate(14.798438 138.6925) rotate(-90) scale(0.1 -0.1)">
      <defs>
       <path id="DejaVuSans-63" d="M 3122 3366 
L 3122 2828 
Q 2878 2963 2633 3030 
Q 2388 3097 2138 3097 
Q 1578 3097 1268 2742 
Q 959 2388 959 1747 
Q 959 1106 1268 751 
Q 1578 397 2138 397 
Q 2388 397 2633 464 
Q 2878 531 3122 666 
L 3122 134 
Q 2881 22 2623 -34 
Q 2366 -91 2075 -91 
Q 1284 -91 818 406 
Q 353 903 353 1747 
Q 353 2603 823 3093 
Q 1294 3584 2113 3584 
Q 2378 3584 2631 3529 
Q 2884 3475 3122 3366 
z
" transform="scale(0.015625)"/>
       <path id="DejaVuSans-6f" d="M 1959 3097 
Q 1497 3097 1228 2736 
Q 959 2375 959 1747 
Q 959 1119 1226 758 
Q 1494 397 1959 397 
Q 2419 397 2687 759 
Q 2956 1122 2956 1747 
Q 2956 2369 2687 2733 
Q 2419 3097 1959 3097 
z
M 1959 3584 
Q 2709 3584 3137 3096 
Q 3566 2609 3566 1747 
Q 3566 888 3137 398 
Q 2709 -91 1959 -91 
Q 1206 -91 779 398 
Q 353 888 353 1747 
Q 353 2609 779 3096 
Q 1206 3584 1959 3584 
z
" transform="scale(0.015625)"/>
       <path id="DejaVuSans-75" d="M 544 1381 
L 544 3500 
L 1119 3500 
L 1119 1403 
Q 1119 906 1312 657 
Q 1506 409 1894 409 
Q 2359 409 2629 706 
Q 2900 1003 2900 1516 
L 2900 3500 
L 3475 3500 
L 3475 0 
L 2900 0 
L 2900 538 
Q 2691 219 2414 64 
Q 2138 -91 1772 -91 
Q 1169 -91 856 284 
Q 544 659 544 1381 
z
M 1991 3584 
L 1991 3584 
z
" transform="scale(0.015625)"/>
       <path id="DejaVuSans-73" d="M 2834 3397 
L 2834 2853 
Q 2591 2978 2328 3040 
Q 2066 3103 1784 3103 
Q 1356 3103 1142 2972 
Q 928 2841 928 2578 
Q 928 2378 1081 2264 
Q 1234 2150 1697 2047 
L 1894 2003 
Q 2506 1872 2764 1633 
Q 3022 1394 3022 966 
Q 3022 478 2636 193 
Q 2250 -91 1575 -91 
Q 1294 -91 989 -36 
Q 684 19 347 128 
L 347 722 
Q 666 556 975 473 
Q 1284 391 1588 391 
Q 1994 391 2212 530 
Q 2431 669 2431 922 
Q 2431 1156 2273 1281 
Q 2116 1406 1581 1522 
L 1381 1569 
Q 847 1681 609 1914 
Q 372 2147 372 2553 
Q 372 3047 722 3315 
Q 1072 3584 1716 3584 
Q 2034 3584 2315 3537 
Q 2597 3491 2834 3397 
z
" transform="scale(0.015625)"/>
      </defs>
      <use xlink:href="#DejaVuSans-5b"/>
      <use xlink:href="#DejaVuSans-63" transform="translate(39.013672 0)"/>
      <use xlink:href="#DejaVuSans-6f" transform="translate(93.994141 0)"/>
      <use xlink:href="#DejaVuSans-75" transform="translate(155.175781 0)"/>
      <use xlink:href="#DejaVuSans-6e" transform="translate(218.554688 0)"/>
      <use xlink:href="#DejaVuSans-74" transform="translate(281.933594 0)"/>
      <use xlink:href="#DejaVuSans-73" transform="translate(321.142578 0)"/>
      <use xlink:href="#DejaVuSans-5d" transform="translate(373.242188 0)"/>
     </g>
    </g>
   </g>
   <g id="line2d_18">
    <path d="M 62.183807 218.88 
L 69.792898 218.88 
L 69.792898 216.801649 
L 71.314716 216.801649 
L 71.314716 209.007835 
L 72.836534 209.007835 
L 72.836534 205.630515 
L 74.358352 205.630515 
L 74.358352 192.381031 
L 75.88017 192.381031 
L 75.88017 188.22433 
L 77.401989 188.22433 
L 77.401989 178.092371 
L 78.923807 178.092371 
L 78.923807 169.519175 
L 80.445625 169.519175 
L 80.445625 162.244948 
L 81.967443 162.244948 
L 81.967443 160.166598 
L 83.489261 160.166598 
L 83.489261 145.877938 
L 85.01108 145.877938 
L 85.01108 133.927423 
L 86.532898 133.927423 
L 86.532898 135.486186 
L 88.054716 135.486186 
L 88.054716 125.354227 
L 89.576534 125.354227 
L 89.576534 119.378969 
L 91.098352 119.378969 
L 91.098352 104.310928 
L 92.62017 104.310928 
L 92.62017 93.659381 
L 94.141989 93.659381 
L 94.141989 86.904742 
L 95.663807 86.904742 
L 95.663807 85.605773 
L 97.185625 85.605773 
L 97.185625 72.875876 
L 98.707443 72.875876 
L 98.707443 77.552165 
L 100.229261 77.552165 
L 100.229261 68.459381 
L 101.75108 68.459381 
L 101.75108 54.430515 
L 103.272898 54.430515 
L 103.272898 56.508866 
L 104.794716 56.508866 
L 104.794716 61.185155 
L 106.316534 61.185155 
L 106.316534 56.249072 
L 107.838352 56.249072 
L 107.838352 38.583093 
L 109.36017 38.583093 
L 109.36017 33.387216 
L 110.881989 33.387216 
L 110.881989 24.814021 
L 112.403807 24.814021 
L 112.403807 31.308866 
L 113.925625 31.308866 
L 113.925625 21.956289 
L 115.447443 21.956289 
L 115.447443 31.308866 
L 116.969261 31.308866 
L 116.969261 25.593402 
L 120.012898 25.593402 
L 120.012898 34.945979 
L 121.534716 34.945979 
L 121.534716 20.917113 
L 123.056534 20.917113 
L 123.056534 28.970722 
L 124.578352 28.970722 
L 124.578352 21.956289 
L 126.10017 21.956289 
L 126.10017 27.671753 
L 127.621989 27.671753 
L 127.621989 36.764536 
L 129.143807 36.764536 
L 129.143807 47.156289 
L 130.665625 47.156289 
L 130.665625 39.362474 
L 132.187443 39.362474 
L 132.187443 24.034639 
L 133.709261 24.034639 
L 133.709261 40.661443 
L 135.23108 40.661443 
L 135.23108 65.082062 
L 136.752898 65.082062 
L 136.752898 24.294433 
L 138.274716 24.294433 
L 138.274716 54.950103 
L 139.796534 54.950103 
L 139.796534 54.690309 
L 141.318352 54.690309 
L 141.318352 38.323299 
L 142.84017 38.323299 
L 142.84017 39.362474 
L 144.361989 39.362474 
L 144.361989 55.729485 
L 145.883807 55.729485 
L 145.883807 53.651134 
L 147.405625 53.651134 
L 147.405625 57.288247 
L 148.927443 57.288247 
L 148.927443 59.106804 
L 150.449261 59.106804 
L 150.449261 51.572784 
L 151.97108 51.572784 
L 151.97108 60.405773 
L 153.492898 60.405773 
L 153.492898 63.003711 
L 155.014716 63.003711 
L 155.014716 59.886186 
L 156.536534 59.886186 
L 156.536534 51.832577 
L 158.058352 51.832577 
L 158.058352 70.018144 
L 159.58017 70.018144 
L 159.58017 67.420206 
L 161.101989 67.420206 
L 161.101989 64.042887 
L 162.623807 64.042887 
L 162.623807 57.288247 
L 164.145625 57.288247 
L 164.145625 58.067629 
L 165.667443 58.067629 
L 165.667443 65.341856 
L 167.189261 65.341856 
L 167.189261 65.601649 
L 168.71108 65.601649 
L 168.71108 52.092371 
L 170.232898 52.092371 
L 170.232898 66.121237 
L 171.754716 66.121237 
L 171.754716 58.067629 
L 173.276534 58.067629 
L 173.276534 76.51299 
L 174.798352 76.51299 
L 174.798352 70.797526 
L 176.32017 70.797526 
L 176.32017 79.630515 
L 177.841989 79.630515 
L 177.841989 84.04701 
L 179.363807 84.04701 
L 179.363807 90.282062 
L 180.885625 90.282062 
L 180.885625 95.218144 
L 182.407443 95.218144 
L 182.407443 89.242887 
L 183.929261 89.242887 
L 183.929261 106.649072 
L 185.45108 106.649072 
L 185.45108 110.805773 
L 186.972898 110.805773 
L 186.972898 120.677938 
L 188.494716 120.677938 
L 188.494716 116.001649 
L 190.016534 116.001649 
L 190.016534 134.706804 
L 191.538352 134.706804 
L 191.538352 136.265567 
L 193.06017 136.265567 
L 193.06017 152.632577 
L 194.581989 152.632577 
L 194.581989 156.789278 
L 196.103807 156.789278 
L 196.103807 168.220206 
L 197.625625 168.220206 
L 197.625625 165.10268 
L 199.147443 165.10268 
L 199.147443 181.989278 
L 200.669261 181.989278 
L 200.669261 180.950103 
L 202.19108 180.950103 
L 202.19108 167.181031 
L 203.712898 167.181031 
L 203.712898 156.269691 
L 205.234716 156.269691 
L 205.234716 161.985155 
L 206.756534 161.985155 
L 206.756534 145.877938 
L 208.278352 145.877938 
L 208.278352 129.770722 
L 209.80017 129.770722 
L 209.80017 124.055258 
L 211.321989 124.055258 
L 211.321989 117.560412 
L 212.843807 117.560412 
L 212.843807 126.133608 
L 214.365625 126.133608 
L 214.365625 97.816082 
L 215.887443 97.816082 
L 215.887443 103.011959 
L 217.409261 103.011959 
L 217.409261 93.399588 
L 218.93108 93.399588 
L 218.93108 87.164536 
L 220.452898 87.164536 
L 220.452898 90.282062 
L 221.974716 90.282062 
L 221.974716 85.865567 
L 223.496534 85.865567 
L 223.496534 70.537732 
L 225.018352 70.537732 
L 225.018352 84.826392 
L 226.54017 84.826392 
L 226.54017 76.253196 
L 228.061989 76.253196 
L 228.061989 66.381031 
L 229.583807 66.381031 
L 229.583807 69.758351 
L 231.105625 69.758351 
L 231.105625 53.910928 
L 232.627443 53.910928 
L 232.627443 57.028454 
L 234.149261 57.028454 
L 234.149261 45.077938 
L 235.67108 45.077938 
L 235.67108 48.455258 
L 237.192898 48.455258 
L 237.192898 39.362474 
L 238.714716 39.362474 
L 238.714716 52.871753 
L 240.236534 52.871753 
L 240.236534 56.508866 
L 241.758352 56.508866 
L 241.758352 52.092371 
L 243.28017 52.092371 
L 243.28017 68.459381 
L 244.801989 68.459381 
L 244.801989 53.910928 
L 246.323807 53.910928 
L 246.323807 64.822268 
L 247.845625 64.822268 
L 247.845625 61.444948 
L 249.367443 61.444948 
L 249.367443 58.84701 
L 250.889261 58.84701 
L 250.889261 63.783093 
L 252.41108 63.783093 
L 252.41108 72.096495 
L 253.932898 72.096495 
L 253.932898 68.978969 
L 255.454716 68.978969 
L 255.454716 74.434639 
L 256.976534 74.434639 
L 256.976534 81.708866 
L 258.498352 81.708866 
L 258.498352 92.620206 
L 260.02017 92.620206 
L 260.02017 73.13567 
L 261.541989 73.13567 
L 261.541989 99.374845 
L 263.063807 99.374845 
L 263.063807 90.801649 
L 264.585625 90.801649 
L 264.585625 90.282062 
L 266.107443 90.282062 
L 266.107443 80.409897 
L 267.629261 80.409897 
L 267.629261 93.399588 
L 269.15108 93.399588 
L 269.15108 87.164536 
L 270.672898 87.164536 
L 270.672898 89.762474 
L 272.194716 89.762474 
L 272.194716 86.904742 
L 273.716534 86.904742 
L 273.716534 99.374845 
L 275.238352 99.374845 
L 275.238352 107.948041 
L 276.76017 107.948041 
L 276.76017 98.075876 
L 278.281989 98.075876 
L 278.281989 104.830515 
L 279.803807 104.830515 
L 279.803807 108.987216 
L 281.325625 108.987216 
L 281.325625 115.741856 
L 282.847443 115.741856 
L 282.847443 116.001649 
L 284.369261 116.001649 
L 284.369261 113.143918 
L 285.89108 113.143918 
L 285.89108 127.692371 
L 287.412898 127.692371 
L 287.412898 118.859381 
L 288.934716 118.859381 
L 288.934716 122.756289 
L 290.456534 122.756289 
L 290.456534 129.510928 
L 291.978352 129.510928 
L 291.978352 124.055258 
L 293.50017 124.055258 
L 293.50017 125.354227 
L 295.021989 125.354227 
L 295.021989 123.53567 
L 296.543807 123.53567 
L 296.543807 127.432577 
L 298.065625 127.432577 
L 298.065625 123.275876 
L 299.587443 123.275876 
L 299.587443 128.471753 
L 301.109261 128.471753 
L 301.109261 138.863505 
L 302.63108 138.863505 
L 302.63108 133.407835 
L 304.152898 133.407835 
L 304.152898 140.682062 
L 305.674716 140.682062 
L 305.674716 132.888247 
L 307.196534 132.888247 
L 307.196534 139.383093 
L 308.718352 139.383093 
L 308.718352 147.436701 
L 310.24017 147.436701 
L 310.24017 141.981031 
L 311.761989 141.981031 
L 311.761989 150.554227 
L 313.283807 150.554227 
L 313.283807 144.319175 
L 314.805625 144.319175 
L 314.805625 149.255258 
L 316.327443 149.255258 
L 316.327443 158.348041 
L 317.849261 158.348041 
L 317.849261 159.387216 
L 319.37108 159.387216 
L 319.37108 157.308866 
L 322.414716 157.308866 
L 322.414716 164.063505 
L 323.936534 164.063505 
L 323.936534 165.882062 
L 325.458352 165.882062 
L 325.458352 170.298557 
L 326.98017 170.298557 
L 326.98017 175.234639 
L 328.501989 175.234639 
L 328.501989 174.974845 
L 330.023807 174.974845 
L 330.023807 181.729485 
L 331.545625 181.729485 
L 331.545625 178.352165 
L 333.067443 178.352165 
L 333.067443 188.743918 
L 334.589261 188.743918 
L 334.589261 189.003711 
L 336.11108 189.003711 
L 336.11108 190.562474 
L 337.632898 190.562474 
L 337.632898 190.30268 
L 339.154716 190.30268 
L 339.154716 199.655258 
L 340.676534 199.655258 
L 340.676534 203.292371 
L 342.198352 203.292371 
L 342.198352 201.733608 
L 343.72017 201.733608 
L 343.72017 202.253196 
L 345.241989 202.253196 
L 345.241989 211.086186 
L 346.763807 211.086186 
L 346.763807 206.409897 
L 348.285625 206.409897 
L 348.285625 213.684124 
L 349.807443 213.684124 
L 349.807443 211.086186 
L 351.329261 211.086186 
L 351.329261 214.983093 
L 352.85108 214.983093 
L 352.85108 216.541856 
L 354.372898 216.541856 
L 354.372898 218.360412 
L 355.894716 218.360412 
L 355.894716 218.88 
L 357.416534 218.88 
L 357.416534 218.620206 
L 360.46017 218.620206 
L 360.46017 218.88 
L 366.547443 218.88 
L 366.547443 218.88 
" clip-path="url(#pdf8f71c16b)" style="fill: none; stroke: #1f77b4; stroke-width: 1.5; stroke-linecap: square"/>
   </g>
   <g id="line2d_19">
    <path d="M 62.183807 218.88 
L 69.792898 218.88 
L 69.792898 216.282062 
L 71.314716 216.282062 
L 71.314716 210.04701 
L 72.836534 210.04701 
L 72.836534 203.811959 
L 74.358352 203.811959 
L 74.358352 192.640825 
L 75.88017 192.640825 
L 75.88017 187.704742 
L 77.401989 187.704742 
L 77.401989 180.170722 
L 78.923807 180.170722 
L 78.923807 167.960412 
L 80.445625 167.960412 
L 80.445625 161.985155 
L 81.967443 161.985155 
L 81.967443 159.64701 
L 83.489261 159.64701 
L 83.489261 147.176907 
L 85.01108 147.176907 
L 85.01108 134.187216 
L 86.532898 134.187216 
L 86.532898 132.36866 
L 88.054716 132.36866 
L 88.054716 130.550103 
L 89.576534 130.550103 
L 89.576534 113.143918 
L 91.098352 113.143918 
L 91.098352 107.688247 
L 92.62017 107.688247 
L 92.62017 92.100619 
L 94.141989 92.100619 
L 94.141989 88.723299 
L 95.663807 88.723299 
L 95.663807 86.385155 
L 97.185625 86.385155 
L 97.185625 76.51299 
L 98.707443 76.51299 
L 98.707443 74.434639 
L 100.229261 74.434639 
L 100.229261 68.199588 
L 101.75108 68.199588 
L 101.75108 49.754227 
L 103.272898 49.754227 
L 103.272898 57.807835 
L 104.794716 57.807835 
L 104.794716 60.145979 
L 106.316534 60.145979 
L 106.316534 55.989278 
L 107.838352 55.989278 
L 107.838352 39.362474 
L 109.36017 39.362474 
L 109.36017 37.02433 
L 110.881989 37.02433 
L 110.881989 29.490309 
L 112.403807 29.490309 
L 112.403807 28.451134 
L 113.925625 28.451134 
L 113.925625 17.28 
L 115.447443 17.28 
L 115.447443 33.127423 
L 116.969261 33.127423 
L 116.969261 29.230515 
L 118.49108 29.230515 
L 118.49108 24.814021 
L 120.012898 24.814021 
L 120.012898 30.529485 
L 121.534716 30.529485 
L 121.534716 20.65732 
L 123.056534 20.65732 
L 123.056534 27.931546 
L 124.578352 27.931546 
L 124.578352 18.059381 
L 126.10017 18.059381 
L 126.10017 35.205773 
L 127.621989 35.205773 
L 127.621989 34.945979 
L 129.143807 34.945979 
L 129.143807 46.376907 
L 130.665625 46.376907 
L 130.665625 39.622268 
L 132.187443 39.622268 
L 132.187443 28.710928 
L 133.709261 28.710928 
L 133.709261 39.10268 
L 135.23108 39.10268 
L 135.23108 47.156289 
L 136.752898 47.156289 
L 136.752898 54.170722 
L 138.274716 54.170722 
L 138.274716 48.195464 
L 139.796534 48.195464 
L 139.796534 51.053196 
L 141.318352 51.053196 
L 141.318352 40.141856 
L 142.84017 40.141856 
L 142.84017 46.376907 
L 144.361989 46.376907 
L 144.361989 45.077938 
L 145.883807 45.077938 
L 145.883807 56.249072 
L 147.405625 56.249072 
L 147.405625 54.430515 
L 148.927443 54.430515 
L 148.927443 53.910928 
L 150.449261 53.910928 
L 150.449261 53.39134 
L 151.97108 53.39134 
L 151.97108 68.719175 
L 153.492898 68.719175 
L 153.492898 54.950103 
L 155.014716 54.950103 
L 155.014716 58.327423 
L 156.536534 58.327423 
L 156.536534 53.651134 
L 158.058352 53.651134 
L 158.058352 65.861443 
L 159.58017 65.861443 
L 159.58017 71.05732 
L 161.101989 71.05732 
L 161.101989 64.562474 
L 162.623807 64.562474 
L 162.623807 65.861443 
L 164.145625 65.861443 
L 164.145625 61.185155 
L 165.667443 61.185155 
L 165.667443 53.651134 
L 167.189261 53.651134 
L 167.189261 58.067629 
L 168.71108 58.067629 
L 168.71108 56.508866 
L 170.232898 56.508866 
L 170.232898 73.395464 
L 171.754716 73.395464 
L 171.754716 58.587216 
L 173.276534 58.587216 
L 173.276534 76.253196 
L 174.798352 76.253196 
L 174.798352 77.292371 
L 176.32017 77.292371 
L 176.32017 70.018144 
L 177.841989 70.018144 
L 177.841989 87.684124 
L 179.363807 87.684124 
L 179.363807 89.50268 
L 180.885625 89.50268 
L 180.885625 99.374845 
L 182.407443 99.374845 
L 182.407443 87.164536 
L 183.929261 87.164536 
L 183.929261 102.752165 
L 185.45108 102.752165 
L 185.45108 111.844948 
L 186.972898 111.844948 
L 186.972898 118.08 
L 188.494716 118.08 
L 188.494716 117.820206 
L 190.016534 117.820206 
L 190.016534 133.927423 
L 191.538352 133.927423 
L 191.538352 142.500619 
L 193.06017 142.500619 
L 193.06017 139.383093 
L 194.581989 139.383093 
L 194.581989 152.372784 
L 196.103807 152.372784 
L 196.103807 151.333608 
L 197.625625 151.333608 
L 197.625625 154.451134 
L 199.147443 154.451134 
L 199.147443 156.529485 
L 200.669261 156.529485 
L 200.669261 156.789278 
L 202.19108 156.789278 
L 202.19108 146.397526 
L 203.712898 146.397526 
L 203.712898 142.500619 
L 205.234716 142.500619 
L 205.234716 146.65732 
L 206.756534 146.65732 
L 206.756534 132.108866 
L 208.278352 132.108866 
L 208.278352 128.471753 
L 209.80017 128.471753 
L 209.80017 119.119175 
L 211.321989 119.119175 
L 211.321989 118.599588 
L 212.843807 118.599588 
L 212.843807 117.040825 
L 214.365625 117.040825 
L 214.365625 103.531546 
L 215.887443 103.531546 
L 215.887443 102.492371 
L 217.409261 102.492371 
L 217.409261 96.776907 
L 218.93108 96.776907 
L 218.93108 88.203711 
L 220.452898 88.203711 
L 220.452898 88.983093 
L 221.974716 88.983093 
L 221.974716 83.007835 
L 223.496534 83.007835 
L 223.496534 72.616082 
L 225.018352 72.616082 
L 225.018352 77.552165 
L 226.54017 77.552165 
L 226.54017 86.385155 
L 228.061989 86.385155 
L 228.061989 69.498557 
L 229.583807 69.498557 
L 229.583807 54.690309 
L 231.105625 54.690309 
L 231.105625 65.341856 
L 232.627443 65.341856 
L 232.627443 48.974845 
L 234.149261 48.974845 
L 234.149261 52.352165 
L 235.67108 52.352165 
L 235.67108 43.259381 
L 237.192898 43.259381 
L 237.192898 51.572784 
L 238.714716 51.572784 
L 238.714716 51.31299 
L 240.236534 51.31299 
L 240.236534 52.352165 
L 241.758352 52.352165 
L 241.758352 51.832577 
L 243.28017 51.832577 
L 243.28017 63.003711 
L 244.801989 63.003711 
L 244.801989 65.341856 
L 246.323807 65.341856 
L 246.323807 54.430515 
L 247.845625 54.430515 
L 247.845625 63.783093 
L 249.367443 63.783093 
L 249.367443 57.288247 
L 250.889261 57.288247 
L 250.889261 68.978969 
L 252.41108 68.978969 
L 252.41108 61.704742 
L 253.932898 61.704742 
L 253.932898 76.772784 
L 255.454716 76.772784 
L 255.454716 75.473814 
L 256.976534 75.473814 
L 256.976534 85.345979 
L 258.498352 85.345979 
L 258.498352 75.993402 
L 260.02017 75.993402 
L 260.02017 89.50268 
L 261.541989 89.50268 
L 261.541989 88.463505 
L 263.063807 88.463505 
L 263.063807 94.698557 
L 264.585625 94.698557 
L 264.585625 84.566598 
L 266.107443 84.566598 
L 266.107443 81.96866 
L 267.629261 81.96866 
L 267.629261 96.517113 
L 269.15108 96.517113 
L 269.15108 91.061443 
L 270.672898 91.061443 
L 270.672898 80.409897 
L 272.194716 80.409897 
L 272.194716 92.88 
L 273.716534 92.88 
L 273.716534 103.79134 
L 275.238352 103.79134 
L 275.238352 100.414021 
L 276.76017 100.414021 
L 276.76017 102.492371 
L 278.281989 102.492371 
L 278.281989 101.71299 
L 279.803807 101.71299 
L 279.803807 110.545979 
L 281.325625 110.545979 
L 281.325625 121.717113 
L 282.847443 121.717113 
L 282.847443 114.70268 
L 284.369261 114.70268 
L 284.369261 112.364536 
L 285.89108 112.364536 
L 285.89108 121.197526 
L 287.412898 121.197526 
L 287.412898 114.70268 
L 288.934716 114.70268 
L 288.934716 129.251134 
L 290.456534 129.251134 
L 290.456534 127.172784 
L 291.978352 127.172784 
L 291.978352 130.290309 
L 293.50017 130.290309 
L 293.50017 127.692371 
L 295.021989 127.692371 
L 295.021989 121.45732 
L 296.543807 121.45732 
L 296.543807 124.574845 
L 298.065625 124.574845 
L 298.065625 123.016082 
L 299.587443 123.016082 
L 299.587443 130.030515 
L 301.109261 130.030515 
L 301.109261 137.564536 
L 302.63108 137.564536 
L 302.63108 136.785155 
L 304.152898 136.785155 
L 304.152898 136.525361 
L 305.674716 136.525361 
L 305.674716 131.849072 
L 307.196534 131.849072 
L 307.196534 142.500619 
L 308.718352 142.500619 
L 308.718352 151.073814 
L 310.24017 151.073814 
L 310.24017 136.785155 
L 311.761989 136.785155 
L 311.761989 148.995464 
L 313.283807 148.995464 
L 313.283807 147.176907 
L 314.805625 147.176907 
L 314.805625 147.436701 
L 316.327443 147.436701 
L 316.327443 157.56866 
L 317.849261 157.56866 
L 317.849261 161.985155 
L 319.37108 161.985155 
L 319.37108 159.127423 
L 320.892898 159.127423 
L 320.892898 155.230515 
L 322.414716 155.230515 
L 322.414716 164.323299 
L 323.936534 164.323299 
L 323.936534 165.882062 
L 325.458352 165.882062 
L 325.458352 168.48 
L 326.98017 168.48 
L 326.98017 171.85732 
L 328.501989 171.85732 
L 328.501989 178.871753 
L 330.023807 178.871753 
L 330.023807 181.469691 
L 331.545625 181.469691 
L 331.545625 180.170722 
L 333.067443 180.170722 
L 333.067443 187.185155 
L 334.589261 187.185155 
L 334.589261 189.523299 
L 336.11108 189.523299 
L 336.11108 191.082062 
L 337.632898 191.082062 
L 337.632898 189.783093 
L 339.154716 189.783093 
L 339.154716 197.836701 
L 340.676534 197.836701 
L 340.676534 206.409897 
L 342.198352 206.409897 
L 342.198352 201.473814 
L 343.72017 201.473814 
L 343.72017 203.032577 
L 345.241989 203.032577 
L 345.241989 209.527423 
L 346.763807 209.527423 
L 346.763807 206.409897 
L 348.285625 206.409897 
L 348.285625 212.385155 
L 349.807443 212.385155 
L 349.807443 212.125361 
L 351.329261 212.125361 
L 351.329261 214.983093 
L 352.85108 214.983093 
L 352.85108 216.801649 
L 354.372898 216.801649 
L 354.372898 217.581031 
L 355.894716 217.581031 
L 355.894716 217.321237 
L 357.416534 217.321237 
L 357.416534 218.360412 
L 358.938352 218.360412 
L 358.938352 218.620206 
L 360.46017 218.620206 
L 360.46017 218.88 
L 366.547443 218.88 
L 366.547443 218.88 
" clip-path="url(#pdf8f71c16b)" style="fill: none; stroke: #ff7f0e; stroke-width: 1.5; stroke-linecap: square"/>
   </g>
   <g id="patch_3">
    <path d="M 46.965625 228.96 
L 46.965625 7.2 
" style="fill: none; stroke: #000000; stroke-width: 0.8; stroke-linejoin: miter; stroke-linecap: square"/>
   </g>
   <g id="patch_4">
    <path d="M 381.765625 228.96 
L 381.765625 7.2 
" style="fill: none; stroke: #000000; stroke-width: 0.8; stroke-linejoin: miter; stroke-linecap: square"/>
   </g>
   <g id="patch_5">
    <path d="M 46.965625 228.96 
L 381.765625 228.96 
" style="fill: none; stroke: #000000; stroke-width: 0.8; stroke-linejoin: miter; stroke-linecap: square"/>
   </g>
   <g id="patch_6">
    <path d="M 46.965625 7.2 
L 381.765625 7.2 
" style="fill: none; stroke: #000000; stroke-width: 0.8; stroke-linejoin: miter; stroke-linecap: square"/>
   </g>
   <g id="legend_1">
    <g id="patch_7">
     <path d="M 277.7625 44.834375 
L 374.765625 44.834375 
Q 376.765625 44.834375 376.765625 42.834375 
L 376.765625 14.2 
Q 376.765625 12.2 374.765625 12.2 
L 277.7625 12.2 
Q 275.7625 12.2 275.7625 14.2 
L 275.7625 42.834375 
Q 275.7625 44.834375 277.7625 44.834375 
z
" style="fill: #ffffff; opacity: 0.8; stroke: #cccccc; stroke-linejoin: miter"/>
    </g>
    <g id="line2d_20">
     <path d="M 279.7625 20.298437 
L 279.7625 20.298437 
L 289.7625 20.298437 
L 289.7625 20.298437 
L 299.7625 20.298437 
" style="fill: none; stroke: #1f77b4; stroke-width: 1.5; stroke-linecap: square"/>
    </g>
    <g id="text_20">
     <!-- wfm -->
     <g transform="translate(307.7625 23.798437) scale(0.1 -0.1)">
      <defs>
       <path id="DejaVuSans-66" d="M 2375 4863 
L 2375 4384 
L 1825 4384 
Q 1516 4384 1395 4259 
Q 1275 4134 1275 3809 
L 1275 3500 
L 2222 3500 
L 2222 3053 
L 1275 3053 
L 1275 0 
L 697 0 
L 697 3053 
L 147 3053 
L 147 3500 
L 697 3500 
L 697 3744 
Q 697 4328 969 4595 
Q 1241 4863 1831 4863 
L 2375 4863 
z
" transform="scale(0.015625)"/>
       <path id="DejaVuSans-6d" d="M 3328 2828 
Q 3544 3216 3844 3400 
Q 4144 3584 4550 3584 
Q 5097 3584 5394 3201 
Q 5691 2819 5691 2113 
L 5691 0 
L 5113 0 
L 5113 2094 
Q 5113 2597 4934 2840 
Q 4756 3084 4391 3084 
Q 3944 3084 3684 2787 
Q 3425 2491 3425 1978 
L 3425 0 
L 2847 0 
L 2847 2094 
Q 2847 2600 2669 2842 
Q 2491 3084 2119 3084 
Q 1678 3084 1418 2786 
Q 1159 2488 1159 1978 
L 1159 0 
L 581 0 
L 581 3500 
L 1159 3500 
L 1159 2956 
Q 1356 3278 1631 3431 
Q 1906 3584 2284 3584 
Q 2666 3584 2933 3390 
Q 3200 3197 3328 2828 
z
" transform="scale(0.015625)"/>
      </defs>
      <use xlink:href="#DejaVuSans-77"/>
      <use xlink:href="#DejaVuSans-66" transform="translate(81.787109 0)"/>
      <use xlink:href="#DejaVuSans-6d" transform="translate(116.992188 0)"/>
     </g>
    </g>
    <g id="line2d_21">
     <path d="M 279.7625 34.976562 
L 279.7625 34.976562 
L 289.7625 34.976562 
L 289.7625 34.976562 
L 299.7625 34.976562 
" style="fill: none; stroke: #ff7f0e; stroke-width: 1.5; stroke-linecap: square"/>
    </g>
    <g id="text_21">
     <!-- ground_truth -->
     <g transform="translate(307.7625 38.476562) scale(0.1 -0.1)">
      <defs>
       <path id="DejaVuSans-72" d="M 2631 2963 
Q 2534 3019 2420 3045 
Q 2306 3072 2169 3072 
Q 1681 3072 1420 2755 
Q 1159 2438 1159 1844 
L 1159 0 
L 581 0 
L 581 3500 
L 1159 3500 
L 1159 2956 
Q 1341 3275 1631 3429 
Q 1922 3584 2338 3584 
Q 2397 3584 2469 3576 
Q 2541 3569 2628 3553 
L 2631 2963 
z
" transform="scale(0.015625)"/>
       <path id="DejaVuSans-64" d="M 2906 2969 
L 2906 4863 
L 3481 4863 
L 3481 0 
L 2906 0 
L 2906 525 
Q 2725 213 2448 61 
Q 2172 -91 1784 -91 
Q 1150 -91 751 415 
Q 353 922 353 1747 
Q 353 2572 751 3078 
Q 1150 3584 1784 3584 
Q 2172 3584 2448 3432 
Q 2725 3281 2906 2969 
z
M 947 1747 
Q 947 1113 1208 752 
Q 1469 391 1925 391 
Q 2381 391 2643 752 
Q 2906 1113 2906 1747 
Q 2906 2381 2643 2742 
Q 2381 3103 1925 3103 
Q 1469 3103 1208 2742 
Q 947 2381 947 1747 
z
" transform="scale(0.015625)"/>
       <path id="DejaVuSans-5f" d="M 3263 -1063 
L 3263 -1509 
L -63 -1509 
L -63 -1063 
L 3263 -1063 
z
" transform="scale(0.015625)"/>
      </defs>
      <use xlink:href="#DejaVuSans-67"/>
      <use xlink:href="#DejaVuSans-72" transform="translate(63.476562 0)"/>
      <use xlink:href="#DejaVuSans-6f" transform="translate(102.339844 0)"/>
      <use xlink:href="#DejaVuSans-75" transform="translate(163.521484 0)"/>
      <use xlink:href="#DejaVuSans-6e" transform="translate(226.900391 0)"/>
      <use xlink:href="#DejaVuSans-64" transform="translate(290.279297 0)"/>
      <use xlink:href="#DejaVuSans-5f" transform="translate(353.755859 0)"/>
      <use xlink:href="#DejaVuSans-74" transform="translate(403.755859 0)"/>
      <use xlink:href="#DejaVuSans-72" transform="translate(442.964844 0)"/>
      <use xlink:href="#DejaVuSans-75" transform="translate(484.078125 0)"/>
      <use xlink:href="#DejaVuSans-74" transform="translate(547.457031 0)"/>
      <use xlink:href="#DejaVuSans-68" transform="translate(586.666016 0)"/>
     </g>
    </g>
   </g>
  </g>
 </g>
 <defs>
  <clipPath id="pdf8f71c16b">
   <rect x="46.965625" y="7.2" width="334.8" height="221.76"/>
  </clipPath>
 </defs>
</svg>
