<?xml version="1.0" encoding="utf-8" standalone="no"?>
<!DOCTYPE svg PUBLIC "-//W3C//DTD SVG 1.1//EN"
  "http://www.w3.org/Graphics/SVG/1.1/DTD/svg11.dtd">
<svg xmlns:xlink="http://www.w3.org/1999/xlink" width="395.328125pt" height="268.200625pt" viewBox="0 0 395.328125 268.200625" xmlns="http://www.w3.org/2000/svg" version="1.1">
 <metadata>
  <rdf:RDF xmlns:dc="http://purl.org/dc/elements/1.1/" xmlns:cc="http://creativecommons.org/ns#" xmlns:rdf="http://www.w3.org/1999/02/22-rdf-syntax-ns#">
   <cc:Work>
    <dc:type rdf:resource="http://purl.org/dc/dcmitype/StillImage"/>
    <dc:date>2026-02-24T15:05:25.922369</dc:date>
    <dc:format>image/svg+xml</dc:format>
    <dc:creator>
     <cc:Agent>
      <dc:title>Matplotlib v3.10.8, https://matplotlib.org/</dc:title>
     </cc:Agent>
    </dc:creator>
   </cc:Work>
  </rdf:RDF>
 </metadata>
 <defs>
  <style type="text/css">*{stroke-linejoin: round; stroke-linecap: butt}</style>
 </defs>
 <g id="figure_1">
  <g id="patch_1">
   <path d="M 0 268.200625 
L 395.328125 268.200625 
L 395.328125 0 
L 0 0 
z
" style="fill: #ffffff"/>
  </g>
  <g id="axes_1">
   <g id="patch_2">
    <path d="M 53.328125 228.96 
L 388.128125 228.96 
L 388.128125 7.2 
L 53.328125 7.2 
z
" style="fill: #ffffff"/>
   </g>
   <g id="matplotlib.axis_1">
    <g id="xtick_1">
     <g id="line2d_1">
      <defs>
       <path id="m4ed1ec6966" d="M 0 0 
L 0 3.5 
" style="stroke: #000000; stroke-width: 0.8"/>
      </defs>
      <g>
       <use xlink:href="#m4ed1ec6966" x="68.546307" y="228.96" style="stroke: #000000; stroke-width: 0.8"/>
      </g>
     </g>
     <g id="text_1">
      <!-- 1 -->
      <g transform="translate(65.365057 243.558437) scale(0.1 -0.1)">
       <defs>
        <path id="DejaVuSans-31" d="M 794 531 
L 1825 531 
L 1825 4091 
L 703 3866 
L 703 4441 
L 1819 4666 
L 2450 4666 
L 2450 531 
L 3481 531 
L 3481 0 
L 794 0 
L 794 531 
z
" transform="scale(0.015625)"/>
       </defs>
       <use xlink:href="#DejaVuSans-31"/>
      </g>
     </g>
    </g>
    <g id="xtick_2">
     <g id="line2d_2">
      <g>
       <use xlink:href="#m4ed1ec6966" x="112.026826" y="228.96" style="stroke: #000000; stroke-width: 0.8"/>
      </g>
     </g>
     <g id="text_2">
      <!-- 2 -->
      <g transform="translate(108.845576 243.558437) scale(0.1 -0.1)">
       <defs>
        <path id="DejaVuSans-32" d="M 1228 531 
L 3431 531 
L 3431 0 
L 469 0 
L 469 531 
Q 828 903 1448 1529 
Q 2069 2156 2228 2338 
Q 2531 2678 2651 2914 
Q 2772 3150 2772 3378 
Q 2772 3750 2511 3984 
Q 2250 4219 1831 4219 
Q 1534 4219 1204 4116 
Q 875 4013 500 3803 
L 500 4441 
Q 881 4594 1212 4672 
Q 1544 4750 1819 4750 
Q 2544 4750 2975 4387 
Q 3406 4025 3406 3419 
Q 3406 3131 3298 2873 
Q 3191 2616 2906 2266 
Q 2828 2175 2409 1742 
Q 1991 1309 1228 531 
z
" transform="scale(0.015625)"/>
       </defs>
       <use xlink:href="#DejaVuSans-32"/>
      </g>
     </g>
    </g>
    <g id="xtick_3">
     <g id="line2d_3">
      <g>
       <use xlink:href="#m4ed1ec6966" x="155.507346" y="228.96" style="stroke: #000000; stroke-width: 0.8"/>
      </g>
     </g>
     <g id="text_3">
      <!-- 3 -->
      <g transform="translate(152.326096 243.558437) scale(0.1 -0.1)">
       <defs>
        <path id="DejaVuSans-33" d="M 2597 2516 
Q 3050 2419 3304 2112 
Q 3559 1806 3559 1356 
Q 3559 666 3084 287 
Q 2609 -91 1734 -91 
Q 1441 -91 1130 -33 
Q 819 25 488 141 
L 488 750 
Q 750 597 1062 519 
Q 1375 441 1716 441 
Q 2309 441 2620 675 
Q 2931 909 2931 1356 
Q 2931 1769 2642 2001 
Q 2353 2234 1838 2234 
L 1294 2234 
L 1294 2753 
L 1863 2753 
Q 2328 2753 2575 2939 
Q 2822 3125 2822 3475 
Q 2822 3834 2567 4026 
Q 2313 4219 1838 4219 
Q 1578 4219 1281 4162 
Q 984 4106 628 3988 
L 628 4550 
Q 988 4650 1302 4700 
Q 1616 4750 1894 4750 
Q 2613 4750 3031 4423 
Q 3450 4097 3450 3541 
Q 3450 3153 3228 2886 
Q 3006 2619 2597 2516 
z
" transform="scale(0.015625)"/>
       </defs>
       <use xlink:href="#DejaVuSans-33"/>
      </g>
     </g>
    </g>
    <g id="xtick_4">
     <g id="line2d_4">
      <g>
       <use xlink:href="#m4ed1ec6966" x="198.987865" y="228.96" style="stroke: #000000; stroke-width: 0.8"/>
      </g>
     </g>
     <g id="text_4">
      <!-- 4 -->
      <g transform="translate(195.806615 243.558437) scale(0.1 -0.1)">
       <defs>
        <path id="DejaVuSans-34" d="M 2419 4116 
L 825 1625 
L 2419 1625 
L 2419 4116 
z
M 2253 4666 
L 3047 4666 
L 3047 1625 
L 3713 1625 
L 3713 1100 
L 3047 1100 
L 3047 0 
L 2419 0 
L 2419 1100 
L 313 1100 
L 313 1709 
L 2253 4666 
z
" transform="scale(0.015625)"/>
       </defs>
       <use xlink:href="#DejaVuSans-34"/>
      </g>
     </g>
    </g>
    <g id="xtick_5">
     <g id="line2d_5">
      <g>
       <use xlink:href="#m4ed1ec6966" x="242.468385" y="228.96" style="stroke: #000000; stroke-width: 0.8"/>
      </g>
     </g>
     <g id="text_5">
      <!-- 5 -->
      <g transform="translate(239.287135 243.558437) scale(0.1 -0.1)">
       <defs>
        <path id="DejaVuSans-35" d="M 691 4666 
L 3169 4666 
L 3169 4134 
L 1269 4134 
L 1269 2991 
Q 1406 3038 1543 3061 
Q 1681 3084 1819 3084 
Q 2600 3084 3056 2656 
Q 3513 2228 3513 1497 
Q 3513 744 3044 326 
Q 2575 -91 1722 -91 
Q 1428 -91 1123 -41 
Q 819 9 494 109 
L 494 744 
Q 775 591 1075 516 
Q 1375 441 1709 441 
Q 2250 441 2565 725 
Q 2881 1009 2881 1497 
Q 2881 1984 2565 2268 
Q 2250 2553 1709 2553 
Q 1456 2553 1204 2497 
Q 953 2441 691 2322 
L 691 4666 
z
" transform="scale(0.015625)"/>
       </defs>
       <use xlink:href="#DejaVuSans-35"/>
      </g>
     </g>
    </g>
    <g id="xtick_6">
     <g id="line2d_6">
      <g>
       <use xlink:href="#m4ed1ec6966" x="285.948904" y="228.96" style="stroke: #000000; stroke-width: 0.8"/>
      </g>
     </g>
     <g id="text_6">
      <!-- 6 -->
      <g transform="translate(282.767654 243.558437) scale(0.1 -0.1)">
       <defs>
        <path id="DejaVuSans-36" d="M 2113 2584 
Q 1688 2584 1439 2293 
Q 1191 2003 1191 1497 
Q 1191 994 1439 701 
Q 1688 409 2113 409 
Q 2538 409 2786 701 
Q 3034 994 3034 1497 
Q 3034 2003 2786 2293 
Q 2538 2584 2113 2584 
z
M 3366 4563 
L 3366 3988 
Q 3128 4100 2886 4159 
Q 2644 4219 2406 4219 
Q 1781 4219 1451 3797 
Q 1122 3375 1075 2522 
Q 1259 2794 1537 2939 
Q 1816 3084 2150 3084 
Q 2853 3084 3261 2657 
Q 3669 2231 3669 1497 
Q 3669 778 3244 343 
Q 2819 -91 2113 -91 
Q 1303 -91 875 529 
Q 447 1150 447 2328 
Q 447 3434 972 4092 
Q 1497 4750 2381 4750 
Q 2619 4750 2861 4703 
Q 3103 4656 3366 4563 
z
" transform="scale(0.015625)"/>
       </defs>
       <use xlink:href="#DejaVuSans-36"/>
      </g>
     </g>
    </g>
    <g id="xtick_7">
     <g id="line2d_7">
      <g>
       <use xlink:href="#m4ed1ec6966" x="329.429424" y="228.96" style="stroke: #000000; stroke-width: 0.8"/>
      </g>
     </g>
     <g id="text_7">
      <!-- 7 -->
      <g transform="translate(326.248174 243.558437) scale(0.1 -0.1)">
       <defs>
        <path id="DejaVuSans-37" d="M 525 4666 
L 3525 4666 
L 3525 4397 
L 1831 0 
L 1172 0 
L 2766 4134 
L 525 4134 
L 525 4666 
z
" transform="scale(0.015625)"/>
       </defs>
       <use xlink:href="#DejaVuSans-37"/>
      </g>
     </g>
    </g>
    <g id="xtick_8">
     <g id="line2d_8">
      <g>
       <use xlink:href="#m4ed1ec6966" x="372.909943" y="228.96" style="stroke: #000000; stroke-width: 0.8"/>
      </g>
     </g>
     <g id="text_8">
      <!-- 8 -->
      <g transform="translate(369.728693 243.558437) scale(0.1 -0.1)">
       <defs>
        <path id="DejaVuSans-38" d="M 2034 2216 
Q 1584 2216 1326 1975 
Q 1069 1734 1069 1313 
Q 1069 891 1326 650 
Q 1584 409 2034 409 
Q 2484 409 2743 651 
Q 3003 894 3003 1313 
Q 3003 1734 2745 1975 
Q 2488 2216 2034 2216 
z
M 1403 2484 
Q 997 2584 770 2862 
Q 544 3141 544 3541 
Q 544 4100 942 4425 
Q 1341 4750 2034 4750 
Q 2731 4750 3128 4425 
Q 3525 4100 3525 3541 
Q 3525 3141 3298 2862 
Q 3072 2584 2669 2484 
Q 3125 2378 3379 2068 
Q 3634 1759 3634 1313 
Q 3634 634 3220 271 
Q 2806 -91 2034 -91 
Q 1263 -91 848 271 
Q 434 634 434 1313 
Q 434 1759 690 2068 
Q 947 2378 1403 2484 
z
M 1172 3481 
Q 1172 3119 1398 2916 
Q 1625 2713 2034 2713 
Q 2441 2713 2670 2916 
Q 2900 3119 2900 3481 
Q 2900 3844 2670 4047 
Q 2441 4250 2034 4250 
Q 1625 4250 1398 4047 
Q 1172 3844 1172 3481 
z
" transform="scale(0.015625)"/>
       </defs>
       <use xlink:href="#DejaVuSans-38"/>
      </g>
     </g>
    </g>
    <g id="text_9">
     <!-- wavelength [Å] -->
     <g transform="translate(182.690625 258.920937) scale(0.1 -0.1)">
      <defs>
       <path id="DejaVuSans-77" d="M 269 3500 
L 844 3500 
L 1563 769 
L 2278 3500 
L 2956 3500 
L 3675 769 
L 4391 3500 
L 4966 3500 
L 4050 0 
L 3372 0 
L 2619 2869 
L 1863 0 
L 1184 0 
L 269 3500 
z
" transform="scale(0.015625)"/>
       <path id="DejaVuSans-61" d="M 2194 1759 
Q 1497 1759 1228 1600 
Q 959 1441 959 1056 
Q 959 750 1161 570 
Q 1363 391 1709 391 
Q 2188 391 2477 730 
Q 2766 1069 2766 1631 
L 2766 1759 
L 2194 1759 
z
M 3341 1997 
L 3341 0 
L 2766 0 
L 2766 531 
Q 2569 213 2275 61 
Q 1981 -91 1556 -91 
Q 1019 -91 701 211 
Q 384 513 384 1019 
Q 384 1609 779 1909 
Q 1175 2209 1959 2209 
L 2766 2209 
L 2766 2266 
Q 2766 2663 2505 2880 
Q 2244 3097 1772 3097 
Q 1472 3097 1187 3025 
Q 903 2953 641 2809 
L 641 3341 
Q 956 3463 1253 3523 
Q 1550 3584 1831 3584 
Q 2591 3584 2966 3190 
Q 3341 2797 3341 1997 
z
" transform="scale(0.015625)"/>
       <path id="DejaVuSans-76" d="M 191 3500 
L 800 3500 
L 1894 563 
L 2988 3500 
L 3597 3500 
L 2284 0 
L 1503 0 
L 191 3500 
z
" transform="scale(0.015625)"/>
       <path id="DejaVuSans-65" d="M 3597 1894 
L 3597 1613 
L 953 1613 
Q 991 1019 1311 708 
Q 1631 397 2203 397 
Q 2534 397 2845 478 
Q 3156 559 3463 722 
L 3463 178 
Q 3153 47 2828 -22 
Q 2503 -91 2169 -91 
Q 1331 -91 842 396 
Q 353 884 353 1716 
Q 353 2575 817 3079 
Q 1281 3584 2069 3584 
Q 2775 3584 3186 3129 
Q 3597 2675 3597 1894 
z
M 3022 2063 
Q 3016 2534 2758 2815 
Q 2500 3097 2075 3097 
Q 1594 3097 1305 2825 
Q 1016 2553 972 2059 
L 3022 2063 
z
" transform="scale(0.015625)"/>
       <path id="DejaVuSans-6c" d="M 603 4863 
L 1178 4863 
L 1178 0 
L 603 0 
L 603 4863 
z
" transform="scale(0.015625)"/>
       <path id="DejaVuSans-6e" d="M 3513 2113 
L 3513 0 
L 2938 0 
L 2938 2094 
Q 2938 2591 2744 2837 
Q 2550 3084 2163 3084 
Q 1697 3084 1428 2787 
Q 1159 2491 1159 1978 
L 1159 0 
L 581 0 
L 581 3500 
L 1159 3500 
L 1159 2956 
Q 1366 3272 1645 3428 
Q 1925 3584 2291 3584 
Q 2894 3584 3203 3211 
Q 3513 2838 3513 2113 
z
" transform="scale(0.015625)"/>
       <path id="DejaVuSans-67" d="M 2906 1791 
Q 2906 2416 2648 2759 
Q 2391 3103 1925 3103 
Q 1463 3103 1205 2759 
Q 947 2416 947 1791 
Q 947 1169 1205 825 
Q 1463 481 1925 481 
Q 2391 481 2648 825 
Q 2906 1169 2906 1791 
z
M 3481 434 
Q 3481 -459 3084 -895 
Q 2688 -1331 1869 -1331 
Q 1566 -1331 1297 -1286 
Q 1028 -1241 775 -1147 
L 775 -588 
Q 1028 -725 1275 -790 
Q 1522 -856 1778 -856 
Q 2344 -856 2625 -561 
Q 2906 -266 2906 331 
L 2906 616 
Q 2728 306 2450 153 
Q 2172 0 1784 0 
Q 1141 0 747 490 
Q 353 981 353 1791 
Q 353 2603 747 3093 
Q 1141 3584 1784 3584 
Q 2172 3584 2450 3431 
Q 2728 3278 2906 2969 
L 2906 3500 
L 3481 3500 
L 3481 434 
z
" transform="scale(0.015625)"/>
       <path id="DejaVuSans-74" d="M 1172 4494 
L 1172 3500 
L 2356 3500 
L 2356 3053 
L 1172 3053 
L 1172 1153 
Q 1172 725 1289 603 
Q 1406 481 1766 481 
L 2356 481 
L 2356 0 
L 1766 0 
Q 1100 0 847 248 
Q 594 497 594 1153 
L 594 3053 
L 172 3053 
L 172 3500 
L 594 3500 
L 594 4494 
L 1172 4494 
z
" transform="scale(0.015625)"/>
       <path id="DejaVuSans-68" d="M 3513 2113 
L 3513 0 
L 2938 0 
L 2938 2094 
Q 2938 2591 2744 2837 
Q 2550 3084 2163 3084 
Q 1697 3084 1428 2787 
Q 1159 2491 1159 1978 
L 1159 0 
L 581 0 
L 581 4863 
L 1159 4863 
L 1159 2956 
Q 1366 3272 1645 3428 
Q 1925 3584 2291 3584 
Q 2894 3584 3203 3211 
Q 3513 2838 3513 2113 
z
" transform="scale(0.015625)"/>
       <path id="DejaVuSans-20" transform="scale(0.015625)"/>
       <path id="DejaVuSans-5b" d="M 550 4863 
L 1875 4863 
L 1875 4416 
L 1125 4416 
L 1125 -397 
L 1875 -397 
L 1875 -844 
L 550 -844 
L 550 4863 
z
" transform="scale(0.015625)"/>
       <path id="DejaVuSans-c5" d="M 2663 5081 
Q 2663 5278 2523 5417 
Q 2384 5556 2188 5556 
Q 1988 5556 1852 5420 
Q 1716 5284 1716 5081 
Q 1716 4884 1853 4746 
Q 1991 4609 2188 4609 
Q 2384 4609 2523 4746 
Q 2663 4884 2663 5081 
z
M 2188 4044 
L 1338 1722 
L 3041 1722 
L 2188 4044 
z
M 1716 4366 
Q 1525 4494 1428 4673 
Q 1331 4853 1331 5081 
Q 1331 5441 1579 5691 
Q 1828 5941 2188 5941 
Q 2544 5941 2795 5689 
Q 3047 5438 3047 5081 
Q 3047 4863 2948 4678 
Q 2850 4494 2663 4366 
L 4325 0 
L 3669 0 
L 3244 1197 
L 1141 1197 
L 716 0 
L 50 0 
L 1716 4366 
z
" transform="scale(0.015625)"/>
       <path id="DejaVuSans-5d" d="M 1947 4863 
L 1947 -844 
L 622 -844 
L 622 -397 
L 1369 -397 
L 1369 4416 
L 622 4416 
L 622 4863 
L 1947 4863 
z
" transform="scale(0.015625)"/>
      </defs>
      <use xlink:href="#DejaVuSans-77"/>
      <use xlink:href="#DejaVuSans-61" transform="translate(81.787109 0)"/>
      <use xlink:href="#DejaVuSans-76" transform="translate(143.066406 0)"/>
      <use xlink:href="#DejaVuSans-65" transform="translate(202.246094 0)"/>
      <use xlink:href="#DejaVuSans-6c" transform="translate(263.769531 0)"/>
      <use xlink:href="#DejaVuSans-65" transform="translate(291.552734 0)"/>
      <use xlink:href="#DejaVuSans-6e" transform="translate(353.076172 0)"/>
      <use xlink:href="#DejaVuSans-67" transform="translate(416.455078 0)"/>
      <use xlink:href="#DejaVuSans-74" transform="translate(479.931641 0)"/>
      <use xlink:href="#DejaVuSans-68" transform="translate(519.140625 0)"/>
      <use xlink:href="#DejaVuSans-20" transform="translate(582.519531 0)"/>
      <use xlink:href="#DejaVuSans-5b" transform="translate(614.306641 0)"/>
      <use xlink:href="#DejaVuSans-c5" transform="translate(653.320312 0)"/>
      <use xlink:href="#DejaVuSans-5d" transform="translate(721.728516 0)"/>
     </g>
    </g>
   </g>
   <g id="matplotlib.axis_2">
    <g id="ytick_1">
     <g id="line2d_9">
      <defs>
       <path id="mdade24961a" d="M 0 0 
L -3.5 0 
" style="stroke: #000000; stroke-width: 0.8"/>
      </defs>
      <g>
       <use xlink:href="#mdade24961a" x="53.328125" y="218.88" style="stroke: #000000; stroke-width: 0.8"/>
      </g>
     </g>
     <g id="text_10">
      <!-- 0 -->
      <g transform="translate(39.965625 222.679219) scale(0.1 -0.1)">
       <defs>
        <path id="DejaVuSans-30" d="M 2034 4250 
Q 1547 4250 1301 3770 
Q 1056 3291 1056 2328 
Q 1056 1369 1301 889 
Q 1547 409 2034 409 
Q 2525 409 2770 889 
Q 3016 1369 3016 2328 
Q 3016 3291 2770 3770 
Q 2525 4250 2034 4250 
z
M 2034 4750 
Q 2819 4750 3233 4129 
Q 3647 3509 3647 2328 
Q 3647 1150 3233 529 
Q 2819 -91 2034 -91 
Q 1250 -91 836 529 
Q 422 1150 422 2328 
Q 422 3509 836 4129 
Q 1250 4750 2034 4750 
z
" transform="scale(0.015625)"/>
       </defs>
       <use xlink:href="#DejaVuSans-30"/>
      </g>
     </g>
    </g>
    <g id="ytick_2">
     <g id="line2d_10">
      <g>
       <use xlink:href="#mdade24961a" x="53.328125" y="190.227356" style="stroke: #000000; stroke-width: 0.8"/>
      </g>
     </g>
     <g id="text_11">
      <!-- 1000 -->
      <g transform="translate(20.878125 194.026575) scale(0.1 -0.1)">
       <use xlink:href="#DejaVuSans-31"/>
       <use xlink:href="#DejaVuSans-30" transform="translate(63.623047 0)"/>
       <use xlink:href="#DejaVuSans-30" transform="translate(127.246094 0)"/>
       <use xlink:href="#DejaVuSans-30" transform="translate(190.869141 0)"/>
      </g>
     </g>
    </g>
    <g id="ytick_3">
     <g id="line2d_11">
      <g>
       <use xlink:href="#mdade24961a" x="53.328125" y="161.574713" style="stroke: #000000; stroke-width: 0.8"/>
      </g>
     </g>
     <g id="text_12">
      <!-- 2000 -->
      <g transform="translate(20.878125 165.373932) scale(0.1 -0.1)">
       <use xlink:href="#DejaVuSans-32"/>
       <use xlink:href="#DejaVuSans-30" transform="translate(63.623047 0)"/>
       <use xlink:href="#DejaVuSans-30" transform="translate(127.246094 0)"/>
       <use xlink:href="#DejaVuSans-30" transform="translate(190.869141 0)"/>
      </g>
     </g>
    </g>
    <g id="ytick_4">
     <g id="line2d_12">
      <g>
       <use xlink:href="#mdade24961a" x="53.328125" y="132.922069" style="stroke: #000000; stroke-width: 0.8"/>
      </g>
     </g>
     <g id="text_13">
      <!-- 3000 -->
      <g transform="translate(20.878125 136.721288) scale(0.1 -0.1)">
       <use xlink:href="#DejaVuSans-33"/>
       <use xlink:href="#DejaVuSans-30" transform="translate(63.623047 0)"/>
       <use xlink:href="#DejaVuSans-30" transform="translate(127.246094 0)"/>
       <use xlink:href="#DejaVuSans-30" transform="translate(190.869141 0)"/>
      </g>
     </g>
    </g>
    <g id="ytick_5">
     <g id="line2d_13">
      <g>
       <use xlink:href="#mdade24961a" x="53.328125" y="104.269426" style="stroke: #000000; stroke-width: 0.8"/>
      </g>
     </g>
     <g id="text_14">
      <!-- 4000 -->
      <g transform="translate(20.878125 108.068645) scale(0.1 -0.1)">
       <use xlink:href="#DejaVuSans-34"/>
       <use xlink:href="#DejaVuSans-30" transform="translate(63.623047 0)"/>
       <use xlink:href="#DejaVuSans-30" transform="translate(127.246094 0)"/>
       <use xlink:href="#DejaVuSans-30" transform="translate(190.869141 0)"/>
      </g>
     </g>
    </g>
    <g id="ytick_6">
     <g id="line2d_14">
      <g>
       <use xlink:href="#mdade24961a" x="53.328125" y="75.616782" style="stroke: #000000; stroke-width: 0.8"/>
      </g>
     </g>
     <g id="text_15">
      <!-- 5000 -->
      <g transform="translate(20.878125 79.416001) scale(0.1 -0.1)">
       <use xlink:href="#DejaVuSans-35"/>
       <use xlink:href="#DejaVuSans-30" transform="translate(63.623047 0)"/>
       <use xlink:href="#DejaVuSans-30" transform="translate(127.246094 0)"/>
       <use xlink:href="#DejaVuSans-30" transform="translate(190.869141 0)"/>
      </g>
     </g>
    </g>
    <g id="ytick_7">
     <g id="line2d_15">
      <g>
       <use xlink:href="#mdade24961a" x="53.328125" y="46.964139" style="stroke: #000000; stroke-width: 0.8"/>
      </g>
     </g>
     <g id="text_16">
      <!-- 6000 -->
      <g transform="translate(20.878125 50.763357) scale(0.1 -0.1)">
       <use xlink:href="#DejaVuSans-36"/>
       <use xlink:href="#DejaVuSans-30" transform="translate(63.623047 0)"/>
       <use xlink:href="#DejaVuSans-30" transform="translate(127.246094 0)"/>
       <use xlink:href="#DejaVuSans-30" transform="translate(190.869141 0)"/>
      </g>
     </g>
    </g>
    <g id="ytick_8">
     <g id="line2d_16">
      <g>
       <use xlink:href="#mdade24961a" x="53.328125" y="18.311495" style="stroke: #000000; stroke-width: 0.8"/>
      </g>
     </g>
     <g id="text_17">
      <!-- 7000 -->
      <g transform="translate(20.878125 22.110714) scale(0.1 -0.1)">
       <use xlink:href="#DejaVuSans-37"/>
       <use xlink:href="#DejaVuSans-30" transform="translate(63.623047 0)"/>
       <use xlink:href="#DejaVuSans-30" transform="translate(127.246094 0)"/>
       <use xlink:href="#DejaVuSans-30" transform="translate(190.869141 0)"/>
      </g>
     </g>
    </g>
    <g id="text_18">
     <!-- [counts] -->
     <g transform="translate(14.798438 138.6925) rotate(-90) scale(0.1 -0.1)">
      <defs>
       <path id="DejaVuSans-63" d="M 3122 3366 
L 3122 2828 
Q 2878 2963 2633 3030 
Q 2388 3097 2138 3097 
Q 1578 3097 1268 2742 
Q 959 2388 959 1747 
Q 959 1106 1268 751 
Q 1578 397 2138 397 
Q 2388 397 2633 464 
Q 2878 531 3122 666 
L 3122 134 
Q 2881 22 2623 -34 
Q 2366 -91 2075 -91 
Q 1284 -91 818 406 
Q 353 903 353 1747 
Q 353 2603 823 3093 
Q 1294 3584 2113 3584 
Q 2378 3584 2631 3529 
Q 2884 3475 3122 3366 
z
" transform="scale(0.015625)"/>
       <path id="DejaVuSans-6f" d="M 1959 3097 
Q 1497 3097 1228 2736 
Q 959 2375 959 1747 
Q 959 1119 1226 758 
Q 1494 397 1959 397 
Q 2419 397 2687 759 
Q 2956 1122 2956 1747 
Q 2956 2369 2687 2733 
Q 2419 3097 1959 3097 
z
M 1959 3584 
Q 2709 3584 3137 3096 
Q 3566 2609 3566 1747 
Q 3566 888 3137 398 
Q 2709 -91 1959 -91 
Q 1206 -91 779 398 
Q 353 888 353 1747 
Q 353 2609 779 3096 
Q 1206 3584 1959 3584 
z
" transform="scale(0.015625)"/>
       <path id="DejaVuSans-75" d="M 544 1381 
L 544 3500 
L 1119 3500 
L 1119 1403 
Q 1119 906 1312 657 
Q 1506 409 1894 409 
Q 2359 409 2629 706 
Q 2900 1003 2900 1516 
L 2900 3500 
L 3475 3500 
L 3475 0 
L 2900 0 
L 2900 538 
Q 2691 219 2414 64 
Q 2138 -91 1772 -91 
Q 1169 -91 856 284 
Q 544 659 544 1381 
z
M 1991 3584 
L 1991 3584 
z
" transform="scale(0.015625)"/>
       <path id="DejaVuSans-73" d="M 2834 3397 
L 2834 2853 
Q 2591 2978 2328 3040 
Q 2066 3103 1784 3103 
Q 1356 3103 1142 2972 
Q 928 2841 928 2578 
Q 928 2378 1081 2264 
Q 1234 2150 1697 2047 
L 1894 2003 
Q 2506 1872 2764 1633 
Q 3022 1394 3022 966 
Q 3022 478 2636 193 
Q 2250 -91 1575 -91 
Q 1294 -91 989 -36 
Q 684 19 347 128 
L 347 722 
Q 666 556 975 473 
Q 1284 391 1588 391 
Q 1994 391 2212 530 
Q 2431 669 2431 922 
Q 2431 1156 2273 1281 
Q 2116 1406 1581 1522 
L 1381 1569 
Q 847 1681 609 1914 
Q 372 2147 372 2553 
Q 372 3047 722 3315 
Q 1072 3584 1716 3584 
Q 2034 3584 2315 3537 
Q 2597 3491 2834 3397 
z
" transform="scale(0.015625)"/>
      </defs>
      <use xlink:href="#DejaVuSans-5b"/>
      <use xlink:href="#DejaVuSans-63" transform="translate(39.013672 0)"/>
      <use xlink:href="#DejaVuSans-6f" transform="translate(93.994141 0)"/>
      <use xlink:href="#DejaVuSans-75" transform="translate(155.175781 0)"/>
      <use xlink:href="#DejaVuSans-6e" transform="translate(218.554688 0)"/>
      <use xlink:href="#DejaVuSans-74" transform="translate(281.933594 0)"/>
      <use xlink:href="#DejaVuSans-73" transform="translate(321.142578 0)"/>
      <use xlink:href="#DejaVuSans-5d" transform="translate(373.242188 0)"/>
     </g>
    </g>
   </g>
   <g id="line2d_17">
    <path d="M 68.546307 218.88 
L 74.63358 218.822695 
L 74.63358 218.765389 
L 78.438125 218.736737 
L 78.438125 218.478863 
L 79.199034 218.478863 
L 79.199034 218.88 
L 79.959943 218.88 
L 79.959943 218.736737 
L 82.24267 218.679431 
L 82.24267 218.593474 
L 83.00358 218.593474 
L 83.00358 218.45021 
L 83.764489 218.45021 
L 83.764489 218.593474 
L 84.525398 218.593474 
L 84.525398 218.049073 
L 85.286307 218.049073 
L 85.286307 218.392905 
L 86.808125 218.3356 
L 86.808125 218.249642 
L 89.090852 218.3356 
L 89.090852 218.135031 
L 89.851761 218.135031 
L 89.851761 217.762547 
L 90.61267 217.762547 
L 90.61267 218.135031 
L 91.37358 218.135031 
L 91.37358 217.90581 
L 92.134489 217.90581 
L 92.134489 218.020421 
L 92.895398 218.020421 
L 92.895398 217.47602 
L 94.417216 217.418715 
L 94.417216 216.645094 
L 95.178125 216.645094 
L 95.178125 217.676589 
L 95.939034 217.676589 
L 95.939034 217.218147 
L 96.699943 217.218147 
L 96.699943 216.788357 
L 98.221761 216.759704 
L 98.221761 216.301262 
L 99.74358 216.215304 
L 99.74358 215.986083 
L 100.504489 215.986083 
L 100.504489 213.35004 
L 101.265398 213.35004 
L 101.265398 214.009051 
L 102.026307 214.009051 
L 102.026307 213.493303 
L 103.548125 213.521956 
L 103.548125 214.410188 
L 104.309034 214.410188 
L 104.309034 209.969028 
L 105.069943 209.969028 
L 105.069943 211.029176 
L 105.830852 211.029176 
L 105.830852 211.602229 
L 106.591761 211.602229 
L 106.591761 210.198249 
L 107.35267 210.198249 
L 107.35267 206.301489 
L 108.11358 206.301489 
L 108.11358 207.361637 
L 108.874489 207.361637 
L 108.874489 206.502058 
L 109.635398 206.502058 
L 109.635398 202.032246 
L 110.396307 202.032246 
L 110.396307 200.828835 
L 111.918125 200.771529 
L 111.918125 196.158454 
L 112.679034 196.158454 
L 112.679034 194.439295 
L 113.439943 194.439295 
L 113.439943 193.006663 
L 114.200852 193.006663 
L 114.200852 188.307629 
L 114.961761 188.307629 
L 114.961761 185.184491 
L 115.72267 185.184491 
L 115.72267 183.694554 
L 116.48358 183.694554 
L 116.48358 178.508425 
L 117.244489 178.508425 
L 117.244489 174.583013 
L 118.005398 174.583013 
L 118.005398 173.179034 
L 118.766307 173.179034 
L 118.766307 167.763684 
L 119.527216 167.763684 
L 119.527216 167.477157 
L 120.288125 167.477157 
L 120.288125 159.597681 
L 121.049034 159.597681 
L 121.049034 157.620648 
L 121.809943 157.620648 
L 121.809943 157.248164 
L 122.570852 157.248164 
L 122.570852 151.746856 
L 123.331761 151.746856 
L 123.331761 150.113655 
L 124.09267 150.113655 
L 124.09267 143.322979 
L 124.85358 143.322979 
L 124.85358 135.815986 
L 125.614489 135.815986 
L 125.614489 137.363229 
L 126.375398 137.363229 
L 126.375398 115.644525 
L 127.136307 115.644525 
L 127.136307 122.120023 
L 127.897216 122.120023 
L 127.897216 119.627243 
L 128.658125 119.627243 
L 128.658125 115.443957 
L 129.419034 115.443957 
L 129.419034 108.796543 
L 130.179943 108.796543 
L 130.179943 108.567322 
L 130.940852 108.567322 
L 130.940852 99.341171 
L 131.701761 99.341171 
L 131.701761 102.235088 
L 132.46267 102.235088 
L 132.46267 91.490347 
L 133.22358 91.490347 
L 133.22358 91.977442 
L 133.984489 91.977442 
L 133.984489 74.327413 
L 134.745398 74.327413 
L 134.745398 89.026219 
L 135.506307 89.026219 
L 135.506307 55.903764 
L 136.267216 55.903764 
L 136.267216 74.499329 
L 137.028125 74.499329 
L 137.028125 46.849528 
L 137.789034 46.849528 
L 137.789034 60.459534 
L 138.549943 60.459534 
L 138.549943 49.399613 
L 139.310852 49.399613 
L 139.310852 58.024059 
L 140.071761 58.024059 
L 140.071761 69.857601 
L 140.83267 69.857601 
L 140.83267 48.110244 
L 141.59358 48.110244 
L 141.59358 46.563002 
L 142.354489 46.563002 
L 142.354489 59.342081 
L 143.115398 59.342081 
L 143.115398 54.814963 
L 143.876307 54.814963 
L 143.876307 48.568687 
L 144.637216 48.568687 
L 144.637216 26.935941 
L 145.398125 26.935941 
L 145.398125 46.047254 
L 146.919943 45.989949 
L 146.919943 43.239295 
L 147.680852 43.239295 
L 147.680852 38.253735 
L 148.441761 38.253735 
L 148.441761 54.872268 
L 149.20267 54.872268 
L 149.20267 45.588812 
L 149.96358 45.588812 
L 149.96358 32.179375 
L 150.724489 32.179375 
L 150.724489 39.428493 
L 151.485398 39.428493 
L 151.485398 45.818033 
L 152.246307 45.818033 
L 152.246307 41.376873 
L 153.007216 41.376873 
L 153.007216 21.205412 
L 153.768125 21.205412 
L 153.768125 49.399613 
L 154.529034 49.399613 
L 154.529034 23.067834 
L 155.289943 23.067834 
L 155.289943 44.81519 
L 156.050852 44.81519 
L 156.050852 43.382558 
L 156.811761 43.382558 
L 156.811761 42.780853 
L 157.57267 42.780853 
L 157.57267 44.070222 
L 158.33358 44.070222 
L 158.33358 45.531507 
L 159.094489 45.531507 
L 159.094489 40.746515 
L 159.855398 40.746515 
L 159.855398 51.892393 
L 160.616307 51.892393 
L 160.616307 31.921501 
L 161.377216 31.921501 
L 161.377216 43.353906 
L 162.138125 43.353906 
L 162.138125 33.783923 
L 162.899034 33.783923 
L 162.899034 17.28 
L 163.659943 17.28 
L 163.659943 56.648732 
L 164.420852 56.648732 
L 164.420852 25.274088 
L 165.181761 25.274088 
L 165.181761 47.422581 
L 165.94267 47.422581 
L 165.94267 50.402456 
L 166.70358 50.402456 
L 166.70358 38.19643 
L 167.464489 38.19643 
L 167.464489 39.313883 
L 168.225398 39.313883 
L 168.225398 41.577442 
L 168.986307 41.577442 
L 168.986307 46.706265 
L 169.747216 46.706265 
L 169.747216 56.362206 
L 170.508125 56.362206 
L 170.508125 58.68307 
L 171.269034 58.68307 
L 171.269034 56.73469 
L 172.029943 56.73469 
L 172.029943 45.302285 
L 172.790852 45.302285 
L 172.790852 42.809505 
L 173.551761 42.809505 
L 173.551761 59.685912 
L 174.31267 59.685912 
L 174.31267 66.648505 
L 175.07358 66.648505 
L 175.07358 68.453621 
L 175.834489 68.453621 
L 175.834489 51.74913 
L 176.595398 51.74913 
L 176.595398 73.152655 
L 177.356307 73.152655 
L 177.356307 87.536282 
L 178.117216 87.536282 
L 178.117216 54.356521 
L 178.878125 54.356521 
L 178.878125 95.673633 
L 179.639034 95.673633 
L 179.639034 37.594724 
L 180.399943 37.594724 
L 180.399943 88.968914 
L 181.160852 88.968914 
L 181.160852 92.951632 
L 181.921761 92.951632 
L 181.921761 76.075225 
L 182.68267 76.075225 
L 182.68267 81.777101 
L 183.44358 81.777101 
L 183.44358 86.246913 
L 184.204489 86.246913 
L 184.204489 93.925821 
L 184.965398 93.925821 
L 184.965398 69.74299 
L 185.726307 69.74299 
L 185.726307 91.604957 
L 186.487216 91.604957 
L 186.487216 97.249528 
L 187.248125 97.249528 
L 187.248125 83.410301 
L 188.009034 83.410301 
L 188.009034 81.060785 
L 188.769943 81.060785 
L 188.769943 111.346629 
L 189.530852 111.346629 
L 189.530852 99.083297 
L 190.291761 99.083297 
L 190.291761 88.223945 
L 191.05267 88.223945 
L 191.05267 111.14606 
L 191.81358 111.14606 
L 191.81358 104.384036 
L 192.574489 104.384036 
L 192.574489 103.180625 
L 193.335398 103.180625 
L 193.335398 105.816669 
L 194.096307 105.816669 
L 194.096307 105.100352 
L 194.857216 105.100352 
L 194.857216 104.011552 
L 195.618125 104.011552 
L 195.618125 114.870904 
L 196.379034 114.870904 
L 196.379034 110.658965 
L 197.139943 110.658965 
L 197.139943 103.610415 
L 197.900852 103.610415 
L 197.900852 110.830881 
L 198.661761 110.830881 
L 198.661761 115.100125 
L 199.42267 115.100125 
L 199.42267 102.435657 
L 200.18358 102.435657 
L 200.18358 115.04282 
L 200.944489 115.04282 
L 200.944489 125.730256 
L 201.705398 125.730256 
L 201.705398 138.194156 
L 202.466307 138.194156 
L 202.466307 106.303764 
L 203.227216 106.303764 
L 203.227216 135.472155 
L 203.988125 135.472155 
L 203.988125 113.610188 
L 204.749034 113.610188 
L 204.749034 131.0883 
L 205.509943 131.0883 
L 205.509943 127.850551 
L 206.270852 127.850551 
L 206.270852 125.902172 
L 207.031761 125.902172 
L 207.031761 124.641455 
L 207.79267 124.641455 
L 207.79267 121.66158 
L 208.55358 121.66158 
L 208.55358 133.896259 
L 209.314489 133.896259 
L 209.314489 134.12548 
L 210.075398 134.12548 
L 210.075398 126.446572 
L 210.836307 126.446572 
L 210.836307 145.50058 
L 211.597216 145.50058 
L 211.597216 135.672723 
L 212.358125 135.672723 
L 212.358125 136.560955 
L 213.119034 136.560955 
L 213.119034 125.01394 
L 213.879943 125.01394 
L 213.879943 139.941967 
L 214.640852 139.941967 
L 214.640852 147.878749 
L 215.401761 147.878749 
L 215.401761 140.171188 
L 216.16267 140.171188 
L 216.16267 141.259989 
L 216.92358 141.259989 
L 216.92358 138.366072 
L 217.684489 138.366072 
L 217.684489 151.718204 
L 218.445398 151.718204 
L 218.445398 138.251461 
L 219.206307 138.251461 
L 219.206307 152.00473 
L 219.967216 152.00473 
L 219.967216 149.769824 
L 220.728125 149.769824 
L 220.728125 141.259989 
L 221.489034 141.259989 
L 221.489034 138.709903 
L 222.249943 138.709903 
L 222.249943 158.107743 
L 223.010852 158.107743 
L 223.010852 143.408937 
L 224.53267 143.351632 
L 224.53267 160.45726 
L 225.29358 160.45726 
L 225.29358 145.557885 
L 226.054489 145.557885 
L 226.054489 160.142081 
L 226.815398 160.142081 
L 226.815398 163.981535 
L 227.576307 163.981535 
L 227.576307 149.397339 
L 228.337216 149.397339 
L 228.337216 156.159363 
L 229.098125 156.159363 
L 229.098125 148.308539 
L 229.859034 148.308539 
L 229.859034 165.958567 
L 230.619943 165.958567 
L 230.619943 149.483297 
L 231.380852 149.483297 
L 231.380852 155.070563 
L 232.141761 155.070563 
L 232.141761 164.325367 
L 232.90267 164.325367 
L 232.90267 160.428607 
L 233.66358 160.428607 
L 233.66358 160.743786 
L 234.424489 160.743786 
L 234.424489 158.336964 
L 235.185398 158.336964 
L 235.185398 160.887049 
L 235.946307 160.887049 
L 235.946307 166.101831 
L 236.707216 166.101831 
L 236.707216 170.285117 
L 237.468125 170.285117 
L 237.468125 161.316839 
L 238.229034 161.316839 
L 238.229034 167.849642 
L 238.989943 167.849642 
L 238.989943 155.958795 
L 239.750852 155.958795 
L 239.750852 166.445662 
L 240.511761 166.445662 
L 240.511761 178.99552 
L 241.27267 178.99552 
L 241.27267 159.196543 
L 242.03358 159.196543 
L 242.03358 174.754929 
L 242.794489 174.754929 
L 242.794489 171.488528 
L 243.555398 171.488528 
L 243.555398 159.798249 
L 244.316307 159.798249 
L 244.316307 169.253621 
L 245.077216 169.253621 
L 245.077216 177.305014 
L 245.838125 177.305014 
L 245.838125 177.706151 
L 246.599034 177.706151 
L 246.599034 176.187561 
L 247.359943 176.187561 
L 247.359943 168.308084 
L 248.120852 168.308084 
L 248.120852 169.654758 
L 248.881761 169.654758 
L 248.881761 177.362319 
L 249.64267 177.362319 
L 249.64267 175.729119 
L 250.40358 175.729119 
L 250.40358 172.06158 
L 251.164489 172.06158 
L 251.164489 185.556976 
L 251.925398 185.556976 
L 251.925398 180.571416 
L 252.686307 180.571416 
L 252.686307 170.858169 
L 253.447216 170.858169 
L 253.447216 185.872155 
L 254.208125 185.872155 
L 254.208125 184.554133 
L 254.969034 184.554133 
L 254.969034 180.198931 
L 255.729943 180.198931 
L 255.729943 183.322069 
L 256.490852 183.322069 
L 256.490852 183.895122 
L 257.251761 183.895122 
L 257.251761 185.614281 
L 258.01267 185.614281 
L 258.01267 181.975395 
L 258.77358 181.975395 
L 258.77358 188.393587 
L 259.534489 188.393587 
L 259.534489 193.092621 
L 260.295398 193.092621 
L 260.295398 191.230199 
L 261.056307 191.230199 
L 261.056307 186.531165 
L 261.817216 186.531165 
L 261.817216 191.659989 
L 262.578125 191.659989 
L 262.578125 194.92639 
L 263.339034 194.92639 
L 263.339034 191.230199 
L 264.099943 191.230199 
L 264.099943 192.662831 
L 264.860852 192.662831 
L 264.860852 194.238727 
L 265.621761 194.238727 
L 265.621761 193.637021 
L 266.38267 193.637021 
L 266.38267 194.4966 
L 267.14358 194.4966 
L 267.14358 195.126958 
L 267.904489 195.126958 
L 267.904489 196.616896 
L 268.665398 196.616896 
L 268.665398 198.536623 
L 269.426307 198.536623 
L 269.426307 200.083866 
L 270.187216 200.083866 
L 270.187216 200.742877 
L 270.948125 200.742877 
L 270.948125 201.287277 
L 271.709034 201.287277 
L 271.709034 195.098306 
L 272.469943 195.098306 
L 272.469943 202.089551 
L 273.230852 202.089551 
L 273.230852 201.774372 
L 274.75267 201.831677 
L 274.75267 198.50797 
L 275.51358 198.50797 
L 275.51358 206.072268 
L 276.274489 206.072268 
L 276.274489 200.771529 
L 277.035398 200.771529 
L 277.035398 205.757089 
L 277.796307 205.757089 
L 277.796307 206.358795 
L 278.557216 206.358795 
L 278.557216 204.381762 
L 279.318125 204.381762 
L 279.318125 203.464878 
L 280.079034 203.464878 
L 280.079034 208.421785 
L 280.839943 208.421785 
L 280.839943 204.037931 
L 281.600852 204.037931 
L 281.600852 206.530711 
L 282.361761 206.530711 
L 282.361761 207.275679 
L 283.12267 207.275679 
L 283.12267 208.106606 
L 283.88358 208.106606 
L 283.88358 204.89751 
L 284.644489 204.89751 
L 284.644489 210.341512 
L 285.405398 210.341512 
L 285.405398 210.570733 
L 286.166307 210.570733 
L 286.166307 209.997681 
L 286.927216 209.997681 
L 286.927216 207.075111 
L 287.688125 207.075111 
L 287.688125 211.688186 
L 288.449034 211.688186 
L 288.449034 211.000523 
L 289.209943 211.000523 
L 289.209943 211.774144 
L 289.970852 211.774144 
L 289.970852 209.682501 
L 290.731761 209.682501 
L 290.731761 213.006208 
L 291.49267 213.006208 
L 291.49267 212.347197 
L 292.25358 212.347197 
L 292.25358 210.828607 
L 293.014489 210.828607 
L 293.014489 213.46465 
L 293.775398 213.46465 
L 293.775398 214.180966 
L 294.536307 214.180966 
L 294.536307 213.751177 
L 295.297216 213.751177 
L 295.297216 214.524798 
L 296.058125 214.524798 
L 296.058125 214.238272 
L 296.819034 214.238272 
L 296.819034 213.865787 
L 297.579943 213.865787 
L 297.579943 214.582103 
L 298.340852 214.582103 
L 298.340852 215.642251 
L 299.101761 215.642251 
L 299.101761 214.610756 
L 299.86267 214.610756 
L 299.86267 216.129346 
L 300.62358 216.129346 
L 300.62358 215.441683 
L 301.384489 215.441683 
L 301.384489 216.272609 
L 302.145398 216.272609 
L 302.145398 216.530483 
L 303.667216 216.444525 
L 303.667216 216.702399 
L 304.428125 216.702399 
L 304.428125 217.275452 
L 305.189034 217.275452 
L 305.189034 217.733894 
L 305.949943 217.733894 
L 305.949943 217.877157 
L 306.710852 217.877157 
L 306.710852 217.762547 
L 307.471761 217.762547 
L 307.471761 218.249642 
L 309.754489 218.192337 
L 309.754489 218.507516 
L 310.515398 218.507516 
L 310.515398 218.794042 
L 372.909943 218.88 
L 372.909943 218.88 
" clip-path="url(#p00f7f12d5b)" style="fill: none; stroke: #1f77b4; stroke-width: 1.5; stroke-linecap: square"/>
   </g>
   <g id="line2d_18">
    <path d="M 68.546307 218.88 
L 74.63358 218.794042 
L 74.63358 218.736737 
L 76.155398 218.822695 
L 76.155398 218.88 
L 77.677216 218.88 
L 77.677216 218.650779 
L 79.199034 218.564821 
L 79.199034 218.88 
L 79.959943 218.88 
L 79.959943 218.736737 
L 82.24267 218.679431 
L 82.24267 218.622126 
L 83.00358 218.622126 
L 83.00358 218.364252 
L 83.764489 218.364252 
L 83.764489 218.650779 
L 84.525398 218.650779 
L 84.525398 218.077726 
L 85.286307 218.077726 
L 85.286307 218.650779 
L 86.047216 218.650779 
L 86.047216 217.963115 
L 86.808125 217.963115 
L 86.808125 218.593474 
L 87.569034 218.593474 
L 87.569034 217.963115 
L 88.329943 217.963115 
L 88.329943 218.192337 
L 90.61267 218.163684 
L 90.61267 218.020421 
L 91.37358 218.020421 
L 91.37358 218.163684 
L 92.134489 218.163684 
L 92.134489 217.418715 
L 92.895398 217.418715 
L 92.895398 217.619284 
L 93.656307 217.619284 
L 93.656307 216.988926 
L 94.417216 216.988926 
L 94.417216 217.647936 
L 95.178125 217.647936 
L 95.178125 217.103536 
L 95.939034 217.103536 
L 95.939034 216.93162 
L 96.699943 216.93162 
L 96.699943 216.731052 
L 98.221761 216.81701 
L 98.221761 216.301262 
L 98.98267 216.301262 
L 98.98267 215.871472 
L 99.74358 215.871472 
L 99.74358 215.584946 
L 100.504489 215.584946 
L 100.504489 215.29842 
L 101.265398 215.29842 
L 101.265398 212.891597 
L 102.026307 212.891597 
L 102.026307 213.980398 
L 102.787216 213.980398 
L 102.787216 212.891597 
L 103.548125 212.891597 
L 103.548125 213.89444 
L 104.309034 213.89444 
L 104.309034 211.201092 
L 105.830852 211.115134 
L 105.830852 210.255554 
L 106.591761 210.255554 
L 106.591761 210.140944 
L 107.35267 210.140944 
L 107.35267 208.593701 
L 108.11358 208.593701 
L 108.11358 203.866015 
L 108.874489 203.866015 
L 108.874489 207.676816 
L 109.635398 207.676816 
L 109.635398 202.719909 
L 110.396307 202.719909 
L 110.396307 202.318772 
L 111.157216 202.318772 
L 111.157216 198.479318 
L 111.918125 198.479318 
L 111.918125 195.47079 
L 112.679034 195.47079 
L 112.679034 196.072496 
L 113.439943 196.072496 
L 113.439943 189.167209 
L 114.200852 189.167209 
L 114.200852 191.115588 
L 114.961761 191.115588 
L 114.961761 184.840659 
L 115.72267 184.840659 
L 115.72267 184.439522 
L 116.48358 184.439522 
L 116.48358 177.878067 
L 117.244489 177.878067 
L 117.244489 175.213371 
L 118.005398 175.213371 
L 118.005398 170.457032 
L 118.766307 170.457032 
L 118.766307 168.938442 
L 119.527216 168.938442 
L 119.527216 167.50581 
L 120.288125 167.50581 
L 120.288125 157.133553 
L 121.049034 157.133553 
L 121.049034 157.53469 
L 121.809943 157.53469 
L 121.809943 160.371302 
L 122.570852 160.371302 
L 122.570852 149.225424 
L 123.331761 149.225424 
L 123.331761 149.683866 
L 124.09267 149.683866 
L 124.09267 139.655441 
L 124.85358 139.655441 
L 124.85358 139.053735 
L 125.614489 139.053735 
L 125.614489 131.604048 
L 126.375398 131.604048 
L 126.375398 121.145833 
L 127.136307 121.145833 
L 127.136307 124.58415 
L 127.897216 124.58415 
L 127.897216 116.618715 
L 128.658125 116.618715 
L 128.658125 112.234861 
L 129.419034 112.234861 
L 129.419034 112.464082 
L 130.179943 112.464082 
L 130.179943 110.085912 
L 130.940852 110.085912 
L 130.940852 97.793928 
L 131.701761 97.793928 
L 131.701761 99.197908 
L 132.46267 99.197908 
L 132.46267 86.705355 
L 133.22358 86.705355 
L 133.22358 91.490347 
L 133.984489 91.490347 
L 133.984489 81.920364 
L 134.745398 81.920364 
L 134.745398 72.952086 
L 135.506307 72.952086 
L 135.506307 70.373348 
L 136.267216 70.373348 
L 136.267216 60.946629 
L 137.028125 60.946629 
L 137.028125 62.26465 
L 137.789034 62.26465 
L 137.789034 57.737533 
L 138.549943 57.737533 
L 138.549943 54.528437 
L 139.310852 54.528437 
L 139.310852 55.416669 
L 140.071761 55.416669 
L 140.071761 56.132985 
L 140.83267 56.132985 
L 140.83267 57.021217 
L 141.59358 57.021217 
L 141.59358 59.170165 
L 142.354489 59.170165 
L 142.354489 55.302058 
L 143.115398 55.302058 
L 143.115398 39.514451 
L 143.876307 39.514451 
L 143.876307 43.783695 
L 144.637216 43.783695 
L 144.637216 50.77494 
L 145.398125 50.77494 
L 145.398125 37.737987 
L 146.919943 37.680682 
L 146.919943 51.090119 
L 147.680852 51.090119 
L 147.680852 31.434406 
L 148.441761 31.434406 
L 148.441761 48.310813 
L 149.96358 48.253508 
L 149.96358 45.13037 
L 150.724489 45.13037 
L 150.724489 27.480341 
L 151.485398 27.480341 
L 151.485398 54.327868 
L 152.246307 54.327868 
L 152.246307 31.835543 
L 153.007216 31.835543 
L 153.007216 26.391541 
L 153.768125 26.391541 
L 153.768125 52.694667 
L 154.529034 52.694667 
L 154.529034 28.22531 
L 155.289943 28.22531 
L 155.289943 34.242365 
L 156.050852 34.242365 
L 156.050852 52.551404 
L 156.811761 52.551404 
L 156.811761 38.798135 
L 157.57267 38.798135 
L 157.57267 40.68921 
L 158.33358 40.68921 
L 158.33358 51.290688 
L 159.094489 51.290688 
L 159.094489 41.405526 
L 159.855398 41.405526 
L 159.855398 35.531734 
L 160.616307 35.531734 
L 160.616307 39.342536 
L 161.377216 39.342536 
L 161.377216 37.508766 
L 162.138125 37.508766 
L 162.138125 35.216555 
L 162.899034 35.216555 
L 162.899034 40.832473 
L 163.659943 40.832473 
L 163.659943 35.875566 
L 164.420852 35.875566 
L 164.420852 52.121615 
L 165.181761 52.121615 
L 165.181761 28.912973 
L 165.94267 28.912973 
L 165.94267 54.929574 
L 166.70358 54.929574 
L 166.70358 53.439636 
L 167.464489 53.439636 
L 167.464489 38.053167 
L 168.225398 38.053167 
L 168.225398 42.895463 
L 168.986307 42.895463 
L 168.986307 73.410529 
L 169.747216 73.410529 
L 169.747216 35.990176 
L 170.508125 35.990176 
L 170.508125 44.15618 
L 171.269034 44.15618 
L 171.269034 49.600182 
L 172.029943 49.600182 
L 172.029943 58.13867 
L 172.790852 58.13867 
L 172.790852 48.081592 
L 173.551761 48.081592 
L 173.551761 47.19336 
L 174.31267 47.19336 
L 174.31267 66.476589 
L 175.07358 66.476589 
L 175.07358 65.788926 
L 175.834489 65.788926 
L 175.834489 77.65112 
L 176.595398 77.65112 
L 176.595398 68.396316 
L 177.356307 68.396316 
L 177.356307 63.725935 
L 178.117216 63.725935 
L 178.117216 88.338556 
L 178.878125 88.338556 
L 178.878125 54.24191 
L 179.639034 54.24191 
L 179.639034 82.20689 
L 180.399943 82.20689 
L 180.399943 54.528437 
L 181.160852 54.528437 
L 181.160852 89.943104 
L 181.921761 89.943104 
L 181.921761 73.324571 
L 182.68267 73.324571 
L 182.68267 87.335713 
L 183.44358 87.335713 
L 183.44358 91.375736 
L 184.204489 91.375736 
L 184.204489 93.324116 
L 184.965398 93.324116 
L 184.965398 71.920591 
L 185.726307 71.920591 
L 185.726307 98.195065 
L 186.487216 98.195065 
L 186.487216 82.522069 
L 187.248125 82.522069 
L 187.248125 90.315588 
L 188.009034 90.315588 
L 188.009034 92.464537 
L 188.769943 92.464537 
L 188.769943 95.387106 
L 189.530852 95.387106 
L 189.530852 91.776873 
L 190.291761 91.776873 
L 190.291761 110.60166 
L 191.05267 110.60166 
L 191.05267 88.424514 
L 191.81358 88.424514 
L 191.81358 109.799386 
L 192.574489 109.799386 
L 192.574489 117.707516 
L 193.335398 117.707516 
L 193.335398 105.214963 
L 194.096307 105.214963 
L 194.096307 112.206208 
L 194.857216 112.206208 
L 194.857216 93.094895 
L 195.618125 93.094895 
L 195.618125 111.260671 
L 196.379034 111.260671 
L 196.379034 95.444412 
L 197.139943 95.444412 
L 197.139943 116.246231 
L 197.900852 116.246231 
L 197.900852 110.630313 
L 198.661761 110.630313 
L 198.661761 118.366526 
L 199.42267 118.366526 
L 199.42267 107.449869 
L 200.18358 107.449869 
L 200.18358 132.520932 
L 200.944489 132.520932 
L 200.944489 111.002797 
L 201.705398 111.002797 
L 201.705398 117.335031 
L 202.466307 117.335031 
L 202.466307 126.503877 
L 203.227216 126.503877 
L 203.227216 135.300239 
L 203.988125 135.300239 
L 203.988125 121.031222 
L 204.749034 121.031222 
L 204.749034 119.684548 
L 205.509943 119.684548 
L 205.509943 118.452484 
L 206.270852 118.452484 
L 206.270852 136.102513 
L 207.031761 136.102513 
L 207.031761 115.902399 
L 207.79267 115.902399 
L 207.79267 135.386197 
L 208.55358 135.386197 
L 208.55358 127.248846 
L 209.314489 127.248846 
L 209.314489 133.03668 
L 210.075398 133.03668 
L 210.075398 142.406094 
L 210.836307 142.406094 
L 210.836307 121.776191 
L 211.597216 121.776191 
L 211.597216 143.322979 
L 212.358125 143.322979 
L 212.358125 133.867607 
L 213.119034 133.867607 
L 213.119034 133.122638 
L 213.879943 133.122638 
L 213.879943 141.116725 
L 214.640852 141.116725 
L 214.640852 135.414849 
L 215.401761 135.414849 
L 215.401761 142.234179 
L 216.16267 142.234179 
L 216.16267 136.704218 
L 216.92358 136.704218 
L 216.92358 144.297169 
L 217.684489 144.297169 
L 217.684489 146.732644 
L 218.445398 146.732644 
L 218.445398 151.632246 
L 219.206307 151.632246 
L 219.206307 141.833042 
L 219.967216 141.833042 
L 219.967216 146.732644 
L 220.728125 146.732644 
L 220.728125 142.176873 
L 221.489034 142.176873 
L 221.489034 154.325594 
L 222.249943 154.325594 
L 222.249943 136.761524 
L 223.010852 136.761524 
L 223.010852 155.529005 
L 223.771761 155.529005 
L 223.771761 148.050665 
L 224.53267 148.050665 
L 224.53267 148.681023 
L 225.29358 148.681023 
L 225.29358 160.084775 
L 226.054489 160.084775 
L 226.054489 150.199613 
L 226.815398 150.199613 
L 226.815398 159.683638 
L 227.576307 159.683638 
L 227.576307 152.377214 
L 228.337216 152.377214 
L 228.337216 156.044753 
L 229.098125 156.044753 
L 229.098125 153.007572 
L 229.859034 153.007572 
L 229.859034 159.626333 
L 230.619943 159.626333 
L 230.619943 151.890119 
L 231.380852 151.890119 
L 231.380852 158.910017 
L 232.141761 158.910017 
L 232.141761 160.772439 
L 232.90267 160.772439 
L 232.90267 162.319682 
L 233.66358 162.319682 
L 233.66358 153.924457 
L 234.424489 153.924457 
L 234.424489 164.669198 
L 235.185398 164.669198 
L 235.185398 162.606208 
L 235.946307 162.606208 
L 235.946307 165.843957 
L 236.707216 165.843957 
L 236.707216 175.815077 
L 237.468125 175.815077 
L 237.468125 156.044753 
L 238.229034 156.044753 
L 238.229034 161.00166 
L 238.989943 161.00166 
L 238.989943 167.3912 
L 239.750852 167.3912 
L 239.750852 163.007345 
L 240.511761 163.007345 
L 240.511761 162.692166 
L 241.27267 162.692166 
L 241.27267 171.001433 
L 242.03358 171.001433 
L 242.03358 169.740716 
L 242.794489 169.740716 
L 242.794489 174.267834 
L 243.555398 174.267834 
L 243.555398 175.729119 
L 244.316307 175.729119 
L 244.316307 167.219284 
L 245.077216 167.219284 
L 245.077216 168.222126 
L 245.838125 168.222126 
L 245.838125 167.964252 
L 246.599034 167.964252 
L 246.599034 177.419625 
L 247.359943 177.419625 
L 247.359943 176.703309 
L 248.120852 176.703309 
L 248.120852 175.471245 
L 248.881761 175.471245 
L 248.881761 159.970165 
L 249.64267 159.970165 
L 249.64267 195.069653 
L 250.40358 195.069653 
L 250.40358 167.964252 
L 251.164489 167.964252 
L 251.164489 180.51411 
L 251.925398 180.51411 
L 251.925398 176.703309 
L 252.686307 176.703309 
L 252.686307 184.869312 
L 253.447216 184.869312 
L 253.447216 178.594383 
L 254.208125 178.594383 
L 254.208125 177.677499 
L 254.969034 177.677499 
L 254.969034 183.608596 
L 255.729943 183.608596 
L 255.729943 181.287732 
L 256.490852 181.287732 
L 256.490852 190.399272 
L 257.251761 190.399272 
L 257.251761 183.809164 
L 258.01267 183.809164 
L 258.01267 184.640091 
L 258.77358 184.640091 
L 258.77358 188.53685 
L 259.534489 188.53685 
L 259.534489 187.820534 
L 260.295398 187.820534 
L 260.295398 189.596998 
L 261.056307 189.596998 
L 261.056307 189.797567 
L 261.817216 189.797567 
L 261.817216 195.585401 
L 262.578125 195.585401 
L 262.578125 188.794724 
L 263.339034 188.794724 
L 263.339034 192.089778 
L 264.099943 192.089778 
L 264.099943 193.006663 
L 264.860852 193.006663 
L 264.860852 190.170051 
L 265.621761 190.170051 
L 265.621761 199.854645 
L 266.38267 199.854645 
L 266.38267 191.516725 
L 267.14358 191.516725 
L 267.14358 197.820307 
L 267.904489 197.820307 
L 267.904489 194.238727 
L 268.665398 194.238727 
L 268.665398 198.106833 
L 269.426307 198.106833 
L 269.426307 198.307402 
L 270.187216 198.307402 
L 270.187216 198.049528 
L 270.948125 198.049528 
L 270.948125 202.662604 
L 271.709034 202.662604 
L 271.709034 199.539466 
L 272.469943 199.539466 
L 272.469943 198.679886 
L 273.230852 198.679886 
L 273.230852 201.229972 
L 273.991761 201.229972 
L 273.991761 202.146856 
L 274.75267 202.146856 
L 274.75267 205.814395 
L 275.51358 205.814395 
L 275.51358 199.539466 
L 276.274489 199.539466 
L 276.274489 203.866015 
L 277.035398 203.866015 
L 277.035398 204.89751 
L 277.796307 204.89751 
L 277.796307 201.946288 
L 278.557216 201.946288 
L 278.557216 206.4161 
L 279.318125 206.4161 
L 279.318125 205.126731 
L 280.079034 205.126731 
L 280.079034 206.186879 
L 280.839943 206.186879 
L 280.839943 207.648164 
L 281.600852 207.648164 
L 281.600852 203.780057 
L 282.361761 203.780057 
L 282.361761 206.731279 
L 283.12267 206.731279 
L 283.12267 206.9605 
L 283.88358 206.9605 
L 283.88358 207.848732 
L 284.644489 207.848732 
L 284.644489 209.395975 
L 285.405398 209.395975 
L 285.405398 210.169596 
L 286.166307 210.169596 
L 286.166307 207.562206 
L 286.927216 207.562206 
L 286.927216 210.542081 
L 287.688125 210.542081 
L 287.688125 211.602229 
L 288.449034 211.602229 
L 288.449034 210.742649 
L 289.209943 210.742649 
L 289.209943 210.513428 
L 289.970852 210.513428 
L 289.970852 211.201092 
L 290.731761 211.201092 
L 290.731761 211.917408 
L 291.49267 211.917408 
L 291.49267 212.175281 
L 292.25358 212.175281 
L 292.25358 211.630881 
L 293.014489 211.630881 
L 293.014489 213.665219 
L 294.536307 213.636566 
L 294.536307 213.46465 
L 295.297216 213.46465 
L 295.297216 214.553451 
L 296.058125 214.553451 
L 296.058125 214.32423 
L 297.579943 214.352882 
L 297.579943 214.009051 
L 298.340852 214.009051 
L 298.340852 215.040546 
L 299.101761 215.040546 
L 299.101761 215.155156 
L 299.86267 215.155156 
L 299.86267 215.900125 
L 300.62358 215.900125 
L 300.62358 215.785514 
L 302.145398 215.699557 
L 302.145398 216.874315 
L 302.906307 216.874315 
L 302.906307 216.444525 
L 303.667216 216.444525 
L 303.667216 216.759704 
L 304.428125 216.759704 
L 304.428125 217.246799 
L 305.189034 217.246799 
L 305.189034 217.390063 
L 305.949943 217.390063 
L 305.949943 218.135031 
L 306.710852 218.135031 
L 306.710852 217.676589 
L 307.471761 217.676589 
L 307.471761 218.163684 
L 308.99358 218.106379 
L 308.99358 218.45021 
L 310.515398 218.536168 
L 310.515398 218.794042 
L 372.909943 218.88 
L 372.909943 218.88 
" clip-path="url(#p00f7f12d5b)" style="fill: none; stroke: #ff7f0e; stroke-width: 1.5; stroke-linecap: square"/>
   </g>
   <g id="line2d_19">
    <path d="M 68.546307 218.88 
L 73.87267 218.851347 
L 73.87267 218.765389 
L 78.438125 218.736737 
L 78.438125 218.622126 
L 79.199034 218.622126 
L 79.199034 218.765389 
L 80.720852 218.794042 
L 80.720852 218.593474 
L 83.764489 218.564821 
L 83.764489 218.421558 
L 84.525398 218.421558 
L 84.525398 218.192337 
L 85.286307 218.192337 
L 85.286307 218.593474 
L 86.047216 218.593474 
L 86.047216 218.163684 
L 86.808125 218.163684 
L 86.808125 218.3356 
L 87.569034 218.3356 
L 87.569034 218.106379 
L 89.090852 218.163684 
L 89.090852 218.3356 
L 89.851761 218.3356 
L 89.851761 218.020421 
L 91.37358 217.963115 
L 91.37358 217.705242 
L 92.895398 217.733894 
L 92.895398 217.533326 
L 93.656307 217.533326 
L 93.656307 217.103536 
L 94.417216 217.103536 
L 94.417216 217.332757 
L 95.939034 217.246799 
L 95.939034 216.788357 
L 97.460852 216.81701 
L 97.460852 216.960273 
L 98.221761 216.960273 
L 98.221761 216.243957 
L 98.98267 216.243957 
L 98.98267 215.871472 
L 99.74358 215.871472 
L 99.74358 215.584946 
L 100.504489 215.584946 
L 100.504489 214.98324 
L 101.265398 214.98324 
L 101.265398 214.639409 
L 102.026307 214.639409 
L 102.026307 213.35004 
L 102.787216 213.35004 
L 102.787216 213.178124 
L 103.548125 213.178124 
L 103.548125 212.662376 
L 104.309034 212.662376 
L 104.309034 211.201092 
L 105.830852 211.143786 
L 105.830852 210.771302 
L 106.591761 210.771302 
L 106.591761 210.026333 
L 107.35267 210.026333 
L 107.35267 207.533553 
L 108.11358 207.533553 
L 108.11358 206.158226 
L 108.874489 206.158226 
L 108.874489 205.728437 
L 109.635398 205.728437 
L 109.635398 203.464878 
L 110.396307 203.464878 
L 110.396307 200.800182 
L 111.157216 200.800182 
L 111.157216 199.338897 
L 111.918125 199.338897 
L 111.918125 195.814622 
L 112.679034 195.814622 
L 112.679034 194.783127 
L 113.439943 194.783127 
L 113.439943 191.774599 
L 114.200852 191.774599 
L 114.200852 188.708766 
L 114.961761 188.708766 
L 114.961761 186.04407 
L 115.72267 186.04407 
L 115.72267 181.459648 
L 116.48358 181.459648 
L 116.48358 178.909562 
L 117.244489 178.909562 
L 117.244489 175.671814 
L 118.005398 175.671814 
L 118.005398 171.775054 
L 118.766307 171.775054 
L 118.766307 168.795179 
L 119.527216 168.795179 
L 119.527216 163.866924 
L 120.288125 163.866924 
L 120.288125 161.832587 
L 121.049034 161.832587 
L 121.049034 160.715134 
L 121.809943 160.715134 
L 121.809943 153.867152 
L 122.570852 153.867152 
L 122.570852 150.400182 
L 123.331761 150.400182 
L 123.331761 144.812916 
L 124.09267 144.812916 
L 124.09267 142.434747 
L 124.85358 142.434747 
L 124.85358 139.254304 
L 125.614489 139.254304 
L 125.614489 130.744468 
L 126.375398 130.744468 
L 126.375398 125.816214 
L 127.136307 125.816214 
L 127.136307 119.971074 
L 127.897216 119.971074 
L 127.897216 118.6244 
L 128.658125 118.6244 
L 128.658125 112.464082 
L 129.419034 112.464082 
L 129.419034 113.552882 
L 130.179943 113.552882 
L 130.179943 105.0717 
L 130.940852 105.0717 
L 130.940852 100.63054 
L 131.701761 100.63054 
L 131.701761 93.782558 
L 132.46267 93.782558 
L 132.46267 91.003252 
L 133.22358 91.003252 
L 133.22358 88.968914 
L 133.984489 88.968914 
L 133.984489 79.198363 
L 134.745398 79.198363 
L 134.745398 75.072382 
L 135.506307 75.072382 
L 135.506307 68.740148 
L 136.267216 68.740148 
L 136.267216 68.510927 
L 137.028125 68.510927 
L 137.028125 58.654417 
L 137.789034 58.654417 
L 137.789034 57.27909 
L 138.549943 57.27909 
L 138.549943 59.800523 
L 139.310852 59.800523 
L 139.310852 55.989721 
L 140.071761 55.989721 
L 140.071761 56.132985 
L 140.83267 56.132985 
L 140.83267 53.69751 
L 142.354489 53.69751 
L 142.354489 50.488414 
L 143.115398 50.488414 
L 143.115398 48.310813 
L 143.876307 48.310813 
L 143.876307 45.67477 
L 144.637216 45.67477 
L 144.637216 45.187675 
L 145.398125 45.187675 
L 145.398125 46.104559 
L 146.159034 46.104559 
L 146.159034 38.511609 
L 146.919943 38.511609 
L 146.919943 41.405526 
L 147.680852 41.405526 
L 147.680852 42.093189 
L 148.441761 42.093189 
L 148.441761 39.543104 
L 149.20267 39.543104 
L 149.20267 41.147652 
L 149.96358 41.147652 
L 149.96358 47.995634 
L 150.724489 47.995634 
L 150.724489 44.471359 
L 151.485398 44.471359 
L 151.485398 37.709335 
L 152.246307 37.709335 
L 152.246307 38.024514 
L 153.007216 38.024514 
L 153.007216 40.889778 
L 153.768125 40.889778 
L 153.768125 37.76664 
L 154.529034 37.76664 
L 154.529034 36.878408 
L 155.289943 36.878408 
L 155.289943 38.511609 
L 156.050852 38.511609 
L 156.050852 40.517294 
L 156.811761 40.517294 
L 156.811761 42.924116 
L 157.57267 42.924116 
L 157.57267 38.396998 
L 158.33358 38.396998 
L 158.33358 41.978579 
L 159.094489 41.978579 
L 159.094489 42.093189 
L 159.855398 42.093189 
L 159.855398 41.262263 
L 160.616307 41.262263 
L 160.616307 37.279545 
L 161.377216 37.279545 
L 161.377216 36.649187 
L 162.138125 36.649187 
L 162.138125 40.374031 
L 162.899034 40.374031 
L 162.899034 37.279545 
L 163.659943 37.279545 
L 163.659943 43.010074 
L 164.420852 43.010074 
L 164.420852 42.608937 
L 165.181761 42.608937 
L 165.181761 42.952769 
L 165.94267 42.952769 
L 165.94267 52.035657 
L 166.70358 52.035657 
L 166.70358 45.78938 
L 167.464489 45.78938 
L 167.464489 52.035657 
L 168.225398 52.035657 
L 168.225398 47.508539 
L 168.986307 47.508539 
L 168.986307 49.399613 
L 169.747216 49.399613 
L 169.747216 45.703422 
L 170.508125 45.703422 
L 170.508125 48.253508 
L 171.269034 48.253508 
L 171.269034 51.806435 
L 172.029943 51.806435 
L 172.029943 47.250665 
L 172.790852 47.250665 
L 172.790852 56.877953 
L 173.551761 56.877953 
L 173.551761 60.373576 
L 174.31267 60.373576 
L 174.31267 62.465219 
L 175.07358 62.465219 
L 175.07358 65.273178 
L 175.834489 65.273178 
L 175.834489 67.594042 
L 176.595398 67.594042 
L 176.595398 65.846231 
L 177.356307 65.846231 
L 177.356307 67.450779 
L 178.117216 67.450779 
L 178.117216 70.917749 
L 178.878125 70.917749 
L 178.878125 71.061012 
L 179.639034 71.061012 
L 179.639034 70.889096 
L 180.399943 70.889096 
L 180.399943 75.530824 
L 181.160852 75.530824 
L 181.160852 78.62531 
L 181.921761 78.62531 
L 181.921761 80.630995 
L 182.68267 80.630995 
L 182.68267 82.894554 
L 183.44358 82.894554 
L 183.44358 84.814281 
L 184.204489 84.814281 
L 184.204489 87.106492 
L 184.965398 87.106492 
L 184.965398 89.971757 
L 185.726307 89.971757 
L 185.726307 88.854304 
L 186.487216 88.854304 
L 186.487216 89.68523 
L 187.248125 89.68523 
L 187.248125 90.430199 
L 188.009034 90.430199 
L 188.009034 90.745378 
L 188.769943 90.745378 
L 188.769943 91.060557 
L 189.530852 91.060557 
L 189.530852 96.504559 
L 190.291761 96.504559 
L 190.291761 99.770961 
L 191.05267 99.770961 
L 191.05267 101.031677 
L 191.81358 101.031677 
L 191.81358 106.04589 
L 192.574489 106.04589 
L 192.574489 106.991427 
L 193.335398 106.991427 
L 193.335398 106.303764 
L 194.096307 106.303764 
L 194.096307 109.226333 
L 194.857216 109.226333 
L 194.857216 107.736396 
L 195.618125 107.736396 
L 195.618125 106.704901 
L 196.379034 106.704901 
L 196.379034 106.103195 
L 197.139943 106.103195 
L 197.139943 107.535827 
L 197.900852 107.535827 
L 197.900852 111.14606 
L 198.661761 111.14606 
L 198.661761 116.790631 
L 199.42267 116.790631 
L 199.42267 116.389494 
L 200.18358 116.389494 
L 200.18358 118.653053 
L 200.944489 118.653053 
L 200.944489 119.111495 
L 201.705398 119.111495 
L 201.705398 120.171643 
L 202.466307 120.171643 
L 202.466307 124.641455 
L 203.227216 124.641455 
L 203.227216 122.750381 
L 203.988125 122.750381 
L 203.988125 123.524002 
L 204.749034 123.524002 
L 204.749034 126.188698 
L 205.509943 126.188698 
L 205.509943 124.440887 
L 206.270852 124.440887 
L 206.270852 127.07693 
L 207.79267 126.990972 
L 207.79267 127.793246 
L 208.55358 127.793246 
L 208.55358 132.234406 
L 209.314489 132.234406 
L 209.314489 133.523775 
L 210.075398 133.523775 
L 210.075398 137.076703 
L 210.836307 137.076703 
L 210.836307 131.374827 
L 211.597216 131.374827 
L 211.597216 132.950722 
L 212.358125 132.950722 
L 212.358125 137.191313 
L 213.119034 137.191313 
L 213.119034 136.474997 
L 213.879943 136.474997 
L 213.879943 134.927754 
L 214.640852 134.927754 
L 214.640852 136.360387 
L 215.401761 136.360387 
L 215.401761 137.449187 
L 216.16267 137.449187 
L 216.16267 141.431904 
L 216.92358 141.431904 
L 216.92358 145.07079 
L 217.684489 145.07079 
L 217.684489 145.328664 
L 218.445398 145.328664 
L 218.445398 144.755611 
L 219.206307 144.755611 
L 219.206307 144.239864 
L 219.967216 144.239864 
L 219.967216 146.360159 
L 220.728125 146.360159 
L 220.728125 145.013485 
L 221.489034 145.013485 
L 221.489034 146.302854 
L 222.249943 146.302854 
L 222.249943 148.652371 
L 223.010852 148.652371 
L 223.010852 150.658056 
L 223.771761 150.658056 
L 223.771761 149.741171 
L 224.53267 149.741171 
L 224.53267 153.294099 
L 225.29358 153.294099 
L 225.29358 153.494667 
L 226.054489 153.494667 
L 226.054489 151.832814 
L 226.815398 151.832814 
L 226.815398 155.271131 
L 227.576307 155.271131 
L 227.576307 153.781194 
L 228.337216 153.781194 
L 228.337216 155.242479 
L 229.098125 155.242479 
L 229.098125 157.391427 
L 229.859034 157.391427 
L 229.859034 157.677953 
L 230.619943 157.677953 
L 230.619943 157.047595 
L 231.380852 157.047595 
L 231.380852 156.130711 
L 232.141761 156.130711 
L 232.141761 158.222354 
L 232.90267 158.222354 
L 232.90267 160.084775 
L 233.66358 160.084775 
L 233.66358 162.835429 
L 234.424489 162.835429 
L 234.424489 160.915702 
L 235.185398 160.915702 
L 235.185398 164.096146 
L 235.946307 164.096146 
L 235.946307 165.872609 
L 236.707216 165.872609 
L 236.707216 163.609051 
L 237.468125 163.609051 
L 237.468125 163.92423 
L 238.229034 163.92423 
L 238.229034 166.474315 
L 238.989943 166.474315 
L 238.989943 164.325367 
L 240.511761 164.296714 
L 240.511761 164.812462 
L 241.27267 164.812462 
L 241.27267 168.336737 
L 242.03358 168.336737 
L 242.03358 168.967095 
L 242.794489 168.967095 
L 242.794489 170.800864 
L 244.316307 170.829517 
L 244.316307 171.202001 
L 245.077216 171.202001 
L 245.077216 171.40257 
L 245.838125 171.40257 
L 245.838125 171.030085 
L 246.599034 171.030085 
L 246.599034 172.262149 
L 247.359943 172.262149 
L 247.359943 175.442592 
L 248.120852 175.442592 
L 248.120852 175.242024 
L 248.881761 175.242024 
L 248.881761 176.101603 
L 249.64267 176.101603 
L 249.64267 174.325139 
L 250.40358 174.325139 
L 250.40358 177.190404 
L 251.164489 177.190404 
L 251.164489 178.823604 
L 251.925398 178.823604 
L 251.925398 179.024173 
L 252.686307 179.024173 
L 252.686307 180.542763 
L 253.447216 180.542763 
L 253.447216 181.430995 
L 254.208125 181.430995 
L 254.208125 181.287732 
L 254.969034 181.287732 
L 254.969034 184.124343 
L 255.729943 184.124343 
L 255.729943 181.946742 
L 256.490852 181.946742 
L 256.490852 182.090006 
L 257.251761 182.090006 
L 257.251761 187.705924 
L 258.01267 187.705924 
L 258.01267 185.900807 
L 258.77358 185.900807 
L 258.77358 187.648619 
L 259.534489 187.648619 
L 259.534489 190.341967 
L 260.295398 190.341967 
L 260.295398 188.221671 
L 261.056307 188.221671 
L 261.056307 189.539693 
L 261.817216 189.539693 
L 261.817216 192.490915 
L 262.578125 192.490915 
L 262.578125 190.972325 
L 263.339034 190.972325 
L 263.339034 190.743104 
L 264.099943 190.743104 
L 264.099943 191.975168 
L 264.860852 191.975168 
L 264.860852 194.611211 
L 265.621761 194.611211 
L 265.621761 194.038158 
L 266.38267 194.038158 
L 266.38267 195.442138 
L 267.14358 195.442138 
L 267.14358 195.298874 
L 267.904489 195.298874 
L 267.904489 197.41917 
L 268.665398 197.41917 
L 268.665398 197.018033 
L 269.426307 197.018033 
L 269.426307 198.106833 
L 270.187216 198.106833 
L 270.187216 196.903422 
L 270.948125 196.903422 
L 270.948125 199.940603 
L 271.709034 199.940603 
L 271.709034 200.88614 
L 272.469943 200.88614 
L 272.469943 199.825992 
L 273.230852 199.825992 
L 273.230852 202.089551 
L 273.991761 202.089551 
L 273.991761 201.831677 
L 274.75267 201.831677 
L 274.75267 203.49353 
L 275.51358 203.49353 
L 275.51358 202.633951 
L 276.274489 202.633951 
L 276.274489 203.292962 
L 277.035398 203.292962 
L 277.035398 204.381762 
L 277.796307 204.381762 
L 277.796307 203.350267 
L 278.557216 203.350267 
L 278.557216 204.639636 
L 279.318125 204.639636 
L 279.318125 205.098078 
L 280.079034 205.098078 
L 280.079034 205.929005 
L 280.839943 205.929005 
L 280.839943 205.44191 
L 281.600852 205.44191 
L 281.600852 206.043616 
L 282.361761 206.043616 
L 282.361761 207.189721 
L 283.12267 207.189721 
L 283.12267 206.817237 
L 283.88358 206.817237 
L 283.88358 207.82008 
L 284.644489 207.82008 
L 284.644489 209.539238 
L 285.405398 209.539238 
L 285.405398 209.367322 
L 286.166307 209.367322 
L 286.166307 208.851575 
L 286.927216 208.851575 
L 286.927216 209.281364 
L 287.688125 209.281364 
L 287.688125 211.344355 
L 288.449034 211.344355 
L 288.449034 210.943218 
L 289.209943 210.943218 
L 289.209943 211.172439 
L 289.970852 211.172439 
L 289.970852 211.373007 
L 290.731761 211.373007 
L 290.731761 211.83145 
L 291.49267 211.83145 
L 291.49267 212.203934 
L 293.014489 212.289892 
L 293.014489 213.178124 
L 294.536307 213.235429 
L 294.536307 213.550608 
L 295.297216 213.550608 
L 295.297216 214.381535 
L 296.819034 214.32423 
L 296.819034 214.152314 
L 297.579943 214.152314 
L 297.579943 214.43884 
L 298.340852 214.43884 
L 298.340852 214.639409 
L 299.101761 214.639409 
L 299.101761 215.241114 
L 299.86267 215.241114 
L 299.86267 215.670904 
L 300.62358 215.670904 
L 300.62358 215.95743 
L 301.384489 215.95743 
L 301.384489 216.243957 
L 302.145398 216.243957 
L 302.145398 216.444525 
L 302.906307 216.444525 
L 302.906307 216.702399 
L 304.428125 216.673746 
L 304.428125 217.332757 
L 305.949943 217.418715 
L 305.949943 217.676589 
L 306.710852 217.676589 
L 306.710852 217.90581 
L 307.471761 217.90581 
L 307.471761 218.3356 
L 308.23267 218.3356 
L 308.23267 218.106379 
L 308.99358 218.106379 
L 308.99358 218.306947 
L 309.754489 218.306947 
L 309.754489 218.536168 
L 310.515398 218.536168 
L 310.515398 218.794042 
L 372.909943 218.88 
L 372.909943 218.88 
" clip-path="url(#p00f7f12d5b)" style="fill: none; stroke: #2ca02c; stroke-width: 1.5; stroke-linecap: square"/>
   </g>
   <g id="patch_3">
    <path d="M 53.328125 228.96 
L 53.328125 7.2 
" style="fill: none; stroke: #000000; stroke-width: 0.8; stroke-linejoin: miter; stroke-linecap: square"/>
   </g>
   <g id="patch_4">
    <path d="M 388.128125 228.96 
L 388.128125 7.2 
" style="fill: none; stroke: #000000; stroke-width: 0.8; stroke-linejoin: miter; stroke-linecap: square"/>
   </g>
   <g id="patch_5">
    <path d="M 53.328125 228.96 
L 388.128125 228.96 
" style="fill: none; stroke: #000000; stroke-width: 0.8; stroke-linejoin: miter; stroke-linecap: square"/>
   </g>
   <g id="patch_6">
    <path d="M 53.328125 7.2 
L 388.128125 7.2 
" style="fill: none; stroke: #000000; stroke-width: 0.8; stroke-linejoin: miter; stroke-linecap: square"/>
   </g>
   <g id="legend_1">
    <g id="patch_7">
     <path d="M 306.904688 59.234375 
L 381.128125 59.234375 
Q 383.128125 59.234375 383.128125 57.234375 
L 383.128125 14.2 
Q 383.128125 12.2 381.128125 12.2 
L 306.904688 12.2 
Q 304.904688 12.2 304.904688 14.2 
L 304.904688 57.234375 
Q 304.904688 59.234375 306.904688 59.234375 
z
" style="fill: #ffffff; opacity: 0.8; stroke: #cccccc; stroke-linejoin: miter"/>
    </g>
    <g id="line2d_20">
     <path d="M 308.904688 20.298438 
L 308.904688 20.298438 
L 318.904688 20.298438 
L 318.904688 20.298438 
L 328.904688 20.298438 
" style="fill: none; stroke: #1f77b4; stroke-width: 1.5; stroke-linecap: square"/>
    </g>
    <g id="text_19">
     <!-- monitor -->
     <g transform="translate(336.904688 23.798438) scale(0.1 -0.1)">
      <defs>
       <path id="DejaVuSans-6d" d="M 3328 2828 
Q 3544 3216 3844 3400 
Q 4144 3584 4550 3584 
Q 5097 3584 5394 3201 
Q 5691 2819 5691 2113 
L 5691 0 
L 5113 0 
L 5113 2094 
Q 5113 2597 4934 2840 
Q 4756 3084 4391 3084 
Q 3944 3084 3684 2787 
Q 3425 2491 3425 1978 
L 3425 0 
L 2847 0 
L 2847 2094 
Q 2847 2600 2669 2842 
Q 2491 3084 2119 3084 
Q 1678 3084 1418 2786 
Q 1159 2488 1159 1978 
L 1159 0 
L 581 0 
L 581 3500 
L 1159 3500 
L 1159 2956 
Q 1356 3278 1631 3431 
Q 1906 3584 2284 3584 
Q 2666 3584 2933 3390 
Q 3200 3197 3328 2828 
z
" transform="scale(0.015625)"/>
       <path id="DejaVuSans-69" d="M 603 3500 
L 1178 3500 
L 1178 0 
L 603 0 
L 603 3500 
z
M 603 4863 
L 1178 4863 
L 1178 4134 
L 603 4134 
L 603 4863 
z
" transform="scale(0.015625)"/>
       <path id="DejaVuSans-72" d="M 2631 2963 
Q 2534 3019 2420 3045 
Q 2306 3072 2169 3072 
Q 1681 3072 1420 2755 
Q 1159 2438 1159 1844 
L 1159 0 
L 581 0 
L 581 3500 
L 1159 3500 
L 1159 2956 
Q 1341 3275 1631 3429 
Q 1922 3584 2338 3584 
Q 2397 3584 2469 3576 
Q 2541 3569 2628 3553 
L 2631 2963 
z
" transform="scale(0.015625)"/>
      </defs>
      <use xlink:href="#DejaVuSans-6d"/>
      <use xlink:href="#DejaVuSans-6f" transform="translate(97.412109 0)"/>
      <use xlink:href="#DejaVuSans-6e" transform="translate(158.59375 0)"/>
      <use xlink:href="#DejaVuSans-69" transform="translate(221.972656 0)"/>
      <use xlink:href="#DejaVuSans-74" transform="translate(249.755859 0)"/>
      <use xlink:href="#DejaVuSans-6f" transform="translate(288.964844 0)"/>
      <use xlink:href="#DejaVuSans-72" transform="translate(350.146484 0)"/>
     </g>
    </g>
    <g id="line2d_21">
     <path d="M 308.904688 34.976562 
L 308.904688 34.976562 
L 318.904688 34.976562 
L 318.904688 34.976562 
L 328.904688 34.976562 
" style="fill: none; stroke: #ff7f0e; stroke-width: 1.5; stroke-linecap: square"/>
    </g>
    <g id="text_20">
     <!-- detector -->
     <g transform="translate(336.904688 38.476562) scale(0.1 -0.1)">
      <defs>
       <path id="DejaVuSans-64" d="M 2906 2969 
L 2906 4863 
L 3481 4863 
L 3481 0 
L 2906 0 
L 2906 525 
Q 2725 213 2448 61 
Q 2172 -91 1784 -91 
Q 1150 -91 751 415 
Q 353 922 353 1747 
Q 353 2572 751 3078 
Q 1150 3584 1784 3584 
Q 2172 3584 2448 3432 
Q 2725 3281 2906 2969 
z
M 947 1747 
Q 947 1113 1208 752 
Q 1469 391 1925 391 
Q 2381 391 2643 752 
Q 2906 1113 2906 1747 
Q 2906 2381 2643 2742 
Q 2381 3103 1925 3103 
Q 1469 3103 1208 2742 
Q 947 2381 947 1747 
z
" transform="scale(0.015625)"/>
      </defs>
      <use xlink:href="#DejaVuSans-64"/>
      <use xlink:href="#DejaVuSans-65" transform="translate(63.476562 0)"/>
      <use xlink:href="#DejaVuSans-74" transform="translate(125 0)"/>
      <use xlink:href="#DejaVuSans-65" transform="translate(164.208984 0)"/>
      <use xlink:href="#DejaVuSans-63" transform="translate(225.732422 0)"/>
      <use xlink:href="#DejaVuSans-74" transform="translate(280.712891 0)"/>
      <use xlink:href="#DejaVuSans-6f" transform="translate(319.921875 0)"/>
      <use xlink:href="#DejaVuSans-72" transform="translate(381.103516 0)"/>
     </g>
    </g>
    <g id="line2d_22">
     <path d="M 308.904688 49.654688 
L 308.904688 49.654688 
L 318.904688 49.654688 
L 318.904688 49.654688 
L 328.904688 49.654688 
" style="fill: none; stroke: #2ca02c; stroke-width: 1.5; stroke-linecap: square"/>
    </g>
    <g id="text_21">
     <!-- true -->
     <g transform="translate(336.904688 53.154688) scale(0.1 -0.1)">
      <use xlink:href="#DejaVuSans-74"/>
      <use xlink:href="#DejaVuSans-72" transform="translate(39.208984 0)"/>
      <use xlink:href="#DejaVuSans-75" transform="translate(80.322266 0)"/>
      <use xlink:href="#DejaVuSans-65" transform="translate(143.701172 0)"/>
     </g>
    </g>
   </g>
  </g>
 </g>
 <defs>
  <clipPath id="p00f7f12d5b">
   <rect x="53.328125" y="7.2" width="334.8" height="221.76"/>
  </clipPath>
 </defs>
</svg>
