<?xml version="1.0" encoding="utf-8" standalone="no"?>
<!DOCTYPE svg PUBLIC "-//W3C//DTD SVG 1.1//EN"
  "http://www.w3.org/Graphics/SVG/1.1/DTD/svg11.dtd">
<svg xmlns:xlink="http://www.w3.org/1999/xlink" width="395.328125pt" height="268.200625pt" viewBox="0 0 395.328125 268.200625" xmlns="http://www.w3.org/2000/svg" version="1.1">
 <metadata>
  <rdf:RDF xmlns:dc="http://purl.org/dc/elements/1.1/" xmlns:cc="http://creativecommons.org/ns#" xmlns:rdf="http://www.w3.org/1999/02/22-rdf-syntax-ns#">
   <cc:Work>
    <dc:type rdf:resource="http://purl.org/dc/dcmitype/StillImage"/>
    <dc:date>2026-02-24T15:35:27.527021</dc:date>
    <dc:format>image/svg+xml</dc:format>
    <dc:creator>
     <cc:Agent>
      <dc:title>Matplotlib v3.10.8, https://matplotlib.org/</dc:title>
     </cc:Agent>
    </dc:creator>
   </cc:Work>
  </rdf:RDF>
 </metadata>
 <defs>
  <style type="text/css">*{stroke-linejoin: round; stroke-linecap: butt}</style>
 </defs>
 <g id="figure_1">
  <g id="patch_1">
   <path d="M 0 268.200625 
L 395.328125 268.200625 
L 395.328125 0 
L 0 0 
z
" style="fill: #ffffff"/>
  </g>
  <g id="axes_1">
   <g id="patch_2">
    <path d="M 53.328125 228.96 
L 388.128125 228.96 
L 388.128125 7.2 
L 53.328125 7.2 
z
" style="fill: #ffffff"/>
   </g>
   <g id="matplotlib.axis_1">
    <g id="xtick_1">
     <g id="line2d_1">
      <defs>
       <path id="m5beec2c016" d="M 0 0 
L 0 3.5 
" style="stroke: #000000; stroke-width: 0.8"/>
      </defs>
      <g>
       <use xlink:href="#m5beec2c016" x="68.546307" y="228.96" style="stroke: #000000; stroke-width: 0.8"/>
      </g>
     </g>
     <g id="text_1">
      <!-- 1 -->
      <g transform="translate(65.365057 243.558437) scale(0.1 -0.1)">
       <defs>
        <path id="DejaVuSans-31" d="M 794 531 
L 1825 531 
L 1825 4091 
L 703 3866 
L 703 4441 
L 1819 4666 
L 2450 4666 
L 2450 531 
L 3481 531 
L 3481 0 
L 794 0 
L 794 531 
z
" transform="scale(0.015625)"/>
       </defs>
       <use xlink:href="#DejaVuSans-31"/>
      </g>
     </g>
    </g>
    <g id="xtick_2">
     <g id="line2d_2">
      <g>
       <use xlink:href="#m5beec2c016" x="112.026826" y="228.96" style="stroke: #000000; stroke-width: 0.8"/>
      </g>
     </g>
     <g id="text_2">
      <!-- 2 -->
      <g transform="translate(108.845576 243.558437) scale(0.1 -0.1)">
       <defs>
        <path id="DejaVuSans-32" d="M 1228 531 
L 3431 531 
L 3431 0 
L 469 0 
L 469 531 
Q 828 903 1448 1529 
Q 2069 2156 2228 2338 
Q 2531 2678 2651 2914 
Q 2772 3150 2772 3378 
Q 2772 3750 2511 3984 
Q 2250 4219 1831 4219 
Q 1534 4219 1204 4116 
Q 875 4013 500 3803 
L 500 4441 
Q 881 4594 1212 4672 
Q 1544 4750 1819 4750 
Q 2544 4750 2975 4387 
Q 3406 4025 3406 3419 
Q 3406 3131 3298 2873 
Q 3191 2616 2906 2266 
Q 2828 2175 2409 1742 
Q 1991 1309 1228 531 
z
" transform="scale(0.015625)"/>
       </defs>
       <use xlink:href="#DejaVuSans-32"/>
      </g>
     </g>
    </g>
    <g id="xtick_3">
     <g id="line2d_3">
      <g>
       <use xlink:href="#m5beec2c016" x="155.507346" y="228.96" style="stroke: #000000; stroke-width: 0.8"/>
      </g>
     </g>
     <g id="text_3">
      <!-- 3 -->
      <g transform="translate(152.326096 243.558437) scale(0.1 -0.1)">
       <defs>
        <path id="DejaVuSans-33" d="M 2597 2516 
Q 3050 2419 3304 2112 
Q 3559 1806 3559 1356 
Q 3559 666 3084 287 
Q 2609 -91 1734 -91 
Q 1441 -91 1130 -33 
Q 819 25 488 141 
L 488 750 
Q 750 597 1062 519 
Q 1375 441 1716 441 
Q 2309 441 2620 675 
Q 2931 909 2931 1356 
Q 2931 1769 2642 2001 
Q 2353 2234 1838 2234 
L 1294 2234 
L 1294 2753 
L 1863 2753 
Q 2328 2753 2575 2939 
Q 2822 3125 2822 3475 
Q 2822 3834 2567 4026 
Q 2313 4219 1838 4219 
Q 1578 4219 1281 4162 
Q 984 4106 628 3988 
L 628 4550 
Q 988 4650 1302 4700 
Q 1616 4750 1894 4750 
Q 2613 4750 3031 4423 
Q 3450 4097 3450 3541 
Q 3450 3153 3228 2886 
Q 3006 2619 2597 2516 
z
" transform="scale(0.015625)"/>
       </defs>
       <use xlink:href="#DejaVuSans-33"/>
      </g>
     </g>
    </g>
    <g id="xtick_4">
     <g id="line2d_4">
      <g>
       <use xlink:href="#m5beec2c016" x="198.987865" y="228.96" style="stroke: #000000; stroke-width: 0.8"/>
      </g>
     </g>
     <g id="text_4">
      <!-- 4 -->
      <g transform="translate(195.806615 243.558437) scale(0.1 -0.1)">
       <defs>
        <path id="DejaVuSans-34" d="M 2419 4116 
L 825 1625 
L 2419 1625 
L 2419 4116 
z
M 2253 4666 
L 3047 4666 
L 3047 1625 
L 3713 1625 
L 3713 1100 
L 3047 1100 
L 3047 0 
L 2419 0 
L 2419 1100 
L 313 1100 
L 313 1709 
L 2253 4666 
z
" transform="scale(0.015625)"/>
       </defs>
       <use xlink:href="#DejaVuSans-34"/>
      </g>
     </g>
    </g>
    <g id="xtick_5">
     <g id="line2d_5">
      <g>
       <use xlink:href="#m5beec2c016" x="242.468385" y="228.96" style="stroke: #000000; stroke-width: 0.8"/>
      </g>
     </g>
     <g id="text_5">
      <!-- 5 -->
      <g transform="translate(239.287135 243.558437) scale(0.1 -0.1)">
       <defs>
        <path id="DejaVuSans-35" d="M 691 4666 
L 3169 4666 
L 3169 4134 
L 1269 4134 
L 1269 2991 
Q 1406 3038 1543 3061 
Q 1681 3084 1819 3084 
Q 2600 3084 3056 2656 
Q 3513 2228 3513 1497 
Q 3513 744 3044 326 
Q 2575 -91 1722 -91 
Q 1428 -91 1123 -41 
Q 819 9 494 109 
L 494 744 
Q 775 591 1075 516 
Q 1375 441 1709 441 
Q 2250 441 2565 725 
Q 2881 1009 2881 1497 
Q 2881 1984 2565 2268 
Q 2250 2553 1709 2553 
Q 1456 2553 1204 2497 
Q 953 2441 691 2322 
L 691 4666 
z
" transform="scale(0.015625)"/>
       </defs>
       <use xlink:href="#DejaVuSans-35"/>
      </g>
     </g>
    </g>
    <g id="xtick_6">
     <g id="line2d_6">
      <g>
       <use xlink:href="#m5beec2c016" x="285.948904" y="228.96" style="stroke: #000000; stroke-width: 0.8"/>
      </g>
     </g>
     <g id="text_6">
      <!-- 6 -->
      <g transform="translate(282.767654 243.558437) scale(0.1 -0.1)">
       <defs>
        <path id="DejaVuSans-36" d="M 2113 2584 
Q 1688 2584 1439 2293 
Q 1191 2003 1191 1497 
Q 1191 994 1439 701 
Q 1688 409 2113 409 
Q 2538 409 2786 701 
Q 3034 994 3034 1497 
Q 3034 2003 2786 2293 
Q 2538 2584 2113 2584 
z
M 3366 4563 
L 3366 3988 
Q 3128 4100 2886 4159 
Q 2644 4219 2406 4219 
Q 1781 4219 1451 3797 
Q 1122 3375 1075 2522 
Q 1259 2794 1537 2939 
Q 1816 3084 2150 3084 
Q 2853 3084 3261 2657 
Q 3669 2231 3669 1497 
Q 3669 778 3244 343 
Q 2819 -91 2113 -91 
Q 1303 -91 875 529 
Q 447 1150 447 2328 
Q 447 3434 972 4092 
Q 1497 4750 2381 4750 
Q 2619 4750 2861 4703 
Q 3103 4656 3366 4563 
z
" transform="scale(0.015625)"/>
       </defs>
       <use xlink:href="#DejaVuSans-36"/>
      </g>
     </g>
    </g>
    <g id="xtick_7">
     <g id="line2d_7">
      <g>
       <use xlink:href="#m5beec2c016" x="329.429424" y="228.96" style="stroke: #000000; stroke-width: 0.8"/>
      </g>
     </g>
     <g id="text_7">
      <!-- 7 -->
      <g transform="translate(326.248174 243.558437) scale(0.1 -0.1)">
       <defs>
        <path id="DejaVuSans-37" d="M 525 4666 
L 3525 4666 
L 3525 4397 
L 1831 0 
L 1172 0 
L 2766 4134 
L 525 4134 
L 525 4666 
z
" transform="scale(0.015625)"/>
       </defs>
       <use xlink:href="#DejaVuSans-37"/>
      </g>
     </g>
    </g>
    <g id="xtick_8">
     <g id="line2d_8">
      <g>
       <use xlink:href="#m5beec2c016" x="372.909943" y="228.96" style="stroke: #000000; stroke-width: 0.8"/>
      </g>
     </g>
     <g id="text_8">
      <!-- 8 -->
      <g transform="translate(369.728693 243.558437) scale(0.1 -0.1)">
       <defs>
        <path id="DejaVuSans-38" d="M 2034 2216 
Q 1584 2216 1326 1975 
Q 1069 1734 1069 1313 
Q 1069 891 1326 650 
Q 1584 409 2034 409 
Q 2484 409 2743 651 
Q 3003 894 3003 1313 
Q 3003 1734 2745 1975 
Q 2488 2216 2034 2216 
z
M 1403 2484 
Q 997 2584 770 2862 
Q 544 3141 544 3541 
Q 544 4100 942 4425 
Q 1341 4750 2034 4750 
Q 2731 4750 3128 4425 
Q 3525 4100 3525 3541 
Q 3525 3141 3298 2862 
Q 3072 2584 2669 2484 
Q 3125 2378 3379 2068 
Q 3634 1759 3634 1313 
Q 3634 634 3220 271 
Q 2806 -91 2034 -91 
Q 1263 -91 848 271 
Q 434 634 434 1313 
Q 434 1759 690 2068 
Q 947 2378 1403 2484 
z
M 1172 3481 
Q 1172 3119 1398 2916 
Q 1625 2713 2034 2713 
Q 2441 2713 2670 2916 
Q 2900 3119 2900 3481 
Q 2900 3844 2670 4047 
Q 2441 4250 2034 4250 
Q 1625 4250 1398 4047 
Q 1172 3844 1172 3481 
z
" transform="scale(0.015625)"/>
       </defs>
       <use xlink:href="#DejaVuSans-38"/>
      </g>
     </g>
    </g>
    <g id="text_9">
     <!-- wavelength [Å] -->
     <g transform="translate(182.690625 258.920937) scale(0.1 -0.1)">
      <defs>
       <path id="DejaVuSans-77" d="M 269 3500 
L 844 3500 
L 1563 769 
L 2278 3500 
L 2956 3500 
L 3675 769 
L 4391 3500 
L 4966 3500 
L 4050 0 
L 3372 0 
L 2619 2869 
L 1863 0 
L 1184 0 
L 269 3500 
z
" transform="scale(0.015625)"/>
       <path id="DejaVuSans-61" d="M 2194 1759 
Q 1497 1759 1228 1600 
Q 959 1441 959 1056 
Q 959 750 1161 570 
Q 1363 391 1709 391 
Q 2188 391 2477 730 
Q 2766 1069 2766 1631 
L 2766 1759 
L 2194 1759 
z
M 3341 1997 
L 3341 0 
L 2766 0 
L 2766 531 
Q 2569 213 2275 61 
Q 1981 -91 1556 -91 
Q 1019 -91 701 211 
Q 384 513 384 1019 
Q 384 1609 779 1909 
Q 1175 2209 1959 2209 
L 2766 2209 
L 2766 2266 
Q 2766 2663 2505 2880 
Q 2244 3097 1772 3097 
Q 1472 3097 1187 3025 
Q 903 2953 641 2809 
L 641 3341 
Q 956 3463 1253 3523 
Q 1550 3584 1831 3584 
Q 2591 3584 2966 3190 
Q 3341 2797 3341 1997 
z
" transform="scale(0.015625)"/>
       <path id="DejaVuSans-76" d="M 191 3500 
L 800 3500 
L 1894 563 
L 2988 3500 
L 3597 3500 
L 2284 0 
L 1503 0 
L 191 3500 
z
" transform="scale(0.015625)"/>
       <path id="DejaVuSans-65" d="M 3597 1894 
L 3597 1613 
L 953 1613 
Q 991 1019 1311 708 
Q 1631 397 2203 397 
Q 2534 397 2845 478 
Q 3156 559 3463 722 
L 3463 178 
Q 3153 47 2828 -22 
Q 2503 -91 2169 -91 
Q 1331 -91 842 396 
Q 353 884 353 1716 
Q 353 2575 817 3079 
Q 1281 3584 2069 3584 
Q 2775 3584 3186 3129 
Q 3597 2675 3597 1894 
z
M 3022 2063 
Q 3016 2534 2758 2815 
Q 2500 3097 2075 3097 
Q 1594 3097 1305 2825 
Q 1016 2553 972 2059 
L 3022 2063 
z
" transform="scale(0.015625)"/>
       <path id="DejaVuSans-6c" d="M 603 4863 
L 1178 4863 
L 1178 0 
L 603 0 
L 603 4863 
z
" transform="scale(0.015625)"/>
       <path id="DejaVuSans-6e" d="M 3513 2113 
L 3513 0 
L 2938 0 
L 2938 2094 
Q 2938 2591 2744 2837 
Q 2550 3084 2163 3084 
Q 1697 3084 1428 2787 
Q 1159 2491 1159 1978 
L 1159 0 
L 581 0 
L 581 3500 
L 1159 3500 
L 1159 2956 
Q 1366 3272 1645 3428 
Q 1925 3584 2291 3584 
Q 2894 3584 3203 3211 
Q 3513 2838 3513 2113 
z
" transform="scale(0.015625)"/>
       <path id="DejaVuSans-67" d="M 2906 1791 
Q 2906 2416 2648 2759 
Q 2391 3103 1925 3103 
Q 1463 3103 1205 2759 
Q 947 2416 947 1791 
Q 947 1169 1205 825 
Q 1463 481 1925 481 
Q 2391 481 2648 825 
Q 2906 1169 2906 1791 
z
M 3481 434 
Q 3481 -459 3084 -895 
Q 2688 -1331 1869 -1331 
Q 1566 -1331 1297 -1286 
Q 1028 -1241 775 -1147 
L 775 -588 
Q 1028 -725 1275 -790 
Q 1522 -856 1778 -856 
Q 2344 -856 2625 -561 
Q 2906 -266 2906 331 
L 2906 616 
Q 2728 306 2450 153 
Q 2172 0 1784 0 
Q 1141 0 747 490 
Q 353 981 353 1791 
Q 353 2603 747 3093 
Q 1141 3584 1784 3584 
Q 2172 3584 2450 3431 
Q 2728 3278 2906 2969 
L 2906 3500 
L 3481 3500 
L 3481 434 
z
" transform="scale(0.015625)"/>
       <path id="DejaVuSans-74" d="M 1172 4494 
L 1172 3500 
L 2356 3500 
L 2356 3053 
L 1172 3053 
L 1172 1153 
Q 1172 725 1289 603 
Q 1406 481 1766 481 
L 2356 481 
L 2356 0 
L 1766 0 
Q 1100 0 847 248 
Q 594 497 594 1153 
L 594 3053 
L 172 3053 
L 172 3500 
L 594 3500 
L 594 4494 
L 1172 4494 
z
" transform="scale(0.015625)"/>
       <path id="DejaVuSans-68" d="M 3513 2113 
L 3513 0 
L 2938 0 
L 2938 2094 
Q 2938 2591 2744 2837 
Q 2550 3084 2163 3084 
Q 1697 3084 1428 2787 
Q 1159 2491 1159 1978 
L 1159 0 
L 581 0 
L 581 4863 
L 1159 4863 
L 1159 2956 
Q 1366 3272 1645 3428 
Q 1925 3584 2291 3584 
Q 2894 3584 3203 3211 
Q 3513 2838 3513 2113 
z
" transform="scale(0.015625)"/>
       <path id="DejaVuSans-20" transform="scale(0.015625)"/>
       <path id="DejaVuSans-5b" d="M 550 4863 
L 1875 4863 
L 1875 4416 
L 1125 4416 
L 1125 -397 
L 1875 -397 
L 1875 -844 
L 550 -844 
L 550 4863 
z
" transform="scale(0.015625)"/>
       <path id="DejaVuSans-c5" d="M 2663 5081 
Q 2663 5278 2523 5417 
Q 2384 5556 2188 5556 
Q 1988 5556 1852 5420 
Q 1716 5284 1716 5081 
Q 1716 4884 1853 4746 
Q 1991 4609 2188 4609 
Q 2384 4609 2523 4746 
Q 2663 4884 2663 5081 
z
M 2188 4044 
L 1338 1722 
L 3041 1722 
L 2188 4044 
z
M 1716 4366 
Q 1525 4494 1428 4673 
Q 1331 4853 1331 5081 
Q 1331 5441 1579 5691 
Q 1828 5941 2188 5941 
Q 2544 5941 2795 5689 
Q 3047 5438 3047 5081 
Q 3047 4863 2948 4678 
Q 2850 4494 2663 4366 
L 4325 0 
L 3669 0 
L 3244 1197 
L 1141 1197 
L 716 0 
L 50 0 
L 1716 4366 
z
" transform="scale(0.015625)"/>
       <path id="DejaVuSans-5d" d="M 1947 4863 
L 1947 -844 
L 622 -844 
L 622 -397 
L 1369 -397 
L 1369 4416 
L 622 4416 
L 622 4863 
L 1947 4863 
z
" transform="scale(0.015625)"/>
      </defs>
      <use xlink:href="#DejaVuSans-77"/>
      <use xlink:href="#DejaVuSans-61" transform="translate(81.787109 0)"/>
      <use xlink:href="#DejaVuSans-76" transform="translate(143.066406 0)"/>
      <use xlink:href="#DejaVuSans-65" transform="translate(202.246094 0)"/>
      <use xlink:href="#DejaVuSans-6c" transform="translate(263.769531 0)"/>
      <use xlink:href="#DejaVuSans-65" transform="translate(291.552734 0)"/>
      <use xlink:href="#DejaVuSans-6e" transform="translate(353.076172 0)"/>
      <use xlink:href="#DejaVuSans-67" transform="translate(416.455078 0)"/>
      <use xlink:href="#DejaVuSans-74" transform="translate(479.931641 0)"/>
      <use xlink:href="#DejaVuSans-68" transform="translate(519.140625 0)"/>
      <use xlink:href="#DejaVuSans-20" transform="translate(582.519531 0)"/>
      <use xlink:href="#DejaVuSans-5b" transform="translate(614.306641 0)"/>
      <use xlink:href="#DejaVuSans-c5" transform="translate(653.320312 0)"/>
      <use xlink:href="#DejaVuSans-5d" transform="translate(721.728516 0)"/>
     </g>
    </g>
   </g>
   <g id="matplotlib.axis_2">
    <g id="ytick_1">
     <g id="line2d_9">
      <defs>
       <path id="mefa9ac4b44" d="M 0 0 
L -3.5 0 
" style="stroke: #000000; stroke-width: 0.8"/>
      </defs>
      <g>
       <use xlink:href="#mefa9ac4b44" x="53.328125" y="218.88" style="stroke: #000000; stroke-width: 0.8"/>
      </g>
     </g>
     <g id="text_10">
      <!-- 0 -->
      <g transform="translate(39.965625 222.679219) scale(0.1 -0.1)">
       <defs>
        <path id="DejaVuSans-30" d="M 2034 4250 
Q 1547 4250 1301 3770 
Q 1056 3291 1056 2328 
Q 1056 1369 1301 889 
Q 1547 409 2034 409 
Q 2525 409 2770 889 
Q 3016 1369 3016 2328 
Q 3016 3291 2770 3770 
Q 2525 4250 2034 4250 
z
M 2034 4750 
Q 2819 4750 3233 4129 
Q 3647 3509 3647 2328 
Q 3647 1150 3233 529 
Q 2819 -91 2034 -91 
Q 1250 -91 836 529 
Q 422 1150 422 2328 
Q 422 3509 836 4129 
Q 1250 4750 2034 4750 
z
" transform="scale(0.015625)"/>
       </defs>
       <use xlink:href="#DejaVuSans-30"/>
      </g>
     </g>
    </g>
    <g id="ytick_2">
     <g id="line2d_10">
      <g>
       <use xlink:href="#mefa9ac4b44" x="53.328125" y="191.061592" style="stroke: #000000; stroke-width: 0.8"/>
      </g>
     </g>
     <g id="text_11">
      <!-- 1000 -->
      <g transform="translate(20.878125 194.860811) scale(0.1 -0.1)">
       <use xlink:href="#DejaVuSans-31"/>
       <use xlink:href="#DejaVuSans-30" transform="translate(63.623047 0)"/>
       <use xlink:href="#DejaVuSans-30" transform="translate(127.246094 0)"/>
       <use xlink:href="#DejaVuSans-30" transform="translate(190.869141 0)"/>
      </g>
     </g>
    </g>
    <g id="ytick_3">
     <g id="line2d_11">
      <g>
       <use xlink:href="#mefa9ac4b44" x="53.328125" y="163.243185" style="stroke: #000000; stroke-width: 0.8"/>
      </g>
     </g>
     <g id="text_12">
      <!-- 2000 -->
      <g transform="translate(20.878125 167.042404) scale(0.1 -0.1)">
       <use xlink:href="#DejaVuSans-32"/>
       <use xlink:href="#DejaVuSans-30" transform="translate(63.623047 0)"/>
       <use xlink:href="#DejaVuSans-30" transform="translate(127.246094 0)"/>
       <use xlink:href="#DejaVuSans-30" transform="translate(190.869141 0)"/>
      </g>
     </g>
    </g>
    <g id="ytick_4">
     <g id="line2d_12">
      <g>
       <use xlink:href="#mefa9ac4b44" x="53.328125" y="135.424777" style="stroke: #000000; stroke-width: 0.8"/>
      </g>
     </g>
     <g id="text_13">
      <!-- 3000 -->
      <g transform="translate(20.878125 139.223996) scale(0.1 -0.1)">
       <use xlink:href="#DejaVuSans-33"/>
       <use xlink:href="#DejaVuSans-30" transform="translate(63.623047 0)"/>
       <use xlink:href="#DejaVuSans-30" transform="translate(127.246094 0)"/>
       <use xlink:href="#DejaVuSans-30" transform="translate(190.869141 0)"/>
      </g>
     </g>
    </g>
    <g id="ytick_5">
     <g id="line2d_13">
      <g>
       <use xlink:href="#mefa9ac4b44" x="53.328125" y="107.60637" style="stroke: #000000; stroke-width: 0.8"/>
      </g>
     </g>
     <g id="text_14">
      <!-- 4000 -->
      <g transform="translate(20.878125 111.405588) scale(0.1 -0.1)">
       <use xlink:href="#DejaVuSans-34"/>
       <use xlink:href="#DejaVuSans-30" transform="translate(63.623047 0)"/>
       <use xlink:href="#DejaVuSans-30" transform="translate(127.246094 0)"/>
       <use xlink:href="#DejaVuSans-30" transform="translate(190.869141 0)"/>
      </g>
     </g>
    </g>
    <g id="ytick_6">
     <g id="line2d_14">
      <g>
       <use xlink:href="#mefa9ac4b44" x="53.328125" y="79.787962" style="stroke: #000000; stroke-width: 0.8"/>
      </g>
     </g>
     <g id="text_15">
      <!-- 5000 -->
      <g transform="translate(20.878125 83.587181) scale(0.1 -0.1)">
       <use xlink:href="#DejaVuSans-35"/>
       <use xlink:href="#DejaVuSans-30" transform="translate(63.623047 0)"/>
       <use xlink:href="#DejaVuSans-30" transform="translate(127.246094 0)"/>
       <use xlink:href="#DejaVuSans-30" transform="translate(190.869141 0)"/>
      </g>
     </g>
    </g>
    <g id="ytick_7">
     <g id="line2d_15">
      <g>
       <use xlink:href="#mefa9ac4b44" x="53.328125" y="51.969554" style="stroke: #000000; stroke-width: 0.8"/>
      </g>
     </g>
     <g id="text_16">
      <!-- 6000 -->
      <g transform="translate(20.878125 55.768773) scale(0.1 -0.1)">
       <use xlink:href="#DejaVuSans-36"/>
       <use xlink:href="#DejaVuSans-30" transform="translate(63.623047 0)"/>
       <use xlink:href="#DejaVuSans-30" transform="translate(127.246094 0)"/>
       <use xlink:href="#DejaVuSans-30" transform="translate(190.869141 0)"/>
      </g>
     </g>
    </g>
    <g id="ytick_8">
     <g id="line2d_16">
      <g>
       <use xlink:href="#mefa9ac4b44" x="53.328125" y="24.151147" style="stroke: #000000; stroke-width: 0.8"/>
      </g>
     </g>
     <g id="text_17">
      <!-- 7000 -->
      <g transform="translate(20.878125 27.950365) scale(0.1 -0.1)">
       <use xlink:href="#DejaVuSans-37"/>
       <use xlink:href="#DejaVuSans-30" transform="translate(63.623047 0)"/>
       <use xlink:href="#DejaVuSans-30" transform="translate(127.246094 0)"/>
       <use xlink:href="#DejaVuSans-30" transform="translate(190.869141 0)"/>
      </g>
     </g>
    </g>
    <g id="text_18">
     <!-- [counts] -->
     <g transform="translate(14.798438 138.6925) rotate(-90) scale(0.1 -0.1)">
      <defs>
       <path id="DejaVuSans-63" d="M 3122 3366 
L 3122 2828 
Q 2878 2963 2633 3030 
Q 2388 3097 2138 3097 
Q 1578 3097 1268 2742 
Q 959 2388 959 1747 
Q 959 1106 1268 751 
Q 1578 397 2138 397 
Q 2388 397 2633 464 
Q 2878 531 3122 666 
L 3122 134 
Q 2881 22 2623 -34 
Q 2366 -91 2075 -91 
Q 1284 -91 818 406 
Q 353 903 353 1747 
Q 353 2603 823 3093 
Q 1294 3584 2113 3584 
Q 2378 3584 2631 3529 
Q 2884 3475 3122 3366 
z
" transform="scale(0.015625)"/>
       <path id="DejaVuSans-6f" d="M 1959 3097 
Q 1497 3097 1228 2736 
Q 959 2375 959 1747 
Q 959 1119 1226 758 
Q 1494 397 1959 397 
Q 2419 397 2687 759 
Q 2956 1122 2956 1747 
Q 2956 2369 2687 2733 
Q 2419 3097 1959 3097 
z
M 1959 3584 
Q 2709 3584 3137 3096 
Q 3566 2609 3566 1747 
Q 3566 888 3137 398 
Q 2709 -91 1959 -91 
Q 1206 -91 779 398 
Q 353 888 353 1747 
Q 353 2609 779 3096 
Q 1206 3584 1959 3584 
z
" transform="scale(0.015625)"/>
       <path id="DejaVuSans-75" d="M 544 1381 
L 544 3500 
L 1119 3500 
L 1119 1403 
Q 1119 906 1312 657 
Q 1506 409 1894 409 
Q 2359 409 2629 706 
Q 2900 1003 2900 1516 
L 2900 3500 
L 3475 3500 
L 3475 0 
L 2900 0 
L 2900 538 
Q 2691 219 2414 64 
Q 2138 -91 1772 -91 
Q 1169 -91 856 284 
Q 544 659 544 1381 
z
M 1991 3584 
L 1991 3584 
z
" transform="scale(0.015625)"/>
       <path id="DejaVuSans-73" d="M 2834 3397 
L 2834 2853 
Q 2591 2978 2328 3040 
Q 2066 3103 1784 3103 
Q 1356 3103 1142 2972 
Q 928 2841 928 2578 
Q 928 2378 1081 2264 
Q 1234 2150 1697 2047 
L 1894 2003 
Q 2506 1872 2764 1633 
Q 3022 1394 3022 966 
Q 3022 478 2636 193 
Q 2250 -91 1575 -91 
Q 1294 -91 989 -36 
Q 684 19 347 128 
L 347 722 
Q 666 556 975 473 
Q 1284 391 1588 391 
Q 1994 391 2212 530 
Q 2431 669 2431 922 
Q 2431 1156 2273 1281 
Q 2116 1406 1581 1522 
L 1381 1569 
Q 847 1681 609 1914 
Q 372 2147 372 2553 
Q 372 3047 722 3315 
Q 1072 3584 1716 3584 
Q 2034 3584 2315 3537 
Q 2597 3491 2834 3397 
z
" transform="scale(0.015625)"/>
      </defs>
      <use xlink:href="#DejaVuSans-5b"/>
      <use xlink:href="#DejaVuSans-63" transform="translate(39.013672 0)"/>
      <use xlink:href="#DejaVuSans-6f" transform="translate(93.994141 0)"/>
      <use xlink:href="#DejaVuSans-75" transform="translate(155.175781 0)"/>
      <use xlink:href="#DejaVuSans-6e" transform="translate(218.554688 0)"/>
      <use xlink:href="#DejaVuSans-74" transform="translate(281.933594 0)"/>
      <use xlink:href="#DejaVuSans-73" transform="translate(321.142578 0)"/>
      <use xlink:href="#DejaVuSans-5d" transform="translate(373.242188 0)"/>
     </g>
    </g>
   </g>
   <g id="line2d_17">
    <path d="M 68.546307 218.88 
L 73.87267 218.88 
L 73.87267 218.768726 
L 76.916307 218.852182 
L 76.916307 218.601816 
L 77.677216 218.601816 
L 77.677216 218.71309 
L 79.199034 218.768726 
L 79.199034 218.88 
L 80.720852 218.88 
L 80.720852 218.685271 
L 81.481761 218.685271 
L 81.481761 218.546179 
L 82.24267 218.546179 
L 82.24267 218.212358 
L 83.00358 218.212358 
L 83.00358 218.740908 
L 83.764489 218.740908 
L 83.764489 218.573998 
L 84.525398 218.573998 
L 84.525398 218.128903 
L 85.286307 218.128903 
L 85.286307 218.629634 
L 86.047216 218.629634 
L 86.047216 218.35145 
L 87.569034 218.295813 
L 87.569034 218.128903 
L 88.329943 218.128903 
L 88.329943 217.906356 
L 89.090852 217.906356 
L 89.090852 218.379269 
L 89.851761 218.379269 
L 89.851761 217.822901 
L 90.61267 217.822901 
L 90.61267 218.156721 
L 91.37358 218.156721 
L 91.37358 217.155259 
L 92.134489 217.155259 
L 92.134489 217.628172 
L 92.895398 217.628172 
L 92.895398 216.849256 
L 93.656307 216.849256 
L 93.656307 217.683808 
L 94.417216 217.683808 
L 94.417216 216.737983 
L 95.178125 216.737983 
L 95.178125 217.405624 
L 95.939034 217.405624 
L 95.939034 217.071804 
L 96.699943 217.071804 
L 96.699943 216.320706 
L 98.221761 216.376343 
L 98.221761 216.181614 
L 98.98267 216.181614 
L 98.98267 216.014704 
L 99.74358 216.014704 
L 99.74358 215.513973 
L 100.504489 215.513973 
L 100.504489 215.347062 
L 101.265398 215.347062 
L 101.265398 214.929786 
L 102.026307 214.929786 
L 102.026307 214.51251 
L 102.787216 214.51251 
L 102.787216 213.844868 
L 103.548125 213.844868 
L 103.548125 213.483229 
L 104.309034 213.483229 
L 104.309034 212.59304 
L 105.069943 212.59304 
L 105.069943 211.341212 
L 105.830852 211.341212 
L 105.830852 211.035209 
L 106.591761 211.035209 
L 106.591761 210.117202 
L 107.35267 210.117202 
L 107.35267 209.032284 
L 108.11358 209.032284 
L 108.11358 208.003003 
L 108.874489 208.003003 
L 108.874489 206.000077 
L 109.635398 206.000077 
L 109.635398 205.08207 
L 110.396307 205.08207 
L 110.396307 203.774605 
L 111.157216 203.774605 
L 111.157216 199.518388 
L 111.918125 199.518388 
L 111.918125 197.904921 
L 112.679034 197.904921 
L 112.679034 194.455438 
L 113.439943 194.455438 
L 113.439943 188.363207 
L 114.200852 188.363207 
L 114.200852 190.9225 
L 114.961761 190.9225 
L 114.961761 187.500836 
L 115.72267 187.500836 
L 115.72267 187.167015 
L 116.48358 187.167015 
L 116.48358 177.792212 
L 117.244489 177.792212 
L 117.244489 174.787824 
L 118.005398 174.787824 
L 118.005398 173.369085 
L 118.766307 173.369085 
L 118.766307 171.171431 
L 119.527216 171.171431 
L 119.527216 165.134836 
L 120.288125 165.134836 
L 120.288125 163.243185 
L 121.049034 163.243185 
L 121.049034 161.128986 
L 121.809943 161.128986 
L 121.809943 159.849339 
L 122.570852 159.849339 
L 122.570852 148.694158 
L 123.331761 148.694158 
L 123.331761 151.559454 
L 124.09267 151.559454 
L 124.09267 148.137789 
L 124.85358 148.137789 
L 124.85358 132.642936 
L 125.614489 132.642936 
L 125.614489 134.395496 
L 126.375398 134.395496 
L 126.375398 137.761523 
L 127.136307 137.761523 
L 127.136307 122.711765 
L 127.897216 122.711765 
L 127.897216 122.600491 
L 128.658125 122.600491 
L 128.658125 119.262282 
L 129.419034 119.262282 
L 129.419034 111.111489 
L 130.179943 111.111489 
L 130.179943 107.300367 
L 130.940852 107.300367 
L 130.940852 100.123218 
L 131.701761 100.123218 
L 131.701761 103.183243 
L 132.46267 103.183243 
L 132.46267 95.978275 
L 133.22358 95.978275 
L 133.22358 88.856763 
L 133.984489 88.856763 
L 133.984489 80.288693 
L 134.745398 80.288693 
L 134.745398 91.69424 
L 135.506307 91.69424 
L 135.506307 74.196462 
L 136.267216 74.196462 
L 136.267216 75.531746 
L 137.028125 75.531746 
L 137.028125 73.083726 
L 137.789034 73.083726 
L 137.789034 49.271169 
L 138.549943 49.271169 
L 138.549943 65.183298 
L 139.310852 65.183298 
L 139.310852 60.593261 
L 140.071761 60.593261 
L 140.071761 69.550788 
L 140.83267 69.550788 
L 140.83267 67.436589 
L 141.59358 67.436589 
L 141.59358 44.152582 
L 142.354489 44.152582 
L 142.354489 59.8978 
L 143.115398 59.8978 
L 143.115398 63.93147 
L 143.876307 63.93147 
L 143.876307 41.982746 
L 144.637216 41.982746 
L 144.637216 41.843654 
L 145.398125 41.843654 
L 145.398125 47.32388 
L 146.159034 47.32388 
L 146.159034 68.660599 
L 146.919943 68.660599 
L 146.919943 33.192129 
L 147.680852 33.192129 
L 147.680852 47.824612 
L 148.441761 47.824612 
L 148.441761 51.218457 
L 149.20267 51.218457 
L 149.20267 29.464463 
L 149.96358 29.464463 
L 149.96358 45.40441 
L 150.724489 45.40441 
L 150.724489 47.935885 
L 151.485398 47.935885 
L 151.485398 58.645972 
L 152.246307 58.645972 
L 152.246307 23.761689 
L 153.007216 23.761689 
L 153.007216 39.562545 
L 153.768125 39.562545 
L 153.768125 46.09987 
L 154.529034 46.09987 
L 154.529034 50.495179 
L 155.289943 50.495179 
L 155.289943 38.477627 
L 156.050852 38.477627 
L 156.050852 49.187714 
L 156.811761 49.187714 
L 156.811761 55.919768 
L 157.57267 55.919768 
L 157.57267 26.599167 
L 158.33358 26.599167 
L 158.33358 59.174522 
L 159.094489 59.174522 
L 159.094489 48.965166 
L 159.855398 48.965166 
L 159.855398 37.615256 
L 160.616307 37.615256 
L 160.616307 32.329759 
L 161.377216 32.329759 
L 161.377216 49.521534 
L 162.138125 49.521534 
L 162.138125 43.596214 
L 162.899034 43.596214 
L 162.899034 28.574273 
L 163.659943 28.574273 
L 163.659943 58.979793 
L 164.420852 58.979793 
L 164.420852 37.309253 
L 165.181761 37.309253 
L 165.181761 47.713338 
L 165.94267 47.713338 
L 165.94267 39.089632 
L 166.70358 39.089632 
L 166.70358 54.417574 
L 167.464489 54.417574 
L 167.464489 61.12181 
L 168.225398 61.12181 
L 168.225398 40.619644 
L 168.986307 40.619644 
L 168.986307 57.672328 
L 169.747216 57.672328 
L 169.747216 40.647462 
L 170.508125 40.647462 
L 170.508125 36.057425 
L 171.269034 36.057425 
L 171.269034 60.648897 
L 172.029943 60.648897 
L 172.029943 72.110081 
L 172.790852 72.110081 
L 172.790852 61.372176 
L 173.551761 61.372176 
L 173.551761 59.452706 
L 174.31267 59.452706 
L 174.31267 58.729427 
L 175.07358 58.729427 
L 175.07358 82.903624 
L 175.834489 82.903624 
L 175.834489 60.42635 
L 176.595398 60.42635 
L 176.595398 56.698684 
L 177.356307 56.698684 
L 177.356307 92.91825 
L 178.117216 92.91825 
L 178.117216 65.85094 
L 178.878125 65.85094 
L 178.878125 86.297469 
L 179.639034 86.297469 
L 179.639034 64.404383 
L 180.399943 64.404383 
L 180.399943 79.787962 
L 181.160852 79.787962 
L 181.160852 85.129096 
L 181.921761 85.129096 
L 181.921761 91.610785 
L 182.68267 91.610785 
L 182.68267 85.184733 
L 183.44358 85.184733 
L 183.44358 81.985616 
L 184.204489 81.985616 
L 184.204489 98.843571 
L 184.965398 98.843571 
L 184.965398 101.514138 
L 185.726307 101.514138 
L 185.726307 87.048566 
L 186.487216 87.048566 
L 186.487216 80.650333 
L 187.248125 80.650333 
L 187.248125 84.628365 
L 188.009034 84.628365 
L 188.009034 112.891867 
L 188.769943 112.891867 
L 188.769943 93.947531 
L 189.530852 93.947531 
L 189.530852 105.575626 
L 190.291761 105.575626 
L 190.291761 98.982663 
L 191.05267 98.982663 
L 191.05267 113.782056 
L 191.81358 113.782056 
L 191.81358 98.676661 
L 192.574489 98.676661 
L 192.574489 122.377944 
L 193.335398 122.377944 
L 193.335398 104.156887 
L 194.096307 104.156887 
L 194.096307 104.379434 
L 194.857216 104.379434 
L 194.857216 117.370631 
L 195.618125 117.370631 
L 195.618125 100.707404 
L 196.379034 100.707404 
L 196.379034 122.906494 
L 197.139943 122.906494 
L 197.139943 124.269596 
L 197.900852 124.269596 
L 197.900852 108.635651 
L 198.661761 108.635651 
L 198.661761 116.730807 
L 199.42267 116.730807 
L 199.42267 127.051436 
L 200.18358 127.051436 
L 200.18358 118.093909 
L 200.944489 118.093909 
L 200.944489 130.83474 
L 201.705398 130.83474 
L 201.705398 103.099787 
L 202.466307 103.099787 
L 202.466307 139.486265 
L 203.227216 139.486265 
L 203.227216 129.944551 
L 203.988125 129.944551 
L 203.988125 115.006066 
L 204.749034 115.006066 
L 204.749034 131.140742 
L 205.509943 131.140742 
L 205.509943 138.456984 
L 206.270852 138.456984 
L 206.270852 121.849394 
L 207.031761 121.849394 
L 207.031761 125.660516 
L 207.79267 125.660516 
L 207.79267 141.183188 
L 208.55358 141.183188 
L 208.55358 133.755673 
L 209.314489 133.755673 
L 209.314489 127.301802 
L 210.075398 127.301802 
L 210.075398 135.814235 
L 210.836307 135.814235 
L 210.836307 135.063138 
L 211.597216 135.063138 
L 211.597216 135.786416 
L 212.358125 135.786416 
L 212.358125 143.019202 
L 213.119034 143.019202 
L 213.119034 144.354486 
L 213.879943 144.354486 
L 213.879943 128.21981 
L 214.640852 128.21981 
L 214.640852 140.96064 
L 215.401761 140.96064 
L 215.401761 147.358874 
L 216.16267 147.358874 
L 216.16267 151.642909 
L 216.92358 151.642909 
L 216.92358 136.342785 
L 217.684489 136.342785 
L 217.684489 145.606314 
L 218.445398 145.606314 
L 218.445398 159.432063 
L 219.206307 159.432063 
L 219.206307 131.947476 
L 219.967216 131.947476 
L 219.967216 145.16122 
L 220.728125 145.16122 
L 220.728125 146.941598 
L 221.489034 146.941598 
L 221.489034 143.019202 
L 222.249943 143.019202 
L 222.249943 154.202202 
L 223.010852 154.202202 
L 223.010852 150.279807 
L 223.771761 150.279807 
L 223.771761 156.51113 
L 224.53267 156.51113 
L 224.53267 144.827399 
L 225.29358 144.827399 
L 225.29358 169.168506 
L 226.054489 169.168506 
L 226.054489 160.322252 
L 226.815398 160.322252 
L 226.815398 162.770272 
L 227.576307 162.770272 
L 227.576307 139.514083 
L 228.337216 139.514083 
L 228.337216 157.429138 
L 229.098125 157.429138 
L 229.098125 154.396931 
L 229.859034 154.396931 
L 229.859034 162.492088 
L 230.619943 162.492088 
L 230.619943 160.377889 
L 231.380852 160.377889 
L 231.380852 159.348608 
L 232.141761 159.348608 
L 232.141761 162.603361 
L 232.90267 162.603361 
L 232.90267 164.55065 
L 233.66358 164.55065 
L 233.66358 163.020638 
L 234.424489 163.020638 
L 234.424489 162.464269 
L 235.185398 162.464269 
L 235.185398 168.027951 
L 235.946307 168.027951 
L 235.946307 154.953299 
L 236.707216 154.953299 
L 236.707216 163.410095 
L 237.468125 163.410095 
L 237.468125 171.449615 
L 238.229034 171.449615 
L 238.229034 168.779048 
L 238.989943 168.779048 
L 238.989943 164.272466 
L 239.750852 164.272466 
L 239.750852 168.333953 
L 240.511761 168.333953 
L 240.511761 170.6707 
L 241.27267 170.6707 
L 241.27267 173.257812 
L 242.03358 173.257812 
L 242.03358 170.754155 
L 242.794489 170.754155 
L 242.794489 164.884471 
L 243.555398 164.884471 
L 243.555398 173.369085 
L 244.316307 173.369085 
L 244.316307 178.904948 
L 245.077216 178.904948 
L 245.077216 159.070424 
L 245.838125 159.070424 
L 245.838125 175.03819 
L 246.599034 175.03819 
L 246.599034 177.764394 
L 247.359943 177.764394 
L 247.359943 176.59602 
L 248.120852 176.59602 
L 248.120852 175.37201 
L 248.881761 175.37201 
L 248.881761 171.143613 
L 249.64267 171.143613 
L 249.64267 168.528682 
L 250.40358 168.528682 
L 250.40358 191.395413 
L 251.164489 191.395413 
L 251.164489 188.112841 
L 251.925398 188.112841 
L 251.925398 174.231456 
L 252.686307 174.231456 
L 252.686307 176.456928 
L 253.447216 176.456928 
L 253.447216 184.051354 
L 254.208125 184.051354 
L 254.208125 186.026461 
L 254.969034 186.026461 
L 254.969034 175.03819 
L 255.729943 175.03819 
L 255.729943 186.276826 
L 256.490852 186.276826 
L 256.490852 187.918112 
L 257.251761 187.918112 
L 257.251761 181.992791 
L 258.01267 181.992791 
L 258.01267 189.53158 
L 258.77358 189.53158 
L 258.77358 187.528655 
L 259.534489 187.528655 
L 259.534489 194.288528 
L 260.295398 194.288528 
L 260.295398 189.948856 
L 261.056307 189.948856 
L 261.056307 186.721921 
L 261.817216 186.721921 
L 261.817216 190.366132 
L 262.578125 190.366132 
L 262.578125 190.199222 
L 263.339034 190.199222 
L 263.339034 196.152361 
L 264.099943 196.152361 
L 264.099943 195.957632 
L 264.860852 195.957632 
L 264.860852 190.393951 
L 265.621761 190.393951 
L 265.621761 192.981063 
L 266.38267 192.981063 
L 266.38267 196.931276 
L 267.14358 196.931276 
L 267.14358 197.320734 
L 267.904489 197.320734 
L 267.904489 196.291453 
L 268.665398 196.291453 
L 268.665398 197.265097 
L 270.187216 197.181642 
L 270.187216 201.493495 
L 270.948125 201.493495 
L 270.948125 202.216774 
L 271.709034 202.216774 
L 271.709034 200.297304 
L 272.469943 200.297304 
L 272.469943 198.767291 
L 273.230852 198.767291 
L 273.230852 199.65748 
L 273.991761 199.65748 
L 273.991761 201.93859 
L 274.75267 201.93859 
L 274.75267 202.383684 
L 275.51358 202.383684 
L 275.51358 205.026433 
L 276.274489 205.026433 
L 276.274489 201.048401 
L 277.035398 201.048401 
L 277.035398 209.032284 
L 277.796307 209.032284 
L 277.796307 204.664794 
L 278.557216 204.664794 
L 278.557216 204.191881 
L 279.318125 204.191881 
L 279.318125 206.667719 
L 280.079034 206.667719 
L 280.079034 204.887341 
L 280.839943 204.887341 
L 280.839943 207.669182 
L 281.600852 207.669182 
L 281.600852 207.390998 
L 282.361761 207.390998 
L 282.361761 208.253368 
L 283.12267 208.253368 
L 283.12267 209.477378 
L 283.88358 209.477378 
L 283.88358 208.893192 
L 284.644489 208.893192 
L 284.644489 208.336824 
L 285.405398 208.336824 
L 285.405398 211.869761 
L 286.166307 211.869761 
L 286.166307 209.839018 
L 286.927216 209.839018 
L 286.927216 209.950291 
L 287.688125 209.950291 
L 287.688125 209.227013 
L 288.449034 209.227013 
L 288.449034 210.812662 
L 289.209943 210.812662 
L 289.209943 211.869761 
L 289.970852 211.869761 
L 289.970852 211.396848 
L 290.731761 211.396848 
L 290.731761 210.812662 
L 291.49267 210.812662 
L 291.49267 213.149408 
L 292.25358 213.149408 
L 292.25358 211.758488 
L 293.014489 211.758488 
L 293.014489 213.594503 
L 293.775398 213.594503 
L 293.775398 214.067415 
L 294.536307 214.067415 
L 294.536307 213.149408 
L 295.297216 213.149408 
L 295.297216 213.2885 
L 296.058125 213.2885 
L 296.058125 215.708702 
L 296.819034 215.708702 
L 296.819034 215.04106 
L 298.340852 215.013241 
L 298.340852 215.569609 
L 299.101761 215.569609 
L 299.101761 214.540328 
L 299.86267 214.540328 
L 299.86267 216.292888 
L 300.62358 216.292888 
L 300.62358 216.904893 
L 301.384489 216.904893 
L 301.384489 215.986886 
L 302.145398 215.986886 
L 302.145398 216.571072 
L 302.906307 216.571072 
L 302.906307 216.988348 
L 303.667216 216.988348 
L 303.667216 217.266532 
L 304.428125 217.266532 
L 304.428125 217.628172 
L 305.949943 217.544716 
L 305.949943 218.017629 
L 306.710852 218.017629 
L 306.710852 217.767264 
L 307.471761 217.767264 
L 307.471761 218.212358 
L 308.23267 218.212358 
L 308.23267 218.379269 
L 308.99358 218.379269 
L 308.99358 218.18454 
L 309.754489 218.18454 
L 309.754489 218.379269 
L 310.515398 218.379269 
L 310.515398 218.490542 
L 311.276307 218.490542 
L 311.276307 218.768726 
L 312.798125 218.71309 
L 312.798125 218.88 
L 372.909943 218.88 
L 372.909943 218.88 
" clip-path="url(#p3a9f308a8b)" style="fill: none; stroke: #1f77b4; stroke-width: 1.5; stroke-linecap: square"/>
   </g>
   <g id="line2d_18">
    <path d="M 68.546307 218.88 
L 81.481761 218.88 
L 81.481761 218.740908 
L 82.24267 218.740908 
L 82.24267 218.35145 
L 83.00358 218.35145 
L 83.00358 218.768726 
L 84.525398 218.824363 
L 84.525398 218.407087 
L 86.047216 218.323632 
L 86.047216 218.295813 
L 86.808125 218.295813 
L 86.808125 218.434905 
L 87.569034 218.434905 
L 87.569034 217.989811 
L 88.329943 217.989811 
L 88.329943 218.212358 
L 89.090852 218.212358 
L 89.090852 217.934174 
L 90.61267 217.878537 
L 90.61267 218.045448 
L 91.37358 218.045448 
L 91.37358 217.628172 
L 92.895398 217.544716 
L 92.895398 216.682346 
L 93.656307 216.682346 
L 93.656307 217.48908 
L 94.417216 217.48908 
L 94.417216 217.600353 
L 95.178125 217.600353 
L 95.178125 216.96053 
L 96.699943 217.016167 
L 96.699943 215.402699 
L 97.460852 215.402699 
L 97.460852 216.821438 
L 98.221761 216.821438 
L 98.221761 216.459799 
L 98.98267 216.459799 
L 98.98267 216.014704 
L 99.74358 216.014704 
L 99.74358 215.430517 
L 100.504489 215.430517 
L 100.504489 215.680883 
L 101.265398 215.680883 
L 101.265398 215.096697 
L 102.026307 215.096697 
L 102.026307 214.262144 
L 102.787216 214.262144 
L 102.787216 212.982498 
L 103.548125 212.982498 
L 103.548125 213.566684 
L 104.309034 213.566684 
L 104.309034 212.537403 
L 105.069943 212.537403 
L 105.069943 210.590115 
L 105.830852 210.590115 
L 105.830852 212.565221 
L 106.591761 212.565221 
L 106.591761 209.393923 
L 108.11358 209.44956 
L 108.11358 208.114276 
L 108.874489 208.114276 
L 108.874489 205.415891 
L 109.635398 205.415891 
L 109.635398 205.94444 
L 110.396307 205.94444 
L 110.396307 202.494958 
L 111.157216 202.494958 
L 111.157216 200.575488 
L 111.918125 200.575488 
L 111.918125 194.956169 
L 112.679034 194.956169 
L 112.679034 194.733622 
L 113.439943 194.733622 
L 113.439943 191.145048 
L 114.200852 191.145048 
L 114.200852 190.616498 
L 114.961761 190.616498 
L 114.961761 185.776095 
L 115.72267 185.776095 
L 115.72267 187.167015 
L 116.48358 187.167015 
L 116.48358 176.929841 
L 117.244489 176.929841 
L 117.244489 176.568202 
L 118.005398 176.568202 
L 118.005398 170.893247 
L 118.766307 170.893247 
L 118.766307 168.667774 
L 119.527216 168.667774 
L 119.527216 169.474508 
L 120.288125 169.474508 
L 120.288125 165.802478 
L 121.049034 165.802478 
L 121.049034 156.538949 
L 121.809943 156.538949 
L 121.809943 158.514055 
L 122.570852 158.514055 
L 122.570852 151.003085 
L 123.331761 151.003085 
L 123.331761 150.669265 
L 124.09267 150.669265 
L 124.09267 145.355949 
L 124.85358 145.355949 
L 124.85358 134.256404 
L 125.614489 134.256404 
L 125.614489 135.452596 
L 126.375398 135.452596 
L 126.375398 135.702961 
L 127.136307 135.702961 
L 127.136307 117.815725 
L 127.897216 117.815725 
L 127.897216 128.21981 
L 128.658125 128.21981 
L 128.658125 117.593178 
L 129.419034 117.593178 
L 129.419034 111.473128 
L 130.179943 111.473128 
L 130.179943 106.354541 
L 130.940852 106.354541 
L 130.940852 99.984126 
L 131.701761 99.984126 
L 131.701761 103.433608 
L 132.46267 103.433608 
L 132.46267 88.105666 
L 133.22358 88.105666 
L 133.22358 97.035375 
L 133.984489 97.035375 
L 133.984489 87.827482 
L 134.745398 87.827482 
L 134.745398 80.678151 
L 135.506307 80.678151 
L 135.506307 75.921203 
L 136.267216 75.921203 
L 136.267216 71.804079 
L 137.028125 71.804079 
L 137.028125 66.462945 
L 137.789034 66.462945 
L 137.789034 54.946124 
L 138.549943 54.946124 
L 138.549943 71.052982 
L 139.310852 71.052982 
L 139.310852 61.344358 
L 140.071761 61.344358 
L 140.071761 63.625467 
L 140.83267 63.625467 
L 140.83267 57.143778 
L 141.59358 57.143778 
L 141.59358 69.467333 
L 142.354489 69.467333 
L 142.354489 39.673818 
L 143.115398 39.673818 
L 143.115398 55.391218 
L 143.876307 55.391218 
L 143.876307 63.375101 
L 144.637216 63.375101 
L 144.637216 44.792405 
L 145.398125 44.792405 
L 145.398125 47.045696 
L 146.159034 47.045696 
L 146.159034 37.114525 
L 146.919943 37.114525 
L 146.919943 49.354624 
L 147.680852 49.354624 
L 147.680852 50.884636 
L 148.441761 50.884636 
L 148.441761 42.26093 
L 149.20267 42.26093 
L 149.20267 46.378054 
L 149.96358 46.378054 
L 149.96358 44.597676 
L 150.724489 44.597676 
L 150.724489 58.534698 
L 151.485398 58.534698 
L 151.485398 33.943226 
L 152.246307 33.943226 
L 152.246307 46.684057 
L 153.007216 46.684057 
L 153.007216 37.809985 
L 153.768125 37.809985 
L 153.768125 32.691398 
L 154.529034 32.691398 
L 154.529034 51.357549 
L 155.289943 51.357549 
L 155.289943 41.120375 
L 156.050852 41.120375 
L 156.050852 48.102796 
L 156.811761 48.102796 
L 156.811761 37.503982 
L 157.57267 37.503982 
L 157.57267 53.889024 
L 158.33358 53.889024 
L 158.33358 46.044233 
L 159.094489 46.044233 
L 159.094489 41.871472 
L 159.855398 41.871472 
L 159.855398 66.518581 
L 160.616307 66.518581 
L 160.616307 34.332684 
L 161.377216 34.332684 
L 161.377216 17.28 
L 162.138125 17.28 
L 162.138125 47.908067 
L 162.899034 47.908067 
L 162.899034 52.943199 
L 163.659943 52.943199 
L 163.659943 41.927109 
L 164.420852 41.927109 
L 164.420852 46.127689 
L 165.181761 46.127689 
L 165.181761 52.108646 
L 165.94267 52.108646 
L 165.94267 51.079365 
L 166.70358 51.079365 
L 166.70358 42.483477 
L 167.464489 42.483477 
L 167.464489 52.720651 
L 168.225398 52.720651 
L 168.225398 65.600574 
L 168.986307 65.600574 
L 168.986307 38.700174 
L 169.747216 38.700174 
L 169.747216 53.388293 
L 170.508125 53.388293 
L 170.508125 62.457094 
L 171.269034 62.457094 
L 171.269034 32.441032 
L 172.029943 32.441032 
L 172.029943 67.992957 
L 172.790852 67.992957 
L 172.790852 49.60499 
L 173.551761 49.60499 
L 173.551761 72.916815 
L 174.31267 72.916815 
L 174.31267 60.120348 
L 175.07358 60.120348 
L 175.07358 69.356059 
L 175.834489 69.356059 
L 175.834489 61.733815 
L 176.595398 61.733815 
L 176.595398 84.572728 
L 177.356307 84.572728 
L 177.356307 69.717698 
L 178.117216 69.717698 
L 178.117216 78.42486 
L 178.878125 78.42486 
L 178.878125 75.28138 
L 179.639034 75.28138 
L 179.639034 72.443902 
L 180.399943 72.443902 
L 180.399943 73.612275 
L 181.160852 73.612275 
L 181.160852 89.663497 
L 181.921761 89.663497 
L 181.921761 77.89631 
L 182.68267 77.89631 
L 182.68267 91.582967 
L 183.44358 91.582967 
L 183.44358 99.539031 
L 184.204489 99.539031 
L 184.204489 87.938755 
L 184.965398 87.938755 
L 184.965398 89.413131 
L 185.726307 89.413131 
L 185.726307 85.852375 
L 186.487216 85.852375 
L 186.487216 99.455576 
L 187.248125 99.455576 
L 187.248125 85.824556 
L 188.009034 85.824556 
L 188.009034 102.34869 
L 188.769943 102.34869 
L 188.769943 97.64738 
L 189.530852 97.64738 
L 189.530852 100.039763 
L 190.291761 100.039763 
L 190.291761 103.823066 
L 191.05267 103.823066 
L 191.05267 96.312096 
L 191.81358 96.312096 
L 191.81358 115.478979 
L 192.574489 115.478979 
L 192.574489 114.06024 
L 193.335398 114.06024 
L 193.335398 100.540494 
L 194.096307 100.540494 
L 194.096307 122.850857 
L 194.857216 122.850857 
L 194.857216 108.886016 
L 195.618125 108.886016 
L 195.618125 112.891867 
L 196.379034 112.891867 
L 196.379034 110.193481 
L 197.139943 110.193481 
L 197.139943 111.055852 
L 197.900852 111.055852 
L 197.900852 121.348663 
L 198.661761 121.348663 
L 198.661761 116.396986 
L 199.42267 116.396986 
L 199.42267 126.46725 
L 200.18358 126.46725 
L 200.18358 116.396986 
L 200.944489 116.396986 
L 200.944489 127.774715 
L 201.705398 127.774715 
L 201.705398 119.429193 
L 202.466307 119.429193 
L 202.466307 127.885989 
L 203.227216 127.885989 
L 203.227216 124.436506 
L 203.988125 124.436506 
L 203.988125 136.203693 
L 204.749034 136.203693 
L 204.749034 116.730807 
L 205.509943 116.730807 
L 205.509943 125.855245 
L 206.270852 125.855245 
L 206.270852 128.525812 
L 207.031761 128.525812 
L 207.031761 132.976757 
L 207.79267 132.976757 
L 207.79267 133.672217 
L 208.55358 133.672217 
L 208.55358 135.007501 
L 209.314489 135.007501 
L 209.314489 137.1217 
L 210.075398 137.1217 
L 210.075398 127.830352 
L 210.836307 127.830352 
L 210.836307 147.108508 
L 211.597216 147.108508 
L 211.597216 140.710275 
L 212.358125 140.710275 
L 212.358125 127.385257 
L 213.119034 127.385257 
L 213.119034 136.787879 
L 213.879943 136.787879 
L 213.879943 143.798118 
L 214.640852 143.798118 
L 214.640852 140.79373 
L 215.401761 140.79373 
L 215.401761 143.659026 
L 216.16267 143.659026 
L 216.16267 141.099732 
L 216.92358 141.099732 
L 216.92358 142.351561 
L 217.684489 142.351561 
L 217.684489 148.777613 
L 218.445398 148.777613 
L 218.445398 154.42475 
L 219.206307 154.42475 
L 219.206307 134.701499 
L 219.967216 134.701499 
L 219.967216 151.364725 
L 220.728125 151.364725 
L 220.728125 150.75272 
L 221.489034 150.75272 
L 221.489034 143.575571 
L 222.249943 143.575571 
L 222.249943 147.748332 
L 223.010852 147.748332 
L 223.010852 143.158294 
L 223.771761 143.158294 
L 223.771761 166.025026 
L 224.53267 166.025026 
L 224.53267 149.862531 
L 225.29358 149.862531 
L 225.29358 155.509667 
L 226.054489 155.509667 
L 226.054489 152.115822 
L 226.815398 152.115822 
L 226.815398 159.320789 
L 227.576307 159.320789 
L 227.576307 158.514055 
L 228.337216 158.514055 
L 228.337216 151.865456 
L 229.098125 151.865456 
L 229.098125 167.388128 
L 229.859034 167.388128 
L 229.859034 151.921093 
L 230.619943 151.921093 
L 230.619943 158.736603 
L 231.380852 158.736603 
L 231.380852 153.8962 
L 232.141761 153.8962 
L 232.141761 167.471583 
L 232.90267 167.471583 
L 232.90267 162.130448 
L 233.66358 162.130448 
L 233.66358 162.297359 
L 234.424489 162.297359 
L 234.424489 165.24611 
L 235.946307 165.329565 
L 235.946307 160.322252 
L 236.707216 160.322252 
L 236.707216 169.780511 
L 237.468125 169.780511 
L 237.468125 172.645807 
L 238.229034 172.645807 
L 238.229034 159.209516 
L 238.989943 159.209516 
L 238.989943 163.437914 
L 239.750852 163.437914 
L 239.750852 166.609212 
L 240.511761 166.609212 
L 240.511761 174.565277 
L 241.27267 174.565277 
L 241.27267 161.434988 
L 242.03358 161.434988 
L 242.03358 176.095289 
L 242.794489 176.095289 
L 242.794489 183.634078 
L 243.555398 183.634078 
L 243.555398 153.033829 
L 244.316307 153.033829 
L 244.316307 177.569665 
L 245.077216 177.569665 
L 245.077216 176.679476 
L 245.838125 176.679476 
L 245.838125 169.585782 
L 246.599034 169.585782 
L 246.599034 176.373473 
L 247.359943 176.373473 
L 247.359943 166.386665 
L 248.120852 166.386665 
L 248.120852 179.57259 
L 248.881761 179.57259 
L 248.881761 176.540384 
L 249.64267 176.540384 
L 249.64267 180.685326 
L 250.40358 180.685326 
L 250.40358 181.937155 
L 251.164489 181.937155 
L 251.164489 171.032339 
L 251.925398 171.032339 
L 251.925398 184.830269 
L 252.686307 184.830269 
L 252.686307 187.000105 
L 253.447216 187.000105 
L 253.447216 182.02061 
L 254.208125 182.02061 
L 254.208125 177.013297 
L 254.969034 177.013297 
L 254.969034 181.547697 
L 255.729943 181.547697 
L 255.729943 186.527192 
L 256.490852 186.527192 
L 256.490852 181.547697 
L 257.251761 181.547697 
L 257.251761 186.861013 
L 258.01267 186.861013 
L 258.01267 186.165553 
L 258.77358 186.165553 
L 258.77358 190.115767 
L 259.534489 190.115767 
L 259.534489 190.560861 
L 260.295398 190.560861 
L 260.295398 191.061592 
L 261.056307 191.061592 
L 261.056307 190.727771 
L 261.817216 190.727771 
L 261.817216 185.887369 
L 262.578125 185.887369 
L 262.578125 193.954707 
L 263.339034 193.954707 
L 263.339034 191.840508 
L 264.099943 191.840508 
L 264.099943 195.679448 
L 264.860852 195.679448 
L 264.860852 192.702878 
L 265.621761 192.702878 
L 265.621761 194.511075 
L 266.38267 194.511075 
L 266.38267 194.928351 
L 267.904489 194.956169 
L 267.904489 198.350015 
L 268.665398 198.350015 
L 268.665398 195.707266 
L 269.426307 195.707266 
L 269.426307 201.771679 
L 270.187216 201.771679 
L 270.187216 198.461289 
L 270.948125 198.461289 
L 270.948125 197.682373 
L 271.709034 197.682373 
L 271.709034 203.134781 
L 272.469943 203.134781 
L 272.469943 198.09965 
L 273.230852 198.09965 
L 273.230852 202.383684 
L 273.991761 202.383684 
L 273.991761 201.104038 
L 274.75267 201.104038 
L 274.75267 203.301692 
L 275.51358 203.301692 
L 275.51358 200.18603 
L 276.274489 200.18603 
L 276.274489 205.193343 
L 277.035398 205.193343 
L 277.035398 206.973722 
L 277.796307 206.973722 
L 277.796307 203.079144 
L 278.557216 203.079144 
L 278.557216 207.418816 
L 279.318125 207.418816 
L 279.318125 204.664794 
L 280.079034 204.664794 
L 280.079034 208.336824 
L 280.839943 208.336824 
L 280.839943 204.970796 
L 281.600852 204.970796 
L 281.600852 207.724819 
L 282.361761 207.724819 
L 282.361761 208.781918 
L 283.12267 208.781918 
L 283.12267 207.697 
L 283.88358 207.697 
L 283.88358 208.781918 
L 284.644489 208.781918 
L 284.644489 209.922473 
L 285.405398 209.922473 
L 285.405398 210.228475 
L 286.927216 210.284112 
L 286.927216 210.478841 
L 287.688125 210.478841 
L 287.688125 209.004465 
L 288.449034 209.004465 
L 288.449034 211.508122 
L 289.209943 211.508122 
L 289.209943 210.757025 
L 290.731761 210.67357 
L 290.731761 210.979572 
L 291.49267 210.979572 
L 291.49267 214.317781 
L 292.25358 214.317781 
L 292.25358 210.812662 
L 293.014489 210.812662 
L 293.014489 214.3456 
L 293.775398 214.3456 
L 293.775398 213.538866 
L 294.536307 213.538866 
L 294.536307 213.789231 
L 296.058125 213.81705 
L 296.058125 214.67942 
L 296.819034 214.67942 
L 296.819034 215.068878 
L 298.340852 215.068878 
L 298.340852 215.569609 
L 299.101761 215.569609 
L 299.101761 214.373418 
L 299.86267 214.373418 
L 299.86267 216.598891 
L 301.384489 216.654527 
L 301.384489 216.098159 
L 302.145398 216.098159 
L 302.145398 216.571072 
L 302.906307 216.571072 
L 302.906307 217.238714 
L 303.667216 217.238714 
L 303.667216 216.932711 
L 304.428125 216.932711 
L 304.428125 217.600353 
L 305.949943 217.516898 
L 305.949943 218.045448 
L 307.471761 218.128903 
L 307.471761 217.878537 
L 308.23267 217.878537 
L 308.23267 218.35145 
L 308.99358 218.35145 
L 308.99358 218.212358 
L 310.515398 218.295813 
L 310.515398 218.546179 
L 311.276307 218.546179 
L 311.276307 218.88 
L 372.909943 218.88 
L 372.909943 218.88 
" clip-path="url(#p3a9f308a8b)" style="fill: none; stroke: #ff7f0e; stroke-width: 1.5; stroke-linecap: square"/>
   </g>
   <g id="line2d_19">
    <path d="M 68.546307 218.852182 
L 74.63358 218.852182 
L 74.63358 218.740908 
L 79.199034 218.796545 
L 79.199034 218.601816 
L 84.525398 218.657453 
L 84.525398 218.323632 
L 85.286307 218.323632 
L 85.286307 218.434905 
L 86.047216 218.434905 
L 86.047216 218.323632 
L 86.808125 218.323632 
L 86.808125 218.128903 
L 87.569034 218.128903 
L 87.569034 218.240177 
L 88.329943 218.240177 
L 88.329943 217.878537 
L 89.090852 217.878537 
L 89.090852 218.128903 
L 89.851761 218.128903 
L 89.851761 217.739445 
L 90.61267 217.739445 
L 90.61267 217.989811 
L 91.37358 217.989811 
L 91.37358 217.850719 
L 92.134489 217.850719 
L 92.134489 217.183077 
L 92.895398 217.183077 
L 92.895398 217.767264 
L 93.656307 217.767264 
L 93.656307 217.016167 
L 94.417216 217.016167 
L 94.417216 217.238714 
L 95.178125 217.238714 
L 95.178125 216.821438 
L 96.699943 216.737983 
L 96.699943 216.598891 
L 97.460852 216.598891 
L 97.460852 216.181614 
L 98.221761 216.181614 
L 98.221761 216.459799 
L 98.98267 216.459799 
L 98.98267 215.931249 
L 99.74358 215.931249 
L 99.74358 215.819975 
L 100.504489 215.819975 
L 100.504489 215.068878 
L 101.265398 215.068878 
L 101.265398 214.568147 
L 102.787216 214.651602 
L 102.787216 213.427592 
L 103.548125 213.427592 
L 103.548125 212.787769 
L 105.069943 212.75995 
L 105.069943 211.647214 
L 105.830852 211.647214 
L 105.830852 210.979572 
L 107.35267 211.035209 
L 107.35267 209.171376 
L 108.11358 209.171376 
L 108.11358 207.919547 
L 108.874489 207.919547 
L 108.874489 205.94444 
L 109.635398 205.94444 
L 109.635398 204.636975 
L 110.396307 204.636975 
L 110.396307 201.855135 
L 111.157216 201.855135 
L 111.157216 199.935664 
L 111.918125 199.935664 
L 111.918125 196.569637 
L 112.679034 196.569637 
L 112.679034 194.483257 
L 113.439943 194.483257 
L 113.439943 193.259247 
L 114.200852 193.259247 
L 114.200852 188.001568 
L 114.961761 188.001568 
L 114.961761 187.723383 
L 115.72267 187.723383 
L 115.72267 183.494986 
L 116.48358 183.494986 
L 116.48358 177.82003 
L 117.244489 177.82003 
L 117.244489 175.705831 
L 118.005398 175.705831 
L 118.005398 172.395441 
L 118.766307 172.395441 
L 118.766307 169.808329 
L 119.527216 169.808329 
L 119.527216 168.306135 
L 120.288125 168.306135 
L 120.288125 163.243185 
L 121.049034 163.243185 
L 121.049034 159.432063 
L 121.809943 159.432063 
L 121.809943 155.954762 
L 122.570852 155.954762 
L 122.570852 154.035292 
L 123.331761 154.035292 
L 123.331761 147.2476 
L 124.09267 147.2476 
L 124.09267 145.049946 
L 124.85358 145.049946 
L 124.85358 139.486265 
L 125.614489 139.486265 
L 125.614489 134.784954 
L 126.375398 134.784954 
L 126.375398 130.445282 
L 127.136307 130.445282 
L 127.136307 124.464325 
L 127.897216 124.464325 
L 127.897216 120.458474 
L 128.658125 120.458474 
L 128.658125 117.20372 
L 129.419034 117.20372 
L 129.419034 113.142233 
L 130.179943 113.142233 
L 130.179943 109.052927 
L 130.940852 109.052927 
L 130.940852 104.240342 
L 131.701761 104.240342 
L 131.701761 97.786472 
L 132.46267 97.786472 
L 132.46267 95.060268 
L 133.22358 95.060268 
L 133.22358 90.720596 
L 133.984489 90.720596 
L 133.984489 84.433636 
L 134.745398 84.433636 
L 134.745398 81.679614 
L 135.506307 81.679614 
L 135.506307 75.531746 
L 136.267216 75.531746 
L 136.267216 68.521507 
L 137.028125 68.521507 
L 137.028125 66.908039 
L 137.789034 66.908039 
L 137.789034 66.268216 
L 139.310852 66.240397 
L 139.310852 58.395606 
L 140.071761 58.395606 
L 140.071761 60.621079 
L 140.83267 60.621079 
L 140.83267 59.591798 
L 141.59358 59.591798 
L 141.59358 61.845089 
L 142.354489 61.845089 
L 142.354489 54.083753 
L 143.115398 54.083753 
L 143.115398 49.549353 
L 143.876307 49.549353 
L 143.876307 48.770437 
L 144.637216 48.770437 
L 144.637216 47.546427 
L 145.398125 47.546427 
L 145.398125 48.297524 
L 146.159034 48.297524 
L 146.159034 45.293136 
L 146.919943 45.293136 
L 146.919943 51.635733 
L 147.680852 51.635733 
L 147.680852 46.183326 
L 148.441761 46.183326 
L 148.441761 46.600602 
L 149.20267 46.600602 
L 149.20267 49.938811 
L 149.96358 49.938811 
L 149.96358 43.373666 
L 150.724489 43.373666 
L 150.724489 44.1804 
L 151.485398 44.1804 
L 151.485398 47.407335 
L 152.246307 47.407335 
L 152.246307 42.928572 
L 153.007216 42.928572 
L 153.007216 40.258005 
L 153.768125 40.258005 
L 153.768125 42.511296 
L 154.529034 42.511296 
L 154.529034 40.035457 
L 155.289943 40.035457 
L 155.289943 40.925646 
L 156.050852 40.925646 
L 156.050852 46.183326 
L 156.811761 46.183326 
L 156.811761 43.568395 
L 157.57267 43.568395 
L 157.57267 45.849505 
L 158.33358 45.849505 
L 158.33358 45.209681 
L 159.094489 45.209681 
L 159.094489 46.990059 
L 159.855398 46.990059 
L 159.855398 43.65185 
L 160.616307 43.65185 
L 160.616307 39.757273 
L 161.377216 39.757273 
L 161.377216 44.402947 
L 162.138125 44.402947 
L 162.138125 39.896365 
L 162.899034 39.896365 
L 162.899034 47.129151 
L 164.420852 47.212607 
L 164.420852 49.855355 
L 165.181761 49.855355 
L 165.181761 51.274094 
L 165.94267 51.274094 
L 165.94267 49.521534 
L 166.70358 49.521534 
L 166.70358 55.279945 
L 167.464489 55.279945 
L 167.464489 48.214069 
L 168.225398 48.214069 
L 168.225398 50.189176 
L 168.986307 50.189176 
L 168.986307 52.442467 
L 169.747216 52.442467 
L 169.747216 49.048621 
L 170.508125 49.048621 
L 170.508125 54.612303 
L 171.269034 54.612303 
L 171.269034 53.833388 
L 172.029943 53.833388 
L 172.029943 60.315077 
L 172.790852 60.315077 
L 172.790852 58.979793 
L 173.551761 58.979793 
L 173.551761 59.285796 
L 174.31267 59.285796 
L 174.31267 67.853865 
L 175.07358 67.853865 
L 175.07358 70.91389 
L 175.834489 70.91389 
L 175.834489 68.549325 
L 177.356307 68.63278 
L 177.356307 72.555176 
L 178.117216 72.555176 
L 178.117216 73.751367 
L 178.878125 73.751367 
L 178.878125 76.004658 
L 179.639034 76.004658 
L 179.639034 76.727937 
L 180.399943 76.727937 
L 180.399943 82.013435 
L 181.160852 82.013435 
L 181.160852 78.480497 
L 181.921761 78.480497 
L 181.921761 82.013435 
L 182.68267 82.013435 
L 182.68267 84.155452 
L 183.44358 84.155452 
L 183.44358 91.221327 
L 184.204489 91.221327 
L 184.204489 90.108591 
L 184.965398 90.108591 
L 184.965398 91.722059 
L 185.726307 91.722059 
L 185.726307 94.865539 
L 186.487216 94.865539 
L 186.487216 92.695703 
L 187.248125 92.695703 
L 187.248125 95.227178 
L 188.009034 95.227178 
L 188.009034 96.868464 
L 188.769943 96.868464 
L 188.769943 99.511213 
L 189.530852 99.511213 
L 189.530852 100.290128 
L 190.291761 100.290128 
L 190.291761 102.237417 
L 191.05267 102.237417 
L 191.05267 103.683974 
L 191.81358 103.683974 
L 191.81358 109.915297 
L 192.574489 109.915297 
L 192.574489 108.913835 
L 193.335398 108.913835 
L 193.335398 110.527302 
L 194.857216 110.471666 
L 194.857216 112.613683 
L 195.618125 112.613683 
L 195.618125 114.700063 
L 196.379034 114.700063 
L 196.379034 112.474591 
L 197.139943 112.474591 
L 197.139943 113.559509 
L 197.900852 113.559509 
L 197.900852 115.45116 
L 198.661761 115.45116 
L 198.661761 121.682484 
L 199.42267 121.682484 
L 199.42267 122.850857 
L 200.18358 122.850857 
L 200.18358 121.209571 
L 200.944489 121.209571 
L 200.944489 123.045586 
L 201.705398 123.045586 
L 201.705398 123.768864 
L 202.466307 123.768864 
L 202.466307 125.493606 
L 203.227216 125.493606 
L 203.227216 127.051436 
L 203.988125 127.051436 
L 203.988125 127.85817 
L 204.749034 127.85817 
L 204.749034 125.688334 
L 205.509943 125.688334 
L 205.509943 128.025081 
L 206.270852 128.025081 
L 206.270852 128.943088 
L 207.031761 128.943088 
L 207.031761 129.109999 
L 207.79267 129.109999 
L 207.79267 130.862558 
L 208.55358 130.862558 
L 208.55358 132.364752 
L 209.314489 132.364752 
L 209.314489 138.150981 
L 210.075398 138.150981 
L 210.075398 134.840591 
L 210.836307 134.840591 
L 210.836307 138.762986 
L 211.597216 138.762986 
L 211.597216 136.342785 
L 212.358125 136.342785 
L 212.358125 137.038245 
L 213.119034 137.038245 
L 213.119034 140.153906 
L 213.879943 140.153906 
L 213.879943 140.320817 
L 214.640852 140.320817 
L 214.640852 141.211006 
L 215.401761 141.211006 
L 215.401761 141.572645 
L 216.16267 141.572645 
L 216.16267 144.660488 
L 216.92358 144.660488 
L 216.92358 142.407197 
L 217.684489 142.407197 
L 217.684489 145.606314 
L 218.445398 145.606314 
L 218.445398 147.331056 
L 219.206307 147.331056 
L 219.206307 146.357411 
L 219.967216 146.357411 
L 219.967216 148.137789 
L 220.728125 148.137789 
L 220.728125 149.973804 
L 221.489034 149.973804 
L 221.489034 146.746869 
L 222.249943 146.746869 
L 222.249943 149.973804 
L 223.010852 149.973804 
L 223.010852 150.307625 
L 223.771761 150.307625 
L 223.771761 150.585809 
L 224.53267 150.585809 
L 224.53267 151.281269 
L 225.29358 151.281269 
L 225.29358 155.203665 
L 226.054489 155.203665 
L 226.054489 153.868381 
L 226.815398 153.868381 
L 226.815398 156.956225 
L 227.576307 156.956225 
L 227.576307 159.320789 
L 228.337216 159.320789 
L 228.337216 155.760033 
L 229.098125 155.760033 
L 229.098125 158.625329 
L 229.859034 158.625329 
L 229.859034 157.846414 
L 230.619943 157.846414 
L 230.619943 159.292971 
L 231.380852 159.292971 
L 231.380852 159.765884 
L 232.141761 159.765884 
L 232.141761 161.713172 
L 232.90267 161.713172 
L 232.90267 163.994282 
L 233.66358 163.994282 
L 233.66358 162.603361 
L 234.424489 162.603361 
L 234.424489 162.325177 
L 235.185398 162.325177 
L 235.185398 164.578468 
L 235.946307 164.578468 
L 235.946307 163.577006 
L 236.707216 163.577006 
L 236.707216 165.524294 
L 237.468125 165.524294 
L 237.468125 164.634105 
L 238.229034 164.634105 
L 238.229034 165.746841 
L 238.989943 165.746841 
L 238.989943 167.16558 
L 239.750852 167.16558 
L 239.750852 166.442302 
L 240.511761 166.442302 
L 240.511761 168.22268 
L 241.27267 168.22268 
L 241.27267 170.809792 
L 242.794489 170.809792 
L 242.794489 171.115794 
L 243.555398 171.115794 
L 243.555398 172.395441 
L 244.316307 172.395441 
L 244.316307 173.229993 
L 245.838125 173.174356 
L 245.838125 171.53307 
L 246.599034 171.53307 
L 246.599034 173.619451 
L 247.359943 173.619451 
L 247.359943 175.316374 
L 248.120852 175.316374 
L 248.120852 177.847849 
L 248.881761 177.847849 
L 248.881761 176.345655 
L 249.64267 176.345655 
L 249.64267 176.067471 
L 250.40358 176.067471 
L 250.40358 178.459854 
L 251.164489 178.459854 
L 251.164489 180.824418 
L 251.925398 180.824418 
L 251.925398 181.32515 
L 252.686307 181.32515 
L 252.686307 181.464242 
L 253.447216 181.464242 
L 253.447216 180.852237 
L 254.208125 180.852237 
L 254.208125 180.351505 
L 254.969034 180.351505 
L 254.969034 183.24462 
L 255.729943 183.24462 
L 255.729943 185.581366 
L 256.490852 185.581366 
L 256.490852 184.552085 
L 257.251761 184.552085 
L 257.251761 184.99718 
L 258.01267 184.99718 
L 258.01267 188.196296 
L 258.77358 188.196296 
L 258.77358 188.085023 
L 259.534489 188.085023 
L 259.534489 187.806839 
L 260.295398 187.806839 
L 260.295398 190.115767 
L 261.056307 190.115767 
L 261.056307 189.197759 
L 261.817216 189.197759 
L 261.817216 190.727771 
L 262.578125 190.727771 
L 262.578125 192.925426 
L 263.339034 192.925426 
L 263.339034 193.036699 
L 264.099943 193.036699 
L 264.099943 193.314883 
L 264.860852 193.314883 
L 264.860852 193.926888 
L 265.621761 193.926888 
L 265.621761 194.789259 
L 266.38267 194.789259 
L 266.38267 194.205072 
L 267.14358 194.205072 
L 267.14358 196.235816 
L 267.904489 196.235816 
L 267.904489 195.901995 
L 268.665398 195.901995 
L 268.665398 198.377834 
L 269.426307 198.377834 
L 269.426307 198.544744 
L 270.187216 198.544744 
L 270.187216 199.212386 
L 270.948125 199.212386 
L 270.948125 199.017657 
L 271.709034 199.017657 
L 271.709034 201.660406 
L 272.469943 201.660406 
L 272.469943 200.686761 
L 273.230852 200.686761 
L 273.230852 200.074756 
L 273.991761 200.074756 
L 273.991761 201.799498 
L 274.75267 201.799498 
L 274.75267 202.494958 
L 275.51358 202.494958 
L 275.51358 202.995689 
L 276.274489 202.995689 
L 276.274489 203.357329 
L 277.035398 203.357329 
L 277.035398 204.998615 
L 277.796307 204.998615 
L 277.796307 205.582801 
L 278.557216 205.582801 
L 278.557216 205.443709 
L 279.318125 205.443709 
L 279.318125 206.278261 
L 280.079034 206.278261 
L 280.079034 206.723356 
L 280.839943 206.723356 
L 280.839943 206.194806 
L 281.600852 206.194806 
L 281.600852 206.695537 
L 282.361761 206.695537 
L 282.361761 208.503734 
L 283.88358 208.503734 
L 283.88358 209.143557 
L 284.644489 209.143557 
L 284.644489 209.44956 
L 285.405398 209.44956 
L 285.405398 210.061565 
L 286.166307 210.061565 
L 286.166307 209.282649 
L 286.927216 209.282649 
L 286.927216 210.172838 
L 287.688125 210.172838 
L 287.688125 211.035209 
L 288.449034 211.035209 
L 288.449034 210.506659 
L 289.209943 210.506659 
L 289.209943 210.951754 
L 289.970852 210.951754 
L 289.970852 210.617933 
L 290.731761 210.617933 
L 290.731761 211.758488 
L 292.25358 211.675032 
L 292.25358 213.483229 
L 293.775398 213.511047 
L 293.775398 213.622321 
L 294.536307 213.622321 
L 294.536307 214.150871 
L 296.819034 214.150871 
L 296.819034 214.846331 
L 297.579943 214.846331 
L 297.579943 215.068878 
L 298.340852 215.068878 
L 298.340852 215.347062 
L 299.101761 215.347062 
L 299.101761 215.708702 
L 299.86267 215.708702 
L 299.86267 215.819975 
L 300.62358 215.819975 
L 300.62358 216.515435 
L 301.384489 216.515435 
L 301.384489 216.348525 
L 302.906307 216.43198 
L 302.906307 217.071804 
L 303.667216 217.071804 
L 303.667216 217.210896 
L 304.428125 217.210896 
L 304.428125 217.322169 
L 305.189034 217.322169 
L 305.189034 217.711627 
L 305.949943 217.711627 
L 305.949943 217.878537 
L 307.471761 217.961993 
L 307.471761 218.101085 
L 308.23267 218.101085 
L 308.23267 218.434905 
L 308.99358 218.434905 
L 308.99358 218.128903 
L 309.754489 218.128903 
L 309.754489 218.240177 
L 310.515398 218.240177 
L 310.515398 218.657453 
L 312.798125 218.71309 
L 312.798125 218.852182 
L 372.909943 218.88 
L 372.909943 218.88 
" clip-path="url(#p3a9f308a8b)" style="fill: none; stroke: #2ca02c; stroke-width: 1.5; stroke-linecap: square"/>
   </g>
   <g id="patch_3">
    <path d="M 53.328125 228.96 
L 53.328125 7.2 
" style="fill: none; stroke: #000000; stroke-width: 0.8; stroke-linejoin: miter; stroke-linecap: square"/>
   </g>
   <g id="patch_4">
    <path d="M 388.128125 228.96 
L 388.128125 7.2 
" style="fill: none; stroke: #000000; stroke-width: 0.8; stroke-linejoin: miter; stroke-linecap: square"/>
   </g>
   <g id="patch_5">
    <path d="M 53.328125 228.96 
L 388.128125 228.96 
" style="fill: none; stroke: #000000; stroke-width: 0.8; stroke-linejoin: miter; stroke-linecap: square"/>
   </g>
   <g id="patch_6">
    <path d="M 53.328125 7.2 
L 388.128125 7.2 
" style="fill: none; stroke: #000000; stroke-width: 0.8; stroke-linejoin: miter; stroke-linecap: square"/>
   </g>
   <g id="legend_1">
    <g id="patch_7">
     <path d="M 306.904688 59.234375 
L 381.128125 59.234375 
Q 383.128125 59.234375 383.128125 57.234375 
L 383.128125 14.2 
Q 383.128125 12.2 381.128125 12.2 
L 306.904688 12.2 
Q 304.904688 12.2 304.904688 14.2 
L 304.904688 57.234375 
Q 304.904688 59.234375 306.904688 59.234375 
z
" style="fill: #ffffff; opacity: 0.8; stroke: #cccccc; stroke-linejoin: miter"/>
    </g>
    <g id="line2d_20">
     <path d="M 308.904688 20.298438 
L 308.904688 20.298438 
L 318.904688 20.298438 
L 318.904688 20.298438 
L 328.904688 20.298438 
" style="fill: none; stroke: #1f77b4; stroke-width: 1.5; stroke-linecap: square"/>
    </g>
    <g id="text_19">
     <!-- monitor -->
     <g transform="translate(336.904688 23.798438) scale(0.1 -0.1)">
      <defs>
       <path id="DejaVuSans-6d" d="M 3328 2828 
Q 3544 3216 3844 3400 
Q 4144 3584 4550 3584 
Q 5097 3584 5394 3201 
Q 5691 2819 5691 2113 
L 5691 0 
L 5113 0 
L 5113 2094 
Q 5113 2597 4934 2840 
Q 4756 3084 4391 3084 
Q 3944 3084 3684 2787 
Q 3425 2491 3425 1978 
L 3425 0 
L 2847 0 
L 2847 2094 
Q 2847 2600 2669 2842 
Q 2491 3084 2119 3084 
Q 1678 3084 1418 2786 
Q 1159 2488 1159 1978 
L 1159 0 
L 581 0 
L 581 3500 
L 1159 3500 
L 1159 2956 
Q 1356 3278 1631 3431 
Q 1906 3584 2284 3584 
Q 2666 3584 2933 3390 
Q 3200 3197 3328 2828 
z
" transform="scale(0.015625)"/>
       <path id="DejaVuSans-69" d="M 603 3500 
L 1178 3500 
L 1178 0 
L 603 0 
L 603 3500 
z
M 603 4863 
L 1178 4863 
L 1178 4134 
L 603 4134 
L 603 4863 
z
" transform="scale(0.015625)"/>
       <path id="DejaVuSans-72" d="M 2631 2963 
Q 2534 3019 2420 3045 
Q 2306 3072 2169 3072 
Q 1681 3072 1420 2755 
Q 1159 2438 1159 1844 
L 1159 0 
L 581 0 
L 581 3500 
L 1159 3500 
L 1159 2956 
Q 1341 3275 1631 3429 
Q 1922 3584 2338 3584 
Q 2397 3584 2469 3576 
Q 2541 3569 2628 3553 
L 2631 2963 
z
" transform="scale(0.015625)"/>
      </defs>
      <use xlink:href="#DejaVuSans-6d"/>
      <use xlink:href="#DejaVuSans-6f" transform="translate(97.412109 0)"/>
      <use xlink:href="#DejaVuSans-6e" transform="translate(158.59375 0)"/>
      <use xlink:href="#DejaVuSans-69" transform="translate(221.972656 0)"/>
      <use xlink:href="#DejaVuSans-74" transform="translate(249.755859 0)"/>
      <use xlink:href="#DejaVuSans-6f" transform="translate(288.964844 0)"/>
      <use xlink:href="#DejaVuSans-72" transform="translate(350.146484 0)"/>
     </g>
    </g>
    <g id="line2d_21">
     <path d="M 308.904688 34.976562 
L 308.904688 34.976562 
L 318.904688 34.976562 
L 318.904688 34.976562 
L 328.904688 34.976562 
" style="fill: none; stroke: #ff7f0e; stroke-width: 1.5; stroke-linecap: square"/>
    </g>
    <g id="text_20">
     <!-- detector -->
     <g transform="translate(336.904688 38.476562) scale(0.1 -0.1)">
      <defs>
       <path id="DejaVuSans-64" d="M 2906 2969 
L 2906 4863 
L 3481 4863 
L 3481 0 
L 2906 0 
L 2906 525 
Q 2725 213 2448 61 
Q 2172 -91 1784 -91 
Q 1150 -91 751 415 
Q 353 922 353 1747 
Q 353 2572 751 3078 
Q 1150 3584 1784 3584 
Q 2172 3584 2448 3432 
Q 2725 3281 2906 2969 
z
M 947 1747 
Q 947 1113 1208 752 
Q 1469 391 1925 391 
Q 2381 391 2643 752 
Q 2906 1113 2906 1747 
Q 2906 2381 2643 2742 
Q 2381 3103 1925 3103 
Q 1469 3103 1208 2742 
Q 947 2381 947 1747 
z
" transform="scale(0.015625)"/>
      </defs>
      <use xlink:href="#DejaVuSans-64"/>
      <use xlink:href="#DejaVuSans-65" transform="translate(63.476562 0)"/>
      <use xlink:href="#DejaVuSans-74" transform="translate(125 0)"/>
      <use xlink:href="#DejaVuSans-65" transform="translate(164.208984 0)"/>
      <use xlink:href="#DejaVuSans-63" transform="translate(225.732422 0)"/>
      <use xlink:href="#DejaVuSans-74" transform="translate(280.712891 0)"/>
      <use xlink:href="#DejaVuSans-6f" transform="translate(319.921875 0)"/>
      <use xlink:href="#DejaVuSans-72" transform="translate(381.103516 0)"/>
     </g>
    </g>
    <g id="line2d_22">
     <path d="M 308.904688 49.654688 
L 308.904688 49.654688 
L 318.904688 49.654688 
L 318.904688 49.654688 
L 328.904688 49.654688 
" style="fill: none; stroke: #2ca02c; stroke-width: 1.5; stroke-linecap: square"/>
    </g>
    <g id="text_21">
     <!-- true -->
     <g transform="translate(336.904688 53.154688) scale(0.1 -0.1)">
      <use xlink:href="#DejaVuSans-74"/>
      <use xlink:href="#DejaVuSans-72" transform="translate(39.208984 0)"/>
      <use xlink:href="#DejaVuSans-75" transform="translate(80.322266 0)"/>
      <use xlink:href="#DejaVuSans-65" transform="translate(143.701172 0)"/>
     </g>
    </g>
   </g>
  </g>
 </g>
 <defs>
  <clipPath id="p3a9f308a8b">
   <rect x="53.328125" y="7.2" width="334.8" height="221.76"/>
  </clipPath>
 </defs>
</svg>
