<?xml version="1.0" encoding="utf-8" standalone="no"?>
<!DOCTYPE svg PUBLIC "-//W3C//DTD SVG 1.1//EN"
  "http://www.w3.org/Graphics/SVG/1.1/DTD/svg11.dtd">
<svg xmlns:xlink="http://www.w3.org/1999/xlink" width="395.328125pt" height="266.51625pt" viewBox="0 0 395.328125 266.51625" xmlns="http://www.w3.org/2000/svg" version="1.1">
 <metadata>
  <rdf:RDF xmlns:dc="http://purl.org/dc/elements/1.1/" xmlns:cc="http://creativecommons.org/ns#" xmlns:rdf="http://www.w3.org/1999/02/22-rdf-syntax-ns#">
   <cc:Work>
    <dc:type rdf:resource="http://purl.org/dc/dcmitype/StillImage"/>
    <dc:date>2026-02-24T15:35:40.462505</dc:date>
    <dc:format>image/svg+xml</dc:format>
    <dc:creator>
     <cc:Agent>
      <dc:title>Matplotlib v3.10.8, https://matplotlib.org/</dc:title>
     </cc:Agent>
    </dc:creator>
   </cc:Work>
  </rdf:RDF>
 </metadata>
 <defs>
  <style type="text/css">*{stroke-linejoin: round; stroke-linecap: butt}</style>
 </defs>
 <g id="figure_1">
  <g id="patch_1">
   <path d="M 0 266.51625 
L 395.328125 266.51625 
L 395.328125 0 
L 0 0 
z
" style="fill: #ffffff"/>
  </g>
  <g id="axes_1">
   <g id="patch_2">
    <path d="M 53.328125 228.96 
L 388.128125 228.96 
L 388.128125 7.2 
L 53.328125 7.2 
z
" style="fill: #ffffff"/>
   </g>
   <g id="matplotlib.axis_1">
    <g id="xtick_1">
     <g id="line2d_1">
      <defs>
       <path id="m65ded76876" d="M 0 0 
L 0 3.5 
" style="stroke: #000000; stroke-width: 0.8"/>
      </defs>
      <g>
       <use xlink:href="#m65ded76876" x="108.788956" y="228.96" style="stroke: #000000; stroke-width: 0.8"/>
      </g>
     </g>
     <g id="text_1">
      <!-- 20000 -->
      <g transform="translate(92.882706 243.558437) scale(0.1 -0.1)">
       <defs>
        <path id="DejaVuSans-32" d="M 1228 531 
L 3431 531 
L 3431 0 
L 469 0 
L 469 531 
Q 828 903 1448 1529 
Q 2069 2156 2228 2338 
Q 2531 2678 2651 2914 
Q 2772 3150 2772 3378 
Q 2772 3750 2511 3984 
Q 2250 4219 1831 4219 
Q 1534 4219 1204 4116 
Q 875 4013 500 3803 
L 500 4441 
Q 881 4594 1212 4672 
Q 1544 4750 1819 4750 
Q 2544 4750 2975 4387 
Q 3406 4025 3406 3419 
Q 3406 3131 3298 2873 
Q 3191 2616 2906 2266 
Q 2828 2175 2409 1742 
Q 1991 1309 1228 531 
z
" transform="scale(0.015625)"/>
        <path id="DejaVuSans-30" d="M 2034 4250 
Q 1547 4250 1301 3770 
Q 1056 3291 1056 2328 
Q 1056 1369 1301 889 
Q 1547 409 2034 409 
Q 2525 409 2770 889 
Q 3016 1369 3016 2328 
Q 3016 3291 2770 3770 
Q 2525 4250 2034 4250 
z
M 2034 4750 
Q 2819 4750 3233 4129 
Q 3647 3509 3647 2328 
Q 3647 1150 3233 529 
Q 2819 -91 2034 -91 
Q 1250 -91 836 529 
Q 422 1150 422 2328 
Q 422 3509 836 4129 
Q 1250 4750 2034 4750 
z
" transform="scale(0.015625)"/>
       </defs>
       <use xlink:href="#DejaVuSans-32"/>
       <use xlink:href="#DejaVuSans-30" transform="translate(63.623047 0)"/>
       <use xlink:href="#DejaVuSans-30" transform="translate(127.246094 0)"/>
       <use xlink:href="#DejaVuSans-30" transform="translate(190.869141 0)"/>
       <use xlink:href="#DejaVuSans-30" transform="translate(254.492188 0)"/>
      </g>
     </g>
    </g>
    <g id="xtick_2">
     <g id="line2d_2">
      <g>
       <use xlink:href="#m65ded76876" x="171.518403" y="228.96" style="stroke: #000000; stroke-width: 0.8"/>
      </g>
     </g>
     <g id="text_2">
      <!-- 30000 -->
      <g transform="translate(155.612153 243.558437) scale(0.1 -0.1)">
       <defs>
        <path id="DejaVuSans-33" d="M 2597 2516 
Q 3050 2419 3304 2112 
Q 3559 1806 3559 1356 
Q 3559 666 3084 287 
Q 2609 -91 1734 -91 
Q 1441 -91 1130 -33 
Q 819 25 488 141 
L 488 750 
Q 750 597 1062 519 
Q 1375 441 1716 441 
Q 2309 441 2620 675 
Q 2931 909 2931 1356 
Q 2931 1769 2642 2001 
Q 2353 2234 1838 2234 
L 1294 2234 
L 1294 2753 
L 1863 2753 
Q 2328 2753 2575 2939 
Q 2822 3125 2822 3475 
Q 2822 3834 2567 4026 
Q 2313 4219 1838 4219 
Q 1578 4219 1281 4162 
Q 984 4106 628 3988 
L 628 4550 
Q 988 4650 1302 4700 
Q 1616 4750 1894 4750 
Q 2613 4750 3031 4423 
Q 3450 4097 3450 3541 
Q 3450 3153 3228 2886 
Q 3006 2619 2597 2516 
z
" transform="scale(0.015625)"/>
       </defs>
       <use xlink:href="#DejaVuSans-33"/>
       <use xlink:href="#DejaVuSans-30" transform="translate(63.623047 0)"/>
       <use xlink:href="#DejaVuSans-30" transform="translate(127.246094 0)"/>
       <use xlink:href="#DejaVuSans-30" transform="translate(190.869141 0)"/>
       <use xlink:href="#DejaVuSans-30" transform="translate(254.492188 0)"/>
      </g>
     </g>
    </g>
    <g id="xtick_3">
     <g id="line2d_3">
      <g>
       <use xlink:href="#m65ded76876" x="234.24785" y="228.96" style="stroke: #000000; stroke-width: 0.8"/>
      </g>
     </g>
     <g id="text_3">
      <!-- 40000 -->
      <g transform="translate(218.3416 243.558437) scale(0.1 -0.1)">
       <defs>
        <path id="DejaVuSans-34" d="M 2419 4116 
L 825 1625 
L 2419 1625 
L 2419 4116 
z
M 2253 4666 
L 3047 4666 
L 3047 1625 
L 3713 1625 
L 3713 1100 
L 3047 1100 
L 3047 0 
L 2419 0 
L 2419 1100 
L 313 1100 
L 313 1709 
L 2253 4666 
z
" transform="scale(0.015625)"/>
       </defs>
       <use xlink:href="#DejaVuSans-34"/>
       <use xlink:href="#DejaVuSans-30" transform="translate(63.623047 0)"/>
       <use xlink:href="#DejaVuSans-30" transform="translate(127.246094 0)"/>
       <use xlink:href="#DejaVuSans-30" transform="translate(190.869141 0)"/>
       <use xlink:href="#DejaVuSans-30" transform="translate(254.492188 0)"/>
      </g>
     </g>
    </g>
    <g id="xtick_4">
     <g id="line2d_4">
      <g>
       <use xlink:href="#m65ded76876" x="296.977297" y="228.96" style="stroke: #000000; stroke-width: 0.8"/>
      </g>
     </g>
     <g id="text_4">
      <!-- 50000 -->
      <g transform="translate(281.071047 243.558437) scale(0.1 -0.1)">
       <defs>
        <path id="DejaVuSans-35" d="M 691 4666 
L 3169 4666 
L 3169 4134 
L 1269 4134 
L 1269 2991 
Q 1406 3038 1543 3061 
Q 1681 3084 1819 3084 
Q 2600 3084 3056 2656 
Q 3513 2228 3513 1497 
Q 3513 744 3044 326 
Q 2575 -91 1722 -91 
Q 1428 -91 1123 -41 
Q 819 9 494 109 
L 494 744 
Q 775 591 1075 516 
Q 1375 441 1709 441 
Q 2250 441 2565 725 
Q 2881 1009 2881 1497 
Q 2881 1984 2565 2268 
Q 2250 2553 1709 2553 
Q 1456 2553 1204 2497 
Q 953 2441 691 2322 
L 691 4666 
z
" transform="scale(0.015625)"/>
       </defs>
       <use xlink:href="#DejaVuSans-35"/>
       <use xlink:href="#DejaVuSans-30" transform="translate(63.623047 0)"/>
       <use xlink:href="#DejaVuSans-30" transform="translate(127.246094 0)"/>
       <use xlink:href="#DejaVuSans-30" transform="translate(190.869141 0)"/>
       <use xlink:href="#DejaVuSans-30" transform="translate(254.492188 0)"/>
      </g>
     </g>
    </g>
    <g id="xtick_5">
     <g id="line2d_5">
      <g>
       <use xlink:href="#m65ded76876" x="359.706744" y="228.96" style="stroke: #000000; stroke-width: 0.8"/>
      </g>
     </g>
     <g id="text_5">
      <!-- 60000 -->
      <g transform="translate(343.800494 243.558437) scale(0.1 -0.1)">
       <defs>
        <path id="DejaVuSans-36" d="M 2113 2584 
Q 1688 2584 1439 2293 
Q 1191 2003 1191 1497 
Q 1191 994 1439 701 
Q 1688 409 2113 409 
Q 2538 409 2786 701 
Q 3034 994 3034 1497 
Q 3034 2003 2786 2293 
Q 2538 2584 2113 2584 
z
M 3366 4563 
L 3366 3988 
Q 3128 4100 2886 4159 
Q 2644 4219 2406 4219 
Q 1781 4219 1451 3797 
Q 1122 3375 1075 2522 
Q 1259 2794 1537 2939 
Q 1816 3084 2150 3084 
Q 2853 3084 3261 2657 
Q 3669 2231 3669 1497 
Q 3669 778 3244 343 
Q 2819 -91 2113 -91 
Q 1303 -91 875 529 
Q 447 1150 447 2328 
Q 447 3434 972 4092 
Q 1497 4750 2381 4750 
Q 2619 4750 2861 4703 
Q 3103 4656 3366 4563 
z
" transform="scale(0.015625)"/>
       </defs>
       <use xlink:href="#DejaVuSans-36"/>
       <use xlink:href="#DejaVuSans-30" transform="translate(63.623047 0)"/>
       <use xlink:href="#DejaVuSans-30" transform="translate(127.246094 0)"/>
       <use xlink:href="#DejaVuSans-30" transform="translate(190.869141 0)"/>
       <use xlink:href="#DejaVuSans-30" transform="translate(254.492188 0)"/>
      </g>
     </g>
    </g>
    <g id="text_6">
     <!-- tof [µs] -->
     <g transform="translate(202.671875 257.236562) scale(0.1 -0.1)">
      <defs>
       <path id="DejaVuSans-74" d="M 1172 4494 
L 1172 3500 
L 2356 3500 
L 2356 3053 
L 1172 3053 
L 1172 1153 
Q 1172 725 1289 603 
Q 1406 481 1766 481 
L 2356 481 
L 2356 0 
L 1766 0 
Q 1100 0 847 248 
Q 594 497 594 1153 
L 594 3053 
L 172 3053 
L 172 3500 
L 594 3500 
L 594 4494 
L 1172 4494 
z
" transform="scale(0.015625)"/>
       <path id="DejaVuSans-6f" d="M 1959 3097 
Q 1497 3097 1228 2736 
Q 959 2375 959 1747 
Q 959 1119 1226 758 
Q 1494 397 1959 397 
Q 2419 397 2687 759 
Q 2956 1122 2956 1747 
Q 2956 2369 2687 2733 
Q 2419 3097 1959 3097 
z
M 1959 3584 
Q 2709 3584 3137 3096 
Q 3566 2609 3566 1747 
Q 3566 888 3137 398 
Q 2709 -91 1959 -91 
Q 1206 -91 779 398 
Q 353 888 353 1747 
Q 353 2609 779 3096 
Q 1206 3584 1959 3584 
z
" transform="scale(0.015625)"/>
       <path id="DejaVuSans-66" d="M 2375 4863 
L 2375 4384 
L 1825 4384 
Q 1516 4384 1395 4259 
Q 1275 4134 1275 3809 
L 1275 3500 
L 2222 3500 
L 2222 3053 
L 1275 3053 
L 1275 0 
L 697 0 
L 697 3053 
L 147 3053 
L 147 3500 
L 697 3500 
L 697 3744 
Q 697 4328 969 4595 
Q 1241 4863 1831 4863 
L 2375 4863 
z
" transform="scale(0.015625)"/>
       <path id="DejaVuSans-20" transform="scale(0.015625)"/>
       <path id="DejaVuSans-5b" d="M 550 4863 
L 1875 4863 
L 1875 4416 
L 1125 4416 
L 1125 -397 
L 1875 -397 
L 1875 -844 
L 550 -844 
L 550 4863 
z
" transform="scale(0.015625)"/>
       <path id="DejaVuSans-b5" d="M 544 -1331 
L 544 3500 
L 1119 3500 
L 1119 1325 
Q 1119 872 1334 640 
Q 1550 409 1972 409 
Q 2434 409 2667 671 
Q 2900 934 2900 1459 
L 2900 3500 
L 3475 3500 
L 3475 806 
Q 3475 619 3529 530 
Q 3584 441 3700 441 
Q 3728 441 3778 458 
Q 3828 475 3916 513 
L 3916 50 
Q 3788 -22 3673 -56 
Q 3559 -91 3450 -91 
Q 3234 -91 3106 31 
Q 2978 153 2931 403 
Q 2775 156 2548 32 
Q 2322 -91 2016 -91 
Q 1697 -91 1473 31 
Q 1250 153 1119 397 
L 1119 -1331 
L 544 -1331 
z
" transform="scale(0.015625)"/>
       <path id="DejaVuSans-73" d="M 2834 3397 
L 2834 2853 
Q 2591 2978 2328 3040 
Q 2066 3103 1784 3103 
Q 1356 3103 1142 2972 
Q 928 2841 928 2578 
Q 928 2378 1081 2264 
Q 1234 2150 1697 2047 
L 1894 2003 
Q 2506 1872 2764 1633 
Q 3022 1394 3022 966 
Q 3022 478 2636 193 
Q 2250 -91 1575 -91 
Q 1294 -91 989 -36 
Q 684 19 347 128 
L 347 722 
Q 666 556 975 473 
Q 1284 391 1588 391 
Q 1994 391 2212 530 
Q 2431 669 2431 922 
Q 2431 1156 2273 1281 
Q 2116 1406 1581 1522 
L 1381 1569 
Q 847 1681 609 1914 
Q 372 2147 372 2553 
Q 372 3047 722 3315 
Q 1072 3584 1716 3584 
Q 2034 3584 2315 3537 
Q 2597 3491 2834 3397 
z
" transform="scale(0.015625)"/>
       <path id="DejaVuSans-5d" d="M 1947 4863 
L 1947 -844 
L 622 -844 
L 622 -397 
L 1369 -397 
L 1369 4416 
L 622 4416 
L 622 4863 
L 1947 4863 
z
" transform="scale(0.015625)"/>
      </defs>
      <use xlink:href="#DejaVuSans-74"/>
      <use xlink:href="#DejaVuSans-6f" transform="translate(39.208984 0)"/>
      <use xlink:href="#DejaVuSans-66" transform="translate(100.390625 0)"/>
      <use xlink:href="#DejaVuSans-20" transform="translate(135.595703 0)"/>
      <use xlink:href="#DejaVuSans-5b" transform="translate(167.382812 0)"/>
      <use xlink:href="#DejaVuSans-b5" transform="translate(206.396484 0)"/>
      <use xlink:href="#DejaVuSans-73" transform="translate(270.019531 0)"/>
      <use xlink:href="#DejaVuSans-5d" transform="translate(322.119141 0)"/>
     </g>
    </g>
   </g>
   <g id="matplotlib.axis_2">
    <g id="ytick_1">
     <g id="line2d_6">
      <defs>
       <path id="mcf615a8e89" d="M 0 0 
L -3.5 0 
" style="stroke: #000000; stroke-width: 0.8"/>
      </defs>
      <g>
       <use xlink:href="#mcf615a8e89" x="53.328125" y="220.029186" style="stroke: #000000; stroke-width: 0.8"/>
      </g>
     </g>
     <g id="text_7">
      <!-- 0 -->
      <g transform="translate(39.965625 223.828404) scale(0.1 -0.1)">
       <use xlink:href="#DejaVuSans-30"/>
      </g>
     </g>
    </g>
    <g id="ytick_2">
     <g id="line2d_7">
      <g>
       <use xlink:href="#mcf615a8e89" x="53.328125" y="178.98684" style="stroke: #000000; stroke-width: 0.8"/>
      </g>
     </g>
     <g id="text_8">
      <!-- 500 -->
      <g transform="translate(27.240625 182.786059) scale(0.1 -0.1)">
       <use xlink:href="#DejaVuSans-35"/>
       <use xlink:href="#DejaVuSans-30" transform="translate(63.623047 0)"/>
       <use xlink:href="#DejaVuSans-30" transform="translate(127.246094 0)"/>
      </g>
     </g>
    </g>
    <g id="ytick_3">
     <g id="line2d_8">
      <g>
       <use xlink:href="#mcf615a8e89" x="53.328125" y="137.944495" style="stroke: #000000; stroke-width: 0.8"/>
      </g>
     </g>
     <g id="text_9">
      <!-- 1000 -->
      <g transform="translate(20.878125 141.743714) scale(0.1 -0.1)">
       <defs>
        <path id="DejaVuSans-31" d="M 794 531 
L 1825 531 
L 1825 4091 
L 703 3866 
L 703 4441 
L 1819 4666 
L 2450 4666 
L 2450 531 
L 3481 531 
L 3481 0 
L 794 0 
L 794 531 
z
" transform="scale(0.015625)"/>
       </defs>
       <use xlink:href="#DejaVuSans-31"/>
       <use xlink:href="#DejaVuSans-30" transform="translate(63.623047 0)"/>
       <use xlink:href="#DejaVuSans-30" transform="translate(127.246094 0)"/>
       <use xlink:href="#DejaVuSans-30" transform="translate(190.869141 0)"/>
      </g>
     </g>
    </g>
    <g id="ytick_4">
     <g id="line2d_9">
      <g>
       <use xlink:href="#mcf615a8e89" x="53.328125" y="96.90215" style="stroke: #000000; stroke-width: 0.8"/>
      </g>
     </g>
     <g id="text_10">
      <!-- 1500 -->
      <g transform="translate(20.878125 100.701369) scale(0.1 -0.1)">
       <use xlink:href="#DejaVuSans-31"/>
       <use xlink:href="#DejaVuSans-35" transform="translate(63.623047 0)"/>
       <use xlink:href="#DejaVuSans-30" transform="translate(127.246094 0)"/>
       <use xlink:href="#DejaVuSans-30" transform="translate(190.869141 0)"/>
      </g>
     </g>
    </g>
    <g id="ytick_5">
     <g id="line2d_10">
      <g>
       <use xlink:href="#mcf615a8e89" x="53.328125" y="55.859805" style="stroke: #000000; stroke-width: 0.8"/>
      </g>
     </g>
     <g id="text_11">
      <!-- 2000 -->
      <g transform="translate(20.878125 59.659023) scale(0.1 -0.1)">
       <use xlink:href="#DejaVuSans-32"/>
       <use xlink:href="#DejaVuSans-30" transform="translate(63.623047 0)"/>
       <use xlink:href="#DejaVuSans-30" transform="translate(127.246094 0)"/>
       <use xlink:href="#DejaVuSans-30" transform="translate(190.869141 0)"/>
      </g>
     </g>
    </g>
    <g id="ytick_6">
     <g id="line2d_11">
      <g>
       <use xlink:href="#mcf615a8e89" x="53.328125" y="14.817459" style="stroke: #000000; stroke-width: 0.8"/>
      </g>
     </g>
     <g id="text_12">
      <!-- 2500 -->
      <g transform="translate(20.878125 18.616678) scale(0.1 -0.1)">
       <use xlink:href="#DejaVuSans-32"/>
       <use xlink:href="#DejaVuSans-35" transform="translate(63.623047 0)"/>
       <use xlink:href="#DejaVuSans-30" transform="translate(127.246094 0)"/>
       <use xlink:href="#DejaVuSans-30" transform="translate(190.869141 0)"/>
      </g>
     </g>
    </g>
    <g id="text_13">
     <!-- [counts] -->
     <g transform="translate(14.798438 138.6925) rotate(-90) scale(0.1 -0.1)">
      <defs>
       <path id="DejaVuSans-63" d="M 3122 3366 
L 3122 2828 
Q 2878 2963 2633 3030 
Q 2388 3097 2138 3097 
Q 1578 3097 1268 2742 
Q 959 2388 959 1747 
Q 959 1106 1268 751 
Q 1578 397 2138 397 
Q 2388 397 2633 464 
Q 2878 531 3122 666 
L 3122 134 
Q 2881 22 2623 -34 
Q 2366 -91 2075 -91 
Q 1284 -91 818 406 
Q 353 903 353 1747 
Q 353 2603 823 3093 
Q 1294 3584 2113 3584 
Q 2378 3584 2631 3529 
Q 2884 3475 3122 3366 
z
" transform="scale(0.015625)"/>
       <path id="DejaVuSans-75" d="M 544 1381 
L 544 3500 
L 1119 3500 
L 1119 1403 
Q 1119 906 1312 657 
Q 1506 409 1894 409 
Q 2359 409 2629 706 
Q 2900 1003 2900 1516 
L 2900 3500 
L 3475 3500 
L 3475 0 
L 2900 0 
L 2900 538 
Q 2691 219 2414 64 
Q 2138 -91 1772 -91 
Q 1169 -91 856 284 
Q 544 659 544 1381 
z
M 1991 3584 
L 1991 3584 
z
" transform="scale(0.015625)"/>
       <path id="DejaVuSans-6e" d="M 3513 2113 
L 3513 0 
L 2938 0 
L 2938 2094 
Q 2938 2591 2744 2837 
Q 2550 3084 2163 3084 
Q 1697 3084 1428 2787 
Q 1159 2491 1159 1978 
L 1159 0 
L 581 0 
L 581 3500 
L 1159 3500 
L 1159 2956 
Q 1366 3272 1645 3428 
Q 1925 3584 2291 3584 
Q 2894 3584 3203 3211 
Q 3513 2838 3513 2113 
z
" transform="scale(0.015625)"/>
      </defs>
      <use xlink:href="#DejaVuSans-5b"/>
      <use xlink:href="#DejaVuSans-63" transform="translate(39.013672 0)"/>
      <use xlink:href="#DejaVuSans-6f" transform="translate(93.994141 0)"/>
      <use xlink:href="#DejaVuSans-75" transform="translate(155.175781 0)"/>
      <use xlink:href="#DejaVuSans-6e" transform="translate(218.554688 0)"/>
      <use xlink:href="#DejaVuSans-74" transform="translate(281.933594 0)"/>
      <use xlink:href="#DejaVuSans-73" transform="translate(321.142578 0)"/>
      <use xlink:href="#DejaVuSans-5d" transform="translate(373.242188 0)"/>
     </g>
    </g>
   </g>
   <g id="line2d_12">
    <path d="M 68.546307 126.042215 
L 69.560852 126.042215 
L 69.560852 105.110619 
L 70.575398 105.110619 
L 70.575398 100.103453 
L 71.589943 100.103453 
L 71.589943 94.603779 
L 72.604489 94.603779 
L 72.604489 85.574463 
L 73.619034 85.574463 
L 73.619034 88.529511 
L 74.63358 88.529511 
L 74.63358 81.716482 
L 75.648125 81.716482 
L 75.648125 82.044821 
L 76.66267 82.044821 
L 76.66267 67.762085 
L 77.677216 67.762085 
L 77.677216 73.672182 
L 78.691761 73.672182 
L 78.691761 61.851987 
L 79.706307 61.851987 
L 79.706307 53.643518 
L 80.720852 53.643518 
L 80.720852 48.225928 
L 81.735398 48.225928 
L 81.735398 50.852638 
L 82.749943 50.852638 
L 82.749943 49.046775 
L 83.764489 49.046775 
L 83.764489 46.50215 
L 84.779034 46.50215 
L 84.779034 45.763388 
L 85.79358 45.763388 
L 85.79358 33.122345 
L 86.808125 33.122345 
L 86.808125 28.115179 
L 87.82267 28.115179 
L 87.82267 30.988143 
L 88.837216 30.988143 
L 88.837216 30.741889 
L 89.851761 30.741889 
L 89.851761 24.421368 
L 90.866307 24.421368 
L 90.866307 17.28 
L 91.880852 17.28 
L 91.880852 18.757524 
L 92.895398 18.757524 
L 92.895398 23.108013 
L 93.909943 23.108013 
L 93.909943 31.070228 
L 94.924489 31.070228 
L 94.924489 31.480651 
L 95.939034 31.480651 
L 95.939034 34.353616 
L 96.95358 34.353616 
L 96.95358 30.249381 
L 97.968125 30.249381 
L 97.968125 43.87544 
L 98.98267 43.87544 
L 98.98267 31.644821 
L 99.997216 31.644821 
L 99.997216 42.397915 
L 101.011761 42.397915 
L 101.011761 49.949707 
L 102.026307 49.949707 
L 102.026307 49.785537 
L 103.040852 49.785537 
L 103.040852 53.643518 
L 104.055398 53.643518 
L 104.055398 66.44873 
L 105.069943 66.44873 
L 105.069943 73.343844 
L 106.084489 73.343844 
L 106.084489 88.611596 
L 107.099034 88.611596 
L 107.099034 91.48456 
L 108.11358 91.48456 
L 108.11358 107.491075 
L 109.128125 107.491075 
L 109.128125 108.968599 
L 110.14267 108.968599 
L 110.14267 117.833746 
L 111.157216 117.833746 
L 111.157216 127.683909 
L 112.171761 127.683909 
L 112.171761 135.564039 
L 113.186307 135.564039 
L 113.186307 136.302801 
L 114.200852 136.302801 
L 114.200852 146.235049 
L 115.215398 146.235049 
L 115.215398 157.316482 
L 116.229943 157.316482 
L 116.229943 159.20443 
L 117.244489 159.20443 
L 117.244489 166.427883 
L 118.259034 166.427883 
L 118.259034 172.912573 
L 119.27358 172.912573 
L 119.27358 178.165993 
L 120.288125 178.165993 
L 120.288125 186.538632 
L 121.30267 186.538632 
L 121.30267 195.403779 
L 122.317216 195.403779 
L 122.317216 198.687166 
L 123.331761 198.687166 
L 123.331761 184.814853 
L 124.346307 184.814853 
L 124.346307 144.182932 
L 125.360852 144.182932 
L 125.360852 125.713876 
L 126.375398 125.713876 
L 126.375398 97.640912 
L 127.389943 97.640912 
L 127.389943 96.90215 
L 128.404489 96.90215 
L 128.404489 88.693681 
L 129.419034 88.693681 
L 129.419034 82.044821 
L 130.43358 82.044821 
L 130.43358 92.059153 
L 131.448125 92.059153 
L 131.448125 102.401824 
L 132.46267 102.401824 
L 132.46267 96.984235 
L 133.477216 96.984235 
L 133.477216 107.737329 
L 134.491761 107.737329 
L 134.491761 96.73798 
L 135.506307 96.73798 
L 135.506307 97.148404 
L 136.520852 97.148404 
L 136.520852 96.245472 
L 137.535398 96.245472 
L 137.535398 108.476091 
L 138.549943 108.476091 
L 138.549943 109.543192 
L 139.564489 109.543192 
L 139.564489 95.835049 
L 140.579034 95.835049 
L 140.579034 102.648078 
L 141.59358 102.648078 
L 141.59358 111.677394 
L 142.608125 111.677394 
L 142.608125 118.654593 
L 143.62267 118.654593 
L 143.62267 110.446124 
L 144.637216 110.446124 
L 144.637216 110.692378 
L 145.651761 110.692378 
L 145.651761 114.960782 
L 146.666307 114.960782 
L 146.666307 118.162085 
L 147.680852 118.162085 
L 147.680852 122.184235 
L 148.695398 122.184235 
L 148.695398 120.624625 
L 149.709943 120.624625 
L 149.709943 116.356221 
L 150.724489 116.356221 
L 150.724489 114.632443 
L 151.739034 114.632443 
L 151.739034 121.93798 
L 152.75358 121.93798 
L 152.75358 121.609642 
L 154.78267 121.691726 
L 154.78267 124.400521 
L 155.797216 124.400521 
L 155.797216 121.773811 
L 157.826307 121.773811 
L 157.826307 121.445472 
L 158.840852 121.445472 
L 158.840852 134.989446 
L 159.855398 134.989446 
L 159.855398 129.736026 
L 160.869943 129.736026 
L 160.869943 129.325603 
L 161.884489 129.325603 
L 161.884489 131.870228 
L 162.899034 131.870228 
L 162.899034 133.183583 
L 163.91358 133.183583 
L 163.91358 136.959479 
L 164.928125 136.959479 
L 164.928125 130.638958 
L 165.94267 130.638958 
L 165.94267 135.564039 
L 166.957216 135.564039 
L 166.957216 139.25785 
L 167.971761 139.25785 
L 167.971761 150.175114 
L 168.986307 150.175114 
L 168.986307 158.547752 
L 170.000852 158.547752 
L 170.000852 157.644821 
L 171.015398 157.644821 
L 171.015398 152.063062 
L 172.029943 152.063062 
L 172.029943 145.824625 
L 173.044489 145.824625 
L 173.044489 162.323648 
L 174.059034 162.323648 
L 174.059034 166.838306 
L 175.07358 166.838306 
L 175.07358 170.367948 
L 176.088125 170.367948 
L 176.088125 162.077394 
L 177.10267 162.077394 
L 177.10267 153.868925 
L 178.117216 153.868925 
L 178.117216 150.175114 
L 179.131761 150.175114 
L 179.131761 146.399218 
L 180.146307 146.399218 
L 180.146307 141.145798 
L 181.160852 141.145798 
L 181.160852 140.324951 
L 182.175398 140.324951 
L 182.175398 130.14645 
L 183.189943 130.14645 
L 183.189943 135.728208 
L 184.204489 135.728208 
L 184.204489 143.854593 
L 185.219034 143.854593 
L 185.219034 144.839609 
L 186.23358 144.839609 
L 186.23358 151.242215 
L 187.248125 151.242215 
L 187.248125 150.667622 
L 188.26267 150.667622 
L 188.26267 155.756873 
L 190.291761 155.838958 
L 190.291761 156.906059 
L 191.306307 156.906059 
L 191.306307 157.316482 
L 192.320852 157.316482 
L 192.320852 153.048078 
L 193.335398 153.048078 
L 193.335398 150.831792 
L 194.349943 150.831792 
L 194.349943 154.443518 
L 195.364489 154.443518 
L 195.364489 164.211596 
L 196.379034 164.211596 
L 196.379034 162.323648 
L 197.39358 162.323648 
L 197.39358 164.868274 
L 198.408125 164.868274 
L 198.408125 161.584886 
L 199.42267 161.584886 
L 199.42267 158.055244 
L 200.437216 158.055244 
L 200.437216 163.554919 
L 201.451761 163.554919 
L 201.451761 167.577068 
L 202.466307 167.577068 
L 202.466307 170.039609 
L 203.480852 170.039609 
L 203.480852 171.270879 
L 204.495398 171.270879 
L 204.495398 178.001824 
L 205.509943 178.001824 
L 205.509943 170.532117 
L 206.524489 170.532117 
L 206.524489 172.666319 
L 207.539034 172.666319 
L 207.539034 177.098893 
L 208.55358 177.098893 
L 208.55358 178.165993 
L 209.568125 178.165993 
L 209.568125 174.472182 
L 211.597216 174.390098 
L 211.597216 184.979023 
L 212.611761 184.979023 
L 212.611761 187.687818 
L 213.626307 187.687818 
L 213.626307 190.889121 
L 214.640852 190.889121 
L 214.640852 193.844169 
L 215.655398 193.844169 
L 215.655398 192.612899 
L 216.669943 192.612899 
L 216.669943 189.247427 
L 217.684489 189.247427 
L 217.684489 192.694984 
L 218.699034 192.694984 
L 218.699034 193.762085 
L 219.71358 193.762085 
L 219.71358 194.172508 
L 220.728125 194.172508 
L 220.728125 195.896287 
L 221.74267 195.896287 
L 221.74267 197.620065 
L 222.757216 197.620065 
L 222.757216 199.918436 
L 223.771761 199.918436 
L 223.771761 198.276743 
L 224.786307 198.276743 
L 224.786307 196.388795 
L 225.800852 196.388795 
L 225.800852 191.709967 
L 226.815398 191.709967 
L 226.815398 193.023322 
L 227.829943 193.023322 
L 227.829943 191.709967 
L 228.844489 191.709967 
L 228.844489 192.038306 
L 229.859034 192.038306 
L 229.859034 187.195309 
L 230.87358 187.195309 
L 230.87358 184.076091 
L 232.90267 184.076091 
L 232.90267 187.113225 
L 233.917216 187.113225 
L 233.917216 187.851987 
L 234.931761 187.851987 
L 234.931761 195.814202 
L 235.946307 195.814202 
L 235.946307 198.687166 
L 236.960852 198.687166 
L 236.960852 197.784235 
L 237.975398 197.784235 
L 237.975398 194.993355 
L 238.989943 194.993355 
L 238.989943 197.209642 
L 240.004489 197.209642 
L 240.004489 197.948404 
L 241.019034 197.948404 
L 241.019034 199.09759 
L 242.03358 199.09759 
L 242.03358 199.590098 
L 243.048125 199.590098 
L 243.048125 199.343844 
L 244.06267 199.343844 
L 244.06267 204.104756 
L 246.091761 204.104756 
L 246.091761 203.119739 
L 247.106307 203.119739 
L 247.106307 198.851336 
L 248.120852 198.851336 
L 248.120852 202.873485 
L 249.135398 202.873485 
L 249.135398 204.515179 
L 250.149943 204.515179 
L 250.149943 204.843518 
L 251.164489 204.843518 
L 251.164489 204.268925 
L 252.179034 204.268925 
L 252.179034 204.925603 
L 253.19358 204.925603 
L 253.19358 205.992704 
L 254.208125 205.992704 
L 254.208125 206.97772 
L 255.22267 206.97772 
L 255.22267 210.179023 
L 256.237216 210.179023 
L 256.237216 209.358176 
L 257.251761 209.358176 
L 257.251761 208.947752 
L 258.266307 208.947752 
L 258.266307 208.291075 
L 259.280852 208.291075 
L 259.280852 209.932769 
L 260.295398 209.932769 
L 260.295398 210.425277 
L 261.309943 210.425277 
L 261.309943 211.164039 
L 262.324489 211.164039 
L 262.324489 213.872834 
L 263.339034 213.872834 
L 263.339034 211.984886 
L 264.35358 211.984886 
L 264.35358 213.708664 
L 265.368125 213.708664 
L 265.368125 214.201173 
L 267.397216 214.119088 
L 267.397216 214.611596 
L 268.411761 214.611596 
L 268.411761 215.350358 
L 270.440852 215.350358 
L 270.440852 214.85785 
L 271.455398 214.85785 
L 271.455398 212.149055 
L 273.484489 212.066971 
L 273.484489 208.783583 
L 274.499034 208.783583 
L 274.499034 208.947752 
L 275.51358 208.947752 
L 275.51358 208.291075 
L 276.528125 208.291075 
L 276.528125 205.74645 
L 277.54267 205.74645 
L 277.54267 207.223974 
L 278.557216 207.223974 
L 278.557216 205.74645 
L 279.571761 205.74645 
L 279.571761 207.880651 
L 281.600852 207.798567 
L 281.600852 209.522345 
L 283.629943 209.522345 
L 283.629943 209.276091 
L 284.644489 209.276091 
L 284.644489 209.686515 
L 285.659034 209.686515 
L 285.659034 211.574463 
L 286.67358 211.574463 
L 286.67358 210.507362 
L 287.688125 210.507362 
L 287.688125 209.686515 
L 288.70267 209.686515 
L 288.70267 210.096938 
L 289.717216 210.096938 
L 289.717216 210.425277 
L 290.731761 210.425277 
L 290.731761 211.246124 
L 291.746307 211.246124 
L 291.746307 212.149055 
L 292.760852 212.149055 
L 292.760852 211.902801 
L 293.775398 211.902801 
L 293.775398 213.380326 
L 294.789943 213.380326 
L 294.789943 214.775765 
L 295.804489 214.775765 
L 295.804489 214.939935 
L 296.819034 214.939935 
L 296.819034 213.62658 
L 297.83358 213.62658 
L 297.83358 214.775765 
L 299.86267 214.775765 
L 299.86267 213.954919 
L 300.877216 213.954919 
L 300.877216 216.171205 
L 301.891761 216.171205 
L 301.891761 214.693681 
L 302.906307 214.693681 
L 302.906307 216.089121 
L 303.920852 216.089121 
L 303.920852 215.514528 
L 304.935398 215.514528 
L 304.935398 216.663713 
L 306.964489 216.663713 
L 306.964489 217.238306 
L 307.979034 217.238306 
L 307.979034 217.730814 
L 308.99358 217.730814 
L 308.99358 216.089121 
L 310.008125 216.089121 
L 310.008125 216.992052 
L 311.02267 216.992052 
L 311.02267 217.48456 
L 313.051761 217.402476 
L 313.051761 217.894984 
L 314.066307 217.894984 
L 314.066307 216.827883 
L 316.095398 216.909967 
L 316.095398 216.171205 
L 317.109943 216.171205 
L 317.109943 215.760782 
L 318.124489 215.760782 
L 318.124489 212.559479 
L 319.139034 212.559479 
L 319.139034 213.954919 
L 320.15358 213.954919 
L 320.15358 212.313225 
L 321.168125 212.313225 
L 321.168125 211.902801 
L 322.18267 211.902801 
L 322.18267 209.60443 
L 323.197216 209.60443 
L 323.197216 205.828534 
L 324.211761 205.828534 
L 324.211761 206.649381 
L 325.226307 206.649381 
L 325.226307 203.858502 
L 326.240852 203.858502 
L 326.240852 204.35101 
L 327.255398 204.35101 
L 327.255398 204.843518 
L 328.269943 204.843518 
L 328.269943 204.597264 
L 329.284489 204.597264 
L 329.284489 204.761433 
L 330.299034 204.761433 
L 330.299034 205.992704 
L 331.31358 205.992704 
L 331.31358 207.880651 
L 333.34267 207.798567 
L 333.34267 206.156873 
L 334.357216 206.156873 
L 334.357216 203.283909 
L 335.371761 203.283909 
L 335.371761 202.052638 
L 336.386307 202.052638 
L 336.386307 208.537329 
L 337.400852 208.537329 
L 337.400852 208.783583 
L 338.415398 208.783583 
L 338.415398 206.895635 
L 339.429943 206.895635 
L 339.429943 200.903453 
L 340.444489 200.903453 
L 340.444489 202.216808 
L 341.459034 202.216808 
L 341.459034 204.35101 
L 342.47358 204.35101 
L 342.47358 208.291075 
L 343.488125 208.291075 
L 343.488125 208.537329 
L 344.50267 208.537329 
L 344.50267 207.716482 
L 345.517216 207.716482 
L 345.517216 208.619414 
L 346.531761 208.619414 
L 346.531761 207.470228 
L 347.546307 207.470228 
L 347.546307 206.895635 
L 348.560852 206.895635 
L 348.560852 209.440261 
L 349.575398 209.440261 
L 349.575398 207.798567 
L 350.589943 207.798567 
L 350.589943 208.865668 
L 351.604489 208.865668 
L 351.604489 210.425277 
L 352.619034 210.425277 
L 352.619034 211.410293 
L 353.63358 211.410293 
L 353.63358 210.096938 
L 354.648125 210.096938 
L 354.648125 208.126906 
L 355.66267 208.126906 
L 355.66267 211.656547 
L 356.677216 211.656547 
L 356.677216 212.723648 
L 357.691761 212.723648 
L 357.691761 212.313225 
L 358.706307 212.313225 
L 358.706307 212.805733 
L 359.720852 212.805733 
L 359.720852 211.328208 
L 360.735398 211.328208 
L 360.735398 211.492378 
L 361.749943 211.492378 
L 361.749943 212.723648 
L 362.764489 212.723648 
L 362.764489 212.066971 
L 363.779034 212.066971 
L 363.779034 211.081954 
L 364.79358 211.081954 
L 364.79358 214.529511 
L 365.808125 214.529511 
L 365.808125 215.514528 
L 366.82267 215.514528 
L 366.82267 214.693681 
L 367.837216 214.693681 
L 367.837216 215.514528 
L 368.851761 215.514528 
L 368.851761 217.566645 
L 369.866307 217.566645 
L 369.866307 216.499544 
L 370.880852 216.499544 
L 370.880852 217.730814 
L 371.895398 217.730814 
L 371.895398 218.88 
L 372.909943 218.88 
L 372.909943 218.88 
" clip-path="url(#pb735aaba7d)" style="fill: none; stroke: #1f77b4; stroke-width: 1.5; stroke-linecap: square"/>
   </g>
   <g id="patch_3">
    <path d="M 53.328125 228.96 
L 53.328125 7.2 
" style="fill: none; stroke: #000000; stroke-width: 0.8; stroke-linejoin: miter; stroke-linecap: square"/>
   </g>
   <g id="patch_4">
    <path d="M 388.128125 228.96 
L 388.128125 7.2 
" style="fill: none; stroke: #000000; stroke-width: 0.8; stroke-linejoin: miter; stroke-linecap: square"/>
   </g>
   <g id="patch_5">
    <path d="M 53.328125 228.96 
L 388.128125 228.96 
" style="fill: none; stroke: #000000; stroke-width: 0.8; stroke-linejoin: miter; stroke-linecap: square"/>
   </g>
   <g id="patch_6">
    <path d="M 53.328125 7.2 
L 388.128125 7.2 
" style="fill: none; stroke: #000000; stroke-width: 0.8; stroke-linejoin: miter; stroke-linecap: square"/>
   </g>
  </g>
 </g>
 <defs>
  <clipPath id="pb735aaba7d">
   <rect x="53.328125" y="7.2" width="334.8" height="221.76"/>
  </clipPath>
 </defs>
</svg>
