<?xml version="1.0" encoding="utf-8" standalone="no"?>
<!DOCTYPE svg PUBLIC "-//W3C//DTD SVG 1.1//EN"
  "http://www.w3.org/Graphics/SVG/1.1/DTD/svg11.dtd">
<svg xmlns:xlink="http://www.w3.org/1999/xlink" width="872.39952pt" height="296.39952pt" viewBox="0 0 872.39952 296.39952" xmlns="http://www.w3.org/2000/svg" version="1.1">
 <metadata>
  <rdf:RDF xmlns:dc="http://purl.org/dc/elements/1.1/" xmlns:cc="http://creativecommons.org/ns#" xmlns:rdf="http://www.w3.org/1999/02/22-rdf-syntax-ns#">
   <cc:Work>
    <dc:type rdf:resource="http://purl.org/dc/dcmitype/StillImage"/>
    <dc:date>2026-04-20T12:22:00.927633</dc:date>
    <dc:format>image/svg+xml</dc:format>
    <dc:creator>
     <cc:Agent>
      <dc:title>Matplotlib v3.10.8, https://matplotlib.org/</dc:title>
     </cc:Agent>
    </dc:creator>
   </cc:Work>
  </rdf:RDF>
 </metadata>
 <defs>
  <style type="text/css">*{stroke-linejoin: round; stroke-linecap: butt}</style>
 </defs>
 <g id="figure_1">
  <g id="patch_1">
   <path d="M 0 296.39952 
L 872.39952 296.39952 
L 872.39952 0 
L 0 0 
z
" style="fill: #ffffff"/>
  </g>
  <g id="axes_1">
   <g id="patch_2">
    <path d="M 53.328125 257.158895 
L 414.59976 257.158895 
L 414.59976 7.2 
L 53.328125 7.2 
z
" style="fill: #ffffff"/>
   </g>
   <g id="matplotlib.axis_1">
    <g id="xtick_1">
     <g id="line2d_1">
      <defs>
       <path id="m592d9f8875" d="M 0 0 
L 0 3.5 
" style="stroke: #000000; stroke-width: 0.8"/>
      </defs>
      <g>
       <use xlink:href="#m592d9f8875" x="68.908953" y="257.158895" style="stroke: #000000; stroke-width: 0.8"/>
      </g>
     </g>
     <g id="text_1">
      <!-- 0 -->
      <g transform="translate(65.727703 271.757332) scale(0.1 -0.1)">
       <defs>
        <path id="DejaVuSans-30" d="M 2034 4250 
Q 1547 4250 1301 3770 
Q 1056 3291 1056 2328 
Q 1056 1369 1301 889 
Q 1547 409 2034 409 
Q 2525 409 2770 889 
Q 3016 1369 3016 2328 
Q 3016 3291 2770 3770 
Q 2525 4250 2034 4250 
z
M 2034 4750 
Q 2819 4750 3233 4129 
Q 3647 3509 3647 2328 
Q 3647 1150 3233 529 
Q 2819 -91 2034 -91 
Q 1250 -91 836 529 
Q 422 1150 422 2328 
Q 422 3509 836 4129 
Q 1250 4750 2034 4750 
z
" transform="scale(0.015625)"/>
       </defs>
       <use xlink:href="#DejaVuSans-30"/>
      </g>
     </g>
    </g>
    <g id="xtick_2">
     <g id="line2d_2">
      <g>
       <use xlink:href="#m592d9f8875" x="134.975152" y="257.158895" style="stroke: #000000; stroke-width: 0.8"/>
      </g>
     </g>
     <g id="text_2">
      <!-- 1000 -->
      <g transform="translate(122.250152 271.757332) scale(0.1 -0.1)">
       <defs>
        <path id="DejaVuSans-31" d="M 794 531 
L 1825 531 
L 1825 4091 
L 703 3866 
L 703 4441 
L 1819 4666 
L 2450 4666 
L 2450 531 
L 3481 531 
L 3481 0 
L 794 0 
L 794 531 
z
" transform="scale(0.015625)"/>
       </defs>
       <use xlink:href="#DejaVuSans-31"/>
       <use xlink:href="#DejaVuSans-30" transform="translate(63.623047 0)"/>
       <use xlink:href="#DejaVuSans-30" transform="translate(127.246094 0)"/>
       <use xlink:href="#DejaVuSans-30" transform="translate(190.869141 0)"/>
      </g>
     </g>
    </g>
    <g id="xtick_3">
     <g id="line2d_3">
      <g>
       <use xlink:href="#m592d9f8875" x="201.041352" y="257.158895" style="stroke: #000000; stroke-width: 0.8"/>
      </g>
     </g>
     <g id="text_3">
      <!-- 2000 -->
      <g transform="translate(188.316352 271.757332) scale(0.1 -0.1)">
       <defs>
        <path id="DejaVuSans-32" d="M 1228 531 
L 3431 531 
L 3431 0 
L 469 0 
L 469 531 
Q 828 903 1448 1529 
Q 2069 2156 2228 2338 
Q 2531 2678 2651 2914 
Q 2772 3150 2772 3378 
Q 2772 3750 2511 3984 
Q 2250 4219 1831 4219 
Q 1534 4219 1204 4116 
Q 875 4013 500 3803 
L 500 4441 
Q 881 4594 1212 4672 
Q 1544 4750 1819 4750 
Q 2544 4750 2975 4387 
Q 3406 4025 3406 3419 
Q 3406 3131 3298 2873 
Q 3191 2616 2906 2266 
Q 2828 2175 2409 1742 
Q 1991 1309 1228 531 
z
" transform="scale(0.015625)"/>
       </defs>
       <use xlink:href="#DejaVuSans-32"/>
       <use xlink:href="#DejaVuSans-30" transform="translate(63.623047 0)"/>
       <use xlink:href="#DejaVuSans-30" transform="translate(127.246094 0)"/>
       <use xlink:href="#DejaVuSans-30" transform="translate(190.869141 0)"/>
      </g>
     </g>
    </g>
    <g id="xtick_4">
     <g id="line2d_4">
      <g>
       <use xlink:href="#m592d9f8875" x="267.107552" y="257.158895" style="stroke: #000000; stroke-width: 0.8"/>
      </g>
     </g>
     <g id="text_4">
      <!-- 3000 -->
      <g transform="translate(254.382552 271.757332) scale(0.1 -0.1)">
       <defs>
        <path id="DejaVuSans-33" d="M 2597 2516 
Q 3050 2419 3304 2112 
Q 3559 1806 3559 1356 
Q 3559 666 3084 287 
Q 2609 -91 1734 -91 
Q 1441 -91 1130 -33 
Q 819 25 488 141 
L 488 750 
Q 750 597 1062 519 
Q 1375 441 1716 441 
Q 2309 441 2620 675 
Q 2931 909 2931 1356 
Q 2931 1769 2642 2001 
Q 2353 2234 1838 2234 
L 1294 2234 
L 1294 2753 
L 1863 2753 
Q 2328 2753 2575 2939 
Q 2822 3125 2822 3475 
Q 2822 3834 2567 4026 
Q 2313 4219 1838 4219 
Q 1578 4219 1281 4162 
Q 984 4106 628 3988 
L 628 4550 
Q 988 4650 1302 4700 
Q 1616 4750 1894 4750 
Q 2613 4750 3031 4423 
Q 3450 4097 3450 3541 
Q 3450 3153 3228 2886 
Q 3006 2619 2597 2516 
z
" transform="scale(0.015625)"/>
       </defs>
       <use xlink:href="#DejaVuSans-33"/>
       <use xlink:href="#DejaVuSans-30" transform="translate(63.623047 0)"/>
       <use xlink:href="#DejaVuSans-30" transform="translate(127.246094 0)"/>
       <use xlink:href="#DejaVuSans-30" transform="translate(190.869141 0)"/>
      </g>
     </g>
    </g>
    <g id="xtick_5">
     <g id="line2d_5">
      <g>
       <use xlink:href="#m592d9f8875" x="333.173752" y="257.158895" style="stroke: #000000; stroke-width: 0.8"/>
      </g>
     </g>
     <g id="text_5">
      <!-- 4000 -->
      <g transform="translate(320.448752 271.757332) scale(0.1 -0.1)">
       <defs>
        <path id="DejaVuSans-34" d="M 2419 4116 
L 825 1625 
L 2419 1625 
L 2419 4116 
z
M 2253 4666 
L 3047 4666 
L 3047 1625 
L 3713 1625 
L 3713 1100 
L 3047 1100 
L 3047 0 
L 2419 0 
L 2419 1100 
L 313 1100 
L 313 1709 
L 2253 4666 
z
" transform="scale(0.015625)"/>
       </defs>
       <use xlink:href="#DejaVuSans-34"/>
       <use xlink:href="#DejaVuSans-30" transform="translate(63.623047 0)"/>
       <use xlink:href="#DejaVuSans-30" transform="translate(127.246094 0)"/>
       <use xlink:href="#DejaVuSans-30" transform="translate(190.869141 0)"/>
      </g>
     </g>
    </g>
    <g id="xtick_6">
     <g id="line2d_6">
      <g>
       <use xlink:href="#m592d9f8875" x="399.239952" y="257.158895" style="stroke: #000000; stroke-width: 0.8"/>
      </g>
     </g>
     <g id="text_6">
      <!-- 5000 -->
      <g transform="translate(386.514952 271.757332) scale(0.1 -0.1)">
       <defs>
        <path id="DejaVuSans-35" d="M 691 4666 
L 3169 4666 
L 3169 4134 
L 1269 4134 
L 1269 2991 
Q 1406 3038 1543 3061 
Q 1681 3084 1819 3084 
Q 2600 3084 3056 2656 
Q 3513 2228 3513 1497 
Q 3513 744 3044 326 
Q 2575 -91 1722 -91 
Q 1428 -91 1123 -41 
Q 819 9 494 109 
L 494 744 
Q 775 591 1075 516 
Q 1375 441 1709 441 
Q 2250 441 2565 725 
Q 2881 1009 2881 1497 
Q 2881 1984 2565 2268 
Q 2250 2553 1709 2553 
Q 1456 2553 1204 2497 
Q 953 2441 691 2322 
L 691 4666 
z
" transform="scale(0.015625)"/>
       </defs>
       <use xlink:href="#DejaVuSans-35"/>
       <use xlink:href="#DejaVuSans-30" transform="translate(63.623047 0)"/>
       <use xlink:href="#DejaVuSans-30" transform="translate(127.246094 0)"/>
       <use xlink:href="#DejaVuSans-30" transform="translate(190.869141 0)"/>
      </g>
     </g>
    </g>
    <g id="text_7">
     <!-- birth_time [µs] -->
     <g transform="translate(197.14363 285.435457) scale(0.1 -0.1)">
      <defs>
       <path id="DejaVuSans-62" d="M 3116 1747 
Q 3116 2381 2855 2742 
Q 2594 3103 2138 3103 
Q 1681 3103 1420 2742 
Q 1159 2381 1159 1747 
Q 1159 1113 1420 752 
Q 1681 391 2138 391 
Q 2594 391 2855 752 
Q 3116 1113 3116 1747 
z
M 1159 2969 
Q 1341 3281 1617 3432 
Q 1894 3584 2278 3584 
Q 2916 3584 3314 3078 
Q 3713 2572 3713 1747 
Q 3713 922 3314 415 
Q 2916 -91 2278 -91 
Q 1894 -91 1617 61 
Q 1341 213 1159 525 
L 1159 0 
L 581 0 
L 581 4863 
L 1159 4863 
L 1159 2969 
z
" transform="scale(0.015625)"/>
       <path id="DejaVuSans-69" d="M 603 3500 
L 1178 3500 
L 1178 0 
L 603 0 
L 603 3500 
z
M 603 4863 
L 1178 4863 
L 1178 4134 
L 603 4134 
L 603 4863 
z
" transform="scale(0.015625)"/>
       <path id="DejaVuSans-72" d="M 2631 2963 
Q 2534 3019 2420 3045 
Q 2306 3072 2169 3072 
Q 1681 3072 1420 2755 
Q 1159 2438 1159 1844 
L 1159 0 
L 581 0 
L 581 3500 
L 1159 3500 
L 1159 2956 
Q 1341 3275 1631 3429 
Q 1922 3584 2338 3584 
Q 2397 3584 2469 3576 
Q 2541 3569 2628 3553 
L 2631 2963 
z
" transform="scale(0.015625)"/>
       <path id="DejaVuSans-74" d="M 1172 4494 
L 1172 3500 
L 2356 3500 
L 2356 3053 
L 1172 3053 
L 1172 1153 
Q 1172 725 1289 603 
Q 1406 481 1766 481 
L 2356 481 
L 2356 0 
L 1766 0 
Q 1100 0 847 248 
Q 594 497 594 1153 
L 594 3053 
L 172 3053 
L 172 3500 
L 594 3500 
L 594 4494 
L 1172 4494 
z
" transform="scale(0.015625)"/>
       <path id="DejaVuSans-68" d="M 3513 2113 
L 3513 0 
L 2938 0 
L 2938 2094 
Q 2938 2591 2744 2837 
Q 2550 3084 2163 3084 
Q 1697 3084 1428 2787 
Q 1159 2491 1159 1978 
L 1159 0 
L 581 0 
L 581 4863 
L 1159 4863 
L 1159 2956 
Q 1366 3272 1645 3428 
Q 1925 3584 2291 3584 
Q 2894 3584 3203 3211 
Q 3513 2838 3513 2113 
z
" transform="scale(0.015625)"/>
       <path id="DejaVuSans-5f" d="M 3263 -1063 
L 3263 -1509 
L -63 -1509 
L -63 -1063 
L 3263 -1063 
z
" transform="scale(0.015625)"/>
       <path id="DejaVuSans-6d" d="M 3328 2828 
Q 3544 3216 3844 3400 
Q 4144 3584 4550 3584 
Q 5097 3584 5394 3201 
Q 5691 2819 5691 2113 
L 5691 0 
L 5113 0 
L 5113 2094 
Q 5113 2597 4934 2840 
Q 4756 3084 4391 3084 
Q 3944 3084 3684 2787 
Q 3425 2491 3425 1978 
L 3425 0 
L 2847 0 
L 2847 2094 
Q 2847 2600 2669 2842 
Q 2491 3084 2119 3084 
Q 1678 3084 1418 2786 
Q 1159 2488 1159 1978 
L 1159 0 
L 581 0 
L 581 3500 
L 1159 3500 
L 1159 2956 
Q 1356 3278 1631 3431 
Q 1906 3584 2284 3584 
Q 2666 3584 2933 3390 
Q 3200 3197 3328 2828 
z
" transform="scale(0.015625)"/>
       <path id="DejaVuSans-65" d="M 3597 1894 
L 3597 1613 
L 953 1613 
Q 991 1019 1311 708 
Q 1631 397 2203 397 
Q 2534 397 2845 478 
Q 3156 559 3463 722 
L 3463 178 
Q 3153 47 2828 -22 
Q 2503 -91 2169 -91 
Q 1331 -91 842 396 
Q 353 884 353 1716 
Q 353 2575 817 3079 
Q 1281 3584 2069 3584 
Q 2775 3584 3186 3129 
Q 3597 2675 3597 1894 
z
M 3022 2063 
Q 3016 2534 2758 2815 
Q 2500 3097 2075 3097 
Q 1594 3097 1305 2825 
Q 1016 2553 972 2059 
L 3022 2063 
z
" transform="scale(0.015625)"/>
       <path id="DejaVuSans-20" transform="scale(0.015625)"/>
       <path id="DejaVuSans-5b" d="M 550 4863 
L 1875 4863 
L 1875 4416 
L 1125 4416 
L 1125 -397 
L 1875 -397 
L 1875 -844 
L 550 -844 
L 550 4863 
z
" transform="scale(0.015625)"/>
       <path id="DejaVuSans-b5" d="M 544 -1331 
L 544 3500 
L 1119 3500 
L 1119 1325 
Q 1119 872 1334 640 
Q 1550 409 1972 409 
Q 2434 409 2667 671 
Q 2900 934 2900 1459 
L 2900 3500 
L 3475 3500 
L 3475 806 
Q 3475 619 3529 530 
Q 3584 441 3700 441 
Q 3728 441 3778 458 
Q 3828 475 3916 513 
L 3916 50 
Q 3788 -22 3673 -56 
Q 3559 -91 3450 -91 
Q 3234 -91 3106 31 
Q 2978 153 2931 403 
Q 2775 156 2548 32 
Q 2322 -91 2016 -91 
Q 1697 -91 1473 31 
Q 1250 153 1119 397 
L 1119 -1331 
L 544 -1331 
z
" transform="scale(0.015625)"/>
       <path id="DejaVuSans-73" d="M 2834 3397 
L 2834 2853 
Q 2591 2978 2328 3040 
Q 2066 3103 1784 3103 
Q 1356 3103 1142 2972 
Q 928 2841 928 2578 
Q 928 2378 1081 2264 
Q 1234 2150 1697 2047 
L 1894 2003 
Q 2506 1872 2764 1633 
Q 3022 1394 3022 966 
Q 3022 478 2636 193 
Q 2250 -91 1575 -91 
Q 1294 -91 989 -36 
Q 684 19 347 128 
L 347 722 
Q 666 556 975 473 
Q 1284 391 1588 391 
Q 1994 391 2212 530 
Q 2431 669 2431 922 
Q 2431 1156 2273 1281 
Q 2116 1406 1581 1522 
L 1381 1569 
Q 847 1681 609 1914 
Q 372 2147 372 2553 
Q 372 3047 722 3315 
Q 1072 3584 1716 3584 
Q 2034 3584 2315 3537 
Q 2597 3491 2834 3397 
z
" transform="scale(0.015625)"/>
       <path id="DejaVuSans-5d" d="M 1947 4863 
L 1947 -844 
L 622 -844 
L 622 -397 
L 1369 -397 
L 1369 4416 
L 622 4416 
L 622 4863 
L 1947 4863 
z
" transform="scale(0.015625)"/>
      </defs>
      <use xlink:href="#DejaVuSans-62"/>
      <use xlink:href="#DejaVuSans-69" transform="translate(63.476562 0)"/>
      <use xlink:href="#DejaVuSans-72" transform="translate(91.259766 0)"/>
      <use xlink:href="#DejaVuSans-74" transform="translate(132.373047 0)"/>
      <use xlink:href="#DejaVuSans-68" transform="translate(171.582031 0)"/>
      <use xlink:href="#DejaVuSans-5f" transform="translate(234.960938 0)"/>
      <use xlink:href="#DejaVuSans-74" transform="translate(284.960938 0)"/>
      <use xlink:href="#DejaVuSans-69" transform="translate(324.169922 0)"/>
      <use xlink:href="#DejaVuSans-6d" transform="translate(351.953125 0)"/>
      <use xlink:href="#DejaVuSans-65" transform="translate(449.365234 0)"/>
      <use xlink:href="#DejaVuSans-20" transform="translate(510.888672 0)"/>
      <use xlink:href="#DejaVuSans-5b" transform="translate(542.675781 0)"/>
      <use xlink:href="#DejaVuSans-b5" transform="translate(581.689453 0)"/>
      <use xlink:href="#DejaVuSans-73" transform="translate(645.3125 0)"/>
      <use xlink:href="#DejaVuSans-5d" transform="translate(697.412109 0)"/>
     </g>
    </g>
   </g>
   <g id="matplotlib.axis_2">
    <g id="ytick_1">
     <g id="line2d_7">
      <defs>
       <path id="m4b677ca014" d="M 0 0 
L -3.5 0 
" style="stroke: #000000; stroke-width: 0.8"/>
      </defs>
      <g>
       <use xlink:href="#m4b677ca014" x="53.328125" y="245.797127" style="stroke: #000000; stroke-width: 0.8"/>
      </g>
     </g>
     <g id="text_8">
      <!-- 0 -->
      <g transform="translate(39.965625 249.596346) scale(0.1 -0.1)">
       <use xlink:href="#DejaVuSans-30"/>
      </g>
     </g>
    </g>
    <g id="ytick_2">
     <g id="line2d_8">
      <g>
       <use xlink:href="#m4b677ca014" x="53.328125" y="209.264111" style="stroke: #000000; stroke-width: 0.8"/>
      </g>
     </g>
     <g id="text_9">
      <!-- 200 -->
      <g transform="translate(27.240625 213.06333) scale(0.1 -0.1)">
       <use xlink:href="#DejaVuSans-32"/>
       <use xlink:href="#DejaVuSans-30" transform="translate(63.623047 0)"/>
       <use xlink:href="#DejaVuSans-30" transform="translate(127.246094 0)"/>
      </g>
     </g>
    </g>
    <g id="ytick_3">
     <g id="line2d_9">
      <g>
       <use xlink:href="#m4b677ca014" x="53.328125" y="172.731095" style="stroke: #000000; stroke-width: 0.8"/>
      </g>
     </g>
     <g id="text_10">
      <!-- 400 -->
      <g transform="translate(27.240625 176.530314) scale(0.1 -0.1)">
       <use xlink:href="#DejaVuSans-34"/>
       <use xlink:href="#DejaVuSans-30" transform="translate(63.623047 0)"/>
       <use xlink:href="#DejaVuSans-30" transform="translate(127.246094 0)"/>
      </g>
     </g>
    </g>
    <g id="ytick_4">
     <g id="line2d_10">
      <g>
       <use xlink:href="#m4b677ca014" x="53.328125" y="136.198079" style="stroke: #000000; stroke-width: 0.8"/>
      </g>
     </g>
     <g id="text_11">
      <!-- 600 -->
      <g transform="translate(27.240625 139.997298) scale(0.1 -0.1)">
       <defs>
        <path id="DejaVuSans-36" d="M 2113 2584 
Q 1688 2584 1439 2293 
Q 1191 2003 1191 1497 
Q 1191 994 1439 701 
Q 1688 409 2113 409 
Q 2538 409 2786 701 
Q 3034 994 3034 1497 
Q 3034 2003 2786 2293 
Q 2538 2584 2113 2584 
z
M 3366 4563 
L 3366 3988 
Q 3128 4100 2886 4159 
Q 2644 4219 2406 4219 
Q 1781 4219 1451 3797 
Q 1122 3375 1075 2522 
Q 1259 2794 1537 2939 
Q 1816 3084 2150 3084 
Q 2853 3084 3261 2657 
Q 3669 2231 3669 1497 
Q 3669 778 3244 343 
Q 2819 -91 2113 -91 
Q 1303 -91 875 529 
Q 447 1150 447 2328 
Q 447 3434 972 4092 
Q 1497 4750 2381 4750 
Q 2619 4750 2861 4703 
Q 3103 4656 3366 4563 
z
" transform="scale(0.015625)"/>
       </defs>
       <use xlink:href="#DejaVuSans-36"/>
       <use xlink:href="#DejaVuSans-30" transform="translate(63.623047 0)"/>
       <use xlink:href="#DejaVuSans-30" transform="translate(127.246094 0)"/>
      </g>
     </g>
    </g>
    <g id="ytick_5">
     <g id="line2d_11">
      <g>
       <use xlink:href="#m4b677ca014" x="53.328125" y="99.665063" style="stroke: #000000; stroke-width: 0.8"/>
      </g>
     </g>
     <g id="text_12">
      <!-- 800 -->
      <g transform="translate(27.240625 103.464282) scale(0.1 -0.1)">
       <defs>
        <path id="DejaVuSans-38" d="M 2034 2216 
Q 1584 2216 1326 1975 
Q 1069 1734 1069 1313 
Q 1069 891 1326 650 
Q 1584 409 2034 409 
Q 2484 409 2743 651 
Q 3003 894 3003 1313 
Q 3003 1734 2745 1975 
Q 2488 2216 2034 2216 
z
M 1403 2484 
Q 997 2584 770 2862 
Q 544 3141 544 3541 
Q 544 4100 942 4425 
Q 1341 4750 2034 4750 
Q 2731 4750 3128 4425 
Q 3525 4100 3525 3541 
Q 3525 3141 3298 2862 
Q 3072 2584 2669 2484 
Q 3125 2378 3379 2068 
Q 3634 1759 3634 1313 
Q 3634 634 3220 271 
Q 2806 -91 2034 -91 
Q 1263 -91 848 271 
Q 434 634 434 1313 
Q 434 1759 690 2068 
Q 947 2378 1403 2484 
z
M 1172 3481 
Q 1172 3119 1398 2916 
Q 1625 2713 2034 2713 
Q 2441 2713 2670 2916 
Q 2900 3119 2900 3481 
Q 2900 3844 2670 4047 
Q 2441 4250 2034 4250 
Q 1625 4250 1398 4047 
Q 1172 3844 1172 3481 
z
" transform="scale(0.015625)"/>
       </defs>
       <use xlink:href="#DejaVuSans-38"/>
       <use xlink:href="#DejaVuSans-30" transform="translate(63.623047 0)"/>
       <use xlink:href="#DejaVuSans-30" transform="translate(127.246094 0)"/>
      </g>
     </g>
    </g>
    <g id="ytick_6">
     <g id="line2d_12">
      <g>
       <use xlink:href="#m4b677ca014" x="53.328125" y="63.132047" style="stroke: #000000; stroke-width: 0.8"/>
      </g>
     </g>
     <g id="text_13">
      <!-- 1000 -->
      <g transform="translate(20.878125 66.931266) scale(0.1 -0.1)">
       <use xlink:href="#DejaVuSans-31"/>
       <use xlink:href="#DejaVuSans-30" transform="translate(63.623047 0)"/>
       <use xlink:href="#DejaVuSans-30" transform="translate(127.246094 0)"/>
       <use xlink:href="#DejaVuSans-30" transform="translate(190.869141 0)"/>
      </g>
     </g>
    </g>
    <g id="ytick_7">
     <g id="line2d_13">
      <g>
       <use xlink:href="#m4b677ca014" x="53.328125" y="26.599031" style="stroke: #000000; stroke-width: 0.8"/>
      </g>
     </g>
     <g id="text_14">
      <!-- 1200 -->
      <g transform="translate(20.878125 30.39825) scale(0.1 -0.1)">
       <use xlink:href="#DejaVuSans-31"/>
       <use xlink:href="#DejaVuSans-32" transform="translate(63.623047 0)"/>
       <use xlink:href="#DejaVuSans-30" transform="translate(127.246094 0)"/>
       <use xlink:href="#DejaVuSans-30" transform="translate(190.869141 0)"/>
      </g>
     </g>
    </g>
    <g id="text_15">
     <!-- [counts] -->
     <g transform="translate(14.798438 152.791947) rotate(-90) scale(0.1 -0.1)">
      <defs>
       <path id="DejaVuSans-63" d="M 3122 3366 
L 3122 2828 
Q 2878 2963 2633 3030 
Q 2388 3097 2138 3097 
Q 1578 3097 1268 2742 
Q 959 2388 959 1747 
Q 959 1106 1268 751 
Q 1578 397 2138 397 
Q 2388 397 2633 464 
Q 2878 531 3122 666 
L 3122 134 
Q 2881 22 2623 -34 
Q 2366 -91 2075 -91 
Q 1284 -91 818 406 
Q 353 903 353 1747 
Q 353 2603 823 3093 
Q 1294 3584 2113 3584 
Q 2378 3584 2631 3529 
Q 2884 3475 3122 3366 
z
" transform="scale(0.015625)"/>
       <path id="DejaVuSans-6f" d="M 1959 3097 
Q 1497 3097 1228 2736 
Q 959 2375 959 1747 
Q 959 1119 1226 758 
Q 1494 397 1959 397 
Q 2419 397 2687 759 
Q 2956 1122 2956 1747 
Q 2956 2369 2687 2733 
Q 2419 3097 1959 3097 
z
M 1959 3584 
Q 2709 3584 3137 3096 
Q 3566 2609 3566 1747 
Q 3566 888 3137 398 
Q 2709 -91 1959 -91 
Q 1206 -91 779 398 
Q 353 888 353 1747 
Q 353 2609 779 3096 
Q 1206 3584 1959 3584 
z
" transform="scale(0.015625)"/>
       <path id="DejaVuSans-75" d="M 544 1381 
L 544 3500 
L 1119 3500 
L 1119 1403 
Q 1119 906 1312 657 
Q 1506 409 1894 409 
Q 2359 409 2629 706 
Q 2900 1003 2900 1516 
L 2900 3500 
L 3475 3500 
L 3475 0 
L 2900 0 
L 2900 538 
Q 2691 219 2414 64 
Q 2138 -91 1772 -91 
Q 1169 -91 856 284 
Q 544 659 544 1381 
z
M 1991 3584 
L 1991 3584 
z
" transform="scale(0.015625)"/>
       <path id="DejaVuSans-6e" d="M 3513 2113 
L 3513 0 
L 2938 0 
L 2938 2094 
Q 2938 2591 2744 2837 
Q 2550 3084 2163 3084 
Q 1697 3084 1428 2787 
Q 1159 2491 1159 1978 
L 1159 0 
L 581 0 
L 581 3500 
L 1159 3500 
L 1159 2956 
Q 1366 3272 1645 3428 
Q 1925 3584 2291 3584 
Q 2894 3584 3203 3211 
Q 3513 2838 3513 2113 
z
" transform="scale(0.015625)"/>
      </defs>
      <use xlink:href="#DejaVuSans-5b"/>
      <use xlink:href="#DejaVuSans-63" transform="translate(39.013672 0)"/>
      <use xlink:href="#DejaVuSans-6f" transform="translate(93.994141 0)"/>
      <use xlink:href="#DejaVuSans-75" transform="translate(155.175781 0)"/>
      <use xlink:href="#DejaVuSans-6e" transform="translate(218.554688 0)"/>
      <use xlink:href="#DejaVuSans-74" transform="translate(281.933594 0)"/>
      <use xlink:href="#DejaVuSans-73" transform="translate(321.142578 0)"/>
      <use xlink:href="#DejaVuSans-5d" transform="translate(373.242188 0)"/>
     </g>
    </g>
   </g>
   <g id="line2d_14">
    <path d="M 69.749563 235.385218 
L 70.844325 235.385218 
L 70.844325 228.809275 
L 71.939088 228.809275 
L 71.939088 217.11871 
L 73.033851 217.11871 
L 73.033851 212.552083 
L 74.128613 212.552083 
L 74.128613 206.158805 
L 75.223376 206.158805 
L 75.223376 193.189584 
L 76.318138 193.189584 
L 76.318138 185.700316 
L 77.412901 185.700316 
L 77.412901 175.105741 
L 78.507663 175.105741 
L 78.507663 172.54843 
L 79.602426 172.54843 
L 79.602426 161.04053 
L 80.697188 161.04053 
L 80.697188 152.637936 
L 81.791951 152.637936 
L 81.791951 148.071309 
L 82.886713 148.071309 
L 82.886713 142.591357 
L 83.981476 142.591357 
L 83.981476 133.640768 
L 85.076238 133.640768 
L 85.076238 124.690179 
L 86.171001 124.690179 
L 86.171001 127.064825 
L 87.265763 127.064825 
L 87.265763 114.27827 
L 88.360526 114.27827 
L 88.360526 110.076973 
L 89.455288 110.076973 
L 89.455288 114.27827 
L 90.550051 114.27827 
L 90.550051 102.039709 
L 91.644814 102.039709 
L 91.644814 100.213059 
L 92.739576 100.213059 
L 92.739576 95.098436 
L 93.834339 95.098436 
L 93.834339 98.021078 
L 94.929101 98.021078 
L 94.929101 97.655747 
L 96.023864 97.655747 
L 96.023864 78.110584 
L 97.118626 78.110584 
L 97.118626 81.398555 
L 98.213389 81.398555 
L 98.213389 79.023909 
L 99.308151 79.023909 
L 99.308151 78.841244 
L 100.402914 78.841244 
L 100.402914 76.283933 
L 101.497676 76.283933 
L 101.497676 83.225206 
L 102.592439 83.225206 
L 102.592439 73.178627 
L 103.687201 73.178627 
L 103.687201 69.890655 
L 104.781964 69.890655 
L 104.781964 77.197259 
L 105.876726 77.197259 
L 105.876726 73.909287 
L 106.971489 73.909287 
L 106.971489 67.516009 
L 108.066252 67.516009 
L 108.066252 62.766717 
L 109.161014 62.766717 
L 109.161014 70.438651 
L 110.255777 70.438651 
L 110.255777 57.46943 
L 111.350539 57.46943 
L 111.350539 61.305397 
L 112.445302 61.305397 
L 112.445302 59.661411 
L 113.540064 59.661411 
L 113.540064 59.478746 
L 114.634827 59.478746 
L 114.634827 52.720138 
L 115.729589 52.720138 
L 115.729589 62.401387 
L 116.824352 62.401387 
L 116.824352 52.537473 
L 117.919114 52.537473 
L 117.919114 57.1041 
L 119.013877 57.1041 
L 119.013877 55.277449 
L 120.108639 55.277449 
L 120.108639 44.500209 
L 121.203402 44.500209 
L 121.203402 52.720138 
L 122.298164 52.720138 
L 122.298164 44.865539 
L 123.392927 44.865539 
L 123.392927 50.345492 
L 124.487689 50.345492 
L 124.487689 46.874855 
L 125.582452 46.874855 
L 125.582452 56.556105 
L 126.677215 56.556105 
L 126.677215 44.865539 
L 127.771977 44.865539 
L 127.771977 55.277449 
L 128.86674 55.277449 
L 128.86674 35.732285 
L 129.961502 35.732285 
L 129.961502 52.172143 
L 131.056265 52.172143 
L 131.056265 43.404219 
L 132.151027 43.404219 
L 132.151027 39.568252 
L 133.24579 39.568252 
L 133.24579 39.933582 
L 134.340552 39.933582 
L 134.340552 46.69219 
L 135.435315 46.69219 
L 135.435315 35.914951 
L 136.530077 35.914951 
L 136.530077 42.856224 
L 137.62484 42.856224 
L 137.62484 40.116247 
L 138.719602 40.116247 
L 138.719602 46.32686 
L 139.814365 46.32686 
L 139.814365 40.846908 
L 140.909127 40.846908 
L 140.909127 38.837592 
L 142.00389 38.837592 
L 142.00389 33.357639 
L 143.098652 33.357639 
L 143.098652 41.029573 
L 144.193415 41.029573 
L 144.193415 26.416366 
L 145.288178 26.416366 
L 145.288178 43.404219 
L 146.38294 43.404219 
L 146.38294 40.664243 
L 147.477703 40.664243 
L 147.477703 38.472262 
L 148.572465 38.472262 
L 148.572465 32.444314 
L 149.667228 32.444314 
L 149.667228 33.905635 
L 150.76199 33.905635 
L 150.76199 42.125563 
L 151.856753 42.125563 
L 151.856753 46.509525 
L 152.951515 46.509525 
L 152.951515 37.010941 
L 154.046278 37.010941 
L 154.046278 30.069668 
L 155.14104 30.069668 
L 155.14104 39.202922 
L 156.235803 39.202922 
L 156.235803 40.298912 
L 157.330565 40.298912 
L 157.330565 26.964362 
L 158.425328 26.964362 
L 158.425328 43.404219 
L 159.52009 43.404219 
L 159.52009 28.425682 
L 160.614853 28.425682 
L 160.614853 50.345492 
L 161.709615 50.345492 
L 161.709615 34.45363 
L 162.804378 34.45363 
L 162.804378 37.376271 
L 163.899141 37.376271 
L 163.899141 45.778865 
L 164.993903 45.778865 
L 164.993903 37.010941 
L 166.088666 37.010941 
L 166.088666 33.540304 
L 167.183428 33.540304 
L 167.183428 40.116247 
L 168.278191 40.116247 
L 168.278191 42.673558 
L 169.372953 42.673558 
L 169.372953 40.846908 
L 170.467716 40.846908 
L 170.467716 26.233701 
L 171.562478 26.233701 
L 171.562478 29.521673 
L 172.657241 29.521673 
L 172.657241 39.020257 
L 173.752003 39.020257 
L 173.752003 31.165658 
L 175.941528 31.165658 
L 175.941528 42.856224 
L 177.036291 42.856224 
L 177.036291 24.04172 
L 178.131053 24.04172 
L 178.131053 26.051036 
L 179.225816 26.051036 
L 179.225816 23.859055 
L 180.320579 23.859055 
L 180.320579 32.444314 
L 181.415341 32.444314 
L 181.415341 22.397735 
L 182.510104 22.397735 
L 182.510104 34.45363 
L 183.604866 34.45363 
L 183.604866 37.376271 
L 184.699629 37.376271 
L 184.699629 29.704338 
L 185.794391 29.704338 
L 185.794391 36.097616 
L 186.889154 36.097616 
L 186.889154 37.924266 
L 187.983916 37.924266 
L 187.983916 39.568252 
L 189.078679 39.568252 
L 189.078679 29.887003 
L 190.173441 29.887003 
L 190.173441 21.667074 
L 191.268204 21.667074 
L 191.268204 34.636295 
L 192.362966 34.636295 
L 192.362966 35.366955 
L 193.457729 35.366955 
L 193.457729 34.0883 
L 194.552491 34.0883 
L 194.552491 32.078984 
L 195.647254 32.078984 
L 195.647254 41.942898 
L 196.742016 41.942898 
L 196.742016 33.357639 
L 197.836779 33.357639 
L 197.836779 41.212238 
L 198.931542 41.212238 
L 198.931542 25.685706 
L 200.026304 25.685706 
L 200.026304 38.472262 
L 201.121067 38.472262 
L 201.121067 25.320376 
L 202.215829 25.320376 
L 202.215829 29.339008 
L 203.310592 29.339008 
L 203.310592 26.233701 
L 204.405354 26.233701 
L 204.405354 33.357639 
L 205.500117 33.357639 
L 205.500117 32.809644 
L 206.594879 32.809644 
L 206.594879 45.048205 
L 207.689642 45.048205 
L 207.689642 36.828276 
L 208.784404 36.828276 
L 208.784404 28.060352 
L 209.879167 28.060352 
L 209.879167 33.174974 
L 210.973929 33.174974 
L 210.973929 41.029573 
L 212.068692 41.029573 
L 212.068692 32.261649 
L 213.163454 32.261649 
L 213.163454 40.116247 
L 214.258217 40.116247 
L 214.258217 24.407051 
L 215.352979 24.407051 
L 215.352979 29.704338 
L 216.447742 29.704338 
L 216.447742 44.500209 
L 217.542505 44.500209 
L 217.542505 42.673558 
L 218.637267 42.673558 
L 218.637267 39.385587 
L 219.73203 39.385587 
L 219.73203 36.828276 
L 220.826792 36.828276 
L 220.826792 35.001625 
L 221.921555 35.001625 
L 221.921555 34.81896 
L 223.016317 34.81896 
L 223.016317 35.18429 
L 224.11108 35.18429 
L 224.11108 40.664243 
L 225.205842 40.664243 
L 225.205842 37.010941 
L 226.300605 37.010941 
L 226.300605 38.106931 
L 227.395367 38.106931 
L 227.395367 26.964362 
L 228.49013 26.964362 
L 228.49013 37.558936 
L 229.584892 37.558936 
L 229.584892 36.645611 
L 230.679655 36.645611 
L 230.679655 40.298912 
L 231.774417 40.298912 
L 231.774417 43.769549 
L 232.86918 43.769549 
L 232.86918 38.654927 
L 233.963942 38.654927 
L 233.963942 30.434998 
L 235.058705 30.434998 
L 235.058705 26.781697 
L 236.153468 26.781697 
L 236.153468 39.568252 
L 237.24823 39.568252 
L 237.24823 32.626979 
L 238.342993 32.626979 
L 238.342993 31.530989 
L 239.437755 31.530989 
L 239.437755 40.298912 
L 240.532518 40.298912 
L 240.532518 34.45363 
L 241.62728 34.45363 
L 241.62728 35.366955 
L 242.722043 35.366955 
L 242.722043 35.001625 
L 243.816805 35.001625 
L 243.816805 29.339008 
L 244.911568 29.339008 
L 244.911568 18.561768 
L 246.00633 18.561768 
L 246.00633 47.788181 
L 247.101093 47.788181 
L 247.101093 33.72297 
L 248.195855 33.72297 
L 248.195855 29.887003 
L 249.290618 29.887003 
L 249.290618 31.165658 
L 250.38538 31.165658 
L 250.38538 41.212238 
L 251.480143 41.212238 
L 251.480143 28.973677 
L 252.574906 28.973677 
L 252.574906 30.434998 
L 253.669668 30.434998 
L 253.669668 32.809644 
L 254.764431 32.809644 
L 254.764431 35.366955 
L 255.859193 35.366955 
L 255.859193 30.252333 
L 256.953956 30.252333 
L 256.953956 39.933582 
L 258.048718 39.933582 
L 258.048718 41.577568 
L 259.143481 41.577568 
L 259.143481 46.69219 
L 260.238243 46.69219 
L 260.238243 59.296081 
L 261.333006 59.296081 
L 261.333006 63.314712 
L 262.427768 63.314712 
L 262.427768 89.070489 
L 263.522531 89.070489 
L 263.522531 80.1199 
L 264.617293 80.1199 
L 264.617293 86.330513 
L 265.712056 86.330513 
L 265.712056 101.491714 
L 266.806818 101.491714 
L 266.806818 113.547609 
L 267.901581 113.547609 
L 267.901581 116.652916 
L 268.996343 116.652916 
L 268.996343 116.10492 
L 270.091106 116.10492 
L 270.091106 121.402208 
L 271.185869 121.402208 
L 271.185869 131.448787 
L 272.280631 131.448787 
L 272.280631 144.600673 
L 273.375394 144.600673 
L 273.375394 153.368597 
L 274.470156 153.368597 
L 274.470156 147.523314 
L 275.564919 147.523314 
L 275.564919 159.031214 
L 276.659681 159.031214 
L 276.659681 161.40586 
L 277.754444 161.40586 
L 277.754444 166.885813 
L 278.849206 166.885813 
L 278.849206 172.000435 
L 279.943969 172.000435 
L 279.943969 169.808454 
L 281.038731 169.808454 
L 281.038731 178.211048 
L 282.133494 178.211048 
L 282.133494 181.316354 
L 283.228256 181.316354 
L 283.228256 187.526967 
L 284.323019 187.526967 
L 284.323019 190.266943 
L 286.512544 190.266943 
L 286.512544 188.988287 
L 287.607306 188.988287 
L 287.607306 196.660221 
L 288.702069 196.660221 
L 288.702069 198.852202 
L 289.796832 198.852202 
L 289.796832 205.062814 
L 290.891594 205.062814 
L 290.891594 200.678852 
L 291.986357 200.678852 
L 291.986357 208.168121 
L 293.081119 208.168121 
L 293.081119 207.07213 
L 294.175882 207.07213 
L 294.175882 212.186752 
L 295.270644 212.186752 
L 295.270644 213.830738 
L 296.365407 213.830738 
L 296.365407 215.840054 
L 297.460169 215.840054 
L 297.460169 218.032035 
L 298.554932 218.032035 
L 298.554932 218.94536 
L 299.649694 218.94536 
L 299.649694 220.041351 
L 300.744457 220.041351 
L 300.744457 217.666705 
L 301.839219 217.666705 
L 301.839219 221.502671 
L 302.933982 221.502671 
L 302.933982 218.032035 
L 304.028744 218.032035 
L 304.028744 226.982624 
L 306.218269 226.982624 
L 306.218269 228.261279 
L 307.313032 228.261279 
L 307.313032 228.62661 
L 308.407795 228.62661 
L 308.407795 227.713284 
L 309.502557 227.713284 
L 309.502557 228.261279 
L 310.59732 228.261279 
L 310.59732 228.62661 
L 311.692082 228.62661 
L 311.692082 233.558567 
L 312.786845 233.558567 
L 312.786845 231.549251 
L 313.881607 231.549251 
L 313.881607 233.375902 
L 316.071132 233.375902 
L 316.071132 235.202552 
L 317.165895 235.202552 
L 317.165895 235.567883 
L 318.260657 235.567883 
L 318.260657 237.029203 
L 319.35542 237.029203 
L 319.35542 236.298543 
L 320.450182 236.298543 
L 320.450182 238.307859 
L 321.544945 238.307859 
L 321.544945 235.202552 
L 322.639707 235.202552 
L 322.639707 236.663873 
L 323.73447 236.663873 
L 323.73447 237.942529 
L 324.829233 237.942529 
L 324.829233 237.759864 
L 325.923995 237.759864 
L 325.923995 236.298543 
L 327.018758 236.298543 
L 327.018758 237.029203 
L 328.11352 237.029203 
L 328.11352 239.951844 
L 329.208283 239.951844 
L 329.208283 239.586514 
L 330.303045 239.586514 
L 330.303045 240.317175 
L 332.49257 240.317175 
L 332.49257 241.778495 
L 333.587333 241.778495 
L 333.587333 241.2305 
L 334.682095 241.2305 
L 334.682095 241.778495 
L 335.776858 241.778495 
L 335.776858 242.143825 
L 336.87162 242.143825 
L 336.87162 241.778495 
L 337.966383 241.778495 
L 337.966383 242.874486 
L 339.061145 242.874486 
L 339.061145 241.59583 
L 340.155908 241.59583 
L 340.155908 242.509156 
L 342.345433 242.509156 
L 342.345433 242.143825 
L 343.440196 242.143825 
L 343.440196 243.605146 
L 344.534958 243.605146 
L 344.534958 242.874486 
L 345.629721 242.874486 
L 345.629721 242.143825 
L 346.724483 242.143825 
L 346.724483 242.326491 
L 347.819246 242.326491 
L 347.819246 243.422481 
L 350.008771 243.422481 
L 350.008771 243.605146 
L 351.103533 243.605146 
L 351.103533 243.970476 
L 353.293058 243.970476 
L 353.293058 244.335806 
L 354.387821 244.335806 
L 354.387821 243.787811 
L 355.482583 243.787811 
L 355.482583 243.239816 
L 356.577346 243.239816 
L 356.577346 244.335806 
L 357.672108 244.335806 
L 357.672108 243.787811 
L 358.766871 243.787811 
L 358.766871 244.518471 
L 359.861633 244.518471 
L 359.861633 243.057151 
L 360.956396 243.057151 
L 360.956396 243.970476 
L 362.051159 243.970476 
L 362.051159 244.701137 
L 363.145921 244.701137 
L 363.145921 244.518471 
L 364.240684 244.518471 
L 364.240684 244.701137 
L 366.430209 244.701137 
L 366.430209 245.249132 
L 367.524971 245.249132 
L 367.524971 244.153141 
L 368.619734 244.153141 
L 368.619734 245.249132 
L 369.714496 245.249132 
L 369.714496 244.153141 
L 370.809259 244.153141 
L 370.809259 244.701137 
L 372.998784 244.701137 
L 372.998784 244.883802 
L 375.188309 244.883802 
L 375.188309 244.335806 
L 376.283071 244.335806 
L 376.283071 244.518471 
L 377.377834 244.518471 
L 377.377834 245.614462 
L 378.472596 245.614462 
L 378.472596 245.249132 
L 379.567359 245.249132 
L 379.567359 245.066467 
L 380.662122 245.066467 
L 380.662122 245.614462 
L 381.756884 245.614462 
L 381.756884 244.883802 
L 382.851647 244.883802 
L 382.851647 245.614462 
L 383.946409 245.614462 
L 383.946409 245.249132 
L 385.041172 245.249132 
L 385.041172 245.431797 
L 386.135934 245.431797 
L 386.135934 245.249132 
L 387.230697 245.249132 
L 387.230697 245.431797 
L 389.420222 245.431797 
L 389.420222 245.797127 
L 390.514984 245.797127 
L 390.514984 245.614462 
L 392.704509 245.614462 
L 392.704509 245.431797 
L 393.799272 245.431797 
L 393.799272 245.614462 
L 394.894034 245.614462 
L 394.894034 245.431797 
L 395.988797 245.431797 
L 395.988797 245.249132 
L 398.178322 245.249132 
L 398.178322 245.249132 
" clip-path="url(#pcb0ee391de)" style="fill: none; stroke: #1f77b4; stroke-width: 1.5; stroke-linecap: square"/>
   </g>
   <g id="patch_3">
    <path d="M 53.328125 257.158895 
L 53.328125 7.2 
" style="fill: none; stroke: #000000; stroke-width: 0.8; stroke-linejoin: miter; stroke-linecap: square"/>
   </g>
   <g id="patch_4">
    <path d="M 414.59976 257.158895 
L 414.59976 7.2 
" style="fill: none; stroke: #000000; stroke-width: 0.8; stroke-linejoin: miter; stroke-linecap: square"/>
   </g>
   <g id="patch_5">
    <path d="M 53.328125 257.158895 
L 414.59976 257.158895 
" style="fill: none; stroke: #000000; stroke-width: 0.8; stroke-linejoin: miter; stroke-linecap: square"/>
   </g>
   <g id="patch_6">
    <path d="M 53.328125 7.2 
L 414.59976 7.2 
" style="fill: none; stroke: #000000; stroke-width: 0.8; stroke-linejoin: miter; stroke-linecap: square"/>
   </g>
  </g>
  <g id="axes_2">
   <g id="patch_7">
    <path d="M 503.927885 257.158895 
L 865.19952 257.158895 
L 865.19952 7.2 
L 503.927885 7.2 
z
" style="fill: #ffffff"/>
   </g>
   <g id="matplotlib.axis_3">
    <g id="xtick_7">
     <g id="line2d_15">
      <g>
       <use xlink:href="#m592d9f8875" x="517.038502" y="257.158895" style="stroke: #000000; stroke-width: 0.8"/>
      </g>
     </g>
     <g id="text_16">
      <!-- 0.0 -->
      <g transform="translate(509.086939 271.757332) scale(0.1 -0.1)">
       <defs>
        <path id="DejaVuSans-2e" d="M 684 794 
L 1344 794 
L 1344 0 
L 684 0 
L 684 794 
z
" transform="scale(0.015625)"/>
       </defs>
       <use xlink:href="#DejaVuSans-30"/>
       <use xlink:href="#DejaVuSans-2e" transform="translate(63.623047 0)"/>
       <use xlink:href="#DejaVuSans-30" transform="translate(95.410156 0)"/>
      </g>
     </g>
    </g>
    <g id="xtick_8">
     <g id="line2d_16">
      <g>
       <use xlink:href="#m592d9f8875" x="558.720791" y="257.158895" style="stroke: #000000; stroke-width: 0.8"/>
      </g>
     </g>
     <g id="text_17">
      <!-- 2.5 -->
      <g transform="translate(550.769229 271.757332) scale(0.1 -0.1)">
       <use xlink:href="#DejaVuSans-32"/>
       <use xlink:href="#DejaVuSans-2e" transform="translate(63.623047 0)"/>
       <use xlink:href="#DejaVuSans-35" transform="translate(95.410156 0)"/>
      </g>
     </g>
    </g>
    <g id="xtick_9">
     <g id="line2d_17">
      <g>
       <use xlink:href="#m592d9f8875" x="600.403081" y="257.158895" style="stroke: #000000; stroke-width: 0.8"/>
      </g>
     </g>
     <g id="text_18">
      <!-- 5.0 -->
      <g transform="translate(592.451518 271.757332) scale(0.1 -0.1)">
       <use xlink:href="#DejaVuSans-35"/>
       <use xlink:href="#DejaVuSans-2e" transform="translate(63.623047 0)"/>
       <use xlink:href="#DejaVuSans-30" transform="translate(95.410156 0)"/>
      </g>
     </g>
    </g>
    <g id="xtick_10">
     <g id="line2d_18">
      <g>
       <use xlink:href="#m592d9f8875" x="642.08537" y="257.158895" style="stroke: #000000; stroke-width: 0.8"/>
      </g>
     </g>
     <g id="text_19">
      <!-- 7.5 -->
      <g transform="translate(634.133808 271.757332) scale(0.1 -0.1)">
       <defs>
        <path id="DejaVuSans-37" d="M 525 4666 
L 3525 4666 
L 3525 4397 
L 1831 0 
L 1172 0 
L 2766 4134 
L 525 4134 
L 525 4666 
z
" transform="scale(0.015625)"/>
       </defs>
       <use xlink:href="#DejaVuSans-37"/>
       <use xlink:href="#DejaVuSans-2e" transform="translate(63.623047 0)"/>
       <use xlink:href="#DejaVuSans-35" transform="translate(95.410156 0)"/>
      </g>
     </g>
    </g>
    <g id="xtick_11">
     <g id="line2d_19">
      <g>
       <use xlink:href="#m592d9f8875" x="683.76766" y="257.158895" style="stroke: #000000; stroke-width: 0.8"/>
      </g>
     </g>
     <g id="text_20">
      <!-- 10.0 -->
      <g transform="translate(672.634847 271.757332) scale(0.1 -0.1)">
       <use xlink:href="#DejaVuSans-31"/>
       <use xlink:href="#DejaVuSans-30" transform="translate(63.623047 0)"/>
       <use xlink:href="#DejaVuSans-2e" transform="translate(127.246094 0)"/>
       <use xlink:href="#DejaVuSans-30" transform="translate(159.033203 0)"/>
      </g>
     </g>
    </g>
    <g id="xtick_12">
     <g id="line2d_20">
      <g>
       <use xlink:href="#m592d9f8875" x="725.449949" y="257.158895" style="stroke: #000000; stroke-width: 0.8"/>
      </g>
     </g>
     <g id="text_21">
      <!-- 12.5 -->
      <g transform="translate(714.317137 271.757332) scale(0.1 -0.1)">
       <use xlink:href="#DejaVuSans-31"/>
       <use xlink:href="#DejaVuSans-32" transform="translate(63.623047 0)"/>
       <use xlink:href="#DejaVuSans-2e" transform="translate(127.246094 0)"/>
       <use xlink:href="#DejaVuSans-35" transform="translate(159.033203 0)"/>
      </g>
     </g>
    </g>
    <g id="xtick_13">
     <g id="line2d_21">
      <g>
       <use xlink:href="#m592d9f8875" x="767.132239" y="257.158895" style="stroke: #000000; stroke-width: 0.8"/>
      </g>
     </g>
     <g id="text_22">
      <!-- 15.0 -->
      <g transform="translate(755.999426 271.757332) scale(0.1 -0.1)">
       <use xlink:href="#DejaVuSans-31"/>
       <use xlink:href="#DejaVuSans-35" transform="translate(63.623047 0)"/>
       <use xlink:href="#DejaVuSans-2e" transform="translate(127.246094 0)"/>
       <use xlink:href="#DejaVuSans-30" transform="translate(159.033203 0)"/>
      </g>
     </g>
    </g>
    <g id="xtick_14">
     <g id="line2d_22">
      <g>
       <use xlink:href="#m592d9f8875" x="808.814528" y="257.158895" style="stroke: #000000; stroke-width: 0.8"/>
      </g>
     </g>
     <g id="text_23">
      <!-- 17.5 -->
      <g transform="translate(797.681716 271.757332) scale(0.1 -0.1)">
       <use xlink:href="#DejaVuSans-31"/>
       <use xlink:href="#DejaVuSans-37" transform="translate(63.623047 0)"/>
       <use xlink:href="#DejaVuSans-2e" transform="translate(127.246094 0)"/>
       <use xlink:href="#DejaVuSans-35" transform="translate(159.033203 0)"/>
      </g>
     </g>
    </g>
    <g id="xtick_15">
     <g id="line2d_23">
      <g>
       <use xlink:href="#m592d9f8875" x="850.496818" y="257.158895" style="stroke: #000000; stroke-width: 0.8"/>
      </g>
     </g>
     <g id="text_24">
      <!-- 20.0 -->
      <g transform="translate(839.364005 271.757332) scale(0.1 -0.1)">
       <use xlink:href="#DejaVuSans-32"/>
       <use xlink:href="#DejaVuSans-30" transform="translate(63.623047 0)"/>
       <use xlink:href="#DejaVuSans-2e" transform="translate(127.246094 0)"/>
       <use xlink:href="#DejaVuSans-30" transform="translate(159.033203 0)"/>
      </g>
     </g>
    </g>
    <g id="text_25">
     <!-- wavelength [Å] -->
     <g transform="translate(646.526202 287.119832) scale(0.1 -0.1)">
      <defs>
       <path id="DejaVuSans-77" d="M 269 3500 
L 844 3500 
L 1563 769 
L 2278 3500 
L 2956 3500 
L 3675 769 
L 4391 3500 
L 4966 3500 
L 4050 0 
L 3372 0 
L 2619 2869 
L 1863 0 
L 1184 0 
L 269 3500 
z
" transform="scale(0.015625)"/>
       <path id="DejaVuSans-61" d="M 2194 1759 
Q 1497 1759 1228 1600 
Q 959 1441 959 1056 
Q 959 750 1161 570 
Q 1363 391 1709 391 
Q 2188 391 2477 730 
Q 2766 1069 2766 1631 
L 2766 1759 
L 2194 1759 
z
M 3341 1997 
L 3341 0 
L 2766 0 
L 2766 531 
Q 2569 213 2275 61 
Q 1981 -91 1556 -91 
Q 1019 -91 701 211 
Q 384 513 384 1019 
Q 384 1609 779 1909 
Q 1175 2209 1959 2209 
L 2766 2209 
L 2766 2266 
Q 2766 2663 2505 2880 
Q 2244 3097 1772 3097 
Q 1472 3097 1187 3025 
Q 903 2953 641 2809 
L 641 3341 
Q 956 3463 1253 3523 
Q 1550 3584 1831 3584 
Q 2591 3584 2966 3190 
Q 3341 2797 3341 1997 
z
" transform="scale(0.015625)"/>
       <path id="DejaVuSans-76" d="M 191 3500 
L 800 3500 
L 1894 563 
L 2988 3500 
L 3597 3500 
L 2284 0 
L 1503 0 
L 191 3500 
z
" transform="scale(0.015625)"/>
       <path id="DejaVuSans-6c" d="M 603 4863 
L 1178 4863 
L 1178 0 
L 603 0 
L 603 4863 
z
" transform="scale(0.015625)"/>
       <path id="DejaVuSans-67" d="M 2906 1791 
Q 2906 2416 2648 2759 
Q 2391 3103 1925 3103 
Q 1463 3103 1205 2759 
Q 947 2416 947 1791 
Q 947 1169 1205 825 
Q 1463 481 1925 481 
Q 2391 481 2648 825 
Q 2906 1169 2906 1791 
z
M 3481 434 
Q 3481 -459 3084 -895 
Q 2688 -1331 1869 -1331 
Q 1566 -1331 1297 -1286 
Q 1028 -1241 775 -1147 
L 775 -588 
Q 1028 -725 1275 -790 
Q 1522 -856 1778 -856 
Q 2344 -856 2625 -561 
Q 2906 -266 2906 331 
L 2906 616 
Q 2728 306 2450 153 
Q 2172 0 1784 0 
Q 1141 0 747 490 
Q 353 981 353 1791 
Q 353 2603 747 3093 
Q 1141 3584 1784 3584 
Q 2172 3584 2450 3431 
Q 2728 3278 2906 2969 
L 2906 3500 
L 3481 3500 
L 3481 434 
z
" transform="scale(0.015625)"/>
       <path id="DejaVuSans-c5" d="M 2663 5081 
Q 2663 5278 2523 5417 
Q 2384 5556 2188 5556 
Q 1988 5556 1852 5420 
Q 1716 5284 1716 5081 
Q 1716 4884 1853 4746 
Q 1991 4609 2188 4609 
Q 2384 4609 2523 4746 
Q 2663 4884 2663 5081 
z
M 2188 4044 
L 1338 1722 
L 3041 1722 
L 2188 4044 
z
M 1716 4366 
Q 1525 4494 1428 4673 
Q 1331 4853 1331 5081 
Q 1331 5441 1579 5691 
Q 1828 5941 2188 5941 
Q 2544 5941 2795 5689 
Q 3047 5438 3047 5081 
Q 3047 4863 2948 4678 
Q 2850 4494 2663 4366 
L 4325 0 
L 3669 0 
L 3244 1197 
L 1141 1197 
L 716 0 
L 50 0 
L 1716 4366 
z
" transform="scale(0.015625)"/>
      </defs>
      <use xlink:href="#DejaVuSans-77"/>
      <use xlink:href="#DejaVuSans-61" transform="translate(81.787109 0)"/>
      <use xlink:href="#DejaVuSans-76" transform="translate(143.066406 0)"/>
      <use xlink:href="#DejaVuSans-65" transform="translate(202.246094 0)"/>
      <use xlink:href="#DejaVuSans-6c" transform="translate(263.769531 0)"/>
      <use xlink:href="#DejaVuSans-65" transform="translate(291.552734 0)"/>
      <use xlink:href="#DejaVuSans-6e" transform="translate(353.076172 0)"/>
      <use xlink:href="#DejaVuSans-67" transform="translate(416.455078 0)"/>
      <use xlink:href="#DejaVuSans-74" transform="translate(479.931641 0)"/>
      <use xlink:href="#DejaVuSans-68" transform="translate(519.140625 0)"/>
      <use xlink:href="#DejaVuSans-20" transform="translate(582.519531 0)"/>
      <use xlink:href="#DejaVuSans-5b" transform="translate(614.306641 0)"/>
      <use xlink:href="#DejaVuSans-c5" transform="translate(653.320312 0)"/>
      <use xlink:href="#DejaVuSans-5d" transform="translate(721.728516 0)"/>
     </g>
    </g>
   </g>
   <g id="matplotlib.axis_4">
    <g id="ytick_8">
     <g id="line2d_24">
      <g>
       <use xlink:href="#m4b677ca014" x="503.927885" y="245.797127" style="stroke: #000000; stroke-width: 0.8"/>
      </g>
     </g>
     <g id="text_26">
      <!-- 0 -->
      <g transform="translate(490.565385 249.596346) scale(0.1 -0.1)">
       <use xlink:href="#DejaVuSans-30"/>
      </g>
     </g>
    </g>
    <g id="ytick_9">
     <g id="line2d_25">
      <g>
       <use xlink:href="#m4b677ca014" x="503.927885" y="193.690876" style="stroke: #000000; stroke-width: 0.8"/>
      </g>
     </g>
     <g id="text_27">
      <!-- 1000 -->
      <g transform="translate(471.477885 197.490095) scale(0.1 -0.1)">
       <use xlink:href="#DejaVuSans-31"/>
       <use xlink:href="#DejaVuSans-30" transform="translate(63.623047 0)"/>
       <use xlink:href="#DejaVuSans-30" transform="translate(127.246094 0)"/>
       <use xlink:href="#DejaVuSans-30" transform="translate(190.869141 0)"/>
      </g>
     </g>
    </g>
    <g id="ytick_10">
     <g id="line2d_26">
      <g>
       <use xlink:href="#m4b677ca014" x="503.927885" y="141.584626" style="stroke: #000000; stroke-width: 0.8"/>
      </g>
     </g>
     <g id="text_28">
      <!-- 2000 -->
      <g transform="translate(471.477885 145.383844) scale(0.1 -0.1)">
       <use xlink:href="#DejaVuSans-32"/>
       <use xlink:href="#DejaVuSans-30" transform="translate(63.623047 0)"/>
       <use xlink:href="#DejaVuSans-30" transform="translate(127.246094 0)"/>
       <use xlink:href="#DejaVuSans-30" transform="translate(190.869141 0)"/>
      </g>
     </g>
    </g>
    <g id="ytick_11">
     <g id="line2d_27">
      <g>
       <use xlink:href="#m4b677ca014" x="503.927885" y="89.478375" style="stroke: #000000; stroke-width: 0.8"/>
      </g>
     </g>
     <g id="text_29">
      <!-- 3000 -->
      <g transform="translate(471.477885 93.277594) scale(0.1 -0.1)">
       <use xlink:href="#DejaVuSans-33"/>
       <use xlink:href="#DejaVuSans-30" transform="translate(63.623047 0)"/>
       <use xlink:href="#DejaVuSans-30" transform="translate(127.246094 0)"/>
       <use xlink:href="#DejaVuSans-30" transform="translate(190.869141 0)"/>
      </g>
     </g>
    </g>
    <g id="ytick_12">
     <g id="line2d_28">
      <g>
       <use xlink:href="#m4b677ca014" x="503.927885" y="37.372124" style="stroke: #000000; stroke-width: 0.8"/>
      </g>
     </g>
     <g id="text_30">
      <!-- 4000 -->
      <g transform="translate(471.477885 41.171343) scale(0.1 -0.1)">
       <use xlink:href="#DejaVuSans-34"/>
       <use xlink:href="#DejaVuSans-30" transform="translate(63.623047 0)"/>
       <use xlink:href="#DejaVuSans-30" transform="translate(127.246094 0)"/>
       <use xlink:href="#DejaVuSans-30" transform="translate(190.869141 0)"/>
      </g>
     </g>
    </g>
    <g id="text_31">
     <!-- [counts] -->
     <g transform="translate(465.398197 152.791947) rotate(-90) scale(0.1 -0.1)">
      <use xlink:href="#DejaVuSans-5b"/>
      <use xlink:href="#DejaVuSans-63" transform="translate(39.013672 0)"/>
      <use xlink:href="#DejaVuSans-6f" transform="translate(93.994141 0)"/>
      <use xlink:href="#DejaVuSans-75" transform="translate(155.175781 0)"/>
      <use xlink:href="#DejaVuSans-6e" transform="translate(218.554688 0)"/>
      <use xlink:href="#DejaVuSans-74" transform="translate(281.933594 0)"/>
      <use xlink:href="#DejaVuSans-73" transform="translate(321.142578 0)"/>
      <use xlink:href="#DejaVuSans-5d" transform="translate(373.242188 0)"/>
     </g>
    </g>
   </g>
   <g id="line2d_29">
    <path d="M 520.349323 158.20652 
L 521.444085 158.20652 
L 521.444085 149.244245 
L 522.538848 149.244245 
L 522.538848 139.187738 
L 523.633611 139.187738 
L 523.633611 136.113469 
L 524.728373 136.113469 
L 524.728373 143.043601 
L 525.823136 143.043601 
L 525.823136 150.28637 
L 526.917898 150.28637 
L 526.917898 144.502576 
L 528.012661 144.502576 
L 528.012661 126.369601 
L 529.107423 126.369601 
L 529.107423 103.390744 
L 530.202186 103.390744 
L 530.202186 79.213444 
L 531.296948 79.213444 
L 531.296948 63.737887 
L 532.391711 63.737887 
L 532.391711 42.634856 
L 533.486473 42.634856 
L 533.486473 23.251331 
L 534.581236 23.251331 
L 534.581236 30.181462 
L 535.675998 30.181462 
L 535.675998 18.561768 
L 536.770761 18.561768 
L 536.770761 24.449774 
L 537.865523 24.449774 
L 537.865523 30.181462 
L 538.960286 30.181462 
L 538.960286 37.736868 
L 540.055048 37.736868 
L 540.055048 50.555006 
L 541.149811 50.555006 
L 541.149811 63.946312 
L 542.244574 63.946312 
L 542.244574 75.774431 
L 543.339336 75.774431 
L 543.339336 73.325437 
L 544.434099 73.325437 
L 544.434099 92.60475 
L 545.528861 92.60475 
L 545.528861 92.865281 
L 546.623624 92.865281 
L 546.623624 95.679019 
L 547.718386 95.679019 
L 547.718386 100.420688 
L 548.813149 100.420688 
L 548.813149 91.718944 
L 549.907911 91.718944 
L 549.907911 94.741106 
L 551.002674 94.741106 
L 551.002674 90.833138 
L 552.097436 90.833138 
L 552.097436 88.279931 
L 553.192199 88.279931 
L 553.192199 86.039363 
L 554.286961 86.039363 
L 554.286961 74.6802 
L 555.381724 74.6802 
L 555.381724 60.715725 
L 556.476486 60.715725 
L 556.476486 58.631475 
L 557.571249 58.631475 
L 557.571249 45.448593 
L 558.666012 45.448593 
L 558.666012 40.602712 
L 559.760774 40.602712 
L 559.760774 38.987418 
L 560.855537 38.987418 
L 560.855537 49.043925 
L 561.950299 49.043925 
L 561.950299 54.410868 
L 563.045062 54.410868 
L 563.045062 63.789994 
L 564.139824 63.789994 
L 564.139824 73.794394 
L 565.234587 73.794394 
L 565.234587 83.538263 
L 566.329349 83.538263 
L 566.329349 88.748888 
L 567.424112 88.748888 
L 567.424112 99.899625 
L 568.518874 99.899625 
L 568.518874 102.661257 
L 569.613637 102.661257 
L 569.613637 110.268769 
L 570.708399 110.268769 
L 570.708399 121.888463 
L 571.803162 121.888463 
L 571.803162 125.431688 
L 572.897924 125.431688 
L 572.897924 133.195519 
L 573.992687 133.195519 
L 573.992687 143.773088 
L 575.087449 143.773088 
L 575.087449 144.137832 
L 576.182212 144.137832 
L 576.182212 148.61897 
L 577.276975 148.61897 
L 577.276975 151.53692 
L 578.371737 151.53692 
L 578.371737 159.769707 
L 579.4665 159.769707 
L 579.4665 162.114488 
L 580.561262 162.114488 
L 580.561262 165.814032 
L 581.656025 165.814032 
L 581.656025 165.501395 
L 582.750787 165.501395 
L 582.750787 173.525757 
L 583.84555 173.525757 
L 583.84555 176.443707 
L 584.940312 176.443707 
L 584.940312 181.393801 
L 586.035075 181.393801 
L 586.035075 182.435926 
L 587.129837 182.435926 
L 587.129837 186.708639 
L 588.2246 186.708639 
L 588.2246 189.418164 
L 589.319362 189.418164 
L 589.319362 189.209739 
L 590.414125 189.209739 
L 590.414125 196.087764 
L 591.508887 196.087764 
L 591.508887 196.55672 
L 592.60365 196.55672 
L 592.60365 199.787308 
L 593.698412 199.787308 
L 593.698412 202.653152 
L 594.793175 202.653152 
L 594.793175 203.017895 
L 595.887938 203.017895 
L 595.887938 200.777326 
L 596.9827 200.777326 
L 596.9827 206.14427 
L 598.077463 206.14427 
L 598.077463 206.821652 
L 599.172225 206.821652 
L 599.172225 209.687495 
L 600.266988 209.687495 
L 600.266988 211.719639 
L 601.36175 211.719639 
L 601.36175 214.220739 
L 602.456513 214.220739 
L 602.456513 213.64757 
L 603.551275 213.64757 
L 603.551275 217.034477 
L 604.646038 217.034477 
L 604.646038 218.128708 
L 605.7408 218.128708 
L 605.7408 217.034477 
L 606.835563 217.034477 
L 606.835563 221.15087 
L 607.930325 221.15087 
L 607.930325 220.473489 
L 609.025088 220.473489 
L 609.025088 220.004533 
L 610.11985 220.004533 
L 610.11985 220.838233 
L 611.214613 220.838233 
L 611.214613 223.026696 
L 612.309375 223.026696 
L 612.309375 224.381458 
L 614.498901 224.277246 
L 614.498901 226.569921 
L 615.593663 226.569921 
L 615.593663 227.090983 
L 616.688426 227.090983 
L 616.688426 229.279446 
L 617.783188 229.279446 
L 617.783188 229.071021 
L 618.877951 229.071021 
L 618.877951 227.612046 
L 619.972713 227.612046 
L 619.972713 230.998952 
L 621.067476 230.998952 
L 621.067476 231.624227 
L 622.162238 231.624227 
L 622.162238 230.582102 
L 623.257001 230.582102 
L 623.257001 231.207377 
L 624.351763 231.207377 
L 624.351763 233.812689 
L 625.446526 233.812689 
L 625.446526 232.249502 
L 626.541288 232.249502 
L 626.541288 234.698496 
L 627.636051 234.698496 
L 627.636051 233.604264 
L 628.730813 233.604264 
L 628.730813 233.343733 
L 629.825576 233.343733 
L 629.825576 233.760583 
L 630.920339 233.760583 
L 630.920339 235.115346 
L 632.015101 235.115346 
L 632.015101 235.480089 
L 633.109864 235.480089 
L 633.109864 236.365896 
L 634.204626 236.365896 
L 634.204626 235.427983 
L 636.394151 235.427983 
L 636.394151 237.095383 
L 637.488914 237.095383 
L 637.488914 237.564339 
L 638.583676 237.564339 
L 638.583676 236.991171 
L 639.678439 236.991171 
L 639.678439 237.199596 
L 640.773201 237.199596 
L 640.773201 236.939064 
L 641.867964 236.939064 
L 641.867964 238.293827 
L 642.962726 238.293827 
L 642.962726 238.606464 
L 644.057489 238.606464 
L 644.057489 238.085402 
L 645.152251 238.085402 
L 645.152251 238.814889 
L 646.247014 238.814889 
L 646.247014 238.345933 
L 647.341776 238.345933 
L 647.341776 239.961227 
L 648.436539 239.961227 
L 648.436539 240.638608 
L 649.531302 240.638608 
L 649.531302 240.482289 
L 650.626064 240.482289 
L 650.626064 239.335952 
L 651.720827 239.335952 
L 651.720827 239.752802 
L 652.815589 239.752802 
L 652.815589 240.534396 
L 655.005114 240.586502 
L 655.005114 239.961227 
L 656.099877 239.961227 
L 656.099877 240.169652 
L 657.194639 240.169652 
L 657.194639 240.378077 
L 659.384164 240.482289 
L 659.384164 241.315989 
L 661.573689 241.368096 
L 661.573689 241.941264 
L 663.763214 241.941264 
L 663.763214 241.472308 
L 664.857977 241.472308 
L 664.857977 241.889158 
L 668.142265 241.993371 
L 668.142265 242.670752 
L 669.237027 242.670752 
L 669.237027 242.097583 
L 670.33179 242.097583 
L 670.33179 241.837052 
L 671.426552 241.837052 
L 671.426552 242.514433 
L 672.521315 242.514433 
L 672.521315 242.201796 
L 673.616077 242.201796 
L 673.616077 242.931283 
L 674.71084 242.931283 
L 674.71084 242.56654 
L 675.805602 242.56654 
L 675.805602 243.035496 
L 677.995127 243.139708 
L 677.995127 243.504452 
L 679.08989 243.504452 
L 679.08989 242.931283 
L 681.279415 243.035496 
L 681.279415 243.869196 
L 684.563702 243.764983 
L 684.563702 243.712877 
L 685.658465 243.712877 
L 685.658465 243.40024 
L 686.753228 243.40024 
L 686.753228 243.869196 
L 687.84799 243.869196 
L 687.84799 243.452346 
L 688.942753 243.452346 
L 688.942753 243.81709 
L 690.037515 243.81709 
L 690.037515 243.660771 
L 691.132278 243.660771 
L 691.132278 243.40024 
L 692.22704 243.40024 
L 692.22704 244.077621 
L 693.321803 244.077621 
L 693.321803 243.712877 
L 694.416565 243.712877 
L 694.416565 243.40024 
L 695.511328 243.40024 
L 695.511328 244.390258 
L 696.60609 244.390258 
L 696.60609 244.025515 
L 697.700853 244.025515 
L 697.700853 243.81709 
L 699.890378 243.712877 
L 699.890378 243.608665 
L 700.98514 243.608665 
L 700.98514 243.764983 
L 703.174666 243.764983 
L 703.174666 243.973408 
L 704.269428 243.973408 
L 704.269428 244.598683 
L 705.364191 244.598683 
L 705.364191 244.442365 
L 706.458953 244.442365 
L 706.458953 244.23394 
L 708.648478 244.23394 
L 708.648478 243.869196 
L 709.743241 243.869196 
L 709.743241 244.442365 
L 711.932766 244.442365 
L 711.932766 244.65079 
L 713.027528 244.65079 
L 713.027528 244.807108 
L 714.122291 244.807108 
L 714.122291 244.338152 
L 715.217053 244.338152 
L 715.217053 245.015533 
L 716.311816 245.015533 
L 716.311816 244.442365 
L 717.406578 244.442365 
L 717.406578 244.807108 
L 720.690866 244.807108 
L 720.690866 244.65079 
L 721.785629 244.65079 
L 721.785629 244.23394 
L 722.880391 244.23394 
L 722.880391 244.807108 
L 723.975154 244.807108 
L 723.975154 244.963427 
L 725.069916 244.963427 
L 725.069916 244.338152 
L 726.164679 244.338152 
L 726.164679 245.06764 
L 727.259441 245.06764 
L 727.259441 244.911321 
L 730.543729 244.963427 
L 730.543729 244.494471 
L 731.638491 244.494471 
L 731.638491 245.119746 
L 733.828016 245.171852 
L 733.828016 244.911321 
L 734.922779 244.911321 
L 734.922779 244.702896 
L 736.017541 244.702896 
L 736.017541 244.963427 
L 737.112304 244.963427 
L 737.112304 244.598683 
L 738.207066 244.598683 
L 738.207066 245.171852 
L 741.491354 245.276065 
L 741.491354 244.911321 
L 743.680879 244.859215 
L 743.680879 245.432383 
L 744.775642 245.432383 
L 744.775642 245.223958 
L 745.870404 245.223958 
L 745.870404 245.06764 
L 746.965167 245.06764 
L 746.965167 245.276065 
L 749.154692 245.328171 
L 749.154692 245.432383 
L 753.533742 245.328171 
L 753.533742 245.119746 
L 754.628504 245.119746 
L 754.628504 245.380277 
L 761.19708 245.432383 
L 761.19708 245.223958 
L 762.291842 245.223958 
L 762.291842 245.015533 
L 763.386605 245.015533 
L 763.386605 245.276065 
L 764.481367 245.276065 
L 764.481367 245.119746 
L 765.57613 245.119746 
L 765.57613 244.963427 
L 766.670892 244.963427 
L 766.670892 245.432383 
L 768.860417 245.48449 
L 768.860417 245.223958 
L 769.95518 245.223958 
L 769.95518 245.48449 
L 771.049942 245.48449 
L 771.049942 245.692915 
L 772.144705 245.692915 
L 772.144705 245.380277 
L 776.523755 245.432383 
L 776.523755 245.171852 
L 777.618518 245.171852 
L 777.618518 245.432383 
L 779.808043 245.48449 
L 779.808043 245.171852 
L 781.997568 245.276065 
L 781.997568 245.380277 
L 783.09233 245.380277 
L 783.09233 245.640808 
L 785.281855 245.588702 
L 785.281855 245.380277 
L 788.566143 245.48449 
L 788.566143 245.536596 
L 789.660905 245.536596 
L 789.660905 245.328171 
L 790.755668 245.328171 
L 790.755668 245.588702 
L 792.945193 245.640808 
L 792.945193 245.745021 
L 794.039956 245.745021 
L 794.039956 245.536596 
L 795.134718 245.536596 
L 795.134718 245.380277 
L 797.324243 245.328171 
L 797.324243 245.588702 
L 807.177106 245.692915 
L 807.177106 245.380277 
L 809.366631 245.432383 
L 809.366631 245.588702 
L 815.935206 245.692915 
L 815.935206 245.432383 
L 817.029969 245.432383 
L 817.029969 245.745021 
L 818.124731 245.745021 
L 818.124731 245.536596 
L 822.503781 245.432383 
L 822.503781 245.692915 
L 826.882831 245.640808 
L 826.882831 245.536596 
L 829.072357 245.640808 
L 829.072357 245.797127 
L 831.261882 245.745021 
L 831.261882 245.640808 
L 836.735694 245.588702 
L 836.735694 245.797127 
L 837.830457 245.797127 
L 837.830457 245.48449 
L 838.925219 245.48449 
L 838.925219 245.640808 
L 842.209507 245.692915 
L 842.209507 245.797127 
L 845.493794 245.745021 
L 845.493794 245.640808 
L 848.778082 245.692915 
L 848.778082 245.692915 
" clip-path="url(#pfb3c59e6d4)" style="fill: none; stroke: #1f77b4; stroke-width: 1.5; stroke-linecap: square"/>
   </g>
   <g id="patch_8">
    <path d="M 503.927885 257.158895 
L 503.927885 7.2 
" style="fill: none; stroke: #000000; stroke-width: 0.8; stroke-linejoin: miter; stroke-linecap: square"/>
   </g>
   <g id="patch_9">
    <path d="M 865.19952 257.158895 
L 865.19952 7.2 
" style="fill: none; stroke: #000000; stroke-width: 0.8; stroke-linejoin: miter; stroke-linecap: square"/>
   </g>
   <g id="patch_10">
    <path d="M 503.927885 257.158895 
L 865.19952 257.158895 
" style="fill: none; stroke: #000000; stroke-width: 0.8; stroke-linejoin: miter; stroke-linecap: square"/>
   </g>
   <g id="patch_11">
    <path d="M 503.927885 7.2 
L 865.19952 7.2 
" style="fill: none; stroke: #000000; stroke-width: 0.8; stroke-linejoin: miter; stroke-linecap: square"/>
   </g>
  </g>
 </g>
 <defs>
  <clipPath id="pcb0ee391de">
   <rect x="53.328125" y="7.2" width="361.271635" height="249.958895"/>
  </clipPath>
  <clipPath id="pfb3c59e6d4">
   <rect x="503.927885" y="7.2" width="361.271635" height="249.958895"/>
  </clipPath>
 </defs>
</svg>
