<?xml version="1.0" encoding="UTF-8" standalone="no"?>
<!-- Created with Inkscape (http://www.inkscape.org/) -->

<svg
   width="291.75339mm"
   height="41.93195mm"
   viewBox="0 0 291.7534 41.93195"
   version="1.1"
   id="svg8"
   sodipodi:docname="logo-dark.svg"
   inkscape:version="1.3 (0e150ed6c4, 2023-07-21)"
   xmlns:inkscape="http://www.inkscape.org/namespaces/inkscape"
   xmlns:sodipodi="http://sodipodi.sourceforge.net/DTD/sodipodi-0.dtd"
   xmlns="http://www.w3.org/2000/svg"
   xmlns:svg="http://www.w3.org/2000/svg"
   xmlns:rdf="http://www.w3.org/1999/02/22-rdf-syntax-ns#"
   xmlns:cc="http://creativecommons.org/ns#"
   xmlns:dc="http://purl.org/dc/elements/1.1/">
  <sodipodi:namedview
     id="namedview960"
     pagecolor="#ffffff"
     bordercolor="#666666"
     borderopacity="1.0"
     inkscape:pageshadow="2"
     inkscape:pageopacity="0.0"
     inkscape:pagecheckerboard="0"
     inkscape:document-units="mm"
     showgrid="false"
     fit-margin-top="0"
     fit-margin-left="0"
     fit-margin-right="0"
     fit-margin-bottom="0"
     inkscape:zoom="0.8484807"
     inkscape:cx="413.09131"
     inkscape:cy="141.42926"
     inkscape:window-width="2560"
     inkscape:window-height="1406"
     inkscape:window-x="0"
     inkscape:window-y="0"
     inkscape:window-maximized="1"
     inkscape:current-layer="layer1"
     inkscape:showpageshadow="2"
     inkscape:deskcolor="#d1d1d1" />
  <defs
     id="defs2">
    <rect
       x="-197.65958"
       y="211.67747"
       width="1288.5021"
       height="366.45435"
       id="rect10136" />
    <rect
       x="-197.65958"
       y="211.67747"
       width="1288.5021"
       height="366.45435"
       id="rect11574" />
  </defs>
  <metadata
     id="metadata5">
    <rdf:RDF>
      <cc:Work
         rdf:about="">
        <dc:format>image/svg+xml</dc:format>
        <dc:type
           rdf:resource="http://purl.org/dc/dcmitype/StillImage" />
      </cc:Work>
    </rdf:RDF>
  </metadata>
  <g
     id="layer1"
     transform="translate(-29.189909,-99.36845)">
    <path
       id="path8254"
       style="fill:#ffffff;fill-opacity:1;fill-rule:evenodd;stroke:none;stroke-width:0.0700042px;stroke-linecap:butt;stroke-linejoin:miter;stroke-opacity:1"
       d="m 47.116411,99.368512 -6.011207,3.470808 a 0.91643846,0.91643846 0 0 1 -0.916517,-2e-5 l -1.68115,-0.97077 a 0.9162711,0.9162711 0 0 0 -0.916475,5e-5 l -2.745665,1.5859 a 0.91674198,0.91674198 0 0 0 -0.458222,0.79384 v 1.93971 a 0.9167438,0.9167438 0 0 1 -0.458222,0.79384 l -4.280822,2.47261 a 0.9167438,0.9167438 0 0 0 -0.458222,0.79384 v 18.0569 2.11523 a 0.91692071,0.91692071 0 0 0 0.458177,0.79392 l 0.915677,0.5291 a 2286.8691,2286.8691 0 0 0 0.916477,0.52928 l 1.979885,1.1428 a 0.3055521,0.3055521 0 0 0 0.4583,-0.26463 v -1.4026 a 0.91721489,0.91721489 0 0 0 -0.458104,-0.79404 l -1.681448,-0.97221 a 0.91721489,0.91721489 0 0 1 -0.458104,-0.79404 v -17.70729 a 0.91688301,0.91688301 0 0 1 0.458187,-0.7939 l 3.214485,-1.85726 a 0.91613021,0.91613021 0 0 1 0.91644,-1.1e-4 l 1.68115,0.97077 a 0.91651552,0.91651552 0 0 0 0.916536,5e-5 l 2.747497,-1.58611 a 0.91649747,0.91649747 0 0 0 0.458283,-0.79373 v -1.93971 a 0.91690648,0.91690648 0 0 1 0.458181,-0.79391 l 4.944966,-2.85724 a 0.916451,0.916451 0 0 1 0.91652,-2.7e-4 l 1.682931,0.97107 a 0.91673323,0.91673323 0 0 0 0.916591,-1.5e-4 l 1.214356,-0.70124 a 0.30550399,0.30550399 0 0 0 -4.8e-5,-0.52915 l -3.813869,-2.2014 a 0.91662478,0.91662478 0 0 0 -0.916564,6.2e-5 z m -8.609052,4.961268 0.617053,0.35687 a 0.91733263,0.91733263 0 0 1 0.458075,0.79409 v 0.70729 a 0.91733263,0.91733263 0 0 1 -0.458075,0.79409 l -0.617053,0.35687 a 0.91496847,0.91496847 0 0 1 -0.91615,0 l -0.617053,-0.35687 a 0.91733263,0.91733263 0 0 1 -0.458075,-0.79409 v -0.70729 a 0.91733263,0.91733263 0 0 1 0.458075,-0.79409 l 0.617053,-0.35687 a 0.91496847,0.91496847 0 0 1 0.91615,0 z m 17.27115,0.0387 -17.470168,10.08608 a 0.91652881,0.91652881 0 0 0 -0.458275,0.79374 v 5.93972 a 0.91721471,0.91721471 0 0 1 -0.458104,0.79404 l -1.681449,0.9722 a 0.91721471,0.91721471 0 0 0 -0.458104,0.79404 v 3.17214 a 0.91721471,0.91721471 0 0 0 0.458104,0.79404 l 1.681449,0.9722 a 0.91721471,0.91721471 0 0 1 0.458104,0.79405 v 5.93971 a 0.91692071,0.91692071 0 0 0 0.458177,0.79391 l 0.915677,0.5291 a 2863.0058,2863.0058 0 0 0 0.916452,0.52933 l 6.976028,4.02748 a 0.91689642,0.91689642 0 0 0 0.916631,1.4e-4 l 0.149694,-0.0864 a 0.91620508,0.91620508 0 0 0 0.458356,-0.7936 v -18.93971 a 0.91676162,0.91676162 0 0 1 0.458217,-0.79385 l 5.612863,-3.24212 a 0.30544185,0.30544185 0 0 1 0.458217,0.26448 v 18.94167 a 0.30548758,0.30548758 0 0 0 0.458252,0.26455 l 1.214355,-0.70123 a 0.91662439,0.91662439 0 0 0 0.458252,-0.79379 v -20.17018 a 0.91765905,0.91765905 0 0 0 -0.457993,-0.79423 l -0.15042,-0.0871 a 0.91537068,0.91537068 0 0 0 -0.91625,-4.6e-4 l -8.808095,5.08602 a 0.91660309,0.91660309 0 0 0 -0.458257,0.79377 v 17.7112 a 0.30544185,0.30544185 0 0 1 -0.458217,0.26449 l -5.612863,-3.24213 a 0.91676162,0.91676162 0 0 1 -0.458217,-0.79384 v -4.70729 a 0.91721489,0.91721489 0 0 1 0.458104,-0.79404 l 1.681448,-0.97221 a 0.91721489,0.91721489 0 0 0 0.458104,-0.79404 v -3.17213 a 0.91721489,0.91721489 0 0 0 -0.458104,-0.79404 l -1.681448,-0.97221 a 0.91721489,0.91721489 0 0 1 -0.458104,-0.79404 v -4.70729 a 0.9166131,0.9166131 0 0 1 0.458254,-0.79378 L 57.90939,105.599 a 0.30556457,0.30556457 0 0 0 2e-6,-0.52923 l -1.214356,-0.70124 a 0.9164777,0.9164777 0 0 0 -0.916527,-4e-5 z m 6.062419,3.49986 -1.2161,0.70159 a 0.30552722,0.30552722 0 0 0 -1.79e-4,0.52919 l 2.747708,1.58769 a 0.91692071,0.91692071 0 0 1 0.458177,0.79392 v 5.70729 a 0.91721489,0.91721489 0 0 1 -0.458104,0.79404 l -1.681448,0.9722 a 0.91721489,0.91721489 0 0 0 -0.458104,0.79405 v 3.17213 a 0.91721489,0.91721489 0 0 0 0.458104,0.79404 l 1.681448,0.97221 a 0.91721489,0.91721489 0 0 1 0.458104,0.79404 v 3.70729 a 0.91721489,0.91721489 0 0 1 -0.458104,0.79404 l -1.681448,0.97221 a 0.91721489,0.91721489 0 0 0 -0.458104,0.79404 v 1.4026 a 0.30548884,0.30548884 0 0 0 0.458253,0.26455 l 3.81201,-2.20123 a 0.91662061,0.91662061 0 0 0 0.458253,-0.79379 v -4.93971 a 0.91721489,0.91721489 0 0 1 0.458104,-0.79404 l 1.681448,-0.97221 a 0.91721489,0.91721489 0 0 0 0.458104,-0.79404 v -3.17213 a 0.91721489,0.91721489 0 0 0 -0.458104,-0.79404 l -1.681448,-0.97221 a 0.91721489,0.91721489 0 0 1 -0.458104,-0.79404 v -6.93971 a 0.91674185,0.91674185 0 0 0 -0.458222,-0.79384 l -2.745666,-1.5859 a 0.91668426,0.91668426 0 0 0 -0.916578,-2.3e-4 z m 3.512134,11.96142 0.617053,0.35687 a 0.91733263,0.91733263 0 0 1 0.458075,0.7941 v 0.70729 a 0.91733263,0.91733263 0 0 1 -0.458075,0.79409 l -0.617053,0.35687 a 0.91438545,0.91438545 0 0 1 -0.916003,-2.6e-4 l -0.615394,-0.35636 a 0.91791847,0.91791847 0 0 1 -0.457928,-0.79434 v -0.70729 a 0.91791847,0.91791847 0 0 1 0.457928,-0.79435 l 0.615394,-0.35636 a 0.91438545,0.91438545 0 0 1 0.916003,-2.5e-4 z m -25.980468,4 0.617053,0.35687 a 0.91733263,0.91733263 0 0 1 0.458075,0.7941 v 0.70729 a 0.91733263,0.91733263 0 0 1 -0.458075,0.79409 l -0.617053,0.35687 a 0.91496847,0.91496847 0 0 1 -0.91615,0 l -0.617053,-0.35687 a 0.91733263,0.91733263 0 0 1 -0.458075,-0.79409 v -0.70729 a 0.91733263,0.91733263 0 0 1 0.458075,-0.7941 l 0.617053,-0.35687 a 0.91496847,0.91496847 0 0 1 0.91615,0 z" />
    <g
       id="text8262"
       style="font-size:41.0089px;line-height:19.2229px;font-family:Lato;-inkscape-font-specification:Lato;letter-spacing:0px;word-spacing:0px;fill:#ffffff;stroke-width:0.264583px"
       aria-label="essdiffraction">
      <path
         style="font-weight:bold;-inkscape-font-specification:'Lato Bold';fill:#ffffff"
         d="m 96.276046,109.47837 q 1.988932,0 3.649792,0.63564 1.681362,0.63564 2.891132,1.86591 1.20976,1.20976 1.88641,2.99365 0.67664,1.76338 0.67664,4.03937 0,0.57413 -0.0615,0.96371 -0.041,0.36908 -0.18454,0.59463 -0.12303,0.20504 -0.34858,0.30757 -0.22555,0.082 -0.57412,0.082 H 91.211447 q 0.225549,3.23971 1.742878,4.75704 1.51733,1.51733 4.018873,1.51733 1.230267,0 2.111958,-0.28707 0.902196,-0.28706 1.558334,-0.63563 0.67665,-0.34858 1.16876,-0.63564 0.51261,-0.28706 0.98421,-0.28706 0.30757,0 0.53312,0.12302 0.22555,0.12303 0.38958,0.34858 l 1.47632,1.8454 q -0.84068,0.98421 -1.88641,1.66086 -1.04572,0.65614 -2.19397,1.06623 -1.127748,0.38958 -2.317006,0.55362 -1.168754,0.16404 -2.275994,0.16404 -2.193976,0 -4.080386,-0.71766 -1.886409,-0.73816 -3.280712,-2.15297 -1.394302,-1.43531 -2.193976,-3.52676 -0.799673,-2.11196 -0.799673,-4.88006 0,-2.15297 0.697151,-4.03938 0.697151,-1.90691 1.988931,-3.30121 1.312285,-1.41481 3.17819,-2.23499 1.88641,-0.82018 4.244421,-0.82018 z m 0.102523,3.62929 q -2.214481,0 -3.465252,1.25077 -1.250772,1.25077 -1.599348,3.54727 h 9.514061 q 0,-0.98421 -0.26655,-1.8454 -0.26656,-0.88169 -0.820182,-1.53783 -0.55362,-0.65615 -1.394302,-1.02523 -0.840683,-0.38958 -1.968427,-0.38958 z m 25.610061,0.79967 q -0.20504,0.32808 -0.43059,0.47161 -0.22555,0.12302 -0.57413,0.12302 -0.36908,0 -0.79967,-0.20504 -0.41009,-0.20505 -0.96371,-0.4511 -0.55362,-0.26656 -1.27128,-0.4716 -0.69715,-0.20505 -1.66086,-0.20505 -1.49682,0 -2.35801,0.63564 -0.86118,0.63564 -0.86118,1.66086 0,0.67665 0.43059,1.14825 0.4511,0.4511 1.16875,0.79967 0.73816,0.34858 1.66086,0.63564 0.9227,0.26656 1.88641,0.59463 0.96371,0.32807 1.88641,0.75867 0.9227,0.41009 1.64036,1.06623 0.73816,0.63564 1.16875,1.53783 0.4511,0.9022 0.4511,2.17347 0,1.51733 -0.55362,2.80911 -0.55362,1.27128 -1.61985,2.21448 -1.06623,0.9227 -2.64508,1.45582 -1.55833,0.51261 -3.58827,0.51261 -1.08674,0 -2.13247,-0.20504 -1.02522,-0.18454 -1.98893,-0.53312 -0.9432,-0.34858 -1.76338,-0.82018 -0.79968,-0.4716 -1.41481,-1.02522 l 1.16875,-1.92742 q 0.22555,-0.34857 0.53312,-0.53311 0.30757,-0.18454 0.77917,-0.18454 0.4716,0 0.88169,0.26655 0.43059,0.26656 0.98421,0.57413 0.55362,0.30757 1.29178,0.57412 0.75867,0.26656 1.90692,0.26656 0.90219,0 1.53783,-0.20504 0.65614,-0.22555 1.06623,-0.57413 0.4306,-0.34857 0.61514,-0.79967 0.20504,-0.4716 0.20504,-0.96371 0,-0.73816 -0.4511,-1.20976 -0.43059,-0.47161 -1.16875,-0.82018 -0.71766,-0.34858 -1.66086,-0.61514 -0.9227,-0.28706 -1.90691,-0.61513 -0.96371,-0.32807 -1.90692,-0.75866 -0.9227,-0.4511 -1.66086,-1.12775 -0.71765,-0.67664 -1.16875,-1.66086 -0.4306,-0.98421 -0.4306,-2.37851 0,-1.29178 0.51262,-2.46054 0.51261,-1.16875 1.49682,-2.02994 1.00472,-0.88169 2.48104,-1.3943 1.49682,-0.53312 3.44475,-0.53312 2.17347,0 3.95736,0.71766 1.78388,0.71765 2.97314,1.88641 z m 17.9209,0 q -0.20504,0.32808 -0.43059,0.47161 -0.22555,0.12302 -0.57412,0.12302 -0.36908,0 -0.79968,-0.20504 -0.41009,-0.20505 -0.96371,-0.4511 -0.55362,-0.26656 -1.27127,-0.4716 -0.69715,-0.20505 -1.66086,-0.20505 -1.49683,0 -2.35802,0.63564 -0.86118,0.63564 -0.86118,1.66086 0,0.67665 0.43059,1.14825 0.4511,0.4511 1.16876,0.79967 0.73816,0.34858 1.66086,0.63564 0.9227,0.26656 1.8864,0.59463 0.96371,0.32807 1.88641,0.75867 0.9227,0.41009 1.64036,1.06623 0.73816,0.63564 1.16875,1.53783 0.4511,0.9022 0.4511,2.17347 0,1.51733 -0.55362,2.80911 -0.55362,1.27128 -1.61985,2.21448 -1.06623,0.9227 -2.64507,1.45582 -1.55834,0.51261 -3.58828,0.51261 -1.08674,0 -2.13247,-0.20504 -1.02522,-0.18454 -1.98893,-0.53312 -0.9432,-0.34858 -1.76338,-0.82018 -0.79967,-0.4716 -1.41481,-1.02522 l 1.16876,-1.92742 q 0.22555,-0.34857 0.53311,-0.53311 0.30757,-0.18454 0.77917,-0.18454 0.4716,0 0.88169,0.26655 0.4306,0.26656 0.98422,0.57413 0.55362,0.30757 1.29178,0.57412 0.75866,0.26656 1.90691,0.26656 0.9022,0 1.53783,-0.20504 0.65615,-0.22555 1.06624,-0.57413 0.43059,-0.34857 0.61513,-0.79967 0.20504,-0.4716 0.20504,-0.96371 0,-0.73816 -0.45109,-1.20976 -0.4306,-0.47161 -1.16876,-0.82018 -0.71765,-0.34858 -1.66086,-0.61514 -0.9227,-0.28706 -1.90691,-0.61513 -0.96371,-0.32807 -1.90692,-0.75866 -0.9227,-0.4511 -1.66086,-1.12775 -0.71765,-0.67664 -1.16875,-1.66086 -0.43059,-0.98421 -0.43059,-2.37851 0,-1.29178 0.51261,-2.46054 0.51261,-1.16875 1.49682,-2.02994 1.00472,-0.88169 2.48104,-1.3943 1.49683,-0.53312 3.44475,-0.53312 2.17347,0 3.95736,0.71766 1.78388,0.71765 2.97314,1.88641 z"
         id="path1" />
      <path
         style="font-weight:300;-inkscape-font-specification:'Lato Light';fill:#ffffff"
         d="m 160.41399,130.84401 q -0.51261,0 -0.59463,-0.53312 l -0.20504,-3.21919 q -1.35329,1.8454 -3.17819,2.93213 -1.80439,1.08674 -4.05988,1.08674 -3.75232,0 -5.86427,-2.60407 -2.09146,-2.60406 -2.09146,-7.81219 0,-2.23499 0.57413,-4.16241 0.59463,-1.94792 1.72237,-3.36273 1.14825,-1.43531 2.78861,-2.25549 1.66086,-0.82017 3.81382,-0.82017 2.07095,0 3.58828,0.77917 1.51733,0.75866 2.62457,2.23498 v -12.09763 h 1.96843 v 29.83398 z m -7.48412,-1.31229 q 2.02994,0 3.6703,-1.04572 1.64035,-1.04573 2.93213,-2.91163 v -10.76484 q -1.18926,-1.74288 -2.62457,-2.46053 -1.41481,-0.71766 -3.2192,-0.71766 -1.80439,0 -3.15768,0.65614 -1.3533,0.65614 -2.276,1.86591 -0.90219,1.18926 -1.37379,2.87062 -0.4511,1.66086 -0.4511,3.6703 0,4.55198 1.68136,6.70495 1.68137,2.13246 4.81855,2.13246 z m 17.94137,-19.08964 v 20.40193 h -1.94792 v -20.40193 z m 0.86119,-7.03302 q 0,0.36908 -0.16404,0.69715 -0.14353,0.30756 -0.38958,0.55362 -0.24605,0.24605 -0.57413,0.38958 -0.32807,0.14353 -0.69715,0.14353 -0.36908,0 -0.69715,-0.14353 -0.32807,-0.14353 -0.57412,-0.38958 -0.24606,-0.24606 -0.38959,-0.55362 -0.14353,-0.32807 -0.14353,-0.69715 0,-0.36908 0.14353,-0.69716 0.14353,-0.34857 0.38959,-0.59462 0.24605,-0.24606 0.57412,-0.38959 0.32807,-0.14353 0.69715,-0.14353 0.36908,0 0.69715,0.14353 0.32808,0.14353 0.57413,0.38959 0.24605,0.24605 0.38958,0.59462 0.16404,0.32808 0.16404,0.69716 z m 7.11501,27.43495 V 112.57454 L 175.97682,112.39 q -0.59463,-0.041 -0.59463,-0.51261 v -0.79967 h 3.46525 v -2.58356 q 0,-1.74288 0.4511,-3.05516 0.4511,-1.33279 1.27128,-2.21448 0.82018,-0.8817 1.96843,-1.31229 1.16875,-0.4511 2.56305,-0.4511 0.63564,0 1.27128,0.12303 0.65614,0.10252 1.14825,0.30757 l -0.0615,0.9432 q -0.0205,0.28706 -0.38958,0.28706 -0.24605,0 -0.67665,-0.0615 -0.41009,-0.0615 -1.02522,-0.0615 -1.00472,0 -1.86591,0.30756 -0.84068,0.28707 -1.45581,0.94321 -0.61513,0.65614 -0.96371,1.72237 -0.32807,1.04573 -0.32807,2.58356 v 2.52205 h 6.62294 v 1.45582 h -6.58193 v 18.31047 z m 13.20489,0 V 112.57454 L 189.18171,112.39 q -0.59463,-0.041 -0.59463,-0.51261 v -0.79967 h 3.46525 v -2.58356 q 0,-1.74288 0.4511,-3.05516 0.4511,-1.33279 1.27128,-2.21448 0.82017,-0.8817 1.96842,-1.31229 1.16876,-0.4511 2.56306,-0.4511 0.63564,0 1.27128,0.12303 0.65614,0.10252 1.14824,0.30757 l -0.0615,0.9432 q -0.0205,0.28706 -0.38958,0.28706 -0.24606,0 -0.67665,-0.0615 -0.41009,-0.0615 -1.02522,-0.0615 -1.00472,0 -1.86591,0.30756 -0.84068,0.28707 -1.45581,0.94321 -0.61514,0.65614 -0.96371,1.72237 -0.32807,1.04573 -0.32807,2.58356 v 2.52205 h 6.62293 v 1.45582 h -6.58193 v 18.31047 z m 12.44622,0 v -20.40193 h 1.02522 q 0.34858,0 0.49211,0.14353 0.16403,0.14353 0.18454,0.49211 l 0.16403,4.30593 q 0.98422,-2.48103 2.62457,-3.87534 1.64036,-1.4148 4.03938,-1.4148 0.9227,0 1.70187,0.20504 0.77917,0.18454 1.47632,0.55362 l -0.26656,1.35329 q -0.0615,0.32808 -0.41009,0.32808 -0.12303,0 -0.34857,-0.082 -0.22555,-0.082 -0.57413,-0.18454 -0.32807,-0.10252 -0.82018,-0.18454 -0.4921,-0.082 -1.12774,-0.082 -2.317,0 -3.81383,1.43531 -1.47632,1.43531 -2.39902,4.1419 v 13.26638 z m 28.27563,0 q -0.61513,0 -0.75866,-0.57413 l -0.28706,-2.60406 q -0.84069,0.82018 -1.68137,1.47632 -0.82018,0.65614 -1.72237,1.10724 -0.9022,0.4511 -1.94793,0.67665 -1.04572,0.24605 -2.29649,0.24605 -1.04573,0 -2.02994,-0.30757 -0.98422,-0.30756 -1.74288,-0.9432 -0.75867,-0.63564 -1.23027,-1.61985 -0.4511,-1.00472 -0.4511,-2.39902 0,-1.29178 0.73816,-2.39902 0.73816,-1.10724 2.2965,-1.92742 1.57884,-0.82018 4.03938,-1.31229 2.48104,-0.4921 5.94629,-0.57412 v -2.13246 q 0,-2.82962 -1.23027,-4.34695 -1.20976,-1.53783 -3.60878,-1.53783 -1.47632,0 -2.52205,0.41009 -1.02522,0.41009 -1.74288,0.90219 -0.71765,0.49211 -1.16875,0.9022 -0.4511,0.41009 -0.75867,0.41009 -0.41008,0 -0.61513,-0.36908 l -0.34857,-0.59463 q 1.59934,-1.59935 3.36272,-2.41953 1.76339,-0.82017 3.99837,-0.82017 1.64036,0 2.87063,0.53311 1.23026,0.51261 2.02994,1.49683 0.82017,0.96371 1.23026,2.35801 0.41009,1.3738 0.41009,3.07567 v 13.28688 z m -8.20178,-1.08674 q 1.18926,0 2.17347,-0.24605 1.00472,-0.26656 1.84541,-0.71766 0.86118,-0.4716 1.59934,-1.10724 0.73816,-0.63563 1.45582,-1.37379 v -5.31066 q -2.91163,0.082 -5.02359,0.4511 -2.09146,0.34858 -3.46525,0.96371 -1.3533,0.61513 -2.00944,1.47632 -0.63564,0.84068 -0.63564,1.92742 0,1.02522 0.32807,1.78389 0.34858,0.73816 0.9022,1.23026 0.55362,0.47161 1.29178,0.69715 0.73816,0.22555 1.53783,0.22555 z m 28.56269,-16.5881 q -0.10252,0.10253 -0.20504,0.18454 -0.082,0.0615 -0.24605,0.0615 -0.20505,0 -0.57413,-0.26656 -0.34858,-0.28706 -0.9432,-0.61513 -0.59463,-0.32808 -1.49683,-0.59463 -0.88169,-0.28707 -2.15297,-0.28707 -1.76338,0 -3.13718,0.63564 -1.35329,0.61514 -2.2965,1.78389 -0.9227,1.16875 -1.4148,2.82961 -0.49211,1.66086 -0.49211,3.73181 0,2.15297 0.49211,3.81383 0.51261,1.66086 1.43531,2.80911 0.9227,1.12775 2.23498,1.72237 1.31229,0.59463 2.91164,0.59463 1.47632,0 2.46053,-0.34857 1.00472,-0.34858 1.64036,-0.75867 0.65614,-0.41009 1.02522,-0.75866 0.38958,-0.34858 0.61513,-0.34858 0.26656,0 0.41009,0.20505 l 0.53312,0.65614 q -0.47161,0.61513 -1.18926,1.14825 -0.71766,0.53311 -1.61985,0.9227 -0.9022,0.38958 -1.96843,0.59463 -1.04573,0.22555 -2.19398,0.22555 -1.94792,0 -3.56777,-0.69715 -1.59935,-0.71766 -2.7681,-2.05045 -1.14825,-1.35329 -1.80439,-3.30122 -0.63564,-1.94792 -0.63564,-4.42896 0,-2.3375 0.61513,-4.26492 0.61514,-1.92742 1.78389,-3.32172 1.18926,-1.39431 2.89113,-2.15297 1.72237,-0.77917 3.93685,-0.77917 1.98893,0 3.52677,0.63564 1.55834,0.63564 2.70658,1.72237 z m 10.80584,18.00291 q -2.07095,0 -3.2397,-1.14825 -1.14825,-1.14825 -1.14825,-3.54727 v -13.94302 h -2.93214 q -0.22555,0 -0.36908,-0.12303 -0.14353,-0.12303 -0.14353,-0.34858 v -0.75866 l 3.48576,-0.24605 0.4921,-7.29959 q 0.0205,-0.18454 0.14354,-0.32807 0.14353,-0.14353 0.36908,-0.14353 h 0.9227 v 7.79169 h 6.41789 v 1.45582 h -6.41789 v 13.8405 q 0,0.84068 0.20504,1.45582 0.22555,0.59462 0.59463,0.98421 0.38958,0.38958 0.9022,0.57412 0.51261,0.18454 1.10724,0.18454 0.73816,0 1.27127,-0.20504 0.53312,-0.22555 0.9227,-0.4716 0.38959,-0.26656 0.63564,-0.47161 0.24605,-0.22554 0.38958,-0.22554 0.16404,0 0.32808,0.20504 l 0.53311,0.86119 q -0.77917,0.86118 -1.98893,1.3943 -1.18926,0.51261 -2.48104,0.51261 z m 11.56453,-20.73 v 20.40193 h -1.94792 v -20.40193 z m 0.86118,-7.03302 q 0,0.36908 -0.16403,0.69715 -0.14353,0.30756 -0.38959,0.55362 -0.24605,0.24605 -0.57412,0.38958 -0.32807,0.14353 -0.69715,0.14353 -0.36908,0 -0.69715,-0.14353 -0.32807,-0.14353 -0.57413,-0.38958 -0.24605,-0.24606 -0.38958,-0.55362 -0.14353,-0.32807 -0.14353,-0.69715 0,-0.36908 0.14353,-0.69716 0.14353,-0.34857 0.38958,-0.59462 0.24606,-0.24606 0.57413,-0.38959 0.32807,-0.14353 0.69715,-0.14353 0.36908,0 0.69715,0.14353 0.32807,0.14353 0.57412,0.38959 0.24606,0.24605 0.38959,0.59462 0.16403,0.32808 0.16403,0.69716 z m 14.12755,6.70495 q 2.19398,0 3.91635,0.75867 1.74288,0.73816 2.93214,2.11195 1.18925,1.3738 1.80439,3.32172 0.63564,1.92742 0.63564,4.32644 0,2.39902 -0.63564,4.32644 -0.61514,1.92742 -1.80439,3.30122 -1.18926,1.3738 -2.93214,2.11196 -1.72237,0.73816 -3.91635,0.73816 -2.19398,0 -3.93685,-0.73816 -1.72238,-0.73816 -2.93214,-2.11196 -1.18926,-1.3738 -1.8249,-3.30122 -0.61513,-1.92742 -0.61513,-4.32644 0,-2.39902 0.61513,-4.32644 0.63564,-1.94792 1.8249,-3.32172 1.20976,-1.37379 2.93214,-2.11195 1.74287,-0.75867 3.93685,-0.75867 z m 0,19.45872 q 1.8249,0 3.17819,-0.61513 1.3738,-0.63564 2.27599,-1.80439 0.9227,-1.16876 1.3738,-2.80911 0.4511,-1.66086 0.4511,-3.71131 0,-2.02994 -0.4511,-3.6908 -0.4511,-1.66086 -1.3738,-2.82961 -0.90219,-1.18926 -2.27599,-1.8249 -1.35329,-0.63564 -3.17819,-0.63564 -1.8249,0 -3.19869,0.63564 -1.3533,0.63564 -2.276,1.8249 -0.90219,1.16875 -1.3738,2.82961 -0.45109,1.66086 -0.45109,3.6908 0,2.05045 0.45109,3.71131 0.47161,1.64035 1.3738,2.80911 0.9227,1.16875 2.276,1.80439 1.37379,0.61513 3.19869,0.61513 z m 14.41464,1.27128 v -20.40193 h 1.06623 q 0.53311,0 0.61513,0.51261 l 0.18454,3.07567 q 1.3943,-1.76338 3.2397,-2.82961 1.86591,-1.08674 4.1419,-1.08674 1.68137,0 2.95264,0.53312 1.29178,0.53311 2.13247,1.53783 0.84068,1.00472 1.27127,2.41953 0.4306,1.4148 0.4306,3.19869 v 13.04083 h -1.94793 v -13.04083 q 0,-2.87062 -1.31228,-4.49048 -1.31229,-1.64035 -4.01887,-1.64035 -2.00944,0 -3.73181,1.04573 -1.72238,1.02522 -3.07567,2.82961 v 15.29632 z"
         id="path2" />
    </g>
    <text
       xml:space="preserve"
       transform="matrix(0.26458333,0,0,0.26458333,25.582031,19.09881)"
       id="text10134"
       style="font-style:normal;font-weight:normal;font-size:40px;line-height:1.25;font-family:sans-serif;white-space:pre;shape-inside:url(#rect10136);display:inline;fill:#ffffff;fill-opacity:1;stroke:none" />
    <text
       xml:space="preserve"
       transform="matrix(0.26458333,0,0,0.26458333,25.582031,19.09881)"
       id="text11572"
       style="font-style:normal;font-weight:normal;font-size:40px;line-height:1.25;font-family:sans-serif;white-space:pre;shape-inside:url(#rect11574);display:inline;fill:#ffffff;fill-opacity:1;stroke:none" />
  </g>
</svg>
