<?xml version="1.0" encoding="UTF-8" standalone="no"?>
<!-- Created with Inkscape (http://www.inkscape.org/) -->

<svg
   width="1500mm"
   height="1000mm"
   viewBox="0 0 1500 1000"
   version="1.1"
   id="svg6834"
   inkscape:version="1.2.2 (b0a8486541, 2022-12-01)"
   sodipodi:docname="ymir.svg"
   xmlns:inkscape="http://www.inkscape.org/namespaces/inkscape"
   xmlns:sodipodi="http://sodipodi.sourceforge.net/DTD/sodipodi-0.dtd"
   xmlns:xlink="http://www.w3.org/1999/xlink"
   xmlns="http://www.w3.org/2000/svg"
   xmlns:svg="http://www.w3.org/2000/svg">
  <sodipodi:namedview
     id="namedview6836"
     pagecolor="#ffffff"
     bordercolor="#666666"
     borderopacity="1.0"
     inkscape:pageshadow="2"
     inkscape:pageopacity="0.0"
     inkscape:pagecheckerboard="0"
     inkscape:document-units="mm"
     showgrid="false"
     fit-margin-top="1"
     fit-margin-left="1"
     fit-margin-right="1"
     fit-margin-bottom="1"
     inkscape:zoom="0.14142136"
     inkscape:cx="2906.2089"
     inkscape:cy="2630.4372"
     inkscape:window-width="1885"
     inkscape:window-height="1147"
     inkscape:window-x="225"
     inkscape:window-y="149"
     inkscape:window-maximized="0"
     inkscape:current-layer="layer1"
     inkscape:showpageshadow="2"
     inkscape:deskcolor="#d1d1d1" />
  <defs
     id="defs6831">
    <linearGradient
       inkscape:collect="always"
       xlink:href="#linearGradient1925"
       id="linearGradient1927"
       x1="5280.2642"
       y1="1511.8125"
       x2="11068.104"
       y2="1511.8125"
       gradientUnits="userSpaceOnUse"
       gradientTransform="matrix(0.2046669,0,0,0.2046669,-1584.7472,95.36389)" />
    <linearGradient
       id="linearGradient1925"
       inkscape:swatch="solid">
      <stop
         style="stop-color:#0081b2;stop-opacity:1;"
         offset="0"
         id="stop1923" />
    </linearGradient>
    <linearGradient
       inkscape:collect="always"
       xlink:href="#linearGradient42323"
       id="linearGradient45432"
       gradientUnits="userSpaceOnUse"
       x1="22.36348"
       y1="476.7428"
       x2="221.12894"
       y2="476.7428"
       gradientTransform="matrix(0.85199873,0,0,0.75028473,-1219.0271,36.494)" />
    <linearGradient
       id="linearGradient42323"
       inkscape:swatch="solid">
      <stop
         style="stop-color:#00acf0;stop-opacity:1;"
         offset="0"
         id="stop42321" />
    </linearGradient>
  </defs>
  <g
     inkscape:label="Layer 1"
     inkscape:groupmode="layer"
     id="layer1"
     transform="translate(661.76225,95.21815)">
    <path
       id="path59595"
       style="display:inline;fill:url(#linearGradient1927);fill-opacity:1;stroke:url(#linearGradient45432);stroke-width:4.53274;stroke-linejoin:round;stroke-miterlimit:4;stroke-dasharray:none;stroke-opacity:1"
       inkscape:transform-center-x="-1.3521669"
       inkscape:transform-center-y="-1.2171894"
       d="m -490.77148,219.45479 c 3.01184,3.93421 8.51636,11.95659 9.2468,12.31799 3.51177,1.73748 77.12451,0.19417 80.53842,-1.68851 0.59472,-0.32798 5.05705,-7.62901 7.17815,-10.62948 z m 111.52468,0 c -3.24762,5.70966 -8.86098,14.75443 -8.82545,15.62583 0.071,1.74134 9.58447,16.21071 19.35621,30.42302 v -46.04885 z m 41.44625,0 v 68.82844 h 26.21056 l -2.53354,10.34527 c 22.72377,-0.19342 48.17557,-0.89678 50.30926,-2.07346 3.55961,-1.96301 40.30545,-61.22506 40.25622,-64.92338 -0.009,-0.69673 -5.30951,-8.28092 -7.71896,-12.17687 z m 122.97562,0 c 0.88876,1.02324 3.92058,5.50433 4.25685,5.67071 0.25428,0.12581 4.90088,-0.0181 5.83699,0.0743 v -5.74507 z m 41.90156,0 v 6.15 c 20.46127,-0.36525 41.07404,-1.16431 42.8937,-2.1678 0.22279,-0.12286 2.22339,-3.43806 2.68905,-3.9822 z m 60.8788,0 c -1.20391,2.3245 -5.09153,8.47824 -5.0711,8.97896 0.1507,3.69618 40.057533,61.35089 43.719173,63.16252 2.669759,1.32089 39.190457,0.5462 61.24577,-0.63279 l -21.654717,-71.50869 z m 267.20222,0 c -0.0867,0.26826 -1.32204,2.20166 -1.31674,2.33168 0.14796,3.62871 38.00378,58.29129 42.87293,62.03566 v -64.36734 z m 74.8973,0 v 65.90833 c 22.22263,-0.2564 46.00617,-0.97847 48.04396,-2.10223 3.49952,-1.9299 38.47036,-58.35852 39.62302,-63.8061 z m 197.48796,0 c 4.78219,9.72112 37.55711,57.15675 40.97423,58.84733 3.51168,1.73748 77.12442,0.19417 80.53827,-1.68851 3.14245,-1.73287 29.13064,-43.76249 35.85436,-57.15882 z m 172.37835,0.85863 c -4.38887,3.47834 -38.09362,57.80801 -37.95137,61.29653 0.0217,0.53085 4.46398,6.8429 5.90054,9.27438 6.72801,2.79629 10.59499,6.34746 11.59684,10.65466 0.71142,3.05856 1.2325,6.40593 1.56733,10.03588 11.08518,16.14912 22.69204,32.22702 24.65439,33.19802 2.31356,1.1446 30.03466,0.6762 53.0824,-0.18587 v -75.16793 c -3.58433,-12.57607 -10.08127,-23.11289 -19.49023,-31.61024 -8.30639,-7.87674 -21.42882,-13.7075 -39.3599,-17.49543 z m -199.22411,3.44937 v 64.52044 h 28.22686 v 41.22957 c 11.99642,-18.40798 26.63667,-42.18149 26.6031,-44.70451 -0.0472,-3.54695 -38.37111,-58.91558 -41.92952,-60.57781 -0.73347,-0.34262 -7.5938,-0.36254 -12.90044,-0.46769 z m -33.54057,0.23625 c -18.50132,0.44987 -35.86201,1.11864 -37.53479,1.9923 -3.46458,1.80946 -38.75341,58.72099 -38.60889,62.2659 0.1507,3.69619 40.05753,61.35089 43.71915,63.16251 0.095,0.0471 1.98649,-0.0147 2.18139,0.0276 v -63.16413 h 30.24314 z m -868.94208,2.80976 v 24.293 c 2.24156,-4.06327 7.28039,-12.10715 7.27087,-12.82325 -0.008,-0.65628 -5.10405,-7.93383 -7.27087,-11.46975 z m 624.03297,3.32905 c -24.09231,0.0382 -61.099104,1.20326 -63.582655,2.50035 -0.767256,0.40073 -5.991317,8.87372 -9.149655,13.50123 l -19.504918,64.40931 c 11.330482,17.72826 30.990702,46.14556 33.765248,47.51831 0.570428,0.28221 9.425669,0.0449 13.093892,0.16668 L 91.87122,314.28511 v 44.13969 c 23.01897,-0.12515 50.21903,-0.81977 52.44309,-2.04625 2.03495,-1.12224 13.52101,-19.0697 24.17267,-36.55783 v -31.53749 h 14.07285 c -3.57999,-8.1351 -36.54286,-55.82829 -39.91923,-57.40547 -1.15946,-0.54162 -9.4421,-0.75729 -20.39313,-0.73991 z m -270.9566,6.64726 c -7.31151,0.0116 -15.8498,0.28114 -24.21424,0.4725 v 51.02562 h 28.22683 v 75.73033 c 6.24907,-0.35502 17.28789,-0.56574 18.05385,-0.98814 3.55961,-1.96303 40.305863,-61.22466 40.256643,-64.92298 -0.0472,-3.54695 -38.371523,-58.91557 -41.929933,-60.57781 -1.15949,-0.54161 -9.44211,-0.75688 -20.39315,-0.73952 z m -56.02196,1.95074 c -1.96203,0.19623 -7.16434,0.34264 -7.56068,0.54964 -3.46458,1.80946 -38.75343,58.72099 -38.60889,62.2659 0.0368,0.90372 6.36624,10.03851 10.04546,15.78855 l 7.89727,-29.05671 h 28.22684 z m -214.93462,4.69614 c -24.09228,0.0382 -61.09911,1.20327 -63.58265,2.50037 -1.55445,0.81187 -10.24457,14.15329 -18.53714,27.35302 v 14.99785 h 28.22684 l 22.67446,83.42493 c 23.08469,-0.0958 51.02523,-0.78928 53.28494,-2.03548 1.37446,-0.75795 9.34774,-13.21964 16.58921,-24.56602 l -13.91655,-56.82343 h 26.21056 v -1.47545 c -11.42981,-17.55404 -28.02799,-41.45472 -30.55654,-42.63587 -1.15946,-0.54162 -9.44208,-0.75729 -20.39313,-0.73992 z m 925.20546,47.01382 c -18.96464,0.44298 -37.03591,1.12254 -38.74631,2.01589 -3.39338,1.7722 -36.60917,55.37653 -37.86943,60.95677 v 2.47199 c 1.52931,5.50232 39.38437,60.22106 42.97995,62.00007 3.51189,1.73748 77.12463,0.19419 80.53848,-1.68851 0.98056,-0.54069 7.28041,-10.6474 11.83404,-17.5238 -1.34589,0.4402 -2.77754,0.8608 -4.29924,1.26038 h -54.43749 z m -245.24207,6.19478 v 127.36837 c 8.07229,-0.39499 20.28926,-0.66389 21.18822,-1.15966 3.55959,-1.96302 40.30583,-61.22506 40.25661,-64.92337 -0.0472,-3.54697 -38.37148,-58.91517 -41.92992,-60.5774 -1.10952,-0.51829 -9.26334,-0.70519 -19.51491,-0.70794 z m -271.835203,6.61529 c -24.092282,0.0382 -61.098704,1.20287 -63.582254,2.49998 -3.46458,1.80947 -38.753423,58.72098 -38.608903,62.2659 0.1507,3.6962 40.057543,61.35129 43.719175,63.16293 0.08402,0.0415 1.766396,-0.0135 1.928762,0.0244 V 314.28511 l 40.047537,117.32131 c 18.4391734,-0.42262 36.92643,-1.20798 38.562541,-2.11024 3.55958,-1.96302 40.305825,-61.22505 40.256603,-64.92337 -0.02972,-2.23338 -13.279996,-21.68583 -25.426669,-38.66646 L 11.895238,370.36784 -8.3935746,303.36982 c -1.545118,-0.008 -1.455696,-0.11662 -3.1439484,-0.11394 z m -270.956587,6.64689 c -10.43418,0.0166 -23.13072,0.31549 -34.55594,0.67394 l -17.39028,71.00745 c -4.03241,15.975 -10.30531,25.15202 -18.81816,27.53128 -8.51287,-2.37926 -14.78536,-11.55628 -18.81777,-27.53128 l -4.99514,-20.39594 c -2.51506,4.51747 -7.64451,12.72905 -7.61386,13.48081 0.1507,3.69621 40.05753,61.3513 43.71917,63.16293 2.39838,1.18662 31.92765,0.64468 55.0278,-0.2922 4.88729,-5.41729 9.55402,-12.17195 14.0001,-20.26681 4.9285,-8.15748 8.96103,-18.18417 12.09735,-30.08046 l 14.68963,-54.04724 c -7.39311,-10.36462 -15.59592,-21.87075 -16.94939,-22.50296 -1.15945,-0.54163 -9.44249,-0.75691 -20.39351,-0.73952 z m 863.97775,23.68339 v 33.21279 c 0,1.50226 -0.0256,2.96582 -0.0751,4.39275 4.7362,-8.09108 11.30539,-18.80101 11.29066,-19.91305 -0.0143,-1.01232 -6.66437,-10.69116 -11.21555,-17.69249 z m -412.99666,7.85369 c -4.84987,8.26323 -11.30439,18.82334 -11.25908,19.93504 0.0413,1.01288 6.81083,10.83872 11.25908,17.6961 z m 490.28441,15.16334 c -23.46014,0.24392 -52.5955,1.17487 -54.8061,2.32929 -3.46441,1.80947 -38.75328,58.72101 -38.60878,62.26589 0.15064,3.69621 40.0574,61.3513 43.7191,63.16293 1.36124,0.6735 16.99165,0.53883 31.24731,0.39775 -1.60438,-3.66428 -3.29533,-7.29558 -5.07389,-10.89372 -4.03235,-8.49734 -8.2888,-15.97503 -12.76937,-22.43301 -4.03235,-6.79789 -7.6171,-11.55637 -10.75341,-14.27552 8.51292,-2.37924 15.45767,-5.60818 20.83407,-9.6869 5.82461,-4.07872 10.52929,-8.32748 14.11363,-12.7461 3.58432,-4.75853 6.27262,-9.34723 8.06489,-13.76586 1.79206,-4.7585 3.13632,-9.00687 4.03255,-12.74571 z m -321.85795,8.69235 c -0.64716,0.10454 -3.69997,0.17691 -3.90465,0.28381 -3.46458,1.80948 -38.75341,58.7214 -38.6089,62.26632 0.14679,3.60002 37.16075,57.03475 42.51355,61.55635 z m -211.27898,4.43071 c -10.19482,0.0162 -22.53783,0.31404 -33.76324,0.65837 v 127.58543 c 23.09611,0.002 53.4622,-0.69751 55.82968,-2.00309 1.72218,-0.94974 11.45302,-15.78819 20.78608,-30.78078 v -64.85743 c -10.11382,-14.62762 -20.66405,-29.02395 -22.45939,-29.86257 -1.15946,-0.54161 -9.4421,-0.75727 -20.39313,-0.73993 z m -53.286149,1.75166 c -3.31413,0.25923 -9.756737,0.46683 -10.296505,0.74871 -3.46456,1.80949 -38.75341,58.721 -38.608874,62.26592 0.06537,1.60399 9.001475,15.06974 17.829597,28.02337 z m -217.044851,4.91841 v 127.39076 c 8.22377,-0.39783 20.53118,-0.67158 21.44087,-1.17324 3.55958,-1.96302 40.305833,-61.22506 40.256613,-64.92339 -0.0472,-3.54693 -38.371503,-58.91517 -41.929923,-60.5774 -1.1239,-0.525 -9.31522,-0.71965 -19.76756,-0.71673 z m 573.62055,3.27387 v 94.44657 c 11.73817,-17.42969 30.02753,-46.90547 29.9901,-49.72006 -0.0346,-2.59665 -17.58564,-27.98723 -29.9901,-44.72651 z m -845.20273,3.35022 c -9.47059,0.0149 -20.78448,0.30917 -31.36479,0.61201 l 0.96776,3.56007 c 3.13632,11.89629 6.94451,21.92298 11.42498,30.08046 4.92851,7.81756 9.85709,14.44555 14.78559,19.88385 4.9285,5.09842 9.85709,9.00723 14.78558,11.72637 4.92848,2.71917 9.40885,4.58868 13.44126,5.60837 v 51.84666 c 6.16438,-6.6686 38.32966,-58.47206 38.28269,-62.00048 -0.0472,-3.54693 -38.37151,-58.91516 -41.92992,-60.57739 -1.15948,-0.54163 -9.4421,-0.75728 -20.39315,-0.73992 z m 950.04182,46.52975 c -24.09235,0.0382 -61.09921,1.20286 -63.58263,2.49996 -3.46461,1.80949 -38.75352,58.721 -38.60898,62.26592 0.1507,3.69618 40.05802,61.35129 43.71951,63.16291 2.28511,1.13047 29.43355,0.68716 52.42686,-0.14991 v -36.04856 h -22.17811 v -79.0254 h 30.91513 c 4.48037,3.05905 8.96073,7.81753 13.4413,14.27551 4.92837,6.11811 9.40874,13.08606 13.44128,20.90362 4.03235,7.47766 7.39279,15.12551 10.08088,22.94307 2.98977,7.4522 4.95949,14.1303 5.91344,20.03818 8.41222,-13.74819 16.77634,-27.89825 16.75424,-29.5484 -0.0471,-3.54693 -38.37136,-58.91516 -41.92991,-60.57739 -1.15943,-0.54163 -9.4421,-0.75689 -20.39301,-0.73951 z m -270.95666,6.64686 c -0.75751,0.002 -1.72718,0.0454 -2.50876,0.0489 v 85.03469 h -30.24273 v 43.17273 c 23.12632,-0.0386 52.49332,-0.7339 54.81794,-2.0159 3.55961,-1.96302 40.30584,-61.22465 40.25663,-64.92298 -0.0472,-3.54693 -38.37151,-58.91555 -41.92995,-60.5778 -1.15945,-0.5416 -9.44208,-0.75687 -20.39313,-0.73951 z M -8.1505336,442.8439 c -4.8133314,0.007 -10.4748324,0.22135 -15.9408254,0.311 l 19.184708,56.20265 H 28.696711 L 36.54761,476.35731 C 25.689356,460.47254 14.205439,444.50052 12.243006,443.58381 11.083551,443.04221 2.800517,442.82656 -8.1505336,442.8439 Z m -59.9302094,2.23495 c -0.580035,0.098 -3.460594,0.16545 -3.652035,0.26542 -3.464589,1.80947 -38.753422,58.721 -38.608912,62.26592 0.1507,3.69619 40.057538,61.35129 43.719193,63.16293 1.166135,0.57695 15.279901,0.37984 26.768588,0.34097 v -49.83361 h -28.226834 z m -233.913087,4.85885 c -19.6817,0.4299 -38.92437,1.12882 -40.69554,2.05385 -3.46458,1.80948 -38.75341,58.721 -38.60889,62.26591 0.15069,3.69619 40.05752,61.35089 43.71916,63.16252 2.56829,1.27067 36.24393,0.58295 58.92048,-0.50527 v -55.63423 h -35.61962 v -66.78894 c 3.71328,-0.939 7.81125,-2.46196 12.28441,-4.55384 z m 470.48081,37.08746 c -2.66636,4.76529 -7.90376,13.16086 -7.87206,13.93815 0.0288,0.70818 5.45881,8.47517 7.87206,12.37274 z m 476.64316,9.49863 c -18.59522,0.44861 -36.09731,1.11949 -37.77783,1.9971 -3.4646,1.80948 -38.75326,58.721 -38.60877,62.26591 0.0684,1.67832 9.30886,15.67308 18.6558,29.32214 H 678.261 v -68.82846 h -26.21046 c -0.89603,-6.45797 -2.91221,-13.93564 -6.04852,-22.433 -0.28654,-0.7762 -0.57778,-1.55032 -0.87188,-2.32369 z m -308.2167,8.60641 c -0.0354,0.0141 -0.49089,0.0234 -0.51805,0.0376 -3.46459,1.80946 -38.75302,58.72139 -38.6085,62.2663 0.0529,1.29788 7.86086,12.82486 14.42703,22.67486 h 54.94266 v -68.82845 h -30.24314 z m -207.892,4.18447 c -11.21751,0.0178 -25.12155,0.31878 -37.15022,0.72474 v 11.24107 H 63.64438 v 68.82846 H 180.3009 c 4.57062,-7.82873 11.0581,-18.38926 11.04362,-19.47694 -0.0472,-3.54696 -38.37152,-58.91516 -41.92992,-60.57741 -1.15947,-0.54162 -9.4421,-0.75729 -20.39316,-0.73992 z m 299.90257,5.44767 v 6.51814 h -28.22686 v 68.82846 h 46.79119 c 7.1363,-11.82361 14.8321,-24.66531 14.81286,-26.12422 -0.0383,-2.86622 -21.89221,-34.36175 -33.37719,-49.22238 z m -570.85915,1.19961 c -0.83381,0.002 -1.89862,0.05 -2.7614,0.054 v 5.26457 h -28.22683 v 68.82845 h 86.036433 c 2.24373,-4.06681 7.2844,-12.11358 7.27488,-12.83005 -0.0472,-3.54696 -38.371503,-58.91519 -41.929943,-60.57741 -1.15946,-0.54161 -9.44208,-0.75688 -20.39314,-0.73953 z m 315.47684,5.31853 c 9.1921,13.95203 16.12602,23.73056 23.17214,32.69395 v -32.69395 z m 382.40319,0 v 34.33888 c 2.01107,-1.2216 12.67995,-17.69672 22.89651,-34.33888 z m -968.837,1.32836 c -4.51896,0.007 -9.85128,0.21191 -14.96587,0.29181 v 67.20829 h 73.78361 c 0.5799,-1.22205 3.51032,-5.8375 3.50571,-6.18279 -0.0472,-3.54695 -38.37148,-58.91557 -41.92991,-60.57779 -1.15947,-0.54164 -9.4425,-0.7569 -20.39354,-0.73952 z m 940.60997,46.71321 c -23.35208,0.25635 -51.96042,1.17272 -54.15057,2.3165 -1.04953,0.5482 -7.49571,10.82291 -12.51738,18.47039 h 66.66795 z m 28.22703,0.49808 v 20.28881 h 16.83632 c -6.42633,-8.90848 -14.02132,-19.66245 -15.23807,-20.23085 -0.0909,-0.0425 -1.42202,-0.0194 -1.59825,-0.058 z m -289.75184,5.96532 c -10.91192,0.0174 -24.33527,0.31795 -36.1381,0.70514 v 13.61835 h 66.76336 c -3.59837,-4.76677 -9.41471,-13.20233 -10.23172,-13.58396 -1.15949,-0.54164 -9.44251,-0.75691 -20.39354,-0.73953 z m -306.046959,7.33123 c -14.720215,0.46887 -27.100558,1.08938 -28.491879,1.816 -0.294167,0.15365 -2.796274,4.29451 -3.50812,5.17626 h 31.999999 z m 236.567749,3.87068 c -0.57242,0.78489 -1.43554,2.14348 -2.11544,3.12158 h 2.11544 z m -475.37246,2.14941 c -13.39317,0.0642 -27.9125,0.43451 -40.4145,0.97217 h 40.4145 z" />
  </g>
</svg>
