<?xml version="1.0" encoding="utf-8" standalone="no"?>
<!DOCTYPE svg PUBLIC "-//W3C//DTD SVG 1.1//EN"
  "http://www.w3.org/Graphics/SVG/1.1/DTD/svg11.dtd">
<svg xmlns:xlink="http://www.w3.org/1999/xlink" width="401.690625pt" height="268.200625pt" viewBox="0 0 401.690625 268.200625" xmlns="http://www.w3.org/2000/svg" version="1.1">
 <metadata>
  <rdf:RDF xmlns:dc="http://purl.org/dc/elements/1.1/" xmlns:cc="http://creativecommons.org/ns#" xmlns:rdf="http://www.w3.org/1999/02/22-rdf-syntax-ns#">
   <cc:Work>
    <dc:type rdf:resource="http://purl.org/dc/dcmitype/StillImage"/>
    <dc:date>2026-06-18T08:05:39.237607</dc:date>
    <dc:format>image/svg+xml</dc:format>
    <dc:creator>
     <cc:Agent>
      <dc:title>Matplotlib v3.10.9, https://matplotlib.org/</dc:title>
     </cc:Agent>
    </dc:creator>
   </cc:Work>
  </rdf:RDF>
 </metadata>
 <defs>
  <style type="text/css">*{stroke-linejoin: round; stroke-linecap: butt}</style>
 </defs>
 <g id="figure_1">
  <g id="patch_1">
   <path d="M 0 268.200625 
L 401.690625 268.200625 
L 401.690625 0 
L 0 0 
z
" style="fill: #ffffff"/>
  </g>
  <g id="axes_1">
   <g id="patch_2">
    <path d="M 59.690625 228.96 
L 394.490625 228.96 
L 394.490625 7.2 
L 59.690625 7.2 
z
" style="fill: #ffffff"/>
   </g>
   <g id="matplotlib.axis_1">
    <g id="xtick_1">
     <g id="line2d_1">
      <defs>
       <path id="m3274ed3899" d="M 0 0 
L 0 3.5 
" style="stroke: #000000; stroke-width: 0.8"/>
      </defs>
      <g>
       <use xlink:href="#m3274ed3899" x="71.772192" y="228.96" style="stroke: #000000; stroke-width: 0.8"/>
      </g>
     </g>
     <g id="text_1">
      <!-- 1 -->
      <g transform="translate(68.590942 243.558437) scale(0.1 -0.1)">
       <defs>
        <path id="DejaVuSans-31" d="M 794 531 
L 1825 531 
L 1825 4091 
L 703 3866 
L 703 4441 
L 1819 4666 
L 2450 4666 
L 2450 531 
L 3481 531 
L 3481 0 
L 794 0 
L 794 531 
z
" transform="scale(0.015625)"/>
       </defs>
       <use xlink:href="#DejaVuSans-31"/>
      </g>
     </g>
    </g>
    <g id="xtick_2">
     <g id="line2d_2">
      <g>
       <use xlink:href="#m3274ed3899" x="126.02596" y="228.96" style="stroke: #000000; stroke-width: 0.8"/>
      </g>
     </g>
     <g id="text_2">
      <!-- 2 -->
      <g transform="translate(122.84471 243.558437) scale(0.1 -0.1)">
       <defs>
        <path id="DejaVuSans-32" d="M 1228 531 
L 3431 531 
L 3431 0 
L 469 0 
L 469 531 
Q 828 903 1448 1529 
Q 2069 2156 2228 2338 
Q 2531 2678 2651 2914 
Q 2772 3150 2772 3378 
Q 2772 3750 2511 3984 
Q 2250 4219 1831 4219 
Q 1534 4219 1204 4116 
Q 875 4013 500 3803 
L 500 4441 
Q 881 4594 1212 4672 
Q 1544 4750 1819 4750 
Q 2544 4750 2975 4387 
Q 3406 4025 3406 3419 
Q 3406 3131 3298 2873 
Q 3191 2616 2906 2266 
Q 2828 2175 2409 1742 
Q 1991 1309 1228 531 
z
" transform="scale(0.015625)"/>
       </defs>
       <use xlink:href="#DejaVuSans-32"/>
      </g>
     </g>
    </g>
    <g id="xtick_3">
     <g id="line2d_3">
      <g>
       <use xlink:href="#m3274ed3899" x="180.279727" y="228.96" style="stroke: #000000; stroke-width: 0.8"/>
      </g>
     </g>
     <g id="text_3">
      <!-- 3 -->
      <g transform="translate(177.098477 243.558437) scale(0.1 -0.1)">
       <defs>
        <path id="DejaVuSans-33" d="M 2597 2516 
Q 3050 2419 3304 2112 
Q 3559 1806 3559 1356 
Q 3559 666 3084 287 
Q 2609 -91 1734 -91 
Q 1441 -91 1130 -33 
Q 819 25 488 141 
L 488 750 
Q 750 597 1062 519 
Q 1375 441 1716 441 
Q 2309 441 2620 675 
Q 2931 909 2931 1356 
Q 2931 1769 2642 2001 
Q 2353 2234 1838 2234 
L 1294 2234 
L 1294 2753 
L 1863 2753 
Q 2328 2753 2575 2939 
Q 2822 3125 2822 3475 
Q 2822 3834 2567 4026 
Q 2313 4219 1838 4219 
Q 1578 4219 1281 4162 
Q 984 4106 628 3988 
L 628 4550 
Q 988 4650 1302 4700 
Q 1616 4750 1894 4750 
Q 2613 4750 3031 4423 
Q 3450 4097 3450 3541 
Q 3450 3153 3228 2886 
Q 3006 2619 2597 2516 
z
" transform="scale(0.015625)"/>
       </defs>
       <use xlink:href="#DejaVuSans-33"/>
      </g>
     </g>
    </g>
    <g id="xtick_4">
     <g id="line2d_4">
      <g>
       <use xlink:href="#m3274ed3899" x="234.533495" y="228.96" style="stroke: #000000; stroke-width: 0.8"/>
      </g>
     </g>
     <g id="text_4">
      <!-- 4 -->
      <g transform="translate(231.352245 243.558437) scale(0.1 -0.1)">
       <defs>
        <path id="DejaVuSans-34" d="M 2419 4116 
L 825 1625 
L 2419 1625 
L 2419 4116 
z
M 2253 4666 
L 3047 4666 
L 3047 1625 
L 3713 1625 
L 3713 1100 
L 3047 1100 
L 3047 0 
L 2419 0 
L 2419 1100 
L 313 1100 
L 313 1709 
L 2253 4666 
z
" transform="scale(0.015625)"/>
       </defs>
       <use xlink:href="#DejaVuSans-34"/>
      </g>
     </g>
    </g>
    <g id="xtick_5">
     <g id="line2d_5">
      <g>
       <use xlink:href="#m3274ed3899" x="288.787262" y="228.96" style="stroke: #000000; stroke-width: 0.8"/>
      </g>
     </g>
     <g id="text_5">
      <!-- 5 -->
      <g transform="translate(285.606012 243.558437) scale(0.1 -0.1)">
       <defs>
        <path id="DejaVuSans-35" d="M 691 4666 
L 3169 4666 
L 3169 4134 
L 1269 4134 
L 1269 2991 
Q 1406 3038 1543 3061 
Q 1681 3084 1819 3084 
Q 2600 3084 3056 2656 
Q 3513 2228 3513 1497 
Q 3513 744 3044 326 
Q 2575 -91 1722 -91 
Q 1428 -91 1123 -41 
Q 819 9 494 109 
L 494 744 
Q 775 591 1075 516 
Q 1375 441 1709 441 
Q 2250 441 2565 725 
Q 2881 1009 2881 1497 
Q 2881 1984 2565 2268 
Q 2250 2553 1709 2553 
Q 1456 2553 1204 2497 
Q 953 2441 691 2322 
L 691 4666 
z
" transform="scale(0.015625)"/>
       </defs>
       <use xlink:href="#DejaVuSans-35"/>
      </g>
     </g>
    </g>
    <g id="xtick_6">
     <g id="line2d_6">
      <g>
       <use xlink:href="#m3274ed3899" x="343.04103" y="228.96" style="stroke: #000000; stroke-width: 0.8"/>
      </g>
     </g>
     <g id="text_6">
      <!-- 6 -->
      <g transform="translate(339.85978 243.558437) scale(0.1 -0.1)">
       <defs>
        <path id="DejaVuSans-36" d="M 2113 2584 
Q 1688 2584 1439 2293 
Q 1191 2003 1191 1497 
Q 1191 994 1439 701 
Q 1688 409 2113 409 
Q 2538 409 2786 701 
Q 3034 994 3034 1497 
Q 3034 2003 2786 2293 
Q 2538 2584 2113 2584 
z
M 3366 4563 
L 3366 3988 
Q 3128 4100 2886 4159 
Q 2644 4219 2406 4219 
Q 1781 4219 1451 3797 
Q 1122 3375 1075 2522 
Q 1259 2794 1537 2939 
Q 1816 3084 2150 3084 
Q 2853 3084 3261 2657 
Q 3669 2231 3669 1497 
Q 3669 778 3244 343 
Q 2819 -91 2113 -91 
Q 1303 -91 875 529 
Q 447 1150 447 2328 
Q 447 3434 972 4092 
Q 1497 4750 2381 4750 
Q 2619 4750 2861 4703 
Q 3103 4656 3366 4563 
z
" transform="scale(0.015625)"/>
       </defs>
       <use xlink:href="#DejaVuSans-36"/>
      </g>
     </g>
    </g>
    <g id="text_7">
     <!-- wavelength [Å] -->
     <g transform="translate(189.053125 258.920937) scale(0.1 -0.1)">
      <defs>
       <path id="DejaVuSans-77" d="M 269 3500 
L 844 3500 
L 1563 769 
L 2278 3500 
L 2956 3500 
L 3675 769 
L 4391 3500 
L 4966 3500 
L 4050 0 
L 3372 0 
L 2619 2869 
L 1863 0 
L 1184 0 
L 269 3500 
z
" transform="scale(0.015625)"/>
       <path id="DejaVuSans-61" d="M 2194 1759 
Q 1497 1759 1228 1600 
Q 959 1441 959 1056 
Q 959 750 1161 570 
Q 1363 391 1709 391 
Q 2188 391 2477 730 
Q 2766 1069 2766 1631 
L 2766 1759 
L 2194 1759 
z
M 3341 1997 
L 3341 0 
L 2766 0 
L 2766 531 
Q 2569 213 2275 61 
Q 1981 -91 1556 -91 
Q 1019 -91 701 211 
Q 384 513 384 1019 
Q 384 1609 779 1909 
Q 1175 2209 1959 2209 
L 2766 2209 
L 2766 2266 
Q 2766 2663 2505 2880 
Q 2244 3097 1772 3097 
Q 1472 3097 1187 3025 
Q 903 2953 641 2809 
L 641 3341 
Q 956 3463 1253 3523 
Q 1550 3584 1831 3584 
Q 2591 3584 2966 3190 
Q 3341 2797 3341 1997 
z
" transform="scale(0.015625)"/>
       <path id="DejaVuSans-76" d="M 191 3500 
L 800 3500 
L 1894 563 
L 2988 3500 
L 3597 3500 
L 2284 0 
L 1503 0 
L 191 3500 
z
" transform="scale(0.015625)"/>
       <path id="DejaVuSans-65" d="M 3597 1894 
L 3597 1613 
L 953 1613 
Q 991 1019 1311 708 
Q 1631 397 2203 397 
Q 2534 397 2845 478 
Q 3156 559 3463 722 
L 3463 178 
Q 3153 47 2828 -22 
Q 2503 -91 2169 -91 
Q 1331 -91 842 396 
Q 353 884 353 1716 
Q 353 2575 817 3079 
Q 1281 3584 2069 3584 
Q 2775 3584 3186 3129 
Q 3597 2675 3597 1894 
z
M 3022 2063 
Q 3016 2534 2758 2815 
Q 2500 3097 2075 3097 
Q 1594 3097 1305 2825 
Q 1016 2553 972 2059 
L 3022 2063 
z
" transform="scale(0.015625)"/>
       <path id="DejaVuSans-6c" d="M 603 4863 
L 1178 4863 
L 1178 0 
L 603 0 
L 603 4863 
z
" transform="scale(0.015625)"/>
       <path id="DejaVuSans-6e" d="M 3513 2113 
L 3513 0 
L 2938 0 
L 2938 2094 
Q 2938 2591 2744 2837 
Q 2550 3084 2163 3084 
Q 1697 3084 1428 2787 
Q 1159 2491 1159 1978 
L 1159 0 
L 581 0 
L 581 3500 
L 1159 3500 
L 1159 2956 
Q 1366 3272 1645 3428 
Q 1925 3584 2291 3584 
Q 2894 3584 3203 3211 
Q 3513 2838 3513 2113 
z
" transform="scale(0.015625)"/>
       <path id="DejaVuSans-67" d="M 2906 1791 
Q 2906 2416 2648 2759 
Q 2391 3103 1925 3103 
Q 1463 3103 1205 2759 
Q 947 2416 947 1791 
Q 947 1169 1205 825 
Q 1463 481 1925 481 
Q 2391 481 2648 825 
Q 2906 1169 2906 1791 
z
M 3481 434 
Q 3481 -459 3084 -895 
Q 2688 -1331 1869 -1331 
Q 1566 -1331 1297 -1286 
Q 1028 -1241 775 -1147 
L 775 -588 
Q 1028 -725 1275 -790 
Q 1522 -856 1778 -856 
Q 2344 -856 2625 -561 
Q 2906 -266 2906 331 
L 2906 616 
Q 2728 306 2450 153 
Q 2172 0 1784 0 
Q 1141 0 747 490 
Q 353 981 353 1791 
Q 353 2603 747 3093 
Q 1141 3584 1784 3584 
Q 2172 3584 2450 3431 
Q 2728 3278 2906 2969 
L 2906 3500 
L 3481 3500 
L 3481 434 
z
" transform="scale(0.015625)"/>
       <path id="DejaVuSans-74" d="M 1172 4494 
L 1172 3500 
L 2356 3500 
L 2356 3053 
L 1172 3053 
L 1172 1153 
Q 1172 725 1289 603 
Q 1406 481 1766 481 
L 2356 481 
L 2356 0 
L 1766 0 
Q 1100 0 847 248 
Q 594 497 594 1153 
L 594 3053 
L 172 3053 
L 172 3500 
L 594 3500 
L 594 4494 
L 1172 4494 
z
" transform="scale(0.015625)"/>
       <path id="DejaVuSans-68" d="M 3513 2113 
L 3513 0 
L 2938 0 
L 2938 2094 
Q 2938 2591 2744 2837 
Q 2550 3084 2163 3084 
Q 1697 3084 1428 2787 
Q 1159 2491 1159 1978 
L 1159 0 
L 581 0 
L 581 4863 
L 1159 4863 
L 1159 2956 
Q 1366 3272 1645 3428 
Q 1925 3584 2291 3584 
Q 2894 3584 3203 3211 
Q 3513 2838 3513 2113 
z
" transform="scale(0.015625)"/>
       <path id="DejaVuSans-20" transform="scale(0.015625)"/>
       <path id="DejaVuSans-5b" d="M 550 4863 
L 1875 4863 
L 1875 4416 
L 1125 4416 
L 1125 -397 
L 1875 -397 
L 1875 -844 
L 550 -844 
L 550 4863 
z
" transform="scale(0.015625)"/>
       <path id="DejaVuSans-c5" d="M 2663 5081 
Q 2663 5278 2523 5417 
Q 2384 5556 2188 5556 
Q 1988 5556 1852 5420 
Q 1716 5284 1716 5081 
Q 1716 4884 1853 4746 
Q 1991 4609 2188 4609 
Q 2384 4609 2523 4746 
Q 2663 4884 2663 5081 
z
M 2188 4044 
L 1338 1722 
L 3041 1722 
L 2188 4044 
z
M 1716 4366 
Q 1525 4494 1428 4673 
Q 1331 4853 1331 5081 
Q 1331 5441 1579 5691 
Q 1828 5941 2188 5941 
Q 2544 5941 2795 5689 
Q 3047 5438 3047 5081 
Q 3047 4863 2948 4678 
Q 2850 4494 2663 4366 
L 4325 0 
L 3669 0 
L 3244 1197 
L 1141 1197 
L 716 0 
L 50 0 
L 1716 4366 
z
" transform="scale(0.015625)"/>
       <path id="DejaVuSans-5d" d="M 1947 4863 
L 1947 -844 
L 622 -844 
L 622 -397 
L 1369 -397 
L 1369 4416 
L 622 4416 
L 622 4863 
L 1947 4863 
z
" transform="scale(0.015625)"/>
      </defs>
      <use xlink:href="#DejaVuSans-77"/>
      <use xlink:href="#DejaVuSans-61" transform="translate(81.787109 0)"/>
      <use xlink:href="#DejaVuSans-76" transform="translate(143.066406 0)"/>
      <use xlink:href="#DejaVuSans-65" transform="translate(202.246094 0)"/>
      <use xlink:href="#DejaVuSans-6c" transform="translate(263.769531 0)"/>
      <use xlink:href="#DejaVuSans-65" transform="translate(291.552734 0)"/>
      <use xlink:href="#DejaVuSans-6e" transform="translate(353.076172 0)"/>
      <use xlink:href="#DejaVuSans-67" transform="translate(416.455078 0)"/>
      <use xlink:href="#DejaVuSans-74" transform="translate(479.931641 0)"/>
      <use xlink:href="#DejaVuSans-68" transform="translate(519.140625 0)"/>
      <use xlink:href="#DejaVuSans-20" transform="translate(582.519531 0)"/>
      <use xlink:href="#DejaVuSans-5b" transform="translate(614.306641 0)"/>
      <use xlink:href="#DejaVuSans-c5" transform="translate(653.320312 0)"/>
      <use xlink:href="#DejaVuSans-5d" transform="translate(721.728516 0)"/>
     </g>
    </g>
   </g>
   <g id="matplotlib.axis_2">
    <g id="ytick_1">
     <g id="line2d_7">
      <defs>
       <path id="m80ac8dd06d" d="M 0 0 
L -3.5 0 
" style="stroke: #000000; stroke-width: 0.8"/>
      </defs>
      <g>
       <use xlink:href="#m80ac8dd06d" x="59.690625" y="218.88" style="stroke: #000000; stroke-width: 0.8"/>
      </g>
     </g>
     <g id="text_8">
      <!-- 0 -->
      <g transform="translate(46.328125 222.679219) scale(0.1 -0.1)">
       <defs>
        <path id="DejaVuSans-30" d="M 2034 4250 
Q 1547 4250 1301 3770 
Q 1056 3291 1056 2328 
Q 1056 1369 1301 889 
Q 1547 409 2034 409 
Q 2525 409 2770 889 
Q 3016 1369 3016 2328 
Q 3016 3291 2770 3770 
Q 2525 4250 2034 4250 
z
M 2034 4750 
Q 2819 4750 3233 4129 
Q 3647 3509 3647 2328 
Q 3647 1150 3233 529 
Q 2819 -91 2034 -91 
Q 1250 -91 836 529 
Q 422 1150 422 2328 
Q 422 3509 836 4129 
Q 1250 4750 2034 4750 
z
" transform="scale(0.015625)"/>
       </defs>
       <use xlink:href="#DejaVuSans-30"/>
      </g>
     </g>
    </g>
    <g id="ytick_2">
     <g id="line2d_8">
      <g>
       <use xlink:href="#m80ac8dd06d" x="59.690625" y="183.12581" style="stroke: #000000; stroke-width: 0.8"/>
      </g>
     </g>
     <g id="text_9">
      <!-- 2000 -->
      <g transform="translate(27.240625 186.925029) scale(0.1 -0.1)">
       <use xlink:href="#DejaVuSans-32"/>
       <use xlink:href="#DejaVuSans-30" transform="translate(63.623047 0)"/>
       <use xlink:href="#DejaVuSans-30" transform="translate(127.246094 0)"/>
       <use xlink:href="#DejaVuSans-30" transform="translate(190.869141 0)"/>
      </g>
     </g>
    </g>
    <g id="ytick_3">
     <g id="line2d_9">
      <g>
       <use xlink:href="#m80ac8dd06d" x="59.690625" y="147.37162" style="stroke: #000000; stroke-width: 0.8"/>
      </g>
     </g>
     <g id="text_10">
      <!-- 4000 -->
      <g transform="translate(27.240625 151.170839) scale(0.1 -0.1)">
       <use xlink:href="#DejaVuSans-34"/>
       <use xlink:href="#DejaVuSans-30" transform="translate(63.623047 0)"/>
       <use xlink:href="#DejaVuSans-30" transform="translate(127.246094 0)"/>
       <use xlink:href="#DejaVuSans-30" transform="translate(190.869141 0)"/>
      </g>
     </g>
    </g>
    <g id="ytick_4">
     <g id="line2d_10">
      <g>
       <use xlink:href="#m80ac8dd06d" x="59.690625" y="111.61743" style="stroke: #000000; stroke-width: 0.8"/>
      </g>
     </g>
     <g id="text_11">
      <!-- 6000 -->
      <g transform="translate(27.240625 115.416649) scale(0.1 -0.1)">
       <use xlink:href="#DejaVuSans-36"/>
       <use xlink:href="#DejaVuSans-30" transform="translate(63.623047 0)"/>
       <use xlink:href="#DejaVuSans-30" transform="translate(127.246094 0)"/>
       <use xlink:href="#DejaVuSans-30" transform="translate(190.869141 0)"/>
      </g>
     </g>
    </g>
    <g id="ytick_5">
     <g id="line2d_11">
      <g>
       <use xlink:href="#m80ac8dd06d" x="59.690625" y="75.86324" style="stroke: #000000; stroke-width: 0.8"/>
      </g>
     </g>
     <g id="text_12">
      <!-- 8000 -->
      <g transform="translate(27.240625 79.662459) scale(0.1 -0.1)">
       <defs>
        <path id="DejaVuSans-38" d="M 2034 2216 
Q 1584 2216 1326 1975 
Q 1069 1734 1069 1313 
Q 1069 891 1326 650 
Q 1584 409 2034 409 
Q 2484 409 2743 651 
Q 3003 894 3003 1313 
Q 3003 1734 2745 1975 
Q 2488 2216 2034 2216 
z
M 1403 2484 
Q 997 2584 770 2862 
Q 544 3141 544 3541 
Q 544 4100 942 4425 
Q 1341 4750 2034 4750 
Q 2731 4750 3128 4425 
Q 3525 4100 3525 3541 
Q 3525 3141 3298 2862 
Q 3072 2584 2669 2484 
Q 3125 2378 3379 2068 
Q 3634 1759 3634 1313 
Q 3634 634 3220 271 
Q 2806 -91 2034 -91 
Q 1263 -91 848 271 
Q 434 634 434 1313 
Q 434 1759 690 2068 
Q 947 2378 1403 2484 
z
M 1172 3481 
Q 1172 3119 1398 2916 
Q 1625 2713 2034 2713 
Q 2441 2713 2670 2916 
Q 2900 3119 2900 3481 
Q 2900 3844 2670 4047 
Q 2441 4250 2034 4250 
Q 1625 4250 1398 4047 
Q 1172 3844 1172 3481 
z
" transform="scale(0.015625)"/>
       </defs>
       <use xlink:href="#DejaVuSans-38"/>
       <use xlink:href="#DejaVuSans-30" transform="translate(63.623047 0)"/>
       <use xlink:href="#DejaVuSans-30" transform="translate(127.246094 0)"/>
       <use xlink:href="#DejaVuSans-30" transform="translate(190.869141 0)"/>
      </g>
     </g>
    </g>
    <g id="ytick_6">
     <g id="line2d_12">
      <g>
       <use xlink:href="#m80ac8dd06d" x="59.690625" y="40.10905" style="stroke: #000000; stroke-width: 0.8"/>
      </g>
     </g>
     <g id="text_13">
      <!-- 10000 -->
      <g transform="translate(20.878125 43.908269) scale(0.1 -0.1)">
       <use xlink:href="#DejaVuSans-31"/>
       <use xlink:href="#DejaVuSans-30" transform="translate(63.623047 0)"/>
       <use xlink:href="#DejaVuSans-30" transform="translate(127.246094 0)"/>
       <use xlink:href="#DejaVuSans-30" transform="translate(190.869141 0)"/>
       <use xlink:href="#DejaVuSans-30" transform="translate(254.492188 0)"/>
      </g>
     </g>
    </g>
    <g id="text_14">
     <!-- [counts] -->
     <g transform="translate(14.798438 138.6925) rotate(-90) scale(0.1 -0.1)">
      <defs>
       <path id="DejaVuSans-63" d="M 3122 3366 
L 3122 2828 
Q 2878 2963 2633 3030 
Q 2388 3097 2138 3097 
Q 1578 3097 1268 2742 
Q 959 2388 959 1747 
Q 959 1106 1268 751 
Q 1578 397 2138 397 
Q 2388 397 2633 464 
Q 2878 531 3122 666 
L 3122 134 
Q 2881 22 2623 -34 
Q 2366 -91 2075 -91 
Q 1284 -91 818 406 
Q 353 903 353 1747 
Q 353 2603 823 3093 
Q 1294 3584 2113 3584 
Q 2378 3584 2631 3529 
Q 2884 3475 3122 3366 
z
" transform="scale(0.015625)"/>
       <path id="DejaVuSans-6f" d="M 1959 3097 
Q 1497 3097 1228 2736 
Q 959 2375 959 1747 
Q 959 1119 1226 758 
Q 1494 397 1959 397 
Q 2419 397 2687 759 
Q 2956 1122 2956 1747 
Q 2956 2369 2687 2733 
Q 2419 3097 1959 3097 
z
M 1959 3584 
Q 2709 3584 3137 3096 
Q 3566 2609 3566 1747 
Q 3566 888 3137 398 
Q 2709 -91 1959 -91 
Q 1206 -91 779 398 
Q 353 888 353 1747 
Q 353 2609 779 3096 
Q 1206 3584 1959 3584 
z
" transform="scale(0.015625)"/>
       <path id="DejaVuSans-75" d="M 544 1381 
L 544 3500 
L 1119 3500 
L 1119 1403 
Q 1119 906 1312 657 
Q 1506 409 1894 409 
Q 2359 409 2629 706 
Q 2900 1003 2900 1516 
L 2900 3500 
L 3475 3500 
L 3475 0 
L 2900 0 
L 2900 538 
Q 2691 219 2414 64 
Q 2138 -91 1772 -91 
Q 1169 -91 856 284 
Q 544 659 544 1381 
z
M 1991 3584 
L 1991 3584 
z
" transform="scale(0.015625)"/>
       <path id="DejaVuSans-73" d="M 2834 3397 
L 2834 2853 
Q 2591 2978 2328 3040 
Q 2066 3103 1784 3103 
Q 1356 3103 1142 2972 
Q 928 2841 928 2578 
Q 928 2378 1081 2264 
Q 1234 2150 1697 2047 
L 1894 2003 
Q 2506 1872 2764 1633 
Q 3022 1394 3022 966 
Q 3022 478 2636 193 
Q 2250 -91 1575 -91 
Q 1294 -91 989 -36 
Q 684 19 347 128 
L 347 722 
Q 666 556 975 473 
Q 1284 391 1588 391 
Q 1994 391 2212 530 
Q 2431 669 2431 922 
Q 2431 1156 2273 1281 
Q 2116 1406 1581 1522 
L 1381 1569 
Q 847 1681 609 1914 
Q 372 2147 372 2553 
Q 372 3047 722 3315 
Q 1072 3584 1716 3584 
Q 2034 3584 2315 3537 
Q 2597 3491 2834 3397 
z
" transform="scale(0.015625)"/>
      </defs>
      <use xlink:href="#DejaVuSans-5b"/>
      <use xlink:href="#DejaVuSans-63" transform="translate(39.013672 0)"/>
      <use xlink:href="#DejaVuSans-6f" transform="translate(93.994141 0)"/>
      <use xlink:href="#DejaVuSans-75" transform="translate(155.175781 0)"/>
      <use xlink:href="#DejaVuSans-6e" transform="translate(218.554688 0)"/>
      <use xlink:href="#DejaVuSans-74" transform="translate(281.933594 0)"/>
      <use xlink:href="#DejaVuSans-73" transform="translate(321.142578 0)"/>
      <use xlink:href="#DejaVuSans-5d" transform="translate(373.242188 0)"/>
     </g>
    </g>
   </g>
   <g id="line2d_13">
    <path d="M 77.634535 218.736983 
L 80.889761 218.75486 
L 80.889761 218.88 
L 84.144987 218.808492 
L 84.144987 218.719106 
L 85.7726 218.719106 
L 85.7726 218.593966 
L 92.283053 218.486704 
L 92.283053 218.254302 
L 93.910666 218.254302 
L 93.910666 217.878883 
L 95.538279 217.878883 
L 95.538279 218.218547 
L 97.165892 218.218547 
L 97.165892 218.004022 
L 98.793505 218.004022 
L 98.793505 217.557095 
L 100.421118 217.557095 
L 100.421118 217.717989 
L 102.048731 217.717989 
L 102.048731 217.914637 
L 103.676344 217.914637 
L 103.676344 216.466592 
L 105.303957 216.466592 
L 105.303957 217.092291 
L 106.93157 217.092291 
L 106.93157 216.001788 
L 108.559183 216.001788 
L 108.559183 216.252067 
L 110.186796 216.252067 
L 110.186796 215.018547 
L 111.814409 215.018547 
L 111.814409 214.750391 
L 113.442022 214.750391 
L 113.442022 213.355978 
L 115.069635 213.355978 
L 115.069635 212.336983 
L 116.697248 212.336983 
L 116.697248 211.907933 
L 118.324861 211.907933 
L 118.324861 207.74257 
L 119.952474 207.74257 
L 119.952474 207.152626 
L 121.580087 207.152626 
L 121.580087 205.061006 
L 123.2077 205.061006 
L 123.2077 202.129162 
L 124.835313 202.129162 
L 124.835313 195.80067 
L 126.462926 195.80067 
L 126.462926 193.315754 
L 128.090539 193.315754 
L 128.090539 188.721341 
L 129.718152 188.721341 
L 129.718152 182.57162 
L 131.345765 182.57162 
L 131.345765 176.278883 
L 132.973378 176.278883 
L 132.973378 170.629721 
L 134.600991 170.629721 
L 134.600991 159.134749 
L 136.228604 159.134749 
L 136.228604 159.939218 
L 137.856217 159.939218 
L 137.856217 150.01743 
L 139.48383 150.01743 
L 139.48383 144.654302 
L 141.111443 144.654302 
L 141.111443 134.178324 
L 142.739056 134.178324 
L 142.739056 126.401788 
L 144.366669 126.401788 
L 144.366669 118.410726 
L 145.994282 118.410726 
L 145.994282 107.809609 
L 147.621896 107.809609 
L 147.621896 98.81743 
L 149.249509 98.81743 
L 149.249509 95.116872 
L 150.877122 95.116872 
L 150.877122 85.963799 
L 152.504735 85.963799 
L 152.504735 81.458771 
L 154.132348 81.458771 
L 154.132348 56.66324 
L 155.759961 56.66324 
L 155.759961 60.149274 
L 157.387574 60.149274 
L 157.387574 54.607374 
L 159.015187 54.607374 
L 159.015187 46.312402 
L 160.6428 46.312402 
L 160.6428 49.601788 
L 162.270413 49.601788 
L 162.270413 43.166034 
L 163.898026 43.166034 
L 163.898026 40.001788 
L 165.525639 40.001788 
L 165.525639 33.262123 
L 167.153252 33.262123 
L 167.153252 22.589497 
L 168.780865 22.589497 
L 168.780865 30.63419 
L 170.408478 30.63419 
L 170.408478 24.162682 
L 172.036091 24.162682 
L 172.036091 33.029721 
L 173.663704 33.029721 
L 173.663704 33.852067 
L 175.291317 33.852067 
L 175.291317 18.102346 
L 176.91893 18.102346 
L 176.91893 30.276648 
L 178.546543 30.276648 
L 178.546543 20.265475 
L 180.174156 20.265475 
L 180.174156 17.852067 
L 181.801769 17.852067 
L 181.801769 32.815196 
L 183.429382 32.815196 
L 183.429382 32.314637 
L 185.056995 32.314637 
L 185.056995 17.28 
L 186.684608 17.28 
L 186.684608 39.018547 
L 188.312221 39.018547 
L 188.312221 18.298994 
L 189.939834 18.298994 
L 189.939834 22.553743 
L 191.567447 22.553743 
L 191.567447 31.831955 
L 193.19506 31.831955 
L 193.19506 32.672179 
L 194.822673 32.672179 
L 194.822673 29.311285 
L 196.450286 29.311285 
L 196.450286 29.704581 
L 198.077899 29.704581 
L 198.077899 37.016313 
L 199.705512 37.016313 
L 199.705512 46.973855 
L 201.333125 46.973855 
L 201.333125 28.84648 
L 202.960738 28.84648 
L 202.960738 51.443128 
L 204.588352 51.443128 
L 204.588352 60.667709 
L 206.215965 60.667709 
L 206.215965 60.059888 
L 207.843578 60.059888 
L 207.843578 55.626369 
L 209.471191 55.626369 
L 209.471191 62.419665 
L 211.098804 62.419665 
L 211.098804 72.395084 
L 212.726417 72.395084 
L 212.726417 59.505698 
L 214.35403 59.505698 
L 214.35403 81.047598 
L 215.981643 81.047598 
L 215.981643 80.815196 
L 217.609256 80.815196 
L 217.609256 70.553743 
L 219.236869 70.553743 
L 219.236869 93.972737 
L 220.864482 93.972737 
L 220.864482 80.993966 
L 222.492095 80.993966 
L 222.492095 95.474413 
L 224.119708 95.474413 
L 224.119708 86.267709 
L 225.747321 86.267709 
L 225.747321 91.291173 
L 227.374934 91.291173 
L 227.374934 101.391732 
L 229.002547 101.391732 
L 229.002547 100.211844 
L 230.63016 100.211844 
L 230.63016 94.902346 
L 232.257773 94.902346 
L 232.257773 108.077765 
L 233.885386 108.077765 
L 233.885386 113.548156 
L 235.512999 113.548156 
L 235.512999 106.129162 
L 237.140612 106.129162 
L 237.140612 107.505698 
L 238.768225 107.505698 
L 238.768225 126.830838 
L 240.395838 126.830838 
L 240.395838 118.267709 
L 242.023451 118.267709 
L 242.023451 110.258771 
L 243.651064 110.258771 
L 243.651064 126.741453 
L 245.278677 126.741453 
L 245.278677 134.410726 
L 246.90629 134.410726 
L 246.90629 123.201788 
L 248.533903 123.201788 
L 248.533903 128.993966 
L 250.161516 128.993966 
L 250.161516 131.317989 
L 251.789129 131.317989 
L 251.789129 133.802905 
L 253.416742 133.802905 
L 253.416742 131.335866 
L 255.044355 131.335866 
L 255.044355 127.74257 
L 256.671968 127.74257 
L 256.671968 145.798436 
L 258.299581 145.798436 
L 258.299581 145.262123 
L 259.927194 145.262123 
L 259.927194 138.665475 
L 261.554808 138.665475 
L 261.554808 137.378324 
L 263.182421 137.378324 
L 263.182421 144.85095 
L 264.810034 144.85095 
L 264.810034 140.506816 
L 266.437647 140.506816 
L 266.437647 145.583911 
L 268.06526 145.583911 
L 268.06526 150.947039 
L 269.692873 150.947039 
L 269.692873 154.32581 
L 271.320486 154.32581 
L 271.320486 151.197318 
L 272.948099 151.197318 
L 272.948099 143.849832 
L 274.575712 143.849832 
L 274.575712 162.906816 
L 276.203325 162.906816 
L 276.203325 156.274413 
L 277.830938 156.274413 
L 277.830938 147.550391 
L 279.458551 147.550391 
L 279.458551 160.529162 
L 281.086164 160.529162 
L 281.086164 165.355978 
L 282.713777 165.355978 
L 282.713777 159.581676 
L 284.34139 159.581676 
L 284.34139 158.330279 
L 285.969003 158.330279 
L 285.969003 163.854302 
L 287.596616 163.854302 
L 287.596616 163.568268 
L 289.224229 163.568268 
L 289.224229 166.106816 
L 290.851842 166.106816 
L 290.851842 167.483352 
L 292.479455 167.483352 
L 292.479455 170.629721 
L 294.107068 170.629721 
L 294.107068 172.095642 
L 295.734681 172.095642 
L 295.734681 166.178324 
L 297.362294 166.178324 
L 297.362294 171.148156 
L 298.989907 171.148156 
L 298.989907 180.515754 
L 300.61752 180.515754 
L 300.61752 175.295642 
L 302.245133 175.295642 
L 302.245133 183.483352 
L 303.872746 183.483352 
L 303.872746 176.815196 
L 305.500359 176.815196 
L 305.500359 181.177207 
L 307.127972 181.177207 
L 307.127972 179.317989 
L 308.755585 179.317989 
L 308.755585 185.324693 
L 310.383198 185.324693 
L 310.383198 190.08 
L 312.010811 190.08 
L 312.010811 186.593966 
L 313.638424 186.593966 
L 313.638424 192.117989 
L 315.266037 192.117989 
L 315.266037 186.88 
L 316.89365 186.88 
L 316.89365 192.886704 
L 318.521264 192.886704 
L 318.521264 192.117989 
L 320.148877 192.117989 
L 320.148877 198.839777 
L 321.77649 198.839777 
L 321.77649 195.103464 
L 323.404103 195.103464 
L 323.404103 195.693408 
L 325.031716 195.693408 
L 325.031716 199.572737 
L 326.659329 199.572737 
L 326.659329 199.143687 
L 328.286942 199.143687 
L 328.286942 201.378324 
L 329.914555 201.378324 
L 329.914555 198.249832 
L 331.542168 198.249832 
L 331.542168 205.275531 
L 333.169781 205.275531 
L 333.169781 204.149274 
L 334.797394 204.149274 
L 334.797394 204.578324 
L 338.05262 204.54257 
L 338.05262 205.865475 
L 339.680233 205.865475 
L 339.680233 207.349274 
L 341.307846 207.349274 
L 341.307846 208.904581 
L 342.935459 208.904581 
L 342.935459 208.690056 
L 344.563072 208.690056 
L 344.563072 209.780559 
L 347.818298 209.780559 
L 347.818298 210.745922 
L 349.445911 210.745922 
L 349.445911 212.390615 
L 352.701137 212.319106 
L 352.701137 212.873296 
L 354.32875 212.873296 
L 354.32875 213.570503 
L 355.956363 213.570503 
L 355.956363 214.053184 
L 357.583976 214.053184 
L 357.583976 214.786145 
L 360.839202 214.732514 
L 360.839202 215.948156 
L 362.466815 215.948156 
L 362.466815 216.627486 
L 364.094428 216.627486 
L 364.094428 217.074413 
L 367.349654 217.038659 
L 367.349654 217.306816 
L 368.977267 217.306816 
L 368.977267 217.914637 
L 370.60488 217.914637 
L 370.60488 218.147039 
L 372.232493 218.147039 
L 372.232493 218.540335 
L 375.48772 218.576089 
L 375.48772 218.808492 
L 377.115333 218.808492 
L 377.115333 218.808492 
" clip-path="url(#pe8d7493cc0)" style="fill: none; stroke: #1f77b4; stroke-width: 1.5; stroke-linecap: square"/>
   </g>
   <g id="line2d_14">
    <path d="M 77.634535 218.844246 
L 85.7726 218.736983 
L 85.7726 218.576089 
L 87.400213 218.576089 
L 87.400213 218.719106 
L 89.027826 218.719106 
L 89.027826 218.504581 
L 90.65544 218.504581 
L 90.65544 218.379441 
L 93.910666 218.397318 
L 93.910666 217.986145 
L 95.538279 217.986145 
L 95.538279 218.182793 
L 97.165892 218.182793 
L 97.165892 217.825251 
L 98.793505 217.825251 
L 98.793505 217.574972 
L 100.421118 217.574972 
L 100.421118 217.986145 
L 102.048731 217.986145 
L 102.048731 217.539218 
L 103.676344 217.539218 
L 103.676344 216.842011 
L 105.303957 216.842011 
L 105.303957 216.555978 
L 108.559183 216.466592 
L 108.559183 216.144804 
L 110.186796 216.144804 
L 110.186796 215.143687 
L 111.814409 215.143687 
L 111.814409 213.963799 
L 113.442022 213.963799 
L 113.442022 213.58838 
L 115.069635 213.58838 
L 115.069635 212.712402 
L 116.697248 212.712402 
L 116.697248 210.745922 
L 118.324861 210.745922 
L 118.324861 208.493408 
L 119.952474 208.493408 
L 119.952474 207.206257 
L 121.580087 207.206257 
L 121.580087 205.418547 
L 123.2077 205.418547 
L 123.2077 199.662123 
L 124.835313 199.662123 
L 124.835313 197.373855 
L 126.462926 197.373855 
L 126.462926 194.048715 
L 128.090539 194.048715 
L 128.090539 186.558212 
L 129.718152 186.558212 
L 129.718152 184.162682 
L 131.345765 184.162682 
L 131.345765 174.991732 
L 132.973378 174.991732 
L 132.973378 169.163799 
L 134.600991 169.163799 
L 134.600991 160.278883 
L 136.228604 160.278883 
L 136.228604 161.28 
L 137.856217 161.28 
L 137.856217 148.35486 
L 139.48383 148.35486 
L 139.48383 145.262123 
L 141.111443 145.262123 
L 141.111443 131.317989 
L 142.739056 131.317989 
L 142.739056 126.795084 
L 144.366669 126.795084 
L 144.366669 120.35933 
L 145.994282 120.35933 
L 145.994282 104.752626 
L 147.621896 104.752626 
L 147.621896 100.265475 
L 149.249509 100.265475 
L 149.249509 95.045363 
L 150.877122 95.045363 
L 150.877122 83.014078 
L 152.504735 83.014078 
L 152.504735 73.753743 
L 154.132348 73.753743 
L 154.132348 67.532514 
L 155.759961 67.532514 
L 155.759961 54.178324 
L 157.387574 54.178324 
L 157.387574 56.144804 
L 159.015187 56.144804 
L 159.015187 48.386145 
L 160.6428 48.386145 
L 160.6428 42.736983 
L 162.270413 42.736983 
L 162.270413 46.008492 
L 163.898026 46.008492 
L 163.898026 41.986145 
L 165.525639 41.986145 
L 165.525639 31.992849 
L 167.153252 31.992849 
L 167.153252 22.500112 
L 168.780865 22.500112 
L 168.780865 32.743687 
L 170.408478 32.743687 
L 170.408478 30.151508 
L 172.036091 30.151508 
L 172.036091 29.078883 
L 173.663704 29.078883 
L 173.663704 27.755978 
L 175.291317 27.755978 
L 175.291317 25.789497 
L 176.91893 25.789497 
L 176.91893 23.823017 
L 178.546543 23.823017 
L 178.546543 27.755978 
L 180.174156 27.755978 
L 180.174156 20.891173 
L 181.801769 20.891173 
L 181.801769 27.970503 
L 183.429382 27.970503 
L 183.429382 21.320223 
L 185.056995 21.320223 
L 185.056995 37.248715 
L 186.684608 37.248715 
L 186.684608 20.301229 
L 188.312221 20.301229 
L 188.312221 27.237542 
L 189.939834 27.237542 
L 189.939834 25.360447 
L 191.567447 25.360447 
L 191.567447 35.37162 
L 193.19506 35.37162 
L 193.19506 33.762682 
L 194.822673 33.762682 
L 194.822673 28.149274 
L 196.450286 28.149274 
L 196.450286 36.426369 
L 198.077899 36.426369 
L 198.077899 31.206257 
L 199.705512 31.206257 
L 199.705512 47.974972 
L 201.333125 47.974972 
L 201.333125 33.494525 
L 202.960738 33.494525 
L 202.960738 46.795084 
L 204.588352 46.795084 
L 204.588352 59.595084 
L 206.215965 59.595084 
L 206.215965 65.619665 
L 207.843578 65.619665 
L 207.843578 49.70905 
L 209.471191 49.70905 
L 209.471191 63.06324 
L 211.098804 63.06324 
L 211.098804 64.368268 
L 212.726417 64.368268 
L 212.726417 75.040894 
L 214.35403 75.040894 
L 214.35403 84.086704 
L 215.981643 84.086704 
L 215.981643 70.482235 
L 217.609256 70.482235 
L 217.609256 81.70905 
L 219.236869 81.70905 
L 219.236869 83.210726 
L 220.864482 83.210726 
L 220.864482 87.68 
L 222.492095 87.68 
L 222.492095 80.904581 
L 224.119708 80.904581 
L 224.119708 102.428603 
L 225.747321 102.428603 
L 225.747321 84.658771 
L 227.374934 84.658771 
L 227.374934 99.550391 
L 229.002547 99.550391 
L 229.002547 102.482235 
L 230.63016 102.482235 
L 230.63016 102.035307 
L 232.257773 102.035307 
L 232.257773 102.357095 
L 233.885386 102.357095 
L 233.885386 107.219665 
L 235.512999 107.219665 
L 235.512999 114.155978 
L 237.140612 114.155978 
L 237.140612 116.998436 
L 238.768225 116.998436 
L 238.768225 108.810726 
L 240.395838 108.810726 
L 240.395838 118.714637 
L 242.023451 118.714637 
L 242.023451 116.122458 
L 243.651064 116.122458 
L 243.651064 122.593966 
L 245.278677 122.593966 
L 245.278677 129.262123 
L 246.90629 129.262123 
L 246.90629 131.407374 
L 248.533903 131.407374 
L 248.533903 128.690056 
L 250.161516 128.690056 
L 250.161516 135.304581 
L 251.789129 135.304581 
L 251.789129 123.612961 
L 253.416742 123.612961 
L 253.416742 132.515754 
L 255.044355 132.515754 
L 255.044355 136.23419 
L 256.671968 136.23419 
L 256.671968 134.982793 
L 258.299581 134.982793 
L 258.299581 147.192849 
L 259.927194 147.192849 
L 259.927194 140.578324 
L 261.554808 140.578324 
L 261.554808 145.119106 
L 263.182421 145.119106 
L 263.182421 139.094525 
L 264.810034 139.094525 
L 264.810034 140.97162 
L 266.437647 140.97162 
L 266.437647 143.170503 
L 268.06526 143.170503 
L 268.06526 149.767151 
L 269.692873 149.767151 
L 269.692873 153.807374 
L 271.320486 153.807374 
L 271.320486 149.177207 
L 272.948099 149.177207 
L 272.948099 156.739218 
L 274.575712 156.739218 
L 274.575712 153.932514 
L 276.203325 153.932514 
L 276.203325 153.181676 
L 277.830938 153.181676 
L 277.830938 163.407374 
L 279.458551 163.407374 
L 279.458551 148.998436 
L 281.086164 148.998436 
L 281.086164 158.348156 
L 282.713777 158.348156 
L 282.713777 165.910168 
L 284.34139 165.910168 
L 284.34139 160.189497 
L 285.969003 160.189497 
L 285.969003 162.245363 
L 287.596616 162.245363 
L 287.596616 161.905698 
L 289.224229 161.905698 
L 289.224229 174.866592 
L 290.851842 174.866592 
L 290.851842 163.157095 
L 292.479455 163.157095 
L 292.479455 171.326927 
L 294.107068 171.326927 
L 294.107068 165.677765 
L 295.734681 165.677765 
L 295.734681 171.827486 
L 297.362294 171.827486 
L 297.362294 175.420782 
L 298.989907 175.420782 
L 298.989907 172.882235 
L 300.61752 172.882235 
L 300.61752 177.977207 
L 302.245133 177.977207 
L 302.245133 176.529162 
L 303.872746 176.529162 
L 303.872746 184.806257 
L 305.500359 184.806257 
L 305.500359 179.782793 
L 307.127972 179.782793 
L 307.127972 180.193966 
L 308.755585 180.193966 
L 308.755585 185.950391 
L 310.383198 185.950391 
L 310.383198 184.877765 
L 312.010811 184.877765 
L 312.010811 190.741453 
L 313.638424 190.741453 
L 313.638424 187.505698 
L 315.266037 187.505698 
L 315.266037 191.259888 
L 316.89365 191.259888 
L 316.89365 189.257654 
L 318.521264 189.257654 
L 318.521264 194.549274 
L 320.148877 194.549274 
L 320.148877 196.426369 
L 321.77649 196.426369 
L 321.77649 197.71352 
L 323.404103 197.71352 
L 323.404103 195.568268 
L 325.031716 195.568268 
L 325.031716 197.606257 
L 326.659329 197.606257 
L 326.659329 199.983911 
L 328.286942 199.983911 
L 328.286942 201.574972 
L 329.914555 201.574972 
L 329.914555 199.983911 
L 331.542168 199.983911 
L 331.542168 203.916872 
L 333.169781 203.916872 
L 333.169781 202.004022 
L 334.797394 202.004022 
L 334.797394 205.919106 
L 336.425007 205.919106 
L 336.425007 205.454302 
L 338.05262 205.454302 
L 338.05262 204.721341 
L 339.680233 204.721341 
L 339.680233 207.814078 
L 341.307846 207.814078 
L 341.307846 208.404022 
L 342.935459 208.404022 
L 342.935459 208.028603 
L 344.563072 208.028603 
L 344.563072 209.566034 
L 346.190685 209.566034 
L 346.190685 209.798436 
L 347.818298 209.798436 
L 347.818298 211.282235 
L 349.445911 211.282235 
L 349.445911 211.621899 
L 351.073524 211.621899 
L 351.073524 212.783911 
L 352.701137 212.783911 
L 352.701137 213.15933 
L 354.32875 213.15933 
L 354.32875 213.373855 
L 355.956363 213.373855 
L 355.956363 214.214078 
L 357.583976 214.214078 
L 357.583976 214.410726 
L 359.211589 214.410726 
L 359.211589 215.12581 
L 360.839202 215.12581 
L 360.839202 216.001788 
L 362.466815 216.001788 
L 362.466815 216.395084 
L 364.094428 216.395084 
L 364.094428 217.038659 
L 367.349654 216.949274 
L 367.349654 217.396201 
L 368.977267 217.396201 
L 368.977267 217.861006 
L 370.60488 217.861006 
L 370.60488 218.147039 
L 372.232493 218.147039 
L 372.232493 218.486704 
L 373.860106 218.486704 
L 373.860106 218.647598 
L 375.48772 218.647598 
L 375.48772 218.88 
L 377.115333 218.88 
L 377.115333 218.88 
" clip-path="url(#pe8d7493cc0)" style="fill: none; stroke: #ff7f0e; stroke-width: 1.5; stroke-linecap: square"/>
   </g>
   <g id="line2d_15">
    <path d="M 74.908807 218.826369 
L 86.302098 218.736983 
L 86.302098 218.611844 
L 89.557324 218.576089 
L 89.557324 218.415196 
L 92.81255 218.468827 
L 92.81255 218.20067 
L 97.695389 218.093408 
L 97.695389 217.789497 
L 102.578228 217.700112 
L 102.578228 217.414078 
L 104.205841 217.414078 
L 104.205841 216.752626 
L 107.461067 216.78838 
L 107.461067 216.323575 
L 109.08868 216.323575 
L 109.08868 215.662123 
L 110.716293 215.662123 
L 110.716293 214.625251 
L 112.343906 214.625251 
L 112.343906 214.14257 
L 113.97152 214.14257 
L 113.97152 212.712402 
L 115.599133 212.712402 
L 115.599133 211.943687 
L 117.226746 211.943687 
L 117.226746 210.763799 
L 118.854359 210.763799 
L 118.854359 207.957095 
L 120.481972 207.957095 
L 120.481972 206.401788 
L 122.109585 206.401788 
L 122.109585 203.130279 
L 123.737198 203.130279 
L 123.737198 199.876648 
L 125.364811 199.876648 
L 125.364811 195.943687 
L 126.992424 195.943687 
L 126.992424 191.545922 
L 128.620037 191.545922 
L 128.620037 185.449832 
L 130.24765 185.449832 
L 130.24765 180.122458 
L 131.875263 180.122458 
L 131.875263 174.884469 
L 133.502876 174.884469 
L 133.502876 166.607374 
L 135.130489 166.607374 
L 135.130489 160.404022 
L 136.758102 160.404022 
L 136.758102 155.398436 
L 138.385715 155.398436 
L 138.385715 146.960447 
L 140.013328 146.960447 
L 140.013328 141.436425 
L 141.640941 141.436425 
L 141.640941 130.316872 
L 143.268554 130.316872 
L 143.268554 122.433073 
L 144.896167 122.433073 
L 144.896167 114.26324 
L 146.52378 114.26324 
L 146.52378 104.395084 
L 148.151393 104.395084 
L 148.151393 99.532514 
L 149.779006 99.532514 
L 149.779006 90.951508 
L 151.406619 90.951508 
L 151.406619 82.424134 
L 153.034232 82.424134 
L 153.034232 70.517989 
L 154.661845 70.517989 
L 154.661845 61.418547 
L 156.289458 61.418547 
L 156.289458 52.640894 
L 157.917071 52.640894 
L 157.917071 53.892291 
L 159.544684 53.892291 
L 159.544684 48.17162 
L 161.172297 48.17162 
L 161.172297 46.062123 
L 162.79991 46.062123 
L 162.79991 40.573855 
L 164.427523 40.573855 
L 164.427523 33.762682 
L 166.055136 33.762682 
L 166.055136 29.722458 
L 167.682749 29.722458 
L 167.682749 33.816313 
L 169.310362 33.816313 
L 169.310362 30.401788 
L 170.937976 30.401788 
L 170.937976 30.258771 
L 172.565589 30.258771 
L 172.565589 25.521341 
L 174.193202 25.521341 
L 174.193202 25.950391 
L 175.820815 25.950391 
L 175.820815 28.274413 
L 177.448428 28.274413 
L 177.448428 23.483352 
L 179.076041 23.483352 
L 179.076041 25.288939 
L 180.703654 25.288939 
L 180.703654 24.985028 
L 182.331267 24.985028 
L 182.331267 28.54257 
L 183.95888 28.54257 
L 183.95888 25.628603 
L 185.586493 25.628603 
L 185.586493 27.684469 
L 187.214106 27.684469 
L 187.214106 22.607374 
L 188.841719 22.607374 
L 188.841719 27.398436 
L 190.469332 27.398436 
L 190.469332 30.383911 
L 192.096945 30.383911 
L 192.096945 33.744804 
L 193.724558 33.744804 
L 193.724558 34.710168 
L 195.352171 34.710168 
L 195.352171 34.102346 
L 196.979784 34.102346 
L 196.979784 36.462123 
L 198.607397 36.462123 
L 198.607397 35.532514 
L 200.23501 35.532514 
L 200.23501 40.770503 
L 201.862623 40.770503 
L 201.862623 44.11352 
L 203.490236 44.11352 
L 203.490236 49.70905 
L 205.117849 49.70905 
L 205.117849 57.682235 
L 206.745462 57.682235 
L 206.745462 59.469944 
L 208.373075 59.469944 
L 208.373075 56.698994 
L 210.000688 56.698994 
L 210.000688 63.18838 
L 211.628301 63.18838 
L 211.628301 70.44648 
L 213.255914 70.44648 
L 213.255914 73.306816 
L 214.883527 73.306816 
L 214.883527 76.185028 
L 216.51114 76.185028 
L 216.51114 79.259888 
L 218.138753 79.259888 
L 218.138753 83.139218 
L 219.766366 83.139218 
L 219.766366 82.94257 
L 221.393979 82.94257 
L 221.393979 82.51352 
L 223.021592 82.51352 
L 223.021592 90.039777 
L 224.649205 90.039777 
L 224.649205 91.55933 
L 226.276818 91.55933 
L 226.276818 96.690056 
L 227.904432 96.690056 
L 227.904432 100.587263 
L 229.532045 100.587263 
L 229.532045 100.462123 
L 231.159658 100.462123 
L 231.159658 102.44648 
L 232.787271 102.44648 
L 232.787271 105.503464 
L 234.414884 105.503464 
L 234.414884 109.436425 
L 236.042497 109.436425 
L 236.042497 112.761564 
L 237.67011 112.761564 
L 237.67011 113.315754 
L 239.297723 113.315754 
L 239.297723 116.086704 
L 240.925336 116.086704 
L 240.925336 117.248715 
L 242.552949 117.248715 
L 242.552949 120.091173 
L 244.180562 120.091173 
L 244.180562 123.112402 
L 245.808175 123.112402 
L 245.808175 126.884469 
L 247.435788 126.884469 
L 247.435788 127.528045 
L 249.063401 127.528045 
L 249.063401 130.799553 
L 252.318627 130.888939 
L 252.318627 132.587263 
L 255.573853 132.60514 
L 255.573853 138.540335 
L 257.201466 138.540335 
L 257.201466 137.825251 
L 258.829079 137.825251 
L 258.829079 140.774972 
L 260.456692 140.774972 
L 260.456692 139.469944 
L 262.084305 139.469944 
L 262.084305 141.40067 
L 263.711918 141.40067 
L 263.711918 142.526927 
L 265.339531 142.526927 
L 265.339531 144.475531 
L 266.967144 144.475531 
L 266.967144 147.693408 
L 268.594757 147.693408 
L 268.594757 149.570503 
L 270.22237 149.570503 
L 270.22237 152.484469 
L 273.477596 152.538101 
L 273.477596 151.80514 
L 275.105209 151.80514 
L 275.105209 154.504581 
L 276.732822 154.504581 
L 276.732822 155.469944 
L 278.360435 155.469944 
L 278.360435 157.972737 
L 279.988048 157.972737 
L 279.988048 159.992849 
L 281.615661 159.992849 
L 281.615661 160.475531 
L 284.870888 160.529162 
L 284.870888 162.281117 
L 286.498501 162.281117 
L 286.498501 163.192849 
L 288.126114 163.192849 
L 288.126114 165.624134 
L 289.753727 165.624134 
L 289.753727 166.589497 
L 291.38134 166.589497 
L 291.38134 168.877765 
L 293.008953 168.877765 
L 293.008953 167.769385 
L 294.636566 167.769385 
L 294.636566 169.682235 
L 296.264179 169.682235 
L 296.264179 171.738101 
L 297.891792 171.738101 
L 297.891792 174.955978 
L 301.147018 175.027486 
L 301.147018 177.726927 
L 302.774631 177.726927 
L 302.774631 179.693408 
L 304.402244 179.693408 
L 304.402244 180.497877 
L 306.029857 180.497877 
L 306.029857 181.141453 
L 307.65747 181.141453 
L 307.65747 183.340335 
L 309.285083 183.340335 
L 309.285083 184.681117 
L 310.912696 184.681117 
L 310.912696 187.541453 
L 312.540309 187.541453 
L 312.540309 189.472179 
L 314.167922 189.472179 
L 314.167922 189.132514 
L 315.795535 189.132514 
L 315.795535 189.579441 
L 317.423148 189.579441 
L 317.423148 191.671061 
L 319.050761 191.671061 
L 319.050761 194.656536 
L 320.678374 194.656536 
L 320.678374 194.888939 
L 322.305987 194.888939 
L 322.305987 196.372737 
L 323.9336 196.372737 
L 323.9336 198.392849 
L 325.561213 198.392849 
L 325.561213 198.57162 
L 327.188826 198.57162 
L 327.188826 198.768268 
L 328.816439 198.768268 
L 328.816439 201.002905 
L 330.444052 201.002905 
L 330.444052 202.433073 
L 332.071665 202.433073 
L 332.071665 203.130279 
L 333.699278 203.130279 
L 333.699278 204.506816 
L 336.954504 204.578324 
L 336.954504 205.061006 
L 338.582117 205.061006 
L 338.582117 205.740335 
L 340.20973 205.740335 
L 340.20973 207.18838 
L 341.837344 207.18838 
L 341.837344 208.350391 
L 343.464957 208.350391 
L 343.464957 208.886704 
L 345.09257 208.886704 
L 345.09257 209.566034 
L 346.720183 209.566034 
L 346.720183 210.710168 
L 348.347796 210.710168 
L 348.347796 210.835307 
L 349.975409 210.835307 
L 349.975409 212.158212 
L 351.603022 212.158212 
L 351.603022 212.60514 
L 353.230635 212.60514 
L 353.230635 213.087821 
L 354.858248 213.087821 
L 354.858248 213.945922 
L 356.485861 213.945922 
L 356.485861 214.357095 
L 358.113474 214.357095 
L 358.113474 214.732514 
L 359.741087 214.732514 
L 359.741087 215.286704 
L 361.3687 215.286704 
L 361.3687 216.073296 
L 362.996313 216.073296 
L 362.996313 216.842011 
L 366.251539 216.895642 
L 366.251539 217.020782 
L 367.879152 217.020782 
L 367.879152 217.539218 
L 369.506765 217.539218 
L 369.506765 218.075531 
L 371.134378 218.075531 
L 371.134378 218.236425 
L 372.761991 218.236425 
L 372.761991 218.504581 
L 374.389604 218.504581 
L 374.389604 218.647598 
L 376.017217 218.647598 
L 376.017217 218.826369 
L 379.272443 218.844246 
L 379.272443 218.844246 
" clip-path="url(#pe8d7493cc0)" style="fill: none; stroke: #2ca02c; stroke-width: 1.5; stroke-linecap: square"/>
   </g>
   <g id="patch_3">
    <path d="M 59.690625 228.96 
L 59.690625 7.2 
" style="fill: none; stroke: #000000; stroke-width: 0.8; stroke-linejoin: miter; stroke-linecap: square"/>
   </g>
   <g id="patch_4">
    <path d="M 394.490625 228.96 
L 394.490625 7.2 
" style="fill: none; stroke: #000000; stroke-width: 0.8; stroke-linejoin: miter; stroke-linecap: square"/>
   </g>
   <g id="patch_5">
    <path d="M 59.690625 228.96 
L 394.490625 228.96 
" style="fill: none; stroke: #000000; stroke-width: 0.8; stroke-linejoin: miter; stroke-linecap: square"/>
   </g>
   <g id="patch_6">
    <path d="M 59.690625 7.2 
L 394.490625 7.2 
" style="fill: none; stroke: #000000; stroke-width: 0.8; stroke-linejoin: miter; stroke-linecap: square"/>
   </g>
   <g id="legend_1">
    <g id="patch_7">
     <path d="M 313.267188 59.234375 
L 387.490625 59.234375 
Q 389.490625 59.234375 389.490625 57.234375 
L 389.490625 14.2 
Q 389.490625 12.2 387.490625 12.2 
L 313.267188 12.2 
Q 311.267188 12.2 311.267188 14.2 
L 311.267188 57.234375 
Q 311.267188 59.234375 313.267188 59.234375 
z
" style="fill: #ffffff; opacity: 0.8; stroke: #cccccc; stroke-linejoin: miter"/>
    </g>
    <g id="line2d_16">
     <path d="M 315.267188 20.298438 
L 315.267188 20.298438 
L 325.267188 20.298438 
L 325.267188 20.298438 
L 335.267188 20.298438 
" style="fill: none; stroke: #1f77b4; stroke-width: 1.5; stroke-linecap: square"/>
    </g>
    <g id="text_15">
     <!-- monitor -->
     <g transform="translate(343.267188 23.798438) scale(0.1 -0.1)">
      <defs>
       <path id="DejaVuSans-6d" d="M 3328 2828 
Q 3544 3216 3844 3400 
Q 4144 3584 4550 3584 
Q 5097 3584 5394 3201 
Q 5691 2819 5691 2113 
L 5691 0 
L 5113 0 
L 5113 2094 
Q 5113 2597 4934 2840 
Q 4756 3084 4391 3084 
Q 3944 3084 3684 2787 
Q 3425 2491 3425 1978 
L 3425 0 
L 2847 0 
L 2847 2094 
Q 2847 2600 2669 2842 
Q 2491 3084 2119 3084 
Q 1678 3084 1418 2786 
Q 1159 2488 1159 1978 
L 1159 0 
L 581 0 
L 581 3500 
L 1159 3500 
L 1159 2956 
Q 1356 3278 1631 3431 
Q 1906 3584 2284 3584 
Q 2666 3584 2933 3390 
Q 3200 3197 3328 2828 
z
" transform="scale(0.015625)"/>
       <path id="DejaVuSans-69" d="M 603 3500 
L 1178 3500 
L 1178 0 
L 603 0 
L 603 3500 
z
M 603 4863 
L 1178 4863 
L 1178 4134 
L 603 4134 
L 603 4863 
z
" transform="scale(0.015625)"/>
       <path id="DejaVuSans-72" d="M 2631 2963 
Q 2534 3019 2420 3045 
Q 2306 3072 2169 3072 
Q 1681 3072 1420 2755 
Q 1159 2438 1159 1844 
L 1159 0 
L 581 0 
L 581 3500 
L 1159 3500 
L 1159 2956 
Q 1341 3275 1631 3429 
Q 1922 3584 2338 3584 
Q 2397 3584 2469 3576 
Q 2541 3569 2628 3553 
L 2631 2963 
z
" transform="scale(0.015625)"/>
      </defs>
      <use xlink:href="#DejaVuSans-6d"/>
      <use xlink:href="#DejaVuSans-6f" transform="translate(97.412109 0)"/>
      <use xlink:href="#DejaVuSans-6e" transform="translate(158.59375 0)"/>
      <use xlink:href="#DejaVuSans-69" transform="translate(221.972656 0)"/>
      <use xlink:href="#DejaVuSans-74" transform="translate(249.755859 0)"/>
      <use xlink:href="#DejaVuSans-6f" transform="translate(288.964844 0)"/>
      <use xlink:href="#DejaVuSans-72" transform="translate(350.146484 0)"/>
     </g>
    </g>
    <g id="line2d_17">
     <path d="M 315.267188 34.976562 
L 315.267188 34.976562 
L 325.267188 34.976562 
L 325.267188 34.976562 
L 335.267188 34.976562 
" style="fill: none; stroke: #ff7f0e; stroke-width: 1.5; stroke-linecap: square"/>
    </g>
    <g id="text_16">
     <!-- detector -->
     <g transform="translate(343.267188 38.476562) scale(0.1 -0.1)">
      <defs>
       <path id="DejaVuSans-64" d="M 2906 2969 
L 2906 4863 
L 3481 4863 
L 3481 0 
L 2906 0 
L 2906 525 
Q 2725 213 2448 61 
Q 2172 -91 1784 -91 
Q 1150 -91 751 415 
Q 353 922 353 1747 
Q 353 2572 751 3078 
Q 1150 3584 1784 3584 
Q 2172 3584 2448 3432 
Q 2725 3281 2906 2969 
z
M 947 1747 
Q 947 1113 1208 752 
Q 1469 391 1925 391 
Q 2381 391 2643 752 
Q 2906 1113 2906 1747 
Q 2906 2381 2643 2742 
Q 2381 3103 1925 3103 
Q 1469 3103 1208 2742 
Q 947 2381 947 1747 
z
" transform="scale(0.015625)"/>
      </defs>
      <use xlink:href="#DejaVuSans-64"/>
      <use xlink:href="#DejaVuSans-65" transform="translate(63.476562 0)"/>
      <use xlink:href="#DejaVuSans-74" transform="translate(125 0)"/>
      <use xlink:href="#DejaVuSans-65" transform="translate(164.208984 0)"/>
      <use xlink:href="#DejaVuSans-63" transform="translate(225.732422 0)"/>
      <use xlink:href="#DejaVuSans-74" transform="translate(280.712891 0)"/>
      <use xlink:href="#DejaVuSans-6f" transform="translate(319.921875 0)"/>
      <use xlink:href="#DejaVuSans-72" transform="translate(381.103516 0)"/>
     </g>
    </g>
    <g id="line2d_18">
     <path d="M 315.267188 49.654688 
L 315.267188 49.654688 
L 325.267188 49.654688 
L 325.267188 49.654688 
L 335.267188 49.654688 
" style="fill: none; stroke: #2ca02c; stroke-width: 1.5; stroke-linecap: square"/>
    </g>
    <g id="text_17">
     <!-- true -->
     <g transform="translate(343.267188 53.154688) scale(0.1 -0.1)">
      <use xlink:href="#DejaVuSans-74"/>
      <use xlink:href="#DejaVuSans-72" transform="translate(39.208984 0)"/>
      <use xlink:href="#DejaVuSans-75" transform="translate(80.322266 0)"/>
      <use xlink:href="#DejaVuSans-65" transform="translate(143.701172 0)"/>
     </g>
    </g>
   </g>
  </g>
 </g>
 <defs>
  <clipPath id="pe8d7493cc0">
   <rect x="59.690625" y="7.2" width="334.8" height="221.76"/>
  </clipPath>
 </defs>
</svg>
