<?xml version="1.0" encoding="utf-8" standalone="no"?>
<!DOCTYPE svg PUBLIC "-//W3C//DTD SVG 1.1//EN"
  "http://www.w3.org/Graphics/SVG/1.1/DTD/svg11.dtd">
<svg xmlns:xlink="http://www.w3.org/1999/xlink" width="388.965625pt" height="266.794375pt" viewBox="0 0 388.965625 266.794375" xmlns="http://www.w3.org/2000/svg" version="1.1">
 <metadata>
  <rdf:RDF xmlns:dc="http://purl.org/dc/elements/1.1/" xmlns:cc="http://creativecommons.org/ns#" xmlns:rdf="http://www.w3.org/1999/02/22-rdf-syntax-ns#">
   <cc:Work>
    <dc:type rdf:resource="http://purl.org/dc/dcmitype/StillImage"/>
    <dc:date>2026-05-27T14:57:09.107394</dc:date>
    <dc:format>image/svg+xml</dc:format>
    <dc:creator>
     <cc:Agent>
      <dc:title>Matplotlib v3.10.9, https://matplotlib.org/</dc:title>
     </cc:Agent>
    </dc:creator>
   </cc:Work>
  </rdf:RDF>
 </metadata>
 <defs>
  <style type="text/css">*{stroke-linejoin: round; stroke-linecap: butt}</style>
 </defs>
 <g id="figure_1">
  <g id="patch_1">
   <path d="M 0 266.794375 
L 388.965625 266.794375 
L 388.965625 0 
L 0 0 
z
" style="fill: #ffffff"/>
  </g>
  <g id="axes_1">
   <g id="patch_2">
    <path d="M 46.965625 228.96 
L 381.765625 228.96 
L 381.765625 7.2 
L 46.965625 7.2 
z
" style="fill: #ffffff"/>
   </g>
   <g id="matplotlib.axis_1">
    <g id="xtick_1">
     <g id="line2d_1">
      <defs>
       <path id="mb162a2ccc6" d="M 0 0 
L 0 3.5 
" style="stroke: #000000; stroke-width: 0.8"/>
      </defs>
      <g>
       <use xlink:href="#mb162a2ccc6" x="62.183456" y="228.96" style="stroke: #000000; stroke-width: 0.8"/>
      </g>
     </g>
     <g id="text_1">
      <!-- 0 -->
      <g transform="translate(59.002206 243.558437) scale(0.1 -0.1)">
       <defs>
        <path id="DejaVuSans-30" d="M 2034 4250 
Q 1547 4250 1301 3770 
Q 1056 3291 1056 2328 
Q 1056 1369 1301 889 
Q 1547 409 2034 409 
Q 2525 409 2770 889 
Q 3016 1369 3016 2328 
Q 3016 3291 2770 3770 
Q 2525 4250 2034 4250 
z
M 2034 4750 
Q 2819 4750 3233 4129 
Q 3647 3509 3647 2328 
Q 3647 1150 3233 529 
Q 2819 -91 2034 -91 
Q 1250 -91 836 529 
Q 422 1150 422 2328 
Q 422 3509 836 4129 
Q 1250 4750 2034 4750 
z
" transform="scale(0.015625)"/>
       </defs>
       <use xlink:href="#DejaVuSans-30"/>
      </g>
     </g>
    </g>
    <g id="xtick_2">
     <g id="line2d_2">
      <g>
       <use xlink:href="#mb162a2ccc6" x="104.794518" y="228.96" style="stroke: #000000; stroke-width: 0.8"/>
      </g>
     </g>
     <g id="text_2">
      <!-- 10000 -->
      <g transform="translate(88.888268 243.558437) scale(0.1 -0.1)">
       <defs>
        <path id="DejaVuSans-31" d="M 794 531 
L 1825 531 
L 1825 4091 
L 703 3866 
L 703 4441 
L 1819 4666 
L 2450 4666 
L 2450 531 
L 3481 531 
L 3481 0 
L 794 0 
L 794 531 
z
" transform="scale(0.015625)"/>
       </defs>
       <use xlink:href="#DejaVuSans-31"/>
       <use xlink:href="#DejaVuSans-30" transform="translate(63.623047 0)"/>
       <use xlink:href="#DejaVuSans-30" transform="translate(127.246094 0)"/>
       <use xlink:href="#DejaVuSans-30" transform="translate(190.869141 0)"/>
       <use xlink:href="#DejaVuSans-30" transform="translate(254.492188 0)"/>
      </g>
     </g>
    </g>
    <g id="xtick_3">
     <g id="line2d_3">
      <g>
       <use xlink:href="#mb162a2ccc6" x="147.40558" y="228.96" style="stroke: #000000; stroke-width: 0.8"/>
      </g>
     </g>
     <g id="text_3">
      <!-- 20000 -->
      <g transform="translate(131.49933 243.558437) scale(0.1 -0.1)">
       <defs>
        <path id="DejaVuSans-32" d="M 1228 531 
L 3431 531 
L 3431 0 
L 469 0 
L 469 531 
Q 828 903 1448 1529 
Q 2069 2156 2228 2338 
Q 2531 2678 2651 2914 
Q 2772 3150 2772 3378 
Q 2772 3750 2511 3984 
Q 2250 4219 1831 4219 
Q 1534 4219 1204 4116 
Q 875 4013 500 3803 
L 500 4441 
Q 881 4594 1212 4672 
Q 1544 4750 1819 4750 
Q 2544 4750 2975 4387 
Q 3406 4025 3406 3419 
Q 3406 3131 3298 2873 
Q 3191 2616 2906 2266 
Q 2828 2175 2409 1742 
Q 1991 1309 1228 531 
z
" transform="scale(0.015625)"/>
       </defs>
       <use xlink:href="#DejaVuSans-32"/>
       <use xlink:href="#DejaVuSans-30" transform="translate(63.623047 0)"/>
       <use xlink:href="#DejaVuSans-30" transform="translate(127.246094 0)"/>
       <use xlink:href="#DejaVuSans-30" transform="translate(190.869141 0)"/>
       <use xlink:href="#DejaVuSans-30" transform="translate(254.492188 0)"/>
      </g>
     </g>
    </g>
    <g id="xtick_4">
     <g id="line2d_4">
      <g>
       <use xlink:href="#mb162a2ccc6" x="190.016643" y="228.96" style="stroke: #000000; stroke-width: 0.8"/>
      </g>
     </g>
     <g id="text_4">
      <!-- 30000 -->
      <g transform="translate(174.110393 243.558437) scale(0.1 -0.1)">
       <defs>
        <path id="DejaVuSans-33" d="M 2597 2516 
Q 3050 2419 3304 2112 
Q 3559 1806 3559 1356 
Q 3559 666 3084 287 
Q 2609 -91 1734 -91 
Q 1441 -91 1130 -33 
Q 819 25 488 141 
L 488 750 
Q 750 597 1062 519 
Q 1375 441 1716 441 
Q 2309 441 2620 675 
Q 2931 909 2931 1356 
Q 2931 1769 2642 2001 
Q 2353 2234 1838 2234 
L 1294 2234 
L 1294 2753 
L 1863 2753 
Q 2328 2753 2575 2939 
Q 2822 3125 2822 3475 
Q 2822 3834 2567 4026 
Q 2313 4219 1838 4219 
Q 1578 4219 1281 4162 
Q 984 4106 628 3988 
L 628 4550 
Q 988 4650 1302 4700 
Q 1616 4750 1894 4750 
Q 2613 4750 3031 4423 
Q 3450 4097 3450 3541 
Q 3450 3153 3228 2886 
Q 3006 2619 2597 2516 
z
" transform="scale(0.015625)"/>
       </defs>
       <use xlink:href="#DejaVuSans-33"/>
       <use xlink:href="#DejaVuSans-30" transform="translate(63.623047 0)"/>
       <use xlink:href="#DejaVuSans-30" transform="translate(127.246094 0)"/>
       <use xlink:href="#DejaVuSans-30" transform="translate(190.869141 0)"/>
       <use xlink:href="#DejaVuSans-30" transform="translate(254.492188 0)"/>
      </g>
     </g>
    </g>
    <g id="xtick_5">
     <g id="line2d_5">
      <g>
       <use xlink:href="#mb162a2ccc6" x="232.627705" y="228.96" style="stroke: #000000; stroke-width: 0.8"/>
      </g>
     </g>
     <g id="text_5">
      <!-- 40000 -->
      <g transform="translate(216.721455 243.558437) scale(0.1 -0.1)">
       <defs>
        <path id="DejaVuSans-34" d="M 2419 4116 
L 825 1625 
L 2419 1625 
L 2419 4116 
z
M 2253 4666 
L 3047 4666 
L 3047 1625 
L 3713 1625 
L 3713 1100 
L 3047 1100 
L 3047 0 
L 2419 0 
L 2419 1100 
L 313 1100 
L 313 1709 
L 2253 4666 
z
" transform="scale(0.015625)"/>
       </defs>
       <use xlink:href="#DejaVuSans-34"/>
       <use xlink:href="#DejaVuSans-30" transform="translate(63.623047 0)"/>
       <use xlink:href="#DejaVuSans-30" transform="translate(127.246094 0)"/>
       <use xlink:href="#DejaVuSans-30" transform="translate(190.869141 0)"/>
       <use xlink:href="#DejaVuSans-30" transform="translate(254.492188 0)"/>
      </g>
     </g>
    </g>
    <g id="xtick_6">
     <g id="line2d_6">
      <g>
       <use xlink:href="#mb162a2ccc6" x="275.238767" y="228.96" style="stroke: #000000; stroke-width: 0.8"/>
      </g>
     </g>
     <g id="text_6">
      <!-- 50000 -->
      <g transform="translate(259.332517 243.558437) scale(0.1 -0.1)">
       <defs>
        <path id="DejaVuSans-35" d="M 691 4666 
L 3169 4666 
L 3169 4134 
L 1269 4134 
L 1269 2991 
Q 1406 3038 1543 3061 
Q 1681 3084 1819 3084 
Q 2600 3084 3056 2656 
Q 3513 2228 3513 1497 
Q 3513 744 3044 326 
Q 2575 -91 1722 -91 
Q 1428 -91 1123 -41 
Q 819 9 494 109 
L 494 744 
Q 775 591 1075 516 
Q 1375 441 1709 441 
Q 2250 441 2565 725 
Q 2881 1009 2881 1497 
Q 2881 1984 2565 2268 
Q 2250 2553 1709 2553 
Q 1456 2553 1204 2497 
Q 953 2441 691 2322 
L 691 4666 
z
" transform="scale(0.015625)"/>
       </defs>
       <use xlink:href="#DejaVuSans-35"/>
       <use xlink:href="#DejaVuSans-30" transform="translate(63.623047 0)"/>
       <use xlink:href="#DejaVuSans-30" transform="translate(127.246094 0)"/>
       <use xlink:href="#DejaVuSans-30" transform="translate(190.869141 0)"/>
       <use xlink:href="#DejaVuSans-30" transform="translate(254.492188 0)"/>
      </g>
     </g>
    </g>
    <g id="xtick_7">
     <g id="line2d_7">
      <g>
       <use xlink:href="#mb162a2ccc6" x="317.849829" y="228.96" style="stroke: #000000; stroke-width: 0.8"/>
      </g>
     </g>
     <g id="text_7">
      <!-- 60000 -->
      <g transform="translate(301.943579 243.558437) scale(0.1 -0.1)">
       <defs>
        <path id="DejaVuSans-36" d="M 2113 2584 
Q 1688 2584 1439 2293 
Q 1191 2003 1191 1497 
Q 1191 994 1439 701 
Q 1688 409 2113 409 
Q 2538 409 2786 701 
Q 3034 994 3034 1497 
Q 3034 2003 2786 2293 
Q 2538 2584 2113 2584 
z
M 3366 4563 
L 3366 3988 
Q 3128 4100 2886 4159 
Q 2644 4219 2406 4219 
Q 1781 4219 1451 3797 
Q 1122 3375 1075 2522 
Q 1259 2794 1537 2939 
Q 1816 3084 2150 3084 
Q 2853 3084 3261 2657 
Q 3669 2231 3669 1497 
Q 3669 778 3244 343 
Q 2819 -91 2113 -91 
Q 1303 -91 875 529 
Q 447 1150 447 2328 
Q 447 3434 972 4092 
Q 1497 4750 2381 4750 
Q 2619 4750 2861 4703 
Q 3103 4656 3366 4563 
z
" transform="scale(0.015625)"/>
       </defs>
       <use xlink:href="#DejaVuSans-36"/>
       <use xlink:href="#DejaVuSans-30" transform="translate(63.623047 0)"/>
       <use xlink:href="#DejaVuSans-30" transform="translate(127.246094 0)"/>
       <use xlink:href="#DejaVuSans-30" transform="translate(190.869141 0)"/>
       <use xlink:href="#DejaVuSans-30" transform="translate(254.492188 0)"/>
      </g>
     </g>
    </g>
    <g id="xtick_8">
     <g id="line2d_8">
      <g>
       <use xlink:href="#mb162a2ccc6" x="360.460891" y="228.96" style="stroke: #000000; stroke-width: 0.8"/>
      </g>
     </g>
     <g id="text_8">
      <!-- 70000 -->
      <g transform="translate(344.554641 243.558437) scale(0.1 -0.1)">
       <defs>
        <path id="DejaVuSans-37" d="M 525 4666 
L 3525 4666 
L 3525 4397 
L 1831 0 
L 1172 0 
L 2766 4134 
L 525 4134 
L 525 4666 
z
" transform="scale(0.015625)"/>
       </defs>
       <use xlink:href="#DejaVuSans-37"/>
       <use xlink:href="#DejaVuSans-30" transform="translate(63.623047 0)"/>
       <use xlink:href="#DejaVuSans-30" transform="translate(127.246094 0)"/>
       <use xlink:href="#DejaVuSans-30" transform="translate(190.869141 0)"/>
       <use xlink:href="#DejaVuSans-30" transform="translate(254.492188 0)"/>
      </g>
     </g>
    </g>
    <g id="text_9">
     <!-- event_time_offset [µs] -->
     <g transform="translate(158.330469 257.236562) scale(0.1 -0.1)">
      <defs>
       <path id="DejaVuSans-65" d="M 3597 1894 
L 3597 1613 
L 953 1613 
Q 991 1019 1311 708 
Q 1631 397 2203 397 
Q 2534 397 2845 478 
Q 3156 559 3463 722 
L 3463 178 
Q 3153 47 2828 -22 
Q 2503 -91 2169 -91 
Q 1331 -91 842 396 
Q 353 884 353 1716 
Q 353 2575 817 3079 
Q 1281 3584 2069 3584 
Q 2775 3584 3186 3129 
Q 3597 2675 3597 1894 
z
M 3022 2063 
Q 3016 2534 2758 2815 
Q 2500 3097 2075 3097 
Q 1594 3097 1305 2825 
Q 1016 2553 972 2059 
L 3022 2063 
z
" transform="scale(0.015625)"/>
       <path id="DejaVuSans-76" d="M 191 3500 
L 800 3500 
L 1894 563 
L 2988 3500 
L 3597 3500 
L 2284 0 
L 1503 0 
L 191 3500 
z
" transform="scale(0.015625)"/>
       <path id="DejaVuSans-6e" d="M 3513 2113 
L 3513 0 
L 2938 0 
L 2938 2094 
Q 2938 2591 2744 2837 
Q 2550 3084 2163 3084 
Q 1697 3084 1428 2787 
Q 1159 2491 1159 1978 
L 1159 0 
L 581 0 
L 581 3500 
L 1159 3500 
L 1159 2956 
Q 1366 3272 1645 3428 
Q 1925 3584 2291 3584 
Q 2894 3584 3203 3211 
Q 3513 2838 3513 2113 
z
" transform="scale(0.015625)"/>
       <path id="DejaVuSans-74" d="M 1172 4494 
L 1172 3500 
L 2356 3500 
L 2356 3053 
L 1172 3053 
L 1172 1153 
Q 1172 725 1289 603 
Q 1406 481 1766 481 
L 2356 481 
L 2356 0 
L 1766 0 
Q 1100 0 847 248 
Q 594 497 594 1153 
L 594 3053 
L 172 3053 
L 172 3500 
L 594 3500 
L 594 4494 
L 1172 4494 
z
" transform="scale(0.015625)"/>
       <path id="DejaVuSans-5f" d="M 3263 -1063 
L 3263 -1509 
L -63 -1509 
L -63 -1063 
L 3263 -1063 
z
" transform="scale(0.015625)"/>
       <path id="DejaVuSans-69" d="M 603 3500 
L 1178 3500 
L 1178 0 
L 603 0 
L 603 3500 
z
M 603 4863 
L 1178 4863 
L 1178 4134 
L 603 4134 
L 603 4863 
z
" transform="scale(0.015625)"/>
       <path id="DejaVuSans-6d" d="M 3328 2828 
Q 3544 3216 3844 3400 
Q 4144 3584 4550 3584 
Q 5097 3584 5394 3201 
Q 5691 2819 5691 2113 
L 5691 0 
L 5113 0 
L 5113 2094 
Q 5113 2597 4934 2840 
Q 4756 3084 4391 3084 
Q 3944 3084 3684 2787 
Q 3425 2491 3425 1978 
L 3425 0 
L 2847 0 
L 2847 2094 
Q 2847 2600 2669 2842 
Q 2491 3084 2119 3084 
Q 1678 3084 1418 2786 
Q 1159 2488 1159 1978 
L 1159 0 
L 581 0 
L 581 3500 
L 1159 3500 
L 1159 2956 
Q 1356 3278 1631 3431 
Q 1906 3584 2284 3584 
Q 2666 3584 2933 3390 
Q 3200 3197 3328 2828 
z
" transform="scale(0.015625)"/>
       <path id="DejaVuSans-6f" d="M 1959 3097 
Q 1497 3097 1228 2736 
Q 959 2375 959 1747 
Q 959 1119 1226 758 
Q 1494 397 1959 397 
Q 2419 397 2687 759 
Q 2956 1122 2956 1747 
Q 2956 2369 2687 2733 
Q 2419 3097 1959 3097 
z
M 1959 3584 
Q 2709 3584 3137 3096 
Q 3566 2609 3566 1747 
Q 3566 888 3137 398 
Q 2709 -91 1959 -91 
Q 1206 -91 779 398 
Q 353 888 353 1747 
Q 353 2609 779 3096 
Q 1206 3584 1959 3584 
z
" transform="scale(0.015625)"/>
       <path id="DejaVuSans-66" d="M 2375 4863 
L 2375 4384 
L 1825 4384 
Q 1516 4384 1395 4259 
Q 1275 4134 1275 3809 
L 1275 3500 
L 2222 3500 
L 2222 3053 
L 1275 3053 
L 1275 0 
L 697 0 
L 697 3053 
L 147 3053 
L 147 3500 
L 697 3500 
L 697 3744 
Q 697 4328 969 4595 
Q 1241 4863 1831 4863 
L 2375 4863 
z
" transform="scale(0.015625)"/>
       <path id="DejaVuSans-73" d="M 2834 3397 
L 2834 2853 
Q 2591 2978 2328 3040 
Q 2066 3103 1784 3103 
Q 1356 3103 1142 2972 
Q 928 2841 928 2578 
Q 928 2378 1081 2264 
Q 1234 2150 1697 2047 
L 1894 2003 
Q 2506 1872 2764 1633 
Q 3022 1394 3022 966 
Q 3022 478 2636 193 
Q 2250 -91 1575 -91 
Q 1294 -91 989 -36 
Q 684 19 347 128 
L 347 722 
Q 666 556 975 473 
Q 1284 391 1588 391 
Q 1994 391 2212 530 
Q 2431 669 2431 922 
Q 2431 1156 2273 1281 
Q 2116 1406 1581 1522 
L 1381 1569 
Q 847 1681 609 1914 
Q 372 2147 372 2553 
Q 372 3047 722 3315 
Q 1072 3584 1716 3584 
Q 2034 3584 2315 3537 
Q 2597 3491 2834 3397 
z
" transform="scale(0.015625)"/>
       <path id="DejaVuSans-20" transform="scale(0.015625)"/>
       <path id="DejaVuSans-5b" d="M 550 4863 
L 1875 4863 
L 1875 4416 
L 1125 4416 
L 1125 -397 
L 1875 -397 
L 1875 -844 
L 550 -844 
L 550 4863 
z
" transform="scale(0.015625)"/>
       <path id="DejaVuSans-b5" d="M 544 -1331 
L 544 3500 
L 1119 3500 
L 1119 1325 
Q 1119 872 1334 640 
Q 1550 409 1972 409 
Q 2434 409 2667 671 
Q 2900 934 2900 1459 
L 2900 3500 
L 3475 3500 
L 3475 806 
Q 3475 619 3529 530 
Q 3584 441 3700 441 
Q 3728 441 3778 458 
Q 3828 475 3916 513 
L 3916 50 
Q 3788 -22 3673 -56 
Q 3559 -91 3450 -91 
Q 3234 -91 3106 31 
Q 2978 153 2931 403 
Q 2775 156 2548 32 
Q 2322 -91 2016 -91 
Q 1697 -91 1473 31 
Q 1250 153 1119 397 
L 1119 -1331 
L 544 -1331 
z
" transform="scale(0.015625)"/>
       <path id="DejaVuSans-5d" d="M 1947 4863 
L 1947 -844 
L 622 -844 
L 622 -397 
L 1369 -397 
L 1369 4416 
L 622 4416 
L 622 4863 
L 1947 4863 
z
" transform="scale(0.015625)"/>
      </defs>
      <use xlink:href="#DejaVuSans-65"/>
      <use xlink:href="#DejaVuSans-76" transform="translate(61.523438 0)"/>
      <use xlink:href="#DejaVuSans-65" transform="translate(120.703125 0)"/>
      <use xlink:href="#DejaVuSans-6e" transform="translate(182.226562 0)"/>
      <use xlink:href="#DejaVuSans-74" transform="translate(245.605469 0)"/>
      <use xlink:href="#DejaVuSans-5f" transform="translate(284.814453 0)"/>
      <use xlink:href="#DejaVuSans-74" transform="translate(334.814453 0)"/>
      <use xlink:href="#DejaVuSans-69" transform="translate(374.023438 0)"/>
      <use xlink:href="#DejaVuSans-6d" transform="translate(401.806641 0)"/>
      <use xlink:href="#DejaVuSans-65" transform="translate(499.21875 0)"/>
      <use xlink:href="#DejaVuSans-5f" transform="translate(560.742188 0)"/>
      <use xlink:href="#DejaVuSans-6f" transform="translate(610.742188 0)"/>
      <use xlink:href="#DejaVuSans-66" transform="translate(671.923828 0)"/>
      <use xlink:href="#DejaVuSans-66" transform="translate(707.128906 0)"/>
      <use xlink:href="#DejaVuSans-73" transform="translate(742.333984 0)"/>
      <use xlink:href="#DejaVuSans-65" transform="translate(794.433594 0)"/>
      <use xlink:href="#DejaVuSans-74" transform="translate(855.957031 0)"/>
      <use xlink:href="#DejaVuSans-20" transform="translate(895.166016 0)"/>
      <use xlink:href="#DejaVuSans-5b" transform="translate(926.953125 0)"/>
      <use xlink:href="#DejaVuSans-b5" transform="translate(965.966797 0)"/>
      <use xlink:href="#DejaVuSans-73" transform="translate(1029.589844 0)"/>
      <use xlink:href="#DejaVuSans-5d" transform="translate(1081.689453 0)"/>
     </g>
    </g>
   </g>
   <g id="matplotlib.axis_2">
    <g id="ytick_1">
     <g id="line2d_9">
      <defs>
       <path id="ma574f169dc" d="M 0 0 
L -3.5 0 
" style="stroke: #000000; stroke-width: 0.8"/>
      </defs>
      <g>
       <use xlink:href="#ma574f169dc" x="46.965625" y="218.88" style="stroke: #000000; stroke-width: 0.8"/>
      </g>
     </g>
     <g id="text_10">
      <!-- 0 -->
      <g transform="translate(33.603125 222.679219) scale(0.1 -0.1)">
       <use xlink:href="#DejaVuSans-30"/>
      </g>
     </g>
    </g>
    <g id="ytick_2">
     <g id="line2d_10">
      <g>
       <use xlink:href="#ma574f169dc" x="46.965625" y="182.424304" style="stroke: #000000; stroke-width: 0.8"/>
      </g>
     </g>
     <g id="text_11">
      <!-- 100 -->
      <g transform="translate(20.878125 186.223523) scale(0.1 -0.1)">
       <use xlink:href="#DejaVuSans-31"/>
       <use xlink:href="#DejaVuSans-30" transform="translate(63.623047 0)"/>
       <use xlink:href="#DejaVuSans-30" transform="translate(127.246094 0)"/>
      </g>
     </g>
    </g>
    <g id="ytick_3">
     <g id="line2d_11">
      <g>
       <use xlink:href="#ma574f169dc" x="46.965625" y="145.968608" style="stroke: #000000; stroke-width: 0.8"/>
      </g>
     </g>
     <g id="text_12">
      <!-- 200 -->
      <g transform="translate(20.878125 149.767826) scale(0.1 -0.1)">
       <use xlink:href="#DejaVuSans-32"/>
       <use xlink:href="#DejaVuSans-30" transform="translate(63.623047 0)"/>
       <use xlink:href="#DejaVuSans-30" transform="translate(127.246094 0)"/>
      </g>
     </g>
    </g>
    <g id="ytick_4">
     <g id="line2d_12">
      <g>
       <use xlink:href="#ma574f169dc" x="46.965625" y="109.512911" style="stroke: #000000; stroke-width: 0.8"/>
      </g>
     </g>
     <g id="text_13">
      <!-- 300 -->
      <g transform="translate(20.878125 113.31213) scale(0.1 -0.1)">
       <use xlink:href="#DejaVuSans-33"/>
       <use xlink:href="#DejaVuSans-30" transform="translate(63.623047 0)"/>
       <use xlink:href="#DejaVuSans-30" transform="translate(127.246094 0)"/>
      </g>
     </g>
    </g>
    <g id="ytick_5">
     <g id="line2d_13">
      <g>
       <use xlink:href="#ma574f169dc" x="46.965625" y="73.057215" style="stroke: #000000; stroke-width: 0.8"/>
      </g>
     </g>
     <g id="text_14">
      <!-- 400 -->
      <g transform="translate(20.878125 76.856434) scale(0.1 -0.1)">
       <use xlink:href="#DejaVuSans-34"/>
       <use xlink:href="#DejaVuSans-30" transform="translate(63.623047 0)"/>
       <use xlink:href="#DejaVuSans-30" transform="translate(127.246094 0)"/>
      </g>
     </g>
    </g>
    <g id="ytick_6">
     <g id="line2d_14">
      <g>
       <use xlink:href="#ma574f169dc" x="46.965625" y="36.601519" style="stroke: #000000; stroke-width: 0.8"/>
      </g>
     </g>
     <g id="text_15">
      <!-- 500 -->
      <g transform="translate(20.878125 40.400738) scale(0.1 -0.1)">
       <use xlink:href="#DejaVuSans-35"/>
       <use xlink:href="#DejaVuSans-30" transform="translate(63.623047 0)"/>
       <use xlink:href="#DejaVuSans-30" transform="translate(127.246094 0)"/>
      </g>
     </g>
    </g>
    <g id="text_16">
     <!-- [counts] -->
     <g transform="translate(14.798438 138.6925) rotate(-90) scale(0.1 -0.1)">
      <defs>
       <path id="DejaVuSans-63" d="M 3122 3366 
L 3122 2828 
Q 2878 2963 2633 3030 
Q 2388 3097 2138 3097 
Q 1578 3097 1268 2742 
Q 959 2388 959 1747 
Q 959 1106 1268 751 
Q 1578 397 2138 397 
Q 2388 397 2633 464 
Q 2878 531 3122 666 
L 3122 134 
Q 2881 22 2623 -34 
Q 2366 -91 2075 -91 
Q 1284 -91 818 406 
Q 353 903 353 1747 
Q 353 2603 823 3093 
Q 1294 3584 2113 3584 
Q 2378 3584 2631 3529 
Q 2884 3475 3122 3366 
z
" transform="scale(0.015625)"/>
       <path id="DejaVuSans-75" d="M 544 1381 
L 544 3500 
L 1119 3500 
L 1119 1403 
Q 1119 906 1312 657 
Q 1506 409 1894 409 
Q 2359 409 2629 706 
Q 2900 1003 2900 1516 
L 2900 3500 
L 3475 3500 
L 3475 0 
L 2900 0 
L 2900 538 
Q 2691 219 2414 64 
Q 2138 -91 1772 -91 
Q 1169 -91 856 284 
Q 544 659 544 1381 
z
M 1991 3584 
L 1991 3584 
z
" transform="scale(0.015625)"/>
      </defs>
      <use xlink:href="#DejaVuSans-5b"/>
      <use xlink:href="#DejaVuSans-63" transform="translate(39.013672 0)"/>
      <use xlink:href="#DejaVuSans-6f" transform="translate(93.994141 0)"/>
      <use xlink:href="#DejaVuSans-75" transform="translate(155.175781 0)"/>
      <use xlink:href="#DejaVuSans-6e" transform="translate(218.554688 0)"/>
      <use xlink:href="#DejaVuSans-74" transform="translate(281.933594 0)"/>
      <use xlink:href="#DejaVuSans-73" transform="translate(321.142578 0)"/>
      <use xlink:href="#DejaVuSans-5d" transform="translate(373.242188 0)"/>
     </g>
    </g>
   </g>
   <g id="line2d_15">
    <path d="M 62.183807 124.09519 
L 63.198352 124.09519 
L 63.198352 122.636962 
L 64.212898 122.636962 
L 64.212898 126.282532 
L 65.227443 126.282532 
L 65.227443 108.419241 
L 66.241989 108.419241 
L 66.241989 109.877468 
L 67.256534 109.877468 
L 67.256534 128.83443 
L 68.27108 128.83443 
L 68.27108 123.730633 
L 69.285625 123.730633 
L 69.285625 123.366076 
L 70.30017 123.366076 
L 70.30017 132.48 
L 71.314716 132.48 
L 71.314716 123.366076 
L 72.329261 123.366076 
L 72.329261 126.282532 
L 74.358352 126.282532 
L 74.358352 130.657215 
L 75.372898 130.657215 
L 75.372898 136.854684 
L 76.387443 136.854684 
L 76.387443 135.031899 
L 77.401989 135.031899 
L 77.401989 133.938228 
L 78.416534 133.938228 
L 78.416534 140.500253 
L 79.43108 140.500253 
L 79.43108 141.593924 
L 80.445625 141.593924 
L 80.445625 139.406582 
L 81.46017 139.406582 
L 81.46017 144.145823 
L 82.474716 144.145823 
L 82.474716 143.416709 
L 83.489261 143.416709 
L 83.489261 140.86481 
L 84.503807 140.86481 
L 84.503807 149.614177 
L 85.518352 149.614177 
L 85.518352 129.928101 
L 86.532898 129.928101 
L 86.532898 144.51038 
L 87.547443 144.51038 
L 87.547443 144.145823 
L 88.561989 144.145823 
L 88.561989 134.667342 
L 89.576534 134.667342 
L 89.576534 147.062278 
L 90.59108 147.062278 
L 90.59108 160.550886 
L 91.605625 160.550886 
L 91.605625 153.259747 
L 92.62017 153.259747 
L 92.62017 150.707848 
L 93.634716 150.707848 
L 93.634716 160.915443 
L 94.649261 160.915443 
L 94.649261 163.467342 
L 95.663807 163.467342 
L 95.663807 164.561013 
L 96.678352 164.561013 
L 96.678352 162.373671 
L 97.692898 162.373671 
L 97.692898 156.905316 
L 98.707443 156.905316 
L 98.707443 170.029367 
L 99.721989 170.029367 
L 99.721989 162.738228 
L 100.736534 162.738228 
L 100.736534 168.935696 
L 101.75108 168.935696 
L 101.75108 172.216709 
L 102.765625 172.216709 
L 102.765625 173.31038 
L 103.78017 173.31038 
L 103.78017 171.852152 
L 104.794716 171.852152 
L 104.794716 170.029367 
L 105.809261 170.029367 
L 105.809261 170.758481 
L 106.823807 170.758481 
L 106.823807 182.788861 
L 107.838352 182.788861 
L 107.838352 180.236962 
L 108.852898 180.236962 
L 108.852898 187.163544 
L 109.867443 187.163544 
L 109.867443 189.350886 
L 110.881989 189.350886 
L 110.881989 194.090127 
L 111.896534 194.090127 
L 111.896534 190.444557 
L 112.91108 190.444557 
L 112.91108 194.454684 
L 113.925625 194.454684 
L 113.925625 195.912911 
L 114.94017 195.912911 
L 114.94017 200.287595 
L 115.954716 200.287595 
L 115.954716 202.11038 
L 116.969261 202.11038 
L 116.969261 203.568608 
L 118.998352 203.568608 
L 118.998352 202.11038 
L 120.012898 202.11038 
L 120.012898 206.120506 
L 121.027443 206.120506 
L 121.027443 210.859747 
L 122.041989 210.859747 
L 122.041989 209.766076 
L 123.056534 209.766076 
L 123.056534 212.317975 
L 124.07108 212.317975 
L 124.07108 210.130633 
L 125.085625 210.130633 
L 125.085625 214.140759 
L 126.10017 214.140759 
L 126.10017 213.776203 
L 128.129261 213.776203 
L 128.129261 214.869873 
L 129.143807 214.869873 
L 129.143807 216.692658 
L 130.158352 216.692658 
L 130.158352 217.786329 
L 131.172898 217.786329 
L 131.172898 218.150886 
L 132.187443 218.150886 
L 132.187443 217.786329 
L 133.201989 217.786329 
L 133.201989 218.150886 
L 134.216534 218.150886 
L 134.216534 218.88 
L 149.434716 218.88 
L 149.434716 215.598987 
L 150.449261 215.598987 
L 150.449261 211.224304 
L 151.463807 211.224304 
L 151.463807 205.026835 
L 152.478352 205.026835 
L 152.478352 202.839494 
L 153.492898 202.839494 
L 153.492898 200.652152 
L 154.507443 200.652152 
L 154.507443 188.257215 
L 155.521989 188.257215 
L 155.521989 178.04962 
L 156.536534 178.04962 
L 156.536534 173.31038 
L 157.55108 173.31038 
L 157.55108 177.685063 
L 158.565625 177.685063 
L 158.565625 155.811646 
L 159.58017 155.811646 
L 159.58017 162.373671 
L 160.594716 162.373671 
L 160.594716 156.176203 
L 161.609261 156.176203 
L 161.609261 148.155949 
L 162.623807 148.155949 
L 162.623807 143.052152 
L 163.638352 143.052152 
L 163.638352 135.761013 
L 164.652898 135.761013 
L 164.652898 134.667342 
L 165.667443 134.667342 
L 165.667443 134.302785 
L 166.681989 134.302785 
L 166.681989 118.626835 
L 167.696534 118.626835 
L 167.696534 123.366076 
L 168.71108 123.366076 
L 168.71108 94.566076 
L 169.725625 94.566076 
L 169.725625 107.690127 
L 170.74017 107.690127 
L 170.74017 90.555949 
L 171.754716 90.555949 
L 171.754716 104.773671 
L 172.769261 104.773671 
L 172.769261 84.358481 
L 173.783807 84.358481 
L 173.783807 75.973671 
L 174.798352 75.973671 
L 174.798352 75.609114 
L 175.812898 75.609114 
L 175.812898 71.23443 
L 176.827443 71.23443 
L 176.827443 72.692658 
L 177.841989 72.692658 
L 177.841989 67.588861 
L 178.856534 67.588861 
L 178.856534 53.006582 
L 179.87108 53.006582 
L 179.87108 54.46481 
L 180.885625 54.46481 
L 180.885625 57.381266 
L 181.90017 57.381266 
L 181.90017 54.46481 
L 182.914716 54.46481 
L 182.914716 36.601519 
L 184.943807 36.601519 
L 184.943807 24.206582 
L 185.958352 24.206582 
L 185.958352 40.976203 
L 186.972898 40.976203 
L 186.972898 33.685063 
L 187.987443 33.685063 
L 187.987443 39.882532 
L 189.001989 39.882532 
L 189.001989 17.28 
L 190.016534 17.28 
L 190.016534 42.43443 
L 191.03108 42.43443 
L 191.03108 23.842025 
L 192.045625 23.842025 
L 192.045625 26.393924 
L 193.06017 26.393924 
L 193.06017 34.414177 
L 194.074716 34.414177 
L 194.074716 21.654684 
L 195.089261 21.654684 
L 195.089261 22.748354 
L 196.103807 22.748354 
L 196.103807 19.831899 
L 197.118352 19.831899 
L 197.118352 29.674937 
L 198.132898 29.674937 
L 198.132898 23.842025 
L 199.147443 23.842025 
L 199.147443 46.444557 
L 200.161989 46.444557 
L 200.161989 30.039494 
L 201.176534 30.039494 
L 201.176534 34.414177 
L 202.19108 34.414177 
L 202.19108 39.882532 
L 203.205625 39.882532 
L 203.205625 31.862278 
L 204.22017 31.862278 
L 204.22017 35.507848 
L 205.234716 35.507848 
L 205.234716 20.196456 
L 206.249261 20.196456 
L 206.249261 37.330633 
L 207.263807 37.330633 
L 207.263807 44.257215 
L 208.278352 44.257215 
L 208.278352 52.277468 
L 209.292898 52.277468 
L 209.292898 36.236962 
L 210.307443 36.236962 
L 210.307443 38.059747 
L 211.321989 38.059747 
L 211.321989 43.528101 
L 212.336534 43.528101 
L 212.336534 53.735696 
L 213.35108 53.735696 
L 213.35108 50.819241 
L 214.365625 50.819241 
L 214.365625 48.996456 
L 215.38017 48.996456 
L 215.38017 47.538228 
L 216.394716 47.538228 
L 216.394716 42.069873 
L 217.409261 42.069873 
L 217.409261 55.193924 
L 218.423807 55.193924 
L 218.423807 44.621772 
L 219.438352 44.621772 
L 219.438352 35.872405 
L 220.452898 35.872405 
L 220.452898 61.755949 
L 221.467443 61.755949 
L 221.467443 78.890127 
L 222.481989 78.890127 
L 222.481989 72.328101 
L 223.496534 72.328101 
L 223.496534 54.46481 
L 224.51108 54.46481 
L 224.51108 65.036962 
L 225.525625 65.036962 
L 225.525625 70.140759 
L 226.54017 70.140759 
L 226.54017 63.578734 
L 227.554716 63.578734 
L 227.554716 63.943291 
L 228.569261 63.943291 
L 228.569261 48.267342 
L 229.583807 48.267342 
L 229.583807 54.829367 
L 230.598352 54.829367 
L 230.598352 69.047089 
L 231.612898 69.047089 
L 231.612898 66.49519 
L 232.627443 66.49519 
L 232.627443 69.411646 
L 233.641989 69.411646 
L 233.641989 61.026835 
L 234.656534 61.026835 
L 234.656534 66.130633 
L 235.67108 66.130633 
L 235.67108 70.869873 
L 236.685625 70.869873 
L 236.685625 55.558481 
L 237.70017 55.558481 
L 237.70017 75.973671 
L 238.714716 75.973671 
L 238.714716 61.026835 
L 239.729261 61.026835 
L 239.729261 67.953418 
L 240.743807 67.953418 
L 240.743807 64.672405 
L 241.758352 64.672405 
L 241.758352 79.619241 
L 242.772898 79.619241 
L 242.772898 62.485063 
L 243.787443 62.485063 
L 243.787443 70.505316 
L 244.801989 70.505316 
L 244.801989 70.140759 
L 245.816534 70.140759 
L 245.816534 70.505316 
L 246.83108 70.505316 
L 246.83108 86.181266 
L 247.845625 86.181266 
L 247.845625 81.442025 
L 248.86017 81.442025 
L 248.86017 76.338228 
L 249.874716 76.338228 
L 249.874716 86.181266 
L 250.889261 86.181266 
L 250.889261 91.64962 
L 251.903807 91.64962 
L 251.903807 93.472405 
L 252.918352 93.472405 
L 252.918352 95.29519 
L 253.932898 95.29519 
L 253.932898 90.191392 
L 254.947443 90.191392 
L 254.947443 86.91038 
L 255.961989 86.91038 
L 255.961989 97.117975 
L 256.976534 97.117975 
L 256.976534 106.231899 
L 257.99108 106.231899 
L 257.99108 115.345823 
L 259.005625 115.345823 
L 259.005625 103.315443 
L 260.02017 103.315443 
L 260.02017 117.897722 
L 261.034716 117.897722 
L 261.034716 126.647089 
L 262.049261 126.647089 
L 262.049261 117.897722 
L 263.063807 117.897722 
L 263.063807 126.647089 
L 264.078352 126.647089 
L 264.078352 131.021772 
L 265.092898 131.021772 
L 265.092898 142.323038 
L 266.107443 142.323038 
L 266.107443 141.229367 
L 267.121989 141.229367 
L 267.121989 139.771139 
L 268.136534 139.771139 
L 268.136534 156.176203 
L 269.15108 156.176203 
L 269.15108 163.467342 
L 270.165625 163.467342 
L 270.165625 171.123038 
L 271.18017 171.123038 
L 271.18017 174.768608 
L 272.194716 174.768608 
L 272.194716 174.039494 
L 273.209261 174.039494 
L 273.209261 183.517975 
L 274.223807 183.517975 
L 274.223807 182.788861 
L 275.238352 182.788861 
L 275.238352 186.43443 
L 276.252898 186.43443 
L 276.252898 189.715443 
L 277.267443 189.715443 
L 277.267443 200.652152 
L 278.281989 200.652152 
L 278.281989 204.662278 
L 279.296534 204.662278 
L 279.296534 203.204051 
L 280.31108 203.204051 
L 280.31108 206.84962 
L 281.325625 206.84962 
L 281.325625 209.036962 
L 282.34017 209.036962 
L 282.34017 214.140759 
L 283.354716 214.140759 
L 283.354716 214.505316 
L 284.369261 214.505316 
L 284.369261 216.692658 
L 285.383807 216.692658 
L 285.383807 218.150886 
L 287.412898 218.150886 
L 287.412898 218.88 
L 297.558352 218.88 
L 297.558352 218.150886 
L 298.572898 218.150886 
L 298.572898 214.505316 
L 299.587443 214.505316 
L 299.587443 211.224304 
L 300.601989 211.224304 
L 300.601989 204.662278 
L 301.616534 204.662278 
L 301.616534 201.381266 
L 302.63108 201.381266 
L 302.63108 195.548354 
L 303.645625 195.548354 
L 303.645625 190.08 
L 304.66017 190.08 
L 304.66017 182.788861 
L 305.674716 182.788861 
L 305.674716 178.778734 
L 306.689261 178.778734 
L 306.689261 179.507848 
L 307.703807 179.507848 
L 307.703807 172.216709 
L 308.718352 172.216709 
L 308.718352 166.019241 
L 309.732898 166.019241 
L 309.732898 170.029367 
L 310.747443 170.029367 
L 310.747443 161.644557 
L 311.761989 161.644557 
L 311.761989 163.467342 
L 312.776534 163.467342 
L 312.776534 163.102785 
L 313.79108 163.102785 
L 313.79108 155.447089 
L 314.805625 155.447089 
L 314.805625 156.176203 
L 315.82017 156.176203 
L 315.82017 148.155949 
L 316.834716 148.155949 
L 316.834716 150.707848 
L 317.849261 150.707848 
L 317.849261 141.229367 
L 318.863807 141.229367 
L 318.863807 126.282532 
L 319.878352 126.282532 
L 319.878352 136.490127 
L 320.892898 136.490127 
L 320.892898 118.991392 
L 321.907443 118.991392 
L 321.907443 125.917975 
L 322.921989 125.917975 
L 322.921989 122.272405 
L 323.936534 122.272405 
L 323.936534 126.647089 
L 324.95108 126.647089 
L 324.95108 127.011646 
L 325.965625 127.011646 
L 325.965625 125.917975 
L 326.98017 125.917975 
L 326.98017 100.763544 
L 327.994716 100.763544 
L 327.994716 113.158481 
L 329.009261 113.158481 
L 329.009261 109.148354 
L 330.023807 109.148354 
L 330.023807 104.409114 
L 331.038352 104.409114 
L 331.038352 95.29519 
L 332.052898 95.29519 
L 332.052898 100.763544 
L 333.067443 100.763544 
L 333.067443 79.619241 
L 334.081989 79.619241 
L 334.081989 98.576203 
L 335.096534 98.576203 
L 335.096534 78.890127 
L 336.11108 78.890127 
L 336.11108 99.305316 
L 337.125625 99.305316 
L 337.125625 100.398987 
L 338.14017 100.398987 
L 338.14017 98.940759 
L 339.154716 98.940759 
L 339.154716 88.368608 
L 340.169261 88.368608 
L 340.169261 81.442025 
L 341.183807 81.442025 
L 341.183807 83.993924 
L 342.198352 83.993924 
L 342.198352 71.23443 
L 343.212898 71.23443 
L 343.212898 85.816709 
L 344.227443 85.816709 
L 344.227443 88.004051 
L 345.241989 88.004051 
L 345.241989 86.91038 
L 346.256534 86.91038 
L 346.256534 85.087595 
L 347.27108 85.087595 
L 347.27108 92.378734 
L 348.285625 92.378734 
L 348.285625 93.107848 
L 349.30017 93.107848 
L 349.30017 96.024304 
L 350.314716 96.024304 
L 350.314716 104.409114 
L 351.329261 104.409114 
L 351.329261 94.930633 
L 352.343807 94.930633 
L 352.343807 87.274937 
L 353.358352 87.274937 
L 353.358352 99.305316 
L 354.372898 99.305316 
L 354.372898 96.024304 
L 355.387443 96.024304 
L 355.387443 97.847089 
L 356.401989 97.847089 
L 356.401989 112.793924 
L 357.416534 112.793924 
L 357.416534 100.398987 
L 358.43108 100.398987 
L 358.43108 105.867342 
L 359.445625 105.867342 
L 359.445625 90.191392 
L 360.46017 90.191392 
L 360.46017 103.315443 
L 361.474716 103.315443 
L 361.474716 108.054684 
L 362.489261 108.054684 
L 362.489261 112.06481 
L 363.503807 112.06481 
L 363.503807 103.68 
L 364.518352 103.68 
L 364.518352 104.409114 
L 365.532898 104.409114 
L 365.532898 114.981266 
L 366.547443 114.981266 
L 366.547443 114.981266 
" clip-path="url(#p2e0b9af65a)" style="fill: none; stroke: #1f77b4; stroke-width: 1.5; stroke-linecap: square"/>
   </g>
   <g id="patch_3">
    <path d="M 46.965625 228.96 
L 46.965625 7.2 
" style="fill: none; stroke: #000000; stroke-width: 0.8; stroke-linejoin: miter; stroke-linecap: square"/>
   </g>
   <g id="patch_4">
    <path d="M 381.765625 228.96 
L 381.765625 7.2 
" style="fill: none; stroke: #000000; stroke-width: 0.8; stroke-linejoin: miter; stroke-linecap: square"/>
   </g>
   <g id="patch_5">
    <path d="M 46.965625 228.96 
L 381.765625 228.96 
" style="fill: none; stroke: #000000; stroke-width: 0.8; stroke-linejoin: miter; stroke-linecap: square"/>
   </g>
   <g id="patch_6">
    <path d="M 46.965625 7.2 
L 381.765625 7.2 
" style="fill: none; stroke: #000000; stroke-width: 0.8; stroke-linejoin: miter; stroke-linecap: square"/>
   </g>
  </g>
 </g>
 <defs>
  <clipPath id="p2e0b9af65a">
   <rect x="46.965625" y="7.2" width="334.8" height="221.76"/>
  </clipPath>
 </defs>
</svg>
