<?xml version="1.0" encoding="utf-8" standalone="no"?>
<!DOCTYPE svg PUBLIC "-//W3C//DTD SVG 1.1//EN"
  "http://www.w3.org/Graphics/SVG/1.1/DTD/svg11.dtd">
<svg xmlns:xlink="http://www.w3.org/1999/xlink" width="388.965625pt" height="268.200625pt" viewBox="0 0 388.965625 268.200625" xmlns="http://www.w3.org/2000/svg" version="1.1">
 <metadata>
  <rdf:RDF xmlns:dc="http://purl.org/dc/elements/1.1/" xmlns:cc="http://creativecommons.org/ns#" xmlns:rdf="http://www.w3.org/1999/02/22-rdf-syntax-ns#">
   <cc:Work>
    <dc:type rdf:resource="http://purl.org/dc/dcmitype/StillImage"/>
    <dc:date>2026-05-27T14:57:39.991603</dc:date>
    <dc:format>image/svg+xml</dc:format>
    <dc:creator>
     <cc:Agent>
      <dc:title>Matplotlib v3.10.9, https://matplotlib.org/</dc:title>
     </cc:Agent>
    </dc:creator>
   </cc:Work>
  </rdf:RDF>
 </metadata>
 <defs>
  <style type="text/css">*{stroke-linejoin: round; stroke-linecap: butt}</style>
 </defs>
 <g id="figure_1">
  <g id="patch_1">
   <path d="M 0 268.200625 
L 388.965625 268.200625 
L 388.965625 0 
L 0 0 
z
" style="fill: #ffffff"/>
  </g>
  <g id="axes_1">
   <g id="patch_2">
    <path d="M 46.965625 228.96 
L 381.765625 228.96 
L 381.765625 7.2 
L 46.965625 7.2 
z
" style="fill: #ffffff"/>
   </g>
   <g id="matplotlib.axis_1">
    <g id="xtick_1">
     <g id="line2d_1">
      <defs>
       <path id="m81e95f976d" d="M 0 0 
L 0 3.5 
" style="stroke: #000000; stroke-width: 0.8"/>
      </defs>
      <g>
       <use xlink:href="#m81e95f976d" x="70.373614" y="228.96" style="stroke: #000000; stroke-width: 0.8"/>
      </g>
     </g>
     <g id="text_1">
      <!-- 6.0 -->
      <g transform="translate(62.422052 243.558437) scale(0.1 -0.1)">
       <defs>
        <path id="DejaVuSans-36" d="M 2113 2584 
Q 1688 2584 1439 2293 
Q 1191 2003 1191 1497 
Q 1191 994 1439 701 
Q 1688 409 2113 409 
Q 2538 409 2786 701 
Q 3034 994 3034 1497 
Q 3034 2003 2786 2293 
Q 2538 2584 2113 2584 
z
M 3366 4563 
L 3366 3988 
Q 3128 4100 2886 4159 
Q 2644 4219 2406 4219 
Q 1781 4219 1451 3797 
Q 1122 3375 1075 2522 
Q 1259 2794 1537 2939 
Q 1816 3084 2150 3084 
Q 2853 3084 3261 2657 
Q 3669 2231 3669 1497 
Q 3669 778 3244 343 
Q 2819 -91 2113 -91 
Q 1303 -91 875 529 
Q 447 1150 447 2328 
Q 447 3434 972 4092 
Q 1497 4750 2381 4750 
Q 2619 4750 2861 4703 
Q 3103 4656 3366 4563 
z
" transform="scale(0.015625)"/>
        <path id="DejaVuSans-2e" d="M 684 794 
L 1344 794 
L 1344 0 
L 684 0 
L 684 794 
z
" transform="scale(0.015625)"/>
        <path id="DejaVuSans-30" d="M 2034 4250 
Q 1547 4250 1301 3770 
Q 1056 3291 1056 2328 
Q 1056 1369 1301 889 
Q 1547 409 2034 409 
Q 2525 409 2770 889 
Q 3016 1369 3016 2328 
Q 3016 3291 2770 3770 
Q 2525 4250 2034 4250 
z
M 2034 4750 
Q 2819 4750 3233 4129 
Q 3647 3509 3647 2328 
Q 3647 1150 3233 529 
Q 2819 -91 2034 -91 
Q 1250 -91 836 529 
Q 422 1150 422 2328 
Q 422 3509 836 4129 
Q 1250 4750 2034 4750 
z
" transform="scale(0.015625)"/>
       </defs>
       <use xlink:href="#DejaVuSans-36"/>
       <use xlink:href="#DejaVuSans-2e" transform="translate(63.623047 0)"/>
       <use xlink:href="#DejaVuSans-30" transform="translate(95.410156 0)"/>
      </g>
     </g>
    </g>
    <g id="xtick_2">
     <g id="line2d_2">
      <g>
       <use xlink:href="#m81e95f976d" x="127.37055" y="228.96" style="stroke: #000000; stroke-width: 0.8"/>
      </g>
     </g>
     <g id="text_2">
      <!-- 6.5 -->
      <g transform="translate(119.418987 243.558437) scale(0.1 -0.1)">
       <defs>
        <path id="DejaVuSans-35" d="M 691 4666 
L 3169 4666 
L 3169 4134 
L 1269 4134 
L 1269 2991 
Q 1406 3038 1543 3061 
Q 1681 3084 1819 3084 
Q 2600 3084 3056 2656 
Q 3513 2228 3513 1497 
Q 3513 744 3044 326 
Q 2575 -91 1722 -91 
Q 1428 -91 1123 -41 
Q 819 9 494 109 
L 494 744 
Q 775 591 1075 516 
Q 1375 441 1709 441 
Q 2250 441 2565 725 
Q 2881 1009 2881 1497 
Q 2881 1984 2565 2268 
Q 2250 2553 1709 2553 
Q 1456 2553 1204 2497 
Q 953 2441 691 2322 
L 691 4666 
z
" transform="scale(0.015625)"/>
       </defs>
       <use xlink:href="#DejaVuSans-36"/>
       <use xlink:href="#DejaVuSans-2e" transform="translate(63.623047 0)"/>
       <use xlink:href="#DejaVuSans-35" transform="translate(95.410156 0)"/>
      </g>
     </g>
    </g>
    <g id="xtick_3">
     <g id="line2d_3">
      <g>
       <use xlink:href="#m81e95f976d" x="184.367486" y="228.96" style="stroke: #000000; stroke-width: 0.8"/>
      </g>
     </g>
     <g id="text_3">
      <!-- 7.0 -->
      <g transform="translate(176.415923 243.558437) scale(0.1 -0.1)">
       <defs>
        <path id="DejaVuSans-37" d="M 525 4666 
L 3525 4666 
L 3525 4397 
L 1831 0 
L 1172 0 
L 2766 4134 
L 525 4134 
L 525 4666 
z
" transform="scale(0.015625)"/>
       </defs>
       <use xlink:href="#DejaVuSans-37"/>
       <use xlink:href="#DejaVuSans-2e" transform="translate(63.623047 0)"/>
       <use xlink:href="#DejaVuSans-30" transform="translate(95.410156 0)"/>
      </g>
     </g>
    </g>
    <g id="xtick_4">
     <g id="line2d_4">
      <g>
       <use xlink:href="#m81e95f976d" x="241.364421" y="228.96" style="stroke: #000000; stroke-width: 0.8"/>
      </g>
     </g>
     <g id="text_4">
      <!-- 7.5 -->
      <g transform="translate(233.412859 243.558437) scale(0.1 -0.1)">
       <use xlink:href="#DejaVuSans-37"/>
       <use xlink:href="#DejaVuSans-2e" transform="translate(63.623047 0)"/>
       <use xlink:href="#DejaVuSans-35" transform="translate(95.410156 0)"/>
      </g>
     </g>
    </g>
    <g id="xtick_5">
     <g id="line2d_5">
      <g>
       <use xlink:href="#m81e95f976d" x="298.361357" y="228.96" style="stroke: #000000; stroke-width: 0.8"/>
      </g>
     </g>
     <g id="text_5">
      <!-- 8.0 -->
      <g transform="translate(290.409794 243.558437) scale(0.1 -0.1)">
       <defs>
        <path id="DejaVuSans-38" d="M 2034 2216 
Q 1584 2216 1326 1975 
Q 1069 1734 1069 1313 
Q 1069 891 1326 650 
Q 1584 409 2034 409 
Q 2484 409 2743 651 
Q 3003 894 3003 1313 
Q 3003 1734 2745 1975 
Q 2488 2216 2034 2216 
z
M 1403 2484 
Q 997 2584 770 2862 
Q 544 3141 544 3541 
Q 544 4100 942 4425 
Q 1341 4750 2034 4750 
Q 2731 4750 3128 4425 
Q 3525 4100 3525 3541 
Q 3525 3141 3298 2862 
Q 3072 2584 2669 2484 
Q 3125 2378 3379 2068 
Q 3634 1759 3634 1313 
Q 3634 634 3220 271 
Q 2806 -91 2034 -91 
Q 1263 -91 848 271 
Q 434 634 434 1313 
Q 434 1759 690 2068 
Q 947 2378 1403 2484 
z
M 1172 3481 
Q 1172 3119 1398 2916 
Q 1625 2713 2034 2713 
Q 2441 2713 2670 2916 
Q 2900 3119 2900 3481 
Q 2900 3844 2670 4047 
Q 2441 4250 2034 4250 
Q 1625 4250 1398 4047 
Q 1172 3844 1172 3481 
z
" transform="scale(0.015625)"/>
       </defs>
       <use xlink:href="#DejaVuSans-38"/>
       <use xlink:href="#DejaVuSans-2e" transform="translate(63.623047 0)"/>
       <use xlink:href="#DejaVuSans-30" transform="translate(95.410156 0)"/>
      </g>
     </g>
    </g>
    <g id="xtick_6">
     <g id="line2d_6">
      <g>
       <use xlink:href="#m81e95f976d" x="355.358293" y="228.96" style="stroke: #000000; stroke-width: 0.8"/>
      </g>
     </g>
     <g id="text_6">
      <!-- 8.5 -->
      <g transform="translate(347.40673 243.558437) scale(0.1 -0.1)">
       <use xlink:href="#DejaVuSans-38"/>
       <use xlink:href="#DejaVuSans-2e" transform="translate(63.623047 0)"/>
       <use xlink:href="#DejaVuSans-35" transform="translate(95.410156 0)"/>
      </g>
     </g>
    </g>
    <g id="text_7">
     <!-- wavelength [Å] -->
     <g transform="translate(176.328125 258.920937) scale(0.1 -0.1)">
      <defs>
       <path id="DejaVuSans-77" d="M 269 3500 
L 844 3500 
L 1563 769 
L 2278 3500 
L 2956 3500 
L 3675 769 
L 4391 3500 
L 4966 3500 
L 4050 0 
L 3372 0 
L 2619 2869 
L 1863 0 
L 1184 0 
L 269 3500 
z
" transform="scale(0.015625)"/>
       <path id="DejaVuSans-61" d="M 2194 1759 
Q 1497 1759 1228 1600 
Q 959 1441 959 1056 
Q 959 750 1161 570 
Q 1363 391 1709 391 
Q 2188 391 2477 730 
Q 2766 1069 2766 1631 
L 2766 1759 
L 2194 1759 
z
M 3341 1997 
L 3341 0 
L 2766 0 
L 2766 531 
Q 2569 213 2275 61 
Q 1981 -91 1556 -91 
Q 1019 -91 701 211 
Q 384 513 384 1019 
Q 384 1609 779 1909 
Q 1175 2209 1959 2209 
L 2766 2209 
L 2766 2266 
Q 2766 2663 2505 2880 
Q 2244 3097 1772 3097 
Q 1472 3097 1187 3025 
Q 903 2953 641 2809 
L 641 3341 
Q 956 3463 1253 3523 
Q 1550 3584 1831 3584 
Q 2591 3584 2966 3190 
Q 3341 2797 3341 1997 
z
" transform="scale(0.015625)"/>
       <path id="DejaVuSans-76" d="M 191 3500 
L 800 3500 
L 1894 563 
L 2988 3500 
L 3597 3500 
L 2284 0 
L 1503 0 
L 191 3500 
z
" transform="scale(0.015625)"/>
       <path id="DejaVuSans-65" d="M 3597 1894 
L 3597 1613 
L 953 1613 
Q 991 1019 1311 708 
Q 1631 397 2203 397 
Q 2534 397 2845 478 
Q 3156 559 3463 722 
L 3463 178 
Q 3153 47 2828 -22 
Q 2503 -91 2169 -91 
Q 1331 -91 842 396 
Q 353 884 353 1716 
Q 353 2575 817 3079 
Q 1281 3584 2069 3584 
Q 2775 3584 3186 3129 
Q 3597 2675 3597 1894 
z
M 3022 2063 
Q 3016 2534 2758 2815 
Q 2500 3097 2075 3097 
Q 1594 3097 1305 2825 
Q 1016 2553 972 2059 
L 3022 2063 
z
" transform="scale(0.015625)"/>
       <path id="DejaVuSans-6c" d="M 603 4863 
L 1178 4863 
L 1178 0 
L 603 0 
L 603 4863 
z
" transform="scale(0.015625)"/>
       <path id="DejaVuSans-6e" d="M 3513 2113 
L 3513 0 
L 2938 0 
L 2938 2094 
Q 2938 2591 2744 2837 
Q 2550 3084 2163 3084 
Q 1697 3084 1428 2787 
Q 1159 2491 1159 1978 
L 1159 0 
L 581 0 
L 581 3500 
L 1159 3500 
L 1159 2956 
Q 1366 3272 1645 3428 
Q 1925 3584 2291 3584 
Q 2894 3584 3203 3211 
Q 3513 2838 3513 2113 
z
" transform="scale(0.015625)"/>
       <path id="DejaVuSans-67" d="M 2906 1791 
Q 2906 2416 2648 2759 
Q 2391 3103 1925 3103 
Q 1463 3103 1205 2759 
Q 947 2416 947 1791 
Q 947 1169 1205 825 
Q 1463 481 1925 481 
Q 2391 481 2648 825 
Q 2906 1169 2906 1791 
z
M 3481 434 
Q 3481 -459 3084 -895 
Q 2688 -1331 1869 -1331 
Q 1566 -1331 1297 -1286 
Q 1028 -1241 775 -1147 
L 775 -588 
Q 1028 -725 1275 -790 
Q 1522 -856 1778 -856 
Q 2344 -856 2625 -561 
Q 2906 -266 2906 331 
L 2906 616 
Q 2728 306 2450 153 
Q 2172 0 1784 0 
Q 1141 0 747 490 
Q 353 981 353 1791 
Q 353 2603 747 3093 
Q 1141 3584 1784 3584 
Q 2172 3584 2450 3431 
Q 2728 3278 2906 2969 
L 2906 3500 
L 3481 3500 
L 3481 434 
z
" transform="scale(0.015625)"/>
       <path id="DejaVuSans-74" d="M 1172 4494 
L 1172 3500 
L 2356 3500 
L 2356 3053 
L 1172 3053 
L 1172 1153 
Q 1172 725 1289 603 
Q 1406 481 1766 481 
L 2356 481 
L 2356 0 
L 1766 0 
Q 1100 0 847 248 
Q 594 497 594 1153 
L 594 3053 
L 172 3053 
L 172 3500 
L 594 3500 
L 594 4494 
L 1172 4494 
z
" transform="scale(0.015625)"/>
       <path id="DejaVuSans-68" d="M 3513 2113 
L 3513 0 
L 2938 0 
L 2938 2094 
Q 2938 2591 2744 2837 
Q 2550 3084 2163 3084 
Q 1697 3084 1428 2787 
Q 1159 2491 1159 1978 
L 1159 0 
L 581 0 
L 581 4863 
L 1159 4863 
L 1159 2956 
Q 1366 3272 1645 3428 
Q 1925 3584 2291 3584 
Q 2894 3584 3203 3211 
Q 3513 2838 3513 2113 
z
" transform="scale(0.015625)"/>
       <path id="DejaVuSans-20" transform="scale(0.015625)"/>
       <path id="DejaVuSans-5b" d="M 550 4863 
L 1875 4863 
L 1875 4416 
L 1125 4416 
L 1125 -397 
L 1875 -397 
L 1875 -844 
L 550 -844 
L 550 4863 
z
" transform="scale(0.015625)"/>
       <path id="DejaVuSans-c5" d="M 2663 5081 
Q 2663 5278 2523 5417 
Q 2384 5556 2188 5556 
Q 1988 5556 1852 5420 
Q 1716 5284 1716 5081 
Q 1716 4884 1853 4746 
Q 1991 4609 2188 4609 
Q 2384 4609 2523 4746 
Q 2663 4884 2663 5081 
z
M 2188 4044 
L 1338 1722 
L 3041 1722 
L 2188 4044 
z
M 1716 4366 
Q 1525 4494 1428 4673 
Q 1331 4853 1331 5081 
Q 1331 5441 1579 5691 
Q 1828 5941 2188 5941 
Q 2544 5941 2795 5689 
Q 3047 5438 3047 5081 
Q 3047 4863 2948 4678 
Q 2850 4494 2663 4366 
L 4325 0 
L 3669 0 
L 3244 1197 
L 1141 1197 
L 716 0 
L 50 0 
L 1716 4366 
z
" transform="scale(0.015625)"/>
       <path id="DejaVuSans-5d" d="M 1947 4863 
L 1947 -844 
L 622 -844 
L 622 -397 
L 1369 -397 
L 1369 4416 
L 622 4416 
L 622 4863 
L 1947 4863 
z
" transform="scale(0.015625)"/>
      </defs>
      <use xlink:href="#DejaVuSans-77"/>
      <use xlink:href="#DejaVuSans-61" transform="translate(81.787109 0)"/>
      <use xlink:href="#DejaVuSans-76" transform="translate(143.066406 0)"/>
      <use xlink:href="#DejaVuSans-65" transform="translate(202.246094 0)"/>
      <use xlink:href="#DejaVuSans-6c" transform="translate(263.769531 0)"/>
      <use xlink:href="#DejaVuSans-65" transform="translate(291.552734 0)"/>
      <use xlink:href="#DejaVuSans-6e" transform="translate(353.076172 0)"/>
      <use xlink:href="#DejaVuSans-67" transform="translate(416.455078 0)"/>
      <use xlink:href="#DejaVuSans-74" transform="translate(479.931641 0)"/>
      <use xlink:href="#DejaVuSans-68" transform="translate(519.140625 0)"/>
      <use xlink:href="#DejaVuSans-20" transform="translate(582.519531 0)"/>
      <use xlink:href="#DejaVuSans-5b" transform="translate(614.306641 0)"/>
      <use xlink:href="#DejaVuSans-c5" transform="translate(653.320312 0)"/>
      <use xlink:href="#DejaVuSans-5d" transform="translate(721.728516 0)"/>
     </g>
    </g>
   </g>
   <g id="matplotlib.axis_2">
    <g id="ytick_1">
     <g id="line2d_7">
      <defs>
       <path id="m09ffe35ae5" d="M 0 0 
L -3.5 0 
" style="stroke: #000000; stroke-width: 0.8"/>
      </defs>
      <g>
       <use xlink:href="#m09ffe35ae5" x="46.965625" y="218.88" style="stroke: #000000; stroke-width: 0.8"/>
      </g>
     </g>
     <g id="text_8">
      <!-- 0 -->
      <g transform="translate(33.603125 222.679219) scale(0.1 -0.1)">
       <use xlink:href="#DejaVuSans-30"/>
      </g>
     </g>
    </g>
    <g id="ytick_2">
     <g id="line2d_8">
      <g>
       <use xlink:href="#m09ffe35ae5" x="46.965625" y="181.752928" style="stroke: #000000; stroke-width: 0.8"/>
      </g>
     </g>
     <g id="text_9">
      <!-- 100 -->
      <g transform="translate(20.878125 185.552147) scale(0.1 -0.1)">
       <defs>
        <path id="DejaVuSans-31" d="M 794 531 
L 1825 531 
L 1825 4091 
L 703 3866 
L 703 4441 
L 1819 4666 
L 2450 4666 
L 2450 531 
L 3481 531 
L 3481 0 
L 794 0 
L 794 531 
z
" transform="scale(0.015625)"/>
       </defs>
       <use xlink:href="#DejaVuSans-31"/>
       <use xlink:href="#DejaVuSans-30" transform="translate(63.623047 0)"/>
       <use xlink:href="#DejaVuSans-30" transform="translate(127.246094 0)"/>
      </g>
     </g>
    </g>
    <g id="ytick_3">
     <g id="line2d_9">
      <g>
       <use xlink:href="#m09ffe35ae5" x="46.965625" y="144.625856" style="stroke: #000000; stroke-width: 0.8"/>
      </g>
     </g>
     <g id="text_10">
      <!-- 200 -->
      <g transform="translate(20.878125 148.425075) scale(0.1 -0.1)">
       <defs>
        <path id="DejaVuSans-32" d="M 1228 531 
L 3431 531 
L 3431 0 
L 469 0 
L 469 531 
Q 828 903 1448 1529 
Q 2069 2156 2228 2338 
Q 2531 2678 2651 2914 
Q 2772 3150 2772 3378 
Q 2772 3750 2511 3984 
Q 2250 4219 1831 4219 
Q 1534 4219 1204 4116 
Q 875 4013 500 3803 
L 500 4441 
Q 881 4594 1212 4672 
Q 1544 4750 1819 4750 
Q 2544 4750 2975 4387 
Q 3406 4025 3406 3419 
Q 3406 3131 3298 2873 
Q 3191 2616 2906 2266 
Q 2828 2175 2409 1742 
Q 1991 1309 1228 531 
z
" transform="scale(0.015625)"/>
       </defs>
       <use xlink:href="#DejaVuSans-32"/>
       <use xlink:href="#DejaVuSans-30" transform="translate(63.623047 0)"/>
       <use xlink:href="#DejaVuSans-30" transform="translate(127.246094 0)"/>
      </g>
     </g>
    </g>
    <g id="ytick_4">
     <g id="line2d_10">
      <g>
       <use xlink:href="#m09ffe35ae5" x="46.965625" y="107.498785" style="stroke: #000000; stroke-width: 0.8"/>
      </g>
     </g>
     <g id="text_11">
      <!-- 300 -->
      <g transform="translate(20.878125 111.298003) scale(0.1 -0.1)">
       <defs>
        <path id="DejaVuSans-33" d="M 2597 2516 
Q 3050 2419 3304 2112 
Q 3559 1806 3559 1356 
Q 3559 666 3084 287 
Q 2609 -91 1734 -91 
Q 1441 -91 1130 -33 
Q 819 25 488 141 
L 488 750 
Q 750 597 1062 519 
Q 1375 441 1716 441 
Q 2309 441 2620 675 
Q 2931 909 2931 1356 
Q 2931 1769 2642 2001 
Q 2353 2234 1838 2234 
L 1294 2234 
L 1294 2753 
L 1863 2753 
Q 2328 2753 2575 2939 
Q 2822 3125 2822 3475 
Q 2822 3834 2567 4026 
Q 2313 4219 1838 4219 
Q 1578 4219 1281 4162 
Q 984 4106 628 3988 
L 628 4550 
Q 988 4650 1302 4700 
Q 1616 4750 1894 4750 
Q 2613 4750 3031 4423 
Q 3450 4097 3450 3541 
Q 3450 3153 3228 2886 
Q 3006 2619 2597 2516 
z
" transform="scale(0.015625)"/>
       </defs>
       <use xlink:href="#DejaVuSans-33"/>
       <use xlink:href="#DejaVuSans-30" transform="translate(63.623047 0)"/>
       <use xlink:href="#DejaVuSans-30" transform="translate(127.246094 0)"/>
      </g>
     </g>
    </g>
    <g id="ytick_5">
     <g id="line2d_11">
      <g>
       <use xlink:href="#m09ffe35ae5" x="46.965625" y="70.371713" style="stroke: #000000; stroke-width: 0.8"/>
      </g>
     </g>
     <g id="text_12">
      <!-- 400 -->
      <g transform="translate(20.878125 74.170931) scale(0.1 -0.1)">
       <defs>
        <path id="DejaVuSans-34" d="M 2419 4116 
L 825 1625 
L 2419 1625 
L 2419 4116 
z
M 2253 4666 
L 3047 4666 
L 3047 1625 
L 3713 1625 
L 3713 1100 
L 3047 1100 
L 3047 0 
L 2419 0 
L 2419 1100 
L 313 1100 
L 313 1709 
L 2253 4666 
z
" transform="scale(0.015625)"/>
       </defs>
       <use xlink:href="#DejaVuSans-34"/>
       <use xlink:href="#DejaVuSans-30" transform="translate(63.623047 0)"/>
       <use xlink:href="#DejaVuSans-30" transform="translate(127.246094 0)"/>
      </g>
     </g>
    </g>
    <g id="ytick_6">
     <g id="line2d_12">
      <g>
       <use xlink:href="#m09ffe35ae5" x="46.965625" y="33.244641" style="stroke: #000000; stroke-width: 0.8"/>
      </g>
     </g>
     <g id="text_13">
      <!-- 500 -->
      <g transform="translate(20.878125 37.04386) scale(0.1 -0.1)">
       <use xlink:href="#DejaVuSans-35"/>
       <use xlink:href="#DejaVuSans-30" transform="translate(63.623047 0)"/>
       <use xlink:href="#DejaVuSans-30" transform="translate(127.246094 0)"/>
      </g>
     </g>
    </g>
    <g id="text_14">
     <!-- [counts] -->
     <g transform="translate(14.798438 138.6925) rotate(-90) scale(0.1 -0.1)">
      <defs>
       <path id="DejaVuSans-63" d="M 3122 3366 
L 3122 2828 
Q 2878 2963 2633 3030 
Q 2388 3097 2138 3097 
Q 1578 3097 1268 2742 
Q 959 2388 959 1747 
Q 959 1106 1268 751 
Q 1578 397 2138 397 
Q 2388 397 2633 464 
Q 2878 531 3122 666 
L 3122 134 
Q 2881 22 2623 -34 
Q 2366 -91 2075 -91 
Q 1284 -91 818 406 
Q 353 903 353 1747 
Q 353 2603 823 3093 
Q 1294 3584 2113 3584 
Q 2378 3584 2631 3529 
Q 2884 3475 3122 3366 
z
" transform="scale(0.015625)"/>
       <path id="DejaVuSans-6f" d="M 1959 3097 
Q 1497 3097 1228 2736 
Q 959 2375 959 1747 
Q 959 1119 1226 758 
Q 1494 397 1959 397 
Q 2419 397 2687 759 
Q 2956 1122 2956 1747 
Q 2956 2369 2687 2733 
Q 2419 3097 1959 3097 
z
M 1959 3584 
Q 2709 3584 3137 3096 
Q 3566 2609 3566 1747 
Q 3566 888 3137 398 
Q 2709 -91 1959 -91 
Q 1206 -91 779 398 
Q 353 888 353 1747 
Q 353 2609 779 3096 
Q 1206 3584 1959 3584 
z
" transform="scale(0.015625)"/>
       <path id="DejaVuSans-75" d="M 544 1381 
L 544 3500 
L 1119 3500 
L 1119 1403 
Q 1119 906 1312 657 
Q 1506 409 1894 409 
Q 2359 409 2629 706 
Q 2900 1003 2900 1516 
L 2900 3500 
L 3475 3500 
L 3475 0 
L 2900 0 
L 2900 538 
Q 2691 219 2414 64 
Q 2138 -91 1772 -91 
Q 1169 -91 856 284 
Q 544 659 544 1381 
z
M 1991 3584 
L 1991 3584 
z
" transform="scale(0.015625)"/>
       <path id="DejaVuSans-73" d="M 2834 3397 
L 2834 2853 
Q 2591 2978 2328 3040 
Q 2066 3103 1784 3103 
Q 1356 3103 1142 2972 
Q 928 2841 928 2578 
Q 928 2378 1081 2264 
Q 1234 2150 1697 2047 
L 1894 2003 
Q 2506 1872 2764 1633 
Q 3022 1394 3022 966 
Q 3022 478 2636 193 
Q 2250 -91 1575 -91 
Q 1294 -91 989 -36 
Q 684 19 347 128 
L 347 722 
Q 666 556 975 473 
Q 1284 391 1588 391 
Q 1994 391 2212 530 
Q 2431 669 2431 922 
Q 2431 1156 2273 1281 
Q 2116 1406 1581 1522 
L 1381 1569 
Q 847 1681 609 1914 
Q 372 2147 372 2553 
Q 372 3047 722 3315 
Q 1072 3584 1716 3584 
Q 2034 3584 2315 3537 
Q 2597 3491 2834 3397 
z
" transform="scale(0.015625)"/>
      </defs>
      <use xlink:href="#DejaVuSans-5b"/>
      <use xlink:href="#DejaVuSans-63" transform="translate(39.013672 0)"/>
      <use xlink:href="#DejaVuSans-6f" transform="translate(93.994141 0)"/>
      <use xlink:href="#DejaVuSans-75" transform="translate(155.175781 0)"/>
      <use xlink:href="#DejaVuSans-6e" transform="translate(218.554688 0)"/>
      <use xlink:href="#DejaVuSans-74" transform="translate(281.933594 0)"/>
      <use xlink:href="#DejaVuSans-73" transform="translate(321.142578 0)"/>
      <use xlink:href="#DejaVuSans-5d" transform="translate(373.242188 0)"/>
     </g>
    </g>
   </g>
   <g id="line2d_13">
    <path d="M 111.032741 215.167293 
L 114.452557 215.167293 
L 114.452557 217.023646 
L 121.29219 217.023646 
L 121.29219 215.909834 
L 124.712006 215.909834 
L 124.712006 216.281105 
L 128.131822 216.281105 
L 128.131822 215.909834 
L 131.551638 215.909834 
L 131.551638 208.113149 
L 134.971454 208.113149 
L 134.971454 205.885525 
L 138.39127 205.885525 
L 138.39127 207.741878 
L 141.811087 207.741878 
L 141.811087 202.172818 
L 145.230903 202.172818 
L 145.230903 202.544088 
L 152.070535 202.544088 
L 152.070535 190.663425 
L 155.490351 190.663425 
L 155.490351 181.752928 
L 158.910167 181.752928 
L 158.910167 175.070055 
L 162.329983 175.070055 
L 162.329983 176.555138 
L 165.749799 176.555138 
L 165.749799 169.500994 
L 169.169616 169.500994 
L 169.169616 161.704309 
L 172.589432 161.704309 
L 172.589432 142.769503 
L 176.009248 142.769503 
L 176.009248 123.092155 
L 179.429064 123.092155 
L 179.429064 127.176133 
L 182.84888 127.176133 
L 182.84888 110.840221 
L 186.268696 110.840221 
L 186.268696 106.013702 
L 189.688512 106.013702 
L 189.688512 91.162873 
L 193.108329 91.162873 
L 193.108329 69.629171 
L 196.528145 69.629171 
L 196.528145 78.168398 
L 199.947961 78.168398 
L 199.947961 84.48 
L 203.367777 84.48 
L 203.367777 71.114254 
L 206.787593 71.114254 
L 206.787593 35.843536 
L 210.207409 35.843536 
L 210.207409 17.28 
L 213.627225 17.28 
L 213.627225 73.341878 
L 217.047042 73.341878 
L 217.047042 82.994917 
L 220.466858 82.994917 
L 220.466858 74.826961 
L 223.886674 74.826961 
L 223.886674 77.425856 
L 227.30649 77.425856 
L 227.30649 77.797127 
L 230.726306 77.797127 
L 230.726306 78.168398 
L 234.146122 78.168398 
L 234.146122 64.802652 
L 237.565938 64.802652 
L 237.565938 77.054586 
L 240.985755 77.054586 
L 240.985755 75.198232 
L 244.405571 75.198232 
L 244.405571 91.534144 
L 247.825387 91.534144 
L 247.825387 90.049061 
L 251.245203 90.049061 
L 251.245203 82.623646 
L 254.665019 82.623646 
L 254.665019 94.133039 
L 258.084835 94.133039 
L 258.084835 103.043536 
L 261.504651 103.043536 
L 261.504651 117.894365 
L 264.924468 117.894365 
L 264.924468 112.696575 
L 268.344284 112.696575 
L 268.344284 117.523094 
L 271.7641 117.523094 
L 271.7641 103.414807 
L 275.183916 103.414807 
L 275.183916 123.092155 
L 278.603732 123.092155 
L 278.603732 109.726409 
L 282.023548 109.726409 
L 282.023548 111.211492 
L 285.443364 111.211492 
L 285.443364 111.582762 
L 288.86318 111.582762 
L 288.86318 110.09768 
L 292.282997 110.09768 
L 292.282997 113.439116 
L 295.702813 113.439116 
L 295.702813 118.636906 
L 299.122629 118.636906 
L 299.122629 134.230276 
L 302.542445 134.230276 
L 302.542445 134.601547 
L 305.962261 134.601547 
L 305.962261 123.092155 
L 309.382077 123.092155 
L 309.382077 136.829171 
L 312.801893 136.829171 
L 312.801893 135.344088 
L 316.22171 135.344088 
L 316.22171 131.631381 
L 319.641526 131.631381 
L 319.641526 129.032486 
L 323.061342 129.032486 
L 323.061342 133.116464 
L 326.481158 133.116464 
L 326.481158 151.68 
L 329.900974 151.68 
L 329.900974 165.045746 
L 333.32079 165.045746 
L 333.32079 164.674475 
L 336.740606 164.674475 
L 336.740606 174.698785 
L 340.160423 174.698785 
L 340.160423 195.861215 
L 343.580239 195.861215 
L 343.580239 196.603757 
L 347.000055 196.603757 
L 347.000055 197.346298 
L 350.419871 197.346298 
L 350.419871 204.029171 
L 353.839687 204.029171 
L 353.839687 214.053481 
L 357.259503 214.053481 
L 357.259503 218.88 
L 360.679319 218.88 
L 360.679319 218.88 
" clip-path="url(#p0691c52442)" style="fill: none; stroke: #1f77b4; stroke-width: 1.5; stroke-linecap: square"/>
   </g>
   <g id="line2d_14">
    <path d="M 111.032741 218.88 
L 124.712006 218.88 
L 124.712006 217.023646 
L 128.131822 217.023646 
L 128.131822 208.855691 
L 131.551638 208.855691 
L 131.551638 207.370608 
L 134.971454 207.370608 
L 134.971454 216.281105 
L 138.39127 216.281105 
L 138.39127 204.400442 
L 141.811087 204.400442 
L 141.811087 201.430276 
L 145.230903 201.430276 
L 145.230903 200.687735 
L 148.650719 200.687735 
L 148.650719 197.717569 
L 152.070535 197.717569 
L 152.070535 194.004862 
L 155.490351 194.004862 
L 155.490351 179.154033 
L 158.910167 179.154033 
L 158.910167 185.465635 
L 162.329983 185.465635 
L 162.329983 179.896575 
L 165.749799 179.896575 
L 165.749799 155.763978 
L 169.169616 155.763978 
L 169.169616 164.303204 
L 172.589432 164.303204 
L 172.589432 141.28442 
L 176.009248 141.28442 
L 176.009248 143.140773 
L 179.429064 143.140773 
L 179.429064 107.127514 
L 182.84888 107.127514 
L 182.84888 103.043536 
L 186.268696 103.043536 
L 186.268696 82.994917 
L 189.688512 82.994917 
L 189.688512 97.845746 
L 193.108329 97.845746 
L 193.108329 84.851271 
L 196.528145 84.851271 
L 196.528145 71.485525 
L 199.947961 71.485525 
L 199.947961 43.26895 
L 203.367777 43.26895 
L 203.367777 86.707624 
L 206.787593 86.707624 
L 206.787593 68.144088 
L 210.207409 68.144088 
L 210.207409 65.916464 
L 213.627225 65.916464 
L 213.627225 60.718674 
L 217.047042 60.718674 
L 217.047042 77.054586 
L 220.466858 77.054586 
L 220.466858 70.371713 
L 223.886674 70.371713 
L 223.886674 87.078895 
L 227.30649 87.078895 
L 227.30649 71.485525 
L 230.726306 71.485525 
L 230.726306 85.965083 
L 234.146122 85.965083 
L 234.146122 77.054586 
L 237.565938 77.054586 
L 237.565938 82.994917 
L 240.985755 82.994917 
L 240.985755 68.88663 
L 244.405571 68.88663 
L 244.405571 98.217017 
L 247.825387 98.217017 
L 247.825387 74.08442 
L 251.245203 74.08442 
L 251.245203 99.702099 
L 254.665019 99.702099 
L 254.665019 97.474475 
L 258.084835 97.474475 
L 258.084835 87.821436 
L 261.504651 87.821436 
L 261.504651 110.09768 
L 264.924468 110.09768 
L 264.924468 113.439116 
L 268.344284 113.439116 
L 268.344284 102.300994 
L 271.7641 102.300994 
L 271.7641 97.474475 
L 275.183916 97.474475 
L 275.183916 116.409282 
L 278.603732 116.409282 
L 278.603732 116.780552 
L 282.023548 116.780552 
L 282.023548 94.133039 
L 285.443364 94.133039 
L 285.443364 133.116464 
L 288.86318 133.116464 
L 288.86318 121.607072 
L 292.282997 121.607072 
L 292.282997 112.696575 
L 295.702813 112.696575 
L 295.702813 140.913149 
L 299.122629 140.913149 
L 299.122629 119.379448 
L 302.542445 119.379448 
L 302.542445 138.314254 
L 305.962261 138.314254 
L 305.962261 116.780552 
L 309.382077 116.780552 
L 309.382077 127.547403 
L 312.801893 127.547403 
L 312.801893 136.829171 
L 316.22171 136.829171 
L 316.22171 134.230276 
L 319.641526 134.230276 
L 319.641526 137.571713 
L 323.061342 137.571713 
L 323.061342 150.194917 
L 326.481158 150.194917 
L 326.481158 144.254586 
L 329.900974 144.254586 
L 329.900974 165.788287 
L 333.32079 165.788287 
L 333.32079 147.596022 
L 336.740606 147.596022 
L 336.740606 175.070055 
L 340.160423 175.070055 
L 340.160423 186.208177 
L 343.580239 186.208177 
L 343.580239 195.489945 
L 347.000055 195.489945 
L 347.000055 198.831381 
L 350.419871 198.831381 
L 350.419871 203.657901 
L 353.839687 203.657901 
L 353.839687 205.142983 
L 357.259503 205.142983 
L 357.259503 214.796022 
L 360.679319 214.796022 
L 360.679319 214.796022 
" clip-path="url(#p0691c52442)" style="fill: none; stroke: #ff7f0e; stroke-width: 1.5; stroke-linecap: square"/>
   </g>
   <g id="line2d_15">
    <path d="M 111.032741 216.281105 
L 114.452557 216.281105 
L 114.452557 218.88 
L 124.712006 218.88 
L 124.712006 215.167293 
L 128.131822 215.167293 
L 128.131822 211.825856 
L 131.551638 211.825856 
L 131.551638 211.454586 
L 134.971454 211.454586 
L 134.971454 217.394917 
L 138.39127 217.394917 
L 138.39127 206.628066 
L 141.811087 206.628066 
L 141.811087 199.945193 
L 145.230903 199.945193 
L 145.230903 201.059006 
L 148.650719 201.059006 
L 148.650719 199.202652 
L 152.070535 199.202652 
L 152.070535 194.747403 
L 155.490351 194.747403 
L 155.490351 175.812597 
L 158.910167 175.812597 
L 158.910167 189.178343 
L 162.329983 189.178343 
L 162.329983 174.327514 
L 165.749799 174.327514 
L 165.749799 158.734144 
L 169.169616 158.734144 
L 169.169616 163.560663 
L 172.589432 163.560663 
L 172.589432 144.625856 
L 176.009248 144.625856 
L 176.009248 147.224751 
L 179.429064 147.224751 
L 179.429064 112.325304 
L 182.84888 112.325304 
L 182.84888 94.87558 
L 186.268696 94.87558 
L 186.268696 86.336354 
L 189.688512 86.336354 
L 189.688512 90.420331 
L 193.108329 90.420331 
L 193.108329 88.192707 
L 196.528145 88.192707 
L 196.528145 57.377238 
L 199.947961 57.377238 
L 199.947961 62.946298 
L 203.367777 62.946298 
L 203.367777 75.198232 
L 206.787593 75.198232 
L 206.787593 71.856796 
L 210.207409 71.856796 
L 210.207409 64.431381 
L 213.627225 64.431381 
L 213.627225 71.485525 
L 217.047042 71.485525 
L 217.047042 64.431381 
L 220.466858 64.431381 
L 220.466858 81.881105 
L 223.886674 81.881105 
L 223.886674 76.312044 
L 227.30649 76.312044 
L 227.30649 72.228066 
L 230.726306 72.228066 
L 230.726306 81.509834 
L 234.146122 81.509834 
L 234.146122 82.623646 
L 237.565938 82.623646 
L 237.565938 78.168398 
L 240.985755 78.168398 
L 240.985755 84.851271 
L 244.405571 84.851271 
L 244.405571 87.078895 
L 247.825387 87.078895 
L 247.825387 73.341878 
L 251.245203 73.341878 
L 251.245203 99.702099 
L 254.665019 99.702099 
L 254.665019 104.89989 
L 258.084835 104.89989 
L 258.084835 85.222541 
L 261.504651 85.222541 
L 261.504651 115.29547 
L 264.924468 115.29547 
L 264.924468 105.642431 
L 271.7641 105.642431 
L 271.7641 95.989392 
L 275.183916 95.989392 
L 275.183916 111.211492 
L 278.603732 111.211492 
L 278.603732 111.954033 
L 285.443364 111.954033 
L 285.443364 115.29547 
L 288.86318 115.29547 
L 288.86318 118.636906 
L 292.282997 118.636906 
L 292.282997 129.032486 
L 295.702813 129.032486 
L 295.702813 130.88884 
L 299.122629 130.88884 
L 299.122629 123.834696 
L 302.542445 123.834696 
L 302.542445 133.487735 
L 305.962261 133.487735 
L 305.962261 116.038011 
L 309.382077 116.038011 
L 309.382077 124.205967 
L 312.801893 124.205967 
L 312.801893 143.512044 
L 316.22171 143.512044 
L 316.22171 131.631381 
L 319.641526 131.631381 
L 319.641526 149.081105 
L 323.061342 149.081105 
L 323.061342 140.541878 
L 326.481158 140.541878 
L 326.481158 150.566188 
L 329.900974 150.566188 
L 329.900974 160.219227 
L 333.32079 160.219227 
L 333.32079 147.967293 
L 336.740606 147.967293 
L 336.740606 177.29768 
L 340.160423 177.29768 
L 340.160423 185.094365 
L 343.580239 185.094365 
L 343.580239 198.08884 
L 347.000055 198.08884 
L 347.000055 195.861215 
L 350.419871 195.861215 
L 350.419871 205.514254 
L 353.839687 205.514254 
L 353.839687 206.628066 
L 357.259503 206.628066 
L 357.259503 210.340773 
L 360.679319 210.340773 
L 360.679319 210.340773 
" clip-path="url(#p0691c52442)" style="fill: none; stroke: #2ca02c; stroke-width: 1.5; stroke-linecap: square"/>
   </g>
   <g id="line2d_16">
    <path d="M 111.032741 217.394917 
L 114.452557 217.394917 
L 114.452557 218.88 
L 128.131822 218.88 
L 128.131822 214.053481 
L 131.551638 214.053481 
L 131.551638 214.796022 
L 134.971454 214.796022 
L 134.971454 218.508729 
L 138.39127 218.508729 
L 138.39127 204.771713 
L 145.230903 204.771713 
L 145.230903 199.202652 
L 148.650719 199.202652 
L 148.650719 200.687735 
L 152.070535 200.687735 
L 152.070535 191.034696 
L 155.490351 191.034696 
L 155.490351 174.698785 
L 158.910167 174.698785 
L 158.910167 192.519779 
L 162.329983 192.519779 
L 162.329983 169.129724 
L 165.749799 169.129724 
L 165.749799 164.674475 
L 169.169616 164.674475 
L 169.169616 157.991602 
L 172.589432 157.991602 
L 172.589432 150.937459 
L 176.009248 150.937459 
L 176.009248 139.056796 
L 179.429064 139.056796 
L 179.429064 119.008177 
L 182.84888 119.008177 
L 182.84888 92.276685 
L 186.268696 92.276685 
L 186.268696 88.192707 
L 189.688512 88.192707 
L 189.688512 89.306519 
L 193.108329 89.306519 
L 193.108329 91.905414 
L 196.528145 91.905414 
L 196.528145 60.718674 
L 199.947961 60.718674 
L 199.947961 54.407072 
L 203.367777 54.407072 
L 203.367777 75.569503 
L 206.787593 75.569503 
L 206.787593 74.455691 
L 210.207409 74.455691 
L 210.207409 70.742983 
L 213.627225 70.742983 
L 213.627225 61.461215 
L 217.047042 61.461215 
L 217.047042 62.203757 
L 220.466858 62.203757 
L 220.466858 87.078895 
L 223.886674 87.078895 
L 223.886674 63.68884 
L 227.30649 63.68884 
L 227.30649 91.162873 
L 230.726306 91.162873 
L 230.726306 76.683315 
L 234.146122 76.683315 
L 234.146122 81.138564 
L 237.565938 81.138564 
L 237.565938 84.48 
L 240.985755 84.48 
L 240.985755 80.767293 
L 244.405571 80.767293 
L 244.405571 79.653481 
L 247.825387 79.653481 
L 247.825387 82.623646 
L 251.245203 82.623646 
L 251.245203 104.157348 
L 254.665019 104.157348 
L 254.665019 95.989392 
L 258.084835 95.989392 
L 258.084835 87.450166 
L 261.504651 87.450166 
L 261.504651 111.954033 
L 264.924468 111.954033 
L 264.924468 106.756243 
L 268.344284 106.756243 
L 268.344284 101.187182 
L 271.7641 101.187182 
L 271.7641 115.66674 
L 275.183916 115.66674 
L 275.183916 108.241326 
L 278.603732 108.241326 
L 278.603732 97.103204 
L 282.023548 97.103204 
L 282.023548 110.840221 
L 285.443364 110.840221 
L 285.443364 119.750718 
L 292.282997 119.750718 
L 292.282997 133.859006 
L 295.702813 133.859006 
L 295.702813 121.235801 
L 299.122629 121.235801 
L 299.122629 125.69105 
L 302.542445 125.69105 
L 302.542445 135.344088 
L 305.962261 135.344088 
L 305.962261 122.720884 
L 309.382077 122.720884 
L 309.382077 124.205967 
L 312.801893 124.205967 
L 312.801893 132.745193 
L 316.22171 132.745193 
L 316.22171 142.398232 
L 319.641526 142.398232 
L 319.641526 140.541878 
L 323.061342 140.541878 
L 323.061342 149.081105 
L 326.481158 149.081105 
L 326.481158 139.056796 
L 329.900974 139.056796 
L 329.900974 157.620331 
L 333.32079 157.620331 
L 333.32079 155.392707 
L 336.740606 155.392707 
L 336.740606 178.411492 
L 340.160423 178.411492 
L 340.160423 183.609282 
L 343.580239 183.609282 
L 343.580239 197.717569 
L 347.000055 197.717569 
L 347.000055 195.489945 
L 350.419871 195.489945 
L 350.419871 205.885525 
L 353.839687 205.885525 
L 353.839687 204.400442 
L 357.259503 204.400442 
L 357.259503 215.538564 
L 360.679319 215.538564 
L 360.679319 215.538564 
" clip-path="url(#p0691c52442)" style="fill: none; stroke: #d62728; stroke-width: 1.5; stroke-linecap: square"/>
   </g>
   <g id="line2d_17">
    <path d="M 62.183807 217.766188 
L 65.603623 217.766188 
L 65.603623 218.88 
L 69.023439 218.88 
L 69.023439 218.508729 
L 72.443255 218.508729 
L 72.443255 218.88 
L 75.863071 218.88 
L 75.863071 218.508729 
L 79.282888 218.508729 
L 79.282888 218.137459 
L 89.542336 218.137459 
L 89.542336 216.652376 
L 92.962152 216.652376 
L 92.962152 217.766188 
L 96.381968 217.766188 
L 96.381968 218.508729 
L 103.2216 218.508729 
L 103.2216 218.137459 
L 106.641417 218.137459 
L 106.641417 217.394917 
L 110.061233 217.394917 
L 110.061233 215.909834 
L 113.481049 215.909834 
L 113.481049 216.652376 
L 120.320681 216.652376 
L 120.320681 214.424751 
L 123.740497 214.424751 
L 123.740497 212.197127 
L 127.160313 212.197127 
L 127.160313 213.68221 
L 130.58013 213.68221 
L 130.58013 207.741878 
L 133.999946 207.741878 
L 133.999946 211.454586 
L 137.419762 211.454586 
L 137.419762 208.113149 
L 140.839578 208.113149 
L 140.839578 205.514254 
L 144.259394 205.514254 
L 144.259394 201.801547 
L 147.67921 201.801547 
L 147.67921 198.46011 
L 151.099026 198.46011 
L 151.099026 194.004862 
L 154.518843 194.004862 
L 154.518843 179.154033 
L 157.938659 179.154033 
L 157.938659 186.950718 
L 161.358475 186.950718 
L 161.358475 176.926409 
L 164.778291 176.926409 
L 164.778291 165.045746 
L 168.198107 165.045746 
L 168.198107 156.135249 
L 171.617923 156.135249 
L 171.617923 159.847956 
L 175.037739 159.847956 
L 175.037739 137.571713 
L 178.457556 137.571713 
L 178.457556 121.235801 
L 181.877372 121.235801 
L 181.877372 98.588287 
L 185.297188 98.588287 
L 185.297188 96.360663 
L 188.717004 96.360663 
L 188.717004 88.935249 
L 192.13682 88.935249 
L 192.13682 83.737459 
L 195.556636 83.737459 
L 195.556636 74.455691 
L 198.976452 74.455691 
L 198.976452 53.29326 
L 202.396269 53.29326 
L 202.396269 77.425856 
L 205.816085 77.425856 
L 205.816085 75.198232 
L 209.235901 75.198232 
L 209.235901 68.88663 
L 212.655717 68.88663 
L 212.655717 59.976133 
L 216.075533 59.976133 
L 216.075533 70.371713 
L 219.495349 70.371713 
L 219.495349 74.455691 
L 222.915165 74.455691 
L 222.915165 79.653481 
L 226.334981 79.653481 
L 226.334981 77.797127 
L 229.754798 77.797127 
L 229.754798 79.28221 
L 233.174614 79.28221 
L 233.174614 79.653481 
L 236.59443 79.653481 
L 236.59443 82.252376 
L 240.014246 82.252376 
L 240.014246 83.737459 
L 243.434062 83.737459 
L 243.434062 82.623646 
L 246.853878 82.623646 
L 246.853878 76.683315 
L 250.273694 76.683315 
L 250.273694 93.390497 
L 253.693511 93.390497 
L 253.693511 106.013702 
L 257.113327 106.013702 
L 257.113327 85.593812 
L 260.533143 85.593812 
L 260.533143 104.528619 
L 263.952959 104.528619 
L 263.952959 116.038011 
L 267.372775 116.038011 
L 267.372775 101.187182 
L 270.792591 101.187182 
L 270.792591 103.786077 
L 274.212407 103.786077 
L 274.212407 109.726409 
L 277.632224 109.726409 
L 277.632224 104.528619 
L 281.05204 104.528619 
L 281.05204 102.672265 
L 284.471856 102.672265 
L 284.471856 121.235801 
L 287.891672 121.235801 
L 287.891672 119.750718 
L 291.311488 119.750718 
L 291.311488 127.176133 
L 294.731304 127.176133 
L 294.731304 125.69105 
L 298.15112 125.69105 
L 298.15112 123.463425 
L 301.570937 123.463425 
L 301.570937 127.176133 
L 304.990753 127.176133 
L 304.990753 129.032486 
L 308.410569 129.032486 
L 308.410569 124.948508 
L 311.830385 124.948508 
L 311.830385 140.541878 
L 315.250201 140.541878 
L 315.250201 137.571713 
L 318.670017 137.571713 
L 318.670017 142.398232 
L 322.089833 142.398232 
L 322.089833 139.056796 
L 325.50965 139.056796 
L 325.50965 144.997127 
L 328.929466 144.997127 
L 328.929466 150.566188 
L 332.349282 150.566188 
L 332.349282 159.476685 
L 335.769098 159.476685 
L 335.769098 173.213702 
L 339.188914 173.213702 
L 339.188914 178.782762 
L 342.60873 178.782762 
L 342.60873 191.405967 
L 346.028546 191.405967 
L 346.028546 199.202652 
L 349.448362 199.202652 
L 349.448362 201.059006 
L 352.868179 201.059006 
L 352.868179 206.999337 
L 356.287995 206.999337 
L 356.287995 207.741878 
L 359.707811 207.741878 
L 359.707811 213.68221 
L 363.127627 213.68221 
L 363.127627 216.281105 
L 366.547443 216.281105 
L 366.547443 216.281105 
" clip-path="url(#p0691c52442)" style="fill: none; stroke: #9467bd; stroke-width: 1.5; stroke-linecap: square"/>
   </g>
   <g id="patch_3">
    <path d="M 46.965625 228.96 
L 46.965625 7.2 
" style="fill: none; stroke: #000000; stroke-width: 0.8; stroke-linejoin: miter; stroke-linecap: square"/>
   </g>
   <g id="patch_4">
    <path d="M 381.765625 228.96 
L 381.765625 7.2 
" style="fill: none; stroke: #000000; stroke-width: 0.8; stroke-linejoin: miter; stroke-linecap: square"/>
   </g>
   <g id="patch_5">
    <path d="M 46.965625 228.96 
L 381.765625 228.96 
" style="fill: none; stroke: #000000; stroke-width: 0.8; stroke-linejoin: miter; stroke-linecap: square"/>
   </g>
   <g id="patch_6">
    <path d="M 46.965625 7.2 
L 381.765625 7.2 
" style="fill: none; stroke: #000000; stroke-width: 0.8; stroke-linejoin: miter; stroke-linecap: square"/>
   </g>
   <g id="legend_1">
    <g id="patch_7">
     <path d="M 300.542188 88.590625 
L 374.765625 88.590625 
Q 376.765625 88.590625 376.765625 86.590625 
L 376.765625 14.2 
Q 376.765625 12.2 374.765625 12.2 
L 300.542188 12.2 
Q 298.542188 12.2 298.542188 14.2 
L 298.542188 86.590625 
Q 298.542188 88.590625 300.542188 88.590625 
z
" style="fill: #ffffff; opacity: 0.8; stroke: #cccccc; stroke-linejoin: miter"/>
    </g>
    <g id="line2d_18">
     <path d="M 302.542188 20.298437 
L 302.542188 20.298437 
L 312.542188 20.298437 
L 312.542188 20.298437 
L 322.542188 20.298437 
" style="fill: none; stroke: #1f77b4; stroke-width: 1.5; stroke-linecap: square"/>
    </g>
    <g id="text_15">
     <!-- beam -->
     <g transform="translate(330.542188 23.798437) scale(0.1 -0.1)">
      <defs>
       <path id="DejaVuSans-62" d="M 3116 1747 
Q 3116 2381 2855 2742 
Q 2594 3103 2138 3103 
Q 1681 3103 1420 2742 
Q 1159 2381 1159 1747 
Q 1159 1113 1420 752 
Q 1681 391 2138 391 
Q 2594 391 2855 752 
Q 3116 1113 3116 1747 
z
M 1159 2969 
Q 1341 3281 1617 3432 
Q 1894 3584 2278 3584 
Q 2916 3584 3314 3078 
Q 3713 2572 3713 1747 
Q 3713 922 3314 415 
Q 2916 -91 2278 -91 
Q 1894 -91 1617 61 
Q 1341 213 1159 525 
L 1159 0 
L 581 0 
L 581 4863 
L 1159 4863 
L 1159 2969 
z
" transform="scale(0.015625)"/>
       <path id="DejaVuSans-6d" d="M 3328 2828 
Q 3544 3216 3844 3400 
Q 4144 3584 4550 3584 
Q 5097 3584 5394 3201 
Q 5691 2819 5691 2113 
L 5691 0 
L 5113 0 
L 5113 2094 
Q 5113 2597 4934 2840 
Q 4756 3084 4391 3084 
Q 3944 3084 3684 2787 
Q 3425 2491 3425 1978 
L 3425 0 
L 2847 0 
L 2847 2094 
Q 2847 2600 2669 2842 
Q 2491 3084 2119 3084 
Q 1678 3084 1418 2786 
Q 1159 2488 1159 1978 
L 1159 0 
L 581 0 
L 581 3500 
L 1159 3500 
L 1159 2956 
Q 1356 3278 1631 3431 
Q 1906 3584 2284 3584 
Q 2666 3584 2933 3390 
Q 3200 3197 3328 2828 
z
" transform="scale(0.015625)"/>
      </defs>
      <use xlink:href="#DejaVuSans-62"/>
      <use xlink:href="#DejaVuSans-65" transform="translate(63.476562 0)"/>
      <use xlink:href="#DejaVuSans-61" transform="translate(125 0)"/>
      <use xlink:href="#DejaVuSans-6d" transform="translate(186.279297 0)"/>
     </g>
    </g>
    <g id="line2d_19">
     <path d="M 302.542188 34.976562 
L 302.542188 34.976562 
L 312.542188 34.976562 
L 312.542188 34.976562 
L 322.542188 34.976562 
" style="fill: none; stroke: #ff7f0e; stroke-width: 1.5; stroke-linecap: square"/>
    </g>
    <g id="text_16">
     <!-- sample -->
     <g transform="translate(330.542188 38.476562) scale(0.1 -0.1)">
      <defs>
       <path id="DejaVuSans-70" d="M 1159 525 
L 1159 -1331 
L 581 -1331 
L 581 3500 
L 1159 3500 
L 1159 2969 
Q 1341 3281 1617 3432 
Q 1894 3584 2278 3584 
Q 2916 3584 3314 3078 
Q 3713 2572 3713 1747 
Q 3713 922 3314 415 
Q 2916 -91 2278 -91 
Q 1894 -91 1617 61 
Q 1341 213 1159 525 
z
M 3116 1747 
Q 3116 2381 2855 2742 
Q 2594 3103 2138 3103 
Q 1681 3103 1420 2742 
Q 1159 2381 1159 1747 
Q 1159 1113 1420 752 
Q 1681 391 2138 391 
Q 2594 391 2855 752 
Q 3116 1113 3116 1747 
z
" transform="scale(0.015625)"/>
      </defs>
      <use xlink:href="#DejaVuSans-73"/>
      <use xlink:href="#DejaVuSans-61" transform="translate(52.099609 0)"/>
      <use xlink:href="#DejaVuSans-6d" transform="translate(113.378906 0)"/>
      <use xlink:href="#DejaVuSans-70" transform="translate(210.791016 0)"/>
      <use xlink:href="#DejaVuSans-6c" transform="translate(274.267578 0)"/>
      <use xlink:href="#DejaVuSans-65" transform="translate(302.050781 0)"/>
     </g>
    </g>
    <g id="line2d_20">
     <path d="M 302.542188 49.654687 
L 302.542188 49.654687 
L 312.542188 49.654687 
L 312.542188 49.654687 
L 322.542188 49.654687 
" style="fill: none; stroke: #2ca02c; stroke-width: 1.5; stroke-linecap: square"/>
    </g>
    <g id="text_17">
     <!-- monitor -->
     <g transform="translate(330.542188 53.154687) scale(0.1 -0.1)">
      <defs>
       <path id="DejaVuSans-69" d="M 603 3500 
L 1178 3500 
L 1178 0 
L 603 0 
L 603 3500 
z
M 603 4863 
L 1178 4863 
L 1178 4134 
L 603 4134 
L 603 4863 
z
" transform="scale(0.015625)"/>
       <path id="DejaVuSans-72" d="M 2631 2963 
Q 2534 3019 2420 3045 
Q 2306 3072 2169 3072 
Q 1681 3072 1420 2755 
Q 1159 2438 1159 1844 
L 1159 0 
L 581 0 
L 581 3500 
L 1159 3500 
L 1159 2956 
Q 1341 3275 1631 3429 
Q 1922 3584 2338 3584 
Q 2397 3584 2469 3576 
Q 2541 3569 2628 3553 
L 2631 2963 
z
" transform="scale(0.015625)"/>
      </defs>
      <use xlink:href="#DejaVuSans-6d"/>
      <use xlink:href="#DejaVuSans-6f" transform="translate(97.412109 0)"/>
      <use xlink:href="#DejaVuSans-6e" transform="translate(158.59375 0)"/>
      <use xlink:href="#DejaVuSans-69" transform="translate(221.972656 0)"/>
      <use xlink:href="#DejaVuSans-74" transform="translate(249.755859 0)"/>
      <use xlink:href="#DejaVuSans-6f" transform="translate(288.964844 0)"/>
      <use xlink:href="#DejaVuSans-72" transform="translate(350.146484 0)"/>
     </g>
    </g>
    <g id="line2d_21">
     <path d="M 302.542188 64.332812 
L 302.542188 64.332812 
L 312.542188 64.332812 
L 312.542188 64.332812 
L 322.542188 64.332812 
" style="fill: none; stroke: #d62728; stroke-width: 1.5; stroke-linecap: square"/>
    </g>
    <g id="text_18">
     <!-- detector -->
     <g transform="translate(330.542188 67.832812) scale(0.1 -0.1)">
      <defs>
       <path id="DejaVuSans-64" d="M 2906 2969 
L 2906 4863 
L 3481 4863 
L 3481 0 
L 2906 0 
L 2906 525 
Q 2725 213 2448 61 
Q 2172 -91 1784 -91 
Q 1150 -91 751 415 
Q 353 922 353 1747 
Q 353 2572 751 3078 
Q 1150 3584 1784 3584 
Q 2172 3584 2448 3432 
Q 2725 3281 2906 2969 
z
M 947 1747 
Q 947 1113 1208 752 
Q 1469 391 1925 391 
Q 2381 391 2643 752 
Q 2906 1113 2906 1747 
Q 2906 2381 2643 2742 
Q 2381 3103 1925 3103 
Q 1469 3103 1208 2742 
Q 947 2381 947 1747 
z
" transform="scale(0.015625)"/>
      </defs>
      <use xlink:href="#DejaVuSans-64"/>
      <use xlink:href="#DejaVuSans-65" transform="translate(63.476562 0)"/>
      <use xlink:href="#DejaVuSans-74" transform="translate(125 0)"/>
      <use xlink:href="#DejaVuSans-65" transform="translate(164.208984 0)"/>
      <use xlink:href="#DejaVuSans-63" transform="translate(225.732422 0)"/>
      <use xlink:href="#DejaVuSans-74" transform="translate(280.712891 0)"/>
      <use xlink:href="#DejaVuSans-6f" transform="translate(319.921875 0)"/>
      <use xlink:href="#DejaVuSans-72" transform="translate(381.103516 0)"/>
     </g>
    </g>
    <g id="line2d_22">
     <path d="M 302.542188 79.010937 
L 302.542188 79.010937 
L 312.542188 79.010937 
L 312.542188 79.010937 
L 322.542188 79.010937 
" style="fill: none; stroke: #9467bd; stroke-width: 1.5; stroke-linecap: square"/>
    </g>
    <g id="text_19">
     <!-- true -->
     <g transform="translate(330.542188 82.510937) scale(0.1 -0.1)">
      <use xlink:href="#DejaVuSans-74"/>
      <use xlink:href="#DejaVuSans-72" transform="translate(39.208984 0)"/>
      <use xlink:href="#DejaVuSans-75" transform="translate(80.322266 0)"/>
      <use xlink:href="#DejaVuSans-65" transform="translate(143.701172 0)"/>
     </g>
    </g>
   </g>
  </g>
 </g>
 <defs>
  <clipPath id="p0691c52442">
   <rect x="46.965625" y="7.2" width="334.8" height="221.76"/>
  </clipPath>
 </defs>
</svg>
