<?xml version="1.0" encoding="utf-8" standalone="no"?>
<!DOCTYPE svg PUBLIC "-//W3C//DTD SVG 1.1//EN"
  "http://www.w3.org/Graphics/SVG/1.1/DTD/svg11.dtd">
<svg xmlns:xlink="http://www.w3.org/1999/xlink" width="388.965625pt" height="266.794375pt" viewBox="0 0 388.965625 266.794375" xmlns="http://www.w3.org/2000/svg" version="1.1">
 <metadata>
  <rdf:RDF xmlns:dc="http://purl.org/dc/elements/1.1/" xmlns:cc="http://creativecommons.org/ns#" xmlns:rdf="http://www.w3.org/1999/02/22-rdf-syntax-ns#">
   <cc:Work>
    <dc:type rdf:resource="http://purl.org/dc/dcmitype/StillImage"/>
    <dc:date>2026-06-04T11:42:16.263935</dc:date>
    <dc:format>image/svg+xml</dc:format>
    <dc:creator>
     <cc:Agent>
      <dc:title>Matplotlib v3.10.9, https://matplotlib.org/</dc:title>
     </cc:Agent>
    </dc:creator>
   </cc:Work>
  </rdf:RDF>
 </metadata>
 <defs>
  <style type="text/css">*{stroke-linejoin: round; stroke-linecap: butt}</style>
 </defs>
 <g id="figure_1">
  <g id="patch_1">
   <path d="M 0 266.794375 
L 388.965625 266.794375 
L 388.965625 0 
L 0 0 
z
" style="fill: #ffffff"/>
  </g>
  <g id="axes_1">
   <g id="patch_2">
    <path d="M 46.965625 228.96 
L 381.765625 228.96 
L 381.765625 7.2 
L 46.965625 7.2 
z
" style="fill: #ffffff"/>
   </g>
   <g id="matplotlib.axis_1">
    <g id="xtick_1">
     <g id="line2d_1">
      <defs>
       <path id="mde65e58cfd" d="M 0 0 
L 0 3.5 
" style="stroke: #000000; stroke-width: 0.8"/>
      </defs>
      <g>
       <use xlink:href="#mde65e58cfd" x="62.18062" y="228.96" style="stroke: #000000; stroke-width: 0.8"/>
      </g>
     </g>
     <g id="text_1">
      <!-- 0 -->
      <g transform="translate(58.99937 243.558437) scale(0.1 -0.1)">
       <defs>
        <path id="DejaVuSans-30" d="M 2034 4250 
Q 1547 4250 1301 3770 
Q 1056 3291 1056 2328 
Q 1056 1369 1301 889 
Q 1547 409 2034 409 
Q 2525 409 2770 889 
Q 3016 1369 3016 2328 
Q 3016 3291 2770 3770 
Q 2525 4250 2034 4250 
z
M 2034 4750 
Q 2819 4750 3233 4129 
Q 3647 3509 3647 2328 
Q 3647 1150 3233 529 
Q 2819 -91 2034 -91 
Q 1250 -91 836 529 
Q 422 1150 422 2328 
Q 422 3509 836 4129 
Q 1250 4750 2034 4750 
z
" transform="scale(0.015625)"/>
       </defs>
       <use xlink:href="#DejaVuSans-30"/>
      </g>
     </g>
    </g>
    <g id="xtick_2">
     <g id="line2d_2">
      <g>
       <use xlink:href="#mde65e58cfd" x="104.792068" y="228.96" style="stroke: #000000; stroke-width: 0.8"/>
      </g>
     </g>
     <g id="text_2">
      <!-- 10000 -->
      <g transform="translate(88.885818 243.558437) scale(0.1 -0.1)">
       <defs>
        <path id="DejaVuSans-31" d="M 794 531 
L 1825 531 
L 1825 4091 
L 703 3866 
L 703 4441 
L 1819 4666 
L 2450 4666 
L 2450 531 
L 3481 531 
L 3481 0 
L 794 0 
L 794 531 
z
" transform="scale(0.015625)"/>
       </defs>
       <use xlink:href="#DejaVuSans-31"/>
       <use xlink:href="#DejaVuSans-30" transform="translate(63.623047 0)"/>
       <use xlink:href="#DejaVuSans-30" transform="translate(127.246094 0)"/>
       <use xlink:href="#DejaVuSans-30" transform="translate(190.869141 0)"/>
       <use xlink:href="#DejaVuSans-30" transform="translate(254.492188 0)"/>
      </g>
     </g>
    </g>
    <g id="xtick_3">
     <g id="line2d_3">
      <g>
       <use xlink:href="#mde65e58cfd" x="147.403515" y="228.96" style="stroke: #000000; stroke-width: 0.8"/>
      </g>
     </g>
     <g id="text_3">
      <!-- 20000 -->
      <g transform="translate(131.497265 243.558437) scale(0.1 -0.1)">
       <defs>
        <path id="DejaVuSans-32" d="M 1228 531 
L 3431 531 
L 3431 0 
L 469 0 
L 469 531 
Q 828 903 1448 1529 
Q 2069 2156 2228 2338 
Q 2531 2678 2651 2914 
Q 2772 3150 2772 3378 
Q 2772 3750 2511 3984 
Q 2250 4219 1831 4219 
Q 1534 4219 1204 4116 
Q 875 4013 500 3803 
L 500 4441 
Q 881 4594 1212 4672 
Q 1544 4750 1819 4750 
Q 2544 4750 2975 4387 
Q 3406 4025 3406 3419 
Q 3406 3131 3298 2873 
Q 3191 2616 2906 2266 
Q 2828 2175 2409 1742 
Q 1991 1309 1228 531 
z
" transform="scale(0.015625)"/>
       </defs>
       <use xlink:href="#DejaVuSans-32"/>
       <use xlink:href="#DejaVuSans-30" transform="translate(63.623047 0)"/>
       <use xlink:href="#DejaVuSans-30" transform="translate(127.246094 0)"/>
       <use xlink:href="#DejaVuSans-30" transform="translate(190.869141 0)"/>
       <use xlink:href="#DejaVuSans-30" transform="translate(254.492188 0)"/>
      </g>
     </g>
    </g>
    <g id="xtick_4">
     <g id="line2d_4">
      <g>
       <use xlink:href="#mde65e58cfd" x="190.014962" y="228.96" style="stroke: #000000; stroke-width: 0.8"/>
      </g>
     </g>
     <g id="text_4">
      <!-- 30000 -->
      <g transform="translate(174.108712 243.558437) scale(0.1 -0.1)">
       <defs>
        <path id="DejaVuSans-33" d="M 2597 2516 
Q 3050 2419 3304 2112 
Q 3559 1806 3559 1356 
Q 3559 666 3084 287 
Q 2609 -91 1734 -91 
Q 1441 -91 1130 -33 
Q 819 25 488 141 
L 488 750 
Q 750 597 1062 519 
Q 1375 441 1716 441 
Q 2309 441 2620 675 
Q 2931 909 2931 1356 
Q 2931 1769 2642 2001 
Q 2353 2234 1838 2234 
L 1294 2234 
L 1294 2753 
L 1863 2753 
Q 2328 2753 2575 2939 
Q 2822 3125 2822 3475 
Q 2822 3834 2567 4026 
Q 2313 4219 1838 4219 
Q 1578 4219 1281 4162 
Q 984 4106 628 3988 
L 628 4550 
Q 988 4650 1302 4700 
Q 1616 4750 1894 4750 
Q 2613 4750 3031 4423 
Q 3450 4097 3450 3541 
Q 3450 3153 3228 2886 
Q 3006 2619 2597 2516 
z
" transform="scale(0.015625)"/>
       </defs>
       <use xlink:href="#DejaVuSans-33"/>
       <use xlink:href="#DejaVuSans-30" transform="translate(63.623047 0)"/>
       <use xlink:href="#DejaVuSans-30" transform="translate(127.246094 0)"/>
       <use xlink:href="#DejaVuSans-30" transform="translate(190.869141 0)"/>
       <use xlink:href="#DejaVuSans-30" transform="translate(254.492188 0)"/>
      </g>
     </g>
    </g>
    <g id="xtick_5">
     <g id="line2d_5">
      <g>
       <use xlink:href="#mde65e58cfd" x="232.626409" y="228.96" style="stroke: #000000; stroke-width: 0.8"/>
      </g>
     </g>
     <g id="text_5">
      <!-- 40000 -->
      <g transform="translate(216.720159 243.558437) scale(0.1 -0.1)">
       <defs>
        <path id="DejaVuSans-34" d="M 2419 4116 
L 825 1625 
L 2419 1625 
L 2419 4116 
z
M 2253 4666 
L 3047 4666 
L 3047 1625 
L 3713 1625 
L 3713 1100 
L 3047 1100 
L 3047 0 
L 2419 0 
L 2419 1100 
L 313 1100 
L 313 1709 
L 2253 4666 
z
" transform="scale(0.015625)"/>
       </defs>
       <use xlink:href="#DejaVuSans-34"/>
       <use xlink:href="#DejaVuSans-30" transform="translate(63.623047 0)"/>
       <use xlink:href="#DejaVuSans-30" transform="translate(127.246094 0)"/>
       <use xlink:href="#DejaVuSans-30" transform="translate(190.869141 0)"/>
       <use xlink:href="#DejaVuSans-30" transform="translate(254.492188 0)"/>
      </g>
     </g>
    </g>
    <g id="xtick_6">
     <g id="line2d_6">
      <g>
       <use xlink:href="#mde65e58cfd" x="275.237856" y="228.96" style="stroke: #000000; stroke-width: 0.8"/>
      </g>
     </g>
     <g id="text_6">
      <!-- 50000 -->
      <g transform="translate(259.331606 243.558437) scale(0.1 -0.1)">
       <defs>
        <path id="DejaVuSans-35" d="M 691 4666 
L 3169 4666 
L 3169 4134 
L 1269 4134 
L 1269 2991 
Q 1406 3038 1543 3061 
Q 1681 3084 1819 3084 
Q 2600 3084 3056 2656 
Q 3513 2228 3513 1497 
Q 3513 744 3044 326 
Q 2575 -91 1722 -91 
Q 1428 -91 1123 -41 
Q 819 9 494 109 
L 494 744 
Q 775 591 1075 516 
Q 1375 441 1709 441 
Q 2250 441 2565 725 
Q 2881 1009 2881 1497 
Q 2881 1984 2565 2268 
Q 2250 2553 1709 2553 
Q 1456 2553 1204 2497 
Q 953 2441 691 2322 
L 691 4666 
z
" transform="scale(0.015625)"/>
       </defs>
       <use xlink:href="#DejaVuSans-35"/>
       <use xlink:href="#DejaVuSans-30" transform="translate(63.623047 0)"/>
       <use xlink:href="#DejaVuSans-30" transform="translate(127.246094 0)"/>
       <use xlink:href="#DejaVuSans-30" transform="translate(190.869141 0)"/>
       <use xlink:href="#DejaVuSans-30" transform="translate(254.492188 0)"/>
      </g>
     </g>
    </g>
    <g id="xtick_7">
     <g id="line2d_7">
      <g>
       <use xlink:href="#mde65e58cfd" x="317.849303" y="228.96" style="stroke: #000000; stroke-width: 0.8"/>
      </g>
     </g>
     <g id="text_7">
      <!-- 60000 -->
      <g transform="translate(301.943053 243.558437) scale(0.1 -0.1)">
       <defs>
        <path id="DejaVuSans-36" d="M 2113 2584 
Q 1688 2584 1439 2293 
Q 1191 2003 1191 1497 
Q 1191 994 1439 701 
Q 1688 409 2113 409 
Q 2538 409 2786 701 
Q 3034 994 3034 1497 
Q 3034 2003 2786 2293 
Q 2538 2584 2113 2584 
z
M 3366 4563 
L 3366 3988 
Q 3128 4100 2886 4159 
Q 2644 4219 2406 4219 
Q 1781 4219 1451 3797 
Q 1122 3375 1075 2522 
Q 1259 2794 1537 2939 
Q 1816 3084 2150 3084 
Q 2853 3084 3261 2657 
Q 3669 2231 3669 1497 
Q 3669 778 3244 343 
Q 2819 -91 2113 -91 
Q 1303 -91 875 529 
Q 447 1150 447 2328 
Q 447 3434 972 4092 
Q 1497 4750 2381 4750 
Q 2619 4750 2861 4703 
Q 3103 4656 3366 4563 
z
" transform="scale(0.015625)"/>
       </defs>
       <use xlink:href="#DejaVuSans-36"/>
       <use xlink:href="#DejaVuSans-30" transform="translate(63.623047 0)"/>
       <use xlink:href="#DejaVuSans-30" transform="translate(127.246094 0)"/>
       <use xlink:href="#DejaVuSans-30" transform="translate(190.869141 0)"/>
       <use xlink:href="#DejaVuSans-30" transform="translate(254.492188 0)"/>
      </g>
     </g>
    </g>
    <g id="xtick_8">
     <g id="line2d_8">
      <g>
       <use xlink:href="#mde65e58cfd" x="360.46075" y="228.96" style="stroke: #000000; stroke-width: 0.8"/>
      </g>
     </g>
     <g id="text_8">
      <!-- 70000 -->
      <g transform="translate(344.5545 243.558437) scale(0.1 -0.1)">
       <defs>
        <path id="DejaVuSans-37" d="M 525 4666 
L 3525 4666 
L 3525 4397 
L 1831 0 
L 1172 0 
L 2766 4134 
L 525 4134 
L 525 4666 
z
" transform="scale(0.015625)"/>
       </defs>
       <use xlink:href="#DejaVuSans-37"/>
       <use xlink:href="#DejaVuSans-30" transform="translate(63.623047 0)"/>
       <use xlink:href="#DejaVuSans-30" transform="translate(127.246094 0)"/>
       <use xlink:href="#DejaVuSans-30" transform="translate(190.869141 0)"/>
       <use xlink:href="#DejaVuSans-30" transform="translate(254.492188 0)"/>
      </g>
     </g>
    </g>
    <g id="text_9">
     <!-- event_time_offset [µs] -->
     <g transform="translate(158.330469 257.236562) scale(0.1 -0.1)">
      <defs>
       <path id="DejaVuSans-65" d="M 3597 1894 
L 3597 1613 
L 953 1613 
Q 991 1019 1311 708 
Q 1631 397 2203 397 
Q 2534 397 2845 478 
Q 3156 559 3463 722 
L 3463 178 
Q 3153 47 2828 -22 
Q 2503 -91 2169 -91 
Q 1331 -91 842 396 
Q 353 884 353 1716 
Q 353 2575 817 3079 
Q 1281 3584 2069 3584 
Q 2775 3584 3186 3129 
Q 3597 2675 3597 1894 
z
M 3022 2063 
Q 3016 2534 2758 2815 
Q 2500 3097 2075 3097 
Q 1594 3097 1305 2825 
Q 1016 2553 972 2059 
L 3022 2063 
z
" transform="scale(0.015625)"/>
       <path id="DejaVuSans-76" d="M 191 3500 
L 800 3500 
L 1894 563 
L 2988 3500 
L 3597 3500 
L 2284 0 
L 1503 0 
L 191 3500 
z
" transform="scale(0.015625)"/>
       <path id="DejaVuSans-6e" d="M 3513 2113 
L 3513 0 
L 2938 0 
L 2938 2094 
Q 2938 2591 2744 2837 
Q 2550 3084 2163 3084 
Q 1697 3084 1428 2787 
Q 1159 2491 1159 1978 
L 1159 0 
L 581 0 
L 581 3500 
L 1159 3500 
L 1159 2956 
Q 1366 3272 1645 3428 
Q 1925 3584 2291 3584 
Q 2894 3584 3203 3211 
Q 3513 2838 3513 2113 
z
" transform="scale(0.015625)"/>
       <path id="DejaVuSans-74" d="M 1172 4494 
L 1172 3500 
L 2356 3500 
L 2356 3053 
L 1172 3053 
L 1172 1153 
Q 1172 725 1289 603 
Q 1406 481 1766 481 
L 2356 481 
L 2356 0 
L 1766 0 
Q 1100 0 847 248 
Q 594 497 594 1153 
L 594 3053 
L 172 3053 
L 172 3500 
L 594 3500 
L 594 4494 
L 1172 4494 
z
" transform="scale(0.015625)"/>
       <path id="DejaVuSans-5f" d="M 3263 -1063 
L 3263 -1509 
L -63 -1509 
L -63 -1063 
L 3263 -1063 
z
" transform="scale(0.015625)"/>
       <path id="DejaVuSans-69" d="M 603 3500 
L 1178 3500 
L 1178 0 
L 603 0 
L 603 3500 
z
M 603 4863 
L 1178 4863 
L 1178 4134 
L 603 4134 
L 603 4863 
z
" transform="scale(0.015625)"/>
       <path id="DejaVuSans-6d" d="M 3328 2828 
Q 3544 3216 3844 3400 
Q 4144 3584 4550 3584 
Q 5097 3584 5394 3201 
Q 5691 2819 5691 2113 
L 5691 0 
L 5113 0 
L 5113 2094 
Q 5113 2597 4934 2840 
Q 4756 3084 4391 3084 
Q 3944 3084 3684 2787 
Q 3425 2491 3425 1978 
L 3425 0 
L 2847 0 
L 2847 2094 
Q 2847 2600 2669 2842 
Q 2491 3084 2119 3084 
Q 1678 3084 1418 2786 
Q 1159 2488 1159 1978 
L 1159 0 
L 581 0 
L 581 3500 
L 1159 3500 
L 1159 2956 
Q 1356 3278 1631 3431 
Q 1906 3584 2284 3584 
Q 2666 3584 2933 3390 
Q 3200 3197 3328 2828 
z
" transform="scale(0.015625)"/>
       <path id="DejaVuSans-6f" d="M 1959 3097 
Q 1497 3097 1228 2736 
Q 959 2375 959 1747 
Q 959 1119 1226 758 
Q 1494 397 1959 397 
Q 2419 397 2687 759 
Q 2956 1122 2956 1747 
Q 2956 2369 2687 2733 
Q 2419 3097 1959 3097 
z
M 1959 3584 
Q 2709 3584 3137 3096 
Q 3566 2609 3566 1747 
Q 3566 888 3137 398 
Q 2709 -91 1959 -91 
Q 1206 -91 779 398 
Q 353 888 353 1747 
Q 353 2609 779 3096 
Q 1206 3584 1959 3584 
z
" transform="scale(0.015625)"/>
       <path id="DejaVuSans-66" d="M 2375 4863 
L 2375 4384 
L 1825 4384 
Q 1516 4384 1395 4259 
Q 1275 4134 1275 3809 
L 1275 3500 
L 2222 3500 
L 2222 3053 
L 1275 3053 
L 1275 0 
L 697 0 
L 697 3053 
L 147 3053 
L 147 3500 
L 697 3500 
L 697 3744 
Q 697 4328 969 4595 
Q 1241 4863 1831 4863 
L 2375 4863 
z
" transform="scale(0.015625)"/>
       <path id="DejaVuSans-73" d="M 2834 3397 
L 2834 2853 
Q 2591 2978 2328 3040 
Q 2066 3103 1784 3103 
Q 1356 3103 1142 2972 
Q 928 2841 928 2578 
Q 928 2378 1081 2264 
Q 1234 2150 1697 2047 
L 1894 2003 
Q 2506 1872 2764 1633 
Q 3022 1394 3022 966 
Q 3022 478 2636 193 
Q 2250 -91 1575 -91 
Q 1294 -91 989 -36 
Q 684 19 347 128 
L 347 722 
Q 666 556 975 473 
Q 1284 391 1588 391 
Q 1994 391 2212 530 
Q 2431 669 2431 922 
Q 2431 1156 2273 1281 
Q 2116 1406 1581 1522 
L 1381 1569 
Q 847 1681 609 1914 
Q 372 2147 372 2553 
Q 372 3047 722 3315 
Q 1072 3584 1716 3584 
Q 2034 3584 2315 3537 
Q 2597 3491 2834 3397 
z
" transform="scale(0.015625)"/>
       <path id="DejaVuSans-20" transform="scale(0.015625)"/>
       <path id="DejaVuSans-5b" d="M 550 4863 
L 1875 4863 
L 1875 4416 
L 1125 4416 
L 1125 -397 
L 1875 -397 
L 1875 -844 
L 550 -844 
L 550 4863 
z
" transform="scale(0.015625)"/>
       <path id="DejaVuSans-b5" d="M 544 -1331 
L 544 3500 
L 1119 3500 
L 1119 1325 
Q 1119 872 1334 640 
Q 1550 409 1972 409 
Q 2434 409 2667 671 
Q 2900 934 2900 1459 
L 2900 3500 
L 3475 3500 
L 3475 806 
Q 3475 619 3529 530 
Q 3584 441 3700 441 
Q 3728 441 3778 458 
Q 3828 475 3916 513 
L 3916 50 
Q 3788 -22 3673 -56 
Q 3559 -91 3450 -91 
Q 3234 -91 3106 31 
Q 2978 153 2931 403 
Q 2775 156 2548 32 
Q 2322 -91 2016 -91 
Q 1697 -91 1473 31 
Q 1250 153 1119 397 
L 1119 -1331 
L 544 -1331 
z
" transform="scale(0.015625)"/>
       <path id="DejaVuSans-5d" d="M 1947 4863 
L 1947 -844 
L 622 -844 
L 622 -397 
L 1369 -397 
L 1369 4416 
L 622 4416 
L 622 4863 
L 1947 4863 
z
" transform="scale(0.015625)"/>
      </defs>
      <use xlink:href="#DejaVuSans-65"/>
      <use xlink:href="#DejaVuSans-76" transform="translate(61.523438 0)"/>
      <use xlink:href="#DejaVuSans-65" transform="translate(120.703125 0)"/>
      <use xlink:href="#DejaVuSans-6e" transform="translate(182.226562 0)"/>
      <use xlink:href="#DejaVuSans-74" transform="translate(245.605469 0)"/>
      <use xlink:href="#DejaVuSans-5f" transform="translate(284.814453 0)"/>
      <use xlink:href="#DejaVuSans-74" transform="translate(334.814453 0)"/>
      <use xlink:href="#DejaVuSans-69" transform="translate(374.023438 0)"/>
      <use xlink:href="#DejaVuSans-6d" transform="translate(401.806641 0)"/>
      <use xlink:href="#DejaVuSans-65" transform="translate(499.21875 0)"/>
      <use xlink:href="#DejaVuSans-5f" transform="translate(560.742188 0)"/>
      <use xlink:href="#DejaVuSans-6f" transform="translate(610.742188 0)"/>
      <use xlink:href="#DejaVuSans-66" transform="translate(671.923828 0)"/>
      <use xlink:href="#DejaVuSans-66" transform="translate(707.128906 0)"/>
      <use xlink:href="#DejaVuSans-73" transform="translate(742.333984 0)"/>
      <use xlink:href="#DejaVuSans-65" transform="translate(794.433594 0)"/>
      <use xlink:href="#DejaVuSans-74" transform="translate(855.957031 0)"/>
      <use xlink:href="#DejaVuSans-20" transform="translate(895.166016 0)"/>
      <use xlink:href="#DejaVuSans-5b" transform="translate(926.953125 0)"/>
      <use xlink:href="#DejaVuSans-b5" transform="translate(965.966797 0)"/>
      <use xlink:href="#DejaVuSans-73" transform="translate(1029.589844 0)"/>
      <use xlink:href="#DejaVuSans-5d" transform="translate(1081.689453 0)"/>
     </g>
    </g>
   </g>
   <g id="matplotlib.axis_2">
    <g id="ytick_1">
     <g id="line2d_9">
      <defs>
       <path id="m54fed408ac" d="M 0 0 
L -3.5 0 
" style="stroke: #000000; stroke-width: 0.8"/>
      </defs>
      <g>
       <use xlink:href="#m54fed408ac" x="46.965625" y="218.88" style="stroke: #000000; stroke-width: 0.8"/>
      </g>
     </g>
     <g id="text_10">
      <!-- 0 -->
      <g transform="translate(33.603125 222.679219) scale(0.1 -0.1)">
       <use xlink:href="#DejaVuSans-30"/>
      </g>
     </g>
    </g>
    <g id="ytick_2">
     <g id="line2d_10">
      <g>
       <use xlink:href="#m54fed408ac" x="46.965625" y="189.232941" style="stroke: #000000; stroke-width: 0.8"/>
      </g>
     </g>
     <g id="text_11">
      <!-- 50 -->
      <g transform="translate(27.240625 193.03216) scale(0.1 -0.1)">
       <use xlink:href="#DejaVuSans-35"/>
       <use xlink:href="#DejaVuSans-30" transform="translate(63.623047 0)"/>
      </g>
     </g>
    </g>
    <g id="ytick_3">
     <g id="line2d_11">
      <g>
       <use xlink:href="#m54fed408ac" x="46.965625" y="159.585882" style="stroke: #000000; stroke-width: 0.8"/>
      </g>
     </g>
     <g id="text_12">
      <!-- 100 -->
      <g transform="translate(20.878125 163.385101) scale(0.1 -0.1)">
       <use xlink:href="#DejaVuSans-31"/>
       <use xlink:href="#DejaVuSans-30" transform="translate(63.623047 0)"/>
       <use xlink:href="#DejaVuSans-30" transform="translate(127.246094 0)"/>
      </g>
     </g>
    </g>
    <g id="ytick_4">
     <g id="line2d_12">
      <g>
       <use xlink:href="#m54fed408ac" x="46.965625" y="129.938824" style="stroke: #000000; stroke-width: 0.8"/>
      </g>
     </g>
     <g id="text_13">
      <!-- 150 -->
      <g transform="translate(20.878125 133.738042) scale(0.1 -0.1)">
       <use xlink:href="#DejaVuSans-31"/>
       <use xlink:href="#DejaVuSans-35" transform="translate(63.623047 0)"/>
       <use xlink:href="#DejaVuSans-30" transform="translate(127.246094 0)"/>
      </g>
     </g>
    </g>
    <g id="ytick_5">
     <g id="line2d_13">
      <g>
       <use xlink:href="#m54fed408ac" x="46.965625" y="100.291765" style="stroke: #000000; stroke-width: 0.8"/>
      </g>
     </g>
     <g id="text_14">
      <!-- 200 -->
      <g transform="translate(20.878125 104.090983) scale(0.1 -0.1)">
       <use xlink:href="#DejaVuSans-32"/>
       <use xlink:href="#DejaVuSans-30" transform="translate(63.623047 0)"/>
       <use xlink:href="#DejaVuSans-30" transform="translate(127.246094 0)"/>
      </g>
     </g>
    </g>
    <g id="ytick_6">
     <g id="line2d_14">
      <g>
       <use xlink:href="#m54fed408ac" x="46.965625" y="70.644706" style="stroke: #000000; stroke-width: 0.8"/>
      </g>
     </g>
     <g id="text_15">
      <!-- 250 -->
      <g transform="translate(20.878125 74.443925) scale(0.1 -0.1)">
       <use xlink:href="#DejaVuSans-32"/>
       <use xlink:href="#DejaVuSans-35" transform="translate(63.623047 0)"/>
       <use xlink:href="#DejaVuSans-30" transform="translate(127.246094 0)"/>
      </g>
     </g>
    </g>
    <g id="ytick_7">
     <g id="line2d_15">
      <g>
       <use xlink:href="#m54fed408ac" x="46.965625" y="40.997647" style="stroke: #000000; stroke-width: 0.8"/>
      </g>
     </g>
     <g id="text_16">
      <!-- 300 -->
      <g transform="translate(20.878125 44.796866) scale(0.1 -0.1)">
       <use xlink:href="#DejaVuSans-33"/>
       <use xlink:href="#DejaVuSans-30" transform="translate(63.623047 0)"/>
       <use xlink:href="#DejaVuSans-30" transform="translate(127.246094 0)"/>
      </g>
     </g>
    </g>
    <g id="ytick_8">
     <g id="line2d_16">
      <g>
       <use xlink:href="#m54fed408ac" x="46.965625" y="11.350588" style="stroke: #000000; stroke-width: 0.8"/>
      </g>
     </g>
     <g id="text_17">
      <!-- 350 -->
      <g transform="translate(20.878125 15.149807) scale(0.1 -0.1)">
       <use xlink:href="#DejaVuSans-33"/>
       <use xlink:href="#DejaVuSans-35" transform="translate(63.623047 0)"/>
       <use xlink:href="#DejaVuSans-30" transform="translate(127.246094 0)"/>
      </g>
     </g>
    </g>
    <g id="text_18">
     <!-- [counts] -->
     <g transform="translate(14.798438 138.6925) rotate(-90) scale(0.1 -0.1)">
      <defs>
       <path id="DejaVuSans-63" d="M 3122 3366 
L 3122 2828 
Q 2878 2963 2633 3030 
Q 2388 3097 2138 3097 
Q 1578 3097 1268 2742 
Q 959 2388 959 1747 
Q 959 1106 1268 751 
Q 1578 397 2138 397 
Q 2388 397 2633 464 
Q 2878 531 3122 666 
L 3122 134 
Q 2881 22 2623 -34 
Q 2366 -91 2075 -91 
Q 1284 -91 818 406 
Q 353 903 353 1747 
Q 353 2603 823 3093 
Q 1294 3584 2113 3584 
Q 2378 3584 2631 3529 
Q 2884 3475 3122 3366 
z
" transform="scale(0.015625)"/>
       <path id="DejaVuSans-75" d="M 544 1381 
L 544 3500 
L 1119 3500 
L 1119 1403 
Q 1119 906 1312 657 
Q 1506 409 1894 409 
Q 2359 409 2629 706 
Q 2900 1003 2900 1516 
L 2900 3500 
L 3475 3500 
L 3475 0 
L 2900 0 
L 2900 538 
Q 2691 219 2414 64 
Q 2138 -91 1772 -91 
Q 1169 -91 856 284 
Q 544 659 544 1381 
z
M 1991 3584 
L 1991 3584 
z
" transform="scale(0.015625)"/>
      </defs>
      <use xlink:href="#DejaVuSans-5b"/>
      <use xlink:href="#DejaVuSans-63" transform="translate(39.013672 0)"/>
      <use xlink:href="#DejaVuSans-6f" transform="translate(93.994141 0)"/>
      <use xlink:href="#DejaVuSans-75" transform="translate(155.175781 0)"/>
      <use xlink:href="#DejaVuSans-6e" transform="translate(218.554688 0)"/>
      <use xlink:href="#DejaVuSans-74" transform="translate(281.933594 0)"/>
      <use xlink:href="#DejaVuSans-73" transform="translate(321.142578 0)"/>
      <use xlink:href="#DejaVuSans-5d" transform="translate(373.242188 0)"/>
     </g>
    </g>
   </g>
   <g id="line2d_17">
    <path d="M 62.183807 157.807059 
L 63.198352 157.807059 
L 63.198352 142.390588 
L 64.212898 142.390588 
L 64.212898 150.691765 
L 65.227443 150.691765 
L 65.227443 154.249412 
L 66.241989 154.249412 
L 66.241989 155.435294 
L 67.256534 155.435294 
L 67.256534 166.701176 
L 68.27108 166.701176 
L 68.27108 157.214118 
L 69.285625 157.214118 
L 69.285625 154.249412 
L 70.30017 154.249412 
L 70.30017 158.992941 
L 71.314716 158.992941 
L 71.314716 142.390588 
L 72.329261 142.390588 
L 72.329261 158.992941 
L 73.343807 158.992941 
L 73.343807 172.037647 
L 74.358352 172.037647 
L 74.358352 154.249412 
L 75.372898 154.249412 
L 75.372898 171.444706 
L 76.387443 171.444706 
L 76.387443 156.621176 
L 77.401989 156.621176 
L 77.401989 166.108235 
L 78.416534 166.108235 
L 78.416534 169.665882 
L 79.43108 169.665882 
L 79.43108 154.249412 
L 80.445625 154.249412 
L 80.445625 155.435294 
L 81.46017 155.435294 
L 81.46017 145.355294 
L 82.474716 145.355294 
L 82.474716 155.435294 
L 83.489261 155.435294 
L 83.489261 170.258824 
L 84.503807 170.258824 
L 84.503807 153.063529 
L 85.518352 153.063529 
L 85.518352 166.108235 
L 86.532898 166.108235 
L 86.532898 169.665882 
L 87.547443 169.665882 
L 87.547443 158.4 
L 88.561989 158.4 
L 88.561989 167.887059 
L 89.576534 167.887059 
L 89.576534 161.364706 
L 90.59108 161.364706 
L 90.59108 168.48 
L 91.605625 168.48 
L 91.605625 162.550588 
L 92.62017 162.550588 
L 92.62017 172.037647 
L 93.634716 172.037647 
L 93.634716 172.630588 
L 94.649261 172.630588 
L 94.649261 167.887059 
L 95.663807 167.887059 
L 95.663807 169.072941 
L 96.678352 169.072941 
L 96.678352 173.223529 
L 97.692898 173.223529 
L 97.692898 173.816471 
L 98.707443 173.816471 
L 98.707443 175.595294 
L 99.721989 175.595294 
L 99.721989 163.736471 
L 100.736534 163.736471 
L 100.736534 178.56 
L 101.75108 178.56 
L 101.75108 182.117647 
L 102.765625 182.117647 
L 102.765625 176.781176 
L 103.78017 176.781176 
L 103.78017 179.745882 
L 104.794716 179.745882 
L 104.794716 177.967059 
L 105.809261 177.967059 
L 105.809261 184.489412 
L 106.823807 184.489412 
L 106.823807 182.117647 
L 107.838352 182.117647 
L 107.838352 186.268235 
L 108.852898 186.268235 
L 108.852898 188.64 
L 109.867443 188.64 
L 109.867443 214.136471 
L 110.881989 214.136471 
L 110.881989 218.287059 
L 111.896534 218.287059 
L 111.896534 218.88 
L 120.012898 218.88 
L 120.012898 212.357647 
L 121.027443 212.357647 
L 121.027443 192.197647 
L 122.041989 192.197647 
L 122.041989 178.56 
L 123.056534 178.56 
L 123.056534 166.108235 
L 124.07108 166.108235 
L 124.07108 182.710588 
L 125.085625 182.710588 
L 125.085625 170.258824 
L 126.10017 170.258824 
L 126.10017 171.444706 
L 127.114716 171.444706 
L 127.114716 177.967059 
L 128.129261 177.967059 
L 128.129261 172.630588 
L 129.143807 172.630588 
L 129.143807 173.223529 
L 130.158352 173.223529 
L 130.158352 176.781176 
L 131.172898 176.781176 
L 131.172898 185.082353 
L 132.187443 185.082353 
L 132.187443 173.816471 
L 133.201989 173.816471 
L 133.201989 174.409412 
L 134.216534 174.409412 
L 134.216534 178.56 
L 135.23108 178.56 
L 135.23108 172.630588 
L 136.245625 172.630588 
L 136.245625 180.338824 
L 137.26017 180.338824 
L 137.26017 176.188235 
L 138.274716 176.188235 
L 138.274716 157.214118 
L 139.289261 157.214118 
L 139.289261 97.327059 
L 140.303807 97.327059 
L 140.303807 99.105882 
L 141.318352 99.105882 
L 141.318352 91.990588 
L 142.332898 91.990588 
L 142.332898 98.512941 
L 143.347443 98.512941 
L 143.347443 107.407059 
L 144.361989 107.407059 
L 144.361989 104.442353 
L 145.376534 104.442353 
L 145.376534 109.778824 
L 146.39108 109.778824 
L 146.39108 102.663529 
L 147.405625 102.663529 
L 147.405625 88.432941 
L 148.42017 88.432941 
L 148.42017 89.618824 
L 149.434716 89.618824 
L 149.434716 99.105882 
L 150.449261 99.105882 
L 150.449261 117.487059 
L 151.463807 117.487059 
L 151.463807 97.92 
L 152.478352 97.92 
L 152.478352 89.025882 
L 153.492898 89.025882 
L 153.492898 103.256471 
L 154.507443 103.256471 
L 154.507443 84.875294 
L 155.521989 84.875294 
L 155.521989 108.592941 
L 156.536534 108.592941 
L 156.536534 101.477647 
L 157.55108 101.477647 
L 157.55108 87.84 
L 158.565625 87.84 
L 158.565625 83.096471 
L 160.594716 83.096471 
L 160.594716 93.769412 
L 161.609261 93.769412 
L 161.609261 80.724706 
L 162.623807 80.724706 
L 162.623807 101.477647 
L 163.638352 101.477647 
L 163.638352 104.442353 
L 164.652898 104.442353 
L 164.652898 93.769412 
L 165.667443 93.769412 
L 165.667443 112.150588 
L 166.681989 112.150588 
L 166.681989 93.769412 
L 167.696534 93.769412 
L 167.696534 90.211765 
L 168.71108 90.211765 
L 168.71108 116.894118 
L 169.725625 116.894118 
L 169.725625 95.548235 
L 170.74017 95.548235 
L 170.74017 99.105882 
L 171.754716 99.105882 
L 171.754716 91.990588 
L 172.769261 91.990588 
L 172.769261 91.397647 
L 173.783807 91.397647 
L 173.783807 113.929412 
L 174.798352 113.929412 
L 174.798352 96.141176 
L 175.812898 96.141176 
L 175.812898 89.618824 
L 176.827443 89.618824 
L 176.827443 100.884706 
L 177.841989 100.884706 
L 177.841989 108.592941 
L 178.856534 108.592941 
L 178.856534 105.035294 
L 180.885625 105.035294 
L 180.885625 106.221176 
L 181.90017 106.221176 
L 181.90017 108.592941 
L 182.914716 108.592941 
L 182.914716 100.884706 
L 183.929261 100.884706 
L 183.929261 105.628235 
L 185.958352 105.628235 
L 185.958352 113.929412 
L 186.972898 113.929412 
L 186.972898 103.256471 
L 187.987443 103.256471 
L 187.987443 113.929412 
L 189.001989 113.929412 
L 189.001989 105.035294 
L 190.016534 105.035294 
L 190.016534 112.150588 
L 191.03108 112.150588 
L 191.03108 103.256471 
L 192.045625 103.256471 
L 192.045625 104.442353 
L 193.06017 104.442353 
L 193.06017 108 
L 194.074716 108 
L 194.074716 108.592941 
L 195.089261 108.592941 
L 195.089261 103.256471 
L 196.103807 103.256471 
L 196.103807 122.823529 
L 197.118352 122.823529 
L 197.118352 134.089412 
L 198.132898 134.089412 
L 198.132898 123.416471 
L 199.147443 123.416471 
L 199.147443 126.974118 
L 200.161989 126.974118 
L 200.161989 110.371765 
L 201.176534 110.371765 
L 201.176534 116.301176 
L 202.19108 116.301176 
L 202.19108 106.221176 
L 203.205625 106.221176 
L 203.205625 116.301176 
L 204.22017 116.301176 
L 204.22017 108 
L 205.234716 108 
L 205.234716 118.08 
L 206.249261 118.08 
L 206.249261 119.858824 
L 207.263807 119.858824 
L 207.263807 111.557647 
L 208.278352 111.557647 
L 208.278352 103.256471 
L 209.292898 103.256471 
L 209.292898 99.698824 
L 210.307443 99.698824 
L 210.307443 81.317647 
L 211.321989 81.317647 
L 211.321989 78.352941 
L 212.336534 78.352941 
L 212.336534 70.051765 
L 213.35108 70.051765 
L 213.35108 77.76 
L 214.365625 77.76 
L 214.365625 71.830588 
L 215.38017 71.830588 
L 215.38017 65.308235 
L 216.394716 65.308235 
L 216.394716 84.875294 
L 217.409261 84.875294 
L 217.409261 84.282353 
L 218.423807 84.282353 
L 218.423807 69.458824 
L 219.438352 69.458824 
L 219.438352 105.035294 
L 220.452898 105.035294 
L 220.452898 85.468235 
L 221.467443 85.468235 
L 221.467443 83.096471 
L 222.481989 83.096471 
L 222.481989 94.362353 
L 223.496534 94.362353 
L 223.496534 84.282353 
L 224.51108 84.282353 
L 224.51108 81.910588 
L 225.525625 81.910588 
L 225.525625 102.070588 
L 226.54017 102.070588 
L 226.54017 107.407059 
L 227.554716 107.407059 
L 227.554716 152.470588 
L 228.569261 152.470588 
L 228.569261 197.534118 
L 229.583807 197.534118 
L 229.583807 195.162353 
L 230.598352 195.162353 
L 230.598352 198.72 
L 231.612898 198.72 
L 231.612898 191.011765 
L 232.627443 191.011765 
L 232.627443 203.463529 
L 233.641989 203.463529 
L 233.641989 187.454118 
L 234.656534 187.454118 
L 234.656534 201.091765 
L 235.67108 201.091765 
L 235.67108 191.604706 
L 236.685625 191.604706 
L 236.685625 189.825882 
L 237.70017 189.825882 
L 237.70017 75.388235 
L 238.714716 75.388235 
L 238.714716 39.218824 
L 239.729261 39.218824 
L 239.729261 54.042353 
L 240.743807 54.042353 
L 240.743807 40.404706 
L 241.758352 40.404706 
L 241.758352 18.465882 
L 242.772898 18.465882 
L 242.772898 29.138824 
L 243.787443 29.138824 
L 243.787443 25.581176 
L 244.801989 25.581176 
L 244.801989 17.28 
L 245.816534 17.28 
L 245.816534 27.952941 
L 246.83108 27.952941 
L 246.83108 28.545882 
L 247.845625 28.545882 
L 247.845625 46.334118 
L 248.86017 46.334118 
L 248.86017 42.776471 
L 249.874716 42.776471 
L 249.874716 40.404706 
L 250.889261 40.404706 
L 250.889261 32.696471 
L 251.903807 32.696471 
L 251.903807 27.36 
L 252.918352 27.36 
L 252.918352 35.661176 
L 253.932898 35.661176 
L 253.932898 30.917647 
L 254.947443 30.917647 
L 254.947443 31.510588 
L 255.961989 31.510588 
L 255.961989 35.661176 
L 256.976534 35.661176 
L 256.976534 33.289412 
L 257.99108 33.289412 
L 257.99108 19.651765 
L 259.005625 19.651765 
L 259.005625 42.776471 
L 260.02017 42.776471 
L 260.02017 61.750588 
L 261.034716 61.750588 
L 261.034716 50.484706 
L 262.049261 50.484706 
L 262.049261 55.821176 
L 263.063807 55.821176 
L 263.063807 54.042353 
L 264.078352 54.042353 
L 264.078352 64.715294 
L 265.092898 64.715294 
L 265.092898 39.218824 
L 266.107443 39.218824 
L 266.107443 67.087059 
L 267.121989 67.087059 
L 267.121989 48.112941 
L 268.136534 48.112941 
L 268.136534 43.369412 
L 269.15108 43.369412 
L 269.15108 42.776471 
L 270.165625 42.776471 
L 270.165625 43.962353 
L 271.18017 43.962353 
L 271.18017 77.76 
L 272.194716 77.76 
L 272.194716 81.317647 
L 273.209261 81.317647 
L 273.209261 78.352941 
L 274.223807 78.352941 
L 274.223807 65.308235 
L 275.238352 65.308235 
L 275.238352 73.016471 
L 276.252898 73.016471 
L 276.252898 62.343529 
L 277.267443 62.343529 
L 277.267443 84.282353 
L 278.281989 84.282353 
L 278.281989 87.84 
L 279.296534 87.84 
L 279.296534 93.176471 
L 280.31108 93.176471 
L 280.31108 85.468235 
L 281.325625 85.468235 
L 281.325625 86.654118 
L 282.34017 86.654118 
L 282.34017 84.282353 
L 283.354716 84.282353 
L 283.354716 109.185882 
L 284.369261 109.185882 
L 284.369261 88.432941 
L 285.383807 88.432941 
L 285.383807 91.397647 
L 286.398352 91.397647 
L 286.398352 81.317647 
L 287.412898 81.317647 
L 287.412898 101.477647 
L 288.427443 101.477647 
L 288.427443 94.362353 
L 289.441989 94.362353 
L 289.441989 110.371765 
L 290.456534 110.371765 
L 290.456534 102.663529 
L 291.47108 102.663529 
L 291.47108 103.849412 
L 292.485625 103.849412 
L 292.485625 104.442353 
L 293.50017 104.442353 
L 293.50017 100.291765 
L 294.514716 100.291765 
L 294.514716 86.654118 
L 295.529261 86.654118 
L 295.529261 82.503529 
L 296.543807 82.503529 
L 296.543807 75.388235 
L 297.558352 75.388235 
L 297.558352 99.698824 
L 298.572898 99.698824 
L 298.572898 100.291765 
L 299.587443 100.291765 
L 299.587443 91.990588 
L 300.601989 91.990588 
L 300.601989 119.265882 
L 301.616534 119.265882 
L 301.616534 95.548235 
L 302.63108 95.548235 
L 302.63108 105.035294 
L 303.645625 105.035294 
L 303.645625 109.185882 
L 304.66017 109.185882 
L 304.66017 118.672941 
L 305.674716 118.672941 
L 305.674716 109.185882 
L 306.689261 109.185882 
L 306.689261 108 
L 307.703807 108 
L 307.703807 118.08 
L 308.718352 118.08 
L 308.718352 112.150588 
L 309.732898 112.150588 
L 309.732898 118.672941 
L 310.747443 118.672941 
L 310.747443 118.08 
L 311.761989 118.08 
L 311.761989 119.858824 
L 312.776534 119.858824 
L 312.776534 133.496471 
L 313.79108 133.496471 
L 313.79108 127.567059 
L 314.805625 127.567059 
L 314.805625 131.717647 
L 315.82017 131.717647 
L 315.82017 124.602353 
L 316.834716 124.602353 
L 316.834716 137.054118 
L 317.849261 137.054118 
L 317.849261 135.275294 
L 318.863807 135.275294 
L 318.863807 142.983529 
L 319.878352 142.983529 
L 319.878352 138.24 
L 320.892898 138.24 
L 320.892898 155.435294 
L 321.907443 155.435294 
L 321.907443 151.877647 
L 322.921989 151.877647 
L 322.921989 163.143529 
L 323.936534 163.143529 
L 323.936534 195.162353 
L 324.95108 195.162353 
L 324.95108 205.835294 
L 325.965625 205.835294 
L 325.965625 206.428235 
L 326.98017 206.428235 
L 326.98017 211.171765 
L 327.994716 211.171765 
L 327.994716 206.428235 
L 329.009261 206.428235 
L 329.009261 208.207059 
L 330.023807 208.207059 
L 330.023807 211.171765 
L 331.038352 211.171765 
L 331.038352 203.463529 
L 332.052898 203.463529 
L 332.052898 166.701176 
L 333.067443 166.701176 
L 333.067443 125.788235 
L 334.081989 125.788235 
L 334.081989 121.637647 
L 335.096534 121.637647 
L 335.096534 125.195294 
L 336.11108 125.195294 
L 336.11108 117.487059 
L 337.125625 117.487059 
L 337.125625 115.115294 
L 338.14017 115.115294 
L 338.14017 114.522353 
L 339.154716 114.522353 
L 339.154716 125.195294 
L 340.169261 125.195294 
L 340.169261 129.345882 
L 341.183807 129.345882 
L 341.183807 111.557647 
L 342.198352 111.557647 
L 342.198352 124.602353 
L 343.212898 124.602353 
L 343.212898 124.009412 
L 344.227443 124.009412 
L 344.227443 120.451765 
L 345.241989 120.451765 
L 345.241989 117.487059 
L 346.256534 117.487059 
L 346.256534 114.522353 
L 347.27108 114.522353 
L 347.27108 134.682353 
L 348.285625 134.682353 
L 348.285625 119.858824 
L 349.30017 119.858824 
L 349.30017 118.672941 
L 350.314716 118.672941 
L 350.314716 128.752941 
L 351.329261 128.752941 
L 351.329261 145.948235 
L 352.343807 145.948235 
L 352.343807 116.894118 
L 353.358352 116.894118 
L 353.358352 135.868235 
L 354.372898 135.868235 
L 354.372898 137.054118 
L 355.387443 137.054118 
L 355.387443 141.204706 
L 356.401989 141.204706 
L 356.401989 137.647059 
L 357.416534 137.647059 
L 357.416534 141.204706 
L 358.43108 141.204706 
L 358.43108 124.009412 
L 359.445625 124.009412 
L 359.445625 136.461176 
L 360.46017 136.461176 
L 360.46017 125.195294 
L 361.474716 125.195294 
L 361.474716 138.24 
L 362.489261 138.24 
L 362.489261 131.717647 
L 363.503807 131.717647 
L 363.503807 147.727059 
L 364.518352 147.727059 
L 364.518352 144.762353 
L 365.532898 144.762353 
L 365.532898 139.425882 
L 366.547443 139.425882 
L 366.547443 139.425882 
" clip-path="url(#p9a8adde0c0)" style="fill: none; stroke: #1f77b4; stroke-width: 1.5; stroke-linecap: square"/>
   </g>
   <g id="patch_3">
    <path d="M 46.965625 228.96 
L 46.965625 7.2 
" style="fill: none; stroke: #000000; stroke-width: 0.8; stroke-linejoin: miter; stroke-linecap: square"/>
   </g>
   <g id="patch_4">
    <path d="M 381.765625 228.96 
L 381.765625 7.2 
" style="fill: none; stroke: #000000; stroke-width: 0.8; stroke-linejoin: miter; stroke-linecap: square"/>
   </g>
   <g id="patch_5">
    <path d="M 46.965625 228.96 
L 381.765625 228.96 
" style="fill: none; stroke: #000000; stroke-width: 0.8; stroke-linejoin: miter; stroke-linecap: square"/>
   </g>
   <g id="patch_6">
    <path d="M 46.965625 7.2 
L 381.765625 7.2 
" style="fill: none; stroke: #000000; stroke-width: 0.8; stroke-linejoin: miter; stroke-linecap: square"/>
   </g>
  </g>
 </g>
 <defs>
  <clipPath id="p9a8adde0c0">
   <rect x="46.965625" y="7.2" width="334.8" height="221.76"/>
  </clipPath>
 </defs>
</svg>
