<?xml version="1.0" encoding="utf-8" standalone="no"?>
<!DOCTYPE svg PUBLIC "-//W3C//DTD SVG 1.1//EN"
  "http://www.w3.org/Graphics/SVG/1.1/DTD/svg11.dtd">
<svg xmlns:xlink="http://www.w3.org/1999/xlink" width="872.39952pt" height="296.39952pt" viewBox="0 0 872.39952 296.39952" xmlns="http://www.w3.org/2000/svg" version="1.1">
 <metadata>
  <rdf:RDF xmlns:dc="http://purl.org/dc/elements/1.1/" xmlns:cc="http://creativecommons.org/ns#" xmlns:rdf="http://www.w3.org/1999/02/22-rdf-syntax-ns#">
   <cc:Work>
    <dc:type rdf:resource="http://purl.org/dc/dcmitype/StillImage"/>
    <dc:date>2026-06-04T11:42:12.343455</dc:date>
    <dc:format>image/svg+xml</dc:format>
    <dc:creator>
     <cc:Agent>
      <dc:title>Matplotlib v3.10.9, https://matplotlib.org/</dc:title>
     </cc:Agent>
    </dc:creator>
   </cc:Work>
  </rdf:RDF>
 </metadata>
 <defs>
  <style type="text/css">*{stroke-linejoin: round; stroke-linecap: butt}</style>
 </defs>
 <g id="figure_1">
  <g id="patch_1">
   <path d="M 0 296.39952 
L 872.39952 296.39952 
L 872.39952 0 
L 0 0 
z
" style="fill: #ffffff"/>
  </g>
  <g id="axes_1">
   <g id="patch_2">
    <path d="M 46.965625 257.158895 
L 414.59976 257.158895 
L 414.59976 22.318125 
L 46.965625 22.318125 
z
" style="fill: #ffffff"/>
   </g>
   <g id="matplotlib.axis_1">
    <g id="xtick_1">
     <g id="line2d_1">
      <defs>
       <path id="m2d5f58d481" d="M 0 0 
L 0 3.5 
" style="stroke: #000000; stroke-width: 0.8"/>
      </defs>
      <g>
       <use xlink:href="#m2d5f58d481" x="81.266418" y="257.158895" style="stroke: #000000; stroke-width: 0.8"/>
      </g>
     </g>
     <g id="text_1">
      <!-- 1.0 -->
      <g transform="translate(73.314855 271.757332) scale(0.1 -0.1)">
       <defs>
        <path id="DejaVuSans-31" d="M 794 531 
L 1825 531 
L 1825 4091 
L 703 3866 
L 703 4441 
L 1819 4666 
L 2450 4666 
L 2450 531 
L 3481 531 
L 3481 0 
L 794 0 
L 794 531 
z
" transform="scale(0.015625)"/>
        <path id="DejaVuSans-2e" d="M 684 794 
L 1344 794 
L 1344 0 
L 684 0 
L 684 794 
z
" transform="scale(0.015625)"/>
        <path id="DejaVuSans-30" d="M 2034 4250 
Q 1547 4250 1301 3770 
Q 1056 3291 1056 2328 
Q 1056 1369 1301 889 
Q 1547 409 2034 409 
Q 2525 409 2770 889 
Q 3016 1369 3016 2328 
Q 3016 3291 2770 3770 
Q 2525 4250 2034 4250 
z
M 2034 4750 
Q 2819 4750 3233 4129 
Q 3647 3509 3647 2328 
Q 3647 1150 3233 529 
Q 2819 -91 2034 -91 
Q 1250 -91 836 529 
Q 422 1150 422 2328 
Q 422 3509 836 4129 
Q 1250 4750 2034 4750 
z
" transform="scale(0.015625)"/>
       </defs>
       <use xlink:href="#DejaVuSans-31"/>
       <use xlink:href="#DejaVuSans-2e" transform="translate(63.623047 0)"/>
       <use xlink:href="#DejaVuSans-30" transform="translate(95.410156 0)"/>
      </g>
     </g>
    </g>
    <g id="xtick_2">
     <g id="line2d_2">
      <g>
       <use xlink:href="#m2d5f58d481" x="125.241793" y="257.158895" style="stroke: #000000; stroke-width: 0.8"/>
      </g>
     </g>
     <g id="text_2">
      <!-- 1.5 -->
      <g transform="translate(117.29023 271.757332) scale(0.1 -0.1)">
       <defs>
        <path id="DejaVuSans-35" d="M 691 4666 
L 3169 4666 
L 3169 4134 
L 1269 4134 
L 1269 2991 
Q 1406 3038 1543 3061 
Q 1681 3084 1819 3084 
Q 2600 3084 3056 2656 
Q 3513 2228 3513 1497 
Q 3513 744 3044 326 
Q 2575 -91 1722 -91 
Q 1428 -91 1123 -41 
Q 819 9 494 109 
L 494 744 
Q 775 591 1075 516 
Q 1375 441 1709 441 
Q 2250 441 2565 725 
Q 2881 1009 2881 1497 
Q 2881 1984 2565 2268 
Q 2250 2553 1709 2553 
Q 1456 2553 1204 2497 
Q 953 2441 691 2322 
L 691 4666 
z
" transform="scale(0.015625)"/>
       </defs>
       <use xlink:href="#DejaVuSans-31"/>
       <use xlink:href="#DejaVuSans-2e" transform="translate(63.623047 0)"/>
       <use xlink:href="#DejaVuSans-35" transform="translate(95.410156 0)"/>
      </g>
     </g>
    </g>
    <g id="xtick_3">
     <g id="line2d_3">
      <g>
       <use xlink:href="#m2d5f58d481" x="169.217168" y="257.158895" style="stroke: #000000; stroke-width: 0.8"/>
      </g>
     </g>
     <g id="text_3">
      <!-- 2.0 -->
      <g transform="translate(161.265605 271.757332) scale(0.1 -0.1)">
       <defs>
        <path id="DejaVuSans-32" d="M 1228 531 
L 3431 531 
L 3431 0 
L 469 0 
L 469 531 
Q 828 903 1448 1529 
Q 2069 2156 2228 2338 
Q 2531 2678 2651 2914 
Q 2772 3150 2772 3378 
Q 2772 3750 2511 3984 
Q 2250 4219 1831 4219 
Q 1534 4219 1204 4116 
Q 875 4013 500 3803 
L 500 4441 
Q 881 4594 1212 4672 
Q 1544 4750 1819 4750 
Q 2544 4750 2975 4387 
Q 3406 4025 3406 3419 
Q 3406 3131 3298 2873 
Q 3191 2616 2906 2266 
Q 2828 2175 2409 1742 
Q 1991 1309 1228 531 
z
" transform="scale(0.015625)"/>
       </defs>
       <use xlink:href="#DejaVuSans-32"/>
       <use xlink:href="#DejaVuSans-2e" transform="translate(63.623047 0)"/>
       <use xlink:href="#DejaVuSans-30" transform="translate(95.410156 0)"/>
      </g>
     </g>
    </g>
    <g id="xtick_4">
     <g id="line2d_4">
      <g>
       <use xlink:href="#m2d5f58d481" x="213.192543" y="257.158895" style="stroke: #000000; stroke-width: 0.8"/>
      </g>
     </g>
     <g id="text_4">
      <!-- 2.5 -->
      <g transform="translate(205.24098 271.757332) scale(0.1 -0.1)">
       <use xlink:href="#DejaVuSans-32"/>
       <use xlink:href="#DejaVuSans-2e" transform="translate(63.623047 0)"/>
       <use xlink:href="#DejaVuSans-35" transform="translate(95.410156 0)"/>
      </g>
     </g>
    </g>
    <g id="xtick_5">
     <g id="line2d_5">
      <g>
       <use xlink:href="#m2d5f58d481" x="257.167918" y="257.158895" style="stroke: #000000; stroke-width: 0.8"/>
      </g>
     </g>
     <g id="text_5">
      <!-- 3.0 -->
      <g transform="translate(249.216355 271.757332) scale(0.1 -0.1)">
       <defs>
        <path id="DejaVuSans-33" d="M 2597 2516 
Q 3050 2419 3304 2112 
Q 3559 1806 3559 1356 
Q 3559 666 3084 287 
Q 2609 -91 1734 -91 
Q 1441 -91 1130 -33 
Q 819 25 488 141 
L 488 750 
Q 750 597 1062 519 
Q 1375 441 1716 441 
Q 2309 441 2620 675 
Q 2931 909 2931 1356 
Q 2931 1769 2642 2001 
Q 2353 2234 1838 2234 
L 1294 2234 
L 1294 2753 
L 1863 2753 
Q 2328 2753 2575 2939 
Q 2822 3125 2822 3475 
Q 2822 3834 2567 4026 
Q 2313 4219 1838 4219 
Q 1578 4219 1281 4162 
Q 984 4106 628 3988 
L 628 4550 
Q 988 4650 1302 4700 
Q 1616 4750 1894 4750 
Q 2613 4750 3031 4423 
Q 3450 4097 3450 3541 
Q 3450 3153 3228 2886 
Q 3006 2619 2597 2516 
z
" transform="scale(0.015625)"/>
       </defs>
       <use xlink:href="#DejaVuSans-33"/>
       <use xlink:href="#DejaVuSans-2e" transform="translate(63.623047 0)"/>
       <use xlink:href="#DejaVuSans-30" transform="translate(95.410156 0)"/>
      </g>
     </g>
    </g>
    <g id="xtick_6">
     <g id="line2d_6">
      <g>
       <use xlink:href="#m2d5f58d481" x="301.143293" y="257.158895" style="stroke: #000000; stroke-width: 0.8"/>
      </g>
     </g>
     <g id="text_6">
      <!-- 3.5 -->
      <g transform="translate(293.19173 271.757332) scale(0.1 -0.1)">
       <use xlink:href="#DejaVuSans-33"/>
       <use xlink:href="#DejaVuSans-2e" transform="translate(63.623047 0)"/>
       <use xlink:href="#DejaVuSans-35" transform="translate(95.410156 0)"/>
      </g>
     </g>
    </g>
    <g id="xtick_7">
     <g id="line2d_7">
      <g>
       <use xlink:href="#m2d5f58d481" x="345.118668" y="257.158895" style="stroke: #000000; stroke-width: 0.8"/>
      </g>
     </g>
     <g id="text_7">
      <!-- 4.0 -->
      <g transform="translate(337.167105 271.757332) scale(0.1 -0.1)">
       <defs>
        <path id="DejaVuSans-34" d="M 2419 4116 
L 825 1625 
L 2419 1625 
L 2419 4116 
z
M 2253 4666 
L 3047 4666 
L 3047 1625 
L 3713 1625 
L 3713 1100 
L 3047 1100 
L 3047 0 
L 2419 0 
L 2419 1100 
L 313 1100 
L 313 1709 
L 2253 4666 
z
" transform="scale(0.015625)"/>
       </defs>
       <use xlink:href="#DejaVuSans-34"/>
       <use xlink:href="#DejaVuSans-2e" transform="translate(63.623047 0)"/>
       <use xlink:href="#DejaVuSans-30" transform="translate(95.410156 0)"/>
      </g>
     </g>
    </g>
    <g id="xtick_8">
     <g id="line2d_8">
      <g>
       <use xlink:href="#m2d5f58d481" x="389.094043" y="257.158895" style="stroke: #000000; stroke-width: 0.8"/>
      </g>
     </g>
     <g id="text_8">
      <!-- 4.5 -->
      <g transform="translate(381.14248 271.757332) scale(0.1 -0.1)">
       <use xlink:href="#DejaVuSans-34"/>
       <use xlink:href="#DejaVuSans-2e" transform="translate(63.623047 0)"/>
       <use xlink:href="#DejaVuSans-35" transform="translate(95.410156 0)"/>
      </g>
     </g>
    </g>
    <g id="text_9">
     <!-- wavelength [Å] -->
     <g transform="translate(192.745193 287.119832) scale(0.1 -0.1)">
      <defs>
       <path id="DejaVuSans-77" d="M 269 3500 
L 844 3500 
L 1563 769 
L 2278 3500 
L 2956 3500 
L 3675 769 
L 4391 3500 
L 4966 3500 
L 4050 0 
L 3372 0 
L 2619 2869 
L 1863 0 
L 1184 0 
L 269 3500 
z
" transform="scale(0.015625)"/>
       <path id="DejaVuSans-61" d="M 2194 1759 
Q 1497 1759 1228 1600 
Q 959 1441 959 1056 
Q 959 750 1161 570 
Q 1363 391 1709 391 
Q 2188 391 2477 730 
Q 2766 1069 2766 1631 
L 2766 1759 
L 2194 1759 
z
M 3341 1997 
L 3341 0 
L 2766 0 
L 2766 531 
Q 2569 213 2275 61 
Q 1981 -91 1556 -91 
Q 1019 -91 701 211 
Q 384 513 384 1019 
Q 384 1609 779 1909 
Q 1175 2209 1959 2209 
L 2766 2209 
L 2766 2266 
Q 2766 2663 2505 2880 
Q 2244 3097 1772 3097 
Q 1472 3097 1187 3025 
Q 903 2953 641 2809 
L 641 3341 
Q 956 3463 1253 3523 
Q 1550 3584 1831 3584 
Q 2591 3584 2966 3190 
Q 3341 2797 3341 1997 
z
" transform="scale(0.015625)"/>
       <path id="DejaVuSans-76" d="M 191 3500 
L 800 3500 
L 1894 563 
L 2988 3500 
L 3597 3500 
L 2284 0 
L 1503 0 
L 191 3500 
z
" transform="scale(0.015625)"/>
       <path id="DejaVuSans-65" d="M 3597 1894 
L 3597 1613 
L 953 1613 
Q 991 1019 1311 708 
Q 1631 397 2203 397 
Q 2534 397 2845 478 
Q 3156 559 3463 722 
L 3463 178 
Q 3153 47 2828 -22 
Q 2503 -91 2169 -91 
Q 1331 -91 842 396 
Q 353 884 353 1716 
Q 353 2575 817 3079 
Q 1281 3584 2069 3584 
Q 2775 3584 3186 3129 
Q 3597 2675 3597 1894 
z
M 3022 2063 
Q 3016 2534 2758 2815 
Q 2500 3097 2075 3097 
Q 1594 3097 1305 2825 
Q 1016 2553 972 2059 
L 3022 2063 
z
" transform="scale(0.015625)"/>
       <path id="DejaVuSans-6c" d="M 603 4863 
L 1178 4863 
L 1178 0 
L 603 0 
L 603 4863 
z
" transform="scale(0.015625)"/>
       <path id="DejaVuSans-6e" d="M 3513 2113 
L 3513 0 
L 2938 0 
L 2938 2094 
Q 2938 2591 2744 2837 
Q 2550 3084 2163 3084 
Q 1697 3084 1428 2787 
Q 1159 2491 1159 1978 
L 1159 0 
L 581 0 
L 581 3500 
L 1159 3500 
L 1159 2956 
Q 1366 3272 1645 3428 
Q 1925 3584 2291 3584 
Q 2894 3584 3203 3211 
Q 3513 2838 3513 2113 
z
" transform="scale(0.015625)"/>
       <path id="DejaVuSans-67" d="M 2906 1791 
Q 2906 2416 2648 2759 
Q 2391 3103 1925 3103 
Q 1463 3103 1205 2759 
Q 947 2416 947 1791 
Q 947 1169 1205 825 
Q 1463 481 1925 481 
Q 2391 481 2648 825 
Q 2906 1169 2906 1791 
z
M 3481 434 
Q 3481 -459 3084 -895 
Q 2688 -1331 1869 -1331 
Q 1566 -1331 1297 -1286 
Q 1028 -1241 775 -1147 
L 775 -588 
Q 1028 -725 1275 -790 
Q 1522 -856 1778 -856 
Q 2344 -856 2625 -561 
Q 2906 -266 2906 331 
L 2906 616 
Q 2728 306 2450 153 
Q 2172 0 1784 0 
Q 1141 0 747 490 
Q 353 981 353 1791 
Q 353 2603 747 3093 
Q 1141 3584 1784 3584 
Q 2172 3584 2450 3431 
Q 2728 3278 2906 2969 
L 2906 3500 
L 3481 3500 
L 3481 434 
z
" transform="scale(0.015625)"/>
       <path id="DejaVuSans-74" d="M 1172 4494 
L 1172 3500 
L 2356 3500 
L 2356 3053 
L 1172 3053 
L 1172 1153 
Q 1172 725 1289 603 
Q 1406 481 1766 481 
L 2356 481 
L 2356 0 
L 1766 0 
Q 1100 0 847 248 
Q 594 497 594 1153 
L 594 3053 
L 172 3053 
L 172 3500 
L 594 3500 
L 594 4494 
L 1172 4494 
z
" transform="scale(0.015625)"/>
       <path id="DejaVuSans-68" d="M 3513 2113 
L 3513 0 
L 2938 0 
L 2938 2094 
Q 2938 2591 2744 2837 
Q 2550 3084 2163 3084 
Q 1697 3084 1428 2787 
Q 1159 2491 1159 1978 
L 1159 0 
L 581 0 
L 581 4863 
L 1159 4863 
L 1159 2956 
Q 1366 3272 1645 3428 
Q 1925 3584 2291 3584 
Q 2894 3584 3203 3211 
Q 3513 2838 3513 2113 
z
" transform="scale(0.015625)"/>
       <path id="DejaVuSans-20" transform="scale(0.015625)"/>
       <path id="DejaVuSans-5b" d="M 550 4863 
L 1875 4863 
L 1875 4416 
L 1125 4416 
L 1125 -397 
L 1875 -397 
L 1875 -844 
L 550 -844 
L 550 4863 
z
" transform="scale(0.015625)"/>
       <path id="DejaVuSans-c5" d="M 2663 5081 
Q 2663 5278 2523 5417 
Q 2384 5556 2188 5556 
Q 1988 5556 1852 5420 
Q 1716 5284 1716 5081 
Q 1716 4884 1853 4746 
Q 1991 4609 2188 4609 
Q 2384 4609 2523 4746 
Q 2663 4884 2663 5081 
z
M 2188 4044 
L 1338 1722 
L 3041 1722 
L 2188 4044 
z
M 1716 4366 
Q 1525 4494 1428 4673 
Q 1331 4853 1331 5081 
Q 1331 5441 1579 5691 
Q 1828 5941 2188 5941 
Q 2544 5941 2795 5689 
Q 3047 5438 3047 5081 
Q 3047 4863 2948 4678 
Q 2850 4494 2663 4366 
L 4325 0 
L 3669 0 
L 3244 1197 
L 1141 1197 
L 716 0 
L 50 0 
L 1716 4366 
z
" transform="scale(0.015625)"/>
       <path id="DejaVuSans-5d" d="M 1947 4863 
L 1947 -844 
L 622 -844 
L 622 -397 
L 1369 -397 
L 1369 4416 
L 622 4416 
L 622 4863 
L 1947 4863 
z
" transform="scale(0.015625)"/>
      </defs>
      <use xlink:href="#DejaVuSans-77"/>
      <use xlink:href="#DejaVuSans-61" transform="translate(81.787109 0)"/>
      <use xlink:href="#DejaVuSans-76" transform="translate(143.066406 0)"/>
      <use xlink:href="#DejaVuSans-65" transform="translate(202.246094 0)"/>
      <use xlink:href="#DejaVuSans-6c" transform="translate(263.769531 0)"/>
      <use xlink:href="#DejaVuSans-65" transform="translate(291.552734 0)"/>
      <use xlink:href="#DejaVuSans-6e" transform="translate(353.076172 0)"/>
      <use xlink:href="#DejaVuSans-67" transform="translate(416.455078 0)"/>
      <use xlink:href="#DejaVuSans-74" transform="translate(479.931641 0)"/>
      <use xlink:href="#DejaVuSans-68" transform="translate(519.140625 0)"/>
      <use xlink:href="#DejaVuSans-20" transform="translate(582.519531 0)"/>
      <use xlink:href="#DejaVuSans-5b" transform="translate(614.306641 0)"/>
      <use xlink:href="#DejaVuSans-c5" transform="translate(653.320312 0)"/>
      <use xlink:href="#DejaVuSans-5d" transform="translate(721.728516 0)"/>
     </g>
    </g>
   </g>
   <g id="matplotlib.axis_2">
    <g id="ytick_1">
     <g id="line2d_9">
      <defs>
       <path id="me28ace6da4" d="M 0 0 
L -3.5 0 
" style="stroke: #000000; stroke-width: 0.8"/>
      </defs>
      <g>
       <use xlink:href="#me28ace6da4" x="46.965625" y="246.484315" style="stroke: #000000; stroke-width: 0.8"/>
      </g>
     </g>
     <g id="text_10">
      <!-- 0 -->
      <g transform="translate(33.603125 250.283533) scale(0.1 -0.1)">
       <use xlink:href="#DejaVuSans-30"/>
      </g>
     </g>
    </g>
    <g id="ytick_2">
     <g id="line2d_10">
      <g>
       <use xlink:href="#me28ace6da4" x="46.965625" y="218.972509" style="stroke: #000000; stroke-width: 0.8"/>
      </g>
     </g>
     <g id="text_11">
      <!-- 100 -->
      <g transform="translate(20.878125 222.771728) scale(0.1 -0.1)">
       <use xlink:href="#DejaVuSans-31"/>
       <use xlink:href="#DejaVuSans-30" transform="translate(63.623047 0)"/>
       <use xlink:href="#DejaVuSans-30" transform="translate(127.246094 0)"/>
      </g>
     </g>
    </g>
    <g id="ytick_3">
     <g id="line2d_11">
      <g>
       <use xlink:href="#me28ace6da4" x="46.965625" y="191.460704" style="stroke: #000000; stroke-width: 0.8"/>
      </g>
     </g>
     <g id="text_12">
      <!-- 200 -->
      <g transform="translate(20.878125 195.259923) scale(0.1 -0.1)">
       <use xlink:href="#DejaVuSans-32"/>
       <use xlink:href="#DejaVuSans-30" transform="translate(63.623047 0)"/>
       <use xlink:href="#DejaVuSans-30" transform="translate(127.246094 0)"/>
      </g>
     </g>
    </g>
    <g id="ytick_4">
     <g id="line2d_12">
      <g>
       <use xlink:href="#me28ace6da4" x="46.965625" y="163.948899" style="stroke: #000000; stroke-width: 0.8"/>
      </g>
     </g>
     <g id="text_13">
      <!-- 300 -->
      <g transform="translate(20.878125 167.748117) scale(0.1 -0.1)">
       <use xlink:href="#DejaVuSans-33"/>
       <use xlink:href="#DejaVuSans-30" transform="translate(63.623047 0)"/>
       <use xlink:href="#DejaVuSans-30" transform="translate(127.246094 0)"/>
      </g>
     </g>
    </g>
    <g id="ytick_5">
     <g id="line2d_13">
      <g>
       <use xlink:href="#me28ace6da4" x="46.965625" y="136.437093" style="stroke: #000000; stroke-width: 0.8"/>
      </g>
     </g>
     <g id="text_14">
      <!-- 400 -->
      <g transform="translate(20.878125 140.236312) scale(0.1 -0.1)">
       <use xlink:href="#DejaVuSans-34"/>
       <use xlink:href="#DejaVuSans-30" transform="translate(63.623047 0)"/>
       <use xlink:href="#DejaVuSans-30" transform="translate(127.246094 0)"/>
      </g>
     </g>
    </g>
    <g id="ytick_6">
     <g id="line2d_14">
      <g>
       <use xlink:href="#me28ace6da4" x="46.965625" y="108.925288" style="stroke: #000000; stroke-width: 0.8"/>
      </g>
     </g>
     <g id="text_15">
      <!-- 500 -->
      <g transform="translate(20.878125 112.724507) scale(0.1 -0.1)">
       <use xlink:href="#DejaVuSans-35"/>
       <use xlink:href="#DejaVuSans-30" transform="translate(63.623047 0)"/>
       <use xlink:href="#DejaVuSans-30" transform="translate(127.246094 0)"/>
      </g>
     </g>
    </g>
    <g id="ytick_7">
     <g id="line2d_15">
      <g>
       <use xlink:href="#me28ace6da4" x="46.965625" y="81.413483" style="stroke: #000000; stroke-width: 0.8"/>
      </g>
     </g>
     <g id="text_16">
      <!-- 600 -->
      <g transform="translate(20.878125 85.212702) scale(0.1 -0.1)">
       <defs>
        <path id="DejaVuSans-36" d="M 2113 2584 
Q 1688 2584 1439 2293 
Q 1191 2003 1191 1497 
Q 1191 994 1439 701 
Q 1688 409 2113 409 
Q 2538 409 2786 701 
Q 3034 994 3034 1497 
Q 3034 2003 2786 2293 
Q 2538 2584 2113 2584 
z
M 3366 4563 
L 3366 3988 
Q 3128 4100 2886 4159 
Q 2644 4219 2406 4219 
Q 1781 4219 1451 3797 
Q 1122 3375 1075 2522 
Q 1259 2794 1537 2939 
Q 1816 3084 2150 3084 
Q 2853 3084 3261 2657 
Q 3669 2231 3669 1497 
Q 3669 778 3244 343 
Q 2819 -91 2113 -91 
Q 1303 -91 875 529 
Q 447 1150 447 2328 
Q 447 3434 972 4092 
Q 1497 4750 2381 4750 
Q 2619 4750 2861 4703 
Q 3103 4656 3366 4563 
z
" transform="scale(0.015625)"/>
       </defs>
       <use xlink:href="#DejaVuSans-36"/>
       <use xlink:href="#DejaVuSans-30" transform="translate(63.623047 0)"/>
       <use xlink:href="#DejaVuSans-30" transform="translate(127.246094 0)"/>
      </g>
     </g>
    </g>
    <g id="ytick_8">
     <g id="line2d_16">
      <g>
       <use xlink:href="#me28ace6da4" x="46.965625" y="53.901677" style="stroke: #000000; stroke-width: 0.8"/>
      </g>
     </g>
     <g id="text_17">
      <!-- 700 -->
      <g transform="translate(20.878125 57.700896) scale(0.1 -0.1)">
       <defs>
        <path id="DejaVuSans-37" d="M 525 4666 
L 3525 4666 
L 3525 4397 
L 1831 0 
L 1172 0 
L 2766 4134 
L 525 4134 
L 525 4666 
z
" transform="scale(0.015625)"/>
       </defs>
       <use xlink:href="#DejaVuSans-37"/>
       <use xlink:href="#DejaVuSans-30" transform="translate(63.623047 0)"/>
       <use xlink:href="#DejaVuSans-30" transform="translate(127.246094 0)"/>
      </g>
     </g>
    </g>
    <g id="ytick_9">
     <g id="line2d_17">
      <g>
       <use xlink:href="#me28ace6da4" x="46.965625" y="26.389872" style="stroke: #000000; stroke-width: 0.8"/>
      </g>
     </g>
     <g id="text_18">
      <!-- 800 -->
      <g transform="translate(20.878125 30.189091) scale(0.1 -0.1)">
       <defs>
        <path id="DejaVuSans-38" d="M 2034 2216 
Q 1584 2216 1326 1975 
Q 1069 1734 1069 1313 
Q 1069 891 1326 650 
Q 1584 409 2034 409 
Q 2484 409 2743 651 
Q 3003 894 3003 1313 
Q 3003 1734 2745 1975 
Q 2488 2216 2034 2216 
z
M 1403 2484 
Q 997 2584 770 2862 
Q 544 3141 544 3541 
Q 544 4100 942 4425 
Q 1341 4750 2034 4750 
Q 2731 4750 3128 4425 
Q 3525 4100 3525 3541 
Q 3525 3141 3298 2862 
Q 3072 2584 2669 2484 
Q 3125 2378 3379 2068 
Q 3634 1759 3634 1313 
Q 3634 634 3220 271 
Q 2806 -91 2034 -91 
Q 1263 -91 848 271 
Q 434 634 434 1313 
Q 434 1759 690 2068 
Q 947 2378 1403 2484 
z
M 1172 3481 
Q 1172 3119 1398 2916 
Q 1625 2713 2034 2713 
Q 2441 2713 2670 2916 
Q 2900 3119 2900 3481 
Q 2900 3844 2670 4047 
Q 2441 4250 2034 4250 
Q 1625 4250 1398 4047 
Q 1172 3844 1172 3481 
z
" transform="scale(0.015625)"/>
       </defs>
       <use xlink:href="#DejaVuSans-38"/>
       <use xlink:href="#DejaVuSans-30" transform="translate(63.623047 0)"/>
       <use xlink:href="#DejaVuSans-30" transform="translate(127.246094 0)"/>
      </g>
     </g>
    </g>
    <g id="text_19">
     <!-- [counts] -->
     <g transform="translate(14.798437 160.35101) rotate(-90) scale(0.1 -0.1)">
      <defs>
       <path id="DejaVuSans-63" d="M 3122 3366 
L 3122 2828 
Q 2878 2963 2633 3030 
Q 2388 3097 2138 3097 
Q 1578 3097 1268 2742 
Q 959 2388 959 1747 
Q 959 1106 1268 751 
Q 1578 397 2138 397 
Q 2388 397 2633 464 
Q 2878 531 3122 666 
L 3122 134 
Q 2881 22 2623 -34 
Q 2366 -91 2075 -91 
Q 1284 -91 818 406 
Q 353 903 353 1747 
Q 353 2603 823 3093 
Q 1294 3584 2113 3584 
Q 2378 3584 2631 3529 
Q 2884 3475 3122 3366 
z
" transform="scale(0.015625)"/>
       <path id="DejaVuSans-6f" d="M 1959 3097 
Q 1497 3097 1228 2736 
Q 959 2375 959 1747 
Q 959 1119 1226 758 
Q 1494 397 1959 397 
Q 2419 397 2687 759 
Q 2956 1122 2956 1747 
Q 2956 2369 2687 2733 
Q 2419 3097 1959 3097 
z
M 1959 3584 
Q 2709 3584 3137 3096 
Q 3566 2609 3566 1747 
Q 3566 888 3137 398 
Q 2709 -91 1959 -91 
Q 1206 -91 779 398 
Q 353 888 353 1747 
Q 353 2609 779 3096 
Q 1206 3584 1959 3584 
z
" transform="scale(0.015625)"/>
       <path id="DejaVuSans-75" d="M 544 1381 
L 544 3500 
L 1119 3500 
L 1119 1403 
Q 1119 906 1312 657 
Q 1506 409 1894 409 
Q 2359 409 2629 706 
Q 2900 1003 2900 1516 
L 2900 3500 
L 3475 3500 
L 3475 0 
L 2900 0 
L 2900 538 
Q 2691 219 2414 64 
Q 2138 -91 1772 -91 
Q 1169 -91 856 284 
Q 544 659 544 1381 
z
M 1991 3584 
L 1991 3584 
z
" transform="scale(0.015625)"/>
       <path id="DejaVuSans-73" d="M 2834 3397 
L 2834 2853 
Q 2591 2978 2328 3040 
Q 2066 3103 1784 3103 
Q 1356 3103 1142 2972 
Q 928 2841 928 2578 
Q 928 2378 1081 2264 
Q 1234 2150 1697 2047 
L 1894 2003 
Q 2506 1872 2764 1633 
Q 3022 1394 3022 966 
Q 3022 478 2636 193 
Q 2250 -91 1575 -91 
Q 1294 -91 989 -36 
Q 684 19 347 128 
L 347 722 
Q 666 556 975 473 
Q 1284 391 1588 391 
Q 1994 391 2212 530 
Q 2431 669 2431 922 
Q 2431 1156 2273 1281 
Q 2116 1406 1581 1522 
L 1381 1569 
Q 847 1681 609 1914 
Q 372 2147 372 2553 
Q 372 3047 722 3315 
Q 1072 3584 1716 3584 
Q 2034 3584 2315 3537 
Q 2597 3491 2834 3397 
z
" transform="scale(0.015625)"/>
      </defs>
      <use xlink:href="#DejaVuSans-5b"/>
      <use xlink:href="#DejaVuSans-63" transform="translate(39.013672 0)"/>
      <use xlink:href="#DejaVuSans-6f" transform="translate(93.994141 0)"/>
      <use xlink:href="#DejaVuSans-75" transform="translate(155.175781 0)"/>
      <use xlink:href="#DejaVuSans-6e" transform="translate(218.554688 0)"/>
      <use xlink:href="#DejaVuSans-74" transform="translate(281.933594 0)"/>
      <use xlink:href="#DejaVuSans-73" transform="translate(321.142578 0)"/>
      <use xlink:href="#DejaVuSans-5d" transform="translate(373.242188 0)"/>
     </g>
    </g>
   </g>
   <g id="line2d_18">
    <path d="M 63.676268 246.484315 
L 72.031589 246.484315 
L 72.031589 243.458016 
L 73.702653 243.458016 
L 73.702653 234.37912 
L 75.373717 234.37912 
L 75.373717 228.876759 
L 77.044782 228.876759 
L 77.044782 222.549044 
L 78.715846 222.549044 
L 78.715846 215.120857 
L 80.38691 215.120857 
L 80.38691 205.491725 
L 82.057974 205.491725 
L 82.057974 193.936766 
L 83.729039 193.936766 
L 83.729039 187.884169 
L 85.400103 187.884169 
L 85.400103 173.027794 
L 87.071167 173.027794 
L 87.071167 177.154565 
L 88.742231 177.154565 
L 88.742231 159.54701 
L 90.413296 159.54701 
L 90.413296 154.044649 
L 92.08436 154.044649 
L 92.08436 140.013628 
L 93.755424 140.013628 
L 93.755424 139.188274 
L 95.426488 139.188274 
L 95.426488 129.008906 
L 97.097553 129.008906 
L 97.097553 112.226705 
L 98.768617 112.226705 
L 98.768617 99.846392 
L 100.439681 99.846392 
L 100.439681 97.920566 
L 102.110745 97.920566 
L 102.110745 98.470802 
L 103.78181 98.470802 
L 103.78181 91.592851 
L 105.452874 91.592851 
L 105.452874 82.789073 
L 107.123938 82.789073 
L 107.123938 74.260413 
L 108.795002 74.260413 
L 108.795002 81.413483 
L 110.466067 81.413483 
L 110.466067 64.081045 
L 112.137131 64.081045 
L 112.137131 63.255691 
L 113.808195 63.255691 
L 113.808195 60.504511 
L 115.479259 60.504511 
L 115.479259 44.547664 
L 117.150323 44.547664 
L 117.150323 51.425615 
L 118.821388 51.425615 
L 118.821388 47.023726 
L 120.492452 47.023726 
L 120.492452 45.373018 
L 122.163516 45.373018 
L 122.163516 42.621837 
L 123.834581 42.621837 
L 123.834581 42.071601 
L 125.505645 42.071601 
L 125.505645 33.542942 
L 127.176709 33.542942 
L 127.176709 32.992705 
L 128.847773 32.992705 
L 128.847773 53.076323 
L 130.518838 53.076323 
L 130.518838 43.172073 
L 132.189902 43.172073 
L 132.189902 37.394594 
L 133.860966 37.394594 
L 133.860966 49.224671 
L 135.53203 49.224671 
L 135.53203 56.102622 
L 137.203095 56.102622 
L 137.203095 59.679157 
L 138.874159 59.679157 
L 138.874159 34.918532 
L 140.545223 34.918532 
L 140.545223 43.447191 
L 142.216287 43.447191 
L 142.216287 67.932698 
L 143.887352 67.932698 
L 143.887352 55.552386 
L 145.558416 55.552386 
L 145.558416 70.683879 
L 147.22948 70.683879 
L 147.22948 60.229393 
L 148.900544 60.229393 
L 148.900544 73.159941 
L 150.571609 73.159941 
L 150.571609 60.504511 
L 152.242673 60.504511 
L 152.242673 72.609705 
L 153.913737 72.609705 
L 153.913737 62.980573 
L 155.584801 62.980573 
L 155.584801 72.609705 
L 157.255866 72.609705 
L 157.255866 81.688601 
L 158.92693 81.688601 
L 158.92693 82.238837 
L 160.597994 82.238837 
L 160.597994 80.588129 
L 162.269058 80.588129 
L 162.269058 84.164663 
L 163.940123 84.164663 
L 163.940123 56.927976 
L 165.611187 56.927976 
L 165.611187 79.762774 
L 167.282251 79.762774 
L 167.282251 69.858525 
L 168.953315 69.858525 
L 168.953315 72.609705 
L 170.62438 72.609705 
L 170.62438 80.588129 
L 172.295444 80.588129 
L 172.295444 92.693323 
L 173.966508 92.693323 
L 173.966508 92.968441 
L 175.637572 92.968441 
L 175.637572 95.719622 
L 177.308637 95.719622 
L 177.308637 99.021038 
L 178.979701 99.021038 
L 178.979701 81.688601 
L 180.650765 81.688601 
L 180.650765 85.540254 
L 182.321829 85.540254 
L 182.321829 89.667024 
L 183.992894 89.667024 
L 183.992894 90.492379 
L 185.663958 90.492379 
L 185.663958 97.095212 
L 187.335022 97.095212 
L 187.335022 108.099934 
L 189.006086 108.099934 
L 189.006086 97.37033 
L 190.677151 97.37033 
L 190.677151 94.344031 
L 192.348215 94.344031 
L 192.348215 115.528121 
L 194.019279 115.528121 
L 194.019279 107.27458 
L 195.690343 107.27458 
L 195.690343 112.501823 
L 197.361408 112.501823 
L 197.361408 117.453948 
L 199.032472 117.453948 
L 199.032472 129.559142 
L 200.703536 129.559142 
L 200.703536 130.384496 
L 202.3746 130.384496 
L 202.3746 138.913156 
L 204.045665 138.913156 
L 204.045665 146.616461 
L 205.716729 146.616461 
L 205.716729 168.625906 
L 207.387793 168.625906 
L 207.387793 167.525433 
L 209.058857 167.525433 
L 209.058857 179.080392 
L 210.729922 179.080392 
L 210.729922 179.630628 
L 212.400986 179.630628 
L 212.400986 192.01094 
L 214.07205 192.01094 
L 214.07205 194.487003 
L 215.743114 194.487003 
L 215.743114 205.766843 
L 217.414179 205.766843 
L 217.414179 211.544322 
L 219.085243 211.544322 
L 219.085243 222.824162 
L 220.756307 222.824162 
L 220.756307 231.62794 
L 222.427371 231.62794 
L 222.427371 232.178176 
L 224.098435 232.178176 
L 224.098435 238.781009 
L 225.7695 238.781009 
L 225.7695 242.90778 
L 227.440564 242.90778 
L 227.440564 242.082426 
L 229.111628 242.082426 
L 229.111628 242.632662 
L 230.782693 242.632662 
L 230.782693 231.352822 
L 232.453757 231.352822 
L 232.453757 228.051405 
L 234.124821 228.051405 
L 234.124821 216.496447 
L 235.795885 216.496447 
L 235.795885 204.66637 
L 237.466949 204.66637 
L 237.466949 200.264482 
L 239.138014 200.264482 
L 239.138014 204.391252 
L 240.809078 204.391252 
L 240.809078 196.412829 
L 242.480142 196.412829 
L 242.480142 183.757398 
L 244.151207 183.757398 
L 244.151207 182.10669 
L 245.822271 182.10669 
L 245.822271 177.429683 
L 247.493335 177.429683 
L 247.493335 171.927322 
L 249.164399 171.927322 
L 249.164399 166.975197 
L 250.835464 166.975197 
L 250.835464 158.721656 
L 252.506528 158.721656 
L 252.506528 165.599607 
L 254.177592 165.599607 
L 254.177592 154.594885 
L 255.848656 154.594885 
L 255.848656 147.992052 
L 257.51972 147.992052 
L 257.51972 147.166697 
L 259.190785 147.166697 
L 259.190785 146.891579 
L 260.861849 146.891579 
L 260.861849 140.838982 
L 262.532913 140.838982 
L 262.532913 136.987329 
L 264.203978 136.987329 
L 264.203978 129.83426 
L 265.875042 129.83426 
L 265.875042 125.432371 
L 267.546106 125.432371 
L 267.546106 127.358198 
L 269.21717 127.358198 
L 269.21717 116.903712 
L 270.888234 116.903712 
L 270.888234 112.226705 
L 272.559299 112.226705 
L 272.559299 114.152531 
L 274.230363 114.152531 
L 274.230363 112.501823 
L 275.901427 112.501823 
L 275.901427 104.798517 
L 277.572492 104.798517 
L 277.572492 106.724344 
L 279.243556 106.724344 
L 279.243556 100.12151 
L 280.91462 100.12151 
L 280.91462 105.623871 
L 282.585684 105.623871 
L 282.585684 104.798517 
L 284.256749 104.798517 
L 284.256749 112.501823 
L 285.927813 112.501823 
L 285.927813 109.475524 
L 287.598877 109.475524 
L 287.598877 109.200406 
L 289.269941 109.200406 
L 289.269941 110.575996 
L 290.941006 110.575996 
L 290.941006 122.956309 
L 292.61207 122.956309 
L 292.61207 114.977885 
L 294.283134 114.977885 
L 294.283134 120.205128 
L 295.954198 120.205128 
L 295.954198 116.078357 
L 297.625263 116.078357 
L 297.625263 116.353475 
L 299.296327 116.353475 
L 299.296327 128.45867 
L 300.967391 128.45867 
L 300.967391 121.030482 
L 302.638455 121.030482 
L 302.638455 120.205128 
L 304.309519 120.205128 
L 304.309519 137.812684 
L 305.980584 137.812684 
L 305.980584 131.20985 
L 307.651648 131.20985 
L 307.651648 130.109378 
L 309.322712 130.109378 
L 309.322712 126.532843 
L 310.993777 126.532843 
L 310.993777 132.860559 
L 312.664841 132.860559 
L 312.664841 127.08308 
L 314.335905 127.08308 
L 314.335905 135.336621 
L 316.006969 135.336621 
L 316.006969 147.716934 
L 317.678033 147.716934 
L 317.678033 151.01835 
L 319.349098 151.01835 
L 319.349098 141.389218 
L 321.020162 141.389218 
L 321.020162 148.817406 
L 322.691226 148.817406 
L 322.691226 146.616461 
L 324.362291 146.616461 
L 324.362291 155.970475 
L 326.033355 155.970475 
L 326.033355 156.245593 
L 327.704419 156.245593 
L 327.704419 161.747954 
L 329.375483 161.747954 
L 329.375483 157.896301 
L 331.046547 157.896301 
L 331.046547 160.097246 
L 332.717612 160.097246 
L 332.717612 161.747954 
L 334.388676 161.747954 
L 334.388676 166.149843 
L 336.05974 166.149843 
L 336.05974 168.625906 
L 337.730805 168.625906 
L 337.730805 167.525433 
L 339.401869 167.525433 
L 339.401869 170.82685 
L 341.072933 170.82685 
L 341.072933 172.752676 
L 342.743997 172.752676 
L 342.743997 171.927322 
L 344.415062 171.927322 
L 344.415062 177.429683 
L 346.086126 177.429683 
L 346.086126 187.609051 
L 347.75719 187.609051 
L 347.75719 187.058815 
L 349.428254 187.058815 
L 349.428254 183.757398 
L 351.099318 183.757398 
L 351.099318 193.661648 
L 352.770383 193.661648 
L 352.770383 192.836294 
L 354.441447 192.836294 
L 354.441447 191.460704 
L 356.112511 191.460704 
L 356.112511 205.216607 
L 357.783576 205.216607 
L 357.783576 202.740544 
L 359.45464 202.740544 
L 359.45464 206.317079 
L 361.125704 206.317079 
L 361.125704 213.745266 
L 362.796768 213.745266 
L 362.796768 207.967787 
L 364.467832 207.967787 
L 364.467832 217.321801 
L 366.138897 217.321801 
L 366.138897 221.998808 
L 369.481025 221.998808 
L 369.481025 223.649516 
L 371.15209 223.649516 
L 371.15209 228.051405 
L 372.823154 228.051405 
L 372.823154 230.527467 
L 374.494218 230.527467 
L 374.494218 233.278648 
L 376.165282 233.278648 
L 376.165282 235.75471 
L 377.836346 235.75471 
L 377.836346 237.405419 
L 379.507411 237.405419 
L 379.507411 239.606363 
L 381.178475 239.606363 
L 381.178475 242.90778 
L 382.849539 242.90778 
L 382.849539 243.458016 
L 384.520603 243.458016 
L 384.520603 244.28337 
L 386.191668 244.28337 
L 386.191668 245.934078 
L 387.862732 245.934078 
L 387.862732 246.209196 
L 391.204861 246.209196 
L 391.204861 246.484315 
L 397.889117 246.484315 
L 397.889117 246.484315 
" clip-path="url(#p49f190bc4c)" style="fill: none; stroke: #1f77b4; stroke-width: 1.5; stroke-linecap: square"/>
   </g>
   <g id="line2d_19">
    <path d="M 63.676268 246.484315 
L 72.031589 246.484315 
L 72.031589 243.458016 
L 73.702653 243.458016 
L 73.702653 234.654238 
L 75.373717 234.654238 
L 75.373717 228.876759 
L 77.044782 228.876759 
L 77.044782 221.72369 
L 78.715846 221.72369 
L 78.715846 215.395975 
L 80.38691 215.395975 
L 80.38691 204.116134 
L 82.057974 204.116134 
L 82.057974 194.211884 
L 83.729039 194.211884 
L 83.729039 188.709523 
L 85.400103 188.709523 
L 85.400103 174.403385 
L 87.071167 174.403385 
L 87.071167 176.879447 
L 88.742231 176.879447 
L 88.742231 159.271892 
L 90.413296 159.271892 
L 90.413296 147.166697 
L 92.08436 147.166697 
L 92.08436 145.791107 
L 93.755424 145.791107 
L 93.755424 135.611739 
L 95.426488 135.611739 
L 95.426488 131.20985 
L 97.097553 131.20985 
L 97.097553 107.27458 
L 98.768617 107.27458 
L 98.768617 108.099934 
L 100.439681 108.099934 
L 100.439681 93.518677 
L 102.110745 93.518677 
L 102.110745 105.898989 
L 103.78181 105.898989 
L 103.78181 83.064191 
L 105.452874 83.064191 
L 105.452874 86.640726 
L 107.123938 86.640726 
L 107.123938 78.112066 
L 108.795002 78.112066 
L 108.795002 72.059469 
L 110.466067 72.059469 
L 110.466067 64.631282 
L 112.137131 64.631282 
L 112.137131 59.12892 
L 113.808195 59.12892 
L 113.808195 58.578684 
L 115.479259 58.578684 
L 115.479259 48.949553 
L 117.150323 48.949553 
L 117.150323 60.229393 
L 118.821388 60.229393 
L 118.821388 43.172073 
L 120.492452 43.172073 
L 120.492452 46.47349 
L 122.163516 46.47349 
L 122.163516 33.81806 
L 123.834581 33.81806 
L 123.834581 42.071601 
L 125.505645 42.071601 
L 125.505645 33.542942 
L 127.176709 33.542942 
L 127.176709 51.700733 
L 128.847773 51.700733 
L 128.847773 42.896955 
L 130.518838 42.896955 
L 130.518838 44.822782 
L 132.189902 44.822782 
L 132.189902 35.19365 
L 133.860966 35.19365 
L 133.860966 50.050025 
L 135.53203 50.050025 
L 135.53203 61.880101 
L 137.203095 61.880101 
L 137.203095 53.076323 
L 138.874159 53.076323 
L 138.874159 37.94483 
L 140.545223 37.94483 
L 140.545223 56.37774 
L 142.216287 56.37774 
L 142.216287 52.801205 
L 143.887352 52.801205 
L 143.887352 54.727032 
L 145.558416 54.727032 
L 145.558416 70.133643 
L 147.22948 70.133643 
L 147.22948 70.408761 
L 148.900544 70.408761 
L 148.900544 66.557108 
L 150.571609 66.557108 
L 150.571609 59.12892 
L 152.242673 59.12892 
L 152.242673 64.356163 
L 153.913737 64.356163 
L 153.913737 71.509233 
L 155.584801 71.509233 
L 155.584801 70.408761 
L 157.255866 70.408761 
L 157.255866 79.762774 
L 158.92693 79.762774 
L 158.92693 83.889545 
L 160.597994 83.889545 
L 160.597994 75.636004 
L 162.269058 75.636004 
L 162.269058 74.81065 
L 163.940123 74.81065 
L 163.940123 82.789073 
L 165.611187 82.789073 
L 165.611187 64.356163 
L 167.282251 64.356163 
L 167.282251 75.360886 
L 168.953315 75.360886 
L 168.953315 70.408761 
L 170.62438 70.408761 
L 170.62438 78.387184 
L 172.295444 78.387184 
L 172.295444 98.470802 
L 173.966508 98.470802 
L 173.966508 87.190962 
L 175.637572 87.190962 
L 175.637572 94.068913 
L 177.308637 94.068913 
L 177.308637 86.640726 
L 178.979701 86.640726 
L 178.979701 91.592851 
L 180.650765 91.592851 
L 180.650765 83.339309 
L 182.321829 83.339309 
L 182.321829 91.592851 
L 183.992894 91.592851 
L 183.992894 93.243559 
L 185.663958 93.243559 
L 185.663958 88.566552 
L 187.335022 88.566552 
L 187.335022 102.047337 
L 189.006086 102.047337 
L 189.006086 97.920566 
L 190.677151 97.920566 
L 190.677151 101.497101 
L 192.348215 101.497101 
L 192.348215 102.597573 
L 194.019279 102.597573 
L 194.019279 108.375052 
L 195.690343 108.375052 
L 195.690343 111.401351 
L 197.361408 111.401351 
L 197.361408 115.803239 
L 199.032472 115.803239 
L 199.032472 123.781663 
L 200.703536 123.781663 
L 200.703536 138.36292 
L 202.3746 138.36292 
L 202.3746 141.939454 
L 204.045665 141.939454 
L 204.045665 156.520711 
L 205.716729 156.520711 
L 205.716729 163.398663 
L 207.387793 163.398663 
L 207.387793 174.128267 
L 209.058857 174.128267 
L 209.058857 176.054093 
L 210.729922 176.054093 
L 210.729922 183.757398 
L 212.400986 183.757398 
L 212.400986 191.185586 
L 214.07205 191.185586 
L 214.07205 200.814718 
L 215.743114 200.814718 
L 215.743114 204.941489 
L 217.414179 204.941489 
L 217.414179 212.369676 
L 219.085243 212.369676 
L 219.085243 225.025106 
L 220.756307 225.025106 
L 220.756307 232.453294 
L 222.427371 232.453294 
L 222.427371 233.828884 
L 224.098435 233.828884 
L 224.098435 239.056127 
L 225.7695 239.056127 
L 225.7695 242.632662 
L 227.440564 242.632662 
L 227.440564 242.357544 
L 229.111628 242.357544 
L 229.111628 239.606363 
L 230.782693 239.606363 
L 230.782693 231.903058 
L 232.453757 231.903058 
L 232.453757 226.675815 
L 234.124821 226.675815 
L 234.124821 216.771565 
L 235.795885 216.771565 
L 235.795885 205.216607 
L 237.466949 205.216607 
L 237.466949 201.364954 
L 239.138014 201.364954 
L 239.138014 203.565898 
L 240.809078 203.565898 
L 240.809078 194.762121 
L 242.480142 194.762121 
L 242.480142 184.307635 
L 244.151207 184.307635 
L 244.151207 182.10669 
L 245.822271 182.10669 
L 245.822271 176.329211 
L 247.493335 176.329211 
L 247.493335 172.752676 
L 249.164399 172.752676 
L 249.164399 167.250315 
L 250.835464 167.250315 
L 250.835464 163.398663 
L 252.506528 163.398663 
L 252.506528 156.245593 
L 254.177592 156.245593 
L 254.177592 158.17142 
L 255.848656 158.17142 
L 255.848656 150.468114 
L 257.51972 150.468114 
L 257.51972 143.590163 
L 259.190785 143.590163 
L 259.190785 147.166697 
L 260.861849 147.166697 
L 260.861849 144.690635 
L 262.532913 144.690635 
L 262.532913 131.760086 
L 264.203978 131.760086 
L 264.203978 131.484968 
L 265.875042 131.484968 
L 265.875042 126.532843 
L 267.546106 126.532843 
L 267.546106 125.432371 
L 269.21717 125.432371 
L 269.21717 116.628594 
L 270.888234 116.628594 
L 270.888234 119.104656 
L 272.559299 119.104656 
L 272.559299 105.073635 
L 274.230363 105.073635 
L 274.230363 110.851114 
L 275.901427 110.851114 
L 275.901427 104.248281 
L 277.572492 104.248281 
L 277.572492 113.602295 
L 279.243556 113.602295 
L 279.243556 106.724344 
L 280.91462 106.724344 
L 280.91462 93.243559 
L 282.585684 93.243559 
L 282.585684 119.379774 
L 284.256749 119.379774 
L 284.256749 104.798517 
L 285.927813 104.798517 
L 285.927813 103.422927 
L 287.598877 103.422927 
L 287.598877 111.676469 
L 290.941006 111.676469 
L 290.941006 123.781663 
L 292.61207 123.781663 
L 292.61207 117.729066 
L 294.283134 117.729066 
L 294.283134 117.453948 
L 295.954198 117.453948 
L 295.954198 114.977885 
L 297.625263 114.977885 
L 297.625263 122.681191 
L 299.296327 122.681191 
L 299.296327 126.257725 
L 300.967391 126.257725 
L 300.967391 128.45867 
L 302.638455 128.45867 
L 302.638455 117.17883 
L 304.309519 117.17883 
L 304.309519 130.934732 
L 305.980584 130.934732 
L 305.980584 128.183552 
L 307.651648 128.183552 
L 307.651648 131.20985 
L 309.322712 131.20985 
L 309.322712 131.760086 
L 310.993777 131.760086 
L 310.993777 130.659614 
L 312.664841 130.659614 
L 312.664841 125.982607 
L 314.335905 125.982607 
L 314.335905 138.913156 
L 316.006969 138.913156 
L 316.006969 145.791107 
L 317.678033 145.791107 
L 317.678033 147.716934 
L 319.349098 147.716934 
L 319.349098 138.087802 
L 321.020162 138.087802 
L 321.020162 152.944177 
L 322.691226 152.944177 
L 322.691226 151.01835 
L 324.362291 151.01835 
L 324.362291 155.145121 
L 326.033355 155.145121 
L 326.033355 153.219295 
L 327.704419 153.219295 
L 327.704419 153.769531 
L 329.375483 153.769531 
L 329.375483 162.848426 
L 331.046547 162.848426 
L 331.046547 158.446538 
L 332.717612 158.446538 
L 332.717612 165.599607 
L 334.388676 165.599607 
L 334.388676 166.700079 
L 336.05974 166.700079 
L 336.05974 165.324489 
L 337.730805 165.324489 
L 337.730805 170.82685 
L 339.401869 170.82685 
L 339.401869 168.350788 
L 341.072933 168.350788 
L 341.072933 165.599607 
L 342.743997 165.599607 
L 342.743997 178.805274 
L 344.415062 178.805274 
L 344.415062 185.132989 
L 346.086126 185.132989 
L 346.086126 179.35551 
L 347.75719 179.35551 
L 347.75719 184.032517 
L 349.428254 184.032517 
L 349.428254 182.10669 
L 351.099318 182.10669 
L 351.099318 196.412829 
L 352.770383 196.412829 
L 352.770383 188.709523 
L 354.441447 188.709523 
L 354.441447 194.487003 
L 356.112511 194.487003 
L 356.112511 201.089836 
L 357.783576 201.089836 
L 357.783576 203.015662 
L 359.45464 203.015662 
L 359.45464 213.19503 
L 361.125704 213.19503 
L 361.125704 207.417551 
L 362.796768 207.417551 
L 362.796768 214.020384 
L 364.467832 214.020384 
L 364.467832 216.496447 
L 366.138897 216.496447 
L 366.138897 222.824162 
L 367.809961 222.824162 
L 367.809961 220.898336 
L 369.481025 220.898336 
L 369.481025 228.326523 
L 371.15209 228.326523 
L 371.15209 227.501169 
L 372.823154 227.501169 
L 372.823154 230.527467 
L 374.494218 230.527467 
L 374.494218 233.278648 
L 376.165282 233.278648 
L 376.165282 237.130301 
L 379.507411 237.130301 
L 379.507411 240.431717 
L 381.178475 240.431717 
L 381.178475 242.632662 
L 382.849539 242.632662 
L 382.849539 243.733134 
L 384.520603 243.733134 
L 384.520603 244.558488 
L 386.191668 244.558488 
L 386.191668 245.65896 
L 387.862732 245.65896 
L 387.862732 246.484315 
L 389.533796 246.484315 
L 389.533796 246.209196 
L 391.204861 246.209196 
L 391.204861 246.484315 
L 397.889117 246.484315 
L 397.889117 246.484315 
" clip-path="url(#p49f190bc4c)" style="fill: none; stroke: #000000; stroke-width: 1.5; stroke-linecap: square"/>
   </g>
   <g id="patch_3">
    <path d="M 46.965625 257.158895 
L 46.965625 22.318125 
" style="fill: none; stroke: #000000; stroke-width: 0.8; stroke-linejoin: miter; stroke-linecap: square"/>
   </g>
   <g id="patch_4">
    <path d="M 414.59976 257.158895 
L 414.59976 22.318125 
" style="fill: none; stroke: #000000; stroke-width: 0.8; stroke-linejoin: miter; stroke-linecap: square"/>
   </g>
   <g id="patch_5">
    <path d="M 46.965625 257.158895 
L 414.59976 257.158895 
" style="fill: none; stroke: #000000; stroke-width: 0.8; stroke-linejoin: miter; stroke-linecap: square"/>
   </g>
   <g id="patch_6">
    <path d="M 46.965625 22.318125 
L 414.59976 22.318125 
" style="fill: none; stroke: #000000; stroke-width: 0.8; stroke-linejoin: miter; stroke-linecap: square"/>
   </g>
   <g id="text_20">
    <!-- detector_number 0 -->
    <g transform="translate(173.30738 16.318125) scale(0.12 -0.12)">
     <defs>
      <path id="DejaVuSans-64" d="M 2906 2969 
L 2906 4863 
L 3481 4863 
L 3481 0 
L 2906 0 
L 2906 525 
Q 2725 213 2448 61 
Q 2172 -91 1784 -91 
Q 1150 -91 751 415 
Q 353 922 353 1747 
Q 353 2572 751 3078 
Q 1150 3584 1784 3584 
Q 2172 3584 2448 3432 
Q 2725 3281 2906 2969 
z
M 947 1747 
Q 947 1113 1208 752 
Q 1469 391 1925 391 
Q 2381 391 2643 752 
Q 2906 1113 2906 1747 
Q 2906 2381 2643 2742 
Q 2381 3103 1925 3103 
Q 1469 3103 1208 2742 
Q 947 2381 947 1747 
z
" transform="scale(0.015625)"/>
      <path id="DejaVuSans-72" d="M 2631 2963 
Q 2534 3019 2420 3045 
Q 2306 3072 2169 3072 
Q 1681 3072 1420 2755 
Q 1159 2438 1159 1844 
L 1159 0 
L 581 0 
L 581 3500 
L 1159 3500 
L 1159 2956 
Q 1341 3275 1631 3429 
Q 1922 3584 2338 3584 
Q 2397 3584 2469 3576 
Q 2541 3569 2628 3553 
L 2631 2963 
z
" transform="scale(0.015625)"/>
      <path id="DejaVuSans-5f" d="M 3263 -1063 
L 3263 -1509 
L -63 -1509 
L -63 -1063 
L 3263 -1063 
z
" transform="scale(0.015625)"/>
      <path id="DejaVuSans-6d" d="M 3328 2828 
Q 3544 3216 3844 3400 
Q 4144 3584 4550 3584 
Q 5097 3584 5394 3201 
Q 5691 2819 5691 2113 
L 5691 0 
L 5113 0 
L 5113 2094 
Q 5113 2597 4934 2840 
Q 4756 3084 4391 3084 
Q 3944 3084 3684 2787 
Q 3425 2491 3425 1978 
L 3425 0 
L 2847 0 
L 2847 2094 
Q 2847 2600 2669 2842 
Q 2491 3084 2119 3084 
Q 1678 3084 1418 2786 
Q 1159 2488 1159 1978 
L 1159 0 
L 581 0 
L 581 3500 
L 1159 3500 
L 1159 2956 
Q 1356 3278 1631 3431 
Q 1906 3584 2284 3584 
Q 2666 3584 2933 3390 
Q 3200 3197 3328 2828 
z
" transform="scale(0.015625)"/>
      <path id="DejaVuSans-62" d="M 3116 1747 
Q 3116 2381 2855 2742 
Q 2594 3103 2138 3103 
Q 1681 3103 1420 2742 
Q 1159 2381 1159 1747 
Q 1159 1113 1420 752 
Q 1681 391 2138 391 
Q 2594 391 2855 752 
Q 3116 1113 3116 1747 
z
M 1159 2969 
Q 1341 3281 1617 3432 
Q 1894 3584 2278 3584 
Q 2916 3584 3314 3078 
Q 3713 2572 3713 1747 
Q 3713 922 3314 415 
Q 2916 -91 2278 -91 
Q 1894 -91 1617 61 
Q 1341 213 1159 525 
L 1159 0 
L 581 0 
L 581 4863 
L 1159 4863 
L 1159 2969 
z
" transform="scale(0.015625)"/>
     </defs>
     <use xlink:href="#DejaVuSans-64"/>
     <use xlink:href="#DejaVuSans-65" transform="translate(63.476562 0)"/>
     <use xlink:href="#DejaVuSans-74" transform="translate(125 0)"/>
     <use xlink:href="#DejaVuSans-65" transform="translate(164.208984 0)"/>
     <use xlink:href="#DejaVuSans-63" transform="translate(225.732422 0)"/>
     <use xlink:href="#DejaVuSans-74" transform="translate(280.712891 0)"/>
     <use xlink:href="#DejaVuSans-6f" transform="translate(319.921875 0)"/>
     <use xlink:href="#DejaVuSans-72" transform="translate(381.103516 0)"/>
     <use xlink:href="#DejaVuSans-5f" transform="translate(422.216797 0)"/>
     <use xlink:href="#DejaVuSans-6e" transform="translate(472.216797 0)"/>
     <use xlink:href="#DejaVuSans-75" transform="translate(535.595703 0)"/>
     <use xlink:href="#DejaVuSans-6d" transform="translate(598.974609 0)"/>
     <use xlink:href="#DejaVuSans-62" transform="translate(696.386719 0)"/>
     <use xlink:href="#DejaVuSans-65" transform="translate(759.863281 0)"/>
     <use xlink:href="#DejaVuSans-72" transform="translate(821.386719 0)"/>
     <use xlink:href="#DejaVuSans-20" transform="translate(862.5 0)"/>
     <use xlink:href="#DejaVuSans-30" transform="translate(894.287109 0)"/>
    </g>
   </g>
   <g id="legend_1">
    <g id="patch_7">
     <path d="M 310.596635 59.9525 
L 407.59976 59.9525 
Q 409.59976 59.9525 409.59976 57.9525 
L 409.59976 29.318125 
Q 409.59976 27.318125 407.59976 27.318125 
L 310.596635 27.318125 
Q 308.596635 27.318125 308.596635 29.318125 
L 308.596635 57.9525 
Q 308.596635 59.9525 310.596635 59.9525 
z
" style="fill: #ffffff; opacity: 0.8; stroke: #cccccc; stroke-linejoin: miter"/>
    </g>
    <g id="line2d_20">
     <path d="M 312.596635 35.416562 
L 312.596635 35.416562 
L 322.596635 35.416562 
L 322.596635 35.416562 
L 332.596635 35.416562 
" style="fill: none; stroke: #1f77b4; stroke-width: 1.5; stroke-linecap: square"/>
    </g>
    <g id="text_21">
     <!-- wfm -->
     <g transform="translate(340.596635 38.916562) scale(0.1 -0.1)">
      <defs>
       <path id="DejaVuSans-66" d="M 2375 4863 
L 2375 4384 
L 1825 4384 
Q 1516 4384 1395 4259 
Q 1275 4134 1275 3809 
L 1275 3500 
L 2222 3500 
L 2222 3053 
L 1275 3053 
L 1275 0 
L 697 0 
L 697 3053 
L 147 3053 
L 147 3500 
L 697 3500 
L 697 3744 
Q 697 4328 969 4595 
Q 1241 4863 1831 4863 
L 2375 4863 
z
" transform="scale(0.015625)"/>
      </defs>
      <use xlink:href="#DejaVuSans-77"/>
      <use xlink:href="#DejaVuSans-66" transform="translate(81.787109 0)"/>
      <use xlink:href="#DejaVuSans-6d" transform="translate(116.992188 0)"/>
     </g>
    </g>
    <g id="line2d_21">
     <path d="M 312.596635 50.094687 
L 312.596635 50.094687 
L 322.596635 50.094687 
L 322.596635 50.094687 
L 332.596635 50.094687 
" style="fill: none; stroke: #000000; stroke-width: 1.5; stroke-linecap: square"/>
    </g>
    <g id="text_22">
     <!-- ground_truth -->
     <g transform="translate(340.596635 53.594687) scale(0.1 -0.1)">
      <use xlink:href="#DejaVuSans-67"/>
      <use xlink:href="#DejaVuSans-72" transform="translate(63.476562 0)"/>
      <use xlink:href="#DejaVuSans-6f" transform="translate(102.339844 0)"/>
      <use xlink:href="#DejaVuSans-75" transform="translate(163.521484 0)"/>
      <use xlink:href="#DejaVuSans-6e" transform="translate(226.900391 0)"/>
      <use xlink:href="#DejaVuSans-64" transform="translate(290.279297 0)"/>
      <use xlink:href="#DejaVuSans-5f" transform="translate(353.755859 0)"/>
      <use xlink:href="#DejaVuSans-74" transform="translate(403.755859 0)"/>
      <use xlink:href="#DejaVuSans-72" transform="translate(442.964844 0)"/>
      <use xlink:href="#DejaVuSans-75" transform="translate(484.078125 0)"/>
      <use xlink:href="#DejaVuSans-74" transform="translate(547.457031 0)"/>
      <use xlink:href="#DejaVuSans-68" transform="translate(586.666016 0)"/>
     </g>
    </g>
   </g>
  </g>
  <g id="axes_2">
   <g id="patch_8">
    <path d="M 497.565385 257.158895 
L 865.19952 257.158895 
L 865.19952 22.318125 
L 497.565385 22.318125 
z
" style="fill: #ffffff"/>
   </g>
   <g id="matplotlib.axis_3">
    <g id="xtick_9">
     <g id="line2d_22">
      <g>
       <use xlink:href="#m2d5f58d481" x="531.866178" y="257.158895" style="stroke: #000000; stroke-width: 0.8"/>
      </g>
     </g>
     <g id="text_23">
      <!-- 1.0 -->
      <g transform="translate(523.914615 271.757332) scale(0.1 -0.1)">
       <use xlink:href="#DejaVuSans-31"/>
       <use xlink:href="#DejaVuSans-2e" transform="translate(63.623047 0)"/>
       <use xlink:href="#DejaVuSans-30" transform="translate(95.410156 0)"/>
      </g>
     </g>
    </g>
    <g id="xtick_10">
     <g id="line2d_23">
      <g>
       <use xlink:href="#m2d5f58d481" x="575.841553" y="257.158895" style="stroke: #000000; stroke-width: 0.8"/>
      </g>
     </g>
     <g id="text_24">
      <!-- 1.5 -->
      <g transform="translate(567.88999 271.757332) scale(0.1 -0.1)">
       <use xlink:href="#DejaVuSans-31"/>
       <use xlink:href="#DejaVuSans-2e" transform="translate(63.623047 0)"/>
       <use xlink:href="#DejaVuSans-35" transform="translate(95.410156 0)"/>
      </g>
     </g>
    </g>
    <g id="xtick_11">
     <g id="line2d_24">
      <g>
       <use xlink:href="#m2d5f58d481" x="619.816928" y="257.158895" style="stroke: #000000; stroke-width: 0.8"/>
      </g>
     </g>
     <g id="text_25">
      <!-- 2.0 -->
      <g transform="translate(611.865365 271.757332) scale(0.1 -0.1)">
       <use xlink:href="#DejaVuSans-32"/>
       <use xlink:href="#DejaVuSans-2e" transform="translate(63.623047 0)"/>
       <use xlink:href="#DejaVuSans-30" transform="translate(95.410156 0)"/>
      </g>
     </g>
    </g>
    <g id="xtick_12">
     <g id="line2d_25">
      <g>
       <use xlink:href="#m2d5f58d481" x="663.792303" y="257.158895" style="stroke: #000000; stroke-width: 0.8"/>
      </g>
     </g>
     <g id="text_26">
      <!-- 2.5 -->
      <g transform="translate(655.84074 271.757332) scale(0.1 -0.1)">
       <use xlink:href="#DejaVuSans-32"/>
       <use xlink:href="#DejaVuSans-2e" transform="translate(63.623047 0)"/>
       <use xlink:href="#DejaVuSans-35" transform="translate(95.410156 0)"/>
      </g>
     </g>
    </g>
    <g id="xtick_13">
     <g id="line2d_26">
      <g>
       <use xlink:href="#m2d5f58d481" x="707.767677" y="257.158895" style="stroke: #000000; stroke-width: 0.8"/>
      </g>
     </g>
     <g id="text_27">
      <!-- 3.0 -->
      <g transform="translate(699.816115 271.757332) scale(0.1 -0.1)">
       <use xlink:href="#DejaVuSans-33"/>
       <use xlink:href="#DejaVuSans-2e" transform="translate(63.623047 0)"/>
       <use xlink:href="#DejaVuSans-30" transform="translate(95.410156 0)"/>
      </g>
     </g>
    </g>
    <g id="xtick_14">
     <g id="line2d_27">
      <g>
       <use xlink:href="#m2d5f58d481" x="751.743052" y="257.158895" style="stroke: #000000; stroke-width: 0.8"/>
      </g>
     </g>
     <g id="text_28">
      <!-- 3.5 -->
      <g transform="translate(743.79149 271.757332) scale(0.1 -0.1)">
       <use xlink:href="#DejaVuSans-33"/>
       <use xlink:href="#DejaVuSans-2e" transform="translate(63.623047 0)"/>
       <use xlink:href="#DejaVuSans-35" transform="translate(95.410156 0)"/>
      </g>
     </g>
    </g>
    <g id="xtick_15">
     <g id="line2d_28">
      <g>
       <use xlink:href="#m2d5f58d481" x="795.718427" y="257.158895" style="stroke: #000000; stroke-width: 0.8"/>
      </g>
     </g>
     <g id="text_29">
      <!-- 4.0 -->
      <g transform="translate(787.766865 271.757332) scale(0.1 -0.1)">
       <use xlink:href="#DejaVuSans-34"/>
       <use xlink:href="#DejaVuSans-2e" transform="translate(63.623047 0)"/>
       <use xlink:href="#DejaVuSans-30" transform="translate(95.410156 0)"/>
      </g>
     </g>
    </g>
    <g id="xtick_16">
     <g id="line2d_29">
      <g>
       <use xlink:href="#m2d5f58d481" x="839.693802" y="257.158895" style="stroke: #000000; stroke-width: 0.8"/>
      </g>
     </g>
     <g id="text_30">
      <!-- 4.5 -->
      <g transform="translate(831.74224 271.757332) scale(0.1 -0.1)">
       <use xlink:href="#DejaVuSans-34"/>
       <use xlink:href="#DejaVuSans-2e" transform="translate(63.623047 0)"/>
       <use xlink:href="#DejaVuSans-35" transform="translate(95.410156 0)"/>
      </g>
     </g>
    </g>
    <g id="text_31">
     <!-- wavelength [Å] -->
     <g transform="translate(643.344952 287.119832) scale(0.1 -0.1)">
      <use xlink:href="#DejaVuSans-77"/>
      <use xlink:href="#DejaVuSans-61" transform="translate(81.787109 0)"/>
      <use xlink:href="#DejaVuSans-76" transform="translate(143.066406 0)"/>
      <use xlink:href="#DejaVuSans-65" transform="translate(202.246094 0)"/>
      <use xlink:href="#DejaVuSans-6c" transform="translate(263.769531 0)"/>
      <use xlink:href="#DejaVuSans-65" transform="translate(291.552734 0)"/>
      <use xlink:href="#DejaVuSans-6e" transform="translate(353.076172 0)"/>
      <use xlink:href="#DejaVuSans-67" transform="translate(416.455078 0)"/>
      <use xlink:href="#DejaVuSans-74" transform="translate(479.931641 0)"/>
      <use xlink:href="#DejaVuSans-68" transform="translate(519.140625 0)"/>
      <use xlink:href="#DejaVuSans-20" transform="translate(582.519531 0)"/>
      <use xlink:href="#DejaVuSans-5b" transform="translate(614.306641 0)"/>
      <use xlink:href="#DejaVuSans-c5" transform="translate(653.320312 0)"/>
      <use xlink:href="#DejaVuSans-5d" transform="translate(721.728516 0)"/>
     </g>
    </g>
   </g>
   <g id="matplotlib.axis_4">
    <g id="ytick_10">
     <g id="line2d_30">
      <g>
       <use xlink:href="#me28ace6da4" x="497.565385" y="246.484315" style="stroke: #000000; stroke-width: 0.8"/>
      </g>
     </g>
     <g id="text_32">
      <!-- 0 -->
      <g transform="translate(484.202885 250.283533) scale(0.1 -0.1)">
       <use xlink:href="#DejaVuSans-30"/>
      </g>
     </g>
    </g>
    <g id="ytick_11">
     <g id="line2d_31">
      <g>
       <use xlink:href="#me28ace6da4" x="497.565385" y="218.972509" style="stroke: #000000; stroke-width: 0.8"/>
      </g>
     </g>
     <g id="text_33">
      <!-- 100 -->
      <g transform="translate(471.477885 222.771728) scale(0.1 -0.1)">
       <use xlink:href="#DejaVuSans-31"/>
       <use xlink:href="#DejaVuSans-30" transform="translate(63.623047 0)"/>
       <use xlink:href="#DejaVuSans-30" transform="translate(127.246094 0)"/>
      </g>
     </g>
    </g>
    <g id="ytick_12">
     <g id="line2d_32">
      <g>
       <use xlink:href="#me28ace6da4" x="497.565385" y="191.460704" style="stroke: #000000; stroke-width: 0.8"/>
      </g>
     </g>
     <g id="text_34">
      <!-- 200 -->
      <g transform="translate(471.477885 195.259923) scale(0.1 -0.1)">
       <use xlink:href="#DejaVuSans-32"/>
       <use xlink:href="#DejaVuSans-30" transform="translate(63.623047 0)"/>
       <use xlink:href="#DejaVuSans-30" transform="translate(127.246094 0)"/>
      </g>
     </g>
    </g>
    <g id="ytick_13">
     <g id="line2d_33">
      <g>
       <use xlink:href="#me28ace6da4" x="497.565385" y="163.948899" style="stroke: #000000; stroke-width: 0.8"/>
      </g>
     </g>
     <g id="text_35">
      <!-- 300 -->
      <g transform="translate(471.477885 167.748117) scale(0.1 -0.1)">
       <use xlink:href="#DejaVuSans-33"/>
       <use xlink:href="#DejaVuSans-30" transform="translate(63.623047 0)"/>
       <use xlink:href="#DejaVuSans-30" transform="translate(127.246094 0)"/>
      </g>
     </g>
    </g>
    <g id="ytick_14">
     <g id="line2d_34">
      <g>
       <use xlink:href="#me28ace6da4" x="497.565385" y="136.437093" style="stroke: #000000; stroke-width: 0.8"/>
      </g>
     </g>
     <g id="text_36">
      <!-- 400 -->
      <g transform="translate(471.477885 140.236312) scale(0.1 -0.1)">
       <use xlink:href="#DejaVuSans-34"/>
       <use xlink:href="#DejaVuSans-30" transform="translate(63.623047 0)"/>
       <use xlink:href="#DejaVuSans-30" transform="translate(127.246094 0)"/>
      </g>
     </g>
    </g>
    <g id="ytick_15">
     <g id="line2d_35">
      <g>
       <use xlink:href="#me28ace6da4" x="497.565385" y="108.925288" style="stroke: #000000; stroke-width: 0.8"/>
      </g>
     </g>
     <g id="text_37">
      <!-- 500 -->
      <g transform="translate(471.477885 112.724507) scale(0.1 -0.1)">
       <use xlink:href="#DejaVuSans-35"/>
       <use xlink:href="#DejaVuSans-30" transform="translate(63.623047 0)"/>
       <use xlink:href="#DejaVuSans-30" transform="translate(127.246094 0)"/>
      </g>
     </g>
    </g>
    <g id="ytick_16">
     <g id="line2d_36">
      <g>
       <use xlink:href="#me28ace6da4" x="497.565385" y="81.413483" style="stroke: #000000; stroke-width: 0.8"/>
      </g>
     </g>
     <g id="text_38">
      <!-- 600 -->
      <g transform="translate(471.477885 85.212702) scale(0.1 -0.1)">
       <use xlink:href="#DejaVuSans-36"/>
       <use xlink:href="#DejaVuSans-30" transform="translate(63.623047 0)"/>
       <use xlink:href="#DejaVuSans-30" transform="translate(127.246094 0)"/>
      </g>
     </g>
    </g>
    <g id="ytick_17">
     <g id="line2d_37">
      <g>
       <use xlink:href="#me28ace6da4" x="497.565385" y="53.901677" style="stroke: #000000; stroke-width: 0.8"/>
      </g>
     </g>
     <g id="text_39">
      <!-- 700 -->
      <g transform="translate(471.477885 57.700896) scale(0.1 -0.1)">
       <use xlink:href="#DejaVuSans-37"/>
       <use xlink:href="#DejaVuSans-30" transform="translate(63.623047 0)"/>
       <use xlink:href="#DejaVuSans-30" transform="translate(127.246094 0)"/>
      </g>
     </g>
    </g>
    <g id="ytick_18">
     <g id="line2d_38">
      <g>
       <use xlink:href="#me28ace6da4" x="497.565385" y="26.389872" style="stroke: #000000; stroke-width: 0.8"/>
      </g>
     </g>
     <g id="text_40">
      <!-- 800 -->
      <g transform="translate(471.477885 30.189091) scale(0.1 -0.1)">
       <use xlink:href="#DejaVuSans-38"/>
       <use xlink:href="#DejaVuSans-30" transform="translate(63.623047 0)"/>
       <use xlink:href="#DejaVuSans-30" transform="translate(127.246094 0)"/>
      </g>
     </g>
    </g>
    <g id="text_41">
     <!-- [counts] -->
     <g transform="translate(465.398198 160.35101) rotate(-90) scale(0.1 -0.1)">
      <use xlink:href="#DejaVuSans-5b"/>
      <use xlink:href="#DejaVuSans-63" transform="translate(39.013672 0)"/>
      <use xlink:href="#DejaVuSans-6f" transform="translate(93.994141 0)"/>
      <use xlink:href="#DejaVuSans-75" transform="translate(155.175781 0)"/>
      <use xlink:href="#DejaVuSans-6e" transform="translate(218.554688 0)"/>
      <use xlink:href="#DejaVuSans-74" transform="translate(281.933594 0)"/>
      <use xlink:href="#DejaVuSans-73" transform="translate(321.142578 0)"/>
      <use xlink:href="#DejaVuSans-5d" transform="translate(373.242188 0)"/>
     </g>
    </g>
   </g>
   <g id="line2d_39">
    <path d="M 514.276028 246.484315 
L 522.631349 246.484315 
L 522.631349 243.458016 
L 524.302413 243.458016 
L 524.302413 234.37912 
L 525.973477 234.37912 
L 525.973477 228.876759 
L 527.644542 228.876759 
L 527.644542 222.549044 
L 529.315606 222.549044 
L 529.315606 215.120857 
L 530.98667 215.120857 
L 530.98667 205.491725 
L 532.657734 205.491725 
L 532.657734 193.936766 
L 534.328799 193.936766 
L 534.328799 187.884169 
L 535.999863 187.884169 
L 535.999863 173.027794 
L 537.670927 173.027794 
L 537.670927 177.154565 
L 539.341991 177.154565 
L 539.341991 159.271892 
L 541.013056 159.271892 
L 541.013056 154.044649 
L 542.68412 154.044649 
L 542.68412 140.563864 
L 544.355184 140.563864 
L 544.355184 139.463392 
L 546.026248 139.463392 
L 546.026248 128.733788 
L 547.697313 128.733788 
L 547.697313 111.676469 
L 549.368377 111.676469 
L 549.368377 99.846392 
L 551.039441 99.846392 
L 551.039441 97.645448 
L 552.710505 97.645448 
L 552.710505 99.571274 
L 554.38157 99.571274 
L 554.38157 89.942142 
L 556.052634 89.942142 
L 556.052634 84.439781 
L 557.723698 84.439781 
L 557.723698 74.260413 
L 559.394762 74.260413 
L 559.394762 80.588129 
L 561.065827 80.588129 
L 561.065827 63.805927 
L 562.736891 63.805927 
L 562.736891 64.356163 
L 564.407955 64.356163 
L 564.407955 59.404039 
L 566.079019 59.404039 
L 566.079019 44.822782 
L 567.750084 44.822782 
L 567.750084 52.526087 
L 569.421148 52.526087 
L 569.421148 47.298844 
L 571.092212 47.298844 
L 571.092212 44.822782 
L 572.763276 44.822782 
L 572.763276 42.621837 
L 574.434341 42.621837 
L 574.434341 40.420893 
L 576.105405 40.420893 
L 576.105405 34.093178 
L 577.776469 34.093178 
L 577.776469 32.992705 
L 579.447533 32.992705 
L 579.447533 52.801205 
L 581.118598 52.801205 
L 581.118598 44.547664 
L 582.789662 44.547664 
L 582.789662 37.669712 
L 584.460726 37.669712 
L 584.460726 48.399316 
L 586.13179 48.399316 
L 586.13179 55.827504 
L 587.802855 55.827504 
L 587.802855 61.604983 
L 589.473919 61.604983 
L 589.473919 33.542942 
L 591.144983 33.542942 
L 591.144983 42.896955 
L 592.816047 42.896955 
L 592.816047 67.932698 
L 594.487112 67.932698 
L 594.487112 55.277268 
L 596.158176 55.277268 
L 596.158176 69.858525 
L 597.82924 69.858525 
L 597.82924 62.705455 
L 599.500304 62.705455 
L 599.500304 71.784351 
L 601.171369 71.784351 
L 601.171369 61.054747 
L 602.842433 61.054747 
L 602.842433 71.509233 
L 604.513497 71.509233 
L 604.513497 62.980573 
L 606.184561 62.980573 
L 606.184561 73.710177 
L 607.855626 73.710177 
L 607.855626 81.413483 
L 609.52669 81.413483 
L 609.52669 82.238837 
L 611.197754 82.238837 
L 611.197754 80.037893 
L 612.868818 80.037893 
L 612.868818 83.614427 
L 614.539882 83.614427 
L 614.539882 56.927976 
L 616.210947 56.927976 
L 616.210947 80.037893 
L 617.882011 80.037893 
L 617.882011 70.683879 
L 619.553075 70.683879 
L 619.553075 72.334587 
L 621.22414 72.334587 
L 621.22414 80.037893 
L 622.895204 80.037893 
L 622.895204 95.169385 
L 624.566268 95.169385 
L 624.566268 90.492379 
L 626.237332 90.492379 
L 626.237332 97.645448 
L 627.908397 97.645448 
L 627.908397 97.920566 
L 629.579461 97.920566 
L 629.579461 80.588129 
L 631.250525 80.588129 
L 631.250525 85.540254 
L 632.921589 85.540254 
L 632.921589 90.767497 
L 634.592654 90.767497 
L 634.592654 90.492379 
L 636.263718 90.492379 
L 636.263718 96.269858 
L 637.934782 96.269858 
L 637.934782 108.099934 
L 639.605846 108.099934 
L 639.605846 97.37033 
L 641.27691 97.37033 
L 641.27691 94.344031 
L 642.947975 94.344031 
L 642.947975 115.803239 
L 644.619039 115.803239 
L 644.619039 108.099934 
L 646.290103 108.099934 
L 646.290103 111.676469 
L 647.961168 111.676469 
L 647.961168 116.628594 
L 649.632232 116.628594 
L 649.632232 130.384496 
L 651.303296 130.384496 
L 651.303296 131.484968 
L 652.97436 131.484968 
L 652.97436 137.812684 
L 654.645424 137.812684 
L 654.645424 146.891579 
L 656.316489 146.891579 
L 656.316489 168.625906 
L 657.987553 168.625906 
L 657.987553 166.700079 
L 659.658617 166.700079 
L 659.658617 180.180864 
L 661.329682 180.180864 
L 661.329682 179.35551 
L 663.000746 179.35551 
L 663.000746 192.01094 
L 664.67181 192.01094 
L 664.67181 194.762121 
L 666.342874 194.762121 
L 666.342874 205.766843 
L 668.013938 205.766843 
L 668.013938 211.544322 
L 669.685003 211.544322 
L 669.685003 222.824162 
L 671.356067 222.824162 
L 671.356067 231.62794 
L 673.027131 231.62794 
L 673.027131 232.178176 
L 674.698195 232.178176 
L 674.698195 238.781009 
L 676.36926 238.781009 
L 676.36926 242.90778 
L 678.040324 242.90778 
L 678.040324 241.807308 
L 679.711388 241.807308 
L 679.711388 239.606363 
L 681.382452 239.606363 
L 681.382452 231.352822 
L 683.053517 231.352822 
L 683.053517 228.051405 
L 684.724581 228.051405 
L 684.724581 216.221329 
L 686.395645 216.221329 
L 686.395645 205.216607 
L 688.06671 205.216607 
L 688.06671 199.989364 
L 689.737774 199.989364 
L 689.737774 204.66637 
L 691.408838 204.66637 
L 691.408838 196.137711 
L 693.079902 196.137711 
L 693.079902 183.48228 
L 694.750967 183.48228 
L 694.750967 182.381808 
L 696.422031 182.381808 
L 696.422031 176.604329 
L 698.093095 176.604329 
L 698.093095 173.027794 
L 699.764159 173.027794 
L 699.764159 166.700079 
L 701.435224 166.700079 
L 701.435224 158.996774 
L 703.106288 158.996774 
L 703.106288 165.324489 
L 704.777352 165.324489 
L 704.777352 154.319767 
L 706.448416 154.319767 
L 706.448416 148.26717 
L 708.119481 148.26717 
L 708.119481 147.166697 
L 709.790545 147.166697 
L 709.790545 146.616461 
L 711.461609 146.616461 
L 711.461609 141.389218 
L 713.132673 141.389218 
L 713.132673 137.262448 
L 714.803738 137.262448 
L 714.803738 130.384496 
L 716.474802 130.384496 
L 716.474802 123.781663 
L 718.145866 123.781663 
L 718.145866 127.633316 
L 719.81693 127.633316 
L 719.81693 117.453948 
L 721.487995 117.453948 
L 721.487995 112.501823 
L 723.159059 112.501823 
L 723.159059 111.676469 
L 724.830123 111.676469 
L 724.830123 114.977885 
L 726.501187 114.977885 
L 726.501187 105.623871 
L 728.172252 105.623871 
L 728.172252 104.248281 
L 729.843316 104.248281 
L 729.843316 101.772219 
L 731.51438 101.772219 
L 731.51438 105.623871 
L 733.185444 105.623871 
L 733.185444 105.348753 
L 734.856509 105.348753 
L 734.856509 110.575996 
L 736.527573 110.575996 
L 736.527573 110.02576 
L 739.869701 110.02576 
L 739.869701 110.300878 
L 741.540766 110.300878 
L 741.540766 122.130955 
L 743.21183 122.130955 
L 743.21183 115.803239 
L 744.882894 115.803239 
L 744.882894 120.755364 
L 746.553958 120.755364 
L 746.553958 113.877413 
L 748.225023 113.877413 
L 748.225023 118.004184 
L 749.896087 118.004184 
L 749.896087 128.183552 
L 751.567151 128.183552 
L 751.567151 122.130955 
L 753.238215 122.130955 
L 753.238215 119.104656 
L 754.909279 119.104656 
L 754.909279 137.262448 
L 756.580344 137.262448 
L 756.580344 131.20985 
L 758.251408 131.20985 
L 758.251408 129.83426 
L 759.922472 129.83426 
L 759.922472 127.358198 
L 761.593537 127.358198 
L 761.593537 132.310323 
L 763.264601 132.310323 
L 763.264601 127.358198 
L 764.935665 127.358198 
L 764.935665 135.886857 
L 766.606729 135.886857 
L 766.606729 147.716934 
L 768.277793 147.716934 
L 768.277793 151.01835 
L 769.948858 151.01835 
L 769.948858 141.664336 
L 771.619922 141.664336 
L 771.619922 147.992052 
L 773.290986 147.992052 
L 773.290986 146.891579 
L 774.962051 146.891579 
L 774.962051 156.245593 
L 776.633115 156.245593 
L 776.633115 155.695357 
L 778.304179 155.695357 
L 778.304179 161.472836 
L 779.975243 161.472836 
L 779.975243 159.271892 
L 781.646308 159.271892 
L 781.646308 158.446538 
L 783.317372 158.446538 
L 783.317372 162.848426 
L 784.988436 162.848426 
L 784.988436 165.599607 
L 786.6595 165.599607 
L 786.6595 168.075669 
L 788.330565 168.075669 
L 788.330565 167.800551 
L 790.001629 167.800551 
L 790.001629 170.82685 
L 791.672693 170.82685 
L 791.672693 173.302912 
L 793.343757 173.302912 
L 793.343757 171.377086 
L 795.014822 171.377086 
L 795.014822 177.704801 
L 796.685886 177.704801 
L 796.685886 187.884169 
L 798.35695 187.884169 
L 798.35695 187.333933 
L 800.028014 187.333933 
L 800.028014 182.656926 
L 801.699079 182.656926 
L 801.699079 194.487003 
L 803.370143 194.487003 
L 803.370143 191.735822 
L 805.041207 191.735822 
L 805.041207 192.01094 
L 806.712271 192.01094 
L 806.712271 205.491725 
L 808.383336 205.491725 
L 808.383336 202.465426 
L 810.0544 202.465426 
L 810.0544 206.592197 
L 811.725464 206.592197 
L 811.725464 213.745266 
L 813.396528 213.745266 
L 813.396528 208.242905 
L 815.067593 208.242905 
L 815.067593 217.321801 
L 816.738657 217.321801 
L 816.738657 221.998808 
L 820.080785 221.998808 
L 820.080785 223.649516 
L 821.75185 223.649516 
L 821.75185 227.776287 
L 823.422914 227.776287 
L 823.422914 230.527467 
L 825.093978 230.527467 
L 825.093978 233.553766 
L 826.765042 233.553766 
L 826.765042 235.75471 
L 828.436107 235.75471 
L 828.436107 237.405419 
L 830.107171 237.405419 
L 830.107171 239.606363 
L 831.778235 239.606363 
L 831.778235 242.90778 
L 833.449299 242.90778 
L 833.449299 243.458016 
L 835.120363 243.458016 
L 835.120363 244.28337 
L 836.791428 244.28337 
L 836.791428 245.934078 
L 838.462492 245.934078 
L 838.462492 246.209196 
L 841.804621 246.209196 
L 841.804621 246.484315 
L 848.488877 246.484315 
L 848.488877 246.484315 
" clip-path="url(#pc20d863be7)" style="fill: none; stroke: #ff7f0e; stroke-width: 1.5; stroke-linecap: square"/>
   </g>
   <g id="line2d_40">
    <path d="M 514.276028 246.484315 
L 522.631349 246.484315 
L 522.631349 243.458016 
L 524.302413 243.458016 
L 524.302413 234.654238 
L 525.973477 234.654238 
L 525.973477 228.876759 
L 527.644542 228.876759 
L 527.644542 221.72369 
L 529.315606 221.72369 
L 529.315606 215.395975 
L 530.98667 215.395975 
L 530.98667 204.116134 
L 532.657734 204.116134 
L 532.657734 194.211884 
L 534.328799 194.211884 
L 534.328799 188.709523 
L 535.999863 188.709523 
L 535.999863 174.403385 
L 537.670927 174.403385 
L 537.670927 176.879447 
L 539.341991 176.879447 
L 539.341991 159.271892 
L 541.013056 159.271892 
L 541.013056 147.166697 
L 542.68412 147.166697 
L 542.68412 145.791107 
L 544.355184 145.791107 
L 544.355184 135.611739 
L 546.026248 135.611739 
L 546.026248 131.20985 
L 547.697313 131.20985 
L 547.697313 107.27458 
L 549.368377 107.27458 
L 549.368377 108.099934 
L 551.039441 108.099934 
L 551.039441 93.518677 
L 552.710505 93.518677 
L 552.710505 105.898989 
L 554.38157 105.898989 
L 554.38157 83.064191 
L 556.052634 83.064191 
L 556.052634 86.640726 
L 557.723698 86.640726 
L 557.723698 78.112066 
L 559.394762 78.112066 
L 559.394762 72.059469 
L 561.065827 72.059469 
L 561.065827 64.631282 
L 562.736891 64.631282 
L 562.736891 59.12892 
L 564.407955 59.12892 
L 564.407955 58.578684 
L 566.079019 58.578684 
L 566.079019 48.949553 
L 567.750084 48.949553 
L 567.750084 60.229393 
L 569.421148 60.229393 
L 569.421148 43.172073 
L 571.092212 43.172073 
L 571.092212 46.47349 
L 572.763276 46.47349 
L 572.763276 33.81806 
L 574.434341 33.81806 
L 574.434341 42.071601 
L 576.105405 42.071601 
L 576.105405 33.542942 
L 577.776469 33.542942 
L 577.776469 51.700733 
L 579.447533 51.700733 
L 579.447533 42.896955 
L 581.118598 42.896955 
L 581.118598 44.822782 
L 582.789662 44.822782 
L 582.789662 35.19365 
L 584.460726 35.19365 
L 584.460726 50.050025 
L 586.13179 50.050025 
L 586.13179 61.880101 
L 587.802855 61.880101 
L 587.802855 53.076323 
L 589.473919 53.076323 
L 589.473919 37.94483 
L 591.144983 37.94483 
L 591.144983 56.37774 
L 592.816047 56.37774 
L 592.816047 52.801205 
L 594.487112 52.801205 
L 594.487112 54.727032 
L 596.158176 54.727032 
L 596.158176 70.133643 
L 597.82924 70.133643 
L 597.82924 70.408761 
L 599.500304 70.408761 
L 599.500304 66.557108 
L 601.171369 66.557108 
L 601.171369 59.12892 
L 602.842433 59.12892 
L 602.842433 64.356163 
L 604.513497 64.356163 
L 604.513497 71.509233 
L 606.184561 71.509233 
L 606.184561 70.408761 
L 607.855626 70.408761 
L 607.855626 79.762774 
L 609.52669 79.762774 
L 609.52669 83.889545 
L 611.197754 83.889545 
L 611.197754 75.636004 
L 612.868818 75.636004 
L 612.868818 74.81065 
L 614.539882 74.81065 
L 614.539882 82.789073 
L 616.210947 82.789073 
L 616.210947 64.356163 
L 617.882011 64.356163 
L 617.882011 75.360886 
L 619.553075 75.360886 
L 619.553075 70.408761 
L 621.22414 70.408761 
L 621.22414 78.387184 
L 622.895204 78.387184 
L 622.895204 98.470802 
L 624.566268 98.470802 
L 624.566268 87.190962 
L 626.237332 87.190962 
L 626.237332 94.068913 
L 627.908397 94.068913 
L 627.908397 86.640726 
L 629.579461 86.640726 
L 629.579461 91.592851 
L 631.250525 91.592851 
L 631.250525 83.339309 
L 632.921589 83.339309 
L 632.921589 91.592851 
L 634.592654 91.592851 
L 634.592654 93.243559 
L 636.263718 93.243559 
L 636.263718 88.566552 
L 637.934782 88.566552 
L 637.934782 102.047337 
L 639.605846 102.047337 
L 639.605846 97.920566 
L 641.27691 97.920566 
L 641.27691 101.497101 
L 642.947975 101.497101 
L 642.947975 102.597573 
L 644.619039 102.597573 
L 644.619039 108.375052 
L 646.290103 108.375052 
L 646.290103 111.401351 
L 647.961168 111.401351 
L 647.961168 115.803239 
L 649.632232 115.803239 
L 649.632232 123.781663 
L 651.303296 123.781663 
L 651.303296 138.36292 
L 652.97436 138.36292 
L 652.97436 141.939454 
L 654.645424 141.939454 
L 654.645424 156.520711 
L 656.316489 156.520711 
L 656.316489 163.398663 
L 657.987553 163.398663 
L 657.987553 174.128267 
L 659.658617 174.128267 
L 659.658617 176.054093 
L 661.329682 176.054093 
L 661.329682 183.757398 
L 663.000746 183.757398 
L 663.000746 191.185586 
L 664.67181 191.185586 
L 664.67181 200.814718 
L 666.342874 200.814718 
L 666.342874 204.941489 
L 668.013938 204.941489 
L 668.013938 212.369676 
L 669.685003 212.369676 
L 669.685003 225.025106 
L 671.356067 225.025106 
L 671.356067 232.453294 
L 673.027131 232.453294 
L 673.027131 233.828884 
L 674.698195 233.828884 
L 674.698195 239.056127 
L 676.36926 239.056127 
L 676.36926 242.632662 
L 678.040324 242.632662 
L 678.040324 242.357544 
L 679.711388 242.357544 
L 679.711388 239.606363 
L 681.382452 239.606363 
L 681.382452 231.903058 
L 683.053517 231.903058 
L 683.053517 226.675815 
L 684.724581 226.675815 
L 684.724581 216.771565 
L 686.395645 216.771565 
L 686.395645 205.216607 
L 688.06671 205.216607 
L 688.06671 201.364954 
L 689.737774 201.364954 
L 689.737774 203.565898 
L 691.408838 203.565898 
L 691.408838 194.762121 
L 693.079902 194.762121 
L 693.079902 184.307635 
L 694.750967 184.307635 
L 694.750967 182.10669 
L 696.422031 182.10669 
L 696.422031 176.329211 
L 698.093095 176.329211 
L 698.093095 172.752676 
L 699.764159 172.752676 
L 699.764159 167.250315 
L 701.435224 167.250315 
L 701.435224 163.398663 
L 703.106288 163.398663 
L 703.106288 156.245593 
L 704.777352 156.245593 
L 704.777352 158.17142 
L 706.448416 158.17142 
L 706.448416 150.468114 
L 708.119481 150.468114 
L 708.119481 143.590163 
L 709.790545 143.590163 
L 709.790545 147.166697 
L 711.461609 147.166697 
L 711.461609 144.690635 
L 713.132673 144.690635 
L 713.132673 131.760086 
L 714.803738 131.760086 
L 714.803738 131.484968 
L 716.474802 131.484968 
L 716.474802 126.532843 
L 718.145866 126.532843 
L 718.145866 125.432371 
L 719.81693 125.432371 
L 719.81693 116.628594 
L 721.487995 116.628594 
L 721.487995 119.104656 
L 723.159059 119.104656 
L 723.159059 105.073635 
L 724.830123 105.073635 
L 724.830123 110.851114 
L 726.501187 110.851114 
L 726.501187 104.248281 
L 728.172252 104.248281 
L 728.172252 113.602295 
L 729.843316 113.602295 
L 729.843316 106.724344 
L 731.51438 106.724344 
L 731.51438 93.243559 
L 733.185444 93.243559 
L 733.185444 119.379774 
L 734.856509 119.379774 
L 734.856509 104.798517 
L 736.527573 104.798517 
L 736.527573 103.422927 
L 738.198637 103.422927 
L 738.198637 111.676469 
L 741.540766 111.676469 
L 741.540766 123.781663 
L 743.21183 123.781663 
L 743.21183 117.729066 
L 744.882894 117.729066 
L 744.882894 117.453948 
L 746.553958 117.453948 
L 746.553958 114.977885 
L 748.225023 114.977885 
L 748.225023 122.681191 
L 749.896087 122.681191 
L 749.896087 126.257725 
L 751.567151 126.257725 
L 751.567151 128.45867 
L 753.238215 128.45867 
L 753.238215 117.17883 
L 754.909279 117.17883 
L 754.909279 130.934732 
L 756.580344 130.934732 
L 756.580344 128.183552 
L 758.251408 128.183552 
L 758.251408 131.20985 
L 759.922472 131.20985 
L 759.922472 131.760086 
L 761.593537 131.760086 
L 761.593537 130.659614 
L 763.264601 130.659614 
L 763.264601 125.982607 
L 764.935665 125.982607 
L 764.935665 138.913156 
L 766.606729 138.913156 
L 766.606729 145.791107 
L 768.277793 145.791107 
L 768.277793 147.716934 
L 769.948858 147.716934 
L 769.948858 138.087802 
L 771.619922 138.087802 
L 771.619922 152.944177 
L 773.290986 152.944177 
L 773.290986 151.01835 
L 774.962051 151.01835 
L 774.962051 155.145121 
L 776.633115 155.145121 
L 776.633115 153.219295 
L 778.304179 153.219295 
L 778.304179 153.769531 
L 779.975243 153.769531 
L 779.975243 162.848426 
L 781.646308 162.848426 
L 781.646308 158.446538 
L 783.317372 158.446538 
L 783.317372 165.599607 
L 784.988436 165.599607 
L 784.988436 166.700079 
L 786.6595 166.700079 
L 786.6595 165.324489 
L 788.330565 165.324489 
L 788.330565 170.82685 
L 790.001629 170.82685 
L 790.001629 168.350788 
L 791.672693 168.350788 
L 791.672693 165.599607 
L 793.343757 165.599607 
L 793.343757 178.805274 
L 795.014822 178.805274 
L 795.014822 185.132989 
L 796.685886 185.132989 
L 796.685886 179.35551 
L 798.35695 179.35551 
L 798.35695 184.032517 
L 800.028014 184.032517 
L 800.028014 182.10669 
L 801.699079 182.10669 
L 801.699079 196.412829 
L 803.370143 196.412829 
L 803.370143 188.709523 
L 805.041207 188.709523 
L 805.041207 194.487003 
L 806.712271 194.487003 
L 806.712271 201.089836 
L 808.383336 201.089836 
L 808.383336 203.015662 
L 810.0544 203.015662 
L 810.0544 213.19503 
L 811.725464 213.19503 
L 811.725464 207.417551 
L 813.396528 207.417551 
L 813.396528 214.020384 
L 815.067593 214.020384 
L 815.067593 216.496447 
L 816.738657 216.496447 
L 816.738657 222.824162 
L 818.409721 222.824162 
L 818.409721 220.898336 
L 820.080785 220.898336 
L 820.080785 228.326523 
L 821.75185 228.326523 
L 821.75185 227.501169 
L 823.422914 227.501169 
L 823.422914 230.527467 
L 825.093978 230.527467 
L 825.093978 233.278648 
L 826.765042 233.278648 
L 826.765042 237.130301 
L 830.107171 237.130301 
L 830.107171 240.431717 
L 831.778235 240.431717 
L 831.778235 242.632662 
L 833.449299 242.632662 
L 833.449299 243.733134 
L 835.120363 243.733134 
L 835.120363 244.558488 
L 836.791428 244.558488 
L 836.791428 245.65896 
L 838.462492 245.65896 
L 838.462492 246.484315 
L 840.133556 246.484315 
L 840.133556 246.209196 
L 841.804621 246.209196 
L 841.804621 246.484315 
L 848.488877 246.484315 
L 848.488877 246.484315 
" clip-path="url(#pc20d863be7)" style="fill: none; stroke: #000000; stroke-width: 1.5; stroke-linecap: square"/>
   </g>
   <g id="patch_9">
    <path d="M 497.565385 257.158895 
L 497.565385 22.318125 
" style="fill: none; stroke: #000000; stroke-width: 0.8; stroke-linejoin: miter; stroke-linecap: square"/>
   </g>
   <g id="patch_10">
    <path d="M 865.19952 257.158895 
L 865.19952 22.318125 
" style="fill: none; stroke: #000000; stroke-width: 0.8; stroke-linejoin: miter; stroke-linecap: square"/>
   </g>
   <g id="patch_11">
    <path d="M 497.565385 257.158895 
L 865.19952 257.158895 
" style="fill: none; stroke: #000000; stroke-width: 0.8; stroke-linejoin: miter; stroke-linecap: square"/>
   </g>
   <g id="patch_12">
    <path d="M 497.565385 22.318125 
L 865.19952 22.318125 
" style="fill: none; stroke: #000000; stroke-width: 0.8; stroke-linejoin: miter; stroke-linecap: square"/>
   </g>
   <g id="text_42">
    <!-- detector_number 1 -->
    <g transform="translate(623.90714 16.318125) scale(0.12 -0.12)">
     <use xlink:href="#DejaVuSans-64"/>
     <use xlink:href="#DejaVuSans-65" transform="translate(63.476562 0)"/>
     <use xlink:href="#DejaVuSans-74" transform="translate(125 0)"/>
     <use xlink:href="#DejaVuSans-65" transform="translate(164.208984 0)"/>
     <use xlink:href="#DejaVuSans-63" transform="translate(225.732422 0)"/>
     <use xlink:href="#DejaVuSans-74" transform="translate(280.712891 0)"/>
     <use xlink:href="#DejaVuSans-6f" transform="translate(319.921875 0)"/>
     <use xlink:href="#DejaVuSans-72" transform="translate(381.103516 0)"/>
     <use xlink:href="#DejaVuSans-5f" transform="translate(422.216797 0)"/>
     <use xlink:href="#DejaVuSans-6e" transform="translate(472.216797 0)"/>
     <use xlink:href="#DejaVuSans-75" transform="translate(535.595703 0)"/>
     <use xlink:href="#DejaVuSans-6d" transform="translate(598.974609 0)"/>
     <use xlink:href="#DejaVuSans-62" transform="translate(696.386719 0)"/>
     <use xlink:href="#DejaVuSans-65" transform="translate(759.863281 0)"/>
     <use xlink:href="#DejaVuSans-72" transform="translate(821.386719 0)"/>
     <use xlink:href="#DejaVuSans-20" transform="translate(862.5 0)"/>
     <use xlink:href="#DejaVuSans-31" transform="translate(894.287109 0)"/>
    </g>
   </g>
   <g id="legend_2">
    <g id="patch_13">
     <path d="M 761.196395 59.9525 
L 858.19952 59.9525 
Q 860.19952 59.9525 860.19952 57.9525 
L 860.19952 29.318125 
Q 860.19952 27.318125 858.19952 27.318125 
L 761.196395 27.318125 
Q 759.196395 27.318125 759.196395 29.318125 
L 759.196395 57.9525 
Q 759.196395 59.9525 761.196395 59.9525 
z
" style="fill: #ffffff; opacity: 0.8; stroke: #cccccc; stroke-linejoin: miter"/>
    </g>
    <g id="line2d_41">
     <path d="M 763.196395 35.416562 
L 763.196395 35.416562 
L 773.196395 35.416562 
L 773.196395 35.416562 
L 783.196395 35.416562 
" style="fill: none; stroke: #ff7f0e; stroke-width: 1.5; stroke-linecap: square"/>
    </g>
    <g id="text_43">
     <!-- wfm -->
     <g transform="translate(791.196395 38.916562) scale(0.1 -0.1)">
      <use xlink:href="#DejaVuSans-77"/>
      <use xlink:href="#DejaVuSans-66" transform="translate(81.787109 0)"/>
      <use xlink:href="#DejaVuSans-6d" transform="translate(116.992188 0)"/>
     </g>
    </g>
    <g id="line2d_42">
     <path d="M 763.196395 50.094687 
L 763.196395 50.094687 
L 773.196395 50.094687 
L 773.196395 50.094687 
L 783.196395 50.094687 
" style="fill: none; stroke: #000000; stroke-width: 1.5; stroke-linecap: square"/>
    </g>
    <g id="text_44">
     <!-- ground_truth -->
     <g transform="translate(791.196395 53.594687) scale(0.1 -0.1)">
      <use xlink:href="#DejaVuSans-67"/>
      <use xlink:href="#DejaVuSans-72" transform="translate(63.476562 0)"/>
      <use xlink:href="#DejaVuSans-6f" transform="translate(102.339844 0)"/>
      <use xlink:href="#DejaVuSans-75" transform="translate(163.521484 0)"/>
      <use xlink:href="#DejaVuSans-6e" transform="translate(226.900391 0)"/>
      <use xlink:href="#DejaVuSans-64" transform="translate(290.279297 0)"/>
      <use xlink:href="#DejaVuSans-5f" transform="translate(353.755859 0)"/>
      <use xlink:href="#DejaVuSans-74" transform="translate(403.755859 0)"/>
      <use xlink:href="#DejaVuSans-72" transform="translate(442.964844 0)"/>
      <use xlink:href="#DejaVuSans-75" transform="translate(484.078125 0)"/>
      <use xlink:href="#DejaVuSans-74" transform="translate(547.457031 0)"/>
      <use xlink:href="#DejaVuSans-68" transform="translate(586.666016 0)"/>
     </g>
    </g>
   </g>
  </g>
 </g>
 <defs>
  <clipPath id="p49f190bc4c">
   <rect x="46.965625" y="22.318125" width="367.634135" height="234.84077"/>
  </clipPath>
  <clipPath id="pc20d863be7">
   <rect x="497.565385" y="22.318125" width="367.634135" height="234.84077"/>
  </clipPath>
 </defs>
</svg>
