<?xml version="1.0" encoding="utf-8" standalone="no"?>
<!DOCTYPE svg PUBLIC "-//W3C//DTD SVG 1.1//EN"
  "http://www.w3.org/Graphics/SVG/1.1/DTD/svg11.dtd">
<svg xmlns:xlink="http://www.w3.org/1999/xlink" width="389.288281pt" height="268.845156pt" viewBox="0 0 389.288281 268.845156" xmlns="http://www.w3.org/2000/svg" version="1.1">
 <metadata>
  <rdf:RDF xmlns:dc="http://purl.org/dc/elements/1.1/" xmlns:cc="http://creativecommons.org/ns#" xmlns:rdf="http://www.w3.org/1999/02/22-rdf-syntax-ns#">
   <cc:Work>
    <dc:type rdf:resource="http://purl.org/dc/dcmitype/StillImage"/>
    <dc:date>2026-06-30T14:34:14.483579</dc:date>
    <dc:format>image/svg+xml</dc:format>
    <dc:creator>
     <cc:Agent>
      <dc:title>Matplotlib v3.11.0, https://matplotlib.org/</dc:title>
     </cc:Agent>
    </dc:creator>
   </cc:Work>
  </rdf:RDF>
 </metadata>
 <defs>
  <style type="text/css">*{stroke-linejoin: round; stroke-linecap: butt}</style>
 </defs>
 <g id="figure_1">
  <g id="patch_1">
   <path d="M 0 268.845156 
L 389.288281 268.845156 
L 389.288281 0 
L 0 0 
z
" style="fill: #ffffff"/>
  </g>
  <g id="axes_1">
   <g id="patch_2">
    <path d="M 47.288281 228.96 
L 382.088281 228.96 
L 382.088281 7.2 
L 47.288281 7.2 
z
" style="fill: #ffffff"/>
   </g>
   <g id="matplotlib.axis_1">
    <g id="xtick_1">
     <g id="line2d_1">
      <defs>
       <path id="me129999e3d" d="M 0 0 
L 0 3.5 
" style="stroke: #000000; stroke-width: 0.8"/>
      </defs>
      <g>
       <use xlink:href="#me129999e3d" x="78.525602" y="228.96" style="stroke: #000000; stroke-width: 0.8"/>
      </g>
     </g>
     <g id="text_1">
      <!-- 1.0 -->
      <g transform="translate(70.574039 243.557656) scale(0.1 -0.1)">
       <defs>
        <path id="DejaVuSans-14" d="M 794 531 
L 1825 531 
L 1825 4091 
L 703 3866 
L 703 4441 
L 1819 4666 
L 2450 4666 
L 2450 531 
L 3481 531 
L 3481 0 
L 794 0 
L 794 531 
z
" transform="scale(0.015625)"/>
        <path id="DejaVuSans-11" d="M 684 794 
L 1344 794 
L 1344 0 
L 684 0 
L 684 794 
z
" transform="scale(0.015625)"/>
        <path id="DejaVuSans-13" d="M 2034 4250 
Q 1547 4250 1301 3770 
Q 1056 3291 1056 2328 
Q 1056 1369 1301 889 
Q 1547 409 2034 409 
Q 2525 409 2770 889 
Q 3016 1369 3016 2328 
Q 3016 3291 2770 3770 
Q 2525 4250 2034 4250 
z
M 2034 4750 
Q 2819 4750 3233 4129 
Q 3647 3509 3647 2328 
Q 3647 1150 3233 529 
Q 2819 -91 2034 -91 
Q 1250 -91 836 529 
Q 422 1150 422 2328 
Q 422 3509 836 4129 
Q 1250 4750 2034 4750 
z
" transform="scale(0.015625)"/>
       </defs>
       <use xlink:href="#DejaVuSans-14"/>
       <use xlink:href="#DejaVuSans-11" transform="translate(63.625 0)"/>
       <use xlink:href="#DejaVuSans-13" transform="translate(95.40625 0)"/>
      </g>
     </g>
    </g>
    <g id="xtick_2">
     <g id="line2d_2">
      <g>
       <use xlink:href="#me129999e3d" x="118.573449" y="228.96" style="stroke: #000000; stroke-width: 0.8"/>
      </g>
     </g>
     <g id="text_2">
      <!-- 1.5 -->
      <g transform="translate(110.621886 243.557656) scale(0.1 -0.1)">
       <defs>
        <path id="DejaVuSans-18" d="M 691 4666 
L 3169 4666 
L 3169 4134 
L 1269 4134 
L 1269 2991 
Q 1406 3038 1543 3061 
Q 1681 3084 1819 3084 
Q 2600 3084 3056 2656 
Q 3513 2228 3513 1497 
Q 3513 744 3044 326 
Q 2575 -91 1722 -91 
Q 1428 -91 1123 -41 
Q 819 9 494 109 
L 494 744 
Q 775 591 1075 516 
Q 1375 441 1709 441 
Q 2250 441 2565 725 
Q 2881 1009 2881 1497 
Q 2881 1984 2565 2268 
Q 2250 2553 1709 2553 
Q 1456 2553 1204 2497 
Q 953 2441 691 2322 
L 691 4666 
z
" transform="scale(0.015625)"/>
       </defs>
       <use xlink:href="#DejaVuSans-14"/>
       <use xlink:href="#DejaVuSans-11" transform="translate(63.625 0)"/>
       <use xlink:href="#DejaVuSans-18" transform="translate(95.40625 0)"/>
      </g>
     </g>
    </g>
    <g id="xtick_3">
     <g id="line2d_3">
      <g>
       <use xlink:href="#me129999e3d" x="158.621296" y="228.96" style="stroke: #000000; stroke-width: 0.8"/>
      </g>
     </g>
     <g id="text_3">
      <!-- 2.0 -->
      <g transform="translate(150.669733 243.557656) scale(0.1 -0.1)">
       <defs>
        <path id="DejaVuSans-15" d="M 1228 531 
L 3431 531 
L 3431 0 
L 469 0 
L 469 531 
Q 828 903 1448 1529 
Q 2069 2156 2228 2338 
Q 2531 2678 2651 2914 
Q 2772 3150 2772 3378 
Q 2772 3750 2511 3984 
Q 2250 4219 1831 4219 
Q 1534 4219 1204 4116 
Q 875 4013 500 3803 
L 500 4441 
Q 881 4594 1212 4672 
Q 1544 4750 1819 4750 
Q 2544 4750 2975 4387 
Q 3406 4025 3406 3419 
Q 3406 3131 3298 2873 
Q 3191 2616 2906 2266 
Q 2828 2175 2409 1742 
Q 1991 1309 1228 531 
z
" transform="scale(0.015625)"/>
       </defs>
       <use xlink:href="#DejaVuSans-15"/>
       <use xlink:href="#DejaVuSans-11" transform="translate(63.625 0)"/>
       <use xlink:href="#DejaVuSans-13" transform="translate(95.40625 0)"/>
      </g>
     </g>
    </g>
    <g id="xtick_4">
     <g id="line2d_4">
      <g>
       <use xlink:href="#me129999e3d" x="198.669142" y="228.96" style="stroke: #000000; stroke-width: 0.8"/>
      </g>
     </g>
     <g id="text_4">
      <!-- 2.5 -->
      <g transform="translate(190.71758 243.557656) scale(0.1 -0.1)">
       <use xlink:href="#DejaVuSans-15"/>
       <use xlink:href="#DejaVuSans-11" transform="translate(63.625 0)"/>
       <use xlink:href="#DejaVuSans-18" transform="translate(95.40625 0)"/>
      </g>
     </g>
    </g>
    <g id="xtick_5">
     <g id="line2d_5">
      <g>
       <use xlink:href="#me129999e3d" x="238.716989" y="228.96" style="stroke: #000000; stroke-width: 0.8"/>
      </g>
     </g>
     <g id="text_5">
      <!-- 3.0 -->
      <g transform="translate(230.765427 243.557656) scale(0.1 -0.1)">
       <defs>
        <path id="DejaVuSans-16" d="M 2597 2516 
Q 3050 2419 3304 2112 
Q 3559 1806 3559 1356 
Q 3559 666 3084 287 
Q 2609 -91 1734 -91 
Q 1441 -91 1130 -33 
Q 819 25 488 141 
L 488 750 
Q 750 597 1062 519 
Q 1375 441 1716 441 
Q 2309 441 2620 675 
Q 2931 909 2931 1356 
Q 2931 1769 2642 2001 
Q 2353 2234 1838 2234 
L 1294 2234 
L 1294 2753 
L 1863 2753 
Q 2328 2753 2575 2939 
Q 2822 3125 2822 3475 
Q 2822 3834 2567 4026 
Q 2313 4219 1838 4219 
Q 1578 4219 1281 4162 
Q 984 4106 628 3988 
L 628 4550 
Q 988 4650 1302 4700 
Q 1616 4750 1894 4750 
Q 2613 4750 3031 4423 
Q 3450 4097 3450 3541 
Q 3450 3153 3228 2886 
Q 3006 2619 2597 2516 
z
" transform="scale(0.015625)"/>
       </defs>
       <use xlink:href="#DejaVuSans-16"/>
       <use xlink:href="#DejaVuSans-11" transform="translate(63.625 0)"/>
       <use xlink:href="#DejaVuSans-13" transform="translate(95.40625 0)"/>
      </g>
     </g>
    </g>
    <g id="xtick_6">
     <g id="line2d_6">
      <g>
       <use xlink:href="#me129999e3d" x="278.764836" y="228.96" style="stroke: #000000; stroke-width: 0.8"/>
      </g>
     </g>
     <g id="text_6">
      <!-- 3.5 -->
      <g transform="translate(270.813274 243.557656) scale(0.1 -0.1)">
       <use xlink:href="#DejaVuSans-16"/>
       <use xlink:href="#DejaVuSans-11" transform="translate(63.625 0)"/>
       <use xlink:href="#DejaVuSans-18" transform="translate(95.40625 0)"/>
      </g>
     </g>
    </g>
    <g id="xtick_7">
     <g id="line2d_7">
      <g>
       <use xlink:href="#me129999e3d" x="318.812683" y="228.96" style="stroke: #000000; stroke-width: 0.8"/>
      </g>
     </g>
     <g id="text_7">
      <!-- 4.0 -->
      <g transform="translate(310.861121 243.557656) scale(0.1 -0.1)">
       <defs>
        <path id="DejaVuSans-17" d="M 2419 4116 
L 825 1625 
L 2419 1625 
L 2419 4116 
z
M 2253 4666 
L 3047 4666 
L 3047 1625 
L 3713 1625 
L 3713 1100 
L 3047 1100 
L 3047 0 
L 2419 0 
L 2419 1100 
L 313 1100 
L 313 1709 
L 2253 4666 
z
" transform="scale(0.015625)"/>
       </defs>
       <use xlink:href="#DejaVuSans-17"/>
       <use xlink:href="#DejaVuSans-11" transform="translate(63.625 0)"/>
       <use xlink:href="#DejaVuSans-13" transform="translate(95.40625 0)"/>
      </g>
     </g>
    </g>
    <g id="xtick_8">
     <g id="line2d_8">
      <g>
       <use xlink:href="#me129999e3d" x="358.86053" y="228.96" style="stroke: #000000; stroke-width: 0.8"/>
      </g>
     </g>
     <g id="text_8">
      <!-- 4.5 -->
      <g transform="translate(350.908968 243.557656) scale(0.1 -0.1)">
       <use xlink:href="#DejaVuSans-17"/>
       <use xlink:href="#DejaVuSans-11" transform="translate(63.625 0)"/>
       <use xlink:href="#DejaVuSans-18" transform="translate(95.40625 0)"/>
      </g>
     </g>
    </g>
    <g id="text_9">
     <!-- wavelength [Å] -->
     <g transform="translate(176.650781 259.242812) scale(0.1 -0.1)">
      <defs>
       <path id="DejaVuSans-5a" d="M 269 3500 
L 844 3500 
L 1563 769 
L 2278 3500 
L 2956 3500 
L 3675 769 
L 4391 3500 
L 4966 3500 
L 4050 0 
L 3372 0 
L 2619 2869 
L 1863 0 
L 1184 0 
L 269 3500 
z
" transform="scale(0.015625)"/>
       <path id="DejaVuSans-44" d="M 2194 1759 
Q 1497 1759 1228 1600 
Q 959 1441 959 1056 
Q 959 750 1161 570 
Q 1363 391 1709 391 
Q 2188 391 2477 730 
Q 2766 1069 2766 1631 
L 2766 1759 
L 2194 1759 
z
M 3341 1997 
L 3341 0 
L 2766 0 
L 2766 531 
Q 2569 213 2275 61 
Q 1981 -91 1556 -91 
Q 1019 -91 701 211 
Q 384 513 384 1019 
Q 384 1609 779 1909 
Q 1175 2209 1959 2209 
L 2766 2209 
L 2766 2266 
Q 2766 2663 2505 2880 
Q 2244 3097 1772 3097 
Q 1472 3097 1187 3025 
Q 903 2953 641 2809 
L 641 3341 
Q 956 3463 1253 3523 
Q 1550 3584 1831 3584 
Q 2591 3584 2966 3190 
Q 3341 2797 3341 1997 
z
" transform="scale(0.015625)"/>
       <path id="DejaVuSans-59" d="M 191 3500 
L 800 3500 
L 1894 563 
L 2988 3500 
L 3597 3500 
L 2284 0 
L 1503 0 
L 191 3500 
z
" transform="scale(0.015625)"/>
       <path id="DejaVuSans-48" d="M 3597 1894 
L 3597 1613 
L 953 1613 
Q 991 1019 1311 708 
Q 1631 397 2203 397 
Q 2534 397 2845 478 
Q 3156 559 3463 722 
L 3463 178 
Q 3153 47 2828 -22 
Q 2503 -91 2169 -91 
Q 1331 -91 842 396 
Q 353 884 353 1716 
Q 353 2575 817 3079 
Q 1281 3584 2069 3584 
Q 2775 3584 3186 3129 
Q 3597 2675 3597 1894 
z
M 3022 2063 
Q 3016 2534 2758 2815 
Q 2500 3097 2075 3097 
Q 1594 3097 1305 2825 
Q 1016 2553 972 2059 
L 3022 2063 
z
" transform="scale(0.015625)"/>
       <path id="DejaVuSans-4f" d="M 603 4863 
L 1178 4863 
L 1178 0 
L 603 0 
L 603 4863 
z
" transform="scale(0.015625)"/>
       <path id="DejaVuSans-51" d="M 3513 2113 
L 3513 0 
L 2938 0 
L 2938 2094 
Q 2938 2591 2744 2837 
Q 2550 3084 2163 3084 
Q 1697 3084 1428 2787 
Q 1159 2491 1159 1978 
L 1159 0 
L 581 0 
L 581 3500 
L 1159 3500 
L 1159 2956 
Q 1366 3272 1645 3428 
Q 1925 3584 2291 3584 
Q 2894 3584 3203 3211 
Q 3513 2838 3513 2113 
z
" transform="scale(0.015625)"/>
       <path id="DejaVuSans-4a" d="M 2906 1791 
Q 2906 2416 2648 2759 
Q 2391 3103 1925 3103 
Q 1463 3103 1205 2759 
Q 947 2416 947 1791 
Q 947 1169 1205 825 
Q 1463 481 1925 481 
Q 2391 481 2648 825 
Q 2906 1169 2906 1791 
z
M 3481 434 
Q 3481 -459 3084 -895 
Q 2688 -1331 1869 -1331 
Q 1566 -1331 1297 -1286 
Q 1028 -1241 775 -1147 
L 775 -588 
Q 1028 -725 1275 -790 
Q 1522 -856 1778 -856 
Q 2344 -856 2625 -561 
Q 2906 -266 2906 331 
L 2906 616 
Q 2728 306 2450 153 
Q 2172 0 1784 0 
Q 1141 0 747 490 
Q 353 981 353 1791 
Q 353 2603 747 3093 
Q 1141 3584 1784 3584 
Q 2172 3584 2450 3431 
Q 2728 3278 2906 2969 
L 2906 3500 
L 3481 3500 
L 3481 434 
z
" transform="scale(0.015625)"/>
       <path id="DejaVuSans-57" d="M 1172 4494 
L 1172 3500 
L 2356 3500 
L 2356 3053 
L 1172 3053 
L 1172 1153 
Q 1172 725 1289 603 
Q 1406 481 1766 481 
L 2356 481 
L 2356 0 
L 1766 0 
Q 1100 0 847 248 
Q 594 497 594 1153 
L 594 3053 
L 172 3053 
L 172 3500 
L 594 3500 
L 594 4494 
L 1172 4494 
z
" transform="scale(0.015625)"/>
       <path id="DejaVuSans-4b" d="M 3513 2113 
L 3513 0 
L 2938 0 
L 2938 2094 
Q 2938 2591 2744 2837 
Q 2550 3084 2163 3084 
Q 1697 3084 1428 2787 
Q 1159 2491 1159 1978 
L 1159 0 
L 581 0 
L 581 4863 
L 1159 4863 
L 1159 2956 
Q 1366 3272 1645 3428 
Q 1925 3584 2291 3584 
Q 2894 3584 3203 3211 
Q 3513 2838 3513 2113 
z
" transform="scale(0.015625)"/>
       <path id="DejaVuSans-3" transform="scale(0.015625)"/>
       <path id="DejaVuSans-3e" d="M 550 4863 
L 1875 4863 
L 1875 4416 
L 1125 4416 
L 1125 -397 
L 1875 -397 
L 1875 -844 
L 550 -844 
L 550 4863 
z
" transform="scale(0.015625)"/>
       <path id="DejaVuSans-87" d="M 2663 5081 
Q 2663 5278 2523 5417 
Q 2384 5556 2188 5556 
Q 1988 5556 1852 5420 
Q 1716 5284 1716 5081 
Q 1716 4884 1853 4746 
Q 1991 4609 2188 4609 
Q 2384 4609 2523 4746 
Q 2663 4884 2663 5081 
z
M 2188 4044 
L 1338 1722 
L 3041 1722 
L 2188 4044 
z
M 1716 4366 
Q 1525 4494 1428 4673 
Q 1331 4853 1331 5081 
Q 1331 5441 1579 5691 
Q 1828 5941 2188 5941 
Q 2544 5941 2795 5689 
Q 3047 5438 3047 5081 
Q 3047 4863 2948 4678 
Q 2850 4494 2663 4366 
L 4325 0 
L 3669 0 
L 3244 1197 
L 1141 1197 
L 716 0 
L 50 0 
L 1716 4366 
z
" transform="scale(0.015625)"/>
       <path id="DejaVuSans-40" d="M 1947 4863 
L 1947 -844 
L 622 -844 
L 622 -397 
L 1369 -397 
L 1369 4416 
L 622 4416 
L 622 4863 
L 1947 4863 
z
" transform="scale(0.015625)"/>
      </defs>
      <use xlink:href="#DejaVuSans-5a"/>
      <use xlink:href="#DejaVuSans-44" transform="translate(81.78125 0)"/>
      <use xlink:href="#DejaVuSans-59" transform="translate(143.0625 0)"/>
      <use xlink:href="#DejaVuSans-48" transform="translate(202.25 0)"/>
      <use xlink:href="#DejaVuSans-4f" transform="translate(263.78125 0)"/>
      <use xlink:href="#DejaVuSans-48" transform="translate(291.5625 0)"/>
      <use xlink:href="#DejaVuSans-51" transform="translate(353.09375 0)"/>
      <use xlink:href="#DejaVuSans-4a" transform="translate(416.46875 0)"/>
      <use xlink:href="#DejaVuSans-57" transform="translate(479.953125 0)"/>
      <use xlink:href="#DejaVuSans-4b" transform="translate(519.15625 0)"/>
      <use xlink:href="#DejaVuSans-3" transform="translate(582.53125 0)"/>
      <use xlink:href="#DejaVuSans-3e" transform="translate(614.3125 0)"/>
      <use xlink:href="#DejaVuSans-87" transform="translate(653.328125 0)"/>
      <use xlink:href="#DejaVuSans-40" transform="translate(721.734375 0)"/>
     </g>
    </g>
   </g>
   <g id="matplotlib.axis_2">
    <g id="ytick_1">
     <g id="line2d_9">
      <defs>
       <path id="m25f0a6c7bc" d="M 0 0 
L -3.5 0 
" style="stroke: #000000; stroke-width: 0.8"/>
      </defs>
      <g>
       <use xlink:href="#m25f0a6c7bc" x="47.288281" y="218.88" style="stroke: #000000; stroke-width: 0.8"/>
      </g>
     </g>
     <g id="text_10">
      <!-- 0 -->
      <g transform="translate(33.925781 222.678828) scale(0.1 -0.1)">
       <use xlink:href="#DejaVuSans-13"/>
      </g>
     </g>
    </g>
    <g id="ytick_2">
     <g id="line2d_10">
      <g>
       <use xlink:href="#m25f0a6c7bc" x="47.288281" y="191.746756" style="stroke: #000000; stroke-width: 0.8"/>
      </g>
     </g>
     <g id="text_11">
      <!-- 100 -->
      <g transform="translate(21.200781 195.545585) scale(0.1 -0.1)">
       <use xlink:href="#DejaVuSans-14"/>
       <use xlink:href="#DejaVuSans-13" transform="translate(63.625 0)"/>
       <use xlink:href="#DejaVuSans-13" transform="translate(127.25 0)"/>
      </g>
     </g>
    </g>
    <g id="ytick_3">
     <g id="line2d_11">
      <g>
       <use xlink:href="#m25f0a6c7bc" x="47.288281" y="164.613513" style="stroke: #000000; stroke-width: 0.8"/>
      </g>
     </g>
     <g id="text_12">
      <!-- 200 -->
      <g transform="translate(21.200781 168.412341) scale(0.1 -0.1)">
       <use xlink:href="#DejaVuSans-15"/>
       <use xlink:href="#DejaVuSans-13" transform="translate(63.625 0)"/>
       <use xlink:href="#DejaVuSans-13" transform="translate(127.25 0)"/>
      </g>
     </g>
    </g>
    <g id="ytick_4">
     <g id="line2d_12">
      <g>
       <use xlink:href="#m25f0a6c7bc" x="47.288281" y="137.480269" style="stroke: #000000; stroke-width: 0.8"/>
      </g>
     </g>
     <g id="text_13">
      <!-- 300 -->
      <g transform="translate(21.200781 141.279097) scale(0.1 -0.1)">
       <use xlink:href="#DejaVuSans-16"/>
       <use xlink:href="#DejaVuSans-13" transform="translate(63.625 0)"/>
       <use xlink:href="#DejaVuSans-13" transform="translate(127.25 0)"/>
      </g>
     </g>
    </g>
    <g id="ytick_5">
     <g id="line2d_13">
      <g>
       <use xlink:href="#m25f0a6c7bc" x="47.288281" y="110.347026" style="stroke: #000000; stroke-width: 0.8"/>
      </g>
     </g>
     <g id="text_14">
      <!-- 400 -->
      <g transform="translate(21.200781 114.145854) scale(0.1 -0.1)">
       <use xlink:href="#DejaVuSans-17"/>
       <use xlink:href="#DejaVuSans-13" transform="translate(63.625 0)"/>
       <use xlink:href="#DejaVuSans-13" transform="translate(127.25 0)"/>
      </g>
     </g>
    </g>
    <g id="ytick_6">
     <g id="line2d_14">
      <g>
       <use xlink:href="#m25f0a6c7bc" x="47.288281" y="83.213782" style="stroke: #000000; stroke-width: 0.8"/>
      </g>
     </g>
     <g id="text_15">
      <!-- 500 -->
      <g transform="translate(21.200781 87.01261) scale(0.1 -0.1)">
       <use xlink:href="#DejaVuSans-18"/>
       <use xlink:href="#DejaVuSans-13" transform="translate(63.625 0)"/>
       <use xlink:href="#DejaVuSans-13" transform="translate(127.25 0)"/>
      </g>
     </g>
    </g>
    <g id="ytick_7">
     <g id="line2d_15">
      <g>
       <use xlink:href="#m25f0a6c7bc" x="47.288281" y="56.080538" style="stroke: #000000; stroke-width: 0.8"/>
      </g>
     </g>
     <g id="text_16">
      <!-- 600 -->
      <g transform="translate(21.200781 59.879366) scale(0.1 -0.1)">
       <defs>
        <path id="DejaVuSans-19" d="M 2113 2584 
Q 1688 2584 1439 2293 
Q 1191 2003 1191 1497 
Q 1191 994 1439 701 
Q 1688 409 2113 409 
Q 2538 409 2786 701 
Q 3034 994 3034 1497 
Q 3034 2003 2786 2293 
Q 2538 2584 2113 2584 
z
M 3366 4563 
L 3366 3988 
Q 3128 4100 2886 4159 
Q 2644 4219 2406 4219 
Q 1781 4219 1451 3797 
Q 1122 3375 1075 2522 
Q 1259 2794 1537 2939 
Q 1816 3084 2150 3084 
Q 2853 3084 3261 2657 
Q 3669 2231 3669 1497 
Q 3669 778 3244 343 
Q 2819 -91 2113 -91 
Q 1303 -91 875 529 
Q 447 1150 447 2328 
Q 447 3434 972 4092 
Q 1497 4750 2381 4750 
Q 2619 4750 2861 4703 
Q 3103 4656 3366 4563 
z
" transform="scale(0.015625)"/>
       </defs>
       <use xlink:href="#DejaVuSans-19"/>
       <use xlink:href="#DejaVuSans-13" transform="translate(63.625 0)"/>
       <use xlink:href="#DejaVuSans-13" transform="translate(127.25 0)"/>
      </g>
     </g>
    </g>
    <g id="ytick_8">
     <g id="line2d_16">
      <g>
       <use xlink:href="#m25f0a6c7bc" x="47.288281" y="28.947295" style="stroke: #000000; stroke-width: 0.8"/>
      </g>
     </g>
     <g id="text_17">
      <!-- 700 -->
      <g transform="translate(21.200781 32.746123) scale(0.1 -0.1)">
       <defs>
        <path id="DejaVuSans-1a" d="M 525 4666 
L 3525 4666 
L 3525 4397 
L 1831 0 
L 1172 0 
L 2766 4134 
L 525 4134 
L 525 4666 
z
" transform="scale(0.015625)"/>
       </defs>
       <use xlink:href="#DejaVuSans-1a"/>
       <use xlink:href="#DejaVuSans-13" transform="translate(63.625 0)"/>
       <use xlink:href="#DejaVuSans-13" transform="translate(127.25 0)"/>
      </g>
     </g>
    </g>
    <g id="text_18">
     <!-- [counts] -->
     <g transform="translate(14.798438 138.6925) rotate(-90) scale(0.1 -0.1)">
      <defs>
       <path id="DejaVuSans-46" d="M 3122 3366 
L 3122 2828 
Q 2878 2963 2633 3030 
Q 2388 3097 2138 3097 
Q 1578 3097 1268 2742 
Q 959 2388 959 1747 
Q 959 1106 1268 751 
Q 1578 397 2138 397 
Q 2388 397 2633 464 
Q 2878 531 3122 666 
L 3122 134 
Q 2881 22 2623 -34 
Q 2366 -91 2075 -91 
Q 1284 -91 818 406 
Q 353 903 353 1747 
Q 353 2603 823 3093 
Q 1294 3584 2113 3584 
Q 2378 3584 2631 3529 
Q 2884 3475 3122 3366 
z
" transform="scale(0.015625)"/>
       <path id="DejaVuSans-52" d="M 1959 3097 
Q 1497 3097 1228 2736 
Q 959 2375 959 1747 
Q 959 1119 1226 758 
Q 1494 397 1959 397 
Q 2419 397 2687 759 
Q 2956 1122 2956 1747 
Q 2956 2369 2687 2733 
Q 2419 3097 1959 3097 
z
M 1959 3584 
Q 2709 3584 3137 3096 
Q 3566 2609 3566 1747 
Q 3566 888 3137 398 
Q 2709 -91 1959 -91 
Q 1206 -91 779 398 
Q 353 888 353 1747 
Q 353 2609 779 3096 
Q 1206 3584 1959 3584 
z
" transform="scale(0.015625)"/>
       <path id="DejaVuSans-58" d="M 544 1381 
L 544 3500 
L 1119 3500 
L 1119 1403 
Q 1119 906 1312 657 
Q 1506 409 1894 409 
Q 2359 409 2629 706 
Q 2900 1003 2900 1516 
L 2900 3500 
L 3475 3500 
L 3475 0 
L 2900 0 
L 2900 538 
Q 2691 219 2414 64 
Q 2138 -91 1772 -91 
Q 1169 -91 856 284 
Q 544 659 544 1381 
z
M 1991 3584 
L 1991 3584 
z
" transform="scale(0.015625)"/>
       <path id="DejaVuSans-56" d="M 2834 3397 
L 2834 2853 
Q 2591 2978 2328 3040 
Q 2066 3103 1784 3103 
Q 1356 3103 1142 2972 
Q 928 2841 928 2578 
Q 928 2378 1081 2264 
Q 1234 2150 1697 2047 
L 1894 2003 
Q 2506 1872 2764 1633 
Q 3022 1394 3022 966 
Q 3022 478 2636 193 
Q 2250 -91 1575 -91 
Q 1294 -91 989 -36 
Q 684 19 347 128 
L 347 722 
Q 666 556 975 473 
Q 1284 391 1588 391 
Q 1994 391 2212 530 
Q 2431 669 2431 922 
Q 2431 1156 2273 1281 
Q 2116 1406 1581 1522 
L 1381 1569 
Q 847 1681 609 1914 
Q 372 2147 372 2553 
Q 372 3047 722 3315 
Q 1072 3584 1716 3584 
Q 2034 3584 2315 3537 
Q 2597 3491 2834 3397 
z
" transform="scale(0.015625)"/>
      </defs>
      <use xlink:href="#DejaVuSans-3e"/>
      <use xlink:href="#DejaVuSans-46" transform="translate(39.015625 0)"/>
      <use xlink:href="#DejaVuSans-52" transform="translate(94 0)"/>
      <use xlink:href="#DejaVuSans-58" transform="translate(155.1875 0)"/>
      <use xlink:href="#DejaVuSans-51" transform="translate(218.5625 0)"/>
      <use xlink:href="#DejaVuSans-57" transform="translate(281.9375 0)"/>
      <use xlink:href="#DejaVuSans-56" transform="translate(321.140625 0)"/>
      <use xlink:href="#DejaVuSans-40" transform="translate(373.234375 0)"/>
     </g>
    </g>
   </g>
   <g id="line2d_17">
    <path d="M 62.506463 218.88 
L 70.115554 218.88 
L 70.115554 216.709341 
L 71.637372 216.709341 
L 71.637372 211.282692 
L 73.15919 211.282692 
L 73.15919 200.700727 
L 74.681009 200.700727 
L 74.681009 192.832086 
L 76.202827 192.832086 
L 76.202827 189.033432 
L 77.724645 189.033432 
L 77.724645 179.536797 
L 79.246463 179.536797 
L 79.246463 167.326837 
L 80.768281 167.326837 
L 80.768281 155.116878 
L 82.290099 155.116878 
L 82.290099 153.488883 
L 83.811918 153.488883 
L 83.811918 138.836931 
L 85.333736 138.836931 
L 85.333736 137.480269 
L 86.855554 137.480269 
L 86.855554 126.355639 
L 88.377372 126.355639 
L 88.377372 111.97502 
L 89.89919 111.97502 
L 89.89919 103.292382 
L 91.421009 103.292382 
L 91.421009 103.563715 
L 92.942827 103.563715 
L 92.942827 94.067079 
L 94.464645 94.067079 
L 94.464645 85.384441 
L 95.986463 85.384441 
L 95.986463 88.097766 
L 97.508281 88.097766 
L 97.508281 61.235855 
L 99.030099 61.235855 
L 99.030099 75.345141 
L 100.551918 75.345141 
L 100.551918 54.995209 
L 102.073736 54.995209 
L 102.073736 54.452544 
L 103.595554 54.452544 
L 103.595554 44.141911 
L 105.117372 44.141911 
L 105.117372 49.839892 
L 106.63919 49.839892 
L 106.63919 42.513917 
L 108.161009 42.513917 
L 108.161009 30.303957 
L 109.682827 30.303957 
L 109.682827 35.459273 
L 111.204645 35.459273 
L 111.204645 22.435316 
L 112.726463 22.435316 
L 112.726463 36.001938 
L 114.248281 36.001938 
L 114.248281 22.977981 
L 115.770099 22.977981 
L 115.770099 20.264657 
L 117.291918 20.264657 
L 117.291918 20.807322 
L 118.813736 20.807322 
L 118.813736 25.691306 
L 120.335554 25.691306 
L 120.335554 17.28 
L 121.857372 17.28 
L 121.857372 21.892651 
L 123.37919 21.892651 
L 123.37919 25.419973 
L 124.901009 25.419973 
L 124.901009 31.117954 
L 126.422827 31.117954 
L 126.422827 24.334643 
L 127.944645 24.334643 
L 127.944645 23.249314 
L 129.466463 23.249314 
L 129.466463 27.047968 
L 130.988281 27.047968 
L 130.988281 38.986595 
L 132.510099 38.986595 
L 132.510099 37.3586 
L 134.031918 37.3586 
L 134.031918 44.684576 
L 135.553736 44.684576 
L 135.553736 46.583903 
L 137.075554 46.583903 
L 137.075554 48.48323 
L 138.597372 48.48323 
L 138.597372 33.831279 
L 140.11919 33.831279 
L 140.11919 44.955908 
L 141.641009 44.955908 
L 141.641009 36.815935 
L 143.162827 36.815935 
L 143.162827 41.699919 
L 144.684645 41.699919 
L 144.684645 57.165868 
L 146.206463 57.165868 
L 146.206463 54.995209 
L 147.728281 54.995209 
L 147.728281 51.467887 
L 149.250099 51.467887 
L 149.250099 55.266541 
L 150.771918 55.266541 
L 150.771918 62.592517 
L 152.293736 62.592517 
L 152.293736 68.833163 
L 153.815554 68.833163 
L 153.815554 58.52253 
L 155.337372 58.52253 
L 155.337372 53.095882 
L 156.85919 53.095882 
L 156.85919 74.802476 
L 158.381009 74.802476 
L 158.381009 61.235855 
L 159.902827 61.235855 
L 159.902827 84.299112 
L 161.424645 84.299112 
L 161.424645 61.77852 
L 162.946463 61.77852 
L 162.946463 70.461157 
L 164.468281 70.461157 
L 164.468281 69.918493 
L 165.990099 69.918493 
L 165.990099 65.848506 
L 167.511918 65.848506 
L 167.511918 64.763176 
L 169.033736 64.763176 
L 169.033736 54.723876 
L 170.555554 54.723876 
L 170.555554 71.546487 
L 172.077372 71.546487 
L 172.077372 68.56183 
L 173.59919 68.56183 
L 173.59919 79.415128 
L 175.121009 79.415128 
L 175.121009 77.515801 
L 176.642827 77.515801 
L 176.642827 66.119838 
L 178.164645 66.119838 
L 178.164645 78.872463 
L 179.686463 78.872463 
L 179.686463 77.787133 
L 181.208281 77.787133 
L 181.208281 85.113109 
L 182.730099 85.113109 
L 182.730099 105.463042 
L 184.251918 105.463042 
L 184.251918 103.292382 
L 185.773736 103.292382 
L 185.773736 100.579058 
L 187.295554 100.579058 
L 187.295554 122.556985 
L 188.817372 122.556985 
L 188.817372 122.01432 
L 191.861009 122.01432 
L 191.861009 131.239623 
L 193.382827 131.239623 
L 193.382827 142.906918 
L 194.904645 142.906918 
L 194.904645 152.674886 
L 196.426463 152.674886 
L 196.426463 158.644199 
L 197.948281 158.644199 
L 197.948281 157.287537 
L 199.470099 157.287537 
L 199.470099 174.38148 
L 200.991918 174.38148 
L 200.991918 171.668156 
L 202.513736 171.668156 
L 202.513736 191.475424 
L 204.035554 191.475424 
L 204.035554 192.289421 
L 205.557372 192.289421 
L 205.557372 197.173405 
L 207.07919 197.173405 
L 207.07919 202.328721 
L 208.601009 202.328721 
L 208.601009 209.112032 
L 210.122827 209.112032 
L 210.122827 214.810013 
L 211.644645 214.810013 
L 211.644645 216.166676 
L 213.166463 216.166676 
L 213.166463 211.282692 
L 214.688281 211.282692 
L 214.688281 204.770713 
L 216.210099 204.770713 
L 216.210099 202.328721 
L 217.731918 202.328721 
L 217.731918 194.188748 
L 219.253736 194.188748 
L 219.253736 187.948102 
L 220.775554 187.948102 
L 220.775554 185.234778 
L 222.297372 185.234778 
L 222.297372 178.994132 
L 223.81919 178.994132 
L 223.81919 165.156178 
L 225.341009 165.156178 
L 225.341009 170.311494 
L 226.862827 170.311494 
L 226.862827 160.543526 
L 228.384645 160.543526 
L 228.384645 156.47354 
L 229.906463 156.47354 
L 229.906463 153.21755 
L 231.428281 153.21755 
L 231.428281 145.620242 
L 232.950099 145.620242 
L 232.950099 138.565599 
L 234.471918 138.565599 
L 234.471918 134.766945 
L 235.993736 134.766945 
L 235.993736 135.852275 
L 237.515554 135.852275 
L 237.515554 133.952948 
L 239.037372 133.952948 
L 239.037372 126.898304 
L 240.55919 126.898304 
L 240.55919 125.541642 
L 242.081009 125.541642 
L 242.081009 111.97502 
L 243.602827 111.97502 
L 243.602827 114.688345 
L 245.124645 114.688345 
L 245.124645 101.121723 
L 246.646463 101.121723 
L 246.646463 110.075693 
L 248.168281 110.075693 
L 248.168281 105.191709 
L 249.690099 105.191709 
L 249.690099 101.664388 
L 251.211918 101.664388 
L 251.211918 101.93572 
L 252.733736 101.93572 
L 252.733736 104.649044 
L 254.255554 104.649044 
L 254.255554 103.563715 
L 255.777372 103.563715 
L 255.777372 83.213782 
L 257.29919 83.213782 
L 257.29919 83.485114 
L 258.821009 83.485114 
L 258.821009 88.911763 
L 260.342827 88.911763 
L 260.342827 84.299112 
L 261.864645 84.299112 
L 261.864645 89.183096 
L 263.386463 89.183096 
L 263.386463 78.872463 
L 264.908281 78.872463 
L 264.908281 96.509071 
L 266.430099 96.509071 
L 266.430099 90.539758 
L 267.951918 90.539758 
L 267.951918 95.423742 
L 269.473736 95.423742 
L 269.473736 104.10638 
L 270.995554 104.10638 
L 270.995554 99.222396 
L 272.517372 99.222396 
L 272.517372 103.02105 
L 274.03919 103.02105 
L 274.03919 105.191709 
L 275.561009 105.191709 
L 275.561009 93.524415 
L 277.082827 93.524415 
L 277.082827 116.045007 
L 278.604645 116.045007 
L 278.604645 100.85039 
L 280.126463 100.85039 
L 280.126463 113.331682 
L 281.648281 113.331682 
L 281.648281 119.572328 
L 283.170099 119.572328 
L 283.170099 111.97502 
L 284.691918 111.97502 
L 284.691918 122.01432 
L 286.213736 122.01432 
L 286.213736 116.045007 
L 287.735554 116.045007 
L 287.735554 110.347026 
L 289.257372 110.347026 
L 289.257372 114.688345 
L 290.77919 114.688345 
L 290.77919 120.657658 
L 292.301009 120.657658 
L 292.301009 115.231009 
L 293.822827 115.231009 
L 293.822827 129.882961 
L 295.344645 129.882961 
L 295.344645 126.084307 
L 296.866463 126.084307 
L 296.866463 127.440969 
L 298.388281 127.440969 
L 298.388281 129.882961 
L 299.910099 129.882961 
L 299.910099 129.340296 
L 301.431918 129.340296 
L 301.431918 134.22428 
L 302.953736 134.22428 
L 302.953736 133.410283 
L 304.475554 133.410283 
L 304.475554 130.425626 
L 305.997372 130.425626 
L 305.997372 148.876231 
L 307.51919 148.876231 
L 307.51919 144.806245 
L 309.041009 144.806245 
L 309.041009 142.906918 
L 310.562827 142.906918 
L 310.562827 146.705572 
L 312.084645 146.705572 
L 312.084645 155.930875 
L 313.606463 155.930875 
L 313.606463 147.248237 
L 315.128281 147.248237 
L 315.128281 151.589556 
L 316.650099 151.589556 
L 316.650099 140.736258 
L 318.171918 140.736258 
L 318.171918 157.558869 
L 319.693736 157.558869 
L 319.693736 156.744872 
L 321.215554 156.744872 
L 321.215554 160.543526 
L 322.737372 160.543526 
L 322.737372 160.272194 
L 324.25919 160.272194 
L 324.25919 169.226164 
L 325.781009 169.226164 
L 325.781009 164.34218 
L 327.302827 164.34218 
L 327.302827 171.396824 
L 328.824645 171.396824 
L 328.824645 175.46681 
L 330.346463 175.46681 
L 330.346463 177.908802 
L 331.868281 177.908802 
L 331.868281 179.265464 
L 333.390099 179.265464 
L 333.390099 181.978789 
L 334.911918 181.978789 
L 334.911918 188.219435 
L 336.433736 188.219435 
L 336.433736 193.374751 
L 337.955554 193.374751 
L 337.955554 190.932759 
L 339.477372 190.932759 
L 339.477372 200.972059 
L 340.99919 200.972059 
L 340.99919 204.228048 
L 342.521009 204.228048 
L 342.521009 200.158062 
L 344.042827 200.158062 
L 344.042827 206.398708 
L 345.564645 206.398708 
L 345.564645 204.499381 
L 347.086463 204.499381 
L 347.086463 206.127376 
L 348.608281 206.127376 
L 348.608281 208.8407 
L 350.130099 208.8407 
L 350.130099 212.639354 
L 351.651918 212.639354 
L 351.651918 212.096689 
L 353.173736 212.096689 
L 353.173736 214.810013 
L 354.695554 214.810013 
L 354.695554 217.79467 
L 357.73919 217.79467 
L 357.73919 218.88 
L 366.870099 218.88 
L 366.870099 218.88 
" clip-path="url(#pb4c8b44611)" style="fill: none; stroke: #1f77b4; stroke-width: 1.5; stroke-linecap: square"/>
   </g>
   <g id="patch_3">
    <path d="M 47.288281 228.96 
L 47.288281 7.2 
" style="fill: none; stroke: #000000; stroke-width: 0.8; stroke-linejoin: miter; stroke-linecap: square"/>
   </g>
   <g id="patch_4">
    <path d="M 382.088281 228.96 
L 382.088281 7.2 
" style="fill: none; stroke: #000000; stroke-width: 0.8; stroke-linejoin: miter; stroke-linecap: square"/>
   </g>
   <g id="patch_5">
    <path d="M 47.288281 228.96 
L 382.088281 228.96 
" style="fill: none; stroke: #000000; stroke-width: 0.8; stroke-linejoin: miter; stroke-linecap: square"/>
   </g>
   <g id="patch_6">
    <path d="M 47.288281 7.2 
L 382.088281 7.2 
" style="fill: none; stroke: #000000; stroke-width: 0.8; stroke-linejoin: miter; stroke-linecap: square"/>
   </g>
  </g>
 </g>
 <defs>
  <clipPath id="pb4c8b44611">
   <rect x="47.288281" y="7.2" width="334.8" height="221.76"/>
  </clipPath>
 </defs>
</svg>
