<?xml version="1.0" encoding="utf-8" standalone="no"?>
<!DOCTYPE svg PUBLIC "-//W3C//DTD SVG 1.1//EN"
  "http://www.w3.org/Graphics/SVG/1.1/DTD/svg11.dtd">
<svg xmlns:xlink="http://www.w3.org/1999/xlink" width="401.690625pt" height="271.253665pt" viewBox="0 0 401.690625 271.253665" xmlns="http://www.w3.org/2000/svg" version="1.1">
 <metadata>
  <rdf:RDF xmlns:dc="http://purl.org/dc/elements/1.1/" xmlns:cc="http://creativecommons.org/ns#" xmlns:rdf="http://www.w3.org/1999/02/22-rdf-syntax-ns#">
   <cc:Work>
    <dc:type rdf:resource="http://purl.org/dc/dcmitype/StillImage"/>
    <dc:date>2026-04-22T12:31:23.635118</dc:date>
    <dc:format>image/svg+xml</dc:format>
    <dc:creator>
     <cc:Agent>
      <dc:title>Matplotlib v3.10.8, https://matplotlib.org/</dc:title>
     </cc:Agent>
    </dc:creator>
   </cc:Work>
  </rdf:RDF>
 </metadata>
 <defs>
  <style type="text/css">*{stroke-linejoin: round; stroke-linecap: butt}</style>
 </defs>
 <g id="figure_1">
  <g id="patch_1">
   <path d="M 0 271.253665 
L 401.690625 271.253665 
L 401.690625 0 
L 0 0 
z
" style="fill: #ffffff"/>
  </g>
  <g id="axes_1">
   <g id="patch_2">
    <path d="M 59.690625 232.01304 
L 394.490625 232.01304 
L 394.490625 10.25304 
L 59.690625 10.25304 
z
" style="fill: #ffffff"/>
   </g>
   <g id="matplotlib.axis_1">
    <g id="xtick_1">
     <g id="line2d_1">
      <defs>
       <path id="m997d373a12" d="M 0 0 
L 0 3.5 
" style="stroke: #000000; stroke-width: 0.8"/>
      </defs>
      <g>
       <use xlink:href="#m997d373a12" x="75.911859" y="232.01304" style="stroke: #000000; stroke-width: 0.8"/>
      </g>
     </g>
     <g id="text_1">
      <!-- 1 -->
      <g transform="translate(72.730609 246.611478) scale(0.1 -0.1)">
       <defs>
        <path id="DejaVuSans-31" d="M 794 531 
L 1825 531 
L 1825 4091 
L 703 3866 
L 703 4441 
L 1819 4666 
L 2450 4666 
L 2450 531 
L 3481 531 
L 3481 0 
L 794 0 
L 794 531 
z
" transform="scale(0.015625)"/>
       </defs>
       <use xlink:href="#DejaVuSans-31"/>
      </g>
     </g>
    </g>
    <g id="xtick_2">
     <g id="line2d_2">
      <g>
       <use xlink:href="#m997d373a12" x="129.591513" y="232.01304" style="stroke: #000000; stroke-width: 0.8"/>
      </g>
     </g>
     <g id="text_2">
      <!-- 2 -->
      <g transform="translate(126.410263 246.611478) scale(0.1 -0.1)">
       <defs>
        <path id="DejaVuSans-32" d="M 1228 531 
L 3431 531 
L 3431 0 
L 469 0 
L 469 531 
Q 828 903 1448 1529 
Q 2069 2156 2228 2338 
Q 2531 2678 2651 2914 
Q 2772 3150 2772 3378 
Q 2772 3750 2511 3984 
Q 2250 4219 1831 4219 
Q 1534 4219 1204 4116 
Q 875 4013 500 3803 
L 500 4441 
Q 881 4594 1212 4672 
Q 1544 4750 1819 4750 
Q 2544 4750 2975 4387 
Q 3406 4025 3406 3419 
Q 3406 3131 3298 2873 
Q 3191 2616 2906 2266 
Q 2828 2175 2409 1742 
Q 1991 1309 1228 531 
z
" transform="scale(0.015625)"/>
       </defs>
       <use xlink:href="#DejaVuSans-32"/>
      </g>
     </g>
    </g>
    <g id="xtick_3">
     <g id="line2d_3">
      <g>
       <use xlink:href="#m997d373a12" x="183.271167" y="232.01304" style="stroke: #000000; stroke-width: 0.8"/>
      </g>
     </g>
     <g id="text_3">
      <!-- 3 -->
      <g transform="translate(180.089917 246.611478) scale(0.1 -0.1)">
       <defs>
        <path id="DejaVuSans-33" d="M 2597 2516 
Q 3050 2419 3304 2112 
Q 3559 1806 3559 1356 
Q 3559 666 3084 287 
Q 2609 -91 1734 -91 
Q 1441 -91 1130 -33 
Q 819 25 488 141 
L 488 750 
Q 750 597 1062 519 
Q 1375 441 1716 441 
Q 2309 441 2620 675 
Q 2931 909 2931 1356 
Q 2931 1769 2642 2001 
Q 2353 2234 1838 2234 
L 1294 2234 
L 1294 2753 
L 1863 2753 
Q 2328 2753 2575 2939 
Q 2822 3125 2822 3475 
Q 2822 3834 2567 4026 
Q 2313 4219 1838 4219 
Q 1578 4219 1281 4162 
Q 984 4106 628 3988 
L 628 4550 
Q 988 4650 1302 4700 
Q 1616 4750 1894 4750 
Q 2613 4750 3031 4423 
Q 3450 4097 3450 3541 
Q 3450 3153 3228 2886 
Q 3006 2619 2597 2516 
z
" transform="scale(0.015625)"/>
       </defs>
       <use xlink:href="#DejaVuSans-33"/>
      </g>
     </g>
    </g>
    <g id="xtick_4">
     <g id="line2d_4">
      <g>
       <use xlink:href="#m997d373a12" x="236.95082" y="232.01304" style="stroke: #000000; stroke-width: 0.8"/>
      </g>
     </g>
     <g id="text_4">
      <!-- 4 -->
      <g transform="translate(233.76957 246.611478) scale(0.1 -0.1)">
       <defs>
        <path id="DejaVuSans-34" d="M 2419 4116 
L 825 1625 
L 2419 1625 
L 2419 4116 
z
M 2253 4666 
L 3047 4666 
L 3047 1625 
L 3713 1625 
L 3713 1100 
L 3047 1100 
L 3047 0 
L 2419 0 
L 2419 1100 
L 313 1100 
L 313 1709 
L 2253 4666 
z
" transform="scale(0.015625)"/>
       </defs>
       <use xlink:href="#DejaVuSans-34"/>
      </g>
     </g>
    </g>
    <g id="xtick_5">
     <g id="line2d_5">
      <g>
       <use xlink:href="#m997d373a12" x="290.630474" y="232.01304" style="stroke: #000000; stroke-width: 0.8"/>
      </g>
     </g>
     <g id="text_5">
      <!-- 5 -->
      <g transform="translate(287.449224 246.611478) scale(0.1 -0.1)">
       <defs>
        <path id="DejaVuSans-35" d="M 691 4666 
L 3169 4666 
L 3169 4134 
L 1269 4134 
L 1269 2991 
Q 1406 3038 1543 3061 
Q 1681 3084 1819 3084 
Q 2600 3084 3056 2656 
Q 3513 2228 3513 1497 
Q 3513 744 3044 326 
Q 2575 -91 1722 -91 
Q 1428 -91 1123 -41 
Q 819 9 494 109 
L 494 744 
Q 775 591 1075 516 
Q 1375 441 1709 441 
Q 2250 441 2565 725 
Q 2881 1009 2881 1497 
Q 2881 1984 2565 2268 
Q 2250 2553 1709 2553 
Q 1456 2553 1204 2497 
Q 953 2441 691 2322 
L 691 4666 
z
" transform="scale(0.015625)"/>
       </defs>
       <use xlink:href="#DejaVuSans-35"/>
      </g>
     </g>
    </g>
    <g id="xtick_6">
     <g id="line2d_6">
      <g>
       <use xlink:href="#m997d373a12" x="344.310128" y="232.01304" style="stroke: #000000; stroke-width: 0.8"/>
      </g>
     </g>
     <g id="text_6">
      <!-- 6 -->
      <g transform="translate(341.128878 246.611478) scale(0.1 -0.1)">
       <defs>
        <path id="DejaVuSans-36" d="M 2113 2584 
Q 1688 2584 1439 2293 
Q 1191 2003 1191 1497 
Q 1191 994 1439 701 
Q 1688 409 2113 409 
Q 2538 409 2786 701 
Q 3034 994 3034 1497 
Q 3034 2003 2786 2293 
Q 2538 2584 2113 2584 
z
M 3366 4563 
L 3366 3988 
Q 3128 4100 2886 4159 
Q 2644 4219 2406 4219 
Q 1781 4219 1451 3797 
Q 1122 3375 1075 2522 
Q 1259 2794 1537 2939 
Q 1816 3084 2150 3084 
Q 2853 3084 3261 2657 
Q 3669 2231 3669 1497 
Q 3669 778 3244 343 
Q 2819 -91 2113 -91 
Q 1303 -91 875 529 
Q 447 1150 447 2328 
Q 447 3434 972 4092 
Q 1497 4750 2381 4750 
Q 2619 4750 2861 4703 
Q 3103 4656 3366 4563 
z
" transform="scale(0.015625)"/>
       </defs>
       <use xlink:href="#DejaVuSans-36"/>
      </g>
     </g>
    </g>
    <g id="text_7">
     <!-- wavelength [Å] -->
     <g transform="translate(189.053125 261.973978) scale(0.1 -0.1)">
      <defs>
       <path id="DejaVuSans-77" d="M 269 3500 
L 844 3500 
L 1563 769 
L 2278 3500 
L 2956 3500 
L 3675 769 
L 4391 3500 
L 4966 3500 
L 4050 0 
L 3372 0 
L 2619 2869 
L 1863 0 
L 1184 0 
L 269 3500 
z
" transform="scale(0.015625)"/>
       <path id="DejaVuSans-61" d="M 2194 1759 
Q 1497 1759 1228 1600 
Q 959 1441 959 1056 
Q 959 750 1161 570 
Q 1363 391 1709 391 
Q 2188 391 2477 730 
Q 2766 1069 2766 1631 
L 2766 1759 
L 2194 1759 
z
M 3341 1997 
L 3341 0 
L 2766 0 
L 2766 531 
Q 2569 213 2275 61 
Q 1981 -91 1556 -91 
Q 1019 -91 701 211 
Q 384 513 384 1019 
Q 384 1609 779 1909 
Q 1175 2209 1959 2209 
L 2766 2209 
L 2766 2266 
Q 2766 2663 2505 2880 
Q 2244 3097 1772 3097 
Q 1472 3097 1187 3025 
Q 903 2953 641 2809 
L 641 3341 
Q 956 3463 1253 3523 
Q 1550 3584 1831 3584 
Q 2591 3584 2966 3190 
Q 3341 2797 3341 1997 
z
" transform="scale(0.015625)"/>
       <path id="DejaVuSans-76" d="M 191 3500 
L 800 3500 
L 1894 563 
L 2988 3500 
L 3597 3500 
L 2284 0 
L 1503 0 
L 191 3500 
z
" transform="scale(0.015625)"/>
       <path id="DejaVuSans-65" d="M 3597 1894 
L 3597 1613 
L 953 1613 
Q 991 1019 1311 708 
Q 1631 397 2203 397 
Q 2534 397 2845 478 
Q 3156 559 3463 722 
L 3463 178 
Q 3153 47 2828 -22 
Q 2503 -91 2169 -91 
Q 1331 -91 842 396 
Q 353 884 353 1716 
Q 353 2575 817 3079 
Q 1281 3584 2069 3584 
Q 2775 3584 3186 3129 
Q 3597 2675 3597 1894 
z
M 3022 2063 
Q 3016 2534 2758 2815 
Q 2500 3097 2075 3097 
Q 1594 3097 1305 2825 
Q 1016 2553 972 2059 
L 3022 2063 
z
" transform="scale(0.015625)"/>
       <path id="DejaVuSans-6c" d="M 603 4863 
L 1178 4863 
L 1178 0 
L 603 0 
L 603 4863 
z
" transform="scale(0.015625)"/>
       <path id="DejaVuSans-6e" d="M 3513 2113 
L 3513 0 
L 2938 0 
L 2938 2094 
Q 2938 2591 2744 2837 
Q 2550 3084 2163 3084 
Q 1697 3084 1428 2787 
Q 1159 2491 1159 1978 
L 1159 0 
L 581 0 
L 581 3500 
L 1159 3500 
L 1159 2956 
Q 1366 3272 1645 3428 
Q 1925 3584 2291 3584 
Q 2894 3584 3203 3211 
Q 3513 2838 3513 2113 
z
" transform="scale(0.015625)"/>
       <path id="DejaVuSans-67" d="M 2906 1791 
Q 2906 2416 2648 2759 
Q 2391 3103 1925 3103 
Q 1463 3103 1205 2759 
Q 947 2416 947 1791 
Q 947 1169 1205 825 
Q 1463 481 1925 481 
Q 2391 481 2648 825 
Q 2906 1169 2906 1791 
z
M 3481 434 
Q 3481 -459 3084 -895 
Q 2688 -1331 1869 -1331 
Q 1566 -1331 1297 -1286 
Q 1028 -1241 775 -1147 
L 775 -588 
Q 1028 -725 1275 -790 
Q 1522 -856 1778 -856 
Q 2344 -856 2625 -561 
Q 2906 -266 2906 331 
L 2906 616 
Q 2728 306 2450 153 
Q 2172 0 1784 0 
Q 1141 0 747 490 
Q 353 981 353 1791 
Q 353 2603 747 3093 
Q 1141 3584 1784 3584 
Q 2172 3584 2450 3431 
Q 2728 3278 2906 2969 
L 2906 3500 
L 3481 3500 
L 3481 434 
z
" transform="scale(0.015625)"/>
       <path id="DejaVuSans-74" d="M 1172 4494 
L 1172 3500 
L 2356 3500 
L 2356 3053 
L 1172 3053 
L 1172 1153 
Q 1172 725 1289 603 
Q 1406 481 1766 481 
L 2356 481 
L 2356 0 
L 1766 0 
Q 1100 0 847 248 
Q 594 497 594 1153 
L 594 3053 
L 172 3053 
L 172 3500 
L 594 3500 
L 594 4494 
L 1172 4494 
z
" transform="scale(0.015625)"/>
       <path id="DejaVuSans-68" d="M 3513 2113 
L 3513 0 
L 2938 0 
L 2938 2094 
Q 2938 2591 2744 2837 
Q 2550 3084 2163 3084 
Q 1697 3084 1428 2787 
Q 1159 2491 1159 1978 
L 1159 0 
L 581 0 
L 581 4863 
L 1159 4863 
L 1159 2956 
Q 1366 3272 1645 3428 
Q 1925 3584 2291 3584 
Q 2894 3584 3203 3211 
Q 3513 2838 3513 2113 
z
" transform="scale(0.015625)"/>
       <path id="DejaVuSans-20" transform="scale(0.015625)"/>
       <path id="DejaVuSans-5b" d="M 550 4863 
L 1875 4863 
L 1875 4416 
L 1125 4416 
L 1125 -397 
L 1875 -397 
L 1875 -844 
L 550 -844 
L 550 4863 
z
" transform="scale(0.015625)"/>
       <path id="DejaVuSans-c5" d="M 2663 5081 
Q 2663 5278 2523 5417 
Q 2384 5556 2188 5556 
Q 1988 5556 1852 5420 
Q 1716 5284 1716 5081 
Q 1716 4884 1853 4746 
Q 1991 4609 2188 4609 
Q 2384 4609 2523 4746 
Q 2663 4884 2663 5081 
z
M 2188 4044 
L 1338 1722 
L 3041 1722 
L 2188 4044 
z
M 1716 4366 
Q 1525 4494 1428 4673 
Q 1331 4853 1331 5081 
Q 1331 5441 1579 5691 
Q 1828 5941 2188 5941 
Q 2544 5941 2795 5689 
Q 3047 5438 3047 5081 
Q 3047 4863 2948 4678 
Q 2850 4494 2663 4366 
L 4325 0 
L 3669 0 
L 3244 1197 
L 1141 1197 
L 716 0 
L 50 0 
L 1716 4366 
z
" transform="scale(0.015625)"/>
       <path id="DejaVuSans-5d" d="M 1947 4863 
L 1947 -844 
L 622 -844 
L 622 -397 
L 1369 -397 
L 1369 4416 
L 622 4416 
L 622 4863 
L 1947 4863 
z
" transform="scale(0.015625)"/>
      </defs>
      <use xlink:href="#DejaVuSans-77"/>
      <use xlink:href="#DejaVuSans-61" transform="translate(81.787109 0)"/>
      <use xlink:href="#DejaVuSans-76" transform="translate(143.066406 0)"/>
      <use xlink:href="#DejaVuSans-65" transform="translate(202.246094 0)"/>
      <use xlink:href="#DejaVuSans-6c" transform="translate(263.769531 0)"/>
      <use xlink:href="#DejaVuSans-65" transform="translate(291.552734 0)"/>
      <use xlink:href="#DejaVuSans-6e" transform="translate(353.076172 0)"/>
      <use xlink:href="#DejaVuSans-67" transform="translate(416.455078 0)"/>
      <use xlink:href="#DejaVuSans-74" transform="translate(479.931641 0)"/>
      <use xlink:href="#DejaVuSans-68" transform="translate(519.140625 0)"/>
      <use xlink:href="#DejaVuSans-20" transform="translate(582.519531 0)"/>
      <use xlink:href="#DejaVuSans-5b" transform="translate(614.306641 0)"/>
      <use xlink:href="#DejaVuSans-c5" transform="translate(653.320312 0)"/>
      <use xlink:href="#DejaVuSans-5d" transform="translate(721.728516 0)"/>
     </g>
    </g>
   </g>
   <g id="matplotlib.axis_2">
    <g id="ytick_1">
     <g id="line2d_7">
      <defs>
       <path id="mcf7ed16897" d="M 0 0 
L -3.5 0 
" style="stroke: #000000; stroke-width: 0.8"/>
      </defs>
      <g>
       <use xlink:href="#mcf7ed16897" x="59.690625" y="221.93304" style="stroke: #000000; stroke-width: 0.8"/>
      </g>
     </g>
     <g id="text_8">
      <!-- 0 -->
      <g transform="translate(46.328125 225.732259) scale(0.1 -0.1)">
       <defs>
        <path id="DejaVuSans-30" d="M 2034 4250 
Q 1547 4250 1301 3770 
Q 1056 3291 1056 2328 
Q 1056 1369 1301 889 
Q 1547 409 2034 409 
Q 2525 409 2770 889 
Q 3016 1369 3016 2328 
Q 3016 3291 2770 3770 
Q 2525 4250 2034 4250 
z
M 2034 4750 
Q 2819 4750 3233 4129 
Q 3647 3509 3647 2328 
Q 3647 1150 3233 529 
Q 2819 -91 2034 -91 
Q 1250 -91 836 529 
Q 422 1150 422 2328 
Q 422 3509 836 4129 
Q 1250 4750 2034 4750 
z
" transform="scale(0.015625)"/>
       </defs>
       <use xlink:href="#DejaVuSans-30"/>
      </g>
     </g>
    </g>
    <g id="ytick_2">
     <g id="line2d_8">
      <g>
       <use xlink:href="#mcf7ed16897" x="59.690625" y="186.777403" style="stroke: #000000; stroke-width: 0.8"/>
      </g>
     </g>
     <g id="text_9">
      <!-- 2000 -->
      <g transform="translate(27.240625 190.576622) scale(0.1 -0.1)">
       <use xlink:href="#DejaVuSans-32"/>
       <use xlink:href="#DejaVuSans-30" transform="translate(63.623047 0)"/>
       <use xlink:href="#DejaVuSans-30" transform="translate(127.246094 0)"/>
       <use xlink:href="#DejaVuSans-30" transform="translate(190.869141 0)"/>
      </g>
     </g>
    </g>
    <g id="ytick_3">
     <g id="line2d_9">
      <g>
       <use xlink:href="#mcf7ed16897" x="59.690625" y="151.621766" style="stroke: #000000; stroke-width: 0.8"/>
      </g>
     </g>
     <g id="text_10">
      <!-- 4000 -->
      <g transform="translate(27.240625 155.420985) scale(0.1 -0.1)">
       <use xlink:href="#DejaVuSans-34"/>
       <use xlink:href="#DejaVuSans-30" transform="translate(63.623047 0)"/>
       <use xlink:href="#DejaVuSans-30" transform="translate(127.246094 0)"/>
       <use xlink:href="#DejaVuSans-30" transform="translate(190.869141 0)"/>
      </g>
     </g>
    </g>
    <g id="ytick_4">
     <g id="line2d_10">
      <g>
       <use xlink:href="#mcf7ed16897" x="59.690625" y="116.46613" style="stroke: #000000; stroke-width: 0.8"/>
      </g>
     </g>
     <g id="text_11">
      <!-- 6000 -->
      <g transform="translate(27.240625 120.265348) scale(0.1 -0.1)">
       <use xlink:href="#DejaVuSans-36"/>
       <use xlink:href="#DejaVuSans-30" transform="translate(63.623047 0)"/>
       <use xlink:href="#DejaVuSans-30" transform="translate(127.246094 0)"/>
       <use xlink:href="#DejaVuSans-30" transform="translate(190.869141 0)"/>
      </g>
     </g>
    </g>
    <g id="ytick_5">
     <g id="line2d_11">
      <g>
       <use xlink:href="#mcf7ed16897" x="59.690625" y="81.310493" style="stroke: #000000; stroke-width: 0.8"/>
      </g>
     </g>
     <g id="text_12">
      <!-- 8000 -->
      <g transform="translate(27.240625 85.109711) scale(0.1 -0.1)">
       <defs>
        <path id="DejaVuSans-38" d="M 2034 2216 
Q 1584 2216 1326 1975 
Q 1069 1734 1069 1313 
Q 1069 891 1326 650 
Q 1584 409 2034 409 
Q 2484 409 2743 651 
Q 3003 894 3003 1313 
Q 3003 1734 2745 1975 
Q 2488 2216 2034 2216 
z
M 1403 2484 
Q 997 2584 770 2862 
Q 544 3141 544 3541 
Q 544 4100 942 4425 
Q 1341 4750 2034 4750 
Q 2731 4750 3128 4425 
Q 3525 4100 3525 3541 
Q 3525 3141 3298 2862 
Q 3072 2584 2669 2484 
Q 3125 2378 3379 2068 
Q 3634 1759 3634 1313 
Q 3634 634 3220 271 
Q 2806 -91 2034 -91 
Q 1263 -91 848 271 
Q 434 634 434 1313 
Q 434 1759 690 2068 
Q 947 2378 1403 2484 
z
M 1172 3481 
Q 1172 3119 1398 2916 
Q 1625 2713 2034 2713 
Q 2441 2713 2670 2916 
Q 2900 3119 2900 3481 
Q 2900 3844 2670 4047 
Q 2441 4250 2034 4250 
Q 1625 4250 1398 4047 
Q 1172 3844 1172 3481 
z
" transform="scale(0.015625)"/>
       </defs>
       <use xlink:href="#DejaVuSans-38"/>
       <use xlink:href="#DejaVuSans-30" transform="translate(63.623047 0)"/>
       <use xlink:href="#DejaVuSans-30" transform="translate(127.246094 0)"/>
       <use xlink:href="#DejaVuSans-30" transform="translate(190.869141 0)"/>
      </g>
     </g>
    </g>
    <g id="ytick_6">
     <g id="line2d_12">
      <g>
       <use xlink:href="#mcf7ed16897" x="59.690625" y="46.154856" style="stroke: #000000; stroke-width: 0.8"/>
      </g>
     </g>
     <g id="text_13">
      <!-- 10000 -->
      <g transform="translate(20.878125 49.954074) scale(0.1 -0.1)">
       <use xlink:href="#DejaVuSans-31"/>
       <use xlink:href="#DejaVuSans-30" transform="translate(63.623047 0)"/>
       <use xlink:href="#DejaVuSans-30" transform="translate(127.246094 0)"/>
       <use xlink:href="#DejaVuSans-30" transform="translate(190.869141 0)"/>
       <use xlink:href="#DejaVuSans-30" transform="translate(254.492188 0)"/>
      </g>
     </g>
    </g>
    <g id="ytick_7">
     <g id="line2d_13">
      <g>
       <use xlink:href="#mcf7ed16897" x="59.690625" y="10.999219" style="stroke: #000000; stroke-width: 0.8"/>
      </g>
     </g>
     <g id="text_14">
      <!-- 12000 -->
      <g transform="translate(20.878125 14.798438) scale(0.1 -0.1)">
       <use xlink:href="#DejaVuSans-31"/>
       <use xlink:href="#DejaVuSans-32" transform="translate(63.623047 0)"/>
       <use xlink:href="#DejaVuSans-30" transform="translate(127.246094 0)"/>
       <use xlink:href="#DejaVuSans-30" transform="translate(190.869141 0)"/>
       <use xlink:href="#DejaVuSans-30" transform="translate(254.492188 0)"/>
      </g>
     </g>
    </g>
    <g id="text_15">
     <!-- [counts] -->
     <g transform="translate(14.798438 141.74554) rotate(-90) scale(0.1 -0.1)">
      <defs>
       <path id="DejaVuSans-63" d="M 3122 3366 
L 3122 2828 
Q 2878 2963 2633 3030 
Q 2388 3097 2138 3097 
Q 1578 3097 1268 2742 
Q 959 2388 959 1747 
Q 959 1106 1268 751 
Q 1578 397 2138 397 
Q 2388 397 2633 464 
Q 2878 531 3122 666 
L 3122 134 
Q 2881 22 2623 -34 
Q 2366 -91 2075 -91 
Q 1284 -91 818 406 
Q 353 903 353 1747 
Q 353 2603 823 3093 
Q 1294 3584 2113 3584 
Q 2378 3584 2631 3529 
Q 2884 3475 3122 3366 
z
" transform="scale(0.015625)"/>
       <path id="DejaVuSans-6f" d="M 1959 3097 
Q 1497 3097 1228 2736 
Q 959 2375 959 1747 
Q 959 1119 1226 758 
Q 1494 397 1959 397 
Q 2419 397 2687 759 
Q 2956 1122 2956 1747 
Q 2956 2369 2687 2733 
Q 2419 3097 1959 3097 
z
M 1959 3584 
Q 2709 3584 3137 3096 
Q 3566 2609 3566 1747 
Q 3566 888 3137 398 
Q 2709 -91 1959 -91 
Q 1206 -91 779 398 
Q 353 888 353 1747 
Q 353 2609 779 3096 
Q 1206 3584 1959 3584 
z
" transform="scale(0.015625)"/>
       <path id="DejaVuSans-75" d="M 544 1381 
L 544 3500 
L 1119 3500 
L 1119 1403 
Q 1119 906 1312 657 
Q 1506 409 1894 409 
Q 2359 409 2629 706 
Q 2900 1003 2900 1516 
L 2900 3500 
L 3475 3500 
L 3475 0 
L 2900 0 
L 2900 538 
Q 2691 219 2414 64 
Q 2138 -91 1772 -91 
Q 1169 -91 856 284 
Q 544 659 544 1381 
z
M 1991 3584 
L 1991 3584 
z
" transform="scale(0.015625)"/>
       <path id="DejaVuSans-73" d="M 2834 3397 
L 2834 2853 
Q 2591 2978 2328 3040 
Q 2066 3103 1784 3103 
Q 1356 3103 1142 2972 
Q 928 2841 928 2578 
Q 928 2378 1081 2264 
Q 1234 2150 1697 2047 
L 1894 2003 
Q 2506 1872 2764 1633 
Q 3022 1394 3022 966 
Q 3022 478 2636 193 
Q 2250 -91 1575 -91 
Q 1294 -91 989 -36 
Q 684 19 347 128 
L 347 722 
Q 666 556 975 473 
Q 1284 391 1588 391 
Q 1994 391 2212 530 
Q 2431 669 2431 922 
Q 2431 1156 2273 1281 
Q 2116 1406 1581 1522 
L 1381 1569 
Q 847 1681 609 1914 
Q 372 2147 372 2553 
Q 372 3047 722 3315 
Q 1072 3584 1716 3584 
Q 2034 3584 2315 3537 
Q 2597 3491 2834 3397 
z
" transform="scale(0.015625)"/>
      </defs>
      <use xlink:href="#DejaVuSans-5b"/>
      <use xlink:href="#DejaVuSans-63" transform="translate(39.013672 0)"/>
      <use xlink:href="#DejaVuSans-6f" transform="translate(93.994141 0)"/>
      <use xlink:href="#DejaVuSans-75" transform="translate(155.175781 0)"/>
      <use xlink:href="#DejaVuSans-6e" transform="translate(218.554688 0)"/>
      <use xlink:href="#DejaVuSans-74" transform="translate(281.933594 0)"/>
      <use xlink:href="#DejaVuSans-73" transform="translate(321.142578 0)"/>
      <use xlink:href="#DejaVuSans-5d" transform="translate(373.242188 0)"/>
     </g>
    </g>
   </g>
   <g id="line2d_14">
    <path d="M 81.398824 221.827573 
L 87.840382 221.809996 
L 87.840382 221.651795 
L 89.450772 221.651795 
L 89.450772 221.77484 
L 91.061161 221.77484 
L 91.061161 221.651795 
L 94.281941 221.581484 
L 94.281941 221.458439 
L 97.50272 221.476017 
L 97.50272 221.282661 
L 99.11311 221.282661 
L 99.11311 221.405706 
L 100.723499 221.405706 
L 100.723499 220.720171 
L 103.944278 220.667437 
L 103.944278 220.913527 
L 105.554668 220.913527 
L 105.554668 220.351037 
L 107.165058 220.351037 
L 107.165058 219.964325 
L 108.775447 219.964325 
L 108.775447 220.298303 
L 110.385837 220.298303 
L 110.385837 219.43699 
L 111.996226 219.43699 
L 111.996226 219.120589 
L 113.606616 219.120589 
L 113.606616 218.276854 
L 116.827395 218.259276 
L 116.827395 217.081562 
L 118.437785 217.081562 
L 118.437785 214.532779 
L 120.048174 214.532779 
L 120.048174 214.1988 
L 121.658564 214.1988 
L 121.658564 212.177351 
L 123.268954 212.177351 
L 123.268954 211.175415 
L 124.879343 211.175415 
L 124.879343 208.837566 
L 126.489733 208.837566 
L 126.489733 205.163802 
L 128.100123 205.163802 
L 128.100123 200.945125 
L 129.710512 200.945125 
L 129.710512 198.589697 
L 131.320902 198.589697 
L 131.320902 191.699193 
L 132.931291 191.699193 
L 132.931291 186.777403 
L 134.541681 186.777403 
L 134.541681 180.132988 
L 136.152071 180.132988 
L 136.152071 175.615489 
L 137.76246 175.615489 
L 137.76246 168.426161 
L 139.37285 168.426161 
L 139.37285 164.523885 
L 140.983239 164.523885 
L 140.983239 152.975259 
L 142.593629 152.975259 
L 142.593629 148.598382 
L 144.204019 148.598382 
L 144.204019 140.670786 
L 145.814408 140.670786 
L 145.814408 134.553705 
L 147.424798 134.553705 
L 147.424798 121.880098 
L 149.035187 121.880098 
L 149.035187 115.868484 
L 150.645577 115.868484 
L 150.645577 107.905732 
L 152.255967 107.905732 
L 152.255967 98.782844 
L 153.866356 98.782844 
L 153.866356 99.573846 
L 155.476746 99.573846 
L 155.476746 86.706883 
L 157.087136 86.706883 
L 157.087136 72.275494 
L 158.697525 72.275494 
L 158.697525 58.090194 
L 160.307915 58.090194 
L 160.307915 61.887003 
L 161.918304 61.887003 
L 161.918304 54.504319 
L 163.528694 54.504319 
L 163.528694 53.766051 
L 165.139084 53.766051 
L 165.139084 43.131471 
L 166.749473 43.131471 
L 166.749473 48.070838 
L 168.359863 48.070838 
L 168.359863 38.209682 
L 169.970252 38.209682 
L 169.970252 37.647192 
L 171.580642 37.647192 
L 171.580642 34.289828 
L 173.191032 34.289828 
L 173.191032 32.268379 
L 174.801421 32.268379 
L 174.801421 41.162755 
L 176.411811 41.162755 
L 176.411811 33.041803 
L 178.0222 33.041803 
L 178.0222 34.360139 
L 179.63259 34.360139 
L 179.63259 33.991005 
L 181.24298 33.991005 
L 181.24298 32.285957 
L 182.853369 32.285957 
L 182.853369 26.397388 
L 184.463759 26.397388 
L 184.463759 29.086794 
L 186.074149 29.086794 
L 186.074149 37.365946 
L 187.684538 37.365946 
L 187.684538 28.823127 
L 189.294928 28.823127 
L 189.294928 35.256608 
L 190.905317 35.256608 
L 190.905317 27.979391 
L 192.515707 27.979391 
L 192.515707 37.858125 
L 194.126097 37.858125 
L 194.126097 34.078894 
L 195.736486 34.078894 
L 195.736486 36.944079 
L 197.346876 36.944079 
L 197.346876 39.949886 
L 198.957265 39.949886 
L 198.957265 42.498669 
L 200.567655 42.498669 
L 200.567655 34.219517 
L 202.178045 34.219517 
L 202.178045 42.305313 
L 203.788434 42.305313 
L 203.788434 51.779758 
L 205.398824 51.779758 
L 205.398824 60.586245 
L 207.009213 60.586245 
L 207.009213 54.803142 
L 208.619603 54.803142 
L 208.619603 59.707354 
L 210.229993 59.707354 
L 210.229993 68.215018 
L 211.840382 68.215018 
L 211.840382 62.431916 
L 213.450772 62.431916 
L 213.450772 62.010048 
L 215.061161 62.010048 
L 215.061161 77.742195 
L 216.671551 77.742195 
L 216.671551 76.951194 
L 218.281941 76.951194 
L 218.281941 87.638507 
L 219.89233 87.638507 
L 219.89233 80.238246 
L 221.50272 80.238246 
L 221.50272 94.757524 
L 223.11311 94.757524 
L 223.11311 86.460793 
L 224.723499 86.460793 
L 224.723499 91.312271 
L 226.333889 91.312271 
L 226.333889 96.972329 
L 227.944278 96.972329 
L 227.944278 102.263252 
L 229.554668 102.263252 
L 229.554668 104.495635 
L 231.165058 104.495635 
L 231.165058 100.241803 
L 232.775447 100.241803 
L 232.775447 100.593359 
L 234.385837 100.593359 
L 234.385837 108.556111 
L 235.996226 108.556111 
L 235.996226 106.165528 
L 237.606616 106.165528 
L 237.606616 130.879941 
L 239.217006 130.879941 
L 239.217006 115.147793 
L 240.827395 115.147793 
L 240.827395 121.30003 
L 242.437785 121.30003 
L 242.437785 120.614495 
L 244.048174 120.614495 
L 244.048174 120.456294 
L 245.658564 120.456294 
L 245.658564 117.731732 
L 247.268954 117.731732 
L 247.268954 135.151351 
L 248.879343 135.151351 
L 248.879343 135.485329 
L 250.489733 135.485329 
L 250.489733 132.620145 
L 252.100123 132.620145 
L 252.100123 135.450173 
L 253.710512 135.450173 
L 253.710512 123.409368 
L 255.320902 123.409368 
L 255.320902 145.06524 
L 256.931291 145.06524 
L 256.931291 135.889619 
L 258.541681 135.889619 
L 258.541681 143.659015 
L 260.152071 143.659015 
L 260.152071 142.252789 
L 261.76246 142.252789 
L 261.76246 142.0067 
L 263.37285 142.0067 
L 263.37285 144.942195 
L 264.983239 144.942195 
L 264.983239 150.918654 
L 266.593629 150.918654 
L 266.593629 148.176514 
L 268.204019 148.176514 
L 268.204019 142.709813 
L 269.814408 142.709813 
L 269.814408 158.020092 
L 271.424798 158.020092 
L 271.424798 155.910754 
L 273.035187 155.910754 
L 273.035187 157.018157 
L 276.255967 157.035735 
L 276.255967 155.418575 
L 277.866356 155.418575 
L 277.866356 155.94591 
L 279.476746 155.94591 
L 279.476746 168.953495 
L 281.087136 168.953495 
L 281.087136 164.277796 
L 282.697525 164.277796 
L 282.697525 154.768196 
L 284.307915 154.768196 
L 284.307915 171.590168 
L 285.918304 171.590168 
L 285.918304 160.814966 
L 287.528694 160.814966 
L 287.528694 172.469059 
L 289.139084 172.469059 
L 289.139084 166.98478 
L 290.749473 166.98478 
L 290.749473 169.182007 
L 292.359863 169.182007 
L 292.359863 175.070576 
L 293.970252 175.070576 
L 293.970252 173.084283 
L 295.580642 173.084283 
L 295.580642 173.453417 
L 297.191032 173.453417 
L 297.191032 172.22297 
L 298.801421 172.22297 
L 298.801421 173.383106 
L 300.411811 173.383106 
L 300.411811 180.554856 
L 302.0222 180.554856 
L 302.0222 180.6779 
L 303.63259 180.6779 
L 303.63259 183.367307 
L 305.24298 183.367307 
L 305.24298 182.875128 
L 306.853369 182.875128 
L 306.853369 185.91609 
L 308.463759 185.91609 
L 308.463759 183.42004 
L 310.074149 183.42004 
L 310.074149 188.535185 
L 311.684538 188.535185 
L 311.684538 190.556634 
L 313.294928 190.556634 
L 313.294928 193.175729 
L 314.905317 193.175729 
L 314.905317 195.003822 
L 316.515707 195.003822 
L 316.515707 192.824173 
L 318.126097 192.824173 
L 318.126097 194.212821 
L 319.736486 194.212821 
L 319.736486 196.410048 
L 321.346876 196.410048 
L 321.346876 196.199114 
L 322.957265 196.199114 
L 322.957265 201.859172 
L 324.567655 201.859172 
L 324.567655 202.913841 
L 326.178045 202.913841 
L 326.178045 198.923676 
L 327.788434 198.923676 
L 327.788434 202.544707 
L 329.398824 202.544707 
L 329.398824 201.454882 
L 331.009213 201.454882 
L 331.009213 207.607118 
L 332.619603 207.607118 
L 332.619603 205.198957 
L 334.229993 205.198957 
L 334.229993 208.995766 
L 335.840382 208.995766 
L 335.840382 207.466496 
L 337.450772 207.466496 
L 337.450772 207.624696 
L 339.061161 207.624696 
L 339.061161 209.241855 
L 340.671551 209.241855 
L 340.671551 211.737906 
L 342.281941 211.737906 
L 342.281941 210.401991 
L 343.89233 210.401991 
L 343.89233 211.685172 
L 345.50272 211.685172 
L 345.50272 212.933197 
L 347.11311 212.933197 
L 347.11311 213.829666 
L 348.723499 213.829666 
L 348.723499 213.23202 
L 350.333889 213.23202 
L 350.333889 215.446825 
L 351.944278 215.446825 
L 351.944278 215.183158 
L 353.554668 215.183158 
L 353.554668 217.028829 
L 355.165058 217.028829 
L 355.165058 215.81596 
L 356.775447 215.81596 
L 356.775447 216.466339 
L 358.385837 216.466339 
L 358.385837 217.380385 
L 359.996226 217.380385 
L 359.996226 217.784675 
L 361.606616 217.784675 
L 361.606616 219.296368 
L 364.827395 219.27879 
L 364.827395 219.472146 
L 366.437785 219.472146 
L 366.437785 220.122525 
L 368.048174 220.122525 
L 368.048174 220.579548 
L 371.268954 220.667437 
L 371.268954 221.142039 
L 372.879343 221.142039 
L 372.879343 221.476017 
L 374.489733 221.476017 
L 374.489733 221.669373 
L 377.710512 221.757262 
L 377.710512 221.897885 
L 379.320902 221.897885 
L 379.320902 221.897885 
" clip-path="url(#pea3a79bb7e)" style="fill: none; stroke: #1f77b4; stroke-width: 1.5; stroke-linecap: square"/>
   </g>
   <g id="line2d_15">
    <path d="M 81.398824 221.915463 
L 87.840382 221.880307 
L 87.840382 221.77484 
L 91.061161 221.827573 
L 91.061161 221.93304 
L 92.671551 221.93304 
L 92.671551 221.511173 
L 97.50272 221.458439 
L 97.50272 221.37055 
L 99.11311 221.37055 
L 99.11311 221.159616 
L 100.723499 221.159616 
L 100.723499 220.685015 
L 102.333889 220.685015 
L 102.333889 220.860793 
L 105.554668 220.790482 
L 105.554668 220.368615 
L 108.775447 220.368615 
L 108.775447 219.753391 
L 110.385837 219.753391 
L 110.385837 219.331523 
L 111.996226 219.331523 
L 111.996226 219.138167 
L 113.606616 219.138167 
L 113.606616 218.892078 
L 115.217006 218.892078 
L 115.217006 217.767097 
L 116.827395 217.767097 
L 116.827395 216.501494 
L 118.437785 216.501494 
L 118.437785 215.024958 
L 120.048174 215.024958 
L 120.048174 213.935133 
L 121.658564 213.935133 
L 121.658564 212.845308 
L 123.268954 212.845308 
L 123.268954 211.29846 
L 124.879343 211.29846 
L 124.879343 207.958675 
L 126.489733 207.958675 
L 126.489733 205.234113 
L 128.100123 205.234113 
L 128.100123 201.156059 
L 129.710512 201.156059 
L 129.710512 196.902227 
L 131.320902 196.902227 
L 131.320902 193.913998 
L 132.931291 193.913998 
L 132.931291 185.810623 
L 134.541681 185.810623 
L 134.541681 179.588076 
L 136.152071 179.588076 
L 136.152071 176.230712 
L 137.76246 176.230712 
L 137.76246 166.703535 
L 139.37285 166.703535 
L 139.37285 161.922368 
L 140.983239 161.922368 
L 140.983239 155.400997 
L 142.593629 155.400997 
L 142.593629 149.160872 
L 144.204019 149.160872 
L 144.204019 142.868013 
L 145.814408 142.868013 
L 145.814408 133.516613 
L 147.424798 133.516613 
L 147.424798 118.645779 
L 149.035187 118.645779 
L 149.035187 115.270838 
L 150.645577 115.270838 
L 150.645577 107.343242 
L 152.255967 107.343242 
L 152.255967 103.6519 
L 153.866356 103.6519 
L 153.866356 92.665763 
L 155.476746 92.665763 
L 155.476746 85.265502 
L 157.087136 85.265502 
L 157.087136 73.488363 
L 158.697525 73.488363 
L 158.697525 63.539318 
L 160.307915 63.539318 
L 160.307915 58.986663 
L 161.918304 58.986663 
L 161.918304 50.39111 
L 163.528694 50.39111 
L 163.528694 57.211304 
L 165.139084 57.211304 
L 165.139084 43.535761 
L 166.749473 43.535761 
L 166.749473 43.887317 
L 168.359863 43.887317 
L 168.359863 38.684283 
L 169.970252 38.684283 
L 169.970252 39.018261 
L 171.580642 39.018261 
L 171.580642 27.065345 
L 173.191032 27.065345 
L 173.191032 40.863932 
L 174.801421 40.863932 
L 174.801421 40.565109 
L 176.411811 40.565109 
L 176.411811 35.48512 
L 178.0222 35.48512 
L 178.0222 32.778136 
L 179.63259 32.778136 
L 179.63259 36.100344 
L 181.24298 36.100344 
L 181.24298 20.33304 
L 182.853369 20.33304 
L 182.853369 31.407066 
L 184.463759 31.407066 
L 184.463759 40.740888 
L 186.074149 40.740888 
L 186.074149 24.639606 
L 187.684538 24.639606 
L 187.684538 39.35224 
L 189.294928 39.35224 
L 189.294928 33.657027 
L 190.905317 33.657027 
L 190.905317 28.014547 
L 192.515707 28.014547 
L 192.515707 32.496891 
L 194.126097 32.496891 
L 194.126097 41.145177 
L 197.346876 41.1276 
L 197.346876 34.992941 
L 198.957265 34.992941 
L 198.957265 49.107929 
L 200.567655 49.107929 
L 200.567655 42.199847 
L 202.178045 42.199847 
L 202.178045 35.291764 
L 203.788434 35.291764 
L 203.788434 50.830555 
L 205.398824 50.830555 
L 205.398824 51.410623 
L 207.009213 51.410623 
L 207.009213 60.480778 
L 208.619603 60.480778 
L 208.619603 64.646721 
L 210.229993 64.646721 
L 210.229993 58.863618 
L 211.840382 58.863618 
L 211.840382 66.070524 
L 213.450772 66.070524 
L 213.450772 71.50207 
L 215.061161 71.50207 
L 215.061161 71.09778 
L 216.671551 71.09778 
L 216.671551 83.26163 
L 218.281941 83.26163 
L 218.281941 80.677691 
L 219.89233 80.677691 
L 219.89233 88.534976 
L 221.50272 88.534976 
L 221.50272 90.83767 
L 223.11311 90.83767 
L 223.11311 85.722525 
L 224.723499 85.722525 
L 224.723499 94.722368 
L 226.333889 94.722368 
L 226.333889 88.587709 
L 227.944278 88.587709 
L 227.944278 98.026998 
L 229.554668 98.026998 
L 229.554668 109.593203 
L 231.165058 109.593203 
L 231.165058 104.530791 
L 232.775447 104.530791 
L 232.775447 103.282766 
L 234.385837 103.282766 
L 234.385837 102.667542 
L 235.996226 102.667542 
L 235.996226 118.821557 
L 237.606616 118.821557 
L 237.606616 111.509185 
L 239.217006 111.509185 
L 239.217006 117.819622 
L 240.827395 117.819622 
L 240.827395 122.899611 
L 242.437785 122.899611 
L 242.437785 122.284387 
L 244.048174 122.284387 
L 244.048174 118.470001 
L 245.658564 118.470001 
L 245.658564 128.014756 
L 247.268954 128.014756 
L 247.268954 129.508871 
L 248.879343 129.508871 
L 248.879343 132.09281 
L 250.489733 132.09281 
L 250.489733 134.83495 
L 252.100123 134.83495 
L 252.100123 130.932674 
L 253.710512 130.932674 
L 253.710512 135.731419 
L 256.931291 135.625952 
L 256.931291 139.879784 
L 258.541681 139.879784 
L 258.541681 133.217791 
L 260.152071 133.217791 
L 260.152071 152.623702 
L 261.76246 152.623702 
L 261.76246 144.608217 
L 263.37285 144.608217 
L 263.37285 143.430503 
L 264.983239 143.430503 
L 264.983239 142.094589 
L 266.593629 142.094589 
L 266.593629 150.30343 
L 268.204019 150.30343 
L 268.204019 147.772224 
L 269.814408 147.772224 
L 269.814408 154.697885 
L 271.424798 154.697885 
L 271.424798 156.174421 
L 273.035187 156.174421 
L 273.035187 157.106046 
L 276.255967 157.053312 
L 276.255967 151.445988 
L 277.866356 151.445988 
L 277.866356 168.637095 
L 279.476746 168.637095 
L 279.476746 159.338429 
L 281.087136 159.338429 
L 281.087136 162.660636 
L 284.307915 162.748526 
L 284.307915 165.965266 
L 285.918304 165.965266 
L 285.918304 162.449703 
L 287.528694 162.449703 
L 287.528694 166.721113 
L 289.139084 166.721113 
L 289.139084 171.625324 
L 290.749473 171.625324 
L 290.749473 171.449546 
L 293.970252 171.379234 
L 293.970252 171.765946 
L 295.580642 171.765946 
L 295.580642 172.205392 
L 297.191032 172.205392 
L 297.191032 171.519857 
L 298.801421 171.519857 
L 298.801421 177.21507 
L 300.411811 177.21507 
L 300.411811 182.013815 
L 302.0222 182.013815 
L 302.0222 182.312638 
L 303.63259 182.312638 
L 303.63259 179.254097 
L 305.24298 179.254097 
L 305.24298 182.066548 
L 306.853369 182.066548 
L 306.853369 186.72467 
L 308.463759 186.72467 
L 308.463759 188.341829 
L 310.074149 188.341829 
L 310.074149 181.838036 
L 311.684538 181.838036 
L 311.684538 193.73822 
L 314.905317 193.790953 
L 314.905317 192.068327 
L 316.515707 192.068327 
L 316.515707 192.912062 
L 318.126097 192.912062 
L 318.126097 194.001887 
L 319.736486 194.001887 
L 319.736486 196.867071 
L 321.346876 196.867071 
L 321.346876 200.048656 
L 322.957265 200.048656 
L 322.957265 200.189279 
L 324.567655 200.189279 
L 324.567655 200.031079 
L 326.178045 200.031079 
L 326.178045 201.982216 
L 327.788434 201.982216 
L 327.788434 199.029143 
L 329.398824 199.029143 
L 329.398824 205.726292 
L 331.009213 205.726292 
L 331.009213 204.214599 
L 332.619603 204.214599 
L 332.619603 205.515358 
L 334.229993 205.515358 
L 334.229993 209.347322 
L 335.840382 209.347322 
L 335.840382 206.640338 
L 337.450772 206.640338 
L 337.450772 207.83563 
L 339.061161 207.83563 
L 339.061161 209.540678 
L 340.671551 209.540678 
L 340.671551 210.753548 
L 342.281941 210.753548 
L 342.281941 211.069949 
L 343.89233 211.069949 
L 343.89233 212.159773 
L 345.50272 212.159773 
L 345.50272 212.739841 
L 347.11311 212.739841 
L 347.11311 213.161709 
L 348.723499 213.161709 
L 348.723499 213.530843 
L 350.333889 213.530843 
L 350.333889 215.16558 
L 351.944278 215.16558 
L 351.944278 215.833537 
L 353.554668 215.833537 
L 353.554668 216.272983 
L 355.165058 216.272983 
L 355.165058 215.903849 
L 356.775447 215.903849 
L 356.775447 216.483917 
L 358.385837 216.483917 
L 358.385837 217.679208 
L 361.606616 217.626475 
L 361.606616 219.401834 
L 363.217006 219.401834 
L 363.217006 219.27879 
L 364.827395 219.27879 
L 364.827395 219.419412 
L 366.437785 219.419412 
L 366.437785 220.069792 
L 368.048174 220.069792 
L 368.048174 220.614704 
L 371.268954 220.561971 
L 371.268954 221.124461 
L 372.879343 221.124461 
L 372.879343 221.528751 
L 376.100123 221.599062 
L 376.100123 221.880307 
L 379.320902 221.915463 
L 379.320902 221.915463 
" clip-path="url(#pea3a79bb7e)" style="fill: none; stroke: #ff7f0e; stroke-width: 1.5; stroke-linecap: square"/>
   </g>
   <g id="line2d_16">
    <path d="M 74.908807 221.880307 
L 87.791924 221.792418 
L 87.791924 221.651795 
L 95.843872 221.563906 
L 95.843872 221.423284 
L 99.064651 221.335395 
L 99.064651 221.265083 
L 100.675041 221.265083 
L 100.675041 220.825638 
L 102.28543 220.825638 
L 102.28543 220.685015 
L 103.89582 220.685015 
L 103.89582 220.878371 
L 105.506209 220.878371 
L 105.506209 220.456504 
L 107.116599 220.456504 
L 107.116599 220.210414 
L 108.726989 220.210414 
L 108.726989 219.700657 
L 110.337378 219.700657 
L 110.337378 219.560035 
L 111.947768 219.560035 
L 111.947768 219.015122 
L 113.558157 219.015122 
L 113.558157 218.593255 
L 115.168547 218.593255 
L 115.168547 217.591319 
L 116.778937 217.591319 
L 116.778937 216.835473 
L 118.389326 216.835473 
L 118.389326 215.464403 
L 119.999716 215.464403 
L 119.999716 213.601154 
L 121.610106 213.601154 
L 121.610106 212.933197 
L 123.220495 212.933197 
L 123.220495 211.157838 
L 124.830885 211.157838 
L 124.830885 208.415698 
L 126.441274 208.415698 
L 126.441274 205.058335 
L 128.051664 205.058335 
L 128.051664 201.366993 
L 129.662054 201.366993 
L 129.662054 198.027207 
L 131.272443 198.027207 
L 131.272443 192.77144 
L 132.882833 192.77144 
L 132.882833 185.652423 
L 134.493222 185.652423 
L 134.493222 179.922054 
L 136.103612 179.922054 
L 136.103612 175.439711 
L 137.714002 175.439711 
L 137.714002 167.95156 
L 139.324391 167.95156 
L 139.324391 160.21732 
L 140.934781 160.21732 
L 140.934781 157.63338 
L 142.54517 157.63338 
L 142.54517 148.141358 
L 144.15556 148.141358 
L 144.15556 141.690299 
L 145.76595 141.690299 
L 145.76595 132.725612 
L 147.376339 132.725612 
L 147.376339 123.426946 
L 148.986729 123.426946 
L 148.986729 114.884126 
L 150.597119 114.884126 
L 150.597119 106.30615 
L 152.207508 106.30615 
L 152.207508 102.913632 
L 153.817898 102.913632 
L 153.817898 94.001678 
L 155.428287 94.001678 
L 155.428287 83.015541 
L 157.038677 83.015541 
L 157.038677 72.046982 
L 158.649067 72.046982 
L 158.649067 63.293229 
L 160.259456 63.293229 
L 160.259456 60.252266 
L 161.869846 60.252266 
L 161.869846 52.500448 
L 165.090625 52.48287 
L 165.090625 48.86184 
L 166.701015 48.86184 
L 166.701015 43.887317 
L 168.311404 43.887317 
L 168.311404 40.88151 
L 169.921794 40.88151 
L 169.921794 35.379653 
L 171.532183 35.379653 
L 171.532183 36.662834 
L 173.142573 36.662834 
L 173.142573 33.70976 
L 174.752963 33.70976 
L 174.752963 38.438193 
L 176.363352 38.438193 
L 176.363352 35.028097 
L 177.973742 35.028097 
L 177.973742 34.51834 
L 179.584131 34.51834 
L 179.584131 31.21371 
L 181.194521 31.21371 
L 181.194521 31.547689 
L 182.804911 31.547689 
L 182.804911 30.774265 
L 184.4153 30.774265 
L 184.4153 31.916823 
L 186.02569 31.916823 
L 186.02569 31.248866 
L 187.63608 31.248866 
L 187.63608 34.184361 
L 189.246469 34.184361 
L 189.246469 29.297728 
L 190.856859 29.297728 
L 190.856859 33.006647 
L 192.467248 33.006647 
L 192.467248 33.235159 
L 194.077638 33.235159 
L 194.077638 41.531889 
L 195.688028 41.531889 
L 195.688028 38.069059 
L 197.298417 38.069059 
L 197.298417 42.481092 
L 198.908807 42.481092 
L 198.908807 42.164691 
L 200.519196 42.164691 
L 200.519196 43.711539 
L 202.129586 43.711539 
L 202.129586 42.041646 
L 203.739976 42.041646 
L 203.739976 49.389174 
L 205.350365 49.389174 
L 205.350365 53.69574 
L 206.960755 53.69574 
L 206.960755 58.318706 
L 208.571144 58.318706 
L 208.571144 62.326449 
L 210.181534 62.326449 
L 210.181534 63.082295 
L 211.791924 63.082295 
L 211.791924 68.496263 
L 213.402313 68.496263 
L 213.402313 70.166156 
L 215.012703 70.166156 
L 215.012703 72.170027 
L 216.623093 72.170027 
L 216.623093 79.746067 
L 218.233482 79.746067 
L 218.233482 81.240181 
L 219.843872 81.240181 
L 219.843872 85.300657 
L 221.454261 85.300657 
L 221.454261 87.445151 
L 223.064651 87.445151 
L 223.064651 89.132622 
L 224.675041 89.132622 
L 224.675041 89.449023 
L 226.28543 89.449023 
L 226.28543 98.800422 
L 229.506209 98.800422 
L 229.506209 105.058125 
L 231.116599 105.058125 
L 231.116599 102.228097 
L 232.726989 102.228097 
L 232.726989 101.278894 
L 234.337378 101.278894 
L 234.337378 108.925245 
L 235.947768 108.925245 
L 235.947768 112.528698 
L 237.558157 112.528698 
L 237.558157 115.288416 
L 239.168547 115.288416 
L 239.168547 117.292287 
L 240.778937 117.292287 
L 240.778937 121.528541 
L 242.389326 121.528541 
L 242.389326 122.073454 
L 243.999716 122.073454 
L 243.999716 124.850749 
L 245.610106 124.850749 
L 245.610106 125.149572 
L 247.220495 125.149572 
L 247.220495 127.856556 
L 248.830885 127.856556 
L 248.830885 129.087003 
L 250.441274 129.087003 
L 250.441274 131.477587 
L 252.051664 131.477587 
L 252.051664 135.186506 
L 253.662054 135.186506 
L 253.662054 136.504843 
L 255.272443 136.504843 
L 255.272443 134.58886 
L 256.882833 134.58886 
L 256.882833 139.370027 
L 258.493222 139.370027 
L 258.493222 138.895426 
L 260.103612 138.895426 
L 260.103612 144.274238 
L 263.324391 144.221505 
L 263.324391 145.170707 
L 264.934781 145.170707 
L 264.934781 147.209734 
L 266.54517 147.209734 
L 266.54517 147.40309 
L 268.15556 147.40309 
L 268.15556 151.744811 
L 269.76595 151.744811 
L 269.76595 153.326815 
L 271.376339 153.326815 
L 271.376339 154.469373 
L 272.986729 154.469373 
L 272.986729 155.38342 
L 274.597119 155.38342 
L 274.597119 155.559198 
L 276.207508 155.559198 
L 276.207508 158.213448 
L 277.817898 158.213448 
L 277.817898 158.793516 
L 279.428287 158.793516 
L 279.428287 160.041542 
L 281.038677 160.041542 
L 281.038677 165.473087 
L 282.649067 165.473087 
L 282.649067 162.977037 
L 284.259456 162.977037 
L 284.259456 164.857864 
L 285.869846 164.857864 
L 285.869846 166.193778 
L 287.480235 166.193778 
L 287.480235 167.564848 
L 289.090625 167.564848 
L 289.090625 168.127338 
L 290.701015 168.127338 
L 290.701015 169.762075 
L 292.311404 169.762075 
L 292.311404 171.431968 
L 293.921794 171.431968 
L 293.921794 174.701442 
L 295.532183 174.701442 
L 295.532183 173.629195 
L 297.142573 173.629195 
L 297.142573 173.91044 
L 298.752963 173.91044 
L 298.752963 175.404555 
L 300.363352 175.404555 
L 300.363352 180.132988 
L 301.973742 180.132988 
L 301.973742 180.572434 
L 303.584131 180.572434 
L 303.584131 181.574369 
L 305.194521 181.574369 
L 305.194521 183.455196 
L 306.804911 183.455196 
L 306.804911 184.158308 
L 308.4153 184.158308 
L 308.4153 185.441489 
L 310.02569 185.441489 
L 310.02569 188.113318 
L 311.63608 188.113318 
L 311.63608 189.853522 
L 313.246469 189.853522 
L 313.246469 192.191372 
L 314.856859 192.191372 
L 314.856859 193.052685 
L 316.467248 193.052685 
L 316.467248 193.281196 
L 318.077638 193.281196 
L 318.077638 195.847558 
L 319.688028 195.847558 
L 319.688028 195.724513 
L 321.298417 195.724513 
L 321.298417 198.273297 
L 322.908807 198.273297 
L 322.908807 199.872878 
L 324.519196 199.872878 
L 324.519196 200.839658 
L 326.129586 200.839658 
L 326.129586 200.224435 
L 327.739976 200.224435 
L 327.739976 201.560349 
L 329.350365 201.560349 
L 329.350365 204.073977 
L 330.960755 204.073977 
L 330.960755 204.636467 
L 332.571144 204.636467 
L 332.571144 206.394249 
L 334.181534 206.394249 
L 334.181534 207.607118 
L 335.791924 207.607118 
L 335.791924 206.956739 
L 337.402313 206.956739 
L 337.402313 208.64421 
L 339.012703 208.64421 
L 339.012703 209.259433 
L 340.623093 209.259433 
L 340.623093 210.155902 
L 342.233482 210.155902 
L 342.233482 211.386349 
L 343.843872 211.386349 
L 343.843872 212.089462 
L 345.454261 212.089462 
L 345.454261 212.458596 
L 347.064651 212.458596 
L 347.064651 213.144131 
L 348.675041 213.144131 
L 348.675041 213.618732 
L 350.28543 213.618732 
L 350.28543 215.077691 
L 351.89582 215.077691 
L 351.89582 215.81596 
L 353.506209 215.81596 
L 353.506209 216.185094 
L 356.726989 216.220249 
L 356.726989 216.606961 
L 358.337378 216.606961 
L 358.337378 217.362808 
L 359.947768 217.362808 
L 359.947768 217.591319 
L 361.558157 217.591319 
L 361.558157 219.296368 
L 363.168547 219.296368 
L 363.168547 219.103012 
L 364.778937 219.103012 
L 364.778937 219.806124 
L 367.999716 219.700657 
L 367.999716 220.720171 
L 369.610106 220.720171 
L 369.610106 220.561971 
L 371.220495 220.561971 
L 371.220495 221.124461 
L 372.830885 221.124461 
L 372.830885 221.476017 
L 374.441274 221.476017 
L 374.441274 221.61664 
L 376.051664 221.61664 
L 376.051664 221.792418 
L 379.272443 221.862729 
L 379.272443 221.862729 
" clip-path="url(#pea3a79bb7e)" style="fill: none; stroke: #2ca02c; stroke-width: 1.5; stroke-linecap: square"/>
   </g>
   <g id="patch_3">
    <path d="M 59.690625 232.01304 
L 59.690625 10.25304 
" style="fill: none; stroke: #000000; stroke-width: 0.8; stroke-linejoin: miter; stroke-linecap: square"/>
   </g>
   <g id="patch_4">
    <path d="M 394.490625 232.01304 
L 394.490625 10.25304 
" style="fill: none; stroke: #000000; stroke-width: 0.8; stroke-linejoin: miter; stroke-linecap: square"/>
   </g>
   <g id="patch_5">
    <path d="M 59.690625 232.01304 
L 394.490625 232.01304 
" style="fill: none; stroke: #000000; stroke-width: 0.8; stroke-linejoin: miter; stroke-linecap: square"/>
   </g>
   <g id="patch_6">
    <path d="M 59.690625 10.25304 
L 394.490625 10.25304 
" style="fill: none; stroke: #000000; stroke-width: 0.8; stroke-linejoin: miter; stroke-linecap: square"/>
   </g>
   <g id="legend_1">
    <g id="patch_7">
     <path d="M 313.267188 62.287415 
L 387.490625 62.287415 
Q 389.490625 62.287415 389.490625 60.287415 
L 389.490625 17.25304 
Q 389.490625 15.25304 387.490625 15.25304 
L 313.267188 15.25304 
Q 311.267188 15.25304 311.267188 17.25304 
L 311.267188 60.287415 
Q 311.267188 62.287415 313.267188 62.287415 
z
" style="fill: #ffffff; opacity: 0.8; stroke: #cccccc; stroke-linejoin: miter"/>
    </g>
    <g id="line2d_17">
     <path d="M 315.267188 23.351478 
L 315.267188 23.351478 
L 325.267188 23.351478 
L 325.267188 23.351478 
L 335.267188 23.351478 
" style="fill: none; stroke: #1f77b4; stroke-width: 1.5; stroke-linecap: square"/>
    </g>
    <g id="text_16">
     <!-- monitor -->
     <g transform="translate(343.267188 26.851478) scale(0.1 -0.1)">
      <defs>
       <path id="DejaVuSans-6d" d="M 3328 2828 
Q 3544 3216 3844 3400 
Q 4144 3584 4550 3584 
Q 5097 3584 5394 3201 
Q 5691 2819 5691 2113 
L 5691 0 
L 5113 0 
L 5113 2094 
Q 5113 2597 4934 2840 
Q 4756 3084 4391 3084 
Q 3944 3084 3684 2787 
Q 3425 2491 3425 1978 
L 3425 0 
L 2847 0 
L 2847 2094 
Q 2847 2600 2669 2842 
Q 2491 3084 2119 3084 
Q 1678 3084 1418 2786 
Q 1159 2488 1159 1978 
L 1159 0 
L 581 0 
L 581 3500 
L 1159 3500 
L 1159 2956 
Q 1356 3278 1631 3431 
Q 1906 3584 2284 3584 
Q 2666 3584 2933 3390 
Q 3200 3197 3328 2828 
z
" transform="scale(0.015625)"/>
       <path id="DejaVuSans-69" d="M 603 3500 
L 1178 3500 
L 1178 0 
L 603 0 
L 603 3500 
z
M 603 4863 
L 1178 4863 
L 1178 4134 
L 603 4134 
L 603 4863 
z
" transform="scale(0.015625)"/>
       <path id="DejaVuSans-72" d="M 2631 2963 
Q 2534 3019 2420 3045 
Q 2306 3072 2169 3072 
Q 1681 3072 1420 2755 
Q 1159 2438 1159 1844 
L 1159 0 
L 581 0 
L 581 3500 
L 1159 3500 
L 1159 2956 
Q 1341 3275 1631 3429 
Q 1922 3584 2338 3584 
Q 2397 3584 2469 3576 
Q 2541 3569 2628 3553 
L 2631 2963 
z
" transform="scale(0.015625)"/>
      </defs>
      <use xlink:href="#DejaVuSans-6d"/>
      <use xlink:href="#DejaVuSans-6f" transform="translate(97.412109 0)"/>
      <use xlink:href="#DejaVuSans-6e" transform="translate(158.59375 0)"/>
      <use xlink:href="#DejaVuSans-69" transform="translate(221.972656 0)"/>
      <use xlink:href="#DejaVuSans-74" transform="translate(249.755859 0)"/>
      <use xlink:href="#DejaVuSans-6f" transform="translate(288.964844 0)"/>
      <use xlink:href="#DejaVuSans-72" transform="translate(350.146484 0)"/>
     </g>
    </g>
    <g id="line2d_18">
     <path d="M 315.267188 38.029603 
L 315.267188 38.029603 
L 325.267188 38.029603 
L 325.267188 38.029603 
L 335.267188 38.029603 
" style="fill: none; stroke: #ff7f0e; stroke-width: 1.5; stroke-linecap: square"/>
    </g>
    <g id="text_17">
     <!-- detector -->
     <g transform="translate(343.267188 41.529603) scale(0.1 -0.1)">
      <defs>
       <path id="DejaVuSans-64" d="M 2906 2969 
L 2906 4863 
L 3481 4863 
L 3481 0 
L 2906 0 
L 2906 525 
Q 2725 213 2448 61 
Q 2172 -91 1784 -91 
Q 1150 -91 751 415 
Q 353 922 353 1747 
Q 353 2572 751 3078 
Q 1150 3584 1784 3584 
Q 2172 3584 2448 3432 
Q 2725 3281 2906 2969 
z
M 947 1747 
Q 947 1113 1208 752 
Q 1469 391 1925 391 
Q 2381 391 2643 752 
Q 2906 1113 2906 1747 
Q 2906 2381 2643 2742 
Q 2381 3103 1925 3103 
Q 1469 3103 1208 2742 
Q 947 2381 947 1747 
z
" transform="scale(0.015625)"/>
      </defs>
      <use xlink:href="#DejaVuSans-64"/>
      <use xlink:href="#DejaVuSans-65" transform="translate(63.476562 0)"/>
      <use xlink:href="#DejaVuSans-74" transform="translate(125 0)"/>
      <use xlink:href="#DejaVuSans-65" transform="translate(164.208984 0)"/>
      <use xlink:href="#DejaVuSans-63" transform="translate(225.732422 0)"/>
      <use xlink:href="#DejaVuSans-74" transform="translate(280.712891 0)"/>
      <use xlink:href="#DejaVuSans-6f" transform="translate(319.921875 0)"/>
      <use xlink:href="#DejaVuSans-72" transform="translate(381.103516 0)"/>
     </g>
    </g>
    <g id="line2d_19">
     <path d="M 315.267188 52.707728 
L 315.267188 52.707728 
L 325.267188 52.707728 
L 325.267188 52.707728 
L 335.267188 52.707728 
" style="fill: none; stroke: #2ca02c; stroke-width: 1.5; stroke-linecap: square"/>
    </g>
    <g id="text_18">
     <!-- true -->
     <g transform="translate(343.267188 56.207728) scale(0.1 -0.1)">
      <use xlink:href="#DejaVuSans-74"/>
      <use xlink:href="#DejaVuSans-72" transform="translate(39.208984 0)"/>
      <use xlink:href="#DejaVuSans-75" transform="translate(80.322266 0)"/>
      <use xlink:href="#DejaVuSans-65" transform="translate(143.701172 0)"/>
     </g>
    </g>
   </g>
  </g>
 </g>
 <defs>
  <clipPath id="pea3a79bb7e">
   <rect x="59.690625" y="10.25304" width="334.8" height="221.76"/>
  </clipPath>
 </defs>
</svg>
