<?xml version="1.0" encoding="utf-8" standalone="no"?>
<!DOCTYPE svg PUBLIC "-//W3C//DTD SVG 1.1//EN"
  "http://www.w3.org/Graphics/SVG/1.1/DTD/svg11.dtd">
<svg xmlns:xlink="http://www.w3.org/1999/xlink" width="389.288281pt" height="267.160781pt" viewBox="0 0 389.288281 267.160781" xmlns="http://www.w3.org/2000/svg" version="1.1">
 <metadata>
  <rdf:RDF xmlns:dc="http://purl.org/dc/elements/1.1/" xmlns:cc="http://creativecommons.org/ns#" xmlns:rdf="http://www.w3.org/1999/02/22-rdf-syntax-ns#">
   <cc:Work>
    <dc:type rdf:resource="http://purl.org/dc/dcmitype/StillImage"/>
    <dc:date>2026-09-10T05:57:50.467452</dc:date>
    <dc:format>image/svg+xml</dc:format>
    <dc:creator>
     <cc:Agent>
      <dc:title>Matplotlib v3.11.0, https://matplotlib.org/</dc:title>
     </cc:Agent>
    </dc:creator>
   </cc:Work>
  </rdf:RDF>
 </metadata>
 <defs>
  <style type="text/css">*{stroke-linejoin: round; stroke-linecap: butt}</style>
 </defs>
 <g id="figure_1">
  <g id="patch_1">
   <path d="M 0 267.160781 
L 389.288281 267.160781 
L 389.288281 0 
L 0 0 
z
" style="fill: #ffffff"/>
  </g>
  <g id="axes_1">
   <g id="patch_2">
    <path d="M 47.288281 228.96 
L 382.088281 228.96 
L 382.088281 7.2 
L 47.288281 7.2 
z
" style="fill: #ffffff"/>
   </g>
   <g id="matplotlib.axis_1">
    <g id="xtick_1">
     <g id="line2d_1">
      <defs>
       <path id="m74d9a8e99a" d="M 0 0 
L 0 3.5 
" style="stroke: #000000; stroke-width: 0.8"/>
      </defs>
      <g>
       <use xlink:href="#m74d9a8e99a" x="62.489679" y="228.96" style="stroke: #000000; stroke-width: 0.8"/>
      </g>
     </g>
     <g id="text_1">
      <!-- 0 -->
      <g transform="translate(59.308429 243.557656) scale(0.1 -0.1)">
       <defs>
        <path id="DejaVuSans-13" d="M 2034 4250 
Q 1547 4250 1301 3770 
Q 1056 3291 1056 2328 
Q 1056 1369 1301 889 
Q 1547 409 2034 409 
Q 2525 409 2770 889 
Q 3016 1369 3016 2328 
Q 3016 3291 2770 3770 
Q 2525 4250 2034 4250 
z
M 2034 4750 
Q 2819 4750 3233 4129 
Q 3647 3509 3647 2328 
Q 3647 1150 3233 529 
Q 2819 -91 2034 -91 
Q 1250 -91 836 529 
Q 422 1150 422 2328 
Q 422 3509 836 4129 
Q 1250 4750 2034 4750 
z
" transform="scale(0.015625)"/>
       </defs>
       <use xlink:href="#DejaVuSans-13"/>
      </g>
     </g>
    </g>
    <g id="xtick_2">
     <g id="line2d_2">
      <g>
       <use xlink:href="#m74d9a8e99a" x="105.105985" y="228.96" style="stroke: #000000; stroke-width: 0.8"/>
      </g>
     </g>
     <g id="text_2">
      <!-- 10000 -->
      <g transform="translate(89.199735 243.557656) scale(0.1 -0.1)">
       <defs>
        <path id="DejaVuSans-14" d="M 794 531 
L 1825 531 
L 1825 4091 
L 703 3866 
L 703 4441 
L 1819 4666 
L 2450 4666 
L 2450 531 
L 3481 531 
L 3481 0 
L 794 0 
L 794 531 
z
" transform="scale(0.015625)"/>
       </defs>
       <use xlink:href="#DejaVuSans-14"/>
       <use xlink:href="#DejaVuSans-13" transform="translate(63.625 0)"/>
       <use xlink:href="#DejaVuSans-13" transform="translate(127.25 0)"/>
       <use xlink:href="#DejaVuSans-13" transform="translate(190.875 0)"/>
       <use xlink:href="#DejaVuSans-13" transform="translate(254.5 0)"/>
      </g>
     </g>
    </g>
    <g id="xtick_3">
     <g id="line2d_3">
      <g>
       <use xlink:href="#m74d9a8e99a" x="147.72229" y="228.96" style="stroke: #000000; stroke-width: 0.8"/>
      </g>
     </g>
     <g id="text_3">
      <!-- 20000 -->
      <g transform="translate(131.81604 243.557656) scale(0.1 -0.1)">
       <defs>
        <path id="DejaVuSans-15" d="M 1228 531 
L 3431 531 
L 3431 0 
L 469 0 
L 469 531 
Q 828 903 1448 1529 
Q 2069 2156 2228 2338 
Q 2531 2678 2651 2914 
Q 2772 3150 2772 3378 
Q 2772 3750 2511 3984 
Q 2250 4219 1831 4219 
Q 1534 4219 1204 4116 
Q 875 4013 500 3803 
L 500 4441 
Q 881 4594 1212 4672 
Q 1544 4750 1819 4750 
Q 2544 4750 2975 4387 
Q 3406 4025 3406 3419 
Q 3406 3131 3298 2873 
Q 3191 2616 2906 2266 
Q 2828 2175 2409 1742 
Q 1991 1309 1228 531 
z
" transform="scale(0.015625)"/>
       </defs>
       <use xlink:href="#DejaVuSans-15"/>
       <use xlink:href="#DejaVuSans-13" transform="translate(63.625 0)"/>
       <use xlink:href="#DejaVuSans-13" transform="translate(127.25 0)"/>
       <use xlink:href="#DejaVuSans-13" transform="translate(190.875 0)"/>
       <use xlink:href="#DejaVuSans-13" transform="translate(254.5 0)"/>
      </g>
     </g>
    </g>
    <g id="xtick_4">
     <g id="line2d_4">
      <g>
       <use xlink:href="#m74d9a8e99a" x="190.338595" y="228.96" style="stroke: #000000; stroke-width: 0.8"/>
      </g>
     </g>
     <g id="text_4">
      <!-- 30000 -->
      <g transform="translate(174.432345 243.557656) scale(0.1 -0.1)">
       <defs>
        <path id="DejaVuSans-16" d="M 2597 2516 
Q 3050 2419 3304 2112 
Q 3559 1806 3559 1356 
Q 3559 666 3084 287 
Q 2609 -91 1734 -91 
Q 1441 -91 1130 -33 
Q 819 25 488 141 
L 488 750 
Q 750 597 1062 519 
Q 1375 441 1716 441 
Q 2309 441 2620 675 
Q 2931 909 2931 1356 
Q 2931 1769 2642 2001 
Q 2353 2234 1838 2234 
L 1294 2234 
L 1294 2753 
L 1863 2753 
Q 2328 2753 2575 2939 
Q 2822 3125 2822 3475 
Q 2822 3834 2567 4026 
Q 2313 4219 1838 4219 
Q 1578 4219 1281 4162 
Q 984 4106 628 3988 
L 628 4550 
Q 988 4650 1302 4700 
Q 1616 4750 1894 4750 
Q 2613 4750 3031 4423 
Q 3450 4097 3450 3541 
Q 3450 3153 3228 2886 
Q 3006 2619 2597 2516 
z
" transform="scale(0.015625)"/>
       </defs>
       <use xlink:href="#DejaVuSans-16"/>
       <use xlink:href="#DejaVuSans-13" transform="translate(63.625 0)"/>
       <use xlink:href="#DejaVuSans-13" transform="translate(127.25 0)"/>
       <use xlink:href="#DejaVuSans-13" transform="translate(190.875 0)"/>
       <use xlink:href="#DejaVuSans-13" transform="translate(254.5 0)"/>
      </g>
     </g>
    </g>
    <g id="xtick_5">
     <g id="line2d_5">
      <g>
       <use xlink:href="#m74d9a8e99a" x="232.954901" y="228.96" style="stroke: #000000; stroke-width: 0.8"/>
      </g>
     </g>
     <g id="text_5">
      <!-- 40000 -->
      <g transform="translate(217.048651 243.557656) scale(0.1 -0.1)">
       <defs>
        <path id="DejaVuSans-17" d="M 2419 4116 
L 825 1625 
L 2419 1625 
L 2419 4116 
z
M 2253 4666 
L 3047 4666 
L 3047 1625 
L 3713 1625 
L 3713 1100 
L 3047 1100 
L 3047 0 
L 2419 0 
L 2419 1100 
L 313 1100 
L 313 1709 
L 2253 4666 
z
" transform="scale(0.015625)"/>
       </defs>
       <use xlink:href="#DejaVuSans-17"/>
       <use xlink:href="#DejaVuSans-13" transform="translate(63.625 0)"/>
       <use xlink:href="#DejaVuSans-13" transform="translate(127.25 0)"/>
       <use xlink:href="#DejaVuSans-13" transform="translate(190.875 0)"/>
       <use xlink:href="#DejaVuSans-13" transform="translate(254.5 0)"/>
      </g>
     </g>
    </g>
    <g id="xtick_6">
     <g id="line2d_6">
      <g>
       <use xlink:href="#m74d9a8e99a" x="275.571206" y="228.96" style="stroke: #000000; stroke-width: 0.8"/>
      </g>
     </g>
     <g id="text_6">
      <!-- 50000 -->
      <g transform="translate(259.664956 243.557656) scale(0.1 -0.1)">
       <defs>
        <path id="DejaVuSans-18" d="M 691 4666 
L 3169 4666 
L 3169 4134 
L 1269 4134 
L 1269 2991 
Q 1406 3038 1543 3061 
Q 1681 3084 1819 3084 
Q 2600 3084 3056 2656 
Q 3513 2228 3513 1497 
Q 3513 744 3044 326 
Q 2575 -91 1722 -91 
Q 1428 -91 1123 -41 
Q 819 9 494 109 
L 494 744 
Q 775 591 1075 516 
Q 1375 441 1709 441 
Q 2250 441 2565 725 
Q 2881 1009 2881 1497 
Q 2881 1984 2565 2268 
Q 2250 2553 1709 2553 
Q 1456 2553 1204 2497 
Q 953 2441 691 2322 
L 691 4666 
z
" transform="scale(0.015625)"/>
       </defs>
       <use xlink:href="#DejaVuSans-18"/>
       <use xlink:href="#DejaVuSans-13" transform="translate(63.625 0)"/>
       <use xlink:href="#DejaVuSans-13" transform="translate(127.25 0)"/>
       <use xlink:href="#DejaVuSans-13" transform="translate(190.875 0)"/>
       <use xlink:href="#DejaVuSans-13" transform="translate(254.5 0)"/>
      </g>
     </g>
    </g>
    <g id="xtick_7">
     <g id="line2d_7">
      <g>
       <use xlink:href="#m74d9a8e99a" x="318.187511" y="228.96" style="stroke: #000000; stroke-width: 0.8"/>
      </g>
     </g>
     <g id="text_7">
      <!-- 60000 -->
      <g transform="translate(302.281261 243.557656) scale(0.1 -0.1)">
       <defs>
        <path id="DejaVuSans-19" d="M 2113 2584 
Q 1688 2584 1439 2293 
Q 1191 2003 1191 1497 
Q 1191 994 1439 701 
Q 1688 409 2113 409 
Q 2538 409 2786 701 
Q 3034 994 3034 1497 
Q 3034 2003 2786 2293 
Q 2538 2584 2113 2584 
z
M 3366 4563 
L 3366 3988 
Q 3128 4100 2886 4159 
Q 2644 4219 2406 4219 
Q 1781 4219 1451 3797 
Q 1122 3375 1075 2522 
Q 1259 2794 1537 2939 
Q 1816 3084 2150 3084 
Q 2853 3084 3261 2657 
Q 3669 2231 3669 1497 
Q 3669 778 3244 343 
Q 2819 -91 2113 -91 
Q 1303 -91 875 529 
Q 447 1150 447 2328 
Q 447 3434 972 4092 
Q 1497 4750 2381 4750 
Q 2619 4750 2861 4703 
Q 3103 4656 3366 4563 
z
" transform="scale(0.015625)"/>
       </defs>
       <use xlink:href="#DejaVuSans-19"/>
       <use xlink:href="#DejaVuSans-13" transform="translate(63.625 0)"/>
       <use xlink:href="#DejaVuSans-13" transform="translate(127.25 0)"/>
       <use xlink:href="#DejaVuSans-13" transform="translate(190.875 0)"/>
       <use xlink:href="#DejaVuSans-13" transform="translate(254.5 0)"/>
      </g>
     </g>
    </g>
    <g id="xtick_8">
     <g id="line2d_8">
      <g>
       <use xlink:href="#m74d9a8e99a" x="360.803817" y="228.96" style="stroke: #000000; stroke-width: 0.8"/>
      </g>
     </g>
     <g id="text_8">
      <!-- 70000 -->
      <g transform="translate(344.897567 243.557656) scale(0.1 -0.1)">
       <defs>
        <path id="DejaVuSans-1a" d="M 525 4666 
L 3525 4666 
L 3525 4397 
L 1831 0 
L 1172 0 
L 2766 4134 
L 525 4134 
L 525 4666 
z
" transform="scale(0.015625)"/>
       </defs>
       <use xlink:href="#DejaVuSans-1a"/>
       <use xlink:href="#DejaVuSans-13" transform="translate(63.625 0)"/>
       <use xlink:href="#DejaVuSans-13" transform="translate(127.25 0)"/>
       <use xlink:href="#DejaVuSans-13" transform="translate(190.875 0)"/>
       <use xlink:href="#DejaVuSans-13" transform="translate(254.5 0)"/>
      </g>
     </g>
    </g>
    <g id="text_9">
     <!-- event_time_offset [µs] -->
     <g transform="translate(158.728906 257.558438) scale(0.1 -0.1)">
      <defs>
       <path id="DejaVuSans-48" d="M 3597 1894 
L 3597 1613 
L 953 1613 
Q 991 1019 1311 708 
Q 1631 397 2203 397 
Q 2534 397 2845 478 
Q 3156 559 3463 722 
L 3463 178 
Q 3153 47 2828 -22 
Q 2503 -91 2169 -91 
Q 1331 -91 842 396 
Q 353 884 353 1716 
Q 353 2575 817 3079 
Q 1281 3584 2069 3584 
Q 2775 3584 3186 3129 
Q 3597 2675 3597 1894 
z
M 3022 2063 
Q 3016 2534 2758 2815 
Q 2500 3097 2075 3097 
Q 1594 3097 1305 2825 
Q 1016 2553 972 2059 
L 3022 2063 
z
" transform="scale(0.015625)"/>
       <path id="DejaVuSans-59" d="M 191 3500 
L 800 3500 
L 1894 563 
L 2988 3500 
L 3597 3500 
L 2284 0 
L 1503 0 
L 191 3500 
z
" transform="scale(0.015625)"/>
       <path id="DejaVuSans-51" d="M 3513 2113 
L 3513 0 
L 2938 0 
L 2938 2094 
Q 2938 2591 2744 2837 
Q 2550 3084 2163 3084 
Q 1697 3084 1428 2787 
Q 1159 2491 1159 1978 
L 1159 0 
L 581 0 
L 581 3500 
L 1159 3500 
L 1159 2956 
Q 1366 3272 1645 3428 
Q 1925 3584 2291 3584 
Q 2894 3584 3203 3211 
Q 3513 2838 3513 2113 
z
" transform="scale(0.015625)"/>
       <path id="DejaVuSans-57" d="M 1172 4494 
L 1172 3500 
L 2356 3500 
L 2356 3053 
L 1172 3053 
L 1172 1153 
Q 1172 725 1289 603 
Q 1406 481 1766 481 
L 2356 481 
L 2356 0 
L 1766 0 
Q 1100 0 847 248 
Q 594 497 594 1153 
L 594 3053 
L 172 3053 
L 172 3500 
L 594 3500 
L 594 4494 
L 1172 4494 
z
" transform="scale(0.015625)"/>
       <path id="DejaVuSans-42" d="M 3263 -1063 
L 3263 -1509 
L -63 -1509 
L -63 -1063 
L 3263 -1063 
z
" transform="scale(0.015625)"/>
       <path id="DejaVuSans-4c" d="M 603 3500 
L 1178 3500 
L 1178 0 
L 603 0 
L 603 3500 
z
M 603 4863 
L 1178 4863 
L 1178 4134 
L 603 4134 
L 603 4863 
z
" transform="scale(0.015625)"/>
       <path id="DejaVuSans-50" d="M 3328 2828 
Q 3544 3216 3844 3400 
Q 4144 3584 4550 3584 
Q 5097 3584 5394 3201 
Q 5691 2819 5691 2113 
L 5691 0 
L 5113 0 
L 5113 2094 
Q 5113 2597 4934 2840 
Q 4756 3084 4391 3084 
Q 3944 3084 3684 2787 
Q 3425 2491 3425 1978 
L 3425 0 
L 2847 0 
L 2847 2094 
Q 2847 2600 2669 2842 
Q 2491 3084 2119 3084 
Q 1678 3084 1418 2786 
Q 1159 2488 1159 1978 
L 1159 0 
L 581 0 
L 581 3500 
L 1159 3500 
L 1159 2956 
Q 1356 3278 1631 3431 
Q 1906 3584 2284 3584 
Q 2666 3584 2933 3390 
Q 3200 3197 3328 2828 
z
" transform="scale(0.015625)"/>
       <path id="DejaVuSans-52" d="M 1959 3097 
Q 1497 3097 1228 2736 
Q 959 2375 959 1747 
Q 959 1119 1226 758 
Q 1494 397 1959 397 
Q 2419 397 2687 759 
Q 2956 1122 2956 1747 
Q 2956 2369 2687 2733 
Q 2419 3097 1959 3097 
z
M 1959 3584 
Q 2709 3584 3137 3096 
Q 3566 2609 3566 1747 
Q 3566 888 3137 398 
Q 2709 -91 1959 -91 
Q 1206 -91 779 398 
Q 353 888 353 1747 
Q 353 2609 779 3096 
Q 1206 3584 1959 3584 
z
" transform="scale(0.015625)"/>
       <path id="DejaVuSans-13ae" d="M 4531 4863 
L 4531 4384 
L 3981 4384 
Q 3672 4384 3551 4259 
Q 3431 4134 3431 3809 
L 3431 3500 
L 4378 3500 
L 4378 3053 
L 3431 3053 
L 3431 0 
L 2853 0 
L 2853 3053 
L 1275 3053 
L 1275 0 
L 697 0 
L 697 3053 
L 147 3053 
L 147 3500 
L 697 3500 
L 697 3744 
Q 697 4328 969 4595 
Q 1241 4863 1831 4863 
L 2375 4863 
L 2375 4384 
L 1825 4384 
Q 1516 4384 1394 4259 
Q 1275 4134 1275 3809 
L 1275 3500 
L 2853 3500 
L 2853 3744 
Q 2853 4328 3125 4595 
Q 3397 4863 3988 4863 
L 4531 4863 
z
" transform="scale(0.015625)"/>
       <path id="DejaVuSans-56" d="M 2834 3397 
L 2834 2853 
Q 2591 2978 2328 3040 
Q 2066 3103 1784 3103 
Q 1356 3103 1142 2972 
Q 928 2841 928 2578 
Q 928 2378 1081 2264 
Q 1234 2150 1697 2047 
L 1894 2003 
Q 2506 1872 2764 1633 
Q 3022 1394 3022 966 
Q 3022 478 2636 193 
Q 2250 -91 1575 -91 
Q 1294 -91 989 -36 
Q 684 19 347 128 
L 347 722 
Q 666 556 975 473 
Q 1284 391 1588 391 
Q 1994 391 2212 530 
Q 2431 669 2431 922 
Q 2431 1156 2273 1281 
Q 2116 1406 1581 1522 
L 1381 1569 
Q 847 1681 609 1914 
Q 372 2147 372 2553 
Q 372 3047 722 3315 
Q 1072 3584 1716 3584 
Q 2034 3584 2315 3537 
Q 2597 3491 2834 3397 
z
" transform="scale(0.015625)"/>
       <path id="DejaVuSans-3" transform="scale(0.015625)"/>
       <path id="DejaVuSans-3e" d="M 550 4863 
L 1875 4863 
L 1875 4416 
L 1125 4416 
L 1125 -397 
L 1875 -397 
L 1875 -844 
L 550 -844 
L 550 4863 
z
" transform="scale(0.015625)"/>
       <path id="DejaVuSans-77" d="M 544 -1331 
L 544 3500 
L 1119 3500 
L 1119 1325 
Q 1119 872 1334 640 
Q 1550 409 1972 409 
Q 2434 409 2667 671 
Q 2900 934 2900 1459 
L 2900 3500 
L 3475 3500 
L 3475 806 
Q 3475 619 3529 530 
Q 3584 441 3700 441 
Q 3728 441 3778 458 
Q 3828 475 3916 513 
L 3916 50 
Q 3788 -22 3673 -56 
Q 3559 -91 3450 -91 
Q 3234 -91 3106 31 
Q 2978 153 2931 403 
Q 2775 156 2548 32 
Q 2322 -91 2016 -91 
Q 1697 -91 1473 31 
Q 1250 153 1119 397 
L 1119 -1331 
L 544 -1331 
z
" transform="scale(0.015625)"/>
       <path id="DejaVuSans-40" d="M 1947 4863 
L 1947 -844 
L 622 -844 
L 622 -397 
L 1369 -397 
L 1369 4416 
L 622 4416 
L 622 4863 
L 1947 4863 
z
" transform="scale(0.015625)"/>
      </defs>
      <use xlink:href="#DejaVuSans-48"/>
      <use xlink:href="#DejaVuSans-59" transform="translate(61.53125 0)"/>
      <use xlink:href="#DejaVuSans-48" transform="translate(120.71875 0)"/>
      <use xlink:href="#DejaVuSans-51" transform="translate(182.25 0)"/>
      <use xlink:href="#DejaVuSans-57" transform="translate(245.625 0)"/>
      <use xlink:href="#DejaVuSans-42" transform="translate(284.828125 0)"/>
      <use xlink:href="#DejaVuSans-57" transform="translate(334.828125 0)"/>
      <use xlink:href="#DejaVuSans-4c" transform="translate(374.03125 0)"/>
      <use xlink:href="#DejaVuSans-50" transform="translate(401.8125 0)"/>
      <use xlink:href="#DejaVuSans-48" transform="translate(499.21875 0)"/>
      <use xlink:href="#DejaVuSans-42" transform="translate(560.75 0)"/>
      <use xlink:href="#DejaVuSans-52" transform="translate(610.75 0)"/>
      <use xlink:href="#DejaVuSans-13ae" transform="translate(671.9375 0)"/>
      <use xlink:href="#DejaVuSans-56" transform="translate(740.828125 0)"/>
      <use xlink:href="#DejaVuSans-48" transform="translate(792.921875 0)"/>
      <use xlink:href="#DejaVuSans-57" transform="translate(854.453125 0)"/>
      <use xlink:href="#DejaVuSans-3" transform="translate(893.65625 0)"/>
      <use xlink:href="#DejaVuSans-3e" transform="translate(925.4375 0)"/>
      <use xlink:href="#DejaVuSans-77" transform="translate(964.453125 0)"/>
      <use xlink:href="#DejaVuSans-56" transform="translate(1028.078125 0)"/>
      <use xlink:href="#DejaVuSans-40" transform="translate(1080.171875 0)"/>
     </g>
    </g>
   </g>
   <g id="matplotlib.axis_2">
    <g id="ytick_1">
     <g id="line2d_9">
      <defs>
       <path id="mf3999bd9e4" d="M 0 0 
L -3.5 0 
" style="stroke: #000000; stroke-width: 0.8"/>
      </defs>
      <g>
       <use xlink:href="#mf3999bd9e4" x="47.288281" y="218.88" style="stroke: #000000; stroke-width: 0.8"/>
      </g>
     </g>
     <g id="text_10">
      <!-- 0 -->
      <g transform="translate(33.925781 222.678828) scale(0.1 -0.1)">
       <use xlink:href="#DejaVuSans-13"/>
      </g>
     </g>
    </g>
    <g id="ytick_2">
     <g id="line2d_10">
      <g>
       <use xlink:href="#mf3999bd9e4" x="47.288281" y="188.60973" style="stroke: #000000; stroke-width: 0.8"/>
      </g>
     </g>
     <g id="text_11">
      <!-- 50 -->
      <g transform="translate(27.563281 192.408558) scale(0.1 -0.1)">
       <use xlink:href="#DejaVuSans-18"/>
       <use xlink:href="#DejaVuSans-13" transform="translate(63.625 0)"/>
      </g>
     </g>
    </g>
    <g id="ytick_3">
     <g id="line2d_11">
      <g>
       <use xlink:href="#mf3999bd9e4" x="47.288281" y="158.339459" style="stroke: #000000; stroke-width: 0.8"/>
      </g>
     </g>
     <g id="text_12">
      <!-- 100 -->
      <g transform="translate(21.200781 162.138288) scale(0.1 -0.1)">
       <use xlink:href="#DejaVuSans-14"/>
       <use xlink:href="#DejaVuSans-13" transform="translate(63.625 0)"/>
       <use xlink:href="#DejaVuSans-13" transform="translate(127.25 0)"/>
      </g>
     </g>
    </g>
    <g id="ytick_4">
     <g id="line2d_12">
      <g>
       <use xlink:href="#mf3999bd9e4" x="47.288281" y="128.069189" style="stroke: #000000; stroke-width: 0.8"/>
      </g>
     </g>
     <g id="text_13">
      <!-- 150 -->
      <g transform="translate(21.200781 131.868017) scale(0.1 -0.1)">
       <use xlink:href="#DejaVuSans-14"/>
       <use xlink:href="#DejaVuSans-18" transform="translate(63.625 0)"/>
       <use xlink:href="#DejaVuSans-13" transform="translate(127.25 0)"/>
      </g>
     </g>
    </g>
    <g id="ytick_5">
     <g id="line2d_13">
      <g>
       <use xlink:href="#mf3999bd9e4" x="47.288281" y="97.798919" style="stroke: #000000; stroke-width: 0.8"/>
      </g>
     </g>
     <g id="text_14">
      <!-- 200 -->
      <g transform="translate(21.200781 101.597747) scale(0.1 -0.1)">
       <use xlink:href="#DejaVuSans-15"/>
       <use xlink:href="#DejaVuSans-13" transform="translate(63.625 0)"/>
       <use xlink:href="#DejaVuSans-13" transform="translate(127.25 0)"/>
      </g>
     </g>
    </g>
    <g id="ytick_6">
     <g id="line2d_14">
      <g>
       <use xlink:href="#mf3999bd9e4" x="47.288281" y="67.528649" style="stroke: #000000; stroke-width: 0.8"/>
      </g>
     </g>
     <g id="text_15">
      <!-- 250 -->
      <g transform="translate(21.200781 71.327477) scale(0.1 -0.1)">
       <use xlink:href="#DejaVuSans-15"/>
       <use xlink:href="#DejaVuSans-18" transform="translate(63.625 0)"/>
       <use xlink:href="#DejaVuSans-13" transform="translate(127.25 0)"/>
      </g>
     </g>
    </g>
    <g id="ytick_7">
     <g id="line2d_15">
      <g>
       <use xlink:href="#mf3999bd9e4" x="47.288281" y="37.258378" style="stroke: #000000; stroke-width: 0.8"/>
      </g>
     </g>
     <g id="text_16">
      <!-- 300 -->
      <g transform="translate(21.200781 41.057207) scale(0.1 -0.1)">
       <use xlink:href="#DejaVuSans-16"/>
       <use xlink:href="#DejaVuSans-13" transform="translate(63.625 0)"/>
       <use xlink:href="#DejaVuSans-13" transform="translate(127.25 0)"/>
      </g>
     </g>
    </g>
    <g id="text_17">
     <!-- [counts] -->
     <g transform="translate(14.798438 138.6925) rotate(-90) scale(0.1 -0.1)">
      <defs>
       <path id="DejaVuSans-46" d="M 3122 3366 
L 3122 2828 
Q 2878 2963 2633 3030 
Q 2388 3097 2138 3097 
Q 1578 3097 1268 2742 
Q 959 2388 959 1747 
Q 959 1106 1268 751 
Q 1578 397 2138 397 
Q 2388 397 2633 464 
Q 2878 531 3122 666 
L 3122 134 
Q 2881 22 2623 -34 
Q 2366 -91 2075 -91 
Q 1284 -91 818 406 
Q 353 903 353 1747 
Q 353 2603 823 3093 
Q 1294 3584 2113 3584 
Q 2378 3584 2631 3529 
Q 2884 3475 3122 3366 
z
" transform="scale(0.015625)"/>
       <path id="DejaVuSans-58" d="M 544 1381 
L 544 3500 
L 1119 3500 
L 1119 1403 
Q 1119 906 1312 657 
Q 1506 409 1894 409 
Q 2359 409 2629 706 
Q 2900 1003 2900 1516 
L 2900 3500 
L 3475 3500 
L 3475 0 
L 2900 0 
L 2900 538 
Q 2691 219 2414 64 
Q 2138 -91 1772 -91 
Q 1169 -91 856 284 
Q 544 659 544 1381 
z
M 1991 3584 
L 1991 3584 
z
" transform="scale(0.015625)"/>
      </defs>
      <use xlink:href="#DejaVuSans-3e"/>
      <use xlink:href="#DejaVuSans-46" transform="translate(39.015625 0)"/>
      <use xlink:href="#DejaVuSans-52" transform="translate(94 0)"/>
      <use xlink:href="#DejaVuSans-58" transform="translate(155.1875 0)"/>
      <use xlink:href="#DejaVuSans-51" transform="translate(218.5625 0)"/>
      <use xlink:href="#DejaVuSans-57" transform="translate(281.9375 0)"/>
      <use xlink:href="#DejaVuSans-56" transform="translate(321.140625 0)"/>
      <use xlink:href="#DejaVuSans-40" transform="translate(373.234375 0)"/>
     </g>
    </g>
   </g>
   <g id="line2d_16">
    <path d="M 62.506463 154.707027 
L 63.521009 154.707027 
L 63.521009 145.020541 
L 64.535554 145.020541 
L 64.535554 163.788108 
L 65.550099 163.788108 
L 65.550099 145.625946 
L 66.564645 145.625946 
L 66.564645 160.761081 
L 67.57919 160.761081 
L 67.57919 148.047568 
L 68.593736 148.047568 
L 68.593736 152.285405 
L 69.608281 152.285405 
L 69.608281 162.577297 
L 70.622827 162.577297 
L 70.622827 164.393514 
L 71.637372 164.393514 
L 71.637372 155.917838 
L 72.651918 155.917838 
L 72.651918 165.604324 
L 73.666463 165.604324 
L 73.666463 163.788108 
L 74.681009 163.788108 
L 74.681009 167.420541 
L 75.695554 167.420541 
L 75.695554 165.604324 
L 76.710099 165.604324 
L 76.710099 168.025946 
L 77.724645 168.025946 
L 77.724645 171.052973 
L 78.73919 171.052973 
L 78.73919 157.734054 
L 80.768281 157.734054 
L 80.768281 158.339459 
L 81.782827 158.339459 
L 81.782827 171.052973 
L 82.797372 171.052973 
L 82.797372 168.025946 
L 83.811918 168.025946 
L 83.811918 166.815135 
L 84.826463 166.815135 
L 84.826463 168.631351 
L 85.841009 168.631351 
L 85.841009 172.869189 
L 86.855554 172.869189 
L 86.855554 166.815135 
L 87.870099 166.815135 
L 87.870099 165.604324 
L 88.884645 165.604324 
L 88.884645 166.815135 
L 89.89919 166.815135 
L 89.89919 171.658378 
L 90.913736 171.658378 
L 90.913736 170.447568 
L 91.928281 170.447568 
L 91.928281 174.685405 
L 92.942827 174.685405 
L 92.942827 168.025946 
L 93.957372 168.025946 
L 93.957372 171.658378 
L 95.986463 171.658378 
L 95.986463 164.998919 
L 97.001009 164.998919 
L 97.001009 165.604324 
L 98.015554 165.604324 
L 98.015554 181.344865 
L 99.030099 181.344865 
L 99.030099 178.923243 
L 100.044645 178.923243 
L 100.044645 171.658378 
L 101.05919 171.658378 
L 101.05919 172.263784 
L 102.073736 172.263784 
L 102.073736 175.896216 
L 103.088281 175.896216 
L 103.088281 184.977297 
L 104.102827 184.977297 
L 104.102827 180.739459 
L 105.117372 180.739459 
L 105.117372 182.555676 
L 106.131918 182.555676 
L 106.131918 192.847568 
L 107.146463 192.847568 
L 107.146463 182.555676 
L 108.161009 182.555676 
L 108.161009 183.766486 
L 109.175554 183.766486 
L 109.175554 185.582703 
L 110.190099 185.582703 
L 110.190099 209.798919 
L 111.204645 209.798919 
L 111.204645 218.88 
L 120.335554 218.88 
L 120.335554 213.431351 
L 121.350099 213.431351 
L 121.350099 188.60973 
L 122.364645 188.60973 
L 122.364645 175.896216 
L 123.37919 175.896216 
L 123.37919 181.95027 
L 124.393736 181.95027 
L 124.393736 175.896216 
L 125.408281 175.896216 
L 125.408281 177.107027 
L 126.422827 177.107027 
L 126.422827 174.08 
L 127.437372 174.08 
L 127.437372 171.052973 
L 128.451918 171.052973 
L 128.451918 183.766486 
L 129.466463 183.766486 
L 129.466463 173.474595 
L 130.481009 173.474595 
L 130.481009 178.317838 
L 131.495554 178.317838 
L 131.495554 179.528649 
L 132.510099 179.528649 
L 132.510099 185.582703 
L 133.524645 185.582703 
L 133.524645 180.134054 
L 135.553736 180.134054 
L 135.553736 179.528649 
L 136.568281 179.528649 
L 136.568281 178.317838 
L 137.582827 178.317838 
L 137.582827 172.869189 
L 138.597372 172.869189 
L 138.597372 164.998919 
L 139.611918 164.998919 
L 139.611918 118.988108 
L 140.626463 118.988108 
L 140.626463 114.75027 
L 141.641009 114.75027 
L 141.641009 108.090811 
L 142.655554 108.090811 
L 142.655554 112.328649 
L 143.670099 112.328649 
L 143.670099 97.798919 
L 144.684645 97.798919 
L 144.684645 108.696216 
L 145.69919 108.696216 
L 145.69919 112.934054 
L 146.713736 112.934054 
L 146.713736 103.852973 
L 148.742827 103.852973 
L 148.742827 86.901622 
L 149.757372 86.901622 
L 149.757372 80.847568 
L 150.771918 80.847568 
L 150.771918 89.928649 
L 151.786463 89.928649 
L 151.786463 117.171892 
L 152.801009 117.171892 
L 152.801009 86.296216 
L 153.815554 86.296216 
L 153.815554 106.88 
L 154.830099 106.88 
L 154.830099 94.771892 
L 155.844645 94.771892 
L 155.844645 76.60973 
L 156.85919 76.60973 
L 156.85919 97.798919 
L 157.873736 97.798919 
L 157.873736 101.431351 
L 158.888281 101.431351 
L 158.888281 109.301622 
L 159.902827 109.301622 
L 159.902827 100.825946 
L 160.917372 100.825946 
L 160.917372 85.690811 
L 161.931918 85.690811 
L 161.931918 101.431351 
L 162.946463 101.431351 
L 162.946463 99.00973 
L 163.961009 99.00973 
L 163.961009 108.696216 
L 164.975554 108.696216 
L 164.975554 86.901622 
L 165.990099 86.901622 
L 165.990099 98.404324 
L 167.004645 98.404324 
L 167.004645 97.193514 
L 168.01919 97.193514 
L 168.01919 96.588108 
L 169.033736 96.588108 
L 169.033736 97.193514 
L 170.048281 97.193514 
L 170.048281 103.852973 
L 171.062827 103.852973 
L 171.062827 109.301622 
L 172.077372 109.301622 
L 172.077372 103.852973 
L 173.091918 103.852973 
L 173.091918 97.798919 
L 174.106463 97.798919 
L 174.106463 111.723243 
L 175.121009 111.723243 
L 175.121009 94.771892 
L 176.135554 94.771892 
L 176.135554 109.301622 
L 177.150099 109.301622 
L 177.150099 103.247568 
L 178.164645 103.247568 
L 178.164645 113.539459 
L 179.17919 113.539459 
L 179.17919 115.355676 
L 180.193736 115.355676 
L 180.193736 118.988108 
L 181.208281 118.988108 
L 181.208281 115.961081 
L 182.222827 115.961081 
L 182.222827 114.75027 
L 183.237372 114.75027 
L 183.237372 110.512432 
L 184.251918 110.512432 
L 184.251918 106.88 
L 185.266463 106.88 
L 185.266463 105.669189 
L 186.281009 105.669189 
L 186.281009 107.485405 
L 187.295554 107.485405 
L 187.295554 120.804324 
L 188.310099 120.804324 
L 188.310099 114.75027 
L 189.324645 114.75027 
L 189.324645 93.561081 
L 190.33919 93.561081 
L 190.33919 115.355676 
L 191.353736 115.355676 
L 191.353736 112.934054 
L 192.368281 112.934054 
L 192.368281 114.144865 
L 193.382827 114.144865 
L 193.382827 117.171892 
L 194.397372 117.171892 
L 194.397372 115.355676 
L 196.426463 115.355676 
L 196.426463 118.988108 
L 197.441009 118.988108 
L 197.441009 128.674595 
L 198.455554 128.674595 
L 198.455554 131.096216 
L 199.470099 131.096216 
L 199.470099 123.831351 
L 200.484645 123.831351 
L 200.484645 132.912432 
L 201.49919 132.912432 
L 201.49919 134.728649 
L 202.513736 134.728649 
L 202.513736 113.539459 
L 203.528281 113.539459 
L 203.528281 106.274595 
L 204.542827 106.274595 
L 204.542827 106.88 
L 205.557372 106.88 
L 205.557372 112.934054 
L 206.571918 112.934054 
L 206.571918 114.75027 
L 207.586463 114.75027 
L 207.586463 112.328649 
L 208.601009 112.328649 
L 208.601009 112.934054 
L 209.615554 112.934054 
L 209.615554 97.798919 
L 210.630099 97.798919 
L 210.630099 99.615135 
L 211.644645 99.615135 
L 211.644645 64.501622 
L 212.65919 64.501622 
L 212.65919 91.139459 
L 213.673736 91.139459 
L 213.673736 78.425946 
L 214.688281 78.425946 
L 214.688281 76.004324 
L 215.702827 76.004324 
L 215.702827 69.344865 
L 216.717372 69.344865 
L 216.717372 70.555676 
L 217.731918 70.555676 
L 217.731918 91.139459 
L 218.746463 91.139459 
L 218.746463 87.507027 
L 219.761009 87.507027 
L 219.761009 92.35027 
L 220.775554 92.35027 
L 220.775554 75.398919 
L 221.790099 75.398919 
L 221.790099 93.561081 
L 222.804645 93.561081 
L 222.804645 79.636757 
L 223.81919 79.636757 
L 223.81919 99.615135 
L 224.833736 99.615135 
L 224.833736 95.982703 
L 225.848281 95.982703 
L 225.848281 89.323243 
L 226.862827 89.323243 
L 226.862827 104.458378 
L 227.877372 104.458378 
L 227.877372 155.917838 
L 228.891918 155.917838 
L 228.891918 200.112432 
L 229.906463 200.112432 
L 229.906463 198.296216 
L 230.921009 198.296216 
L 230.921009 196.48 
L 231.935554 196.48 
L 231.935554 199.507027 
L 232.950099 199.507027 
L 232.950099 197.085405 
L 233.964645 197.085405 
L 233.964645 198.901622 
L 234.97919 198.901622 
L 234.97919 196.48 
L 235.993736 196.48 
L 235.993736 198.901622 
L 237.008281 198.901622 
L 237.008281 191.031351 
L 238.022827 191.031351 
L 238.022827 99.615135 
L 239.037372 99.615135 
L 239.037372 40.890811 
L 240.051918 40.890811 
L 240.051918 51.182703 
L 241.066463 51.182703 
L 241.066463 24.544865 
L 242.081009 24.544865 
L 242.081009 23.939459 
L 243.095554 23.939459 
L 243.095554 42.101622 
L 244.110099 42.101622 
L 244.110099 20.307027 
L 245.124645 20.307027 
L 245.124645 45.734054 
L 246.13919 45.734054 
L 246.13919 22.123243 
L 247.153736 22.123243 
L 247.153736 45.128649 
L 249.182827 45.128649 
L 249.182827 40.285405 
L 250.197372 40.285405 
L 250.197372 17.28 
L 251.211918 17.28 
L 251.211918 65.712432 
L 252.226463 65.712432 
L 252.226463 44.523243 
L 253.241009 44.523243 
L 253.241009 46.944865 
L 254.255554 46.944865 
L 254.255554 37.863784 
L 255.270099 37.863784 
L 255.270099 79.636757 
L 256.284645 79.636757 
L 256.284645 49.971892 
L 257.29919 49.971892 
L 257.29919 52.998919 
L 258.313736 52.998919 
L 258.313736 55.420541 
L 259.328281 55.420541 
L 259.328281 49.366486 
L 260.342827 49.366486 
L 260.342827 45.128649 
L 261.357372 45.128649 
L 261.357372 39.68 
L 263.386463 39.68 
L 263.386463 71.766486 
L 264.401009 71.766486 
L 264.401009 62.685405 
L 265.415554 62.685405 
L 265.415554 69.95027 
L 266.430099 69.95027 
L 266.430099 66.923243 
L 267.444645 66.923243 
L 267.444645 75.398919 
L 268.45919 75.398919 
L 268.45919 66.317838 
L 269.473736 66.317838 
L 269.473736 75.398919 
L 270.488281 75.398919 
L 270.488281 65.107027 
L 272.517372 65.107027 
L 272.517372 85.690811 
L 273.531918 85.690811 
L 273.531918 70.555676 
L 274.546463 70.555676 
L 274.546463 72.371892 
L 275.561009 72.371892 
L 275.561009 68.134054 
L 276.575554 68.134054 
L 276.575554 75.398919 
L 277.590099 75.398919 
L 277.590099 80.242162 
L 278.604645 80.242162 
L 278.604645 89.323243 
L 279.61919 89.323243 
L 279.61919 95.377297 
L 280.633736 95.377297 
L 280.633736 88.112432 
L 281.648281 88.112432 
L 281.648281 101.431351 
L 282.662827 101.431351 
L 282.662827 82.058378 
L 283.677372 82.058378 
L 283.677372 111.117838 
L 284.691918 111.117838 
L 284.691918 92.35027 
L 285.706463 92.35027 
L 285.706463 91.744865 
L 286.721009 91.744865 
L 286.721009 101.431351 
L 287.735554 101.431351 
L 287.735554 106.88 
L 288.750099 106.88 
L 288.750099 127.463784 
L 289.764645 127.463784 
L 289.764645 105.063784 
L 290.77919 105.063784 
L 290.77919 96.588108 
L 291.793736 96.588108 
L 291.793736 97.193514 
L 292.808281 97.193514 
L 292.808281 102.036757 
L 293.822827 102.036757 
L 293.822827 114.144865 
L 294.837372 114.144865 
L 294.837372 86.901622 
L 295.851918 86.901622 
L 295.851918 100.220541 
L 296.866463 100.220541 
L 296.866463 114.144865 
L 297.881009 114.144865 
L 297.881009 112.934054 
L 298.895554 112.934054 
L 298.895554 103.852973 
L 299.910099 103.852973 
L 299.910099 100.220541 
L 300.924645 100.220541 
L 300.924645 108.090811 
L 301.93919 108.090811 
L 301.93919 111.117838 
L 302.953736 111.117838 
L 302.953736 109.907027 
L 303.968281 109.907027 
L 303.968281 108.696216 
L 304.982827 108.696216 
L 304.982827 126.252973 
L 305.997372 126.252973 
L 305.997372 119.593514 
L 307.011918 119.593514 
L 307.011918 112.328649 
L 308.026463 112.328649 
L 308.026463 108.090811 
L 309.041009 108.090811 
L 309.041009 120.804324 
L 310.055554 120.804324 
L 310.055554 126.252973 
L 311.070099 126.252973 
L 311.070099 119.593514 
L 312.084645 119.593514 
L 312.084645 122.015135 
L 313.09919 122.015135 
L 313.09919 118.988108 
L 315.128281 118.988108 
L 315.128281 123.831351 
L 316.142827 123.831351 
L 316.142827 134.728649 
L 317.157372 134.728649 
L 317.157372 126.252973 
L 318.171918 126.252973 
L 318.171918 133.517838 
L 319.186463 133.517838 
L 319.186463 135.939459 
L 320.201009 135.939459 
L 320.201009 149.863784 
L 321.215554 149.863784 
L 321.215554 131.096216 
L 322.230099 131.096216 
L 322.230099 151.68 
L 323.244645 151.68 
L 323.244645 156.523243 
L 324.25919 156.523243 
L 324.25919 189.820541 
L 325.273736 189.820541 
L 325.273736 204.35027 
L 326.288281 204.35027 
L 326.288281 206.166486 
L 328.317372 206.166486 
L 328.317372 211.00973 
L 329.331918 211.00973 
L 329.331918 206.166486 
L 330.346463 206.166486 
L 330.346463 206.771892 
L 331.361009 206.771892 
L 331.361009 204.35027 
L 332.375554 204.35027 
L 332.375554 174.685405 
L 333.390099 174.685405 
L 333.390099 130.490811 
L 334.404645 130.490811 
L 334.404645 122.620541 
L 335.41919 122.620541 
L 335.41919 125.647568 
L 336.433736 125.647568 
L 336.433736 134.123243 
L 337.448281 134.123243 
L 337.448281 122.620541 
L 338.462827 122.620541 
L 338.462827 131.701622 
L 339.477372 131.701622 
L 339.477372 128.674595 
L 340.491918 128.674595 
L 340.491918 111.117838 
L 341.506463 111.117838 
L 341.506463 120.804324 
L 342.521009 120.804324 
L 342.521009 119.593514 
L 343.535554 119.593514 
L 343.535554 139.571892 
L 344.550099 139.571892 
L 344.550099 123.831351 
L 345.564645 123.831351 
L 345.564645 128.674595 
L 346.57919 128.674595 
L 346.57919 137.755676 
L 347.593736 137.755676 
L 347.593736 120.804324 
L 348.608281 120.804324 
L 348.608281 129.885405 
L 349.622827 129.885405 
L 349.622827 131.096216 
L 350.637372 131.096216 
L 350.637372 140.782703 
L 351.651918 140.782703 
L 351.651918 130.490811 
L 352.666463 130.490811 
L 352.666463 137.15027 
L 353.681009 137.15027 
L 353.681009 139.571892 
L 354.695554 139.571892 
L 354.695554 131.096216 
L 355.710099 131.096216 
L 355.710099 146.836757 
L 356.724645 146.836757 
L 356.724645 147.442162 
L 357.73919 147.442162 
L 357.73919 139.571892 
L 358.753736 139.571892 
L 358.753736 144.415135 
L 359.768281 144.415135 
L 359.768281 148.047568 
L 360.782827 148.047568 
L 360.782827 133.517838 
L 361.797372 133.517838 
L 361.797372 148.047568 
L 362.811918 148.047568 
L 362.811918 144.415135 
L 363.826463 144.415135 
L 363.826463 151.074595 
L 364.841009 151.074595 
L 364.841009 153.496216 
L 365.855554 153.496216 
L 365.855554 157.128649 
L 366.870099 157.128649 
L 366.870099 157.128649 
" clip-path="url(#pda1c2dcd55)" style="fill: none; stroke: #1f77b4; stroke-width: 1.5; stroke-linecap: square"/>
   </g>
   <g id="patch_3">
    <path d="M 47.288281 228.96 
L 47.288281 7.2 
" style="fill: none; stroke: #000000; stroke-width: 0.8; stroke-linejoin: miter; stroke-linecap: square"/>
   </g>
   <g id="patch_4">
    <path d="M 382.088281 228.96 
L 382.088281 7.2 
" style="fill: none; stroke: #000000; stroke-width: 0.8; stroke-linejoin: miter; stroke-linecap: square"/>
   </g>
   <g id="patch_5">
    <path d="M 47.288281 228.96 
L 382.088281 228.96 
" style="fill: none; stroke: #000000; stroke-width: 0.8; stroke-linejoin: miter; stroke-linecap: square"/>
   </g>
   <g id="patch_6">
    <path d="M 47.288281 7.2 
L 382.088281 7.2 
" style="fill: none; stroke: #000000; stroke-width: 0.8; stroke-linejoin: miter; stroke-linecap: square"/>
   </g>
  </g>
 </g>
 <defs>
  <clipPath id="pda1c2dcd55">
   <rect x="47.288281" y="7.2" width="334.8" height="221.76"/>
  </clipPath>
 </defs>
</svg>
