<?xml version="1.0" encoding="UTF-8" standalone="no"?>
<!DOCTYPE svg PUBLIC "-//W3C//DTD SVG 1.1//EN"
 "http://www.w3.org/Graphics/SVG/1.1/DTD/svg11.dtd">
<!-- Generated by graphviz version 14.1.2 (20260126.1125)
 -->
<!-- Pages: 1 -->
<svg width="877pt" height="240pt"
 viewBox="0.00 0.00 877.00 240.00" xmlns="http://www.w3.org/2000/svg" xmlns:xlink="http://www.w3.org/1999/xlink">
<g id="graph0" class="graph" transform="scale(1 1) rotate(0) translate(4 236.25)">
<polygon fill="white" stroke="none" points="-4,4 -4,-236.25 872.88,-236.25 872.88,4 -4,4"/>
<!-- DetectorLtotal[SampleRun] -->
<g id="node1" class="node">
<title>DetectorLtotal[SampleRun]</title>
<polygon fill="none" stroke="black" points="212.5,-98.12 0,-98.12 0,-72.88 212.5,-72.88 212.5,-98.12"/>
<text xml:space="preserve" text-anchor="start" x="8" y="-80.83" font-family="Times,serif" font-size="14.00">DetectorLtotal[SampleRun]</text>
</g>
<!-- WavelengthDetector[SampleRun] -->
<g id="node9" class="node">
<title>WavelengthDetector[SampleRun]</title>
<polygon fill="none" stroke="black" points="604.5,-33 350,-33 350,0 604.5,0 604.5,-33"/>
<text xml:space="preserve" text-anchor="start" x="358" y="-16.7" font-family="Times,serif" font-size="14.00">WavelengthDetector[SampleRun]</text>
<text xml:space="preserve" text-anchor="start" x="393.62" y="-5.55" font-family="Times,serif" font-size="11.00">via:</text>
<text xml:space="preserve" text-anchor="start" x="413.88" y="-5.55" font-family="Times,serif" font-style="italic" font-size="11.00">detector_wavelength_data</text>
</g>
<!-- DetectorLtotal[SampleRun]&#45;&gt;WavelengthDetector[SampleRun] -->
<g id="edge7" class="edge">
<title>DetectorLtotal[SampleRun]&#45;&gt;WavelengthDetector[SampleRun]</title>
<path fill="none" stroke="black" d="M173.01,-72.44C230,-62.15 312.79,-47.2 377.63,-35.49"/>
<polygon fill="black" stroke="black" points="377.98,-38.98 387.2,-33.76 376.74,-32.1 377.98,-38.98"/>
</g>
<!-- LookupTable -->
<g id="node2" class="node">
<title>LookupTable</title>
<polygon fill="none" stroke="black" points="220.62,-171 83.88,-171 83.88,-138 220.62,-138 220.62,-171"/>
<text xml:space="preserve" text-anchor="start" x="107.25" y="-154.7" font-family="Times,serif" font-size="14.00">LookupTable</text>
<text xml:space="preserve" text-anchor="start" x="91.88" y="-143.55" font-family="Times,serif" font-size="11.00">via:</text>
<text xml:space="preserve" text-anchor="start" x="112.12" y="-143.55" font-family="Times,serif" font-style="italic" font-size="11.00">load_lookup_table</text>
</g>
<!-- ErrorLimitedLookupTable[NXdetector] -->
<g id="node3" class="node">
<title>ErrorLimitedLookupTable[NXdetector]</title>
<polygon fill="none" stroke="black" points="511.25,-102 219.25,-102 219.25,-69 511.25,-69 511.25,-102"/>
<text xml:space="preserve" text-anchor="start" x="227.25" y="-85.7" font-family="Times,serif" font-size="14.00">ErrorLimitedLookupTable[NXdetector]</text>
<text xml:space="preserve" text-anchor="start" x="244.12" y="-74.55" font-family="Times,serif" font-size="11.00">via:</text>
<text xml:space="preserve" text-anchor="start" x="264.38" y="-74.55" font-family="Times,serif" font-style="italic" font-size="11.00">mask_large_uncertainty_in_lut_detector</text>
</g>
<!-- LookupTable&#45;&gt;ErrorLimitedLookupTable[NXdetector] -->
<g id="edge1" class="edge">
<title>LookupTable&#45;&gt;ErrorLimitedLookupTable[NXdetector]</title>
<path fill="none" stroke="black" d="M203,-137.54C233.29,-128.01 271.96,-115.84 303.95,-105.78"/>
<polygon fill="black" stroke="black" points="304.59,-109.25 313.08,-102.91 302.49,-102.57 304.59,-109.25"/>
</g>
<!-- ErrorLimitedLookupTable[NXdetector]&#45;&gt;WavelengthDetector[SampleRun] -->
<g id="edge6" class="edge">
<title>ErrorLimitedLookupTable[NXdetector]&#45;&gt;WavelengthDetector[SampleRun]</title>
<path fill="none" stroke="black" d="M391.79,-68.62C406.47,-59.84 424.92,-48.8 440.92,-39.23"/>
<polygon fill="black" stroke="black" points="442.43,-42.41 449.21,-34.27 438.83,-36.4 442.43,-42.41"/>
</g>
<!-- LookupTableRelativeErrorThreshold -->
<g id="node4" class="node">
<title>LookupTableRelativeErrorThreshold</title>
<polygon fill="none" stroke="black" points="502.62,-167.12 227.88,-167.12 227.88,-141.88 502.62,-141.88 502.62,-167.12"/>
<text xml:space="preserve" text-anchor="start" x="235.88" y="-149.82" font-family="Times,serif" font-size="14.00">LookupTableRelativeErrorThreshold</text>
</g>
<!-- LookupTableRelativeErrorThreshold&#45;&gt;ErrorLimitedLookupTable[NXdetector] -->
<g id="edge2" class="edge">
<title>LookupTableRelativeErrorThreshold&#45;&gt;ErrorLimitedLookupTable[NXdetector]</title>
<path fill="none" stroke="black" d="M365.25,-141.52C365.25,-133.71 365.25,-123.19 365.25,-113.43"/>
<polygon fill="black" stroke="black" points="368.75,-113.67 365.25,-103.67 361.75,-113.67 368.75,-113.67"/>
</g>
<!-- NeXusName[NXdetector] -->
<g id="node5" class="node">
<title>NeXusName[NXdetector]</title>
<polygon fill="none" stroke="black" points="706.62,-167.12 509.88,-167.12 509.88,-141.88 706.62,-141.88 706.62,-167.12"/>
<text xml:space="preserve" text-anchor="start" x="517.88" y="-149.82" font-family="Times,serif" font-size="14.00">NeXusName[NXdetector]</text>
</g>
<!-- NeXusName[NXdetector]&#45;&gt;ErrorLimitedLookupTable[NXdetector] -->
<g id="edge3" class="edge">
<title>NeXusName[NXdetector]&#45;&gt;ErrorLimitedLookupTable[NXdetector]</title>
<path fill="none" stroke="black" d="M564.53,-141.44C528.28,-131.45 476.09,-117.06 434.22,-105.52"/>
<polygon fill="black" stroke="black" points="435.28,-102.18 424.71,-102.9 433.42,-108.93 435.28,-102.18"/>
</g>
<!-- LookupTableFilename -->
<g id="node6" class="node">
<title>LookupTableFilename</title>
<polygon fill="none" stroke="red" stroke-dasharray="5,2" points="238.25,-232.25 66.25,-232.25 66.25,-207 238.25,-207 238.25,-232.25"/>
<text xml:space="preserve" text-anchor="start" x="74.25" y="-214.95" font-family="Times,serif" font-size="14.00" fill="red">LookupTableFilename</text>
</g>
<!-- LookupTableFilename&#45;&gt;LookupTable -->
<g id="edge4" class="edge">
<title>LookupTableFilename&#45;&gt;LookupTable</title>
<path fill="none" stroke="black" d="M152.25,-206.75C152.25,-199.95 152.25,-191.13 152.25,-182.72"/>
<polygon fill="black" stroke="black" points="155.75,-182.89 152.25,-172.89 148.75,-182.89 155.75,-182.89"/>
</g>
<!-- PulseStrideOffset -->
<g id="node7" class="node">
<title>PulseStrideOffset</title>
<polygon fill="none" stroke="black" points="660.25,-98.12 518.25,-98.12 518.25,-72.88 660.25,-72.88 660.25,-98.12"/>
<text xml:space="preserve" text-anchor="start" x="526.25" y="-80.83" font-family="Times,serif" font-size="14.00">PulseStrideOffset</text>
</g>
<!-- PulseStrideOffset&#45;&gt;WavelengthDetector[SampleRun] -->
<g id="edge8" class="edge">
<title>PulseStrideOffset&#45;&gt;WavelengthDetector[SampleRun]</title>
<path fill="none" stroke="black" d="M569.23,-72.52C553.83,-63.31 532.14,-50.34 513.69,-39.3"/>
<polygon fill="black" stroke="black" points="515.52,-36.31 505.14,-34.18 511.92,-42.32 515.52,-36.31"/>
</g>
<!-- RawDetector[SampleRun] -->
<g id="node8" class="node">
<title>RawDetector[SampleRun]</title>
<polygon fill="none" stroke="black" points="868.88,-98.12 667.62,-98.12 667.62,-72.88 868.88,-72.88 868.88,-98.12"/>
<text xml:space="preserve" text-anchor="start" x="675.62" y="-80.83" font-family="Times,serif" font-size="14.00">RawDetector[SampleRun]</text>
</g>
<!-- RawDetector[SampleRun]&#45;&gt;WavelengthDetector[SampleRun] -->
<g id="edge5" class="edge">
<title>RawDetector[SampleRun]&#45;&gt;WavelengthDetector[SampleRun]</title>
<path fill="none" stroke="black" d="M715.89,-72.44C671.92,-62.32 608.39,-47.69 557.92,-36.07"/>
<polygon fill="black" stroke="black" points="558.72,-32.67 548.19,-33.83 557.15,-39.49 558.72,-32.67"/>
</g>
</g>
</svg>
