<?xml version="1.0" encoding="utf-8" standalone="no"?>
<!DOCTYPE svg PUBLIC "-//W3C//DTD SVG 1.1//EN"
  "http://www.w3.org/Graphics/SVG/1.1/DTD/svg11.dtd">
<svg xmlns:xlink="http://www.w3.org/1999/xlink" width="395.328125pt" height="268.200625pt" viewBox="0 0 395.328125 268.200625" xmlns="http://www.w3.org/2000/svg" version="1.1">
 <metadata>
  <rdf:RDF xmlns:dc="http://purl.org/dc/elements/1.1/" xmlns:cc="http://creativecommons.org/ns#" xmlns:rdf="http://www.w3.org/1999/02/22-rdf-syntax-ns#">
   <cc:Work>
    <dc:type rdf:resource="http://purl.org/dc/dcmitype/StillImage"/>
    <dc:date>2026-05-27T14:57:55.436418</dc:date>
    <dc:format>image/svg+xml</dc:format>
    <dc:creator>
     <cc:Agent>
      <dc:title>Matplotlib v3.10.9, https://matplotlib.org/</dc:title>
     </cc:Agent>
    </dc:creator>
   </cc:Work>
  </rdf:RDF>
 </metadata>
 <defs>
  <style type="text/css">*{stroke-linejoin: round; stroke-linecap: butt}</style>
 </defs>
 <g id="figure_1">
  <g id="patch_1">
   <path d="M 0 268.200625 
L 395.328125 268.200625 
L 395.328125 0 
L 0 0 
z
" style="fill: #ffffff"/>
  </g>
  <g id="axes_1">
   <g id="patch_2">
    <path d="M 53.328125 228.96 
L 388.128125 228.96 
L 388.128125 7.2 
L 53.328125 7.2 
z
" style="fill: #ffffff"/>
   </g>
   <g id="matplotlib.axis_1">
    <g id="xtick_1">
     <g id="line2d_1">
      <defs>
       <path id="mc02b6b38a9" d="M 0 0 
L 0 3.5 
" style="stroke: #000000; stroke-width: 0.8"/>
      </defs>
      <g>
       <use xlink:href="#mc02b6b38a9" x="68.546307" y="228.96" style="stroke: #000000; stroke-width: 0.8"/>
      </g>
     </g>
     <g id="text_1">
      <!-- 2 -->
      <g transform="translate(65.365057 243.558437) scale(0.1 -0.1)">
       <defs>
        <path id="DejaVuSans-32" d="M 1228 531 
L 3431 531 
L 3431 0 
L 469 0 
L 469 531 
Q 828 903 1448 1529 
Q 2069 2156 2228 2338 
Q 2531 2678 2651 2914 
Q 2772 3150 2772 3378 
Q 2772 3750 2511 3984 
Q 2250 4219 1831 4219 
Q 1534 4219 1204 4116 
Q 875 4013 500 3803 
L 500 4441 
Q 881 4594 1212 4672 
Q 1544 4750 1819 4750 
Q 2544 4750 2975 4387 
Q 3406 4025 3406 3419 
Q 3406 3131 3298 2873 
Q 3191 2616 2906 2266 
Q 2828 2175 2409 1742 
Q 1991 1309 1228 531 
z
" transform="scale(0.015625)"/>
       </defs>
       <use xlink:href="#DejaVuSans-32"/>
      </g>
     </g>
    </g>
    <g id="xtick_2">
     <g id="line2d_2">
      <g>
       <use xlink:href="#mc02b6b38a9" x="106.591761" y="228.96" style="stroke: #000000; stroke-width: 0.8"/>
      </g>
     </g>
     <g id="text_2">
      <!-- 3 -->
      <g transform="translate(103.410511 243.558437) scale(0.1 -0.1)">
       <defs>
        <path id="DejaVuSans-33" d="M 2597 2516 
Q 3050 2419 3304 2112 
Q 3559 1806 3559 1356 
Q 3559 666 3084 287 
Q 2609 -91 1734 -91 
Q 1441 -91 1130 -33 
Q 819 25 488 141 
L 488 750 
Q 750 597 1062 519 
Q 1375 441 1716 441 
Q 2309 441 2620 675 
Q 2931 909 2931 1356 
Q 2931 1769 2642 2001 
Q 2353 2234 1838 2234 
L 1294 2234 
L 1294 2753 
L 1863 2753 
Q 2328 2753 2575 2939 
Q 2822 3125 2822 3475 
Q 2822 3834 2567 4026 
Q 2313 4219 1838 4219 
Q 1578 4219 1281 4162 
Q 984 4106 628 3988 
L 628 4550 
Q 988 4650 1302 4700 
Q 1616 4750 1894 4750 
Q 2613 4750 3031 4423 
Q 3450 4097 3450 3541 
Q 3450 3153 3228 2886 
Q 3006 2619 2597 2516 
z
" transform="scale(0.015625)"/>
       </defs>
       <use xlink:href="#DejaVuSans-33"/>
      </g>
     </g>
    </g>
    <g id="xtick_3">
     <g id="line2d_3">
      <g>
       <use xlink:href="#mc02b6b38a9" x="144.637216" y="228.96" style="stroke: #000000; stroke-width: 0.8"/>
      </g>
     </g>
     <g id="text_3">
      <!-- 4 -->
      <g transform="translate(141.455966 243.558437) scale(0.1 -0.1)">
       <defs>
        <path id="DejaVuSans-34" d="M 2419 4116 
L 825 1625 
L 2419 1625 
L 2419 4116 
z
M 2253 4666 
L 3047 4666 
L 3047 1625 
L 3713 1625 
L 3713 1100 
L 3047 1100 
L 3047 0 
L 2419 0 
L 2419 1100 
L 313 1100 
L 313 1709 
L 2253 4666 
z
" transform="scale(0.015625)"/>
       </defs>
       <use xlink:href="#DejaVuSans-34"/>
      </g>
     </g>
    </g>
    <g id="xtick_4">
     <g id="line2d_4">
      <g>
       <use xlink:href="#mc02b6b38a9" x="182.68267" y="228.96" style="stroke: #000000; stroke-width: 0.8"/>
      </g>
     </g>
     <g id="text_4">
      <!-- 5 -->
      <g transform="translate(179.50142 243.558437) scale(0.1 -0.1)">
       <defs>
        <path id="DejaVuSans-35" d="M 691 4666 
L 3169 4666 
L 3169 4134 
L 1269 4134 
L 1269 2991 
Q 1406 3038 1543 3061 
Q 1681 3084 1819 3084 
Q 2600 3084 3056 2656 
Q 3513 2228 3513 1497 
Q 3513 744 3044 326 
Q 2575 -91 1722 -91 
Q 1428 -91 1123 -41 
Q 819 9 494 109 
L 494 744 
Q 775 591 1075 516 
Q 1375 441 1709 441 
Q 2250 441 2565 725 
Q 2881 1009 2881 1497 
Q 2881 1984 2565 2268 
Q 2250 2553 1709 2553 
Q 1456 2553 1204 2497 
Q 953 2441 691 2322 
L 691 4666 
z
" transform="scale(0.015625)"/>
       </defs>
       <use xlink:href="#DejaVuSans-35"/>
      </g>
     </g>
    </g>
    <g id="xtick_5">
     <g id="line2d_5">
      <g>
       <use xlink:href="#mc02b6b38a9" x="220.728125" y="228.96" style="stroke: #000000; stroke-width: 0.8"/>
      </g>
     </g>
     <g id="text_5">
      <!-- 6 -->
      <g transform="translate(217.546875 243.558437) scale(0.1 -0.1)">
       <defs>
        <path id="DejaVuSans-36" d="M 2113 2584 
Q 1688 2584 1439 2293 
Q 1191 2003 1191 1497 
Q 1191 994 1439 701 
Q 1688 409 2113 409 
Q 2538 409 2786 701 
Q 3034 994 3034 1497 
Q 3034 2003 2786 2293 
Q 2538 2584 2113 2584 
z
M 3366 4563 
L 3366 3988 
Q 3128 4100 2886 4159 
Q 2644 4219 2406 4219 
Q 1781 4219 1451 3797 
Q 1122 3375 1075 2522 
Q 1259 2794 1537 2939 
Q 1816 3084 2150 3084 
Q 2853 3084 3261 2657 
Q 3669 2231 3669 1497 
Q 3669 778 3244 343 
Q 2819 -91 2113 -91 
Q 1303 -91 875 529 
Q 447 1150 447 2328 
Q 447 3434 972 4092 
Q 1497 4750 2381 4750 
Q 2619 4750 2861 4703 
Q 3103 4656 3366 4563 
z
" transform="scale(0.015625)"/>
       </defs>
       <use xlink:href="#DejaVuSans-36"/>
      </g>
     </g>
    </g>
    <g id="xtick_6">
     <g id="line2d_6">
      <g>
       <use xlink:href="#mc02b6b38a9" x="258.77358" y="228.96" style="stroke: #000000; stroke-width: 0.8"/>
      </g>
     </g>
     <g id="text_6">
      <!-- 7 -->
      <g transform="translate(255.59233 243.558437) scale(0.1 -0.1)">
       <defs>
        <path id="DejaVuSans-37" d="M 525 4666 
L 3525 4666 
L 3525 4397 
L 1831 0 
L 1172 0 
L 2766 4134 
L 525 4134 
L 525 4666 
z
" transform="scale(0.015625)"/>
       </defs>
       <use xlink:href="#DejaVuSans-37"/>
      </g>
     </g>
    </g>
    <g id="xtick_7">
     <g id="line2d_7">
      <g>
       <use xlink:href="#mc02b6b38a9" x="296.819034" y="228.96" style="stroke: #000000; stroke-width: 0.8"/>
      </g>
     </g>
     <g id="text_7">
      <!-- 8 -->
      <g transform="translate(293.637784 243.558437) scale(0.1 -0.1)">
       <defs>
        <path id="DejaVuSans-38" d="M 2034 2216 
Q 1584 2216 1326 1975 
Q 1069 1734 1069 1313 
Q 1069 891 1326 650 
Q 1584 409 2034 409 
Q 2484 409 2743 651 
Q 3003 894 3003 1313 
Q 3003 1734 2745 1975 
Q 2488 2216 2034 2216 
z
M 1403 2484 
Q 997 2584 770 2862 
Q 544 3141 544 3541 
Q 544 4100 942 4425 
Q 1341 4750 2034 4750 
Q 2731 4750 3128 4425 
Q 3525 4100 3525 3541 
Q 3525 3141 3298 2862 
Q 3072 2584 2669 2484 
Q 3125 2378 3379 2068 
Q 3634 1759 3634 1313 
Q 3634 634 3220 271 
Q 2806 -91 2034 -91 
Q 1263 -91 848 271 
Q 434 634 434 1313 
Q 434 1759 690 2068 
Q 947 2378 1403 2484 
z
M 1172 3481 
Q 1172 3119 1398 2916 
Q 1625 2713 2034 2713 
Q 2441 2713 2670 2916 
Q 2900 3119 2900 3481 
Q 2900 3844 2670 4047 
Q 2441 4250 2034 4250 
Q 1625 4250 1398 4047 
Q 1172 3844 1172 3481 
z
" transform="scale(0.015625)"/>
       </defs>
       <use xlink:href="#DejaVuSans-38"/>
      </g>
     </g>
    </g>
    <g id="xtick_8">
     <g id="line2d_8">
      <g>
       <use xlink:href="#mc02b6b38a9" x="334.864489" y="228.96" style="stroke: #000000; stroke-width: 0.8"/>
      </g>
     </g>
     <g id="text_8">
      <!-- 9 -->
      <g transform="translate(331.683239 243.558437) scale(0.1 -0.1)">
       <defs>
        <path id="DejaVuSans-39" d="M 703 97 
L 703 672 
Q 941 559 1184 500 
Q 1428 441 1663 441 
Q 2288 441 2617 861 
Q 2947 1281 2994 2138 
Q 2813 1869 2534 1725 
Q 2256 1581 1919 1581 
Q 1219 1581 811 2004 
Q 403 2428 403 3163 
Q 403 3881 828 4315 
Q 1253 4750 1959 4750 
Q 2769 4750 3195 4129 
Q 3622 3509 3622 2328 
Q 3622 1225 3098 567 
Q 2575 -91 1691 -91 
Q 1453 -91 1209 -44 
Q 966 3 703 97 
z
M 1959 2075 
Q 2384 2075 2632 2365 
Q 2881 2656 2881 3163 
Q 2881 3666 2632 3958 
Q 2384 4250 1959 4250 
Q 1534 4250 1286 3958 
Q 1038 3666 1038 3163 
Q 1038 2656 1286 2365 
Q 1534 2075 1959 2075 
z
" transform="scale(0.015625)"/>
       </defs>
       <use xlink:href="#DejaVuSans-39"/>
      </g>
     </g>
    </g>
    <g id="xtick_9">
     <g id="line2d_9">
      <g>
       <use xlink:href="#mc02b6b38a9" x="372.909943" y="228.96" style="stroke: #000000; stroke-width: 0.8"/>
      </g>
     </g>
     <g id="text_9">
      <!-- 10 -->
      <g transform="translate(366.547443 243.558437) scale(0.1 -0.1)">
       <defs>
        <path id="DejaVuSans-31" d="M 794 531 
L 1825 531 
L 1825 4091 
L 703 3866 
L 703 4441 
L 1819 4666 
L 2450 4666 
L 2450 531 
L 3481 531 
L 3481 0 
L 794 0 
L 794 531 
z
" transform="scale(0.015625)"/>
        <path id="DejaVuSans-30" d="M 2034 4250 
Q 1547 4250 1301 3770 
Q 1056 3291 1056 2328 
Q 1056 1369 1301 889 
Q 1547 409 2034 409 
Q 2525 409 2770 889 
Q 3016 1369 3016 2328 
Q 3016 3291 2770 3770 
Q 2525 4250 2034 4250 
z
M 2034 4750 
Q 2819 4750 3233 4129 
Q 3647 3509 3647 2328 
Q 3647 1150 3233 529 
Q 2819 -91 2034 -91 
Q 1250 -91 836 529 
Q 422 1150 422 2328 
Q 422 3509 836 4129 
Q 1250 4750 2034 4750 
z
" transform="scale(0.015625)"/>
       </defs>
       <use xlink:href="#DejaVuSans-31"/>
       <use xlink:href="#DejaVuSans-30" transform="translate(63.623047 0)"/>
      </g>
     </g>
    </g>
    <g id="text_10">
     <!-- wavelength [Å] -->
     <g transform="translate(182.690625 258.920937) scale(0.1 -0.1)">
      <defs>
       <path id="DejaVuSans-77" d="M 269 3500 
L 844 3500 
L 1563 769 
L 2278 3500 
L 2956 3500 
L 3675 769 
L 4391 3500 
L 4966 3500 
L 4050 0 
L 3372 0 
L 2619 2869 
L 1863 0 
L 1184 0 
L 269 3500 
z
" transform="scale(0.015625)"/>
       <path id="DejaVuSans-61" d="M 2194 1759 
Q 1497 1759 1228 1600 
Q 959 1441 959 1056 
Q 959 750 1161 570 
Q 1363 391 1709 391 
Q 2188 391 2477 730 
Q 2766 1069 2766 1631 
L 2766 1759 
L 2194 1759 
z
M 3341 1997 
L 3341 0 
L 2766 0 
L 2766 531 
Q 2569 213 2275 61 
Q 1981 -91 1556 -91 
Q 1019 -91 701 211 
Q 384 513 384 1019 
Q 384 1609 779 1909 
Q 1175 2209 1959 2209 
L 2766 2209 
L 2766 2266 
Q 2766 2663 2505 2880 
Q 2244 3097 1772 3097 
Q 1472 3097 1187 3025 
Q 903 2953 641 2809 
L 641 3341 
Q 956 3463 1253 3523 
Q 1550 3584 1831 3584 
Q 2591 3584 2966 3190 
Q 3341 2797 3341 1997 
z
" transform="scale(0.015625)"/>
       <path id="DejaVuSans-76" d="M 191 3500 
L 800 3500 
L 1894 563 
L 2988 3500 
L 3597 3500 
L 2284 0 
L 1503 0 
L 191 3500 
z
" transform="scale(0.015625)"/>
       <path id="DejaVuSans-65" d="M 3597 1894 
L 3597 1613 
L 953 1613 
Q 991 1019 1311 708 
Q 1631 397 2203 397 
Q 2534 397 2845 478 
Q 3156 559 3463 722 
L 3463 178 
Q 3153 47 2828 -22 
Q 2503 -91 2169 -91 
Q 1331 -91 842 396 
Q 353 884 353 1716 
Q 353 2575 817 3079 
Q 1281 3584 2069 3584 
Q 2775 3584 3186 3129 
Q 3597 2675 3597 1894 
z
M 3022 2063 
Q 3016 2534 2758 2815 
Q 2500 3097 2075 3097 
Q 1594 3097 1305 2825 
Q 1016 2553 972 2059 
L 3022 2063 
z
" transform="scale(0.015625)"/>
       <path id="DejaVuSans-6c" d="M 603 4863 
L 1178 4863 
L 1178 0 
L 603 0 
L 603 4863 
z
" transform="scale(0.015625)"/>
       <path id="DejaVuSans-6e" d="M 3513 2113 
L 3513 0 
L 2938 0 
L 2938 2094 
Q 2938 2591 2744 2837 
Q 2550 3084 2163 3084 
Q 1697 3084 1428 2787 
Q 1159 2491 1159 1978 
L 1159 0 
L 581 0 
L 581 3500 
L 1159 3500 
L 1159 2956 
Q 1366 3272 1645 3428 
Q 1925 3584 2291 3584 
Q 2894 3584 3203 3211 
Q 3513 2838 3513 2113 
z
" transform="scale(0.015625)"/>
       <path id="DejaVuSans-67" d="M 2906 1791 
Q 2906 2416 2648 2759 
Q 2391 3103 1925 3103 
Q 1463 3103 1205 2759 
Q 947 2416 947 1791 
Q 947 1169 1205 825 
Q 1463 481 1925 481 
Q 2391 481 2648 825 
Q 2906 1169 2906 1791 
z
M 3481 434 
Q 3481 -459 3084 -895 
Q 2688 -1331 1869 -1331 
Q 1566 -1331 1297 -1286 
Q 1028 -1241 775 -1147 
L 775 -588 
Q 1028 -725 1275 -790 
Q 1522 -856 1778 -856 
Q 2344 -856 2625 -561 
Q 2906 -266 2906 331 
L 2906 616 
Q 2728 306 2450 153 
Q 2172 0 1784 0 
Q 1141 0 747 490 
Q 353 981 353 1791 
Q 353 2603 747 3093 
Q 1141 3584 1784 3584 
Q 2172 3584 2450 3431 
Q 2728 3278 2906 2969 
L 2906 3500 
L 3481 3500 
L 3481 434 
z
" transform="scale(0.015625)"/>
       <path id="DejaVuSans-74" d="M 1172 4494 
L 1172 3500 
L 2356 3500 
L 2356 3053 
L 1172 3053 
L 1172 1153 
Q 1172 725 1289 603 
Q 1406 481 1766 481 
L 2356 481 
L 2356 0 
L 1766 0 
Q 1100 0 847 248 
Q 594 497 594 1153 
L 594 3053 
L 172 3053 
L 172 3500 
L 594 3500 
L 594 4494 
L 1172 4494 
z
" transform="scale(0.015625)"/>
       <path id="DejaVuSans-68" d="M 3513 2113 
L 3513 0 
L 2938 0 
L 2938 2094 
Q 2938 2591 2744 2837 
Q 2550 3084 2163 3084 
Q 1697 3084 1428 2787 
Q 1159 2491 1159 1978 
L 1159 0 
L 581 0 
L 581 4863 
L 1159 4863 
L 1159 2956 
Q 1366 3272 1645 3428 
Q 1925 3584 2291 3584 
Q 2894 3584 3203 3211 
Q 3513 2838 3513 2113 
z
" transform="scale(0.015625)"/>
       <path id="DejaVuSans-20" transform="scale(0.015625)"/>
       <path id="DejaVuSans-5b" d="M 550 4863 
L 1875 4863 
L 1875 4416 
L 1125 4416 
L 1125 -397 
L 1875 -397 
L 1875 -844 
L 550 -844 
L 550 4863 
z
" transform="scale(0.015625)"/>
       <path id="DejaVuSans-c5" d="M 2663 5081 
Q 2663 5278 2523 5417 
Q 2384 5556 2188 5556 
Q 1988 5556 1852 5420 
Q 1716 5284 1716 5081 
Q 1716 4884 1853 4746 
Q 1991 4609 2188 4609 
Q 2384 4609 2523 4746 
Q 2663 4884 2663 5081 
z
M 2188 4044 
L 1338 1722 
L 3041 1722 
L 2188 4044 
z
M 1716 4366 
Q 1525 4494 1428 4673 
Q 1331 4853 1331 5081 
Q 1331 5441 1579 5691 
Q 1828 5941 2188 5941 
Q 2544 5941 2795 5689 
Q 3047 5438 3047 5081 
Q 3047 4863 2948 4678 
Q 2850 4494 2663 4366 
L 4325 0 
L 3669 0 
L 3244 1197 
L 1141 1197 
L 716 0 
L 50 0 
L 1716 4366 
z
" transform="scale(0.015625)"/>
       <path id="DejaVuSans-5d" d="M 1947 4863 
L 1947 -844 
L 622 -844 
L 622 -397 
L 1369 -397 
L 1369 4416 
L 622 4416 
L 622 4863 
L 1947 4863 
z
" transform="scale(0.015625)"/>
      </defs>
      <use xlink:href="#DejaVuSans-77"/>
      <use xlink:href="#DejaVuSans-61" transform="translate(81.787109 0)"/>
      <use xlink:href="#DejaVuSans-76" transform="translate(143.066406 0)"/>
      <use xlink:href="#DejaVuSans-65" transform="translate(202.246094 0)"/>
      <use xlink:href="#DejaVuSans-6c" transform="translate(263.769531 0)"/>
      <use xlink:href="#DejaVuSans-65" transform="translate(291.552734 0)"/>
      <use xlink:href="#DejaVuSans-6e" transform="translate(353.076172 0)"/>
      <use xlink:href="#DejaVuSans-67" transform="translate(416.455078 0)"/>
      <use xlink:href="#DejaVuSans-74" transform="translate(479.931641 0)"/>
      <use xlink:href="#DejaVuSans-68" transform="translate(519.140625 0)"/>
      <use xlink:href="#DejaVuSans-20" transform="translate(582.519531 0)"/>
      <use xlink:href="#DejaVuSans-5b" transform="translate(614.306641 0)"/>
      <use xlink:href="#DejaVuSans-c5" transform="translate(653.320312 0)"/>
      <use xlink:href="#DejaVuSans-5d" transform="translate(721.728516 0)"/>
     </g>
    </g>
   </g>
   <g id="matplotlib.axis_2">
    <g id="ytick_1">
     <g id="line2d_10">
      <defs>
       <path id="md2b6d93961" d="M 0 0 
L -3.5 0 
" style="stroke: #000000; stroke-width: 0.8"/>
      </defs>
      <g>
       <use xlink:href="#md2b6d93961" x="53.328125" y="218.88" style="stroke: #000000; stroke-width: 0.8"/>
      </g>
     </g>
     <g id="text_11">
      <!-- 0 -->
      <g transform="translate(39.965625 222.679219) scale(0.1 -0.1)">
       <use xlink:href="#DejaVuSans-30"/>
      </g>
     </g>
    </g>
    <g id="ytick_2">
     <g id="line2d_11">
      <g>
       <use xlink:href="#md2b6d93961" x="53.328125" y="180.421396" style="stroke: #000000; stroke-width: 0.8"/>
      </g>
     </g>
     <g id="text_12">
      <!-- 500 -->
      <g transform="translate(27.240625 184.220615) scale(0.1 -0.1)">
       <use xlink:href="#DejaVuSans-35"/>
       <use xlink:href="#DejaVuSans-30" transform="translate(63.623047 0)"/>
       <use xlink:href="#DejaVuSans-30" transform="translate(127.246094 0)"/>
      </g>
     </g>
    </g>
    <g id="ytick_3">
     <g id="line2d_12">
      <g>
       <use xlink:href="#md2b6d93961" x="53.328125" y="141.962793" style="stroke: #000000; stroke-width: 0.8"/>
      </g>
     </g>
     <g id="text_13">
      <!-- 1000 -->
      <g transform="translate(20.878125 145.762012) scale(0.1 -0.1)">
       <use xlink:href="#DejaVuSans-31"/>
       <use xlink:href="#DejaVuSans-30" transform="translate(63.623047 0)"/>
       <use xlink:href="#DejaVuSans-30" transform="translate(127.246094 0)"/>
       <use xlink:href="#DejaVuSans-30" transform="translate(190.869141 0)"/>
      </g>
     </g>
    </g>
    <g id="ytick_4">
     <g id="line2d_13">
      <g>
       <use xlink:href="#md2b6d93961" x="53.328125" y="103.504189" style="stroke: #000000; stroke-width: 0.8"/>
      </g>
     </g>
     <g id="text_14">
      <!-- 1500 -->
      <g transform="translate(20.878125 107.303408) scale(0.1 -0.1)">
       <use xlink:href="#DejaVuSans-31"/>
       <use xlink:href="#DejaVuSans-35" transform="translate(63.623047 0)"/>
       <use xlink:href="#DejaVuSans-30" transform="translate(127.246094 0)"/>
       <use xlink:href="#DejaVuSans-30" transform="translate(190.869141 0)"/>
      </g>
     </g>
    </g>
    <g id="ytick_5">
     <g id="line2d_14">
      <g>
       <use xlink:href="#md2b6d93961" x="53.328125" y="65.045586" style="stroke: #000000; stroke-width: 0.8"/>
      </g>
     </g>
     <g id="text_15">
      <!-- 2000 -->
      <g transform="translate(20.878125 68.844804) scale(0.1 -0.1)">
       <use xlink:href="#DejaVuSans-32"/>
       <use xlink:href="#DejaVuSans-30" transform="translate(63.623047 0)"/>
       <use xlink:href="#DejaVuSans-30" transform="translate(127.246094 0)"/>
       <use xlink:href="#DejaVuSans-30" transform="translate(190.869141 0)"/>
      </g>
     </g>
    </g>
    <g id="ytick_6">
     <g id="line2d_15">
      <g>
       <use xlink:href="#md2b6d93961" x="53.328125" y="26.586982" style="stroke: #000000; stroke-width: 0.8"/>
      </g>
     </g>
     <g id="text_16">
      <!-- 2500 -->
      <g transform="translate(20.878125 30.386201) scale(0.1 -0.1)">
       <use xlink:href="#DejaVuSans-32"/>
       <use xlink:href="#DejaVuSans-35" transform="translate(63.623047 0)"/>
       <use xlink:href="#DejaVuSans-30" transform="translate(127.246094 0)"/>
       <use xlink:href="#DejaVuSans-30" transform="translate(190.869141 0)"/>
      </g>
     </g>
    </g>
    <g id="text_17">
     <!-- [counts] -->
     <g transform="translate(14.798438 138.6925) rotate(-90) scale(0.1 -0.1)">
      <defs>
       <path id="DejaVuSans-63" d="M 3122 3366 
L 3122 2828 
Q 2878 2963 2633 3030 
Q 2388 3097 2138 3097 
Q 1578 3097 1268 2742 
Q 959 2388 959 1747 
Q 959 1106 1268 751 
Q 1578 397 2138 397 
Q 2388 397 2633 464 
Q 2878 531 3122 666 
L 3122 134 
Q 2881 22 2623 -34 
Q 2366 -91 2075 -91 
Q 1284 -91 818 406 
Q 353 903 353 1747 
Q 353 2603 823 3093 
Q 1294 3584 2113 3584 
Q 2378 3584 2631 3529 
Q 2884 3475 3122 3366 
z
" transform="scale(0.015625)"/>
       <path id="DejaVuSans-6f" d="M 1959 3097 
Q 1497 3097 1228 2736 
Q 959 2375 959 1747 
Q 959 1119 1226 758 
Q 1494 397 1959 397 
Q 2419 397 2687 759 
Q 2956 1122 2956 1747 
Q 2956 2369 2687 2733 
Q 2419 3097 1959 3097 
z
M 1959 3584 
Q 2709 3584 3137 3096 
Q 3566 2609 3566 1747 
Q 3566 888 3137 398 
Q 2709 -91 1959 -91 
Q 1206 -91 779 398 
Q 353 888 353 1747 
Q 353 2609 779 3096 
Q 1206 3584 1959 3584 
z
" transform="scale(0.015625)"/>
       <path id="DejaVuSans-75" d="M 544 1381 
L 544 3500 
L 1119 3500 
L 1119 1403 
Q 1119 906 1312 657 
Q 1506 409 1894 409 
Q 2359 409 2629 706 
Q 2900 1003 2900 1516 
L 2900 3500 
L 3475 3500 
L 3475 0 
L 2900 0 
L 2900 538 
Q 2691 219 2414 64 
Q 2138 -91 1772 -91 
Q 1169 -91 856 284 
Q 544 659 544 1381 
z
M 1991 3584 
L 1991 3584 
z
" transform="scale(0.015625)"/>
       <path id="DejaVuSans-73" d="M 2834 3397 
L 2834 2853 
Q 2591 2978 2328 3040 
Q 2066 3103 1784 3103 
Q 1356 3103 1142 2972 
Q 928 2841 928 2578 
Q 928 2378 1081 2264 
Q 1234 2150 1697 2047 
L 1894 2003 
Q 2506 1872 2764 1633 
Q 3022 1394 3022 966 
Q 3022 478 2636 193 
Q 2250 -91 1575 -91 
Q 1294 -91 989 -36 
Q 684 19 347 128 
L 347 722 
Q 666 556 975 473 
Q 1284 391 1588 391 
Q 1994 391 2212 530 
Q 2431 669 2431 922 
Q 2431 1156 2273 1281 
Q 2116 1406 1581 1522 
L 1381 1569 
Q 847 1681 609 1914 
Q 372 2147 372 2553 
Q 372 3047 722 3315 
Q 1072 3584 1716 3584 
Q 2034 3584 2315 3537 
Q 2597 3491 2834 3397 
z
" transform="scale(0.015625)"/>
      </defs>
      <use xlink:href="#DejaVuSans-5b"/>
      <use xlink:href="#DejaVuSans-63" transform="translate(39.013672 0)"/>
      <use xlink:href="#DejaVuSans-6f" transform="translate(93.994141 0)"/>
      <use xlink:href="#DejaVuSans-75" transform="translate(155.175781 0)"/>
      <use xlink:href="#DejaVuSans-6e" transform="translate(218.554688 0)"/>
      <use xlink:href="#DejaVuSans-74" transform="translate(281.933594 0)"/>
      <use xlink:href="#DejaVuSans-73" transform="translate(321.142578 0)"/>
      <use xlink:href="#DejaVuSans-5d" transform="translate(373.242188 0)"/>
     </g>
    </g>
   </g>
   <g id="line2d_16">
    <path d="M 68.546307 218.88 
L 70.575398 218.88 
L 70.575398 182.882747 
L 71.589943 182.882747 
L 71.589943 114.734101 
L 72.604489 114.734101 
L 72.604489 100.273667 
L 73.619034 100.273667 
L 73.619034 89.197589 
L 74.63358 89.197589 
L 74.63358 85.505563 
L 75.648125 85.505563 
L 75.648125 85.274811 
L 76.66267 85.274811 
L 76.66267 85.505563 
L 77.677216 85.505563 
L 77.677216 71.891217 
L 78.691761 71.891217 
L 78.691761 75.583243 
L 79.706307 75.583243 
L 79.706307 66.737764 
L 80.720852 66.737764 
L 80.720852 56.12319 
L 81.735398 56.12319 
L 81.735398 57.969203 
L 82.749943 57.969203 
L 82.749943 46.20087 
L 83.764489 46.20087 
L 83.764489 46.893125 
L 85.79358 46.893125 
L 85.79358 38.586066 
L 86.808125 38.586066 
L 86.808125 21.818115 
L 87.82267 21.818115 
L 87.82267 21.202778 
L 88.837216 21.202778 
L 88.837216 23.279542 
L 89.851761 23.279542 
L 89.851761 23.433377 
L 90.866307 23.433377 
L 90.866307 17.28 
L 91.880852 17.28 
L 91.880852 20.279771 
L 93.909943 20.202854 
L 93.909943 26.279313 
L 94.924489 26.279313 
L 94.924489 26.663899 
L 95.939034 26.663899 
L 95.939034 30.740511 
L 96.95358 30.740511 
L 96.95358 19.741351 
L 97.968125 19.741351 
L 97.968125 21.12586 
L 98.98267 21.12586 
L 98.98267 33.663365 
L 99.997216 33.663365 
L 99.997216 38.893735 
L 101.011761 38.893735 
L 101.011761 47.431545 
L 102.026307 47.431545 
L 102.026307 46.431622 
L 103.040852 46.431622 
L 103.040852 52.046578 
L 104.055398 52.046578 
L 104.055398 68.045357 
L 105.069943 68.045357 
L 105.069943 76.967753 
L 106.084489 76.967753 
L 106.084489 87.659245 
L 107.099034 87.659245 
L 107.099034 89.736009 
L 108.11358 89.736009 
L 108.11358 105.580954 
L 109.128125 105.580954 
L 109.128125 117.887707 
L 110.14267 117.887707 
L 110.14267 121.887402 
L 111.157216 121.887402 
L 111.157216 127.579275 
L 112.171761 127.579275 
L 112.171761 135.963251 
L 113.186307 135.963251 
L 113.186307 138.809187 
L 114.200852 138.809187 
L 114.200852 148.116169 
L 115.215398 148.116169 
L 115.215398 162.345853 
L 116.229943 162.345853 
L 116.229943 168.422312 
L 117.244489 168.422312 
L 117.244489 173.498848 
L 118.259034 173.498848 
L 118.259034 180.8829 
L 119.27358 180.8829 
L 119.27358 187.036276 
L 120.288125 187.036276 
L 120.288125 192.343564 
L 122.317216 192.420481 
L 122.317216 145.808653 
L 123.331761 145.808653 
L 123.331761 130.732881 
L 124.346307 130.732881 
L 124.346307 109.119145 
L 125.360852 109.119145 
L 125.360852 98.504571 
L 126.375398 98.504571 
L 126.375398 85.351728 
L 127.389943 85.351728 
L 127.389943 86.736238 
L 128.404489 86.736238 
L 128.404489 92.274277 
L 129.419034 92.274277 
L 129.419034 91.351271 
L 130.43358 91.351271 
L 130.43358 95.966303 
L 131.448125 95.966303 
L 131.448125 96.504723 
L 132.46267 96.504723 
L 132.46267 93.428035 
L 133.477216 93.428035 
L 133.477216 92.274277 
L 134.491761 92.274277 
L 134.491761 99.504494 
L 135.506307 99.504494 
L 135.506307 101.504342 
L 136.520852 101.504342 
L 136.520852 100.427501 
L 137.535398 100.427501 
L 137.535398 108.119222 
L 138.549943 108.119222 
L 138.549943 105.657871 
L 139.564489 105.657871 
L 139.564489 110.580572 
L 140.579034 110.580572 
L 140.579034 108.965311 
L 141.59358 108.965311 
L 141.59358 108.734559 
L 142.608125 108.734559 
L 142.608125 106.734712 
L 143.62267 106.734712 
L 143.62267 109.888317 
L 144.637216 109.888317 
L 144.637216 116.887783 
L 145.651761 116.887783 
L 145.651761 119.579886 
L 146.666307 119.579886 
L 146.666307 123.810332 
L 147.680852 123.810332 
L 147.680852 125.041007 
L 148.695398 125.041007 
L 148.695398 120.656726 
L 149.709943 120.656726 
L 149.709943 111.042076 
L 150.724489 111.042076 
L 150.724489 113.272675 
L 151.739034 113.272675 
L 151.739034 123.348829 
L 152.75358 123.348829 
L 152.75358 121.041312 
L 153.768125 121.041312 
L 153.768125 127.656192 
L 154.78267 127.656192 
L 154.78267 131.502053 
L 155.797216 131.502053 
L 155.797216 119.118382 
L 157.826307 119.1953 
L 157.826307 133.732652 
L 159.855398 133.655734 
L 159.855398 132.11739 
L 160.869943 132.11739 
L 160.869943 139.655277 
L 161.884489 139.655277 
L 161.884489 144.270309 
L 162.899034 144.270309 
L 162.899034 147.654666 
L 163.91358 147.654666 
L 163.91358 147.500832 
L 164.928125 147.500832 
L 164.928125 147.193163 
L 165.94267 147.193163 
L 165.94267 147.423915 
L 166.957216 147.423915 
L 166.957216 154.038794 
L 167.971761 154.038794 
L 167.971761 160.346005 
L 168.986307 160.346005 
L 168.986307 165.960961 
L 170.000852 165.960961 
L 170.000852 164.038031 
L 171.015398 164.038031 
L 171.015398 147.423915 
L 172.029943 147.423915 
L 172.029943 148.270004 
L 173.044489 148.270004 
L 173.044489 145.34715 
L 174.059034 145.34715 
L 174.059034 140.039863 
L 175.07358 140.039863 
L 175.07358 138.73227 
L 176.088125 138.73227 
L 176.088125 132.732728 
L 177.10267 132.732728 
L 177.10267 138.347684 
L 178.117216 138.347684 
L 178.117216 136.117085 
L 179.131761 136.117085 
L 179.131761 146.193239 
L 180.146307 146.193239 
L 180.146307 144.347226 
L 181.160852 144.347226 
L 181.160852 152.50045 
L 182.175398 152.50045 
L 182.175398 150.116017 
L 183.189943 150.116017 
L 183.189943 158.807661 
L 184.204489 158.807661 
L 184.204489 157.500069 
L 185.219034 157.500069 
L 185.219034 157.115483 
L 186.23358 157.115483 
L 186.23358 148.808424 
L 187.248125 148.808424 
L 187.248125 158.269241 
L 188.26267 158.269241 
L 188.26267 159.499916 
L 189.277216 159.499916 
L 189.277216 159.11533 
L 190.291761 159.11533 
L 190.291761 161.192095 
L 191.306307 161.192095 
L 191.306307 168.037726 
L 192.320852 168.037726 
L 192.320852 166.191713 
L 193.335398 166.191713 
L 193.335398 160.576757 
L 194.349943 160.576757 
L 194.349943 161.269012 
L 195.364489 161.269012 
L 195.364489 167.11472 
L 196.379034 167.11472 
L 196.379034 168.653064 
L 197.39358 168.653064 
L 197.39358 174.191103 
L 198.408125 174.191103 
L 198.408125 177.037039 
L 199.42267 177.037039 
L 199.42267 172.498924 
L 200.437216 172.498924 
L 200.437216 175.960198 
L 201.451761 175.960198 
L 201.451761 169.191484 
L 202.466307 169.191484 
L 202.466307 173.575765 
L 203.480852 173.575765 
L 203.480852 185.113346 
L 204.495398 185.113346 
L 204.495398 189.036124 
L 205.509943 189.036124 
L 205.509943 184.036505 
L 206.524489 184.036505 
L 206.524489 188.0362 
L 207.539034 188.0362 
L 207.539034 191.420557 
L 208.55358 191.420557 
L 208.55358 194.420328 
L 209.568125 194.420328 
L 209.568125 194.574163 
L 210.58267 194.574163 
L 210.58267 194.420328 
L 211.597216 194.420328 
L 211.597216 194.112659 
L 212.611761 194.112659 
L 212.611761 196.112507 
L 213.626307 196.112507 
L 213.626307 197.266265 
L 214.640852 197.266265 
L 214.640852 193.497322 
L 215.655398 193.497322 
L 215.655398 191.728226 
L 216.669943 191.728226 
L 216.669943 195.804838 
L 217.684489 195.804838 
L 217.684489 188.57462 
L 218.699034 188.57462 
L 218.699034 187.190111 
L 220.728125 187.113193 
L 220.728125 184.344174 
L 221.74267 184.344174 
L 221.74267 184.72876 
L 222.757216 184.72876 
L 222.757216 182.190492 
L 223.771761 182.190492 
L 223.771761 189.266875 
L 224.786307 189.266875 
L 224.786307 190.343716 
L 225.800852 190.343716 
L 225.800852 193.189653 
L 226.815398 193.189653 
L 226.815398 194.497245 
L 227.829943 194.497245 
L 227.829943 197.11243 
L 228.844489 197.11243 
L 228.844489 198.420023 
L 229.859034 198.420023 
L 229.859034 195.035666 
L 230.87358 195.035666 
L 230.87358 197.650851 
L 231.888125 197.650851 
L 231.888125 199.112278 
L 232.90267 199.112278 
L 232.90267 199.88145 
L 233.917216 199.88145 
L 233.917216 200.266036 
L 234.931761 200.266036 
L 234.931761 201.573628 
L 235.946307 201.573628 
L 235.946307 201.419794 
L 236.960852 201.419794 
L 236.960852 200.881374 
L 237.975398 200.881374 
L 237.975398 200.035284 
L 238.989943 200.035284 
L 238.989943 203.958062 
L 240.004489 203.958062 
L 240.004489 205.034903 
L 241.019034 205.034903 
L 241.019034 204.881068 
L 242.03358 204.881068 
L 242.03358 206.573247 
L 243.048125 206.573247 
L 243.048125 208.650011 
L 245.077216 208.573094 
L 245.077216 210.265273 
L 246.091761 210.265273 
L 246.091761 208.496177 
L 247.106307 208.496177 
L 247.106307 210.034521 
L 248.120852 210.034521 
L 248.120852 209.188432 
L 249.135398 209.188432 
L 249.135398 211.188279 
L 250.149943 211.188279 
L 250.149943 212.26512 
L 251.164489 212.26512 
L 251.164489 211.880534 
L 252.179034 211.880534 
L 252.179034 212.26512 
L 253.19358 212.26512 
L 253.19358 212.111286 
L 254.208125 212.111286 
L 254.208125 213.418878 
L 255.22267 213.418878 
L 255.22267 212.034369 
L 256.237216 212.034369 
L 256.237216 213.64963 
L 257.251761 213.64963 
L 257.251761 213.957299 
L 258.266307 213.957299 
L 258.266307 211.342114 
L 259.280852 211.342114 
L 259.280852 208.880763 
L 260.295398 208.880763 
L 260.295398 208.726929 
L 261.309943 208.726929 
L 261.309943 208.034674 
L 262.324489 208.034674 
L 262.324489 207.650088 
L 263.339034 207.650088 
L 263.339034 203.265807 
L 264.35358 203.265807 
L 264.35358 203.650393 
L 265.368125 203.650393 
L 265.368125 207.03475 
L 266.38267 207.03475 
L 266.38267 207.650088 
L 267.397216 207.650088 
L 267.397216 207.188585 
L 268.411761 207.188585 
L 268.411761 206.803998 
L 269.426307 206.803998 
L 269.426307 207.803922 
L 270.440852 207.803922 
L 270.440852 208.650011 
L 271.455398 208.650011 
L 271.455398 209.496101 
L 272.469943 209.496101 
L 272.469943 210.649859 
L 273.484489 210.649859 
L 273.484489 209.419184 
L 274.499034 209.419184 
L 274.499034 210.188356 
L 275.51358 210.188356 
L 275.51358 210.803693 
L 276.528125 210.803693 
L 276.528125 209.80377 
L 277.54267 209.80377 
L 277.54267 213.188127 
L 278.557216 213.188127 
L 278.557216 213.341961 
L 279.571761 213.341961 
L 279.571761 211.188279 
L 280.586307 211.188279 
L 280.586307 211.342114 
L 281.600852 211.342114 
L 281.600852 212.957375 
L 282.615398 212.957375 
L 282.615398 214.264968 
L 283.629943 214.264968 
L 283.629943 213.111209 
L 284.644489 213.111209 
L 284.644489 214.572636 
L 285.659034 214.572636 
L 285.659034 214.18805 
L 286.67358 214.18805 
L 286.67358 213.64963 
L 288.70267 213.64963 
L 288.70267 215.341808 
L 289.717216 215.341808 
L 289.717216 214.803388 
L 290.731761 214.803388 
L 290.731761 215.57256 
L 292.760852 215.649477 
L 292.760852 216.187898 
L 293.775398 216.187898 
L 293.775398 216.726318 
L 295.804489 216.803235 
L 295.804489 217.033987 
L 297.83358 216.95707 
L 297.83358 216.341732 
L 298.848125 216.341732 
L 298.848125 215.57256 
L 300.877216 215.649477 
L 300.877216 213.64963 
L 301.891761 213.64963 
L 301.891761 214.18805 
L 302.906307 214.18805 
L 302.906307 213.265044 
L 303.920852 213.265044 
L 303.920852 210.957528 
L 304.935398 210.957528 
L 304.935398 210.572942 
L 305.949943 210.572942 
L 305.949943 205.265654 
L 306.964489 205.265654 
L 306.964489 201.958214 
L 307.979034 201.958214 
L 307.979034 203.496559 
L 308.99358 203.496559 
L 308.99358 204.342648 
L 310.008125 204.342648 
L 310.008125 203.804227 
L 311.02267 203.804227 
L 311.02267 204.188813 
L 312.037216 204.188813 
L 312.037216 203.72731 
L 313.051761 203.72731 
L 313.051761 203.342724 
L 314.066307 203.342724 
L 314.066307 200.573705 
L 315.080852 200.573705 
L 315.080852 202.496635 
L 316.095398 202.496635 
L 316.095398 205.573323 
L 317.109943 205.573323 
L 317.109943 206.49633 
L 318.124489 206.49633 
L 318.124489 204.957986 
L 319.139034 204.957986 
L 319.139034 206.342495 
L 320.15358 206.342495 
L 320.15358 200.035284 
L 321.168125 200.035284 
L 321.168125 203.650393 
L 322.18267 203.650393 
L 322.18267 208.034674 
L 323.197216 208.034674 
L 323.197216 207.188585 
L 324.211761 207.188585 
L 324.211761 209.419184 
L 325.226307 209.419184 
L 325.226307 208.95768 
L 326.240852 208.95768 
L 326.240852 204.573399 
L 327.255398 204.573399 
L 327.255398 205.804075 
L 328.269943 205.804075 
L 328.269943 211.342114 
L 329.284489 211.342114 
L 329.284489 209.573018 
L 330.299034 209.573018 
L 330.299034 207.957757 
L 331.31358 207.957757 
L 331.31358 206.419412 
L 332.328125 206.419412 
L 332.328125 208.188508 
L 333.34267 208.188508 
L 333.34267 207.957757 
L 334.357216 207.957757 
L 334.357216 209.342266 
L 335.371761 209.342266 
L 335.371761 210.34219 
L 336.386307 210.34219 
L 336.386307 210.034521 
L 337.400852 210.034521 
L 337.400852 211.419031 
L 338.415398 211.419031 
L 338.415398 208.265425 
L 340.444489 208.342343 
L 340.444489 211.265196 
L 341.459034 211.265196 
L 341.459034 211.649783 
L 342.47358 211.649783 
L 342.47358 210.34219 
L 343.488125 210.34219 
L 343.488125 211.7267 
L 344.50267 211.7267 
L 344.50267 212.880458 
L 345.517216 212.880458 
L 345.517216 213.418878 
L 346.531761 213.418878 
L 346.531761 214.341885 
L 347.546307 214.341885 
L 347.546307 214.880305 
L 348.560852 214.880305 
L 348.560852 215.57256 
L 349.575398 215.57256 
L 349.575398 216.572484 
L 350.589943 216.572484 
L 350.589943 217.726242 
L 351.604489 217.726242 
L 351.604489 218.110828 
L 352.619034 218.110828 
L 352.619034 218.88 
L 372.909943 218.88 
L 372.909943 218.88 
" clip-path="url(#pf15e1ed9f6)" style="fill: none; stroke: #1f77b4; stroke-width: 1.5; stroke-linecap: square"/>
   </g>
   <g id="line2d_17">
    <path d="M 68.546307 211.111362 
L 69.560852 211.111362 
L 69.560852 185.882518 
L 70.575398 185.882518 
L 70.575398 158.192324 
L 71.589943 158.192324 
L 71.589943 130.348295 
L 72.604489 130.348295 
L 72.604489 100.658253 
L 73.619034 100.658253 
L 73.619034 89.043754 
L 74.63358 89.043754 
L 74.63358 85.58248 
L 77.677216 85.659397 
L 77.677216 74.814071 
L 78.691761 74.814071 
L 78.691761 68.814529 
L 79.706307 68.814529 
L 79.706307 65.276337 
L 80.720852 65.276337 
L 80.720852 59.353712 
L 81.735398 59.353712 
L 81.735398 53.815673 
L 82.749943 53.815673 
L 82.749943 52.738833 
L 83.764489 52.738833 
L 83.764489 42.89343 
L 84.779034 42.89343 
L 84.779034 46.970042 
L 85.79358 46.970042 
L 85.79358 41.278169 
L 86.808125 41.278169 
L 86.808125 27.509989 
L 87.82267 27.509989 
L 87.82267 25.356307 
L 88.837216 25.356307 
L 88.837216 19.20293 
L 89.851761 19.20293 
L 89.851761 17.741503 
L 90.866307 17.741503 
L 90.866307 20.664357 
L 91.880852 20.664357 
L 91.880852 24.510217 
L 92.895398 24.510217 
L 92.895398 22.971873 
L 93.909943 22.971873 
L 93.909943 18.818344 
L 94.924489 18.818344 
L 94.924489 27.817657 
L 95.939034 27.817657 
L 95.939034 23.279542 
L 96.95358 23.279542 
L 96.95358 30.817428 
L 97.968125 30.817428 
L 97.968125 26.125479 
L 98.98267 26.125479 
L 98.98267 30.432842 
L 99.997216 30.432842 
L 99.997216 36.893888 
L 101.011761 36.893888 
L 101.011761 40.585914 
L 102.026307 40.585914 
L 102.026307 53.35417 
L 103.040852 53.35417 
L 103.040852 60.892056 
L 104.055398 60.892056 
L 104.055398 66.045509 
L 105.069943 66.045509 
L 105.069943 73.044975 
L 106.084489 73.044975 
L 106.084489 88.120748 
L 107.099034 88.120748 
L 107.099034 93.58187 
L 108.11358 93.58187 
L 108.11358 106.888546 
L 109.128125 106.888546 
L 109.128125 116.733949 
L 110.14267 116.733949 
L 110.14267 121.041312 
L 111.157216 121.041312 
L 111.157216 123.194994 
L 112.171761 123.194994 
L 112.171761 134.117238 
L 113.186307 134.117238 
L 113.186307 142.885799 
L 114.200852 142.885799 
L 114.200852 151.96203 
L 115.215398 151.96203 
L 115.215398 155.115635 
L 116.229943 155.115635 
L 116.229943 165.807127 
L 117.244489 165.807127 
L 117.244489 175.575612 
L 118.259034 175.575612 
L 118.259034 178.883052 
L 119.27358 178.883052 
L 119.27358 182.344327 
L 120.288125 182.344327 
L 120.288125 171.422083 
L 121.30267 171.422083 
L 121.30267 156.730897 
L 122.317216 156.730897 
L 122.317216 144.962564 
L 123.331761 144.962564 
L 123.331761 131.502053 
L 124.346307 131.502053 
L 124.346307 120.27214 
L 125.360852 120.27214 
L 125.360852 100.965921 
L 126.375398 100.965921 
L 126.375398 91.351271 
L 127.389943 91.351271 
L 127.389943 92.812697 
L 128.404489 92.812697 
L 128.404489 84.967142 
L 129.419034 84.967142 
L 129.419034 92.274277 
L 130.43358 92.274277 
L 130.43358 95.5048 
L 131.448125 95.5048 
L 131.448125 99.735246 
L 132.46267 99.735246 
L 132.46267 90.735933 
L 133.477216 90.735933 
L 133.477216 94.812545 
L 134.491761 94.812545 
L 134.491761 95.274048 
L 135.506307 95.274048 
L 135.506307 102.273514 
L 136.520852 102.273514 
L 136.520852 100.196749 
L 137.535398 100.196749 
L 137.535398 103.273438 
L 138.549943 103.273438 
L 138.549943 104.657947 
L 139.564489 104.657947 
L 139.564489 109.27298 
L 140.579034 109.27298 
L 140.579034 104.04261 
L 141.59358 104.04261 
L 141.59358 108.042304 
L 142.608125 108.042304 
L 142.608125 112.118916 
L 143.62267 112.118916 
L 143.62267 106.888546 
L 144.637216 106.888546 
L 144.637216 112.888089 
L 145.651761 112.888089 
L 145.651761 126.579351 
L 146.666307 126.579351 
L 146.666307 119.426051 
L 147.680852 119.426051 
L 147.680852 116.657032 
L 148.695398 116.657032 
L 148.695398 122.502739 
L 149.709943 122.502739 
L 149.709943 118.964548 
L 150.724489 118.964548 
L 150.724489 118.34921 
L 151.739034 118.34921 
L 151.739034 125.733262 
L 152.75358 125.733262 
L 152.75358 127.040855 
L 154.78267 127.117772 
L 154.78267 128.194613 
L 155.797216 128.194613 
L 155.797216 127.810027 
L 156.811761 127.810027 
L 156.811761 130.809798 
L 157.826307 130.809798 
L 157.826307 129.040702 
L 158.840852 129.040702 
L 158.840852 130.963632 
L 159.855398 130.963632 
L 159.855398 133.655734 
L 160.869943 133.655734 
L 160.869943 140.11678 
L 161.884489 140.11678 
L 161.884489 142.116627 
L 162.899034 142.116627 
L 162.899034 142.731965 
L 163.91358 142.731965 
L 163.91358 146.654742 
L 164.928125 146.654742 
L 164.928125 144.962564 
L 165.94267 144.962564 
L 165.94267 148.962259 
L 166.957216 148.962259 
L 166.957216 160.730591 
L 167.971761 160.730591 
L 167.971761 158.423075 
L 168.986307 158.423075 
L 168.986307 157.423151 
L 170.000852 157.423151 
L 170.000852 151.96203 
L 171.015398 151.96203 
L 171.015398 148.116169 
L 172.029943 148.116169 
L 172.029943 144.885647 
L 173.044489 144.885647 
L 173.044489 141.808958 
L 174.059034 141.808958 
L 174.059034 142.193544 
L 175.07358 142.193544 
L 175.07358 134.809493 
L 176.088125 134.809493 
L 176.088125 139.501442 
L 177.10267 139.501442 
L 177.10267 135.270996 
L 178.117216 135.270996 
L 178.117216 139.732194 
L 179.131761 139.732194 
L 179.131761 142.808882 
L 180.146307 142.808882 
L 180.146307 148.577673 
L 181.160852 148.577673 
L 181.160852 153.500374 
L 182.175398 153.500374 
L 182.175398 153.346539 
L 183.189943 153.346539 
L 183.189943 156.192476 
L 184.204489 156.192476 
L 184.204489 154.961801 
L 185.219034 154.961801 
L 185.219034 153.346539 
L 186.23358 153.346539 
L 186.23358 155.038718 
L 187.248125 155.038718 
L 187.248125 155.80789 
L 188.26267 155.80789 
L 188.26267 155.346387 
L 189.277216 155.346387 
L 189.277216 160.346005 
L 190.291761 160.346005 
L 190.291761 159.884502 
L 191.306307 159.884502 
L 191.306307 167.11472 
L 192.320852 167.11472 
L 192.320852 167.422388 
L 193.335398 167.422388 
L 193.335398 168.114643 
L 194.349943 168.114643 
L 194.349943 167.65314 
L 195.364489 167.65314 
L 195.364489 166.576299 
L 196.379034 166.576299 
L 196.379034 170.422159 
L 197.39358 170.422159 
L 197.39358 172.575841 
L 198.408125 172.575841 
L 198.408125 171.960504 
L 199.42267 171.960504 
L 199.42267 176.19095 
L 200.437216 176.19095 
L 200.437216 176.344784 
L 201.451761 176.344784 
L 201.451761 175.883281 
L 202.466307 175.883281 
L 202.466307 179.036887 
L 203.480852 179.036887 
L 203.480852 181.42132 
L 204.495398 181.42132 
L 204.495398 183.421167 
L 205.509943 183.421167 
L 205.509943 185.805601 
L 206.524489 185.805601 
L 206.524489 187.190111 
L 207.539034 187.190111 
L 207.539034 188.882289 
L 208.55358 188.882289 
L 208.55358 188.651538 
L 209.568125 188.651538 
L 209.568125 193.728073 
L 210.58267 193.728073 
L 210.58267 190.574468 
L 211.597216 190.574468 
L 211.597216 196.497093 
L 212.611761 196.497093 
L 212.611761 195.958672 
L 213.626307 195.958672 
L 213.626307 194.266494 
L 214.640852 194.266494 
L 214.640852 192.72815 
L 216.669943 192.72815 
L 216.669943 190.420633 
L 217.684489 190.420633 
L 217.684489 187.728531 
L 218.699034 187.728531 
L 218.699034 187.497779 
L 219.71358 187.497779 
L 219.71358 185.26718 
L 220.728125 185.26718 
L 220.728125 190.497551 
L 221.74267 190.497551 
L 221.74267 185.728684 
L 222.757216 185.728684 
L 222.757216 185.497932 
L 223.771761 185.497932 
L 223.771761 188.190034 
L 224.786307 188.190034 
L 224.786307 190.574468 
L 225.800852 190.574468 
L 225.800852 191.497474 
L 226.815398 191.497474 
L 226.815398 192.881984 
L 227.829943 192.881984 
L 227.829943 197.189348 
L 228.844489 197.189348 
L 228.844489 196.804762 
L 229.859034 196.804762 
L 229.859034 197.573934 
L 230.87358 197.573934 
L 230.87358 196.804762 
L 231.888125 196.804762 
L 231.888125 197.881602 
L 232.90267 197.881602 
L 232.90267 198.881526 
L 233.917216 198.881526 
L 233.917216 200.496787 
L 234.931761 200.496787 
L 234.931761 202.804304 
L 235.946307 202.804304 
L 235.946307 201.727463 
L 236.960852 201.727463 
L 236.960852 201.881297 
L 237.975398 201.881297 
L 237.975398 205.804075 
L 238.989943 205.804075 
L 238.989943 202.112049 
L 240.004489 202.112049 
L 240.004489 204.957986 
L 241.019034 204.957986 
L 241.019034 207.188585 
L 242.03358 207.188585 
L 242.03358 206.111744 
L 243.048125 206.111744 
L 243.048125 208.111591 
L 244.06267 208.111591 
L 244.06267 207.573171 
L 245.077216 207.573171 
L 245.077216 207.957757 
L 246.091761 207.957757 
L 246.091761 209.573018 
L 247.106307 209.573018 
L 247.106307 210.111438 
L 248.120852 210.111438 
L 248.120852 208.95768 
L 249.135398 208.95768 
L 249.135398 210.572942 
L 250.149943 210.572942 
L 250.149943 211.034445 
L 251.164489 211.034445 
L 251.164489 211.419031 
L 252.179034 211.419031 
L 252.179034 212.495872 
L 253.19358 212.495872 
L 253.19358 212.726623 
L 254.208125 212.726623 
L 254.208125 212.880458 
L 255.22267 212.880458 
L 255.22267 211.803617 
L 256.237216 211.803617 
L 256.237216 210.88061 
L 257.251761 210.88061 
L 257.251761 211.265196 
L 258.266307 211.265196 
L 258.266307 210.419107 
L 259.280852 210.419107 
L 259.280852 210.188356 
L 260.295398 210.188356 
L 260.295398 208.034674 
L 261.309943 208.034674 
L 261.309943 208.265425 
L 262.324489 208.265425 
L 262.324489 207.419336 
L 264.35358 207.419336 
L 264.35358 203.804227 
L 265.368125 203.804227 
L 265.368125 207.803922 
L 266.38267 207.803922 
L 266.38267 205.727158 
L 267.397216 205.727158 
L 267.397216 206.880916 
L 268.411761 206.880916 
L 268.411761 207.03475 
L 270.440852 206.957833 
L 270.440852 208.034674 
L 271.455398 208.034674 
L 271.455398 209.880687 
L 272.469943 209.880687 
L 272.469943 210.265273 
L 273.484489 210.265273 
L 273.484489 210.572942 
L 274.499034 210.572942 
L 274.499034 210.265273 
L 275.51358 210.265273 
L 275.51358 210.649859 
L 276.528125 210.649859 
L 276.528125 210.188356 
L 277.54267 210.188356 
L 277.54267 211.188279 
L 278.557216 211.188279 
L 278.557216 212.495872 
L 280.586307 212.418955 
L 280.586307 212.649706 
L 282.615398 212.572789 
L 282.615398 213.111209 
L 284.644489 213.111209 
L 284.644489 214.111133 
L 285.659034 214.111133 
L 285.659034 215.111057 
L 286.67358 215.111057 
L 286.67358 214.495719 
L 287.688125 214.495719 
L 287.688125 213.341961 
L 288.70267 213.341961 
L 288.70267 215.03414 
L 289.717216 215.03414 
L 289.717216 215.341808 
L 290.731761 215.341808 
L 290.731761 214.957222 
L 291.746307 214.957222 
L 291.746307 215.649477 
L 292.760852 215.649477 
L 292.760852 216.418649 
L 293.775398 216.418649 
L 293.775398 216.803235 
L 294.789943 216.803235 
L 294.789943 216.264815 
L 295.804489 216.264815 
L 295.804489 216.95707 
L 296.819034 216.95707 
L 296.819034 216.341732 
L 297.83358 216.341732 
L 297.83358 215.957146 
L 298.848125 215.957146 
L 298.848125 215.495643 
L 299.86267 215.495643 
L 299.86267 214.957222 
L 300.877216 214.957222 
L 300.877216 214.418802 
L 301.891761 214.418802 
L 301.891761 211.342114 
L 302.906307 211.342114 
L 302.906307 212.418955 
L 303.920852 212.418955 
L 303.920852 209.419184 
L 304.935398 209.419184 
L 304.935398 207.957757 
L 305.949943 207.957757 
L 305.949943 208.496177 
L 306.964489 208.496177 
L 306.964489 206.650164 
L 307.979034 206.650164 
L 307.979034 205.573323 
L 308.99358 205.573323 
L 308.99358 205.265654 
L 310.008125 205.265654 
L 310.008125 203.650393 
L 311.02267 203.650393 
L 311.02267 203.342724 
L 312.037216 203.342724 
L 312.037216 203.881145 
L 313.051761 203.881145 
L 313.051761 202.035132 
L 314.066307 202.035132 
L 314.066307 203.881145 
L 315.080852 203.881145 
L 315.080852 204.573399 
L 316.095398 204.573399 
L 316.095398 202.419718 
L 317.109943 202.419718 
L 317.109943 202.881221 
L 318.124489 202.881221 
L 318.124489 203.958062 
L 319.139034 203.958062 
L 319.139034 205.419489 
L 320.15358 205.419489 
L 320.15358 204.804151 
L 321.168125 204.804151 
L 321.168125 204.957986 
L 322.18267 204.957986 
L 322.18267 205.265654 
L 323.197216 205.265654 
L 323.197216 207.419336 
L 324.211761 207.419336 
L 324.211761 207.650088 
L 326.240852 207.573171 
L 326.240852 208.95768 
L 327.255398 208.95768 
L 327.255398 208.265425 
L 328.269943 208.265425 
L 328.269943 207.573171 
L 329.284489 207.573171 
L 329.284489 208.111591 
L 330.299034 208.111591 
L 330.299034 207.727005 
L 331.31358 207.727005 
L 331.31358 209.726852 
L 332.328125 209.726852 
L 332.328125 208.034674 
L 333.34267 208.034674 
L 333.34267 207.342419 
L 334.357216 207.342419 
L 334.357216 210.265273 
L 335.371761 210.265273 
L 335.371761 209.419184 
L 336.386307 209.419184 
L 336.386307 208.496177 
L 337.400852 208.496177 
L 337.400852 209.111515 
L 338.415398 209.111515 
L 338.415398 209.573018 
L 339.429943 209.573018 
L 339.429943 210.88061 
L 340.444489 210.88061 
L 340.444489 211.188279 
L 341.459034 211.188279 
L 341.459034 211.957451 
L 342.47358 211.957451 
L 342.47358 210.726776 
L 343.488125 210.726776 
L 343.488125 211.880534 
L 344.50267 211.880534 
L 344.50267 212.034369 
L 345.517216 212.034369 
L 345.517216 213.034292 
L 346.531761 213.034292 
L 346.531761 214.034216 
L 347.546307 214.034216 
L 347.546307 214.726471 
L 348.560852 214.726471 
L 348.560852 216.110981 
L 350.589943 216.034063 
L 350.589943 217.649325 
L 351.604489 217.649325 
L 351.604489 217.880076 
L 352.619034 217.880076 
L 352.619034 218.264662 
L 353.63358 218.264662 
L 353.63358 218.88 
L 372.909943 218.88 
L 372.909943 218.88 
" clip-path="url(#pf15e1ed9f6)" style="fill: none; stroke: #ff7f0e; stroke-width: 1.5; stroke-linecap: square"/>
   </g>
   <g id="patch_3">
    <path d="M 53.328125 228.96 
L 53.328125 7.2 
" style="fill: none; stroke: #000000; stroke-width: 0.8; stroke-linejoin: miter; stroke-linecap: square"/>
   </g>
   <g id="patch_4">
    <path d="M 388.128125 228.96 
L 388.128125 7.2 
" style="fill: none; stroke: #000000; stroke-width: 0.8; stroke-linejoin: miter; stroke-linecap: square"/>
   </g>
   <g id="patch_5">
    <path d="M 53.328125 228.96 
L 388.128125 228.96 
" style="fill: none; stroke: #000000; stroke-width: 0.8; stroke-linejoin: miter; stroke-linecap: square"/>
   </g>
   <g id="patch_6">
    <path d="M 53.328125 7.2 
L 388.128125 7.2 
" style="fill: none; stroke: #000000; stroke-width: 0.8; stroke-linejoin: miter; stroke-linecap: square"/>
   </g>
   <g id="legend_1">
    <g id="patch_7">
     <path d="M 284.125 44.834375 
L 381.128125 44.834375 
Q 383.128125 44.834375 383.128125 42.834375 
L 383.128125 14.2 
Q 383.128125 12.2 381.128125 12.2 
L 284.125 12.2 
Q 282.125 12.2 282.125 14.2 
L 282.125 42.834375 
Q 282.125 44.834375 284.125 44.834375 
z
" style="fill: #ffffff; opacity: 0.8; stroke: #cccccc; stroke-linejoin: miter"/>
    </g>
    <g id="line2d_18">
     <path d="M 286.125 20.298437 
L 286.125 20.298437 
L 296.125 20.298437 
L 296.125 20.298437 
L 306.125 20.298437 
" style="fill: none; stroke: #1f77b4; stroke-width: 1.5; stroke-linecap: square"/>
    </g>
    <g id="text_18">
     <!-- wfm -->
     <g transform="translate(314.125 23.798437) scale(0.1 -0.1)">
      <defs>
       <path id="DejaVuSans-66" d="M 2375 4863 
L 2375 4384 
L 1825 4384 
Q 1516 4384 1395 4259 
Q 1275 4134 1275 3809 
L 1275 3500 
L 2222 3500 
L 2222 3053 
L 1275 3053 
L 1275 0 
L 697 0 
L 697 3053 
L 147 3053 
L 147 3500 
L 697 3500 
L 697 3744 
Q 697 4328 969 4595 
Q 1241 4863 1831 4863 
L 2375 4863 
z
" transform="scale(0.015625)"/>
       <path id="DejaVuSans-6d" d="M 3328 2828 
Q 3544 3216 3844 3400 
Q 4144 3584 4550 3584 
Q 5097 3584 5394 3201 
Q 5691 2819 5691 2113 
L 5691 0 
L 5113 0 
L 5113 2094 
Q 5113 2597 4934 2840 
Q 4756 3084 4391 3084 
Q 3944 3084 3684 2787 
Q 3425 2491 3425 1978 
L 3425 0 
L 2847 0 
L 2847 2094 
Q 2847 2600 2669 2842 
Q 2491 3084 2119 3084 
Q 1678 3084 1418 2786 
Q 1159 2488 1159 1978 
L 1159 0 
L 581 0 
L 581 3500 
L 1159 3500 
L 1159 2956 
Q 1356 3278 1631 3431 
Q 1906 3584 2284 3584 
Q 2666 3584 2933 3390 
Q 3200 3197 3328 2828 
z
" transform="scale(0.015625)"/>
      </defs>
      <use xlink:href="#DejaVuSans-77"/>
      <use xlink:href="#DejaVuSans-66" transform="translate(81.787109 0)"/>
      <use xlink:href="#DejaVuSans-6d" transform="translate(116.992188 0)"/>
     </g>
    </g>
    <g id="line2d_19">
     <path d="M 286.125 34.976562 
L 286.125 34.976562 
L 296.125 34.976562 
L 296.125 34.976562 
L 306.125 34.976562 
" style="fill: none; stroke: #ff7f0e; stroke-width: 1.5; stroke-linecap: square"/>
    </g>
    <g id="text_19">
     <!-- ground_truth -->
     <g transform="translate(314.125 38.476562) scale(0.1 -0.1)">
      <defs>
       <path id="DejaVuSans-72" d="M 2631 2963 
Q 2534 3019 2420 3045 
Q 2306 3072 2169 3072 
Q 1681 3072 1420 2755 
Q 1159 2438 1159 1844 
L 1159 0 
L 581 0 
L 581 3500 
L 1159 3500 
L 1159 2956 
Q 1341 3275 1631 3429 
Q 1922 3584 2338 3584 
Q 2397 3584 2469 3576 
Q 2541 3569 2628 3553 
L 2631 2963 
z
" transform="scale(0.015625)"/>
       <path id="DejaVuSans-64" d="M 2906 2969 
L 2906 4863 
L 3481 4863 
L 3481 0 
L 2906 0 
L 2906 525 
Q 2725 213 2448 61 
Q 2172 -91 1784 -91 
Q 1150 -91 751 415 
Q 353 922 353 1747 
Q 353 2572 751 3078 
Q 1150 3584 1784 3584 
Q 2172 3584 2448 3432 
Q 2725 3281 2906 2969 
z
M 947 1747 
Q 947 1113 1208 752 
Q 1469 391 1925 391 
Q 2381 391 2643 752 
Q 2906 1113 2906 1747 
Q 2906 2381 2643 2742 
Q 2381 3103 1925 3103 
Q 1469 3103 1208 2742 
Q 947 2381 947 1747 
z
" transform="scale(0.015625)"/>
       <path id="DejaVuSans-5f" d="M 3263 -1063 
L 3263 -1509 
L -63 -1509 
L -63 -1063 
L 3263 -1063 
z
" transform="scale(0.015625)"/>
      </defs>
      <use xlink:href="#DejaVuSans-67"/>
      <use xlink:href="#DejaVuSans-72" transform="translate(63.476562 0)"/>
      <use xlink:href="#DejaVuSans-6f" transform="translate(102.339844 0)"/>
      <use xlink:href="#DejaVuSans-75" transform="translate(163.521484 0)"/>
      <use xlink:href="#DejaVuSans-6e" transform="translate(226.900391 0)"/>
      <use xlink:href="#DejaVuSans-64" transform="translate(290.279297 0)"/>
      <use xlink:href="#DejaVuSans-5f" transform="translate(353.755859 0)"/>
      <use xlink:href="#DejaVuSans-74" transform="translate(403.755859 0)"/>
      <use xlink:href="#DejaVuSans-72" transform="translate(442.964844 0)"/>
      <use xlink:href="#DejaVuSans-75" transform="translate(484.078125 0)"/>
      <use xlink:href="#DejaVuSans-74" transform="translate(547.457031 0)"/>
      <use xlink:href="#DejaVuSans-68" transform="translate(586.666016 0)"/>
     </g>
    </g>
   </g>
  </g>
 </g>
 <defs>
  <clipPath id="pf15e1ed9f6">
   <rect x="53.328125" y="7.2" width="334.8" height="221.76"/>
  </clipPath>
 </defs>
</svg>
