<?xml version="1.0" encoding="utf-8" standalone="no"?>
<!DOCTYPE svg PUBLIC "-//W3C//DTD SVG 1.1//EN"
  "http://www.w3.org/Graphics/SVG/1.1/DTD/svg11.dtd">
<svg xmlns:xlink="http://www.w3.org/1999/xlink" width="388.965625pt" height="266.794375pt" viewBox="0 0 388.965625 266.794375" xmlns="http://www.w3.org/2000/svg" version="1.1">
 <metadata>
  <rdf:RDF xmlns:dc="http://purl.org/dc/elements/1.1/" xmlns:cc="http://creativecommons.org/ns#" xmlns:rdf="http://www.w3.org/1999/02/22-rdf-syntax-ns#">
   <cc:Work>
    <dc:type rdf:resource="http://purl.org/dc/dcmitype/StillImage"/>
    <dc:date>2026-06-25T12:55:12.325427</dc:date>
    <dc:format>image/svg+xml</dc:format>
    <dc:creator>
     <cc:Agent>
      <dc:title>Matplotlib v3.10.9, https://matplotlib.org/</dc:title>
     </cc:Agent>
    </dc:creator>
   </cc:Work>
  </rdf:RDF>
 </metadata>
 <defs>
  <style type="text/css">*{stroke-linejoin: round; stroke-linecap: butt}</style>
 </defs>
 <g id="figure_1">
  <g id="patch_1">
   <path d="M 0 266.794375 
L 388.965625 266.794375 
L 388.965625 0 
L 0 0 
z
" style="fill: #ffffff"/>
  </g>
  <g id="axes_1">
   <g id="patch_2">
    <path d="M 46.965625 228.96 
L 381.765625 228.96 
L 381.765625 7.2 
L 46.965625 7.2 
z
" style="fill: #ffffff"/>
   </g>
   <g id="matplotlib.axis_1">
    <g id="xtick_1">
     <g id="line2d_1">
      <defs>
       <path id="mdf5ba67494" d="M 0 0 
L 0 3.5 
" style="stroke: #000000; stroke-width: 0.8"/>
      </defs>
      <g>
       <use xlink:href="#mdf5ba67494" x="62.180351" y="228.96" style="stroke: #000000; stroke-width: 0.8"/>
      </g>
     </g>
     <g id="text_1">
      <!-- 0 -->
      <g transform="translate(58.999101 243.558437) scale(0.1 -0.1)">
       <defs>
        <path id="DejaVuSans-30" d="M 2034 4250 
Q 1547 4250 1301 3770 
Q 1056 3291 1056 2328 
Q 1056 1369 1301 889 
Q 1547 409 2034 409 
Q 2525 409 2770 889 
Q 3016 1369 3016 2328 
Q 3016 3291 2770 3770 
Q 2525 4250 2034 4250 
z
M 2034 4750 
Q 2819 4750 3233 4129 
Q 3647 3509 3647 2328 
Q 3647 1150 3233 529 
Q 2819 -91 2034 -91 
Q 1250 -91 836 529 
Q 422 1150 422 2328 
Q 422 3509 836 4129 
Q 1250 4750 2034 4750 
z
" transform="scale(0.015625)"/>
       </defs>
       <use xlink:href="#DejaVuSans-30"/>
      </g>
     </g>
    </g>
    <g id="xtick_2">
     <g id="line2d_2">
      <g>
       <use xlink:href="#mdf5ba67494" x="104.791807" y="228.96" style="stroke: #000000; stroke-width: 0.8"/>
      </g>
     </g>
     <g id="text_2">
      <!-- 10000 -->
      <g transform="translate(88.885557 243.558437) scale(0.1 -0.1)">
       <defs>
        <path id="DejaVuSans-31" d="M 794 531 
L 1825 531 
L 1825 4091 
L 703 3866 
L 703 4441 
L 1819 4666 
L 2450 4666 
L 2450 531 
L 3481 531 
L 3481 0 
L 794 0 
L 794 531 
z
" transform="scale(0.015625)"/>
       </defs>
       <use xlink:href="#DejaVuSans-31"/>
       <use xlink:href="#DejaVuSans-30" transform="translate(63.623047 0)"/>
       <use xlink:href="#DejaVuSans-30" transform="translate(127.246094 0)"/>
       <use xlink:href="#DejaVuSans-30" transform="translate(190.869141 0)"/>
       <use xlink:href="#DejaVuSans-30" transform="translate(254.492188 0)"/>
      </g>
     </g>
    </g>
    <g id="xtick_3">
     <g id="line2d_3">
      <g>
       <use xlink:href="#mdf5ba67494" x="147.403264" y="228.96" style="stroke: #000000; stroke-width: 0.8"/>
      </g>
     </g>
     <g id="text_3">
      <!-- 20000 -->
      <g transform="translate(131.497014 243.558437) scale(0.1 -0.1)">
       <defs>
        <path id="DejaVuSans-32" d="M 1228 531 
L 3431 531 
L 3431 0 
L 469 0 
L 469 531 
Q 828 903 1448 1529 
Q 2069 2156 2228 2338 
Q 2531 2678 2651 2914 
Q 2772 3150 2772 3378 
Q 2772 3750 2511 3984 
Q 2250 4219 1831 4219 
Q 1534 4219 1204 4116 
Q 875 4013 500 3803 
L 500 4441 
Q 881 4594 1212 4672 
Q 1544 4750 1819 4750 
Q 2544 4750 2975 4387 
Q 3406 4025 3406 3419 
Q 3406 3131 3298 2873 
Q 3191 2616 2906 2266 
Q 2828 2175 2409 1742 
Q 1991 1309 1228 531 
z
" transform="scale(0.015625)"/>
       </defs>
       <use xlink:href="#DejaVuSans-32"/>
       <use xlink:href="#DejaVuSans-30" transform="translate(63.623047 0)"/>
       <use xlink:href="#DejaVuSans-30" transform="translate(127.246094 0)"/>
       <use xlink:href="#DejaVuSans-30" transform="translate(190.869141 0)"/>
       <use xlink:href="#DejaVuSans-30" transform="translate(254.492188 0)"/>
      </g>
     </g>
    </g>
    <g id="xtick_4">
     <g id="line2d_4">
      <g>
       <use xlink:href="#mdf5ba67494" x="190.01472" y="228.96" style="stroke: #000000; stroke-width: 0.8"/>
      </g>
     </g>
     <g id="text_4">
      <!-- 30000 -->
      <g transform="translate(174.10847 243.558437) scale(0.1 -0.1)">
       <defs>
        <path id="DejaVuSans-33" d="M 2597 2516 
Q 3050 2419 3304 2112 
Q 3559 1806 3559 1356 
Q 3559 666 3084 287 
Q 2609 -91 1734 -91 
Q 1441 -91 1130 -33 
Q 819 25 488 141 
L 488 750 
Q 750 597 1062 519 
Q 1375 441 1716 441 
Q 2309 441 2620 675 
Q 2931 909 2931 1356 
Q 2931 1769 2642 2001 
Q 2353 2234 1838 2234 
L 1294 2234 
L 1294 2753 
L 1863 2753 
Q 2328 2753 2575 2939 
Q 2822 3125 2822 3475 
Q 2822 3834 2567 4026 
Q 2313 4219 1838 4219 
Q 1578 4219 1281 4162 
Q 984 4106 628 3988 
L 628 4550 
Q 988 4650 1302 4700 
Q 1616 4750 1894 4750 
Q 2613 4750 3031 4423 
Q 3450 4097 3450 3541 
Q 3450 3153 3228 2886 
Q 3006 2619 2597 2516 
z
" transform="scale(0.015625)"/>
       </defs>
       <use xlink:href="#DejaVuSans-33"/>
       <use xlink:href="#DejaVuSans-30" transform="translate(63.623047 0)"/>
       <use xlink:href="#DejaVuSans-30" transform="translate(127.246094 0)"/>
       <use xlink:href="#DejaVuSans-30" transform="translate(190.869141 0)"/>
       <use xlink:href="#DejaVuSans-30" transform="translate(254.492188 0)"/>
      </g>
     </g>
    </g>
    <g id="xtick_5">
     <g id="line2d_5">
      <g>
       <use xlink:href="#mdf5ba67494" x="232.626177" y="228.96" style="stroke: #000000; stroke-width: 0.8"/>
      </g>
     </g>
     <g id="text_5">
      <!-- 40000 -->
      <g transform="translate(216.719927 243.558437) scale(0.1 -0.1)">
       <defs>
        <path id="DejaVuSans-34" d="M 2419 4116 
L 825 1625 
L 2419 1625 
L 2419 4116 
z
M 2253 4666 
L 3047 4666 
L 3047 1625 
L 3713 1625 
L 3713 1100 
L 3047 1100 
L 3047 0 
L 2419 0 
L 2419 1100 
L 313 1100 
L 313 1709 
L 2253 4666 
z
" transform="scale(0.015625)"/>
       </defs>
       <use xlink:href="#DejaVuSans-34"/>
       <use xlink:href="#DejaVuSans-30" transform="translate(63.623047 0)"/>
       <use xlink:href="#DejaVuSans-30" transform="translate(127.246094 0)"/>
       <use xlink:href="#DejaVuSans-30" transform="translate(190.869141 0)"/>
       <use xlink:href="#DejaVuSans-30" transform="translate(254.492188 0)"/>
      </g>
     </g>
    </g>
    <g id="xtick_6">
     <g id="line2d_6">
      <g>
       <use xlink:href="#mdf5ba67494" x="275.237634" y="228.96" style="stroke: #000000; stroke-width: 0.8"/>
      </g>
     </g>
     <g id="text_6">
      <!-- 50000 -->
      <g transform="translate(259.331384 243.558437) scale(0.1 -0.1)">
       <defs>
        <path id="DejaVuSans-35" d="M 691 4666 
L 3169 4666 
L 3169 4134 
L 1269 4134 
L 1269 2991 
Q 1406 3038 1543 3061 
Q 1681 3084 1819 3084 
Q 2600 3084 3056 2656 
Q 3513 2228 3513 1497 
Q 3513 744 3044 326 
Q 2575 -91 1722 -91 
Q 1428 -91 1123 -41 
Q 819 9 494 109 
L 494 744 
Q 775 591 1075 516 
Q 1375 441 1709 441 
Q 2250 441 2565 725 
Q 2881 1009 2881 1497 
Q 2881 1984 2565 2268 
Q 2250 2553 1709 2553 
Q 1456 2553 1204 2497 
Q 953 2441 691 2322 
L 691 4666 
z
" transform="scale(0.015625)"/>
       </defs>
       <use xlink:href="#DejaVuSans-35"/>
       <use xlink:href="#DejaVuSans-30" transform="translate(63.623047 0)"/>
       <use xlink:href="#DejaVuSans-30" transform="translate(127.246094 0)"/>
       <use xlink:href="#DejaVuSans-30" transform="translate(190.869141 0)"/>
       <use xlink:href="#DejaVuSans-30" transform="translate(254.492188 0)"/>
      </g>
     </g>
    </g>
    <g id="xtick_7">
     <g id="line2d_7">
      <g>
       <use xlink:href="#mdf5ba67494" x="317.84909" y="228.96" style="stroke: #000000; stroke-width: 0.8"/>
      </g>
     </g>
     <g id="text_7">
      <!-- 60000 -->
      <g transform="translate(301.94284 243.558437) scale(0.1 -0.1)">
       <defs>
        <path id="DejaVuSans-36" d="M 2113 2584 
Q 1688 2584 1439 2293 
Q 1191 2003 1191 1497 
Q 1191 994 1439 701 
Q 1688 409 2113 409 
Q 2538 409 2786 701 
Q 3034 994 3034 1497 
Q 3034 2003 2786 2293 
Q 2538 2584 2113 2584 
z
M 3366 4563 
L 3366 3988 
Q 3128 4100 2886 4159 
Q 2644 4219 2406 4219 
Q 1781 4219 1451 3797 
Q 1122 3375 1075 2522 
Q 1259 2794 1537 2939 
Q 1816 3084 2150 3084 
Q 2853 3084 3261 2657 
Q 3669 2231 3669 1497 
Q 3669 778 3244 343 
Q 2819 -91 2113 -91 
Q 1303 -91 875 529 
Q 447 1150 447 2328 
Q 447 3434 972 4092 
Q 1497 4750 2381 4750 
Q 2619 4750 2861 4703 
Q 3103 4656 3366 4563 
z
" transform="scale(0.015625)"/>
       </defs>
       <use xlink:href="#DejaVuSans-36"/>
       <use xlink:href="#DejaVuSans-30" transform="translate(63.623047 0)"/>
       <use xlink:href="#DejaVuSans-30" transform="translate(127.246094 0)"/>
       <use xlink:href="#DejaVuSans-30" transform="translate(190.869141 0)"/>
       <use xlink:href="#DejaVuSans-30" transform="translate(254.492188 0)"/>
      </g>
     </g>
    </g>
    <g id="xtick_8">
     <g id="line2d_8">
      <g>
       <use xlink:href="#mdf5ba67494" x="360.460547" y="228.96" style="stroke: #000000; stroke-width: 0.8"/>
      </g>
     </g>
     <g id="text_8">
      <!-- 70000 -->
      <g transform="translate(344.554297 243.558437) scale(0.1 -0.1)">
       <defs>
        <path id="DejaVuSans-37" d="M 525 4666 
L 3525 4666 
L 3525 4397 
L 1831 0 
L 1172 0 
L 2766 4134 
L 525 4134 
L 525 4666 
z
" transform="scale(0.015625)"/>
       </defs>
       <use xlink:href="#DejaVuSans-37"/>
       <use xlink:href="#DejaVuSans-30" transform="translate(63.623047 0)"/>
       <use xlink:href="#DejaVuSans-30" transform="translate(127.246094 0)"/>
       <use xlink:href="#DejaVuSans-30" transform="translate(190.869141 0)"/>
       <use xlink:href="#DejaVuSans-30" transform="translate(254.492188 0)"/>
      </g>
     </g>
    </g>
    <g id="text_9">
     <!-- event_time_offset [µs] -->
     <g transform="translate(158.330469 257.236562) scale(0.1 -0.1)">
      <defs>
       <path id="DejaVuSans-65" d="M 3597 1894 
L 3597 1613 
L 953 1613 
Q 991 1019 1311 708 
Q 1631 397 2203 397 
Q 2534 397 2845 478 
Q 3156 559 3463 722 
L 3463 178 
Q 3153 47 2828 -22 
Q 2503 -91 2169 -91 
Q 1331 -91 842 396 
Q 353 884 353 1716 
Q 353 2575 817 3079 
Q 1281 3584 2069 3584 
Q 2775 3584 3186 3129 
Q 3597 2675 3597 1894 
z
M 3022 2063 
Q 3016 2534 2758 2815 
Q 2500 3097 2075 3097 
Q 1594 3097 1305 2825 
Q 1016 2553 972 2059 
L 3022 2063 
z
" transform="scale(0.015625)"/>
       <path id="DejaVuSans-76" d="M 191 3500 
L 800 3500 
L 1894 563 
L 2988 3500 
L 3597 3500 
L 2284 0 
L 1503 0 
L 191 3500 
z
" transform="scale(0.015625)"/>
       <path id="DejaVuSans-6e" d="M 3513 2113 
L 3513 0 
L 2938 0 
L 2938 2094 
Q 2938 2591 2744 2837 
Q 2550 3084 2163 3084 
Q 1697 3084 1428 2787 
Q 1159 2491 1159 1978 
L 1159 0 
L 581 0 
L 581 3500 
L 1159 3500 
L 1159 2956 
Q 1366 3272 1645 3428 
Q 1925 3584 2291 3584 
Q 2894 3584 3203 3211 
Q 3513 2838 3513 2113 
z
" transform="scale(0.015625)"/>
       <path id="DejaVuSans-74" d="M 1172 4494 
L 1172 3500 
L 2356 3500 
L 2356 3053 
L 1172 3053 
L 1172 1153 
Q 1172 725 1289 603 
Q 1406 481 1766 481 
L 2356 481 
L 2356 0 
L 1766 0 
Q 1100 0 847 248 
Q 594 497 594 1153 
L 594 3053 
L 172 3053 
L 172 3500 
L 594 3500 
L 594 4494 
L 1172 4494 
z
" transform="scale(0.015625)"/>
       <path id="DejaVuSans-5f" d="M 3263 -1063 
L 3263 -1509 
L -63 -1509 
L -63 -1063 
L 3263 -1063 
z
" transform="scale(0.015625)"/>
       <path id="DejaVuSans-69" d="M 603 3500 
L 1178 3500 
L 1178 0 
L 603 0 
L 603 3500 
z
M 603 4863 
L 1178 4863 
L 1178 4134 
L 603 4134 
L 603 4863 
z
" transform="scale(0.015625)"/>
       <path id="DejaVuSans-6d" d="M 3328 2828 
Q 3544 3216 3844 3400 
Q 4144 3584 4550 3584 
Q 5097 3584 5394 3201 
Q 5691 2819 5691 2113 
L 5691 0 
L 5113 0 
L 5113 2094 
Q 5113 2597 4934 2840 
Q 4756 3084 4391 3084 
Q 3944 3084 3684 2787 
Q 3425 2491 3425 1978 
L 3425 0 
L 2847 0 
L 2847 2094 
Q 2847 2600 2669 2842 
Q 2491 3084 2119 3084 
Q 1678 3084 1418 2786 
Q 1159 2488 1159 1978 
L 1159 0 
L 581 0 
L 581 3500 
L 1159 3500 
L 1159 2956 
Q 1356 3278 1631 3431 
Q 1906 3584 2284 3584 
Q 2666 3584 2933 3390 
Q 3200 3197 3328 2828 
z
" transform="scale(0.015625)"/>
       <path id="DejaVuSans-6f" d="M 1959 3097 
Q 1497 3097 1228 2736 
Q 959 2375 959 1747 
Q 959 1119 1226 758 
Q 1494 397 1959 397 
Q 2419 397 2687 759 
Q 2956 1122 2956 1747 
Q 2956 2369 2687 2733 
Q 2419 3097 1959 3097 
z
M 1959 3584 
Q 2709 3584 3137 3096 
Q 3566 2609 3566 1747 
Q 3566 888 3137 398 
Q 2709 -91 1959 -91 
Q 1206 -91 779 398 
Q 353 888 353 1747 
Q 353 2609 779 3096 
Q 1206 3584 1959 3584 
z
" transform="scale(0.015625)"/>
       <path id="DejaVuSans-66" d="M 2375 4863 
L 2375 4384 
L 1825 4384 
Q 1516 4384 1395 4259 
Q 1275 4134 1275 3809 
L 1275 3500 
L 2222 3500 
L 2222 3053 
L 1275 3053 
L 1275 0 
L 697 0 
L 697 3053 
L 147 3053 
L 147 3500 
L 697 3500 
L 697 3744 
Q 697 4328 969 4595 
Q 1241 4863 1831 4863 
L 2375 4863 
z
" transform="scale(0.015625)"/>
       <path id="DejaVuSans-73" d="M 2834 3397 
L 2834 2853 
Q 2591 2978 2328 3040 
Q 2066 3103 1784 3103 
Q 1356 3103 1142 2972 
Q 928 2841 928 2578 
Q 928 2378 1081 2264 
Q 1234 2150 1697 2047 
L 1894 2003 
Q 2506 1872 2764 1633 
Q 3022 1394 3022 966 
Q 3022 478 2636 193 
Q 2250 -91 1575 -91 
Q 1294 -91 989 -36 
Q 684 19 347 128 
L 347 722 
Q 666 556 975 473 
Q 1284 391 1588 391 
Q 1994 391 2212 530 
Q 2431 669 2431 922 
Q 2431 1156 2273 1281 
Q 2116 1406 1581 1522 
L 1381 1569 
Q 847 1681 609 1914 
Q 372 2147 372 2553 
Q 372 3047 722 3315 
Q 1072 3584 1716 3584 
Q 2034 3584 2315 3537 
Q 2597 3491 2834 3397 
z
" transform="scale(0.015625)"/>
       <path id="DejaVuSans-20" transform="scale(0.015625)"/>
       <path id="DejaVuSans-5b" d="M 550 4863 
L 1875 4863 
L 1875 4416 
L 1125 4416 
L 1125 -397 
L 1875 -397 
L 1875 -844 
L 550 -844 
L 550 4863 
z
" transform="scale(0.015625)"/>
       <path id="DejaVuSans-b5" d="M 544 -1331 
L 544 3500 
L 1119 3500 
L 1119 1325 
Q 1119 872 1334 640 
Q 1550 409 1972 409 
Q 2434 409 2667 671 
Q 2900 934 2900 1459 
L 2900 3500 
L 3475 3500 
L 3475 806 
Q 3475 619 3529 530 
Q 3584 441 3700 441 
Q 3728 441 3778 458 
Q 3828 475 3916 513 
L 3916 50 
Q 3788 -22 3673 -56 
Q 3559 -91 3450 -91 
Q 3234 -91 3106 31 
Q 2978 153 2931 403 
Q 2775 156 2548 32 
Q 2322 -91 2016 -91 
Q 1697 -91 1473 31 
Q 1250 153 1119 397 
L 1119 -1331 
L 544 -1331 
z
" transform="scale(0.015625)"/>
       <path id="DejaVuSans-5d" d="M 1947 4863 
L 1947 -844 
L 622 -844 
L 622 -397 
L 1369 -397 
L 1369 4416 
L 622 4416 
L 622 4863 
L 1947 4863 
z
" transform="scale(0.015625)"/>
      </defs>
      <use xlink:href="#DejaVuSans-65"/>
      <use xlink:href="#DejaVuSans-76" transform="translate(61.523438 0)"/>
      <use xlink:href="#DejaVuSans-65" transform="translate(120.703125 0)"/>
      <use xlink:href="#DejaVuSans-6e" transform="translate(182.226562 0)"/>
      <use xlink:href="#DejaVuSans-74" transform="translate(245.605469 0)"/>
      <use xlink:href="#DejaVuSans-5f" transform="translate(284.814453 0)"/>
      <use xlink:href="#DejaVuSans-74" transform="translate(334.814453 0)"/>
      <use xlink:href="#DejaVuSans-69" transform="translate(374.023438 0)"/>
      <use xlink:href="#DejaVuSans-6d" transform="translate(401.806641 0)"/>
      <use xlink:href="#DejaVuSans-65" transform="translate(499.21875 0)"/>
      <use xlink:href="#DejaVuSans-5f" transform="translate(560.742188 0)"/>
      <use xlink:href="#DejaVuSans-6f" transform="translate(610.742188 0)"/>
      <use xlink:href="#DejaVuSans-66" transform="translate(671.923828 0)"/>
      <use xlink:href="#DejaVuSans-66" transform="translate(707.128906 0)"/>
      <use xlink:href="#DejaVuSans-73" transform="translate(742.333984 0)"/>
      <use xlink:href="#DejaVuSans-65" transform="translate(794.433594 0)"/>
      <use xlink:href="#DejaVuSans-74" transform="translate(855.957031 0)"/>
      <use xlink:href="#DejaVuSans-20" transform="translate(895.166016 0)"/>
      <use xlink:href="#DejaVuSans-5b" transform="translate(926.953125 0)"/>
      <use xlink:href="#DejaVuSans-b5" transform="translate(965.966797 0)"/>
      <use xlink:href="#DejaVuSans-73" transform="translate(1029.589844 0)"/>
      <use xlink:href="#DejaVuSans-5d" transform="translate(1081.689453 0)"/>
     </g>
    </g>
   </g>
   <g id="matplotlib.axis_2">
    <g id="ytick_1">
     <g id="line2d_9">
      <defs>
       <path id="mbf6ea4adba" d="M 0 0 
L -3.5 0 
" style="stroke: #000000; stroke-width: 0.8"/>
      </defs>
      <g>
       <use xlink:href="#mbf6ea4adba" x="46.965625" y="218.88" style="stroke: #000000; stroke-width: 0.8"/>
      </g>
     </g>
     <g id="text_10">
      <!-- 0 -->
      <g transform="translate(33.603125 222.679219) scale(0.1 -0.1)">
       <use xlink:href="#DejaVuSans-30"/>
      </g>
     </g>
    </g>
    <g id="ytick_2">
     <g id="line2d_10">
      <g>
       <use xlink:href="#mbf6ea4adba" x="46.965625" y="184.240825" style="stroke: #000000; stroke-width: 0.8"/>
      </g>
     </g>
     <g id="text_11">
      <!-- 100 -->
      <g transform="translate(20.878125 188.040043) scale(0.1 -0.1)">
       <use xlink:href="#DejaVuSans-31"/>
       <use xlink:href="#DejaVuSans-30" transform="translate(63.623047 0)"/>
       <use xlink:href="#DejaVuSans-30" transform="translate(127.246094 0)"/>
      </g>
     </g>
    </g>
    <g id="ytick_3">
     <g id="line2d_11">
      <g>
       <use xlink:href="#mbf6ea4adba" x="46.965625" y="149.601649" style="stroke: #000000; stroke-width: 0.8"/>
      </g>
     </g>
     <g id="text_12">
      <!-- 200 -->
      <g transform="translate(20.878125 153.400868) scale(0.1 -0.1)">
       <use xlink:href="#DejaVuSans-32"/>
       <use xlink:href="#DejaVuSans-30" transform="translate(63.623047 0)"/>
       <use xlink:href="#DejaVuSans-30" transform="translate(127.246094 0)"/>
      </g>
     </g>
    </g>
    <g id="ytick_4">
     <g id="line2d_12">
      <g>
       <use xlink:href="#mbf6ea4adba" x="46.965625" y="114.962474" style="stroke: #000000; stroke-width: 0.8"/>
      </g>
     </g>
     <g id="text_13">
      <!-- 300 -->
      <g transform="translate(20.878125 118.761693) scale(0.1 -0.1)">
       <use xlink:href="#DejaVuSans-33"/>
       <use xlink:href="#DejaVuSans-30" transform="translate(63.623047 0)"/>
       <use xlink:href="#DejaVuSans-30" transform="translate(127.246094 0)"/>
      </g>
     </g>
    </g>
    <g id="ytick_5">
     <g id="line2d_13">
      <g>
       <use xlink:href="#mbf6ea4adba" x="46.965625" y="80.323299" style="stroke: #000000; stroke-width: 0.8"/>
      </g>
     </g>
     <g id="text_14">
      <!-- 400 -->
      <g transform="translate(20.878125 84.122518) scale(0.1 -0.1)">
       <use xlink:href="#DejaVuSans-34"/>
       <use xlink:href="#DejaVuSans-30" transform="translate(63.623047 0)"/>
       <use xlink:href="#DejaVuSans-30" transform="translate(127.246094 0)"/>
      </g>
     </g>
    </g>
    <g id="ytick_6">
     <g id="line2d_14">
      <g>
       <use xlink:href="#mbf6ea4adba" x="46.965625" y="45.684124" style="stroke: #000000; stroke-width: 0.8"/>
      </g>
     </g>
     <g id="text_15">
      <!-- 500 -->
      <g transform="translate(20.878125 49.483342) scale(0.1 -0.1)">
       <use xlink:href="#DejaVuSans-35"/>
       <use xlink:href="#DejaVuSans-30" transform="translate(63.623047 0)"/>
       <use xlink:href="#DejaVuSans-30" transform="translate(127.246094 0)"/>
      </g>
     </g>
    </g>
    <g id="ytick_7">
     <g id="line2d_15">
      <g>
       <use xlink:href="#mbf6ea4adba" x="46.965625" y="11.044948" style="stroke: #000000; stroke-width: 0.8"/>
      </g>
     </g>
     <g id="text_16">
      <!-- 600 -->
      <g transform="translate(20.878125 14.844167) scale(0.1 -0.1)">
       <use xlink:href="#DejaVuSans-36"/>
       <use xlink:href="#DejaVuSans-30" transform="translate(63.623047 0)"/>
       <use xlink:href="#DejaVuSans-30" transform="translate(127.246094 0)"/>
      </g>
     </g>
    </g>
    <g id="text_17">
     <!-- [counts] -->
     <g transform="translate(14.798438 138.6925) rotate(-90) scale(0.1 -0.1)">
      <defs>
       <path id="DejaVuSans-63" d="M 3122 3366 
L 3122 2828 
Q 2878 2963 2633 3030 
Q 2388 3097 2138 3097 
Q 1578 3097 1268 2742 
Q 959 2388 959 1747 
Q 959 1106 1268 751 
Q 1578 397 2138 397 
Q 2388 397 2633 464 
Q 2878 531 3122 666 
L 3122 134 
Q 2881 22 2623 -34 
Q 2366 -91 2075 -91 
Q 1284 -91 818 406 
Q 353 903 353 1747 
Q 353 2603 823 3093 
Q 1294 3584 2113 3584 
Q 2378 3584 2631 3529 
Q 2884 3475 3122 3366 
z
" transform="scale(0.015625)"/>
       <path id="DejaVuSans-75" d="M 544 1381 
L 544 3500 
L 1119 3500 
L 1119 1403 
Q 1119 906 1312 657 
Q 1506 409 1894 409 
Q 2359 409 2629 706 
Q 2900 1003 2900 1516 
L 2900 3500 
L 3475 3500 
L 3475 0 
L 2900 0 
L 2900 538 
Q 2691 219 2414 64 
Q 2138 -91 1772 -91 
Q 1169 -91 856 284 
Q 544 659 544 1381 
z
M 1991 3584 
L 1991 3584 
z
" transform="scale(0.015625)"/>
      </defs>
      <use xlink:href="#DejaVuSans-5b"/>
      <use xlink:href="#DejaVuSans-63" transform="translate(39.013672 0)"/>
      <use xlink:href="#DejaVuSans-6f" transform="translate(93.994141 0)"/>
      <use xlink:href="#DejaVuSans-75" transform="translate(155.175781 0)"/>
      <use xlink:href="#DejaVuSans-6e" transform="translate(218.554688 0)"/>
      <use xlink:href="#DejaVuSans-74" transform="translate(281.933594 0)"/>
      <use xlink:href="#DejaVuSans-73" transform="translate(321.142578 0)"/>
      <use xlink:href="#DejaVuSans-5d" transform="translate(373.242188 0)"/>
     </g>
    </g>
   </g>
   <g id="line2d_16">
    <path d="M 62.183807 121.197526 
L 63.198352 121.197526 
L 63.198352 130.896495 
L 64.212898 130.896495 
L 64.212898 132.628454 
L 65.227443 132.628454 
L 65.227443 132.282062 
L 66.241989 132.282062 
L 66.241989 139.556289 
L 67.256534 139.556289 
L 67.256534 131.242887 
L 68.27108 131.242887 
L 68.27108 133.667629 
L 69.285625 133.667629 
L 69.285625 130.203711 
L 70.30017 130.203711 
L 70.30017 126.04701 
L 71.314716 126.04701 
L 71.314716 130.203711 
L 72.329261 130.203711 
L 72.329261 137.82433 
L 73.343807 137.82433 
L 73.343807 144.752165 
L 74.358352 144.752165 
L 74.358352 141.981031 
L 75.372898 141.981031 
L 75.372898 144.405773 
L 76.387443 144.405773 
L 76.387443 152.026392 
L 77.401989 152.026392 
L 77.401989 143.71299 
L 78.416534 143.71299 
L 78.416534 138.863505 
L 79.43108 138.863505 
L 79.43108 150.987216 
L 80.445625 150.987216 
L 80.445625 142.327423 
L 81.46017 142.327423 
L 81.46017 139.90268 
L 82.474716 139.90268 
L 82.474716 150.294433 
L 83.489261 150.294433 
L 83.489261 143.71299 
L 84.503807 143.71299 
L 84.503807 150.294433 
L 85.518352 150.294433 
L 85.518352 144.752165 
L 86.532898 144.752165 
L 86.532898 148.216082 
L 87.547443 148.216082 
L 87.547443 155.490309 
L 88.561989 155.490309 
L 88.561989 158.607835 
L 89.576534 158.607835 
L 89.576534 155.143918 
L 90.59108 155.143918 
L 90.59108 155.490309 
L 91.605625 155.490309 
L 91.605625 156.529485 
L 92.62017 156.529485 
L 92.62017 161.032577 
L 93.634716 161.032577 
L 93.634716 166.574845 
L 94.649261 166.574845 
L 94.649261 163.803711 
L 95.663807 163.803711 
L 95.663807 172.463505 
L 96.678352 172.463505 
L 96.678352 167.960412 
L 97.692898 167.960412 
L 97.692898 168.653196 
L 98.707443 168.653196 
L 98.707443 171.770722 
L 99.721989 171.770722 
L 99.721989 168.999588 
L 100.736534 168.999588 
L 100.736534 178.005773 
L 101.75108 178.005773 
L 101.75108 179.737732 
L 102.765625 179.737732 
L 102.765625 183.894433 
L 103.78017 183.894433 
L 103.78017 181.469691 
L 104.794716 181.469691 
L 104.794716 179.737732 
L 105.809261 179.737732 
L 105.809261 187.011959 
L 106.823807 187.011959 
L 106.823807 183.201649 
L 108.852898 183.201649 
L 108.852898 188.397526 
L 109.867443 188.397526 
L 109.867443 193.939794 
L 110.881989 193.939794 
L 110.881989 186.665567 
L 111.896534 186.665567 
L 111.896534 188.743918 
L 112.91108 188.743918 
L 112.91108 191.515052 
L 113.925625 191.515052 
L 113.925625 199.828454 
L 114.94017 199.828454 
L 114.94017 200.867629 
L 115.954716 200.867629 
L 115.954716 198.096495 
L 116.969261 198.096495 
L 116.969261 202.945979 
L 117.983807 202.945979 
L 117.983807 203.292371 
L 118.998352 203.292371 
L 118.998352 203.985155 
L 120.012898 203.985155 
L 120.012898 206.409897 
L 121.027443 206.409897 
L 121.027443 207.449072 
L 122.041989 207.449072 
L 122.041989 209.527423 
L 123.056534 209.527423 
L 123.056534 208.834639 
L 124.07108 208.834639 
L 124.07108 209.873814 
L 125.085625 209.873814 
L 125.085625 211.605773 
L 126.10017 211.605773 
L 126.10017 213.684124 
L 127.114716 213.684124 
L 127.114716 212.644948 
L 128.129261 212.644948 
L 128.129261 216.108866 
L 129.143807 216.108866 
L 129.143807 216.801649 
L 130.158352 216.801649 
L 130.158352 216.108866 
L 131.172898 216.108866 
L 131.172898 217.494433 
L 132.187443 217.494433 
L 132.187443 217.840825 
L 134.216534 217.840825 
L 134.216534 218.533608 
L 137.26017 218.533608 
L 137.26017 218.88 
L 149.434716 218.88 
L 149.434716 216.108866 
L 150.449261 216.108866 
L 150.449261 209.181031 
L 151.463807 209.181031 
L 151.463807 205.717113 
L 152.478352 205.717113 
L 152.478352 202.253196 
L 153.492898 202.253196 
L 153.492898 194.286186 
L 154.507443 194.286186 
L 154.507443 190.475876 
L 155.521989 190.475876 
L 155.521989 184.240825 
L 156.536534 184.240825 
L 156.536534 177.659381 
L 158.565625 177.659381 
L 158.565625 166.921237 
L 159.58017 166.921237 
L 159.58017 162.071753 
L 160.594716 162.071753 
L 160.594716 160.686186 
L 161.609261 160.686186 
L 161.609261 149.601649 
L 162.623807 149.601649 
L 162.623807 143.366598 
L 163.638352 143.366598 
L 163.638352 139.556289 
L 164.652898 139.556289 
L 164.652898 125.007835 
L 165.667443 125.007835 
L 165.667443 127.432577 
L 166.681989 127.432577 
L 166.681989 128.471753 
L 167.696534 128.471753 
L 167.696534 123.96866 
L 168.71108 123.96866 
L 168.71108 121.543918 
L 169.725625 121.543918 
L 169.725625 105.956289 
L 170.74017 105.956289 
L 170.74017 114.269691 
L 171.754716 114.269691 
L 171.754716 103.185155 
L 172.769261 103.185155 
L 172.769261 100.414021 
L 173.783807 100.414021 
L 173.783807 85.519175 
L 174.798352 85.519175 
L 174.798352 94.178969 
L 175.812898 94.178969 
L 175.812898 83.094433 
L 176.827443 83.094433 
L 176.827443 86.558351 
L 177.841989 86.558351 
L 177.841989 67.506804 
L 178.856534 67.506804 
L 178.856534 83.094433 
L 179.87108 83.094433 
L 179.87108 66.121237 
L 180.885625 66.121237 
L 180.885625 72.009897 
L 181.90017 72.009897 
L 181.90017 55.383093 
L 182.914716 55.383093 
L 182.914716 58.500619 
L 183.929261 58.500619 
L 183.929261 57.807835 
L 184.943807 57.807835 
L 184.943807 55.383093 
L 185.958352 55.383093 
L 185.958352 51.919175 
L 186.972898 51.919175 
L 186.972898 32.867629 
L 187.987443 32.867629 
L 187.987443 56.075876 
L 189.001989 56.075876 
L 189.001989 46.376907 
L 190.016534 46.376907 
L 190.016534 45.684124 
L 191.03108 45.684124 
L 191.03108 28.018144 
L 192.045625 28.018144 
L 192.045625 36.331546 
L 193.06017 36.331546 
L 193.06017 46.030515 
L 194.074716 46.030515 
L 194.074716 17.28 
L 195.089261 17.28 
L 195.089261 41.527423 
L 196.103807 41.527423 
L 196.103807 31.828454 
L 197.118352 31.828454 
L 197.118352 39.795464 
L 198.132898 39.795464 
L 198.132898 38.756289 
L 199.147443 38.756289 
L 199.147443 58.84701 
L 200.161989 58.84701 
L 200.161989 46.723299 
L 201.176534 46.723299 
L 201.176534 38.756289 
L 202.19108 38.756289 
L 202.19108 59.886186 
L 203.205625 59.886186 
L 203.205625 48.108866 
L 204.22017 48.108866 
L 204.22017 47.762474 
L 205.234716 47.762474 
L 205.234716 54.343918 
L 206.249261 54.343918 
L 206.249261 55.729485 
L 207.263807 55.729485 
L 207.263807 42.566598 
L 208.278352 42.566598 
L 208.278352 54.343918 
L 209.292898 54.343918 
L 209.292898 71.663505 
L 210.307443 71.663505 
L 210.307443 66.467629 
L 211.321989 66.467629 
L 211.321989 69.238763 
L 212.336534 69.238763 
L 212.336534 68.545979 
L 213.35108 68.545979 
L 213.35108 61.964536 
L 214.365625 61.964536 
L 214.365625 59.539794 
L 215.38017 59.539794 
L 215.38017 69.931546 
L 216.394716 69.931546 
L 216.394716 61.271753 
L 217.409261 61.271753 
L 217.409261 48.455258 
L 218.423807 48.455258 
L 218.423807 87.251134 
L 219.438352 87.251134 
L 219.438352 84.133608 
L 220.452898 84.133608 
L 220.452898 83.440825 
L 221.467443 83.440825 
L 221.467443 76.166598 
L 222.481989 76.166598 
L 222.481989 77.552165 
L 223.496534 77.552165 
L 223.496534 71.663505 
L 224.51108 71.663505 
L 224.51108 77.205773 
L 225.525625 77.205773 
L 225.525625 75.820206 
L 226.54017 75.820206 
L 226.54017 78.244948 
L 227.554716 78.244948 
L 227.554716 83.440825 
L 228.569261 83.440825 
L 228.569261 85.865567 
L 229.583807 85.865567 
L 229.583807 75.127423 
L 230.598352 75.127423 
L 230.598352 87.943918 
L 231.612898 87.943918 
L 231.612898 82.748041 
L 232.627443 82.748041 
L 232.627443 90.715052 
L 233.641989 90.715052 
L 233.641989 83.440825 
L 234.656534 83.440825 
L 234.656534 98.33567 
L 235.67108 98.33567 
L 235.67108 77.552165 
L 236.685625 77.552165 
L 236.685625 87.597526 
L 237.70017 87.597526 
L 237.70017 78.59134 
L 238.714716 78.59134 
L 238.714716 91.061443 
L 239.729261 91.061443 
L 239.729261 82.055258 
L 240.743807 82.055258 
L 240.743807 92.44701 
L 241.758352 92.44701 
L 241.758352 76.859381 
L 242.772898 76.859381 
L 242.772898 77.552165 
L 243.787443 77.552165 
L 243.787443 92.100619 
L 244.801989 92.100619 
L 244.801989 77.898557 
L 245.816534 77.898557 
L 245.816534 96.25732 
L 246.83108 96.25732 
L 246.83108 91.754227 
L 247.845625 91.754227 
L 247.845625 82.401649 
L 248.86017 82.401649 
L 248.86017 97.296495 
L 249.874716 97.296495 
L 249.874716 82.748041 
L 250.889261 82.748041 
L 250.889261 82.055258 
L 251.903807 82.055258 
L 251.903807 90.36866 
L 252.918352 90.36866 
L 252.918352 93.832577 
L 253.932898 93.832577 
L 253.932898 111.498557 
L 254.947443 111.498557 
L 254.947443 107.341856 
L 255.961989 107.341856 
L 255.961989 116.694433 
L 256.976534 116.694433 
L 256.976534 111.152165 
L 257.99108 111.152165 
L 257.99108 117.387216 
L 259.005625 117.387216 
L 259.005625 118.772784 
L 260.02017 118.772784 
L 260.02017 120.851134 
L 261.034716 120.851134 
L 261.034716 133.667629 
L 262.049261 133.667629 
L 262.049261 127.086186 
L 263.063807 127.086186 
L 263.063807 122.236701 
L 264.078352 122.236701 
L 264.078352 137.82433 
L 265.092898 137.82433 
L 265.092898 138.517113 
L 266.107443 138.517113 
L 266.107443 152.719175 
L 267.121989 152.719175 
L 267.121989 154.451134 
L 268.136534 154.451134 
L 268.136534 153.065567 
L 269.15108 153.065567 
L 269.15108 147.869691 
L 270.165625 147.869691 
L 270.165625 159.64701 
L 271.18017 159.64701 
L 271.18017 164.150103 
L 272.194716 164.150103 
L 272.194716 169.345979 
L 273.209261 169.345979 
L 273.209261 178.005773 
L 274.223807 178.005773 
L 274.223807 176.966598 
L 275.238352 176.966598 
L 275.238352 189.090309 
L 276.252898 189.090309 
L 276.252898 190.822268 
L 277.267443 190.822268 
L 277.267443 194.632577 
L 278.281989 194.632577 
L 278.281989 196.364536 
L 279.296534 196.364536 
L 279.296534 200.174845 
L 280.31108 200.174845 
L 280.31108 203.292371 
L 281.325625 203.292371 
L 281.325625 208.488247 
L 282.34017 208.488247 
L 282.34017 209.527423 
L 283.354716 209.527423 
L 283.354716 211.259381 
L 284.369261 211.259381 
L 284.369261 213.337732 
L 285.383807 213.337732 
L 285.383807 217.840825 
L 287.412898 217.840825 
L 287.412898 218.187216 
L 288.427443 218.187216 
L 288.427443 218.88 
L 298.572898 218.88 
L 298.572898 215.416082 
L 299.587443 215.416082 
L 299.587443 209.527423 
L 300.601989 209.527423 
L 300.601989 208.141856 
L 301.616534 208.141856 
L 301.616534 200.174845 
L 302.63108 200.174845 
L 302.63108 199.13567 
L 303.645625 199.13567 
L 303.645625 193.593402 
L 304.66017 193.593402 
L 304.66017 190.129485 
L 305.674716 190.129485 
L 305.674716 187.358351 
L 306.689261 187.358351 
L 306.689261 181.816082 
L 307.703807 181.816082 
L 307.703807 180.084124 
L 308.718352 180.084124 
L 308.718352 178.352165 
L 309.732898 178.352165 
L 309.732898 168.999588 
L 310.747443 168.999588 
L 310.747443 168.306804 
L 311.761989 168.306804 
L 311.761989 163.45732 
L 312.776534 163.45732 
L 312.776534 156.529485 
L 313.79108 156.529485 
L 313.79108 159.64701 
L 314.805625 159.64701 
L 314.805625 160.339794 
L 315.82017 160.339794 
L 315.82017 154.451134 
L 316.834716 154.451134 
L 316.834716 153.065567 
L 317.849261 153.065567 
L 317.849261 149.601649 
L 318.863807 149.601649 
L 318.863807 141.634639 
L 319.878352 141.634639 
L 319.878352 138.863505 
L 320.892898 138.863505 
L 320.892898 150.987216 
L 321.907443 150.987216 
L 321.907443 138.863505 
L 322.921989 138.863505 
L 322.921989 138.517113 
L 323.936534 138.517113 
L 323.936534 130.550103 
L 324.95108 130.550103 
L 324.95108 130.203711 
L 325.965625 130.203711 
L 325.965625 135.399588 
L 326.98017 135.399588 
L 326.98017 122.236701 
L 327.994716 122.236701 
L 327.994716 111.844948 
L 329.009261 111.844948 
L 329.009261 121.543918 
L 330.023807 121.543918 
L 330.023807 97.642887 
L 331.038352 97.642887 
L 331.038352 119.465567 
L 332.052898 119.465567 
L 332.052898 111.498557 
L 333.067443 111.498557 
L 333.067443 113.923299 
L 334.081989 113.923299 
L 334.081989 102.492371 
L 335.096534 102.492371 
L 335.096534 99.721237 
L 336.11108 99.721237 
L 336.11108 112.884124 
L 337.125625 112.884124 
L 337.125625 108.727423 
L 338.14017 108.727423 
L 338.14017 106.995464 
L 339.154716 106.995464 
L 339.154716 103.185155 
L 340.169261 103.185155 
L 340.169261 98.33567 
L 341.183807 98.33567 
L 341.183807 106.30268 
L 342.198352 106.30268 
L 342.198352 91.407835 
L 343.212898 91.407835 
L 343.212898 95.564536 
L 344.227443 95.564536 
L 344.227443 108.381031 
L 345.241989 108.381031 
L 345.241989 99.721237 
L 346.256534 99.721237 
L 346.256534 107.341856 
L 347.27108 107.341856 
L 347.27108 110.805773 
L 348.285625 110.805773 
L 348.285625 101.799588 
L 349.30017 101.799588 
L 349.30017 115.308866 
L 350.314716 115.308866 
L 350.314716 110.805773 
L 351.329261 110.805773 
L 351.329261 121.890309 
L 352.343807 121.890309 
L 352.343807 124.315052 
L 353.358352 124.315052 
L 353.358352 105.263505 
L 354.372898 105.263505 
L 354.372898 110.805773 
L 355.387443 110.805773 
L 355.387443 120.158351 
L 356.401989 120.158351 
L 356.401989 115.655258 
L 357.416534 115.655258 
L 357.416534 103.185155 
L 358.43108 103.185155 
L 358.43108 120.158351 
L 359.445625 120.158351 
L 359.445625 135.745979 
L 360.46017 135.745979 
L 360.46017 113.230515 
L 361.474716 113.230515 
L 361.474716 123.275876 
L 362.489261 123.275876 
L 362.489261 122.236701 
L 363.503807 122.236701 
L 363.503807 118.426392 
L 364.518352 118.426392 
L 364.518352 134.706804 
L 365.532898 134.706804 
L 365.532898 123.275876 
L 366.547443 123.275876 
L 366.547443 123.275876 
" clip-path="url(#p6cd7872e1f)" style="fill: none; stroke: #1f77b4; stroke-width: 1.5; stroke-linecap: square"/>
   </g>
   <g id="line2d_17">
    <path d="M 62.183807 131.242887 
L 63.198352 131.242887 
L 63.198352 133.321237 
L 64.212898 133.321237 
L 64.212898 119.465567 
L 65.227443 119.465567 
L 65.227443 133.321237 
L 66.241989 133.321237 
L 66.241989 143.020206 
L 67.256534 143.020206 
L 67.256534 135.399588 
L 68.27108 135.399588 
L 68.27108 146.830515 
L 69.285625 146.830515 
L 69.285625 147.869691 
L 70.30017 147.869691 
L 70.30017 142.673814 
L 71.314716 142.673814 
L 71.314716 136.785155 
L 72.329261 136.785155 
L 72.329261 147.869691 
L 73.343807 147.869691 
L 73.343807 142.673814 
L 74.358352 142.673814 
L 74.358352 141.634639 
L 76.387443 141.634639 
L 76.387443 144.752165 
L 77.401989 144.752165 
L 77.401989 147.176907 
L 78.416534 147.176907 
L 78.416534 144.752165 
L 79.43108 144.752165 
L 79.43108 146.830515 
L 80.445625 146.830515 
L 80.445625 152.026392 
L 81.46017 152.026392 
L 81.46017 156.875876 
L 82.474716 156.875876 
L 82.474716 154.104742 
L 83.489261 154.104742 
L 83.489261 155.490309 
L 84.503807 155.490309 
L 84.503807 154.797526 
L 85.518352 154.797526 
L 85.518352 159.993402 
L 86.532898 159.993402 
L 86.532898 165.53567 
L 87.547443 165.53567 
L 87.547443 161.725361 
L 88.561989 161.725361 
L 88.561989 168.306804 
L 89.576534 168.306804 
L 89.576534 167.960412 
L 90.59108 167.960412 
L 90.59108 173.849072 
L 91.605625 173.849072 
L 91.605625 166.228454 
L 92.62017 166.228454 
L 92.62017 171.42433 
L 93.634716 171.42433 
L 93.634716 178.005773 
L 94.649261 178.005773 
L 94.649261 180.084124 
L 95.663807 180.084124 
L 95.663807 182.508866 
L 96.678352 182.508866 
L 96.678352 178.005773 
L 97.692898 178.005773 
L 97.692898 182.508866 
L 98.707443 182.508866 
L 98.707443 183.548041 
L 99.721989 183.548041 
L 99.721989 182.508866 
L 100.736534 182.508866 
L 100.736534 183.548041 
L 101.75108 183.548041 
L 101.75108 191.861443 
L 102.765625 191.861443 
L 102.765625 191.515052 
L 103.78017 191.515052 
L 103.78017 185.626392 
L 104.794716 185.626392 
L 104.794716 190.475876 
L 105.809261 190.475876 
L 105.809261 195.671753 
L 106.823807 195.671753 
L 106.823807 199.13567 
L 107.838352 199.13567 
L 107.838352 198.096495 
L 108.852898 198.096495 
L 108.852898 199.482062 
L 109.867443 199.482062 
L 109.867443 205.370722 
L 110.881989 205.370722 
L 110.881989 202.253196 
L 111.896534 202.253196 
L 111.896534 203.638763 
L 112.91108 203.638763 
L 112.91108 208.141856 
L 113.925625 208.141856 
L 113.925625 208.834639 
L 114.94017 208.834639 
L 114.94017 208.488247 
L 115.954716 208.488247 
L 115.954716 208.834639 
L 116.969261 208.834639 
L 116.969261 211.952165 
L 117.983807 211.952165 
L 117.983807 212.644948 
L 118.998352 212.644948 
L 118.998352 213.337732 
L 120.012898 213.337732 
L 120.012898 215.416082 
L 121.027443 215.416082 
L 121.027443 217.148041 
L 122.041989 217.148041 
L 122.041989 216.108866 
L 123.056534 216.108866 
L 123.056534 217.148041 
L 124.07108 217.148041 
L 124.07108 217.840825 
L 126.10017 217.840825 
L 126.10017 218.533608 
L 129.143807 218.533608 
L 129.143807 218.88 
L 147.405625 218.88 
L 147.405625 217.494433 
L 148.42017 217.494433 
L 148.42017 212.298557 
L 149.434716 212.298557 
L 149.434716 204.677938 
L 150.449261 204.677938 
L 150.449261 205.02433 
L 151.463807 205.02433 
L 151.463807 194.286186 
L 152.478352 194.286186 
L 152.478352 191.861443 
L 153.492898 191.861443 
L 153.492898 186.319175 
L 154.507443 186.319175 
L 154.507443 174.888247 
L 155.521989 174.888247 
L 155.521989 176.966598 
L 156.536534 176.966598 
L 156.536534 170.038763 
L 157.55108 170.038763 
L 157.55108 160.339794 
L 158.565625 160.339794 
L 158.565625 159.64701 
L 159.58017 159.64701 
L 159.58017 148.562474 
L 160.594716 148.562474 
L 160.594716 140.941856 
L 161.609261 140.941856 
L 161.609261 138.517113 
L 162.623807 138.517113 
L 162.623807 124.661443 
L 163.638352 124.661443 
L 163.638352 125.354227 
L 164.652898 125.354227 
L 164.652898 126.04701 
L 165.667443 126.04701 
L 165.667443 119.465567 
L 166.681989 119.465567 
L 166.681989 119.119175 
L 167.696534 119.119175 
L 167.696534 105.609897 
L 168.71108 105.609897 
L 168.71108 110.11299 
L 169.725625 110.11299 
L 169.725625 101.106804 
L 170.74017 101.106804 
L 170.74017 92.793402 
L 171.754716 92.793402 
L 171.754716 85.865567 
L 172.769261 85.865567 
L 172.769261 89.675876 
L 173.783807 89.675876 
L 173.783807 77.205773 
L 174.798352 77.205773 
L 174.798352 83.440825 
L 175.812898 83.440825 
L 175.812898 60.578969 
L 176.827443 60.578969 
L 176.827443 76.51299 
L 177.841989 76.51299 
L 177.841989 67.160412 
L 178.856534 67.160412 
L 178.856534 57.807835 
L 179.87108 57.807835 
L 179.87108 51.226392 
L 180.885625 51.226392 
L 180.885625 58.500619 
L 181.90017 58.500619 
L 181.90017 56.075876 
L 182.914716 56.075876 
L 182.914716 39.10268 
L 183.929261 39.10268 
L 183.929261 42.566598 
L 184.943807 42.566598 
L 184.943807 42.220206 
L 185.958352 42.220206 
L 185.958352 43.952165 
L 186.972898 43.952165 
L 186.972898 43.605773 
L 187.987443 43.605773 
L 187.987443 31.828454 
L 189.001989 31.828454 
L 189.001989 34.253196 
L 191.03108 34.253196 
L 191.03108 23.515052 
L 192.045625 23.515052 
L 192.045625 24.900619 
L 193.06017 24.900619 
L 193.06017 31.482062 
L 194.074716 31.482062 
L 194.074716 32.867629 
L 195.089261 32.867629 
L 195.089261 34.945979 
L 196.103807 34.945979 
L 196.103807 51.226392 
L 197.118352 51.226392 
L 197.118352 43.605773 
L 198.132898 43.605773 
L 198.132898 40.488247 
L 199.147443 40.488247 
L 199.147443 53.304742 
L 200.161989 53.304742 
L 200.161989 39.795464 
L 201.176534 39.795464 
L 201.176534 44.644948 
L 202.19108 44.644948 
L 202.19108 50.533608 
L 203.205625 50.533608 
L 203.205625 53.651134 
L 204.22017 53.651134 
L 204.22017 36.331546 
L 205.234716 36.331546 
L 205.234716 51.919175 
L 206.249261 51.919175 
L 206.249261 65.774845 
L 207.263807 65.774845 
L 207.263807 62.65732 
L 208.278352 62.65732 
L 208.278352 64.042887 
L 209.292898 64.042887 
L 209.292898 69.585155 
L 210.307443 69.585155 
L 210.307443 56.075876 
L 211.321989 56.075876 
L 211.321989 55.729485 
L 212.336534 55.729485 
L 212.336534 65.082062 
L 213.35108 65.082062 
L 213.35108 50.187216 
L 214.365625 50.187216 
L 214.365625 60.232577 
L 215.38017 60.232577 
L 215.38017 81.016082 
L 216.394716 81.016082 
L 216.394716 82.401649 
L 217.409261 82.401649 
L 217.409261 70.277938 
L 218.423807 70.277938 
L 218.423807 73.741856 
L 219.438352 73.741856 
L 219.438352 76.859381 
L 220.452898 76.859381 
L 220.452898 75.820206 
L 221.467443 75.820206 
L 221.467443 66.121237 
L 222.481989 66.121237 
L 222.481989 71.317113 
L 223.496534 71.317113 
L 223.496534 82.748041 
L 224.51108 82.748041 
L 224.51108 83.440825 
L 225.525625 83.440825 
L 225.525625 70.277938 
L 226.54017 70.277938 
L 226.54017 81.362474 
L 227.554716 81.362474 
L 227.554716 86.211959 
L 228.569261 86.211959 
L 228.569261 78.244948 
L 229.583807 78.244948 
L 229.583807 89.675876 
L 230.598352 89.675876 
L 230.598352 83.094433 
L 231.612898 83.094433 
L 231.612898 90.715052 
L 232.627443 90.715052 
L 232.627443 68.545979 
L 233.641989 68.545979 
L 233.641989 82.055258 
L 234.656534 82.055258 
L 234.656534 86.211959 
L 235.67108 86.211959 
L 235.67108 83.094433 
L 236.685625 83.094433 
L 236.685625 85.172784 
L 237.70017 85.172784 
L 237.70017 79.630515 
L 238.714716 79.630515 
L 238.714716 74.434639 
L 239.729261 74.434639 
L 239.729261 90.36866 
L 240.743807 90.36866 
L 240.743807 69.585155 
L 241.758352 69.585155 
L 241.758352 94.525361 
L 242.772898 94.525361 
L 242.772898 90.715052 
L 243.787443 90.715052 
L 243.787443 76.859381 
L 244.801989 76.859381 
L 244.801989 93.486186 
L 245.816534 93.486186 
L 245.816534 82.401649 
L 246.83108 82.401649 
L 246.83108 77.205773 
L 247.845625 77.205773 
L 247.845625 85.865567 
L 248.86017 85.865567 
L 248.86017 91.407835 
L 249.874716 91.407835 
L 249.874716 109.420206 
L 250.889261 109.420206 
L 250.889261 104.570722 
L 251.903807 104.570722 
L 251.903807 112.537732 
L 252.918352 112.537732 
L 252.918352 107.688247 
L 253.932898 107.688247 
L 253.932898 117.040825 
L 254.947443 117.040825 
L 254.947443 116.694433 
L 255.961989 116.694433 
L 255.961989 122.583093 
L 256.976534 122.583093 
L 256.976534 132.628454 
L 257.99108 132.628454 
L 257.99108 119.119175 
L 259.005625 119.119175 
L 259.005625 124.315052 
L 260.02017 124.315052 
L 260.02017 139.209897 
L 261.034716 139.209897 
L 261.034716 140.941856 
L 262.049261 140.941856 
L 262.049261 152.719175 
L 263.063807 152.719175 
L 263.063807 155.836701 
L 264.078352 155.836701 
L 264.078352 140.249072 
L 265.092898 140.249072 
L 265.092898 155.143918 
L 266.107443 155.143918 
L 266.107443 159.993402 
L 267.121989 159.993402 
L 267.121989 163.45732 
L 268.136534 163.45732 
L 268.136534 170.038763 
L 269.15108 170.038763 
L 269.15108 182.162474 
L 270.165625 182.162474 
L 270.165625 180.430515 
L 271.18017 180.430515 
L 271.18017 189.090309 
L 272.194716 189.090309 
L 272.194716 192.554227 
L 273.209261 192.554227 
L 273.209261 195.671753 
L 274.223807 195.671753 
L 274.223807 196.364536 
L 275.238352 196.364536 
L 275.238352 203.638763 
L 276.252898 203.638763 
L 276.252898 206.409897 
L 277.267443 206.409897 
L 277.267443 208.141856 
L 278.281989 208.141856 
L 278.281989 210.566598 
L 279.296534 210.566598 
L 279.296534 212.99134 
L 280.31108 212.99134 
L 280.31108 217.148041 
L 281.325625 217.148041 
L 281.325625 217.840825 
L 282.34017 217.840825 
L 282.34017 218.187216 
L 283.354716 218.187216 
L 283.354716 218.88 
L 293.50017 218.88 
L 293.50017 216.801649 
L 294.514716 216.801649 
L 294.514716 210.566598 
L 295.529261 210.566598 
L 295.529261 207.10268 
L 296.543807 207.10268 
L 296.543807 200.867629 
L 297.558352 200.867629 
L 297.558352 198.789278 
L 298.572898 198.789278 
L 298.572898 193.24701 
L 299.587443 193.24701 
L 299.587443 190.475876 
L 300.601989 190.475876 
L 300.601989 188.051134 
L 301.616534 188.051134 
L 301.616534 180.430515 
L 302.63108 180.430515 
L 302.63108 178.698557 
L 303.645625 178.698557 
L 303.645625 175.927423 
L 304.66017 175.927423 
L 304.66017 169.345979 
L 305.674716 169.345979 
L 305.674716 165.882062 
L 306.689261 165.882062 
L 306.689261 165.53567 
L 307.703807 165.53567 
L 307.703807 148.908866 
L 308.718352 148.908866 
L 308.718352 162.071753 
L 309.732898 162.071753 
L 309.732898 157.56866 
L 310.747443 157.56866 
L 310.747443 152.372784 
L 311.761989 152.372784 
L 311.761989 147.523299 
L 313.79108 147.523299 
L 313.79108 140.595464 
L 314.805625 140.595464 
L 314.805625 146.484124 
L 315.82017 146.484124 
L 315.82017 138.517113 
L 316.834716 138.517113 
L 316.834716 139.209897 
L 317.849261 139.209897 
L 317.849261 128.471753 
L 318.863807 128.471753 
L 318.863807 130.203711 
L 319.878352 130.203711 
L 319.878352 129.164536 
L 320.892898 129.164536 
L 320.892898 135.053196 
L 321.907443 135.053196 
L 321.907443 111.844948 
L 322.921989 111.844948 
L 322.921989 116.694433 
L 323.936534 116.694433 
L 323.936534 101.106804 
L 324.95108 101.106804 
L 324.95108 101.799588 
L 325.965625 101.799588 
L 325.965625 115.308866 
L 326.98017 115.308866 
L 326.98017 112.884124 
L 327.994716 112.884124 
L 327.994716 106.30268 
L 329.009261 106.30268 
L 329.009261 94.178969 
L 330.023807 94.178969 
L 330.023807 108.727423 
L 331.038352 108.727423 
L 331.038352 111.152165 
L 332.052898 111.152165 
L 332.052898 96.950103 
L 333.067443 96.950103 
L 333.067443 102.838763 
L 334.081989 102.838763 
L 334.081989 93.832577 
L 335.096534 93.832577 
L 335.096534 103.877938 
L 336.11108 103.877938 
L 336.11108 94.871753 
L 337.125625 94.871753 
L 337.125625 88.290309 
L 338.14017 88.290309 
L 338.14017 107.688247 
L 339.154716 107.688247 
L 339.154716 96.25732 
L 340.169261 96.25732 
L 340.169261 100.414021 
L 341.183807 100.414021 
L 341.183807 110.11299 
L 342.198352 110.11299 
L 342.198352 99.028454 
L 343.212898 99.028454 
L 343.212898 113.576907 
L 344.227443 113.576907 
L 344.227443 108.381031 
L 345.241989 108.381031 
L 345.241989 120.504742 
L 346.256534 120.504742 
L 346.256534 120.851134 
L 347.27108 120.851134 
L 347.27108 103.531546 
L 348.285625 103.531546 
L 348.285625 107.688247 
L 349.30017 107.688247 
L 349.30017 120.504742 
L 350.314716 120.504742 
L 350.314716 105.956289 
L 351.329261 105.956289 
L 351.329261 109.073814 
L 352.343807 109.073814 
L 352.343807 116.001649 
L 353.358352 116.001649 
L 353.358352 130.203711 
L 354.372898 130.203711 
L 354.372898 112.19134 
L 355.387443 112.19134 
L 355.387443 120.851134 
L 356.401989 120.851134 
L 356.401989 114.269691 
L 357.416534 114.269691 
L 357.416534 124.661443 
L 358.43108 124.661443 
L 358.43108 132.628454 
L 359.445625 132.628454 
L 359.445625 121.543918 
L 360.46017 121.543918 
L 360.46017 120.504742 
L 361.474716 120.504742 
L 361.474716 132.974845 
L 362.489261 132.974845 
L 362.489261 124.315052 
L 363.503807 124.315052 
L 363.503807 141.288247 
L 364.518352 141.288247 
L 364.518352 119.811959 
L 365.532898 119.811959 
L 365.532898 134.014021 
L 366.547443 134.014021 
L 366.547443 134.014021 
" clip-path="url(#p6cd7872e1f)" style="fill: none; stroke: #ff7f0e; stroke-width: 1.5; stroke-linecap: square"/>
   </g>
   <g id="patch_3">
    <path d="M 46.965625 228.96 
L 46.965625 7.2 
" style="fill: none; stroke: #000000; stroke-width: 0.8; stroke-linejoin: miter; stroke-linecap: square"/>
   </g>
   <g id="patch_4">
    <path d="M 381.765625 228.96 
L 381.765625 7.2 
" style="fill: none; stroke: #000000; stroke-width: 0.8; stroke-linejoin: miter; stroke-linecap: square"/>
   </g>
   <g id="patch_5">
    <path d="M 46.965625 228.96 
L 381.765625 228.96 
" style="fill: none; stroke: #000000; stroke-width: 0.8; stroke-linejoin: miter; stroke-linecap: square"/>
   </g>
   <g id="patch_6">
    <path d="M 46.965625 7.2 
L 381.765625 7.2 
" style="fill: none; stroke: #000000; stroke-width: 0.8; stroke-linejoin: miter; stroke-linecap: square"/>
   </g>
   <g id="legend_1">
    <g id="patch_7">
     <path d="M 246.957813 45.1125 
L 374.765625 45.1125 
Q 376.765625 45.1125 376.765625 43.1125 
L 376.765625 14.2 
Q 376.765625 12.2 374.765625 12.2 
L 246.957813 12.2 
Q 244.957813 12.2 244.957813 14.2 
L 244.957813 43.1125 
Q 244.957813 45.1125 246.957813 45.1125 
z
" style="fill: #ffffff; opacity: 0.8; stroke: #cccccc; stroke-linejoin: miter"/>
    </g>
    <g id="line2d_18">
     <path d="M 248.957813 20.298437 
L 248.957813 20.298437 
L 258.957813 20.298437 
L 258.957813 20.298437 
L 268.957813 20.298437 
" style="fill: none; stroke: #1f77b4; stroke-width: 1.5; stroke-linecap: square"/>
    </g>
    <g id="text_18">
     <!-- detector_number:0 -->
     <g transform="translate(276.957813 23.798437) scale(0.1 -0.1)">
      <defs>
       <path id="DejaVuSans-64" d="M 2906 2969 
L 2906 4863 
L 3481 4863 
L 3481 0 
L 2906 0 
L 2906 525 
Q 2725 213 2448 61 
Q 2172 -91 1784 -91 
Q 1150 -91 751 415 
Q 353 922 353 1747 
Q 353 2572 751 3078 
Q 1150 3584 1784 3584 
Q 2172 3584 2448 3432 
Q 2725 3281 2906 2969 
z
M 947 1747 
Q 947 1113 1208 752 
Q 1469 391 1925 391 
Q 2381 391 2643 752 
Q 2906 1113 2906 1747 
Q 2906 2381 2643 2742 
Q 2381 3103 1925 3103 
Q 1469 3103 1208 2742 
Q 947 2381 947 1747 
z
" transform="scale(0.015625)"/>
       <path id="DejaVuSans-72" d="M 2631 2963 
Q 2534 3019 2420 3045 
Q 2306 3072 2169 3072 
Q 1681 3072 1420 2755 
Q 1159 2438 1159 1844 
L 1159 0 
L 581 0 
L 581 3500 
L 1159 3500 
L 1159 2956 
Q 1341 3275 1631 3429 
Q 1922 3584 2338 3584 
Q 2397 3584 2469 3576 
Q 2541 3569 2628 3553 
L 2631 2963 
z
" transform="scale(0.015625)"/>
       <path id="DejaVuSans-62" d="M 3116 1747 
Q 3116 2381 2855 2742 
Q 2594 3103 2138 3103 
Q 1681 3103 1420 2742 
Q 1159 2381 1159 1747 
Q 1159 1113 1420 752 
Q 1681 391 2138 391 
Q 2594 391 2855 752 
Q 3116 1113 3116 1747 
z
M 1159 2969 
Q 1341 3281 1617 3432 
Q 1894 3584 2278 3584 
Q 2916 3584 3314 3078 
Q 3713 2572 3713 1747 
Q 3713 922 3314 415 
Q 2916 -91 2278 -91 
Q 1894 -91 1617 61 
Q 1341 213 1159 525 
L 1159 0 
L 581 0 
L 581 4863 
L 1159 4863 
L 1159 2969 
z
" transform="scale(0.015625)"/>
       <path id="DejaVuSans-3a" d="M 750 794 
L 1409 794 
L 1409 0 
L 750 0 
L 750 794 
z
M 750 3309 
L 1409 3309 
L 1409 2516 
L 750 2516 
L 750 3309 
z
" transform="scale(0.015625)"/>
      </defs>
      <use xlink:href="#DejaVuSans-64"/>
      <use xlink:href="#DejaVuSans-65" transform="translate(63.476562 0)"/>
      <use xlink:href="#DejaVuSans-74" transform="translate(125 0)"/>
      <use xlink:href="#DejaVuSans-65" transform="translate(164.208984 0)"/>
      <use xlink:href="#DejaVuSans-63" transform="translate(225.732422 0)"/>
      <use xlink:href="#DejaVuSans-74" transform="translate(280.712891 0)"/>
      <use xlink:href="#DejaVuSans-6f" transform="translate(319.921875 0)"/>
      <use xlink:href="#DejaVuSans-72" transform="translate(381.103516 0)"/>
      <use xlink:href="#DejaVuSans-5f" transform="translate(422.216797 0)"/>
      <use xlink:href="#DejaVuSans-6e" transform="translate(472.216797 0)"/>
      <use xlink:href="#DejaVuSans-75" transform="translate(535.595703 0)"/>
      <use xlink:href="#DejaVuSans-6d" transform="translate(598.974609 0)"/>
      <use xlink:href="#DejaVuSans-62" transform="translate(696.386719 0)"/>
      <use xlink:href="#DejaVuSans-65" transform="translate(759.863281 0)"/>
      <use xlink:href="#DejaVuSans-72" transform="translate(821.386719 0)"/>
      <use xlink:href="#DejaVuSans-3a" transform="translate(860.75 0)"/>
      <use xlink:href="#DejaVuSans-30" transform="translate(894.441406 0)"/>
     </g>
    </g>
    <g id="line2d_19">
     <path d="M 248.957813 35.254687 
L 248.957813 35.254687 
L 258.957813 35.254687 
L 258.957813 35.254687 
L 268.957813 35.254687 
" style="fill: none; stroke: #ff7f0e; stroke-width: 1.5; stroke-linecap: square"/>
    </g>
    <g id="text_19">
     <!-- detector_number:1 -->
     <g transform="translate(276.957813 38.754687) scale(0.1 -0.1)">
      <use xlink:href="#DejaVuSans-64"/>
      <use xlink:href="#DejaVuSans-65" transform="translate(63.476562 0)"/>
      <use xlink:href="#DejaVuSans-74" transform="translate(125 0)"/>
      <use xlink:href="#DejaVuSans-65" transform="translate(164.208984 0)"/>
      <use xlink:href="#DejaVuSans-63" transform="translate(225.732422 0)"/>
      <use xlink:href="#DejaVuSans-74" transform="translate(280.712891 0)"/>
      <use xlink:href="#DejaVuSans-6f" transform="translate(319.921875 0)"/>
      <use xlink:href="#DejaVuSans-72" transform="translate(381.103516 0)"/>
      <use xlink:href="#DejaVuSans-5f" transform="translate(422.216797 0)"/>
      <use xlink:href="#DejaVuSans-6e" transform="translate(472.216797 0)"/>
      <use xlink:href="#DejaVuSans-75" transform="translate(535.595703 0)"/>
      <use xlink:href="#DejaVuSans-6d" transform="translate(598.974609 0)"/>
      <use xlink:href="#DejaVuSans-62" transform="translate(696.386719 0)"/>
      <use xlink:href="#DejaVuSans-65" transform="translate(759.863281 0)"/>
      <use xlink:href="#DejaVuSans-72" transform="translate(821.386719 0)"/>
      <use xlink:href="#DejaVuSans-3a" transform="translate(860.75 0)"/>
      <use xlink:href="#DejaVuSans-31" transform="translate(894.441406 0)"/>
     </g>
    </g>
   </g>
  </g>
 </g>
 <defs>
  <clipPath id="p6cd7872e1f">
   <rect x="46.965625" y="7.2" width="334.8" height="221.76"/>
  </clipPath>
 </defs>
</svg>
