<?xml version="1.0" encoding="utf-8" standalone="no"?>
<!DOCTYPE svg PUBLIC "-//W3C//DTD SVG 1.1//EN"
  "http://www.w3.org/Graphics/SVG/1.1/DTD/svg11.dtd">
<svg xmlns:xlink="http://www.w3.org/1999/xlink" width="872.39952pt" height="296.39952pt" viewBox="0 0 872.39952 296.39952" xmlns="http://www.w3.org/2000/svg" version="1.1">
 <metadata>
  <rdf:RDF xmlns:dc="http://purl.org/dc/elements/1.1/" xmlns:cc="http://creativecommons.org/ns#" xmlns:rdf="http://www.w3.org/1999/02/22-rdf-syntax-ns#">
   <cc:Work>
    <dc:type rdf:resource="http://purl.org/dc/dcmitype/StillImage"/>
    <dc:date>2026-04-20T05:56:52.779906</dc:date>
    <dc:format>image/svg+xml</dc:format>
    <dc:creator>
     <cc:Agent>
      <dc:title>Matplotlib v3.10.8, https://matplotlib.org/</dc:title>
     </cc:Agent>
    </dc:creator>
   </cc:Work>
  </rdf:RDF>
 </metadata>
 <defs>
  <style type="text/css">*{stroke-linejoin: round; stroke-linecap: butt}</style>
 </defs>
 <g id="figure_1">
  <g id="patch_1">
   <path d="M 0 296.39952 
L 872.39952 296.39952 
L 872.39952 0 
L 0 0 
z
" style="fill: #ffffff"/>
  </g>
  <g id="axes_1">
   <g id="patch_2">
    <path d="M 53.328125 257.158895 
L 414.59976 257.158895 
L 414.59976 7.2 
L 53.328125 7.2 
z
" style="fill: #ffffff"/>
   </g>
   <g id="matplotlib.axis_1">
    <g id="xtick_1">
     <g id="line2d_1">
      <defs>
       <path id="m0a94b7bcbf" d="M 0 0 
L 0 3.5 
" style="stroke: #000000; stroke-width: 0.8"/>
      </defs>
      <g>
       <use xlink:href="#m0a94b7bcbf" x="68.926116" y="257.158895" style="stroke: #000000; stroke-width: 0.8"/>
      </g>
     </g>
     <g id="text_1">
      <!-- 0 -->
      <g transform="translate(65.744866 271.757332) scale(0.1 -0.1)">
       <defs>
        <path id="DejaVuSans-30" d="M 2034 4250 
Q 1547 4250 1301 3770 
Q 1056 3291 1056 2328 
Q 1056 1369 1301 889 
Q 1547 409 2034 409 
Q 2525 409 2770 889 
Q 3016 1369 3016 2328 
Q 3016 3291 2770 3770 
Q 2525 4250 2034 4250 
z
M 2034 4750 
Q 2819 4750 3233 4129 
Q 3647 3509 3647 2328 
Q 3647 1150 3233 529 
Q 2819 -91 2034 -91 
Q 1250 -91 836 529 
Q 422 1150 422 2328 
Q 422 3509 836 4129 
Q 1250 4750 2034 4750 
z
" transform="scale(0.015625)"/>
       </defs>
       <use xlink:href="#DejaVuSans-30"/>
      </g>
     </g>
    </g>
    <g id="xtick_2">
     <g id="line2d_2">
      <g>
       <use xlink:href="#m0a94b7bcbf" x="134.945974" y="257.158895" style="stroke: #000000; stroke-width: 0.8"/>
      </g>
     </g>
     <g id="text_2">
      <!-- 1000 -->
      <g transform="translate(122.220974 271.757332) scale(0.1 -0.1)">
       <defs>
        <path id="DejaVuSans-31" d="M 794 531 
L 1825 531 
L 1825 4091 
L 703 3866 
L 703 4441 
L 1819 4666 
L 2450 4666 
L 2450 531 
L 3481 531 
L 3481 0 
L 794 0 
L 794 531 
z
" transform="scale(0.015625)"/>
       </defs>
       <use xlink:href="#DejaVuSans-31"/>
       <use xlink:href="#DejaVuSans-30" transform="translate(63.623047 0)"/>
       <use xlink:href="#DejaVuSans-30" transform="translate(127.246094 0)"/>
       <use xlink:href="#DejaVuSans-30" transform="translate(190.869141 0)"/>
      </g>
     </g>
    </g>
    <g id="xtick_3">
     <g id="line2d_3">
      <g>
       <use xlink:href="#m0a94b7bcbf" x="200.965832" y="257.158895" style="stroke: #000000; stroke-width: 0.8"/>
      </g>
     </g>
     <g id="text_3">
      <!-- 2000 -->
      <g transform="translate(188.240832 271.757332) scale(0.1 -0.1)">
       <defs>
        <path id="DejaVuSans-32" d="M 1228 531 
L 3431 531 
L 3431 0 
L 469 0 
L 469 531 
Q 828 903 1448 1529 
Q 2069 2156 2228 2338 
Q 2531 2678 2651 2914 
Q 2772 3150 2772 3378 
Q 2772 3750 2511 3984 
Q 2250 4219 1831 4219 
Q 1534 4219 1204 4116 
Q 875 4013 500 3803 
L 500 4441 
Q 881 4594 1212 4672 
Q 1544 4750 1819 4750 
Q 2544 4750 2975 4387 
Q 3406 4025 3406 3419 
Q 3406 3131 3298 2873 
Q 3191 2616 2906 2266 
Q 2828 2175 2409 1742 
Q 1991 1309 1228 531 
z
" transform="scale(0.015625)"/>
       </defs>
       <use xlink:href="#DejaVuSans-32"/>
       <use xlink:href="#DejaVuSans-30" transform="translate(63.623047 0)"/>
       <use xlink:href="#DejaVuSans-30" transform="translate(127.246094 0)"/>
       <use xlink:href="#DejaVuSans-30" transform="translate(190.869141 0)"/>
      </g>
     </g>
    </g>
    <g id="xtick_4">
     <g id="line2d_4">
      <g>
       <use xlink:href="#m0a94b7bcbf" x="266.985691" y="257.158895" style="stroke: #000000; stroke-width: 0.8"/>
      </g>
     </g>
     <g id="text_4">
      <!-- 3000 -->
      <g transform="translate(254.260691 271.757332) scale(0.1 -0.1)">
       <defs>
        <path id="DejaVuSans-33" d="M 2597 2516 
Q 3050 2419 3304 2112 
Q 3559 1806 3559 1356 
Q 3559 666 3084 287 
Q 2609 -91 1734 -91 
Q 1441 -91 1130 -33 
Q 819 25 488 141 
L 488 750 
Q 750 597 1062 519 
Q 1375 441 1716 441 
Q 2309 441 2620 675 
Q 2931 909 2931 1356 
Q 2931 1769 2642 2001 
Q 2353 2234 1838 2234 
L 1294 2234 
L 1294 2753 
L 1863 2753 
Q 2328 2753 2575 2939 
Q 2822 3125 2822 3475 
Q 2822 3834 2567 4026 
Q 2313 4219 1838 4219 
Q 1578 4219 1281 4162 
Q 984 4106 628 3988 
L 628 4550 
Q 988 4650 1302 4700 
Q 1616 4750 1894 4750 
Q 2613 4750 3031 4423 
Q 3450 4097 3450 3541 
Q 3450 3153 3228 2886 
Q 3006 2619 2597 2516 
z
" transform="scale(0.015625)"/>
       </defs>
       <use xlink:href="#DejaVuSans-33"/>
       <use xlink:href="#DejaVuSans-30" transform="translate(63.623047 0)"/>
       <use xlink:href="#DejaVuSans-30" transform="translate(127.246094 0)"/>
       <use xlink:href="#DejaVuSans-30" transform="translate(190.869141 0)"/>
      </g>
     </g>
    </g>
    <g id="xtick_5">
     <g id="line2d_5">
      <g>
       <use xlink:href="#m0a94b7bcbf" x="333.005549" y="257.158895" style="stroke: #000000; stroke-width: 0.8"/>
      </g>
     </g>
     <g id="text_5">
      <!-- 4000 -->
      <g transform="translate(320.280549 271.757332) scale(0.1 -0.1)">
       <defs>
        <path id="DejaVuSans-34" d="M 2419 4116 
L 825 1625 
L 2419 1625 
L 2419 4116 
z
M 2253 4666 
L 3047 4666 
L 3047 1625 
L 3713 1625 
L 3713 1100 
L 3047 1100 
L 3047 0 
L 2419 0 
L 2419 1100 
L 313 1100 
L 313 1709 
L 2253 4666 
z
" transform="scale(0.015625)"/>
       </defs>
       <use xlink:href="#DejaVuSans-34"/>
       <use xlink:href="#DejaVuSans-30" transform="translate(63.623047 0)"/>
       <use xlink:href="#DejaVuSans-30" transform="translate(127.246094 0)"/>
       <use xlink:href="#DejaVuSans-30" transform="translate(190.869141 0)"/>
      </g>
     </g>
    </g>
    <g id="xtick_6">
     <g id="line2d_6">
      <g>
       <use xlink:href="#m0a94b7bcbf" x="399.025407" y="257.158895" style="stroke: #000000; stroke-width: 0.8"/>
      </g>
     </g>
     <g id="text_6">
      <!-- 5000 -->
      <g transform="translate(386.300407 271.757332) scale(0.1 -0.1)">
       <defs>
        <path id="DejaVuSans-35" d="M 691 4666 
L 3169 4666 
L 3169 4134 
L 1269 4134 
L 1269 2991 
Q 1406 3038 1543 3061 
Q 1681 3084 1819 3084 
Q 2600 3084 3056 2656 
Q 3513 2228 3513 1497 
Q 3513 744 3044 326 
Q 2575 -91 1722 -91 
Q 1428 -91 1123 -41 
Q 819 9 494 109 
L 494 744 
Q 775 591 1075 516 
Q 1375 441 1709 441 
Q 2250 441 2565 725 
Q 2881 1009 2881 1497 
Q 2881 1984 2565 2268 
Q 2250 2553 1709 2553 
Q 1456 2553 1204 2497 
Q 953 2441 691 2322 
L 691 4666 
z
" transform="scale(0.015625)"/>
       </defs>
       <use xlink:href="#DejaVuSans-35"/>
       <use xlink:href="#DejaVuSans-30" transform="translate(63.623047 0)"/>
       <use xlink:href="#DejaVuSans-30" transform="translate(127.246094 0)"/>
       <use xlink:href="#DejaVuSans-30" transform="translate(190.869141 0)"/>
      </g>
     </g>
    </g>
    <g id="text_7">
     <!-- birth_time [µs] -->
     <g transform="translate(197.14363 285.435457) scale(0.1 -0.1)">
      <defs>
       <path id="DejaVuSans-62" d="M 3116 1747 
Q 3116 2381 2855 2742 
Q 2594 3103 2138 3103 
Q 1681 3103 1420 2742 
Q 1159 2381 1159 1747 
Q 1159 1113 1420 752 
Q 1681 391 2138 391 
Q 2594 391 2855 752 
Q 3116 1113 3116 1747 
z
M 1159 2969 
Q 1341 3281 1617 3432 
Q 1894 3584 2278 3584 
Q 2916 3584 3314 3078 
Q 3713 2572 3713 1747 
Q 3713 922 3314 415 
Q 2916 -91 2278 -91 
Q 1894 -91 1617 61 
Q 1341 213 1159 525 
L 1159 0 
L 581 0 
L 581 4863 
L 1159 4863 
L 1159 2969 
z
" transform="scale(0.015625)"/>
       <path id="DejaVuSans-69" d="M 603 3500 
L 1178 3500 
L 1178 0 
L 603 0 
L 603 3500 
z
M 603 4863 
L 1178 4863 
L 1178 4134 
L 603 4134 
L 603 4863 
z
" transform="scale(0.015625)"/>
       <path id="DejaVuSans-72" d="M 2631 2963 
Q 2534 3019 2420 3045 
Q 2306 3072 2169 3072 
Q 1681 3072 1420 2755 
Q 1159 2438 1159 1844 
L 1159 0 
L 581 0 
L 581 3500 
L 1159 3500 
L 1159 2956 
Q 1341 3275 1631 3429 
Q 1922 3584 2338 3584 
Q 2397 3584 2469 3576 
Q 2541 3569 2628 3553 
L 2631 2963 
z
" transform="scale(0.015625)"/>
       <path id="DejaVuSans-74" d="M 1172 4494 
L 1172 3500 
L 2356 3500 
L 2356 3053 
L 1172 3053 
L 1172 1153 
Q 1172 725 1289 603 
Q 1406 481 1766 481 
L 2356 481 
L 2356 0 
L 1766 0 
Q 1100 0 847 248 
Q 594 497 594 1153 
L 594 3053 
L 172 3053 
L 172 3500 
L 594 3500 
L 594 4494 
L 1172 4494 
z
" transform="scale(0.015625)"/>
       <path id="DejaVuSans-68" d="M 3513 2113 
L 3513 0 
L 2938 0 
L 2938 2094 
Q 2938 2591 2744 2837 
Q 2550 3084 2163 3084 
Q 1697 3084 1428 2787 
Q 1159 2491 1159 1978 
L 1159 0 
L 581 0 
L 581 4863 
L 1159 4863 
L 1159 2956 
Q 1366 3272 1645 3428 
Q 1925 3584 2291 3584 
Q 2894 3584 3203 3211 
Q 3513 2838 3513 2113 
z
" transform="scale(0.015625)"/>
       <path id="DejaVuSans-5f" d="M 3263 -1063 
L 3263 -1509 
L -63 -1509 
L -63 -1063 
L 3263 -1063 
z
" transform="scale(0.015625)"/>
       <path id="DejaVuSans-6d" d="M 3328 2828 
Q 3544 3216 3844 3400 
Q 4144 3584 4550 3584 
Q 5097 3584 5394 3201 
Q 5691 2819 5691 2113 
L 5691 0 
L 5113 0 
L 5113 2094 
Q 5113 2597 4934 2840 
Q 4756 3084 4391 3084 
Q 3944 3084 3684 2787 
Q 3425 2491 3425 1978 
L 3425 0 
L 2847 0 
L 2847 2094 
Q 2847 2600 2669 2842 
Q 2491 3084 2119 3084 
Q 1678 3084 1418 2786 
Q 1159 2488 1159 1978 
L 1159 0 
L 581 0 
L 581 3500 
L 1159 3500 
L 1159 2956 
Q 1356 3278 1631 3431 
Q 1906 3584 2284 3584 
Q 2666 3584 2933 3390 
Q 3200 3197 3328 2828 
z
" transform="scale(0.015625)"/>
       <path id="DejaVuSans-65" d="M 3597 1894 
L 3597 1613 
L 953 1613 
Q 991 1019 1311 708 
Q 1631 397 2203 397 
Q 2534 397 2845 478 
Q 3156 559 3463 722 
L 3463 178 
Q 3153 47 2828 -22 
Q 2503 -91 2169 -91 
Q 1331 -91 842 396 
Q 353 884 353 1716 
Q 353 2575 817 3079 
Q 1281 3584 2069 3584 
Q 2775 3584 3186 3129 
Q 3597 2675 3597 1894 
z
M 3022 2063 
Q 3016 2534 2758 2815 
Q 2500 3097 2075 3097 
Q 1594 3097 1305 2825 
Q 1016 2553 972 2059 
L 3022 2063 
z
" transform="scale(0.015625)"/>
       <path id="DejaVuSans-20" transform="scale(0.015625)"/>
       <path id="DejaVuSans-5b" d="M 550 4863 
L 1875 4863 
L 1875 4416 
L 1125 4416 
L 1125 -397 
L 1875 -397 
L 1875 -844 
L 550 -844 
L 550 4863 
z
" transform="scale(0.015625)"/>
       <path id="DejaVuSans-b5" d="M 544 -1331 
L 544 3500 
L 1119 3500 
L 1119 1325 
Q 1119 872 1334 640 
Q 1550 409 1972 409 
Q 2434 409 2667 671 
Q 2900 934 2900 1459 
L 2900 3500 
L 3475 3500 
L 3475 806 
Q 3475 619 3529 530 
Q 3584 441 3700 441 
Q 3728 441 3778 458 
Q 3828 475 3916 513 
L 3916 50 
Q 3788 -22 3673 -56 
Q 3559 -91 3450 -91 
Q 3234 -91 3106 31 
Q 2978 153 2931 403 
Q 2775 156 2548 32 
Q 2322 -91 2016 -91 
Q 1697 -91 1473 31 
Q 1250 153 1119 397 
L 1119 -1331 
L 544 -1331 
z
" transform="scale(0.015625)"/>
       <path id="DejaVuSans-73" d="M 2834 3397 
L 2834 2853 
Q 2591 2978 2328 3040 
Q 2066 3103 1784 3103 
Q 1356 3103 1142 2972 
Q 928 2841 928 2578 
Q 928 2378 1081 2264 
Q 1234 2150 1697 2047 
L 1894 2003 
Q 2506 1872 2764 1633 
Q 3022 1394 3022 966 
Q 3022 478 2636 193 
Q 2250 -91 1575 -91 
Q 1294 -91 989 -36 
Q 684 19 347 128 
L 347 722 
Q 666 556 975 473 
Q 1284 391 1588 391 
Q 1994 391 2212 530 
Q 2431 669 2431 922 
Q 2431 1156 2273 1281 
Q 2116 1406 1581 1522 
L 1381 1569 
Q 847 1681 609 1914 
Q 372 2147 372 2553 
Q 372 3047 722 3315 
Q 1072 3584 1716 3584 
Q 2034 3584 2315 3537 
Q 2597 3491 2834 3397 
z
" transform="scale(0.015625)"/>
       <path id="DejaVuSans-5d" d="M 1947 4863 
L 1947 -844 
L 622 -844 
L 622 -397 
L 1369 -397 
L 1369 4416 
L 622 4416 
L 622 4863 
L 1947 4863 
z
" transform="scale(0.015625)"/>
      </defs>
      <use xlink:href="#DejaVuSans-62"/>
      <use xlink:href="#DejaVuSans-69" transform="translate(63.476562 0)"/>
      <use xlink:href="#DejaVuSans-72" transform="translate(91.259766 0)"/>
      <use xlink:href="#DejaVuSans-74" transform="translate(132.373047 0)"/>
      <use xlink:href="#DejaVuSans-68" transform="translate(171.582031 0)"/>
      <use xlink:href="#DejaVuSans-5f" transform="translate(234.960938 0)"/>
      <use xlink:href="#DejaVuSans-74" transform="translate(284.960938 0)"/>
      <use xlink:href="#DejaVuSans-69" transform="translate(324.169922 0)"/>
      <use xlink:href="#DejaVuSans-6d" transform="translate(351.953125 0)"/>
      <use xlink:href="#DejaVuSans-65" transform="translate(449.365234 0)"/>
      <use xlink:href="#DejaVuSans-20" transform="translate(510.888672 0)"/>
      <use xlink:href="#DejaVuSans-5b" transform="translate(542.675781 0)"/>
      <use xlink:href="#DejaVuSans-b5" transform="translate(581.689453 0)"/>
      <use xlink:href="#DejaVuSans-73" transform="translate(645.3125 0)"/>
      <use xlink:href="#DejaVuSans-5d" transform="translate(697.412109 0)"/>
     </g>
    </g>
   </g>
   <g id="matplotlib.axis_2">
    <g id="ytick_1">
     <g id="line2d_7">
      <defs>
       <path id="mb60e6917e9" d="M 0 0 
L -3.5 0 
" style="stroke: #000000; stroke-width: 0.8"/>
      </defs>
      <g>
       <use xlink:href="#mb60e6917e9" x="53.328125" y="245.797127" style="stroke: #000000; stroke-width: 0.8"/>
      </g>
     </g>
     <g id="text_8">
      <!-- 0 -->
      <g transform="translate(39.965625 249.596346) scale(0.1 -0.1)">
       <use xlink:href="#DejaVuSans-30"/>
      </g>
     </g>
    </g>
    <g id="ytick_2">
     <g id="line2d_8">
      <g>
       <use xlink:href="#mb60e6917e9" x="53.328125" y="209.41036" style="stroke: #000000; stroke-width: 0.8"/>
      </g>
     </g>
     <g id="text_9">
      <!-- 200 -->
      <g transform="translate(27.240625 213.209579) scale(0.1 -0.1)">
       <use xlink:href="#DejaVuSans-32"/>
       <use xlink:href="#DejaVuSans-30" transform="translate(63.623047 0)"/>
       <use xlink:href="#DejaVuSans-30" transform="translate(127.246094 0)"/>
      </g>
     </g>
    </g>
    <g id="ytick_3">
     <g id="line2d_9">
      <g>
       <use xlink:href="#mb60e6917e9" x="53.328125" y="173.023593" style="stroke: #000000; stroke-width: 0.8"/>
      </g>
     </g>
     <g id="text_10">
      <!-- 400 -->
      <g transform="translate(27.240625 176.822812) scale(0.1 -0.1)">
       <use xlink:href="#DejaVuSans-34"/>
       <use xlink:href="#DejaVuSans-30" transform="translate(63.623047 0)"/>
       <use xlink:href="#DejaVuSans-30" transform="translate(127.246094 0)"/>
      </g>
     </g>
    </g>
    <g id="ytick_4">
     <g id="line2d_10">
      <g>
       <use xlink:href="#mb60e6917e9" x="53.328125" y="136.636826" style="stroke: #000000; stroke-width: 0.8"/>
      </g>
     </g>
     <g id="text_11">
      <!-- 600 -->
      <g transform="translate(27.240625 140.436045) scale(0.1 -0.1)">
       <defs>
        <path id="DejaVuSans-36" d="M 2113 2584 
Q 1688 2584 1439 2293 
Q 1191 2003 1191 1497 
Q 1191 994 1439 701 
Q 1688 409 2113 409 
Q 2538 409 2786 701 
Q 3034 994 3034 1497 
Q 3034 2003 2786 2293 
Q 2538 2584 2113 2584 
z
M 3366 4563 
L 3366 3988 
Q 3128 4100 2886 4159 
Q 2644 4219 2406 4219 
Q 1781 4219 1451 3797 
Q 1122 3375 1075 2522 
Q 1259 2794 1537 2939 
Q 1816 3084 2150 3084 
Q 2853 3084 3261 2657 
Q 3669 2231 3669 1497 
Q 3669 778 3244 343 
Q 2819 -91 2113 -91 
Q 1303 -91 875 529 
Q 447 1150 447 2328 
Q 447 3434 972 4092 
Q 1497 4750 2381 4750 
Q 2619 4750 2861 4703 
Q 3103 4656 3366 4563 
z
" transform="scale(0.015625)"/>
       </defs>
       <use xlink:href="#DejaVuSans-36"/>
       <use xlink:href="#DejaVuSans-30" transform="translate(63.623047 0)"/>
       <use xlink:href="#DejaVuSans-30" transform="translate(127.246094 0)"/>
      </g>
     </g>
    </g>
    <g id="ytick_5">
     <g id="line2d_11">
      <g>
       <use xlink:href="#mb60e6917e9" x="53.328125" y="100.25006" style="stroke: #000000; stroke-width: 0.8"/>
      </g>
     </g>
     <g id="text_12">
      <!-- 800 -->
      <g transform="translate(27.240625 104.049278) scale(0.1 -0.1)">
       <defs>
        <path id="DejaVuSans-38" d="M 2034 2216 
Q 1584 2216 1326 1975 
Q 1069 1734 1069 1313 
Q 1069 891 1326 650 
Q 1584 409 2034 409 
Q 2484 409 2743 651 
Q 3003 894 3003 1313 
Q 3003 1734 2745 1975 
Q 2488 2216 2034 2216 
z
M 1403 2484 
Q 997 2584 770 2862 
Q 544 3141 544 3541 
Q 544 4100 942 4425 
Q 1341 4750 2034 4750 
Q 2731 4750 3128 4425 
Q 3525 4100 3525 3541 
Q 3525 3141 3298 2862 
Q 3072 2584 2669 2484 
Q 3125 2378 3379 2068 
Q 3634 1759 3634 1313 
Q 3634 634 3220 271 
Q 2806 -91 2034 -91 
Q 1263 -91 848 271 
Q 434 634 434 1313 
Q 434 1759 690 2068 
Q 947 2378 1403 2484 
z
M 1172 3481 
Q 1172 3119 1398 2916 
Q 1625 2713 2034 2713 
Q 2441 2713 2670 2916 
Q 2900 3119 2900 3481 
Q 2900 3844 2670 4047 
Q 2441 4250 2034 4250 
Q 1625 4250 1398 4047 
Q 1172 3844 1172 3481 
z
" transform="scale(0.015625)"/>
       </defs>
       <use xlink:href="#DejaVuSans-38"/>
       <use xlink:href="#DejaVuSans-30" transform="translate(63.623047 0)"/>
       <use xlink:href="#DejaVuSans-30" transform="translate(127.246094 0)"/>
      </g>
     </g>
    </g>
    <g id="ytick_6">
     <g id="line2d_12">
      <g>
       <use xlink:href="#mb60e6917e9" x="53.328125" y="63.863293" style="stroke: #000000; stroke-width: 0.8"/>
      </g>
     </g>
     <g id="text_13">
      <!-- 1000 -->
      <g transform="translate(20.878125 67.662511) scale(0.1 -0.1)">
       <use xlink:href="#DejaVuSans-31"/>
       <use xlink:href="#DejaVuSans-30" transform="translate(63.623047 0)"/>
       <use xlink:href="#DejaVuSans-30" transform="translate(127.246094 0)"/>
       <use xlink:href="#DejaVuSans-30" transform="translate(190.869141 0)"/>
      </g>
     </g>
    </g>
    <g id="ytick_7">
     <g id="line2d_13">
      <g>
       <use xlink:href="#mb60e6917e9" x="53.328125" y="27.476526" style="stroke: #000000; stroke-width: 0.8"/>
      </g>
     </g>
     <g id="text_14">
      <!-- 1200 -->
      <g transform="translate(20.878125 31.275745) scale(0.1 -0.1)">
       <use xlink:href="#DejaVuSans-31"/>
       <use xlink:href="#DejaVuSans-32" transform="translate(63.623047 0)"/>
       <use xlink:href="#DejaVuSans-30" transform="translate(127.246094 0)"/>
       <use xlink:href="#DejaVuSans-30" transform="translate(190.869141 0)"/>
      </g>
     </g>
    </g>
    <g id="text_15">
     <!-- [counts] -->
     <g transform="translate(14.798438 152.791947) rotate(-90) scale(0.1 -0.1)">
      <defs>
       <path id="DejaVuSans-63" d="M 3122 3366 
L 3122 2828 
Q 2878 2963 2633 3030 
Q 2388 3097 2138 3097 
Q 1578 3097 1268 2742 
Q 959 2388 959 1747 
Q 959 1106 1268 751 
Q 1578 397 2138 397 
Q 2388 397 2633 464 
Q 2878 531 3122 666 
L 3122 134 
Q 2881 22 2623 -34 
Q 2366 -91 2075 -91 
Q 1284 -91 818 406 
Q 353 903 353 1747 
Q 353 2603 823 3093 
Q 1294 3584 2113 3584 
Q 2378 3584 2631 3529 
Q 2884 3475 3122 3366 
z
" transform="scale(0.015625)"/>
       <path id="DejaVuSans-6f" d="M 1959 3097 
Q 1497 3097 1228 2736 
Q 959 2375 959 1747 
Q 959 1119 1226 758 
Q 1494 397 1959 397 
Q 2419 397 2687 759 
Q 2956 1122 2956 1747 
Q 2956 2369 2687 2733 
Q 2419 3097 1959 3097 
z
M 1959 3584 
Q 2709 3584 3137 3096 
Q 3566 2609 3566 1747 
Q 3566 888 3137 398 
Q 2709 -91 1959 -91 
Q 1206 -91 779 398 
Q 353 888 353 1747 
Q 353 2609 779 3096 
Q 1206 3584 1959 3584 
z
" transform="scale(0.015625)"/>
       <path id="DejaVuSans-75" d="M 544 1381 
L 544 3500 
L 1119 3500 
L 1119 1403 
Q 1119 906 1312 657 
Q 1506 409 1894 409 
Q 2359 409 2629 706 
Q 2900 1003 2900 1516 
L 2900 3500 
L 3475 3500 
L 3475 0 
L 2900 0 
L 2900 538 
Q 2691 219 2414 64 
Q 2138 -91 1772 -91 
Q 1169 -91 856 284 
Q 544 659 544 1381 
z
M 1991 3584 
L 1991 3584 
z
" transform="scale(0.015625)"/>
       <path id="DejaVuSans-6e" d="M 3513 2113 
L 3513 0 
L 2938 0 
L 2938 2094 
Q 2938 2591 2744 2837 
Q 2550 3084 2163 3084 
Q 1697 3084 1428 2787 
Q 1159 2491 1159 1978 
L 1159 0 
L 581 0 
L 581 3500 
L 1159 3500 
L 1159 2956 
Q 1366 3272 1645 3428 
Q 1925 3584 2291 3584 
Q 2894 3584 3203 3211 
Q 3513 2838 3513 2113 
z
" transform="scale(0.015625)"/>
      </defs>
      <use xlink:href="#DejaVuSans-5b"/>
      <use xlink:href="#DejaVuSans-63" transform="translate(39.013672 0)"/>
      <use xlink:href="#DejaVuSans-6f" transform="translate(93.994141 0)"/>
      <use xlink:href="#DejaVuSans-75" transform="translate(155.175781 0)"/>
      <use xlink:href="#DejaVuSans-6e" transform="translate(218.554688 0)"/>
      <use xlink:href="#DejaVuSans-74" transform="translate(281.933594 0)"/>
      <use xlink:href="#DejaVuSans-73" transform="translate(321.142578 0)"/>
      <use xlink:href="#DejaVuSans-5d" transform="translate(373.242188 0)"/>
     </g>
    </g>
   </g>
   <g id="line2d_14">
    <path d="M 69.749563 233.789494 
L 70.844325 233.789494 
L 70.844325 228.149545 
L 71.939088 228.149545 
L 71.939088 222.873464 
L 73.033851 222.873464 
L 73.033851 213.776772 
L 74.128613 213.776772 
L 74.128613 206.499419 
L 75.223376 206.499419 
L 75.223376 195.583389 
L 76.318138 195.583389 
L 76.318138 182.666087 
L 77.412901 182.666087 
L 77.412901 176.298402 
L 78.507663 176.298402 
L 78.507663 168.293314 
L 79.602426 168.293314 
L 79.602426 156.103747 
L 80.697188 156.103747 
L 80.697188 154.466342 
L 81.791951 154.466342 
L 81.791951 149.008327 
L 82.886713 149.008327 
L 82.886713 141.912908 
L 83.981476 141.912908 
L 83.981476 132.452348 
L 85.076238 132.452348 
L 85.076238 127.722069 
L 86.171001 127.722069 
L 86.171001 132.452348 
L 87.265763 132.452348 
L 87.265763 124.811127 
L 88.360526 124.811127 
L 88.360526 109.346751 
L 89.455288 109.346751 
L 89.455288 112.803494 
L 90.550051 112.803494 
L 90.550051 106.799678 
L 91.644814 106.799678 
L 91.644814 111.711891 
L 92.739576 111.711891 
L 92.739576 102.069398 
L 93.834339 102.069398 
L 93.834339 102.979067 
L 94.929101 102.979067 
L 94.929101 92.426905 
L 96.023864 92.426905 
L 96.023864 86.96889 
L 97.118626 86.96889 
L 97.118626 83.876014 
L 98.213389 83.876014 
L 98.213389 76.962529 
L 99.308151 76.962529 
L 99.308151 76.598661 
L 100.402914 76.598661 
L 100.402914 83.512147 
L 101.497676 83.512147 
L 101.497676 75.507058 
L 102.592439 75.507058 
L 102.592439 71.686448 
L 103.687201 71.686448 
L 103.687201 66.5923 
L 104.781964 66.5923 
L 104.781964 63.135557 
L 105.876726 63.135557 
L 105.876726 71.32258 
L 106.971489 71.32258 
L 106.971489 70.230977 
L 108.066252 70.230977 
L 108.066252 62.77169 
L 109.161014 62.77169 
L 109.161014 64.045227 
L 110.255777 64.045227 
L 110.255777 62.407822 
L 111.350539 62.407822 
L 111.350539 60.042682 
L 112.445302 60.042682 
L 112.445302 47.12538 
L 113.540064 47.12538 
L 113.540064 49.672454 
L 114.634827 49.672454 
L 114.634827 63.499425 
L 115.729589 63.499425 
L 115.729589 64.409094 
L 116.824352 64.409094 
L 116.824352 50.582123 
L 117.919114 50.582123 
L 117.919114 52.037593 
L 119.013877 52.037593 
L 119.013877 60.952351 
L 120.108639 60.952351 
L 120.108639 48.035049 
L 121.203402 48.035049 
L 121.203402 50.764057 
L 122.298164 50.764057 
L 122.298164 56.949807 
L 123.392927 56.949807 
L 123.392927 48.944718 
L 124.487689 48.944718 
L 124.487689 42.940902 
L 125.582452 42.940902 
L 125.582452 42.031233 
L 127.771977 42.031233 
L 127.771977 55.312402 
L 128.86674 55.312402 
L 128.86674 52.583395 
L 129.961502 52.583395 
L 129.961502 42.031233 
L 131.056265 42.031233 
L 131.056265 46.579578 
L 132.151027 46.579578 
L 132.151027 36.20935 
L 133.24579 36.20935 
L 133.24579 35.845482 
L 134.340552 35.845482 
L 134.340552 47.12538 
L 135.435315 47.12538 
L 135.435315 49.672454 
L 136.530077 49.672454 
L 136.530077 38.028688 
L 137.62484 38.028688 
L 137.62484 46.397645 
L 138.719602 46.397645 
L 138.719602 45.487975 
L 139.814365 45.487975 
L 139.814365 40.93963 
L 140.909127 40.93963 
L 140.909127 33.480342 
L 142.00389 33.480342 
L 142.00389 48.398917 
L 143.098652 48.398917 
L 143.098652 38.210622 
L 144.193415 38.210622 
L 144.193415 49.308586 
L 145.288178 49.308586 
L 145.288178 44.214439 
L 146.38294 44.214439 
L 146.38294 30.387467 
L 147.477703 30.387467 
L 147.477703 35.663548 
L 148.572465 35.663548 
L 148.572465 35.299681 
L 149.667228 35.299681 
L 149.667228 38.756424 
L 150.76199 38.756424 
L 150.76199 35.845482 
L 151.856753 35.845482 
L 151.856753 45.669909 
L 152.951515 45.669909 
L 152.951515 27.65846 
L 154.046278 27.65846 
L 154.046278 41.485431 
L 155.14104 41.485431 
L 155.14104 41.667365 
L 156.235803 41.667365 
L 156.235803 34.753879 
L 157.330565 34.753879 
L 157.330565 22.92818 
L 158.425328 22.92818 
L 158.425328 30.569401 
L 159.52009 30.569401 
L 159.52009 36.027416 
L 160.614853 36.027416 
L 160.614853 37.482887 
L 161.709615 37.482887 
L 161.709615 44.214439 
L 162.804378 44.214439 
L 162.804378 38.756424 
L 163.899141 38.756424 
L 163.899141 38.028688 
L 164.993903 38.028688 
L 164.993903 41.485431 
L 166.088666 41.485431 
L 166.088666 38.938357 
L 167.183428 38.938357 
L 167.183428 32.934541 
L 168.278191 32.934541 
L 168.278191 43.122836 
L 169.372953 43.122836 
L 169.372953 46.033777 
L 170.467716 46.033777 
L 170.467716 32.934541 
L 171.562478 32.934541 
L 171.562478 37.664821 
L 172.657241 37.664821 
L 172.657241 31.115203 
L 173.752003 31.115203 
L 173.752003 32.934541 
L 174.846766 32.934541 
L 174.846766 40.02996 
L 175.941528 40.02996 
L 175.941528 45.851843 
L 177.036291 45.851843 
L 177.036291 37.482887 
L 178.131053 37.482887 
L 178.131053 33.298409 
L 179.225816 33.298409 
L 179.225816 25.839121 
L 180.320579 25.839121 
L 180.320579 33.116475 
L 181.415341 33.116475 
L 181.415341 33.480342 
L 182.510104 33.480342 
L 182.510104 35.299681 
L 183.604866 35.299681 
L 183.604866 30.933269 
L 184.699629 30.933269 
L 184.699629 37.300953 
L 185.794391 37.300953 
L 185.794391 40.02996 
L 186.889154 40.02996 
L 186.889154 31.297136 
L 187.983916 31.297136 
L 187.983916 45.306042 
L 189.078679 45.306042 
L 189.078679 23.655915 
L 190.173441 23.655915 
L 190.173441 30.569401 
L 191.268204 30.569401 
L 191.268204 31.842938 
L 192.362966 31.842938 
L 192.362966 42.577034 
L 193.457729 42.577034 
L 193.457729 42.031233 
L 194.552491 42.031233 
L 194.552491 38.028688 
L 195.647254 38.028688 
L 195.647254 25.839121 
L 196.742016 25.839121 
L 196.742016 30.0236 
L 197.836779 30.0236 
L 197.836779 42.3951 
L 198.931542 42.3951 
L 198.931542 18.561768 
L 200.026304 18.561768 
L 200.026304 26.384923 
L 201.121067 26.384923 
L 201.121067 24.201717 
L 202.215829 24.201717 
L 202.215829 34.208078 
L 203.310592 34.208078 
L 203.310592 29.11393 
L 204.405354 29.11393 
L 204.405354 46.397645 
L 205.500117 46.397645 
L 205.500117 32.024872 
L 206.594879 32.024872 
L 206.594879 27.840394 
L 207.689642 27.840394 
L 207.689642 36.755151 
L 208.784404 36.755151 
L 208.784404 41.121563 
L 209.879167 41.121563 
L 209.879167 38.028688 
L 210.973929 38.028688 
L 210.973929 39.484159 
L 212.068692 39.484159 
L 212.068692 38.57449 
L 213.163454 38.57449 
L 213.163454 29.659732 
L 214.258217 29.659732 
L 214.258217 21.290775 
L 215.352979 21.290775 
L 215.352979 22.200445 
L 216.447742 22.200445 
L 216.447742 35.481615 
L 217.542505 35.481615 
L 217.542505 34.935813 
L 218.637267 34.935813 
L 218.637267 33.116475 
L 219.73203 33.116475 
L 219.73203 47.489248 
L 220.826792 47.489248 
L 220.826792 36.573218 
L 221.921555 36.573218 
L 221.921555 27.476526 
L 223.016317 27.476526 
L 223.016317 29.841666 
L 224.11108 29.841666 
L 224.11108 28.022327 
L 225.205842 28.022327 
L 225.205842 40.93963 
L 226.300605 40.93963 
L 226.300605 38.57449 
L 227.395367 38.57449 
L 227.395367 33.116475 
L 228.49013 33.116475 
L 228.49013 26.384923 
L 229.584892 26.384923 
L 229.584892 38.392556 
L 230.679655 38.392556 
L 230.679655 40.02996 
L 231.774417 40.02996 
L 231.774417 34.026144 
L 232.86918 34.026144 
L 232.86918 27.840394 
L 233.963942 27.840394 
L 233.963942 41.667365 
L 235.058705 41.667365 
L 235.058705 32.570673 
L 236.153468 32.570673 
L 236.153468 23.473981 
L 237.24823 23.473981 
L 237.24823 36.391284 
L 238.342993 36.391284 
L 238.342993 34.571945 
L 239.437755 34.571945 
L 239.437755 30.205533 
L 240.532518 30.205533 
L 240.532518 33.480342 
L 241.62728 33.480342 
L 241.62728 45.851843 
L 242.722043 45.851843 
L 242.722043 36.027416 
L 244.911568 36.027416 
L 244.911568 34.935813 
L 246.00633 34.935813 
L 246.00633 38.938357 
L 247.101093 38.938357 
L 247.101093 39.666093 
L 248.195855 39.666093 
L 248.195855 33.84421 
L 249.290618 33.84421 
L 249.290618 38.028688 
L 250.38538 38.028688 
L 250.38538 41.849299 
L 251.480143 41.849299 
L 251.480143 32.206806 
L 252.574906 32.206806 
L 252.574906 34.571945 
L 253.669668 34.571945 
L 253.669668 40.02996 
L 254.764431 40.02996 
L 254.764431 48.035049 
L 255.859193 48.035049 
L 255.859193 52.401461 
L 256.953956 52.401461 
L 256.953956 41.849299 
L 258.048718 41.849299 
L 258.048718 41.121563 
L 259.143481 41.121563 
L 259.143481 59.678815 
L 260.238243 59.678815 
L 260.238243 45.124108 
L 261.333006 45.124108 
L 261.333006 73.68772 
L 262.427768 73.68772 
L 262.427768 68.95744 
L 263.522531 68.95744 
L 263.522531 81.147007 
L 264.617293 81.147007 
L 264.617293 91.153368 
L 265.712056 91.153368 
L 265.712056 96.065581 
L 266.806818 96.065581 
L 266.806818 98.976523 
L 267.901581 98.976523 
L 267.901581 116.260237 
L 268.996343 116.260237 
L 268.996343 135.181356 
L 270.091106 135.181356 
L 270.091106 132.816216 
L 271.185869 132.816216 
L 271.185869 140.093569 
L 272.280631 140.093569 
L 272.280631 150.463798 
L 273.375394 150.463798 
L 273.375394 142.276775 
L 274.470156 142.276775 
L 274.470156 156.103747 
L 275.564919 156.103747 
L 275.564919 159.742423 
L 276.659681 159.742423 
L 276.659681 163.199166 
L 277.754444 163.199166 
L 277.754444 171.750056 
L 278.849206 171.750056 
L 278.849206 172.295858 
L 279.943969 172.295858 
L 279.943969 182.302219 
L 281.038731 182.302219 
L 281.038731 180.300947 
L 282.133494 180.300947 
L 282.133494 185.395094 
L 284.323019 185.395094 
L 284.323019 188.306035 
L 285.417781 188.306035 
L 285.417781 189.397638 
L 286.512544 189.397638 
L 286.512544 197.948529 
L 287.607306 197.948529 
L 287.607306 196.493058 
L 288.702069 196.493058 
L 288.702069 197.766595 
L 289.796832 197.766595 
L 289.796832 196.856926 
L 290.891594 196.856926 
L 290.891594 203.406544 
L 291.986357 203.406544 
L 291.986357 208.682625 
L 293.081119 208.682625 
L 293.081119 205.043948 
L 294.175882 205.043948 
L 294.175882 206.681353 
L 295.270644 206.681353 
L 295.270644 209.41036 
L 296.365407 209.41036 
L 296.365407 213.412905 
L 297.460169 213.412905 
L 297.460169 214.686441 
L 298.554932 214.686441 
L 298.554932 218.688986 
L 299.649694 218.688986 
L 299.649694 216.50578 
L 300.744457 216.50578 
L 300.744457 219.598655 
L 301.839219 219.598655 
L 301.839219 222.509596 
L 304.028744 222.509596 
L 304.028744 225.602471 
L 305.123507 225.602471 
L 305.123507 224.147001 
L 306.218269 224.147001 
L 306.218269 228.331479 
L 307.313032 228.331479 
L 307.313032 229.605016 
L 308.407795 229.605016 
L 308.407795 229.968883 
L 309.502557 229.968883 
L 309.502557 229.78695 
L 310.59732 229.78695 
L 310.59732 231.060486 
L 312.786845 231.060486 
L 312.786845 230.696619 
L 313.881607 230.696619 
L 313.881607 235.244965 
L 314.97637 235.244965 
L 314.97637 236.154634 
L 316.071132 236.154634 
L 316.071132 233.061759 
L 317.165895 233.061759 
L 317.165895 235.063031 
L 318.260657 235.063031 
L 318.260657 236.336568 
L 319.35542 236.336568 
L 319.35542 235.790766 
L 320.450182 235.790766 
L 320.450182 235.244965 
L 321.544945 235.244965 
L 321.544945 237.792038 
L 322.639707 237.792038 
L 322.639707 239.611377 
L 323.73447 239.611377 
L 323.73447 238.519774 
L 324.829233 238.519774 
L 324.829233 237.428171 
L 325.923995 237.428171 
L 325.923995 238.519774 
L 327.018758 238.519774 
L 327.018758 238.883641 
L 328.11352 238.883641 
L 328.11352 241.430715 
L 329.208283 241.430715 
L 329.208283 241.066847 
L 330.303045 241.066847 
L 330.303045 239.429443 
L 331.397808 239.429443 
L 331.397808 239.065575 
L 332.49257 239.065575 
L 332.49257 240.70298 
L 333.587333 240.70298 
L 333.587333 242.522318 
L 334.682095 242.522318 
L 334.682095 240.521046 
L 335.776858 240.521046 
L 335.776858 241.976517 
L 336.87162 241.976517 
L 336.87162 242.15845 
L 337.966383 242.15845 
L 337.966383 242.522318 
L 339.061145 242.522318 
L 339.061145 241.066847 
L 340.155908 241.066847 
L 340.155908 243.250053 
L 341.25067 243.250053 
L 341.25067 242.522318 
L 342.345433 242.522318 
L 342.345433 242.704252 
L 343.440196 242.704252 
L 343.440196 241.612649 
L 344.534958 241.612649 
L 344.534958 241.976517 
L 345.629721 241.976517 
L 345.629721 241.612649 
L 346.724483 241.612649 
L 346.724483 243.06812 
L 347.819246 243.06812 
L 347.819246 242.704252 
L 348.914008 242.704252 
L 348.914008 243.06812 
L 350.008771 243.06812 
L 350.008771 243.977789 
L 351.103533 243.977789 
L 351.103533 244.159723 
L 352.198296 244.159723 
L 352.198296 243.977789 
L 354.387821 243.977789 
L 354.387821 243.795855 
L 355.482583 243.795855 
L 355.482583 245.069392 
L 356.577346 245.069392 
L 356.577346 244.705524 
L 357.672108 244.705524 
L 357.672108 244.52359 
L 358.766871 244.52359 
L 358.766871 245.069392 
L 359.861633 245.069392 
L 359.861633 243.977789 
L 360.956396 243.977789 
L 360.956396 244.887458 
L 362.051159 244.887458 
L 362.051159 244.159723 
L 363.145921 244.159723 
L 363.145921 244.705524 
L 366.430209 244.705524 
L 366.430209 245.069392 
L 368.619734 245.069392 
L 368.619734 245.615193 
L 369.714496 245.615193 
L 369.714496 244.341656 
L 370.809259 244.341656 
L 370.809259 245.251326 
L 371.904021 245.251326 
L 371.904021 244.159723 
L 372.998784 244.159723 
L 372.998784 243.977789 
L 374.093546 243.977789 
L 374.093546 244.887458 
L 376.283071 244.887458 
L 376.283071 245.251326 
L 377.377834 245.251326 
L 377.377834 245.615193 
L 378.472596 245.615193 
L 378.472596 245.433259 
L 379.567359 245.433259 
L 379.567359 245.069392 
L 380.662122 245.069392 
L 380.662122 245.797127 
L 381.756884 245.797127 
L 381.756884 245.251326 
L 382.851647 245.251326 
L 382.851647 245.433259 
L 383.946409 245.433259 
L 383.946409 245.615193 
L 386.135934 245.615193 
L 386.135934 244.887458 
L 387.230697 244.887458 
L 387.230697 245.615193 
L 388.325459 245.615193 
L 388.325459 245.433259 
L 391.609747 245.433259 
L 391.609747 245.069392 
L 392.704509 245.069392 
L 392.704509 245.251326 
L 393.799272 245.251326 
L 393.799272 245.615193 
L 394.894034 245.615193 
L 394.894034 245.797127 
L 395.988797 245.797127 
L 395.988797 245.433259 
L 397.08356 245.433259 
L 397.08356 245.615193 
L 398.178322 245.615193 
L 398.178322 245.615193 
" clip-path="url(#p9bbac12d9e)" style="fill: none; stroke: #1f77b4; stroke-width: 1.5; stroke-linecap: square"/>
   </g>
   <g id="patch_3">
    <path d="M 53.328125 257.158895 
L 53.328125 7.2 
" style="fill: none; stroke: #000000; stroke-width: 0.8; stroke-linejoin: miter; stroke-linecap: square"/>
   </g>
   <g id="patch_4">
    <path d="M 414.59976 257.158895 
L 414.59976 7.2 
" style="fill: none; stroke: #000000; stroke-width: 0.8; stroke-linejoin: miter; stroke-linecap: square"/>
   </g>
   <g id="patch_5">
    <path d="M 53.328125 257.158895 
L 414.59976 257.158895 
" style="fill: none; stroke: #000000; stroke-width: 0.8; stroke-linejoin: miter; stroke-linecap: square"/>
   </g>
   <g id="patch_6">
    <path d="M 53.328125 7.2 
L 414.59976 7.2 
" style="fill: none; stroke: #000000; stroke-width: 0.8; stroke-linejoin: miter; stroke-linecap: square"/>
   </g>
  </g>
  <g id="axes_2">
   <g id="patch_7">
    <path d="M 503.927885 257.158895 
L 865.19952 257.158895 
L 865.19952 7.2 
L 503.927885 7.2 
z
" style="fill: #ffffff"/>
   </g>
   <g id="matplotlib.axis_3">
    <g id="xtick_7">
     <g id="line2d_15">
      <g>
       <use xlink:href="#m0a94b7bcbf" x="517.036656" y="257.158895" style="stroke: #000000; stroke-width: 0.8"/>
      </g>
     </g>
     <g id="text_16">
      <!-- 0.0 -->
      <g transform="translate(509.085093 271.757332) scale(0.1 -0.1)">
       <defs>
        <path id="DejaVuSans-2e" d="M 684 794 
L 1344 794 
L 1344 0 
L 684 0 
L 684 794 
z
" transform="scale(0.015625)"/>
       </defs>
       <use xlink:href="#DejaVuSans-30"/>
       <use xlink:href="#DejaVuSans-2e" transform="translate(63.623047 0)"/>
       <use xlink:href="#DejaVuSans-30" transform="translate(95.410156 0)"/>
      </g>
     </g>
    </g>
    <g id="xtick_8">
     <g id="line2d_16">
      <g>
       <use xlink:href="#m0a94b7bcbf" x="558.729184" y="257.158895" style="stroke: #000000; stroke-width: 0.8"/>
      </g>
     </g>
     <g id="text_17">
      <!-- 2.5 -->
      <g transform="translate(550.777621 271.757332) scale(0.1 -0.1)">
       <use xlink:href="#DejaVuSans-32"/>
       <use xlink:href="#DejaVuSans-2e" transform="translate(63.623047 0)"/>
       <use xlink:href="#DejaVuSans-35" transform="translate(95.410156 0)"/>
      </g>
     </g>
    </g>
    <g id="xtick_9">
     <g id="line2d_17">
      <g>
       <use xlink:href="#m0a94b7bcbf" x="600.421711" y="257.158895" style="stroke: #000000; stroke-width: 0.8"/>
      </g>
     </g>
     <g id="text_18">
      <!-- 5.0 -->
      <g transform="translate(592.470149 271.757332) scale(0.1 -0.1)">
       <use xlink:href="#DejaVuSans-35"/>
       <use xlink:href="#DejaVuSans-2e" transform="translate(63.623047 0)"/>
       <use xlink:href="#DejaVuSans-30" transform="translate(95.410156 0)"/>
      </g>
     </g>
    </g>
    <g id="xtick_10">
     <g id="line2d_18">
      <g>
       <use xlink:href="#m0a94b7bcbf" x="642.114239" y="257.158895" style="stroke: #000000; stroke-width: 0.8"/>
      </g>
     </g>
     <g id="text_19">
      <!-- 7.5 -->
      <g transform="translate(634.162677 271.757332) scale(0.1 -0.1)">
       <defs>
        <path id="DejaVuSans-37" d="M 525 4666 
L 3525 4666 
L 3525 4397 
L 1831 0 
L 1172 0 
L 2766 4134 
L 525 4134 
L 525 4666 
z
" transform="scale(0.015625)"/>
       </defs>
       <use xlink:href="#DejaVuSans-37"/>
       <use xlink:href="#DejaVuSans-2e" transform="translate(63.623047 0)"/>
       <use xlink:href="#DejaVuSans-35" transform="translate(95.410156 0)"/>
      </g>
     </g>
    </g>
    <g id="xtick_11">
     <g id="line2d_19">
      <g>
       <use xlink:href="#m0a94b7bcbf" x="683.806767" y="257.158895" style="stroke: #000000; stroke-width: 0.8"/>
      </g>
     </g>
     <g id="text_20">
      <!-- 10.0 -->
      <g transform="translate(672.673954 271.757332) scale(0.1 -0.1)">
       <use xlink:href="#DejaVuSans-31"/>
       <use xlink:href="#DejaVuSans-30" transform="translate(63.623047 0)"/>
       <use xlink:href="#DejaVuSans-2e" transform="translate(127.246094 0)"/>
       <use xlink:href="#DejaVuSans-30" transform="translate(159.033203 0)"/>
      </g>
     </g>
    </g>
    <g id="xtick_12">
     <g id="line2d_20">
      <g>
       <use xlink:href="#m0a94b7bcbf" x="725.499295" y="257.158895" style="stroke: #000000; stroke-width: 0.8"/>
      </g>
     </g>
     <g id="text_21">
      <!-- 12.5 -->
      <g transform="translate(714.366482 271.757332) scale(0.1 -0.1)">
       <use xlink:href="#DejaVuSans-31"/>
       <use xlink:href="#DejaVuSans-32" transform="translate(63.623047 0)"/>
       <use xlink:href="#DejaVuSans-2e" transform="translate(127.246094 0)"/>
       <use xlink:href="#DejaVuSans-35" transform="translate(159.033203 0)"/>
      </g>
     </g>
    </g>
    <g id="xtick_13">
     <g id="line2d_21">
      <g>
       <use xlink:href="#m0a94b7bcbf" x="767.191822" y="257.158895" style="stroke: #000000; stroke-width: 0.8"/>
      </g>
     </g>
     <g id="text_22">
      <!-- 15.0 -->
      <g transform="translate(756.05901 271.757332) scale(0.1 -0.1)">
       <use xlink:href="#DejaVuSans-31"/>
       <use xlink:href="#DejaVuSans-35" transform="translate(63.623047 0)"/>
       <use xlink:href="#DejaVuSans-2e" transform="translate(127.246094 0)"/>
       <use xlink:href="#DejaVuSans-30" transform="translate(159.033203 0)"/>
      </g>
     </g>
    </g>
    <g id="xtick_14">
     <g id="line2d_22">
      <g>
       <use xlink:href="#m0a94b7bcbf" x="808.88435" y="257.158895" style="stroke: #000000; stroke-width: 0.8"/>
      </g>
     </g>
     <g id="text_23">
      <!-- 17.5 -->
      <g transform="translate(797.751538 271.757332) scale(0.1 -0.1)">
       <use xlink:href="#DejaVuSans-31"/>
       <use xlink:href="#DejaVuSans-37" transform="translate(63.623047 0)"/>
       <use xlink:href="#DejaVuSans-2e" transform="translate(127.246094 0)"/>
       <use xlink:href="#DejaVuSans-35" transform="translate(159.033203 0)"/>
      </g>
     </g>
    </g>
    <g id="xtick_15">
     <g id="line2d_23">
      <g>
       <use xlink:href="#m0a94b7bcbf" x="850.576878" y="257.158895" style="stroke: #000000; stroke-width: 0.8"/>
      </g>
     </g>
     <g id="text_24">
      <!-- 20.0 -->
      <g transform="translate(839.444065 271.757332) scale(0.1 -0.1)">
       <use xlink:href="#DejaVuSans-32"/>
       <use xlink:href="#DejaVuSans-30" transform="translate(63.623047 0)"/>
       <use xlink:href="#DejaVuSans-2e" transform="translate(127.246094 0)"/>
       <use xlink:href="#DejaVuSans-30" transform="translate(159.033203 0)"/>
      </g>
     </g>
    </g>
    <g id="text_25">
     <!-- wavelength [Å] -->
     <g transform="translate(646.526202 287.119832) scale(0.1 -0.1)">
      <defs>
       <path id="DejaVuSans-77" d="M 269 3500 
L 844 3500 
L 1563 769 
L 2278 3500 
L 2956 3500 
L 3675 769 
L 4391 3500 
L 4966 3500 
L 4050 0 
L 3372 0 
L 2619 2869 
L 1863 0 
L 1184 0 
L 269 3500 
z
" transform="scale(0.015625)"/>
       <path id="DejaVuSans-61" d="M 2194 1759 
Q 1497 1759 1228 1600 
Q 959 1441 959 1056 
Q 959 750 1161 570 
Q 1363 391 1709 391 
Q 2188 391 2477 730 
Q 2766 1069 2766 1631 
L 2766 1759 
L 2194 1759 
z
M 3341 1997 
L 3341 0 
L 2766 0 
L 2766 531 
Q 2569 213 2275 61 
Q 1981 -91 1556 -91 
Q 1019 -91 701 211 
Q 384 513 384 1019 
Q 384 1609 779 1909 
Q 1175 2209 1959 2209 
L 2766 2209 
L 2766 2266 
Q 2766 2663 2505 2880 
Q 2244 3097 1772 3097 
Q 1472 3097 1187 3025 
Q 903 2953 641 2809 
L 641 3341 
Q 956 3463 1253 3523 
Q 1550 3584 1831 3584 
Q 2591 3584 2966 3190 
Q 3341 2797 3341 1997 
z
" transform="scale(0.015625)"/>
       <path id="DejaVuSans-76" d="M 191 3500 
L 800 3500 
L 1894 563 
L 2988 3500 
L 3597 3500 
L 2284 0 
L 1503 0 
L 191 3500 
z
" transform="scale(0.015625)"/>
       <path id="DejaVuSans-6c" d="M 603 4863 
L 1178 4863 
L 1178 0 
L 603 0 
L 603 4863 
z
" transform="scale(0.015625)"/>
       <path id="DejaVuSans-67" d="M 2906 1791 
Q 2906 2416 2648 2759 
Q 2391 3103 1925 3103 
Q 1463 3103 1205 2759 
Q 947 2416 947 1791 
Q 947 1169 1205 825 
Q 1463 481 1925 481 
Q 2391 481 2648 825 
Q 2906 1169 2906 1791 
z
M 3481 434 
Q 3481 -459 3084 -895 
Q 2688 -1331 1869 -1331 
Q 1566 -1331 1297 -1286 
Q 1028 -1241 775 -1147 
L 775 -588 
Q 1028 -725 1275 -790 
Q 1522 -856 1778 -856 
Q 2344 -856 2625 -561 
Q 2906 -266 2906 331 
L 2906 616 
Q 2728 306 2450 153 
Q 2172 0 1784 0 
Q 1141 0 747 490 
Q 353 981 353 1791 
Q 353 2603 747 3093 
Q 1141 3584 1784 3584 
Q 2172 3584 2450 3431 
Q 2728 3278 2906 2969 
L 2906 3500 
L 3481 3500 
L 3481 434 
z
" transform="scale(0.015625)"/>
       <path id="DejaVuSans-c5" d="M 2663 5081 
Q 2663 5278 2523 5417 
Q 2384 5556 2188 5556 
Q 1988 5556 1852 5420 
Q 1716 5284 1716 5081 
Q 1716 4884 1853 4746 
Q 1991 4609 2188 4609 
Q 2384 4609 2523 4746 
Q 2663 4884 2663 5081 
z
M 2188 4044 
L 1338 1722 
L 3041 1722 
L 2188 4044 
z
M 1716 4366 
Q 1525 4494 1428 4673 
Q 1331 4853 1331 5081 
Q 1331 5441 1579 5691 
Q 1828 5941 2188 5941 
Q 2544 5941 2795 5689 
Q 3047 5438 3047 5081 
Q 3047 4863 2948 4678 
Q 2850 4494 2663 4366 
L 4325 0 
L 3669 0 
L 3244 1197 
L 1141 1197 
L 716 0 
L 50 0 
L 1716 4366 
z
" transform="scale(0.015625)"/>
      </defs>
      <use xlink:href="#DejaVuSans-77"/>
      <use xlink:href="#DejaVuSans-61" transform="translate(81.787109 0)"/>
      <use xlink:href="#DejaVuSans-76" transform="translate(143.066406 0)"/>
      <use xlink:href="#DejaVuSans-65" transform="translate(202.246094 0)"/>
      <use xlink:href="#DejaVuSans-6c" transform="translate(263.769531 0)"/>
      <use xlink:href="#DejaVuSans-65" transform="translate(291.552734 0)"/>
      <use xlink:href="#DejaVuSans-6e" transform="translate(353.076172 0)"/>
      <use xlink:href="#DejaVuSans-67" transform="translate(416.455078 0)"/>
      <use xlink:href="#DejaVuSans-74" transform="translate(479.931641 0)"/>
      <use xlink:href="#DejaVuSans-68" transform="translate(519.140625 0)"/>
      <use xlink:href="#DejaVuSans-20" transform="translate(582.519531 0)"/>
      <use xlink:href="#DejaVuSans-5b" transform="translate(614.306641 0)"/>
      <use xlink:href="#DejaVuSans-c5" transform="translate(653.320312 0)"/>
      <use xlink:href="#DejaVuSans-5d" transform="translate(721.728516 0)"/>
     </g>
    </g>
   </g>
   <g id="matplotlib.axis_4">
    <g id="ytick_8">
     <g id="line2d_24">
      <g>
       <use xlink:href="#mb60e6917e9" x="503.927885" y="245.797127" style="stroke: #000000; stroke-width: 0.8"/>
      </g>
     </g>
     <g id="text_26">
      <!-- 0 -->
      <g transform="translate(490.565385 249.596346) scale(0.1 -0.1)">
       <use xlink:href="#DejaVuSans-30"/>
      </g>
     </g>
    </g>
    <g id="ytick_9">
     <g id="line2d_25">
      <g>
       <use xlink:href="#mb60e6917e9" x="503.927885" y="192.717155" style="stroke: #000000; stroke-width: 0.8"/>
      </g>
     </g>
     <g id="text_27">
      <!-- 1000 -->
      <g transform="translate(471.477885 196.516374) scale(0.1 -0.1)">
       <use xlink:href="#DejaVuSans-31"/>
       <use xlink:href="#DejaVuSans-30" transform="translate(63.623047 0)"/>
       <use xlink:href="#DejaVuSans-30" transform="translate(127.246094 0)"/>
       <use xlink:href="#DejaVuSans-30" transform="translate(190.869141 0)"/>
      </g>
     </g>
    </g>
    <g id="ytick_10">
     <g id="line2d_26">
      <g>
       <use xlink:href="#mb60e6917e9" x="503.927885" y="139.637184" style="stroke: #000000; stroke-width: 0.8"/>
      </g>
     </g>
     <g id="text_28">
      <!-- 2000 -->
      <g transform="translate(471.477885 143.436402) scale(0.1 -0.1)">
       <use xlink:href="#DejaVuSans-32"/>
       <use xlink:href="#DejaVuSans-30" transform="translate(63.623047 0)"/>
       <use xlink:href="#DejaVuSans-30" transform="translate(127.246094 0)"/>
       <use xlink:href="#DejaVuSans-30" transform="translate(190.869141 0)"/>
      </g>
     </g>
    </g>
    <g id="ytick_11">
     <g id="line2d_27">
      <g>
       <use xlink:href="#mb60e6917e9" x="503.927885" y="86.557212" style="stroke: #000000; stroke-width: 0.8"/>
      </g>
     </g>
     <g id="text_29">
      <!-- 3000 -->
      <g transform="translate(471.477885 90.356431) scale(0.1 -0.1)">
       <use xlink:href="#DejaVuSans-33"/>
       <use xlink:href="#DejaVuSans-30" transform="translate(63.623047 0)"/>
       <use xlink:href="#DejaVuSans-30" transform="translate(127.246094 0)"/>
       <use xlink:href="#DejaVuSans-30" transform="translate(190.869141 0)"/>
      </g>
     </g>
    </g>
    <g id="ytick_12">
     <g id="line2d_28">
      <g>
       <use xlink:href="#mb60e6917e9" x="503.927885" y="33.47724" style="stroke: #000000; stroke-width: 0.8"/>
      </g>
     </g>
     <g id="text_30">
      <!-- 4000 -->
      <g transform="translate(471.477885 37.276459) scale(0.1 -0.1)">
       <use xlink:href="#DejaVuSans-34"/>
       <use xlink:href="#DejaVuSans-30" transform="translate(63.623047 0)"/>
       <use xlink:href="#DejaVuSans-30" transform="translate(127.246094 0)"/>
       <use xlink:href="#DejaVuSans-30" transform="translate(190.869141 0)"/>
      </g>
     </g>
    </g>
    <g id="text_31">
     <!-- [counts] -->
     <g transform="translate(465.398197 152.791947) rotate(-90) scale(0.1 -0.1)">
      <use xlink:href="#DejaVuSans-5b"/>
      <use xlink:href="#DejaVuSans-63" transform="translate(39.013672 0)"/>
      <use xlink:href="#DejaVuSans-6f" transform="translate(93.994141 0)"/>
      <use xlink:href="#DejaVuSans-75" transform="translate(155.175781 0)"/>
      <use xlink:href="#DejaVuSans-6e" transform="translate(218.554688 0)"/>
      <use xlink:href="#DejaVuSans-74" transform="translate(281.933594 0)"/>
      <use xlink:href="#DejaVuSans-73" transform="translate(321.142578 0)"/>
      <use xlink:href="#DejaVuSans-5d" transform="translate(373.242188 0)"/>
     </g>
    </g>
   </g>
   <g id="line2d_29">
    <path d="M 520.349323 157.684374 
L 521.444085 157.684374 
L 521.444085 148.607699 
L 522.538848 148.607699 
L 522.538848 140.380303 
L 523.633611 140.380303 
L 523.633611 141.017263 
L 524.728373 141.017263 
L 524.728373 147.705339 
L 525.823136 147.705339 
L 525.823136 151.261697 
L 526.917898 151.261697 
L 526.917898 139.955663 
L 528.012661 139.955663 
L 528.012661 125.677151 
L 529.107423 125.677151 
L 529.107423 106.462201 
L 530.202186 106.462201 
L 530.202186 84.327853 
L 531.296948 84.327853 
L 531.296948 62.511985 
L 532.391711 62.511985 
L 532.391711 37.033598 
L 533.486473 37.033598 
L 533.486473 21.003447 
L 534.581236 21.003447 
L 534.581236 24.612885 
L 535.675998 24.612885 
L 535.675998 18.561768 
L 536.770761 18.561768 
L 536.770761 22.277366 
L 537.865523 22.277366 
L 537.865523 32.256401 
L 538.960286 32.256401 
L 538.960286 34.698079 
L 540.055048 34.698079 
L 540.055048 45.738713 
L 541.149811 45.738713 
L 541.149811 60.866505 
L 542.244574 60.866505 
L 542.244574 68.669261 
L 543.339336 68.669261 
L 543.339336 77.958256 
L 544.434099 77.958256 
L 544.434099 85.389452 
L 545.528861 85.389452 
L 545.528861 88.99889 
L 546.623624 88.99889 
L 546.623624 92.926808 
L 547.718386 92.926808 
L 547.718386 95.050007 
L 548.813149 95.050007 
L 548.813149 97.704006 
L 549.907911 97.704006 
L 549.907911 97.226286 
L 551.002674 97.226286 
L 551.002674 90.48513 
L 552.097436 90.48513 
L 552.097436 84.327853 
L 553.192199 84.327853 
L 553.192199 76.896657 
L 554.286961 76.896657 
L 554.286961 70.31474 
L 555.381724 70.31474 
L 555.381724 57.628627 
L 556.476486 57.628627 
L 556.476486 43.933994 
L 557.571249 43.933994 
L 557.571249 46.375673 
L 558.666012 46.375673 
L 558.666012 31.884841 
L 559.760774 31.884841 
L 559.760774 33.42416 
L 560.855537 33.42416 
L 560.855537 34.06112 
L 561.950299 34.06112 
L 561.950299 52.42679 
L 563.045062 52.42679 
L 563.045062 48.339632 
L 564.139824 48.339632 
L 564.139824 71.80098 
L 565.234587 71.80098 
L 565.234587 77.905176 
L 566.329349 77.905176 
L 566.329349 84.699413 
L 567.424112 84.699413 
L 567.424112 94.943847 
L 568.518874 94.943847 
L 568.518874 102.056564 
L 569.613637 102.056564 
L 569.613637 104.126682 
L 570.708399 104.126682 
L 570.708399 118.882915 
L 571.803162 118.882915 
L 571.803162 127.90651 
L 572.897924 127.90651 
L 572.897924 126.63259 
L 573.992687 126.63259 
L 573.992687 138.734824 
L 575.087449 138.734824 
L 575.087449 143.034302 
L 576.182212 143.034302 
L 576.182212 146.27218 
L 577.276975 146.27218 
L 577.276975 152.747937 
L 578.371737 152.747937 
L 578.371737 154.446496 
L 579.4665 154.446496 
L 579.4665 156.357375 
L 580.561262 156.357375 
L 580.561262 163.151611 
L 581.656025 163.151611 
L 581.656025 168.618848 
L 582.750787 168.618848 
L 582.750787 173.502206 
L 583.84555 173.502206 
L 583.84555 176.846244 
L 584.940312 176.846244 
L 584.940312 177.960923 
L 586.035075 177.960923 
L 586.035075 181.039562 
L 587.129837 181.039562 
L 587.129837 185.869839 
L 588.2246 185.869839 
L 588.2246 186.719118 
L 589.319362 186.719118 
L 589.319362 188.205358 
L 590.414125 188.205358 
L 590.414125 194.893434 
L 592.60365 194.893434 
L 592.60365 198.396712 
L 593.698412 198.396712 
L 593.698412 202.85543 
L 594.793175 202.85543 
L 594.793175 202.43079 
L 595.887938 202.43079 
L 595.887938 204.500909 
L 596.9827 204.500909 
L 596.9827 206.783348 
L 598.077463 206.783348 
L 598.077463 206.624108 
L 599.172225 206.624108 
L 599.172225 208.481907 
L 600.266988 208.481907 
L 600.266988 207.314148 
L 601.36175 207.314148 
L 601.36175 213.577584 
L 602.456513 213.577584 
L 602.456513 211.135905 
L 603.551275 211.135905 
L 603.551275 212.197505 
L 604.646038 212.197505 
L 604.646038 217.452422 
L 605.7408 217.452422 
L 605.7408 216.019263 
L 606.835563 216.019263 
L 606.835563 219.257141 
L 607.930325 219.257141 
L 607.930325 219.416381 
L 609.025088 219.416381 
L 609.025088 221.64574 
L 610.11985 221.64574 
L 610.11985 222.12346 
L 612.309375 222.17654 
L 612.309375 224.193579 
L 613.404138 224.193579 
L 613.404138 225.573658 
L 614.498901 225.573658 
L 614.498901 223.928179 
L 615.593663 223.928179 
L 615.593663 226.900657 
L 616.688426 226.900657 
L 616.688426 227.643777 
L 617.783188 227.643777 
L 617.783188 227.484537 
L 618.877951 227.484537 
L 618.877951 229.660816 
L 619.972713 229.660816 
L 619.972713 227.856097 
L 621.067476 227.856097 
L 621.067476 228.917696 
L 622.162238 228.917696 
L 622.162238 230.297775 
L 623.257001 230.297775 
L 623.257001 231.784015 
L 624.351763 231.784015 
L 624.351763 232.155574 
L 625.446526 232.155574 
L 625.446526 230.775495 
L 626.541288 230.775495 
L 626.541288 233.111014 
L 627.636051 233.111014 
L 627.636051 233.429494 
L 628.730813 233.429494 
L 628.730813 231.890174 
L 629.825576 231.890174 
L 629.825576 234.013373 
L 630.920339 234.013373 
L 630.920339 234.809573 
L 632.015101 234.809573 
L 632.015101 233.535654 
L 633.109864 233.535654 
L 633.109864 236.242732 
L 634.204626 236.242732 
L 634.204626 235.977332 
L 635.299389 235.977332 
L 635.299389 235.818092 
L 636.394151 235.818092 
L 636.394151 237.622811 
L 637.488914 237.622811 
L 637.488914 236.826612 
L 638.583676 236.826612 
L 638.583676 236.295812 
L 639.678439 236.295812 
L 639.678439 239.002891 
L 640.773201 239.002891 
L 640.773201 237.728971 
L 642.962726 237.782051 
L 642.962726 238.312851 
L 644.057489 238.312851 
L 644.057489 238.737491 
L 645.152251 238.737491 
L 645.152251 239.162131 
L 646.247014 239.162131 
L 646.247014 239.58677 
L 647.341776 239.58677 
L 647.341776 239.85217 
L 649.531302 239.79909 
L 649.531302 240.48913 
L 650.626064 240.48913 
L 650.626064 240.70145 
L 651.720827 240.70145 
L 651.720827 239.79909 
L 652.815589 239.79909 
L 652.815589 240.38297 
L 653.910352 240.38297 
L 653.910352 241.550729 
L 655.005114 241.550729 
L 655.005114 239.90525 
L 656.099877 239.90525 
L 656.099877 240.22373 
L 657.194639 240.22373 
L 657.194639 241.285329 
L 658.289402 241.285329 
L 658.289402 240.64837 
L 659.384164 240.64837 
L 659.384164 239.85217 
L 660.478927 239.85217 
L 660.478927 241.07301 
L 661.573689 241.07301 
L 661.573689 241.497649 
L 662.668452 241.497649 
L 662.668452 241.338409 
L 664.857977 241.338409 
L 664.857977 242.028449 
L 665.952739 242.028449 
L 665.952739 242.453089 
L 667.047502 242.453089 
L 667.047502 241.391489 
L 668.142265 241.391489 
L 668.142265 241.656889 
L 669.237027 241.656889 
L 669.237027 242.293849 
L 670.33179 242.293849 
L 670.33179 241.869209 
L 671.426552 241.869209 
L 671.426552 242.506169 
L 672.521315 242.506169 
L 672.521315 242.930809 
L 673.616077 242.930809 
L 673.616077 242.453089 
L 676.900365 242.453089 
L 676.900365 243.090048 
L 677.995127 243.090048 
L 677.995127 243.833168 
L 679.08989 243.833168 
L 679.08989 243.673928 
L 680.184652 243.673928 
L 680.184652 242.771569 
L 681.279415 242.771569 
L 681.279415 242.559249 
L 682.374177 242.559249 
L 682.374177 243.036969 
L 684.563702 242.983889 
L 684.563702 243.567768 
L 685.658465 243.567768 
L 685.658465 242.877729 
L 686.753228 242.877729 
L 686.753228 243.249288 
L 687.84799 243.249288 
L 687.84799 243.461608 
L 688.942753 243.461608 
L 688.942753 244.576288 
L 690.037515 244.576288 
L 690.037515 243.408528 
L 691.132278 243.408528 
L 691.132278 243.036969 
L 692.22704 243.036969 
L 692.22704 243.939328 
L 693.321803 243.939328 
L 693.321803 243.461608 
L 694.416565 243.461608 
L 694.416565 244.417048 
L 695.511328 244.417048 
L 695.511328 243.620848 
L 696.60609 243.620848 
L 696.60609 243.939328 
L 699.890378 243.833168 
L 699.890378 244.363968 
L 700.98514 244.363968 
L 700.98514 244.151648 
L 702.079903 244.151648 
L 702.079903 243.992408 
L 703.174666 243.992408 
L 703.174666 244.204728 
L 705.364191 244.151648 
L 705.364191 243.939328 
L 706.458953 243.939328 
L 706.458953 244.735528 
L 707.553716 244.735528 
L 707.553716 245.000927 
L 708.648478 245.000927 
L 708.648478 244.735528 
L 709.743241 244.735528 
L 709.743241 244.417048 
L 710.838003 244.417048 
L 710.838003 244.947847 
L 711.932766 244.947847 
L 711.932766 244.098568 
L 713.027528 244.098568 
L 713.027528 244.841688 
L 714.122291 244.841688 
L 714.122291 244.363968 
L 715.217053 244.363968 
L 715.217053 244.523208 
L 716.311816 244.523208 
L 716.311816 244.682448 
L 717.406578 244.682448 
L 717.406578 244.363968 
L 718.501341 244.363968 
L 718.501341 244.151648 
L 719.596103 244.151648 
L 719.596103 244.735528 
L 720.690866 244.735528 
L 720.690866 244.576288 
L 721.785629 244.576288 
L 721.785629 244.841688 
L 723.975154 244.947847 
L 723.975154 244.629368 
L 726.164679 244.629368 
L 726.164679 245.000927 
L 727.259441 245.000927 
L 727.259441 244.523208 
L 728.354204 244.523208 
L 728.354204 245.054007 
L 729.448966 245.054007 
L 729.448966 244.841688 
L 731.638491 244.841688 
L 731.638491 245.372487 
L 732.733254 245.372487 
L 732.733254 244.947847 
L 733.828016 244.947847 
L 733.828016 245.107087 
L 734.922779 245.107087 
L 734.922779 244.841688 
L 736.017541 244.841688 
L 736.017541 245.160167 
L 738.207066 245.054007 
L 738.207066 245.319407 
L 740.396592 245.319407 
L 740.396592 244.947847 
L 742.586117 244.894768 
L 742.586117 245.160167 
L 743.680879 245.160167 
L 743.680879 244.682448 
L 744.775642 244.682448 
L 744.775642 244.947847 
L 745.870404 244.947847 
L 745.870404 245.319407 
L 748.059929 245.213247 
L 748.059929 245.531727 
L 749.154692 245.531727 
L 749.154692 245.107087 
L 750.249454 245.107087 
L 750.249454 244.894768 
L 751.344217 244.894768 
L 751.344217 245.213247 
L 755.723267 245.319407 
L 755.723267 245.531727 
L 757.912792 245.425567 
L 757.912792 245.000927 
L 759.007555 245.000927 
L 759.007555 245.425567 
L 760.102317 245.425567 
L 760.102317 245.000927 
L 761.19708 245.000927 
L 761.19708 245.531727 
L 762.291842 245.531727 
L 762.291842 245.160167 
L 763.386605 245.160167 
L 763.386605 245.425567 
L 765.57613 245.478647 
L 765.57613 245.107087 
L 766.670892 245.107087 
L 766.670892 245.319407 
L 768.860417 245.319407 
L 768.860417 245.478647 
L 772.144705 245.425567 
L 772.144705 245.266327 
L 774.33423 245.266327 
L 774.33423 245.425567 
L 776.523755 245.372487 
L 776.523755 245.107087 
L 777.618518 245.107087 
L 777.618518 245.478647 
L 778.71328 245.478647 
L 778.71328 245.637887 
L 780.902805 245.584807 
L 780.902805 245.478647 
L 784.187093 245.425567 
L 784.187093 245.637887 
L 785.281855 245.637887 
L 785.281855 245.478647 
L 789.660905 245.531727 
L 789.660905 245.266327 
L 790.755668 245.266327 
L 790.755668 245.425567 
L 791.85043 245.425567 
L 791.85043 245.690967 
L 792.945193 245.690967 
L 792.945193 245.478647 
L 794.039956 245.478647 
L 794.039956 245.637887 
L 796.229481 245.637887 
L 796.229481 245.372487 
L 798.419006 245.478647 
L 798.419006 245.690967 
L 800.608531 245.637887 
L 800.608531 245.531727 
L 803.892818 245.584807 
L 803.892818 245.744047 
L 804.987581 245.744047 
L 804.987581 245.531727 
L 806.082343 245.531727 
L 806.082343 245.797127 
L 807.177106 245.797127 
L 807.177106 245.637887 
L 820.314256 245.637887 
L 820.314256 245.478647 
L 821.409019 245.478647 
L 821.409019 245.744047 
L 831.261882 245.690967 
L 831.261882 245.531727 
L 833.451407 245.637887 
L 833.451407 245.690967 
L 848.778082 245.690967 
L 848.778082 245.690967 
" clip-path="url(#p903c4c5d2e)" style="fill: none; stroke: #1f77b4; stroke-width: 1.5; stroke-linecap: square"/>
   </g>
   <g id="patch_8">
    <path d="M 503.927885 257.158895 
L 503.927885 7.2 
" style="fill: none; stroke: #000000; stroke-width: 0.8; stroke-linejoin: miter; stroke-linecap: square"/>
   </g>
   <g id="patch_9">
    <path d="M 865.19952 257.158895 
L 865.19952 7.2 
" style="fill: none; stroke: #000000; stroke-width: 0.8; stroke-linejoin: miter; stroke-linecap: square"/>
   </g>
   <g id="patch_10">
    <path d="M 503.927885 257.158895 
L 865.19952 257.158895 
" style="fill: none; stroke: #000000; stroke-width: 0.8; stroke-linejoin: miter; stroke-linecap: square"/>
   </g>
   <g id="patch_11">
    <path d="M 503.927885 7.2 
L 865.19952 7.2 
" style="fill: none; stroke: #000000; stroke-width: 0.8; stroke-linejoin: miter; stroke-linecap: square"/>
   </g>
  </g>
 </g>
 <defs>
  <clipPath id="p9bbac12d9e">
   <rect x="53.328125" y="7.2" width="361.271635" height="249.958895"/>
  </clipPath>
  <clipPath id="p903c4c5d2e">
   <rect x="503.927885" y="7.2" width="361.271635" height="249.958895"/>
  </clipPath>
 </defs>
</svg>
