<?xml version="1.0" encoding="UTF-8" standalone="no"?>
<!DOCTYPE svg PUBLIC "-//W3C//DTD SVG 1.1//EN"
 "http://www.w3.org/Graphics/SVG/1.1/DTD/svg11.dtd">
<!-- Generated by graphviz version 14.1.2 (20260126.1125)
 -->
<!-- Pages: 1 -->
<svg width="1023pt" height="240pt"
 viewBox="0.00 0.00 1023.00 240.00" xmlns="http://www.w3.org/2000/svg" xmlns:xlink="http://www.w3.org/1999/xlink">
<g id="graph0" class="graph" transform="scale(1 1) rotate(0) translate(4 236.25)">
<polygon fill="white" stroke="none" points="-4,4 -4,-236.25 1019.12,-236.25 1019.12,4 -4,4"/>
<!-- DetectorLtotal[SampleRun] -->
<g id="node1" class="node">
<title>DetectorLtotal[SampleRun]</title>
<polygon fill="none" stroke="black" points="267.75,-98.12 55.25,-98.12 55.25,-72.88 267.75,-72.88 267.75,-98.12"/>
<text xml:space="preserve" text-anchor="start" x="63.25" y="-80.83" font-family="Times,serif" font-size="14.00">DetectorLtotal[SampleRun]</text>
</g>
<!-- WavelengthDetector[SampleRun] -->
<g id="node9" class="node">
<title>WavelengthDetector[SampleRun]</title>
<polygon fill="none" stroke="black" points="727.75,-33 473.25,-33 473.25,0 727.75,0 727.75,-33"/>
<text xml:space="preserve" text-anchor="start" x="481.25" y="-16.7" font-family="Times,serif" font-size="14.00">WavelengthDetector[SampleRun]</text>
<text xml:space="preserve" text-anchor="start" x="516.88" y="-5.55" font-family="Times,serif" font-size="11.00">via:</text>
<text xml:space="preserve" text-anchor="start" x="537.12" y="-5.55" font-family="Times,serif" font-style="italic" font-size="11.00">detector_wavelength_data</text>
</g>
<!-- DetectorLtotal[SampleRun]&#45;&gt;WavelengthDetector[SampleRun] -->
<g id="edge7" class="edge">
<title>DetectorLtotal[SampleRun]&#45;&gt;WavelengthDetector[SampleRun]</title>
<path fill="none" stroke="black" d="M240.75,-72.41C308.77,-62.02 407.73,-46.92 484.65,-35.18"/>
<polygon fill="black" stroke="black" points="484.98,-38.67 494.33,-33.7 483.92,-31.75 484.98,-38.67"/>
</g>
<!-- LookupTable[SampleRun, NXdetector] -->
<g id="node2" class="node">
<title>LookupTable[SampleRun, NXdetector]</title>
<polygon fill="none" stroke="black" points="322,-171 33,-171 33,-138 322,-138 322,-171"/>
<text xml:space="preserve" text-anchor="start" x="41" y="-154.7" font-family="Times,serif" font-size="14.00">LookupTable[SampleRun, NXdetector]</text>
<text xml:space="preserve" text-anchor="start" x="89.75" y="-143.55" font-family="Times,serif" font-size="11.00">via:</text>
<text xml:space="preserve" text-anchor="start" x="110" y="-143.55" font-family="Times,serif" font-style="italic" font-size="11.00">load_lookup_table_from_file</text>
</g>
<!-- ErrorLimitedLookupTable[SampleRun, NXdetector] -->
<g id="node3" class="node">
<title>ErrorLimitedLookupTable[SampleRun, NXdetector]</title>
<polygon fill="none" stroke="black" points="657.88,-102 275.12,-102 275.12,-69 657.88,-69 657.88,-102"/>
<text xml:space="preserve" text-anchor="start" x="283.12" y="-85.7" font-family="Times,serif" font-size="14.00">ErrorLimitedLookupTable[SampleRun, NXdetector]</text>
<text xml:space="preserve" text-anchor="start" x="371.62" y="-74.55" font-family="Times,serif" font-size="11.00">via:</text>
<text xml:space="preserve" text-anchor="start" x="391.88" y="-74.55" font-family="Times,serif" font-style="italic" font-size="11.00">mask_large_uncertainty_in_lut</text>
</g>
<!-- LookupTable[SampleRun, NXdetector]&#45;&gt;ErrorLimitedLookupTable[SampleRun, NXdetector] -->
<g id="edge1" class="edge">
<title>LookupTable[SampleRun, NXdetector]&#45;&gt;ErrorLimitedLookupTable[SampleRun, NXdetector]</title>
<path fill="none" stroke="black" d="M246.36,-137.54C288.53,-127.76 342.67,-115.21 386.71,-105"/>
<polygon fill="black" stroke="black" points="387.25,-108.47 396.2,-102.8 385.67,-101.65 387.25,-108.47"/>
</g>
<!-- ErrorLimitedLookupTable[SampleRun, NXdetector]&#45;&gt;WavelengthDetector[SampleRun] -->
<g id="edge6" class="edge">
<title>ErrorLimitedLookupTable[SampleRun, NXdetector]&#45;&gt;WavelengthDetector[SampleRun]</title>
<path fill="none" stroke="black" d="M498.26,-68.62C516.23,-59.63 538.94,-48.28 558.38,-38.56"/>
<polygon fill="black" stroke="black" points="559.77,-41.78 567.15,-34.17 556.64,-35.51 559.77,-41.78"/>
</g>
<!-- LookupTableRelativeErrorThreshold -->
<g id="node4" class="node">
<title>LookupTableRelativeErrorThreshold</title>
<polygon fill="none" stroke="red" stroke-dasharray="5,2" points="603.88,-167.12 329.12,-167.12 329.12,-141.88 603.88,-141.88 603.88,-167.12"/>
<text xml:space="preserve" text-anchor="start" x="337.12" y="-149.82" font-family="Times,serif" font-size="14.00" fill="red">LookupTableRelativeErrorThreshold</text>
</g>
<!-- LookupTableRelativeErrorThreshold&#45;&gt;ErrorLimitedLookupTable[SampleRun, NXdetector] -->
<g id="edge2" class="edge">
<title>LookupTableRelativeErrorThreshold&#45;&gt;ErrorLimitedLookupTable[SampleRun, NXdetector]</title>
<path fill="none" stroke="black" d="M466.5,-141.52C466.5,-133.71 466.5,-123.19 466.5,-113.43"/>
<polygon fill="black" stroke="black" points="470,-113.67 466.5,-103.67 463,-113.67 470,-113.67"/>
</g>
<!-- NeXusName[NXdetector] -->
<g id="node5" class="node">
<title>NeXusName[NXdetector]</title>
<polygon fill="none" stroke="black" points="807.88,-167.12 611.12,-167.12 611.12,-141.88 807.88,-141.88 807.88,-167.12"/>
<text xml:space="preserve" text-anchor="start" x="619.12" y="-149.82" font-family="Times,serif" font-size="14.00">NeXusName[NXdetector]</text>
</g>
<!-- NeXusName[NXdetector]&#45;&gt;ErrorLimitedLookupTable[SampleRun, NXdetector] -->
<g id="edge3" class="edge">
<title>NeXusName[NXdetector]&#45;&gt;ErrorLimitedLookupTable[SampleRun, NXdetector]</title>
<path fill="none" stroke="black" d="M665.78,-141.44C629.53,-131.45 577.34,-117.06 535.47,-105.52"/>
<polygon fill="black" stroke="black" points="536.53,-102.18 525.96,-102.9 534.67,-108.93 536.53,-102.18"/>
</g>
<!-- LookupTableFilename[SampleRun, NXdetector] -->
<g id="node6" class="node">
<title>LookupTableFilename[SampleRun, NXdetector]</title>
<polygon fill="none" stroke="red" stroke-dasharray="5,2" points="355,-232.25 0,-232.25 0,-207 355,-207 355,-232.25"/>
<text xml:space="preserve" text-anchor="start" x="8" y="-214.95" font-family="Times,serif" font-size="14.00" fill="red">LookupTableFilename[SampleRun, NXdetector]</text>
</g>
<!-- LookupTableFilename[SampleRun, NXdetector]&#45;&gt;LookupTable[SampleRun, NXdetector] -->
<g id="edge4" class="edge">
<title>LookupTableFilename[SampleRun, NXdetector]&#45;&gt;LookupTable[SampleRun, NXdetector]</title>
<path fill="none" stroke="black" d="M177.5,-206.75C177.5,-199.95 177.5,-191.13 177.5,-182.72"/>
<polygon fill="black" stroke="black" points="181,-182.89 177.5,-172.89 174,-182.89 181,-182.89"/>
</g>
<!-- PulseStrideOffset -->
<g id="node7" class="node">
<title>PulseStrideOffset</title>
<polygon fill="none" stroke="black" points="806.5,-98.12 664.5,-98.12 664.5,-72.88 806.5,-72.88 806.5,-98.12"/>
<text xml:space="preserve" text-anchor="start" x="672.5" y="-80.83" font-family="Times,serif" font-size="14.00">PulseStrideOffset</text>
</g>
<!-- PulseStrideOffset&#45;&gt;WavelengthDetector[SampleRun] -->
<g id="edge8" class="edge">
<title>PulseStrideOffset&#45;&gt;WavelengthDetector[SampleRun]</title>
<path fill="none" stroke="black" d="M711.36,-72.52C692.29,-63.06 665.21,-49.61 642.59,-38.39"/>
<polygon fill="black" stroke="black" points="644.42,-35.39 633.91,-34.08 641.31,-41.66 644.42,-35.39"/>
</g>
<!-- RawDetector[SampleRun] -->
<g id="node8" class="node">
<title>RawDetector[SampleRun]</title>
<polygon fill="none" stroke="black" points="1015.12,-98.12 813.88,-98.12 813.88,-72.88 1015.12,-72.88 1015.12,-98.12"/>
<text xml:space="preserve" text-anchor="start" x="821.88" y="-80.83" font-family="Times,serif" font-size="14.00">RawDetector[SampleRun]</text>
</g>
<!-- RawDetector[SampleRun]&#45;&gt;WavelengthDetector[SampleRun] -->
<g id="edge5" class="edge">
<title>RawDetector[SampleRun]&#45;&gt;WavelengthDetector[SampleRun]</title>
<path fill="none" stroke="black" d="M858,-72.44C810.26,-62.26 741.13,-47.51 686.52,-35.85"/>
<polygon fill="black" stroke="black" points="687.44,-32.47 676.93,-33.81 685.98,-39.32 687.44,-32.47"/>
</g>
</g>
</svg>
