<?xml version="1.0" encoding="utf-8" standalone="no"?>
<!DOCTYPE svg PUBLIC "-//W3C//DTD SVG 1.1//EN"
  "http://www.w3.org/Graphics/SVG/1.1/DTD/svg11.dtd">
<svg xmlns:xlink="http://www.w3.org/1999/xlink" width="398.853898pt" height="266.794375pt" viewBox="0 0 398.853898 266.794375" xmlns="http://www.w3.org/2000/svg" version="1.1">
 <metadata>
  <rdf:RDF xmlns:dc="http://purl.org/dc/elements/1.1/" xmlns:cc="http://creativecommons.org/ns#" xmlns:rdf="http://www.w3.org/1999/02/22-rdf-syntax-ns#">
   <cc:Work>
    <dc:type rdf:resource="http://purl.org/dc/dcmitype/StillImage"/>
    <dc:date>2026-06-04T11:42:12.046272</dc:date>
    <dc:format>image/svg+xml</dc:format>
    <dc:creator>
     <cc:Agent>
      <dc:title>Matplotlib v3.10.9, https://matplotlib.org/</dc:title>
     </cc:Agent>
    </dc:creator>
   </cc:Work>
  </rdf:RDF>
 </metadata>
 <defs>
  <style type="text/css">*{stroke-linejoin: round; stroke-linecap: butt}</style>
 </defs>
 <g id="figure_1">
  <g id="patch_1">
   <path d="M 0 266.794375 
L 398.853898 266.794375 
L 398.853898 0 
L 0 0 
z
" style="fill: #ffffff"/>
  </g>
  <g id="axes_1">
   <g id="patch_2">
    <path d="M 46.965625 228.96 
L 381.765625 228.96 
L 381.765625 7.2 
L 46.965625 7.2 
z
" style="fill: #ffffff"/>
   </g>
   <g id="matplotlib.axis_1">
    <g id="xtick_1">
     <g id="line2d_1">
      <defs>
       <path id="m0db9ed7790" d="M 0 0 
L 0 3.5 
" style="stroke: #000000; stroke-width: 0.8"/>
      </defs>
      <g>
       <use xlink:href="#m0db9ed7790" x="83.987027" y="228.96" style="stroke: #000000; stroke-width: 0.8"/>
      </g>
     </g>
     <g id="text_1">
      <!-- 20000 -->
      <g transform="translate(68.080777 243.558437) scale(0.1 -0.1)">
       <defs>
        <path id="DejaVuSans-32" d="M 1228 531 
L 3431 531 
L 3431 0 
L 469 0 
L 469 531 
Q 828 903 1448 1529 
Q 2069 2156 2228 2338 
Q 2531 2678 2651 2914 
Q 2772 3150 2772 3378 
Q 2772 3750 2511 3984 
Q 2250 4219 1831 4219 
Q 1534 4219 1204 4116 
Q 875 4013 500 3803 
L 500 4441 
Q 881 4594 1212 4672 
Q 1544 4750 1819 4750 
Q 2544 4750 2975 4387 
Q 3406 4025 3406 3419 
Q 3406 3131 3298 2873 
Q 3191 2616 2906 2266 
Q 2828 2175 2409 1742 
Q 1991 1309 1228 531 
z
" transform="scale(0.015625)"/>
        <path id="DejaVuSans-30" d="M 2034 4250 
Q 1547 4250 1301 3770 
Q 1056 3291 1056 2328 
Q 1056 1369 1301 889 
Q 1547 409 2034 409 
Q 2525 409 2770 889 
Q 3016 1369 3016 2328 
Q 3016 3291 2770 3770 
Q 2525 4250 2034 4250 
z
M 2034 4750 
Q 2819 4750 3233 4129 
Q 3647 3509 3647 2328 
Q 3647 1150 3233 529 
Q 2819 -91 2034 -91 
Q 1250 -91 836 529 
Q 422 1150 422 2328 
Q 422 3509 836 4129 
Q 1250 4750 2034 4750 
z
" transform="scale(0.015625)"/>
       </defs>
       <use xlink:href="#DejaVuSans-32"/>
       <use xlink:href="#DejaVuSans-30" transform="translate(63.623047 0)"/>
       <use xlink:href="#DejaVuSans-30" transform="translate(127.246094 0)"/>
       <use xlink:href="#DejaVuSans-30" transform="translate(190.869141 0)"/>
       <use xlink:href="#DejaVuSans-30" transform="translate(254.492188 0)"/>
      </g>
     </g>
    </g>
    <g id="xtick_2">
     <g id="line2d_2">
      <g>
       <use xlink:href="#m0db9ed7790" x="142.339152" y="228.96" style="stroke: #000000; stroke-width: 0.8"/>
      </g>
     </g>
     <g id="text_2">
      <!-- 30000 -->
      <g transform="translate(126.432902 243.558437) scale(0.1 -0.1)">
       <defs>
        <path id="DejaVuSans-33" d="M 2597 2516 
Q 3050 2419 3304 2112 
Q 3559 1806 3559 1356 
Q 3559 666 3084 287 
Q 2609 -91 1734 -91 
Q 1441 -91 1130 -33 
Q 819 25 488 141 
L 488 750 
Q 750 597 1062 519 
Q 1375 441 1716 441 
Q 2309 441 2620 675 
Q 2931 909 2931 1356 
Q 2931 1769 2642 2001 
Q 2353 2234 1838 2234 
L 1294 2234 
L 1294 2753 
L 1863 2753 
Q 2328 2753 2575 2939 
Q 2822 3125 2822 3475 
Q 2822 3834 2567 4026 
Q 2313 4219 1838 4219 
Q 1578 4219 1281 4162 
Q 984 4106 628 3988 
L 628 4550 
Q 988 4650 1302 4700 
Q 1616 4750 1894 4750 
Q 2613 4750 3031 4423 
Q 3450 4097 3450 3541 
Q 3450 3153 3228 2886 
Q 3006 2619 2597 2516 
z
" transform="scale(0.015625)"/>
       </defs>
       <use xlink:href="#DejaVuSans-33"/>
       <use xlink:href="#DejaVuSans-30" transform="translate(63.623047 0)"/>
       <use xlink:href="#DejaVuSans-30" transform="translate(127.246094 0)"/>
       <use xlink:href="#DejaVuSans-30" transform="translate(190.869141 0)"/>
       <use xlink:href="#DejaVuSans-30" transform="translate(254.492188 0)"/>
      </g>
     </g>
    </g>
    <g id="xtick_3">
     <g id="line2d_3">
      <g>
       <use xlink:href="#m0db9ed7790" x="200.691276" y="228.96" style="stroke: #000000; stroke-width: 0.8"/>
      </g>
     </g>
     <g id="text_3">
      <!-- 40000 -->
      <g transform="translate(184.785026 243.558437) scale(0.1 -0.1)">
       <defs>
        <path id="DejaVuSans-34" d="M 2419 4116 
L 825 1625 
L 2419 1625 
L 2419 4116 
z
M 2253 4666 
L 3047 4666 
L 3047 1625 
L 3713 1625 
L 3713 1100 
L 3047 1100 
L 3047 0 
L 2419 0 
L 2419 1100 
L 313 1100 
L 313 1709 
L 2253 4666 
z
" transform="scale(0.015625)"/>
       </defs>
       <use xlink:href="#DejaVuSans-34"/>
       <use xlink:href="#DejaVuSans-30" transform="translate(63.623047 0)"/>
       <use xlink:href="#DejaVuSans-30" transform="translate(127.246094 0)"/>
       <use xlink:href="#DejaVuSans-30" transform="translate(190.869141 0)"/>
       <use xlink:href="#DejaVuSans-30" transform="translate(254.492188 0)"/>
      </g>
     </g>
    </g>
    <g id="xtick_4">
     <g id="line2d_4">
      <g>
       <use xlink:href="#m0db9ed7790" x="259.0434" y="228.96" style="stroke: #000000; stroke-width: 0.8"/>
      </g>
     </g>
     <g id="text_4">
      <!-- 50000 -->
      <g transform="translate(243.13715 243.558437) scale(0.1 -0.1)">
       <defs>
        <path id="DejaVuSans-35" d="M 691 4666 
L 3169 4666 
L 3169 4134 
L 1269 4134 
L 1269 2991 
Q 1406 3038 1543 3061 
Q 1681 3084 1819 3084 
Q 2600 3084 3056 2656 
Q 3513 2228 3513 1497 
Q 3513 744 3044 326 
Q 2575 -91 1722 -91 
Q 1428 -91 1123 -41 
Q 819 9 494 109 
L 494 744 
Q 775 591 1075 516 
Q 1375 441 1709 441 
Q 2250 441 2565 725 
Q 2881 1009 2881 1497 
Q 2881 1984 2565 2268 
Q 2250 2553 1709 2553 
Q 1456 2553 1204 2497 
Q 953 2441 691 2322 
L 691 4666 
z
" transform="scale(0.015625)"/>
       </defs>
       <use xlink:href="#DejaVuSans-35"/>
       <use xlink:href="#DejaVuSans-30" transform="translate(63.623047 0)"/>
       <use xlink:href="#DejaVuSans-30" transform="translate(127.246094 0)"/>
       <use xlink:href="#DejaVuSans-30" transform="translate(190.869141 0)"/>
       <use xlink:href="#DejaVuSans-30" transform="translate(254.492188 0)"/>
      </g>
     </g>
    </g>
    <g id="xtick_5">
     <g id="line2d_5">
      <g>
       <use xlink:href="#m0db9ed7790" x="317.395524" y="228.96" style="stroke: #000000; stroke-width: 0.8"/>
      </g>
     </g>
     <g id="text_5">
      <!-- 60000 -->
      <g transform="translate(301.489274 243.558437) scale(0.1 -0.1)">
       <defs>
        <path id="DejaVuSans-36" d="M 2113 2584 
Q 1688 2584 1439 2293 
Q 1191 2003 1191 1497 
Q 1191 994 1439 701 
Q 1688 409 2113 409 
Q 2538 409 2786 701 
Q 3034 994 3034 1497 
Q 3034 2003 2786 2293 
Q 2538 2584 2113 2584 
z
M 3366 4563 
L 3366 3988 
Q 3128 4100 2886 4159 
Q 2644 4219 2406 4219 
Q 1781 4219 1451 3797 
Q 1122 3375 1075 2522 
Q 1259 2794 1537 2939 
Q 1816 3084 2150 3084 
Q 2853 3084 3261 2657 
Q 3669 2231 3669 1497 
Q 3669 778 3244 343 
Q 2819 -91 2113 -91 
Q 1303 -91 875 529 
Q 447 1150 447 2328 
Q 447 3434 972 4092 
Q 1497 4750 2381 4750 
Q 2619 4750 2861 4703 
Q 3103 4656 3366 4563 
z
" transform="scale(0.015625)"/>
       </defs>
       <use xlink:href="#DejaVuSans-36"/>
       <use xlink:href="#DejaVuSans-30" transform="translate(63.623047 0)"/>
       <use xlink:href="#DejaVuSans-30" transform="translate(127.246094 0)"/>
       <use xlink:href="#DejaVuSans-30" transform="translate(190.869141 0)"/>
       <use xlink:href="#DejaVuSans-30" transform="translate(254.492188 0)"/>
      </g>
     </g>
    </g>
    <g id="xtick_6">
     <g id="line2d_6">
      <g>
       <use xlink:href="#m0db9ed7790" x="375.747648" y="228.96" style="stroke: #000000; stroke-width: 0.8"/>
      </g>
     </g>
     <g id="text_6">
      <!-- 70000 -->
      <g transform="translate(359.841398 243.558437) scale(0.1 -0.1)">
       <defs>
        <path id="DejaVuSans-37" d="M 525 4666 
L 3525 4666 
L 3525 4397 
L 1831 0 
L 1172 0 
L 2766 4134 
L 525 4134 
L 525 4666 
z
" transform="scale(0.015625)"/>
       </defs>
       <use xlink:href="#DejaVuSans-37"/>
       <use xlink:href="#DejaVuSans-30" transform="translate(63.623047 0)"/>
       <use xlink:href="#DejaVuSans-30" transform="translate(127.246094 0)"/>
       <use xlink:href="#DejaVuSans-30" transform="translate(190.869141 0)"/>
       <use xlink:href="#DejaVuSans-30" transform="translate(254.492188 0)"/>
      </g>
     </g>
    </g>
    <g id="text_7">
     <!-- event_time_offset [µs] -->
     <g transform="translate(158.330469 257.236562) scale(0.1 -0.1)">
      <defs>
       <path id="DejaVuSans-65" d="M 3597 1894 
L 3597 1613 
L 953 1613 
Q 991 1019 1311 708 
Q 1631 397 2203 397 
Q 2534 397 2845 478 
Q 3156 559 3463 722 
L 3463 178 
Q 3153 47 2828 -22 
Q 2503 -91 2169 -91 
Q 1331 -91 842 396 
Q 353 884 353 1716 
Q 353 2575 817 3079 
Q 1281 3584 2069 3584 
Q 2775 3584 3186 3129 
Q 3597 2675 3597 1894 
z
M 3022 2063 
Q 3016 2534 2758 2815 
Q 2500 3097 2075 3097 
Q 1594 3097 1305 2825 
Q 1016 2553 972 2059 
L 3022 2063 
z
" transform="scale(0.015625)"/>
       <path id="DejaVuSans-76" d="M 191 3500 
L 800 3500 
L 1894 563 
L 2988 3500 
L 3597 3500 
L 2284 0 
L 1503 0 
L 191 3500 
z
" transform="scale(0.015625)"/>
       <path id="DejaVuSans-6e" d="M 3513 2113 
L 3513 0 
L 2938 0 
L 2938 2094 
Q 2938 2591 2744 2837 
Q 2550 3084 2163 3084 
Q 1697 3084 1428 2787 
Q 1159 2491 1159 1978 
L 1159 0 
L 581 0 
L 581 3500 
L 1159 3500 
L 1159 2956 
Q 1366 3272 1645 3428 
Q 1925 3584 2291 3584 
Q 2894 3584 3203 3211 
Q 3513 2838 3513 2113 
z
" transform="scale(0.015625)"/>
       <path id="DejaVuSans-74" d="M 1172 4494 
L 1172 3500 
L 2356 3500 
L 2356 3053 
L 1172 3053 
L 1172 1153 
Q 1172 725 1289 603 
Q 1406 481 1766 481 
L 2356 481 
L 2356 0 
L 1766 0 
Q 1100 0 847 248 
Q 594 497 594 1153 
L 594 3053 
L 172 3053 
L 172 3500 
L 594 3500 
L 594 4494 
L 1172 4494 
z
" transform="scale(0.015625)"/>
       <path id="DejaVuSans-5f" d="M 3263 -1063 
L 3263 -1509 
L -63 -1509 
L -63 -1063 
L 3263 -1063 
z
" transform="scale(0.015625)"/>
       <path id="DejaVuSans-69" d="M 603 3500 
L 1178 3500 
L 1178 0 
L 603 0 
L 603 3500 
z
M 603 4863 
L 1178 4863 
L 1178 4134 
L 603 4134 
L 603 4863 
z
" transform="scale(0.015625)"/>
       <path id="DejaVuSans-6d" d="M 3328 2828 
Q 3544 3216 3844 3400 
Q 4144 3584 4550 3584 
Q 5097 3584 5394 3201 
Q 5691 2819 5691 2113 
L 5691 0 
L 5113 0 
L 5113 2094 
Q 5113 2597 4934 2840 
Q 4756 3084 4391 3084 
Q 3944 3084 3684 2787 
Q 3425 2491 3425 1978 
L 3425 0 
L 2847 0 
L 2847 2094 
Q 2847 2600 2669 2842 
Q 2491 3084 2119 3084 
Q 1678 3084 1418 2786 
Q 1159 2488 1159 1978 
L 1159 0 
L 581 0 
L 581 3500 
L 1159 3500 
L 1159 2956 
Q 1356 3278 1631 3431 
Q 1906 3584 2284 3584 
Q 2666 3584 2933 3390 
Q 3200 3197 3328 2828 
z
" transform="scale(0.015625)"/>
       <path id="DejaVuSans-6f" d="M 1959 3097 
Q 1497 3097 1228 2736 
Q 959 2375 959 1747 
Q 959 1119 1226 758 
Q 1494 397 1959 397 
Q 2419 397 2687 759 
Q 2956 1122 2956 1747 
Q 2956 2369 2687 2733 
Q 2419 3097 1959 3097 
z
M 1959 3584 
Q 2709 3584 3137 3096 
Q 3566 2609 3566 1747 
Q 3566 888 3137 398 
Q 2709 -91 1959 -91 
Q 1206 -91 779 398 
Q 353 888 353 1747 
Q 353 2609 779 3096 
Q 1206 3584 1959 3584 
z
" transform="scale(0.015625)"/>
       <path id="DejaVuSans-66" d="M 2375 4863 
L 2375 4384 
L 1825 4384 
Q 1516 4384 1395 4259 
Q 1275 4134 1275 3809 
L 1275 3500 
L 2222 3500 
L 2222 3053 
L 1275 3053 
L 1275 0 
L 697 0 
L 697 3053 
L 147 3053 
L 147 3500 
L 697 3500 
L 697 3744 
Q 697 4328 969 4595 
Q 1241 4863 1831 4863 
L 2375 4863 
z
" transform="scale(0.015625)"/>
       <path id="DejaVuSans-73" d="M 2834 3397 
L 2834 2853 
Q 2591 2978 2328 3040 
Q 2066 3103 1784 3103 
Q 1356 3103 1142 2972 
Q 928 2841 928 2578 
Q 928 2378 1081 2264 
Q 1234 2150 1697 2047 
L 1894 2003 
Q 2506 1872 2764 1633 
Q 3022 1394 3022 966 
Q 3022 478 2636 193 
Q 2250 -91 1575 -91 
Q 1294 -91 989 -36 
Q 684 19 347 128 
L 347 722 
Q 666 556 975 473 
Q 1284 391 1588 391 
Q 1994 391 2212 530 
Q 2431 669 2431 922 
Q 2431 1156 2273 1281 
Q 2116 1406 1581 1522 
L 1381 1569 
Q 847 1681 609 1914 
Q 372 2147 372 2553 
Q 372 3047 722 3315 
Q 1072 3584 1716 3584 
Q 2034 3584 2315 3537 
Q 2597 3491 2834 3397 
z
" transform="scale(0.015625)"/>
       <path id="DejaVuSans-20" transform="scale(0.015625)"/>
       <path id="DejaVuSans-5b" d="M 550 4863 
L 1875 4863 
L 1875 4416 
L 1125 4416 
L 1125 -397 
L 1875 -397 
L 1875 -844 
L 550 -844 
L 550 4863 
z
" transform="scale(0.015625)"/>
       <path id="DejaVuSans-b5" d="M 544 -1331 
L 544 3500 
L 1119 3500 
L 1119 1325 
Q 1119 872 1334 640 
Q 1550 409 1972 409 
Q 2434 409 2667 671 
Q 2900 934 2900 1459 
L 2900 3500 
L 3475 3500 
L 3475 806 
Q 3475 619 3529 530 
Q 3584 441 3700 441 
Q 3728 441 3778 458 
Q 3828 475 3916 513 
L 3916 50 
Q 3788 -22 3673 -56 
Q 3559 -91 3450 -91 
Q 3234 -91 3106 31 
Q 2978 153 2931 403 
Q 2775 156 2548 32 
Q 2322 -91 2016 -91 
Q 1697 -91 1473 31 
Q 1250 153 1119 397 
L 1119 -1331 
L 544 -1331 
z
" transform="scale(0.015625)"/>
       <path id="DejaVuSans-5d" d="M 1947 4863 
L 1947 -844 
L 622 -844 
L 622 -397 
L 1369 -397 
L 1369 4416 
L 622 4416 
L 622 4863 
L 1947 4863 
z
" transform="scale(0.015625)"/>
      </defs>
      <use xlink:href="#DejaVuSans-65"/>
      <use xlink:href="#DejaVuSans-76" transform="translate(61.523438 0)"/>
      <use xlink:href="#DejaVuSans-65" transform="translate(120.703125 0)"/>
      <use xlink:href="#DejaVuSans-6e" transform="translate(182.226562 0)"/>
      <use xlink:href="#DejaVuSans-74" transform="translate(245.605469 0)"/>
      <use xlink:href="#DejaVuSans-5f" transform="translate(284.814453 0)"/>
      <use xlink:href="#DejaVuSans-74" transform="translate(334.814453 0)"/>
      <use xlink:href="#DejaVuSans-69" transform="translate(374.023438 0)"/>
      <use xlink:href="#DejaVuSans-6d" transform="translate(401.806641 0)"/>
      <use xlink:href="#DejaVuSans-65" transform="translate(499.21875 0)"/>
      <use xlink:href="#DejaVuSans-5f" transform="translate(560.742188 0)"/>
      <use xlink:href="#DejaVuSans-6f" transform="translate(610.742188 0)"/>
      <use xlink:href="#DejaVuSans-66" transform="translate(671.923828 0)"/>
      <use xlink:href="#DejaVuSans-66" transform="translate(707.128906 0)"/>
      <use xlink:href="#DejaVuSans-73" transform="translate(742.333984 0)"/>
      <use xlink:href="#DejaVuSans-65" transform="translate(794.433594 0)"/>
      <use xlink:href="#DejaVuSans-74" transform="translate(855.957031 0)"/>
      <use xlink:href="#DejaVuSans-20" transform="translate(895.166016 0)"/>
      <use xlink:href="#DejaVuSans-5b" transform="translate(926.953125 0)"/>
      <use xlink:href="#DejaVuSans-b5" transform="translate(965.966797 0)"/>
      <use xlink:href="#DejaVuSans-73" transform="translate(1029.589844 0)"/>
      <use xlink:href="#DejaVuSans-5d" transform="translate(1081.689453 0)"/>
     </g>
    </g>
   </g>
   <g id="matplotlib.axis_2">
    <g id="ytick_1">
     <g id="line2d_7">
      <defs>
       <path id="m24ec47301e" d="M 0 0 
L -3.5 0 
" style="stroke: #000000; stroke-width: 0.8"/>
      </defs>
      <g>
       <use xlink:href="#m24ec47301e" x="46.965625" y="218.88" style="stroke: #000000; stroke-width: 0.8"/>
      </g>
     </g>
     <g id="text_8">
      <!-- 0 -->
      <g transform="translate(33.603125 222.679219) scale(0.1 -0.1)">
       <use xlink:href="#DejaVuSans-30"/>
      </g>
     </g>
    </g>
    <g id="ytick_2">
     <g id="line2d_8">
      <g>
       <use xlink:href="#m24ec47301e" x="46.965625" y="182.750968" style="stroke: #000000; stroke-width: 0.8"/>
      </g>
     </g>
     <g id="text_9">
      <!-- 100 -->
      <g transform="translate(20.878125 186.550186) scale(0.1 -0.1)">
       <defs>
        <path id="DejaVuSans-31" d="M 794 531 
L 1825 531 
L 1825 4091 
L 703 3866 
L 703 4441 
L 1819 4666 
L 2450 4666 
L 2450 531 
L 3481 531 
L 3481 0 
L 794 0 
L 794 531 
z
" transform="scale(0.015625)"/>
       </defs>
       <use xlink:href="#DejaVuSans-31"/>
       <use xlink:href="#DejaVuSans-30" transform="translate(63.623047 0)"/>
       <use xlink:href="#DejaVuSans-30" transform="translate(127.246094 0)"/>
      </g>
     </g>
    </g>
    <g id="ytick_3">
     <g id="line2d_9">
      <g>
       <use xlink:href="#m24ec47301e" x="46.965625" y="146.621935" style="stroke: #000000; stroke-width: 0.8"/>
      </g>
     </g>
     <g id="text_10">
      <!-- 200 -->
      <g transform="translate(20.878125 150.421154) scale(0.1 -0.1)">
       <use xlink:href="#DejaVuSans-32"/>
       <use xlink:href="#DejaVuSans-30" transform="translate(63.623047 0)"/>
       <use xlink:href="#DejaVuSans-30" transform="translate(127.246094 0)"/>
      </g>
     </g>
    </g>
    <g id="ytick_4">
     <g id="line2d_10">
      <g>
       <use xlink:href="#m24ec47301e" x="46.965625" y="110.492903" style="stroke: #000000; stroke-width: 0.8"/>
      </g>
     </g>
     <g id="text_11">
      <!-- 300 -->
      <g transform="translate(20.878125 114.292122) scale(0.1 -0.1)">
       <use xlink:href="#DejaVuSans-33"/>
       <use xlink:href="#DejaVuSans-30" transform="translate(63.623047 0)"/>
       <use xlink:href="#DejaVuSans-30" transform="translate(127.246094 0)"/>
      </g>
     </g>
    </g>
    <g id="ytick_5">
     <g id="line2d_11">
      <g>
       <use xlink:href="#m24ec47301e" x="46.965625" y="74.363871" style="stroke: #000000; stroke-width: 0.8"/>
      </g>
     </g>
     <g id="text_12">
      <!-- 400 -->
      <g transform="translate(20.878125 78.16309) scale(0.1 -0.1)">
       <use xlink:href="#DejaVuSans-34"/>
       <use xlink:href="#DejaVuSans-30" transform="translate(63.623047 0)"/>
       <use xlink:href="#DejaVuSans-30" transform="translate(127.246094 0)"/>
      </g>
     </g>
    </g>
    <g id="ytick_6">
     <g id="line2d_12">
      <g>
       <use xlink:href="#m24ec47301e" x="46.965625" y="38.234839" style="stroke: #000000; stroke-width: 0.8"/>
      </g>
     </g>
     <g id="text_13">
      <!-- 500 -->
      <g transform="translate(20.878125 42.034057) scale(0.1 -0.1)">
       <use xlink:href="#DejaVuSans-35"/>
       <use xlink:href="#DejaVuSans-30" transform="translate(63.623047 0)"/>
       <use xlink:href="#DejaVuSans-30" transform="translate(127.246094 0)"/>
      </g>
     </g>
    </g>
    <g id="text_14">
     <!-- [counts] -->
     <g transform="translate(14.798438 138.6925) rotate(-90) scale(0.1 -0.1)">
      <defs>
       <path id="DejaVuSans-63" d="M 3122 3366 
L 3122 2828 
Q 2878 2963 2633 3030 
Q 2388 3097 2138 3097 
Q 1578 3097 1268 2742 
Q 959 2388 959 1747 
Q 959 1106 1268 751 
Q 1578 397 2138 397 
Q 2388 397 2633 464 
Q 2878 531 3122 666 
L 3122 134 
Q 2881 22 2623 -34 
Q 2366 -91 2075 -91 
Q 1284 -91 818 406 
Q 353 903 353 1747 
Q 353 2603 823 3093 
Q 1294 3584 2113 3584 
Q 2378 3584 2631 3529 
Q 2884 3475 3122 3366 
z
" transform="scale(0.015625)"/>
       <path id="DejaVuSans-75" d="M 544 1381 
L 544 3500 
L 1119 3500 
L 1119 1403 
Q 1119 906 1312 657 
Q 1506 409 1894 409 
Q 2359 409 2629 706 
Q 2900 1003 2900 1516 
L 2900 3500 
L 3475 3500 
L 3475 0 
L 2900 0 
L 2900 538 
Q 2691 219 2414 64 
Q 2138 -91 1772 -91 
Q 1169 -91 856 284 
Q 544 659 544 1381 
z
M 1991 3584 
L 1991 3584 
z
" transform="scale(0.015625)"/>
      </defs>
      <use xlink:href="#DejaVuSans-5b"/>
      <use xlink:href="#DejaVuSans-63" transform="translate(39.013672 0)"/>
      <use xlink:href="#DejaVuSans-6f" transform="translate(93.994141 0)"/>
      <use xlink:href="#DejaVuSans-75" transform="translate(155.175781 0)"/>
      <use xlink:href="#DejaVuSans-6e" transform="translate(218.554688 0)"/>
      <use xlink:href="#DejaVuSans-74" transform="translate(281.933594 0)"/>
      <use xlink:href="#DejaVuSans-73" transform="translate(321.142578 0)"/>
      <use xlink:href="#DejaVuSans-5d" transform="translate(373.242188 0)"/>
     </g>
    </g>
   </g>
   <g id="line2d_13">
    <path d="M 62.183807 213.821935 
L 63.198352 213.821935 
L 63.198352 209.125161 
L 64.212898 209.125161 
L 64.212898 206.234839 
L 65.227443 206.234839 
L 65.227443 197.563871 
L 66.241989 197.563871 
L 66.241989 194.312258 
L 67.256534 194.312258 
L 67.256534 192.505806 
L 68.27108 192.505806 
L 68.27108 188.531613 
L 69.285625 188.531613 
L 69.285625 178.054194 
L 70.30017 178.054194 
L 70.30017 169.744516 
L 71.314716 169.744516 
L 71.314716 165.770323 
L 72.329261 165.770323 
L 72.329261 163.963871 
L 73.343807 163.963871 
L 73.343807 145.538065 
L 74.358352 145.538065 
L 74.358352 156.015484 
L 75.372898 156.015484 
L 75.372898 145.899355 
L 76.387443 145.899355 
L 76.387443 134.699355 
L 77.401989 134.699355 
L 77.401989 130.363871 
L 78.416534 130.363871 
L 78.416534 131.447742 
L 79.43108 131.447742 
L 79.43108 113.383226 
L 80.445625 113.383226 
L 80.445625 124.221935 
L 81.46017 124.221935 
L 81.46017 103.989677 
L 82.474716 103.989677 
L 82.474716 105.073548 
L 83.489261 105.073548 
L 83.489261 95.68 
L 84.503807 95.68 
L 84.503807 79.421935 
L 85.518352 79.421935 
L 85.518352 89.899355 
L 86.532898 89.899355 
L 86.532898 71.473548 
L 87.547443 71.473548 
L 87.547443 86.647742 
L 88.561989 86.647742 
L 88.561989 76.170323 
L 89.576534 76.170323 
L 89.576534 62.802581 
L 90.59108 62.802581 
L 90.59108 70.389677 
L 91.605625 70.389677 
L 91.605625 60.996129 
L 92.62017 60.996129 
L 92.62017 59.912258 
L 93.634716 59.912258 
L 93.634716 64.609032 
L 94.649261 64.609032 
L 94.649261 47.989677 
L 95.663807 47.989677 
L 95.663807 49.796129 
L 96.678352 49.796129 
L 96.678352 48.712258 
L 97.692898 48.712258 
L 97.692898 44.015484 
L 98.707443 44.015484 
L 98.707443 25.589677 
L 99.721989 25.589677 
L 99.721989 41.125161 
L 100.736534 41.125161 
L 100.736534 33.176774 
L 101.75108 33.176774 
L 101.75108 35.705806 
L 102.765625 35.705806 
L 102.765625 27.757419 
L 103.78017 27.757419 
L 103.78017 28.11871 
L 104.794716 28.11871 
L 104.794716 36.067097 
L 105.809261 36.067097 
L 105.809261 36.789677 
L 106.823807 36.789677 
L 106.823807 17.28 
L 107.838352 17.28 
L 107.838352 32.092903 
L 108.852898 32.092903 
L 108.852898 23.060645 
L 109.867443 23.060645 
L 109.867443 35.344516 
L 110.881989 35.344516 
L 110.881989 47.628387 
L 111.896534 47.628387 
L 111.896534 41.486452 
L 112.91108 41.486452 
L 112.91108 26.673548 
L 113.925625 26.673548 
L 113.925625 32.092903 
L 114.94017 32.092903 
L 114.94017 41.847742 
L 115.954716 41.847742 
L 115.954716 41.486452 
L 116.969261 41.486452 
L 116.969261 55.215484 
L 117.983807 55.215484 
L 117.983807 51.963871 
L 118.998352 51.963871 
L 118.998352 21.976774 
L 120.012898 21.976774 
L 120.012898 33.538065 
L 121.027443 33.538065 
L 121.027443 40.402581 
L 122.041989 40.402581 
L 122.041989 52.686452 
L 123.056534 52.686452 
L 123.056534 56.660645 
L 124.07108 56.660645 
L 124.07108 47.628387 
L 125.085625 47.628387 
L 125.085625 56.299355 
L 126.10017 56.299355 
L 126.10017 59.189677 
L 127.114716 59.189677 
L 127.114716 51.602581 
L 128.129261 51.602581 
L 128.129261 66.054194 
L 129.143807 66.054194 
L 129.143807 60.273548 
L 130.158352 60.273548 
L 130.158352 46.183226 
L 131.172898 46.183226 
L 131.172898 65.692903 
L 132.187443 65.692903 
L 132.187443 56.660645 
L 133.201989 56.660645 
L 133.201989 54.131613 
L 134.216534 54.131613 
L 134.216534 66.415484 
L 135.23108 66.415484 
L 135.23108 66.054194 
L 136.245625 66.054194 
L 136.245625 64.970323 
L 137.26017 64.970323 
L 137.26017 73.28 
L 138.274716 73.28 
L 138.274716 65.692903 
L 139.289261 65.692903 
L 139.289261 75.809032 
L 140.303807 75.809032 
L 140.303807 69.667097 
L 141.318352 69.667097 
L 141.318352 57.021935 
L 142.332898 57.021935 
L 142.332898 53.409032 
L 143.347443 53.409032 
L 143.347443 68.944516 
L 144.361989 68.944516 
L 144.361989 67.499355 
L 145.376534 67.499355 
L 145.376534 60.634839 
L 146.39108 60.634839 
L 146.39108 57.744516 
L 147.405625 57.744516 
L 147.405625 61.357419 
L 148.42017 61.357419 
L 148.42017 89.538065 
L 149.434716 89.538065 
L 149.434716 77.615484 
L 150.449261 77.615484 
L 150.449261 77.254194 
L 151.463807 77.254194 
L 151.463807 89.176774 
L 152.478352 89.176774 
L 152.478352 76.170323 
L 153.492898 76.170323 
L 153.492898 90.983226 
L 154.507443 90.983226 
L 154.507443 64.609032 
L 155.521989 64.609032 
L 155.521989 76.531613 
L 156.536534 76.531613 
L 156.536534 77.254194 
L 157.55108 77.254194 
L 157.55108 75.809032 
L 158.565625 75.809032 
L 158.565625 83.034839 
L 159.58017 83.034839 
L 159.58017 76.170323 
L 160.594716 76.170323 
L 160.594716 81.228387 
L 161.609261 81.228387 
L 161.609261 88.454194 
L 162.623807 88.454194 
L 162.623807 93.512258 
L 163.638352 93.512258 
L 163.638352 88.815484 
L 164.652898 88.815484 
L 164.652898 80.505806 
L 165.667443 80.505806 
L 165.667443 84.11871 
L 166.681989 84.11871 
L 166.681989 96.402581 
L 167.696534 96.402581 
L 167.696534 106.51871 
L 168.71108 106.51871 
L 168.71108 90.621935 
L 169.725625 90.621935 
L 169.725625 98.570323 
L 170.74017 98.570323 
L 170.74017 104.350968 
L 171.754716 104.350968 
L 171.754716 103.989677 
L 172.769261 103.989677 
L 172.769261 119.886452 
L 173.783807 119.886452 
L 173.783807 116.634839 
L 174.798352 116.634839 
L 174.798352 127.112258 
L 175.812898 127.112258 
L 175.812898 126.389677 
L 176.827443 126.389677 
L 176.827443 131.447742 
L 177.841989 131.447742 
L 177.841989 133.254194 
L 178.856534 133.254194 
L 178.856534 152.402581 
L 179.87108 152.402581 
L 179.87108 150.957419 
L 180.885625 150.957419 
L 180.885625 150.234839 
L 181.90017 150.234839 
L 181.90017 165.047742 
L 182.914716 165.047742 
L 182.914716 155.654194 
L 183.929261 155.654194 
L 183.929261 163.24129 
L 184.943807 163.24129 
L 184.943807 171.189677 
L 186.972898 171.189677 
L 186.972898 174.08 
L 187.987443 174.08 
L 187.987443 188.170323 
L 189.001989 188.170323 
L 189.001989 180.221935 
L 190.016534 180.221935 
L 190.016534 189.976774 
L 191.03108 189.976774 
L 191.03108 192.867097 
L 192.045625 192.867097 
L 192.045625 202.983226 
L 193.06017 202.983226 
L 193.06017 205.873548 
L 194.074716 205.873548 
L 194.074716 203.705806 
L 195.089261 203.705806 
L 195.089261 209.486452 
L 196.103807 209.486452 
L 196.103807 212.738065 
L 197.118352 212.738065 
L 197.118352 213.460645 
L 198.132898 213.460645 
L 198.132898 216.350968 
L 199.147443 216.350968 
L 199.147443 214.544516 
L 200.161989 214.544516 
L 200.161989 216.350968 
L 201.176534 216.350968 
L 201.176534 218.51871 
L 202.19108 218.51871 
L 202.19108 218.88 
L 216.394716 218.88 
L 216.394716 218.51871 
L 217.409261 218.51871 
L 217.409261 212.738065 
L 218.423807 212.738065 
L 218.423807 210.570323 
L 219.438352 210.570323 
L 219.438352 203.705806 
L 220.452898 203.705806 
L 220.452898 203.344516 
L 221.467443 203.344516 
L 221.467443 192.144516 
L 222.481989 192.144516 
L 222.481989 182.028387 
L 223.496534 182.028387 
L 223.496534 182.389677 
L 224.51108 182.389677 
L 224.51108 179.138065 
L 225.525625 179.138065 
L 225.525625 172.634839 
L 226.54017 172.634839 
L 226.54017 183.473548 
L 227.554716 183.473548 
L 227.554716 165.770323 
L 228.569261 165.770323 
L 228.569261 172.634839 
L 229.583807 172.634839 
L 229.583807 155.292903 
L 230.598352 155.292903 
L 230.598352 157.460645 
L 231.612898 157.460645 
L 231.612898 156.376774 
L 232.627443 156.376774 
L 232.627443 146.983226 
L 233.641989 146.983226 
L 233.641989 154.570323 
L 234.656534 154.570323 
L 234.656534 149.512258 
L 235.67108 149.512258 
L 235.67108 129.64129 
L 236.685625 129.64129 
L 236.685625 145.176774 
L 237.70017 145.176774 
L 237.70017 135.060645 
L 238.714716 135.060645 
L 238.714716 139.757419 
L 239.729261 139.757419 
L 239.729261 130.002581 
L 240.743807 130.002581 
L 240.743807 126.750968 
L 241.758352 126.750968 
L 241.758352 126.389677 
L 242.772898 126.389677 
L 242.772898 120.970323 
L 243.787443 120.970323 
L 243.787443 124.944516 
L 244.801989 124.944516 
L 244.801989 120.970323 
L 245.816534 120.970323 
L 245.816534 118.44129 
L 246.83108 118.44129 
L 246.83108 114.467097 
L 247.845625 114.467097 
L 247.845625 113.383226 
L 248.86017 113.383226 
L 248.86017 108.325161 
L 249.874716 108.325161 
L 249.874716 102.544516 
L 250.889261 102.544516 
L 250.889261 107.24129 
L 251.903807 107.24129 
L 251.903807 90.621935 
L 252.918352 90.621935 
L 252.918352 102.183226 
L 253.932898 102.183226 
L 253.932898 92.428387 
L 254.947443 92.428387 
L 254.947443 95.31871 
L 255.961989 95.31871 
L 255.961989 89.899355 
L 256.976534 89.899355 
L 256.976534 102.544516 
L 257.99108 102.544516 
L 257.99108 75.086452 
L 259.005625 75.086452 
L 259.005625 89.176774 
L 260.02017 89.176774 
L 260.02017 94.957419 
L 261.034716 94.957419 
L 261.034716 77.976774 
L 262.049261 77.976774 
L 262.049261 96.763871 
L 263.063807 96.763871 
L 263.063807 98.931613 
L 264.078352 98.931613 
L 264.078352 91.705806 
L 265.092898 91.705806 
L 265.092898 93.873548 
L 266.107443 93.873548 
L 266.107443 87.009032 
L 267.121989 87.009032 
L 267.121989 107.963871 
L 268.136534 107.963871 
L 268.136534 90.260645 
L 269.15108 90.260645 
L 269.15108 97.486452 
L 270.165625 97.486452 
L 270.165625 100.738065 
L 271.18017 100.738065 
L 271.18017 110.854194 
L 272.194716 110.854194 
L 272.194716 96.763871 
L 273.209261 96.763871 
L 273.209261 104.712258 
L 274.223807 104.712258 
L 274.223807 105.796129 
L 275.238352 105.796129 
L 275.238352 102.544516 
L 276.252898 102.544516 
L 276.252898 94.957419 
L 277.267443 94.957419 
L 277.267443 112.299355 
L 278.281989 112.299355 
L 278.281989 110.492903 
L 279.296534 110.492903 
L 279.296534 111.215484 
L 280.31108 111.215484 
L 280.31108 101.821935 
L 281.325625 101.821935 
L 281.325625 107.602581 
L 282.34017 107.602581 
L 282.34017 123.138065 
L 283.354716 123.138065 
L 283.354716 114.828387 
L 284.369261 114.828387 
L 284.369261 112.660645 
L 285.383807 112.660645 
L 285.383807 111.576774 
L 286.398352 111.576774 
L 286.398352 115.189677 
L 287.412898 115.189677 
L 287.412898 111.215484 
L 288.427443 111.215484 
L 288.427443 115.912258 
L 289.441989 115.912258 
L 289.441989 110.131613 
L 290.456534 110.131613 
L 290.456534 120.247742 
L 291.47108 120.247742 
L 291.47108 111.938065 
L 292.485625 111.938065 
L 292.485625 135.060645 
L 293.50017 135.060645 
L 293.50017 127.473548 
L 294.514716 127.473548 
L 294.514716 132.170323 
L 295.529261 132.170323 
L 295.529261 128.557419 
L 296.543807 128.557419 
L 296.543807 125.305806 
L 297.558352 125.305806 
L 297.558352 132.892903 
L 298.572898 132.892903 
L 298.572898 124.583226 
L 299.587443 124.583226 
L 299.587443 131.447742 
L 300.601989 131.447742 
L 300.601989 138.312258 
L 301.616534 138.312258 
L 301.616534 141.202581 
L 302.63108 141.202581 
L 302.63108 133.254194 
L 303.645625 133.254194 
L 303.645625 147.705806 
L 304.66017 147.705806 
L 304.66017 139.034839 
L 305.674716 139.034839 
L 305.674716 136.505806 
L 306.689261 136.505806 
L 306.689261 144.815484 
L 307.703807 144.815484 
L 307.703807 141.563871 
L 308.718352 141.563871 
L 308.718352 147.344516 
L 309.732898 147.344516 
L 309.732898 143.009032 
L 310.747443 143.009032 
L 310.747443 150.234839 
L 311.761989 150.234839 
L 311.761989 149.512258 
L 312.776534 149.512258 
L 312.776534 148.067097 
L 313.79108 148.067097 
L 313.79108 150.957419 
L 314.805625 150.957419 
L 314.805625 145.176774 
L 315.82017 145.176774 
L 315.82017 159.267097 
L 316.834716 159.267097 
L 316.834716 152.763871 
L 317.849261 152.763871 
L 317.849261 153.486452 
L 318.863807 153.486452 
L 318.863807 159.989677 
L 319.878352 159.989677 
L 319.878352 167.215484 
L 320.892898 167.215484 
L 320.892898 169.383226 
L 321.907443 169.383226 
L 321.907443 164.686452 
L 322.921989 164.686452 
L 322.921989 158.905806 
L 323.936534 158.905806 
L 323.936534 167.215484 
L 324.95108 167.215484 
L 324.95108 172.996129 
L 325.965625 172.996129 
L 325.965625 170.105806 
L 326.98017 170.105806 
L 326.98017 171.912258 
L 327.994716 171.912258 
L 327.994716 176.247742 
L 329.009261 176.247742 
L 329.009261 182.389677 
L 330.023807 182.389677 
L 330.023807 180.583226 
L 331.038352 180.583226 
L 331.038352 182.750968 
L 332.052898 182.750968 
L 332.052898 184.557419 
L 333.067443 184.557419 
L 333.067443 193.589677 
L 334.081989 193.589677 
L 334.081989 183.112258 
L 335.096534 183.112258 
L 335.096534 190.338065 
L 336.11108 190.338065 
L 336.11108 193.950968 
L 338.14017 193.950968 
L 338.14017 199.731613 
L 339.154716 199.731613 
L 339.154716 198.647742 
L 340.169261 198.647742 
L 340.169261 196.48 
L 341.183807 196.48 
L 341.183807 200.092903 
L 342.198352 200.092903 
L 342.198352 203.344516 
L 343.212898 203.344516 
L 343.212898 204.428387 
L 344.227443 204.428387 
L 344.227443 204.789677 
L 345.241989 204.789677 
L 345.241989 207.31871 
L 346.256534 207.31871 
L 346.256534 209.486452 
L 347.27108 209.486452 
L 347.27108 208.402581 
L 348.285625 208.402581 
L 348.285625 209.486452 
L 349.30017 209.486452 
L 349.30017 212.376774 
L 350.314716 212.376774 
L 350.314716 213.821935 
L 351.329261 213.821935 
L 351.329261 214.905806 
L 352.343807 214.905806 
L 352.343807 216.350968 
L 353.358352 216.350968 
L 353.358352 214.905806 
L 354.372898 214.905806 
L 354.372898 217.073548 
L 355.387443 217.073548 
L 355.387443 217.796129 
L 356.401989 217.796129 
L 356.401989 218.157419 
L 357.416534 218.157419 
L 357.416534 218.51871 
L 358.43108 218.51871 
L 358.43108 218.88 
L 359.445625 218.88 
L 359.445625 218.51871 
L 360.46017 218.51871 
L 360.46017 218.88 
L 366.547443 218.88 
L 366.547443 218.88 
" clip-path="url(#p1467d889e0)" style="fill: none; stroke: #1f77b4; stroke-width: 1.5; stroke-linecap: square"/>
   </g>
   <g id="line2d_14">
    <path d="M 62.183807 218.88 
L 63.198352 218.88 
L 63.198352 216.350968 
L 64.212898 216.350968 
L 64.212898 210.570323 
L 65.227443 210.570323 
L 65.227443 205.873548 
L 66.241989 205.873548 
L 66.241989 200.815484 
L 67.256534 200.815484 
L 67.256534 200.092903 
L 68.27108 200.092903 
L 68.27108 193.228387 
L 69.285625 193.228387 
L 69.285625 188.531613 
L 70.30017 188.531613 
L 70.30017 182.389677 
L 71.314716 182.389677 
L 71.314716 173.357419 
L 72.329261 173.357419 
L 72.329261 170.828387 
L 73.343807 170.828387 
L 73.343807 163.24129 
L 74.358352 163.24129 
L 74.358352 164.686452 
L 75.372898 164.686452 
L 75.372898 145.899355 
L 76.387443 145.899355 
L 76.387443 153.847742 
L 77.401989 153.847742 
L 77.401989 141.925161 
L 78.416534 141.925161 
L 78.416534 141.202581 
L 79.43108 141.202581 
L 79.43108 129.28 
L 80.445625 129.28 
L 80.445625 124.221935 
L 81.46017 124.221935 
L 81.46017 118.802581 
L 82.474716 118.802581 
L 82.474716 119.163871 
L 83.489261 119.163871 
L 83.489261 111.938065 
L 84.503807 111.938065 
L 84.503807 99.654194 
L 85.518352 99.654194 
L 85.518352 96.04129 
L 86.532898 96.04129 
L 86.532898 80.505806 
L 87.547443 80.505806 
L 87.547443 93.512258 
L 88.561989 93.512258 
L 88.561989 74.002581 
L 89.576534 74.002581 
L 89.576534 85.563871 
L 90.59108 85.563871 
L 90.59108 73.64129 
L 91.605625 73.64129 
L 91.605625 74.725161 
L 92.62017 74.725161 
L 92.62017 71.112258 
L 93.634716 71.112258 
L 93.634716 60.996129 
L 94.649261 60.996129 
L 94.649261 66.415484 
L 95.663807 66.415484 
L 95.663807 63.525161 
L 96.678352 63.525161 
L 96.678352 51.602581 
L 97.692898 51.602581 
L 97.692898 55.215484 
L 98.707443 55.215484 
L 98.707443 47.628387 
L 99.721989 47.628387 
L 99.721989 51.963871 
L 100.736534 51.963871 
L 100.736534 29.202581 
L 101.75108 29.202581 
L 101.75108 43.292903 
L 102.765625 43.292903 
L 102.765625 36.428387 
L 103.78017 36.428387 
L 103.78017 41.847742 
L 104.794716 41.847742 
L 104.794716 26.673548 
L 105.809261 26.673548 
L 105.809261 35.344516 
L 106.823807 35.344516 
L 106.823807 40.402581 
L 107.838352 40.402581 
L 107.838352 37.512258 
L 108.852898 37.512258 
L 108.852898 21.254194 
L 109.867443 21.254194 
L 109.867443 32.815484 
L 110.881989 32.815484 
L 110.881989 29.925161 
L 111.896534 29.925161 
L 111.896534 32.092903 
L 112.91108 32.092903 
L 112.91108 51.24129 
L 113.925625 51.24129 
L 113.925625 50.157419 
L 114.94017 50.157419 
L 114.94017 29.925161 
L 115.954716 29.925161 
L 115.954716 35.705806 
L 116.969261 35.705806 
L 116.969261 43.654194 
L 117.983807 43.654194 
L 117.983807 47.267097 
L 118.998352 47.267097 
L 118.998352 44.376774 
L 120.012898 44.376774 
L 120.012898 55.215484 
L 121.027443 55.215484 
L 121.027443 49.434839 
L 122.041989 49.434839 
L 122.041989 30.286452 
L 123.056534 30.286452 
L 123.056534 41.125161 
L 124.07108 41.125161 
L 124.07108 47.267097 
L 125.085625 47.267097 
L 125.085625 59.912258 
L 126.10017 59.912258 
L 126.10017 49.434839 
L 127.114716 49.434839 
L 127.114716 58.467097 
L 128.129261 58.467097 
L 128.129261 63.525161 
L 129.143807 63.525161 
L 129.143807 57.383226 
L 130.158352 57.383226 
L 130.158352 60.634839 
L 131.172898 60.634839 
L 131.172898 62.802581 
L 132.187443 62.802581 
L 132.187443 53.770323 
L 133.201989 53.770323 
L 133.201989 70.028387 
L 134.216534 70.028387 
L 134.216534 58.828387 
L 135.23108 58.828387 
L 135.23108 53.770323 
L 136.245625 53.770323 
L 136.245625 67.860645 
L 137.26017 67.860645 
L 137.26017 60.634839 
L 138.274716 60.634839 
L 138.274716 70.750968 
L 139.289261 70.750968 
L 139.289261 70.028387 
L 140.303807 70.028387 
L 140.303807 79.060645 
L 141.318352 79.060645 
L 141.318352 72.91871 
L 142.332898 72.91871 
L 142.332898 77.615484 
L 143.347443 77.615484 
L 143.347443 70.750968 
L 144.361989 70.750968 
L 144.361989 53.409032 
L 145.376534 53.409032 
L 145.376534 63.886452 
L 146.39108 63.886452 
L 146.39108 70.028387 
L 147.405625 70.028387 
L 147.405625 68.221935 
L 148.42017 68.221935 
L 148.42017 59.550968 
L 149.434716 59.550968 
L 149.434716 63.525161 
L 150.449261 63.525161 
L 150.449261 64.609032 
L 151.463807 64.609032 
L 151.463807 93.150968 
L 152.478352 93.150968 
L 152.478352 80.505806 
L 154.507443 80.505806 
L 154.507443 90.260645 
L 155.521989 90.260645 
L 155.521989 80.867097 
L 156.536534 80.867097 
L 156.536534 94.234839 
L 157.55108 94.234839 
L 157.55108 64.247742 
L 158.565625 64.247742 
L 158.565625 79.783226 
L 159.58017 79.783226 
L 159.58017 77.254194 
L 160.594716 77.254194 
L 160.594716 81.950968 
L 161.609261 81.950968 
L 161.609261 84.48 
L 162.623807 84.48 
L 162.623807 76.170323 
L 163.638352 76.170323 
L 163.638352 86.647742 
L 164.652898 86.647742 
L 164.652898 89.899355 
L 165.667443 89.899355 
L 165.667443 90.260645 
L 166.681989 90.260645 
L 166.681989 94.957419 
L 167.696534 94.957419 
L 167.696534 88.454194 
L 168.71108 88.454194 
L 168.71108 83.034839 
L 169.725625 83.034839 
L 169.725625 94.596129 
L 170.74017 94.596129 
L 170.74017 108.325161 
L 171.754716 108.325161 
L 171.754716 89.899355 
L 172.769261 89.899355 
L 172.769261 102.905806 
L 173.783807 102.905806 
L 173.783807 100.738065 
L 174.798352 100.738065 
L 174.798352 113.021935 
L 175.812898 113.021935 
L 175.812898 111.215484 
L 176.827443 111.215484 
L 176.827443 125.305806 
L 177.841989 125.305806 
L 177.841989 118.44129 
L 178.856534 118.44129 
L 178.856534 126.028387 
L 179.87108 126.028387 
L 179.87108 132.170323 
L 180.885625 132.170323 
L 180.885625 137.228387 
L 181.90017 137.228387 
L 181.90017 142.647742 
L 182.914716 142.647742 
L 182.914716 154.931613 
L 183.929261 154.931613 
L 183.929261 149.512258 
L 184.943807 149.512258 
L 184.943807 157.099355 
L 185.958352 157.099355 
L 185.958352 168.299355 
L 186.972898 168.299355 
L 186.972898 157.099355 
L 187.987443 157.099355 
L 187.987443 164.686452 
L 189.001989 164.686452 
L 189.001989 172.634839 
L 190.016534 172.634839 
L 190.016534 175.163871 
L 191.03108 175.163871 
L 191.03108 178.415484 
L 192.045625 178.415484 
L 192.045625 185.64129 
L 193.06017 185.64129 
L 193.06017 183.112258 
L 194.074716 183.112258 
L 194.074716 191.783226 
L 195.089261 191.783226 
L 195.089261 196.84129 
L 196.103807 196.84129 
L 196.103807 202.983226 
L 197.118352 202.983226 
L 197.118352 206.596129 
L 198.132898 206.596129 
L 198.132898 205.150968 
L 199.147443 205.150968 
L 199.147443 210.209032 
L 200.161989 210.209032 
L 200.161989 213.099355 
L 201.176534 213.099355 
L 201.176534 213.821935 
L 202.19108 213.821935 
L 202.19108 216.350968 
L 203.205625 216.350968 
L 203.205625 214.544516 
L 204.22017 214.544516 
L 204.22017 216.712258 
L 205.234716 216.712258 
L 205.234716 218.51871 
L 206.249261 218.51871 
L 206.249261 218.88 
L 220.452898 218.88 
L 220.452898 217.434839 
L 221.467443 217.434839 
L 221.467443 213.460645 
L 222.481989 213.460645 
L 222.481989 210.570323 
L 223.496534 210.570323 
L 223.496534 204.067097 
L 224.51108 204.067097 
L 224.51108 202.621935 
L 225.525625 202.621935 
L 225.525625 192.144516 
L 226.54017 192.144516 
L 226.54017 183.473548 
L 227.554716 183.473548 
L 227.554716 182.028387 
L 229.583807 182.028387 
L 229.583807 173.71871 
L 230.598352 173.71871 
L 230.598352 181.667097 
L 231.612898 181.667097 
L 231.612898 172.634839 
L 232.627443 172.634839 
L 232.627443 169.383226 
L 233.641989 169.383226 
L 233.641989 156.015484 
L 234.656534 156.015484 
L 234.656534 162.88 
L 235.67108 162.88 
L 235.67108 154.931613 
L 236.685625 154.931613 
L 236.685625 153.847742 
L 237.70017 153.847742 
L 237.70017 149.150968 
L 238.714716 149.150968 
L 238.714716 156.738065 
L 239.729261 156.738065 
L 239.729261 130.725161 
L 240.743807 130.725161 
L 240.743807 142.647742 
L 241.758352 142.647742 
L 241.758352 144.092903 
L 242.772898 144.092903 
L 242.772898 141.563871 
L 243.787443 141.563871 
L 243.787443 131.447742 
L 244.801989 131.447742 
L 244.801989 129.64129 
L 245.816534 129.64129 
L 245.816534 130.002581 
L 246.83108 130.002581 
L 246.83108 125.305806 
L 247.845625 125.305806 
L 247.845625 124.583226 
L 248.86017 124.583226 
L 248.86017 125.667097 
L 249.874716 125.667097 
L 249.874716 122.415484 
L 250.889261 122.415484 
L 250.889261 117.71871 
L 251.903807 117.71871 
L 251.903807 104.712258 
L 252.918352 104.712258 
L 252.918352 120.609032 
L 253.932898 120.609032 
L 253.932898 105.796129 
L 254.947443 105.796129 
L 254.947443 111.938065 
L 255.961989 111.938065 
L 255.961989 102.544516 
L 257.99108 102.544516 
L 257.99108 93.873548 
L 259.005625 93.873548 
L 259.005625 100.015484 
L 260.02017 100.015484 
L 260.02017 93.512258 
L 261.034716 93.512258 
L 261.034716 93.150968 
L 262.049261 93.150968 
L 262.049261 98.209032 
L 263.063807 98.209032 
L 263.063807 80.505806 
L 264.078352 80.505806 
L 264.078352 96.402581 
L 265.092898 96.402581 
L 265.092898 92.067097 
L 266.107443 92.067097 
L 266.107443 82.673548 
L 267.121989 82.673548 
L 267.121989 99.292903 
L 268.136534 99.292903 
L 268.136534 94.596129 
L 269.15108 94.596129 
L 269.15108 103.989677 
L 270.165625 103.989677 
L 270.165625 89.899355 
L 271.18017 89.899355 
L 271.18017 92.789677 
L 272.194716 92.789677 
L 272.194716 109.409032 
L 273.209261 109.409032 
L 273.209261 90.621935 
L 274.223807 90.621935 
L 274.223807 99.654194 
L 275.238352 99.654194 
L 275.238352 109.047742 
L 276.252898 109.047742 
L 276.252898 109.770323 
L 277.267443 109.770323 
L 277.267443 98.209032 
L 278.281989 98.209032 
L 278.281989 109.047742 
L 279.296534 109.047742 
L 279.296534 107.24129 
L 280.31108 107.24129 
L 280.31108 103.628387 
L 281.325625 103.628387 
L 281.325625 98.570323 
L 282.34017 98.570323 
L 282.34017 111.938065 
L 283.354716 111.938065 
L 283.354716 114.828387 
L 284.369261 114.828387 
L 284.369261 110.854194 
L 285.383807 110.854194 
L 285.383807 106.51871 
L 286.398352 106.51871 
L 286.398352 107.24129 
L 287.412898 107.24129 
L 287.412898 120.609032 
L 288.427443 120.609032 
L 288.427443 121.331613 
L 289.441989 121.331613 
L 289.441989 117.357419 
L 290.456534 117.357419 
L 290.456534 110.854194 
L 291.47108 110.854194 
L 291.47108 116.273548 
L 292.485625 116.273548 
L 292.485625 115.189677 
L 294.514716 115.189677 
L 294.514716 116.996129 
L 295.529261 116.996129 
L 295.529261 115.189677 
L 296.543807 115.189677 
L 296.543807 114.828387 
L 297.558352 114.828387 
L 297.558352 131.447742 
L 298.572898 131.447742 
L 298.572898 130.725161 
L 299.587443 130.725161 
L 299.587443 135.060645 
L 300.601989 135.060645 
L 300.601989 130.363871 
L 301.616534 130.363871 
L 301.616534 123.499355 
L 302.63108 123.499355 
L 302.63108 141.925161 
L 303.645625 141.925161 
L 303.645625 125.667097 
L 304.66017 125.667097 
L 304.66017 130.725161 
L 305.674716 130.725161 
L 305.674716 137.589677 
L 306.689261 137.589677 
L 306.689261 137.228387 
L 307.703807 137.228387 
L 307.703807 140.48 
L 308.718352 140.48 
L 308.718352 140.84129 
L 309.732898 140.84129 
L 309.732898 145.176774 
L 310.747443 145.176774 
L 310.747443 140.48 
L 311.761989 140.48 
L 311.761989 136.144516 
L 312.776534 136.144516 
L 312.776534 156.738065 
L 313.79108 156.738065 
L 313.79108 136.505806 
L 314.805625 136.505806 
L 314.805625 153.847742 
L 315.82017 153.847742 
L 315.82017 142.286452 
L 316.834716 142.286452 
L 316.834716 150.957419 
L 317.849261 150.957419 
L 317.849261 149.873548 
L 318.863807 149.873548 
L 318.863807 150.957419 
L 319.878352 150.957419 
L 319.878352 151.68 
L 320.892898 151.68 
L 320.892898 148.428387 
L 321.907443 148.428387 
L 321.907443 158.905806 
L 322.921989 158.905806 
L 322.921989 153.486452 
L 323.936534 153.486452 
L 323.936534 154.209032 
L 324.95108 154.209032 
L 324.95108 163.24129 
L 325.965625 163.24129 
L 325.965625 171.189677 
L 326.98017 171.189677 
L 326.98017 167.938065 
L 327.994716 167.938065 
L 327.994716 162.51871 
L 330.023807 162.51871 
L 330.023807 170.828387 
L 331.038352 170.828387 
L 331.038352 172.273548 
L 332.052898 172.273548 
L 332.052898 169.383226 
L 333.067443 169.383226 
L 333.067443 174.802581 
L 334.081989 174.802581 
L 334.081989 176.970323 
L 335.096534 176.970323 
L 335.096534 182.389677 
L 336.11108 182.389677 
L 336.11108 180.583226 
L 337.125625 180.583226 
L 337.125625 183.112258 
L 338.14017 183.112258 
L 338.14017 186.002581 
L 339.154716 186.002581 
L 339.154716 193.589677 
L 340.169261 193.589677 
L 340.169261 184.557419 
L 341.183807 184.557419 
L 341.183807 189.976774 
L 342.198352 189.976774 
L 342.198352 195.034839 
L 343.212898 195.034839 
L 343.212898 192.505806 
L 344.227443 192.505806 
L 344.227443 199.009032 
L 345.241989 199.009032 
L 345.241989 200.454194 
L 346.256534 200.454194 
L 346.256534 196.84129 
L 347.27108 196.84129 
L 347.27108 201.899355 
L 348.285625 201.899355 
L 348.285625 202.260645 
L 349.30017 202.260645 
L 349.30017 201.176774 
L 350.314716 201.176774 
L 350.314716 205.873548 
L 351.329261 205.873548 
L 351.329261 207.68 
L 352.343807 207.68 
L 352.343807 208.04129 
L 353.358352 208.04129 
L 353.358352 209.486452 
L 354.372898 209.486452 
L 354.372898 210.209032 
L 355.387443 210.209032 
L 355.387443 211.654194 
L 356.401989 211.654194 
L 356.401989 212.738065 
L 357.416534 212.738065 
L 357.416534 213.460645 
L 358.43108 213.460645 
L 358.43108 215.989677 
L 359.445625 215.989677 
L 359.445625 216.350968 
L 360.46017 216.350968 
L 360.46017 216.712258 
L 361.474716 216.712258 
L 361.474716 217.434839 
L 362.489261 217.434839 
L 362.489261 217.073548 
L 363.503807 217.073548 
L 363.503807 218.88 
L 364.518352 218.88 
L 364.518352 218.51871 
L 366.547443 218.51871 
L 366.547443 218.51871 
" clip-path="url(#p1467d889e0)" style="fill: none; stroke: #ff7f0e; stroke-width: 1.5; stroke-linecap: square"/>
   </g>
   <g id="patch_3">
    <path d="M 46.965625 228.96 
L 46.965625 7.2 
" style="fill: none; stroke: #000000; stroke-width: 0.8; stroke-linejoin: miter; stroke-linecap: square"/>
   </g>
   <g id="patch_4">
    <path d="M 381.765625 228.96 
L 381.765625 7.2 
" style="fill: none; stroke: #000000; stroke-width: 0.8; stroke-linejoin: miter; stroke-linecap: square"/>
   </g>
   <g id="patch_5">
    <path d="M 46.965625 228.96 
L 381.765625 228.96 
" style="fill: none; stroke: #000000; stroke-width: 0.8; stroke-linejoin: miter; stroke-linecap: square"/>
   </g>
   <g id="patch_6">
    <path d="M 46.965625 7.2 
L 381.765625 7.2 
" style="fill: none; stroke: #000000; stroke-width: 0.8; stroke-linejoin: miter; stroke-linecap: square"/>
   </g>
   <g id="legend_1">
    <g id="patch_7">
     <path d="M 246.957813 45.1125 
L 374.765625 45.1125 
Q 376.765625 45.1125 376.765625 43.1125 
L 376.765625 14.2 
Q 376.765625 12.2 374.765625 12.2 
L 246.957813 12.2 
Q 244.957813 12.2 244.957813 14.2 
L 244.957813 43.1125 
Q 244.957813 45.1125 246.957813 45.1125 
z
" style="fill: #ffffff; opacity: 0.8; stroke: #cccccc; stroke-linejoin: miter"/>
    </g>
    <g id="line2d_15">
     <path d="M 248.957813 20.298437 
L 248.957813 20.298437 
L 258.957813 20.298437 
L 258.957813 20.298437 
L 268.957813 20.298437 
" style="fill: none; stroke: #1f77b4; stroke-width: 1.5; stroke-linecap: square"/>
    </g>
    <g id="text_15">
     <!-- detector_number:0 -->
     <g transform="translate(276.957813 23.798437) scale(0.1 -0.1)">
      <defs>
       <path id="DejaVuSans-64" d="M 2906 2969 
L 2906 4863 
L 3481 4863 
L 3481 0 
L 2906 0 
L 2906 525 
Q 2725 213 2448 61 
Q 2172 -91 1784 -91 
Q 1150 -91 751 415 
Q 353 922 353 1747 
Q 353 2572 751 3078 
Q 1150 3584 1784 3584 
Q 2172 3584 2448 3432 
Q 2725 3281 2906 2969 
z
M 947 1747 
Q 947 1113 1208 752 
Q 1469 391 1925 391 
Q 2381 391 2643 752 
Q 2906 1113 2906 1747 
Q 2906 2381 2643 2742 
Q 2381 3103 1925 3103 
Q 1469 3103 1208 2742 
Q 947 2381 947 1747 
z
" transform="scale(0.015625)"/>
       <path id="DejaVuSans-72" d="M 2631 2963 
Q 2534 3019 2420 3045 
Q 2306 3072 2169 3072 
Q 1681 3072 1420 2755 
Q 1159 2438 1159 1844 
L 1159 0 
L 581 0 
L 581 3500 
L 1159 3500 
L 1159 2956 
Q 1341 3275 1631 3429 
Q 1922 3584 2338 3584 
Q 2397 3584 2469 3576 
Q 2541 3569 2628 3553 
L 2631 2963 
z
" transform="scale(0.015625)"/>
       <path id="DejaVuSans-62" d="M 3116 1747 
Q 3116 2381 2855 2742 
Q 2594 3103 2138 3103 
Q 1681 3103 1420 2742 
Q 1159 2381 1159 1747 
Q 1159 1113 1420 752 
Q 1681 391 2138 391 
Q 2594 391 2855 752 
Q 3116 1113 3116 1747 
z
M 1159 2969 
Q 1341 3281 1617 3432 
Q 1894 3584 2278 3584 
Q 2916 3584 3314 3078 
Q 3713 2572 3713 1747 
Q 3713 922 3314 415 
Q 2916 -91 2278 -91 
Q 1894 -91 1617 61 
Q 1341 213 1159 525 
L 1159 0 
L 581 0 
L 581 4863 
L 1159 4863 
L 1159 2969 
z
" transform="scale(0.015625)"/>
       <path id="DejaVuSans-3a" d="M 750 794 
L 1409 794 
L 1409 0 
L 750 0 
L 750 794 
z
M 750 3309 
L 1409 3309 
L 1409 2516 
L 750 2516 
L 750 3309 
z
" transform="scale(0.015625)"/>
      </defs>
      <use xlink:href="#DejaVuSans-64"/>
      <use xlink:href="#DejaVuSans-65" transform="translate(63.476562 0)"/>
      <use xlink:href="#DejaVuSans-74" transform="translate(125 0)"/>
      <use xlink:href="#DejaVuSans-65" transform="translate(164.208984 0)"/>
      <use xlink:href="#DejaVuSans-63" transform="translate(225.732422 0)"/>
      <use xlink:href="#DejaVuSans-74" transform="translate(280.712891 0)"/>
      <use xlink:href="#DejaVuSans-6f" transform="translate(319.921875 0)"/>
      <use xlink:href="#DejaVuSans-72" transform="translate(381.103516 0)"/>
      <use xlink:href="#DejaVuSans-5f" transform="translate(422.216797 0)"/>
      <use xlink:href="#DejaVuSans-6e" transform="translate(472.216797 0)"/>
      <use xlink:href="#DejaVuSans-75" transform="translate(535.595703 0)"/>
      <use xlink:href="#DejaVuSans-6d" transform="translate(598.974609 0)"/>
      <use xlink:href="#DejaVuSans-62" transform="translate(696.386719 0)"/>
      <use xlink:href="#DejaVuSans-65" transform="translate(759.863281 0)"/>
      <use xlink:href="#DejaVuSans-72" transform="translate(821.386719 0)"/>
      <use xlink:href="#DejaVuSans-3a" transform="translate(860.75 0)"/>
      <use xlink:href="#DejaVuSans-30" transform="translate(894.441406 0)"/>
     </g>
    </g>
    <g id="line2d_16">
     <path d="M 248.957813 35.254687 
L 248.957813 35.254687 
L 258.957813 35.254687 
L 258.957813 35.254687 
L 268.957813 35.254687 
" style="fill: none; stroke: #ff7f0e; stroke-width: 1.5; stroke-linecap: square"/>
    </g>
    <g id="text_16">
     <!-- detector_number:1 -->
     <g transform="translate(276.957813 38.754687) scale(0.1 -0.1)">
      <use xlink:href="#DejaVuSans-64"/>
      <use xlink:href="#DejaVuSans-65" transform="translate(63.476562 0)"/>
      <use xlink:href="#DejaVuSans-74" transform="translate(125 0)"/>
      <use xlink:href="#DejaVuSans-65" transform="translate(164.208984 0)"/>
      <use xlink:href="#DejaVuSans-63" transform="translate(225.732422 0)"/>
      <use xlink:href="#DejaVuSans-74" transform="translate(280.712891 0)"/>
      <use xlink:href="#DejaVuSans-6f" transform="translate(319.921875 0)"/>
      <use xlink:href="#DejaVuSans-72" transform="translate(381.103516 0)"/>
      <use xlink:href="#DejaVuSans-5f" transform="translate(422.216797 0)"/>
      <use xlink:href="#DejaVuSans-6e" transform="translate(472.216797 0)"/>
      <use xlink:href="#DejaVuSans-75" transform="translate(535.595703 0)"/>
      <use xlink:href="#DejaVuSans-6d" transform="translate(598.974609 0)"/>
      <use xlink:href="#DejaVuSans-62" transform="translate(696.386719 0)"/>
      <use xlink:href="#DejaVuSans-65" transform="translate(759.863281 0)"/>
      <use xlink:href="#DejaVuSans-72" transform="translate(821.386719 0)"/>
      <use xlink:href="#DejaVuSans-3a" transform="translate(860.75 0)"/>
      <use xlink:href="#DejaVuSans-31" transform="translate(894.441406 0)"/>
     </g>
    </g>
   </g>
  </g>
 </g>
 <defs>
  <clipPath id="p1467d889e0">
   <rect x="46.965625" y="7.2" width="334.8" height="221.76"/>
  </clipPath>
 </defs>
</svg>
