<?xml version="1.0" encoding="utf-8" standalone="no"?>
<!DOCTYPE svg PUBLIC "-//W3C//DTD SVG 1.1//EN"
  "http://www.w3.org/Graphics/SVG/1.1/DTD/svg11.dtd">
<svg xmlns:xlink="http://www.w3.org/1999/xlink" width="872.39952pt" height="296.39952pt" viewBox="0 0 872.39952 296.39952" xmlns="http://www.w3.org/2000/svg" version="1.1">
 <metadata>
  <rdf:RDF xmlns:dc="http://purl.org/dc/elements/1.1/" xmlns:cc="http://creativecommons.org/ns#" xmlns:rdf="http://www.w3.org/1999/02/22-rdf-syntax-ns#">
   <cc:Work>
    <dc:type rdf:resource="http://purl.org/dc/dcmitype/StillImage"/>
    <dc:date>2026-06-25T12:55:06.778046</dc:date>
    <dc:format>image/svg+xml</dc:format>
    <dc:creator>
     <cc:Agent>
      <dc:title>Matplotlib v3.10.9, https://matplotlib.org/</dc:title>
     </cc:Agent>
    </dc:creator>
   </cc:Work>
  </rdf:RDF>
 </metadata>
 <defs>
  <style type="text/css">*{stroke-linejoin: round; stroke-linecap: butt}</style>
 </defs>
 <g id="figure_1">
  <g id="patch_1">
   <path d="M 0 296.39952 
L 872.39952 296.39952 
L 872.39952 0 
L 0 0 
z
" style="fill: #ffffff"/>
  </g>
  <g id="axes_1">
   <g id="patch_2">
    <path d="M 53.328125 257.158895 
L 414.59976 257.158895 
L 414.59976 7.2 
L 53.328125 7.2 
z
" style="fill: #ffffff"/>
   </g>
   <g id="matplotlib.axis_1">
    <g id="xtick_1">
     <g id="line2d_1">
      <defs>
       <path id="m36607e83e3" d="M 0 0 
L 0 3.5 
" style="stroke: #000000; stroke-width: 0.8"/>
      </defs>
      <g>
       <use xlink:href="#m36607e83e3" x="69.737799" y="257.158895" style="stroke: #000000; stroke-width: 0.8"/>
      </g>
     </g>
     <g id="text_1">
      <!-- 0 -->
      <g transform="translate(66.556549 271.757332) scale(0.1 -0.1)">
       <defs>
        <path id="DejaVuSans-30" d="M 2034 4250 
Q 1547 4250 1301 3770 
Q 1056 3291 1056 2328 
Q 1056 1369 1301 889 
Q 1547 409 2034 409 
Q 2525 409 2770 889 
Q 3016 1369 3016 2328 
Q 3016 3291 2770 3770 
Q 2525 4250 2034 4250 
z
M 2034 4750 
Q 2819 4750 3233 4129 
Q 3647 3509 3647 2328 
Q 3647 1150 3233 529 
Q 2819 -91 2034 -91 
Q 1250 -91 836 529 
Q 422 1150 422 2328 
Q 422 3509 836 4129 
Q 1250 4750 2034 4750 
z
" transform="scale(0.015625)"/>
       </defs>
       <use xlink:href="#DejaVuSans-30"/>
      </g>
     </g>
    </g>
    <g id="xtick_2">
     <g id="line2d_2">
      <g>
       <use xlink:href="#m36607e83e3" x="127.26518" y="257.158895" style="stroke: #000000; stroke-width: 0.8"/>
      </g>
     </g>
     <g id="text_2">
      <!-- 1000 -->
      <g transform="translate(114.54018 271.757332) scale(0.1 -0.1)">
       <defs>
        <path id="DejaVuSans-31" d="M 794 531 
L 1825 531 
L 1825 4091 
L 703 3866 
L 703 4441 
L 1819 4666 
L 2450 4666 
L 2450 531 
L 3481 531 
L 3481 0 
L 794 0 
L 794 531 
z
" transform="scale(0.015625)"/>
       </defs>
       <use xlink:href="#DejaVuSans-31"/>
       <use xlink:href="#DejaVuSans-30" transform="translate(63.623047 0)"/>
       <use xlink:href="#DejaVuSans-30" transform="translate(127.246094 0)"/>
       <use xlink:href="#DejaVuSans-30" transform="translate(190.869141 0)"/>
      </g>
     </g>
    </g>
    <g id="xtick_3">
     <g id="line2d_3">
      <g>
       <use xlink:href="#m36607e83e3" x="184.792561" y="257.158895" style="stroke: #000000; stroke-width: 0.8"/>
      </g>
     </g>
     <g id="text_3">
      <!-- 2000 -->
      <g transform="translate(172.067561 271.757332) scale(0.1 -0.1)">
       <defs>
        <path id="DejaVuSans-32" d="M 1228 531 
L 3431 531 
L 3431 0 
L 469 0 
L 469 531 
Q 828 903 1448 1529 
Q 2069 2156 2228 2338 
Q 2531 2678 2651 2914 
Q 2772 3150 2772 3378 
Q 2772 3750 2511 3984 
Q 2250 4219 1831 4219 
Q 1534 4219 1204 4116 
Q 875 4013 500 3803 
L 500 4441 
Q 881 4594 1212 4672 
Q 1544 4750 1819 4750 
Q 2544 4750 2975 4387 
Q 3406 4025 3406 3419 
Q 3406 3131 3298 2873 
Q 3191 2616 2906 2266 
Q 2828 2175 2409 1742 
Q 1991 1309 1228 531 
z
" transform="scale(0.015625)"/>
       </defs>
       <use xlink:href="#DejaVuSans-32"/>
       <use xlink:href="#DejaVuSans-30" transform="translate(63.623047 0)"/>
       <use xlink:href="#DejaVuSans-30" transform="translate(127.246094 0)"/>
       <use xlink:href="#DejaVuSans-30" transform="translate(190.869141 0)"/>
      </g>
     </g>
    </g>
    <g id="xtick_4">
     <g id="line2d_4">
      <g>
       <use xlink:href="#m36607e83e3" x="242.319943" y="257.158895" style="stroke: #000000; stroke-width: 0.8"/>
      </g>
     </g>
     <g id="text_4">
      <!-- 3000 -->
      <g transform="translate(229.594943 271.757332) scale(0.1 -0.1)">
       <defs>
        <path id="DejaVuSans-33" d="M 2597 2516 
Q 3050 2419 3304 2112 
Q 3559 1806 3559 1356 
Q 3559 666 3084 287 
Q 2609 -91 1734 -91 
Q 1441 -91 1130 -33 
Q 819 25 488 141 
L 488 750 
Q 750 597 1062 519 
Q 1375 441 1716 441 
Q 2309 441 2620 675 
Q 2931 909 2931 1356 
Q 2931 1769 2642 2001 
Q 2353 2234 1838 2234 
L 1294 2234 
L 1294 2753 
L 1863 2753 
Q 2328 2753 2575 2939 
Q 2822 3125 2822 3475 
Q 2822 3834 2567 4026 
Q 2313 4219 1838 4219 
Q 1578 4219 1281 4162 
Q 984 4106 628 3988 
L 628 4550 
Q 988 4650 1302 4700 
Q 1616 4750 1894 4750 
Q 2613 4750 3031 4423 
Q 3450 4097 3450 3541 
Q 3450 3153 3228 2886 
Q 3006 2619 2597 2516 
z
" transform="scale(0.015625)"/>
       </defs>
       <use xlink:href="#DejaVuSans-33"/>
       <use xlink:href="#DejaVuSans-30" transform="translate(63.623047 0)"/>
       <use xlink:href="#DejaVuSans-30" transform="translate(127.246094 0)"/>
       <use xlink:href="#DejaVuSans-30" transform="translate(190.869141 0)"/>
      </g>
     </g>
    </g>
    <g id="xtick_5">
     <g id="line2d_5">
      <g>
       <use xlink:href="#m36607e83e3" x="299.847324" y="257.158895" style="stroke: #000000; stroke-width: 0.8"/>
      </g>
     </g>
     <g id="text_5">
      <!-- 4000 -->
      <g transform="translate(287.122324 271.757332) scale(0.1 -0.1)">
       <defs>
        <path id="DejaVuSans-34" d="M 2419 4116 
L 825 1625 
L 2419 1625 
L 2419 4116 
z
M 2253 4666 
L 3047 4666 
L 3047 1625 
L 3713 1625 
L 3713 1100 
L 3047 1100 
L 3047 0 
L 2419 0 
L 2419 1100 
L 313 1100 
L 313 1709 
L 2253 4666 
z
" transform="scale(0.015625)"/>
       </defs>
       <use xlink:href="#DejaVuSans-34"/>
       <use xlink:href="#DejaVuSans-30" transform="translate(63.623047 0)"/>
       <use xlink:href="#DejaVuSans-30" transform="translate(127.246094 0)"/>
       <use xlink:href="#DejaVuSans-30" transform="translate(190.869141 0)"/>
      </g>
     </g>
    </g>
    <g id="xtick_6">
     <g id="line2d_6">
      <g>
       <use xlink:href="#m36607e83e3" x="357.374705" y="257.158895" style="stroke: #000000; stroke-width: 0.8"/>
      </g>
     </g>
     <g id="text_6">
      <!-- 5000 -->
      <g transform="translate(344.649705 271.757332) scale(0.1 -0.1)">
       <defs>
        <path id="DejaVuSans-35" d="M 691 4666 
L 3169 4666 
L 3169 4134 
L 1269 4134 
L 1269 2991 
Q 1406 3038 1543 3061 
Q 1681 3084 1819 3084 
Q 2600 3084 3056 2656 
Q 3513 2228 3513 1497 
Q 3513 744 3044 326 
Q 2575 -91 1722 -91 
Q 1428 -91 1123 -41 
Q 819 9 494 109 
L 494 744 
Q 775 591 1075 516 
Q 1375 441 1709 441 
Q 2250 441 2565 725 
Q 2881 1009 2881 1497 
Q 2881 1984 2565 2268 
Q 2250 2553 1709 2553 
Q 1456 2553 1204 2497 
Q 953 2441 691 2322 
L 691 4666 
z
" transform="scale(0.015625)"/>
       </defs>
       <use xlink:href="#DejaVuSans-35"/>
       <use xlink:href="#DejaVuSans-30" transform="translate(63.623047 0)"/>
       <use xlink:href="#DejaVuSans-30" transform="translate(127.246094 0)"/>
       <use xlink:href="#DejaVuSans-30" transform="translate(190.869141 0)"/>
      </g>
     </g>
    </g>
    <g id="text_7">
     <!-- birth_time [µs] -->
     <g transform="translate(197.14363 285.435457) scale(0.1 -0.1)">
      <defs>
       <path id="DejaVuSans-62" d="M 3116 1747 
Q 3116 2381 2855 2742 
Q 2594 3103 2138 3103 
Q 1681 3103 1420 2742 
Q 1159 2381 1159 1747 
Q 1159 1113 1420 752 
Q 1681 391 2138 391 
Q 2594 391 2855 752 
Q 3116 1113 3116 1747 
z
M 1159 2969 
Q 1341 3281 1617 3432 
Q 1894 3584 2278 3584 
Q 2916 3584 3314 3078 
Q 3713 2572 3713 1747 
Q 3713 922 3314 415 
Q 2916 -91 2278 -91 
Q 1894 -91 1617 61 
Q 1341 213 1159 525 
L 1159 0 
L 581 0 
L 581 4863 
L 1159 4863 
L 1159 2969 
z
" transform="scale(0.015625)"/>
       <path id="DejaVuSans-69" d="M 603 3500 
L 1178 3500 
L 1178 0 
L 603 0 
L 603 3500 
z
M 603 4863 
L 1178 4863 
L 1178 4134 
L 603 4134 
L 603 4863 
z
" transform="scale(0.015625)"/>
       <path id="DejaVuSans-72" d="M 2631 2963 
Q 2534 3019 2420 3045 
Q 2306 3072 2169 3072 
Q 1681 3072 1420 2755 
Q 1159 2438 1159 1844 
L 1159 0 
L 581 0 
L 581 3500 
L 1159 3500 
L 1159 2956 
Q 1341 3275 1631 3429 
Q 1922 3584 2338 3584 
Q 2397 3584 2469 3576 
Q 2541 3569 2628 3553 
L 2631 2963 
z
" transform="scale(0.015625)"/>
       <path id="DejaVuSans-74" d="M 1172 4494 
L 1172 3500 
L 2356 3500 
L 2356 3053 
L 1172 3053 
L 1172 1153 
Q 1172 725 1289 603 
Q 1406 481 1766 481 
L 2356 481 
L 2356 0 
L 1766 0 
Q 1100 0 847 248 
Q 594 497 594 1153 
L 594 3053 
L 172 3053 
L 172 3500 
L 594 3500 
L 594 4494 
L 1172 4494 
z
" transform="scale(0.015625)"/>
       <path id="DejaVuSans-68" d="M 3513 2113 
L 3513 0 
L 2938 0 
L 2938 2094 
Q 2938 2591 2744 2837 
Q 2550 3084 2163 3084 
Q 1697 3084 1428 2787 
Q 1159 2491 1159 1978 
L 1159 0 
L 581 0 
L 581 4863 
L 1159 4863 
L 1159 2956 
Q 1366 3272 1645 3428 
Q 1925 3584 2291 3584 
Q 2894 3584 3203 3211 
Q 3513 2838 3513 2113 
z
" transform="scale(0.015625)"/>
       <path id="DejaVuSans-5f" d="M 3263 -1063 
L 3263 -1509 
L -63 -1509 
L -63 -1063 
L 3263 -1063 
z
" transform="scale(0.015625)"/>
       <path id="DejaVuSans-6d" d="M 3328 2828 
Q 3544 3216 3844 3400 
Q 4144 3584 4550 3584 
Q 5097 3584 5394 3201 
Q 5691 2819 5691 2113 
L 5691 0 
L 5113 0 
L 5113 2094 
Q 5113 2597 4934 2840 
Q 4756 3084 4391 3084 
Q 3944 3084 3684 2787 
Q 3425 2491 3425 1978 
L 3425 0 
L 2847 0 
L 2847 2094 
Q 2847 2600 2669 2842 
Q 2491 3084 2119 3084 
Q 1678 3084 1418 2786 
Q 1159 2488 1159 1978 
L 1159 0 
L 581 0 
L 581 3500 
L 1159 3500 
L 1159 2956 
Q 1356 3278 1631 3431 
Q 1906 3584 2284 3584 
Q 2666 3584 2933 3390 
Q 3200 3197 3328 2828 
z
" transform="scale(0.015625)"/>
       <path id="DejaVuSans-65" d="M 3597 1894 
L 3597 1613 
L 953 1613 
Q 991 1019 1311 708 
Q 1631 397 2203 397 
Q 2534 397 2845 478 
Q 3156 559 3463 722 
L 3463 178 
Q 3153 47 2828 -22 
Q 2503 -91 2169 -91 
Q 1331 -91 842 396 
Q 353 884 353 1716 
Q 353 2575 817 3079 
Q 1281 3584 2069 3584 
Q 2775 3584 3186 3129 
Q 3597 2675 3597 1894 
z
M 3022 2063 
Q 3016 2534 2758 2815 
Q 2500 3097 2075 3097 
Q 1594 3097 1305 2825 
Q 1016 2553 972 2059 
L 3022 2063 
z
" transform="scale(0.015625)"/>
       <path id="DejaVuSans-20" transform="scale(0.015625)"/>
       <path id="DejaVuSans-5b" d="M 550 4863 
L 1875 4863 
L 1875 4416 
L 1125 4416 
L 1125 -397 
L 1875 -397 
L 1875 -844 
L 550 -844 
L 550 4863 
z
" transform="scale(0.015625)"/>
       <path id="DejaVuSans-b5" d="M 544 -1331 
L 544 3500 
L 1119 3500 
L 1119 1325 
Q 1119 872 1334 640 
Q 1550 409 1972 409 
Q 2434 409 2667 671 
Q 2900 934 2900 1459 
L 2900 3500 
L 3475 3500 
L 3475 806 
Q 3475 619 3529 530 
Q 3584 441 3700 441 
Q 3728 441 3778 458 
Q 3828 475 3916 513 
L 3916 50 
Q 3788 -22 3673 -56 
Q 3559 -91 3450 -91 
Q 3234 -91 3106 31 
Q 2978 153 2931 403 
Q 2775 156 2548 32 
Q 2322 -91 2016 -91 
Q 1697 -91 1473 31 
Q 1250 153 1119 397 
L 1119 -1331 
L 544 -1331 
z
" transform="scale(0.015625)"/>
       <path id="DejaVuSans-73" d="M 2834 3397 
L 2834 2853 
Q 2591 2978 2328 3040 
Q 2066 3103 1784 3103 
Q 1356 3103 1142 2972 
Q 928 2841 928 2578 
Q 928 2378 1081 2264 
Q 1234 2150 1697 2047 
L 1894 2003 
Q 2506 1872 2764 1633 
Q 3022 1394 3022 966 
Q 3022 478 2636 193 
Q 2250 -91 1575 -91 
Q 1294 -91 989 -36 
Q 684 19 347 128 
L 347 722 
Q 666 556 975 473 
Q 1284 391 1588 391 
Q 1994 391 2212 530 
Q 2431 669 2431 922 
Q 2431 1156 2273 1281 
Q 2116 1406 1581 1522 
L 1381 1569 
Q 847 1681 609 1914 
Q 372 2147 372 2553 
Q 372 3047 722 3315 
Q 1072 3584 1716 3584 
Q 2034 3584 2315 3537 
Q 2597 3491 2834 3397 
z
" transform="scale(0.015625)"/>
       <path id="DejaVuSans-5d" d="M 1947 4863 
L 1947 -844 
L 622 -844 
L 622 -397 
L 1369 -397 
L 1369 4416 
L 622 4416 
L 622 4863 
L 1947 4863 
z
" transform="scale(0.015625)"/>
      </defs>
      <use xlink:href="#DejaVuSans-62"/>
      <use xlink:href="#DejaVuSans-69" transform="translate(63.476562 0)"/>
      <use xlink:href="#DejaVuSans-72" transform="translate(91.259766 0)"/>
      <use xlink:href="#DejaVuSans-74" transform="translate(132.373047 0)"/>
      <use xlink:href="#DejaVuSans-68" transform="translate(171.582031 0)"/>
      <use xlink:href="#DejaVuSans-5f" transform="translate(234.960938 0)"/>
      <use xlink:href="#DejaVuSans-74" transform="translate(284.960938 0)"/>
      <use xlink:href="#DejaVuSans-69" transform="translate(324.169922 0)"/>
      <use xlink:href="#DejaVuSans-6d" transform="translate(351.953125 0)"/>
      <use xlink:href="#DejaVuSans-65" transform="translate(449.365234 0)"/>
      <use xlink:href="#DejaVuSans-20" transform="translate(510.888672 0)"/>
      <use xlink:href="#DejaVuSans-5b" transform="translate(542.675781 0)"/>
      <use xlink:href="#DejaVuSans-b5" transform="translate(581.689453 0)"/>
      <use xlink:href="#DejaVuSans-73" transform="translate(645.3125 0)"/>
      <use xlink:href="#DejaVuSans-5d" transform="translate(697.412109 0)"/>
     </g>
    </g>
   </g>
   <g id="matplotlib.axis_2">
    <g id="ytick_1">
     <g id="line2d_7">
      <defs>
       <path id="m12d5406283" d="M 0 0 
L -3.5 0 
" style="stroke: #000000; stroke-width: 0.8"/>
      </defs>
      <g>
       <use xlink:href="#m12d5406283" x="53.328125" y="245.797127" style="stroke: #000000; stroke-width: 0.8"/>
      </g>
     </g>
     <g id="text_8">
      <!-- 0 -->
      <g transform="translate(39.965625 249.596346) scale(0.1 -0.1)">
       <use xlink:href="#DejaVuSans-30"/>
      </g>
     </g>
    </g>
    <g id="ytick_2">
     <g id="line2d_8">
      <g>
       <use xlink:href="#m12d5406283" x="53.328125" y="214.015958" style="stroke: #000000; stroke-width: 0.8"/>
      </g>
     </g>
     <g id="text_9">
      <!-- 200 -->
      <g transform="translate(27.240625 217.815177) scale(0.1 -0.1)">
       <use xlink:href="#DejaVuSans-32"/>
       <use xlink:href="#DejaVuSans-30" transform="translate(63.623047 0)"/>
       <use xlink:href="#DejaVuSans-30" transform="translate(127.246094 0)"/>
      </g>
     </g>
    </g>
    <g id="ytick_3">
     <g id="line2d_9">
      <g>
       <use xlink:href="#m12d5406283" x="53.328125" y="182.234789" style="stroke: #000000; stroke-width: 0.8"/>
      </g>
     </g>
     <g id="text_10">
      <!-- 400 -->
      <g transform="translate(27.240625 186.034008) scale(0.1 -0.1)">
       <use xlink:href="#DejaVuSans-34"/>
       <use xlink:href="#DejaVuSans-30" transform="translate(63.623047 0)"/>
       <use xlink:href="#DejaVuSans-30" transform="translate(127.246094 0)"/>
      </g>
     </g>
    </g>
    <g id="ytick_4">
     <g id="line2d_10">
      <g>
       <use xlink:href="#m12d5406283" x="53.328125" y="150.45362" style="stroke: #000000; stroke-width: 0.8"/>
      </g>
     </g>
     <g id="text_11">
      <!-- 600 -->
      <g transform="translate(27.240625 154.252838) scale(0.1 -0.1)">
       <defs>
        <path id="DejaVuSans-36" d="M 2113 2584 
Q 1688 2584 1439 2293 
Q 1191 2003 1191 1497 
Q 1191 994 1439 701 
Q 1688 409 2113 409 
Q 2538 409 2786 701 
Q 3034 994 3034 1497 
Q 3034 2003 2786 2293 
Q 2538 2584 2113 2584 
z
M 3366 4563 
L 3366 3988 
Q 3128 4100 2886 4159 
Q 2644 4219 2406 4219 
Q 1781 4219 1451 3797 
Q 1122 3375 1075 2522 
Q 1259 2794 1537 2939 
Q 1816 3084 2150 3084 
Q 2853 3084 3261 2657 
Q 3669 2231 3669 1497 
Q 3669 778 3244 343 
Q 2819 -91 2113 -91 
Q 1303 -91 875 529 
Q 447 1150 447 2328 
Q 447 3434 972 4092 
Q 1497 4750 2381 4750 
Q 2619 4750 2861 4703 
Q 3103 4656 3366 4563 
z
" transform="scale(0.015625)"/>
       </defs>
       <use xlink:href="#DejaVuSans-36"/>
       <use xlink:href="#DejaVuSans-30" transform="translate(63.623047 0)"/>
       <use xlink:href="#DejaVuSans-30" transform="translate(127.246094 0)"/>
      </g>
     </g>
    </g>
    <g id="ytick_5">
     <g id="line2d_11">
      <g>
       <use xlink:href="#m12d5406283" x="53.328125" y="118.672451" style="stroke: #000000; stroke-width: 0.8"/>
      </g>
     </g>
     <g id="text_12">
      <!-- 800 -->
      <g transform="translate(27.240625 122.471669) scale(0.1 -0.1)">
       <defs>
        <path id="DejaVuSans-38" d="M 2034 2216 
Q 1584 2216 1326 1975 
Q 1069 1734 1069 1313 
Q 1069 891 1326 650 
Q 1584 409 2034 409 
Q 2484 409 2743 651 
Q 3003 894 3003 1313 
Q 3003 1734 2745 1975 
Q 2488 2216 2034 2216 
z
M 1403 2484 
Q 997 2584 770 2862 
Q 544 3141 544 3541 
Q 544 4100 942 4425 
Q 1341 4750 2034 4750 
Q 2731 4750 3128 4425 
Q 3525 4100 3525 3541 
Q 3525 3141 3298 2862 
Q 3072 2584 2669 2484 
Q 3125 2378 3379 2068 
Q 3634 1759 3634 1313 
Q 3634 634 3220 271 
Q 2806 -91 2034 -91 
Q 1263 -91 848 271 
Q 434 634 434 1313 
Q 434 1759 690 2068 
Q 947 2378 1403 2484 
z
M 1172 3481 
Q 1172 3119 1398 2916 
Q 1625 2713 2034 2713 
Q 2441 2713 2670 2916 
Q 2900 3119 2900 3481 
Q 2900 3844 2670 4047 
Q 2441 4250 2034 4250 
Q 1625 4250 1398 4047 
Q 1172 3844 1172 3481 
z
" transform="scale(0.015625)"/>
       </defs>
       <use xlink:href="#DejaVuSans-38"/>
       <use xlink:href="#DejaVuSans-30" transform="translate(63.623047 0)"/>
       <use xlink:href="#DejaVuSans-30" transform="translate(127.246094 0)"/>
      </g>
     </g>
    </g>
    <g id="ytick_6">
     <g id="line2d_12">
      <g>
       <use xlink:href="#m12d5406283" x="53.328125" y="86.891282" style="stroke: #000000; stroke-width: 0.8"/>
      </g>
     </g>
     <g id="text_13">
      <!-- 1000 -->
      <g transform="translate(20.878125 90.6905) scale(0.1 -0.1)">
       <use xlink:href="#DejaVuSans-31"/>
       <use xlink:href="#DejaVuSans-30" transform="translate(63.623047 0)"/>
       <use xlink:href="#DejaVuSans-30" transform="translate(127.246094 0)"/>
       <use xlink:href="#DejaVuSans-30" transform="translate(190.869141 0)"/>
      </g>
     </g>
    </g>
    <g id="ytick_7">
     <g id="line2d_13">
      <g>
       <use xlink:href="#m12d5406283" x="53.328125" y="55.110112" style="stroke: #000000; stroke-width: 0.8"/>
      </g>
     </g>
     <g id="text_14">
      <!-- 1200 -->
      <g transform="translate(20.878125 58.909331) scale(0.1 -0.1)">
       <use xlink:href="#DejaVuSans-31"/>
       <use xlink:href="#DejaVuSans-32" transform="translate(63.623047 0)"/>
       <use xlink:href="#DejaVuSans-30" transform="translate(127.246094 0)"/>
       <use xlink:href="#DejaVuSans-30" transform="translate(190.869141 0)"/>
      </g>
     </g>
    </g>
    <g id="ytick_8">
     <g id="line2d_14">
      <g>
       <use xlink:href="#m12d5406283" x="53.328125" y="23.328943" style="stroke: #000000; stroke-width: 0.8"/>
      </g>
     </g>
     <g id="text_15">
      <!-- 1400 -->
      <g transform="translate(20.878125 27.128162) scale(0.1 -0.1)">
       <use xlink:href="#DejaVuSans-31"/>
       <use xlink:href="#DejaVuSans-34" transform="translate(63.623047 0)"/>
       <use xlink:href="#DejaVuSans-30" transform="translate(127.246094 0)"/>
       <use xlink:href="#DejaVuSans-30" transform="translate(190.869141 0)"/>
      </g>
     </g>
    </g>
    <g id="text_16">
     <!-- [counts] -->
     <g transform="translate(14.798438 152.791947) rotate(-90) scale(0.1 -0.1)">
      <defs>
       <path id="DejaVuSans-63" d="M 3122 3366 
L 3122 2828 
Q 2878 2963 2633 3030 
Q 2388 3097 2138 3097 
Q 1578 3097 1268 2742 
Q 959 2388 959 1747 
Q 959 1106 1268 751 
Q 1578 397 2138 397 
Q 2388 397 2633 464 
Q 2878 531 3122 666 
L 3122 134 
Q 2881 22 2623 -34 
Q 2366 -91 2075 -91 
Q 1284 -91 818 406 
Q 353 903 353 1747 
Q 353 2603 823 3093 
Q 1294 3584 2113 3584 
Q 2378 3584 2631 3529 
Q 2884 3475 3122 3366 
z
" transform="scale(0.015625)"/>
       <path id="DejaVuSans-6f" d="M 1959 3097 
Q 1497 3097 1228 2736 
Q 959 2375 959 1747 
Q 959 1119 1226 758 
Q 1494 397 1959 397 
Q 2419 397 2687 759 
Q 2956 1122 2956 1747 
Q 2956 2369 2687 2733 
Q 2419 3097 1959 3097 
z
M 1959 3584 
Q 2709 3584 3137 3096 
Q 3566 2609 3566 1747 
Q 3566 888 3137 398 
Q 2709 -91 1959 -91 
Q 1206 -91 779 398 
Q 353 888 353 1747 
Q 353 2609 779 3096 
Q 1206 3584 1959 3584 
z
" transform="scale(0.015625)"/>
       <path id="DejaVuSans-75" d="M 544 1381 
L 544 3500 
L 1119 3500 
L 1119 1403 
Q 1119 906 1312 657 
Q 1506 409 1894 409 
Q 2359 409 2629 706 
Q 2900 1003 2900 1516 
L 2900 3500 
L 3475 3500 
L 3475 0 
L 2900 0 
L 2900 538 
Q 2691 219 2414 64 
Q 2138 -91 1772 -91 
Q 1169 -91 856 284 
Q 544 659 544 1381 
z
M 1991 3584 
L 1991 3584 
z
" transform="scale(0.015625)"/>
       <path id="DejaVuSans-6e" d="M 3513 2113 
L 3513 0 
L 2938 0 
L 2938 2094 
Q 2938 2591 2744 2837 
Q 2550 3084 2163 3084 
Q 1697 3084 1428 2787 
Q 1159 2491 1159 1978 
L 1159 0 
L 581 0 
L 581 3500 
L 1159 3500 
L 1159 2956 
Q 1366 3272 1645 3428 
Q 1925 3584 2291 3584 
Q 2894 3584 3203 3211 
Q 3513 2838 3513 2113 
z
" transform="scale(0.015625)"/>
      </defs>
      <use xlink:href="#DejaVuSans-5b"/>
      <use xlink:href="#DejaVuSans-63" transform="translate(39.013672 0)"/>
      <use xlink:href="#DejaVuSans-6f" transform="translate(93.994141 0)"/>
      <use xlink:href="#DejaVuSans-75" transform="translate(155.175781 0)"/>
      <use xlink:href="#DejaVuSans-6e" transform="translate(218.554688 0)"/>
      <use xlink:href="#DejaVuSans-74" transform="translate(281.933594 0)"/>
      <use xlink:href="#DejaVuSans-73" transform="translate(321.142578 0)"/>
      <use xlink:href="#DejaVuSans-5d" transform="translate(373.242188 0)"/>
     </g>
    </g>
   </g>
   <g id="line2d_15">
    <path d="M 69.749563 229.429825 
L 70.844325 229.429825 
L 70.844325 221.96125 
L 71.939088 221.96125 
L 71.939088 209.566594 
L 73.033851 209.566594 
L 73.033851 203.369266 
L 74.128613 203.369266 
L 74.128613 188.273211 
L 75.223376 188.273211 
L 75.223376 178.421049 
L 76.318138 178.421049 
L 76.318138 169.20451 
L 77.412901 169.20451 
L 77.412901 162.848276 
L 78.507663 162.848276 
L 78.507663 155.061889 
L 79.602426 155.061889 
L 79.602426 141.554892 
L 80.697188 141.554892 
L 80.697188 141.395987 
L 81.791951 141.395987 
L 81.791951 140.601457 
L 82.886713 140.601457 
L 82.886713 126.299931 
L 83.981476 126.299931 
L 83.981476 120.102603 
L 85.076238 120.102603 
L 85.076238 114.064181 
L 86.171001 114.064181 
L 86.171001 105.959983 
L 87.265763 105.959983 
L 87.265763 100.71609 
L 88.360526 100.71609 
L 88.360526 104.053113 
L 89.455288 104.053113 
L 89.455288 100.080467 
L 90.550051 100.080467 
L 90.550051 91.022834 
L 91.644814 91.022834 
L 91.644814 88.321434 
L 92.739576 88.321434 
L 92.739576 89.433775 
L 93.834339 89.433775 
L 93.834339 87.367999 
L 94.929101 87.367999 
L 94.929101 82.600824 
L 96.023864 82.600824 
L 96.023864 73.702096 
L 97.118626 73.702096 
L 97.118626 68.934921 
L 98.213389 68.934921 
L 98.213389 70.206168 
L 99.308151 70.206168 
L 99.308151 65.280087 
L 100.402914 65.280087 
L 100.402914 73.225379 
L 101.497676 73.225379 
L 101.497676 69.570544 
L 102.592439 69.570544 
L 102.592439 62.260875 
L 103.687201 62.260875 
L 103.687201 59.559476 
L 104.781964 59.559476 
L 104.781964 66.869145 
L 105.876726 66.869145 
L 105.876726 61.30744 
L 106.971489 61.30744 
L 106.971489 51.455278 
L 108.066252 51.455278 
L 108.066252 54.951207 
L 109.161014 54.951207 
L 109.161014 51.931996 
L 110.255777 51.931996 
L 110.255777 43.668892 
L 111.350539 43.668892 
L 111.350539 45.893573 
L 112.445302 45.893573 
L 112.445302 57.4937 
L 113.540064 57.4937 
L 113.540064 47.641538 
L 114.634827 47.641538 
L 114.634827 42.556551 
L 115.729589 42.556551 
L 115.729589 43.192174 
L 116.824352 43.192174 
L 116.824352 40.172963 
L 117.919114 40.172963 
L 117.919114 49.707314 
L 119.013877 49.707314 
L 119.013877 55.269018 
L 120.108639 55.269018 
L 120.108639 53.997772 
L 121.203402 53.997772 
L 121.203402 44.145609 
L 122.298164 44.145609 
L 122.298164 47.641538 
L 123.392927 47.641538 
L 123.392927 43.827797 
L 124.487689 43.827797 
L 124.487689 48.594973 
L 125.582452 48.594973 
L 125.582452 49.389502 
L 126.677215 49.389502 
L 126.677215 43.986703 
L 127.771977 43.986703 
L 127.771977 44.622327 
L 128.86674 44.622327 
L 128.86674 42.238739 
L 129.961502 42.238739 
L 129.961502 39.378434 
L 131.056265 39.378434 
L 131.056265 47.16482 
L 132.151027 47.16482 
L 132.151027 41.44421 
L 133.24579 41.44421 
L 133.24579 35.723599 
L 134.340552 35.723599 
L 134.340552 40.808586 
L 135.435315 40.808586 
L 135.435315 35.564693 
L 136.530077 35.564693 
L 136.530077 48.118255 
L 137.62484 48.118255 
L 137.62484 35.087976 
L 138.719602 35.087976 
L 138.719602 40.808586 
L 139.814365 40.808586 
L 139.814365 29.526271 
L 140.909127 29.526271 
L 140.909127 41.762021 
L 142.00389 41.762021 
L 142.00389 34.92907 
L 143.098652 34.92907 
L 143.098652 33.498917 
L 144.193415 33.498917 
L 144.193415 30.479706 
L 145.288178 30.479706 
L 145.288178 25.553625 
L 146.38294 25.553625 
L 146.38294 34.452353 
L 147.477703 34.452353 
L 147.477703 31.274236 
L 148.572465 31.274236 
L 148.572465 46.370291 
L 149.667228 46.370291 
L 149.667228 44.781232 
L 150.76199 44.781232 
L 150.76199 30.002989 
L 151.856753 30.002989 
L 151.856753 40.967492 
L 152.951515 40.967492 
L 152.951515 32.863294 
L 154.046278 32.863294 
L 154.046278 18.561768 
L 155.14104 18.561768 
L 155.14104 32.545482 
L 156.235803 32.545482 
L 156.235803 34.452353 
L 157.330565 34.452353 
L 157.330565 26.189249 
L 158.425328 26.189249 
L 158.425328 29.049554 
L 160.614853 29.049554 
L 160.614853 25.394719 
L 161.709615 25.394719 
L 161.709615 47.005914 
L 162.804378 47.005914 
L 162.804378 38.74281 
L 163.899141 38.74281 
L 163.899141 30.002989 
L 164.993903 30.002989 
L 164.993903 34.92907 
L 166.088666 34.92907 
L 166.088666 34.770164 
L 167.183428 34.770164 
L 167.183428 43.033268 
L 168.278191 43.033268 
L 168.278191 28.41393 
L 169.372953 28.41393 
L 169.372953 31.274236 
L 170.467716 31.274236 
L 170.467716 40.014057 
L 171.562478 40.014057 
L 171.562478 33.0222 
L 173.752003 33.0222 
L 173.752003 37.789375 
L 174.846766 37.789375 
L 174.846766 47.16482 
L 175.941528 47.16482 
L 175.941528 37.789375 
L 177.036291 37.789375 
L 177.036291 25.871437 
L 178.131053 25.871437 
L 178.131053 35.723599 
L 179.225816 35.723599 
L 179.225816 22.375508 
L 180.320579 22.375508 
L 180.320579 41.44421 
L 181.415341 41.44421 
L 181.415341 33.975635 
L 182.510104 33.975635 
L 182.510104 42.556551 
L 183.604866 42.556551 
L 183.604866 35.882505 
L 184.699629 35.882505 
L 184.699629 32.068765 
L 185.794391 32.068765 
L 185.794391 32.545482 
L 186.889154 32.545482 
L 186.889154 20.309732 
L 187.983916 20.309732 
L 187.983916 23.964567 
L 189.078679 23.964567 
L 189.078679 32.545482 
L 190.173441 32.545482 
L 190.173441 35.405788 
L 191.268204 35.405788 
L 191.268204 39.060622 
L 192.362966 39.060622 
L 192.362966 48.118255 
L 193.457729 48.118255 
L 193.457729 35.723599 
L 194.552491 35.723599 
L 194.552491 37.948281 
L 195.647254 37.948281 
L 195.647254 36.200317 
L 196.742016 36.200317 
L 196.742016 32.863294 
L 197.836779 32.863294 
L 197.836779 38.424999 
L 198.931542 38.424999 
L 198.931542 38.266093 
L 200.026304 38.266093 
L 200.026304 24.918002 
L 201.121067 24.918002 
L 201.121067 38.583904 
L 202.215829 38.583904 
L 202.215829 36.994846 
L 203.310592 36.994846 
L 203.310592 40.967492 
L 204.405354 40.967492 
L 204.405354 23.964567 
L 205.500117 23.964567 
L 205.500117 43.192174 
L 206.594879 43.192174 
L 206.594879 27.937213 
L 207.689642 27.937213 
L 207.689642 30.161895 
L 208.784404 30.161895 
L 208.784404 38.901716 
L 209.879167 38.901716 
L 209.879167 32.863294 
L 210.973929 32.863294 
L 210.973929 38.424999 
L 212.068692 38.424999 
L 212.068692 36.677034 
L 213.163454 36.677034 
L 213.163454 40.014057 
L 214.258217 40.014057 
L 214.258217 45.734668 
L 215.352979 45.734668 
L 215.352979 28.255025 
L 216.447742 28.255025 
L 216.447742 29.20846 
L 217.542505 29.20846 
L 217.542505 37.789375 
L 218.637267 37.789375 
L 218.637267 37.630469 
L 219.73203 37.630469 
L 219.73203 33.0222 
L 220.826792 33.0222 
L 220.826792 29.20846 
L 221.921555 29.20846 
L 221.921555 38.107187 
L 223.016317 38.107187 
L 223.016317 36.041411 
L 224.11108 36.041411 
L 224.11108 48.594973 
L 225.205842 48.594973 
L 225.205842 38.424999 
L 226.300605 38.424999 
L 226.300605 40.808586 
L 227.395367 40.808586 
L 227.395367 33.498917 
L 228.49013 33.498917 
L 228.49013 34.134541 
L 229.584892 34.134541 
L 229.584892 34.611258 
L 230.679655 34.611258 
L 230.679655 43.668892 
L 231.774417 43.668892 
L 231.774417 44.940138 
L 232.86918 44.940138 
L 232.86918 33.816729 
L 233.963942 33.816729 
L 233.963942 41.285304 
L 235.058705 41.285304 
L 235.058705 50.819655 
L 236.153468 50.819655 
L 236.153468 59.241664 
L 237.24823 59.241664 
L 237.24823 87.844717 
L 238.342993 87.844717 
L 238.342993 87.367999 
L 239.437755 87.367999 
L 239.437755 101.669525 
L 240.532518 101.669525 
L 240.532518 106.595606 
L 241.62728 106.595606 
L 241.62728 109.932629 
L 242.722043 109.932629 
L 242.722043 125.664308 
L 243.816805 125.664308 
L 243.816805 129.160236 
L 244.911568 129.160236 
L 244.911568 141.713798 
L 246.00633 141.713798 
L 246.00633 145.209727 
L 247.101093 145.209727 
L 247.101093 151.883772 
L 248.195855 151.883772 
L 248.195855 152.36049 
L 249.290618 152.36049 
L 249.290618 161.894841 
L 250.38538 161.894841 
L 250.38538 169.045604 
L 251.480143 169.045604 
L 251.480143 171.270285 
L 252.574906 171.270285 
L 252.574906 178.103237 
L 253.669668 178.103237 
L 253.669668 182.870412 
L 255.859193 182.870412 
L 255.859193 193.993821 
L 256.953956 193.993821 
L 256.953956 191.76914 
L 258.048718 191.76914 
L 258.048718 193.040386 
L 259.143481 193.040386 
L 259.143481 202.733643 
L 260.238243 202.733643 
L 260.238243 204.958325 
L 261.333006 204.958325 
L 261.333006 201.780208 
L 262.427768 201.780208 
L 262.427768 207.659724 
L 263.522531 207.659724 
L 263.522531 208.295348 
L 264.617293 208.295348 
L 264.617293 208.772065 
L 265.712056 208.772065 
L 265.712056 213.53924 
L 266.806818 213.53924 
L 266.806818 217.829698 
L 267.901581 217.829698 
L 267.901581 214.174864 
L 268.996343 214.174864 
L 268.996343 223.550309 
L 270.091106 223.550309 
L 270.091106 222.914685 
L 271.185869 222.914685 
L 271.185869 221.325627 
L 272.280631 221.325627 
L 272.280631 225.139367 
L 273.375394 225.139367 
L 273.375394 224.503744 
L 274.470156 224.503744 
L 274.470156 226.56952 
L 275.564919 226.56952 
L 275.564919 230.065448 
L 276.659681 230.065448 
L 276.659681 231.495601 
L 277.754444 231.495601 
L 277.754444 226.887331 
L 278.849206 226.887331 
L 278.849206 230.065448 
L 279.943969 230.065448 
L 279.943969 230.542166 
L 281.038731 230.542166 
L 281.038731 233.720283 
L 282.133494 233.720283 
L 282.133494 234.673718 
L 283.228256 234.673718 
L 283.228256 234.038094 
L 284.323019 234.038094 
L 284.323019 233.243565 
L 285.417781 233.243565 
L 285.417781 236.10387 
L 286.512544 236.10387 
L 286.512544 234.99153 
L 287.607306 234.99153 
L 287.607306 238.487458 
L 288.702069 238.487458 
L 288.702069 235.944965 
L 289.796832 235.944965 
L 289.796832 236.10387 
L 290.891594 236.10387 
L 290.891594 237.851835 
L 291.986357 237.851835 
L 291.986357 237.216211 
L 293.081119 237.216211 
L 293.081119 239.123082 
L 294.175882 239.123082 
L 294.175882 238.010741 
L 295.270644 238.010741 
L 295.270644 240.71214 
L 296.365407 240.71214 
L 296.365407 241.029952 
L 297.460169 241.029952 
L 297.460169 239.599799 
L 298.554932 239.599799 
L 298.554932 241.188858 
L 299.649694 241.188858 
L 299.649694 241.029952 
L 301.839219 241.029952 
L 301.839219 241.983387 
L 302.933982 241.983387 
L 302.933982 242.301198 
L 304.028744 242.301198 
L 304.028744 241.506669 
L 305.123507 241.506669 
L 305.123507 243.413539 
L 306.218269 243.413539 
L 306.218269 242.61901 
L 307.313032 242.61901 
L 307.313032 242.301198 
L 308.407795 242.301198 
L 308.407795 243.572445 
L 310.59732 243.572445 
L 310.59732 243.731351 
L 311.692082 243.731351 
L 311.692082 242.301198 
L 312.786845 242.301198 
L 312.786845 244.208069 
L 313.881607 244.208069 
L 313.881607 242.936822 
L 314.97637 242.936822 
L 314.97637 242.777916 
L 316.071132 242.777916 
L 316.071132 243.572445 
L 317.165895 243.572445 
L 317.165895 244.366974 
L 318.260657 244.366974 
L 318.260657 244.049163 
L 319.35542 244.049163 
L 319.35542 242.61901 
L 320.450182 242.61901 
L 320.450182 244.366974 
L 321.544945 244.366974 
L 321.544945 244.049163 
L 322.639707 244.049163 
L 322.639707 244.366974 
L 323.73447 244.366974 
L 323.73447 244.684786 
L 324.829233 244.684786 
L 324.829233 244.049163 
L 325.923995 244.049163 
L 325.923995 245.32041 
L 327.018758 245.32041 
L 327.018758 244.049163 
L 328.11352 244.049163 
L 328.11352 245.638221 
L 329.208283 245.638221 
L 329.208283 243.890257 
L 330.303045 243.890257 
L 330.303045 245.002598 
L 331.397808 245.002598 
L 331.397808 245.32041 
L 332.49257 245.32041 
L 332.49257 243.890257 
L 333.587333 243.890257 
L 333.587333 245.002598 
L 334.682095 245.002598 
L 334.682095 245.161504 
L 335.776858 245.161504 
L 335.776858 245.32041 
L 336.87162 245.32041 
L 336.87162 245.479315 
L 337.966383 245.479315 
L 337.966383 244.843692 
L 339.061145 244.843692 
L 339.061145 245.161504 
L 340.155908 245.161504 
L 340.155908 245.797127 
L 341.25067 245.797127 
L 341.25067 245.638221 
L 342.345433 245.638221 
L 342.345433 245.32041 
L 344.534958 245.32041 
L 344.534958 245.002598 
L 345.629721 245.002598 
L 345.629721 245.638221 
L 346.724483 245.638221 
L 346.724483 245.002598 
L 347.819246 245.002598 
L 347.819246 244.684786 
L 350.008771 244.684786 
L 350.008771 245.479315 
L 351.103533 245.479315 
L 351.103533 245.797127 
L 352.198296 245.797127 
L 352.198296 245.638221 
L 354.387821 245.638221 
L 354.387821 245.32041 
L 355.482583 245.32041 
L 355.482583 245.479315 
L 357.672108 245.479315 
L 357.672108 245.638221 
L 360.956396 245.638221 
L 360.956396 245.797127 
L 362.051159 245.797127 
L 362.051159 245.479315 
L 363.145921 245.479315 
L 363.145921 245.638221 
L 367.524971 245.638221 
L 367.524971 245.797127 
L 374.093546 245.797127 
L 374.093546 245.638221 
L 376.283071 245.638221 
L 376.283071 245.797127 
L 379.567359 245.797127 
L 379.567359 245.638221 
L 380.662122 245.638221 
L 380.662122 245.797127 
L 381.756884 245.797127 
L 381.756884 245.638221 
L 382.851647 245.638221 
L 382.851647 245.797127 
L 383.946409 245.797127 
L 383.946409 245.638221 
L 385.041172 245.638221 
L 385.041172 245.797127 
L 390.514984 245.797127 
L 390.514984 245.638221 
L 391.609747 245.638221 
L 391.609747 245.797127 
L 397.08356 245.797127 
L 397.08356 245.638221 
L 398.178322 245.638221 
L 398.178322 245.638221 
" clip-path="url(#p8329f078f0)" style="fill: none; stroke: #1f77b4; stroke-width: 1.5; stroke-linecap: square"/>
   </g>
   <g id="patch_3">
    <path d="M 53.328125 257.158895 
L 53.328125 7.2 
" style="fill: none; stroke: #000000; stroke-width: 0.8; stroke-linejoin: miter; stroke-linecap: square"/>
   </g>
   <g id="patch_4">
    <path d="M 414.59976 257.158895 
L 414.59976 7.2 
" style="fill: none; stroke: #000000; stroke-width: 0.8; stroke-linejoin: miter; stroke-linecap: square"/>
   </g>
   <g id="patch_5">
    <path d="M 53.328125 257.158895 
L 414.59976 257.158895 
" style="fill: none; stroke: #000000; stroke-width: 0.8; stroke-linejoin: miter; stroke-linecap: square"/>
   </g>
   <g id="patch_6">
    <path d="M 53.328125 7.2 
L 414.59976 7.2 
" style="fill: none; stroke: #000000; stroke-width: 0.8; stroke-linejoin: miter; stroke-linecap: square"/>
   </g>
  </g>
  <g id="axes_2">
   <g id="patch_7">
    <path d="M 503.927885 257.158895 
L 865.19952 257.158895 
L 865.19952 7.2 
L 503.927885 7.2 
z
" style="fill: #ffffff"/>
   </g>
   <g id="matplotlib.axis_3">
    <g id="xtick_7">
     <g id="line2d_16">
      <g>
       <use xlink:href="#m36607e83e3" x="518.698534" y="257.158895" style="stroke: #000000; stroke-width: 0.8"/>
      </g>
     </g>
     <g id="text_17">
      <!-- 0.0 -->
      <g transform="translate(510.746972 271.757332) scale(0.1 -0.1)">
       <defs>
        <path id="DejaVuSans-2e" d="M 684 794 
L 1344 794 
L 1344 0 
L 684 0 
L 684 794 
z
" transform="scale(0.015625)"/>
       </defs>
       <use xlink:href="#DejaVuSans-30"/>
       <use xlink:href="#DejaVuSans-2e" transform="translate(63.623047 0)"/>
       <use xlink:href="#DejaVuSans-30" transform="translate(95.410156 0)"/>
      </g>
     </g>
    </g>
    <g id="xtick_8">
     <g id="line2d_17">
      <g>
       <use xlink:href="#m36607e83e3" x="559.966722" y="257.158895" style="stroke: #000000; stroke-width: 0.8"/>
      </g>
     </g>
     <g id="text_18">
      <!-- 2.5 -->
      <g transform="translate(552.015159 271.757332) scale(0.1 -0.1)">
       <use xlink:href="#DejaVuSans-32"/>
       <use xlink:href="#DejaVuSans-2e" transform="translate(63.623047 0)"/>
       <use xlink:href="#DejaVuSans-35" transform="translate(95.410156 0)"/>
      </g>
     </g>
    </g>
    <g id="xtick_9">
     <g id="line2d_18">
      <g>
       <use xlink:href="#m36607e83e3" x="601.234909" y="257.158895" style="stroke: #000000; stroke-width: 0.8"/>
      </g>
     </g>
     <g id="text_19">
      <!-- 5.0 -->
      <g transform="translate(593.283347 271.757332) scale(0.1 -0.1)">
       <use xlink:href="#DejaVuSans-35"/>
       <use xlink:href="#DejaVuSans-2e" transform="translate(63.623047 0)"/>
       <use xlink:href="#DejaVuSans-30" transform="translate(95.410156 0)"/>
      </g>
     </g>
    </g>
    <g id="xtick_10">
     <g id="line2d_19">
      <g>
       <use xlink:href="#m36607e83e3" x="642.503097" y="257.158895" style="stroke: #000000; stroke-width: 0.8"/>
      </g>
     </g>
     <g id="text_20">
      <!-- 7.5 -->
      <g transform="translate(634.551534 271.757332) scale(0.1 -0.1)">
       <defs>
        <path id="DejaVuSans-37" d="M 525 4666 
L 3525 4666 
L 3525 4397 
L 1831 0 
L 1172 0 
L 2766 4134 
L 525 4134 
L 525 4666 
z
" transform="scale(0.015625)"/>
       </defs>
       <use xlink:href="#DejaVuSans-37"/>
       <use xlink:href="#DejaVuSans-2e" transform="translate(63.623047 0)"/>
       <use xlink:href="#DejaVuSans-35" transform="translate(95.410156 0)"/>
      </g>
     </g>
    </g>
    <g id="xtick_11">
     <g id="line2d_20">
      <g>
       <use xlink:href="#m36607e83e3" x="683.771284" y="257.158895" style="stroke: #000000; stroke-width: 0.8"/>
      </g>
     </g>
     <g id="text_21">
      <!-- 10.0 -->
      <g transform="translate(672.638472 271.757332) scale(0.1 -0.1)">
       <use xlink:href="#DejaVuSans-31"/>
       <use xlink:href="#DejaVuSans-30" transform="translate(63.623047 0)"/>
       <use xlink:href="#DejaVuSans-2e" transform="translate(127.246094 0)"/>
       <use xlink:href="#DejaVuSans-30" transform="translate(159.033203 0)"/>
      </g>
     </g>
    </g>
    <g id="xtick_12">
     <g id="line2d_21">
      <g>
       <use xlink:href="#m36607e83e3" x="725.039472" y="257.158895" style="stroke: #000000; stroke-width: 0.8"/>
      </g>
     </g>
     <g id="text_22">
      <!-- 12.5 -->
      <g transform="translate(713.906659 271.757332) scale(0.1 -0.1)">
       <use xlink:href="#DejaVuSans-31"/>
       <use xlink:href="#DejaVuSans-32" transform="translate(63.623047 0)"/>
       <use xlink:href="#DejaVuSans-2e" transform="translate(127.246094 0)"/>
       <use xlink:href="#DejaVuSans-35" transform="translate(159.033203 0)"/>
      </g>
     </g>
    </g>
    <g id="xtick_13">
     <g id="line2d_22">
      <g>
       <use xlink:href="#m36607e83e3" x="766.307659" y="257.158895" style="stroke: #000000; stroke-width: 0.8"/>
      </g>
     </g>
     <g id="text_23">
      <!-- 15.0 -->
      <g transform="translate(755.174847 271.757332) scale(0.1 -0.1)">
       <use xlink:href="#DejaVuSans-31"/>
       <use xlink:href="#DejaVuSans-35" transform="translate(63.623047 0)"/>
       <use xlink:href="#DejaVuSans-2e" transform="translate(127.246094 0)"/>
       <use xlink:href="#DejaVuSans-30" transform="translate(159.033203 0)"/>
      </g>
     </g>
    </g>
    <g id="xtick_14">
     <g id="line2d_23">
      <g>
       <use xlink:href="#m36607e83e3" x="807.575847" y="257.158895" style="stroke: #000000; stroke-width: 0.8"/>
      </g>
     </g>
     <g id="text_24">
      <!-- 17.5 -->
      <g transform="translate(796.443034 271.757332) scale(0.1 -0.1)">
       <use xlink:href="#DejaVuSans-31"/>
       <use xlink:href="#DejaVuSans-37" transform="translate(63.623047 0)"/>
       <use xlink:href="#DejaVuSans-2e" transform="translate(127.246094 0)"/>
       <use xlink:href="#DejaVuSans-35" transform="translate(159.033203 0)"/>
      </g>
     </g>
    </g>
    <g id="xtick_15">
     <g id="line2d_24">
      <g>
       <use xlink:href="#m36607e83e3" x="848.844034" y="257.158895" style="stroke: #000000; stroke-width: 0.8"/>
      </g>
     </g>
     <g id="text_25">
      <!-- 20.0 -->
      <g transform="translate(837.711222 271.757332) scale(0.1 -0.1)">
       <use xlink:href="#DejaVuSans-32"/>
       <use xlink:href="#DejaVuSans-30" transform="translate(63.623047 0)"/>
       <use xlink:href="#DejaVuSans-2e" transform="translate(127.246094 0)"/>
       <use xlink:href="#DejaVuSans-30" transform="translate(159.033203 0)"/>
      </g>
     </g>
    </g>
    <g id="text_26">
     <!-- wavelength [Å] -->
     <g transform="translate(646.526202 287.119832) scale(0.1 -0.1)">
      <defs>
       <path id="DejaVuSans-77" d="M 269 3500 
L 844 3500 
L 1563 769 
L 2278 3500 
L 2956 3500 
L 3675 769 
L 4391 3500 
L 4966 3500 
L 4050 0 
L 3372 0 
L 2619 2869 
L 1863 0 
L 1184 0 
L 269 3500 
z
" transform="scale(0.015625)"/>
       <path id="DejaVuSans-61" d="M 2194 1759 
Q 1497 1759 1228 1600 
Q 959 1441 959 1056 
Q 959 750 1161 570 
Q 1363 391 1709 391 
Q 2188 391 2477 730 
Q 2766 1069 2766 1631 
L 2766 1759 
L 2194 1759 
z
M 3341 1997 
L 3341 0 
L 2766 0 
L 2766 531 
Q 2569 213 2275 61 
Q 1981 -91 1556 -91 
Q 1019 -91 701 211 
Q 384 513 384 1019 
Q 384 1609 779 1909 
Q 1175 2209 1959 2209 
L 2766 2209 
L 2766 2266 
Q 2766 2663 2505 2880 
Q 2244 3097 1772 3097 
Q 1472 3097 1187 3025 
Q 903 2953 641 2809 
L 641 3341 
Q 956 3463 1253 3523 
Q 1550 3584 1831 3584 
Q 2591 3584 2966 3190 
Q 3341 2797 3341 1997 
z
" transform="scale(0.015625)"/>
       <path id="DejaVuSans-76" d="M 191 3500 
L 800 3500 
L 1894 563 
L 2988 3500 
L 3597 3500 
L 2284 0 
L 1503 0 
L 191 3500 
z
" transform="scale(0.015625)"/>
       <path id="DejaVuSans-6c" d="M 603 4863 
L 1178 4863 
L 1178 0 
L 603 0 
L 603 4863 
z
" transform="scale(0.015625)"/>
       <path id="DejaVuSans-67" d="M 2906 1791 
Q 2906 2416 2648 2759 
Q 2391 3103 1925 3103 
Q 1463 3103 1205 2759 
Q 947 2416 947 1791 
Q 947 1169 1205 825 
Q 1463 481 1925 481 
Q 2391 481 2648 825 
Q 2906 1169 2906 1791 
z
M 3481 434 
Q 3481 -459 3084 -895 
Q 2688 -1331 1869 -1331 
Q 1566 -1331 1297 -1286 
Q 1028 -1241 775 -1147 
L 775 -588 
Q 1028 -725 1275 -790 
Q 1522 -856 1778 -856 
Q 2344 -856 2625 -561 
Q 2906 -266 2906 331 
L 2906 616 
Q 2728 306 2450 153 
Q 2172 0 1784 0 
Q 1141 0 747 490 
Q 353 981 353 1791 
Q 353 2603 747 3093 
Q 1141 3584 1784 3584 
Q 2172 3584 2450 3431 
Q 2728 3278 2906 2969 
L 2906 3500 
L 3481 3500 
L 3481 434 
z
" transform="scale(0.015625)"/>
       <path id="DejaVuSans-c5" d="M 2663 5081 
Q 2663 5278 2523 5417 
Q 2384 5556 2188 5556 
Q 1988 5556 1852 5420 
Q 1716 5284 1716 5081 
Q 1716 4884 1853 4746 
Q 1991 4609 2188 4609 
Q 2384 4609 2523 4746 
Q 2663 4884 2663 5081 
z
M 2188 4044 
L 1338 1722 
L 3041 1722 
L 2188 4044 
z
M 1716 4366 
Q 1525 4494 1428 4673 
Q 1331 4853 1331 5081 
Q 1331 5441 1579 5691 
Q 1828 5941 2188 5941 
Q 2544 5941 2795 5689 
Q 3047 5438 3047 5081 
Q 3047 4863 2948 4678 
Q 2850 4494 2663 4366 
L 4325 0 
L 3669 0 
L 3244 1197 
L 1141 1197 
L 716 0 
L 50 0 
L 1716 4366 
z
" transform="scale(0.015625)"/>
      </defs>
      <use xlink:href="#DejaVuSans-77"/>
      <use xlink:href="#DejaVuSans-61" transform="translate(81.787109 0)"/>
      <use xlink:href="#DejaVuSans-76" transform="translate(143.066406 0)"/>
      <use xlink:href="#DejaVuSans-65" transform="translate(202.246094 0)"/>
      <use xlink:href="#DejaVuSans-6c" transform="translate(263.769531 0)"/>
      <use xlink:href="#DejaVuSans-65" transform="translate(291.552734 0)"/>
      <use xlink:href="#DejaVuSans-6e" transform="translate(353.076172 0)"/>
      <use xlink:href="#DejaVuSans-67" transform="translate(416.455078 0)"/>
      <use xlink:href="#DejaVuSans-74" transform="translate(479.931641 0)"/>
      <use xlink:href="#DejaVuSans-68" transform="translate(519.140625 0)"/>
      <use xlink:href="#DejaVuSans-20" transform="translate(582.519531 0)"/>
      <use xlink:href="#DejaVuSans-5b" transform="translate(614.306641 0)"/>
      <use xlink:href="#DejaVuSans-c5" transform="translate(653.320312 0)"/>
      <use xlink:href="#DejaVuSans-5d" transform="translate(721.728516 0)"/>
     </g>
    </g>
   </g>
   <g id="matplotlib.axis_4">
    <g id="ytick_9">
     <g id="line2d_25">
      <g>
       <use xlink:href="#m12d5406283" x="503.927885" y="245.797127" style="stroke: #000000; stroke-width: 0.8"/>
      </g>
     </g>
     <g id="text_27">
      <!-- 0 -->
      <g transform="translate(490.565385 249.596346) scale(0.1 -0.1)">
       <use xlink:href="#DejaVuSans-30"/>
      </g>
     </g>
    </g>
    <g id="ytick_10">
     <g id="line2d_26">
      <g>
       <use xlink:href="#m12d5406283" x="503.927885" y="205.903279" style="stroke: #000000; stroke-width: 0.8"/>
      </g>
     </g>
     <g id="text_28">
      <!-- 1000 -->
      <g transform="translate(471.477885 209.702498) scale(0.1 -0.1)">
       <use xlink:href="#DejaVuSans-31"/>
       <use xlink:href="#DejaVuSans-30" transform="translate(63.623047 0)"/>
       <use xlink:href="#DejaVuSans-30" transform="translate(127.246094 0)"/>
       <use xlink:href="#DejaVuSans-30" transform="translate(190.869141 0)"/>
      </g>
     </g>
    </g>
    <g id="ytick_11">
     <g id="line2d_27">
      <g>
       <use xlink:href="#m12d5406283" x="503.927885" y="166.009431" style="stroke: #000000; stroke-width: 0.8"/>
      </g>
     </g>
     <g id="text_29">
      <!-- 2000 -->
      <g transform="translate(471.477885 169.808649) scale(0.1 -0.1)">
       <use xlink:href="#DejaVuSans-32"/>
       <use xlink:href="#DejaVuSans-30" transform="translate(63.623047 0)"/>
       <use xlink:href="#DejaVuSans-30" transform="translate(127.246094 0)"/>
       <use xlink:href="#DejaVuSans-30" transform="translate(190.869141 0)"/>
      </g>
     </g>
    </g>
    <g id="ytick_12">
     <g id="line2d_28">
      <g>
       <use xlink:href="#m12d5406283" x="503.927885" y="126.115583" style="stroke: #000000; stroke-width: 0.8"/>
      </g>
     </g>
     <g id="text_30">
      <!-- 3000 -->
      <g transform="translate(471.477885 129.914801) scale(0.1 -0.1)">
       <use xlink:href="#DejaVuSans-33"/>
       <use xlink:href="#DejaVuSans-30" transform="translate(63.623047 0)"/>
       <use xlink:href="#DejaVuSans-30" transform="translate(127.246094 0)"/>
       <use xlink:href="#DejaVuSans-30" transform="translate(190.869141 0)"/>
      </g>
     </g>
    </g>
    <g id="ytick_13">
     <g id="line2d_29">
      <g>
       <use xlink:href="#m12d5406283" x="503.927885" y="86.221734" style="stroke: #000000; stroke-width: 0.8"/>
      </g>
     </g>
     <g id="text_31">
      <!-- 4000 -->
      <g transform="translate(471.477885 90.020953) scale(0.1 -0.1)">
       <use xlink:href="#DejaVuSans-34"/>
       <use xlink:href="#DejaVuSans-30" transform="translate(63.623047 0)"/>
       <use xlink:href="#DejaVuSans-30" transform="translate(127.246094 0)"/>
       <use xlink:href="#DejaVuSans-30" transform="translate(190.869141 0)"/>
      </g>
     </g>
    </g>
    <g id="ytick_14">
     <g id="line2d_30">
      <g>
       <use xlink:href="#m12d5406283" x="503.927885" y="46.327886" style="stroke: #000000; stroke-width: 0.8"/>
      </g>
     </g>
     <g id="text_32">
      <!-- 5000 -->
      <g transform="translate(471.477885 50.127105) scale(0.1 -0.1)">
       <use xlink:href="#DejaVuSans-35"/>
       <use xlink:href="#DejaVuSans-30" transform="translate(63.623047 0)"/>
       <use xlink:href="#DejaVuSans-30" transform="translate(127.246094 0)"/>
       <use xlink:href="#DejaVuSans-30" transform="translate(190.869141 0)"/>
      </g>
     </g>
    </g>
    <g id="text_33">
     <!-- [counts] -->
     <g transform="translate(465.398197 152.791947) rotate(-90) scale(0.1 -0.1)">
      <use xlink:href="#DejaVuSans-5b"/>
      <use xlink:href="#DejaVuSans-63" transform="translate(39.013672 0)"/>
      <use xlink:href="#DejaVuSans-6f" transform="translate(93.994141 0)"/>
      <use xlink:href="#DejaVuSans-75" transform="translate(155.175781 0)"/>
      <use xlink:href="#DejaVuSans-6e" transform="translate(218.554688 0)"/>
      <use xlink:href="#DejaVuSans-74" transform="translate(281.933594 0)"/>
      <use xlink:href="#DejaVuSans-73" transform="translate(321.142578 0)"/>
      <use xlink:href="#DejaVuSans-5d" transform="translate(373.242188 0)"/>
     </g>
    </g>
   </g>
   <g id="line2d_31">
    <path d="M 520.349323 18.561768 
L 521.444085 18.561768 
L 521.444085 79.758931 
L 522.538848 79.758931 
L 522.538848 122.963969 
L 523.633611 122.963969 
L 523.633611 147.897624 
L 524.728373 147.897624 
L 524.728373 167.046671 
L 525.823136 167.046671 
L 525.823136 176.820664 
L 526.917898 176.820664 
L 526.917898 183.921769 
L 528.012661 183.921769 
L 528.012661 186.275506 
L 529.107423 186.275506 
L 529.107423 172.392446 
L 530.202186 172.392446 
L 530.202186 153.402975 
L 531.296948 153.402975 
L 531.296948 134.413503 
L 532.391711 134.413503 
L 532.391711 111.713903 
L 533.486473 111.713903 
L 533.486473 92.325493 
L 534.581236 92.325493 
L 534.581236 73.176446 
L 535.675998 73.176446 
L 535.675998 73.016871 
L 536.770761 73.016871 
L 536.770761 71.381223 
L 537.865523 71.381223 
L 537.865523 76.407848 
L 538.960286 76.407848 
L 538.960286 78.841373 
L 540.055048 78.841373 
L 540.055048 88.535578 
L 541.149811 88.535578 
L 541.149811 98.189889 
L 542.244574 98.189889 
L 542.244574 106.009083 
L 543.339336 106.009083 
L 543.339336 112.232523 
L 544.434099 112.232523 
L 544.434099 118.256494 
L 545.528861 118.256494 
L 545.528861 120.051718 
L 546.623624 120.051718 
L 546.623624 136.807134 
L 547.718386 136.807134 
L 547.718386 134.253928 
L 548.813149 134.253928 
L 548.813149 137.844374 
L 549.907911 137.844374 
L 549.907911 138.482676 
L 551.002674 138.482676 
L 551.002674 138.761932 
L 553.192199 138.761932 
L 553.192199 136.208726 
L 554.286961 136.208726 
L 554.286961 128.98794 
L 555.381724 128.98794 
L 555.381724 123.402801 
L 556.476486 123.402801 
L 556.476486 120.969276 
L 557.571249 120.969276 
L 557.571249 106.727172 
L 558.666012 106.727172 
L 558.666012 98.429252 
L 559.760774 98.429252 
L 559.760774 95.357426 
L 560.855537 95.357426 
L 560.855537 97.79095 
L 561.950299 97.79095 
L 561.950299 99.34681 
L 563.045062 99.34681 
L 563.045062 106.128765 
L 564.139824 106.128765 
L 564.139824 115.424031 
L 565.234587 115.424031 
L 565.234587 120.690019 
L 566.329349 120.690019 
L 566.329349 128.150169 
L 567.424112 128.150169 
L 567.424112 134.972017 
L 568.518874 134.972017 
L 568.518874 138.3231 
L 569.613637 138.3231 
L 569.613637 143.948133 
L 570.708399 143.948133 
L 570.708399 150.490724 
L 571.803162 150.490724 
L 571.803162 155.876393 
L 572.897924 155.876393 
L 572.897924 160.464186 
L 573.992687 160.464186 
L 573.992687 162.379091 
L 575.087449 162.379091 
L 575.087449 169.081257 
L 576.182212 169.081257 
L 576.182212 171.714251 
L 577.276975 171.714251 
L 577.276975 175.424379 
L 578.371737 175.424379 
L 578.371737 180.451004 
L 579.4665 180.451004 
L 579.4665 184.719646 
L 580.561262 184.719646 
L 580.561262 184.121238 
L 581.656025 184.121238 
L 581.656025 189.626589 
L 582.750787 189.626589 
L 582.750787 189.028181 
L 583.84555 189.028181 
L 583.84555 191.900538 
L 584.940312 191.900538 
L 584.940312 197.006951 
L 586.035075 197.006951 
L 586.035075 194.932471 
L 587.129837 194.932471 
L 587.129837 198.283554 
L 588.2246 198.283554 
L 588.2246 204.98572 
L 589.319362 204.98572 
L 589.319362 203.908586 
L 590.414125 203.908586 
L 590.414125 204.905933 
L 591.508887 204.905933 
L 591.508887 209.892664 
L 592.60365 209.892664 
L 592.60365 211.887356 
L 593.698412 211.887356 
L 593.698412 213.163959 
L 594.793175 213.163959 
L 594.793175 214.839501 
L 595.887938 214.839501 
L 595.887938 214.161305 
L 596.9827 214.161305 
L 596.9827 215.876741 
L 598.077463 215.876741 
L 598.077463 217.512389 
L 599.172225 217.512389 
L 599.172225 218.709204 
L 600.266988 218.709204 
L 600.266988 219.985807 
L 601.36175 219.985807 
L 601.36175 222.219863 
L 602.456513 222.219863 
L 602.456513 223.097527 
L 603.551275 223.097527 
L 603.551275 223.975192 
L 604.646038 223.975192 
L 604.646038 224.254449 
L 605.7408 224.254449 
L 605.7408 225.172008 
L 606.835563 225.172008 
L 606.835563 226.328929 
L 607.930325 226.328929 
L 607.930325 227.725214 
L 609.025088 227.725214 
L 609.025088 228.004471 
L 610.11985 228.004471 
L 610.11985 228.283728 
L 611.214613 228.283728 
L 611.214613 229.680012 
L 612.309375 229.680012 
L 612.309375 230.557677 
L 613.404138 230.557677 
L 613.404138 229.360862 
L 614.498901 229.360862 
L 614.498901 231.116191 
L 615.593663 231.116191 
L 615.593663 230.79704 
L 616.688426 230.79704 
L 616.688426 231.076297 
L 617.783188 231.076297 
L 617.783188 232.432688 
L 618.877951 232.432688 
L 618.877951 233.549716 
L 619.972713 233.549716 
L 619.972713 234.347593 
L 621.067476 234.347593 
L 621.067476 234.985894 
L 622.162238 234.985894 
L 622.162238 234.267805 
L 623.257001 234.267805 
L 623.257001 234.946 
L 625.446526 234.946 
L 625.446526 234.62685 
L 626.541288 234.62685 
L 626.541288 236.940693 
L 627.636051 236.940693 
L 627.636051 237.499207 
L 628.730813 237.499207 
L 628.730813 237.100268 
L 629.825576 237.100268 
L 629.825576 235.863559 
L 630.920339 235.863559 
L 630.920339 238.25719 
L 632.015101 238.25719 
L 632.015101 238.057721 
L 633.109864 238.057721 
L 633.109864 238.895491 
L 634.204626 238.895491 
L 634.204626 237.379525 
L 635.299389 237.379525 
L 635.299389 238.656128 
L 636.394151 238.656128 
L 636.394151 238.855597 
L 637.488914 238.855597 
L 637.488914 239.573687 
L 639.678439 239.533793 
L 639.678439 239.733262 
L 640.773201 239.733262 
L 640.773201 239.254536 
L 641.867964 239.254536 
L 641.867964 239.573687 
L 644.057489 239.653474 
L 644.057489 240.211988 
L 646.247014 240.172094 
L 646.247014 241.009865 
L 647.341776 241.009865 
L 647.341776 241.169441 
L 648.436539 241.169441 
L 648.436539 240.571033 
L 649.531302 240.571033 
L 649.531302 242.086999 
L 650.626064 242.086999 
L 650.626064 241.36891 
L 652.815589 241.448698 
L 652.815589 241.807742 
L 653.910352 241.807742 
L 653.910352 242.007211 
L 655.005114 242.007211 
L 655.005114 241.488591 
L 656.099877 241.488591 
L 656.099877 242.605619 
L 657.194639 242.605619 
L 657.194639 241.847636 
L 658.289402 241.847636 
L 658.289402 242.565725 
L 659.384164 242.565725 
L 659.384164 242.206681 
L 660.478927 242.206681 
L 660.478927 242.725301 
L 662.668452 242.725301 
L 662.668452 243.004558 
L 663.763214 243.004558 
L 663.763214 242.605619 
L 664.857977 242.605619 
L 664.857977 242.007211 
L 665.952739 242.007211 
L 665.952739 242.446044 
L 667.047502 242.446044 
L 667.047502 242.884876 
L 668.142265 242.884876 
L 668.142265 243.283815 
L 669.237027 243.283815 
L 669.237027 242.844982 
L 670.33179 242.844982 
L 670.33179 243.124239 
L 671.426552 243.124239 
L 671.426552 243.563072 
L 672.521315 243.563072 
L 672.521315 243.204027 
L 673.616077 243.204027 
L 673.616077 243.323708 
L 674.71084 243.323708 
L 674.71084 243.882222 
L 676.900365 243.922116 
L 676.900365 243.762541 
L 677.995127 243.762541 
L 677.995127 243.283815 
L 679.08989 243.283815 
L 679.08989 243.842328 
L 680.184652 243.842328 
L 680.184652 243.563072 
L 681.279415 243.563072 
L 681.279415 243.922116 
L 682.374177 243.922116 
L 682.374177 244.201373 
L 683.46894 244.201373 
L 683.46894 243.842328 
L 684.563702 243.842328 
L 684.563702 244.281161 
L 687.84799 244.281161 
L 687.84799 244.001904 
L 688.942753 244.001904 
L 688.942753 244.360949 
L 690.037515 244.360949 
L 690.037515 243.682753 
L 691.132278 243.682753 
L 691.132278 244.241267 
L 692.22704 244.241267 
L 692.22704 244.360949 
L 693.321803 244.360949 
L 693.321803 243.842328 
L 694.416565 243.842328 
L 694.416565 244.321055 
L 695.511328 244.321055 
L 695.511328 244.560418 
L 696.60609 244.560418 
L 696.60609 244.440736 
L 697.700853 244.440736 
L 697.700853 244.680099 
L 698.795615 244.680099 
L 698.795615 244.440736 
L 699.890378 244.440736 
L 699.890378 244.919462 
L 700.98514 244.919462 
L 700.98514 244.600312 
L 702.079903 244.600312 
L 702.079903 244.400842 
L 703.174666 244.400842 
L 703.174666 244.839675 
L 704.269428 244.839675 
L 704.269428 244.640205 
L 707.553716 244.640205 
L 707.553716 244.879569 
L 709.743241 244.919462 
L 709.743241 244.719993 
L 710.838003 244.719993 
L 710.838003 244.879569 
L 711.932766 244.879569 
L 711.932766 244.719993 
L 713.027528 244.719993 
L 713.027528 244.99925 
L 714.122291 244.99925 
L 714.122291 244.680099 
L 715.217053 244.680099 
L 715.217053 245.158825 
L 716.311816 245.158825 
L 716.311816 244.719993 
L 717.406578 244.719993 
L 717.406578 244.919462 
L 718.501341 244.919462 
L 718.501341 245.158825 
L 719.596103 245.158825 
L 719.596103 244.919462 
L 721.785629 244.99925 
L 721.785629 244.719993 
L 722.880391 244.719993 
L 722.880391 245.158825 
L 727.259441 245.079038 
L 727.259441 245.398189 
L 728.354204 245.398189 
L 728.354204 245.039144 
L 729.448966 245.039144 
L 729.448966 245.198719 
L 731.638491 245.158825 
L 731.638491 244.99925 
L 732.733254 244.99925 
L 732.733254 245.318401 
L 734.922779 245.238613 
L 734.922779 245.198719 
L 738.207066 245.198719 
L 738.207066 245.318401 
L 740.396592 245.318401 
L 740.396592 245.198719 
L 741.491354 245.198719 
L 741.491354 244.99925 
L 742.586117 244.99925 
L 742.586117 245.278507 
L 744.775642 245.358295 
L 744.775642 245.477976 
L 745.870404 245.477976 
L 745.870404 245.278507 
L 750.249454 245.278507 
L 750.249454 245.637552 
L 751.344217 245.637552 
L 751.344217 245.477976 
L 752.438979 245.477976 
L 752.438979 244.99925 
L 753.533742 244.99925 
L 753.533742 245.318401 
L 755.723267 245.278507 
L 755.723267 245.438082 
L 756.818029 245.438082 
L 756.818029 245.318401 
L 759.007555 245.358295 
L 759.007555 245.637552 
L 760.102317 245.637552 
L 760.102317 245.438082 
L 763.386605 245.51787 
L 763.386605 245.557764 
L 764.481367 245.557764 
L 764.481367 245.717339 
L 766.670892 245.637552 
L 766.670892 245.477976 
L 767.765655 245.477976 
L 767.765655 245.597658 
L 769.95518 245.51787 
L 769.95518 245.477976 
L 777.618518 245.477976 
L 777.618518 245.677446 
L 778.71328 245.677446 
L 778.71328 245.358295 
L 779.808043 245.358295 
L 779.808043 245.637552 
L 781.997568 245.717339 
L 781.997568 245.438082 
L 783.09233 245.438082 
L 783.09233 245.597658 
L 787.47138 245.597658 
L 787.47138 245.438082 
L 789.660905 245.438082 
L 789.660905 245.677446 
L 799.513768 245.677446 
L 799.513768 245.557764 
L 801.703293 245.51787 
L 801.703293 245.757233 
L 802.798056 245.757233 
L 802.798056 245.597658 
L 806.082343 245.677446 
L 806.082343 245.757233 
L 808.271868 245.677446 
L 808.271868 245.637552 
L 812.650919 245.717339 
L 812.650919 245.797127 
L 813.745681 245.797127 
L 813.745681 245.677446 
L 814.840444 245.677446 
L 814.840444 245.797127 
L 815.935206 245.797127 
L 815.935206 245.677446 
L 820.314256 245.677446 
L 820.314256 245.51787 
L 821.409019 245.51787 
L 821.409019 245.757233 
L 822.503781 245.757233 
L 822.503781 245.637552 
L 823.598544 245.637552 
L 823.598544 245.757233 
L 829.072356 245.717339 
L 829.072356 245.637552 
L 836.735694 245.717339 
L 836.735694 245.757233 
L 845.493794 245.677446 
L 845.493794 245.597658 
L 846.588557 245.597658 
L 846.588557 245.757233 
L 848.778082 245.717339 
L 848.778082 245.717339 
" clip-path="url(#p918c8f990f)" style="fill: none; stroke: #1f77b4; stroke-width: 1.5; stroke-linecap: square"/>
   </g>
   <g id="patch_8">
    <path d="M 503.927885 257.158895 
L 503.927885 7.2 
" style="fill: none; stroke: #000000; stroke-width: 0.8; stroke-linejoin: miter; stroke-linecap: square"/>
   </g>
   <g id="patch_9">
    <path d="M 865.19952 257.158895 
L 865.19952 7.2 
" style="fill: none; stroke: #000000; stroke-width: 0.8; stroke-linejoin: miter; stroke-linecap: square"/>
   </g>
   <g id="patch_10">
    <path d="M 503.927885 257.158895 
L 865.19952 257.158895 
" style="fill: none; stroke: #000000; stroke-width: 0.8; stroke-linejoin: miter; stroke-linecap: square"/>
   </g>
   <g id="patch_11">
    <path d="M 503.927885 7.2 
L 865.19952 7.2 
" style="fill: none; stroke: #000000; stroke-width: 0.8; stroke-linejoin: miter; stroke-linecap: square"/>
   </g>
  </g>
 </g>
 <defs>
  <clipPath id="p8329f078f0">
   <rect x="53.328125" y="7.2" width="361.271635" height="249.958895"/>
  </clipPath>
  <clipPath id="p918c8f990f">
   <rect x="503.927885" y="7.2" width="361.271635" height="249.958895"/>
  </clipPath>
 </defs>
</svg>
