<?xml version="1.0" encoding="UTF-8" standalone="no"?>
<!DOCTYPE svg PUBLIC "-//W3C//DTD SVG 1.1//EN"
 "http://www.w3.org/Graphics/SVG/1.1/DTD/svg11.dtd">
<!-- Generated by graphviz version 14.1.2 (20260126.1125)
 -->
<!-- Pages: 1 -->
<svg width="1153pt" height="378pt"
 viewBox="0.00 0.00 1153.00 378.00" xmlns="http://www.w3.org/2000/svg" xmlns:xlink="http://www.w3.org/1999/xlink">
<g id="graph0" class="graph" transform="scale(1 1) rotate(0) translate(4 374.25)">
<polygon fill="white" stroke="none" points="-4,4 -4,-374.25 1148.88,-374.25 1148.88,4 -4,4"/>
<!-- PulsePeriod -->
<g id="node1" class="node">
<title>PulsePeriod</title>
<polygon fill="none" stroke="black" points="563.62,-370.25 462.88,-370.25 462.88,-345 563.62,-345 563.62,-370.25"/>
<text xml:space="preserve" text-anchor="start" x="470.88" y="-352.95" font-family="Times,serif" font-size="14.00">PulsePeriod</text>
</g>
<!-- ChopperFrameSequence[SampleRun] -->
<g id="node2" class="node">
<title>ChopperFrameSequence[SampleRun]</title>
<polygon fill="none" stroke="black" points="953.5,-240 669,-240 669,-207 953.5,-207 953.5,-240"/>
<text xml:space="preserve" text-anchor="start" x="677" y="-223.7" font-family="Times,serif" font-size="14.00">ChopperFrameSequence[SampleRun]</text>
<text xml:space="preserve" text-anchor="start" x="729.12" y="-212.55" font-family="Times,serif" font-size="11.00">via:</text>
<text xml:space="preserve" text-anchor="start" x="749.38" y="-212.55" font-family="Times,serif" font-style="italic" font-size="11.00">compute_frame_sequence</text>
</g>
<!-- PulsePeriod&#45;&gt;ChopperFrameSequence[SampleRun] -->
<g id="edge1" class="edge">
<title>PulsePeriod&#45;&gt;ChopperFrameSequence[SampleRun]</title>
<path fill="none" stroke="black" d="M510.45,-344.73C507.12,-327.25 503.95,-294.68 521.25,-276 532.05,-264.34 600.76,-251.86 668.58,-242.1"/>
<polygon fill="black" stroke="black" points="668.98,-245.58 678.39,-240.71 668,-238.65 668.98,-245.58"/>
</g>
<!-- PulseStride[SampleRun] -->
<g id="node6" class="node">
<title>PulseStride[SampleRun]</title>
<polygon fill="none" stroke="black" points="754.12,-309 524.38,-309 524.38,-276 754.12,-276 754.12,-309"/>
<text xml:space="preserve" text-anchor="start" x="551.5" y="-292.7" font-family="Times,serif" font-size="14.00">PulseStride[SampleRun]</text>
<text xml:space="preserve" text-anchor="start" x="532.38" y="-281.55" font-family="Times,serif" font-size="11.00">via:</text>
<text xml:space="preserve" text-anchor="start" x="552.62" y="-281.55" font-family="Times,serif" font-style="italic" font-size="11.00">guess_pulse_stride_from_choppers</text>
</g>
<!-- PulsePeriod&#45;&gt;PulseStride[SampleRun] -->
<g id="edge17" class="edge">
<title>PulsePeriod&#45;&gt;PulseStride[SampleRun]</title>
<path fill="none" stroke="black" d="M537.25,-344.6C554.27,-336.07 577.56,-324.41 597.59,-314.37"/>
<polygon fill="black" stroke="black" points="598.99,-317.59 606.36,-309.98 595.85,-311.33 598.99,-317.59"/>
</g>
<!-- LookupTable[SampleRun, NXdetector] -->
<g id="node9" class="node">
<title>LookupTable[SampleRun, NXdetector]</title>
<polygon fill="none" stroke="black" points="642.75,-171 353.75,-171 353.75,-138 642.75,-138 642.75,-171"/>
<text xml:space="preserve" text-anchor="start" x="361.75" y="-154.7" font-family="Times,serif" font-size="14.00">LookupTable[SampleRun, NXdetector]</text>
<text xml:space="preserve" text-anchor="start" x="384.62" y="-143.55" font-family="Times,serif" font-size="11.00">via:</text>
<text xml:space="preserve" text-anchor="start" x="404.88" y="-143.55" font-family="Times,serif" font-style="italic" font-size="11.00">make_wavelength_lut_from_polygons</text>
</g>
<!-- PulsePeriod&#45;&gt;LookupTable[SampleRun, NXdetector] -->
<g id="edge12" class="edge">
<title>PulsePeriod&#45;&gt;LookupTable[SampleRun, NXdetector]</title>
<path fill="none" stroke="black" d="M511.5,-344.51C510.16,-334.9 508.37,-321.12 507.25,-309 503.18,-264.84 500.6,-213.36 499.29,-182.65"/>
<polygon fill="black" stroke="black" points="502.79,-182.58 498.89,-172.73 495.8,-182.86 502.79,-182.58"/>
</g>
<!-- ChopperFrameSequence[SampleRun]&#45;&gt;LookupTable[SampleRun, NXdetector] -->
<g id="edge14" class="edge">
<title>ChopperFrameSequence[SampleRun]&#45;&gt;LookupTable[SampleRun, NXdetector]</title>
<path fill="none" stroke="black" d="M736.68,-206.54C690.71,-196.7 631.62,-184.05 583.76,-173.8"/>
<polygon fill="black" stroke="black" points="584.79,-170.44 574.27,-171.77 583.32,-177.29 584.79,-170.44"/>
</g>
<!-- DiskChoppers[SampleRun] -->
<g id="node3" class="node">
<title>DiskChoppers[SampleRun]</title>
<polygon fill="none" stroke="black" points="886.25,-370.25 678.25,-370.25 678.25,-345 886.25,-345 886.25,-370.25"/>
<text xml:space="preserve" text-anchor="start" x="686.25" y="-352.95" font-family="Times,serif" font-size="14.00">DiskChoppers[SampleRun]</text>
</g>
<!-- DiskChoppers[SampleRun]&#45;&gt;ChopperFrameSequence[SampleRun] -->
<g id="edge2" class="edge">
<title>DiskChoppers[SampleRun]&#45;&gt;ChopperFrameSequence[SampleRun]</title>
<path fill="none" stroke="black" d="M833.54,-344.59C852.17,-337.47 871.32,-326.32 882.25,-309 890.08,-296.6 888.91,-289.07 882.25,-276 876.2,-264.14 866.01,-254.38 855.21,-246.66"/>
<polygon fill="black" stroke="black" points="857.19,-243.78 846.91,-241.24 853.36,-249.64 857.19,-243.78"/>
</g>
<!-- DiskChoppers[SampleRun]&#45;&gt;PulseStride[SampleRun] -->
<g id="edge16" class="edge">
<title>DiskChoppers[SampleRun]&#45;&gt;PulseStride[SampleRun]</title>
<path fill="none" stroke="black" d="M755.02,-344.6C735.41,-335.95 708.48,-324.06 685.53,-313.93"/>
<polygon fill="black" stroke="black" points="687.25,-310.86 676.69,-310.03 684.43,-317.27 687.25,-310.86"/>
</g>
<!-- Position[NXsource, SampleRun] -->
<g id="node4" class="node">
<title>Position[NXsource, SampleRun]</title>
<polygon fill="none" stroke="black" points="1144.88,-305.12 901.62,-305.12 901.62,-279.88 1144.88,-279.88 1144.88,-305.12"/>
<text xml:space="preserve" text-anchor="start" x="909.62" y="-287.82" font-family="Times,serif" font-size="14.00">Position[NXsource, SampleRun]</text>
</g>
<!-- Position[NXsource, SampleRun]&#45;&gt;ChopperFrameSequence[SampleRun] -->
<g id="edge3" class="edge">
<title>Position[NXsource, SampleRun]&#45;&gt;ChopperFrameSequence[SampleRun]</title>
<path fill="none" stroke="black" d="M985.35,-279.52C953.91,-269.59 908.62,-255.27 872.11,-243.73"/>
<polygon fill="black" stroke="black" points="873.61,-240.54 863.02,-240.86 871.5,-247.21 873.61,-240.54"/>
</g>
<!-- SourceBounds -->
<g id="node5" class="node">
<title>SourceBounds</title>
<polygon fill="none" stroke="black" points="879.62,-305.12 760.88,-305.12 760.88,-279.88 879.62,-279.88 879.62,-305.12"/>
<text xml:space="preserve" text-anchor="start" x="768.88" y="-287.82" font-family="Times,serif" font-size="14.00">SourceBounds</text>
</g>
<!-- SourceBounds&#45;&gt;ChopperFrameSequence[SampleRun] -->
<g id="edge4" class="edge">
<title>SourceBounds&#45;&gt;ChopperFrameSequence[SampleRun]</title>
<path fill="none" stroke="black" d="M818.64,-279.52C817.59,-271.71 816.18,-261.19 814.87,-251.43"/>
<polygon fill="black" stroke="black" points="818.36,-251.1 813.55,-241.66 811.42,-252.04 818.36,-251.1"/>
</g>
<!-- PulseStride[SampleRun]&#45;&gt;ChopperFrameSequence[SampleRun] -->
<g id="edge5" class="edge">
<title>PulseStride[SampleRun]&#45;&gt;ChopperFrameSequence[SampleRun]</title>
<path fill="none" stroke="black" d="M680.01,-275.62C703.83,-266.34 734.12,-254.55 759.59,-244.62"/>
<polygon fill="black" stroke="black" points="760.73,-247.94 768.77,-241.05 758.19,-241.41 760.73,-247.94"/>
</g>
<!-- PulseStride[SampleRun]&#45;&gt;LookupTable[SampleRun, NXdetector] -->
<g id="edge13" class="edge">
<title>PulseStride[SampleRun]&#45;&gt;LookupTable[SampleRun, NXdetector]</title>
<path fill="none" stroke="black" d="M644.54,-275.56C649.55,-257.27 654.4,-227.18 640.25,-207 630.77,-193.48 617.36,-183.49 602.53,-176.12"/>
<polygon fill="black" stroke="black" points="604.01,-172.95 593.45,-172.05 601.14,-179.33 604.01,-172.95"/>
</g>
<!-- DetectorLtotal[SampleRun] -->
<g id="node7" class="node">
<title>DetectorLtotal[SampleRun]</title>
<polygon fill="none" stroke="black" points="212.5,-305.12 0,-305.12 0,-279.88 212.5,-279.88 212.5,-305.12"/>
<text xml:space="preserve" text-anchor="start" x="8" y="-287.82" font-family="Times,serif" font-size="14.00">DetectorLtotal[SampleRun]</text>
</g>
<!-- LtotalRange[SampleRun, NXdetector] -->
<g id="node13" class="node">
<title>LtotalRange[SampleRun, NXdetector]</title>
<polygon fill="none" stroke="black" points="326.25,-240 40.25,-240 40.25,-207 326.25,-207 326.25,-240"/>
<text xml:space="preserve" text-anchor="start" x="48.25" y="-223.7" font-family="Times,serif" font-size="14.00">LtotalRange[SampleRun, NXdetector]</text>
<text xml:space="preserve" text-anchor="start" x="79.75" y="-212.55" font-family="Times,serif" font-size="11.00">via:</text>
<text xml:space="preserve" text-anchor="start" x="100" y="-212.55" font-family="Times,serif" font-style="italic" font-size="11.00">ltotal_range_from_ltotal_detector</text>
</g>
<!-- DetectorLtotal[SampleRun]&#45;&gt;LtotalRange[SampleRun, NXdetector] -->
<g id="edge15" class="edge">
<title>DetectorLtotal[SampleRun]&#45;&gt;LtotalRange[SampleRun, NXdetector]</title>
<path fill="none" stroke="black" d="M120.02,-279.52C130.11,-270.74 144.14,-258.53 156.42,-247.85"/>
<polygon fill="black" stroke="black" points="158.58,-250.6 163.83,-241.4 153.99,-245.32 158.58,-250.6"/>
</g>
<!-- WavelengthDetector[SampleRun] -->
<g id="node17" class="node">
<title>WavelengthDetector[SampleRun]</title>
<polygon fill="none" stroke="black" points="634.5,-33 380,-33 380,0 634.5,0 634.5,-33"/>
<text xml:space="preserve" text-anchor="start" x="388" y="-16.7" font-family="Times,serif" font-size="14.00">WavelengthDetector[SampleRun]</text>
<text xml:space="preserve" text-anchor="start" x="423.62" y="-5.55" font-family="Times,serif" font-size="11.00">via:</text>
<text xml:space="preserve" text-anchor="start" x="443.88" y="-5.55" font-family="Times,serif" font-style="italic" font-size="11.00">detector_wavelength_data</text>
</g>
<!-- DetectorLtotal[SampleRun]&#45;&gt;WavelengthDetector[SampleRun] -->
<g id="edge20" class="edge">
<title>DetectorLtotal[SampleRun]&#45;&gt;WavelengthDetector[SampleRun]</title>
<path fill="none" stroke="black" d="M79.94,-279.57C64.44,-270.98 46.16,-257.77 37.25,-240 30.68,-226.89 31.56,-220.52 37.25,-207 71.24,-126.17 99.87,-108.32 178.25,-69 211.43,-52.36 294.1,-39.45 368.26,-30.72"/>
<polygon fill="black" stroke="black" points="368.57,-34.21 378.11,-29.59 367.77,-27.26 368.57,-34.21"/>
</g>
<!-- DistanceResolution -->
<g id="node8" class="node">
<title>DistanceResolution</title>
<polygon fill="none" stroke="black" points="487.25,-236.12 333.25,-236.12 333.25,-210.88 487.25,-210.88 487.25,-236.12"/>
<text xml:space="preserve" text-anchor="start" x="341.25" y="-218.82" font-family="Times,serif" font-size="14.00">DistanceResolution</text>
</g>
<!-- DistanceResolution&#45;&gt;LookupTable[SampleRun, NXdetector] -->
<g id="edge10" class="edge">
<title>DistanceResolution&#45;&gt;LookupTable[SampleRun, NXdetector]</title>
<path fill="none" stroke="black" d="M425.98,-210.52C437.74,-201.57 454.18,-189.06 468.4,-178.23"/>
<polygon fill="black" stroke="black" points="470.32,-181.17 476.15,-172.32 466.08,-175.6 470.32,-181.17"/>
</g>
<!-- ErrorLimitedLookupTable[SampleRun, NXdetector] -->
<g id="node10" class="node">
<title>ErrorLimitedLookupTable[SampleRun, NXdetector]</title>
<polygon fill="none" stroke="black" points="564.62,-102 181.88,-102 181.88,-69 564.62,-69 564.62,-102"/>
<text xml:space="preserve" text-anchor="start" x="189.88" y="-85.7" font-family="Times,serif" font-size="14.00">ErrorLimitedLookupTable[SampleRun, NXdetector]</text>
<text xml:space="preserve" text-anchor="start" x="278.38" y="-74.55" font-family="Times,serif" font-size="11.00">via:</text>
<text xml:space="preserve" text-anchor="start" x="298.62" y="-74.55" font-family="Times,serif" font-style="italic" font-size="11.00">mask_large_uncertainty_in_lut</text>
</g>
<!-- LookupTable[SampleRun, NXdetector]&#45;&gt;ErrorLimitedLookupTable[SampleRun, NXdetector] -->
<g id="edge6" class="edge">
<title>LookupTable[SampleRun, NXdetector]&#45;&gt;ErrorLimitedLookupTable[SampleRun, NXdetector]</title>
<path fill="none" stroke="black" d="M468.63,-137.62C452.01,-128.72 431.07,-117.49 413.04,-107.83"/>
<polygon fill="black" stroke="black" points="414.9,-104.85 404.43,-103.21 411.59,-111.02 414.9,-104.85"/>
</g>
<!-- ErrorLimitedLookupTable[SampleRun, NXdetector]&#45;&gt;WavelengthDetector[SampleRun] -->
<g id="edge19" class="edge">
<title>ErrorLimitedLookupTable[SampleRun, NXdetector]&#45;&gt;WavelengthDetector[SampleRun]</title>
<path fill="none" stroke="black" d="M405.01,-68.62C422.98,-59.63 445.69,-48.28 465.13,-38.56"/>
<polygon fill="black" stroke="black" points="466.52,-41.78 473.9,-34.17 463.39,-35.51 466.52,-41.78"/>
</g>
<!-- LookupTableRelativeErrorThreshold -->
<g id="node11" class="node">
<title>LookupTableRelativeErrorThreshold</title>
<polygon fill="none" stroke="black" points="924.62,-167.12 649.88,-167.12 649.88,-141.88 924.62,-141.88 924.62,-167.12"/>
<text xml:space="preserve" text-anchor="start" x="657.88" y="-149.82" font-family="Times,serif" font-size="14.00">LookupTableRelativeErrorThreshold</text>
</g>
<!-- LookupTableRelativeErrorThreshold&#45;&gt;ErrorLimitedLookupTable[SampleRun, NXdetector] -->
<g id="edge7" class="edge">
<title>LookupTableRelativeErrorThreshold&#45;&gt;ErrorLimitedLookupTable[SampleRun, NXdetector]</title>
<path fill="none" stroke="black" d="M712.76,-141.44C648.76,-131.09 555.62,-116.01 483.08,-104.27"/>
<polygon fill="black" stroke="black" points="484,-100.88 473.57,-102.73 482.88,-107.79 484,-100.88"/>
</g>
<!-- NeXusName[NXdetector] -->
<g id="node12" class="node">
<title>NeXusName[NXdetector]</title>
<polygon fill="none" stroke="black" points="346.62,-167.12 149.88,-167.12 149.88,-141.88 346.62,-141.88 346.62,-167.12"/>
<text xml:space="preserve" text-anchor="start" x="157.88" y="-149.82" font-family="Times,serif" font-size="14.00">NeXusName[NXdetector]</text>
</g>
<!-- NeXusName[NXdetector]&#45;&gt;ErrorLimitedLookupTable[SampleRun, NXdetector] -->
<g id="edge8" class="edge">
<title>NeXusName[NXdetector]&#45;&gt;ErrorLimitedLookupTable[SampleRun, NXdetector]</title>
<path fill="none" stroke="black" d="M270.6,-141.52C288.02,-132.18 312.66,-118.98 333.43,-107.84"/>
<polygon fill="black" stroke="black" points="335.08,-110.93 342.24,-103.12 331.77,-104.76 335.08,-110.93"/>
</g>
<!-- LtotalRange[SampleRun, NXdetector]&#45;&gt;LookupTable[SampleRun, NXdetector] -->
<g id="edge9" class="edge">
<title>LtotalRange[SampleRun, NXdetector]&#45;&gt;LookupTable[SampleRun, NXdetector]</title>
<path fill="none" stroke="black" d="M258.3,-206.54C304.56,-196.7 364.03,-184.05 412.19,-173.8"/>
<polygon fill="black" stroke="black" points="412.7,-177.28 421.75,-171.77 411.24,-170.43 412.7,-177.28"/>
</g>
<!-- TimeResolution -->
<g id="node14" class="node">
<title>TimeResolution</title>
<polygon fill="none" stroke="black" points="636.75,-236.12 509.75,-236.12 509.75,-210.88 636.75,-210.88 636.75,-236.12"/>
<text xml:space="preserve" text-anchor="start" x="517.75" y="-218.82" font-family="Times,serif" font-size="14.00">TimeResolution</text>
</g>
<!-- TimeResolution&#45;&gt;LookupTable[SampleRun, NXdetector] -->
<g id="edge11" class="edge">
<title>TimeResolution&#45;&gt;LookupTable[SampleRun, NXdetector]</title>
<path fill="none" stroke="black" d="M559.84,-210.52C550.01,-201.74 536.34,-189.53 524.38,-178.85"/>
<polygon fill="black" stroke="black" points="526.97,-176.47 517.18,-172.41 522.31,-181.69 526.97,-176.47"/>
</g>
<!-- PulseStrideOffset -->
<g id="node15" class="node">
<title>PulseStrideOffset</title>
<polygon fill="none" stroke="black" points="713.25,-98.12 571.25,-98.12 571.25,-72.88 713.25,-72.88 713.25,-98.12"/>
<text xml:space="preserve" text-anchor="start" x="579.25" y="-80.83" font-family="Times,serif" font-size="14.00">PulseStrideOffset</text>
</g>
<!-- PulseStrideOffset&#45;&gt;WavelengthDetector[SampleRun] -->
<g id="edge21" class="edge">
<title>PulseStrideOffset&#45;&gt;WavelengthDetector[SampleRun]</title>
<path fill="none" stroke="black" d="M618.11,-72.52C599.04,-63.06 571.96,-49.61 549.34,-38.39"/>
<polygon fill="black" stroke="black" points="551.17,-35.39 540.66,-34.08 548.06,-41.66 551.17,-35.39"/>
</g>
<!-- RawDetector[SampleRun] -->
<g id="node16" class="node">
<title>RawDetector[SampleRun]</title>
<polygon fill="none" stroke="black" points="921.88,-98.12 720.62,-98.12 720.62,-72.88 921.88,-72.88 921.88,-98.12"/>
<text xml:space="preserve" text-anchor="start" x="728.62" y="-80.83" font-family="Times,serif" font-size="14.00">RawDetector[SampleRun]</text>
</g>
<!-- RawDetector[SampleRun]&#45;&gt;WavelengthDetector[SampleRun] -->
<g id="edge18" class="edge">
<title>RawDetector[SampleRun]&#45;&gt;WavelengthDetector[SampleRun]</title>
<path fill="none" stroke="black" d="M764.75,-72.44C717.01,-62.26 647.88,-47.51 593.27,-35.85"/>
<polygon fill="black" stroke="black" points="594.19,-32.47 583.68,-33.81 592.73,-39.32 594.19,-32.47"/>
</g>
</g>
</svg>
