<?xml version="1.0" encoding="utf-8" standalone="no"?>
<!DOCTYPE svg PUBLIC "-//W3C//DTD SVG 1.1//EN"
  "http://www.w3.org/Graphics/SVG/1.1/DTD/svg11.dtd">
<svg xmlns:xlink="http://www.w3.org/1999/xlink" width="872.39952pt" height="296.39952pt" viewBox="0 0 872.39952 296.39952" xmlns="http://www.w3.org/2000/svg" version="1.1">
 <metadata>
  <rdf:RDF xmlns:dc="http://purl.org/dc/elements/1.1/" xmlns:cc="http://creativecommons.org/ns#" xmlns:rdf="http://www.w3.org/1999/02/22-rdf-syntax-ns#">
   <cc:Work>
    <dc:type rdf:resource="http://purl.org/dc/dcmitype/StillImage"/>
    <dc:date>2026-06-18T08:05:04.471567</dc:date>
    <dc:format>image/svg+xml</dc:format>
    <dc:creator>
     <cc:Agent>
      <dc:title>Matplotlib v3.10.9, https://matplotlib.org/</dc:title>
     </cc:Agent>
    </dc:creator>
   </cc:Work>
  </rdf:RDF>
 </metadata>
 <defs>
  <style type="text/css">*{stroke-linejoin: round; stroke-linecap: butt}</style>
 </defs>
 <g id="figure_1">
  <g id="patch_1">
   <path d="M 0 296.39952 
L 872.39952 296.39952 
L 872.39952 0 
L 0 0 
z
" style="fill: #ffffff"/>
  </g>
  <g id="axes_1">
   <g id="patch_2">
    <path d="M 53.328125 257.158895 
L 414.59976 257.158895 
L 414.59976 7.2 
L 53.328125 7.2 
z
" style="fill: #ffffff"/>
   </g>
   <g id="matplotlib.axis_1">
    <g id="xtick_1">
     <g id="line2d_1">
      <defs>
       <path id="ma813f60898" d="M 0 0 
L 0 3.5 
" style="stroke: #000000; stroke-width: 0.8"/>
      </defs>
      <g>
       <use xlink:href="#ma813f60898" x="68.864583" y="257.158895" style="stroke: #000000; stroke-width: 0.8"/>
      </g>
     </g>
     <g id="text_1">
      <!-- 0 -->
      <g transform="translate(65.683333 271.757332) scale(0.1 -0.1)">
       <defs>
        <path id="DejaVuSans-30" d="M 2034 4250 
Q 1547 4250 1301 3770 
Q 1056 3291 1056 2328 
Q 1056 1369 1301 889 
Q 1547 409 2034 409 
Q 2525 409 2770 889 
Q 3016 1369 3016 2328 
Q 3016 3291 2770 3770 
Q 2525 4250 2034 4250 
z
M 2034 4750 
Q 2819 4750 3233 4129 
Q 3647 3509 3647 2328 
Q 3647 1150 3233 529 
Q 2819 -91 2034 -91 
Q 1250 -91 836 529 
Q 422 1150 422 2328 
Q 422 3509 836 4129 
Q 1250 4750 2034 4750 
z
" transform="scale(0.015625)"/>
       </defs>
       <use xlink:href="#DejaVuSans-30"/>
      </g>
     </g>
    </g>
    <g id="xtick_2">
     <g id="line2d_2">
      <g>
       <use xlink:href="#ma813f60898" x="134.960417" y="257.158895" style="stroke: #000000; stroke-width: 0.8"/>
      </g>
     </g>
     <g id="text_2">
      <!-- 1000 -->
      <g transform="translate(122.235417 271.757332) scale(0.1 -0.1)">
       <defs>
        <path id="DejaVuSans-31" d="M 794 531 
L 1825 531 
L 1825 4091 
L 703 3866 
L 703 4441 
L 1819 4666 
L 2450 4666 
L 2450 531 
L 3481 531 
L 3481 0 
L 794 0 
L 794 531 
z
" transform="scale(0.015625)"/>
       </defs>
       <use xlink:href="#DejaVuSans-31"/>
       <use xlink:href="#DejaVuSans-30" transform="translate(63.623047 0)"/>
       <use xlink:href="#DejaVuSans-30" transform="translate(127.246094 0)"/>
       <use xlink:href="#DejaVuSans-30" transform="translate(190.869141 0)"/>
      </g>
     </g>
    </g>
    <g id="xtick_3">
     <g id="line2d_3">
      <g>
       <use xlink:href="#ma813f60898" x="201.056252" y="257.158895" style="stroke: #000000; stroke-width: 0.8"/>
      </g>
     </g>
     <g id="text_3">
      <!-- 2000 -->
      <g transform="translate(188.331252 271.757332) scale(0.1 -0.1)">
       <defs>
        <path id="DejaVuSans-32" d="M 1228 531 
L 3431 531 
L 3431 0 
L 469 0 
L 469 531 
Q 828 903 1448 1529 
Q 2069 2156 2228 2338 
Q 2531 2678 2651 2914 
Q 2772 3150 2772 3378 
Q 2772 3750 2511 3984 
Q 2250 4219 1831 4219 
Q 1534 4219 1204 4116 
Q 875 4013 500 3803 
L 500 4441 
Q 881 4594 1212 4672 
Q 1544 4750 1819 4750 
Q 2544 4750 2975 4387 
Q 3406 4025 3406 3419 
Q 3406 3131 3298 2873 
Q 3191 2616 2906 2266 
Q 2828 2175 2409 1742 
Q 1991 1309 1228 531 
z
" transform="scale(0.015625)"/>
       </defs>
       <use xlink:href="#DejaVuSans-32"/>
       <use xlink:href="#DejaVuSans-30" transform="translate(63.623047 0)"/>
       <use xlink:href="#DejaVuSans-30" transform="translate(127.246094 0)"/>
       <use xlink:href="#DejaVuSans-30" transform="translate(190.869141 0)"/>
      </g>
     </g>
    </g>
    <g id="xtick_4">
     <g id="line2d_4">
      <g>
       <use xlink:href="#ma813f60898" x="267.152087" y="257.158895" style="stroke: #000000; stroke-width: 0.8"/>
      </g>
     </g>
     <g id="text_4">
      <!-- 3000 -->
      <g transform="translate(254.427087 271.757332) scale(0.1 -0.1)">
       <defs>
        <path id="DejaVuSans-33" d="M 2597 2516 
Q 3050 2419 3304 2112 
Q 3559 1806 3559 1356 
Q 3559 666 3084 287 
Q 2609 -91 1734 -91 
Q 1441 -91 1130 -33 
Q 819 25 488 141 
L 488 750 
Q 750 597 1062 519 
Q 1375 441 1716 441 
Q 2309 441 2620 675 
Q 2931 909 2931 1356 
Q 2931 1769 2642 2001 
Q 2353 2234 1838 2234 
L 1294 2234 
L 1294 2753 
L 1863 2753 
Q 2328 2753 2575 2939 
Q 2822 3125 2822 3475 
Q 2822 3834 2567 4026 
Q 2313 4219 1838 4219 
Q 1578 4219 1281 4162 
Q 984 4106 628 3988 
L 628 4550 
Q 988 4650 1302 4700 
Q 1616 4750 1894 4750 
Q 2613 4750 3031 4423 
Q 3450 4097 3450 3541 
Q 3450 3153 3228 2886 
Q 3006 2619 2597 2516 
z
" transform="scale(0.015625)"/>
       </defs>
       <use xlink:href="#DejaVuSans-33"/>
       <use xlink:href="#DejaVuSans-30" transform="translate(63.623047 0)"/>
       <use xlink:href="#DejaVuSans-30" transform="translate(127.246094 0)"/>
       <use xlink:href="#DejaVuSans-30" transform="translate(190.869141 0)"/>
      </g>
     </g>
    </g>
    <g id="xtick_5">
     <g id="line2d_5">
      <g>
       <use xlink:href="#ma813f60898" x="333.247922" y="257.158895" style="stroke: #000000; stroke-width: 0.8"/>
      </g>
     </g>
     <g id="text_5">
      <!-- 4000 -->
      <g transform="translate(320.522922 271.757332) scale(0.1 -0.1)">
       <defs>
        <path id="DejaVuSans-34" d="M 2419 4116 
L 825 1625 
L 2419 1625 
L 2419 4116 
z
M 2253 4666 
L 3047 4666 
L 3047 1625 
L 3713 1625 
L 3713 1100 
L 3047 1100 
L 3047 0 
L 2419 0 
L 2419 1100 
L 313 1100 
L 313 1709 
L 2253 4666 
z
" transform="scale(0.015625)"/>
       </defs>
       <use xlink:href="#DejaVuSans-34"/>
       <use xlink:href="#DejaVuSans-30" transform="translate(63.623047 0)"/>
       <use xlink:href="#DejaVuSans-30" transform="translate(127.246094 0)"/>
       <use xlink:href="#DejaVuSans-30" transform="translate(190.869141 0)"/>
      </g>
     </g>
    </g>
    <g id="xtick_6">
     <g id="line2d_6">
      <g>
       <use xlink:href="#ma813f60898" x="399.343756" y="257.158895" style="stroke: #000000; stroke-width: 0.8"/>
      </g>
     </g>
     <g id="text_6">
      <!-- 5000 -->
      <g transform="translate(386.618756 271.757332) scale(0.1 -0.1)">
       <defs>
        <path id="DejaVuSans-35" d="M 691 4666 
L 3169 4666 
L 3169 4134 
L 1269 4134 
L 1269 2991 
Q 1406 3038 1543 3061 
Q 1681 3084 1819 3084 
Q 2600 3084 3056 2656 
Q 3513 2228 3513 1497 
Q 3513 744 3044 326 
Q 2575 -91 1722 -91 
Q 1428 -91 1123 -41 
Q 819 9 494 109 
L 494 744 
Q 775 591 1075 516 
Q 1375 441 1709 441 
Q 2250 441 2565 725 
Q 2881 1009 2881 1497 
Q 2881 1984 2565 2268 
Q 2250 2553 1709 2553 
Q 1456 2553 1204 2497 
Q 953 2441 691 2322 
L 691 4666 
z
" transform="scale(0.015625)"/>
       </defs>
       <use xlink:href="#DejaVuSans-35"/>
       <use xlink:href="#DejaVuSans-30" transform="translate(63.623047 0)"/>
       <use xlink:href="#DejaVuSans-30" transform="translate(127.246094 0)"/>
       <use xlink:href="#DejaVuSans-30" transform="translate(190.869141 0)"/>
      </g>
     </g>
    </g>
    <g id="text_7">
     <!-- birth_time [µs] -->
     <g transform="translate(197.14363 285.435457) scale(0.1 -0.1)">
      <defs>
       <path id="DejaVuSans-62" d="M 3116 1747 
Q 3116 2381 2855 2742 
Q 2594 3103 2138 3103 
Q 1681 3103 1420 2742 
Q 1159 2381 1159 1747 
Q 1159 1113 1420 752 
Q 1681 391 2138 391 
Q 2594 391 2855 752 
Q 3116 1113 3116 1747 
z
M 1159 2969 
Q 1341 3281 1617 3432 
Q 1894 3584 2278 3584 
Q 2916 3584 3314 3078 
Q 3713 2572 3713 1747 
Q 3713 922 3314 415 
Q 2916 -91 2278 -91 
Q 1894 -91 1617 61 
Q 1341 213 1159 525 
L 1159 0 
L 581 0 
L 581 4863 
L 1159 4863 
L 1159 2969 
z
" transform="scale(0.015625)"/>
       <path id="DejaVuSans-69" d="M 603 3500 
L 1178 3500 
L 1178 0 
L 603 0 
L 603 3500 
z
M 603 4863 
L 1178 4863 
L 1178 4134 
L 603 4134 
L 603 4863 
z
" transform="scale(0.015625)"/>
       <path id="DejaVuSans-72" d="M 2631 2963 
Q 2534 3019 2420 3045 
Q 2306 3072 2169 3072 
Q 1681 3072 1420 2755 
Q 1159 2438 1159 1844 
L 1159 0 
L 581 0 
L 581 3500 
L 1159 3500 
L 1159 2956 
Q 1341 3275 1631 3429 
Q 1922 3584 2338 3584 
Q 2397 3584 2469 3576 
Q 2541 3569 2628 3553 
L 2631 2963 
z
" transform="scale(0.015625)"/>
       <path id="DejaVuSans-74" d="M 1172 4494 
L 1172 3500 
L 2356 3500 
L 2356 3053 
L 1172 3053 
L 1172 1153 
Q 1172 725 1289 603 
Q 1406 481 1766 481 
L 2356 481 
L 2356 0 
L 1766 0 
Q 1100 0 847 248 
Q 594 497 594 1153 
L 594 3053 
L 172 3053 
L 172 3500 
L 594 3500 
L 594 4494 
L 1172 4494 
z
" transform="scale(0.015625)"/>
       <path id="DejaVuSans-68" d="M 3513 2113 
L 3513 0 
L 2938 0 
L 2938 2094 
Q 2938 2591 2744 2837 
Q 2550 3084 2163 3084 
Q 1697 3084 1428 2787 
Q 1159 2491 1159 1978 
L 1159 0 
L 581 0 
L 581 4863 
L 1159 4863 
L 1159 2956 
Q 1366 3272 1645 3428 
Q 1925 3584 2291 3584 
Q 2894 3584 3203 3211 
Q 3513 2838 3513 2113 
z
" transform="scale(0.015625)"/>
       <path id="DejaVuSans-5f" d="M 3263 -1063 
L 3263 -1509 
L -63 -1509 
L -63 -1063 
L 3263 -1063 
z
" transform="scale(0.015625)"/>
       <path id="DejaVuSans-6d" d="M 3328 2828 
Q 3544 3216 3844 3400 
Q 4144 3584 4550 3584 
Q 5097 3584 5394 3201 
Q 5691 2819 5691 2113 
L 5691 0 
L 5113 0 
L 5113 2094 
Q 5113 2597 4934 2840 
Q 4756 3084 4391 3084 
Q 3944 3084 3684 2787 
Q 3425 2491 3425 1978 
L 3425 0 
L 2847 0 
L 2847 2094 
Q 2847 2600 2669 2842 
Q 2491 3084 2119 3084 
Q 1678 3084 1418 2786 
Q 1159 2488 1159 1978 
L 1159 0 
L 581 0 
L 581 3500 
L 1159 3500 
L 1159 2956 
Q 1356 3278 1631 3431 
Q 1906 3584 2284 3584 
Q 2666 3584 2933 3390 
Q 3200 3197 3328 2828 
z
" transform="scale(0.015625)"/>
       <path id="DejaVuSans-65" d="M 3597 1894 
L 3597 1613 
L 953 1613 
Q 991 1019 1311 708 
Q 1631 397 2203 397 
Q 2534 397 2845 478 
Q 3156 559 3463 722 
L 3463 178 
Q 3153 47 2828 -22 
Q 2503 -91 2169 -91 
Q 1331 -91 842 396 
Q 353 884 353 1716 
Q 353 2575 817 3079 
Q 1281 3584 2069 3584 
Q 2775 3584 3186 3129 
Q 3597 2675 3597 1894 
z
M 3022 2063 
Q 3016 2534 2758 2815 
Q 2500 3097 2075 3097 
Q 1594 3097 1305 2825 
Q 1016 2553 972 2059 
L 3022 2063 
z
" transform="scale(0.015625)"/>
       <path id="DejaVuSans-20" transform="scale(0.015625)"/>
       <path id="DejaVuSans-5b" d="M 550 4863 
L 1875 4863 
L 1875 4416 
L 1125 4416 
L 1125 -397 
L 1875 -397 
L 1875 -844 
L 550 -844 
L 550 4863 
z
" transform="scale(0.015625)"/>
       <path id="DejaVuSans-b5" d="M 544 -1331 
L 544 3500 
L 1119 3500 
L 1119 1325 
Q 1119 872 1334 640 
Q 1550 409 1972 409 
Q 2434 409 2667 671 
Q 2900 934 2900 1459 
L 2900 3500 
L 3475 3500 
L 3475 806 
Q 3475 619 3529 530 
Q 3584 441 3700 441 
Q 3728 441 3778 458 
Q 3828 475 3916 513 
L 3916 50 
Q 3788 -22 3673 -56 
Q 3559 -91 3450 -91 
Q 3234 -91 3106 31 
Q 2978 153 2931 403 
Q 2775 156 2548 32 
Q 2322 -91 2016 -91 
Q 1697 -91 1473 31 
Q 1250 153 1119 397 
L 1119 -1331 
L 544 -1331 
z
" transform="scale(0.015625)"/>
       <path id="DejaVuSans-73" d="M 2834 3397 
L 2834 2853 
Q 2591 2978 2328 3040 
Q 2066 3103 1784 3103 
Q 1356 3103 1142 2972 
Q 928 2841 928 2578 
Q 928 2378 1081 2264 
Q 1234 2150 1697 2047 
L 1894 2003 
Q 2506 1872 2764 1633 
Q 3022 1394 3022 966 
Q 3022 478 2636 193 
Q 2250 -91 1575 -91 
Q 1294 -91 989 -36 
Q 684 19 347 128 
L 347 722 
Q 666 556 975 473 
Q 1284 391 1588 391 
Q 1994 391 2212 530 
Q 2431 669 2431 922 
Q 2431 1156 2273 1281 
Q 2116 1406 1581 1522 
L 1381 1569 
Q 847 1681 609 1914 
Q 372 2147 372 2553 
Q 372 3047 722 3315 
Q 1072 3584 1716 3584 
Q 2034 3584 2315 3537 
Q 2597 3491 2834 3397 
z
" transform="scale(0.015625)"/>
       <path id="DejaVuSans-5d" d="M 1947 4863 
L 1947 -844 
L 622 -844 
L 622 -397 
L 1369 -397 
L 1369 4416 
L 622 4416 
L 622 4863 
L 1947 4863 
z
" transform="scale(0.015625)"/>
      </defs>
      <use xlink:href="#DejaVuSans-62"/>
      <use xlink:href="#DejaVuSans-69" transform="translate(63.476562 0)"/>
      <use xlink:href="#DejaVuSans-72" transform="translate(91.259766 0)"/>
      <use xlink:href="#DejaVuSans-74" transform="translate(132.373047 0)"/>
      <use xlink:href="#DejaVuSans-68" transform="translate(171.582031 0)"/>
      <use xlink:href="#DejaVuSans-5f" transform="translate(234.960938 0)"/>
      <use xlink:href="#DejaVuSans-74" transform="translate(284.960938 0)"/>
      <use xlink:href="#DejaVuSans-69" transform="translate(324.169922 0)"/>
      <use xlink:href="#DejaVuSans-6d" transform="translate(351.953125 0)"/>
      <use xlink:href="#DejaVuSans-65" transform="translate(449.365234 0)"/>
      <use xlink:href="#DejaVuSans-20" transform="translate(510.888672 0)"/>
      <use xlink:href="#DejaVuSans-5b" transform="translate(542.675781 0)"/>
      <use xlink:href="#DejaVuSans-b5" transform="translate(581.689453 0)"/>
      <use xlink:href="#DejaVuSans-73" transform="translate(645.3125 0)"/>
      <use xlink:href="#DejaVuSans-5d" transform="translate(697.412109 0)"/>
     </g>
    </g>
   </g>
   <g id="matplotlib.axis_2">
    <g id="ytick_1">
     <g id="line2d_7">
      <defs>
       <path id="me7cacac5d4" d="M 0 0 
L -3.5 0 
" style="stroke: #000000; stroke-width: 0.8"/>
      </defs>
      <g>
       <use xlink:href="#me7cacac5d4" x="53.328125" y="245.797127" style="stroke: #000000; stroke-width: 0.8"/>
      </g>
     </g>
     <g id="text_8">
      <!-- 0 -->
      <g transform="translate(39.965625 249.596346) scale(0.1 -0.1)">
       <use xlink:href="#DejaVuSans-30"/>
      </g>
     </g>
    </g>
    <g id="ytick_2">
     <g id="line2d_8">
      <g>
       <use xlink:href="#me7cacac5d4" x="53.328125" y="209.43947" style="stroke: #000000; stroke-width: 0.8"/>
      </g>
     </g>
     <g id="text_9">
      <!-- 200 -->
      <g transform="translate(27.240625 213.238688) scale(0.1 -0.1)">
       <use xlink:href="#DejaVuSans-32"/>
       <use xlink:href="#DejaVuSans-30" transform="translate(63.623047 0)"/>
       <use xlink:href="#DejaVuSans-30" transform="translate(127.246094 0)"/>
      </g>
     </g>
    </g>
    <g id="ytick_3">
     <g id="line2d_9">
      <g>
       <use xlink:href="#me7cacac5d4" x="53.328125" y="173.081812" style="stroke: #000000; stroke-width: 0.8"/>
      </g>
     </g>
     <g id="text_10">
      <!-- 400 -->
      <g transform="translate(27.240625 176.881031) scale(0.1 -0.1)">
       <use xlink:href="#DejaVuSans-34"/>
       <use xlink:href="#DejaVuSans-30" transform="translate(63.623047 0)"/>
       <use xlink:href="#DejaVuSans-30" transform="translate(127.246094 0)"/>
      </g>
     </g>
    </g>
    <g id="ytick_4">
     <g id="line2d_10">
      <g>
       <use xlink:href="#me7cacac5d4" x="53.328125" y="136.724155" style="stroke: #000000; stroke-width: 0.8"/>
      </g>
     </g>
     <g id="text_11">
      <!-- 600 -->
      <g transform="translate(27.240625 140.523373) scale(0.1 -0.1)">
       <defs>
        <path id="DejaVuSans-36" d="M 2113 2584 
Q 1688 2584 1439 2293 
Q 1191 2003 1191 1497 
Q 1191 994 1439 701 
Q 1688 409 2113 409 
Q 2538 409 2786 701 
Q 3034 994 3034 1497 
Q 3034 2003 2786 2293 
Q 2538 2584 2113 2584 
z
M 3366 4563 
L 3366 3988 
Q 3128 4100 2886 4159 
Q 2644 4219 2406 4219 
Q 1781 4219 1451 3797 
Q 1122 3375 1075 2522 
Q 1259 2794 1537 2939 
Q 1816 3084 2150 3084 
Q 2853 3084 3261 2657 
Q 3669 2231 3669 1497 
Q 3669 778 3244 343 
Q 2819 -91 2113 -91 
Q 1303 -91 875 529 
Q 447 1150 447 2328 
Q 447 3434 972 4092 
Q 1497 4750 2381 4750 
Q 2619 4750 2861 4703 
Q 3103 4656 3366 4563 
z
" transform="scale(0.015625)"/>
       </defs>
       <use xlink:href="#DejaVuSans-36"/>
       <use xlink:href="#DejaVuSans-30" transform="translate(63.623047 0)"/>
       <use xlink:href="#DejaVuSans-30" transform="translate(127.246094 0)"/>
      </g>
     </g>
    </g>
    <g id="ytick_5">
     <g id="line2d_11">
      <g>
       <use xlink:href="#me7cacac5d4" x="53.328125" y="100.366497" style="stroke: #000000; stroke-width: 0.8"/>
      </g>
     </g>
     <g id="text_12">
      <!-- 800 -->
      <g transform="translate(27.240625 104.165716) scale(0.1 -0.1)">
       <defs>
        <path id="DejaVuSans-38" d="M 2034 2216 
Q 1584 2216 1326 1975 
Q 1069 1734 1069 1313 
Q 1069 891 1326 650 
Q 1584 409 2034 409 
Q 2484 409 2743 651 
Q 3003 894 3003 1313 
Q 3003 1734 2745 1975 
Q 2488 2216 2034 2216 
z
M 1403 2484 
Q 997 2584 770 2862 
Q 544 3141 544 3541 
Q 544 4100 942 4425 
Q 1341 4750 2034 4750 
Q 2731 4750 3128 4425 
Q 3525 4100 3525 3541 
Q 3525 3141 3298 2862 
Q 3072 2584 2669 2484 
Q 3125 2378 3379 2068 
Q 3634 1759 3634 1313 
Q 3634 634 3220 271 
Q 2806 -91 2034 -91 
Q 1263 -91 848 271 
Q 434 634 434 1313 
Q 434 1759 690 2068 
Q 947 2378 1403 2484 
z
M 1172 3481 
Q 1172 3119 1398 2916 
Q 1625 2713 2034 2713 
Q 2441 2713 2670 2916 
Q 2900 3119 2900 3481 
Q 2900 3844 2670 4047 
Q 2441 4250 2034 4250 
Q 1625 4250 1398 4047 
Q 1172 3844 1172 3481 
z
" transform="scale(0.015625)"/>
       </defs>
       <use xlink:href="#DejaVuSans-38"/>
       <use xlink:href="#DejaVuSans-30" transform="translate(63.623047 0)"/>
       <use xlink:href="#DejaVuSans-30" transform="translate(127.246094 0)"/>
      </g>
     </g>
    </g>
    <g id="ytick_6">
     <g id="line2d_12">
      <g>
       <use xlink:href="#me7cacac5d4" x="53.328125" y="64.00884" style="stroke: #000000; stroke-width: 0.8"/>
      </g>
     </g>
     <g id="text_13">
      <!-- 1000 -->
      <g transform="translate(20.878125 67.808059) scale(0.1 -0.1)">
       <use xlink:href="#DejaVuSans-31"/>
       <use xlink:href="#DejaVuSans-30" transform="translate(63.623047 0)"/>
       <use xlink:href="#DejaVuSans-30" transform="translate(127.246094 0)"/>
       <use xlink:href="#DejaVuSans-30" transform="translate(190.869141 0)"/>
      </g>
     </g>
    </g>
    <g id="ytick_7">
     <g id="line2d_13">
      <g>
       <use xlink:href="#me7cacac5d4" x="53.328125" y="27.651182" style="stroke: #000000; stroke-width: 0.8"/>
      </g>
     </g>
     <g id="text_14">
      <!-- 1200 -->
      <g transform="translate(20.878125 31.450401) scale(0.1 -0.1)">
       <use xlink:href="#DejaVuSans-31"/>
       <use xlink:href="#DejaVuSans-32" transform="translate(63.623047 0)"/>
       <use xlink:href="#DejaVuSans-30" transform="translate(127.246094 0)"/>
       <use xlink:href="#DejaVuSans-30" transform="translate(190.869141 0)"/>
      </g>
     </g>
    </g>
    <g id="text_15">
     <!-- [counts] -->
     <g transform="translate(14.798438 152.791947) rotate(-90) scale(0.1 -0.1)">
      <defs>
       <path id="DejaVuSans-63" d="M 3122 3366 
L 3122 2828 
Q 2878 2963 2633 3030 
Q 2388 3097 2138 3097 
Q 1578 3097 1268 2742 
Q 959 2388 959 1747 
Q 959 1106 1268 751 
Q 1578 397 2138 397 
Q 2388 397 2633 464 
Q 2878 531 3122 666 
L 3122 134 
Q 2881 22 2623 -34 
Q 2366 -91 2075 -91 
Q 1284 -91 818 406 
Q 353 903 353 1747 
Q 353 2603 823 3093 
Q 1294 3584 2113 3584 
Q 2378 3584 2631 3529 
Q 2884 3475 3122 3366 
z
" transform="scale(0.015625)"/>
       <path id="DejaVuSans-6f" d="M 1959 3097 
Q 1497 3097 1228 2736 
Q 959 2375 959 1747 
Q 959 1119 1226 758 
Q 1494 397 1959 397 
Q 2419 397 2687 759 
Q 2956 1122 2956 1747 
Q 2956 2369 2687 2733 
Q 2419 3097 1959 3097 
z
M 1959 3584 
Q 2709 3584 3137 3096 
Q 3566 2609 3566 1747 
Q 3566 888 3137 398 
Q 2709 -91 1959 -91 
Q 1206 -91 779 398 
Q 353 888 353 1747 
Q 353 2609 779 3096 
Q 1206 3584 1959 3584 
z
" transform="scale(0.015625)"/>
       <path id="DejaVuSans-75" d="M 544 1381 
L 544 3500 
L 1119 3500 
L 1119 1403 
Q 1119 906 1312 657 
Q 1506 409 1894 409 
Q 2359 409 2629 706 
Q 2900 1003 2900 1516 
L 2900 3500 
L 3475 3500 
L 3475 0 
L 2900 0 
L 2900 538 
Q 2691 219 2414 64 
Q 2138 -91 1772 -91 
Q 1169 -91 856 284 
Q 544 659 544 1381 
z
M 1991 3584 
L 1991 3584 
z
" transform="scale(0.015625)"/>
       <path id="DejaVuSans-6e" d="M 3513 2113 
L 3513 0 
L 2938 0 
L 2938 2094 
Q 2938 2591 2744 2837 
Q 2550 3084 2163 3084 
Q 1697 3084 1428 2787 
Q 1159 2491 1159 1978 
L 1159 0 
L 581 0 
L 581 3500 
L 1159 3500 
L 1159 2956 
Q 1366 3272 1645 3428 
Q 1925 3584 2291 3584 
Q 2894 3584 3203 3211 
Q 3513 2838 3513 2113 
z
" transform="scale(0.015625)"/>
      </defs>
      <use xlink:href="#DejaVuSans-5b"/>
      <use xlink:href="#DejaVuSans-63" transform="translate(39.013672 0)"/>
      <use xlink:href="#DejaVuSans-6f" transform="translate(93.994141 0)"/>
      <use xlink:href="#DejaVuSans-75" transform="translate(155.175781 0)"/>
      <use xlink:href="#DejaVuSans-6e" transform="translate(218.554688 0)"/>
      <use xlink:href="#DejaVuSans-74" transform="translate(281.933594 0)"/>
      <use xlink:href="#DejaVuSans-73" transform="translate(321.142578 0)"/>
      <use xlink:href="#DejaVuSans-5d" transform="translate(373.242188 0)"/>
     </g>
    </g>
   </g>
   <g id="line2d_14">
    <path d="M 69.749563 234.344465 
L 70.844325 234.344465 
L 70.844325 229.981546 
L 71.939088 229.981546 
L 71.939088 219.437825 
L 73.033851 219.437825 
L 73.033851 213.438812 
L 74.128613 213.438812 
L 74.128613 206.712645 
L 75.223376 206.712645 
L 75.223376 196.714289 
L 76.318138 196.714289 
L 76.318138 191.624217 
L 77.412901 191.624217 
L 77.412901 175.990425 
L 78.507663 175.990425 
L 78.507663 174.717907 
L 79.602426 174.717907 
L 79.602426 156.902655 
L 80.697188 156.902655 
L 80.697188 147.995028 
L 81.791951 147.995028 
L 81.791951 139.814556 
L 82.886713 139.814556 
L 82.886713 139.269191 
L 83.981476 139.269191 
L 83.981476 143.268533 
L 85.076238 143.268533 
L 85.076238 129.270835 
L 86.171001 129.270835 
L 86.171001 127.271164 
L 87.265763 127.271164 
L 87.265763 119.817844 
L 88.360526 119.817844 
L 88.360526 117.818173 
L 89.455288 117.818173 
L 89.455288 117.636385 
L 90.550051 117.636385 
L 90.550051 114.364195 
L 91.644814 114.364195 
L 91.644814 104.36584 
L 92.739576 104.36584 
L 92.739576 95.458213 
L 93.834339 95.458213 
L 93.834339 93.822119 
L 94.929101 93.822119 
L 94.929101 89.640988 
L 96.023864 89.640988 
L 96.023864 83.641975 
L 97.118626 83.641975 
L 97.118626 87.095952 
L 98.213389 87.095952 
L 98.213389 86.005223 
L 99.308151 86.005223 
L 99.308151 72.916466 
L 100.402914 72.916466 
L 100.402914 74.55256 
L 101.497676 74.55256 
L 101.497676 80.91515 
L 102.592439 80.91515 
L 102.592439 82.00588 
L 103.687201 82.00588 
L 103.687201 73.098254 
L 104.781964 73.098254 
L 104.781964 68.18997 
L 105.876726 68.18997 
L 105.876726 71.825736 
L 106.971489 71.825736 
L 106.971489 74.734349 
L 108.066252 74.734349 
L 108.066252 75.825078 
L 109.161014 75.825078 
L 109.161014 63.463475 
L 110.255777 63.463475 
L 110.255777 59.100556 
L 111.350539 59.100556 
L 111.350539 59.827709 
L 112.445302 59.827709 
L 112.445302 55.646579 
L 113.540064 55.646579 
L 113.540064 60.191286 
L 114.634827 60.191286 
L 114.634827 54.919425 
L 115.729589 54.919425 
L 115.729589 50.374718 
L 116.824352 50.374718 
L 116.824352 46.920741 
L 117.919114 46.920741 
L 117.919114 46.557164 
L 119.013877 46.557164 
L 119.013877 58.191615 
L 120.108639 58.191615 
L 120.108639 50.19293 
L 121.203402 50.19293 
L 121.203402 54.555849 
L 122.298164 54.555849 
L 122.298164 55.646579 
L 123.392927 55.646579 
L 123.392927 44.375705 
L 124.487689 44.375705 
L 124.487689 45.284646 
L 125.582452 45.284646 
L 125.582452 40.012786 
L 126.677215 40.012786 
L 126.677215 47.466106 
L 127.771977 47.466106 
L 127.771977 54.010484 
L 128.86674 54.010484 
L 128.86674 48.193259 
L 129.961502 48.193259 
L 129.961502 45.830011 
L 131.056265 45.830011 
L 131.056265 44.375705 
L 132.151027 44.375705 
L 132.151027 41.467092 
L 133.24579 41.467092 
L 133.24579 43.83034 
L 134.340552 43.83034 
L 134.340552 38.922056 
L 135.435315 38.922056 
L 135.435315 47.647894 
L 136.530077 47.647894 
L 136.530077 42.73961 
L 138.719602 42.73961 
L 138.719602 53.828696 
L 139.814365 53.828696 
L 139.814365 38.740268 
L 140.909127 38.740268 
L 140.909127 45.466434 
L 142.00389 45.466434 
L 142.00389 47.647894 
L 143.098652 47.647894 
L 143.098652 37.46775 
L 144.193415 37.46775 
L 144.193415 40.921727 
L 145.288178 40.921727 
L 145.288178 44.557493 
L 146.38294 44.557493 
L 146.38294 39.467421 
L 147.477703 39.467421 
L 147.477703 40.558151 
L 148.572465 40.558151 
L 148.572465 37.649538 
L 149.667228 37.649538 
L 149.667228 33.468408 
L 150.76199 33.468408 
L 150.76199 37.46775 
L 151.856753 37.46775 
L 151.856753 26.378664 
L 152.951515 26.378664 
L 152.951515 41.103516 
L 154.046278 41.103516 
L 154.046278 26.560453 
L 155.14104 26.560453 
L 155.14104 52.737966 
L 156.235803 52.737966 
L 156.235803 38.194903 
L 157.330565 38.194903 
L 157.330565 40.739939 
L 158.425328 40.739939 
L 158.425328 43.648552 
L 159.52009 43.648552 
L 159.52009 46.193588 
L 160.614853 46.193588 
L 160.614853 28.741912 
L 161.709615 28.741912 
L 161.709615 59.100556 
L 162.804378 59.100556 
L 162.804378 29.105489 
L 163.899141 29.105489 
L 163.899141 39.467421 
L 164.993903 39.467421 
L 164.993903 37.831326 
L 166.088666 37.831326 
L 166.088666 32.377678 
L 167.183428 32.377678 
L 167.183428 45.466434 
L 168.278191 45.466434 
L 168.278191 41.103516 
L 169.372953 41.103516 
L 169.372953 38.194903 
L 170.467716 38.194903 
L 170.467716 31.650525 
L 171.562478 31.650525 
L 171.562478 26.378664 
L 172.657241 26.378664 
L 172.657241 20.197863 
L 173.752003 20.197863 
L 173.752003 32.741254 
L 174.846766 32.741254 
L 174.846766 37.831326 
L 175.941528 37.831326 
L 175.941528 30.01443 
L 177.036291 30.01443 
L 177.036291 36.37702 
L 178.131053 36.37702 
L 178.131053 38.922056 
L 179.225816 38.922056 
L 179.225816 41.830669 
L 180.320579 41.830669 
L 180.320579 36.740597 
L 181.415341 36.740597 
L 181.415341 31.468736 
L 182.510104 31.468736 
L 182.510104 41.64888 
L 183.604866 41.64888 
L 183.604866 41.285304 
L 184.699629 41.285304 
L 184.699629 37.285962 
L 185.794391 37.285962 
L 185.794391 29.287277 
L 186.889154 29.287277 
L 186.889154 46.375376 
L 187.983916 46.375376 
L 187.983916 36.922385 
L 189.078679 36.922385 
L 189.078679 34.740926 
L 190.173441 34.740926 
L 190.173441 29.650853 
L 191.268204 29.650853 
L 191.268204 36.740597 
L 192.362966 36.740597 
L 192.362966 23.470052 
L 193.457729 23.470052 
L 193.457729 33.831984 
L 194.552491 33.831984 
L 194.552491 36.195232 
L 195.647254 36.195232 
L 195.647254 34.740926 
L 196.742016 34.740926 
L 196.742016 45.284646 
L 197.836779 45.284646 
L 197.836779 32.195889 
L 198.931542 32.195889 
L 198.931542 31.468736 
L 200.026304 31.468736 
L 200.026304 35.649867 
L 201.121067 35.649867 
L 201.121067 35.831655 
L 202.215829 35.831655 
L 202.215829 27.832971 
L 203.310592 27.832971 
L 203.310592 34.922714 
L 204.405354 34.922714 
L 204.405354 30.196218 
L 205.500117 30.196218 
L 205.500117 26.924029 
L 206.594879 26.924029 
L 206.594879 42.557822 
L 207.689642 42.557822 
L 207.689642 34.195561 
L 208.784404 34.195561 
L 208.784404 34.377349 
L 209.879167 34.377349 
L 209.879167 36.558808 
L 210.973929 36.558808 
L 210.973929 34.013772 
L 212.068692 34.013772 
L 212.068692 26.924029 
L 213.163454 26.924029 
L 213.163454 46.375376 
L 214.258217 46.375376 
L 214.258217 42.557822 
L 215.352979 42.557822 
L 215.352979 42.012457 
L 216.447742 42.012457 
L 216.447742 27.105817 
L 217.542505 27.105817 
L 217.542505 32.195889 
L 218.637267 32.195889 
L 218.637267 39.467421 
L 219.73203 39.467421 
L 219.73203 29.469065 
L 220.826792 29.469065 
L 220.826792 37.104173 
L 221.921555 37.104173 
L 221.921555 39.103844 
L 223.016317 39.103844 
L 223.016317 33.104831 
L 224.11108 33.104831 
L 224.11108 42.194245 
L 225.205842 42.194245 
L 225.205842 44.193916 
L 226.300605 44.193916 
L 226.300605 43.648552 
L 227.395367 43.648552 
L 227.395367 27.105817 
L 228.49013 27.105817 
L 228.49013 32.741254 
L 229.584892 32.741254 
L 229.584892 39.649209 
L 230.679655 39.649209 
L 230.679655 29.287277 
L 231.774417 29.287277 
L 231.774417 32.195889 
L 232.86918 32.195889 
L 232.86918 31.286948 
L 233.963942 31.286948 
L 233.963942 23.470052 
L 235.058705 23.470052 
L 235.058705 28.378335 
L 236.153468 28.378335 
L 236.153468 46.193588 
L 237.24823 46.193588 
L 237.24823 30.741583 
L 238.342993 30.741583 
L 238.342993 43.648552 
L 239.437755 43.648552 
L 239.437755 33.831984 
L 240.532518 33.831984 
L 240.532518 42.921398 
L 241.62728 42.921398 
L 241.62728 27.105817 
L 242.722043 27.105817 
L 242.722043 18.561768 
L 243.816805 18.561768 
L 243.816805 35.28629 
L 244.911568 35.28629 
L 244.911568 28.196547 
L 246.00633 28.196547 
L 246.00633 32.741254 
L 247.101093 32.741254 
L 247.101093 27.651182 
L 248.195855 27.651182 
L 248.195855 27.832971 
L 249.290618 27.832971 
L 249.290618 37.104173 
L 250.38538 37.104173 
L 250.38538 36.37702 
L 251.480143 36.37702 
L 251.480143 24.197205 
L 252.574906 24.197205 
L 252.574906 34.922714 
L 253.669668 34.922714 
L 253.669668 37.649538 
L 254.764431 37.649538 
L 254.764431 24.924358 
L 255.859193 24.924358 
L 255.859193 44.557493 
L 256.953956 44.557493 
L 256.953956 53.828696 
L 258.048718 53.828696 
L 258.048718 45.830011 
L 259.143481 45.830011 
L 259.143481 49.647565 
L 260.238243 49.647565 
L 260.238243 50.19293 
L 261.333006 50.19293 
L 261.333006 71.098583 
L 262.427768 71.098583 
L 262.427768 77.642961 
L 263.522531 77.642961 
L 263.522531 80.551574 
L 264.617293 80.551574 
L 264.617293 97.276096 
L 265.712056 97.276096 
L 265.712056 102.911533 
L 266.806818 102.911533 
L 266.806818 98.912191 
L 267.901581 98.912191 
L 267.901581 112.182736 
L 268.996343 112.182736 
L 268.996343 119.454267 
L 270.091106 119.454267 
L 270.091106 121.999303 
L 271.185869 121.999303 
L 271.185869 135.451637 
L 272.280631 135.451637 
L 272.280631 139.632767 
L 273.375394 139.632767 
L 273.375394 150.358276 
L 274.470156 150.358276 
L 274.470156 155.993713 
L 275.564919 155.993713 
L 275.564919 165.446704 
L 276.659681 165.446704 
L 276.659681 169.809623 
L 277.754444 169.809623 
L 277.754444 166.173857 
L 278.849206 166.173857 
L 278.849206 175.990425 
L 279.943969 175.990425 
L 279.943969 179.444402 
L 281.038731 179.444402 
L 281.038731 180.171555 
L 282.133494 180.171555 
L 282.133494 179.989767 
L 283.228256 179.989767 
L 283.228256 184.170898 
L 284.323019 184.170898 
L 284.323019 193.805677 
L 285.417781 193.805677 
L 285.417781 192.351371 
L 286.512544 192.351371 
L 286.512544 198.532172 
L 287.607306 198.532172 
L 287.607306 196.896078 
L 288.702069 196.896078 
L 288.702069 198.168596 
L 289.796832 198.168596 
L 289.796832 200.531844 
L 290.891594 200.531844 
L 290.891594 203.07688 
L 291.986357 203.07688 
L 291.986357 205.985492 
L 293.081119 205.985492 
L 293.081119 211.802717 
L 294.175882 211.802717 
L 294.175882 213.075235 
L 295.270644 213.075235 
L 295.270644 210.893776 
L 296.365407 210.893776 
L 296.365407 210.530199 
L 297.460169 210.530199 
L 297.460169 216.529213 
L 298.554932 216.529213 
L 298.554932 214.529542 
L 299.649694 214.529542 
L 299.649694 217.074578 
L 300.744457 217.074578 
L 300.744457 219.98319 
L 301.839219 219.98319 
L 301.839219 219.619614 
L 302.933982 219.619614 
L 302.933982 226.709357 
L 304.028744 226.709357 
L 304.028744 228.345451 
L 305.123507 228.345451 
L 305.123507 225.073262 
L 306.218269 225.073262 
L 306.218269 225.436839 
L 307.313032 225.436839 
L 307.313032 226.891145 
L 308.407795 226.891145 
L 308.407795 227.981875 
L 309.502557 227.981875 
L 309.502557 230.345123 
L 310.59732 230.345123 
L 310.59732 229.617969 
L 311.692082 229.617969 
L 311.692082 230.890487 
L 312.786845 230.890487 
L 312.786845 234.162677 
L 313.881607 234.162677 
L 313.881607 234.526253 
L 314.97637 234.526253 
L 314.97637 232.526582 
L 316.071132 232.526582 
L 316.071132 235.98056 
L 317.165895 235.98056 
L 317.165895 235.798771 
L 318.260657 235.798771 
L 318.260657 234.88983 
L 319.35542 234.88983 
L 319.35542 235.98056 
L 320.450182 235.98056 
L 320.450182 236.162348 
L 321.544945 236.162348 
L 321.544945 236.707713 
L 322.639707 236.707713 
L 322.639707 239.979902 
L 323.73447 239.979902 
L 323.73447 237.434866 
L 324.829233 237.434866 
L 324.829233 237.980231 
L 325.923995 237.980231 
L 325.923995 238.525596 
L 327.018758 238.525596 
L 327.018758 238.162019 
L 328.11352 238.162019 
L 328.11352 239.252749 
L 329.208283 239.252749 
L 329.208283 239.798114 
L 330.303045 239.798114 
L 330.303045 238.707384 
L 331.397808 238.707384 
L 331.397808 241.615996 
L 332.49257 241.615996 
L 332.49257 241.25242 
L 333.587333 241.25242 
L 333.587333 241.979573 
L 334.682095 241.979573 
L 334.682095 239.616325 
L 335.776858 239.616325 
L 335.776858 241.797785 
L 336.87162 241.797785 
L 336.87162 241.25242 
L 337.966383 241.25242 
L 337.966383 241.615996 
L 340.155908 241.615996 
L 340.155908 241.434208 
L 341.25067 241.434208 
L 341.25067 242.161361 
L 342.345433 242.161361 
L 342.345433 242.888514 
L 344.534958 242.888514 
L 344.534958 242.706726 
L 345.629721 242.706726 
L 345.629721 242.524938 
L 346.724483 242.524938 
L 346.724483 242.706726 
L 347.819246 242.706726 
L 347.819246 243.070303 
L 348.914008 243.070303 
L 348.914008 242.161361 
L 350.008771 242.161361 
L 350.008771 242.706726 
L 351.103533 242.706726 
L 351.103533 243.433879 
L 354.387821 243.433879 
L 354.387821 243.615668 
L 355.482583 243.615668 
L 355.482583 244.161032 
L 356.577346 244.161032 
L 356.577346 244.888186 
L 358.766871 244.888186 
L 358.766871 244.161032 
L 359.861633 244.161032 
L 359.861633 243.979244 
L 360.956396 243.979244 
L 360.956396 244.706397 
L 362.051159 244.706397 
L 362.051159 244.888186 
L 363.145921 244.888186 
L 363.145921 243.252091 
L 364.240684 243.252091 
L 364.240684 244.161032 
L 365.335446 244.161032 
L 365.335446 244.524609 
L 366.430209 244.524609 
L 366.430209 245.069974 
L 367.524971 245.069974 
L 367.524971 244.524609 
L 370.809259 244.524609 
L 370.809259 244.888186 
L 371.904021 244.888186 
L 371.904021 245.251762 
L 372.998784 245.251762 
L 372.998784 245.43355 
L 374.093546 245.43355 
L 374.093546 245.615339 
L 375.188309 245.615339 
L 375.188309 245.251762 
L 376.283071 245.251762 
L 376.283071 245.797127 
L 377.377834 245.797127 
L 377.377834 245.251762 
L 379.567359 245.251762 
L 379.567359 245.069974 
L 380.662122 245.069974 
L 380.662122 244.524609 
L 381.756884 244.524609 
L 381.756884 245.615339 
L 385.041172 245.615339 
L 385.041172 245.43355 
L 386.135934 245.43355 
L 386.135934 245.615339 
L 387.230697 245.615339 
L 387.230697 244.706397 
L 388.325459 244.706397 
L 388.325459 245.43355 
L 389.420222 245.43355 
L 389.420222 245.615339 
L 390.514984 245.615339 
L 390.514984 245.797127 
L 391.609747 245.797127 
L 391.609747 244.888186 
L 392.704509 244.888186 
L 392.704509 245.615339 
L 394.894034 245.615339 
L 394.894034 245.43355 
L 397.08356 245.43355 
L 397.08356 245.615339 
L 398.178322 245.615339 
L 398.178322 245.615339 
" clip-path="url(#p04b0cfcb1d)" style="fill: none; stroke: #1f77b4; stroke-width: 1.5; stroke-linecap: square"/>
   </g>
   <g id="patch_3">
    <path d="M 53.328125 257.158895 
L 53.328125 7.2 
" style="fill: none; stroke: #000000; stroke-width: 0.8; stroke-linejoin: miter; stroke-linecap: square"/>
   </g>
   <g id="patch_4">
    <path d="M 414.59976 257.158895 
L 414.59976 7.2 
" style="fill: none; stroke: #000000; stroke-width: 0.8; stroke-linejoin: miter; stroke-linecap: square"/>
   </g>
   <g id="patch_5">
    <path d="M 53.328125 257.158895 
L 414.59976 257.158895 
" style="fill: none; stroke: #000000; stroke-width: 0.8; stroke-linejoin: miter; stroke-linecap: square"/>
   </g>
   <g id="patch_6">
    <path d="M 53.328125 7.2 
L 414.59976 7.2 
" style="fill: none; stroke: #000000; stroke-width: 0.8; stroke-linejoin: miter; stroke-linecap: square"/>
   </g>
  </g>
  <g id="axes_2">
   <g id="patch_7">
    <path d="M 503.927885 257.158895 
L 865.19952 257.158895 
L 865.19952 7.2 
L 503.927885 7.2 
z
" style="fill: #ffffff"/>
   </g>
   <g id="matplotlib.axis_3">
    <g id="xtick_7">
     <g id="line2d_15">
      <g>
       <use xlink:href="#ma813f60898" x="517.028478" y="257.158895" style="stroke: #000000; stroke-width: 0.8"/>
      </g>
     </g>
     <g id="text_16">
      <!-- 0.0 -->
      <g transform="translate(509.076915 271.757332) scale(0.1 -0.1)">
       <defs>
        <path id="DejaVuSans-2e" d="M 684 794 
L 1344 794 
L 1344 0 
L 684 0 
L 684 794 
z
" transform="scale(0.015625)"/>
       </defs>
       <use xlink:href="#DejaVuSans-30"/>
       <use xlink:href="#DejaVuSans-2e" transform="translate(63.623047 0)"/>
       <use xlink:href="#DejaVuSans-30" transform="translate(95.410156 0)"/>
      </g>
     </g>
    </g>
    <g id="xtick_8">
     <g id="line2d_16">
      <g>
       <use xlink:href="#ma813f60898" x="558.848121" y="257.158895" style="stroke: #000000; stroke-width: 0.8"/>
      </g>
     </g>
     <g id="text_17">
      <!-- 2.5 -->
      <g transform="translate(550.896558 271.757332) scale(0.1 -0.1)">
       <use xlink:href="#DejaVuSans-32"/>
       <use xlink:href="#DejaVuSans-2e" transform="translate(63.623047 0)"/>
       <use xlink:href="#DejaVuSans-35" transform="translate(95.410156 0)"/>
      </g>
     </g>
    </g>
    <g id="xtick_9">
     <g id="line2d_17">
      <g>
       <use xlink:href="#ma813f60898" x="600.667764" y="257.158895" style="stroke: #000000; stroke-width: 0.8"/>
      </g>
     </g>
     <g id="text_18">
      <!-- 5.0 -->
      <g transform="translate(592.716201 271.757332) scale(0.1 -0.1)">
       <use xlink:href="#DejaVuSans-35"/>
       <use xlink:href="#DejaVuSans-2e" transform="translate(63.623047 0)"/>
       <use xlink:href="#DejaVuSans-30" transform="translate(95.410156 0)"/>
      </g>
     </g>
    </g>
    <g id="xtick_10">
     <g id="line2d_18">
      <g>
       <use xlink:href="#ma813f60898" x="642.487407" y="257.158895" style="stroke: #000000; stroke-width: 0.8"/>
      </g>
     </g>
     <g id="text_19">
      <!-- 7.5 -->
      <g transform="translate(634.535844 271.757332) scale(0.1 -0.1)">
       <defs>
        <path id="DejaVuSans-37" d="M 525 4666 
L 3525 4666 
L 3525 4397 
L 1831 0 
L 1172 0 
L 2766 4134 
L 525 4134 
L 525 4666 
z
" transform="scale(0.015625)"/>
       </defs>
       <use xlink:href="#DejaVuSans-37"/>
       <use xlink:href="#DejaVuSans-2e" transform="translate(63.623047 0)"/>
       <use xlink:href="#DejaVuSans-35" transform="translate(95.410156 0)"/>
      </g>
     </g>
    </g>
    <g id="xtick_11">
     <g id="line2d_19">
      <g>
       <use xlink:href="#ma813f60898" x="684.30705" y="257.158895" style="stroke: #000000; stroke-width: 0.8"/>
      </g>
     </g>
     <g id="text_20">
      <!-- 10.0 -->
      <g transform="translate(673.174237 271.757332) scale(0.1 -0.1)">
       <use xlink:href="#DejaVuSans-31"/>
       <use xlink:href="#DejaVuSans-30" transform="translate(63.623047 0)"/>
       <use xlink:href="#DejaVuSans-2e" transform="translate(127.246094 0)"/>
       <use xlink:href="#DejaVuSans-30" transform="translate(159.033203 0)"/>
      </g>
     </g>
    </g>
    <g id="xtick_12">
     <g id="line2d_20">
      <g>
       <use xlink:href="#ma813f60898" x="726.126693" y="257.158895" style="stroke: #000000; stroke-width: 0.8"/>
      </g>
     </g>
     <g id="text_21">
      <!-- 12.5 -->
      <g transform="translate(714.99388 271.757332) scale(0.1 -0.1)">
       <use xlink:href="#DejaVuSans-31"/>
       <use xlink:href="#DejaVuSans-32" transform="translate(63.623047 0)"/>
       <use xlink:href="#DejaVuSans-2e" transform="translate(127.246094 0)"/>
       <use xlink:href="#DejaVuSans-35" transform="translate(159.033203 0)"/>
      </g>
     </g>
    </g>
    <g id="xtick_13">
     <g id="line2d_21">
      <g>
       <use xlink:href="#ma813f60898" x="767.946336" y="257.158895" style="stroke: #000000; stroke-width: 0.8"/>
      </g>
     </g>
     <g id="text_22">
      <!-- 15.0 -->
      <g transform="translate(756.813523 271.757332) scale(0.1 -0.1)">
       <use xlink:href="#DejaVuSans-31"/>
       <use xlink:href="#DejaVuSans-35" transform="translate(63.623047 0)"/>
       <use xlink:href="#DejaVuSans-2e" transform="translate(127.246094 0)"/>
       <use xlink:href="#DejaVuSans-30" transform="translate(159.033203 0)"/>
      </g>
     </g>
    </g>
    <g id="xtick_14">
     <g id="line2d_22">
      <g>
       <use xlink:href="#ma813f60898" x="809.765979" y="257.158895" style="stroke: #000000; stroke-width: 0.8"/>
      </g>
     </g>
     <g id="text_23">
      <!-- 17.5 -->
      <g transform="translate(798.633166 271.757332) scale(0.1 -0.1)">
       <use xlink:href="#DejaVuSans-31"/>
       <use xlink:href="#DejaVuSans-37" transform="translate(63.623047 0)"/>
       <use xlink:href="#DejaVuSans-2e" transform="translate(127.246094 0)"/>
       <use xlink:href="#DejaVuSans-35" transform="translate(159.033203 0)"/>
      </g>
     </g>
    </g>
    <g id="xtick_15">
     <g id="line2d_23">
      <g>
       <use xlink:href="#ma813f60898" x="851.585622" y="257.158895" style="stroke: #000000; stroke-width: 0.8"/>
      </g>
     </g>
     <g id="text_24">
      <!-- 20.0 -->
      <g transform="translate(840.452809 271.757332) scale(0.1 -0.1)">
       <use xlink:href="#DejaVuSans-32"/>
       <use xlink:href="#DejaVuSans-30" transform="translate(63.623047 0)"/>
       <use xlink:href="#DejaVuSans-2e" transform="translate(127.246094 0)"/>
       <use xlink:href="#DejaVuSans-30" transform="translate(159.033203 0)"/>
      </g>
     </g>
    </g>
    <g id="text_25">
     <!-- wavelength [Å] -->
     <g transform="translate(646.526202 287.119832) scale(0.1 -0.1)">
      <defs>
       <path id="DejaVuSans-77" d="M 269 3500 
L 844 3500 
L 1563 769 
L 2278 3500 
L 2956 3500 
L 3675 769 
L 4391 3500 
L 4966 3500 
L 4050 0 
L 3372 0 
L 2619 2869 
L 1863 0 
L 1184 0 
L 269 3500 
z
" transform="scale(0.015625)"/>
       <path id="DejaVuSans-61" d="M 2194 1759 
Q 1497 1759 1228 1600 
Q 959 1441 959 1056 
Q 959 750 1161 570 
Q 1363 391 1709 391 
Q 2188 391 2477 730 
Q 2766 1069 2766 1631 
L 2766 1759 
L 2194 1759 
z
M 3341 1997 
L 3341 0 
L 2766 0 
L 2766 531 
Q 2569 213 2275 61 
Q 1981 -91 1556 -91 
Q 1019 -91 701 211 
Q 384 513 384 1019 
Q 384 1609 779 1909 
Q 1175 2209 1959 2209 
L 2766 2209 
L 2766 2266 
Q 2766 2663 2505 2880 
Q 2244 3097 1772 3097 
Q 1472 3097 1187 3025 
Q 903 2953 641 2809 
L 641 3341 
Q 956 3463 1253 3523 
Q 1550 3584 1831 3584 
Q 2591 3584 2966 3190 
Q 3341 2797 3341 1997 
z
" transform="scale(0.015625)"/>
       <path id="DejaVuSans-76" d="M 191 3500 
L 800 3500 
L 1894 563 
L 2988 3500 
L 3597 3500 
L 2284 0 
L 1503 0 
L 191 3500 
z
" transform="scale(0.015625)"/>
       <path id="DejaVuSans-6c" d="M 603 4863 
L 1178 4863 
L 1178 0 
L 603 0 
L 603 4863 
z
" transform="scale(0.015625)"/>
       <path id="DejaVuSans-67" d="M 2906 1791 
Q 2906 2416 2648 2759 
Q 2391 3103 1925 3103 
Q 1463 3103 1205 2759 
Q 947 2416 947 1791 
Q 947 1169 1205 825 
Q 1463 481 1925 481 
Q 2391 481 2648 825 
Q 2906 1169 2906 1791 
z
M 3481 434 
Q 3481 -459 3084 -895 
Q 2688 -1331 1869 -1331 
Q 1566 -1331 1297 -1286 
Q 1028 -1241 775 -1147 
L 775 -588 
Q 1028 -725 1275 -790 
Q 1522 -856 1778 -856 
Q 2344 -856 2625 -561 
Q 2906 -266 2906 331 
L 2906 616 
Q 2728 306 2450 153 
Q 2172 0 1784 0 
Q 1141 0 747 490 
Q 353 981 353 1791 
Q 353 2603 747 3093 
Q 1141 3584 1784 3584 
Q 2172 3584 2450 3431 
Q 2728 3278 2906 2969 
L 2906 3500 
L 3481 3500 
L 3481 434 
z
" transform="scale(0.015625)"/>
       <path id="DejaVuSans-c5" d="M 2663 5081 
Q 2663 5278 2523 5417 
Q 2384 5556 2188 5556 
Q 1988 5556 1852 5420 
Q 1716 5284 1716 5081 
Q 1716 4884 1853 4746 
Q 1991 4609 2188 4609 
Q 2384 4609 2523 4746 
Q 2663 4884 2663 5081 
z
M 2188 4044 
L 1338 1722 
L 3041 1722 
L 2188 4044 
z
M 1716 4366 
Q 1525 4494 1428 4673 
Q 1331 4853 1331 5081 
Q 1331 5441 1579 5691 
Q 1828 5941 2188 5941 
Q 2544 5941 2795 5689 
Q 3047 5438 3047 5081 
Q 3047 4863 2948 4678 
Q 2850 4494 2663 4366 
L 4325 0 
L 3669 0 
L 3244 1197 
L 1141 1197 
L 716 0 
L 50 0 
L 1716 4366 
z
" transform="scale(0.015625)"/>
      </defs>
      <use xlink:href="#DejaVuSans-77"/>
      <use xlink:href="#DejaVuSans-61" transform="translate(81.787109 0)"/>
      <use xlink:href="#DejaVuSans-76" transform="translate(143.066406 0)"/>
      <use xlink:href="#DejaVuSans-65" transform="translate(202.246094 0)"/>
      <use xlink:href="#DejaVuSans-6c" transform="translate(263.769531 0)"/>
      <use xlink:href="#DejaVuSans-65" transform="translate(291.552734 0)"/>
      <use xlink:href="#DejaVuSans-6e" transform="translate(353.076172 0)"/>
      <use xlink:href="#DejaVuSans-67" transform="translate(416.455078 0)"/>
      <use xlink:href="#DejaVuSans-74" transform="translate(479.931641 0)"/>
      <use xlink:href="#DejaVuSans-68" transform="translate(519.140625 0)"/>
      <use xlink:href="#DejaVuSans-20" transform="translate(582.519531 0)"/>
      <use xlink:href="#DejaVuSans-5b" transform="translate(614.306641 0)"/>
      <use xlink:href="#DejaVuSans-c5" transform="translate(653.320312 0)"/>
      <use xlink:href="#DejaVuSans-5d" transform="translate(721.728516 0)"/>
     </g>
    </g>
   </g>
   <g id="matplotlib.axis_4">
    <g id="ytick_8">
     <g id="line2d_24">
      <g>
       <use xlink:href="#me7cacac5d4" x="503.927885" y="245.797127" style="stroke: #000000; stroke-width: 0.8"/>
      </g>
     </g>
     <g id="text_26">
      <!-- 0 -->
      <g transform="translate(490.565385 249.596346) scale(0.1 -0.1)">
       <use xlink:href="#DejaVuSans-30"/>
      </g>
     </g>
    </g>
    <g id="ytick_9">
     <g id="line2d_25">
      <g>
       <use xlink:href="#me7cacac5d4" x="503.927885" y="192.292216" style="stroke: #000000; stroke-width: 0.8"/>
      </g>
     </g>
     <g id="text_27">
      <!-- 1000 -->
      <g transform="translate(471.477885 196.091434) scale(0.1 -0.1)">
       <use xlink:href="#DejaVuSans-31"/>
       <use xlink:href="#DejaVuSans-30" transform="translate(63.623047 0)"/>
       <use xlink:href="#DejaVuSans-30" transform="translate(127.246094 0)"/>
       <use xlink:href="#DejaVuSans-30" transform="translate(190.869141 0)"/>
      </g>
     </g>
    </g>
    <g id="ytick_10">
     <g id="line2d_26">
      <g>
       <use xlink:href="#me7cacac5d4" x="503.927885" y="138.787304" style="stroke: #000000; stroke-width: 0.8"/>
      </g>
     </g>
     <g id="text_28">
      <!-- 2000 -->
      <g transform="translate(471.477885 142.586523) scale(0.1 -0.1)">
       <use xlink:href="#DejaVuSans-32"/>
       <use xlink:href="#DejaVuSans-30" transform="translate(63.623047 0)"/>
       <use xlink:href="#DejaVuSans-30" transform="translate(127.246094 0)"/>
       <use xlink:href="#DejaVuSans-30" transform="translate(190.869141 0)"/>
      </g>
     </g>
    </g>
    <g id="ytick_11">
     <g id="line2d_27">
      <g>
       <use xlink:href="#me7cacac5d4" x="503.927885" y="85.282393" style="stroke: #000000; stroke-width: 0.8"/>
      </g>
     </g>
     <g id="text_29">
      <!-- 3000 -->
      <g transform="translate(471.477885 89.081611) scale(0.1 -0.1)">
       <use xlink:href="#DejaVuSans-33"/>
       <use xlink:href="#DejaVuSans-30" transform="translate(63.623047 0)"/>
       <use xlink:href="#DejaVuSans-30" transform="translate(127.246094 0)"/>
       <use xlink:href="#DejaVuSans-30" transform="translate(190.869141 0)"/>
      </g>
     </g>
    </g>
    <g id="ytick_12">
     <g id="line2d_28">
      <g>
       <use xlink:href="#me7cacac5d4" x="503.927885" y="31.777481" style="stroke: #000000; stroke-width: 0.8"/>
      </g>
     </g>
     <g id="text_30">
      <!-- 4000 -->
      <g transform="translate(471.477885 35.5767) scale(0.1 -0.1)">
       <use xlink:href="#DejaVuSans-34"/>
       <use xlink:href="#DejaVuSans-30" transform="translate(63.623047 0)"/>
       <use xlink:href="#DejaVuSans-30" transform="translate(127.246094 0)"/>
       <use xlink:href="#DejaVuSans-30" transform="translate(190.869141 0)"/>
      </g>
     </g>
    </g>
    <g id="text_31">
     <!-- [counts] -->
     <g transform="translate(465.398197 152.791947) rotate(-90) scale(0.1 -0.1)">
      <use xlink:href="#DejaVuSans-5b"/>
      <use xlink:href="#DejaVuSans-63" transform="translate(39.013672 0)"/>
      <use xlink:href="#DejaVuSans-6f" transform="translate(93.994141 0)"/>
      <use xlink:href="#DejaVuSans-75" transform="translate(155.175781 0)"/>
      <use xlink:href="#DejaVuSans-6e" transform="translate(218.554688 0)"/>
      <use xlink:href="#DejaVuSans-74" transform="translate(281.933594 0)"/>
      <use xlink:href="#DejaVuSans-73" transform="translate(321.142578 0)"/>
      <use xlink:href="#DejaVuSans-5d" transform="translate(373.242188 0)"/>
     </g>
    </g>
   </g>
   <g id="line2d_29">
    <path d="M 520.349323 155.159807 
L 521.444085 155.159807 
L 521.444085 148.525198 
L 522.538848 148.525198 
L 522.538848 141.03451 
L 523.633611 141.03451 
L 523.633611 136.700613 
L 524.728373 136.700613 
L 524.728373 146.545516 
L 525.823136 146.545516 
L 525.823136 152.966106 
L 526.917898 152.966106 
L 526.917898 142.960687 
L 528.012661 142.960687 
L 528.012661 127.711787 
L 529.107423 127.711787 
L 529.107423 106.951882 
L 530.202186 106.951882 
L 530.202186 78.112734 
L 531.296948 78.112734 
L 531.296948 58.101898 
L 532.391711 58.101898 
L 532.391711 38.358585 
L 533.486473 38.358585 
L 533.486473 22.467626 
L 534.581236 22.467626 
L 534.581236 22.628141 
L 535.675998 22.628141 
L 535.675998 18.561768 
L 536.770761 18.561768 
L 536.770761 28.139147 
L 537.865523 28.139147 
L 537.865523 29.69079 
L 538.960286 29.69079 
L 538.960286 36.378903 
L 540.055048 36.378903 
L 540.055048 45.902778 
L 541.149811 45.902778 
L 541.149811 64.308467 
L 542.244574 64.308467 
L 542.244574 64.950526 
L 543.339336 64.950526 
L 543.339336 76.400577 
L 544.434099 76.400577 
L 544.434099 78.326754 
L 545.528861 78.326754 
L 545.528861 88.974231 
L 546.623624 88.974231 
L 546.623624 90.418864 
L 547.718386 90.418864 
L 547.718386 95.448326 
L 548.813149 95.448326 
L 548.813149 94.057198 
L 549.907911 94.057198 
L 549.907911 87.369084 
L 551.002674 87.369084 
L 551.002674 92.291536 
L 552.097436 92.291536 
L 552.097436 81.109009 
L 553.192199 81.109009 
L 553.192199 80.841485 
L 554.286961 80.841485 
L 554.286961 71.906165 
L 555.381724 71.906165 
L 555.381724 54.089029 
L 556.476486 54.089029 
L 556.476486 47.186896 
L 557.571249 47.186896 
L 557.571249 43.067017 
L 558.666012 43.067017 
L 558.666012 32.41954 
L 559.760774 32.41954 
L 559.760774 28.674196 
L 560.855537 28.674196 
L 560.855537 37.609516 
L 561.950299 37.609516 
L 561.950299 43.976601 
L 563.045062 43.976601 
L 563.045062 52.590892 
L 564.139824 52.590892 
L 564.139824 70.194008 
L 565.234587 70.194008 
L 565.234587 72.441214 
L 566.329349 72.441214 
L 566.329349 87.476094 
L 567.424112 87.476094 
L 567.424112 92.131021 
L 568.518874 92.131021 
L 568.518874 101.280361 
L 569.613637 101.280361 
L 569.613637 107.861465 
L 570.708399 107.861465 
L 570.708399 115.352153 
L 571.803162 115.352153 
L 571.803162 122.468306 
L 572.897924 122.468306 
L 572.897924 126.267155 
L 573.992687 126.267155 
L 573.992687 136.807622 
L 575.087449 136.807622 
L 575.087449 144.1913 
L 576.182212 144.1913 
L 576.182212 146.063972 
L 577.276975 146.063972 
L 577.276975 146.706031 
L 578.371737 146.706031 
L 578.371737 158.798141 
L 579.4665 158.798141 
L 579.4665 155.159807 
L 580.561262 155.159807 
L 580.561262 161.045347 
L 581.656025 161.045347 
L 581.656025 167.519442 
L 582.750787 167.519442 
L 582.750787 170.194687 
L 583.84555 170.194687 
L 583.84555 175.384664 
L 584.940312 175.384664 
L 584.940312 180.46763 
L 586.035075 180.46763 
L 586.035075 180.628145 
L 587.129837 180.628145 
L 587.129837 184.587508 
L 588.2246 184.587508 
L 588.2246 185.443587 
L 589.319362 185.443587 
L 589.319362 190.152019 
L 590.414125 190.152019 
L 590.414125 193.362314 
L 591.508887 193.362314 
L 591.508887 193.843858 
L 592.60365 193.843858 
L 592.60365 197.482192 
L 593.698412 197.482192 
L 593.698412 200.317952 
L 594.793175 200.317952 
L 594.793175 199.943418 
L 595.887938 199.943418 
L 595.887938 202.351139 
L 596.9827 202.351139 
L 596.9827 203.688762 
L 598.077463 203.688762 
L 598.077463 209.520797 
L 600.266988 209.574302 
L 600.266988 210.269866 
L 601.36175 210.269866 
L 601.36175 211.714498 
L 602.456513 211.714498 
L 602.456513 215.620357 
L 603.551275 215.620357 
L 603.551275 213.319646 
L 604.646038 213.319646 
L 604.646038 217.332514 
L 605.7408 217.332514 
L 605.7408 216.85097 
L 606.835563 216.85097 
L 606.835563 219.526216 
L 607.930325 219.526216 
L 607.930325 217.653544 
L 609.025088 217.653544 
L 609.025088 219.472711 
L 610.11985 219.472711 
L 610.11985 221.238373 
L 611.214613 221.238373 
L 611.214613 221.773422 
L 612.309375 221.773422 
L 612.309375 221.933937 
L 613.404138 221.933937 
L 613.404138 224.555677 
L 615.593663 224.662687 
L 615.593663 224.074133 
L 616.688426 224.074133 
L 616.688426 227.926487 
L 617.783188 227.926487 
L 617.783188 226.963398 
L 618.877951 226.963398 
L 618.877951 226.160825 
L 619.972713 226.160825 
L 619.972713 229.478129 
L 621.067476 229.478129 
L 621.067476 228.889575 
L 622.162238 228.889575 
L 622.162238 230.494722 
L 623.257001 230.494722 
L 623.257001 232.20688 
L 624.351763 232.20688 
L 624.351763 230.601732 
L 625.446526 230.601732 
L 625.446526 230.013178 
L 626.541288 230.013178 
L 626.541288 233.490997 
L 627.636051 233.490997 
L 627.636051 233.812027 
L 628.730813 233.812027 
L 628.730813 234.186561 
L 632.015101 234.293571 
L 632.015101 233.758522 
L 633.109864 233.758522 
L 633.109864 233.919037 
L 634.204626 233.919037 
L 634.204626 234.72161 
L 635.299389 234.72161 
L 635.299389 236.059233 
L 636.394151 236.059233 
L 636.394151 236.433768 
L 637.488914 236.433768 
L 637.488914 237.289846 
L 638.583676 237.289846 
L 638.583676 237.503866 
L 639.678439 237.503866 
L 639.678439 238.09242 
L 640.773201 238.09242 
L 640.773201 237.610876 
L 641.867964 237.610876 
L 641.867964 236.915312 
L 642.962726 236.915312 
L 642.962726 237.503866 
L 644.057489 237.503866 
L 644.057489 238.038915 
L 645.152251 238.038915 
L 645.152251 238.894993 
L 646.247014 238.894993 
L 646.247014 238.520459 
L 647.341776 238.520459 
L 647.341776 239.323033 
L 648.436539 239.323033 
L 648.436539 238.841489 
L 649.531302 238.841489 
L 649.531302 239.644062 
L 650.626064 239.644062 
L 650.626064 238.841489 
L 651.720827 238.841489 
L 651.720827 239.751072 
L 652.815589 239.751072 
L 652.815589 240.232616 
L 653.910352 240.232616 
L 653.910352 239.965092 
L 656.099877 240.072102 
L 656.099877 241.356219 
L 657.194639 241.356219 
L 657.194639 241.730754 
L 658.289402 241.730754 
L 658.289402 239.269528 
L 659.384164 239.269528 
L 659.384164 240.500141 
L 660.478927 240.500141 
L 660.478927 240.71416 
L 661.573689 240.71416 
L 661.573689 241.356219 
L 662.668452 241.356219 
L 662.668452 241.195705 
L 664.857977 241.24921 
L 664.857977 241.944773 
L 667.047502 242.051783 
L 667.047502 242.319308 
L 668.142265 242.319308 
L 668.142265 241.784259 
L 669.237027 241.784259 
L 669.237027 242.640337 
L 670.33179 242.640337 
L 670.33179 242.319308 
L 671.426552 242.319308 
L 671.426552 241.891269 
L 672.521315 241.891269 
L 672.521315 242.105288 
L 673.616077 242.105288 
L 673.616077 242.265803 
L 674.71084 242.265803 
L 674.71084 242.426318 
L 675.805602 242.426318 
L 675.805602 243.121881 
L 676.900365 243.121881 
L 676.900365 242.693842 
L 677.995127 242.693842 
L 677.995127 243.228891 
L 679.08989 243.228891 
L 679.08989 243.442911 
L 680.184652 243.442911 
L 680.184652 243.603426 
L 681.279415 243.603426 
L 681.279415 243.442911 
L 683.46894 243.442911 
L 683.46894 243.175386 
L 684.563702 243.175386 
L 684.563702 244.031465 
L 685.658465 244.031465 
L 685.658465 243.442911 
L 686.753228 243.442911 
L 686.753228 243.656931 
L 687.84799 243.656931 
L 687.84799 243.817445 
L 690.037515 243.710435 
L 690.037515 243.442911 
L 691.132278 243.442911 
L 691.132278 243.710435 
L 692.22704 243.710435 
L 692.22704 244.19198 
L 693.321803 244.19198 
L 693.321803 244.031465 
L 694.416565 244.031465 
L 694.416565 243.389406 
L 695.511328 243.389406 
L 695.511328 243.710435 
L 697.700853 243.710435 
L 697.700853 244.031465 
L 699.890378 244.08497 
L 699.890378 244.566514 
L 700.98514 244.566514 
L 700.98514 244.352494 
L 703.174666 244.352494 
L 703.174666 244.780534 
L 704.269428 244.780534 
L 704.269428 243.97796 
L 705.364191 243.97796 
L 705.364191 244.673524 
L 706.458953 244.673524 
L 706.458953 244.19198 
L 708.648478 244.245485 
L 708.648478 244.513009 
L 709.743241 244.513009 
L 709.743241 244.29899 
L 711.932766 244.245485 
L 711.932766 244.941048 
L 713.027528 244.941048 
L 713.027528 244.031465 
L 715.217053 243.97796 
L 715.217053 244.727029 
L 716.311816 244.727029 
L 716.311816 244.405999 
L 717.406578 244.405999 
L 717.406578 243.97796 
L 718.501341 243.97796 
L 718.501341 244.405999 
L 719.596103 244.405999 
L 719.596103 244.673524 
L 720.690866 244.673524 
L 720.690866 244.513009 
L 721.785629 244.513009 
L 721.785629 245.101563 
L 722.880391 245.101563 
L 722.880391 244.834039 
L 723.975154 244.834039 
L 723.975154 245.048058 
L 725.069916 245.048058 
L 725.069916 244.673524 
L 727.259441 244.727029 
L 727.259441 245.208573 
L 728.354204 245.208573 
L 728.354204 244.994553 
L 730.543729 244.941048 
L 730.543729 244.620019 
L 731.638491 244.620019 
L 731.638491 245.048058 
L 733.828016 245.155068 
L 733.828016 244.566514 
L 734.922779 244.566514 
L 734.922779 245.155068 
L 736.017541 245.155068 
L 736.017541 244.780534 
L 737.112304 244.780534 
L 737.112304 244.994553 
L 742.586117 245.048058 
L 742.586117 244.834039 
L 744.775642 244.780534 
L 744.775642 245.048058 
L 746.965167 245.101563 
L 746.965167 244.727029 
L 748.059929 244.727029 
L 748.059929 245.155068 
L 749.154692 245.155068 
L 749.154692 245.315583 
L 751.344217 245.208573 
L 751.344217 244.941048 
L 752.438979 244.941048 
L 752.438979 245.155068 
L 755.723267 245.262078 
L 755.723267 245.315583 
L 756.818029 245.315583 
L 756.818029 244.994553 
L 757.912792 244.994553 
L 757.912792 245.208573 
L 761.19708 245.155068 
L 761.19708 245.369088 
L 764.481367 245.422593 
L 764.481367 245.636612 
L 765.57613 245.636612 
L 765.57613 245.476098 
L 767.765655 245.422593 
L 767.765655 245.208573 
L 769.95518 245.315583 
L 769.95518 245.369088 
L 775.428993 245.422593 
L 775.428993 245.743622 
L 776.523755 245.743622 
L 776.523755 245.476098 
L 778.71328 245.369088 
L 778.71328 245.636612 
L 779.808043 245.636612 
L 779.808043 245.476098 
L 786.376618 245.529602 
L 786.376618 245.636612 
L 795.134718 245.583107 
L 795.134718 245.476098 
L 799.513768 245.369088 
L 799.513768 245.743622 
L 800.608531 245.743622 
L 800.608531 245.583107 
L 801.703293 245.583107 
L 801.703293 245.315583 
L 802.798056 245.315583 
L 802.798056 245.636612 
L 803.892818 245.636612 
L 803.892818 245.155068 
L 804.987581 245.155068 
L 804.987581 245.636612 
L 808.271868 245.636612 
L 808.271868 245.476098 
L 812.650919 245.583107 
L 812.650919 245.636612 
L 815.935206 245.743622 
L 815.935206 245.422593 
L 817.029969 245.422593 
L 817.029969 245.743622 
L 819.219494 245.690117 
L 819.219494 245.369088 
L 820.314256 245.369088 
L 820.314256 245.690117 
L 823.598544 245.690117 
L 823.598544 245.529602 
L 825.788069 245.529602 
L 825.788069 245.743622 
L 827.977594 245.636612 
L 827.977594 245.529602 
L 829.072357 245.529602 
L 829.072357 245.743622 
L 831.261882 245.743622 
L 831.261882 245.529602 
L 832.356644 245.529602 
L 832.356644 245.743622 
L 833.451407 245.743622 
L 833.451407 245.476098 
L 835.640932 245.583107 
L 835.640932 245.690117 
L 848.778082 245.690117 
L 848.778082 245.690117 
" clip-path="url(#pe366cea181)" style="fill: none; stroke: #1f77b4; stroke-width: 1.5; stroke-linecap: square"/>
   </g>
   <g id="patch_8">
    <path d="M 503.927885 257.158895 
L 503.927885 7.2 
" style="fill: none; stroke: #000000; stroke-width: 0.8; stroke-linejoin: miter; stroke-linecap: square"/>
   </g>
   <g id="patch_9">
    <path d="M 865.19952 257.158895 
L 865.19952 7.2 
" style="fill: none; stroke: #000000; stroke-width: 0.8; stroke-linejoin: miter; stroke-linecap: square"/>
   </g>
   <g id="patch_10">
    <path d="M 503.927885 257.158895 
L 865.19952 257.158895 
" style="fill: none; stroke: #000000; stroke-width: 0.8; stroke-linejoin: miter; stroke-linecap: square"/>
   </g>
   <g id="patch_11">
    <path d="M 503.927885 7.2 
L 865.19952 7.2 
" style="fill: none; stroke: #000000; stroke-width: 0.8; stroke-linejoin: miter; stroke-linecap: square"/>
   </g>
  </g>
 </g>
 <defs>
  <clipPath id="p04b0cfcb1d">
   <rect x="53.328125" y="7.2" width="361.271635" height="249.958895"/>
  </clipPath>
  <clipPath id="pe366cea181">
   <rect x="503.927885" y="7.2" width="361.271635" height="249.958895"/>
  </clipPath>
 </defs>
</svg>
