<?xml version="1.0" encoding="utf-8" standalone="no"?>
<!DOCTYPE svg PUBLIC "-//W3C//DTD SVG 1.1//EN"
  "http://www.w3.org/Graphics/SVG/1.1/DTD/svg11.dtd">
<svg xmlns:xlink="http://www.w3.org/1999/xlink" width="872.39952pt" height="296.39952pt" viewBox="0 0 872.39952 296.39952" xmlns="http://www.w3.org/2000/svg" version="1.1">
 <metadata>
  <rdf:RDF xmlns:dc="http://purl.org/dc/elements/1.1/" xmlns:cc="http://creativecommons.org/ns#" xmlns:rdf="http://www.w3.org/1999/02/22-rdf-syntax-ns#">
   <cc:Work>
    <dc:type rdf:resource="http://purl.org/dc/dcmitype/StillImage"/>
    <dc:date>2026-04-22T12:31:08.139171</dc:date>
    <dc:format>image/svg+xml</dc:format>
    <dc:creator>
     <cc:Agent>
      <dc:title>Matplotlib v3.10.8, https://matplotlib.org/</dc:title>
     </cc:Agent>
    </dc:creator>
   </cc:Work>
  </rdf:RDF>
 </metadata>
 <defs>
  <style type="text/css">*{stroke-linejoin: round; stroke-linecap: butt}</style>
 </defs>
 <g id="figure_1">
  <g id="patch_1">
   <path d="M 0 296.39952 
L 872.39952 296.39952 
L 872.39952 0 
L 0 0 
z
" style="fill: #ffffff"/>
  </g>
  <g id="axes_1">
   <g id="patch_2">
    <path d="M 46.965625 257.158895 
L 414.59976 257.158895 
L 414.59976 22.318125 
L 46.965625 22.318125 
z
" style="fill: #ffffff"/>
   </g>
   <g id="matplotlib.axis_1">
    <g id="xtick_1">
     <g id="line2d_1">
      <defs>
       <path id="m2b0eecfa2e" d="M 0 0 
L 0 3.5 
" style="stroke: #000000; stroke-width: 0.8"/>
      </defs>
      <g>
       <use xlink:href="#m2b0eecfa2e" x="81.266418" y="257.158895" style="stroke: #000000; stroke-width: 0.8"/>
      </g>
     </g>
     <g id="text_1">
      <!-- 1.0 -->
      <g transform="translate(73.314855 271.757332) scale(0.1 -0.1)">
       <defs>
        <path id="DejaVuSans-31" d="M 794 531 
L 1825 531 
L 1825 4091 
L 703 3866 
L 703 4441 
L 1819 4666 
L 2450 4666 
L 2450 531 
L 3481 531 
L 3481 0 
L 794 0 
L 794 531 
z
" transform="scale(0.015625)"/>
        <path id="DejaVuSans-2e" d="M 684 794 
L 1344 794 
L 1344 0 
L 684 0 
L 684 794 
z
" transform="scale(0.015625)"/>
        <path id="DejaVuSans-30" d="M 2034 4250 
Q 1547 4250 1301 3770 
Q 1056 3291 1056 2328 
Q 1056 1369 1301 889 
Q 1547 409 2034 409 
Q 2525 409 2770 889 
Q 3016 1369 3016 2328 
Q 3016 3291 2770 3770 
Q 2525 4250 2034 4250 
z
M 2034 4750 
Q 2819 4750 3233 4129 
Q 3647 3509 3647 2328 
Q 3647 1150 3233 529 
Q 2819 -91 2034 -91 
Q 1250 -91 836 529 
Q 422 1150 422 2328 
Q 422 3509 836 4129 
Q 1250 4750 2034 4750 
z
" transform="scale(0.015625)"/>
       </defs>
       <use xlink:href="#DejaVuSans-31"/>
       <use xlink:href="#DejaVuSans-2e" transform="translate(63.623047 0)"/>
       <use xlink:href="#DejaVuSans-30" transform="translate(95.410156 0)"/>
      </g>
     </g>
    </g>
    <g id="xtick_2">
     <g id="line2d_2">
      <g>
       <use xlink:href="#m2b0eecfa2e" x="125.241793" y="257.158895" style="stroke: #000000; stroke-width: 0.8"/>
      </g>
     </g>
     <g id="text_2">
      <!-- 1.5 -->
      <g transform="translate(117.29023 271.757332) scale(0.1 -0.1)">
       <defs>
        <path id="DejaVuSans-35" d="M 691 4666 
L 3169 4666 
L 3169 4134 
L 1269 4134 
L 1269 2991 
Q 1406 3038 1543 3061 
Q 1681 3084 1819 3084 
Q 2600 3084 3056 2656 
Q 3513 2228 3513 1497 
Q 3513 744 3044 326 
Q 2575 -91 1722 -91 
Q 1428 -91 1123 -41 
Q 819 9 494 109 
L 494 744 
Q 775 591 1075 516 
Q 1375 441 1709 441 
Q 2250 441 2565 725 
Q 2881 1009 2881 1497 
Q 2881 1984 2565 2268 
Q 2250 2553 1709 2553 
Q 1456 2553 1204 2497 
Q 953 2441 691 2322 
L 691 4666 
z
" transform="scale(0.015625)"/>
       </defs>
       <use xlink:href="#DejaVuSans-31"/>
       <use xlink:href="#DejaVuSans-2e" transform="translate(63.623047 0)"/>
       <use xlink:href="#DejaVuSans-35" transform="translate(95.410156 0)"/>
      </g>
     </g>
    </g>
    <g id="xtick_3">
     <g id="line2d_3">
      <g>
       <use xlink:href="#m2b0eecfa2e" x="169.217168" y="257.158895" style="stroke: #000000; stroke-width: 0.8"/>
      </g>
     </g>
     <g id="text_3">
      <!-- 2.0 -->
      <g transform="translate(161.265605 271.757332) scale(0.1 -0.1)">
       <defs>
        <path id="DejaVuSans-32" d="M 1228 531 
L 3431 531 
L 3431 0 
L 469 0 
L 469 531 
Q 828 903 1448 1529 
Q 2069 2156 2228 2338 
Q 2531 2678 2651 2914 
Q 2772 3150 2772 3378 
Q 2772 3750 2511 3984 
Q 2250 4219 1831 4219 
Q 1534 4219 1204 4116 
Q 875 4013 500 3803 
L 500 4441 
Q 881 4594 1212 4672 
Q 1544 4750 1819 4750 
Q 2544 4750 2975 4387 
Q 3406 4025 3406 3419 
Q 3406 3131 3298 2873 
Q 3191 2616 2906 2266 
Q 2828 2175 2409 1742 
Q 1991 1309 1228 531 
z
" transform="scale(0.015625)"/>
       </defs>
       <use xlink:href="#DejaVuSans-32"/>
       <use xlink:href="#DejaVuSans-2e" transform="translate(63.623047 0)"/>
       <use xlink:href="#DejaVuSans-30" transform="translate(95.410156 0)"/>
      </g>
     </g>
    </g>
    <g id="xtick_4">
     <g id="line2d_4">
      <g>
       <use xlink:href="#m2b0eecfa2e" x="213.192543" y="257.158895" style="stroke: #000000; stroke-width: 0.8"/>
      </g>
     </g>
     <g id="text_4">
      <!-- 2.5 -->
      <g transform="translate(205.24098 271.757332) scale(0.1 -0.1)">
       <use xlink:href="#DejaVuSans-32"/>
       <use xlink:href="#DejaVuSans-2e" transform="translate(63.623047 0)"/>
       <use xlink:href="#DejaVuSans-35" transform="translate(95.410156 0)"/>
      </g>
     </g>
    </g>
    <g id="xtick_5">
     <g id="line2d_5">
      <g>
       <use xlink:href="#m2b0eecfa2e" x="257.167918" y="257.158895" style="stroke: #000000; stroke-width: 0.8"/>
      </g>
     </g>
     <g id="text_5">
      <!-- 3.0 -->
      <g transform="translate(249.216355 271.757332) scale(0.1 -0.1)">
       <defs>
        <path id="DejaVuSans-33" d="M 2597 2516 
Q 3050 2419 3304 2112 
Q 3559 1806 3559 1356 
Q 3559 666 3084 287 
Q 2609 -91 1734 -91 
Q 1441 -91 1130 -33 
Q 819 25 488 141 
L 488 750 
Q 750 597 1062 519 
Q 1375 441 1716 441 
Q 2309 441 2620 675 
Q 2931 909 2931 1356 
Q 2931 1769 2642 2001 
Q 2353 2234 1838 2234 
L 1294 2234 
L 1294 2753 
L 1863 2753 
Q 2328 2753 2575 2939 
Q 2822 3125 2822 3475 
Q 2822 3834 2567 4026 
Q 2313 4219 1838 4219 
Q 1578 4219 1281 4162 
Q 984 4106 628 3988 
L 628 4550 
Q 988 4650 1302 4700 
Q 1616 4750 1894 4750 
Q 2613 4750 3031 4423 
Q 3450 4097 3450 3541 
Q 3450 3153 3228 2886 
Q 3006 2619 2597 2516 
z
" transform="scale(0.015625)"/>
       </defs>
       <use xlink:href="#DejaVuSans-33"/>
       <use xlink:href="#DejaVuSans-2e" transform="translate(63.623047 0)"/>
       <use xlink:href="#DejaVuSans-30" transform="translate(95.410156 0)"/>
      </g>
     </g>
    </g>
    <g id="xtick_6">
     <g id="line2d_6">
      <g>
       <use xlink:href="#m2b0eecfa2e" x="301.143293" y="257.158895" style="stroke: #000000; stroke-width: 0.8"/>
      </g>
     </g>
     <g id="text_6">
      <!-- 3.5 -->
      <g transform="translate(293.19173 271.757332) scale(0.1 -0.1)">
       <use xlink:href="#DejaVuSans-33"/>
       <use xlink:href="#DejaVuSans-2e" transform="translate(63.623047 0)"/>
       <use xlink:href="#DejaVuSans-35" transform="translate(95.410156 0)"/>
      </g>
     </g>
    </g>
    <g id="xtick_7">
     <g id="line2d_7">
      <g>
       <use xlink:href="#m2b0eecfa2e" x="345.118668" y="257.158895" style="stroke: #000000; stroke-width: 0.8"/>
      </g>
     </g>
     <g id="text_7">
      <!-- 4.0 -->
      <g transform="translate(337.167105 271.757332) scale(0.1 -0.1)">
       <defs>
        <path id="DejaVuSans-34" d="M 2419 4116 
L 825 1625 
L 2419 1625 
L 2419 4116 
z
M 2253 4666 
L 3047 4666 
L 3047 1625 
L 3713 1625 
L 3713 1100 
L 3047 1100 
L 3047 0 
L 2419 0 
L 2419 1100 
L 313 1100 
L 313 1709 
L 2253 4666 
z
" transform="scale(0.015625)"/>
       </defs>
       <use xlink:href="#DejaVuSans-34"/>
       <use xlink:href="#DejaVuSans-2e" transform="translate(63.623047 0)"/>
       <use xlink:href="#DejaVuSans-30" transform="translate(95.410156 0)"/>
      </g>
     </g>
    </g>
    <g id="xtick_8">
     <g id="line2d_8">
      <g>
       <use xlink:href="#m2b0eecfa2e" x="389.094043" y="257.158895" style="stroke: #000000; stroke-width: 0.8"/>
      </g>
     </g>
     <g id="text_8">
      <!-- 4.5 -->
      <g transform="translate(381.14248 271.757332) scale(0.1 -0.1)">
       <use xlink:href="#DejaVuSans-34"/>
       <use xlink:href="#DejaVuSans-2e" transform="translate(63.623047 0)"/>
       <use xlink:href="#DejaVuSans-35" transform="translate(95.410156 0)"/>
      </g>
     </g>
    </g>
    <g id="text_9">
     <!-- wavelength [Å] -->
     <g transform="translate(192.745193 287.119832) scale(0.1 -0.1)">
      <defs>
       <path id="DejaVuSans-77" d="M 269 3500 
L 844 3500 
L 1563 769 
L 2278 3500 
L 2956 3500 
L 3675 769 
L 4391 3500 
L 4966 3500 
L 4050 0 
L 3372 0 
L 2619 2869 
L 1863 0 
L 1184 0 
L 269 3500 
z
" transform="scale(0.015625)"/>
       <path id="DejaVuSans-61" d="M 2194 1759 
Q 1497 1759 1228 1600 
Q 959 1441 959 1056 
Q 959 750 1161 570 
Q 1363 391 1709 391 
Q 2188 391 2477 730 
Q 2766 1069 2766 1631 
L 2766 1759 
L 2194 1759 
z
M 3341 1997 
L 3341 0 
L 2766 0 
L 2766 531 
Q 2569 213 2275 61 
Q 1981 -91 1556 -91 
Q 1019 -91 701 211 
Q 384 513 384 1019 
Q 384 1609 779 1909 
Q 1175 2209 1959 2209 
L 2766 2209 
L 2766 2266 
Q 2766 2663 2505 2880 
Q 2244 3097 1772 3097 
Q 1472 3097 1187 3025 
Q 903 2953 641 2809 
L 641 3341 
Q 956 3463 1253 3523 
Q 1550 3584 1831 3584 
Q 2591 3584 2966 3190 
Q 3341 2797 3341 1997 
z
" transform="scale(0.015625)"/>
       <path id="DejaVuSans-76" d="M 191 3500 
L 800 3500 
L 1894 563 
L 2988 3500 
L 3597 3500 
L 2284 0 
L 1503 0 
L 191 3500 
z
" transform="scale(0.015625)"/>
       <path id="DejaVuSans-65" d="M 3597 1894 
L 3597 1613 
L 953 1613 
Q 991 1019 1311 708 
Q 1631 397 2203 397 
Q 2534 397 2845 478 
Q 3156 559 3463 722 
L 3463 178 
Q 3153 47 2828 -22 
Q 2503 -91 2169 -91 
Q 1331 -91 842 396 
Q 353 884 353 1716 
Q 353 2575 817 3079 
Q 1281 3584 2069 3584 
Q 2775 3584 3186 3129 
Q 3597 2675 3597 1894 
z
M 3022 2063 
Q 3016 2534 2758 2815 
Q 2500 3097 2075 3097 
Q 1594 3097 1305 2825 
Q 1016 2553 972 2059 
L 3022 2063 
z
" transform="scale(0.015625)"/>
       <path id="DejaVuSans-6c" d="M 603 4863 
L 1178 4863 
L 1178 0 
L 603 0 
L 603 4863 
z
" transform="scale(0.015625)"/>
       <path id="DejaVuSans-6e" d="M 3513 2113 
L 3513 0 
L 2938 0 
L 2938 2094 
Q 2938 2591 2744 2837 
Q 2550 3084 2163 3084 
Q 1697 3084 1428 2787 
Q 1159 2491 1159 1978 
L 1159 0 
L 581 0 
L 581 3500 
L 1159 3500 
L 1159 2956 
Q 1366 3272 1645 3428 
Q 1925 3584 2291 3584 
Q 2894 3584 3203 3211 
Q 3513 2838 3513 2113 
z
" transform="scale(0.015625)"/>
       <path id="DejaVuSans-67" d="M 2906 1791 
Q 2906 2416 2648 2759 
Q 2391 3103 1925 3103 
Q 1463 3103 1205 2759 
Q 947 2416 947 1791 
Q 947 1169 1205 825 
Q 1463 481 1925 481 
Q 2391 481 2648 825 
Q 2906 1169 2906 1791 
z
M 3481 434 
Q 3481 -459 3084 -895 
Q 2688 -1331 1869 -1331 
Q 1566 -1331 1297 -1286 
Q 1028 -1241 775 -1147 
L 775 -588 
Q 1028 -725 1275 -790 
Q 1522 -856 1778 -856 
Q 2344 -856 2625 -561 
Q 2906 -266 2906 331 
L 2906 616 
Q 2728 306 2450 153 
Q 2172 0 1784 0 
Q 1141 0 747 490 
Q 353 981 353 1791 
Q 353 2603 747 3093 
Q 1141 3584 1784 3584 
Q 2172 3584 2450 3431 
Q 2728 3278 2906 2969 
L 2906 3500 
L 3481 3500 
L 3481 434 
z
" transform="scale(0.015625)"/>
       <path id="DejaVuSans-74" d="M 1172 4494 
L 1172 3500 
L 2356 3500 
L 2356 3053 
L 1172 3053 
L 1172 1153 
Q 1172 725 1289 603 
Q 1406 481 1766 481 
L 2356 481 
L 2356 0 
L 1766 0 
Q 1100 0 847 248 
Q 594 497 594 1153 
L 594 3053 
L 172 3053 
L 172 3500 
L 594 3500 
L 594 4494 
L 1172 4494 
z
" transform="scale(0.015625)"/>
       <path id="DejaVuSans-68" d="M 3513 2113 
L 3513 0 
L 2938 0 
L 2938 2094 
Q 2938 2591 2744 2837 
Q 2550 3084 2163 3084 
Q 1697 3084 1428 2787 
Q 1159 2491 1159 1978 
L 1159 0 
L 581 0 
L 581 4863 
L 1159 4863 
L 1159 2956 
Q 1366 3272 1645 3428 
Q 1925 3584 2291 3584 
Q 2894 3584 3203 3211 
Q 3513 2838 3513 2113 
z
" transform="scale(0.015625)"/>
       <path id="DejaVuSans-20" transform="scale(0.015625)"/>
       <path id="DejaVuSans-5b" d="M 550 4863 
L 1875 4863 
L 1875 4416 
L 1125 4416 
L 1125 -397 
L 1875 -397 
L 1875 -844 
L 550 -844 
L 550 4863 
z
" transform="scale(0.015625)"/>
       <path id="DejaVuSans-c5" d="M 2663 5081 
Q 2663 5278 2523 5417 
Q 2384 5556 2188 5556 
Q 1988 5556 1852 5420 
Q 1716 5284 1716 5081 
Q 1716 4884 1853 4746 
Q 1991 4609 2188 4609 
Q 2384 4609 2523 4746 
Q 2663 4884 2663 5081 
z
M 2188 4044 
L 1338 1722 
L 3041 1722 
L 2188 4044 
z
M 1716 4366 
Q 1525 4494 1428 4673 
Q 1331 4853 1331 5081 
Q 1331 5441 1579 5691 
Q 1828 5941 2188 5941 
Q 2544 5941 2795 5689 
Q 3047 5438 3047 5081 
Q 3047 4863 2948 4678 
Q 2850 4494 2663 4366 
L 4325 0 
L 3669 0 
L 3244 1197 
L 1141 1197 
L 716 0 
L 50 0 
L 1716 4366 
z
" transform="scale(0.015625)"/>
       <path id="DejaVuSans-5d" d="M 1947 4863 
L 1947 -844 
L 622 -844 
L 622 -397 
L 1369 -397 
L 1369 4416 
L 622 4416 
L 622 4863 
L 1947 4863 
z
" transform="scale(0.015625)"/>
      </defs>
      <use xlink:href="#DejaVuSans-77"/>
      <use xlink:href="#DejaVuSans-61" transform="translate(81.787109 0)"/>
      <use xlink:href="#DejaVuSans-76" transform="translate(143.066406 0)"/>
      <use xlink:href="#DejaVuSans-65" transform="translate(202.246094 0)"/>
      <use xlink:href="#DejaVuSans-6c" transform="translate(263.769531 0)"/>
      <use xlink:href="#DejaVuSans-65" transform="translate(291.552734 0)"/>
      <use xlink:href="#DejaVuSans-6e" transform="translate(353.076172 0)"/>
      <use xlink:href="#DejaVuSans-67" transform="translate(416.455078 0)"/>
      <use xlink:href="#DejaVuSans-74" transform="translate(479.931641 0)"/>
      <use xlink:href="#DejaVuSans-68" transform="translate(519.140625 0)"/>
      <use xlink:href="#DejaVuSans-20" transform="translate(582.519531 0)"/>
      <use xlink:href="#DejaVuSans-5b" transform="translate(614.306641 0)"/>
      <use xlink:href="#DejaVuSans-c5" transform="translate(653.320312 0)"/>
      <use xlink:href="#DejaVuSans-5d" transform="translate(721.728516 0)"/>
     </g>
    </g>
   </g>
   <g id="matplotlib.axis_2">
    <g id="ytick_1">
     <g id="line2d_9">
      <defs>
       <path id="m3505ba2a61" d="M 0 0 
L -3.5 0 
" style="stroke: #000000; stroke-width: 0.8"/>
      </defs>
      <g>
       <use xlink:href="#m3505ba2a61" x="46.965625" y="246.484315" style="stroke: #000000; stroke-width: 0.8"/>
      </g>
     </g>
     <g id="text_10">
      <!-- 0 -->
      <g transform="translate(33.603125 250.283533) scale(0.1 -0.1)">
       <use xlink:href="#DejaVuSans-30"/>
      </g>
     </g>
    </g>
    <g id="ytick_2">
     <g id="line2d_10">
      <g>
       <use xlink:href="#m3505ba2a61" x="46.965625" y="220.029344" style="stroke: #000000; stroke-width: 0.8"/>
      </g>
     </g>
     <g id="text_11">
      <!-- 100 -->
      <g transform="translate(20.878125 223.828563) scale(0.1 -0.1)">
       <use xlink:href="#DejaVuSans-31"/>
       <use xlink:href="#DejaVuSans-30" transform="translate(63.623047 0)"/>
       <use xlink:href="#DejaVuSans-30" transform="translate(127.246094 0)"/>
      </g>
     </g>
    </g>
    <g id="ytick_3">
     <g id="line2d_11">
      <g>
       <use xlink:href="#m3505ba2a61" x="46.965625" y="193.574374" style="stroke: #000000; stroke-width: 0.8"/>
      </g>
     </g>
     <g id="text_12">
      <!-- 200 -->
      <g transform="translate(20.878125 197.373593) scale(0.1 -0.1)">
       <use xlink:href="#DejaVuSans-32"/>
       <use xlink:href="#DejaVuSans-30" transform="translate(63.623047 0)"/>
       <use xlink:href="#DejaVuSans-30" transform="translate(127.246094 0)"/>
      </g>
     </g>
    </g>
    <g id="ytick_4">
     <g id="line2d_12">
      <g>
       <use xlink:href="#m3505ba2a61" x="46.965625" y="167.119404" style="stroke: #000000; stroke-width: 0.8"/>
      </g>
     </g>
     <g id="text_13">
      <!-- 300 -->
      <g transform="translate(20.878125 170.918623) scale(0.1 -0.1)">
       <use xlink:href="#DejaVuSans-33"/>
       <use xlink:href="#DejaVuSans-30" transform="translate(63.623047 0)"/>
       <use xlink:href="#DejaVuSans-30" transform="translate(127.246094 0)"/>
      </g>
     </g>
    </g>
    <g id="ytick_5">
     <g id="line2d_13">
      <g>
       <use xlink:href="#m3505ba2a61" x="46.965625" y="140.664434" style="stroke: #000000; stroke-width: 0.8"/>
      </g>
     </g>
     <g id="text_14">
      <!-- 400 -->
      <g transform="translate(20.878125 144.463653) scale(0.1 -0.1)">
       <use xlink:href="#DejaVuSans-34"/>
       <use xlink:href="#DejaVuSans-30" transform="translate(63.623047 0)"/>
       <use xlink:href="#DejaVuSans-30" transform="translate(127.246094 0)"/>
      </g>
     </g>
    </g>
    <g id="ytick_6">
     <g id="line2d_14">
      <g>
       <use xlink:href="#m3505ba2a61" x="46.965625" y="114.209464" style="stroke: #000000; stroke-width: 0.8"/>
      </g>
     </g>
     <g id="text_15">
      <!-- 500 -->
      <g transform="translate(20.878125 118.008683) scale(0.1 -0.1)">
       <use xlink:href="#DejaVuSans-35"/>
       <use xlink:href="#DejaVuSans-30" transform="translate(63.623047 0)"/>
       <use xlink:href="#DejaVuSans-30" transform="translate(127.246094 0)"/>
      </g>
     </g>
    </g>
    <g id="ytick_7">
     <g id="line2d_15">
      <g>
       <use xlink:href="#m3505ba2a61" x="46.965625" y="87.754494" style="stroke: #000000; stroke-width: 0.8"/>
      </g>
     </g>
     <g id="text_16">
      <!-- 600 -->
      <g transform="translate(20.878125 91.553712) scale(0.1 -0.1)">
       <defs>
        <path id="DejaVuSans-36" d="M 2113 2584 
Q 1688 2584 1439 2293 
Q 1191 2003 1191 1497 
Q 1191 994 1439 701 
Q 1688 409 2113 409 
Q 2538 409 2786 701 
Q 3034 994 3034 1497 
Q 3034 2003 2786 2293 
Q 2538 2584 2113 2584 
z
M 3366 4563 
L 3366 3988 
Q 3128 4100 2886 4159 
Q 2644 4219 2406 4219 
Q 1781 4219 1451 3797 
Q 1122 3375 1075 2522 
Q 1259 2794 1537 2939 
Q 1816 3084 2150 3084 
Q 2853 3084 3261 2657 
Q 3669 2231 3669 1497 
Q 3669 778 3244 343 
Q 2819 -91 2113 -91 
Q 1303 -91 875 529 
Q 447 1150 447 2328 
Q 447 3434 972 4092 
Q 1497 4750 2381 4750 
Q 2619 4750 2861 4703 
Q 3103 4656 3366 4563 
z
" transform="scale(0.015625)"/>
       </defs>
       <use xlink:href="#DejaVuSans-36"/>
       <use xlink:href="#DejaVuSans-30" transform="translate(63.623047 0)"/>
       <use xlink:href="#DejaVuSans-30" transform="translate(127.246094 0)"/>
      </g>
     </g>
    </g>
    <g id="ytick_8">
     <g id="line2d_16">
      <g>
       <use xlink:href="#m3505ba2a61" x="46.965625" y="61.299524" style="stroke: #000000; stroke-width: 0.8"/>
      </g>
     </g>
     <g id="text_17">
      <!-- 700 -->
      <g transform="translate(20.878125 65.098742) scale(0.1 -0.1)">
       <defs>
        <path id="DejaVuSans-37" d="M 525 4666 
L 3525 4666 
L 3525 4397 
L 1831 0 
L 1172 0 
L 2766 4134 
L 525 4134 
L 525 4666 
z
" transform="scale(0.015625)"/>
       </defs>
       <use xlink:href="#DejaVuSans-37"/>
       <use xlink:href="#DejaVuSans-30" transform="translate(63.623047 0)"/>
       <use xlink:href="#DejaVuSans-30" transform="translate(127.246094 0)"/>
      </g>
     </g>
    </g>
    <g id="ytick_9">
     <g id="line2d_17">
      <g>
       <use xlink:href="#m3505ba2a61" x="46.965625" y="34.844553" style="stroke: #000000; stroke-width: 0.8"/>
      </g>
     </g>
     <g id="text_18">
      <!-- 800 -->
      <g transform="translate(20.878125 38.643772) scale(0.1 -0.1)">
       <defs>
        <path id="DejaVuSans-38" d="M 2034 2216 
Q 1584 2216 1326 1975 
Q 1069 1734 1069 1313 
Q 1069 891 1326 650 
Q 1584 409 2034 409 
Q 2484 409 2743 651 
Q 3003 894 3003 1313 
Q 3003 1734 2745 1975 
Q 2488 2216 2034 2216 
z
M 1403 2484 
Q 997 2584 770 2862 
Q 544 3141 544 3541 
Q 544 4100 942 4425 
Q 1341 4750 2034 4750 
Q 2731 4750 3128 4425 
Q 3525 4100 3525 3541 
Q 3525 3141 3298 2862 
Q 3072 2584 2669 2484 
Q 3125 2378 3379 2068 
Q 3634 1759 3634 1313 
Q 3634 634 3220 271 
Q 2806 -91 2034 -91 
Q 1263 -91 848 271 
Q 434 634 434 1313 
Q 434 1759 690 2068 
Q 947 2378 1403 2484 
z
M 1172 3481 
Q 1172 3119 1398 2916 
Q 1625 2713 2034 2713 
Q 2441 2713 2670 2916 
Q 2900 3119 2900 3481 
Q 2900 3844 2670 4047 
Q 2441 4250 2034 4250 
Q 1625 4250 1398 4047 
Q 1172 3844 1172 3481 
z
" transform="scale(0.015625)"/>
       </defs>
       <use xlink:href="#DejaVuSans-38"/>
       <use xlink:href="#DejaVuSans-30" transform="translate(63.623047 0)"/>
       <use xlink:href="#DejaVuSans-30" transform="translate(127.246094 0)"/>
      </g>
     </g>
    </g>
    <g id="text_19">
     <!-- [counts] -->
     <g transform="translate(14.798437 160.35101) rotate(-90) scale(0.1 -0.1)">
      <defs>
       <path id="DejaVuSans-63" d="M 3122 3366 
L 3122 2828 
Q 2878 2963 2633 3030 
Q 2388 3097 2138 3097 
Q 1578 3097 1268 2742 
Q 959 2388 959 1747 
Q 959 1106 1268 751 
Q 1578 397 2138 397 
Q 2388 397 2633 464 
Q 2878 531 3122 666 
L 3122 134 
Q 2881 22 2623 -34 
Q 2366 -91 2075 -91 
Q 1284 -91 818 406 
Q 353 903 353 1747 
Q 353 2603 823 3093 
Q 1294 3584 2113 3584 
Q 2378 3584 2631 3529 
Q 2884 3475 3122 3366 
z
" transform="scale(0.015625)"/>
       <path id="DejaVuSans-6f" d="M 1959 3097 
Q 1497 3097 1228 2736 
Q 959 2375 959 1747 
Q 959 1119 1226 758 
Q 1494 397 1959 397 
Q 2419 397 2687 759 
Q 2956 1122 2956 1747 
Q 2956 2369 2687 2733 
Q 2419 3097 1959 3097 
z
M 1959 3584 
Q 2709 3584 3137 3096 
Q 3566 2609 3566 1747 
Q 3566 888 3137 398 
Q 2709 -91 1959 -91 
Q 1206 -91 779 398 
Q 353 888 353 1747 
Q 353 2609 779 3096 
Q 1206 3584 1959 3584 
z
" transform="scale(0.015625)"/>
       <path id="DejaVuSans-75" d="M 544 1381 
L 544 3500 
L 1119 3500 
L 1119 1403 
Q 1119 906 1312 657 
Q 1506 409 1894 409 
Q 2359 409 2629 706 
Q 2900 1003 2900 1516 
L 2900 3500 
L 3475 3500 
L 3475 0 
L 2900 0 
L 2900 538 
Q 2691 219 2414 64 
Q 2138 -91 1772 -91 
Q 1169 -91 856 284 
Q 544 659 544 1381 
z
M 1991 3584 
L 1991 3584 
z
" transform="scale(0.015625)"/>
       <path id="DejaVuSans-73" d="M 2834 3397 
L 2834 2853 
Q 2591 2978 2328 3040 
Q 2066 3103 1784 3103 
Q 1356 3103 1142 2972 
Q 928 2841 928 2578 
Q 928 2378 1081 2264 
Q 1234 2150 1697 2047 
L 1894 2003 
Q 2506 1872 2764 1633 
Q 3022 1394 3022 966 
Q 3022 478 2636 193 
Q 2250 -91 1575 -91 
Q 1294 -91 989 -36 
Q 684 19 347 128 
L 347 722 
Q 666 556 975 473 
Q 1284 391 1588 391 
Q 1994 391 2212 530 
Q 2431 669 2431 922 
Q 2431 1156 2273 1281 
Q 2116 1406 1581 1522 
L 1381 1569 
Q 847 1681 609 1914 
Q 372 2147 372 2553 
Q 372 3047 722 3315 
Q 1072 3584 1716 3584 
Q 2034 3584 2315 3537 
Q 2597 3491 2834 3397 
z
" transform="scale(0.015625)"/>
      </defs>
      <use xlink:href="#DejaVuSans-5b"/>
      <use xlink:href="#DejaVuSans-63" transform="translate(39.013672 0)"/>
      <use xlink:href="#DejaVuSans-6f" transform="translate(93.994141 0)"/>
      <use xlink:href="#DejaVuSans-75" transform="translate(155.175781 0)"/>
      <use xlink:href="#DejaVuSans-6e" transform="translate(218.554688 0)"/>
      <use xlink:href="#DejaVuSans-74" transform="translate(281.933594 0)"/>
      <use xlink:href="#DejaVuSans-73" transform="translate(321.142578 0)"/>
      <use xlink:href="#DejaVuSans-5d" transform="translate(373.242188 0)"/>
     </g>
    </g>
   </g>
   <g id="line2d_18">
    <path d="M 63.676268 246.484315 
L 72.031589 246.484315 
L 72.031589 244.632467 
L 73.702653 244.632467 
L 73.702653 233.256829 
L 75.373717 233.256829 
L 75.373717 226.643087 
L 77.044782 226.643087 
L 77.044782 223.203941 
L 78.715846 223.203941 
L 78.715846 212.092853 
L 80.38691 212.092853 
L 80.38691 203.627263 
L 82.057974 203.627263 
L 82.057974 197.54262 
L 83.729039 197.54262 
L 83.729039 196.219871 
L 85.400103 196.219871 
L 85.400103 175.584995 
L 87.071167 175.584995 
L 87.071167 172.410398 
L 88.742231 172.410398 
L 88.742231 168.442153 
L 90.413296 168.442153 
L 90.413296 158.918363 
L 92.08436 158.918363 
L 92.08436 152.569171 
L 93.755424 152.569171 
L 93.755424 143.045381 
L 95.426488 143.045381 
L 95.426488 132.727943 
L 97.097553 132.727943 
L 97.097553 131.669744 
L 98.768617 131.669744 
L 98.768617 117.38406 
L 100.439681 117.38406 
L 100.439681 114.474014 
L 102.110745 114.474014 
L 102.110745 104.156575 
L 103.78181 104.156575 
L 103.78181 94.632786 
L 105.452874 94.632786 
L 105.452874 90.135441 
L 107.123938 90.135441 
L 107.123938 84.844447 
L 108.795002 84.844447 
L 108.795002 86.696295 
L 110.466067 86.696295 
L 110.466067 72.146061 
L 112.137131 72.146061 
L 112.137131 73.997909 
L 113.808195 73.997909 
L 113.808195 61.034974 
L 115.479259 61.034974 
L 115.479259 57.595828 
L 117.150323 57.595828 
L 117.150323 61.299524 
L 118.821388 61.299524 
L 118.821388 71.087862 
L 120.492452 71.087862 
L 120.492452 36.696401 
L 122.163516 36.696401 
L 122.163516 42.516495 
L 123.834581 42.516495 
L 123.834581 47.542939 
L 125.505645 47.542939 
L 125.505645 32.992705 
L 127.176709 32.992705 
L 127.176709 39.341898 
L 128.847773 39.341898 
L 128.847773 47.542939 
L 130.518838 47.542939 
L 130.518838 51.246635 
L 132.189902 51.246635 
L 132.189902 40.929196 
L 133.860966 40.929196 
L 133.860966 45.426541 
L 135.53203 45.426541 
L 135.53203 61.034974 
L 137.203095 61.034974 
L 137.203095 63.151371 
L 138.874159 63.151371 
L 138.874159 59.447676 
L 140.545223 59.447676 
L 140.545223 75.056108 
L 142.216287 75.056108 
L 142.216287 60.770424 
L 143.887352 60.770424 
L 143.887352 59.447676 
L 145.558416 59.447676 
L 145.558416 68.442365 
L 147.22948 68.442365 
L 147.22948 70.558763 
L 148.900544 70.558763 
L 148.900544 76.907956 
L 150.571609 76.907956 
L 150.571609 72.410611 
L 152.242673 72.410611 
L 152.242673 84.315348 
L 153.913737 84.315348 
L 153.913737 78.230704 
L 155.584801 78.230704 
L 155.584801 77.172506 
L 157.255866 77.172506 
L 157.255866 89.870891 
L 158.92693 89.870891 
L 158.92693 77.966155 
L 160.597994 77.966155 
L 160.597994 101.246528 
L 162.269058 101.246528 
L 162.269058 68.442365 
L 163.940123 68.442365 
L 163.940123 88.283593 
L 165.611187 88.283593 
L 165.611187 92.516388 
L 167.282251 92.516388 
L 167.282251 93.839137 
L 168.953315 93.839137 
L 168.953315 97.278283 
L 170.62438 97.278283 
L 170.62438 80.611652 
L 172.295444 80.611652 
L 172.295444 104.421125 
L 173.966508 104.421125 
L 173.966508 85.373546 
L 175.637572 85.373546 
L 175.637572 95.426435 
L 177.308637 95.426435 
L 177.308637 86.167195 
L 178.979701 86.167195 
L 178.979701 93.045488 
L 180.650765 93.045488 
L 180.650765 88.019043 
L 182.321829 88.019043 
L 182.321829 90.66454 
L 183.992894 90.66454 
L 183.992894 91.987289 
L 185.663958 91.987289 
L 185.663958 90.399991 
L 187.335022 90.399991 
L 187.335022 95.690985 
L 189.006086 95.690985 
L 189.006086 106.537522 
L 190.677151 106.537522 
L 190.677151 106.802072 
L 192.348215 106.802072 
L 192.348215 121.352306 
L 194.019279 121.352306 
L 194.019279 108.124821 
L 195.690343 108.124821 
L 195.690343 120.294107 
L 197.361408 120.294107 
L 197.361408 126.907849 
L 199.032472 126.907849 
L 199.032472 132.727943 
L 200.703536 132.727943 
L 200.703536 137.489838 
L 202.3746 137.489838 
L 202.3746 152.304621 
L 204.045665 152.304621 
L 204.045665 164.473907 
L 205.716729 164.473907 
L 205.716729 172.145848 
L 207.387793 172.145848 
L 207.387793 168.442153 
L 209.058857 168.442153 
L 209.058857 182.463287 
L 210.729922 182.463287 
L 210.729922 188.28338 
L 212.400986 188.28338 
L 212.400986 198.071719 
L 214.07205 198.071719 
L 214.07205 203.891813 
L 215.743114 203.891813 
L 215.743114 213.944701 
L 217.414179 213.944701 
L 217.414179 216.590198 
L 219.085243 216.590198 
L 219.085243 219.235695 
L 220.756307 219.235695 
L 220.756307 233.256829 
L 224.098435 233.256829 
L 224.098435 239.870572 
L 225.7695 239.870572 
L 225.7695 244.103367 
L 227.440564 244.103367 
L 227.440564 243.045168 
L 229.111628 243.045168 
L 229.111628 237.754174 
L 230.782693 237.754174 
L 230.782693 232.198631 
L 232.453757 232.198631 
L 232.453757 227.965835 
L 234.124821 227.965835 
L 234.124821 221.352093 
L 235.795885 221.352093 
L 235.795885 216.854748 
L 237.466949 216.854748 
L 237.466949 208.124608 
L 239.138014 208.124608 
L 239.138014 205.214561 
L 240.809078 205.214561 
L 240.809078 196.748971 
L 242.480142 196.748971 
L 242.480142 193.838924 
L 244.151207 193.838924 
L 244.151207 186.960632 
L 245.822271 186.960632 
L 245.822271 180.611439 
L 247.493335 180.611439 
L 247.493335 170.8231 
L 249.164399 170.8231 
L 249.164399 172.939498 
L 250.835464 172.939498 
L 250.835464 167.383954 
L 252.506528 167.383954 
L 252.506528 158.653814 
L 254.177592 158.653814 
L 254.177592 143.309931 
L 255.848656 143.309931 
L 255.848656 155.214668 
L 257.51972 155.214668 
L 257.51972 146.219978 
L 259.190785 146.219978 
L 259.190785 153.627369 
L 260.861849 153.627369 
L 260.861849 136.696188 
L 262.532913 136.696188 
L 262.532913 151.510972 
L 264.203978 151.510972 
L 264.203978 139.606235 
L 265.875042 139.606235 
L 265.875042 140.664434 
L 267.546106 140.664434 
L 267.546106 125.320551 
L 269.21717 125.320551 
L 269.21717 124.262352 
L 270.888234 124.262352 
L 270.888234 127.436949 
L 272.559299 127.436949 
L 272.559299 120.294107 
L 274.230363 120.294107 
L 274.230363 108.91847 
L 275.901427 108.91847 
L 275.901427 110.505768 
L 277.572492 110.505768 
L 277.572492 119.500458 
L 279.243556 119.500458 
L 279.243556 109.712119 
L 280.91462 109.712119 
L 280.91462 107.860271 
L 282.585684 107.860271 
L 282.585684 113.680364 
L 284.256749 113.680364 
L 284.256749 109.712119 
L 285.927813 109.712119 
L 285.927813 105.743873 
L 287.598877 105.743873 
L 287.598877 107.860271 
L 289.269941 107.860271 
L 289.269941 118.442259 
L 290.941006 118.442259 
L 290.941006 126.37875 
L 292.61207 126.37875 
L 292.61207 123.733253 
L 294.283134 123.733253 
L 294.283134 121.087756 
L 295.954198 121.087756 
L 295.954198 126.907849 
L 297.625263 126.907849 
L 297.625263 133.786142 
L 299.296327 133.786142 
L 299.296327 140.135335 
L 300.967391 140.135335 
L 300.967391 131.669744 
L 302.638455 131.669744 
L 302.638455 131.405194 
L 304.309519 131.405194 
L 304.309519 140.399884 
L 305.980584 140.399884 
L 305.980584 133.786142 
L 307.651648 133.786142 
L 307.651648 140.664434 
L 309.322712 140.664434 
L 309.322712 141.458083 
L 310.993777 141.458083 
L 310.993777 132.727943 
L 312.664841 132.727943 
L 312.664841 139.077136 
L 314.335905 139.077136 
L 314.335905 145.955428 
L 316.006969 145.955428 
L 316.006969 150.717323 
L 317.678033 150.717323 
L 317.678033 138.548036 
L 319.349098 138.548036 
L 319.349098 149.659124 
L 321.020162 149.659124 
L 321.020162 156.008317 
L 322.691226 156.008317 
L 322.691226 146.484527 
L 324.362291 146.484527 
L 324.362291 155.214668 
L 327.704419 155.214668 
L 327.704419 152.569171 
L 329.375483 152.569171 
L 329.375483 164.473907 
L 331.046547 164.473907 
L 331.046547 167.648504 
L 334.388676 167.648504 
L 334.388676 170.294001 
L 336.05974 170.294001 
L 336.05974 174.262246 
L 337.730805 174.262246 
L 337.730805 159.712012 
L 339.401869 159.712012 
L 339.401869 175.584995 
L 341.072933 175.584995 
L 341.072933 170.029451 
L 342.743997 170.029451 
L 342.743997 176.378644 
L 344.415062 176.378644 
L 344.415062 183.256936 
L 346.086126 183.256936 
L 346.086126 184.050585 
L 347.75719 184.050585 
L 347.75719 191.193427 
L 349.428254 191.193427 
L 349.428254 185.108784 
L 351.099318 185.108784 
L 351.099318 194.368023 
L 352.770383 194.368023 
L 352.770383 195.426222 
L 354.441447 195.426222 
L 354.441447 199.923567 
L 356.112511 199.923567 
L 356.112511 197.54262 
L 357.783576 197.54262 
L 357.783576 202.304514 
L 359.45464 202.304514 
L 359.45464 207.860058 
L 361.125704 207.860058 
L 361.125704 214.73835 
L 362.796768 214.73835 
L 362.796768 212.092853 
L 364.467832 212.092853 
L 364.467832 223.73304 
L 366.138897 223.73304 
L 366.138897 219.500245 
L 367.809961 219.500245 
L 367.809961 226.378537 
L 369.481025 226.378537 
L 369.481025 228.230385 
L 371.15209 228.230385 
L 371.15209 231.404982 
L 372.823154 231.404982 
L 372.823154 231.669531 
L 374.494218 231.669531 
L 374.494218 235.108677 
L 376.165282 235.108677 
L 376.165282 236.431426 
L 377.836346 236.431426 
L 377.836346 240.135122 
L 379.507411 240.135122 
L 379.507411 242.780619 
L 381.178475 242.780619 
L 381.178475 240.399671 
L 382.849539 240.399671 
L 382.849539 243.838818 
L 386.191668 243.838818 
L 386.191668 246.219765 
L 389.533796 246.219765 
L 389.533796 246.484315 
L 397.889117 246.484315 
L 397.889117 246.484315 
" clip-path="url(#p9b52a9b8af)" style="fill: none; stroke: #1f77b4; stroke-width: 1.5; stroke-linecap: square"/>
   </g>
   <g id="line2d_19">
    <path d="M 63.676268 246.484315 
L 72.031589 246.484315 
L 72.031589 243.309718 
L 73.702653 243.309718 
L 73.702653 233.785929 
L 75.373717 233.785929 
L 75.373717 226.113988 
L 77.044782 226.113988 
L 77.044782 224.26214 
L 78.715846 224.26214 
L 78.715846 212.621953 
L 80.38691 212.621953 
L 80.38691 201.775415 
L 82.057974 201.775415 
L 82.057974 196.748971 
L 83.729039 196.748971 
L 83.729039 197.27807 
L 85.400103 197.27807 
L 85.400103 176.114094 
L 87.071167 176.114094 
L 87.071167 172.674948 
L 88.742231 172.674948 
L 88.742231 168.971252 
L 90.413296 168.971252 
L 90.413296 154.421018 
L 92.08436 154.421018 
L 92.08436 152.304621 
L 93.755424 152.304621 
L 93.755424 147.013627 
L 95.426488 147.013627 
L 95.426488 135.10889 
L 97.097553 135.10889 
L 97.097553 127.436949 
L 98.768617 127.436949 
L 98.768617 119.500458 
L 100.439681 119.500458 
L 100.439681 108.65392 
L 102.110745 108.65392 
L 102.110745 117.38406 
L 103.78181 117.38406 
L 103.78181 96.749184 
L 105.452874 96.749184 
L 105.452874 82.728049 
L 107.123938 82.728049 
L 107.123938 81.140751 
L 108.795002 81.140751 
L 108.795002 87.225394 
L 110.466067 87.225394 
L 110.466067 76.907956 
L 112.137131 76.907956 
L 112.137131 68.971465 
L 113.808195 68.971465 
L 113.808195 64.73867 
L 115.479259 64.73867 
L 115.479259 51.246635 
L 117.150323 51.246635 
L 117.150323 68.177816 
L 118.821388 68.177816 
L 118.821388 62.357722 
L 120.492452 62.357722 
L 120.492452 46.74929 
L 122.163516 46.74929 
L 122.163516 39.341898 
L 123.834581 39.341898 
L 123.834581 51.511185 
L 125.505645 51.511185 
L 125.505645 32.992705 
L 127.176709 32.992705 
L 127.176709 39.341898 
L 128.847773 39.341898 
L 128.847773 44.368343 
L 130.518838 44.368343 
L 130.518838 43.045594 
L 133.860966 43.045594 
L 133.860966 52.304834 
L 135.53203 52.304834 
L 135.53203 56.802179 
L 137.203095 56.802179 
L 137.203095 60.505874 
L 138.874159 60.505874 
L 138.874159 71.616962 
L 140.545223 71.616962 
L 140.545223 56.537629 
L 142.216287 56.537629 
L 142.216287 63.415921 
L 143.887352 63.415921 
L 143.887352 73.46881 
L 145.558416 73.46881 
L 145.558416 65.267769 
L 147.22948 65.267769 
L 147.22948 67.648716 
L 148.900544 67.648716 
L 148.900544 79.288903 
L 150.571609 79.288903 
L 150.571609 79.818003 
L 152.242673 79.818003 
L 152.242673 77.701605 
L 153.913737 77.701605 
L 153.913737 72.675161 
L 155.584801 72.675161 
L 155.584801 77.966155 
L 157.255866 77.966155 
L 157.255866 90.135441 
L 158.92693 90.135441 
L 158.92693 78.230704 
L 160.597994 78.230704 
L 160.597994 96.484634 
L 162.269058 96.484634 
L 162.269058 82.728049 
L 163.940123 82.728049 
L 163.940123 81.405301 
L 165.611187 81.405301 
L 165.611187 97.013733 
L 167.282251 97.013733 
L 167.282251 96.220084 
L 168.953315 96.220084 
L 168.953315 87.225394 
L 170.62438 87.225394 
L 170.62438 81.405301 
L 172.295444 81.405301 
L 172.295444 95.955534 
L 173.966508 95.955534 
L 173.966508 94.632786 
L 175.637572 94.632786 
L 175.637572 94.103686 
L 177.308637 94.103686 
L 177.308637 92.780938 
L 178.979701 92.780938 
L 178.979701 86.960845 
L 180.650765 86.960845 
L 180.650765 88.812692 
L 182.321829 88.812692 
L 182.321829 89.606342 
L 183.992894 89.606342 
L 183.992894 94.632786 
L 185.663958 94.632786 
L 185.663958 90.399991 
L 187.335022 90.399991 
L 187.335022 90.92909 
L 189.006086 90.92909 
L 189.006086 111.299417 
L 190.677151 111.299417 
L 190.677151 104.950224 
L 192.348215 104.950224 
L 192.348215 121.352306 
L 194.019279 121.352306 
L 194.019279 112.622166 
L 195.690343 112.622166 
L 195.690343 116.061312 
L 197.361408 116.061312 
L 197.361408 125.849651 
L 199.032472 125.849651 
L 199.032472 134.315241 
L 200.703536 134.315241 
L 200.703536 135.902539 
L 202.3746 135.902539 
L 202.3746 155.214668 
L 204.045665 155.214668 
L 204.045665 166.325755 
L 205.716729 166.325755 
L 205.716729 169.500351 
L 207.387793 169.500351 
L 207.387793 170.55855 
L 209.058857 170.55855 
L 209.058857 177.701392 
L 210.729922 177.701392 
L 210.729922 189.870678 
L 212.400986 189.870678 
L 212.400986 198.600819 
L 214.07205 198.600819 
L 214.07205 204.420912 
L 215.743114 204.420912 
L 215.743114 213.944701 
L 217.414179 213.944701 
L 217.414179 216.590198 
L 219.085243 216.590198 
L 219.085243 219.500245 
L 220.756307 219.500245 
L 220.756307 232.72773 
L 222.427371 232.72773 
L 222.427371 233.785929 
L 224.098435 233.785929 
L 224.098435 239.341473 
L 225.7695 239.341473 
L 225.7695 243.838818 
L 227.440564 243.838818 
L 227.440564 242.516069 
L 229.111628 242.516069 
L 229.111628 238.018724 
L 230.782693 238.018724 
L 230.782693 231.934081 
L 232.453757 231.934081 
L 232.453757 228.759485 
L 234.124821 228.759485 
L 234.124821 218.971146 
L 235.795885 218.971146 
L 235.795885 217.648397 
L 237.466949 217.648397 
L 237.466949 209.711906 
L 239.138014 209.711906 
L 239.138014 203.891813 
L 240.809078 203.891813 
L 240.809078 195.955322 
L 242.480142 195.955322 
L 242.480142 195.161672 
L 244.151207 195.161672 
L 244.151207 185.373334 
L 245.822271 185.373334 
L 245.822271 182.727836 
L 247.493335 182.727836 
L 247.493335 171.08765 
L 249.164399 171.08765 
L 249.164399 172.674948 
L 250.835464 172.674948 
L 250.835464 165.267556 
L 252.506528 165.267556 
L 252.506528 158.389264 
L 254.177592 158.389264 
L 254.177592 146.219978 
L 255.848656 146.219978 
L 255.848656 155.743767 
L 257.51972 155.743767 
L 257.51972 146.484527 
L 259.190785 146.484527 
L 259.190785 152.569171 
L 260.861849 152.569171 
L 260.861849 140.928984 
L 262.532913 140.928984 
L 262.532913 147.807276 
L 264.203978 147.807276 
L 264.203978 142.780832 
L 265.875042 142.780832 
L 265.875042 135.63799 
L 267.546106 135.63799 
L 267.546106 126.37875 
L 269.21717 126.37875 
L 269.21717 126.907849 
L 270.888234 126.907849 
L 270.888234 123.204154 
L 272.559299 123.204154 
L 272.559299 120.029557 
L 274.230363 120.029557 
L 274.230363 113.415815 
L 275.901427 113.415815 
L 275.901427 112.622166 
L 277.572492 112.622166 
L 277.572492 111.299417 
L 279.243556 111.299417 
L 279.243556 121.352306 
L 280.91462 121.352306 
L 280.91462 100.18833 
L 282.585684 100.18833 
L 282.585684 110.241218 
L 284.256749 110.241218 
L 284.256749 117.38406 
L 285.927813 117.38406 
L 285.927813 103.892025 
L 287.598877 103.892025 
L 287.598877 105.214774 
L 289.269941 105.214774 
L 289.269941 116.590411 
L 290.941006 116.590411 
L 290.941006 121.616855 
L 292.61207 121.616855 
L 292.61207 121.881405 
L 294.283134 121.881405 
L 294.283134 129.553346 
L 295.954198 129.553346 
L 295.954198 129.024247 
L 297.625263 129.024247 
L 297.625263 138.283487 
L 299.296327 138.283487 
L 299.296327 139.870785 
L 300.967391 139.870785 
L 300.967391 128.759697 
L 304.309519 128.759697 
L 304.309519 136.960738 
L 305.980584 136.960738 
L 305.980584 136.696188 
L 307.651648 136.696188 
L 307.651648 141.987182 
L 309.322712 141.987182 
L 309.322712 136.167089 
L 310.993777 136.167089 
L 310.993777 139.870785 
L 312.664841 139.870785 
L 312.664841 138.812586 
L 314.335905 138.812586 
L 314.335905 145.955428 
L 316.006969 145.955428 
L 316.006969 149.130024 
L 317.678033 149.130024 
L 317.678033 139.077136 
L 319.349098 139.077136 
L 319.349098 148.865475 
L 321.020162 148.865475 
L 321.020162 150.452773 
L 322.691226 150.452773 
L 322.691226 149.659124 
L 324.362291 149.659124 
L 324.362291 155.479217 
L 326.033355 155.479217 
L 326.033355 154.156469 
L 327.704419 154.156469 
L 327.704419 158.124714 
L 329.375483 158.124714 
L 329.375483 161.034761 
L 331.046547 161.034761 
L 331.046547 169.235802 
L 332.717612 169.235802 
L 332.717612 171.616749 
L 334.388676 171.616749 
L 334.388676 161.56386 
L 336.05974 161.56386 
L 336.05974 174.791345 
L 337.730805 174.791345 
L 337.730805 165.003006 
L 339.401869 165.003006 
L 339.401869 167.913053 
L 341.072933 167.913053 
L 341.072933 173.468597 
L 342.743997 173.468597 
L 342.743997 176.114094 
L 344.415062 176.114094 
L 344.415062 183.786035 
L 346.086126 183.786035 
L 346.086126 186.696082 
L 347.75719 186.696082 
L 347.75719 185.108784 
L 349.428254 185.108784 
L 349.428254 189.606129 
L 351.099318 189.606129 
L 351.099318 190.664328 
L 352.770383 190.664328 
L 352.770383 199.923567 
L 354.441447 199.923567 
L 354.441447 198.600819 
L 356.112511 198.600819 
L 356.112511 194.632573 
L 357.783576 194.632573 
L 357.783576 208.653707 
L 359.45464 208.653707 
L 359.45464 206.801859 
L 361.125704 206.801859 
L 361.125704 212.621953 
L 362.796768 212.621953 
L 362.796768 216.854748 
L 364.467832 216.854748 
L 364.467832 217.648397 
L 366.138897 217.648397 
L 366.138897 220.293894 
L 367.809961 220.293894 
L 367.809961 226.907637 
L 369.481025 226.907637 
L 369.481025 227.172186 
L 371.15209 227.172186 
L 371.15209 234.315028 
L 372.823154 234.315028 
L 372.823154 230.875882 
L 374.494218 230.875882 
L 374.494218 234.844128 
L 376.165282 234.844128 
L 376.165282 235.108677 
L 377.836346 235.108677 
L 377.836346 241.45787 
L 379.507411 241.45787 
L 379.507411 241.72242 
L 381.178475 241.72242 
L 381.178475 240.928771 
L 382.849539 240.928771 
L 382.849539 243.309718 
L 384.520603 243.309718 
L 384.520603 244.367917 
L 386.191668 244.367917 
L 386.191668 245.690665 
L 387.862732 245.690665 
L 387.862732 246.484315 
L 389.533796 246.484315 
L 389.533796 245.690665 
L 391.204861 245.690665 
L 391.204861 246.484315 
L 397.889117 246.484315 
L 397.889117 246.484315 
" clip-path="url(#p9b52a9b8af)" style="fill: none; stroke: #ff7f0e; stroke-width: 1.5; stroke-linecap: square"/>
   </g>
   <g id="patch_3">
    <path d="M 46.965625 257.158895 
L 46.965625 22.318125 
" style="fill: none; stroke: #000000; stroke-width: 0.8; stroke-linejoin: miter; stroke-linecap: square"/>
   </g>
   <g id="patch_4">
    <path d="M 414.59976 257.158895 
L 414.59976 22.318125 
" style="fill: none; stroke: #000000; stroke-width: 0.8; stroke-linejoin: miter; stroke-linecap: square"/>
   </g>
   <g id="patch_5">
    <path d="M 46.965625 257.158895 
L 414.59976 257.158895 
" style="fill: none; stroke: #000000; stroke-width: 0.8; stroke-linejoin: miter; stroke-linecap: square"/>
   </g>
   <g id="patch_6">
    <path d="M 46.965625 22.318125 
L 414.59976 22.318125 
" style="fill: none; stroke: #000000; stroke-width: 0.8; stroke-linejoin: miter; stroke-linecap: square"/>
   </g>
   <g id="text_20">
    <!-- Pixel 1 -->
    <g transform="translate(211.18613 16.318125) scale(0.12 -0.12)">
     <defs>
      <path id="DejaVuSans-50" d="M 1259 4147 
L 1259 2394 
L 2053 2394 
Q 2494 2394 2734 2622 
Q 2975 2850 2975 3272 
Q 2975 3691 2734 3919 
Q 2494 4147 2053 4147 
L 1259 4147 
z
M 628 4666 
L 2053 4666 
Q 2838 4666 3239 4311 
Q 3641 3956 3641 3272 
Q 3641 2581 3239 2228 
Q 2838 1875 2053 1875 
L 1259 1875 
L 1259 0 
L 628 0 
L 628 4666 
z
" transform="scale(0.015625)"/>
      <path id="DejaVuSans-69" d="M 603 3500 
L 1178 3500 
L 1178 0 
L 603 0 
L 603 3500 
z
M 603 4863 
L 1178 4863 
L 1178 4134 
L 603 4134 
L 603 4863 
z
" transform="scale(0.015625)"/>
      <path id="DejaVuSans-78" d="M 3513 3500 
L 2247 1797 
L 3578 0 
L 2900 0 
L 1881 1375 
L 863 0 
L 184 0 
L 1544 1831 
L 300 3500 
L 978 3500 
L 1906 2253 
L 2834 3500 
L 3513 3500 
z
" transform="scale(0.015625)"/>
     </defs>
     <use xlink:href="#DejaVuSans-50"/>
     <use xlink:href="#DejaVuSans-69" transform="translate(58.052734 0)"/>
     <use xlink:href="#DejaVuSans-78" transform="translate(85.835938 0)"/>
     <use xlink:href="#DejaVuSans-65" transform="translate(141.890625 0)"/>
     <use xlink:href="#DejaVuSans-6c" transform="translate(203.414062 0)"/>
     <use xlink:href="#DejaVuSans-20" transform="translate(231.197266 0)"/>
     <use xlink:href="#DejaVuSans-31" transform="translate(262.984375 0)"/>
    </g>
   </g>
   <g id="legend_1">
    <g id="patch_7">
     <path d="M 310.596635 59.9525 
L 407.59976 59.9525 
Q 409.59976 59.9525 409.59976 57.9525 
L 409.59976 29.318125 
Q 409.59976 27.318125 407.59976 27.318125 
L 310.596635 27.318125 
Q 308.596635 27.318125 308.596635 29.318125 
L 308.596635 57.9525 
Q 308.596635 59.9525 310.596635 59.9525 
z
" style="fill: #ffffff; opacity: 0.8; stroke: #cccccc; stroke-linejoin: miter"/>
    </g>
    <g id="line2d_20">
     <path d="M 312.596635 35.416562 
L 312.596635 35.416562 
L 322.596635 35.416562 
L 322.596635 35.416562 
L 332.596635 35.416562 
" style="fill: none; stroke: #1f77b4; stroke-width: 1.5; stroke-linecap: square"/>
    </g>
    <g id="text_21">
     <!-- wfm -->
     <g transform="translate(340.596635 38.916562) scale(0.1 -0.1)">
      <defs>
       <path id="DejaVuSans-66" d="M 2375 4863 
L 2375 4384 
L 1825 4384 
Q 1516 4384 1395 4259 
Q 1275 4134 1275 3809 
L 1275 3500 
L 2222 3500 
L 2222 3053 
L 1275 3053 
L 1275 0 
L 697 0 
L 697 3053 
L 147 3053 
L 147 3500 
L 697 3500 
L 697 3744 
Q 697 4328 969 4595 
Q 1241 4863 1831 4863 
L 2375 4863 
z
" transform="scale(0.015625)"/>
       <path id="DejaVuSans-6d" d="M 3328 2828 
Q 3544 3216 3844 3400 
Q 4144 3584 4550 3584 
Q 5097 3584 5394 3201 
Q 5691 2819 5691 2113 
L 5691 0 
L 5113 0 
L 5113 2094 
Q 5113 2597 4934 2840 
Q 4756 3084 4391 3084 
Q 3944 3084 3684 2787 
Q 3425 2491 3425 1978 
L 3425 0 
L 2847 0 
L 2847 2094 
Q 2847 2600 2669 2842 
Q 2491 3084 2119 3084 
Q 1678 3084 1418 2786 
Q 1159 2488 1159 1978 
L 1159 0 
L 581 0 
L 581 3500 
L 1159 3500 
L 1159 2956 
Q 1356 3278 1631 3431 
Q 1906 3584 2284 3584 
Q 2666 3584 2933 3390 
Q 3200 3197 3328 2828 
z
" transform="scale(0.015625)"/>
      </defs>
      <use xlink:href="#DejaVuSans-77"/>
      <use xlink:href="#DejaVuSans-66" transform="translate(81.787109 0)"/>
      <use xlink:href="#DejaVuSans-6d" transform="translate(116.992188 0)"/>
     </g>
    </g>
    <g id="line2d_21">
     <path d="M 312.596635 50.094687 
L 312.596635 50.094687 
L 322.596635 50.094687 
L 322.596635 50.094687 
L 332.596635 50.094687 
" style="fill: none; stroke: #ff7f0e; stroke-width: 1.5; stroke-linecap: square"/>
    </g>
    <g id="text_22">
     <!-- ground_truth -->
     <g transform="translate(340.596635 53.594687) scale(0.1 -0.1)">
      <defs>
       <path id="DejaVuSans-72" d="M 2631 2963 
Q 2534 3019 2420 3045 
Q 2306 3072 2169 3072 
Q 1681 3072 1420 2755 
Q 1159 2438 1159 1844 
L 1159 0 
L 581 0 
L 581 3500 
L 1159 3500 
L 1159 2956 
Q 1341 3275 1631 3429 
Q 1922 3584 2338 3584 
Q 2397 3584 2469 3576 
Q 2541 3569 2628 3553 
L 2631 2963 
z
" transform="scale(0.015625)"/>
       <path id="DejaVuSans-64" d="M 2906 2969 
L 2906 4863 
L 3481 4863 
L 3481 0 
L 2906 0 
L 2906 525 
Q 2725 213 2448 61 
Q 2172 -91 1784 -91 
Q 1150 -91 751 415 
Q 353 922 353 1747 
Q 353 2572 751 3078 
Q 1150 3584 1784 3584 
Q 2172 3584 2448 3432 
Q 2725 3281 2906 2969 
z
M 947 1747 
Q 947 1113 1208 752 
Q 1469 391 1925 391 
Q 2381 391 2643 752 
Q 2906 1113 2906 1747 
Q 2906 2381 2643 2742 
Q 2381 3103 1925 3103 
Q 1469 3103 1208 2742 
Q 947 2381 947 1747 
z
" transform="scale(0.015625)"/>
       <path id="DejaVuSans-5f" d="M 3263 -1063 
L 3263 -1509 
L -63 -1509 
L -63 -1063 
L 3263 -1063 
z
" transform="scale(0.015625)"/>
      </defs>
      <use xlink:href="#DejaVuSans-67"/>
      <use xlink:href="#DejaVuSans-72" transform="translate(63.476562 0)"/>
      <use xlink:href="#DejaVuSans-6f" transform="translate(102.339844 0)"/>
      <use xlink:href="#DejaVuSans-75" transform="translate(163.521484 0)"/>
      <use xlink:href="#DejaVuSans-6e" transform="translate(226.900391 0)"/>
      <use xlink:href="#DejaVuSans-64" transform="translate(290.279297 0)"/>
      <use xlink:href="#DejaVuSans-5f" transform="translate(353.755859 0)"/>
      <use xlink:href="#DejaVuSans-74" transform="translate(403.755859 0)"/>
      <use xlink:href="#DejaVuSans-72" transform="translate(442.964844 0)"/>
      <use xlink:href="#DejaVuSans-75" transform="translate(484.078125 0)"/>
      <use xlink:href="#DejaVuSans-74" transform="translate(547.457031 0)"/>
      <use xlink:href="#DejaVuSans-68" transform="translate(586.666016 0)"/>
     </g>
    </g>
   </g>
  </g>
  <g id="axes_2">
   <g id="patch_8">
    <path d="M 497.565385 257.158895 
L 865.19952 257.158895 
L 865.19952 22.318125 
L 497.565385 22.318125 
z
" style="fill: #ffffff"/>
   </g>
   <g id="matplotlib.axis_3">
    <g id="xtick_9">
     <g id="line2d_22">
      <g>
       <use xlink:href="#m2b0eecfa2e" x="531.866178" y="257.158895" style="stroke: #000000; stroke-width: 0.8"/>
      </g>
     </g>
     <g id="text_23">
      <!-- 1.0 -->
      <g transform="translate(523.914615 271.757332) scale(0.1 -0.1)">
       <use xlink:href="#DejaVuSans-31"/>
       <use xlink:href="#DejaVuSans-2e" transform="translate(63.623047 0)"/>
       <use xlink:href="#DejaVuSans-30" transform="translate(95.410156 0)"/>
      </g>
     </g>
    </g>
    <g id="xtick_10">
     <g id="line2d_23">
      <g>
       <use xlink:href="#m2b0eecfa2e" x="575.841553" y="257.158895" style="stroke: #000000; stroke-width: 0.8"/>
      </g>
     </g>
     <g id="text_24">
      <!-- 1.5 -->
      <g transform="translate(567.88999 271.757332) scale(0.1 -0.1)">
       <use xlink:href="#DejaVuSans-31"/>
       <use xlink:href="#DejaVuSans-2e" transform="translate(63.623047 0)"/>
       <use xlink:href="#DejaVuSans-35" transform="translate(95.410156 0)"/>
      </g>
     </g>
    </g>
    <g id="xtick_11">
     <g id="line2d_24">
      <g>
       <use xlink:href="#m2b0eecfa2e" x="619.816928" y="257.158895" style="stroke: #000000; stroke-width: 0.8"/>
      </g>
     </g>
     <g id="text_25">
      <!-- 2.0 -->
      <g transform="translate(611.865365 271.757332) scale(0.1 -0.1)">
       <use xlink:href="#DejaVuSans-32"/>
       <use xlink:href="#DejaVuSans-2e" transform="translate(63.623047 0)"/>
       <use xlink:href="#DejaVuSans-30" transform="translate(95.410156 0)"/>
      </g>
     </g>
    </g>
    <g id="xtick_12">
     <g id="line2d_25">
      <g>
       <use xlink:href="#m2b0eecfa2e" x="663.792303" y="257.158895" style="stroke: #000000; stroke-width: 0.8"/>
      </g>
     </g>
     <g id="text_26">
      <!-- 2.5 -->
      <g transform="translate(655.84074 271.757332) scale(0.1 -0.1)">
       <use xlink:href="#DejaVuSans-32"/>
       <use xlink:href="#DejaVuSans-2e" transform="translate(63.623047 0)"/>
       <use xlink:href="#DejaVuSans-35" transform="translate(95.410156 0)"/>
      </g>
     </g>
    </g>
    <g id="xtick_13">
     <g id="line2d_26">
      <g>
       <use xlink:href="#m2b0eecfa2e" x="707.767677" y="257.158895" style="stroke: #000000; stroke-width: 0.8"/>
      </g>
     </g>
     <g id="text_27">
      <!-- 3.0 -->
      <g transform="translate(699.816115 271.757332) scale(0.1 -0.1)">
       <use xlink:href="#DejaVuSans-33"/>
       <use xlink:href="#DejaVuSans-2e" transform="translate(63.623047 0)"/>
       <use xlink:href="#DejaVuSans-30" transform="translate(95.410156 0)"/>
      </g>
     </g>
    </g>
    <g id="xtick_14">
     <g id="line2d_27">
      <g>
       <use xlink:href="#m2b0eecfa2e" x="751.743052" y="257.158895" style="stroke: #000000; stroke-width: 0.8"/>
      </g>
     </g>
     <g id="text_28">
      <!-- 3.5 -->
      <g transform="translate(743.79149 271.757332) scale(0.1 -0.1)">
       <use xlink:href="#DejaVuSans-33"/>
       <use xlink:href="#DejaVuSans-2e" transform="translate(63.623047 0)"/>
       <use xlink:href="#DejaVuSans-35" transform="translate(95.410156 0)"/>
      </g>
     </g>
    </g>
    <g id="xtick_15">
     <g id="line2d_28">
      <g>
       <use xlink:href="#m2b0eecfa2e" x="795.718427" y="257.158895" style="stroke: #000000; stroke-width: 0.8"/>
      </g>
     </g>
     <g id="text_29">
      <!-- 4.0 -->
      <g transform="translate(787.766865 271.757332) scale(0.1 -0.1)">
       <use xlink:href="#DejaVuSans-34"/>
       <use xlink:href="#DejaVuSans-2e" transform="translate(63.623047 0)"/>
       <use xlink:href="#DejaVuSans-30" transform="translate(95.410156 0)"/>
      </g>
     </g>
    </g>
    <g id="xtick_16">
     <g id="line2d_29">
      <g>
       <use xlink:href="#m2b0eecfa2e" x="839.693802" y="257.158895" style="stroke: #000000; stroke-width: 0.8"/>
      </g>
     </g>
     <g id="text_30">
      <!-- 4.5 -->
      <g transform="translate(831.74224 271.757332) scale(0.1 -0.1)">
       <use xlink:href="#DejaVuSans-34"/>
       <use xlink:href="#DejaVuSans-2e" transform="translate(63.623047 0)"/>
       <use xlink:href="#DejaVuSans-35" transform="translate(95.410156 0)"/>
      </g>
     </g>
    </g>
    <g id="text_31">
     <!-- wavelength [Å] -->
     <g transform="translate(643.344952 287.119832) scale(0.1 -0.1)">
      <use xlink:href="#DejaVuSans-77"/>
      <use xlink:href="#DejaVuSans-61" transform="translate(81.787109 0)"/>
      <use xlink:href="#DejaVuSans-76" transform="translate(143.066406 0)"/>
      <use xlink:href="#DejaVuSans-65" transform="translate(202.246094 0)"/>
      <use xlink:href="#DejaVuSans-6c" transform="translate(263.769531 0)"/>
      <use xlink:href="#DejaVuSans-65" transform="translate(291.552734 0)"/>
      <use xlink:href="#DejaVuSans-6e" transform="translate(353.076172 0)"/>
      <use xlink:href="#DejaVuSans-67" transform="translate(416.455078 0)"/>
      <use xlink:href="#DejaVuSans-74" transform="translate(479.931641 0)"/>
      <use xlink:href="#DejaVuSans-68" transform="translate(519.140625 0)"/>
      <use xlink:href="#DejaVuSans-20" transform="translate(582.519531 0)"/>
      <use xlink:href="#DejaVuSans-5b" transform="translate(614.306641 0)"/>
      <use xlink:href="#DejaVuSans-c5" transform="translate(653.320312 0)"/>
      <use xlink:href="#DejaVuSans-5d" transform="translate(721.728516 0)"/>
     </g>
    </g>
   </g>
   <g id="matplotlib.axis_4">
    <g id="ytick_10">
     <g id="line2d_30">
      <g>
       <use xlink:href="#m3505ba2a61" x="497.565385" y="246.484315" style="stroke: #000000; stroke-width: 0.8"/>
      </g>
     </g>
     <g id="text_32">
      <!-- 0 -->
      <g transform="translate(484.202885 250.283533) scale(0.1 -0.1)">
       <use xlink:href="#DejaVuSans-30"/>
      </g>
     </g>
    </g>
    <g id="ytick_11">
     <g id="line2d_31">
      <g>
       <use xlink:href="#m3505ba2a61" x="497.565385" y="220.029344" style="stroke: #000000; stroke-width: 0.8"/>
      </g>
     </g>
     <g id="text_33">
      <!-- 100 -->
      <g transform="translate(471.477885 223.828563) scale(0.1 -0.1)">
       <use xlink:href="#DejaVuSans-31"/>
       <use xlink:href="#DejaVuSans-30" transform="translate(63.623047 0)"/>
       <use xlink:href="#DejaVuSans-30" transform="translate(127.246094 0)"/>
      </g>
     </g>
    </g>
    <g id="ytick_12">
     <g id="line2d_32">
      <g>
       <use xlink:href="#m3505ba2a61" x="497.565385" y="193.574374" style="stroke: #000000; stroke-width: 0.8"/>
      </g>
     </g>
     <g id="text_34">
      <!-- 200 -->
      <g transform="translate(471.477885 197.373593) scale(0.1 -0.1)">
       <use xlink:href="#DejaVuSans-32"/>
       <use xlink:href="#DejaVuSans-30" transform="translate(63.623047 0)"/>
       <use xlink:href="#DejaVuSans-30" transform="translate(127.246094 0)"/>
      </g>
     </g>
    </g>
    <g id="ytick_13">
     <g id="line2d_33">
      <g>
       <use xlink:href="#m3505ba2a61" x="497.565385" y="167.119404" style="stroke: #000000; stroke-width: 0.8"/>
      </g>
     </g>
     <g id="text_35">
      <!-- 300 -->
      <g transform="translate(471.477885 170.918623) scale(0.1 -0.1)">
       <use xlink:href="#DejaVuSans-33"/>
       <use xlink:href="#DejaVuSans-30" transform="translate(63.623047 0)"/>
       <use xlink:href="#DejaVuSans-30" transform="translate(127.246094 0)"/>
      </g>
     </g>
    </g>
    <g id="ytick_14">
     <g id="line2d_34">
      <g>
       <use xlink:href="#m3505ba2a61" x="497.565385" y="140.664434" style="stroke: #000000; stroke-width: 0.8"/>
      </g>
     </g>
     <g id="text_36">
      <!-- 400 -->
      <g transform="translate(471.477885 144.463653) scale(0.1 -0.1)">
       <use xlink:href="#DejaVuSans-34"/>
       <use xlink:href="#DejaVuSans-30" transform="translate(63.623047 0)"/>
       <use xlink:href="#DejaVuSans-30" transform="translate(127.246094 0)"/>
      </g>
     </g>
    </g>
    <g id="ytick_15">
     <g id="line2d_35">
      <g>
       <use xlink:href="#m3505ba2a61" x="497.565385" y="114.209464" style="stroke: #000000; stroke-width: 0.8"/>
      </g>
     </g>
     <g id="text_37">
      <!-- 500 -->
      <g transform="translate(471.477885 118.008683) scale(0.1 -0.1)">
       <use xlink:href="#DejaVuSans-35"/>
       <use xlink:href="#DejaVuSans-30" transform="translate(63.623047 0)"/>
       <use xlink:href="#DejaVuSans-30" transform="translate(127.246094 0)"/>
      </g>
     </g>
    </g>
    <g id="ytick_16">
     <g id="line2d_36">
      <g>
       <use xlink:href="#m3505ba2a61" x="497.565385" y="87.754494" style="stroke: #000000; stroke-width: 0.8"/>
      </g>
     </g>
     <g id="text_38">
      <!-- 600 -->
      <g transform="translate(471.477885 91.553712) scale(0.1 -0.1)">
       <use xlink:href="#DejaVuSans-36"/>
       <use xlink:href="#DejaVuSans-30" transform="translate(63.623047 0)"/>
       <use xlink:href="#DejaVuSans-30" transform="translate(127.246094 0)"/>
      </g>
     </g>
    </g>
    <g id="ytick_17">
     <g id="line2d_37">
      <g>
       <use xlink:href="#m3505ba2a61" x="497.565385" y="61.299524" style="stroke: #000000; stroke-width: 0.8"/>
      </g>
     </g>
     <g id="text_39">
      <!-- 700 -->
      <g transform="translate(471.477885 65.098742) scale(0.1 -0.1)">
       <use xlink:href="#DejaVuSans-37"/>
       <use xlink:href="#DejaVuSans-30" transform="translate(63.623047 0)"/>
       <use xlink:href="#DejaVuSans-30" transform="translate(127.246094 0)"/>
      </g>
     </g>
    </g>
    <g id="ytick_18">
     <g id="line2d_38">
      <g>
       <use xlink:href="#m3505ba2a61" x="497.565385" y="34.844553" style="stroke: #000000; stroke-width: 0.8"/>
      </g>
     </g>
     <g id="text_40">
      <!-- 800 -->
      <g transform="translate(471.477885 38.643772) scale(0.1 -0.1)">
       <use xlink:href="#DejaVuSans-38"/>
       <use xlink:href="#DejaVuSans-30" transform="translate(63.623047 0)"/>
       <use xlink:href="#DejaVuSans-30" transform="translate(127.246094 0)"/>
      </g>
     </g>
    </g>
    <g id="text_41">
     <!-- [counts] -->
     <g transform="translate(465.398198 160.35101) rotate(-90) scale(0.1 -0.1)">
      <use xlink:href="#DejaVuSans-5b"/>
      <use xlink:href="#DejaVuSans-63" transform="translate(39.013672 0)"/>
      <use xlink:href="#DejaVuSans-6f" transform="translate(93.994141 0)"/>
      <use xlink:href="#DejaVuSans-75" transform="translate(155.175781 0)"/>
      <use xlink:href="#DejaVuSans-6e" transform="translate(218.554688 0)"/>
      <use xlink:href="#DejaVuSans-74" transform="translate(281.933594 0)"/>
      <use xlink:href="#DejaVuSans-73" transform="translate(321.142578 0)"/>
      <use xlink:href="#DejaVuSans-5d" transform="translate(373.242188 0)"/>
     </g>
    </g>
   </g>
   <g id="line2d_39">
    <path d="M 514.276028 246.484315 
L 522.631349 246.484315 
L 522.631349 245.690665 
L 524.302413 245.690665 
L 524.302413 232.198631 
L 525.973477 232.198631 
L 525.973477 227.701286 
L 527.644542 227.701286 
L 527.644542 222.939391 
L 529.315606 222.939391 
L 529.315606 211.563754 
L 530.98667 211.563754 
L 530.98667 203.627263 
L 532.657734 203.627263 
L 532.657734 198.071719 
L 534.328799 198.071719 
L 534.328799 196.219871 
L 535.999863 196.219871 
L 535.999863 175.584995 
L 537.670927 175.584995 
L 537.670927 172.939498 
L 539.341991 172.939498 
L 539.341991 167.119404 
L 541.013056 167.119404 
L 541.013056 159.976562 
L 542.68412 159.976562 
L 542.68412 152.040071 
L 544.355184 152.040071 
L 544.355184 143.045381 
L 546.026248 143.045381 
L 546.026248 132.463393 
L 547.697313 132.463393 
L 547.697313 131.934294 
L 549.368377 131.934294 
L 549.368377 117.64861 
L 551.039441 117.64861 
L 551.039441 114.209464 
L 552.710505 114.209464 
L 552.710505 104.685675 
L 554.38157 104.685675 
L 554.38157 93.310037 
L 556.052634 93.310037 
L 556.052634 90.66454 
L 557.723698 90.66454 
L 557.723698 82.728049 
L 559.394762 82.728049 
L 559.394762 92.251839 
L 561.065827 92.251839 
L 561.065827 67.648716 
L 562.736891 67.648716 
L 562.736891 73.997909 
L 564.407955 73.997909 
L 564.407955 66.325968 
L 566.079019 66.325968 
L 566.079019 52.304834 
L 567.750084 52.304834 
L 567.750084 67.384167 
L 569.421148 67.384167 
L 569.421148 67.648716 
L 571.092212 67.648716 
L 571.092212 39.870998 
L 572.763276 39.870998 
L 572.763276 35.373653 
L 574.434341 35.373653 
L 574.434341 50.188436 
L 576.105405 50.188436 
L 576.105405 35.902752 
L 577.776469 35.902752 
L 577.776469 40.135547 
L 579.447533 40.135547 
L 579.447533 50.452986 
L 581.118598 50.452986 
L 581.118598 44.368343 
L 582.789662 44.368343 
L 582.789662 41.193746 
L 584.460726 41.193746 
L 584.460726 47.01384 
L 586.13179 47.01384 
L 586.13179 59.976775 
L 587.802855 59.976775 
L 587.802855 65.532319 
L 589.473919 65.532319 
L 589.473919 57.066728 
L 591.144983 57.066728 
L 591.144983 74.527009 
L 592.816047 74.527009 
L 592.816047 58.389477 
L 594.487112 58.389477 
L 594.487112 62.093173 
L 596.158176 62.093173 
L 596.158176 69.236015 
L 599.500304 69.236015 
L 599.500304 78.230704 
L 601.171369 78.230704 
L 601.171369 71.616962 
L 602.842433 71.616962 
L 602.842433 84.844447 
L 604.513497 84.844447 
L 604.513497 80.082552 
L 606.184561 80.082552 
L 606.184561 73.733359 
L 607.855626 73.733359 
L 607.855626 88.548143 
L 609.52669 88.548143 
L 609.52669 82.992599 
L 611.197754 82.992599 
L 611.197754 97.542833 
L 612.868818 97.542833 
L 612.868818 69.765114 
L 614.539882 69.765114 
L 614.539882 86.167195 
L 616.210947 86.167195 
L 616.210947 97.542833 
L 617.882011 97.542833 
L 617.882011 90.92909 
L 619.553075 90.92909 
L 619.553075 96.749184 
L 621.22414 96.749184 
L 621.22414 79.553453 
L 622.895204 79.553453 
L 622.895204 102.833827 
L 624.566268 102.833827 
L 624.566268 86.696295 
L 626.237332 86.696295 
L 626.237332 98.071932 
L 627.908397 98.071932 
L 627.908397 81.405301 
L 629.579461 81.405301 
L 629.579461 95.426435 
L 631.250525 95.426435 
L 631.250525 90.66454 
L 632.921589 90.66454 
L 632.921589 87.754494 
L 634.592654 87.754494 
L 634.592654 90.66454 
L 636.263718 90.66454 
L 636.263718 92.251839 
L 637.934782 92.251839 
L 637.934782 99.394681 
L 639.605846 99.394681 
L 639.605846 102.304727 
L 641.27691 102.304727 
L 641.27691 108.38937 
L 642.947975 108.38937 
L 642.947975 119.235908 
L 644.619039 119.235908 
L 644.619039 110.505768 
L 646.290103 110.505768 
L 646.290103 124.791452 
L 647.961168 124.791452 
L 647.961168 122.410505 
L 649.632232 122.410505 
L 649.632232 131.934294 
L 651.303296 131.934294 
L 651.303296 137.225288 
L 652.97436 137.225288 
L 652.97436 150.452773 
L 654.645424 150.452773 
L 654.645424 166.590305 
L 656.316489 166.590305 
L 656.316489 172.674948 
L 657.987553 172.674948 
L 657.987553 169.500351 
L 659.658617 169.500351 
L 659.658617 179.55324 
L 661.329682 179.55324 
L 661.329682 191.457977 
L 663.000746 191.457977 
L 663.000746 198.600819 
L 664.67181 198.600819 
L 664.67181 202.039965 
L 666.342874 202.039965 
L 666.342874 213.944701 
L 668.013938 213.944701 
L 668.013938 215.531999 
L 669.685003 215.531999 
L 669.685003 220.822994 
L 671.356067 220.822994 
L 671.356067 232.46318 
L 673.027131 232.46318 
L 673.027131 234.050479 
L 674.698195 234.050479 
L 674.698195 239.606022 
L 676.36926 239.606022 
L 676.36926 243.045168 
L 678.040324 243.045168 
L 678.040324 243.838818 
L 679.711388 243.838818 
L 679.711388 238.812373 
L 681.382452 238.812373 
L 681.382452 231.669531 
L 683.053517 231.669531 
L 683.053517 227.436736 
L 684.724581 227.436736 
L 684.724581 222.410292 
L 686.395645 222.410292 
L 686.395645 216.061099 
L 688.06671 216.061099 
L 688.06671 208.918257 
L 689.737774 208.918257 
L 689.737774 204.420912 
L 691.408838 204.420912 
L 691.408838 194.897123 
L 694.750967 194.897123 
L 694.750967 188.28338 
L 696.422031 188.28338 
L 696.422031 179.81779 
L 698.093095 179.81779 
L 698.093095 171.881299 
L 699.764159 171.881299 
L 699.764159 172.145848 
L 701.435224 172.145848 
L 701.435224 167.119404 
L 703.106288 167.119404 
L 703.106288 159.182913 
L 704.777352 159.182913 
L 704.777352 141.458083 
L 706.448416 141.458083 
L 706.448416 155.743767 
L 708.119481 155.743767 
L 708.119481 147.278176 
L 709.790545 147.278176 
L 709.790545 152.040071 
L 711.461609 152.040071 
L 711.461609 139.341685 
L 713.132673 139.341685 
L 713.132673 149.923674 
L 714.803738 149.923674 
L 714.803738 142.516282 
L 716.474802 142.516282 
L 716.474802 137.225288 
L 718.145866 137.225288 
L 718.145866 127.436949 
L 719.81693 127.436949 
L 719.81693 124.526902 
L 721.487995 124.526902 
L 721.487995 124.791452 
L 723.159059 124.791452 
L 723.159059 120.029557 
L 724.830123 120.029557 
L 724.830123 113.944914 
L 726.501187 113.944914 
L 726.501187 108.65392 
L 728.172252 108.65392 
L 728.172252 111.299417 
L 729.843316 111.299417 
L 729.843316 116.590411 
L 731.51438 116.590411 
L 731.51438 106.537522 
L 733.185444 106.537522 
L 733.185444 114.209464 
L 734.856509 114.209464 
L 734.856509 112.093066 
L 736.527573 112.093066 
L 736.527573 104.156575 
L 739.869701 104.156575 
L 739.869701 121.087756 
L 741.540766 121.087756 
L 741.540766 126.6433 
L 743.21183 126.6433 
L 743.21183 122.410505 
L 744.882894 122.410505 
L 744.882894 123.468703 
L 746.553958 123.468703 
L 746.553958 127.436949 
L 748.225023 127.436949 
L 748.225023 132.198844 
L 749.896087 132.198844 
L 749.896087 140.664434 
L 751.567151 140.664434 
L 751.567151 130.611545 
L 753.238215 130.611545 
L 753.238215 132.992493 
L 754.909279 132.992493 
L 754.909279 139.341685 
L 756.580344 139.341685 
L 756.580344 135.37344 
L 759.922472 135.37344 
L 759.922472 145.690878 
L 761.593537 145.690878 
L 761.593537 132.463393 
L 763.264601 132.463393 
L 763.264601 138.812586 
L 764.935665 138.812586 
L 764.935665 146.484527 
L 766.606729 146.484527 
L 766.606729 150.717323 
L 768.277793 150.717323 
L 768.277793 138.283487 
L 769.948858 138.283487 
L 769.948858 151.510972 
L 771.619922 151.510972 
L 771.619922 151.246422 
L 773.290986 151.246422 
L 773.290986 149.923674 
L 774.962051 149.923674 
L 774.962051 153.36282 
L 776.633115 153.36282 
L 776.633115 152.569171 
L 778.304179 152.569171 
L 778.304179 157.331065 
L 779.975243 157.331065 
L 779.975243 161.299311 
L 781.646308 161.299311 
L 781.646308 170.8231 
L 783.317372 170.8231 
L 783.317372 169.235802 
L 784.988436 169.235802 
L 784.988436 166.854854 
L 786.6595 166.854854 
L 786.6595 175.849544 
L 788.330565 175.849544 
L 788.330565 158.918363 
L 790.001629 158.918363 
L 790.001629 179.28869 
L 791.672693 179.28869 
L 791.672693 166.590305 
L 793.343757 166.590305 
L 793.343757 176.643193 
L 795.014822 176.643193 
L 795.014822 184.050585 
L 796.685886 184.050585 
L 796.685886 183.521486 
L 798.35695 183.521486 
L 798.35695 190.399778 
L 800.028014 190.399778 
L 800.028014 185.373334 
L 801.699079 185.373334 
L 801.699079 195.426222 
L 803.370143 195.426222 
L 803.370143 194.632573 
L 805.041207 194.632573 
L 805.041207 199.923567 
L 806.712271 199.923567 
L 806.712271 197.27807 
L 808.383336 197.27807 
L 808.383336 200.452666 
L 810.0544 200.452666 
L 810.0544 209.976456 
L 811.725464 209.976456 
L 811.725464 215.0029 
L 813.396528 215.0029 
L 813.396528 211.299204 
L 815.067593 211.299204 
L 815.067593 224.526689 
L 816.738657 224.526689 
L 816.738657 219.235695 
L 818.409721 219.235695 
L 818.409721 225.849438 
L 820.080785 225.849438 
L 820.080785 228.494935 
L 821.75185 228.494935 
L 821.75185 230.611332 
L 823.422914 230.611332 
L 823.422914 232.46318 
L 825.093978 232.46318 
L 825.093978 235.108677 
L 826.765042 235.108677 
L 826.765042 236.431426 
L 828.436107 236.431426 
L 828.436107 240.135122 
L 830.107171 240.135122 
L 830.107171 241.72242 
L 831.778235 241.72242 
L 831.778235 241.98697 
L 833.449299 241.98697 
L 833.449299 243.045168 
L 835.120363 243.045168 
L 835.120363 244.897016 
L 836.791428 244.897016 
L 836.791428 245.426116 
L 838.462492 245.426116 
L 838.462492 246.484315 
L 848.488877 246.484315 
L 848.488877 246.484315 
" clip-path="url(#p14c0ab90fb)" style="fill: none; stroke: #1f77b4; stroke-width: 1.5; stroke-linecap: square"/>
   </g>
   <g id="line2d_40">
    <path d="M 514.276028 246.484315 
L 522.631349 246.484315 
L 522.631349 243.309718 
L 524.302413 243.309718 
L 524.302413 233.785929 
L 525.973477 233.785929 
L 525.973477 226.113988 
L 527.644542 226.113988 
L 527.644542 224.26214 
L 529.315606 224.26214 
L 529.315606 212.621953 
L 530.98667 212.621953 
L 530.98667 201.775415 
L 532.657734 201.775415 
L 532.657734 196.748971 
L 534.328799 196.748971 
L 534.328799 197.27807 
L 535.999863 197.27807 
L 535.999863 176.114094 
L 537.670927 176.114094 
L 537.670927 172.674948 
L 539.341991 172.674948 
L 539.341991 168.971252 
L 541.013056 168.971252 
L 541.013056 154.421018 
L 542.68412 154.421018 
L 542.68412 152.304621 
L 544.355184 152.304621 
L 544.355184 147.013627 
L 546.026248 147.013627 
L 546.026248 135.10889 
L 547.697313 135.10889 
L 547.697313 127.436949 
L 549.368377 127.436949 
L 549.368377 119.500458 
L 551.039441 119.500458 
L 551.039441 108.65392 
L 552.710505 108.65392 
L 552.710505 117.38406 
L 554.38157 117.38406 
L 554.38157 96.749184 
L 556.052634 96.749184 
L 556.052634 82.728049 
L 557.723698 82.728049 
L 557.723698 81.140751 
L 559.394762 81.140751 
L 559.394762 87.225394 
L 561.065827 87.225394 
L 561.065827 76.907956 
L 562.736891 76.907956 
L 562.736891 68.971465 
L 564.407955 68.971465 
L 564.407955 64.73867 
L 566.079019 64.73867 
L 566.079019 51.246635 
L 567.750084 51.246635 
L 567.750084 68.177816 
L 569.421148 68.177816 
L 569.421148 62.357722 
L 571.092212 62.357722 
L 571.092212 46.74929 
L 572.763276 46.74929 
L 572.763276 39.341898 
L 574.434341 39.341898 
L 574.434341 51.511185 
L 576.105405 51.511185 
L 576.105405 32.992705 
L 577.776469 32.992705 
L 577.776469 39.341898 
L 579.447533 39.341898 
L 579.447533 44.368343 
L 581.118598 44.368343 
L 581.118598 43.045594 
L 584.460726 43.045594 
L 584.460726 52.304834 
L 586.13179 52.304834 
L 586.13179 56.802179 
L 587.802855 56.802179 
L 587.802855 60.505874 
L 589.473919 60.505874 
L 589.473919 71.616962 
L 591.144983 71.616962 
L 591.144983 56.537629 
L 592.816047 56.537629 
L 592.816047 63.415921 
L 594.487112 63.415921 
L 594.487112 73.46881 
L 596.158176 73.46881 
L 596.158176 65.267769 
L 597.82924 65.267769 
L 597.82924 67.648716 
L 599.500304 67.648716 
L 599.500304 79.288903 
L 601.171369 79.288903 
L 601.171369 79.818003 
L 602.842433 79.818003 
L 602.842433 77.701605 
L 604.513497 77.701605 
L 604.513497 72.675161 
L 606.184561 72.675161 
L 606.184561 77.966155 
L 607.855626 77.966155 
L 607.855626 90.135441 
L 609.52669 90.135441 
L 609.52669 78.230704 
L 611.197754 78.230704 
L 611.197754 96.484634 
L 612.868818 96.484634 
L 612.868818 82.728049 
L 614.539882 82.728049 
L 614.539882 81.405301 
L 616.210947 81.405301 
L 616.210947 97.013733 
L 617.882011 97.013733 
L 617.882011 96.220084 
L 619.553075 96.220084 
L 619.553075 87.225394 
L 621.22414 87.225394 
L 621.22414 81.405301 
L 622.895204 81.405301 
L 622.895204 95.955534 
L 624.566268 95.955534 
L 624.566268 94.632786 
L 626.237332 94.632786 
L 626.237332 94.103686 
L 627.908397 94.103686 
L 627.908397 92.780938 
L 629.579461 92.780938 
L 629.579461 86.960845 
L 631.250525 86.960845 
L 631.250525 88.812692 
L 632.921589 88.812692 
L 632.921589 89.606342 
L 634.592654 89.606342 
L 634.592654 94.632786 
L 636.263718 94.632786 
L 636.263718 90.399991 
L 637.934782 90.399991 
L 637.934782 90.92909 
L 639.605846 90.92909 
L 639.605846 111.299417 
L 641.27691 111.299417 
L 641.27691 104.950224 
L 642.947975 104.950224 
L 642.947975 121.352306 
L 644.619039 121.352306 
L 644.619039 112.622166 
L 646.290103 112.622166 
L 646.290103 116.061312 
L 647.961168 116.061312 
L 647.961168 125.849651 
L 649.632232 125.849651 
L 649.632232 134.315241 
L 651.303296 134.315241 
L 651.303296 135.902539 
L 652.97436 135.902539 
L 652.97436 155.214668 
L 654.645424 155.214668 
L 654.645424 166.325755 
L 656.316489 166.325755 
L 656.316489 169.500351 
L 657.987553 169.500351 
L 657.987553 170.55855 
L 659.658617 170.55855 
L 659.658617 177.701392 
L 661.329682 177.701392 
L 661.329682 189.870678 
L 663.000746 189.870678 
L 663.000746 198.600819 
L 664.67181 198.600819 
L 664.67181 204.420912 
L 666.342874 204.420912 
L 666.342874 213.944701 
L 668.013938 213.944701 
L 668.013938 216.590198 
L 669.685003 216.590198 
L 669.685003 219.500245 
L 671.356067 219.500245 
L 671.356067 232.72773 
L 673.027131 232.72773 
L 673.027131 233.785929 
L 674.698195 233.785929 
L 674.698195 239.341473 
L 676.36926 239.341473 
L 676.36926 243.838818 
L 678.040324 243.838818 
L 678.040324 242.516069 
L 679.711388 242.516069 
L 679.711388 238.018724 
L 681.382452 238.018724 
L 681.382452 231.934081 
L 683.053517 231.934081 
L 683.053517 228.759485 
L 684.724581 228.759485 
L 684.724581 218.971146 
L 686.395645 218.971146 
L 686.395645 217.648397 
L 688.06671 217.648397 
L 688.06671 209.711906 
L 689.737774 209.711906 
L 689.737774 203.891813 
L 691.408838 203.891813 
L 691.408838 195.955322 
L 693.079902 195.955322 
L 693.079902 195.161672 
L 694.750967 195.161672 
L 694.750967 185.373334 
L 696.422031 185.373334 
L 696.422031 182.727836 
L 698.093095 182.727836 
L 698.093095 171.08765 
L 699.764159 171.08765 
L 699.764159 172.674948 
L 701.435224 172.674948 
L 701.435224 165.267556 
L 703.106288 165.267556 
L 703.106288 158.389264 
L 704.777352 158.389264 
L 704.777352 146.219978 
L 706.448416 146.219978 
L 706.448416 155.743767 
L 708.119481 155.743767 
L 708.119481 146.484527 
L 709.790545 146.484527 
L 709.790545 152.569171 
L 711.461609 152.569171 
L 711.461609 140.928984 
L 713.132673 140.928984 
L 713.132673 147.807276 
L 714.803738 147.807276 
L 714.803738 142.780832 
L 716.474802 142.780832 
L 716.474802 135.63799 
L 718.145866 135.63799 
L 718.145866 126.37875 
L 719.81693 126.37875 
L 719.81693 126.907849 
L 721.487995 126.907849 
L 721.487995 123.204154 
L 723.159059 123.204154 
L 723.159059 120.029557 
L 724.830123 120.029557 
L 724.830123 113.415815 
L 726.501187 113.415815 
L 726.501187 112.622166 
L 728.172252 112.622166 
L 728.172252 111.299417 
L 729.843316 111.299417 
L 729.843316 121.352306 
L 731.51438 121.352306 
L 731.51438 100.18833 
L 733.185444 100.18833 
L 733.185444 110.241218 
L 734.856509 110.241218 
L 734.856509 117.38406 
L 736.527573 117.38406 
L 736.527573 103.892025 
L 738.198637 103.892025 
L 738.198637 105.214774 
L 739.869701 105.214774 
L 739.869701 116.590411 
L 741.540766 116.590411 
L 741.540766 121.616855 
L 743.21183 121.616855 
L 743.21183 121.881405 
L 744.882894 121.881405 
L 744.882894 129.553346 
L 746.553958 129.553346 
L 746.553958 129.024247 
L 748.225023 129.024247 
L 748.225023 138.283487 
L 749.896087 138.283487 
L 749.896087 139.870785 
L 751.567151 139.870785 
L 751.567151 128.759697 
L 754.909279 128.759697 
L 754.909279 136.960738 
L 756.580344 136.960738 
L 756.580344 136.696188 
L 758.251408 136.696188 
L 758.251408 141.987182 
L 759.922472 141.987182 
L 759.922472 136.167089 
L 761.593537 136.167089 
L 761.593537 139.870785 
L 763.264601 139.870785 
L 763.264601 138.812586 
L 764.935665 138.812586 
L 764.935665 145.955428 
L 766.606729 145.955428 
L 766.606729 149.130024 
L 768.277793 149.130024 
L 768.277793 139.077136 
L 769.948858 139.077136 
L 769.948858 148.865475 
L 771.619922 148.865475 
L 771.619922 150.452773 
L 773.290986 150.452773 
L 773.290986 149.659124 
L 774.962051 149.659124 
L 774.962051 155.479217 
L 776.633115 155.479217 
L 776.633115 154.156469 
L 778.304179 154.156469 
L 778.304179 158.124714 
L 779.975243 158.124714 
L 779.975243 161.034761 
L 781.646308 161.034761 
L 781.646308 169.235802 
L 783.317372 169.235802 
L 783.317372 171.616749 
L 784.988436 171.616749 
L 784.988436 161.56386 
L 786.6595 161.56386 
L 786.6595 174.791345 
L 788.330565 174.791345 
L 788.330565 165.003006 
L 790.001629 165.003006 
L 790.001629 167.913053 
L 791.672693 167.913053 
L 791.672693 173.468597 
L 793.343757 173.468597 
L 793.343757 176.114094 
L 795.014822 176.114094 
L 795.014822 183.786035 
L 796.685886 183.786035 
L 796.685886 186.696082 
L 798.35695 186.696082 
L 798.35695 185.108784 
L 800.028014 185.108784 
L 800.028014 189.606129 
L 801.699079 189.606129 
L 801.699079 190.664328 
L 803.370143 190.664328 
L 803.370143 199.923567 
L 805.041207 199.923567 
L 805.041207 198.600819 
L 806.712271 198.600819 
L 806.712271 194.632573 
L 808.383336 194.632573 
L 808.383336 208.653707 
L 810.0544 208.653707 
L 810.0544 206.801859 
L 811.725464 206.801859 
L 811.725464 212.621953 
L 813.396528 212.621953 
L 813.396528 216.854748 
L 815.067593 216.854748 
L 815.067593 217.648397 
L 816.738657 217.648397 
L 816.738657 220.293894 
L 818.409721 220.293894 
L 818.409721 226.907637 
L 820.080785 226.907637 
L 820.080785 227.172186 
L 821.75185 227.172186 
L 821.75185 234.315028 
L 823.422914 234.315028 
L 823.422914 230.875882 
L 825.093978 230.875882 
L 825.093978 234.844128 
L 826.765042 234.844128 
L 826.765042 235.108677 
L 828.436107 235.108677 
L 828.436107 241.45787 
L 830.107171 241.45787 
L 830.107171 241.72242 
L 831.778235 241.72242 
L 831.778235 240.928771 
L 833.449299 240.928771 
L 833.449299 243.309718 
L 835.120363 243.309718 
L 835.120363 244.367917 
L 836.791428 244.367917 
L 836.791428 245.690665 
L 838.462492 245.690665 
L 838.462492 246.484315 
L 840.133556 246.484315 
L 840.133556 245.690665 
L 841.804621 245.690665 
L 841.804621 246.484315 
L 848.488877 246.484315 
L 848.488877 246.484315 
" clip-path="url(#p14c0ab90fb)" style="fill: none; stroke: #ff7f0e; stroke-width: 1.5; stroke-linecap: square"/>
   </g>
   <g id="patch_9">
    <path d="M 497.565385 257.158895 
L 497.565385 22.318125 
" style="fill: none; stroke: #000000; stroke-width: 0.8; stroke-linejoin: miter; stroke-linecap: square"/>
   </g>
   <g id="patch_10">
    <path d="M 865.19952 257.158895 
L 865.19952 22.318125 
" style="fill: none; stroke: #000000; stroke-width: 0.8; stroke-linejoin: miter; stroke-linecap: square"/>
   </g>
   <g id="patch_11">
    <path d="M 497.565385 257.158895 
L 865.19952 257.158895 
" style="fill: none; stroke: #000000; stroke-width: 0.8; stroke-linejoin: miter; stroke-linecap: square"/>
   </g>
   <g id="patch_12">
    <path d="M 497.565385 22.318125 
L 865.19952 22.318125 
" style="fill: none; stroke: #000000; stroke-width: 0.8; stroke-linejoin: miter; stroke-linecap: square"/>
   </g>
   <g id="text_42">
    <!-- Pixel 2 -->
    <g transform="translate(661.78589 16.318125) scale(0.12 -0.12)">
     <use xlink:href="#DejaVuSans-50"/>
     <use xlink:href="#DejaVuSans-69" transform="translate(58.052734 0)"/>
     <use xlink:href="#DejaVuSans-78" transform="translate(85.835938 0)"/>
     <use xlink:href="#DejaVuSans-65" transform="translate(141.890625 0)"/>
     <use xlink:href="#DejaVuSans-6c" transform="translate(203.414062 0)"/>
     <use xlink:href="#DejaVuSans-20" transform="translate(231.197266 0)"/>
     <use xlink:href="#DejaVuSans-32" transform="translate(262.984375 0)"/>
    </g>
   </g>
   <g id="legend_2">
    <g id="patch_13">
     <path d="M 761.196395 59.9525 
L 858.19952 59.9525 
Q 860.19952 59.9525 860.19952 57.9525 
L 860.19952 29.318125 
Q 860.19952 27.318125 858.19952 27.318125 
L 761.196395 27.318125 
Q 759.196395 27.318125 759.196395 29.318125 
L 759.196395 57.9525 
Q 759.196395 59.9525 761.196395 59.9525 
z
" style="fill: #ffffff; opacity: 0.8; stroke: #cccccc; stroke-linejoin: miter"/>
    </g>
    <g id="line2d_41">
     <path d="M 763.196395 35.416562 
L 763.196395 35.416562 
L 773.196395 35.416562 
L 773.196395 35.416562 
L 783.196395 35.416562 
" style="fill: none; stroke: #1f77b4; stroke-width: 1.5; stroke-linecap: square"/>
    </g>
    <g id="text_43">
     <!-- wfm -->
     <g transform="translate(791.196395 38.916562) scale(0.1 -0.1)">
      <use xlink:href="#DejaVuSans-77"/>
      <use xlink:href="#DejaVuSans-66" transform="translate(81.787109 0)"/>
      <use xlink:href="#DejaVuSans-6d" transform="translate(116.992188 0)"/>
     </g>
    </g>
    <g id="line2d_42">
     <path d="M 763.196395 50.094687 
L 763.196395 50.094687 
L 773.196395 50.094687 
L 773.196395 50.094687 
L 783.196395 50.094687 
" style="fill: none; stroke: #ff7f0e; stroke-width: 1.5; stroke-linecap: square"/>
    </g>
    <g id="text_44">
     <!-- ground_truth -->
     <g transform="translate(791.196395 53.594687) scale(0.1 -0.1)">
      <use xlink:href="#DejaVuSans-67"/>
      <use xlink:href="#DejaVuSans-72" transform="translate(63.476562 0)"/>
      <use xlink:href="#DejaVuSans-6f" transform="translate(102.339844 0)"/>
      <use xlink:href="#DejaVuSans-75" transform="translate(163.521484 0)"/>
      <use xlink:href="#DejaVuSans-6e" transform="translate(226.900391 0)"/>
      <use xlink:href="#DejaVuSans-64" transform="translate(290.279297 0)"/>
      <use xlink:href="#DejaVuSans-5f" transform="translate(353.755859 0)"/>
      <use xlink:href="#DejaVuSans-74" transform="translate(403.755859 0)"/>
      <use xlink:href="#DejaVuSans-72" transform="translate(442.964844 0)"/>
      <use xlink:href="#DejaVuSans-75" transform="translate(484.078125 0)"/>
      <use xlink:href="#DejaVuSans-74" transform="translate(547.457031 0)"/>
      <use xlink:href="#DejaVuSans-68" transform="translate(586.666016 0)"/>
     </g>
    </g>
   </g>
  </g>
 </g>
 <defs>
  <clipPath id="p9b52a9b8af">
   <rect x="46.965625" y="22.318125" width="367.634135" height="234.84077"/>
  </clipPath>
  <clipPath id="p14c0ab90fb">
   <rect x="497.565385" y="22.318125" width="367.634135" height="234.84077"/>
  </clipPath>
 </defs>
</svg>
