<?xml version="1.0" encoding="utf-8" standalone="no"?>
<!DOCTYPE svg PUBLIC "-//W3C//DTD SVG 1.1//EN"
  "http://www.w3.org/Graphics/SVG/1.1/DTD/svg11.dtd">
<svg xmlns:xlink="http://www.w3.org/1999/xlink" width="872.39952pt" height="296.39952pt" viewBox="0 0 872.39952 296.39952" xmlns="http://www.w3.org/2000/svg" version="1.1">
 <metadata>
  <rdf:RDF xmlns:dc="http://purl.org/dc/elements/1.1/" xmlns:cc="http://creativecommons.org/ns#" xmlns:rdf="http://www.w3.org/1999/02/22-rdf-syntax-ns#">
   <cc:Work>
    <dc:type rdf:resource="http://purl.org/dc/dcmitype/StillImage"/>
    <dc:date>2026-06-04T11:42:07.910305</dc:date>
    <dc:format>image/svg+xml</dc:format>
    <dc:creator>
     <cc:Agent>
      <dc:title>Matplotlib v3.10.9, https://matplotlib.org/</dc:title>
     </cc:Agent>
    </dc:creator>
   </cc:Work>
  </rdf:RDF>
 </metadata>
 <defs>
  <style type="text/css">*{stroke-linejoin: round; stroke-linecap: butt}</style>
 </defs>
 <g id="figure_1">
  <g id="patch_1">
   <path d="M 0 296.39952 
L 872.39952 296.39952 
L 872.39952 0 
L 0 0 
z
" style="fill: #ffffff"/>
  </g>
  <g id="axes_1">
   <g id="patch_2">
    <path d="M 53.328125 257.158895 
L 414.59976 257.158895 
L 414.59976 7.2 
L 53.328125 7.2 
z
" style="fill: #ffffff"/>
   </g>
   <g id="matplotlib.axis_1">
    <g id="xtick_1">
     <g id="line2d_1">
      <defs>
       <path id="m1d9d7de22a" d="M 0 0 
L 0 3.5 
" style="stroke: #000000; stroke-width: 0.8"/>
      </defs>
      <g>
       <use xlink:href="#m1d9d7de22a" x="68.886843" y="257.158895" style="stroke: #000000; stroke-width: 0.8"/>
      </g>
     </g>
     <g id="text_1">
      <!-- 0 -->
      <g transform="translate(65.705593 271.757332) scale(0.1 -0.1)">
       <defs>
        <path id="DejaVuSans-30" d="M 2034 4250 
Q 1547 4250 1301 3770 
Q 1056 3291 1056 2328 
Q 1056 1369 1301 889 
Q 1547 409 2034 409 
Q 2525 409 2770 889 
Q 3016 1369 3016 2328 
Q 3016 3291 2770 3770 
Q 2525 4250 2034 4250 
z
M 2034 4750 
Q 2819 4750 3233 4129 
Q 3647 3509 3647 2328 
Q 3647 1150 3233 529 
Q 2819 -91 2034 -91 
Q 1250 -91 836 529 
Q 422 1150 422 2328 
Q 422 3509 836 4129 
Q 1250 4750 2034 4750 
z
" transform="scale(0.015625)"/>
       </defs>
       <use xlink:href="#DejaVuSans-30"/>
      </g>
     </g>
    </g>
    <g id="xtick_2">
     <g id="line2d_2">
      <g>
       <use xlink:href="#m1d9d7de22a" x="135.197822" y="257.158895" style="stroke: #000000; stroke-width: 0.8"/>
      </g>
     </g>
     <g id="text_2">
      <!-- 1000 -->
      <g transform="translate(122.472822 271.757332) scale(0.1 -0.1)">
       <defs>
        <path id="DejaVuSans-31" d="M 794 531 
L 1825 531 
L 1825 4091 
L 703 3866 
L 703 4441 
L 1819 4666 
L 2450 4666 
L 2450 531 
L 3481 531 
L 3481 0 
L 794 0 
L 794 531 
z
" transform="scale(0.015625)"/>
       </defs>
       <use xlink:href="#DejaVuSans-31"/>
       <use xlink:href="#DejaVuSans-30" transform="translate(63.623047 0)"/>
       <use xlink:href="#DejaVuSans-30" transform="translate(127.246094 0)"/>
       <use xlink:href="#DejaVuSans-30" transform="translate(190.869141 0)"/>
      </g>
     </g>
    </g>
    <g id="xtick_3">
     <g id="line2d_3">
      <g>
       <use xlink:href="#m1d9d7de22a" x="201.508801" y="257.158895" style="stroke: #000000; stroke-width: 0.8"/>
      </g>
     </g>
     <g id="text_3">
      <!-- 2000 -->
      <g transform="translate(188.783801 271.757332) scale(0.1 -0.1)">
       <defs>
        <path id="DejaVuSans-32" d="M 1228 531 
L 3431 531 
L 3431 0 
L 469 0 
L 469 531 
Q 828 903 1448 1529 
Q 2069 2156 2228 2338 
Q 2531 2678 2651 2914 
Q 2772 3150 2772 3378 
Q 2772 3750 2511 3984 
Q 2250 4219 1831 4219 
Q 1534 4219 1204 4116 
Q 875 4013 500 3803 
L 500 4441 
Q 881 4594 1212 4672 
Q 1544 4750 1819 4750 
Q 2544 4750 2975 4387 
Q 3406 4025 3406 3419 
Q 3406 3131 3298 2873 
Q 3191 2616 2906 2266 
Q 2828 2175 2409 1742 
Q 1991 1309 1228 531 
z
" transform="scale(0.015625)"/>
       </defs>
       <use xlink:href="#DejaVuSans-32"/>
       <use xlink:href="#DejaVuSans-30" transform="translate(63.623047 0)"/>
       <use xlink:href="#DejaVuSans-30" transform="translate(127.246094 0)"/>
       <use xlink:href="#DejaVuSans-30" transform="translate(190.869141 0)"/>
      </g>
     </g>
    </g>
    <g id="xtick_4">
     <g id="line2d_4">
      <g>
       <use xlink:href="#m1d9d7de22a" x="267.81978" y="257.158895" style="stroke: #000000; stroke-width: 0.8"/>
      </g>
     </g>
     <g id="text_4">
      <!-- 3000 -->
      <g transform="translate(255.09478 271.757332) scale(0.1 -0.1)">
       <defs>
        <path id="DejaVuSans-33" d="M 2597 2516 
Q 3050 2419 3304 2112 
Q 3559 1806 3559 1356 
Q 3559 666 3084 287 
Q 2609 -91 1734 -91 
Q 1441 -91 1130 -33 
Q 819 25 488 141 
L 488 750 
Q 750 597 1062 519 
Q 1375 441 1716 441 
Q 2309 441 2620 675 
Q 2931 909 2931 1356 
Q 2931 1769 2642 2001 
Q 2353 2234 1838 2234 
L 1294 2234 
L 1294 2753 
L 1863 2753 
Q 2328 2753 2575 2939 
Q 2822 3125 2822 3475 
Q 2822 3834 2567 4026 
Q 2313 4219 1838 4219 
Q 1578 4219 1281 4162 
Q 984 4106 628 3988 
L 628 4550 
Q 988 4650 1302 4700 
Q 1616 4750 1894 4750 
Q 2613 4750 3031 4423 
Q 3450 4097 3450 3541 
Q 3450 3153 3228 2886 
Q 3006 2619 2597 2516 
z
" transform="scale(0.015625)"/>
       </defs>
       <use xlink:href="#DejaVuSans-33"/>
       <use xlink:href="#DejaVuSans-30" transform="translate(63.623047 0)"/>
       <use xlink:href="#DejaVuSans-30" transform="translate(127.246094 0)"/>
       <use xlink:href="#DejaVuSans-30" transform="translate(190.869141 0)"/>
      </g>
     </g>
    </g>
    <g id="xtick_5">
     <g id="line2d_5">
      <g>
       <use xlink:href="#m1d9d7de22a" x="334.130759" y="257.158895" style="stroke: #000000; stroke-width: 0.8"/>
      </g>
     </g>
     <g id="text_5">
      <!-- 4000 -->
      <g transform="translate(321.405759 271.757332) scale(0.1 -0.1)">
       <defs>
        <path id="DejaVuSans-34" d="M 2419 4116 
L 825 1625 
L 2419 1625 
L 2419 4116 
z
M 2253 4666 
L 3047 4666 
L 3047 1625 
L 3713 1625 
L 3713 1100 
L 3047 1100 
L 3047 0 
L 2419 0 
L 2419 1100 
L 313 1100 
L 313 1709 
L 2253 4666 
z
" transform="scale(0.015625)"/>
       </defs>
       <use xlink:href="#DejaVuSans-34"/>
       <use xlink:href="#DejaVuSans-30" transform="translate(63.623047 0)"/>
       <use xlink:href="#DejaVuSans-30" transform="translate(127.246094 0)"/>
       <use xlink:href="#DejaVuSans-30" transform="translate(190.869141 0)"/>
      </g>
     </g>
    </g>
    <g id="xtick_6">
     <g id="line2d_6">
      <g>
       <use xlink:href="#m1d9d7de22a" x="400.441738" y="257.158895" style="stroke: #000000; stroke-width: 0.8"/>
      </g>
     </g>
     <g id="text_6">
      <!-- 5000 -->
      <g transform="translate(387.716738 271.757332) scale(0.1 -0.1)">
       <defs>
        <path id="DejaVuSans-35" d="M 691 4666 
L 3169 4666 
L 3169 4134 
L 1269 4134 
L 1269 2991 
Q 1406 3038 1543 3061 
Q 1681 3084 1819 3084 
Q 2600 3084 3056 2656 
Q 3513 2228 3513 1497 
Q 3513 744 3044 326 
Q 2575 -91 1722 -91 
Q 1428 -91 1123 -41 
Q 819 9 494 109 
L 494 744 
Q 775 591 1075 516 
Q 1375 441 1709 441 
Q 2250 441 2565 725 
Q 2881 1009 2881 1497 
Q 2881 1984 2565 2268 
Q 2250 2553 1709 2553 
Q 1456 2553 1204 2497 
Q 953 2441 691 2322 
L 691 4666 
z
" transform="scale(0.015625)"/>
       </defs>
       <use xlink:href="#DejaVuSans-35"/>
       <use xlink:href="#DejaVuSans-30" transform="translate(63.623047 0)"/>
       <use xlink:href="#DejaVuSans-30" transform="translate(127.246094 0)"/>
       <use xlink:href="#DejaVuSans-30" transform="translate(190.869141 0)"/>
      </g>
     </g>
    </g>
    <g id="text_7">
     <!-- birth_time [µs] -->
     <g transform="translate(197.14363 285.435457) scale(0.1 -0.1)">
      <defs>
       <path id="DejaVuSans-62" d="M 3116 1747 
Q 3116 2381 2855 2742 
Q 2594 3103 2138 3103 
Q 1681 3103 1420 2742 
Q 1159 2381 1159 1747 
Q 1159 1113 1420 752 
Q 1681 391 2138 391 
Q 2594 391 2855 752 
Q 3116 1113 3116 1747 
z
M 1159 2969 
Q 1341 3281 1617 3432 
Q 1894 3584 2278 3584 
Q 2916 3584 3314 3078 
Q 3713 2572 3713 1747 
Q 3713 922 3314 415 
Q 2916 -91 2278 -91 
Q 1894 -91 1617 61 
Q 1341 213 1159 525 
L 1159 0 
L 581 0 
L 581 4863 
L 1159 4863 
L 1159 2969 
z
" transform="scale(0.015625)"/>
       <path id="DejaVuSans-69" d="M 603 3500 
L 1178 3500 
L 1178 0 
L 603 0 
L 603 3500 
z
M 603 4863 
L 1178 4863 
L 1178 4134 
L 603 4134 
L 603 4863 
z
" transform="scale(0.015625)"/>
       <path id="DejaVuSans-72" d="M 2631 2963 
Q 2534 3019 2420 3045 
Q 2306 3072 2169 3072 
Q 1681 3072 1420 2755 
Q 1159 2438 1159 1844 
L 1159 0 
L 581 0 
L 581 3500 
L 1159 3500 
L 1159 2956 
Q 1341 3275 1631 3429 
Q 1922 3584 2338 3584 
Q 2397 3584 2469 3576 
Q 2541 3569 2628 3553 
L 2631 2963 
z
" transform="scale(0.015625)"/>
       <path id="DejaVuSans-74" d="M 1172 4494 
L 1172 3500 
L 2356 3500 
L 2356 3053 
L 1172 3053 
L 1172 1153 
Q 1172 725 1289 603 
Q 1406 481 1766 481 
L 2356 481 
L 2356 0 
L 1766 0 
Q 1100 0 847 248 
Q 594 497 594 1153 
L 594 3053 
L 172 3053 
L 172 3500 
L 594 3500 
L 594 4494 
L 1172 4494 
z
" transform="scale(0.015625)"/>
       <path id="DejaVuSans-68" d="M 3513 2113 
L 3513 0 
L 2938 0 
L 2938 2094 
Q 2938 2591 2744 2837 
Q 2550 3084 2163 3084 
Q 1697 3084 1428 2787 
Q 1159 2491 1159 1978 
L 1159 0 
L 581 0 
L 581 4863 
L 1159 4863 
L 1159 2956 
Q 1366 3272 1645 3428 
Q 1925 3584 2291 3584 
Q 2894 3584 3203 3211 
Q 3513 2838 3513 2113 
z
" transform="scale(0.015625)"/>
       <path id="DejaVuSans-5f" d="M 3263 -1063 
L 3263 -1509 
L -63 -1509 
L -63 -1063 
L 3263 -1063 
z
" transform="scale(0.015625)"/>
       <path id="DejaVuSans-6d" d="M 3328 2828 
Q 3544 3216 3844 3400 
Q 4144 3584 4550 3584 
Q 5097 3584 5394 3201 
Q 5691 2819 5691 2113 
L 5691 0 
L 5113 0 
L 5113 2094 
Q 5113 2597 4934 2840 
Q 4756 3084 4391 3084 
Q 3944 3084 3684 2787 
Q 3425 2491 3425 1978 
L 3425 0 
L 2847 0 
L 2847 2094 
Q 2847 2600 2669 2842 
Q 2491 3084 2119 3084 
Q 1678 3084 1418 2786 
Q 1159 2488 1159 1978 
L 1159 0 
L 581 0 
L 581 3500 
L 1159 3500 
L 1159 2956 
Q 1356 3278 1631 3431 
Q 1906 3584 2284 3584 
Q 2666 3584 2933 3390 
Q 3200 3197 3328 2828 
z
" transform="scale(0.015625)"/>
       <path id="DejaVuSans-65" d="M 3597 1894 
L 3597 1613 
L 953 1613 
Q 991 1019 1311 708 
Q 1631 397 2203 397 
Q 2534 397 2845 478 
Q 3156 559 3463 722 
L 3463 178 
Q 3153 47 2828 -22 
Q 2503 -91 2169 -91 
Q 1331 -91 842 396 
Q 353 884 353 1716 
Q 353 2575 817 3079 
Q 1281 3584 2069 3584 
Q 2775 3584 3186 3129 
Q 3597 2675 3597 1894 
z
M 3022 2063 
Q 3016 2534 2758 2815 
Q 2500 3097 2075 3097 
Q 1594 3097 1305 2825 
Q 1016 2553 972 2059 
L 3022 2063 
z
" transform="scale(0.015625)"/>
       <path id="DejaVuSans-20" transform="scale(0.015625)"/>
       <path id="DejaVuSans-5b" d="M 550 4863 
L 1875 4863 
L 1875 4416 
L 1125 4416 
L 1125 -397 
L 1875 -397 
L 1875 -844 
L 550 -844 
L 550 4863 
z
" transform="scale(0.015625)"/>
       <path id="DejaVuSans-b5" d="M 544 -1331 
L 544 3500 
L 1119 3500 
L 1119 1325 
Q 1119 872 1334 640 
Q 1550 409 1972 409 
Q 2434 409 2667 671 
Q 2900 934 2900 1459 
L 2900 3500 
L 3475 3500 
L 3475 806 
Q 3475 619 3529 530 
Q 3584 441 3700 441 
Q 3728 441 3778 458 
Q 3828 475 3916 513 
L 3916 50 
Q 3788 -22 3673 -56 
Q 3559 -91 3450 -91 
Q 3234 -91 3106 31 
Q 2978 153 2931 403 
Q 2775 156 2548 32 
Q 2322 -91 2016 -91 
Q 1697 -91 1473 31 
Q 1250 153 1119 397 
L 1119 -1331 
L 544 -1331 
z
" transform="scale(0.015625)"/>
       <path id="DejaVuSans-73" d="M 2834 3397 
L 2834 2853 
Q 2591 2978 2328 3040 
Q 2066 3103 1784 3103 
Q 1356 3103 1142 2972 
Q 928 2841 928 2578 
Q 928 2378 1081 2264 
Q 1234 2150 1697 2047 
L 1894 2003 
Q 2506 1872 2764 1633 
Q 3022 1394 3022 966 
Q 3022 478 2636 193 
Q 2250 -91 1575 -91 
Q 1294 -91 989 -36 
Q 684 19 347 128 
L 347 722 
Q 666 556 975 473 
Q 1284 391 1588 391 
Q 1994 391 2212 530 
Q 2431 669 2431 922 
Q 2431 1156 2273 1281 
Q 2116 1406 1581 1522 
L 1381 1569 
Q 847 1681 609 1914 
Q 372 2147 372 2553 
Q 372 3047 722 3315 
Q 1072 3584 1716 3584 
Q 2034 3584 2315 3537 
Q 2597 3491 2834 3397 
z
" transform="scale(0.015625)"/>
       <path id="DejaVuSans-5d" d="M 1947 4863 
L 1947 -844 
L 622 -844 
L 622 -397 
L 1369 -397 
L 1369 4416 
L 622 4416 
L 622 4863 
L 1947 4863 
z
" transform="scale(0.015625)"/>
      </defs>
      <use xlink:href="#DejaVuSans-62"/>
      <use xlink:href="#DejaVuSans-69" transform="translate(63.476562 0)"/>
      <use xlink:href="#DejaVuSans-72" transform="translate(91.259766 0)"/>
      <use xlink:href="#DejaVuSans-74" transform="translate(132.373047 0)"/>
      <use xlink:href="#DejaVuSans-68" transform="translate(171.582031 0)"/>
      <use xlink:href="#DejaVuSans-5f" transform="translate(234.960938 0)"/>
      <use xlink:href="#DejaVuSans-74" transform="translate(284.960938 0)"/>
      <use xlink:href="#DejaVuSans-69" transform="translate(324.169922 0)"/>
      <use xlink:href="#DejaVuSans-6d" transform="translate(351.953125 0)"/>
      <use xlink:href="#DejaVuSans-65" transform="translate(449.365234 0)"/>
      <use xlink:href="#DejaVuSans-20" transform="translate(510.888672 0)"/>
      <use xlink:href="#DejaVuSans-5b" transform="translate(542.675781 0)"/>
      <use xlink:href="#DejaVuSans-b5" transform="translate(581.689453 0)"/>
      <use xlink:href="#DejaVuSans-73" transform="translate(645.3125 0)"/>
      <use xlink:href="#DejaVuSans-5d" transform="translate(697.412109 0)"/>
     </g>
    </g>
   </g>
   <g id="matplotlib.axis_2">
    <g id="ytick_1">
     <g id="line2d_7">
      <defs>
       <path id="m28f5eb9393" d="M 0 0 
L -3.5 0 
" style="stroke: #000000; stroke-width: 0.8"/>
      </defs>
      <g>
       <use xlink:href="#m28f5eb9393" x="53.328125" y="245.982022" style="stroke: #000000; stroke-width: 0.8"/>
      </g>
     </g>
     <g id="text_8">
      <!-- 0 -->
      <g transform="translate(39.965625 249.78124) scale(0.1 -0.1)">
       <use xlink:href="#DejaVuSans-30"/>
      </g>
     </g>
    </g>
    <g id="ytick_2">
     <g id="line2d_8">
      <g>
       <use xlink:href="#m28f5eb9393" x="53.328125" y="209.003119" style="stroke: #000000; stroke-width: 0.8"/>
      </g>
     </g>
     <g id="text_9">
      <!-- 200 -->
      <g transform="translate(27.240625 212.802337) scale(0.1 -0.1)">
       <use xlink:href="#DejaVuSans-32"/>
       <use xlink:href="#DejaVuSans-30" transform="translate(63.623047 0)"/>
       <use xlink:href="#DejaVuSans-30" transform="translate(127.246094 0)"/>
      </g>
     </g>
    </g>
    <g id="ytick_3">
     <g id="line2d_9">
      <g>
       <use xlink:href="#m28f5eb9393" x="53.328125" y="172.024216" style="stroke: #000000; stroke-width: 0.8"/>
      </g>
     </g>
     <g id="text_10">
      <!-- 400 -->
      <g transform="translate(27.240625 175.823434) scale(0.1 -0.1)">
       <use xlink:href="#DejaVuSans-34"/>
       <use xlink:href="#DejaVuSans-30" transform="translate(63.623047 0)"/>
       <use xlink:href="#DejaVuSans-30" transform="translate(127.246094 0)"/>
      </g>
     </g>
    </g>
    <g id="ytick_4">
     <g id="line2d_10">
      <g>
       <use xlink:href="#m28f5eb9393" x="53.328125" y="135.045312" style="stroke: #000000; stroke-width: 0.8"/>
      </g>
     </g>
     <g id="text_11">
      <!-- 600 -->
      <g transform="translate(27.240625 138.844531) scale(0.1 -0.1)">
       <defs>
        <path id="DejaVuSans-36" d="M 2113 2584 
Q 1688 2584 1439 2293 
Q 1191 2003 1191 1497 
Q 1191 994 1439 701 
Q 1688 409 2113 409 
Q 2538 409 2786 701 
Q 3034 994 3034 1497 
Q 3034 2003 2786 2293 
Q 2538 2584 2113 2584 
z
M 3366 4563 
L 3366 3988 
Q 3128 4100 2886 4159 
Q 2644 4219 2406 4219 
Q 1781 4219 1451 3797 
Q 1122 3375 1075 2522 
Q 1259 2794 1537 2939 
Q 1816 3084 2150 3084 
Q 2853 3084 3261 2657 
Q 3669 2231 3669 1497 
Q 3669 778 3244 343 
Q 2819 -91 2113 -91 
Q 1303 -91 875 529 
Q 447 1150 447 2328 
Q 447 3434 972 4092 
Q 1497 4750 2381 4750 
Q 2619 4750 2861 4703 
Q 3103 4656 3366 4563 
z
" transform="scale(0.015625)"/>
       </defs>
       <use xlink:href="#DejaVuSans-36"/>
       <use xlink:href="#DejaVuSans-30" transform="translate(63.623047 0)"/>
       <use xlink:href="#DejaVuSans-30" transform="translate(127.246094 0)"/>
      </g>
     </g>
    </g>
    <g id="ytick_5">
     <g id="line2d_11">
      <g>
       <use xlink:href="#m28f5eb9393" x="53.328125" y="98.066409" style="stroke: #000000; stroke-width: 0.8"/>
      </g>
     </g>
     <g id="text_12">
      <!-- 800 -->
      <g transform="translate(27.240625 101.865628) scale(0.1 -0.1)">
       <defs>
        <path id="DejaVuSans-38" d="M 2034 2216 
Q 1584 2216 1326 1975 
Q 1069 1734 1069 1313 
Q 1069 891 1326 650 
Q 1584 409 2034 409 
Q 2484 409 2743 651 
Q 3003 894 3003 1313 
Q 3003 1734 2745 1975 
Q 2488 2216 2034 2216 
z
M 1403 2484 
Q 997 2584 770 2862 
Q 544 3141 544 3541 
Q 544 4100 942 4425 
Q 1341 4750 2034 4750 
Q 2731 4750 3128 4425 
Q 3525 4100 3525 3541 
Q 3525 3141 3298 2862 
Q 3072 2584 2669 2484 
Q 3125 2378 3379 2068 
Q 3634 1759 3634 1313 
Q 3634 634 3220 271 
Q 2806 -91 2034 -91 
Q 1263 -91 848 271 
Q 434 634 434 1313 
Q 434 1759 690 2068 
Q 947 2378 1403 2484 
z
M 1172 3481 
Q 1172 3119 1398 2916 
Q 1625 2713 2034 2713 
Q 2441 2713 2670 2916 
Q 2900 3119 2900 3481 
Q 2900 3844 2670 4047 
Q 2441 4250 2034 4250 
Q 1625 4250 1398 4047 
Q 1172 3844 1172 3481 
z
" transform="scale(0.015625)"/>
       </defs>
       <use xlink:href="#DejaVuSans-38"/>
       <use xlink:href="#DejaVuSans-30" transform="translate(63.623047 0)"/>
       <use xlink:href="#DejaVuSans-30" transform="translate(127.246094 0)"/>
      </g>
     </g>
    </g>
    <g id="ytick_6">
     <g id="line2d_12">
      <g>
       <use xlink:href="#m28f5eb9393" x="53.328125" y="61.087506" style="stroke: #000000; stroke-width: 0.8"/>
      </g>
     </g>
     <g id="text_13">
      <!-- 1000 -->
      <g transform="translate(20.878125 64.886725) scale(0.1 -0.1)">
       <use xlink:href="#DejaVuSans-31"/>
       <use xlink:href="#DejaVuSans-30" transform="translate(63.623047 0)"/>
       <use xlink:href="#DejaVuSans-30" transform="translate(127.246094 0)"/>
       <use xlink:href="#DejaVuSans-30" transform="translate(190.869141 0)"/>
      </g>
     </g>
    </g>
    <g id="ytick_7">
     <g id="line2d_13">
      <g>
       <use xlink:href="#m28f5eb9393" x="53.328125" y="24.108603" style="stroke: #000000; stroke-width: 0.8"/>
      </g>
     </g>
     <g id="text_14">
      <!-- 1200 -->
      <g transform="translate(20.878125 27.907822) scale(0.1 -0.1)">
       <use xlink:href="#DejaVuSans-31"/>
       <use xlink:href="#DejaVuSans-32" transform="translate(63.623047 0)"/>
       <use xlink:href="#DejaVuSans-30" transform="translate(127.246094 0)"/>
       <use xlink:href="#DejaVuSans-30" transform="translate(190.869141 0)"/>
      </g>
     </g>
    </g>
    <g id="text_15">
     <!-- [counts] -->
     <g transform="translate(14.798438 152.791947) rotate(-90) scale(0.1 -0.1)">
      <defs>
       <path id="DejaVuSans-63" d="M 3122 3366 
L 3122 2828 
Q 2878 2963 2633 3030 
Q 2388 3097 2138 3097 
Q 1578 3097 1268 2742 
Q 959 2388 959 1747 
Q 959 1106 1268 751 
Q 1578 397 2138 397 
Q 2388 397 2633 464 
Q 2878 531 3122 666 
L 3122 134 
Q 2881 22 2623 -34 
Q 2366 -91 2075 -91 
Q 1284 -91 818 406 
Q 353 903 353 1747 
Q 353 2603 823 3093 
Q 1294 3584 2113 3584 
Q 2378 3584 2631 3529 
Q 2884 3475 3122 3366 
z
" transform="scale(0.015625)"/>
       <path id="DejaVuSans-6f" d="M 1959 3097 
Q 1497 3097 1228 2736 
Q 959 2375 959 1747 
Q 959 1119 1226 758 
Q 1494 397 1959 397 
Q 2419 397 2687 759 
Q 2956 1122 2956 1747 
Q 2956 2369 2687 2733 
Q 2419 3097 1959 3097 
z
M 1959 3584 
Q 2709 3584 3137 3096 
Q 3566 2609 3566 1747 
Q 3566 888 3137 398 
Q 2709 -91 1959 -91 
Q 1206 -91 779 398 
Q 353 888 353 1747 
Q 353 2609 779 3096 
Q 1206 3584 1959 3584 
z
" transform="scale(0.015625)"/>
       <path id="DejaVuSans-75" d="M 544 1381 
L 544 3500 
L 1119 3500 
L 1119 1403 
Q 1119 906 1312 657 
Q 1506 409 1894 409 
Q 2359 409 2629 706 
Q 2900 1003 2900 1516 
L 2900 3500 
L 3475 3500 
L 3475 0 
L 2900 0 
L 2900 538 
Q 2691 219 2414 64 
Q 2138 -91 1772 -91 
Q 1169 -91 856 284 
Q 544 659 544 1381 
z
M 1991 3584 
L 1991 3584 
z
" transform="scale(0.015625)"/>
       <path id="DejaVuSans-6e" d="M 3513 2113 
L 3513 0 
L 2938 0 
L 2938 2094 
Q 2938 2591 2744 2837 
Q 2550 3084 2163 3084 
Q 1697 3084 1428 2787 
Q 1159 2491 1159 1978 
L 1159 0 
L 581 0 
L 581 3500 
L 1159 3500 
L 1159 2956 
Q 1366 3272 1645 3428 
Q 1925 3584 2291 3584 
Q 2894 3584 3203 3211 
Q 3513 2838 3513 2113 
z
" transform="scale(0.015625)"/>
      </defs>
      <use xlink:href="#DejaVuSans-5b"/>
      <use xlink:href="#DejaVuSans-63" transform="translate(39.013672 0)"/>
      <use xlink:href="#DejaVuSans-6f" transform="translate(93.994141 0)"/>
      <use xlink:href="#DejaVuSans-75" transform="translate(155.175781 0)"/>
      <use xlink:href="#DejaVuSans-6e" transform="translate(218.554688 0)"/>
      <use xlink:href="#DejaVuSans-74" transform="translate(281.933594 0)"/>
      <use xlink:href="#DejaVuSans-73" transform="translate(321.142578 0)"/>
      <use xlink:href="#DejaVuSans-5d" transform="translate(373.242188 0)"/>
     </g>
    </g>
   </g>
   <g id="line2d_14">
    <path d="M 69.749563 235.073245 
L 70.844325 235.073245 
L 70.844325 229.52641 
L 71.939088 229.52641 
L 71.939088 224.164469 
L 73.033851 224.164469 
L 73.033851 216.02911 
L 74.128613 216.02911 
L 74.128613 205.675017 
L 75.223376 205.675017 
L 75.223376 195.505819 
L 76.318138 195.505819 
L 76.318138 183.487675 
L 77.412901 183.487675 
L 77.412901 171.839321 
L 78.507663 171.839321 
L 78.507663 169.990376 
L 79.602426 169.990376 
L 79.602426 164.628435 
L 80.697188 164.628435 
L 80.697188 145.954089 
L 81.791951 145.954089 
L 81.791951 147.433245 
L 82.886713 147.433245 
L 82.886713 145.029616 
L 83.981476 145.029616 
L 83.981476 131.532317 
L 85.076238 131.532317 
L 85.076238 129.498477 
L 86.171001 129.498477 
L 86.171001 125.245903 
L 87.265763 125.245903 
L 87.265763 122.472485 
L 88.360526 122.472485 
L 88.360526 114.337127 
L 89.455288 114.337127 
L 89.455288 113.412654 
L 90.550051 113.412654 
L 90.550051 107.49603 
L 91.644814 107.49603 
L 91.644814 100.100249 
L 92.739576 100.100249 
L 92.739576 96.03257 
L 93.834339 96.03257 
L 93.834339 92.334679 
L 94.929101 92.334679 
L 94.929101 100.100249 
L 96.023864 100.100249 
L 96.023864 84.754004 
L 97.118626 84.754004 
L 97.118626 82.350376 
L 98.213389 82.350376 
L 98.213389 77.358224 
L 99.308151 77.358224 
L 99.308151 84.199321 
L 100.402914 84.199321 
L 100.402914 80.316536 
L 101.497676 80.316536 
L 101.497676 82.165481 
L 102.592439 82.165481 
L 102.592439 79.946747 
L 103.687201 79.946747 
L 103.687201 77.358224 
L 104.781964 77.358224 
L 104.781964 69.40776 
L 105.876726 69.40776 
L 105.876726 65.524975 
L 106.971489 65.524975 
L 106.971489 60.902612 
L 108.066252 60.902612 
L 108.066252 67.37392 
L 109.161014 67.37392 
L 109.161014 65.34008 
L 110.255777 65.34008 
L 110.255777 62.566663 
L 111.350539 62.566663 
L 111.350539 55.725565 
L 112.445302 55.725565 
L 112.445302 50.733414 
L 113.540064 50.733414 
L 113.540064 53.321937 
L 114.634827 53.321937 
L 114.634827 56.465144 
L 115.729589 56.465144 
L 115.729589 49.808941 
L 116.824352 49.808941 
L 116.824352 49.069363 
L 117.919114 49.069363 
L 117.919114 64.785397 
L 119.013877 64.785397 
L 119.013877 46.111051 
L 120.108639 46.111051 
L 120.108639 57.574511 
L 121.203402 57.574511 
L 121.203402 50.733414 
L 122.298164 50.733414 
L 122.298164 50.548519 
L 123.392927 50.548519 
L 123.392927 36.68143 
L 124.487689 36.68143 
L 124.487689 45.001684 
L 125.582452 45.001684 
L 125.582452 36.126747 
L 126.677215 36.126747 
L 126.677215 42.41316 
L 127.771977 42.41316 
L 127.771977 36.496536 
L 128.86674 36.496536 
L 128.86674 47.590207 
L 129.961502 47.590207 
L 129.961502 44.631895 
L 131.056265 44.631895 
L 131.056265 50.733414 
L 132.151027 50.733414 
L 132.151027 46.850629 
L 133.24579 46.850629 
L 133.24579 44.447 
L 134.340552 44.447 
L 134.340552 33.538224 
L 135.435315 33.538224 
L 135.435315 36.866325 
L 136.530077 36.866325 
L 136.530077 45.001684 
L 137.62484 45.001684 
L 137.62484 38.160587 
L 138.719602 38.160587 
L 138.719602 39.269954 
L 139.814365 39.269954 
L 139.814365 46.48084 
L 140.909127 46.48084 
L 140.909127 45.001684 
L 142.00389 45.001684 
L 142.00389 27.621599 
L 143.098652 27.621599 
L 143.098652 27.436705 
L 144.193415 27.436705 
L 144.193415 33.168435 
L 145.288178 33.168435 
L 145.288178 34.092907 
L 146.38294 34.092907 
L 146.38294 35.387169 
L 147.477703 35.387169 
L 147.477703 32.243962 
L 148.572465 32.243962 
L 148.572465 39.085059 
L 149.667228 39.085059 
L 149.667228 41.673582 
L 150.76199 41.673582 
L 150.76199 34.832485 
L 151.856753 34.832485 
L 151.856753 25.957549 
L 152.951515 25.957549 
L 152.951515 41.488688 
L 154.046278 41.488688 
L 154.046278 35.756958 
L 155.14104 35.756958 
L 155.14104 38.530376 
L 156.235803 38.530376 
L 156.235803 31.504384 
L 157.330565 31.504384 
L 157.330565 49.254257 
L 158.425328 49.254257 
L 158.425328 24.663287 
L 159.52009 24.663287 
L 159.52009 35.202274 
L 160.614853 35.202274 
L 160.614853 31.689279 
L 161.709615 31.689279 
L 161.709615 35.01738 
L 162.804378 35.01738 
L 162.804378 35.202274 
L 163.899141 35.202274 
L 163.899141 37.051219 
L 164.993903 37.051219 
L 164.993903 31.874173 
L 166.088666 31.874173 
L 166.088666 41.118899 
L 167.183428 41.118899 
L 167.183428 36.496536 
L 168.278191 36.496536 
L 168.278191 23.923709 
L 169.372953 23.923709 
L 169.372953 41.118899 
L 170.467716 41.118899 
L 170.467716 27.25181 
L 171.562478 27.25181 
L 171.562478 37.790798 
L 172.657241 37.790798 
L 172.657241 31.319489 
L 173.752003 31.319489 
L 173.752003 25.21797 
L 174.846766 25.21797 
L 174.846766 32.428857 
L 175.941528 32.428857 
L 175.941528 28.361177 
L 177.036291 28.361177 
L 177.036291 36.866325 
L 178.131053 36.866325 
L 178.131053 36.126747 
L 179.225816 36.126747 
L 179.225816 31.134595 
L 180.320579 31.134595 
L 180.320579 38.530376 
L 181.415341 38.530376 
L 181.415341 29.100755 
L 182.510104 29.100755 
L 182.510104 33.538224 
L 183.604866 33.538224 
L 183.604866 40.564215 
L 184.699629 40.564215 
L 184.699629 27.066916 
L 185.794391 27.066916 
L 185.794391 39.454848 
L 186.889154 39.454848 
L 186.889154 30.579911 
L 187.983916 30.579911 
L 187.983916 28.176283 
L 189.078679 28.176283 
L 189.078679 33.908013 
L 190.173441 33.908013 
L 190.173441 43.522527 
L 191.268204 43.522527 
L 191.268204 22.629447 
L 192.362966 22.629447 
L 192.362966 38.160587 
L 193.457729 38.160587 
L 193.457729 40.194426 
L 194.552491 40.194426 
L 194.552491 33.538224 
L 195.647254 33.538224 
L 195.647254 30.764806 
L 196.742016 30.764806 
L 196.742016 26.697127 
L 197.836779 26.697127 
L 197.836779 28.361177 
L 198.931542 28.361177 
L 198.931542 31.134595 
L 200.026304 31.134595 
L 200.026304 34.277802 
L 201.121067 34.277802 
L 201.121067 26.327338 
L 202.215829 26.327338 
L 202.215829 23.923709 
L 203.310592 23.923709 
L 203.310592 35.941852 
L 204.405354 35.941852 
L 204.405354 33.353329 
L 205.500117 33.353329 
L 205.500117 36.496536 
L 206.594879 36.496536 
L 206.594879 29.470544 
L 207.689642 29.470544 
L 207.689642 35.202274 
L 208.784404 35.202274 
L 208.784404 30.210122 
L 209.879167 30.210122 
L 209.879167 35.202274 
L 210.973929 35.202274 
L 210.973929 25.772654 
L 212.068692 25.772654 
L 212.068692 31.689279 
L 213.163454 31.689279 
L 213.163454 33.908013 
L 214.258217 33.908013 
L 214.258217 36.126747 
L 216.447742 36.126747 
L 216.447742 43.892317 
L 217.542505 43.892317 
L 217.542505 34.647591 
L 218.637267 34.647591 
L 218.637267 42.967844 
L 219.73203 42.967844 
L 219.73203 30.9497 
L 220.826792 30.9497 
L 220.826792 35.941852 
L 221.921555 35.941852 
L 221.921555 26.142443 
L 223.016317 26.142443 
L 223.016317 39.269954 
L 224.11108 39.269954 
L 224.11108 41.118899 
L 225.205842 41.118899 
L 225.205842 36.496536 
L 226.300605 36.496536 
L 226.300605 29.100755 
L 227.395367 29.100755 
L 227.395367 27.991388 
L 228.49013 27.991388 
L 228.49013 33.353329 
L 229.584892 33.353329 
L 229.584892 26.697127 
L 230.679655 26.697127 
L 230.679655 30.9497 
L 231.774417 30.9497 
L 231.774417 24.108603 
L 232.86918 24.108603 
L 232.86918 27.621599 
L 233.963942 27.621599 
L 233.963942 33.353329 
L 235.058705 33.353329 
L 235.058705 25.21797 
L 236.153468 25.21797 
L 236.153468 35.387169 
L 237.24823 35.387169 
L 237.24823 33.723118 
L 238.342993 33.723118 
L 238.342993 31.134595 
L 239.437755 31.134595 
L 239.437755 29.840333 
L 240.532518 29.840333 
L 240.532518 21.335186 
L 241.62728 21.335186 
L 241.62728 23.184131 
L 242.722043 23.184131 
L 242.722043 36.311641 
L 243.816805 36.311641 
L 243.816805 34.092907 
L 244.911568 34.092907 
L 244.911568 40.934004 
L 246.00633 40.934004 
L 246.00633 36.311641 
L 247.101093 36.311641 
L 247.101093 22.999236 
L 248.195855 22.999236 
L 248.195855 35.387169 
L 249.290618 35.387169 
L 249.290618 18.561768 
L 250.38538 18.561768 
L 250.38538 25.58776 
L 251.480143 25.58776 
L 251.480143 33.908013 
L 252.574906 33.908013 
L 252.574906 32.243962 
L 253.669668 32.243962 
L 253.669668 37.051219 
L 254.764431 37.051219 
L 254.764431 29.470544 
L 255.859193 29.470544 
L 255.859193 31.689279 
L 256.953956 31.689279 
L 256.953956 36.496536 
L 258.048718 36.496536 
L 258.048718 50.363625 
L 259.143481 50.363625 
L 259.143481 53.321937 
L 260.238243 53.321937 
L 260.238243 45.001684 
L 261.333006 45.001684 
L 261.333006 57.204722 
L 262.427768 57.204722 
L 262.427768 62.381768 
L 263.522531 62.381768 
L 263.522531 78.652485 
L 264.617293 78.652485 
L 264.617293 85.493582 
L 265.712056 85.493582 
L 265.712056 89.191473 
L 266.806818 89.191473 
L 266.806818 103.613245 
L 267.901581 103.613245 
L 267.901581 109.16008 
L 268.996343 109.16008 
L 268.996343 115.446494 
L 270.091106 115.446494 
L 270.091106 127.279743 
L 271.185869 127.279743 
L 271.185869 126.725059 
L 272.280631 126.725059 
L 272.280631 141.331726 
L 273.375394 141.331726 
L 273.375394 151.500924 
L 274.470156 151.500924 
L 274.470156 147.987929 
L 275.564919 147.987929 
L 275.564919 149.836874 
L 276.659681 149.836874 
L 276.659681 160.74565 
L 277.754444 160.74565 
L 277.754444 158.157127 
L 278.849206 158.157127 
L 278.849206 162.409701 
L 279.943969 162.409701 
L 279.943969 171.654426 
L 281.038731 171.654426 
L 281.038731 172.578899 
L 282.133494 172.578899 
L 282.133494 183.487675 
L 283.228256 183.487675 
L 283.228256 183.857464 
L 284.323019 183.857464 
L 284.323019 189.219405 
L 285.417781 189.219405 
L 285.417781 183.302781 
L 286.512544 183.302781 
L 286.512544 193.841768 
L 287.607306 193.841768 
L 287.607306 192.547507 
L 288.702069 192.547507 
L 288.702069 196.060502 
L 289.796832 196.060502 
L 289.796832 204.010967 
L 290.891594 204.010967 
L 290.891594 204.750545 
L 291.986357 204.750545 
L 291.986357 199.943287 
L 293.081119 199.943287 
L 293.081119 208.078646 
L 294.175882 208.078646 
L 294.175882 206.044806 
L 295.270644 206.044806 
L 295.270644 204.010967 
L 296.365407 204.010967 
L 296.365407 212.516114 
L 297.460169 212.516114 
L 297.460169 218.802528 
L 298.554932 218.802528 
L 298.554932 215.104638 
L 299.649694 215.104638 
L 299.649694 220.096789 
L 300.744457 220.096789 
L 300.744457 217.508266 
L 301.839219 217.508266 
L 301.839219 222.685313 
L 302.933982 222.685313 
L 302.933982 218.617633 
L 304.028744 218.617633 
L 304.028744 223.424891 
L 305.123507 223.424891 
L 305.123507 224.904047 
L 306.218269 224.904047 
L 306.218269 222.870207 
L 307.313032 222.870207 
L 307.313032 226.568097 
L 308.407795 226.568097 
L 308.407795 229.52641 
L 309.502557 229.52641 
L 309.502557 230.635777 
L 310.59732 230.635777 
L 310.59732 226.937887 
L 311.692082 226.937887 
L 311.692082 229.341515 
L 312.786845 229.341515 
L 312.786845 234.888351 
L 313.881607 234.888351 
L 313.881607 232.114933 
L 314.97637 232.114933 
L 314.97637 232.854511 
L 316.071132 232.854511 
L 316.071132 231.19046 
L 317.165895 231.19046 
L 317.165895 235.812823 
L 318.260657 235.812823 
L 318.260657 234.888351 
L 319.35542 234.888351 
L 319.35542 236.552401 
L 320.450182 236.552401 
L 320.450182 237.291979 
L 321.544945 237.291979 
L 321.544945 237.846663 
L 322.639707 237.846663 
L 322.639707 235.812823 
L 323.73447 235.812823 
L 323.73447 237.661768 
L 324.829233 237.661768 
L 324.829233 238.771135 
L 327.018758 238.771135 
L 327.018758 238.031557 
L 328.11352 238.031557 
L 328.11352 240.065397 
L 329.208283 240.065397 
L 329.208283 239.325819 
L 330.303045 239.325819 
L 330.303045 240.065397 
L 331.397808 240.065397 
L 331.397808 240.250292 
L 332.49257 240.250292 
L 332.49257 240.065397 
L 333.587333 240.065397 
L 333.587333 239.695608 
L 334.682095 239.695608 
L 334.682095 240.804975 
L 335.776858 240.804975 
L 335.776858 241.914342 
L 336.87162 241.914342 
L 336.87162 242.65392 
L 337.966383 242.65392 
L 337.966383 241.174764 
L 339.061145 241.174764 
L 339.061145 241.914342 
L 340.155908 241.914342 
L 340.155908 242.469026 
L 341.25067 242.469026 
L 341.25067 240.435186 
L 343.440196 240.435186 
L 343.440196 242.65392 
L 344.534958 242.65392 
L 344.534958 243.948182 
L 345.629721 243.948182 
L 345.629721 244.133076 
L 346.724483 244.133076 
L 346.724483 243.393498 
L 347.819246 243.393498 
L 347.819246 242.469026 
L 348.914008 242.469026 
L 348.914008 243.393498 
L 350.008771 243.393498 
L 350.008771 243.763287 
L 352.198296 243.763287 
L 352.198296 244.502865 
L 353.293058 244.502865 
L 353.293058 244.317971 
L 354.387821 244.317971 
L 354.387821 244.68776 
L 355.482583 244.68776 
L 355.482583 243.578393 
L 356.577346 243.578393 
L 356.577346 243.948182 
L 357.672108 243.948182 
L 357.672108 243.578393 
L 358.766871 243.578393 
L 358.766871 244.872654 
L 359.861633 244.872654 
L 359.861633 244.133076 
L 360.956396 244.133076 
L 360.956396 244.68776 
L 362.051159 244.68776 
L 362.051159 243.578393 
L 363.145921 243.578393 
L 363.145921 244.317971 
L 364.240684 244.317971 
L 364.240684 244.68776 
L 365.335446 244.68776 
L 365.335446 244.872654 
L 366.430209 244.872654 
L 366.430209 245.057549 
L 367.524971 245.057549 
L 367.524971 244.872654 
L 368.619734 244.872654 
L 368.619734 245.612233 
L 370.809259 245.612233 
L 370.809259 245.242444 
L 372.998784 245.242444 
L 372.998784 245.612233 
L 374.093546 245.612233 
L 374.093546 245.427338 
L 375.188309 245.427338 
L 375.188309 245.797127 
L 376.283071 245.797127 
L 376.283071 245.612233 
L 377.377834 245.612233 
L 377.377834 245.057549 
L 378.472596 245.057549 
L 378.472596 245.427338 
L 379.567359 245.427338 
L 379.567359 245.612233 
L 381.756884 245.612233 
L 381.756884 245.797127 
L 385.041172 245.797127 
L 385.041172 245.427338 
L 386.135934 245.427338 
L 386.135934 245.797127 
L 387.230697 245.797127 
L 387.230697 245.612233 
L 388.325459 245.612233 
L 388.325459 244.872654 
L 389.420222 244.872654 
L 389.420222 245.427338 
L 390.514984 245.427338 
L 390.514984 245.242444 
L 391.609747 245.242444 
L 391.609747 245.797127 
L 397.08356 245.797127 
L 397.08356 245.427338 
L 398.178322 245.427338 
L 398.178322 245.427338 
" clip-path="url(#pdbc91b3aab)" style="fill: none; stroke: #1f77b4; stroke-width: 1.5; stroke-linecap: square"/>
   </g>
   <g id="patch_3">
    <path d="M 53.328125 257.158895 
L 53.328125 7.2 
" style="fill: none; stroke: #000000; stroke-width: 0.8; stroke-linejoin: miter; stroke-linecap: square"/>
   </g>
   <g id="patch_4">
    <path d="M 414.59976 257.158895 
L 414.59976 7.2 
" style="fill: none; stroke: #000000; stroke-width: 0.8; stroke-linejoin: miter; stroke-linecap: square"/>
   </g>
   <g id="patch_5">
    <path d="M 53.328125 257.158895 
L 414.59976 257.158895 
" style="fill: none; stroke: #000000; stroke-width: 0.8; stroke-linejoin: miter; stroke-linecap: square"/>
   </g>
   <g id="patch_6">
    <path d="M 53.328125 7.2 
L 414.59976 7.2 
" style="fill: none; stroke: #000000; stroke-width: 0.8; stroke-linejoin: miter; stroke-linecap: square"/>
   </g>
  </g>
  <g id="axes_2">
   <g id="patch_7">
    <path d="M 503.927885 257.158895 
L 865.19952 257.158895 
L 865.19952 7.2 
L 503.927885 7.2 
z
" style="fill: #ffffff"/>
   </g>
   <g id="matplotlib.axis_3">
    <g id="xtick_7">
     <g id="line2d_15">
      <g>
       <use xlink:href="#m1d9d7de22a" x="517.039772" y="257.158895" style="stroke: #000000; stroke-width: 0.8"/>
      </g>
     </g>
     <g id="text_16">
      <!-- 0.0 -->
      <g transform="translate(509.08821 271.757332) scale(0.1 -0.1)">
       <defs>
        <path id="DejaVuSans-2e" d="M 684 794 
L 1344 794 
L 1344 0 
L 684 0 
L 684 794 
z
" transform="scale(0.015625)"/>
       </defs>
       <use xlink:href="#DejaVuSans-30"/>
       <use xlink:href="#DejaVuSans-2e" transform="translate(63.623047 0)"/>
       <use xlink:href="#DejaVuSans-30" transform="translate(95.410156 0)"/>
      </g>
     </g>
    </g>
    <g id="xtick_8">
     <g id="line2d_16">
      <g>
       <use xlink:href="#m1d9d7de22a" x="558.715946" y="257.158895" style="stroke: #000000; stroke-width: 0.8"/>
      </g>
     </g>
     <g id="text_17">
      <!-- 2.5 -->
      <g transform="translate(550.764383 271.757332) scale(0.1 -0.1)">
       <use xlink:href="#DejaVuSans-32"/>
       <use xlink:href="#DejaVuSans-2e" transform="translate(63.623047 0)"/>
       <use xlink:href="#DejaVuSans-35" transform="translate(95.410156 0)"/>
      </g>
     </g>
    </g>
    <g id="xtick_9">
     <g id="line2d_17">
      <g>
       <use xlink:href="#m1d9d7de22a" x="600.39212" y="257.158895" style="stroke: #000000; stroke-width: 0.8"/>
      </g>
     </g>
     <g id="text_18">
      <!-- 5.0 -->
      <g transform="translate(592.440557 271.757332) scale(0.1 -0.1)">
       <use xlink:href="#DejaVuSans-35"/>
       <use xlink:href="#DejaVuSans-2e" transform="translate(63.623047 0)"/>
       <use xlink:href="#DejaVuSans-30" transform="translate(95.410156 0)"/>
      </g>
     </g>
    </g>
    <g id="xtick_10">
     <g id="line2d_18">
      <g>
       <use xlink:href="#m1d9d7de22a" x="642.068293" y="257.158895" style="stroke: #000000; stroke-width: 0.8"/>
      </g>
     </g>
     <g id="text_19">
      <!-- 7.5 -->
      <g transform="translate(634.116731 271.757332) scale(0.1 -0.1)">
       <defs>
        <path id="DejaVuSans-37" d="M 525 4666 
L 3525 4666 
L 3525 4397 
L 1831 0 
L 1172 0 
L 2766 4134 
L 525 4134 
L 525 4666 
z
" transform="scale(0.015625)"/>
       </defs>
       <use xlink:href="#DejaVuSans-37"/>
       <use xlink:href="#DejaVuSans-2e" transform="translate(63.623047 0)"/>
       <use xlink:href="#DejaVuSans-35" transform="translate(95.410156 0)"/>
      </g>
     </g>
    </g>
    <g id="xtick_11">
     <g id="line2d_19">
      <g>
       <use xlink:href="#m1d9d7de22a" x="683.744467" y="257.158895" style="stroke: #000000; stroke-width: 0.8"/>
      </g>
     </g>
     <g id="text_20">
      <!-- 10.0 -->
      <g transform="translate(672.611655 271.757332) scale(0.1 -0.1)">
       <use xlink:href="#DejaVuSans-31"/>
       <use xlink:href="#DejaVuSans-30" transform="translate(63.623047 0)"/>
       <use xlink:href="#DejaVuSans-2e" transform="translate(127.246094 0)"/>
       <use xlink:href="#DejaVuSans-30" transform="translate(159.033203 0)"/>
      </g>
     </g>
    </g>
    <g id="xtick_12">
     <g id="line2d_20">
      <g>
       <use xlink:href="#m1d9d7de22a" x="725.420641" y="257.158895" style="stroke: #000000; stroke-width: 0.8"/>
      </g>
     </g>
     <g id="text_21">
      <!-- 12.5 -->
      <g transform="translate(714.287828 271.757332) scale(0.1 -0.1)">
       <use xlink:href="#DejaVuSans-31"/>
       <use xlink:href="#DejaVuSans-32" transform="translate(63.623047 0)"/>
       <use xlink:href="#DejaVuSans-2e" transform="translate(127.246094 0)"/>
       <use xlink:href="#DejaVuSans-35" transform="translate(159.033203 0)"/>
      </g>
     </g>
    </g>
    <g id="xtick_13">
     <g id="line2d_21">
      <g>
       <use xlink:href="#m1d9d7de22a" x="767.096814" y="257.158895" style="stroke: #000000; stroke-width: 0.8"/>
      </g>
     </g>
     <g id="text_22">
      <!-- 15.0 -->
      <g transform="translate(755.964002 271.757332) scale(0.1 -0.1)">
       <use xlink:href="#DejaVuSans-31"/>
       <use xlink:href="#DejaVuSans-35" transform="translate(63.623047 0)"/>
       <use xlink:href="#DejaVuSans-2e" transform="translate(127.246094 0)"/>
       <use xlink:href="#DejaVuSans-30" transform="translate(159.033203 0)"/>
      </g>
     </g>
    </g>
    <g id="xtick_14">
     <g id="line2d_22">
      <g>
       <use xlink:href="#m1d9d7de22a" x="808.772988" y="257.158895" style="stroke: #000000; stroke-width: 0.8"/>
      </g>
     </g>
     <g id="text_23">
      <!-- 17.5 -->
      <g transform="translate(797.640176 271.757332) scale(0.1 -0.1)">
       <use xlink:href="#DejaVuSans-31"/>
       <use xlink:href="#DejaVuSans-37" transform="translate(63.623047 0)"/>
       <use xlink:href="#DejaVuSans-2e" transform="translate(127.246094 0)"/>
       <use xlink:href="#DejaVuSans-35" transform="translate(159.033203 0)"/>
      </g>
     </g>
    </g>
    <g id="xtick_15">
     <g id="line2d_23">
      <g>
       <use xlink:href="#m1d9d7de22a" x="850.449162" y="257.158895" style="stroke: #000000; stroke-width: 0.8"/>
      </g>
     </g>
     <g id="text_24">
      <!-- 20.0 -->
      <g transform="translate(839.316349 271.757332) scale(0.1 -0.1)">
       <use xlink:href="#DejaVuSans-32"/>
       <use xlink:href="#DejaVuSans-30" transform="translate(63.623047 0)"/>
       <use xlink:href="#DejaVuSans-2e" transform="translate(127.246094 0)"/>
       <use xlink:href="#DejaVuSans-30" transform="translate(159.033203 0)"/>
      </g>
     </g>
    </g>
    <g id="text_25">
     <!-- wavelength [Å] -->
     <g transform="translate(646.526202 287.119832) scale(0.1 -0.1)">
      <defs>
       <path id="DejaVuSans-77" d="M 269 3500 
L 844 3500 
L 1563 769 
L 2278 3500 
L 2956 3500 
L 3675 769 
L 4391 3500 
L 4966 3500 
L 4050 0 
L 3372 0 
L 2619 2869 
L 1863 0 
L 1184 0 
L 269 3500 
z
" transform="scale(0.015625)"/>
       <path id="DejaVuSans-61" d="M 2194 1759 
Q 1497 1759 1228 1600 
Q 959 1441 959 1056 
Q 959 750 1161 570 
Q 1363 391 1709 391 
Q 2188 391 2477 730 
Q 2766 1069 2766 1631 
L 2766 1759 
L 2194 1759 
z
M 3341 1997 
L 3341 0 
L 2766 0 
L 2766 531 
Q 2569 213 2275 61 
Q 1981 -91 1556 -91 
Q 1019 -91 701 211 
Q 384 513 384 1019 
Q 384 1609 779 1909 
Q 1175 2209 1959 2209 
L 2766 2209 
L 2766 2266 
Q 2766 2663 2505 2880 
Q 2244 3097 1772 3097 
Q 1472 3097 1187 3025 
Q 903 2953 641 2809 
L 641 3341 
Q 956 3463 1253 3523 
Q 1550 3584 1831 3584 
Q 2591 3584 2966 3190 
Q 3341 2797 3341 1997 
z
" transform="scale(0.015625)"/>
       <path id="DejaVuSans-76" d="M 191 3500 
L 800 3500 
L 1894 563 
L 2988 3500 
L 3597 3500 
L 2284 0 
L 1503 0 
L 191 3500 
z
" transform="scale(0.015625)"/>
       <path id="DejaVuSans-6c" d="M 603 4863 
L 1178 4863 
L 1178 0 
L 603 0 
L 603 4863 
z
" transform="scale(0.015625)"/>
       <path id="DejaVuSans-67" d="M 2906 1791 
Q 2906 2416 2648 2759 
Q 2391 3103 1925 3103 
Q 1463 3103 1205 2759 
Q 947 2416 947 1791 
Q 947 1169 1205 825 
Q 1463 481 1925 481 
Q 2391 481 2648 825 
Q 2906 1169 2906 1791 
z
M 3481 434 
Q 3481 -459 3084 -895 
Q 2688 -1331 1869 -1331 
Q 1566 -1331 1297 -1286 
Q 1028 -1241 775 -1147 
L 775 -588 
Q 1028 -725 1275 -790 
Q 1522 -856 1778 -856 
Q 2344 -856 2625 -561 
Q 2906 -266 2906 331 
L 2906 616 
Q 2728 306 2450 153 
Q 2172 0 1784 0 
Q 1141 0 747 490 
Q 353 981 353 1791 
Q 353 2603 747 3093 
Q 1141 3584 1784 3584 
Q 2172 3584 2450 3431 
Q 2728 3278 2906 2969 
L 2906 3500 
L 3481 3500 
L 3481 434 
z
" transform="scale(0.015625)"/>
       <path id="DejaVuSans-c5" d="M 2663 5081 
Q 2663 5278 2523 5417 
Q 2384 5556 2188 5556 
Q 1988 5556 1852 5420 
Q 1716 5284 1716 5081 
Q 1716 4884 1853 4746 
Q 1991 4609 2188 4609 
Q 2384 4609 2523 4746 
Q 2663 4884 2663 5081 
z
M 2188 4044 
L 1338 1722 
L 3041 1722 
L 2188 4044 
z
M 1716 4366 
Q 1525 4494 1428 4673 
Q 1331 4853 1331 5081 
Q 1331 5441 1579 5691 
Q 1828 5941 2188 5941 
Q 2544 5941 2795 5689 
Q 3047 5438 3047 5081 
Q 3047 4863 2948 4678 
Q 2850 4494 2663 4366 
L 4325 0 
L 3669 0 
L 3244 1197 
L 1141 1197 
L 716 0 
L 50 0 
L 1716 4366 
z
" transform="scale(0.015625)"/>
      </defs>
      <use xlink:href="#DejaVuSans-77"/>
      <use xlink:href="#DejaVuSans-61" transform="translate(81.787109 0)"/>
      <use xlink:href="#DejaVuSans-76" transform="translate(143.066406 0)"/>
      <use xlink:href="#DejaVuSans-65" transform="translate(202.246094 0)"/>
      <use xlink:href="#DejaVuSans-6c" transform="translate(263.769531 0)"/>
      <use xlink:href="#DejaVuSans-65" transform="translate(291.552734 0)"/>
      <use xlink:href="#DejaVuSans-6e" transform="translate(353.076172 0)"/>
      <use xlink:href="#DejaVuSans-67" transform="translate(416.455078 0)"/>
      <use xlink:href="#DejaVuSans-74" transform="translate(479.931641 0)"/>
      <use xlink:href="#DejaVuSans-68" transform="translate(519.140625 0)"/>
      <use xlink:href="#DejaVuSans-20" transform="translate(582.519531 0)"/>
      <use xlink:href="#DejaVuSans-5b" transform="translate(614.306641 0)"/>
      <use xlink:href="#DejaVuSans-c5" transform="translate(653.320312 0)"/>
      <use xlink:href="#DejaVuSans-5d" transform="translate(721.728516 0)"/>
     </g>
    </g>
   </g>
   <g id="matplotlib.axis_4">
    <g id="ytick_8">
     <g id="line2d_24">
      <g>
       <use xlink:href="#m28f5eb9393" x="503.927885" y="245.797127" style="stroke: #000000; stroke-width: 0.8"/>
      </g>
     </g>
     <g id="text_26">
      <!-- 0 -->
      <g transform="translate(490.565385 249.596346) scale(0.1 -0.1)">
       <use xlink:href="#DejaVuSans-30"/>
      </g>
     </g>
    </g>
    <g id="ytick_9">
     <g id="line2d_25">
      <g>
       <use xlink:href="#m28f5eb9393" x="503.927885" y="192.976263" style="stroke: #000000; stroke-width: 0.8"/>
      </g>
     </g>
     <g id="text_27">
      <!-- 1000 -->
      <g transform="translate(471.477885 196.775481) scale(0.1 -0.1)">
       <use xlink:href="#DejaVuSans-31"/>
       <use xlink:href="#DejaVuSans-30" transform="translate(63.623047 0)"/>
       <use xlink:href="#DejaVuSans-30" transform="translate(127.246094 0)"/>
       <use xlink:href="#DejaVuSans-30" transform="translate(190.869141 0)"/>
      </g>
     </g>
    </g>
    <g id="ytick_10">
     <g id="line2d_26">
      <g>
       <use xlink:href="#m28f5eb9393" x="503.927885" y="140.155398" style="stroke: #000000; stroke-width: 0.8"/>
      </g>
     </g>
     <g id="text_28">
      <!-- 2000 -->
      <g transform="translate(471.477885 143.954617) scale(0.1 -0.1)">
       <use xlink:href="#DejaVuSans-32"/>
       <use xlink:href="#DejaVuSans-30" transform="translate(63.623047 0)"/>
       <use xlink:href="#DejaVuSans-30" transform="translate(127.246094 0)"/>
       <use xlink:href="#DejaVuSans-30" transform="translate(190.869141 0)"/>
      </g>
     </g>
    </g>
    <g id="ytick_11">
     <g id="line2d_27">
      <g>
       <use xlink:href="#m28f5eb9393" x="503.927885" y="87.334534" style="stroke: #000000; stroke-width: 0.8"/>
      </g>
     </g>
     <g id="text_29">
      <!-- 3000 -->
      <g transform="translate(471.477885 91.133752) scale(0.1 -0.1)">
       <use xlink:href="#DejaVuSans-33"/>
       <use xlink:href="#DejaVuSans-30" transform="translate(63.623047 0)"/>
       <use xlink:href="#DejaVuSans-30" transform="translate(127.246094 0)"/>
       <use xlink:href="#DejaVuSans-30" transform="translate(190.869141 0)"/>
      </g>
     </g>
    </g>
    <g id="ytick_12">
     <g id="line2d_28">
      <g>
       <use xlink:href="#m28f5eb9393" x="503.927885" y="34.513669" style="stroke: #000000; stroke-width: 0.8"/>
      </g>
     </g>
     <g id="text_30">
      <!-- 4000 -->
      <g transform="translate(471.477885 38.312888) scale(0.1 -0.1)">
       <use xlink:href="#DejaVuSans-34"/>
       <use xlink:href="#DejaVuSans-30" transform="translate(63.623047 0)"/>
       <use xlink:href="#DejaVuSans-30" transform="translate(127.246094 0)"/>
       <use xlink:href="#DejaVuSans-30" transform="translate(190.869141 0)"/>
      </g>
     </g>
    </g>
    <g id="text_31">
     <!-- [counts] -->
     <g transform="translate(465.398197 152.791947) rotate(-90) scale(0.1 -0.1)">
      <use xlink:href="#DejaVuSans-5b"/>
      <use xlink:href="#DejaVuSans-63" transform="translate(39.013672 0)"/>
      <use xlink:href="#DejaVuSans-6f" transform="translate(93.994141 0)"/>
      <use xlink:href="#DejaVuSans-75" transform="translate(155.175781 0)"/>
      <use xlink:href="#DejaVuSans-6e" transform="translate(218.554688 0)"/>
      <use xlink:href="#DejaVuSans-74" transform="translate(281.933594 0)"/>
      <use xlink:href="#DejaVuSans-73" transform="translate(321.142578 0)"/>
      <use xlink:href="#DejaVuSans-5d" transform="translate(373.242188 0)"/>
     </g>
    </g>
   </g>
   <g id="line2d_29">
    <path d="M 520.349323 158.167313 
L 521.444085 158.167313 
L 521.444085 144.116963 
L 522.538848 144.116963 
L 522.538848 135.718445 
L 523.633611 135.718445 
L 523.633611 137.303071 
L 524.728373 137.303071 
L 524.728373 147.920065 
L 525.823136 147.920065 
L 525.823136 149.980079 
L 526.917898 149.980079 
L 526.917898 142.902083 
L 528.012661 142.902083 
L 528.012661 123.886572 
L 529.107423 123.886572 
L 529.107423 104.184389 
L 530.202186 104.184389 
L 530.202186 86.066833 
L 531.296948 86.066833 
L 531.296948 60.078967 
L 532.391711 60.078967 
L 532.391711 38.369592 
L 533.486473 38.369592 
L 533.486473 25.692585 
L 534.581236 25.692585 
L 534.581236 30.076716 
L 535.675998 30.076716 
L 535.675998 18.561768 
L 536.770761 18.561768 
L 536.770761 20.885886 
L 537.865523 20.885886 
L 537.865523 38.739338 
L 538.960286 38.739338 
L 538.960286 40.69371 
L 540.055048 40.69371 
L 540.055048 49.197869 
L 541.149811 49.197869 
L 541.149811 59.286654 
L 542.244574 59.286654 
L 542.244574 68.900052 
L 543.339336 68.900052 
L 543.339336 77.93242 
L 544.434099 77.93242 
L 544.434099 83.689894 
L 545.528861 83.689894 
L 545.528861 86.225295 
L 546.623624 86.225295 
L 546.623624 93.092008 
L 547.718386 93.092008 
L 547.718386 99.060765 
L 548.813149 99.060765 
L 548.813149 93.461754 
L 549.907911 93.461754 
L 549.907911 91.824307 
L 552.097436 91.877128 
L 552.097436 83.637073 
L 553.192199 83.637073 
L 553.192199 75.819585 
L 554.286961 75.819585 
L 554.286961 73.389825 
L 555.381724 73.389825 
L 555.381724 57.913312 
L 556.476486 57.913312 
L 556.476486 44.549633 
L 557.571249 44.549633 
L 557.571249 45.764513 
L 558.666012 45.764513 
L 558.666012 39.109084 
L 559.760774 39.109084 
L 559.760774 32.981864 
L 560.855537 32.981864 
L 560.855537 47.349139 
L 561.950299 47.349139 
L 561.950299 46.292722 
L 563.045062 46.292722 
L 563.045062 61.822056 
L 564.139824 61.822056 
L 564.139824 75.132914 
L 565.234587 75.132914 
L 565.234587 81.365776 
L 566.329349 81.365776 
L 566.329349 84.746311 
L 567.424112 84.746311 
L 567.424112 98.215632 
L 568.518874 98.215632 
L 568.518874 99.853078 
L 569.613637 99.853078 
L 569.613637 112.688548 
L 570.708399 112.688548 
L 570.708399 112.424444 
L 571.803162 112.424444 
L 571.803162 125.207093 
L 572.897924 125.207093 
L 572.897924 127.214286 
L 573.992687 127.214286 
L 573.992687 141.687203 
L 575.087449 141.687203 
L 575.087449 139.785652 
L 576.182212 139.785652 
L 576.182212 148.81802 
L 577.276975 148.81802 
L 577.276975 152.357018 
L 578.371737 152.357018 
L 578.371737 158.748342 
L 579.4665 158.748342 
L 579.4665 162.498624 
L 581.656025 162.498624 
L 581.656025 167.886352 
L 582.750787 167.886352 
L 582.750787 171.319708 
L 583.84555 171.319708 
L 583.84555 175.809482 
L 584.940312 175.809482 
L 584.940312 178.820271 
L 586.035075 178.820271 
L 586.035075 179.4013 
L 587.129837 179.4013 
L 587.129837 186.479296 
L 588.2246 186.479296 
L 588.2246 185.792625 
L 589.319362 185.792625 
L 589.319362 189.490085 
L 590.414125 189.490085 
L 590.414125 193.768576 
L 591.508887 193.768576 
L 591.508887 195.458843 
L 592.60365 195.458843 
L 592.60365 195.24756 
L 593.698412 195.24756 
L 593.698412 197.360394 
L 594.793175 197.360394 
L 594.793175 204.491211 
L 595.887938 204.491211 
L 595.887938 203.117869 
L 596.9827 203.117869 
L 596.9827 206.656866 
L 598.077463 206.656866 
L 598.077463 208.188672 
L 599.172225 208.188672 
L 599.172225 209.403551 
L 600.266988 209.403551 
L 600.266988 212.097415 
L 601.36175 212.097415 
L 601.36175 212.255878 
L 603.551275 212.203057 
L 603.551275 215.636413 
L 605.7408 215.689234 
L 605.7408 218.224636 
L 606.835563 218.224636 
L 606.835563 217.85489 
L 607.930325 217.85489 
L 607.930325 220.601575 
L 609.025088 220.601575 
L 609.025088 222.027738 
L 610.11985 222.027738 
L 610.11985 222.450305 
L 611.214613 222.450305 
L 611.214613 223.665185 
L 612.309375 223.665185 
L 612.309375 222.714409 
L 613.404138 222.714409 
L 613.404138 225.091348 
L 614.498901 225.091348 
L 614.498901 225.725199 
L 615.593663 225.725199 
L 615.593663 224.827244 
L 616.688426 224.827244 
L 616.688426 228.2606 
L 618.877951 228.207779 
L 618.877951 229.000092 
L 619.972713 229.000092 
L 619.972713 229.845226 
L 621.067476 229.845226 
L 621.067476 230.426255 
L 622.162238 230.426255 
L 622.162238 229.158555 
L 623.257001 229.158555 
L 623.257001 232.591911 
L 624.351763 232.591911 
L 624.351763 230.373435 
L 625.446526 230.373435 
L 625.446526 232.856015 
L 626.541288 232.856015 
L 626.541288 232.380627 
L 627.636051 232.380627 
L 627.636051 233.806791 
L 628.730813 233.806791 
L 628.730813 233.278582 
L 630.920339 233.17294 
L 630.920339 235.708342 
L 632.015101 235.708342 
L 632.015101 234.863208 
L 633.109864 234.863208 
L 633.109864 235.655521 
L 634.204626 235.655521 
L 634.204626 236.236551 
L 635.299389 236.236551 
L 635.299389 236.659117 
L 636.394151 236.659117 
L 636.394151 237.979639 
L 637.488914 237.979639 
L 637.488914 236.870401 
L 638.583676 236.870401 
L 638.583676 237.45143 
L 639.678439 237.45143 
L 639.678439 236.078088 
L 640.773201 236.078088 
L 640.773201 236.500655 
L 641.867964 236.500655 
L 641.867964 237.609893 
L 642.962726 237.609893 
L 642.962726 238.349385 
L 644.057489 238.349385 
L 644.057489 237.821177 
L 645.152251 237.821177 
L 645.152251 239.24734 
L 646.247014 239.24734 
L 646.247014 239.036056 
L 647.341776 239.036056 
L 647.341776 239.511444 
L 648.436539 239.511444 
L 648.436539 238.771952 
L 649.531302 238.771952 
L 649.531302 239.405802 
L 651.720827 239.352982 
L 651.720827 240.250936 
L 655.005114 240.198115 
L 655.005114 239.828369 
L 656.099877 239.828369 
L 656.099877 240.250936 
L 657.194639 240.250936 
L 657.194639 241.307354 
L 658.289402 241.307354 
L 658.289402 240.726324 
L 659.384164 240.726324 
L 659.384164 241.307354 
L 660.478927 241.307354 
L 660.478927 241.148891 
L 661.573689 241.148891 
L 661.573689 241.72992 
L 662.668452 241.72992 
L 662.668452 241.941204 
L 663.763214 241.941204 
L 663.763214 240.937608 
L 664.857977 240.937608 
L 664.857977 241.782741 
L 665.952739 241.782741 
L 665.952739 241.09607 
L 667.047502 241.09607 
L 667.047502 242.31095 
L 669.237027 242.363771 
L 669.237027 242.733517 
L 670.33179 242.733517 
L 670.33179 242.363771 
L 671.426552 242.363771 
L 671.426552 243.156084 
L 672.521315 243.156084 
L 672.521315 242.733517 
L 673.616077 242.733517 
L 673.616077 243.473009 
L 674.71084 243.473009 
L 674.71084 242.522233 
L 675.805602 242.522233 
L 675.805602 243.103263 
L 676.900365 243.103263 
L 676.900365 242.786338 
L 677.995127 242.786338 
L 677.995127 243.314546 
L 679.08989 243.314546 
L 679.08989 242.997621 
L 680.184652 242.997621 
L 680.184652 243.208905 
L 681.279415 243.208905 
L 681.279415 242.997621 
L 682.374177 242.997621 
L 682.374177 243.314546 
L 683.46894 243.314546 
L 683.46894 243.156084 
L 685.658465 243.208905 
L 685.658465 243.578651 
L 687.84799 243.473009 
L 687.84799 243.367367 
L 691.132278 243.473009 
L 691.132278 243.789934 
L 692.22704 243.789934 
L 692.22704 244.212501 
L 693.321803 244.212501 
L 693.321803 243.789934 
L 694.416565 243.789934 
L 694.416565 243.420188 
L 695.511328 243.420188 
L 695.511328 244.370964 
L 696.60609 244.370964 
L 696.60609 244.106859 
L 698.795615 244.001218 
L 698.795615 244.529426 
L 699.890378 244.529426 
L 699.890378 244.212501 
L 700.98514 244.212501 
L 700.98514 243.895576 
L 702.079903 243.895576 
L 702.079903 244.054039 
L 703.174666 244.054039 
L 703.174666 244.265322 
L 704.269428 244.265322 
L 704.269428 244.476605 
L 707.553716 244.423785 
L 707.553716 244.635068 
L 708.648478 244.635068 
L 708.648478 244.793531 
L 709.743241 244.793531 
L 709.743241 244.423785 
L 711.932766 244.370964 
L 711.932766 244.74071 
L 714.122291 244.687889 
L 714.122291 244.529426 
L 716.311816 244.423785 
L 716.311816 244.318143 
L 717.406578 244.318143 
L 717.406578 244.846351 
L 718.501341 244.846351 
L 718.501341 244.687889 
L 719.596103 244.687889 
L 719.596103 245.268918 
L 720.690866 245.268918 
L 720.690866 244.793531 
L 721.785629 244.793531 
L 721.785629 244.582247 
L 722.880391 244.582247 
L 722.880391 244.74071 
L 723.975154 244.74071 
L 723.975154 244.529426 
L 725.069916 244.529426 
L 725.069916 244.899172 
L 726.164679 244.899172 
L 726.164679 245.533023 
L 727.259441 245.533023 
L 727.259441 245.057635 
L 729.448966 244.951993 
L 729.448966 244.846351 
L 730.543729 244.846351 
L 730.543729 245.110456 
L 731.638491 245.110456 
L 731.638491 244.793531 
L 732.733254 244.793531 
L 732.733254 245.004814 
L 734.922779 245.110456 
L 734.922779 244.74071 
L 736.017541 244.74071 
L 736.017541 244.899172 
L 741.491354 244.951993 
L 741.491354 245.110456 
L 743.680879 245.004814 
L 743.680879 245.268918 
L 744.775642 245.268918 
L 744.775642 245.004814 
L 749.154692 245.004814 
L 749.154692 245.268918 
L 753.533742 245.216098 
L 753.533742 245.533023 
L 754.628504 245.533023 
L 754.628504 245.216098 
L 755.723267 245.216098 
L 755.723267 245.37456 
L 756.818029 245.37456 
L 756.818029 245.533023 
L 757.912792 245.533023 
L 757.912792 245.216098 
L 759.007555 245.216098 
L 759.007555 244.793531 
L 760.102317 244.793531 
L 760.102317 245.216098 
L 763.386605 245.321739 
L 763.386605 245.585844 
L 764.481367 245.585844 
L 764.481367 245.216098 
L 769.95518 245.321739 
L 769.95518 245.37456 
L 772.144705 245.480202 
L 772.144705 245.585844 
L 773.239467 245.585844 
L 773.239467 245.268918 
L 775.428993 245.163277 
L 775.428993 245.638664 
L 778.71328 245.533023 
L 778.71328 245.427381 
L 784.187093 245.480202 
L 784.187093 245.638664 
L 785.281855 245.638664 
L 785.281855 245.480202 
L 787.47138 245.480202 
L 787.47138 245.268918 
L 788.566143 245.268918 
L 788.566143 245.585844 
L 790.755668 245.585844 
L 790.755668 245.427381 
L 795.134718 245.533023 
L 795.134718 245.585844 
L 797.324243 245.691485 
L 797.324243 245.744306 
L 798.419006 245.744306 
L 798.419006 245.480202 
L 801.703293 245.533023 
L 801.703293 245.638664 
L 809.366631 245.691485 
L 809.366631 245.37456 
L 810.461393 245.37456 
L 810.461393 245.585844 
L 819.219494 245.638664 
L 819.219494 245.427381 
L 821.409019 245.533023 
L 821.409019 245.797127 
L 823.598544 245.744306 
L 823.598544 245.585844 
L 827.977594 245.480202 
L 827.977594 245.797127 
L 831.261882 245.691485 
L 831.261882 245.480202 
L 832.356644 245.480202 
L 832.356644 245.638664 
L 834.546169 245.744306 
L 834.546169 245.797127 
L 835.640932 245.797127 
L 835.640932 245.638664 
L 836.735694 245.638664 
L 836.735694 245.797127 
L 841.114744 245.744306 
L 841.114744 245.533023 
L 842.209507 245.533023 
L 842.209507 245.744306 
L 847.68332 245.744306 
L 847.68332 245.585844 
L 848.778082 245.585844 
L 848.778082 245.585844 
" clip-path="url(#pd2af7660c8)" style="fill: none; stroke: #1f77b4; stroke-width: 1.5; stroke-linecap: square"/>
   </g>
   <g id="patch_8">
    <path d="M 503.927885 257.158895 
L 503.927885 7.2 
" style="fill: none; stroke: #000000; stroke-width: 0.8; stroke-linejoin: miter; stroke-linecap: square"/>
   </g>
   <g id="patch_9">
    <path d="M 865.19952 257.158895 
L 865.19952 7.2 
" style="fill: none; stroke: #000000; stroke-width: 0.8; stroke-linejoin: miter; stroke-linecap: square"/>
   </g>
   <g id="patch_10">
    <path d="M 503.927885 257.158895 
L 865.19952 257.158895 
" style="fill: none; stroke: #000000; stroke-width: 0.8; stroke-linejoin: miter; stroke-linecap: square"/>
   </g>
   <g id="patch_11">
    <path d="M 503.927885 7.2 
L 865.19952 7.2 
" style="fill: none; stroke: #000000; stroke-width: 0.8; stroke-linejoin: miter; stroke-linecap: square"/>
   </g>
  </g>
 </g>
 <defs>
  <clipPath id="pdbc91b3aab">
   <rect x="53.328125" y="7.2" width="361.271635" height="249.958895"/>
  </clipPath>
  <clipPath id="pd2af7660c8">
   <rect x="503.927885" y="7.2" width="361.271635" height="249.958895"/>
  </clipPath>
 </defs>
</svg>
