<?xml version="1.0" encoding="utf-8" standalone="no"?>
<!DOCTYPE svg PUBLIC "-//W3C//DTD SVG 1.1//EN"
  "http://www.w3.org/Graphics/SVG/1.1/DTD/svg11.dtd">
<svg xmlns:xlink="http://www.w3.org/1999/xlink" width="401.690625pt" height="268.200625pt" viewBox="0 0 401.690625 268.200625" xmlns="http://www.w3.org/2000/svg" version="1.1">
 <metadata>
  <rdf:RDF xmlns:dc="http://purl.org/dc/elements/1.1/" xmlns:cc="http://creativecommons.org/ns#" xmlns:rdf="http://www.w3.org/1999/02/22-rdf-syntax-ns#">
   <cc:Work>
    <dc:type rdf:resource="http://purl.org/dc/dcmitype/StillImage"/>
    <dc:date>2026-04-20T05:56:45.471442</dc:date>
    <dc:format>image/svg+xml</dc:format>
    <dc:creator>
     <cc:Agent>
      <dc:title>Matplotlib v3.10.8, https://matplotlib.org/</dc:title>
     </cc:Agent>
    </dc:creator>
   </cc:Work>
  </rdf:RDF>
 </metadata>
 <defs>
  <style type="text/css">*{stroke-linejoin: round; stroke-linecap: butt}</style>
 </defs>
 <g id="figure_1">
  <g id="patch_1">
   <path d="M 0 268.200625 
L 401.690625 268.200625 
L 401.690625 0 
L 0 0 
z
" style="fill: #ffffff"/>
  </g>
  <g id="axes_1">
   <g id="patch_2">
    <path d="M 59.690625 228.96 
L 394.490625 228.96 
L 394.490625 7.2 
L 59.690625 7.2 
z
" style="fill: #ffffff"/>
   </g>
   <g id="matplotlib.axis_1">
    <g id="xtick_1">
     <g id="line2d_1">
      <defs>
       <path id="ma2994aa8fb" d="M 0 0 
L 0 3.5 
" style="stroke: #000000; stroke-width: 0.8"/>
      </defs>
      <g>
       <use xlink:href="#ma2994aa8fb" x="74.218137" y="228.96" style="stroke: #000000; stroke-width: 0.8"/>
      </g>
     </g>
     <g id="text_1">
      <!-- 1 -->
      <g transform="translate(71.036887 243.558437) scale(0.1 -0.1)">
       <defs>
        <path id="DejaVuSans-31" d="M 794 531 
L 1825 531 
L 1825 4091 
L 703 3866 
L 703 4441 
L 1819 4666 
L 2450 4666 
L 2450 531 
L 3481 531 
L 3481 0 
L 794 0 
L 794 531 
z
" transform="scale(0.015625)"/>
       </defs>
       <use xlink:href="#DejaVuSans-31"/>
      </g>
     </g>
    </g>
    <g id="xtick_2">
     <g id="line2d_2">
      <g>
       <use xlink:href="#ma2994aa8fb" x="128.183321" y="228.96" style="stroke: #000000; stroke-width: 0.8"/>
      </g>
     </g>
     <g id="text_2">
      <!-- 2 -->
      <g transform="translate(125.002071 243.558437) scale(0.1 -0.1)">
       <defs>
        <path id="DejaVuSans-32" d="M 1228 531 
L 3431 531 
L 3431 0 
L 469 0 
L 469 531 
Q 828 903 1448 1529 
Q 2069 2156 2228 2338 
Q 2531 2678 2651 2914 
Q 2772 3150 2772 3378 
Q 2772 3750 2511 3984 
Q 2250 4219 1831 4219 
Q 1534 4219 1204 4116 
Q 875 4013 500 3803 
L 500 4441 
Q 881 4594 1212 4672 
Q 1544 4750 1819 4750 
Q 2544 4750 2975 4387 
Q 3406 4025 3406 3419 
Q 3406 3131 3298 2873 
Q 3191 2616 2906 2266 
Q 2828 2175 2409 1742 
Q 1991 1309 1228 531 
z
" transform="scale(0.015625)"/>
       </defs>
       <use xlink:href="#DejaVuSans-32"/>
      </g>
     </g>
    </g>
    <g id="xtick_3">
     <g id="line2d_3">
      <g>
       <use xlink:href="#ma2994aa8fb" x="182.148504" y="228.96" style="stroke: #000000; stroke-width: 0.8"/>
      </g>
     </g>
     <g id="text_3">
      <!-- 3 -->
      <g transform="translate(178.967254 243.558437) scale(0.1 -0.1)">
       <defs>
        <path id="DejaVuSans-33" d="M 2597 2516 
Q 3050 2419 3304 2112 
Q 3559 1806 3559 1356 
Q 3559 666 3084 287 
Q 2609 -91 1734 -91 
Q 1441 -91 1130 -33 
Q 819 25 488 141 
L 488 750 
Q 750 597 1062 519 
Q 1375 441 1716 441 
Q 2309 441 2620 675 
Q 2931 909 2931 1356 
Q 2931 1769 2642 2001 
Q 2353 2234 1838 2234 
L 1294 2234 
L 1294 2753 
L 1863 2753 
Q 2328 2753 2575 2939 
Q 2822 3125 2822 3475 
Q 2822 3834 2567 4026 
Q 2313 4219 1838 4219 
Q 1578 4219 1281 4162 
Q 984 4106 628 3988 
L 628 4550 
Q 988 4650 1302 4700 
Q 1616 4750 1894 4750 
Q 2613 4750 3031 4423 
Q 3450 4097 3450 3541 
Q 3450 3153 3228 2886 
Q 3006 2619 2597 2516 
z
" transform="scale(0.015625)"/>
       </defs>
       <use xlink:href="#DejaVuSans-33"/>
      </g>
     </g>
    </g>
    <g id="xtick_4">
     <g id="line2d_4">
      <g>
       <use xlink:href="#ma2994aa8fb" x="236.113688" y="228.96" style="stroke: #000000; stroke-width: 0.8"/>
      </g>
     </g>
     <g id="text_4">
      <!-- 4 -->
      <g transform="translate(232.932438 243.558437) scale(0.1 -0.1)">
       <defs>
        <path id="DejaVuSans-34" d="M 2419 4116 
L 825 1625 
L 2419 1625 
L 2419 4116 
z
M 2253 4666 
L 3047 4666 
L 3047 1625 
L 3713 1625 
L 3713 1100 
L 3047 1100 
L 3047 0 
L 2419 0 
L 2419 1100 
L 313 1100 
L 313 1709 
L 2253 4666 
z
" transform="scale(0.015625)"/>
       </defs>
       <use xlink:href="#DejaVuSans-34"/>
      </g>
     </g>
    </g>
    <g id="xtick_5">
     <g id="line2d_5">
      <g>
       <use xlink:href="#ma2994aa8fb" x="290.078872" y="228.96" style="stroke: #000000; stroke-width: 0.8"/>
      </g>
     </g>
     <g id="text_5">
      <!-- 5 -->
      <g transform="translate(286.897622 243.558437) scale(0.1 -0.1)">
       <defs>
        <path id="DejaVuSans-35" d="M 691 4666 
L 3169 4666 
L 3169 4134 
L 1269 4134 
L 1269 2991 
Q 1406 3038 1543 3061 
Q 1681 3084 1819 3084 
Q 2600 3084 3056 2656 
Q 3513 2228 3513 1497 
Q 3513 744 3044 326 
Q 2575 -91 1722 -91 
Q 1428 -91 1123 -41 
Q 819 9 494 109 
L 494 744 
Q 775 591 1075 516 
Q 1375 441 1709 441 
Q 2250 441 2565 725 
Q 2881 1009 2881 1497 
Q 2881 1984 2565 2268 
Q 2250 2553 1709 2553 
Q 1456 2553 1204 2497 
Q 953 2441 691 2322 
L 691 4666 
z
" transform="scale(0.015625)"/>
       </defs>
       <use xlink:href="#DejaVuSans-35"/>
      </g>
     </g>
    </g>
    <g id="xtick_6">
     <g id="line2d_6">
      <g>
       <use xlink:href="#ma2994aa8fb" x="344.044056" y="228.96" style="stroke: #000000; stroke-width: 0.8"/>
      </g>
     </g>
     <g id="text_6">
      <!-- 6 -->
      <g transform="translate(340.862806 243.558437) scale(0.1 -0.1)">
       <defs>
        <path id="DejaVuSans-36" d="M 2113 2584 
Q 1688 2584 1439 2293 
Q 1191 2003 1191 1497 
Q 1191 994 1439 701 
Q 1688 409 2113 409 
Q 2538 409 2786 701 
Q 3034 994 3034 1497 
Q 3034 2003 2786 2293 
Q 2538 2584 2113 2584 
z
M 3366 4563 
L 3366 3988 
Q 3128 4100 2886 4159 
Q 2644 4219 2406 4219 
Q 1781 4219 1451 3797 
Q 1122 3375 1075 2522 
Q 1259 2794 1537 2939 
Q 1816 3084 2150 3084 
Q 2853 3084 3261 2657 
Q 3669 2231 3669 1497 
Q 3669 778 3244 343 
Q 2819 -91 2113 -91 
Q 1303 -91 875 529 
Q 447 1150 447 2328 
Q 447 3434 972 4092 
Q 1497 4750 2381 4750 
Q 2619 4750 2861 4703 
Q 3103 4656 3366 4563 
z
" transform="scale(0.015625)"/>
       </defs>
       <use xlink:href="#DejaVuSans-36"/>
      </g>
     </g>
    </g>
    <g id="text_7">
     <!-- wavelength [Å] -->
     <g transform="translate(189.053125 258.920937) scale(0.1 -0.1)">
      <defs>
       <path id="DejaVuSans-77" d="M 269 3500 
L 844 3500 
L 1563 769 
L 2278 3500 
L 2956 3500 
L 3675 769 
L 4391 3500 
L 4966 3500 
L 4050 0 
L 3372 0 
L 2619 2869 
L 1863 0 
L 1184 0 
L 269 3500 
z
" transform="scale(0.015625)"/>
       <path id="DejaVuSans-61" d="M 2194 1759 
Q 1497 1759 1228 1600 
Q 959 1441 959 1056 
Q 959 750 1161 570 
Q 1363 391 1709 391 
Q 2188 391 2477 730 
Q 2766 1069 2766 1631 
L 2766 1759 
L 2194 1759 
z
M 3341 1997 
L 3341 0 
L 2766 0 
L 2766 531 
Q 2569 213 2275 61 
Q 1981 -91 1556 -91 
Q 1019 -91 701 211 
Q 384 513 384 1019 
Q 384 1609 779 1909 
Q 1175 2209 1959 2209 
L 2766 2209 
L 2766 2266 
Q 2766 2663 2505 2880 
Q 2244 3097 1772 3097 
Q 1472 3097 1187 3025 
Q 903 2953 641 2809 
L 641 3341 
Q 956 3463 1253 3523 
Q 1550 3584 1831 3584 
Q 2591 3584 2966 3190 
Q 3341 2797 3341 1997 
z
" transform="scale(0.015625)"/>
       <path id="DejaVuSans-76" d="M 191 3500 
L 800 3500 
L 1894 563 
L 2988 3500 
L 3597 3500 
L 2284 0 
L 1503 0 
L 191 3500 
z
" transform="scale(0.015625)"/>
       <path id="DejaVuSans-65" d="M 3597 1894 
L 3597 1613 
L 953 1613 
Q 991 1019 1311 708 
Q 1631 397 2203 397 
Q 2534 397 2845 478 
Q 3156 559 3463 722 
L 3463 178 
Q 3153 47 2828 -22 
Q 2503 -91 2169 -91 
Q 1331 -91 842 396 
Q 353 884 353 1716 
Q 353 2575 817 3079 
Q 1281 3584 2069 3584 
Q 2775 3584 3186 3129 
Q 3597 2675 3597 1894 
z
M 3022 2063 
Q 3016 2534 2758 2815 
Q 2500 3097 2075 3097 
Q 1594 3097 1305 2825 
Q 1016 2553 972 2059 
L 3022 2063 
z
" transform="scale(0.015625)"/>
       <path id="DejaVuSans-6c" d="M 603 4863 
L 1178 4863 
L 1178 0 
L 603 0 
L 603 4863 
z
" transform="scale(0.015625)"/>
       <path id="DejaVuSans-6e" d="M 3513 2113 
L 3513 0 
L 2938 0 
L 2938 2094 
Q 2938 2591 2744 2837 
Q 2550 3084 2163 3084 
Q 1697 3084 1428 2787 
Q 1159 2491 1159 1978 
L 1159 0 
L 581 0 
L 581 3500 
L 1159 3500 
L 1159 2956 
Q 1366 3272 1645 3428 
Q 1925 3584 2291 3584 
Q 2894 3584 3203 3211 
Q 3513 2838 3513 2113 
z
" transform="scale(0.015625)"/>
       <path id="DejaVuSans-67" d="M 2906 1791 
Q 2906 2416 2648 2759 
Q 2391 3103 1925 3103 
Q 1463 3103 1205 2759 
Q 947 2416 947 1791 
Q 947 1169 1205 825 
Q 1463 481 1925 481 
Q 2391 481 2648 825 
Q 2906 1169 2906 1791 
z
M 3481 434 
Q 3481 -459 3084 -895 
Q 2688 -1331 1869 -1331 
Q 1566 -1331 1297 -1286 
Q 1028 -1241 775 -1147 
L 775 -588 
Q 1028 -725 1275 -790 
Q 1522 -856 1778 -856 
Q 2344 -856 2625 -561 
Q 2906 -266 2906 331 
L 2906 616 
Q 2728 306 2450 153 
Q 2172 0 1784 0 
Q 1141 0 747 490 
Q 353 981 353 1791 
Q 353 2603 747 3093 
Q 1141 3584 1784 3584 
Q 2172 3584 2450 3431 
Q 2728 3278 2906 2969 
L 2906 3500 
L 3481 3500 
L 3481 434 
z
" transform="scale(0.015625)"/>
       <path id="DejaVuSans-74" d="M 1172 4494 
L 1172 3500 
L 2356 3500 
L 2356 3053 
L 1172 3053 
L 1172 1153 
Q 1172 725 1289 603 
Q 1406 481 1766 481 
L 2356 481 
L 2356 0 
L 1766 0 
Q 1100 0 847 248 
Q 594 497 594 1153 
L 594 3053 
L 172 3053 
L 172 3500 
L 594 3500 
L 594 4494 
L 1172 4494 
z
" transform="scale(0.015625)"/>
       <path id="DejaVuSans-68" d="M 3513 2113 
L 3513 0 
L 2938 0 
L 2938 2094 
Q 2938 2591 2744 2837 
Q 2550 3084 2163 3084 
Q 1697 3084 1428 2787 
Q 1159 2491 1159 1978 
L 1159 0 
L 581 0 
L 581 4863 
L 1159 4863 
L 1159 2956 
Q 1366 3272 1645 3428 
Q 1925 3584 2291 3584 
Q 2894 3584 3203 3211 
Q 3513 2838 3513 2113 
z
" transform="scale(0.015625)"/>
       <path id="DejaVuSans-20" transform="scale(0.015625)"/>
       <path id="DejaVuSans-5b" d="M 550 4863 
L 1875 4863 
L 1875 4416 
L 1125 4416 
L 1125 -397 
L 1875 -397 
L 1875 -844 
L 550 -844 
L 550 4863 
z
" transform="scale(0.015625)"/>
       <path id="DejaVuSans-c5" d="M 2663 5081 
Q 2663 5278 2523 5417 
Q 2384 5556 2188 5556 
Q 1988 5556 1852 5420 
Q 1716 5284 1716 5081 
Q 1716 4884 1853 4746 
Q 1991 4609 2188 4609 
Q 2384 4609 2523 4746 
Q 2663 4884 2663 5081 
z
M 2188 4044 
L 1338 1722 
L 3041 1722 
L 2188 4044 
z
M 1716 4366 
Q 1525 4494 1428 4673 
Q 1331 4853 1331 5081 
Q 1331 5441 1579 5691 
Q 1828 5941 2188 5941 
Q 2544 5941 2795 5689 
Q 3047 5438 3047 5081 
Q 3047 4863 2948 4678 
Q 2850 4494 2663 4366 
L 4325 0 
L 3669 0 
L 3244 1197 
L 1141 1197 
L 716 0 
L 50 0 
L 1716 4366 
z
" transform="scale(0.015625)"/>
       <path id="DejaVuSans-5d" d="M 1947 4863 
L 1947 -844 
L 622 -844 
L 622 -397 
L 1369 -397 
L 1369 4416 
L 622 4416 
L 622 4863 
L 1947 4863 
z
" transform="scale(0.015625)"/>
      </defs>
      <use xlink:href="#DejaVuSans-77"/>
      <use xlink:href="#DejaVuSans-61" transform="translate(81.787109 0)"/>
      <use xlink:href="#DejaVuSans-76" transform="translate(143.066406 0)"/>
      <use xlink:href="#DejaVuSans-65" transform="translate(202.246094 0)"/>
      <use xlink:href="#DejaVuSans-6c" transform="translate(263.769531 0)"/>
      <use xlink:href="#DejaVuSans-65" transform="translate(291.552734 0)"/>
      <use xlink:href="#DejaVuSans-6e" transform="translate(353.076172 0)"/>
      <use xlink:href="#DejaVuSans-67" transform="translate(416.455078 0)"/>
      <use xlink:href="#DejaVuSans-74" transform="translate(479.931641 0)"/>
      <use xlink:href="#DejaVuSans-68" transform="translate(519.140625 0)"/>
      <use xlink:href="#DejaVuSans-20" transform="translate(582.519531 0)"/>
      <use xlink:href="#DejaVuSans-5b" transform="translate(614.306641 0)"/>
      <use xlink:href="#DejaVuSans-c5" transform="translate(653.320312 0)"/>
      <use xlink:href="#DejaVuSans-5d" transform="translate(721.728516 0)"/>
     </g>
    </g>
   </g>
   <g id="matplotlib.axis_2">
    <g id="ytick_1">
     <g id="line2d_7">
      <defs>
       <path id="m8c6a8c1351" d="M 0 0 
L -3.5 0 
" style="stroke: #000000; stroke-width: 0.8"/>
      </defs>
      <g>
       <use xlink:href="#m8c6a8c1351" x="59.690625" y="218.88" style="stroke: #000000; stroke-width: 0.8"/>
      </g>
     </g>
     <g id="text_8">
      <!-- 0 -->
      <g transform="translate(46.328125 222.679219) scale(0.1 -0.1)">
       <defs>
        <path id="DejaVuSans-30" d="M 2034 4250 
Q 1547 4250 1301 3770 
Q 1056 3291 1056 2328 
Q 1056 1369 1301 889 
Q 1547 409 2034 409 
Q 2525 409 2770 889 
Q 3016 1369 3016 2328 
Q 3016 3291 2770 3770 
Q 2525 4250 2034 4250 
z
M 2034 4750 
Q 2819 4750 3233 4129 
Q 3647 3509 3647 2328 
Q 3647 1150 3233 529 
Q 2819 -91 2034 -91 
Q 1250 -91 836 529 
Q 422 1150 422 2328 
Q 422 3509 836 4129 
Q 1250 4750 2034 4750 
z
" transform="scale(0.015625)"/>
       </defs>
       <use xlink:href="#DejaVuSans-30"/>
      </g>
     </g>
    </g>
    <g id="ytick_2">
     <g id="line2d_8">
      <g>
       <use xlink:href="#m8c6a8c1351" x="59.690625" y="183.595148" style="stroke: #000000; stroke-width: 0.8"/>
      </g>
     </g>
     <g id="text_9">
      <!-- 2000 -->
      <g transform="translate(27.240625 187.394367) scale(0.1 -0.1)">
       <use xlink:href="#DejaVuSans-32"/>
       <use xlink:href="#DejaVuSans-30" transform="translate(63.623047 0)"/>
       <use xlink:href="#DejaVuSans-30" transform="translate(127.246094 0)"/>
       <use xlink:href="#DejaVuSans-30" transform="translate(190.869141 0)"/>
      </g>
     </g>
    </g>
    <g id="ytick_3">
     <g id="line2d_9">
      <g>
       <use xlink:href="#m8c6a8c1351" x="59.690625" y="148.310297" style="stroke: #000000; stroke-width: 0.8"/>
      </g>
     </g>
     <g id="text_10">
      <!-- 4000 -->
      <g transform="translate(27.240625 152.109515) scale(0.1 -0.1)">
       <use xlink:href="#DejaVuSans-34"/>
       <use xlink:href="#DejaVuSans-30" transform="translate(63.623047 0)"/>
       <use xlink:href="#DejaVuSans-30" transform="translate(127.246094 0)"/>
       <use xlink:href="#DejaVuSans-30" transform="translate(190.869141 0)"/>
      </g>
     </g>
    </g>
    <g id="ytick_4">
     <g id="line2d_10">
      <g>
       <use xlink:href="#m8c6a8c1351" x="59.690625" y="113.025445" style="stroke: #000000; stroke-width: 0.8"/>
      </g>
     </g>
     <g id="text_11">
      <!-- 6000 -->
      <g transform="translate(27.240625 116.824664) scale(0.1 -0.1)">
       <use xlink:href="#DejaVuSans-36"/>
       <use xlink:href="#DejaVuSans-30" transform="translate(63.623047 0)"/>
       <use xlink:href="#DejaVuSans-30" transform="translate(127.246094 0)"/>
       <use xlink:href="#DejaVuSans-30" transform="translate(190.869141 0)"/>
      </g>
     </g>
    </g>
    <g id="ytick_5">
     <g id="line2d_11">
      <g>
       <use xlink:href="#m8c6a8c1351" x="59.690625" y="77.740593" style="stroke: #000000; stroke-width: 0.8"/>
      </g>
     </g>
     <g id="text_12">
      <!-- 8000 -->
      <g transform="translate(27.240625 81.539812) scale(0.1 -0.1)">
       <defs>
        <path id="DejaVuSans-38" d="M 2034 2216 
Q 1584 2216 1326 1975 
Q 1069 1734 1069 1313 
Q 1069 891 1326 650 
Q 1584 409 2034 409 
Q 2484 409 2743 651 
Q 3003 894 3003 1313 
Q 3003 1734 2745 1975 
Q 2488 2216 2034 2216 
z
M 1403 2484 
Q 997 2584 770 2862 
Q 544 3141 544 3541 
Q 544 4100 942 4425 
Q 1341 4750 2034 4750 
Q 2731 4750 3128 4425 
Q 3525 4100 3525 3541 
Q 3525 3141 3298 2862 
Q 3072 2584 2669 2484 
Q 3125 2378 3379 2068 
Q 3634 1759 3634 1313 
Q 3634 634 3220 271 
Q 2806 -91 2034 -91 
Q 1263 -91 848 271 
Q 434 634 434 1313 
Q 434 1759 690 2068 
Q 947 2378 1403 2484 
z
M 1172 3481 
Q 1172 3119 1398 2916 
Q 1625 2713 2034 2713 
Q 2441 2713 2670 2916 
Q 2900 3119 2900 3481 
Q 2900 3844 2670 4047 
Q 2441 4250 2034 4250 
Q 1625 4250 1398 4047 
Q 1172 3844 1172 3481 
z
" transform="scale(0.015625)"/>
       </defs>
       <use xlink:href="#DejaVuSans-38"/>
       <use xlink:href="#DejaVuSans-30" transform="translate(63.623047 0)"/>
       <use xlink:href="#DejaVuSans-30" transform="translate(127.246094 0)"/>
       <use xlink:href="#DejaVuSans-30" transform="translate(190.869141 0)"/>
      </g>
     </g>
    </g>
    <g id="ytick_6">
     <g id="line2d_12">
      <g>
       <use xlink:href="#m8c6a8c1351" x="59.690625" y="42.455742" style="stroke: #000000; stroke-width: 0.8"/>
      </g>
     </g>
     <g id="text_13">
      <!-- 10000 -->
      <g transform="translate(20.878125 46.25496) scale(0.1 -0.1)">
       <use xlink:href="#DejaVuSans-31"/>
       <use xlink:href="#DejaVuSans-30" transform="translate(63.623047 0)"/>
       <use xlink:href="#DejaVuSans-30" transform="translate(127.246094 0)"/>
       <use xlink:href="#DejaVuSans-30" transform="translate(190.869141 0)"/>
       <use xlink:href="#DejaVuSans-30" transform="translate(254.492188 0)"/>
      </g>
     </g>
    </g>
    <g id="text_14">
     <!-- [counts] -->
     <g transform="translate(14.798438 138.6925) rotate(-90) scale(0.1 -0.1)">
      <defs>
       <path id="DejaVuSans-63" d="M 3122 3366 
L 3122 2828 
Q 2878 2963 2633 3030 
Q 2388 3097 2138 3097 
Q 1578 3097 1268 2742 
Q 959 2388 959 1747 
Q 959 1106 1268 751 
Q 1578 397 2138 397 
Q 2388 397 2633 464 
Q 2878 531 3122 666 
L 3122 134 
Q 2881 22 2623 -34 
Q 2366 -91 2075 -91 
Q 1284 -91 818 406 
Q 353 903 353 1747 
Q 353 2603 823 3093 
Q 1294 3584 2113 3584 
Q 2378 3584 2631 3529 
Q 2884 3475 3122 3366 
z
" transform="scale(0.015625)"/>
       <path id="DejaVuSans-6f" d="M 1959 3097 
Q 1497 3097 1228 2736 
Q 959 2375 959 1747 
Q 959 1119 1226 758 
Q 1494 397 1959 397 
Q 2419 397 2687 759 
Q 2956 1122 2956 1747 
Q 2956 2369 2687 2733 
Q 2419 3097 1959 3097 
z
M 1959 3584 
Q 2709 3584 3137 3096 
Q 3566 2609 3566 1747 
Q 3566 888 3137 398 
Q 2709 -91 1959 -91 
Q 1206 -91 779 398 
Q 353 888 353 1747 
Q 353 2609 779 3096 
Q 1206 3584 1959 3584 
z
" transform="scale(0.015625)"/>
       <path id="DejaVuSans-75" d="M 544 1381 
L 544 3500 
L 1119 3500 
L 1119 1403 
Q 1119 906 1312 657 
Q 1506 409 1894 409 
Q 2359 409 2629 706 
Q 2900 1003 2900 1516 
L 2900 3500 
L 3475 3500 
L 3475 0 
L 2900 0 
L 2900 538 
Q 2691 219 2414 64 
Q 2138 -91 1772 -91 
Q 1169 -91 856 284 
Q 544 659 544 1381 
z
M 1991 3584 
L 1991 3584 
z
" transform="scale(0.015625)"/>
       <path id="DejaVuSans-73" d="M 2834 3397 
L 2834 2853 
Q 2591 2978 2328 3040 
Q 2066 3103 1784 3103 
Q 1356 3103 1142 2972 
Q 928 2841 928 2578 
Q 928 2378 1081 2264 
Q 1234 2150 1697 2047 
L 1894 2003 
Q 2506 1872 2764 1633 
Q 3022 1394 3022 966 
Q 3022 478 2636 193 
Q 2250 -91 1575 -91 
Q 1294 -91 989 -36 
Q 684 19 347 128 
L 347 722 
Q 666 556 975 473 
Q 1284 391 1588 391 
Q 1994 391 2212 530 
Q 2431 669 2431 922 
Q 2431 1156 2273 1281 
Q 2116 1406 1581 1522 
L 1381 1569 
Q 847 1681 609 1914 
Q 372 2147 372 2553 
Q 372 3047 722 3315 
Q 1072 3584 1716 3584 
Q 2034 3584 2315 3537 
Q 2597 3491 2834 3397 
z
" transform="scale(0.015625)"/>
      </defs>
      <use xlink:href="#DejaVuSans-5b"/>
      <use xlink:href="#DejaVuSans-63" transform="translate(39.013672 0)"/>
      <use xlink:href="#DejaVuSans-6f" transform="translate(93.994141 0)"/>
      <use xlink:href="#DejaVuSans-75" transform="translate(155.175781 0)"/>
      <use xlink:href="#DejaVuSans-6e" transform="translate(218.554688 0)"/>
      <use xlink:href="#DejaVuSans-74" transform="translate(281.933594 0)"/>
      <use xlink:href="#DejaVuSans-73" transform="translate(321.142578 0)"/>
      <use xlink:href="#DejaVuSans-5d" transform="translate(373.242188 0)"/>
     </g>
    </g>
   </g>
   <g id="line2d_13">
    <path d="M 81.221026 218.88 
L 86.077893 218.80943 
L 86.077893 218.721218 
L 89.315804 218.650648 
L 89.315804 218.544794 
L 90.934759 218.544794 
L 90.934759 218.668291 
L 92.553715 218.668291 
L 92.553715 218.438939 
L 94.17267 218.438939 
L 94.17267 218.562436 
L 95.791626 218.562436 
L 95.791626 218.22723 
L 99.029537 218.2978 
L 99.029537 217.803812 
L 102.267448 217.803812 
L 102.267448 217.221612 
L 105.505359 217.186327 
L 105.505359 217.57446 
L 107.124314 217.57446 
L 107.124314 216.762909 
L 108.74327 216.762909 
L 108.74327 216.198351 
L 110.362225 216.198351 
L 110.362225 215.969 
L 111.981181 215.969 
L 111.981181 215.351515 
L 115.219092 215.31623 
L 115.219092 214.292969 
L 116.838047 214.292969 
L 116.838047 212.758078 
L 118.457003 212.758078 
L 118.457003 211.205545 
L 120.075958 211.205545 
L 120.075958 209.847078 
L 121.694914 209.847078 
L 121.694914 209.494229 
L 123.313869 209.494229 
L 123.313869 205.489399 
L 124.932825 205.489399 
L 124.932825 202.119695 
L 126.55178 202.119695 
L 126.55178 197.938441 
L 128.170736 197.938441 
L 128.170736 194.886301 
L 129.789691 194.886301 
L 129.789691 190.652119 
L 131.408647 190.652119 
L 131.408647 186.400294 
L 133.027602 186.400294 
L 133.027602 179.784384 
L 134.646558 179.784384 
L 134.646558 171.651226 
L 136.265513 171.651226 
L 136.265513 167.275904 
L 137.884469 167.275904 
L 137.884469 160.130722 
L 139.503425 160.130722 
L 139.503425 153.867661 
L 141.12238 153.867661 
L 141.12238 144.711242 
L 142.741336 144.711242 
L 142.741336 140.547629 
L 144.360291 140.547629 
L 144.360291 134.231641 
L 145.979247 134.231641 
L 145.979247 120.858682 
L 147.598202 120.858682 
L 147.598202 107.60922 
L 149.217158 107.60922 
L 149.217158 105.086353 
L 150.836113 105.086353 
L 150.836113 99.052644 
L 152.455069 99.052644 
L 152.455069 91.307619 
L 154.074024 91.307619 
L 154.074024 81.057369 
L 155.69298 81.057369 
L 155.69298 68.054902 
L 157.311935 68.054902 
L 157.311935 56.569682 
L 158.930891 56.569682 
L 158.930891 51.276955 
L 160.549846 51.276955 
L 160.549846 49.371573 
L 162.168802 49.371573 
L 162.168802 47.289766 
L 163.787757 47.289766 
L 163.787757 48.083676 
L 165.406713 48.083676 
L 165.406713 49.036367 
L 167.025668 49.036367 
L 167.025668 32.681838 
L 168.644624 32.681838 
L 168.644624 32.223135 
L 170.263579 32.223135 
L 170.263579 27.494965 
L 171.882535 27.494965 
L 171.882535 30.335395 
L 173.50149 30.335395 
L 173.50149 33.246395 
L 175.120446 33.246395 
L 175.120446 27.212686 
L 176.739401 27.212686 
L 176.739401 38.609693 
L 178.358357 38.609693 
L 178.358357 24.372255 
L 179.977312 24.372255 
L 179.977312 17.28 
L 181.596268 17.28 
L 181.596268 25.430801 
L 183.215223 25.430801 
L 183.215223 43.179081 
L 184.834179 43.179081 
L 184.834179 17.879842 
L 186.453134 17.879842 
L 186.453134 26.542274 
L 188.07209 26.542274 
L 188.07209 32.293704 
L 189.691045 32.293704 
L 189.691045 24.672176 
L 191.310001 24.672176 
L 191.310001 37.956923 
L 192.928956 37.956923 
L 192.928956 22.960861 
L 194.547912 22.960861 
L 194.547912 42.279317 
L 196.166867 42.279317 
L 196.166867 35.328202 
L 197.785823 35.328202 
L 197.785823 34.710717 
L 199.404778 34.710717 
L 199.404778 26.948049 
L 201.023734 26.948049 
L 201.023734 35.82219 
L 202.64269 35.82219 
L 202.64269 41.397196 
L 204.261645 41.397196 
L 204.261645 50.147839 
L 205.880601 50.147839 
L 205.880601 62.391683 
L 207.499556 62.391683 
L 207.499556 56.55204 
L 209.118512 56.55204 
L 209.118512 51.453379 
L 210.737467 51.453379 
L 210.737467 63.873647 
L 212.356423 63.873647 
L 212.356423 78.216939 
L 213.975378 78.216939 
L 213.975378 71.848023 
L 215.594334 71.848023 
L 215.594334 67.613841 
L 217.213289 67.613841 
L 217.213289 72.765429 
L 218.832245 72.765429 
L 218.832245 81.780709 
L 220.4512 81.780709 
L 220.4512 81.921848 
L 222.070156 81.921848 
L 222.070156 83.933085 
L 223.689111 83.933085 
L 223.689111 91.307619 
L 225.308067 91.307619 
L 225.308067 101.998929 
L 226.927022 101.998929 
L 226.927022 90.531352 
L 228.545978 90.531352 
L 228.545978 102.263565 
L 230.164933 102.263565 
L 230.164933 102.845765 
L 231.783889 102.845765 
L 231.783889 98.047025 
L 233.402844 98.047025 
L 233.402844 103.128044 
L 235.0218 103.128044 
L 235.0218 110.432008 
L 236.640755 110.432008 
L 236.640755 111.649336 
L 238.259711 111.649336 
L 238.259711 117.753615 
L 239.878666 117.753615 
L 239.878666 123.152197 
L 241.497622 123.152197 
L 241.497622 107.856214 
L 243.116577 107.856214 
L 243.116577 121.35267 
L 244.735533 121.35267 
L 244.735533 119.941276 
L 246.354488 119.941276 
L 246.354488 121.970155 
L 247.973444 121.970155 
L 247.973444 126.80418 
L 249.592399 126.80418 
L 249.592399 131.832271 
L 251.211355 131.832271 
L 251.211355 123.328622 
L 252.83031 123.328622 
L 252.83031 136.560441 
L 254.449266 136.560441 
L 254.449266 133.296592 
L 256.068221 133.296592 
L 256.068221 134.390423 
L 257.687177 134.390423 
L 257.687177 132.837889 
L 259.306132 132.837889 
L 259.306132 144.270181 
L 260.925088 144.270181 
L 260.925088 144.146684 
L 262.544043 144.146684 
L 262.544043 141.482678 
L 264.162999 141.482678 
L 264.162999 141.341538 
L 265.781954 141.341538 
L 265.781954 142.206017 
L 267.40091 142.206017 
L 267.40091 155.843612 
L 269.019866 155.843612 
L 269.019866 150.974303 
L 270.638821 150.974303 
L 270.638821 141.923739 
L 272.257777 141.923739 
L 272.257777 153.955873 
L 273.876732 153.955873 
L 273.876732 147.375248 
L 275.495688 147.375248 
L 275.495688 158.348837 
L 277.114643 158.348837 
L 277.114643 151.080158 
L 278.733599 151.080158 
L 278.733599 162.88294 
L 280.352554 162.88294 
L 280.352554 157.995988 
L 281.97151 157.995988 
L 281.97151 161.101055 
L 283.590465 161.101055 
L 283.590465 160.501213 
L 285.209421 160.501213 
L 285.209421 158.931037 
L 286.828376 158.931037 
L 286.828376 171.157238 
L 288.447332 171.157238 
L 288.447332 158.525261 
L 290.066287 158.525261 
L 290.066287 169.886983 
L 291.685243 169.886983 
L 291.685243 168.740226 
L 293.304198 168.740226 
L 293.304198 170.557396 
L 294.923154 170.557396 
L 294.923154 165.441092 
L 296.542109 165.441092 
L 296.542109 175.673699 
L 298.161065 175.673699 
L 298.161065 173.256687 
L 299.78002 173.256687 
L 299.78002 175.603129 
L 301.398976 175.603129 
L 301.398976 172.180499 
L 303.017931 172.180499 
L 303.017931 177.402657 
L 304.636887 177.402657 
L 304.636887 185.624027 
L 306.255842 185.624027 
L 306.255842 181.478057 
L 307.874798 181.478057 
L 307.874798 185.994518 
L 309.493753 185.994518 
L 309.493753 182.395463 
L 311.112709 182.395463 
L 311.112709 187.511767 
L 312.731664 187.511767 
L 312.731664 190.246343 
L 314.35062 190.246343 
L 314.35062 186.329724 
L 315.969575 186.329724 
L 315.969575 190.740331 
L 317.588531 190.740331 
L 317.588531 192.328149 
L 319.207486 192.328149 
L 319.207486 193.404337 
L 320.826442 193.404337 
L 320.826442 194.462883 
L 322.445397 194.462883 
L 322.445397 198.00901 
L 324.064353 198.00901 
L 324.064353 197.003392 
L 325.683308 197.003392 
L 325.683308 198.432428 
L 327.302264 198.432428 
L 327.302264 199.014629 
L 328.921219 199.014629 
L 328.921219 200.690659 
L 330.540175 200.690659 
L 330.540175 200.33781 
L 332.159131 200.33781 
L 332.159131 201.978556 
L 333.778086 201.978556 
L 333.778086 203.372308 
L 335.397042 203.372308 
L 335.397042 204.430853 
L 337.015997 204.430853 
L 337.015997 205.418829 
L 338.634953 205.418829 
L 338.634953 204.254429 
L 340.253908 204.254429 
L 340.253908 207.235999 
L 341.872864 207.235999 
L 341.872864 209.529514 
L 343.491819 209.529514 
L 343.491819 209.653011 
L 345.110775 209.653011 
L 345.110775 209.952933 
L 348.348686 209.952933 
L 348.348686 210.852696 
L 349.967641 210.852696 
L 349.967641 211.717175 
L 351.586597 211.717175 
L 351.586597 212.087666 
L 353.205552 212.087666 
L 353.205552 212.775721 
L 354.824508 212.775721 
L 354.824508 214.063618 
L 358.062419 214.116545 
L 358.062419 213.869551 
L 359.681374 213.869551 
L 359.681374 215.033951 
L 361.30033 215.033951 
L 361.30033 215.422085 
L 362.919285 215.422085 
L 362.919285 215.986642 
L 364.538241 215.986642 
L 364.538241 216.99226 
L 366.157196 216.99226 
L 366.157196 216.833479 
L 367.776152 216.833479 
L 367.776152 217.450964 
L 369.395107 217.450964 
L 369.395107 217.697957 
L 371.014063 217.697957 
L 371.014063 217.892024 
L 372.633018 217.892024 
L 372.633018 218.2978 
L 374.251974 218.2978 
L 374.251974 218.509509 
L 375.870929 218.509509 
L 375.870929 218.88 
L 377.489885 218.88 
L 377.489885 218.88 
" clip-path="url(#p298641c281)" style="fill: none; stroke: #1f77b4; stroke-width: 1.5; stroke-linecap: square"/>
   </g>
   <g id="line2d_14">
    <path d="M 81.221026 218.774145 
L 89.315804 218.685933 
L 89.315804 218.633006 
L 95.791626 218.597721 
L 95.791626 218.262515 
L 97.410581 218.262515 
L 97.410581 217.980236 
L 99.029537 217.980236 
L 99.029537 218.22723 
L 100.648492 218.22723 
L 100.648492 217.486248 
L 102.267448 217.486248 
L 102.267448 217.274539 
L 105.505359 217.380394 
L 105.505359 217.433321 
L 107.124314 217.433321 
L 107.124314 216.798194 
L 108.74327 216.798194 
L 108.74327 216.145424 
L 110.362225 216.145424 
L 110.362225 215.616151 
L 111.981181 215.616151 
L 111.981181 215.863145 
L 113.600136 215.863145 
L 113.600136 215.333872 
L 115.219092 215.333872 
L 115.219092 213.904836 
L 116.838047 213.904836 
L 116.838047 212.740436 
L 118.457003 212.740436 
L 118.457003 211.558393 
L 120.075958 211.558393 
L 120.075958 209.582442 
L 121.694914 209.582442 
L 121.694914 209.123739 
L 123.313869 209.123739 
L 123.313869 205.983387 
L 124.932825 205.983387 
L 124.932825 201.13172 
L 126.55178 201.13172 
L 126.55178 198.538283 
L 128.170736 198.538283 
L 128.170736 195.292077 
L 129.789691 195.292077 
L 129.789691 190.722688 
L 131.408647 190.722688 
L 131.408647 184.900688 
L 133.027602 184.900688 
L 133.027602 180.384227 
L 134.646558 180.384227 
L 134.646558 170.433899 
L 136.265513 170.433899 
L 136.265513 167.187692 
L 137.884469 167.187692 
L 137.884469 160.254219 
L 139.503425 160.254219 
L 139.503425 153.585382 
L 141.12238 153.585382 
L 141.12238 145.222872 
L 142.741336 145.222872 
L 142.741336 139.400872 
L 144.360291 139.400872 
L 144.360291 132.361544 
L 145.979247 132.361544 
L 145.979247 121.652591 
L 147.598202 121.652591 
L 147.598202 110.379081 
L 149.217158 110.379081 
L 149.217158 100.711032 
L 150.836113 100.711032 
L 150.836113 101.857789 
L 152.455069 101.857789 
L 152.455069 87.726206 
L 154.074024 87.726206 
L 154.074024 76.77026 
L 155.69298 76.77026 
L 155.69298 72.941854 
L 157.311935 72.941854 
L 157.311935 56.940173 
L 158.930891 56.940173 
L 158.930891 46.478215 
L 160.549846 46.478215 
L 160.549846 53.746894 
L 162.168802 53.746894 
L 162.168802 47.977821 
L 163.787757 47.977821 
L 163.787757 43.743639 
L 165.406713 43.743639 
L 165.406713 52.758918 
L 167.025668 52.758918 
L 167.025668 30.794098 
L 168.644624 30.794098 
L 168.644624 37.233584 
L 170.263579 37.233584 
L 170.263579 29.382704 
L 171.882535 29.382704 
L 171.882535 24.636892 
L 173.50149 24.636892 
L 173.50149 21.637679 
L 175.120446 21.637679 
L 175.120446 40.268081 
L 176.739401 40.268081 
L 176.739401 27.918383 
L 178.358357 27.918383 
L 178.358357 27.671389 
L 179.977312 27.671389 
L 179.977312 22.572728 
L 181.596268 22.572728 
L 181.596268 28.659365 
L 183.215223 28.659365 
L 183.215223 30.229541 
L 184.834179 30.229541 
L 184.834179 27.38911 
L 186.453134 27.38911 
L 186.453134 32.364274 
L 188.07209 32.364274 
L 188.07209 28.677007 
L 189.691045 28.677007 
L 189.691045 30.564747 
L 191.310001 30.564747 
L 191.310001 27.759601 
L 192.928956 27.759601 
L 192.928956 42.120536 
L 194.547912 42.120536 
L 194.547912 19.467661 
L 196.166867 19.467661 
L 196.166867 39.033111 
L 197.785823 39.033111 
L 197.785823 42.191105 
L 199.404778 42.191105 
L 199.404778 34.604862 
L 201.023734 34.604862 
L 201.023734 40.691499 
L 202.64269 40.691499 
L 202.64269 39.809378 
L 204.261645 39.809378 
L 204.261645 44.378766 
L 205.880601 44.378766 
L 205.880601 62.285828 
L 207.499556 62.285828 
L 207.499556 56.799034 
L 209.118512 56.799034 
L 209.118512 52.106149 
L 210.737467 52.106149 
L 210.737467 69.660362 
L 212.356423 69.660362 
L 212.356423 69.942641 
L 213.975378 69.942641 
L 213.975378 65.073332 
L 215.594334 65.073332 
L 215.594334 73.929829 
L 217.213289 73.929829 
L 217.213289 74.388532 
L 218.832245 74.388532 
L 218.832245 82.645188 
L 220.4512 82.645188 
L 220.4512 84.074224 
L 222.070156 84.074224 
L 222.070156 79.68126 
L 223.689111 79.68126 
L 223.689111 102.051856 
L 225.308067 102.051856 
L 225.308067 83.474382 
L 226.927022 83.474382 
L 226.927022 102.281208 
L 228.545978 102.281208 
L 228.545978 100.781601 
L 230.164933 100.781601 
L 230.164933 99.934765 
L 231.783889 99.934765 
L 231.783889 101.06388 
L 233.402844 101.06388 
L 233.402844 108.085566 
L 235.0218 108.085566 
L 235.0218 103.039832 
L 236.640755 103.039832 
L 236.640755 116.606857 
L 238.259711 116.606857 
L 238.259711 115.107251 
L 239.878666 115.107251 
L 239.878666 105.086353 
L 241.497622 105.086353 
L 241.497622 123.399191 
L 243.116577 123.399191 
L 243.116577 122.076009 
L 244.735533 122.076009 
L 244.735533 116.024657 
L 246.354488 116.024657 
L 246.354488 130.526731 
L 247.973444 130.526731 
L 247.973444 124.581234 
L 249.592399 124.581234 
L 249.592399 128.286143 
L 251.211355 128.286143 
L 251.211355 130.191525 
L 252.83031 130.191525 
L 252.83031 129.097695 
L 254.449266 129.097695 
L 254.449266 137.689556 
L 256.068221 137.689556 
L 256.068221 129.450543 
L 257.687177 129.450543 
L 257.687177 138.130617 
L 259.306132 138.130617 
L 259.306132 143.45863 
L 260.925088 143.45863 
L 260.925088 144.093757 
L 262.544043 144.093757 
L 262.544043 137.213211 
L 264.162999 137.213211 
L 264.162999 139.612581 
L 265.781954 139.612581 
L 265.781954 148.522006 
L 267.40091 148.522006 
L 267.40091 147.992733 
L 269.019866 147.992733 
L 269.019866 154.220509 
L 270.638821 154.220509 
L 270.638821 146.263775 
L 272.257777 146.263775 
L 272.257777 151.380079 
L 273.876732 151.380079 
L 273.876732 148.327939 
L 275.495688 148.327939 
L 275.495688 155.155558 
L 277.114643 155.155558 
L 277.114643 159.107461 
L 278.733599 159.107461 
L 278.733599 155.490764 
L 280.352554 155.490764 
L 280.352554 161.453904 
L 281.97151 161.453904 
L 281.97151 156.249388 
L 283.590465 156.249388 
L 283.590465 159.407383 
L 285.209421 159.407383 
L 285.209421 167.611111 
L 286.828376 167.611111 
L 286.828376 159.866086 
L 288.447332 159.866086 
L 288.447332 164.611898 
L 290.066287 164.611898 
L 290.066287 169.481208 
L 291.685243 169.481208 
L 291.685243 171.31602 
L 293.304198 171.31602 
L 293.304198 166.711347 
L 294.923154 166.711347 
L 294.923154 173.327256 
L 296.542109 173.327256 
L 296.542109 166.44671 
L 298.161065 166.44671 
L 298.161065 174.773935 
L 299.78002 174.773935 
L 299.78002 176.749887 
L 301.398976 176.749887 
L 301.398976 176.538178 
L 303.017931 176.538178 
L 303.017931 176.291184 
L 304.636887 176.291184 
L 304.636887 180.101948 
L 306.255842 180.101948 
L 306.255842 184.706621 
L 307.874798 184.706621 
L 307.874798 184.583124 
L 311.112709 184.47727 
L 311.112709 186.1533 
L 312.731664 186.1533 
L 312.731664 188.817306 
L 314.35062 188.817306 
L 314.35062 189.6465 
L 315.969575 189.6465 
L 315.969575 190.352197 
L 317.588531 190.352197 
L 317.588531 191.251961 
L 319.207486 191.251961 
L 319.207486 192.980919 
L 320.826442 192.980919 
L 320.826442 196.509404 
L 322.445397 196.509404 
L 322.445397 194.762804 
L 324.064353 194.762804 
L 324.064353 198.132507 
L 325.683308 198.132507 
L 325.683308 199.385119 
L 327.302264 199.385119 
L 327.302264 198.961701 
L 328.921219 198.961701 
L 328.921219 199.790895 
L 330.540175 199.790895 
L 330.540175 199.155768 
L 332.159131 199.155768 
L 332.159131 201.784489 
L 333.778086 201.784489 
L 333.778086 204.11329 
L 335.397042 204.11329 
L 335.397042 204.272071 
L 337.015997 204.272071 
L 337.015997 205.507041 
L 340.253908 205.401187 
L 340.253908 205.806962 
L 341.872864 205.806962 
L 341.872864 210.305781 
L 343.491819 210.305781 
L 343.491819 208.823817 
L 345.110775 208.823817 
L 345.110775 210.305781 
L 346.72973 210.305781 
L 346.72973 209.758866 
L 348.348686 209.758866 
L 348.348686 211.187902 
L 349.967641 211.187902 
L 349.967641 211.399611 
L 351.586597 211.399611 
L 351.586597 211.82303 
L 353.205552 211.82303 
L 353.205552 213.693127 
L 354.824508 213.693127 
L 354.824508 213.49906 
L 356.443463 213.49906 
L 356.443463 213.816624 
L 358.062419 213.816624 
L 358.062419 214.169472 
L 359.681374 214.169472 
L 359.681374 214.857527 
L 361.30033 214.857527 
L 361.30033 215.580866 
L 362.919285 215.580866 
L 362.919285 215.810218 
L 364.538241 215.810218 
L 364.538241 216.921691 
L 366.157196 216.921691 
L 366.157196 216.780551 
L 367.776152 216.780551 
L 367.776152 217.556818 
L 371.014063 217.627388 
L 371.014063 217.892024 
L 372.633018 217.892024 
L 372.633018 218.36837 
L 374.251974 218.36837 
L 374.251974 218.491867 
L 375.870929 218.491867 
L 375.870929 218.862358 
L 377.489885 218.862358 
L 377.489885 218.862358 
" clip-path="url(#p298641c281)" style="fill: none; stroke: #ff7f0e; stroke-width: 1.5; stroke-linecap: square"/>
   </g>
   <g id="line2d_15">
    <path d="M 74.908807 218.862358 
L 81.384629 218.827073 
L 81.384629 218.721218 
L 92.717317 218.633006 
L 92.717317 218.474224 
L 95.955228 218.438939 
L 95.955228 218.191945 
L 99.19314 218.191945 
L 99.19314 217.927309 
L 100.812095 217.927309 
L 100.812095 217.627388 
L 102.431051 217.627388 
L 102.431051 217.380394 
L 104.050006 217.380394 
L 104.050006 217.239254 
L 105.668962 217.239254 
L 105.668962 217.433321 
L 107.287917 217.433321 
L 107.287917 216.709982 
L 108.906873 216.709982 
L 108.906873 216.357133 
L 110.525828 216.357133 
L 110.525828 215.651436 
L 113.763739 215.563224 
L 113.763739 214.963381 
L 115.382695 214.963381 
L 115.382695 214.01069 
L 117.00165 214.01069 
L 117.00165 212.811006 
L 118.620606 212.811006 
L 118.620606 210.65863 
L 120.239561 210.65863 
L 120.239561 209.794151 
L 121.858517 209.794151 
L 121.858517 209.176666 
L 123.477472 209.176666 
L 123.477472 205.27769 
L 125.096428 205.27769 
L 125.096428 201.290501 
L 126.715383 201.290501 
L 126.715383 198.097222 
L 128.334339 198.097222 
L 128.334339 194.780446 
L 129.953294 194.780446 
L 129.953294 189.487719 
L 131.57225 189.487719 
L 131.57225 184.600767 
L 133.191205 184.600767 
L 133.191205 177.596724 
L 134.810161 177.596724 
L 134.810161 171.333662 
L 136.429116 171.333662 
L 136.429116 166.975983 
L 138.048072 166.975983 
L 138.048072 158.666401 
L 139.667027 158.666401 
L 139.667027 152.315127 
L 141.285983 152.315127 
L 141.285983 145.734502 
L 142.904938 145.734502 
L 142.904938 137.671914 
L 144.523894 137.671914 
L 144.523894 130.279737 
L 146.142849 130.279737 
L 146.142849 120.152985 
L 147.761805 120.152985 
L 147.761805 110.996566 
L 149.38076 110.996566 
L 149.38076 102.210638 
L 150.999716 102.210638 
L 150.999716 96.653274 
L 152.618671 96.653274 
L 152.618671 88.537758 
L 154.237627 88.537758 
L 154.237627 76.470339 
L 155.856582 76.470339 
L 155.856582 66.502368 
L 157.475538 66.502368 
L 157.475538 56.728464 
L 159.094493 56.728464 
L 159.094493 54.487876 
L 160.713449 54.487876 
L 160.713449 49.301003 
L 162.332404 49.301003 
L 162.332404 49.001082 
L 163.95136 49.001082 
L 163.95136 45.79016 
L 165.570316 45.79016 
L 165.570316 40.99142 
L 167.189271 40.99142 
L 167.189271 35.16942 
L 170.427182 35.116493 
L 170.427182 28.112449 
L 172.046138 28.112449 
L 172.046138 25.889504 
L 173.665093 25.889504 
L 173.665093 31.817359 
L 175.284049 31.817359 
L 175.284049 30.335395 
L 176.903004 30.335395 
L 176.903004 29.876692 
L 178.52196 29.876692 
L 178.52196 27.195043 
L 180.140915 27.195043 
L 180.140915 23.24314 
L 181.759871 23.24314 
L 181.759871 27.865456 
L 183.378826 27.865456 
L 183.378826 29.823765 
L 184.997782 29.823765 
L 184.997782 31.393941 
L 186.616737 31.393941 
L 186.616737 31.764432 
L 188.235693 31.764432 
L 188.235693 27.018619 
L 189.854648 27.018619 
L 189.854648 28.906359 
L 191.473604 28.906359 
L 191.473604 29.735553 
L 193.092559 29.735553 
L 193.092559 35.928044 
L 194.711515 35.928044 
L 194.711515 38.574408 
L 196.33047 38.574408 
L 196.33047 33.969735 
L 197.949426 33.969735 
L 197.949426 36.492602 
L 199.568381 36.492602 
L 199.568381 34.922426 
L 201.187337 34.922426 
L 201.187337 40.938493 
L 202.806292 40.938493 
L 202.806292 44.661045 
L 204.425248 44.661045 
L 204.425248 48.630591 
L 206.044203 48.630591 
L 206.044203 57.20481 
L 207.663159 57.20481 
L 207.663159 56.728464 
L 209.282114 56.728464 
L 209.282114 58.81027 
L 210.90107 58.81027 
L 210.90107 61.491919 
L 212.520025 61.491919 
L 212.520025 68.301896 
L 214.138981 68.301896 
L 214.138981 72.48315 
L 215.757936 72.48315 
L 215.757936 72.871284 
L 217.376892 72.871284 
L 217.376892 79.204915 
L 218.995847 79.204915 
L 218.995847 83.862515 
L 220.614803 83.862515 
L 220.614803 82.415836 
L 222.233758 82.415836 
L 222.233758 83.756661 
L 223.852714 83.756661 
L 223.852714 88.502473 
L 225.471669 88.502473 
L 225.471669 93.865771 
L 227.090625 93.865771 
L 227.090625 98.593941 
L 228.709581 98.593941 
L 228.709581 99.652486 
L 230.328536 99.652486 
L 230.328536 100.075904 
L 231.947492 100.075904 
L 231.947492 102.104783 
L 233.566447 102.104783 
L 233.566447 104.151305 
L 235.185403 104.151305 
L 235.185403 110.00859 
L 236.804358 110.00859 
L 236.804358 111.737548 
L 238.423314 111.737548 
L 238.423314 115.760021 
L 240.042269 115.760021 
L 240.042269 114.860257 
L 241.661225 114.860257 
L 241.661225 117.930039 
L 243.28018 117.930039 
L 243.28018 118.512239 
L 244.899136 118.512239 
L 244.899136 119.306149 
L 246.518091 119.306149 
L 246.518091 123.68147 
L 248.137047 123.68147 
L 248.137047 128.603707 
L 249.756002 128.603707 
L 249.756002 130.262095 
L 251.374958 130.262095 
L 251.374958 131.497065 
L 252.993913 131.497065 
L 252.993913 130.95015 
L 254.612869 130.95015 
L 254.612869 132.326259 
L 256.231824 132.326259 
L 256.231824 136.031168 
L 257.85078 136.031168 
L 257.85078 138.095332 
L 259.469735 138.095332 
L 259.469735 139.877217 
L 261.088691 139.877217 
L 261.088691 143.141066 
L 262.707646 143.141066 
L 262.707646 141.694387 
L 264.326602 141.694387 
L 264.326602 142.576508 
L 265.945557 142.576508 
L 265.945557 146.422557 
L 267.564513 146.422557 
L 267.564513 148.133872 
L 269.183468 148.133872 
L 269.183468 148.327939 
L 270.802424 148.327939 
L 270.802424 149.9334 
L 272.421379 149.9334 
L 272.421379 151.874067 
L 274.040335 151.874067 
L 274.040335 153.603024 
L 275.65929 153.603024 
L 275.65929 154.73214 
L 277.278246 154.73214 
L 277.278246 154.396934 
L 278.897201 154.396934 
L 278.897201 157.431431 
L 280.516157 157.431431 
L 280.516157 159.513237 
L 282.135112 159.513237 
L 282.135112 159.336813 
L 283.754068 159.336813 
L 283.754068 160.218934 
L 285.373023 160.218934 
L 285.373023 162.812371 
L 286.991979 162.812371 
L 286.991979 163.518068 
L 288.610934 163.518068 
L 288.610934 166.870129 
L 290.22989 166.870129 
L 290.22989 167.840462 
L 291.848846 167.840462 
L 291.848846 168.175668 
L 293.467801 168.175668 
L 293.467801 168.810795 
L 295.086757 168.810795 
L 295.086757 169.869341 
L 296.705712 169.869341 
L 296.705712 172.886196 
L 299.943623 172.99205 
L 299.943623 174.703366 
L 301.562579 174.703366 
L 301.562579 177.561439 
L 303.181534 177.561439 
L 303.181534 179.590318 
L 304.80049 179.590318 
L 304.80049 180.560651 
L 306.419445 180.560651 
L 306.419445 182.924736 
L 308.038401 182.924736 
L 308.038401 182.554245 
L 309.657356 182.554245 
L 309.657356 185.271179 
L 311.276312 185.271179 
L 311.276312 186.911924 
L 312.895267 186.911924 
L 312.895267 188.217464 
L 314.514223 188.217464 
L 314.514223 190.016991 
L 316.133178 190.016991 
L 316.133178 190.263985 
L 317.752134 190.263985 
L 317.752134 190.016991 
L 319.371089 190.016991 
L 319.371089 194.339386 
L 320.990045 194.339386 
L 320.990045 195.150937 
L 322.609 195.150937 
L 322.609 196.315337 
L 324.227956 196.315337 
L 324.227956 197.532665 
L 325.846911 197.532665 
L 325.846911 197.885513 
L 327.465867 197.885513 
L 327.465867 199.649756 
L 329.084822 199.649756 
L 329.084822 199.949677 
L 330.703778 199.949677 
L 330.703778 200.602447 
L 332.322733 200.602447 
L 332.322733 202.648968 
L 333.941689 202.648968 
L 333.941689 204.095647 
L 335.560644 204.095647 
L 335.560644 203.266453 
L 337.1796 203.266453 
L 337.1796 204.589635 
L 338.798555 204.589635 
L 338.798555 206.989005 
L 340.417511 206.989005 
L 340.417511 206.742011 
L 342.036466 206.742011 
L 342.036466 208.894387 
L 343.655422 208.894387 
L 343.655422 209.847078 
L 345.274377 209.847078 
L 345.274377 209.653011 
L 346.893333 209.653011 
L 346.893333 210.00586 
L 348.512288 210.00586 
L 348.512288 210.729199 
L 350.131244 210.729199 
L 350.131244 211.875957 
L 351.750199 211.875957 
L 351.750199 212.158236 
L 353.369155 212.158236 
L 353.369155 213.463775 
L 356.607066 213.463775 
L 356.607066 213.922478 
L 358.226022 213.922478 
L 358.226022 214.204757 
L 359.844977 214.204757 
L 359.844977 214.910454 
L 361.463933 214.910454 
L 361.463933 215.510297 
L 363.082888 215.510297 
L 363.082888 216.127782 
L 364.701844 216.127782 
L 364.701844 216.921691 
L 367.939755 216.851121 
L 367.939755 217.433321 
L 369.55871 217.433321 
L 369.55871 217.78617 
L 371.177666 217.78617 
L 371.177666 217.909667 
L 372.796621 217.909667 
L 372.796621 218.350727 
L 374.415577 218.350727 
L 374.415577 218.544794 
L 376.034532 218.544794 
L 376.034532 218.791788 
L 379.272443 218.827073 
L 379.272443 218.827073 
" clip-path="url(#p298641c281)" style="fill: none; stroke: #2ca02c; stroke-width: 1.5; stroke-linecap: square"/>
   </g>
   <g id="patch_3">
    <path d="M 59.690625 228.96 
L 59.690625 7.2 
" style="fill: none; stroke: #000000; stroke-width: 0.8; stroke-linejoin: miter; stroke-linecap: square"/>
   </g>
   <g id="patch_4">
    <path d="M 394.490625 228.96 
L 394.490625 7.2 
" style="fill: none; stroke: #000000; stroke-width: 0.8; stroke-linejoin: miter; stroke-linecap: square"/>
   </g>
   <g id="patch_5">
    <path d="M 59.690625 228.96 
L 394.490625 228.96 
" style="fill: none; stroke: #000000; stroke-width: 0.8; stroke-linejoin: miter; stroke-linecap: square"/>
   </g>
   <g id="patch_6">
    <path d="M 59.690625 7.2 
L 394.490625 7.2 
" style="fill: none; stroke: #000000; stroke-width: 0.8; stroke-linejoin: miter; stroke-linecap: square"/>
   </g>
   <g id="legend_1">
    <g id="patch_7">
     <path d="M 313.267188 59.234375 
L 387.490625 59.234375 
Q 389.490625 59.234375 389.490625 57.234375 
L 389.490625 14.2 
Q 389.490625 12.2 387.490625 12.2 
L 313.267188 12.2 
Q 311.267188 12.2 311.267188 14.2 
L 311.267188 57.234375 
Q 311.267188 59.234375 313.267188 59.234375 
z
" style="fill: #ffffff; opacity: 0.8; stroke: #cccccc; stroke-linejoin: miter"/>
    </g>
    <g id="line2d_16">
     <path d="M 315.267188 20.298438 
L 315.267188 20.298438 
L 325.267188 20.298438 
L 325.267188 20.298438 
L 335.267188 20.298438 
" style="fill: none; stroke: #1f77b4; stroke-width: 1.5; stroke-linecap: square"/>
    </g>
    <g id="text_15">
     <!-- monitor -->
     <g transform="translate(343.267188 23.798438) scale(0.1 -0.1)">
      <defs>
       <path id="DejaVuSans-6d" d="M 3328 2828 
Q 3544 3216 3844 3400 
Q 4144 3584 4550 3584 
Q 5097 3584 5394 3201 
Q 5691 2819 5691 2113 
L 5691 0 
L 5113 0 
L 5113 2094 
Q 5113 2597 4934 2840 
Q 4756 3084 4391 3084 
Q 3944 3084 3684 2787 
Q 3425 2491 3425 1978 
L 3425 0 
L 2847 0 
L 2847 2094 
Q 2847 2600 2669 2842 
Q 2491 3084 2119 3084 
Q 1678 3084 1418 2786 
Q 1159 2488 1159 1978 
L 1159 0 
L 581 0 
L 581 3500 
L 1159 3500 
L 1159 2956 
Q 1356 3278 1631 3431 
Q 1906 3584 2284 3584 
Q 2666 3584 2933 3390 
Q 3200 3197 3328 2828 
z
" transform="scale(0.015625)"/>
       <path id="DejaVuSans-69" d="M 603 3500 
L 1178 3500 
L 1178 0 
L 603 0 
L 603 3500 
z
M 603 4863 
L 1178 4863 
L 1178 4134 
L 603 4134 
L 603 4863 
z
" transform="scale(0.015625)"/>
       <path id="DejaVuSans-72" d="M 2631 2963 
Q 2534 3019 2420 3045 
Q 2306 3072 2169 3072 
Q 1681 3072 1420 2755 
Q 1159 2438 1159 1844 
L 1159 0 
L 581 0 
L 581 3500 
L 1159 3500 
L 1159 2956 
Q 1341 3275 1631 3429 
Q 1922 3584 2338 3584 
Q 2397 3584 2469 3576 
Q 2541 3569 2628 3553 
L 2631 2963 
z
" transform="scale(0.015625)"/>
      </defs>
      <use xlink:href="#DejaVuSans-6d"/>
      <use xlink:href="#DejaVuSans-6f" transform="translate(97.412109 0)"/>
      <use xlink:href="#DejaVuSans-6e" transform="translate(158.59375 0)"/>
      <use xlink:href="#DejaVuSans-69" transform="translate(221.972656 0)"/>
      <use xlink:href="#DejaVuSans-74" transform="translate(249.755859 0)"/>
      <use xlink:href="#DejaVuSans-6f" transform="translate(288.964844 0)"/>
      <use xlink:href="#DejaVuSans-72" transform="translate(350.146484 0)"/>
     </g>
    </g>
    <g id="line2d_17">
     <path d="M 315.267188 34.976562 
L 315.267188 34.976562 
L 325.267188 34.976562 
L 325.267188 34.976562 
L 335.267188 34.976562 
" style="fill: none; stroke: #ff7f0e; stroke-width: 1.5; stroke-linecap: square"/>
    </g>
    <g id="text_16">
     <!-- detector -->
     <g transform="translate(343.267188 38.476562) scale(0.1 -0.1)">
      <defs>
       <path id="DejaVuSans-64" d="M 2906 2969 
L 2906 4863 
L 3481 4863 
L 3481 0 
L 2906 0 
L 2906 525 
Q 2725 213 2448 61 
Q 2172 -91 1784 -91 
Q 1150 -91 751 415 
Q 353 922 353 1747 
Q 353 2572 751 3078 
Q 1150 3584 1784 3584 
Q 2172 3584 2448 3432 
Q 2725 3281 2906 2969 
z
M 947 1747 
Q 947 1113 1208 752 
Q 1469 391 1925 391 
Q 2381 391 2643 752 
Q 2906 1113 2906 1747 
Q 2906 2381 2643 2742 
Q 2381 3103 1925 3103 
Q 1469 3103 1208 2742 
Q 947 2381 947 1747 
z
" transform="scale(0.015625)"/>
      </defs>
      <use xlink:href="#DejaVuSans-64"/>
      <use xlink:href="#DejaVuSans-65" transform="translate(63.476562 0)"/>
      <use xlink:href="#DejaVuSans-74" transform="translate(125 0)"/>
      <use xlink:href="#DejaVuSans-65" transform="translate(164.208984 0)"/>
      <use xlink:href="#DejaVuSans-63" transform="translate(225.732422 0)"/>
      <use xlink:href="#DejaVuSans-74" transform="translate(280.712891 0)"/>
      <use xlink:href="#DejaVuSans-6f" transform="translate(319.921875 0)"/>
      <use xlink:href="#DejaVuSans-72" transform="translate(381.103516 0)"/>
     </g>
    </g>
    <g id="line2d_18">
     <path d="M 315.267188 49.654688 
L 315.267188 49.654688 
L 325.267188 49.654688 
L 325.267188 49.654688 
L 335.267188 49.654688 
" style="fill: none; stroke: #2ca02c; stroke-width: 1.5; stroke-linecap: square"/>
    </g>
    <g id="text_17">
     <!-- true -->
     <g transform="translate(343.267188 53.154688) scale(0.1 -0.1)">
      <use xlink:href="#DejaVuSans-74"/>
      <use xlink:href="#DejaVuSans-72" transform="translate(39.208984 0)"/>
      <use xlink:href="#DejaVuSans-75" transform="translate(80.322266 0)"/>
      <use xlink:href="#DejaVuSans-65" transform="translate(143.701172 0)"/>
     </g>
    </g>
   </g>
  </g>
 </g>
 <defs>
  <clipPath id="p298641c281">
   <rect x="59.690625" y="7.2" width="334.8" height="221.76"/>
  </clipPath>
 </defs>
</svg>
