<?xml version="1.0" encoding="utf-8" standalone="no"?>
<!DOCTYPE svg PUBLIC "-//W3C//DTD SVG 1.1//EN"
  "http://www.w3.org/Graphics/SVG/1.1/DTD/svg11.dtd">
<svg xmlns:xlink="http://www.w3.org/1999/xlink" width="401.690625pt" height="270.81551pt" viewBox="0 0 401.690625 270.81551" xmlns="http://www.w3.org/2000/svg" version="1.1">
 <metadata>
  <rdf:RDF xmlns:dc="http://purl.org/dc/elements/1.1/" xmlns:cc="http://creativecommons.org/ns#" xmlns:rdf="http://www.w3.org/1999/02/22-rdf-syntax-ns#">
   <cc:Work>
    <dc:type rdf:resource="http://purl.org/dc/dcmitype/StillImage"/>
    <dc:date>2026-04-22T12:50:53.963983</dc:date>
    <dc:format>image/svg+xml</dc:format>
    <dc:creator>
     <cc:Agent>
      <dc:title>Matplotlib v3.10.8, https://matplotlib.org/</dc:title>
     </cc:Agent>
    </dc:creator>
   </cc:Work>
  </rdf:RDF>
 </metadata>
 <defs>
  <style type="text/css">*{stroke-linejoin: round; stroke-linecap: butt}</style>
 </defs>
 <g id="figure_1">
  <g id="patch_1">
   <path d="M 0 270.81551 
L 401.690625 270.81551 
L 401.690625 0 
L 0 0 
z
" style="fill: #ffffff"/>
  </g>
  <g id="axes_1">
   <g id="patch_2">
    <path d="M 59.690625 231.574885 
L 394.490625 231.574885 
L 394.490625 9.814885 
L 59.690625 9.814885 
z
" style="fill: #ffffff"/>
   </g>
   <g id="matplotlib.axis_1">
    <g id="xtick_1">
     <g id="line2d_1">
      <defs>
       <path id="m53a3235742" d="M 0 0 
L 0 3.5 
" style="stroke: #000000; stroke-width: 0.8"/>
      </defs>
      <g>
       <use xlink:href="#m53a3235742" x="72.793984" y="231.574885" style="stroke: #000000; stroke-width: 0.8"/>
      </g>
     </g>
     <g id="text_1">
      <!-- 1 -->
      <g transform="translate(69.612734 246.173322) scale(0.1 -0.1)">
       <defs>
        <path id="DejaVuSans-31" d="M 794 531 
L 1825 531 
L 1825 4091 
L 703 3866 
L 703 4441 
L 1819 4666 
L 2450 4666 
L 2450 531 
L 3481 531 
L 3481 0 
L 794 0 
L 794 531 
z
" transform="scale(0.015625)"/>
       </defs>
       <use xlink:href="#DejaVuSans-31"/>
      </g>
     </g>
    </g>
    <g id="xtick_2">
     <g id="line2d_2">
      <g>
       <use xlink:href="#m53a3235742" x="127.047751" y="231.574885" style="stroke: #000000; stroke-width: 0.8"/>
      </g>
     </g>
     <g id="text_2">
      <!-- 2 -->
      <g transform="translate(123.866501 246.173322) scale(0.1 -0.1)">
       <defs>
        <path id="DejaVuSans-32" d="M 1228 531 
L 3431 531 
L 3431 0 
L 469 0 
L 469 531 
Q 828 903 1448 1529 
Q 2069 2156 2228 2338 
Q 2531 2678 2651 2914 
Q 2772 3150 2772 3378 
Q 2772 3750 2511 3984 
Q 2250 4219 1831 4219 
Q 1534 4219 1204 4116 
Q 875 4013 500 3803 
L 500 4441 
Q 881 4594 1212 4672 
Q 1544 4750 1819 4750 
Q 2544 4750 2975 4387 
Q 3406 4025 3406 3419 
Q 3406 3131 3298 2873 
Q 3191 2616 2906 2266 
Q 2828 2175 2409 1742 
Q 1991 1309 1228 531 
z
" transform="scale(0.015625)"/>
       </defs>
       <use xlink:href="#DejaVuSans-32"/>
      </g>
     </g>
    </g>
    <g id="xtick_3">
     <g id="line2d_3">
      <g>
       <use xlink:href="#m53a3235742" x="181.301519" y="231.574885" style="stroke: #000000; stroke-width: 0.8"/>
      </g>
     </g>
     <g id="text_3">
      <!-- 3 -->
      <g transform="translate(178.120269 246.173322) scale(0.1 -0.1)">
       <defs>
        <path id="DejaVuSans-33" d="M 2597 2516 
Q 3050 2419 3304 2112 
Q 3559 1806 3559 1356 
Q 3559 666 3084 287 
Q 2609 -91 1734 -91 
Q 1441 -91 1130 -33 
Q 819 25 488 141 
L 488 750 
Q 750 597 1062 519 
Q 1375 441 1716 441 
Q 2309 441 2620 675 
Q 2931 909 2931 1356 
Q 2931 1769 2642 2001 
Q 2353 2234 1838 2234 
L 1294 2234 
L 1294 2753 
L 1863 2753 
Q 2328 2753 2575 2939 
Q 2822 3125 2822 3475 
Q 2822 3834 2567 4026 
Q 2313 4219 1838 4219 
Q 1578 4219 1281 4162 
Q 984 4106 628 3988 
L 628 4550 
Q 988 4650 1302 4700 
Q 1616 4750 1894 4750 
Q 2613 4750 3031 4423 
Q 3450 4097 3450 3541 
Q 3450 3153 3228 2886 
Q 3006 2619 2597 2516 
z
" transform="scale(0.015625)"/>
       </defs>
       <use xlink:href="#DejaVuSans-33"/>
      </g>
     </g>
    </g>
    <g id="xtick_4">
     <g id="line2d_4">
      <g>
       <use xlink:href="#m53a3235742" x="235.555287" y="231.574885" style="stroke: #000000; stroke-width: 0.8"/>
      </g>
     </g>
     <g id="text_4">
      <!-- 4 -->
      <g transform="translate(232.374037 246.173322) scale(0.1 -0.1)">
       <defs>
        <path id="DejaVuSans-34" d="M 2419 4116 
L 825 1625 
L 2419 1625 
L 2419 4116 
z
M 2253 4666 
L 3047 4666 
L 3047 1625 
L 3713 1625 
L 3713 1100 
L 3047 1100 
L 3047 0 
L 2419 0 
L 2419 1100 
L 313 1100 
L 313 1709 
L 2253 4666 
z
" transform="scale(0.015625)"/>
       </defs>
       <use xlink:href="#DejaVuSans-34"/>
      </g>
     </g>
    </g>
    <g id="xtick_5">
     <g id="line2d_5">
      <g>
       <use xlink:href="#m53a3235742" x="289.809054" y="231.574885" style="stroke: #000000; stroke-width: 0.8"/>
      </g>
     </g>
     <g id="text_5">
      <!-- 5 -->
      <g transform="translate(286.627804 246.173322) scale(0.1 -0.1)">
       <defs>
        <path id="DejaVuSans-35" d="M 691 4666 
L 3169 4666 
L 3169 4134 
L 1269 4134 
L 1269 2991 
Q 1406 3038 1543 3061 
Q 1681 3084 1819 3084 
Q 2600 3084 3056 2656 
Q 3513 2228 3513 1497 
Q 3513 744 3044 326 
Q 2575 -91 1722 -91 
Q 1428 -91 1123 -41 
Q 819 9 494 109 
L 494 744 
Q 775 591 1075 516 
Q 1375 441 1709 441 
Q 2250 441 2565 725 
Q 2881 1009 2881 1497 
Q 2881 1984 2565 2268 
Q 2250 2553 1709 2553 
Q 1456 2553 1204 2497 
Q 953 2441 691 2322 
L 691 4666 
z
" transform="scale(0.015625)"/>
       </defs>
       <use xlink:href="#DejaVuSans-35"/>
      </g>
     </g>
    </g>
    <g id="xtick_6">
     <g id="line2d_6">
      <g>
       <use xlink:href="#m53a3235742" x="344.062822" y="231.574885" style="stroke: #000000; stroke-width: 0.8"/>
      </g>
     </g>
     <g id="text_6">
      <!-- 6 -->
      <g transform="translate(340.881572 246.173322) scale(0.1 -0.1)">
       <defs>
        <path id="DejaVuSans-36" d="M 2113 2584 
Q 1688 2584 1439 2293 
Q 1191 2003 1191 1497 
Q 1191 994 1439 701 
Q 1688 409 2113 409 
Q 2538 409 2786 701 
Q 3034 994 3034 1497 
Q 3034 2003 2786 2293 
Q 2538 2584 2113 2584 
z
M 3366 4563 
L 3366 3988 
Q 3128 4100 2886 4159 
Q 2644 4219 2406 4219 
Q 1781 4219 1451 3797 
Q 1122 3375 1075 2522 
Q 1259 2794 1537 2939 
Q 1816 3084 2150 3084 
Q 2853 3084 3261 2657 
Q 3669 2231 3669 1497 
Q 3669 778 3244 343 
Q 2819 -91 2113 -91 
Q 1303 -91 875 529 
Q 447 1150 447 2328 
Q 447 3434 972 4092 
Q 1497 4750 2381 4750 
Q 2619 4750 2861 4703 
Q 3103 4656 3366 4563 
z
" transform="scale(0.015625)"/>
       </defs>
       <use xlink:href="#DejaVuSans-36"/>
      </g>
     </g>
    </g>
    <g id="text_7">
     <!-- wavelength [Å] -->
     <g transform="translate(189.053125 261.535822) scale(0.1 -0.1)">
      <defs>
       <path id="DejaVuSans-77" d="M 269 3500 
L 844 3500 
L 1563 769 
L 2278 3500 
L 2956 3500 
L 3675 769 
L 4391 3500 
L 4966 3500 
L 4050 0 
L 3372 0 
L 2619 2869 
L 1863 0 
L 1184 0 
L 269 3500 
z
" transform="scale(0.015625)"/>
       <path id="DejaVuSans-61" d="M 2194 1759 
Q 1497 1759 1228 1600 
Q 959 1441 959 1056 
Q 959 750 1161 570 
Q 1363 391 1709 391 
Q 2188 391 2477 730 
Q 2766 1069 2766 1631 
L 2766 1759 
L 2194 1759 
z
M 3341 1997 
L 3341 0 
L 2766 0 
L 2766 531 
Q 2569 213 2275 61 
Q 1981 -91 1556 -91 
Q 1019 -91 701 211 
Q 384 513 384 1019 
Q 384 1609 779 1909 
Q 1175 2209 1959 2209 
L 2766 2209 
L 2766 2266 
Q 2766 2663 2505 2880 
Q 2244 3097 1772 3097 
Q 1472 3097 1187 3025 
Q 903 2953 641 2809 
L 641 3341 
Q 956 3463 1253 3523 
Q 1550 3584 1831 3584 
Q 2591 3584 2966 3190 
Q 3341 2797 3341 1997 
z
" transform="scale(0.015625)"/>
       <path id="DejaVuSans-76" d="M 191 3500 
L 800 3500 
L 1894 563 
L 2988 3500 
L 3597 3500 
L 2284 0 
L 1503 0 
L 191 3500 
z
" transform="scale(0.015625)"/>
       <path id="DejaVuSans-65" d="M 3597 1894 
L 3597 1613 
L 953 1613 
Q 991 1019 1311 708 
Q 1631 397 2203 397 
Q 2534 397 2845 478 
Q 3156 559 3463 722 
L 3463 178 
Q 3153 47 2828 -22 
Q 2503 -91 2169 -91 
Q 1331 -91 842 396 
Q 353 884 353 1716 
Q 353 2575 817 3079 
Q 1281 3584 2069 3584 
Q 2775 3584 3186 3129 
Q 3597 2675 3597 1894 
z
M 3022 2063 
Q 3016 2534 2758 2815 
Q 2500 3097 2075 3097 
Q 1594 3097 1305 2825 
Q 1016 2553 972 2059 
L 3022 2063 
z
" transform="scale(0.015625)"/>
       <path id="DejaVuSans-6c" d="M 603 4863 
L 1178 4863 
L 1178 0 
L 603 0 
L 603 4863 
z
" transform="scale(0.015625)"/>
       <path id="DejaVuSans-6e" d="M 3513 2113 
L 3513 0 
L 2938 0 
L 2938 2094 
Q 2938 2591 2744 2837 
Q 2550 3084 2163 3084 
Q 1697 3084 1428 2787 
Q 1159 2491 1159 1978 
L 1159 0 
L 581 0 
L 581 3500 
L 1159 3500 
L 1159 2956 
Q 1366 3272 1645 3428 
Q 1925 3584 2291 3584 
Q 2894 3584 3203 3211 
Q 3513 2838 3513 2113 
z
" transform="scale(0.015625)"/>
       <path id="DejaVuSans-67" d="M 2906 1791 
Q 2906 2416 2648 2759 
Q 2391 3103 1925 3103 
Q 1463 3103 1205 2759 
Q 947 2416 947 1791 
Q 947 1169 1205 825 
Q 1463 481 1925 481 
Q 2391 481 2648 825 
Q 2906 1169 2906 1791 
z
M 3481 434 
Q 3481 -459 3084 -895 
Q 2688 -1331 1869 -1331 
Q 1566 -1331 1297 -1286 
Q 1028 -1241 775 -1147 
L 775 -588 
Q 1028 -725 1275 -790 
Q 1522 -856 1778 -856 
Q 2344 -856 2625 -561 
Q 2906 -266 2906 331 
L 2906 616 
Q 2728 306 2450 153 
Q 2172 0 1784 0 
Q 1141 0 747 490 
Q 353 981 353 1791 
Q 353 2603 747 3093 
Q 1141 3584 1784 3584 
Q 2172 3584 2450 3431 
Q 2728 3278 2906 2969 
L 2906 3500 
L 3481 3500 
L 3481 434 
z
" transform="scale(0.015625)"/>
       <path id="DejaVuSans-74" d="M 1172 4494 
L 1172 3500 
L 2356 3500 
L 2356 3053 
L 1172 3053 
L 1172 1153 
Q 1172 725 1289 603 
Q 1406 481 1766 481 
L 2356 481 
L 2356 0 
L 1766 0 
Q 1100 0 847 248 
Q 594 497 594 1153 
L 594 3053 
L 172 3053 
L 172 3500 
L 594 3500 
L 594 4494 
L 1172 4494 
z
" transform="scale(0.015625)"/>
       <path id="DejaVuSans-68" d="M 3513 2113 
L 3513 0 
L 2938 0 
L 2938 2094 
Q 2938 2591 2744 2837 
Q 2550 3084 2163 3084 
Q 1697 3084 1428 2787 
Q 1159 2491 1159 1978 
L 1159 0 
L 581 0 
L 581 4863 
L 1159 4863 
L 1159 2956 
Q 1366 3272 1645 3428 
Q 1925 3584 2291 3584 
Q 2894 3584 3203 3211 
Q 3513 2838 3513 2113 
z
" transform="scale(0.015625)"/>
       <path id="DejaVuSans-20" transform="scale(0.015625)"/>
       <path id="DejaVuSans-5b" d="M 550 4863 
L 1875 4863 
L 1875 4416 
L 1125 4416 
L 1125 -397 
L 1875 -397 
L 1875 -844 
L 550 -844 
L 550 4863 
z
" transform="scale(0.015625)"/>
       <path id="DejaVuSans-c5" d="M 2663 5081 
Q 2663 5278 2523 5417 
Q 2384 5556 2188 5556 
Q 1988 5556 1852 5420 
Q 1716 5284 1716 5081 
Q 1716 4884 1853 4746 
Q 1991 4609 2188 4609 
Q 2384 4609 2523 4746 
Q 2663 4884 2663 5081 
z
M 2188 4044 
L 1338 1722 
L 3041 1722 
L 2188 4044 
z
M 1716 4366 
Q 1525 4494 1428 4673 
Q 1331 4853 1331 5081 
Q 1331 5441 1579 5691 
Q 1828 5941 2188 5941 
Q 2544 5941 2795 5689 
Q 3047 5438 3047 5081 
Q 3047 4863 2948 4678 
Q 2850 4494 2663 4366 
L 4325 0 
L 3669 0 
L 3244 1197 
L 1141 1197 
L 716 0 
L 50 0 
L 1716 4366 
z
" transform="scale(0.015625)"/>
       <path id="DejaVuSans-5d" d="M 1947 4863 
L 1947 -844 
L 622 -844 
L 622 -397 
L 1369 -397 
L 1369 4416 
L 622 4416 
L 622 4863 
L 1947 4863 
z
" transform="scale(0.015625)"/>
      </defs>
      <use xlink:href="#DejaVuSans-77"/>
      <use xlink:href="#DejaVuSans-61" transform="translate(81.787109 0)"/>
      <use xlink:href="#DejaVuSans-76" transform="translate(143.066406 0)"/>
      <use xlink:href="#DejaVuSans-65" transform="translate(202.246094 0)"/>
      <use xlink:href="#DejaVuSans-6c" transform="translate(263.769531 0)"/>
      <use xlink:href="#DejaVuSans-65" transform="translate(291.552734 0)"/>
      <use xlink:href="#DejaVuSans-6e" transform="translate(353.076172 0)"/>
      <use xlink:href="#DejaVuSans-67" transform="translate(416.455078 0)"/>
      <use xlink:href="#DejaVuSans-74" transform="translate(479.931641 0)"/>
      <use xlink:href="#DejaVuSans-68" transform="translate(519.140625 0)"/>
      <use xlink:href="#DejaVuSans-20" transform="translate(582.519531 0)"/>
      <use xlink:href="#DejaVuSans-5b" transform="translate(614.306641 0)"/>
      <use xlink:href="#DejaVuSans-c5" transform="translate(653.320312 0)"/>
      <use xlink:href="#DejaVuSans-5d" transform="translate(721.728516 0)"/>
     </g>
    </g>
   </g>
   <g id="matplotlib.axis_2">
    <g id="ytick_1">
     <g id="line2d_7">
      <defs>
       <path id="m2012972de6" d="M 0 0 
L -3.5 0 
" style="stroke: #000000; stroke-width: 0.8"/>
      </defs>
      <g>
       <use xlink:href="#m2012972de6" x="59.690625" y="221.547522" style="stroke: #000000; stroke-width: 0.8"/>
      </g>
     </g>
     <g id="text_8">
      <!-- 0 -->
      <g transform="translate(46.328125 225.34674) scale(0.1 -0.1)">
       <defs>
        <path id="DejaVuSans-30" d="M 2034 4250 
Q 1547 4250 1301 3770 
Q 1056 3291 1056 2328 
Q 1056 1369 1301 889 
Q 1547 409 2034 409 
Q 2525 409 2770 889 
Q 3016 1369 3016 2328 
Q 3016 3291 2770 3770 
Q 2525 4250 2034 4250 
z
M 2034 4750 
Q 2819 4750 3233 4129 
Q 3647 3509 3647 2328 
Q 3647 1150 3233 529 
Q 2819 -91 2034 -91 
Q 1250 -91 836 529 
Q 422 1150 422 2328 
Q 422 3509 836 4129 
Q 1250 4750 2034 4750 
z
" transform="scale(0.015625)"/>
       </defs>
       <use xlink:href="#DejaVuSans-30"/>
      </g>
     </g>
    </g>
    <g id="ytick_2">
     <g id="line2d_8">
      <g>
       <use xlink:href="#m2012972de6" x="59.690625" y="186.456138" style="stroke: #000000; stroke-width: 0.8"/>
      </g>
     </g>
     <g id="text_9">
      <!-- 2000 -->
      <g transform="translate(27.240625 190.255357) scale(0.1 -0.1)">
       <use xlink:href="#DejaVuSans-32"/>
       <use xlink:href="#DejaVuSans-30" transform="translate(63.623047 0)"/>
       <use xlink:href="#DejaVuSans-30" transform="translate(127.246094 0)"/>
       <use xlink:href="#DejaVuSans-30" transform="translate(190.869141 0)"/>
      </g>
     </g>
    </g>
    <g id="ytick_3">
     <g id="line2d_9">
      <g>
       <use xlink:href="#m2012972de6" x="59.690625" y="151.364754" style="stroke: #000000; stroke-width: 0.8"/>
      </g>
     </g>
     <g id="text_10">
      <!-- 4000 -->
      <g transform="translate(27.240625 155.163973) scale(0.1 -0.1)">
       <use xlink:href="#DejaVuSans-34"/>
       <use xlink:href="#DejaVuSans-30" transform="translate(63.623047 0)"/>
       <use xlink:href="#DejaVuSans-30" transform="translate(127.246094 0)"/>
       <use xlink:href="#DejaVuSans-30" transform="translate(190.869141 0)"/>
      </g>
     </g>
    </g>
    <g id="ytick_4">
     <g id="line2d_10">
      <g>
       <use xlink:href="#m2012972de6" x="59.690625" y="116.27337" style="stroke: #000000; stroke-width: 0.8"/>
      </g>
     </g>
     <g id="text_11">
      <!-- 6000 -->
      <g transform="translate(27.240625 120.072589) scale(0.1 -0.1)">
       <use xlink:href="#DejaVuSans-36"/>
       <use xlink:href="#DejaVuSans-30" transform="translate(63.623047 0)"/>
       <use xlink:href="#DejaVuSans-30" transform="translate(127.246094 0)"/>
       <use xlink:href="#DejaVuSans-30" transform="translate(190.869141 0)"/>
      </g>
     </g>
    </g>
    <g id="ytick_5">
     <g id="line2d_11">
      <g>
       <use xlink:href="#m2012972de6" x="59.690625" y="81.181986" style="stroke: #000000; stroke-width: 0.8"/>
      </g>
     </g>
     <g id="text_12">
      <!-- 8000 -->
      <g transform="translate(27.240625 84.981205) scale(0.1 -0.1)">
       <defs>
        <path id="DejaVuSans-38" d="M 2034 2216 
Q 1584 2216 1326 1975 
Q 1069 1734 1069 1313 
Q 1069 891 1326 650 
Q 1584 409 2034 409 
Q 2484 409 2743 651 
Q 3003 894 3003 1313 
Q 3003 1734 2745 1975 
Q 2488 2216 2034 2216 
z
M 1403 2484 
Q 997 2584 770 2862 
Q 544 3141 544 3541 
Q 544 4100 942 4425 
Q 1341 4750 2034 4750 
Q 2731 4750 3128 4425 
Q 3525 4100 3525 3541 
Q 3525 3141 3298 2862 
Q 3072 2584 2669 2484 
Q 3125 2378 3379 2068 
Q 3634 1759 3634 1313 
Q 3634 634 3220 271 
Q 2806 -91 2034 -91 
Q 1263 -91 848 271 
Q 434 634 434 1313 
Q 434 1759 690 2068 
Q 947 2378 1403 2484 
z
M 1172 3481 
Q 1172 3119 1398 2916 
Q 1625 2713 2034 2713 
Q 2441 2713 2670 2916 
Q 2900 3119 2900 3481 
Q 2900 3844 2670 4047 
Q 2441 4250 2034 4250 
Q 1625 4250 1398 4047 
Q 1172 3844 1172 3481 
z
" transform="scale(0.015625)"/>
       </defs>
       <use xlink:href="#DejaVuSans-38"/>
       <use xlink:href="#DejaVuSans-30" transform="translate(63.623047 0)"/>
       <use xlink:href="#DejaVuSans-30" transform="translate(127.246094 0)"/>
       <use xlink:href="#DejaVuSans-30" transform="translate(190.869141 0)"/>
      </g>
     </g>
    </g>
    <g id="ytick_6">
     <g id="line2d_12">
      <g>
       <use xlink:href="#m2012972de6" x="59.690625" y="46.090603" style="stroke: #000000; stroke-width: 0.8"/>
      </g>
     </g>
     <g id="text_13">
      <!-- 10000 -->
      <g transform="translate(20.878125 49.889821) scale(0.1 -0.1)">
       <use xlink:href="#DejaVuSans-31"/>
       <use xlink:href="#DejaVuSans-30" transform="translate(63.623047 0)"/>
       <use xlink:href="#DejaVuSans-30" transform="translate(127.246094 0)"/>
       <use xlink:href="#DejaVuSans-30" transform="translate(190.869141 0)"/>
       <use xlink:href="#DejaVuSans-30" transform="translate(254.492188 0)"/>
      </g>
     </g>
    </g>
    <g id="ytick_7">
     <g id="line2d_13">
      <g>
       <use xlink:href="#m2012972de6" x="59.690625" y="10.999219" style="stroke: #000000; stroke-width: 0.8"/>
      </g>
     </g>
     <g id="text_14">
      <!-- 12000 -->
      <g transform="translate(20.878125 14.798438) scale(0.1 -0.1)">
       <use xlink:href="#DejaVuSans-31"/>
       <use xlink:href="#DejaVuSans-32" transform="translate(63.623047 0)"/>
       <use xlink:href="#DejaVuSans-30" transform="translate(127.246094 0)"/>
       <use xlink:href="#DejaVuSans-30" transform="translate(190.869141 0)"/>
       <use xlink:href="#DejaVuSans-30" transform="translate(254.492188 0)"/>
      </g>
     </g>
    </g>
    <g id="text_15">
     <!-- [counts] -->
     <g transform="translate(14.798438 141.307385) rotate(-90) scale(0.1 -0.1)">
      <defs>
       <path id="DejaVuSans-63" d="M 3122 3366 
L 3122 2828 
Q 2878 2963 2633 3030 
Q 2388 3097 2138 3097 
Q 1578 3097 1268 2742 
Q 959 2388 959 1747 
Q 959 1106 1268 751 
Q 1578 397 2138 397 
Q 2388 397 2633 464 
Q 2878 531 3122 666 
L 3122 134 
Q 2881 22 2623 -34 
Q 2366 -91 2075 -91 
Q 1284 -91 818 406 
Q 353 903 353 1747 
Q 353 2603 823 3093 
Q 1294 3584 2113 3584 
Q 2378 3584 2631 3529 
Q 2884 3475 3122 3366 
z
" transform="scale(0.015625)"/>
       <path id="DejaVuSans-6f" d="M 1959 3097 
Q 1497 3097 1228 2736 
Q 959 2375 959 1747 
Q 959 1119 1226 758 
Q 1494 397 1959 397 
Q 2419 397 2687 759 
Q 2956 1122 2956 1747 
Q 2956 2369 2687 2733 
Q 2419 3097 1959 3097 
z
M 1959 3584 
Q 2709 3584 3137 3096 
Q 3566 2609 3566 1747 
Q 3566 888 3137 398 
Q 2709 -91 1959 -91 
Q 1206 -91 779 398 
Q 353 888 353 1747 
Q 353 2609 779 3096 
Q 1206 3584 1959 3584 
z
" transform="scale(0.015625)"/>
       <path id="DejaVuSans-75" d="M 544 1381 
L 544 3500 
L 1119 3500 
L 1119 1403 
Q 1119 906 1312 657 
Q 1506 409 1894 409 
Q 2359 409 2629 706 
Q 2900 1003 2900 1516 
L 2900 3500 
L 3475 3500 
L 3475 0 
L 2900 0 
L 2900 538 
Q 2691 219 2414 64 
Q 2138 -91 1772 -91 
Q 1169 -91 856 284 
Q 544 659 544 1381 
z
M 1991 3584 
L 1991 3584 
z
" transform="scale(0.015625)"/>
       <path id="DejaVuSans-73" d="M 2834 3397 
L 2834 2853 
Q 2591 2978 2328 3040 
Q 2066 3103 1784 3103 
Q 1356 3103 1142 2972 
Q 928 2841 928 2578 
Q 928 2378 1081 2264 
Q 1234 2150 1697 2047 
L 1894 2003 
Q 2506 1872 2764 1633 
Q 3022 1394 3022 966 
Q 3022 478 2636 193 
Q 2250 -91 1575 -91 
Q 1294 -91 989 -36 
Q 684 19 347 128 
L 347 722 
Q 666 556 975 473 
Q 1284 391 1588 391 
Q 1994 391 2212 530 
Q 2431 669 2431 922 
Q 2431 1156 2273 1281 
Q 2116 1406 1581 1522 
L 1381 1569 
Q 847 1681 609 1914 
Q 372 2147 372 2553 
Q 372 3047 722 3315 
Q 1072 3584 1716 3584 
Q 2034 3584 2315 3537 
Q 2597 3491 2834 3397 
z
" transform="scale(0.015625)"/>
      </defs>
      <use xlink:href="#DejaVuSans-5b"/>
      <use xlink:href="#DejaVuSans-63" transform="translate(39.013672 0)"/>
      <use xlink:href="#DejaVuSans-6f" transform="translate(93.994141 0)"/>
      <use xlink:href="#DejaVuSans-75" transform="translate(155.175781 0)"/>
      <use xlink:href="#DejaVuSans-6e" transform="translate(218.554688 0)"/>
      <use xlink:href="#DejaVuSans-74" transform="translate(281.933594 0)"/>
      <use xlink:href="#DejaVuSans-73" transform="translate(321.142578 0)"/>
      <use xlink:href="#DejaVuSans-5d" transform="translate(373.242188 0)"/>
     </g>
    </g>
   </g>
   <g id="line2d_14">
    <path d="M 80.174002 221.494885 
L 83.429229 221.477339 
L 83.429229 221.231699 
L 85.056842 221.231699 
L 85.056842 221.38961 
L 88.312068 221.301882 
L 88.312068 221.214153 
L 89.939681 221.214153 
L 89.939681 221.056242 
L 91.567294 221.056242 
L 91.567294 221.336973 
L 93.194907 221.336973 
L 93.194907 220.793057 
L 96.450133 220.722874 
L 96.450133 221.073788 
L 98.077746 221.073788 
L 98.077746 220.635146 
L 101.332972 220.529871 
L 101.332972 220.37196 
L 102.960585 220.37196 
L 102.960585 219.757861 
L 106.215811 219.828044 
L 106.215811 219.442039 
L 107.843424 219.442039 
L 107.843424 219.266582 
L 109.471037 219.266582 
L 109.471037 218.266477 
L 111.09865 218.266477 
L 111.09865 217.757652 
L 112.726263 217.757652 
L 112.726263 217.038279 
L 114.353876 217.038279 
L 114.353876 216.266268 
L 115.981489 216.266268 
L 115.981489 214.213422 
L 119.236715 214.248514 
L 119.236715 212.160576 
L 120.864328 212.160576 
L 120.864328 210.037548 
L 122.491941 210.037548 
L 122.491941 208.265433 
L 124.119554 208.265433 
L 124.119554 204.458018 
L 125.747167 204.458018 
L 125.747167 199.404858 
L 127.37478 199.404858 
L 127.37478 197.860838 
L 129.002393 197.860838 
L 129.002393 190.333736 
L 130.630006 190.333736 
L 130.630006 185.666582 
L 132.257619 185.666582 
L 132.257619 178.13948 
L 133.885232 178.13948 
L 133.885232 175.542717 
L 135.512845 175.542717 
L 135.512845 165.857496 
L 137.140458 165.857496 
L 137.140458 161.909715 
L 138.768071 161.909715 
L 138.768071 157.049558 
L 140.395685 157.049558 
L 140.395685 149.364545 
L 142.023298 149.364545 
L 142.023298 137.766843 
L 143.650911 137.766843 
L 143.650911 130.906477 
L 145.278524 130.906477 
L 145.278524 123.081099 
L 146.906137 123.081099 
L 146.906137 113.255511 
L 148.53375 113.255511 
L 148.53375 108.044441 
L 150.161363 108.044441 
L 150.161363 102.973736 
L 151.788976 102.973736 
L 151.788976 92.112952 
L 153.416589 92.112952 
L 153.416589 79.480054 
L 155.044202 79.480054 
L 155.044202 76.883292 
L 156.671815 76.883292 
L 156.671815 60.565798 
L 158.299428 60.565798 
L 158.299428 57.284754 
L 159.927041 57.284754 
L 159.927041 52.529871 
L 161.554654 52.529871 
L 161.554654 53.915981 
L 163.182267 53.915981 
L 163.182267 47.090707 
L 164.80988 47.090707 
L 164.80988 47.897809 
L 166.437493 47.897809 
L 166.437493 39.581151 
L 168.065106 39.581151 
L 168.065106 39.94961 
L 169.692719 39.94961 
L 169.692719 33.036608 
L 171.320332 33.036608 
L 171.320332 37.124754 
L 174.575558 37.159845 
L 174.575558 35.87901 
L 176.203171 35.87901 
L 176.203171 36.703657 
L 177.830784 36.703657 
L 177.830784 37.054571 
L 179.458397 37.054571 
L 179.458397 20.596712 
L 181.08601 20.596712 
L 181.08601 28.91337 
L 182.713623 28.91337 
L 182.713623 33.264702 
L 184.341236 33.264702 
L 184.341236 44.020211 
L 185.968849 44.020211 
L 185.968849 19.894885 
L 187.596462 19.894885 
L 187.596462 34.633266 
L 189.224075 34.633266 
L 189.224075 49.213736 
L 190.851688 49.213736 
L 190.851688 23.45666 
L 192.479301 23.45666 
L 192.479301 32.282143 
L 194.106914 32.282143 
L 194.106914 30.159114 
L 195.734527 30.159114 
L 195.734527 46.809976 
L 197.362141 46.809976 
L 197.362141 36.949297 
L 198.989754 36.949297 
L 198.989754 41.072535 
L 200.617367 41.072535 
L 200.617367 37.194937 
L 202.24498 37.194937 
L 202.24498 56.793475 
L 203.872593 56.793475 
L 203.872593 53.565067 
L 205.500206 53.565067 
L 205.500206 75.146268 
L 207.127819 75.146268 
L 207.127819 61.951908 
L 208.755432 61.951908 
L 208.755432 55.881099 
L 210.383045 55.881099 
L 210.383045 60.35525 
L 212.010658 60.35525 
L 212.010658 68.636817 
L 213.638271 68.636817 
L 213.638271 77.111386 
L 215.265884 77.111386 
L 215.265884 81.550446 
L 216.893497 81.550446 
L 216.893497 80.936347 
L 218.52111 80.936347 
L 218.52111 77.883396 
L 220.148723 77.883396 
L 220.148723 89.095093 
L 221.776336 89.095093 
L 221.776336 84.936764 
L 223.403949 84.936764 
L 223.403949 87.568618 
L 225.031562 87.568618 
L 225.031562 95.007992 
L 226.659175 95.007992 
L 226.659175 114.48371 
L 228.286788 114.48371 
L 228.286788 92.902509 
L 229.914401 92.902509 
L 229.914401 112.32559 
L 231.542014 112.32559 
L 231.542014 103.289558 
L 233.169627 103.289558 
L 233.169627 99.868148 
L 234.79724 99.868148 
L 234.79724 122.028357 
L 236.424853 122.028357 
L 236.424853 116.64183 
L 238.052466 116.64183 
L 238.052466 123.010916 
L 239.680079 123.010916 
L 239.680079 116.554101 
L 241.307692 116.554101 
L 241.307692 111.430759 
L 242.935305 111.430759 
L 242.935305 126.730603 
L 244.562918 126.730603 
L 244.562918 119.993057 
L 246.190531 119.993057 
L 246.190531 123.607469 
L 247.818144 123.607469 
L 247.818144 136.80183 
L 249.445757 136.80183 
L 249.445757 127.30961 
L 251.07337 127.30961 
L 251.07337 135.924545 
L 252.700983 135.924545 
L 252.700983 134.64371 
L 254.328597 134.64371 
L 254.328597 139.451229 
L 255.95621 139.451229 
L 255.95621 128.537809 
L 257.583823 128.537809 
L 257.583823 145.67995 
L 259.211436 145.67995 
L 259.211436 141.065433 
L 260.839049 141.065433 
L 260.839049 148.838174 
L 262.466662 148.838174 
L 262.466662 141.854989 
L 264.094275 141.854989 
L 264.094275 147.680159 
L 265.721888 147.680159 
L 265.721888 144.960576 
L 267.349501 144.960576 
L 267.349501 152.27713 
L 268.977114 152.27713 
L 268.977114 159.979689 
L 270.604727 159.979689 
L 270.604727 150.557652 
L 272.23234 150.557652 
L 272.23234 153.66324 
L 273.859953 153.66324 
L 273.859953 156.277548 
L 275.487566 156.277548 
L 275.487566 155.856451 
L 277.115179 155.856451 
L 277.115179 160.470968 
L 280.370405 160.558697 
L 280.370405 162.874728 
L 281.998018 162.874728 
L 281.998018 167.313788 
L 283.625631 167.313788 
L 283.625631 160.418331 
L 285.253244 160.418331 
L 285.253244 170.349193 
L 286.880857 170.349193 
L 286.880857 165.559219 
L 288.50847 165.559219 
L 288.50847 169.13854 
L 290.136083 169.13854 
L 290.136083 170.454467 
L 291.763696 170.454467 
L 291.763696 166.278592 
L 293.391309 166.278592 
L 293.391309 174.121516 
L 295.018922 174.121516 
L 295.018922 177.472744 
L 296.646535 177.472744 
L 296.646535 174.454885 
L 298.274148 174.454885 
L 298.274148 169.78773 
L 299.901761 169.78773 
L 299.901761 179.40277 
L 301.529374 179.40277 
L 301.529374 179.227313 
L 303.156987 179.227313 
L 303.156987 184.455929 
L 304.7846 184.455929 
L 304.7846 183.35055 
L 306.412213 183.35055 
L 306.412213 185.070028 
L 308.039826 185.070028 
L 308.039826 184.701569 
L 309.667439 184.701569 
L 309.667439 188.368618 
L 311.295053 188.368618 
L 311.295053 193.474415 
L 312.922666 193.474415 
L 312.922666 187.421151 
L 314.550279 187.421151 
L 314.550279 196.211543 
L 316.177892 196.211543 
L 316.177892 189.386268 
L 317.805505 189.386268 
L 317.805505 196.895824 
L 319.433118 196.895824 
L 319.433118 196.088723 
L 321.060731 196.088723 
L 321.060731 199.755772 
L 322.688344 199.755772 
L 322.688344 200.983971 
L 324.315957 200.983971 
L 324.315957 198.878488 
L 325.94357 198.878488 
L 325.94357 200.475146 
L 327.571183 200.475146 
L 327.571183 202.422717 
L 329.198796 202.422717 
L 329.198796 203.001725 
L 330.826409 203.001725 
L 330.826409 205.230028 
L 332.454022 205.230028 
L 332.454022 205.528305 
L 334.081635 205.528305 
L 334.081635 207.633788 
L 335.709248 207.633788 
L 335.709248 206.40559 
L 337.336861 206.40559 
L 337.336861 207.703971 
L 338.964474 207.703971 
L 338.964474 209.230446 
L 340.592087 209.230446 
L 340.592087 209.002352 
L 342.2197 209.002352 
L 342.2197 210.037548 
L 343.847313 210.037548 
L 343.847313 211.599114 
L 345.474926 211.599114 
L 345.474926 212.722039 
L 347.102539 212.722039 
L 347.102539 212.529036 
L 348.730152 212.529036 
L 348.730152 212.985224 
L 350.357765 212.985224 
L 350.357765 214.897704 
L 351.985378 214.897704 
L 351.985378 215.266164 
L 353.612991 215.266164 
L 353.612991 215.985537 
L 355.240604 215.985537 
L 355.240604 216.318905 
L 356.868217 216.318905 
L 356.868217 216.459271 
L 358.49583 216.459271 
L 358.49583 217.775198 
L 360.123443 217.775198 
L 360.123443 217.599741 
L 361.751056 217.599741 
L 361.751056 218.494571 
L 363.378669 218.494571 
L 363.378669 218.863031 
L 365.006282 218.863031 
L 365.006282 219.635041 
L 366.633895 219.635041 
L 366.633895 219.266582 
L 368.261509 219.266582 
L 368.261509 219.933318 
L 369.889122 219.933318 
L 369.889122 220.547417 
L 371.516735 220.547417 
L 371.516735 220.86324 
L 373.144348 220.86324 
L 373.144348 220.986059 
L 374.771961 220.986059 
L 374.771961 221.301882 
L 378.027187 221.407156 
L 378.027187 221.407156 
" clip-path="url(#pc4532db0fe)" style="fill: none; stroke: #1f77b4; stroke-width: 1.5; stroke-linecap: square"/>
   </g>
   <g id="line2d_15">
    <path d="M 80.174002 221.529976 
L 88.312068 221.424702 
L 88.312068 221.214153 
L 91.567294 221.284336 
L 91.567294 221.038697 
L 93.194907 221.038697 
L 93.194907 220.845694 
L 94.82252 220.845694 
L 94.82252 220.670237 
L 96.450133 220.670237 
L 96.450133 221.143971 
L 98.077746 221.143971 
L 98.077746 220.564963 
L 99.705359 220.564963 
L 99.705359 220.705328 
L 101.332972 220.705328 
L 101.332972 220.126321 
L 102.960585 220.126321 
L 102.960585 219.810498 
L 104.588198 219.810498 
L 104.588198 219.950864 
L 106.215811 219.950864 
L 106.215811 219.512221 
L 107.843424 219.512221 
L 107.843424 219.161308 
L 109.471037 219.161308 
L 109.471037 217.985746 
L 112.726263 217.915563 
L 112.726263 217.143553 
L 114.353876 217.143553 
L 114.353876 215.722352 
L 115.981489 215.722352 
L 115.981489 215.178435 
L 117.609102 215.178435 
L 117.609102 213.77478 
L 119.236715 213.77478 
L 119.236715 211.8623 
L 120.864328 211.8623 
L 120.864328 209.967365 
L 122.491941 209.967365 
L 122.491941 208.107522 
L 124.119554 208.107522 
L 124.119554 203.738644 
L 125.747167 203.738644 
L 125.747167 200.562874 
L 127.37478 200.562874 
L 127.37478 195.983449 
L 129.002393 195.983449 
L 129.002393 191.193475 
L 130.630006 191.193475 
L 130.630006 186.070133 
L 132.257619 186.070133 
L 132.257619 178.929036 
L 133.885232 178.929036 
L 133.885232 173.016138 
L 135.512845 173.016138 
L 135.512845 168.489349 
L 137.140458 168.489349 
L 137.140458 160.558697 
L 138.768071 160.558697 
L 138.768071 154.979167 
L 140.395685 154.979167 
L 140.395685 149.803187 
L 142.023298 149.803187 
L 142.023298 142.398905 
L 143.650911 142.398905 
L 143.650911 127.642979 
L 145.278524 127.642979 
L 145.278524 121.028253 
L 146.906137 121.028253 
L 146.906137 114.325798 
L 148.53375 114.325798 
L 148.53375 106.781151 
L 150.161363 106.781151 
L 150.161363 100.640159 
L 151.788976 100.640159 
L 151.788976 93.288514 
L 153.416589 93.288514 
L 153.416589 80.743344 
L 155.044202 80.743344 
L 155.044202 73.91807 
L 156.671815 73.91807 
L 156.671815 61.951908 
L 158.299428 61.951908 
L 158.299428 57.477757 
L 159.927041 57.477757 
L 159.927041 49.090916 
L 161.554654 49.090916 
L 161.554654 56.986477 
L 163.182267 56.986477 
L 163.182267 46.459062 
L 164.80988 46.459062 
L 164.80988 47.546895 
L 166.437493 47.546895 
L 166.437493 35.38773 
L 168.065106 35.38773 
L 168.065106 39.370603 
L 169.692719 39.370603 
L 169.692719 35.282456 
L 171.320332 35.282456 
L 171.320332 43.511386 
L 172.947945 43.511386 
L 172.947945 36.721203 
L 174.575558 36.721203 
L 174.575558 34.124441 
L 176.203171 34.124441 
L 176.203171 31.334676 
L 177.830784 31.334676 
L 177.830784 29.264284 
L 179.458397 29.264284 
L 179.458397 28.457182 
L 181.08601 28.457182 
L 181.08601 36.703657 
L 182.713623 36.703657 
L 182.713623 33.703344 
L 184.341236 33.703344 
L 184.341236 35.63337 
L 185.968849 35.63337 
L 185.968849 32.878697 
L 189.224075 32.843605 
L 189.224075 35.493005 
L 190.851688 35.493005 
L 190.851688 27.614989 
L 192.479301 27.614989 
L 192.479301 30.773214 
L 194.106914 30.773214 
L 194.106914 43.827208 
L 195.734527 43.827208 
L 195.734527 47.564441 
L 197.362141 47.564441 
L 197.362141 43.528932 
L 198.989754 43.528932 
L 198.989754 34.282352 
L 200.617367 34.282352 
L 200.617367 49.126007 
L 202.24498 49.126007 
L 202.24498 42.809558 
L 203.872593 42.809558 
L 203.872593 71.373945 
L 205.500206 71.373945 
L 205.500206 49.020733 
L 207.127819 49.020733 
L 207.127819 59.513057 
L 208.755432 59.513057 
L 208.755432 61.758905 
L 210.383045 61.758905 
L 210.383045 67.619167 
L 212.010658 67.619167 
L 212.010658 64.636399 
L 213.638271 64.636399 
L 213.638271 84.691125 
L 215.265884 84.691125 
L 215.265884 68.917548 
L 216.893497 68.917548 
L 216.893497 87.23525 
L 218.52111 87.23525 
L 218.52111 85.954415 
L 220.148723 85.954415 
L 220.148723 80.620524 
L 221.776336 80.620524 
L 221.776336 96.218644 
L 223.403949 96.218644 
L 223.403949 82.866373 
L 225.031562 82.866373 
L 225.031562 98.043396 
L 226.659175 98.043396 
L 226.659175 90.53384 
L 228.286788 90.53384 
L 228.286788 117.501569 
L 229.914401 117.501569 
L 229.914401 100.271699 
L 231.542014 100.271699 
L 231.542014 106.044232 
L 233.169627 106.044232 
L 233.169627 110.185015 
L 234.79724 110.185015 
L 234.79724 105.745955 
L 236.424853 105.745955 
L 236.424853 122.466999 
L 238.052466 122.466999 
L 238.052466 120.06324 
L 239.680079 120.06324 
L 239.680079 112.571229 
L 241.307692 112.571229 
L 241.307692 121.115981 
L 242.935305 121.115981 
L 242.935305 122.063449 
L 244.562918 122.063449 
L 244.562918 125.116399 
L 246.190531 125.116399 
L 246.190531 126.572691 
L 247.818144 126.572691 
L 247.818144 125.555041 
L 249.445757 125.555041 
L 249.445757 137.977391 
L 251.07337 137.977391 
L 251.07337 131.046843 
L 252.700983 131.046843 
L 252.700983 135.398174 
L 254.328597 135.398174 
L 254.328597 133.169871 
L 255.95621 133.169871 
L 255.95621 135.047261 
L 257.583823 135.047261 
L 257.583823 146.013318 
L 259.211436 146.013318 
L 259.211436 141.679532 
L 260.839049 141.679532 
L 260.839049 143.451647 
L 262.466662 143.451647 
L 262.466662 148.048618 
L 264.094275 148.048618 
L 264.094275 138.310759 
L 265.721888 138.310759 
L 265.721888 155.505537 
L 267.349501 155.505537 
L 267.349501 149.662822 
L 268.977114 149.662822 
L 268.977114 158.137391 
L 270.604727 158.137391 
L 270.604727 148.750446 
L 272.23234 148.750446 
L 272.23234 155.154623 
L 273.859953 155.154623 
L 273.859953 155.277443 
L 275.487566 155.277443 
L 275.487566 155.663449 
L 277.115179 155.663449 
L 277.115179 162.558905 
L 278.742792 162.558905 
L 278.742792 162.786999 
L 280.370405 162.786999 
L 280.370405 159.821777 
L 281.998018 159.821777 
L 281.998018 163.839741 
L 283.625631 163.839741 
L 283.625631 168.471804 
L 285.253244 168.471804 
L 285.253244 159.541046 
L 286.880857 159.541046 
L 286.880857 168.191073 
L 288.50847 168.191073 
L 288.50847 172.770498 
L 290.136083 172.770498 
L 290.136083 169.173631 
L 291.763696 169.173631 
L 291.763696 169.506999 
L 293.391309 169.506999 
L 293.391309 177.104284 
L 295.018922 177.104284 
L 295.018922 170.577287 
L 296.646535 170.577287 
L 296.646535 170.366738 
L 298.274148 170.366738 
L 298.274148 181.508253 
L 299.901761 181.508253 
L 299.901761 173.928514 
L 301.529374 173.928514 
L 301.529374 178.490394 
L 303.156987 178.490394 
L 303.156987 185.947313 
L 304.7846 185.947313 
L 304.7846 184.280472 
L 306.412213 184.280472 
L 306.412213 182.525903 
L 308.039826 182.525903 
L 308.039826 185.157757 
L 309.667439 185.157757 
L 309.667439 190.140733 
L 311.295053 190.140733 
L 311.295053 190.789924 
L 312.922666 190.789924 
L 312.922666 191.772482 
L 314.550279 191.772482 
L 314.550279 190.386373 
L 316.177892 190.386373 
L 316.177892 194.141151 
L 317.805505 194.141151 
L 317.805505 194.386791 
L 319.433118 194.386791 
L 319.433118 196.509819 
L 321.060731 196.509819 
L 321.060731 198.703031 
L 322.688344 198.703031 
L 322.688344 199.018853 
L 324.315957 199.018853 
L 324.315957 199.299584 
L 325.94357 199.299584 
L 325.94357 200.650603 
L 327.571183 200.650603 
L 327.571183 204.229924 
L 329.198796 204.229924 
L 329.198796 202.334989 
L 330.826409 202.334989 
L 330.826409 205.352848 
L 332.454022 205.352848 
L 332.454022 205.861673 
L 334.081635 205.861673 
L 334.081635 205.510759 
L 335.709248 205.510759 
L 335.709248 206.984597 
L 337.336861 206.984597 
L 337.336861 208.089976 
L 338.964474 208.089976 
L 338.964474 209.33572 
L 340.592087 209.33572 
L 340.592087 208.581255 
L 342.2197 208.581255 
L 342.2197 210.581464 
L 343.847313 210.581464 
L 343.847313 211.634206 
L 345.474926 211.634206 
L 345.474926 212.213214 
L 347.102539 212.213214 
L 347.102539 212.932587 
L 348.730152 212.932587 
L 348.730152 213.722143 
L 350.357765 213.722143 
L 350.357765 214.14324 
L 351.985378 214.14324 
L 351.985378 215.231073 
L 353.612991 215.231073 
L 353.612991 215.985537 
L 355.240604 215.985537 
L 355.240604 215.827626 
L 356.868217 215.827626 
L 356.868217 217.143553 
L 358.49583 217.143553 
L 358.49583 217.336556 
L 360.123443 217.336556 
L 360.123443 217.634832 
L 361.751056 217.634832 
L 361.751056 218.371751 
L 363.378669 218.371751 
L 363.378669 219.038488 
L 365.006282 219.038488 
L 365.006282 219.336764 
L 368.261509 219.406947 
L 368.261509 219.898227 
L 369.889122 219.898227 
L 369.889122 220.547417 
L 371.516735 220.547417 
L 371.516735 220.793057 
L 373.144348 220.793057 
L 373.144348 221.091334 
L 374.771961 221.091334 
L 374.771961 221.494885 
L 378.027187 221.51243 
L 378.027187 221.51243 
" clip-path="url(#pc4532db0fe)" style="fill: none; stroke: #ff7f0e; stroke-width: 1.5; stroke-linecap: square"/>
   </g>
   <g id="line2d_16">
    <path d="M 74.908807 221.51243 
L 76.53642 221.51243 
L 76.53642 221.38961 
L 87.929711 221.319428 
L 87.929711 221.214153 
L 89.557324 221.214153 
L 89.557324 221.354519 
L 91.184937 221.354519 
L 91.184937 221.073788 
L 92.81255 221.073788 
L 92.81255 220.898331 
L 94.440163 220.898331 
L 94.440163 220.775511 
L 100.950615 220.722874 
L 100.950615 220.37196 
L 102.578228 220.37196 
L 102.578228 219.775407 
L 104.205841 219.775407 
L 104.205841 219.968409 
L 105.833454 219.968409 
L 105.833454 219.59995 
L 107.461067 219.59995 
L 107.461067 218.898122 
L 109.08868 218.898122 
L 109.08868 218.354206 
L 110.716293 218.354206 
L 110.716293 217.862926 
L 112.343906 217.862926 
L 112.343906 217.494467 
L 113.97152 217.494467 
L 113.97152 216.283814 
L 115.599133 216.283814 
L 115.599133 215.441621 
L 117.226746 215.441621 
L 117.226746 213.792326 
L 118.854359 213.792326 
L 118.854359 212.476399 
L 120.481972 212.476399 
L 120.481972 210.47619 
L 122.109585 210.47619 
L 122.109585 208.212796 
L 123.737198 208.212796 
L 123.737198 205.01948 
L 125.364811 205.01948 
L 125.364811 201.47525 
L 126.992424 201.47525 
L 126.992424 196.930916 
L 128.620037 196.930916 
L 128.620037 192.176033 
L 130.24765 192.176033 
L 130.24765 187.035146 
L 131.875263 187.035146 
L 131.875263 179.806321 
L 133.502876 179.806321 
L 133.502876 176.367365 
L 135.130489 176.367365 
L 135.130489 167.576973 
L 136.758102 167.576973 
L 136.758102 162.751908 
L 138.385715 162.751908 
L 138.385715 156.59337 
L 140.013328 156.59337 
L 140.013328 151.627939 
L 141.640941 151.627939 
L 141.640941 141.521621 
L 143.268554 141.521621 
L 143.268554 133.748879 
L 144.896167 133.748879 
L 144.896167 121.835355 
L 146.52378 121.835355 
L 146.52378 117.519114 
L 148.151393 117.519114 
L 148.151393 107.623344 
L 149.779006 107.623344 
L 149.779006 101.148984 
L 151.406619 101.148984 
L 151.406619 94.113161 
L 153.034232 94.113161 
L 153.034232 82.726007 
L 154.661845 82.726007 
L 154.661845 73.181151 
L 156.289458 73.181151 
L 156.289458 66.0576 
L 157.917071 66.0576 
L 157.917071 58.811229 
L 159.544684 58.811229 
L 159.544684 54.407261 
L 161.172297 54.407261 
L 161.172297 50.494571 
L 162.79991 50.494571 
L 162.79991 49.19619 
L 164.427523 49.19619 
L 164.427523 46.14324 
L 166.055136 46.14324 
L 166.055136 41.862091 
L 167.682749 41.862091 
L 167.682749 37.352848 
L 169.310362 37.352848 
L 169.310362 33.633161 
L 170.937976 33.633161 
L 170.937976 41.195355 
L 172.565589 41.195355 
L 172.565589 39.809245 
L 174.193202 39.809245 
L 174.193202 35.159637 
L 175.820815 35.159637 
L 175.820815 33.703344 
L 177.448428 33.703344 
L 177.448428 28.895824 
L 179.076041 28.895824 
L 179.076041 28.615093 
L 180.703654 28.615093 
L 180.703654 33.422613 
L 182.331267 33.422613 
L 182.331267 34.440263 
L 183.95888 34.440263 
L 183.95888 36.510655 
L 185.586493 36.510655 
L 185.586493 34.773631 
L 187.214106 34.773631 
L 187.214106 31.738227 
L 188.841719 31.738227 
L 188.841719 29.088827 
L 190.469332 29.088827 
L 190.469332 33.001516 
L 192.096945 33.001516 
L 192.096945 38.738958 
L 193.724558 38.738958 
L 193.724558 41.844545 
L 195.352171 41.844545 
L 195.352171 41.669088 
L 196.979784 41.669088 
L 196.979784 43.055198 
L 198.607397 43.055198 
L 198.607397 40.844441 
L 200.23501 40.844441 
L 200.23501 46.108148 
L 201.862623 46.108148 
L 201.862623 49.599741 
L 203.490236 49.599741 
L 203.490236 53.845798 
L 205.117849 53.845798 
L 205.117849 59.741151 
L 206.745462 59.741151 
L 206.745462 57.442665 
L 208.373075 57.442665 
L 208.373075 61.197443 
L 210.000688 61.197443 
L 210.000688 64.390759 
L 211.628301 64.390759 
L 211.628301 67.706895 
L 213.255914 67.706895 
L 213.255914 73.040785 
L 214.883527 73.040785 
L 214.883527 78.23431 
L 216.51114 78.23431 
L 216.51114 82.79619 
L 218.138753 82.79619 
L 218.138753 83.006738 
L 219.766366 83.006738 
L 219.766366 87.761621 
L 221.393979 87.761621 
L 221.393979 88.551177 
L 223.021592 88.551177 
L 223.021592 90.270655 
L 224.649205 90.270655 
L 224.649205 94.464075 
L 226.276818 94.464075 
L 226.276818 97.955668 
L 227.904432 97.955668 
L 227.904432 101.394623 
L 229.532045 101.394623 
L 229.532045 104.044023 
L 231.159658 104.044023 
L 231.159658 104.851125 
L 232.787271 104.851125 
L 232.787271 107.325067 
L 234.414884 107.325067 
L 234.414884 112.32559 
L 236.042497 112.32559 
L 236.042497 113.571334 
L 237.67011 113.571334 
L 237.67011 117.203292 
L 239.297723 117.203292 
L 239.297723 120.431699 
L 240.925336 120.431699 
L 240.925336 119.080681 
L 242.552949 119.080681 
L 242.552949 120.379062 
L 244.180562 120.379062 
L 244.180562 123.274101 
L 245.808175 123.274101 
L 245.808175 125.748044 
L 247.435788 125.748044 
L 247.435788 129.888827 
L 249.063401 129.888827 
L 249.063401 131.046843 
L 250.691014 131.046843 
L 250.691014 131.818853 
L 252.318627 131.818853 
L 252.318627 132.661046 
L 253.94624 132.661046 
L 253.94624 134.871804 
L 255.573853 134.871804 
L 255.573853 138.258122 
L 257.201466 138.258122 
L 257.201466 142.293631 
L 258.829079 142.293631 
L 258.829079 143.135824 
L 260.456692 143.135824 
L 260.456692 145.083396 
L 262.084305 145.083396 
L 262.084305 142.925276 
L 263.711918 142.925276 
L 263.711918 147.118697 
L 265.339531 147.118697 
L 265.339531 149.610185 
L 266.967144 149.610185 
L 266.967144 151.540211 
L 268.594757 151.540211 
L 268.594757 151.996399 
L 270.22237 151.996399 
L 270.22237 152.785955 
L 271.849983 152.785955 
L 271.849983 155.101986 
L 273.477596 155.101986 
L 273.477596 155.786268 
L 275.105209 155.786268 
L 275.105209 156.382822 
L 276.732822 156.382822 
L 276.732822 159.260315 
L 278.360435 159.260315 
L 278.360435 160.242874 
L 279.988048 160.242874 
L 279.988048 160.839428 
L 281.615661 160.839428 
L 281.615661 163.874832 
L 283.243274 163.874832 
L 283.243274 164.33102 
L 284.870888 164.33102 
L 284.870888 166.682143 
L 286.498501 166.682143 
L 286.498501 167.226059 
L 288.126114 167.226059 
L 288.126114 168.191073 
L 289.753727 168.191073 
L 289.753727 170.489558 
L 291.38134 170.489558 
L 291.38134 171.875668 
L 293.008953 171.875668 
L 293.008953 172.209036 
L 294.636566 172.209036 
L 294.636566 172.910864 
L 296.264179 172.910864 
L 296.264179 173.70042 
L 297.891792 173.70042 
L 297.891792 175.033892 
L 299.519405 175.033892 
L 299.519405 177.700838 
L 301.147018 177.700838 
L 301.147018 179.051856 
L 302.774631 179.051856 
L 302.774631 180.315146 
L 304.402244 180.315146 
L 304.402244 182.771543 
L 306.029857 182.771543 
L 306.029857 184.210289 
L 307.65747 184.210289 
L 307.65747 186.578958 
L 309.285083 186.578958 
L 309.285083 188.140524 
L 310.912696 188.140524 
L 310.912696 189.965276 
L 312.540309 189.965276 
L 312.540309 191.105746 
L 314.167922 191.105746 
L 314.167922 191.754937 
L 315.795535 191.754937 
L 315.795535 193.842874 
L 317.423148 193.842874 
L 317.423148 192.755041 
L 319.050761 192.755041 
L 319.050761 195.965903 
L 320.678374 195.965903 
L 320.678374 197.650289 
L 322.305987 197.650289 
L 322.305987 199.387313 
L 323.9336 199.387313 
L 323.9336 200.159323 
L 325.561213 200.159323 
L 325.561213 201.071699 
L 327.188826 201.071699 
L 327.188826 201.369976 
L 328.816439 201.369976 
L 328.816439 203.142091 
L 330.444052 203.142091 
L 330.444052 204.510655 
L 332.071665 204.510655 
L 332.071665 204.826477 
L 333.699278 204.826477 
L 333.699278 205.844127 
L 335.326891 205.844127 
L 335.326891 207.668879 
L 336.954504 207.668879 
L 336.954504 208.07243 
L 338.582117 208.07243 
L 338.582117 208.686529 
L 340.20973 208.686529 
L 340.20973 209.476086 
L 341.837344 209.476086 
L 341.837344 210.072639 
L 343.464957 210.072639 
L 343.464957 211.002561 
L 345.09257 211.002561 
L 345.09257 211.792117 
L 346.720183 211.792117 
L 346.720183 212.63431 
L 348.347796 212.63431 
L 348.347796 213.581777 
L 349.975409 213.581777 
L 349.975409 213.985328 
L 351.603022 213.985328 
L 351.603022 214.757339 
L 353.230635 214.757339 
L 353.230635 215.669715 
L 354.858248 215.669715 
L 354.858248 216.108357 
L 356.485861 216.108357 
L 356.485861 216.740002 
L 358.113474 216.740002 
L 358.113474 217.038279 
L 359.741087 217.038279 
L 359.741087 217.775198 
L 361.3687 217.775198 
L 361.3687 218.634937 
L 362.996313 218.634937 
L 362.996313 218.45948 
L 364.623926 218.45948 
L 364.623926 219.35431 
L 367.879152 219.459584 
L 367.879152 219.72277 
L 369.506765 219.72277 
L 369.506765 220.37196 
L 371.134378 220.37196 
L 371.134378 220.810603 
L 374.389604 220.915877 
L 374.389604 221.249245 
L 377.64483 221.336973 
L 377.64483 221.51243 
L 379.272443 221.51243 
L 379.272443 221.51243 
" clip-path="url(#pc4532db0fe)" style="fill: none; stroke: #2ca02c; stroke-width: 1.5; stroke-linecap: square"/>
   </g>
   <g id="patch_3">
    <path d="M 59.690625 231.574885 
L 59.690625 9.814885 
" style="fill: none; stroke: #000000; stroke-width: 0.8; stroke-linejoin: miter; stroke-linecap: square"/>
   </g>
   <g id="patch_4">
    <path d="M 394.490625 231.574885 
L 394.490625 9.814885 
" style="fill: none; stroke: #000000; stroke-width: 0.8; stroke-linejoin: miter; stroke-linecap: square"/>
   </g>
   <g id="patch_5">
    <path d="M 59.690625 231.574885 
L 394.490625 231.574885 
" style="fill: none; stroke: #000000; stroke-width: 0.8; stroke-linejoin: miter; stroke-linecap: square"/>
   </g>
   <g id="patch_6">
    <path d="M 59.690625 9.814885 
L 394.490625 9.814885 
" style="fill: none; stroke: #000000; stroke-width: 0.8; stroke-linejoin: miter; stroke-linecap: square"/>
   </g>
   <g id="legend_1">
    <g id="patch_7">
     <path d="M 313.267188 61.84926 
L 387.490625 61.84926 
Q 389.490625 61.84926 389.490625 59.84926 
L 389.490625 16.814885 
Q 389.490625 14.814885 387.490625 14.814885 
L 313.267188 14.814885 
Q 311.267188 14.814885 311.267188 16.814885 
L 311.267188 59.84926 
Q 311.267188 61.84926 313.267188 61.84926 
z
" style="fill: #ffffff; opacity: 0.8; stroke: #cccccc; stroke-linejoin: miter"/>
    </g>
    <g id="line2d_17">
     <path d="M 315.267188 22.913322 
L 315.267188 22.913322 
L 325.267188 22.913322 
L 325.267188 22.913322 
L 335.267188 22.913322 
" style="fill: none; stroke: #1f77b4; stroke-width: 1.5; stroke-linecap: square"/>
    </g>
    <g id="text_16">
     <!-- monitor -->
     <g transform="translate(343.267188 26.413322) scale(0.1 -0.1)">
      <defs>
       <path id="DejaVuSans-6d" d="M 3328 2828 
Q 3544 3216 3844 3400 
Q 4144 3584 4550 3584 
Q 5097 3584 5394 3201 
Q 5691 2819 5691 2113 
L 5691 0 
L 5113 0 
L 5113 2094 
Q 5113 2597 4934 2840 
Q 4756 3084 4391 3084 
Q 3944 3084 3684 2787 
Q 3425 2491 3425 1978 
L 3425 0 
L 2847 0 
L 2847 2094 
Q 2847 2600 2669 2842 
Q 2491 3084 2119 3084 
Q 1678 3084 1418 2786 
Q 1159 2488 1159 1978 
L 1159 0 
L 581 0 
L 581 3500 
L 1159 3500 
L 1159 2956 
Q 1356 3278 1631 3431 
Q 1906 3584 2284 3584 
Q 2666 3584 2933 3390 
Q 3200 3197 3328 2828 
z
" transform="scale(0.015625)"/>
       <path id="DejaVuSans-69" d="M 603 3500 
L 1178 3500 
L 1178 0 
L 603 0 
L 603 3500 
z
M 603 4863 
L 1178 4863 
L 1178 4134 
L 603 4134 
L 603 4863 
z
" transform="scale(0.015625)"/>
       <path id="DejaVuSans-72" d="M 2631 2963 
Q 2534 3019 2420 3045 
Q 2306 3072 2169 3072 
Q 1681 3072 1420 2755 
Q 1159 2438 1159 1844 
L 1159 0 
L 581 0 
L 581 3500 
L 1159 3500 
L 1159 2956 
Q 1341 3275 1631 3429 
Q 1922 3584 2338 3584 
Q 2397 3584 2469 3576 
Q 2541 3569 2628 3553 
L 2631 2963 
z
" transform="scale(0.015625)"/>
      </defs>
      <use xlink:href="#DejaVuSans-6d"/>
      <use xlink:href="#DejaVuSans-6f" transform="translate(97.412109 0)"/>
      <use xlink:href="#DejaVuSans-6e" transform="translate(158.59375 0)"/>
      <use xlink:href="#DejaVuSans-69" transform="translate(221.972656 0)"/>
      <use xlink:href="#DejaVuSans-74" transform="translate(249.755859 0)"/>
      <use xlink:href="#DejaVuSans-6f" transform="translate(288.964844 0)"/>
      <use xlink:href="#DejaVuSans-72" transform="translate(350.146484 0)"/>
     </g>
    </g>
    <g id="line2d_18">
     <path d="M 315.267188 37.591447 
L 315.267188 37.591447 
L 325.267188 37.591447 
L 325.267188 37.591447 
L 335.267188 37.591447 
" style="fill: none; stroke: #ff7f0e; stroke-width: 1.5; stroke-linecap: square"/>
    </g>
    <g id="text_17">
     <!-- detector -->
     <g transform="translate(343.267188 41.091447) scale(0.1 -0.1)">
      <defs>
       <path id="DejaVuSans-64" d="M 2906 2969 
L 2906 4863 
L 3481 4863 
L 3481 0 
L 2906 0 
L 2906 525 
Q 2725 213 2448 61 
Q 2172 -91 1784 -91 
Q 1150 -91 751 415 
Q 353 922 353 1747 
Q 353 2572 751 3078 
Q 1150 3584 1784 3584 
Q 2172 3584 2448 3432 
Q 2725 3281 2906 2969 
z
M 947 1747 
Q 947 1113 1208 752 
Q 1469 391 1925 391 
Q 2381 391 2643 752 
Q 2906 1113 2906 1747 
Q 2906 2381 2643 2742 
Q 2381 3103 1925 3103 
Q 1469 3103 1208 2742 
Q 947 2381 947 1747 
z
" transform="scale(0.015625)"/>
      </defs>
      <use xlink:href="#DejaVuSans-64"/>
      <use xlink:href="#DejaVuSans-65" transform="translate(63.476562 0)"/>
      <use xlink:href="#DejaVuSans-74" transform="translate(125 0)"/>
      <use xlink:href="#DejaVuSans-65" transform="translate(164.208984 0)"/>
      <use xlink:href="#DejaVuSans-63" transform="translate(225.732422 0)"/>
      <use xlink:href="#DejaVuSans-74" transform="translate(280.712891 0)"/>
      <use xlink:href="#DejaVuSans-6f" transform="translate(319.921875 0)"/>
      <use xlink:href="#DejaVuSans-72" transform="translate(381.103516 0)"/>
     </g>
    </g>
    <g id="line2d_19">
     <path d="M 315.267188 52.269572 
L 315.267188 52.269572 
L 325.267188 52.269572 
L 325.267188 52.269572 
L 335.267188 52.269572 
" style="fill: none; stroke: #2ca02c; stroke-width: 1.5; stroke-linecap: square"/>
    </g>
    <g id="text_18">
     <!-- true -->
     <g transform="translate(343.267188 55.769572) scale(0.1 -0.1)">
      <use xlink:href="#DejaVuSans-74"/>
      <use xlink:href="#DejaVuSans-72" transform="translate(39.208984 0)"/>
      <use xlink:href="#DejaVuSans-75" transform="translate(80.322266 0)"/>
      <use xlink:href="#DejaVuSans-65" transform="translate(143.701172 0)"/>
     </g>
    </g>
   </g>
  </g>
 </g>
 <defs>
  <clipPath id="pc4532db0fe">
   <rect x="59.690625" y="9.814885" width="334.8" height="221.76"/>
  </clipPath>
 </defs>
</svg>
