<?xml version="1.0" encoding="utf-8" standalone="no"?>
<!DOCTYPE svg PUBLIC "-//W3C//DTD SVG 1.1//EN"
  "http://www.w3.org/Graphics/SVG/1.1/DTD/svg11.dtd">
<svg xmlns:xlink="http://www.w3.org/1999/xlink" width="395.650781pt" height="268.845156pt" viewBox="0 0 395.650781 268.845156" xmlns="http://www.w3.org/2000/svg" version="1.1">
 <metadata>
  <rdf:RDF xmlns:dc="http://purl.org/dc/elements/1.1/" xmlns:cc="http://creativecommons.org/ns#" xmlns:rdf="http://www.w3.org/1999/02/22-rdf-syntax-ns#">
   <cc:Work>
    <dc:type rdf:resource="http://purl.org/dc/dcmitype/StillImage"/>
    <dc:date>2026-06-30T14:34:52.174823</dc:date>
    <dc:format>image/svg+xml</dc:format>
    <dc:creator>
     <cc:Agent>
      <dc:title>Matplotlib v3.11.0, https://matplotlib.org/</dc:title>
     </cc:Agent>
    </dc:creator>
   </cc:Work>
  </rdf:RDF>
 </metadata>
 <defs>
  <style type="text/css">*{stroke-linejoin: round; stroke-linecap: butt}</style>
 </defs>
 <g id="figure_1">
  <g id="patch_1">
   <path d="M 0 268.845156 
L 395.650781 268.845156 
L 395.650781 0 
L 0 0 
z
" style="fill: #ffffff"/>
  </g>
  <g id="axes_1">
   <g id="patch_2">
    <path d="M 53.650781 228.96 
L 388.450781 228.96 
L 388.450781 7.2 
L 53.650781 7.2 
z
" style="fill: #ffffff"/>
   </g>
   <g id="matplotlib.axis_1">
    <g id="xtick_1">
     <g id="line2d_1">
      <defs>
       <path id="m2ec3cfa8be" d="M 0 0 
L 0 3.5 
" style="stroke: #000000; stroke-width: 0.8"/>
      </defs>
      <g>
       <use xlink:href="#m2ec3cfa8be" x="68.868963" y="228.96" style="stroke: #000000; stroke-width: 0.8"/>
      </g>
     </g>
     <g id="text_1">
      <!-- 2 -->
      <g transform="translate(65.687713 243.557656) scale(0.1 -0.1)">
       <defs>
        <path id="DejaVuSans-15" d="M 1228 531 
L 3431 531 
L 3431 0 
L 469 0 
L 469 531 
Q 828 903 1448 1529 
Q 2069 2156 2228 2338 
Q 2531 2678 2651 2914 
Q 2772 3150 2772 3378 
Q 2772 3750 2511 3984 
Q 2250 4219 1831 4219 
Q 1534 4219 1204 4116 
Q 875 4013 500 3803 
L 500 4441 
Q 881 4594 1212 4672 
Q 1544 4750 1819 4750 
Q 2544 4750 2975 4387 
Q 3406 4025 3406 3419 
Q 3406 3131 3298 2873 
Q 3191 2616 2906 2266 
Q 2828 2175 2409 1742 
Q 1991 1309 1228 531 
z
" transform="scale(0.015625)"/>
       </defs>
       <use xlink:href="#DejaVuSans-15"/>
      </g>
     </g>
    </g>
    <g id="xtick_2">
     <g id="line2d_2">
      <g>
       <use xlink:href="#m2ec3cfa8be" x="106.914418" y="228.96" style="stroke: #000000; stroke-width: 0.8"/>
      </g>
     </g>
     <g id="text_2">
      <!-- 3 -->
      <g transform="translate(103.733168 243.557656) scale(0.1 -0.1)">
       <defs>
        <path id="DejaVuSans-16" d="M 2597 2516 
Q 3050 2419 3304 2112 
Q 3559 1806 3559 1356 
Q 3559 666 3084 287 
Q 2609 -91 1734 -91 
Q 1441 -91 1130 -33 
Q 819 25 488 141 
L 488 750 
Q 750 597 1062 519 
Q 1375 441 1716 441 
Q 2309 441 2620 675 
Q 2931 909 2931 1356 
Q 2931 1769 2642 2001 
Q 2353 2234 1838 2234 
L 1294 2234 
L 1294 2753 
L 1863 2753 
Q 2328 2753 2575 2939 
Q 2822 3125 2822 3475 
Q 2822 3834 2567 4026 
Q 2313 4219 1838 4219 
Q 1578 4219 1281 4162 
Q 984 4106 628 3988 
L 628 4550 
Q 988 4650 1302 4700 
Q 1616 4750 1894 4750 
Q 2613 4750 3031 4423 
Q 3450 4097 3450 3541 
Q 3450 3153 3228 2886 
Q 3006 2619 2597 2516 
z
" transform="scale(0.015625)"/>
       </defs>
       <use xlink:href="#DejaVuSans-16"/>
      </g>
     </g>
    </g>
    <g id="xtick_3">
     <g id="line2d_3">
      <g>
       <use xlink:href="#m2ec3cfa8be" x="144.959872" y="228.96" style="stroke: #000000; stroke-width: 0.8"/>
      </g>
     </g>
     <g id="text_3">
      <!-- 4 -->
      <g transform="translate(141.778622 243.557656) scale(0.1 -0.1)">
       <defs>
        <path id="DejaVuSans-17" d="M 2419 4116 
L 825 1625 
L 2419 1625 
L 2419 4116 
z
M 2253 4666 
L 3047 4666 
L 3047 1625 
L 3713 1625 
L 3713 1100 
L 3047 1100 
L 3047 0 
L 2419 0 
L 2419 1100 
L 313 1100 
L 313 1709 
L 2253 4666 
z
" transform="scale(0.015625)"/>
       </defs>
       <use xlink:href="#DejaVuSans-17"/>
      </g>
     </g>
    </g>
    <g id="xtick_4">
     <g id="line2d_4">
      <g>
       <use xlink:href="#m2ec3cfa8be" x="183.005327" y="228.96" style="stroke: #000000; stroke-width: 0.8"/>
      </g>
     </g>
     <g id="text_4">
      <!-- 5 -->
      <g transform="translate(179.824077 243.557656) scale(0.1 -0.1)">
       <defs>
        <path id="DejaVuSans-18" d="M 691 4666 
L 3169 4666 
L 3169 4134 
L 1269 4134 
L 1269 2991 
Q 1406 3038 1543 3061 
Q 1681 3084 1819 3084 
Q 2600 3084 3056 2656 
Q 3513 2228 3513 1497 
Q 3513 744 3044 326 
Q 2575 -91 1722 -91 
Q 1428 -91 1123 -41 
Q 819 9 494 109 
L 494 744 
Q 775 591 1075 516 
Q 1375 441 1709 441 
Q 2250 441 2565 725 
Q 2881 1009 2881 1497 
Q 2881 1984 2565 2268 
Q 2250 2553 1709 2553 
Q 1456 2553 1204 2497 
Q 953 2441 691 2322 
L 691 4666 
z
" transform="scale(0.015625)"/>
       </defs>
       <use xlink:href="#DejaVuSans-18"/>
      </g>
     </g>
    </g>
    <g id="xtick_5">
     <g id="line2d_5">
      <g>
       <use xlink:href="#m2ec3cfa8be" x="221.050781" y="228.96" style="stroke: #000000; stroke-width: 0.8"/>
      </g>
     </g>
     <g id="text_5">
      <!-- 6 -->
      <g transform="translate(217.869531 243.557656) scale(0.1 -0.1)">
       <defs>
        <path id="DejaVuSans-19" d="M 2113 2584 
Q 1688 2584 1439 2293 
Q 1191 2003 1191 1497 
Q 1191 994 1439 701 
Q 1688 409 2113 409 
Q 2538 409 2786 701 
Q 3034 994 3034 1497 
Q 3034 2003 2786 2293 
Q 2538 2584 2113 2584 
z
M 3366 4563 
L 3366 3988 
Q 3128 4100 2886 4159 
Q 2644 4219 2406 4219 
Q 1781 4219 1451 3797 
Q 1122 3375 1075 2522 
Q 1259 2794 1537 2939 
Q 1816 3084 2150 3084 
Q 2853 3084 3261 2657 
Q 3669 2231 3669 1497 
Q 3669 778 3244 343 
Q 2819 -91 2113 -91 
Q 1303 -91 875 529 
Q 447 1150 447 2328 
Q 447 3434 972 4092 
Q 1497 4750 2381 4750 
Q 2619 4750 2861 4703 
Q 3103 4656 3366 4563 
z
" transform="scale(0.015625)"/>
       </defs>
       <use xlink:href="#DejaVuSans-19"/>
      </g>
     </g>
    </g>
    <g id="xtick_6">
     <g id="line2d_6">
      <g>
       <use xlink:href="#m2ec3cfa8be" x="259.096236" y="228.96" style="stroke: #000000; stroke-width: 0.8"/>
      </g>
     </g>
     <g id="text_6">
      <!-- 7 -->
      <g transform="translate(255.914986 243.557656) scale(0.1 -0.1)">
       <defs>
        <path id="DejaVuSans-1a" d="M 525 4666 
L 3525 4666 
L 3525 4397 
L 1831 0 
L 1172 0 
L 2766 4134 
L 525 4134 
L 525 4666 
z
" transform="scale(0.015625)"/>
       </defs>
       <use xlink:href="#DejaVuSans-1a"/>
      </g>
     </g>
    </g>
    <g id="xtick_7">
     <g id="line2d_7">
      <g>
       <use xlink:href="#m2ec3cfa8be" x="297.14169" y="228.96" style="stroke: #000000; stroke-width: 0.8"/>
      </g>
     </g>
     <g id="text_7">
      <!-- 8 -->
      <g transform="translate(293.96044 243.557656) scale(0.1 -0.1)">
       <defs>
        <path id="DejaVuSans-1b" d="M 2034 2216 
Q 1584 2216 1326 1975 
Q 1069 1734 1069 1313 
Q 1069 891 1326 650 
Q 1584 409 2034 409 
Q 2484 409 2743 651 
Q 3003 894 3003 1313 
Q 3003 1734 2745 1975 
Q 2488 2216 2034 2216 
z
M 1403 2484 
Q 997 2584 770 2862 
Q 544 3141 544 3541 
Q 544 4100 942 4425 
Q 1341 4750 2034 4750 
Q 2731 4750 3128 4425 
Q 3525 4100 3525 3541 
Q 3525 3141 3298 2862 
Q 3072 2584 2669 2484 
Q 3125 2378 3379 2068 
Q 3634 1759 3634 1313 
Q 3634 634 3220 271 
Q 2806 -91 2034 -91 
Q 1263 -91 848 271 
Q 434 634 434 1313 
Q 434 1759 690 2068 
Q 947 2378 1403 2484 
z
M 1172 3481 
Q 1172 3119 1398 2916 
Q 1625 2713 2034 2713 
Q 2441 2713 2670 2916 
Q 2900 3119 2900 3481 
Q 2900 3844 2670 4047 
Q 2441 4250 2034 4250 
Q 1625 4250 1398 4047 
Q 1172 3844 1172 3481 
z
" transform="scale(0.015625)"/>
       </defs>
       <use xlink:href="#DejaVuSans-1b"/>
      </g>
     </g>
    </g>
    <g id="xtick_8">
     <g id="line2d_8">
      <g>
       <use xlink:href="#m2ec3cfa8be" x="335.187145" y="228.96" style="stroke: #000000; stroke-width: 0.8"/>
      </g>
     </g>
     <g id="text_8">
      <!-- 9 -->
      <g transform="translate(332.005895 243.557656) scale(0.1 -0.1)">
       <defs>
        <path id="DejaVuSans-1c" d="M 703 97 
L 703 672 
Q 941 559 1184 500 
Q 1428 441 1663 441 
Q 2288 441 2617 861 
Q 2947 1281 2994 2138 
Q 2813 1869 2534 1725 
Q 2256 1581 1919 1581 
Q 1219 1581 811 2004 
Q 403 2428 403 3163 
Q 403 3881 828 4315 
Q 1253 4750 1959 4750 
Q 2769 4750 3195 4129 
Q 3622 3509 3622 2328 
Q 3622 1225 3098 567 
Q 2575 -91 1691 -91 
Q 1453 -91 1209 -44 
Q 966 3 703 97 
z
M 1959 2075 
Q 2384 2075 2632 2365 
Q 2881 2656 2881 3163 
Q 2881 3666 2632 3958 
Q 2384 4250 1959 4250 
Q 1534 4250 1286 3958 
Q 1038 3666 1038 3163 
Q 1038 2656 1286 2365 
Q 1534 2075 1959 2075 
z
" transform="scale(0.015625)"/>
       </defs>
       <use xlink:href="#DejaVuSans-1c"/>
      </g>
     </g>
    </g>
    <g id="xtick_9">
     <g id="line2d_9">
      <g>
       <use xlink:href="#m2ec3cfa8be" x="373.232599" y="228.96" style="stroke: #000000; stroke-width: 0.8"/>
      </g>
     </g>
     <g id="text_9">
      <!-- 10 -->
      <g transform="translate(366.870099 243.557656) scale(0.1 -0.1)">
       <defs>
        <path id="DejaVuSans-14" d="M 794 531 
L 1825 531 
L 1825 4091 
L 703 3866 
L 703 4441 
L 1819 4666 
L 2450 4666 
L 2450 531 
L 3481 531 
L 3481 0 
L 794 0 
L 794 531 
z
" transform="scale(0.015625)"/>
        <path id="DejaVuSans-13" d="M 2034 4250 
Q 1547 4250 1301 3770 
Q 1056 3291 1056 2328 
Q 1056 1369 1301 889 
Q 1547 409 2034 409 
Q 2525 409 2770 889 
Q 3016 1369 3016 2328 
Q 3016 3291 2770 3770 
Q 2525 4250 2034 4250 
z
M 2034 4750 
Q 2819 4750 3233 4129 
Q 3647 3509 3647 2328 
Q 3647 1150 3233 529 
Q 2819 -91 2034 -91 
Q 1250 -91 836 529 
Q 422 1150 422 2328 
Q 422 3509 836 4129 
Q 1250 4750 2034 4750 
z
" transform="scale(0.015625)"/>
       </defs>
       <use xlink:href="#DejaVuSans-14"/>
       <use xlink:href="#DejaVuSans-13" transform="translate(63.625 0)"/>
      </g>
     </g>
    </g>
    <g id="text_10">
     <!-- wavelength [Å] -->
     <g transform="translate(183.013281 259.242812) scale(0.1 -0.1)">
      <defs>
       <path id="DejaVuSans-5a" d="M 269 3500 
L 844 3500 
L 1563 769 
L 2278 3500 
L 2956 3500 
L 3675 769 
L 4391 3500 
L 4966 3500 
L 4050 0 
L 3372 0 
L 2619 2869 
L 1863 0 
L 1184 0 
L 269 3500 
z
" transform="scale(0.015625)"/>
       <path id="DejaVuSans-44" d="M 2194 1759 
Q 1497 1759 1228 1600 
Q 959 1441 959 1056 
Q 959 750 1161 570 
Q 1363 391 1709 391 
Q 2188 391 2477 730 
Q 2766 1069 2766 1631 
L 2766 1759 
L 2194 1759 
z
M 3341 1997 
L 3341 0 
L 2766 0 
L 2766 531 
Q 2569 213 2275 61 
Q 1981 -91 1556 -91 
Q 1019 -91 701 211 
Q 384 513 384 1019 
Q 384 1609 779 1909 
Q 1175 2209 1959 2209 
L 2766 2209 
L 2766 2266 
Q 2766 2663 2505 2880 
Q 2244 3097 1772 3097 
Q 1472 3097 1187 3025 
Q 903 2953 641 2809 
L 641 3341 
Q 956 3463 1253 3523 
Q 1550 3584 1831 3584 
Q 2591 3584 2966 3190 
Q 3341 2797 3341 1997 
z
" transform="scale(0.015625)"/>
       <path id="DejaVuSans-59" d="M 191 3500 
L 800 3500 
L 1894 563 
L 2988 3500 
L 3597 3500 
L 2284 0 
L 1503 0 
L 191 3500 
z
" transform="scale(0.015625)"/>
       <path id="DejaVuSans-48" d="M 3597 1894 
L 3597 1613 
L 953 1613 
Q 991 1019 1311 708 
Q 1631 397 2203 397 
Q 2534 397 2845 478 
Q 3156 559 3463 722 
L 3463 178 
Q 3153 47 2828 -22 
Q 2503 -91 2169 -91 
Q 1331 -91 842 396 
Q 353 884 353 1716 
Q 353 2575 817 3079 
Q 1281 3584 2069 3584 
Q 2775 3584 3186 3129 
Q 3597 2675 3597 1894 
z
M 3022 2063 
Q 3016 2534 2758 2815 
Q 2500 3097 2075 3097 
Q 1594 3097 1305 2825 
Q 1016 2553 972 2059 
L 3022 2063 
z
" transform="scale(0.015625)"/>
       <path id="DejaVuSans-4f" d="M 603 4863 
L 1178 4863 
L 1178 0 
L 603 0 
L 603 4863 
z
" transform="scale(0.015625)"/>
       <path id="DejaVuSans-51" d="M 3513 2113 
L 3513 0 
L 2938 0 
L 2938 2094 
Q 2938 2591 2744 2837 
Q 2550 3084 2163 3084 
Q 1697 3084 1428 2787 
Q 1159 2491 1159 1978 
L 1159 0 
L 581 0 
L 581 3500 
L 1159 3500 
L 1159 2956 
Q 1366 3272 1645 3428 
Q 1925 3584 2291 3584 
Q 2894 3584 3203 3211 
Q 3513 2838 3513 2113 
z
" transform="scale(0.015625)"/>
       <path id="DejaVuSans-4a" d="M 2906 1791 
Q 2906 2416 2648 2759 
Q 2391 3103 1925 3103 
Q 1463 3103 1205 2759 
Q 947 2416 947 1791 
Q 947 1169 1205 825 
Q 1463 481 1925 481 
Q 2391 481 2648 825 
Q 2906 1169 2906 1791 
z
M 3481 434 
Q 3481 -459 3084 -895 
Q 2688 -1331 1869 -1331 
Q 1566 -1331 1297 -1286 
Q 1028 -1241 775 -1147 
L 775 -588 
Q 1028 -725 1275 -790 
Q 1522 -856 1778 -856 
Q 2344 -856 2625 -561 
Q 2906 -266 2906 331 
L 2906 616 
Q 2728 306 2450 153 
Q 2172 0 1784 0 
Q 1141 0 747 490 
Q 353 981 353 1791 
Q 353 2603 747 3093 
Q 1141 3584 1784 3584 
Q 2172 3584 2450 3431 
Q 2728 3278 2906 2969 
L 2906 3500 
L 3481 3500 
L 3481 434 
z
" transform="scale(0.015625)"/>
       <path id="DejaVuSans-57" d="M 1172 4494 
L 1172 3500 
L 2356 3500 
L 2356 3053 
L 1172 3053 
L 1172 1153 
Q 1172 725 1289 603 
Q 1406 481 1766 481 
L 2356 481 
L 2356 0 
L 1766 0 
Q 1100 0 847 248 
Q 594 497 594 1153 
L 594 3053 
L 172 3053 
L 172 3500 
L 594 3500 
L 594 4494 
L 1172 4494 
z
" transform="scale(0.015625)"/>
       <path id="DejaVuSans-4b" d="M 3513 2113 
L 3513 0 
L 2938 0 
L 2938 2094 
Q 2938 2591 2744 2837 
Q 2550 3084 2163 3084 
Q 1697 3084 1428 2787 
Q 1159 2491 1159 1978 
L 1159 0 
L 581 0 
L 581 4863 
L 1159 4863 
L 1159 2956 
Q 1366 3272 1645 3428 
Q 1925 3584 2291 3584 
Q 2894 3584 3203 3211 
Q 3513 2838 3513 2113 
z
" transform="scale(0.015625)"/>
       <path id="DejaVuSans-3" transform="scale(0.015625)"/>
       <path id="DejaVuSans-3e" d="M 550 4863 
L 1875 4863 
L 1875 4416 
L 1125 4416 
L 1125 -397 
L 1875 -397 
L 1875 -844 
L 550 -844 
L 550 4863 
z
" transform="scale(0.015625)"/>
       <path id="DejaVuSans-87" d="M 2663 5081 
Q 2663 5278 2523 5417 
Q 2384 5556 2188 5556 
Q 1988 5556 1852 5420 
Q 1716 5284 1716 5081 
Q 1716 4884 1853 4746 
Q 1991 4609 2188 4609 
Q 2384 4609 2523 4746 
Q 2663 4884 2663 5081 
z
M 2188 4044 
L 1338 1722 
L 3041 1722 
L 2188 4044 
z
M 1716 4366 
Q 1525 4494 1428 4673 
Q 1331 4853 1331 5081 
Q 1331 5441 1579 5691 
Q 1828 5941 2188 5941 
Q 2544 5941 2795 5689 
Q 3047 5438 3047 5081 
Q 3047 4863 2948 4678 
Q 2850 4494 2663 4366 
L 4325 0 
L 3669 0 
L 3244 1197 
L 1141 1197 
L 716 0 
L 50 0 
L 1716 4366 
z
" transform="scale(0.015625)"/>
       <path id="DejaVuSans-40" d="M 1947 4863 
L 1947 -844 
L 622 -844 
L 622 -397 
L 1369 -397 
L 1369 4416 
L 622 4416 
L 622 4863 
L 1947 4863 
z
" transform="scale(0.015625)"/>
      </defs>
      <use xlink:href="#DejaVuSans-5a"/>
      <use xlink:href="#DejaVuSans-44" transform="translate(81.78125 0)"/>
      <use xlink:href="#DejaVuSans-59" transform="translate(143.0625 0)"/>
      <use xlink:href="#DejaVuSans-48" transform="translate(202.25 0)"/>
      <use xlink:href="#DejaVuSans-4f" transform="translate(263.78125 0)"/>
      <use xlink:href="#DejaVuSans-48" transform="translate(291.5625 0)"/>
      <use xlink:href="#DejaVuSans-51" transform="translate(353.09375 0)"/>
      <use xlink:href="#DejaVuSans-4a" transform="translate(416.46875 0)"/>
      <use xlink:href="#DejaVuSans-57" transform="translate(479.953125 0)"/>
      <use xlink:href="#DejaVuSans-4b" transform="translate(519.15625 0)"/>
      <use xlink:href="#DejaVuSans-3" transform="translate(582.53125 0)"/>
      <use xlink:href="#DejaVuSans-3e" transform="translate(614.3125 0)"/>
      <use xlink:href="#DejaVuSans-87" transform="translate(653.328125 0)"/>
      <use xlink:href="#DejaVuSans-40" transform="translate(721.734375 0)"/>
     </g>
    </g>
   </g>
   <g id="matplotlib.axis_2">
    <g id="ytick_1">
     <g id="line2d_10">
      <defs>
       <path id="m31344e042c" d="M 0 0 
L -3.5 0 
" style="stroke: #000000; stroke-width: 0.8"/>
      </defs>
      <g>
       <use xlink:href="#m31344e042c" x="53.650781" y="218.88" style="stroke: #000000; stroke-width: 0.8"/>
      </g>
     </g>
     <g id="text_11">
      <!-- 0 -->
      <g transform="translate(40.288281 222.678828) scale(0.1 -0.1)">
       <use xlink:href="#DejaVuSans-13"/>
      </g>
     </g>
    </g>
    <g id="ytick_2">
     <g id="line2d_11">
      <g>
       <use xlink:href="#m31344e042c" x="53.650781" y="178.576122" style="stroke: #000000; stroke-width: 0.8"/>
      </g>
     </g>
     <g id="text_12">
      <!-- 500 -->
      <g transform="translate(27.563281 182.37495) scale(0.1 -0.1)">
       <use xlink:href="#DejaVuSans-18"/>
       <use xlink:href="#DejaVuSans-13" transform="translate(63.625 0)"/>
       <use xlink:href="#DejaVuSans-13" transform="translate(127.25 0)"/>
      </g>
     </g>
    </g>
    <g id="ytick_3">
     <g id="line2d_12">
      <g>
       <use xlink:href="#m31344e042c" x="53.650781" y="138.272243" style="stroke: #000000; stroke-width: 0.8"/>
      </g>
     </g>
     <g id="text_13">
      <!-- 1000 -->
      <g transform="translate(21.200781 142.071071) scale(0.1 -0.1)">
       <use xlink:href="#DejaVuSans-14"/>
       <use xlink:href="#DejaVuSans-13" transform="translate(63.625 0)"/>
       <use xlink:href="#DejaVuSans-13" transform="translate(127.25 0)"/>
       <use xlink:href="#DejaVuSans-13" transform="translate(190.875 0)"/>
      </g>
     </g>
    </g>
    <g id="ytick_4">
     <g id="line2d_13">
      <g>
       <use xlink:href="#m31344e042c" x="53.650781" y="97.968365" style="stroke: #000000; stroke-width: 0.8"/>
      </g>
     </g>
     <g id="text_14">
      <!-- 1500 -->
      <g transform="translate(21.200781 101.767193) scale(0.1 -0.1)">
       <use xlink:href="#DejaVuSans-14"/>
       <use xlink:href="#DejaVuSans-18" transform="translate(63.625 0)"/>
       <use xlink:href="#DejaVuSans-13" transform="translate(127.25 0)"/>
       <use xlink:href="#DejaVuSans-13" transform="translate(190.875 0)"/>
      </g>
     </g>
    </g>
    <g id="ytick_5">
     <g id="line2d_14">
      <g>
       <use xlink:href="#m31344e042c" x="53.650781" y="57.664486" style="stroke: #000000; stroke-width: 0.8"/>
      </g>
     </g>
     <g id="text_15">
      <!-- 2000 -->
      <g transform="translate(21.200781 61.463314) scale(0.1 -0.1)">
       <use xlink:href="#DejaVuSans-15"/>
       <use xlink:href="#DejaVuSans-13" transform="translate(63.625 0)"/>
       <use xlink:href="#DejaVuSans-13" transform="translate(127.25 0)"/>
       <use xlink:href="#DejaVuSans-13" transform="translate(190.875 0)"/>
      </g>
     </g>
    </g>
    <g id="ytick_6">
     <g id="line2d_15">
      <g>
       <use xlink:href="#m31344e042c" x="53.650781" y="17.360608" style="stroke: #000000; stroke-width: 0.8"/>
      </g>
     </g>
     <g id="text_16">
      <!-- 2500 -->
      <g transform="translate(21.200781 21.159436) scale(0.1 -0.1)">
       <use xlink:href="#DejaVuSans-15"/>
       <use xlink:href="#DejaVuSans-18" transform="translate(63.625 0)"/>
       <use xlink:href="#DejaVuSans-13" transform="translate(127.25 0)"/>
       <use xlink:href="#DejaVuSans-13" transform="translate(190.875 0)"/>
      </g>
     </g>
    </g>
    <g id="text_17">
     <!-- [counts] -->
     <g transform="translate(14.798438 138.6925) rotate(-90) scale(0.1 -0.1)">
      <defs>
       <path id="DejaVuSans-46" d="M 3122 3366 
L 3122 2828 
Q 2878 2963 2633 3030 
Q 2388 3097 2138 3097 
Q 1578 3097 1268 2742 
Q 959 2388 959 1747 
Q 959 1106 1268 751 
Q 1578 397 2138 397 
Q 2388 397 2633 464 
Q 2878 531 3122 666 
L 3122 134 
Q 2881 22 2623 -34 
Q 2366 -91 2075 -91 
Q 1284 -91 818 406 
Q 353 903 353 1747 
Q 353 2603 823 3093 
Q 1294 3584 2113 3584 
Q 2378 3584 2631 3529 
Q 2884 3475 3122 3366 
z
" transform="scale(0.015625)"/>
       <path id="DejaVuSans-52" d="M 1959 3097 
Q 1497 3097 1228 2736 
Q 959 2375 959 1747 
Q 959 1119 1226 758 
Q 1494 397 1959 397 
Q 2419 397 2687 759 
Q 2956 1122 2956 1747 
Q 2956 2369 2687 2733 
Q 2419 3097 1959 3097 
z
M 1959 3584 
Q 2709 3584 3137 3096 
Q 3566 2609 3566 1747 
Q 3566 888 3137 398 
Q 2709 -91 1959 -91 
Q 1206 -91 779 398 
Q 353 888 353 1747 
Q 353 2609 779 3096 
Q 1206 3584 1959 3584 
z
" transform="scale(0.015625)"/>
       <path id="DejaVuSans-58" d="M 544 1381 
L 544 3500 
L 1119 3500 
L 1119 1403 
Q 1119 906 1312 657 
Q 1506 409 1894 409 
Q 2359 409 2629 706 
Q 2900 1003 2900 1516 
L 2900 3500 
L 3475 3500 
L 3475 0 
L 2900 0 
L 2900 538 
Q 2691 219 2414 64 
Q 2138 -91 1772 -91 
Q 1169 -91 856 284 
Q 544 659 544 1381 
z
M 1991 3584 
L 1991 3584 
z
" transform="scale(0.015625)"/>
       <path id="DejaVuSans-56" d="M 2834 3397 
L 2834 2853 
Q 2591 2978 2328 3040 
Q 2066 3103 1784 3103 
Q 1356 3103 1142 2972 
Q 928 2841 928 2578 
Q 928 2378 1081 2264 
Q 1234 2150 1697 2047 
L 1894 2003 
Q 2506 1872 2764 1633 
Q 3022 1394 3022 966 
Q 3022 478 2636 193 
Q 2250 -91 1575 -91 
Q 1294 -91 989 -36 
Q 684 19 347 128 
L 347 722 
Q 666 556 975 473 
Q 1284 391 1588 391 
Q 1994 391 2212 530 
Q 2431 669 2431 922 
Q 2431 1156 2273 1281 
Q 2116 1406 1581 1522 
L 1381 1569 
Q 847 1681 609 1914 
Q 372 2147 372 2553 
Q 372 3047 722 3315 
Q 1072 3584 1716 3584 
Q 2034 3584 2315 3537 
Q 2597 3491 2834 3397 
z
" transform="scale(0.015625)"/>
      </defs>
      <use xlink:href="#DejaVuSans-3e"/>
      <use xlink:href="#DejaVuSans-46" transform="translate(39.015625 0)"/>
      <use xlink:href="#DejaVuSans-52" transform="translate(94 0)"/>
      <use xlink:href="#DejaVuSans-58" transform="translate(155.1875 0)"/>
      <use xlink:href="#DejaVuSans-51" transform="translate(218.5625 0)"/>
      <use xlink:href="#DejaVuSans-57" transform="translate(281.9375 0)"/>
      <use xlink:href="#DejaVuSans-56" transform="translate(321.140625 0)"/>
      <use xlink:href="#DejaVuSans-40" transform="translate(373.234375 0)"/>
     </g>
    </g>
   </g>
   <g id="line2d_16">
    <path d="M 68.868963 218.88 
L 70.898054 218.88 
L 70.898054 180.913747 
L 71.912599 180.913747 
L 71.912599 115.540856 
L 72.927145 115.540856 
L 72.927145 104.739416 
L 73.94169 104.739416 
L 73.94169 98.532619 
L 74.956236 98.532619 
L 74.956236 85.151731 
L 75.970781 85.151731 
L 75.970781 86.683279 
L 76.985327 86.683279 
L 76.985327 86.28024 
L 77.999872 86.28024 
L 77.999872 82.088637 
L 79.014418 82.088637 
L 79.014418 75.962447 
L 80.028963 75.962447 
L 80.028963 70.884158 
L 81.043509 70.884158 
L 81.043509 69.594434 
L 82.058054 69.594434 
L 82.058054 61.694874 
L 83.072599 61.694874 
L 83.072599 56.45537 
L 84.087145 56.45537 
L 84.087145 45.895754 
L 85.10169 45.895754 
L 85.10169 41.059288 
L 86.116236 41.059288 
L 86.116236 36.545254 
L 87.130781 36.545254 
L 87.130781 28.484478 
L 88.145327 28.484478 
L 88.145327 27.033539 
L 89.159872 27.033539 
L 89.159872 23.809228 
L 90.174418 23.809228 
L 90.174418 17.28 
L 91.188963 17.28 
L 91.188963 23.325582 
L 92.203509 23.325582 
L 92.203509 18.892155 
L 93.218054 18.892155 
L 93.218054 28.162047 
L 94.232599 28.162047 
L 94.232599 22.600112 
L 96.26169 22.600112 
L 96.26169 29.693595 
L 97.276236 29.693595 
L 97.276236 42.268405 
L 98.290781 42.268405 
L 98.290781 31.789396 
L 99.305327 31.789396 
L 99.305327 36.142215 
L 100.319872 36.142215 
L 100.319872 39.688956 
L 101.334418 39.688956 
L 101.334418 45.009068 
L 102.348963 45.009068 
L 102.348963 52.424982 
L 103.363509 52.424982 
L 103.363509 64.435538 
L 104.378054 64.435538 
L 104.378054 76.284878 
L 105.392599 76.284878 
L 105.392599 81.766206 
L 106.407145 81.766206 
L 106.407145 95.791955 
L 108.436236 95.872563 
L 108.436236 107.238257 
L 109.450781 107.238257 
L 109.450781 110.623782 
L 110.465327 110.623782 
L 110.465327 120.699752 
L 111.479872 120.699752 
L 111.479872 132.226661 
L 112.494418 132.226661 
L 112.494418 135.289756 
L 113.508963 135.289756 
L 113.508963 145.849372 
L 114.523509 145.849372 
L 114.523509 149.718545 
L 115.538054 149.718545 
L 115.538054 156.892635 
L 116.552599 156.892635 
L 116.552599 163.018824 
L 117.567145 163.018824 
L 117.567145 171.482639 
L 118.58169 171.482639 
L 118.58169 180.349492 
L 119.596236 180.349492 
L 119.596236 186.233858 
L 120.610781 186.233858 
L 120.610781 191.55397 
L 121.625327 191.55397 
L 121.625327 195.020104 
L 122.639872 195.020104 
L 122.639872 155.683519 
L 123.654418 155.683519 
L 123.654418 129.808429 
L 124.668963 129.808429 
L 124.668963 103.449692 
L 125.683509 103.449692 
L 125.683509 87.408749 
L 126.698054 87.408749 
L 126.698054 97.565326 
L 127.712599 97.565326 
L 127.712599 102.482399 
L 128.727145 102.482399 
L 128.727145 84.990516 
L 129.74169 84.990516 
L 129.74169 86.441455 
L 130.756236 86.441455 
L 130.756236 92.487037 
L 131.770781 92.487037 
L 131.770781 92.890076 
L 132.785327 92.890076 
L 132.785327 102.724222 
L 133.799872 102.724222 
L 133.799872 106.75461 
L 134.814418 106.75461 
L 134.814418 97.645934 
L 135.828963 97.645934 
L 135.828963 97.001072 
L 136.843509 97.001072 
L 136.843509 106.593395 
L 137.858054 106.593395 
L 137.858054 113.686877 
L 138.872599 113.686877 
L 138.872599 115.943894 
L 139.887145 115.943894 
L 139.887145 115.218425 
L 140.90169 115.218425 
L 140.90169 103.288477 
L 141.916236 103.288477 
L 141.916236 106.915826 
L 142.930781 106.915826 
L 142.930781 109.575882 
L 143.945327 109.575882 
L 143.945327 116.991795 
L 144.959872 116.991795 
L 144.959872 124.568924 
L 145.974418 124.568924 
L 145.974418 124.246493 
L 146.988963 124.246493 
L 146.988963 117.394834 
L 148.003509 117.394834 
L 148.003509 116.10511 
L 149.018054 116.10511 
L 149.018054 118.60395 
L 150.032599 118.60395 
L 150.032599 122.311907 
L 151.047145 122.311907 
L 151.047145 129.002351 
L 152.06169 129.002351 
L 152.06169 118.765166 
L 153.076236 118.765166 
L 153.076236 117.717265 
L 154.090781 117.717265 
L 154.090781 132.790916 
L 155.105327 132.790916 
L 155.105327 126.261687 
L 156.119872 126.261687 
L 156.119872 121.586437 
L 157.134418 121.586437 
L 157.134418 120.216106 
L 158.148963 120.216106 
L 158.148963 139.80379 
L 159.163509 139.80379 
L 159.163509 136.418265 
L 160.178054 136.418265 
L 160.178054 130.372683 
L 161.192599 130.372683 
L 161.192599 138.836497 
L 162.207145 138.836497 
L 162.207145 146.252411 
L 163.22169 146.252411 
L 163.22169 145.849372 
L 164.236236 145.849372 
L 164.236236 148.993075 
L 165.250781 148.993075 
L 165.250781 153.265286 
L 166.265327 153.265286 
L 166.265327 143.108709 
L 167.279872 143.108709 
L 167.279872 150.444014 
L 168.294418 150.444014 
L 168.294418 164.147333 
L 169.308963 164.147333 
L 169.308963 166.40435 
L 170.323509 166.40435 
L 170.323509 160.842415 
L 171.338054 160.842415 
L 171.338054 154.313187 
L 172.352599 154.313187 
L 172.352599 151.411307 
L 173.367145 151.411307 
L 173.367145 145.849372 
L 174.38169 145.849372 
L 174.38169 143.592355 
L 175.396236 143.592355 
L 175.396236 136.57948 
L 176.410781 136.57948 
L 176.410781 130.695114 
L 177.425327 130.695114 
L 177.425327 137.30495 
L 178.439872 137.30495 
L 178.439872 141.9802 
L 179.454418 141.9802 
L 179.454418 141.174122 
L 180.468963 141.174122 
L 180.468963 145.92998 
L 181.483509 145.92998 
L 181.483509 151.894954 
L 182.498054 151.894954 
L 182.498054 154.071363 
L 183.512599 154.071363 
L 183.512599 153.10407 
L 184.527145 153.10407 
L 184.527145 155.602911 
L 185.54169 155.602911 
L 185.54169 162.857609 
L 186.556236 162.857609 
L 186.556236 165.517665 
L 187.570781 165.517665 
L 187.570781 159.149652 
L 188.585327 159.149652 
L 188.585327 156.086557 
L 189.599872 156.086557 
L 189.599872 162.857609 
L 190.614418 162.857609 
L 190.614418 163.583079 
L 191.628963 163.583079 
L 191.628963 155.28048 
L 192.643509 155.28048 
L 192.643509 157.77932 
L 193.658054 157.77932 
L 193.658054 162.132139 
L 194.672599 162.132139 
L 194.672599 165.920704 
L 195.687145 165.920704 
L 195.687145 169.145014 
L 196.70169 169.145014 
L 196.70169 177.850652 
L 197.716236 177.850652 
L 197.716236 168.983798 
L 198.730781 168.983798 
L 198.730781 171.160208 
L 199.745327 171.160208 
L 199.745327 174.465126 
L 200.759872 174.465126 
L 200.759872 172.933579 
L 201.774418 172.933579 
L 201.774418 178.253691 
L 202.788963 178.253691 
L 202.788963 184.863527 
L 203.803509 184.863527 
L 203.803509 188.652091 
L 204.818054 188.652091 
L 204.818054 187.926621 
L 205.832599 187.926621 
L 205.832599 187.120544 
L 206.847145 187.120544 
L 206.847145 192.27944 
L 207.86169 192.27944 
L 207.86169 191.312147 
L 208.876236 191.312147 
L 208.876236 189.538776 
L 210.905327 189.458169 
L 210.905327 192.682479 
L 211.919872 192.682479 
L 211.919872 199.695354 
L 212.934418 199.695354 
L 212.934418 202.758449 
L 213.948963 202.758449 
L 213.948963 197.68016 
L 214.963509 197.68016 
L 214.963509 195.261927 
L 215.978054 195.261927 
L 215.978054 194.45585 
L 216.992599 194.45585 
L 216.992599 194.697673 
L 218.007145 194.697673 
L 218.007145 193.00491 
L 220.036236 193.085518 
L 220.036236 190.909108 
L 221.050781 190.909108 
L 221.050781 180.994354 
L 222.065327 180.994354 
L 222.065327 181.15557 
L 223.079872 181.15557 
L 223.079872 184.944134 
L 224.094418 184.944134 
L 224.094418 190.586677 
L 225.108963 190.586677 
L 225.108963 189.699992 
L 226.123509 189.699992 
L 226.123509 191.957009 
L 227.138054 191.957009 
L 227.138054 196.22922 
L 228.152599 196.22922 
L 228.152599 195.020104 
L 229.167145 195.020104 
L 229.167145 196.068005 
L 230.18169 196.068005 
L 230.18169 196.22922 
L 231.196236 196.22922 
L 231.196236 198.163806 
L 232.210781 198.163806 
L 232.210781 197.196513 
L 233.225327 197.196513 
L 233.225327 199.534138 
L 234.239872 199.534138 
L 234.239872 202.758449 
L 235.254418 202.758449 
L 235.254418 203.000272 
L 237.283509 203.08088 
L 237.283509 203.242095 
L 238.298054 203.242095 
L 238.298054 204.773643 
L 239.312599 204.773643 
L 239.312599 204.209388 
L 240.327145 204.209388 
L 240.327145 204.934858 
L 242.356236 205.015466 
L 242.356236 203.483918 
L 243.370781 203.483918 
L 243.370781 207.836737 
L 244.385327 207.836737 
L 244.385327 207.03066 
L 245.399872 207.03066 
L 245.399872 209.610108 
L 246.414418 209.610108 
L 246.414418 210.093754 
L 247.428963 210.093754 
L 247.428963 210.738617 
L 248.443509 210.738617 
L 248.443509 211.70591 
L 249.458054 211.70591 
L 249.458054 212.189556 
L 250.472599 212.189556 
L 250.472599 211.544694 
L 251.487145 211.544694 
L 251.487145 212.028341 
L 252.50169 212.028341 
L 252.50169 213.47928 
L 253.516236 213.47928 
L 253.516236 214.769004 
L 254.530781 214.769004 
L 254.530781 213.801711 
L 256.559872 213.882319 
L 256.559872 213.640496 
L 257.574418 213.640496 
L 257.574418 213.882319 
L 258.588963 213.882319 
L 258.588963 211.625302 
L 259.603509 211.625302 
L 259.603509 208.400992 
L 260.618054 208.400992 
L 260.618054 207.594914 
L 261.632599 207.594914 
L 261.632599 208.239776 
L 262.647145 208.239776 
L 262.647145 204.85425 
L 263.66169 204.85425 
L 263.66169 204.451212 
L 264.676236 204.451212 
L 264.676236 205.499112 
L 265.690781 205.499112 
L 265.690781 208.159168 
L 266.705327 208.159168 
L 266.705327 207.917345 
L 267.719872 207.917345 
L 267.719872 209.932539 
L 268.734418 209.932539 
L 268.734418 208.078561 
L 269.748963 208.078561 
L 269.748963 208.965246 
L 270.763509 208.965246 
L 270.763509 205.902151 
L 271.778054 205.902151 
L 271.778054 206.466405 
L 272.792599 206.466405 
L 272.792599 206.788836 
L 273.807145 206.788836 
L 273.807145 210.25497 
L 274.82169 210.25497 
L 274.82169 208.965246 
L 275.836236 208.965246 
L 275.836236 209.771323 
L 276.850781 209.771323 
L 276.850781 210.738617 
L 277.865327 210.738617 
L 277.865327 212.028341 
L 278.879872 212.028341 
L 278.879872 212.511987 
L 279.894418 212.511987 
L 279.894418 211.867125 
L 280.908963 211.867125 
L 280.908963 213.559888 
L 281.923509 213.559888 
L 281.923509 214.043535 
L 282.938054 214.043535 
L 282.938054 213.559888 
L 284.967145 213.559888 
L 284.967145 214.124142 
L 286.996236 214.124142 
L 286.996236 214.285358 
L 288.010781 214.285358 
L 288.010781 215.413866 
L 289.025327 215.413866 
L 289.025327 215.252651 
L 290.039872 215.252651 
L 290.039872 215.897513 
L 292.068963 215.816905 
L 292.068963 214.285358 
L 293.083509 214.285358 
L 293.083509 216.945414 
L 294.098054 216.945414 
L 294.098054 217.590276 
L 295.112599 217.590276 
L 295.112599 216.784198 
L 296.127145 216.784198 
L 296.127145 216.622983 
L 297.14169 216.622983 
L 297.14169 217.267845 
L 298.156236 217.267845 
L 298.156236 217.590276 
L 299.170781 217.590276 
L 299.170781 214.769004 
L 300.185327 214.769004 
L 300.185327 213.882319 
L 303.228963 213.962927 
L 303.228963 211.786517 
L 304.243509 211.786517 
L 304.243509 210.093754 
L 305.258054 210.093754 
L 305.258054 209.207069 
L 306.272599 209.207069 
L 306.272599 209.932539 
L 307.287145 209.932539 
L 307.287145 207.191875 
L 308.30169 207.191875 
L 308.30169 204.12878 
L 309.316236 204.12878 
L 309.316236 199.695354 
L 310.330781 199.695354 
L 310.330781 205.660328 
L 311.345327 205.660328 
L 311.345327 205.015466 
L 312.359872 205.015466 
L 312.359872 199.614746 
L 313.374418 199.614746 
L 313.374418 201.065686 
L 314.388963 201.065686 
L 314.388963 205.257289 
L 315.403509 205.257289 
L 315.403509 206.950052 
L 316.418054 206.950052 
L 316.418054 201.952371 
L 317.432599 201.952371 
L 317.432599 203.242095 
L 318.447145 203.242095 
L 318.447145 208.320384 
L 319.46169 208.320384 
L 319.46169 206.466405 
L 320.476236 206.466405 
L 320.476236 203.000272 
L 321.490781 203.000272 
L 321.490781 205.499112 
L 322.505327 205.499112 
L 322.505327 205.902151 
L 323.519872 205.902151 
L 323.519872 206.224582 
L 325.548963 206.143974 
L 325.548963 204.934858 
L 326.563509 204.934858 
L 326.563509 204.773643 
L 327.578054 204.773643 
L 327.578054 207.675522 
L 328.592599 207.675522 
L 328.592599 205.096074 
L 329.607145 205.096074 
L 329.607145 205.418505 
L 330.62169 205.418505 
L 330.62169 207.836737 
L 331.636236 207.836737 
L 331.636236 209.448892 
L 332.650781 209.448892 
L 332.650781 209.287677 
L 333.665327 209.287677 
L 333.665327 210.174362 
L 334.679872 210.174362 
L 334.679872 212.189556 
L 335.694418 212.189556 
L 335.694418 211.464086 
L 336.708963 211.464086 
L 336.708963 209.207069 
L 337.723509 209.207069 
L 337.723509 210.25497 
L 338.738054 210.25497 
L 338.738054 209.690716 
L 339.752599 209.690716 
L 339.752599 210.98044 
L 340.767145 210.98044 
L 340.767145 213.559888 
L 341.78169 213.559888 
L 341.78169 214.446573 
L 342.796236 214.446573 
L 342.796236 212.995634 
L 343.810781 212.995634 
L 343.810781 212.350772 
L 344.825327 212.350772 
L 344.825327 210.98044 
L 345.839872 210.98044 
L 345.839872 212.834418 
L 346.854418 212.834418 
L 346.854418 215.010828 
L 347.868963 215.010828 
L 347.868963 214.769004 
L 348.883509 214.769004 
L 348.883509 215.816905 
L 349.898054 215.816905 
L 349.898054 216.139336 
L 350.912599 216.139336 
L 350.912599 217.670884 
L 351.927145 217.670884 
L 351.927145 218.396353 
L 352.94169 218.396353 
L 352.94169 218.88 
L 373.232599 218.88 
L 373.232599 218.88 
" clip-path="url(#p9903112869)" style="fill: none; stroke: #1f77b4; stroke-width: 1.5; stroke-linecap: square"/>
   </g>
   <g id="line2d_17">
    <path d="M 68.868963 211.625302 
L 69.883509 211.625302 
L 69.883509 184.138057 
L 70.898054 184.138057 
L 70.898054 157.698713 
L 71.912599 157.698713 
L 71.912599 126.18108 
L 72.927145 126.18108 
L 72.927145 108.366765 
L 73.94169 108.366765 
L 73.94169 96.678641 
L 74.956236 96.678641 
L 74.956236 92.406429 
L 75.970781 92.406429 
L 75.970781 84.748693 
L 76.985327 84.748693 
L 76.985327 85.232339 
L 77.999872 85.232339 
L 77.999872 80.234658 
L 79.014418 80.234658 
L 79.014418 76.849132 
L 80.028963 76.849132 
L 80.028963 69.433219 
L 81.043509 69.433219 
L 81.043509 71.448413 
L 82.058054 71.448413 
L 82.058054 62.017305 
L 83.072599 62.017305 
L 83.072599 51.941335 
L 84.087145 51.941335 
L 84.087145 52.424982 
L 85.10169 52.424982 
L 85.10169 43.799952 
L 86.116236 43.799952 
L 86.116236 31.466965 
L 87.130781 31.466965 
L 87.130781 30.822103 
L 88.145327 30.822103 
L 88.145327 25.663207 
L 89.159872 25.663207 
L 89.159872 19.859448 
L 90.174418 19.859448 
L 90.174418 23.648013 
L 91.188963 23.648013 
L 91.188963 27.517185 
L 92.203509 27.517185 
L 92.203509 20.665526 
L 93.218054 20.665526 
L 93.218054 22.68072 
L 94.232599 22.68072 
L 94.232599 18.972763 
L 95.247145 18.972763 
L 95.247145 30.58028 
L 96.26169 30.58028 
L 96.26169 29.693595 
L 97.276236 29.693595 
L 97.276236 37.673762 
L 98.290781 37.673762 
L 98.290781 32.353651 
L 99.305327 32.353651 
L 99.305327 37.190116 
L 100.319872 37.190116 
L 100.319872 40.817465 
L 101.334418 40.817465 
L 101.334418 45.009068 
L 102.348963 45.009068 
L 102.348963 56.374762 
L 103.363509 56.374762 
L 103.363509 69.272003 
L 104.378054 69.272003 
L 104.378054 74.672723 
L 105.392599 74.672723 
L 105.392599 79.992835 
L 106.407145 79.992835 
L 106.407145 88.859688 
L 107.42169 88.859688 
L 107.42169 99.499912 
L 108.436236 99.499912 
L 108.436236 107.238257 
L 109.450781 107.238257 
L 109.450781 115.863287 
L 110.465327 115.863287 
L 110.465327 118.039696 
L 111.479872 118.039696 
L 111.479872 127.551411 
L 112.494418 127.551411 
L 112.494418 138.594674 
L 113.508963 138.594674 
L 113.508963 143.43114 
L 114.523509 143.43114 
L 114.523509 149.073683 
L 115.538054 149.073683 
L 115.538054 158.666006 
L 116.552599 158.666006 
L 116.552599 161.487277 
L 117.567145 161.487277 
L 117.567145 171.563247 
L 118.58169 171.563247 
L 118.58169 178.97916 
L 119.596236 178.97916 
L 119.596236 182.767725 
L 120.610781 182.767725 
L 120.610781 176.077281 
L 121.625327 176.077281 
L 121.625327 159.95573 
L 122.639872 159.95573 
L 122.639872 146.010588 
L 123.654418 146.010588 
L 123.654418 127.551411 
L 124.668963 127.551411 
L 124.668963 117.878481 
L 125.683509 117.878481 
L 125.683509 104.336377 
L 126.698054 104.336377 
L 126.698054 90.95549 
L 127.712599 90.95549 
L 127.712599 93.212507 
L 128.727145 93.212507 
L 128.727145 93.696154 
L 129.74169 93.696154 
L 129.74169 92.325822 
L 130.756236 92.325822 
L 130.756236 90.310628 
L 131.770781 90.310628 
L 131.770781 96.839856 
L 133.799872 96.759248 
L 133.799872 100.30599 
L 134.814418 100.30599 
L 134.814418 104.820024 
L 135.828963 104.820024 
L 135.828963 103.449692 
L 136.843509 103.449692 
L 136.843509 99.338697 
L 137.858054 99.338697 
L 137.858054 110.70439 
L 138.872599 110.70439 
L 138.872599 114.170524 
L 139.887145 114.170524 
L 139.887145 110.784998 
L 140.90169 110.784998 
L 140.90169 107.963727 
L 141.916236 107.963727 
L 141.916236 110.140136 
L 142.930781 110.140136 
L 142.930781 111.913507 
L 143.945327 111.913507 
L 143.945327 116.427541 
L 144.959872 116.427541 
L 144.959872 118.120304 
L 145.974418 118.120304 
L 145.974418 118.845774 
L 146.988963 118.845774 
L 146.988963 116.427541 
L 148.003509 116.427541 
L 148.003509 119.732459 
L 149.018054 119.732459 
L 149.018054 116.588756 
L 150.032599 116.588756 
L 150.032599 125.778041 
L 151.047145 125.778041 
L 151.047145 120.296713 
L 152.06169 120.296713 
L 152.06169 123.359808 
L 153.076236 123.359808 
L 153.076236 127.95445 
L 154.090781 127.95445 
L 154.090781 131.743015 
L 155.105327 131.743015 
L 155.105327 128.67992 
L 156.119872 128.67992 
L 156.119872 132.6297 
L 157.134418 132.6297 
L 157.134418 133.274562 
L 158.148963 133.274562 
L 158.148963 135.289756 
L 159.163509 135.289756 
L 159.163509 136.015226 
L 160.178054 136.015226 
L 160.178054 134.886717 
L 161.192599 134.886717 
L 161.192599 139.078321 
L 162.207145 139.078321 
L 162.207145 137.627381 
L 163.22169 137.627381 
L 163.22169 141.415946 
L 164.236236 141.415946 
L 164.236236 142.141415 
L 165.250781 142.141415 
L 165.250781 141.899592 
L 166.265327 141.899592 
L 166.265327 153.10407 
L 167.279872 153.10407 
L 167.279872 156.570204 
L 168.294418 156.570204 
L 168.294418 159.875122 
L 169.308963 159.875122 
L 169.308963 158.666006 
L 170.323509 158.666006 
L 170.323509 156.731419 
L 171.338054 156.731419 
L 171.338054 148.106389 
L 172.352599 148.106389 
L 172.352599 146.65545 
L 173.367145 146.65545 
L 173.367145 148.186997 
L 174.38169 148.186997 
L 174.38169 141.25473 
L 175.396236 141.25473 
L 175.396236 133.838816 
L 176.410781 133.838816 
L 176.410781 137.063127 
L 177.425327 137.063127 
L 177.425327 137.627381 
L 178.439872 137.627381 
L 178.439872 141.738377 
L 179.454418 141.738377 
L 179.454418 143.914786 
L 180.468963 143.914786 
L 180.468963 148.751251 
L 181.483509 148.751251 
L 181.483509 151.572523 
L 182.498054 151.572523 
L 182.498054 153.668325 
L 183.512599 153.668325 
L 183.512599 155.119264 
L 184.527145 155.119264 
L 184.527145 156.973243 
L 185.54169 156.973243 
L 185.54169 154.232579 
L 186.556236 154.232579 
L 186.556236 157.859928 
L 187.570781 157.859928 
L 187.570781 159.472083 
L 188.585327 159.472083 
L 188.585327 161.567885 
L 189.599872 161.567885 
L 189.599872 161.406669 
L 190.614418 161.406669 
L 190.614418 159.472083 
L 191.628963 159.472083 
L 191.628963 162.373962 
L 192.643509 162.373962 
L 192.643509 163.341255 
L 193.658054 163.341255 
L 193.658054 166.484958 
L 194.672599 166.484958 
L 194.672599 167.291036 
L 195.687145 167.291036 
L 195.687145 170.192915 
L 196.70169 170.192915 
L 196.70169 171.240816 
L 197.716236 171.240816 
L 197.716236 172.933579 
L 198.730781 172.933579 
L 198.730781 176.963966 
L 199.745327 176.963966 
L 199.745327 175.271204 
L 200.759872 175.271204 
L 200.759872 179.785238 
L 202.788963 179.865846 
L 202.788963 181.961647 
L 204.818054 181.88104 
L 204.818054 185.347173 
L 205.832599 185.347173 
L 205.832599 188.652091 
L 206.847145 188.652091 
L 206.847145 186.798113 
L 207.86169 186.798113 
L 207.86169 189.296953 
L 208.876236 189.296953 
L 208.876236 188.893914 
L 209.890781 188.893914 
L 209.890781 192.360048 
L 210.905327 192.360048 
L 210.905327 195.423143 
L 211.919872 195.423143 
L 211.919872 197.68016 
L 212.934418 197.68016 
L 212.934418 198.40563 
L 213.948963 198.40563 
L 213.948963 194.939496 
L 214.963509 194.939496 
L 214.963509 195.745574 
L 215.978054 195.745574 
L 215.978054 194.778281 
L 216.992599 194.778281 
L 216.992599 193.569164 
L 218.007145 193.569164 
L 218.007145 190.586677 
L 219.02169 190.586677 
L 219.02169 191.715186 
L 220.036236 191.715186 
L 220.036236 189.05513 
L 221.050781 189.05513 
L 221.050781 187.120544 
L 222.065327 187.120544 
L 222.065327 183.976841 
L 223.079872 183.976841 
L 223.079872 186.395074 
L 224.094418 186.395074 
L 224.094418 185.750212 
L 225.108963 185.750212 
L 225.108963 189.619384 
L 226.123509 189.619384 
L 226.123509 194.294634 
L 227.138054 194.294634 
L 227.138054 193.246733 
L 228.152599 193.246733 
L 228.152599 195.664966 
L 229.167145 195.664966 
L 229.167145 194.858888 
L 230.18169 194.858888 
L 230.18169 198.083199 
L 232.210781 198.083199 
L 232.210781 197.518944 
L 233.225327 197.518944 
L 233.225327 201.468725 
L 234.239872 201.468725 
L 234.239872 202.758449 
L 235.254418 202.758449 
L 235.254418 202.194194 
L 237.283509 202.274802 
L 237.283509 204.048173 
L 238.298054 204.048173 
L 238.298054 203.242095 
L 239.312599 203.242095 
L 239.312599 205.015466 
L 240.327145 205.015466 
L 240.327145 205.499112 
L 241.34169 205.499112 
L 241.34169 206.708229 
L 242.356236 206.708229 
L 242.356236 207.272483 
L 243.370781 207.272483 
L 243.370781 207.03066 
L 244.385327 207.03066 
L 244.385327 207.594914 
L 245.399872 207.594914 
L 245.399872 207.836737 
L 246.414418 207.836737 
L 246.414418 209.610108 
L 248.443509 209.690716 
L 248.443509 210.496793 
L 249.458054 210.496793 
L 249.458054 211.302871 
L 250.472599 211.302871 
L 250.472599 210.98044 
L 251.487145 210.98044 
L 251.487145 213.559888 
L 252.50169 213.559888 
L 252.50169 213.721104 
L 253.516236 213.721104 
L 253.516236 213.237457 
L 254.530781 213.237457 
L 254.530781 213.801711 
L 255.545327 213.801711 
L 255.545327 213.076242 
L 256.559872 213.076242 
L 256.559872 212.108948 
L 257.574418 212.108948 
L 257.574418 212.75381 
L 258.588963 212.75381 
L 258.588963 210.335578 
L 259.603509 210.335578 
L 259.603509 209.690716 
L 260.618054 209.690716 
L 260.618054 206.547013 
L 261.632599 206.547013 
L 261.632599 207.75613 
L 262.647145 207.75613 
L 262.647145 207.111267 
L 263.66169 207.111267 
L 263.66169 205.418505 
L 264.676236 205.418505 
L 264.676236 206.30519 
L 265.690781 206.30519 
L 265.690781 207.917345 
L 266.705327 207.917345 
L 266.705327 206.30519 
L 267.719872 206.30519 
L 267.719872 206.869444 
L 268.734418 206.869444 
L 268.734418 208.642815 
L 269.748963 208.642815 
L 269.748963 206.627621 
L 270.763509 206.627621 
L 270.763509 208.642815 
L 271.778054 208.642815 
L 271.778054 207.917345 
L 272.792599 207.917345 
L 272.792599 209.045854 
L 273.807145 209.045854 
L 273.807145 209.448892 
L 274.82169 209.448892 
L 274.82169 210.738617 
L 275.836236 210.738617 
L 275.836236 210.174362 
L 277.865327 210.174362 
L 277.865327 210.899832 
L 278.879872 210.899832 
L 278.879872 212.028341 
L 279.894418 212.028341 
L 279.894418 212.270164 
L 281.923509 212.189556 
L 281.923509 214.285358 
L 282.938054 214.285358 
L 282.938054 213.721104 
L 283.952599 213.721104 
L 283.952599 213.318065 
L 285.98169 213.318065 
L 285.98169 214.769004 
L 286.996236 214.769004 
L 286.996236 214.607789 
L 289.025327 214.688397 
L 289.025327 215.413866 
L 290.039872 215.413866 
L 290.039872 216.300552 
L 291.054418 216.300552 
L 291.054418 215.252651 
L 293.083509 215.252651 
L 293.083509 216.622983 
L 294.098054 216.622983 
L 294.098054 217.590276 
L 295.112599 217.590276 
L 295.112599 217.187237 
L 296.127145 217.187237 
L 296.127145 216.139336 
L 298.156236 216.139336 
L 298.156236 214.93022 
L 299.170781 214.93022 
L 299.170781 215.333259 
L 300.185327 215.333259 
L 300.185327 213.882319 
L 301.199872 213.882319 
L 301.199872 213.318065 
L 302.214418 213.318065 
L 302.214418 213.640496 
L 303.228963 213.640496 
L 303.228963 210.98044 
L 304.243509 210.98044 
L 304.243509 209.771323 
L 305.258054 209.771323 
L 305.258054 208.078561 
L 307.287145 208.078561 
L 307.287145 207.675522 
L 308.30169 207.675522 
L 308.30169 207.111267 
L 309.316236 207.111267 
L 309.316236 203.967565 
L 310.330781 203.967565 
L 310.330781 203.725742 
L 311.345327 203.725742 
L 311.345327 204.531819 
L 312.359872 204.531819 
L 312.359872 203.322703 
L 313.374418 203.322703 
L 313.374418 202.839056 
L 315.403509 202.758449 
L 315.403509 204.612427 
L 316.418054 204.612427 
L 316.418054 204.773643 
L 317.432599 204.773643 
L 317.432599 205.096074 
L 318.447145 205.096074 
L 318.447145 205.499112 
L 319.46169 205.499112 
L 319.46169 205.015466 
L 321.490781 205.096074 
L 321.490781 206.385798 
L 322.505327 206.385798 
L 322.505327 205.015466 
L 323.519872 205.015466 
L 323.519872 204.531819 
L 324.534418 204.531819 
L 324.534418 205.660328 
L 325.548963 205.660328 
L 325.548963 205.257289 
L 326.563509 205.257289 
L 326.563509 207.111267 
L 327.578054 207.111267 
L 327.578054 206.869444 
L 328.592599 206.869444 
L 328.592599 207.675522 
L 329.607145 207.675522 
L 329.607145 208.078561 
L 330.62169 208.078561 
L 330.62169 206.869444 
L 331.636236 206.869444 
L 331.636236 207.917345 
L 332.650781 207.917345 
L 332.650781 209.932539 
L 333.665327 209.932539 
L 333.665327 209.126461 
L 334.679872 209.126461 
L 334.679872 210.093754 
L 335.694418 210.093754 
L 335.694418 210.819224 
L 336.708963 210.819224 
L 336.708963 209.690716 
L 337.723509 209.690716 
L 337.723509 209.932539 
L 338.738054 209.932539 
L 338.738054 212.270164 
L 339.752599 212.270164 
L 339.752599 211.141655 
L 340.767145 211.141655 
L 340.767145 211.70591 
L 342.796236 211.70591 
L 342.796236 212.350772 
L 343.810781 212.350772 
L 343.810781 213.882319 
L 344.825327 213.882319 
L 344.825327 213.559888 
L 345.839872 213.559888 
L 345.839872 212.511987 
L 346.854418 212.511987 
L 346.854418 212.995634 
L 347.868963 212.995634 
L 347.868963 215.494474 
L 348.883509 215.494474 
L 348.883509 215.65569 
L 349.898054 215.65569 
L 349.898054 216.542375 
L 350.912599 216.542375 
L 350.912599 217.348453 
L 351.927145 217.348453 
L 351.927145 217.993315 
L 352.94169 217.993315 
L 352.94169 218.315746 
L 353.956236 218.315746 
L 353.956236 218.718784 
L 354.970781 218.718784 
L 354.970781 218.88 
L 373.232599 218.88 
L 373.232599 218.88 
" clip-path="url(#p9903112869)" style="fill: none; stroke: #ff7f0e; stroke-width: 1.5; stroke-linecap: square"/>
   </g>
   <g id="patch_3">
    <path d="M 53.650781 228.96 
L 53.650781 7.2 
" style="fill: none; stroke: #000000; stroke-width: 0.8; stroke-linejoin: miter; stroke-linecap: square"/>
   </g>
   <g id="patch_4">
    <path d="M 388.450781 228.96 
L 388.450781 7.2 
" style="fill: none; stroke: #000000; stroke-width: 0.8; stroke-linejoin: miter; stroke-linecap: square"/>
   </g>
   <g id="patch_5">
    <path d="M 53.650781 228.96 
L 388.450781 228.96 
" style="fill: none; stroke: #000000; stroke-width: 0.8; stroke-linejoin: miter; stroke-linecap: square"/>
   </g>
   <g id="patch_6">
    <path d="M 53.650781 7.2 
L 388.450781 7.2 
" style="fill: none; stroke: #000000; stroke-width: 0.8; stroke-linejoin: miter; stroke-linecap: square"/>
   </g>
   <g id="legend_1">
    <g id="patch_7">
     <path d="M 284.442969 45.201562 
L 381.450781 45.201562 
Q 383.450781 45.201562 383.450781 43.201562 
L 383.450781 14.2 
Q 383.450781 12.2 381.450781 12.2 
L 284.442969 12.2 
Q 282.442969 12.2 282.442969 14.2 
L 282.442969 43.201562 
Q 282.442969 45.201562 284.442969 45.201562 
z
" style="fill: #ffffff; opacity: 0.8; stroke: #cccccc; stroke-linejoin: miter"/>
    </g>
    <g id="line2d_18">
     <path d="M 286.442969 20.298437 
L 286.442969 20.298437 
L 296.442969 20.298437 
L 296.442969 20.298437 
L 306.442969 20.298437 
" style="fill: none; stroke: #1f77b4; stroke-width: 1.5; stroke-linecap: square"/>
    </g>
    <g id="text_18">
     <!-- wfm -->
     <g transform="translate(314.442969 23.798437) scale(0.1 -0.1)">
      <defs>
       <path id="DejaVuSans-49" d="M 2375 4863 
L 2375 4384 
L 1825 4384 
Q 1516 4384 1395 4259 
Q 1275 4134 1275 3809 
L 1275 3500 
L 2222 3500 
L 2222 3053 
L 1275 3053 
L 1275 0 
L 697 0 
L 697 3053 
L 147 3053 
L 147 3500 
L 697 3500 
L 697 3744 
Q 697 4328 969 4595 
Q 1241 4863 1831 4863 
L 2375 4863 
z
" transform="scale(0.015625)"/>
       <path id="DejaVuSans-50" d="M 3328 2828 
Q 3544 3216 3844 3400 
Q 4144 3584 4550 3584 
Q 5097 3584 5394 3201 
Q 5691 2819 5691 2113 
L 5691 0 
L 5113 0 
L 5113 2094 
Q 5113 2597 4934 2840 
Q 4756 3084 4391 3084 
Q 3944 3084 3684 2787 
Q 3425 2491 3425 1978 
L 3425 0 
L 2847 0 
L 2847 2094 
Q 2847 2600 2669 2842 
Q 2491 3084 2119 3084 
Q 1678 3084 1418 2786 
Q 1159 2488 1159 1978 
L 1159 0 
L 581 0 
L 581 3500 
L 1159 3500 
L 1159 2956 
Q 1356 3278 1631 3431 
Q 1906 3584 2284 3584 
Q 2666 3584 2933 3390 
Q 3200 3197 3328 2828 
z
" transform="scale(0.015625)"/>
      </defs>
      <use xlink:href="#DejaVuSans-5a"/>
      <use xlink:href="#DejaVuSans-49" transform="translate(81.78125 0)"/>
      <use xlink:href="#DejaVuSans-50" transform="translate(116.984375 0)"/>
     </g>
    </g>
    <g id="line2d_19">
     <path d="M 286.442969 35.299219 
L 286.442969 35.299219 
L 296.442969 35.299219 
L 296.442969 35.299219 
L 306.442969 35.299219 
" style="fill: none; stroke: #ff7f0e; stroke-width: 1.5; stroke-linecap: square"/>
    </g>
    <g id="text_19">
     <!-- ground_truth -->
     <g transform="translate(314.442969 38.799219) scale(0.1 -0.1)">
      <defs>
       <path id="DejaVuSans-55" d="M 2631 2963 
Q 2534 3019 2420 3045 
Q 2306 3072 2169 3072 
Q 1681 3072 1420 2755 
Q 1159 2438 1159 1844 
L 1159 0 
L 581 0 
L 581 3500 
L 1159 3500 
L 1159 2956 
Q 1341 3275 1631 3429 
Q 1922 3584 2338 3584 
Q 2397 3584 2469 3576 
Q 2541 3569 2628 3553 
L 2631 2963 
z
" transform="scale(0.015625)"/>
       <path id="DejaVuSans-47" d="M 2906 2969 
L 2906 4863 
L 3481 4863 
L 3481 0 
L 2906 0 
L 2906 525 
Q 2725 213 2448 61 
Q 2172 -91 1784 -91 
Q 1150 -91 751 415 
Q 353 922 353 1747 
Q 353 2572 751 3078 
Q 1150 3584 1784 3584 
Q 2172 3584 2448 3432 
Q 2725 3281 2906 2969 
z
M 947 1747 
Q 947 1113 1208 752 
Q 1469 391 1925 391 
Q 2381 391 2643 752 
Q 2906 1113 2906 1747 
Q 2906 2381 2643 2742 
Q 2381 3103 1925 3103 
Q 1469 3103 1208 2742 
Q 947 2381 947 1747 
z
" transform="scale(0.015625)"/>
       <path id="DejaVuSans-42" d="M 3263 -1063 
L 3263 -1509 
L -63 -1509 
L -63 -1063 
L 3263 -1063 
z
" transform="scale(0.015625)"/>
      </defs>
      <use xlink:href="#DejaVuSans-4a"/>
      <use xlink:href="#DejaVuSans-55" transform="translate(63.484375 0)"/>
      <use xlink:href="#DejaVuSans-52" transform="translate(102.390625 0)"/>
      <use xlink:href="#DejaVuSans-58" transform="translate(163.578125 0)"/>
      <use xlink:href="#DejaVuSans-51" transform="translate(226.953125 0)"/>
      <use xlink:href="#DejaVuSans-47" transform="translate(290.328125 0)"/>
      <use xlink:href="#DejaVuSans-42" transform="translate(353.8125 0)"/>
      <use xlink:href="#DejaVuSans-57" transform="translate(403.8125 0)"/>
      <use xlink:href="#DejaVuSans-55" transform="translate(443.015625 0)"/>
      <use xlink:href="#DejaVuSans-58" transform="translate(484.125 0)"/>
      <use xlink:href="#DejaVuSans-57" transform="translate(547.5 0)"/>
      <use xlink:href="#DejaVuSans-4b" transform="translate(586.703125 0)"/>
     </g>
    </g>
   </g>
  </g>
 </g>
 <defs>
  <clipPath id="p9903112869">
   <rect x="53.650781" y="7.2" width="334.8" height="221.76"/>
  </clipPath>
 </defs>
</svg>
