<?xml version="1.0" encoding="utf-8" standalone="no"?>
<!DOCTYPE svg PUBLIC "-//W3C//DTD SVG 1.1//EN"
  "http://www.w3.org/Graphics/SVG/1.1/DTD/svg11.dtd">
<svg xmlns:xlink="http://www.w3.org/1999/xlink" width="872.39952pt" height="296.396992pt" viewBox="0 0 872.39952 296.396992" xmlns="http://www.w3.org/2000/svg" version="1.1">
 <metadata>
  <rdf:RDF xmlns:dc="http://purl.org/dc/elements/1.1/" xmlns:cc="http://creativecommons.org/ns#" xmlns:rdf="http://www.w3.org/1999/02/22-rdf-syntax-ns#">
   <cc:Work>
    <dc:type rdf:resource="http://purl.org/dc/dcmitype/StillImage"/>
    <dc:date>2026-06-30T14:34:09.774470</dc:date>
    <dc:format>image/svg+xml</dc:format>
    <dc:creator>
     <cc:Agent>
      <dc:title>Matplotlib v3.11.0, https://matplotlib.org/</dc:title>
     </cc:Agent>
    </dc:creator>
   </cc:Work>
  </rdf:RDF>
 </metadata>
 <defs>
  <style type="text/css">*{stroke-linejoin: round; stroke-linecap: butt}</style>
 </defs>
 <g id="figure_1">
  <g id="patch_1">
   <path d="M 0 296.396992 
L 872.39952 296.396992 
L 872.39952 0 
L 0 0 
z
" style="fill: #ffffff"/>
  </g>
  <g id="axes_1">
   <g id="patch_2">
    <path d="M 53.650781 256.511835 
L 425.39976 256.511835 
L 425.39976 8.550999 
L 53.650781 8.550999 
z
" style="fill: #ffffff"/>
   </g>
   <g id="matplotlib.axis_1">
    <g id="xtick_1">
     <g id="line2d_1">
      <defs>
       <path id="mee15f8cbb6" d="M 0 0 
L 0 3.5 
" style="stroke: #000000; stroke-width: 0.8"/>
      </defs>
      <g>
       <use xlink:href="#mee15f8cbb6" x="70.534745" y="256.511835" style="stroke: #000000; stroke-width: 0.8"/>
      </g>
     </g>
     <g id="text_1">
      <!-- 0 -->
      <g transform="translate(67.353495 271.109492) scale(0.1 -0.1)">
       <defs>
        <path id="DejaVuSans-13" d="M 2034 4250 
Q 1547 4250 1301 3770 
Q 1056 3291 1056 2328 
Q 1056 1369 1301 889 
Q 1547 409 2034 409 
Q 2525 409 2770 889 
Q 3016 1369 3016 2328 
Q 3016 3291 2770 3770 
Q 2525 4250 2034 4250 
z
M 2034 4750 
Q 2819 4750 3233 4129 
Q 3647 3509 3647 2328 
Q 3647 1150 3233 529 
Q 2819 -91 2034 -91 
Q 1250 -91 836 529 
Q 422 1150 422 2328 
Q 422 3509 836 4129 
Q 1250 4750 2034 4750 
z
" transform="scale(0.015625)"/>
       </defs>
       <use xlink:href="#DejaVuSans-13"/>
      </g>
     </g>
    </g>
    <g id="xtick_2">
     <g id="line2d_2">
      <g>
       <use xlink:href="#mee15f8cbb6" x="127.247344" y="256.511835" style="stroke: #000000; stroke-width: 0.8"/>
      </g>
     </g>
     <g id="text_2">
      <!-- 1000 -->
      <g transform="translate(114.522344 271.109492) scale(0.1 -0.1)">
       <defs>
        <path id="DejaVuSans-14" d="M 794 531 
L 1825 531 
L 1825 4091 
L 703 3866 
L 703 4441 
L 1819 4666 
L 2450 4666 
L 2450 531 
L 3481 531 
L 3481 0 
L 794 0 
L 794 531 
z
" transform="scale(0.015625)"/>
       </defs>
       <use xlink:href="#DejaVuSans-14"/>
       <use xlink:href="#DejaVuSans-13" transform="translate(63.625 0)"/>
       <use xlink:href="#DejaVuSans-13" transform="translate(127.25 0)"/>
       <use xlink:href="#DejaVuSans-13" transform="translate(190.875 0)"/>
      </g>
     </g>
    </g>
    <g id="xtick_3">
     <g id="line2d_3">
      <g>
       <use xlink:href="#mee15f8cbb6" x="183.959943" y="256.511835" style="stroke: #000000; stroke-width: 0.8"/>
      </g>
     </g>
     <g id="text_3">
      <!-- 2000 -->
      <g transform="translate(171.234943 271.109492) scale(0.1 -0.1)">
       <defs>
        <path id="DejaVuSans-15" d="M 1228 531 
L 3431 531 
L 3431 0 
L 469 0 
L 469 531 
Q 828 903 1448 1529 
Q 2069 2156 2228 2338 
Q 2531 2678 2651 2914 
Q 2772 3150 2772 3378 
Q 2772 3750 2511 3984 
Q 2250 4219 1831 4219 
Q 1534 4219 1204 4116 
Q 875 4013 500 3803 
L 500 4441 
Q 881 4594 1212 4672 
Q 1544 4750 1819 4750 
Q 2544 4750 2975 4387 
Q 3406 4025 3406 3419 
Q 3406 3131 3298 2873 
Q 3191 2616 2906 2266 
Q 2828 2175 2409 1742 
Q 1991 1309 1228 531 
z
" transform="scale(0.015625)"/>
       </defs>
       <use xlink:href="#DejaVuSans-15"/>
       <use xlink:href="#DejaVuSans-13" transform="translate(63.625 0)"/>
       <use xlink:href="#DejaVuSans-13" transform="translate(127.25 0)"/>
       <use xlink:href="#DejaVuSans-13" transform="translate(190.875 0)"/>
      </g>
     </g>
    </g>
    <g id="xtick_4">
     <g id="line2d_4">
      <g>
       <use xlink:href="#mee15f8cbb6" x="240.672542" y="256.511835" style="stroke: #000000; stroke-width: 0.8"/>
      </g>
     </g>
     <g id="text_4">
      <!-- 3000 -->
      <g transform="translate(227.947542 271.109492) scale(0.1 -0.1)">
       <defs>
        <path id="DejaVuSans-16" d="M 2597 2516 
Q 3050 2419 3304 2112 
Q 3559 1806 3559 1356 
Q 3559 666 3084 287 
Q 2609 -91 1734 -91 
Q 1441 -91 1130 -33 
Q 819 25 488 141 
L 488 750 
Q 750 597 1062 519 
Q 1375 441 1716 441 
Q 2309 441 2620 675 
Q 2931 909 2931 1356 
Q 2931 1769 2642 2001 
Q 2353 2234 1838 2234 
L 1294 2234 
L 1294 2753 
L 1863 2753 
Q 2328 2753 2575 2939 
Q 2822 3125 2822 3475 
Q 2822 3834 2567 4026 
Q 2313 4219 1838 4219 
Q 1578 4219 1281 4162 
Q 984 4106 628 3988 
L 628 4550 
Q 988 4650 1302 4700 
Q 1616 4750 1894 4750 
Q 2613 4750 3031 4423 
Q 3450 4097 3450 3541 
Q 3450 3153 3228 2886 
Q 3006 2619 2597 2516 
z
" transform="scale(0.015625)"/>
       </defs>
       <use xlink:href="#DejaVuSans-16"/>
       <use xlink:href="#DejaVuSans-13" transform="translate(63.625 0)"/>
       <use xlink:href="#DejaVuSans-13" transform="translate(127.25 0)"/>
       <use xlink:href="#DejaVuSans-13" transform="translate(190.875 0)"/>
      </g>
     </g>
    </g>
    <g id="xtick_5">
     <g id="line2d_5">
      <g>
       <use xlink:href="#mee15f8cbb6" x="297.385141" y="256.511835" style="stroke: #000000; stroke-width: 0.8"/>
      </g>
     </g>
     <g id="text_5">
      <!-- 4000 -->
      <g transform="translate(284.660141 271.109492) scale(0.1 -0.1)">
       <defs>
        <path id="DejaVuSans-17" d="M 2419 4116 
L 825 1625 
L 2419 1625 
L 2419 4116 
z
M 2253 4666 
L 3047 4666 
L 3047 1625 
L 3713 1625 
L 3713 1100 
L 3047 1100 
L 3047 0 
L 2419 0 
L 2419 1100 
L 313 1100 
L 313 1709 
L 2253 4666 
z
" transform="scale(0.015625)"/>
       </defs>
       <use xlink:href="#DejaVuSans-17"/>
       <use xlink:href="#DejaVuSans-13" transform="translate(63.625 0)"/>
       <use xlink:href="#DejaVuSans-13" transform="translate(127.25 0)"/>
       <use xlink:href="#DejaVuSans-13" transform="translate(190.875 0)"/>
      </g>
     </g>
    </g>
    <g id="xtick_6">
     <g id="line2d_6">
      <g>
       <use xlink:href="#mee15f8cbb6" x="354.09774" y="256.511835" style="stroke: #000000; stroke-width: 0.8"/>
      </g>
     </g>
     <g id="text_6">
      <!-- 5000 -->
      <g transform="translate(341.37274 271.109492) scale(0.1 -0.1)">
       <defs>
        <path id="DejaVuSans-18" d="M 691 4666 
L 3169 4666 
L 3169 4134 
L 1269 4134 
L 1269 2991 
Q 1406 3038 1543 3061 
Q 1681 3084 1819 3084 
Q 2600 3084 3056 2656 
Q 3513 2228 3513 1497 
Q 3513 744 3044 326 
Q 2575 -91 1722 -91 
Q 1428 -91 1123 -41 
Q 819 9 494 109 
L 494 744 
Q 775 591 1075 516 
Q 1375 441 1709 441 
Q 2250 441 2565 725 
Q 2881 1009 2881 1497 
Q 2881 1984 2565 2268 
Q 2250 2553 1709 2553 
Q 1456 2553 1204 2497 
Q 953 2441 691 2322 
L 691 4666 
z
" transform="scale(0.015625)"/>
       </defs>
       <use xlink:href="#DejaVuSans-18"/>
       <use xlink:href="#DejaVuSans-13" transform="translate(63.625 0)"/>
       <use xlink:href="#DejaVuSans-13" transform="translate(127.25 0)"/>
       <use xlink:href="#DejaVuSans-13" transform="translate(190.875 0)"/>
      </g>
     </g>
    </g>
    <g id="xtick_7">
     <g id="line2d_7">
      <g>
       <use xlink:href="#mee15f8cbb6" x="410.810339" y="256.511835" style="stroke: #000000; stroke-width: 0.8"/>
      </g>
     </g>
     <g id="text_7">
      <!-- 6000 -->
      <g transform="translate(398.085339 271.109492) scale(0.1 -0.1)">
       <defs>
        <path id="DejaVuSans-19" d="M 2113 2584 
Q 1688 2584 1439 2293 
Q 1191 2003 1191 1497 
Q 1191 994 1439 701 
Q 1688 409 2113 409 
Q 2538 409 2786 701 
Q 3034 994 3034 1497 
Q 3034 2003 2786 2293 
Q 2538 2584 2113 2584 
z
M 3366 4563 
L 3366 3988 
Q 3128 4100 2886 4159 
Q 2644 4219 2406 4219 
Q 1781 4219 1451 3797 
Q 1122 3375 1075 2522 
Q 1259 2794 1537 2939 
Q 1816 3084 2150 3084 
Q 2853 3084 3261 2657 
Q 3669 2231 3669 1497 
Q 3669 778 3244 343 
Q 2819 -91 2113 -91 
Q 1303 -91 875 529 
Q 447 1150 447 2328 
Q 447 3434 972 4092 
Q 1497 4750 2381 4750 
Q 2619 4750 2861 4703 
Q 3103 4656 3366 4563 
z
" transform="scale(0.015625)"/>
       </defs>
       <use xlink:href="#DejaVuSans-19"/>
       <use xlink:href="#DejaVuSans-13" transform="translate(63.625 0)"/>
       <use xlink:href="#DejaVuSans-13" transform="translate(127.25 0)"/>
       <use xlink:href="#DejaVuSans-13" transform="translate(190.875 0)"/>
      </g>
     </g>
    </g>
    <g id="text_8">
     <!-- birth_time [µs] -->
     <g transform="translate(202.704958 285.110273) scale(0.1 -0.1)">
      <defs>
       <path id="DejaVuSans-45" d="M 3116 1747 
Q 3116 2381 2855 2742 
Q 2594 3103 2138 3103 
Q 1681 3103 1420 2742 
Q 1159 2381 1159 1747 
Q 1159 1113 1420 752 
Q 1681 391 2138 391 
Q 2594 391 2855 752 
Q 3116 1113 3116 1747 
z
M 1159 2969 
Q 1341 3281 1617 3432 
Q 1894 3584 2278 3584 
Q 2916 3584 3314 3078 
Q 3713 2572 3713 1747 
Q 3713 922 3314 415 
Q 2916 -91 2278 -91 
Q 1894 -91 1617 61 
Q 1341 213 1159 525 
L 1159 0 
L 581 0 
L 581 4863 
L 1159 4863 
L 1159 2969 
z
" transform="scale(0.015625)"/>
       <path id="DejaVuSans-4c" d="M 603 3500 
L 1178 3500 
L 1178 0 
L 603 0 
L 603 3500 
z
M 603 4863 
L 1178 4863 
L 1178 4134 
L 603 4134 
L 603 4863 
z
" transform="scale(0.015625)"/>
       <path id="DejaVuSans-55" d="M 2631 2963 
Q 2534 3019 2420 3045 
Q 2306 3072 2169 3072 
Q 1681 3072 1420 2755 
Q 1159 2438 1159 1844 
L 1159 0 
L 581 0 
L 581 3500 
L 1159 3500 
L 1159 2956 
Q 1341 3275 1631 3429 
Q 1922 3584 2338 3584 
Q 2397 3584 2469 3576 
Q 2541 3569 2628 3553 
L 2631 2963 
z
" transform="scale(0.015625)"/>
       <path id="DejaVuSans-57" d="M 1172 4494 
L 1172 3500 
L 2356 3500 
L 2356 3053 
L 1172 3053 
L 1172 1153 
Q 1172 725 1289 603 
Q 1406 481 1766 481 
L 2356 481 
L 2356 0 
L 1766 0 
Q 1100 0 847 248 
Q 594 497 594 1153 
L 594 3053 
L 172 3053 
L 172 3500 
L 594 3500 
L 594 4494 
L 1172 4494 
z
" transform="scale(0.015625)"/>
       <path id="DejaVuSans-4b" d="M 3513 2113 
L 3513 0 
L 2938 0 
L 2938 2094 
Q 2938 2591 2744 2837 
Q 2550 3084 2163 3084 
Q 1697 3084 1428 2787 
Q 1159 2491 1159 1978 
L 1159 0 
L 581 0 
L 581 4863 
L 1159 4863 
L 1159 2956 
Q 1366 3272 1645 3428 
Q 1925 3584 2291 3584 
Q 2894 3584 3203 3211 
Q 3513 2838 3513 2113 
z
" transform="scale(0.015625)"/>
       <path id="DejaVuSans-42" d="M 3263 -1063 
L 3263 -1509 
L -63 -1509 
L -63 -1063 
L 3263 -1063 
z
" transform="scale(0.015625)"/>
       <path id="DejaVuSans-50" d="M 3328 2828 
Q 3544 3216 3844 3400 
Q 4144 3584 4550 3584 
Q 5097 3584 5394 3201 
Q 5691 2819 5691 2113 
L 5691 0 
L 5113 0 
L 5113 2094 
Q 5113 2597 4934 2840 
Q 4756 3084 4391 3084 
Q 3944 3084 3684 2787 
Q 3425 2491 3425 1978 
L 3425 0 
L 2847 0 
L 2847 2094 
Q 2847 2600 2669 2842 
Q 2491 3084 2119 3084 
Q 1678 3084 1418 2786 
Q 1159 2488 1159 1978 
L 1159 0 
L 581 0 
L 581 3500 
L 1159 3500 
L 1159 2956 
Q 1356 3278 1631 3431 
Q 1906 3584 2284 3584 
Q 2666 3584 2933 3390 
Q 3200 3197 3328 2828 
z
" transform="scale(0.015625)"/>
       <path id="DejaVuSans-48" d="M 3597 1894 
L 3597 1613 
L 953 1613 
Q 991 1019 1311 708 
Q 1631 397 2203 397 
Q 2534 397 2845 478 
Q 3156 559 3463 722 
L 3463 178 
Q 3153 47 2828 -22 
Q 2503 -91 2169 -91 
Q 1331 -91 842 396 
Q 353 884 353 1716 
Q 353 2575 817 3079 
Q 1281 3584 2069 3584 
Q 2775 3584 3186 3129 
Q 3597 2675 3597 1894 
z
M 3022 2063 
Q 3016 2534 2758 2815 
Q 2500 3097 2075 3097 
Q 1594 3097 1305 2825 
Q 1016 2553 972 2059 
L 3022 2063 
z
" transform="scale(0.015625)"/>
       <path id="DejaVuSans-3" transform="scale(0.015625)"/>
       <path id="DejaVuSans-3e" d="M 550 4863 
L 1875 4863 
L 1875 4416 
L 1125 4416 
L 1125 -397 
L 1875 -397 
L 1875 -844 
L 550 -844 
L 550 4863 
z
" transform="scale(0.015625)"/>
       <path id="DejaVuSans-77" d="M 544 -1331 
L 544 3500 
L 1119 3500 
L 1119 1325 
Q 1119 872 1334 640 
Q 1550 409 1972 409 
Q 2434 409 2667 671 
Q 2900 934 2900 1459 
L 2900 3500 
L 3475 3500 
L 3475 806 
Q 3475 619 3529 530 
Q 3584 441 3700 441 
Q 3728 441 3778 458 
Q 3828 475 3916 513 
L 3916 50 
Q 3788 -22 3673 -56 
Q 3559 -91 3450 -91 
Q 3234 -91 3106 31 
Q 2978 153 2931 403 
Q 2775 156 2548 32 
Q 2322 -91 2016 -91 
Q 1697 -91 1473 31 
Q 1250 153 1119 397 
L 1119 -1331 
L 544 -1331 
z
" transform="scale(0.015625)"/>
       <path id="DejaVuSans-56" d="M 2834 3397 
L 2834 2853 
Q 2591 2978 2328 3040 
Q 2066 3103 1784 3103 
Q 1356 3103 1142 2972 
Q 928 2841 928 2578 
Q 928 2378 1081 2264 
Q 1234 2150 1697 2047 
L 1894 2003 
Q 2506 1872 2764 1633 
Q 3022 1394 3022 966 
Q 3022 478 2636 193 
Q 2250 -91 1575 -91 
Q 1294 -91 989 -36 
Q 684 19 347 128 
L 347 722 
Q 666 556 975 473 
Q 1284 391 1588 391 
Q 1994 391 2212 530 
Q 2431 669 2431 922 
Q 2431 1156 2273 1281 
Q 2116 1406 1581 1522 
L 1381 1569 
Q 847 1681 609 1914 
Q 372 2147 372 2553 
Q 372 3047 722 3315 
Q 1072 3584 1716 3584 
Q 2034 3584 2315 3537 
Q 2597 3491 2834 3397 
z
" transform="scale(0.015625)"/>
       <path id="DejaVuSans-40" d="M 1947 4863 
L 1947 -844 
L 622 -844 
L 622 -397 
L 1369 -397 
L 1369 4416 
L 622 4416 
L 622 4863 
L 1947 4863 
z
" transform="scale(0.015625)"/>
      </defs>
      <use xlink:href="#DejaVuSans-45"/>
      <use xlink:href="#DejaVuSans-4c" transform="translate(63.484375 0)"/>
      <use xlink:href="#DejaVuSans-55" transform="translate(91.265625 0)"/>
      <use xlink:href="#DejaVuSans-57" transform="translate(132.375 0)"/>
      <use xlink:href="#DejaVuSans-4b" transform="translate(171.578125 0)"/>
      <use xlink:href="#DejaVuSans-42" transform="translate(234.953125 0)"/>
      <use xlink:href="#DejaVuSans-57" transform="translate(284.953125 0)"/>
      <use xlink:href="#DejaVuSans-4c" transform="translate(324.15625 0)"/>
      <use xlink:href="#DejaVuSans-50" transform="translate(351.9375 0)"/>
      <use xlink:href="#DejaVuSans-48" transform="translate(449.34375 0)"/>
      <use xlink:href="#DejaVuSans-3" transform="translate(510.875 0)"/>
      <use xlink:href="#DejaVuSans-3e" transform="translate(542.65625 0)"/>
      <use xlink:href="#DejaVuSans-77" transform="translate(581.671875 0)"/>
      <use xlink:href="#DejaVuSans-56" transform="translate(645.296875 0)"/>
      <use xlink:href="#DejaVuSans-40" transform="translate(697.390625 0)"/>
     </g>
    </g>
   </g>
   <g id="matplotlib.axis_2">
    <g id="ytick_1">
     <g id="line2d_8">
      <defs>
       <path id="m7f0cf4a801" d="M 0 0 
L -3.5 0 
" style="stroke: #000000; stroke-width: 0.8"/>
      </defs>
      <g>
       <use xlink:href="#m7f0cf4a801" x="53.650781" y="245.240888" style="stroke: #000000; stroke-width: 0.8"/>
      </g>
     </g>
     <g id="text_9">
      <!-- 0 -->
      <g transform="translate(40.288281 249.039716) scale(0.1 -0.1)">
       <use xlink:href="#DejaVuSans-13"/>
      </g>
     </g>
    </g>
    <g id="ytick_2">
     <g id="line2d_9">
      <g>
       <use xlink:href="#m7f0cf4a801" x="53.650781" y="214.942643" style="stroke: #000000; stroke-width: 0.8"/>
      </g>
     </g>
     <g id="text_10">
      <!-- 200 -->
      <g transform="translate(27.563281 218.741471) scale(0.1 -0.1)">
       <use xlink:href="#DejaVuSans-15"/>
       <use xlink:href="#DejaVuSans-13" transform="translate(63.625 0)"/>
       <use xlink:href="#DejaVuSans-13" transform="translate(127.25 0)"/>
      </g>
     </g>
    </g>
    <g id="ytick_3">
     <g id="line2d_10">
      <g>
       <use xlink:href="#m7f0cf4a801" x="53.650781" y="184.644398" style="stroke: #000000; stroke-width: 0.8"/>
      </g>
     </g>
     <g id="text_11">
      <!-- 400 -->
      <g transform="translate(27.563281 188.443226) scale(0.1 -0.1)">
       <use xlink:href="#DejaVuSans-17"/>
       <use xlink:href="#DejaVuSans-13" transform="translate(63.625 0)"/>
       <use xlink:href="#DejaVuSans-13" transform="translate(127.25 0)"/>
      </g>
     </g>
    </g>
    <g id="ytick_4">
     <g id="line2d_11">
      <g>
       <use xlink:href="#m7f0cf4a801" x="53.650781" y="154.346153" style="stroke: #000000; stroke-width: 0.8"/>
      </g>
     </g>
     <g id="text_12">
      <!-- 600 -->
      <g transform="translate(27.563281 158.144981) scale(0.1 -0.1)">
       <use xlink:href="#DejaVuSans-19"/>
       <use xlink:href="#DejaVuSans-13" transform="translate(63.625 0)"/>
       <use xlink:href="#DejaVuSans-13" transform="translate(127.25 0)"/>
      </g>
     </g>
    </g>
    <g id="ytick_5">
     <g id="line2d_12">
      <g>
       <use xlink:href="#m7f0cf4a801" x="53.650781" y="124.047908" style="stroke: #000000; stroke-width: 0.8"/>
      </g>
     </g>
     <g id="text_13">
      <!-- 800 -->
      <g transform="translate(27.563281 127.846737) scale(0.1 -0.1)">
       <defs>
        <path id="DejaVuSans-1b" d="M 2034 2216 
Q 1584 2216 1326 1975 
Q 1069 1734 1069 1313 
Q 1069 891 1326 650 
Q 1584 409 2034 409 
Q 2484 409 2743 651 
Q 3003 894 3003 1313 
Q 3003 1734 2745 1975 
Q 2488 2216 2034 2216 
z
M 1403 2484 
Q 997 2584 770 2862 
Q 544 3141 544 3541 
Q 544 4100 942 4425 
Q 1341 4750 2034 4750 
Q 2731 4750 3128 4425 
Q 3525 4100 3525 3541 
Q 3525 3141 3298 2862 
Q 3072 2584 2669 2484 
Q 3125 2378 3379 2068 
Q 3634 1759 3634 1313 
Q 3634 634 3220 271 
Q 2806 -91 2034 -91 
Q 1263 -91 848 271 
Q 434 634 434 1313 
Q 434 1759 690 2068 
Q 947 2378 1403 2484 
z
M 1172 3481 
Q 1172 3119 1398 2916 
Q 1625 2713 2034 2713 
Q 2441 2713 2670 2916 
Q 2900 3119 2900 3481 
Q 2900 3844 2670 4047 
Q 2441 4250 2034 4250 
Q 1625 4250 1398 4047 
Q 1172 3844 1172 3481 
z
" transform="scale(0.015625)"/>
       </defs>
       <use xlink:href="#DejaVuSans-1b"/>
       <use xlink:href="#DejaVuSans-13" transform="translate(63.625 0)"/>
       <use xlink:href="#DejaVuSans-13" transform="translate(127.25 0)"/>
      </g>
     </g>
    </g>
    <g id="ytick_6">
     <g id="line2d_13">
      <g>
       <use xlink:href="#m7f0cf4a801" x="53.650781" y="93.749663" style="stroke: #000000; stroke-width: 0.8"/>
      </g>
     </g>
     <g id="text_14">
      <!-- 1000 -->
      <g transform="translate(21.200781 97.548492) scale(0.1 -0.1)">
       <use xlink:href="#DejaVuSans-14"/>
       <use xlink:href="#DejaVuSans-13" transform="translate(63.625 0)"/>
       <use xlink:href="#DejaVuSans-13" transform="translate(127.25 0)"/>
       <use xlink:href="#DejaVuSans-13" transform="translate(190.875 0)"/>
      </g>
     </g>
    </g>
    <g id="ytick_7">
     <g id="line2d_14">
      <g>
       <use xlink:href="#m7f0cf4a801" x="53.650781" y="63.451418" style="stroke: #000000; stroke-width: 0.8"/>
      </g>
     </g>
     <g id="text_15">
      <!-- 1200 -->
      <g transform="translate(21.200781 67.250247) scale(0.1 -0.1)">
       <use xlink:href="#DejaVuSans-14"/>
       <use xlink:href="#DejaVuSans-15" transform="translate(63.625 0)"/>
       <use xlink:href="#DejaVuSans-13" transform="translate(127.25 0)"/>
       <use xlink:href="#DejaVuSans-13" transform="translate(190.875 0)"/>
      </g>
     </g>
    </g>
    <g id="ytick_8">
     <g id="line2d_15">
      <g>
       <use xlink:href="#m7f0cf4a801" x="53.650781" y="33.153174" style="stroke: #000000; stroke-width: 0.8"/>
      </g>
     </g>
     <g id="text_16">
      <!-- 1400 -->
      <g transform="translate(21.200781 36.952002) scale(0.1 -0.1)">
       <use xlink:href="#DejaVuSans-14"/>
       <use xlink:href="#DejaVuSans-17" transform="translate(63.625 0)"/>
       <use xlink:href="#DejaVuSans-13" transform="translate(127.25 0)"/>
       <use xlink:href="#DejaVuSans-13" transform="translate(190.875 0)"/>
      </g>
     </g>
    </g>
    <g id="text_17">
     <!-- [counts] -->
     <g transform="translate(14.798438 153.143917) rotate(-90) scale(0.1 -0.1)">
      <defs>
       <path id="DejaVuSans-46" d="M 3122 3366 
L 3122 2828 
Q 2878 2963 2633 3030 
Q 2388 3097 2138 3097 
Q 1578 3097 1268 2742 
Q 959 2388 959 1747 
Q 959 1106 1268 751 
Q 1578 397 2138 397 
Q 2388 397 2633 464 
Q 2878 531 3122 666 
L 3122 134 
Q 2881 22 2623 -34 
Q 2366 -91 2075 -91 
Q 1284 -91 818 406 
Q 353 903 353 1747 
Q 353 2603 823 3093 
Q 1294 3584 2113 3584 
Q 2378 3584 2631 3529 
Q 2884 3475 3122 3366 
z
" transform="scale(0.015625)"/>
       <path id="DejaVuSans-52" d="M 1959 3097 
Q 1497 3097 1228 2736 
Q 959 2375 959 1747 
Q 959 1119 1226 758 
Q 1494 397 1959 397 
Q 2419 397 2687 759 
Q 2956 1122 2956 1747 
Q 2956 2369 2687 2733 
Q 2419 3097 1959 3097 
z
M 1959 3584 
Q 2709 3584 3137 3096 
Q 3566 2609 3566 1747 
Q 3566 888 3137 398 
Q 2709 -91 1959 -91 
Q 1206 -91 779 398 
Q 353 888 353 1747 
Q 353 2609 779 3096 
Q 1206 3584 1959 3584 
z
" transform="scale(0.015625)"/>
       <path id="DejaVuSans-58" d="M 544 1381 
L 544 3500 
L 1119 3500 
L 1119 1403 
Q 1119 906 1312 657 
Q 1506 409 1894 409 
Q 2359 409 2629 706 
Q 2900 1003 2900 1516 
L 2900 3500 
L 3475 3500 
L 3475 0 
L 2900 0 
L 2900 538 
Q 2691 219 2414 64 
Q 2138 -91 1772 -91 
Q 1169 -91 856 284 
Q 544 659 544 1381 
z
M 1991 3584 
L 1991 3584 
z
" transform="scale(0.015625)"/>
       <path id="DejaVuSans-51" d="M 3513 2113 
L 3513 0 
L 2938 0 
L 2938 2094 
Q 2938 2591 2744 2837 
Q 2550 3084 2163 3084 
Q 1697 3084 1428 2787 
Q 1159 2491 1159 1978 
L 1159 0 
L 581 0 
L 581 3500 
L 1159 3500 
L 1159 2956 
Q 1366 3272 1645 3428 
Q 1925 3584 2291 3584 
Q 2894 3584 3203 3211 
Q 3513 2838 3513 2113 
z
" transform="scale(0.015625)"/>
      </defs>
      <use xlink:href="#DejaVuSans-3e"/>
      <use xlink:href="#DejaVuSans-46" transform="translate(39.015625 0)"/>
      <use xlink:href="#DejaVuSans-52" transform="translate(94 0)"/>
      <use xlink:href="#DejaVuSans-58" transform="translate(155.1875 0)"/>
      <use xlink:href="#DejaVuSans-51" transform="translate(218.5625 0)"/>
      <use xlink:href="#DejaVuSans-57" transform="translate(281.9375 0)"/>
      <use xlink:href="#DejaVuSans-56" transform="translate(321.140625 0)"/>
      <use xlink:href="#DejaVuSans-40" transform="translate(373.234375 0)"/>
     </g>
    </g>
   </g>
   <g id="line2d_16">
    <path d="M 70.548462 228.879836 
L 71.674974 228.879836 
L 71.674974 217.820977 
L 72.801486 217.820977 
L 72.801486 206.762117 
L 73.927998 206.762117 
L 73.927998 199.036065 
L 75.05451 199.036065 
L 75.05451 189.189135 
L 76.181022 189.189135 
L 76.181022 173.73703 
L 77.307534 173.73703 
L 77.307534 170.101241 
L 78.434047 170.101241 
L 78.434047 154.952118 
L 79.560559 154.952118 
L 79.560559 159.042381 
L 80.687071 159.042381 
L 80.687071 140.560452 
L 81.813583 140.560452 
L 81.813583 138.591066 
L 82.940095 138.591066 
L 82.940095 131.470978 
L 84.066607 131.470978 
L 84.066607 120.866593 
L 85.193119 120.866593 
L 85.193119 118.139751 
L 86.319631 118.139751 
L 86.319631 117.079312 
L 87.446143 117.079312 
L 87.446143 99.203348 
L 88.572655 99.203348 
L 88.572655 104.354049 
L 89.699167 104.354049 
L 89.699167 100.869751 
L 90.825679 100.869751 
L 90.825679 96.476505 
L 91.952191 96.476505 
L 91.952191 89.204927 
L 93.078703 89.204927 
L 93.078703 88.750453 
L 94.205215 88.750453 
L 94.205215 78.44905 
L 95.331727 78.44905 
L 95.331727 76.479664 
L 96.458239 76.479664 
L 96.458239 77.388611 
L 97.584751 77.388611 
L 97.584751 67.541682 
L 98.711264 67.541682 
L 98.711264 72.540892 
L 99.837776 72.540892 
L 99.837776 64.966331 
L 100.964288 64.966331 
L 100.964288 69.208085 
L 102.0908 69.208085 
L 102.0908 60.724576 
L 103.217312 60.724576 
L 103.217312 60.270103 
L 104.343824 60.270103 
L 104.343824 62.087997 
L 105.470336 62.087997 
L 105.470336 65.269313 
L 106.596848 65.269313 
L 106.596848 55.270892 
L 107.72336 55.270892 
L 107.72336 63.60291 
L 108.849872 63.60291 
L 108.849872 55.119401 
L 109.976384 55.119401 
L 109.976384 52.54405 
L 111.102896 52.54405 
L 111.102896 50.423173 
L 112.229408 50.423173 
L 112.229408 36.637472 
L 113.35592 36.637472 
L 113.35592 52.847033 
L 114.482432 52.847033 
L 114.482432 50.423173 
L 115.608944 50.423173 
L 115.608944 50.271682 
L 116.735456 50.271682 
L 116.735456 49.968699 
L 117.861968 49.968699 
L 117.861968 47.090366 
L 118.988481 47.090366 
L 118.988481 38.90984 
L 120.114993 38.90984 
L 120.114993 47.393349 
L 121.241505 47.393349 
L 121.241505 39.364314 
L 122.368017 39.364314 
L 122.368017 36.334489 
L 123.494529 36.334489 
L 123.494529 43.757559 
L 124.621041 43.757559 
L 124.621041 41.788173 
L 125.747553 41.788173 
L 125.747553 47.241857 
L 126.874065 47.241857 
L 126.874065 42.545629 
L 128.000577 42.545629 
L 128.000577 36.788963 
L 129.127089 36.788963 
L 129.127089 45.575454 
L 130.253601 45.575454 
L 130.253601 45.726945 
L 131.380113 45.726945 
L 131.380113 39.818787 
L 132.506625 39.818787 
L 132.506625 44.363524 
L 133.633137 44.363524 
L 133.633137 37.849401 
L 134.759649 37.849401 
L 134.759649 31.48677 
L 135.886161 31.48677 
L 135.886161 41.485191 
L 137.012673 41.485191 
L 137.012673 37.243437 
L 138.139186 37.243437 
L 138.139186 45.878436 
L 139.265698 45.878436 
L 139.265698 31.638261 
L 140.39221 31.638261 
L 140.39221 38.303875 
L 141.518722 38.303875 
L 141.518722 33.607647 
L 142.645234 33.607647 
L 142.645234 23.912209 
L 143.771746 23.912209 
L 143.771746 28.305454 
L 144.898258 28.305454 
L 144.898258 36.788963 
L 146.02477 36.788963 
L 146.02477 36.637472 
L 147.151282 36.637472 
L 147.151282 31.789752 
L 148.277794 31.789752 
L 148.277794 33.607647 
L 149.404306 33.607647 
L 149.404306 39.515805 
L 150.530818 39.515805 
L 150.530818 39.212822 
L 151.65733 39.212822 
L 151.65733 36.334489 
L 152.783842 36.334489 
L 152.783842 33.759138 
L 153.910354 33.759138 
L 153.910354 40.879226 
L 155.036866 40.879226 
L 155.036866 31.638261 
L 156.163378 31.638261 
L 156.163378 42.848612 
L 157.28989 42.848612 
L 157.28989 36.788963 
L 158.416403 36.788963 
L 158.416403 39.667296 
L 159.542915 39.667296 
L 159.542915 38.455366 
L 160.669427 38.455366 
L 160.669427 34.668086 
L 161.795939 34.668086 
L 161.795939 33.304665 
L 162.922451 33.304665 
L 162.922451 46.029928 
L 164.048963 46.029928 
L 164.048963 38.758349 
L 165.175475 38.758349 
L 165.175475 32.092735 
L 166.301987 32.092735 
L 166.301987 31.941244 
L 167.428499 31.941244 
L 167.428499 40.12177 
L 168.555011 40.12177 
L 168.555011 38.303875 
L 169.681523 38.303875 
L 169.681523 19.821946 
L 170.808035 19.821946 
L 170.808035 39.818787 
L 171.934547 39.818787 
L 171.934547 30.426331 
L 173.061059 30.426331 
L 173.061059 27.093525 
L 174.187571 27.093525 
L 174.187571 39.364314 
L 175.314083 39.364314 
L 175.314083 29.517384 
L 176.440595 29.517384 
L 176.440595 34.365103 
L 177.567107 34.365103 
L 177.567107 40.273261 
L 178.69362 40.273261 
L 178.69362 29.820367 
L 179.820132 29.820367 
L 179.820132 29.365893 
L 180.946644 29.365893 
L 180.946644 37.546419 
L 182.073156 37.546419 
L 182.073156 31.183788 
L 183.199668 31.183788 
L 183.199668 46.938875 
L 184.32618 46.938875 
L 184.32618 24.215191 
L 185.452692 24.215191 
L 185.452692 33.304665 
L 186.579204 33.304665 
L 186.579204 36.637472 
L 187.705716 36.637472 
L 187.705716 41.939665 
L 188.832228 41.939665 
L 188.832228 38.455366 
L 189.95874 38.455366 
L 189.95874 37.69791 
L 191.085252 37.69791 
L 191.085252 37.849401 
L 192.211764 37.849401 
L 192.211764 41.788173 
L 193.338276 41.788173 
L 193.338276 39.970279 
L 194.464788 39.970279 
L 194.464788 35.728524 
L 195.5913 35.728524 
L 195.5913 44.969489 
L 196.717812 44.969489 
L 196.717812 41.182208 
L 197.844325 41.182208 
L 197.844325 26.790542 
L 198.970837 26.790542 
L 198.970837 38.90984 
L 200.097349 38.90984 
L 200.097349 37.546419 
L 201.223861 37.546419 
L 201.223861 44.666507 
L 202.350373 44.666507 
L 202.350373 36.031507 
L 203.476885 36.031507 
L 203.476885 36.788963 
L 204.603397 36.788963 
L 204.603397 33.304665 
L 205.729909 33.304665 
L 205.729909 45.878436 
L 206.856421 45.878436 
L 206.856421 48.302296 
L 207.982933 48.302296 
L 207.982933 37.243437 
L 209.109445 37.243437 
L 209.109445 43.454577 
L 210.235957 43.454577 
L 210.235957 34.516595 
L 211.362469 34.516595 
L 211.362469 35.425542 
L 212.488981 35.425542 
L 212.488981 31.638261 
L 213.615493 31.638261 
L 213.615493 39.364314 
L 214.742005 39.364314 
L 214.742005 26.48756 
L 215.868517 26.48756 
L 215.868517 30.880805 
L 216.995029 30.880805 
L 216.995029 32.244226 
L 218.121542 32.244226 
L 218.121542 20.276419 
L 219.248054 20.276419 
L 219.248054 33.153174 
L 220.374566 33.153174 
L 220.374566 29.820367 
L 221.501078 29.820367 
L 221.501078 44.363524 
L 222.62759 44.363524 
L 222.62759 35.425542 
L 224.880614 35.425542 
L 224.880614 36.182998 
L 226.007126 36.182998 
L 226.007126 45.575454 
L 227.133638 45.575454 
L 227.133638 44.212033 
L 228.26015 44.212033 
L 228.26015 30.426331 
L 229.386662 30.426331 
L 229.386662 40.576244 
L 230.513174 40.576244 
L 230.513174 37.091945 
L 231.639686 37.091945 
L 231.639686 43.90905 
L 232.766198 43.90905 
L 232.766198 34.668086 
L 233.89271 34.668086 
L 233.89271 65.420804 
L 235.019222 65.420804 
L 235.019222 75.873699 
L 236.145734 75.873699 
L 236.145734 81.478874 
L 237.272247 81.478874 
L 237.272247 92.234751 
L 238.398759 92.234751 
L 238.398759 106.9294 
L 239.525271 106.9294 
L 239.525271 118.139751 
L 240.651783 118.139751 
L 240.651783 124.502382 
L 241.778295 124.502382 
L 241.778295 132.834399 
L 242.904807 132.834399 
L 242.904807 140.257469 
L 244.031319 140.257469 
L 244.031319 143.590276 
L 245.157831 143.590276 
L 245.157831 149.04396 
L 246.284343 149.04396 
L 246.284343 154.346153 
L 247.410855 154.346153 
L 247.410855 161.617732 
L 248.537367 161.617732 
L 248.537367 167.677381 
L 249.663879 167.677381 
L 249.663879 166.919925 
L 250.790391 166.919925 
L 250.790391 182.523521 
L 251.916903 182.523521 
L 251.916903 184.038433 
L 253.043415 184.038433 
L 253.043415 186.613784 
L 254.169927 186.613784 
L 254.169927 189.340626 
L 255.296439 189.340626 
L 255.296439 191.461503 
L 256.422951 191.461503 
L 256.422951 198.278609 
L 257.549464 198.278609 
L 257.549464 198.4301 
L 258.675976 198.4301 
L 258.675976 202.520363 
L 259.802488 202.520363 
L 259.802488 202.671854 
L 260.929 202.671854 
L 260.929 204.035275 
L 262.055512 204.035275 
L 262.055512 212.821766 
L 263.182024 212.821766 
L 263.182024 211.912819 
L 264.308536 211.912819 
L 264.308536 212.973257 
L 265.435048 212.973257 
L 265.435048 215.397117 
L 266.56156 215.397117 
L 266.56156 214.791152 
L 267.688072 214.791152 
L 267.688072 219.335889 
L 268.814584 219.335889 
L 268.814584 218.123959 
L 269.941096 218.123959 
L 269.941096 225.244047 
L 271.067608 225.244047 
L 271.067608 229.182818 
L 272.19412 229.182818 
L 272.19412 225.850011 
L 273.320632 225.850011 
L 273.320632 227.364924 
L 274.447144 227.364924 
L 274.447144 227.516415 
L 275.573656 227.516415 
L 275.573656 230.849222 
L 276.700168 230.849222 
L 276.700168 228.879836 
L 277.826681 228.879836 
L 277.826681 231.455187 
L 278.953193 231.455187 
L 278.953193 231.758169 
L 280.079705 231.758169 
L 280.079705 230.546239 
L 281.206217 230.546239 
L 281.206217 232.515625 
L 282.332729 232.515625 
L 282.332729 236.908871 
L 283.459241 236.908871 
L 283.459241 235.999924 
L 284.585753 235.999924 
L 284.585753 235.848432 
L 285.712265 235.848432 
L 285.712265 235.090976 
L 286.838777 235.090976 
L 286.838777 234.787994 
L 287.965289 234.787994 
L 287.965289 237.211853 
L 289.091801 237.211853 
L 289.091801 238.575274 
L 290.218313 238.575274 
L 290.218313 239.787204 
L 291.344825 239.787204 
L 291.344825 239.484222 
L 292.471337 239.484222 
L 292.471337 238.120801 
L 293.597849 238.120801 
L 293.597849 239.484222 
L 294.724361 239.484222 
L 294.724361 240.696151 
L 295.850873 240.696151 
L 295.850873 240.393169 
L 296.977386 240.393169 
L 296.977386 239.787204 
L 298.103898 239.787204 
L 298.103898 240.241678 
L 299.23041 240.241678 
L 299.23041 242.211064 
L 300.356922 242.211064 
L 300.356922 240.999134 
L 301.483434 240.999134 
L 301.483434 242.211064 
L 302.609946 242.211064 
L 302.609946 239.635713 
L 303.736458 239.635713 
L 303.736458 242.665537 
L 304.86297 242.665537 
L 304.86297 241.605099 
L 307.115994 241.605099 
L 307.115994 242.96852 
L 308.242506 242.96852 
L 308.242506 242.211064 
L 309.369018 242.211064 
L 309.369018 243.725976 
L 310.49553 243.725976 
L 310.49553 242.817029 
L 311.622042 242.817029 
L 311.622042 243.120011 
L 312.748554 243.120011 
L 312.748554 243.422994 
L 313.875066 243.422994 
L 313.875066 244.483432 
L 315.001578 244.483432 
L 315.001578 243.422994 
L 316.12809 243.422994 
L 316.12809 243.725976 
L 317.254603 243.725976 
L 317.254603 243.422994 
L 318.381115 243.422994 
L 318.381115 242.817029 
L 319.507627 242.817029 
L 319.507627 244.18045 
L 320.634139 244.18045 
L 320.634139 243.725976 
L 321.760651 243.725976 
L 321.760651 244.483432 
L 322.887163 244.483432 
L 322.887163 244.331941 
L 324.013675 244.331941 
L 324.013675 243.574485 
L 325.140187 243.574485 
L 325.140187 244.937906 
L 326.266699 244.937906 
L 326.266699 244.18045 
L 327.393211 244.18045 
L 327.393211 244.483432 
L 328.519723 244.483432 
L 328.519723 244.634923 
L 329.646235 244.634923 
L 329.646235 244.331941 
L 330.772747 244.331941 
L 330.772747 243.574485 
L 331.899259 243.574485 
L 331.899259 244.634923 
L 333.025771 244.634923 
L 333.025771 244.331941 
L 334.152283 244.331941 
L 334.152283 245.089397 
L 335.278795 245.089397 
L 335.278795 244.786415 
L 336.405308 244.786415 
L 336.405308 244.331941 
L 337.53182 244.331941 
L 337.53182 244.634923 
L 338.658332 244.634923 
L 338.658332 245.089397 
L 339.784844 245.089397 
L 339.784844 244.786415 
L 340.911356 244.786415 
L 340.911356 245.240888 
L 342.037868 245.240888 
L 342.037868 245.089397 
L 343.16438 245.089397 
L 343.16438 244.634923 
L 344.290892 244.634923 
L 344.290892 245.089397 
L 345.417404 245.089397 
L 345.417404 244.937906 
L 347.670428 244.937906 
L 347.670428 244.786415 
L 348.79694 244.786415 
L 348.79694 244.937906 
L 352.176476 244.937906 
L 352.176476 245.240888 
L 353.302988 245.240888 
L 353.302988 244.634923 
L 354.4295 244.634923 
L 354.4295 245.089397 
L 358.935549 245.089397 
L 358.935549 244.786415 
L 361.188573 244.786415 
L 361.188573 245.089397 
L 362.315085 245.089397 
L 362.315085 244.937906 
L 364.568109 244.937906 
L 364.568109 245.089397 
L 366.821133 245.089397 
L 366.821133 245.240888 
L 369.074157 245.240888 
L 369.074157 244.937906 
L 370.200669 244.937906 
L 370.200669 245.089397 
L 371.327181 245.089397 
L 371.327181 244.937906 
L 372.453693 244.937906 
L 372.453693 245.240888 
L 375.833229 245.240888 
L 375.833229 245.089397 
L 378.086254 245.089397 
L 378.086254 245.240888 
L 379.212766 245.240888 
L 379.212766 244.937906 
L 380.339278 244.937906 
L 380.339278 245.240888 
L 389.351374 245.240888 
L 389.351374 245.089397 
L 390.477886 245.089397 
L 390.477886 245.240888 
L 391.604398 245.240888 
L 391.604398 245.089397 
L 392.73091 245.089397 
L 392.73091 245.240888 
L 407.375567 245.240888 
L 407.375567 245.089397 
L 408.502079 245.089397 
L 408.502079 245.089397 
" clip-path="url(#p687f1b2268)" style="fill: none; stroke: #1f77b4; stroke-width: 1.5; stroke-linecap: square"/>
   </g>
   <g id="patch_3">
    <path d="M 53.650781 256.511835 
L 53.650781 8.550999 
" style="fill: none; stroke: #000000; stroke-width: 0.8; stroke-linejoin: miter; stroke-linecap: square"/>
   </g>
   <g id="patch_4">
    <path d="M 425.39976 256.511835 
L 425.39976 8.550999 
" style="fill: none; stroke: #000000; stroke-width: 0.8; stroke-linejoin: miter; stroke-linecap: square"/>
   </g>
   <g id="patch_5">
    <path d="M 53.650781 256.511835 
L 425.39976 256.511835 
" style="fill: none; stroke: #000000; stroke-width: 0.8; stroke-linejoin: miter; stroke-linecap: square"/>
   </g>
   <g id="patch_6">
    <path d="M 53.650781 8.550999 
L 425.39976 8.550999 
" style="fill: none; stroke: #000000; stroke-width: 0.8; stroke-linejoin: miter; stroke-linecap: square"/>
   </g>
  </g>
  <g id="axes_2">
   <g id="patch_7">
    <path d="M 493.450541 256.511835 
L 865.19952 256.511835 
L 865.19952 8.550999 
L 493.450541 8.550999 
z
" style="fill: #ffffff"/>
   </g>
   <g id="matplotlib.axis_3">
    <g id="xtick_8">
     <g id="line2d_17">
      <g>
       <use xlink:href="#mee15f8cbb6" x="508.647461" y="256.511835" style="stroke: #000000; stroke-width: 0.8"/>
      </g>
     </g>
     <g id="text_18">
      <!-- 0.0 -->
      <g transform="translate(500.695898 271.109492) scale(0.1 -0.1)">
       <defs>
        <path id="DejaVuSans-11" d="M 684 794 
L 1344 794 
L 1344 0 
L 684 0 
L 684 794 
z
" transform="scale(0.015625)"/>
       </defs>
       <use xlink:href="#DejaVuSans-13"/>
       <use xlink:href="#DejaVuSans-11" transform="translate(63.625 0)"/>
       <use xlink:href="#DejaVuSans-13" transform="translate(95.40625 0)"/>
      </g>
     </g>
    </g>
    <g id="xtick_9">
     <g id="line2d_18">
      <g>
       <use xlink:href="#mee15f8cbb6" x="551.153308" y="256.511835" style="stroke: #000000; stroke-width: 0.8"/>
      </g>
     </g>
     <g id="text_19">
      <!-- 2.5 -->
      <g transform="translate(543.201746 271.109492) scale(0.1 -0.1)">
       <use xlink:href="#DejaVuSans-15"/>
       <use xlink:href="#DejaVuSans-11" transform="translate(63.625 0)"/>
       <use xlink:href="#DejaVuSans-18" transform="translate(95.40625 0)"/>
      </g>
     </g>
    </g>
    <g id="xtick_10">
     <g id="line2d_19">
      <g>
       <use xlink:href="#mee15f8cbb6" x="593.659156" y="256.511835" style="stroke: #000000; stroke-width: 0.8"/>
      </g>
     </g>
     <g id="text_20">
      <!-- 5.0 -->
      <g transform="translate(585.707594 271.109492) scale(0.1 -0.1)">
       <use xlink:href="#DejaVuSans-18"/>
       <use xlink:href="#DejaVuSans-11" transform="translate(63.625 0)"/>
       <use xlink:href="#DejaVuSans-13" transform="translate(95.40625 0)"/>
      </g>
     </g>
    </g>
    <g id="xtick_11">
     <g id="line2d_20">
      <g>
       <use xlink:href="#mee15f8cbb6" x="636.165004" y="256.511835" style="stroke: #000000; stroke-width: 0.8"/>
      </g>
     </g>
     <g id="text_21">
      <!-- 7.5 -->
      <g transform="translate(628.213441 271.109492) scale(0.1 -0.1)">
       <defs>
        <path id="DejaVuSans-1a" d="M 525 4666 
L 3525 4666 
L 3525 4397 
L 1831 0 
L 1172 0 
L 2766 4134 
L 525 4134 
L 525 4666 
z
" transform="scale(0.015625)"/>
       </defs>
       <use xlink:href="#DejaVuSans-1a"/>
       <use xlink:href="#DejaVuSans-11" transform="translate(63.625 0)"/>
       <use xlink:href="#DejaVuSans-18" transform="translate(95.40625 0)"/>
      </g>
     </g>
    </g>
    <g id="xtick_12">
     <g id="line2d_21">
      <g>
       <use xlink:href="#mee15f8cbb6" x="678.670852" y="256.511835" style="stroke: #000000; stroke-width: 0.8"/>
      </g>
     </g>
     <g id="text_22">
      <!-- 10.0 -->
      <g transform="translate(667.538039 271.109492) scale(0.1 -0.1)">
       <use xlink:href="#DejaVuSans-14"/>
       <use xlink:href="#DejaVuSans-13" transform="translate(63.625 0)"/>
       <use xlink:href="#DejaVuSans-11" transform="translate(127.25 0)"/>
       <use xlink:href="#DejaVuSans-13" transform="translate(159.03125 0)"/>
      </g>
     </g>
    </g>
    <g id="xtick_13">
     <g id="line2d_22">
      <g>
       <use xlink:href="#mee15f8cbb6" x="721.176699" y="256.511835" style="stroke: #000000; stroke-width: 0.8"/>
      </g>
     </g>
     <g id="text_23">
      <!-- 12.5 -->
      <g transform="translate(710.043887 271.109492) scale(0.1 -0.1)">
       <use xlink:href="#DejaVuSans-14"/>
       <use xlink:href="#DejaVuSans-15" transform="translate(63.625 0)"/>
       <use xlink:href="#DejaVuSans-11" transform="translate(127.25 0)"/>
       <use xlink:href="#DejaVuSans-18" transform="translate(159.03125 0)"/>
      </g>
     </g>
    </g>
    <g id="xtick_14">
     <g id="line2d_23">
      <g>
       <use xlink:href="#mee15f8cbb6" x="763.682547" y="256.511835" style="stroke: #000000; stroke-width: 0.8"/>
      </g>
     </g>
     <g id="text_24">
      <!-- 15.0 -->
      <g transform="translate(752.549735 271.109492) scale(0.1 -0.1)">
       <use xlink:href="#DejaVuSans-14"/>
       <use xlink:href="#DejaVuSans-18" transform="translate(63.625 0)"/>
       <use xlink:href="#DejaVuSans-11" transform="translate(127.25 0)"/>
       <use xlink:href="#DejaVuSans-13" transform="translate(159.03125 0)"/>
      </g>
     </g>
    </g>
    <g id="xtick_15">
     <g id="line2d_24">
      <g>
       <use xlink:href="#mee15f8cbb6" x="806.188395" y="256.511835" style="stroke: #000000; stroke-width: 0.8"/>
      </g>
     </g>
     <g id="text_25">
      <!-- 17.5 -->
      <g transform="translate(795.055582 271.109492) scale(0.1 -0.1)">
       <use xlink:href="#DejaVuSans-14"/>
       <use xlink:href="#DejaVuSans-1a" transform="translate(63.625 0)"/>
       <use xlink:href="#DejaVuSans-11" transform="translate(127.25 0)"/>
       <use xlink:href="#DejaVuSans-18" transform="translate(159.03125 0)"/>
      </g>
     </g>
    </g>
    <g id="xtick_16">
     <g id="line2d_25">
      <g>
       <use xlink:href="#mee15f8cbb6" x="848.694243" y="256.511835" style="stroke: #000000; stroke-width: 0.8"/>
      </g>
     </g>
     <g id="text_26">
      <!-- 20.0 -->
      <g transform="translate(837.56143 271.109492) scale(0.1 -0.1)">
       <use xlink:href="#DejaVuSans-15"/>
       <use xlink:href="#DejaVuSans-13" transform="translate(63.625 0)"/>
       <use xlink:href="#DejaVuSans-11" transform="translate(127.25 0)"/>
       <use xlink:href="#DejaVuSans-13" transform="translate(159.03125 0)"/>
      </g>
     </g>
    </g>
    <g id="text_27">
     <!-- wavelength [Å] -->
     <g transform="translate(641.287531 286.794648) scale(0.1 -0.1)">
      <defs>
       <path id="DejaVuSans-5a" d="M 269 3500 
L 844 3500 
L 1563 769 
L 2278 3500 
L 2956 3500 
L 3675 769 
L 4391 3500 
L 4966 3500 
L 4050 0 
L 3372 0 
L 2619 2869 
L 1863 0 
L 1184 0 
L 269 3500 
z
" transform="scale(0.015625)"/>
       <path id="DejaVuSans-44" d="M 2194 1759 
Q 1497 1759 1228 1600 
Q 959 1441 959 1056 
Q 959 750 1161 570 
Q 1363 391 1709 391 
Q 2188 391 2477 730 
Q 2766 1069 2766 1631 
L 2766 1759 
L 2194 1759 
z
M 3341 1997 
L 3341 0 
L 2766 0 
L 2766 531 
Q 2569 213 2275 61 
Q 1981 -91 1556 -91 
Q 1019 -91 701 211 
Q 384 513 384 1019 
Q 384 1609 779 1909 
Q 1175 2209 1959 2209 
L 2766 2209 
L 2766 2266 
Q 2766 2663 2505 2880 
Q 2244 3097 1772 3097 
Q 1472 3097 1187 3025 
Q 903 2953 641 2809 
L 641 3341 
Q 956 3463 1253 3523 
Q 1550 3584 1831 3584 
Q 2591 3584 2966 3190 
Q 3341 2797 3341 1997 
z
" transform="scale(0.015625)"/>
       <path id="DejaVuSans-59" d="M 191 3500 
L 800 3500 
L 1894 563 
L 2988 3500 
L 3597 3500 
L 2284 0 
L 1503 0 
L 191 3500 
z
" transform="scale(0.015625)"/>
       <path id="DejaVuSans-4f" d="M 603 4863 
L 1178 4863 
L 1178 0 
L 603 0 
L 603 4863 
z
" transform="scale(0.015625)"/>
       <path id="DejaVuSans-4a" d="M 2906 1791 
Q 2906 2416 2648 2759 
Q 2391 3103 1925 3103 
Q 1463 3103 1205 2759 
Q 947 2416 947 1791 
Q 947 1169 1205 825 
Q 1463 481 1925 481 
Q 2391 481 2648 825 
Q 2906 1169 2906 1791 
z
M 3481 434 
Q 3481 -459 3084 -895 
Q 2688 -1331 1869 -1331 
Q 1566 -1331 1297 -1286 
Q 1028 -1241 775 -1147 
L 775 -588 
Q 1028 -725 1275 -790 
Q 1522 -856 1778 -856 
Q 2344 -856 2625 -561 
Q 2906 -266 2906 331 
L 2906 616 
Q 2728 306 2450 153 
Q 2172 0 1784 0 
Q 1141 0 747 490 
Q 353 981 353 1791 
Q 353 2603 747 3093 
Q 1141 3584 1784 3584 
Q 2172 3584 2450 3431 
Q 2728 3278 2906 2969 
L 2906 3500 
L 3481 3500 
L 3481 434 
z
" transform="scale(0.015625)"/>
       <path id="DejaVuSans-87" d="M 2663 5081 
Q 2663 5278 2523 5417 
Q 2384 5556 2188 5556 
Q 1988 5556 1852 5420 
Q 1716 5284 1716 5081 
Q 1716 4884 1853 4746 
Q 1991 4609 2188 4609 
Q 2384 4609 2523 4746 
Q 2663 4884 2663 5081 
z
M 2188 4044 
L 1338 1722 
L 3041 1722 
L 2188 4044 
z
M 1716 4366 
Q 1525 4494 1428 4673 
Q 1331 4853 1331 5081 
Q 1331 5441 1579 5691 
Q 1828 5941 2188 5941 
Q 2544 5941 2795 5689 
Q 3047 5438 3047 5081 
Q 3047 4863 2948 4678 
Q 2850 4494 2663 4366 
L 4325 0 
L 3669 0 
L 3244 1197 
L 1141 1197 
L 716 0 
L 50 0 
L 1716 4366 
z
" transform="scale(0.015625)"/>
      </defs>
      <use xlink:href="#DejaVuSans-5a"/>
      <use xlink:href="#DejaVuSans-44" transform="translate(81.78125 0)"/>
      <use xlink:href="#DejaVuSans-59" transform="translate(143.0625 0)"/>
      <use xlink:href="#DejaVuSans-48" transform="translate(202.25 0)"/>
      <use xlink:href="#DejaVuSans-4f" transform="translate(263.78125 0)"/>
      <use xlink:href="#DejaVuSans-48" transform="translate(291.5625 0)"/>
      <use xlink:href="#DejaVuSans-51" transform="translate(353.09375 0)"/>
      <use xlink:href="#DejaVuSans-4a" transform="translate(416.46875 0)"/>
      <use xlink:href="#DejaVuSans-57" transform="translate(479.953125 0)"/>
      <use xlink:href="#DejaVuSans-4b" transform="translate(519.15625 0)"/>
      <use xlink:href="#DejaVuSans-3" transform="translate(582.53125 0)"/>
      <use xlink:href="#DejaVuSans-3e" transform="translate(614.3125 0)"/>
      <use xlink:href="#DejaVuSans-87" transform="translate(653.328125 0)"/>
      <use xlink:href="#DejaVuSans-40" transform="translate(721.734375 0)"/>
     </g>
    </g>
   </g>
   <g id="matplotlib.axis_4">
    <g id="ytick_9">
     <g id="line2d_26">
      <g>
       <use xlink:href="#m7f0cf4a801" x="493.450541" y="245.240888" style="stroke: #000000; stroke-width: 0.8"/>
      </g>
     </g>
     <g id="text_28">
      <!-- 0 -->
      <g transform="translate(480.088041 249.039716) scale(0.1 -0.1)">
       <use xlink:href="#DejaVuSans-13"/>
      </g>
     </g>
    </g>
    <g id="ytick_10">
     <g id="line2d_27">
      <g>
       <use xlink:href="#m7f0cf4a801" x="493.450541" y="206.200545" style="stroke: #000000; stroke-width: 0.8"/>
      </g>
     </g>
     <g id="text_29">
      <!-- 1000 -->
      <g transform="translate(461.000541 209.999373) scale(0.1 -0.1)">
       <use xlink:href="#DejaVuSans-14"/>
       <use xlink:href="#DejaVuSans-13" transform="translate(63.625 0)"/>
       <use xlink:href="#DejaVuSans-13" transform="translate(127.25 0)"/>
       <use xlink:href="#DejaVuSans-13" transform="translate(190.875 0)"/>
      </g>
     </g>
    </g>
    <g id="ytick_11">
     <g id="line2d_28">
      <g>
       <use xlink:href="#m7f0cf4a801" x="493.450541" y="167.160202" style="stroke: #000000; stroke-width: 0.8"/>
      </g>
     </g>
     <g id="text_30">
      <!-- 2000 -->
      <g transform="translate(461.000541 170.95903) scale(0.1 -0.1)">
       <use xlink:href="#DejaVuSans-15"/>
       <use xlink:href="#DejaVuSans-13" transform="translate(63.625 0)"/>
       <use xlink:href="#DejaVuSans-13" transform="translate(127.25 0)"/>
       <use xlink:href="#DejaVuSans-13" transform="translate(190.875 0)"/>
      </g>
     </g>
    </g>
    <g id="ytick_12">
     <g id="line2d_29">
      <g>
       <use xlink:href="#m7f0cf4a801" x="493.450541" y="128.119858" style="stroke: #000000; stroke-width: 0.8"/>
      </g>
     </g>
     <g id="text_31">
      <!-- 3000 -->
      <g transform="translate(461.000541 131.918686) scale(0.1 -0.1)">
       <use xlink:href="#DejaVuSans-16"/>
       <use xlink:href="#DejaVuSans-13" transform="translate(63.625 0)"/>
       <use xlink:href="#DejaVuSans-13" transform="translate(127.25 0)"/>
       <use xlink:href="#DejaVuSans-13" transform="translate(190.875 0)"/>
      </g>
     </g>
    </g>
    <g id="ytick_13">
     <g id="line2d_30">
      <g>
       <use xlink:href="#m7f0cf4a801" x="493.450541" y="89.079515" style="stroke: #000000; stroke-width: 0.8"/>
      </g>
     </g>
     <g id="text_32">
      <!-- 4000 -->
      <g transform="translate(461.000541 92.878343) scale(0.1 -0.1)">
       <use xlink:href="#DejaVuSans-17"/>
       <use xlink:href="#DejaVuSans-13" transform="translate(63.625 0)"/>
       <use xlink:href="#DejaVuSans-13" transform="translate(127.25 0)"/>
       <use xlink:href="#DejaVuSans-13" transform="translate(190.875 0)"/>
      </g>
     </g>
    </g>
    <g id="ytick_14">
     <g id="line2d_31">
      <g>
       <use xlink:href="#m7f0cf4a801" x="493.450541" y="50.039171" style="stroke: #000000; stroke-width: 0.8"/>
      </g>
     </g>
     <g id="text_33">
      <!-- 5000 -->
      <g transform="translate(461.000541 53.838) scale(0.1 -0.1)">
       <use xlink:href="#DejaVuSans-18"/>
       <use xlink:href="#DejaVuSans-13" transform="translate(63.625 0)"/>
       <use xlink:href="#DejaVuSans-13" transform="translate(127.25 0)"/>
       <use xlink:href="#DejaVuSans-13" transform="translate(190.875 0)"/>
      </g>
     </g>
    </g>
    <g id="ytick_15">
     <g id="line2d_32">
      <g>
       <use xlink:href="#m7f0cf4a801" x="493.450541" y="10.998828" style="stroke: #000000; stroke-width: 0.8"/>
      </g>
     </g>
     <g id="text_34">
      <!-- 6000 -->
      <g transform="translate(461.000541 14.797656) scale(0.1 -0.1)">
       <use xlink:href="#DejaVuSans-19"/>
       <use xlink:href="#DejaVuSans-13" transform="translate(63.625 0)"/>
       <use xlink:href="#DejaVuSans-13" transform="translate(127.25 0)"/>
       <use xlink:href="#DejaVuSans-13" transform="translate(190.875 0)"/>
      </g>
     </g>
    </g>
    <g id="text_35">
     <!-- [counts] -->
     <g transform="translate(454.598197 153.143917) rotate(-90) scale(0.1 -0.1)">
      <use xlink:href="#DejaVuSans-3e"/>
      <use xlink:href="#DejaVuSans-46" transform="translate(39.015625 0)"/>
      <use xlink:href="#DejaVuSans-52" transform="translate(94 0)"/>
      <use xlink:href="#DejaVuSans-58" transform="translate(155.1875 0)"/>
      <use xlink:href="#DejaVuSans-51" transform="translate(218.5625 0)"/>
      <use xlink:href="#DejaVuSans-57" transform="translate(281.9375 0)"/>
      <use xlink:href="#DejaVuSans-56" transform="translate(321.140625 0)"/>
      <use xlink:href="#DejaVuSans-40" transform="translate(373.234375 0)"/>
     </g>
    </g>
   </g>
   <g id="line2d_33">
    <path d="M 510.348222 19.821946 
L 511.474734 19.821946 
L 511.474734 80.256397 
L 512.601246 80.256397 
L 512.601246 122.65421 
L 513.727758 122.65421 
L 513.727758 150.529015 
L 514.85427 150.529015 
L 514.85427 169.619743 
L 515.980782 169.619743 
L 515.980782 182.581137 
L 517.107294 182.581137 
L 517.107294 185.1578 
L 518.233806 185.1578 
L 518.233806 183.869468 
L 519.360319 183.869468 
L 519.360319 176.022359 
L 520.486831 176.022359 
L 520.486831 156.072744 
L 521.613343 156.072744 
L 521.613343 136.006008 
L 522.739855 136.006008 
L 522.739855 113.206447 
L 523.866367 113.206447 
L 523.866367 97.238947 
L 524.992879 97.238947 
L 524.992879 81.193365 
L 526.119391 81.193365 
L 526.119391 75.571556 
L 527.245903 75.571556 
L 527.245903 73.619539 
L 528.372415 73.619539 
L 528.372415 78.538622 
L 529.498927 78.538622 
L 529.498927 86.073408 
L 530.625439 86.073408 
L 530.625439 89.860322 
L 531.751951 89.860322 
L 531.751951 102.860756 
L 532.878463 102.860756 
L 532.878463 104.50045 
L 534.004975 104.50045 
L 534.004975 117.657046 
L 535.131487 117.657046 
L 535.131487 119.765225 
L 536.257999 119.765225 
L 536.257999 128.119858 
L 537.384511 128.119858 
L 537.384511 132.570457 
L 538.511024 132.570457 
L 538.511024 136.591613 
L 539.637536 136.591613 
L 539.637536 135.966967 
L 540.764048 135.966967 
L 540.764048 141.432615 
L 541.89056 141.432615 
L 541.89056 140.222365 
L 543.017072 140.222365 
L 543.017072 139.636759 
L 544.143584 139.636759 
L 544.143584 136.045048 
L 545.270096 136.045048 
L 545.270096 134.05399 
L 546.396608 134.05399 
L 546.396608 126.05072 
L 547.52312 126.05072 
L 547.52312 118.515934 
L 548.649632 118.515934 
L 548.649632 109.497614 
L 549.776144 109.497614 
L 549.776144 102.079949 
L 550.902656 102.079949 
L 550.902656 94.076679 
L 552.029168 94.076679 
L 552.029168 96.419099 
L 553.15568 96.419099 
L 553.15568 102.431312 
L 554.282192 102.431312 
L 554.282192 110.200341 
L 555.408704 110.200341 
L 555.408704 117.344723 
L 556.535216 117.344723 
L 556.535216 123.474057 
L 557.661728 123.474057 
L 557.661728 127.026729 
L 558.788241 127.026729 
L 558.788241 136.513532 
L 559.914753 136.513532 
L 559.914753 143.15039 
L 561.041265 143.15039 
L 561.041265 147.444828 
L 562.167777 147.444828 
L 562.167777 151.309822 
L 563.294289 151.309822 
L 563.294289 155.291937 
L 564.420801 155.291937 
L 564.420801 158.141882 
L 565.547313 158.141882 
L 565.547313 166.769798 
L 566.673825 166.769798 
L 566.673825 167.823887 
L 567.800337 167.823887 
L 567.800337 172.938172 
L 568.926849 172.938172 
L 568.926849 179.45791 
L 570.053361 179.45791 
L 570.053361 180.004474 
L 571.179873 180.004474 
L 571.179873 186.250929 
L 572.306385 186.250929 
L 572.306385 183.518105 
L 573.432897 183.518105 
L 573.432897 187.812543 
L 574.559409 187.812543 
L 574.559409 194.137079 
L 575.685921 194.137079 
L 575.685921 195.698693 
L 576.812433 195.698693 
L 576.812433 194.566523 
L 577.938946 194.566523 
L 577.938946 199.876009 
L 579.065458 199.876009 
L 579.065458 203.428681 
L 580.19197 203.428681 
L 580.19197 205.419738 
L 582.444994 205.419738 
L 582.444994 207.840239 
L 583.571506 207.840239 
L 583.571506 207.95736 
L 584.698018 207.95736 
L 584.698018 210.377862 
L 585.82453 210.377862 
L 585.82453 212.603161 
L 586.951042 212.603161 
L 586.951042 212.915484 
L 588.077554 212.915484 
L 588.077554 215.687348 
L 589.204066 215.687348 
L 589.204066 214.71134 
L 590.330578 214.71134 
L 590.330578 215.960631 
L 591.45709 215.960631 
L 591.45709 220.255068 
L 592.583602 220.255068 
L 592.583602 222.168045 
L 593.710114 222.168045 
L 593.710114 222.285166 
L 594.836626 222.285166 
L 594.836626 221.58244 
L 595.963138 221.58244 
L 595.963138 222.558449 
L 597.08965 222.558449 
L 597.08965 222.75365 
L 598.216163 222.75365 
L 598.216163 225.876878 
L 599.342675 225.876878 
L 599.342675 226.306322 
L 600.469187 226.306322 
L 600.469187 224.97895 
L 601.595699 224.97895 
L 601.595699 227.906976 
L 602.722211 227.906976 
L 602.722211 227.048088 
L 603.848723 227.048088 
L 603.848723 228.258339 
L 604.975235 228.258339 
L 604.975235 228.570662 
L 606.101747 228.570662 
L 606.101747 230.952123 
L 607.228259 230.952123 
L 607.228259 231.654849 
L 608.354771 231.654849 
L 608.354771 231.147324 
L 609.481283 231.147324 
L 609.481283 233.645906 
L 610.607795 233.645906 
L 610.607795 232.630857 
L 611.734307 232.630857 
L 611.734307 232.90414 
L 612.860819 232.90414 
L 612.860819 233.645906 
L 613.987331 233.645906 
L 613.987331 233.528785 
L 615.113843 233.528785 
L 615.113843 234.582874 
L 616.240355 234.582874 
L 616.240355 234.856157 
L 617.366867 234.856157 
L 617.366867 234.582874 
L 618.49338 234.582874 
L 618.49338 235.129439 
L 619.619892 235.129439 
L 619.619892 235.480802 
L 620.746404 235.480802 
L 620.746404 236.30065 
L 621.872916 236.30065 
L 621.872916 237.003376 
L 622.999428 237.003376 
L 622.999428 236.534892 
L 624.12594 236.534892 
L 624.12594 237.706102 
L 625.252452 237.706102 
L 625.252452 237.198577 
L 626.378964 237.198577 
L 626.378964 237.784183 
L 627.505476 237.784183 
L 627.505476 238.057465 
L 628.631988 238.057465 
L 628.631988 239.619079 
L 629.7585 239.619079 
L 629.7585 238.955393 
L 630.885012 238.955393 
L 630.885012 238.369788 
L 632.011524 238.369788 
L 632.011524 239.228675 
L 633.138036 239.228675 
L 633.138036 239.111554 
L 634.264548 239.111554 
L 634.264548 239.384837 
L 635.39106 239.384837 
L 635.39106 239.7362 
L 636.517572 239.7362 
L 636.517572 239.540998 
L 637.644085 239.540998 
L 637.644085 240.243724 
L 638.770597 240.243724 
L 638.770597 239.697159 
L 641.023621 239.77524 
L 641.023621 240.751249 
L 642.150133 240.751249 
L 642.150133 240.985491 
L 643.276645 240.985491 
L 643.276645 240.517007 
L 644.403157 240.517007 
L 644.403157 241.024531 
L 645.529669 241.024531 
L 645.529669 241.219733 
L 646.656181 241.219733 
L 646.656181 240.282765 
L 647.782693 240.282765 
L 647.782693 241.375894 
L 648.909205 241.375894 
L 648.909205 242.469024 
L 650.035717 242.469024 
L 650.035717 241.688217 
L 651.162229 241.688217 
L 651.162229 241.805338 
L 652.288741 241.805338 
L 652.288741 241.610136 
L 654.541765 241.571096 
L 654.541765 241.493015 
L 655.668277 241.493015 
L 655.668277 241.649177 
L 656.794789 241.649177 
L 656.794789 242.508064 
L 657.921302 242.508064 
L 657.921302 242.312862 
L 659.047814 242.312862 
L 659.047814 242.117661 
L 660.174326 242.117661 
L 660.174326 242.508064 
L 662.42735 242.469024 
L 662.42735 242.00054 
L 663.553862 242.00054 
L 663.553862 242.117661 
L 665.806886 242.03958 
L 665.806886 242.586145 
L 666.933398 242.586145 
L 666.933398 242.781347 
L 669.186422 242.781347 
L 669.186422 242.625185 
L 670.312934 242.625185 
L 670.312934 243.093669 
L 671.439446 243.093669 
L 671.439446 243.249831 
L 674.818982 243.21079 
L 674.818982 243.640234 
L 675.945494 243.640234 
L 675.945494 243.21079 
L 677.072007 243.21079 
L 677.072007 243.484073 
L 679.325031 243.445032 
L 679.325031 243.952557 
L 680.451543 243.952557 
L 680.451543 243.054629 
L 681.578055 243.054629 
L 681.578055 243.601194 
L 682.704567 243.601194 
L 682.704567 243.835436 
L 683.831079 243.835436 
L 683.831079 243.640234 
L 686.084103 243.562153 
L 686.084103 243.991597 
L 687.210615 243.991597 
L 687.210615 243.640234 
L 688.337127 243.640234 
L 688.337127 243.874476 
L 690.590151 243.874476 
L 690.590151 243.640234 
L 691.716663 243.640234 
L 691.716663 243.952557 
L 692.843175 243.952557 
L 692.843175 244.26488 
L 693.969687 244.26488 
L 693.969687 243.913517 
L 696.222711 243.913517 
L 696.222711 244.030638 
L 697.349224 244.030638 
L 697.349224 244.147759 
L 698.475736 244.147759 
L 698.475736 243.991597 
L 700.72876 243.952557 
L 700.72876 244.382001 
L 701.855272 244.382001 
L 701.855272 244.499122 
L 704.108296 244.499122 
L 704.108296 244.26488 
L 706.36132 244.26488 
L 706.36132 244.460081 
L 707.487832 244.460081 
L 707.487832 244.655283 
L 708.614344 244.655283 
L 708.614344 244.108718 
L 709.740856 244.108718 
L 709.740856 244.460081 
L 710.867368 244.460081 
L 710.867368 244.147759 
L 713.120392 244.069678 
L 713.120392 244.499122 
L 714.246904 244.499122 
L 714.246904 244.225839 
L 715.373416 244.225839 
L 715.373416 244.069678 
L 716.499929 244.069678 
L 716.499929 244.30392 
L 718.752953 244.26488 
L 718.752953 244.694323 
L 719.879465 244.694323 
L 719.879465 244.382001 
L 721.005977 244.382001 
L 721.005977 244.616243 
L 722.132489 244.616243 
L 722.132489 244.225839 
L 723.259001 244.225839 
L 723.259001 244.382001 
L 725.512025 244.30392 
L 725.512025 244.772404 
L 726.638537 244.772404 
L 726.638537 244.538162 
L 731.144585 244.499122 
L 731.144585 244.811444 
L 732.271097 244.811444 
L 732.271097 244.928565 
L 733.397609 244.928565 
L 733.397609 244.811444 
L 735.650633 244.889525 
L 735.650633 244.499122 
L 737.903658 244.538162 
L 737.903658 244.850485 
L 740.156682 244.811444 
L 740.156682 244.694323 
L 741.283194 244.694323 
L 741.283194 244.850485 
L 743.536218 244.928565 
L 743.536218 244.694323 
L 744.66273 244.694323 
L 744.66273 244.967606 
L 745.789242 244.967606 
L 745.789242 244.811444 
L 746.915754 244.811444 
L 746.915754 244.655283 
L 748.042266 244.655283 
L 748.042266 244.889525 
L 750.29529 244.811444 
L 750.29529 244.694323 
L 751.421802 244.694323 
L 751.421802 244.811444 
L 755.92785 244.850485 
L 755.92785 245.006646 
L 757.054363 245.006646 
L 757.054363 244.811444 
L 758.180875 244.811444 
L 758.180875 244.928565 
L 759.307387 244.928565 
L 759.307387 244.772404 
L 760.433899 244.772404 
L 760.433899 244.967606 
L 761.560411 244.967606 
L 761.560411 245.084727 
L 767.192971 245.084727 
L 767.192971 244.850485 
L 768.319483 244.850485 
L 768.319483 245.045687 
L 769.445995 245.045687 
L 769.445995 244.850485 
L 770.572507 244.850485 
L 770.572507 244.967606 
L 771.699019 244.967606 
L 771.699019 244.850485 
L 773.952043 244.928565 
L 773.952043 244.967606 
L 779.584604 244.889525 
L 779.584604 244.850485 
L 780.711116 244.850485 
L 780.711116 245.162808 
L 781.837628 245.162808 
L 781.837628 245.045687 
L 786.343676 245.123767 
L 786.343676 244.850485 
L 787.470188 244.850485 
L 787.470188 245.006646 
L 789.723212 245.045687 
L 789.723212 245.123767 
L 796.482285 245.084727 
L 796.482285 245.006646 
L 797.608797 245.006646 
L 797.608797 245.201848 
L 799.861821 245.123767 
L 799.861821 245.006646 
L 802.114845 245.084727 
L 802.114845 245.162808 
L 803.241357 245.162808 
L 803.241357 244.850485 
L 804.367869 244.850485 
L 804.367869 245.123767 
L 810.000429 245.162808 
L 810.000429 244.967606 
L 811.126941 244.967606 
L 811.126941 245.084727 
L 814.506477 245.045687 
L 814.506477 245.201848 
L 848.301839 245.123767 
L 848.301839 245.123767 
" clip-path="url(#p07d5def886)" style="fill: none; stroke: #1f77b4; stroke-width: 1.5; stroke-linecap: square"/>
   </g>
   <g id="patch_8">
    <path d="M 493.450541 256.511835 
L 493.450541 8.550999 
" style="fill: none; stroke: #000000; stroke-width: 0.8; stroke-linejoin: miter; stroke-linecap: square"/>
   </g>
   <g id="patch_9">
    <path d="M 865.19952 256.511835 
L 865.19952 8.550999 
" style="fill: none; stroke: #000000; stroke-width: 0.8; stroke-linejoin: miter; stroke-linecap: square"/>
   </g>
   <g id="patch_10">
    <path d="M 493.450541 256.511835 
L 865.19952 256.511835 
" style="fill: none; stroke: #000000; stroke-width: 0.8; stroke-linejoin: miter; stroke-linecap: square"/>
   </g>
   <g id="patch_11">
    <path d="M 493.450541 8.550999 
L 865.19952 8.550999 
" style="fill: none; stroke: #000000; stroke-width: 0.8; stroke-linejoin: miter; stroke-linecap: square"/>
   </g>
  </g>
 </g>
 <defs>
  <clipPath id="p687f1b2268">
   <rect x="53.650781" y="8.550999" width="371.748979" height="247.960837"/>
  </clipPath>
  <clipPath id="p07d5def886">
   <rect x="493.450541" y="8.550999" width="371.748979" height="247.960837"/>
  </clipPath>
 </defs>
</svg>
