<?xml version="1.0" encoding="utf-8" standalone="no"?>
<!DOCTYPE svg PUBLIC "-//W3C//DTD SVG 1.1//EN"
  "http://www.w3.org/Graphics/SVG/1.1/DTD/svg11.dtd">
<svg xmlns:xlink="http://www.w3.org/1999/xlink" width="389.288281pt" height="268.845156pt" viewBox="0 0 389.288281 268.845156" xmlns="http://www.w3.org/2000/svg" version="1.1">
 <metadata>
  <rdf:RDF xmlns:dc="http://purl.org/dc/elements/1.1/" xmlns:cc="http://creativecommons.org/ns#" xmlns:rdf="http://www.w3.org/1999/02/22-rdf-syntax-ns#">
   <cc:Work>
    <dc:type rdf:resource="http://purl.org/dc/dcmitype/StillImage"/>
    <dc:date>2026-06-30T14:34:29.188237</dc:date>
    <dc:format>image/svg+xml</dc:format>
    <dc:creator>
     <cc:Agent>
      <dc:title>Matplotlib v3.11.0, https://matplotlib.org/</dc:title>
     </cc:Agent>
    </dc:creator>
   </cc:Work>
  </rdf:RDF>
 </metadata>
 <defs>
  <style type="text/css">*{stroke-linejoin: round; stroke-linecap: butt}</style>
 </defs>
 <g id="figure_1">
  <g id="patch_1">
   <path d="M 0 268.845156 
L 389.288281 268.845156 
L 389.288281 0 
L 0 0 
z
" style="fill: #ffffff"/>
  </g>
  <g id="axes_1">
   <g id="patch_2">
    <path d="M 47.288281 228.96 
L 382.088281 228.96 
L 382.088281 7.2 
L 47.288281 7.2 
z
" style="fill: #ffffff"/>
   </g>
   <g id="matplotlib.axis_1">
    <g id="xtick_1">
     <g id="line2d_1">
      <defs>
       <path id="m43a740bd20" d="M 0 0 
L 0 3.5 
" style="stroke: #000000; stroke-width: 0.8"/>
      </defs>
      <g>
       <use xlink:href="#m43a740bd20" x="67.635571" y="228.96" style="stroke: #000000; stroke-width: 0.8"/>
      </g>
     </g>
     <g id="text_1">
      <!-- 5.5 -->
      <g transform="translate(59.684009 243.557656) scale(0.1 -0.1)">
       <defs>
        <path id="DejaVuSans-18" d="M 691 4666 
L 3169 4666 
L 3169 4134 
L 1269 4134 
L 1269 2991 
Q 1406 3038 1543 3061 
Q 1681 3084 1819 3084 
Q 2600 3084 3056 2656 
Q 3513 2228 3513 1497 
Q 3513 744 3044 326 
Q 2575 -91 1722 -91 
Q 1428 -91 1123 -41 
Q 819 9 494 109 
L 494 744 
Q 775 591 1075 516 
Q 1375 441 1709 441 
Q 2250 441 2565 725 
Q 2881 1009 2881 1497 
Q 2881 1984 2565 2268 
Q 2250 2553 1709 2553 
Q 1456 2553 1204 2497 
Q 953 2441 691 2322 
L 691 4666 
z
" transform="scale(0.015625)"/>
        <path id="DejaVuSans-11" d="M 684 794 
L 1344 794 
L 1344 0 
L 684 0 
L 684 794 
z
" transform="scale(0.015625)"/>
       </defs>
       <use xlink:href="#DejaVuSans-18"/>
       <use xlink:href="#DejaVuSans-11" transform="translate(63.625 0)"/>
       <use xlink:href="#DejaVuSans-18" transform="translate(95.40625 0)"/>
      </g>
     </g>
    </g>
    <g id="xtick_2">
     <g id="line2d_2">
      <g>
       <use xlink:href="#m43a740bd20" x="115.491489" y="228.96" style="stroke: #000000; stroke-width: 0.8"/>
      </g>
     </g>
     <g id="text_2">
      <!-- 6.0 -->
      <g transform="translate(107.539926 243.557656) scale(0.1 -0.1)">
       <defs>
        <path id="DejaVuSans-19" d="M 2113 2584 
Q 1688 2584 1439 2293 
Q 1191 2003 1191 1497 
Q 1191 994 1439 701 
Q 1688 409 2113 409 
Q 2538 409 2786 701 
Q 3034 994 3034 1497 
Q 3034 2003 2786 2293 
Q 2538 2584 2113 2584 
z
M 3366 4563 
L 3366 3988 
Q 3128 4100 2886 4159 
Q 2644 4219 2406 4219 
Q 1781 4219 1451 3797 
Q 1122 3375 1075 2522 
Q 1259 2794 1537 2939 
Q 1816 3084 2150 3084 
Q 2853 3084 3261 2657 
Q 3669 2231 3669 1497 
Q 3669 778 3244 343 
Q 2819 -91 2113 -91 
Q 1303 -91 875 529 
Q 447 1150 447 2328 
Q 447 3434 972 4092 
Q 1497 4750 2381 4750 
Q 2619 4750 2861 4703 
Q 3103 4656 3366 4563 
z
" transform="scale(0.015625)"/>
        <path id="DejaVuSans-13" d="M 2034 4250 
Q 1547 4250 1301 3770 
Q 1056 3291 1056 2328 
Q 1056 1369 1301 889 
Q 1547 409 2034 409 
Q 2525 409 2770 889 
Q 3016 1369 3016 2328 
Q 3016 3291 2770 3770 
Q 2525 4250 2034 4250 
z
M 2034 4750 
Q 2819 4750 3233 4129 
Q 3647 3509 3647 2328 
Q 3647 1150 3233 529 
Q 2819 -91 2034 -91 
Q 1250 -91 836 529 
Q 422 1150 422 2328 
Q 422 3509 836 4129 
Q 1250 4750 2034 4750 
z
" transform="scale(0.015625)"/>
       </defs>
       <use xlink:href="#DejaVuSans-19"/>
       <use xlink:href="#DejaVuSans-11" transform="translate(63.625 0)"/>
       <use xlink:href="#DejaVuSans-13" transform="translate(95.40625 0)"/>
      </g>
     </g>
    </g>
    <g id="xtick_3">
     <g id="line2d_3">
      <g>
       <use xlink:href="#m43a740bd20" x="163.347406" y="228.96" style="stroke: #000000; stroke-width: 0.8"/>
      </g>
     </g>
     <g id="text_3">
      <!-- 6.5 -->
      <g transform="translate(155.395844 243.557656) scale(0.1 -0.1)">
       <use xlink:href="#DejaVuSans-19"/>
       <use xlink:href="#DejaVuSans-11" transform="translate(63.625 0)"/>
       <use xlink:href="#DejaVuSans-18" transform="translate(95.40625 0)"/>
      </g>
     </g>
    </g>
    <g id="xtick_4">
     <g id="line2d_4">
      <g>
       <use xlink:href="#m43a740bd20" x="211.203324" y="228.96" style="stroke: #000000; stroke-width: 0.8"/>
      </g>
     </g>
     <g id="text_4">
      <!-- 7.0 -->
      <g transform="translate(203.251762 243.557656) scale(0.1 -0.1)">
       <defs>
        <path id="DejaVuSans-1a" d="M 525 4666 
L 3525 4666 
L 3525 4397 
L 1831 0 
L 1172 0 
L 2766 4134 
L 525 4134 
L 525 4666 
z
" transform="scale(0.015625)"/>
       </defs>
       <use xlink:href="#DejaVuSans-1a"/>
       <use xlink:href="#DejaVuSans-11" transform="translate(63.625 0)"/>
       <use xlink:href="#DejaVuSans-13" transform="translate(95.40625 0)"/>
      </g>
     </g>
    </g>
    <g id="xtick_5">
     <g id="line2d_5">
      <g>
       <use xlink:href="#m43a740bd20" x="259.059242" y="228.96" style="stroke: #000000; stroke-width: 0.8"/>
      </g>
     </g>
     <g id="text_5">
      <!-- 7.5 -->
      <g transform="translate(251.107679 243.557656) scale(0.1 -0.1)">
       <use xlink:href="#DejaVuSans-1a"/>
       <use xlink:href="#DejaVuSans-11" transform="translate(63.625 0)"/>
       <use xlink:href="#DejaVuSans-18" transform="translate(95.40625 0)"/>
      </g>
     </g>
    </g>
    <g id="xtick_6">
     <g id="line2d_6">
      <g>
       <use xlink:href="#m43a740bd20" x="306.915159" y="228.96" style="stroke: #000000; stroke-width: 0.8"/>
      </g>
     </g>
     <g id="text_6">
      <!-- 8.0 -->
      <g transform="translate(298.963597 243.557656) scale(0.1 -0.1)">
       <defs>
        <path id="DejaVuSans-1b" d="M 2034 2216 
Q 1584 2216 1326 1975 
Q 1069 1734 1069 1313 
Q 1069 891 1326 650 
Q 1584 409 2034 409 
Q 2484 409 2743 651 
Q 3003 894 3003 1313 
Q 3003 1734 2745 1975 
Q 2488 2216 2034 2216 
z
M 1403 2484 
Q 997 2584 770 2862 
Q 544 3141 544 3541 
Q 544 4100 942 4425 
Q 1341 4750 2034 4750 
Q 2731 4750 3128 4425 
Q 3525 4100 3525 3541 
Q 3525 3141 3298 2862 
Q 3072 2584 2669 2484 
Q 3125 2378 3379 2068 
Q 3634 1759 3634 1313 
Q 3634 634 3220 271 
Q 2806 -91 2034 -91 
Q 1263 -91 848 271 
Q 434 634 434 1313 
Q 434 1759 690 2068 
Q 947 2378 1403 2484 
z
M 1172 3481 
Q 1172 3119 1398 2916 
Q 1625 2713 2034 2713 
Q 2441 2713 2670 2916 
Q 2900 3119 2900 3481 
Q 2900 3844 2670 4047 
Q 2441 4250 2034 4250 
Q 1625 4250 1398 4047 
Q 1172 3844 1172 3481 
z
" transform="scale(0.015625)"/>
       </defs>
       <use xlink:href="#DejaVuSans-1b"/>
       <use xlink:href="#DejaVuSans-11" transform="translate(63.625 0)"/>
       <use xlink:href="#DejaVuSans-13" transform="translate(95.40625 0)"/>
      </g>
     </g>
    </g>
    <g id="xtick_7">
     <g id="line2d_7">
      <g>
       <use xlink:href="#m43a740bd20" x="354.771077" y="228.96" style="stroke: #000000; stroke-width: 0.8"/>
      </g>
     </g>
     <g id="text_7">
      <!-- 8.5 -->
      <g transform="translate(346.819515 243.557656) scale(0.1 -0.1)">
       <use xlink:href="#DejaVuSans-1b"/>
       <use xlink:href="#DejaVuSans-11" transform="translate(63.625 0)"/>
       <use xlink:href="#DejaVuSans-18" transform="translate(95.40625 0)"/>
      </g>
     </g>
    </g>
    <g id="text_8">
     <!-- wavelength [Å] -->
     <g transform="translate(176.650781 259.242812) scale(0.1 -0.1)">
      <defs>
       <path id="DejaVuSans-5a" d="M 269 3500 
L 844 3500 
L 1563 769 
L 2278 3500 
L 2956 3500 
L 3675 769 
L 4391 3500 
L 4966 3500 
L 4050 0 
L 3372 0 
L 2619 2869 
L 1863 0 
L 1184 0 
L 269 3500 
z
" transform="scale(0.015625)"/>
       <path id="DejaVuSans-44" d="M 2194 1759 
Q 1497 1759 1228 1600 
Q 959 1441 959 1056 
Q 959 750 1161 570 
Q 1363 391 1709 391 
Q 2188 391 2477 730 
Q 2766 1069 2766 1631 
L 2766 1759 
L 2194 1759 
z
M 3341 1997 
L 3341 0 
L 2766 0 
L 2766 531 
Q 2569 213 2275 61 
Q 1981 -91 1556 -91 
Q 1019 -91 701 211 
Q 384 513 384 1019 
Q 384 1609 779 1909 
Q 1175 2209 1959 2209 
L 2766 2209 
L 2766 2266 
Q 2766 2663 2505 2880 
Q 2244 3097 1772 3097 
Q 1472 3097 1187 3025 
Q 903 2953 641 2809 
L 641 3341 
Q 956 3463 1253 3523 
Q 1550 3584 1831 3584 
Q 2591 3584 2966 3190 
Q 3341 2797 3341 1997 
z
" transform="scale(0.015625)"/>
       <path id="DejaVuSans-59" d="M 191 3500 
L 800 3500 
L 1894 563 
L 2988 3500 
L 3597 3500 
L 2284 0 
L 1503 0 
L 191 3500 
z
" transform="scale(0.015625)"/>
       <path id="DejaVuSans-48" d="M 3597 1894 
L 3597 1613 
L 953 1613 
Q 991 1019 1311 708 
Q 1631 397 2203 397 
Q 2534 397 2845 478 
Q 3156 559 3463 722 
L 3463 178 
Q 3153 47 2828 -22 
Q 2503 -91 2169 -91 
Q 1331 -91 842 396 
Q 353 884 353 1716 
Q 353 2575 817 3079 
Q 1281 3584 2069 3584 
Q 2775 3584 3186 3129 
Q 3597 2675 3597 1894 
z
M 3022 2063 
Q 3016 2534 2758 2815 
Q 2500 3097 2075 3097 
Q 1594 3097 1305 2825 
Q 1016 2553 972 2059 
L 3022 2063 
z
" transform="scale(0.015625)"/>
       <path id="DejaVuSans-4f" d="M 603 4863 
L 1178 4863 
L 1178 0 
L 603 0 
L 603 4863 
z
" transform="scale(0.015625)"/>
       <path id="DejaVuSans-51" d="M 3513 2113 
L 3513 0 
L 2938 0 
L 2938 2094 
Q 2938 2591 2744 2837 
Q 2550 3084 2163 3084 
Q 1697 3084 1428 2787 
Q 1159 2491 1159 1978 
L 1159 0 
L 581 0 
L 581 3500 
L 1159 3500 
L 1159 2956 
Q 1366 3272 1645 3428 
Q 1925 3584 2291 3584 
Q 2894 3584 3203 3211 
Q 3513 2838 3513 2113 
z
" transform="scale(0.015625)"/>
       <path id="DejaVuSans-4a" d="M 2906 1791 
Q 2906 2416 2648 2759 
Q 2391 3103 1925 3103 
Q 1463 3103 1205 2759 
Q 947 2416 947 1791 
Q 947 1169 1205 825 
Q 1463 481 1925 481 
Q 2391 481 2648 825 
Q 2906 1169 2906 1791 
z
M 3481 434 
Q 3481 -459 3084 -895 
Q 2688 -1331 1869 -1331 
Q 1566 -1331 1297 -1286 
Q 1028 -1241 775 -1147 
L 775 -588 
Q 1028 -725 1275 -790 
Q 1522 -856 1778 -856 
Q 2344 -856 2625 -561 
Q 2906 -266 2906 331 
L 2906 616 
Q 2728 306 2450 153 
Q 2172 0 1784 0 
Q 1141 0 747 490 
Q 353 981 353 1791 
Q 353 2603 747 3093 
Q 1141 3584 1784 3584 
Q 2172 3584 2450 3431 
Q 2728 3278 2906 2969 
L 2906 3500 
L 3481 3500 
L 3481 434 
z
" transform="scale(0.015625)"/>
       <path id="DejaVuSans-57" d="M 1172 4494 
L 1172 3500 
L 2356 3500 
L 2356 3053 
L 1172 3053 
L 1172 1153 
Q 1172 725 1289 603 
Q 1406 481 1766 481 
L 2356 481 
L 2356 0 
L 1766 0 
Q 1100 0 847 248 
Q 594 497 594 1153 
L 594 3053 
L 172 3053 
L 172 3500 
L 594 3500 
L 594 4494 
L 1172 4494 
z
" transform="scale(0.015625)"/>
       <path id="DejaVuSans-4b" d="M 3513 2113 
L 3513 0 
L 2938 0 
L 2938 2094 
Q 2938 2591 2744 2837 
Q 2550 3084 2163 3084 
Q 1697 3084 1428 2787 
Q 1159 2491 1159 1978 
L 1159 0 
L 581 0 
L 581 4863 
L 1159 4863 
L 1159 2956 
Q 1366 3272 1645 3428 
Q 1925 3584 2291 3584 
Q 2894 3584 3203 3211 
Q 3513 2838 3513 2113 
z
" transform="scale(0.015625)"/>
       <path id="DejaVuSans-3" transform="scale(0.015625)"/>
       <path id="DejaVuSans-3e" d="M 550 4863 
L 1875 4863 
L 1875 4416 
L 1125 4416 
L 1125 -397 
L 1875 -397 
L 1875 -844 
L 550 -844 
L 550 4863 
z
" transform="scale(0.015625)"/>
       <path id="DejaVuSans-87" d="M 2663 5081 
Q 2663 5278 2523 5417 
Q 2384 5556 2188 5556 
Q 1988 5556 1852 5420 
Q 1716 5284 1716 5081 
Q 1716 4884 1853 4746 
Q 1991 4609 2188 4609 
Q 2384 4609 2523 4746 
Q 2663 4884 2663 5081 
z
M 2188 4044 
L 1338 1722 
L 3041 1722 
L 2188 4044 
z
M 1716 4366 
Q 1525 4494 1428 4673 
Q 1331 4853 1331 5081 
Q 1331 5441 1579 5691 
Q 1828 5941 2188 5941 
Q 2544 5941 2795 5689 
Q 3047 5438 3047 5081 
Q 3047 4863 2948 4678 
Q 2850 4494 2663 4366 
L 4325 0 
L 3669 0 
L 3244 1197 
L 1141 1197 
L 716 0 
L 50 0 
L 1716 4366 
z
" transform="scale(0.015625)"/>
       <path id="DejaVuSans-40" d="M 1947 4863 
L 1947 -844 
L 622 -844 
L 622 -397 
L 1369 -397 
L 1369 4416 
L 622 4416 
L 622 4863 
L 1947 4863 
z
" transform="scale(0.015625)"/>
      </defs>
      <use xlink:href="#DejaVuSans-5a"/>
      <use xlink:href="#DejaVuSans-44" transform="translate(81.78125 0)"/>
      <use xlink:href="#DejaVuSans-59" transform="translate(143.0625 0)"/>
      <use xlink:href="#DejaVuSans-48" transform="translate(202.25 0)"/>
      <use xlink:href="#DejaVuSans-4f" transform="translate(263.78125 0)"/>
      <use xlink:href="#DejaVuSans-48" transform="translate(291.5625 0)"/>
      <use xlink:href="#DejaVuSans-51" transform="translate(353.09375 0)"/>
      <use xlink:href="#DejaVuSans-4a" transform="translate(416.46875 0)"/>
      <use xlink:href="#DejaVuSans-57" transform="translate(479.953125 0)"/>
      <use xlink:href="#DejaVuSans-4b" transform="translate(519.15625 0)"/>
      <use xlink:href="#DejaVuSans-3" transform="translate(582.53125 0)"/>
      <use xlink:href="#DejaVuSans-3e" transform="translate(614.3125 0)"/>
      <use xlink:href="#DejaVuSans-87" transform="translate(653.328125 0)"/>
      <use xlink:href="#DejaVuSans-40" transform="translate(721.734375 0)"/>
     </g>
    </g>
   </g>
   <g id="matplotlib.axis_2">
    <g id="ytick_1">
     <g id="line2d_8">
      <defs>
       <path id="m8cf25a9853" d="M 0 0 
L -3.5 0 
" style="stroke: #000000; stroke-width: 0.8"/>
      </defs>
      <g>
       <use xlink:href="#m8cf25a9853" x="47.288281" y="218.88" style="stroke: #000000; stroke-width: 0.8"/>
      </g>
     </g>
     <g id="text_9">
      <!-- 0 -->
      <g transform="translate(33.925781 222.678828) scale(0.1 -0.1)">
       <use xlink:href="#DejaVuSans-13"/>
      </g>
     </g>
    </g>
    <g id="ytick_2">
     <g id="line2d_9">
      <g>
       <use xlink:href="#m8cf25a9853" x="47.288281" y="176.077452" style="stroke: #000000; stroke-width: 0.8"/>
      </g>
     </g>
     <g id="text_10">
      <!-- 100 -->
      <g transform="translate(21.200781 179.87628) scale(0.1 -0.1)">
       <defs>
        <path id="DejaVuSans-14" d="M 794 531 
L 1825 531 
L 1825 4091 
L 703 3866 
L 703 4441 
L 1819 4666 
L 2450 4666 
L 2450 531 
L 3481 531 
L 3481 0 
L 794 0 
L 794 531 
z
" transform="scale(0.015625)"/>
       </defs>
       <use xlink:href="#DejaVuSans-14"/>
       <use xlink:href="#DejaVuSans-13" transform="translate(63.625 0)"/>
       <use xlink:href="#DejaVuSans-13" transform="translate(127.25 0)"/>
      </g>
     </g>
    </g>
    <g id="ytick_3">
     <g id="line2d_10">
      <g>
       <use xlink:href="#m8cf25a9853" x="47.288281" y="133.274904" style="stroke: #000000; stroke-width: 0.8"/>
      </g>
     </g>
     <g id="text_11">
      <!-- 200 -->
      <g transform="translate(21.200781 137.073733) scale(0.1 -0.1)">
       <defs>
        <path id="DejaVuSans-15" d="M 1228 531 
L 3431 531 
L 3431 0 
L 469 0 
L 469 531 
Q 828 903 1448 1529 
Q 2069 2156 2228 2338 
Q 2531 2678 2651 2914 
Q 2772 3150 2772 3378 
Q 2772 3750 2511 3984 
Q 2250 4219 1831 4219 
Q 1534 4219 1204 4116 
Q 875 4013 500 3803 
L 500 4441 
Q 881 4594 1212 4672 
Q 1544 4750 1819 4750 
Q 2544 4750 2975 4387 
Q 3406 4025 3406 3419 
Q 3406 3131 3298 2873 
Q 3191 2616 2906 2266 
Q 2828 2175 2409 1742 
Q 1991 1309 1228 531 
z
" transform="scale(0.015625)"/>
       </defs>
       <use xlink:href="#DejaVuSans-15"/>
       <use xlink:href="#DejaVuSans-13" transform="translate(63.625 0)"/>
       <use xlink:href="#DejaVuSans-13" transform="translate(127.25 0)"/>
      </g>
     </g>
    </g>
    <g id="ytick_4">
     <g id="line2d_11">
      <g>
       <use xlink:href="#m8cf25a9853" x="47.288281" y="90.472357" style="stroke: #000000; stroke-width: 0.8"/>
      </g>
     </g>
     <g id="text_12">
      <!-- 300 -->
      <g transform="translate(21.200781 94.271185) scale(0.1 -0.1)">
       <defs>
        <path id="DejaVuSans-16" d="M 2597 2516 
Q 3050 2419 3304 2112 
Q 3559 1806 3559 1356 
Q 3559 666 3084 287 
Q 2609 -91 1734 -91 
Q 1441 -91 1130 -33 
Q 819 25 488 141 
L 488 750 
Q 750 597 1062 519 
Q 1375 441 1716 441 
Q 2309 441 2620 675 
Q 2931 909 2931 1356 
Q 2931 1769 2642 2001 
Q 2353 2234 1838 2234 
L 1294 2234 
L 1294 2753 
L 1863 2753 
Q 2328 2753 2575 2939 
Q 2822 3125 2822 3475 
Q 2822 3834 2567 4026 
Q 2313 4219 1838 4219 
Q 1578 4219 1281 4162 
Q 984 4106 628 3988 
L 628 4550 
Q 988 4650 1302 4700 
Q 1616 4750 1894 4750 
Q 2613 4750 3031 4423 
Q 3450 4097 3450 3541 
Q 3450 3153 3228 2886 
Q 3006 2619 2597 2516 
z
" transform="scale(0.015625)"/>
       </defs>
       <use xlink:href="#DejaVuSans-16"/>
       <use xlink:href="#DejaVuSans-13" transform="translate(63.625 0)"/>
       <use xlink:href="#DejaVuSans-13" transform="translate(127.25 0)"/>
      </g>
     </g>
    </g>
    <g id="ytick_5">
     <g id="line2d_12">
      <g>
       <use xlink:href="#m8cf25a9853" x="47.288281" y="47.669809" style="stroke: #000000; stroke-width: 0.8"/>
      </g>
     </g>
     <g id="text_13">
      <!-- 400 -->
      <g transform="translate(21.200781 51.468637) scale(0.1 -0.1)">
       <defs>
        <path id="DejaVuSans-17" d="M 2419 4116 
L 825 1625 
L 2419 1625 
L 2419 4116 
z
M 2253 4666 
L 3047 4666 
L 3047 1625 
L 3713 1625 
L 3713 1100 
L 3047 1100 
L 3047 0 
L 2419 0 
L 2419 1100 
L 313 1100 
L 313 1709 
L 2253 4666 
z
" transform="scale(0.015625)"/>
       </defs>
       <use xlink:href="#DejaVuSans-17"/>
       <use xlink:href="#DejaVuSans-13" transform="translate(63.625 0)"/>
       <use xlink:href="#DejaVuSans-13" transform="translate(127.25 0)"/>
      </g>
     </g>
    </g>
    <g id="text_14">
     <!-- [counts] -->
     <g transform="translate(14.798438 138.6925) rotate(-90) scale(0.1 -0.1)">
      <defs>
       <path id="DejaVuSans-46" d="M 3122 3366 
L 3122 2828 
Q 2878 2963 2633 3030 
Q 2388 3097 2138 3097 
Q 1578 3097 1268 2742 
Q 959 2388 959 1747 
Q 959 1106 1268 751 
Q 1578 397 2138 397 
Q 2388 397 2633 464 
Q 2878 531 3122 666 
L 3122 134 
Q 2881 22 2623 -34 
Q 2366 -91 2075 -91 
Q 1284 -91 818 406 
Q 353 903 353 1747 
Q 353 2603 823 3093 
Q 1294 3584 2113 3584 
Q 2378 3584 2631 3529 
Q 2884 3475 3122 3366 
z
" transform="scale(0.015625)"/>
       <path id="DejaVuSans-52" d="M 1959 3097 
Q 1497 3097 1228 2736 
Q 959 2375 959 1747 
Q 959 1119 1226 758 
Q 1494 397 1959 397 
Q 2419 397 2687 759 
Q 2956 1122 2956 1747 
Q 2956 2369 2687 2733 
Q 2419 3097 1959 3097 
z
M 1959 3584 
Q 2709 3584 3137 3096 
Q 3566 2609 3566 1747 
Q 3566 888 3137 398 
Q 2709 -91 1959 -91 
Q 1206 -91 779 398 
Q 353 888 353 1747 
Q 353 2609 779 3096 
Q 1206 3584 1959 3584 
z
" transform="scale(0.015625)"/>
       <path id="DejaVuSans-58" d="M 544 1381 
L 544 3500 
L 1119 3500 
L 1119 1403 
Q 1119 906 1312 657 
Q 1506 409 1894 409 
Q 2359 409 2629 706 
Q 2900 1003 2900 1516 
L 2900 3500 
L 3475 3500 
L 3475 0 
L 2900 0 
L 2900 538 
Q 2691 219 2414 64 
Q 2138 -91 1772 -91 
Q 1169 -91 856 284 
Q 544 659 544 1381 
z
M 1991 3584 
L 1991 3584 
z
" transform="scale(0.015625)"/>
       <path id="DejaVuSans-56" d="M 2834 3397 
L 2834 2853 
Q 2591 2978 2328 3040 
Q 2066 3103 1784 3103 
Q 1356 3103 1142 2972 
Q 928 2841 928 2578 
Q 928 2378 1081 2264 
Q 1234 2150 1697 2047 
L 1894 2003 
Q 2506 1872 2764 1633 
Q 3022 1394 3022 966 
Q 3022 478 2636 193 
Q 2250 -91 1575 -91 
Q 1294 -91 989 -36 
Q 684 19 347 128 
L 347 722 
Q 666 556 975 473 
Q 1284 391 1588 391 
Q 1994 391 2212 530 
Q 2431 669 2431 922 
Q 2431 1156 2273 1281 
Q 2116 1406 1581 1522 
L 1381 1569 
Q 847 1681 609 1914 
Q 372 2147 372 2553 
Q 372 3047 722 3315 
Q 1072 3584 1716 3584 
Q 2034 3584 2315 3537 
Q 2597 3491 2834 3397 
z
" transform="scale(0.015625)"/>
      </defs>
      <use xlink:href="#DejaVuSans-3e"/>
      <use xlink:href="#DejaVuSans-46" transform="translate(39.015625 0)"/>
      <use xlink:href="#DejaVuSans-52" transform="translate(94 0)"/>
      <use xlink:href="#DejaVuSans-58" transform="translate(155.1875 0)"/>
      <use xlink:href="#DejaVuSans-51" transform="translate(218.5625 0)"/>
      <use xlink:href="#DejaVuSans-57" transform="translate(281.9375 0)"/>
      <use xlink:href="#DejaVuSans-56" transform="translate(321.140625 0)"/>
      <use xlink:href="#DejaVuSans-40" transform="translate(373.234375 0)"/>
     </g>
    </g>
   </g>
   <g id="line2d_13">
    <path d="M 121.638559 218.451975 
L 124.509915 218.451975 
L 124.509915 218.023949 
L 127.38127 218.023949 
L 127.38127 218.88 
L 130.252625 218.88 
L 130.252625 217.595924 
L 133.12398 217.595924 
L 133.12398 218.023949 
L 135.995335 218.023949 
L 135.995335 218.451975 
L 138.86669 218.451975 
L 138.86669 216.311847 
L 141.738045 216.311847 
L 141.738045 217.167898 
L 147.480755 217.167898 
L 147.480755 216.739873 
L 150.35211 216.739873 
L 150.35211 214.17172 
L 153.223465 214.17172 
L 153.223465 207.751338 
L 156.09482 207.751338 
L 156.09482 208.607389 
L 158.966175 208.607389 
L 158.966175 212.459618 
L 161.83753 212.459618 
L 161.83753 212.887643 
L 164.708885 212.887643 
L 164.708885 211.175541 
L 167.58024 211.175541 
L 167.58024 208.607389 
L 170.451595 208.607389 
L 170.451595 209.035414 
L 173.322951 209.035414 
L 173.322951 204.755159 
L 176.194306 204.755159 
L 176.194306 202.615032 
L 179.065661 202.615032 
L 179.065661 201.330955 
L 181.937016 201.330955 
L 181.937016 197.478726 
L 184.808371 197.478726 
L 184.808371 194.910573 
L 187.679726 194.910573 
L 187.679726 167.516943 
L 190.551081 167.516943 
L 190.551081 167.088917 
L 193.422436 167.088917 
L 193.422436 170.513121 
L 196.293791 170.513121 
L 196.293791 161.952611 
L 199.165146 161.952611 
L 199.165146 159.812484 
L 202.036501 159.812484 
L 202.036501 123.858344 
L 204.907856 123.858344 
L 204.907856 112.729682 
L 207.779211 112.729682 
L 207.779211 107.16535 
L 210.650566 107.16535 
L 210.650566 105.025223 
L 213.521921 105.025223 
L 213.521921 107.593376 
L 216.393276 107.593376 
L 216.393276 51.094013 
L 219.264631 51.094013 
L 219.264631 48.953885 
L 222.135987 48.953885 
L 222.135987 47.669809 
L 225.007342 47.669809 
L 225.007342 57.086369 
L 227.878697 57.086369 
L 227.878697 42.533503 
L 233.621407 42.533503 
L 233.621407 27.980637 
L 236.492762 27.980637 
L 236.492762 48.52586 
L 239.364117 48.52586 
L 239.364117 33.972994 
L 242.235472 33.972994 
L 242.235472 46.385732 
L 245.106827 46.385732 
L 245.106827 62.222675 
L 247.978182 62.222675 
L 247.978182 76.775541 
L 250.849537 76.775541 
L 250.849537 87.904204 
L 253.720892 87.904204 
L 253.720892 54.946242 
L 256.592247 54.946242 
L 256.592247 38.253248 
L 259.463602 38.253248 
L 259.463602 68.643057 
L 262.334957 68.643057 
L 262.334957 68.215032 
L 265.206312 68.215032 
L 265.206312 80.199745 
L 268.077668 80.199745 
L 268.077668 61.366624 
L 270.949023 61.366624 
L 270.949023 65.646879 
L 273.820378 65.646879 
L 273.820378 94.752611 
L 276.691733 94.752611 
L 276.691733 93.468535 
L 279.563088 93.468535 
L 279.563088 93.896561 
L 282.434443 93.896561 
L 282.434443 122.146242 
L 288.177153 122.146242 
L 288.177153 126.426497 
L 291.048508 126.426497 
L 291.048508 104.169172 
L 293.919863 104.169172 
L 293.919863 76.347516 
L 296.791218 76.347516 
L 296.791218 76.775541 
L 299.662573 76.775541 
L 299.662573 107.16535 
L 302.533928 107.16535 
L 302.533928 110.589554 
L 305.405283 110.589554 
L 305.405283 110.161529 
L 308.276638 110.161529 
L 308.276638 100.316943 
L 311.147993 100.316943 
L 311.147993 118.294013 
L 314.019348 118.294013 
L 314.019348 134.130955 
L 316.890704 134.130955 
L 316.890704 124.286369 
L 319.762059 124.286369 
L 319.762059 134.558981 
L 322.633414 134.558981 
L 322.633414 137.555159 
L 325.504769 137.555159 
L 325.504769 146.543694 
L 328.376124 146.543694 
L 328.376124 156.816306 
L 331.247479 156.816306 
L 331.247479 134.130955 
L 334.118834 134.130955 
L 334.118834 151.251975 
L 336.990189 151.251975 
L 336.990189 169.65707 
L 339.861544 169.65707 
L 339.861544 181.213758 
L 342.732899 181.213758 
L 342.732899 168.372994 
L 345.604254 168.372994 
L 345.604254 184.209936 
L 348.475609 184.209936 
L 348.475609 196.19465 
L 351.346964 196.19465 
L 351.346964 204.755159 
L 354.218319 204.755159 
L 354.218319 210.31949 
L 357.089674 210.31949 
L 357.089674 218.88 
L 362.832384 218.88 
L 362.832384 218.88 
" clip-path="url(#pf220977bfe)" style="fill: none; stroke: #1f77b4; stroke-width: 1.5; stroke-linecap: square"/>
   </g>
   <g id="line2d_14">
    <path d="M 121.638559 218.88 
L 150.35211 218.88 
L 150.35211 210.747516 
L 153.223465 210.747516 
L 153.223465 215.455796 
L 156.09482 215.455796 
L 156.09482 218.451975 
L 158.966175 218.451975 
L 158.966175 218.88 
L 167.58024 218.88 
L 167.58024 211.175541 
L 170.451595 211.175541 
L 170.451595 218.88 
L 173.322951 218.88 
L 173.322951 204.327134 
L 176.194306 204.327134 
L 176.194306 196.622675 
L 179.065661 196.622675 
L 179.065661 202.187006 
L 181.937016 202.187006 
L 181.937016 188.062166 
L 184.808371 188.062166 
L 184.808371 184.209936 
L 187.679726 184.209936 
L 187.679726 184.637962 
L 190.551081 184.637962 
L 190.551081 172.653248 
L 193.422436 172.653248 
L 193.422436 171.369172 
L 196.293791 171.369172 
L 196.293791 143.547516 
L 199.165146 143.547516 
L 199.165146 162.380637 
L 202.036501 162.380637 
L 202.036501 141.407389 
L 204.907856 141.407389 
L 204.907856 96.464713 
L 207.779211 96.464713 
L 207.779211 102.885096 
L 210.650566 102.885096 
L 210.650566 93.896561 
L 213.521921 93.896561 
L 213.521921 58.370446 
L 216.393276 58.370446 
L 216.393276 99.888917 
L 219.264631 99.888917 
L 219.264631 69.071083 
L 222.135987 69.071083 
L 222.135987 61.366624 
L 225.007342 61.366624 
L 225.007342 17.28 
L 227.878697 17.28 
L 227.878697 52.806115 
L 230.750052 52.806115 
L 230.750052 51.950064 
L 233.621407 51.950064 
L 233.621407 39.109299 
L 236.492762 39.109299 
L 236.492762 47.669809 
L 239.364117 47.669809 
L 239.364117 73.351338 
L 242.235472 73.351338 
L 242.235472 45.529682 
L 245.106827 45.529682 
L 245.106827 62.650701 
L 247.978182 62.650701 
L 247.978182 80.627771 
L 250.849537 80.627771 
L 250.849537 36.969172 
L 253.720892 36.969172 
L 253.720892 67.358981 
L 256.592247 67.358981 
L 256.592247 59.654522 
L 259.463602 59.654522 
L 259.463602 74.207389 
L 262.334957 74.207389 
L 262.334957 67.787006 
L 265.206312 67.787006 
L 265.206312 72.067261 
L 268.077668 72.067261 
L 268.077668 71.21121 
L 270.949023 71.21121 
L 270.949023 114.441783 
L 273.820378 114.441783 
L 273.820378 41.677452 
L 276.691733 41.677452 
L 276.691733 109.733503 
L 279.563088 109.733503 
L 279.563088 101.601019 
L 282.434443 101.601019 
L 282.434443 118.294013 
L 285.305798 118.294013 
L 285.305798 91.328408 
L 288.177153 91.328408 
L 288.177153 94.752611 
L 291.048508 94.752611 
L 291.048508 92.184459 
L 293.919863 92.184459 
L 293.919863 121.290191 
L 296.791218 121.290191 
L 296.791218 98.176815 
L 299.662573 98.176815 
L 299.662573 90.472357 
L 302.533928 90.472357 
L 302.533928 118.294013 
L 305.405283 118.294013 
L 305.405283 118.722038 
L 308.276638 118.722038 
L 308.276638 99.032866 
L 311.147993 99.032866 
L 311.147993 129.422675 
L 314.019348 129.422675 
L 314.019348 111.445605 
L 316.890704 111.445605 
L 316.890704 118.722038 
L 319.762059 118.722038 
L 319.762059 138.41121 
L 322.633414 138.41121 
L 322.633414 131.134777 
L 325.504769 131.134777 
L 325.504769 143.547516 
L 328.376124 143.547516 
L 328.376124 163.664713 
L 331.247479 163.664713 
L 331.247479 148.255796 
L 334.118834 148.255796 
L 334.118834 162.808662 
L 336.990189 162.808662 
L 336.990189 151.251975 
L 339.861544 151.251975 
L 339.861544 164.94879 
L 342.732899 164.94879 
L 342.732899 180.357707 
L 345.604254 180.357707 
L 345.604254 185.065987 
L 348.475609 185.065987 
L 348.475609 196.19465 
L 351.346964 196.19465 
L 351.346964 195.338599 
L 354.218319 195.338599 
L 354.218319 204.327134 
L 357.089674 204.327134 
L 357.089674 208.607389 
L 359.961029 208.607389 
L 359.961029 215.027771 
L 362.832384 215.027771 
L 362.832384 215.027771 
" clip-path="url(#pf220977bfe)" style="fill: none; stroke: #ff7f0e; stroke-width: 1.5; stroke-linecap: square"/>
   </g>
   <g id="line2d_15">
    <path d="M 121.638559 218.88 
L 150.35211 218.88 
L 150.35211 210.747516 
L 153.223465 210.747516 
L 153.223465 216.311847 
L 156.09482 216.311847 
L 156.09482 216.739873 
L 158.966175 216.739873 
L 158.966175 215.455796 
L 161.83753 215.455796 
L 161.83753 214.17172 
L 164.708885 214.17172 
L 164.708885 215.455796 
L 167.58024 215.455796 
L 167.58024 211.603567 
L 170.451595 211.603567 
L 170.451595 218.88 
L 173.322951 218.88 
L 173.322951 207.323312 
L 176.194306 207.323312 
L 176.194306 202.187006 
L 179.065661 202.187006 
L 179.065661 195.338599 
L 181.937016 195.338599 
L 181.937016 191.914395 
L 184.808371 191.914395 
L 184.808371 183.781911 
L 187.679726 183.781911 
L 187.679726 184.637962 
L 190.551081 184.637962 
L 190.551081 179.073631 
L 193.422436 179.073631 
L 193.422436 158.528408 
L 196.293791 158.528408 
L 196.293791 156.38828 
L 199.165146 156.38828 
L 199.165146 161.096561 
L 202.036501 161.096561 
L 202.036501 125.14242 
L 204.907856 125.14242 
L 204.907856 110.589554 
L 207.779211 110.589554 
L 207.779211 88.760255 
L 210.650566 88.760255 
L 210.650566 102.885096 
L 213.521921 102.885096 
L 213.521921 62.650701 
L 216.393276 62.650701 
L 216.393276 101.601019 
L 219.264631 101.601019 
L 219.264631 47.669809 
L 222.135987 47.669809 
L 222.135987 70.355159 
L 225.007342 70.355159 
L 225.007342 37.397197 
L 227.878697 37.397197 
L 227.878697 29.264713 
L 230.750052 29.264713 
L 230.750052 66.074904 
L 233.621407 66.074904 
L 233.621407 43.81758 
L 236.492762 43.81758 
L 236.492762 54.946242 
L 239.364117 54.946242 
L 239.364117 63.506752 
L 242.235472 63.506752 
L 242.235472 59.226497 
L 245.106827 59.226497 
L 245.106827 48.953885 
L 247.978182 48.953885 
L 247.978182 64.362803 
L 250.849537 64.362803 
L 250.849537 52.806115 
L 253.720892 52.806115 
L 253.720892 66.930955 
L 256.592247 66.930955 
L 256.592247 57.514395 
L 259.463602 57.514395 
L 259.463602 72.495287 
L 262.334957 72.495287 
L 262.334957 77.631592 
L 265.206312 77.631592 
L 265.206312 59.654522 
L 268.077668 59.654522 
L 268.077668 79.343694 
L 270.949023 79.343694 
L 270.949023 95.180637 
L 273.820378 95.180637 
L 273.820378 55.802293 
L 276.691733 55.802293 
L 276.691733 108.449427 
L 279.563088 108.449427 
L 279.563088 105.453248 
L 282.434443 105.453248 
L 282.434443 104.169172 
L 285.305798 104.169172 
L 285.305798 102.45707 
L 288.177153 102.45707 
L 288.177153 84.908025 
L 291.048508 84.908025 
L 291.048508 92.612484 
L 293.919863 92.612484 
L 293.919863 122.574268 
L 296.791218 122.574268 
L 296.791218 100.316943 
L 299.662573 100.316943 
L 299.662573 88.332229 
L 302.533928 88.332229 
L 302.533928 118.722038 
L 305.405283 118.722038 
L 305.405283 107.593376 
L 308.276638 107.593376 
L 308.276638 118.294013 
L 311.147993 118.294013 
L 311.147993 125.14242 
L 314.019348 125.14242 
L 314.019348 120.862166 
L 316.890704 120.862166 
L 316.890704 108.877452 
L 319.762059 108.877452 
L 319.762059 147.827771 
L 322.633414 147.827771 
L 322.633414 125.570446 
L 325.504769 125.570446 
L 325.504769 153.820127 
L 328.376124 153.820127 
L 328.376124 147.399745 
L 331.247479 147.399745 
L 331.247479 150.395924 
L 334.118834 150.395924 
L 334.118834 169.65707 
L 336.990189 169.65707 
L 336.990189 140.979363 
L 339.861544 140.979363 
L 339.861544 168.801019 
L 342.732899 168.801019 
L 342.732899 184.637962 
L 345.604254 184.637962 
L 345.604254 185.922038 
L 348.475609 185.922038 
L 348.475609 194.054522 
L 351.346964 194.054522 
L 351.346964 196.19465 
L 354.218319 196.19465 
L 354.218319 202.187006 
L 357.089674 202.187006 
L 357.089674 209.463439 
L 359.961029 209.463439 
L 359.961029 215.455796 
L 362.832384 215.455796 
L 362.832384 215.455796 
" clip-path="url(#pf220977bfe)" style="fill: none; stroke: #2ca02c; stroke-width: 1.5; stroke-linecap: square"/>
   </g>
   <g id="line2d_16">
    <path d="M 121.638559 218.88 
L 150.35211 218.88 
L 150.35211 214.599745 
L 153.223465 214.599745 
L 153.223465 218.88 
L 158.966175 218.88 
L 158.966175 214.17172 
L 161.83753 214.17172 
L 161.83753 218.88 
L 164.708885 218.88 
L 164.708885 218.451975 
L 167.58024 218.451975 
L 167.58024 212.887643 
L 170.451595 212.887643 
L 170.451595 218.88 
L 173.322951 218.88 
L 173.322951 205.183185 
L 176.194306 205.183185 
L 176.194306 210.31949 
L 179.065661 210.31949 
L 179.065661 197.478726 
L 181.937016 197.478726 
L 181.937016 192.34242 
L 184.808371 192.34242 
L 184.808371 189.346242 
L 187.679726 189.346242 
L 187.679726 178.21758 
L 193.422436 178.21758 
L 193.422436 163.236688 
L 196.293791 163.236688 
L 196.293791 154.248153 
L 199.165146 154.248153 
L 199.165146 149.539873 
L 202.036501 149.539873 
L 202.036501 131.562803 
L 204.907856 131.562803 
L 204.907856 124.714395 
L 207.779211 124.714395 
L 207.779211 87.048153 
L 213.521921 87.048153 
L 213.521921 65.646879 
L 216.393276 65.646879 
L 216.393276 99.888917 
L 219.264631 99.888917 
L 219.264631 50.665987 
L 222.135987 50.665987 
L 222.135987 77.631592 
L 225.007342 77.631592 
L 225.007342 40.393376 
L 227.878697 40.393376 
L 227.878697 28.836688 
L 230.750052 28.836688 
L 230.750052 57.94242 
L 233.621407 57.94242 
L 233.621407 46.813758 
L 236.492762 46.813758 
L 236.492762 59.654522 
L 239.364117 59.654522 
L 239.364117 55.374268 
L 242.235472 55.374268 
L 242.235472 40.821401 
L 245.106827 40.821401 
L 245.106827 64.362803 
L 247.978182 64.362803 
L 247.978182 78.915669 
L 250.849537 78.915669 
L 250.849537 53.23414 
L 253.720892 53.23414 
L 253.720892 60.510573 
L 256.592247 60.510573 
L 256.592247 53.23414 
L 259.463602 53.23414 
L 259.463602 75.063439 
L 262.334957 75.063439 
L 262.334957 69.071083 
L 265.206312 69.071083 
L 265.206312 70.783185 
L 268.077668 70.783185 
L 268.077668 80.627771 
L 270.949023 80.627771 
L 270.949023 87.904204 
L 273.820378 87.904204 
L 273.820378 68.643057 
L 276.691733 68.643057 
L 276.691733 98.604841 
L 279.563088 98.604841 
L 279.563088 108.449427 
L 282.434443 108.449427 
L 282.434443 102.885096 
L 285.305798 102.885096 
L 285.305798 96.036688 
L 288.177153 96.036688 
L 288.177153 86.192102 
L 291.048508 86.192102 
L 291.048508 104.597197 
L 293.919863 104.597197 
L 293.919863 103.741146 
L 296.791218 103.741146 
L 296.791218 114.013758 
L 299.662573 114.013758 
L 299.662573 79.343694 
L 302.533928 79.343694 
L 302.533928 128.138599 
L 305.405283 128.138599 
L 305.405283 96.892739 
L 308.276638 96.892739 
L 308.276638 125.570446 
L 311.147993 125.570446 
L 311.147993 122.574268 
L 314.019348 122.574268 
L 314.019348 121.718217 
L 316.890704 121.718217 
L 316.890704 115.72586 
L 319.762059 115.72586 
L 319.762059 136.271083 
L 322.633414 136.271083 
L 322.633414 131.990828 
L 325.504769 131.990828 
L 325.504769 152.964076 
L 328.376124 152.964076 
L 328.376124 138.41121 
L 331.247479 138.41121 
L 331.247479 153.392102 
L 334.118834 153.392102 
L 334.118834 171.797197 
L 336.990189 171.797197 
L 336.990189 137.983185 
L 339.861544 137.983185 
L 339.861544 165.376815 
L 342.732899 165.376815 
L 342.732899 185.922038 
L 345.604254 185.922038 
L 345.604254 187.63414 
L 348.475609 187.63414 
L 348.475609 193.198471 
L 351.346964 193.198471 
L 351.346964 197.050701 
L 354.218319 197.050701 
L 354.218319 204.755159 
L 357.089674 204.755159 
L 357.089674 208.607389 
L 359.961029 208.607389 
L 359.961029 218.88 
L 362.832384 218.88 
L 362.832384 218.88 
" clip-path="url(#pf220977bfe)" style="fill: none; stroke: #d62728; stroke-width: 1.5; stroke-linecap: square"/>
   </g>
   <g id="line2d_17">
    <path d="M 62.506463 218.451975 
L 65.377818 218.451975 
L 65.377818 218.88 
L 82.605948 218.88 
L 82.605948 218.451975 
L 85.477304 218.451975 
L 85.477304 218.88 
L 88.348659 218.88 
L 88.348659 218.451975 
L 94.091369 218.451975 
L 94.091369 218.88 
L 99.834079 218.88 
L 99.834079 218.451975 
L 105.576789 218.451975 
L 105.576789 218.88 
L 108.448144 218.88 
L 108.448144 218.451975 
L 114.190854 218.451975 
L 114.190854 218.88 
L 117.062209 218.88 
L 117.062209 218.451975 
L 119.933564 218.451975 
L 119.933564 218.023949 
L 122.804919 218.023949 
L 122.804919 218.451975 
L 125.676274 218.451975 
L 125.676274 217.595924 
L 128.547629 217.595924 
L 128.547629 218.451975 
L 131.418985 218.451975 
L 131.418985 218.023949 
L 134.29034 218.023949 
L 134.29034 217.167898 
L 137.161695 217.167898 
L 137.161695 217.595924 
L 140.03305 217.595924 
L 140.03305 216.311847 
L 142.904405 216.311847 
L 142.904405 215.027771 
L 145.77576 215.027771 
L 145.77576 217.595924 
L 148.647115 217.595924 
L 148.647115 214.599745 
L 151.51847 214.599745 
L 151.51847 212.887643 
L 154.389825 212.887643 
L 154.389825 214.17172 
L 157.26118 214.17172 
L 157.26118 212.459618 
L 160.132535 212.459618 
L 160.132535 211.603567 
L 163.00389 211.603567 
L 163.00389 207.323312 
L 165.875245 207.323312 
L 165.875245 208.607389 
L 168.7466 208.607389 
L 168.7466 206.895287 
L 171.617955 206.895287 
L 171.617955 200.046879 
L 174.48931 200.046879 
L 174.48931 205.183185 
L 177.360665 205.183185 
L 177.360665 198.762803 
L 180.232021 198.762803 
L 180.232021 194.054522 
L 183.103376 194.054522 
L 183.103376 189.774268 
L 185.974731 189.774268 
L 185.974731 186.778089 
L 188.846086 186.778089 
L 188.846086 178.21758 
L 191.717441 178.21758 
L 191.717441 177.789554 
L 194.588796 177.789554 
L 194.588796 155.960255 
L 197.460151 155.960255 
L 197.460151 153.392102 
L 200.331506 153.392102 
L 200.331506 142.263439 
L 203.202861 142.263439 
L 203.202861 119.150064 
L 206.074216 119.150064 
L 206.074216 103.313121 
L 208.945571 103.313121 
L 208.945571 90.044331 
L 211.816926 90.044331 
L 211.816926 82.767898 
L 214.688281 82.767898 
L 214.688281 84.48 
L 217.559636 84.48 
L 217.559636 76.775541 
L 220.430991 76.775541 
L 220.430991 51.950064 
L 223.302346 51.950064 
L 223.302346 57.94242 
L 226.173701 57.94242 
L 226.173701 49.381911 
L 229.045057 49.381911 
L 229.045057 55.374268 
L 231.916412 55.374268 
L 231.916412 40.821401 
L 234.787767 40.821401 
L 234.787767 54.090191 
L 237.659122 54.090191 
L 237.659122 53.23414 
L 240.530477 53.23414 
L 240.530477 44.673631 
L 243.401832 44.673631 
L 243.401832 62.222675 
L 246.273187 62.222675 
L 246.273187 68.643057 
L 249.144542 68.643057 
L 249.144542 57.514395 
L 252.015897 57.514395 
L 252.015897 56.230318 
L 254.887252 56.230318 
L 254.887252 73.351338 
L 257.758607 73.351338 
L 257.758607 63.506752 
L 260.629962 63.506752 
L 260.629962 63.078726 
L 263.501317 63.078726 
L 263.501317 70.783185 
L 266.372672 70.783185 
L 266.372672 73.351338 
L 269.244027 73.351338 
L 269.244027 86.192102 
L 272.115382 86.192102 
L 272.115382 74.207389 
L 274.986738 74.207389 
L 274.986738 91.328408 
L 277.858093 91.328408 
L 277.858093 99.888917 
L 280.729448 99.888917 
L 280.729448 102.029045 
L 283.600803 102.029045 
L 283.600803 110.161529 
L 286.472158 110.161529 
L 286.472158 87.904204 
L 289.343513 87.904204 
L 289.343513 99.460892 
L 292.214868 99.460892 
L 292.214868 96.464713 
L 295.086223 96.464713 
L 295.086223 101.601019 
L 297.957578 101.601019 
L 297.957578 105.453248 
L 300.828933 105.453248 
L 300.828933 107.16535 
L 303.700288 107.16535 
L 303.700288 118.722038 
L 306.571643 118.722038 
L 306.571643 105.453248 
L 309.442998 105.453248 
L 309.442998 125.998471 
L 312.314353 125.998471 
L 312.314353 116.153885 
L 315.185708 116.153885 
L 315.185708 120.006115 
L 318.057063 120.006115 
L 318.057063 124.286369 
L 320.928418 124.286369 
L 320.928418 125.998471 
L 323.799774 125.998471 
L 323.799774 145.687643 
L 329.542484 145.687643 
L 329.542484 149.967898 
L 332.413839 149.967898 
L 332.413839 159.384459 
L 335.285194 159.384459 
L 335.285194 155.104204 
L 338.156549 155.104204 
L 338.156549 158.528408 
L 341.027904 158.528408 
L 341.027904 171.797197 
L 343.899259 171.797197 
L 343.899259 180.357707 
L 346.770614 180.357707 
L 346.770614 191.058344 
L 349.641969 191.058344 
L 349.641969 193.626497 
L 352.513324 193.626497 
L 352.513324 203.471083 
L 355.384679 203.471083 
L 355.384679 205.183185 
L 358.256034 205.183185 
L 358.256034 210.31949 
L 361.127389 210.31949 
L 361.127389 215.027771 
L 363.998744 215.027771 
L 363.998744 217.167898 
L 366.870099 217.167898 
L 366.870099 217.167898 
" clip-path="url(#pf220977bfe)" style="fill: none; stroke: #9467bd; stroke-width: 1.5; stroke-linecap: square"/>
   </g>
   <g id="patch_3">
    <path d="M 47.288281 228.96 
L 47.288281 7.2 
" style="fill: none; stroke: #000000; stroke-width: 0.8; stroke-linejoin: miter; stroke-linecap: square"/>
   </g>
   <g id="patch_4">
    <path d="M 382.088281 228.96 
L 382.088281 7.2 
" style="fill: none; stroke: #000000; stroke-width: 0.8; stroke-linejoin: miter; stroke-linecap: square"/>
   </g>
   <g id="patch_5">
    <path d="M 47.288281 228.96 
L 382.088281 228.96 
" style="fill: none; stroke: #000000; stroke-width: 0.8; stroke-linejoin: miter; stroke-linecap: square"/>
   </g>
   <g id="patch_6">
    <path d="M 47.288281 7.2 
L 382.088281 7.2 
" style="fill: none; stroke: #000000; stroke-width: 0.8; stroke-linejoin: miter; stroke-linecap: square"/>
   </g>
   <g id="legend_1">
    <g id="patch_7">
     <path d="M 54.288281 90.203906 
L 128.511719 90.203906 
Q 130.511719 90.203906 130.511719 88.203906 
L 130.511719 14.2 
Q 130.511719 12.2 128.511719 12.2 
L 54.288281 12.2 
Q 52.288281 12.2 52.288281 14.2 
L 52.288281 88.203906 
Q 52.288281 90.203906 54.288281 90.203906 
z
" style="fill: #ffffff; opacity: 0.8; stroke: #cccccc; stroke-linejoin: miter"/>
    </g>
    <g id="line2d_18">
     <path d="M 56.288281 20.298437 
L 56.288281 20.298437 
L 66.288281 20.298437 
L 66.288281 20.298437 
L 76.288281 20.298437 
" style="fill: none; stroke: #1f77b4; stroke-width: 1.5; stroke-linecap: square"/>
    </g>
    <g id="text_15">
     <!-- beam -->
     <g transform="translate(84.288281 23.798437) scale(0.1 -0.1)">
      <defs>
       <path id="DejaVuSans-45" d="M 3116 1747 
Q 3116 2381 2855 2742 
Q 2594 3103 2138 3103 
Q 1681 3103 1420 2742 
Q 1159 2381 1159 1747 
Q 1159 1113 1420 752 
Q 1681 391 2138 391 
Q 2594 391 2855 752 
Q 3116 1113 3116 1747 
z
M 1159 2969 
Q 1341 3281 1617 3432 
Q 1894 3584 2278 3584 
Q 2916 3584 3314 3078 
Q 3713 2572 3713 1747 
Q 3713 922 3314 415 
Q 2916 -91 2278 -91 
Q 1894 -91 1617 61 
Q 1341 213 1159 525 
L 1159 0 
L 581 0 
L 581 4863 
L 1159 4863 
L 1159 2969 
z
" transform="scale(0.015625)"/>
       <path id="DejaVuSans-50" d="M 3328 2828 
Q 3544 3216 3844 3400 
Q 4144 3584 4550 3584 
Q 5097 3584 5394 3201 
Q 5691 2819 5691 2113 
L 5691 0 
L 5113 0 
L 5113 2094 
Q 5113 2597 4934 2840 
Q 4756 3084 4391 3084 
Q 3944 3084 3684 2787 
Q 3425 2491 3425 1978 
L 3425 0 
L 2847 0 
L 2847 2094 
Q 2847 2600 2669 2842 
Q 2491 3084 2119 3084 
Q 1678 3084 1418 2786 
Q 1159 2488 1159 1978 
L 1159 0 
L 581 0 
L 581 3500 
L 1159 3500 
L 1159 2956 
Q 1356 3278 1631 3431 
Q 1906 3584 2284 3584 
Q 2666 3584 2933 3390 
Q 3200 3197 3328 2828 
z
" transform="scale(0.015625)"/>
      </defs>
      <use xlink:href="#DejaVuSans-45"/>
      <use xlink:href="#DejaVuSans-48" transform="translate(63.484375 0)"/>
      <use xlink:href="#DejaVuSans-44" transform="translate(125.015625 0)"/>
      <use xlink:href="#DejaVuSans-50" transform="translate(186.296875 0)"/>
     </g>
    </g>
    <g id="line2d_19">
     <path d="M 56.288281 35.299219 
L 56.288281 35.299219 
L 66.288281 35.299219 
L 66.288281 35.299219 
L 76.288281 35.299219 
" style="fill: none; stroke: #ff7f0e; stroke-width: 1.5; stroke-linecap: square"/>
    </g>
    <g id="text_16">
     <!-- sample -->
     <g transform="translate(84.288281 38.799219) scale(0.1 -0.1)">
      <defs>
       <path id="DejaVuSans-53" d="M 1159 525 
L 1159 -1331 
L 581 -1331 
L 581 3500 
L 1159 3500 
L 1159 2969 
Q 1341 3281 1617 3432 
Q 1894 3584 2278 3584 
Q 2916 3584 3314 3078 
Q 3713 2572 3713 1747 
Q 3713 922 3314 415 
Q 2916 -91 2278 -91 
Q 1894 -91 1617 61 
Q 1341 213 1159 525 
z
M 3116 1747 
Q 3116 2381 2855 2742 
Q 2594 3103 2138 3103 
Q 1681 3103 1420 2742 
Q 1159 2381 1159 1747 
Q 1159 1113 1420 752 
Q 1681 391 2138 391 
Q 2594 391 2855 752 
Q 3116 1113 3116 1747 
z
" transform="scale(0.015625)"/>
      </defs>
      <use xlink:href="#DejaVuSans-56"/>
      <use xlink:href="#DejaVuSans-44" transform="translate(52.09375 0)"/>
      <use xlink:href="#DejaVuSans-50" transform="translate(113.375 0)"/>
      <use xlink:href="#DejaVuSans-53" transform="translate(210.78125 0)"/>
      <use xlink:href="#DejaVuSans-4f" transform="translate(274.265625 0)"/>
      <use xlink:href="#DejaVuSans-48" transform="translate(302.046875 0)"/>
     </g>
    </g>
    <g id="line2d_20">
     <path d="M 56.288281 50.3 
L 56.288281 50.3 
L 66.288281 50.3 
L 66.288281 50.3 
L 76.288281 50.3 
" style="fill: none; stroke: #2ca02c; stroke-width: 1.5; stroke-linecap: square"/>
    </g>
    <g id="text_17">
     <!-- monitor -->
     <g transform="translate(84.288281 53.8) scale(0.1 -0.1)">
      <defs>
       <path id="DejaVuSans-4c" d="M 603 3500 
L 1178 3500 
L 1178 0 
L 603 0 
L 603 3500 
z
M 603 4863 
L 1178 4863 
L 1178 4134 
L 603 4134 
L 603 4863 
z
" transform="scale(0.015625)"/>
       <path id="DejaVuSans-55" d="M 2631 2963 
Q 2534 3019 2420 3045 
Q 2306 3072 2169 3072 
Q 1681 3072 1420 2755 
Q 1159 2438 1159 1844 
L 1159 0 
L 581 0 
L 581 3500 
L 1159 3500 
L 1159 2956 
Q 1341 3275 1631 3429 
Q 1922 3584 2338 3584 
Q 2397 3584 2469 3576 
Q 2541 3569 2628 3553 
L 2631 2963 
z
" transform="scale(0.015625)"/>
      </defs>
      <use xlink:href="#DejaVuSans-50"/>
      <use xlink:href="#DejaVuSans-52" transform="translate(97.40625 0)"/>
      <use xlink:href="#DejaVuSans-51" transform="translate(158.59375 0)"/>
      <use xlink:href="#DejaVuSans-4c" transform="translate(221.96875 0)"/>
      <use xlink:href="#DejaVuSans-57" transform="translate(249.75 0)"/>
      <use xlink:href="#DejaVuSans-52" transform="translate(288.953125 0)"/>
      <use xlink:href="#DejaVuSans-55" transform="translate(350.140625 0)"/>
     </g>
    </g>
    <g id="line2d_21">
     <path d="M 56.288281 65.300781 
L 56.288281 65.300781 
L 66.288281 65.300781 
L 66.288281 65.300781 
L 76.288281 65.300781 
" style="fill: none; stroke: #d62728; stroke-width: 1.5; stroke-linecap: square"/>
    </g>
    <g id="text_18">
     <!-- detector -->
     <g transform="translate(84.288281 68.800781) scale(0.1 -0.1)">
      <defs>
       <path id="DejaVuSans-47" d="M 2906 2969 
L 2906 4863 
L 3481 4863 
L 3481 0 
L 2906 0 
L 2906 525 
Q 2725 213 2448 61 
Q 2172 -91 1784 -91 
Q 1150 -91 751 415 
Q 353 922 353 1747 
Q 353 2572 751 3078 
Q 1150 3584 1784 3584 
Q 2172 3584 2448 3432 
Q 2725 3281 2906 2969 
z
M 947 1747 
Q 947 1113 1208 752 
Q 1469 391 1925 391 
Q 2381 391 2643 752 
Q 2906 1113 2906 1747 
Q 2906 2381 2643 2742 
Q 2381 3103 1925 3103 
Q 1469 3103 1208 2742 
Q 947 2381 947 1747 
z
" transform="scale(0.015625)"/>
      </defs>
      <use xlink:href="#DejaVuSans-47"/>
      <use xlink:href="#DejaVuSans-48" transform="translate(63.484375 0)"/>
      <use xlink:href="#DejaVuSans-57" transform="translate(125.015625 0)"/>
      <use xlink:href="#DejaVuSans-48" transform="translate(164.21875 0)"/>
      <use xlink:href="#DejaVuSans-46" transform="translate(225.75 0)"/>
      <use xlink:href="#DejaVuSans-57" transform="translate(280.734375 0)"/>
      <use xlink:href="#DejaVuSans-52" transform="translate(319.9375 0)"/>
      <use xlink:href="#DejaVuSans-55" transform="translate(381.125 0)"/>
     </g>
    </g>
    <g id="line2d_22">
     <path d="M 56.288281 80.301562 
L 56.288281 80.301562 
L 66.288281 80.301562 
L 66.288281 80.301562 
L 76.288281 80.301562 
" style="fill: none; stroke: #9467bd; stroke-width: 1.5; stroke-linecap: square"/>
    </g>
    <g id="text_19">
     <!-- true -->
     <g transform="translate(84.288281 83.801562) scale(0.1 -0.1)">
      <use xlink:href="#DejaVuSans-57"/>
      <use xlink:href="#DejaVuSans-55" transform="translate(39.203125 0)"/>
      <use xlink:href="#DejaVuSans-58" transform="translate(80.3125 0)"/>
      <use xlink:href="#DejaVuSans-48" transform="translate(143.6875 0)"/>
     </g>
    </g>
   </g>
  </g>
 </g>
 <defs>
  <clipPath id="pf220977bfe">
   <rect x="47.288281" y="7.2" width="334.8" height="221.76"/>
  </clipPath>
 </defs>
</svg>
