<?xml version="1.0" encoding="utf-8" standalone="no"?>
<!DOCTYPE svg PUBLIC "-//W3C//DTD SVG 1.1//EN"
  "http://www.w3.org/Graphics/SVG/1.1/DTD/svg11.dtd">
<svg xmlns:xlink="http://www.w3.org/1999/xlink" width="388.965625pt" height="266.794375pt" viewBox="0 0 388.965625 266.794375" xmlns="http://www.w3.org/2000/svg" version="1.1">
 <metadata>
  <rdf:RDF xmlns:dc="http://purl.org/dc/elements/1.1/" xmlns:cc="http://creativecommons.org/ns#" xmlns:rdf="http://www.w3.org/1999/02/22-rdf-syntax-ns#">
   <cc:Work>
    <dc:type rdf:resource="http://purl.org/dc/dcmitype/StillImage"/>
    <dc:date>2026-04-20T05:56:25.382824</dc:date>
    <dc:format>image/svg+xml</dc:format>
    <dc:creator>
     <cc:Agent>
      <dc:title>Matplotlib v3.10.8, https://matplotlib.org/</dc:title>
     </cc:Agent>
    </dc:creator>
   </cc:Work>
  </rdf:RDF>
 </metadata>
 <defs>
  <style type="text/css">*{stroke-linejoin: round; stroke-linecap: butt}</style>
 </defs>
 <g id="figure_1">
  <g id="patch_1">
   <path d="M 0 266.794375 
L 388.965625 266.794375 
L 388.965625 0 
L 0 0 
z
" style="fill: #ffffff"/>
  </g>
  <g id="axes_1">
   <g id="patch_2">
    <path d="M 46.965625 228.96 
L 381.765625 228.96 
L 381.765625 7.2 
L 46.965625 7.2 
z
" style="fill: #ffffff"/>
   </g>
   <g id="matplotlib.axis_1">
    <g id="xtick_1">
     <g id="line2d_1">
      <defs>
       <path id="m855e2fbef8" d="M 0 0 
L 0 3.5 
" style="stroke: #000000; stroke-width: 0.8"/>
      </defs>
      <g>
       <use xlink:href="#m855e2fbef8" x="62.182327" y="228.96" style="stroke: #000000; stroke-width: 0.8"/>
      </g>
     </g>
     <g id="text_1">
      <!-- 0 -->
      <g transform="translate(59.001077 243.558437) scale(0.1 -0.1)">
       <defs>
        <path id="DejaVuSans-30" d="M 2034 4250 
Q 1547 4250 1301 3770 
Q 1056 3291 1056 2328 
Q 1056 1369 1301 889 
Q 1547 409 2034 409 
Q 2525 409 2770 889 
Q 3016 1369 3016 2328 
Q 3016 3291 2770 3770 
Q 2525 4250 2034 4250 
z
M 2034 4750 
Q 2819 4750 3233 4129 
Q 3647 3509 3647 2328 
Q 3647 1150 3233 529 
Q 2819 -91 2034 -91 
Q 1250 -91 836 529 
Q 422 1150 422 2328 
Q 422 3509 836 4129 
Q 1250 4750 2034 4750 
z
" transform="scale(0.015625)"/>
       </defs>
       <use xlink:href="#DejaVuSans-30"/>
      </g>
     </g>
    </g>
    <g id="xtick_2">
     <g id="line2d_2">
      <g>
       <use xlink:href="#m855e2fbef8" x="104.79379" y="228.96" style="stroke: #000000; stroke-width: 0.8"/>
      </g>
     </g>
     <g id="text_2">
      <!-- 10000 -->
      <g transform="translate(88.88754 243.558437) scale(0.1 -0.1)">
       <defs>
        <path id="DejaVuSans-31" d="M 794 531 
L 1825 531 
L 1825 4091 
L 703 3866 
L 703 4441 
L 1819 4666 
L 2450 4666 
L 2450 531 
L 3481 531 
L 3481 0 
L 794 0 
L 794 531 
z
" transform="scale(0.015625)"/>
       </defs>
       <use xlink:href="#DejaVuSans-31"/>
       <use xlink:href="#DejaVuSans-30" transform="translate(63.623047 0)"/>
       <use xlink:href="#DejaVuSans-30" transform="translate(127.246094 0)"/>
       <use xlink:href="#DejaVuSans-30" transform="translate(190.869141 0)"/>
       <use xlink:href="#DejaVuSans-30" transform="translate(254.492188 0)"/>
      </g>
     </g>
    </g>
    <g id="xtick_3">
     <g id="line2d_3">
      <g>
       <use xlink:href="#m855e2fbef8" x="147.405253" y="228.96" style="stroke: #000000; stroke-width: 0.8"/>
      </g>
     </g>
     <g id="text_3">
      <!-- 20000 -->
      <g transform="translate(131.499003 243.558437) scale(0.1 -0.1)">
       <defs>
        <path id="DejaVuSans-32" d="M 1228 531 
L 3431 531 
L 3431 0 
L 469 0 
L 469 531 
Q 828 903 1448 1529 
Q 2069 2156 2228 2338 
Q 2531 2678 2651 2914 
Q 2772 3150 2772 3378 
Q 2772 3750 2511 3984 
Q 2250 4219 1831 4219 
Q 1534 4219 1204 4116 
Q 875 4013 500 3803 
L 500 4441 
Q 881 4594 1212 4672 
Q 1544 4750 1819 4750 
Q 2544 4750 2975 4387 
Q 3406 4025 3406 3419 
Q 3406 3131 3298 2873 
Q 3191 2616 2906 2266 
Q 2828 2175 2409 1742 
Q 1991 1309 1228 531 
z
" transform="scale(0.015625)"/>
       </defs>
       <use xlink:href="#DejaVuSans-32"/>
       <use xlink:href="#DejaVuSans-30" transform="translate(63.623047 0)"/>
       <use xlink:href="#DejaVuSans-30" transform="translate(127.246094 0)"/>
       <use xlink:href="#DejaVuSans-30" transform="translate(190.869141 0)"/>
       <use xlink:href="#DejaVuSans-30" transform="translate(254.492188 0)"/>
      </g>
     </g>
    </g>
    <g id="xtick_4">
     <g id="line2d_4">
      <g>
       <use xlink:href="#m855e2fbef8" x="190.016715" y="228.96" style="stroke: #000000; stroke-width: 0.8"/>
      </g>
     </g>
     <g id="text_4">
      <!-- 30000 -->
      <g transform="translate(174.110465 243.558437) scale(0.1 -0.1)">
       <defs>
        <path id="DejaVuSans-33" d="M 2597 2516 
Q 3050 2419 3304 2112 
Q 3559 1806 3559 1356 
Q 3559 666 3084 287 
Q 2609 -91 1734 -91 
Q 1441 -91 1130 -33 
Q 819 25 488 141 
L 488 750 
Q 750 597 1062 519 
Q 1375 441 1716 441 
Q 2309 441 2620 675 
Q 2931 909 2931 1356 
Q 2931 1769 2642 2001 
Q 2353 2234 1838 2234 
L 1294 2234 
L 1294 2753 
L 1863 2753 
Q 2328 2753 2575 2939 
Q 2822 3125 2822 3475 
Q 2822 3834 2567 4026 
Q 2313 4219 1838 4219 
Q 1578 4219 1281 4162 
Q 984 4106 628 3988 
L 628 4550 
Q 988 4650 1302 4700 
Q 1616 4750 1894 4750 
Q 2613 4750 3031 4423 
Q 3450 4097 3450 3541 
Q 3450 3153 3228 2886 
Q 3006 2619 2597 2516 
z
" transform="scale(0.015625)"/>
       </defs>
       <use xlink:href="#DejaVuSans-33"/>
       <use xlink:href="#DejaVuSans-30" transform="translate(63.623047 0)"/>
       <use xlink:href="#DejaVuSans-30" transform="translate(127.246094 0)"/>
       <use xlink:href="#DejaVuSans-30" transform="translate(190.869141 0)"/>
       <use xlink:href="#DejaVuSans-30" transform="translate(254.492188 0)"/>
      </g>
     </g>
    </g>
    <g id="xtick_5">
     <g id="line2d_5">
      <g>
       <use xlink:href="#m855e2fbef8" x="232.628178" y="228.96" style="stroke: #000000; stroke-width: 0.8"/>
      </g>
     </g>
     <g id="text_5">
      <!-- 40000 -->
      <g transform="translate(216.721928 243.558437) scale(0.1 -0.1)">
       <defs>
        <path id="DejaVuSans-34" d="M 2419 4116 
L 825 1625 
L 2419 1625 
L 2419 4116 
z
M 2253 4666 
L 3047 4666 
L 3047 1625 
L 3713 1625 
L 3713 1100 
L 3047 1100 
L 3047 0 
L 2419 0 
L 2419 1100 
L 313 1100 
L 313 1709 
L 2253 4666 
z
" transform="scale(0.015625)"/>
       </defs>
       <use xlink:href="#DejaVuSans-34"/>
       <use xlink:href="#DejaVuSans-30" transform="translate(63.623047 0)"/>
       <use xlink:href="#DejaVuSans-30" transform="translate(127.246094 0)"/>
       <use xlink:href="#DejaVuSans-30" transform="translate(190.869141 0)"/>
       <use xlink:href="#DejaVuSans-30" transform="translate(254.492188 0)"/>
      </g>
     </g>
    </g>
    <g id="xtick_6">
     <g id="line2d_6">
      <g>
       <use xlink:href="#m855e2fbef8" x="275.239641" y="228.96" style="stroke: #000000; stroke-width: 0.8"/>
      </g>
     </g>
     <g id="text_6">
      <!-- 50000 -->
      <g transform="translate(259.333391 243.558437) scale(0.1 -0.1)">
       <defs>
        <path id="DejaVuSans-35" d="M 691 4666 
L 3169 4666 
L 3169 4134 
L 1269 4134 
L 1269 2991 
Q 1406 3038 1543 3061 
Q 1681 3084 1819 3084 
Q 2600 3084 3056 2656 
Q 3513 2228 3513 1497 
Q 3513 744 3044 326 
Q 2575 -91 1722 -91 
Q 1428 -91 1123 -41 
Q 819 9 494 109 
L 494 744 
Q 775 591 1075 516 
Q 1375 441 1709 441 
Q 2250 441 2565 725 
Q 2881 1009 2881 1497 
Q 2881 1984 2565 2268 
Q 2250 2553 1709 2553 
Q 1456 2553 1204 2497 
Q 953 2441 691 2322 
L 691 4666 
z
" transform="scale(0.015625)"/>
       </defs>
       <use xlink:href="#DejaVuSans-35"/>
       <use xlink:href="#DejaVuSans-30" transform="translate(63.623047 0)"/>
       <use xlink:href="#DejaVuSans-30" transform="translate(127.246094 0)"/>
       <use xlink:href="#DejaVuSans-30" transform="translate(190.869141 0)"/>
       <use xlink:href="#DejaVuSans-30" transform="translate(254.492188 0)"/>
      </g>
     </g>
    </g>
    <g id="xtick_7">
     <g id="line2d_7">
      <g>
       <use xlink:href="#m855e2fbef8" x="317.851103" y="228.96" style="stroke: #000000; stroke-width: 0.8"/>
      </g>
     </g>
     <g id="text_7">
      <!-- 60000 -->
      <g transform="translate(301.944853 243.558437) scale(0.1 -0.1)">
       <defs>
        <path id="DejaVuSans-36" d="M 2113 2584 
Q 1688 2584 1439 2293 
Q 1191 2003 1191 1497 
Q 1191 994 1439 701 
Q 1688 409 2113 409 
Q 2538 409 2786 701 
Q 3034 994 3034 1497 
Q 3034 2003 2786 2293 
Q 2538 2584 2113 2584 
z
M 3366 4563 
L 3366 3988 
Q 3128 4100 2886 4159 
Q 2644 4219 2406 4219 
Q 1781 4219 1451 3797 
Q 1122 3375 1075 2522 
Q 1259 2794 1537 2939 
Q 1816 3084 2150 3084 
Q 2853 3084 3261 2657 
Q 3669 2231 3669 1497 
Q 3669 778 3244 343 
Q 2819 -91 2113 -91 
Q 1303 -91 875 529 
Q 447 1150 447 2328 
Q 447 3434 972 4092 
Q 1497 4750 2381 4750 
Q 2619 4750 2861 4703 
Q 3103 4656 3366 4563 
z
" transform="scale(0.015625)"/>
       </defs>
       <use xlink:href="#DejaVuSans-36"/>
       <use xlink:href="#DejaVuSans-30" transform="translate(63.623047 0)"/>
       <use xlink:href="#DejaVuSans-30" transform="translate(127.246094 0)"/>
       <use xlink:href="#DejaVuSans-30" transform="translate(190.869141 0)"/>
       <use xlink:href="#DejaVuSans-30" transform="translate(254.492188 0)"/>
      </g>
     </g>
    </g>
    <g id="xtick_8">
     <g id="line2d_8">
      <g>
       <use xlink:href="#m855e2fbef8" x="360.462566" y="228.96" style="stroke: #000000; stroke-width: 0.8"/>
      </g>
     </g>
     <g id="text_8">
      <!-- 70000 -->
      <g transform="translate(344.556316 243.558437) scale(0.1 -0.1)">
       <defs>
        <path id="DejaVuSans-37" d="M 525 4666 
L 3525 4666 
L 3525 4397 
L 1831 0 
L 1172 0 
L 2766 4134 
L 525 4134 
L 525 4666 
z
" transform="scale(0.015625)"/>
       </defs>
       <use xlink:href="#DejaVuSans-37"/>
       <use xlink:href="#DejaVuSans-30" transform="translate(63.623047 0)"/>
       <use xlink:href="#DejaVuSans-30" transform="translate(127.246094 0)"/>
       <use xlink:href="#DejaVuSans-30" transform="translate(190.869141 0)"/>
       <use xlink:href="#DejaVuSans-30" transform="translate(254.492188 0)"/>
      </g>
     </g>
    </g>
    <g id="text_9">
     <!-- event_time_offset [µs] -->
     <g transform="translate(158.330469 257.236562) scale(0.1 -0.1)">
      <defs>
       <path id="DejaVuSans-65" d="M 3597 1894 
L 3597 1613 
L 953 1613 
Q 991 1019 1311 708 
Q 1631 397 2203 397 
Q 2534 397 2845 478 
Q 3156 559 3463 722 
L 3463 178 
Q 3153 47 2828 -22 
Q 2503 -91 2169 -91 
Q 1331 -91 842 396 
Q 353 884 353 1716 
Q 353 2575 817 3079 
Q 1281 3584 2069 3584 
Q 2775 3584 3186 3129 
Q 3597 2675 3597 1894 
z
M 3022 2063 
Q 3016 2534 2758 2815 
Q 2500 3097 2075 3097 
Q 1594 3097 1305 2825 
Q 1016 2553 972 2059 
L 3022 2063 
z
" transform="scale(0.015625)"/>
       <path id="DejaVuSans-76" d="M 191 3500 
L 800 3500 
L 1894 563 
L 2988 3500 
L 3597 3500 
L 2284 0 
L 1503 0 
L 191 3500 
z
" transform="scale(0.015625)"/>
       <path id="DejaVuSans-6e" d="M 3513 2113 
L 3513 0 
L 2938 0 
L 2938 2094 
Q 2938 2591 2744 2837 
Q 2550 3084 2163 3084 
Q 1697 3084 1428 2787 
Q 1159 2491 1159 1978 
L 1159 0 
L 581 0 
L 581 3500 
L 1159 3500 
L 1159 2956 
Q 1366 3272 1645 3428 
Q 1925 3584 2291 3584 
Q 2894 3584 3203 3211 
Q 3513 2838 3513 2113 
z
" transform="scale(0.015625)"/>
       <path id="DejaVuSans-74" d="M 1172 4494 
L 1172 3500 
L 2356 3500 
L 2356 3053 
L 1172 3053 
L 1172 1153 
Q 1172 725 1289 603 
Q 1406 481 1766 481 
L 2356 481 
L 2356 0 
L 1766 0 
Q 1100 0 847 248 
Q 594 497 594 1153 
L 594 3053 
L 172 3053 
L 172 3500 
L 594 3500 
L 594 4494 
L 1172 4494 
z
" transform="scale(0.015625)"/>
       <path id="DejaVuSans-5f" d="M 3263 -1063 
L 3263 -1509 
L -63 -1509 
L -63 -1063 
L 3263 -1063 
z
" transform="scale(0.015625)"/>
       <path id="DejaVuSans-69" d="M 603 3500 
L 1178 3500 
L 1178 0 
L 603 0 
L 603 3500 
z
M 603 4863 
L 1178 4863 
L 1178 4134 
L 603 4134 
L 603 4863 
z
" transform="scale(0.015625)"/>
       <path id="DejaVuSans-6d" d="M 3328 2828 
Q 3544 3216 3844 3400 
Q 4144 3584 4550 3584 
Q 5097 3584 5394 3201 
Q 5691 2819 5691 2113 
L 5691 0 
L 5113 0 
L 5113 2094 
Q 5113 2597 4934 2840 
Q 4756 3084 4391 3084 
Q 3944 3084 3684 2787 
Q 3425 2491 3425 1978 
L 3425 0 
L 2847 0 
L 2847 2094 
Q 2847 2600 2669 2842 
Q 2491 3084 2119 3084 
Q 1678 3084 1418 2786 
Q 1159 2488 1159 1978 
L 1159 0 
L 581 0 
L 581 3500 
L 1159 3500 
L 1159 2956 
Q 1356 3278 1631 3431 
Q 1906 3584 2284 3584 
Q 2666 3584 2933 3390 
Q 3200 3197 3328 2828 
z
" transform="scale(0.015625)"/>
       <path id="DejaVuSans-6f" d="M 1959 3097 
Q 1497 3097 1228 2736 
Q 959 2375 959 1747 
Q 959 1119 1226 758 
Q 1494 397 1959 397 
Q 2419 397 2687 759 
Q 2956 1122 2956 1747 
Q 2956 2369 2687 2733 
Q 2419 3097 1959 3097 
z
M 1959 3584 
Q 2709 3584 3137 3096 
Q 3566 2609 3566 1747 
Q 3566 888 3137 398 
Q 2709 -91 1959 -91 
Q 1206 -91 779 398 
Q 353 888 353 1747 
Q 353 2609 779 3096 
Q 1206 3584 1959 3584 
z
" transform="scale(0.015625)"/>
       <path id="DejaVuSans-66" d="M 2375 4863 
L 2375 4384 
L 1825 4384 
Q 1516 4384 1395 4259 
Q 1275 4134 1275 3809 
L 1275 3500 
L 2222 3500 
L 2222 3053 
L 1275 3053 
L 1275 0 
L 697 0 
L 697 3053 
L 147 3053 
L 147 3500 
L 697 3500 
L 697 3744 
Q 697 4328 969 4595 
Q 1241 4863 1831 4863 
L 2375 4863 
z
" transform="scale(0.015625)"/>
       <path id="DejaVuSans-73" d="M 2834 3397 
L 2834 2853 
Q 2591 2978 2328 3040 
Q 2066 3103 1784 3103 
Q 1356 3103 1142 2972 
Q 928 2841 928 2578 
Q 928 2378 1081 2264 
Q 1234 2150 1697 2047 
L 1894 2003 
Q 2506 1872 2764 1633 
Q 3022 1394 3022 966 
Q 3022 478 2636 193 
Q 2250 -91 1575 -91 
Q 1294 -91 989 -36 
Q 684 19 347 128 
L 347 722 
Q 666 556 975 473 
Q 1284 391 1588 391 
Q 1994 391 2212 530 
Q 2431 669 2431 922 
Q 2431 1156 2273 1281 
Q 2116 1406 1581 1522 
L 1381 1569 
Q 847 1681 609 1914 
Q 372 2147 372 2553 
Q 372 3047 722 3315 
Q 1072 3584 1716 3584 
Q 2034 3584 2315 3537 
Q 2597 3491 2834 3397 
z
" transform="scale(0.015625)"/>
       <path id="DejaVuSans-20" transform="scale(0.015625)"/>
       <path id="DejaVuSans-5b" d="M 550 4863 
L 1875 4863 
L 1875 4416 
L 1125 4416 
L 1125 -397 
L 1875 -397 
L 1875 -844 
L 550 -844 
L 550 4863 
z
" transform="scale(0.015625)"/>
       <path id="DejaVuSans-b5" d="M 544 -1331 
L 544 3500 
L 1119 3500 
L 1119 1325 
Q 1119 872 1334 640 
Q 1550 409 1972 409 
Q 2434 409 2667 671 
Q 2900 934 2900 1459 
L 2900 3500 
L 3475 3500 
L 3475 806 
Q 3475 619 3529 530 
Q 3584 441 3700 441 
Q 3728 441 3778 458 
Q 3828 475 3916 513 
L 3916 50 
Q 3788 -22 3673 -56 
Q 3559 -91 3450 -91 
Q 3234 -91 3106 31 
Q 2978 153 2931 403 
Q 2775 156 2548 32 
Q 2322 -91 2016 -91 
Q 1697 -91 1473 31 
Q 1250 153 1119 397 
L 1119 -1331 
L 544 -1331 
z
" transform="scale(0.015625)"/>
       <path id="DejaVuSans-5d" d="M 1947 4863 
L 1947 -844 
L 622 -844 
L 622 -397 
L 1369 -397 
L 1369 4416 
L 622 4416 
L 622 4863 
L 1947 4863 
z
" transform="scale(0.015625)"/>
      </defs>
      <use xlink:href="#DejaVuSans-65"/>
      <use xlink:href="#DejaVuSans-76" transform="translate(61.523438 0)"/>
      <use xlink:href="#DejaVuSans-65" transform="translate(120.703125 0)"/>
      <use xlink:href="#DejaVuSans-6e" transform="translate(182.226562 0)"/>
      <use xlink:href="#DejaVuSans-74" transform="translate(245.605469 0)"/>
      <use xlink:href="#DejaVuSans-5f" transform="translate(284.814453 0)"/>
      <use xlink:href="#DejaVuSans-74" transform="translate(334.814453 0)"/>
      <use xlink:href="#DejaVuSans-69" transform="translate(374.023438 0)"/>
      <use xlink:href="#DejaVuSans-6d" transform="translate(401.806641 0)"/>
      <use xlink:href="#DejaVuSans-65" transform="translate(499.21875 0)"/>
      <use xlink:href="#DejaVuSans-5f" transform="translate(560.742188 0)"/>
      <use xlink:href="#DejaVuSans-6f" transform="translate(610.742188 0)"/>
      <use xlink:href="#DejaVuSans-66" transform="translate(671.923828 0)"/>
      <use xlink:href="#DejaVuSans-66" transform="translate(707.128906 0)"/>
      <use xlink:href="#DejaVuSans-73" transform="translate(742.333984 0)"/>
      <use xlink:href="#DejaVuSans-65" transform="translate(794.433594 0)"/>
      <use xlink:href="#DejaVuSans-74" transform="translate(855.957031 0)"/>
      <use xlink:href="#DejaVuSans-20" transform="translate(895.166016 0)"/>
      <use xlink:href="#DejaVuSans-5b" transform="translate(926.953125 0)"/>
      <use xlink:href="#DejaVuSans-b5" transform="translate(965.966797 0)"/>
      <use xlink:href="#DejaVuSans-73" transform="translate(1029.589844 0)"/>
      <use xlink:href="#DejaVuSans-5d" transform="translate(1081.689453 0)"/>
     </g>
    </g>
   </g>
   <g id="matplotlib.axis_2">
    <g id="ytick_1">
     <g id="line2d_9">
      <defs>
       <path id="mc6efacf479" d="M 0 0 
L -3.5 0 
" style="stroke: #000000; stroke-width: 0.8"/>
      </defs>
      <g>
       <use xlink:href="#mc6efacf479" x="46.965625" y="218.88" style="stroke: #000000; stroke-width: 0.8"/>
      </g>
     </g>
     <g id="text_10">
      <!-- 0 -->
      <g transform="translate(33.603125 222.679219) scale(0.1 -0.1)">
       <use xlink:href="#DejaVuSans-30"/>
      </g>
     </g>
    </g>
    <g id="ytick_2">
     <g id="line2d_10">
      <g>
       <use xlink:href="#mc6efacf479" x="46.965625" y="183.324444" style="stroke: #000000; stroke-width: 0.8"/>
      </g>
     </g>
     <g id="text_11">
      <!-- 100 -->
      <g transform="translate(20.878125 187.123663) scale(0.1 -0.1)">
       <use xlink:href="#DejaVuSans-31"/>
       <use xlink:href="#DejaVuSans-30" transform="translate(63.623047 0)"/>
       <use xlink:href="#DejaVuSans-30" transform="translate(127.246094 0)"/>
      </g>
     </g>
    </g>
    <g id="ytick_3">
     <g id="line2d_11">
      <g>
       <use xlink:href="#mc6efacf479" x="46.965625" y="147.768889" style="stroke: #000000; stroke-width: 0.8"/>
      </g>
     </g>
     <g id="text_12">
      <!-- 200 -->
      <g transform="translate(20.878125 151.568108) scale(0.1 -0.1)">
       <use xlink:href="#DejaVuSans-32"/>
       <use xlink:href="#DejaVuSans-30" transform="translate(63.623047 0)"/>
       <use xlink:href="#DejaVuSans-30" transform="translate(127.246094 0)"/>
      </g>
     </g>
    </g>
    <g id="ytick_4">
     <g id="line2d_12">
      <g>
       <use xlink:href="#mc6efacf479" x="46.965625" y="112.213333" style="stroke: #000000; stroke-width: 0.8"/>
      </g>
     </g>
     <g id="text_13">
      <!-- 300 -->
      <g transform="translate(20.878125 116.012552) scale(0.1 -0.1)">
       <use xlink:href="#DejaVuSans-33"/>
       <use xlink:href="#DejaVuSans-30" transform="translate(63.623047 0)"/>
       <use xlink:href="#DejaVuSans-30" transform="translate(127.246094 0)"/>
      </g>
     </g>
    </g>
    <g id="ytick_5">
     <g id="line2d_13">
      <g>
       <use xlink:href="#mc6efacf479" x="46.965625" y="76.657778" style="stroke: #000000; stroke-width: 0.8"/>
      </g>
     </g>
     <g id="text_14">
      <!-- 400 -->
      <g transform="translate(20.878125 80.456997) scale(0.1 -0.1)">
       <use xlink:href="#DejaVuSans-34"/>
       <use xlink:href="#DejaVuSans-30" transform="translate(63.623047 0)"/>
       <use xlink:href="#DejaVuSans-30" transform="translate(127.246094 0)"/>
      </g>
     </g>
    </g>
    <g id="ytick_6">
     <g id="line2d_14">
      <g>
       <use xlink:href="#mc6efacf479" x="46.965625" y="41.102222" style="stroke: #000000; stroke-width: 0.8"/>
      </g>
     </g>
     <g id="text_15">
      <!-- 500 -->
      <g transform="translate(20.878125 44.901441) scale(0.1 -0.1)">
       <use xlink:href="#DejaVuSans-35"/>
       <use xlink:href="#DejaVuSans-30" transform="translate(63.623047 0)"/>
       <use xlink:href="#DejaVuSans-30" transform="translate(127.246094 0)"/>
      </g>
     </g>
    </g>
    <g id="text_16">
     <!-- [counts] -->
     <g transform="translate(14.798438 138.6925) rotate(-90) scale(0.1 -0.1)">
      <defs>
       <path id="DejaVuSans-63" d="M 3122 3366 
L 3122 2828 
Q 2878 2963 2633 3030 
Q 2388 3097 2138 3097 
Q 1578 3097 1268 2742 
Q 959 2388 959 1747 
Q 959 1106 1268 751 
Q 1578 397 2138 397 
Q 2388 397 2633 464 
Q 2878 531 3122 666 
L 3122 134 
Q 2881 22 2623 -34 
Q 2366 -91 2075 -91 
Q 1284 -91 818 406 
Q 353 903 353 1747 
Q 353 2603 823 3093 
Q 1294 3584 2113 3584 
Q 2378 3584 2631 3529 
Q 2884 3475 3122 3366 
z
" transform="scale(0.015625)"/>
       <path id="DejaVuSans-75" d="M 544 1381 
L 544 3500 
L 1119 3500 
L 1119 1403 
Q 1119 906 1312 657 
Q 1506 409 1894 409 
Q 2359 409 2629 706 
Q 2900 1003 2900 1516 
L 2900 3500 
L 3475 3500 
L 3475 0 
L 2900 0 
L 2900 538 
Q 2691 219 2414 64 
Q 2138 -91 1772 -91 
Q 1169 -91 856 284 
Q 544 659 544 1381 
z
M 1991 3584 
L 1991 3584 
z
" transform="scale(0.015625)"/>
      </defs>
      <use xlink:href="#DejaVuSans-5b"/>
      <use xlink:href="#DejaVuSans-63" transform="translate(39.013672 0)"/>
      <use xlink:href="#DejaVuSans-6f" transform="translate(93.994141 0)"/>
      <use xlink:href="#DejaVuSans-75" transform="translate(155.175781 0)"/>
      <use xlink:href="#DejaVuSans-6e" transform="translate(218.554688 0)"/>
      <use xlink:href="#DejaVuSans-74" transform="translate(281.933594 0)"/>
      <use xlink:href="#DejaVuSans-73" transform="translate(321.142578 0)"/>
      <use xlink:href="#DejaVuSans-5d" transform="translate(373.242188 0)"/>
     </g>
    </g>
   </g>
   <g id="line2d_15">
    <path d="M 62.183807 123.946667 
L 63.198352 123.946667 
L 63.198352 122.524444 
L 64.212898 122.524444 
L 64.212898 121.813333 
L 65.227443 121.813333 
L 65.227443 123.591111 
L 66.241989 123.591111 
L 66.241989 125.013333 
L 67.256534 125.013333 
L 67.256534 121.457778 
L 68.27108 121.457778 
L 68.27108 133.902222 
L 69.285625 133.902222 
L 69.285625 126.08 
L 70.30017 126.08 
L 70.30017 127.146667 
L 71.314716 127.146667 
L 71.314716 134.257778 
L 72.329261 134.257778 
L 72.329261 129.28 
L 73.343807 129.28 
L 73.343807 123.591111 
L 74.358352 123.591111 
L 74.358352 133.546667 
L 75.372898 133.546667 
L 75.372898 124.302222 
L 76.387443 124.302222 
L 76.387443 134.613333 
L 77.401989 134.613333 
L 77.401989 135.68 
L 78.416534 135.68 
L 78.416534 138.524444 
L 79.43108 138.524444 
L 79.43108 137.457778 
L 80.445625 137.457778 
L 80.445625 136.746667 
L 81.46017 136.746667 
L 81.46017 135.324444 
L 82.474716 135.324444 
L 82.474716 147.413333 
L 83.489261 147.413333 
L 83.489261 148.48 
L 85.518352 148.48 
L 85.518352 144.213333 
L 86.532898 144.213333 
L 86.532898 144.568889 
L 87.547443 144.568889 
L 87.547443 152.746667 
L 88.561989 152.746667 
L 88.561989 148.48 
L 89.576534 148.48 
L 89.576534 154.524444 
L 90.59108 154.524444 
L 90.59108 151.324444 
L 91.605625 151.324444 
L 91.605625 155.235556 
L 92.62017 155.235556 
L 92.62017 157.013333 
L 93.634716 157.013333 
L 93.634716 156.657778 
L 94.649261 156.657778 
L 94.649261 160.213333 
L 95.663807 160.213333 
L 95.663807 160.568889 
L 97.692898 160.568889 
L 97.692898 165.191111 
L 98.707443 165.191111 
L 98.707443 173.724444 
L 99.721989 173.724444 
L 99.721989 163.768889 
L 100.736534 163.768889 
L 100.736534 170.168889 
L 101.75108 170.168889 
L 101.75108 168.391111 
L 102.765625 168.391111 
L 102.765625 180.124444 
L 103.78017 180.124444 
L 103.78017 173.013333 
L 104.794716 173.013333 
L 104.794716 175.146667 
L 105.809261 175.146667 
L 105.809261 186.168889 
L 107.838352 186.168889 
L 107.838352 187.235556 
L 108.852898 187.235556 
L 108.852898 184.746667 
L 109.867443 184.746667 
L 109.867443 187.591111 
L 110.881989 187.591111 
L 110.881989 193.28 
L 111.896534 193.28 
L 111.896534 196.48 
L 112.91108 196.48 
L 112.91108 198.613333 
L 113.925625 198.613333 
L 113.925625 199.324444 
L 115.954716 199.324444 
L 115.954716 194.702222 
L 116.969261 194.702222 
L 116.969261 200.035556 
L 117.983807 200.035556 
L 117.983807 202.524444 
L 118.998352 202.524444 
L 118.998352 200.746667 
L 120.012898 200.746667 
L 120.012898 203.591111 
L 121.027443 203.591111 
L 121.027443 212.124444 
L 122.041989 212.124444 
L 122.041989 209.635556 
L 124.07108 209.635556 
L 124.07108 213.546667 
L 125.085625 213.546667 
L 125.085625 213.902222 
L 126.10017 213.902222 
L 126.10017 212.48 
L 127.114716 212.48 
L 127.114716 216.035556 
L 128.129261 216.035556 
L 128.129261 213.902222 
L 129.143807 213.902222 
L 129.143807 216.035556 
L 130.158352 216.035556 
L 130.158352 217.102222 
L 131.172898 217.102222 
L 131.172898 217.813333 
L 132.187443 217.813333 
L 132.187443 216.746667 
L 133.201989 216.746667 
L 133.201989 217.457778 
L 134.216534 217.457778 
L 134.216534 218.168889 
L 135.23108 218.168889 
L 135.23108 218.88 
L 149.434716 218.88 
L 149.434716 214.257778 
L 151.463807 214.257778 
L 151.463807 205.368889 
L 152.478352 205.368889 
L 152.478352 203.235556 
L 153.492898 203.235556 
L 153.492898 200.746667 
L 154.507443 200.746667 
L 154.507443 194.702222 
L 155.521989 194.702222 
L 155.521989 186.168889 
L 156.536534 186.168889 
L 156.536534 181.191111 
L 157.55108 181.191111 
L 157.55108 176.568889 
L 158.565625 176.568889 
L 158.565625 171.235556 
L 159.58017 171.235556 
L 159.58017 155.591111 
L 160.594716 155.591111 
L 160.594716 158.435556 
L 161.609261 158.435556 
L 161.609261 153.813333 
L 162.623807 153.813333 
L 162.623807 143.502222 
L 163.638352 143.502222 
L 163.638352 136.746667 
L 164.652898 136.746667 
L 164.652898 140.657778 
L 165.667443 140.657778 
L 165.667443 123.591111 
L 166.681989 123.591111 
L 166.681989 114.702222 
L 167.696534 114.702222 
L 167.696534 107.591111 
L 168.71108 107.591111 
L 168.71108 111.502222 
L 169.725625 111.502222 
L 169.725625 107.235556 
L 170.74017 107.235556 
L 170.74017 109.724444 
L 171.754716 109.724444 
L 171.754716 92.302222 
L 172.769261 92.302222 
L 172.769261 86.613333 
L 173.783807 86.613333 
L 173.783807 91.591111 
L 174.798352 91.591111 
L 174.798352 89.813333 
L 175.812898 89.813333 
L 175.812898 79.502222 
L 176.827443 79.502222 
L 176.827443 76.657778 
L 177.841989 76.657778 
L 177.841989 66.702222 
L 178.856534 66.702222 
L 178.856534 61.013333 
L 179.87108 61.013333 
L 179.87108 70.613333 
L 180.885625 70.613333 
L 180.885625 53.902222 
L 181.90017 53.902222 
L 181.90017 54.968889 
L 182.914716 54.968889 
L 182.914716 42.88 
L 183.929261 42.88 
L 183.929261 57.813333 
L 184.943807 57.813333 
L 184.943807 42.524444 
L 185.958352 42.524444 
L 185.958352 36.48 
L 186.972898 36.48 
L 186.972898 38.968889 
L 187.987443 38.968889 
L 187.987443 42.524444 
L 189.001989 42.524444 
L 189.001989 45.368889 
L 191.03108 45.368889 
L 191.03108 24.746667 
L 192.045625 24.746667 
L 192.045625 33.28 
L 193.06017 33.28 
L 193.06017 24.391111 
L 194.074716 24.391111 
L 194.074716 33.991111 
L 195.089261 33.991111 
L 195.089261 27.235556 
L 196.103807 27.235556 
L 196.103807 35.768889 
L 197.118352 35.768889 
L 197.118352 37.191111 
L 198.132898 37.191111 
L 198.132898 23.324444 
L 199.147443 23.324444 
L 199.147443 22.257778 
L 200.161989 22.257778 
L 200.161989 37.902222 
L 201.176534 37.902222 
L 201.176534 31.502222 
L 202.19108 31.502222 
L 202.19108 33.635556 
L 203.205625 33.635556 
L 203.205625 17.28 
L 204.22017 17.28 
L 204.22017 36.835556 
L 205.234716 36.835556 
L 205.234716 54.257778 
L 206.249261 54.257778 
L 206.249261 41.102222 
L 207.263807 41.102222 
L 207.263807 48.924444 
L 208.278352 48.924444 
L 208.278352 41.457778 
L 209.292898 41.457778 
L 209.292898 62.791111 
L 210.307443 62.791111 
L 210.307443 47.146667 
L 211.321989 47.146667 
L 211.321989 55.324444 
L 212.336534 55.324444 
L 212.336534 60.657778 
L 213.35108 60.657778 
L 213.35108 48.568889 
L 214.365625 48.568889 
L 214.365625 47.502222 
L 215.38017 47.502222 
L 215.38017 68.835556 
L 216.394716 68.835556 
L 216.394716 61.013333 
L 217.409261 61.013333 
L 217.409261 49.991111 
L 218.423807 49.991111 
L 218.423807 58.524444 
L 219.438352 58.524444 
L 219.438352 56.035556 
L 220.452898 56.035556 
L 220.452898 68.48 
L 221.467443 68.48 
L 221.467443 68.124444 
L 222.481989 68.124444 
L 222.481989 68.835556 
L 223.496534 68.835556 
L 223.496534 61.013333 
L 224.51108 61.013333 
L 224.51108 63.146667 
L 225.525625 63.146667 
L 225.525625 60.302222 
L 226.54017 60.302222 
L 226.54017 62.791111 
L 227.554716 62.791111 
L 227.554716 61.368889 
L 228.569261 61.368889 
L 228.569261 68.124444 
L 229.583807 68.124444 
L 229.583807 69.191111 
L 230.598352 69.191111 
L 230.598352 65.635556 
L 231.612898 65.635556 
L 231.612898 80.213333 
L 232.627443 80.213333 
L 232.627443 77.013333 
L 233.641989 77.013333 
L 233.641989 65.635556 
L 234.656534 65.635556 
L 234.656534 66.702222 
L 235.67108 66.702222 
L 235.67108 69.902222 
L 236.685625 69.902222 
L 236.685625 73.102222 
L 237.70017 73.102222 
L 237.70017 77.368889 
L 238.714716 77.368889 
L 238.714716 72.746667 
L 239.729261 72.746667 
L 239.729261 78.435556 
L 240.743807 78.435556 
L 240.743807 56.391111 
L 241.758352 56.391111 
L 241.758352 74.88 
L 242.772898 74.88 
L 242.772898 78.435556 
L 243.787443 78.435556 
L 243.787443 69.191111 
L 244.801989 69.191111 
L 244.801989 88.035556 
L 245.816534 88.035556 
L 245.816534 81.635556 
L 246.83108 81.635556 
L 246.83108 80.213333 
L 247.845625 80.213333 
L 247.845625 77.724444 
L 248.86017 77.724444 
L 248.86017 95.857778 
L 249.874716 95.857778 
L 249.874716 83.413333 
L 250.889261 83.413333 
L 250.889261 89.457778 
L 251.903807 89.457778 
L 251.903807 81.28 
L 252.918352 81.28 
L 252.918352 95.502222 
L 253.932898 95.502222 
L 253.932898 91.591111 
L 254.947443 91.591111 
L 254.947443 86.257778 
L 255.961989 86.257778 
L 255.961989 97.991111 
L 256.976534 97.991111 
L 256.976534 112.568889 
L 257.99108 112.568889 
L 257.99108 115.057778 
L 259.005625 115.057778 
L 259.005625 106.168889 
L 260.02017 106.168889 
L 260.02017 118.968889 
L 261.034716 118.968889 
L 261.034716 122.168889 
L 262.049261 122.168889 
L 262.049261 131.057778 
L 263.063807 131.057778 
L 263.063807 131.768889 
L 264.078352 131.768889 
L 264.078352 141.368889 
L 265.092898 141.368889 
L 265.092898 139.591111 
L 266.107443 139.591111 
L 266.107443 154.88 
L 267.121989 154.88 
L 267.121989 142.791111 
L 268.136534 142.791111 
L 268.136534 153.457778 
L 269.15108 153.457778 
L 269.15108 161.28 
L 270.165625 161.28 
L 270.165625 170.168889 
L 271.18017 170.168889 
L 271.18017 172.302222 
L 272.194716 172.302222 
L 272.194716 173.724444 
L 273.209261 173.724444 
L 273.209261 186.524444 
L 274.223807 186.524444 
L 274.223807 187.946667 
L 275.238352 187.946667 
L 275.238352 189.724444 
L 276.252898 189.724444 
L 276.252898 192.568889 
L 277.267443 192.568889 
L 277.267443 196.835556 
L 278.281989 196.835556 
L 278.281989 202.524444 
L 279.296534 202.524444 
L 279.296534 205.368889 
L 280.31108 205.368889 
L 280.31108 210.346667 
L 281.325625 210.346667 
L 281.325625 209.991111 
L 282.34017 209.991111 
L 282.34017 213.191111 
L 283.354716 213.191111 
L 283.354716 213.546667 
L 284.369261 213.546667 
L 284.369261 214.613333 
L 285.383807 214.613333 
L 285.383807 216.391111 
L 286.398352 216.391111 
L 286.398352 218.168889 
L 287.412898 218.168889 
L 287.412898 218.88 
L 297.558352 218.88 
L 297.558352 217.813333 
L 298.572898 217.813333 
L 298.572898 216.391111 
L 299.587443 216.391111 
L 299.587443 210.346667 
L 300.601989 210.346667 
L 300.601989 208.568889 
L 301.616534 208.568889 
L 301.616534 199.68 
L 302.63108 199.68 
L 302.63108 197.546667 
L 303.645625 197.546667 
L 303.645625 193.28 
L 304.66017 193.28 
L 304.66017 189.724444 
L 306.689261 189.724444 
L 306.689261 174.791111 
L 307.703807 174.791111 
L 307.703807 169.102222 
L 308.718352 169.102222 
L 308.718352 174.791111 
L 309.732898 174.791111 
L 309.732898 160.924444 
L 310.747443 160.924444 
L 310.747443 165.902222 
L 311.761989 165.902222 
L 311.761989 154.524444 
L 312.776534 154.524444 
L 312.776534 155.946667 
L 313.79108 155.946667 
L 313.79108 159.146667 
L 314.805625 159.146667 
L 314.805625 147.768889 
L 315.82017 147.768889 
L 315.82017 139.235556 
L 316.834716 139.235556 
L 316.834716 142.435556 
L 317.849261 142.435556 
L 317.849261 139.235556 
L 318.863807 139.235556 
L 318.863807 131.057778 
L 319.878352 131.057778 
L 319.878352 125.368889 
L 320.892898 125.368889 
L 320.892898 132.124444 
L 321.907443 132.124444 
L 321.907443 133.191111 
L 322.921989 133.191111 
L 322.921989 118.968889 
L 323.936534 118.968889 
L 323.936534 122.88 
L 324.95108 122.88 
L 324.95108 114.346667 
L 325.965625 114.346667 
L 325.965625 118.257778 
L 326.98017 118.257778 
L 326.98017 113.635556 
L 327.994716 113.635556 
L 327.994716 107.946667 
L 329.009261 107.946667 
L 329.009261 122.168889 
L 330.023807 122.168889 
L 330.023807 95.857778 
L 331.038352 95.857778 
L 331.038352 103.324444 
L 332.052898 103.324444 
L 332.052898 112.924444 
L 333.067443 112.924444 
L 333.067443 105.102222 
L 334.081989 105.102222 
L 334.081989 93.368889 
L 335.096534 93.368889 
L 335.096534 89.457778 
L 336.11108 89.457778 
L 336.11108 87.68 
L 337.125625 87.68 
L 337.125625 102.257778 
L 338.14017 102.257778 
L 338.14017 96.924444 
L 339.154716 96.924444 
L 339.154716 104.746667 
L 340.169261 104.746667 
L 340.169261 88.035556 
L 341.183807 88.035556 
L 341.183807 94.435556 
L 342.198352 94.435556 
L 342.198352 99.057778 
L 343.212898 99.057778 
L 343.212898 91.946667 
L 344.227443 91.946667 
L 344.227443 99.413333 
L 345.241989 99.413333 
L 345.241989 85.546667 
L 346.256534 85.546667 
L 346.256534 100.48 
L 347.27108 100.48 
L 347.27108 91.235556 
L 348.285625 91.235556 
L 348.285625 100.48 
L 349.30017 100.48 
L 349.30017 109.013333 
L 350.314716 109.013333 
L 350.314716 84.48 
L 351.329261 84.48 
L 351.329261 101.546667 
L 352.343807 101.546667 
L 352.343807 96.568889 
L 353.358352 96.568889 
L 353.358352 104.035556 
L 354.372898 104.035556 
L 354.372898 100.48 
L 355.387443 100.48 
L 355.387443 104.391111 
L 356.401989 104.391111 
L 356.401989 106.524444 
L 357.416534 106.524444 
L 357.416534 109.013333 
L 358.43108 109.013333 
L 358.43108 105.813333 
L 359.445625 105.813333 
L 359.445625 108.302222 
L 360.46017 108.302222 
L 360.46017 100.835556 
L 361.474716 100.835556 
L 361.474716 124.657778 
L 362.489261 124.657778 
L 362.489261 104.035556 
L 363.503807 104.035556 
L 363.503807 111.857778 
L 364.518352 111.857778 
L 364.518352 122.168889 
L 365.532898 122.168889 
L 365.532898 119.68 
L 366.547443 119.68 
L 366.547443 119.68 
" clip-path="url(#paede1cec1c)" style="fill: none; stroke: #1f77b4; stroke-width: 1.5; stroke-linecap: square"/>
   </g>
   <g id="patch_3">
    <path d="M 46.965625 228.96 
L 46.965625 7.2 
" style="fill: none; stroke: #000000; stroke-width: 0.8; stroke-linejoin: miter; stroke-linecap: square"/>
   </g>
   <g id="patch_4">
    <path d="M 381.765625 228.96 
L 381.765625 7.2 
" style="fill: none; stroke: #000000; stroke-width: 0.8; stroke-linejoin: miter; stroke-linecap: square"/>
   </g>
   <g id="patch_5">
    <path d="M 46.965625 228.96 
L 381.765625 228.96 
" style="fill: none; stroke: #000000; stroke-width: 0.8; stroke-linejoin: miter; stroke-linecap: square"/>
   </g>
   <g id="patch_6">
    <path d="M 46.965625 7.2 
L 381.765625 7.2 
" style="fill: none; stroke: #000000; stroke-width: 0.8; stroke-linejoin: miter; stroke-linecap: square"/>
   </g>
  </g>
 </g>
 <defs>
  <clipPath id="paede1cec1c">
   <rect x="46.965625" y="7.2" width="334.8" height="221.76"/>
  </clipPath>
 </defs>
</svg>
