<?xml version="1.0" encoding="utf-8" standalone="no"?>
<!DOCTYPE svg PUBLIC "-//W3C//DTD SVG 1.1//EN"
  "http://www.w3.org/Graphics/SVG/1.1/DTD/svg11.dtd">
<svg xmlns:xlink="http://www.w3.org/1999/xlink" width="872.39952pt" height="296.39952pt" viewBox="0 0 872.39952 296.39952" xmlns="http://www.w3.org/2000/svg" version="1.1">
 <metadata>
  <rdf:RDF xmlns:dc="http://purl.org/dc/elements/1.1/" xmlns:cc="http://creativecommons.org/ns#" xmlns:rdf="http://www.w3.org/1999/02/22-rdf-syntax-ns#">
   <cc:Work>
    <dc:type rdf:resource="http://purl.org/dc/dcmitype/StillImage"/>
    <dc:date>2026-04-22T12:31:32.037743</dc:date>
    <dc:format>image/svg+xml</dc:format>
    <dc:creator>
     <cc:Agent>
      <dc:title>Matplotlib v3.10.8, https://matplotlib.org/</dc:title>
     </cc:Agent>
    </dc:creator>
   </cc:Work>
  </rdf:RDF>
 </metadata>
 <defs>
  <style type="text/css">*{stroke-linejoin: round; stroke-linecap: butt}</style>
 </defs>
 <g id="figure_1">
  <g id="patch_1">
   <path d="M 0 296.39952 
L 872.39952 296.39952 
L 872.39952 0 
L 0 0 
z
" style="fill: #ffffff"/>
  </g>
  <g id="axes_1">
   <g id="patch_2">
    <path d="M 53.328125 257.158895 
L 414.59976 257.158895 
L 414.59976 7.2 
L 53.328125 7.2 
z
" style="fill: #ffffff"/>
   </g>
   <g id="matplotlib.axis_1">
    <g id="xtick_1">
     <g id="line2d_1">
      <defs>
       <path id="m363621909a" d="M 0 0 
L 0 3.5 
" style="stroke: #000000; stroke-width: 0.8"/>
      </defs>
      <g>
       <use xlink:href="#m363621909a" x="68.926278" y="257.158895" style="stroke: #000000; stroke-width: 0.8"/>
      </g>
     </g>
     <g id="text_1">
      <!-- 0 -->
      <g transform="translate(65.745028 271.757332) scale(0.1 -0.1)">
       <defs>
        <path id="DejaVuSans-30" d="M 2034 4250 
Q 1547 4250 1301 3770 
Q 1056 3291 1056 2328 
Q 1056 1369 1301 889 
Q 1547 409 2034 409 
Q 2525 409 2770 889 
Q 3016 1369 3016 2328 
Q 3016 3291 2770 3770 
Q 2525 4250 2034 4250 
z
M 2034 4750 
Q 2819 4750 3233 4129 
Q 3647 3509 3647 2328 
Q 3647 1150 3233 529 
Q 2819 -91 2034 -91 
Q 1250 -91 836 529 
Q 422 1150 422 2328 
Q 422 3509 836 4129 
Q 1250 4750 2034 4750 
z
" transform="scale(0.015625)"/>
       </defs>
       <use xlink:href="#DejaVuSans-30"/>
      </g>
     </g>
    </g>
    <g id="xtick_2">
     <g id="line2d_2">
      <g>
       <use xlink:href="#m363621909a" x="134.966576" y="257.158895" style="stroke: #000000; stroke-width: 0.8"/>
      </g>
     </g>
     <g id="text_2">
      <!-- 1000 -->
      <g transform="translate(122.241576 271.757332) scale(0.1 -0.1)">
       <defs>
        <path id="DejaVuSans-31" d="M 794 531 
L 1825 531 
L 1825 4091 
L 703 3866 
L 703 4441 
L 1819 4666 
L 2450 4666 
L 2450 531 
L 3481 531 
L 3481 0 
L 794 0 
L 794 531 
z
" transform="scale(0.015625)"/>
       </defs>
       <use xlink:href="#DejaVuSans-31"/>
       <use xlink:href="#DejaVuSans-30" transform="translate(63.623047 0)"/>
       <use xlink:href="#DejaVuSans-30" transform="translate(127.246094 0)"/>
       <use xlink:href="#DejaVuSans-30" transform="translate(190.869141 0)"/>
      </g>
     </g>
    </g>
    <g id="xtick_3">
     <g id="line2d_3">
      <g>
       <use xlink:href="#m363621909a" x="201.006874" y="257.158895" style="stroke: #000000; stroke-width: 0.8"/>
      </g>
     </g>
     <g id="text_3">
      <!-- 2000 -->
      <g transform="translate(188.281874 271.757332) scale(0.1 -0.1)">
       <defs>
        <path id="DejaVuSans-32" d="M 1228 531 
L 3431 531 
L 3431 0 
L 469 0 
L 469 531 
Q 828 903 1448 1529 
Q 2069 2156 2228 2338 
Q 2531 2678 2651 2914 
Q 2772 3150 2772 3378 
Q 2772 3750 2511 3984 
Q 2250 4219 1831 4219 
Q 1534 4219 1204 4116 
Q 875 4013 500 3803 
L 500 4441 
Q 881 4594 1212 4672 
Q 1544 4750 1819 4750 
Q 2544 4750 2975 4387 
Q 3406 4025 3406 3419 
Q 3406 3131 3298 2873 
Q 3191 2616 2906 2266 
Q 2828 2175 2409 1742 
Q 1991 1309 1228 531 
z
" transform="scale(0.015625)"/>
       </defs>
       <use xlink:href="#DejaVuSans-32"/>
       <use xlink:href="#DejaVuSans-30" transform="translate(63.623047 0)"/>
       <use xlink:href="#DejaVuSans-30" transform="translate(127.246094 0)"/>
       <use xlink:href="#DejaVuSans-30" transform="translate(190.869141 0)"/>
      </g>
     </g>
    </g>
    <g id="xtick_4">
     <g id="line2d_4">
      <g>
       <use xlink:href="#m363621909a" x="267.047171" y="257.158895" style="stroke: #000000; stroke-width: 0.8"/>
      </g>
     </g>
     <g id="text_4">
      <!-- 3000 -->
      <g transform="translate(254.322171 271.757332) scale(0.1 -0.1)">
       <defs>
        <path id="DejaVuSans-33" d="M 2597 2516 
Q 3050 2419 3304 2112 
Q 3559 1806 3559 1356 
Q 3559 666 3084 287 
Q 2609 -91 1734 -91 
Q 1441 -91 1130 -33 
Q 819 25 488 141 
L 488 750 
Q 750 597 1062 519 
Q 1375 441 1716 441 
Q 2309 441 2620 675 
Q 2931 909 2931 1356 
Q 2931 1769 2642 2001 
Q 2353 2234 1838 2234 
L 1294 2234 
L 1294 2753 
L 1863 2753 
Q 2328 2753 2575 2939 
Q 2822 3125 2822 3475 
Q 2822 3834 2567 4026 
Q 2313 4219 1838 4219 
Q 1578 4219 1281 4162 
Q 984 4106 628 3988 
L 628 4550 
Q 988 4650 1302 4700 
Q 1616 4750 1894 4750 
Q 2613 4750 3031 4423 
Q 3450 4097 3450 3541 
Q 3450 3153 3228 2886 
Q 3006 2619 2597 2516 
z
" transform="scale(0.015625)"/>
       </defs>
       <use xlink:href="#DejaVuSans-33"/>
       <use xlink:href="#DejaVuSans-30" transform="translate(63.623047 0)"/>
       <use xlink:href="#DejaVuSans-30" transform="translate(127.246094 0)"/>
       <use xlink:href="#DejaVuSans-30" transform="translate(190.869141 0)"/>
      </g>
     </g>
    </g>
    <g id="xtick_5">
     <g id="line2d_5">
      <g>
       <use xlink:href="#m363621909a" x="333.087469" y="257.158895" style="stroke: #000000; stroke-width: 0.8"/>
      </g>
     </g>
     <g id="text_5">
      <!-- 4000 -->
      <g transform="translate(320.362469 271.757332) scale(0.1 -0.1)">
       <defs>
        <path id="DejaVuSans-34" d="M 2419 4116 
L 825 1625 
L 2419 1625 
L 2419 4116 
z
M 2253 4666 
L 3047 4666 
L 3047 1625 
L 3713 1625 
L 3713 1100 
L 3047 1100 
L 3047 0 
L 2419 0 
L 2419 1100 
L 313 1100 
L 313 1709 
L 2253 4666 
z
" transform="scale(0.015625)"/>
       </defs>
       <use xlink:href="#DejaVuSans-34"/>
       <use xlink:href="#DejaVuSans-30" transform="translate(63.623047 0)"/>
       <use xlink:href="#DejaVuSans-30" transform="translate(127.246094 0)"/>
       <use xlink:href="#DejaVuSans-30" transform="translate(190.869141 0)"/>
      </g>
     </g>
    </g>
    <g id="xtick_6">
     <g id="line2d_6">
      <g>
       <use xlink:href="#m363621909a" x="399.127767" y="257.158895" style="stroke: #000000; stroke-width: 0.8"/>
      </g>
     </g>
     <g id="text_6">
      <!-- 5000 -->
      <g transform="translate(386.402767 271.757332) scale(0.1 -0.1)">
       <defs>
        <path id="DejaVuSans-35" d="M 691 4666 
L 3169 4666 
L 3169 4134 
L 1269 4134 
L 1269 2991 
Q 1406 3038 1543 3061 
Q 1681 3084 1819 3084 
Q 2600 3084 3056 2656 
Q 3513 2228 3513 1497 
Q 3513 744 3044 326 
Q 2575 -91 1722 -91 
Q 1428 -91 1123 -41 
Q 819 9 494 109 
L 494 744 
Q 775 591 1075 516 
Q 1375 441 1709 441 
Q 2250 441 2565 725 
Q 2881 1009 2881 1497 
Q 2881 1984 2565 2268 
Q 2250 2553 1709 2553 
Q 1456 2553 1204 2497 
Q 953 2441 691 2322 
L 691 4666 
z
" transform="scale(0.015625)"/>
       </defs>
       <use xlink:href="#DejaVuSans-35"/>
       <use xlink:href="#DejaVuSans-30" transform="translate(63.623047 0)"/>
       <use xlink:href="#DejaVuSans-30" transform="translate(127.246094 0)"/>
       <use xlink:href="#DejaVuSans-30" transform="translate(190.869141 0)"/>
      </g>
     </g>
    </g>
    <g id="text_7">
     <!-- birth_time [µs] -->
     <g transform="translate(197.14363 285.435457) scale(0.1 -0.1)">
      <defs>
       <path id="DejaVuSans-62" d="M 3116 1747 
Q 3116 2381 2855 2742 
Q 2594 3103 2138 3103 
Q 1681 3103 1420 2742 
Q 1159 2381 1159 1747 
Q 1159 1113 1420 752 
Q 1681 391 2138 391 
Q 2594 391 2855 752 
Q 3116 1113 3116 1747 
z
M 1159 2969 
Q 1341 3281 1617 3432 
Q 1894 3584 2278 3584 
Q 2916 3584 3314 3078 
Q 3713 2572 3713 1747 
Q 3713 922 3314 415 
Q 2916 -91 2278 -91 
Q 1894 -91 1617 61 
Q 1341 213 1159 525 
L 1159 0 
L 581 0 
L 581 4863 
L 1159 4863 
L 1159 2969 
z
" transform="scale(0.015625)"/>
       <path id="DejaVuSans-69" d="M 603 3500 
L 1178 3500 
L 1178 0 
L 603 0 
L 603 3500 
z
M 603 4863 
L 1178 4863 
L 1178 4134 
L 603 4134 
L 603 4863 
z
" transform="scale(0.015625)"/>
       <path id="DejaVuSans-72" d="M 2631 2963 
Q 2534 3019 2420 3045 
Q 2306 3072 2169 3072 
Q 1681 3072 1420 2755 
Q 1159 2438 1159 1844 
L 1159 0 
L 581 0 
L 581 3500 
L 1159 3500 
L 1159 2956 
Q 1341 3275 1631 3429 
Q 1922 3584 2338 3584 
Q 2397 3584 2469 3576 
Q 2541 3569 2628 3553 
L 2631 2963 
z
" transform="scale(0.015625)"/>
       <path id="DejaVuSans-74" d="M 1172 4494 
L 1172 3500 
L 2356 3500 
L 2356 3053 
L 1172 3053 
L 1172 1153 
Q 1172 725 1289 603 
Q 1406 481 1766 481 
L 2356 481 
L 2356 0 
L 1766 0 
Q 1100 0 847 248 
Q 594 497 594 1153 
L 594 3053 
L 172 3053 
L 172 3500 
L 594 3500 
L 594 4494 
L 1172 4494 
z
" transform="scale(0.015625)"/>
       <path id="DejaVuSans-68" d="M 3513 2113 
L 3513 0 
L 2938 0 
L 2938 2094 
Q 2938 2591 2744 2837 
Q 2550 3084 2163 3084 
Q 1697 3084 1428 2787 
Q 1159 2491 1159 1978 
L 1159 0 
L 581 0 
L 581 4863 
L 1159 4863 
L 1159 2956 
Q 1366 3272 1645 3428 
Q 1925 3584 2291 3584 
Q 2894 3584 3203 3211 
Q 3513 2838 3513 2113 
z
" transform="scale(0.015625)"/>
       <path id="DejaVuSans-5f" d="M 3263 -1063 
L 3263 -1509 
L -63 -1509 
L -63 -1063 
L 3263 -1063 
z
" transform="scale(0.015625)"/>
       <path id="DejaVuSans-6d" d="M 3328 2828 
Q 3544 3216 3844 3400 
Q 4144 3584 4550 3584 
Q 5097 3584 5394 3201 
Q 5691 2819 5691 2113 
L 5691 0 
L 5113 0 
L 5113 2094 
Q 5113 2597 4934 2840 
Q 4756 3084 4391 3084 
Q 3944 3084 3684 2787 
Q 3425 2491 3425 1978 
L 3425 0 
L 2847 0 
L 2847 2094 
Q 2847 2600 2669 2842 
Q 2491 3084 2119 3084 
Q 1678 3084 1418 2786 
Q 1159 2488 1159 1978 
L 1159 0 
L 581 0 
L 581 3500 
L 1159 3500 
L 1159 2956 
Q 1356 3278 1631 3431 
Q 1906 3584 2284 3584 
Q 2666 3584 2933 3390 
Q 3200 3197 3328 2828 
z
" transform="scale(0.015625)"/>
       <path id="DejaVuSans-65" d="M 3597 1894 
L 3597 1613 
L 953 1613 
Q 991 1019 1311 708 
Q 1631 397 2203 397 
Q 2534 397 2845 478 
Q 3156 559 3463 722 
L 3463 178 
Q 3153 47 2828 -22 
Q 2503 -91 2169 -91 
Q 1331 -91 842 396 
Q 353 884 353 1716 
Q 353 2575 817 3079 
Q 1281 3584 2069 3584 
Q 2775 3584 3186 3129 
Q 3597 2675 3597 1894 
z
M 3022 2063 
Q 3016 2534 2758 2815 
Q 2500 3097 2075 3097 
Q 1594 3097 1305 2825 
Q 1016 2553 972 2059 
L 3022 2063 
z
" transform="scale(0.015625)"/>
       <path id="DejaVuSans-20" transform="scale(0.015625)"/>
       <path id="DejaVuSans-5b" d="M 550 4863 
L 1875 4863 
L 1875 4416 
L 1125 4416 
L 1125 -397 
L 1875 -397 
L 1875 -844 
L 550 -844 
L 550 4863 
z
" transform="scale(0.015625)"/>
       <path id="DejaVuSans-b5" d="M 544 -1331 
L 544 3500 
L 1119 3500 
L 1119 1325 
Q 1119 872 1334 640 
Q 1550 409 1972 409 
Q 2434 409 2667 671 
Q 2900 934 2900 1459 
L 2900 3500 
L 3475 3500 
L 3475 806 
Q 3475 619 3529 530 
Q 3584 441 3700 441 
Q 3728 441 3778 458 
Q 3828 475 3916 513 
L 3916 50 
Q 3788 -22 3673 -56 
Q 3559 -91 3450 -91 
Q 3234 -91 3106 31 
Q 2978 153 2931 403 
Q 2775 156 2548 32 
Q 2322 -91 2016 -91 
Q 1697 -91 1473 31 
Q 1250 153 1119 397 
L 1119 -1331 
L 544 -1331 
z
" transform="scale(0.015625)"/>
       <path id="DejaVuSans-73" d="M 2834 3397 
L 2834 2853 
Q 2591 2978 2328 3040 
Q 2066 3103 1784 3103 
Q 1356 3103 1142 2972 
Q 928 2841 928 2578 
Q 928 2378 1081 2264 
Q 1234 2150 1697 2047 
L 1894 2003 
Q 2506 1872 2764 1633 
Q 3022 1394 3022 966 
Q 3022 478 2636 193 
Q 2250 -91 1575 -91 
Q 1294 -91 989 -36 
Q 684 19 347 128 
L 347 722 
Q 666 556 975 473 
Q 1284 391 1588 391 
Q 1994 391 2212 530 
Q 2431 669 2431 922 
Q 2431 1156 2273 1281 
Q 2116 1406 1581 1522 
L 1381 1569 
Q 847 1681 609 1914 
Q 372 2147 372 2553 
Q 372 3047 722 3315 
Q 1072 3584 1716 3584 
Q 2034 3584 2315 3537 
Q 2597 3491 2834 3397 
z
" transform="scale(0.015625)"/>
       <path id="DejaVuSans-5d" d="M 1947 4863 
L 1947 -844 
L 622 -844 
L 622 -397 
L 1369 -397 
L 1369 4416 
L 622 4416 
L 622 4863 
L 1947 4863 
z
" transform="scale(0.015625)"/>
      </defs>
      <use xlink:href="#DejaVuSans-62"/>
      <use xlink:href="#DejaVuSans-69" transform="translate(63.476562 0)"/>
      <use xlink:href="#DejaVuSans-72" transform="translate(91.259766 0)"/>
      <use xlink:href="#DejaVuSans-74" transform="translate(132.373047 0)"/>
      <use xlink:href="#DejaVuSans-68" transform="translate(171.582031 0)"/>
      <use xlink:href="#DejaVuSans-5f" transform="translate(234.960938 0)"/>
      <use xlink:href="#DejaVuSans-74" transform="translate(284.960938 0)"/>
      <use xlink:href="#DejaVuSans-69" transform="translate(324.169922 0)"/>
      <use xlink:href="#DejaVuSans-6d" transform="translate(351.953125 0)"/>
      <use xlink:href="#DejaVuSans-65" transform="translate(449.365234 0)"/>
      <use xlink:href="#DejaVuSans-20" transform="translate(510.888672 0)"/>
      <use xlink:href="#DejaVuSans-5b" transform="translate(542.675781 0)"/>
      <use xlink:href="#DejaVuSans-b5" transform="translate(581.689453 0)"/>
      <use xlink:href="#DejaVuSans-73" transform="translate(645.3125 0)"/>
      <use xlink:href="#DejaVuSans-5d" transform="translate(697.412109 0)"/>
     </g>
    </g>
   </g>
   <g id="matplotlib.axis_2">
    <g id="ytick_1">
     <g id="line2d_7">
      <defs>
       <path id="m8ff7db5131" d="M 0 0 
L -3.5 0 
" style="stroke: #000000; stroke-width: 0.8"/>
      </defs>
      <g>
       <use xlink:href="#m8ff7db5131" x="53.328125" y="245.797127" style="stroke: #000000; stroke-width: 0.8"/>
      </g>
     </g>
     <g id="text_8">
      <!-- 0 -->
      <g transform="translate(39.965625 249.596346) scale(0.1 -0.1)">
       <use xlink:href="#DejaVuSans-30"/>
      </g>
     </g>
    </g>
    <g id="ytick_2">
     <g id="line2d_8">
      <g>
       <use xlink:href="#m8ff7db5131" x="53.328125" y="209.670679" style="stroke: #000000; stroke-width: 0.8"/>
      </g>
     </g>
     <g id="text_9">
      <!-- 200 -->
      <g transform="translate(27.240625 213.469898) scale(0.1 -0.1)">
       <use xlink:href="#DejaVuSans-32"/>
       <use xlink:href="#DejaVuSans-30" transform="translate(63.623047 0)"/>
       <use xlink:href="#DejaVuSans-30" transform="translate(127.246094 0)"/>
      </g>
     </g>
    </g>
    <g id="ytick_3">
     <g id="line2d_9">
      <g>
       <use xlink:href="#m8ff7db5131" x="53.328125" y="173.544231" style="stroke: #000000; stroke-width: 0.8"/>
      </g>
     </g>
     <g id="text_10">
      <!-- 400 -->
      <g transform="translate(27.240625 177.343449) scale(0.1 -0.1)">
       <use xlink:href="#DejaVuSans-34"/>
       <use xlink:href="#DejaVuSans-30" transform="translate(63.623047 0)"/>
       <use xlink:href="#DejaVuSans-30" transform="translate(127.246094 0)"/>
      </g>
     </g>
    </g>
    <g id="ytick_4">
     <g id="line2d_10">
      <g>
       <use xlink:href="#m8ff7db5131" x="53.328125" y="137.417782" style="stroke: #000000; stroke-width: 0.8"/>
      </g>
     </g>
     <g id="text_11">
      <!-- 600 -->
      <g transform="translate(27.240625 141.217001) scale(0.1 -0.1)">
       <defs>
        <path id="DejaVuSans-36" d="M 2113 2584 
Q 1688 2584 1439 2293 
Q 1191 2003 1191 1497 
Q 1191 994 1439 701 
Q 1688 409 2113 409 
Q 2538 409 2786 701 
Q 3034 994 3034 1497 
Q 3034 2003 2786 2293 
Q 2538 2584 2113 2584 
z
M 3366 4563 
L 3366 3988 
Q 3128 4100 2886 4159 
Q 2644 4219 2406 4219 
Q 1781 4219 1451 3797 
Q 1122 3375 1075 2522 
Q 1259 2794 1537 2939 
Q 1816 3084 2150 3084 
Q 2853 3084 3261 2657 
Q 3669 2231 3669 1497 
Q 3669 778 3244 343 
Q 2819 -91 2113 -91 
Q 1303 -91 875 529 
Q 447 1150 447 2328 
Q 447 3434 972 4092 
Q 1497 4750 2381 4750 
Q 2619 4750 2861 4703 
Q 3103 4656 3366 4563 
z
" transform="scale(0.015625)"/>
       </defs>
       <use xlink:href="#DejaVuSans-36"/>
       <use xlink:href="#DejaVuSans-30" transform="translate(63.623047 0)"/>
       <use xlink:href="#DejaVuSans-30" transform="translate(127.246094 0)"/>
      </g>
     </g>
    </g>
    <g id="ytick_5">
     <g id="line2d_11">
      <g>
       <use xlink:href="#m8ff7db5131" x="53.328125" y="101.291334" style="stroke: #000000; stroke-width: 0.8"/>
      </g>
     </g>
     <g id="text_12">
      <!-- 800 -->
      <g transform="translate(27.240625 105.090553) scale(0.1 -0.1)">
       <defs>
        <path id="DejaVuSans-38" d="M 2034 2216 
Q 1584 2216 1326 1975 
Q 1069 1734 1069 1313 
Q 1069 891 1326 650 
Q 1584 409 2034 409 
Q 2484 409 2743 651 
Q 3003 894 3003 1313 
Q 3003 1734 2745 1975 
Q 2488 2216 2034 2216 
z
M 1403 2484 
Q 997 2584 770 2862 
Q 544 3141 544 3541 
Q 544 4100 942 4425 
Q 1341 4750 2034 4750 
Q 2731 4750 3128 4425 
Q 3525 4100 3525 3541 
Q 3525 3141 3298 2862 
Q 3072 2584 2669 2484 
Q 3125 2378 3379 2068 
Q 3634 1759 3634 1313 
Q 3634 634 3220 271 
Q 2806 -91 2034 -91 
Q 1263 -91 848 271 
Q 434 634 434 1313 
Q 434 1759 690 2068 
Q 947 2378 1403 2484 
z
M 1172 3481 
Q 1172 3119 1398 2916 
Q 1625 2713 2034 2713 
Q 2441 2713 2670 2916 
Q 2900 3119 2900 3481 
Q 2900 3844 2670 4047 
Q 2441 4250 2034 4250 
Q 1625 4250 1398 4047 
Q 1172 3844 1172 3481 
z
" transform="scale(0.015625)"/>
       </defs>
       <use xlink:href="#DejaVuSans-38"/>
       <use xlink:href="#DejaVuSans-30" transform="translate(63.623047 0)"/>
       <use xlink:href="#DejaVuSans-30" transform="translate(127.246094 0)"/>
      </g>
     </g>
    </g>
    <g id="ytick_6">
     <g id="line2d_12">
      <g>
       <use xlink:href="#m8ff7db5131" x="53.328125" y="65.164886" style="stroke: #000000; stroke-width: 0.8"/>
      </g>
     </g>
     <g id="text_13">
      <!-- 1000 -->
      <g transform="translate(20.878125 68.964105) scale(0.1 -0.1)">
       <use xlink:href="#DejaVuSans-31"/>
       <use xlink:href="#DejaVuSans-30" transform="translate(63.623047 0)"/>
       <use xlink:href="#DejaVuSans-30" transform="translate(127.246094 0)"/>
       <use xlink:href="#DejaVuSans-30" transform="translate(190.869141 0)"/>
      </g>
     </g>
    </g>
    <g id="ytick_7">
     <g id="line2d_13">
      <g>
       <use xlink:href="#m8ff7db5131" x="53.328125" y="29.038438" style="stroke: #000000; stroke-width: 0.8"/>
      </g>
     </g>
     <g id="text_14">
      <!-- 1200 -->
      <g transform="translate(20.878125 32.837657) scale(0.1 -0.1)">
       <use xlink:href="#DejaVuSans-31"/>
       <use xlink:href="#DejaVuSans-32" transform="translate(63.623047 0)"/>
       <use xlink:href="#DejaVuSans-30" transform="translate(127.246094 0)"/>
       <use xlink:href="#DejaVuSans-30" transform="translate(190.869141 0)"/>
      </g>
     </g>
    </g>
    <g id="text_15">
     <!-- [counts] -->
     <g transform="translate(14.798438 152.791947) rotate(-90) scale(0.1 -0.1)">
      <defs>
       <path id="DejaVuSans-63" d="M 3122 3366 
L 3122 2828 
Q 2878 2963 2633 3030 
Q 2388 3097 2138 3097 
Q 1578 3097 1268 2742 
Q 959 2388 959 1747 
Q 959 1106 1268 751 
Q 1578 397 2138 397 
Q 2388 397 2633 464 
Q 2878 531 3122 666 
L 3122 134 
Q 2881 22 2623 -34 
Q 2366 -91 2075 -91 
Q 1284 -91 818 406 
Q 353 903 353 1747 
Q 353 2603 823 3093 
Q 1294 3584 2113 3584 
Q 2378 3584 2631 3529 
Q 2884 3475 3122 3366 
z
" transform="scale(0.015625)"/>
       <path id="DejaVuSans-6f" d="M 1959 3097 
Q 1497 3097 1228 2736 
Q 959 2375 959 1747 
Q 959 1119 1226 758 
Q 1494 397 1959 397 
Q 2419 397 2687 759 
Q 2956 1122 2956 1747 
Q 2956 2369 2687 2733 
Q 2419 3097 1959 3097 
z
M 1959 3584 
Q 2709 3584 3137 3096 
Q 3566 2609 3566 1747 
Q 3566 888 3137 398 
Q 2709 -91 1959 -91 
Q 1206 -91 779 398 
Q 353 888 353 1747 
Q 353 2609 779 3096 
Q 1206 3584 1959 3584 
z
" transform="scale(0.015625)"/>
       <path id="DejaVuSans-75" d="M 544 1381 
L 544 3500 
L 1119 3500 
L 1119 1403 
Q 1119 906 1312 657 
Q 1506 409 1894 409 
Q 2359 409 2629 706 
Q 2900 1003 2900 1516 
L 2900 3500 
L 3475 3500 
L 3475 0 
L 2900 0 
L 2900 538 
Q 2691 219 2414 64 
Q 2138 -91 1772 -91 
Q 1169 -91 856 284 
Q 544 659 544 1381 
z
M 1991 3584 
L 1991 3584 
z
" transform="scale(0.015625)"/>
       <path id="DejaVuSans-6e" d="M 3513 2113 
L 3513 0 
L 2938 0 
L 2938 2094 
Q 2938 2591 2744 2837 
Q 2550 3084 2163 3084 
Q 1697 3084 1428 2787 
Q 1159 2491 1159 1978 
L 1159 0 
L 581 0 
L 581 3500 
L 1159 3500 
L 1159 2956 
Q 1366 3272 1645 3428 
Q 1925 3584 2291 3584 
Q 2894 3584 3203 3211 
Q 3513 2838 3513 2113 
z
" transform="scale(0.015625)"/>
      </defs>
      <use xlink:href="#DejaVuSans-5b"/>
      <use xlink:href="#DejaVuSans-63" transform="translate(39.013672 0)"/>
      <use xlink:href="#DejaVuSans-6f" transform="translate(93.994141 0)"/>
      <use xlink:href="#DejaVuSans-75" transform="translate(155.175781 0)"/>
      <use xlink:href="#DejaVuSans-6e" transform="translate(218.554688 0)"/>
      <use xlink:href="#DejaVuSans-74" transform="translate(281.933594 0)"/>
      <use xlink:href="#DejaVuSans-73" transform="translate(321.142578 0)"/>
      <use xlink:href="#DejaVuSans-5d" transform="translate(373.242188 0)"/>
     </g>
    </g>
   </g>
   <g id="line2d_14">
    <path d="M 69.749563 236.223618 
L 70.844325 236.223618 
L 70.844325 227.914535 
L 71.939088 227.914535 
L 71.939088 223.037465 
L 73.033851 223.037465 
L 73.033851 214.367117 
L 74.128613 214.367117 
L 74.128613 201.72286 
L 75.223376 201.72286 
L 75.223376 198.47148 
L 76.318138 198.47148 
L 76.318138 186.007855 
L 77.412901 186.007855 
L 77.412901 181.672682 
L 78.507663 181.672682 
L 78.507663 169.389689 
L 79.602426 169.389689 
L 79.602426 169.209057 
L 80.697188 169.209057 
L 80.697188 156.384168 
L 81.791951 156.384168 
L 81.791951 143.559279 
L 82.886713 143.559279 
L 82.886713 143.739911 
L 83.981476 143.739911 
L 83.981476 135.430828 
L 85.076238 135.430828 
L 85.076238 138.501576 
L 86.171001 138.501576 
L 86.171001 124.773526 
L 87.265763 124.773526 
L 87.265763 127.302377 
L 88.360526 127.302377 
L 88.360526 113.03243 
L 89.455288 113.03243 
L 89.455288 107.974727 
L 90.550051 107.974727 
L 90.550051 108.335992 
L 91.644814 108.335992 
L 91.644814 103.458921 
L 92.739576 103.458921 
L 92.739576 108.155359 
L 93.834339 108.155359 
L 93.834339 94.066045 
L 94.929101 94.066045 
L 94.929101 95.511103 
L 96.023864 95.511103 
L 96.023864 95.33047 
L 97.118626 95.33047 
L 97.118626 83.950639 
L 98.213389 83.950639 
L 98.213389 81.963685 
L 99.308151 81.963685 
L 99.308151 88.285813 
L 100.402914 88.285813 
L 100.402914 83.408742 
L 101.497676 83.408742 
L 101.497676 86.660123 
L 102.592439 86.660123 
L 102.592439 74.196498 
L 103.687201 74.196498 
L 103.687201 76.183453 
L 104.781964 76.183453 
L 104.781964 74.37713 
L 105.876726 74.37713 
L 105.876726 72.028911 
L 106.971489 72.028911 
L 106.971489 69.50006 
L 108.066252 69.50006 
L 108.066252 65.526151 
L 109.161014 65.526151 
L 109.161014 61.552241 
L 110.255777 61.552241 
L 110.255777 52.701261 
L 111.350539 52.701261 
L 111.350539 64.803622 
L 112.445302 64.803622 
L 112.445302 58.300861 
L 113.540064 58.300861 
L 113.540064 64.261725 
L 114.634827 64.261725 
L 114.634827 63.719828 
L 115.729589 63.719828 
L 115.729589 57.3977 
L 116.824352 57.3977 
L 116.824352 49.630513 
L 117.919114 49.630513 
L 117.919114 48.54672 
L 119.013877 48.54672 
L 119.013877 41.502063 
L 120.108639 41.502063 
L 120.108639 51.617468 
L 121.203402 51.617468 
L 121.203402 52.159365 
L 122.298164 52.159365 
L 122.298164 52.339997 
L 123.392927 52.339997 
L 123.392927 51.436836 
L 124.487689 51.436836 
L 124.487689 57.578332 
L 125.582452 57.578332 
L 125.582452 55.230113 
L 126.677215 55.230113 
L 126.677215 48.366088 
L 127.771977 48.366088 
L 127.771977 37.889418 
L 128.86674 37.889418 
L 128.86674 41.682695 
L 129.961502 41.682695 
L 129.961502 44.030914 
L 131.056265 44.030914 
L 131.056265 41.502063 
L 132.151027 41.502063 
L 132.151027 52.520629 
L 133.24579 52.520629 
L 133.24579 38.792579 
L 134.340552 38.792579 
L 134.340552 43.669649 
L 135.435315 43.669649 
L 135.435315 41.863327 
L 136.530077 41.863327 
L 136.530077 47.282294 
L 137.62484 47.282294 
L 137.62484 38.431314 
L 138.719602 38.431314 
L 138.719602 32.651083 
L 139.814365 32.651083 
L 139.814365 37.889418 
L 140.909127 37.889418 
L 140.909127 33.554244 
L 142.00389 33.554244 
L 142.00389 42.224592 
L 143.098652 42.224592 
L 143.098652 41.682695 
L 145.288178 41.682695 
L 145.288178 46.92103 
L 146.38294 46.92103 
L 146.38294 36.986257 
L 147.477703 36.986257 
L 147.477703 40.598901 
L 148.572465 40.598901 
L 148.572465 50.353042 
L 149.667228 50.353042 
L 149.667228 36.44436 
L 150.76199 36.44436 
L 150.76199 31.567289 
L 151.856753 31.567289 
L 151.856753 30.483496 
L 152.951515 30.483496 
L 152.951515 35.721831 
L 154.046278 35.721831 
L 154.046278 39.515108 
L 155.14104 39.515108 
L 155.14104 29.580335 
L 156.235803 29.580335 
L 156.235803 34.457405 
L 157.330565 34.457405 
L 157.330565 47.462927 
L 158.425328 47.462927 
L 158.425328 26.690219 
L 159.52009 26.690219 
L 159.52009 36.083095 
L 160.614853 36.083095 
L 160.614853 43.308385 
L 161.709615 43.308385 
L 161.709615 39.334476 
L 163.899141 39.334476 
L 163.899141 50.353042 
L 164.993903 50.353042 
L 164.993903 42.043959 
L 166.088666 42.043959 
L 166.088666 33.192979 
L 167.183428 33.192979 
L 167.183428 35.721831 
L 168.278191 35.721831 
L 168.278191 33.915508 
L 169.372953 33.915508 
L 169.372953 36.805624 
L 170.467716 36.805624 
L 170.467716 30.483496 
L 171.562478 30.483496 
L 171.562478 40.598901 
L 172.657241 40.598901 
L 172.657241 40.237637 
L 173.752003 40.237637 
L 173.752003 30.122231 
L 174.846766 30.122231 
L 174.846766 35.721831 
L 175.941528 35.721831 
L 175.941528 25.96769 
L 177.036291 25.96769 
L 177.036291 38.250682 
L 178.131053 38.250682 
L 178.131053 27.774012 
L 179.225816 27.774012 
L 179.225816 38.250682 
L 180.320579 38.250682 
L 180.320579 30.84476 
L 181.415341 30.84476 
L 181.415341 29.941599 
L 182.510104 29.941599 
L 182.510104 27.774012 
L 183.604866 27.774012 
L 183.604866 46.379133 
L 184.699629 46.379133 
L 184.699629 37.166889 
L 185.794391 37.166889 
L 185.794391 47.101662 
L 186.889154 47.101662 
L 186.889154 41.682695 
L 187.983916 41.682695 
L 187.983916 37.889418 
L 189.078679 37.889418 
L 189.078679 18.561768 
L 190.173441 18.561768 
L 190.173441 32.831715 
L 191.268204 32.831715 
L 191.268204 38.973211 
L 192.362966 38.973211 
L 192.362966 41.140798 
L 193.457729 41.140798 
L 193.457729 27.59338 
L 194.552491 27.59338 
L 194.552491 37.166889 
L 195.647254 37.166889 
L 195.647254 35.902463 
L 196.742016 35.902463 
L 196.742016 38.792579 
L 197.836779 38.792579 
L 197.836779 33.192979 
L 198.931542 33.192979 
L 198.931542 37.347521 
L 200.026304 37.347521 
L 200.026304 44.392178 
L 201.121067 44.392178 
L 201.121067 33.915508 
L 202.215829 33.915508 
L 202.215829 26.870851 
L 203.310592 26.870851 
L 203.310592 40.960166 
L 204.405354 40.960166 
L 204.405354 36.263728 
L 205.500117 36.263728 
L 205.500117 45.114707 
L 206.594879 45.114707 
L 206.594879 47.824191 
L 207.689642 47.824191 
L 207.689642 36.986257 
L 208.784404 36.986257 
L 208.784404 40.598901 
L 209.879167 40.598901 
L 209.879167 39.153843 
L 210.973929 39.153843 
L 210.973929 34.81867 
L 212.068692 34.81867 
L 212.068692 40.237637 
L 213.163454 40.237637 
L 213.163454 28.857806 
L 214.258217 28.857806 
L 214.258217 32.651083 
L 215.352979 32.651083 
L 215.352979 23.619471 
L 216.447742 23.619471 
L 216.447742 30.483496 
L 217.542505 30.483496 
L 217.542505 28.677173 
L 218.637267 28.677173 
L 218.637267 35.360566 
L 219.73203 35.360566 
L 219.73203 33.915508 
L 220.826792 33.915508 
L 220.826792 33.734876 
L 221.921555 33.734876 
L 221.921555 41.32143 
L 223.016317 41.32143 
L 223.016317 34.81867 
L 224.11108 34.81867 
L 224.11108 49.088617 
L 225.205842 49.088617 
L 225.205842 31.567289 
L 226.300605 31.567289 
L 226.300605 27.232116 
L 227.395367 27.232116 
L 227.395367 43.308385 
L 228.49013 43.308385 
L 228.49013 39.153843 
L 229.584892 39.153843 
L 229.584892 42.585856 
L 230.679655 42.585856 
L 230.679655 51.978733 
L 231.774417 51.978733 
L 231.774417 45.475972 
L 232.86918 45.475972 
L 232.86918 33.554244 
L 233.963942 33.554244 
L 233.963942 33.012347 
L 235.058705 33.012347 
L 235.058705 36.624992 
L 236.153468 36.624992 
L 236.153468 26.870851 
L 237.24823 26.870851 
L 237.24823 44.392178 
L 238.342993 44.392178 
L 238.342993 45.656604 
L 239.437755 45.656604 
L 239.437755 40.960166 
L 240.532518 40.960166 
L 240.532518 37.889418 
L 241.62728 37.889418 
L 241.62728 32.831715 
L 242.722043 32.831715 
L 242.722043 35.541199 
L 243.816805 35.541199 
L 243.816805 38.07005 
L 244.911568 38.07005 
L 244.911568 33.192979 
L 246.00633 33.192979 
L 246.00633 39.334476 
L 247.101093 39.334476 
L 247.101093 40.418269 
L 248.195855 40.418269 
L 248.195855 35.721831 
L 249.290618 35.721831 
L 249.290618 42.224592 
L 250.38538 42.224592 
L 250.38538 37.889418 
L 251.480143 37.889418 
L 251.480143 47.643559 
L 252.574906 47.643559 
L 252.574906 44.934075 
L 253.669668 44.934075 
L 253.669668 43.489017 
L 254.764431 43.489017 
L 254.764431 35.902463 
L 255.859193 35.902463 
L 255.859193 34.276773 
L 256.953956 34.276773 
L 256.953956 46.92103 
L 258.048718 46.92103 
L 258.048718 47.282294 
L 259.143481 47.282294 
L 259.143481 48.54672 
L 260.238243 48.54672 
L 260.238243 65.526151 
L 261.333006 65.526151 
L 261.333006 67.693737 
L 262.427768 67.693737 
L 262.427768 75.099659 
L 263.522531 75.099659 
L 263.522531 90.995297 
L 264.617293 90.995297 
L 264.617293 84.8538 
L 265.712056 84.8538 
L 265.712056 107.071566 
L 266.806818 107.071566 
L 266.806818 103.458921 
L 267.901581 103.458921 
L 267.901581 119.896455 
L 268.996343 119.896455 
L 268.996343 125.857319 
L 270.091106 125.857319 
L 270.091106 134.708299 
L 271.185869 134.708299 
L 271.185869 142.83675 
L 272.280631 142.83675 
L 272.280631 145.365601 
L 273.375394 145.365601 
L 273.375394 147.533188 
L 274.470156 147.533188 
L 274.470156 152.590891 
L 275.564919 152.590891 
L 275.564919 152.048994 
L 276.659681 152.048994 
L 276.659681 153.31342 
L 277.754444 153.31342 
L 277.754444 165.235148 
L 278.849206 165.235148 
L 278.849206 176.795611 
L 279.943969 176.795611 
L 279.943969 174.086127 
L 281.038731 174.086127 
L 281.038731 173.363598 
L 282.133494 173.363598 
L 282.133494 182.033946 
L 283.228256 182.033946 
L 283.228256 190.162397 
L 284.323019 190.162397 
L 284.323019 190.343029 
L 285.417781 190.343029 
L 285.417781 188.897971 
L 286.512544 188.897971 
L 286.512544 198.652112 
L 287.607306 198.652112 
L 287.607306 206.419299 
L 288.702069 206.419299 
L 288.702069 202.084125 
L 289.796832 202.084125 
L 289.796832 203.529183 
L 290.891594 203.529183 
L 290.891594 206.961195 
L 293.081119 206.961195 
L 293.081119 208.044989 
L 294.175882 208.044989 
L 294.175882 212.380162 
L 295.270644 212.380162 
L 295.270644 212.19953 
L 296.365407 212.19953 
L 296.365407 215.812175 
L 297.460169 215.812175 
L 297.460169 216.17344 
L 298.554932 216.17344 
L 298.554932 219.42482 
L 299.649694 219.42482 
L 299.649694 221.05051 
L 300.744457 221.05051 
L 300.744457 221.231142 
L 301.839219 221.231142 
L 301.839219 220.327981 
L 302.933982 220.327981 
L 302.933982 222.495568 
L 304.028744 222.495568 
L 304.028744 221.773039 
L 305.123507 221.773039 
L 305.123507 228.456432 
L 306.218269 228.456432 
L 306.218269 225.205052 
L 307.313032 225.205052 
L 307.313032 227.553271 
L 308.407795 227.553271 
L 308.407795 227.372638 
L 309.502557 227.372638 
L 309.502557 230.262754 
L 310.59732 230.262754 
L 310.59732 228.2758 
L 311.692082 228.2758 
L 311.692082 233.15287 
L 312.786845 233.15287 
L 312.786845 234.056031 
L 313.881607 234.056031 
L 313.881607 232.610973 
L 314.97637 232.610973 
L 314.97637 232.249709 
L 316.071132 232.249709 
L 316.071132 234.77856 
L 317.165895 234.77856 
L 317.165895 235.862354 
L 318.260657 235.862354 
L 318.260657 235.681722 
L 319.35542 235.681722 
L 319.35542 237.849308 
L 320.450182 237.849308 
L 320.450182 234.77856 
L 321.544945 234.77856 
L 321.544945 237.668676 
L 322.639707 237.668676 
L 322.639707 235.681722 
L 323.73447 235.681722 
L 323.73447 235.862354 
L 324.829233 235.862354 
L 324.829233 237.668676 
L 325.923995 237.668676 
L 325.923995 238.571837 
L 327.018758 238.571837 
L 327.018758 240.739424 
L 328.11352 240.739424 
L 328.11352 239.836263 
L 329.208283 239.836263 
L 329.208283 240.016895 
L 330.303045 240.016895 
L 330.303045 242.00385 
L 331.397808 242.00385 
L 331.397808 239.294366 
L 332.49257 239.294366 
L 332.49257 240.197528 
L 333.587333 240.197528 
L 333.587333 240.37816 
L 334.682095 240.37816 
L 334.682095 241.823218 
L 335.776858 241.823218 
L 335.776858 243.087643 
L 336.87162 243.087643 
L 336.87162 242.00385 
L 337.966383 242.00385 
L 337.966383 241.100689 
L 339.061145 241.100689 
L 339.061145 241.461953 
L 340.155908 241.461953 
L 340.155908 243.448908 
L 341.25067 243.448908 
L 341.25067 242.00385 
L 343.440196 242.00385 
L 343.440196 243.448908 
L 344.534958 243.448908 
L 344.534958 240.558792 
L 345.629721 240.558792 
L 345.629721 242.726379 
L 346.724483 242.726379 
L 346.724483 243.268276 
L 347.819246 243.268276 
L 347.819246 240.920057 
L 348.914008 240.920057 
L 348.914008 243.268276 
L 350.008771 243.268276 
L 350.008771 243.62954 
L 352.198296 243.62954 
L 352.198296 243.268276 
L 353.293058 243.268276 
L 353.293058 243.990805 
L 354.387821 243.990805 
L 354.387821 244.532701 
L 355.482583 244.532701 
L 355.482583 243.810172 
L 356.577346 243.810172 
L 356.577346 244.171437 
L 358.766871 244.171437 
L 358.766871 243.448908 
L 359.861633 243.448908 
L 359.861633 244.713334 
L 360.956396 244.713334 
L 360.956396 245.25523 
L 362.051159 245.25523 
L 362.051159 244.352069 
L 364.240684 244.352069 
L 364.240684 244.532701 
L 365.335446 244.532701 
L 365.335446 244.171437 
L 366.430209 244.171437 
L 366.430209 245.25523 
L 368.619734 245.25523 
L 368.619734 244.893966 
L 369.714496 244.893966 
L 369.714496 245.074598 
L 370.809259 245.074598 
L 370.809259 244.893966 
L 371.904021 244.893966 
L 371.904021 245.074598 
L 372.998784 245.074598 
L 372.998784 244.171437 
L 374.093546 244.171437 
L 374.093546 245.25523 
L 375.188309 245.25523 
L 375.188309 245.074598 
L 376.283071 245.074598 
L 376.283071 244.713334 
L 377.377834 244.713334 
L 377.377834 245.25523 
L 378.472596 245.25523 
L 378.472596 244.893966 
L 379.567359 244.893966 
L 379.567359 245.25523 
L 380.662122 245.25523 
L 380.662122 245.435863 
L 382.851647 245.435863 
L 382.851647 245.616495 
L 383.946409 245.616495 
L 383.946409 245.074598 
L 385.041172 245.074598 
L 385.041172 245.435863 
L 386.135934 245.435863 
L 386.135934 245.25523 
L 387.230697 245.25523 
L 387.230697 245.074598 
L 388.325459 245.074598 
L 388.325459 245.616495 
L 391.609747 245.616495 
L 391.609747 244.893966 
L 392.704509 244.893966 
L 392.704509 245.797127 
L 393.799272 245.797127 
L 393.799272 245.074598 
L 394.894034 245.074598 
L 394.894034 245.616495 
L 397.08356 245.616495 
L 397.08356 245.074598 
L 398.178322 245.074598 
L 398.178322 245.074598 
" clip-path="url(#p3ff17cd682)" style="fill: none; stroke: #1f77b4; stroke-width: 1.5; stroke-linecap: square"/>
   </g>
   <g id="patch_3">
    <path d="M 53.328125 257.158895 
L 53.328125 7.2 
" style="fill: none; stroke: #000000; stroke-width: 0.8; stroke-linejoin: miter; stroke-linecap: square"/>
   </g>
   <g id="patch_4">
    <path d="M 414.59976 257.158895 
L 414.59976 7.2 
" style="fill: none; stroke: #000000; stroke-width: 0.8; stroke-linejoin: miter; stroke-linecap: square"/>
   </g>
   <g id="patch_5">
    <path d="M 53.328125 257.158895 
L 414.59976 257.158895 
" style="fill: none; stroke: #000000; stroke-width: 0.8; stroke-linejoin: miter; stroke-linecap: square"/>
   </g>
   <g id="patch_6">
    <path d="M 53.328125 7.2 
L 414.59976 7.2 
" style="fill: none; stroke: #000000; stroke-width: 0.8; stroke-linejoin: miter; stroke-linecap: square"/>
   </g>
  </g>
  <g id="axes_2">
   <g id="patch_7">
    <path d="M 503.927885 257.158895 
L 865.19952 257.158895 
L 865.19952 7.2 
L 503.927885 7.2 
z
" style="fill: #ffffff"/>
   </g>
   <g id="matplotlib.axis_3">
    <g id="xtick_7">
     <g id="line2d_15">
      <g>
       <use xlink:href="#m363621909a" x="517.034829" y="257.158895" style="stroke: #000000; stroke-width: 0.8"/>
      </g>
     </g>
     <g id="text_16">
      <!-- 0.0 -->
      <g transform="translate(509.083266 271.757332) scale(0.1 -0.1)">
       <defs>
        <path id="DejaVuSans-2e" d="M 684 794 
L 1344 794 
L 1344 0 
L 684 0 
L 684 794 
z
" transform="scale(0.015625)"/>
       </defs>
       <use xlink:href="#DejaVuSans-30"/>
       <use xlink:href="#DejaVuSans-2e" transform="translate(63.623047 0)"/>
       <use xlink:href="#DejaVuSans-30" transform="translate(95.410156 0)"/>
      </g>
     </g>
    </g>
    <g id="xtick_8">
     <g id="line2d_16">
      <g>
       <use xlink:href="#m363621909a" x="558.76456" y="257.158895" style="stroke: #000000; stroke-width: 0.8"/>
      </g>
     </g>
     <g id="text_17">
      <!-- 2.5 -->
      <g transform="translate(550.812997 271.757332) scale(0.1 -0.1)">
       <use xlink:href="#DejaVuSans-32"/>
       <use xlink:href="#DejaVuSans-2e" transform="translate(63.623047 0)"/>
       <use xlink:href="#DejaVuSans-35" transform="translate(95.410156 0)"/>
      </g>
     </g>
    </g>
    <g id="xtick_9">
     <g id="line2d_17">
      <g>
       <use xlink:href="#m363621909a" x="600.49429" y="257.158895" style="stroke: #000000; stroke-width: 0.8"/>
      </g>
     </g>
     <g id="text_18">
      <!-- 5.0 -->
      <g transform="translate(592.542728 271.757332) scale(0.1 -0.1)">
       <use xlink:href="#DejaVuSans-35"/>
       <use xlink:href="#DejaVuSans-2e" transform="translate(63.623047 0)"/>
       <use xlink:href="#DejaVuSans-30" transform="translate(95.410156 0)"/>
      </g>
     </g>
    </g>
    <g id="xtick_10">
     <g id="line2d_18">
      <g>
       <use xlink:href="#m363621909a" x="642.224021" y="257.158895" style="stroke: #000000; stroke-width: 0.8"/>
      </g>
     </g>
     <g id="text_19">
      <!-- 7.5 -->
      <g transform="translate(634.272459 271.757332) scale(0.1 -0.1)">
       <defs>
        <path id="DejaVuSans-37" d="M 525 4666 
L 3525 4666 
L 3525 4397 
L 1831 0 
L 1172 0 
L 2766 4134 
L 525 4134 
L 525 4666 
z
" transform="scale(0.015625)"/>
       </defs>
       <use xlink:href="#DejaVuSans-37"/>
       <use xlink:href="#DejaVuSans-2e" transform="translate(63.623047 0)"/>
       <use xlink:href="#DejaVuSans-35" transform="translate(95.410156 0)"/>
      </g>
     </g>
    </g>
    <g id="xtick_11">
     <g id="line2d_19">
      <g>
       <use xlink:href="#m363621909a" x="683.953752" y="257.158895" style="stroke: #000000; stroke-width: 0.8"/>
      </g>
     </g>
     <g id="text_20">
      <!-- 10.0 -->
      <g transform="translate(672.820939 271.757332) scale(0.1 -0.1)">
       <use xlink:href="#DejaVuSans-31"/>
       <use xlink:href="#DejaVuSans-30" transform="translate(63.623047 0)"/>
       <use xlink:href="#DejaVuSans-2e" transform="translate(127.246094 0)"/>
       <use xlink:href="#DejaVuSans-30" transform="translate(159.033203 0)"/>
      </g>
     </g>
    </g>
    <g id="xtick_12">
     <g id="line2d_20">
      <g>
       <use xlink:href="#m363621909a" x="725.683483" y="257.158895" style="stroke: #000000; stroke-width: 0.8"/>
      </g>
     </g>
     <g id="text_21">
      <!-- 12.5 -->
      <g transform="translate(714.55067 271.757332) scale(0.1 -0.1)">
       <use xlink:href="#DejaVuSans-31"/>
       <use xlink:href="#DejaVuSans-32" transform="translate(63.623047 0)"/>
       <use xlink:href="#DejaVuSans-2e" transform="translate(127.246094 0)"/>
       <use xlink:href="#DejaVuSans-35" transform="translate(159.033203 0)"/>
      </g>
     </g>
    </g>
    <g id="xtick_13">
     <g id="line2d_21">
      <g>
       <use xlink:href="#m363621909a" x="767.413213" y="257.158895" style="stroke: #000000; stroke-width: 0.8"/>
      </g>
     </g>
     <g id="text_22">
      <!-- 15.0 -->
      <g transform="translate(756.280401 271.757332) scale(0.1 -0.1)">
       <use xlink:href="#DejaVuSans-31"/>
       <use xlink:href="#DejaVuSans-35" transform="translate(63.623047 0)"/>
       <use xlink:href="#DejaVuSans-2e" transform="translate(127.246094 0)"/>
       <use xlink:href="#DejaVuSans-30" transform="translate(159.033203 0)"/>
      </g>
     </g>
    </g>
    <g id="xtick_14">
     <g id="line2d_22">
      <g>
       <use xlink:href="#m363621909a" x="809.142944" y="257.158895" style="stroke: #000000; stroke-width: 0.8"/>
      </g>
     </g>
     <g id="text_23">
      <!-- 17.5 -->
      <g transform="translate(798.010132 271.757332) scale(0.1 -0.1)">
       <use xlink:href="#DejaVuSans-31"/>
       <use xlink:href="#DejaVuSans-37" transform="translate(63.623047 0)"/>
       <use xlink:href="#DejaVuSans-2e" transform="translate(127.246094 0)"/>
       <use xlink:href="#DejaVuSans-35" transform="translate(159.033203 0)"/>
      </g>
     </g>
    </g>
    <g id="xtick_15">
     <g id="line2d_23">
      <g>
       <use xlink:href="#m363621909a" x="850.872675" y="257.158895" style="stroke: #000000; stroke-width: 0.8"/>
      </g>
     </g>
     <g id="text_24">
      <!-- 20.0 -->
      <g transform="translate(839.739862 271.757332) scale(0.1 -0.1)">
       <use xlink:href="#DejaVuSans-32"/>
       <use xlink:href="#DejaVuSans-30" transform="translate(63.623047 0)"/>
       <use xlink:href="#DejaVuSans-2e" transform="translate(127.246094 0)"/>
       <use xlink:href="#DejaVuSans-30" transform="translate(159.033203 0)"/>
      </g>
     </g>
    </g>
    <g id="text_25">
     <!-- wavelength [Å] -->
     <g transform="translate(646.526202 287.119832) scale(0.1 -0.1)">
      <defs>
       <path id="DejaVuSans-77" d="M 269 3500 
L 844 3500 
L 1563 769 
L 2278 3500 
L 2956 3500 
L 3675 769 
L 4391 3500 
L 4966 3500 
L 4050 0 
L 3372 0 
L 2619 2869 
L 1863 0 
L 1184 0 
L 269 3500 
z
" transform="scale(0.015625)"/>
       <path id="DejaVuSans-61" d="M 2194 1759 
Q 1497 1759 1228 1600 
Q 959 1441 959 1056 
Q 959 750 1161 570 
Q 1363 391 1709 391 
Q 2188 391 2477 730 
Q 2766 1069 2766 1631 
L 2766 1759 
L 2194 1759 
z
M 3341 1997 
L 3341 0 
L 2766 0 
L 2766 531 
Q 2569 213 2275 61 
Q 1981 -91 1556 -91 
Q 1019 -91 701 211 
Q 384 513 384 1019 
Q 384 1609 779 1909 
Q 1175 2209 1959 2209 
L 2766 2209 
L 2766 2266 
Q 2766 2663 2505 2880 
Q 2244 3097 1772 3097 
Q 1472 3097 1187 3025 
Q 903 2953 641 2809 
L 641 3341 
Q 956 3463 1253 3523 
Q 1550 3584 1831 3584 
Q 2591 3584 2966 3190 
Q 3341 2797 3341 1997 
z
" transform="scale(0.015625)"/>
       <path id="DejaVuSans-76" d="M 191 3500 
L 800 3500 
L 1894 563 
L 2988 3500 
L 3597 3500 
L 2284 0 
L 1503 0 
L 191 3500 
z
" transform="scale(0.015625)"/>
       <path id="DejaVuSans-6c" d="M 603 4863 
L 1178 4863 
L 1178 0 
L 603 0 
L 603 4863 
z
" transform="scale(0.015625)"/>
       <path id="DejaVuSans-67" d="M 2906 1791 
Q 2906 2416 2648 2759 
Q 2391 3103 1925 3103 
Q 1463 3103 1205 2759 
Q 947 2416 947 1791 
Q 947 1169 1205 825 
Q 1463 481 1925 481 
Q 2391 481 2648 825 
Q 2906 1169 2906 1791 
z
M 3481 434 
Q 3481 -459 3084 -895 
Q 2688 -1331 1869 -1331 
Q 1566 -1331 1297 -1286 
Q 1028 -1241 775 -1147 
L 775 -588 
Q 1028 -725 1275 -790 
Q 1522 -856 1778 -856 
Q 2344 -856 2625 -561 
Q 2906 -266 2906 331 
L 2906 616 
Q 2728 306 2450 153 
Q 2172 0 1784 0 
Q 1141 0 747 490 
Q 353 981 353 1791 
Q 353 2603 747 3093 
Q 1141 3584 1784 3584 
Q 2172 3584 2450 3431 
Q 2728 3278 2906 2969 
L 2906 3500 
L 3481 3500 
L 3481 434 
z
" transform="scale(0.015625)"/>
       <path id="DejaVuSans-c5" d="M 2663 5081 
Q 2663 5278 2523 5417 
Q 2384 5556 2188 5556 
Q 1988 5556 1852 5420 
Q 1716 5284 1716 5081 
Q 1716 4884 1853 4746 
Q 1991 4609 2188 4609 
Q 2384 4609 2523 4746 
Q 2663 4884 2663 5081 
z
M 2188 4044 
L 1338 1722 
L 3041 1722 
L 2188 4044 
z
M 1716 4366 
Q 1525 4494 1428 4673 
Q 1331 4853 1331 5081 
Q 1331 5441 1579 5691 
Q 1828 5941 2188 5941 
Q 2544 5941 2795 5689 
Q 3047 5438 3047 5081 
Q 3047 4863 2948 4678 
Q 2850 4494 2663 4366 
L 4325 0 
L 3669 0 
L 3244 1197 
L 1141 1197 
L 716 0 
L 50 0 
L 1716 4366 
z
" transform="scale(0.015625)"/>
      </defs>
      <use xlink:href="#DejaVuSans-77"/>
      <use xlink:href="#DejaVuSans-61" transform="translate(81.787109 0)"/>
      <use xlink:href="#DejaVuSans-76" transform="translate(143.066406 0)"/>
      <use xlink:href="#DejaVuSans-65" transform="translate(202.246094 0)"/>
      <use xlink:href="#DejaVuSans-6c" transform="translate(263.769531 0)"/>
      <use xlink:href="#DejaVuSans-65" transform="translate(291.552734 0)"/>
      <use xlink:href="#DejaVuSans-6e" transform="translate(353.076172 0)"/>
      <use xlink:href="#DejaVuSans-67" transform="translate(416.455078 0)"/>
      <use xlink:href="#DejaVuSans-74" transform="translate(479.931641 0)"/>
      <use xlink:href="#DejaVuSans-68" transform="translate(519.140625 0)"/>
      <use xlink:href="#DejaVuSans-20" transform="translate(582.519531 0)"/>
      <use xlink:href="#DejaVuSans-5b" transform="translate(614.306641 0)"/>
      <use xlink:href="#DejaVuSans-c5" transform="translate(653.320312 0)"/>
      <use xlink:href="#DejaVuSans-5d" transform="translate(721.728516 0)"/>
     </g>
    </g>
   </g>
   <g id="matplotlib.axis_4">
    <g id="ytick_8">
     <g id="line2d_24">
      <g>
       <use xlink:href="#m8ff7db5131" x="503.927885" y="245.797127" style="stroke: #000000; stroke-width: 0.8"/>
      </g>
     </g>
     <g id="text_26">
      <!-- 0 -->
      <g transform="translate(490.565385 249.596346) scale(0.1 -0.1)">
       <use xlink:href="#DejaVuSans-30"/>
      </g>
     </g>
    </g>
    <g id="ytick_9">
     <g id="line2d_25">
      <g>
       <use xlink:href="#m8ff7db5131" x="503.927885" y="193.06207" style="stroke: #000000; stroke-width: 0.8"/>
      </g>
     </g>
     <g id="text_27">
      <!-- 1000 -->
      <g transform="translate(471.477885 196.861289) scale(0.1 -0.1)">
       <use xlink:href="#DejaVuSans-31"/>
       <use xlink:href="#DejaVuSans-30" transform="translate(63.623047 0)"/>
       <use xlink:href="#DejaVuSans-30" transform="translate(127.246094 0)"/>
       <use xlink:href="#DejaVuSans-30" transform="translate(190.869141 0)"/>
      </g>
     </g>
    </g>
    <g id="ytick_10">
     <g id="line2d_26">
      <g>
       <use xlink:href="#m8ff7db5131" x="503.927885" y="140.327014" style="stroke: #000000; stroke-width: 0.8"/>
      </g>
     </g>
     <g id="text_28">
      <!-- 2000 -->
      <g transform="translate(471.477885 144.126233) scale(0.1 -0.1)">
       <use xlink:href="#DejaVuSans-32"/>
       <use xlink:href="#DejaVuSans-30" transform="translate(63.623047 0)"/>
       <use xlink:href="#DejaVuSans-30" transform="translate(127.246094 0)"/>
       <use xlink:href="#DejaVuSans-30" transform="translate(190.869141 0)"/>
      </g>
     </g>
    </g>
    <g id="ytick_11">
     <g id="line2d_27">
      <g>
       <use xlink:href="#m8ff7db5131" x="503.927885" y="87.591957" style="stroke: #000000; stroke-width: 0.8"/>
      </g>
     </g>
     <g id="text_29">
      <!-- 3000 -->
      <g transform="translate(471.477885 91.391176) scale(0.1 -0.1)">
       <use xlink:href="#DejaVuSans-33"/>
       <use xlink:href="#DejaVuSans-30" transform="translate(63.623047 0)"/>
       <use xlink:href="#DejaVuSans-30" transform="translate(127.246094 0)"/>
       <use xlink:href="#DejaVuSans-30" transform="translate(190.869141 0)"/>
      </g>
     </g>
    </g>
    <g id="ytick_12">
     <g id="line2d_28">
      <g>
       <use xlink:href="#m8ff7db5131" x="503.927885" y="34.8569" style="stroke: #000000; stroke-width: 0.8"/>
      </g>
     </g>
     <g id="text_30">
      <!-- 4000 -->
      <g transform="translate(471.477885 38.656119) scale(0.1 -0.1)">
       <use xlink:href="#DejaVuSans-34"/>
       <use xlink:href="#DejaVuSans-30" transform="translate(63.623047 0)"/>
       <use xlink:href="#DejaVuSans-30" transform="translate(127.246094 0)"/>
       <use xlink:href="#DejaVuSans-30" transform="translate(190.869141 0)"/>
      </g>
     </g>
    </g>
    <g id="text_31">
     <!-- [counts] -->
     <g transform="translate(465.398197 152.791947) rotate(-90) scale(0.1 -0.1)">
      <use xlink:href="#DejaVuSans-5b"/>
      <use xlink:href="#DejaVuSans-63" transform="translate(39.013672 0)"/>
      <use xlink:href="#DejaVuSans-6f" transform="translate(93.994141 0)"/>
      <use xlink:href="#DejaVuSans-75" transform="translate(155.175781 0)"/>
      <use xlink:href="#DejaVuSans-6e" transform="translate(218.554688 0)"/>
      <use xlink:href="#DejaVuSans-74" transform="translate(281.933594 0)"/>
      <use xlink:href="#DejaVuSans-73" transform="translate(321.142578 0)"/>
      <use xlink:href="#DejaVuSans-5d" transform="translate(373.242188 0)"/>
     </g>
    </g>
   </g>
   <g id="line2d_29">
    <path d="M 520.349323 155.567445 
L 521.444085 155.567445 
L 521.444085 145.758725 
L 522.538848 145.758725 
L 522.538848 140.379749 
L 524.728373 140.327014 
L 524.728373 142.541886 
L 525.823136 142.541886 
L 525.823136 150.61035 
L 526.917898 150.61035 
L 526.917898 144.123938 
L 528.012661 144.123938 
L 528.012661 123.873676 
L 529.107423 123.873676 
L 529.107423 104.41444 
L 530.202186 104.41444 
L 530.202186 82.054776 
L 531.296948 82.054776 
L 531.296948 62.964686 
L 532.391711 62.964686 
L 532.391711 41.554253 
L 533.486473 41.554253 
L 533.486473 23.624333 
L 534.581236 23.624333 
L 534.581236 23.940744 
L 535.675998 23.940744 
L 535.675998 25.206385 
L 536.770761 25.206385 
L 536.770761 18.561768 
L 537.865523 18.561768 
L 537.865523 38.548354 
L 538.960286 38.548354 
L 538.960286 37.493653 
L 540.055048 37.493653 
L 540.055048 50.413742 
L 541.149811 50.413742 
L 541.149811 57.79665 
L 542.244574 57.79665 
L 542.244574 64.441267 
L 543.339336 64.441267 
L 543.339336 75.726569 
L 544.434099 75.726569 
L 544.434099 87.064607 
L 545.528861 87.064607 
L 545.528861 89.595889 
L 546.623624 89.595889 
L 546.623624 92.074437 
L 547.718386 92.074437 
L 547.718386 92.918198 
L 548.813149 92.918198 
L 548.813149 93.920164 
L 549.907911 93.920164 
L 549.907911 94.447514 
L 551.002674 94.447514 
L 551.002674 94.289309 
L 552.097436 94.289309 
L 552.097436 84.269649 
L 553.192199 84.269649 
L 553.192199 75.726569 
L 554.286961 75.726569 
L 554.286961 71.87691 
L 555.381724 71.87691 
L 555.381724 62.226395 
L 556.476486 62.226395 
L 556.476486 53.788786 
L 557.571249 53.788786 
L 557.571249 45.192972 
L 558.666012 45.192972 
L 558.666012 39.44485 
L 559.760774 39.44485 
L 559.760774 34.487755 
L 560.855537 34.487755 
L 560.855537 48.40981 
L 561.950299 48.40981 
L 561.950299 46.564083 
L 563.045062 46.564083 
L 563.045062 59.062291 
L 564.139824 59.062291 
L 564.139824 71.87691 
L 565.234587 71.87691 
L 565.234587 80.156314 
L 566.329349 80.156314 
L 566.329349 85.64076 
L 567.424112 85.64076 
L 567.424112 100.03743 
L 568.518874 100.03743 
L 568.518874 104.2035 
L 569.613637 104.2035 
L 569.613637 109.951621 
L 570.708399 109.951621 
L 570.708399 114.01222 
L 571.803162 114.01222 
L 571.803162 122.397094 
L 572.897924 122.397094 
L 572.897924 128.250686 
L 573.992687 128.250686 
L 573.992687 137.532056 
L 575.087449 137.532056 
L 575.087449 140.854364 
L 576.182212 140.854364 
L 576.182212 146.0224 
L 577.276975 146.0224 
L 577.276975 155.40924 
L 578.371737 155.40924 
L 578.371737 157.202232 
L 579.4665 157.202232 
L 579.4665 157.782318 
L 580.561262 157.782318 
L 580.561262 165.534371 
L 581.656025 165.534371 
L 581.656025 168.382064 
L 582.750787 168.382064 
L 582.750787 172.917279 
L 583.84555 172.917279 
L 583.84555 177.030613 
L 584.940312 177.030613 
L 584.940312 177.663434 
L 586.035075 177.663434 
L 586.035075 179.350956 
L 587.129837 179.350956 
L 587.129837 187.419419 
L 588.2246 187.419419 
L 588.2246 186.575658 
L 589.319362 186.575658 
L 589.319362 191.743694 
L 590.414125 191.743694 
L 590.414125 192.903865 
L 591.508887 192.903865 
L 591.508887 195.435148 
L 592.60365 195.435148 
L 592.60365 196.91173 
L 593.698412 196.91173 
L 593.698412 199.759423 
L 594.793175 199.759423 
L 594.793175 200.866859 
L 595.887938 200.866859 
L 595.887938 201.183269 
L 596.9827 201.183269 
L 596.9827 208.513442 
L 598.077463 208.513442 
L 598.077463 207.511476 
L 599.172225 207.511476 
L 599.172225 208.460707 
L 600.266988 208.460707 
L 600.266988 212.521306 
L 601.36175 212.521306 
L 601.36175 214.103358 
L 602.456513 214.103358 
L 602.456513 214.577974 
L 603.551275 214.577974 
L 603.551275 216.370965 
L 604.646038 216.370965 
L 604.646038 217.953017 
L 605.7408 217.953017 
L 605.7408 216.687376 
L 606.835563 216.687376 
L 606.835563 218.585838 
L 607.930325 218.585838 
L 607.930325 220.958915 
L 609.025088 220.958915 
L 609.025088 222.119087 
L 611.214613 222.224557 
L 611.214613 223.806608 
L 612.309375 223.806608 
L 612.309375 224.386694 
L 613.404138 224.386694 
L 613.404138 224.597634 
L 614.498901 224.597634 
L 614.498901 224.96678 
L 615.593663 224.96678 
L 615.593663 225.546865 
L 616.688426 225.546865 
L 616.688426 228.025413 
L 617.783188 228.025413 
L 617.783188 229.027379 
L 618.877951 229.027379 
L 618.877951 228.025413 
L 619.972713 228.025413 
L 619.972713 231.927807 
L 621.067476 231.927807 
L 621.067476 230.714901 
L 622.162238 230.714901 
L 622.162238 229.607465 
L 623.257001 229.607465 
L 623.257001 232.191482 
L 624.351763 232.191482 
L 624.351763 232.771568 
L 625.446526 232.771568 
L 625.446526 231.664132 
L 626.541288 231.664132 
L 626.541288 233.826269 
L 627.636051 233.826269 
L 627.636051 234.45909 
L 628.730813 234.45909 
L 628.730813 232.191482 
L 629.825576 232.191482 
L 629.825576 234.828235 
L 630.920339 234.828235 
L 630.920339 235.039175 
L 632.015101 235.039175 
L 632.015101 234.24815 
L 633.109864 234.24815 
L 633.109864 235.408321 
L 634.204626 235.408321 
L 634.204626 234.933705 
L 635.299389 234.933705 
L 635.299389 236.093877 
L 636.394151 236.093877 
L 636.394151 237.359518 
L 637.488914 237.359518 
L 637.488914 236.410287 
L 638.583676 236.410287 
L 638.583676 236.937638 
L 639.678439 236.937638 
L 639.678439 237.675928 
L 640.773201 237.675928 
L 640.773201 237.834133 
L 644.057489 237.834133 
L 644.057489 237.992339 
L 645.152251 237.992339 
L 645.152251 238.308749 
L 646.247014 238.308749 
L 646.247014 238.677894 
L 647.341776 238.677894 
L 647.341776 240.049006 
L 648.436539 240.049006 
L 648.436539 237.939604 
L 649.531302 237.939604 
L 649.531302 239.943536 
L 651.720827 239.943536 
L 651.720827 239.205245 
L 652.815589 239.205245 
L 652.815589 240.734562 
L 656.099877 240.629091 
L 656.099877 241.209177 
L 657.194639 241.209177 
L 657.194639 240.840032 
L 659.384164 240.787297 
L 659.384164 242.263878 
L 661.573689 242.211143 
L 661.573689 240.945502 
L 662.668452 240.945502 
L 662.668452 241.736528 
L 663.763214 241.736528 
L 663.763214 242.580289 
L 664.857977 242.580289 
L 664.857977 242.052938 
L 665.952739 242.052938 
L 665.952739 242.580289 
L 667.047502 242.580289 
L 667.047502 241.472852 
L 668.142265 241.472852 
L 668.142265 241.683793 
L 669.237027 241.683793 
L 669.237027 241.894733 
L 672.521315 241.947468 
L 672.521315 243.265844 
L 673.616077 243.265844 
L 673.616077 242.791229 
L 674.71084 242.791229 
L 674.71084 242.580289 
L 676.900365 242.527554 
L 676.900365 242.949434 
L 677.995127 242.949434 
L 677.995127 243.476785 
L 679.08989 243.476785 
L 679.08989 243.265844 
L 680.184652 243.265844 
L 680.184652 243.52952 
L 681.279415 243.52952 
L 681.279415 243.318579 
L 682.374177 243.318579 
L 682.374177 242.685759 
L 683.46894 242.685759 
L 683.46894 242.474818 
L 684.563702 242.474818 
L 684.563702 243.898665 
L 685.658465 243.898665 
L 685.658465 244.426016 
L 686.753228 244.426016 
L 686.753228 243.793195 
L 687.84799 243.793195 
L 687.84799 243.213109 
L 688.942753 243.213109 
L 688.942753 243.793195 
L 691.132278 243.84593 
L 691.132278 243.9514 
L 692.22704 243.9514 
L 692.22704 243.63499 
L 694.416565 243.52952 
L 694.416565 243.424049 
L 695.511328 243.424049 
L 695.511328 244.004135 
L 699.890378 243.9514 
L 699.890378 244.16234 
L 700.98514 244.16234 
L 700.98514 243.898665 
L 702.079903 243.898665 
L 702.079903 244.26781 
L 703.174666 244.26781 
L 703.174666 243.84593 
L 705.364191 243.84593 
L 705.364191 244.320545 
L 707.553716 244.26781 
L 707.553716 244.05687 
L 708.648478 244.05687 
L 708.648478 244.320545 
L 709.743241 244.320545 
L 709.743241 244.478751 
L 710.838003 244.478751 
L 710.838003 243.9514 
L 711.932766 243.9514 
L 711.932766 244.26781 
L 713.027528 244.26781 
L 713.027528 244.689691 
L 714.122291 244.689691 
L 714.122291 244.320545 
L 715.217053 244.320545 
L 715.217053 244.847896 
L 717.406578 244.847896 
L 717.406578 244.636956 
L 718.501341 244.636956 
L 718.501341 244.795161 
L 719.596103 244.795161 
L 719.596103 244.215075 
L 720.690866 244.215075 
L 720.690866 244.584221 
L 722.880391 244.636956 
L 722.880391 245.164306 
L 723.975154 245.164306 
L 723.975154 244.795161 
L 729.448966 244.900631 
L 729.448966 244.636956 
L 730.543729 244.636956 
L 730.543729 245.058836 
L 732.733254 245.006101 
L 732.733254 244.795161 
L 733.828016 244.795161 
L 733.828016 244.953366 
L 734.922779 244.953366 
L 734.922779 244.689691 
L 736.017541 244.689691 
L 736.017541 245.375247 
L 739.301829 245.375247 
L 739.301829 244.847896 
L 740.396592 244.847896 
L 740.396592 245.164306 
L 743.680879 245.164306 
L 743.680879 244.953366 
L 744.775642 244.953366 
L 744.775642 245.164306 
L 745.870404 245.164306 
L 745.870404 244.900631 
L 746.965167 244.900631 
L 746.965167 245.217041 
L 748.059929 245.217041 
L 748.059929 245.480717 
L 749.154692 245.480717 
L 749.154692 245.111571 
L 751.344217 245.217041 
L 751.344217 245.269776 
L 753.533742 245.322512 
L 753.533742 245.006101 
L 754.628504 245.006101 
L 754.628504 245.427982 
L 755.723267 245.427982 
L 755.723267 245.111571 
L 760.102317 245.217041 
L 760.102317 245.427982 
L 762.291842 245.427982 
L 762.291842 245.058836 
L 764.481367 245.111571 
L 764.481367 245.533452 
L 765.57613 245.533452 
L 765.57613 245.164306 
L 766.670892 245.164306 
L 766.670892 245.375247 
L 767.765655 245.375247 
L 767.765655 245.533452 
L 768.860417 245.533452 
L 768.860417 245.691657 
L 769.95518 245.691657 
L 769.95518 245.269776 
L 774.33423 245.322512 
L 774.33423 245.533452 
L 777.618518 245.586187 
L 777.618518 245.691657 
L 779.808043 245.638922 
L 779.808043 245.533452 
L 780.902805 245.533452 
L 780.902805 245.322512 
L 783.09233 245.427982 
L 783.09233 245.586187 
L 796.229481 245.638922 
L 796.229481 245.797127 
L 797.324243 245.797127 
L 797.324243 245.322512 
L 799.513768 245.269776 
L 799.513768 245.586187 
L 801.703293 245.480717 
L 801.703293 245.375247 
L 802.798056 245.375247 
L 802.798056 245.691657 
L 803.892818 245.691657 
L 803.892818 245.427982 
L 804.987581 245.427982 
L 804.987581 245.691657 
L 808.271868 245.638922 
L 808.271868 245.427982 
L 809.366631 245.427982 
L 809.366631 245.586187 
L 810.461393 245.586187 
L 810.461393 245.744392 
L 817.029969 245.797127 
L 817.029969 245.586187 
L 818.124731 245.586187 
L 818.124731 245.375247 
L 819.219494 245.375247 
L 819.219494 245.744392 
L 821.409019 245.691657 
L 821.409019 245.533452 
L 825.788069 245.638922 
L 825.788069 245.691657 
L 843.304269 245.586187 
L 843.304269 245.533452 
L 844.399032 245.533452 
L 844.399032 245.744392 
L 848.778082 245.638922 
L 848.778082 245.638922 
" clip-path="url(#pb736200685)" style="fill: none; stroke: #1f77b4; stroke-width: 1.5; stroke-linecap: square"/>
   </g>
   <g id="patch_8">
    <path d="M 503.927885 257.158895 
L 503.927885 7.2 
" style="fill: none; stroke: #000000; stroke-width: 0.8; stroke-linejoin: miter; stroke-linecap: square"/>
   </g>
   <g id="patch_9">
    <path d="M 865.19952 257.158895 
L 865.19952 7.2 
" style="fill: none; stroke: #000000; stroke-width: 0.8; stroke-linejoin: miter; stroke-linecap: square"/>
   </g>
   <g id="patch_10">
    <path d="M 503.927885 257.158895 
L 865.19952 257.158895 
" style="fill: none; stroke: #000000; stroke-width: 0.8; stroke-linejoin: miter; stroke-linecap: square"/>
   </g>
   <g id="patch_11">
    <path d="M 503.927885 7.2 
L 865.19952 7.2 
" style="fill: none; stroke: #000000; stroke-width: 0.8; stroke-linejoin: miter; stroke-linecap: square"/>
   </g>
  </g>
 </g>
 <defs>
  <clipPath id="p3ff17cd682">
   <rect x="53.328125" y="7.2" width="361.271635" height="249.958895"/>
  </clipPath>
  <clipPath id="pb736200685">
   <rect x="503.927885" y="7.2" width="361.271635" height="249.958895"/>
  </clipPath>
 </defs>
</svg>
