<?xml version="1.0" encoding="utf-8" standalone="no"?>
<!DOCTYPE svg PUBLIC "-//W3C//DTD SVG 1.1//EN"
  "http://www.w3.org/Graphics/SVG/1.1/DTD/svg11.dtd">
<svg xmlns:xlink="http://www.w3.org/1999/xlink" width="388.965625pt" height="266.794375pt" viewBox="0 0 388.965625 266.794375" xmlns="http://www.w3.org/2000/svg" version="1.1">
 <metadata>
  <rdf:RDF xmlns:dc="http://purl.org/dc/elements/1.1/" xmlns:cc="http://creativecommons.org/ns#" xmlns:rdf="http://www.w3.org/1999/02/22-rdf-syntax-ns#">
   <cc:Work>
    <dc:type rdf:resource="http://purl.org/dc/dcmitype/StillImage"/>
    <dc:date>2026-06-25T12:55:00.580799</dc:date>
    <dc:format>image/svg+xml</dc:format>
    <dc:creator>
     <cc:Agent>
      <dc:title>Matplotlib v3.10.9, https://matplotlib.org/</dc:title>
     </cc:Agent>
    </dc:creator>
   </cc:Work>
  </rdf:RDF>
 </metadata>
 <defs>
  <style type="text/css">*{stroke-linejoin: round; stroke-linecap: butt}</style>
 </defs>
 <g id="figure_1">
  <g id="patch_1">
   <path d="M 0 266.794375 
L 388.965625 266.794375 
L 388.965625 0 
L 0 0 
z
" style="fill: #ffffff"/>
  </g>
  <g id="axes_1">
   <g id="patch_2">
    <path d="M 46.965625 228.96 
L 381.765625 228.96 
L 381.765625 7.2 
L 46.965625 7.2 
z
" style="fill: #ffffff"/>
   </g>
   <g id="matplotlib.axis_1">
    <g id="xtick_1">
     <g id="line2d_1">
      <defs>
       <path id="mdab79b6ce1" d="M 0 0 
L 0 3.5 
" style="stroke: #000000; stroke-width: 0.8"/>
      </defs>
      <g>
       <use xlink:href="#mdab79b6ce1" x="62.17786" y="228.96" style="stroke: #000000; stroke-width: 0.8"/>
      </g>
     </g>
     <g id="text_1">
      <!-- 0 -->
      <g transform="translate(58.99661 243.558437) scale(0.1 -0.1)">
       <defs>
        <path id="DejaVuSans-30" d="M 2034 4250 
Q 1547 4250 1301 3770 
Q 1056 3291 1056 2328 
Q 1056 1369 1301 889 
Q 1547 409 2034 409 
Q 2525 409 2770 889 
Q 3016 1369 3016 2328 
Q 3016 3291 2770 3770 
Q 2525 4250 2034 4250 
z
M 2034 4750 
Q 2819 4750 3233 4129 
Q 3647 3509 3647 2328 
Q 3647 1150 3233 529 
Q 2819 -91 2034 -91 
Q 1250 -91 836 529 
Q 422 1150 422 2328 
Q 422 3509 836 4129 
Q 1250 4750 2034 4750 
z
" transform="scale(0.015625)"/>
       </defs>
       <use xlink:href="#DejaVuSans-30"/>
      </g>
     </g>
    </g>
    <g id="xtick_2">
     <g id="line2d_2">
      <g>
       <use xlink:href="#mdab79b6ce1" x="104.790813" y="228.96" style="stroke: #000000; stroke-width: 0.8"/>
      </g>
     </g>
     <g id="text_2">
      <!-- 10000 -->
      <g transform="translate(88.884563 243.558437) scale(0.1 -0.1)">
       <defs>
        <path id="DejaVuSans-31" d="M 794 531 
L 1825 531 
L 1825 4091 
L 703 3866 
L 703 4441 
L 1819 4666 
L 2450 4666 
L 2450 531 
L 3481 531 
L 3481 0 
L 794 0 
L 794 531 
z
" transform="scale(0.015625)"/>
       </defs>
       <use xlink:href="#DejaVuSans-31"/>
       <use xlink:href="#DejaVuSans-30" transform="translate(63.623047 0)"/>
       <use xlink:href="#DejaVuSans-30" transform="translate(127.246094 0)"/>
       <use xlink:href="#DejaVuSans-30" transform="translate(190.869141 0)"/>
       <use xlink:href="#DejaVuSans-30" transform="translate(254.492188 0)"/>
      </g>
     </g>
    </g>
    <g id="xtick_3">
     <g id="line2d_3">
      <g>
       <use xlink:href="#mdab79b6ce1" x="147.403766" y="228.96" style="stroke: #000000; stroke-width: 0.8"/>
      </g>
     </g>
     <g id="text_3">
      <!-- 20000 -->
      <g transform="translate(131.497516 243.558437) scale(0.1 -0.1)">
       <defs>
        <path id="DejaVuSans-32" d="M 1228 531 
L 3431 531 
L 3431 0 
L 469 0 
L 469 531 
Q 828 903 1448 1529 
Q 2069 2156 2228 2338 
Q 2531 2678 2651 2914 
Q 2772 3150 2772 3378 
Q 2772 3750 2511 3984 
Q 2250 4219 1831 4219 
Q 1534 4219 1204 4116 
Q 875 4013 500 3803 
L 500 4441 
Q 881 4594 1212 4672 
Q 1544 4750 1819 4750 
Q 2544 4750 2975 4387 
Q 3406 4025 3406 3419 
Q 3406 3131 3298 2873 
Q 3191 2616 2906 2266 
Q 2828 2175 2409 1742 
Q 1991 1309 1228 531 
z
" transform="scale(0.015625)"/>
       </defs>
       <use xlink:href="#DejaVuSans-32"/>
       <use xlink:href="#DejaVuSans-30" transform="translate(63.623047 0)"/>
       <use xlink:href="#DejaVuSans-30" transform="translate(127.246094 0)"/>
       <use xlink:href="#DejaVuSans-30" transform="translate(190.869141 0)"/>
       <use xlink:href="#DejaVuSans-30" transform="translate(254.492188 0)"/>
      </g>
     </g>
    </g>
    <g id="xtick_4">
     <g id="line2d_4">
      <g>
       <use xlink:href="#mdab79b6ce1" x="190.016719" y="228.96" style="stroke: #000000; stroke-width: 0.8"/>
      </g>
     </g>
     <g id="text_4">
      <!-- 30000 -->
      <g transform="translate(174.110469 243.558437) scale(0.1 -0.1)">
       <defs>
        <path id="DejaVuSans-33" d="M 2597 2516 
Q 3050 2419 3304 2112 
Q 3559 1806 3559 1356 
Q 3559 666 3084 287 
Q 2609 -91 1734 -91 
Q 1441 -91 1130 -33 
Q 819 25 488 141 
L 488 750 
Q 750 597 1062 519 
Q 1375 441 1716 441 
Q 2309 441 2620 675 
Q 2931 909 2931 1356 
Q 2931 1769 2642 2001 
Q 2353 2234 1838 2234 
L 1294 2234 
L 1294 2753 
L 1863 2753 
Q 2328 2753 2575 2939 
Q 2822 3125 2822 3475 
Q 2822 3834 2567 4026 
Q 2313 4219 1838 4219 
Q 1578 4219 1281 4162 
Q 984 4106 628 3988 
L 628 4550 
Q 988 4650 1302 4700 
Q 1616 4750 1894 4750 
Q 2613 4750 3031 4423 
Q 3450 4097 3450 3541 
Q 3450 3153 3228 2886 
Q 3006 2619 2597 2516 
z
" transform="scale(0.015625)"/>
       </defs>
       <use xlink:href="#DejaVuSans-33"/>
       <use xlink:href="#DejaVuSans-30" transform="translate(63.623047 0)"/>
       <use xlink:href="#DejaVuSans-30" transform="translate(127.246094 0)"/>
       <use xlink:href="#DejaVuSans-30" transform="translate(190.869141 0)"/>
       <use xlink:href="#DejaVuSans-30" transform="translate(254.492188 0)"/>
      </g>
     </g>
    </g>
    <g id="xtick_5">
     <g id="line2d_5">
      <g>
       <use xlink:href="#mdab79b6ce1" x="232.629672" y="228.96" style="stroke: #000000; stroke-width: 0.8"/>
      </g>
     </g>
     <g id="text_5">
      <!-- 40000 -->
      <g transform="translate(216.723422 243.558437) scale(0.1 -0.1)">
       <defs>
        <path id="DejaVuSans-34" d="M 2419 4116 
L 825 1625 
L 2419 1625 
L 2419 4116 
z
M 2253 4666 
L 3047 4666 
L 3047 1625 
L 3713 1625 
L 3713 1100 
L 3047 1100 
L 3047 0 
L 2419 0 
L 2419 1100 
L 313 1100 
L 313 1709 
L 2253 4666 
z
" transform="scale(0.015625)"/>
       </defs>
       <use xlink:href="#DejaVuSans-34"/>
       <use xlink:href="#DejaVuSans-30" transform="translate(63.623047 0)"/>
       <use xlink:href="#DejaVuSans-30" transform="translate(127.246094 0)"/>
       <use xlink:href="#DejaVuSans-30" transform="translate(190.869141 0)"/>
       <use xlink:href="#DejaVuSans-30" transform="translate(254.492188 0)"/>
      </g>
     </g>
    </g>
    <g id="xtick_6">
     <g id="line2d_6">
      <g>
       <use xlink:href="#mdab79b6ce1" x="275.242625" y="228.96" style="stroke: #000000; stroke-width: 0.8"/>
      </g>
     </g>
     <g id="text_6">
      <!-- 50000 -->
      <g transform="translate(259.336375 243.558437) scale(0.1 -0.1)">
       <defs>
        <path id="DejaVuSans-35" d="M 691 4666 
L 3169 4666 
L 3169 4134 
L 1269 4134 
L 1269 2991 
Q 1406 3038 1543 3061 
Q 1681 3084 1819 3084 
Q 2600 3084 3056 2656 
Q 3513 2228 3513 1497 
Q 3513 744 3044 326 
Q 2575 -91 1722 -91 
Q 1428 -91 1123 -41 
Q 819 9 494 109 
L 494 744 
Q 775 591 1075 516 
Q 1375 441 1709 441 
Q 2250 441 2565 725 
Q 2881 1009 2881 1497 
Q 2881 1984 2565 2268 
Q 2250 2553 1709 2553 
Q 1456 2553 1204 2497 
Q 953 2441 691 2322 
L 691 4666 
z
" transform="scale(0.015625)"/>
       </defs>
       <use xlink:href="#DejaVuSans-35"/>
       <use xlink:href="#DejaVuSans-30" transform="translate(63.623047 0)"/>
       <use xlink:href="#DejaVuSans-30" transform="translate(127.246094 0)"/>
       <use xlink:href="#DejaVuSans-30" transform="translate(190.869141 0)"/>
       <use xlink:href="#DejaVuSans-30" transform="translate(254.492188 0)"/>
      </g>
     </g>
    </g>
    <g id="xtick_7">
     <g id="line2d_7">
      <g>
       <use xlink:href="#mdab79b6ce1" x="317.855578" y="228.96" style="stroke: #000000; stroke-width: 0.8"/>
      </g>
     </g>
     <g id="text_7">
      <!-- 60000 -->
      <g transform="translate(301.949328 243.558437) scale(0.1 -0.1)">
       <defs>
        <path id="DejaVuSans-36" d="M 2113 2584 
Q 1688 2584 1439 2293 
Q 1191 2003 1191 1497 
Q 1191 994 1439 701 
Q 1688 409 2113 409 
Q 2538 409 2786 701 
Q 3034 994 3034 1497 
Q 3034 2003 2786 2293 
Q 2538 2584 2113 2584 
z
M 3366 4563 
L 3366 3988 
Q 3128 4100 2886 4159 
Q 2644 4219 2406 4219 
Q 1781 4219 1451 3797 
Q 1122 3375 1075 2522 
Q 1259 2794 1537 2939 
Q 1816 3084 2150 3084 
Q 2853 3084 3261 2657 
Q 3669 2231 3669 1497 
Q 3669 778 3244 343 
Q 2819 -91 2113 -91 
Q 1303 -91 875 529 
Q 447 1150 447 2328 
Q 447 3434 972 4092 
Q 1497 4750 2381 4750 
Q 2619 4750 2861 4703 
Q 3103 4656 3366 4563 
z
" transform="scale(0.015625)"/>
       </defs>
       <use xlink:href="#DejaVuSans-36"/>
       <use xlink:href="#DejaVuSans-30" transform="translate(63.623047 0)"/>
       <use xlink:href="#DejaVuSans-30" transform="translate(127.246094 0)"/>
       <use xlink:href="#DejaVuSans-30" transform="translate(190.869141 0)"/>
       <use xlink:href="#DejaVuSans-30" transform="translate(254.492188 0)"/>
      </g>
     </g>
    </g>
    <g id="xtick_8">
     <g id="line2d_8">
      <g>
       <use xlink:href="#mdab79b6ce1" x="360.468531" y="228.96" style="stroke: #000000; stroke-width: 0.8"/>
      </g>
     </g>
     <g id="text_8">
      <!-- 70000 -->
      <g transform="translate(344.562281 243.558437) scale(0.1 -0.1)">
       <defs>
        <path id="DejaVuSans-37" d="M 525 4666 
L 3525 4666 
L 3525 4397 
L 1831 0 
L 1172 0 
L 2766 4134 
L 525 4134 
L 525 4666 
z
" transform="scale(0.015625)"/>
       </defs>
       <use xlink:href="#DejaVuSans-37"/>
       <use xlink:href="#DejaVuSans-30" transform="translate(63.623047 0)"/>
       <use xlink:href="#DejaVuSans-30" transform="translate(127.246094 0)"/>
       <use xlink:href="#DejaVuSans-30" transform="translate(190.869141 0)"/>
       <use xlink:href="#DejaVuSans-30" transform="translate(254.492188 0)"/>
      </g>
     </g>
    </g>
    <g id="text_9">
     <!-- event_time_offset [µs] -->
     <g transform="translate(158.330469 257.236562) scale(0.1 -0.1)">
      <defs>
       <path id="DejaVuSans-65" d="M 3597 1894 
L 3597 1613 
L 953 1613 
Q 991 1019 1311 708 
Q 1631 397 2203 397 
Q 2534 397 2845 478 
Q 3156 559 3463 722 
L 3463 178 
Q 3153 47 2828 -22 
Q 2503 -91 2169 -91 
Q 1331 -91 842 396 
Q 353 884 353 1716 
Q 353 2575 817 3079 
Q 1281 3584 2069 3584 
Q 2775 3584 3186 3129 
Q 3597 2675 3597 1894 
z
M 3022 2063 
Q 3016 2534 2758 2815 
Q 2500 3097 2075 3097 
Q 1594 3097 1305 2825 
Q 1016 2553 972 2059 
L 3022 2063 
z
" transform="scale(0.015625)"/>
       <path id="DejaVuSans-76" d="M 191 3500 
L 800 3500 
L 1894 563 
L 2988 3500 
L 3597 3500 
L 2284 0 
L 1503 0 
L 191 3500 
z
" transform="scale(0.015625)"/>
       <path id="DejaVuSans-6e" d="M 3513 2113 
L 3513 0 
L 2938 0 
L 2938 2094 
Q 2938 2591 2744 2837 
Q 2550 3084 2163 3084 
Q 1697 3084 1428 2787 
Q 1159 2491 1159 1978 
L 1159 0 
L 581 0 
L 581 3500 
L 1159 3500 
L 1159 2956 
Q 1366 3272 1645 3428 
Q 1925 3584 2291 3584 
Q 2894 3584 3203 3211 
Q 3513 2838 3513 2113 
z
" transform="scale(0.015625)"/>
       <path id="DejaVuSans-74" d="M 1172 4494 
L 1172 3500 
L 2356 3500 
L 2356 3053 
L 1172 3053 
L 1172 1153 
Q 1172 725 1289 603 
Q 1406 481 1766 481 
L 2356 481 
L 2356 0 
L 1766 0 
Q 1100 0 847 248 
Q 594 497 594 1153 
L 594 3053 
L 172 3053 
L 172 3500 
L 594 3500 
L 594 4494 
L 1172 4494 
z
" transform="scale(0.015625)"/>
       <path id="DejaVuSans-5f" d="M 3263 -1063 
L 3263 -1509 
L -63 -1509 
L -63 -1063 
L 3263 -1063 
z
" transform="scale(0.015625)"/>
       <path id="DejaVuSans-69" d="M 603 3500 
L 1178 3500 
L 1178 0 
L 603 0 
L 603 3500 
z
M 603 4863 
L 1178 4863 
L 1178 4134 
L 603 4134 
L 603 4863 
z
" transform="scale(0.015625)"/>
       <path id="DejaVuSans-6d" d="M 3328 2828 
Q 3544 3216 3844 3400 
Q 4144 3584 4550 3584 
Q 5097 3584 5394 3201 
Q 5691 2819 5691 2113 
L 5691 0 
L 5113 0 
L 5113 2094 
Q 5113 2597 4934 2840 
Q 4756 3084 4391 3084 
Q 3944 3084 3684 2787 
Q 3425 2491 3425 1978 
L 3425 0 
L 2847 0 
L 2847 2094 
Q 2847 2600 2669 2842 
Q 2491 3084 2119 3084 
Q 1678 3084 1418 2786 
Q 1159 2488 1159 1978 
L 1159 0 
L 581 0 
L 581 3500 
L 1159 3500 
L 1159 2956 
Q 1356 3278 1631 3431 
Q 1906 3584 2284 3584 
Q 2666 3584 2933 3390 
Q 3200 3197 3328 2828 
z
" transform="scale(0.015625)"/>
       <path id="DejaVuSans-6f" d="M 1959 3097 
Q 1497 3097 1228 2736 
Q 959 2375 959 1747 
Q 959 1119 1226 758 
Q 1494 397 1959 397 
Q 2419 397 2687 759 
Q 2956 1122 2956 1747 
Q 2956 2369 2687 2733 
Q 2419 3097 1959 3097 
z
M 1959 3584 
Q 2709 3584 3137 3096 
Q 3566 2609 3566 1747 
Q 3566 888 3137 398 
Q 2709 -91 1959 -91 
Q 1206 -91 779 398 
Q 353 888 353 1747 
Q 353 2609 779 3096 
Q 1206 3584 1959 3584 
z
" transform="scale(0.015625)"/>
       <path id="DejaVuSans-66" d="M 2375 4863 
L 2375 4384 
L 1825 4384 
Q 1516 4384 1395 4259 
Q 1275 4134 1275 3809 
L 1275 3500 
L 2222 3500 
L 2222 3053 
L 1275 3053 
L 1275 0 
L 697 0 
L 697 3053 
L 147 3053 
L 147 3500 
L 697 3500 
L 697 3744 
Q 697 4328 969 4595 
Q 1241 4863 1831 4863 
L 2375 4863 
z
" transform="scale(0.015625)"/>
       <path id="DejaVuSans-73" d="M 2834 3397 
L 2834 2853 
Q 2591 2978 2328 3040 
Q 2066 3103 1784 3103 
Q 1356 3103 1142 2972 
Q 928 2841 928 2578 
Q 928 2378 1081 2264 
Q 1234 2150 1697 2047 
L 1894 2003 
Q 2506 1872 2764 1633 
Q 3022 1394 3022 966 
Q 3022 478 2636 193 
Q 2250 -91 1575 -91 
Q 1294 -91 989 -36 
Q 684 19 347 128 
L 347 722 
Q 666 556 975 473 
Q 1284 391 1588 391 
Q 1994 391 2212 530 
Q 2431 669 2431 922 
Q 2431 1156 2273 1281 
Q 2116 1406 1581 1522 
L 1381 1569 
Q 847 1681 609 1914 
Q 372 2147 372 2553 
Q 372 3047 722 3315 
Q 1072 3584 1716 3584 
Q 2034 3584 2315 3537 
Q 2597 3491 2834 3397 
z
" transform="scale(0.015625)"/>
       <path id="DejaVuSans-20" transform="scale(0.015625)"/>
       <path id="DejaVuSans-5b" d="M 550 4863 
L 1875 4863 
L 1875 4416 
L 1125 4416 
L 1125 -397 
L 1875 -397 
L 1875 -844 
L 550 -844 
L 550 4863 
z
" transform="scale(0.015625)"/>
       <path id="DejaVuSans-b5" d="M 544 -1331 
L 544 3500 
L 1119 3500 
L 1119 1325 
Q 1119 872 1334 640 
Q 1550 409 1972 409 
Q 2434 409 2667 671 
Q 2900 934 2900 1459 
L 2900 3500 
L 3475 3500 
L 3475 806 
Q 3475 619 3529 530 
Q 3584 441 3700 441 
Q 3728 441 3778 458 
Q 3828 475 3916 513 
L 3916 50 
Q 3788 -22 3673 -56 
Q 3559 -91 3450 -91 
Q 3234 -91 3106 31 
Q 2978 153 2931 403 
Q 2775 156 2548 32 
Q 2322 -91 2016 -91 
Q 1697 -91 1473 31 
Q 1250 153 1119 397 
L 1119 -1331 
L 544 -1331 
z
" transform="scale(0.015625)"/>
       <path id="DejaVuSans-5d" d="M 1947 4863 
L 1947 -844 
L 622 -844 
L 622 -397 
L 1369 -397 
L 1369 4416 
L 622 4416 
L 622 4863 
L 1947 4863 
z
" transform="scale(0.015625)"/>
      </defs>
      <use xlink:href="#DejaVuSans-65"/>
      <use xlink:href="#DejaVuSans-76" transform="translate(61.523438 0)"/>
      <use xlink:href="#DejaVuSans-65" transform="translate(120.703125 0)"/>
      <use xlink:href="#DejaVuSans-6e" transform="translate(182.226562 0)"/>
      <use xlink:href="#DejaVuSans-74" transform="translate(245.605469 0)"/>
      <use xlink:href="#DejaVuSans-5f" transform="translate(284.814453 0)"/>
      <use xlink:href="#DejaVuSans-74" transform="translate(334.814453 0)"/>
      <use xlink:href="#DejaVuSans-69" transform="translate(374.023438 0)"/>
      <use xlink:href="#DejaVuSans-6d" transform="translate(401.806641 0)"/>
      <use xlink:href="#DejaVuSans-65" transform="translate(499.21875 0)"/>
      <use xlink:href="#DejaVuSans-5f" transform="translate(560.742188 0)"/>
      <use xlink:href="#DejaVuSans-6f" transform="translate(610.742188 0)"/>
      <use xlink:href="#DejaVuSans-66" transform="translate(671.923828 0)"/>
      <use xlink:href="#DejaVuSans-66" transform="translate(707.128906 0)"/>
      <use xlink:href="#DejaVuSans-73" transform="translate(742.333984 0)"/>
      <use xlink:href="#DejaVuSans-65" transform="translate(794.433594 0)"/>
      <use xlink:href="#DejaVuSans-74" transform="translate(855.957031 0)"/>
      <use xlink:href="#DejaVuSans-20" transform="translate(895.166016 0)"/>
      <use xlink:href="#DejaVuSans-5b" transform="translate(926.953125 0)"/>
      <use xlink:href="#DejaVuSans-b5" transform="translate(965.966797 0)"/>
      <use xlink:href="#DejaVuSans-73" transform="translate(1029.589844 0)"/>
      <use xlink:href="#DejaVuSans-5d" transform="translate(1081.689453 0)"/>
     </g>
    </g>
   </g>
   <g id="matplotlib.axis_2">
    <g id="ytick_1">
     <g id="line2d_9">
      <defs>
       <path id="m536668e7e2" d="M 0 0 
L -3.5 0 
" style="stroke: #000000; stroke-width: 0.8"/>
      </defs>
      <g>
       <use xlink:href="#m536668e7e2" x="46.965625" y="218.88" style="stroke: #000000; stroke-width: 0.8"/>
      </g>
     </g>
     <g id="text_10">
      <!-- 0 -->
      <g transform="translate(33.603125 222.679219) scale(0.1 -0.1)">
       <use xlink:href="#DejaVuSans-30"/>
      </g>
     </g>
    </g>
    <g id="ytick_2">
     <g id="line2d_10">
      <g>
       <use xlink:href="#m536668e7e2" x="46.965625" y="190.243636" style="stroke: #000000; stroke-width: 0.8"/>
      </g>
     </g>
     <g id="text_11">
      <!-- 50 -->
      <g transform="translate(27.240625 194.042855) scale(0.1 -0.1)">
       <use xlink:href="#DejaVuSans-35"/>
       <use xlink:href="#DejaVuSans-30" transform="translate(63.623047 0)"/>
      </g>
     </g>
    </g>
    <g id="ytick_3">
     <g id="line2d_11">
      <g>
       <use xlink:href="#m536668e7e2" x="46.965625" y="161.607273" style="stroke: #000000; stroke-width: 0.8"/>
      </g>
     </g>
     <g id="text_12">
      <!-- 100 -->
      <g transform="translate(20.878125 165.406491) scale(0.1 -0.1)">
       <use xlink:href="#DejaVuSans-31"/>
       <use xlink:href="#DejaVuSans-30" transform="translate(63.623047 0)"/>
       <use xlink:href="#DejaVuSans-30" transform="translate(127.246094 0)"/>
      </g>
     </g>
    </g>
    <g id="ytick_4">
     <g id="line2d_12">
      <g>
       <use xlink:href="#m536668e7e2" x="46.965625" y="132.970909" style="stroke: #000000; stroke-width: 0.8"/>
      </g>
     </g>
     <g id="text_13">
      <!-- 150 -->
      <g transform="translate(20.878125 136.770128) scale(0.1 -0.1)">
       <use xlink:href="#DejaVuSans-31"/>
       <use xlink:href="#DejaVuSans-35" transform="translate(63.623047 0)"/>
       <use xlink:href="#DejaVuSans-30" transform="translate(127.246094 0)"/>
      </g>
     </g>
    </g>
    <g id="ytick_5">
     <g id="line2d_13">
      <g>
       <use xlink:href="#m536668e7e2" x="46.965625" y="104.334545" style="stroke: #000000; stroke-width: 0.8"/>
      </g>
     </g>
     <g id="text_14">
      <!-- 200 -->
      <g transform="translate(20.878125 108.133764) scale(0.1 -0.1)">
       <use xlink:href="#DejaVuSans-32"/>
       <use xlink:href="#DejaVuSans-30" transform="translate(63.623047 0)"/>
       <use xlink:href="#DejaVuSans-30" transform="translate(127.246094 0)"/>
      </g>
     </g>
    </g>
    <g id="ytick_6">
     <g id="line2d_14">
      <g>
       <use xlink:href="#m536668e7e2" x="46.965625" y="75.698182" style="stroke: #000000; stroke-width: 0.8"/>
      </g>
     </g>
     <g id="text_15">
      <!-- 250 -->
      <g transform="translate(20.878125 79.497401) scale(0.1 -0.1)">
       <use xlink:href="#DejaVuSans-32"/>
       <use xlink:href="#DejaVuSans-35" transform="translate(63.623047 0)"/>
       <use xlink:href="#DejaVuSans-30" transform="translate(127.246094 0)"/>
      </g>
     </g>
    </g>
    <g id="ytick_7">
     <g id="line2d_15">
      <g>
       <use xlink:href="#m536668e7e2" x="46.965625" y="47.061818" style="stroke: #000000; stroke-width: 0.8"/>
      </g>
     </g>
     <g id="text_16">
      <!-- 300 -->
      <g transform="translate(20.878125 50.861037) scale(0.1 -0.1)">
       <use xlink:href="#DejaVuSans-33"/>
       <use xlink:href="#DejaVuSans-30" transform="translate(63.623047 0)"/>
       <use xlink:href="#DejaVuSans-30" transform="translate(127.246094 0)"/>
      </g>
     </g>
    </g>
    <g id="ytick_8">
     <g id="line2d_16">
      <g>
       <use xlink:href="#m536668e7e2" x="46.965625" y="18.425455" style="stroke: #000000; stroke-width: 0.8"/>
      </g>
     </g>
     <g id="text_17">
      <!-- 350 -->
      <g transform="translate(20.878125 22.224673) scale(0.1 -0.1)">
       <use xlink:href="#DejaVuSans-33"/>
       <use xlink:href="#DejaVuSans-35" transform="translate(63.623047 0)"/>
       <use xlink:href="#DejaVuSans-30" transform="translate(127.246094 0)"/>
      </g>
     </g>
    </g>
    <g id="text_18">
     <!-- [counts] -->
     <g transform="translate(14.798438 138.6925) rotate(-90) scale(0.1 -0.1)">
      <defs>
       <path id="DejaVuSans-63" d="M 3122 3366 
L 3122 2828 
Q 2878 2963 2633 3030 
Q 2388 3097 2138 3097 
Q 1578 3097 1268 2742 
Q 959 2388 959 1747 
Q 959 1106 1268 751 
Q 1578 397 2138 397 
Q 2388 397 2633 464 
Q 2878 531 3122 666 
L 3122 134 
Q 2881 22 2623 -34 
Q 2366 -91 2075 -91 
Q 1284 -91 818 406 
Q 353 903 353 1747 
Q 353 2603 823 3093 
Q 1294 3584 2113 3584 
Q 2378 3584 2631 3529 
Q 2884 3475 3122 3366 
z
" transform="scale(0.015625)"/>
       <path id="DejaVuSans-75" d="M 544 1381 
L 544 3500 
L 1119 3500 
L 1119 1403 
Q 1119 906 1312 657 
Q 1506 409 1894 409 
Q 2359 409 2629 706 
Q 2900 1003 2900 1516 
L 2900 3500 
L 3475 3500 
L 3475 0 
L 2900 0 
L 2900 538 
Q 2691 219 2414 64 
Q 2138 -91 1772 -91 
Q 1169 -91 856 284 
Q 544 659 544 1381 
z
M 1991 3584 
L 1991 3584 
z
" transform="scale(0.015625)"/>
      </defs>
      <use xlink:href="#DejaVuSans-5b"/>
      <use xlink:href="#DejaVuSans-63" transform="translate(39.013672 0)"/>
      <use xlink:href="#DejaVuSans-6f" transform="translate(93.994141 0)"/>
      <use xlink:href="#DejaVuSans-75" transform="translate(155.175781 0)"/>
      <use xlink:href="#DejaVuSans-6e" transform="translate(218.554688 0)"/>
      <use xlink:href="#DejaVuSans-74" transform="translate(281.933594 0)"/>
      <use xlink:href="#DejaVuSans-73" transform="translate(321.142578 0)"/>
      <use xlink:href="#DejaVuSans-5d" transform="translate(373.242188 0)"/>
     </g>
    </g>
   </g>
   <g id="line2d_17">
    <path d="M 62.183807 150.725455 
L 64.212898 150.725455 
L 64.212898 149.007273 
L 65.227443 149.007273 
L 65.227443 163.325455 
L 66.241989 163.325455 
L 66.241989 159.889091 
L 67.256534 159.889091 
L 67.256534 166.761818 
L 68.27108 166.761818 
L 68.27108 159.889091 
L 69.285625 159.889091 
L 69.285625 156.452727 
L 70.30017 156.452727 
L 70.30017 160.461818 
L 71.314716 160.461818 
L 71.314716 161.034545 
L 72.329261 161.034545 
L 72.329261 158.743636 
L 73.343807 158.743636 
L 73.343807 149.58 
L 74.358352 149.58 
L 74.358352 159.316364 
L 75.372898 159.316364 
L 75.372898 163.325455 
L 76.387443 163.325455 
L 76.387443 155.88 
L 77.401989 155.88 
L 77.401989 171.916364 
L 78.416534 171.916364 
L 78.416534 173.061818 
L 79.43108 173.061818 
L 79.43108 165.043636 
L 80.445625 165.043636 
L 80.445625 155.88 
L 81.46017 155.88 
L 81.46017 162.752727 
L 82.474716 162.752727 
L 82.474716 159.889091 
L 83.489261 159.889091 
L 83.489261 170.198182 
L 84.503807 170.198182 
L 84.503807 169.625455 
L 85.518352 169.625455 
L 85.518352 175.352727 
L 86.532898 175.352727 
L 86.532898 170.198182 
L 87.547443 170.198182 
L 87.547443 168.48 
L 88.561989 168.48 
L 88.561989 170.198182 
L 89.576534 170.198182 
L 89.576534 177.643636 
L 90.59108 177.643636 
L 90.59108 172.489091 
L 91.605625 172.489091 
L 91.605625 171.343636 
L 92.62017 171.343636 
L 92.62017 174.78 
L 93.634716 174.78 
L 93.634716 181.652727 
L 94.649261 181.652727 
L 94.649261 173.634545 
L 95.663807 173.634545 
L 95.663807 182.798182 
L 96.678352 182.798182 
L 96.678352 179.934545 
L 97.692898 179.934545 
L 97.692898 178.216364 
L 98.707443 178.216364 
L 98.707443 182.798182 
L 99.721989 182.798182 
L 99.721989 177.070909 
L 100.736534 177.070909 
L 100.736534 179.934545 
L 102.765625 179.934545 
L 102.765625 182.798182 
L 104.794716 182.798182 
L 104.794716 187.38 
L 105.809261 187.38 
L 105.809261 189.098182 
L 106.823807 189.098182 
L 106.823807 193.68 
L 107.838352 193.68 
L 107.838352 190.816364 
L 108.852898 190.816364 
L 108.852898 194.825455 
L 109.867443 194.825455 
L 109.867443 206.852727 
L 110.881989 206.852727 
L 110.881989 218.88 
L 120.012898 218.88 
L 120.012898 216.016364 
L 121.027443 216.016364 
L 121.027443 196.543636 
L 122.041989 196.543636 
L 122.041989 179.934545 
L 123.056534 179.934545 
L 123.056534 181.652727 
L 124.07108 181.652727 
L 124.07108 181.08 
L 125.085625 181.08 
L 125.085625 175.352727 
L 126.10017 175.352727 
L 126.10017 186.234545 
L 127.114716 186.234545 
L 127.114716 166.761818 
L 128.129261 166.761818 
L 128.129261 185.661818 
L 129.143807 185.661818 
L 129.143807 174.78 
L 130.158352 174.78 
L 130.158352 179.361818 
L 131.172898 179.361818 
L 131.172898 182.798182 
L 132.187443 182.798182 
L 132.187443 183.943636 
L 133.201989 183.943636 
L 133.201989 183.370909 
L 134.216534 183.370909 
L 134.216534 183.943636 
L 135.23108 183.943636 
L 135.23108 186.807273 
L 136.245625 186.807273 
L 136.245625 184.516364 
L 137.26017 184.516364 
L 137.26017 181.652727 
L 138.274716 181.652727 
L 138.274716 161.607273 
L 139.289261 161.607273 
L 139.289261 138.125455 
L 140.303807 138.125455 
L 140.303807 128.389091 
L 141.318352 128.389091 
L 141.318352 121.516364 
L 142.332898 121.516364 
L 142.332898 112.352727 
L 143.347443 112.352727 
L 143.347443 104.334545 
L 144.361989 104.334545 
L 144.361989 111.207273 
L 145.376534 111.207273 
L 145.376534 106.052727 
L 146.39108 106.052727 
L 146.39108 100.325455 
L 147.405625 100.325455 
L 147.405625 90.016364 
L 148.42017 90.016364 
L 148.42017 113.498182 
L 149.434716 113.498182 
L 149.434716 97.461818 
L 150.449261 97.461818 
L 150.449261 101.470909 
L 151.463807 101.470909 
L 151.463807 92.88 
L 152.478352 92.88 
L 152.478352 86.007273 
L 153.492898 86.007273 
L 153.492898 100.325455 
L 154.507443 100.325455 
L 154.507443 90.016364 
L 155.521989 90.016364 
L 155.521989 95.743636 
L 156.536534 95.743636 
L 156.536534 113.498182 
L 157.55108 113.498182 
L 157.55108 110.061818 
L 158.565625 110.061818 
L 158.565625 103.761818 
L 159.58017 103.761818 
L 159.58017 108.916364 
L 160.594716 108.916364 
L 160.594716 104.907273 
L 161.609261 104.907273 
L 161.609261 103.761818 
L 162.623807 103.761818 
L 162.623807 94.025455 
L 163.638352 94.025455 
L 163.638352 111.78 
L 166.681989 111.78 
L 166.681989 109.489091 
L 167.696534 109.489091 
L 167.696534 123.807273 
L 168.71108 123.807273 
L 168.71108 122.661818 
L 169.725625 122.661818 
L 169.725625 108.343636 
L 170.74017 108.343636 
L 170.74017 107.770909 
L 171.754716 107.770909 
L 171.754716 107.198182 
L 172.769261 107.198182 
L 172.769261 105.48 
L 173.783807 105.48 
L 173.783807 101.470909 
L 174.798352 101.470909 
L 174.798352 108.343636 
L 175.812898 108.343636 
L 175.812898 118.652727 
L 176.827443 118.652727 
L 176.827443 97.461818 
L 177.841989 97.461818 
L 177.841989 105.48 
L 178.856534 105.48 
L 178.856534 106.625455 
L 179.87108 106.625455 
L 179.87108 102.616364 
L 180.885625 102.616364 
L 180.885625 107.198182 
L 181.90017 107.198182 
L 181.90017 110.634545 
L 182.914716 110.634545 
L 182.914716 121.516364 
L 183.929261 121.516364 
L 183.929261 104.907273 
L 184.943807 104.907273 
L 184.943807 123.234545 
L 185.958352 123.234545 
L 185.958352 111.78 
L 186.972898 111.78 
L 186.972898 123.807273 
L 187.987443 123.807273 
L 187.987443 128.961818 
L 189.001989 128.961818 
L 189.001989 119.225455 
L 190.016534 119.225455 
L 190.016534 102.043636 
L 191.03108 102.043636 
L 191.03108 99.752727 
L 192.045625 99.752727 
L 192.045625 113.498182 
L 193.06017 113.498182 
L 193.06017 137.552727 
L 194.074716 137.552727 
L 194.074716 129.534545 
L 195.089261 129.534545 
L 195.089261 127.816364 
L 196.103807 127.816364 
L 196.103807 109.489091 
L 197.118352 109.489091 
L 197.118352 111.207273 
L 198.132898 111.207273 
L 198.132898 131.252727 
L 199.147443 131.252727 
L 199.147443 136.98 
L 200.161989 136.98 
L 200.161989 126.670909 
L 201.176534 126.670909 
L 201.176534 144.998182 
L 202.19108 144.998182 
L 202.19108 122.089091 
L 203.205625 122.089091 
L 203.205625 127.816364 
L 204.22017 127.816364 
L 204.22017 138.698182 
L 205.234716 138.698182 
L 205.234716 130.107273 
L 206.249261 130.107273 
L 206.249261 120.943636 
L 207.263807 120.943636 
L 207.263807 127.243636 
L 208.278352 127.243636 
L 208.278352 108.343636 
L 209.292898 108.343636 
L 209.292898 115.216364 
L 210.307443 115.216364 
L 210.307443 98.034545 
L 211.321989 98.034545 
L 211.321989 84.861818 
L 212.336534 84.861818 
L 212.336534 99.18 
L 213.35108 99.18 
L 213.35108 100.325455 
L 214.365625 100.325455 
L 214.365625 96.889091 
L 215.38017 96.889091 
L 215.38017 79.707273 
L 216.394716 79.707273 
L 216.394716 87.152727 
L 217.409261 87.152727 
L 217.409261 83.716364 
L 218.423807 83.716364 
L 218.423807 93.452727 
L 219.438352 93.452727 
L 219.438352 87.152727 
L 220.452898 87.152727 
L 220.452898 92.307273 
L 221.467443 92.307273 
L 221.467443 94.025455 
L 222.481989 94.025455 
L 222.481989 84.289091 
L 223.496534 84.289091 
L 223.496534 96.889091 
L 224.51108 96.889091 
L 224.51108 98.607273 
L 225.525625 98.607273 
L 225.525625 103.761818 
L 226.54017 103.761818 
L 226.54017 118.652727 
L 227.554716 118.652727 
L 227.554716 137.552727 
L 228.569261 137.552727 
L 228.569261 198.261818 
L 229.583807 198.261818 
L 229.583807 199.407273 
L 231.612898 199.407273 
L 231.612898 202.270909 
L 232.627443 202.270909 
L 232.627443 199.98 
L 233.641989 199.98 
L 233.641989 205.134545 
L 234.656534 205.134545 
L 234.656534 197.116364 
L 235.67108 197.116364 
L 235.67108 199.407273 
L 236.685625 199.407273 
L 236.685625 197.116364 
L 237.70017 197.116364 
L 237.70017 108.343636 
L 238.714716 108.343636 
L 238.714716 75.125455 
L 239.729261 75.125455 
L 239.729261 49.352727 
L 240.743807 49.352727 
L 240.743807 60.234545 
L 241.758352 60.234545 
L 241.758352 17.28 
L 242.772898 17.28 
L 242.772898 49.925455 
L 243.787443 49.925455 
L 243.787443 56.798182 
L 244.801989 56.798182 
L 244.801989 36.752727 
L 245.816534 36.752727 
L 245.816534 48.78 
L 246.83108 48.78 
L 246.83108 52.216364 
L 247.845625 52.216364 
L 247.845625 57.943636 
L 248.86017 57.943636 
L 248.86017 53.361818 
L 249.874716 53.361818 
L 249.874716 46.489091 
L 250.889261 46.489091 
L 250.889261 42.48 
L 251.903807 42.48 
L 251.903807 57.370909 
L 252.918352 57.370909 
L 252.918352 60.234545 
L 253.932898 60.234545 
L 253.932898 63.098182 
L 254.947443 63.098182 
L 254.947443 51.070909 
L 255.961989 51.070909 
L 255.961989 49.925455 
L 256.976534 49.925455 
L 256.976534 60.234545 
L 257.99108 60.234545 
L 257.99108 45.343636 
L 259.005625 45.343636 
L 259.005625 62.525455 
L 260.02017 62.525455 
L 260.02017 51.070909 
L 261.034716 51.070909 
L 261.034716 59.661818 
L 262.049261 59.661818 
L 262.049261 71.689091 
L 263.063807 71.689091 
L 263.063807 66.534545 
L 264.078352 66.534545 
L 264.078352 72.834545 
L 265.092898 72.834545 
L 265.092898 67.107273 
L 266.107443 67.107273 
L 266.107443 68.825455 
L 267.121989 68.825455 
L 267.121989 70.543636 
L 268.136534 70.543636 
L 268.136534 74.552727 
L 269.15108 74.552727 
L 269.15108 67.107273 
L 270.165625 67.107273 
L 270.165625 75.125455 
L 271.18017 75.125455 
L 271.18017 80.28 
L 272.194716 80.28 
L 272.194716 71.116364 
L 273.209261 71.116364 
L 273.209261 73.407273 
L 274.223807 73.407273 
L 274.223807 90.016364 
L 275.238352 90.016364 
L 275.238352 72.834545 
L 276.252898 72.834545 
L 276.252898 87.152727 
L 277.267443 87.152727 
L 277.267443 88.870909 
L 278.281989 88.870909 
L 278.281989 106.625455 
L 279.296534 106.625455 
L 279.296534 104.334545 
L 280.31108 104.334545 
L 280.31108 107.770909 
L 281.325625 107.770909 
L 281.325625 87.725455 
L 282.34017 87.725455 
L 282.34017 89.443636 
L 283.354716 89.443636 
L 283.354716 100.898182 
L 284.369261 100.898182 
L 284.369261 108.343636 
L 285.383807 108.343636 
L 285.383807 109.489091 
L 286.398352 109.489091 
L 286.398352 96.889091 
L 287.412898 96.889091 
L 287.412898 112.925455 
L 288.427443 112.925455 
L 288.427443 99.18 
L 289.441989 99.18 
L 289.441989 114.643636 
L 290.456534 114.643636 
L 290.456534 111.78 
L 291.47108 111.78 
L 291.47108 109.489091 
L 292.485625 109.489091 
L 292.485625 121.516364 
L 293.50017 121.516364 
L 293.50017 107.770909 
L 294.514716 107.770909 
L 294.514716 102.616364 
L 295.529261 102.616364 
L 295.529261 92.307273 
L 296.543807 92.307273 
L 296.543807 97.461818 
L 297.558352 97.461818 
L 297.558352 105.48 
L 298.572898 105.48 
L 298.572898 106.052727 
L 299.587443 106.052727 
L 299.587443 113.498182 
L 300.601989 113.498182 
L 300.601989 108.916364 
L 301.616534 108.916364 
L 301.616534 112.925455 
L 302.63108 112.925455 
L 302.63108 108.343636 
L 303.645625 108.343636 
L 303.645625 110.634545 
L 304.66017 110.634545 
L 304.66017 120.370909 
L 305.674716 120.370909 
L 305.674716 122.661818 
L 306.689261 122.661818 
L 306.689261 126.670909 
L 307.703807 126.670909 
L 307.703807 112.925455 
L 308.718352 112.925455 
L 308.718352 119.798182 
L 309.732898 119.798182 
L 309.732898 124.38 
L 310.747443 124.38 
L 310.747443 140.989091 
L 311.761989 140.989091 
L 311.761989 131.825455 
L 312.776534 131.825455 
L 312.776534 127.243636 
L 314.805625 127.243636 
L 314.805625 131.825455 
L 315.82017 131.825455 
L 315.82017 138.125455 
L 316.834716 138.125455 
L 316.834716 134.116364 
L 317.849261 134.116364 
L 317.849261 145.570909 
L 318.863807 145.570909 
L 318.863807 130.107273 
L 319.878352 130.107273 
L 319.878352 147.289091 
L 320.892898 147.289091 
L 320.892898 153.589091 
L 321.907443 153.589091 
L 321.907443 163.898182 
L 322.921989 163.898182 
L 322.921989 170.198182 
L 323.936534 170.198182 
L 323.936534 193.68 
L 324.95108 193.68 
L 324.95108 212.58 
L 325.965625 212.58 
L 325.965625 205.134545 
L 326.98017 205.134545 
L 326.98017 206.28 
L 327.994716 206.28 
L 327.994716 207.425455 
L 329.009261 207.425455 
L 329.009261 206.28 
L 330.023807 206.28 
L 330.023807 207.998182 
L 331.038352 207.998182 
L 331.038352 208.570909 
L 332.052898 208.570909 
L 332.052898 183.370909 
L 333.067443 183.370909 
L 333.067443 137.552727 
L 334.081989 137.552727 
L 334.081989 139.270909 
L 335.096534 139.270909 
L 335.096534 129.534545 
L 336.11108 129.534545 
L 336.11108 120.943636 
L 337.125625 120.943636 
L 337.125625 132.970909 
L 338.14017 132.970909 
L 338.14017 131.825455 
L 339.154716 131.825455 
L 339.154716 130.68 
L 340.169261 130.68 
L 340.169261 124.38 
L 341.183807 124.38 
L 341.183807 137.552727 
L 342.198352 137.552727 
L 342.198352 135.261818 
L 343.212898 135.261818 
L 343.212898 135.834545 
L 344.227443 135.834545 
L 344.227443 132.398182 
L 345.241989 132.398182 
L 345.241989 138.125455 
L 346.256534 138.125455 
L 346.256534 124.38 
L 347.27108 124.38 
L 347.27108 132.398182 
L 348.285625 132.398182 
L 348.285625 136.98 
L 349.30017 136.98 
L 349.30017 133.543636 
L 350.314716 133.543636 
L 350.314716 127.816364 
L 351.329261 127.816364 
L 351.329261 128.389091 
L 352.343807 128.389091 
L 352.343807 131.825455 
L 353.358352 131.825455 
L 353.358352 155.88 
L 354.372898 155.88 
L 354.372898 150.152727 
L 355.387443 150.152727 
L 355.387443 135.834545 
L 356.401989 135.834545 
L 356.401989 144.425455 
L 357.416534 144.425455 
L 357.416534 151.870909 
L 358.43108 151.870909 
L 358.43108 142.134545 
L 359.445625 142.134545 
L 359.445625 140.989091 
L 360.46017 140.989091 
L 360.46017 147.861818 
L 361.474716 147.861818 
L 361.474716 159.889091 
L 362.489261 159.889091 
L 362.489261 143.852727 
L 363.503807 143.852727 
L 363.503807 142.707273 
L 364.518352 142.707273 
L 364.518352 146.716364 
L 365.532898 146.716364 
L 365.532898 158.743636 
L 366.547443 158.743636 
L 366.547443 158.743636 
" clip-path="url(#p84c19ff4a5)" style="fill: none; stroke: #1f77b4; stroke-width: 1.5; stroke-linecap: square"/>
   </g>
   <g id="patch_3">
    <path d="M 46.965625 228.96 
L 46.965625 7.2 
" style="fill: none; stroke: #000000; stroke-width: 0.8; stroke-linejoin: miter; stroke-linecap: square"/>
   </g>
   <g id="patch_4">
    <path d="M 381.765625 228.96 
L 381.765625 7.2 
" style="fill: none; stroke: #000000; stroke-width: 0.8; stroke-linejoin: miter; stroke-linecap: square"/>
   </g>
   <g id="patch_5">
    <path d="M 46.965625 228.96 
L 381.765625 228.96 
" style="fill: none; stroke: #000000; stroke-width: 0.8; stroke-linejoin: miter; stroke-linecap: square"/>
   </g>
   <g id="patch_6">
    <path d="M 46.965625 7.2 
L 381.765625 7.2 
" style="fill: none; stroke: #000000; stroke-width: 0.8; stroke-linejoin: miter; stroke-linecap: square"/>
   </g>
  </g>
 </g>
 <defs>
  <clipPath id="p84c19ff4a5">
   <rect x="46.965625" y="7.2" width="334.8" height="221.76"/>
  </clipPath>
 </defs>
</svg>
