<?xml version="1.0" encoding="UTF-8" standalone="no"?>
<!DOCTYPE svg PUBLIC "-//W3C//DTD SVG 1.1//EN"
 "http://www.w3.org/Graphics/SVG/1.1/DTD/svg11.dtd">
<!-- Generated by graphviz version 14.1.2 (20260126.1125)
 -->
<!-- Pages: 1 -->
<svg width="1285pt" height="171pt"
 viewBox="0.00 0.00 1285.00 171.00" xmlns="http://www.w3.org/2000/svg" xmlns:xlink="http://www.w3.org/1999/xlink">
<g id="graph0" class="graph" transform="scale(1 1) rotate(0) translate(4 167.25)">
<polygon fill="white" stroke="none" points="-4,4 -4,-167.25 1281.25,-167.25 1281.25,4 -4,4"/>
<!-- He3CellLength[Polarizer] -->
<g id="node1" class="node">
<title>He3CellLength[Polarizer]</title>
<polygon fill="none" stroke="red" stroke-dasharray="5,2" points="197.5,-163.25 0,-163.25 0,-138 197.5,-138 197.5,-163.25"/>
<text xml:space="preserve" text-anchor="start" x="8" y="-145.95" font-family="Times,serif" font-size="14.00" fill="red">He3CellLength[Polarizer]</text>
</g>
<!-- He3Opacity0[Polarizer] -->
<g id="node5" class="node">
<title>He3Opacity0[Polarizer]</title>
<polygon fill="none" stroke="black" points="413,-102 206.5,-102 206.5,-69 413,-69 413,-102"/>
<text xml:space="preserve" text-anchor="start" x="226.12" y="-85.7" font-family="Times,serif" font-size="14.00">He3Opacity0[Polarizer]</text>
<text xml:space="preserve" text-anchor="start" x="214.5" y="-74.55" font-family="Times,serif" font-size="11.00">via:</text>
<text xml:space="preserve" text-anchor="start" x="234.75" y="-74.55" font-family="Times,serif" font-style="italic" font-size="11.00">he3_opacity_from_cell_params</text>
</g>
<!-- He3CellLength[Polarizer]&#45;&gt;He3Opacity0[Polarizer] -->
<g id="edge2" class="edge">
<title>He3CellLength[Polarizer]&#45;&gt;He3Opacity0[Polarizer]</title>
<path fill="none" stroke="black" d="M138.93,-137.6C169.04,-128.6 210.83,-116.09 245.55,-105.71"/>
<polygon fill="black" stroke="black" points="246.52,-109.07 255.1,-102.85 244.51,-102.36 246.52,-109.07"/>
</g>
<!-- He3CellPressure[Polarizer] -->
<g id="node2" class="node">
<title>He3CellPressure[Polarizer]</title>
<polygon fill="none" stroke="red" stroke-dasharray="5,2" points="415.25,-163.25 204.25,-163.25 204.25,-138 415.25,-138 415.25,-163.25"/>
<text xml:space="preserve" text-anchor="start" x="212.25" y="-145.95" font-family="Times,serif" font-size="14.00" fill="red">He3CellPressure[Polarizer]</text>
</g>
<!-- He3CellPressure[Polarizer]&#45;&gt;He3Opacity0[Polarizer] -->
<g id="edge1" class="edge">
<title>He3CellPressure[Polarizer]&#45;&gt;He3Opacity0[Polarizer]</title>
<path fill="none" stroke="black" d="M309.75,-137.75C309.75,-130.95 309.75,-122.13 309.75,-113.72"/>
<polygon fill="black" stroke="black" points="313.25,-113.89 309.75,-103.89 306.25,-113.89 313.25,-113.89"/>
</g>
<!-- He3CellTemperature[Polarizer] -->
<g id="node3" class="node">
<title>He3CellTemperature[Polarizer]</title>
<polygon fill="none" stroke="red" stroke-dasharray="5,2" points="661.5,-163.25 422,-163.25 422,-138 661.5,-138 661.5,-163.25"/>
<text xml:space="preserve" text-anchor="start" x="430" y="-145.95" font-family="Times,serif" font-size="14.00" fill="red">He3CellTemperature[Polarizer]</text>
</g>
<!-- He3CellTemperature[Polarizer]&#45;&gt;He3Opacity0[Polarizer] -->
<g id="edge3" class="edge">
<title>He3CellTemperature[Polarizer]&#45;&gt;He3Opacity0[Polarizer]</title>
<path fill="none" stroke="black" d="M497.29,-137.53C464,-128.47 417.81,-115.9 379.6,-105.51"/>
<polygon fill="black" stroke="black" points="380.57,-102.14 370,-102.89 378.73,-108.9 380.57,-102.14"/>
</g>
<!-- He3CellTransmissionFractionIncomingUnpolarized[Polarizer, Depolarized] -->
<g id="node4" class="node">
<title>He3CellTransmissionFractionIncomingUnpolarized[Polarizer, Depolarized]</title>
<polygon fill="none" stroke="red" stroke-dasharray="5,2" points="969,-98.12 420.5,-98.12 420.5,-72.88 969,-72.88 969,-98.12"/>
<text xml:space="preserve" text-anchor="start" x="428.5" y="-80.83" font-family="Times,serif" font-size="14.00" fill="red">He3CellTransmissionFractionIncomingUnpolarized[Polarizer, Depolarized]</text>
</g>
<!-- He3OpacityFunction[Polarizer] -->
<g id="node7" class="node">
<title>He3OpacityFunction[Polarizer]</title>
<polygon fill="none" stroke="black" points="819.75,-33 569.75,-33 569.75,0 819.75,0 819.75,-33"/>
<text xml:space="preserve" text-anchor="start" x="584.12" y="-16.7" font-family="Times,serif" font-size="14.00">He3OpacityFunction[Polarizer]</text>
<text xml:space="preserve" text-anchor="start" x="577.75" y="-5.55" font-family="Times,serif" font-size="11.00">via:</text>
<text xml:space="preserve" text-anchor="start" x="598" y="-5.55" font-family="Times,serif" font-style="italic" font-size="11.00">he3_opacity_function_from_beam_data</text>
</g>
<!-- He3CellTransmissionFractionIncomingUnpolarized[Polarizer, Depolarized]&#45;&gt;He3OpacityFunction[Polarizer] -->
<g id="edge5" class="edge">
<title>He3CellTransmissionFractionIncomingUnpolarized[Polarizer, Depolarized]&#45;&gt;He3OpacityFunction[Polarizer]</title>
<path fill="none" stroke="black" d="M694.75,-72.52C694.75,-64.71 694.75,-54.19 694.75,-44.43"/>
<polygon fill="black" stroke="black" points="698.25,-44.67 694.75,-34.67 691.25,-44.67 698.25,-44.67"/>
</g>
<!-- He3Opacity0[Polarizer]&#45;&gt;He3OpacityFunction[Polarizer] -->
<g id="edge6" class="edge">
<title>He3Opacity0[Polarizer]&#45;&gt;He3OpacityFunction[Polarizer]</title>
<path fill="none" stroke="black" d="M401.48,-68.54C458.73,-58.57 532.54,-45.73 591.79,-35.42"/>
<polygon fill="black" stroke="black" points="592.32,-38.88 601.57,-33.72 591.12,-31.98 592.32,-38.88"/>
</g>
<!-- He3TransmissionEmptyGlass[Polarizer] -->
<g id="node6" class="node">
<title>He3TransmissionEmptyGlass[Polarizer]</title>
<polygon fill="none" stroke="red" stroke-dasharray="5,2" points="1277.25,-98.12 976.25,-98.12 976.25,-72.88 1277.25,-72.88 1277.25,-98.12"/>
<text xml:space="preserve" text-anchor="start" x="984.25" y="-80.83" font-family="Times,serif" font-size="14.00" fill="red">He3TransmissionEmptyGlass[Polarizer]</text>
</g>
<!-- He3TransmissionEmptyGlass[Polarizer]&#45;&gt;He3OpacityFunction[Polarizer] -->
<g id="edge4" class="edge">
<title>He3TransmissionEmptyGlass[Polarizer]&#45;&gt;He3OpacityFunction[Polarizer]</title>
<path fill="none" stroke="black" d="M1048.77,-72.41C981.82,-62.02 884.44,-46.92 808.75,-35.18"/>
<polygon fill="black" stroke="black" points="809.66,-31.78 799.25,-33.71 808.59,-38.7 809.66,-31.78"/>
</g>
</g>
</svg>
