<?xml version="1.0" encoding="utf-8" standalone="no"?>
<!DOCTYPE svg PUBLIC "-//W3C//DTD SVG 1.1//EN"
  "http://www.w3.org/Graphics/SVG/1.1/DTD/svg11.dtd">
<svg xmlns:xlink="http://www.w3.org/1999/xlink" width="389.288281pt" height="267.160781pt" viewBox="0 0 389.288281 267.160781" xmlns="http://www.w3.org/2000/svg" version="1.1">
 <metadata>
  <rdf:RDF xmlns:dc="http://purl.org/dc/elements/1.1/" xmlns:cc="http://creativecommons.org/ns#" xmlns:rdf="http://www.w3.org/1999/02/22-rdf-syntax-ns#">
   <cc:Work>
    <dc:type rdf:resource="http://purl.org/dc/dcmitype/StillImage"/>
    <dc:date>2026-06-30T14:34:10.584350</dc:date>
    <dc:format>image/svg+xml</dc:format>
    <dc:creator>
     <cc:Agent>
      <dc:title>Matplotlib v3.11.0, https://matplotlib.org/</dc:title>
     </cc:Agent>
    </dc:creator>
   </cc:Work>
  </rdf:RDF>
 </metadata>
 <defs>
  <style type="text/css">*{stroke-linejoin: round; stroke-linecap: butt}</style>
 </defs>
 <g id="figure_1">
  <g id="patch_1">
   <path d="M 0 267.160781 
L 389.288281 267.160781 
L 389.288281 0 
L 0 0 
z
" style="fill: #ffffff"/>
  </g>
  <g id="axes_1">
   <g id="patch_2">
    <path d="M 47.288281 228.96 
L 382.088281 228.96 
L 382.088281 7.2 
L 47.288281 7.2 
z
" style="fill: #ffffff"/>
   </g>
   <g id="matplotlib.axis_1">
    <g id="xtick_1">
     <g id="line2d_1">
      <defs>
       <path id="m3aaa9f864d" d="M 0 0 
L 0 3.5 
" style="stroke: #000000; stroke-width: 0.8"/>
      </defs>
      <g>
       <use xlink:href="#m3aaa9f864d" x="62.505156" y="228.96" style="stroke: #000000; stroke-width: 0.8"/>
      </g>
     </g>
     <g id="text_1">
      <!-- 0 -->
      <g transform="translate(59.323906 243.557656) scale(0.1 -0.1)">
       <defs>
        <path id="DejaVuSans-13" d="M 2034 4250 
Q 1547 4250 1301 3770 
Q 1056 3291 1056 2328 
Q 1056 1369 1301 889 
Q 1547 409 2034 409 
Q 2525 409 2770 889 
Q 3016 1369 3016 2328 
Q 3016 3291 2770 3770 
Q 2525 4250 2034 4250 
z
M 2034 4750 
Q 2819 4750 3233 4129 
Q 3647 3509 3647 2328 
Q 3647 1150 3233 529 
Q 2819 -91 2034 -91 
Q 1250 -91 836 529 
Q 422 1150 422 2328 
Q 422 3509 836 4129 
Q 1250 4750 2034 4750 
z
" transform="scale(0.015625)"/>
       </defs>
       <use xlink:href="#DejaVuSans-13"/>
      </g>
     </g>
    </g>
    <g id="xtick_2">
     <g id="line2d_2">
      <g>
       <use xlink:href="#m3aaa9f864d" x="105.118155" y="228.96" style="stroke: #000000; stroke-width: 0.8"/>
      </g>
     </g>
     <g id="text_2">
      <!-- 10000 -->
      <g transform="translate(89.211905 243.557656) scale(0.1 -0.1)">
       <defs>
        <path id="DejaVuSans-14" d="M 794 531 
L 1825 531 
L 1825 4091 
L 703 3866 
L 703 4441 
L 1819 4666 
L 2450 4666 
L 2450 531 
L 3481 531 
L 3481 0 
L 794 0 
L 794 531 
z
" transform="scale(0.015625)"/>
       </defs>
       <use xlink:href="#DejaVuSans-14"/>
       <use xlink:href="#DejaVuSans-13" transform="translate(63.625 0)"/>
       <use xlink:href="#DejaVuSans-13" transform="translate(127.25 0)"/>
       <use xlink:href="#DejaVuSans-13" transform="translate(190.875 0)"/>
       <use xlink:href="#DejaVuSans-13" transform="translate(254.5 0)"/>
      </g>
     </g>
    </g>
    <g id="xtick_3">
     <g id="line2d_3">
      <g>
       <use xlink:href="#m3aaa9f864d" x="147.731154" y="228.96" style="stroke: #000000; stroke-width: 0.8"/>
      </g>
     </g>
     <g id="text_3">
      <!-- 20000 -->
      <g transform="translate(131.824904 243.557656) scale(0.1 -0.1)">
       <defs>
        <path id="DejaVuSans-15" d="M 1228 531 
L 3431 531 
L 3431 0 
L 469 0 
L 469 531 
Q 828 903 1448 1529 
Q 2069 2156 2228 2338 
Q 2531 2678 2651 2914 
Q 2772 3150 2772 3378 
Q 2772 3750 2511 3984 
Q 2250 4219 1831 4219 
Q 1534 4219 1204 4116 
Q 875 4013 500 3803 
L 500 4441 
Q 881 4594 1212 4672 
Q 1544 4750 1819 4750 
Q 2544 4750 2975 4387 
Q 3406 4025 3406 3419 
Q 3406 3131 3298 2873 
Q 3191 2616 2906 2266 
Q 2828 2175 2409 1742 
Q 1991 1309 1228 531 
z
" transform="scale(0.015625)"/>
       </defs>
       <use xlink:href="#DejaVuSans-15"/>
       <use xlink:href="#DejaVuSans-13" transform="translate(63.625 0)"/>
       <use xlink:href="#DejaVuSans-13" transform="translate(127.25 0)"/>
       <use xlink:href="#DejaVuSans-13" transform="translate(190.875 0)"/>
       <use xlink:href="#DejaVuSans-13" transform="translate(254.5 0)"/>
      </g>
     </g>
    </g>
    <g id="xtick_4">
     <g id="line2d_4">
      <g>
       <use xlink:href="#m3aaa9f864d" x="190.344152" y="228.96" style="stroke: #000000; stroke-width: 0.8"/>
      </g>
     </g>
     <g id="text_4">
      <!-- 30000 -->
      <g transform="translate(174.437902 243.557656) scale(0.1 -0.1)">
       <defs>
        <path id="DejaVuSans-16" d="M 2597 2516 
Q 3050 2419 3304 2112 
Q 3559 1806 3559 1356 
Q 3559 666 3084 287 
Q 2609 -91 1734 -91 
Q 1441 -91 1130 -33 
Q 819 25 488 141 
L 488 750 
Q 750 597 1062 519 
Q 1375 441 1716 441 
Q 2309 441 2620 675 
Q 2931 909 2931 1356 
Q 2931 1769 2642 2001 
Q 2353 2234 1838 2234 
L 1294 2234 
L 1294 2753 
L 1863 2753 
Q 2328 2753 2575 2939 
Q 2822 3125 2822 3475 
Q 2822 3834 2567 4026 
Q 2313 4219 1838 4219 
Q 1578 4219 1281 4162 
Q 984 4106 628 3988 
L 628 4550 
Q 988 4650 1302 4700 
Q 1616 4750 1894 4750 
Q 2613 4750 3031 4423 
Q 3450 4097 3450 3541 
Q 3450 3153 3228 2886 
Q 3006 2619 2597 2516 
z
" transform="scale(0.015625)"/>
       </defs>
       <use xlink:href="#DejaVuSans-16"/>
       <use xlink:href="#DejaVuSans-13" transform="translate(63.625 0)"/>
       <use xlink:href="#DejaVuSans-13" transform="translate(127.25 0)"/>
       <use xlink:href="#DejaVuSans-13" transform="translate(190.875 0)"/>
       <use xlink:href="#DejaVuSans-13" transform="translate(254.5 0)"/>
      </g>
     </g>
    </g>
    <g id="xtick_5">
     <g id="line2d_5">
      <g>
       <use xlink:href="#m3aaa9f864d" x="232.957151" y="228.96" style="stroke: #000000; stroke-width: 0.8"/>
      </g>
     </g>
     <g id="text_5">
      <!-- 40000 -->
      <g transform="translate(217.050901 243.557656) scale(0.1 -0.1)">
       <defs>
        <path id="DejaVuSans-17" d="M 2419 4116 
L 825 1625 
L 2419 1625 
L 2419 4116 
z
M 2253 4666 
L 3047 4666 
L 3047 1625 
L 3713 1625 
L 3713 1100 
L 3047 1100 
L 3047 0 
L 2419 0 
L 2419 1100 
L 313 1100 
L 313 1709 
L 2253 4666 
z
" transform="scale(0.015625)"/>
       </defs>
       <use xlink:href="#DejaVuSans-17"/>
       <use xlink:href="#DejaVuSans-13" transform="translate(63.625 0)"/>
       <use xlink:href="#DejaVuSans-13" transform="translate(127.25 0)"/>
       <use xlink:href="#DejaVuSans-13" transform="translate(190.875 0)"/>
       <use xlink:href="#DejaVuSans-13" transform="translate(254.5 0)"/>
      </g>
     </g>
    </g>
    <g id="xtick_6">
     <g id="line2d_6">
      <g>
       <use xlink:href="#m3aaa9f864d" x="275.57015" y="228.96" style="stroke: #000000; stroke-width: 0.8"/>
      </g>
     </g>
     <g id="text_6">
      <!-- 50000 -->
      <g transform="translate(259.6639 243.557656) scale(0.1 -0.1)">
       <defs>
        <path id="DejaVuSans-18" d="M 691 4666 
L 3169 4666 
L 3169 4134 
L 1269 4134 
L 1269 2991 
Q 1406 3038 1543 3061 
Q 1681 3084 1819 3084 
Q 2600 3084 3056 2656 
Q 3513 2228 3513 1497 
Q 3513 744 3044 326 
Q 2575 -91 1722 -91 
Q 1428 -91 1123 -41 
Q 819 9 494 109 
L 494 744 
Q 775 591 1075 516 
Q 1375 441 1709 441 
Q 2250 441 2565 725 
Q 2881 1009 2881 1497 
Q 2881 1984 2565 2268 
Q 2250 2553 1709 2553 
Q 1456 2553 1204 2497 
Q 953 2441 691 2322 
L 691 4666 
z
" transform="scale(0.015625)"/>
       </defs>
       <use xlink:href="#DejaVuSans-18"/>
       <use xlink:href="#DejaVuSans-13" transform="translate(63.625 0)"/>
       <use xlink:href="#DejaVuSans-13" transform="translate(127.25 0)"/>
       <use xlink:href="#DejaVuSans-13" transform="translate(190.875 0)"/>
       <use xlink:href="#DejaVuSans-13" transform="translate(254.5 0)"/>
      </g>
     </g>
    </g>
    <g id="xtick_7">
     <g id="line2d_7">
      <g>
       <use xlink:href="#m3aaa9f864d" x="318.183149" y="228.96" style="stroke: #000000; stroke-width: 0.8"/>
      </g>
     </g>
     <g id="text_7">
      <!-- 60000 -->
      <g transform="translate(302.276899 243.557656) scale(0.1 -0.1)">
       <defs>
        <path id="DejaVuSans-19" d="M 2113 2584 
Q 1688 2584 1439 2293 
Q 1191 2003 1191 1497 
Q 1191 994 1439 701 
Q 1688 409 2113 409 
Q 2538 409 2786 701 
Q 3034 994 3034 1497 
Q 3034 2003 2786 2293 
Q 2538 2584 2113 2584 
z
M 3366 4563 
L 3366 3988 
Q 3128 4100 2886 4159 
Q 2644 4219 2406 4219 
Q 1781 4219 1451 3797 
Q 1122 3375 1075 2522 
Q 1259 2794 1537 2939 
Q 1816 3084 2150 3084 
Q 2853 3084 3261 2657 
Q 3669 2231 3669 1497 
Q 3669 778 3244 343 
Q 2819 -91 2113 -91 
Q 1303 -91 875 529 
Q 447 1150 447 2328 
Q 447 3434 972 4092 
Q 1497 4750 2381 4750 
Q 2619 4750 2861 4703 
Q 3103 4656 3366 4563 
z
" transform="scale(0.015625)"/>
       </defs>
       <use xlink:href="#DejaVuSans-19"/>
       <use xlink:href="#DejaVuSans-13" transform="translate(63.625 0)"/>
       <use xlink:href="#DejaVuSans-13" transform="translate(127.25 0)"/>
       <use xlink:href="#DejaVuSans-13" transform="translate(190.875 0)"/>
       <use xlink:href="#DejaVuSans-13" transform="translate(254.5 0)"/>
      </g>
     </g>
    </g>
    <g id="xtick_8">
     <g id="line2d_8">
      <g>
       <use xlink:href="#m3aaa9f864d" x="360.796148" y="228.96" style="stroke: #000000; stroke-width: 0.8"/>
      </g>
     </g>
     <g id="text_8">
      <!-- 70000 -->
      <g transform="translate(344.889898 243.557656) scale(0.1 -0.1)">
       <defs>
        <path id="DejaVuSans-1a" d="M 525 4666 
L 3525 4666 
L 3525 4397 
L 1831 0 
L 1172 0 
L 2766 4134 
L 525 4134 
L 525 4666 
z
" transform="scale(0.015625)"/>
       </defs>
       <use xlink:href="#DejaVuSans-1a"/>
       <use xlink:href="#DejaVuSans-13" transform="translate(63.625 0)"/>
       <use xlink:href="#DejaVuSans-13" transform="translate(127.25 0)"/>
       <use xlink:href="#DejaVuSans-13" transform="translate(190.875 0)"/>
       <use xlink:href="#DejaVuSans-13" transform="translate(254.5 0)"/>
      </g>
     </g>
    </g>
    <g id="text_9">
     <!-- event_time_offset [µs] -->
     <g transform="translate(158.728906 257.558438) scale(0.1 -0.1)">
      <defs>
       <path id="DejaVuSans-48" d="M 3597 1894 
L 3597 1613 
L 953 1613 
Q 991 1019 1311 708 
Q 1631 397 2203 397 
Q 2534 397 2845 478 
Q 3156 559 3463 722 
L 3463 178 
Q 3153 47 2828 -22 
Q 2503 -91 2169 -91 
Q 1331 -91 842 396 
Q 353 884 353 1716 
Q 353 2575 817 3079 
Q 1281 3584 2069 3584 
Q 2775 3584 3186 3129 
Q 3597 2675 3597 1894 
z
M 3022 2063 
Q 3016 2534 2758 2815 
Q 2500 3097 2075 3097 
Q 1594 3097 1305 2825 
Q 1016 2553 972 2059 
L 3022 2063 
z
" transform="scale(0.015625)"/>
       <path id="DejaVuSans-59" d="M 191 3500 
L 800 3500 
L 1894 563 
L 2988 3500 
L 3597 3500 
L 2284 0 
L 1503 0 
L 191 3500 
z
" transform="scale(0.015625)"/>
       <path id="DejaVuSans-51" d="M 3513 2113 
L 3513 0 
L 2938 0 
L 2938 2094 
Q 2938 2591 2744 2837 
Q 2550 3084 2163 3084 
Q 1697 3084 1428 2787 
Q 1159 2491 1159 1978 
L 1159 0 
L 581 0 
L 581 3500 
L 1159 3500 
L 1159 2956 
Q 1366 3272 1645 3428 
Q 1925 3584 2291 3584 
Q 2894 3584 3203 3211 
Q 3513 2838 3513 2113 
z
" transform="scale(0.015625)"/>
       <path id="DejaVuSans-57" d="M 1172 4494 
L 1172 3500 
L 2356 3500 
L 2356 3053 
L 1172 3053 
L 1172 1153 
Q 1172 725 1289 603 
Q 1406 481 1766 481 
L 2356 481 
L 2356 0 
L 1766 0 
Q 1100 0 847 248 
Q 594 497 594 1153 
L 594 3053 
L 172 3053 
L 172 3500 
L 594 3500 
L 594 4494 
L 1172 4494 
z
" transform="scale(0.015625)"/>
       <path id="DejaVuSans-42" d="M 3263 -1063 
L 3263 -1509 
L -63 -1509 
L -63 -1063 
L 3263 -1063 
z
" transform="scale(0.015625)"/>
       <path id="DejaVuSans-4c" d="M 603 3500 
L 1178 3500 
L 1178 0 
L 603 0 
L 603 3500 
z
M 603 4863 
L 1178 4863 
L 1178 4134 
L 603 4134 
L 603 4863 
z
" transform="scale(0.015625)"/>
       <path id="DejaVuSans-50" d="M 3328 2828 
Q 3544 3216 3844 3400 
Q 4144 3584 4550 3584 
Q 5097 3584 5394 3201 
Q 5691 2819 5691 2113 
L 5691 0 
L 5113 0 
L 5113 2094 
Q 5113 2597 4934 2840 
Q 4756 3084 4391 3084 
Q 3944 3084 3684 2787 
Q 3425 2491 3425 1978 
L 3425 0 
L 2847 0 
L 2847 2094 
Q 2847 2600 2669 2842 
Q 2491 3084 2119 3084 
Q 1678 3084 1418 2786 
Q 1159 2488 1159 1978 
L 1159 0 
L 581 0 
L 581 3500 
L 1159 3500 
L 1159 2956 
Q 1356 3278 1631 3431 
Q 1906 3584 2284 3584 
Q 2666 3584 2933 3390 
Q 3200 3197 3328 2828 
z
" transform="scale(0.015625)"/>
       <path id="DejaVuSans-52" d="M 1959 3097 
Q 1497 3097 1228 2736 
Q 959 2375 959 1747 
Q 959 1119 1226 758 
Q 1494 397 1959 397 
Q 2419 397 2687 759 
Q 2956 1122 2956 1747 
Q 2956 2369 2687 2733 
Q 2419 3097 1959 3097 
z
M 1959 3584 
Q 2709 3584 3137 3096 
Q 3566 2609 3566 1747 
Q 3566 888 3137 398 
Q 2709 -91 1959 -91 
Q 1206 -91 779 398 
Q 353 888 353 1747 
Q 353 2609 779 3096 
Q 1206 3584 1959 3584 
z
" transform="scale(0.015625)"/>
       <path id="DejaVuSans-13ae" d="M 4531 4863 
L 4531 4384 
L 3981 4384 
Q 3672 4384 3551 4259 
Q 3431 4134 3431 3809 
L 3431 3500 
L 4378 3500 
L 4378 3053 
L 3431 3053 
L 3431 0 
L 2853 0 
L 2853 3053 
L 1275 3053 
L 1275 0 
L 697 0 
L 697 3053 
L 147 3053 
L 147 3500 
L 697 3500 
L 697 3744 
Q 697 4328 969 4595 
Q 1241 4863 1831 4863 
L 2375 4863 
L 2375 4384 
L 1825 4384 
Q 1516 4384 1394 4259 
Q 1275 4134 1275 3809 
L 1275 3500 
L 2853 3500 
L 2853 3744 
Q 2853 4328 3125 4595 
Q 3397 4863 3988 4863 
L 4531 4863 
z
" transform="scale(0.015625)"/>
       <path id="DejaVuSans-56" d="M 2834 3397 
L 2834 2853 
Q 2591 2978 2328 3040 
Q 2066 3103 1784 3103 
Q 1356 3103 1142 2972 
Q 928 2841 928 2578 
Q 928 2378 1081 2264 
Q 1234 2150 1697 2047 
L 1894 2003 
Q 2506 1872 2764 1633 
Q 3022 1394 3022 966 
Q 3022 478 2636 193 
Q 2250 -91 1575 -91 
Q 1294 -91 989 -36 
Q 684 19 347 128 
L 347 722 
Q 666 556 975 473 
Q 1284 391 1588 391 
Q 1994 391 2212 530 
Q 2431 669 2431 922 
Q 2431 1156 2273 1281 
Q 2116 1406 1581 1522 
L 1381 1569 
Q 847 1681 609 1914 
Q 372 2147 372 2553 
Q 372 3047 722 3315 
Q 1072 3584 1716 3584 
Q 2034 3584 2315 3537 
Q 2597 3491 2834 3397 
z
" transform="scale(0.015625)"/>
       <path id="DejaVuSans-3" transform="scale(0.015625)"/>
       <path id="DejaVuSans-3e" d="M 550 4863 
L 1875 4863 
L 1875 4416 
L 1125 4416 
L 1125 -397 
L 1875 -397 
L 1875 -844 
L 550 -844 
L 550 4863 
z
" transform="scale(0.015625)"/>
       <path id="DejaVuSans-77" d="M 544 -1331 
L 544 3500 
L 1119 3500 
L 1119 1325 
Q 1119 872 1334 640 
Q 1550 409 1972 409 
Q 2434 409 2667 671 
Q 2900 934 2900 1459 
L 2900 3500 
L 3475 3500 
L 3475 806 
Q 3475 619 3529 530 
Q 3584 441 3700 441 
Q 3728 441 3778 458 
Q 3828 475 3916 513 
L 3916 50 
Q 3788 -22 3673 -56 
Q 3559 -91 3450 -91 
Q 3234 -91 3106 31 
Q 2978 153 2931 403 
Q 2775 156 2548 32 
Q 2322 -91 2016 -91 
Q 1697 -91 1473 31 
Q 1250 153 1119 397 
L 1119 -1331 
L 544 -1331 
z
" transform="scale(0.015625)"/>
       <path id="DejaVuSans-40" d="M 1947 4863 
L 1947 -844 
L 622 -844 
L 622 -397 
L 1369 -397 
L 1369 4416 
L 622 4416 
L 622 4863 
L 1947 4863 
z
" transform="scale(0.015625)"/>
      </defs>
      <use xlink:href="#DejaVuSans-48"/>
      <use xlink:href="#DejaVuSans-59" transform="translate(61.53125 0)"/>
      <use xlink:href="#DejaVuSans-48" transform="translate(120.71875 0)"/>
      <use xlink:href="#DejaVuSans-51" transform="translate(182.25 0)"/>
      <use xlink:href="#DejaVuSans-57" transform="translate(245.625 0)"/>
      <use xlink:href="#DejaVuSans-42" transform="translate(284.828125 0)"/>
      <use xlink:href="#DejaVuSans-57" transform="translate(334.828125 0)"/>
      <use xlink:href="#DejaVuSans-4c" transform="translate(374.03125 0)"/>
      <use xlink:href="#DejaVuSans-50" transform="translate(401.8125 0)"/>
      <use xlink:href="#DejaVuSans-48" transform="translate(499.21875 0)"/>
      <use xlink:href="#DejaVuSans-42" transform="translate(560.75 0)"/>
      <use xlink:href="#DejaVuSans-52" transform="translate(610.75 0)"/>
      <use xlink:href="#DejaVuSans-13ae" transform="translate(671.9375 0)"/>
      <use xlink:href="#DejaVuSans-56" transform="translate(740.828125 0)"/>
      <use xlink:href="#DejaVuSans-48" transform="translate(792.921875 0)"/>
      <use xlink:href="#DejaVuSans-57" transform="translate(854.453125 0)"/>
      <use xlink:href="#DejaVuSans-3" transform="translate(893.65625 0)"/>
      <use xlink:href="#DejaVuSans-3e" transform="translate(925.4375 0)"/>
      <use xlink:href="#DejaVuSans-77" transform="translate(964.453125 0)"/>
      <use xlink:href="#DejaVuSans-56" transform="translate(1028.078125 0)"/>
      <use xlink:href="#DejaVuSans-40" transform="translate(1080.171875 0)"/>
     </g>
    </g>
   </g>
   <g id="matplotlib.axis_2">
    <g id="ytick_1">
     <g id="line2d_9">
      <defs>
       <path id="mb29379c9d8" d="M 0 0 
L -3.5 0 
" style="stroke: #000000; stroke-width: 0.8"/>
      </defs>
      <g>
       <use xlink:href="#mb29379c9d8" x="47.288281" y="218.88" style="stroke: #000000; stroke-width: 0.8"/>
      </g>
     </g>
     <g id="text_10">
      <!-- 0 -->
      <g transform="translate(33.925781 222.678828) scale(0.1 -0.1)">
       <use xlink:href="#DejaVuSans-13"/>
      </g>
     </g>
    </g>
    <g id="ytick_2">
     <g id="line2d_10">
      <g>
       <use xlink:href="#mb29379c9d8" x="47.288281" y="180.553004" style="stroke: #000000; stroke-width: 0.8"/>
      </g>
     </g>
     <g id="text_11">
      <!-- 100 -->
      <g transform="translate(21.200781 184.351832) scale(0.1 -0.1)">
       <use xlink:href="#DejaVuSans-14"/>
       <use xlink:href="#DejaVuSans-13" transform="translate(63.625 0)"/>
       <use xlink:href="#DejaVuSans-13" transform="translate(127.25 0)"/>
      </g>
     </g>
    </g>
    <g id="ytick_3">
     <g id="line2d_11">
      <g>
       <use xlink:href="#mb29379c9d8" x="47.288281" y="142.226008" style="stroke: #000000; stroke-width: 0.8"/>
      </g>
     </g>
     <g id="text_12">
      <!-- 200 -->
      <g transform="translate(21.200781 146.024836) scale(0.1 -0.1)">
       <use xlink:href="#DejaVuSans-15"/>
       <use xlink:href="#DejaVuSans-13" transform="translate(63.625 0)"/>
       <use xlink:href="#DejaVuSans-13" transform="translate(127.25 0)"/>
      </g>
     </g>
    </g>
    <g id="ytick_4">
     <g id="line2d_12">
      <g>
       <use xlink:href="#mb29379c9d8" x="47.288281" y="103.899011" style="stroke: #000000; stroke-width: 0.8"/>
      </g>
     </g>
     <g id="text_13">
      <!-- 300 -->
      <g transform="translate(21.200781 107.69784) scale(0.1 -0.1)">
       <use xlink:href="#DejaVuSans-16"/>
       <use xlink:href="#DejaVuSans-13" transform="translate(63.625 0)"/>
       <use xlink:href="#DejaVuSans-13" transform="translate(127.25 0)"/>
      </g>
     </g>
    </g>
    <g id="ytick_5">
     <g id="line2d_13">
      <g>
       <use xlink:href="#mb29379c9d8" x="47.288281" y="65.572015" style="stroke: #000000; stroke-width: 0.8"/>
      </g>
     </g>
     <g id="text_14">
      <!-- 400 -->
      <g transform="translate(21.200781 69.370843) scale(0.1 -0.1)">
       <use xlink:href="#DejaVuSans-17"/>
       <use xlink:href="#DejaVuSans-13" transform="translate(63.625 0)"/>
       <use xlink:href="#DejaVuSans-13" transform="translate(127.25 0)"/>
      </g>
     </g>
    </g>
    <g id="ytick_6">
     <g id="line2d_14">
      <g>
       <use xlink:href="#mb29379c9d8" x="47.288281" y="27.245019" style="stroke: #000000; stroke-width: 0.8"/>
      </g>
     </g>
     <g id="text_15">
      <!-- 500 -->
      <g transform="translate(21.200781 31.043847) scale(0.1 -0.1)">
       <use xlink:href="#DejaVuSans-18"/>
       <use xlink:href="#DejaVuSans-13" transform="translate(63.625 0)"/>
       <use xlink:href="#DejaVuSans-13" transform="translate(127.25 0)"/>
      </g>
     </g>
    </g>
    <g id="text_16">
     <!-- [counts] -->
     <g transform="translate(14.798438 138.6925) rotate(-90) scale(0.1 -0.1)">
      <defs>
       <path id="DejaVuSans-46" d="M 3122 3366 
L 3122 2828 
Q 2878 2963 2633 3030 
Q 2388 3097 2138 3097 
Q 1578 3097 1268 2742 
Q 959 2388 959 1747 
Q 959 1106 1268 751 
Q 1578 397 2138 397 
Q 2388 397 2633 464 
Q 2878 531 3122 666 
L 3122 134 
Q 2881 22 2623 -34 
Q 2366 -91 2075 -91 
Q 1284 -91 818 406 
Q 353 903 353 1747 
Q 353 2603 823 3093 
Q 1294 3584 2113 3584 
Q 2378 3584 2631 3529 
Q 2884 3475 3122 3366 
z
" transform="scale(0.015625)"/>
       <path id="DejaVuSans-58" d="M 544 1381 
L 544 3500 
L 1119 3500 
L 1119 1403 
Q 1119 906 1312 657 
Q 1506 409 1894 409 
Q 2359 409 2629 706 
Q 2900 1003 2900 1516 
L 2900 3500 
L 3475 3500 
L 3475 0 
L 2900 0 
L 2900 538 
Q 2691 219 2414 64 
Q 2138 -91 1772 -91 
Q 1169 -91 856 284 
Q 544 659 544 1381 
z
M 1991 3584 
L 1991 3584 
z
" transform="scale(0.015625)"/>
      </defs>
      <use xlink:href="#DejaVuSans-3e"/>
      <use xlink:href="#DejaVuSans-46" transform="translate(39.015625 0)"/>
      <use xlink:href="#DejaVuSans-52" transform="translate(94 0)"/>
      <use xlink:href="#DejaVuSans-58" transform="translate(155.1875 0)"/>
      <use xlink:href="#DejaVuSans-51" transform="translate(218.5625 0)"/>
      <use xlink:href="#DejaVuSans-57" transform="translate(281.9375 0)"/>
      <use xlink:href="#DejaVuSans-56" transform="translate(321.140625 0)"/>
      <use xlink:href="#DejaVuSans-40" transform="translate(373.234375 0)"/>
     </g>
    </g>
   </g>
   <g id="line2d_15">
    <path d="M 62.506463 127.661749 
L 63.521009 127.661749 
L 63.521009 119.61308 
L 64.535554 119.61308 
L 64.535554 116.93019 
L 65.550099 116.93019 
L 65.550099 115.01384 
L 66.564645 115.01384 
L 66.564645 112.330951 
L 67.57919 112.330951 
L 67.57919 120.37962 
L 68.593736 120.37962 
L 68.593736 122.67924 
L 69.608281 122.67924 
L 69.608281 109.648061 
L 70.622827 109.648061 
L 70.622827 126.128669 
L 71.637372 126.128669 
L 71.637372 131.877719 
L 72.651918 131.877719 
L 72.651918 132.644259 
L 73.666463 132.644259 
L 73.666463 127.278479 
L 74.681009 127.278479 
L 74.681009 136.093688 
L 75.695554 136.093688 
L 75.695554 132.644259 
L 76.710099 132.644259 
L 76.710099 122.29597 
L 77.724645 122.29597 
L 77.724645 132.260989 
L 79.753736 132.260989 
L 79.753736 137.626768 
L 80.768281 137.626768 
L 80.768281 136.476958 
L 81.782827 136.476958 
L 81.782827 134.943878 
L 82.797372 134.943878 
L 82.797372 150.274677 
L 83.811918 150.274677 
L 83.811918 145.292167 
L 84.826463 145.292167 
L 84.826463 144.525627 
L 85.841009 144.525627 
L 85.841009 151.041217 
L 86.855554 151.041217 
L 86.855554 147.591787 
L 87.870099 147.591787 
L 87.870099 147.975057 
L 88.884645 147.975057 
L 88.884645 152.957567 
L 89.89919 152.957567 
L 89.89919 150.657947 
L 90.913736 150.657947 
L 90.913736 146.825247 
L 91.928281 146.825247 
L 91.928281 156.406996 
L 92.942827 156.406996 
L 92.942827 144.525627 
L 93.957372 144.525627 
L 93.957372 156.406996 
L 94.971918 156.406996 
L 94.971918 154.873916 
L 95.986463 154.873916 
L 95.986463 164.455665 
L 97.001009 164.455665 
L 97.001009 157.940076 
L 99.030099 157.940076 
L 99.030099 166.372015 
L 100.044645 166.372015 
L 100.044645 170.971255 
L 101.05919 170.971255 
L 101.05919 164.455665 
L 103.088281 164.455665 
L 103.088281 169.438175 
L 104.102827 169.438175 
L 104.102827 174.037414 
L 105.117372 174.037414 
L 105.117372 177.103574 
L 106.131918 177.103574 
L 106.131918 176.720304 
L 107.146463 176.720304 
L 107.146463 183.235894 
L 108.161009 183.235894 
L 108.161009 182.852624 
L 109.175554 182.852624 
L 109.175554 184.002433 
L 110.190099 184.002433 
L 110.190099 182.086084 
L 111.204645 182.086084 
L 111.204645 187.451863 
L 112.21919 187.451863 
L 112.21919 197.416882 
L 113.233736 197.416882 
L 113.233736 192.051103 
L 114.248281 192.051103 
L 114.248281 192.817643 
L 115.262827 192.817643 
L 115.262827 200.866312 
L 116.277372 200.866312 
L 116.277372 200.483042 
L 117.291918 200.483042 
L 117.291918 206.232091 
L 118.306463 206.232091 
L 118.306463 202.399392 
L 119.321009 202.399392 
L 119.321009 200.866312 
L 120.335554 200.866312 
L 120.335554 206.615361 
L 121.350099 206.615361 
L 121.350099 208.148441 
L 122.364645 208.148441 
L 122.364645 207.381901 
L 123.37919 207.381901 
L 123.37919 203.932471 
L 124.393736 203.932471 
L 124.393736 207.381901 
L 125.408281 207.381901 
L 125.408281 213.514221 
L 127.437372 213.514221 
L 127.437372 210.448061 
L 128.451918 210.448061 
L 128.451918 213.89749 
L 129.466463 213.89749 
L 129.466463 215.81384 
L 130.481009 215.81384 
L 130.481009 216.58038 
L 131.495554 216.58038 
L 131.495554 217.73019 
L 133.524645 217.73019 
L 133.524645 217.34692 
L 134.53919 217.34692 
L 134.53919 218.88 
L 135.553736 218.88 
L 135.553736 217.34692 
L 136.568281 217.34692 
L 136.568281 218.49673 
L 137.582827 218.49673 
L 137.582827 218.88 
L 149.757372 218.88 
L 149.757372 215.81384 
L 150.771918 215.81384 
L 150.771918 211.214601 
L 151.786463 211.214601 
L 151.786463 208.531711 
L 152.801009 208.531711 
L 152.801009 197.800152 
L 153.815554 197.800152 
L 153.815554 194.350722 
L 154.830099 194.350722 
L 154.830099 192.817643 
L 155.844645 192.817643 
L 155.844645 185.535513 
L 156.85919 185.535513 
L 156.85919 177.103574 
L 157.873736 177.103574 
L 157.873736 164.455665 
L 158.888281 164.455665 
L 158.888281 163.305856 
L 159.902827 163.305856 
L 159.902827 154.490646 
L 160.917372 154.490646 
L 160.917372 147.208517 
L 162.946463 147.208517 
L 162.946463 137.243498 
L 163.961009 137.243498 
L 163.961009 139.926388 
L 164.975554 139.926388 
L 164.975554 126.511939 
L 165.990099 126.511939 
L 165.990099 124.978859 
L 167.004645 124.978859 
L 167.004645 103.515741 
L 169.033736 103.515741 
L 169.033736 100.449582 
L 170.048281 100.449582 
L 170.048281 108.881521 
L 171.062827 108.881521 
L 171.062827 81.669354 
L 172.077372 81.669354 
L 172.077372 89.334753 
L 173.091918 89.334753 
L 173.091918 98.533232 
L 174.106463 98.533232 
L 174.106463 78.603194 
L 175.121009 78.603194 
L 175.121009 66.338555 
L 176.135554 66.338555 
L 176.135554 64.805475 
L 177.150099 64.805475 
L 177.150099 72.854144 
L 178.164645 72.854144 
L 178.164645 51.391027 
L 179.17919 51.391027 
L 179.17919 54.073916 
L 180.193736 54.073916 
L 180.193736 53.307376 
L 181.208281 53.307376 
L 181.208281 38.743118 
L 182.222827 38.743118 
L 182.222827 42.575817 
L 183.237372 42.575817 
L 183.237372 46.025247 
L 184.251918 46.025247 
L 184.251918 42.959087 
L 185.266463 42.959087 
L 185.266463 36.826768 
L 186.281009 36.826768 
L 186.281009 31.077719 
L 187.295554 31.077719 
L 187.295554 24.178859 
L 188.310099 24.178859 
L 188.310099 29.544639 
L 189.324645 29.544639 
L 189.324645 36.060228 
L 190.33919 36.060228 
L 190.33919 18.04654 
L 191.353736 18.04654 
L 191.353736 24.945399 
L 192.368281 24.945399 
L 192.368281 23.029049 
L 193.382827 23.029049 
L 193.382827 18.04654 
L 194.397372 18.04654 
L 194.397372 17.28 
L 195.411918 17.28 
L 195.411918 24.562129 
L 196.426463 24.562129 
L 196.426463 34.143878 
L 197.441009 34.143878 
L 197.441009 21.87924 
L 198.455554 21.87924 
L 198.455554 19.96289 
L 199.470099 19.96289 
L 199.470099 30.311179 
L 200.484645 30.311179 
L 200.484645 29.927909 
L 201.49919 29.927909 
L 201.49919 36.443498 
L 202.513736 36.443498 
L 202.513736 23.029049 
L 203.528281 23.029049 
L 203.528281 27.628289 
L 204.542827 27.628289 
L 204.542827 32.994068 
L 205.557372 32.994068 
L 205.557372 27.628289 
L 206.571918 27.628289 
L 206.571918 32.227529 
L 207.586463 32.227529 
L 207.586463 46.408517 
L 208.601009 46.408517 
L 208.601009 51.391027 
L 209.615554 51.391027 
L 209.615554 42.959087 
L 210.630099 42.959087 
L 210.630099 39.126388 
L 211.644645 39.126388 
L 211.644645 64.038935 
L 212.65919 64.038935 
L 212.65919 46.025247 
L 213.673736 46.025247 
L 213.673736 43.725627 
L 214.688281 43.725627 
L 214.688281 41.809278 
L 215.702827 41.809278 
L 215.702827 47.941597 
L 216.717372 47.941597 
L 216.717372 54.457186 
L 217.731918 54.457186 
L 217.731918 42.959087 
L 218.746463 42.959087 
L 218.746463 46.408517 
L 219.761009 46.408517 
L 219.761009 49.857947 
L 220.775554 49.857947 
L 220.775554 67.105095 
L 221.790099 67.105095 
L 221.790099 55.990266 
L 222.804645 55.990266 
L 222.804645 52.924106 
L 223.81919 52.924106 
L 223.81919 60.589506 
L 224.833736 60.589506 
L 224.833736 55.223726 
L 225.848281 55.223726 
L 225.848281 66.721825 
L 226.862827 66.721825 
L 226.862827 60.206236 
L 227.877372 60.206236 
L 227.877372 72.470875 
L 228.891918 72.470875 
L 228.891918 72.087605 
L 229.906463 72.087605 
L 229.906463 64.422205 
L 230.921009 64.422205 
L 230.921009 65.572015 
L 231.935554 65.572015 
L 231.935554 71.704335 
L 232.950099 71.704335 
L 232.950099 67.488365 
L 233.964645 67.488365 
L 233.964645 74.770494 
L 234.97919 74.770494 
L 234.97919 84.352243 
L 235.993736 84.352243 
L 235.993736 70.937795 
L 237.008281 70.937795 
L 237.008281 68.254905 
L 238.022827 68.254905 
L 238.022827 68.638175 
L 239.037372 68.638175 
L 239.037372 65.188745 
L 240.051918 65.188745 
L 240.051918 78.986464 
L 241.066463 78.986464 
L 241.066463 67.488365 
L 242.081009 67.488365 
L 242.081009 61.739316 
L 243.095554 61.739316 
L 243.095554 75.537034 
L 244.110099 75.537034 
L 244.110099 60.972776 
L 245.124645 60.972776 
L 245.124645 68.638175 
L 246.13919 68.638175 
L 246.13919 75.153764 
L 247.153736 75.153764 
L 247.153736 80.136274 
L 248.168281 80.136274 
L 248.168281 83.968973 
L 249.182827 83.968973 
L 249.182827 85.502053 
L 250.197372 85.502053 
L 250.197372 67.871635 
L 251.211918 67.871635 
L 251.211918 73.620684 
L 252.226463 73.620684 
L 252.226463 83.585703 
L 253.241009 83.585703 
L 253.241009 82.052624 
L 254.255554 82.052624 
L 254.255554 85.502053 
L 255.270099 85.502053 
L 255.270099 89.718023 
L 256.284645 89.718023 
L 256.284645 97.000152 
L 257.29919 97.000152 
L 257.29919 108.881521 
L 258.313736 108.881521 
L 258.313736 113.86403 
L 259.328281 113.86403 
L 259.328281 105.048821 
L 260.342827 105.048821 
L 260.342827 116.93019 
L 261.357372 116.93019 
L 261.357372 124.212319 
L 262.371918 124.212319 
L 262.371918 124.978859 
L 263.386463 124.978859 
L 263.386463 132.260989 
L 264.401009 132.260989 
L 264.401009 126.511939 
L 265.415554 126.511939 
L 265.415554 131.494449 
L 266.430099 131.494449 
L 266.430099 132.260989 
L 267.444645 132.260989 
L 267.444645 150.657947 
L 268.45919 150.657947 
L 268.45919 154.490646 
L 269.473736 154.490646 
L 269.473736 155.640456 
L 270.488281 155.640456 
L 270.488281 158.706616 
L 271.502827 158.706616 
L 271.502827 161.772776 
L 272.517372 161.772776 
L 272.517372 163.689125 
L 273.531918 163.689125 
L 273.531918 177.486844 
L 274.546463 177.486844 
L 274.546463 174.803954 
L 275.561009 174.803954 
L 275.561009 177.103574 
L 276.575554 177.103574 
L 276.575554 193.584183 
L 277.590099 193.584183 
L 277.590099 192.051103 
L 278.604645 192.051103 
L 278.604645 193.584183 
L 279.61919 193.584183 
L 279.61919 198.183422 
L 280.633736 198.183422 
L 280.633736 203.165932 
L 281.648281 203.165932 
L 281.648281 205.848821 
L 282.662827 205.848821 
L 282.662827 209.681521 
L 283.677372 209.681521 
L 283.677372 212.364411 
L 284.691918 212.364411 
L 284.691918 215.43057 
L 285.706463 215.43057 
L 285.706463 216.19711 
L 286.721009 216.19711 
L 286.721009 217.73019 
L 287.735554 217.73019 
L 287.735554 218.88 
L 298.895554 218.88 
L 298.895554 215.0473 
L 299.910099 215.0473 
L 299.910099 208.531711 
L 300.924645 208.531711 
L 300.924645 202.782662 
L 301.93919 202.782662 
L 301.93919 202.399392 
L 302.953736 202.399392 
L 302.953736 197.416882 
L 303.968281 197.416882 
L 303.968281 192.817643 
L 304.982827 192.817643 
L 304.982827 189.368213 
L 305.997372 189.368213 
L 305.997372 188.601673 
L 307.011918 188.601673 
L 307.011918 177.870114 
L 308.026463 177.870114 
L 308.026463 177.486844 
L 309.041009 177.486844 
L 309.041009 163.305856 
L 310.055554 163.305856 
L 310.055554 171.737795 
L 311.070099 171.737795 
L 311.070099 166.755285 
L 312.084645 166.755285 
L 312.084645 161.389506 
L 313.09919 161.389506 
L 313.09919 158.323346 
L 314.113736 158.323346 
L 314.113736 156.023726 
L 315.128281 156.023726 
L 315.128281 149.891407 
L 316.142827 149.891407 
L 316.142827 148.358327 
L 317.157372 148.358327 
L 317.157372 142.226008 
L 318.171918 142.226008 
L 318.171918 136.476958 
L 319.186463 136.476958 
L 319.186463 126.511939 
L 320.201009 126.511939 
L 320.201009 139.159848 
L 321.215554 139.159848 
L 321.215554 140.692928 
L 322.230099 140.692928 
L 322.230099 130.727909 
L 323.244645 130.727909 
L 323.244645 126.511939 
L 324.25919 126.511939 
L 324.25919 126.128669 
L 325.273736 126.128669 
L 325.273736 119.61308 
L 326.288281 119.61308 
L 326.288281 118.84654 
L 327.302827 118.84654 
L 327.302827 108.114981 
L 328.317372 108.114981 
L 328.317372 106.965171 
L 329.331918 106.965171 
L 329.331918 103.515741 
L 330.346463 103.515741 
L 330.346463 114.63057 
L 331.361009 114.63057 
L 331.361009 108.114981 
L 332.375554 108.114981 
L 332.375554 100.832852 
L 333.390099 100.832852 
L 333.390099 103.515741 
L 334.404645 103.515741 
L 334.404645 93.933992 
L 335.41919 93.933992 
L 335.41919 113.09749 
L 336.433736 113.09749 
L 336.433736 98.149962 
L 337.448281 98.149962 
L 337.448281 95.467072 
L 338.462827 95.467072 
L 338.462827 93.167452 
L 339.477372 93.167452 
L 339.477372 87.418403 
L 340.491918 87.418403 
L 340.491918 83.202433 
L 341.506463 83.202433 
L 341.506463 80.519544 
L 342.521009 80.519544 
L 342.521009 94.700532 
L 343.535554 94.700532 
L 343.535554 80.902814 
L 344.550099 80.902814 
L 344.550099 98.533232 
L 345.564645 98.533232 
L 345.564645 83.202433 
L 346.57919 83.202433 
L 346.57919 88.568213 
L 347.593736 88.568213 
L 347.593736 89.334753 
L 348.608281 89.334753 
L 348.608281 106.965171 
L 349.622827 106.965171 
L 349.622827 93.933992 
L 350.637372 93.933992 
L 350.637372 91.251103 
L 351.651918 91.251103 
L 351.651918 103.132471 
L 352.666463 103.132471 
L 352.666463 104.282281 
L 353.681009 104.282281 
L 353.681009 104.665551 
L 354.695554 104.665551 
L 354.695554 99.683042 
L 355.710099 99.683042 
L 355.710099 108.881521 
L 356.724645 108.881521 
L 356.724645 105.432091 
L 357.73919 105.432091 
L 357.73919 94.700532 
L 358.753736 94.700532 
L 358.753736 113.86403 
L 359.768281 113.86403 
L 359.768281 118.84654 
L 360.782827 118.84654 
L 360.782827 100.832852 
L 361.797372 100.832852 
L 361.797372 109.264791 
L 362.811918 109.264791 
L 362.811918 123.06251 
L 363.826463 123.06251 
L 363.826463 109.648061 
L 364.841009 109.648061 
L 364.841009 131.111179 
L 365.855554 131.111179 
L 365.855554 108.881521 
L 366.870099 108.881521 
L 366.870099 108.881521 
" clip-path="url(#p15e5819bd6)" style="fill: none; stroke: #1f77b4; stroke-width: 1.5; stroke-linecap: square"/>
   </g>
   <g id="patch_3">
    <path d="M 47.288281 228.96 
L 47.288281 7.2 
" style="fill: none; stroke: #000000; stroke-width: 0.8; stroke-linejoin: miter; stroke-linecap: square"/>
   </g>
   <g id="patch_4">
    <path d="M 382.088281 228.96 
L 382.088281 7.2 
" style="fill: none; stroke: #000000; stroke-width: 0.8; stroke-linejoin: miter; stroke-linecap: square"/>
   </g>
   <g id="patch_5">
    <path d="M 47.288281 228.96 
L 382.088281 228.96 
" style="fill: none; stroke: #000000; stroke-width: 0.8; stroke-linejoin: miter; stroke-linecap: square"/>
   </g>
   <g id="patch_6">
    <path d="M 47.288281 7.2 
L 382.088281 7.2 
" style="fill: none; stroke: #000000; stroke-width: 0.8; stroke-linejoin: miter; stroke-linecap: square"/>
   </g>
  </g>
 </g>
 <defs>
  <clipPath id="p15e5819bd6">
   <rect x="47.288281" y="7.2" width="334.8" height="221.76"/>
  </clipPath>
 </defs>
</svg>
