<?xml version="1.0" encoding="utf-8" standalone="no"?>
<!DOCTYPE svg PUBLIC "-//W3C//DTD SVG 1.1//EN"
  "http://www.w3.org/Graphics/SVG/1.1/DTD/svg11.dtd">
<svg xmlns:xlink="http://www.w3.org/1999/xlink" width="389.288281pt" height="269.336077pt" viewBox="0 0 389.288281 269.336077" xmlns="http://www.w3.org/2000/svg" version="1.1">
 <metadata>
  <rdf:RDF xmlns:dc="http://purl.org/dc/elements/1.1/" xmlns:cc="http://creativecommons.org/ns#" xmlns:rdf="http://www.w3.org/1999/02/22-rdf-syntax-ns#">
   <cc:Work>
    <dc:type rdf:resource="http://purl.org/dc/dcmitype/StillImage"/>
    <dc:date>2026-06-30T14:34:05.996247</dc:date>
    <dc:format>image/svg+xml</dc:format>
    <dc:creator>
     <cc:Agent>
      <dc:title>Matplotlib v3.11.0, https://matplotlib.org/</dc:title>
     </cc:Agent>
    </dc:creator>
   </cc:Work>
  </rdf:RDF>
 </metadata>
 <defs>
  <style type="text/css">*{stroke-linejoin: round; stroke-linecap: butt}</style>
 </defs>
 <g id="figure_1">
  <g id="patch_1">
   <path d="M 0 269.336077 
L 389.288281 269.336077 
L 389.288281 0 
L 0 0 
z
" style="fill: #ffffff"/>
  </g>
  <g id="axes_1">
   <g id="patch_2">
    <path d="M 47.288281 229.450921 
L 382.088281 229.450921 
L 382.088281 7.690921 
L 47.288281 7.690921 
z
" style="fill: #ffffff"/>
   </g>
   <g id="matplotlib.axis_1">
    <g id="xtick_1">
     <g id="line2d_1">
      <defs>
       <path id="mb7da6cb656" d="M 0 0 
L 0 3.5 
" style="stroke: #000000; stroke-width: 0.8"/>
      </defs>
      <g>
       <use xlink:href="#mb7da6cb656" x="102.206068" y="229.450921" style="stroke: #000000; stroke-width: 0.8"/>
      </g>
     </g>
     <g id="text_1">
      <!-- 2 -->
      <g transform="translate(99.024818 244.048577) scale(0.1 -0.1)">
       <defs>
        <path id="DejaVuSans-15" d="M 1228 531 
L 3431 531 
L 3431 0 
L 469 0 
L 469 531 
Q 828 903 1448 1529 
Q 2069 2156 2228 2338 
Q 2531 2678 2651 2914 
Q 2772 3150 2772 3378 
Q 2772 3750 2511 3984 
Q 2250 4219 1831 4219 
Q 1534 4219 1204 4116 
Q 875 4013 500 3803 
L 500 4441 
Q 881 4594 1212 4672 
Q 1544 4750 1819 4750 
Q 2544 4750 2975 4387 
Q 3406 4025 3406 3419 
Q 3406 3131 3298 2873 
Q 3191 2616 2906 2266 
Q 2828 2175 2409 1742 
Q 1991 1309 1228 531 
z
" transform="scale(0.015625)"/>
       </defs>
       <use xlink:href="#DejaVuSans-15"/>
      </g>
     </g>
    </g>
    <g id="xtick_2">
     <g id="line2d_2">
      <g>
       <use xlink:href="#mb7da6cb656" x="168.372076" y="229.450921" style="stroke: #000000; stroke-width: 0.8"/>
      </g>
     </g>
     <g id="text_2">
      <!-- 4 -->
      <g transform="translate(165.190826 244.048577) scale(0.1 -0.1)">
       <defs>
        <path id="DejaVuSans-17" d="M 2419 4116 
L 825 1625 
L 2419 1625 
L 2419 4116 
z
M 2253 4666 
L 3047 4666 
L 3047 1625 
L 3713 1625 
L 3713 1100 
L 3047 1100 
L 3047 0 
L 2419 0 
L 2419 1100 
L 313 1100 
L 313 1709 
L 2253 4666 
z
" transform="scale(0.015625)"/>
       </defs>
       <use xlink:href="#DejaVuSans-17"/>
      </g>
     </g>
    </g>
    <g id="xtick_3">
     <g id="line2d_3">
      <g>
       <use xlink:href="#mb7da6cb656" x="234.538084" y="229.450921" style="stroke: #000000; stroke-width: 0.8"/>
      </g>
     </g>
     <g id="text_3">
      <!-- 6 -->
      <g transform="translate(231.356834 244.048577) scale(0.1 -0.1)">
       <defs>
        <path id="DejaVuSans-19" d="M 2113 2584 
Q 1688 2584 1439 2293 
Q 1191 2003 1191 1497 
Q 1191 994 1439 701 
Q 1688 409 2113 409 
Q 2538 409 2786 701 
Q 3034 994 3034 1497 
Q 3034 2003 2786 2293 
Q 2538 2584 2113 2584 
z
M 3366 4563 
L 3366 3988 
Q 3128 4100 2886 4159 
Q 2644 4219 2406 4219 
Q 1781 4219 1451 3797 
Q 1122 3375 1075 2522 
Q 1259 2794 1537 2939 
Q 1816 3084 2150 3084 
Q 2853 3084 3261 2657 
Q 3669 2231 3669 1497 
Q 3669 778 3244 343 
Q 2819 -91 2113 -91 
Q 1303 -91 875 529 
Q 447 1150 447 2328 
Q 447 3434 972 4092 
Q 1497 4750 2381 4750 
Q 2619 4750 2861 4703 
Q 3103 4656 3366 4563 
z
" transform="scale(0.015625)"/>
       </defs>
       <use xlink:href="#DejaVuSans-19"/>
      </g>
     </g>
    </g>
    <g id="xtick_4">
     <g id="line2d_4">
      <g>
       <use xlink:href="#mb7da6cb656" x="300.704092" y="229.450921" style="stroke: #000000; stroke-width: 0.8"/>
      </g>
     </g>
     <g id="text_4">
      <!-- 8 -->
      <g transform="translate(297.522842 244.048577) scale(0.1 -0.1)">
       <defs>
        <path id="DejaVuSans-1b" d="M 2034 2216 
Q 1584 2216 1326 1975 
Q 1069 1734 1069 1313 
Q 1069 891 1326 650 
Q 1584 409 2034 409 
Q 2484 409 2743 651 
Q 3003 894 3003 1313 
Q 3003 1734 2745 1975 
Q 2488 2216 2034 2216 
z
M 1403 2484 
Q 997 2584 770 2862 
Q 544 3141 544 3541 
Q 544 4100 942 4425 
Q 1341 4750 2034 4750 
Q 2731 4750 3128 4425 
Q 3525 4100 3525 3541 
Q 3525 3141 3298 2862 
Q 3072 2584 2669 2484 
Q 3125 2378 3379 2068 
Q 3634 1759 3634 1313 
Q 3634 634 3220 271 
Q 2806 -91 2034 -91 
Q 1263 -91 848 271 
Q 434 634 434 1313 
Q 434 1759 690 2068 
Q 947 2378 1403 2484 
z
M 1172 3481 
Q 1172 3119 1398 2916 
Q 1625 2713 2034 2713 
Q 2441 2713 2670 2916 
Q 2900 3119 2900 3481 
Q 2900 3844 2670 4047 
Q 2441 4250 2034 4250 
Q 1625 4250 1398 4047 
Q 1172 3844 1172 3481 
z
" transform="scale(0.015625)"/>
       </defs>
       <use xlink:href="#DejaVuSans-1b"/>
      </g>
     </g>
    </g>
    <g id="xtick_5">
     <g id="line2d_5">
      <g>
       <use xlink:href="#mb7da6cb656" x="366.870099" y="229.450921" style="stroke: #000000; stroke-width: 0.8"/>
      </g>
     </g>
     <g id="text_5">
      <!-- 10 -->
      <g transform="translate(360.507599 244.048577) scale(0.1 -0.1)">
       <defs>
        <path id="DejaVuSans-14" d="M 794 531 
L 1825 531 
L 1825 4091 
L 703 3866 
L 703 4441 
L 1819 4666 
L 2450 4666 
L 2450 531 
L 3481 531 
L 3481 0 
L 794 0 
L 794 531 
z
" transform="scale(0.015625)"/>
        <path id="DejaVuSans-13" d="M 2034 4250 
Q 1547 4250 1301 3770 
Q 1056 3291 1056 2328 
Q 1056 1369 1301 889 
Q 1547 409 2034 409 
Q 2525 409 2770 889 
Q 3016 1369 3016 2328 
Q 3016 3291 2770 3770 
Q 2525 4250 2034 4250 
z
M 2034 4750 
Q 2819 4750 3233 4129 
Q 3647 3509 3647 2328 
Q 3647 1150 3233 529 
Q 2819 -91 2034 -91 
Q 1250 -91 836 529 
Q 422 1150 422 2328 
Q 422 3509 836 4129 
Q 1250 4750 2034 4750 
z
" transform="scale(0.015625)"/>
       </defs>
       <use xlink:href="#DejaVuSans-14"/>
       <use xlink:href="#DejaVuSans-13" transform="translate(63.625 0)"/>
      </g>
     </g>
    </g>
    <g id="text_6">
     <!-- wavelength [Å] -->
     <g transform="translate(176.650781 259.733734) scale(0.1 -0.1)">
      <defs>
       <path id="DejaVuSans-5a" d="M 269 3500 
L 844 3500 
L 1563 769 
L 2278 3500 
L 2956 3500 
L 3675 769 
L 4391 3500 
L 4966 3500 
L 4050 0 
L 3372 0 
L 2619 2869 
L 1863 0 
L 1184 0 
L 269 3500 
z
" transform="scale(0.015625)"/>
       <path id="DejaVuSans-44" d="M 2194 1759 
Q 1497 1759 1228 1600 
Q 959 1441 959 1056 
Q 959 750 1161 570 
Q 1363 391 1709 391 
Q 2188 391 2477 730 
Q 2766 1069 2766 1631 
L 2766 1759 
L 2194 1759 
z
M 3341 1997 
L 3341 0 
L 2766 0 
L 2766 531 
Q 2569 213 2275 61 
Q 1981 -91 1556 -91 
Q 1019 -91 701 211 
Q 384 513 384 1019 
Q 384 1609 779 1909 
Q 1175 2209 1959 2209 
L 2766 2209 
L 2766 2266 
Q 2766 2663 2505 2880 
Q 2244 3097 1772 3097 
Q 1472 3097 1187 3025 
Q 903 2953 641 2809 
L 641 3341 
Q 956 3463 1253 3523 
Q 1550 3584 1831 3584 
Q 2591 3584 2966 3190 
Q 3341 2797 3341 1997 
z
" transform="scale(0.015625)"/>
       <path id="DejaVuSans-59" d="M 191 3500 
L 800 3500 
L 1894 563 
L 2988 3500 
L 3597 3500 
L 2284 0 
L 1503 0 
L 191 3500 
z
" transform="scale(0.015625)"/>
       <path id="DejaVuSans-48" d="M 3597 1894 
L 3597 1613 
L 953 1613 
Q 991 1019 1311 708 
Q 1631 397 2203 397 
Q 2534 397 2845 478 
Q 3156 559 3463 722 
L 3463 178 
Q 3153 47 2828 -22 
Q 2503 -91 2169 -91 
Q 1331 -91 842 396 
Q 353 884 353 1716 
Q 353 2575 817 3079 
Q 1281 3584 2069 3584 
Q 2775 3584 3186 3129 
Q 3597 2675 3597 1894 
z
M 3022 2063 
Q 3016 2534 2758 2815 
Q 2500 3097 2075 3097 
Q 1594 3097 1305 2825 
Q 1016 2553 972 2059 
L 3022 2063 
z
" transform="scale(0.015625)"/>
       <path id="DejaVuSans-4f" d="M 603 4863 
L 1178 4863 
L 1178 0 
L 603 0 
L 603 4863 
z
" transform="scale(0.015625)"/>
       <path id="DejaVuSans-51" d="M 3513 2113 
L 3513 0 
L 2938 0 
L 2938 2094 
Q 2938 2591 2744 2837 
Q 2550 3084 2163 3084 
Q 1697 3084 1428 2787 
Q 1159 2491 1159 1978 
L 1159 0 
L 581 0 
L 581 3500 
L 1159 3500 
L 1159 2956 
Q 1366 3272 1645 3428 
Q 1925 3584 2291 3584 
Q 2894 3584 3203 3211 
Q 3513 2838 3513 2113 
z
" transform="scale(0.015625)"/>
       <path id="DejaVuSans-4a" d="M 2906 1791 
Q 2906 2416 2648 2759 
Q 2391 3103 1925 3103 
Q 1463 3103 1205 2759 
Q 947 2416 947 1791 
Q 947 1169 1205 825 
Q 1463 481 1925 481 
Q 2391 481 2648 825 
Q 2906 1169 2906 1791 
z
M 3481 434 
Q 3481 -459 3084 -895 
Q 2688 -1331 1869 -1331 
Q 1566 -1331 1297 -1286 
Q 1028 -1241 775 -1147 
L 775 -588 
Q 1028 -725 1275 -790 
Q 1522 -856 1778 -856 
Q 2344 -856 2625 -561 
Q 2906 -266 2906 331 
L 2906 616 
Q 2728 306 2450 153 
Q 2172 0 1784 0 
Q 1141 0 747 490 
Q 353 981 353 1791 
Q 353 2603 747 3093 
Q 1141 3584 1784 3584 
Q 2172 3584 2450 3431 
Q 2728 3278 2906 2969 
L 2906 3500 
L 3481 3500 
L 3481 434 
z
" transform="scale(0.015625)"/>
       <path id="DejaVuSans-57" d="M 1172 4494 
L 1172 3500 
L 2356 3500 
L 2356 3053 
L 1172 3053 
L 1172 1153 
Q 1172 725 1289 603 
Q 1406 481 1766 481 
L 2356 481 
L 2356 0 
L 1766 0 
Q 1100 0 847 248 
Q 594 497 594 1153 
L 594 3053 
L 172 3053 
L 172 3500 
L 594 3500 
L 594 4494 
L 1172 4494 
z
" transform="scale(0.015625)"/>
       <path id="DejaVuSans-4b" d="M 3513 2113 
L 3513 0 
L 2938 0 
L 2938 2094 
Q 2938 2591 2744 2837 
Q 2550 3084 2163 3084 
Q 1697 3084 1428 2787 
Q 1159 2491 1159 1978 
L 1159 0 
L 581 0 
L 581 4863 
L 1159 4863 
L 1159 2956 
Q 1366 3272 1645 3428 
Q 1925 3584 2291 3584 
Q 2894 3584 3203 3211 
Q 3513 2838 3513 2113 
z
" transform="scale(0.015625)"/>
       <path id="DejaVuSans-3" transform="scale(0.015625)"/>
       <path id="DejaVuSans-3e" d="M 550 4863 
L 1875 4863 
L 1875 4416 
L 1125 4416 
L 1125 -397 
L 1875 -397 
L 1875 -844 
L 550 -844 
L 550 4863 
z
" transform="scale(0.015625)"/>
       <path id="DejaVuSans-87" d="M 2663 5081 
Q 2663 5278 2523 5417 
Q 2384 5556 2188 5556 
Q 1988 5556 1852 5420 
Q 1716 5284 1716 5081 
Q 1716 4884 1853 4746 
Q 1991 4609 2188 4609 
Q 2384 4609 2523 4746 
Q 2663 4884 2663 5081 
z
M 2188 4044 
L 1338 1722 
L 3041 1722 
L 2188 4044 
z
M 1716 4366 
Q 1525 4494 1428 4673 
Q 1331 4853 1331 5081 
Q 1331 5441 1579 5691 
Q 1828 5941 2188 5941 
Q 2544 5941 2795 5689 
Q 3047 5438 3047 5081 
Q 3047 4863 2948 4678 
Q 2850 4494 2663 4366 
L 4325 0 
L 3669 0 
L 3244 1197 
L 1141 1197 
L 716 0 
L 50 0 
L 1716 4366 
z
" transform="scale(0.015625)"/>
       <path id="DejaVuSans-40" d="M 1947 4863 
L 1947 -844 
L 622 -844 
L 622 -397 
L 1369 -397 
L 1369 4416 
L 622 4416 
L 622 4863 
L 1947 4863 
z
" transform="scale(0.015625)"/>
      </defs>
      <use xlink:href="#DejaVuSans-5a"/>
      <use xlink:href="#DejaVuSans-44" transform="translate(81.78125 0)"/>
      <use xlink:href="#DejaVuSans-59" transform="translate(143.0625 0)"/>
      <use xlink:href="#DejaVuSans-48" transform="translate(202.25 0)"/>
      <use xlink:href="#DejaVuSans-4f" transform="translate(263.78125 0)"/>
      <use xlink:href="#DejaVuSans-48" transform="translate(291.5625 0)"/>
      <use xlink:href="#DejaVuSans-51" transform="translate(353.09375 0)"/>
      <use xlink:href="#DejaVuSans-4a" transform="translate(416.46875 0)"/>
      <use xlink:href="#DejaVuSans-57" transform="translate(479.953125 0)"/>
      <use xlink:href="#DejaVuSans-4b" transform="translate(519.15625 0)"/>
      <use xlink:href="#DejaVuSans-3" transform="translate(582.53125 0)"/>
      <use xlink:href="#DejaVuSans-3e" transform="translate(614.3125 0)"/>
      <use xlink:href="#DejaVuSans-87" transform="translate(653.328125 0)"/>
      <use xlink:href="#DejaVuSans-40" transform="translate(721.734375 0)"/>
     </g>
    </g>
   </g>
   <g id="matplotlib.axis_2">
    <g id="ytick_1">
     <g id="line2d_6">
      <defs>
       <path id="m6509798c7c" d="M 0 0 
L -3.5 0 
" style="stroke: #000000; stroke-width: 0.8"/>
      </defs>
      <g>
       <use xlink:href="#m6509798c7c" x="47.288281" y="219.370921" style="stroke: #000000; stroke-width: 0.8"/>
      </g>
     </g>
     <g id="text_7">
      <!-- 0 -->
      <g transform="translate(33.925781 223.169749) scale(0.1 -0.1)">
       <use xlink:href="#DejaVuSans-13"/>
      </g>
     </g>
    </g>
    <g id="ytick_2">
     <g id="line2d_7">
      <g>
       <use xlink:href="#m6509798c7c" x="47.288281" y="193.32441" style="stroke: #000000; stroke-width: 0.8"/>
      </g>
     </g>
     <g id="text_8">
      <!-- 50 -->
      <g transform="translate(27.563281 197.123238) scale(0.1 -0.1)">
       <defs>
        <path id="DejaVuSans-18" d="M 691 4666 
L 3169 4666 
L 3169 4134 
L 1269 4134 
L 1269 2991 
Q 1406 3038 1543 3061 
Q 1681 3084 1819 3084 
Q 2600 3084 3056 2656 
Q 3513 2228 3513 1497 
Q 3513 744 3044 326 
Q 2575 -91 1722 -91 
Q 1428 -91 1123 -41 
Q 819 9 494 109 
L 494 744 
Q 775 591 1075 516 
Q 1375 441 1709 441 
Q 2250 441 2565 725 
Q 2881 1009 2881 1497 
Q 2881 1984 2565 2268 
Q 2250 2553 1709 2553 
Q 1456 2553 1204 2497 
Q 953 2441 691 2322 
L 691 4666 
z
" transform="scale(0.015625)"/>
       </defs>
       <use xlink:href="#DejaVuSans-18"/>
       <use xlink:href="#DejaVuSans-13" transform="translate(63.625 0)"/>
      </g>
     </g>
    </g>
    <g id="ytick_3">
     <g id="line2d_8">
      <g>
       <use xlink:href="#m6509798c7c" x="47.288281" y="167.277898" style="stroke: #000000; stroke-width: 0.8"/>
      </g>
     </g>
     <g id="text_9">
      <!-- 100 -->
      <g transform="translate(21.200781 171.076726) scale(0.1 -0.1)">
       <use xlink:href="#DejaVuSans-14"/>
       <use xlink:href="#DejaVuSans-13" transform="translate(63.625 0)"/>
       <use xlink:href="#DejaVuSans-13" transform="translate(127.25 0)"/>
      </g>
     </g>
    </g>
    <g id="ytick_4">
     <g id="line2d_9">
      <g>
       <use xlink:href="#m6509798c7c" x="47.288281" y="141.231386" style="stroke: #000000; stroke-width: 0.8"/>
      </g>
     </g>
     <g id="text_10">
      <!-- 150 -->
      <g transform="translate(21.200781 145.030214) scale(0.1 -0.1)">
       <use xlink:href="#DejaVuSans-14"/>
       <use xlink:href="#DejaVuSans-18" transform="translate(63.625 0)"/>
       <use xlink:href="#DejaVuSans-13" transform="translate(127.25 0)"/>
      </g>
     </g>
    </g>
    <g id="ytick_5">
     <g id="line2d_10">
      <g>
       <use xlink:href="#m6509798c7c" x="47.288281" y="115.184875" style="stroke: #000000; stroke-width: 0.8"/>
      </g>
     </g>
     <g id="text_11">
      <!-- 200 -->
      <g transform="translate(21.200781 118.983703) scale(0.1 -0.1)">
       <use xlink:href="#DejaVuSans-15"/>
       <use xlink:href="#DejaVuSans-13" transform="translate(63.625 0)"/>
       <use xlink:href="#DejaVuSans-13" transform="translate(127.25 0)"/>
      </g>
     </g>
    </g>
    <g id="ytick_6">
     <g id="line2d_11">
      <g>
       <use xlink:href="#m6509798c7c" x="47.288281" y="89.138363" style="stroke: #000000; stroke-width: 0.8"/>
      </g>
     </g>
     <g id="text_12">
      <!-- 250 -->
      <g transform="translate(21.200781 92.937191) scale(0.1 -0.1)">
       <use xlink:href="#DejaVuSans-15"/>
       <use xlink:href="#DejaVuSans-18" transform="translate(63.625 0)"/>
       <use xlink:href="#DejaVuSans-13" transform="translate(127.25 0)"/>
      </g>
     </g>
    </g>
    <g id="ytick_7">
     <g id="line2d_12">
      <g>
       <use xlink:href="#m6509798c7c" x="47.288281" y="63.091851" style="stroke: #000000; stroke-width: 0.8"/>
      </g>
     </g>
     <g id="text_13">
      <!-- 300 -->
      <g transform="translate(21.200781 66.89068) scale(0.1 -0.1)">
       <defs>
        <path id="DejaVuSans-16" d="M 2597 2516 
Q 3050 2419 3304 2112 
Q 3559 1806 3559 1356 
Q 3559 666 3084 287 
Q 2609 -91 1734 -91 
Q 1441 -91 1130 -33 
Q 819 25 488 141 
L 488 750 
Q 750 597 1062 519 
Q 1375 441 1716 441 
Q 2309 441 2620 675 
Q 2931 909 2931 1356 
Q 2931 1769 2642 2001 
Q 2353 2234 1838 2234 
L 1294 2234 
L 1294 2753 
L 1863 2753 
Q 2328 2753 2575 2939 
Q 2822 3125 2822 3475 
Q 2822 3834 2567 4026 
Q 2313 4219 1838 4219 
Q 1578 4219 1281 4162 
Q 984 4106 628 3988 
L 628 4550 
Q 988 4650 1302 4700 
Q 1616 4750 1894 4750 
Q 2613 4750 3031 4423 
Q 3450 4097 3450 3541 
Q 3450 3153 3228 2886 
Q 3006 2619 2597 2516 
z
" transform="scale(0.015625)"/>
       </defs>
       <use xlink:href="#DejaVuSans-16"/>
       <use xlink:href="#DejaVuSans-13" transform="translate(63.625 0)"/>
       <use xlink:href="#DejaVuSans-13" transform="translate(127.25 0)"/>
      </g>
     </g>
    </g>
    <g id="ytick_8">
     <g id="line2d_13">
      <g>
       <use xlink:href="#m6509798c7c" x="47.288281" y="37.04534" style="stroke: #000000; stroke-width: 0.8"/>
      </g>
     </g>
     <g id="text_14">
      <!-- 350 -->
      <g transform="translate(21.200781 40.844168) scale(0.1 -0.1)">
       <use xlink:href="#DejaVuSans-16"/>
       <use xlink:href="#DejaVuSans-18" transform="translate(63.625 0)"/>
       <use xlink:href="#DejaVuSans-13" transform="translate(127.25 0)"/>
      </g>
     </g>
    </g>
    <g id="ytick_9">
     <g id="line2d_14">
      <g>
       <use xlink:href="#m6509798c7c" x="47.288281" y="10.998828" style="stroke: #000000; stroke-width: 0.8"/>
      </g>
     </g>
     <g id="text_15">
      <!-- 400 -->
      <g transform="translate(21.200781 14.797656) scale(0.1 -0.1)">
       <use xlink:href="#DejaVuSans-17"/>
       <use xlink:href="#DejaVuSans-13" transform="translate(63.625 0)"/>
       <use xlink:href="#DejaVuSans-13" transform="translate(127.25 0)"/>
      </g>
     </g>
    </g>
    <g id="text_16">
     <!-- [counts] -->
     <g transform="translate(14.798438 139.183421) rotate(-90) scale(0.1 -0.1)">
      <defs>
       <path id="DejaVuSans-46" d="M 3122 3366 
L 3122 2828 
Q 2878 2963 2633 3030 
Q 2388 3097 2138 3097 
Q 1578 3097 1268 2742 
Q 959 2388 959 1747 
Q 959 1106 1268 751 
Q 1578 397 2138 397 
Q 2388 397 2633 464 
Q 2878 531 3122 666 
L 3122 134 
Q 2881 22 2623 -34 
Q 2366 -91 2075 -91 
Q 1284 -91 818 406 
Q 353 903 353 1747 
Q 353 2603 823 3093 
Q 1294 3584 2113 3584 
Q 2378 3584 2631 3529 
Q 2884 3475 3122 3366 
z
" transform="scale(0.015625)"/>
       <path id="DejaVuSans-52" d="M 1959 3097 
Q 1497 3097 1228 2736 
Q 959 2375 959 1747 
Q 959 1119 1226 758 
Q 1494 397 1959 397 
Q 2419 397 2687 759 
Q 2956 1122 2956 1747 
Q 2956 2369 2687 2733 
Q 2419 3097 1959 3097 
z
M 1959 3584 
Q 2709 3584 3137 3096 
Q 3566 2609 3566 1747 
Q 3566 888 3137 398 
Q 2709 -91 1959 -91 
Q 1206 -91 779 398 
Q 353 888 353 1747 
Q 353 2609 779 3096 
Q 1206 3584 1959 3584 
z
" transform="scale(0.015625)"/>
       <path id="DejaVuSans-58" d="M 544 1381 
L 544 3500 
L 1119 3500 
L 1119 1403 
Q 1119 906 1312 657 
Q 1506 409 1894 409 
Q 2359 409 2629 706 
Q 2900 1003 2900 1516 
L 2900 3500 
L 3475 3500 
L 3475 0 
L 2900 0 
L 2900 538 
Q 2691 219 2414 64 
Q 2138 -91 1772 -91 
Q 1169 -91 856 284 
Q 544 659 544 1381 
z
M 1991 3584 
L 1991 3584 
z
" transform="scale(0.015625)"/>
       <path id="DejaVuSans-56" d="M 2834 3397 
L 2834 2853 
Q 2591 2978 2328 3040 
Q 2066 3103 1784 3103 
Q 1356 3103 1142 2972 
Q 928 2841 928 2578 
Q 928 2378 1081 2264 
Q 1234 2150 1697 2047 
L 1894 2003 
Q 2506 1872 2764 1633 
Q 3022 1394 3022 966 
Q 3022 478 2636 193 
Q 2250 -91 1575 -91 
Q 1294 -91 989 -36 
Q 684 19 347 128 
L 347 722 
Q 666 556 975 473 
Q 1284 391 1588 391 
Q 1994 391 2212 530 
Q 2431 669 2431 922 
Q 2431 1156 2273 1281 
Q 2116 1406 1581 1522 
L 1381 1569 
Q 847 1681 609 1914 
Q 372 2147 372 2553 
Q 372 3047 722 3315 
Q 1072 3584 1716 3584 
Q 2034 3584 2315 3537 
Q 2597 3491 2834 3397 
z
" transform="scale(0.015625)"/>
      </defs>
      <use xlink:href="#DejaVuSans-3e"/>
      <use xlink:href="#DejaVuSans-46" transform="translate(39.015625 0)"/>
      <use xlink:href="#DejaVuSans-52" transform="translate(94 0)"/>
      <use xlink:href="#DejaVuSans-58" transform="translate(155.1875 0)"/>
      <use xlink:href="#DejaVuSans-51" transform="translate(218.5625 0)"/>
      <use xlink:href="#DejaVuSans-57" transform="translate(281.9375 0)"/>
      <use xlink:href="#DejaVuSans-56" transform="translate(321.140625 0)"/>
      <use xlink:href="#DejaVuSans-40" transform="translate(373.234375 0)"/>
     </g>
    </g>
   </g>
   <g id="line2d_15">
    <path d="M 62.506463 219.370921 
L 69.354645 219.370921 
L 69.354645 152.691851 
L 70.115554 152.691851 
L 70.115554 148.52441 
L 70.876463 148.52441 
L 70.876463 136.022084 
L 71.637372 136.022084 
L 71.637372 126.64534 
L 72.398281 126.64534 
L 72.398281 119.352316 
L 73.15919 119.352316 
L 73.15919 135.501154 
L 73.920099 135.501154 
L 73.920099 122.998828 
L 74.681009 122.998828 
L 74.681009 124.040689 
L 75.441918 124.040689 
L 75.441918 129.249991 
L 76.202827 129.249991 
L 76.202827 121.956968 
L 76.963736 121.956968 
L 76.963736 127.6872 
L 77.724645 127.6872 
L 77.724645 129.249991 
L 78.485554 129.249991 
L 78.485554 128.729061 
L 79.246463 128.729061 
L 79.246463 112.059293 
L 80.007372 112.059293 
L 80.007372 118.831386 
L 80.768281 118.831386 
L 80.768281 117.268596 
L 81.52919 117.268596 
L 81.52919 116.747665 
L 82.290099 116.747665 
L 82.290099 116.226735 
L 83.051009 116.226735 
L 83.051009 131.333712 
L 83.811918 131.333712 
L 83.811918 122.998828 
L 84.572827 122.998828 
L 84.572827 120.915107 
L 85.333736 120.915107 
L 85.333736 102.161619 
L 86.094645 102.161619 
L 86.094645 133.417433 
L 86.855554 133.417433 
L 86.855554 113.101154 
L 87.616463 113.101154 
L 87.616463 120.915107 
L 88.377372 120.915107 
L 88.377372 128.729061 
L 89.138281 128.729061 
L 89.138281 135.501154 
L 89.89919 135.501154 
L 89.89919 125.082549 
L 90.660099 125.082549 
L 90.660099 118.831386 
L 92.181918 118.831386 
L 92.181918 112.580223 
L 92.942827 112.580223 
L 92.942827 123.519758 
L 93.703736 123.519758 
L 93.703736 118.310456 
L 94.464645 118.310456 
L 94.464645 121.956968 
L 95.225554 121.956968 
L 95.225554 135.501154 
L 97.508281 135.501154 
L 97.508281 128.729061 
L 98.26919 128.729061 
L 98.26919 129.249991 
L 99.030099 129.249991 
L 99.030099 107.370921 
L 99.791009 107.370921 
L 99.791009 117.268596 
L 101.312827 117.268596 
L 101.312827 111.538363 
L 102.073736 111.538363 
L 102.073736 124.561619 
L 102.834645 124.561619 
L 102.834645 113.101154 
L 103.595554 113.101154 
L 103.595554 111.538363 
L 105.117372 111.538363 
L 105.117372 119.873247 
L 105.878281 119.873247 
L 105.878281 113.101154 
L 107.400099 113.101154 
L 107.400099 107.370921 
L 108.161009 107.370921 
L 108.161009 96.431386 
L 108.921918 96.431386 
L 108.921918 108.933712 
L 109.682827 108.933712 
L 109.682827 84.449991 
L 110.443736 84.449991 
L 110.443736 89.659293 
L 111.204645 89.659293 
L 111.204645 98.515107 
L 111.965554 98.515107 
L 111.965554 93.826735 
L 112.726463 93.826735 
L 112.726463 86.533712 
L 113.487372 86.533712 
L 113.487372 97.473247 
L 114.248281 97.473247 
L 114.248281 92.784875 
L 115.00919 92.784875 
L 115.00919 84.449991 
L 115.770099 84.449991 
L 115.770099 106.849991 
L 116.531009 106.849991 
L 116.531009 98.515107 
L 117.291918 98.515107 
L 117.291918 93.305805 
L 118.052827 93.305805 
L 118.052827 105.2872 
L 118.813736 105.2872 
L 118.813736 104.76627 
L 119.574645 104.76627 
L 119.574645 18.291851 
L 120.335554 18.291851 
L 120.335554 36.003479 
L 121.096463 36.003479 
L 121.096463 38.0872 
L 121.857372 38.0872 
L 121.857372 24.543014 
L 122.618281 24.543014 
L 122.618281 19.333712 
L 123.37919 19.333712 
L 123.37919 27.147665 
L 124.140099 27.147665 
L 124.140099 21.417433 
L 124.901009 21.417433 
L 124.901009 39.649991 
L 125.661918 39.649991 
L 125.661918 40.691851 
L 126.422827 40.691851 
L 126.422827 31.836037 
L 127.183736 31.836037 
L 127.183736 24.022084 
L 127.944645 24.022084 
L 127.944645 48.505805 
L 128.705554 48.505805 
L 128.705554 38.60813 
L 129.466463 38.60813 
L 129.466463 59.44534 
L 130.227372 59.44534 
L 130.227372 49.547665 
L 130.988281 49.547665 
L 130.988281 53.715107 
L 131.74919 53.715107 
L 131.74919 58.92441 
L 132.510099 58.92441 
L 132.510099 55.277898 
L 133.271009 55.277898 
L 133.271009 59.44534 
L 134.031918 59.44534 
L 134.031918 68.822084 
L 134.792827 68.822084 
L 134.792827 70.384875 
L 135.553736 70.384875 
L 135.553736 71.947665 
L 136.314645 71.947665 
L 136.314645 55.798828 
L 137.836463 55.798828 
L 137.836463 64.133712 
L 138.597372 64.133712 
L 138.597372 80.803479 
L 139.358281 80.803479 
L 139.358281 54.756968 
L 140.11919 54.756968 
L 140.11919 75.073247 
L 140.880099 75.073247 
L 140.880099 88.096503 
L 141.641009 88.096503 
L 141.641009 73.510456 
L 142.401918 73.510456 
L 142.401918 75.073247 
L 143.162827 75.073247 
L 143.162827 90.180223 
L 143.923736 90.180223 
L 143.923736 89.659293 
L 144.684645 89.659293 
L 144.684645 84.449991 
L 145.445554 84.449991 
L 145.445554 77.677898 
L 146.206463 77.677898 
L 146.206463 83.929061 
L 146.967372 83.929061 
L 146.967372 73.510456 
L 147.728281 73.510456 
L 147.728281 70.905805 
L 148.48919 70.905805 
L 148.48919 77.677898 
L 149.250099 77.677898 
L 149.250099 76.115107 
L 150.011009 76.115107 
L 150.011009 79.761619 
L 150.771918 79.761619 
L 150.771918 93.826735 
L 151.532827 93.826735 
L 151.532827 94.347665 
L 152.293736 94.347665 
L 152.293736 111.538363 
L 153.054645 111.538363 
L 153.054645 96.952316 
L 153.815554 96.952316 
L 153.815554 99.556968 
L 154.576463 99.556968 
L 154.576463 105.2872 
L 155.337372 105.2872 
L 155.337372 101.119758 
L 156.098281 101.119758 
L 156.098281 98.515107 
L 156.85919 98.515107 
L 156.85919 103.72441 
L 157.620099 103.72441 
L 157.620099 105.2872 
L 158.381009 105.2872 
L 158.381009 111.538363 
L 159.141918 111.538363 
L 159.141918 119.352316 
L 159.902827 119.352316 
L 159.902827 118.831386 
L 160.663736 118.831386 
L 160.663736 132.375572 
L 161.424645 132.375572 
L 161.424645 126.64534 
L 162.185554 126.64534 
L 162.185554 122.998828 
L 162.946463 122.998828 
L 162.946463 133.417433 
L 163.707372 133.417433 
L 163.707372 140.189526 
L 164.468281 140.189526 
L 164.468281 148.003479 
L 165.22919 148.003479 
L 165.22919 141.231386 
L 165.990099 141.231386 
L 165.990099 146.961619 
L 166.751009 146.961619 
L 166.751009 144.877898 
L 168.272827 144.877898 
L 168.272827 82.8872 
L 169.033736 82.8872 
L 169.033736 88.617433 
L 169.794645 88.617433 
L 169.794645 127.6872 
L 170.555554 127.6872 
L 170.555554 128.20813 
L 171.316463 128.20813 
L 171.316463 121.956968 
L 172.077372 121.956968 
L 172.077372 137.584875 
L 172.838281 137.584875 
L 172.838281 123.519758 
L 173.59919 123.519758 
L 173.59919 120.394177 
L 174.360099 120.394177 
L 174.360099 128.729061 
L 175.121009 128.729061 
L 175.121009 125.082549 
L 175.881918 125.082549 
L 175.881918 127.16627 
L 176.642827 127.16627 
L 176.642827 132.375572 
L 177.403736 132.375572 
L 177.403736 143.315107 
L 178.164645 143.315107 
L 178.164645 124.561619 
L 178.925554 124.561619 
L 178.925554 128.20813 
L 179.686463 128.20813 
L 179.686463 134.459293 
L 180.447372 134.459293 
L 180.447372 136.543014 
L 181.208281 136.543014 
L 181.208281 142.794177 
L 181.96919 142.794177 
L 181.96919 138.105805 
L 182.730099 138.105805 
L 182.730099 131.854642 
L 183.491009 131.854642 
L 183.491009 140.189526 
L 184.251918 140.189526 
L 184.251918 143.836037 
L 185.012827 143.836037 
L 185.012827 142.273247 
L 185.773736 142.273247 
L 185.773736 148.52441 
L 186.534645 148.52441 
L 186.534645 144.356968 
L 187.295554 144.356968 
L 187.295554 143.836037 
L 188.056463 143.836037 
L 188.056463 142.273247 
L 188.817372 142.273247 
L 188.817372 148.003479 
L 190.33919 148.003479 
L 190.33919 149.04534 
L 191.100099 149.04534 
L 191.100099 150.0872 
L 191.861009 150.0872 
L 191.861009 156.338363 
L 192.621918 156.338363 
L 192.621918 140.710456 
L 193.382827 140.710456 
L 193.382827 150.60813 
L 194.143736 150.60813 
L 194.143736 152.691851 
L 194.904645 152.691851 
L 194.904645 157.380223 
L 195.665554 157.380223 
L 195.665554 149.56627 
L 196.426463 149.56627 
L 196.426463 153.733712 
L 197.187372 153.733712 
L 197.187372 146.961619 
L 197.948281 146.961619 
L 197.948281 157.901154 
L 198.70919 157.901154 
L 198.70919 154.775572 
L 199.470099 154.775572 
L 199.470099 156.338363 
L 200.231009 156.338363 
L 200.231009 169.361619 
L 200.991918 169.361619 
L 200.991918 167.277898 
L 201.752827 167.277898 
L 201.752827 158.943014 
L 202.513736 158.943014 
L 202.513736 166.756968 
L 203.274645 166.756968 
L 203.274645 161.547665 
L 204.035554 161.547665 
L 204.035554 161.026735 
L 204.796463 161.026735 
L 204.796463 152.691851 
L 205.557372 152.691851 
L 205.557372 165.715107 
L 206.318281 165.715107 
L 206.318281 162.068596 
L 207.07919 162.068596 
L 207.07919 165.194177 
L 207.840099 165.194177 
L 207.840099 166.236037 
L 208.601009 166.236037 
L 208.601009 161.026735 
L 209.361918 161.026735 
L 209.361918 177.696503 
L 210.122827 177.696503 
L 210.122827 178.217433 
L 210.883736 178.217433 
L 210.883736 177.696503 
L 211.644645 177.696503 
L 211.644645 178.738363 
L 212.405554 178.738363 
L 212.405554 171.44534 
L 213.166463 171.44534 
L 213.166463 174.570921 
L 213.927372 174.570921 
L 213.927372 187.073247 
L 214.688281 187.073247 
L 214.688281 183.947665 
L 215.44919 183.947665 
L 215.44919 207.389526 
L 216.210099 207.389526 
L 216.210099 174.570921 
L 216.971009 174.570921 
L 216.971009 170.92441 
L 217.731918 170.92441 
L 217.731918 173.529061 
L 218.492827 173.529061 
L 218.492827 179.780223 
L 219.253736 179.780223 
L 219.253736 185.510456 
L 220.014645 185.510456 
L 220.014645 178.217433 
L 220.775554 178.217433 
L 220.775554 175.091851 
L 221.536463 175.091851 
L 221.536463 170.92441 
L 222.297372 170.92441 
L 222.297372 181.863944 
L 223.058281 181.863944 
L 223.058281 173.529061 
L 223.81919 173.529061 
L 223.81919 177.175572 
L 224.580099 177.175572 
L 224.580099 175.091851 
L 225.341009 175.091851 
L 225.341009 184.468596 
L 226.101918 184.468596 
L 226.101918 180.822084 
L 226.862827 180.822084 
L 226.862827 177.175572 
L 227.623736 177.175572 
L 227.623736 178.217433 
L 228.384645 178.217433 
L 228.384645 178.738363 
L 229.145554 178.738363 
L 229.145554 181.343014 
L 229.906463 181.343014 
L 229.906463 180.301154 
L 230.667372 180.301154 
L 230.667372 179.780223 
L 231.428281 179.780223 
L 231.428281 184.468596 
L 232.18919 184.468596 
L 232.18919 177.175572 
L 232.950099 177.175572 
L 232.950099 184.468596 
L 233.711009 184.468596 
L 233.711009 180.822084 
L 234.471918 180.822084 
L 234.471918 185.510456 
L 235.232827 185.510456 
L 235.232827 174.049991 
L 235.993736 174.049991 
L 235.993736 181.343014 
L 236.754645 181.343014 
L 236.754645 176.133712 
L 237.515554 176.133712 
L 237.515554 178.217433 
L 239.037372 178.217433 
L 239.037372 184.468596 
L 239.798281 184.468596 
L 239.798281 177.696503 
L 240.55919 177.696503 
L 240.55919 186.552316 
L 241.320099 186.552316 
L 241.320099 176.133712 
L 242.081009 176.133712 
L 242.081009 182.384875 
L 242.841918 182.384875 
L 242.841918 179.780223 
L 243.602827 179.780223 
L 243.602827 190.719758 
L 244.363736 190.719758 
L 244.363736 183.426735 
L 245.124645 183.426735 
L 245.124645 178.738363 
L 245.885554 178.738363 
L 245.885554 188.115107 
L 246.646463 188.115107 
L 246.646463 194.36627 
L 247.407372 194.36627 
L 247.407372 184.989526 
L 248.168281 184.989526 
L 248.168281 183.947665 
L 248.92919 183.947665 
L 248.92919 184.468596 
L 249.690099 184.468596 
L 249.690099 193.32441 
L 250.451009 193.32441 
L 250.451009 189.677898 
L 251.211918 189.677898 
L 251.211918 198.533712 
L 251.972827 198.533712 
L 251.972827 190.198828 
L 252.733736 190.198828 
L 252.733736 196.970921 
L 254.255554 196.970921 
L 254.255554 192.803479 
L 255.016463 192.803479 
L 255.016463 194.8872 
L 257.29919 194.8872 
L 257.29919 200.617433 
L 258.060099 200.617433 
L 258.060099 198.012782 
L 258.821009 198.012782 
L 258.821009 203.222084 
L 259.581918 203.222084 
L 259.581918 213.640689 
L 260.342827 213.640689 
L 260.342827 217.80813 
L 261.103736 217.80813 
L 261.103736 215.72441 
L 261.864645 215.72441 
L 261.864645 197.491851 
L 262.625554 197.491851 
L 262.625554 193.32441 
L 263.386463 193.32441 
L 263.386463 196.449991 
L 264.147372 196.449991 
L 264.147372 187.594177 
L 264.908281 187.594177 
L 264.908281 199.054642 
L 265.66919 199.054642 
L 265.66919 193.84534 
L 266.430099 193.84534 
L 266.430099 197.491851 
L 267.191009 197.491851 
L 267.191009 191.240689 
L 267.951918 191.240689 
L 267.951918 194.36627 
L 268.712827 194.36627 
L 268.712827 191.240689 
L 269.473736 191.240689 
L 269.473736 193.84534 
L 270.234645 193.84534 
L 270.234645 194.8872 
L 270.995554 194.8872 
L 270.995554 199.575572 
L 271.756463 199.575572 
L 271.756463 196.970921 
L 272.517372 196.970921 
L 272.517372 198.012782 
L 273.278281 198.012782 
L 273.278281 199.575572 
L 274.03919 199.575572 
L 274.03919 193.84534 
L 274.800099 193.84534 
L 274.800099 203.222084 
L 275.561009 203.222084 
L 275.561009 191.240689 
L 276.321918 191.240689 
L 276.321918 203.222084 
L 277.082827 203.222084 
L 277.082827 194.8872 
L 277.843736 194.8872 
L 277.843736 197.491851 
L 278.604645 197.491851 
L 278.604645 200.096503 
L 279.365554 200.096503 
L 279.365554 189.677898 
L 280.126463 189.677898 
L 280.126463 196.970921 
L 280.887372 196.970921 
L 280.887372 201.138363 
L 281.648281 201.138363 
L 281.648281 201.659293 
L 282.40919 201.659293 
L 282.40919 198.533712 
L 283.931009 198.533712 
L 283.931009 191.240689 
L 284.691918 191.240689 
L 284.691918 201.659293 
L 285.452827 201.659293 
L 285.452827 195.929061 
L 286.213736 195.929061 
L 286.213736 199.575572 
L 286.974645 199.575572 
L 286.974645 201.138363 
L 287.735554 201.138363 
L 287.735554 200.617433 
L 288.496463 200.617433 
L 288.496463 202.701154 
L 290.018281 202.701154 
L 290.018281 193.84534 
L 290.77919 193.84534 
L 290.77919 195.40813 
L 291.540099 195.40813 
L 291.540099 200.617433 
L 292.301009 200.617433 
L 292.301009 200.096503 
L 293.061918 200.096503 
L 293.061918 196.449991 
L 293.822827 196.449991 
L 293.822827 199.054642 
L 294.583736 199.054642 
L 294.583736 207.910456 
L 295.344645 207.910456 
L 295.344645 201.659293 
L 296.105554 201.659293 
L 296.105554 203.743014 
L 296.866463 203.743014 
L 296.866463 207.389526 
L 297.627372 207.389526 
L 297.627372 206.868596 
L 298.388281 206.868596 
L 298.388281 203.743014 
L 299.14919 203.743014 
L 299.14919 205.305805 
L 299.910099 205.305805 
L 299.910099 206.868596 
L 300.671009 206.868596 
L 300.671009 205.826735 
L 301.431918 205.826735 
L 301.431918 216.24534 
L 302.192827 216.24534 
L 302.192827 217.80813 
L 302.953736 217.80813 
L 302.953736 218.329061 
L 303.714645 218.329061 
L 303.714645 219.370921 
L 305.236463 219.370921 
L 305.236463 205.305805 
L 305.997372 205.305805 
L 305.997372 200.096503 
L 306.758281 200.096503 
L 306.758281 203.743014 
L 307.51919 203.743014 
L 307.51919 209.473247 
L 308.280099 209.473247 
L 308.280099 206.868596 
L 309.041009 206.868596 
L 309.041009 204.263944 
L 309.801918 204.263944 
L 309.801918 208.952316 
L 310.562827 208.952316 
L 310.562827 206.868596 
L 311.323736 206.868596 
L 311.323736 208.952316 
L 312.084645 208.952316 
L 312.084645 205.305805 
L 312.845554 205.305805 
L 312.845554 207.910456 
L 313.606463 207.910456 
L 313.606463 205.305805 
L 314.367372 205.305805 
L 314.367372 201.659293 
L 315.128281 201.659293 
L 315.128281 207.389526 
L 315.88919 207.389526 
L 315.88919 206.868596 
L 316.650099 206.868596 
L 316.650099 206.347665 
L 317.411009 206.347665 
L 317.411009 207.389526 
L 318.171918 207.389526 
L 318.171918 206.868596 
L 318.932827 206.868596 
L 318.932827 208.431386 
L 319.693736 208.431386 
L 319.693736 206.347665 
L 320.454645 206.347665 
L 320.454645 209.473247 
L 321.215554 209.473247 
L 321.215554 205.305805 
L 321.976463 205.305805 
L 321.976463 204.784875 
L 322.737372 204.784875 
L 322.737372 200.617433 
L 323.498281 200.617433 
L 323.498281 206.347665 
L 324.25919 206.347665 
L 324.25919 202.701154 
L 325.020099 202.701154 
L 325.020099 208.431386 
L 325.781009 208.431386 
L 325.781009 207.910456 
L 326.541918 207.910456 
L 326.541918 209.994177 
L 327.302827 209.994177 
L 327.302827 207.910456 
L 328.063736 207.910456 
L 328.063736 202.701154 
L 328.824645 202.701154 
L 328.824645 202.180223 
L 329.585554 202.180223 
L 329.585554 205.826735 
L 330.346463 205.826735 
L 330.346463 209.994177 
L 331.107372 209.994177 
L 331.107372 206.868596 
L 331.868281 206.868596 
L 331.868281 207.389526 
L 332.62919 207.389526 
L 332.62919 209.994177 
L 333.390099 209.994177 
L 333.390099 206.868596 
L 334.151009 206.868596 
L 334.151009 207.389526 
L 334.911918 207.389526 
L 334.911918 208.431386 
L 335.672827 208.431386 
L 335.672827 211.036037 
L 336.433736 211.036037 
L 336.433736 207.389526 
L 337.194645 207.389526 
L 337.194645 208.431386 
L 337.955554 208.431386 
L 337.955554 210.515107 
L 338.716463 210.515107 
L 338.716463 209.994177 
L 339.477372 209.994177 
L 339.477372 208.431386 
L 340.238281 208.431386 
L 340.238281 208.952316 
L 340.99919 208.952316 
L 340.99919 209.994177 
L 341.760099 209.994177 
L 341.760099 205.826735 
L 342.521009 205.826735 
L 342.521009 213.640689 
L 343.281918 213.640689 
L 343.281918 215.203479 
L 344.042827 215.203479 
L 344.042827 211.556968 
L 344.803736 211.556968 
L 344.803736 213.640689 
L 345.564645 213.640689 
L 345.564645 217.80813 
L 346.325554 217.80813 
L 346.325554 217.2872 
L 347.086463 217.2872 
L 347.086463 218.329061 
L 347.847372 218.329061 
L 347.847372 219.370921 
L 366.870099 219.370921 
L 366.870099 219.370921 
" clip-path="url(#pc50bb2856b)" style="fill: none; stroke: #1f77b4; stroke-width: 1.5; stroke-linecap: square"/>
   </g>
   <g id="line2d_16">
    <path d="M 62.506463 219.370921 
L 68.593736 219.370921 
L 68.593736 192.803479 
L 69.354645 192.803479 
L 69.354645 146.961619 
L 70.115554 146.961619 
L 70.115554 145.919758 
L 70.876463 145.919758 
L 70.876463 135.501154 
L 71.637372 135.501154 
L 71.637372 132.375572 
L 72.398281 132.375572 
L 72.398281 119.873247 
L 73.15919 119.873247 
L 73.15919 132.896503 
L 73.920099 132.896503 
L 73.920099 121.956968 
L 74.681009 121.956968 
L 74.681009 120.915107 
L 75.441918 120.915107 
L 75.441918 127.6872 
L 76.963736 127.6872 
L 76.963736 127.16627 
L 77.724645 127.16627 
L 77.724645 128.729061 
L 79.246463 128.729061 
L 79.246463 106.849991 
L 80.007372 106.849991 
L 80.007372 119.352316 
L 83.051009 119.352316 
L 83.051009 123.519758 
L 83.811918 123.519758 
L 83.811918 125.603479 
L 84.572827 125.603479 
L 84.572827 119.352316 
L 85.333736 119.352316 
L 85.333736 105.80813 
L 86.094645 105.80813 
L 86.094645 131.854642 
L 86.855554 131.854642 
L 86.855554 114.143014 
L 87.616463 114.143014 
L 87.616463 123.519758 
L 89.138281 123.519758 
L 89.138281 137.063944 
L 89.89919 137.063944 
L 89.89919 124.561619 
L 90.660099 124.561619 
L 90.660099 121.436037 
L 91.421009 121.436037 
L 91.421009 120.394177 
L 92.181918 120.394177 
L 92.181918 112.059293 
L 92.942827 112.059293 
L 92.942827 117.268596 
L 93.703736 117.268596 
L 93.703736 116.226735 
L 94.464645 116.226735 
L 94.464645 127.16627 
L 95.225554 127.16627 
L 95.225554 139.668596 
L 95.986463 139.668596 
L 95.986463 131.333712 
L 96.747372 131.333712 
L 96.747372 134.459293 
L 97.508281 134.459293 
L 97.508281 131.854642 
L 98.26919 131.854642 
L 98.26919 126.64534 
L 99.030099 126.64534 
L 99.030099 106.329061 
L 99.791009 106.329061 
L 99.791009 118.831386 
L 101.312827 118.831386 
L 101.312827 106.849991 
L 102.073736 106.849991 
L 102.073736 127.6872 
L 102.834645 127.6872 
L 102.834645 114.663944 
L 103.595554 114.663944 
L 103.595554 112.059293 
L 104.356463 112.059293 
L 104.356463 111.538363 
L 105.117372 111.538363 
L 105.117372 123.519758 
L 105.878281 123.519758 
L 105.878281 111.017433 
L 106.63919 111.017433 
L 106.63919 104.76627 
L 107.400099 104.76627 
L 107.400099 115.184875 
L 108.161009 115.184875 
L 108.161009 92.263944 
L 108.921918 92.263944 
L 108.921918 109.454642 
L 109.682827 109.454642 
L 109.682827 83.929061 
L 110.443736 83.929061 
L 110.443736 94.868596 
L 111.204645 94.868596 
L 111.204645 98.515107 
L 111.965554 98.515107 
L 111.965554 89.138363 
L 112.726463 89.138363 
L 112.726463 94.347665 
L 113.487372 94.347665 
L 113.487372 89.138363 
L 114.248281 89.138363 
L 114.248281 100.077898 
L 115.00919 100.077898 
L 115.00919 80.803479 
L 115.770099 80.803479 
L 115.770099 102.682549 
L 116.531009 102.682549 
L 116.531009 98.515107 
L 117.291918 98.515107 
L 117.291918 91.743014 
L 118.052827 91.743014 
L 118.052827 106.329061 
L 118.813736 106.329061 
L 118.813736 100.077898 
L 119.574645 100.077898 
L 119.574645 18.291851 
L 120.335554 18.291851 
L 120.335554 38.60813 
L 121.096463 38.60813 
L 121.096463 30.794177 
L 121.857372 30.794177 
L 121.857372 27.147665 
L 122.618281 27.147665 
L 122.618281 25.063944 
L 123.37919 25.063944 
L 123.37919 17.770921 
L 124.140099 17.770921 
L 124.140099 22.459293 
L 124.901009 22.459293 
L 124.901009 34.440689 
L 125.661918 34.440689 
L 125.661918 47.463944 
L 126.422827 47.463944 
L 126.422827 28.189526 
L 127.183736 28.189526 
L 127.183736 21.938363 
L 127.944645 21.938363 
L 127.944645 55.277898 
L 128.705554 55.277898 
L 128.705554 42.775572 
L 129.466463 42.775572 
L 129.466463 57.882549 
L 130.227372 57.882549 
L 130.227372 44.338363 
L 130.988281 44.338363 
L 130.988281 59.96627 
L 131.74919 59.96627 
L 131.74919 54.236037 
L 132.510099 54.236037 
L 132.510099 55.277898 
L 133.271009 55.277898 
L 133.271009 57.882549 
L 134.031918 57.882549 
L 134.031918 66.738363 
L 134.792827 66.738363 
L 134.792827 76.636037 
L 135.553736 76.636037 
L 135.553736 71.426735 
L 136.314645 71.426735 
L 136.314645 47.463944 
L 137.075554 47.463944 
L 137.075554 62.049991 
L 137.836463 62.049991 
L 137.836463 69.343014 
L 138.597372 69.343014 
L 138.597372 77.677898 
L 139.358281 77.677898 
L 139.358281 52.673247 
L 140.11919 52.673247 
L 140.11919 77.156968 
L 140.880099 77.156968 
L 140.880099 85.491851 
L 141.641009 85.491851 
L 141.641009 73.510456 
L 142.401918 73.510456 
L 142.401918 76.636037 
L 143.162827 76.636037 
L 143.162827 97.473247 
L 143.923736 97.473247 
L 143.923736 83.929061 
L 144.684645 83.929061 
L 144.684645 78.198828 
L 145.445554 78.198828 
L 145.445554 83.929061 
L 146.206463 83.929061 
L 146.206463 87.575572 
L 146.967372 87.575572 
L 146.967372 69.343014 
L 147.728281 69.343014 
L 147.728281 67.780223 
L 148.48919 67.780223 
L 148.48919 86.533712 
L 149.250099 86.533712 
L 149.250099 70.905805 
L 150.011009 70.905805 
L 150.011009 76.115107 
L 150.771918 76.115107 
L 150.771918 93.826735 
L 151.532827 93.826735 
L 151.532827 97.994177 
L 152.293736 97.994177 
L 152.293736 107.891851 
L 153.054645 107.891851 
L 153.054645 96.431386 
L 153.815554 96.431386 
L 153.815554 104.24534 
L 154.576463 104.24534 
L 154.576463 99.556968 
L 155.337372 99.556968 
L 155.337372 97.994177 
L 156.098281 97.994177 
L 156.098281 107.891851 
L 156.85919 107.891851 
L 156.85919 96.431386 
L 157.620099 96.431386 
L 157.620099 101.119758 
L 158.381009 101.119758 
L 158.381009 122.477898 
L 159.141918 122.477898 
L 159.141918 120.915107 
L 159.902827 120.915107 
L 159.902827 109.975572 
L 160.663736 109.975572 
L 160.663736 134.459293 
L 161.424645 134.459293 
L 161.424645 122.998828 
L 162.185554 122.998828 
L 162.185554 124.561619 
L 162.946463 124.561619 
L 162.946463 134.459293 
L 163.707372 134.459293 
L 163.707372 142.794177 
L 164.468281 142.794177 
L 164.468281 145.398828 
L 165.22919 145.398828 
L 165.22919 143.315107 
L 165.990099 143.315107 
L 165.990099 146.440689 
L 166.751009 146.440689 
L 166.751009 144.356968 
L 167.511918 144.356968 
L 167.511918 139.668596 
L 168.272827 139.668596 
L 168.272827 83.929061 
L 169.033736 83.929061 
L 169.033736 82.8872 
L 169.794645 82.8872 
L 169.794645 120.915107 
L 170.555554 120.915107 
L 170.555554 127.6872 
L 171.316463 127.6872 
L 171.316463 124.040689 
L 172.077372 124.040689 
L 172.077372 131.854642 
L 172.838281 131.854642 
L 172.838281 130.812782 
L 173.59919 130.812782 
L 173.59919 127.6872 
L 174.360099 127.6872 
L 174.360099 118.310456 
L 175.121009 118.310456 
L 175.121009 126.12441 
L 175.881918 126.12441 
L 175.881918 124.561619 
L 176.642827 124.561619 
L 176.642827 132.896503 
L 177.403736 132.896503 
L 177.403736 142.794177 
L 178.164645 142.794177 
L 178.164645 131.333712 
L 178.925554 131.333712 
L 178.925554 124.561619 
L 179.686463 124.561619 
L 179.686463 134.459293 
L 180.447372 134.459293 
L 180.447372 141.231386 
L 181.208281 141.231386 
L 181.208281 136.022084 
L 181.96919 136.022084 
L 181.96919 139.147665 
L 182.730099 139.147665 
L 182.730099 131.333712 
L 183.491009 131.333712 
L 183.491009 138.105805 
L 184.251918 138.105805 
L 184.251918 142.794177 
L 185.012827 142.794177 
L 185.012827 142.273247 
L 185.773736 142.273247 
L 185.773736 152.691851 
L 186.534645 152.691851 
L 186.534645 146.961619 
L 187.295554 146.961619 
L 187.295554 142.273247 
L 188.056463 142.273247 
L 188.056463 143.315107 
L 188.817372 143.315107 
L 188.817372 151.129061 
L 189.578281 151.129061 
L 189.578281 143.315107 
L 190.33919 143.315107 
L 190.33919 146.961619 
L 191.100099 146.961619 
L 191.100099 151.649991 
L 191.861009 151.649991 
L 191.861009 154.775572 
L 192.621918 154.775572 
L 192.621918 142.794177 
L 193.382827 142.794177 
L 193.382827 149.04534 
L 194.143736 149.04534 
L 194.143736 153.212782 
L 194.904645 153.212782 
L 194.904645 162.068596 
L 195.665554 162.068596 
L 195.665554 144.877898 
L 196.426463 144.877898 
L 196.426463 154.775572 
L 197.187372 154.775572 
L 197.187372 148.52441 
L 197.948281 148.52441 
L 197.948281 154.254642 
L 198.70919 154.254642 
L 198.70919 152.691851 
L 199.470099 152.691851 
L 199.470099 162.589526 
L 200.231009 162.589526 
L 200.231009 167.798828 
L 200.991918 167.798828 
L 200.991918 167.277898 
L 201.752827 167.277898 
L 201.752827 158.943014 
L 202.513736 158.943014 
L 202.513736 163.631386 
L 203.274645 163.631386 
L 203.274645 159.463944 
L 204.035554 159.463944 
L 204.035554 161.547665 
L 204.796463 161.547665 
L 204.796463 155.296503 
L 205.557372 155.296503 
L 205.557372 162.589526 
L 206.318281 162.589526 
L 206.318281 167.277898 
L 207.07919 167.277898 
L 207.07919 159.463944 
L 207.840099 159.463944 
L 207.840099 168.319758 
L 208.601009 168.319758 
L 208.601009 164.673247 
L 209.361918 164.673247 
L 209.361918 177.175572 
L 210.122827 177.175572 
L 210.122827 172.4872 
L 210.883736 172.4872 
L 210.883736 181.863944 
L 211.644645 181.863944 
L 211.644645 177.175572 
L 212.405554 177.175572 
L 212.405554 170.92441 
L 213.166463 170.92441 
L 213.166463 173.529061 
L 213.927372 173.529061 
L 213.927372 186.552316 
L 214.688281 186.552316 
L 214.688281 185.510456 
L 215.44919 185.510456 
L 215.44919 189.677898 
L 216.210099 189.677898 
L 216.210099 185.510456 
L 216.971009 185.510456 
L 216.971009 164.673247 
L 217.731918 164.673247 
L 217.731918 178.738363 
L 218.492827 178.738363 
L 218.492827 180.822084 
L 219.253736 180.822084 
L 219.253736 183.426735 
L 220.014645 183.426735 
L 220.014645 176.654642 
L 220.775554 176.654642 
L 220.775554 173.00813 
L 221.536463 173.00813 
L 221.536463 168.319758 
L 222.297372 168.319758 
L 222.297372 183.947665 
L 223.058281 183.947665 
L 223.058281 173.00813 
L 223.81919 173.00813 
L 223.81919 175.612782 
L 224.580099 175.612782 
L 224.580099 179.259293 
L 225.341009 179.259293 
L 225.341009 181.343014 
L 226.101918 181.343014 
L 226.101918 179.780223 
L 226.862827 179.780223 
L 226.862827 180.822084 
L 227.623736 180.822084 
L 227.623736 174.570921 
L 228.384645 174.570921 
L 228.384645 182.384875 
L 229.145554 182.384875 
L 229.145554 182.905805 
L 229.906463 182.905805 
L 229.906463 177.696503 
L 230.667372 177.696503 
L 230.667372 179.259293 
L 231.428281 179.259293 
L 231.428281 183.426735 
L 232.18919 183.426735 
L 232.18919 176.133712 
L 232.950099 176.133712 
L 232.950099 188.636037 
L 233.711009 188.636037 
L 233.711009 180.822084 
L 234.471918 180.822084 
L 234.471918 178.738363 
L 235.232827 178.738363 
L 235.232827 181.863944 
L 235.993736 181.863944 
L 235.993736 174.570921 
L 236.754645 174.570921 
L 236.754645 174.049991 
L 237.515554 174.049991 
L 237.515554 188.115107 
L 238.276463 188.115107 
L 238.276463 181.863944 
L 239.037372 181.863944 
L 239.037372 177.175572 
L 239.798281 177.175572 
L 239.798281 177.696503 
L 240.55919 177.696503 
L 240.55919 183.426735 
L 241.320099 183.426735 
L 241.320099 182.384875 
L 242.081009 182.384875 
L 242.081009 179.259293 
L 242.841918 179.259293 
L 242.841918 176.654642 
L 243.602827 176.654642 
L 243.602827 190.198828 
L 244.363736 190.198828 
L 244.363736 181.343014 
L 245.124645 181.343014 
L 245.124645 187.073247 
L 245.885554 187.073247 
L 245.885554 189.156968 
L 246.646463 189.156968 
L 246.646463 187.073247 
L 247.407372 187.073247 
L 247.407372 189.677898 
L 248.168281 189.677898 
L 248.168281 184.468596 
L 248.92919 184.468596 
L 248.92919 183.426735 
L 249.690099 183.426735 
L 249.690099 193.84534 
L 250.451009 193.84534 
L 250.451009 190.719758 
L 251.211918 190.719758 
L 251.211918 192.803479 
L 251.972827 192.803479 
L 251.972827 198.533712 
L 252.733736 198.533712 
L 252.733736 194.36627 
L 253.494645 194.36627 
L 253.494645 198.012782 
L 254.255554 198.012782 
L 254.255554 189.156968 
L 255.016463 189.156968 
L 255.016463 196.449991 
L 255.777372 196.449991 
L 255.777372 194.36627 
L 256.538281 194.36627 
L 256.538281 196.449991 
L 257.29919 196.449991 
L 257.29919 199.575572 
L 258.060099 199.575572 
L 258.060099 194.36627 
L 258.821009 194.36627 
L 258.821009 207.389526 
L 259.581918 207.389526 
L 259.581918 212.077898 
L 260.342827 212.077898 
L 260.342827 214.682549 
L 261.103736 214.682549 
L 261.103736 205.826735 
L 261.864645 205.826735 
L 261.864645 200.096503 
L 262.625554 200.096503 
L 262.625554 195.40813 
L 263.386463 195.40813 
L 263.386463 194.36627 
L 264.147372 194.36627 
L 264.147372 188.636037 
L 264.908281 188.636037 
L 264.908281 195.929061 
L 265.66919 195.929061 
L 265.66919 198.533712 
L 266.430099 198.533712 
L 266.430099 190.719758 
L 267.191009 190.719758 
L 267.191009 193.84534 
L 267.951918 193.84534 
L 267.951918 195.40813 
L 268.712827 195.40813 
L 268.712827 192.282549 
L 269.473736 192.282549 
L 269.473736 195.929061 
L 270.234645 195.929061 
L 270.234645 193.84534 
L 270.995554 193.84534 
L 270.995554 199.575572 
L 271.756463 199.575572 
L 271.756463 196.970921 
L 272.517372 196.970921 
L 272.517372 198.533712 
L 274.03919 198.533712 
L 274.03919 195.929061 
L 274.800099 195.929061 
L 274.800099 197.491851 
L 275.561009 197.491851 
L 275.561009 199.575572 
L 276.321918 199.575572 
L 276.321918 196.970921 
L 277.082827 196.970921 
L 277.082827 194.36627 
L 277.843736 194.36627 
L 277.843736 199.054642 
L 278.604645 199.054642 
L 278.604645 194.36627 
L 280.126463 194.36627 
L 280.126463 200.617433 
L 280.887372 200.617433 
L 280.887372 198.533712 
L 281.648281 198.533712 
L 281.648281 202.701154 
L 282.40919 202.701154 
L 282.40919 191.761619 
L 283.170099 191.761619 
L 283.170099 201.138363 
L 283.931009 201.138363 
L 283.931009 197.491851 
L 284.691918 197.491851 
L 284.691918 198.012782 
L 285.452827 198.012782 
L 285.452827 195.929061 
L 286.213736 195.929061 
L 286.213736 202.180223 
L 286.974645 202.180223 
L 286.974645 200.096503 
L 287.735554 200.096503 
L 287.735554 200.617433 
L 288.496463 200.617433 
L 288.496463 201.138363 
L 289.257372 201.138363 
L 289.257372 200.096503 
L 290.018281 200.096503 
L 290.018281 196.970921 
L 290.77919 196.970921 
L 290.77919 194.8872 
L 291.540099 194.8872 
L 291.540099 199.054642 
L 292.301009 199.054642 
L 292.301009 200.617433 
L 293.061918 200.617433 
L 293.061918 194.36627 
L 293.822827 194.36627 
L 293.822827 203.222084 
L 294.583736 203.222084 
L 294.583736 204.784875 
L 295.344645 204.784875 
L 295.344645 204.263944 
L 296.105554 204.263944 
L 296.105554 200.617433 
L 296.866463 200.617433 
L 296.866463 210.515107 
L 297.627372 210.515107 
L 297.627372 204.784875 
L 298.388281 204.784875 
L 298.388281 205.826735 
L 299.14919 205.826735 
L 299.14919 205.305805 
L 299.910099 205.305805 
L 299.910099 206.347665 
L 300.671009 206.347665 
L 300.671009 207.910456 
L 301.431918 207.910456 
L 301.431918 215.72441 
L 302.192827 215.72441 
L 302.192827 216.24534 
L 302.953736 216.24534 
L 302.953736 218.849991 
L 303.714645 218.849991 
L 303.714645 217.2872 
L 304.475554 217.2872 
L 304.475554 212.077898 
L 305.236463 212.077898 
L 305.236463 201.659293 
L 305.997372 201.659293 
L 305.997372 203.743014 
L 306.758281 203.743014 
L 306.758281 207.389526 
L 307.51919 207.389526 
L 307.51919 205.826735 
L 308.280099 205.826735 
L 308.280099 209.473247 
L 309.041009 209.473247 
L 309.041009 204.784875 
L 309.801918 204.784875 
L 309.801918 206.347665 
L 311.323736 206.347665 
L 311.323736 208.952316 
L 312.084645 208.952316 
L 312.084645 206.347665 
L 312.845554 206.347665 
L 312.845554 207.389526 
L 313.606463 207.389526 
L 313.606463 205.305805 
L 314.367372 205.305805 
L 314.367372 202.180223 
L 315.128281 202.180223 
L 315.128281 209.473247 
L 315.88919 209.473247 
L 315.88919 203.743014 
L 316.650099 203.743014 
L 316.650099 207.389526 
L 317.411009 207.389526 
L 317.411009 207.910456 
L 318.171918 207.910456 
L 318.171918 204.784875 
L 318.932827 204.784875 
L 318.932827 208.952316 
L 319.693736 208.952316 
L 319.693736 205.826735 
L 320.454645 205.826735 
L 320.454645 207.910456 
L 321.215554 207.910456 
L 321.215554 209.473247 
L 321.976463 209.473247 
L 321.976463 204.263944 
L 323.498281 204.263944 
L 323.498281 200.096503 
L 324.25919 200.096503 
L 324.25919 205.305805 
L 325.020099 205.305805 
L 325.020099 207.389526 
L 325.781009 207.389526 
L 325.781009 208.431386 
L 326.541918 208.431386 
L 326.541918 207.389526 
L 327.302827 207.389526 
L 327.302827 206.347665 
L 328.063736 206.347665 
L 328.063736 208.431386 
L 328.824645 208.431386 
L 328.824645 198.533712 
L 329.585554 198.533712 
L 329.585554 206.868596 
L 330.346463 206.868596 
L 330.346463 208.431386 
L 331.107372 208.431386 
L 331.107372 207.389526 
L 331.868281 207.389526 
L 331.868281 211.556968 
L 332.62919 211.556968 
L 332.62919 205.826735 
L 333.390099 205.826735 
L 333.390099 206.868596 
L 334.151009 206.868596 
L 334.151009 209.473247 
L 334.911918 209.473247 
L 334.911918 207.389526 
L 335.672827 207.389526 
L 335.672827 208.431386 
L 336.433736 208.431386 
L 336.433736 209.473247 
L 337.194645 209.473247 
L 337.194645 208.952316 
L 337.955554 208.952316 
L 337.955554 209.994177 
L 339.477372 209.994177 
L 339.477372 207.910456 
L 340.238281 207.910456 
L 340.238281 208.952316 
L 340.99919 208.952316 
L 340.99919 209.994177 
L 341.760099 209.994177 
L 341.760099 206.868596 
L 342.521009 206.868596 
L 342.521009 213.640689 
L 343.281918 213.640689 
L 343.281918 214.161619 
L 344.042827 214.161619 
L 344.042827 211.556968 
L 344.803736 211.556968 
L 344.803736 215.203479 
L 345.564645 215.203479 
L 345.564645 217.80813 
L 346.325554 217.80813 
L 346.325554 216.76627 
L 347.086463 216.76627 
L 347.086463 218.849991 
L 347.847372 218.849991 
L 347.847372 219.370921 
L 366.870099 219.370921 
L 366.870099 219.370921 
" clip-path="url(#pc50bb2856b)" style="fill: none; stroke: #000000; stroke-width: 1.5; stroke-linecap: square"/>
   </g>
   <g id="patch_3">
    <path d="M 47.288281 229.450921 
L 47.288281 7.690921 
" style="fill: none; stroke: #000000; stroke-width: 0.8; stroke-linejoin: miter; stroke-linecap: square"/>
   </g>
   <g id="patch_4">
    <path d="M 382.088281 229.450921 
L 382.088281 7.690921 
" style="fill: none; stroke: #000000; stroke-width: 0.8; stroke-linejoin: miter; stroke-linecap: square"/>
   </g>
   <g id="patch_5">
    <path d="M 47.288281 229.450921 
L 382.088281 229.450921 
" style="fill: none; stroke: #000000; stroke-width: 0.8; stroke-linejoin: miter; stroke-linecap: square"/>
   </g>
   <g id="patch_6">
    <path d="M 47.288281 7.690921 
L 382.088281 7.690921 
" style="fill: none; stroke: #000000; stroke-width: 0.8; stroke-linejoin: miter; stroke-linecap: square"/>
   </g>
   <g id="legend_1">
    <g id="patch_7">
     <path d="M 278.080469 45.692484 
L 375.088281 45.692484 
Q 377.088281 45.692484 377.088281 43.692484 
L 377.088281 14.690921 
Q 377.088281 12.690921 375.088281 12.690921 
L 278.080469 12.690921 
Q 276.080469 12.690921 276.080469 14.690921 
L 276.080469 43.692484 
Q 276.080469 45.692484 278.080469 45.692484 
z
" style="fill: #ffffff; opacity: 0.8; stroke: #cccccc; stroke-linejoin: miter"/>
    </g>
    <g id="line2d_17">
     <path d="M 280.080469 20.789359 
L 280.080469 20.789359 
L 290.080469 20.789359 
L 290.080469 20.789359 
L 300.080469 20.789359 
" style="fill: none; stroke: #1f77b4; stroke-width: 1.5; stroke-linecap: square"/>
    </g>
    <g id="text_17">
     <!-- wfm -->
     <g transform="translate(308.080469 24.289359) scale(0.1 -0.1)">
      <defs>
       <path id="DejaVuSans-49" d="M 2375 4863 
L 2375 4384 
L 1825 4384 
Q 1516 4384 1395 4259 
Q 1275 4134 1275 3809 
L 1275 3500 
L 2222 3500 
L 2222 3053 
L 1275 3053 
L 1275 0 
L 697 0 
L 697 3053 
L 147 3053 
L 147 3500 
L 697 3500 
L 697 3744 
Q 697 4328 969 4595 
Q 1241 4863 1831 4863 
L 2375 4863 
z
" transform="scale(0.015625)"/>
       <path id="DejaVuSans-50" d="M 3328 2828 
Q 3544 3216 3844 3400 
Q 4144 3584 4550 3584 
Q 5097 3584 5394 3201 
Q 5691 2819 5691 2113 
L 5691 0 
L 5113 0 
L 5113 2094 
Q 5113 2597 4934 2840 
Q 4756 3084 4391 3084 
Q 3944 3084 3684 2787 
Q 3425 2491 3425 1978 
L 3425 0 
L 2847 0 
L 2847 2094 
Q 2847 2600 2669 2842 
Q 2491 3084 2119 3084 
Q 1678 3084 1418 2786 
Q 1159 2488 1159 1978 
L 1159 0 
L 581 0 
L 581 3500 
L 1159 3500 
L 1159 2956 
Q 1356 3278 1631 3431 
Q 1906 3584 2284 3584 
Q 2666 3584 2933 3390 
Q 3200 3197 3328 2828 
z
" transform="scale(0.015625)"/>
      </defs>
      <use xlink:href="#DejaVuSans-5a"/>
      <use xlink:href="#DejaVuSans-49" transform="translate(81.78125 0)"/>
      <use xlink:href="#DejaVuSans-50" transform="translate(116.984375 0)"/>
     </g>
    </g>
    <g id="line2d_18">
     <path d="M 280.080469 35.79014 
L 280.080469 35.79014 
L 290.080469 35.79014 
L 290.080469 35.79014 
L 300.080469 35.79014 
" style="fill: none; stroke: #000000; stroke-width: 1.5; stroke-linecap: square"/>
    </g>
    <g id="text_18">
     <!-- ground_truth -->
     <g transform="translate(308.080469 39.29014) scale(0.1 -0.1)">
      <defs>
       <path id="DejaVuSans-55" d="M 2631 2963 
Q 2534 3019 2420 3045 
Q 2306 3072 2169 3072 
Q 1681 3072 1420 2755 
Q 1159 2438 1159 1844 
L 1159 0 
L 581 0 
L 581 3500 
L 1159 3500 
L 1159 2956 
Q 1341 3275 1631 3429 
Q 1922 3584 2338 3584 
Q 2397 3584 2469 3576 
Q 2541 3569 2628 3553 
L 2631 2963 
z
" transform="scale(0.015625)"/>
       <path id="DejaVuSans-47" d="M 2906 2969 
L 2906 4863 
L 3481 4863 
L 3481 0 
L 2906 0 
L 2906 525 
Q 2725 213 2448 61 
Q 2172 -91 1784 -91 
Q 1150 -91 751 415 
Q 353 922 353 1747 
Q 353 2572 751 3078 
Q 1150 3584 1784 3584 
Q 2172 3584 2448 3432 
Q 2725 3281 2906 2969 
z
M 947 1747 
Q 947 1113 1208 752 
Q 1469 391 1925 391 
Q 2381 391 2643 752 
Q 2906 1113 2906 1747 
Q 2906 2381 2643 2742 
Q 2381 3103 1925 3103 
Q 1469 3103 1208 2742 
Q 947 2381 947 1747 
z
" transform="scale(0.015625)"/>
       <path id="DejaVuSans-42" d="M 3263 -1063 
L 3263 -1509 
L -63 -1509 
L -63 -1063 
L 3263 -1063 
z
" transform="scale(0.015625)"/>
      </defs>
      <use xlink:href="#DejaVuSans-4a"/>
      <use xlink:href="#DejaVuSans-55" transform="translate(63.484375 0)"/>
      <use xlink:href="#DejaVuSans-52" transform="translate(102.390625 0)"/>
      <use xlink:href="#DejaVuSans-58" transform="translate(163.578125 0)"/>
      <use xlink:href="#DejaVuSans-51" transform="translate(226.953125 0)"/>
      <use xlink:href="#DejaVuSans-47" transform="translate(290.328125 0)"/>
      <use xlink:href="#DejaVuSans-42" transform="translate(353.8125 0)"/>
      <use xlink:href="#DejaVuSans-57" transform="translate(403.8125 0)"/>
      <use xlink:href="#DejaVuSans-55" transform="translate(443.015625 0)"/>
      <use xlink:href="#DejaVuSans-58" transform="translate(484.125 0)"/>
      <use xlink:href="#DejaVuSans-57" transform="translate(547.5 0)"/>
      <use xlink:href="#DejaVuSans-4b" transform="translate(586.703125 0)"/>
     </g>
    </g>
   </g>
  </g>
 </g>
 <defs>
  <clipPath id="pc50bb2856b">
   <rect x="47.288281" y="7.690921" width="334.8" height="221.76"/>
  </clipPath>
 </defs>
</svg>
