<?xml version="1.0" encoding="utf-8" standalone="no"?>
<!DOCTYPE svg PUBLIC "-//W3C//DTD SVG 1.1//EN"
  "http://www.w3.org/Graphics/SVG/1.1/DTD/svg11.dtd">
<svg xmlns:xlink="http://www.w3.org/1999/xlink" width="395.328125pt" height="266.794375pt" viewBox="0 0 395.328125 266.794375" xmlns="http://www.w3.org/2000/svg" version="1.1">
 <metadata>
  <rdf:RDF xmlns:dc="http://purl.org/dc/elements/1.1/" xmlns:cc="http://creativecommons.org/ns#" xmlns:rdf="http://www.w3.org/1999/02/22-rdf-syntax-ns#">
   <cc:Work>
    <dc:type rdf:resource="http://purl.org/dc/dcmitype/StillImage"/>
    <dc:date>2026-06-18T08:05:52.058884</dc:date>
    <dc:format>image/svg+xml</dc:format>
    <dc:creator>
     <cc:Agent>
      <dc:title>Matplotlib v3.10.9, https://matplotlib.org/</dc:title>
     </cc:Agent>
    </dc:creator>
   </cc:Work>
  </rdf:RDF>
 </metadata>
 <defs>
  <style type="text/css">*{stroke-linejoin: round; stroke-linecap: butt}</style>
 </defs>
 <g id="figure_1">
  <g id="patch_1">
   <path d="M 0 266.794375 
L 395.328125 266.794375 
L 395.328125 0 
L 0 0 
z
" style="fill: #ffffff"/>
  </g>
  <g id="axes_1">
   <g id="patch_2">
    <path d="M 53.328125 228.96 
L 388.128125 228.96 
L 388.128125 7.2 
L 53.328125 7.2 
z
" style="fill: #ffffff"/>
   </g>
   <g id="matplotlib.axis_1">
    <g id="xtick_1">
     <g id="line2d_1">
      <defs>
       <path id="mf15b4c4bf9" d="M 0 0 
L 0 3.5 
" style="stroke: #000000; stroke-width: 0.8"/>
      </defs>
      <g>
       <use xlink:href="#mf15b4c4bf9" x="94.297438" y="228.96" style="stroke: #000000; stroke-width: 0.8"/>
      </g>
     </g>
     <g id="text_1">
      <!-- 20000 -->
      <g transform="translate(78.391188 243.558437) scale(0.1 -0.1)">
       <defs>
        <path id="DejaVuSans-32" d="M 1228 531 
L 3431 531 
L 3431 0 
L 469 0 
L 469 531 
Q 828 903 1448 1529 
Q 2069 2156 2228 2338 
Q 2531 2678 2651 2914 
Q 2772 3150 2772 3378 
Q 2772 3750 2511 3984 
Q 2250 4219 1831 4219 
Q 1534 4219 1204 4116 
Q 875 4013 500 3803 
L 500 4441 
Q 881 4594 1212 4672 
Q 1544 4750 1819 4750 
Q 2544 4750 2975 4387 
Q 3406 4025 3406 3419 
Q 3406 3131 3298 2873 
Q 3191 2616 2906 2266 
Q 2828 2175 2409 1742 
Q 1991 1309 1228 531 
z
" transform="scale(0.015625)"/>
        <path id="DejaVuSans-30" d="M 2034 4250 
Q 1547 4250 1301 3770 
Q 1056 3291 1056 2328 
Q 1056 1369 1301 889 
Q 1547 409 2034 409 
Q 2525 409 2770 889 
Q 3016 1369 3016 2328 
Q 3016 3291 2770 3770 
Q 2525 4250 2034 4250 
z
M 2034 4750 
Q 2819 4750 3233 4129 
Q 3647 3509 3647 2328 
Q 3647 1150 3233 529 
Q 2819 -91 2034 -91 
Q 1250 -91 836 529 
Q 422 1150 422 2328 
Q 422 3509 836 4129 
Q 1250 4750 2034 4750 
z
" transform="scale(0.015625)"/>
       </defs>
       <use xlink:href="#DejaVuSans-32"/>
       <use xlink:href="#DejaVuSans-30" transform="translate(63.623047 0)"/>
       <use xlink:href="#DejaVuSans-30" transform="translate(127.246094 0)"/>
       <use xlink:href="#DejaVuSans-30" transform="translate(190.869141 0)"/>
       <use xlink:href="#DejaVuSans-30" transform="translate(254.492188 0)"/>
      </g>
     </g>
    </g>
    <g id="xtick_2">
     <g id="line2d_2">
      <g>
       <use xlink:href="#mf15b4c4bf9" x="159.770579" y="228.96" style="stroke: #000000; stroke-width: 0.8"/>
      </g>
     </g>
     <g id="text_2">
      <!-- 30000 -->
      <g transform="translate(143.864329 243.558437) scale(0.1 -0.1)">
       <defs>
        <path id="DejaVuSans-33" d="M 2597 2516 
Q 3050 2419 3304 2112 
Q 3559 1806 3559 1356 
Q 3559 666 3084 287 
Q 2609 -91 1734 -91 
Q 1441 -91 1130 -33 
Q 819 25 488 141 
L 488 750 
Q 750 597 1062 519 
Q 1375 441 1716 441 
Q 2309 441 2620 675 
Q 2931 909 2931 1356 
Q 2931 1769 2642 2001 
Q 2353 2234 1838 2234 
L 1294 2234 
L 1294 2753 
L 1863 2753 
Q 2328 2753 2575 2939 
Q 2822 3125 2822 3475 
Q 2822 3834 2567 4026 
Q 2313 4219 1838 4219 
Q 1578 4219 1281 4162 
Q 984 4106 628 3988 
L 628 4550 
Q 988 4650 1302 4700 
Q 1616 4750 1894 4750 
Q 2613 4750 3031 4423 
Q 3450 4097 3450 3541 
Q 3450 3153 3228 2886 
Q 3006 2619 2597 2516 
z
" transform="scale(0.015625)"/>
       </defs>
       <use xlink:href="#DejaVuSans-33"/>
       <use xlink:href="#DejaVuSans-30" transform="translate(63.623047 0)"/>
       <use xlink:href="#DejaVuSans-30" transform="translate(127.246094 0)"/>
       <use xlink:href="#DejaVuSans-30" transform="translate(190.869141 0)"/>
       <use xlink:href="#DejaVuSans-30" transform="translate(254.492188 0)"/>
      </g>
     </g>
    </g>
    <g id="xtick_3">
     <g id="line2d_3">
      <g>
       <use xlink:href="#mf15b4c4bf9" x="225.243721" y="228.96" style="stroke: #000000; stroke-width: 0.8"/>
      </g>
     </g>
     <g id="text_3">
      <!-- 40000 -->
      <g transform="translate(209.337471 243.558437) scale(0.1 -0.1)">
       <defs>
        <path id="DejaVuSans-34" d="M 2419 4116 
L 825 1625 
L 2419 1625 
L 2419 4116 
z
M 2253 4666 
L 3047 4666 
L 3047 1625 
L 3713 1625 
L 3713 1100 
L 3047 1100 
L 3047 0 
L 2419 0 
L 2419 1100 
L 313 1100 
L 313 1709 
L 2253 4666 
z
" transform="scale(0.015625)"/>
       </defs>
       <use xlink:href="#DejaVuSans-34"/>
       <use xlink:href="#DejaVuSans-30" transform="translate(63.623047 0)"/>
       <use xlink:href="#DejaVuSans-30" transform="translate(127.246094 0)"/>
       <use xlink:href="#DejaVuSans-30" transform="translate(190.869141 0)"/>
       <use xlink:href="#DejaVuSans-30" transform="translate(254.492188 0)"/>
      </g>
     </g>
    </g>
    <g id="xtick_4">
     <g id="line2d_4">
      <g>
       <use xlink:href="#mf15b4c4bf9" x="290.716862" y="228.96" style="stroke: #000000; stroke-width: 0.8"/>
      </g>
     </g>
     <g id="text_4">
      <!-- 50000 -->
      <g transform="translate(274.810612 243.558437) scale(0.1 -0.1)">
       <defs>
        <path id="DejaVuSans-35" d="M 691 4666 
L 3169 4666 
L 3169 4134 
L 1269 4134 
L 1269 2991 
Q 1406 3038 1543 3061 
Q 1681 3084 1819 3084 
Q 2600 3084 3056 2656 
Q 3513 2228 3513 1497 
Q 3513 744 3044 326 
Q 2575 -91 1722 -91 
Q 1428 -91 1123 -41 
Q 819 9 494 109 
L 494 744 
Q 775 591 1075 516 
Q 1375 441 1709 441 
Q 2250 441 2565 725 
Q 2881 1009 2881 1497 
Q 2881 1984 2565 2268 
Q 2250 2553 1709 2553 
Q 1456 2553 1204 2497 
Q 953 2441 691 2322 
L 691 4666 
z
" transform="scale(0.015625)"/>
       </defs>
       <use xlink:href="#DejaVuSans-35"/>
       <use xlink:href="#DejaVuSans-30" transform="translate(63.623047 0)"/>
       <use xlink:href="#DejaVuSans-30" transform="translate(127.246094 0)"/>
       <use xlink:href="#DejaVuSans-30" transform="translate(190.869141 0)"/>
       <use xlink:href="#DejaVuSans-30" transform="translate(254.492188 0)"/>
      </g>
     </g>
    </g>
    <g id="xtick_5">
     <g id="line2d_5">
      <g>
       <use xlink:href="#mf15b4c4bf9" x="356.190003" y="228.96" style="stroke: #000000; stroke-width: 0.8"/>
      </g>
     </g>
     <g id="text_5">
      <!-- 60000 -->
      <g transform="translate(340.283753 243.558437) scale(0.1 -0.1)">
       <defs>
        <path id="DejaVuSans-36" d="M 2113 2584 
Q 1688 2584 1439 2293 
Q 1191 2003 1191 1497 
Q 1191 994 1439 701 
Q 1688 409 2113 409 
Q 2538 409 2786 701 
Q 3034 994 3034 1497 
Q 3034 2003 2786 2293 
Q 2538 2584 2113 2584 
z
M 3366 4563 
L 3366 3988 
Q 3128 4100 2886 4159 
Q 2644 4219 2406 4219 
Q 1781 4219 1451 3797 
Q 1122 3375 1075 2522 
Q 1259 2794 1537 2939 
Q 1816 3084 2150 3084 
Q 2853 3084 3261 2657 
Q 3669 2231 3669 1497 
Q 3669 778 3244 343 
Q 2819 -91 2113 -91 
Q 1303 -91 875 529 
Q 447 1150 447 2328 
Q 447 3434 972 4092 
Q 1497 4750 2381 4750 
Q 2619 4750 2861 4703 
Q 3103 4656 3366 4563 
z
" transform="scale(0.015625)"/>
       </defs>
       <use xlink:href="#DejaVuSans-36"/>
       <use xlink:href="#DejaVuSans-30" transform="translate(63.623047 0)"/>
       <use xlink:href="#DejaVuSans-30" transform="translate(127.246094 0)"/>
       <use xlink:href="#DejaVuSans-30" transform="translate(190.869141 0)"/>
       <use xlink:href="#DejaVuSans-30" transform="translate(254.492188 0)"/>
      </g>
     </g>
    </g>
    <g id="text_6">
     <!-- event_time_offset [µs] -->
     <g transform="translate(164.692969 257.236562) scale(0.1 -0.1)">
      <defs>
       <path id="DejaVuSans-65" d="M 3597 1894 
L 3597 1613 
L 953 1613 
Q 991 1019 1311 708 
Q 1631 397 2203 397 
Q 2534 397 2845 478 
Q 3156 559 3463 722 
L 3463 178 
Q 3153 47 2828 -22 
Q 2503 -91 2169 -91 
Q 1331 -91 842 396 
Q 353 884 353 1716 
Q 353 2575 817 3079 
Q 1281 3584 2069 3584 
Q 2775 3584 3186 3129 
Q 3597 2675 3597 1894 
z
M 3022 2063 
Q 3016 2534 2758 2815 
Q 2500 3097 2075 3097 
Q 1594 3097 1305 2825 
Q 1016 2553 972 2059 
L 3022 2063 
z
" transform="scale(0.015625)"/>
       <path id="DejaVuSans-76" d="M 191 3500 
L 800 3500 
L 1894 563 
L 2988 3500 
L 3597 3500 
L 2284 0 
L 1503 0 
L 191 3500 
z
" transform="scale(0.015625)"/>
       <path id="DejaVuSans-6e" d="M 3513 2113 
L 3513 0 
L 2938 0 
L 2938 2094 
Q 2938 2591 2744 2837 
Q 2550 3084 2163 3084 
Q 1697 3084 1428 2787 
Q 1159 2491 1159 1978 
L 1159 0 
L 581 0 
L 581 3500 
L 1159 3500 
L 1159 2956 
Q 1366 3272 1645 3428 
Q 1925 3584 2291 3584 
Q 2894 3584 3203 3211 
Q 3513 2838 3513 2113 
z
" transform="scale(0.015625)"/>
       <path id="DejaVuSans-74" d="M 1172 4494 
L 1172 3500 
L 2356 3500 
L 2356 3053 
L 1172 3053 
L 1172 1153 
Q 1172 725 1289 603 
Q 1406 481 1766 481 
L 2356 481 
L 2356 0 
L 1766 0 
Q 1100 0 847 248 
Q 594 497 594 1153 
L 594 3053 
L 172 3053 
L 172 3500 
L 594 3500 
L 594 4494 
L 1172 4494 
z
" transform="scale(0.015625)"/>
       <path id="DejaVuSans-5f" d="M 3263 -1063 
L 3263 -1509 
L -63 -1509 
L -63 -1063 
L 3263 -1063 
z
" transform="scale(0.015625)"/>
       <path id="DejaVuSans-69" d="M 603 3500 
L 1178 3500 
L 1178 0 
L 603 0 
L 603 3500 
z
M 603 4863 
L 1178 4863 
L 1178 4134 
L 603 4134 
L 603 4863 
z
" transform="scale(0.015625)"/>
       <path id="DejaVuSans-6d" d="M 3328 2828 
Q 3544 3216 3844 3400 
Q 4144 3584 4550 3584 
Q 5097 3584 5394 3201 
Q 5691 2819 5691 2113 
L 5691 0 
L 5113 0 
L 5113 2094 
Q 5113 2597 4934 2840 
Q 4756 3084 4391 3084 
Q 3944 3084 3684 2787 
Q 3425 2491 3425 1978 
L 3425 0 
L 2847 0 
L 2847 2094 
Q 2847 2600 2669 2842 
Q 2491 3084 2119 3084 
Q 1678 3084 1418 2786 
Q 1159 2488 1159 1978 
L 1159 0 
L 581 0 
L 581 3500 
L 1159 3500 
L 1159 2956 
Q 1356 3278 1631 3431 
Q 1906 3584 2284 3584 
Q 2666 3584 2933 3390 
Q 3200 3197 3328 2828 
z
" transform="scale(0.015625)"/>
       <path id="DejaVuSans-6f" d="M 1959 3097 
Q 1497 3097 1228 2736 
Q 959 2375 959 1747 
Q 959 1119 1226 758 
Q 1494 397 1959 397 
Q 2419 397 2687 759 
Q 2956 1122 2956 1747 
Q 2956 2369 2687 2733 
Q 2419 3097 1959 3097 
z
M 1959 3584 
Q 2709 3584 3137 3096 
Q 3566 2609 3566 1747 
Q 3566 888 3137 398 
Q 2709 -91 1959 -91 
Q 1206 -91 779 398 
Q 353 888 353 1747 
Q 353 2609 779 3096 
Q 1206 3584 1959 3584 
z
" transform="scale(0.015625)"/>
       <path id="DejaVuSans-66" d="M 2375 4863 
L 2375 4384 
L 1825 4384 
Q 1516 4384 1395 4259 
Q 1275 4134 1275 3809 
L 1275 3500 
L 2222 3500 
L 2222 3053 
L 1275 3053 
L 1275 0 
L 697 0 
L 697 3053 
L 147 3053 
L 147 3500 
L 697 3500 
L 697 3744 
Q 697 4328 969 4595 
Q 1241 4863 1831 4863 
L 2375 4863 
z
" transform="scale(0.015625)"/>
       <path id="DejaVuSans-73" d="M 2834 3397 
L 2834 2853 
Q 2591 2978 2328 3040 
Q 2066 3103 1784 3103 
Q 1356 3103 1142 2972 
Q 928 2841 928 2578 
Q 928 2378 1081 2264 
Q 1234 2150 1697 2047 
L 1894 2003 
Q 2506 1872 2764 1633 
Q 3022 1394 3022 966 
Q 3022 478 2636 193 
Q 2250 -91 1575 -91 
Q 1294 -91 989 -36 
Q 684 19 347 128 
L 347 722 
Q 666 556 975 473 
Q 1284 391 1588 391 
Q 1994 391 2212 530 
Q 2431 669 2431 922 
Q 2431 1156 2273 1281 
Q 2116 1406 1581 1522 
L 1381 1569 
Q 847 1681 609 1914 
Q 372 2147 372 2553 
Q 372 3047 722 3315 
Q 1072 3584 1716 3584 
Q 2034 3584 2315 3537 
Q 2597 3491 2834 3397 
z
" transform="scale(0.015625)"/>
       <path id="DejaVuSans-20" transform="scale(0.015625)"/>
       <path id="DejaVuSans-5b" d="M 550 4863 
L 1875 4863 
L 1875 4416 
L 1125 4416 
L 1125 -397 
L 1875 -397 
L 1875 -844 
L 550 -844 
L 550 4863 
z
" transform="scale(0.015625)"/>
       <path id="DejaVuSans-b5" d="M 544 -1331 
L 544 3500 
L 1119 3500 
L 1119 1325 
Q 1119 872 1334 640 
Q 1550 409 1972 409 
Q 2434 409 2667 671 
Q 2900 934 2900 1459 
L 2900 3500 
L 3475 3500 
L 3475 806 
Q 3475 619 3529 530 
Q 3584 441 3700 441 
Q 3728 441 3778 458 
Q 3828 475 3916 513 
L 3916 50 
Q 3788 -22 3673 -56 
Q 3559 -91 3450 -91 
Q 3234 -91 3106 31 
Q 2978 153 2931 403 
Q 2775 156 2548 32 
Q 2322 -91 2016 -91 
Q 1697 -91 1473 31 
Q 1250 153 1119 397 
L 1119 -1331 
L 544 -1331 
z
" transform="scale(0.015625)"/>
       <path id="DejaVuSans-5d" d="M 1947 4863 
L 1947 -844 
L 622 -844 
L 622 -397 
L 1369 -397 
L 1369 4416 
L 622 4416 
L 622 4863 
L 1947 4863 
z
" transform="scale(0.015625)"/>
      </defs>
      <use xlink:href="#DejaVuSans-65"/>
      <use xlink:href="#DejaVuSans-76" transform="translate(61.523438 0)"/>
      <use xlink:href="#DejaVuSans-65" transform="translate(120.703125 0)"/>
      <use xlink:href="#DejaVuSans-6e" transform="translate(182.226562 0)"/>
      <use xlink:href="#DejaVuSans-74" transform="translate(245.605469 0)"/>
      <use xlink:href="#DejaVuSans-5f" transform="translate(284.814453 0)"/>
      <use xlink:href="#DejaVuSans-74" transform="translate(334.814453 0)"/>
      <use xlink:href="#DejaVuSans-69" transform="translate(374.023438 0)"/>
      <use xlink:href="#DejaVuSans-6d" transform="translate(401.806641 0)"/>
      <use xlink:href="#DejaVuSans-65" transform="translate(499.21875 0)"/>
      <use xlink:href="#DejaVuSans-5f" transform="translate(560.742188 0)"/>
      <use xlink:href="#DejaVuSans-6f" transform="translate(610.742188 0)"/>
      <use xlink:href="#DejaVuSans-66" transform="translate(671.923828 0)"/>
      <use xlink:href="#DejaVuSans-66" transform="translate(707.128906 0)"/>
      <use xlink:href="#DejaVuSans-73" transform="translate(742.333984 0)"/>
      <use xlink:href="#DejaVuSans-65" transform="translate(794.433594 0)"/>
      <use xlink:href="#DejaVuSans-74" transform="translate(855.957031 0)"/>
      <use xlink:href="#DejaVuSans-20" transform="translate(895.166016 0)"/>
      <use xlink:href="#DejaVuSans-5b" transform="translate(926.953125 0)"/>
      <use xlink:href="#DejaVuSans-b5" transform="translate(965.966797 0)"/>
      <use xlink:href="#DejaVuSans-73" transform="translate(1029.589844 0)"/>
      <use xlink:href="#DejaVuSans-5d" transform="translate(1081.689453 0)"/>
     </g>
    </g>
   </g>
   <g id="matplotlib.axis_2">
    <g id="ytick_1">
     <g id="line2d_6">
      <defs>
       <path id="m4bf2ecd30d" d="M 0 0 
L -3.5 0 
" style="stroke: #000000; stroke-width: 0.8"/>
      </defs>
      <g>
       <use xlink:href="#m4bf2ecd30d" x="53.328125" y="218.88" style="stroke: #000000; stroke-width: 0.8"/>
      </g>
     </g>
     <g id="text_7">
      <!-- 0 -->
      <g transform="translate(39.965625 222.679219) scale(0.1 -0.1)">
       <use xlink:href="#DejaVuSans-30"/>
      </g>
     </g>
    </g>
    <g id="ytick_2">
     <g id="line2d_7">
      <g>
       <use xlink:href="#m4bf2ecd30d" x="53.328125" y="187.001442" style="stroke: #000000; stroke-width: 0.8"/>
      </g>
     </g>
     <g id="text_8">
      <!-- 500 -->
      <g transform="translate(27.240625 190.800661) scale(0.1 -0.1)">
       <use xlink:href="#DejaVuSans-35"/>
       <use xlink:href="#DejaVuSans-30" transform="translate(63.623047 0)"/>
       <use xlink:href="#DejaVuSans-30" transform="translate(127.246094 0)"/>
      </g>
     </g>
    </g>
    <g id="ytick_3">
     <g id="line2d_8">
      <g>
       <use xlink:href="#m4bf2ecd30d" x="53.328125" y="155.122884" style="stroke: #000000; stroke-width: 0.8"/>
      </g>
     </g>
     <g id="text_9">
      <!-- 1000 -->
      <g transform="translate(20.878125 158.922103) scale(0.1 -0.1)">
       <defs>
        <path id="DejaVuSans-31" d="M 794 531 
L 1825 531 
L 1825 4091 
L 703 3866 
L 703 4441 
L 1819 4666 
L 2450 4666 
L 2450 531 
L 3481 531 
L 3481 0 
L 794 0 
L 794 531 
z
" transform="scale(0.015625)"/>
       </defs>
       <use xlink:href="#DejaVuSans-31"/>
       <use xlink:href="#DejaVuSans-30" transform="translate(63.623047 0)"/>
       <use xlink:href="#DejaVuSans-30" transform="translate(127.246094 0)"/>
       <use xlink:href="#DejaVuSans-30" transform="translate(190.869141 0)"/>
      </g>
     </g>
    </g>
    <g id="ytick_4">
     <g id="line2d_9">
      <g>
       <use xlink:href="#m4bf2ecd30d" x="53.328125" y="123.244326" style="stroke: #000000; stroke-width: 0.8"/>
      </g>
     </g>
     <g id="text_10">
      <!-- 1500 -->
      <g transform="translate(20.878125 127.043545) scale(0.1 -0.1)">
       <use xlink:href="#DejaVuSans-31"/>
       <use xlink:href="#DejaVuSans-35" transform="translate(63.623047 0)"/>
       <use xlink:href="#DejaVuSans-30" transform="translate(127.246094 0)"/>
       <use xlink:href="#DejaVuSans-30" transform="translate(190.869141 0)"/>
      </g>
     </g>
    </g>
    <g id="ytick_5">
     <g id="line2d_10">
      <g>
       <use xlink:href="#m4bf2ecd30d" x="53.328125" y="91.365769" style="stroke: #000000; stroke-width: 0.8"/>
      </g>
     </g>
     <g id="text_11">
      <!-- 2000 -->
      <g transform="translate(20.878125 95.164987) scale(0.1 -0.1)">
       <use xlink:href="#DejaVuSans-32"/>
       <use xlink:href="#DejaVuSans-30" transform="translate(63.623047 0)"/>
       <use xlink:href="#DejaVuSans-30" transform="translate(127.246094 0)"/>
       <use xlink:href="#DejaVuSans-30" transform="translate(190.869141 0)"/>
      </g>
     </g>
    </g>
    <g id="ytick_6">
     <g id="line2d_11">
      <g>
       <use xlink:href="#m4bf2ecd30d" x="53.328125" y="59.487211" style="stroke: #000000; stroke-width: 0.8"/>
      </g>
     </g>
     <g id="text_12">
      <!-- 2500 -->
      <g transform="translate(20.878125 63.286429) scale(0.1 -0.1)">
       <use xlink:href="#DejaVuSans-32"/>
       <use xlink:href="#DejaVuSans-35" transform="translate(63.623047 0)"/>
       <use xlink:href="#DejaVuSans-30" transform="translate(127.246094 0)"/>
       <use xlink:href="#DejaVuSans-30" transform="translate(190.869141 0)"/>
      </g>
     </g>
    </g>
    <g id="ytick_7">
     <g id="line2d_12">
      <g>
       <use xlink:href="#m4bf2ecd30d" x="53.328125" y="27.608653" style="stroke: #000000; stroke-width: 0.8"/>
      </g>
     </g>
     <g id="text_13">
      <!-- 3000 -->
      <g transform="translate(20.878125 31.407872) scale(0.1 -0.1)">
       <use xlink:href="#DejaVuSans-33"/>
       <use xlink:href="#DejaVuSans-30" transform="translate(63.623047 0)"/>
       <use xlink:href="#DejaVuSans-30" transform="translate(127.246094 0)"/>
       <use xlink:href="#DejaVuSans-30" transform="translate(190.869141 0)"/>
      </g>
     </g>
    </g>
    <g id="text_14">
     <!-- [counts] -->
     <g transform="translate(14.798438 138.6925) rotate(-90) scale(0.1 -0.1)">
      <defs>
       <path id="DejaVuSans-63" d="M 3122 3366 
L 3122 2828 
Q 2878 2963 2633 3030 
Q 2388 3097 2138 3097 
Q 1578 3097 1268 2742 
Q 959 2388 959 1747 
Q 959 1106 1268 751 
Q 1578 397 2138 397 
Q 2388 397 2633 464 
Q 2878 531 3122 666 
L 3122 134 
Q 2881 22 2623 -34 
Q 2366 -91 2075 -91 
Q 1284 -91 818 406 
Q 353 903 353 1747 
Q 353 2603 823 3093 
Q 1294 3584 2113 3584 
Q 2378 3584 2631 3529 
Q 2884 3475 3122 3366 
z
" transform="scale(0.015625)"/>
       <path id="DejaVuSans-75" d="M 544 1381 
L 544 3500 
L 1119 3500 
L 1119 1403 
Q 1119 906 1312 657 
Q 1506 409 1894 409 
Q 2359 409 2629 706 
Q 2900 1003 2900 1516 
L 2900 3500 
L 3475 3500 
L 3475 0 
L 2900 0 
L 2900 538 
Q 2691 219 2414 64 
Q 2138 -91 1772 -91 
Q 1169 -91 856 284 
Q 544 659 544 1381 
z
M 1991 3584 
L 1991 3584 
z
" transform="scale(0.015625)"/>
      </defs>
      <use xlink:href="#DejaVuSans-5b"/>
      <use xlink:href="#DejaVuSans-63" transform="translate(39.013672 0)"/>
      <use xlink:href="#DejaVuSans-6f" transform="translate(93.994141 0)"/>
      <use xlink:href="#DejaVuSans-75" transform="translate(155.175781 0)"/>
      <use xlink:href="#DejaVuSans-6e" transform="translate(218.554688 0)"/>
      <use xlink:href="#DejaVuSans-74" transform="translate(281.933594 0)"/>
      <use xlink:href="#DejaVuSans-73" transform="translate(321.142578 0)"/>
      <use xlink:href="#DejaVuSans-5d" transform="translate(373.242188 0)"/>
     </g>
    </g>
   </g>
   <g id="line2d_13">
    <path d="M 68.546307 187.830285 
L 69.560852 187.830285 
L 69.560852 122.542998 
L 70.575398 122.542998 
L 70.575398 96.338824 
L 71.589943 96.338824 
L 71.589943 87.731613 
L 72.604489 87.731613 
L 72.604489 89.644326 
L 73.619034 89.644326 
L 73.619034 80.909602 
L 74.63358 80.909602 
L 74.63358 75.554004 
L 75.648125 75.554004 
L 75.648125 76.701632 
L 76.66267 76.701632 
L 76.66267 62.930095 
L 77.677216 62.930095 
L 77.677216 56.235598 
L 78.691761 56.235598 
L 78.691761 49.094801 
L 79.706307 49.094801 
L 79.706307 50.943757 
L 80.720852 50.943757 
L 80.720852 44.376774 
L 81.735398 44.376774 
L 81.735398 43.484175 
L 82.749943 43.484175 
L 82.749943 32.581708 
L 83.764489 32.581708 
L 83.764489 25.249639 
L 84.779034 25.249639 
L 84.779034 20.659127 
L 85.79358 20.659127 
L 85.79358 29.521366 
L 86.808125 29.521366 
L 86.808125 17.28 
L 87.82267 17.28 
L 87.82267 28.054953 
L 88.837216 28.054953 
L 88.837216 23.336926 
L 89.851761 23.336926 
L 89.851761 31.88038 
L 90.866307 31.88038 
L 90.866307 21.424213 
L 91.880852 21.424213 
L 91.880852 31.497837 
L 92.895398 31.497837 
L 92.895398 33.028008 
L 93.909943 33.028008 
L 93.909943 42.081518 
L 94.924489 42.081518 
L 94.924489 44.504288 
L 95.939034 44.504288 
L 95.939034 46.098216 
L 96.95358 46.098216 
L 96.95358 61.654953 
L 97.968125 61.654953 
L 97.968125 70.963491 
L 98.98267 70.963491 
L 98.98267 81.802201 
L 99.997216 81.802201 
L 99.997216 99.781708 
L 101.011761 99.781708 
L 101.011761 109.472789 
L 102.026307 109.472789 
L 102.026307 119.865199 
L 103.040852 119.865199 
L 103.040852 130.066338 
L 104.055398 130.066338 
L 104.055398 140.267476 
L 105.069943 140.267476 
L 105.069943 149.193472 
L 106.084489 149.193472 
L 106.084489 161.689867 
L 107.099034 161.689867 
L 107.099034 171.508463 
L 108.11358 171.508463 
L 108.11358 176.545275 
L 109.128125 176.545275 
L 109.128125 187.830285 
L 110.14267 187.830285 
L 110.14267 197.776395 
L 111.157216 197.776395 
L 111.157216 203.068235 
L 112.171761 203.068235 
L 112.171761 212.440531 
L 113.186307 212.440531 
L 113.186307 217.222315 
L 114.200852 217.222315 
L 114.200852 218.88 
L 126.375398 218.88 
L 126.375398 218.114915 
L 127.389943 218.114915 
L 127.389943 191.91074 
L 128.404489 191.91074 
L 128.404489 144.220417 
L 129.419034 144.220417 
L 129.419034 101.311879 
L 130.43358 101.311879 
L 130.43358 83.5874 
L 131.448125 83.5874 
L 131.448125 81.61093 
L 132.46267 81.61093 
L 132.46267 89.580569 
L 133.477216 89.580569 
L 133.477216 90.21814 
L 134.491761 90.21814 
L 134.491761 96.657609 
L 135.506307 96.657609 
L 135.506307 88.879241 
L 136.520852 88.879241 
L 136.520852 92.00334 
L 137.535398 92.00334 
L 137.535398 97.868994 
L 138.549943 97.868994 
L 138.549943 98.442808 
L 139.564489 98.442808 
L 139.564489 97.486452 
L 140.579034 97.486452 
L 140.579034 103.92592 
L 141.59358 103.92592 
L 141.59358 107.305047 
L 142.608125 107.305047 
L 142.608125 105.201063 
L 144.637216 105.137306 
L 144.637216 110.429146 
L 145.651761 110.429146 
L 145.651761 109.536546 
L 146.666307 109.536546 
L 146.666307 114.573359 
L 147.680852 114.573359 
L 147.680852 117.697457 
L 148.695398 117.697457 
L 148.695398 118.143757 
L 149.709943 118.143757 
L 149.709943 123.308083 
L 150.724489 123.308083 
L 150.724489 122.28797 
L 151.739034 122.28797 
L 151.739034 120.375256 
L 152.75358 120.375256 
L 152.75358 121.331613 
L 153.768125 121.331613 
L 153.768125 127.962353 
L 154.78267 127.962353 
L 154.78267 124.902011 
L 155.797216 124.902011 
L 155.797216 124.774497 
L 156.811761 124.774497 
L 156.811761 126.623454 
L 157.826307 126.623454 
L 157.826307 128.408653 
L 158.840852 128.408653 
L 158.840852 135.54945 
L 159.855398 135.54945 
L 159.855398 137.52592 
L 160.869943 137.52592 
L 160.869943 143.264061 
L 161.884489 143.264061 
L 161.884489 142.881518 
L 163.91358 142.881518 
L 163.91358 148.874687 
L 164.928125 148.874687 
L 164.928125 151.552486 
L 165.94267 151.552486 
L 165.94267 154.039013 
L 166.957216 154.039013 
L 166.957216 166.790436 
L 167.971761 166.790436 
L 167.971761 169.14945 
L 168.986307 169.14945 
L 168.986307 174.122505 
L 170.000852 174.122505 
L 170.000852 179.860645 
L 171.015398 179.860645 
L 171.015398 188.59537 
L 172.029943 188.59537 
L 172.029943 196.11871 
L 173.044489 196.11871 
L 173.044489 201.85685 
L 174.059034 201.85685 
L 174.059034 205.108463 
L 175.07358 205.108463 
L 175.07358 210.017761 
L 176.088125 210.017761 
L 176.088125 214.67203 
L 177.10267 214.67203 
L 177.10267 217.413586 
L 178.117216 217.413586 
L 178.117216 218.88 
L 182.175398 218.88 
L 182.175398 217.9874 
L 183.189943 217.9874 
L 183.189943 209.252676 
L 184.204489 209.252676 
L 184.204489 189.48797 
L 185.219034 189.48797 
L 185.219034 171.317192 
L 186.23358 171.317192 
L 186.23358 154.166528 
L 187.248125 154.166528 
L 187.248125 149.767287 
L 188.26267 149.767287 
L 188.26267 148.874687 
L 189.277216 148.874687 
L 189.277216 150.851157 
L 190.291761 150.851157 
L 190.291761 152.827628 
L 191.306307 152.827628 
L 191.306307 155.696698 
L 192.320852 155.696698 
L 192.320852 151.998786 
L 193.335398 151.998786 
L 193.335398 155.44167 
L 194.349943 155.44167 
L 194.349943 156.270512 
L 195.364489 156.270512 
L 195.364489 158.820797 
L 196.379034 158.820797 
L 196.379034 155.314156 
L 197.39358 155.314156 
L 197.39358 157.800683 
L 199.42267 157.736926 
L 199.42267 162.837495 
L 200.437216 162.837495 
L 200.437216 159.968425 
L 201.451761 159.968425 
L 201.451761 165.961594 
L 202.466307 165.961594 
L 202.466307 164.877723 
L 203.480852 164.877723 
L 203.480852 163.220038 
L 204.495398 163.220038 
L 204.495398 168.894421 
L 205.509943 168.894421 
L 205.509943 170.807135 
L 206.524489 170.807135 
L 206.524489 171.763491 
L 207.539034 171.763491 
L 207.539034 175.525161 
L 208.55358 175.525161 
L 208.55358 178.266717 
L 209.568125 178.266717 
L 209.568125 179.159317 
L 210.58267 179.159317 
L 210.58267 178.64926 
L 211.597216 178.64926 
L 211.597216 182.155901 
L 212.611761 182.155901 
L 212.611761 184.961214 
L 213.626307 184.961214 
L 213.626307 189.169184 
L 214.640852 189.169184 
L 214.640852 192.229526 
L 215.655398 192.229526 
L 215.655398 191.974497 
L 216.669943 191.974497 
L 216.669943 193.377154 
L 217.684489 193.377154 
L 217.684489 196.182467 
L 218.699034 196.182467 
L 218.699034 198.222694 
L 219.71358 198.222694 
L 219.71358 201.283036 
L 220.728125 201.283036 
L 220.728125 203.450778 
L 221.74267 203.450778 
L 221.74267 205.554763 
L 222.757216 205.554763 
L 222.757216 205.427249 
L 223.771761 205.427249 
L 223.771761 208.806376 
L 224.786307 208.806376 
L 224.786307 211.80296 
L 225.800852 211.80296 
L 225.800852 213.906945 
L 226.815398 213.906945 
L 226.815398 216.839772 
L 227.829943 216.839772 
L 227.829943 218.88 
L 233.917216 218.816243 
L 233.917216 216.074687 
L 234.931761 216.074687 
L 234.931761 210.145275 
L 235.946307 210.145275 
L 235.946307 202.74945 
L 236.960852 202.74945 
L 236.960852 196.11871 
L 237.975398 196.11871 
L 237.975398 188.59537 
L 238.989943 188.59537 
L 238.989943 188.722884 
L 240.004489 188.722884 
L 240.004489 187.830285 
L 241.019034 187.830285 
L 241.019034 192.165769 
L 242.03358 192.165769 
L 242.03358 194.33351 
L 243.048125 194.33351 
L 243.048125 192.038254 
L 244.06267 192.038254 
L 244.06267 196.756281 
L 245.077216 196.756281 
L 245.077216 197.393852 
L 246.091761 197.393852 
L 246.091761 198.796509 
L 247.106307 198.796509 
L 247.106307 197.64888 
L 248.120852 197.64888 
L 248.120852 199.115294 
L 249.135398 199.115294 
L 249.135398 201.601822 
L 250.149943 201.601822 
L 250.149943 202.621935 
L 251.164489 202.621935 
L 251.164489 202.940721 
L 252.179034 202.940721 
L 252.179034 203.769564 
L 253.19358 203.769564 
L 253.19358 204.72592 
L 254.208125 204.72592 
L 254.208125 205.108463 
L 255.22267 205.108463 
L 255.22267 206.574877 
L 256.237216 206.574877 
L 256.237216 207.148691 
L 257.251761 207.148691 
L 257.251761 209.125161 
L 258.266307 209.125161 
L 258.266307 208.615104 
L 259.280852 208.615104 
L 259.280852 209.762732 
L 260.295398 209.762732 
L 260.295398 209.954004 
L 262.324489 209.954004 
L 262.324489 211.101632 
L 263.339034 211.101632 
L 263.339034 212.69556 
L 265.368125 212.759317 
L 265.368125 214.289488 
L 266.38267 214.289488 
L 266.38267 214.67203 
L 267.397216 214.67203 
L 267.397216 214.927059 
L 268.411761 214.927059 
L 268.411761 216.074687 
L 269.426307 216.074687 
L 269.426307 216.265958 
L 270.440852 216.265958 
L 270.440852 217.286072 
L 271.455398 217.286072 
L 271.455398 217.413586 
L 272.469943 217.413586 
L 272.469943 217.9874 
L 273.484489 217.9874 
L 273.484489 218.688729 
L 274.499034 218.688729 
L 274.499034 218.88 
L 280.586307 218.88 
L 280.586307 218.178672 
L 281.600852 218.178672 
L 281.600852 215.883416 
L 282.615398 215.883416 
L 282.615398 210.527818 
L 283.629943 210.527818 
L 283.629943 207.403719 
L 284.644489 207.403719 
L 284.644489 204.980949 
L 285.659034 204.980949 
L 285.659034 204.152106 
L 286.67358 204.152106 
L 286.67358 206.001063 
L 287.688125 206.001063 
L 287.688125 207.531233 
L 288.70267 207.531233 
L 288.70267 204.980949 
L 289.717216 204.980949 
L 289.717216 207.403719 
L 290.731761 207.403719 
L 290.731761 209.507704 
L 291.746307 209.507704 
L 291.746307 208.168805 
L 292.760852 208.168805 
L 292.760852 208.615104 
L 293.775398 208.615104 
L 293.775398 209.252676 
L 294.789943 209.252676 
L 294.789943 210.081518 
L 295.804489 210.081518 
L 295.804489 211.739203 
L 296.819034 211.739203 
L 296.819034 211.101632 
L 297.83358 211.101632 
L 297.83358 209.890247 
L 298.848125 209.890247 
L 298.848125 211.101632 
L 299.86267 211.101632 
L 299.86267 214.161973 
L 300.877216 214.161973 
L 300.877216 212.69556 
L 301.891761 212.69556 
L 301.891761 213.651917 
L 302.906307 213.651917 
L 302.906307 213.14186 
L 303.920852 213.14186 
L 303.920852 214.417002 
L 304.935398 214.417002 
L 304.935398 214.098216 
L 305.949943 214.098216 
L 305.949943 214.225731 
L 306.964489 214.225731 
L 306.964489 215.500873 
L 308.99358 215.56463 
L 308.99358 215.883416 
L 310.008125 215.883416 
L 310.008125 215.437116 
L 311.02267 215.437116 
L 311.02267 216.265958 
L 312.037216 216.265958 
L 312.037216 217.094801 
L 313.051761 217.094801 
L 313.051761 217.668615 
L 315.080852 217.732372 
L 315.080852 218.178672 
L 316.095398 218.178672 
L 316.095398 217.9874 
L 317.109943 217.9874 
L 317.109943 218.688729 
L 318.124489 218.688729 
L 318.124489 218.88 
L 328.269943 218.88 
L 328.269943 218.369943 
L 329.284489 218.369943 
L 329.284489 217.604858 
L 330.299034 217.604858 
L 330.299034 215.500873 
L 331.31358 215.500873 
L 331.31358 211.80296 
L 332.328125 211.80296 
L 332.328125 210.591575 
L 333.34267 210.591575 
L 333.34267 208.296319 
L 334.357216 208.296319 
L 334.357216 202.366907 
L 335.371761 202.366907 
L 335.371761 203.004478 
L 337.400852 203.068235 
L 337.400852 202.430664 
L 338.415398 202.430664 
L 338.415398 202.239393 
L 339.429943 202.239393 
L 339.429943 203.068235 
L 340.444489 203.068235 
L 340.444489 206.192334 
L 341.459034 206.192334 
L 341.459034 202.430664 
L 342.47358 202.430664 
L 342.47358 203.705806 
L 343.488125 203.705806 
L 343.488125 205.554763 
L 344.50267 205.554763 
L 344.50267 204.534649 
L 345.517216 204.534649 
L 345.517216 204.407135 
L 346.531761 204.407135 
L 346.531761 205.61852 
L 347.546307 205.61852 
L 347.546307 205.299734 
L 348.560852 205.299734 
L 348.560852 204.152106 
L 349.575398 204.152106 
L 349.575398 203.705806 
L 350.589943 203.705806 
L 350.589943 206.447362 
L 351.604489 206.447362 
L 351.604489 205.937306 
L 352.619034 205.937306 
L 352.619034 205.235977 
L 353.63358 205.235977 
L 353.63358 207.212448 
L 354.648125 207.212448 
L 354.648125 207.786262 
L 355.66267 207.786262 
L 355.66267 208.551347 
L 356.677216 208.551347 
L 356.677216 209.443947 
L 357.691761 209.443947 
L 357.691761 208.678861 
L 358.706307 208.678861 
L 358.706307 209.188918 
L 359.720852 209.188918 
L 359.720852 208.678861 
L 360.735398 208.678861 
L 360.735398 210.081518 
L 361.749943 210.081518 
L 361.749943 210.782846 
L 362.764489 210.782846 
L 362.764489 211.611689 
L 363.779034 211.611689 
L 363.779034 210.464061 
L 364.79358 210.464061 
L 364.79358 213.078102 
L 365.808125 213.078102 
L 365.808125 212.69556 
L 366.82267 212.69556 
L 366.82267 213.460645 
L 368.851761 213.460645 
L 368.851761 215.245844 
L 369.866307 215.245844 
L 369.866307 215.437116 
L 370.880852 215.437116 
L 370.880852 217.222315 
L 371.895398 217.222315 
L 371.895398 218.114915 
L 372.909943 218.114915 
L 372.909943 218.114915 
" clip-path="url(#p9926c1d90c)" style="fill: none; stroke: #1f77b4; stroke-width: 1.5; stroke-linecap: square"/>
   </g>
   <g id="patch_3">
    <path d="M 53.328125 228.96 
L 53.328125 7.2 
" style="fill: none; stroke: #000000; stroke-width: 0.8; stroke-linejoin: miter; stroke-linecap: square"/>
   </g>
   <g id="patch_4">
    <path d="M 388.128125 228.96 
L 388.128125 7.2 
" style="fill: none; stroke: #000000; stroke-width: 0.8; stroke-linejoin: miter; stroke-linecap: square"/>
   </g>
   <g id="patch_5">
    <path d="M 53.328125 228.96 
L 388.128125 228.96 
" style="fill: none; stroke: #000000; stroke-width: 0.8; stroke-linejoin: miter; stroke-linecap: square"/>
   </g>
   <g id="patch_6">
    <path d="M 53.328125 7.2 
L 388.128125 7.2 
" style="fill: none; stroke: #000000; stroke-width: 0.8; stroke-linejoin: miter; stroke-linecap: square"/>
   </g>
  </g>
 </g>
 <defs>
  <clipPath id="p9926c1d90c">
   <rect x="53.328125" y="7.2" width="334.8" height="221.76"/>
  </clipPath>
 </defs>
</svg>
