<?xml version="1.0" encoding="utf-8" standalone="no"?>
<!DOCTYPE svg PUBLIC "-//W3C//DTD SVG 1.1//EN"
  "http://www.w3.org/Graphics/SVG/1.1/DTD/svg11.dtd">
<svg xmlns:xlink="http://www.w3.org/1999/xlink" width="388.965625pt" height="266.794375pt" viewBox="0 0 388.965625 266.794375" xmlns="http://www.w3.org/2000/svg" version="1.1">
 <metadata>
  <rdf:RDF xmlns:dc="http://purl.org/dc/elements/1.1/" xmlns:cc="http://creativecommons.org/ns#" xmlns:rdf="http://www.w3.org/1999/02/22-rdf-syntax-ns#">
   <cc:Work>
    <dc:type rdf:resource="http://purl.org/dc/dcmitype/StillImage"/>
    <dc:date>2026-05-27T14:57:12.883056</dc:date>
    <dc:format>image/svg+xml</dc:format>
    <dc:creator>
     <cc:Agent>
      <dc:title>Matplotlib v3.10.9, https://matplotlib.org/</dc:title>
     </cc:Agent>
    </dc:creator>
   </cc:Work>
  </rdf:RDF>
 </metadata>
 <defs>
  <style type="text/css">*{stroke-linejoin: round; stroke-linecap: butt}</style>
 </defs>
 <g id="figure_1">
  <g id="patch_1">
   <path d="M 0 266.794375 
L 388.965625 266.794375 
L 388.965625 0 
L 0 0 
z
" style="fill: #ffffff"/>
  </g>
  <g id="axes_1">
   <g id="patch_2">
    <path d="M 46.965625 228.96 
L 381.765625 228.96 
L 381.765625 7.2 
L 46.965625 7.2 
z
" style="fill: #ffffff"/>
   </g>
   <g id="matplotlib.axis_1">
    <g id="xtick_1">
     <g id="line2d_1">
      <defs>
       <path id="m3cc3004745" d="M 0 0 
L 0 3.5 
" style="stroke: #000000; stroke-width: 0.8"/>
      </defs>
      <g>
       <use xlink:href="#m3cc3004745" x="62.178531" y="228.96" style="stroke: #000000; stroke-width: 0.8"/>
      </g>
     </g>
     <g id="text_1">
      <!-- 0 -->
      <g transform="translate(58.997281 243.558437) scale(0.1 -0.1)">
       <defs>
        <path id="DejaVuSans-30" d="M 2034 4250 
Q 1547 4250 1301 3770 
Q 1056 3291 1056 2328 
Q 1056 1369 1301 889 
Q 1547 409 2034 409 
Q 2525 409 2770 889 
Q 3016 1369 3016 2328 
Q 3016 3291 2770 3770 
Q 2525 4250 2034 4250 
z
M 2034 4750 
Q 2819 4750 3233 4129 
Q 3647 3509 3647 2328 
Q 3647 1150 3233 529 
Q 2819 -91 2034 -91 
Q 1250 -91 836 529 
Q 422 1150 422 2328 
Q 422 3509 836 4129 
Q 1250 4750 2034 4750 
z
" transform="scale(0.015625)"/>
       </defs>
       <use xlink:href="#DejaVuSans-30"/>
      </g>
     </g>
    </g>
    <g id="xtick_2">
     <g id="line2d_2">
      <g>
       <use xlink:href="#m3cc3004745" x="104.790752" y="228.96" style="stroke: #000000; stroke-width: 0.8"/>
      </g>
     </g>
     <g id="text_2">
      <!-- 10000 -->
      <g transform="translate(88.884502 243.558437) scale(0.1 -0.1)">
       <defs>
        <path id="DejaVuSans-31" d="M 794 531 
L 1825 531 
L 1825 4091 
L 703 3866 
L 703 4441 
L 1819 4666 
L 2450 4666 
L 2450 531 
L 3481 531 
L 3481 0 
L 794 0 
L 794 531 
z
" transform="scale(0.015625)"/>
       </defs>
       <use xlink:href="#DejaVuSans-31"/>
       <use xlink:href="#DejaVuSans-30" transform="translate(63.623047 0)"/>
       <use xlink:href="#DejaVuSans-30" transform="translate(127.246094 0)"/>
       <use xlink:href="#DejaVuSans-30" transform="translate(190.869141 0)"/>
       <use xlink:href="#DejaVuSans-30" transform="translate(254.492188 0)"/>
      </g>
     </g>
    </g>
    <g id="xtick_3">
     <g id="line2d_3">
      <g>
       <use xlink:href="#m3cc3004745" x="147.402972" y="228.96" style="stroke: #000000; stroke-width: 0.8"/>
      </g>
     </g>
     <g id="text_3">
      <!-- 20000 -->
      <g transform="translate(131.496722 243.558437) scale(0.1 -0.1)">
       <defs>
        <path id="DejaVuSans-32" d="M 1228 531 
L 3431 531 
L 3431 0 
L 469 0 
L 469 531 
Q 828 903 1448 1529 
Q 2069 2156 2228 2338 
Q 2531 2678 2651 2914 
Q 2772 3150 2772 3378 
Q 2772 3750 2511 3984 
Q 2250 4219 1831 4219 
Q 1534 4219 1204 4116 
Q 875 4013 500 3803 
L 500 4441 
Q 881 4594 1212 4672 
Q 1544 4750 1819 4750 
Q 2544 4750 2975 4387 
Q 3406 4025 3406 3419 
Q 3406 3131 3298 2873 
Q 3191 2616 2906 2266 
Q 2828 2175 2409 1742 
Q 1991 1309 1228 531 
z
" transform="scale(0.015625)"/>
       </defs>
       <use xlink:href="#DejaVuSans-32"/>
       <use xlink:href="#DejaVuSans-30" transform="translate(63.623047 0)"/>
       <use xlink:href="#DejaVuSans-30" transform="translate(127.246094 0)"/>
       <use xlink:href="#DejaVuSans-30" transform="translate(190.869141 0)"/>
       <use xlink:href="#DejaVuSans-30" transform="translate(254.492188 0)"/>
      </g>
     </g>
    </g>
    <g id="xtick_4">
     <g id="line2d_4">
      <g>
       <use xlink:href="#m3cc3004745" x="190.015193" y="228.96" style="stroke: #000000; stroke-width: 0.8"/>
      </g>
     </g>
     <g id="text_4">
      <!-- 30000 -->
      <g transform="translate(174.108943 243.558437) scale(0.1 -0.1)">
       <defs>
        <path id="DejaVuSans-33" d="M 2597 2516 
Q 3050 2419 3304 2112 
Q 3559 1806 3559 1356 
Q 3559 666 3084 287 
Q 2609 -91 1734 -91 
Q 1441 -91 1130 -33 
Q 819 25 488 141 
L 488 750 
Q 750 597 1062 519 
Q 1375 441 1716 441 
Q 2309 441 2620 675 
Q 2931 909 2931 1356 
Q 2931 1769 2642 2001 
Q 2353 2234 1838 2234 
L 1294 2234 
L 1294 2753 
L 1863 2753 
Q 2328 2753 2575 2939 
Q 2822 3125 2822 3475 
Q 2822 3834 2567 4026 
Q 2313 4219 1838 4219 
Q 1578 4219 1281 4162 
Q 984 4106 628 3988 
L 628 4550 
Q 988 4650 1302 4700 
Q 1616 4750 1894 4750 
Q 2613 4750 3031 4423 
Q 3450 4097 3450 3541 
Q 3450 3153 3228 2886 
Q 3006 2619 2597 2516 
z
" transform="scale(0.015625)"/>
       </defs>
       <use xlink:href="#DejaVuSans-33"/>
       <use xlink:href="#DejaVuSans-30" transform="translate(63.623047 0)"/>
       <use xlink:href="#DejaVuSans-30" transform="translate(127.246094 0)"/>
       <use xlink:href="#DejaVuSans-30" transform="translate(190.869141 0)"/>
       <use xlink:href="#DejaVuSans-30" transform="translate(254.492188 0)"/>
      </g>
     </g>
    </g>
    <g id="xtick_5">
     <g id="line2d_5">
      <g>
       <use xlink:href="#m3cc3004745" x="232.627414" y="228.96" style="stroke: #000000; stroke-width: 0.8"/>
      </g>
     </g>
     <g id="text_5">
      <!-- 40000 -->
      <g transform="translate(216.721164 243.558437) scale(0.1 -0.1)">
       <defs>
        <path id="DejaVuSans-34" d="M 2419 4116 
L 825 1625 
L 2419 1625 
L 2419 4116 
z
M 2253 4666 
L 3047 4666 
L 3047 1625 
L 3713 1625 
L 3713 1100 
L 3047 1100 
L 3047 0 
L 2419 0 
L 2419 1100 
L 313 1100 
L 313 1709 
L 2253 4666 
z
" transform="scale(0.015625)"/>
       </defs>
       <use xlink:href="#DejaVuSans-34"/>
       <use xlink:href="#DejaVuSans-30" transform="translate(63.623047 0)"/>
       <use xlink:href="#DejaVuSans-30" transform="translate(127.246094 0)"/>
       <use xlink:href="#DejaVuSans-30" transform="translate(190.869141 0)"/>
       <use xlink:href="#DejaVuSans-30" transform="translate(254.492188 0)"/>
      </g>
     </g>
    </g>
    <g id="xtick_6">
     <g id="line2d_6">
      <g>
       <use xlink:href="#m3cc3004745" x="275.239634" y="228.96" style="stroke: #000000; stroke-width: 0.8"/>
      </g>
     </g>
     <g id="text_6">
      <!-- 50000 -->
      <g transform="translate(259.333384 243.558437) scale(0.1 -0.1)">
       <defs>
        <path id="DejaVuSans-35" d="M 691 4666 
L 3169 4666 
L 3169 4134 
L 1269 4134 
L 1269 2991 
Q 1406 3038 1543 3061 
Q 1681 3084 1819 3084 
Q 2600 3084 3056 2656 
Q 3513 2228 3513 1497 
Q 3513 744 3044 326 
Q 2575 -91 1722 -91 
Q 1428 -91 1123 -41 
Q 819 9 494 109 
L 494 744 
Q 775 591 1075 516 
Q 1375 441 1709 441 
Q 2250 441 2565 725 
Q 2881 1009 2881 1497 
Q 2881 1984 2565 2268 
Q 2250 2553 1709 2553 
Q 1456 2553 1204 2497 
Q 953 2441 691 2322 
L 691 4666 
z
" transform="scale(0.015625)"/>
       </defs>
       <use xlink:href="#DejaVuSans-35"/>
       <use xlink:href="#DejaVuSans-30" transform="translate(63.623047 0)"/>
       <use xlink:href="#DejaVuSans-30" transform="translate(127.246094 0)"/>
       <use xlink:href="#DejaVuSans-30" transform="translate(190.869141 0)"/>
       <use xlink:href="#DejaVuSans-30" transform="translate(254.492188 0)"/>
      </g>
     </g>
    </g>
    <g id="xtick_7">
     <g id="line2d_7">
      <g>
       <use xlink:href="#m3cc3004745" x="317.851855" y="228.96" style="stroke: #000000; stroke-width: 0.8"/>
      </g>
     </g>
     <g id="text_7">
      <!-- 60000 -->
      <g transform="translate(301.945605 243.558437) scale(0.1 -0.1)">
       <defs>
        <path id="DejaVuSans-36" d="M 2113 2584 
Q 1688 2584 1439 2293 
Q 1191 2003 1191 1497 
Q 1191 994 1439 701 
Q 1688 409 2113 409 
Q 2538 409 2786 701 
Q 3034 994 3034 1497 
Q 3034 2003 2786 2293 
Q 2538 2584 2113 2584 
z
M 3366 4563 
L 3366 3988 
Q 3128 4100 2886 4159 
Q 2644 4219 2406 4219 
Q 1781 4219 1451 3797 
Q 1122 3375 1075 2522 
Q 1259 2794 1537 2939 
Q 1816 3084 2150 3084 
Q 2853 3084 3261 2657 
Q 3669 2231 3669 1497 
Q 3669 778 3244 343 
Q 2819 -91 2113 -91 
Q 1303 -91 875 529 
Q 447 1150 447 2328 
Q 447 3434 972 4092 
Q 1497 4750 2381 4750 
Q 2619 4750 2861 4703 
Q 3103 4656 3366 4563 
z
" transform="scale(0.015625)"/>
       </defs>
       <use xlink:href="#DejaVuSans-36"/>
       <use xlink:href="#DejaVuSans-30" transform="translate(63.623047 0)"/>
       <use xlink:href="#DejaVuSans-30" transform="translate(127.246094 0)"/>
       <use xlink:href="#DejaVuSans-30" transform="translate(190.869141 0)"/>
       <use xlink:href="#DejaVuSans-30" transform="translate(254.492188 0)"/>
      </g>
     </g>
    </g>
    <g id="xtick_8">
     <g id="line2d_8">
      <g>
       <use xlink:href="#m3cc3004745" x="360.464076" y="228.96" style="stroke: #000000; stroke-width: 0.8"/>
      </g>
     </g>
     <g id="text_8">
      <!-- 70000 -->
      <g transform="translate(344.557826 243.558437) scale(0.1 -0.1)">
       <defs>
        <path id="DejaVuSans-37" d="M 525 4666 
L 3525 4666 
L 3525 4397 
L 1831 0 
L 1172 0 
L 2766 4134 
L 525 4134 
L 525 4666 
z
" transform="scale(0.015625)"/>
       </defs>
       <use xlink:href="#DejaVuSans-37"/>
       <use xlink:href="#DejaVuSans-30" transform="translate(63.623047 0)"/>
       <use xlink:href="#DejaVuSans-30" transform="translate(127.246094 0)"/>
       <use xlink:href="#DejaVuSans-30" transform="translate(190.869141 0)"/>
       <use xlink:href="#DejaVuSans-30" transform="translate(254.492188 0)"/>
      </g>
     </g>
    </g>
    <g id="text_9">
     <!-- event_time_offset [µs] -->
     <g transform="translate(158.330469 257.236562) scale(0.1 -0.1)">
      <defs>
       <path id="DejaVuSans-65" d="M 3597 1894 
L 3597 1613 
L 953 1613 
Q 991 1019 1311 708 
Q 1631 397 2203 397 
Q 2534 397 2845 478 
Q 3156 559 3463 722 
L 3463 178 
Q 3153 47 2828 -22 
Q 2503 -91 2169 -91 
Q 1331 -91 842 396 
Q 353 884 353 1716 
Q 353 2575 817 3079 
Q 1281 3584 2069 3584 
Q 2775 3584 3186 3129 
Q 3597 2675 3597 1894 
z
M 3022 2063 
Q 3016 2534 2758 2815 
Q 2500 3097 2075 3097 
Q 1594 3097 1305 2825 
Q 1016 2553 972 2059 
L 3022 2063 
z
" transform="scale(0.015625)"/>
       <path id="DejaVuSans-76" d="M 191 3500 
L 800 3500 
L 1894 563 
L 2988 3500 
L 3597 3500 
L 2284 0 
L 1503 0 
L 191 3500 
z
" transform="scale(0.015625)"/>
       <path id="DejaVuSans-6e" d="M 3513 2113 
L 3513 0 
L 2938 0 
L 2938 2094 
Q 2938 2591 2744 2837 
Q 2550 3084 2163 3084 
Q 1697 3084 1428 2787 
Q 1159 2491 1159 1978 
L 1159 0 
L 581 0 
L 581 3500 
L 1159 3500 
L 1159 2956 
Q 1366 3272 1645 3428 
Q 1925 3584 2291 3584 
Q 2894 3584 3203 3211 
Q 3513 2838 3513 2113 
z
" transform="scale(0.015625)"/>
       <path id="DejaVuSans-74" d="M 1172 4494 
L 1172 3500 
L 2356 3500 
L 2356 3053 
L 1172 3053 
L 1172 1153 
Q 1172 725 1289 603 
Q 1406 481 1766 481 
L 2356 481 
L 2356 0 
L 1766 0 
Q 1100 0 847 248 
Q 594 497 594 1153 
L 594 3053 
L 172 3053 
L 172 3500 
L 594 3500 
L 594 4494 
L 1172 4494 
z
" transform="scale(0.015625)"/>
       <path id="DejaVuSans-5f" d="M 3263 -1063 
L 3263 -1509 
L -63 -1509 
L -63 -1063 
L 3263 -1063 
z
" transform="scale(0.015625)"/>
       <path id="DejaVuSans-69" d="M 603 3500 
L 1178 3500 
L 1178 0 
L 603 0 
L 603 3500 
z
M 603 4863 
L 1178 4863 
L 1178 4134 
L 603 4134 
L 603 4863 
z
" transform="scale(0.015625)"/>
       <path id="DejaVuSans-6d" d="M 3328 2828 
Q 3544 3216 3844 3400 
Q 4144 3584 4550 3584 
Q 5097 3584 5394 3201 
Q 5691 2819 5691 2113 
L 5691 0 
L 5113 0 
L 5113 2094 
Q 5113 2597 4934 2840 
Q 4756 3084 4391 3084 
Q 3944 3084 3684 2787 
Q 3425 2491 3425 1978 
L 3425 0 
L 2847 0 
L 2847 2094 
Q 2847 2600 2669 2842 
Q 2491 3084 2119 3084 
Q 1678 3084 1418 2786 
Q 1159 2488 1159 1978 
L 1159 0 
L 581 0 
L 581 3500 
L 1159 3500 
L 1159 2956 
Q 1356 3278 1631 3431 
Q 1906 3584 2284 3584 
Q 2666 3584 2933 3390 
Q 3200 3197 3328 2828 
z
" transform="scale(0.015625)"/>
       <path id="DejaVuSans-6f" d="M 1959 3097 
Q 1497 3097 1228 2736 
Q 959 2375 959 1747 
Q 959 1119 1226 758 
Q 1494 397 1959 397 
Q 2419 397 2687 759 
Q 2956 1122 2956 1747 
Q 2956 2369 2687 2733 
Q 2419 3097 1959 3097 
z
M 1959 3584 
Q 2709 3584 3137 3096 
Q 3566 2609 3566 1747 
Q 3566 888 3137 398 
Q 2709 -91 1959 -91 
Q 1206 -91 779 398 
Q 353 888 353 1747 
Q 353 2609 779 3096 
Q 1206 3584 1959 3584 
z
" transform="scale(0.015625)"/>
       <path id="DejaVuSans-66" d="M 2375 4863 
L 2375 4384 
L 1825 4384 
Q 1516 4384 1395 4259 
Q 1275 4134 1275 3809 
L 1275 3500 
L 2222 3500 
L 2222 3053 
L 1275 3053 
L 1275 0 
L 697 0 
L 697 3053 
L 147 3053 
L 147 3500 
L 697 3500 
L 697 3744 
Q 697 4328 969 4595 
Q 1241 4863 1831 4863 
L 2375 4863 
z
" transform="scale(0.015625)"/>
       <path id="DejaVuSans-73" d="M 2834 3397 
L 2834 2853 
Q 2591 2978 2328 3040 
Q 2066 3103 1784 3103 
Q 1356 3103 1142 2972 
Q 928 2841 928 2578 
Q 928 2378 1081 2264 
Q 1234 2150 1697 2047 
L 1894 2003 
Q 2506 1872 2764 1633 
Q 3022 1394 3022 966 
Q 3022 478 2636 193 
Q 2250 -91 1575 -91 
Q 1294 -91 989 -36 
Q 684 19 347 128 
L 347 722 
Q 666 556 975 473 
Q 1284 391 1588 391 
Q 1994 391 2212 530 
Q 2431 669 2431 922 
Q 2431 1156 2273 1281 
Q 2116 1406 1581 1522 
L 1381 1569 
Q 847 1681 609 1914 
Q 372 2147 372 2553 
Q 372 3047 722 3315 
Q 1072 3584 1716 3584 
Q 2034 3584 2315 3537 
Q 2597 3491 2834 3397 
z
" transform="scale(0.015625)"/>
       <path id="DejaVuSans-20" transform="scale(0.015625)"/>
       <path id="DejaVuSans-5b" d="M 550 4863 
L 1875 4863 
L 1875 4416 
L 1125 4416 
L 1125 -397 
L 1875 -397 
L 1875 -844 
L 550 -844 
L 550 4863 
z
" transform="scale(0.015625)"/>
       <path id="DejaVuSans-b5" d="M 544 -1331 
L 544 3500 
L 1119 3500 
L 1119 1325 
Q 1119 872 1334 640 
Q 1550 409 1972 409 
Q 2434 409 2667 671 
Q 2900 934 2900 1459 
L 2900 3500 
L 3475 3500 
L 3475 806 
Q 3475 619 3529 530 
Q 3584 441 3700 441 
Q 3728 441 3778 458 
Q 3828 475 3916 513 
L 3916 50 
Q 3788 -22 3673 -56 
Q 3559 -91 3450 -91 
Q 3234 -91 3106 31 
Q 2978 153 2931 403 
Q 2775 156 2548 32 
Q 2322 -91 2016 -91 
Q 1697 -91 1473 31 
Q 1250 153 1119 397 
L 1119 -1331 
L 544 -1331 
z
" transform="scale(0.015625)"/>
       <path id="DejaVuSans-5d" d="M 1947 4863 
L 1947 -844 
L 622 -844 
L 622 -397 
L 1369 -397 
L 1369 4416 
L 622 4416 
L 622 4863 
L 1947 4863 
z
" transform="scale(0.015625)"/>
      </defs>
      <use xlink:href="#DejaVuSans-65"/>
      <use xlink:href="#DejaVuSans-76" transform="translate(61.523438 0)"/>
      <use xlink:href="#DejaVuSans-65" transform="translate(120.703125 0)"/>
      <use xlink:href="#DejaVuSans-6e" transform="translate(182.226562 0)"/>
      <use xlink:href="#DejaVuSans-74" transform="translate(245.605469 0)"/>
      <use xlink:href="#DejaVuSans-5f" transform="translate(284.814453 0)"/>
      <use xlink:href="#DejaVuSans-74" transform="translate(334.814453 0)"/>
      <use xlink:href="#DejaVuSans-69" transform="translate(374.023438 0)"/>
      <use xlink:href="#DejaVuSans-6d" transform="translate(401.806641 0)"/>
      <use xlink:href="#DejaVuSans-65" transform="translate(499.21875 0)"/>
      <use xlink:href="#DejaVuSans-5f" transform="translate(560.742188 0)"/>
      <use xlink:href="#DejaVuSans-6f" transform="translate(610.742188 0)"/>
      <use xlink:href="#DejaVuSans-66" transform="translate(671.923828 0)"/>
      <use xlink:href="#DejaVuSans-66" transform="translate(707.128906 0)"/>
      <use xlink:href="#DejaVuSans-73" transform="translate(742.333984 0)"/>
      <use xlink:href="#DejaVuSans-65" transform="translate(794.433594 0)"/>
      <use xlink:href="#DejaVuSans-74" transform="translate(855.957031 0)"/>
      <use xlink:href="#DejaVuSans-20" transform="translate(895.166016 0)"/>
      <use xlink:href="#DejaVuSans-5b" transform="translate(926.953125 0)"/>
      <use xlink:href="#DejaVuSans-b5" transform="translate(965.966797 0)"/>
      <use xlink:href="#DejaVuSans-73" transform="translate(1029.589844 0)"/>
      <use xlink:href="#DejaVuSans-5d" transform="translate(1081.689453 0)"/>
     </g>
    </g>
   </g>
   <g id="matplotlib.axis_2">
    <g id="ytick_1">
     <g id="line2d_9">
      <defs>
       <path id="mba83df3237" d="M 0 0 
L -3.5 0 
" style="stroke: #000000; stroke-width: 0.8"/>
      </defs>
      <g>
       <use xlink:href="#mba83df3237" x="46.965625" y="218.88" style="stroke: #000000; stroke-width: 0.8"/>
      </g>
     </g>
     <g id="text_10">
      <!-- 0 -->
      <g transform="translate(33.603125 222.679219) scale(0.1 -0.1)">
       <use xlink:href="#DejaVuSans-30"/>
      </g>
     </g>
    </g>
    <g id="ytick_2">
     <g id="line2d_10">
      <g>
       <use xlink:href="#mba83df3237" x="46.965625" y="184.418462" style="stroke: #000000; stroke-width: 0.8"/>
      </g>
     </g>
     <g id="text_11">
      <!-- 100 -->
      <g transform="translate(20.878125 188.21768) scale(0.1 -0.1)">
       <use xlink:href="#DejaVuSans-31"/>
       <use xlink:href="#DejaVuSans-30" transform="translate(63.623047 0)"/>
       <use xlink:href="#DejaVuSans-30" transform="translate(127.246094 0)"/>
      </g>
     </g>
    </g>
    <g id="ytick_3">
     <g id="line2d_11">
      <g>
       <use xlink:href="#mba83df3237" x="46.965625" y="149.956923" style="stroke: #000000; stroke-width: 0.8"/>
      </g>
     </g>
     <g id="text_12">
      <!-- 200 -->
      <g transform="translate(20.878125 153.756142) scale(0.1 -0.1)">
       <use xlink:href="#DejaVuSans-32"/>
       <use xlink:href="#DejaVuSans-30" transform="translate(63.623047 0)"/>
       <use xlink:href="#DejaVuSans-30" transform="translate(127.246094 0)"/>
      </g>
     </g>
    </g>
    <g id="ytick_4">
     <g id="line2d_12">
      <g>
       <use xlink:href="#mba83df3237" x="46.965625" y="115.495385" style="stroke: #000000; stroke-width: 0.8"/>
      </g>
     </g>
     <g id="text_13">
      <!-- 300 -->
      <g transform="translate(20.878125 119.294603) scale(0.1 -0.1)">
       <use xlink:href="#DejaVuSans-33"/>
       <use xlink:href="#DejaVuSans-30" transform="translate(63.623047 0)"/>
       <use xlink:href="#DejaVuSans-30" transform="translate(127.246094 0)"/>
      </g>
     </g>
    </g>
    <g id="ytick_5">
     <g id="line2d_13">
      <g>
       <use xlink:href="#mba83df3237" x="46.965625" y="81.033846" style="stroke: #000000; stroke-width: 0.8"/>
      </g>
     </g>
     <g id="text_14">
      <!-- 400 -->
      <g transform="translate(20.878125 84.833065) scale(0.1 -0.1)">
       <use xlink:href="#DejaVuSans-34"/>
       <use xlink:href="#DejaVuSans-30" transform="translate(63.623047 0)"/>
       <use xlink:href="#DejaVuSans-30" transform="translate(127.246094 0)"/>
      </g>
     </g>
    </g>
    <g id="ytick_6">
     <g id="line2d_14">
      <g>
       <use xlink:href="#mba83df3237" x="46.965625" y="46.572308" style="stroke: #000000; stroke-width: 0.8"/>
      </g>
     </g>
     <g id="text_15">
      <!-- 500 -->
      <g transform="translate(20.878125 50.371526) scale(0.1 -0.1)">
       <use xlink:href="#DejaVuSans-35"/>
       <use xlink:href="#DejaVuSans-30" transform="translate(63.623047 0)"/>
       <use xlink:href="#DejaVuSans-30" transform="translate(127.246094 0)"/>
      </g>
     </g>
    </g>
    <g id="ytick_7">
     <g id="line2d_15">
      <g>
       <use xlink:href="#mba83df3237" x="46.965625" y="12.110769" style="stroke: #000000; stroke-width: 0.8"/>
      </g>
     </g>
     <g id="text_16">
      <!-- 600 -->
      <g transform="translate(20.878125 15.909988) scale(0.1 -0.1)">
       <use xlink:href="#DejaVuSans-36"/>
       <use xlink:href="#DejaVuSans-30" transform="translate(63.623047 0)"/>
       <use xlink:href="#DejaVuSans-30" transform="translate(127.246094 0)"/>
      </g>
     </g>
    </g>
    <g id="text_17">
     <!-- [counts] -->
     <g transform="translate(14.798438 138.6925) rotate(-90) scale(0.1 -0.1)">
      <defs>
       <path id="DejaVuSans-63" d="M 3122 3366 
L 3122 2828 
Q 2878 2963 2633 3030 
Q 2388 3097 2138 3097 
Q 1578 3097 1268 2742 
Q 959 2388 959 1747 
Q 959 1106 1268 751 
Q 1578 397 2138 397 
Q 2388 397 2633 464 
Q 2878 531 3122 666 
L 3122 134 
Q 2881 22 2623 -34 
Q 2366 -91 2075 -91 
Q 1284 -91 818 406 
Q 353 903 353 1747 
Q 353 2603 823 3093 
Q 1294 3584 2113 3584 
Q 2378 3584 2631 3529 
Q 2884 3475 3122 3366 
z
" transform="scale(0.015625)"/>
       <path id="DejaVuSans-75" d="M 544 1381 
L 544 3500 
L 1119 3500 
L 1119 1403 
Q 1119 906 1312 657 
Q 1506 409 1894 409 
Q 2359 409 2629 706 
Q 2900 1003 2900 1516 
L 2900 3500 
L 3475 3500 
L 3475 0 
L 2900 0 
L 2900 538 
Q 2691 219 2414 64 
Q 2138 -91 1772 -91 
Q 1169 -91 856 284 
Q 544 659 544 1381 
z
M 1991 3584 
L 1991 3584 
z
" transform="scale(0.015625)"/>
      </defs>
      <use xlink:href="#DejaVuSans-5b"/>
      <use xlink:href="#DejaVuSans-63" transform="translate(39.013672 0)"/>
      <use xlink:href="#DejaVuSans-6f" transform="translate(93.994141 0)"/>
      <use xlink:href="#DejaVuSans-75" transform="translate(155.175781 0)"/>
      <use xlink:href="#DejaVuSans-6e" transform="translate(218.554688 0)"/>
      <use xlink:href="#DejaVuSans-74" transform="translate(281.933594 0)"/>
      <use xlink:href="#DejaVuSans-73" transform="translate(321.142578 0)"/>
      <use xlink:href="#DejaVuSans-5d" transform="translate(373.242188 0)"/>
     </g>
    </g>
   </g>
   <g id="line2d_16">
    <path d="M 62.183807 119.630769 
L 63.198352 119.630769 
L 63.198352 126.178462 
L 64.212898 126.178462 
L 64.212898 124.8 
L 65.227443 124.8 
L 65.227443 118.596923 
L 66.241989 118.596923 
L 66.241989 128.246154 
L 67.256534 128.246154 
L 67.256534 122.732308 
L 68.27108 122.732308 
L 68.27108 133.415385 
L 69.285625 133.415385 
L 69.285625 124.455385 
L 70.30017 124.455385 
L 70.30017 133.415385 
L 71.314716 133.415385 
L 71.314716 136.861538 
L 72.329261 136.861538 
L 72.329261 138.24 
L 73.343807 138.24 
L 73.343807 119.286154 
L 74.358352 119.286154 
L 74.358352 135.827692 
L 75.372898 135.827692 
L 75.372898 133.070769 
L 76.387443 133.070769 
L 76.387443 136.516923 
L 77.401989 136.516923 
L 77.401989 138.584615 
L 78.416534 138.584615 
L 78.416534 132.036923 
L 79.43108 132.036923 
L 79.43108 148.923077 
L 80.445625 148.923077 
L 80.445625 147.889231 
L 81.46017 147.889231 
L 81.46017 143.064615 
L 82.474716 143.064615 
L 82.474716 139.963077 
L 83.489261 139.963077 
L 83.489261 147.544615 
L 84.503807 147.544615 
L 84.503807 154.092308 
L 85.518352 154.092308 
L 85.518352 139.963077 
L 86.532898 139.963077 
L 86.532898 147.544615 
L 87.547443 147.544615 
L 87.547443 150.301538 
L 88.561989 150.301538 
L 88.561989 153.058462 
L 89.576534 153.058462 
L 89.576534 154.781538 
L 90.59108 154.781538 
L 90.59108 156.16 
L 91.605625 156.16 
L 91.605625 157.538462 
L 92.62017 157.538462 
L 92.62017 155.815385 
L 93.634716 155.815385 
L 93.634716 160.295385 
L 94.649261 160.295385 
L 94.649261 159.950769 
L 95.663807 159.950769 
L 95.663807 162.018462 
L 96.678352 162.018462 
L 96.678352 172.012308 
L 97.692898 172.012308 
L 97.692898 162.707692 
L 98.707443 162.707692 
L 98.707443 165.809231 
L 99.721989 165.809231 
L 99.721989 161.673846 
L 100.736534 161.673846 
L 100.736534 174.08 
L 101.75108 174.08 
L 101.75108 175.113846 
L 102.765625 175.113846 
L 102.765625 179.938462 
L 103.78017 179.938462 
L 103.78017 176.836923 
L 104.794716 176.836923 
L 104.794716 179.249231 
L 105.809261 179.249231 
L 105.809261 180.283077 
L 106.823807 180.283077 
L 106.823807 183.04 
L 107.838352 183.04 
L 107.838352 186.141538 
L 108.852898 186.141538 
L 108.852898 190.966154 
L 109.867443 190.966154 
L 109.867443 188.209231 
L 110.881989 188.209231 
L 110.881989 195.101538 
L 111.896534 195.101538 
L 111.896534 196.48 
L 112.91108 196.48 
L 112.91108 188.553846 
L 113.925625 188.553846 
L 113.925625 194.756923 
L 114.94017 194.756923 
L 114.94017 196.824615 
L 115.954716 196.824615 
L 115.954716 194.067692 
L 116.969261 194.067692 
L 116.969261 200.615385 
L 117.983807 200.615385 
L 117.983807 206.129231 
L 118.998352 206.129231 
L 118.998352 205.095385 
L 120.012898 205.095385 
L 120.012898 205.784615 
L 121.027443 205.784615 
L 121.027443 207.852308 
L 122.041989 207.852308 
L 122.041989 207.507692 
L 123.056534 207.507692 
L 123.056534 209.92 
L 124.07108 209.92 
L 124.07108 211.298462 
L 125.085625 211.298462 
L 125.085625 211.643077 
L 126.10017 211.643077 
L 126.10017 212.676923 
L 127.114716 212.676923 
L 127.114716 216.812308 
L 128.129261 216.812308 
L 128.129261 217.156923 
L 129.143807 217.156923 
L 129.143807 216.123077 
L 130.158352 216.123077 
L 130.158352 217.156923 
L 131.172898 217.156923 
L 131.172898 217.501538 
L 132.187443 217.501538 
L 132.187443 218.535385 
L 133.201989 218.535385 
L 133.201989 218.88 
L 135.23108 218.88 
L 135.23108 218.535385 
L 136.245625 218.535385 
L 136.245625 218.88 
L 149.434716 218.88 
L 149.434716 216.123077 
L 150.449261 216.123077 
L 150.449261 211.298462 
L 151.463807 211.298462 
L 151.463807 208.886154 
L 152.478352 208.886154 
L 152.478352 202.683077 
L 153.492898 202.683077 
L 153.492898 190.276923 
L 154.507443 190.276923 
L 154.507443 190.621538 
L 155.521989 190.621538 
L 155.521989 188.553846 
L 156.536534 188.553846 
L 156.536534 186.830769 
L 157.55108 186.830769 
L 157.55108 179.593846 
L 158.565625 179.593846 
L 158.565625 172.701538 
L 159.58017 172.701538 
L 159.58017 168.910769 
L 160.594716 168.910769 
L 160.594716 157.193846 
L 161.609261 157.193846 
L 161.609261 155.815385 
L 162.623807 155.815385 
L 162.623807 146.510769 
L 163.638352 146.510769 
L 163.638352 137.206154 
L 164.652898 137.206154 
L 164.652898 130.658462 
L 165.667443 130.658462 
L 165.667443 137.550769 
L 166.681989 137.550769 
L 166.681989 123.421538 
L 167.696534 123.421538 
L 167.696534 113.427692 
L 168.71108 113.427692 
L 168.71108 104.123077 
L 169.725625 104.123077 
L 169.725625 113.772308 
L 170.74017 113.772308 
L 170.74017 109.981538 
L 171.754716 109.981538 
L 171.754716 111.015385 
L 172.769261 111.015385 
L 172.769261 94.473846 
L 173.783807 94.473846 
L 173.783807 96.196923 
L 174.798352 96.196923 
L 174.798352 93.784615 
L 175.812898 93.784615 
L 175.812898 83.446154 
L 176.827443 83.446154 
L 176.827443 89.649231 
L 177.841989 89.649231 
L 177.841989 72.763077 
L 178.856534 72.763077 
L 178.856534 57.6 
L 179.87108 57.6 
L 179.87108 68.283077 
L 180.885625 68.283077 
L 180.885625 65.526154 
L 181.90017 65.526154 
L 181.90017 70.006154 
L 182.914716 70.006154 
L 182.914716 49.673846 
L 183.929261 49.673846 
L 183.929261 60.356923 
L 184.943807 60.356923 
L 184.943807 62.08 
L 185.958352 62.08 
L 185.958352 46.572308 
L 186.972898 46.572308 
L 186.972898 37.956923 
L 187.987443 37.956923 
L 187.987443 32.787692 
L 189.001989 32.787692 
L 189.001989 22.104615 
L 190.016534 22.104615 
L 190.016534 36.578462 
L 191.03108 36.578462 
L 191.03108 39.68 
L 192.045625 39.68 
L 192.045625 29.686154 
L 193.06017 29.686154 
L 193.06017 35.544615 
L 194.074716 35.544615 
L 194.074716 22.793846 
L 195.089261 22.793846 
L 195.089261 17.28 
L 196.103807 17.28 
L 196.103807 42.092308 
L 197.118352 42.092308 
L 197.118352 33.821538 
L 198.132898 33.821538 
L 198.132898 32.443077 
L 199.147443 32.443077 
L 199.147443 57.255385 
L 200.161989 57.255385 
L 200.161989 41.747692 
L 201.176534 41.747692 
L 201.176534 59.667692 
L 202.19108 59.667692 
L 202.19108 34.166154 
L 203.205625 34.166154 
L 203.205625 34.855385 
L 204.22017 34.855385 
L 204.22017 50.018462 
L 205.234716 50.018462 
L 205.234716 50.707692 
L 206.249261 50.707692 
L 206.249261 46.227692 
L 207.263807 46.227692 
L 207.263807 61.046154 
L 208.278352 61.046154 
L 208.278352 42.436923 
L 209.292898 42.436923 
L 209.292898 57.944615 
L 210.307443 57.944615 
L 210.307443 59.667692 
L 211.321989 59.667692 
L 211.321989 58.978462 
L 212.336534 58.978462 
L 212.336534 60.012308 
L 214.365625 60.012308 
L 214.365625 61.390769 
L 215.38017 61.390769 
L 215.38017 50.018462 
L 216.394716 50.018462 
L 216.394716 58.978462 
L 217.409261 58.978462 
L 217.409261 70.006154 
L 218.423807 70.006154 
L 218.423807 77.243077 
L 219.438352 77.243077 
L 219.438352 67.249231 
L 220.452898 67.249231 
L 220.452898 64.492308 
L 221.467443 64.492308 
L 221.467443 82.412308 
L 222.481989 82.412308 
L 222.481989 85.858462 
L 223.496534 85.858462 
L 223.496534 65.526154 
L 224.51108 65.526154 
L 224.51108 58.633846 
L 225.525625 58.633846 
L 225.525625 66.56 
L 226.54017 66.56 
L 226.54017 72.763077 
L 227.554716 72.763077 
L 227.554716 64.492308 
L 228.569261 64.492308 
L 228.569261 77.243077 
L 229.583807 77.243077 
L 229.583807 64.836923 
L 230.598352 64.836923 
L 230.598352 66.56 
L 231.612898 66.56 
L 231.612898 80 
L 232.627443 80 
L 232.627443 70.350769 
L 233.641989 70.350769 
L 233.641989 73.107692 
L 234.656534 73.107692 
L 234.656534 67.249231 
L 235.67108 67.249231 
L 235.67108 75.175385 
L 236.685625 75.175385 
L 236.685625 71.729231 
L 237.70017 71.729231 
L 237.70017 87.581538 
L 238.714716 87.581538 
L 238.714716 74.830769 
L 239.729261 74.830769 
L 239.729261 80.344615 
L 240.743807 80.344615 
L 240.743807 84.135385 
L 241.758352 84.135385 
L 241.758352 81.378462 
L 242.772898 81.378462 
L 242.772898 70.350769 
L 243.787443 70.350769 
L 243.787443 71.384615 
L 244.801989 71.384615 
L 244.801989 70.006154 
L 245.816534 70.006154 
L 245.816534 91.372308 
L 246.83108 91.372308 
L 246.83108 73.796923 
L 247.845625 73.796923 
L 247.845625 72.763077 
L 248.86017 72.763077 
L 248.86017 85.513846 
L 249.874716 85.513846 
L 249.874716 82.067692 
L 250.889261 82.067692 
L 250.889261 91.027692 
L 251.903807 91.027692 
L 251.903807 99.298462 
L 252.918352 99.298462 
L 252.918352 107.913846 
L 253.932898 107.913846 
L 253.932898 93.095385 
L 254.947443 93.095385 
L 254.947443 96.541538 
L 255.961989 96.541538 
L 255.961989 105.501538 
L 256.976534 105.501538 
L 256.976534 107.224615 
L 257.99108 107.224615 
L 257.99108 111.36 
L 259.005625 111.36 
L 259.005625 118.252308 
L 260.02017 118.252308 
L 260.02017 111.015385 
L 261.034716 111.015385 
L 261.034716 117.218462 
L 262.049261 117.218462 
L 262.049261 126.178462 
L 263.063807 126.178462 
L 263.063807 136.516923 
L 264.078352 136.516923 
L 264.078352 143.409231 
L 265.092898 143.409231 
L 265.092898 148.923077 
L 266.107443 148.923077 
L 266.107443 152.369231 
L 267.121989 152.369231 
L 267.121989 159.606154 
L 268.136534 159.606154 
L 268.136534 163.741538 
L 269.15108 163.741538 
L 269.15108 166.153846 
L 270.165625 166.153846 
L 270.165625 174.08 
L 271.18017 174.08 
L 271.18017 177.870769 
L 272.194716 177.870769 
L 272.194716 178.56 
L 273.209261 178.56 
L 273.209261 182.350769 
L 274.223807 182.350769 
L 274.223807 180.627692 
L 275.238352 180.627692 
L 275.238352 185.452308 
L 276.252898 185.452308 
L 276.252898 195.446154 
L 277.267443 195.446154 
L 277.267443 203.027692 
L 278.281989 203.027692 
L 278.281989 199.926154 
L 279.296534 199.926154 
L 279.296534 203.372308 
L 280.31108 203.372308 
L 280.31108 206.818462 
L 281.325625 206.818462 
L 281.325625 211.643077 
L 282.34017 211.643077 
L 282.34017 211.987692 
L 283.354716 211.987692 
L 283.354716 214.055385 
L 284.369261 214.055385 
L 284.369261 217.156923 
L 285.383807 217.156923 
L 285.383807 217.501538 
L 287.412898 217.501538 
L 287.412898 218.88 
L 298.572898 218.88 
L 298.572898 215.433846 
L 299.587443 215.433846 
L 299.587443 213.710769 
L 300.601989 213.710769 
L 300.601989 204.750769 
L 301.616534 204.750769 
L 301.616534 202.683077 
L 302.63108 202.683077 
L 302.63108 198.892308 
L 303.645625 198.892308 
L 303.645625 196.135385 
L 304.66017 196.135385 
L 304.66017 187.175385 
L 305.674716 187.175385 
L 305.674716 187.864615 
L 306.689261 187.864615 
L 306.689261 180.627692 
L 307.703807 180.627692 
L 307.703807 175.803077 
L 308.718352 175.803077 
L 308.718352 173.735385 
L 309.732898 173.735385 
L 309.732898 165.809231 
L 310.747443 165.809231 
L 310.747443 168.566154 
L 311.761989 168.566154 
L 311.761989 148.923077 
L 312.776534 148.923077 
L 312.776534 155.470769 
L 313.79108 155.470769 
L 313.79108 155.126154 
L 314.805625 155.126154 
L 314.805625 157.883077 
L 315.82017 157.883077 
L 315.82017 149.956923 
L 316.834716 149.956923 
L 316.834716 151.68 
L 317.849261 151.68 
L 317.849261 145.821538 
L 318.863807 145.821538 
L 318.863807 137.550769 
L 319.878352 137.550769 
L 319.878352 132.381538 
L 320.892898 132.381538 
L 320.892898 129.28 
L 321.907443 129.28 
L 321.907443 133.76 
L 322.921989 133.76 
L 322.921989 131.003077 
L 323.936534 131.003077 
L 323.936534 132.036923 
L 324.95108 132.036923 
L 324.95108 130.313846 
L 325.965625 130.313846 
L 325.965625 131.692308 
L 326.98017 131.692308 
L 326.98017 111.36 
L 327.994716 111.36 
L 327.994716 115.84 
L 329.009261 115.84 
L 329.009261 122.732308 
L 330.023807 122.732308 
L 330.023807 115.495385 
L 331.038352 115.495385 
L 331.038352 122.043077 
L 332.052898 122.043077 
L 332.052898 114.461538 
L 333.067443 114.461538 
L 333.067443 98.609231 
L 334.081989 98.609231 
L 334.081989 98.953846 
L 335.096534 98.953846 
L 335.096534 102.055385 
L 336.11108 102.055385 
L 336.11108 97.230769 
L 337.125625 97.230769 
L 337.125625 92.406154 
L 338.14017 92.406154 
L 338.14017 107.913846 
L 339.154716 107.913846 
L 339.154716 94.129231 
L 340.169261 94.129231 
L 340.169261 88.96 
L 341.183807 88.96 
L 341.183807 94.473846 
L 342.198352 94.473846 
L 342.198352 96.886154 
L 343.212898 96.886154 
L 343.212898 107.569231 
L 344.227443 107.569231 
L 344.227443 86.203077 
L 346.256534 86.203077 
L 346.256534 96.541538 
L 347.27108 96.541538 
L 347.27108 106.88 
L 348.285625 106.88 
L 348.285625 96.541538 
L 349.30017 96.541538 
L 349.30017 102.055385 
L 350.314716 102.055385 
L 350.314716 92.061538 
L 351.329261 92.061538 
L 351.329261 117.218462 
L 352.343807 117.218462 
L 352.343807 105.156923 
L 353.358352 105.156923 
L 353.358352 117.218462 
L 354.372898 117.218462 
L 354.372898 98.264615 
L 355.387443 98.264615 
L 355.387443 111.704615 
L 356.401989 111.704615 
L 356.401989 113.427692 
L 357.416534 113.427692 
L 357.416534 113.083077 
L 358.43108 113.083077 
L 358.43108 107.224615 
L 359.445625 107.224615 
L 359.445625 117.907692 
L 360.46017 117.907692 
L 360.46017 110.326154 
L 361.474716 110.326154 
L 361.474716 119.975385 
L 362.489261 119.975385 
L 362.489261 117.907692 
L 363.503807 117.907692 
L 363.503807 108.258462 
L 364.518352 108.258462 
L 364.518352 120.664615 
L 365.532898 120.664615 
L 365.532898 105.501538 
L 366.547443 105.501538 
L 366.547443 105.501538 
" clip-path="url(#p5eced271e3)" style="fill: none; stroke: #1f77b4; stroke-width: 1.5; stroke-linecap: square"/>
   </g>
   <g id="line2d_17">
    <path d="M 62.183807 130.313846 
L 63.198352 130.313846 
L 63.198352 123.421538 
L 64.212898 123.421538 
L 64.212898 132.036923 
L 65.227443 132.036923 
L 65.227443 137.895385 
L 66.241989 137.895385 
L 66.241989 124.455385 
L 67.256534 124.455385 
L 67.256534 129.28 
L 68.27108 129.28 
L 68.27108 128.935385 
L 69.285625 128.935385 
L 69.285625 136.172308 
L 70.30017 136.172308 
L 70.30017 133.415385 
L 71.314716 133.415385 
L 71.314716 138.24 
L 72.329261 138.24 
L 72.329261 135.483077 
L 73.343807 135.483077 
L 73.343807 148.923077 
L 74.358352 148.923077 
L 74.358352 142.72 
L 75.372898 142.72 
L 75.372898 137.895385 
L 76.387443 137.895385 
L 76.387443 147.889231 
L 77.401989 147.889231 
L 77.401989 152.713846 
L 78.416534 152.713846 
L 78.416534 134.793846 
L 79.43108 134.793846 
L 79.43108 146.510769 
L 80.445625 146.510769 
L 80.445625 149.267692 
L 81.46017 149.267692 
L 81.46017 150.646154 
L 82.474716 150.646154 
L 82.474716 153.058462 
L 83.489261 153.058462 
L 83.489261 155.470769 
L 84.503807 155.470769 
L 84.503807 154.436923 
L 85.518352 154.436923 
L 85.518352 157.538462 
L 86.532898 157.538462 
L 86.532898 159.261538 
L 87.547443 159.261538 
L 87.547443 154.781538 
L 88.561989 154.781538 
L 88.561989 165.12 
L 89.576534 165.12 
L 89.576534 171.667692 
L 90.59108 171.667692 
L 90.59108 158.916923 
L 91.605625 158.916923 
L 91.605625 162.707692 
L 92.62017 162.707692 
L 92.62017 165.809231 
L 93.634716 165.809231 
L 93.634716 174.424615 
L 94.649261 174.424615 
L 94.649261 170.978462 
L 95.663807 170.978462 
L 95.663807 181.316923 
L 96.678352 181.316923 
L 96.678352 175.113846 
L 97.692898 175.113846 
L 97.692898 178.56 
L 98.707443 178.56 
L 98.707443 184.073846 
L 99.721989 184.073846 
L 99.721989 179.938462 
L 100.736534 179.938462 
L 100.736534 185.452308 
L 101.75108 185.452308 
L 101.75108 193.033846 
L 102.765625 193.033846 
L 102.765625 189.243077 
L 103.78017 189.243077 
L 103.78017 195.101538 
L 104.794716 195.101538 
L 104.794716 189.243077 
L 105.809261 189.243077 
L 105.809261 194.756923 
L 106.823807 194.756923 
L 106.823807 196.135385 
L 107.838352 196.135385 
L 107.838352 192 
L 108.852898 192 
L 108.852898 198.892308 
L 109.867443 198.892308 
L 109.867443 204.750769 
L 111.896534 204.750769 
L 111.896534 205.44 
L 112.91108 205.44 
L 112.91108 205.784615 
L 113.925625 205.784615 
L 113.925625 207.507692 
L 114.94017 207.507692 
L 114.94017 209.92 
L 116.969261 209.92 
L 116.969261 212.332308 
L 117.983807 212.332308 
L 117.983807 211.643077 
L 118.998352 211.643077 
L 118.998352 216.467692 
L 120.012898 216.467692 
L 120.012898 217.156923 
L 121.027443 217.156923 
L 121.027443 215.778462 
L 122.041989 215.778462 
L 122.041989 217.156923 
L 124.07108 217.156923 
L 124.07108 218.535385 
L 125.085625 218.535385 
L 125.085625 218.88 
L 127.114716 218.88 
L 127.114716 218.535385 
L 128.129261 218.535385 
L 128.129261 218.88 
L 147.405625 218.88 
L 147.405625 217.846154 
L 148.42017 217.846154 
L 148.42017 212.332308 
L 149.434716 212.332308 
L 149.434716 209.230769 
L 150.449261 209.230769 
L 150.449261 205.095385 
L 151.463807 205.095385 
L 151.463807 194.067692 
L 152.478352 194.067692 
L 152.478352 187.175385 
L 153.492898 187.175385 
L 153.492898 188.898462 
L 155.521989 188.898462 
L 155.521989 179.593846 
L 156.536534 179.593846 
L 156.536534 169.944615 
L 157.55108 169.944615 
L 157.55108 171.667692 
L 158.565625 171.667692 
L 158.565625 154.781538 
L 159.58017 154.781538 
L 159.58017 155.470769 
L 160.594716 155.470769 
L 160.594716 147.2 
L 161.609261 147.2 
L 161.609261 134.793846 
L 162.623807 134.793846 
L 162.623807 128.246154 
L 163.638352 128.246154 
L 163.638352 135.483077 
L 164.652898 135.483077 
L 164.652898 120.32 
L 165.667443 120.32 
L 165.667443 109.292308 
L 166.681989 109.292308 
L 166.681989 103.433846 
L 167.696534 103.433846 
L 167.696534 109.981538 
L 168.71108 109.981538 
L 168.71108 105.501538 
L 169.725625 105.501538 
L 169.725625 108.603077 
L 170.74017 108.603077 
L 170.74017 95.163077 
L 171.754716 95.163077 
L 171.754716 92.750769 
L 172.769261 92.750769 
L 172.769261 86.892308 
L 173.783807 86.892308 
L 173.783807 78.621538 
L 174.798352 78.621538 
L 174.798352 86.203077 
L 175.812898 86.203077 
L 175.812898 66.56 
L 176.827443 66.56 
L 176.827443 57.255385 
L 177.841989 57.255385 
L 177.841989 59.667692 
L 178.856534 59.667692 
L 178.856534 60.701538 
L 179.87108 60.701538 
L 179.87108 56.910769 
L 180.885625 56.910769 
L 180.885625 54.153846 
L 181.90017 54.153846 
L 181.90017 61.735385 
L 182.914716 61.735385 
L 182.914716 39.68 
L 183.929261 39.68 
L 183.929261 45.193846 
L 184.943807 45.193846 
L 184.943807 23.827692 
L 185.958352 23.827692 
L 185.958352 30.375385 
L 186.972898 30.375385 
L 186.972898 22.449231 
L 187.987443 22.449231 
L 187.987443 33.476923 
L 189.001989 33.476923 
L 189.001989 23.138462 
L 190.016534 23.138462 
L 190.016534 36.578462 
L 191.03108 36.578462 
L 191.03108 20.036923 
L 192.045625 20.036923 
L 192.045625 18.313846 
L 193.06017 18.313846 
L 193.06017 23.827692 
L 194.074716 23.827692 
L 194.074716 34.166154 
L 195.089261 34.166154 
L 195.089261 28.652308 
L 196.103807 28.652308 
L 196.103807 50.707692 
L 197.118352 50.707692 
L 197.118352 37.612308 
L 198.132898 37.612308 
L 198.132898 48.64 
L 199.147443 48.64 
L 199.147443 43.126154 
L 200.161989 43.126154 
L 200.161989 26.584615 
L 201.176534 26.584615 
L 201.176534 43.470769 
L 202.19108 43.470769 
L 202.19108 47.606154 
L 203.205625 47.606154 
L 203.205625 42.092308 
L 204.22017 42.092308 
L 204.22017 54.153846 
L 205.234716 54.153846 
L 205.234716 39.68 
L 206.249261 39.68 
L 206.249261 53.12 
L 207.263807 53.12 
L 207.263807 59.323077 
L 208.278352 59.323077 
L 208.278352 48.295385 
L 209.292898 48.295385 
L 209.292898 60.012308 
L 210.307443 60.012308 
L 210.307443 57.255385 
L 211.321989 57.255385 
L 211.321989 54.843077 
L 212.336534 54.843077 
L 212.336534 42.781538 
L 213.35108 42.781538 
L 213.35108 68.283077 
L 214.365625 68.283077 
L 214.365625 61.735385 
L 215.38017 61.735385 
L 215.38017 68.972308 
L 216.394716 68.972308 
L 216.394716 67.249231 
L 217.409261 67.249231 
L 217.409261 70.350769 
L 218.423807 70.350769 
L 218.423807 72.763077 
L 219.438352 72.763077 
L 219.438352 78.621538 
L 220.452898 78.621538 
L 220.452898 55.876923 
L 221.467443 55.876923 
L 221.467443 64.147692 
L 222.481989 64.147692 
L 222.481989 63.803077 
L 223.496534 63.803077 
L 223.496534 68.283077 
L 224.51108 68.283077 
L 224.51108 65.526154 
L 225.525625 65.526154 
L 225.525625 66.215385 
L 226.54017 66.215385 
L 226.54017 60.012308 
L 227.554716 60.012308 
L 227.554716 64.836923 
L 228.569261 64.836923 
L 228.569261 73.796923 
L 229.583807 73.796923 
L 229.583807 70.350769 
L 230.598352 70.350769 
L 230.598352 64.836923 
L 231.612898 64.836923 
L 231.612898 76.898462 
L 232.627443 76.898462 
L 232.627443 63.458462 
L 233.641989 63.458462 
L 233.641989 80 
L 234.656534 80 
L 234.656534 68.972308 
L 235.67108 68.972308 
L 235.67108 80 
L 236.685625 80 
L 236.685625 80.344615 
L 237.70017 80.344615 
L 237.70017 82.756923 
L 238.714716 82.756923 
L 238.714716 65.181538 
L 239.729261 65.181538 
L 239.729261 71.384615 
L 240.743807 71.384615 
L 240.743807 63.113846 
L 241.758352 63.113846 
L 241.758352 82.412308 
L 242.772898 82.412308 
L 242.772898 75.864615 
L 243.787443 75.864615 
L 243.787443 70.695385 
L 244.801989 70.695385 
L 244.801989 77.243077 
L 245.816534 77.243077 
L 245.816534 81.033846 
L 246.83108 81.033846 
L 246.83108 88.615385 
L 247.845625 88.615385 
L 247.845625 96.541538 
L 248.86017 96.541538 
L 248.86017 104.467692 
L 249.874716 104.467692 
L 249.874716 90.683077 
L 250.889261 90.683077 
L 250.889261 95.163077 
L 251.903807 95.163077 
L 251.903807 98.609231 
L 252.918352 98.609231 
L 252.918352 106.190769 
L 253.932898 106.190769 
L 253.932898 114.461538 
L 254.947443 114.461538 
L 254.947443 112.393846 
L 255.961989 112.393846 
L 255.961989 107.913846 
L 256.976534 107.913846 
L 256.976534 118.596923 
L 257.99108 118.596923 
L 257.99108 127.556923 
L 259.005625 127.556923 
L 259.005625 132.726154 
L 260.02017 132.726154 
L 260.02017 146.166154 
L 261.034716 146.166154 
L 261.034716 146.510769 
L 262.049261 146.510769 
L 262.049261 155.815385 
L 263.063807 155.815385 
L 263.063807 159.261538 
L 264.078352 159.261538 
L 264.078352 160.984615 
L 265.092898 160.984615 
L 265.092898 170.289231 
L 266.107443 170.289231 
L 266.107443 174.424615 
L 267.121989 174.424615 
L 267.121989 177.870769 
L 268.136534 177.870769 
L 268.136534 179.249231 
L 269.15108 179.249231 
L 269.15108 178.904615 
L 270.165625 178.904615 
L 270.165625 184.763077 
L 271.18017 184.763077 
L 271.18017 189.587692 
L 272.194716 189.587692 
L 272.194716 199.581538 
L 273.209261 199.581538 
L 273.209261 198.203077 
L 274.223807 198.203077 
L 274.223807 203.372308 
L 275.238352 203.372308 
L 275.238352 205.44 
L 276.252898 205.44 
L 276.252898 210.264615 
L 277.267443 210.264615 
L 277.267443 210.609231 
L 278.281989 210.609231 
L 278.281989 214.055385 
L 279.296534 214.055385 
L 279.296534 215.778462 
L 280.31108 215.778462 
L 280.31108 217.846154 
L 282.34017 217.846154 
L 282.34017 218.190769 
L 283.354716 218.190769 
L 283.354716 218.88 
L 293.50017 218.88 
L 293.50017 215.778462 
L 294.514716 215.778462 
L 294.514716 214.744615 
L 295.529261 214.744615 
L 295.529261 206.473846 
L 296.543807 206.473846 
L 296.543807 203.027692 
L 297.558352 203.027692 
L 297.558352 198.203077 
L 298.572898 198.203077 
L 298.572898 195.446154 
L 299.587443 195.446154 
L 299.587443 187.52 
L 300.601989 187.52 
L 300.601989 186.141538 
L 301.616534 186.141538 
L 301.616534 180.283077 
L 302.63108 180.283077 
L 302.63108 175.458462 
L 303.645625 175.458462 
L 303.645625 172.356923 
L 304.66017 172.356923 
L 304.66017 163.052308 
L 305.674716 163.052308 
L 305.674716 167.532308 
L 306.689261 167.532308 
L 306.689261 146.510769 
L 307.703807 146.510769 
L 307.703807 155.126154 
L 308.718352 155.126154 
L 308.718352 152.713846 
L 309.732898 152.713846 
L 309.732898 156.16 
L 310.747443 156.16 
L 310.747443 144.443077 
L 311.761989 144.443077 
L 311.761989 154.092308 
L 312.776534 154.092308 
L 312.776534 140.652308 
L 313.79108 140.652308 
L 313.79108 135.483077 
L 314.805625 135.483077 
L 314.805625 129.28 
L 315.82017 129.28 
L 315.82017 129.969231 
L 316.834716 129.969231 
L 316.834716 126.178462 
L 317.849261 126.178462 
L 317.849261 132.726154 
L 318.863807 132.726154 
L 318.863807 129.969231 
L 319.878352 129.969231 
L 319.878352 122.387692 
L 320.892898 122.387692 
L 320.892898 127.212308 
L 321.907443 127.212308 
L 321.907443 104.812308 
L 322.921989 104.812308 
L 322.921989 118.941538 
L 323.936534 118.941538 
L 323.936534 113.083077 
L 324.95108 113.083077 
L 324.95108 120.32 
L 325.965625 120.32 
L 325.965625 119.286154 
L 326.98017 119.286154 
L 326.98017 96.541538 
L 327.994716 96.541538 
L 327.994716 98.953846 
L 329.009261 98.953846 
L 329.009261 96.196923 
L 330.023807 96.196923 
L 330.023807 99.643077 
L 331.038352 99.643077 
L 331.038352 90.683077 
L 332.052898 90.683077 
L 332.052898 96.886154 
L 333.067443 96.886154 
L 333.067443 96.196923 
L 334.081989 96.196923 
L 334.081989 87.581538 
L 335.096534 87.581538 
L 335.096534 92.061538 
L 336.11108 92.061538 
L 336.11108 93.095385 
L 337.125625 93.095385 
L 337.125625 103.778462 
L 338.14017 103.778462 
L 338.14017 83.446154 
L 339.154716 83.446154 
L 339.154716 86.892308 
L 340.169261 86.892308 
L 340.169261 91.372308 
L 341.183807 91.372308 
L 341.183807 103.433846 
L 342.198352 103.433846 
L 342.198352 93.44 
L 343.212898 93.44 
L 343.212898 96.196923 
L 344.227443 96.196923 
L 344.227443 89.304615 
L 345.241989 89.304615 
L 345.241989 115.84 
L 346.256534 115.84 
L 346.256534 102.4 
L 347.27108 102.4 
L 347.27108 112.738462 
L 348.285625 112.738462 
L 348.285625 96.541538 
L 349.30017 96.541538 
L 349.30017 110.670769 
L 350.314716 110.670769 
L 350.314716 111.704615 
L 351.329261 111.704615 
L 351.329261 108.258462 
L 352.343807 108.258462 
L 352.343807 102.4 
L 353.358352 102.4 
L 353.358352 120.664615 
L 354.372898 120.664615 
L 354.372898 106.88 
L 355.387443 106.88 
L 355.387443 115.150769 
L 356.401989 115.150769 
L 356.401989 114.461538 
L 357.416534 114.461538 
L 357.416534 110.670769 
L 358.43108 110.670769 
L 358.43108 112.393846 
L 359.445625 112.393846 
L 359.445625 110.670769 
L 360.46017 110.670769 
L 360.46017 118.596923 
L 361.474716 118.596923 
L 361.474716 126.178462 
L 362.489261 126.178462 
L 362.489261 117.563077 
L 363.503807 117.563077 
L 363.503807 121.009231 
L 364.518352 121.009231 
L 364.518352 123.076923 
L 365.532898 123.076923 
L 365.532898 122.043077 
L 366.547443 122.043077 
L 366.547443 122.043077 
" clip-path="url(#p5eced271e3)" style="fill: none; stroke: #ff7f0e; stroke-width: 1.5; stroke-linecap: square"/>
   </g>
   <g id="patch_3">
    <path d="M 46.965625 228.96 
L 46.965625 7.2 
" style="fill: none; stroke: #000000; stroke-width: 0.8; stroke-linejoin: miter; stroke-linecap: square"/>
   </g>
   <g id="patch_4">
    <path d="M 381.765625 228.96 
L 381.765625 7.2 
" style="fill: none; stroke: #000000; stroke-width: 0.8; stroke-linejoin: miter; stroke-linecap: square"/>
   </g>
   <g id="patch_5">
    <path d="M 46.965625 228.96 
L 381.765625 228.96 
" style="fill: none; stroke: #000000; stroke-width: 0.8; stroke-linejoin: miter; stroke-linecap: square"/>
   </g>
   <g id="patch_6">
    <path d="M 46.965625 7.2 
L 381.765625 7.2 
" style="fill: none; stroke: #000000; stroke-width: 0.8; stroke-linejoin: miter; stroke-linecap: square"/>
   </g>
   <g id="legend_1">
    <g id="patch_7">
     <path d="M 246.957813 45.1125 
L 374.765625 45.1125 
Q 376.765625 45.1125 376.765625 43.1125 
L 376.765625 14.2 
Q 376.765625 12.2 374.765625 12.2 
L 246.957813 12.2 
Q 244.957813 12.2 244.957813 14.2 
L 244.957813 43.1125 
Q 244.957813 45.1125 246.957813 45.1125 
z
" style="fill: #ffffff; opacity: 0.8; stroke: #cccccc; stroke-linejoin: miter"/>
    </g>
    <g id="line2d_18">
     <path d="M 248.957813 20.298437 
L 248.957813 20.298437 
L 258.957813 20.298437 
L 258.957813 20.298437 
L 268.957813 20.298437 
" style="fill: none; stroke: #1f77b4; stroke-width: 1.5; stroke-linecap: square"/>
    </g>
    <g id="text_18">
     <!-- detector_number:0 -->
     <g transform="translate(276.957813 23.798437) scale(0.1 -0.1)">
      <defs>
       <path id="DejaVuSans-64" d="M 2906 2969 
L 2906 4863 
L 3481 4863 
L 3481 0 
L 2906 0 
L 2906 525 
Q 2725 213 2448 61 
Q 2172 -91 1784 -91 
Q 1150 -91 751 415 
Q 353 922 353 1747 
Q 353 2572 751 3078 
Q 1150 3584 1784 3584 
Q 2172 3584 2448 3432 
Q 2725 3281 2906 2969 
z
M 947 1747 
Q 947 1113 1208 752 
Q 1469 391 1925 391 
Q 2381 391 2643 752 
Q 2906 1113 2906 1747 
Q 2906 2381 2643 2742 
Q 2381 3103 1925 3103 
Q 1469 3103 1208 2742 
Q 947 2381 947 1747 
z
" transform="scale(0.015625)"/>
       <path id="DejaVuSans-72" d="M 2631 2963 
Q 2534 3019 2420 3045 
Q 2306 3072 2169 3072 
Q 1681 3072 1420 2755 
Q 1159 2438 1159 1844 
L 1159 0 
L 581 0 
L 581 3500 
L 1159 3500 
L 1159 2956 
Q 1341 3275 1631 3429 
Q 1922 3584 2338 3584 
Q 2397 3584 2469 3576 
Q 2541 3569 2628 3553 
L 2631 2963 
z
" transform="scale(0.015625)"/>
       <path id="DejaVuSans-62" d="M 3116 1747 
Q 3116 2381 2855 2742 
Q 2594 3103 2138 3103 
Q 1681 3103 1420 2742 
Q 1159 2381 1159 1747 
Q 1159 1113 1420 752 
Q 1681 391 2138 391 
Q 2594 391 2855 752 
Q 3116 1113 3116 1747 
z
M 1159 2969 
Q 1341 3281 1617 3432 
Q 1894 3584 2278 3584 
Q 2916 3584 3314 3078 
Q 3713 2572 3713 1747 
Q 3713 922 3314 415 
Q 2916 -91 2278 -91 
Q 1894 -91 1617 61 
Q 1341 213 1159 525 
L 1159 0 
L 581 0 
L 581 4863 
L 1159 4863 
L 1159 2969 
z
" transform="scale(0.015625)"/>
       <path id="DejaVuSans-3a" d="M 750 794 
L 1409 794 
L 1409 0 
L 750 0 
L 750 794 
z
M 750 3309 
L 1409 3309 
L 1409 2516 
L 750 2516 
L 750 3309 
z
" transform="scale(0.015625)"/>
      </defs>
      <use xlink:href="#DejaVuSans-64"/>
      <use xlink:href="#DejaVuSans-65" transform="translate(63.476562 0)"/>
      <use xlink:href="#DejaVuSans-74" transform="translate(125 0)"/>
      <use xlink:href="#DejaVuSans-65" transform="translate(164.208984 0)"/>
      <use xlink:href="#DejaVuSans-63" transform="translate(225.732422 0)"/>
      <use xlink:href="#DejaVuSans-74" transform="translate(280.712891 0)"/>
      <use xlink:href="#DejaVuSans-6f" transform="translate(319.921875 0)"/>
      <use xlink:href="#DejaVuSans-72" transform="translate(381.103516 0)"/>
      <use xlink:href="#DejaVuSans-5f" transform="translate(422.216797 0)"/>
      <use xlink:href="#DejaVuSans-6e" transform="translate(472.216797 0)"/>
      <use xlink:href="#DejaVuSans-75" transform="translate(535.595703 0)"/>
      <use xlink:href="#DejaVuSans-6d" transform="translate(598.974609 0)"/>
      <use xlink:href="#DejaVuSans-62" transform="translate(696.386719 0)"/>
      <use xlink:href="#DejaVuSans-65" transform="translate(759.863281 0)"/>
      <use xlink:href="#DejaVuSans-72" transform="translate(821.386719 0)"/>
      <use xlink:href="#DejaVuSans-3a" transform="translate(860.75 0)"/>
      <use xlink:href="#DejaVuSans-30" transform="translate(894.441406 0)"/>
     </g>
    </g>
    <g id="line2d_19">
     <path d="M 248.957813 35.254687 
L 248.957813 35.254687 
L 258.957813 35.254687 
L 258.957813 35.254687 
L 268.957813 35.254687 
" style="fill: none; stroke: #ff7f0e; stroke-width: 1.5; stroke-linecap: square"/>
    </g>
    <g id="text_19">
     <!-- detector_number:1 -->
     <g transform="translate(276.957813 38.754687) scale(0.1 -0.1)">
      <use xlink:href="#DejaVuSans-64"/>
      <use xlink:href="#DejaVuSans-65" transform="translate(63.476562 0)"/>
      <use xlink:href="#DejaVuSans-74" transform="translate(125 0)"/>
      <use xlink:href="#DejaVuSans-65" transform="translate(164.208984 0)"/>
      <use xlink:href="#DejaVuSans-63" transform="translate(225.732422 0)"/>
      <use xlink:href="#DejaVuSans-74" transform="translate(280.712891 0)"/>
      <use xlink:href="#DejaVuSans-6f" transform="translate(319.921875 0)"/>
      <use xlink:href="#DejaVuSans-72" transform="translate(381.103516 0)"/>
      <use xlink:href="#DejaVuSans-5f" transform="translate(422.216797 0)"/>
      <use xlink:href="#DejaVuSans-6e" transform="translate(472.216797 0)"/>
      <use xlink:href="#DejaVuSans-75" transform="translate(535.595703 0)"/>
      <use xlink:href="#DejaVuSans-6d" transform="translate(598.974609 0)"/>
      <use xlink:href="#DejaVuSans-62" transform="translate(696.386719 0)"/>
      <use xlink:href="#DejaVuSans-65" transform="translate(759.863281 0)"/>
      <use xlink:href="#DejaVuSans-72" transform="translate(821.386719 0)"/>
      <use xlink:href="#DejaVuSans-3a" transform="translate(860.75 0)"/>
      <use xlink:href="#DejaVuSans-31" transform="translate(894.441406 0)"/>
     </g>
    </g>
   </g>
  </g>
 </g>
 <defs>
  <clipPath id="p5eced271e3">
   <rect x="46.965625" y="7.2" width="334.8" height="221.76"/>
  </clipPath>
 </defs>
</svg>
