<?xml version="1.0" encoding="utf-8" standalone="no"?>
<!DOCTYPE svg PUBLIC "-//W3C//DTD SVG 1.1//EN"
  "http://www.w3.org/Graphics/SVG/1.1/DTD/svg11.dtd">
<svg xmlns:xlink="http://www.w3.org/1999/xlink" width="388.965625pt" height="267.106365pt" viewBox="0 0 388.965625 267.106365" xmlns="http://www.w3.org/2000/svg" version="1.1">
 <metadata>
  <rdf:RDF xmlns:dc="http://purl.org/dc/elements/1.1/" xmlns:cc="http://creativecommons.org/ns#" xmlns:rdf="http://www.w3.org/1999/02/22-rdf-syntax-ns#">
   <cc:Work>
    <dc:type rdf:resource="http://purl.org/dc/dcmitype/StillImage"/>
    <dc:date>2026-06-04T11:42:22.967303</dc:date>
    <dc:format>image/svg+xml</dc:format>
    <dc:creator>
     <cc:Agent>
      <dc:title>Matplotlib v3.10.9, https://matplotlib.org/</dc:title>
     </cc:Agent>
    </dc:creator>
   </cc:Work>
  </rdf:RDF>
 </metadata>
 <defs>
  <style type="text/css">*{stroke-linejoin: round; stroke-linecap: butt}</style>
 </defs>
 <g id="figure_1">
  <g id="patch_1">
   <path d="M 0 267.106365 
L 388.965625 267.106365 
L 388.965625 0 
L 0 0 
z
" style="fill: #ffffff"/>
  </g>
  <g id="axes_1">
   <g id="patch_2">
    <path d="M 46.965625 229.27199 
L 381.765625 229.27199 
L 381.765625 7.51199 
L 46.965625 7.51199 
z
" style="fill: #ffffff"/>
   </g>
   <g id="matplotlib.axis_1">
    <g id="xtick_1">
     <g id="line2d_1">
      <defs>
       <path id="mf26ccd1a3f" d="M 0 0 
L 0 3.5 
" style="stroke: #000000; stroke-width: 0.8"/>
      </defs>
      <g>
       <use xlink:href="#mf26ccd1a3f" x="62.17925" y="229.27199" style="stroke: #000000; stroke-width: 0.8"/>
      </g>
     </g>
     <g id="text_1">
      <!-- 0 -->
      <g transform="translate(58.998 243.870427) scale(0.1 -0.1)">
       <defs>
        <path id="DejaVuSans-30" d="M 2034 4250 
Q 1547 4250 1301 3770 
Q 1056 3291 1056 2328 
Q 1056 1369 1301 889 
Q 1547 409 2034 409 
Q 2525 409 2770 889 
Q 3016 1369 3016 2328 
Q 3016 3291 2770 3770 
Q 2525 4250 2034 4250 
z
M 2034 4750 
Q 2819 4750 3233 4129 
Q 3647 3509 3647 2328 
Q 3647 1150 3233 529 
Q 2819 -91 2034 -91 
Q 1250 -91 836 529 
Q 422 1150 422 2328 
Q 422 3509 836 4129 
Q 1250 4750 2034 4750 
z
" transform="scale(0.015625)"/>
       </defs>
       <use xlink:href="#DejaVuSans-30"/>
      </g>
     </g>
    </g>
    <g id="xtick_2">
     <g id="line2d_2">
      <g>
       <use xlink:href="#mf26ccd1a3f" x="104.790878" y="229.27199" style="stroke: #000000; stroke-width: 0.8"/>
      </g>
     </g>
     <g id="text_2">
      <!-- 10000 -->
      <g transform="translate(88.884628 243.870427) scale(0.1 -0.1)">
       <defs>
        <path id="DejaVuSans-31" d="M 794 531 
L 1825 531 
L 1825 4091 
L 703 3866 
L 703 4441 
L 1819 4666 
L 2450 4666 
L 2450 531 
L 3481 531 
L 3481 0 
L 794 0 
L 794 531 
z
" transform="scale(0.015625)"/>
       </defs>
       <use xlink:href="#DejaVuSans-31"/>
       <use xlink:href="#DejaVuSans-30" transform="translate(63.623047 0)"/>
       <use xlink:href="#DejaVuSans-30" transform="translate(127.246094 0)"/>
       <use xlink:href="#DejaVuSans-30" transform="translate(190.869141 0)"/>
       <use xlink:href="#DejaVuSans-30" transform="translate(254.492188 0)"/>
      </g>
     </g>
    </g>
    <g id="xtick_3">
     <g id="line2d_3">
      <g>
       <use xlink:href="#mf26ccd1a3f" x="147.402506" y="229.27199" style="stroke: #000000; stroke-width: 0.8"/>
      </g>
     </g>
     <g id="text_3">
      <!-- 20000 -->
      <g transform="translate(131.496256 243.870427) scale(0.1 -0.1)">
       <defs>
        <path id="DejaVuSans-32" d="M 1228 531 
L 3431 531 
L 3431 0 
L 469 0 
L 469 531 
Q 828 903 1448 1529 
Q 2069 2156 2228 2338 
Q 2531 2678 2651 2914 
Q 2772 3150 2772 3378 
Q 2772 3750 2511 3984 
Q 2250 4219 1831 4219 
Q 1534 4219 1204 4116 
Q 875 4013 500 3803 
L 500 4441 
Q 881 4594 1212 4672 
Q 1544 4750 1819 4750 
Q 2544 4750 2975 4387 
Q 3406 4025 3406 3419 
Q 3406 3131 3298 2873 
Q 3191 2616 2906 2266 
Q 2828 2175 2409 1742 
Q 1991 1309 1228 531 
z
" transform="scale(0.015625)"/>
       </defs>
       <use xlink:href="#DejaVuSans-32"/>
       <use xlink:href="#DejaVuSans-30" transform="translate(63.623047 0)"/>
       <use xlink:href="#DejaVuSans-30" transform="translate(127.246094 0)"/>
       <use xlink:href="#DejaVuSans-30" transform="translate(190.869141 0)"/>
       <use xlink:href="#DejaVuSans-30" transform="translate(254.492188 0)"/>
      </g>
     </g>
    </g>
    <g id="xtick_4">
     <g id="line2d_4">
      <g>
       <use xlink:href="#mf26ccd1a3f" x="190.014134" y="229.27199" style="stroke: #000000; stroke-width: 0.8"/>
      </g>
     </g>
     <g id="text_4">
      <!-- 30000 -->
      <g transform="translate(174.107884 243.870427) scale(0.1 -0.1)">
       <defs>
        <path id="DejaVuSans-33" d="M 2597 2516 
Q 3050 2419 3304 2112 
Q 3559 1806 3559 1356 
Q 3559 666 3084 287 
Q 2609 -91 1734 -91 
Q 1441 -91 1130 -33 
Q 819 25 488 141 
L 488 750 
Q 750 597 1062 519 
Q 1375 441 1716 441 
Q 2309 441 2620 675 
Q 2931 909 2931 1356 
Q 2931 1769 2642 2001 
Q 2353 2234 1838 2234 
L 1294 2234 
L 1294 2753 
L 1863 2753 
Q 2328 2753 2575 2939 
Q 2822 3125 2822 3475 
Q 2822 3834 2567 4026 
Q 2313 4219 1838 4219 
Q 1578 4219 1281 4162 
Q 984 4106 628 3988 
L 628 4550 
Q 988 4650 1302 4700 
Q 1616 4750 1894 4750 
Q 2613 4750 3031 4423 
Q 3450 4097 3450 3541 
Q 3450 3153 3228 2886 
Q 3006 2619 2597 2516 
z
" transform="scale(0.015625)"/>
       </defs>
       <use xlink:href="#DejaVuSans-33"/>
       <use xlink:href="#DejaVuSans-30" transform="translate(63.623047 0)"/>
       <use xlink:href="#DejaVuSans-30" transform="translate(127.246094 0)"/>
       <use xlink:href="#DejaVuSans-30" transform="translate(190.869141 0)"/>
       <use xlink:href="#DejaVuSans-30" transform="translate(254.492188 0)"/>
      </g>
     </g>
    </g>
    <g id="xtick_5">
     <g id="line2d_5">
      <g>
       <use xlink:href="#mf26ccd1a3f" x="232.625762" y="229.27199" style="stroke: #000000; stroke-width: 0.8"/>
      </g>
     </g>
     <g id="text_5">
      <!-- 40000 -->
      <g transform="translate(216.719512 243.870427) scale(0.1 -0.1)">
       <defs>
        <path id="DejaVuSans-34" d="M 2419 4116 
L 825 1625 
L 2419 1625 
L 2419 4116 
z
M 2253 4666 
L 3047 4666 
L 3047 1625 
L 3713 1625 
L 3713 1100 
L 3047 1100 
L 3047 0 
L 2419 0 
L 2419 1100 
L 313 1100 
L 313 1709 
L 2253 4666 
z
" transform="scale(0.015625)"/>
       </defs>
       <use xlink:href="#DejaVuSans-34"/>
       <use xlink:href="#DejaVuSans-30" transform="translate(63.623047 0)"/>
       <use xlink:href="#DejaVuSans-30" transform="translate(127.246094 0)"/>
       <use xlink:href="#DejaVuSans-30" transform="translate(190.869141 0)"/>
       <use xlink:href="#DejaVuSans-30" transform="translate(254.492188 0)"/>
      </g>
     </g>
    </g>
    <g id="xtick_6">
     <g id="line2d_6">
      <g>
       <use xlink:href="#mf26ccd1a3f" x="275.23739" y="229.27199" style="stroke: #000000; stroke-width: 0.8"/>
      </g>
     </g>
     <g id="text_6">
      <!-- 50000 -->
      <g transform="translate(259.33114 243.870427) scale(0.1 -0.1)">
       <defs>
        <path id="DejaVuSans-35" d="M 691 4666 
L 3169 4666 
L 3169 4134 
L 1269 4134 
L 1269 2991 
Q 1406 3038 1543 3061 
Q 1681 3084 1819 3084 
Q 2600 3084 3056 2656 
Q 3513 2228 3513 1497 
Q 3513 744 3044 326 
Q 2575 -91 1722 -91 
Q 1428 -91 1123 -41 
Q 819 9 494 109 
L 494 744 
Q 775 591 1075 516 
Q 1375 441 1709 441 
Q 2250 441 2565 725 
Q 2881 1009 2881 1497 
Q 2881 1984 2565 2268 
Q 2250 2553 1709 2553 
Q 1456 2553 1204 2497 
Q 953 2441 691 2322 
L 691 4666 
z
" transform="scale(0.015625)"/>
       </defs>
       <use xlink:href="#DejaVuSans-35"/>
       <use xlink:href="#DejaVuSans-30" transform="translate(63.623047 0)"/>
       <use xlink:href="#DejaVuSans-30" transform="translate(127.246094 0)"/>
       <use xlink:href="#DejaVuSans-30" transform="translate(190.869141 0)"/>
       <use xlink:href="#DejaVuSans-30" transform="translate(254.492188 0)"/>
      </g>
     </g>
    </g>
    <g id="xtick_7">
     <g id="line2d_7">
      <g>
       <use xlink:href="#mf26ccd1a3f" x="317.849018" y="229.27199" style="stroke: #000000; stroke-width: 0.8"/>
      </g>
     </g>
     <g id="text_7">
      <!-- 60000 -->
      <g transform="translate(301.942768 243.870427) scale(0.1 -0.1)">
       <defs>
        <path id="DejaVuSans-36" d="M 2113 2584 
Q 1688 2584 1439 2293 
Q 1191 2003 1191 1497 
Q 1191 994 1439 701 
Q 1688 409 2113 409 
Q 2538 409 2786 701 
Q 3034 994 3034 1497 
Q 3034 2003 2786 2293 
Q 2538 2584 2113 2584 
z
M 3366 4563 
L 3366 3988 
Q 3128 4100 2886 4159 
Q 2644 4219 2406 4219 
Q 1781 4219 1451 3797 
Q 1122 3375 1075 2522 
Q 1259 2794 1537 2939 
Q 1816 3084 2150 3084 
Q 2853 3084 3261 2657 
Q 3669 2231 3669 1497 
Q 3669 778 3244 343 
Q 2819 -91 2113 -91 
Q 1303 -91 875 529 
Q 447 1150 447 2328 
Q 447 3434 972 4092 
Q 1497 4750 2381 4750 
Q 2619 4750 2861 4703 
Q 3103 4656 3366 4563 
z
" transform="scale(0.015625)"/>
       </defs>
       <use xlink:href="#DejaVuSans-36"/>
       <use xlink:href="#DejaVuSans-30" transform="translate(63.623047 0)"/>
       <use xlink:href="#DejaVuSans-30" transform="translate(127.246094 0)"/>
       <use xlink:href="#DejaVuSans-30" transform="translate(190.869141 0)"/>
       <use xlink:href="#DejaVuSans-30" transform="translate(254.492188 0)"/>
      </g>
     </g>
    </g>
    <g id="xtick_8">
     <g id="line2d_8">
      <g>
       <use xlink:href="#mf26ccd1a3f" x="360.460646" y="229.27199" style="stroke: #000000; stroke-width: 0.8"/>
      </g>
     </g>
     <g id="text_8">
      <!-- 70000 -->
      <g transform="translate(344.554396 243.870427) scale(0.1 -0.1)">
       <defs>
        <path id="DejaVuSans-37" d="M 525 4666 
L 3525 4666 
L 3525 4397 
L 1831 0 
L 1172 0 
L 2766 4134 
L 525 4134 
L 525 4666 
z
" transform="scale(0.015625)"/>
       </defs>
       <use xlink:href="#DejaVuSans-37"/>
       <use xlink:href="#DejaVuSans-30" transform="translate(63.623047 0)"/>
       <use xlink:href="#DejaVuSans-30" transform="translate(127.246094 0)"/>
       <use xlink:href="#DejaVuSans-30" transform="translate(190.869141 0)"/>
       <use xlink:href="#DejaVuSans-30" transform="translate(254.492188 0)"/>
      </g>
     </g>
    </g>
    <g id="text_9">
     <!-- event_time_offset [µs] -->
     <g transform="translate(158.330469 257.548552) scale(0.1 -0.1)">
      <defs>
       <path id="DejaVuSans-65" d="M 3597 1894 
L 3597 1613 
L 953 1613 
Q 991 1019 1311 708 
Q 1631 397 2203 397 
Q 2534 397 2845 478 
Q 3156 559 3463 722 
L 3463 178 
Q 3153 47 2828 -22 
Q 2503 -91 2169 -91 
Q 1331 -91 842 396 
Q 353 884 353 1716 
Q 353 2575 817 3079 
Q 1281 3584 2069 3584 
Q 2775 3584 3186 3129 
Q 3597 2675 3597 1894 
z
M 3022 2063 
Q 3016 2534 2758 2815 
Q 2500 3097 2075 3097 
Q 1594 3097 1305 2825 
Q 1016 2553 972 2059 
L 3022 2063 
z
" transform="scale(0.015625)"/>
       <path id="DejaVuSans-76" d="M 191 3500 
L 800 3500 
L 1894 563 
L 2988 3500 
L 3597 3500 
L 2284 0 
L 1503 0 
L 191 3500 
z
" transform="scale(0.015625)"/>
       <path id="DejaVuSans-6e" d="M 3513 2113 
L 3513 0 
L 2938 0 
L 2938 2094 
Q 2938 2591 2744 2837 
Q 2550 3084 2163 3084 
Q 1697 3084 1428 2787 
Q 1159 2491 1159 1978 
L 1159 0 
L 581 0 
L 581 3500 
L 1159 3500 
L 1159 2956 
Q 1366 3272 1645 3428 
Q 1925 3584 2291 3584 
Q 2894 3584 3203 3211 
Q 3513 2838 3513 2113 
z
" transform="scale(0.015625)"/>
       <path id="DejaVuSans-74" d="M 1172 4494 
L 1172 3500 
L 2356 3500 
L 2356 3053 
L 1172 3053 
L 1172 1153 
Q 1172 725 1289 603 
Q 1406 481 1766 481 
L 2356 481 
L 2356 0 
L 1766 0 
Q 1100 0 847 248 
Q 594 497 594 1153 
L 594 3053 
L 172 3053 
L 172 3500 
L 594 3500 
L 594 4494 
L 1172 4494 
z
" transform="scale(0.015625)"/>
       <path id="DejaVuSans-5f" d="M 3263 -1063 
L 3263 -1509 
L -63 -1509 
L -63 -1063 
L 3263 -1063 
z
" transform="scale(0.015625)"/>
       <path id="DejaVuSans-69" d="M 603 3500 
L 1178 3500 
L 1178 0 
L 603 0 
L 603 3500 
z
M 603 4863 
L 1178 4863 
L 1178 4134 
L 603 4134 
L 603 4863 
z
" transform="scale(0.015625)"/>
       <path id="DejaVuSans-6d" d="M 3328 2828 
Q 3544 3216 3844 3400 
Q 4144 3584 4550 3584 
Q 5097 3584 5394 3201 
Q 5691 2819 5691 2113 
L 5691 0 
L 5113 0 
L 5113 2094 
Q 5113 2597 4934 2840 
Q 4756 3084 4391 3084 
Q 3944 3084 3684 2787 
Q 3425 2491 3425 1978 
L 3425 0 
L 2847 0 
L 2847 2094 
Q 2847 2600 2669 2842 
Q 2491 3084 2119 3084 
Q 1678 3084 1418 2786 
Q 1159 2488 1159 1978 
L 1159 0 
L 581 0 
L 581 3500 
L 1159 3500 
L 1159 2956 
Q 1356 3278 1631 3431 
Q 1906 3584 2284 3584 
Q 2666 3584 2933 3390 
Q 3200 3197 3328 2828 
z
" transform="scale(0.015625)"/>
       <path id="DejaVuSans-6f" d="M 1959 3097 
Q 1497 3097 1228 2736 
Q 959 2375 959 1747 
Q 959 1119 1226 758 
Q 1494 397 1959 397 
Q 2419 397 2687 759 
Q 2956 1122 2956 1747 
Q 2956 2369 2687 2733 
Q 2419 3097 1959 3097 
z
M 1959 3584 
Q 2709 3584 3137 3096 
Q 3566 2609 3566 1747 
Q 3566 888 3137 398 
Q 2709 -91 1959 -91 
Q 1206 -91 779 398 
Q 353 888 353 1747 
Q 353 2609 779 3096 
Q 1206 3584 1959 3584 
z
" transform="scale(0.015625)"/>
       <path id="DejaVuSans-66" d="M 2375 4863 
L 2375 4384 
L 1825 4384 
Q 1516 4384 1395 4259 
Q 1275 4134 1275 3809 
L 1275 3500 
L 2222 3500 
L 2222 3053 
L 1275 3053 
L 1275 0 
L 697 0 
L 697 3053 
L 147 3053 
L 147 3500 
L 697 3500 
L 697 3744 
Q 697 4328 969 4595 
Q 1241 4863 1831 4863 
L 2375 4863 
z
" transform="scale(0.015625)"/>
       <path id="DejaVuSans-73" d="M 2834 3397 
L 2834 2853 
Q 2591 2978 2328 3040 
Q 2066 3103 1784 3103 
Q 1356 3103 1142 2972 
Q 928 2841 928 2578 
Q 928 2378 1081 2264 
Q 1234 2150 1697 2047 
L 1894 2003 
Q 2506 1872 2764 1633 
Q 3022 1394 3022 966 
Q 3022 478 2636 193 
Q 2250 -91 1575 -91 
Q 1294 -91 989 -36 
Q 684 19 347 128 
L 347 722 
Q 666 556 975 473 
Q 1284 391 1588 391 
Q 1994 391 2212 530 
Q 2431 669 2431 922 
Q 2431 1156 2273 1281 
Q 2116 1406 1581 1522 
L 1381 1569 
Q 847 1681 609 1914 
Q 372 2147 372 2553 
Q 372 3047 722 3315 
Q 1072 3584 1716 3584 
Q 2034 3584 2315 3537 
Q 2597 3491 2834 3397 
z
" transform="scale(0.015625)"/>
       <path id="DejaVuSans-20" transform="scale(0.015625)"/>
       <path id="DejaVuSans-5b" d="M 550 4863 
L 1875 4863 
L 1875 4416 
L 1125 4416 
L 1125 -397 
L 1875 -397 
L 1875 -844 
L 550 -844 
L 550 4863 
z
" transform="scale(0.015625)"/>
       <path id="DejaVuSans-b5" d="M 544 -1331 
L 544 3500 
L 1119 3500 
L 1119 1325 
Q 1119 872 1334 640 
Q 1550 409 1972 409 
Q 2434 409 2667 671 
Q 2900 934 2900 1459 
L 2900 3500 
L 3475 3500 
L 3475 806 
Q 3475 619 3529 530 
Q 3584 441 3700 441 
Q 3728 441 3778 458 
Q 3828 475 3916 513 
L 3916 50 
Q 3788 -22 3673 -56 
Q 3559 -91 3450 -91 
Q 3234 -91 3106 31 
Q 2978 153 2931 403 
Q 2775 156 2548 32 
Q 2322 -91 2016 -91 
Q 1697 -91 1473 31 
Q 1250 153 1119 397 
L 1119 -1331 
L 544 -1331 
z
" transform="scale(0.015625)"/>
       <path id="DejaVuSans-5d" d="M 1947 4863 
L 1947 -844 
L 622 -844 
L 622 -397 
L 1369 -397 
L 1369 4416 
L 622 4416 
L 622 4863 
L 1947 4863 
z
" transform="scale(0.015625)"/>
      </defs>
      <use xlink:href="#DejaVuSans-65"/>
      <use xlink:href="#DejaVuSans-76" transform="translate(61.523438 0)"/>
      <use xlink:href="#DejaVuSans-65" transform="translate(120.703125 0)"/>
      <use xlink:href="#DejaVuSans-6e" transform="translate(182.226562 0)"/>
      <use xlink:href="#DejaVuSans-74" transform="translate(245.605469 0)"/>
      <use xlink:href="#DejaVuSans-5f" transform="translate(284.814453 0)"/>
      <use xlink:href="#DejaVuSans-74" transform="translate(334.814453 0)"/>
      <use xlink:href="#DejaVuSans-69" transform="translate(374.023438 0)"/>
      <use xlink:href="#DejaVuSans-6d" transform="translate(401.806641 0)"/>
      <use xlink:href="#DejaVuSans-65" transform="translate(499.21875 0)"/>
      <use xlink:href="#DejaVuSans-5f" transform="translate(560.742188 0)"/>
      <use xlink:href="#DejaVuSans-6f" transform="translate(610.742188 0)"/>
      <use xlink:href="#DejaVuSans-66" transform="translate(671.923828 0)"/>
      <use xlink:href="#DejaVuSans-66" transform="translate(707.128906 0)"/>
      <use xlink:href="#DejaVuSans-73" transform="translate(742.333984 0)"/>
      <use xlink:href="#DejaVuSans-65" transform="translate(794.433594 0)"/>
      <use xlink:href="#DejaVuSans-74" transform="translate(855.957031 0)"/>
      <use xlink:href="#DejaVuSans-20" transform="translate(895.166016 0)"/>
      <use xlink:href="#DejaVuSans-5b" transform="translate(926.953125 0)"/>
      <use xlink:href="#DejaVuSans-b5" transform="translate(965.966797 0)"/>
      <use xlink:href="#DejaVuSans-73" transform="translate(1029.589844 0)"/>
      <use xlink:href="#DejaVuSans-5d" transform="translate(1081.689453 0)"/>
     </g>
    </g>
   </g>
   <g id="matplotlib.axis_2">
    <g id="ytick_1">
     <g id="line2d_9">
      <defs>
       <path id="m4eaf09f9b9" d="M 0 0 
L -3.5 0 
" style="stroke: #000000; stroke-width: 0.8"/>
      </defs>
      <g>
       <use xlink:href="#m4eaf09f9b9" x="46.965625" y="219.19199" style="stroke: #000000; stroke-width: 0.8"/>
      </g>
     </g>
     <g id="text_10">
      <!-- 0 -->
      <g transform="translate(33.603125 222.991209) scale(0.1 -0.1)">
       <use xlink:href="#DejaVuSans-30"/>
      </g>
     </g>
    </g>
    <g id="ytick_2">
     <g id="line2d_10">
      <g>
       <use xlink:href="#m4eaf09f9b9" x="46.965625" y="184.493195" style="stroke: #000000; stroke-width: 0.8"/>
      </g>
     </g>
     <g id="text_11">
      <!-- 100 -->
      <g transform="translate(20.878125 188.292413) scale(0.1 -0.1)">
       <use xlink:href="#DejaVuSans-31"/>
       <use xlink:href="#DejaVuSans-30" transform="translate(63.623047 0)"/>
       <use xlink:href="#DejaVuSans-30" transform="translate(127.246094 0)"/>
      </g>
     </g>
    </g>
    <g id="ytick_3">
     <g id="line2d_11">
      <g>
       <use xlink:href="#m4eaf09f9b9" x="46.965625" y="149.794399" style="stroke: #000000; stroke-width: 0.8"/>
      </g>
     </g>
     <g id="text_12">
      <!-- 200 -->
      <g transform="translate(20.878125 153.593618) scale(0.1 -0.1)">
       <use xlink:href="#DejaVuSans-32"/>
       <use xlink:href="#DejaVuSans-30" transform="translate(63.623047 0)"/>
       <use xlink:href="#DejaVuSans-30" transform="translate(127.246094 0)"/>
      </g>
     </g>
    </g>
    <g id="ytick_4">
     <g id="line2d_12">
      <g>
       <use xlink:href="#m4eaf09f9b9" x="46.965625" y="115.095604" style="stroke: #000000; stroke-width: 0.8"/>
      </g>
     </g>
     <g id="text_13">
      <!-- 300 -->
      <g transform="translate(20.878125 118.894823) scale(0.1 -0.1)">
       <use xlink:href="#DejaVuSans-33"/>
       <use xlink:href="#DejaVuSans-30" transform="translate(63.623047 0)"/>
       <use xlink:href="#DejaVuSans-30" transform="translate(127.246094 0)"/>
      </g>
     </g>
    </g>
    <g id="ytick_5">
     <g id="line2d_13">
      <g>
       <use xlink:href="#m4eaf09f9b9" x="46.965625" y="80.396809" style="stroke: #000000; stroke-width: 0.8"/>
      </g>
     </g>
     <g id="text_14">
      <!-- 400 -->
      <g transform="translate(20.878125 84.196028) scale(0.1 -0.1)">
       <use xlink:href="#DejaVuSans-34"/>
       <use xlink:href="#DejaVuSans-30" transform="translate(63.623047 0)"/>
       <use xlink:href="#DejaVuSans-30" transform="translate(127.246094 0)"/>
      </g>
     </g>
    </g>
    <g id="ytick_6">
     <g id="line2d_14">
      <g>
       <use xlink:href="#m4eaf09f9b9" x="46.965625" y="45.698014" style="stroke: #000000; stroke-width: 0.8"/>
      </g>
     </g>
     <g id="text_15">
      <!-- 500 -->
      <g transform="translate(20.878125 49.497233) scale(0.1 -0.1)">
       <use xlink:href="#DejaVuSans-35"/>
       <use xlink:href="#DejaVuSans-30" transform="translate(63.623047 0)"/>
       <use xlink:href="#DejaVuSans-30" transform="translate(127.246094 0)"/>
      </g>
     </g>
    </g>
    <g id="ytick_7">
     <g id="line2d_15">
      <g>
       <use xlink:href="#m4eaf09f9b9" x="46.965625" y="10.999219" style="stroke: #000000; stroke-width: 0.8"/>
      </g>
     </g>
     <g id="text_16">
      <!-- 600 -->
      <g transform="translate(20.878125 14.798437) scale(0.1 -0.1)">
       <use xlink:href="#DejaVuSans-36"/>
       <use xlink:href="#DejaVuSans-30" transform="translate(63.623047 0)"/>
       <use xlink:href="#DejaVuSans-30" transform="translate(127.246094 0)"/>
      </g>
     </g>
    </g>
    <g id="text_17">
     <!-- [counts] -->
     <g transform="translate(14.798438 139.00449) rotate(-90) scale(0.1 -0.1)">
      <defs>
       <path id="DejaVuSans-63" d="M 3122 3366 
L 3122 2828 
Q 2878 2963 2633 3030 
Q 2388 3097 2138 3097 
Q 1578 3097 1268 2742 
Q 959 2388 959 1747 
Q 959 1106 1268 751 
Q 1578 397 2138 397 
Q 2388 397 2633 464 
Q 2878 531 3122 666 
L 3122 134 
Q 2881 22 2623 -34 
Q 2366 -91 2075 -91 
Q 1284 -91 818 406 
Q 353 903 353 1747 
Q 353 2603 823 3093 
Q 1294 3584 2113 3584 
Q 2378 3584 2631 3529 
Q 2884 3475 3122 3366 
z
" transform="scale(0.015625)"/>
       <path id="DejaVuSans-75" d="M 544 1381 
L 544 3500 
L 1119 3500 
L 1119 1403 
Q 1119 906 1312 657 
Q 1506 409 1894 409 
Q 2359 409 2629 706 
Q 2900 1003 2900 1516 
L 2900 3500 
L 3475 3500 
L 3475 0 
L 2900 0 
L 2900 538 
Q 2691 219 2414 64 
Q 2138 -91 1772 -91 
Q 1169 -91 856 284 
Q 544 659 544 1381 
z
M 1991 3584 
L 1991 3584 
z
" transform="scale(0.015625)"/>
      </defs>
      <use xlink:href="#DejaVuSans-5b"/>
      <use xlink:href="#DejaVuSans-63" transform="translate(39.013672 0)"/>
      <use xlink:href="#DejaVuSans-6f" transform="translate(93.994141 0)"/>
      <use xlink:href="#DejaVuSans-75" transform="translate(155.175781 0)"/>
      <use xlink:href="#DejaVuSans-6e" transform="translate(218.554688 0)"/>
      <use xlink:href="#DejaVuSans-74" transform="translate(281.933594 0)"/>
      <use xlink:href="#DejaVuSans-73" transform="translate(321.142578 0)"/>
      <use xlink:href="#DejaVuSans-5d" transform="translate(373.242188 0)"/>
     </g>
    </g>
   </g>
   <g id="line2d_16">
    <path d="M 62.183807 123.423315 
L 63.198352 123.423315 
L 63.198352 126.893195 
L 64.212898 126.893195 
L 64.212898 130.710062 
L 65.227443 130.710062 
L 65.227443 130.363074 
L 66.241989 130.363074 
L 66.241989 132.79199 
L 67.256534 132.79199 
L 67.256534 127.934159 
L 68.27108 127.934159 
L 68.27108 120.994399 
L 69.285625 120.994399 
L 69.285625 128.281146 
L 70.30017 128.281146 
L 70.30017 133.832954 
L 71.314716 133.832954 
L 71.314716 123.770303 
L 72.329261 123.770303 
L 72.329261 139.384761 
L 73.343807 139.384761 
L 73.343807 134.873918 
L 74.358352 134.873918 
L 74.358352 133.138978 
L 75.372898 133.138978 
L 75.372898 141.119701 
L 76.387443 141.119701 
L 76.387443 140.078737 
L 77.401989 140.078737 
L 77.401989 134.52693 
L 78.416534 134.52693 
L 78.416534 135.220905 
L 79.43108 135.220905 
L 79.43108 146.32452 
L 80.445625 146.32452 
L 80.445625 145.630544 
L 81.46017 145.630544 
L 81.46017 142.507652 
L 82.474716 142.507652 
L 82.474716 153.958255 
L 83.489261 153.958255 
L 83.489261 150.835363 
L 84.503807 150.835363 
L 84.503807 152.570303 
L 85.518352 152.570303 
L 85.518352 148.05946 
L 86.532898 148.05946 
L 86.532898 150.488375 
L 87.547443 150.488375 
L 87.547443 161.938978 
L 88.561989 161.938978 
L 88.561989 150.488375 
L 89.576534 150.488375 
L 89.576534 150.141387 
L 90.59108 150.141387 
L 90.59108 151.876327 
L 91.605625 151.876327 
L 91.605625 150.141387 
L 92.62017 150.141387 
L 92.62017 160.898014 
L 93.634716 160.898014 
L 93.634716 161.245002 
L 94.649261 161.245002 
L 94.649261 166.102833 
L 95.663807 166.102833 
L 95.663807 165.408857 
L 96.678352 165.408857 
L 96.678352 161.245002 
L 98.707443 161.245002 
L 98.707443 170.613677 
L 99.721989 170.613677 
L 99.721989 167.490785 
L 100.736534 167.490785 
L 100.736534 174.430544 
L 101.75108 174.430544 
L 101.75108 172.001628 
L 102.765625 172.001628 
L 102.765625 170.266689 
L 103.78017 170.266689 
L 103.78017 178.941387 
L 104.794716 178.941387 
L 104.794716 174.777532 
L 105.809261 174.777532 
L 105.809261 175.12452 
L 106.823807 175.12452 
L 106.823807 183.105243 
L 107.838352 183.105243 
L 107.838352 188.310062 
L 108.852898 188.310062 
L 108.852898 187.269098 
L 109.867443 187.269098 
L 109.867443 191.432954 
L 110.881989 191.432954 
L 110.881989 189.004038 
L 111.896534 189.004038 
L 111.896534 190.045002 
L 112.91108 190.045002 
L 112.91108 195.249821 
L 113.925625 195.249821 
L 113.925625 198.719701 
L 114.94017 198.719701 
L 114.94017 199.413677 
L 115.954716 199.413677 
L 115.954716 202.883556 
L 116.969261 202.883556 
L 116.969261 202.18958 
L 117.983807 202.18958 
L 117.983807 206.006448 
L 118.998352 206.006448 
L 118.998352 208.088375 
L 120.012898 208.088375 
L 120.012898 209.823315 
L 121.027443 209.823315 
L 121.027443 206.353436 
L 122.041989 206.353436 
L 122.041989 210.170303 
L 123.056534 210.170303 
L 123.056534 210.864279 
L 124.07108 210.864279 
L 124.07108 215.375122 
L 125.085625 215.375122 
L 125.085625 210.170303 
L 126.10017 210.170303 
L 126.10017 213.293195 
L 127.114716 213.293195 
L 127.114716 215.72211 
L 129.143807 215.72211 
L 129.143807 217.110062 
L 130.158352 217.110062 
L 130.158352 217.804038 
L 131.172898 217.804038 
L 131.172898 217.45705 
L 132.187443 217.45705 
L 132.187443 218.151026 
L 133.201989 218.151026 
L 133.201989 219.19199 
L 134.216534 219.19199 
L 134.216534 218.845002 
L 135.23108 218.845002 
L 135.23108 219.19199 
L 149.434716 219.19199 
L 149.434716 216.069098 
L 150.449261 216.069098 
L 150.449261 210.170303 
L 151.463807 210.170303 
L 151.463807 206.006448 
L 152.478352 206.006448 
L 152.478352 200.107652 
L 153.492898 200.107652 
L 153.492898 199.760665 
L 154.507443 199.760665 
L 154.507443 192.820905 
L 155.521989 192.820905 
L 155.521989 190.39199 
L 156.536534 190.39199 
L 156.536534 181.023315 
L 157.55108 181.023315 
L 157.55108 176.165484 
L 158.565625 176.165484 
L 158.565625 174.430544 
L 159.58017 174.430544 
L 159.58017 166.449821 
L 160.594716 166.449821 
L 160.594716 156.387171 
L 161.609261 156.387171 
L 161.609261 148.05946 
L 162.623807 148.05946 
L 162.623807 144.58958 
L 163.638352 144.58958 
L 163.638352 144.936568 
L 164.652898 144.936568 
L 164.652898 128.975122 
L 165.667443 128.975122 
L 165.667443 126.199219 
L 166.681989 126.199219 
L 166.681989 124.464279 
L 167.696534 124.464279 
L 167.696534 126.546207 
L 168.71108 126.546207 
L 168.71108 111.972713 
L 169.725625 111.972713 
L 169.725625 100.175122 
L 170.74017 100.175122 
L 170.74017 103.298014 
L 171.754716 103.298014 
L 171.754716 96.358255 
L 172.769261 96.358255 
L 172.769261 95.664279 
L 173.783807 95.664279 
L 173.783807 81.437773 
L 174.798352 81.437773 
L 174.798352 91.500424 
L 175.812898 91.500424 
L 175.812898 78.314881 
L 176.827443 78.314881 
L 176.827443 87.683556 
L 177.841989 87.683556 
L 177.841989 67.558255 
L 178.856534 67.558255 
L 178.856534 71.72211 
L 179.87108 71.72211 
L 179.87108 72.069098 
L 180.885625 72.069098 
L 180.885625 59.230544 
L 181.90017 59.230544 
L 181.90017 66.517291 
L 182.914716 66.517291 
L 182.914716 48.12693 
L 183.929261 48.12693 
L 183.929261 43.616086 
L 184.943807 43.616086 
L 184.943807 45.698014 
L 185.958352 45.698014 
L 185.958352 57.495604 
L 186.972898 57.495604 
L 186.972898 42.575122 
L 187.987443 42.575122 
L 187.987443 43.616086 
L 189.001989 43.616086 
L 189.001989 28.695604 
L 190.016534 28.695604 
L 190.016534 41.534159 
L 191.03108 41.534159 
L 191.03108 25.919701 
L 192.045625 25.919701 
L 192.045625 37.717291 
L 193.06017 37.717291 
L 193.06017 29.736568 
L 194.074716 29.736568 
L 194.074716 19.32693 
L 195.089261 19.32693 
L 195.089261 31.12452 
L 196.103807 31.12452 
L 196.103807 17.59199 
L 197.118352 17.59199 
L 197.118352 31.471508 
L 198.132898 31.471508 
L 198.132898 18.979942 
L 199.147443 18.979942 
L 199.147443 28.695604 
L 200.161989 28.695604 
L 200.161989 25.225725 
L 201.176534 25.225725 
L 201.176534 28.695604 
L 202.19108 28.695604 
L 202.19108 39.452231 
L 203.205625 39.452231 
L 203.205625 36.676327 
L 204.22017 36.676327 
L 204.22017 51.943797 
L 205.234716 51.943797 
L 205.234716 53.331749 
L 206.249261 53.331749 
L 206.249261 44.310062 
L 207.263807 44.310062 
L 207.263807 59.92452 
L 208.278352 59.92452 
L 208.278352 53.678737 
L 209.292898 53.678737 
L 209.292898 61.65946 
L 210.307443 61.65946 
L 210.307443 57.495604 
L 211.321989 57.495604 
L 211.321989 48.12693 
L 212.336534 48.12693 
L 212.336534 62.700424 
L 213.35108 62.700424 
L 213.35108 66.170303 
L 214.365625 66.170303 
L 214.365625 52.637773 
L 215.38017 52.637773 
L 215.38017 67.905243 
L 216.394716 67.905243 
L 216.394716 63.047412 
L 217.409261 63.047412 
L 217.409261 56.107652 
L 218.423807 56.107652 
L 218.423807 67.905243 
L 219.438352 67.905243 
L 219.438352 56.801628 
L 220.452898 56.801628 
L 220.452898 48.820905 
L 221.467443 48.820905 
L 221.467443 64.435363 
L 222.481989 64.435363 
L 222.481989 68.252231 
L 223.496534 68.252231 
L 223.496534 65.823315 
L 224.51108 65.823315 
L 224.51108 73.110062 
L 225.525625 73.110062 
L 225.525625 75.538978 
L 226.54017 75.538978 
L 226.54017 80.396809 
L 227.554716 80.396809 
L 227.554716 79.702833 
L 228.569261 79.702833 
L 228.569261 64.782351 
L 229.583807 64.782351 
L 229.583807 75.885966 
L 230.598352 75.885966 
L 230.598352 71.375122 
L 231.612898 71.375122 
L 231.612898 77.620905 
L 232.627443 77.620905 
L 232.627443 79.355845 
L 233.641989 79.355845 
L 233.641989 73.110062 
L 234.656534 73.110062 
L 234.656534 80.396809 
L 235.67108 80.396809 
L 235.67108 75.19199 
L 236.685625 75.19199 
L 236.685625 81.437773 
L 237.70017 81.437773 
L 237.70017 79.702833 
L 238.714716 79.702833 
L 238.714716 74.498014 
L 239.729261 74.498014 
L 239.729261 75.19199 
L 240.743807 75.19199 
L 240.743807 90.45946 
L 241.758352 90.45946 
L 241.758352 75.19199 
L 242.772898 75.19199 
L 242.772898 85.601628 
L 243.787443 85.601628 
L 243.787443 76.232954 
L 244.801989 76.232954 
L 244.801989 73.110062 
L 245.816534 73.110062 
L 245.816534 90.112472 
L 246.83108 90.112472 
L 246.83108 81.437773 
L 247.845625 81.437773 
L 247.845625 86.295604 
L 248.86017 86.295604 
L 248.86017 92.541387 
L 249.874716 92.541387 
L 249.874716 91.500424 
L 250.889261 91.500424 
L 250.889261 91.847412 
L 251.903807 91.847412 
L 251.903807 94.276327 
L 252.918352 94.276327 
L 252.918352 99.134159 
L 253.932898 99.134159 
L 253.932898 97.746207 
L 254.947443 97.746207 
L 254.947443 106.420905 
L 255.961989 106.420905 
L 255.961989 100.175122 
L 256.976534 100.175122 
L 256.976534 102.25705 
L 257.99108 102.25705 
L 257.99108 106.767893 
L 259.005625 106.767893 
L 259.005625 121.688375 
L 260.02017 121.688375 
L 260.02017 117.871508 
L 261.034716 117.871508 
L 261.034716 133.138978 
L 262.049261 133.138978 
L 262.049261 135.220905 
L 263.063807 135.220905 
L 263.063807 137.996809 
L 264.078352 137.996809 
L 264.078352 134.179942 
L 265.092898 134.179942 
L 265.092898 141.119701 
L 266.107443 141.119701 
L 266.107443 153.958255 
L 267.121989 153.958255 
L 267.121989 154.652231 
L 268.136534 154.652231 
L 268.136534 160.551026 
L 269.15108 160.551026 
L 269.15108 162.285966 
L 270.165625 162.285966 
L 270.165625 165.061869 
L 271.18017 165.061869 
L 271.18017 176.165484 
L 273.209261 176.165484 
L 273.209261 185.881146 
L 274.223807 185.881146 
L 274.223807 181.717291 
L 275.238352 181.717291 
L 275.238352 188.310062 
L 276.252898 188.310062 
L 276.252898 195.943797 
L 277.267443 195.943797 
L 277.267443 202.883556 
L 278.281989 202.883556 
L 278.281989 197.331749 
L 279.296534 197.331749 
L 279.296534 203.230544 
L 280.31108 203.230544 
L 280.31108 206.700424 
L 281.325625 206.700424 
L 281.325625 212.252231 
L 282.34017 212.252231 
L 282.34017 211.905243 
L 283.354716 211.905243 
L 283.354716 213.987171 
L 284.369261 213.987171 
L 284.369261 216.416086 
L 285.383807 216.416086 
L 285.383807 217.45705 
L 286.398352 217.45705 
L 286.398352 217.804038 
L 287.412898 217.804038 
L 287.412898 219.19199 
L 298.572898 219.19199 
L 298.572898 215.375122 
L 299.587443 215.375122 
L 299.587443 210.517291 
L 300.601989 210.517291 
L 300.601989 208.435363 
L 301.616534 208.435363 
L 301.616534 203.230544 
L 302.63108 203.230544 
L 302.63108 198.372713 
L 303.645625 198.372713 
L 303.645625 189.698014 
L 304.66017 189.698014 
L 304.66017 186.228134 
L 305.674716 186.228134 
L 305.674716 181.023315 
L 306.689261 181.023315 
L 306.689261 180.329339 
L 307.703807 180.329339 
L 307.703807 179.635363 
L 308.718352 179.635363 
L 308.718352 176.165484 
L 309.732898 176.165484 
L 309.732898 165.408857 
L 310.747443 165.408857 
L 310.747443 166.102833 
L 311.761989 166.102833 
L 311.761989 161.59199 
L 312.776534 161.59199 
L 312.776534 158.12211 
L 313.79108 158.12211 
L 313.79108 160.204038 
L 314.805625 160.204038 
L 314.805625 151.529339 
L 316.834716 151.529339 
L 316.834716 144.58958 
L 317.849261 144.58958 
L 317.849261 142.507652 
L 319.878352 142.507652 
L 319.878352 133.832954 
L 320.892898 133.832954 
L 320.892898 118.912472 
L 321.907443 118.912472 
L 321.907443 132.098014 
L 322.921989 132.098014 
L 322.921989 134.52693 
L 323.936534 134.52693 
L 323.936534 128.281146 
L 324.95108 128.281146 
L 324.95108 120.647412 
L 325.965625 120.647412 
L 325.965625 119.25946 
L 326.98017 119.25946 
L 326.98017 127.240183 
L 327.994716 127.240183 
L 327.994716 118.218496 
L 329.009261 118.218496 
L 329.009261 116.830544 
L 330.023807 116.830544 
L 330.023807 117.177532 
L 331.038352 117.177532 
L 331.038352 113.013677 
L 332.052898 113.013677 
L 332.052898 115.095604 
L 333.067443 115.095604 
L 333.067443 102.951026 
L 334.081989 102.951026 
L 334.081989 80.743797 
L 335.096534 80.743797 
L 335.096534 100.52211 
L 336.11108 100.52211 
L 336.11108 103.298014 
L 337.125625 103.298014 
L 337.125625 101.216086 
L 338.14017 101.216086 
L 338.14017 92.888375 
L 339.154716 92.888375 
L 339.154716 96.358255 
L 340.169261 96.358255 
L 340.169261 94.970303 
L 341.183807 94.970303 
L 341.183807 96.358255 
L 342.198352 96.358255 
L 342.198352 91.500424 
L 343.212898 91.500424 
L 343.212898 91.153436 
L 344.227443 91.153436 
L 344.227443 100.175122 
L 345.241989 100.175122 
L 345.241989 106.767893 
L 346.256534 106.767893 
L 346.256534 91.153436 
L 347.27108 91.153436 
L 347.27108 88.377532 
L 348.285625 88.377532 
L 348.285625 103.298014 
L 349.30017 103.298014 
L 349.30017 92.541387 
L 350.314716 92.541387 
L 350.314716 83.519701 
L 351.329261 83.519701 
L 351.329261 109.196809 
L 352.343807 109.196809 
L 352.343807 111.972713 
L 353.358352 111.972713 
L 353.358352 109.890785 
L 354.372898 109.890785 
L 354.372898 110.931749 
L 355.387443 110.931749 
L 355.387443 109.890785 
L 356.401989 109.890785 
L 356.401989 110.584761 
L 357.416534 110.584761 
L 357.416534 115.442592 
L 358.43108 115.442592 
L 358.43108 120.647412 
L 359.445625 120.647412 
L 359.445625 109.890785 
L 360.46017 109.890785 
L 360.46017 118.218496 
L 361.474716 118.218496 
L 361.474716 106.073918 
L 362.489261 106.073918 
L 362.489261 113.360665 
L 363.503807 113.360665 
L 363.503807 116.136568 
L 364.518352 116.136568 
L 364.518352 107.114881 
L 365.532898 107.114881 
L 365.532898 126.199219 
L 366.547443 126.199219 
L 366.547443 126.199219 
" clip-path="url(#p5ca33cce9a)" style="fill: none; stroke: #1f77b4; stroke-width: 1.5; stroke-linecap: square"/>
   </g>
   <g id="patch_3">
    <path d="M 46.965625 229.27199 
L 46.965625 7.51199 
" style="fill: none; stroke: #000000; stroke-width: 0.8; stroke-linejoin: miter; stroke-linecap: square"/>
   </g>
   <g id="patch_4">
    <path d="M 381.765625 229.27199 
L 381.765625 7.51199 
" style="fill: none; stroke: #000000; stroke-width: 0.8; stroke-linejoin: miter; stroke-linecap: square"/>
   </g>
   <g id="patch_5">
    <path d="M 46.965625 229.27199 
L 381.765625 229.27199 
" style="fill: none; stroke: #000000; stroke-width: 0.8; stroke-linejoin: miter; stroke-linecap: square"/>
   </g>
   <g id="patch_6">
    <path d="M 46.965625 7.51199 
L 381.765625 7.51199 
" style="fill: none; stroke: #000000; stroke-width: 0.8; stroke-linejoin: miter; stroke-linecap: square"/>
   </g>
  </g>
 </g>
 <defs>
  <clipPath id="p5ca33cce9a">
   <rect x="46.965625" y="7.51199" width="334.8" height="221.76"/>
  </clipPath>
 </defs>
</svg>
