<?xml version="1.0" encoding="UTF-8" standalone="no"?>
<!DOCTYPE svg PUBLIC "-//W3C//DTD SVG 1.1//EN"
 "http://www.w3.org/Graphics/SVG/1.1/DTD/svg11.dtd">
<!-- Generated by graphviz version 14.1.2 (20260126.1125)
 -->
<!-- Pages: 1 -->
<svg width="1624pt" height="124pt"
 viewBox="0.00 0.00 1624.00 124.00" xmlns="http://www.w3.org/2000/svg" xmlns:xlink="http://www.w3.org/1999/xlink">
<g id="graph0" class="graph" transform="scale(1 1) rotate(0) translate(4 120.25)">
<polygon fill="white" stroke="none" points="-4,4 -4,-120.25 1619.75,-120.25 1619.75,4 -4,4"/>
<!-- He3CellLength[Polarizer] -->
<g id="node1" class="node">
<title>He3CellLength[Polarizer]</title>
<polygon fill="none" stroke="red" stroke-dasharray="5,2" points="218.5,-116.25 21,-116.25 21,-91 218.5,-91 218.5,-116.25"/>
<text xml:space="preserve" text-anchor="start" x="29" y="-98.95" font-family="Times,serif" font-size="14.00" fill="red">He3CellLength[Polarizer]</text>
</g>
<!-- He3Opacity0[Polarizer] -->
<g id="node5" class="node">
<title>He3Opacity0[Polarizer]</title>
<polygon fill="none" stroke="black" points="518,-91.12 311.5,-91.12 311.5,-58.12 518,-58.12 518,-91.12"/>
<text xml:space="preserve" text-anchor="start" x="331.12" y="-74.83" font-family="Times,serif" font-size="14.00">He3Opacity0[Polarizer]</text>
<text xml:space="preserve" text-anchor="start" x="319.5" y="-63.68" font-family="Times,serif" font-size="11.00">via:</text>
<text xml:space="preserve" text-anchor="start" x="339.75" y="-63.68" font-family="Times,serif" font-style="italic" font-size="11.00">he3_opacity_from_cell_params</text>
</g>
<!-- He3CellLength[Polarizer]&#45;&gt;He3Opacity0[Polarizer] -->
<g id="edge2" class="edge">
<title>He3CellLength[Polarizer]:e&#45;&gt;He3Opacity0[Polarizer]:w</title>
<path fill="none" stroke="black" d="M219.5,-103.62C258.35,-103.62 267.13,-79.81 300.35,-75.34"/>
<polygon fill="black" stroke="black" points="300.23,-78.86 309.99,-74.72 299.79,-71.87 300.23,-78.86"/>
</g>
<!-- He3CellPressure[Polarizer] -->
<g id="node2" class="node">
<title>He3CellPressure[Polarizer]</title>
<polygon fill="none" stroke="red" stroke-dasharray="5,2" points="225.25,-87.25 14.25,-87.25 14.25,-62 225.25,-62 225.25,-87.25"/>
<text xml:space="preserve" text-anchor="start" x="22.25" y="-69.95" font-family="Times,serif" font-size="14.00" fill="red">He3CellPressure[Polarizer]</text>
</g>
<!-- He3CellPressure[Polarizer]&#45;&gt;He3Opacity0[Polarizer] -->
<g id="edge1" class="edge">
<title>He3CellPressure[Polarizer]:e&#45;&gt;He3Opacity0[Polarizer]:w</title>
<path fill="none" stroke="black" d="M226.25,-74.62C259.99,-74.62 271.2,-74.62 300.01,-74.62"/>
<polygon fill="black" stroke="black" points="299.99,-78.13 309.99,-74.63 299.99,-71.13 299.99,-78.13"/>
</g>
<!-- He3CellTemperature[Polarizer] -->
<g id="node3" class="node">
<title>He3CellTemperature[Polarizer]</title>
<polygon fill="none" stroke="red" stroke-dasharray="5,2" points="239.5,-58.25 0,-58.25 0,-33 239.5,-33 239.5,-58.25"/>
<text xml:space="preserve" text-anchor="start" x="8" y="-40.95" font-family="Times,serif" font-size="14.00" fill="red">He3CellTemperature[Polarizer]</text>
</g>
<!-- He3CellTemperature[Polarizer]&#45;&gt;He3Opacity0[Polarizer] -->
<g id="edge3" class="edge">
<title>He3CellTemperature[Polarizer]:e&#45;&gt;He3Opacity0[Polarizer]:w</title>
<path fill="none" stroke="black" d="M239.5,-45.62C269.82,-45.62 275.81,-68.03 300.24,-73.45"/>
<polygon fill="black" stroke="black" points="299.69,-76.91 309.99,-74.47 300.41,-69.95 299.69,-76.91"/>
</g>
<!-- He3CellTransmissionFractionIncomingUnpolarized[Polarizer, Polarized] -->
<g id="node4" class="node">
<title>He3CellTransmissionFractionIncomingUnpolarized[Polarizer, Polarized]</title>
<polygon fill="none" stroke="red" stroke-dasharray="5,2" points="1119,-54.25 590,-54.25 590,-29 1119,-29 1119,-54.25"/>
<text xml:space="preserve" text-anchor="start" x="598" y="-36.95" font-family="Times,serif" font-size="14.00" fill="red">He3CellTransmissionFractionIncomingUnpolarized[Polarizer, Polarized]</text>
</g>
<!-- TransmissionFunction[Polarizer] -->
<g id="node8" class="node">
<title>TransmissionFunction[Polarizer]</title>
<polygon fill="none" stroke="black" points="1615.75,-58.12 1191,-58.12 1191,-25.12 1615.75,-25.12 1615.75,-58.12"/>
<text xml:space="preserve" text-anchor="start" x="1287.12" y="-41.83" font-family="Times,serif" font-size="14.00">TransmissionFunction[Polarizer]</text>
<text xml:space="preserve" text-anchor="start" x="1199" y="-30.68" font-family="Times,serif" font-size="11.00">via:</text>
<text xml:space="preserve" text-anchor="start" x="1219.25" y="-30.68" font-family="Times,serif" font-style="italic" font-size="11.00">get_he3_transmission_incoming_unpolarized_from_fit_to_direct_beam</text>
</g>
<!-- He3CellTransmissionFractionIncomingUnpolarized[Polarizer, Polarized]&#45;&gt;TransmissionFunction[Polarizer] -->
<g id="edge5" class="edge">
<title>He3CellTransmissionFractionIncomingUnpolarized[Polarizer, Polarized]:e&#45;&gt;TransmissionFunction[Polarizer]:w</title>
<path fill="none" stroke="black" d="M1119,-41.62C1146.88,-41.62 1156.54,-41.62 1179.72,-41.62"/>
<polygon fill="black" stroke="black" points="1179.49,-45.13 1189.49,-41.63 1179.49,-38.13 1179.49,-45.13"/>
</g>
<!-- He3OpacityFunction[Polarizer] -->
<g id="node6" class="node">
<title>He3OpacityFunction[Polarizer]</title>
<polygon fill="none" stroke="black" points="982.12,-91.12 726.88,-91.12 726.88,-58.12 982.12,-58.12 982.12,-91.12"/>
<text xml:space="preserve" text-anchor="start" x="743.88" y="-74.83" font-family="Times,serif" font-size="14.00">He3OpacityFunction[Polarizer]</text>
<text xml:space="preserve" text-anchor="start" x="734.88" y="-63.68" font-family="Times,serif" font-size="11.00">via:</text>
<text xml:space="preserve" text-anchor="start" x="755.12" y="-63.68" font-family="Times,serif" font-style="italic" font-size="11.00">he3_opacity_function_from_cell_opacity</text>
</g>
<!-- He3Opacity0[Polarizer]&#45;&gt;He3OpacityFunction[Polarizer] -->
<g id="edge4" class="edge">
<title>He3Opacity0[Polarizer]:e&#45;&gt;He3OpacityFunction[Polarizer]:w</title>
<path fill="none" stroke="black" d="M518,-74.62C606.51,-74.62 631.42,-74.62 714.59,-74.62"/>
<polygon fill="black" stroke="black" points="714.36,-78.13 724.36,-74.63 714.36,-71.13 714.36,-78.13"/>
</g>
<!-- He3OpacityFunction[Polarizer]&#45;&gt;TransmissionFunction[Polarizer] -->
<g id="edge6" class="edge">
<title>He3OpacityFunction[Polarizer]:e&#45;&gt;TransmissionFunction[Polarizer]:w</title>
<path fill="none" stroke="black" d="M983.12,-74.62C1044.16,-74.62 1058.76,-64.49 1119,-54.62 1146.95,-50.05 1156.17,-43.58 1179.57,-41.99"/>
<polygon fill="black" stroke="black" points="1179.6,-45.49 1189.49,-41.67 1179.38,-38.49 1179.6,-45.49"/>
</g>
<!-- He3TransmissionEmptyGlass[Polarizer] -->
<g id="node7" class="node">
<title>He3TransmissionEmptyGlass[Polarizer]</title>
<polygon fill="none" stroke="red" stroke-dasharray="5,2" points="1005,-25.25 704,-25.25 704,0 1005,0 1005,-25.25"/>
<text xml:space="preserve" text-anchor="start" x="712" y="-7.95" font-family="Times,serif" font-size="14.00" fill="red">He3TransmissionEmptyGlass[Polarizer]</text>
</g>
<!-- He3TransmissionEmptyGlass[Polarizer]&#45;&gt;TransmissionFunction[Polarizer] -->
<g id="edge7" class="edge">
<title>He3TransmissionEmptyGlass[Polarizer]:e&#45;&gt;TransmissionFunction[Polarizer]:w</title>
<path fill="none" stroke="black" d="M1006,-12.62C1056.79,-12.62 1068.84,-21.67 1119,-29.62 1146.91,-34.05 1156.21,-39.87 1179.59,-41.3"/>
<polygon fill="black" stroke="black" points="1179.39,-44.79 1189.49,-41.58 1179.59,-37.8 1179.39,-44.79"/>
</g>
</g>
</svg>
