<?xml version="1.0" encoding="utf-8" standalone="no"?>
<!DOCTYPE svg PUBLIC "-//W3C//DTD SVG 1.1//EN"
  "http://www.w3.org/Graphics/SVG/1.1/DTD/svg11.dtd">
<svg xmlns:xlink="http://www.w3.org/1999/xlink" width="872.39952pt" height="296.39952pt" viewBox="0 0 872.39952 296.39952" xmlns="http://www.w3.org/2000/svg" version="1.1">
 <metadata>
  <rdf:RDF xmlns:dc="http://purl.org/dc/elements/1.1/" xmlns:cc="http://creativecommons.org/ns#" xmlns:rdf="http://www.w3.org/1999/02/22-rdf-syntax-ns#">
   <cc:Work>
    <dc:type rdf:resource="http://purl.org/dc/dcmitype/StillImage"/>
    <dc:date>2026-06-30T14:34:15.739471</dc:date>
    <dc:format>image/svg+xml</dc:format>
    <dc:creator>
     <cc:Agent>
      <dc:title>Matplotlib v3.11.0, https://matplotlib.org/</dc:title>
     </cc:Agent>
    </dc:creator>
   </cc:Work>
  </rdf:RDF>
 </metadata>
 <defs>
  <style type="text/css">*{stroke-linejoin: round; stroke-linecap: butt}</style>
 </defs>
 <g id="figure_1">
  <g id="patch_1">
   <path d="M 0 296.39952 
L 872.39952 296.39952 
L 872.39952 0 
L 0 0 
z
" style="fill: #ffffff"/>
  </g>
  <g id="axes_1">
   <g id="patch_2">
    <path d="M 47.288281 256.514364 
L 425.39976 256.514364 
L 425.39976 22.318125 
L 47.288281 22.318125 
z
" style="fill: #ffffff"/>
   </g>
   <g id="matplotlib.axis_1">
    <g id="xtick_1">
     <g id="line2d_1">
      <defs>
       <path id="m28a926bc51" d="M 0 0 
L 0 3.5 
" style="stroke: #000000; stroke-width: 0.8"/>
      </defs>
      <g>
       <use xlink:href="#m28a926bc51" x="82.566625" y="256.514364" style="stroke: #000000; stroke-width: 0.8"/>
      </g>
     </g>
     <g id="text_1">
      <!-- 1.0 -->
      <g transform="translate(74.615062 271.11202) scale(0.1 -0.1)">
       <defs>
        <path id="DejaVuSans-14" d="M 794 531 
L 1825 531 
L 1825 4091 
L 703 3866 
L 703 4441 
L 1819 4666 
L 2450 4666 
L 2450 531 
L 3481 531 
L 3481 0 
L 794 0 
L 794 531 
z
" transform="scale(0.015625)"/>
        <path id="DejaVuSans-11" d="M 684 794 
L 1344 794 
L 1344 0 
L 684 0 
L 684 794 
z
" transform="scale(0.015625)"/>
        <path id="DejaVuSans-13" d="M 2034 4250 
Q 1547 4250 1301 3770 
Q 1056 3291 1056 2328 
Q 1056 1369 1301 889 
Q 1547 409 2034 409 
Q 2525 409 2770 889 
Q 3016 1369 3016 2328 
Q 3016 3291 2770 3770 
Q 2525 4250 2034 4250 
z
M 2034 4750 
Q 2819 4750 3233 4129 
Q 3647 3509 3647 2328 
Q 3647 1150 3233 529 
Q 2819 -91 2034 -91 
Q 1250 -91 836 529 
Q 422 1150 422 2328 
Q 422 3509 836 4129 
Q 1250 4750 2034 4750 
z
" transform="scale(0.015625)"/>
       </defs>
       <use xlink:href="#DejaVuSans-14"/>
       <use xlink:href="#DejaVuSans-11" transform="translate(63.625 0)"/>
       <use xlink:href="#DejaVuSans-13" transform="translate(95.40625 0)"/>
      </g>
     </g>
    </g>
    <g id="xtick_2">
     <g id="line2d_2">
      <g>
       <use xlink:href="#m28a926bc51" x="127.795271" y="256.514364" style="stroke: #000000; stroke-width: 0.8"/>
      </g>
     </g>
     <g id="text_2">
      <!-- 1.5 -->
      <g transform="translate(119.843708 271.11202) scale(0.1 -0.1)">
       <defs>
        <path id="DejaVuSans-18" d="M 691 4666 
L 3169 4666 
L 3169 4134 
L 1269 4134 
L 1269 2991 
Q 1406 3038 1543 3061 
Q 1681 3084 1819 3084 
Q 2600 3084 3056 2656 
Q 3513 2228 3513 1497 
Q 3513 744 3044 326 
Q 2575 -91 1722 -91 
Q 1428 -91 1123 -41 
Q 819 9 494 109 
L 494 744 
Q 775 591 1075 516 
Q 1375 441 1709 441 
Q 2250 441 2565 725 
Q 2881 1009 2881 1497 
Q 2881 1984 2565 2268 
Q 2250 2553 1709 2553 
Q 1456 2553 1204 2497 
Q 953 2441 691 2322 
L 691 4666 
z
" transform="scale(0.015625)"/>
       </defs>
       <use xlink:href="#DejaVuSans-14"/>
       <use xlink:href="#DejaVuSans-11" transform="translate(63.625 0)"/>
       <use xlink:href="#DejaVuSans-18" transform="translate(95.40625 0)"/>
      </g>
     </g>
    </g>
    <g id="xtick_3">
     <g id="line2d_3">
      <g>
       <use xlink:href="#m28a926bc51" x="173.023917" y="256.514364" style="stroke: #000000; stroke-width: 0.8"/>
      </g>
     </g>
     <g id="text_3">
      <!-- 2.0 -->
      <g transform="translate(165.072354 271.11202) scale(0.1 -0.1)">
       <defs>
        <path id="DejaVuSans-15" d="M 1228 531 
L 3431 531 
L 3431 0 
L 469 0 
L 469 531 
Q 828 903 1448 1529 
Q 2069 2156 2228 2338 
Q 2531 2678 2651 2914 
Q 2772 3150 2772 3378 
Q 2772 3750 2511 3984 
Q 2250 4219 1831 4219 
Q 1534 4219 1204 4116 
Q 875 4013 500 3803 
L 500 4441 
Q 881 4594 1212 4672 
Q 1544 4750 1819 4750 
Q 2544 4750 2975 4387 
Q 3406 4025 3406 3419 
Q 3406 3131 3298 2873 
Q 3191 2616 2906 2266 
Q 2828 2175 2409 1742 
Q 1991 1309 1228 531 
z
" transform="scale(0.015625)"/>
       </defs>
       <use xlink:href="#DejaVuSans-15"/>
       <use xlink:href="#DejaVuSans-11" transform="translate(63.625 0)"/>
       <use xlink:href="#DejaVuSans-13" transform="translate(95.40625 0)"/>
      </g>
     </g>
    </g>
    <g id="xtick_4">
     <g id="line2d_4">
      <g>
       <use xlink:href="#m28a926bc51" x="218.252562" y="256.514364" style="stroke: #000000; stroke-width: 0.8"/>
      </g>
     </g>
     <g id="text_4">
      <!-- 2.5 -->
      <g transform="translate(210.301 271.11202) scale(0.1 -0.1)">
       <use xlink:href="#DejaVuSans-15"/>
       <use xlink:href="#DejaVuSans-11" transform="translate(63.625 0)"/>
       <use xlink:href="#DejaVuSans-18" transform="translate(95.40625 0)"/>
      </g>
     </g>
    </g>
    <g id="xtick_5">
     <g id="line2d_5">
      <g>
       <use xlink:href="#m28a926bc51" x="263.481208" y="256.514364" style="stroke: #000000; stroke-width: 0.8"/>
      </g>
     </g>
     <g id="text_5">
      <!-- 3.0 -->
      <g transform="translate(255.529646 271.11202) scale(0.1 -0.1)">
       <defs>
        <path id="DejaVuSans-16" d="M 2597 2516 
Q 3050 2419 3304 2112 
Q 3559 1806 3559 1356 
Q 3559 666 3084 287 
Q 2609 -91 1734 -91 
Q 1441 -91 1130 -33 
Q 819 25 488 141 
L 488 750 
Q 750 597 1062 519 
Q 1375 441 1716 441 
Q 2309 441 2620 675 
Q 2931 909 2931 1356 
Q 2931 1769 2642 2001 
Q 2353 2234 1838 2234 
L 1294 2234 
L 1294 2753 
L 1863 2753 
Q 2328 2753 2575 2939 
Q 2822 3125 2822 3475 
Q 2822 3834 2567 4026 
Q 2313 4219 1838 4219 
Q 1578 4219 1281 4162 
Q 984 4106 628 3988 
L 628 4550 
Q 988 4650 1302 4700 
Q 1616 4750 1894 4750 
Q 2613 4750 3031 4423 
Q 3450 4097 3450 3541 
Q 3450 3153 3228 2886 
Q 3006 2619 2597 2516 
z
" transform="scale(0.015625)"/>
       </defs>
       <use xlink:href="#DejaVuSans-16"/>
       <use xlink:href="#DejaVuSans-11" transform="translate(63.625 0)"/>
       <use xlink:href="#DejaVuSans-13" transform="translate(95.40625 0)"/>
      </g>
     </g>
    </g>
    <g id="xtick_6">
     <g id="line2d_6">
      <g>
       <use xlink:href="#m28a926bc51" x="308.709854" y="256.514364" style="stroke: #000000; stroke-width: 0.8"/>
      </g>
     </g>
     <g id="text_6">
      <!-- 3.5 -->
      <g transform="translate(300.758291 271.11202) scale(0.1 -0.1)">
       <use xlink:href="#DejaVuSans-16"/>
       <use xlink:href="#DejaVuSans-11" transform="translate(63.625 0)"/>
       <use xlink:href="#DejaVuSans-18" transform="translate(95.40625 0)"/>
      </g>
     </g>
    </g>
    <g id="xtick_7">
     <g id="line2d_7">
      <g>
       <use xlink:href="#m28a926bc51" x="353.9385" y="256.514364" style="stroke: #000000; stroke-width: 0.8"/>
      </g>
     </g>
     <g id="text_7">
      <!-- 4.0 -->
      <g transform="translate(345.986937 271.11202) scale(0.1 -0.1)">
       <defs>
        <path id="DejaVuSans-17" d="M 2419 4116 
L 825 1625 
L 2419 1625 
L 2419 4116 
z
M 2253 4666 
L 3047 4666 
L 3047 1625 
L 3713 1625 
L 3713 1100 
L 3047 1100 
L 3047 0 
L 2419 0 
L 2419 1100 
L 313 1100 
L 313 1709 
L 2253 4666 
z
" transform="scale(0.015625)"/>
       </defs>
       <use xlink:href="#DejaVuSans-17"/>
       <use xlink:href="#DejaVuSans-11" transform="translate(63.625 0)"/>
       <use xlink:href="#DejaVuSans-13" transform="translate(95.40625 0)"/>
      </g>
     </g>
    </g>
    <g id="xtick_8">
     <g id="line2d_8">
      <g>
       <use xlink:href="#m28a926bc51" x="399.167145" y="256.514364" style="stroke: #000000; stroke-width: 0.8"/>
      </g>
     </g>
     <g id="text_8">
      <!-- 4.5 -->
      <g transform="translate(391.215583 271.11202) scale(0.1 -0.1)">
       <use xlink:href="#DejaVuSans-17"/>
       <use xlink:href="#DejaVuSans-11" transform="translate(63.625 0)"/>
       <use xlink:href="#DejaVuSans-18" transform="translate(95.40625 0)"/>
      </g>
     </g>
    </g>
    <g id="text_9">
     <!-- wavelength [Å] -->
     <g transform="translate(198.306521 286.797176) scale(0.1 -0.1)">
      <defs>
       <path id="DejaVuSans-5a" d="M 269 3500 
L 844 3500 
L 1563 769 
L 2278 3500 
L 2956 3500 
L 3675 769 
L 4391 3500 
L 4966 3500 
L 4050 0 
L 3372 0 
L 2619 2869 
L 1863 0 
L 1184 0 
L 269 3500 
z
" transform="scale(0.015625)"/>
       <path id="DejaVuSans-44" d="M 2194 1759 
Q 1497 1759 1228 1600 
Q 959 1441 959 1056 
Q 959 750 1161 570 
Q 1363 391 1709 391 
Q 2188 391 2477 730 
Q 2766 1069 2766 1631 
L 2766 1759 
L 2194 1759 
z
M 3341 1997 
L 3341 0 
L 2766 0 
L 2766 531 
Q 2569 213 2275 61 
Q 1981 -91 1556 -91 
Q 1019 -91 701 211 
Q 384 513 384 1019 
Q 384 1609 779 1909 
Q 1175 2209 1959 2209 
L 2766 2209 
L 2766 2266 
Q 2766 2663 2505 2880 
Q 2244 3097 1772 3097 
Q 1472 3097 1187 3025 
Q 903 2953 641 2809 
L 641 3341 
Q 956 3463 1253 3523 
Q 1550 3584 1831 3584 
Q 2591 3584 2966 3190 
Q 3341 2797 3341 1997 
z
" transform="scale(0.015625)"/>
       <path id="DejaVuSans-59" d="M 191 3500 
L 800 3500 
L 1894 563 
L 2988 3500 
L 3597 3500 
L 2284 0 
L 1503 0 
L 191 3500 
z
" transform="scale(0.015625)"/>
       <path id="DejaVuSans-48" d="M 3597 1894 
L 3597 1613 
L 953 1613 
Q 991 1019 1311 708 
Q 1631 397 2203 397 
Q 2534 397 2845 478 
Q 3156 559 3463 722 
L 3463 178 
Q 3153 47 2828 -22 
Q 2503 -91 2169 -91 
Q 1331 -91 842 396 
Q 353 884 353 1716 
Q 353 2575 817 3079 
Q 1281 3584 2069 3584 
Q 2775 3584 3186 3129 
Q 3597 2675 3597 1894 
z
M 3022 2063 
Q 3016 2534 2758 2815 
Q 2500 3097 2075 3097 
Q 1594 3097 1305 2825 
Q 1016 2553 972 2059 
L 3022 2063 
z
" transform="scale(0.015625)"/>
       <path id="DejaVuSans-4f" d="M 603 4863 
L 1178 4863 
L 1178 0 
L 603 0 
L 603 4863 
z
" transform="scale(0.015625)"/>
       <path id="DejaVuSans-51" d="M 3513 2113 
L 3513 0 
L 2938 0 
L 2938 2094 
Q 2938 2591 2744 2837 
Q 2550 3084 2163 3084 
Q 1697 3084 1428 2787 
Q 1159 2491 1159 1978 
L 1159 0 
L 581 0 
L 581 3500 
L 1159 3500 
L 1159 2956 
Q 1366 3272 1645 3428 
Q 1925 3584 2291 3584 
Q 2894 3584 3203 3211 
Q 3513 2838 3513 2113 
z
" transform="scale(0.015625)"/>
       <path id="DejaVuSans-4a" d="M 2906 1791 
Q 2906 2416 2648 2759 
Q 2391 3103 1925 3103 
Q 1463 3103 1205 2759 
Q 947 2416 947 1791 
Q 947 1169 1205 825 
Q 1463 481 1925 481 
Q 2391 481 2648 825 
Q 2906 1169 2906 1791 
z
M 3481 434 
Q 3481 -459 3084 -895 
Q 2688 -1331 1869 -1331 
Q 1566 -1331 1297 -1286 
Q 1028 -1241 775 -1147 
L 775 -588 
Q 1028 -725 1275 -790 
Q 1522 -856 1778 -856 
Q 2344 -856 2625 -561 
Q 2906 -266 2906 331 
L 2906 616 
Q 2728 306 2450 153 
Q 2172 0 1784 0 
Q 1141 0 747 490 
Q 353 981 353 1791 
Q 353 2603 747 3093 
Q 1141 3584 1784 3584 
Q 2172 3584 2450 3431 
Q 2728 3278 2906 2969 
L 2906 3500 
L 3481 3500 
L 3481 434 
z
" transform="scale(0.015625)"/>
       <path id="DejaVuSans-57" d="M 1172 4494 
L 1172 3500 
L 2356 3500 
L 2356 3053 
L 1172 3053 
L 1172 1153 
Q 1172 725 1289 603 
Q 1406 481 1766 481 
L 2356 481 
L 2356 0 
L 1766 0 
Q 1100 0 847 248 
Q 594 497 594 1153 
L 594 3053 
L 172 3053 
L 172 3500 
L 594 3500 
L 594 4494 
L 1172 4494 
z
" transform="scale(0.015625)"/>
       <path id="DejaVuSans-4b" d="M 3513 2113 
L 3513 0 
L 2938 0 
L 2938 2094 
Q 2938 2591 2744 2837 
Q 2550 3084 2163 3084 
Q 1697 3084 1428 2787 
Q 1159 2491 1159 1978 
L 1159 0 
L 581 0 
L 581 4863 
L 1159 4863 
L 1159 2956 
Q 1366 3272 1645 3428 
Q 1925 3584 2291 3584 
Q 2894 3584 3203 3211 
Q 3513 2838 3513 2113 
z
" transform="scale(0.015625)"/>
       <path id="DejaVuSans-3" transform="scale(0.015625)"/>
       <path id="DejaVuSans-3e" d="M 550 4863 
L 1875 4863 
L 1875 4416 
L 1125 4416 
L 1125 -397 
L 1875 -397 
L 1875 -844 
L 550 -844 
L 550 4863 
z
" transform="scale(0.015625)"/>
       <path id="DejaVuSans-87" d="M 2663 5081 
Q 2663 5278 2523 5417 
Q 2384 5556 2188 5556 
Q 1988 5556 1852 5420 
Q 1716 5284 1716 5081 
Q 1716 4884 1853 4746 
Q 1991 4609 2188 4609 
Q 2384 4609 2523 4746 
Q 2663 4884 2663 5081 
z
M 2188 4044 
L 1338 1722 
L 3041 1722 
L 2188 4044 
z
M 1716 4366 
Q 1525 4494 1428 4673 
Q 1331 4853 1331 5081 
Q 1331 5441 1579 5691 
Q 1828 5941 2188 5941 
Q 2544 5941 2795 5689 
Q 3047 5438 3047 5081 
Q 3047 4863 2948 4678 
Q 2850 4494 2663 4366 
L 4325 0 
L 3669 0 
L 3244 1197 
L 1141 1197 
L 716 0 
L 50 0 
L 1716 4366 
z
" transform="scale(0.015625)"/>
       <path id="DejaVuSans-40" d="M 1947 4863 
L 1947 -844 
L 622 -844 
L 622 -397 
L 1369 -397 
L 1369 4416 
L 622 4416 
L 622 4863 
L 1947 4863 
z
" transform="scale(0.015625)"/>
      </defs>
      <use xlink:href="#DejaVuSans-5a"/>
      <use xlink:href="#DejaVuSans-44" transform="translate(81.78125 0)"/>
      <use xlink:href="#DejaVuSans-59" transform="translate(143.0625 0)"/>
      <use xlink:href="#DejaVuSans-48" transform="translate(202.25 0)"/>
      <use xlink:href="#DejaVuSans-4f" transform="translate(263.78125 0)"/>
      <use xlink:href="#DejaVuSans-48" transform="translate(291.5625 0)"/>
      <use xlink:href="#DejaVuSans-51" transform="translate(353.09375 0)"/>
      <use xlink:href="#DejaVuSans-4a" transform="translate(416.46875 0)"/>
      <use xlink:href="#DejaVuSans-57" transform="translate(479.953125 0)"/>
      <use xlink:href="#DejaVuSans-4b" transform="translate(519.15625 0)"/>
      <use xlink:href="#DejaVuSans-3" transform="translate(582.53125 0)"/>
      <use xlink:href="#DejaVuSans-3e" transform="translate(614.3125 0)"/>
      <use xlink:href="#DejaVuSans-87" transform="translate(653.328125 0)"/>
      <use xlink:href="#DejaVuSans-40" transform="translate(721.734375 0)"/>
     </g>
    </g>
   </g>
   <g id="matplotlib.axis_2">
    <g id="ytick_1">
     <g id="line2d_9">
      <defs>
       <path id="m553843ac1a" d="M 0 0 
L -3.5 0 
" style="stroke: #000000; stroke-width: 0.8"/>
      </defs>
      <g>
       <use xlink:href="#m553843ac1a" x="47.288281" y="245.86908" style="stroke: #000000; stroke-width: 0.8"/>
      </g>
     </g>
     <g id="text_10">
      <!-- 0 -->
      <g transform="translate(33.925781 249.667908) scale(0.1 -0.1)">
       <use xlink:href="#DejaVuSans-13"/>
      </g>
     </g>
    </g>
    <g id="ytick_2">
     <g id="line2d_10">
      <g>
       <use xlink:href="#m553843ac1a" x="47.288281" y="218.290625" style="stroke: #000000; stroke-width: 0.8"/>
      </g>
     </g>
     <g id="text_11">
      <!-- 100 -->
      <g transform="translate(21.200781 222.089453) scale(0.1 -0.1)">
       <use xlink:href="#DejaVuSans-14"/>
       <use xlink:href="#DejaVuSans-13" transform="translate(63.625 0)"/>
       <use xlink:href="#DejaVuSans-13" transform="translate(127.25 0)"/>
      </g>
     </g>
    </g>
    <g id="ytick_3">
     <g id="line2d_11">
      <g>
       <use xlink:href="#m553843ac1a" x="47.288281" y="190.71217" style="stroke: #000000; stroke-width: 0.8"/>
      </g>
     </g>
     <g id="text_12">
      <!-- 200 -->
      <g transform="translate(21.200781 194.510999) scale(0.1 -0.1)">
       <use xlink:href="#DejaVuSans-15"/>
       <use xlink:href="#DejaVuSans-13" transform="translate(63.625 0)"/>
       <use xlink:href="#DejaVuSans-13" transform="translate(127.25 0)"/>
      </g>
     </g>
    </g>
    <g id="ytick_4">
     <g id="line2d_12">
      <g>
       <use xlink:href="#m553843ac1a" x="47.288281" y="163.133716" style="stroke: #000000; stroke-width: 0.8"/>
      </g>
     </g>
     <g id="text_13">
      <!-- 300 -->
      <g transform="translate(21.200781 166.932544) scale(0.1 -0.1)">
       <use xlink:href="#DejaVuSans-16"/>
       <use xlink:href="#DejaVuSans-13" transform="translate(63.625 0)"/>
       <use xlink:href="#DejaVuSans-13" transform="translate(127.25 0)"/>
      </g>
     </g>
    </g>
    <g id="ytick_5">
     <g id="line2d_13">
      <g>
       <use xlink:href="#m553843ac1a" x="47.288281" y="135.555261" style="stroke: #000000; stroke-width: 0.8"/>
      </g>
     </g>
     <g id="text_14">
      <!-- 400 -->
      <g transform="translate(21.200781 139.354089) scale(0.1 -0.1)">
       <use xlink:href="#DejaVuSans-17"/>
       <use xlink:href="#DejaVuSans-13" transform="translate(63.625 0)"/>
       <use xlink:href="#DejaVuSans-13" transform="translate(127.25 0)"/>
      </g>
     </g>
    </g>
    <g id="ytick_6">
     <g id="line2d_14">
      <g>
       <use xlink:href="#m553843ac1a" x="47.288281" y="107.976806" style="stroke: #000000; stroke-width: 0.8"/>
      </g>
     </g>
     <g id="text_15">
      <!-- 500 -->
      <g transform="translate(21.200781 111.775634) scale(0.1 -0.1)">
       <use xlink:href="#DejaVuSans-18"/>
       <use xlink:href="#DejaVuSans-13" transform="translate(63.625 0)"/>
       <use xlink:href="#DejaVuSans-13" transform="translate(127.25 0)"/>
      </g>
     </g>
    </g>
    <g id="ytick_7">
     <g id="line2d_15">
      <g>
       <use xlink:href="#m553843ac1a" x="47.288281" y="80.398351" style="stroke: #000000; stroke-width: 0.8"/>
      </g>
     </g>
     <g id="text_16">
      <!-- 600 -->
      <g transform="translate(21.200781 84.197179) scale(0.1 -0.1)">
       <defs>
        <path id="DejaVuSans-19" d="M 2113 2584 
Q 1688 2584 1439 2293 
Q 1191 2003 1191 1497 
Q 1191 994 1439 701 
Q 1688 409 2113 409 
Q 2538 409 2786 701 
Q 3034 994 3034 1497 
Q 3034 2003 2786 2293 
Q 2538 2584 2113 2584 
z
M 3366 4563 
L 3366 3988 
Q 3128 4100 2886 4159 
Q 2644 4219 2406 4219 
Q 1781 4219 1451 3797 
Q 1122 3375 1075 2522 
Q 1259 2794 1537 2939 
Q 1816 3084 2150 3084 
Q 2853 3084 3261 2657 
Q 3669 2231 3669 1497 
Q 3669 778 3244 343 
Q 2819 -91 2113 -91 
Q 1303 -91 875 529 
Q 447 1150 447 2328 
Q 447 3434 972 4092 
Q 1497 4750 2381 4750 
Q 2619 4750 2861 4703 
Q 3103 4656 3366 4563 
z
" transform="scale(0.015625)"/>
       </defs>
       <use xlink:href="#DejaVuSans-19"/>
       <use xlink:href="#DejaVuSans-13" transform="translate(63.625 0)"/>
       <use xlink:href="#DejaVuSans-13" transform="translate(127.25 0)"/>
      </g>
     </g>
    </g>
    <g id="ytick_8">
     <g id="line2d_16">
      <g>
       <use xlink:href="#m553843ac1a" x="47.288281" y="52.819896" style="stroke: #000000; stroke-width: 0.8"/>
      </g>
     </g>
     <g id="text_17">
      <!-- 700 -->
      <g transform="translate(21.200781 56.618724) scale(0.1 -0.1)">
       <defs>
        <path id="DejaVuSans-1a" d="M 525 4666 
L 3525 4666 
L 3525 4397 
L 1831 0 
L 1172 0 
L 2766 4134 
L 525 4134 
L 525 4666 
z
" transform="scale(0.015625)"/>
       </defs>
       <use xlink:href="#DejaVuSans-1a"/>
       <use xlink:href="#DejaVuSans-13" transform="translate(63.625 0)"/>
       <use xlink:href="#DejaVuSans-13" transform="translate(127.25 0)"/>
      </g>
     </g>
    </g>
    <g id="ytick_9">
     <g id="line2d_17">
      <g>
       <use xlink:href="#m553843ac1a" x="47.288281" y="25.241441" style="stroke: #000000; stroke-width: 0.8"/>
      </g>
     </g>
     <g id="text_18">
      <!-- 800 -->
      <g transform="translate(21.200781 29.040269) scale(0.1 -0.1)">
       <defs>
        <path id="DejaVuSans-1b" d="M 2034 2216 
Q 1584 2216 1326 1975 
Q 1069 1734 1069 1313 
Q 1069 891 1326 650 
Q 1584 409 2034 409 
Q 2484 409 2743 651 
Q 3003 894 3003 1313 
Q 3003 1734 2745 1975 
Q 2488 2216 2034 2216 
z
M 1403 2484 
Q 997 2584 770 2862 
Q 544 3141 544 3541 
Q 544 4100 942 4425 
Q 1341 4750 2034 4750 
Q 2731 4750 3128 4425 
Q 3525 4100 3525 3541 
Q 3525 3141 3298 2862 
Q 3072 2584 2669 2484 
Q 3125 2378 3379 2068 
Q 3634 1759 3634 1313 
Q 3634 634 3220 271 
Q 2806 -91 2034 -91 
Q 1263 -91 848 271 
Q 434 634 434 1313 
Q 434 1759 690 2068 
Q 947 2378 1403 2484 
z
M 1172 3481 
Q 1172 3119 1398 2916 
Q 1625 2713 2034 2713 
Q 2441 2713 2670 2916 
Q 2900 3119 2900 3481 
Q 2900 3844 2670 4047 
Q 2441 4250 2034 4250 
Q 1625 4250 1398 4047 
Q 1172 3844 1172 3481 
z
" transform="scale(0.015625)"/>
       </defs>
       <use xlink:href="#DejaVuSans-1b"/>
       <use xlink:href="#DejaVuSans-13" transform="translate(63.625 0)"/>
       <use xlink:href="#DejaVuSans-13" transform="translate(127.25 0)"/>
      </g>
     </g>
    </g>
    <g id="text_19">
     <!-- [counts] -->
     <g transform="translate(14.798438 160.028744) rotate(-90) scale(0.1 -0.1)">
      <defs>
       <path id="DejaVuSans-46" d="M 3122 3366 
L 3122 2828 
Q 2878 2963 2633 3030 
Q 2388 3097 2138 3097 
Q 1578 3097 1268 2742 
Q 959 2388 959 1747 
Q 959 1106 1268 751 
Q 1578 397 2138 397 
Q 2388 397 2633 464 
Q 2878 531 3122 666 
L 3122 134 
Q 2881 22 2623 -34 
Q 2366 -91 2075 -91 
Q 1284 -91 818 406 
Q 353 903 353 1747 
Q 353 2603 823 3093 
Q 1294 3584 2113 3584 
Q 2378 3584 2631 3529 
Q 2884 3475 3122 3366 
z
" transform="scale(0.015625)"/>
       <path id="DejaVuSans-52" d="M 1959 3097 
Q 1497 3097 1228 2736 
Q 959 2375 959 1747 
Q 959 1119 1226 758 
Q 1494 397 1959 397 
Q 2419 397 2687 759 
Q 2956 1122 2956 1747 
Q 2956 2369 2687 2733 
Q 2419 3097 1959 3097 
z
M 1959 3584 
Q 2709 3584 3137 3096 
Q 3566 2609 3566 1747 
Q 3566 888 3137 398 
Q 2709 -91 1959 -91 
Q 1206 -91 779 398 
Q 353 888 353 1747 
Q 353 2609 779 3096 
Q 1206 3584 1959 3584 
z
" transform="scale(0.015625)"/>
       <path id="DejaVuSans-58" d="M 544 1381 
L 544 3500 
L 1119 3500 
L 1119 1403 
Q 1119 906 1312 657 
Q 1506 409 1894 409 
Q 2359 409 2629 706 
Q 2900 1003 2900 1516 
L 2900 3500 
L 3475 3500 
L 3475 0 
L 2900 0 
L 2900 538 
Q 2691 219 2414 64 
Q 2138 -91 1772 -91 
Q 1169 -91 856 284 
Q 544 659 544 1381 
z
M 1991 3584 
L 1991 3584 
z
" transform="scale(0.015625)"/>
       <path id="DejaVuSans-56" d="M 2834 3397 
L 2834 2853 
Q 2591 2978 2328 3040 
Q 2066 3103 1784 3103 
Q 1356 3103 1142 2972 
Q 928 2841 928 2578 
Q 928 2378 1081 2264 
Q 1234 2150 1697 2047 
L 1894 2003 
Q 2506 1872 2764 1633 
Q 3022 1394 3022 966 
Q 3022 478 2636 193 
Q 2250 -91 1575 -91 
Q 1294 -91 989 -36 
Q 684 19 347 128 
L 347 722 
Q 666 556 975 473 
Q 1284 391 1588 391 
Q 1994 391 2212 530 
Q 2431 669 2431 922 
Q 2431 1156 2273 1281 
Q 2116 1406 1581 1522 
L 1381 1569 
Q 847 1681 609 1914 
Q 372 2147 372 2553 
Q 372 3047 722 3315 
Q 1072 3584 1716 3584 
Q 2034 3584 2315 3537 
Q 2597 3491 2834 3397 
z
" transform="scale(0.015625)"/>
      </defs>
      <use xlink:href="#DejaVuSans-3e"/>
      <use xlink:href="#DejaVuSans-46" transform="translate(39.015625 0)"/>
      <use xlink:href="#DejaVuSans-52" transform="translate(94 0)"/>
      <use xlink:href="#DejaVuSans-58" transform="translate(155.1875 0)"/>
      <use xlink:href="#DejaVuSans-51" transform="translate(218.5625 0)"/>
      <use xlink:href="#DejaVuSans-57" transform="translate(281.9375 0)"/>
      <use xlink:href="#DejaVuSans-56" transform="translate(321.140625 0)"/>
      <use xlink:href="#DejaVuSans-40" transform="translate(373.234375 0)"/>
     </g>
    </g>
   </g>
   <g id="line2d_18">
    <path d="M 64.475167 245.86908 
L 73.068609 245.86908 
L 73.068609 244.490157 
L 74.787298 244.490157 
L 74.787298 234.561914 
L 76.505986 234.561914 
L 76.505986 227.6673 
L 78.224675 227.6673 
L 78.224675 214.981211 
L 79.943364 214.981211 
L 79.943364 214.705426 
L 81.662052 214.705426 
L 81.662052 202.019337 
L 83.380741 202.019337 
L 83.380741 196.503646 
L 85.099429 196.503646 
L 85.099429 184.093341 
L 86.818118 184.093341 
L 86.818118 173.337744 
L 88.536806 173.337744 
L 88.536806 161.479008 
L 90.255495 161.479008 
L 90.255495 157.618025 
L 91.974183 157.618025 
L 91.974183 143.828797 
L 93.692872 143.828797 
L 93.692872 146.310858 
L 95.41156 146.310858 
L 95.41156 124.248094 
L 97.130249 124.248094 
L 97.130249 123.420741 
L 98.848937 123.420741 
L 98.848937 123.144956 
L 100.567626 123.144956 
L 100.567626 117.90505 
L 102.286315 117.90505 
L 102.286315 120.387111 
L 104.005003 120.387111 
L 104.005003 93.360225 
L 105.723692 93.360225 
L 105.723692 93.08444 
L 109.161069 93.08444 
L 109.161069 68.263831 
L 110.879757 68.263831 
L 110.879757 67.712262 
L 112.598446 67.712262 
L 112.598446 77.088936 
L 114.317134 77.088936 
L 114.317134 64.402847 
L 116.035823 64.402847 
L 116.035823 55.026172 
L 117.754511 55.026172 
L 117.754511 57.784018 
L 119.4732 57.784018 
L 119.4732 61.920786 
L 121.191888 61.920786 
L 121.191888 53.64725 
L 124.629266 53.64725 
L 124.629266 55.853526 
L 126.347954 55.853526 
L 126.347954 47.855774 
L 128.066643 47.855774 
L 128.066643 32.963409 
L 129.785331 32.963409 
L 129.785331 43.167437 
L 131.50402 43.167437 
L 131.50402 40.409591 
L 133.222708 40.409591 
L 133.222708 41.236945 
L 134.941397 41.236945 
L 134.941397 44.822144 
L 136.660085 44.822144 
L 136.660085 46.201067 
L 138.378774 46.201067 
L 138.378774 47.855774 
L 140.097462 47.855774 
L 140.097462 64.127063 
L 141.816151 64.127063 
L 141.816151 69.091184 
L 143.534839 69.091184 
L 143.534839 55.853526 
L 145.253528 55.853526 
L 145.253528 71.297461 
L 146.972217 71.297461 
L 146.972217 77.364721 
L 148.690905 77.364721 
L 148.690905 80.122566 
L 150.409594 80.122566 
L 150.409594 76.813152 
L 152.128282 76.813152 
L 152.128282 82.328843 
L 153.846971 82.328843 
L 153.846971 66.609124 
L 155.565659 66.609124 
L 155.565659 74.88266 
L 157.284348 74.88266 
L 157.284348 78.467859 
L 159.003036 78.467859 
L 159.003036 76.813152 
L 160.721725 76.813152 
L 160.721725 82.328843 
L 162.440413 82.328843 
L 162.440413 83.98355 
L 164.159102 83.98355 
L 164.159102 74.331091 
L 165.87779 74.331091 
L 165.87779 94.739147 
L 167.596479 94.739147 
L 167.596479 79.570997 
L 169.315168 79.570997 
L 169.315168 87.292965 
L 171.033856 87.292965 
L 171.033856 91.705517 
L 172.752545 91.705517 
L 172.752545 83.156196 
L 174.471233 83.156196 
L 174.471233 96.669639 
L 176.189922 96.669639 
L 176.189922 83.156196 
L 177.90861 83.156196 
L 177.90861 93.08444 
L 179.627299 93.08444 
L 179.627299 88.947672 
L 181.345987 88.947672 
L 181.345987 84.259335 
L 183.064676 84.259335 
L 183.064676 104.943176 
L 184.783364 104.943176 
L 184.783364 81.777274 
L 186.502053 81.777274 
L 186.502053 110.734651 
L 188.220742 110.734651 
L 188.220742 95.014932 
L 189.93943 95.014932 
L 189.93943 99.1517 
L 191.658119 99.1517 
L 191.658119 100.806408 
L 193.376807 100.806408 
L 193.376807 112.940928 
L 195.095496 112.940928 
L 195.095496 107.976806 
L 196.814184 107.976806 
L 196.814184 109.355729 
L 198.532873 109.355729 
L 198.532873 117.077696 
L 200.251561 117.077696 
L 200.251561 132.521631 
L 201.97025 132.521631 
L 201.97025 114.595635 
L 203.688938 114.595635 
L 203.688938 127.557509 
L 205.407627 127.557509 
L 205.407627 147.138212 
L 207.126315 147.138212 
L 207.126315 148.517134 
L 208.845004 148.517134 
L 208.845004 144.380366 
L 210.563693 144.380366 
L 210.563693 160.927439 
L 212.282381 160.927439 
L 212.282381 157.066455 
L 214.00107 157.066455 
L 214.00107 165.064207 
L 215.719758 165.064207 
L 215.719758 184.64491 
L 217.438447 184.64491 
L 217.438447 189.333248 
L 219.157135 189.333248 
L 219.157135 196.503646 
L 220.875824 196.503646 
L 220.875824 209.741304 
L 222.594512 209.741304 
L 222.594512 213.326503 
L 224.313201 213.326503 
L 224.313201 221.324255 
L 226.031889 221.324255 
L 226.031889 219.669548 
L 227.750578 219.669548 
L 227.750578 232.907206 
L 229.469266 232.907206 
L 229.469266 235.113483 
L 231.187955 235.113483 
L 231.187955 237.871328 
L 232.906644 237.871328 
L 232.906644 242.008096 
L 234.625332 242.008096 
L 234.625332 239.526036 
L 236.344021 239.526036 
L 236.344021 235.665052 
L 238.062709 235.665052 
L 238.062709 227.391515 
L 239.781398 227.391515 
L 239.781398 220.772686 
L 241.500086 220.772686 
L 241.500086 214.429642 
L 243.218775 214.429642 
L 243.218775 205.052967 
L 244.937463 205.052967 
L 244.937463 204.777182 
L 246.656152 204.777182 
L 246.656152 195.676292 
L 248.37484 195.676292 
L 248.37484 193.194231 
L 250.093529 193.194231 
L 250.093529 187.126971 
L 251.812217 187.126971 
L 251.812217 180.232358 
L 253.530906 180.232358 
L 253.530906 181.61128 
L 255.249595 181.61128 
L 255.249595 169.752545 
L 256.968283 169.752545 
L 256.968283 157.34224 
L 258.686972 157.34224 
L 258.686972 169.752545 
L 260.40566 169.752545 
L 260.40566 164.788423 
L 262.124349 164.788423 
L 262.124349 146.586643 
L 263.843037 146.586643 
L 263.843037 152.653903 
L 265.561726 152.653903 
L 265.561726 143.001444 
L 267.280414 143.001444 
L 267.280414 146.586643 
L 268.999103 146.586643 
L 268.999103 149.620273 
L 270.717791 149.620273 
L 270.717791 134.452122 
L 272.43648 134.452122 
L 272.43648 123.420741 
L 274.155169 123.420741 
L 274.155169 135.003692 
L 275.873857 135.003692 
L 275.873857 132.521631 
L 277.592546 132.521631 
L 277.592546 130.591139 
L 279.311234 130.591139 
L 279.311234 126.178586 
L 281.029923 126.178586 
L 281.029923 120.93868 
L 282.748611 120.93868 
L 282.748611 109.631513 
L 284.4673 109.631513 
L 284.4673 108.25259 
L 286.185988 108.25259 
L 286.185988 104.391607 
L 287.904677 104.391607 
L 287.904677 128.384862 
L 289.623365 128.384862 
L 289.623365 112.665143 
L 291.342054 112.665143 
L 291.342054 109.631513 
L 293.060742 109.631513 
L 293.060742 121.214464 
L 294.779431 121.214464 
L 294.779431 119.559757 
L 296.49812 119.559757 
L 296.49812 117.077696 
L 298.216808 117.077696 
L 298.216808 122.041818 
L 299.935497 122.041818 
L 299.935497 133.0732 
L 301.654185 133.0732 
L 301.654185 134.176338 
L 303.372874 134.176338 
L 303.372874 133.624769 
L 305.091562 133.624769 
L 305.091562 117.90505 
L 306.810251 117.90505 
L 306.810251 130.866923 
L 308.528939 130.866923 
L 308.528939 145.759289 
L 310.247628 145.759289 
L 310.247628 129.488001 
L 311.966316 129.488001 
L 311.966316 141.622521 
L 313.685005 141.622521 
L 313.685005 140.243598 
L 315.403693 140.243598 
L 315.403693 141.898305 
L 317.122382 141.898305 
L 317.122382 155.411748 
L 318.841071 155.411748 
L 318.841071 135.831045 
L 320.559759 135.831045 
L 320.559759 140.519383 
L 322.278448 140.519383 
L 322.278448 153.205472 
L 323.997136 153.205472 
L 323.997136 155.963317 
L 325.715825 155.963317 
L 325.715825 150.723411 
L 327.434513 150.723411 
L 327.434513 151.27498 
L 329.153202 151.27498 
L 329.153202 147.413996 
L 330.87189 147.413996 
L 330.87189 162.582146 
L 332.590579 162.582146 
L 332.590579 167.270484 
L 334.309267 167.270484 
L 334.309267 159.548516 
L 336.027956 159.548516 
L 336.027956 161.479008 
L 337.746644 161.479008 
L 337.746644 165.615777 
L 339.465333 165.615777 
L 339.465333 171.958821 
L 341.184022 171.958821 
L 341.184022 169.47676 
L 342.90271 169.47676 
L 342.90271 158.996947 
L 344.621399 158.996947 
L 344.621399 176.647158 
L 346.340087 176.647158 
L 346.340087 178.853435 
L 348.058776 178.853435 
L 348.058776 172.234606 
L 349.777464 172.234606 
L 349.777464 170.304114 
L 351.496153 170.304114 
L 351.496153 161.479008 
L 353.214841 161.479008 
L 353.214841 182.162849 
L 354.93353 182.162849 
L 354.93353 180.232358 
L 356.652218 180.232358 
L 356.652218 182.162849 
L 358.370907 182.162849 
L 358.370907 186.851187 
L 360.089595 186.851187 
L 360.089595 193.470016 
L 361.808284 193.470016 
L 361.808284 201.467768 
L 363.526973 201.467768 
L 363.526973 198.158353 
L 365.245661 198.158353 
L 365.245661 203.39826 
L 366.96435 203.39826 
L 366.96435 202.846691 
L 368.683038 202.846691 
L 368.683038 207.535028 
L 370.401727 207.535028 
L 370.401727 206.983459 
L 372.120415 206.983459 
L 372.120415 214.981211 
L 373.839104 214.981211 
L 373.839104 214.153857 
L 375.557792 214.153857 
L 375.557792 221.60004 
L 377.276481 221.60004 
L 377.276481 224.082101 
L 378.995169 224.082101 
L 378.995169 222.151609 
L 380.713858 222.151609 
L 380.713858 227.115731 
L 382.432547 227.115731 
L 382.432547 230.425145 
L 384.151235 230.425145 
L 384.151235 231.804068 
L 385.869924 231.804068 
L 385.869924 235.389267 
L 387.588612 235.389267 
L 387.588612 239.250251 
L 389.307301 239.250251 
L 389.307301 237.595544 
L 391.025989 237.595544 
L 391.025989 241.456527 
L 392.744678 241.456527 
L 392.744678 239.526036 
L 394.463366 239.526036 
L 394.463366 242.83545 
L 396.182055 242.83545 
L 396.182055 243.662804 
L 397.900743 243.662804 
L 397.900743 245.593296 
L 399.619432 245.593296 
L 399.619432 245.86908 
L 408.212875 245.86908 
L 408.212875 245.86908 
" clip-path="url(#p68948e4d0c)" style="fill: none; stroke: #1f77b4; stroke-width: 1.5; stroke-linecap: square"/>
   </g>
   <g id="line2d_19">
    <path d="M 64.475167 245.86908 
L 73.068609 245.86908 
L 73.068609 243.111235 
L 74.787298 243.111235 
L 74.787298 235.665052 
L 76.505986 235.665052 
L 76.505986 227.6673 
L 78.224675 227.6673 
L 78.224675 217.187487 
L 79.943364 217.187487 
L 79.943364 211.947581 
L 81.662052 211.947581 
L 81.662052 202.846691 
L 83.380741 202.846691 
L 83.380741 196.227861 
L 85.099429 196.227861 
L 85.099429 182.438634 
L 86.818118 182.438634 
L 86.818118 176.647158 
L 88.536806 176.647158 
L 88.536806 161.754793 
L 90.255495 161.754793 
L 90.255495 150.447626 
L 91.974183 150.447626 
L 91.974183 150.999195 
L 93.692872 150.999195 
L 93.692872 141.622521 
L 95.41156 141.622521 
L 95.41156 129.212216 
L 97.130249 129.212216 
L 97.130249 119.835541 
L 98.848937 119.835541 
L 98.848937 121.214464 
L 100.567626 121.214464 
L 100.567626 119.835541 
L 102.286315 119.835541 
L 102.286315 117.35348 
L 104.005003 117.35348 
L 104.005003 95.014932 
L 105.723692 95.014932 
L 105.723692 94.187578 
L 107.44238 94.187578 
L 107.44238 86.741396 
L 109.161069 86.741396 
L 109.161069 78.743644 
L 110.879757 78.743644 
L 110.879757 67.436477 
L 112.598446 67.436477 
L 112.598446 72.124814 
L 114.317134 72.124814 
L 114.317134 63.299709 
L 116.035823 63.299709 
L 116.035823 60.541863 
L 117.754511 60.541863 
L 117.754511 59.71451 
L 119.4732 59.71451 
L 119.4732 60.266079 
L 121.191888 60.266079 
L 121.191888 51.440973 
L 122.910577 51.440973 
L 122.910577 53.095681 
L 124.629266 53.095681 
L 124.629266 54.198819 
L 126.347954 54.198819 
L 126.347954 46.476851 
L 128.066643 46.476851 
L 128.066643 39.858022 
L 129.785331 39.858022 
L 129.785331 37.375961 
L 131.50402 37.375961 
L 131.50402 35.721254 
L 133.222708 35.721254 
L 133.222708 45.925282 
L 134.941397 45.925282 
L 134.941397 42.891652 
L 136.660085 42.891652 
L 136.660085 47.028421 
L 138.378774 47.028421 
L 138.378774 54.474603 
L 140.097462 54.474603 
L 140.097462 60.266079 
L 141.816151 60.266079 
L 141.816151 59.438725 
L 143.534839 59.438725 
L 143.534839 67.436477 
L 145.253528 67.436477 
L 145.253528 71.297461 
L 148.690905 71.297461 
L 148.690905 80.398351 
L 150.409594 80.398351 
L 150.409594 78.467859 
L 152.128282 78.467859 
L 152.128282 75.158445 
L 153.846971 75.158445 
L 153.846971 77.088936 
L 155.565659 77.088936 
L 155.565659 77.640505 
L 157.284348 77.640505 
L 157.284348 81.777274 
L 159.003036 81.777274 
L 159.003036 78.743644 
L 160.721725 78.743644 
L 160.721725 76.261583 
L 162.440413 76.261583 
L 162.440413 73.227953 
L 164.159102 73.227953 
L 164.159102 84.810904 
L 165.87779 84.810904 
L 165.87779 86.465611 
L 167.596479 86.465611 
L 167.596479 86.741396 
L 169.315168 86.741396 
L 169.315168 91.429733 
L 171.033856 91.429733 
L 171.033856 93.636009 
L 172.752545 93.636009 
L 172.752545 82.328843 
L 174.471233 82.328843 
L 174.471233 88.671887 
L 176.189922 88.671887 
L 176.189922 87.292965 
L 177.90861 87.292965 
L 177.90861 87.01718 
L 179.627299 87.01718 
L 179.627299 98.324347 
L 181.345987 98.324347 
L 181.345987 82.053058 
L 183.064676 82.053058 
L 183.064676 93.911794 
L 184.783364 93.911794 
L 184.783364 92.808656 
L 186.502053 92.808656 
L 186.502053 103.840038 
L 188.220742 103.840038 
L 188.220742 91.981302 
L 189.93943 91.981302 
L 189.93943 102.461115 
L 191.658119 102.461115 
L 191.658119 107.425237 
L 193.376807 107.425237 
L 193.376807 103.288468 
L 195.095496 103.288468 
L 195.095496 112.113574 
L 196.814184 112.113574 
L 196.814184 112.940928 
L 198.532873 112.940928 
L 198.532873 118.732403 
L 200.251561 118.732403 
L 200.251561 125.351232 
L 201.97025 125.351232 
L 201.97025 122.317602 
L 203.688938 122.317602 
L 203.688938 131.970062 
L 205.407627 131.970062 
L 205.407627 142.449874 
L 207.126315 142.449874 
L 207.126315 146.035074 
L 208.845004 146.035074 
L 208.845004 149.896057 
L 210.563693 149.896057 
L 210.563693 154.30861 
L 212.282381 154.30861 
L 212.282381 158.445378 
L 214.00107 158.445378 
L 214.00107 168.373622 
L 215.719758 168.373622 
L 215.719758 180.232358 
L 217.438447 180.232358 
L 217.438447 191.539524 
L 219.157135 191.539524 
L 219.157135 195.124723 
L 220.875824 195.124723 
L 220.875824 210.017089 
L 222.594512 210.017089 
L 222.594512 212.49915 
L 224.313201 212.49915 
L 224.313201 220.221117 
L 226.031889 220.221117 
L 226.031889 222.427394 
L 227.750578 222.427394 
L 227.750578 232.079853 
L 229.469266 232.079853 
L 229.469266 234.286129 
L 231.187955 234.286129 
L 231.187955 238.147113 
L 232.906644 238.147113 
L 232.906644 242.559666 
L 234.625332 242.559666 
L 234.625332 238.698682 
L 236.344021 238.698682 
L 236.344021 235.940836 
L 238.062709 235.940836 
L 238.062709 226.839946 
L 239.781398 226.839946 
L 239.781398 220.772686 
L 241.500086 220.772686 
L 241.500086 214.153857 
L 243.218775 214.153857 
L 243.218775 205.052967 
L 244.937463 205.052967 
L 244.937463 204.225613 
L 246.656152 204.225613 
L 246.656152 195.124723 
L 248.37484 195.124723 
L 248.37484 193.470016 
L 250.093529 193.470016 
L 250.093529 190.160601 
L 251.812217 190.160601 
L 251.812217 175.819805 
L 253.530906 175.819805 
L 253.530906 186.851187 
L 255.249595 186.851187 
L 255.249595 165.064207 
L 256.968283 165.064207 
L 256.968283 157.618025 
L 258.686972 157.618025 
L 258.686972 171.683037 
L 260.40566 171.683037 
L 260.40566 160.927439 
L 262.124349 160.927439 
L 262.124349 150.723411 
L 263.843037 150.723411 
L 263.843037 145.759289 
L 265.561726 145.759289 
L 265.561726 146.862427 
L 267.280414 146.862427 
L 267.280414 145.20772 
L 268.999103 145.20772 
L 268.999103 148.24135 
L 270.717791 148.24135 
L 270.717791 140.795167 
L 272.43648 140.795167 
L 272.43648 120.662895 
L 274.155169 120.662895 
L 274.155169 140.243598 
L 275.873857 140.243598 
L 275.873857 125.075448 
L 277.592546 125.075448 
L 277.592546 139.692029 
L 279.311234 139.692029 
L 279.311234 123.696525 
L 281.029923 123.696525 
L 281.029923 108.804159 
L 282.748611 108.804159 
L 282.748611 119.008188 
L 284.4673 119.008188 
L 284.4673 101.909546 
L 286.185988 101.909546 
L 286.185988 114.87142 
L 287.904677 114.87142 
L 287.904677 119.008188 
L 289.623365 119.008188 
L 289.623365 111.562005 
L 291.342054 111.562005 
L 291.342054 114.87142 
L 293.060742 114.87142 
L 293.060742 125.627017 
L 294.779431 125.627017 
L 294.779431 118.456619 
L 296.49812 118.456619 
L 296.49812 118.732403 
L 298.216808 118.732403 
L 298.216808 117.629265 
L 299.935497 117.629265 
L 299.935497 126.454371 
L 301.654185 126.454371 
L 301.654185 144.104582 
L 303.372874 144.104582 
L 303.372874 120.93868 
L 305.091562 120.93868 
L 305.091562 128.936432 
L 306.810251 128.936432 
L 306.810251 131.970062 
L 308.528939 131.970062 
L 308.528939 140.519383 
L 310.247628 140.519383 
L 310.247628 136.658399 
L 311.966316 136.658399 
L 311.966316 133.900553 
L 313.685005 133.900553 
L 313.685005 146.035074 
L 315.403693 146.035074 
L 315.403693 148.517134 
L 317.122382 148.517134 
L 317.122382 145.759289 
L 318.841071 145.759289 
L 318.841071 141.622521 
L 320.559759 141.622521 
L 320.559759 141.346736 
L 322.278448 141.346736 
L 322.278448 143.828797 
L 323.997136 143.828797 
L 323.997136 162.582146 
L 325.715825 162.582146 
L 325.715825 147.689781 
L 327.434513 147.689781 
L 327.434513 146.862427 
L 329.153202 146.862427 
L 329.153202 156.790671 
L 330.87189 156.790671 
L 330.87189 160.37587 
L 332.590579 160.37587 
L 332.590579 162.582146 
L 334.309267 162.582146 
L 334.309267 162.306362 
L 336.027956 162.306362 
L 336.027956 161.754793 
L 337.746644 161.754793 
L 337.746644 165.891561 
L 339.465333 165.891561 
L 339.465333 171.407252 
L 341.184022 171.407252 
L 341.184022 163.685285 
L 342.90271 163.685285 
L 342.90271 166.994699 
L 344.621399 166.994699 
L 344.621399 174.440882 
L 346.340087 174.440882 
L 346.340087 178.301866 
L 348.058776 178.301866 
L 348.058776 168.649407 
L 349.777464 168.649407 
L 349.777464 175.819805 
L 351.496153 175.819805 
L 351.496153 162.857931 
L 353.214841 162.857931 
L 353.214841 179.680788 
L 354.93353 179.680788 
L 354.93353 179.956573 
L 356.652218 179.956573 
L 356.652218 182.438634 
L 358.370907 182.438634 
L 358.370907 190.436386 
L 360.089595 190.436386 
L 360.089595 194.29737 
L 361.808284 194.29737 
L 361.808284 193.470016 
L 363.526973 193.470016 
L 363.526973 203.39826 
L 365.245661 203.39826 
L 365.245661 201.467768 
L 366.96435 201.467768 
L 366.96435 205.052967 
L 368.683038 205.052967 
L 368.683038 205.880321 
L 370.401727 205.880321 
L 370.401727 206.43189 
L 372.120415 206.43189 
L 372.120415 214.153857 
L 375.557792 214.153857 
L 375.557792 223.254747 
L 377.276481 223.254747 
L 377.276481 220.221117 
L 378.995169 220.221117 
L 378.995169 223.530532 
L 380.713858 223.530532 
L 380.713858 227.391515 
L 382.432547 227.391515 
L 382.432547 232.355637 
L 384.151235 232.355637 
L 384.151235 232.079853 
L 385.869924 232.079853 
L 385.869924 234.286129 
L 387.588612 234.286129 
L 387.588612 238.698682 
L 389.307301 238.698682 
L 389.307301 238.147113 
L 391.025989 238.147113 
L 391.025989 240.904958 
L 394.463366 240.904958 
L 394.463366 242.008096 
L 396.182055 242.008096 
L 396.182055 243.662804 
L 397.900743 243.662804 
L 397.900743 245.317511 
L 399.619432 245.317511 
L 399.619432 245.593296 
L 401.33812 245.593296 
L 401.33812 245.86908 
L 408.212875 245.86908 
L 408.212875 245.86908 
" clip-path="url(#p68948e4d0c)" style="fill: none; stroke: #ff7f0e; stroke-width: 1.5; stroke-linecap: square"/>
   </g>
   <g id="patch_3">
    <path d="M 47.288281 256.514364 
L 47.288281 22.318125 
" style="fill: none; stroke: #000000; stroke-width: 0.8; stroke-linejoin: miter; stroke-linecap: square"/>
   </g>
   <g id="patch_4">
    <path d="M 425.39976 256.514364 
L 425.39976 22.318125 
" style="fill: none; stroke: #000000; stroke-width: 0.8; stroke-linejoin: miter; stroke-linecap: square"/>
   </g>
   <g id="patch_5">
    <path d="M 47.288281 256.514364 
L 425.39976 256.514364 
" style="fill: none; stroke: #000000; stroke-width: 0.8; stroke-linejoin: miter; stroke-linecap: square"/>
   </g>
   <g id="patch_6">
    <path d="M 47.288281 22.318125 
L 425.39976 22.318125 
" style="fill: none; stroke: #000000; stroke-width: 0.8; stroke-linejoin: miter; stroke-linecap: square"/>
   </g>
   <g id="text_20">
    <!-- Pixel 1 -->
    <g transform="translate(216.741833 16.318125) scale(0.12 -0.12)">
     <defs>
      <path id="DejaVuSans-33" d="M 1259 4147 
L 1259 2394 
L 2053 2394 
Q 2494 2394 2734 2622 
Q 2975 2850 2975 3272 
Q 2975 3691 2734 3919 
Q 2494 4147 2053 4147 
L 1259 4147 
z
M 628 4666 
L 2053 4666 
Q 2838 4666 3239 4311 
Q 3641 3956 3641 3272 
Q 3641 2581 3239 2228 
Q 2838 1875 2053 1875 
L 1259 1875 
L 1259 0 
L 628 0 
L 628 4666 
z
" transform="scale(0.015625)"/>
      <path id="DejaVuSans-4c" d="M 603 3500 
L 1178 3500 
L 1178 0 
L 603 0 
L 603 3500 
z
M 603 4863 
L 1178 4863 
L 1178 4134 
L 603 4134 
L 603 4863 
z
" transform="scale(0.015625)"/>
      <path id="DejaVuSans-5b" d="M 3513 3500 
L 2247 1797 
L 3578 0 
L 2900 0 
L 1881 1375 
L 863 0 
L 184 0 
L 1544 1831 
L 300 3500 
L 978 3500 
L 1906 2253 
L 2834 3500 
L 3513 3500 
z
" transform="scale(0.015625)"/>
     </defs>
     <use xlink:href="#DejaVuSans-33"/>
     <use xlink:href="#DejaVuSans-4c" transform="translate(58.09375 0)"/>
     <use xlink:href="#DejaVuSans-5b" transform="translate(85.875 0)"/>
     <use xlink:href="#DejaVuSans-48" transform="translate(141.984375 0)"/>
     <use xlink:href="#DejaVuSans-4f" transform="translate(203.515625 0)"/>
     <use xlink:href="#DejaVuSans-3" transform="translate(231.296875 0)"/>
     <use xlink:href="#DejaVuSans-14" transform="translate(263.078125 0)"/>
    </g>
   </g>
   <g id="legend_1">
    <g id="patch_7">
     <path d="M 321.391948 60.319687 
L 418.39976 60.319687 
Q 420.39976 60.319687 420.39976 58.319687 
L 420.39976 29.318125 
Q 420.39976 27.318125 418.39976 27.318125 
L 321.391948 27.318125 
Q 319.391948 27.318125 319.391948 29.318125 
L 319.391948 58.319687 
Q 319.391948 60.319687 321.391948 60.319687 
z
" style="fill: #ffffff; opacity: 0.8; stroke: #cccccc; stroke-linejoin: miter"/>
    </g>
    <g id="line2d_20">
     <path d="M 323.391948 35.416562 
L 323.391948 35.416562 
L 333.391948 35.416562 
L 333.391948 35.416562 
L 343.391948 35.416562 
" style="fill: none; stroke: #1f77b4; stroke-width: 1.5; stroke-linecap: square"/>
    </g>
    <g id="text_21">
     <!-- wfm -->
     <g transform="translate(351.391948 38.916562) scale(0.1 -0.1)">
      <defs>
       <path id="DejaVuSans-49" d="M 2375 4863 
L 2375 4384 
L 1825 4384 
Q 1516 4384 1395 4259 
Q 1275 4134 1275 3809 
L 1275 3500 
L 2222 3500 
L 2222 3053 
L 1275 3053 
L 1275 0 
L 697 0 
L 697 3053 
L 147 3053 
L 147 3500 
L 697 3500 
L 697 3744 
Q 697 4328 969 4595 
Q 1241 4863 1831 4863 
L 2375 4863 
z
" transform="scale(0.015625)"/>
       <path id="DejaVuSans-50" d="M 3328 2828 
Q 3544 3216 3844 3400 
Q 4144 3584 4550 3584 
Q 5097 3584 5394 3201 
Q 5691 2819 5691 2113 
L 5691 0 
L 5113 0 
L 5113 2094 
Q 5113 2597 4934 2840 
Q 4756 3084 4391 3084 
Q 3944 3084 3684 2787 
Q 3425 2491 3425 1978 
L 3425 0 
L 2847 0 
L 2847 2094 
Q 2847 2600 2669 2842 
Q 2491 3084 2119 3084 
Q 1678 3084 1418 2786 
Q 1159 2488 1159 1978 
L 1159 0 
L 581 0 
L 581 3500 
L 1159 3500 
L 1159 2956 
Q 1356 3278 1631 3431 
Q 1906 3584 2284 3584 
Q 2666 3584 2933 3390 
Q 3200 3197 3328 2828 
z
" transform="scale(0.015625)"/>
      </defs>
      <use xlink:href="#DejaVuSans-5a"/>
      <use xlink:href="#DejaVuSans-49" transform="translate(81.78125 0)"/>
      <use xlink:href="#DejaVuSans-50" transform="translate(116.984375 0)"/>
     </g>
    </g>
    <g id="line2d_21">
     <path d="M 323.391948 50.417344 
L 323.391948 50.417344 
L 333.391948 50.417344 
L 333.391948 50.417344 
L 343.391948 50.417344 
" style="fill: none; stroke: #ff7f0e; stroke-width: 1.5; stroke-linecap: square"/>
    </g>
    <g id="text_22">
     <!-- ground_truth -->
     <g transform="translate(351.391948 53.917344) scale(0.1 -0.1)">
      <defs>
       <path id="DejaVuSans-55" d="M 2631 2963 
Q 2534 3019 2420 3045 
Q 2306 3072 2169 3072 
Q 1681 3072 1420 2755 
Q 1159 2438 1159 1844 
L 1159 0 
L 581 0 
L 581 3500 
L 1159 3500 
L 1159 2956 
Q 1341 3275 1631 3429 
Q 1922 3584 2338 3584 
Q 2397 3584 2469 3576 
Q 2541 3569 2628 3553 
L 2631 2963 
z
" transform="scale(0.015625)"/>
       <path id="DejaVuSans-47" d="M 2906 2969 
L 2906 4863 
L 3481 4863 
L 3481 0 
L 2906 0 
L 2906 525 
Q 2725 213 2448 61 
Q 2172 -91 1784 -91 
Q 1150 -91 751 415 
Q 353 922 353 1747 
Q 353 2572 751 3078 
Q 1150 3584 1784 3584 
Q 2172 3584 2448 3432 
Q 2725 3281 2906 2969 
z
M 947 1747 
Q 947 1113 1208 752 
Q 1469 391 1925 391 
Q 2381 391 2643 752 
Q 2906 1113 2906 1747 
Q 2906 2381 2643 2742 
Q 2381 3103 1925 3103 
Q 1469 3103 1208 2742 
Q 947 2381 947 1747 
z
" transform="scale(0.015625)"/>
       <path id="DejaVuSans-42" d="M 3263 -1063 
L 3263 -1509 
L -63 -1509 
L -63 -1063 
L 3263 -1063 
z
" transform="scale(0.015625)"/>
      </defs>
      <use xlink:href="#DejaVuSans-4a"/>
      <use xlink:href="#DejaVuSans-55" transform="translate(63.484375 0)"/>
      <use xlink:href="#DejaVuSans-52" transform="translate(102.390625 0)"/>
      <use xlink:href="#DejaVuSans-58" transform="translate(163.578125 0)"/>
      <use xlink:href="#DejaVuSans-51" transform="translate(226.953125 0)"/>
      <use xlink:href="#DejaVuSans-47" transform="translate(290.328125 0)"/>
      <use xlink:href="#DejaVuSans-42" transform="translate(353.8125 0)"/>
      <use xlink:href="#DejaVuSans-57" transform="translate(403.8125 0)"/>
      <use xlink:href="#DejaVuSans-55" transform="translate(443.015625 0)"/>
      <use xlink:href="#DejaVuSans-58" transform="translate(484.125 0)"/>
      <use xlink:href="#DejaVuSans-57" transform="translate(547.5 0)"/>
      <use xlink:href="#DejaVuSans-4b" transform="translate(586.703125 0)"/>
     </g>
    </g>
   </g>
  </g>
  <g id="axes_2">
   <g id="patch_8">
    <path d="M 487.088041 256.514364 
L 865.19952 256.514364 
L 865.19952 22.318125 
L 487.088041 22.318125 
z
" style="fill: #ffffff"/>
   </g>
   <g id="matplotlib.axis_3">
    <g id="xtick_9">
     <g id="line2d_22">
      <g>
       <use xlink:href="#m28a926bc51" x="522.366385" y="256.514364" style="stroke: #000000; stroke-width: 0.8"/>
      </g>
     </g>
     <g id="text_23">
      <!-- 1.0 -->
      <g transform="translate(514.414822 271.11202) scale(0.1 -0.1)">
       <use xlink:href="#DejaVuSans-14"/>
       <use xlink:href="#DejaVuSans-11" transform="translate(63.625 0)"/>
       <use xlink:href="#DejaVuSans-13" transform="translate(95.40625 0)"/>
      </g>
     </g>
    </g>
    <g id="xtick_10">
     <g id="line2d_23">
      <g>
       <use xlink:href="#m28a926bc51" x="567.595031" y="256.514364" style="stroke: #000000; stroke-width: 0.8"/>
      </g>
     </g>
     <g id="text_24">
      <!-- 1.5 -->
      <g transform="translate(559.643468 271.11202) scale(0.1 -0.1)">
       <use xlink:href="#DejaVuSans-14"/>
       <use xlink:href="#DejaVuSans-11" transform="translate(63.625 0)"/>
       <use xlink:href="#DejaVuSans-18" transform="translate(95.40625 0)"/>
      </g>
     </g>
    </g>
    <g id="xtick_11">
     <g id="line2d_24">
      <g>
       <use xlink:href="#m28a926bc51" x="612.823677" y="256.514364" style="stroke: #000000; stroke-width: 0.8"/>
      </g>
     </g>
     <g id="text_25">
      <!-- 2.0 -->
      <g transform="translate(604.872114 271.11202) scale(0.1 -0.1)">
       <use xlink:href="#DejaVuSans-15"/>
       <use xlink:href="#DejaVuSans-11" transform="translate(63.625 0)"/>
       <use xlink:href="#DejaVuSans-13" transform="translate(95.40625 0)"/>
      </g>
     </g>
    </g>
    <g id="xtick_12">
     <g id="line2d_25">
      <g>
       <use xlink:href="#m28a926bc51" x="658.052322" y="256.514364" style="stroke: #000000; stroke-width: 0.8"/>
      </g>
     </g>
     <g id="text_26">
      <!-- 2.5 -->
      <g transform="translate(650.10076 271.11202) scale(0.1 -0.1)">
       <use xlink:href="#DejaVuSans-15"/>
       <use xlink:href="#DejaVuSans-11" transform="translate(63.625 0)"/>
       <use xlink:href="#DejaVuSans-18" transform="translate(95.40625 0)"/>
      </g>
     </g>
    </g>
    <g id="xtick_13">
     <g id="line2d_26">
      <g>
       <use xlink:href="#m28a926bc51" x="703.280968" y="256.514364" style="stroke: #000000; stroke-width: 0.8"/>
      </g>
     </g>
     <g id="text_27">
      <!-- 3.0 -->
      <g transform="translate(695.329406 271.11202) scale(0.1 -0.1)">
       <use xlink:href="#DejaVuSans-16"/>
       <use xlink:href="#DejaVuSans-11" transform="translate(63.625 0)"/>
       <use xlink:href="#DejaVuSans-13" transform="translate(95.40625 0)"/>
      </g>
     </g>
    </g>
    <g id="xtick_14">
     <g id="line2d_27">
      <g>
       <use xlink:href="#m28a926bc51" x="748.509614" y="256.514364" style="stroke: #000000; stroke-width: 0.8"/>
      </g>
     </g>
     <g id="text_28">
      <!-- 3.5 -->
      <g transform="translate(740.558051 271.11202) scale(0.1 -0.1)">
       <use xlink:href="#DejaVuSans-16"/>
       <use xlink:href="#DejaVuSans-11" transform="translate(63.625 0)"/>
       <use xlink:href="#DejaVuSans-18" transform="translate(95.40625 0)"/>
      </g>
     </g>
    </g>
    <g id="xtick_15">
     <g id="line2d_28">
      <g>
       <use xlink:href="#m28a926bc51" x="793.73826" y="256.514364" style="stroke: #000000; stroke-width: 0.8"/>
      </g>
     </g>
     <g id="text_29">
      <!-- 4.0 -->
      <g transform="translate(785.786697 271.11202) scale(0.1 -0.1)">
       <use xlink:href="#DejaVuSans-17"/>
       <use xlink:href="#DejaVuSans-11" transform="translate(63.625 0)"/>
       <use xlink:href="#DejaVuSans-13" transform="translate(95.40625 0)"/>
      </g>
     </g>
    </g>
    <g id="xtick_16">
     <g id="line2d_29">
      <g>
       <use xlink:href="#m28a926bc51" x="838.966905" y="256.514364" style="stroke: #000000; stroke-width: 0.8"/>
      </g>
     </g>
     <g id="text_30">
      <!-- 4.5 -->
      <g transform="translate(831.015343 271.11202) scale(0.1 -0.1)">
       <use xlink:href="#DejaVuSans-17"/>
       <use xlink:href="#DejaVuSans-11" transform="translate(63.625 0)"/>
       <use xlink:href="#DejaVuSans-18" transform="translate(95.40625 0)"/>
      </g>
     </g>
    </g>
    <g id="text_31">
     <!-- wavelength [Å] -->
     <g transform="translate(638.106281 286.797176) scale(0.1 -0.1)">
      <use xlink:href="#DejaVuSans-5a"/>
      <use xlink:href="#DejaVuSans-44" transform="translate(81.78125 0)"/>
      <use xlink:href="#DejaVuSans-59" transform="translate(143.0625 0)"/>
      <use xlink:href="#DejaVuSans-48" transform="translate(202.25 0)"/>
      <use xlink:href="#DejaVuSans-4f" transform="translate(263.78125 0)"/>
      <use xlink:href="#DejaVuSans-48" transform="translate(291.5625 0)"/>
      <use xlink:href="#DejaVuSans-51" transform="translate(353.09375 0)"/>
      <use xlink:href="#DejaVuSans-4a" transform="translate(416.46875 0)"/>
      <use xlink:href="#DejaVuSans-57" transform="translate(479.953125 0)"/>
      <use xlink:href="#DejaVuSans-4b" transform="translate(519.15625 0)"/>
      <use xlink:href="#DejaVuSans-3" transform="translate(582.53125 0)"/>
      <use xlink:href="#DejaVuSans-3e" transform="translate(614.3125 0)"/>
      <use xlink:href="#DejaVuSans-87" transform="translate(653.328125 0)"/>
      <use xlink:href="#DejaVuSans-40" transform="translate(721.734375 0)"/>
     </g>
    </g>
   </g>
   <g id="matplotlib.axis_4">
    <g id="ytick_10">
     <g id="line2d_30">
      <g>
       <use xlink:href="#m553843ac1a" x="487.088041" y="245.86908" style="stroke: #000000; stroke-width: 0.8"/>
      </g>
     </g>
     <g id="text_32">
      <!-- 0 -->
      <g transform="translate(473.725541 249.667908) scale(0.1 -0.1)">
       <use xlink:href="#DejaVuSans-13"/>
      </g>
     </g>
    </g>
    <g id="ytick_11">
     <g id="line2d_31">
      <g>
       <use xlink:href="#m553843ac1a" x="487.088041" y="217.928703" style="stroke: #000000; stroke-width: 0.8"/>
      </g>
     </g>
     <g id="text_33">
      <!-- 100 -->
      <g transform="translate(461.000541 221.727531) scale(0.1 -0.1)">
       <use xlink:href="#DejaVuSans-14"/>
       <use xlink:href="#DejaVuSans-13" transform="translate(63.625 0)"/>
       <use xlink:href="#DejaVuSans-13" transform="translate(127.25 0)"/>
      </g>
     </g>
    </g>
    <g id="ytick_12">
     <g id="line2d_32">
      <g>
       <use xlink:href="#m553843ac1a" x="487.088041" y="189.988326" style="stroke: #000000; stroke-width: 0.8"/>
      </g>
     </g>
     <g id="text_34">
      <!-- 200 -->
      <g transform="translate(461.000541 193.787155) scale(0.1 -0.1)">
       <use xlink:href="#DejaVuSans-15"/>
       <use xlink:href="#DejaVuSans-13" transform="translate(63.625 0)"/>
       <use xlink:href="#DejaVuSans-13" transform="translate(127.25 0)"/>
      </g>
     </g>
    </g>
    <g id="ytick_13">
     <g id="line2d_33">
      <g>
       <use xlink:href="#m553843ac1a" x="487.088041" y="162.04795" style="stroke: #000000; stroke-width: 0.8"/>
      </g>
     </g>
     <g id="text_35">
      <!-- 300 -->
      <g transform="translate(461.000541 165.846778) scale(0.1 -0.1)">
       <use xlink:href="#DejaVuSans-16"/>
       <use xlink:href="#DejaVuSans-13" transform="translate(63.625 0)"/>
       <use xlink:href="#DejaVuSans-13" transform="translate(127.25 0)"/>
      </g>
     </g>
    </g>
    <g id="ytick_14">
     <g id="line2d_34">
      <g>
       <use xlink:href="#m553843ac1a" x="487.088041" y="134.107573" style="stroke: #000000; stroke-width: 0.8"/>
      </g>
     </g>
     <g id="text_36">
      <!-- 400 -->
      <g transform="translate(461.000541 137.906401) scale(0.1 -0.1)">
       <use xlink:href="#DejaVuSans-17"/>
       <use xlink:href="#DejaVuSans-13" transform="translate(63.625 0)"/>
       <use xlink:href="#DejaVuSans-13" transform="translate(127.25 0)"/>
      </g>
     </g>
    </g>
    <g id="ytick_15">
     <g id="line2d_35">
      <g>
       <use xlink:href="#m553843ac1a" x="487.088041" y="106.167196" style="stroke: #000000; stroke-width: 0.8"/>
      </g>
     </g>
     <g id="text_37">
      <!-- 500 -->
      <g transform="translate(461.000541 109.966024) scale(0.1 -0.1)">
       <use xlink:href="#DejaVuSans-18"/>
       <use xlink:href="#DejaVuSans-13" transform="translate(63.625 0)"/>
       <use xlink:href="#DejaVuSans-13" transform="translate(127.25 0)"/>
      </g>
     </g>
    </g>
    <g id="ytick_16">
     <g id="line2d_36">
      <g>
       <use xlink:href="#m553843ac1a" x="487.088041" y="78.226819" style="stroke: #000000; stroke-width: 0.8"/>
      </g>
     </g>
     <g id="text_38">
      <!-- 600 -->
      <g transform="translate(461.000541 82.025647) scale(0.1 -0.1)">
       <use xlink:href="#DejaVuSans-19"/>
       <use xlink:href="#DejaVuSans-13" transform="translate(63.625 0)"/>
       <use xlink:href="#DejaVuSans-13" transform="translate(127.25 0)"/>
      </g>
     </g>
    </g>
    <g id="ytick_17">
     <g id="line2d_37">
      <g>
       <use xlink:href="#m553843ac1a" x="487.088041" y="50.286442" style="stroke: #000000; stroke-width: 0.8"/>
      </g>
     </g>
     <g id="text_39">
      <!-- 700 -->
      <g transform="translate(461.000541 54.08527) scale(0.1 -0.1)">
       <use xlink:href="#DejaVuSans-1a"/>
       <use xlink:href="#DejaVuSans-13" transform="translate(63.625 0)"/>
       <use xlink:href="#DejaVuSans-13" transform="translate(127.25 0)"/>
      </g>
     </g>
    </g>
    <g id="ytick_18">
     <g id="line2d_38">
      <g>
       <use xlink:href="#m553843ac1a" x="487.088041" y="22.346065" style="stroke: #000000; stroke-width: 0.8"/>
      </g>
     </g>
     <g id="text_40">
      <!-- 800 -->
      <g transform="translate(461.000541 26.144894) scale(0.1 -0.1)">
       <use xlink:href="#DejaVuSans-1b"/>
       <use xlink:href="#DejaVuSans-13" transform="translate(63.625 0)"/>
       <use xlink:href="#DejaVuSans-13" transform="translate(127.25 0)"/>
      </g>
     </g>
    </g>
    <g id="text_41">
     <!-- [counts] -->
     <g transform="translate(454.598198 160.028744) rotate(-90) scale(0.1 -0.1)">
      <use xlink:href="#DejaVuSans-3e"/>
      <use xlink:href="#DejaVuSans-46" transform="translate(39.015625 0)"/>
      <use xlink:href="#DejaVuSans-52" transform="translate(94 0)"/>
      <use xlink:href="#DejaVuSans-58" transform="translate(155.1875 0)"/>
      <use xlink:href="#DejaVuSans-51" transform="translate(218.5625 0)"/>
      <use xlink:href="#DejaVuSans-57" transform="translate(281.9375 0)"/>
      <use xlink:href="#DejaVuSans-56" transform="translate(321.140625 0)"/>
      <use xlink:href="#DejaVuSans-40" transform="translate(373.234375 0)"/>
     </g>
    </g>
   </g>
   <g id="line2d_39">
    <path d="M 504.274927 245.86908 
L 512.868369 245.86908 
L 512.868369 243.913254 
L 514.587058 243.913254 
L 514.587058 235.810545 
L 516.305746 235.810545 
L 516.305746 227.987239 
L 518.024435 227.987239 
L 518.024435 215.414069 
L 519.743124 215.414069 
L 519.743124 212.340628 
L 521.461812 212.340628 
L 521.461812 202.561496 
L 523.180501 202.561496 
L 523.180501 192.50296 
L 524.899189 192.50296 
L 524.899189 186.076674 
L 526.617878 186.076674 
L 526.617878 175.738734 
L 528.336566 175.738734 
L 528.336566 158.974508 
L 530.055255 158.974508 
L 530.055255 153.107029 
L 531.773943 153.107029 
L 531.773943 144.166108 
L 533.492632 144.166108 
L 533.492632 145.00432 
L 535.21132 145.00432 
L 535.21132 122.652018 
L 536.930009 122.652018 
L 536.930009 121.813807 
L 538.648697 121.813807 
L 538.648697 122.652018 
L 540.367386 122.652018 
L 540.367386 113.990501 
L 542.086075 113.990501 
L 542.086075 119.299173 
L 543.804763 119.299173 
L 543.804763 91.079392 
L 545.523452 91.079392 
L 545.523452 90.520585 
L 547.24214 90.520585 
L 547.24214 94.711641 
L 548.960829 94.711641 
L 548.960829 67.88888 
L 550.679517 67.88888 
L 550.679517 63.977227 
L 552.398206 63.977227 
L 552.398206 70.12411 
L 554.116894 70.12411 
L 554.116894 63.418419 
L 555.835583 63.418419 
L 555.835583 55.31571 
L 557.554271 55.31571 
L 557.554271 52.801076 
L 559.27296 52.801076 
L 559.27296 58.109748 
L 560.991648 58.109748 
L 560.991648 56.153921 
L 562.710337 56.153921 
L 562.710337 49.168827 
L 564.429026 49.168827 
L 564.429026 52.801076 
L 566.147714 52.801076 
L 566.147714 42.74254 
L 567.866403 42.74254 
L 567.866403 33.242812 
L 569.585091 33.242812 
L 569.585091 33.80162 
L 571.30378 33.80162 
L 571.30378 46.374789 
L 573.022468 46.374789 
L 573.022468 34.639831 
L 574.741157 34.639831 
L 574.741157 40.50731 
L 576.459845 40.50731 
L 576.459845 48.330616 
L 578.178534 48.330616 
L 578.178534 39.669099 
L 579.897222 39.669099 
L 579.897222 67.88888 
L 581.615911 67.88888 
L 581.615911 62.580208 
L 583.334599 62.580208 
L 583.334599 54.756903 
L 585.053288 54.756903 
L 585.053288 69.285898 
L 586.771977 69.285898 
L 586.771977 75.991589 
L 588.490665 75.991589 
L 588.490665 75.712185 
L 590.209354 75.712185 
L 590.209354 76.270993 
L 591.928042 76.270993 
L 591.928042 78.506223 
L 593.646731 78.506223 
L 593.646731 65.933053 
L 595.365419 65.933053 
L 595.365419 69.285898 
L 597.084108 69.285898 
L 597.084108 76.550396 
L 598.802796 76.550396 
L 598.802796 75.432781 
L 600.521485 75.432781 
L 600.521485 81.020857 
L 602.240173 81.020857 
L 602.240173 80.182645 
L 603.958862 80.182645 
L 603.958862 75.991589 
L 605.67755 75.991589 
L 605.67755 89.123566 
L 607.396239 89.123566 
L 607.396239 77.668012 
L 609.114928 77.668012 
L 609.114928 90.241181 
L 610.833616 90.241181 
L 610.833616 85.770721 
L 612.552305 85.770721 
L 612.552305 82.138472 
L 614.270993 82.138472 
L 614.270993 93.87343 
L 615.989682 93.87343 
L 615.989682 84.094298 
L 617.70837 84.094298 
L 617.70837 89.682374 
L 619.427059 89.682374 
L 619.427059 90.241181 
L 621.145747 90.241181 
L 621.145747 72.638744 
L 622.864436 72.638744 
L 622.864436 103.931966 
L 624.583124 103.931966 
L 624.583124 85.491317 
L 626.301813 85.491317 
L 626.301813 106.726003 
L 628.020502 106.726003 
L 628.020502 93.594026 
L 629.73919 93.594026 
L 629.73919 97.226275 
L 631.457879 97.226275 
L 631.457879 96.946872 
L 633.176567 96.946872 
L 633.176567 114.828713 
L 634.895256 114.828713 
L 634.895256 103.652562 
L 636.613944 103.652562 
L 636.613944 108.123022 
L 638.332633 108.123022 
L 638.332633 115.946328 
L 640.051321 115.946328 
L 640.051321 130.19592 
L 641.77001 130.19592 
L 641.77001 113.711098 
L 643.488698 113.711098 
L 643.488698 124.328441 
L 645.207387 124.328441 
L 645.207387 145.563127 
L 646.926075 145.563127 
L 646.926075 146.960146 
L 648.644764 146.960146 
L 648.644764 142.76909 
L 650.363453 142.76909 
L 650.363453 161.768546 
L 652.082141 161.768546 
L 652.082141 154.224644 
L 653.80083 154.224644 
L 653.80083 164.841987 
L 655.519518 164.841987 
L 655.519518 183.003232 
L 657.238207 183.003232 
L 657.238207 191.385345 
L 658.956895 191.385345 
L 658.956895 192.50296 
L 660.675584 192.50296 
L 660.675584 213.178839 
L 662.394272 213.178839 
L 662.394272 211.223013 
L 664.112961 211.223013 
L 664.112961 219.88453 
L 665.831649 219.88453 
L 665.831649 222.11976 
L 667.550338 222.11976 
L 667.550338 230.781277 
L 669.269026 230.781277 
L 669.269026 234.972333 
L 670.987715 234.972333 
L 670.987715 237.766371 
L 672.706404 237.766371 
L 672.706404 242.516235 
L 674.425092 242.516235 
L 674.425092 238.604582 
L 676.143781 238.604582 
L 676.143781 235.810545 
L 677.862469 235.810545 
L 677.862469 226.59022 
L 679.581158 226.59022 
L 679.581158 219.605126 
L 681.299846 219.605126 
L 681.299846 215.414069 
L 683.018535 215.414069 
L 683.018535 206.752553 
L 684.737223 206.752553 
L 684.737223 200.60567 
L 686.455912 200.60567 
L 686.455912 197.811632 
L 688.1746 197.811632 
L 688.1746 190.826538 
L 689.893289 190.826538 
L 689.893289 186.635481 
L 691.611977 186.635481 
L 691.611977 179.650387 
L 693.330666 179.650387 
L 693.330666 180.209195 
L 695.049355 180.209195 
L 695.049355 169.871255 
L 696.768043 169.871255 
L 696.768043 154.783452 
L 698.486732 154.783452 
L 698.486732 169.591851 
L 700.20542 169.591851 
L 700.20542 163.165565 
L 701.924109 163.165565 
L 701.924109 146.121935 
L 703.642797 146.121935 
L 703.642797 151.989414 
L 705.361486 151.989414 
L 705.361486 141.651475 
L 707.080174 141.651475 
L 707.080174 143.607301 
L 708.798863 143.607301 
L 708.798863 146.960146 
L 710.517551 146.960146 
L 710.517551 136.622207 
L 712.23624 136.622207 
L 712.23624 119.857981 
L 713.954929 119.857981 
L 713.954929 132.989958 
L 715.673617 132.989958 
L 715.673617 130.475324 
L 717.392306 130.475324 
L 717.392306 133.548765 
L 719.110994 133.548765 
L 719.110994 117.902154 
L 720.829683 117.902154 
L 720.829683 123.210826 
L 722.548371 123.210826 
L 722.548371 110.91706 
L 724.26706 110.91706 
L 724.26706 103.373158 
L 725.985748 103.373158 
L 725.985748 101.137928 
L 727.704437 101.137928 
L 727.704437 127.122479 
L 729.423125 127.122479 
L 729.423125 109.799445 
L 731.141814 109.799445 
L 731.141814 111.755271 
L 732.860502 111.755271 
L 732.860502 121.534403 
L 734.579191 121.534403 
L 734.579191 111.475868 
L 736.29788 111.475868 
L 736.29788 115.666924 
L 738.016568 115.666924 
L 738.016568 122.931422 
L 739.735257 122.931422 
L 739.735257 132.989958 
L 741.453945 132.989958 
L 741.453945 134.107573 
L 743.172634 134.107573 
L 743.172634 127.681286 
L 744.891322 127.681286 
L 744.891322 117.063943 
L 746.610011 117.063943 
L 746.610011 130.475324 
L 748.328699 130.475324 
L 748.328699 145.283724 
L 750.047388 145.283724 
L 750.047388 125.72546 
L 751.766076 125.72546 
L 751.766076 140.813263 
L 753.484765 140.813263 
L 753.484765 138.019226 
L 755.203453 138.019226 
L 755.203453 138.298629 
L 756.922142 138.298629 
L 756.922142 158.415701 
L 758.640831 158.415701 
L 758.640831 135.504592 
L 760.359519 135.504592 
L 760.359519 137.739822 
L 762.078208 137.739822 
L 762.078208 150.871799 
L 763.796896 150.871799 
L 763.796896 154.783452 
L 765.515585 154.783452 
L 765.515585 150.312991 
L 767.234273 150.312991 
L 767.234273 149.47478 
L 768.952962 149.47478 
L 768.952962 146.401339 
L 770.67165 146.401339 
L 770.67165 161.768546 
L 772.390339 161.768546 
L 772.390339 167.077217 
L 774.109027 167.077217 
L 774.109027 154.783452 
L 775.827716 154.783452 
L 775.827716 162.327353 
L 777.546404 162.327353 
L 777.546404 167.636025 
L 779.265093 167.636025 
L 779.265093 172.665293 
L 780.983782 172.665293 
L 780.983782 160.650931 
L 782.70247 160.650931 
L 782.70247 163.724372 
L 784.421159 163.724372 
L 784.421159 177.415157 
L 786.139847 177.415157 
L 786.139847 170.709466 
L 787.858536 170.709466 
L 787.858536 175.179927 
L 789.577224 175.179927 
L 789.577224 167.077217 
L 791.295913 167.077217 
L 791.295913 162.327353 
L 793.014601 162.327353 
L 793.014601 179.09158 
L 794.73329 179.09158 
L 794.73329 181.606213 
L 796.451978 181.606213 
L 796.451978 181.32681 
L 798.170667 181.32681 
L 798.170667 185.517866 
L 799.889355 185.517866 
L 799.889355 193.061768 
L 801.608044 193.061768 
L 801.608044 201.723285 
L 803.326733 201.723285 
L 803.326733 196.414613 
L 805.045421 196.414613 
L 805.045421 203.958515 
L 806.76411 203.958515 
L 806.76411 201.443881 
L 808.482798 201.443881 
L 808.482798 207.031956 
L 810.201487 207.031956 
L 810.201487 206.193745 
L 811.920175 206.193745 
L 811.920175 214.017051 
L 813.638864 214.017051 
L 813.638864 214.296454 
L 815.357552 214.296454 
L 815.357552 220.722741 
L 817.076241 220.722741 
L 817.076241 224.634394 
L 818.794929 224.634394 
L 818.794929 222.11976 
L 820.513618 222.11976 
L 820.513618 226.59022 
L 822.232307 226.59022 
L 822.232307 230.222469 
L 823.950995 230.222469 
L 823.950995 231.619488 
L 825.669684 231.619488 
L 825.669684 235.251737 
L 827.388372 235.251737 
L 827.388372 238.045775 
L 829.107061 238.045775 
L 829.107061 238.604582 
L 830.825749 238.604582 
L 830.825749 241.39862 
L 832.544438 241.39862 
L 832.544438 239.722197 
L 834.263126 239.722197 
L 834.263126 241.957427 
L 835.981815 241.957427 
L 835.981815 244.472061 
L 837.700503 244.472061 
L 837.700503 245.86908 
L 839.419192 245.86908 
L 839.419192 245.589676 
L 841.13788 245.589676 
L 841.13788 245.86908 
L 848.012635 245.86908 
L 848.012635 245.86908 
" clip-path="url(#pcf66db3f2a)" style="fill: none; stroke: #1f77b4; stroke-width: 1.5; stroke-linecap: square"/>
   </g>
   <g id="line2d_40">
    <path d="M 504.274927 245.86908 
L 512.868369 245.86908 
L 512.868369 243.075042 
L 514.587058 243.075042 
L 514.587058 235.531141 
L 516.305746 235.531141 
L 516.305746 227.428431 
L 518.024435 227.428431 
L 518.024435 216.811088 
L 519.743124 216.811088 
L 519.743124 211.502417 
L 521.461812 211.502417 
L 521.461812 202.282092 
L 523.180501 202.282092 
L 523.180501 195.576402 
L 524.899189 195.576402 
L 524.899189 181.606213 
L 526.617878 181.606213 
L 526.617878 175.738734 
L 528.336566 175.738734 
L 528.336566 160.650931 
L 530.055255 160.650931 
L 530.055255 149.195376 
L 531.773943 149.195376 
L 531.773943 149.754184 
L 533.492632 149.754184 
L 533.492632 140.254456 
L 535.21132 140.254456 
L 535.21132 127.681286 
L 536.930009 127.681286 
L 536.930009 118.181558 
L 538.648697 118.181558 
L 538.648697 119.578577 
L 540.367386 119.578577 
L 540.367386 118.181558 
L 542.086075 118.181558 
L 542.086075 115.666924 
L 543.804763 115.666924 
L 543.804763 93.035219 
L 545.523452 93.035219 
L 545.523452 92.197007 
L 547.24214 92.197007 
L 547.24214 84.653106 
L 548.960829 84.653106 
L 548.960829 76.550396 
L 550.679517 76.550396 
L 550.679517 65.094842 
L 552.398206 65.094842 
L 552.398206 69.844706 
L 554.116894 69.844706 
L 554.116894 60.903785 
L 555.835583 60.903785 
L 555.835583 58.109748 
L 557.554271 58.109748 
L 557.554271 57.271536 
L 559.27296 57.271536 
L 559.27296 57.830344 
L 560.991648 57.830344 
L 560.991648 48.889423 
L 562.710337 48.889423 
L 562.710337 50.565846 
L 564.429026 50.565846 
L 564.429026 51.683461 
L 566.147714 51.683461 
L 566.147714 43.860156 
L 567.866403 43.860156 
L 567.866403 37.154465 
L 569.585091 37.154465 
L 569.585091 34.639831 
L 571.30378 34.639831 
L 571.30378 32.963409 
L 573.022468 32.963409 
L 573.022468 43.301348 
L 574.741157 43.301348 
L 574.741157 40.227907 
L 576.459845 40.227907 
L 576.459845 44.418963 
L 578.178534 44.418963 
L 578.178534 51.962865 
L 579.897222 51.962865 
L 579.897222 57.830344 
L 581.615911 57.830344 
L 581.615911 56.992133 
L 583.334599 56.992133 
L 583.334599 65.094842 
L 585.053288 65.094842 
L 585.053288 69.006495 
L 588.490665 69.006495 
L 588.490665 78.226819 
L 590.209354 78.226819 
L 590.209354 76.270993 
L 591.928042 76.270993 
L 591.928042 72.918147 
L 593.646731 72.918147 
L 593.646731 74.873974 
L 595.365419 74.873974 
L 595.365419 75.432781 
L 597.084108 75.432781 
L 597.084108 79.623838 
L 598.802796 79.623838 
L 598.802796 76.550396 
L 600.521485 76.550396 
L 600.521485 74.035763 
L 602.240173 74.035763 
L 602.240173 70.962321 
L 603.958862 70.962321 
L 603.958862 82.697279 
L 605.67755 82.697279 
L 605.67755 84.373702 
L 607.396239 84.373702 
L 607.396239 84.653106 
L 609.114928 84.653106 
L 609.114928 89.40297 
L 610.833616 89.40297 
L 610.833616 91.6382 
L 612.552305 91.6382 
L 612.552305 80.182645 
L 614.270993 80.182645 
L 614.270993 86.608932 
L 615.989682 86.608932 
L 615.989682 85.211913 
L 617.70837 85.211913 
L 617.70837 84.93251 
L 619.427059 84.93251 
L 619.427059 96.388064 
L 621.145747 96.388064 
L 621.145747 79.903242 
L 622.864436 79.903242 
L 622.864436 91.917604 
L 624.583124 91.917604 
L 624.583124 90.799989 
L 626.301813 90.799989 
L 626.301813 101.976139 
L 628.020502 101.976139 
L 628.020502 89.961777 
L 629.73919 89.961777 
L 629.73919 100.579121 
L 631.457879 100.579121 
L 631.457879 105.608388 
L 633.176567 105.608388 
L 633.176567 101.417332 
L 634.895256 101.417332 
L 634.895256 110.358252 
L 636.613944 110.358252 
L 636.613944 111.196464 
L 638.332633 111.196464 
L 638.332633 117.063943 
L 640.051321 117.063943 
L 640.051321 123.769633 
L 641.77001 123.769633 
L 641.77001 120.696192 
L 643.488698 120.696192 
L 643.488698 130.475324 
L 645.207387 130.475324 
L 645.207387 141.092667 
L 646.926075 141.092667 
L 646.926075 144.724916 
L 648.644764 144.724916 
L 648.644764 148.636569 
L 650.363453 148.636569 
L 650.363453 153.107029 
L 652.082141 153.107029 
L 652.082141 157.298086 
L 653.80083 157.298086 
L 653.80083 167.356621 
L 655.519518 167.356621 
L 655.519518 179.370983 
L 657.238207 179.370983 
L 657.238207 190.826538 
L 658.956895 190.826538 
L 658.956895 194.458787 
L 660.675584 194.458787 
L 660.675584 209.54659 
L 662.394272 209.54659 
L 662.394272 212.061224 
L 664.112961 212.061224 
L 664.112961 219.88453 
L 665.831649 219.88453 
L 665.831649 222.11976 
L 667.550338 222.11976 
L 667.550338 231.898892 
L 669.269026 231.898892 
L 669.269026 234.134122 
L 670.987715 234.134122 
L 670.987715 238.045775 
L 672.706404 238.045775 
L 672.706404 242.516235 
L 674.425092 242.516235 
L 674.425092 238.604582 
L 676.143781 238.604582 
L 676.143781 235.810545 
L 677.862469 235.810545 
L 677.862469 226.59022 
L 679.581158 226.59022 
L 679.581158 220.443337 
L 681.299846 220.443337 
L 681.299846 213.737647 
L 683.018535 213.737647 
L 683.018535 204.517322 
L 684.737223 204.517322 
L 684.737223 203.679111 
L 686.455912 203.679111 
L 686.455912 194.458787 
L 688.1746 194.458787 
L 688.1746 192.782364 
L 689.893289 192.782364 
L 689.893289 189.429519 
L 691.611977 189.429519 
L 691.611977 174.900523 
L 693.330666 174.900523 
L 693.330666 186.076674 
L 695.049355 186.076674 
L 695.049355 164.003776 
L 696.768043 164.003776 
L 696.768043 156.459874 
L 698.486732 156.459874 
L 698.486732 170.709466 
L 700.20542 170.709466 
L 700.20542 159.812719 
L 701.924109 159.812719 
L 701.924109 149.47478 
L 703.642797 149.47478 
L 703.642797 144.445512 
L 705.361486 144.445512 
L 705.361486 145.563127 
L 707.080174 145.563127 
L 707.080174 143.886705 
L 708.798863 143.886705 
L 708.798863 146.960146 
L 710.517551 146.960146 
L 710.517551 139.416244 
L 712.23624 139.416244 
L 712.23624 119.019769 
L 713.954929 119.019769 
L 713.954929 138.857437 
L 715.673617 138.857437 
L 715.673617 123.49023 
L 717.392306 123.49023 
L 717.392306 138.298629 
L 719.110994 138.298629 
L 719.110994 122.093211 
L 720.829683 122.093211 
L 720.829683 107.005407 
L 722.548371 107.005407 
L 722.548371 117.343347 
L 724.26706 117.343347 
L 724.26706 100.020313 
L 725.985748 100.020313 
L 725.985748 113.15229 
L 727.704437 113.15229 
L 727.704437 117.343347 
L 729.423125 117.343347 
L 729.423125 109.799445 
L 731.141814 109.799445 
L 731.141814 113.15229 
L 732.860502 113.15229 
L 732.860502 124.049037 
L 734.579191 124.049037 
L 734.579191 116.784539 
L 736.29788 116.784539 
L 736.29788 117.063943 
L 738.016568 117.063943 
L 738.016568 115.946328 
L 739.735257 115.946328 
L 739.735257 124.887248 
L 741.453945 124.887248 
L 741.453945 142.76909 
L 743.172634 142.76909 
L 743.172634 119.299173 
L 744.891322 119.299173 
L 744.891322 127.401882 
L 746.610011 127.401882 
L 746.610011 130.475324 
L 748.328699 130.475324 
L 748.328699 139.136841 
L 750.047388 139.136841 
L 750.047388 135.225188 
L 751.766076 135.225188 
L 751.766076 132.43115 
L 753.484765 132.43115 
L 753.484765 144.724916 
L 755.203453 144.724916 
L 755.203453 147.23955 
L 756.922142 147.23955 
L 756.922142 144.445512 
L 758.640831 144.445512 
L 758.640831 140.254456 
L 760.359519 140.254456 
L 760.359519 139.975052 
L 762.078208 139.975052 
L 762.078208 142.489686 
L 763.796896 142.489686 
L 763.796896 161.489142 
L 765.515585 161.489142 
L 765.515585 146.401339 
L 767.234273 146.401339 
L 767.234273 145.563127 
L 768.952962 145.563127 
L 768.952962 155.621663 
L 770.67165 155.621663 
L 770.67165 159.253912 
L 772.390339 159.253912 
L 772.390339 161.489142 
L 774.109027 161.489142 
L 774.109027 161.209738 
L 775.827716 161.209738 
L 775.827716 160.650931 
L 777.546404 160.650931 
L 777.546404 164.841987 
L 779.265093 164.841987 
L 779.265093 170.430063 
L 780.983782 170.430063 
L 780.983782 162.606757 
L 782.70247 162.606757 
L 782.70247 165.959602 
L 784.421159 165.959602 
L 784.421159 173.503504 
L 786.139847 173.503504 
L 786.139847 177.415157 
L 787.858536 177.415157 
L 787.858536 167.636025 
L 789.577224 167.636025 
L 789.577224 174.900523 
L 791.295913 174.900523 
L 791.295913 161.768546 
L 793.014601 161.768546 
L 793.014601 178.812176 
L 794.73329 178.812176 
L 794.73329 179.09158 
L 796.451978 179.09158 
L 796.451978 181.606213 
L 798.170667 181.606213 
L 798.170667 189.708923 
L 799.889355 189.708923 
L 799.889355 193.620575 
L 801.608044 193.620575 
L 801.608044 192.782364 
L 803.326733 192.782364 
L 803.326733 202.8409 
L 805.045421 202.8409 
L 805.045421 200.885073 
L 806.76411 200.885073 
L 806.76411 204.517322 
L 808.482798 204.517322 
L 808.482798 205.355534 
L 810.201487 205.355534 
L 810.201487 205.914341 
L 811.920175 205.914341 
L 811.920175 213.737647 
L 815.357552 213.737647 
L 815.357552 222.957971 
L 817.076241 222.957971 
L 817.076241 219.88453 
L 818.794929 219.88453 
L 818.794929 223.237375 
L 820.513618 223.237375 
L 820.513618 227.149028 
L 822.232307 227.149028 
L 822.232307 232.178296 
L 823.950995 232.178296 
L 823.950995 231.898892 
L 825.669684 231.898892 
L 825.669684 234.134122 
L 827.388372 234.134122 
L 827.388372 238.604582 
L 829.107061 238.604582 
L 829.107061 238.045775 
L 830.825749 238.045775 
L 830.825749 240.839812 
L 834.263126 240.839812 
L 834.263126 241.957427 
L 835.981815 241.957427 
L 835.981815 243.63385 
L 837.700503 243.63385 
L 837.700503 245.310273 
L 839.419192 245.310273 
L 839.419192 245.589676 
L 841.13788 245.589676 
L 841.13788 245.86908 
L 848.012635 245.86908 
L 848.012635 245.86908 
" clip-path="url(#pcf66db3f2a)" style="fill: none; stroke: #ff7f0e; stroke-width: 1.5; stroke-linecap: square"/>
   </g>
   <g id="patch_9">
    <path d="M 487.088041 256.514364 
L 487.088041 22.318125 
" style="fill: none; stroke: #000000; stroke-width: 0.8; stroke-linejoin: miter; stroke-linecap: square"/>
   </g>
   <g id="patch_10">
    <path d="M 865.19952 256.514364 
L 865.19952 22.318125 
" style="fill: none; stroke: #000000; stroke-width: 0.8; stroke-linejoin: miter; stroke-linecap: square"/>
   </g>
   <g id="patch_11">
    <path d="M 487.088041 256.514364 
L 865.19952 256.514364 
" style="fill: none; stroke: #000000; stroke-width: 0.8; stroke-linejoin: miter; stroke-linecap: square"/>
   </g>
   <g id="patch_12">
    <path d="M 487.088041 22.318125 
L 865.19952 22.318125 
" style="fill: none; stroke: #000000; stroke-width: 0.8; stroke-linejoin: miter; stroke-linecap: square"/>
   </g>
   <g id="text_42">
    <!-- Pixel 2 -->
    <g transform="translate(656.541593 16.318125) scale(0.12 -0.12)">
     <use xlink:href="#DejaVuSans-33"/>
     <use xlink:href="#DejaVuSans-4c" transform="translate(58.09375 0)"/>
     <use xlink:href="#DejaVuSans-5b" transform="translate(85.875 0)"/>
     <use xlink:href="#DejaVuSans-48" transform="translate(141.984375 0)"/>
     <use xlink:href="#DejaVuSans-4f" transform="translate(203.515625 0)"/>
     <use xlink:href="#DejaVuSans-3" transform="translate(231.296875 0)"/>
     <use xlink:href="#DejaVuSans-15" transform="translate(263.078125 0)"/>
    </g>
   </g>
   <g id="legend_2">
    <g id="patch_13">
     <path d="M 761.191707 60.319687 
L 858.19952 60.319687 
Q 860.19952 60.319687 860.19952 58.319687 
L 860.19952 29.318125 
Q 860.19952 27.318125 858.19952 27.318125 
L 761.191707 27.318125 
Q 759.191707 27.318125 759.191707 29.318125 
L 759.191707 58.319687 
Q 759.191707 60.319687 761.191707 60.319687 
z
" style="fill: #ffffff; opacity: 0.8; stroke: #cccccc; stroke-linejoin: miter"/>
    </g>
    <g id="line2d_41">
     <path d="M 763.191707 35.416562 
L 763.191707 35.416562 
L 773.191707 35.416562 
L 773.191707 35.416562 
L 783.191707 35.416562 
" style="fill: none; stroke: #1f77b4; stroke-width: 1.5; stroke-linecap: square"/>
    </g>
    <g id="text_43">
     <!-- wfm -->
     <g transform="translate(791.191707 38.916562) scale(0.1 -0.1)">
      <use xlink:href="#DejaVuSans-5a"/>
      <use xlink:href="#DejaVuSans-49" transform="translate(81.78125 0)"/>
      <use xlink:href="#DejaVuSans-50" transform="translate(116.984375 0)"/>
     </g>
    </g>
    <g id="line2d_42">
     <path d="M 763.191707 50.417344 
L 763.191707 50.417344 
L 773.191707 50.417344 
L 773.191707 50.417344 
L 783.191707 50.417344 
" style="fill: none; stroke: #ff7f0e; stroke-width: 1.5; stroke-linecap: square"/>
    </g>
    <g id="text_44">
     <!-- ground_truth -->
     <g transform="translate(791.191707 53.917344) scale(0.1 -0.1)">
      <use xlink:href="#DejaVuSans-4a"/>
      <use xlink:href="#DejaVuSans-55" transform="translate(63.484375 0)"/>
      <use xlink:href="#DejaVuSans-52" transform="translate(102.390625 0)"/>
      <use xlink:href="#DejaVuSans-58" transform="translate(163.578125 0)"/>
      <use xlink:href="#DejaVuSans-51" transform="translate(226.953125 0)"/>
      <use xlink:href="#DejaVuSans-47" transform="translate(290.328125 0)"/>
      <use xlink:href="#DejaVuSans-42" transform="translate(353.8125 0)"/>
      <use xlink:href="#DejaVuSans-57" transform="translate(403.8125 0)"/>
      <use xlink:href="#DejaVuSans-55" transform="translate(443.015625 0)"/>
      <use xlink:href="#DejaVuSans-58" transform="translate(484.125 0)"/>
      <use xlink:href="#DejaVuSans-57" transform="translate(547.5 0)"/>
      <use xlink:href="#DejaVuSans-4b" transform="translate(586.703125 0)"/>
     </g>
    </g>
   </g>
  </g>
 </g>
 <defs>
  <clipPath id="p68948e4d0c">
   <rect x="47.288281" y="22.318125" width="378.111479" height="234.196239"/>
  </clipPath>
  <clipPath id="pcf66db3f2a">
   <rect x="487.088041" y="22.318125" width="378.111479" height="234.196239"/>
  </clipPath>
 </defs>
</svg>
