<?xml version="1.0" encoding="utf-8" standalone="no"?>
<!DOCTYPE svg PUBLIC "-//W3C//DTD SVG 1.1//EN"
  "http://www.w3.org/Graphics/SVG/1.1/DTD/svg11.dtd">
<svg xmlns:xlink="http://www.w3.org/1999/xlink" width="389.288281pt" height="268.845156pt" viewBox="0 0 389.288281 268.845156" xmlns="http://www.w3.org/2000/svg" version="1.1">
 <metadata>
  <rdf:RDF xmlns:dc="http://purl.org/dc/elements/1.1/" xmlns:cc="http://creativecommons.org/ns#" xmlns:rdf="http://www.w3.org/1999/02/22-rdf-syntax-ns#">
   <cc:Work>
    <dc:type rdf:resource="http://purl.org/dc/dcmitype/StillImage"/>
    <dc:date>2026-06-30T14:34:14.674262</dc:date>
    <dc:format>image/svg+xml</dc:format>
    <dc:creator>
     <cc:Agent>
      <dc:title>Matplotlib v3.11.0, https://matplotlib.org/</dc:title>
     </cc:Agent>
    </dc:creator>
   </cc:Work>
  </rdf:RDF>
 </metadata>
 <defs>
  <style type="text/css">*{stroke-linejoin: round; stroke-linecap: butt}</style>
 </defs>
 <g id="figure_1">
  <g id="patch_1">
   <path d="M 0 268.845156 
L 389.288281 268.845156 
L 389.288281 0 
L 0 0 
z
" style="fill: #ffffff"/>
  </g>
  <g id="axes_1">
   <g id="patch_2">
    <path d="M 47.288281 228.96 
L 382.088281 228.96 
L 382.088281 7.2 
L 47.288281 7.2 
z
" style="fill: #ffffff"/>
   </g>
   <g id="matplotlib.axis_1">
    <g id="xtick_1">
     <g id="line2d_1">
      <defs>
       <path id="m84b7323b67" d="M 0 0 
L 0 3.5 
" style="stroke: #000000; stroke-width: 0.8"/>
      </defs>
      <g>
       <use xlink:href="#m84b7323b67" x="78.525602" y="228.96" style="stroke: #000000; stroke-width: 0.8"/>
      </g>
     </g>
     <g id="text_1">
      <!-- 1.0 -->
      <g transform="translate(70.574039 243.557656) scale(0.1 -0.1)">
       <defs>
        <path id="DejaVuSans-14" d="M 794 531 
L 1825 531 
L 1825 4091 
L 703 3866 
L 703 4441 
L 1819 4666 
L 2450 4666 
L 2450 531 
L 3481 531 
L 3481 0 
L 794 0 
L 794 531 
z
" transform="scale(0.015625)"/>
        <path id="DejaVuSans-11" d="M 684 794 
L 1344 794 
L 1344 0 
L 684 0 
L 684 794 
z
" transform="scale(0.015625)"/>
        <path id="DejaVuSans-13" d="M 2034 4250 
Q 1547 4250 1301 3770 
Q 1056 3291 1056 2328 
Q 1056 1369 1301 889 
Q 1547 409 2034 409 
Q 2525 409 2770 889 
Q 3016 1369 3016 2328 
Q 3016 3291 2770 3770 
Q 2525 4250 2034 4250 
z
M 2034 4750 
Q 2819 4750 3233 4129 
Q 3647 3509 3647 2328 
Q 3647 1150 3233 529 
Q 2819 -91 2034 -91 
Q 1250 -91 836 529 
Q 422 1150 422 2328 
Q 422 3509 836 4129 
Q 1250 4750 2034 4750 
z
" transform="scale(0.015625)"/>
       </defs>
       <use xlink:href="#DejaVuSans-14"/>
       <use xlink:href="#DejaVuSans-11" transform="translate(63.625 0)"/>
       <use xlink:href="#DejaVuSans-13" transform="translate(95.40625 0)"/>
      </g>
     </g>
    </g>
    <g id="xtick_2">
     <g id="line2d_2">
      <g>
       <use xlink:href="#m84b7323b67" x="118.573449" y="228.96" style="stroke: #000000; stroke-width: 0.8"/>
      </g>
     </g>
     <g id="text_2">
      <!-- 1.5 -->
      <g transform="translate(110.621886 243.557656) scale(0.1 -0.1)">
       <defs>
        <path id="DejaVuSans-18" d="M 691 4666 
L 3169 4666 
L 3169 4134 
L 1269 4134 
L 1269 2991 
Q 1406 3038 1543 3061 
Q 1681 3084 1819 3084 
Q 2600 3084 3056 2656 
Q 3513 2228 3513 1497 
Q 3513 744 3044 326 
Q 2575 -91 1722 -91 
Q 1428 -91 1123 -41 
Q 819 9 494 109 
L 494 744 
Q 775 591 1075 516 
Q 1375 441 1709 441 
Q 2250 441 2565 725 
Q 2881 1009 2881 1497 
Q 2881 1984 2565 2268 
Q 2250 2553 1709 2553 
Q 1456 2553 1204 2497 
Q 953 2441 691 2322 
L 691 4666 
z
" transform="scale(0.015625)"/>
       </defs>
       <use xlink:href="#DejaVuSans-14"/>
       <use xlink:href="#DejaVuSans-11" transform="translate(63.625 0)"/>
       <use xlink:href="#DejaVuSans-18" transform="translate(95.40625 0)"/>
      </g>
     </g>
    </g>
    <g id="xtick_3">
     <g id="line2d_3">
      <g>
       <use xlink:href="#m84b7323b67" x="158.621296" y="228.96" style="stroke: #000000; stroke-width: 0.8"/>
      </g>
     </g>
     <g id="text_3">
      <!-- 2.0 -->
      <g transform="translate(150.669733 243.557656) scale(0.1 -0.1)">
       <defs>
        <path id="DejaVuSans-15" d="M 1228 531 
L 3431 531 
L 3431 0 
L 469 0 
L 469 531 
Q 828 903 1448 1529 
Q 2069 2156 2228 2338 
Q 2531 2678 2651 2914 
Q 2772 3150 2772 3378 
Q 2772 3750 2511 3984 
Q 2250 4219 1831 4219 
Q 1534 4219 1204 4116 
Q 875 4013 500 3803 
L 500 4441 
Q 881 4594 1212 4672 
Q 1544 4750 1819 4750 
Q 2544 4750 2975 4387 
Q 3406 4025 3406 3419 
Q 3406 3131 3298 2873 
Q 3191 2616 2906 2266 
Q 2828 2175 2409 1742 
Q 1991 1309 1228 531 
z
" transform="scale(0.015625)"/>
       </defs>
       <use xlink:href="#DejaVuSans-15"/>
       <use xlink:href="#DejaVuSans-11" transform="translate(63.625 0)"/>
       <use xlink:href="#DejaVuSans-13" transform="translate(95.40625 0)"/>
      </g>
     </g>
    </g>
    <g id="xtick_4">
     <g id="line2d_4">
      <g>
       <use xlink:href="#m84b7323b67" x="198.669142" y="228.96" style="stroke: #000000; stroke-width: 0.8"/>
      </g>
     </g>
     <g id="text_4">
      <!-- 2.5 -->
      <g transform="translate(190.71758 243.557656) scale(0.1 -0.1)">
       <use xlink:href="#DejaVuSans-15"/>
       <use xlink:href="#DejaVuSans-11" transform="translate(63.625 0)"/>
       <use xlink:href="#DejaVuSans-18" transform="translate(95.40625 0)"/>
      </g>
     </g>
    </g>
    <g id="xtick_5">
     <g id="line2d_5">
      <g>
       <use xlink:href="#m84b7323b67" x="238.716989" y="228.96" style="stroke: #000000; stroke-width: 0.8"/>
      </g>
     </g>
     <g id="text_5">
      <!-- 3.0 -->
      <g transform="translate(230.765427 243.557656) scale(0.1 -0.1)">
       <defs>
        <path id="DejaVuSans-16" d="M 2597 2516 
Q 3050 2419 3304 2112 
Q 3559 1806 3559 1356 
Q 3559 666 3084 287 
Q 2609 -91 1734 -91 
Q 1441 -91 1130 -33 
Q 819 25 488 141 
L 488 750 
Q 750 597 1062 519 
Q 1375 441 1716 441 
Q 2309 441 2620 675 
Q 2931 909 2931 1356 
Q 2931 1769 2642 2001 
Q 2353 2234 1838 2234 
L 1294 2234 
L 1294 2753 
L 1863 2753 
Q 2328 2753 2575 2939 
Q 2822 3125 2822 3475 
Q 2822 3834 2567 4026 
Q 2313 4219 1838 4219 
Q 1578 4219 1281 4162 
Q 984 4106 628 3988 
L 628 4550 
Q 988 4650 1302 4700 
Q 1616 4750 1894 4750 
Q 2613 4750 3031 4423 
Q 3450 4097 3450 3541 
Q 3450 3153 3228 2886 
Q 3006 2619 2597 2516 
z
" transform="scale(0.015625)"/>
       </defs>
       <use xlink:href="#DejaVuSans-16"/>
       <use xlink:href="#DejaVuSans-11" transform="translate(63.625 0)"/>
       <use xlink:href="#DejaVuSans-13" transform="translate(95.40625 0)"/>
      </g>
     </g>
    </g>
    <g id="xtick_6">
     <g id="line2d_6">
      <g>
       <use xlink:href="#m84b7323b67" x="278.764836" y="228.96" style="stroke: #000000; stroke-width: 0.8"/>
      </g>
     </g>
     <g id="text_6">
      <!-- 3.5 -->
      <g transform="translate(270.813274 243.557656) scale(0.1 -0.1)">
       <use xlink:href="#DejaVuSans-16"/>
       <use xlink:href="#DejaVuSans-11" transform="translate(63.625 0)"/>
       <use xlink:href="#DejaVuSans-18" transform="translate(95.40625 0)"/>
      </g>
     </g>
    </g>
    <g id="xtick_7">
     <g id="line2d_7">
      <g>
       <use xlink:href="#m84b7323b67" x="318.812683" y="228.96" style="stroke: #000000; stroke-width: 0.8"/>
      </g>
     </g>
     <g id="text_7">
      <!-- 4.0 -->
      <g transform="translate(310.861121 243.557656) scale(0.1 -0.1)">
       <defs>
        <path id="DejaVuSans-17" d="M 2419 4116 
L 825 1625 
L 2419 1625 
L 2419 4116 
z
M 2253 4666 
L 3047 4666 
L 3047 1625 
L 3713 1625 
L 3713 1100 
L 3047 1100 
L 3047 0 
L 2419 0 
L 2419 1100 
L 313 1100 
L 313 1709 
L 2253 4666 
z
" transform="scale(0.015625)"/>
       </defs>
       <use xlink:href="#DejaVuSans-17"/>
       <use xlink:href="#DejaVuSans-11" transform="translate(63.625 0)"/>
       <use xlink:href="#DejaVuSans-13" transform="translate(95.40625 0)"/>
      </g>
     </g>
    </g>
    <g id="xtick_8">
     <g id="line2d_8">
      <g>
       <use xlink:href="#m84b7323b67" x="358.86053" y="228.96" style="stroke: #000000; stroke-width: 0.8"/>
      </g>
     </g>
     <g id="text_8">
      <!-- 4.5 -->
      <g transform="translate(350.908968 243.557656) scale(0.1 -0.1)">
       <use xlink:href="#DejaVuSans-17"/>
       <use xlink:href="#DejaVuSans-11" transform="translate(63.625 0)"/>
       <use xlink:href="#DejaVuSans-18" transform="translate(95.40625 0)"/>
      </g>
     </g>
    </g>
    <g id="text_9">
     <!-- wavelength [Å] -->
     <g transform="translate(176.650781 259.242812) scale(0.1 -0.1)">
      <defs>
       <path id="DejaVuSans-5a" d="M 269 3500 
L 844 3500 
L 1563 769 
L 2278 3500 
L 2956 3500 
L 3675 769 
L 4391 3500 
L 4966 3500 
L 4050 0 
L 3372 0 
L 2619 2869 
L 1863 0 
L 1184 0 
L 269 3500 
z
" transform="scale(0.015625)"/>
       <path id="DejaVuSans-44" d="M 2194 1759 
Q 1497 1759 1228 1600 
Q 959 1441 959 1056 
Q 959 750 1161 570 
Q 1363 391 1709 391 
Q 2188 391 2477 730 
Q 2766 1069 2766 1631 
L 2766 1759 
L 2194 1759 
z
M 3341 1997 
L 3341 0 
L 2766 0 
L 2766 531 
Q 2569 213 2275 61 
Q 1981 -91 1556 -91 
Q 1019 -91 701 211 
Q 384 513 384 1019 
Q 384 1609 779 1909 
Q 1175 2209 1959 2209 
L 2766 2209 
L 2766 2266 
Q 2766 2663 2505 2880 
Q 2244 3097 1772 3097 
Q 1472 3097 1187 3025 
Q 903 2953 641 2809 
L 641 3341 
Q 956 3463 1253 3523 
Q 1550 3584 1831 3584 
Q 2591 3584 2966 3190 
Q 3341 2797 3341 1997 
z
" transform="scale(0.015625)"/>
       <path id="DejaVuSans-59" d="M 191 3500 
L 800 3500 
L 1894 563 
L 2988 3500 
L 3597 3500 
L 2284 0 
L 1503 0 
L 191 3500 
z
" transform="scale(0.015625)"/>
       <path id="DejaVuSans-48" d="M 3597 1894 
L 3597 1613 
L 953 1613 
Q 991 1019 1311 708 
Q 1631 397 2203 397 
Q 2534 397 2845 478 
Q 3156 559 3463 722 
L 3463 178 
Q 3153 47 2828 -22 
Q 2503 -91 2169 -91 
Q 1331 -91 842 396 
Q 353 884 353 1716 
Q 353 2575 817 3079 
Q 1281 3584 2069 3584 
Q 2775 3584 3186 3129 
Q 3597 2675 3597 1894 
z
M 3022 2063 
Q 3016 2534 2758 2815 
Q 2500 3097 2075 3097 
Q 1594 3097 1305 2825 
Q 1016 2553 972 2059 
L 3022 2063 
z
" transform="scale(0.015625)"/>
       <path id="DejaVuSans-4f" d="M 603 4863 
L 1178 4863 
L 1178 0 
L 603 0 
L 603 4863 
z
" transform="scale(0.015625)"/>
       <path id="DejaVuSans-51" d="M 3513 2113 
L 3513 0 
L 2938 0 
L 2938 2094 
Q 2938 2591 2744 2837 
Q 2550 3084 2163 3084 
Q 1697 3084 1428 2787 
Q 1159 2491 1159 1978 
L 1159 0 
L 581 0 
L 581 3500 
L 1159 3500 
L 1159 2956 
Q 1366 3272 1645 3428 
Q 1925 3584 2291 3584 
Q 2894 3584 3203 3211 
Q 3513 2838 3513 2113 
z
" transform="scale(0.015625)"/>
       <path id="DejaVuSans-4a" d="M 2906 1791 
Q 2906 2416 2648 2759 
Q 2391 3103 1925 3103 
Q 1463 3103 1205 2759 
Q 947 2416 947 1791 
Q 947 1169 1205 825 
Q 1463 481 1925 481 
Q 2391 481 2648 825 
Q 2906 1169 2906 1791 
z
M 3481 434 
Q 3481 -459 3084 -895 
Q 2688 -1331 1869 -1331 
Q 1566 -1331 1297 -1286 
Q 1028 -1241 775 -1147 
L 775 -588 
Q 1028 -725 1275 -790 
Q 1522 -856 1778 -856 
Q 2344 -856 2625 -561 
Q 2906 -266 2906 331 
L 2906 616 
Q 2728 306 2450 153 
Q 2172 0 1784 0 
Q 1141 0 747 490 
Q 353 981 353 1791 
Q 353 2603 747 3093 
Q 1141 3584 1784 3584 
Q 2172 3584 2450 3431 
Q 2728 3278 2906 2969 
L 2906 3500 
L 3481 3500 
L 3481 434 
z
" transform="scale(0.015625)"/>
       <path id="DejaVuSans-57" d="M 1172 4494 
L 1172 3500 
L 2356 3500 
L 2356 3053 
L 1172 3053 
L 1172 1153 
Q 1172 725 1289 603 
Q 1406 481 1766 481 
L 2356 481 
L 2356 0 
L 1766 0 
Q 1100 0 847 248 
Q 594 497 594 1153 
L 594 3053 
L 172 3053 
L 172 3500 
L 594 3500 
L 594 4494 
L 1172 4494 
z
" transform="scale(0.015625)"/>
       <path id="DejaVuSans-4b" d="M 3513 2113 
L 3513 0 
L 2938 0 
L 2938 2094 
Q 2938 2591 2744 2837 
Q 2550 3084 2163 3084 
Q 1697 3084 1428 2787 
Q 1159 2491 1159 1978 
L 1159 0 
L 581 0 
L 581 4863 
L 1159 4863 
L 1159 2956 
Q 1366 3272 1645 3428 
Q 1925 3584 2291 3584 
Q 2894 3584 3203 3211 
Q 3513 2838 3513 2113 
z
" transform="scale(0.015625)"/>
       <path id="DejaVuSans-3" transform="scale(0.015625)"/>
       <path id="DejaVuSans-3e" d="M 550 4863 
L 1875 4863 
L 1875 4416 
L 1125 4416 
L 1125 -397 
L 1875 -397 
L 1875 -844 
L 550 -844 
L 550 4863 
z
" transform="scale(0.015625)"/>
       <path id="DejaVuSans-87" d="M 2663 5081 
Q 2663 5278 2523 5417 
Q 2384 5556 2188 5556 
Q 1988 5556 1852 5420 
Q 1716 5284 1716 5081 
Q 1716 4884 1853 4746 
Q 1991 4609 2188 4609 
Q 2384 4609 2523 4746 
Q 2663 4884 2663 5081 
z
M 2188 4044 
L 1338 1722 
L 3041 1722 
L 2188 4044 
z
M 1716 4366 
Q 1525 4494 1428 4673 
Q 1331 4853 1331 5081 
Q 1331 5441 1579 5691 
Q 1828 5941 2188 5941 
Q 2544 5941 2795 5689 
Q 3047 5438 3047 5081 
Q 3047 4863 2948 4678 
Q 2850 4494 2663 4366 
L 4325 0 
L 3669 0 
L 3244 1197 
L 1141 1197 
L 716 0 
L 50 0 
L 1716 4366 
z
" transform="scale(0.015625)"/>
       <path id="DejaVuSans-40" d="M 1947 4863 
L 1947 -844 
L 622 -844 
L 622 -397 
L 1369 -397 
L 1369 4416 
L 622 4416 
L 622 4863 
L 1947 4863 
z
" transform="scale(0.015625)"/>
      </defs>
      <use xlink:href="#DejaVuSans-5a"/>
      <use xlink:href="#DejaVuSans-44" transform="translate(81.78125 0)"/>
      <use xlink:href="#DejaVuSans-59" transform="translate(143.0625 0)"/>
      <use xlink:href="#DejaVuSans-48" transform="translate(202.25 0)"/>
      <use xlink:href="#DejaVuSans-4f" transform="translate(263.78125 0)"/>
      <use xlink:href="#DejaVuSans-48" transform="translate(291.5625 0)"/>
      <use xlink:href="#DejaVuSans-51" transform="translate(353.09375 0)"/>
      <use xlink:href="#DejaVuSans-4a" transform="translate(416.46875 0)"/>
      <use xlink:href="#DejaVuSans-57" transform="translate(479.953125 0)"/>
      <use xlink:href="#DejaVuSans-4b" transform="translate(519.15625 0)"/>
      <use xlink:href="#DejaVuSans-3" transform="translate(582.53125 0)"/>
      <use xlink:href="#DejaVuSans-3e" transform="translate(614.3125 0)"/>
      <use xlink:href="#DejaVuSans-87" transform="translate(653.328125 0)"/>
      <use xlink:href="#DejaVuSans-40" transform="translate(721.734375 0)"/>
     </g>
    </g>
   </g>
   <g id="matplotlib.axis_2">
    <g id="ytick_1">
     <g id="line2d_9">
      <defs>
       <path id="m9d849df493" d="M 0 0 
L -3.5 0 
" style="stroke: #000000; stroke-width: 0.8"/>
      </defs>
      <g>
       <use xlink:href="#m9d849df493" x="47.288281" y="218.88" style="stroke: #000000; stroke-width: 0.8"/>
      </g>
     </g>
     <g id="text_10">
      <!-- 0 -->
      <g transform="translate(33.925781 222.678828) scale(0.1 -0.1)">
       <use xlink:href="#DejaVuSans-13"/>
      </g>
     </g>
    </g>
    <g id="ytick_2">
     <g id="line2d_10">
      <g>
       <use xlink:href="#m9d849df493" x="47.288281" y="192.107092" style="stroke: #000000; stroke-width: 0.8"/>
      </g>
     </g>
     <g id="text_11">
      <!-- 100 -->
      <g transform="translate(21.200781 195.90592) scale(0.1 -0.1)">
       <use xlink:href="#DejaVuSans-14"/>
       <use xlink:href="#DejaVuSans-13" transform="translate(63.625 0)"/>
       <use xlink:href="#DejaVuSans-13" transform="translate(127.25 0)"/>
      </g>
     </g>
    </g>
    <g id="ytick_3">
     <g id="line2d_11">
      <g>
       <use xlink:href="#m9d849df493" x="47.288281" y="165.334183" style="stroke: #000000; stroke-width: 0.8"/>
      </g>
     </g>
     <g id="text_12">
      <!-- 200 -->
      <g transform="translate(21.200781 169.133011) scale(0.1 -0.1)">
       <use xlink:href="#DejaVuSans-15"/>
       <use xlink:href="#DejaVuSans-13" transform="translate(63.625 0)"/>
       <use xlink:href="#DejaVuSans-13" transform="translate(127.25 0)"/>
      </g>
     </g>
    </g>
    <g id="ytick_4">
     <g id="line2d_12">
      <g>
       <use xlink:href="#m9d849df493" x="47.288281" y="138.561275" style="stroke: #000000; stroke-width: 0.8"/>
      </g>
     </g>
     <g id="text_13">
      <!-- 300 -->
      <g transform="translate(21.200781 142.360103) scale(0.1 -0.1)">
       <use xlink:href="#DejaVuSans-16"/>
       <use xlink:href="#DejaVuSans-13" transform="translate(63.625 0)"/>
       <use xlink:href="#DejaVuSans-13" transform="translate(127.25 0)"/>
      </g>
     </g>
    </g>
    <g id="ytick_5">
     <g id="line2d_13">
      <g>
       <use xlink:href="#m9d849df493" x="47.288281" y="111.788367" style="stroke: #000000; stroke-width: 0.8"/>
      </g>
     </g>
     <g id="text_14">
      <!-- 400 -->
      <g transform="translate(21.200781 115.587195) scale(0.1 -0.1)">
       <use xlink:href="#DejaVuSans-17"/>
       <use xlink:href="#DejaVuSans-13" transform="translate(63.625 0)"/>
       <use xlink:href="#DejaVuSans-13" transform="translate(127.25 0)"/>
      </g>
     </g>
    </g>
    <g id="ytick_6">
     <g id="line2d_14">
      <g>
       <use xlink:href="#m9d849df493" x="47.288281" y="85.015458" style="stroke: #000000; stroke-width: 0.8"/>
      </g>
     </g>
     <g id="text_15">
      <!-- 500 -->
      <g transform="translate(21.200781 88.814286) scale(0.1 -0.1)">
       <use xlink:href="#DejaVuSans-18"/>
       <use xlink:href="#DejaVuSans-13" transform="translate(63.625 0)"/>
       <use xlink:href="#DejaVuSans-13" transform="translate(127.25 0)"/>
      </g>
     </g>
    </g>
    <g id="ytick_7">
     <g id="line2d_15">
      <g>
       <use xlink:href="#m9d849df493" x="47.288281" y="58.24255" style="stroke: #000000; stroke-width: 0.8"/>
      </g>
     </g>
     <g id="text_16">
      <!-- 600 -->
      <g transform="translate(21.200781 62.041378) scale(0.1 -0.1)">
       <defs>
        <path id="DejaVuSans-19" d="M 2113 2584 
Q 1688 2584 1439 2293 
Q 1191 2003 1191 1497 
Q 1191 994 1439 701 
Q 1688 409 2113 409 
Q 2538 409 2786 701 
Q 3034 994 3034 1497 
Q 3034 2003 2786 2293 
Q 2538 2584 2113 2584 
z
M 3366 4563 
L 3366 3988 
Q 3128 4100 2886 4159 
Q 2644 4219 2406 4219 
Q 1781 4219 1451 3797 
Q 1122 3375 1075 2522 
Q 1259 2794 1537 2939 
Q 1816 3084 2150 3084 
Q 2853 3084 3261 2657 
Q 3669 2231 3669 1497 
Q 3669 778 3244 343 
Q 2819 -91 2113 -91 
Q 1303 -91 875 529 
Q 447 1150 447 2328 
Q 447 3434 972 4092 
Q 1497 4750 2381 4750 
Q 2619 4750 2861 4703 
Q 3103 4656 3366 4563 
z
" transform="scale(0.015625)"/>
       </defs>
       <use xlink:href="#DejaVuSans-19"/>
       <use xlink:href="#DejaVuSans-13" transform="translate(63.625 0)"/>
       <use xlink:href="#DejaVuSans-13" transform="translate(127.25 0)"/>
      </g>
     </g>
    </g>
    <g id="ytick_8">
     <g id="line2d_16">
      <g>
       <use xlink:href="#m9d849df493" x="47.288281" y="31.469641" style="stroke: #000000; stroke-width: 0.8"/>
      </g>
     </g>
     <g id="text_17">
      <!-- 700 -->
      <g transform="translate(21.200781 35.26847) scale(0.1 -0.1)">
       <defs>
        <path id="DejaVuSans-1a" d="M 525 4666 
L 3525 4666 
L 3525 4397 
L 1831 0 
L 1172 0 
L 2766 4134 
L 525 4134 
L 525 4666 
z
" transform="scale(0.015625)"/>
       </defs>
       <use xlink:href="#DejaVuSans-1a"/>
       <use xlink:href="#DejaVuSans-13" transform="translate(63.625 0)"/>
       <use xlink:href="#DejaVuSans-13" transform="translate(127.25 0)"/>
      </g>
     </g>
    </g>
    <g id="text_18">
     <!-- [counts] -->
     <g transform="translate(14.798438 138.6925) rotate(-90) scale(0.1 -0.1)">
      <defs>
       <path id="DejaVuSans-46" d="M 3122 3366 
L 3122 2828 
Q 2878 2963 2633 3030 
Q 2388 3097 2138 3097 
Q 1578 3097 1268 2742 
Q 959 2388 959 1747 
Q 959 1106 1268 751 
Q 1578 397 2138 397 
Q 2388 397 2633 464 
Q 2878 531 3122 666 
L 3122 134 
Q 2881 22 2623 -34 
Q 2366 -91 2075 -91 
Q 1284 -91 818 406 
Q 353 903 353 1747 
Q 353 2603 823 3093 
Q 1294 3584 2113 3584 
Q 2378 3584 2631 3529 
Q 2884 3475 3122 3366 
z
" transform="scale(0.015625)"/>
       <path id="DejaVuSans-52" d="M 1959 3097 
Q 1497 3097 1228 2736 
Q 959 2375 959 1747 
Q 959 1119 1226 758 
Q 1494 397 1959 397 
Q 2419 397 2687 759 
Q 2956 1122 2956 1747 
Q 2956 2369 2687 2733 
Q 2419 3097 1959 3097 
z
M 1959 3584 
Q 2709 3584 3137 3096 
Q 3566 2609 3566 1747 
Q 3566 888 3137 398 
Q 2709 -91 1959 -91 
Q 1206 -91 779 398 
Q 353 888 353 1747 
Q 353 2609 779 3096 
Q 1206 3584 1959 3584 
z
" transform="scale(0.015625)"/>
       <path id="DejaVuSans-58" d="M 544 1381 
L 544 3500 
L 1119 3500 
L 1119 1403 
Q 1119 906 1312 657 
Q 1506 409 1894 409 
Q 2359 409 2629 706 
Q 2900 1003 2900 1516 
L 2900 3500 
L 3475 3500 
L 3475 0 
L 2900 0 
L 2900 538 
Q 2691 219 2414 64 
Q 2138 -91 1772 -91 
Q 1169 -91 856 284 
Q 544 659 544 1381 
z
M 1991 3584 
L 1991 3584 
z
" transform="scale(0.015625)"/>
       <path id="DejaVuSans-56" d="M 2834 3397 
L 2834 2853 
Q 2591 2978 2328 3040 
Q 2066 3103 1784 3103 
Q 1356 3103 1142 2972 
Q 928 2841 928 2578 
Q 928 2378 1081 2264 
Q 1234 2150 1697 2047 
L 1894 2003 
Q 2506 1872 2764 1633 
Q 3022 1394 3022 966 
Q 3022 478 2636 193 
Q 2250 -91 1575 -91 
Q 1294 -91 989 -36 
Q 684 19 347 128 
L 347 722 
Q 666 556 975 473 
Q 1284 391 1588 391 
Q 1994 391 2212 530 
Q 2431 669 2431 922 
Q 2431 1156 2273 1281 
Q 2116 1406 1581 1522 
L 1381 1569 
Q 847 1681 609 1914 
Q 372 2147 372 2553 
Q 372 3047 722 3315 
Q 1072 3584 1716 3584 
Q 2034 3584 2315 3537 
Q 2597 3491 2834 3397 
z
" transform="scale(0.015625)"/>
      </defs>
      <use xlink:href="#DejaVuSans-3e"/>
      <use xlink:href="#DejaVuSans-46" transform="translate(39.015625 0)"/>
      <use xlink:href="#DejaVuSans-52" transform="translate(94 0)"/>
      <use xlink:href="#DejaVuSans-58" transform="translate(155.1875 0)"/>
      <use xlink:href="#DejaVuSans-51" transform="translate(218.5625 0)"/>
      <use xlink:href="#DejaVuSans-57" transform="translate(281.9375 0)"/>
      <use xlink:href="#DejaVuSans-56" transform="translate(321.140625 0)"/>
      <use xlink:href="#DejaVuSans-40" transform="translate(373.234375 0)"/>
     </g>
    </g>
   </g>
   <g id="line2d_17">
    <path d="M 62.506463 218.88 
L 70.115554 218.88 
L 70.115554 216.738167 
L 71.637372 216.738167 
L 71.637372 211.383586 
L 73.15919 211.383586 
L 73.15919 200.942151 
L 74.681009 200.942151 
L 74.681009 193.178008 
L 76.202827 193.178008 
L 76.202827 189.429801 
L 77.724645 189.429801 
L 77.724645 180.059283 
L 79.246463 180.059283 
L 79.246463 168.011474 
L 80.768281 168.011474 
L 80.768281 155.963665 
L 82.290099 155.963665 
L 82.290099 154.357291 
L 83.811918 154.357291 
L 83.811918 139.89992 
L 85.333736 139.89992 
L 85.333736 138.561275 
L 86.855554 138.561275 
L 86.855554 127.584382 
L 88.377372 127.584382 
L 88.377372 113.394741 
L 89.89919 113.394741 
L 89.89919 104.82741 
L 91.421009 104.82741 
L 91.421009 105.095139 
L 92.942827 105.095139 
L 92.942827 95.724622 
L 94.464645 95.724622 
L 94.464645 87.157291 
L 95.986463 87.157291 
L 95.986463 89.834582 
L 97.508281 89.834582 
L 97.508281 63.329402 
L 99.030099 63.329402 
L 99.030099 77.251315 
L 100.551918 77.251315 
L 100.551918 57.171633 
L 102.073736 57.171633 
L 102.073736 56.636175 
L 103.595554 56.636175 
L 103.595554 46.46247 
L 105.117372 46.46247 
L 105.117372 52.084781 
L 106.63919 52.084781 
L 106.63919 44.856096 
L 108.161009 44.856096 
L 108.161009 32.808287 
L 109.682827 32.808287 
L 109.682827 37.895139 
L 111.204645 37.895139 
L 111.204645 25.044143 
L 112.726463 25.044143 
L 112.726463 38.430598 
L 114.248281 38.430598 
L 114.248281 25.579602 
L 115.770099 25.579602 
L 115.770099 22.902311 
L 117.291918 22.902311 
L 117.291918 23.437769 
L 118.813736 23.437769 
L 118.813736 28.256892 
L 120.335554 28.256892 
L 120.335554 19.957291 
L 121.857372 19.957291 
L 121.857372 24.508685 
L 123.37919 24.508685 
L 123.37919 27.989163 
L 124.901009 27.989163 
L 124.901009 33.611474 
L 126.422827 33.611474 
L 126.422827 26.918247 
L 127.944645 26.918247 
L 127.944645 25.847331 
L 129.466463 25.847331 
L 129.466463 29.595538 
L 130.988281 29.595538 
L 130.988281 41.375618 
L 132.510099 41.375618 
L 132.510099 39.769243 
L 134.031918 39.769243 
L 134.031918 46.997928 
L 135.553736 46.997928 
L 135.553736 48.872032 
L 137.075554 48.872032 
L 137.075554 50.746135 
L 138.597372 50.746135 
L 138.597372 36.288765 
L 140.11919 36.288765 
L 140.11919 47.265657 
L 141.641009 47.265657 
L 141.641009 39.233785 
L 143.162827 39.233785 
L 143.162827 44.052908 
L 144.684645 44.052908 
L 144.684645 59.313466 
L 146.206463 59.313466 
L 146.206463 57.171633 
L 147.728281 57.171633 
L 147.728281 53.691155 
L 149.250099 53.691155 
L 149.250099 57.439363 
L 150.771918 57.439363 
L 150.771918 64.668048 
L 152.293736 64.668048 
L 152.293736 70.825817 
L 153.815554 70.825817 
L 153.815554 60.652112 
L 155.337372 60.652112 
L 155.337372 55.29753 
L 156.85919 55.29753 
L 156.85919 76.715857 
L 158.381009 76.715857 
L 158.381009 63.329402 
L 159.902827 63.329402 
L 159.902827 86.086375 
L 161.424645 86.086375 
L 161.424645 63.864861 
L 162.946463 63.864861 
L 162.946463 72.432191 
L 164.468281 72.432191 
L 164.468281 71.896733 
L 165.990099 71.896733 
L 165.990099 67.880797 
L 167.511918 67.880797 
L 167.511918 66.80988 
L 169.033736 66.80988 
L 169.033736 56.903904 
L 170.555554 56.903904 
L 170.555554 73.503108 
L 172.077372 73.503108 
L 172.077372 70.558088 
L 173.59919 70.558088 
L 173.59919 81.267251 
L 175.121009 81.267251 
L 175.121009 79.393147 
L 176.642827 79.393147 
L 176.642827 68.148526 
L 178.164645 68.148526 
L 178.164645 80.731793 
L 179.686463 80.731793 
L 179.686463 79.660876 
L 181.208281 79.660876 
L 181.208281 86.889562 
L 182.730099 86.889562 
L 182.730099 106.969243 
L 184.251918 106.969243 
L 184.251918 104.82741 
L 185.773736 104.82741 
L 185.773736 102.15012 
L 187.295554 102.15012 
L 187.295554 123.836175 
L 188.817372 123.836175 
L 188.817372 123.300717 
L 191.861009 123.300717 
L 191.861009 132.403506 
L 193.382827 132.403506 
L 193.382827 143.915857 
L 194.904645 143.915857 
L 194.904645 153.554104 
L 196.426463 153.554104 
L 196.426463 159.444143 
L 197.948281 159.444143 
L 197.948281 158.105498 
L 199.470099 158.105498 
L 199.470099 174.97243 
L 200.991918 174.97243 
L 200.991918 172.295139 
L 202.513736 172.295139 
L 202.513736 191.839363 
L 204.035554 191.839363 
L 204.035554 192.64255 
L 205.557372 192.64255 
L 205.557372 197.461673 
L 207.07919 197.461673 
L 207.07919 202.548526 
L 208.601009 202.548526 
L 208.601009 209.241753 
L 210.122827 209.241753 
L 210.122827 214.864064 
L 211.644645 214.864064 
L 211.644645 216.202709 
L 213.166463 216.202709 
L 213.166463 211.383586 
L 214.688281 211.383586 
L 214.688281 204.958088 
L 216.210099 204.958088 
L 216.210099 202.548526 
L 217.731918 202.548526 
L 217.731918 194.516653 
L 219.253736 194.516653 
L 219.253736 188.358884 
L 220.775554 188.358884 
L 220.775554 185.681594 
L 222.297372 185.681594 
L 222.297372 179.523825 
L 223.81919 179.523825 
L 223.81919 165.869641 
L 225.341009 165.869641 
L 225.341009 170.956494 
L 226.862827 170.956494 
L 226.862827 161.318247 
L 228.384645 161.318247 
L 228.384645 157.302311 
L 229.906463 157.302311 
L 229.906463 154.089562 
L 231.428281 154.089562 
L 231.428281 146.593147 
L 232.950099 146.593147 
L 232.950099 139.632191 
L 234.471918 139.632191 
L 234.471918 135.883984 
L 235.993736 135.883984 
L 235.993736 136.9549 
L 237.515554 136.9549 
L 237.515554 135.080797 
L 239.037372 135.080797 
L 239.037372 128.119841 
L 240.55919 128.119841 
L 240.55919 126.781195 
L 242.081009 126.781195 
L 242.081009 113.394741 
L 243.602827 113.394741 
L 243.602827 116.072032 
L 245.124645 116.072032 
L 245.124645 102.685578 
L 246.646463 102.685578 
L 246.646463 111.520637 
L 248.168281 111.520637 
L 248.168281 106.701514 
L 249.690099 106.701514 
L 249.690099 103.221036 
L 251.211918 103.221036 
L 251.211918 103.488765 
L 252.733736 103.488765 
L 252.733736 106.166056 
L 254.255554 106.166056 
L 254.255554 105.095139 
L 255.777372 105.095139 
L 255.777372 85.015458 
L 257.29919 85.015458 
L 257.29919 85.283187 
L 258.821009 85.283187 
L 258.821009 90.637769 
L 260.342827 90.637769 
L 260.342827 86.086375 
L 261.864645 86.086375 
L 261.864645 90.905498 
L 263.386463 90.905498 
L 263.386463 80.731793 
L 264.908281 80.731793 
L 264.908281 98.134183 
L 266.430099 98.134183 
L 266.430099 92.244143 
L 267.951918 92.244143 
L 267.951918 97.063267 
L 269.473736 97.063267 
L 269.473736 105.630598 
L 270.995554 105.630598 
L 270.995554 100.811474 
L 272.517372 100.811474 
L 272.517372 104.559681 
L 274.03919 104.559681 
L 274.03919 106.701514 
L 275.561009 106.701514 
L 275.561009 95.189163 
L 277.082827 95.189163 
L 277.082827 117.410677 
L 278.604645 117.410677 
L 278.604645 102.417849 
L 280.126463 102.417849 
L 280.126463 114.733386 
L 281.648281 114.733386 
L 281.648281 120.891155 
L 283.170099 120.891155 
L 283.170099 113.394741 
L 284.691918 113.394741 
L 284.691918 123.300717 
L 286.213736 123.300717 
L 286.213736 117.410677 
L 287.735554 117.410677 
L 287.735554 111.788367 
L 289.257372 111.788367 
L 289.257372 116.072032 
L 290.77919 116.072032 
L 290.77919 121.962072 
L 292.301009 121.962072 
L 292.301009 116.60749 
L 293.822827 116.60749 
L 293.822827 131.064861 
L 295.344645 131.064861 
L 295.344645 127.316653 
L 296.866463 127.316653 
L 296.866463 128.655299 
L 298.388281 128.655299 
L 298.388281 131.064861 
L 299.910099 131.064861 
L 299.910099 130.529402 
L 301.431918 130.529402 
L 301.431918 135.348526 
L 302.953736 135.348526 
L 302.953736 134.545339 
L 304.475554 134.545339 
L 304.475554 131.600319 
L 305.997372 131.600319 
L 305.997372 149.805896 
L 307.51919 149.805896 
L 307.51919 145.78996 
L 309.041009 145.78996 
L 309.041009 143.915857 
L 310.562827 143.915857 
L 310.562827 147.664064 
L 312.084645 147.664064 
L 312.084645 156.766853 
L 313.606463 156.766853 
L 313.606463 148.199522 
L 315.128281 148.199522 
L 315.128281 152.483187 
L 316.650099 152.483187 
L 316.650099 141.774024 
L 318.171918 141.774024 
L 318.171918 158.373227 
L 319.693736 158.373227 
L 319.693736 157.57004 
L 321.215554 157.57004 
L 321.215554 161.318247 
L 322.737372 161.318247 
L 322.737372 161.050518 
L 324.25919 161.050518 
L 324.25919 169.885578 
L 325.781009 169.885578 
L 325.781009 165.066454 
L 327.302827 165.066454 
L 327.302827 172.02741 
L 328.824645 172.02741 
L 328.824645 176.043347 
L 330.346463 176.043347 
L 330.346463 178.452908 
L 331.868281 178.452908 
L 331.868281 179.791554 
L 333.390099 179.791554 
L 333.390099 182.468845 
L 334.911918 182.468845 
L 334.911918 188.626614 
L 336.433736 188.626614 
L 336.433736 193.713466 
L 337.955554 193.713466 
L 337.955554 191.303904 
L 339.477372 191.303904 
L 339.477372 201.20988 
L 340.99919 201.20988 
L 340.99919 204.422629 
L 342.521009 204.422629 
L 342.521009 200.406693 
L 344.042827 200.406693 
L 344.042827 206.564462 
L 345.564645 206.564462 
L 345.564645 204.690359 
L 347.086463 204.690359 
L 347.086463 206.296733 
L 348.608281 206.296733 
L 348.608281 208.974024 
L 350.130099 208.974024 
L 350.130099 212.722231 
L 351.651918 212.722231 
L 351.651918 212.186773 
L 353.173736 212.186773 
L 353.173736 214.864064 
L 354.695554 214.864064 
L 354.695554 217.809084 
L 357.73919 217.809084 
L 357.73919 218.88 
L 366.870099 218.88 
L 366.870099 218.88 
" clip-path="url(#pf62b571a49)" style="fill: none; stroke: #1f77b4; stroke-width: 1.5; stroke-linecap: square"/>
   </g>
   <g id="line2d_18">
    <path d="M 62.506463 218.88 
L 70.115554 218.88 
L 70.115554 215.667251 
L 71.637372 215.667251 
L 71.637372 212.186773 
L 73.15919 212.186773 
L 73.15919 201.20988 
L 74.681009 201.20988 
L 74.681009 194.516653 
L 76.202827 194.516653 
L 76.202827 187.287968 
L 77.724645 187.287968 
L 77.724645 180.86247 
L 79.246463 180.86247 
L 79.246463 165.066454 
L 80.768281 165.066454 
L 80.768281 159.979602 
L 82.290099 159.979602 
L 82.290099 150.073625 
L 83.811918 150.073625 
L 83.811918 141.506295 
L 85.333736 141.506295 
L 85.333736 138.293546 
L 86.855554 138.293546 
L 86.855554 131.868048 
L 88.377372 131.868048 
L 88.377372 109.378805 
L 89.89919 109.378805 
L 89.89919 106.433785 
L 91.421009 106.433785 
L 91.421009 104.82741 
L 92.942827 104.82741 
L 92.942827 94.118247 
L 94.464645 94.118247 
L 94.464645 91.173227 
L 95.986463 91.173227 
L 95.986463 84.212271 
L 97.508281 84.212271 
L 97.508281 74.841753 
L 99.030099 74.841753 
L 99.030099 71.361275 
L 100.551918 71.361275 
L 100.551918 54.762072 
L 102.073736 54.762072 
L 102.073736 63.061673 
L 103.595554 63.061673 
L 103.595554 45.659283 
L 105.117372 45.659283 
L 105.117372 42.981992 
L 106.63919 42.981992 
L 106.63919 49.40749 
L 108.161009 49.40749 
L 108.161009 36.288765 
L 109.682827 36.288765 
L 109.682827 34.146932 
L 111.204645 34.146932 
L 111.204645 29.06008 
L 112.726463 29.06008 
L 112.726463 34.95012 
L 114.248281 34.95012 
L 114.248281 17.28 
L 115.770099 17.28 
L 115.770099 27.989163 
L 117.291918 27.989163 
L 117.291918 28.792351 
L 118.813736 28.792351 
L 118.813736 24.240956 
L 120.335554 24.240956 
L 120.335554 25.044143 
L 121.857372 25.044143 
L 121.857372 17.547729 
L 123.37919 17.547729 
L 123.37919 27.185976 
L 124.901009 27.185976 
L 124.901009 36.556494 
L 126.422827 36.556494 
L 126.422827 21.295936 
L 127.944645 21.295936 
L 127.944645 25.311873 
L 129.466463 25.311873 
L 129.466463 32.272829 
L 130.988281 32.272829 
L 130.988281 41.643347 
L 132.510099 41.643347 
L 132.510099 42.178805 
L 134.031918 42.178805 
L 134.031918 51.817052 
L 135.553736 51.817052 
L 135.553736 42.178805 
L 137.075554 42.178805 
L 137.075554 44.052908 
L 138.597372 44.052908 
L 138.597372 40.57243 
L 140.11919 40.57243 
L 140.11919 51.817052 
L 141.641009 51.817052 
L 141.641009 44.856096 
L 143.162827 44.856096 
L 143.162827 44.052908 
L 144.684645 44.052908 
L 144.684645 56.903904 
L 146.206463 56.903904 
L 146.206463 56.100717 
L 147.728281 56.100717 
L 147.728281 51.013865 
L 149.250099 51.013865 
L 149.250099 59.581195 
L 150.771918 59.581195 
L 150.771918 67.880797 
L 152.293736 67.880797 
L 152.293736 61.723028 
L 153.815554 61.723028 
L 153.815554 72.967649 
L 155.337372 72.967649 
L 155.337372 56.100717 
L 156.85919 56.100717 
L 156.85919 67.613068 
L 158.381009 67.613068 
L 158.381009 70.558088 
L 159.902827 70.558088 
L 159.902827 81.267251 
L 161.424645 81.267251 
L 161.424645 72.432191 
L 162.946463 72.432191 
L 162.946463 64.935777 
L 164.468281 64.935777 
L 164.468281 66.80988 
L 165.990099 66.80988 
L 165.990099 71.093546 
L 167.511918 71.093546 
L 167.511918 62.526215 
L 169.033736 62.526215 
L 169.033736 62.258486 
L 170.555554 62.258486 
L 170.555554 68.683984 
L 172.077372 68.683984 
L 172.077372 74.574024 
L 173.59919 74.574024 
L 173.59919 90.102311 
L 175.121009 90.102311 
L 175.121009 66.006693 
L 176.642827 66.006693 
L 176.642827 75.109482 
L 178.164645 75.109482 
L 178.164645 76.715857 
L 179.686463 76.715857 
L 179.686463 81.267251 
L 181.208281 81.267251 
L 181.208281 90.102311 
L 182.730099 90.102311 
L 182.730099 96.795538 
L 184.251918 96.795538 
L 184.251918 106.166056 
L 185.773736 106.166056 
L 185.773736 115.268845 
L 187.295554 115.268845 
L 187.295554 117.142948 
L 188.817372 117.142948 
L 188.817372 125.44255 
L 190.33919 125.44255 
L 190.33919 123.568446 
L 191.861009 123.568446 
L 191.861009 129.993944 
L 193.382827 129.993944 
L 193.382827 143.648127 
L 194.904645 143.648127 
L 194.904645 154.62502 
L 196.426463 154.62502 
L 196.426463 155.695936 
L 197.948281 155.695936 
L 197.948281 161.318247 
L 199.470099 161.318247 
L 199.470099 172.830598 
L 200.991918 172.830598 
L 200.991918 175.240159 
L 202.513736 175.240159 
L 202.513736 190.500717 
L 204.035554 190.500717 
L 204.035554 191.036175 
L 205.557372 191.036175 
L 205.557372 197.461673 
L 207.07919 197.461673 
L 207.07919 204.690359 
L 208.601009 204.690359 
L 208.601009 208.170837 
L 210.122827 208.170837 
L 210.122827 214.060876 
L 211.644645 214.060876 
L 211.644645 216.470438 
L 213.166463 216.470438 
L 213.166463 211.383586 
L 214.688281 211.383586 
L 214.688281 204.1549 
L 216.210099 204.1549 
L 216.210099 201.745339 
L 217.731918 201.745339 
L 217.731918 195.855299 
L 219.253736 195.855299 
L 219.253736 187.555697 
L 222.297372 187.555697 
L 222.297372 177.381992 
L 223.81919 177.381992 
L 223.81919 167.476016 
L 225.341009 167.476016 
L 225.341009 169.617849 
L 226.862827 169.617849 
L 226.862827 159.979602 
L 228.384645 159.979602 
L 228.384645 162.121434 
L 229.906463 162.121434 
L 229.906463 150.876813 
L 231.428281 150.876813 
L 231.428281 147.396335 
L 232.950099 147.396335 
L 232.950099 141.238566 
L 234.471918 141.238566 
L 234.471918 130.797131 
L 235.993736 130.797131 
L 235.993736 138.561275 
L 237.515554 138.561275 
L 237.515554 134.27761 
L 239.037372 134.27761 
L 239.037372 129.726215 
L 240.55919 129.726215 
L 240.55919 124.639363 
L 242.081009 124.639363 
L 242.081009 115.804303 
L 243.602827 115.804303 
L 243.602827 107.77243 
L 245.124645 107.77243 
L 245.124645 112.591554 
L 246.646463 112.591554 
L 246.646463 115.536574 
L 248.168281 115.536574 
L 248.168281 104.024223 
L 249.690099 104.024223 
L 249.690099 102.15012 
L 252.733736 102.15012 
L 252.733736 104.559681 
L 254.255554 104.559681 
L 254.255554 95.456892 
L 255.777372 95.456892 
L 255.777372 89.031394 
L 257.29919 89.031394 
L 257.29919 93.047331 
L 258.821009 93.047331 
L 258.821009 87.960478 
L 260.342827 87.960478 
L 260.342827 86.621833 
L 261.864645 86.621833 
L 261.864645 90.37004 
L 263.386463 90.37004 
L 263.386463 85.818645 
L 264.908281 85.818645 
L 264.908281 90.637769 
L 266.430099 90.637769 
L 266.430099 92.779602 
L 267.951918 92.779602 
L 267.951918 109.111076 
L 269.473736 109.111076 
L 269.473736 98.669641 
L 270.995554 98.669641 
L 270.995554 93.582789 
L 272.517372 93.582789 
L 272.517372 109.914263 
L 274.03919 109.914263 
L 274.03919 96.527809 
L 275.561009 96.527809 
L 275.561009 108.040159 
L 277.082827 108.040159 
L 277.082827 113.66247 
L 278.604645 113.66247 
L 278.604645 107.77243 
L 280.126463 107.77243 
L 280.126463 110.181992 
L 281.648281 110.181992 
L 281.648281 124.103904 
L 283.170099 124.103904 
L 283.170099 118.481594 
L 284.691918 118.481594 
L 284.691918 117.410677 
L 286.213736 117.410677 
L 286.213736 119.820239 
L 287.735554 119.820239 
L 287.735554 116.072032 
L 289.257372 116.072032 
L 289.257372 114.197928 
L 290.77919 114.197928 
L 290.77919 118.749323 
L 292.301009 118.749323 
L 292.301009 117.142948 
L 293.822827 117.142948 
L 293.822827 129.190757 
L 295.344645 129.190757 
L 295.344645 124.907092 
L 296.866463 124.907092 
L 296.866463 130.797131 
L 298.388281 130.797131 
L 298.388281 135.616255 
L 299.910099 135.616255 
L 299.910099 119.017052 
L 301.431918 119.017052 
L 301.431918 140.167649 
L 302.953736 140.167649 
L 302.953736 136.9549 
L 304.475554 136.9549 
L 304.475554 135.080797 
L 305.997372 135.080797 
L 305.997372 144.183586 
L 307.51919 144.183586 
L 307.51919 143.380398 
L 309.041009 143.380398 
L 309.041009 148.467251 
L 310.562827 148.467251 
L 310.562827 146.593147 
L 312.084645 146.593147 
L 312.084645 152.483187 
L 313.606463 152.483187 
L 313.606463 149.805896 
L 315.128281 149.805896 
L 315.128281 149.538167 
L 318.171918 149.538167 
L 318.171918 159.979602 
L 319.693736 159.979602 
L 319.693736 159.711873 
L 321.215554 159.711873 
L 321.215554 156.231394 
L 322.737372 156.231394 
L 322.737372 161.585976 
L 324.25919 161.585976 
L 324.25919 165.601912 
L 325.781009 165.601912 
L 325.781009 166.4051 
L 327.302827 166.4051 
L 327.302827 173.633785 
L 328.824645 173.633785 
L 328.824645 174.97243 
L 330.346463 174.97243 
L 330.346463 181.130199 
L 331.868281 181.130199 
L 331.868281 177.649721 
L 333.390099 177.649721 
L 333.390099 182.201116 
L 334.911918 182.201116 
L 334.911918 186.484781 
L 336.433736 186.484781 
L 336.433736 193.981195 
L 337.955554 193.981195 
L 337.955554 193.713466 
L 339.477372 193.713466 
L 339.477372 200.138964 
L 340.99919 200.138964 
L 340.99919 203.887171 
L 342.521009 203.887171 
L 342.521009 202.280797 
L 344.042827 202.280797 
L 344.042827 205.493546 
L 345.564645 205.493546 
L 345.564645 206.564462 
L 347.086463 206.564462 
L 347.086463 205.493546 
L 348.608281 205.493546 
L 348.608281 209.241753 
L 350.130099 209.241753 
L 350.130099 212.454502 
L 351.651918 212.454502 
L 351.651918 212.186773 
L 353.173736 212.186773 
L 353.173736 215.399522 
L 354.695554 215.399522 
L 354.695554 217.541355 
L 356.217372 217.541355 
L 356.217372 217.273625 
L 357.73919 217.273625 
L 357.73919 217.809084 
L 360.782827 217.809084 
L 360.782827 218.612271 
L 362.304645 218.612271 
L 362.304645 218.88 
L 366.870099 218.88 
L 366.870099 218.88 
" clip-path="url(#pf62b571a49)" style="fill: none; stroke: #ff7f0e; stroke-width: 1.5; stroke-linecap: square"/>
   </g>
   <g id="patch_3">
    <path d="M 47.288281 228.96 
L 47.288281 7.2 
" style="fill: none; stroke: #000000; stroke-width: 0.8; stroke-linejoin: miter; stroke-linecap: square"/>
   </g>
   <g id="patch_4">
    <path d="M 382.088281 228.96 
L 382.088281 7.2 
" style="fill: none; stroke: #000000; stroke-width: 0.8; stroke-linejoin: miter; stroke-linecap: square"/>
   </g>
   <g id="patch_5">
    <path d="M 47.288281 228.96 
L 382.088281 228.96 
" style="fill: none; stroke: #000000; stroke-width: 0.8; stroke-linejoin: miter; stroke-linecap: square"/>
   </g>
   <g id="patch_6">
    <path d="M 47.288281 7.2 
L 382.088281 7.2 
" style="fill: none; stroke: #000000; stroke-width: 0.8; stroke-linejoin: miter; stroke-linecap: square"/>
   </g>
   <g id="legend_1">
    <g id="patch_7">
     <path d="M 278.080469 45.201562 
L 375.088281 45.201562 
Q 377.088281 45.201562 377.088281 43.201562 
L 377.088281 14.2 
Q 377.088281 12.2 375.088281 12.2 
L 278.080469 12.2 
Q 276.080469 12.2 276.080469 14.2 
L 276.080469 43.201562 
Q 276.080469 45.201562 278.080469 45.201562 
z
" style="fill: #ffffff; opacity: 0.8; stroke: #cccccc; stroke-linejoin: miter"/>
    </g>
    <g id="line2d_19">
     <path d="M 280.080469 20.298437 
L 280.080469 20.298437 
L 290.080469 20.298437 
L 290.080469 20.298437 
L 300.080469 20.298437 
" style="fill: none; stroke: #1f77b4; stroke-width: 1.5; stroke-linecap: square"/>
    </g>
    <g id="text_19">
     <!-- wfm -->
     <g transform="translate(308.080469 23.798437) scale(0.1 -0.1)">
      <defs>
       <path id="DejaVuSans-49" d="M 2375 4863 
L 2375 4384 
L 1825 4384 
Q 1516 4384 1395 4259 
Q 1275 4134 1275 3809 
L 1275 3500 
L 2222 3500 
L 2222 3053 
L 1275 3053 
L 1275 0 
L 697 0 
L 697 3053 
L 147 3053 
L 147 3500 
L 697 3500 
L 697 3744 
Q 697 4328 969 4595 
Q 1241 4863 1831 4863 
L 2375 4863 
z
" transform="scale(0.015625)"/>
       <path id="DejaVuSans-50" d="M 3328 2828 
Q 3544 3216 3844 3400 
Q 4144 3584 4550 3584 
Q 5097 3584 5394 3201 
Q 5691 2819 5691 2113 
L 5691 0 
L 5113 0 
L 5113 2094 
Q 5113 2597 4934 2840 
Q 4756 3084 4391 3084 
Q 3944 3084 3684 2787 
Q 3425 2491 3425 1978 
L 3425 0 
L 2847 0 
L 2847 2094 
Q 2847 2600 2669 2842 
Q 2491 3084 2119 3084 
Q 1678 3084 1418 2786 
Q 1159 2488 1159 1978 
L 1159 0 
L 581 0 
L 581 3500 
L 1159 3500 
L 1159 2956 
Q 1356 3278 1631 3431 
Q 1906 3584 2284 3584 
Q 2666 3584 2933 3390 
Q 3200 3197 3328 2828 
z
" transform="scale(0.015625)"/>
      </defs>
      <use xlink:href="#DejaVuSans-5a"/>
      <use xlink:href="#DejaVuSans-49" transform="translate(81.78125 0)"/>
      <use xlink:href="#DejaVuSans-50" transform="translate(116.984375 0)"/>
     </g>
    </g>
    <g id="line2d_20">
     <path d="M 280.080469 35.299219 
L 280.080469 35.299219 
L 290.080469 35.299219 
L 290.080469 35.299219 
L 300.080469 35.299219 
" style="fill: none; stroke: #ff7f0e; stroke-width: 1.5; stroke-linecap: square"/>
    </g>
    <g id="text_20">
     <!-- ground_truth -->
     <g transform="translate(308.080469 38.799219) scale(0.1 -0.1)">
      <defs>
       <path id="DejaVuSans-55" d="M 2631 2963 
Q 2534 3019 2420 3045 
Q 2306 3072 2169 3072 
Q 1681 3072 1420 2755 
Q 1159 2438 1159 1844 
L 1159 0 
L 581 0 
L 581 3500 
L 1159 3500 
L 1159 2956 
Q 1341 3275 1631 3429 
Q 1922 3584 2338 3584 
Q 2397 3584 2469 3576 
Q 2541 3569 2628 3553 
L 2631 2963 
z
" transform="scale(0.015625)"/>
       <path id="DejaVuSans-47" d="M 2906 2969 
L 2906 4863 
L 3481 4863 
L 3481 0 
L 2906 0 
L 2906 525 
Q 2725 213 2448 61 
Q 2172 -91 1784 -91 
Q 1150 -91 751 415 
Q 353 922 353 1747 
Q 353 2572 751 3078 
Q 1150 3584 1784 3584 
Q 2172 3584 2448 3432 
Q 2725 3281 2906 2969 
z
M 947 1747 
Q 947 1113 1208 752 
Q 1469 391 1925 391 
Q 2381 391 2643 752 
Q 2906 1113 2906 1747 
Q 2906 2381 2643 2742 
Q 2381 3103 1925 3103 
Q 1469 3103 1208 2742 
Q 947 2381 947 1747 
z
" transform="scale(0.015625)"/>
       <path id="DejaVuSans-42" d="M 3263 -1063 
L 3263 -1509 
L -63 -1509 
L -63 -1063 
L 3263 -1063 
z
" transform="scale(0.015625)"/>
      </defs>
      <use xlink:href="#DejaVuSans-4a"/>
      <use xlink:href="#DejaVuSans-55" transform="translate(63.484375 0)"/>
      <use xlink:href="#DejaVuSans-52" transform="translate(102.390625 0)"/>
      <use xlink:href="#DejaVuSans-58" transform="translate(163.578125 0)"/>
      <use xlink:href="#DejaVuSans-51" transform="translate(226.953125 0)"/>
      <use xlink:href="#DejaVuSans-47" transform="translate(290.328125 0)"/>
      <use xlink:href="#DejaVuSans-42" transform="translate(353.8125 0)"/>
      <use xlink:href="#DejaVuSans-57" transform="translate(403.8125 0)"/>
      <use xlink:href="#DejaVuSans-55" transform="translate(443.015625 0)"/>
      <use xlink:href="#DejaVuSans-58" transform="translate(484.125 0)"/>
      <use xlink:href="#DejaVuSans-57" transform="translate(547.5 0)"/>
      <use xlink:href="#DejaVuSans-4b" transform="translate(586.703125 0)"/>
     </g>
    </g>
   </g>
  </g>
 </g>
 <defs>
  <clipPath id="pf62b571a49">
   <rect x="47.288281" y="7.2" width="334.8" height="221.76"/>
  </clipPath>
 </defs>
</svg>
