<?xml version="1.0" encoding="utf-8" standalone="no"?>
<!DOCTYPE svg PUBLIC "-//W3C//DTD SVG 1.1//EN"
  "http://www.w3.org/Graphics/SVG/1.1/DTD/svg11.dtd">
<svg xmlns:xlink="http://www.w3.org/1999/xlink" width="402.013281pt" height="268.845156pt" viewBox="0 0 402.013281 268.845156" xmlns="http://www.w3.org/2000/svg" version="1.1">
 <metadata>
  <rdf:RDF xmlns:dc="http://purl.org/dc/elements/1.1/" xmlns:cc="http://creativecommons.org/ns#" xmlns:rdf="http://www.w3.org/1999/02/22-rdf-syntax-ns#">
   <cc:Work>
    <dc:type rdf:resource="http://purl.org/dc/dcmitype/StillImage"/>
    <dc:date>2026-06-30T14:34:34.017916</dc:date>
    <dc:format>image/svg+xml</dc:format>
    <dc:creator>
     <cc:Agent>
      <dc:title>Matplotlib v3.11.0, https://matplotlib.org/</dc:title>
     </cc:Agent>
    </dc:creator>
   </cc:Work>
  </rdf:RDF>
 </metadata>
 <defs>
  <style type="text/css">*{stroke-linejoin: round; stroke-linecap: butt}</style>
 </defs>
 <g id="figure_1">
  <g id="patch_1">
   <path d="M 0 268.845156 
L 402.013281 268.845156 
L 402.013281 0 
L 0 0 
z
" style="fill: #ffffff"/>
  </g>
  <g id="axes_1">
   <g id="patch_2">
    <path d="M 60.013281 228.96 
L 394.813281 228.96 
L 394.813281 7.2 
L 60.013281 7.2 
z
" style="fill: #ffffff"/>
   </g>
   <g id="matplotlib.axis_1">
    <g id="xtick_1">
     <g id="line2d_1">
      <defs>
       <path id="md5c1030297" d="M 0 0 
L 0 3.5 
" style="stroke: #000000; stroke-width: 0.8"/>
      </defs>
      <g>
       <use xlink:href="#md5c1030297" x="78.052413" y="228.96" style="stroke: #000000; stroke-width: 0.8"/>
      </g>
     </g>
     <g id="text_1">
      <!-- 1 -->
      <g transform="translate(74.871163 243.557656) scale(0.1 -0.1)">
       <defs>
        <path id="DejaVuSans-14" d="M 794 531 
L 1825 531 
L 1825 4091 
L 703 3866 
L 703 4441 
L 1819 4666 
L 2450 4666 
L 2450 531 
L 3481 531 
L 3481 0 
L 794 0 
L 794 531 
z
" transform="scale(0.015625)"/>
       </defs>
       <use xlink:href="#DejaVuSans-14"/>
      </g>
     </g>
    </g>
    <g id="xtick_2">
     <g id="line2d_2">
      <g>
       <use xlink:href="#md5c1030297" x="131.169976" y="228.96" style="stroke: #000000; stroke-width: 0.8"/>
      </g>
     </g>
     <g id="text_2">
      <!-- 2 -->
      <g transform="translate(127.988726 243.557656) scale(0.1 -0.1)">
       <defs>
        <path id="DejaVuSans-15" d="M 1228 531 
L 3431 531 
L 3431 0 
L 469 0 
L 469 531 
Q 828 903 1448 1529 
Q 2069 2156 2228 2338 
Q 2531 2678 2651 2914 
Q 2772 3150 2772 3378 
Q 2772 3750 2511 3984 
Q 2250 4219 1831 4219 
Q 1534 4219 1204 4116 
Q 875 4013 500 3803 
L 500 4441 
Q 881 4594 1212 4672 
Q 1544 4750 1819 4750 
Q 2544 4750 2975 4387 
Q 3406 4025 3406 3419 
Q 3406 3131 3298 2873 
Q 3191 2616 2906 2266 
Q 2828 2175 2409 1742 
Q 1991 1309 1228 531 
z
" transform="scale(0.015625)"/>
       </defs>
       <use xlink:href="#DejaVuSans-15"/>
      </g>
     </g>
    </g>
    <g id="xtick_3">
     <g id="line2d_3">
      <g>
       <use xlink:href="#md5c1030297" x="184.287539" y="228.96" style="stroke: #000000; stroke-width: 0.8"/>
      </g>
     </g>
     <g id="text_3">
      <!-- 3 -->
      <g transform="translate(181.106289 243.557656) scale(0.1 -0.1)">
       <defs>
        <path id="DejaVuSans-16" d="M 2597 2516 
Q 3050 2419 3304 2112 
Q 3559 1806 3559 1356 
Q 3559 666 3084 287 
Q 2609 -91 1734 -91 
Q 1441 -91 1130 -33 
Q 819 25 488 141 
L 488 750 
Q 750 597 1062 519 
Q 1375 441 1716 441 
Q 2309 441 2620 675 
Q 2931 909 2931 1356 
Q 2931 1769 2642 2001 
Q 2353 2234 1838 2234 
L 1294 2234 
L 1294 2753 
L 1863 2753 
Q 2328 2753 2575 2939 
Q 2822 3125 2822 3475 
Q 2822 3834 2567 4026 
Q 2313 4219 1838 4219 
Q 1578 4219 1281 4162 
Q 984 4106 628 3988 
L 628 4550 
Q 988 4650 1302 4700 
Q 1616 4750 1894 4750 
Q 2613 4750 3031 4423 
Q 3450 4097 3450 3541 
Q 3450 3153 3228 2886 
Q 3006 2619 2597 2516 
z
" transform="scale(0.015625)"/>
       </defs>
       <use xlink:href="#DejaVuSans-16"/>
      </g>
     </g>
    </g>
    <g id="xtick_4">
     <g id="line2d_4">
      <g>
       <use xlink:href="#md5c1030297" x="237.405102" y="228.96" style="stroke: #000000; stroke-width: 0.8"/>
      </g>
     </g>
     <g id="text_4">
      <!-- 4 -->
      <g transform="translate(234.223852 243.557656) scale(0.1 -0.1)">
       <defs>
        <path id="DejaVuSans-17" d="M 2419 4116 
L 825 1625 
L 2419 1625 
L 2419 4116 
z
M 2253 4666 
L 3047 4666 
L 3047 1625 
L 3713 1625 
L 3713 1100 
L 3047 1100 
L 3047 0 
L 2419 0 
L 2419 1100 
L 313 1100 
L 313 1709 
L 2253 4666 
z
" transform="scale(0.015625)"/>
       </defs>
       <use xlink:href="#DejaVuSans-17"/>
      </g>
     </g>
    </g>
    <g id="xtick_5">
     <g id="line2d_5">
      <g>
       <use xlink:href="#md5c1030297" x="290.522665" y="228.96" style="stroke: #000000; stroke-width: 0.8"/>
      </g>
     </g>
     <g id="text_5">
      <!-- 5 -->
      <g transform="translate(287.341415 243.557656) scale(0.1 -0.1)">
       <defs>
        <path id="DejaVuSans-18" d="M 691 4666 
L 3169 4666 
L 3169 4134 
L 1269 4134 
L 1269 2991 
Q 1406 3038 1543 3061 
Q 1681 3084 1819 3084 
Q 2600 3084 3056 2656 
Q 3513 2228 3513 1497 
Q 3513 744 3044 326 
Q 2575 -91 1722 -91 
Q 1428 -91 1123 -41 
Q 819 9 494 109 
L 494 744 
Q 775 591 1075 516 
Q 1375 441 1709 441 
Q 2250 441 2565 725 
Q 2881 1009 2881 1497 
Q 2881 1984 2565 2268 
Q 2250 2553 1709 2553 
Q 1456 2553 1204 2497 
Q 953 2441 691 2322 
L 691 4666 
z
" transform="scale(0.015625)"/>
       </defs>
       <use xlink:href="#DejaVuSans-18"/>
      </g>
     </g>
    </g>
    <g id="xtick_6">
     <g id="line2d_6">
      <g>
       <use xlink:href="#md5c1030297" x="343.640229" y="228.96" style="stroke: #000000; stroke-width: 0.8"/>
      </g>
     </g>
     <g id="text_6">
      <!-- 6 -->
      <g transform="translate(340.458979 243.557656) scale(0.1 -0.1)">
       <defs>
        <path id="DejaVuSans-19" d="M 2113 2584 
Q 1688 2584 1439 2293 
Q 1191 2003 1191 1497 
Q 1191 994 1439 701 
Q 1688 409 2113 409 
Q 2538 409 2786 701 
Q 3034 994 3034 1497 
Q 3034 2003 2786 2293 
Q 2538 2584 2113 2584 
z
M 3366 4563 
L 3366 3988 
Q 3128 4100 2886 4159 
Q 2644 4219 2406 4219 
Q 1781 4219 1451 3797 
Q 1122 3375 1075 2522 
Q 1259 2794 1537 2939 
Q 1816 3084 2150 3084 
Q 2853 3084 3261 2657 
Q 3669 2231 3669 1497 
Q 3669 778 3244 343 
Q 2819 -91 2113 -91 
Q 1303 -91 875 529 
Q 447 1150 447 2328 
Q 447 3434 972 4092 
Q 1497 4750 2381 4750 
Q 2619 4750 2861 4703 
Q 3103 4656 3366 4563 
z
" transform="scale(0.015625)"/>
       </defs>
       <use xlink:href="#DejaVuSans-19"/>
      </g>
     </g>
    </g>
    <g id="text_7">
     <!-- wavelength [Å] -->
     <g transform="translate(189.375781 259.242812) scale(0.1 -0.1)">
      <defs>
       <path id="DejaVuSans-5a" d="M 269 3500 
L 844 3500 
L 1563 769 
L 2278 3500 
L 2956 3500 
L 3675 769 
L 4391 3500 
L 4966 3500 
L 4050 0 
L 3372 0 
L 2619 2869 
L 1863 0 
L 1184 0 
L 269 3500 
z
" transform="scale(0.015625)"/>
       <path id="DejaVuSans-44" d="M 2194 1759 
Q 1497 1759 1228 1600 
Q 959 1441 959 1056 
Q 959 750 1161 570 
Q 1363 391 1709 391 
Q 2188 391 2477 730 
Q 2766 1069 2766 1631 
L 2766 1759 
L 2194 1759 
z
M 3341 1997 
L 3341 0 
L 2766 0 
L 2766 531 
Q 2569 213 2275 61 
Q 1981 -91 1556 -91 
Q 1019 -91 701 211 
Q 384 513 384 1019 
Q 384 1609 779 1909 
Q 1175 2209 1959 2209 
L 2766 2209 
L 2766 2266 
Q 2766 2663 2505 2880 
Q 2244 3097 1772 3097 
Q 1472 3097 1187 3025 
Q 903 2953 641 2809 
L 641 3341 
Q 956 3463 1253 3523 
Q 1550 3584 1831 3584 
Q 2591 3584 2966 3190 
Q 3341 2797 3341 1997 
z
" transform="scale(0.015625)"/>
       <path id="DejaVuSans-59" d="M 191 3500 
L 800 3500 
L 1894 563 
L 2988 3500 
L 3597 3500 
L 2284 0 
L 1503 0 
L 191 3500 
z
" transform="scale(0.015625)"/>
       <path id="DejaVuSans-48" d="M 3597 1894 
L 3597 1613 
L 953 1613 
Q 991 1019 1311 708 
Q 1631 397 2203 397 
Q 2534 397 2845 478 
Q 3156 559 3463 722 
L 3463 178 
Q 3153 47 2828 -22 
Q 2503 -91 2169 -91 
Q 1331 -91 842 396 
Q 353 884 353 1716 
Q 353 2575 817 3079 
Q 1281 3584 2069 3584 
Q 2775 3584 3186 3129 
Q 3597 2675 3597 1894 
z
M 3022 2063 
Q 3016 2534 2758 2815 
Q 2500 3097 2075 3097 
Q 1594 3097 1305 2825 
Q 1016 2553 972 2059 
L 3022 2063 
z
" transform="scale(0.015625)"/>
       <path id="DejaVuSans-4f" d="M 603 4863 
L 1178 4863 
L 1178 0 
L 603 0 
L 603 4863 
z
" transform="scale(0.015625)"/>
       <path id="DejaVuSans-51" d="M 3513 2113 
L 3513 0 
L 2938 0 
L 2938 2094 
Q 2938 2591 2744 2837 
Q 2550 3084 2163 3084 
Q 1697 3084 1428 2787 
Q 1159 2491 1159 1978 
L 1159 0 
L 581 0 
L 581 3500 
L 1159 3500 
L 1159 2956 
Q 1366 3272 1645 3428 
Q 1925 3584 2291 3584 
Q 2894 3584 3203 3211 
Q 3513 2838 3513 2113 
z
" transform="scale(0.015625)"/>
       <path id="DejaVuSans-4a" d="M 2906 1791 
Q 2906 2416 2648 2759 
Q 2391 3103 1925 3103 
Q 1463 3103 1205 2759 
Q 947 2416 947 1791 
Q 947 1169 1205 825 
Q 1463 481 1925 481 
Q 2391 481 2648 825 
Q 2906 1169 2906 1791 
z
M 3481 434 
Q 3481 -459 3084 -895 
Q 2688 -1331 1869 -1331 
Q 1566 -1331 1297 -1286 
Q 1028 -1241 775 -1147 
L 775 -588 
Q 1028 -725 1275 -790 
Q 1522 -856 1778 -856 
Q 2344 -856 2625 -561 
Q 2906 -266 2906 331 
L 2906 616 
Q 2728 306 2450 153 
Q 2172 0 1784 0 
Q 1141 0 747 490 
Q 353 981 353 1791 
Q 353 2603 747 3093 
Q 1141 3584 1784 3584 
Q 2172 3584 2450 3431 
Q 2728 3278 2906 2969 
L 2906 3500 
L 3481 3500 
L 3481 434 
z
" transform="scale(0.015625)"/>
       <path id="DejaVuSans-57" d="M 1172 4494 
L 1172 3500 
L 2356 3500 
L 2356 3053 
L 1172 3053 
L 1172 1153 
Q 1172 725 1289 603 
Q 1406 481 1766 481 
L 2356 481 
L 2356 0 
L 1766 0 
Q 1100 0 847 248 
Q 594 497 594 1153 
L 594 3053 
L 172 3053 
L 172 3500 
L 594 3500 
L 594 4494 
L 1172 4494 
z
" transform="scale(0.015625)"/>
       <path id="DejaVuSans-4b" d="M 3513 2113 
L 3513 0 
L 2938 0 
L 2938 2094 
Q 2938 2591 2744 2837 
Q 2550 3084 2163 3084 
Q 1697 3084 1428 2787 
Q 1159 2491 1159 1978 
L 1159 0 
L 581 0 
L 581 4863 
L 1159 4863 
L 1159 2956 
Q 1366 3272 1645 3428 
Q 1925 3584 2291 3584 
Q 2894 3584 3203 3211 
Q 3513 2838 3513 2113 
z
" transform="scale(0.015625)"/>
       <path id="DejaVuSans-3" transform="scale(0.015625)"/>
       <path id="DejaVuSans-3e" d="M 550 4863 
L 1875 4863 
L 1875 4416 
L 1125 4416 
L 1125 -397 
L 1875 -397 
L 1875 -844 
L 550 -844 
L 550 4863 
z
" transform="scale(0.015625)"/>
       <path id="DejaVuSans-87" d="M 2663 5081 
Q 2663 5278 2523 5417 
Q 2384 5556 2188 5556 
Q 1988 5556 1852 5420 
Q 1716 5284 1716 5081 
Q 1716 4884 1853 4746 
Q 1991 4609 2188 4609 
Q 2384 4609 2523 4746 
Q 2663 4884 2663 5081 
z
M 2188 4044 
L 1338 1722 
L 3041 1722 
L 2188 4044 
z
M 1716 4366 
Q 1525 4494 1428 4673 
Q 1331 4853 1331 5081 
Q 1331 5441 1579 5691 
Q 1828 5941 2188 5941 
Q 2544 5941 2795 5689 
Q 3047 5438 3047 5081 
Q 3047 4863 2948 4678 
Q 2850 4494 2663 4366 
L 4325 0 
L 3669 0 
L 3244 1197 
L 1141 1197 
L 716 0 
L 50 0 
L 1716 4366 
z
" transform="scale(0.015625)"/>
       <path id="DejaVuSans-40" d="M 1947 4863 
L 1947 -844 
L 622 -844 
L 622 -397 
L 1369 -397 
L 1369 4416 
L 622 4416 
L 622 4863 
L 1947 4863 
z
" transform="scale(0.015625)"/>
      </defs>
      <use xlink:href="#DejaVuSans-5a"/>
      <use xlink:href="#DejaVuSans-44" transform="translate(81.78125 0)"/>
      <use xlink:href="#DejaVuSans-59" transform="translate(143.0625 0)"/>
      <use xlink:href="#DejaVuSans-48" transform="translate(202.25 0)"/>
      <use xlink:href="#DejaVuSans-4f" transform="translate(263.78125 0)"/>
      <use xlink:href="#DejaVuSans-48" transform="translate(291.5625 0)"/>
      <use xlink:href="#DejaVuSans-51" transform="translate(353.09375 0)"/>
      <use xlink:href="#DejaVuSans-4a" transform="translate(416.46875 0)"/>
      <use xlink:href="#DejaVuSans-57" transform="translate(479.953125 0)"/>
      <use xlink:href="#DejaVuSans-4b" transform="translate(519.15625 0)"/>
      <use xlink:href="#DejaVuSans-3" transform="translate(582.53125 0)"/>
      <use xlink:href="#DejaVuSans-3e" transform="translate(614.3125 0)"/>
      <use xlink:href="#DejaVuSans-87" transform="translate(653.328125 0)"/>
      <use xlink:href="#DejaVuSans-40" transform="translate(721.734375 0)"/>
     </g>
    </g>
   </g>
   <g id="matplotlib.axis_2">
    <g id="ytick_1">
     <g id="line2d_7">
      <defs>
       <path id="m0d8aace8cc" d="M 0 0 
L -3.5 0 
" style="stroke: #000000; stroke-width: 0.8"/>
      </defs>
      <g>
       <use xlink:href="#m0d8aace8cc" x="60.013281" y="218.88" style="stroke: #000000; stroke-width: 0.8"/>
      </g>
     </g>
     <g id="text_8">
      <!-- 0 -->
      <g transform="translate(46.650781 222.678828) scale(0.1 -0.1)">
       <defs>
        <path id="DejaVuSans-13" d="M 2034 4250 
Q 1547 4250 1301 3770 
Q 1056 3291 1056 2328 
Q 1056 1369 1301 889 
Q 1547 409 2034 409 
Q 2525 409 2770 889 
Q 3016 1369 3016 2328 
Q 3016 3291 2770 3770 
Q 2525 4250 2034 4250 
z
M 2034 4750 
Q 2819 4750 3233 4129 
Q 3647 3509 3647 2328 
Q 3647 1150 3233 529 
Q 2819 -91 2034 -91 
Q 1250 -91 836 529 
Q 422 1150 422 2328 
Q 422 3509 836 4129 
Q 1250 4750 2034 4750 
z
" transform="scale(0.015625)"/>
       </defs>
       <use xlink:href="#DejaVuSans-13"/>
      </g>
     </g>
    </g>
    <g id="ytick_2">
     <g id="line2d_8">
      <g>
       <use xlink:href="#m0d8aace8cc" x="60.013281" y="179.779922" style="stroke: #000000; stroke-width: 0.8"/>
      </g>
     </g>
     <g id="text_9">
      <!-- 2000 -->
      <g transform="translate(27.563281 183.578751) scale(0.1 -0.1)">
       <use xlink:href="#DejaVuSans-15"/>
       <use xlink:href="#DejaVuSans-13" transform="translate(63.625 0)"/>
       <use xlink:href="#DejaVuSans-13" transform="translate(127.25 0)"/>
       <use xlink:href="#DejaVuSans-13" transform="translate(190.875 0)"/>
      </g>
     </g>
    </g>
    <g id="ytick_3">
     <g id="line2d_9">
      <g>
       <use xlink:href="#m0d8aace8cc" x="60.013281" y="140.679845" style="stroke: #000000; stroke-width: 0.8"/>
      </g>
     </g>
     <g id="text_10">
      <!-- 4000 -->
      <g transform="translate(27.563281 144.478673) scale(0.1 -0.1)">
       <use xlink:href="#DejaVuSans-17"/>
       <use xlink:href="#DejaVuSans-13" transform="translate(63.625 0)"/>
       <use xlink:href="#DejaVuSans-13" transform="translate(127.25 0)"/>
       <use xlink:href="#DejaVuSans-13" transform="translate(190.875 0)"/>
      </g>
     </g>
    </g>
    <g id="ytick_4">
     <g id="line2d_10">
      <g>
       <use xlink:href="#m0d8aace8cc" x="60.013281" y="101.579767" style="stroke: #000000; stroke-width: 0.8"/>
      </g>
     </g>
     <g id="text_11">
      <!-- 6000 -->
      <g transform="translate(27.563281 105.378595) scale(0.1 -0.1)">
       <use xlink:href="#DejaVuSans-19"/>
       <use xlink:href="#DejaVuSans-13" transform="translate(63.625 0)"/>
       <use xlink:href="#DejaVuSans-13" transform="translate(127.25 0)"/>
       <use xlink:href="#DejaVuSans-13" transform="translate(190.875 0)"/>
      </g>
     </g>
    </g>
    <g id="ytick_5">
     <g id="line2d_11">
      <g>
       <use xlink:href="#m0d8aace8cc" x="60.013281" y="62.47969" style="stroke: #000000; stroke-width: 0.8"/>
      </g>
     </g>
     <g id="text_12">
      <!-- 8000 -->
      <g transform="translate(27.563281 66.278518) scale(0.1 -0.1)">
       <defs>
        <path id="DejaVuSans-1b" d="M 2034 2216 
Q 1584 2216 1326 1975 
Q 1069 1734 1069 1313 
Q 1069 891 1326 650 
Q 1584 409 2034 409 
Q 2484 409 2743 651 
Q 3003 894 3003 1313 
Q 3003 1734 2745 1975 
Q 2488 2216 2034 2216 
z
M 1403 2484 
Q 997 2584 770 2862 
Q 544 3141 544 3541 
Q 544 4100 942 4425 
Q 1341 4750 2034 4750 
Q 2731 4750 3128 4425 
Q 3525 4100 3525 3541 
Q 3525 3141 3298 2862 
Q 3072 2584 2669 2484 
Q 3125 2378 3379 2068 
Q 3634 1759 3634 1313 
Q 3634 634 3220 271 
Q 2806 -91 2034 -91 
Q 1263 -91 848 271 
Q 434 634 434 1313 
Q 434 1759 690 2068 
Q 947 2378 1403 2484 
z
M 1172 3481 
Q 1172 3119 1398 2916 
Q 1625 2713 2034 2713 
Q 2441 2713 2670 2916 
Q 2900 3119 2900 3481 
Q 2900 3844 2670 4047 
Q 2441 4250 2034 4250 
Q 1625 4250 1398 4047 
Q 1172 3844 1172 3481 
z
" transform="scale(0.015625)"/>
       </defs>
       <use xlink:href="#DejaVuSans-1b"/>
       <use xlink:href="#DejaVuSans-13" transform="translate(63.625 0)"/>
       <use xlink:href="#DejaVuSans-13" transform="translate(127.25 0)"/>
       <use xlink:href="#DejaVuSans-13" transform="translate(190.875 0)"/>
      </g>
     </g>
    </g>
    <g id="ytick_6">
     <g id="line2d_12">
      <g>
       <use xlink:href="#m0d8aace8cc" x="60.013281" y="23.379612" style="stroke: #000000; stroke-width: 0.8"/>
      </g>
     </g>
     <g id="text_13">
      <!-- 10000 -->
      <g transform="translate(21.200781 27.17844) scale(0.1 -0.1)">
       <use xlink:href="#DejaVuSans-14"/>
       <use xlink:href="#DejaVuSans-13" transform="translate(63.625 0)"/>
       <use xlink:href="#DejaVuSans-13" transform="translate(127.25 0)"/>
       <use xlink:href="#DejaVuSans-13" transform="translate(190.875 0)"/>
       <use xlink:href="#DejaVuSans-13" transform="translate(254.5 0)"/>
      </g>
     </g>
    </g>
    <g id="text_14">
     <!-- [counts] -->
     <g transform="translate(14.798438 138.6925) rotate(-90) scale(0.1 -0.1)">
      <defs>
       <path id="DejaVuSans-46" d="M 3122 3366 
L 3122 2828 
Q 2878 2963 2633 3030 
Q 2388 3097 2138 3097 
Q 1578 3097 1268 2742 
Q 959 2388 959 1747 
Q 959 1106 1268 751 
Q 1578 397 2138 397 
Q 2388 397 2633 464 
Q 2878 531 3122 666 
L 3122 134 
Q 2881 22 2623 -34 
Q 2366 -91 2075 -91 
Q 1284 -91 818 406 
Q 353 903 353 1747 
Q 353 2603 823 3093 
Q 1294 3584 2113 3584 
Q 2378 3584 2631 3529 
Q 2884 3475 3122 3366 
z
" transform="scale(0.015625)"/>
       <path id="DejaVuSans-52" d="M 1959 3097 
Q 1497 3097 1228 2736 
Q 959 2375 959 1747 
Q 959 1119 1226 758 
Q 1494 397 1959 397 
Q 2419 397 2687 759 
Q 2956 1122 2956 1747 
Q 2956 2369 2687 2733 
Q 2419 3097 1959 3097 
z
M 1959 3584 
Q 2709 3584 3137 3096 
Q 3566 2609 3566 1747 
Q 3566 888 3137 398 
Q 2709 -91 1959 -91 
Q 1206 -91 779 398 
Q 353 888 353 1747 
Q 353 2609 779 3096 
Q 1206 3584 1959 3584 
z
" transform="scale(0.015625)"/>
       <path id="DejaVuSans-58" d="M 544 1381 
L 544 3500 
L 1119 3500 
L 1119 1403 
Q 1119 906 1312 657 
Q 1506 409 1894 409 
Q 2359 409 2629 706 
Q 2900 1003 2900 1516 
L 2900 3500 
L 3475 3500 
L 3475 0 
L 2900 0 
L 2900 538 
Q 2691 219 2414 64 
Q 2138 -91 1772 -91 
Q 1169 -91 856 284 
Q 544 659 544 1381 
z
M 1991 3584 
L 1991 3584 
z
" transform="scale(0.015625)"/>
       <path id="DejaVuSans-56" d="M 2834 3397 
L 2834 2853 
Q 2591 2978 2328 3040 
Q 2066 3103 1784 3103 
Q 1356 3103 1142 2972 
Q 928 2841 928 2578 
Q 928 2378 1081 2264 
Q 1234 2150 1697 2047 
L 1894 2003 
Q 2506 1872 2764 1633 
Q 3022 1394 3022 966 
Q 3022 478 2636 193 
Q 2250 -91 1575 -91 
Q 1294 -91 989 -36 
Q 684 19 347 128 
L 347 722 
Q 666 556 975 473 
Q 1284 391 1588 391 
Q 1994 391 2212 530 
Q 2431 669 2431 922 
Q 2431 1156 2273 1281 
Q 2116 1406 1581 1522 
L 1381 1569 
Q 847 1681 609 1914 
Q 372 2147 372 2553 
Q 372 3047 722 3315 
Q 1072 3584 1716 3584 
Q 2034 3584 2315 3537 
Q 2597 3491 2834 3397 
z
" transform="scale(0.015625)"/>
      </defs>
      <use xlink:href="#DejaVuSans-3e"/>
      <use xlink:href="#DejaVuSans-46" transform="translate(39.015625 0)"/>
      <use xlink:href="#DejaVuSans-52" transform="translate(94 0)"/>
      <use xlink:href="#DejaVuSans-58" transform="translate(155.1875 0)"/>
      <use xlink:href="#DejaVuSans-51" transform="translate(218.5625 0)"/>
      <use xlink:href="#DejaVuSans-57" transform="translate(281.9375 0)"/>
      <use xlink:href="#DejaVuSans-56" transform="translate(321.140625 0)"/>
      <use xlink:href="#DejaVuSans-40" transform="translate(373.234375 0)"/>
     </g>
    </g>
   </g>
   <g id="line2d_13">
    <path d="M 82.762773 218.86045 
L 90.730407 218.8409 
L 90.730407 218.74315 
L 92.323934 218.74315 
L 92.323934 218.528099 
L 93.917461 218.528099 
L 93.917461 218.6454 
L 95.510988 218.6454 
L 95.510988 218.449899 
L 100.291568 218.410799 
L 100.291568 218.313049 
L 101.885095 218.313049 
L 101.885095 218.488999 
L 103.478622 218.488999 
L 103.478622 218.137099 
L 105.072149 218.137099 
L 105.072149 217.531047 
L 108.259203 217.550597 
L 108.259203 216.768596 
L 113.039784 216.729496 
L 113.039784 216.279845 
L 114.633311 216.279845 
L 114.633311 215.458743 
L 116.226837 215.458743 
L 116.226837 214.950442 
L 117.820364 214.950442 
L 117.820364 214.461691 
L 119.413891 214.461691 
L 119.413891 213.445089 
L 121.007418 213.445089 
L 121.007418 211.548735 
L 122.600945 211.548735 
L 122.600945 209.085431 
L 124.194472 209.085431 
L 124.194472 209.711032 
L 125.787999 209.711032 
L 125.787999 204.862622 
L 127.381526 204.862622 
L 127.381526 205.058123 
L 128.975053 205.058123 
L 128.975053 199.916462 
L 130.568579 199.916462 
L 130.568579 197.257657 
L 132.162106 197.257657 
L 132.162106 189.730892 
L 133.755633 189.730892 
L 133.755633 186.583336 
L 135.34916 186.583336 
L 135.34916 181.109325 
L 136.942687 181.109325 
L 136.942687 174.051761 
L 138.536214 174.051761 
L 138.536214 171.549356 
L 140.129741 171.549356 
L 140.129741 165.645244 
L 141.723268 165.645244 
L 141.723268 151.451916 
L 143.316795 151.451916 
L 143.316795 151.999317 
L 144.910321 151.999317 
L 144.910321 142.282948 
L 146.503848 142.282948 
L 146.503848 139.076742 
L 148.097375 139.076742 
L 148.097375 123.847261 
L 149.690902 123.847261 
L 149.690902 119.468053 
L 151.284429 119.468053 
L 151.284429 104.844624 
L 152.877956 104.844624 
L 152.877956 94.150753 
L 154.471483 94.150753 
L 154.471483 86.311187 
L 156.06501 86.311187 
L 156.06501 76.008317 
L 157.658537 76.008317 
L 157.658537 71.277207 
L 159.252063 71.277207 
L 159.252063 54.073173 
L 160.84559 54.073173 
L 160.84559 57.59218 
L 162.439117 57.59218 
L 162.439117 48.129961 
L 164.032644 48.129961 
L 164.032644 43.437952 
L 165.626171 43.437952 
L 165.626171 43.144701 
L 167.219698 43.144701 
L 167.219698 38.863243 
L 168.813225 38.863243 
L 168.813225 31.453778 
L 170.406752 31.453778 
L 170.406752 33.936633 
L 172.000279 33.936633 
L 172.000279 23.477362 
L 173.593806 23.477362 
L 173.593806 38.472242 
L 175.187332 38.472242 
L 175.187332 24.611265 
L 176.780859 24.611265 
L 176.780859 38.257192 
L 178.374386 38.257192 
L 178.374386 27.60242 
L 179.967913 27.60242 
L 179.967913 22.22616 
L 181.56144 22.22616 
L 181.56144 37.39699 
L 183.154967 37.39699 
L 183.154967 21.600559 
L 184.748494 21.600559 
L 184.748494 24.396214 
L 186.342021 24.396214 
L 186.342021 23.164562 
L 187.935548 23.164562 
L 187.935548 31.531978 
L 189.529074 31.531978 
L 189.529074 21.991559 
L 191.122601 21.991559 
L 191.122601 18.296602 
L 192.716128 18.296602 
L 192.716128 36.849589 
L 194.309655 36.849589 
L 194.309655 32.60723 
L 195.903182 32.60723 
L 195.903182 27.817471 
L 197.496709 27.817471 
L 197.496709 31.062777 
L 199.090236 31.062777 
L 199.090236 26.233918 
L 200.683763 26.233918 
L 200.683763 17.28 
L 202.27729 17.28 
L 202.27729 43.340202 
L 203.870816 43.340202 
L 203.870816 35.148735 
L 205.464343 35.148735 
L 205.464343 37.24059 
L 207.05787 37.24059 
L 207.05787 49.342064 
L 208.651397 49.342064 
L 208.651397 56.907929 
L 210.244924 56.907929 
L 210.244924 47.074259 
L 211.838451 47.074259 
L 211.838451 64.336943 
L 213.431978 64.336943 
L 213.431978 53.643072 
L 215.025505 53.643072 
L 215.025505 62.49924 
L 216.619032 62.49924 
L 216.619032 83.065881 
L 218.212558 83.065881 
L 218.212558 70.417005 
L 219.806085 70.417005 
L 219.806085 75.988766 
L 221.399612 75.988766 
L 221.399612 76.340667 
L 222.993139 76.340667 
L 222.993139 89.927944 
L 224.586666 89.927944 
L 224.586666 71.687758 
L 226.180193 71.687758 
L 226.180193 95.441055 
L 227.77372 95.441055 
L 227.77372 80.974026 
L 229.367247 80.974026 
L 229.367247 105.528875 
L 230.960774 105.528875 
L 230.960774 95.480155 
L 232.554301 95.480155 
L 232.554301 93.544701 
L 234.147827 93.544701 
L 234.147827 99.096912 
L 235.741354 99.096912 
L 235.741354 103.16332 
L 238.928408 103.16332 
L 238.928408 118.431901 
L 240.521935 118.431901 
L 240.521935 105.098774 
L 242.115462 105.098774 
L 242.115462 117.043848 
L 243.708989 117.043848 
L 243.708989 113.700791 
L 245.302516 113.700791 
L 245.302516 123.534461 
L 246.896043 123.534461 
L 246.896043 117.9627 
L 248.489569 117.9627 
L 248.489569 124.042762 
L 250.083096 124.042762 
L 250.083096 117.493499 
L 251.676623 117.493499 
L 251.676623 134.677983 
L 253.27015 134.677983 
L 253.27015 122.772009 
L 254.863677 122.772009 
L 254.863677 134.658433 
L 256.457204 134.658433 
L 256.457204 136.593887 
L 258.050731 136.593887 
L 258.050731 126.721117 
L 259.644258 126.721117 
L 259.644258 149.966113 
L 261.237785 149.966113 
L 261.237785 135.753235 
L 262.831311 135.753235 
L 262.831311 125.997766 
L 264.424838 125.997766 
L 264.424838 151.882017 
L 266.018365 151.882017 
L 266.018365 143.06495 
L 267.611892 143.06495 
L 267.611892 138.803041 
L 269.205419 138.803041 
L 269.205419 154.032521 
L 270.798946 154.032521 
L 270.798946 136.769837 
L 272.392473 136.769837 
L 272.392473 145.665105 
L 273.986 145.665105 
L 273.986 160.386284 
L 275.579527 160.386284 
L 275.579527 148.578061 
L 277.173053 148.578061 
L 277.173053 146.466656 
L 278.76658 146.466656 
L 278.76658 154.814523 
L 280.360107 154.814523 
L 280.360107 152.683569 
L 281.953634 152.683569 
L 281.953634 158.19668 
L 283.547161 158.19668 
L 283.547161 160.210334 
L 285.140688 160.210334 
L 285.140688 168.65595 
L 286.734215 168.65595 
L 286.734215 152.409868 
L 288.327742 152.409868 
L 288.327742 160.875035 
L 289.921269 160.875035 
L 289.921269 170.747804 
L 291.514796 170.747804 
L 291.514796 156.769527 
L 293.108322 156.769527 
L 293.108322 169.672552 
L 294.701849 169.672552 
L 294.701849 166.564096 
L 296.295376 166.564096 
L 296.295376 164.452692 
L 297.888903 164.452692 
L 297.888903 174.188611 
L 299.48243 174.188611 
L 299.48243 167.033297 
L 301.075957 167.033297 
L 301.075957 181.011575 
L 302.669484 181.011575 
L 302.669484 177.140667 
L 304.263011 177.140667 
L 304.263011 178.41142 
L 305.856538 178.41142 
L 305.856538 172.253157 
L 307.450064 172.253157 
L 307.450064 183.904981 
L 309.043591 183.904981 
L 309.043591 180.190473 
L 310.637118 180.190473 
L 310.637118 186.329185 
L 312.230645 186.329185 
L 312.230645 183.318479 
L 313.824172 183.318479 
L 313.824172 187.130737 
L 315.417699 187.130737 
L 315.417699 193.406299 
L 317.011226 193.406299 
L 317.011226 189.261691 
L 318.604753 189.261691 
L 318.604753 191.040745 
L 320.19828 191.040745 
L 320.19828 193.77775 
L 321.791806 193.77775 
L 321.791806 193.54315 
L 323.385333 193.54315 
L 323.385333 197.277207 
L 324.97886 197.277207 
L 324.97886 196.397455 
L 326.572387 196.397455 
L 326.572387 197.687758 
L 328.165914 197.687758 
L 328.165914 201.597766 
L 329.759441 201.597766 
L 329.759441 197.805058 
L 331.352968 197.805058 
L 331.352968 202.321117 
L 332.946495 202.321117 
L 332.946495 201.441365 
L 334.540022 201.441365 
L 334.540022 201.734616 
L 336.133548 201.734616 
L 336.133548 205.468673 
L 337.727075 205.468673 
L 337.727075 205.136323 
L 339.320602 205.136323 
L 339.320602 206.993576 
L 340.914129 206.993576 
L 340.914129 205.918324 
L 342.507656 205.918324 
L 342.507656 208.67488 
L 344.101183 208.67488 
L 344.101183 208.303429 
L 345.69471 208.303429 
L 345.69471 209.241831 
L 347.288237 209.241831 
L 347.288237 210.747184 
L 348.881764 210.747184 
L 348.881764 210.434383 
L 350.475291 210.434383 
L 350.475291 213.288689 
L 352.068817 213.288689 
L 352.068817 211.666036 
L 353.662344 211.666036 
L 353.662344 213.014988 
L 355.255871 213.014988 
L 355.255871 214.754942 
L 356.849398 214.754942 
L 356.849398 213.93384 
L 358.442925 213.93384 
L 358.442925 214.930892 
L 360.036452 214.930892 
L 360.036452 215.087292 
L 361.629979 215.087292 
L 361.629979 216.182095 
L 363.223506 216.182095 
L 363.223506 216.612196 
L 368.004086 216.709946 
L 368.004086 217.843848 
L 369.597613 217.843848 
L 369.597613 217.980698 
L 371.19114 217.980698 
L 371.19114 217.746098 
L 372.784667 217.746098 
L 372.784667 218.234849 
L 374.378194 218.234849 
L 374.378194 218.66495 
L 375.971721 218.66495 
L 375.971721 218.78225 
L 379.158775 218.86045 
L 379.158775 218.86045 
" clip-path="url(#p8a79cbbff7)" style="fill: none; stroke: #1f77b4; stroke-width: 1.5; stroke-linecap: square"/>
   </g>
   <g id="line2d_14">
    <path d="M 82.762773 218.88 
L 90.730407 218.88 
L 90.730407 218.6845 
L 92.323934 218.6845 
L 92.323934 218.88 
L 93.917461 218.88 
L 93.917461 218.6845 
L 97.104515 218.625849 
L 97.104515 218.547649 
L 98.698042 218.547649 
L 98.698042 218.391249 
L 100.291568 218.391249 
L 100.291568 218.156649 
L 101.885095 218.156649 
L 101.885095 218.449899 
L 103.478622 218.449899 
L 103.478622 218.078448 
L 105.072149 218.078448 
L 105.072149 217.433297 
L 106.665676 217.433297 
L 106.665676 217.609247 
L 108.259203 217.609247 
L 108.259203 216.983646 
L 109.85273 216.983646 
L 109.85273 216.709946 
L 111.446257 216.709946 
L 111.446257 216.494895 
L 113.039784 216.494895 
L 113.039784 215.986594 
L 116.226837 215.967044 
L 116.226837 215.282793 
L 117.820364 215.282793 
L 117.820364 214.363941 
L 119.413891 214.363941 
L 119.413891 212.721738 
L 121.007418 212.721738 
L 121.007418 210.688534 
L 122.600945 210.688534 
L 122.600945 210.825384 
L 124.194472 210.825384 
L 124.194472 208.147029 
L 125.787999 208.147029 
L 125.787999 207.013126 
L 127.381526 207.013126 
L 127.381526 202.223367 
L 128.975053 202.223367 
L 128.975053 201.675966 
L 130.568579 201.675966 
L 130.568579 194.833452 
L 132.162106 194.833452 
L 132.162106 191.998697 
L 133.755633 191.998697 
L 133.755633 185.488534 
L 135.34916 185.488534 
L 135.34916 180.327324 
L 136.942687 180.327324 
L 136.942687 175.283413 
L 138.536214 175.283413 
L 138.536214 170.845555 
L 140.129741 170.845555 
L 140.129741 162.243538 
L 141.723268 162.243538 
L 141.723268 154.540822 
L 143.316795 154.540822 
L 143.316795 150.591715 
L 144.910321 150.591715 
L 144.910321 144.863553 
L 146.503848 144.863553 
L 146.503848 136.632987 
L 148.097375 136.632987 
L 148.097375 123.475811 
L 149.690902 123.475811 
L 149.690902 116.515997 
L 151.284429 116.515997 
L 151.284429 105.079224 
L 152.877956 105.079224 
L 152.877956 98.217161 
L 154.471483 98.217161 
L 154.471483 82.049279 
L 156.06501 82.049279 
L 156.06501 78.197921 
L 157.658537 78.197921 
L 157.658537 66.878448 
L 159.252063 66.878448 
L 159.252063 59.957735 
L 160.84559 59.957735 
L 160.84559 52.66557 
L 162.439117 52.66557 
L 162.439117 46.996059 
L 164.032644 46.996059 
L 164.032644 45.490706 
L 165.626171 45.490706 
L 165.626171 46.350908 
L 167.219698 46.350908 
L 167.219698 33.154631 
L 168.813225 33.154631 
L 168.813225 35.617936 
L 170.406752 35.617936 
L 170.406752 26.605369 
L 172.000279 26.605369 
L 172.000279 32.118479 
L 173.593806 32.118479 
L 173.593806 30.710877 
L 175.187332 30.710877 
L 175.187332 33.682483 
L 176.780859 33.682483 
L 176.780859 30.163476 
L 178.374386 30.163476 
L 178.374386 32.58768 
L 179.967913 32.58768 
L 179.967913 24.865415 
L 181.56144 24.865415 
L 181.56144 25.530116 
L 183.154967 25.530116 
L 183.154967 24.200714 
L 184.748494 24.200714 
L 184.748494 31.707929 
L 186.342021 31.707929 
L 186.342021 20.505756 
L 187.935548 20.505756 
L 187.935548 23.360062 
L 189.529074 23.360062 
L 189.529074 30.398076 
L 191.122601 30.398076 
L 191.122601 28.149822 
L 192.716128 28.149822 
L 192.716128 25.745167 
L 194.309655 25.745167 
L 194.309655 33.936633 
L 195.903182 33.936633 
L 195.903182 24.102964 
L 197.496709 24.102964 
L 197.496709 40.485896 
L 199.090236 40.485896 
L 199.090236 25.412816 
L 200.683763 25.412816 
L 200.683763 34.620884 
L 202.27729 34.620884 
L 202.27729 23.946563 
L 203.870816 23.946563 
L 203.870816 42.206299 
L 205.464343 42.206299 
L 205.464343 52.059519 
L 207.05787 52.059519 
L 207.05787 37.51429 
L 208.651397 37.51429 
L 208.651397 51.336168 
L 210.244924 51.336168 
L 210.244924 43.965803 
L 211.838451 43.965803 
L 211.838451 63.281241 
L 213.431978 63.281241 
L 213.431978 65.138495 
L 216.619032 65.177595 
L 216.619032 66.076897 
L 218.212558 66.076897 
L 218.212558 79.390473 
L 219.806085 79.390473 
L 219.806085 74.248813 
L 221.399612 74.248813 
L 221.399612 80.035625 
L 222.993139 80.035625 
L 222.993139 83.437331 
L 224.586666 83.437331 
L 224.586666 81.834228 
L 226.180193 81.834228 
L 226.180193 84.532133 
L 227.77372 84.532133 
L 227.77372 96.594507 
L 229.367247 96.594507 
L 229.367247 92.234849 
L 230.960774 92.234849 
L 230.960774 98.09986 
L 232.554301 98.09986 
L 232.554301 89.908394 
L 234.147827 89.908394 
L 234.147827 107.75758 
L 235.741354 107.75758 
L 235.741354 100.015764 
L 237.334881 100.015764 
L 237.334881 112.039038 
L 238.928408 112.039038 
L 238.928408 101.501567 
L 240.521935 101.501567 
L 240.521935 112.371389 
L 242.115462 112.371389 
L 242.115462 110.807386 
L 243.708989 110.807386 
L 243.708989 120.836555 
L 245.302516 120.836555 
L 245.302516 122.90886 
L 246.896043 122.90886 
L 246.896043 122.322358 
L 248.489569 122.322358 
L 248.489569 114.169992 
L 250.083096 114.169992 
L 250.083096 128.18737 
L 251.676623 128.18737 
L 251.676623 126.682017 
L 253.27015 126.682017 
L 253.27015 124.453313 
L 254.863677 124.453313 
L 254.863677 136.320186 
L 256.457204 136.320186 
L 256.457204 133.583181 
L 258.050731 133.583181 
L 258.050731 133.915531 
L 259.644258 133.915531 
L 259.644258 132.762079 
L 261.237785 132.762079 
L 261.237785 138.06014 
L 262.831311 138.06014 
L 262.831311 145.880155 
L 264.424838 145.880155 
L 264.424838 134.541133 
L 266.018365 134.541133 
L 266.018365 149.242762 
L 267.611892 149.242762 
L 267.611892 140.973095 
L 269.205419 140.973095 
L 269.205419 140.679845 
L 270.798946 140.679845 
L 270.798946 148.44121 
L 272.392473 148.44121 
L 272.392473 152.233918 
L 273.986 152.233918 
L 273.986 150.063863 
L 275.579527 150.063863 
L 275.579527 149.125462 
L 277.173053 149.125462 
L 277.173053 151.100016 
L 278.76658 151.100016 
L 278.76658 154.306222 
L 280.360107 154.306222 
L 280.360107 152.175268 
L 281.953634 152.175268 
L 281.953634 161.520186 
L 283.547161 161.520186 
L 283.547161 152.351218 
L 285.140688 152.351218 
L 285.140688 166.583646 
L 286.734215 166.583646 
L 286.734215 158.64633 
L 288.327742 158.64633 
L 288.327742 165.860295 
L 289.921269 165.860295 
L 289.921269 161.441986 
L 291.514796 161.441986 
L 291.514796 163.39699 
L 293.108322 163.39699 
L 293.108322 167.424298 
L 294.701849 167.424298 
L 294.701849 165.195593 
L 296.295376 165.195593 
L 296.295376 167.795749 
L 297.888903 167.795749 
L 297.888903 170.943305 
L 299.48243 170.943305 
L 299.48243 171.549356 
L 301.075957 171.549356 
L 301.075957 176.436866 
L 302.669484 176.436866 
L 302.669484 177.746718 
L 304.263011 177.746718 
L 304.263011 177.355718 
L 305.856538 177.355718 
L 305.856538 180.542374 
L 307.450064 180.542374 
L 307.450064 175.478914 
L 309.043591 175.478914 
L 309.043591 185.097533 
L 310.637118 185.097533 
L 310.637118 184.041831 
L 312.230645 184.041831 
L 312.230645 187.150287 
L 313.824172 187.150287 
L 313.824172 185.566734 
L 315.417699 185.566734 
L 315.417699 186.896137 
L 317.011226 186.896137 
L 317.011226 193.406299 
L 318.604753 193.406299 
L 318.604753 187.639038 
L 320.19828 187.639038 
L 320.19828 195.185353 
L 321.791806 195.185353 
L 321.791806 194.520652 
L 323.385333 194.520652 
L 323.385333 195.009403 
L 324.97886 195.009403 
L 324.97886 198.89986 
L 326.572387 198.89986 
L 326.572387 197.316307 
L 328.165914 197.316307 
L 328.165914 198.89986 
L 329.759441 198.89986 
L 329.759441 200.307463 
L 331.352968 200.307463 
L 331.352968 199.427711 
L 332.946495 199.427711 
L 332.946495 203.57232 
L 334.540022 203.57232 
L 334.540022 203.259519 
L 336.133548 203.259519 
L 336.133548 203.94377 
L 337.727075 203.94377 
L 337.727075 205.644624 
L 339.320602 205.644624 
L 339.320602 206.661226 
L 340.914129 206.661226 
L 340.914129 206.094275 
L 342.507656 206.094275 
L 342.507656 207.267277 
L 344.101183 207.267277 
L 344.101183 210.004282 
L 345.69471 210.004282 
L 345.69471 208.71398 
L 347.288237 208.71398 
L 347.288237 210.414833 
L 348.881764 210.414833 
L 348.881764 210.766734 
L 350.475291 210.766734 
L 350.475291 212.174337 
L 352.068817 212.174337 
L 352.068817 212.487137 
L 355.255871 212.565337 
L 355.255871 214.559441 
L 356.849398 214.559441 
L 356.849398 214.227091 
L 358.442925 214.227091 
L 358.442925 214.774492 
L 360.036452 214.774492 
L 360.036452 215.263243 
L 361.629979 215.263243 
L 361.629979 215.908394 
L 363.223506 215.908394 
L 363.223506 216.612196 
L 366.410559 216.514445 
L 366.410559 216.885896 
L 368.004086 216.885896 
L 368.004086 217.882948 
L 372.784667 217.785198 
L 372.784667 218.352149 
L 374.378194 218.352149 
L 374.378194 218.528099 
L 375.971721 218.528099 
L 375.971721 218.86045 
L 379.158775 218.88 
L 379.158775 218.88 
" clip-path="url(#p8a79cbbff7)" style="fill: none; stroke: #ff7f0e; stroke-width: 1.5; stroke-linecap: square"/>
   </g>
   <g id="line2d_15">
    <path d="M 75.231463 218.86045 
L 91.166732 218.78225 
L 91.166732 218.6845 
L 94.353786 218.625849 
L 94.353786 218.528099 
L 97.54084 218.606299 
L 97.54084 218.332599 
L 100.727893 218.410799 
L 100.727893 218.195749 
L 105.508474 218.097998 
L 105.508474 217.491947 
L 107.102001 217.491947 
L 107.102001 217.257347 
L 110.289055 217.355097 
L 110.289055 216.514445 
L 111.882582 216.514445 
L 111.882582 216.240745 
L 115.069635 216.221195 
L 115.069635 215.556493 
L 116.663162 215.556493 
L 116.663162 214.872242 
L 118.256689 214.872242 
L 118.256689 213.89474 
L 119.850216 213.89474 
L 119.850216 212.526237 
L 121.443743 212.526237 
L 121.443743 211.157735 
L 123.03727 211.157735 
L 123.03727 209.554631 
L 124.630797 209.554631 
L 124.630797 208.029728 
L 126.224324 208.029728 
L 126.224324 205.507773 
L 127.817851 205.507773 
L 127.817851 201.363165 
L 129.411377 201.363165 
L 129.411377 199.388611 
L 131.004904 199.388611 
L 131.004904 195.361303 
L 132.598431 195.361303 
L 132.598431 189.515842 
L 134.191958 189.515842 
L 134.191958 184.139581 
L 135.785485 184.139581 
L 135.785485 180.131823 
L 137.379012 180.131823 
L 137.379012 172.605058 
L 138.972539 172.605058 
L 138.972539 167.697998 
L 140.566066 167.697998 
L 140.566066 162.126237 
L 142.159593 162.126237 
L 142.159593 154.794973 
L 143.753119 154.794973 
L 143.753119 146.447106 
L 145.346646 146.447106 
L 145.346646 140.718945 
L 146.940173 140.718945 
L 146.940173 134.756183 
L 148.5337 134.756183 
L 148.5337 122.850209 
L 150.127227 122.850209 
L 150.127227 113.17294 
L 151.720754 113.17294 
L 151.720754 104.649123 
L 153.314281 104.649123 
L 153.314281 90.846796 
L 154.907808 90.846796 
L 154.907808 80.426625 
L 156.501335 80.426625 
L 156.501335 75.695516 
L 158.094861 75.695516 
L 158.094861 64.082793 
L 159.688388 64.082793 
L 159.688388 58.002731 
L 161.281915 58.002731 
L 161.281915 50.417316 
L 162.875442 50.417316 
L 162.875442 46.292258 
L 164.468969 46.292258 
L 164.468969 44.493654 
L 166.062496 44.493654 
L 166.062496 37.729341 
L 167.656023 37.729341 
L 167.656023 37.55339 
L 169.24955 37.55339 
L 169.24955 34.249434 
L 170.843077 34.249434 
L 170.843077 30.495826 
L 172.436603 30.495826 
L 172.436603 32.079379 
L 174.03013 32.079379 
L 174.03013 30.886827 
L 175.623657 30.886827 
L 175.623657 32.001179 
L 177.217184 32.001179 
L 177.217184 29.244624 
L 178.810711 29.244624 
L 178.810711 29.459674 
L 180.404238 29.459674 
L 180.404238 27.856571 
L 181.997765 27.856571 
L 181.997765 24.865415 
L 183.591292 24.865415 
L 183.591292 27.13322 
L 186.778346 27.21142 
L 186.778346 23.751063 
L 188.371872 23.751063 
L 188.371872 25.060915 
L 189.965399 25.060915 
L 189.965399 27.035469 
L 191.558926 27.035469 
L 191.558926 28.697223 
L 193.152453 28.697223 
L 193.152453 29.166424 
L 194.74598 29.166424 
L 194.74598 30.828177 
L 196.339507 30.828177 
L 196.339507 28.853623 
L 197.933034 28.853623 
L 197.933034 28.599472 
L 199.526561 28.599472 
L 199.526561 33.917083 
L 201.120088 33.917083 
L 201.120088 31.238728 
L 202.713614 31.238728 
L 202.713614 38.354942 
L 204.307141 38.354942 
L 204.307141 42.010799 
L 205.900668 42.010799 
L 205.900668 42.831901 
L 207.494195 42.831901 
L 207.494195 45.529806 
L 209.087722 45.529806 
L 209.087722 50.769216 
L 210.681249 50.769216 
L 210.681249 54.776974 
L 212.274776 54.776974 
L 212.274776 59.449434 
L 213.868303 59.449434 
L 213.868303 63.261691 
L 215.46183 63.261691 
L 215.46183 64.434694 
L 217.055356 64.434694 
L 217.055356 73.251761 
L 218.648883 73.251761 
L 218.648883 73.056261 
L 220.24241 73.056261 
L 220.24241 76.301567 
L 221.835937 76.301567 
L 221.835937 79.097223 
L 223.429464 79.097223 
L 223.429464 80.778526 
L 225.022991 80.778526 
L 225.022991 85.959286 
L 226.616518 85.959286 
L 226.616518 89.048192 
L 228.210045 89.048192 
L 228.210045 93.09505 
L 229.803572 93.09505 
L 229.803572 93.505601 
L 231.397098 93.505601 
L 231.397098 98.178061 
L 232.990625 98.178061 
L 232.990625 100.230815 
L 234.584152 100.230815 
L 234.584152 101.618867 
L 236.177679 101.618867 
L 236.177679 105.176974 
L 237.771206 105.176974 
L 237.771206 105.294275 
L 239.364733 105.294275 
L 239.364733 110.611885 
L 240.95826 110.611885 
L 240.95826 111.765337 
L 242.551787 111.765337 
L 242.551787 114.560993 
L 244.145314 114.560993 
L 244.145314 114.209092 
L 245.738841 114.209092 
L 245.738841 117.063398 
L 247.332367 117.063398 
L 247.332367 123.710411 
L 248.925894 123.710411 
L 248.925894 122.146408 
L 250.519421 122.146408 
L 250.519421 125.684965 
L 252.112948 125.684965 
L 252.112948 126.017316 
L 253.706475 126.017316 
L 253.706475 129.223522 
L 255.300002 129.223522 
L 255.300002 134.208782 
L 256.893529 134.208782 
L 256.893529 132.429728 
L 258.487056 132.429728 
L 258.487056 135.166734 
L 260.080583 135.166734 
L 260.080583 135.909635 
L 261.674109 135.909635 
L 261.674109 139.760993 
L 264.861163 139.780543 
L 264.861163 143.06495 
L 266.45469 143.06495 
L 266.45469 143.612351 
L 268.048217 143.612351 
L 268.048217 143.33865 
L 269.641744 143.33865 
L 269.641744 143.1627 
L 271.235271 143.1627 
L 271.235271 147.737409 
L 272.828798 147.737409 
L 272.828798 148.910411 
L 274.422325 148.910411 
L 274.422325 151.960217 
L 276.015851 151.960217 
L 276.015851 151.706067 
L 277.609378 151.706067 
L 277.609378 151.393266 
L 279.202905 151.393266 
L 279.202905 154.325772 
L 280.796432 154.325772 
L 280.796432 155.244624 
L 282.389959 155.244624 
L 282.389959 158.43128 
L 285.577013 158.52903 
L 285.577013 159.917083 
L 287.17054 159.917083 
L 287.17054 162.106687 
L 288.764067 162.106687 
L 288.764067 161.578836 
L 290.357593 161.578836 
L 290.357593 163.41654 
L 291.95112 163.41654 
L 291.95112 165.058743 
L 293.544647 165.058743 
L 293.544647 167.522048 
L 295.138174 167.522048 
L 295.138174 166.935547 
L 296.731701 166.935547 
L 296.731701 168.929651 
L 298.325228 168.929651 
L 298.325228 172.038107 
L 299.918755 172.038107 
L 299.918755 174.188611 
L 301.512282 174.188611 
L 301.512282 174.755562 
L 303.105809 174.755562 
L 303.105809 175.948115 
L 306.292862 175.909015 
L 306.292862 180.620574 
L 307.886389 180.620574 
L 307.886389 180.405524 
L 309.479916 180.405524 
L 309.479916 183.298929 
L 311.073443 183.298929 
L 311.073443 184.921583 
L 312.66697 184.921583 
L 312.66697 186.466036 
L 314.260497 186.466036 
L 314.260497 187.052537 
L 315.854024 187.052537 
L 315.854024 187.971389 
L 317.447551 187.971389 
L 317.447551 191.001645 
L 320.634604 191.060295 
L 320.634604 193.367199 
L 322.228131 193.367199 
L 322.228131 195.380853 
L 323.821658 195.380853 
L 323.821658 196.280155 
L 325.415185 196.280155 
L 325.415185 198.372009 
L 327.008712 198.372009 
L 327.008712 198.059209 
L 328.602239 198.059209 
L 328.602239 198.91941 
L 330.195766 198.91941 
L 330.195766 199.642762 
L 331.789293 199.642762 
L 331.789293 202.047417 
L 333.38282 202.047417 
L 333.38282 202.184267 
L 334.976346 202.184267 
L 334.976346 203.80692 
L 336.569873 203.80692 
L 336.569873 205.077673 
L 338.1634 205.077673 
L 338.1634 205.370923 
L 339.756927 205.370923 
L 339.756927 206.211575 
L 341.350454 206.211575 
L 341.350454 205.976974 
L 342.943981 205.976974 
L 342.943981 208.381629 
L 344.537508 208.381629 
L 344.537508 209.144081 
L 346.131035 209.144081 
L 346.131035 209.632832 
L 347.724562 209.632832 
L 347.724562 210.356183 
L 349.318088 210.356183 
L 349.318088 211.783336 
L 350.911615 211.783336 
L 350.911615 212.017936 
L 352.505142 212.017936 
L 352.505142 212.213437 
L 354.098669 212.213437 
L 354.098669 212.956338 
L 355.692196 212.956338 
L 355.692196 214.520341 
L 357.285723 214.520341 
L 357.285723 214.657192 
L 360.472777 214.637642 
L 360.472777 215.341443 
L 362.066304 215.341443 
L 362.066304 216.318945 
L 365.253357 216.358045 
L 365.253357 216.924996 
L 366.846884 216.924996 
L 366.846884 217.042296 
L 368.440411 217.042296 
L 368.440411 218.000248 
L 370.033938 218.000248 
L 370.033938 217.648348 
L 371.627465 217.648348 
L 371.627465 218.000248 
L 373.220992 218.000248 
L 373.220992 218.449899 
L 374.814519 218.449899 
L 374.814519 218.6454 
L 376.408046 218.6454 
L 376.408046 218.8409 
L 379.595099 218.8409 
L 379.595099 218.8409 
" clip-path="url(#p8a79cbbff7)" style="fill: none; stroke: #2ca02c; stroke-width: 1.5; stroke-linecap: square"/>
   </g>
   <g id="patch_3">
    <path d="M 60.013281 228.96 
L 60.013281 7.2 
" style="fill: none; stroke: #000000; stroke-width: 0.8; stroke-linejoin: miter; stroke-linecap: square"/>
   </g>
   <g id="patch_4">
    <path d="M 394.813281 228.96 
L 394.813281 7.2 
" style="fill: none; stroke: #000000; stroke-width: 0.8; stroke-linejoin: miter; stroke-linecap: square"/>
   </g>
   <g id="patch_5">
    <path d="M 60.013281 228.96 
L 394.813281 228.96 
" style="fill: none; stroke: #000000; stroke-width: 0.8; stroke-linejoin: miter; stroke-linecap: square"/>
   </g>
   <g id="patch_6">
    <path d="M 60.013281 7.2 
L 394.813281 7.2 
" style="fill: none; stroke: #000000; stroke-width: 0.8; stroke-linejoin: miter; stroke-linecap: square"/>
   </g>
   <g id="legend_1">
    <g id="patch_7">
     <path d="M 313.589844 60.202344 
L 387.813281 60.202344 
Q 389.813281 60.202344 389.813281 58.202344 
L 389.813281 14.2 
Q 389.813281 12.2 387.813281 12.2 
L 313.589844 12.2 
Q 311.589844 12.2 311.589844 14.2 
L 311.589844 58.202344 
Q 311.589844 60.202344 313.589844 60.202344 
z
" style="fill: #ffffff; opacity: 0.8; stroke: #cccccc; stroke-linejoin: miter"/>
    </g>
    <g id="line2d_16">
     <path d="M 315.589844 20.298437 
L 315.589844 20.298437 
L 325.589844 20.298437 
L 325.589844 20.298437 
L 335.589844 20.298437 
" style="fill: none; stroke: #1f77b4; stroke-width: 1.5; stroke-linecap: square"/>
    </g>
    <g id="text_15">
     <!-- monitor -->
     <g transform="translate(343.589844 23.798437) scale(0.1 -0.1)">
      <defs>
       <path id="DejaVuSans-50" d="M 3328 2828 
Q 3544 3216 3844 3400 
Q 4144 3584 4550 3584 
Q 5097 3584 5394 3201 
Q 5691 2819 5691 2113 
L 5691 0 
L 5113 0 
L 5113 2094 
Q 5113 2597 4934 2840 
Q 4756 3084 4391 3084 
Q 3944 3084 3684 2787 
Q 3425 2491 3425 1978 
L 3425 0 
L 2847 0 
L 2847 2094 
Q 2847 2600 2669 2842 
Q 2491 3084 2119 3084 
Q 1678 3084 1418 2786 
Q 1159 2488 1159 1978 
L 1159 0 
L 581 0 
L 581 3500 
L 1159 3500 
L 1159 2956 
Q 1356 3278 1631 3431 
Q 1906 3584 2284 3584 
Q 2666 3584 2933 3390 
Q 3200 3197 3328 2828 
z
" transform="scale(0.015625)"/>
       <path id="DejaVuSans-4c" d="M 603 3500 
L 1178 3500 
L 1178 0 
L 603 0 
L 603 3500 
z
M 603 4863 
L 1178 4863 
L 1178 4134 
L 603 4134 
L 603 4863 
z
" transform="scale(0.015625)"/>
       <path id="DejaVuSans-55" d="M 2631 2963 
Q 2534 3019 2420 3045 
Q 2306 3072 2169 3072 
Q 1681 3072 1420 2755 
Q 1159 2438 1159 1844 
L 1159 0 
L 581 0 
L 581 3500 
L 1159 3500 
L 1159 2956 
Q 1341 3275 1631 3429 
Q 1922 3584 2338 3584 
Q 2397 3584 2469 3576 
Q 2541 3569 2628 3553 
L 2631 2963 
z
" transform="scale(0.015625)"/>
      </defs>
      <use xlink:href="#DejaVuSans-50"/>
      <use xlink:href="#DejaVuSans-52" transform="translate(97.40625 0)"/>
      <use xlink:href="#DejaVuSans-51" transform="translate(158.59375 0)"/>
      <use xlink:href="#DejaVuSans-4c" transform="translate(221.96875 0)"/>
      <use xlink:href="#DejaVuSans-57" transform="translate(249.75 0)"/>
      <use xlink:href="#DejaVuSans-52" transform="translate(288.953125 0)"/>
      <use xlink:href="#DejaVuSans-55" transform="translate(350.140625 0)"/>
     </g>
    </g>
    <g id="line2d_17">
     <path d="M 315.589844 35.299219 
L 315.589844 35.299219 
L 325.589844 35.299219 
L 325.589844 35.299219 
L 335.589844 35.299219 
" style="fill: none; stroke: #ff7f0e; stroke-width: 1.5; stroke-linecap: square"/>
    </g>
    <g id="text_16">
     <!-- detector -->
     <g transform="translate(343.589844 38.799219) scale(0.1 -0.1)">
      <defs>
       <path id="DejaVuSans-47" d="M 2906 2969 
L 2906 4863 
L 3481 4863 
L 3481 0 
L 2906 0 
L 2906 525 
Q 2725 213 2448 61 
Q 2172 -91 1784 -91 
Q 1150 -91 751 415 
Q 353 922 353 1747 
Q 353 2572 751 3078 
Q 1150 3584 1784 3584 
Q 2172 3584 2448 3432 
Q 2725 3281 2906 2969 
z
M 947 1747 
Q 947 1113 1208 752 
Q 1469 391 1925 391 
Q 2381 391 2643 752 
Q 2906 1113 2906 1747 
Q 2906 2381 2643 2742 
Q 2381 3103 1925 3103 
Q 1469 3103 1208 2742 
Q 947 2381 947 1747 
z
" transform="scale(0.015625)"/>
      </defs>
      <use xlink:href="#DejaVuSans-47"/>
      <use xlink:href="#DejaVuSans-48" transform="translate(63.484375 0)"/>
      <use xlink:href="#DejaVuSans-57" transform="translate(125.015625 0)"/>
      <use xlink:href="#DejaVuSans-48" transform="translate(164.21875 0)"/>
      <use xlink:href="#DejaVuSans-46" transform="translate(225.75 0)"/>
      <use xlink:href="#DejaVuSans-57" transform="translate(280.734375 0)"/>
      <use xlink:href="#DejaVuSans-52" transform="translate(319.9375 0)"/>
      <use xlink:href="#DejaVuSans-55" transform="translate(381.125 0)"/>
     </g>
    </g>
    <g id="line2d_18">
     <path d="M 315.589844 50.3 
L 315.589844 50.3 
L 325.589844 50.3 
L 325.589844 50.3 
L 335.589844 50.3 
" style="fill: none; stroke: #2ca02c; stroke-width: 1.5; stroke-linecap: square"/>
    </g>
    <g id="text_17">
     <!-- true -->
     <g transform="translate(343.589844 53.8) scale(0.1 -0.1)">
      <use xlink:href="#DejaVuSans-57"/>
      <use xlink:href="#DejaVuSans-55" transform="translate(39.203125 0)"/>
      <use xlink:href="#DejaVuSans-58" transform="translate(80.3125 0)"/>
      <use xlink:href="#DejaVuSans-48" transform="translate(143.6875 0)"/>
     </g>
    </g>
   </g>
  </g>
 </g>
 <defs>
  <clipPath id="p8a79cbbff7">
   <rect x="60.013281" y="7.2" width="334.8" height="221.76"/>
  </clipPath>
 </defs>
</svg>
