<?xml version="1.0" encoding="utf-8" standalone="no"?>
<!DOCTYPE svg PUBLIC "-//W3C//DTD SVG 1.1//EN"
  "http://www.w3.org/Graphics/SVG/1.1/DTD/svg11.dtd">
<svg xmlns:xlink="http://www.w3.org/1999/xlink" width="397.725694pt" height="266.794375pt" viewBox="0 0 397.725694 266.794375" xmlns="http://www.w3.org/2000/svg" version="1.1">
 <metadata>
  <rdf:RDF xmlns:dc="http://purl.org/dc/elements/1.1/" xmlns:cc="http://creativecommons.org/ns#" xmlns:rdf="http://www.w3.org/1999/02/22-rdf-syntax-ns#">
   <cc:Work>
    <dc:type rdf:resource="http://purl.org/dc/dcmitype/StillImage"/>
    <dc:date>2026-06-18T08:05:05.237058</dc:date>
    <dc:format>image/svg+xml</dc:format>
    <dc:creator>
     <cc:Agent>
      <dc:title>Matplotlib v3.10.9, https://matplotlib.org/</dc:title>
     </cc:Agent>
    </dc:creator>
   </cc:Work>
  </rdf:RDF>
 </metadata>
 <defs>
  <style type="text/css">*{stroke-linejoin: round; stroke-linecap: butt}</style>
 </defs>
 <g id="figure_1">
  <g id="patch_1">
   <path d="M 0 266.794375 
L 397.725694 266.794375 
L 397.725694 0 
L 0 0 
z
" style="fill: #ffffff"/>
  </g>
  <g id="axes_1">
   <g id="patch_2">
    <path d="M 46.965625 228.96 
L 381.765625 228.96 
L 381.765625 7.2 
L 46.965625 7.2 
z
" style="fill: #ffffff"/>
   </g>
   <g id="matplotlib.axis_1">
    <g id="xtick_1">
     <g id="line2d_1">
      <defs>
       <path id="m0922713ea2" d="M 0 0 
L 0 3.5 
" style="stroke: #000000; stroke-width: 0.8"/>
      </defs>
      <g>
       <use xlink:href="#m0922713ea2" x="82.966215" y="228.96" style="stroke: #000000; stroke-width: 0.8"/>
      </g>
     </g>
     <g id="text_1">
      <!-- 20000 -->
      <g transform="translate(67.059965 243.558437) scale(0.1 -0.1)">
       <defs>
        <path id="DejaVuSans-32" d="M 1228 531 
L 3431 531 
L 3431 0 
L 469 0 
L 469 531 
Q 828 903 1448 1529 
Q 2069 2156 2228 2338 
Q 2531 2678 2651 2914 
Q 2772 3150 2772 3378 
Q 2772 3750 2511 3984 
Q 2250 4219 1831 4219 
Q 1534 4219 1204 4116 
Q 875 4013 500 3803 
L 500 4441 
Q 881 4594 1212 4672 
Q 1544 4750 1819 4750 
Q 2544 4750 2975 4387 
Q 3406 4025 3406 3419 
Q 3406 3131 3298 2873 
Q 3191 2616 2906 2266 
Q 2828 2175 2409 1742 
Q 1991 1309 1228 531 
z
" transform="scale(0.015625)"/>
        <path id="DejaVuSans-30" d="M 2034 4250 
Q 1547 4250 1301 3770 
Q 1056 3291 1056 2328 
Q 1056 1369 1301 889 
Q 1547 409 2034 409 
Q 2525 409 2770 889 
Q 3016 1369 3016 2328 
Q 3016 3291 2770 3770 
Q 2525 4250 2034 4250 
z
M 2034 4750 
Q 2819 4750 3233 4129 
Q 3647 3509 3647 2328 
Q 3647 1150 3233 529 
Q 2819 -91 2034 -91 
Q 1250 -91 836 529 
Q 422 1150 422 2328 
Q 422 3509 836 4129 
Q 1250 4750 2034 4750 
z
" transform="scale(0.015625)"/>
       </defs>
       <use xlink:href="#DejaVuSans-32"/>
       <use xlink:href="#DejaVuSans-30" transform="translate(63.623047 0)"/>
       <use xlink:href="#DejaVuSans-30" transform="translate(127.246094 0)"/>
       <use xlink:href="#DejaVuSans-30" transform="translate(190.869141 0)"/>
       <use xlink:href="#DejaVuSans-30" transform="translate(254.492188 0)"/>
      </g>
     </g>
    </g>
    <g id="xtick_2">
     <g id="line2d_2">
      <g>
       <use xlink:href="#m0922713ea2" x="141.296861" y="228.96" style="stroke: #000000; stroke-width: 0.8"/>
      </g>
     </g>
     <g id="text_2">
      <!-- 30000 -->
      <g transform="translate(125.390611 243.558437) scale(0.1 -0.1)">
       <defs>
        <path id="DejaVuSans-33" d="M 2597 2516 
Q 3050 2419 3304 2112 
Q 3559 1806 3559 1356 
Q 3559 666 3084 287 
Q 2609 -91 1734 -91 
Q 1441 -91 1130 -33 
Q 819 25 488 141 
L 488 750 
Q 750 597 1062 519 
Q 1375 441 1716 441 
Q 2309 441 2620 675 
Q 2931 909 2931 1356 
Q 2931 1769 2642 2001 
Q 2353 2234 1838 2234 
L 1294 2234 
L 1294 2753 
L 1863 2753 
Q 2328 2753 2575 2939 
Q 2822 3125 2822 3475 
Q 2822 3834 2567 4026 
Q 2313 4219 1838 4219 
Q 1578 4219 1281 4162 
Q 984 4106 628 3988 
L 628 4550 
Q 988 4650 1302 4700 
Q 1616 4750 1894 4750 
Q 2613 4750 3031 4423 
Q 3450 4097 3450 3541 
Q 3450 3153 3228 2886 
Q 3006 2619 2597 2516 
z
" transform="scale(0.015625)"/>
       </defs>
       <use xlink:href="#DejaVuSans-33"/>
       <use xlink:href="#DejaVuSans-30" transform="translate(63.623047 0)"/>
       <use xlink:href="#DejaVuSans-30" transform="translate(127.246094 0)"/>
       <use xlink:href="#DejaVuSans-30" transform="translate(190.869141 0)"/>
       <use xlink:href="#DejaVuSans-30" transform="translate(254.492188 0)"/>
      </g>
     </g>
    </g>
    <g id="xtick_3">
     <g id="line2d_3">
      <g>
       <use xlink:href="#m0922713ea2" x="199.627507" y="228.96" style="stroke: #000000; stroke-width: 0.8"/>
      </g>
     </g>
     <g id="text_3">
      <!-- 40000 -->
      <g transform="translate(183.721257 243.558437) scale(0.1 -0.1)">
       <defs>
        <path id="DejaVuSans-34" d="M 2419 4116 
L 825 1625 
L 2419 1625 
L 2419 4116 
z
M 2253 4666 
L 3047 4666 
L 3047 1625 
L 3713 1625 
L 3713 1100 
L 3047 1100 
L 3047 0 
L 2419 0 
L 2419 1100 
L 313 1100 
L 313 1709 
L 2253 4666 
z
" transform="scale(0.015625)"/>
       </defs>
       <use xlink:href="#DejaVuSans-34"/>
       <use xlink:href="#DejaVuSans-30" transform="translate(63.623047 0)"/>
       <use xlink:href="#DejaVuSans-30" transform="translate(127.246094 0)"/>
       <use xlink:href="#DejaVuSans-30" transform="translate(190.869141 0)"/>
       <use xlink:href="#DejaVuSans-30" transform="translate(254.492188 0)"/>
      </g>
     </g>
    </g>
    <g id="xtick_4">
     <g id="line2d_4">
      <g>
       <use xlink:href="#m0922713ea2" x="257.958152" y="228.96" style="stroke: #000000; stroke-width: 0.8"/>
      </g>
     </g>
     <g id="text_4">
      <!-- 50000 -->
      <g transform="translate(242.051902 243.558437) scale(0.1 -0.1)">
       <defs>
        <path id="DejaVuSans-35" d="M 691 4666 
L 3169 4666 
L 3169 4134 
L 1269 4134 
L 1269 2991 
Q 1406 3038 1543 3061 
Q 1681 3084 1819 3084 
Q 2600 3084 3056 2656 
Q 3513 2228 3513 1497 
Q 3513 744 3044 326 
Q 2575 -91 1722 -91 
Q 1428 -91 1123 -41 
Q 819 9 494 109 
L 494 744 
Q 775 591 1075 516 
Q 1375 441 1709 441 
Q 2250 441 2565 725 
Q 2881 1009 2881 1497 
Q 2881 1984 2565 2268 
Q 2250 2553 1709 2553 
Q 1456 2553 1204 2497 
Q 953 2441 691 2322 
L 691 4666 
z
" transform="scale(0.015625)"/>
       </defs>
       <use xlink:href="#DejaVuSans-35"/>
       <use xlink:href="#DejaVuSans-30" transform="translate(63.623047 0)"/>
       <use xlink:href="#DejaVuSans-30" transform="translate(127.246094 0)"/>
       <use xlink:href="#DejaVuSans-30" transform="translate(190.869141 0)"/>
       <use xlink:href="#DejaVuSans-30" transform="translate(254.492188 0)"/>
      </g>
     </g>
    </g>
    <g id="xtick_5">
     <g id="line2d_5">
      <g>
       <use xlink:href="#m0922713ea2" x="316.288798" y="228.96" style="stroke: #000000; stroke-width: 0.8"/>
      </g>
     </g>
     <g id="text_5">
      <!-- 60000 -->
      <g transform="translate(300.382548 243.558437) scale(0.1 -0.1)">
       <defs>
        <path id="DejaVuSans-36" d="M 2113 2584 
Q 1688 2584 1439 2293 
Q 1191 2003 1191 1497 
Q 1191 994 1439 701 
Q 1688 409 2113 409 
Q 2538 409 2786 701 
Q 3034 994 3034 1497 
Q 3034 2003 2786 2293 
Q 2538 2584 2113 2584 
z
M 3366 4563 
L 3366 3988 
Q 3128 4100 2886 4159 
Q 2644 4219 2406 4219 
Q 1781 4219 1451 3797 
Q 1122 3375 1075 2522 
Q 1259 2794 1537 2939 
Q 1816 3084 2150 3084 
Q 2853 3084 3261 2657 
Q 3669 2231 3669 1497 
Q 3669 778 3244 343 
Q 2819 -91 2113 -91 
Q 1303 -91 875 529 
Q 447 1150 447 2328 
Q 447 3434 972 4092 
Q 1497 4750 2381 4750 
Q 2619 4750 2861 4703 
Q 3103 4656 3366 4563 
z
" transform="scale(0.015625)"/>
       </defs>
       <use xlink:href="#DejaVuSans-36"/>
       <use xlink:href="#DejaVuSans-30" transform="translate(63.623047 0)"/>
       <use xlink:href="#DejaVuSans-30" transform="translate(127.246094 0)"/>
       <use xlink:href="#DejaVuSans-30" transform="translate(190.869141 0)"/>
       <use xlink:href="#DejaVuSans-30" transform="translate(254.492188 0)"/>
      </g>
     </g>
    </g>
    <g id="xtick_6">
     <g id="line2d_6">
      <g>
       <use xlink:href="#m0922713ea2" x="374.619444" y="228.96" style="stroke: #000000; stroke-width: 0.8"/>
      </g>
     </g>
     <g id="text_6">
      <!-- 70000 -->
      <g transform="translate(358.713194 243.558437) scale(0.1 -0.1)">
       <defs>
        <path id="DejaVuSans-37" d="M 525 4666 
L 3525 4666 
L 3525 4397 
L 1831 0 
L 1172 0 
L 2766 4134 
L 525 4134 
L 525 4666 
z
" transform="scale(0.015625)"/>
       </defs>
       <use xlink:href="#DejaVuSans-37"/>
       <use xlink:href="#DejaVuSans-30" transform="translate(63.623047 0)"/>
       <use xlink:href="#DejaVuSans-30" transform="translate(127.246094 0)"/>
       <use xlink:href="#DejaVuSans-30" transform="translate(190.869141 0)"/>
       <use xlink:href="#DejaVuSans-30" transform="translate(254.492188 0)"/>
      </g>
     </g>
    </g>
    <g id="text_7">
     <!-- event_time_offset [µs] -->
     <g transform="translate(158.330469 257.236562) scale(0.1 -0.1)">
      <defs>
       <path id="DejaVuSans-65" d="M 3597 1894 
L 3597 1613 
L 953 1613 
Q 991 1019 1311 708 
Q 1631 397 2203 397 
Q 2534 397 2845 478 
Q 3156 559 3463 722 
L 3463 178 
Q 3153 47 2828 -22 
Q 2503 -91 2169 -91 
Q 1331 -91 842 396 
Q 353 884 353 1716 
Q 353 2575 817 3079 
Q 1281 3584 2069 3584 
Q 2775 3584 3186 3129 
Q 3597 2675 3597 1894 
z
M 3022 2063 
Q 3016 2534 2758 2815 
Q 2500 3097 2075 3097 
Q 1594 3097 1305 2825 
Q 1016 2553 972 2059 
L 3022 2063 
z
" transform="scale(0.015625)"/>
       <path id="DejaVuSans-76" d="M 191 3500 
L 800 3500 
L 1894 563 
L 2988 3500 
L 3597 3500 
L 2284 0 
L 1503 0 
L 191 3500 
z
" transform="scale(0.015625)"/>
       <path id="DejaVuSans-6e" d="M 3513 2113 
L 3513 0 
L 2938 0 
L 2938 2094 
Q 2938 2591 2744 2837 
Q 2550 3084 2163 3084 
Q 1697 3084 1428 2787 
Q 1159 2491 1159 1978 
L 1159 0 
L 581 0 
L 581 3500 
L 1159 3500 
L 1159 2956 
Q 1366 3272 1645 3428 
Q 1925 3584 2291 3584 
Q 2894 3584 3203 3211 
Q 3513 2838 3513 2113 
z
" transform="scale(0.015625)"/>
       <path id="DejaVuSans-74" d="M 1172 4494 
L 1172 3500 
L 2356 3500 
L 2356 3053 
L 1172 3053 
L 1172 1153 
Q 1172 725 1289 603 
Q 1406 481 1766 481 
L 2356 481 
L 2356 0 
L 1766 0 
Q 1100 0 847 248 
Q 594 497 594 1153 
L 594 3053 
L 172 3053 
L 172 3500 
L 594 3500 
L 594 4494 
L 1172 4494 
z
" transform="scale(0.015625)"/>
       <path id="DejaVuSans-5f" d="M 3263 -1063 
L 3263 -1509 
L -63 -1509 
L -63 -1063 
L 3263 -1063 
z
" transform="scale(0.015625)"/>
       <path id="DejaVuSans-69" d="M 603 3500 
L 1178 3500 
L 1178 0 
L 603 0 
L 603 3500 
z
M 603 4863 
L 1178 4863 
L 1178 4134 
L 603 4134 
L 603 4863 
z
" transform="scale(0.015625)"/>
       <path id="DejaVuSans-6d" d="M 3328 2828 
Q 3544 3216 3844 3400 
Q 4144 3584 4550 3584 
Q 5097 3584 5394 3201 
Q 5691 2819 5691 2113 
L 5691 0 
L 5113 0 
L 5113 2094 
Q 5113 2597 4934 2840 
Q 4756 3084 4391 3084 
Q 3944 3084 3684 2787 
Q 3425 2491 3425 1978 
L 3425 0 
L 2847 0 
L 2847 2094 
Q 2847 2600 2669 2842 
Q 2491 3084 2119 3084 
Q 1678 3084 1418 2786 
Q 1159 2488 1159 1978 
L 1159 0 
L 581 0 
L 581 3500 
L 1159 3500 
L 1159 2956 
Q 1356 3278 1631 3431 
Q 1906 3584 2284 3584 
Q 2666 3584 2933 3390 
Q 3200 3197 3328 2828 
z
" transform="scale(0.015625)"/>
       <path id="DejaVuSans-6f" d="M 1959 3097 
Q 1497 3097 1228 2736 
Q 959 2375 959 1747 
Q 959 1119 1226 758 
Q 1494 397 1959 397 
Q 2419 397 2687 759 
Q 2956 1122 2956 1747 
Q 2956 2369 2687 2733 
Q 2419 3097 1959 3097 
z
M 1959 3584 
Q 2709 3584 3137 3096 
Q 3566 2609 3566 1747 
Q 3566 888 3137 398 
Q 2709 -91 1959 -91 
Q 1206 -91 779 398 
Q 353 888 353 1747 
Q 353 2609 779 3096 
Q 1206 3584 1959 3584 
z
" transform="scale(0.015625)"/>
       <path id="DejaVuSans-66" d="M 2375 4863 
L 2375 4384 
L 1825 4384 
Q 1516 4384 1395 4259 
Q 1275 4134 1275 3809 
L 1275 3500 
L 2222 3500 
L 2222 3053 
L 1275 3053 
L 1275 0 
L 697 0 
L 697 3053 
L 147 3053 
L 147 3500 
L 697 3500 
L 697 3744 
Q 697 4328 969 4595 
Q 1241 4863 1831 4863 
L 2375 4863 
z
" transform="scale(0.015625)"/>
       <path id="DejaVuSans-73" d="M 2834 3397 
L 2834 2853 
Q 2591 2978 2328 3040 
Q 2066 3103 1784 3103 
Q 1356 3103 1142 2972 
Q 928 2841 928 2578 
Q 928 2378 1081 2264 
Q 1234 2150 1697 2047 
L 1894 2003 
Q 2506 1872 2764 1633 
Q 3022 1394 3022 966 
Q 3022 478 2636 193 
Q 2250 -91 1575 -91 
Q 1294 -91 989 -36 
Q 684 19 347 128 
L 347 722 
Q 666 556 975 473 
Q 1284 391 1588 391 
Q 1994 391 2212 530 
Q 2431 669 2431 922 
Q 2431 1156 2273 1281 
Q 2116 1406 1581 1522 
L 1381 1569 
Q 847 1681 609 1914 
Q 372 2147 372 2553 
Q 372 3047 722 3315 
Q 1072 3584 1716 3584 
Q 2034 3584 2315 3537 
Q 2597 3491 2834 3397 
z
" transform="scale(0.015625)"/>
       <path id="DejaVuSans-20" transform="scale(0.015625)"/>
       <path id="DejaVuSans-5b" d="M 550 4863 
L 1875 4863 
L 1875 4416 
L 1125 4416 
L 1125 -397 
L 1875 -397 
L 1875 -844 
L 550 -844 
L 550 4863 
z
" transform="scale(0.015625)"/>
       <path id="DejaVuSans-b5" d="M 544 -1331 
L 544 3500 
L 1119 3500 
L 1119 1325 
Q 1119 872 1334 640 
Q 1550 409 1972 409 
Q 2434 409 2667 671 
Q 2900 934 2900 1459 
L 2900 3500 
L 3475 3500 
L 3475 806 
Q 3475 619 3529 530 
Q 3584 441 3700 441 
Q 3728 441 3778 458 
Q 3828 475 3916 513 
L 3916 50 
Q 3788 -22 3673 -56 
Q 3559 -91 3450 -91 
Q 3234 -91 3106 31 
Q 2978 153 2931 403 
Q 2775 156 2548 32 
Q 2322 -91 2016 -91 
Q 1697 -91 1473 31 
Q 1250 153 1119 397 
L 1119 -1331 
L 544 -1331 
z
" transform="scale(0.015625)"/>
       <path id="DejaVuSans-5d" d="M 1947 4863 
L 1947 -844 
L 622 -844 
L 622 -397 
L 1369 -397 
L 1369 4416 
L 622 4416 
L 622 4863 
L 1947 4863 
z
" transform="scale(0.015625)"/>
      </defs>
      <use xlink:href="#DejaVuSans-65"/>
      <use xlink:href="#DejaVuSans-76" transform="translate(61.523438 0)"/>
      <use xlink:href="#DejaVuSans-65" transform="translate(120.703125 0)"/>
      <use xlink:href="#DejaVuSans-6e" transform="translate(182.226562 0)"/>
      <use xlink:href="#DejaVuSans-74" transform="translate(245.605469 0)"/>
      <use xlink:href="#DejaVuSans-5f" transform="translate(284.814453 0)"/>
      <use xlink:href="#DejaVuSans-74" transform="translate(334.814453 0)"/>
      <use xlink:href="#DejaVuSans-69" transform="translate(374.023438 0)"/>
      <use xlink:href="#DejaVuSans-6d" transform="translate(401.806641 0)"/>
      <use xlink:href="#DejaVuSans-65" transform="translate(499.21875 0)"/>
      <use xlink:href="#DejaVuSans-5f" transform="translate(560.742188 0)"/>
      <use xlink:href="#DejaVuSans-6f" transform="translate(610.742188 0)"/>
      <use xlink:href="#DejaVuSans-66" transform="translate(671.923828 0)"/>
      <use xlink:href="#DejaVuSans-66" transform="translate(707.128906 0)"/>
      <use xlink:href="#DejaVuSans-73" transform="translate(742.333984 0)"/>
      <use xlink:href="#DejaVuSans-65" transform="translate(794.433594 0)"/>
      <use xlink:href="#DejaVuSans-74" transform="translate(855.957031 0)"/>
      <use xlink:href="#DejaVuSans-20" transform="translate(895.166016 0)"/>
      <use xlink:href="#DejaVuSans-5b" transform="translate(926.953125 0)"/>
      <use xlink:href="#DejaVuSans-b5" transform="translate(965.966797 0)"/>
      <use xlink:href="#DejaVuSans-73" transform="translate(1029.589844 0)"/>
      <use xlink:href="#DejaVuSans-5d" transform="translate(1081.689453 0)"/>
     </g>
    </g>
   </g>
   <g id="matplotlib.axis_2">
    <g id="ytick_1">
     <g id="line2d_7">
      <defs>
       <path id="m95267359c9" d="M 0 0 
L -3.5 0 
" style="stroke: #000000; stroke-width: 0.8"/>
      </defs>
      <g>
       <use xlink:href="#m95267359c9" x="46.965625" y="218.88" style="stroke: #000000; stroke-width: 0.8"/>
      </g>
     </g>
     <g id="text_8">
      <!-- 0 -->
      <g transform="translate(33.603125 222.679219) scale(0.1 -0.1)">
       <use xlink:href="#DejaVuSans-30"/>
      </g>
     </g>
    </g>
    <g id="ytick_2">
     <g id="line2d_8">
      <g>
       <use xlink:href="#m95267359c9" x="46.965625" y="182.555676" style="stroke: #000000; stroke-width: 0.8"/>
      </g>
     </g>
     <g id="text_9">
      <!-- 100 -->
      <g transform="translate(20.878125 186.354894) scale(0.1 -0.1)">
       <defs>
        <path id="DejaVuSans-31" d="M 794 531 
L 1825 531 
L 1825 4091 
L 703 3866 
L 703 4441 
L 1819 4666 
L 2450 4666 
L 2450 531 
L 3481 531 
L 3481 0 
L 794 0 
L 794 531 
z
" transform="scale(0.015625)"/>
       </defs>
       <use xlink:href="#DejaVuSans-31"/>
       <use xlink:href="#DejaVuSans-30" transform="translate(63.623047 0)"/>
       <use xlink:href="#DejaVuSans-30" transform="translate(127.246094 0)"/>
      </g>
     </g>
    </g>
    <g id="ytick_3">
     <g id="line2d_9">
      <g>
       <use xlink:href="#m95267359c9" x="46.965625" y="146.231351" style="stroke: #000000; stroke-width: 0.8"/>
      </g>
     </g>
     <g id="text_10">
      <!-- 200 -->
      <g transform="translate(20.878125 150.03057) scale(0.1 -0.1)">
       <use xlink:href="#DejaVuSans-32"/>
       <use xlink:href="#DejaVuSans-30" transform="translate(63.623047 0)"/>
       <use xlink:href="#DejaVuSans-30" transform="translate(127.246094 0)"/>
      </g>
     </g>
    </g>
    <g id="ytick_4">
     <g id="line2d_10">
      <g>
       <use xlink:href="#m95267359c9" x="46.965625" y="109.907027" style="stroke: #000000; stroke-width: 0.8"/>
      </g>
     </g>
     <g id="text_11">
      <!-- 300 -->
      <g transform="translate(20.878125 113.706246) scale(0.1 -0.1)">
       <use xlink:href="#DejaVuSans-33"/>
       <use xlink:href="#DejaVuSans-30" transform="translate(63.623047 0)"/>
       <use xlink:href="#DejaVuSans-30" transform="translate(127.246094 0)"/>
      </g>
     </g>
    </g>
    <g id="ytick_5">
     <g id="line2d_11">
      <g>
       <use xlink:href="#m95267359c9" x="46.965625" y="73.582703" style="stroke: #000000; stroke-width: 0.8"/>
      </g>
     </g>
     <g id="text_12">
      <!-- 400 -->
      <g transform="translate(20.878125 77.381921) scale(0.1 -0.1)">
       <use xlink:href="#DejaVuSans-34"/>
       <use xlink:href="#DejaVuSans-30" transform="translate(63.623047 0)"/>
       <use xlink:href="#DejaVuSans-30" transform="translate(127.246094 0)"/>
      </g>
     </g>
    </g>
    <g id="ytick_6">
     <g id="line2d_12">
      <g>
       <use xlink:href="#m95267359c9" x="46.965625" y="37.258378" style="stroke: #000000; stroke-width: 0.8"/>
      </g>
     </g>
     <g id="text_13">
      <!-- 500 -->
      <g transform="translate(20.878125 41.057597) scale(0.1 -0.1)">
       <use xlink:href="#DejaVuSans-35"/>
       <use xlink:href="#DejaVuSans-30" transform="translate(63.623047 0)"/>
       <use xlink:href="#DejaVuSans-30" transform="translate(127.246094 0)"/>
      </g>
     </g>
    </g>
    <g id="text_14">
     <!-- [counts] -->
     <g transform="translate(14.798438 138.6925) rotate(-90) scale(0.1 -0.1)">
      <defs>
       <path id="DejaVuSans-63" d="M 3122 3366 
L 3122 2828 
Q 2878 2963 2633 3030 
Q 2388 3097 2138 3097 
Q 1578 3097 1268 2742 
Q 959 2388 959 1747 
Q 959 1106 1268 751 
Q 1578 397 2138 397 
Q 2388 397 2633 464 
Q 2878 531 3122 666 
L 3122 134 
Q 2881 22 2623 -34 
Q 2366 -91 2075 -91 
Q 1284 -91 818 406 
Q 353 903 353 1747 
Q 353 2603 823 3093 
Q 1294 3584 2113 3584 
Q 2378 3584 2631 3529 
Q 2884 3475 3122 3366 
z
" transform="scale(0.015625)"/>
       <path id="DejaVuSans-75" d="M 544 1381 
L 544 3500 
L 1119 3500 
L 1119 1403 
Q 1119 906 1312 657 
Q 1506 409 1894 409 
Q 2359 409 2629 706 
Q 2900 1003 2900 1516 
L 2900 3500 
L 3475 3500 
L 3475 0 
L 2900 0 
L 2900 538 
Q 2691 219 2414 64 
Q 2138 -91 1772 -91 
Q 1169 -91 856 284 
Q 544 659 544 1381 
z
M 1991 3584 
L 1991 3584 
z
" transform="scale(0.015625)"/>
      </defs>
      <use xlink:href="#DejaVuSans-5b"/>
      <use xlink:href="#DejaVuSans-63" transform="translate(39.013672 0)"/>
      <use xlink:href="#DejaVuSans-6f" transform="translate(93.994141 0)"/>
      <use xlink:href="#DejaVuSans-75" transform="translate(155.175781 0)"/>
      <use xlink:href="#DejaVuSans-6e" transform="translate(218.554688 0)"/>
      <use xlink:href="#DejaVuSans-74" transform="translate(281.933594 0)"/>
      <use xlink:href="#DejaVuSans-73" transform="translate(321.142578 0)"/>
      <use xlink:href="#DejaVuSans-5d" transform="translate(373.242188 0)"/>
     </g>
    </g>
   </g>
   <g id="line2d_13">
    <path d="M 62.183807 216.700541 
L 63.198352 216.700541 
L 63.198352 210.525405 
L 64.212898 210.525405 
L 64.212898 209.435676 
L 65.227443 209.435676 
L 65.227443 198.901622 
L 66.241989 198.901622 
L 66.241989 195.995676 
L 67.256534 195.995676 
L 67.256534 188.367568 
L 68.27108 188.367568 
L 68.27108 188.004324 
L 69.285625 188.004324 
L 69.285625 180.012973 
L 70.30017 180.012973 
L 70.30017 177.833514 
L 71.314716 177.833514 
L 71.314716 170.205405 
L 72.329261 170.205405 
L 72.329261 166.572973 
L 73.343807 166.572973 
L 73.343807 152.043243 
L 74.358352 152.043243 
L 74.358352 149.137297 
L 75.372898 149.137297 
L 75.372898 148.410811 
L 76.387443 148.410811 
L 76.387443 149.500541 
L 77.401989 149.500541 
L 77.401989 135.697297 
L 78.416534 135.697297 
L 78.416534 125.163243 
L 79.43108 125.163243 
L 79.43108 132.428108 
L 80.445625 132.428108 
L 80.445625 126.252973 
L 81.46017 126.252973 
L 81.46017 121.894054 
L 82.474716 121.894054 
L 82.474716 102.278919 
L 83.489261 102.278919 
L 83.489261 88.112432 
L 84.503807 88.112432 
L 84.503807 96.103784 
L 85.518352 96.103784 
L 85.518352 102.278919 
L 86.532898 102.278919 
L 86.532898 76.488649 
L 87.547443 76.488649 
L 87.547443 84.116757 
L 88.561989 84.116757 
L 88.561989 75.035676 
L 89.576534 75.035676 
L 89.576534 87.749189 
L 90.59108 87.749189 
L 90.59108 76.125405 
L 91.605625 76.125405 
L 91.605625 76.488649 
L 92.62017 76.488649 
L 92.62017 73.945946 
L 93.634716 73.945946 
L 93.634716 42.343784 
L 94.649261 42.343784 
L 94.649261 55.420541 
L 95.663807 55.420541 
L 95.663807 54.330811 
L 96.678352 54.330811 
L 96.678352 42.707027 
L 97.692898 42.707027 
L 97.692898 43.796757 
L 98.707443 43.796757 
L 98.707443 36.531892 
L 99.721989 36.531892 
L 99.721989 39.801081 
L 100.736534 39.801081 
L 100.736534 34.352432 
L 101.75108 34.352432 
L 101.75108 39.074595 
L 102.765625 39.074595 
L 102.765625 44.886486 
L 103.78017 44.886486 
L 103.78017 41.617297 
L 104.794716 41.617297 
L 104.794716 27.814054 
L 105.809261 27.814054 
L 105.809261 42.343784 
L 106.823807 42.343784 
L 106.823807 17.28 
L 107.838352 17.28 
L 107.838352 39.074595 
L 108.852898 39.074595 
L 108.852898 23.455135 
L 109.867443 23.455135 
L 109.867443 39.801081 
L 110.881989 39.801081 
L 110.881989 21.638919 
L 111.896534 21.638919 
L 111.896534 25.271351 
L 112.91108 25.271351 
L 112.91108 46.702703 
L 113.925625 46.702703 
L 113.925625 37.984865 
L 114.94017 37.984865 
L 114.94017 31.446486 
L 115.954716 31.446486 
L 115.954716 35.805405 
L 116.969261 35.805405 
L 116.969261 44.16 
L 117.983807 44.16 
L 117.983807 38.348108 
L 118.998352 38.348108 
L 118.998352 54.694054 
L 120.012898 54.694054 
L 120.012898 51.424865 
L 121.027443 51.424865 
L 121.027443 51.788108 
L 122.041989 51.788108 
L 122.041989 49.608649 
L 123.056534 49.608649 
L 123.056534 52.151351 
L 124.07108 52.151351 
L 124.07108 55.783784 
L 125.085625 55.783784 
L 125.085625 45.24973 
L 126.10017 45.24973 
L 126.10017 56.147027 
L 128.129261 56.147027 
L 128.129261 53.967568 
L 129.143807 53.967568 
L 129.143807 59.779459 
L 130.158352 59.779459 
L 130.158352 59.052973 
L 131.172898 59.052973 
L 131.172898 58.326486 
L 132.187443 58.326486 
L 132.187443 63.775135 
L 133.201989 63.775135 
L 133.201989 55.783784 
L 134.216534 55.783784 
L 134.216534 59.052973 
L 135.23108 59.052973 
L 135.23108 53.241081 
L 136.245625 53.241081 
L 136.245625 61.595676 
L 137.26017 61.595676 
L 137.26017 60.142703 
L 138.274716 60.142703 
L 138.274716 53.604324 
L 139.289261 53.604324 
L 139.289261 63.048649 
L 140.303807 63.048649 
L 140.303807 76.125405 
L 141.318352 76.125405 
L 141.318352 62.685405 
L 142.332898 62.685405 
L 142.332898 61.595676 
L 143.347443 61.595676 
L 143.347443 71.766486 
L 144.361989 71.766486 
L 144.361989 72.856216 
L 145.376534 72.856216 
L 145.376534 78.304865 
L 146.39108 78.304865 
L 146.39108 69.223784 
L 147.405625 69.223784 
L 147.405625 65.954595 
L 148.42017 65.954595 
L 148.42017 64.138378 
L 149.434716 64.138378 
L 149.434716 69.223784 
L 150.449261 69.223784 
L 150.449261 77.941622 
L 151.463807 77.941622 
L 151.463807 63.775135 
L 152.478352 63.775135 
L 152.478352 79.394595 
L 153.492898 79.394595 
L 153.492898 66.317838 
L 154.507443 66.317838 
L 154.507443 76.488649 
L 155.521989 76.488649 
L 155.521989 64.864865 
L 156.536534 64.864865 
L 156.536534 76.488649 
L 157.55108 76.488649 
L 157.55108 66.681081 
L 158.565625 66.681081 
L 158.565625 69.95027 
L 159.58017 69.95027 
L 159.58017 70.676757 
L 160.594716 70.676757 
L 160.594716 66.317838 
L 161.609261 66.317838 
L 161.609261 78.304865 
L 162.623807 78.304865 
L 162.623807 76.125405 
L 163.638352 76.125405 
L 163.638352 67.044324 
L 164.652898 67.044324 
L 164.652898 91.018378 
L 165.667443 91.018378 
L 165.667443 77.941622 
L 166.681989 77.941622 
L 166.681989 77.578378 
L 167.696534 77.578378 
L 167.696534 86.296216 
L 168.71108 86.296216 
L 168.71108 96.83027 
L 169.725625 96.83027 
L 169.725625 91.744865 
L 170.74017 91.744865 
L 170.74017 97.556757 
L 171.754716 97.556757 
L 171.754716 100.099459 
L 172.769261 100.099459 
L 172.769261 101.189189 
L 173.783807 101.189189 
L 173.783807 111.723243 
L 174.798352 111.723243 
L 174.798352 109.543784 
L 175.812898 109.543784 
L 175.812898 111.723243 
L 176.827443 111.723243 
L 176.827443 126.616216 
L 177.841989 126.616216 
L 177.841989 122.620541 
L 178.856534 122.620541 
L 178.856534 123.71027 
L 179.87108 123.71027 
L 179.87108 138.24 
L 180.885625 138.24 
L 180.885625 141.145946 
L 181.90017 141.145946 
L 181.90017 142.598919 
L 182.914716 142.598919 
L 182.914716 151.316757 
L 183.929261 151.316757 
L 183.929261 157.128649 
L 184.943807 157.128649 
L 184.943807 158.218378 
L 185.958352 158.218378 
L 185.958352 165.12 
L 186.972898 165.12 
L 186.972898 166.936216 
L 187.987443 166.936216 
L 187.987443 177.833514 
L 189.001989 177.833514 
L 189.001989 184.735135 
L 190.016534 184.735135 
L 190.016534 178.56 
L 191.03108 178.56 
L 191.03108 182.555676 
L 192.045625 182.555676 
L 192.045625 188.730811 
L 193.06017 188.730811 
L 193.06017 190.547027 
L 194.074716 190.547027 
L 194.074716 194.542703 
L 195.089261 194.542703 
L 195.089261 202.170811 
L 196.103807 202.170811 
L 196.103807 205.076757 
L 197.118352 205.076757 
L 197.118352 209.798919 
L 198.132898 209.798919 
L 198.132898 210.888649 
L 199.147443 210.888649 
L 199.147443 212.704865 
L 200.161989 212.704865 
L 200.161989 215.974054 
L 201.176534 215.974054 
L 201.176534 217.063784 
L 202.19108 217.063784 
L 202.19108 218.153514 
L 204.22017 218.153514 
L 204.22017 218.88 
L 219.438352 218.88 
L 219.438352 218.153514 
L 220.452898 218.153514 
L 220.452898 214.521081 
L 221.467443 214.521081 
L 221.467443 208.345946 
L 222.481989 208.345946 
L 222.481989 205.076757 
L 223.496534 205.076757 
L 223.496534 196.722162 
L 224.51108 196.722162 
L 224.51108 195.995676 
L 225.525625 195.995676 
L 225.525625 192 
L 226.54017 192 
L 226.54017 184.735135 
L 227.554716 184.735135 
L 227.554716 180.739459 
L 228.569261 180.739459 
L 228.569261 181.465946 
L 229.583807 181.465946 
L 229.583807 178.923243 
L 230.598352 178.923243 
L 230.598352 171.658378 
L 231.612898 171.658378 
L 231.612898 164.03027 
L 232.627443 164.03027 
L 232.627443 168.389189 
L 233.641989 168.389189 
L 233.641989 167.662703 
L 234.656534 167.662703 
L 234.656534 161.124324 
L 235.67108 161.124324 
L 235.67108 155.312432 
L 236.685625 155.312432 
L 236.685625 144.051892 
L 237.70017 144.051892 
L 237.70017 150.59027 
L 238.714716 150.59027 
L 238.714716 146.231351 
L 239.729261 146.231351 
L 239.729261 145.141622 
L 240.743807 145.141622 
L 240.743807 140.782703 
L 241.758352 140.782703 
L 241.758352 137.876757 
L 242.772898 137.876757 
L 242.772898 126.616216 
L 243.787443 126.616216 
L 243.787443 128.432432 
L 244.801989 128.432432 
L 244.801989 120.441081 
L 245.816534 120.441081 
L 245.816534 119.351351 
L 246.83108 119.351351 
L 246.83108 114.265946 
L 247.845625 114.265946 
L 247.845625 113.902703 
L 248.86017 113.902703 
L 248.86017 108.454054 
L 249.874716 108.454054 
L 249.874716 121.167568 
L 250.889261 121.167568 
L 250.889261 112.812973 
L 251.903807 112.812973 
L 251.903807 118.988108 
L 252.918352 118.988108 
L 252.918352 110.633514 
L 253.932898 110.633514 
L 253.932898 104.095135 
L 254.947443 104.095135 
L 254.947443 103.368649 
L 255.961989 103.368649 
L 255.961989 102.642162 
L 256.976534 102.642162 
L 256.976534 93.924324 
L 257.99108 93.924324 
L 257.99108 91.381622 
L 259.005625 91.381622 
L 259.005625 87.385946 
L 260.02017 87.385946 
L 260.02017 92.834595 
L 261.034716 92.834595 
L 261.034716 88.475676 
L 262.049261 88.475676 
L 262.049261 95.377297 
L 263.063807 95.377297 
L 263.063807 84.843243 
L 264.078352 84.843243 
L 264.078352 93.924324 
L 265.092898 93.924324 
L 265.092898 82.663784 
L 266.107443 82.663784 
L 266.107443 99.372973 
L 267.121989 99.372973 
L 267.121989 88.475676 
L 268.136534 88.475676 
L 268.136534 96.83027 
L 269.15108 96.83027 
L 269.15108 96.467027 
L 270.165625 96.467027 
L 270.165625 92.834595 
L 271.18017 92.834595 
L 271.18017 97.92 
L 272.194716 97.92 
L 272.194716 101.189189 
L 273.209261 101.189189 
L 273.209261 103.005405 
L 274.223807 103.005405 
L 274.223807 95.740541 
L 275.238352 95.740541 
L 275.238352 104.458378 
L 276.252898 104.458378 
L 276.252898 109.543784 
L 277.267443 109.543784 
L 277.267443 112.086486 
L 278.281989 112.086486 
L 278.281989 114.265946 
L 279.296534 114.265946 
L 279.296534 104.821622 
L 280.31108 104.821622 
L 280.31108 109.543784 
L 281.325625 109.543784 
L 281.325625 102.642162 
L 282.34017 102.642162 
L 282.34017 112.812973 
L 283.354716 112.812973 
L 283.354716 118.261622 
L 284.369261 118.261622 
L 284.369261 108.090811 
L 285.383807 108.090811 
L 285.383807 113.539459 
L 286.398352 113.539459 
L 286.398352 126.616216 
L 287.412898 126.616216 
L 287.412898 109.180541 
L 288.427443 109.180541 
L 288.427443 100.462703 
L 289.441989 100.462703 
L 289.441989 124.8 
L 290.456534 124.8 
L 290.456534 122.983784 
L 291.47108 122.983784 
L 291.47108 108.090811 
L 292.485625 108.090811 
L 292.485625 113.902703 
L 293.50017 113.902703 
L 293.50017 129.522162 
L 294.514716 129.522162 
L 294.514716 116.808649 
L 295.529261 116.808649 
L 295.529261 143.325405 
L 296.543807 143.325405 
L 296.543807 129.158919 
L 297.558352 129.158919 
L 297.558352 121.894054 
L 298.572898 121.894054 
L 298.572898 126.252973 
L 299.587443 126.252973 
L 299.587443 133.517838 
L 300.601989 133.517838 
L 300.601989 141.872432 
L 301.616534 141.872432 
L 301.616534 128.432432 
L 302.63108 128.432432 
L 302.63108 130.248649 
L 303.645625 130.248649 
L 303.645625 130.975135 
L 304.66017 130.975135 
L 304.66017 130.611892 
L 305.674716 130.611892 
L 305.674716 137.876757 
L 306.689261 137.876757 
L 306.689261 144.778378 
L 307.703807 144.778378 
L 307.703807 143.688649 
L 308.718352 143.688649 
L 308.718352 140.782703 
L 309.732898 140.782703 
L 309.732898 137.15027 
L 310.747443 137.15027 
L 310.747443 150.227027 
L 311.761989 150.227027 
L 311.761989 141.509189 
L 312.776534 141.509189 
L 312.776534 150.59027 
L 313.79108 150.59027 
L 313.79108 145.504865 
L 314.805625 145.504865 
L 314.805625 143.325405 
L 315.82017 143.325405 
L 315.82017 149.137297 
L 316.834716 149.137297 
L 316.834716 157.855135 
L 317.849261 157.855135 
L 317.849261 153.496216 
L 318.863807 153.496216 
L 318.863807 149.500541 
L 319.878352 149.500541 
L 319.878352 153.496216 
L 320.892898 153.496216 
L 320.892898 160.397838 
L 321.907443 160.397838 
L 321.907443 155.675676 
L 322.921989 155.675676 
L 322.921989 162.577297 
L 323.936534 162.577297 
L 323.936534 153.496216 
L 324.95108 153.496216 
L 324.95108 168.389189 
L 325.965625 168.389189 
L 325.965625 164.03027 
L 326.98017 164.03027 
L 326.98017 170.568649 
L 327.994716 170.568649 
L 327.994716 157.128649 
L 329.009261 157.128649 
L 329.009261 174.201081 
L 330.023807 174.201081 
L 330.023807 158.218378 
L 331.038352 158.218378 
L 331.038352 173.474595 
L 332.052898 173.474595 
L 332.052898 177.833514 
L 333.067443 177.833514 
L 333.067443 178.923243 
L 334.081989 178.923243 
L 334.081989 179.64973 
L 335.096534 179.64973 
L 335.096534 190.91027 
L 336.11108 190.91027 
L 336.11108 189.094054 
L 337.125625 189.094054 
L 337.125625 185.098378 
L 338.14017 185.098378 
L 338.14017 189.457297 
L 339.154716 189.457297 
L 339.154716 186.914595 
L 340.169261 186.914595 
L 340.169261 193.452973 
L 341.183807 193.452973 
L 341.183807 193.816216 
L 342.198352 193.816216 
L 342.198352 192 
L 343.212898 192 
L 343.212898 202.170811 
L 344.227443 202.170811 
L 344.227443 199.628108 
L 345.241989 199.628108 
L 345.241989 198.538378 
L 346.256534 198.538378 
L 346.256534 200.717838 
L 347.27108 200.717838 
L 347.27108 203.260541 
L 348.285625 203.260541 
L 348.285625 207.256216 
L 349.30017 207.256216 
L 349.30017 206.166486 
L 350.314716 206.166486 
L 350.314716 208.709189 
L 353.358352 208.709189 
L 353.358352 211.978378 
L 354.372898 211.978378 
L 354.372898 214.157838 
L 355.387443 214.157838 
L 355.387443 211.978378 
L 356.401989 211.978378 
L 356.401989 213.068108 
L 357.416534 213.068108 
L 357.416534 215.974054 
L 358.43108 215.974054 
L 358.43108 215.610811 
L 359.445625 215.610811 
L 359.445625 217.427027 
L 360.46017 217.427027 
L 360.46017 216.337297 
L 361.474716 216.337297 
L 361.474716 217.427027 
L 362.489261 217.427027 
L 362.489261 218.516757 
L 364.518352 218.516757 
L 364.518352 218.88 
L 365.532898 218.88 
L 365.532898 218.516757 
L 366.547443 218.516757 
L 366.547443 218.516757 
" clip-path="url(#p4a779833d5)" style="fill: none; stroke: #1f77b4; stroke-width: 1.5; stroke-linecap: square"/>
   </g>
   <g id="patch_3">
    <path d="M 46.965625 228.96 
L 46.965625 7.2 
" style="fill: none; stroke: #000000; stroke-width: 0.8; stroke-linejoin: miter; stroke-linecap: square"/>
   </g>
   <g id="patch_4">
    <path d="M 381.765625 228.96 
L 381.765625 7.2 
" style="fill: none; stroke: #000000; stroke-width: 0.8; stroke-linejoin: miter; stroke-linecap: square"/>
   </g>
   <g id="patch_5">
    <path d="M 46.965625 228.96 
L 381.765625 228.96 
" style="fill: none; stroke: #000000; stroke-width: 0.8; stroke-linejoin: miter; stroke-linecap: square"/>
   </g>
   <g id="patch_6">
    <path d="M 46.965625 7.2 
L 381.765625 7.2 
" style="fill: none; stroke: #000000; stroke-width: 0.8; stroke-linejoin: miter; stroke-linecap: square"/>
   </g>
  </g>
 </g>
 <defs>
  <clipPath id="p4a779833d5">
   <rect x="46.965625" y="7.2" width="334.8" height="221.76"/>
  </clipPath>
 </defs>
</svg>
