<?xml version="1.0" encoding="utf-8" standalone="no"?>
<!DOCTYPE svg PUBLIC "-//W3C//DTD SVG 1.1//EN"
  "http://www.w3.org/Graphics/SVG/1.1/DTD/svg11.dtd">
<svg xmlns:xlink="http://www.w3.org/1999/xlink" width="872.39952pt" height="296.39952pt" viewBox="0 0 872.39952 296.39952" xmlns="http://www.w3.org/2000/svg" version="1.1">
 <metadata>
  <rdf:RDF xmlns:dc="http://purl.org/dc/elements/1.1/" xmlns:cc="http://creativecommons.org/ns#" xmlns:rdf="http://www.w3.org/1999/02/22-rdf-syntax-ns#">
   <cc:Work>
    <dc:type rdf:resource="http://purl.org/dc/dcmitype/StillImage"/>
    <dc:date>2026-04-22T12:51:02.162175</dc:date>
    <dc:format>image/svg+xml</dc:format>
    <dc:creator>
     <cc:Agent>
      <dc:title>Matplotlib v3.10.8, https://matplotlib.org/</dc:title>
     </cc:Agent>
    </dc:creator>
   </cc:Work>
  </rdf:RDF>
 </metadata>
 <defs>
  <style type="text/css">*{stroke-linejoin: round; stroke-linecap: butt}</style>
 </defs>
 <g id="figure_1">
  <g id="patch_1">
   <path d="M 0 296.39952 
L 872.39952 296.39952 
L 872.39952 0 
L 0 0 
z
" style="fill: #ffffff"/>
  </g>
  <g id="axes_1">
   <g id="patch_2">
    <path d="M 53.328125 257.158895 
L 414.59976 257.158895 
L 414.59976 7.2 
L 53.328125 7.2 
z
" style="fill: #ffffff"/>
   </g>
   <g id="matplotlib.axis_1">
    <g id="xtick_1">
     <g id="line2d_1">
      <defs>
       <path id="m843253b0c0" d="M 0 0 
L 0 3.5 
" style="stroke: #000000; stroke-width: 0.8"/>
      </defs>
      <g>
       <use xlink:href="#m843253b0c0" x="68.920174" y="257.158895" style="stroke: #000000; stroke-width: 0.8"/>
      </g>
     </g>
     <g id="text_1">
      <!-- 0 -->
      <g transform="translate(65.738924 271.757332) scale(0.1 -0.1)">
       <defs>
        <path id="DejaVuSans-30" d="M 2034 4250 
Q 1547 4250 1301 3770 
Q 1056 3291 1056 2328 
Q 1056 1369 1301 889 
Q 1547 409 2034 409 
Q 2525 409 2770 889 
Q 3016 1369 3016 2328 
Q 3016 3291 2770 3770 
Q 2525 4250 2034 4250 
z
M 2034 4750 
Q 2819 4750 3233 4129 
Q 3647 3509 3647 2328 
Q 3647 1150 3233 529 
Q 2819 -91 2034 -91 
Q 1250 -91 836 529 
Q 422 1150 422 2328 
Q 422 3509 836 4129 
Q 1250 4750 2034 4750 
z
" transform="scale(0.015625)"/>
       </defs>
       <use xlink:href="#DejaVuSans-30"/>
      </g>
     </g>
    </g>
    <g id="xtick_2">
     <g id="line2d_2">
      <g>
       <use xlink:href="#m843253b0c0" x="134.976216" y="257.158895" style="stroke: #000000; stroke-width: 0.8"/>
      </g>
     </g>
     <g id="text_2">
      <!-- 1000 -->
      <g transform="translate(122.251216 271.757332) scale(0.1 -0.1)">
       <defs>
        <path id="DejaVuSans-31" d="M 794 531 
L 1825 531 
L 1825 4091 
L 703 3866 
L 703 4441 
L 1819 4666 
L 2450 4666 
L 2450 531 
L 3481 531 
L 3481 0 
L 794 0 
L 794 531 
z
" transform="scale(0.015625)"/>
       </defs>
       <use xlink:href="#DejaVuSans-31"/>
       <use xlink:href="#DejaVuSans-30" transform="translate(63.623047 0)"/>
       <use xlink:href="#DejaVuSans-30" transform="translate(127.246094 0)"/>
       <use xlink:href="#DejaVuSans-30" transform="translate(190.869141 0)"/>
      </g>
     </g>
    </g>
    <g id="xtick_3">
     <g id="line2d_3">
      <g>
       <use xlink:href="#m843253b0c0" x="201.032257" y="257.158895" style="stroke: #000000; stroke-width: 0.8"/>
      </g>
     </g>
     <g id="text_3">
      <!-- 2000 -->
      <g transform="translate(188.307257 271.757332) scale(0.1 -0.1)">
       <defs>
        <path id="DejaVuSans-32" d="M 1228 531 
L 3431 531 
L 3431 0 
L 469 0 
L 469 531 
Q 828 903 1448 1529 
Q 2069 2156 2228 2338 
Q 2531 2678 2651 2914 
Q 2772 3150 2772 3378 
Q 2772 3750 2511 3984 
Q 2250 4219 1831 4219 
Q 1534 4219 1204 4116 
Q 875 4013 500 3803 
L 500 4441 
Q 881 4594 1212 4672 
Q 1544 4750 1819 4750 
Q 2544 4750 2975 4387 
Q 3406 4025 3406 3419 
Q 3406 3131 3298 2873 
Q 3191 2616 2906 2266 
Q 2828 2175 2409 1742 
Q 1991 1309 1228 531 
z
" transform="scale(0.015625)"/>
       </defs>
       <use xlink:href="#DejaVuSans-32"/>
       <use xlink:href="#DejaVuSans-30" transform="translate(63.623047 0)"/>
       <use xlink:href="#DejaVuSans-30" transform="translate(127.246094 0)"/>
       <use xlink:href="#DejaVuSans-30" transform="translate(190.869141 0)"/>
      </g>
     </g>
    </g>
    <g id="xtick_4">
     <g id="line2d_4">
      <g>
       <use xlink:href="#m843253b0c0" x="267.088298" y="257.158895" style="stroke: #000000; stroke-width: 0.8"/>
      </g>
     </g>
     <g id="text_4">
      <!-- 3000 -->
      <g transform="translate(254.363298 271.757332) scale(0.1 -0.1)">
       <defs>
        <path id="DejaVuSans-33" d="M 2597 2516 
Q 3050 2419 3304 2112 
Q 3559 1806 3559 1356 
Q 3559 666 3084 287 
Q 2609 -91 1734 -91 
Q 1441 -91 1130 -33 
Q 819 25 488 141 
L 488 750 
Q 750 597 1062 519 
Q 1375 441 1716 441 
Q 2309 441 2620 675 
Q 2931 909 2931 1356 
Q 2931 1769 2642 2001 
Q 2353 2234 1838 2234 
L 1294 2234 
L 1294 2753 
L 1863 2753 
Q 2328 2753 2575 2939 
Q 2822 3125 2822 3475 
Q 2822 3834 2567 4026 
Q 2313 4219 1838 4219 
Q 1578 4219 1281 4162 
Q 984 4106 628 3988 
L 628 4550 
Q 988 4650 1302 4700 
Q 1616 4750 1894 4750 
Q 2613 4750 3031 4423 
Q 3450 4097 3450 3541 
Q 3450 3153 3228 2886 
Q 3006 2619 2597 2516 
z
" transform="scale(0.015625)"/>
       </defs>
       <use xlink:href="#DejaVuSans-33"/>
       <use xlink:href="#DejaVuSans-30" transform="translate(63.623047 0)"/>
       <use xlink:href="#DejaVuSans-30" transform="translate(127.246094 0)"/>
       <use xlink:href="#DejaVuSans-30" transform="translate(190.869141 0)"/>
      </g>
     </g>
    </g>
    <g id="xtick_5">
     <g id="line2d_5">
      <g>
       <use xlink:href="#m843253b0c0" x="333.144339" y="257.158895" style="stroke: #000000; stroke-width: 0.8"/>
      </g>
     </g>
     <g id="text_5">
      <!-- 4000 -->
      <g transform="translate(320.419339 271.757332) scale(0.1 -0.1)">
       <defs>
        <path id="DejaVuSans-34" d="M 2419 4116 
L 825 1625 
L 2419 1625 
L 2419 4116 
z
M 2253 4666 
L 3047 4666 
L 3047 1625 
L 3713 1625 
L 3713 1100 
L 3047 1100 
L 3047 0 
L 2419 0 
L 2419 1100 
L 313 1100 
L 313 1709 
L 2253 4666 
z
" transform="scale(0.015625)"/>
       </defs>
       <use xlink:href="#DejaVuSans-34"/>
       <use xlink:href="#DejaVuSans-30" transform="translate(63.623047 0)"/>
       <use xlink:href="#DejaVuSans-30" transform="translate(127.246094 0)"/>
       <use xlink:href="#DejaVuSans-30" transform="translate(190.869141 0)"/>
      </g>
     </g>
    </g>
    <g id="xtick_6">
     <g id="line2d_6">
      <g>
       <use xlink:href="#m843253b0c0" x="399.20038" y="257.158895" style="stroke: #000000; stroke-width: 0.8"/>
      </g>
     </g>
     <g id="text_6">
      <!-- 5000 -->
      <g transform="translate(386.47538 271.757332) scale(0.1 -0.1)">
       <defs>
        <path id="DejaVuSans-35" d="M 691 4666 
L 3169 4666 
L 3169 4134 
L 1269 4134 
L 1269 2991 
Q 1406 3038 1543 3061 
Q 1681 3084 1819 3084 
Q 2600 3084 3056 2656 
Q 3513 2228 3513 1497 
Q 3513 744 3044 326 
Q 2575 -91 1722 -91 
Q 1428 -91 1123 -41 
Q 819 9 494 109 
L 494 744 
Q 775 591 1075 516 
Q 1375 441 1709 441 
Q 2250 441 2565 725 
Q 2881 1009 2881 1497 
Q 2881 1984 2565 2268 
Q 2250 2553 1709 2553 
Q 1456 2553 1204 2497 
Q 953 2441 691 2322 
L 691 4666 
z
" transform="scale(0.015625)"/>
       </defs>
       <use xlink:href="#DejaVuSans-35"/>
       <use xlink:href="#DejaVuSans-30" transform="translate(63.623047 0)"/>
       <use xlink:href="#DejaVuSans-30" transform="translate(127.246094 0)"/>
       <use xlink:href="#DejaVuSans-30" transform="translate(190.869141 0)"/>
      </g>
     </g>
    </g>
    <g id="text_7">
     <!-- birth_time [µs] -->
     <g transform="translate(197.14363 285.435457) scale(0.1 -0.1)">
      <defs>
       <path id="DejaVuSans-62" d="M 3116 1747 
Q 3116 2381 2855 2742 
Q 2594 3103 2138 3103 
Q 1681 3103 1420 2742 
Q 1159 2381 1159 1747 
Q 1159 1113 1420 752 
Q 1681 391 2138 391 
Q 2594 391 2855 752 
Q 3116 1113 3116 1747 
z
M 1159 2969 
Q 1341 3281 1617 3432 
Q 1894 3584 2278 3584 
Q 2916 3584 3314 3078 
Q 3713 2572 3713 1747 
Q 3713 922 3314 415 
Q 2916 -91 2278 -91 
Q 1894 -91 1617 61 
Q 1341 213 1159 525 
L 1159 0 
L 581 0 
L 581 4863 
L 1159 4863 
L 1159 2969 
z
" transform="scale(0.015625)"/>
       <path id="DejaVuSans-69" d="M 603 3500 
L 1178 3500 
L 1178 0 
L 603 0 
L 603 3500 
z
M 603 4863 
L 1178 4863 
L 1178 4134 
L 603 4134 
L 603 4863 
z
" transform="scale(0.015625)"/>
       <path id="DejaVuSans-72" d="M 2631 2963 
Q 2534 3019 2420 3045 
Q 2306 3072 2169 3072 
Q 1681 3072 1420 2755 
Q 1159 2438 1159 1844 
L 1159 0 
L 581 0 
L 581 3500 
L 1159 3500 
L 1159 2956 
Q 1341 3275 1631 3429 
Q 1922 3584 2338 3584 
Q 2397 3584 2469 3576 
Q 2541 3569 2628 3553 
L 2631 2963 
z
" transform="scale(0.015625)"/>
       <path id="DejaVuSans-74" d="M 1172 4494 
L 1172 3500 
L 2356 3500 
L 2356 3053 
L 1172 3053 
L 1172 1153 
Q 1172 725 1289 603 
Q 1406 481 1766 481 
L 2356 481 
L 2356 0 
L 1766 0 
Q 1100 0 847 248 
Q 594 497 594 1153 
L 594 3053 
L 172 3053 
L 172 3500 
L 594 3500 
L 594 4494 
L 1172 4494 
z
" transform="scale(0.015625)"/>
       <path id="DejaVuSans-68" d="M 3513 2113 
L 3513 0 
L 2938 0 
L 2938 2094 
Q 2938 2591 2744 2837 
Q 2550 3084 2163 3084 
Q 1697 3084 1428 2787 
Q 1159 2491 1159 1978 
L 1159 0 
L 581 0 
L 581 4863 
L 1159 4863 
L 1159 2956 
Q 1366 3272 1645 3428 
Q 1925 3584 2291 3584 
Q 2894 3584 3203 3211 
Q 3513 2838 3513 2113 
z
" transform="scale(0.015625)"/>
       <path id="DejaVuSans-5f" d="M 3263 -1063 
L 3263 -1509 
L -63 -1509 
L -63 -1063 
L 3263 -1063 
z
" transform="scale(0.015625)"/>
       <path id="DejaVuSans-6d" d="M 3328 2828 
Q 3544 3216 3844 3400 
Q 4144 3584 4550 3584 
Q 5097 3584 5394 3201 
Q 5691 2819 5691 2113 
L 5691 0 
L 5113 0 
L 5113 2094 
Q 5113 2597 4934 2840 
Q 4756 3084 4391 3084 
Q 3944 3084 3684 2787 
Q 3425 2491 3425 1978 
L 3425 0 
L 2847 0 
L 2847 2094 
Q 2847 2600 2669 2842 
Q 2491 3084 2119 3084 
Q 1678 3084 1418 2786 
Q 1159 2488 1159 1978 
L 1159 0 
L 581 0 
L 581 3500 
L 1159 3500 
L 1159 2956 
Q 1356 3278 1631 3431 
Q 1906 3584 2284 3584 
Q 2666 3584 2933 3390 
Q 3200 3197 3328 2828 
z
" transform="scale(0.015625)"/>
       <path id="DejaVuSans-65" d="M 3597 1894 
L 3597 1613 
L 953 1613 
Q 991 1019 1311 708 
Q 1631 397 2203 397 
Q 2534 397 2845 478 
Q 3156 559 3463 722 
L 3463 178 
Q 3153 47 2828 -22 
Q 2503 -91 2169 -91 
Q 1331 -91 842 396 
Q 353 884 353 1716 
Q 353 2575 817 3079 
Q 1281 3584 2069 3584 
Q 2775 3584 3186 3129 
Q 3597 2675 3597 1894 
z
M 3022 2063 
Q 3016 2534 2758 2815 
Q 2500 3097 2075 3097 
Q 1594 3097 1305 2825 
Q 1016 2553 972 2059 
L 3022 2063 
z
" transform="scale(0.015625)"/>
       <path id="DejaVuSans-20" transform="scale(0.015625)"/>
       <path id="DejaVuSans-5b" d="M 550 4863 
L 1875 4863 
L 1875 4416 
L 1125 4416 
L 1125 -397 
L 1875 -397 
L 1875 -844 
L 550 -844 
L 550 4863 
z
" transform="scale(0.015625)"/>
       <path id="DejaVuSans-b5" d="M 544 -1331 
L 544 3500 
L 1119 3500 
L 1119 1325 
Q 1119 872 1334 640 
Q 1550 409 1972 409 
Q 2434 409 2667 671 
Q 2900 934 2900 1459 
L 2900 3500 
L 3475 3500 
L 3475 806 
Q 3475 619 3529 530 
Q 3584 441 3700 441 
Q 3728 441 3778 458 
Q 3828 475 3916 513 
L 3916 50 
Q 3788 -22 3673 -56 
Q 3559 -91 3450 -91 
Q 3234 -91 3106 31 
Q 2978 153 2931 403 
Q 2775 156 2548 32 
Q 2322 -91 2016 -91 
Q 1697 -91 1473 31 
Q 1250 153 1119 397 
L 1119 -1331 
L 544 -1331 
z
" transform="scale(0.015625)"/>
       <path id="DejaVuSans-73" d="M 2834 3397 
L 2834 2853 
Q 2591 2978 2328 3040 
Q 2066 3103 1784 3103 
Q 1356 3103 1142 2972 
Q 928 2841 928 2578 
Q 928 2378 1081 2264 
Q 1234 2150 1697 2047 
L 1894 2003 
Q 2506 1872 2764 1633 
Q 3022 1394 3022 966 
Q 3022 478 2636 193 
Q 2250 -91 1575 -91 
Q 1294 -91 989 -36 
Q 684 19 347 128 
L 347 722 
Q 666 556 975 473 
Q 1284 391 1588 391 
Q 1994 391 2212 530 
Q 2431 669 2431 922 
Q 2431 1156 2273 1281 
Q 2116 1406 1581 1522 
L 1381 1569 
Q 847 1681 609 1914 
Q 372 2147 372 2553 
Q 372 3047 722 3315 
Q 1072 3584 1716 3584 
Q 2034 3584 2315 3537 
Q 2597 3491 2834 3397 
z
" transform="scale(0.015625)"/>
       <path id="DejaVuSans-5d" d="M 1947 4863 
L 1947 -844 
L 622 -844 
L 622 -397 
L 1369 -397 
L 1369 4416 
L 622 4416 
L 622 4863 
L 1947 4863 
z
" transform="scale(0.015625)"/>
      </defs>
      <use xlink:href="#DejaVuSans-62"/>
      <use xlink:href="#DejaVuSans-69" transform="translate(63.476562 0)"/>
      <use xlink:href="#DejaVuSans-72" transform="translate(91.259766 0)"/>
      <use xlink:href="#DejaVuSans-74" transform="translate(132.373047 0)"/>
      <use xlink:href="#DejaVuSans-68" transform="translate(171.582031 0)"/>
      <use xlink:href="#DejaVuSans-5f" transform="translate(234.960938 0)"/>
      <use xlink:href="#DejaVuSans-74" transform="translate(284.960938 0)"/>
      <use xlink:href="#DejaVuSans-69" transform="translate(324.169922 0)"/>
      <use xlink:href="#DejaVuSans-6d" transform="translate(351.953125 0)"/>
      <use xlink:href="#DejaVuSans-65" transform="translate(449.365234 0)"/>
      <use xlink:href="#DejaVuSans-20" transform="translate(510.888672 0)"/>
      <use xlink:href="#DejaVuSans-5b" transform="translate(542.675781 0)"/>
      <use xlink:href="#DejaVuSans-b5" transform="translate(581.689453 0)"/>
      <use xlink:href="#DejaVuSans-73" transform="translate(645.3125 0)"/>
      <use xlink:href="#DejaVuSans-5d" transform="translate(697.412109 0)"/>
     </g>
    </g>
   </g>
   <g id="matplotlib.axis_2">
    <g id="ytick_1">
     <g id="line2d_7">
      <defs>
       <path id="mfb891e8735" d="M 0 0 
L -3.5 0 
" style="stroke: #000000; stroke-width: 0.8"/>
      </defs>
      <g>
       <use xlink:href="#mfb891e8735" x="53.328125" y="245.797127" style="stroke: #000000; stroke-width: 0.8"/>
      </g>
     </g>
     <g id="text_8">
      <!-- 0 -->
      <g transform="translate(39.965625 249.596346) scale(0.1 -0.1)">
       <use xlink:href="#DejaVuSans-30"/>
      </g>
     </g>
    </g>
    <g id="ytick_2">
     <g id="line2d_8">
      <g>
       <use xlink:href="#mfb891e8735" x="53.328125" y="209.584321" style="stroke: #000000; stroke-width: 0.8"/>
      </g>
     </g>
     <g id="text_9">
      <!-- 200 -->
      <g transform="translate(27.240625 213.38354) scale(0.1 -0.1)">
       <use xlink:href="#DejaVuSans-32"/>
       <use xlink:href="#DejaVuSans-30" transform="translate(63.623047 0)"/>
       <use xlink:href="#DejaVuSans-30" transform="translate(127.246094 0)"/>
      </g>
     </g>
    </g>
    <g id="ytick_3">
     <g id="line2d_9">
      <g>
       <use xlink:href="#mfb891e8735" x="53.328125" y="173.371515" style="stroke: #000000; stroke-width: 0.8"/>
      </g>
     </g>
     <g id="text_10">
      <!-- 400 -->
      <g transform="translate(27.240625 177.170733) scale(0.1 -0.1)">
       <use xlink:href="#DejaVuSans-34"/>
       <use xlink:href="#DejaVuSans-30" transform="translate(63.623047 0)"/>
       <use xlink:href="#DejaVuSans-30" transform="translate(127.246094 0)"/>
      </g>
     </g>
    </g>
    <g id="ytick_4">
     <g id="line2d_10">
      <g>
       <use xlink:href="#mfb891e8735" x="53.328125" y="137.158708" style="stroke: #000000; stroke-width: 0.8"/>
      </g>
     </g>
     <g id="text_11">
      <!-- 600 -->
      <g transform="translate(27.240625 140.957927) scale(0.1 -0.1)">
       <defs>
        <path id="DejaVuSans-36" d="M 2113 2584 
Q 1688 2584 1439 2293 
Q 1191 2003 1191 1497 
Q 1191 994 1439 701 
Q 1688 409 2113 409 
Q 2538 409 2786 701 
Q 3034 994 3034 1497 
Q 3034 2003 2786 2293 
Q 2538 2584 2113 2584 
z
M 3366 4563 
L 3366 3988 
Q 3128 4100 2886 4159 
Q 2644 4219 2406 4219 
Q 1781 4219 1451 3797 
Q 1122 3375 1075 2522 
Q 1259 2794 1537 2939 
Q 1816 3084 2150 3084 
Q 2853 3084 3261 2657 
Q 3669 2231 3669 1497 
Q 3669 778 3244 343 
Q 2819 -91 2113 -91 
Q 1303 -91 875 529 
Q 447 1150 447 2328 
Q 447 3434 972 4092 
Q 1497 4750 2381 4750 
Q 2619 4750 2861 4703 
Q 3103 4656 3366 4563 
z
" transform="scale(0.015625)"/>
       </defs>
       <use xlink:href="#DejaVuSans-36"/>
       <use xlink:href="#DejaVuSans-30" transform="translate(63.623047 0)"/>
       <use xlink:href="#DejaVuSans-30" transform="translate(127.246094 0)"/>
      </g>
     </g>
    </g>
    <g id="ytick_5">
     <g id="line2d_11">
      <g>
       <use xlink:href="#mfb891e8735" x="53.328125" y="100.945902" style="stroke: #000000; stroke-width: 0.8"/>
      </g>
     </g>
     <g id="text_12">
      <!-- 800 -->
      <g transform="translate(27.240625 104.745121) scale(0.1 -0.1)">
       <defs>
        <path id="DejaVuSans-38" d="M 2034 2216 
Q 1584 2216 1326 1975 
Q 1069 1734 1069 1313 
Q 1069 891 1326 650 
Q 1584 409 2034 409 
Q 2484 409 2743 651 
Q 3003 894 3003 1313 
Q 3003 1734 2745 1975 
Q 2488 2216 2034 2216 
z
M 1403 2484 
Q 997 2584 770 2862 
Q 544 3141 544 3541 
Q 544 4100 942 4425 
Q 1341 4750 2034 4750 
Q 2731 4750 3128 4425 
Q 3525 4100 3525 3541 
Q 3525 3141 3298 2862 
Q 3072 2584 2669 2484 
Q 3125 2378 3379 2068 
Q 3634 1759 3634 1313 
Q 3634 634 3220 271 
Q 2806 -91 2034 -91 
Q 1263 -91 848 271 
Q 434 634 434 1313 
Q 434 1759 690 2068 
Q 947 2378 1403 2484 
z
M 1172 3481 
Q 1172 3119 1398 2916 
Q 1625 2713 2034 2713 
Q 2441 2713 2670 2916 
Q 2900 3119 2900 3481 
Q 2900 3844 2670 4047 
Q 2441 4250 2034 4250 
Q 1625 4250 1398 4047 
Q 1172 3844 1172 3481 
z
" transform="scale(0.015625)"/>
       </defs>
       <use xlink:href="#DejaVuSans-38"/>
       <use xlink:href="#DejaVuSans-30" transform="translate(63.623047 0)"/>
       <use xlink:href="#DejaVuSans-30" transform="translate(127.246094 0)"/>
      </g>
     </g>
    </g>
    <g id="ytick_6">
     <g id="line2d_12">
      <g>
       <use xlink:href="#mfb891e8735" x="53.328125" y="64.733096" style="stroke: #000000; stroke-width: 0.8"/>
      </g>
     </g>
     <g id="text_13">
      <!-- 1000 -->
      <g transform="translate(20.878125 68.532315) scale(0.1 -0.1)">
       <use xlink:href="#DejaVuSans-31"/>
       <use xlink:href="#DejaVuSans-30" transform="translate(63.623047 0)"/>
       <use xlink:href="#DejaVuSans-30" transform="translate(127.246094 0)"/>
       <use xlink:href="#DejaVuSans-30" transform="translate(190.869141 0)"/>
      </g>
     </g>
    </g>
    <g id="ytick_7">
     <g id="line2d_13">
      <g>
       <use xlink:href="#mfb891e8735" x="53.328125" y="28.52029" style="stroke: #000000; stroke-width: 0.8"/>
      </g>
     </g>
     <g id="text_14">
      <!-- 1200 -->
      <g transform="translate(20.878125 32.319508) scale(0.1 -0.1)">
       <use xlink:href="#DejaVuSans-31"/>
       <use xlink:href="#DejaVuSans-32" transform="translate(63.623047 0)"/>
       <use xlink:href="#DejaVuSans-30" transform="translate(127.246094 0)"/>
       <use xlink:href="#DejaVuSans-30" transform="translate(190.869141 0)"/>
      </g>
     </g>
    </g>
    <g id="text_15">
     <!-- [counts] -->
     <g transform="translate(14.798438 152.791947) rotate(-90) scale(0.1 -0.1)">
      <defs>
       <path id="DejaVuSans-63" d="M 3122 3366 
L 3122 2828 
Q 2878 2963 2633 3030 
Q 2388 3097 2138 3097 
Q 1578 3097 1268 2742 
Q 959 2388 959 1747 
Q 959 1106 1268 751 
Q 1578 397 2138 397 
Q 2388 397 2633 464 
Q 2878 531 3122 666 
L 3122 134 
Q 2881 22 2623 -34 
Q 2366 -91 2075 -91 
Q 1284 -91 818 406 
Q 353 903 353 1747 
Q 353 2603 823 3093 
Q 1294 3584 2113 3584 
Q 2378 3584 2631 3529 
Q 2884 3475 3122 3366 
z
" transform="scale(0.015625)"/>
       <path id="DejaVuSans-6f" d="M 1959 3097 
Q 1497 3097 1228 2736 
Q 959 2375 959 1747 
Q 959 1119 1226 758 
Q 1494 397 1959 397 
Q 2419 397 2687 759 
Q 2956 1122 2956 1747 
Q 2956 2369 2687 2733 
Q 2419 3097 1959 3097 
z
M 1959 3584 
Q 2709 3584 3137 3096 
Q 3566 2609 3566 1747 
Q 3566 888 3137 398 
Q 2709 -91 1959 -91 
Q 1206 -91 779 398 
Q 353 888 353 1747 
Q 353 2609 779 3096 
Q 1206 3584 1959 3584 
z
" transform="scale(0.015625)"/>
       <path id="DejaVuSans-75" d="M 544 1381 
L 544 3500 
L 1119 3500 
L 1119 1403 
Q 1119 906 1312 657 
Q 1506 409 1894 409 
Q 2359 409 2629 706 
Q 2900 1003 2900 1516 
L 2900 3500 
L 3475 3500 
L 3475 0 
L 2900 0 
L 2900 538 
Q 2691 219 2414 64 
Q 2138 -91 1772 -91 
Q 1169 -91 856 284 
Q 544 659 544 1381 
z
M 1991 3584 
L 1991 3584 
z
" transform="scale(0.015625)"/>
       <path id="DejaVuSans-6e" d="M 3513 2113 
L 3513 0 
L 2938 0 
L 2938 2094 
Q 2938 2591 2744 2837 
Q 2550 3084 2163 3084 
Q 1697 3084 1428 2787 
Q 1159 2491 1159 1978 
L 1159 0 
L 581 0 
L 581 3500 
L 1159 3500 
L 1159 2956 
Q 1366 3272 1645 3428 
Q 1925 3584 2291 3584 
Q 2894 3584 3203 3211 
Q 3513 2838 3513 2113 
z
" transform="scale(0.015625)"/>
      </defs>
      <use xlink:href="#DejaVuSans-5b"/>
      <use xlink:href="#DejaVuSans-63" transform="translate(39.013672 0)"/>
      <use xlink:href="#DejaVuSans-6f" transform="translate(93.994141 0)"/>
      <use xlink:href="#DejaVuSans-75" transform="translate(155.175781 0)"/>
      <use xlink:href="#DejaVuSans-6e" transform="translate(218.554688 0)"/>
      <use xlink:href="#DejaVuSans-74" transform="translate(281.933594 0)"/>
      <use xlink:href="#DejaVuSans-73" transform="translate(321.142578 0)"/>
      <use xlink:href="#DejaVuSans-5d" transform="translate(373.242188 0)"/>
     </g>
    </g>
   </g>
   <g id="line2d_14">
    <path d="M 69.749563 234.752221 
L 70.844325 234.752221 
L 70.844325 226.785404 
L 71.939088 226.785404 
L 71.939088 223.526251 
L 73.033851 223.526251 
L 73.033851 210.670705 
L 74.128613 210.670705 
L 74.128613 202.522824 
L 75.223376 202.522824 
L 75.223376 195.461326 
L 76.318138 195.461326 
L 76.318138 186.770253 
L 77.412901 186.770253 
L 77.412901 177.173859 
L 78.507663 177.173859 
L 78.507663 167.396402 
L 79.602426 167.396402 
L 79.602426 162.688737 
L 80.697188 162.688737 
L 80.697188 153.092343 
L 81.791951 153.092343 
L 81.791951 141.142117 
L 82.886713 141.142117 
L 82.886713 144.039142 
L 83.981476 144.039142 
L 83.981476 133.1753 
L 85.076238 133.1753 
L 85.076238 123.397842 
L 86.171001 123.397842 
L 86.171001 129.191891 
L 87.265763 129.191891 
L 87.265763 124.122098 
L 88.360526 124.122098 
L 88.360526 112.715064 
L 89.455288 112.715064 
L 89.455288 113.801448 
L 90.550051 113.801448 
L 90.550051 116.698473 
L 91.644814 116.698473 
L 91.644814 102.21335 
L 92.739576 102.21335 
L 92.739576 106.377823 
L 93.834339 106.377823 
L 93.834339 100.583774 
L 94.929101 100.583774 
L 94.929101 98.411006 
L 96.023864 98.411006 
L 96.023864 93.522277 
L 97.118626 93.522277 
L 97.118626 90.806316 
L 98.213389 90.806316 
L 98.213389 86.098652 
L 99.308151 86.098652 
L 99.308151 77.95077 
L 100.402914 77.95077 
L 100.402914 78.312898 
L 101.497676 78.312898 
L 101.497676 73.786297 
L 102.592439 73.786297 
L 102.592439 78.493962 
L 103.687201 78.493962 
L 103.687201 62.741392 
L 104.781964 62.741392 
L 104.781964 70.165017 
L 105.876726 70.165017 
L 105.876726 75.959066 
L 106.971489 75.959066 
L 106.971489 60.749687 
L 108.066252 60.749687 
L 108.066252 77.226514 
L 109.161014 77.226514 
L 109.161014 61.292879 
L 110.255777 61.292879 
L 110.255777 64.91416 
L 111.350539 64.91416 
L 111.350539 69.078633 
L 112.445302 69.078633 
L 112.445302 65.81948 
L 114.634827 65.81948 
L 114.634827 55.679894 
L 115.729589 55.679894 
L 115.729589 63.10352 
L 116.824352 63.10352 
L 116.824352 49.885845 
L 117.919114 49.885845 
L 117.919114 56.766279 
L 119.013877 56.766279 
L 119.013877 48.799461 
L 120.108639 48.799461 
L 120.108639 52.239678 
L 121.203402 52.239678 
L 121.203402 51.153294 
L 122.298164 51.153294 
L 122.298164 45.359245 
L 123.392927 45.359245 
L 123.392927 48.799461 
L 125.582452 48.799461 
L 125.582452 47.532013 
L 126.677215 47.532013 
L 126.677215 46.264565 
L 127.771977 46.264565 
L 127.771977 52.601806 
L 128.86674 52.601806 
L 128.86674 44.091796 
L 129.961502 44.091796 
L 129.961502 42.643284 
L 131.056265 42.643284 
L 131.056265 45.359245 
L 132.151027 45.359245 
L 132.151027 53.507126 
L 133.24579 53.507126 
L 133.24579 58.033727 
L 134.340552 58.033727 
L 134.340552 47.713077 
L 135.435315 47.713077 
L 135.435315 39.022003 
L 136.530077 39.022003 
L 136.530077 36.306043 
L 137.62484 36.306043 
L 137.62484 40.470516 
L 138.719602 40.470516 
L 138.719602 48.618397 
L 139.814365 48.618397 
L 139.814365 37.935619 
L 140.909127 37.935619 
L 140.909127 35.219659 
L 142.00389 35.219659 
L 142.00389 38.478811 
L 143.098652 38.478811 
L 143.098652 35.581787 
L 144.193415 35.581787 
L 144.193415 41.013708 
L 145.288178 41.013708 
L 145.288178 36.306043 
L 146.38294 36.306043 
L 146.38294 32.684762 
L 147.477703 32.684762 
L 147.477703 38.478811 
L 148.572465 38.478811 
L 148.572465 47.350949 
L 149.667228 47.350949 
L 149.667228 36.487107 
L 150.76199 36.487107 
L 150.76199 40.289452 
L 151.856753 40.289452 
L 151.856753 45.540309 
L 152.951515 45.540309 
L 152.951515 40.470516 
L 154.046278 40.470516 
L 154.046278 35.038595 
L 155.14104 35.038595 
L 155.14104 41.5569 
L 156.235803 41.5569 
L 156.235803 43.005412 
L 157.330565 43.005412 
L 157.330565 45.359245 
L 158.425328 45.359245 
L 158.425328 35.038595 
L 159.52009 35.038595 
L 159.52009 36.124979 
L 160.614853 36.124979 
L 160.614853 38.297747 
L 161.709615 38.297747 
L 161.709615 40.65158 
L 162.804378 40.65158 
L 162.804378 28.701354 
L 163.899141 28.701354 
L 163.899141 54.412446 
L 164.993903 54.412446 
L 164.993903 34.133275 
L 166.088666 34.133275 
L 166.088666 29.42561 
L 167.183428 29.42561 
L 167.183428 36.306043 
L 168.278191 36.306043 
L 168.278191 35.581787 
L 169.372953 35.581787 
L 169.372953 41.5569 
L 170.467716 41.5569 
L 170.467716 23.088369 
L 171.562478 23.088369 
L 171.562478 45.359245 
L 172.657241 45.359245 
L 172.657241 36.487107 
L 173.752003 36.487107 
L 173.752003 33.771147 
L 174.846766 33.771147 
L 174.846766 36.849235 
L 175.941528 36.849235 
L 175.941528 39.203068 
L 177.036291 39.203068 
L 177.036291 37.030299 
L 178.131053 37.030299 
L 178.131053 28.882418 
L 179.225816 28.882418 
L 179.225816 41.375836 
L 180.320579 41.375836 
L 180.320579 47.532013 
L 181.415341 47.532013 
L 181.415341 35.581787 
L 182.510104 35.581787 
L 182.510104 41.919028 
L 183.604866 41.919028 
L 183.604866 29.787738 
L 184.699629 29.787738 
L 184.699629 18.561768 
L 185.794391 18.561768 
L 185.794391 29.244546 
L 186.889154 29.244546 
L 186.889154 49.523717 
L 187.983916 49.523717 
L 187.983916 41.919028 
L 189.078679 41.919028 
L 189.078679 43.36754 
L 190.173441 43.36754 
L 190.173441 52.420742 
L 191.268204 52.420742 
L 191.268204 37.211363 
L 192.362966 37.211363 
L 192.362966 24.355817 
L 193.457729 24.355817 
L 193.457729 38.840939 
L 194.552491 38.840939 
L 194.552491 30.693058 
L 195.647254 30.693058 
L 195.647254 41.013708 
L 196.742016 41.013708 
L 196.742016 34.676467 
L 197.836779 34.676467 
L 197.836779 35.943915 
L 198.931542 35.943915 
L 198.931542 27.071777 
L 200.026304 27.071777 
L 200.026304 52.058614 
L 201.121067 52.058614 
L 201.121067 35.400723 
L 202.215829 35.400723 
L 202.215829 29.606674 
L 203.310592 29.606674 
L 203.310592 24.355817 
L 204.405354 24.355817 
L 204.405354 39.022003 
L 205.500117 39.022003 
L 205.500117 35.943915 
L 206.594879 35.943915 
L 206.594879 36.124979 
L 207.689642 36.124979 
L 207.689642 39.927324 
L 208.784404 39.927324 
L 208.784404 24.536881 
L 209.879167 24.536881 
L 209.879167 40.289452 
L 210.973929 40.289452 
L 210.973929 23.993689 
L 212.068692 23.993689 
L 212.068692 29.787738 
L 213.163454 29.787738 
L 213.163454 27.071777 
L 214.258217 27.071777 
L 214.258217 19.10496 
L 215.352979 19.10496 
L 215.352979 33.227954 
L 216.447742 33.227954 
L 216.447742 36.487107 
L 217.542505 36.487107 
L 217.542505 25.080073 
L 218.637267 25.080073 
L 218.637267 37.211363 
L 219.73203 37.211363 
L 219.73203 31.960506 
L 220.826792 31.960506 
L 220.826792 34.676467 
L 221.921555 34.676467 
L 221.921555 34.495403 
L 223.016317 34.495403 
L 223.016317 40.108388 
L 224.11108 40.108388 
L 224.11108 37.573491 
L 225.205842 37.573491 
L 225.205842 49.885845 
L 226.300605 49.885845 
L 226.300605 50.247973 
L 227.395367 50.247973 
L 227.395367 40.65158 
L 228.49013 40.65158 
L 228.49013 32.503698 
L 229.584892 32.503698 
L 229.584892 45.540309 
L 230.679655 45.540309 
L 230.679655 25.985393 
L 231.774417 25.985393 
L 231.774417 44.634988 
L 232.86918 44.634988 
L 232.86918 43.729668 
L 233.963942 43.729668 
L 233.963942 38.116683 
L 235.058705 38.116683 
L 235.058705 31.960506 
L 236.153468 31.960506 
L 236.153468 43.729668 
L 237.24823 43.729668 
L 237.24823 41.919028 
L 238.342993 41.919028 
L 238.342993 39.203068 
L 239.437755 39.203068 
L 239.437755 33.409019 
L 240.532518 33.409019 
L 240.532518 39.565196 
L 241.62728 39.565196 
L 241.62728 38.840939 
L 242.722043 38.840939 
L 242.722043 28.339226 
L 243.816805 28.339226 
L 243.816805 33.227954 
L 244.911568 33.227954 
L 244.911568 33.04689 
L 246.00633 33.04689 
L 246.00633 34.676467 
L 247.101093 34.676467 
L 247.101093 43.005412 
L 248.195855 43.005412 
L 248.195855 28.158162 
L 249.290618 28.158162 
L 249.290618 31.23625 
L 250.38538 31.23625 
L 250.38538 48.980525 
L 251.480143 48.980525 
L 251.480143 28.52029 
L 252.574906 28.52029 
L 252.574906 35.581787 
L 253.669668 35.581787 
L 253.669668 33.227954 
L 254.764431 33.227954 
L 254.764431 29.244546 
L 255.859193 29.244546 
L 255.859193 25.080073 
L 256.953956 25.080073 
L 256.953956 38.659875 
L 258.048718 38.659875 
L 258.048718 61.836071 
L 259.143481 61.836071 
L 259.143481 46.083501 
L 260.238243 46.083501 
L 260.238243 53.869254 
L 261.333006 53.869254 
L 261.333006 62.379263 
L 262.427768 62.379263 
L 262.427768 75.053746 
L 263.522531 75.053746 
L 263.522531 80.123539 
L 264.617293 80.123539 
L 264.617293 106.015695 
L 265.712056 106.015695 
L 265.712056 103.842927 
L 266.806818 103.842927 
L 266.806818 103.299735 
L 267.901581 103.299735 
L 267.901581 119.052305 
L 268.996343 119.052305 
L 268.996343 129.554019 
L 270.091106 129.554019 
L 270.091106 127.381251 
L 272.280631 127.381251 
L 272.280631 143.314885 
L 273.375394 143.314885 
L 273.375394 151.281703 
L 274.470156 151.281703 
L 274.470156 148.384678 
L 275.564919 148.384678 
L 275.564919 159.429584 
L 276.659681 159.429584 
L 276.659681 166.672145 
L 277.754444 166.672145 
L 277.754444 171.37981 
L 278.849206 171.37981 
L 278.849206 182.243652 
L 279.943969 182.243652 
L 279.943969 173.552579 
L 281.038731 173.552579 
L 281.038731 174.457899 
L 282.133494 174.457899 
L 282.133494 185.140677 
L 283.228256 185.140677 
L 283.228256 188.037701 
L 284.323019 188.037701 
L 284.323019 193.107494 
L 285.417781 193.107494 
L 285.417781 188.580893 
L 286.512544 188.580893 
L 286.512544 196.185583 
L 287.607306 196.185583 
L 287.607306 201.436439 
L 288.702069 201.436439 
L 288.702069 201.979632 
L 289.796832 201.979632 
L 289.796832 200.893247 
L 290.891594 200.893247 
L 290.891594 198.358351 
L 291.986357 198.358351 
L 291.986357 206.506232 
L 293.081119 206.506232 
L 293.081119 206.687296 
L 294.175882 206.687296 
L 294.175882 213.024537 
L 295.270644 213.024537 
L 295.270644 210.127513 
L 296.365407 210.127513 
L 296.365407 216.645818 
L 297.460169 216.645818 
L 297.460169 214.47305 
L 298.554932 214.47305 
L 298.554932 220.267099 
L 299.649694 220.267099 
L 299.649694 220.810291 
L 300.744457 220.810291 
L 300.744457 224.431571 
L 301.839219 224.431571 
L 301.839219 223.526251 
L 302.933982 223.526251 
L 302.933982 222.620931 
L 304.028744 222.620931 
L 304.028744 225.69902 
L 305.123507 225.69902 
L 305.123507 220.991355 
L 306.218269 220.991355 
L 306.218269 226.785404 
L 307.313032 226.785404 
L 307.313032 226.423276 
L 308.407795 226.423276 
L 308.407795 229.3203 
L 309.502557 229.3203 
L 309.502557 226.242212 
L 310.59732 226.242212 
L 310.59732 230.406684 
L 311.692082 230.406684 
L 311.692082 231.674133 
L 312.786845 231.674133 
L 312.786845 232.760517 
L 313.881607 232.760517 
L 313.881607 232.398389 
L 314.97637 232.398389 
L 314.97637 231.312005 
L 316.071132 231.312005 
L 316.071132 234.752221 
L 317.165895 234.752221 
L 317.165895 233.484773 
L 318.260657 233.484773 
L 318.260657 234.390093 
L 320.450182 234.390093 
L 320.450182 235.838605 
L 321.544945 235.838605 
L 321.544945 239.64095 
L 322.639707 239.64095 
L 322.639707 238.192438 
L 323.73447 238.192438 
L 323.73447 237.649246 
L 325.923995 237.649246 
L 325.923995 239.097758 
L 327.018758 239.097758 
L 327.018758 238.554566 
L 328.11352 238.554566 
L 328.11352 239.278822 
L 329.208283 239.278822 
L 329.208283 240.003078 
L 330.303045 240.003078 
L 330.303045 239.822014 
L 331.397808 239.822014 
L 331.397808 239.459886 
L 332.49257 239.459886 
L 332.49257 239.64095 
L 333.587333 239.64095 
L 333.587333 241.632654 
L 334.682095 241.632654 
L 334.682095 242.537974 
L 335.776858 242.537974 
L 335.776858 241.813718 
L 336.87162 241.813718 
L 336.87162 242.175846 
L 340.155908 242.175846 
L 340.155908 241.994782 
L 341.25067 241.994782 
L 341.25067 243.443295 
L 342.345433 243.443295 
L 342.345433 241.632654 
L 343.440196 241.632654 
L 343.440196 242.35691 
L 344.534958 242.35691 
L 344.534958 242.719039 
L 345.629721 242.719039 
L 345.629721 243.805423 
L 346.724483 243.805423 
L 346.724483 242.719039 
L 347.819246 242.719039 
L 347.819246 243.443295 
L 348.914008 243.443295 
L 348.914008 243.081167 
L 350.008771 243.081167 
L 350.008771 243.805423 
L 351.103533 243.805423 
L 351.103533 243.443295 
L 352.198296 243.443295 
L 352.198296 243.081167 
L 353.293058 243.081167 
L 353.293058 243.624359 
L 354.387821 243.624359 
L 354.387821 244.167551 
L 355.482583 244.167551 
L 355.482583 243.986487 
L 356.577346 243.986487 
L 356.577346 243.805423 
L 357.672108 243.805423 
L 357.672108 243.443295 
L 358.766871 243.443295 
L 358.766871 243.986487 
L 359.861633 243.986487 
L 359.861633 244.710743 
L 360.956396 244.710743 
L 360.956396 243.986487 
L 362.051159 243.986487 
L 362.051159 243.805423 
L 363.145921 243.805423 
L 363.145921 244.167551 
L 364.240684 244.167551 
L 364.240684 244.529679 
L 365.335446 244.529679 
L 365.335446 244.710743 
L 366.430209 244.710743 
L 366.430209 244.348615 
L 367.524971 244.348615 
L 367.524971 245.434999 
L 368.619734 245.434999 
L 368.619734 244.891807 
L 369.714496 244.891807 
L 369.714496 244.710743 
L 370.809259 244.710743 
L 370.809259 244.529679 
L 371.904021 244.529679 
L 371.904021 244.710743 
L 372.998784 244.710743 
L 372.998784 245.072871 
L 375.188309 245.072871 
L 375.188309 244.891807 
L 376.283071 244.891807 
L 376.283071 245.434999 
L 377.377834 245.434999 
L 377.377834 245.072871 
L 378.472596 245.072871 
L 378.472596 245.434999 
L 379.567359 245.434999 
L 379.567359 245.072871 
L 381.756884 245.072871 
L 381.756884 245.434999 
L 382.851647 245.434999 
L 382.851647 245.072871 
L 383.946409 245.072871 
L 383.946409 244.891807 
L 385.041172 244.891807 
L 385.041172 245.616063 
L 386.135934 245.616063 
L 386.135934 245.253935 
L 388.325459 245.253935 
L 388.325459 245.434999 
L 389.420222 245.434999 
L 389.420222 245.253935 
L 390.514984 245.253935 
L 390.514984 245.616063 
L 391.609747 245.616063 
L 391.609747 245.797127 
L 392.704509 245.797127 
L 392.704509 245.253935 
L 393.799272 245.253935 
L 393.799272 245.434999 
L 394.894034 245.434999 
L 394.894034 245.797127 
L 395.988797 245.797127 
L 395.988797 245.072871 
L 397.08356 245.072871 
L 397.08356 245.253935 
L 398.178322 245.253935 
L 398.178322 245.253935 
" clip-path="url(#pb0e35b4821)" style="fill: none; stroke: #1f77b4; stroke-width: 1.5; stroke-linecap: square"/>
   </g>
   <g id="patch_3">
    <path d="M 53.328125 257.158895 
L 53.328125 7.2 
" style="fill: none; stroke: #000000; stroke-width: 0.8; stroke-linejoin: miter; stroke-linecap: square"/>
   </g>
   <g id="patch_4">
    <path d="M 414.59976 257.158895 
L 414.59976 7.2 
" style="fill: none; stroke: #000000; stroke-width: 0.8; stroke-linejoin: miter; stroke-linecap: square"/>
   </g>
   <g id="patch_5">
    <path d="M 53.328125 257.158895 
L 414.59976 257.158895 
" style="fill: none; stroke: #000000; stroke-width: 0.8; stroke-linejoin: miter; stroke-linecap: square"/>
   </g>
   <g id="patch_6">
    <path d="M 53.328125 7.2 
L 414.59976 7.2 
" style="fill: none; stroke: #000000; stroke-width: 0.8; stroke-linejoin: miter; stroke-linecap: square"/>
   </g>
  </g>
  <g id="axes_2">
   <g id="patch_7">
    <path d="M 503.927885 257.158895 
L 865.19952 257.158895 
L 865.19952 7.2 
L 503.927885 7.2 
z
" style="fill: #ffffff"/>
   </g>
   <g id="matplotlib.axis_3">
    <g id="xtick_7">
     <g id="line2d_15">
      <g>
       <use xlink:href="#m843253b0c0" x="517.037903" y="257.158895" style="stroke: #000000; stroke-width: 0.8"/>
      </g>
     </g>
     <g id="text_16">
      <!-- 0.0 -->
      <g transform="translate(509.086341 271.757332) scale(0.1 -0.1)">
       <defs>
        <path id="DejaVuSans-2e" d="M 684 794 
L 1344 794 
L 1344 0 
L 684 0 
L 684 794 
z
" transform="scale(0.015625)"/>
       </defs>
       <use xlink:href="#DejaVuSans-30"/>
       <use xlink:href="#DejaVuSans-2e" transform="translate(63.623047 0)"/>
       <use xlink:href="#DejaVuSans-30" transform="translate(95.410156 0)"/>
      </g>
     </g>
    </g>
    <g id="xtick_8">
     <g id="line2d_16">
      <g>
       <use xlink:href="#m843253b0c0" x="558.735323" y="257.158895" style="stroke: #000000; stroke-width: 0.8"/>
      </g>
     </g>
     <g id="text_17">
      <!-- 2.5 -->
      <g transform="translate(550.783761 271.757332) scale(0.1 -0.1)">
       <use xlink:href="#DejaVuSans-32"/>
       <use xlink:href="#DejaVuSans-2e" transform="translate(63.623047 0)"/>
       <use xlink:href="#DejaVuSans-35" transform="translate(95.410156 0)"/>
      </g>
     </g>
    </g>
    <g id="xtick_9">
     <g id="line2d_17">
      <g>
       <use xlink:href="#m843253b0c0" x="600.432743" y="257.158895" style="stroke: #000000; stroke-width: 0.8"/>
      </g>
     </g>
     <g id="text_18">
      <!-- 5.0 -->
      <g transform="translate(592.481181 271.757332) scale(0.1 -0.1)">
       <use xlink:href="#DejaVuSans-35"/>
       <use xlink:href="#DejaVuSans-2e" transform="translate(63.623047 0)"/>
       <use xlink:href="#DejaVuSans-30" transform="translate(95.410156 0)"/>
      </g>
     </g>
    </g>
    <g id="xtick_10">
     <g id="line2d_18">
      <g>
       <use xlink:href="#m843253b0c0" x="642.130163" y="257.158895" style="stroke: #000000; stroke-width: 0.8"/>
      </g>
     </g>
     <g id="text_19">
      <!-- 7.5 -->
      <g transform="translate(634.178601 271.757332) scale(0.1 -0.1)">
       <defs>
        <path id="DejaVuSans-37" d="M 525 4666 
L 3525 4666 
L 3525 4397 
L 1831 0 
L 1172 0 
L 2766 4134 
L 525 4134 
L 525 4666 
z
" transform="scale(0.015625)"/>
       </defs>
       <use xlink:href="#DejaVuSans-37"/>
       <use xlink:href="#DejaVuSans-2e" transform="translate(63.623047 0)"/>
       <use xlink:href="#DejaVuSans-35" transform="translate(95.410156 0)"/>
      </g>
     </g>
    </g>
    <g id="xtick_11">
     <g id="line2d_19">
      <g>
       <use xlink:href="#m843253b0c0" x="683.827583" y="257.158895" style="stroke: #000000; stroke-width: 0.8"/>
      </g>
     </g>
     <g id="text_20">
      <!-- 10.0 -->
      <g transform="translate(672.694771 271.757332) scale(0.1 -0.1)">
       <use xlink:href="#DejaVuSans-31"/>
       <use xlink:href="#DejaVuSans-30" transform="translate(63.623047 0)"/>
       <use xlink:href="#DejaVuSans-2e" transform="translate(127.246094 0)"/>
       <use xlink:href="#DejaVuSans-30" transform="translate(159.033203 0)"/>
      </g>
     </g>
    </g>
    <g id="xtick_12">
     <g id="line2d_20">
      <g>
       <use xlink:href="#m843253b0c0" x="725.525003" y="257.158895" style="stroke: #000000; stroke-width: 0.8"/>
      </g>
     </g>
     <g id="text_21">
      <!-- 12.5 -->
      <g transform="translate(714.392191 271.757332) scale(0.1 -0.1)">
       <use xlink:href="#DejaVuSans-31"/>
       <use xlink:href="#DejaVuSans-32" transform="translate(63.623047 0)"/>
       <use xlink:href="#DejaVuSans-2e" transform="translate(127.246094 0)"/>
       <use xlink:href="#DejaVuSans-35" transform="translate(159.033203 0)"/>
      </g>
     </g>
    </g>
    <g id="xtick_13">
     <g id="line2d_21">
      <g>
       <use xlink:href="#m843253b0c0" x="767.222423" y="257.158895" style="stroke: #000000; stroke-width: 0.8"/>
      </g>
     </g>
     <g id="text_22">
      <!-- 15.0 -->
      <g transform="translate(756.089611 271.757332) scale(0.1 -0.1)">
       <use xlink:href="#DejaVuSans-31"/>
       <use xlink:href="#DejaVuSans-35" transform="translate(63.623047 0)"/>
       <use xlink:href="#DejaVuSans-2e" transform="translate(127.246094 0)"/>
       <use xlink:href="#DejaVuSans-30" transform="translate(159.033203 0)"/>
      </g>
     </g>
    </g>
    <g id="xtick_14">
     <g id="line2d_22">
      <g>
       <use xlink:href="#m843253b0c0" x="808.919843" y="257.158895" style="stroke: #000000; stroke-width: 0.8"/>
      </g>
     </g>
     <g id="text_23">
      <!-- 17.5 -->
      <g transform="translate(797.787031 271.757332) scale(0.1 -0.1)">
       <use xlink:href="#DejaVuSans-31"/>
       <use xlink:href="#DejaVuSans-37" transform="translate(63.623047 0)"/>
       <use xlink:href="#DejaVuSans-2e" transform="translate(127.246094 0)"/>
       <use xlink:href="#DejaVuSans-35" transform="translate(159.033203 0)"/>
      </g>
     </g>
    </g>
    <g id="xtick_15">
     <g id="line2d_23">
      <g>
       <use xlink:href="#m843253b0c0" x="850.617263" y="257.158895" style="stroke: #000000; stroke-width: 0.8"/>
      </g>
     </g>
     <g id="text_24">
      <!-- 20.0 -->
      <g transform="translate(839.484451 271.757332) scale(0.1 -0.1)">
       <use xlink:href="#DejaVuSans-32"/>
       <use xlink:href="#DejaVuSans-30" transform="translate(63.623047 0)"/>
       <use xlink:href="#DejaVuSans-2e" transform="translate(127.246094 0)"/>
       <use xlink:href="#DejaVuSans-30" transform="translate(159.033203 0)"/>
      </g>
     </g>
    </g>
    <g id="text_25">
     <!-- wavelength [Å] -->
     <g transform="translate(646.526202 287.119832) scale(0.1 -0.1)">
      <defs>
       <path id="DejaVuSans-77" d="M 269 3500 
L 844 3500 
L 1563 769 
L 2278 3500 
L 2956 3500 
L 3675 769 
L 4391 3500 
L 4966 3500 
L 4050 0 
L 3372 0 
L 2619 2869 
L 1863 0 
L 1184 0 
L 269 3500 
z
" transform="scale(0.015625)"/>
       <path id="DejaVuSans-61" d="M 2194 1759 
Q 1497 1759 1228 1600 
Q 959 1441 959 1056 
Q 959 750 1161 570 
Q 1363 391 1709 391 
Q 2188 391 2477 730 
Q 2766 1069 2766 1631 
L 2766 1759 
L 2194 1759 
z
M 3341 1997 
L 3341 0 
L 2766 0 
L 2766 531 
Q 2569 213 2275 61 
Q 1981 -91 1556 -91 
Q 1019 -91 701 211 
Q 384 513 384 1019 
Q 384 1609 779 1909 
Q 1175 2209 1959 2209 
L 2766 2209 
L 2766 2266 
Q 2766 2663 2505 2880 
Q 2244 3097 1772 3097 
Q 1472 3097 1187 3025 
Q 903 2953 641 2809 
L 641 3341 
Q 956 3463 1253 3523 
Q 1550 3584 1831 3584 
Q 2591 3584 2966 3190 
Q 3341 2797 3341 1997 
z
" transform="scale(0.015625)"/>
       <path id="DejaVuSans-76" d="M 191 3500 
L 800 3500 
L 1894 563 
L 2988 3500 
L 3597 3500 
L 2284 0 
L 1503 0 
L 191 3500 
z
" transform="scale(0.015625)"/>
       <path id="DejaVuSans-6c" d="M 603 4863 
L 1178 4863 
L 1178 0 
L 603 0 
L 603 4863 
z
" transform="scale(0.015625)"/>
       <path id="DejaVuSans-67" d="M 2906 1791 
Q 2906 2416 2648 2759 
Q 2391 3103 1925 3103 
Q 1463 3103 1205 2759 
Q 947 2416 947 1791 
Q 947 1169 1205 825 
Q 1463 481 1925 481 
Q 2391 481 2648 825 
Q 2906 1169 2906 1791 
z
M 3481 434 
Q 3481 -459 3084 -895 
Q 2688 -1331 1869 -1331 
Q 1566 -1331 1297 -1286 
Q 1028 -1241 775 -1147 
L 775 -588 
Q 1028 -725 1275 -790 
Q 1522 -856 1778 -856 
Q 2344 -856 2625 -561 
Q 2906 -266 2906 331 
L 2906 616 
Q 2728 306 2450 153 
Q 2172 0 1784 0 
Q 1141 0 747 490 
Q 353 981 353 1791 
Q 353 2603 747 3093 
Q 1141 3584 1784 3584 
Q 2172 3584 2450 3431 
Q 2728 3278 2906 2969 
L 2906 3500 
L 3481 3500 
L 3481 434 
z
" transform="scale(0.015625)"/>
       <path id="DejaVuSans-c5" d="M 2663 5081 
Q 2663 5278 2523 5417 
Q 2384 5556 2188 5556 
Q 1988 5556 1852 5420 
Q 1716 5284 1716 5081 
Q 1716 4884 1853 4746 
Q 1991 4609 2188 4609 
Q 2384 4609 2523 4746 
Q 2663 4884 2663 5081 
z
M 2188 4044 
L 1338 1722 
L 3041 1722 
L 2188 4044 
z
M 1716 4366 
Q 1525 4494 1428 4673 
Q 1331 4853 1331 5081 
Q 1331 5441 1579 5691 
Q 1828 5941 2188 5941 
Q 2544 5941 2795 5689 
Q 3047 5438 3047 5081 
Q 3047 4863 2948 4678 
Q 2850 4494 2663 4366 
L 4325 0 
L 3669 0 
L 3244 1197 
L 1141 1197 
L 716 0 
L 50 0 
L 1716 4366 
z
" transform="scale(0.015625)"/>
      </defs>
      <use xlink:href="#DejaVuSans-77"/>
      <use xlink:href="#DejaVuSans-61" transform="translate(81.787109 0)"/>
      <use xlink:href="#DejaVuSans-76" transform="translate(143.066406 0)"/>
      <use xlink:href="#DejaVuSans-65" transform="translate(202.246094 0)"/>
      <use xlink:href="#DejaVuSans-6c" transform="translate(263.769531 0)"/>
      <use xlink:href="#DejaVuSans-65" transform="translate(291.552734 0)"/>
      <use xlink:href="#DejaVuSans-6e" transform="translate(353.076172 0)"/>
      <use xlink:href="#DejaVuSans-67" transform="translate(416.455078 0)"/>
      <use xlink:href="#DejaVuSans-74" transform="translate(479.931641 0)"/>
      <use xlink:href="#DejaVuSans-68" transform="translate(519.140625 0)"/>
      <use xlink:href="#DejaVuSans-20" transform="translate(582.519531 0)"/>
      <use xlink:href="#DejaVuSans-5b" transform="translate(614.306641 0)"/>
      <use xlink:href="#DejaVuSans-c5" transform="translate(653.320312 0)"/>
      <use xlink:href="#DejaVuSans-5d" transform="translate(721.728516 0)"/>
     </g>
    </g>
   </g>
   <g id="matplotlib.axis_4">
    <g id="ytick_8">
     <g id="line2d_24">
      <g>
       <use xlink:href="#mfb891e8735" x="503.927885" y="245.797127" style="stroke: #000000; stroke-width: 0.8"/>
      </g>
     </g>
     <g id="text_26">
      <!-- 0 -->
      <g transform="translate(490.565385 249.596346) scale(0.1 -0.1)">
       <use xlink:href="#DejaVuSans-30"/>
      </g>
     </g>
    </g>
    <g id="ytick_9">
     <g id="line2d_25">
      <g>
       <use xlink:href="#mfb891e8735" x="503.927885" y="192.051772" style="stroke: #000000; stroke-width: 0.8"/>
      </g>
     </g>
     <g id="text_27">
      <!-- 1000 -->
      <g transform="translate(471.477885 195.850991) scale(0.1 -0.1)">
       <use xlink:href="#DejaVuSans-31"/>
       <use xlink:href="#DejaVuSans-30" transform="translate(63.623047 0)"/>
       <use xlink:href="#DejaVuSans-30" transform="translate(127.246094 0)"/>
       <use xlink:href="#DejaVuSans-30" transform="translate(190.869141 0)"/>
      </g>
     </g>
    </g>
    <g id="ytick_10">
     <g id="line2d_26">
      <g>
       <use xlink:href="#mfb891e8735" x="503.927885" y="138.306418" style="stroke: #000000; stroke-width: 0.8"/>
      </g>
     </g>
     <g id="text_28">
      <!-- 2000 -->
      <g transform="translate(471.477885 142.105637) scale(0.1 -0.1)">
       <use xlink:href="#DejaVuSans-32"/>
       <use xlink:href="#DejaVuSans-30" transform="translate(63.623047 0)"/>
       <use xlink:href="#DejaVuSans-30" transform="translate(127.246094 0)"/>
       <use xlink:href="#DejaVuSans-30" transform="translate(190.869141 0)"/>
      </g>
     </g>
    </g>
    <g id="ytick_11">
     <g id="line2d_27">
      <g>
       <use xlink:href="#mfb891e8735" x="503.927885" y="84.561063" style="stroke: #000000; stroke-width: 0.8"/>
      </g>
     </g>
     <g id="text_29">
      <!-- 3000 -->
      <g transform="translate(471.477885 88.360282) scale(0.1 -0.1)">
       <use xlink:href="#DejaVuSans-33"/>
       <use xlink:href="#DejaVuSans-30" transform="translate(63.623047 0)"/>
       <use xlink:href="#DejaVuSans-30" transform="translate(127.246094 0)"/>
       <use xlink:href="#DejaVuSans-30" transform="translate(190.869141 0)"/>
      </g>
     </g>
    </g>
    <g id="ytick_12">
     <g id="line2d_28">
      <g>
       <use xlink:href="#mfb891e8735" x="503.927885" y="30.815709" style="stroke: #000000; stroke-width: 0.8"/>
      </g>
     </g>
     <g id="text_30">
      <!-- 4000 -->
      <g transform="translate(471.477885 34.614928) scale(0.1 -0.1)">
       <use xlink:href="#DejaVuSans-34"/>
       <use xlink:href="#DejaVuSans-30" transform="translate(63.623047 0)"/>
       <use xlink:href="#DejaVuSans-30" transform="translate(127.246094 0)"/>
       <use xlink:href="#DejaVuSans-30" transform="translate(190.869141 0)"/>
      </g>
     </g>
    </g>
    <g id="text_31">
     <!-- [counts] -->
     <g transform="translate(465.398197 152.791947) rotate(-90) scale(0.1 -0.1)">
      <use xlink:href="#DejaVuSans-5b"/>
      <use xlink:href="#DejaVuSans-63" transform="translate(39.013672 0)"/>
      <use xlink:href="#DejaVuSans-6f" transform="translate(93.994141 0)"/>
      <use xlink:href="#DejaVuSans-75" transform="translate(155.175781 0)"/>
      <use xlink:href="#DejaVuSans-6e" transform="translate(218.554688 0)"/>
      <use xlink:href="#DejaVuSans-74" transform="translate(281.933594 0)"/>
      <use xlink:href="#DejaVuSans-73" transform="translate(321.142578 0)"/>
      <use xlink:href="#DejaVuSans-5d" transform="translate(373.242188 0)"/>
     </g>
    </g>
   </g>
   <g id="line2d_29">
    <path d="M 520.349323 151.689011 
L 521.444085 151.689011 
L 521.444085 147.819346 
L 522.538848 147.819346 
L 522.538848 134.275516 
L 523.633611 134.275516 
L 523.633611 140.402487 
L 524.728373 140.402487 
L 524.728373 141.531139 
L 525.823136 141.531139 
L 525.823136 146.26073 
L 526.917898 146.26073 
L 526.917898 141.316158 
L 528.012661 141.316158 
L 528.012661 122.236557 
L 529.107423 122.236557 
L 529.107423 104.876807 
L 530.202186 104.876807 
L 530.202186 81.282597 
L 531.296948 81.282597 
L 531.296948 54.51741 
L 532.391711 54.51741 
L 532.391711 35.814027 
L 533.486473 35.814027 
L 533.486473 25.387428 
L 534.581236 25.387428 
L 534.581236 23.775067 
L 535.675998 23.775067 
L 535.675998 18.561768 
L 536.770761 18.561768 
L 536.770761 20.335365 
L 537.865523 20.335365 
L 537.865523 28.289677 
L 538.960286 28.289677 
L 538.960286 33.610467 
L 540.055048 33.610467 
L 540.055048 38.447549 
L 541.149811 38.447549 
L 541.149811 57.795877 
L 542.244574 57.795877 
L 542.244574 62.955431 
L 543.339336 62.955431 
L 543.339336 77.574167 
L 544.434099 77.574167 
L 544.434099 80.906379 
L 546.623624 80.960125 
L 546.623624 87.03335 
L 547.718386 87.03335 
L 547.718386 91.440469 
L 548.813149 91.440469 
L 548.813149 92.192904 
L 549.907911 92.192904 
L 549.907911 87.355822 
L 551.002674 87.355822 
L 551.002674 89.881853 
L 552.097436 89.881853 
L 552.097436 85.152262 
L 553.192199 85.152262 
L 553.192199 77.735403 
L 554.286961 77.735403 
L 554.286961 70.318544 
L 555.381724 70.318544 
L 555.381724 57.742131 
L 556.476486 57.742131 
L 556.476486 54.356174 
L 557.571249 54.356174 
L 557.571249 39.307475 
L 558.666012 39.307475 
L 558.666012 30.385746 
L 559.760774 30.385746 
L 559.760774 29.257094 
L 560.855537 29.257094 
L 560.855537 41.296053 
L 561.950299 41.296053 
L 561.950299 51.40018 
L 563.045062 51.40018 
L 563.045062 56.183516 
L 564.139824 56.183516 
L 564.139824 69.297383 
L 565.234587 69.297383 
L 565.234587 73.059557 
L 566.329349 73.059557 
L 566.329349 85.367244 
L 567.424112 85.367244 
L 567.424112 101.49085 
L 569.613637 101.383359 
L 569.613637 107.564075 
L 570.708399 107.564075 
L 570.708399 114.712207 
L 571.803162 114.712207 
L 571.803162 123.257719 
L 572.897924 123.257719 
L 572.897924 124.601353 
L 573.992687 124.601353 
L 573.992687 139.650052 
L 575.087449 139.650052 
L 575.087449 136.747803 
L 576.182212 136.747803 
L 576.182212 145.45455 
L 577.276975 145.45455 
L 577.276975 151.689011 
L 578.371737 151.689011 
L 578.371737 156.418602 
L 579.4665 156.418602 
L 579.4665 159.91205 
L 580.561262 159.91205 
L 580.561262 162.061865 
L 581.656025 162.061865 
L 581.656025 168.726289 
L 582.750787 168.726289 
L 582.750787 171.682283 
L 583.84555 171.682283 
L 583.84555 175.713185 
L 584.940312 175.713185 
L 584.940312 176.788092 
L 586.035075 176.788092 
L 586.035075 179.529105 
L 587.129837 179.529105 
L 587.129837 185.60233 
L 588.2246 185.60233 
L 588.2246 187.805889 
L 589.319362 187.805889 
L 589.319362 188.71956 
L 590.414125 188.71956 
L 590.414125 193.449152 
L 591.508887 193.449152 
L 591.508887 193.717878 
L 592.60365 193.717878 
L 592.60365 197.318817 
L 593.698412 197.318817 
L 593.698412 195.867693 
L 594.793175 195.867693 
L 594.793175 201.940918 
L 595.887938 201.940918 
L 595.887938 199.844849 
L 596.9827 199.844849 
L 596.9827 206.07931 
L 599.172225 206.186801 
L 599.172225 208.444106 
L 600.266988 208.444106 
L 600.266988 213.012461 
L 601.36175 213.012461 
L 601.36175 210.755156 
L 602.456513 210.755156 
L 602.456513 213.496169 
L 603.551275 213.496169 
L 603.551275 212.958715 
L 604.646038 212.958715 
L 604.646038 216.022201 
L 605.7408 216.022201 
L 605.7408 216.935872 
L 606.835563 216.935872 
L 606.835563 221.450481 
L 607.930325 221.450481 
L 607.930325 218.978195 
L 609.025088 218.978195 
L 609.025088 221.128009 
L 610.11985 221.128009 
L 610.11985 221.342991 
L 611.214613 221.342991 
L 611.214613 221.719208 
L 612.309375 221.719208 
L 612.309375 222.04168 
L 613.404138 222.04168 
L 613.404138 226.717526 
L 614.498901 226.717526 
L 614.498901 226.502545 
L 615.593663 226.502545 
L 615.593663 225.535128 
L 616.688426 225.535128 
L 616.688426 228.652359 
L 617.783188 228.652359 
L 617.783188 227.201234 
L 618.877951 227.201234 
L 618.877951 228.168651 
L 619.972713 228.168651 
L 619.972713 229.781011 
L 621.067476 229.781011 
L 621.067476 229.189812 
L 623.257001 229.189812 
L 623.257001 232.038316 
L 624.351763 232.038316 
L 624.351763 230.103484 
L 625.446526 230.103484 
L 625.446526 231.608353 
L 626.541288 231.608353 
L 626.541288 233.328205 
L 627.636051 233.328205 
L 627.636051 233.811913 
L 628.730813 233.811913 
L 628.730813 233.543186 
L 630.920339 233.543186 
L 630.920339 234.026894 
L 632.015101 234.026894 
L 632.015101 234.940565 
L 633.109864 234.940565 
L 633.109864 236.499181 
L 634.204626 236.499181 
L 634.204626 235.478019 
L 637.488914 235.370528 
L 637.488914 236.39169 
L 638.583676 236.39169 
L 638.583676 235.961727 
L 639.678439 235.961727 
L 639.678439 236.875398 
L 640.773201 236.875398 
L 640.773201 237.520342 
L 641.867964 237.520342 
L 641.867964 237.251616 
L 642.962726 237.251616 
L 642.962726 238.380268 
L 644.057489 238.380268 
L 644.057489 237.627833 
L 645.152251 237.627833 
L 645.152251 237.144125 
L 646.247014 237.144125 
L 646.247014 238.810231 
L 647.341776 238.810231 
L 647.341776 237.789069 
L 648.436539 237.789069 
L 648.436539 239.508921 
L 649.531302 239.508921 
L 649.531302 239.186448 
L 650.626064 239.186448 
L 650.626064 240.100119 
L 651.720827 240.100119 
L 651.720827 239.508921 
L 652.815589 239.508921 
L 652.815589 239.938883 
L 653.910352 239.938883 
L 653.910352 239.455175 
L 655.005114 239.455175 
L 655.005114 240.691318 
L 656.099877 240.691318 
L 656.099877 241.01379 
L 657.194639 241.01379 
L 657.194639 240.100119 
L 658.289402 240.100119 
L 658.289402 241.067536 
L 659.384164 241.067536 
L 659.384164 239.992629 
L 660.478927 239.992629 
L 660.478927 240.852554 
L 661.573689 240.852554 
L 661.573689 241.766225 
L 662.668452 241.766225 
L 662.668452 241.604989 
L 663.763214 241.604989 
L 663.763214 241.228772 
L 664.857977 241.228772 
L 664.857977 241.01379 
L 665.952739 241.01379 
L 665.952739 241.497499 
L 668.142265 241.443753 
L 668.142265 241.819971 
L 669.237027 241.819971 
L 669.237027 242.034952 
L 670.33179 242.034952 
L 670.33179 242.357424 
L 671.426552 242.357424 
L 671.426552 242.51866 
L 674.71084 242.626151 
L 674.71084 242.142443 
L 675.805602 242.142443 
L 675.805602 242.41117 
L 676.900365 242.41117 
L 676.900365 243.109859 
L 677.995127 243.109859 
L 677.995127 241.819971 
L 679.08989 241.819971 
L 679.08989 242.679896 
L 680.184652 242.679896 
L 680.184652 242.894878 
L 681.279415 242.894878 
L 681.279415 242.679896 
L 682.374177 242.679896 
L 682.374177 243.701058 
L 683.46894 243.701058 
L 683.46894 243.271095 
L 685.658465 243.378586 
L 685.658465 242.894878 
L 686.753228 242.894878 
L 686.753228 243.324841 
L 687.84799 243.324841 
L 687.84799 243.808549 
L 688.942753 243.808549 
L 688.942753 243.21735 
L 690.037515 243.21735 
L 690.037515 243.378586 
L 691.132278 243.378586 
L 691.132278 243.539822 
L 692.22704 243.539822 
L 692.22704 243.056114 
L 693.321803 243.056114 
L 693.321803 243.701058 
L 694.416565 243.701058 
L 694.416565 244.399748 
L 695.511328 244.399748 
L 695.511328 243.432331 
L 696.60609 243.432331 
L 696.60609 243.593568 
L 697.700853 243.593568 
L 697.700853 244.560984 
L 698.795615 244.560984 
L 698.795615 243.539822 
L 699.890378 243.539822 
L 699.890378 243.378586 
L 700.98514 243.378586 
L 700.98514 244.507239 
L 704.269428 244.399748 
L 704.269428 243.91604 
L 705.364191 243.91604 
L 705.364191 244.346002 
L 706.458953 244.346002 
L 706.458953 244.560984 
L 708.648478 244.507239 
L 708.648478 244.077276 
L 709.743241 244.077276 
L 709.743241 243.701058 
L 710.838003 243.701058 
L 710.838003 244.292257 
L 711.932766 244.292257 
L 711.932766 244.990947 
L 713.027528 244.990947 
L 713.027528 244.292257 
L 716.311816 244.346002 
L 716.311816 244.937201 
L 717.406578 244.937201 
L 717.406578 244.72222 
L 719.596103 244.668475 
L 719.596103 244.883456 
L 720.690866 244.883456 
L 720.690866 244.614729 
L 722.880391 244.560984 
L 722.880391 244.775965 
L 725.069916 244.829711 
L 725.069916 244.560984 
L 726.164679 244.560984 
L 726.164679 244.937201 
L 732.733254 245.044692 
L 732.733254 244.775965 
L 736.017541 244.775965 
L 736.017541 244.937201 
L 737.112304 244.937201 
L 737.112304 245.205928 
L 739.301829 245.098437 
L 739.301829 244.937201 
L 745.870404 244.937201 
L 745.870404 245.367164 
L 746.965167 245.367164 
L 746.965167 245.205928 
L 750.249454 245.205928 
L 750.249454 244.829711 
L 751.344217 244.829711 
L 751.344217 245.259673 
L 752.438979 245.259673 
L 752.438979 245.42091 
L 753.533742 245.42091 
L 753.533742 245.044692 
L 754.628504 245.044692 
L 754.628504 245.313419 
L 755.723267 245.313419 
L 755.723267 245.474655 
L 756.818029 245.474655 
L 756.818029 245.152183 
L 759.007555 245.098437 
L 759.007555 245.367164 
L 765.57613 245.42091 
L 765.57613 245.098437 
L 766.670892 245.098437 
L 766.670892 245.5284 
L 768.860417 245.635891 
L 768.860417 245.259673 
L 769.95518 245.259673 
L 769.95518 245.42091 
L 772.144705 245.474655 
L 772.144705 245.259673 
L 774.33423 245.313419 
L 774.33423 245.474655 
L 777.618518 245.5284 
L 777.618518 245.313419 
L 778.71328 245.313419 
L 778.71328 245.474655 
L 783.09233 245.474655 
L 783.09233 245.313419 
L 784.187093 245.313419 
L 784.187093 245.689636 
L 786.376618 245.635891 
L 786.376618 245.5284 
L 796.229481 245.582146 
L 796.229481 245.743382 
L 798.419006 245.743382 
L 798.419006 245.582146 
L 812.650919 245.582146 
L 812.650919 245.367164 
L 813.745681 245.367164 
L 813.745681 245.582146 
L 815.935206 245.689636 
L 815.935206 245.743382 
L 820.314256 245.689636 
L 820.314256 245.582146 
L 824.693306 245.689636 
L 824.693306 245.797127 
L 827.977594 245.743382 
L 827.977594 245.474655 
L 831.261882 245.582146 
L 831.261882 245.689636 
L 848.778082 245.582146 
L 848.778082 245.582146 
" clip-path="url(#pfc5ee0ba95)" style="fill: none; stroke: #1f77b4; stroke-width: 1.5; stroke-linecap: square"/>
   </g>
   <g id="patch_8">
    <path d="M 503.927885 257.158895 
L 503.927885 7.2 
" style="fill: none; stroke: #000000; stroke-width: 0.8; stroke-linejoin: miter; stroke-linecap: square"/>
   </g>
   <g id="patch_9">
    <path d="M 865.19952 257.158895 
L 865.19952 7.2 
" style="fill: none; stroke: #000000; stroke-width: 0.8; stroke-linejoin: miter; stroke-linecap: square"/>
   </g>
   <g id="patch_10">
    <path d="M 503.927885 257.158895 
L 865.19952 257.158895 
" style="fill: none; stroke: #000000; stroke-width: 0.8; stroke-linejoin: miter; stroke-linecap: square"/>
   </g>
   <g id="patch_11">
    <path d="M 503.927885 7.2 
L 865.19952 7.2 
" style="fill: none; stroke: #000000; stroke-width: 0.8; stroke-linejoin: miter; stroke-linecap: square"/>
   </g>
  </g>
 </g>
 <defs>
  <clipPath id="pb0e35b4821">
   <rect x="53.328125" y="7.2" width="361.271635" height="249.958895"/>
  </clipPath>
  <clipPath id="pfc5ee0ba95">
   <rect x="503.927885" y="7.2" width="361.271635" height="249.958895"/>
  </clipPath>
 </defs>
</svg>
