<?xml version="1.0" encoding="utf-8" standalone="no"?>
<!DOCTYPE svg PUBLIC "-//W3C//DTD SVG 1.1//EN"
  "http://www.w3.org/Graphics/SVG/1.1/DTD/svg11.dtd">
<svg xmlns:xlink="http://www.w3.org/1999/xlink" width="389.288281pt" height="268.845156pt" viewBox="0 0 389.288281 268.845156" xmlns="http://www.w3.org/2000/svg" version="1.1">
 <metadata>
  <rdf:RDF xmlns:dc="http://purl.org/dc/elements/1.1/" xmlns:cc="http://creativecommons.org/ns#" xmlns:rdf="http://www.w3.org/1999/02/22-rdf-syntax-ns#">
   <cc:Work>
    <dc:type rdf:resource="http://purl.org/dc/dcmitype/StillImage"/>
    <dc:date>2026-06-30T14:34:20.644618</dc:date>
    <dc:format>image/svg+xml</dc:format>
    <dc:creator>
     <cc:Agent>
      <dc:title>Matplotlib v3.11.0, https://matplotlib.org/</dc:title>
     </cc:Agent>
    </dc:creator>
   </cc:Work>
  </rdf:RDF>
 </metadata>
 <defs>
  <style type="text/css">*{stroke-linejoin: round; stroke-linecap: butt}</style>
 </defs>
 <g id="figure_1">
  <g id="patch_1">
   <path d="M 0 268.845156 
L 389.288281 268.845156 
L 389.288281 0 
L 0 0 
z
" style="fill: #ffffff"/>
  </g>
  <g id="axes_1">
   <g id="patch_2">
    <path d="M 47.288281 228.96 
L 382.088281 228.96 
L 382.088281 7.2 
L 47.288281 7.2 
z
" style="fill: #ffffff"/>
   </g>
   <g id="matplotlib.axis_1">
    <g id="xtick_1">
     <g id="line2d_1">
      <defs>
       <path id="m6451e16df8" d="M 0 0 
L 0 3.5 
" style="stroke: #000000; stroke-width: 0.8"/>
      </defs>
      <g>
       <use xlink:href="#m6451e16df8" x="78.525602" y="228.96" style="stroke: #000000; stroke-width: 0.8"/>
      </g>
     </g>
     <g id="text_1">
      <!-- 1.0 -->
      <g transform="translate(70.574039 243.557656) scale(0.1 -0.1)">
       <defs>
        <path id="DejaVuSans-14" d="M 794 531 
L 1825 531 
L 1825 4091 
L 703 3866 
L 703 4441 
L 1819 4666 
L 2450 4666 
L 2450 531 
L 3481 531 
L 3481 0 
L 794 0 
L 794 531 
z
" transform="scale(0.015625)"/>
        <path id="DejaVuSans-11" d="M 684 794 
L 1344 794 
L 1344 0 
L 684 0 
L 684 794 
z
" transform="scale(0.015625)"/>
        <path id="DejaVuSans-13" d="M 2034 4250 
Q 1547 4250 1301 3770 
Q 1056 3291 1056 2328 
Q 1056 1369 1301 889 
Q 1547 409 2034 409 
Q 2525 409 2770 889 
Q 3016 1369 3016 2328 
Q 3016 3291 2770 3770 
Q 2525 4250 2034 4250 
z
M 2034 4750 
Q 2819 4750 3233 4129 
Q 3647 3509 3647 2328 
Q 3647 1150 3233 529 
Q 2819 -91 2034 -91 
Q 1250 -91 836 529 
Q 422 1150 422 2328 
Q 422 3509 836 4129 
Q 1250 4750 2034 4750 
z
" transform="scale(0.015625)"/>
       </defs>
       <use xlink:href="#DejaVuSans-14"/>
       <use xlink:href="#DejaVuSans-11" transform="translate(63.625 0)"/>
       <use xlink:href="#DejaVuSans-13" transform="translate(95.40625 0)"/>
      </g>
     </g>
    </g>
    <g id="xtick_2">
     <g id="line2d_2">
      <g>
       <use xlink:href="#m6451e16df8" x="118.573449" y="228.96" style="stroke: #000000; stroke-width: 0.8"/>
      </g>
     </g>
     <g id="text_2">
      <!-- 1.5 -->
      <g transform="translate(110.621886 243.557656) scale(0.1 -0.1)">
       <defs>
        <path id="DejaVuSans-18" d="M 691 4666 
L 3169 4666 
L 3169 4134 
L 1269 4134 
L 1269 2991 
Q 1406 3038 1543 3061 
Q 1681 3084 1819 3084 
Q 2600 3084 3056 2656 
Q 3513 2228 3513 1497 
Q 3513 744 3044 326 
Q 2575 -91 1722 -91 
Q 1428 -91 1123 -41 
Q 819 9 494 109 
L 494 744 
Q 775 591 1075 516 
Q 1375 441 1709 441 
Q 2250 441 2565 725 
Q 2881 1009 2881 1497 
Q 2881 1984 2565 2268 
Q 2250 2553 1709 2553 
Q 1456 2553 1204 2497 
Q 953 2441 691 2322 
L 691 4666 
z
" transform="scale(0.015625)"/>
       </defs>
       <use xlink:href="#DejaVuSans-14"/>
       <use xlink:href="#DejaVuSans-11" transform="translate(63.625 0)"/>
       <use xlink:href="#DejaVuSans-18" transform="translate(95.40625 0)"/>
      </g>
     </g>
    </g>
    <g id="xtick_3">
     <g id="line2d_3">
      <g>
       <use xlink:href="#m6451e16df8" x="158.621296" y="228.96" style="stroke: #000000; stroke-width: 0.8"/>
      </g>
     </g>
     <g id="text_3">
      <!-- 2.0 -->
      <g transform="translate(150.669733 243.557656) scale(0.1 -0.1)">
       <defs>
        <path id="DejaVuSans-15" d="M 1228 531 
L 3431 531 
L 3431 0 
L 469 0 
L 469 531 
Q 828 903 1448 1529 
Q 2069 2156 2228 2338 
Q 2531 2678 2651 2914 
Q 2772 3150 2772 3378 
Q 2772 3750 2511 3984 
Q 2250 4219 1831 4219 
Q 1534 4219 1204 4116 
Q 875 4013 500 3803 
L 500 4441 
Q 881 4594 1212 4672 
Q 1544 4750 1819 4750 
Q 2544 4750 2975 4387 
Q 3406 4025 3406 3419 
Q 3406 3131 3298 2873 
Q 3191 2616 2906 2266 
Q 2828 2175 2409 1742 
Q 1991 1309 1228 531 
z
" transform="scale(0.015625)"/>
       </defs>
       <use xlink:href="#DejaVuSans-15"/>
       <use xlink:href="#DejaVuSans-11" transform="translate(63.625 0)"/>
       <use xlink:href="#DejaVuSans-13" transform="translate(95.40625 0)"/>
      </g>
     </g>
    </g>
    <g id="xtick_4">
     <g id="line2d_4">
      <g>
       <use xlink:href="#m6451e16df8" x="198.669142" y="228.96" style="stroke: #000000; stroke-width: 0.8"/>
      </g>
     </g>
     <g id="text_4">
      <!-- 2.5 -->
      <g transform="translate(190.71758 243.557656) scale(0.1 -0.1)">
       <use xlink:href="#DejaVuSans-15"/>
       <use xlink:href="#DejaVuSans-11" transform="translate(63.625 0)"/>
       <use xlink:href="#DejaVuSans-18" transform="translate(95.40625 0)"/>
      </g>
     </g>
    </g>
    <g id="xtick_5">
     <g id="line2d_5">
      <g>
       <use xlink:href="#m6451e16df8" x="238.716989" y="228.96" style="stroke: #000000; stroke-width: 0.8"/>
      </g>
     </g>
     <g id="text_5">
      <!-- 3.0 -->
      <g transform="translate(230.765427 243.557656) scale(0.1 -0.1)">
       <defs>
        <path id="DejaVuSans-16" d="M 2597 2516 
Q 3050 2419 3304 2112 
Q 3559 1806 3559 1356 
Q 3559 666 3084 287 
Q 2609 -91 1734 -91 
Q 1441 -91 1130 -33 
Q 819 25 488 141 
L 488 750 
Q 750 597 1062 519 
Q 1375 441 1716 441 
Q 2309 441 2620 675 
Q 2931 909 2931 1356 
Q 2931 1769 2642 2001 
Q 2353 2234 1838 2234 
L 1294 2234 
L 1294 2753 
L 1863 2753 
Q 2328 2753 2575 2939 
Q 2822 3125 2822 3475 
Q 2822 3834 2567 4026 
Q 2313 4219 1838 4219 
Q 1578 4219 1281 4162 
Q 984 4106 628 3988 
L 628 4550 
Q 988 4650 1302 4700 
Q 1616 4750 1894 4750 
Q 2613 4750 3031 4423 
Q 3450 4097 3450 3541 
Q 3450 3153 3228 2886 
Q 3006 2619 2597 2516 
z
" transform="scale(0.015625)"/>
       </defs>
       <use xlink:href="#DejaVuSans-16"/>
       <use xlink:href="#DejaVuSans-11" transform="translate(63.625 0)"/>
       <use xlink:href="#DejaVuSans-13" transform="translate(95.40625 0)"/>
      </g>
     </g>
    </g>
    <g id="xtick_6">
     <g id="line2d_6">
      <g>
       <use xlink:href="#m6451e16df8" x="278.764836" y="228.96" style="stroke: #000000; stroke-width: 0.8"/>
      </g>
     </g>
     <g id="text_6">
      <!-- 3.5 -->
      <g transform="translate(270.813274 243.557656) scale(0.1 -0.1)">
       <use xlink:href="#DejaVuSans-16"/>
       <use xlink:href="#DejaVuSans-11" transform="translate(63.625 0)"/>
       <use xlink:href="#DejaVuSans-18" transform="translate(95.40625 0)"/>
      </g>
     </g>
    </g>
    <g id="xtick_7">
     <g id="line2d_7">
      <g>
       <use xlink:href="#m6451e16df8" x="318.812683" y="228.96" style="stroke: #000000; stroke-width: 0.8"/>
      </g>
     </g>
     <g id="text_7">
      <!-- 4.0 -->
      <g transform="translate(310.861121 243.557656) scale(0.1 -0.1)">
       <defs>
        <path id="DejaVuSans-17" d="M 2419 4116 
L 825 1625 
L 2419 1625 
L 2419 4116 
z
M 2253 4666 
L 3047 4666 
L 3047 1625 
L 3713 1625 
L 3713 1100 
L 3047 1100 
L 3047 0 
L 2419 0 
L 2419 1100 
L 313 1100 
L 313 1709 
L 2253 4666 
z
" transform="scale(0.015625)"/>
       </defs>
       <use xlink:href="#DejaVuSans-17"/>
       <use xlink:href="#DejaVuSans-11" transform="translate(63.625 0)"/>
       <use xlink:href="#DejaVuSans-13" transform="translate(95.40625 0)"/>
      </g>
     </g>
    </g>
    <g id="xtick_8">
     <g id="line2d_8">
      <g>
       <use xlink:href="#m6451e16df8" x="358.86053" y="228.96" style="stroke: #000000; stroke-width: 0.8"/>
      </g>
     </g>
     <g id="text_8">
      <!-- 4.5 -->
      <g transform="translate(350.908968 243.557656) scale(0.1 -0.1)">
       <use xlink:href="#DejaVuSans-17"/>
       <use xlink:href="#DejaVuSans-11" transform="translate(63.625 0)"/>
       <use xlink:href="#DejaVuSans-18" transform="translate(95.40625 0)"/>
      </g>
     </g>
    </g>
    <g id="text_9">
     <!-- wavelength [Å] -->
     <g transform="translate(176.650781 259.242812) scale(0.1 -0.1)">
      <defs>
       <path id="DejaVuSans-5a" d="M 269 3500 
L 844 3500 
L 1563 769 
L 2278 3500 
L 2956 3500 
L 3675 769 
L 4391 3500 
L 4966 3500 
L 4050 0 
L 3372 0 
L 2619 2869 
L 1863 0 
L 1184 0 
L 269 3500 
z
" transform="scale(0.015625)"/>
       <path id="DejaVuSans-44" d="M 2194 1759 
Q 1497 1759 1228 1600 
Q 959 1441 959 1056 
Q 959 750 1161 570 
Q 1363 391 1709 391 
Q 2188 391 2477 730 
Q 2766 1069 2766 1631 
L 2766 1759 
L 2194 1759 
z
M 3341 1997 
L 3341 0 
L 2766 0 
L 2766 531 
Q 2569 213 2275 61 
Q 1981 -91 1556 -91 
Q 1019 -91 701 211 
Q 384 513 384 1019 
Q 384 1609 779 1909 
Q 1175 2209 1959 2209 
L 2766 2209 
L 2766 2266 
Q 2766 2663 2505 2880 
Q 2244 3097 1772 3097 
Q 1472 3097 1187 3025 
Q 903 2953 641 2809 
L 641 3341 
Q 956 3463 1253 3523 
Q 1550 3584 1831 3584 
Q 2591 3584 2966 3190 
Q 3341 2797 3341 1997 
z
" transform="scale(0.015625)"/>
       <path id="DejaVuSans-59" d="M 191 3500 
L 800 3500 
L 1894 563 
L 2988 3500 
L 3597 3500 
L 2284 0 
L 1503 0 
L 191 3500 
z
" transform="scale(0.015625)"/>
       <path id="DejaVuSans-48" d="M 3597 1894 
L 3597 1613 
L 953 1613 
Q 991 1019 1311 708 
Q 1631 397 2203 397 
Q 2534 397 2845 478 
Q 3156 559 3463 722 
L 3463 178 
Q 3153 47 2828 -22 
Q 2503 -91 2169 -91 
Q 1331 -91 842 396 
Q 353 884 353 1716 
Q 353 2575 817 3079 
Q 1281 3584 2069 3584 
Q 2775 3584 3186 3129 
Q 3597 2675 3597 1894 
z
M 3022 2063 
Q 3016 2534 2758 2815 
Q 2500 3097 2075 3097 
Q 1594 3097 1305 2825 
Q 1016 2553 972 2059 
L 3022 2063 
z
" transform="scale(0.015625)"/>
       <path id="DejaVuSans-4f" d="M 603 4863 
L 1178 4863 
L 1178 0 
L 603 0 
L 603 4863 
z
" transform="scale(0.015625)"/>
       <path id="DejaVuSans-51" d="M 3513 2113 
L 3513 0 
L 2938 0 
L 2938 2094 
Q 2938 2591 2744 2837 
Q 2550 3084 2163 3084 
Q 1697 3084 1428 2787 
Q 1159 2491 1159 1978 
L 1159 0 
L 581 0 
L 581 3500 
L 1159 3500 
L 1159 2956 
Q 1366 3272 1645 3428 
Q 1925 3584 2291 3584 
Q 2894 3584 3203 3211 
Q 3513 2838 3513 2113 
z
" transform="scale(0.015625)"/>
       <path id="DejaVuSans-4a" d="M 2906 1791 
Q 2906 2416 2648 2759 
Q 2391 3103 1925 3103 
Q 1463 3103 1205 2759 
Q 947 2416 947 1791 
Q 947 1169 1205 825 
Q 1463 481 1925 481 
Q 2391 481 2648 825 
Q 2906 1169 2906 1791 
z
M 3481 434 
Q 3481 -459 3084 -895 
Q 2688 -1331 1869 -1331 
Q 1566 -1331 1297 -1286 
Q 1028 -1241 775 -1147 
L 775 -588 
Q 1028 -725 1275 -790 
Q 1522 -856 1778 -856 
Q 2344 -856 2625 -561 
Q 2906 -266 2906 331 
L 2906 616 
Q 2728 306 2450 153 
Q 2172 0 1784 0 
Q 1141 0 747 490 
Q 353 981 353 1791 
Q 353 2603 747 3093 
Q 1141 3584 1784 3584 
Q 2172 3584 2450 3431 
Q 2728 3278 2906 2969 
L 2906 3500 
L 3481 3500 
L 3481 434 
z
" transform="scale(0.015625)"/>
       <path id="DejaVuSans-57" d="M 1172 4494 
L 1172 3500 
L 2356 3500 
L 2356 3053 
L 1172 3053 
L 1172 1153 
Q 1172 725 1289 603 
Q 1406 481 1766 481 
L 2356 481 
L 2356 0 
L 1766 0 
Q 1100 0 847 248 
Q 594 497 594 1153 
L 594 3053 
L 172 3053 
L 172 3500 
L 594 3500 
L 594 4494 
L 1172 4494 
z
" transform="scale(0.015625)"/>
       <path id="DejaVuSans-4b" d="M 3513 2113 
L 3513 0 
L 2938 0 
L 2938 2094 
Q 2938 2591 2744 2837 
Q 2550 3084 2163 3084 
Q 1697 3084 1428 2787 
Q 1159 2491 1159 1978 
L 1159 0 
L 581 0 
L 581 4863 
L 1159 4863 
L 1159 2956 
Q 1366 3272 1645 3428 
Q 1925 3584 2291 3584 
Q 2894 3584 3203 3211 
Q 3513 2838 3513 2113 
z
" transform="scale(0.015625)"/>
       <path id="DejaVuSans-3" transform="scale(0.015625)"/>
       <path id="DejaVuSans-3e" d="M 550 4863 
L 1875 4863 
L 1875 4416 
L 1125 4416 
L 1125 -397 
L 1875 -397 
L 1875 -844 
L 550 -844 
L 550 4863 
z
" transform="scale(0.015625)"/>
       <path id="DejaVuSans-87" d="M 2663 5081 
Q 2663 5278 2523 5417 
Q 2384 5556 2188 5556 
Q 1988 5556 1852 5420 
Q 1716 5284 1716 5081 
Q 1716 4884 1853 4746 
Q 1991 4609 2188 4609 
Q 2384 4609 2523 4746 
Q 2663 4884 2663 5081 
z
M 2188 4044 
L 1338 1722 
L 3041 1722 
L 2188 4044 
z
M 1716 4366 
Q 1525 4494 1428 4673 
Q 1331 4853 1331 5081 
Q 1331 5441 1579 5691 
Q 1828 5941 2188 5941 
Q 2544 5941 2795 5689 
Q 3047 5438 3047 5081 
Q 3047 4863 2948 4678 
Q 2850 4494 2663 4366 
L 4325 0 
L 3669 0 
L 3244 1197 
L 1141 1197 
L 716 0 
L 50 0 
L 1716 4366 
z
" transform="scale(0.015625)"/>
       <path id="DejaVuSans-40" d="M 1947 4863 
L 1947 -844 
L 622 -844 
L 622 -397 
L 1369 -397 
L 1369 4416 
L 622 4416 
L 622 4863 
L 1947 4863 
z
" transform="scale(0.015625)"/>
      </defs>
      <use xlink:href="#DejaVuSans-5a"/>
      <use xlink:href="#DejaVuSans-44" transform="translate(81.78125 0)"/>
      <use xlink:href="#DejaVuSans-59" transform="translate(143.0625 0)"/>
      <use xlink:href="#DejaVuSans-48" transform="translate(202.25 0)"/>
      <use xlink:href="#DejaVuSans-4f" transform="translate(263.78125 0)"/>
      <use xlink:href="#DejaVuSans-48" transform="translate(291.5625 0)"/>
      <use xlink:href="#DejaVuSans-51" transform="translate(353.09375 0)"/>
      <use xlink:href="#DejaVuSans-4a" transform="translate(416.46875 0)"/>
      <use xlink:href="#DejaVuSans-57" transform="translate(479.953125 0)"/>
      <use xlink:href="#DejaVuSans-4b" transform="translate(519.15625 0)"/>
      <use xlink:href="#DejaVuSans-3" transform="translate(582.53125 0)"/>
      <use xlink:href="#DejaVuSans-3e" transform="translate(614.3125 0)"/>
      <use xlink:href="#DejaVuSans-87" transform="translate(653.328125 0)"/>
      <use xlink:href="#DejaVuSans-40" transform="translate(721.734375 0)"/>
     </g>
    </g>
   </g>
   <g id="matplotlib.axis_2">
    <g id="ytick_1">
     <g id="line2d_9">
      <defs>
       <path id="m7325046568" d="M 0 0 
L -3.5 0 
" style="stroke: #000000; stroke-width: 0.8"/>
      </defs>
      <g>
       <use xlink:href="#m7325046568" x="47.288281" y="218.88" style="stroke: #000000; stroke-width: 0.8"/>
      </g>
     </g>
     <g id="text_10">
      <!-- 0 -->
      <g transform="translate(33.925781 222.678828) scale(0.1 -0.1)">
       <use xlink:href="#DejaVuSans-13"/>
      </g>
     </g>
    </g>
    <g id="ytick_2">
     <g id="line2d_10">
      <g>
       <use xlink:href="#m7325046568" x="47.288281" y="193.06694" style="stroke: #000000; stroke-width: 0.8"/>
      </g>
     </g>
     <g id="text_11">
      <!-- 100 -->
      <g transform="translate(21.200781 196.865768) scale(0.1 -0.1)">
       <use xlink:href="#DejaVuSans-14"/>
       <use xlink:href="#DejaVuSans-13" transform="translate(63.625 0)"/>
       <use xlink:href="#DejaVuSans-13" transform="translate(127.25 0)"/>
      </g>
     </g>
    </g>
    <g id="ytick_3">
     <g id="line2d_11">
      <g>
       <use xlink:href="#m7325046568" x="47.288281" y="167.25388" style="stroke: #000000; stroke-width: 0.8"/>
      </g>
     </g>
     <g id="text_12">
      <!-- 200 -->
      <g transform="translate(21.200781 171.052708) scale(0.1 -0.1)">
       <use xlink:href="#DejaVuSans-15"/>
       <use xlink:href="#DejaVuSans-13" transform="translate(63.625 0)"/>
       <use xlink:href="#DejaVuSans-13" transform="translate(127.25 0)"/>
      </g>
     </g>
    </g>
    <g id="ytick_4">
     <g id="line2d_12">
      <g>
       <use xlink:href="#m7325046568" x="47.288281" y="141.440819" style="stroke: #000000; stroke-width: 0.8"/>
      </g>
     </g>
     <g id="text_13">
      <!-- 300 -->
      <g transform="translate(21.200781 145.239648) scale(0.1 -0.1)">
       <use xlink:href="#DejaVuSans-16"/>
       <use xlink:href="#DejaVuSans-13" transform="translate(63.625 0)"/>
       <use xlink:href="#DejaVuSans-13" transform="translate(127.25 0)"/>
      </g>
     </g>
    </g>
    <g id="ytick_5">
     <g id="line2d_13">
      <g>
       <use xlink:href="#m7325046568" x="47.288281" y="115.627759" style="stroke: #000000; stroke-width: 0.8"/>
      </g>
     </g>
     <g id="text_14">
      <!-- 400 -->
      <g transform="translate(21.200781 119.426587) scale(0.1 -0.1)">
       <use xlink:href="#DejaVuSans-17"/>
       <use xlink:href="#DejaVuSans-13" transform="translate(63.625 0)"/>
       <use xlink:href="#DejaVuSans-13" transform="translate(127.25 0)"/>
      </g>
     </g>
    </g>
    <g id="ytick_6">
     <g id="line2d_14">
      <g>
       <use xlink:href="#m7325046568" x="47.288281" y="89.814699" style="stroke: #000000; stroke-width: 0.8"/>
      </g>
     </g>
     <g id="text_15">
      <!-- 500 -->
      <g transform="translate(21.200781 93.613527) scale(0.1 -0.1)">
       <use xlink:href="#DejaVuSans-18"/>
       <use xlink:href="#DejaVuSans-13" transform="translate(63.625 0)"/>
       <use xlink:href="#DejaVuSans-13" transform="translate(127.25 0)"/>
      </g>
     </g>
    </g>
    <g id="ytick_7">
     <g id="line2d_15">
      <g>
       <use xlink:href="#m7325046568" x="47.288281" y="64.001639" style="stroke: #000000; stroke-width: 0.8"/>
      </g>
     </g>
     <g id="text_16">
      <!-- 600 -->
      <g transform="translate(21.200781 67.800467) scale(0.1 -0.1)">
       <defs>
        <path id="DejaVuSans-19" d="M 2113 2584 
Q 1688 2584 1439 2293 
Q 1191 2003 1191 1497 
Q 1191 994 1439 701 
Q 1688 409 2113 409 
Q 2538 409 2786 701 
Q 3034 994 3034 1497 
Q 3034 2003 2786 2293 
Q 2538 2584 2113 2584 
z
M 3366 4563 
L 3366 3988 
Q 3128 4100 2886 4159 
Q 2644 4219 2406 4219 
Q 1781 4219 1451 3797 
Q 1122 3375 1075 2522 
Q 1259 2794 1537 2939 
Q 1816 3084 2150 3084 
Q 2853 3084 3261 2657 
Q 3669 2231 3669 1497 
Q 3669 778 3244 343 
Q 2819 -91 2113 -91 
Q 1303 -91 875 529 
Q 447 1150 447 2328 
Q 447 3434 972 4092 
Q 1497 4750 2381 4750 
Q 2619 4750 2861 4703 
Q 3103 4656 3366 4563 
z
" transform="scale(0.015625)"/>
       </defs>
       <use xlink:href="#DejaVuSans-19"/>
       <use xlink:href="#DejaVuSans-13" transform="translate(63.625 0)"/>
       <use xlink:href="#DejaVuSans-13" transform="translate(127.25 0)"/>
      </g>
     </g>
    </g>
    <g id="ytick_8">
     <g id="line2d_16">
      <g>
       <use xlink:href="#m7325046568" x="47.288281" y="38.188579" style="stroke: #000000; stroke-width: 0.8"/>
      </g>
     </g>
     <g id="text_17">
      <!-- 700 -->
      <g transform="translate(21.200781 41.987407) scale(0.1 -0.1)">
       <defs>
        <path id="DejaVuSans-1a" d="M 525 4666 
L 3525 4666 
L 3525 4397 
L 1831 0 
L 1172 0 
L 2766 4134 
L 525 4134 
L 525 4666 
z
" transform="scale(0.015625)"/>
       </defs>
       <use xlink:href="#DejaVuSans-1a"/>
       <use xlink:href="#DejaVuSans-13" transform="translate(63.625 0)"/>
       <use xlink:href="#DejaVuSans-13" transform="translate(127.25 0)"/>
      </g>
     </g>
    </g>
    <g id="ytick_9">
     <g id="line2d_17">
      <g>
       <use xlink:href="#m7325046568" x="47.288281" y="12.375519" style="stroke: #000000; stroke-width: 0.8"/>
      </g>
     </g>
     <g id="text_18">
      <!-- 800 -->
      <g transform="translate(21.200781 16.174347) scale(0.1 -0.1)">
       <defs>
        <path id="DejaVuSans-1b" d="M 2034 2216 
Q 1584 2216 1326 1975 
Q 1069 1734 1069 1313 
Q 1069 891 1326 650 
Q 1584 409 2034 409 
Q 2484 409 2743 651 
Q 3003 894 3003 1313 
Q 3003 1734 2745 1975 
Q 2488 2216 2034 2216 
z
M 1403 2484 
Q 997 2584 770 2862 
Q 544 3141 544 3541 
Q 544 4100 942 4425 
Q 1341 4750 2034 4750 
Q 2731 4750 3128 4425 
Q 3525 4100 3525 3541 
Q 3525 3141 3298 2862 
Q 3072 2584 2669 2484 
Q 3125 2378 3379 2068 
Q 3634 1759 3634 1313 
Q 3634 634 3220 271 
Q 2806 -91 2034 -91 
Q 1263 -91 848 271 
Q 434 634 434 1313 
Q 434 1759 690 2068 
Q 947 2378 1403 2484 
z
M 1172 3481 
Q 1172 3119 1398 2916 
Q 1625 2713 2034 2713 
Q 2441 2713 2670 2916 
Q 2900 3119 2900 3481 
Q 2900 3844 2670 4047 
Q 2441 4250 2034 4250 
Q 1625 4250 1398 4047 
Q 1172 3844 1172 3481 
z
" transform="scale(0.015625)"/>
       </defs>
       <use xlink:href="#DejaVuSans-1b"/>
       <use xlink:href="#DejaVuSans-13" transform="translate(63.625 0)"/>
       <use xlink:href="#DejaVuSans-13" transform="translate(127.25 0)"/>
      </g>
     </g>
    </g>
    <g id="text_19">
     <!-- [counts] -->
     <g transform="translate(14.798438 138.6925) rotate(-90) scale(0.1 -0.1)">
      <defs>
       <path id="DejaVuSans-46" d="M 3122 3366 
L 3122 2828 
Q 2878 2963 2633 3030 
Q 2388 3097 2138 3097 
Q 1578 3097 1268 2742 
Q 959 2388 959 1747 
Q 959 1106 1268 751 
Q 1578 397 2138 397 
Q 2388 397 2633 464 
Q 2878 531 3122 666 
L 3122 134 
Q 2881 22 2623 -34 
Q 2366 -91 2075 -91 
Q 1284 -91 818 406 
Q 353 903 353 1747 
Q 353 2603 823 3093 
Q 1294 3584 2113 3584 
Q 2378 3584 2631 3529 
Q 2884 3475 3122 3366 
z
" transform="scale(0.015625)"/>
       <path id="DejaVuSans-52" d="M 1959 3097 
Q 1497 3097 1228 2736 
Q 959 2375 959 1747 
Q 959 1119 1226 758 
Q 1494 397 1959 397 
Q 2419 397 2687 759 
Q 2956 1122 2956 1747 
Q 2956 2369 2687 2733 
Q 2419 3097 1959 3097 
z
M 1959 3584 
Q 2709 3584 3137 3096 
Q 3566 2609 3566 1747 
Q 3566 888 3137 398 
Q 2709 -91 1959 -91 
Q 1206 -91 779 398 
Q 353 888 353 1747 
Q 353 2609 779 3096 
Q 1206 3584 1959 3584 
z
" transform="scale(0.015625)"/>
       <path id="DejaVuSans-58" d="M 544 1381 
L 544 3500 
L 1119 3500 
L 1119 1403 
Q 1119 906 1312 657 
Q 1506 409 1894 409 
Q 2359 409 2629 706 
Q 2900 1003 2900 1516 
L 2900 3500 
L 3475 3500 
L 3475 0 
L 2900 0 
L 2900 538 
Q 2691 219 2414 64 
Q 2138 -91 1772 -91 
Q 1169 -91 856 284 
Q 544 659 544 1381 
z
M 1991 3584 
L 1991 3584 
z
" transform="scale(0.015625)"/>
       <path id="DejaVuSans-56" d="M 2834 3397 
L 2834 2853 
Q 2591 2978 2328 3040 
Q 2066 3103 1784 3103 
Q 1356 3103 1142 2972 
Q 928 2841 928 2578 
Q 928 2378 1081 2264 
Q 1234 2150 1697 2047 
L 1894 2003 
Q 2506 1872 2764 1633 
Q 3022 1394 3022 966 
Q 3022 478 2636 193 
Q 2250 -91 1575 -91 
Q 1294 -91 989 -36 
Q 684 19 347 128 
L 347 722 
Q 666 556 975 473 
Q 1284 391 1588 391 
Q 1994 391 2212 530 
Q 2431 669 2431 922 
Q 2431 1156 2273 1281 
Q 2116 1406 1581 1522 
L 1381 1569 
Q 847 1681 609 1914 
Q 372 2147 372 2553 
Q 372 3047 722 3315 
Q 1072 3584 1716 3584 
Q 2034 3584 2315 3537 
Q 2597 3491 2834 3397 
z
" transform="scale(0.015625)"/>
      </defs>
      <use xlink:href="#DejaVuSans-3e"/>
      <use xlink:href="#DejaVuSans-46" transform="translate(39.015625 0)"/>
      <use xlink:href="#DejaVuSans-52" transform="translate(94 0)"/>
      <use xlink:href="#DejaVuSans-58" transform="translate(155.1875 0)"/>
      <use xlink:href="#DejaVuSans-51" transform="translate(218.5625 0)"/>
      <use xlink:href="#DejaVuSans-57" transform="translate(281.9375 0)"/>
      <use xlink:href="#DejaVuSans-56" transform="translate(321.140625 0)"/>
      <use xlink:href="#DejaVuSans-40" transform="translate(373.234375 0)"/>
     </g>
    </g>
   </g>
   <g id="line2d_18">
    <path d="M 62.506463 218.88 
L 70.115554 218.88 
L 70.115554 217.589347 
L 71.637372 217.589347 
L 71.637372 210.619821 
L 73.15919 210.619821 
L 73.15919 201.84338 
L 74.681009 201.84338 
L 74.681009 191.776287 
L 76.202827 191.776287 
L 76.202827 186.355544 
L 77.724645 186.355544 
L 77.724645 174.481536 
L 79.246463 174.481536 
L 79.246463 173.965275 
L 80.768281 173.965275 
L 80.768281 159.768092 
L 82.290099 159.768092 
L 82.290099 145.570909 
L 83.811918 145.570909 
L 83.811918 146.861562 
L 85.333736 146.861562 
L 85.333736 126.727375 
L 86.855554 126.727375 
L 86.855554 126.211114 
L 88.377372 126.211114 
L 88.377372 118.725327 
L 89.89919 118.725327 
L 89.89919 96.267964 
L 91.421009 96.267964 
L 91.421009 91.105352 
L 92.942827 91.105352 
L 92.942827 102.721229 
L 94.464645 102.721229 
L 94.464645 90.07283 
L 95.986463 90.07283 
L 95.986463 88.007785 
L 97.508281 88.007785 
L 97.508281 77.42443 
L 99.030099 77.42443 
L 99.030099 73.294341 
L 100.551918 73.294341 
L 100.551918 64.25977 
L 102.073736 64.25977 
L 102.073736 68.90612 
L 103.595554 68.90612 
L 103.595554 46.706889 
L 105.117372 46.706889 
L 105.117372 49.546325 
L 106.63919 49.546325 
L 106.63919 49.030064 
L 108.161009 49.030064 
L 108.161009 49.804456 
L 109.682827 49.804456 
L 109.682827 34.57475 
L 111.204645 34.57475 
L 111.204645 42.318668 
L 112.726463 42.318668 
L 112.726463 43.09306 
L 114.248281 43.09306 
L 114.248281 27.863355 
L 115.770099 27.863355 
L 115.770099 37.672318 
L 117.291918 37.672318 
L 117.291918 23.991396 
L 118.813736 23.991396 
L 118.813736 25.540179 
L 120.335554 25.540179 
L 120.335554 17.28 
L 121.857372 17.28 
L 121.857372 33.542228 
L 123.37919 33.542228 
L 123.37919 30.444661 
L 124.901009 30.444661 
L 124.901009 32.509706 
L 126.422827 32.509706 
L 126.422827 31.993444 
L 127.944645 31.993444 
L 127.944645 41.286146 
L 129.466463 41.286146 
L 129.466463 43.867452 
L 130.988281 43.867452 
L 130.988281 52.902023 
L 132.510099 52.902023 
L 132.510099 40.769885 
L 134.031918 40.769885 
L 134.031918 65.550423 
L 135.553736 65.550423 
L 135.553736 49.804456 
L 137.075554 49.804456 
L 137.075554 51.61137 
L 138.597372 51.61137 
L 138.597372 56.257721 
L 140.11919 56.257721 
L 140.11919 42.83493 
L 141.641009 42.83493 
L 141.641009 69.680512 
L 143.162827 69.680512 
L 143.162827 73.810602 
L 144.684645 73.810602 
L 144.684645 77.682561 
L 146.206463 77.682561 
L 146.206463 68.64799 
L 147.728281 68.64799 
L 147.728281 76.391908 
L 149.250099 76.391908 
L 149.250099 76.133777 
L 150.771918 76.133777 
L 150.771918 72.003688 
L 152.293736 72.003688 
L 152.293736 85.684609 
L 153.815554 85.684609 
L 153.815554 71.229296 
L 155.337372 71.229296 
L 155.337372 77.42443 
L 156.85919 77.42443 
L 156.85919 72.519949 
L 158.381009 72.519949 
L 158.381009 83.361434 
L 159.902827 83.361434 
L 159.902827 70.971165 
L 161.424645 70.971165 
L 161.424645 79.231344 
L 162.946463 79.231344 
L 162.946463 71.745557 
L 164.468281 71.745557 
L 164.468281 67.099206 
L 165.990099 67.099206 
L 165.990099 81.55452 
L 167.511918 81.55452 
L 167.511918 78.973214 
L 169.033736 78.973214 
L 169.033736 78.456953 
L 170.555554 78.456953 
L 170.555554 77.42443 
L 172.077372 77.42443 
L 172.077372 76.650038 
L 173.59919 76.650038 
L 173.59919 83.619565 
L 175.121009 83.619565 
L 175.121009 81.81265 
L 176.642827 81.81265 
L 176.642827 84.393956 
L 178.164645 84.393956 
L 178.164645 83.103303 
L 179.686463 83.103303 
L 179.686463 89.040307 
L 181.208281 89.040307 
L 181.208281 104.786274 
L 182.730099 104.786274 
L 182.730099 97.300487 
L 184.251918 97.300487 
L 184.251918 103.23749 
L 185.773736 103.23749 
L 185.773736 107.883841 
L 187.295554 107.883841 
L 187.295554 115.627759 
L 188.817372 115.627759 
L 188.817372 123.371677 
L 190.33919 123.371677 
L 190.33919 132.406248 
L 191.861009 132.406248 
L 191.861009 138.085122 
L 193.382827 138.085122 
L 193.382827 138.601383 
L 194.904645 138.601383 
L 194.904645 154.863611 
L 196.426463 154.863611 
L 196.426463 163.12379 
L 197.948281 163.12379 
L 197.948281 165.963227 
L 199.470099 165.963227 
L 199.470099 174.223406 
L 200.991918 174.223406 
L 200.991918 181.451063 
L 202.513736 181.451063 
L 202.513736 177.837234 
L 204.035554 177.837234 
L 204.035554 175.255928 
L 205.557372 175.255928 
L 205.557372 168.286402 
L 207.07919 168.286402 
L 207.07919 147.635954 
L 208.601009 147.635954 
L 208.601009 148.152215 
L 210.122827 148.152215 
L 210.122827 134.729424 
L 211.644645 134.729424 
L 211.644645 120.27411 
L 213.166463 120.27411 
L 213.166463 119.757849 
L 214.688281 119.757849 
L 214.688281 113.304584 
L 216.210099 113.304584 
L 216.210099 120.01598 
L 217.731918 120.01598 
L 217.731918 97.816748 
L 219.253736 97.816748 
L 219.253736 104.270013 
L 220.775554 104.270013 
L 220.775554 93.170397 
L 222.297372 93.170397 
L 222.297372 88.265915 
L 223.81919 88.265915 
L 223.81919 98.84927 
L 225.341009 98.84927 
L 225.341009 96.526095 
L 226.862827 96.526095 
L 226.862827 78.715083 
L 228.384645 78.715083 
L 228.384645 77.42443 
L 229.906463 77.42443 
L 229.906463 69.938643 
L 231.428281 69.938643 
L 231.428281 70.971165 
L 232.950099 70.971165 
L 232.950099 67.099206 
L 234.471918 67.099206 
L 234.471918 74.326863 
L 235.993736 74.326863 
L 235.993736 64.001639 
L 237.515554 64.001639 
L 237.515554 61.162202 
L 239.037372 61.162202 
L 239.037372 66.841076 
L 240.55919 66.841076 
L 240.55919 76.391908 
L 242.081009 76.391908 
L 242.081009 58.064635 
L 243.602827 58.064635 
L 243.602827 63.485378 
L 245.124645 63.485378 
L 245.124645 75.101255 
L 246.646463 75.101255 
L 246.646463 84.135826 
L 248.168281 84.135826 
L 248.168281 84.393956 
L 249.690099 84.393956 
L 249.690099 70.971165 
L 251.211918 70.971165 
L 251.211918 64.001639 
L 252.733736 64.001639 
L 252.733736 92.137875 
L 254.255554 92.137875 
L 254.255554 73.810602 
L 255.777372 73.810602 
L 255.777372 84.393956 
L 257.29919 84.393956 
L 257.29919 78.456953 
L 258.821009 78.456953 
L 258.821009 97.042356 
L 260.342827 97.042356 
L 260.342827 106.076927 
L 261.864645 106.076927 
L 261.864645 84.652087 
L 264.908281 84.652087 
L 264.908281 106.851319 
L 266.430099 106.851319 
L 266.430099 109.174494 
L 267.951918 109.174494 
L 267.951918 113.046453 
L 269.473736 113.046453 
L 269.473736 94.202919 
L 270.995554 94.202919 
L 270.995554 115.369629 
L 272.517372 115.369629 
L 272.517372 109.432625 
L 274.03919 109.432625 
L 274.03919 114.078976 
L 275.561009 114.078976 
L 275.561009 110.981408 
L 277.082827 110.981408 
L 277.082827 113.562714 
L 278.604645 113.562714 
L 278.604645 109.690755 
L 280.126463 109.690755 
L 280.126463 117.692804 
L 281.648281 117.692804 
L 281.648281 122.855416 
L 283.170099 122.855416 
L 283.170099 119.499718 
L 284.691918 119.499718 
L 284.691918 119.241588 
L 286.213736 119.241588 
L 286.213736 129.308681 
L 287.735554 129.308681 
L 287.735554 118.209065 
L 289.257372 118.209065 
L 289.257372 131.889987 
L 290.77919 131.889987 
L 290.77919 125.952983 
L 292.301009 125.952983 
L 292.301009 132.406248 
L 293.822827 132.406248 
L 293.822827 130.083073 
L 295.344645 130.083073 
L 295.344645 134.987554 
L 296.866463 134.987554 
L 296.866463 127.243636 
L 298.388281 127.243636 
L 298.388281 147.894085 
L 299.910099 147.894085 
L 299.910099 135.245685 
L 301.431918 135.245685 
L 301.431918 139.633905 
L 302.953736 139.633905 
L 302.953736 137.56886 
L 304.475554 137.56886 
L 304.475554 140.666428 
L 305.997372 140.666428 
L 305.997372 147.894085 
L 307.51919 147.894085 
L 307.51919 142.473342 
L 309.041009 142.473342 
L 309.041009 146.08717 
L 310.562827 146.08717 
L 310.562827 142.473342 
L 312.084645 142.473342 
L 312.084645 153.572958 
L 313.606463 153.572958 
L 313.606463 148.926607 
L 315.128281 148.926607 
L 315.128281 154.863611 
L 316.650099 154.863611 
L 316.650099 160.026223 
L 318.171918 160.026223 
L 318.171918 165.963227 
L 319.693736 165.963227 
L 319.693736 165.705096 
L 321.215554 165.705096 
L 321.215554 163.640051 
L 322.737372 163.640051 
L 322.737372 164.414443 
L 324.25919 164.414443 
L 324.25919 170.609577 
L 325.781009 170.609577 
L 325.781009 177.320973 
L 327.302827 177.320973 
L 327.302827 171.125839 
L 328.824645 171.125839 
L 328.824645 180.16041 
L 330.346463 180.16041 
L 330.346463 179.902279 
L 331.868281 179.902279 
L 331.868281 183.774238 
L 333.390099 183.774238 
L 333.390099 186.355544 
L 334.911918 186.355544 
L 334.911918 188.93685 
L 336.433736 188.93685 
L 336.433736 192.034417 
L 337.955554 192.034417 
L 337.955554 191.001895 
L 339.477372 191.001895 
L 339.477372 198.229552 
L 340.99919 198.229552 
L 340.99919 199.003944 
L 342.521009 199.003944 
L 342.521009 200.810858 
L 344.042827 200.810858 
L 344.042827 207.522254 
L 345.564645 207.522254 
L 345.564645 208.296645 
L 347.086463 208.296645 
L 347.086463 211.910474 
L 348.608281 211.910474 
L 348.608281 208.554776 
L 350.130099 208.554776 
L 350.130099 211.136082 
L 351.651918 211.136082 
L 351.651918 213.201127 
L 353.173736 213.201127 
L 353.173736 215.782433 
L 354.695554 215.782433 
L 354.695554 216.298694 
L 356.217372 216.298694 
L 356.217372 218.363739 
L 357.73919 218.363739 
L 357.73919 218.621869 
L 359.261009 218.621869 
L 359.261009 218.363739 
L 360.782827 218.363739 
L 360.782827 218.88 
L 366.870099 218.88 
L 366.870099 218.88 
" clip-path="url(#pcc2f64f05d)" style="fill: none; stroke: #1f77b4; stroke-width: 1.5; stroke-linecap: square"/>
   </g>
   <g id="line2d_19">
    <path d="M 62.506463 218.88 
L 70.115554 218.88 
L 70.115554 217.331216 
L 71.637372 217.331216 
L 71.637372 209.329168 
L 73.15919 209.329168 
L 73.15919 202.875903 
L 74.681009 202.875903 
L 74.681009 192.034417 
L 76.202827 192.034417 
L 76.202827 186.355544 
L 77.724645 186.355544 
L 77.724645 173.707145 
L 79.246463 173.707145 
L 79.246463 172.932753 
L 80.768281 172.932753 
L 80.768281 161.575006 
L 82.290099 161.575006 
L 82.290099 146.345301 
L 83.811918 146.345301 
L 83.811918 143.505864 
L 85.333736 143.505864 
L 85.333736 129.050551 
L 86.855554 129.050551 
L 86.855554 130.599334 
L 88.377372 130.599334 
L 88.377372 117.692804 
L 89.89919 117.692804 
L 89.89919 93.686658 
L 91.421009 93.686658 
L 91.421009 89.556569 
L 92.942827 89.556569 
L 92.942827 106.593188 
L 94.464645 106.593188 
L 94.464645 85.94274 
L 95.986463 85.94274 
L 95.986463 88.265915 
L 97.508281 88.265915 
L 97.508281 76.908169 
L 99.030099 76.908169 
L 99.030099 78.715083 
L 100.551918 78.715083 
L 100.551918 66.582945 
L 102.073736 66.582945 
L 102.073736 52.127631 
L 103.595554 52.127631 
L 103.595554 56.515851 
L 105.117372 56.515851 
L 105.117372 49.288195 
L 106.63919 49.288195 
L 106.63919 53.676415 
L 108.161009 53.676415 
L 108.161009 39.737362 
L 109.682827 39.737362 
L 109.682827 45.674366 
L 111.204645 45.674366 
L 111.204645 43.09306 
L 112.726463 43.09306 
L 112.726463 26.314571 
L 114.248281 26.314571 
L 114.248281 38.188579 
L 115.770099 38.188579 
L 115.770099 35.091012 
L 117.291918 35.091012 
L 117.291918 21.926351 
L 118.813736 21.926351 
L 118.813736 25.023918 
L 120.335554 25.023918 
L 120.335554 20.635698 
L 121.857372 20.635698 
L 121.857372 27.863355 
L 123.37919 27.863355 
L 123.37919 26.572702 
L 124.901009 26.572702 
L 124.901009 34.832881 
L 126.422827 34.832881 
L 126.422827 40.769885 
L 127.944645 40.769885 
L 127.944645 39.737362 
L 129.466463 39.737362 
L 129.466463 44.383713 
L 130.988281 44.383713 
L 130.988281 42.576799 
L 132.510099 42.576799 
L 132.510099 42.83493 
L 134.031918 42.83493 
L 134.031918 67.615467 
L 135.553736 67.615467 
L 135.553736 57.290243 
L 137.075554 57.290243 
L 137.075554 50.578848 
L 138.597372 50.578848 
L 138.597372 51.095109 
L 140.11919 51.095109 
L 140.11919 60.38781 
L 141.641009 60.38781 
L 141.641009 58.322766 
L 143.162827 58.322766 
L 143.162827 76.650038 
L 144.684645 76.650038 
L 144.684645 73.03621 
L 146.206463 73.03621 
L 146.206463 70.196773 
L 147.728281 70.196773 
L 147.728281 69.680512 
L 149.250099 69.680512 
L 149.250099 88.524046 
L 150.771918 88.524046 
L 150.771918 66.324814 
L 152.293736 66.324814 
L 152.293736 78.198822 
L 153.815554 78.198822 
L 153.815554 78.973214 
L 155.337372 78.973214 
L 155.337372 78.198822 
L 156.85919 78.198822 
L 156.85919 69.422382 
L 158.381009 69.422382 
L 158.381009 83.361434 
L 159.902827 83.361434 
L 159.902827 75.617516 
L 161.424645 75.617516 
L 161.424645 73.294341 
L 162.946463 73.294341 
L 162.946463 73.810602 
L 164.468281 73.810602 
L 164.468281 73.552471 
L 165.990099 73.552471 
L 165.990099 73.294341 
L 167.511918 73.294341 
L 167.511918 86.200871 
L 169.033736 86.200871 
L 169.033736 72.003688 
L 170.555554 72.003688 
L 170.555554 80.521997 
L 173.59919 80.521997 
L 173.59919 83.619565 
L 175.121009 83.619565 
L 175.121009 77.42443 
L 176.642827 77.42443 
L 176.642827 76.650038 
L 178.164645 76.650038 
L 178.164645 92.396005 
L 179.686463 92.396005 
L 179.686463 94.202919 
L 181.208281 94.202919 
L 181.208281 90.847222 
L 182.730099 90.847222 
L 182.730099 108.658233 
L 184.251918 108.658233 
L 184.251918 100.656184 
L 185.773736 100.656184 
L 185.773736 105.560666 
L 187.295554 105.560666 
L 187.295554 116.660282 
L 188.817372 116.660282 
L 188.817372 125.952983 
L 190.33919 125.952983 
L 190.33919 130.599334 
L 191.861009 130.599334 
L 191.861009 132.92251 
L 193.382827 132.92251 
L 193.382827 140.408297 
L 194.904645 140.408297 
L 194.904645 147.377823 
L 196.426463 147.377823 
L 196.426463 150.21726 
L 197.948281 150.21726 
L 197.948281 146.345301 
L 199.470099 146.345301 
L 199.470099 155.638003 
L 200.991918 155.638003 
L 200.991918 151.507913 
L 202.513736 151.507913 
L 202.513736 152.282305 
L 204.035554 152.282305 
L 204.035554 151.766044 
L 207.07919 151.766044 
L 207.07919 134.471293 
L 208.601009 134.471293 
L 208.601009 130.857465 
L 210.122827 130.857465 
L 210.122827 131.373726 
L 211.644645 131.373726 
L 211.644645 121.564763 
L 213.166463 121.564763 
L 213.166463 114.595237 
L 214.688281 114.595237 
L 214.688281 114.078976 
L 216.210099 114.078976 
L 216.210099 117.950935 
L 217.731918 117.950935 
L 217.731918 104.011882 
L 219.253736 104.011882 
L 219.253736 98.84927 
L 220.775554 98.84927 
L 220.775554 99.365531 
L 222.297372 99.365531 
L 222.297372 90.33096 
L 223.81919 90.33096 
L 223.81919 91.621613 
L 225.341009 91.621613 
L 225.341009 97.042356 
L 226.862827 97.042356 
L 226.862827 78.198822 
L 228.384645 78.198822 
L 228.384645 74.326863 
L 229.906463 74.326863 
L 229.906463 82.845173 
L 231.428281 82.845173 
L 231.428281 64.25977 
L 232.950099 64.25977 
L 232.950099 68.389859 
L 234.471918 68.389859 
L 234.471918 69.938643 
L 235.993736 69.938643 
L 235.993736 70.196773 
L 237.515554 70.196773 
L 237.515554 61.420333 
L 239.037372 61.420333 
L 239.037372 64.5179 
L 240.55919 64.5179 
L 240.55919 69.680512 
L 242.081009 69.680512 
L 242.081009 65.292292 
L 243.602827 65.292292 
L 243.602827 64.25977 
L 245.124645 64.25977 
L 245.124645 77.1663 
L 248.168281 77.1663 
L 248.168281 75.359385 
L 249.690099 75.359385 
L 249.690099 72.261818 
L 251.211918 72.261818 
L 251.211918 86.459001 
L 252.733736 86.459001 
L 252.733736 73.552471 
L 254.255554 73.552471 
L 254.255554 87.749654 
L 255.777372 87.749654 
L 255.777372 76.650038 
L 257.29919 76.650038 
L 257.29919 85.94274 
L 258.821009 85.94274 
L 258.821009 92.654136 
L 260.342827 92.654136 
L 260.342827 103.23749 
L 261.864645 103.23749 
L 261.864645 85.684609 
L 263.386463 85.684609 
L 263.386463 90.847222 
L 264.908281 90.847222 
L 264.908281 95.493572 
L 266.430099 95.493572 
L 266.430099 110.981408 
L 267.951918 110.981408 
L 267.951918 114.337106 
L 269.473736 114.337106 
L 269.473736 99.881793 
L 270.995554 99.881793 
L 270.995554 107.109449 
L 272.517372 107.109449 
L 272.517372 111.7558 
L 274.03919 111.7558 
L 274.03919 114.078976 
L 275.561009 114.078976 
L 275.561009 118.209065 
L 277.082827 118.209065 
L 277.082827 105.044405 
L 278.604645 105.044405 
L 278.604645 111.49767 
L 280.126463 111.49767 
L 280.126463 118.209065 
L 281.648281 118.209065 
L 281.648281 112.272061 
L 283.170099 112.272061 
L 283.170099 125.952983 
L 284.691918 125.952983 
L 284.691918 124.66233 
L 286.213736 124.66233 
L 286.213736 125.436722 
L 287.735554 125.436722 
L 287.735554 128.276159 
L 289.257372 128.276159 
L 289.257372 124.146069 
L 290.77919 124.146069 
L 290.77919 131.373726 
L 292.301009 131.373726 
L 292.301009 124.4042 
L 293.822827 124.4042 
L 293.822827 127.243636 
L 295.344645 127.243636 
L 295.344645 140.666428 
L 296.866463 140.666428 
L 296.866463 134.729424 
L 298.388281 134.729424 
L 298.388281 135.761946 
L 299.910099 135.761946 
L 299.910099 141.182689 
L 301.431918 141.182689 
L 301.431918 135.503816 
L 302.953736 135.503816 
L 302.953736 140.666428 
L 304.475554 140.666428 
L 304.475554 143.763995 
L 305.997372 143.763995 
L 305.997372 144.280256 
L 307.51919 144.280256 
L 307.51919 140.924558 
L 309.041009 140.924558 
L 309.041009 144.022125 
L 310.562827 144.022125 
L 310.562827 147.119693 
L 312.084645 147.119693 
L 312.084645 148.926607 
L 313.606463 148.926607 
L 313.606463 152.540435 
L 315.128281 152.540435 
L 315.128281 157.703047 
L 316.650099 157.703047 
L 316.650099 160.026223 
L 318.171918 160.026223 
L 318.171918 162.349398 
L 319.693736 162.349398 
L 319.693736 163.381921 
L 321.215554 163.381921 
L 321.215554 163.640051 
L 322.737372 163.640051 
L 322.737372 168.028271 
L 324.25919 168.028271 
L 324.25919 170.609577 
L 325.781009 170.609577 
L 325.781009 176.804712 
L 327.302827 176.804712 
L 327.302827 174.223406 
L 328.824645 174.223406 
L 328.824645 174.481536 
L 330.346463 174.481536 
L 330.346463 184.290499 
L 331.868281 184.290499 
L 331.868281 181.967324 
L 333.390099 181.967324 
L 333.390099 188.67872 
L 334.911918 188.67872 
L 334.911918 186.097414 
L 336.433736 186.097414 
L 336.433736 191.001895 
L 337.955554 191.001895 
L 337.955554 195.648246 
L 339.477372 195.648246 
L 339.477372 194.873854 
L 340.99919 194.873854 
L 340.99919 199.520205 
L 342.521009 199.520205 
L 342.521009 200.552727 
L 344.042827 200.552727 
L 344.042827 208.038515 
L 345.564645 208.038515 
L 345.564645 207.005992 
L 347.086463 207.005992 
L 347.086463 211.910474 
L 348.608281 211.910474 
L 348.608281 209.845429 
L 350.130099 209.845429 
L 350.130099 211.136082 
L 351.651918 211.136082 
L 351.651918 212.684866 
L 353.173736 212.684866 
L 353.173736 215.524302 
L 354.695554 215.524302 
L 354.695554 216.298694 
L 356.217372 216.298694 
L 356.217372 218.363739 
L 357.73919 218.363739 
L 357.73919 218.621869 
L 359.261009 218.621869 
L 359.261009 218.363739 
L 362.304645 218.363739 
L 362.304645 218.621869 
L 363.826463 218.621869 
L 363.826463 218.88 
L 366.870099 218.88 
L 366.870099 218.88 
" clip-path="url(#pcc2f64f05d)" style="fill: none; stroke: #ff7f0e; stroke-width: 1.5; stroke-linecap: square"/>
   </g>
   <g id="patch_3">
    <path d="M 47.288281 228.96 
L 47.288281 7.2 
" style="fill: none; stroke: #000000; stroke-width: 0.8; stroke-linejoin: miter; stroke-linecap: square"/>
   </g>
   <g id="patch_4">
    <path d="M 382.088281 228.96 
L 382.088281 7.2 
" style="fill: none; stroke: #000000; stroke-width: 0.8; stroke-linejoin: miter; stroke-linecap: square"/>
   </g>
   <g id="patch_5">
    <path d="M 47.288281 228.96 
L 382.088281 228.96 
" style="fill: none; stroke: #000000; stroke-width: 0.8; stroke-linejoin: miter; stroke-linecap: square"/>
   </g>
   <g id="patch_6">
    <path d="M 47.288281 7.2 
L 382.088281 7.2 
" style="fill: none; stroke: #000000; stroke-width: 0.8; stroke-linejoin: miter; stroke-linecap: square"/>
   </g>
   <g id="legend_1">
    <g id="patch_7">
     <path d="M 278.080469 45.201562 
L 375.088281 45.201562 
Q 377.088281 45.201562 377.088281 43.201562 
L 377.088281 14.2 
Q 377.088281 12.2 375.088281 12.2 
L 278.080469 12.2 
Q 276.080469 12.2 276.080469 14.2 
L 276.080469 43.201562 
Q 276.080469 45.201562 278.080469 45.201562 
z
" style="fill: #ffffff; opacity: 0.8; stroke: #cccccc; stroke-linejoin: miter"/>
    </g>
    <g id="line2d_20">
     <path d="M 280.080469 20.298437 
L 280.080469 20.298437 
L 290.080469 20.298437 
L 290.080469 20.298437 
L 300.080469 20.298437 
" style="fill: none; stroke: #1f77b4; stroke-width: 1.5; stroke-linecap: square"/>
    </g>
    <g id="text_20">
     <!-- wfm -->
     <g transform="translate(308.080469 23.798437) scale(0.1 -0.1)">
      <defs>
       <path id="DejaVuSans-49" d="M 2375 4863 
L 2375 4384 
L 1825 4384 
Q 1516 4384 1395 4259 
Q 1275 4134 1275 3809 
L 1275 3500 
L 2222 3500 
L 2222 3053 
L 1275 3053 
L 1275 0 
L 697 0 
L 697 3053 
L 147 3053 
L 147 3500 
L 697 3500 
L 697 3744 
Q 697 4328 969 4595 
Q 1241 4863 1831 4863 
L 2375 4863 
z
" transform="scale(0.015625)"/>
       <path id="DejaVuSans-50" d="M 3328 2828 
Q 3544 3216 3844 3400 
Q 4144 3584 4550 3584 
Q 5097 3584 5394 3201 
Q 5691 2819 5691 2113 
L 5691 0 
L 5113 0 
L 5113 2094 
Q 5113 2597 4934 2840 
Q 4756 3084 4391 3084 
Q 3944 3084 3684 2787 
Q 3425 2491 3425 1978 
L 3425 0 
L 2847 0 
L 2847 2094 
Q 2847 2600 2669 2842 
Q 2491 3084 2119 3084 
Q 1678 3084 1418 2786 
Q 1159 2488 1159 1978 
L 1159 0 
L 581 0 
L 581 3500 
L 1159 3500 
L 1159 2956 
Q 1356 3278 1631 3431 
Q 1906 3584 2284 3584 
Q 2666 3584 2933 3390 
Q 3200 3197 3328 2828 
z
" transform="scale(0.015625)"/>
      </defs>
      <use xlink:href="#DejaVuSans-5a"/>
      <use xlink:href="#DejaVuSans-49" transform="translate(81.78125 0)"/>
      <use xlink:href="#DejaVuSans-50" transform="translate(116.984375 0)"/>
     </g>
    </g>
    <g id="line2d_21">
     <path d="M 280.080469 35.299219 
L 280.080469 35.299219 
L 290.080469 35.299219 
L 290.080469 35.299219 
L 300.080469 35.299219 
" style="fill: none; stroke: #ff7f0e; stroke-width: 1.5; stroke-linecap: square"/>
    </g>
    <g id="text_21">
     <!-- ground_truth -->
     <g transform="translate(308.080469 38.799219) scale(0.1 -0.1)">
      <defs>
       <path id="DejaVuSans-55" d="M 2631 2963 
Q 2534 3019 2420 3045 
Q 2306 3072 2169 3072 
Q 1681 3072 1420 2755 
Q 1159 2438 1159 1844 
L 1159 0 
L 581 0 
L 581 3500 
L 1159 3500 
L 1159 2956 
Q 1341 3275 1631 3429 
Q 1922 3584 2338 3584 
Q 2397 3584 2469 3576 
Q 2541 3569 2628 3553 
L 2631 2963 
z
" transform="scale(0.015625)"/>
       <path id="DejaVuSans-47" d="M 2906 2969 
L 2906 4863 
L 3481 4863 
L 3481 0 
L 2906 0 
L 2906 525 
Q 2725 213 2448 61 
Q 2172 -91 1784 -91 
Q 1150 -91 751 415 
Q 353 922 353 1747 
Q 353 2572 751 3078 
Q 1150 3584 1784 3584 
Q 2172 3584 2448 3432 
Q 2725 3281 2906 2969 
z
M 947 1747 
Q 947 1113 1208 752 
Q 1469 391 1925 391 
Q 2381 391 2643 752 
Q 2906 1113 2906 1747 
Q 2906 2381 2643 2742 
Q 2381 3103 1925 3103 
Q 1469 3103 1208 2742 
Q 947 2381 947 1747 
z
" transform="scale(0.015625)"/>
       <path id="DejaVuSans-42" d="M 3263 -1063 
L 3263 -1509 
L -63 -1509 
L -63 -1063 
L 3263 -1063 
z
" transform="scale(0.015625)"/>
      </defs>
      <use xlink:href="#DejaVuSans-4a"/>
      <use xlink:href="#DejaVuSans-55" transform="translate(63.484375 0)"/>
      <use xlink:href="#DejaVuSans-52" transform="translate(102.390625 0)"/>
      <use xlink:href="#DejaVuSans-58" transform="translate(163.578125 0)"/>
      <use xlink:href="#DejaVuSans-51" transform="translate(226.953125 0)"/>
      <use xlink:href="#DejaVuSans-47" transform="translate(290.328125 0)"/>
      <use xlink:href="#DejaVuSans-42" transform="translate(353.8125 0)"/>
      <use xlink:href="#DejaVuSans-57" transform="translate(403.8125 0)"/>
      <use xlink:href="#DejaVuSans-55" transform="translate(443.015625 0)"/>
      <use xlink:href="#DejaVuSans-58" transform="translate(484.125 0)"/>
      <use xlink:href="#DejaVuSans-57" transform="translate(547.5 0)"/>
      <use xlink:href="#DejaVuSans-4b" transform="translate(586.703125 0)"/>
     </g>
    </g>
   </g>
  </g>
 </g>
 <defs>
  <clipPath id="pcc2f64f05d">
   <rect x="47.288281" y="7.2" width="334.8" height="221.76"/>
  </clipPath>
 </defs>
</svg>
