<?xml version="1.0" encoding="utf-8" standalone="no"?>
<!DOCTYPE svg PUBLIC "-//W3C//DTD SVG 1.1//EN"
  "http://www.w3.org/Graphics/SVG/1.1/DTD/svg11.dtd">
<svg xmlns:xlink="http://www.w3.org/1999/xlink" width="395.328125pt" height="268.200625pt" viewBox="0 0 395.328125 268.200625" xmlns="http://www.w3.org/2000/svg" version="1.1">
 <metadata>
  <rdf:RDF xmlns:dc="http://purl.org/dc/elements/1.1/" xmlns:cc="http://creativecommons.org/ns#" xmlns:rdf="http://www.w3.org/1999/02/22-rdf-syntax-ns#">
   <cc:Work>
    <dc:type rdf:resource="http://purl.org/dc/dcmitype/StillImage"/>
    <dc:date>2026-04-22T12:31:36.119964</dc:date>
    <dc:format>image/svg+xml</dc:format>
    <dc:creator>
     <cc:Agent>
      <dc:title>Matplotlib v3.10.8, https://matplotlib.org/</dc:title>
     </cc:Agent>
    </dc:creator>
   </cc:Work>
  </rdf:RDF>
 </metadata>
 <defs>
  <style type="text/css">*{stroke-linejoin: round; stroke-linecap: butt}</style>
 </defs>
 <g id="figure_1">
  <g id="patch_1">
   <path d="M 0 268.200625 
L 395.328125 268.200625 
L 395.328125 0 
L 0 0 
z
" style="fill: #ffffff"/>
  </g>
  <g id="axes_1">
   <g id="patch_2">
    <path d="M 53.328125 228.96 
L 388.128125 228.96 
L 388.128125 7.2 
L 53.328125 7.2 
z
" style="fill: #ffffff"/>
   </g>
   <g id="matplotlib.axis_1">
    <g id="xtick_1">
     <g id="line2d_1">
      <defs>
       <path id="m21ab11cafe" d="M 0 0 
L 0 3.5 
" style="stroke: #000000; stroke-width: 0.8"/>
      </defs>
      <g>
       <use xlink:href="#m21ab11cafe" x="68.546307" y="228.96" style="stroke: #000000; stroke-width: 0.8"/>
      </g>
     </g>
     <g id="text_1">
      <!-- 2 -->
      <g transform="translate(65.365057 243.558437) scale(0.1 -0.1)">
       <defs>
        <path id="DejaVuSans-32" d="M 1228 531 
L 3431 531 
L 3431 0 
L 469 0 
L 469 531 
Q 828 903 1448 1529 
Q 2069 2156 2228 2338 
Q 2531 2678 2651 2914 
Q 2772 3150 2772 3378 
Q 2772 3750 2511 3984 
Q 2250 4219 1831 4219 
Q 1534 4219 1204 4116 
Q 875 4013 500 3803 
L 500 4441 
Q 881 4594 1212 4672 
Q 1544 4750 1819 4750 
Q 2544 4750 2975 4387 
Q 3406 4025 3406 3419 
Q 3406 3131 3298 2873 
Q 3191 2616 2906 2266 
Q 2828 2175 2409 1742 
Q 1991 1309 1228 531 
z
" transform="scale(0.015625)"/>
       </defs>
       <use xlink:href="#DejaVuSans-32"/>
      </g>
     </g>
    </g>
    <g id="xtick_2">
     <g id="line2d_2">
      <g>
       <use xlink:href="#m21ab11cafe" x="106.591761" y="228.96" style="stroke: #000000; stroke-width: 0.8"/>
      </g>
     </g>
     <g id="text_2">
      <!-- 3 -->
      <g transform="translate(103.410511 243.558437) scale(0.1 -0.1)">
       <defs>
        <path id="DejaVuSans-33" d="M 2597 2516 
Q 3050 2419 3304 2112 
Q 3559 1806 3559 1356 
Q 3559 666 3084 287 
Q 2609 -91 1734 -91 
Q 1441 -91 1130 -33 
Q 819 25 488 141 
L 488 750 
Q 750 597 1062 519 
Q 1375 441 1716 441 
Q 2309 441 2620 675 
Q 2931 909 2931 1356 
Q 2931 1769 2642 2001 
Q 2353 2234 1838 2234 
L 1294 2234 
L 1294 2753 
L 1863 2753 
Q 2328 2753 2575 2939 
Q 2822 3125 2822 3475 
Q 2822 3834 2567 4026 
Q 2313 4219 1838 4219 
Q 1578 4219 1281 4162 
Q 984 4106 628 3988 
L 628 4550 
Q 988 4650 1302 4700 
Q 1616 4750 1894 4750 
Q 2613 4750 3031 4423 
Q 3450 4097 3450 3541 
Q 3450 3153 3228 2886 
Q 3006 2619 2597 2516 
z
" transform="scale(0.015625)"/>
       </defs>
       <use xlink:href="#DejaVuSans-33"/>
      </g>
     </g>
    </g>
    <g id="xtick_3">
     <g id="line2d_3">
      <g>
       <use xlink:href="#m21ab11cafe" x="144.637216" y="228.96" style="stroke: #000000; stroke-width: 0.8"/>
      </g>
     </g>
     <g id="text_3">
      <!-- 4 -->
      <g transform="translate(141.455966 243.558437) scale(0.1 -0.1)">
       <defs>
        <path id="DejaVuSans-34" d="M 2419 4116 
L 825 1625 
L 2419 1625 
L 2419 4116 
z
M 2253 4666 
L 3047 4666 
L 3047 1625 
L 3713 1625 
L 3713 1100 
L 3047 1100 
L 3047 0 
L 2419 0 
L 2419 1100 
L 313 1100 
L 313 1709 
L 2253 4666 
z
" transform="scale(0.015625)"/>
       </defs>
       <use xlink:href="#DejaVuSans-34"/>
      </g>
     </g>
    </g>
    <g id="xtick_4">
     <g id="line2d_4">
      <g>
       <use xlink:href="#m21ab11cafe" x="182.68267" y="228.96" style="stroke: #000000; stroke-width: 0.8"/>
      </g>
     </g>
     <g id="text_4">
      <!-- 5 -->
      <g transform="translate(179.50142 243.558437) scale(0.1 -0.1)">
       <defs>
        <path id="DejaVuSans-35" d="M 691 4666 
L 3169 4666 
L 3169 4134 
L 1269 4134 
L 1269 2991 
Q 1406 3038 1543 3061 
Q 1681 3084 1819 3084 
Q 2600 3084 3056 2656 
Q 3513 2228 3513 1497 
Q 3513 744 3044 326 
Q 2575 -91 1722 -91 
Q 1428 -91 1123 -41 
Q 819 9 494 109 
L 494 744 
Q 775 591 1075 516 
Q 1375 441 1709 441 
Q 2250 441 2565 725 
Q 2881 1009 2881 1497 
Q 2881 1984 2565 2268 
Q 2250 2553 1709 2553 
Q 1456 2553 1204 2497 
Q 953 2441 691 2322 
L 691 4666 
z
" transform="scale(0.015625)"/>
       </defs>
       <use xlink:href="#DejaVuSans-35"/>
      </g>
     </g>
    </g>
    <g id="xtick_5">
     <g id="line2d_5">
      <g>
       <use xlink:href="#m21ab11cafe" x="220.728125" y="228.96" style="stroke: #000000; stroke-width: 0.8"/>
      </g>
     </g>
     <g id="text_5">
      <!-- 6 -->
      <g transform="translate(217.546875 243.558437) scale(0.1 -0.1)">
       <defs>
        <path id="DejaVuSans-36" d="M 2113 2584 
Q 1688 2584 1439 2293 
Q 1191 2003 1191 1497 
Q 1191 994 1439 701 
Q 1688 409 2113 409 
Q 2538 409 2786 701 
Q 3034 994 3034 1497 
Q 3034 2003 2786 2293 
Q 2538 2584 2113 2584 
z
M 3366 4563 
L 3366 3988 
Q 3128 4100 2886 4159 
Q 2644 4219 2406 4219 
Q 1781 4219 1451 3797 
Q 1122 3375 1075 2522 
Q 1259 2794 1537 2939 
Q 1816 3084 2150 3084 
Q 2853 3084 3261 2657 
Q 3669 2231 3669 1497 
Q 3669 778 3244 343 
Q 2819 -91 2113 -91 
Q 1303 -91 875 529 
Q 447 1150 447 2328 
Q 447 3434 972 4092 
Q 1497 4750 2381 4750 
Q 2619 4750 2861 4703 
Q 3103 4656 3366 4563 
z
" transform="scale(0.015625)"/>
       </defs>
       <use xlink:href="#DejaVuSans-36"/>
      </g>
     </g>
    </g>
    <g id="xtick_6">
     <g id="line2d_6">
      <g>
       <use xlink:href="#m21ab11cafe" x="258.77358" y="228.96" style="stroke: #000000; stroke-width: 0.8"/>
      </g>
     </g>
     <g id="text_6">
      <!-- 7 -->
      <g transform="translate(255.59233 243.558437) scale(0.1 -0.1)">
       <defs>
        <path id="DejaVuSans-37" d="M 525 4666 
L 3525 4666 
L 3525 4397 
L 1831 0 
L 1172 0 
L 2766 4134 
L 525 4134 
L 525 4666 
z
" transform="scale(0.015625)"/>
       </defs>
       <use xlink:href="#DejaVuSans-37"/>
      </g>
     </g>
    </g>
    <g id="xtick_7">
     <g id="line2d_7">
      <g>
       <use xlink:href="#m21ab11cafe" x="296.819034" y="228.96" style="stroke: #000000; stroke-width: 0.8"/>
      </g>
     </g>
     <g id="text_7">
      <!-- 8 -->
      <g transform="translate(293.637784 243.558437) scale(0.1 -0.1)">
       <defs>
        <path id="DejaVuSans-38" d="M 2034 2216 
Q 1584 2216 1326 1975 
Q 1069 1734 1069 1313 
Q 1069 891 1326 650 
Q 1584 409 2034 409 
Q 2484 409 2743 651 
Q 3003 894 3003 1313 
Q 3003 1734 2745 1975 
Q 2488 2216 2034 2216 
z
M 1403 2484 
Q 997 2584 770 2862 
Q 544 3141 544 3541 
Q 544 4100 942 4425 
Q 1341 4750 2034 4750 
Q 2731 4750 3128 4425 
Q 3525 4100 3525 3541 
Q 3525 3141 3298 2862 
Q 3072 2584 2669 2484 
Q 3125 2378 3379 2068 
Q 3634 1759 3634 1313 
Q 3634 634 3220 271 
Q 2806 -91 2034 -91 
Q 1263 -91 848 271 
Q 434 634 434 1313 
Q 434 1759 690 2068 
Q 947 2378 1403 2484 
z
M 1172 3481 
Q 1172 3119 1398 2916 
Q 1625 2713 2034 2713 
Q 2441 2713 2670 2916 
Q 2900 3119 2900 3481 
Q 2900 3844 2670 4047 
Q 2441 4250 2034 4250 
Q 1625 4250 1398 4047 
Q 1172 3844 1172 3481 
z
" transform="scale(0.015625)"/>
       </defs>
       <use xlink:href="#DejaVuSans-38"/>
      </g>
     </g>
    </g>
    <g id="xtick_8">
     <g id="line2d_8">
      <g>
       <use xlink:href="#m21ab11cafe" x="334.864489" y="228.96" style="stroke: #000000; stroke-width: 0.8"/>
      </g>
     </g>
     <g id="text_8">
      <!-- 9 -->
      <g transform="translate(331.683239 243.558437) scale(0.1 -0.1)">
       <defs>
        <path id="DejaVuSans-39" d="M 703 97 
L 703 672 
Q 941 559 1184 500 
Q 1428 441 1663 441 
Q 2288 441 2617 861 
Q 2947 1281 2994 2138 
Q 2813 1869 2534 1725 
Q 2256 1581 1919 1581 
Q 1219 1581 811 2004 
Q 403 2428 403 3163 
Q 403 3881 828 4315 
Q 1253 4750 1959 4750 
Q 2769 4750 3195 4129 
Q 3622 3509 3622 2328 
Q 3622 1225 3098 567 
Q 2575 -91 1691 -91 
Q 1453 -91 1209 -44 
Q 966 3 703 97 
z
M 1959 2075 
Q 2384 2075 2632 2365 
Q 2881 2656 2881 3163 
Q 2881 3666 2632 3958 
Q 2384 4250 1959 4250 
Q 1534 4250 1286 3958 
Q 1038 3666 1038 3163 
Q 1038 2656 1286 2365 
Q 1534 2075 1959 2075 
z
" transform="scale(0.015625)"/>
       </defs>
       <use xlink:href="#DejaVuSans-39"/>
      </g>
     </g>
    </g>
    <g id="xtick_9">
     <g id="line2d_9">
      <g>
       <use xlink:href="#m21ab11cafe" x="372.909943" y="228.96" style="stroke: #000000; stroke-width: 0.8"/>
      </g>
     </g>
     <g id="text_9">
      <!-- 10 -->
      <g transform="translate(366.547443 243.558437) scale(0.1 -0.1)">
       <defs>
        <path id="DejaVuSans-31" d="M 794 531 
L 1825 531 
L 1825 4091 
L 703 3866 
L 703 4441 
L 1819 4666 
L 2450 4666 
L 2450 531 
L 3481 531 
L 3481 0 
L 794 0 
L 794 531 
z
" transform="scale(0.015625)"/>
        <path id="DejaVuSans-30" d="M 2034 4250 
Q 1547 4250 1301 3770 
Q 1056 3291 1056 2328 
Q 1056 1369 1301 889 
Q 1547 409 2034 409 
Q 2525 409 2770 889 
Q 3016 1369 3016 2328 
Q 3016 3291 2770 3770 
Q 2525 4250 2034 4250 
z
M 2034 4750 
Q 2819 4750 3233 4129 
Q 3647 3509 3647 2328 
Q 3647 1150 3233 529 
Q 2819 -91 2034 -91 
Q 1250 -91 836 529 
Q 422 1150 422 2328 
Q 422 3509 836 4129 
Q 1250 4750 2034 4750 
z
" transform="scale(0.015625)"/>
       </defs>
       <use xlink:href="#DejaVuSans-31"/>
       <use xlink:href="#DejaVuSans-30" transform="translate(63.623047 0)"/>
      </g>
     </g>
    </g>
    <g id="text_10">
     <!-- wavelength [Å] -->
     <g transform="translate(182.690625 258.920937) scale(0.1 -0.1)">
      <defs>
       <path id="DejaVuSans-77" d="M 269 3500 
L 844 3500 
L 1563 769 
L 2278 3500 
L 2956 3500 
L 3675 769 
L 4391 3500 
L 4966 3500 
L 4050 0 
L 3372 0 
L 2619 2869 
L 1863 0 
L 1184 0 
L 269 3500 
z
" transform="scale(0.015625)"/>
       <path id="DejaVuSans-61" d="M 2194 1759 
Q 1497 1759 1228 1600 
Q 959 1441 959 1056 
Q 959 750 1161 570 
Q 1363 391 1709 391 
Q 2188 391 2477 730 
Q 2766 1069 2766 1631 
L 2766 1759 
L 2194 1759 
z
M 3341 1997 
L 3341 0 
L 2766 0 
L 2766 531 
Q 2569 213 2275 61 
Q 1981 -91 1556 -91 
Q 1019 -91 701 211 
Q 384 513 384 1019 
Q 384 1609 779 1909 
Q 1175 2209 1959 2209 
L 2766 2209 
L 2766 2266 
Q 2766 2663 2505 2880 
Q 2244 3097 1772 3097 
Q 1472 3097 1187 3025 
Q 903 2953 641 2809 
L 641 3341 
Q 956 3463 1253 3523 
Q 1550 3584 1831 3584 
Q 2591 3584 2966 3190 
Q 3341 2797 3341 1997 
z
" transform="scale(0.015625)"/>
       <path id="DejaVuSans-76" d="M 191 3500 
L 800 3500 
L 1894 563 
L 2988 3500 
L 3597 3500 
L 2284 0 
L 1503 0 
L 191 3500 
z
" transform="scale(0.015625)"/>
       <path id="DejaVuSans-65" d="M 3597 1894 
L 3597 1613 
L 953 1613 
Q 991 1019 1311 708 
Q 1631 397 2203 397 
Q 2534 397 2845 478 
Q 3156 559 3463 722 
L 3463 178 
Q 3153 47 2828 -22 
Q 2503 -91 2169 -91 
Q 1331 -91 842 396 
Q 353 884 353 1716 
Q 353 2575 817 3079 
Q 1281 3584 2069 3584 
Q 2775 3584 3186 3129 
Q 3597 2675 3597 1894 
z
M 3022 2063 
Q 3016 2534 2758 2815 
Q 2500 3097 2075 3097 
Q 1594 3097 1305 2825 
Q 1016 2553 972 2059 
L 3022 2063 
z
" transform="scale(0.015625)"/>
       <path id="DejaVuSans-6c" d="M 603 4863 
L 1178 4863 
L 1178 0 
L 603 0 
L 603 4863 
z
" transform="scale(0.015625)"/>
       <path id="DejaVuSans-6e" d="M 3513 2113 
L 3513 0 
L 2938 0 
L 2938 2094 
Q 2938 2591 2744 2837 
Q 2550 3084 2163 3084 
Q 1697 3084 1428 2787 
Q 1159 2491 1159 1978 
L 1159 0 
L 581 0 
L 581 3500 
L 1159 3500 
L 1159 2956 
Q 1366 3272 1645 3428 
Q 1925 3584 2291 3584 
Q 2894 3584 3203 3211 
Q 3513 2838 3513 2113 
z
" transform="scale(0.015625)"/>
       <path id="DejaVuSans-67" d="M 2906 1791 
Q 2906 2416 2648 2759 
Q 2391 3103 1925 3103 
Q 1463 3103 1205 2759 
Q 947 2416 947 1791 
Q 947 1169 1205 825 
Q 1463 481 1925 481 
Q 2391 481 2648 825 
Q 2906 1169 2906 1791 
z
M 3481 434 
Q 3481 -459 3084 -895 
Q 2688 -1331 1869 -1331 
Q 1566 -1331 1297 -1286 
Q 1028 -1241 775 -1147 
L 775 -588 
Q 1028 -725 1275 -790 
Q 1522 -856 1778 -856 
Q 2344 -856 2625 -561 
Q 2906 -266 2906 331 
L 2906 616 
Q 2728 306 2450 153 
Q 2172 0 1784 0 
Q 1141 0 747 490 
Q 353 981 353 1791 
Q 353 2603 747 3093 
Q 1141 3584 1784 3584 
Q 2172 3584 2450 3431 
Q 2728 3278 2906 2969 
L 2906 3500 
L 3481 3500 
L 3481 434 
z
" transform="scale(0.015625)"/>
       <path id="DejaVuSans-74" d="M 1172 4494 
L 1172 3500 
L 2356 3500 
L 2356 3053 
L 1172 3053 
L 1172 1153 
Q 1172 725 1289 603 
Q 1406 481 1766 481 
L 2356 481 
L 2356 0 
L 1766 0 
Q 1100 0 847 248 
Q 594 497 594 1153 
L 594 3053 
L 172 3053 
L 172 3500 
L 594 3500 
L 594 4494 
L 1172 4494 
z
" transform="scale(0.015625)"/>
       <path id="DejaVuSans-68" d="M 3513 2113 
L 3513 0 
L 2938 0 
L 2938 2094 
Q 2938 2591 2744 2837 
Q 2550 3084 2163 3084 
Q 1697 3084 1428 2787 
Q 1159 2491 1159 1978 
L 1159 0 
L 581 0 
L 581 4863 
L 1159 4863 
L 1159 2956 
Q 1366 3272 1645 3428 
Q 1925 3584 2291 3584 
Q 2894 3584 3203 3211 
Q 3513 2838 3513 2113 
z
" transform="scale(0.015625)"/>
       <path id="DejaVuSans-20" transform="scale(0.015625)"/>
       <path id="DejaVuSans-5b" d="M 550 4863 
L 1875 4863 
L 1875 4416 
L 1125 4416 
L 1125 -397 
L 1875 -397 
L 1875 -844 
L 550 -844 
L 550 4863 
z
" transform="scale(0.015625)"/>
       <path id="DejaVuSans-c5" d="M 2663 5081 
Q 2663 5278 2523 5417 
Q 2384 5556 2188 5556 
Q 1988 5556 1852 5420 
Q 1716 5284 1716 5081 
Q 1716 4884 1853 4746 
Q 1991 4609 2188 4609 
Q 2384 4609 2523 4746 
Q 2663 4884 2663 5081 
z
M 2188 4044 
L 1338 1722 
L 3041 1722 
L 2188 4044 
z
M 1716 4366 
Q 1525 4494 1428 4673 
Q 1331 4853 1331 5081 
Q 1331 5441 1579 5691 
Q 1828 5941 2188 5941 
Q 2544 5941 2795 5689 
Q 3047 5438 3047 5081 
Q 3047 4863 2948 4678 
Q 2850 4494 2663 4366 
L 4325 0 
L 3669 0 
L 3244 1197 
L 1141 1197 
L 716 0 
L 50 0 
L 1716 4366 
z
" transform="scale(0.015625)"/>
       <path id="DejaVuSans-5d" d="M 1947 4863 
L 1947 -844 
L 622 -844 
L 622 -397 
L 1369 -397 
L 1369 4416 
L 622 4416 
L 622 4863 
L 1947 4863 
z
" transform="scale(0.015625)"/>
      </defs>
      <use xlink:href="#DejaVuSans-77"/>
      <use xlink:href="#DejaVuSans-61" transform="translate(81.787109 0)"/>
      <use xlink:href="#DejaVuSans-76" transform="translate(143.066406 0)"/>
      <use xlink:href="#DejaVuSans-65" transform="translate(202.246094 0)"/>
      <use xlink:href="#DejaVuSans-6c" transform="translate(263.769531 0)"/>
      <use xlink:href="#DejaVuSans-65" transform="translate(291.552734 0)"/>
      <use xlink:href="#DejaVuSans-6e" transform="translate(353.076172 0)"/>
      <use xlink:href="#DejaVuSans-67" transform="translate(416.455078 0)"/>
      <use xlink:href="#DejaVuSans-74" transform="translate(479.931641 0)"/>
      <use xlink:href="#DejaVuSans-68" transform="translate(519.140625 0)"/>
      <use xlink:href="#DejaVuSans-20" transform="translate(582.519531 0)"/>
      <use xlink:href="#DejaVuSans-5b" transform="translate(614.306641 0)"/>
      <use xlink:href="#DejaVuSans-c5" transform="translate(653.320312 0)"/>
      <use xlink:href="#DejaVuSans-5d" transform="translate(721.728516 0)"/>
     </g>
    </g>
   </g>
   <g id="matplotlib.axis_2">
    <g id="ytick_1">
     <g id="line2d_10">
      <defs>
       <path id="m2e267919e1" d="M 0 0 
L -3.5 0 
" style="stroke: #000000; stroke-width: 0.8"/>
      </defs>
      <g>
       <use xlink:href="#m2e267919e1" x="53.328125" y="218.88" style="stroke: #000000; stroke-width: 0.8"/>
      </g>
     </g>
     <g id="text_11">
      <!-- 0 -->
      <g transform="translate(39.965625 222.679219) scale(0.1 -0.1)">
       <use xlink:href="#DejaVuSans-30"/>
      </g>
     </g>
    </g>
    <g id="ytick_2">
     <g id="line2d_11">
      <g>
       <use xlink:href="#m2e267919e1" x="53.328125" y="181.574301" style="stroke: #000000; stroke-width: 0.8"/>
      </g>
     </g>
     <g id="text_12">
      <!-- 500 -->
      <g transform="translate(27.240625 185.373519) scale(0.1 -0.1)">
       <use xlink:href="#DejaVuSans-35"/>
       <use xlink:href="#DejaVuSans-30" transform="translate(63.623047 0)"/>
       <use xlink:href="#DejaVuSans-30" transform="translate(127.246094 0)"/>
      </g>
     </g>
    </g>
    <g id="ytick_3">
     <g id="line2d_12">
      <g>
       <use xlink:href="#m2e267919e1" x="53.328125" y="144.268601" style="stroke: #000000; stroke-width: 0.8"/>
      </g>
     </g>
     <g id="text_13">
      <!-- 1000 -->
      <g transform="translate(20.878125 148.06782) scale(0.1 -0.1)">
       <use xlink:href="#DejaVuSans-31"/>
       <use xlink:href="#DejaVuSans-30" transform="translate(63.623047 0)"/>
       <use xlink:href="#DejaVuSans-30" transform="translate(127.246094 0)"/>
       <use xlink:href="#DejaVuSans-30" transform="translate(190.869141 0)"/>
      </g>
     </g>
    </g>
    <g id="ytick_4">
     <g id="line2d_13">
      <g>
       <use xlink:href="#m2e267919e1" x="53.328125" y="106.962902" style="stroke: #000000; stroke-width: 0.8"/>
      </g>
     </g>
     <g id="text_14">
      <!-- 1500 -->
      <g transform="translate(20.878125 110.76212) scale(0.1 -0.1)">
       <use xlink:href="#DejaVuSans-31"/>
       <use xlink:href="#DejaVuSans-35" transform="translate(63.623047 0)"/>
       <use xlink:href="#DejaVuSans-30" transform="translate(127.246094 0)"/>
       <use xlink:href="#DejaVuSans-30" transform="translate(190.869141 0)"/>
      </g>
     </g>
    </g>
    <g id="ytick_5">
     <g id="line2d_14">
      <g>
       <use xlink:href="#m2e267919e1" x="53.328125" y="69.657202" style="stroke: #000000; stroke-width: 0.8"/>
      </g>
     </g>
     <g id="text_15">
      <!-- 2000 -->
      <g transform="translate(20.878125 73.456421) scale(0.1 -0.1)">
       <use xlink:href="#DejaVuSans-32"/>
       <use xlink:href="#DejaVuSans-30" transform="translate(63.623047 0)"/>
       <use xlink:href="#DejaVuSans-30" transform="translate(127.246094 0)"/>
       <use xlink:href="#DejaVuSans-30" transform="translate(190.869141 0)"/>
      </g>
     </g>
    </g>
    <g id="ytick_6">
     <g id="line2d_15">
      <g>
       <use xlink:href="#m2e267919e1" x="53.328125" y="32.351503" style="stroke: #000000; stroke-width: 0.8"/>
      </g>
     </g>
     <g id="text_16">
      <!-- 2500 -->
      <g transform="translate(20.878125 36.150721) scale(0.1 -0.1)">
       <use xlink:href="#DejaVuSans-32"/>
       <use xlink:href="#DejaVuSans-35" transform="translate(63.623047 0)"/>
       <use xlink:href="#DejaVuSans-30" transform="translate(127.246094 0)"/>
       <use xlink:href="#DejaVuSans-30" transform="translate(190.869141 0)"/>
      </g>
     </g>
    </g>
    <g id="text_17">
     <!-- [counts] -->
     <g transform="translate(14.798438 138.6925) rotate(-90) scale(0.1 -0.1)">
      <defs>
       <path id="DejaVuSans-63" d="M 3122 3366 
L 3122 2828 
Q 2878 2963 2633 3030 
Q 2388 3097 2138 3097 
Q 1578 3097 1268 2742 
Q 959 2388 959 1747 
Q 959 1106 1268 751 
Q 1578 397 2138 397 
Q 2388 397 2633 464 
Q 2878 531 3122 666 
L 3122 134 
Q 2881 22 2623 -34 
Q 2366 -91 2075 -91 
Q 1284 -91 818 406 
Q 353 903 353 1747 
Q 353 2603 823 3093 
Q 1294 3584 2113 3584 
Q 2378 3584 2631 3529 
Q 2884 3475 3122 3366 
z
" transform="scale(0.015625)"/>
       <path id="DejaVuSans-6f" d="M 1959 3097 
Q 1497 3097 1228 2736 
Q 959 2375 959 1747 
Q 959 1119 1226 758 
Q 1494 397 1959 397 
Q 2419 397 2687 759 
Q 2956 1122 2956 1747 
Q 2956 2369 2687 2733 
Q 2419 3097 1959 3097 
z
M 1959 3584 
Q 2709 3584 3137 3096 
Q 3566 2609 3566 1747 
Q 3566 888 3137 398 
Q 2709 -91 1959 -91 
Q 1206 -91 779 398 
Q 353 888 353 1747 
Q 353 2609 779 3096 
Q 1206 3584 1959 3584 
z
" transform="scale(0.015625)"/>
       <path id="DejaVuSans-75" d="M 544 1381 
L 544 3500 
L 1119 3500 
L 1119 1403 
Q 1119 906 1312 657 
Q 1506 409 1894 409 
Q 2359 409 2629 706 
Q 2900 1003 2900 1516 
L 2900 3500 
L 3475 3500 
L 3475 0 
L 2900 0 
L 2900 538 
Q 2691 219 2414 64 
Q 2138 -91 1772 -91 
Q 1169 -91 856 284 
Q 544 659 544 1381 
z
M 1991 3584 
L 1991 3584 
z
" transform="scale(0.015625)"/>
       <path id="DejaVuSans-73" d="M 2834 3397 
L 2834 2853 
Q 2591 2978 2328 3040 
Q 2066 3103 1784 3103 
Q 1356 3103 1142 2972 
Q 928 2841 928 2578 
Q 928 2378 1081 2264 
Q 1234 2150 1697 2047 
L 1894 2003 
Q 2506 1872 2764 1633 
Q 3022 1394 3022 966 
Q 3022 478 2636 193 
Q 2250 -91 1575 -91 
Q 1294 -91 989 -36 
Q 684 19 347 128 
L 347 722 
Q 666 556 975 473 
Q 1284 391 1588 391 
Q 1994 391 2212 530 
Q 2431 669 2431 922 
Q 2431 1156 2273 1281 
Q 2116 1406 1581 1522 
L 1381 1569 
Q 847 1681 609 1914 
Q 372 2147 372 2553 
Q 372 3047 722 3315 
Q 1072 3584 1716 3584 
Q 2034 3584 2315 3537 
Q 2597 3491 2834 3397 
z
" transform="scale(0.015625)"/>
      </defs>
      <use xlink:href="#DejaVuSans-5b"/>
      <use xlink:href="#DejaVuSans-63" transform="translate(39.013672 0)"/>
      <use xlink:href="#DejaVuSans-6f" transform="translate(93.994141 0)"/>
      <use xlink:href="#DejaVuSans-75" transform="translate(155.175781 0)"/>
      <use xlink:href="#DejaVuSans-6e" transform="translate(218.554688 0)"/>
      <use xlink:href="#DejaVuSans-74" transform="translate(281.933594 0)"/>
      <use xlink:href="#DejaVuSans-73" transform="translate(321.142578 0)"/>
      <use xlink:href="#DejaVuSans-5d" transform="translate(373.242188 0)"/>
     </g>
    </g>
   </g>
   <g id="line2d_16">
    <path d="M 68.546307 218.88 
L 70.575398 218.88 
L 70.575398 182.245803 
L 71.589943 182.245803 
L 71.589943 111.066528 
L 72.604489 111.066528 
L 72.604489 103.083109 
L 73.619034 103.083109 
L 73.619034 100.919378 
L 74.63358 100.919378 
L 74.63358 91.294508 
L 75.648125 91.294508 
L 75.648125 86.444767 
L 76.66267 86.444767 
L 76.66267 89.503834 
L 77.677216 89.503834 
L 77.677216 83.012642 
L 78.691761 83.012642 
L 78.691761 78.909016 
L 79.706307 78.909016 
L 79.706307 69.881036 
L 80.720852 69.881036 
L 80.720852 58.390881 
L 81.735398 58.390881 
L 81.735398 56.74943 
L 82.749943 56.74943 
L 82.749943 49.437513 
L 83.764489 49.437513 
L 83.764489 39.14114 
L 84.779034 39.14114 
L 84.779034 50.33285 
L 85.79358 50.33285 
L 85.79358 42.34943 
L 86.808125 42.34943 
L 86.808125 40.409534 
L 87.82267 40.409534 
L 87.82267 37.425078 
L 88.837216 37.425078 
L 88.837216 22.875855 
L 89.851761 22.875855 
L 89.851761 24.74114 
L 90.866307 24.74114 
L 90.866307 20.413679 
L 91.880852 20.413679 
L 91.880852 17.354611 
L 92.895398 17.354611 
L 92.895398 24.890363 
L 93.909943 24.890363 
L 93.909943 22.204352 
L 94.924489 22.204352 
L 94.924489 33.396062 
L 95.939034 33.396062 
L 95.939034 34.813679 
L 96.95358 34.813679 
L 96.95358 28.098653 
L 97.968125 28.098653 
L 97.968125 33.246839 
L 98.98267 33.246839 
L 98.98267 35.709016 
L 99.997216 35.709016 
L 99.997216 38.021969 
L 101.011761 38.021969 
L 101.011761 38.171192 
L 102.026307 38.171192 
L 102.026307 63.389845 
L 103.040852 63.389845 
L 103.040852 62.419896 
L 104.055398 62.419896 
L 104.055398 63.016788 
L 105.069943 63.016788 
L 105.069943 87.041658 
L 106.084489 87.041658 
L 106.084489 86.743212 
L 107.099034 86.743212 
L 107.099034 97.487254 
L 108.11358 97.487254 
L 108.11358 106.36601 
L 109.128125 106.36601 
L 109.128125 115.767047 
L 110.14267 115.767047 
L 110.14267 122.183627 
L 111.157216 122.183627 
L 111.157216 128.600207 
L 112.171761 128.600207 
L 112.171761 136.73285 
L 113.186307 136.73285 
L 113.186307 147.849948 
L 114.200852 147.849948 
L 114.200852 154.415751 
L 115.215398 154.415751 
L 115.215398 162.846839 
L 116.229943 162.846839 
L 116.229943 169.188808 
L 117.244489 169.188808 
L 117.244489 174.411606 
L 118.259034 174.411606 
L 118.259034 183.066528 
L 119.27358 183.066528 
L 119.27358 187.692435 
L 120.288125 187.692435 
L 120.288125 190.900725 
L 121.30267 190.900725 
L 121.30267 191.423005 
L 122.317216 191.423005 
L 122.317216 152.625078 
L 123.331761 152.625078 
L 123.331761 134.718342 
L 124.346307 134.718342 
L 124.346307 96.74114 
L 125.360852 96.74114 
L 125.360852 90.846839 
L 126.375398 90.846839 
L 126.375398 96.74114 
L 128.404489 96.666528 
L 128.404489 91.667565 
L 129.419034 91.667565 
L 129.419034 96.069637 
L 130.43358 96.069637 
L 130.43358 99.277927 
L 131.448125 99.277927 
L 131.448125 103.083109 
L 132.46267 103.083109 
L 132.46267 104.20228 
L 133.477216 104.20228 
L 133.477216 98.755648 
L 134.491761 98.755648 
L 134.491761 98.979482 
L 135.506307 98.979482 
L 135.506307 105.321451 
L 136.520852 105.321451 
L 136.520852 108.082073 
L 137.535398 108.082073 
L 137.535398 108.380518 
L 138.549943 108.380518 
L 138.549943 107.93285 
L 139.564489 107.93285 
L 139.564489 109.499689 
L 140.579034 109.499689 
L 140.579034 104.20228 
L 141.59358 104.20228 
L 141.59358 112.633368 
L 142.608125 112.633368 
L 142.608125 103.829223 
L 143.62267 103.829223 
L 143.62267 111.738031 
L 144.637216 111.738031 
L 144.637216 120.169119 
L 145.651761 120.169119 
L 145.651761 122.034404 
L 146.666307 122.034404 
L 146.666307 130.465492 
L 147.680852 130.465492 
L 147.680852 126.734922 
L 148.695398 126.734922 
L 148.695398 125.466528 
L 149.709943 125.466528 
L 149.709943 119.273782 
L 150.724489 119.273782 
L 150.724489 118.378446 
L 151.739034 118.378446 
L 151.739034 127.70487 
L 152.75358 127.70487 
L 152.75358 135.986736 
L 153.768125 135.986736 
L 153.768125 131.286218 
L 154.78267 131.286218 
L 154.78267 127.928705 
L 155.797216 127.928705 
L 155.797216 127.033368 
L 156.811761 127.033368 
L 156.811761 128.973264 
L 157.826307 128.973264 
L 157.826307 135.091399 
L 158.840852 135.091399 
L 158.840852 132.48 
L 159.855398 132.48 
L 159.855398 138.150466 
L 160.869943 138.150466 
L 160.869943 142.403316 
L 161.884489 142.403316 
L 161.884489 143.970155 
L 162.899034 143.970155 
L 162.899034 147.253057 
L 163.91358 147.253057 
L 163.91358 152.177409 
L 164.928125 152.177409 
L 164.928125 150.535959 
L 165.94267 150.535959 
L 165.94267 154.266528 
L 166.957216 154.266528 
L 166.957216 153.221969 
L 167.971761 153.221969 
L 167.971761 165.159793 
L 168.986307 165.159793 
L 168.986307 165.980518 
L 170.000852 165.980518 
L 170.000852 163.891399 
L 171.015398 163.891399 
L 171.015398 151.058238 
L 172.029943 151.058238 
L 172.029943 150.312124 
L 173.044489 150.312124 
L 173.044489 145.462383 
L 174.059034 145.462383 
L 174.059034 141.507979 
L 175.07358 141.507979 
L 175.07358 139.717306 
L 176.088125 139.717306 
L 176.088125 136.807461 
L 177.10267 136.807461 
L 177.10267 141.284145 
L 178.117216 141.284145 
L 178.117216 139.791917 
L 179.131761 139.791917 
L 179.131761 141.806425 
L 180.146307 141.806425 
L 180.146307 147.626114 
L 181.160852 147.626114 
L 181.160852 151.282073 
L 182.175398 151.282073 
L 182.175398 159.340104 
L 183.189943 159.340104 
L 183.189943 162.548394 
L 184.204489 162.548394 
L 184.204489 159.489326 
L 185.219034 159.489326 
L 185.219034 162.473782 
L 186.23358 162.473782 
L 186.23358 157.698653 
L 187.248125 157.698653 
L 187.248125 156.579482 
L 188.26267 156.579482 
L 188.26267 153.29658 
L 189.277216 153.29658 
L 189.277216 154.191917 
L 190.291761 154.191917 
L 190.291761 160.906943 
L 191.306307 160.906943 
L 191.306307 161.130777 
L 192.320852 161.130777 
L 192.320852 164.861347 
L 193.335398 164.861347 
L 193.335398 167.621969 
L 194.349943 167.621969 
L 194.349943 167.025078 
L 195.364489 167.025078 
L 195.364489 175.381554 
L 197.39358 175.456166 
L 197.39358 170.531813 
L 198.408125 170.531813 
L 198.408125 172.024041 
L 199.42267 172.024041 
L 199.42267 172.99399 
L 200.437216 172.99399 
L 200.437216 175.456166 
L 201.451761 175.456166 
L 201.451761 179.186736 
L 202.466307 179.186736 
L 202.466307 181.798135 
L 203.480852 181.798135 
L 203.480852 182.171192 
L 204.495398 182.171192 
L 204.495398 188.065492 
L 205.509943 188.065492 
L 205.509943 190.527668 
L 206.524489 190.527668 
L 206.524489 191.348394 
L 207.539034 191.348394 
L 207.539034 192.542176 
L 208.55358 192.542176 
L 208.55358 192.691399 
L 209.568125 192.691399 
L 209.568125 193.81057 
L 210.58267 193.81057 
L 210.58267 193.213679 
L 211.597216 193.213679 
L 211.597216 194.258238 
L 212.611761 194.258238 
L 212.611761 193.885181 
L 213.626307 193.885181 
L 213.626307 198.436477 
L 214.640852 198.436477 
L 214.640852 199.182591 
L 215.655398 199.182591 
L 215.655398 195.750466 
L 216.669943 195.750466 
L 216.669943 190.527668 
L 217.684489 190.527668 
L 217.684489 191.497617 
L 218.699034 191.497617 
L 218.699034 191.796062 
L 219.71358 191.796062 
L 219.71358 184.857202 
L 221.74267 184.931813 
L 221.74267 184.409534 
L 222.757216 184.409534 
L 222.757216 188.736995 
L 223.771761 188.736995 
L 223.771761 191.721451 
L 224.786307 191.721451 
L 224.786307 194.780518 
L 225.800852 194.780518 
L 225.800852 195.750466 
L 226.815398 195.750466 
L 226.815398 196.944249 
L 227.829943 196.944249 
L 227.829943 196.421969 
L 230.87358 196.49658 
L 230.87358 196.795026 
L 232.90267 196.869637 
L 232.90267 196.645803 
L 233.917216 196.645803 
L 233.917216 198.361865 
L 234.931761 198.361865 
L 234.931761 201.79399 
L 235.946307 201.79399 
L 235.946307 203.659275 
L 236.960852 203.659275 
L 236.960852 203.510052 
L 237.975398 203.510052 
L 237.975398 204.48 
L 238.989943 204.48 
L 238.989943 201.570155 
L 240.004489 201.570155 
L 240.004489 202.316269 
L 241.019034 202.316269 
L 241.019034 206.419896 
L 242.03358 206.419896 
L 242.03358 207.389845 
L 243.048125 207.389845 
L 243.048125 207.837513 
L 244.06267 207.837513 
L 244.06267 207.464456 
L 245.077216 207.464456 
L 245.077216 209.105907 
L 246.091761 209.105907 
L 246.091761 210.299689 
L 247.106307 210.299689 
L 247.106307 210.672746 
L 248.120852 210.672746 
L 248.120852 211.866528 
L 249.135398 211.866528 
L 249.135398 212.388808 
L 250.149943 212.388808 
L 250.149943 210.598135 
L 251.164489 210.598135 
L 251.164489 211.866528 
L 253.19358 211.791917 
L 253.19358 211.717306 
L 254.208125 211.717306 
L 254.208125 213.881036 
L 255.22267 213.881036 
L 255.22267 214.179482 
L 257.251761 214.179482 
L 257.251761 213.284145 
L 258.266307 213.284145 
L 258.266307 210.448912 
L 259.280852 210.448912 
L 259.280852 208.882073 
L 260.295398 208.882073 
L 260.295398 206.792953 
L 261.309943 206.792953 
L 261.309943 207.091399 
L 263.339034 207.016788 
L 263.339034 202.838549 
L 264.35358 202.838549 
L 264.35358 206.345285 
L 265.368125 206.345285 
L 265.368125 207.837513 
L 266.38267 207.837513 
L 266.38267 207.315233 
L 267.397216 207.315233 
L 267.397216 207.091399 
L 268.411761 207.091399 
L 268.411761 207.762902 
L 269.426307 207.762902 
L 269.426307 208.135959 
L 270.440852 208.135959 
L 270.440852 209.329741 
L 271.455398 209.329741 
L 271.455398 208.73285 
L 272.469943 208.73285 
L 272.469943 208.882073 
L 273.484489 208.882073 
L 273.484489 210.001244 
L 274.499034 210.001244 
L 274.499034 208.509016 
L 275.51358 208.509016 
L 275.51358 209.926632 
L 276.528125 209.926632 
L 276.528125 210.448912 
L 277.54267 210.448912 
L 277.54267 211.94114 
L 278.557216 211.94114 
L 278.557216 213.284145 
L 280.586307 213.284145 
L 280.586307 213.507979 
L 281.600852 213.507979 
L 281.600852 212.46342 
L 282.615398 212.46342 
L 282.615398 212.164974 
L 283.629943 212.164974 
L 283.629943 213.657202 
L 284.644489 213.657202 
L 284.644489 214.10487 
L 285.659034 214.10487 
L 285.659034 213.881036 
L 287.688125 213.806425 
L 287.688125 214.776373 
L 289.717216 214.850984 
L 289.717216 216.19399 
L 291.746307 216.268601 
L 291.746307 215.67171 
L 292.760852 215.67171 
L 292.760852 216.641658 
L 293.775398 216.641658 
L 293.775398 216.268601 
L 294.789943 216.268601 
L 294.789943 216.567047 
L 296.819034 216.641658 
L 296.819034 217.611606 
L 297.83358 217.611606 
L 297.83358 216.044767 
L 299.86267 215.970155 
L 299.86267 213.433368 
L 300.877216 213.433368 
L 300.877216 213.582591 
L 301.891761 213.582591 
L 301.891761 213.881036 
L 302.906307 213.881036 
L 302.906307 212.761865 
L 303.920852 212.761865 
L 303.920852 209.404352 
L 304.935398 209.404352 
L 304.935398 206.345285 
L 305.949943 206.345285 
L 305.949943 208.509016 
L 306.964489 208.509016 
L 306.964489 203.883109 
L 307.979034 203.883109 
L 307.979034 204.629223 
L 308.99358 204.629223 
L 308.99358 202.763938 
L 310.008125 202.763938 
L 310.008125 202.092435 
L 311.02267 202.092435 
L 311.02267 201.122487 
L 312.037216 201.122487 
L 312.037216 201.644767 
L 313.051761 201.644767 
L 313.051761 202.465492 
L 314.066307 202.465492 
L 314.066307 207.315233 
L 315.080852 207.315233 
L 315.080852 207.091399 
L 316.095398 207.091399 
L 316.095398 205.599171 
L 317.109943 205.599171 
L 317.109943 205.226114 
L 318.124489 205.226114 
L 318.124489 202.689326 
L 319.139034 202.689326 
L 319.139034 203.211606 
L 320.15358 203.211606 
L 320.15358 199.406425 
L 321.168125 199.406425 
L 321.168125 203.883109 
L 322.18267 203.883109 
L 322.18267 207.613679 
L 324.211761 207.613679 
L 324.211761 209.404352 
L 325.226307 209.404352 
L 325.226307 208.956684 
L 326.240852 208.956684 
L 326.240852 203.883109 
L 327.255398 203.883109 
L 327.255398 204.927668 
L 328.269943 204.927668 
L 328.269943 208.21057 
L 329.284489 208.21057 
L 329.284489 210.448912 
L 330.299034 210.448912 
L 330.299034 206.942176 
L 331.31358 206.942176 
L 331.31358 210.448912 
L 332.328125 210.448912 
L 332.328125 210.225078 
L 333.34267 210.225078 
L 333.34267 208.807461 
L 334.357216 208.807461 
L 334.357216 207.837513 
L 335.371761 207.837513 
L 335.371761 207.613679 
L 336.386307 207.613679 
L 336.386307 210.448912 
L 337.400852 210.448912 
L 337.400852 209.25513 
L 338.415398 209.25513 
L 338.415398 212.538031 
L 339.429943 212.538031 
L 339.429943 212.090363 
L 341.459034 212.164974 
L 341.459034 209.852021 
L 342.47358 209.852021 
L 342.47358 211.642694 
L 343.488125 211.642694 
L 343.488125 212.314197 
L 344.50267 212.314197 
L 344.50267 209.926632 
L 345.517216 209.926632 
L 345.517216 215.746321 
L 346.531761 215.746321 
L 346.531761 215.522487 
L 347.546307 215.522487 
L 347.546307 215.224041 
L 348.560852 215.224041 
L 348.560852 214.925596 
L 349.575398 214.925596 
L 349.575398 216.790881 
L 350.589943 216.790881 
L 350.589943 217.387772 
L 351.604489 217.387772 
L 351.604489 218.432332 
L 352.619034 218.432332 
L 352.619034 218.88 
L 372.909943 218.88 
L 372.909943 218.88 
" clip-path="url(#p6dd1753d56)" style="fill: none; stroke: #1f77b4; stroke-width: 1.5; stroke-linecap: square"/>
   </g>
   <g id="line2d_17">
    <path d="M 68.546307 211.642694 
L 69.560852 211.642694 
L 69.560852 182.469637 
L 70.575398 182.469637 
L 70.575398 160.011606 
L 71.589943 160.011606 
L 71.589943 133.00228 
L 72.604489 133.00228 
L 72.604489 102.486218 
L 73.619034 102.486218 
L 73.619034 97.561865 
L 74.63358 97.561865 
L 74.63358 92.413679 
L 75.648125 92.413679 
L 75.648125 85.698653 
L 77.677216 85.698653 
L 77.677216 84.355648 
L 78.691761 84.355648 
L 78.691761 73.984663 
L 79.706307 73.984663 
L 79.706307 67.94114 
L 80.720852 67.94114 
L 80.720852 62.270674 
L 81.735398 62.270674 
L 81.735398 55.854093 
L 82.749943 55.854093 
L 82.749943 53.466528 
L 83.764489 53.466528 
L 83.764489 49.661347 
L 84.779034 49.661347 
L 84.779034 50.482073 
L 85.79358 50.482073 
L 85.79358 41.155648 
L 86.808125 41.155648 
L 86.808125 35.559793 
L 87.82267 35.559793 
L 87.82267 29.740104 
L 88.837216 29.740104 
L 88.837216 28.173264 
L 89.851761 28.173264 
L 89.851761 20.189845 
L 90.866307 20.189845 
L 90.866307 17.28 
L 91.880852 17.28 
L 91.880852 24.591917 
L 92.895398 24.591917 
L 92.895398 27.650984 
L 93.909943 27.650984 
L 93.909943 21.53285 
L 94.924489 21.53285 
L 94.924489 35.783627 
L 95.939034 35.783627 
L 95.939034 28.322487 
L 96.95358 28.322487 
L 96.95358 35.261347 
L 97.968125 35.261347 
L 97.968125 29.217824 
L 98.98267 29.217824 
L 98.98267 39.961865 
L 99.997216 39.961865 
L 99.997216 39.439585 
L 101.011761 39.439585 
L 101.011761 43.095544 
L 102.026307 43.095544 
L 102.026307 53.914197 
L 103.040852 53.914197 
L 103.040852 63.464456 
L 104.055398 63.464456 
L 104.055398 69.060311 
L 105.069943 69.060311 
L 105.069943 78.162902 
L 106.084489 78.162902 
L 106.084489 96.666528 
L 107.099034 96.666528 
L 107.099034 97.785699 
L 108.11358 97.785699 
L 108.11358 110.320415 
L 109.128125 110.320415 
L 109.128125 114.647876 
L 110.14267 114.647876 
L 110.14267 124.571192 
L 111.157216 124.571192 
L 111.157216 124.123523 
L 112.171761 124.123523 
L 112.171761 136.509016 
L 113.186307 136.509016 
L 113.186307 145.462383 
L 114.200852 145.462383 
L 114.200852 156.654093 
L 115.215398 156.654093 
L 115.215398 158.519378 
L 116.229943 158.519378 
L 116.229943 170.830259 
L 117.244489 170.830259 
L 117.244489 173.143212 
L 118.259034 173.143212 
L 118.259034 181.798135 
L 119.27358 181.798135 
L 119.27358 183.290363 
L 120.288125 183.290363 
L 120.288125 172.546321 
L 121.30267 172.546321 
L 121.30267 160.310052 
L 122.317216 160.310052 
L 122.317216 145.462383 
L 123.331761 145.462383 
L 123.331761 133.076891 
L 124.346307 133.076891 
L 124.346307 117.632332 
L 125.360852 117.632332 
L 125.360852 101.516269 
L 126.375398 101.516269 
L 126.375398 84.50487 
L 127.389943 84.50487 
L 127.389943 95.025078 
L 128.404489 95.025078 
L 128.404489 97.338031 
L 129.419034 97.338031 
L 129.419034 90.996062 
L 130.43358 90.996062 
L 130.43358 97.487254 
L 131.448125 97.487254 
L 131.448125 102.933886 
L 132.46267 102.933886 
L 132.46267 103.456166 
L 133.477216 103.456166 
L 133.477216 101.740104 
L 134.491761 101.740104 
L 134.491761 99.874819 
L 135.506307 99.874819 
L 135.506307 103.754611 
L 136.520852 103.754611 
L 136.520852 108.231295 
L 137.535398 108.231295 
L 137.535398 104.948394 
L 138.549943 104.948394 
L 138.549943 106.813679 
L 139.564489 106.813679 
L 139.564489 104.500725 
L 140.579034 104.500725 
L 140.579034 109.499689 
L 141.59358 109.499689 
L 141.59358 107.93285 
L 142.608125 107.93285 
L 142.608125 119.273782 
L 143.62267 119.273782 
L 143.62267 106.216788 
L 144.637216 106.216788 
L 144.637216 116.736995 
L 145.651761 116.736995 
L 145.651761 122.258238 
L 146.666307 122.258238 
L 146.666307 124.198135 
L 147.680852 124.198135 
L 147.680852 126.212642 
L 148.695398 126.212642 
L 148.695398 121.586736 
L 149.709943 121.586736 
L 149.709943 119.273782 
L 150.724489 119.273782 
L 150.724489 129.420933 
L 151.739034 129.420933 
L 151.739034 126.06342 
L 152.75358 126.06342 
L 152.75358 131.808497 
L 153.768125 131.808497 
L 153.768125 135.68829 
L 154.78267 135.68829 
L 154.78267 130.614715 
L 155.797216 130.614715 
L 155.797216 137.553575 
L 156.811761 137.553575 
L 156.811761 135.16601 
L 157.826307 135.16601 
L 157.826307 134.121451 
L 158.840852 134.121451 
L 158.840852 138.89658 
L 159.855398 138.89658 
L 159.855398 139.195026 
L 161.884489 139.195026 
L 161.884489 144.492435 
L 162.899034 144.492435 
L 162.899034 146.88 
L 163.91358 146.88 
L 163.91358 145.760829 
L 164.928125 145.760829 
L 164.928125 145.387772 
L 165.94267 145.387772 
L 165.94267 152.401244 
L 166.957216 152.401244 
L 166.957216 156.355648 
L 167.971761 156.355648 
L 167.971761 160.683109 
L 168.986307 160.683109 
L 168.986307 158.444767 
L 170.000852 158.444767 
L 170.000852 156.281036 
L 171.015398 156.281036 
L 171.015398 150.013679 
L 172.029943 150.013679 
L 172.029943 147.40228 
L 173.044489 147.40228 
L 173.044489 142.030259 
L 174.059034 142.030259 
L 174.059034 138.523523 
L 175.07358 138.523523 
L 175.07358 144.492435 
L 176.088125 144.492435 
L 176.088125 141.209534 
L 177.10267 141.209534 
L 177.10267 138.89658 
L 178.117216 138.89658 
L 178.117216 142.403316 
L 179.131761 142.403316 
L 179.131761 144.417824 
L 180.146307 144.417824 
L 180.146307 149.192953 
L 181.160852 149.192953 
L 181.160852 154.788808 
L 182.175398 154.788808 
L 182.175398 155.758756 
L 183.189943 155.758756 
L 183.189943 158.967047 
L 184.204489 158.967047 
L 184.204489 158.519378 
L 185.219034 158.519378 
L 185.219034 155.012642 
L 186.23358 155.012642 
L 186.23358 156.654093 
L 187.248125 156.654093 
L 187.248125 154.191917 
L 188.26267 154.191917 
L 188.26267 160.086218 
L 189.277216 160.086218 
L 189.277216 158.07171 
L 190.291761 158.07171 
L 190.291761 159.638549 
L 191.306307 159.638549 
L 191.306307 164.712124 
L 192.320852 164.712124 
L 192.320852 168.815751 
L 193.335398 168.815751 
L 193.335398 169.039585 
L 194.349943 169.039585 
L 194.349943 165.234404 
L 195.364489 165.234404 
L 195.364489 169.711088 
L 196.379034 169.711088 
L 196.379034 172.098653 
L 197.39358 172.098653 
L 197.39358 176.053057 
L 198.408125 176.053057 
L 198.408125 173.740104 
L 199.42267 173.740104 
L 199.42267 178.36601 
L 200.437216 178.36601 
L 200.437216 179.485181 
L 201.451761 179.485181 
L 201.451761 180.082073 
L 202.466307 180.082073 
L 202.466307 184.260311 
L 203.480852 184.260311 
L 203.480852 182.768083 
L 204.495398 182.768083 
L 204.495398 183.887254 
L 205.509943 183.887254 
L 205.509943 187.319378 
L 206.524489 187.319378 
L 206.524489 189.632332 
L 207.539034 189.632332 
L 207.539034 192.616788 
L 208.55358 192.616788 
L 208.55358 192.989845 
L 209.568125 192.989845 
L 209.568125 191.572228 
L 210.58267 191.572228 
L 210.58267 191.945285 
L 211.597216 191.945285 
L 211.597216 194.183627 
L 212.611761 194.183627 
L 212.611761 195.675855 
L 213.626307 195.675855 
L 213.626307 194.482073 
L 214.640852 194.482073 
L 214.640852 193.885181 
L 215.655398 193.885181 
L 215.655398 194.109016 
L 216.669943 194.109016 
L 216.669943 191.423005 
L 217.684489 191.423005 
L 217.684489 191.049948 
L 218.699034 191.049948 
L 218.699034 190.154611 
L 219.71358 190.154611 
L 219.71358 187.990881 
L 220.728125 187.990881 
L 220.728125 187.39399 
L 221.74267 187.39399 
L 221.74267 187.020933 
L 222.757216 187.020933 
L 222.757216 189.184663 
L 223.771761 189.184663 
L 223.771761 190.154611 
L 224.786307 190.154611 
L 224.786307 191.870674 
L 225.800852 191.870674 
L 225.800852 192.691399 
L 226.815398 192.691399 
L 226.815398 194.482073 
L 227.829943 194.482073 
L 227.829943 194.631295 
L 228.844489 194.631295 
L 228.844489 196.795026 
L 229.859034 196.795026 
L 229.859034 195.899689 
L 230.87358 195.899689 
L 230.87358 197.988808 
L 231.888125 197.988808 
L 231.888125 197.690363 
L 232.90267 197.690363 
L 232.90267 198.958756 
L 233.917216 198.958756 
L 233.917216 200.898653 
L 234.931761 200.898653 
L 234.931761 202.241658 
L 235.946307 202.241658 
L 235.946307 203.360829 
L 236.960852 203.360829 
L 236.960852 203.136995 
L 238.989943 203.211606 
L 238.989943 204.405389 
L 240.004489 204.405389 
L 240.004489 205.375337 
L 241.019034 205.375337 
L 241.019034 205.00228 
L 242.03358 205.00228 
L 242.03358 206.345285 
L 243.048125 206.345285 
L 243.048125 208.434404 
L 244.06267 208.434404 
L 244.06267 206.867565 
L 245.077216 206.867565 
L 245.077216 209.031295 
L 246.091761 209.031295 
L 246.091761 209.553575 
L 247.106307 209.553575 
L 247.106307 208.956684 
L 248.120852 208.956684 
L 248.120852 210.598135 
L 249.135398 210.598135 
L 249.135398 211.195026 
L 250.149943 211.195026 
L 250.149943 213.284145 
L 251.164489 213.284145 
L 251.164489 211.120415 
L 252.179034 211.120415 
L 252.179034 212.538031 
L 253.19358 212.538031 
L 253.19358 213.060311 
L 254.208125 213.060311 
L 254.208125 212.090363 
L 255.22267 212.090363 
L 255.22267 213.507979 
L 256.237216 213.507979 
L 256.237216 212.761865 
L 257.251761 212.761865 
L 257.251761 211.41886 
L 258.266307 211.41886 
L 258.266307 209.553575 
L 260.295398 209.553575 
L 260.295398 208.882073 
L 261.309943 208.882073 
L 261.309943 206.345285 
L 262.324489 206.345285 
L 262.324489 206.196062 
L 264.35358 206.270674 
L 264.35358 206.643731 
L 265.368125 206.643731 
L 265.368125 206.494508 
L 266.38267 206.494508 
L 266.38267 206.643731 
L 267.397216 206.643731 
L 267.397216 206.419896 
L 268.411761 206.419896 
L 268.411761 207.613679 
L 269.426307 207.613679 
L 269.426307 208.658238 
L 270.440852 208.658238 
L 270.440852 209.105907 
L 271.455398 209.105907 
L 271.455398 207.389845 
L 272.469943 207.389845 
L 272.469943 210.747358 
L 273.484489 210.747358 
L 273.484489 210.523523 
L 274.499034 210.523523 
L 274.499034 210.225078 
L 275.51358 210.225078 
L 275.51358 209.553575 
L 276.528125 209.553575 
L 276.528125 211.344249 
L 277.54267 211.344249 
L 277.54267 210.747358 
L 278.557216 210.747358 
L 278.557216 212.314197 
L 279.571761 212.314197 
L 279.571761 212.985699 
L 280.586307 212.985699 
L 280.586307 212.015751 
L 281.600852 212.015751 
L 281.600852 213.433368 
L 282.615398 213.433368 
L 282.615398 213.134922 
L 283.629943 213.134922 
L 283.629943 212.911088 
L 284.644489 212.911088 
L 284.644489 213.881036 
L 286.67358 213.806425 
L 286.67358 214.403316 
L 287.688125 214.403316 
L 287.688125 214.254093 
L 288.70267 214.254093 
L 288.70267 215.597098 
L 289.717216 215.597098 
L 289.717216 215.000207 
L 290.731761 215.000207 
L 290.731761 216.940104 
L 291.746307 216.940104 
L 291.746307 214.925596 
L 292.760852 214.925596 
L 292.760852 217.089326 
L 293.775398 217.089326 
L 293.775398 216.716269 
L 294.789943 216.716269 
L 294.789943 216.044767 
L 295.804489 216.044767 
L 295.804489 216.716269 
L 296.819034 216.716269 
L 296.819034 215.522487 
L 297.83358 215.522487 
L 297.83358 215.298653 
L 298.848125 215.298653 
L 298.848125 215.597098 
L 299.86267 215.597098 
L 299.86267 213.806425 
L 300.877216 213.806425 
L 300.877216 212.612642 
L 301.891761 212.612642 
L 301.891761 211.344249 
L 302.906307 211.344249 
L 302.906307 210.598135 
L 303.920852 210.598135 
L 303.920852 208.956684 
L 304.935398 208.956684 
L 304.935398 208.434404 
L 305.949943 208.434404 
L 305.949943 207.389845 
L 306.964489 207.389845 
L 306.964489 206.046839 
L 307.979034 206.046839 
L 307.979034 204.853057 
L 308.99358 204.853057 
L 308.99358 203.211606 
L 310.008125 203.211606 
L 310.008125 203.95772 
L 311.02267 203.95772 
L 311.02267 204.256166 
L 312.037216 204.256166 
L 312.037216 204.778446 
L 313.051761 204.778446 
L 313.051761 203.584663 
L 314.066307 203.584663 
L 314.066307 204.181554 
L 315.080852 204.181554 
L 315.080852 204.853057 
L 316.095398 204.853057 
L 316.095398 203.286218 
L 317.109943 203.286218 
L 317.109943 204.256166 
L 318.124489 204.256166 
L 318.124489 205.00228 
L 319.139034 205.00228 
L 319.139034 205.52456 
L 321.168125 205.599171 
L 321.168125 204.032332 
L 322.18267 204.032332 
L 322.18267 204.778446 
L 323.197216 204.778446 
L 323.197216 206.121451 
L 324.211761 206.121451 
L 324.211761 205.897617 
L 325.226307 205.897617 
L 325.226307 206.196062 
L 326.240852 206.196062 
L 326.240852 207.539067 
L 327.255398 207.539067 
L 327.255398 207.016788 
L 328.269943 207.016788 
L 328.269943 208.135959 
L 329.284489 208.135959 
L 329.284489 207.68829 
L 330.299034 207.68829 
L 330.299034 207.986736 
L 331.31358 207.986736 
L 331.31358 209.628187 
L 332.328125 209.628187 
L 332.328125 210.150466 
L 333.34267 210.150466 
L 333.34267 207.613679 
L 334.357216 207.613679 
L 334.357216 209.105907 
L 335.371761 209.105907 
L 335.371761 209.777409 
L 336.386307 209.777409 
L 336.386307 210.225078 
L 337.400852 210.225078 
L 337.400852 209.329741 
L 338.415398 209.329741 
L 338.415398 211.120415 
L 339.429943 211.120415 
L 339.429943 210.821969 
L 341.459034 210.89658 
L 341.459034 212.164974 
L 342.47358 212.164974 
L 342.47358 211.120415 
L 343.488125 211.120415 
L 343.488125 213.060311 
L 345.517216 213.060311 
L 345.517216 213.507979 
L 346.531761 213.507979 
L 346.531761 214.552539 
L 347.546307 214.552539 
L 347.546307 215.074819 
L 348.560852 215.074819 
L 348.560852 215.820933 
L 349.575398 215.820933 
L 349.575398 216.268601 
L 350.589943 216.268601 
L 350.589943 217.387772 
L 351.604489 217.387772 
L 351.604489 217.611606 
L 352.619034 217.611606 
L 352.619034 218.506943 
L 353.63358 218.506943 
L 353.63358 218.805389 
L 372.909943 218.88 
L 372.909943 218.88 
" clip-path="url(#p6dd1753d56)" style="fill: none; stroke: #ff7f0e; stroke-width: 1.5; stroke-linecap: square"/>
   </g>
   <g id="patch_3">
    <path d="M 53.328125 228.96 
L 53.328125 7.2 
" style="fill: none; stroke: #000000; stroke-width: 0.8; stroke-linejoin: miter; stroke-linecap: square"/>
   </g>
   <g id="patch_4">
    <path d="M 388.128125 228.96 
L 388.128125 7.2 
" style="fill: none; stroke: #000000; stroke-width: 0.8; stroke-linejoin: miter; stroke-linecap: square"/>
   </g>
   <g id="patch_5">
    <path d="M 53.328125 228.96 
L 388.128125 228.96 
" style="fill: none; stroke: #000000; stroke-width: 0.8; stroke-linejoin: miter; stroke-linecap: square"/>
   </g>
   <g id="patch_6">
    <path d="M 53.328125 7.2 
L 388.128125 7.2 
" style="fill: none; stroke: #000000; stroke-width: 0.8; stroke-linejoin: miter; stroke-linecap: square"/>
   </g>
   <g id="legend_1">
    <g id="patch_7">
     <path d="M 284.125 44.834375 
L 381.128125 44.834375 
Q 383.128125 44.834375 383.128125 42.834375 
L 383.128125 14.2 
Q 383.128125 12.2 381.128125 12.2 
L 284.125 12.2 
Q 282.125 12.2 282.125 14.2 
L 282.125 42.834375 
Q 282.125 44.834375 284.125 44.834375 
z
" style="fill: #ffffff; opacity: 0.8; stroke: #cccccc; stroke-linejoin: miter"/>
    </g>
    <g id="line2d_18">
     <path d="M 286.125 20.298437 
L 286.125 20.298437 
L 296.125 20.298437 
L 296.125 20.298437 
L 306.125 20.298437 
" style="fill: none; stroke: #1f77b4; stroke-width: 1.5; stroke-linecap: square"/>
    </g>
    <g id="text_18">
     <!-- wfm -->
     <g transform="translate(314.125 23.798437) scale(0.1 -0.1)">
      <defs>
       <path id="DejaVuSans-66" d="M 2375 4863 
L 2375 4384 
L 1825 4384 
Q 1516 4384 1395 4259 
Q 1275 4134 1275 3809 
L 1275 3500 
L 2222 3500 
L 2222 3053 
L 1275 3053 
L 1275 0 
L 697 0 
L 697 3053 
L 147 3053 
L 147 3500 
L 697 3500 
L 697 3744 
Q 697 4328 969 4595 
Q 1241 4863 1831 4863 
L 2375 4863 
z
" transform="scale(0.015625)"/>
       <path id="DejaVuSans-6d" d="M 3328 2828 
Q 3544 3216 3844 3400 
Q 4144 3584 4550 3584 
Q 5097 3584 5394 3201 
Q 5691 2819 5691 2113 
L 5691 0 
L 5113 0 
L 5113 2094 
Q 5113 2597 4934 2840 
Q 4756 3084 4391 3084 
Q 3944 3084 3684 2787 
Q 3425 2491 3425 1978 
L 3425 0 
L 2847 0 
L 2847 2094 
Q 2847 2600 2669 2842 
Q 2491 3084 2119 3084 
Q 1678 3084 1418 2786 
Q 1159 2488 1159 1978 
L 1159 0 
L 581 0 
L 581 3500 
L 1159 3500 
L 1159 2956 
Q 1356 3278 1631 3431 
Q 1906 3584 2284 3584 
Q 2666 3584 2933 3390 
Q 3200 3197 3328 2828 
z
" transform="scale(0.015625)"/>
      </defs>
      <use xlink:href="#DejaVuSans-77"/>
      <use xlink:href="#DejaVuSans-66" transform="translate(81.787109 0)"/>
      <use xlink:href="#DejaVuSans-6d" transform="translate(116.992188 0)"/>
     </g>
    </g>
    <g id="line2d_19">
     <path d="M 286.125 34.976562 
L 286.125 34.976562 
L 296.125 34.976562 
L 296.125 34.976562 
L 306.125 34.976562 
" style="fill: none; stroke: #ff7f0e; stroke-width: 1.5; stroke-linecap: square"/>
    </g>
    <g id="text_19">
     <!-- ground_truth -->
     <g transform="translate(314.125 38.476562) scale(0.1 -0.1)">
      <defs>
       <path id="DejaVuSans-72" d="M 2631 2963 
Q 2534 3019 2420 3045 
Q 2306 3072 2169 3072 
Q 1681 3072 1420 2755 
Q 1159 2438 1159 1844 
L 1159 0 
L 581 0 
L 581 3500 
L 1159 3500 
L 1159 2956 
Q 1341 3275 1631 3429 
Q 1922 3584 2338 3584 
Q 2397 3584 2469 3576 
Q 2541 3569 2628 3553 
L 2631 2963 
z
" transform="scale(0.015625)"/>
       <path id="DejaVuSans-64" d="M 2906 2969 
L 2906 4863 
L 3481 4863 
L 3481 0 
L 2906 0 
L 2906 525 
Q 2725 213 2448 61 
Q 2172 -91 1784 -91 
Q 1150 -91 751 415 
Q 353 922 353 1747 
Q 353 2572 751 3078 
Q 1150 3584 1784 3584 
Q 2172 3584 2448 3432 
Q 2725 3281 2906 2969 
z
M 947 1747 
Q 947 1113 1208 752 
Q 1469 391 1925 391 
Q 2381 391 2643 752 
Q 2906 1113 2906 1747 
Q 2906 2381 2643 2742 
Q 2381 3103 1925 3103 
Q 1469 3103 1208 2742 
Q 947 2381 947 1747 
z
" transform="scale(0.015625)"/>
       <path id="DejaVuSans-5f" d="M 3263 -1063 
L 3263 -1509 
L -63 -1509 
L -63 -1063 
L 3263 -1063 
z
" transform="scale(0.015625)"/>
      </defs>
      <use xlink:href="#DejaVuSans-67"/>
      <use xlink:href="#DejaVuSans-72" transform="translate(63.476562 0)"/>
      <use xlink:href="#DejaVuSans-6f" transform="translate(102.339844 0)"/>
      <use xlink:href="#DejaVuSans-75" transform="translate(163.521484 0)"/>
      <use xlink:href="#DejaVuSans-6e" transform="translate(226.900391 0)"/>
      <use xlink:href="#DejaVuSans-64" transform="translate(290.279297 0)"/>
      <use xlink:href="#DejaVuSans-5f" transform="translate(353.755859 0)"/>
      <use xlink:href="#DejaVuSans-74" transform="translate(403.755859 0)"/>
      <use xlink:href="#DejaVuSans-72" transform="translate(442.964844 0)"/>
      <use xlink:href="#DejaVuSans-75" transform="translate(484.078125 0)"/>
      <use xlink:href="#DejaVuSans-74" transform="translate(547.457031 0)"/>
      <use xlink:href="#DejaVuSans-68" transform="translate(586.666016 0)"/>
     </g>
    </g>
   </g>
  </g>
 </g>
 <defs>
  <clipPath id="p6dd1753d56">
   <rect x="53.328125" y="7.2" width="334.8" height="221.76"/>
  </clipPath>
 </defs>
</svg>
