<?xml version="1.0" encoding="UTF-8" standalone="no"?>
<!DOCTYPE svg PUBLIC "-//W3C//DTD SVG 1.1//EN"
 "http://www.w3.org/Graphics/SVG/1.1/DTD/svg11.dtd">
<!-- Generated by graphviz version 14.1.2 (20260126.1125)
 -->
<!-- Pages: 1 -->
<svg width="670pt" height="171pt"
 viewBox="0.00 0.00 670.00 171.00" xmlns="http://www.w3.org/2000/svg" xmlns:xlink="http://www.w3.org/1999/xlink">
<g id="graph0" class="graph" transform="scale(1 1) rotate(0) translate(4 167.25)">
<polygon fill="white" stroke="none" points="-4,4 -4,-167.25 665.5,-167.25 665.5,4 -4,4"/>
<!-- He3CellLength[Polarizer] -->
<g id="node1" class="node">
<title>He3CellLength[Polarizer]</title>
<polygon fill="none" stroke="red" stroke-dasharray="5,2" points="197.5,-163.25 0,-163.25 0,-138 197.5,-138 197.5,-163.25"/>
<text xml:space="preserve" text-anchor="start" x="8" y="-145.95" font-family="Times,serif" font-size="14.00" fill="red">He3CellLength[Polarizer]</text>
</g>
<!-- He3Opacity0[Polarizer] -->
<g id="node4" class="node">
<title>He3Opacity0[Polarizer]</title>
<polygon fill="none" stroke="black" points="413,-102 206.5,-102 206.5,-69 413,-69 413,-102"/>
<text xml:space="preserve" text-anchor="start" x="226.12" y="-85.7" font-family="Times,serif" font-size="14.00">He3Opacity0[Polarizer]</text>
<text xml:space="preserve" text-anchor="start" x="214.5" y="-74.55" font-family="Times,serif" font-size="11.00">via:</text>
<text xml:space="preserve" text-anchor="start" x="234.75" y="-74.55" font-family="Times,serif" font-style="italic" font-size="11.00">he3_opacity_from_cell_params</text>
</g>
<!-- He3CellLength[Polarizer]&#45;&gt;He3Opacity0[Polarizer] -->
<g id="edge2" class="edge">
<title>He3CellLength[Polarizer]&#45;&gt;He3Opacity0[Polarizer]</title>
<path fill="none" stroke="black" d="M138.93,-137.6C169.04,-128.6 210.83,-116.09 245.55,-105.71"/>
<polygon fill="black" stroke="black" points="246.52,-109.07 255.1,-102.85 244.51,-102.36 246.52,-109.07"/>
</g>
<!-- He3CellPressure[Polarizer] -->
<g id="node2" class="node">
<title>He3CellPressure[Polarizer]</title>
<polygon fill="none" stroke="red" stroke-dasharray="5,2" points="415.25,-163.25 204.25,-163.25 204.25,-138 415.25,-138 415.25,-163.25"/>
<text xml:space="preserve" text-anchor="start" x="212.25" y="-145.95" font-family="Times,serif" font-size="14.00" fill="red">He3CellPressure[Polarizer]</text>
</g>
<!-- He3CellPressure[Polarizer]&#45;&gt;He3Opacity0[Polarizer] -->
<g id="edge1" class="edge">
<title>He3CellPressure[Polarizer]&#45;&gt;He3Opacity0[Polarizer]</title>
<path fill="none" stroke="black" d="M309.75,-137.75C309.75,-130.95 309.75,-122.13 309.75,-113.72"/>
<polygon fill="black" stroke="black" points="313.25,-113.89 309.75,-103.89 306.25,-113.89 313.25,-113.89"/>
</g>
<!-- He3CellTemperature[Polarizer] -->
<g id="node3" class="node">
<title>He3CellTemperature[Polarizer]</title>
<polygon fill="none" stroke="red" stroke-dasharray="5,2" points="661.5,-163.25 422,-163.25 422,-138 661.5,-138 661.5,-163.25"/>
<text xml:space="preserve" text-anchor="start" x="430" y="-145.95" font-family="Times,serif" font-size="14.00" fill="red">He3CellTemperature[Polarizer]</text>
</g>
<!-- He3CellTemperature[Polarizer]&#45;&gt;He3Opacity0[Polarizer] -->
<g id="edge3" class="edge">
<title>He3CellTemperature[Polarizer]&#45;&gt;He3Opacity0[Polarizer]</title>
<path fill="none" stroke="black" d="M497.29,-137.53C464,-128.47 417.81,-115.9 379.6,-105.51"/>
<polygon fill="black" stroke="black" points="380.57,-102.14 370,-102.89 378.73,-108.9 380.57,-102.14"/>
</g>
<!-- He3OpacityFunction[Polarizer] -->
<g id="node5" class="node">
<title>He3OpacityFunction[Polarizer]</title>
<polygon fill="none" stroke="black" points="437.38,-33 182.12,-33 182.12,0 437.38,0 437.38,-33"/>
<text xml:space="preserve" text-anchor="start" x="199.12" y="-16.7" font-family="Times,serif" font-size="14.00">He3OpacityFunction[Polarizer]</text>
<text xml:space="preserve" text-anchor="start" x="190.12" y="-5.55" font-family="Times,serif" font-size="11.00">via:</text>
<text xml:space="preserve" text-anchor="start" x="210.38" y="-5.55" font-family="Times,serif" font-style="italic" font-size="11.00">he3_opacity_function_from_cell_opacity</text>
</g>
<!-- He3Opacity0[Polarizer]&#45;&gt;He3OpacityFunction[Polarizer] -->
<g id="edge4" class="edge">
<title>He3Opacity0[Polarizer]&#45;&gt;He3OpacityFunction[Polarizer]</title>
<path fill="none" stroke="black" d="M309.75,-68.62C309.75,-61.45 309.75,-52.76 309.75,-44.6"/>
<polygon fill="black" stroke="black" points="313.25,-44.78 309.75,-34.78 306.25,-44.78 313.25,-44.78"/>
</g>
</g>
</svg>
