<?xml version="1.0" encoding="utf-8" standalone="no"?>
<!DOCTYPE svg PUBLIC "-//W3C//DTD SVG 1.1//EN"
  "http://www.w3.org/Graphics/SVG/1.1/DTD/svg11.dtd">
<svg xmlns:xlink="http://www.w3.org/1999/xlink" width="872.39952pt" height="296.39952pt" viewBox="0 0 872.39952 296.39952" xmlns="http://www.w3.org/2000/svg" version="1.1">
 <metadata>
  <rdf:RDF xmlns:dc="http://purl.org/dc/elements/1.1/" xmlns:cc="http://creativecommons.org/ns#" xmlns:rdf="http://www.w3.org/1999/02/22-rdf-syntax-ns#">
   <cc:Work>
    <dc:type rdf:resource="http://purl.org/dc/dcmitype/StillImage"/>
    <dc:date>2026-06-18T08:05:51.922431</dc:date>
    <dc:format>image/svg+xml</dc:format>
    <dc:creator>
     <cc:Agent>
      <dc:title>Matplotlib v3.10.9, https://matplotlib.org/</dc:title>
     </cc:Agent>
    </dc:creator>
   </cc:Work>
  </rdf:RDF>
 </metadata>
 <defs>
  <style type="text/css">*{stroke-linejoin: round; stroke-linecap: butt}</style>
 </defs>
 <g id="figure_1">
  <g id="patch_1">
   <path d="M 0 296.39952 
L 872.39952 296.39952 
L 872.39952 0 
L 0 0 
z
" style="fill: #ffffff"/>
  </g>
  <g id="axes_1">
   <g id="patch_2">
    <path d="M 53.328125 257.158895 
L 414.59976 257.158895 
L 414.59976 7.2 
L 53.328125 7.2 
z
" style="fill: #ffffff"/>
   </g>
   <g id="matplotlib.axis_1">
    <g id="xtick_1">
     <g id="line2d_1">
      <defs>
       <path id="meee507e728" d="M 0 0 
L 0 3.5 
" style="stroke: #000000; stroke-width: 0.8"/>
      </defs>
      <g>
       <use xlink:href="#meee507e728" x="68.844871" y="257.158895" style="stroke: #000000; stroke-width: 0.8"/>
      </g>
     </g>
     <g id="text_1">
      <!-- 0 -->
      <g transform="translate(65.663621 271.757332) scale(0.1 -0.1)">
       <defs>
        <path id="DejaVuSans-30" d="M 2034 4250 
Q 1547 4250 1301 3770 
Q 1056 3291 1056 2328 
Q 1056 1369 1301 889 
Q 1547 409 2034 409 
Q 2525 409 2770 889 
Q 3016 1369 3016 2328 
Q 3016 3291 2770 3770 
Q 2525 4250 2034 4250 
z
M 2034 4750 
Q 2819 4750 3233 4129 
Q 3647 3509 3647 2328 
Q 3647 1150 3233 529 
Q 2819 -91 2034 -91 
Q 1250 -91 836 529 
Q 422 1150 422 2328 
Q 422 3509 836 4129 
Q 1250 4750 2034 4750 
z
" transform="scale(0.015625)"/>
       </defs>
       <use xlink:href="#DejaVuSans-30"/>
      </g>
     </g>
    </g>
    <g id="xtick_2">
     <g id="line2d_2">
      <g>
       <use xlink:href="#meee507e728" x="134.895504" y="257.158895" style="stroke: #000000; stroke-width: 0.8"/>
      </g>
     </g>
     <g id="text_2">
      <!-- 1000 -->
      <g transform="translate(122.170504 271.757332) scale(0.1 -0.1)">
       <defs>
        <path id="DejaVuSans-31" d="M 794 531 
L 1825 531 
L 1825 4091 
L 703 3866 
L 703 4441 
L 1819 4666 
L 2450 4666 
L 2450 531 
L 3481 531 
L 3481 0 
L 794 0 
L 794 531 
z
" transform="scale(0.015625)"/>
       </defs>
       <use xlink:href="#DejaVuSans-31"/>
       <use xlink:href="#DejaVuSans-30" transform="translate(63.623047 0)"/>
       <use xlink:href="#DejaVuSans-30" transform="translate(127.246094 0)"/>
       <use xlink:href="#DejaVuSans-30" transform="translate(190.869141 0)"/>
      </g>
     </g>
    </g>
    <g id="xtick_3">
     <g id="line2d_3">
      <g>
       <use xlink:href="#meee507e728" x="200.946138" y="257.158895" style="stroke: #000000; stroke-width: 0.8"/>
      </g>
     </g>
     <g id="text_3">
      <!-- 2000 -->
      <g transform="translate(188.221138 271.757332) scale(0.1 -0.1)">
       <defs>
        <path id="DejaVuSans-32" d="M 1228 531 
L 3431 531 
L 3431 0 
L 469 0 
L 469 531 
Q 828 903 1448 1529 
Q 2069 2156 2228 2338 
Q 2531 2678 2651 2914 
Q 2772 3150 2772 3378 
Q 2772 3750 2511 3984 
Q 2250 4219 1831 4219 
Q 1534 4219 1204 4116 
Q 875 4013 500 3803 
L 500 4441 
Q 881 4594 1212 4672 
Q 1544 4750 1819 4750 
Q 2544 4750 2975 4387 
Q 3406 4025 3406 3419 
Q 3406 3131 3298 2873 
Q 3191 2616 2906 2266 
Q 2828 2175 2409 1742 
Q 1991 1309 1228 531 
z
" transform="scale(0.015625)"/>
       </defs>
       <use xlink:href="#DejaVuSans-32"/>
       <use xlink:href="#DejaVuSans-30" transform="translate(63.623047 0)"/>
       <use xlink:href="#DejaVuSans-30" transform="translate(127.246094 0)"/>
       <use xlink:href="#DejaVuSans-30" transform="translate(190.869141 0)"/>
      </g>
     </g>
    </g>
    <g id="xtick_4">
     <g id="line2d_4">
      <g>
       <use xlink:href="#meee507e728" x="266.996771" y="257.158895" style="stroke: #000000; stroke-width: 0.8"/>
      </g>
     </g>
     <g id="text_4">
      <!-- 3000 -->
      <g transform="translate(254.271771 271.757332) scale(0.1 -0.1)">
       <defs>
        <path id="DejaVuSans-33" d="M 2597 2516 
Q 3050 2419 3304 2112 
Q 3559 1806 3559 1356 
Q 3559 666 3084 287 
Q 2609 -91 1734 -91 
Q 1441 -91 1130 -33 
Q 819 25 488 141 
L 488 750 
Q 750 597 1062 519 
Q 1375 441 1716 441 
Q 2309 441 2620 675 
Q 2931 909 2931 1356 
Q 2931 1769 2642 2001 
Q 2353 2234 1838 2234 
L 1294 2234 
L 1294 2753 
L 1863 2753 
Q 2328 2753 2575 2939 
Q 2822 3125 2822 3475 
Q 2822 3834 2567 4026 
Q 2313 4219 1838 4219 
Q 1578 4219 1281 4162 
Q 984 4106 628 3988 
L 628 4550 
Q 988 4650 1302 4700 
Q 1616 4750 1894 4750 
Q 2613 4750 3031 4423 
Q 3450 4097 3450 3541 
Q 3450 3153 3228 2886 
Q 3006 2619 2597 2516 
z
" transform="scale(0.015625)"/>
       </defs>
       <use xlink:href="#DejaVuSans-33"/>
       <use xlink:href="#DejaVuSans-30" transform="translate(63.623047 0)"/>
       <use xlink:href="#DejaVuSans-30" transform="translate(127.246094 0)"/>
       <use xlink:href="#DejaVuSans-30" transform="translate(190.869141 0)"/>
      </g>
     </g>
    </g>
    <g id="xtick_5">
     <g id="line2d_5">
      <g>
       <use xlink:href="#meee507e728" x="333.047405" y="257.158895" style="stroke: #000000; stroke-width: 0.8"/>
      </g>
     </g>
     <g id="text_5">
      <!-- 4000 -->
      <g transform="translate(320.322405 271.757332) scale(0.1 -0.1)">
       <defs>
        <path id="DejaVuSans-34" d="M 2419 4116 
L 825 1625 
L 2419 1625 
L 2419 4116 
z
M 2253 4666 
L 3047 4666 
L 3047 1625 
L 3713 1625 
L 3713 1100 
L 3047 1100 
L 3047 0 
L 2419 0 
L 2419 1100 
L 313 1100 
L 313 1709 
L 2253 4666 
z
" transform="scale(0.015625)"/>
       </defs>
       <use xlink:href="#DejaVuSans-34"/>
       <use xlink:href="#DejaVuSans-30" transform="translate(63.623047 0)"/>
       <use xlink:href="#DejaVuSans-30" transform="translate(127.246094 0)"/>
       <use xlink:href="#DejaVuSans-30" transform="translate(190.869141 0)"/>
      </g>
     </g>
    </g>
    <g id="xtick_6">
     <g id="line2d_6">
      <g>
       <use xlink:href="#meee507e728" x="399.098038" y="257.158895" style="stroke: #000000; stroke-width: 0.8"/>
      </g>
     </g>
     <g id="text_6">
      <!-- 5000 -->
      <g transform="translate(386.373038 271.757332) scale(0.1 -0.1)">
       <defs>
        <path id="DejaVuSans-35" d="M 691 4666 
L 3169 4666 
L 3169 4134 
L 1269 4134 
L 1269 2991 
Q 1406 3038 1543 3061 
Q 1681 3084 1819 3084 
Q 2600 3084 3056 2656 
Q 3513 2228 3513 1497 
Q 3513 744 3044 326 
Q 2575 -91 1722 -91 
Q 1428 -91 1123 -41 
Q 819 9 494 109 
L 494 744 
Q 775 591 1075 516 
Q 1375 441 1709 441 
Q 2250 441 2565 725 
Q 2881 1009 2881 1497 
Q 2881 1984 2565 2268 
Q 2250 2553 1709 2553 
Q 1456 2553 1204 2497 
Q 953 2441 691 2322 
L 691 4666 
z
" transform="scale(0.015625)"/>
       </defs>
       <use xlink:href="#DejaVuSans-35"/>
       <use xlink:href="#DejaVuSans-30" transform="translate(63.623047 0)"/>
       <use xlink:href="#DejaVuSans-30" transform="translate(127.246094 0)"/>
       <use xlink:href="#DejaVuSans-30" transform="translate(190.869141 0)"/>
      </g>
     </g>
    </g>
    <g id="text_7">
     <!-- birth_time [µs] -->
     <g transform="translate(197.14363 285.435457) scale(0.1 -0.1)">
      <defs>
       <path id="DejaVuSans-62" d="M 3116 1747 
Q 3116 2381 2855 2742 
Q 2594 3103 2138 3103 
Q 1681 3103 1420 2742 
Q 1159 2381 1159 1747 
Q 1159 1113 1420 752 
Q 1681 391 2138 391 
Q 2594 391 2855 752 
Q 3116 1113 3116 1747 
z
M 1159 2969 
Q 1341 3281 1617 3432 
Q 1894 3584 2278 3584 
Q 2916 3584 3314 3078 
Q 3713 2572 3713 1747 
Q 3713 922 3314 415 
Q 2916 -91 2278 -91 
Q 1894 -91 1617 61 
Q 1341 213 1159 525 
L 1159 0 
L 581 0 
L 581 4863 
L 1159 4863 
L 1159 2969 
z
" transform="scale(0.015625)"/>
       <path id="DejaVuSans-69" d="M 603 3500 
L 1178 3500 
L 1178 0 
L 603 0 
L 603 3500 
z
M 603 4863 
L 1178 4863 
L 1178 4134 
L 603 4134 
L 603 4863 
z
" transform="scale(0.015625)"/>
       <path id="DejaVuSans-72" d="M 2631 2963 
Q 2534 3019 2420 3045 
Q 2306 3072 2169 3072 
Q 1681 3072 1420 2755 
Q 1159 2438 1159 1844 
L 1159 0 
L 581 0 
L 581 3500 
L 1159 3500 
L 1159 2956 
Q 1341 3275 1631 3429 
Q 1922 3584 2338 3584 
Q 2397 3584 2469 3576 
Q 2541 3569 2628 3553 
L 2631 2963 
z
" transform="scale(0.015625)"/>
       <path id="DejaVuSans-74" d="M 1172 4494 
L 1172 3500 
L 2356 3500 
L 2356 3053 
L 1172 3053 
L 1172 1153 
Q 1172 725 1289 603 
Q 1406 481 1766 481 
L 2356 481 
L 2356 0 
L 1766 0 
Q 1100 0 847 248 
Q 594 497 594 1153 
L 594 3053 
L 172 3053 
L 172 3500 
L 594 3500 
L 594 4494 
L 1172 4494 
z
" transform="scale(0.015625)"/>
       <path id="DejaVuSans-68" d="M 3513 2113 
L 3513 0 
L 2938 0 
L 2938 2094 
Q 2938 2591 2744 2837 
Q 2550 3084 2163 3084 
Q 1697 3084 1428 2787 
Q 1159 2491 1159 1978 
L 1159 0 
L 581 0 
L 581 4863 
L 1159 4863 
L 1159 2956 
Q 1366 3272 1645 3428 
Q 1925 3584 2291 3584 
Q 2894 3584 3203 3211 
Q 3513 2838 3513 2113 
z
" transform="scale(0.015625)"/>
       <path id="DejaVuSans-5f" d="M 3263 -1063 
L 3263 -1509 
L -63 -1509 
L -63 -1063 
L 3263 -1063 
z
" transform="scale(0.015625)"/>
       <path id="DejaVuSans-6d" d="M 3328 2828 
Q 3544 3216 3844 3400 
Q 4144 3584 4550 3584 
Q 5097 3584 5394 3201 
Q 5691 2819 5691 2113 
L 5691 0 
L 5113 0 
L 5113 2094 
Q 5113 2597 4934 2840 
Q 4756 3084 4391 3084 
Q 3944 3084 3684 2787 
Q 3425 2491 3425 1978 
L 3425 0 
L 2847 0 
L 2847 2094 
Q 2847 2600 2669 2842 
Q 2491 3084 2119 3084 
Q 1678 3084 1418 2786 
Q 1159 2488 1159 1978 
L 1159 0 
L 581 0 
L 581 3500 
L 1159 3500 
L 1159 2956 
Q 1356 3278 1631 3431 
Q 1906 3584 2284 3584 
Q 2666 3584 2933 3390 
Q 3200 3197 3328 2828 
z
" transform="scale(0.015625)"/>
       <path id="DejaVuSans-65" d="M 3597 1894 
L 3597 1613 
L 953 1613 
Q 991 1019 1311 708 
Q 1631 397 2203 397 
Q 2534 397 2845 478 
Q 3156 559 3463 722 
L 3463 178 
Q 3153 47 2828 -22 
Q 2503 -91 2169 -91 
Q 1331 -91 842 396 
Q 353 884 353 1716 
Q 353 2575 817 3079 
Q 1281 3584 2069 3584 
Q 2775 3584 3186 3129 
Q 3597 2675 3597 1894 
z
M 3022 2063 
Q 3016 2534 2758 2815 
Q 2500 3097 2075 3097 
Q 1594 3097 1305 2825 
Q 1016 2553 972 2059 
L 3022 2063 
z
" transform="scale(0.015625)"/>
       <path id="DejaVuSans-20" transform="scale(0.015625)"/>
       <path id="DejaVuSans-5b" d="M 550 4863 
L 1875 4863 
L 1875 4416 
L 1125 4416 
L 1125 -397 
L 1875 -397 
L 1875 -844 
L 550 -844 
L 550 4863 
z
" transform="scale(0.015625)"/>
       <path id="DejaVuSans-b5" d="M 544 -1331 
L 544 3500 
L 1119 3500 
L 1119 1325 
Q 1119 872 1334 640 
Q 1550 409 1972 409 
Q 2434 409 2667 671 
Q 2900 934 2900 1459 
L 2900 3500 
L 3475 3500 
L 3475 806 
Q 3475 619 3529 530 
Q 3584 441 3700 441 
Q 3728 441 3778 458 
Q 3828 475 3916 513 
L 3916 50 
Q 3788 -22 3673 -56 
Q 3559 -91 3450 -91 
Q 3234 -91 3106 31 
Q 2978 153 2931 403 
Q 2775 156 2548 32 
Q 2322 -91 2016 -91 
Q 1697 -91 1473 31 
Q 1250 153 1119 397 
L 1119 -1331 
L 544 -1331 
z
" transform="scale(0.015625)"/>
       <path id="DejaVuSans-73" d="M 2834 3397 
L 2834 2853 
Q 2591 2978 2328 3040 
Q 2066 3103 1784 3103 
Q 1356 3103 1142 2972 
Q 928 2841 928 2578 
Q 928 2378 1081 2264 
Q 1234 2150 1697 2047 
L 1894 2003 
Q 2506 1872 2764 1633 
Q 3022 1394 3022 966 
Q 3022 478 2636 193 
Q 2250 -91 1575 -91 
Q 1294 -91 989 -36 
Q 684 19 347 128 
L 347 722 
Q 666 556 975 473 
Q 1284 391 1588 391 
Q 1994 391 2212 530 
Q 2431 669 2431 922 
Q 2431 1156 2273 1281 
Q 2116 1406 1581 1522 
L 1381 1569 
Q 847 1681 609 1914 
Q 372 2147 372 2553 
Q 372 3047 722 3315 
Q 1072 3584 1716 3584 
Q 2034 3584 2315 3537 
Q 2597 3491 2834 3397 
z
" transform="scale(0.015625)"/>
       <path id="DejaVuSans-5d" d="M 1947 4863 
L 1947 -844 
L 622 -844 
L 622 -397 
L 1369 -397 
L 1369 4416 
L 622 4416 
L 622 4863 
L 1947 4863 
z
" transform="scale(0.015625)"/>
      </defs>
      <use xlink:href="#DejaVuSans-62"/>
      <use xlink:href="#DejaVuSans-69" transform="translate(63.476562 0)"/>
      <use xlink:href="#DejaVuSans-72" transform="translate(91.259766 0)"/>
      <use xlink:href="#DejaVuSans-74" transform="translate(132.373047 0)"/>
      <use xlink:href="#DejaVuSans-68" transform="translate(171.582031 0)"/>
      <use xlink:href="#DejaVuSans-5f" transform="translate(234.960938 0)"/>
      <use xlink:href="#DejaVuSans-74" transform="translate(284.960938 0)"/>
      <use xlink:href="#DejaVuSans-69" transform="translate(324.169922 0)"/>
      <use xlink:href="#DejaVuSans-6d" transform="translate(351.953125 0)"/>
      <use xlink:href="#DejaVuSans-65" transform="translate(449.365234 0)"/>
      <use xlink:href="#DejaVuSans-20" transform="translate(510.888672 0)"/>
      <use xlink:href="#DejaVuSans-5b" transform="translate(542.675781 0)"/>
      <use xlink:href="#DejaVuSans-b5" transform="translate(581.689453 0)"/>
      <use xlink:href="#DejaVuSans-73" transform="translate(645.3125 0)"/>
      <use xlink:href="#DejaVuSans-5d" transform="translate(697.412109 0)"/>
     </g>
    </g>
   </g>
   <g id="matplotlib.axis_2">
    <g id="ytick_1">
     <g id="line2d_7">
      <defs>
       <path id="mdd15de82f9" d="M 0 0 
L -3.5 0 
" style="stroke: #000000; stroke-width: 0.8"/>
      </defs>
      <g>
       <use xlink:href="#mdd15de82f9" x="53.328125" y="245.797127" style="stroke: #000000; stroke-width: 0.8"/>
      </g>
     </g>
     <g id="text_8">
      <!-- 0 -->
      <g transform="translate(39.965625 249.596346) scale(0.1 -0.1)">
       <use xlink:href="#DejaVuSans-30"/>
      </g>
     </g>
    </g>
    <g id="ytick_2">
     <g id="line2d_8">
      <g>
       <use xlink:href="#mdd15de82f9" x="53.328125" y="208.48426" style="stroke: #000000; stroke-width: 0.8"/>
      </g>
     </g>
     <g id="text_9">
      <!-- 200 -->
      <g transform="translate(27.240625 212.283479) scale(0.1 -0.1)">
       <use xlink:href="#DejaVuSans-32"/>
       <use xlink:href="#DejaVuSans-30" transform="translate(63.623047 0)"/>
       <use xlink:href="#DejaVuSans-30" transform="translate(127.246094 0)"/>
      </g>
     </g>
    </g>
    <g id="ytick_3">
     <g id="line2d_9">
      <g>
       <use xlink:href="#mdd15de82f9" x="53.328125" y="171.171393" style="stroke: #000000; stroke-width: 0.8"/>
      </g>
     </g>
     <g id="text_10">
      <!-- 400 -->
      <g transform="translate(27.240625 174.970612) scale(0.1 -0.1)">
       <use xlink:href="#DejaVuSans-34"/>
       <use xlink:href="#DejaVuSans-30" transform="translate(63.623047 0)"/>
       <use xlink:href="#DejaVuSans-30" transform="translate(127.246094 0)"/>
      </g>
     </g>
    </g>
    <g id="ytick_4">
     <g id="line2d_10">
      <g>
       <use xlink:href="#mdd15de82f9" x="53.328125" y="133.858527" style="stroke: #000000; stroke-width: 0.8"/>
      </g>
     </g>
     <g id="text_11">
      <!-- 600 -->
      <g transform="translate(27.240625 137.657745) scale(0.1 -0.1)">
       <defs>
        <path id="DejaVuSans-36" d="M 2113 2584 
Q 1688 2584 1439 2293 
Q 1191 2003 1191 1497 
Q 1191 994 1439 701 
Q 1688 409 2113 409 
Q 2538 409 2786 701 
Q 3034 994 3034 1497 
Q 3034 2003 2786 2293 
Q 2538 2584 2113 2584 
z
M 3366 4563 
L 3366 3988 
Q 3128 4100 2886 4159 
Q 2644 4219 2406 4219 
Q 1781 4219 1451 3797 
Q 1122 3375 1075 2522 
Q 1259 2794 1537 2939 
Q 1816 3084 2150 3084 
Q 2853 3084 3261 2657 
Q 3669 2231 3669 1497 
Q 3669 778 3244 343 
Q 2819 -91 2113 -91 
Q 1303 -91 875 529 
Q 447 1150 447 2328 
Q 447 3434 972 4092 
Q 1497 4750 2381 4750 
Q 2619 4750 2861 4703 
Q 3103 4656 3366 4563 
z
" transform="scale(0.015625)"/>
       </defs>
       <use xlink:href="#DejaVuSans-36"/>
       <use xlink:href="#DejaVuSans-30" transform="translate(63.623047 0)"/>
       <use xlink:href="#DejaVuSans-30" transform="translate(127.246094 0)"/>
      </g>
     </g>
    </g>
    <g id="ytick_5">
     <g id="line2d_11">
      <g>
       <use xlink:href="#mdd15de82f9" x="53.328125" y="96.54566" style="stroke: #000000; stroke-width: 0.8"/>
      </g>
     </g>
     <g id="text_12">
      <!-- 800 -->
      <g transform="translate(27.240625 100.344878) scale(0.1 -0.1)">
       <defs>
        <path id="DejaVuSans-38" d="M 2034 2216 
Q 1584 2216 1326 1975 
Q 1069 1734 1069 1313 
Q 1069 891 1326 650 
Q 1584 409 2034 409 
Q 2484 409 2743 651 
Q 3003 894 3003 1313 
Q 3003 1734 2745 1975 
Q 2488 2216 2034 2216 
z
M 1403 2484 
Q 997 2584 770 2862 
Q 544 3141 544 3541 
Q 544 4100 942 4425 
Q 1341 4750 2034 4750 
Q 2731 4750 3128 4425 
Q 3525 4100 3525 3541 
Q 3525 3141 3298 2862 
Q 3072 2584 2669 2484 
Q 3125 2378 3379 2068 
Q 3634 1759 3634 1313 
Q 3634 634 3220 271 
Q 2806 -91 2034 -91 
Q 1263 -91 848 271 
Q 434 634 434 1313 
Q 434 1759 690 2068 
Q 947 2378 1403 2484 
z
M 1172 3481 
Q 1172 3119 1398 2916 
Q 1625 2713 2034 2713 
Q 2441 2713 2670 2916 
Q 2900 3119 2900 3481 
Q 2900 3844 2670 4047 
Q 2441 4250 2034 4250 
Q 1625 4250 1398 4047 
Q 1172 3844 1172 3481 
z
" transform="scale(0.015625)"/>
       </defs>
       <use xlink:href="#DejaVuSans-38"/>
       <use xlink:href="#DejaVuSans-30" transform="translate(63.623047 0)"/>
       <use xlink:href="#DejaVuSans-30" transform="translate(127.246094 0)"/>
      </g>
     </g>
    </g>
    <g id="ytick_6">
     <g id="line2d_12">
      <g>
       <use xlink:href="#mdd15de82f9" x="53.328125" y="59.232793" style="stroke: #000000; stroke-width: 0.8"/>
      </g>
     </g>
     <g id="text_13">
      <!-- 1000 -->
      <g transform="translate(20.878125 63.032012) scale(0.1 -0.1)">
       <use xlink:href="#DejaVuSans-31"/>
       <use xlink:href="#DejaVuSans-30" transform="translate(63.623047 0)"/>
       <use xlink:href="#DejaVuSans-30" transform="translate(127.246094 0)"/>
       <use xlink:href="#DejaVuSans-30" transform="translate(190.869141 0)"/>
      </g>
     </g>
    </g>
    <g id="ytick_7">
     <g id="line2d_13">
      <g>
       <use xlink:href="#mdd15de82f9" x="53.328125" y="21.919926" style="stroke: #000000; stroke-width: 0.8"/>
      </g>
     </g>
     <g id="text_14">
      <!-- 1200 -->
      <g transform="translate(20.878125 25.719145) scale(0.1 -0.1)">
       <use xlink:href="#DejaVuSans-31"/>
       <use xlink:href="#DejaVuSans-32" transform="translate(63.623047 0)"/>
       <use xlink:href="#DejaVuSans-30" transform="translate(127.246094 0)"/>
       <use xlink:href="#DejaVuSans-30" transform="translate(190.869141 0)"/>
      </g>
     </g>
    </g>
    <g id="text_15">
     <!-- [counts] -->
     <g transform="translate(14.798438 152.791947) rotate(-90) scale(0.1 -0.1)">
      <defs>
       <path id="DejaVuSans-63" d="M 3122 3366 
L 3122 2828 
Q 2878 2963 2633 3030 
Q 2388 3097 2138 3097 
Q 1578 3097 1268 2742 
Q 959 2388 959 1747 
Q 959 1106 1268 751 
Q 1578 397 2138 397 
Q 2388 397 2633 464 
Q 2878 531 3122 666 
L 3122 134 
Q 2881 22 2623 -34 
Q 2366 -91 2075 -91 
Q 1284 -91 818 406 
Q 353 903 353 1747 
Q 353 2603 823 3093 
Q 1294 3584 2113 3584 
Q 2378 3584 2631 3529 
Q 2884 3475 3122 3366 
z
" transform="scale(0.015625)"/>
       <path id="DejaVuSans-6f" d="M 1959 3097 
Q 1497 3097 1228 2736 
Q 959 2375 959 1747 
Q 959 1119 1226 758 
Q 1494 397 1959 397 
Q 2419 397 2687 759 
Q 2956 1122 2956 1747 
Q 2956 2369 2687 2733 
Q 2419 3097 1959 3097 
z
M 1959 3584 
Q 2709 3584 3137 3096 
Q 3566 2609 3566 1747 
Q 3566 888 3137 398 
Q 2709 -91 1959 -91 
Q 1206 -91 779 398 
Q 353 888 353 1747 
Q 353 2609 779 3096 
Q 1206 3584 1959 3584 
z
" transform="scale(0.015625)"/>
       <path id="DejaVuSans-75" d="M 544 1381 
L 544 3500 
L 1119 3500 
L 1119 1403 
Q 1119 906 1312 657 
Q 1506 409 1894 409 
Q 2359 409 2629 706 
Q 2900 1003 2900 1516 
L 2900 3500 
L 3475 3500 
L 3475 0 
L 2900 0 
L 2900 538 
Q 2691 219 2414 64 
Q 2138 -91 1772 -91 
Q 1169 -91 856 284 
Q 544 659 544 1381 
z
M 1991 3584 
L 1991 3584 
z
" transform="scale(0.015625)"/>
       <path id="DejaVuSans-6e" d="M 3513 2113 
L 3513 0 
L 2938 0 
L 2938 2094 
Q 2938 2591 2744 2837 
Q 2550 3084 2163 3084 
Q 1697 3084 1428 2787 
Q 1159 2491 1159 1978 
L 1159 0 
L 581 0 
L 581 3500 
L 1159 3500 
L 1159 2956 
Q 1366 3272 1645 3428 
Q 1925 3584 2291 3584 
Q 2894 3584 3203 3211 
Q 3513 2838 3513 2113 
z
" transform="scale(0.015625)"/>
      </defs>
      <use xlink:href="#DejaVuSans-5b"/>
      <use xlink:href="#DejaVuSans-63" transform="translate(39.013672 0)"/>
      <use xlink:href="#DejaVuSans-6f" transform="translate(93.994141 0)"/>
      <use xlink:href="#DejaVuSans-75" transform="translate(155.175781 0)"/>
      <use xlink:href="#DejaVuSans-6e" transform="translate(218.554688 0)"/>
      <use xlink:href="#DejaVuSans-74" transform="translate(281.933594 0)"/>
      <use xlink:href="#DejaVuSans-73" transform="translate(321.142578 0)"/>
      <use xlink:href="#DejaVuSans-5d" transform="translate(373.242188 0)"/>
     </g>
    </g>
   </g>
   <g id="line2d_14">
    <path d="M 69.749563 234.976396 
L 70.844325 234.976396 
L 70.844325 228.446644 
L 71.939088 228.446644 
L 71.939088 220.237813 
L 73.033851 220.237813 
L 73.033851 214.267755 
L 74.128613 214.267755 
L 74.128613 197.663529 
L 75.223376 197.663529 
L 75.223376 188.148748 
L 76.318138 188.148748 
L 76.318138 183.857768 
L 77.412901 183.857768 
L 77.412901 168.372928 
L 78.507663 168.372928 
L 78.507663 169.865443 
L 79.602426 169.865443 
L 79.602426 160.537226 
L 80.697188 160.537226 
L 80.697188 153.82091 
L 81.791951 153.82091 
L 81.791951 148.037416 
L 82.886713 148.037416 
L 82.886713 146.171773 
L 83.981476 146.171773 
L 83.981476 134.41822 
L 85.076238 134.41822 
L 85.076238 123.410924 
L 86.171001 123.410924 
L 86.171001 129.380982 
L 87.265763 129.380982 
L 87.265763 111.097678 
L 88.360526 111.097678 
L 88.360526 114.269271 
L 89.455288 114.269271 
L 89.455288 110.911113 
L 90.550051 110.911113 
L 90.550051 99.530689 
L 91.644814 99.530689 
L 91.644814 98.597867 
L 92.739576 98.597867 
L 92.739576 104.008233 
L 93.834339 104.008233 
L 93.834339 93.933759 
L 94.929101 93.933759 
L 94.929101 90.389037 
L 96.023864 90.389037 
L 96.023864 91.508423 
L 97.118626 91.508423 
L 97.118626 80.874256 
L 98.213389 80.874256 
L 98.213389 86.65775 
L 99.308151 86.65775 
L 99.308151 81.993642 
L 100.402914 81.993642 
L 100.402914 73.411682 
L 101.497676 73.411682 
L 101.497676 68.934138 
L 103.687201 68.934138 
L 103.687201 55.314942 
L 104.781964 55.314942 
L 104.781964 60.165614 
L 105.876726 60.165614 
L 105.876726 68.747574 
L 106.971489 68.747574 
L 106.971489 49.718012 
L 108.066252 49.718012 
L 108.066252 63.523773 
L 109.161014 63.523773 
L 109.161014 52.889605 
L 110.255777 52.889605 
L 110.255777 57.740278 
L 111.350539 57.740278 
L 111.350539 50.464269 
L 112.445302 50.464269 
L 112.445302 60.725307 
L 113.540064 60.725307 
L 113.540064 51.023962 
L 114.634827 51.023962 
L 114.634827 56.807456 
L 115.729589 56.807456 
L 115.729589 54.755249 
L 116.824352 54.755249 
L 116.824352 43.934517 
L 117.919114 43.934517 
L 117.919114 44.307646 
L 119.013877 44.307646 
L 119.013877 49.531447 
L 120.108639 49.531447 
L 120.108639 48.225497 
L 121.203402 48.225497 
L 121.203402 45.240468 
L 122.298164 45.240468 
L 122.298164 59.605921 
L 123.392927 59.605921 
L 123.392927 44.121082 
L 124.487689 44.121082 
L 124.487689 39.456973 
L 125.582452 39.456973 
L 125.582452 38.710716 
L 126.677215 38.710716 
L 126.677215 27.70342 
L 127.771977 27.70342 
L 127.771977 44.307646 
L 128.86674 44.307646 
L 128.86674 45.986725 
L 129.961502 45.986725 
L 129.961502 49.531447 
L 131.056265 49.531447 
L 131.056265 40.389795 
L 132.151027 40.389795 
L 132.151027 39.083845 
L 133.24579 39.083845 
L 133.24579 46.173289 
L 134.340552 46.173289 
L 134.340552 31.434707 
L 135.435315 31.434707 
L 135.435315 41.322617 
L 136.530077 41.322617 
L 136.530077 28.636242 
L 137.62484 28.636242 
L 137.62484 27.516856 
L 138.719602 27.516856 
L 138.719602 37.404766 
L 139.814365 37.404766 
L 139.814365 20.987104 
L 140.909127 20.987104 
L 140.909127 38.524152 
L 142.00389 38.524152 
L 142.00389 30.68845 
L 143.098652 30.68845 
L 143.098652 21.360233 
L 144.193415 21.360233 
L 144.193415 39.830102 
L 145.288178 39.830102 
L 145.288178 44.307646 
L 146.38294 44.307646 
L 146.38294 35.352558 
L 147.477703 35.352558 
L 147.477703 31.061578 
L 148.572465 31.061578 
L 148.572465 34.233172 
L 149.667228 34.233172 
L 149.667228 30.315321 
L 150.76199 30.315321 
L 150.76199 20.240847 
L 151.856753 20.240847 
L 151.856753 34.233172 
L 152.951515 34.233172 
L 152.951515 34.046608 
L 154.046278 34.046608 
L 154.046278 30.128757 
L 155.14104 30.128757 
L 155.14104 33.486915 
L 156.235803 33.486915 
L 156.235803 24.718391 
L 157.330565 24.718391 
L 157.330565 45.427032 
L 158.425328 45.427032 
L 158.425328 35.352558 
L 159.52009 35.352558 
L 159.52009 34.233172 
L 160.614853 34.233172 
L 160.614853 38.524152 
L 161.709615 38.524152 
L 161.709615 35.539122 
L 162.804378 35.539122 
L 162.804378 23.785569 
L 163.899141 23.785569 
L 163.899141 26.957163 
L 164.993903 26.957163 
L 164.993903 33.673479 
L 166.088666 33.673479 
L 166.088666 22.479619 
L 167.183428 22.479619 
L 167.183428 47.106111 
L 168.278191 47.106111 
L 168.278191 27.516856 
L 169.372953 27.516856 
L 169.372953 23.039312 
L 170.467716 23.039312 
L 170.467716 18.561768 
L 171.562478 18.561768 
L 171.562478 37.218201 
L 172.657241 37.218201 
L 172.657241 24.718391 
L 173.752003 24.718391 
L 173.752003 22.479619 
L 174.846766 22.479619 
L 174.846766 26.957163 
L 175.941528 26.957163 
L 175.941528 31.434707 
L 177.036291 31.434707 
L 177.036291 29.569064 
L 178.131053 29.569064 
L 178.131053 22.479619 
L 179.225816 22.479619 
L 179.225816 21.919926 
L 180.320579 21.919926 
L 180.320579 30.128757 
L 181.415341 30.128757 
L 181.415341 19.49459 
L 182.510104 19.49459 
L 182.510104 42.068874 
L 183.604866 42.068874 
L 183.604866 25.278084 
L 184.699629 25.278084 
L 184.699629 30.875014 
L 185.794391 30.875014 
L 185.794391 22.666183 
L 186.889154 22.666183 
L 186.889154 26.024341 
L 187.983916 26.024341 
L 187.983916 27.143727 
L 189.078679 27.143727 
L 189.078679 32.367529 
L 190.173441 32.367529 
L 190.173441 36.098815 
L 191.268204 36.098815 
L 191.268204 44.49421 
L 192.362966 44.49421 
L 192.362966 29.569064 
L 193.457729 29.569064 
L 193.457729 43.747953 
L 194.552491 43.747953 
L 194.552491 22.10649 
L 195.647254 22.10649 
L 195.647254 23.039312 
L 196.742016 23.039312 
L 196.742016 21.546797 
L 197.836779 21.546797 
L 197.836779 29.382499 
L 198.931542 29.382499 
L 198.931542 30.501885 
L 200.026304 30.501885 
L 200.026304 45.613596 
L 201.121067 45.613596 
L 201.121067 42.442003 
L 202.215829 42.442003 
L 202.215829 26.39747 
L 203.310592 26.39747 
L 203.310592 42.255438 
L 204.405354 42.255438 
L 204.405354 29.009371 
L 205.500117 29.009371 
L 205.500117 37.777894 
L 206.594879 37.777894 
L 206.594879 26.39747 
L 207.689642 26.39747 
L 207.689642 29.009371 
L 208.784404 29.009371 
L 208.784404 19.308025 
L 209.879167 19.308025 
L 209.879167 29.382499 
L 210.973929 29.382499 
L 210.973929 30.68845 
L 212.068692 30.68845 
L 212.068692 24.718391 
L 213.163454 24.718391 
L 213.163454 30.315321 
L 214.258217 30.315321 
L 214.258217 32.927222 
L 215.352979 32.927222 
L 215.352979 36.28538 
L 216.447742 36.28538 
L 216.447742 31.061578 
L 217.542505 31.061578 
L 217.542505 48.038933 
L 218.637267 48.038933 
L 218.637267 26.024341 
L 220.826792 26.024341 
L 220.826792 27.889985 
L 221.921555 27.889985 
L 221.921555 23.225876 
L 223.016317 23.225876 
L 223.016317 32.180964 
L 224.11108 32.180964 
L 224.11108 36.471944 
L 225.205842 36.471944 
L 225.205842 25.278084 
L 226.300605 25.278084 
L 226.300605 34.046608 
L 227.395367 34.046608 
L 227.395367 30.875014 
L 228.49013 30.875014 
L 228.49013 36.098815 
L 229.584892 36.098815 
L 229.584892 26.024341 
L 230.679655 26.024341 
L 230.679655 33.30035 
L 231.774417 33.30035 
L 231.774417 23.785569 
L 232.86918 23.785569 
L 232.86918 29.755628 
L 233.963942 29.755628 
L 233.963942 23.785569 
L 235.058705 23.785569 
L 235.058705 23.039312 
L 236.153468 23.039312 
L 236.153468 28.076549 
L 237.24823 28.076549 
L 237.24823 34.233172 
L 238.342993 34.233172 
L 238.342993 27.889985 
L 239.437755 27.889985 
L 239.437755 22.10649 
L 240.532518 22.10649 
L 240.532518 31.807836 
L 241.62728 31.807836 
L 241.62728 40.203231 
L 242.722043 40.203231 
L 242.722043 26.957163 
L 243.816805 26.957163 
L 243.816805 31.248143 
L 244.911568 31.248143 
L 244.911568 26.39747 
L 246.00633 26.39747 
L 246.00633 44.680775 
L 247.101093 44.680775 
L 247.101093 27.330292 
L 248.195855 27.330292 
L 248.195855 32.927222 
L 249.290618 32.927222 
L 249.290618 19.867718 
L 250.38538 19.867718 
L 250.38538 29.942192 
L 251.480143 29.942192 
L 251.480143 23.785569 
L 252.574906 23.785569 
L 252.574906 30.875014 
L 253.669668 30.875014 
L 253.669668 26.024341 
L 254.764431 26.024341 
L 254.764431 28.822806 
L 255.859193 28.822806 
L 255.859193 36.471944 
L 256.953956 36.471944 
L 256.953956 29.569064 
L 258.048718 29.569064 
L 258.048718 32.554093 
L 259.143481 32.554093 
L 259.143481 46.546418 
L 260.238243 46.546418 
L 260.238243 49.344883 
L 261.333006 49.344883 
L 261.333006 69.86696 
L 262.427768 69.86696 
L 262.427768 77.516098 
L 263.522531 77.516098 
L 263.522531 68.374445 
L 264.617293 68.374445 
L 264.617293 87.404007 
L 265.712056 87.404007 
L 265.712056 99.903818 
L 266.806818 99.903818 
L 266.806818 113.896143 
L 267.901581 113.896143 
L 267.901581 111.843935 
L 268.996343 111.843935 
L 268.996343 116.694608 
L 270.091106 116.694608 
L 270.091106 130.500368 
L 271.185869 130.500368 
L 271.185869 133.858527 
L 272.280631 133.858527 
L 272.280631 139.455457 
L 273.375394 139.455457 
L 273.375394 147.664287 
L 274.470156 147.664287 
L 274.470156 155.686554 
L 275.564919 155.686554 
L 275.564919 161.470048 
L 276.659681 161.470048 
L 276.659681 154.940296 
L 277.754444 154.940296 
L 277.754444 164.828206 
L 278.849206 164.828206 
L 278.849206 171.917651 
L 279.943969 171.917651 
L 279.943969 177.701145 
L 281.038731 177.701145 
L 281.038731 176.954888 
L 282.133494 176.954888 
L 282.133494 174.716116 
L 283.228256 174.716116 
L 283.228256 178.820531 
L 284.323019 178.820531 
L 284.323019 184.044332 
L 285.417781 184.044332 
L 285.417781 195.238192 
L 286.512544 195.238192 
L 286.512544 192.99942 
L 287.607306 192.99942 
L 287.607306 186.09654 
L 288.702069 186.09654 
L 288.702069 198.223222 
L 289.796832 198.223222 
L 289.796832 198.782915 
L 290.891594 198.782915 
L 290.891594 207.17831 
L 291.986357 207.17831 
L 291.986357 207.924567 
L 293.081119 207.924567 
L 293.081119 213.894626 
L 294.175882 213.894626 
L 294.175882 210.163339 
L 295.270644 210.163339 
L 295.270644 214.08119 
L 296.365407 214.08119 
L 296.365407 214.454319 
L 297.460169 214.454319 
L 297.460169 215.387141 
L 298.554932 215.387141 
L 298.554932 221.730328 
L 299.649694 221.730328 
L 299.649694 222.66315 
L 300.744457 222.66315 
L 300.744457 217.439348 
L 301.839219 217.439348 
L 301.839219 222.103457 
L 302.933982 222.103457 
L 302.933982 217.625913 
L 304.028744 217.625913 
L 304.028744 225.088486 
L 305.123507 225.088486 
L 305.123507 226.207872 
L 306.218269 226.207872 
L 306.218269 224.155664 
L 307.313032 224.155664 
L 307.313032 224.901922 
L 308.407795 224.901922 
L 308.407795 226.207872 
L 309.502557 226.207872 
L 309.502557 232.177931 
L 310.59732 232.177931 
L 310.59732 229.56603 
L 311.692082 229.56603 
L 311.692082 231.804802 
L 312.786845 231.804802 
L 312.786845 231.431673 
L 313.881607 231.431673 
L 313.881607 232.924188 
L 314.97637 232.924188 
L 314.97637 233.85701 
L 316.071132 233.85701 
L 316.071132 237.215168 
L 317.165895 237.215168 
L 317.165895 233.483881 
L 318.260657 233.483881 
L 318.260657 234.976396 
L 319.35542 234.976396 
L 319.35542 235.722653 
L 320.450182 235.722653 
L 320.450182 234.230138 
L 321.544945 234.230138 
L 321.544945 235.909217 
L 322.639707 235.909217 
L 322.639707 235.722653 
L 323.73447 235.722653 
L 323.73447 237.774861 
L 324.829233 237.774861 
L 324.829233 238.521118 
L 325.923995 238.521118 
L 325.923995 237.961425 
L 327.018758 237.961425 
L 327.018758 239.827068 
L 328.11352 239.827068 
L 328.11352 239.45394 
L 329.208283 239.45394 
L 329.208283 236.842039 
L 330.303045 236.842039 
L 330.303045 240.386761 
L 331.397808 240.386761 
L 331.397808 240.946454 
L 332.49257 240.946454 
L 332.49257 242.06584 
L 333.587333 242.06584 
L 333.587333 241.692712 
L 334.682095 241.692712 
L 334.682095 240.386761 
L 335.776858 240.386761 
L 335.776858 241.692712 
L 336.87162 241.692712 
L 336.87162 240.946454 
L 337.966383 240.946454 
L 337.966383 242.252405 
L 339.061145 242.252405 
L 339.061145 241.692712 
L 340.155908 241.692712 
L 340.155908 242.06584 
L 341.25067 242.06584 
L 341.25067 241.319583 
L 342.345433 241.319583 
L 342.345433 243.185226 
L 343.440196 243.185226 
L 343.440196 242.438969 
L 344.534958 242.438969 
L 344.534958 243.558355 
L 345.629721 243.558355 
L 345.629721 242.812098 
L 346.724483 242.812098 
L 346.724483 243.558355 
L 347.819246 243.558355 
L 347.819246 242.438969 
L 348.914008 242.438969 
L 348.914008 242.625533 
L 350.008771 242.625533 
L 350.008771 243.185226 
L 351.103533 243.185226 
L 351.103533 243.371791 
L 352.198296 243.371791 
L 352.198296 242.812098 
L 353.293058 242.812098 
L 353.293058 243.744919 
L 354.387821 243.744919 
L 354.387821 242.252405 
L 355.482583 242.252405 
L 355.482583 243.744919 
L 356.577346 243.744919 
L 356.577346 244.864305 
L 357.672108 244.864305 
L 357.672108 243.744919 
L 358.766871 243.744919 
L 358.766871 244.677741 
L 359.861633 244.677741 
L 359.861633 243.371791 
L 360.956396 243.371791 
L 360.956396 244.864305 
L 362.051159 244.864305 
L 362.051159 244.118048 
L 363.145921 244.118048 
L 363.145921 245.05087 
L 364.240684 245.05087 
L 364.240684 244.677741 
L 365.335446 244.677741 
L 365.335446 245.237434 
L 366.430209 245.237434 
L 366.430209 244.864305 
L 367.524971 244.864305 
L 367.524971 244.677741 
L 368.619734 244.677741 
L 368.619734 245.05087 
L 370.809259 245.05087 
L 370.809259 244.864305 
L 371.904021 244.864305 
L 371.904021 245.423998 
L 372.998784 245.423998 
L 372.998784 245.237434 
L 374.093546 245.237434 
L 374.093546 245.05087 
L 375.188309 245.05087 
L 375.188309 244.304612 
L 376.283071 244.304612 
L 376.283071 245.05087 
L 377.377834 245.05087 
L 377.377834 245.423998 
L 380.662122 245.423998 
L 380.662122 245.610563 
L 381.756884 245.610563 
L 381.756884 245.05087 
L 382.851647 245.05087 
L 382.851647 245.610563 
L 383.946409 245.610563 
L 383.946409 245.237434 
L 385.041172 245.237434 
L 385.041172 245.610563 
L 386.135934 245.610563 
L 386.135934 245.237434 
L 387.230697 245.237434 
L 387.230697 245.797127 
L 389.420222 245.797127 
L 389.420222 245.610563 
L 390.514984 245.610563 
L 390.514984 245.423998 
L 391.609747 245.423998 
L 391.609747 245.610563 
L 393.799272 245.610563 
L 393.799272 245.423998 
L 395.988797 245.423998 
L 395.988797 245.610563 
L 397.08356 245.610563 
L 397.08356 244.677741 
L 398.178322 244.677741 
L 398.178322 244.677741 
" clip-path="url(#p3cde799354)" style="fill: none; stroke: #1f77b4; stroke-width: 1.5; stroke-linecap: square"/>
   </g>
   <g id="patch_3">
    <path d="M 53.328125 257.158895 
L 53.328125 7.2 
" style="fill: none; stroke: #000000; stroke-width: 0.8; stroke-linejoin: miter; stroke-linecap: square"/>
   </g>
   <g id="patch_4">
    <path d="M 414.59976 257.158895 
L 414.59976 7.2 
" style="fill: none; stroke: #000000; stroke-width: 0.8; stroke-linejoin: miter; stroke-linecap: square"/>
   </g>
   <g id="patch_5">
    <path d="M 53.328125 257.158895 
L 414.59976 257.158895 
" style="fill: none; stroke: #000000; stroke-width: 0.8; stroke-linejoin: miter; stroke-linecap: square"/>
   </g>
   <g id="patch_6">
    <path d="M 53.328125 7.2 
L 414.59976 7.2 
" style="fill: none; stroke: #000000; stroke-width: 0.8; stroke-linejoin: miter; stroke-linecap: square"/>
   </g>
  </g>
  <g id="axes_2">
   <g id="patch_7">
    <path d="M 503.927885 257.158895 
L 865.19952 257.158895 
L 865.19952 7.2 
L 503.927885 7.2 
z
" style="fill: #ffffff"/>
   </g>
   <g id="matplotlib.axis_3">
    <g id="xtick_7">
     <g id="line2d_15">
      <g>
       <use xlink:href="#meee507e728" x="517.037102" y="257.158895" style="stroke: #000000; stroke-width: 0.8"/>
      </g>
     </g>
     <g id="text_16">
      <!-- 0.0 -->
      <g transform="translate(509.08554 271.757332) scale(0.1 -0.1)">
       <defs>
        <path id="DejaVuSans-2e" d="M 684 794 
L 1344 794 
L 1344 0 
L 684 0 
L 684 794 
z
" transform="scale(0.015625)"/>
       </defs>
       <use xlink:href="#DejaVuSans-30"/>
       <use xlink:href="#DejaVuSans-2e" transform="translate(63.623047 0)"/>
       <use xlink:href="#DejaVuSans-30" transform="translate(95.410156 0)"/>
      </g>
     </g>
    </g>
    <g id="xtick_8">
     <g id="line2d_16">
      <g>
       <use xlink:href="#meee507e728" x="558.747241" y="257.158895" style="stroke: #000000; stroke-width: 0.8"/>
      </g>
     </g>
     <g id="text_17">
      <!-- 2.5 -->
      <g transform="translate(550.795678 271.757332) scale(0.1 -0.1)">
       <use xlink:href="#DejaVuSans-32"/>
       <use xlink:href="#DejaVuSans-2e" transform="translate(63.623047 0)"/>
       <use xlink:href="#DejaVuSans-35" transform="translate(95.410156 0)"/>
      </g>
     </g>
    </g>
    <g id="xtick_9">
     <g id="line2d_17">
      <g>
       <use xlink:href="#meee507e728" x="600.457379" y="257.158895" style="stroke: #000000; stroke-width: 0.8"/>
      </g>
     </g>
     <g id="text_18">
      <!-- 5.0 -->
      <g transform="translate(592.505817 271.757332) scale(0.1 -0.1)">
       <use xlink:href="#DejaVuSans-35"/>
       <use xlink:href="#DejaVuSans-2e" transform="translate(63.623047 0)"/>
       <use xlink:href="#DejaVuSans-30" transform="translate(95.410156 0)"/>
      </g>
     </g>
    </g>
    <g id="xtick_10">
     <g id="line2d_18">
      <g>
       <use xlink:href="#meee507e728" x="642.167518" y="257.158895" style="stroke: #000000; stroke-width: 0.8"/>
      </g>
     </g>
     <g id="text_19">
      <!-- 7.5 -->
      <g transform="translate(634.215956 271.757332) scale(0.1 -0.1)">
       <defs>
        <path id="DejaVuSans-37" d="M 525 4666 
L 3525 4666 
L 3525 4397 
L 1831 0 
L 1172 0 
L 2766 4134 
L 525 4134 
L 525 4666 
z
" transform="scale(0.015625)"/>
       </defs>
       <use xlink:href="#DejaVuSans-37"/>
       <use xlink:href="#DejaVuSans-2e" transform="translate(63.623047 0)"/>
       <use xlink:href="#DejaVuSans-35" transform="translate(95.410156 0)"/>
      </g>
     </g>
    </g>
    <g id="xtick_11">
     <g id="line2d_19">
      <g>
       <use xlink:href="#meee507e728" x="683.877657" y="257.158895" style="stroke: #000000; stroke-width: 0.8"/>
      </g>
     </g>
     <g id="text_20">
      <!-- 10.0 -->
      <g transform="translate(672.744844 271.757332) scale(0.1 -0.1)">
       <use xlink:href="#DejaVuSans-31"/>
       <use xlink:href="#DejaVuSans-30" transform="translate(63.623047 0)"/>
       <use xlink:href="#DejaVuSans-2e" transform="translate(127.246094 0)"/>
       <use xlink:href="#DejaVuSans-30" transform="translate(159.033203 0)"/>
      </g>
     </g>
    </g>
    <g id="xtick_12">
     <g id="line2d_20">
      <g>
       <use xlink:href="#meee507e728" x="725.587796" y="257.158895" style="stroke: #000000; stroke-width: 0.8"/>
      </g>
     </g>
     <g id="text_21">
      <!-- 12.5 -->
      <g transform="translate(714.454983 271.757332) scale(0.1 -0.1)">
       <use xlink:href="#DejaVuSans-31"/>
       <use xlink:href="#DejaVuSans-32" transform="translate(63.623047 0)"/>
       <use xlink:href="#DejaVuSans-2e" transform="translate(127.246094 0)"/>
       <use xlink:href="#DejaVuSans-35" transform="translate(159.033203 0)"/>
      </g>
     </g>
    </g>
    <g id="xtick_13">
     <g id="line2d_21">
      <g>
       <use xlink:href="#meee507e728" x="767.297934" y="257.158895" style="stroke: #000000; stroke-width: 0.8"/>
      </g>
     </g>
     <g id="text_22">
      <!-- 15.0 -->
      <g transform="translate(756.165122 271.757332) scale(0.1 -0.1)">
       <use xlink:href="#DejaVuSans-31"/>
       <use xlink:href="#DejaVuSans-35" transform="translate(63.623047 0)"/>
       <use xlink:href="#DejaVuSans-2e" transform="translate(127.246094 0)"/>
       <use xlink:href="#DejaVuSans-30" transform="translate(159.033203 0)"/>
      </g>
     </g>
    </g>
    <g id="xtick_14">
     <g id="line2d_22">
      <g>
       <use xlink:href="#meee507e728" x="809.008073" y="257.158895" style="stroke: #000000; stroke-width: 0.8"/>
      </g>
     </g>
     <g id="text_23">
      <!-- 17.5 -->
      <g transform="translate(797.875261 271.757332) scale(0.1 -0.1)">
       <use xlink:href="#DejaVuSans-31"/>
       <use xlink:href="#DejaVuSans-37" transform="translate(63.623047 0)"/>
       <use xlink:href="#DejaVuSans-2e" transform="translate(127.246094 0)"/>
       <use xlink:href="#DejaVuSans-35" transform="translate(159.033203 0)"/>
      </g>
     </g>
    </g>
    <g id="xtick_15">
     <g id="line2d_23">
      <g>
       <use xlink:href="#meee507e728" x="850.718212" y="257.158895" style="stroke: #000000; stroke-width: 0.8"/>
      </g>
     </g>
     <g id="text_24">
      <!-- 20.0 -->
      <g transform="translate(839.585399 271.757332) scale(0.1 -0.1)">
       <use xlink:href="#DejaVuSans-32"/>
       <use xlink:href="#DejaVuSans-30" transform="translate(63.623047 0)"/>
       <use xlink:href="#DejaVuSans-2e" transform="translate(127.246094 0)"/>
       <use xlink:href="#DejaVuSans-30" transform="translate(159.033203 0)"/>
      </g>
     </g>
    </g>
    <g id="text_25">
     <!-- wavelength [Å] -->
     <g transform="translate(646.526202 287.119832) scale(0.1 -0.1)">
      <defs>
       <path id="DejaVuSans-77" d="M 269 3500 
L 844 3500 
L 1563 769 
L 2278 3500 
L 2956 3500 
L 3675 769 
L 4391 3500 
L 4966 3500 
L 4050 0 
L 3372 0 
L 2619 2869 
L 1863 0 
L 1184 0 
L 269 3500 
z
" transform="scale(0.015625)"/>
       <path id="DejaVuSans-61" d="M 2194 1759 
Q 1497 1759 1228 1600 
Q 959 1441 959 1056 
Q 959 750 1161 570 
Q 1363 391 1709 391 
Q 2188 391 2477 730 
Q 2766 1069 2766 1631 
L 2766 1759 
L 2194 1759 
z
M 3341 1997 
L 3341 0 
L 2766 0 
L 2766 531 
Q 2569 213 2275 61 
Q 1981 -91 1556 -91 
Q 1019 -91 701 211 
Q 384 513 384 1019 
Q 384 1609 779 1909 
Q 1175 2209 1959 2209 
L 2766 2209 
L 2766 2266 
Q 2766 2663 2505 2880 
Q 2244 3097 1772 3097 
Q 1472 3097 1187 3025 
Q 903 2953 641 2809 
L 641 3341 
Q 956 3463 1253 3523 
Q 1550 3584 1831 3584 
Q 2591 3584 2966 3190 
Q 3341 2797 3341 1997 
z
" transform="scale(0.015625)"/>
       <path id="DejaVuSans-76" d="M 191 3500 
L 800 3500 
L 1894 563 
L 2988 3500 
L 3597 3500 
L 2284 0 
L 1503 0 
L 191 3500 
z
" transform="scale(0.015625)"/>
       <path id="DejaVuSans-6c" d="M 603 4863 
L 1178 4863 
L 1178 0 
L 603 0 
L 603 4863 
z
" transform="scale(0.015625)"/>
       <path id="DejaVuSans-67" d="M 2906 1791 
Q 2906 2416 2648 2759 
Q 2391 3103 1925 3103 
Q 1463 3103 1205 2759 
Q 947 2416 947 1791 
Q 947 1169 1205 825 
Q 1463 481 1925 481 
Q 2391 481 2648 825 
Q 2906 1169 2906 1791 
z
M 3481 434 
Q 3481 -459 3084 -895 
Q 2688 -1331 1869 -1331 
Q 1566 -1331 1297 -1286 
Q 1028 -1241 775 -1147 
L 775 -588 
Q 1028 -725 1275 -790 
Q 1522 -856 1778 -856 
Q 2344 -856 2625 -561 
Q 2906 -266 2906 331 
L 2906 616 
Q 2728 306 2450 153 
Q 2172 0 1784 0 
Q 1141 0 747 490 
Q 353 981 353 1791 
Q 353 2603 747 3093 
Q 1141 3584 1784 3584 
Q 2172 3584 2450 3431 
Q 2728 3278 2906 2969 
L 2906 3500 
L 3481 3500 
L 3481 434 
z
" transform="scale(0.015625)"/>
       <path id="DejaVuSans-c5" d="M 2663 5081 
Q 2663 5278 2523 5417 
Q 2384 5556 2188 5556 
Q 1988 5556 1852 5420 
Q 1716 5284 1716 5081 
Q 1716 4884 1853 4746 
Q 1991 4609 2188 4609 
Q 2384 4609 2523 4746 
Q 2663 4884 2663 5081 
z
M 2188 4044 
L 1338 1722 
L 3041 1722 
L 2188 4044 
z
M 1716 4366 
Q 1525 4494 1428 4673 
Q 1331 4853 1331 5081 
Q 1331 5441 1579 5691 
Q 1828 5941 2188 5941 
Q 2544 5941 2795 5689 
Q 3047 5438 3047 5081 
Q 3047 4863 2948 4678 
Q 2850 4494 2663 4366 
L 4325 0 
L 3669 0 
L 3244 1197 
L 1141 1197 
L 716 0 
L 50 0 
L 1716 4366 
z
" transform="scale(0.015625)"/>
      </defs>
      <use xlink:href="#DejaVuSans-77"/>
      <use xlink:href="#DejaVuSans-61" transform="translate(81.787109 0)"/>
      <use xlink:href="#DejaVuSans-76" transform="translate(143.066406 0)"/>
      <use xlink:href="#DejaVuSans-65" transform="translate(202.246094 0)"/>
      <use xlink:href="#DejaVuSans-6c" transform="translate(263.769531 0)"/>
      <use xlink:href="#DejaVuSans-65" transform="translate(291.552734 0)"/>
      <use xlink:href="#DejaVuSans-6e" transform="translate(353.076172 0)"/>
      <use xlink:href="#DejaVuSans-67" transform="translate(416.455078 0)"/>
      <use xlink:href="#DejaVuSans-74" transform="translate(479.931641 0)"/>
      <use xlink:href="#DejaVuSans-68" transform="translate(519.140625 0)"/>
      <use xlink:href="#DejaVuSans-20" transform="translate(582.519531 0)"/>
      <use xlink:href="#DejaVuSans-5b" transform="translate(614.306641 0)"/>
      <use xlink:href="#DejaVuSans-c5" transform="translate(653.320312 0)"/>
      <use xlink:href="#DejaVuSans-5d" transform="translate(721.728516 0)"/>
     </g>
    </g>
   </g>
   <g id="matplotlib.axis_4">
    <g id="ytick_8">
     <g id="line2d_24">
      <g>
       <use xlink:href="#mdd15de82f9" x="503.927885" y="245.797127" style="stroke: #000000; stroke-width: 0.8"/>
      </g>
     </g>
     <g id="text_26">
      <!-- 0 -->
      <g transform="translate(490.565385 249.596346) scale(0.1 -0.1)">
       <use xlink:href="#DejaVuSans-30"/>
      </g>
     </g>
    </g>
    <g id="ytick_9">
     <g id="line2d_25">
      <g>
       <use xlink:href="#mdd15de82f9" x="503.927885" y="192.355133" style="stroke: #000000; stroke-width: 0.8"/>
      </g>
     </g>
     <g id="text_27">
      <!-- 1000 -->
      <g transform="translate(471.477885 196.154352) scale(0.1 -0.1)">
       <use xlink:href="#DejaVuSans-31"/>
       <use xlink:href="#DejaVuSans-30" transform="translate(63.623047 0)"/>
       <use xlink:href="#DejaVuSans-30" transform="translate(127.246094 0)"/>
       <use xlink:href="#DejaVuSans-30" transform="translate(190.869141 0)"/>
      </g>
     </g>
    </g>
    <g id="ytick_10">
     <g id="line2d_26">
      <g>
       <use xlink:href="#mdd15de82f9" x="503.927885" y="138.913139" style="stroke: #000000; stroke-width: 0.8"/>
      </g>
     </g>
     <g id="text_28">
      <!-- 2000 -->
      <g transform="translate(471.477885 142.712358) scale(0.1 -0.1)">
       <use xlink:href="#DejaVuSans-32"/>
       <use xlink:href="#DejaVuSans-30" transform="translate(63.623047 0)"/>
       <use xlink:href="#DejaVuSans-30" transform="translate(127.246094 0)"/>
       <use xlink:href="#DejaVuSans-30" transform="translate(190.869141 0)"/>
      </g>
     </g>
    </g>
    <g id="ytick_11">
     <g id="line2d_27">
      <g>
       <use xlink:href="#mdd15de82f9" x="503.927885" y="85.471145" style="stroke: #000000; stroke-width: 0.8"/>
      </g>
     </g>
     <g id="text_29">
      <!-- 3000 -->
      <g transform="translate(471.477885 89.270363) scale(0.1 -0.1)">
       <use xlink:href="#DejaVuSans-33"/>
       <use xlink:href="#DejaVuSans-30" transform="translate(63.623047 0)"/>
       <use xlink:href="#DejaVuSans-30" transform="translate(127.246094 0)"/>
       <use xlink:href="#DejaVuSans-30" transform="translate(190.869141 0)"/>
      </g>
     </g>
    </g>
    <g id="ytick_12">
     <g id="line2d_28">
      <g>
       <use xlink:href="#mdd15de82f9" x="503.927885" y="32.02915" style="stroke: #000000; stroke-width: 0.8"/>
      </g>
     </g>
     <g id="text_30">
      <!-- 4000 -->
      <g transform="translate(471.477885 35.828369) scale(0.1 -0.1)">
       <use xlink:href="#DejaVuSans-34"/>
       <use xlink:href="#DejaVuSans-30" transform="translate(63.623047 0)"/>
       <use xlink:href="#DejaVuSans-30" transform="translate(127.246094 0)"/>
       <use xlink:href="#DejaVuSans-30" transform="translate(190.869141 0)"/>
      </g>
     </g>
    </g>
    <g id="text_31">
     <!-- [counts] -->
     <g transform="translate(465.398197 152.791947) rotate(-90) scale(0.1 -0.1)">
      <use xlink:href="#DejaVuSans-5b"/>
      <use xlink:href="#DejaVuSans-63" transform="translate(39.013672 0)"/>
      <use xlink:href="#DejaVuSans-6f" transform="translate(93.994141 0)"/>
      <use xlink:href="#DejaVuSans-75" transform="translate(155.175781 0)"/>
      <use xlink:href="#DejaVuSans-6e" transform="translate(218.554688 0)"/>
      <use xlink:href="#DejaVuSans-74" transform="translate(281.933594 0)"/>
      <use xlink:href="#DejaVuSans-73" transform="translate(321.142578 0)"/>
      <use xlink:href="#DejaVuSans-5d" transform="translate(373.242188 0)"/>
     </g>
    </g>
   </g>
   <g id="line2d_29">
    <path d="M 520.349323 155.747367 
L 521.444085 155.747367 
L 521.444085 146.18125 
L 522.538848 146.18125 
L 522.538848 140.837051 
L 523.633611 140.837051 
L 523.633611 138.913139 
L 524.728373 138.913139 
L 524.728373 143.990128 
L 525.823136 143.990128 
L 525.823136 149.761864 
L 526.917898 149.761864 
L 526.917898 143.24194 
L 528.012661 143.24194 
L 528.012661 126.835248 
L 529.107423 126.835248 
L 529.107423 97.976571 
L 530.202186 97.976571 
L 530.202186 80.020061 
L 531.296948 80.020061 
L 531.296948 59.551777 
L 532.391711 59.551777 
L 532.391711 35.342554 
L 533.486473 35.342554 
L 533.486473 27.165929 
L 534.581236 27.165929 
L 534.581236 24.493829 
L 535.675998 24.493829 
L 535.675998 18.561768 
L 536.770761 18.561768 
L 536.770761 22.463034 
L 537.865523 22.463034 
L 537.865523 31.815383 
L 538.960286 31.815383 
L 538.960286 38.281864 
L 540.055048 38.281864 
L 540.055048 40.04545 
L 541.149811 40.04545 
L 541.149811 52.176782 
L 542.244574 52.176782 
L 542.244574 63.559927 
L 543.339336 63.559927 
L 543.339336 75.42405 
L 544.434099 75.42405 
L 544.434099 79.325315 
L 545.528861 79.325315 
L 545.528861 83.600675 
L 546.623624 83.600675 
L 546.623624 90.227482 
L 547.718386 90.227482 
L 547.718386 93.91498 
L 548.813149 93.91498 
L 548.813149 90.120598 
L 549.907911 90.120598 
L 549.907911 91.723858 
L 551.002674 91.723858 
L 551.002674 92.151394 
L 552.097436 92.151394 
L 552.097436 86.914078 
L 553.192199 86.914078 
L 553.192199 76.546332 
L 554.286961 76.546332 
L 554.286961 71.095248 
L 555.381724 71.095248 
L 555.381724 57.414098 
L 556.476486 57.414098 
L 556.476486 49.985661 
L 557.571249 49.985661 
L 557.571249 50.466638 
L 558.666012 50.466638 
L 558.666012 33.044548 
L 559.760774 33.044548 
L 559.760774 29.410493 
L 560.855537 29.410493 
L 560.855537 42.396897 
L 561.950299 42.396897 
L 561.950299 51.214826 
L 563.045062 51.214826 
L 563.045062 53.085296 
L 564.139824 53.085296 
L 564.139824 68.262823 
L 565.234587 68.262823 
L 565.234587 77.347962 
L 566.329349 77.347962 
L 566.329349 81.249227 
L 567.424112 81.249227 
L 567.424112 100.915881 
L 568.518874 100.915881 
L 568.518874 98.724759 
L 569.613637 98.724759 
L 569.613637 107.32892 
L 570.708399 107.32892 
L 570.708399 120.261883 
L 571.803162 120.261883 
L 571.803162 124.323474 
L 572.897924 124.323474 
L 572.897924 127.102458 
L 573.992687 127.102458 
L 573.992687 137.844299 
L 575.087449 137.844299 
L 575.087449 142.814404 
L 576.182212 142.814404 
L 576.182212 147.089764 
L 577.276975 147.089764 
L 577.276975 151.899543 
L 579.4665 151.899543 
L 579.4665 158.847003 
L 580.561262 158.847003 
L 580.561262 163.175804 
L 581.656025 163.175804 
L 581.656025 167.34428 
L 582.750787 167.34428 
L 582.750787 172.207501 
L 583.84555 172.207501 
L 583.84555 174.879601 
L 584.940312 174.879601 
L 584.940312 178.139562 
L 586.035075 178.139562 
L 586.035075 180.49101 
L 587.129837 180.49101 
L 587.129837 184.445718 
L 588.2246 184.445718 
L 588.2246 183.376878 
L 589.319362 183.376878 
L 589.319362 186.155862 
L 590.414125 186.155862 
L 590.414125 192.141365 
L 591.508887 192.141365 
L 591.508887 191.606945 
L 592.60365 191.606945 
L 592.60365 196.363282 
L 593.698412 196.363282 
L 593.698412 202.241902 
L 594.793175 202.241902 
L 594.793175 200.905852 
L 595.887938 200.905852 
L 595.887938 205.555305 
L 596.9827 205.555305 
L 596.9827 205.394979 
L 599.172225 205.501863 
L 599.172225 209.349687 
L 600.266988 209.349687 
L 600.266988 212.235555 
L 601.36175 212.235555 
L 601.36175 212.449323 
L 602.456513 212.449323 
L 602.456513 212.663091 
L 603.551275 212.663091 
L 603.551275 214.373234 
L 604.646038 214.373234 
L 604.646038 216.724682 
L 605.7408 216.724682 
L 605.7408 219.289898 
L 606.835563 219.289898 
L 606.835563 219.717434 
L 607.930325 219.717434 
L 607.930325 220.198412 
L 609.025088 220.198412 
L 609.025088 218.915804 
L 610.11985 218.915804 
L 610.11985 222.336092 
L 611.214613 222.336092 
L 611.214613 224.420329 
L 612.309375 224.420329 
L 612.309375 224.740981 
L 613.404138 224.740981 
L 613.404138 226.237357 
L 614.498901 226.237357 
L 614.498901 226.077031 
L 615.593663 226.077031 
L 615.593663 225.168517 
L 616.688426 225.168517 
L 616.688426 226.397683 
L 617.783188 226.397683 
L 617.783188 227.573407 
L 618.877951 227.573407 
L 618.877951 227.947501 
L 619.972713 227.947501 
L 619.972713 229.924855 
L 622.162238 229.924855 
L 622.162238 230.085181 
L 623.257001 230.085181 
L 623.257001 232.383187 
L 624.351763 232.383187 
L 624.351763 231.688441 
L 625.446526 231.688441 
L 625.446526 233.612352 
L 626.541288 233.612352 
L 626.541288 233.02449 
L 627.636051 233.02449 
L 627.636051 233.986446 
L 628.730813 233.986446 
L 628.730813 233.238258 
L 629.825576 233.238258 
L 629.825576 232.436629 
L 630.920339 232.436629 
L 630.920339 234.841518 
L 632.015101 234.841518 
L 632.015101 235.589706 
L 633.109864 235.589706 
L 633.109864 233.986446 
L 634.204626 233.986446 
L 634.204626 235.001844 
L 635.299389 235.001844 
L 635.299389 236.337894 
L 636.394151 236.337894 
L 636.394151 237.086082 
L 637.488914 237.086082 
L 637.488914 236.658546 
L 638.583676 236.658546 
L 638.583676 236.925756 
L 639.678439 236.925756 
L 639.678439 237.353292 
L 640.773201 237.353292 
L 640.773201 235.9638 
L 641.867964 235.9638 
L 641.867964 238.475574 
L 642.962726 238.475574 
L 642.962726 237.780828 
L 644.057489 237.780828 
L 644.057489 238.261806 
L 645.152251 238.261806 
L 645.152251 238.10148 
L 646.247014 238.10148 
L 646.247014 238.956552 
L 647.341776 238.956552 
L 647.341776 237.941154 
L 648.436539 237.941154 
L 648.436539 238.956552 
L 649.531302 238.956552 
L 649.531302 239.116878 
L 650.626064 239.116878 
L 650.626064 239.758182 
L 653.910352 239.865066 
L 653.910352 239.918508 
L 655.005114 239.918508 
L 655.005114 240.880464 
L 656.099877 240.880464 
L 656.099877 240.720138 
L 657.194639 240.720138 
L 657.194639 240.933906 
L 658.289402 240.933906 
L 658.289402 241.308 
L 659.384164 241.308 
L 659.384164 241.521768 
L 660.478927 241.521768 
L 660.478927 241.147674 
L 661.573689 241.147674 
L 661.573689 240.399486 
L 662.668452 240.399486 
L 662.668452 241.682093 
L 663.763214 241.682093 
L 663.763214 241.521768 
L 664.857977 241.521768 
L 664.857977 241.201116 
L 665.952739 241.201116 
L 665.952739 241.842419 
L 667.047502 241.842419 
L 667.047502 241.57521 
L 668.142265 241.57521 
L 668.142265 242.109629 
L 670.33179 242.109629 
L 670.33179 242.269955 
L 672.521315 242.269955 
L 672.521315 242.590607 
L 674.71084 242.537165 
L 674.71084 242.216513 
L 675.805602 242.216513 
L 675.805602 242.537165 
L 676.900365 242.537165 
L 676.900365 242.857817 
L 677.995127 242.857817 
L 677.995127 242.483723 
L 679.08989 242.483723 
L 679.08989 242.163071 
L 680.184652 242.163071 
L 680.184652 242.537165 
L 681.279415 242.537165 
L 681.279415 242.804375 
L 683.46894 242.804375 
L 683.46894 243.338795 
L 684.563703 243.338795 
L 684.563703 243.178469 
L 686.753228 243.125027 
L 686.753228 243.819773 
L 687.84799 243.819773 
L 687.84799 242.750933 
L 688.942753 242.750933 
L 688.942753 243.445679 
L 690.037515 243.445679 
L 690.037515 243.071585 
L 691.132278 243.071585 
L 691.132278 243.392237 
L 692.22704 243.392237 
L 692.22704 243.659447 
L 694.416565 243.606005 
L 694.416565 243.873215 
L 695.511328 243.873215 
L 695.511328 244.193867 
L 696.60609 244.193867 
L 696.60609 243.659447 
L 697.700853 243.659447 
L 697.700853 244.033541 
L 698.795615 244.033541 
L 698.795615 243.659447 
L 699.890378 243.659447 
L 699.890378 244.407635 
L 700.98514 244.407635 
L 700.98514 244.140425 
L 702.079903 244.140425 
L 702.079903 242.911259 
L 703.174666 242.911259 
L 703.174666 243.980099 
L 704.269428 243.980099 
L 704.269428 244.140425 
L 705.364191 244.140425 
L 705.364191 244.407635 
L 707.553716 244.300751 
L 707.553716 243.819773 
L 708.648478 243.819773 
L 708.648478 244.674845 
L 711.932766 244.567961 
L 711.932766 244.086983 
L 713.027528 244.086983 
L 713.027528 244.728287 
L 717.406578 244.674845 
L 717.406578 244.514519 
L 720.690866 244.567961 
L 720.690866 244.247309 
L 721.785629 244.247309 
L 721.785629 244.728287 
L 725.069916 244.781729 
L 725.069916 245.209265 
L 727.259441 245.155823 
L 727.259441 244.781729 
L 729.448966 244.835171 
L 729.448966 244.407635 
L 730.543729 244.407635 
L 730.543729 244.835171 
L 731.638491 244.835171 
L 731.638491 245.048939 
L 733.828016 245.102381 
L 733.828016 244.888613 
L 734.922779 244.888613 
L 734.922779 245.102381 
L 736.017541 245.102381 
L 736.017541 244.888613 
L 739.301829 244.942055 
L 739.301829 245.423033 
L 740.396592 245.423033 
L 740.396592 245.209265 
L 744.775642 245.262707 
L 744.775642 244.728287 
L 745.870404 244.728287 
L 745.870404 245.316149 
L 746.965167 245.316149 
L 746.965167 244.781729 
L 749.154692 244.888613 
L 749.154692 245.316149 
L 750.249454 245.316149 
L 750.249454 245.048939 
L 751.344217 245.048939 
L 751.344217 245.316149 
L 753.533742 245.262707 
L 753.533742 245.048939 
L 755.723267 244.995497 
L 755.723267 245.316149 
L 757.912792 245.423033 
L 757.912792 245.155823 
L 759.007555 245.155823 
L 759.007555 245.423033 
L 766.670892 245.316149 
L 766.670892 245.636801 
L 767.765655 245.636801 
L 767.765655 245.316149 
L 769.95518 245.316149 
L 769.95518 245.529917 
L 774.33423 245.529917 
L 774.33423 245.316149 
L 775.428993 245.316149 
L 775.428993 245.529917 
L 778.71328 245.476475 
L 778.71328 245.316149 
L 779.808043 245.316149 
L 779.808043 245.529917 
L 789.660905 245.476475 
L 789.660905 245.369591 
L 790.755668 245.369591 
L 790.755668 245.583359 
L 794.039956 245.583359 
L 794.039956 245.423033 
L 796.229481 245.476475 
L 796.229481 245.743685 
L 797.324243 245.743685 
L 797.324243 245.529917 
L 798.419006 245.529917 
L 798.419006 245.690243 
L 800.608531 245.583359 
L 800.608531 245.476475 
L 801.703293 245.476475 
L 801.703293 245.636801 
L 802.798056 245.636801 
L 802.798056 245.369591 
L 803.892818 245.369591 
L 803.892818 245.583359 
L 822.503781 245.529917 
L 822.503781 245.797127 
L 823.598544 245.797127 
L 823.598544 245.636801 
L 832.356644 245.690243 
L 832.356644 245.797127 
L 834.546169 245.690243 
L 834.546169 245.636801 
L 848.778082 245.743685 
L 848.778082 245.743685 
" clip-path="url(#p6bbf089312)" style="fill: none; stroke: #1f77b4; stroke-width: 1.5; stroke-linecap: square"/>
   </g>
   <g id="patch_8">
    <path d="M 503.927885 257.158895 
L 503.927885 7.2 
" style="fill: none; stroke: #000000; stroke-width: 0.8; stroke-linejoin: miter; stroke-linecap: square"/>
   </g>
   <g id="patch_9">
    <path d="M 865.19952 257.158895 
L 865.19952 7.2 
" style="fill: none; stroke: #000000; stroke-width: 0.8; stroke-linejoin: miter; stroke-linecap: square"/>
   </g>
   <g id="patch_10">
    <path d="M 503.927885 257.158895 
L 865.19952 257.158895 
" style="fill: none; stroke: #000000; stroke-width: 0.8; stroke-linejoin: miter; stroke-linecap: square"/>
   </g>
   <g id="patch_11">
    <path d="M 503.927885 7.2 
L 865.19952 7.2 
" style="fill: none; stroke: #000000; stroke-width: 0.8; stroke-linejoin: miter; stroke-linecap: square"/>
   </g>
  </g>
 </g>
 <defs>
  <clipPath id="p3cde799354">
   <rect x="53.328125" y="7.2" width="361.271635" height="249.958895"/>
  </clipPath>
  <clipPath id="p6bbf089312">
   <rect x="503.927885" y="7.2" width="361.271635" height="249.958895"/>
  </clipPath>
 </defs>
</svg>
