<?xml version="1.0" encoding="utf-8" standalone="no"?>
<!DOCTYPE svg PUBLIC "-//W3C//DTD SVG 1.1//EN"
  "http://www.w3.org/Graphics/SVG/1.1/DTD/svg11.dtd">
<svg xmlns:xlink="http://www.w3.org/1999/xlink" width="397.190927pt" height="267.160781pt" viewBox="0 0 397.190927 267.160781" xmlns="http://www.w3.org/2000/svg" version="1.1">
 <metadata>
  <rdf:RDF xmlns:dc="http://purl.org/dc/elements/1.1/" xmlns:cc="http://creativecommons.org/ns#" xmlns:rdf="http://www.w3.org/1999/02/22-rdf-syntax-ns#">
   <cc:Work>
    <dc:type rdf:resource="http://purl.org/dc/dcmitype/StillImage"/>
    <dc:date>2026-06-30T14:33:55.174904</dc:date>
    <dc:format>image/svg+xml</dc:format>
    <dc:creator>
     <cc:Agent>
      <dc:title>Matplotlib v3.11.0, https://matplotlib.org/</dc:title>
     </cc:Agent>
    </dc:creator>
   </cc:Work>
  </rdf:RDF>
 </metadata>
 <defs>
  <style type="text/css">*{stroke-linejoin: round; stroke-linecap: butt}</style>
 </defs>
 <g id="figure_1">
  <g id="patch_1">
   <path d="M 0 267.160781 
L 397.190927 267.160781 
L 397.190927 0 
L 0 0 
z
" style="fill: #ffffff"/>
  </g>
  <g id="axes_1">
   <g id="patch_2">
    <path d="M 47.288281 228.96 
L 382.088281 228.96 
L 382.088281 7.2 
L 47.288281 7.2 
z
" style="fill: #ffffff"/>
   </g>
   <g id="matplotlib.axis_1">
    <g id="xtick_1">
     <g id="line2d_1">
      <defs>
       <path id="m052077df4d" d="M 0 0 
L 0 3.5 
" style="stroke: #000000; stroke-width: 0.8"/>
      </defs>
      <g>
       <use xlink:href="#m052077df4d" x="82.813906" y="228.96" style="stroke: #000000; stroke-width: 0.8"/>
      </g>
     </g>
     <g id="text_1">
      <!-- 20000 -->
      <g transform="translate(66.907656 243.557656) scale(0.1 -0.1)">
       <defs>
        <path id="DejaVuSans-15" d="M 1228 531 
L 3431 531 
L 3431 0 
L 469 0 
L 469 531 
Q 828 903 1448 1529 
Q 2069 2156 2228 2338 
Q 2531 2678 2651 2914 
Q 2772 3150 2772 3378 
Q 2772 3750 2511 3984 
Q 2250 4219 1831 4219 
Q 1534 4219 1204 4116 
Q 875 4013 500 3803 
L 500 4441 
Q 881 4594 1212 4672 
Q 1544 4750 1819 4750 
Q 2544 4750 2975 4387 
Q 3406 4025 3406 3419 
Q 3406 3131 3298 2873 
Q 3191 2616 2906 2266 
Q 2828 2175 2409 1742 
Q 1991 1309 1228 531 
z
" transform="scale(0.015625)"/>
        <path id="DejaVuSans-13" d="M 2034 4250 
Q 1547 4250 1301 3770 
Q 1056 3291 1056 2328 
Q 1056 1369 1301 889 
Q 1547 409 2034 409 
Q 2525 409 2770 889 
Q 3016 1369 3016 2328 
Q 3016 3291 2770 3770 
Q 2525 4250 2034 4250 
z
M 2034 4750 
Q 2819 4750 3233 4129 
Q 3647 3509 3647 2328 
Q 3647 1150 3233 529 
Q 2819 -91 2034 -91 
Q 1250 -91 836 529 
Q 422 1150 422 2328 
Q 422 3509 836 4129 
Q 1250 4750 2034 4750 
z
" transform="scale(0.015625)"/>
       </defs>
       <use xlink:href="#DejaVuSans-15"/>
       <use xlink:href="#DejaVuSans-13" transform="translate(63.625 0)"/>
       <use xlink:href="#DejaVuSans-13" transform="translate(127.25 0)"/>
       <use xlink:href="#DejaVuSans-13" transform="translate(190.875 0)"/>
       <use xlink:href="#DejaVuSans-13" transform="translate(254.5 0)"/>
      </g>
     </g>
    </g>
    <g id="xtick_2">
     <g id="line2d_2">
      <g>
       <use xlink:href="#m052077df4d" x="141.06806" y="228.96" style="stroke: #000000; stroke-width: 0.8"/>
      </g>
     </g>
     <g id="text_2">
      <!-- 30000 -->
      <g transform="translate(125.16181 243.557656) scale(0.1 -0.1)">
       <defs>
        <path id="DejaVuSans-16" d="M 2597 2516 
Q 3050 2419 3304 2112 
Q 3559 1806 3559 1356 
Q 3559 666 3084 287 
Q 2609 -91 1734 -91 
Q 1441 -91 1130 -33 
Q 819 25 488 141 
L 488 750 
Q 750 597 1062 519 
Q 1375 441 1716 441 
Q 2309 441 2620 675 
Q 2931 909 2931 1356 
Q 2931 1769 2642 2001 
Q 2353 2234 1838 2234 
L 1294 2234 
L 1294 2753 
L 1863 2753 
Q 2328 2753 2575 2939 
Q 2822 3125 2822 3475 
Q 2822 3834 2567 4026 
Q 2313 4219 1838 4219 
Q 1578 4219 1281 4162 
Q 984 4106 628 3988 
L 628 4550 
Q 988 4650 1302 4700 
Q 1616 4750 1894 4750 
Q 2613 4750 3031 4423 
Q 3450 4097 3450 3541 
Q 3450 3153 3228 2886 
Q 3006 2619 2597 2516 
z
" transform="scale(0.015625)"/>
       </defs>
       <use xlink:href="#DejaVuSans-16"/>
       <use xlink:href="#DejaVuSans-13" transform="translate(63.625 0)"/>
       <use xlink:href="#DejaVuSans-13" transform="translate(127.25 0)"/>
       <use xlink:href="#DejaVuSans-13" transform="translate(190.875 0)"/>
       <use xlink:href="#DejaVuSans-13" transform="translate(254.5 0)"/>
      </g>
     </g>
    </g>
    <g id="xtick_3">
     <g id="line2d_3">
      <g>
       <use xlink:href="#m052077df4d" x="199.322214" y="228.96" style="stroke: #000000; stroke-width: 0.8"/>
      </g>
     </g>
     <g id="text_3">
      <!-- 40000 -->
      <g transform="translate(183.415964 243.557656) scale(0.1 -0.1)">
       <defs>
        <path id="DejaVuSans-17" d="M 2419 4116 
L 825 1625 
L 2419 1625 
L 2419 4116 
z
M 2253 4666 
L 3047 4666 
L 3047 1625 
L 3713 1625 
L 3713 1100 
L 3047 1100 
L 3047 0 
L 2419 0 
L 2419 1100 
L 313 1100 
L 313 1709 
L 2253 4666 
z
" transform="scale(0.015625)"/>
       </defs>
       <use xlink:href="#DejaVuSans-17"/>
       <use xlink:href="#DejaVuSans-13" transform="translate(63.625 0)"/>
       <use xlink:href="#DejaVuSans-13" transform="translate(127.25 0)"/>
       <use xlink:href="#DejaVuSans-13" transform="translate(190.875 0)"/>
       <use xlink:href="#DejaVuSans-13" transform="translate(254.5 0)"/>
      </g>
     </g>
    </g>
    <g id="xtick_4">
     <g id="line2d_4">
      <g>
       <use xlink:href="#m052077df4d" x="257.576369" y="228.96" style="stroke: #000000; stroke-width: 0.8"/>
      </g>
     </g>
     <g id="text_4">
      <!-- 50000 -->
      <g transform="translate(241.670119 243.557656) scale(0.1 -0.1)">
       <defs>
        <path id="DejaVuSans-18" d="M 691 4666 
L 3169 4666 
L 3169 4134 
L 1269 4134 
L 1269 2991 
Q 1406 3038 1543 3061 
Q 1681 3084 1819 3084 
Q 2600 3084 3056 2656 
Q 3513 2228 3513 1497 
Q 3513 744 3044 326 
Q 2575 -91 1722 -91 
Q 1428 -91 1123 -41 
Q 819 9 494 109 
L 494 744 
Q 775 591 1075 516 
Q 1375 441 1709 441 
Q 2250 441 2565 725 
Q 2881 1009 2881 1497 
Q 2881 1984 2565 2268 
Q 2250 2553 1709 2553 
Q 1456 2553 1204 2497 
Q 953 2441 691 2322 
L 691 4666 
z
" transform="scale(0.015625)"/>
       </defs>
       <use xlink:href="#DejaVuSans-18"/>
       <use xlink:href="#DejaVuSans-13" transform="translate(63.625 0)"/>
       <use xlink:href="#DejaVuSans-13" transform="translate(127.25 0)"/>
       <use xlink:href="#DejaVuSans-13" transform="translate(190.875 0)"/>
       <use xlink:href="#DejaVuSans-13" transform="translate(254.5 0)"/>
      </g>
     </g>
    </g>
    <g id="xtick_5">
     <g id="line2d_5">
      <g>
       <use xlink:href="#m052077df4d" x="315.830523" y="228.96" style="stroke: #000000; stroke-width: 0.8"/>
      </g>
     </g>
     <g id="text_5">
      <!-- 60000 -->
      <g transform="translate(299.924273 243.557656) scale(0.1 -0.1)">
       <defs>
        <path id="DejaVuSans-19" d="M 2113 2584 
Q 1688 2584 1439 2293 
Q 1191 2003 1191 1497 
Q 1191 994 1439 701 
Q 1688 409 2113 409 
Q 2538 409 2786 701 
Q 3034 994 3034 1497 
Q 3034 2003 2786 2293 
Q 2538 2584 2113 2584 
z
M 3366 4563 
L 3366 3988 
Q 3128 4100 2886 4159 
Q 2644 4219 2406 4219 
Q 1781 4219 1451 3797 
Q 1122 3375 1075 2522 
Q 1259 2794 1537 2939 
Q 1816 3084 2150 3084 
Q 2853 3084 3261 2657 
Q 3669 2231 3669 1497 
Q 3669 778 3244 343 
Q 2819 -91 2113 -91 
Q 1303 -91 875 529 
Q 447 1150 447 2328 
Q 447 3434 972 4092 
Q 1497 4750 2381 4750 
Q 2619 4750 2861 4703 
Q 3103 4656 3366 4563 
z
" transform="scale(0.015625)"/>
       </defs>
       <use xlink:href="#DejaVuSans-19"/>
       <use xlink:href="#DejaVuSans-13" transform="translate(63.625 0)"/>
       <use xlink:href="#DejaVuSans-13" transform="translate(127.25 0)"/>
       <use xlink:href="#DejaVuSans-13" transform="translate(190.875 0)"/>
       <use xlink:href="#DejaVuSans-13" transform="translate(254.5 0)"/>
      </g>
     </g>
    </g>
    <g id="xtick_6">
     <g id="line2d_6">
      <g>
       <use xlink:href="#m052077df4d" x="374.084677" y="228.96" style="stroke: #000000; stroke-width: 0.8"/>
      </g>
     </g>
     <g id="text_6">
      <!-- 70000 -->
      <g transform="translate(358.178427 243.557656) scale(0.1 -0.1)">
       <defs>
        <path id="DejaVuSans-1a" d="M 525 4666 
L 3525 4666 
L 3525 4397 
L 1831 0 
L 1172 0 
L 2766 4134 
L 525 4134 
L 525 4666 
z
" transform="scale(0.015625)"/>
       </defs>
       <use xlink:href="#DejaVuSans-1a"/>
       <use xlink:href="#DejaVuSans-13" transform="translate(63.625 0)"/>
       <use xlink:href="#DejaVuSans-13" transform="translate(127.25 0)"/>
       <use xlink:href="#DejaVuSans-13" transform="translate(190.875 0)"/>
       <use xlink:href="#DejaVuSans-13" transform="translate(254.5 0)"/>
      </g>
     </g>
    </g>
    <g id="text_7">
     <!-- event_time_offset [µs] -->
     <g transform="translate(158.728906 257.558438) scale(0.1 -0.1)">
      <defs>
       <path id="DejaVuSans-48" d="M 3597 1894 
L 3597 1613 
L 953 1613 
Q 991 1019 1311 708 
Q 1631 397 2203 397 
Q 2534 397 2845 478 
Q 3156 559 3463 722 
L 3463 178 
Q 3153 47 2828 -22 
Q 2503 -91 2169 -91 
Q 1331 -91 842 396 
Q 353 884 353 1716 
Q 353 2575 817 3079 
Q 1281 3584 2069 3584 
Q 2775 3584 3186 3129 
Q 3597 2675 3597 1894 
z
M 3022 2063 
Q 3016 2534 2758 2815 
Q 2500 3097 2075 3097 
Q 1594 3097 1305 2825 
Q 1016 2553 972 2059 
L 3022 2063 
z
" transform="scale(0.015625)"/>
       <path id="DejaVuSans-59" d="M 191 3500 
L 800 3500 
L 1894 563 
L 2988 3500 
L 3597 3500 
L 2284 0 
L 1503 0 
L 191 3500 
z
" transform="scale(0.015625)"/>
       <path id="DejaVuSans-51" d="M 3513 2113 
L 3513 0 
L 2938 0 
L 2938 2094 
Q 2938 2591 2744 2837 
Q 2550 3084 2163 3084 
Q 1697 3084 1428 2787 
Q 1159 2491 1159 1978 
L 1159 0 
L 581 0 
L 581 3500 
L 1159 3500 
L 1159 2956 
Q 1366 3272 1645 3428 
Q 1925 3584 2291 3584 
Q 2894 3584 3203 3211 
Q 3513 2838 3513 2113 
z
" transform="scale(0.015625)"/>
       <path id="DejaVuSans-57" d="M 1172 4494 
L 1172 3500 
L 2356 3500 
L 2356 3053 
L 1172 3053 
L 1172 1153 
Q 1172 725 1289 603 
Q 1406 481 1766 481 
L 2356 481 
L 2356 0 
L 1766 0 
Q 1100 0 847 248 
Q 594 497 594 1153 
L 594 3053 
L 172 3053 
L 172 3500 
L 594 3500 
L 594 4494 
L 1172 4494 
z
" transform="scale(0.015625)"/>
       <path id="DejaVuSans-42" d="M 3263 -1063 
L 3263 -1509 
L -63 -1509 
L -63 -1063 
L 3263 -1063 
z
" transform="scale(0.015625)"/>
       <path id="DejaVuSans-4c" d="M 603 3500 
L 1178 3500 
L 1178 0 
L 603 0 
L 603 3500 
z
M 603 4863 
L 1178 4863 
L 1178 4134 
L 603 4134 
L 603 4863 
z
" transform="scale(0.015625)"/>
       <path id="DejaVuSans-50" d="M 3328 2828 
Q 3544 3216 3844 3400 
Q 4144 3584 4550 3584 
Q 5097 3584 5394 3201 
Q 5691 2819 5691 2113 
L 5691 0 
L 5113 0 
L 5113 2094 
Q 5113 2597 4934 2840 
Q 4756 3084 4391 3084 
Q 3944 3084 3684 2787 
Q 3425 2491 3425 1978 
L 3425 0 
L 2847 0 
L 2847 2094 
Q 2847 2600 2669 2842 
Q 2491 3084 2119 3084 
Q 1678 3084 1418 2786 
Q 1159 2488 1159 1978 
L 1159 0 
L 581 0 
L 581 3500 
L 1159 3500 
L 1159 2956 
Q 1356 3278 1631 3431 
Q 1906 3584 2284 3584 
Q 2666 3584 2933 3390 
Q 3200 3197 3328 2828 
z
" transform="scale(0.015625)"/>
       <path id="DejaVuSans-52" d="M 1959 3097 
Q 1497 3097 1228 2736 
Q 959 2375 959 1747 
Q 959 1119 1226 758 
Q 1494 397 1959 397 
Q 2419 397 2687 759 
Q 2956 1122 2956 1747 
Q 2956 2369 2687 2733 
Q 2419 3097 1959 3097 
z
M 1959 3584 
Q 2709 3584 3137 3096 
Q 3566 2609 3566 1747 
Q 3566 888 3137 398 
Q 2709 -91 1959 -91 
Q 1206 -91 779 398 
Q 353 888 353 1747 
Q 353 2609 779 3096 
Q 1206 3584 1959 3584 
z
" transform="scale(0.015625)"/>
       <path id="DejaVuSans-13ae" d="M 4531 4863 
L 4531 4384 
L 3981 4384 
Q 3672 4384 3551 4259 
Q 3431 4134 3431 3809 
L 3431 3500 
L 4378 3500 
L 4378 3053 
L 3431 3053 
L 3431 0 
L 2853 0 
L 2853 3053 
L 1275 3053 
L 1275 0 
L 697 0 
L 697 3053 
L 147 3053 
L 147 3500 
L 697 3500 
L 697 3744 
Q 697 4328 969 4595 
Q 1241 4863 1831 4863 
L 2375 4863 
L 2375 4384 
L 1825 4384 
Q 1516 4384 1394 4259 
Q 1275 4134 1275 3809 
L 1275 3500 
L 2853 3500 
L 2853 3744 
Q 2853 4328 3125 4595 
Q 3397 4863 3988 4863 
L 4531 4863 
z
" transform="scale(0.015625)"/>
       <path id="DejaVuSans-56" d="M 2834 3397 
L 2834 2853 
Q 2591 2978 2328 3040 
Q 2066 3103 1784 3103 
Q 1356 3103 1142 2972 
Q 928 2841 928 2578 
Q 928 2378 1081 2264 
Q 1234 2150 1697 2047 
L 1894 2003 
Q 2506 1872 2764 1633 
Q 3022 1394 3022 966 
Q 3022 478 2636 193 
Q 2250 -91 1575 -91 
Q 1294 -91 989 -36 
Q 684 19 347 128 
L 347 722 
Q 666 556 975 473 
Q 1284 391 1588 391 
Q 1994 391 2212 530 
Q 2431 669 2431 922 
Q 2431 1156 2273 1281 
Q 2116 1406 1581 1522 
L 1381 1569 
Q 847 1681 609 1914 
Q 372 2147 372 2553 
Q 372 3047 722 3315 
Q 1072 3584 1716 3584 
Q 2034 3584 2315 3537 
Q 2597 3491 2834 3397 
z
" transform="scale(0.015625)"/>
       <path id="DejaVuSans-3" transform="scale(0.015625)"/>
       <path id="DejaVuSans-3e" d="M 550 4863 
L 1875 4863 
L 1875 4416 
L 1125 4416 
L 1125 -397 
L 1875 -397 
L 1875 -844 
L 550 -844 
L 550 4863 
z
" transform="scale(0.015625)"/>
       <path id="DejaVuSans-77" d="M 544 -1331 
L 544 3500 
L 1119 3500 
L 1119 1325 
Q 1119 872 1334 640 
Q 1550 409 1972 409 
Q 2434 409 2667 671 
Q 2900 934 2900 1459 
L 2900 3500 
L 3475 3500 
L 3475 806 
Q 3475 619 3529 530 
Q 3584 441 3700 441 
Q 3728 441 3778 458 
Q 3828 475 3916 513 
L 3916 50 
Q 3788 -22 3673 -56 
Q 3559 -91 3450 -91 
Q 3234 -91 3106 31 
Q 2978 153 2931 403 
Q 2775 156 2548 32 
Q 2322 -91 2016 -91 
Q 1697 -91 1473 31 
Q 1250 153 1119 397 
L 1119 -1331 
L 544 -1331 
z
" transform="scale(0.015625)"/>
       <path id="DejaVuSans-40" d="M 1947 4863 
L 1947 -844 
L 622 -844 
L 622 -397 
L 1369 -397 
L 1369 4416 
L 622 4416 
L 622 4863 
L 1947 4863 
z
" transform="scale(0.015625)"/>
      </defs>
      <use xlink:href="#DejaVuSans-48"/>
      <use xlink:href="#DejaVuSans-59" transform="translate(61.53125 0)"/>
      <use xlink:href="#DejaVuSans-48" transform="translate(120.71875 0)"/>
      <use xlink:href="#DejaVuSans-51" transform="translate(182.25 0)"/>
      <use xlink:href="#DejaVuSans-57" transform="translate(245.625 0)"/>
      <use xlink:href="#DejaVuSans-42" transform="translate(284.828125 0)"/>
      <use xlink:href="#DejaVuSans-57" transform="translate(334.828125 0)"/>
      <use xlink:href="#DejaVuSans-4c" transform="translate(374.03125 0)"/>
      <use xlink:href="#DejaVuSans-50" transform="translate(401.8125 0)"/>
      <use xlink:href="#DejaVuSans-48" transform="translate(499.21875 0)"/>
      <use xlink:href="#DejaVuSans-42" transform="translate(560.75 0)"/>
      <use xlink:href="#DejaVuSans-52" transform="translate(610.75 0)"/>
      <use xlink:href="#DejaVuSans-13ae" transform="translate(671.9375 0)"/>
      <use xlink:href="#DejaVuSans-56" transform="translate(740.828125 0)"/>
      <use xlink:href="#DejaVuSans-48" transform="translate(792.921875 0)"/>
      <use xlink:href="#DejaVuSans-57" transform="translate(854.453125 0)"/>
      <use xlink:href="#DejaVuSans-3" transform="translate(893.65625 0)"/>
      <use xlink:href="#DejaVuSans-3e" transform="translate(925.4375 0)"/>
      <use xlink:href="#DejaVuSans-77" transform="translate(964.453125 0)"/>
      <use xlink:href="#DejaVuSans-56" transform="translate(1028.078125 0)"/>
      <use xlink:href="#DejaVuSans-40" transform="translate(1080.171875 0)"/>
     </g>
    </g>
   </g>
   <g id="matplotlib.axis_2">
    <g id="ytick_1">
     <g id="line2d_7">
      <defs>
       <path id="m5988a1980c" d="M 0 0 
L -3.5 0 
" style="stroke: #000000; stroke-width: 0.8"/>
      </defs>
      <g>
       <use xlink:href="#m5988a1980c" x="47.288281" y="218.88" style="stroke: #000000; stroke-width: 0.8"/>
      </g>
     </g>
     <g id="text_8">
      <!-- 0 -->
      <g transform="translate(33.925781 222.678828) scale(0.1 -0.1)">
       <use xlink:href="#DejaVuSans-13"/>
      </g>
     </g>
    </g>
    <g id="ytick_2">
     <g id="line2d_8">
      <g>
       <use xlink:href="#m5988a1980c" x="47.288281" y="182.291978" style="stroke: #000000; stroke-width: 0.8"/>
      </g>
     </g>
     <g id="text_9">
      <!-- 100 -->
      <g transform="translate(21.200781 186.090806) scale(0.1 -0.1)">
       <defs>
        <path id="DejaVuSans-14" d="M 794 531 
L 1825 531 
L 1825 4091 
L 703 3866 
L 703 4441 
L 1819 4666 
L 2450 4666 
L 2450 531 
L 3481 531 
L 3481 0 
L 794 0 
L 794 531 
z
" transform="scale(0.015625)"/>
       </defs>
       <use xlink:href="#DejaVuSans-14"/>
       <use xlink:href="#DejaVuSans-13" transform="translate(63.625 0)"/>
       <use xlink:href="#DejaVuSans-13" transform="translate(127.25 0)"/>
      </g>
     </g>
    </g>
    <g id="ytick_3">
     <g id="line2d_9">
      <g>
       <use xlink:href="#m5988a1980c" x="47.288281" y="145.703956" style="stroke: #000000; stroke-width: 0.8"/>
      </g>
     </g>
     <g id="text_10">
      <!-- 200 -->
      <g transform="translate(21.200781 149.502785) scale(0.1 -0.1)">
       <use xlink:href="#DejaVuSans-15"/>
       <use xlink:href="#DejaVuSans-13" transform="translate(63.625 0)"/>
       <use xlink:href="#DejaVuSans-13" transform="translate(127.25 0)"/>
      </g>
     </g>
    </g>
    <g id="ytick_4">
     <g id="line2d_10">
      <g>
       <use xlink:href="#m5988a1980c" x="47.288281" y="109.115935" style="stroke: #000000; stroke-width: 0.8"/>
      </g>
     </g>
     <g id="text_11">
      <!-- 300 -->
      <g transform="translate(21.200781 112.914763) scale(0.1 -0.1)">
       <use xlink:href="#DejaVuSans-16"/>
       <use xlink:href="#DejaVuSans-13" transform="translate(63.625 0)"/>
       <use xlink:href="#DejaVuSans-13" transform="translate(127.25 0)"/>
      </g>
     </g>
    </g>
    <g id="ytick_5">
     <g id="line2d_11">
      <g>
       <use xlink:href="#m5988a1980c" x="47.288281" y="72.527913" style="stroke: #000000; stroke-width: 0.8"/>
      </g>
     </g>
     <g id="text_12">
      <!-- 400 -->
      <g transform="translate(21.200781 76.326741) scale(0.1 -0.1)">
       <use xlink:href="#DejaVuSans-17"/>
       <use xlink:href="#DejaVuSans-13" transform="translate(63.625 0)"/>
       <use xlink:href="#DejaVuSans-13" transform="translate(127.25 0)"/>
      </g>
     </g>
    </g>
    <g id="ytick_6">
     <g id="line2d_12">
      <g>
       <use xlink:href="#m5988a1980c" x="47.288281" y="35.939891" style="stroke: #000000; stroke-width: 0.8"/>
      </g>
     </g>
     <g id="text_13">
      <!-- 500 -->
      <g transform="translate(21.200781 39.738719) scale(0.1 -0.1)">
       <use xlink:href="#DejaVuSans-18"/>
       <use xlink:href="#DejaVuSans-13" transform="translate(63.625 0)"/>
       <use xlink:href="#DejaVuSans-13" transform="translate(127.25 0)"/>
      </g>
     </g>
    </g>
    <g id="text_14">
     <!-- [counts] -->
     <g transform="translate(14.798438 138.6925) rotate(-90) scale(0.1 -0.1)">
      <defs>
       <path id="DejaVuSans-46" d="M 3122 3366 
L 3122 2828 
Q 2878 2963 2633 3030 
Q 2388 3097 2138 3097 
Q 1578 3097 1268 2742 
Q 959 2388 959 1747 
Q 959 1106 1268 751 
Q 1578 397 2138 397 
Q 2388 397 2633 464 
Q 2878 531 3122 666 
L 3122 134 
Q 2881 22 2623 -34 
Q 2366 -91 2075 -91 
Q 1284 -91 818 406 
Q 353 903 353 1747 
Q 353 2603 823 3093 
Q 1294 3584 2113 3584 
Q 2378 3584 2631 3529 
Q 2884 3475 3122 3366 
z
" transform="scale(0.015625)"/>
       <path id="DejaVuSans-58" d="M 544 1381 
L 544 3500 
L 1119 3500 
L 1119 1403 
Q 1119 906 1312 657 
Q 1506 409 1894 409 
Q 2359 409 2629 706 
Q 2900 1003 2900 1516 
L 2900 3500 
L 3475 3500 
L 3475 0 
L 2900 0 
L 2900 538 
Q 2691 219 2414 64 
Q 2138 -91 1772 -91 
Q 1169 -91 856 284 
Q 544 659 544 1381 
z
M 1991 3584 
L 1991 3584 
z
" transform="scale(0.015625)"/>
      </defs>
      <use xlink:href="#DejaVuSans-3e"/>
      <use xlink:href="#DejaVuSans-46" transform="translate(39.015625 0)"/>
      <use xlink:href="#DejaVuSans-52" transform="translate(94 0)"/>
      <use xlink:href="#DejaVuSans-58" transform="translate(155.1875 0)"/>
      <use xlink:href="#DejaVuSans-51" transform="translate(218.5625 0)"/>
      <use xlink:href="#DejaVuSans-57" transform="translate(281.9375 0)"/>
      <use xlink:href="#DejaVuSans-56" transform="translate(321.140625 0)"/>
      <use xlink:href="#DejaVuSans-40" transform="translate(373.234375 0)"/>
     </g>
    </g>
   </g>
   <g id="line2d_13">
    <path d="M 62.506463 214.489437 
L 63.521009 214.489437 
L 63.521009 209.732995 
L 64.535554 209.732995 
L 64.535554 206.440073 
L 65.550099 206.440073 
L 65.550099 200.220109 
L 66.564645 200.220109 
L 66.564645 191.073103 
L 67.57919 191.073103 
L 67.57919 189.609583 
L 68.593736 189.609583 
L 68.593736 183.389619 
L 69.608281 183.389619 
L 69.608281 177.535535 
L 70.622827 177.535535 
L 70.622827 178.633176 
L 71.637372 178.633176 
L 71.637372 171.681452 
L 72.651918 171.681452 
L 72.651918 159.973285 
L 73.666463 159.973285 
L 73.666463 143.508675 
L 74.681009 143.508675 
L 74.681009 148.265118 
L 75.695554 148.265118 
L 75.695554 138.020472 
L 76.710099 138.020472 
L 76.710099 144.606316 
L 77.724645 144.606316 
L 77.724645 122.287623 
L 78.73919 122.287623 
L 78.73919 116.433539 
L 79.753736 116.433539 
L 79.753736 128.141706 
L 80.768281 128.141706 
L 80.768281 123.385263 
L 81.782827 123.385263 
L 81.782827 105.823013 
L 82.797372 105.823013 
L 82.797372 105.091252 
L 83.811918 105.091252 
L 83.811918 99.237169 
L 84.826463 99.237169 
L 84.826463 89.724283 
L 85.841009 89.724283 
L 85.841009 90.456044 
L 86.855554 90.456044 
L 86.855554 91.553684 
L 87.870099 91.553684 
L 87.870099 69.600871 
L 88.884645 69.600871 
L 88.884645 75.820835 
L 89.89919 75.820835 
L 89.89919 81.674918 
L 90.913736 81.674918 
L 90.913736 84.60196 
L 91.928281 84.60196 
L 91.928281 80.211397 
L 92.942827 80.211397 
L 92.942827 56.429183 
L 93.957372 56.429183 
L 93.957372 55.697423 
L 94.971918 55.697423 
L 94.971918 59.356225 
L 95.986463 59.356225 
L 95.986463 56.795064 
L 97.001009 56.795064 
L 97.001009 57.892704 
L 98.015554 57.892704 
L 98.015554 49.843339 
L 99.030099 49.843339 
L 99.030099 46.916298 
L 100.044645 46.916298 
L 100.044645 45.452777 
L 101.05919 45.452777 
L 101.05919 49.477459 
L 102.073736 49.477459 
L 102.073736 30.817568 
L 103.088281 30.817568 
L 103.088281 31.183448 
L 104.102827 31.183448 
L 104.102827 35.574011 
L 106.131918 35.574011 
L 106.131918 29.354047 
L 107.146463 29.354047 
L 107.146463 17.28 
L 108.161009 17.28 
L 108.161009 36.671652 
L 109.175554 36.671652 
L 109.175554 22.768203 
L 110.190099 22.768203 
L 110.190099 32.281089 
L 111.204645 32.281089 
L 111.204645 33.37873 
L 112.21919 33.37873 
L 112.21919 41.793975 
L 113.233736 41.793975 
L 113.233736 36.305771 
L 114.248281 36.305771 
L 114.248281 34.47637 
L 115.262827 34.47637 
L 115.262827 33.37873 
L 116.277372 33.37873 
L 116.277372 48.745699 
L 117.291918 48.745699 
L 117.291918 50.5751 
L 118.306463 50.5751 
L 118.306463 51.30686 
L 120.335554 51.30686 
L 120.335554 61.551506 
L 121.350099 61.551506 
L 121.350099 42.891615 
L 122.364645 42.891615 
L 122.364645 40.330454 
L 123.37919 40.330454 
L 123.37919 57.526824 
L 124.393736 57.526824 
L 124.393736 58.624465 
L 125.408281 58.624465 
L 125.408281 56.063303 
L 126.422827 56.063303 
L 126.422827 57.892704 
L 127.437372 57.892704 
L 127.437372 72.893793 
L 128.451918 72.893793 
L 128.451918 61.551506 
L 129.466463 61.551506 
L 129.466463 68.869111 
L 130.481009 68.869111 
L 130.481009 68.50323 
L 131.495554 68.50323 
L 131.495554 66.673829 
L 133.524645 66.673829 
L 133.524645 67.03971 
L 134.53919 67.03971 
L 134.53919 68.50323 
L 135.553736 68.50323 
L 135.553736 65.576189 
L 136.568281 65.576189 
L 136.568281 63.380907 
L 137.582827 63.380907 
L 137.582827 57.892704 
L 138.597372 57.892704 
L 138.597372 79.479637 
L 139.611918 79.479637 
L 139.611918 84.23608 
L 140.626463 84.23608 
L 140.626463 84.60196 
L 141.641009 84.60196 
L 141.641009 65.942069 
L 142.655554 65.942069 
L 142.655554 79.845517 
L 143.670099 79.845517 
L 143.670099 64.112668 
L 144.684645 64.112668 
L 144.684645 75.089074 
L 145.69919 75.089074 
L 145.69919 75.454955 
L 146.713736 75.454955 
L 146.713736 61.917387 
L 147.728281 61.917387 
L 147.728281 85.333721 
L 148.742827 85.333721 
L 148.742827 79.845517 
L 149.757372 79.845517 
L 149.757372 93.017205 
L 150.771918 93.017205 
L 150.771918 69.234991 
L 151.786463 69.234991 
L 151.786463 91.919564 
L 152.801009 91.919564 
L 152.801009 82.772559 
L 153.815554 82.772559 
L 153.815554 86.431361 
L 154.830099 86.431361 
L 154.830099 81.674918 
L 155.844645 81.674918 
L 155.844645 70.332632 
L 156.85919 70.332632 
L 156.85919 102.530091 
L 157.873736 102.530091 
L 157.873736 77.650236 
L 158.888281 77.650236 
L 158.888281 88.992523 
L 159.902827 88.992523 
L 159.902827 85.699601 
L 160.917372 85.699601 
L 160.917372 84.23608 
L 161.931918 84.23608 
L 161.931918 88.626642 
L 162.946463 88.626642 
L 162.946463 93.383085 
L 163.961009 93.383085 
L 163.961009 94.114846 
L 164.975554 94.114846 
L 164.975554 97.407768 
L 165.990099 97.407768 
L 165.990099 88.626642 
L 167.004645 88.626642 
L 167.004645 103.627731 
L 168.01919 103.627731 
L 168.01919 104.359492 
L 169.033736 104.359492 
L 169.033736 97.041887 
L 170.048281 97.041887 
L 170.048281 111.311216 
L 171.062827 111.311216 
L 171.062827 102.530091 
L 172.077372 102.530091 
L 172.077372 110.579456 
L 173.091918 110.579456 
L 173.091918 100.334809 
L 174.106463 100.334809 
L 174.106463 109.481815 
L 175.121009 109.481815 
L 175.121009 126.678185 
L 176.135554 126.678185 
L 176.135554 127.409946 
L 177.150099 127.409946 
L 177.150099 116.433539 
L 178.164645 116.433539 
L 178.164645 136.191071 
L 179.17919 136.191071 
L 179.17919 134.36167 
L 180.193736 134.36167 
L 180.193736 143.508675 
L 181.208281 143.508675 
L 181.208281 140.581633 
L 182.222827 140.581633 
L 182.222827 146.435717 
L 183.237372 146.435717 
L 183.237372 148.996878 
L 184.251918 148.996878 
L 184.251918 151.19216 
L 185.266463 151.19216 
L 185.266463 161.802686 
L 186.281009 161.802686 
L 186.281009 165.095608 
L 187.295554 165.095608 
L 187.295554 166.193249 
L 188.310099 166.193249 
L 188.310099 178.999056 
L 189.324645 178.999056 
L 189.324645 179.730817 
L 190.33919 179.730817 
L 190.33919 180.828457 
L 191.353736 180.828457 
L 191.353736 186.682541 
L 192.368281 186.682541 
L 192.368281 189.609583 
L 193.382827 189.609583 
L 193.382827 193.268385 
L 194.397372 193.268385 
L 194.397372 199.854229 
L 195.411918 199.854229 
L 195.411918 202.41539 
L 196.426463 202.41539 
L 196.426463 204.976552 
L 197.441009 204.976552 
L 197.441009 206.805953 
L 198.455554 206.805953 
L 198.455554 212.294156 
L 199.470099 212.294156 
L 199.470099 211.196515 
L 200.484645 211.196515 
L 200.484645 214.855318 
L 201.49919 214.855318 
L 201.49919 216.684719 
L 202.513736 216.684719 
L 202.513736 217.782359 
L 203.528281 217.782359 
L 203.528281 218.14824 
L 204.542827 218.14824 
L 204.542827 218.51412 
L 205.557372 218.51412 
L 205.557372 218.88 
L 218.746463 218.88 
L 218.746463 218.51412 
L 219.761009 218.51412 
L 219.761009 214.489437 
L 220.775554 214.489437 
L 220.775554 209.732995 
L 221.790099 209.732995 
L 221.790099 199.488348 
L 222.804645 199.488348 
L 222.804645 203.878911 
L 223.81919 203.878911 
L 223.81919 196.195426 
L 224.833736 196.195426 
L 224.833736 192.170744 
L 225.848281 192.170744 
L 225.848281 191.438984 
L 226.862827 191.438984 
L 226.862827 185.95078 
L 227.877372 185.95078 
L 227.877372 183.023739 
L 228.891918 183.023739 
L 228.891918 185.95078 
L 229.906463 185.95078 
L 229.906463 173.876733 
L 231.935554 173.876733 
L 231.935554 162.534446 
L 232.950099 162.534446 
L 232.950099 167.290889 
L 233.964645 167.290889 
L 233.964645 164.729728 
L 234.97919 164.729728 
L 234.97919 158.509764 
L 235.993736 158.509764 
L 235.993736 158.143884 
L 237.008281 158.143884 
L 237.008281 150.460399 
L 238.022827 150.460399 
L 238.022827 149.728639 
L 239.037372 149.728639 
L 239.037372 149.362759 
L 240.051918 149.362759 
L 240.051918 141.679274 
L 241.066463 141.679274 
L 241.066463 146.435717 
L 242.081009 146.435717 
L 242.081009 133.995789 
L 243.095554 133.995789 
L 243.095554 147.533358 
L 244.110099 147.533358 
L 244.110099 129.971107 
L 245.124645 129.971107 
L 245.124645 127.775826 
L 246.13919 127.775826 
L 246.13919 129.239347 
L 247.153736 129.239347 
L 247.153736 129.605227 
L 248.168281 129.605227 
L 248.168281 116.799419 
L 249.182827 116.799419 
L 249.182827 118.994701 
L 250.197372 118.994701 
L 250.197372 103.627731 
L 251.211918 103.627731 
L 251.211918 115.335898 
L 252.226463 115.335898 
L 252.226463 109.481815 
L 253.241009 109.481815 
L 253.241009 106.920653 
L 254.255554 106.920653 
L 254.255554 116.799419 
L 255.270099 116.799419 
L 255.270099 110.945336 
L 256.284645 110.945336 
L 256.284645 112.408857 
L 257.29919 112.408857 
L 257.29919 110.945336 
L 258.313736 110.945336 
L 258.313736 91.919564 
L 259.328281 91.919564 
L 259.328281 93.748966 
L 260.342827 93.748966 
L 260.342827 98.871289 
L 261.357372 98.871289 
L 261.357372 96.676007 
L 262.371918 96.676007 
L 262.371918 101.43245 
L 263.386463 101.43245 
L 263.386463 97.041887 
L 264.401009 97.041887 
L 264.401009 95.212486 
L 265.415554 95.212486 
L 265.415554 98.505408 
L 266.430099 98.505408 
L 266.430099 101.06657 
L 267.444645 101.06657 
L 267.444645 107.652414 
L 268.45919 107.652414 
L 268.45919 105.091252 
L 269.473736 105.091252 
L 269.473736 102.530091 
L 270.488281 102.530091 
L 270.488281 99.968929 
L 271.502827 99.968929 
L 271.502827 99.237169 
L 272.517372 99.237169 
L 272.517372 113.872377 
L 273.531918 113.872377 
L 273.531918 106.920653 
L 274.546463 106.920653 
L 274.546463 116.799419 
L 275.561009 116.799419 
L 275.561009 115.701779 
L 276.575554 115.701779 
L 276.575554 113.140617 
L 277.590099 113.140617 
L 277.590099 111.311216 
L 278.604645 111.311216 
L 278.604645 123.385263 
L 279.61919 123.385263 
L 279.61919 104.725372 
L 280.633736 104.725372 
L 280.633736 111.677096 
L 281.648281 111.677096 
L 281.648281 123.019383 
L 282.662827 123.019383 
L 282.662827 127.044065 
L 283.677372 127.044065 
L 283.677372 126.678185 
L 284.691918 126.678185 
L 284.691918 117.89706 
L 285.706463 117.89706 
L 285.706463 128.141706 
L 286.721009 128.141706 
L 286.721009 117.89706 
L 287.735554 117.89706 
L 287.735554 117.165299 
L 288.750099 117.165299 
L 288.750099 118.994701 
L 289.764645 118.994701 
L 289.764645 130.702868 
L 290.77919 130.702868 
L 290.77919 126.678185 
L 291.793736 126.678185 
L 291.793736 125.946425 
L 292.808281 125.946425 
L 292.808281 132.166388 
L 293.822827 132.166388 
L 293.822827 132.532269 
L 294.837372 132.532269 
L 294.837372 127.044065 
L 295.851918 127.044065 
L 295.851918 114.604138 
L 296.866463 114.604138 
L 296.866463 131.800508 
L 297.881009 131.800508 
L 297.881009 136.191071 
L 298.895554 136.191071 
L 298.895554 133.995789 
L 299.910099 133.995789 
L 299.910099 140.947514 
L 300.924645 140.947514 
L 300.924645 139.483993 
L 301.93919 139.483993 
L 301.93919 133.995789 
L 302.953736 133.995789 
L 302.953736 140.947514 
L 303.968281 140.947514 
L 303.968281 136.922831 
L 304.982827 136.922831 
L 304.982827 142.045154 
L 305.997372 142.045154 
L 305.997372 151.19216 
L 307.011918 151.19216 
L 307.011918 141.679274 
L 308.026463 141.679274 
L 308.026463 143.874555 
L 309.041009 143.874555 
L 309.041009 147.899238 
L 310.055554 147.899238 
L 310.055554 150.826279 
L 311.070099 150.826279 
L 311.070099 152.655681 
L 312.084645 152.655681 
L 312.084645 144.606316 
L 313.09919 144.606316 
L 313.09919 148.630998 
L 314.113736 148.630998 
L 314.113736 153.021561 
L 316.142827 153.021561 
L 316.142827 153.753321 
L 317.157372 153.753321 
L 317.157372 154.119201 
L 318.171918 154.119201 
L 318.171918 162.534446 
L 319.186463 162.534446 
L 319.186463 158.509764 
L 320.201009 158.509764 
L 320.201009 154.119201 
L 321.215554 154.119201 
L 321.215554 153.753321 
L 322.230099 153.753321 
L 322.230099 162.900327 
L 323.244645 162.900327 
L 323.244645 161.802686 
L 324.25919 161.802686 
L 324.25919 164.363848 
L 325.273736 164.363848 
L 325.273736 165.827368 
L 326.288281 165.827368 
L 326.288281 166.559129 
L 327.302827 166.559129 
L 327.302827 168.02265 
L 328.317372 168.02265 
L 328.317372 172.779093 
L 329.331918 172.779093 
L 329.331918 170.949691 
L 330.346463 170.949691 
L 330.346463 169.486171 
L 331.361009 169.486171 
L 331.361009 180.096697 
L 332.375554 180.096697 
L 332.375554 176.072015 
L 333.390099 176.072015 
L 333.390099 173.510853 
L 334.404645 173.510853 
L 334.404645 174.974374 
L 335.41919 174.974374 
L 335.41919 182.291978 
L 336.433736 182.291978 
L 336.433736 187.414301 
L 337.448281 187.414301 
L 337.448281 181.926098 
L 338.462827 181.926098 
L 338.462827 191.804864 
L 339.477372 191.804864 
L 339.477372 193.268385 
L 340.491918 193.268385 
L 340.491918 192.536624 
L 341.506463 192.536624 
L 341.506463 192.902505 
L 342.521009 192.902505 
L 342.521009 197.293067 
L 343.535554 197.293067 
L 343.535554 201.68363 
L 344.550099 201.68363 
L 344.550099 196.561307 
L 345.564645 196.561307 
L 345.564645 197.293067 
L 346.57919 197.293067 
L 346.57919 205.708312 
L 347.593736 205.708312 
L 347.593736 206.074192 
L 348.608281 206.074192 
L 348.608281 206.440073 
L 349.622827 206.440073 
L 349.622827 204.976552 
L 350.637372 204.976552 
L 350.637372 203.513031 
L 351.651918 203.513031 
L 351.651918 207.171833 
L 352.666463 207.171833 
L 352.666463 212.660036 
L 353.681009 212.660036 
L 353.681009 210.464755 
L 354.695554 210.464755 
L 354.695554 215.221198 
L 356.724645 215.221198 
L 356.724645 213.025917 
L 358.753736 213.025917 
L 358.753736 215.587078 
L 359.768281 215.587078 
L 359.768281 217.416479 
L 360.782827 217.416479 
L 360.782827 216.684719 
L 361.797372 216.684719 
L 361.797372 217.782359 
L 362.811918 217.782359 
L 362.811918 218.88 
L 363.826463 218.88 
L 363.826463 217.782359 
L 364.841009 217.782359 
L 364.841009 218.14824 
L 365.855554 218.14824 
L 365.855554 217.782359 
L 366.870099 217.782359 
L 366.870099 217.782359 
" clip-path="url(#p72b568156b)" style="fill: none; stroke: #1f77b4; stroke-width: 1.5; stroke-linecap: square"/>
   </g>
   <g id="patch_3">
    <path d="M 47.288281 228.96 
L 47.288281 7.2 
" style="fill: none; stroke: #000000; stroke-width: 0.8; stroke-linejoin: miter; stroke-linecap: square"/>
   </g>
   <g id="patch_4">
    <path d="M 382.088281 228.96 
L 382.088281 7.2 
" style="fill: none; stroke: #000000; stroke-width: 0.8; stroke-linejoin: miter; stroke-linecap: square"/>
   </g>
   <g id="patch_5">
    <path d="M 47.288281 228.96 
L 382.088281 228.96 
" style="fill: none; stroke: #000000; stroke-width: 0.8; stroke-linejoin: miter; stroke-linecap: square"/>
   </g>
   <g id="patch_6">
    <path d="M 47.288281 7.2 
L 382.088281 7.2 
" style="fill: none; stroke: #000000; stroke-width: 0.8; stroke-linejoin: miter; stroke-linecap: square"/>
   </g>
  </g>
 </g>
 <defs>
  <clipPath id="p72b568156b">
   <rect x="47.288281" y="7.2" width="334.8" height="221.76"/>
  </clipPath>
 </defs>
</svg>
