<?xml version="1.0" encoding="utf-8" standalone="no"?>
<!DOCTYPE svg PUBLIC "-//W3C//DTD SVG 1.1//EN"
  "http://www.w3.org/Graphics/SVG/1.1/DTD/svg11.dtd">
<svg xmlns:xlink="http://www.w3.org/1999/xlink" width="399.608554pt" height="266.794375pt" viewBox="0 0 399.608554 266.794375" xmlns="http://www.w3.org/2000/svg" version="1.1">
 <metadata>
  <rdf:RDF xmlns:dc="http://purl.org/dc/elements/1.1/" xmlns:cc="http://creativecommons.org/ns#" xmlns:rdf="http://www.w3.org/1999/02/22-rdf-syntax-ns#">
   <cc:Work>
    <dc:type rdf:resource="http://purl.org/dc/dcmitype/StillImage"/>
    <dc:date>2026-06-18T08:05:08.711360</dc:date>
    <dc:format>image/svg+xml</dc:format>
    <dc:creator>
     <cc:Agent>
      <dc:title>Matplotlib v3.10.9, https://matplotlib.org/</dc:title>
     </cc:Agent>
    </dc:creator>
   </cc:Work>
  </rdf:RDF>
 </metadata>
 <defs>
  <style type="text/css">*{stroke-linejoin: round; stroke-linecap: butt}</style>
 </defs>
 <g id="figure_1">
  <g id="patch_1">
   <path d="M 0 266.794375 
L 399.608554 266.794375 
L 399.608554 0 
L 0 0 
z
" style="fill: #ffffff"/>
  </g>
  <g id="axes_1">
   <g id="patch_2">
    <path d="M 46.965625 228.96 
L 381.765625 228.96 
L 381.765625 7.2 
L 46.965625 7.2 
z
" style="fill: #ffffff"/>
   </g>
   <g id="matplotlib.axis_1">
    <g id="xtick_1">
     <g id="line2d_1">
      <defs>
       <path id="md3efe8d1f0" d="M 0 0 
L 0 3.5 
" style="stroke: #000000; stroke-width: 0.8"/>
      </defs>
      <g>
       <use xlink:href="#md3efe8d1f0" x="83.784327" y="228.96" style="stroke: #000000; stroke-width: 0.8"/>
      </g>
     </g>
     <g id="text_1">
      <!-- 20000 -->
      <g transform="translate(67.878077 243.558437) scale(0.1 -0.1)">
       <defs>
        <path id="DejaVuSans-32" d="M 1228 531 
L 3431 531 
L 3431 0 
L 469 0 
L 469 531 
Q 828 903 1448 1529 
Q 2069 2156 2228 2338 
Q 2531 2678 2651 2914 
Q 2772 3150 2772 3378 
Q 2772 3750 2511 3984 
Q 2250 4219 1831 4219 
Q 1534 4219 1204 4116 
Q 875 4013 500 3803 
L 500 4441 
Q 881 4594 1212 4672 
Q 1544 4750 1819 4750 
Q 2544 4750 2975 4387 
Q 3406 4025 3406 3419 
Q 3406 3131 3298 2873 
Q 3191 2616 2906 2266 
Q 2828 2175 2409 1742 
Q 1991 1309 1228 531 
z
" transform="scale(0.015625)"/>
        <path id="DejaVuSans-30" d="M 2034 4250 
Q 1547 4250 1301 3770 
Q 1056 3291 1056 2328 
Q 1056 1369 1301 889 
Q 1547 409 2034 409 
Q 2525 409 2770 889 
Q 3016 1369 3016 2328 
Q 3016 3291 2770 3770 
Q 2525 4250 2034 4250 
z
M 2034 4750 
Q 2819 4750 3233 4129 
Q 3647 3509 3647 2328 
Q 3647 1150 3233 529 
Q 2819 -91 2034 -91 
Q 1250 -91 836 529 
Q 422 1150 422 2328 
Q 422 3509 836 4129 
Q 1250 4750 2034 4750 
z
" transform="scale(0.015625)"/>
       </defs>
       <use xlink:href="#DejaVuSans-32"/>
       <use xlink:href="#DejaVuSans-30" transform="translate(63.623047 0)"/>
       <use xlink:href="#DejaVuSans-30" transform="translate(127.246094 0)"/>
       <use xlink:href="#DejaVuSans-30" transform="translate(190.869141 0)"/>
       <use xlink:href="#DejaVuSans-30" transform="translate(254.492188 0)"/>
      </g>
     </g>
    </g>
    <g id="xtick_2">
     <g id="line2d_2">
      <g>
       <use xlink:href="#md3efe8d1f0" x="142.327923" y="228.96" style="stroke: #000000; stroke-width: 0.8"/>
      </g>
     </g>
     <g id="text_2">
      <!-- 30000 -->
      <g transform="translate(126.421673 243.558437) scale(0.1 -0.1)">
       <defs>
        <path id="DejaVuSans-33" d="M 2597 2516 
Q 3050 2419 3304 2112 
Q 3559 1806 3559 1356 
Q 3559 666 3084 287 
Q 2609 -91 1734 -91 
Q 1441 -91 1130 -33 
Q 819 25 488 141 
L 488 750 
Q 750 597 1062 519 
Q 1375 441 1716 441 
Q 2309 441 2620 675 
Q 2931 909 2931 1356 
Q 2931 1769 2642 2001 
Q 2353 2234 1838 2234 
L 1294 2234 
L 1294 2753 
L 1863 2753 
Q 2328 2753 2575 2939 
Q 2822 3125 2822 3475 
Q 2822 3834 2567 4026 
Q 2313 4219 1838 4219 
Q 1578 4219 1281 4162 
Q 984 4106 628 3988 
L 628 4550 
Q 988 4650 1302 4700 
Q 1616 4750 1894 4750 
Q 2613 4750 3031 4423 
Q 3450 4097 3450 3541 
Q 3450 3153 3228 2886 
Q 3006 2619 2597 2516 
z
" transform="scale(0.015625)"/>
       </defs>
       <use xlink:href="#DejaVuSans-33"/>
       <use xlink:href="#DejaVuSans-30" transform="translate(63.623047 0)"/>
       <use xlink:href="#DejaVuSans-30" transform="translate(127.246094 0)"/>
       <use xlink:href="#DejaVuSans-30" transform="translate(190.869141 0)"/>
       <use xlink:href="#DejaVuSans-30" transform="translate(254.492188 0)"/>
      </g>
     </g>
    </g>
    <g id="xtick_3">
     <g id="line2d_3">
      <g>
       <use xlink:href="#md3efe8d1f0" x="200.871518" y="228.96" style="stroke: #000000; stroke-width: 0.8"/>
      </g>
     </g>
     <g id="text_3">
      <!-- 40000 -->
      <g transform="translate(184.965268 243.558437) scale(0.1 -0.1)">
       <defs>
        <path id="DejaVuSans-34" d="M 2419 4116 
L 825 1625 
L 2419 1625 
L 2419 4116 
z
M 2253 4666 
L 3047 4666 
L 3047 1625 
L 3713 1625 
L 3713 1100 
L 3047 1100 
L 3047 0 
L 2419 0 
L 2419 1100 
L 313 1100 
L 313 1709 
L 2253 4666 
z
" transform="scale(0.015625)"/>
       </defs>
       <use xlink:href="#DejaVuSans-34"/>
       <use xlink:href="#DejaVuSans-30" transform="translate(63.623047 0)"/>
       <use xlink:href="#DejaVuSans-30" transform="translate(127.246094 0)"/>
       <use xlink:href="#DejaVuSans-30" transform="translate(190.869141 0)"/>
       <use xlink:href="#DejaVuSans-30" transform="translate(254.492188 0)"/>
      </g>
     </g>
    </g>
    <g id="xtick_4">
     <g id="line2d_4">
      <g>
       <use xlink:href="#md3efe8d1f0" x="259.415113" y="228.96" style="stroke: #000000; stroke-width: 0.8"/>
      </g>
     </g>
     <g id="text_4">
      <!-- 50000 -->
      <g transform="translate(243.508863 243.558437) scale(0.1 -0.1)">
       <defs>
        <path id="DejaVuSans-35" d="M 691 4666 
L 3169 4666 
L 3169 4134 
L 1269 4134 
L 1269 2991 
Q 1406 3038 1543 3061 
Q 1681 3084 1819 3084 
Q 2600 3084 3056 2656 
Q 3513 2228 3513 1497 
Q 3513 744 3044 326 
Q 2575 -91 1722 -91 
Q 1428 -91 1123 -41 
Q 819 9 494 109 
L 494 744 
Q 775 591 1075 516 
Q 1375 441 1709 441 
Q 2250 441 2565 725 
Q 2881 1009 2881 1497 
Q 2881 1984 2565 2268 
Q 2250 2553 1709 2553 
Q 1456 2553 1204 2497 
Q 953 2441 691 2322 
L 691 4666 
z
" transform="scale(0.015625)"/>
       </defs>
       <use xlink:href="#DejaVuSans-35"/>
       <use xlink:href="#DejaVuSans-30" transform="translate(63.623047 0)"/>
       <use xlink:href="#DejaVuSans-30" transform="translate(127.246094 0)"/>
       <use xlink:href="#DejaVuSans-30" transform="translate(190.869141 0)"/>
       <use xlink:href="#DejaVuSans-30" transform="translate(254.492188 0)"/>
      </g>
     </g>
    </g>
    <g id="xtick_5">
     <g id="line2d_5">
      <g>
       <use xlink:href="#md3efe8d1f0" x="317.958709" y="228.96" style="stroke: #000000; stroke-width: 0.8"/>
      </g>
     </g>
     <g id="text_5">
      <!-- 60000 -->
      <g transform="translate(302.052459 243.558437) scale(0.1 -0.1)">
       <defs>
        <path id="DejaVuSans-36" d="M 2113 2584 
Q 1688 2584 1439 2293 
Q 1191 2003 1191 1497 
Q 1191 994 1439 701 
Q 1688 409 2113 409 
Q 2538 409 2786 701 
Q 3034 994 3034 1497 
Q 3034 2003 2786 2293 
Q 2538 2584 2113 2584 
z
M 3366 4563 
L 3366 3988 
Q 3128 4100 2886 4159 
Q 2644 4219 2406 4219 
Q 1781 4219 1451 3797 
Q 1122 3375 1075 2522 
Q 1259 2794 1537 2939 
Q 1816 3084 2150 3084 
Q 2853 3084 3261 2657 
Q 3669 2231 3669 1497 
Q 3669 778 3244 343 
Q 2819 -91 2113 -91 
Q 1303 -91 875 529 
Q 447 1150 447 2328 
Q 447 3434 972 4092 
Q 1497 4750 2381 4750 
Q 2619 4750 2861 4703 
Q 3103 4656 3366 4563 
z
" transform="scale(0.015625)"/>
       </defs>
       <use xlink:href="#DejaVuSans-36"/>
       <use xlink:href="#DejaVuSans-30" transform="translate(63.623047 0)"/>
       <use xlink:href="#DejaVuSans-30" transform="translate(127.246094 0)"/>
       <use xlink:href="#DejaVuSans-30" transform="translate(190.869141 0)"/>
       <use xlink:href="#DejaVuSans-30" transform="translate(254.492188 0)"/>
      </g>
     </g>
    </g>
    <g id="xtick_6">
     <g id="line2d_6">
      <g>
       <use xlink:href="#md3efe8d1f0" x="376.502304" y="228.96" style="stroke: #000000; stroke-width: 0.8"/>
      </g>
     </g>
     <g id="text_6">
      <!-- 70000 -->
      <g transform="translate(360.596054 243.558437) scale(0.1 -0.1)">
       <defs>
        <path id="DejaVuSans-37" d="M 525 4666 
L 3525 4666 
L 3525 4397 
L 1831 0 
L 1172 0 
L 2766 4134 
L 525 4134 
L 525 4666 
z
" transform="scale(0.015625)"/>
       </defs>
       <use xlink:href="#DejaVuSans-37"/>
       <use xlink:href="#DejaVuSans-30" transform="translate(63.623047 0)"/>
       <use xlink:href="#DejaVuSans-30" transform="translate(127.246094 0)"/>
       <use xlink:href="#DejaVuSans-30" transform="translate(190.869141 0)"/>
       <use xlink:href="#DejaVuSans-30" transform="translate(254.492188 0)"/>
      </g>
     </g>
    </g>
    <g id="text_7">
     <!-- event_time_offset [µs] -->
     <g transform="translate(158.330469 257.236562) scale(0.1 -0.1)">
      <defs>
       <path id="DejaVuSans-65" d="M 3597 1894 
L 3597 1613 
L 953 1613 
Q 991 1019 1311 708 
Q 1631 397 2203 397 
Q 2534 397 2845 478 
Q 3156 559 3463 722 
L 3463 178 
Q 3153 47 2828 -22 
Q 2503 -91 2169 -91 
Q 1331 -91 842 396 
Q 353 884 353 1716 
Q 353 2575 817 3079 
Q 1281 3584 2069 3584 
Q 2775 3584 3186 3129 
Q 3597 2675 3597 1894 
z
M 3022 2063 
Q 3016 2534 2758 2815 
Q 2500 3097 2075 3097 
Q 1594 3097 1305 2825 
Q 1016 2553 972 2059 
L 3022 2063 
z
" transform="scale(0.015625)"/>
       <path id="DejaVuSans-76" d="M 191 3500 
L 800 3500 
L 1894 563 
L 2988 3500 
L 3597 3500 
L 2284 0 
L 1503 0 
L 191 3500 
z
" transform="scale(0.015625)"/>
       <path id="DejaVuSans-6e" d="M 3513 2113 
L 3513 0 
L 2938 0 
L 2938 2094 
Q 2938 2591 2744 2837 
Q 2550 3084 2163 3084 
Q 1697 3084 1428 2787 
Q 1159 2491 1159 1978 
L 1159 0 
L 581 0 
L 581 3500 
L 1159 3500 
L 1159 2956 
Q 1366 3272 1645 3428 
Q 1925 3584 2291 3584 
Q 2894 3584 3203 3211 
Q 3513 2838 3513 2113 
z
" transform="scale(0.015625)"/>
       <path id="DejaVuSans-74" d="M 1172 4494 
L 1172 3500 
L 2356 3500 
L 2356 3053 
L 1172 3053 
L 1172 1153 
Q 1172 725 1289 603 
Q 1406 481 1766 481 
L 2356 481 
L 2356 0 
L 1766 0 
Q 1100 0 847 248 
Q 594 497 594 1153 
L 594 3053 
L 172 3053 
L 172 3500 
L 594 3500 
L 594 4494 
L 1172 4494 
z
" transform="scale(0.015625)"/>
       <path id="DejaVuSans-5f" d="M 3263 -1063 
L 3263 -1509 
L -63 -1509 
L -63 -1063 
L 3263 -1063 
z
" transform="scale(0.015625)"/>
       <path id="DejaVuSans-69" d="M 603 3500 
L 1178 3500 
L 1178 0 
L 603 0 
L 603 3500 
z
M 603 4863 
L 1178 4863 
L 1178 4134 
L 603 4134 
L 603 4863 
z
" transform="scale(0.015625)"/>
       <path id="DejaVuSans-6d" d="M 3328 2828 
Q 3544 3216 3844 3400 
Q 4144 3584 4550 3584 
Q 5097 3584 5394 3201 
Q 5691 2819 5691 2113 
L 5691 0 
L 5113 0 
L 5113 2094 
Q 5113 2597 4934 2840 
Q 4756 3084 4391 3084 
Q 3944 3084 3684 2787 
Q 3425 2491 3425 1978 
L 3425 0 
L 2847 0 
L 2847 2094 
Q 2847 2600 2669 2842 
Q 2491 3084 2119 3084 
Q 1678 3084 1418 2786 
Q 1159 2488 1159 1978 
L 1159 0 
L 581 0 
L 581 3500 
L 1159 3500 
L 1159 2956 
Q 1356 3278 1631 3431 
Q 1906 3584 2284 3584 
Q 2666 3584 2933 3390 
Q 3200 3197 3328 2828 
z
" transform="scale(0.015625)"/>
       <path id="DejaVuSans-6f" d="M 1959 3097 
Q 1497 3097 1228 2736 
Q 959 2375 959 1747 
Q 959 1119 1226 758 
Q 1494 397 1959 397 
Q 2419 397 2687 759 
Q 2956 1122 2956 1747 
Q 2956 2369 2687 2733 
Q 2419 3097 1959 3097 
z
M 1959 3584 
Q 2709 3584 3137 3096 
Q 3566 2609 3566 1747 
Q 3566 888 3137 398 
Q 2709 -91 1959 -91 
Q 1206 -91 779 398 
Q 353 888 353 1747 
Q 353 2609 779 3096 
Q 1206 3584 1959 3584 
z
" transform="scale(0.015625)"/>
       <path id="DejaVuSans-66" d="M 2375 4863 
L 2375 4384 
L 1825 4384 
Q 1516 4384 1395 4259 
Q 1275 4134 1275 3809 
L 1275 3500 
L 2222 3500 
L 2222 3053 
L 1275 3053 
L 1275 0 
L 697 0 
L 697 3053 
L 147 3053 
L 147 3500 
L 697 3500 
L 697 3744 
Q 697 4328 969 4595 
Q 1241 4863 1831 4863 
L 2375 4863 
z
" transform="scale(0.015625)"/>
       <path id="DejaVuSans-73" d="M 2834 3397 
L 2834 2853 
Q 2591 2978 2328 3040 
Q 2066 3103 1784 3103 
Q 1356 3103 1142 2972 
Q 928 2841 928 2578 
Q 928 2378 1081 2264 
Q 1234 2150 1697 2047 
L 1894 2003 
Q 2506 1872 2764 1633 
Q 3022 1394 3022 966 
Q 3022 478 2636 193 
Q 2250 -91 1575 -91 
Q 1294 -91 989 -36 
Q 684 19 347 128 
L 347 722 
Q 666 556 975 473 
Q 1284 391 1588 391 
Q 1994 391 2212 530 
Q 2431 669 2431 922 
Q 2431 1156 2273 1281 
Q 2116 1406 1581 1522 
L 1381 1569 
Q 847 1681 609 1914 
Q 372 2147 372 2553 
Q 372 3047 722 3315 
Q 1072 3584 1716 3584 
Q 2034 3584 2315 3537 
Q 2597 3491 2834 3397 
z
" transform="scale(0.015625)"/>
       <path id="DejaVuSans-20" transform="scale(0.015625)"/>
       <path id="DejaVuSans-5b" d="M 550 4863 
L 1875 4863 
L 1875 4416 
L 1125 4416 
L 1125 -397 
L 1875 -397 
L 1875 -844 
L 550 -844 
L 550 4863 
z
" transform="scale(0.015625)"/>
       <path id="DejaVuSans-b5" d="M 544 -1331 
L 544 3500 
L 1119 3500 
L 1119 1325 
Q 1119 872 1334 640 
Q 1550 409 1972 409 
Q 2434 409 2667 671 
Q 2900 934 2900 1459 
L 2900 3500 
L 3475 3500 
L 3475 806 
Q 3475 619 3529 530 
Q 3584 441 3700 441 
Q 3728 441 3778 458 
Q 3828 475 3916 513 
L 3916 50 
Q 3788 -22 3673 -56 
Q 3559 -91 3450 -91 
Q 3234 -91 3106 31 
Q 2978 153 2931 403 
Q 2775 156 2548 32 
Q 2322 -91 2016 -91 
Q 1697 -91 1473 31 
Q 1250 153 1119 397 
L 1119 -1331 
L 544 -1331 
z
" transform="scale(0.015625)"/>
       <path id="DejaVuSans-5d" d="M 1947 4863 
L 1947 -844 
L 622 -844 
L 622 -397 
L 1369 -397 
L 1369 4416 
L 622 4416 
L 622 4863 
L 1947 4863 
z
" transform="scale(0.015625)"/>
      </defs>
      <use xlink:href="#DejaVuSans-65"/>
      <use xlink:href="#DejaVuSans-76" transform="translate(61.523438 0)"/>
      <use xlink:href="#DejaVuSans-65" transform="translate(120.703125 0)"/>
      <use xlink:href="#DejaVuSans-6e" transform="translate(182.226562 0)"/>
      <use xlink:href="#DejaVuSans-74" transform="translate(245.605469 0)"/>
      <use xlink:href="#DejaVuSans-5f" transform="translate(284.814453 0)"/>
      <use xlink:href="#DejaVuSans-74" transform="translate(334.814453 0)"/>
      <use xlink:href="#DejaVuSans-69" transform="translate(374.023438 0)"/>
      <use xlink:href="#DejaVuSans-6d" transform="translate(401.806641 0)"/>
      <use xlink:href="#DejaVuSans-65" transform="translate(499.21875 0)"/>
      <use xlink:href="#DejaVuSans-5f" transform="translate(560.742188 0)"/>
      <use xlink:href="#DejaVuSans-6f" transform="translate(610.742188 0)"/>
      <use xlink:href="#DejaVuSans-66" transform="translate(671.923828 0)"/>
      <use xlink:href="#DejaVuSans-66" transform="translate(707.128906 0)"/>
      <use xlink:href="#DejaVuSans-73" transform="translate(742.333984 0)"/>
      <use xlink:href="#DejaVuSans-65" transform="translate(794.433594 0)"/>
      <use xlink:href="#DejaVuSans-74" transform="translate(855.957031 0)"/>
      <use xlink:href="#DejaVuSans-20" transform="translate(895.166016 0)"/>
      <use xlink:href="#DejaVuSans-5b" transform="translate(926.953125 0)"/>
      <use xlink:href="#DejaVuSans-b5" transform="translate(965.966797 0)"/>
      <use xlink:href="#DejaVuSans-73" transform="translate(1029.589844 0)"/>
      <use xlink:href="#DejaVuSans-5d" transform="translate(1081.689453 0)"/>
     </g>
    </g>
   </g>
   <g id="matplotlib.axis_2">
    <g id="ytick_1">
     <g id="line2d_7">
      <defs>
       <path id="m6fa508d64c" d="M 0 0 
L -3.5 0 
" style="stroke: #000000; stroke-width: 0.8"/>
      </defs>
      <g>
       <use xlink:href="#m6fa508d64c" x="46.965625" y="218.88" style="stroke: #000000; stroke-width: 0.8"/>
      </g>
     </g>
     <g id="text_8">
      <!-- 0 -->
      <g transform="translate(33.603125 222.679219) scale(0.1 -0.1)">
       <use xlink:href="#DejaVuSans-30"/>
      </g>
     </g>
    </g>
    <g id="ytick_2">
     <g id="line2d_8">
      <g>
       <use xlink:href="#m6fa508d64c" x="46.965625" y="184.594286" style="stroke: #000000; stroke-width: 0.8"/>
      </g>
     </g>
     <g id="text_9">
      <!-- 100 -->
      <g transform="translate(20.878125 188.393504) scale(0.1 -0.1)">
       <defs>
        <path id="DejaVuSans-31" d="M 794 531 
L 1825 531 
L 1825 4091 
L 703 3866 
L 703 4441 
L 1819 4666 
L 2450 4666 
L 2450 531 
L 3481 531 
L 3481 0 
L 794 0 
L 794 531 
z
" transform="scale(0.015625)"/>
       </defs>
       <use xlink:href="#DejaVuSans-31"/>
       <use xlink:href="#DejaVuSans-30" transform="translate(63.623047 0)"/>
       <use xlink:href="#DejaVuSans-30" transform="translate(127.246094 0)"/>
      </g>
     </g>
    </g>
    <g id="ytick_3">
     <g id="line2d_9">
      <g>
       <use xlink:href="#m6fa508d64c" x="46.965625" y="150.308571" style="stroke: #000000; stroke-width: 0.8"/>
      </g>
     </g>
     <g id="text_10">
      <!-- 200 -->
      <g transform="translate(20.878125 154.10779) scale(0.1 -0.1)">
       <use xlink:href="#DejaVuSans-32"/>
       <use xlink:href="#DejaVuSans-30" transform="translate(63.623047 0)"/>
       <use xlink:href="#DejaVuSans-30" transform="translate(127.246094 0)"/>
      </g>
     </g>
    </g>
    <g id="ytick_4">
     <g id="line2d_10">
      <g>
       <use xlink:href="#m6fa508d64c" x="46.965625" y="116.022857" style="stroke: #000000; stroke-width: 0.8"/>
      </g>
     </g>
     <g id="text_11">
      <!-- 300 -->
      <g transform="translate(20.878125 119.822076) scale(0.1 -0.1)">
       <use xlink:href="#DejaVuSans-33"/>
       <use xlink:href="#DejaVuSans-30" transform="translate(63.623047 0)"/>
       <use xlink:href="#DejaVuSans-30" transform="translate(127.246094 0)"/>
      </g>
     </g>
    </g>
    <g id="ytick_5">
     <g id="line2d_11">
      <g>
       <use xlink:href="#m6fa508d64c" x="46.965625" y="81.737143" style="stroke: #000000; stroke-width: 0.8"/>
      </g>
     </g>
     <g id="text_12">
      <!-- 400 -->
      <g transform="translate(20.878125 85.536362) scale(0.1 -0.1)">
       <use xlink:href="#DejaVuSans-34"/>
       <use xlink:href="#DejaVuSans-30" transform="translate(63.623047 0)"/>
       <use xlink:href="#DejaVuSans-30" transform="translate(127.246094 0)"/>
      </g>
     </g>
    </g>
    <g id="ytick_6">
     <g id="line2d_12">
      <g>
       <use xlink:href="#m6fa508d64c" x="46.965625" y="47.451429" style="stroke: #000000; stroke-width: 0.8"/>
      </g>
     </g>
     <g id="text_13">
      <!-- 500 -->
      <g transform="translate(20.878125 51.250647) scale(0.1 -0.1)">
       <use xlink:href="#DejaVuSans-35"/>
       <use xlink:href="#DejaVuSans-30" transform="translate(63.623047 0)"/>
       <use xlink:href="#DejaVuSans-30" transform="translate(127.246094 0)"/>
      </g>
     </g>
    </g>
    <g id="ytick_7">
     <g id="line2d_13">
      <g>
       <use xlink:href="#m6fa508d64c" x="46.965625" y="13.165714" style="stroke: #000000; stroke-width: 0.8"/>
      </g>
     </g>
     <g id="text_14">
      <!-- 600 -->
      <g transform="translate(20.878125 16.964933) scale(0.1 -0.1)">
       <use xlink:href="#DejaVuSans-36"/>
       <use xlink:href="#DejaVuSans-30" transform="translate(63.623047 0)"/>
       <use xlink:href="#DejaVuSans-30" transform="translate(127.246094 0)"/>
      </g>
     </g>
    </g>
    <g id="text_15">
     <!-- [counts] -->
     <g transform="translate(14.798438 138.6925) rotate(-90) scale(0.1 -0.1)">
      <defs>
       <path id="DejaVuSans-63" d="M 3122 3366 
L 3122 2828 
Q 2878 2963 2633 3030 
Q 2388 3097 2138 3097 
Q 1578 3097 1268 2742 
Q 959 2388 959 1747 
Q 959 1106 1268 751 
Q 1578 397 2138 397 
Q 2388 397 2633 464 
Q 2878 531 3122 666 
L 3122 134 
Q 2881 22 2623 -34 
Q 2366 -91 2075 -91 
Q 1284 -91 818 406 
Q 353 903 353 1747 
Q 353 2603 823 3093 
Q 1294 3584 2113 3584 
Q 2378 3584 2631 3529 
Q 2884 3475 3122 3366 
z
" transform="scale(0.015625)"/>
       <path id="DejaVuSans-75" d="M 544 1381 
L 544 3500 
L 1119 3500 
L 1119 1403 
Q 1119 906 1312 657 
Q 1506 409 1894 409 
Q 2359 409 2629 706 
Q 2900 1003 2900 1516 
L 2900 3500 
L 3475 3500 
L 3475 0 
L 2900 0 
L 2900 538 
Q 2691 219 2414 64 
Q 2138 -91 1772 -91 
Q 1169 -91 856 284 
Q 544 659 544 1381 
z
M 1991 3584 
L 1991 3584 
z
" transform="scale(0.015625)"/>
      </defs>
      <use xlink:href="#DejaVuSans-5b"/>
      <use xlink:href="#DejaVuSans-63" transform="translate(39.013672 0)"/>
      <use xlink:href="#DejaVuSans-6f" transform="translate(93.994141 0)"/>
      <use xlink:href="#DejaVuSans-75" transform="translate(155.175781 0)"/>
      <use xlink:href="#DejaVuSans-6e" transform="translate(218.554688 0)"/>
      <use xlink:href="#DejaVuSans-74" transform="translate(281.933594 0)"/>
      <use xlink:href="#DejaVuSans-73" transform="translate(321.142578 0)"/>
      <use xlink:href="#DejaVuSans-5d" transform="translate(373.242188 0)"/>
     </g>
    </g>
   </g>
   <g id="line2d_14">
    <path d="M 62.183807 215.108571 
L 63.198352 215.108571 
L 63.198352 208.251429 
L 64.212898 208.251429 
L 64.212898 201.737143 
L 65.227443 201.737143 
L 65.227443 195.565714 
L 66.241989 195.565714 
L 66.241989 191.794286 
L 67.256534 191.794286 
L 67.256534 189.737143 
L 68.27108 189.737143 
L 68.27108 181.851429 
L 69.285625 181.851429 
L 69.285625 178.765714 
L 70.30017 178.765714 
L 70.30017 169.851429 
L 72.329261 169.851429 
L 72.329261 172.594286 
L 73.343807 172.594286 
L 73.343807 157.165714 
L 74.358352 157.165714 
L 74.358352 147.908571 
L 75.372898 147.908571 
L 75.372898 151.337143 
L 76.387443 151.337143 
L 76.387443 136.251429 
L 77.401989 136.251429 
L 77.401989 138.308571 
L 78.416534 138.308571 
L 78.416534 131.451429 
L 79.43108 131.451429 
L 79.43108 125.28 
L 80.445625 125.28 
L 80.445625 123.565714 
L 81.46017 123.565714 
L 81.46017 104.022857 
L 82.474716 104.022857 
L 82.474716 99.222857 
L 83.489261 99.222857 
L 83.489261 96.137143 
L 84.503807 96.137143 
L 84.503807 109.165714 
L 85.518352 109.165714 
L 85.518352 97.851429 
L 86.532898 97.851429 
L 86.532898 83.451429 
L 87.547443 83.451429 
L 87.547443 80.365714 
L 88.561989 80.365714 
L 88.561989 83.451429 
L 89.576534 83.451429 
L 89.576534 79.337143 
L 90.59108 79.337143 
L 90.59108 72.137143 
L 91.605625 72.137143 
L 91.605625 75.908571 
L 92.62017 75.908571 
L 92.62017 90.308571 
L 93.634716 90.308571 
L 93.634716 64.251429 
L 94.649261 64.251429 
L 94.649261 66.308571 
L 95.663807 66.308571 
L 95.663807 53.28 
L 96.678352 53.28 
L 96.678352 67.337143 
L 97.692898 67.337143 
L 97.692898 46.08 
L 98.707443 46.08 
L 98.707443 62.537143 
L 99.721989 62.537143 
L 99.721989 54.994286 
L 100.736534 54.994286 
L 100.736534 39.222857 
L 101.75108 39.222857 
L 101.75108 56.365714 
L 102.765625 56.365714 
L 102.765625 36.137143 
L 103.78017 36.137143 
L 103.78017 45.051429 
L 104.794716 45.051429 
L 104.794716 33.051429 
L 105.809261 33.051429 
L 105.809261 46.08 
L 106.823807 46.08 
L 106.823807 17.28 
L 107.838352 17.28 
L 107.838352 38.194286 
L 108.852898 38.194286 
L 108.852898 22.765714 
L 109.867443 22.765714 
L 109.867443 33.051429 
L 110.881989 33.051429 
L 110.881989 37.508571 
L 111.896534 37.508571 
L 111.896534 37.851429 
L 112.91108 37.851429 
L 112.91108 40.937143 
L 113.925625 40.937143 
L 113.925625 33.394286 
L 114.94017 33.394286 
L 114.94017 42.308571 
L 115.954716 42.308571 
L 115.954716 40.937143 
L 116.969261 40.937143 
L 116.969261 56.365714 
L 117.983807 56.365714 
L 117.983807 60.48 
L 118.998352 60.48 
L 118.998352 60.137143 
L 120.012898 60.137143 
L 120.012898 53.622857 
L 121.027443 53.622857 
L 121.027443 50.194286 
L 122.041989 50.194286 
L 122.041989 52.594286 
L 123.056534 52.594286 
L 123.056534 62.88 
L 124.07108 62.88 
L 124.07108 63.222857 
L 125.085625 63.222857 
L 125.085625 77.622857 
L 126.10017 77.622857 
L 126.10017 57.737143 
L 127.114716 57.737143 
L 127.114716 60.822857 
L 128.129261 60.822857 
L 128.129261 65.965714 
L 129.143807 65.965714 
L 129.143807 76.251429 
L 130.158352 76.251429 
L 130.158352 64.937143 
L 131.172898 64.937143 
L 131.172898 71.108571 
L 132.187443 71.108571 
L 132.187443 60.48 
L 133.201989 60.48 
L 133.201989 78.994286 
L 134.216534 78.994286 
L 134.216534 73.165714 
L 136.245625 73.165714 
L 136.245625 75.908571 
L 137.26017 75.908571 
L 137.26017 72.48 
L 138.274716 72.48 
L 138.274716 73.851429 
L 139.289261 73.851429 
L 139.289261 80.365714 
L 140.303807 80.365714 
L 140.303807 71.108571 
L 141.318352 71.108571 
L 141.318352 67.68 
L 142.332898 67.68 
L 142.332898 57.737143 
L 143.347443 57.737143 
L 143.347443 67.337143 
L 144.361989 67.337143 
L 144.361989 76.251429 
L 145.376534 76.251429 
L 145.376534 77.965714 
L 146.39108 77.965714 
L 146.39108 66.994286 
L 147.405625 66.994286 
L 147.405625 87.222857 
L 148.42017 87.222857 
L 148.42017 83.794286 
L 149.434716 83.794286 
L 149.434716 94.08 
L 150.449261 94.08 
L 150.449261 76.937143 
L 151.463807 76.937143 
L 151.463807 85.165714 
L 152.478352 85.165714 
L 152.478352 78.994286 
L 153.492898 78.994286 
L 153.492898 88.937143 
L 154.507443 88.937143 
L 154.507443 90.651429 
L 155.521989 90.651429 
L 155.521989 89.28 
L 156.536534 89.28 
L 156.536534 80.708571 
L 157.55108 80.708571 
L 157.55108 88.594286 
L 158.565625 88.594286 
L 158.565625 69.051429 
L 159.58017 69.051429 
L 159.58017 83.451429 
L 160.594716 83.451429 
L 160.594716 70.765714 
L 161.609261 70.765714 
L 161.609261 83.451429 
L 162.623807 83.451429 
L 162.623807 89.28 
L 163.638352 89.28 
L 163.638352 86.194286 
L 164.652898 86.194286 
L 164.652898 108.137143 
L 165.667443 108.137143 
L 165.667443 93.737143 
L 166.681989 93.737143 
L 166.681989 107.794286 
L 167.696534 107.794286 
L 167.696534 109.851429 
L 168.71108 109.851429 
L 168.71108 99.908571 
L 169.725625 99.908571 
L 169.725625 116.022857 
L 170.74017 116.022857 
L 170.74017 102.994286 
L 171.754716 102.994286 
L 171.754716 118.422857 
L 172.769261 118.422857 
L 172.769261 115.68 
L 173.783807 115.68 
L 173.783807 123.222857 
L 174.798352 123.222857 
L 174.798352 127.337143 
L 175.812898 127.337143 
L 175.812898 123.222857 
L 176.827443 123.222857 
L 176.827443 138.651429 
L 177.841989 138.651429 
L 177.841989 148.251429 
L 178.856534 148.251429 
L 178.856534 150.308571 
L 179.87108 150.308571 
L 179.87108 149.965714 
L 180.885625 149.965714 
L 180.885625 150.994286 
L 181.90017 150.994286 
L 181.90017 169.851429 
L 182.914716 169.851429 
L 182.914716 166.422857 
L 183.929261 166.422857 
L 183.929261 172.251429 
L 184.943807 172.251429 
L 184.943807 176.022857 
L 185.958352 176.022857 
L 185.958352 174.308571 
L 186.972898 174.308571 
L 186.972898 184.937143 
L 187.987443 184.937143 
L 187.987443 182.88 
L 189.001989 182.88 
L 189.001989 189.051429 
L 190.016534 189.051429 
L 190.016534 190.422857 
L 191.03108 190.422857 
L 191.03108 194.88 
L 192.045625 194.88 
L 192.045625 200.365714 
L 193.06017 200.365714 
L 193.06017 207.908571 
L 194.074716 207.908571 
L 194.074716 206.194286 
L 195.089261 206.194286 
L 195.089261 208.937143 
L 196.103807 208.937143 
L 196.103807 214.422857 
L 197.118352 214.422857 
L 197.118352 214.765714 
L 198.132898 214.765714 
L 198.132898 217.165714 
L 200.161989 217.165714 
L 200.161989 218.194286 
L 201.176534 218.194286 
L 201.176534 218.537143 
L 202.19108 218.537143 
L 202.19108 218.88 
L 216.394716 218.88 
L 216.394716 218.537143 
L 217.409261 218.537143 
L 217.409261 215.794286 
L 218.423807 215.794286 
L 218.423807 209.965714 
L 219.438352 209.965714 
L 219.438352 208.594286 
L 220.452898 208.594286 
L 220.452898 203.794286 
L 221.467443 203.794286 
L 221.467443 201.737143 
L 222.481989 201.737143 
L 222.481989 189.737143 
L 223.496534 189.737143 
L 223.496534 193.165714 
L 224.51108 193.165714 
L 224.51108 190.765714 
L 225.525625 190.765714 
L 225.525625 178.422857 
L 226.54017 178.422857 
L 226.54017 177.394286 
L 227.554716 177.394286 
L 227.554716 172.594286 
L 228.569261 172.594286 
L 228.569261 169.165714 
L 229.583807 169.165714 
L 229.583807 158.537143 
L 230.598352 158.537143 
L 230.598352 159.222857 
L 231.612898 159.222857 
L 231.612898 166.422857 
L 232.627443 166.422857 
L 232.627443 160.937143 
L 233.641989 160.937143 
L 233.641989 153.737143 
L 234.656534 153.737143 
L 234.656534 152.022857 
L 235.67108 152.022857 
L 235.67108 147.908571 
L 237.70017 147.908571 
L 237.70017 143.108571 
L 238.714716 143.108571 
L 238.714716 141.394286 
L 239.729261 141.394286 
L 239.729261 122.537143 
L 240.743807 122.537143 
L 240.743807 140.365714 
L 241.758352 140.365714 
L 241.758352 124.251429 
L 242.772898 124.251429 
L 242.772898 126.308571 
L 243.787443 126.308571 
L 243.787443 131.108571 
L 244.801989 131.108571 
L 244.801989 126.308571 
L 245.816534 126.308571 
L 245.816534 113.965714 
L 246.83108 113.965714 
L 246.83108 110.537143 
L 247.845625 110.537143 
L 247.845625 104.365714 
L 248.86017 104.365714 
L 248.86017 109.851429 
L 249.874716 109.851429 
L 249.874716 112.251429 
L 250.889261 112.251429 
L 250.889261 117.051429 
L 251.903807 117.051429 
L 251.903807 103.337143 
L 252.918352 103.337143 
L 252.918352 106.422857 
L 253.932898 106.422857 
L 253.932898 100.251429 
L 254.947443 100.251429 
L 254.947443 103.337143 
L 255.961989 103.337143 
L 255.961989 86.88 
L 256.976534 86.88 
L 256.976534 91.337143 
L 257.99108 91.337143 
L 257.99108 96.822857 
L 259.005625 96.822857 
L 259.005625 86.194286 
L 260.02017 86.194286 
L 260.02017 99.565714 
L 261.034716 99.565714 
L 261.034716 100.937143 
L 262.049261 100.937143 
L 262.049261 102.994286 
L 263.063807 102.994286 
L 263.063807 94.422857 
L 264.078352 94.422857 
L 264.078352 97.508571 
L 265.092898 97.508571 
L 265.092898 104.022857 
L 266.107443 104.022857 
L 266.107443 100.594286 
L 267.121989 100.594286 
L 267.121989 103.337143 
L 268.136534 103.337143 
L 268.136534 110.537143 
L 269.15108 110.537143 
L 269.15108 110.88 
L 270.165625 110.88 
L 270.165625 103.68 
L 271.18017 103.68 
L 271.18017 101.965714 
L 272.194716 101.965714 
L 272.194716 103.337143 
L 273.209261 103.337143 
L 273.209261 95.108571 
L 274.223807 95.108571 
L 274.223807 111.908571 
L 275.238352 111.908571 
L 275.238352 109.851429 
L 276.252898 109.851429 
L 276.252898 116.365714 
L 277.267443 116.365714 
L 277.267443 119.794286 
L 278.281989 119.794286 
L 278.281989 120.822857 
L 279.296534 120.822857 
L 279.296534 110.88 
L 280.31108 110.88 
L 280.31108 116.022857 
L 281.325625 116.022857 
L 281.325625 117.737143 
L 282.34017 117.737143 
L 282.34017 111.565714 
L 283.354716 111.565714 
L 283.354716 122.194286 
L 284.369261 122.194286 
L 284.369261 127.337143 
L 285.383807 127.337143 
L 285.383807 122.537143 
L 286.398352 122.537143 
L 286.398352 118.422857 
L 287.412898 118.422857 
L 287.412898 124.594286 
L 288.427443 124.594286 
L 288.427443 129.737143 
L 289.441989 129.737143 
L 289.441989 130.765714 
L 290.456534 130.765714 
L 290.456534 123.908571 
L 291.47108 123.908571 
L 291.47108 127.337143 
L 292.485625 127.337143 
L 292.485625 118.08 
L 293.50017 118.08 
L 293.50017 140.365714 
L 294.514716 140.365714 
L 294.514716 145.851429 
L 295.529261 145.851429 
L 295.529261 127.337143 
L 296.543807 127.337143 
L 296.543807 123.222857 
L 297.558352 123.222857 
L 297.558352 131.794286 
L 298.572898 131.794286 
L 298.572898 141.051429 
L 299.587443 141.051429 
L 299.587443 136.251429 
L 300.601989 136.251429 
L 300.601989 142.765714 
L 301.616534 142.765714 
L 301.616534 134.88 
L 302.63108 134.88 
L 302.63108 144.137143 
L 303.645625 144.137143 
L 303.645625 135.565714 
L 304.66017 135.565714 
L 304.66017 148.251429 
L 305.674716 148.251429 
L 305.674716 142.765714 
L 306.689261 142.765714 
L 306.689261 141.051429 
L 307.703807 141.051429 
L 307.703807 152.708571 
L 308.718352 152.708571 
L 308.718352 153.737143 
L 309.732898 153.737143 
L 309.732898 151.68 
L 310.747443 151.68 
L 310.747443 153.394286 
L 311.761989 153.394286 
L 311.761989 157.165714 
L 312.776534 157.165714 
L 312.776534 149.965714 
L 313.79108 149.965714 
L 313.79108 161.28 
L 314.805625 161.28 
L 314.805625 155.451429 
L 315.82017 155.451429 
L 315.82017 161.28 
L 316.834716 161.28 
L 316.834716 158.88 
L 317.849261 158.88 
L 317.849261 155.451429 
L 318.863807 155.451429 
L 318.863807 156.137143 
L 319.878352 156.137143 
L 319.878352 170.88 
L 320.892898 170.88 
L 320.892898 169.165714 
L 321.907443 169.165714 
L 321.907443 166.422857 
L 322.921989 166.422857 
L 322.921989 160.594286 
L 323.936534 160.594286 
L 323.936534 163.337143 
L 324.95108 163.337143 
L 324.95108 170.537143 
L 325.965625 170.537143 
L 325.965625 171.908571 
L 326.98017 171.908571 
L 326.98017 176.022857 
L 327.994716 176.022857 
L 327.994716 169.508571 
L 330.023807 169.508571 
L 330.023807 186.308571 
L 331.038352 186.308571 
L 331.038352 184.594286 
L 332.052898 184.594286 
L 332.052898 192.48 
L 333.067443 192.48 
L 333.067443 182.537143 
L 334.081989 182.537143 
L 334.081989 192.48 
L 335.096534 192.48 
L 335.096534 193.851429 
L 336.11108 193.851429 
L 336.11108 192.822857 
L 337.125625 192.822857 
L 337.125625 194.88 
L 338.14017 194.88 
L 338.14017 195.565714 
L 339.154716 195.565714 
L 339.154716 198.308571 
L 340.169261 198.308571 
L 340.169261 202.765714 
L 341.183807 202.765714 
L 341.183807 204.137143 
L 342.198352 204.137143 
L 342.198352 205.165714 
L 343.212898 205.165714 
L 343.212898 203.108571 
L 344.227443 203.108571 
L 344.227443 210.651429 
L 345.241989 210.651429 
L 345.241989 206.194286 
L 346.256534 206.194286 
L 346.256534 208.251429 
L 347.27108 208.251429 
L 347.27108 209.965714 
L 348.285625 209.965714 
L 348.285625 213.051429 
L 349.30017 213.051429 
L 349.30017 213.737143 
L 350.314716 213.737143 
L 350.314716 212.708571 
L 351.329261 212.708571 
L 351.329261 213.051429 
L 352.343807 213.051429 
L 352.343807 216.137143 
L 354.372898 216.137143 
L 354.372898 215.794286 
L 355.387443 215.794286 
L 355.387443 217.165714 
L 356.401989 217.165714 
L 356.401989 218.537143 
L 357.416534 218.537143 
L 357.416534 218.88 
L 358.43108 218.88 
L 358.43108 218.194286 
L 359.445625 218.194286 
L 359.445625 218.537143 
L 360.46017 218.537143 
L 360.46017 218.88 
L 366.547443 218.88 
L 366.547443 218.88 
" clip-path="url(#p8d953139d0)" style="fill: none; stroke: #1f77b4; stroke-width: 1.5; stroke-linecap: square"/>
   </g>
   <g id="line2d_15">
    <path d="M 62.183807 218.88 
L 63.198352 218.88 
L 63.198352 216.822857 
L 64.212898 216.822857 
L 64.212898 210.308571 
L 65.227443 210.308571 
L 65.227443 202.765714 
L 66.241989 202.765714 
L 66.241989 201.394286 
L 67.256534 201.394286 
L 67.256534 195.222857 
L 68.27108 195.222857 
L 68.27108 189.394286 
L 69.285625 189.394286 
L 69.285625 184.251429 
L 70.30017 184.251429 
L 70.30017 182.194286 
L 71.314716 182.194286 
L 71.314716 175.68 
L 72.329261 175.68 
L 72.329261 171.565714 
L 73.343807 171.565714 
L 73.343807 166.08 
L 74.358352 166.08 
L 74.358352 172.594286 
L 75.372898 172.594286 
L 75.372898 151.337143 
L 76.387443 151.337143 
L 76.387443 154.765714 
L 77.401989 154.765714 
L 77.401989 145.851429 
L 78.416534 145.851429 
L 78.416534 140.708571 
L 79.43108 140.708571 
L 79.43108 131.794286 
L 80.445625 131.794286 
L 80.445625 134.537143 
L 81.46017 134.537143 
L 81.46017 123.565714 
L 82.474716 123.565714 
L 82.474716 121.165714 
L 83.489261 121.165714 
L 83.489261 98.88 
L 84.503807 98.88 
L 84.503807 109.165714 
L 85.518352 109.165714 
L 85.518352 97.851429 
L 86.532898 97.851429 
L 86.532898 112.594286 
L 87.547443 112.594286 
L 87.547443 89.622857 
L 88.561989 89.622857 
L 88.561989 86.88 
L 89.576534 86.88 
L 89.576534 90.308571 
L 90.59108 90.308571 
L 90.59108 85.508571 
L 91.605625 85.508571 
L 91.605625 78.994286 
L 92.62017 78.994286 
L 92.62017 72.822857 
L 93.634716 72.822857 
L 93.634716 80.365714 
L 94.649261 80.365714 
L 94.649261 90.994286 
L 95.663807 90.994286 
L 95.663807 69.737143 
L 96.678352 69.737143 
L 96.678352 66.308571 
L 97.692898 66.308571 
L 97.692898 56.022857 
L 98.707443 56.022857 
L 98.707443 70.08 
L 99.721989 70.08 
L 99.721989 51.908571 
L 100.736534 51.908571 
L 100.736534 62.88 
L 101.75108 62.88 
L 101.75108 59.451429 
L 102.765625 59.451429 
L 102.765625 42.651429 
L 103.78017 42.651429 
L 103.78017 60.137143 
L 104.794716 60.137143 
L 104.794716 41.965714 
L 105.809261 41.965714 
L 105.809261 46.765714 
L 106.823807 46.765714 
L 106.823807 35.451429 
L 107.838352 35.451429 
L 107.838352 48.137143 
L 108.852898 48.137143 
L 108.852898 32.708571 
L 109.867443 32.708571 
L 109.867443 32.022857 
L 110.881989 32.022857 
L 110.881989 24.822857 
L 111.896534 24.822857 
L 111.896534 35.451429 
L 112.91108 35.451429 
L 112.91108 42.308571 
L 113.925625 42.308571 
L 113.925625 46.08 
L 114.94017 46.08 
L 114.94017 36.137143 
L 115.954716 36.137143 
L 115.954716 36.48 
L 116.969261 36.48 
L 116.969261 46.08 
L 118.998352 46.08 
L 118.998352 56.022857 
L 120.012898 56.022857 
L 120.012898 60.48 
L 121.027443 60.48 
L 121.027443 59.108571 
L 122.041989 59.108571 
L 122.041989 63.222857 
L 123.056534 63.222857 
L 123.056534 53.622857 
L 124.07108 53.622857 
L 124.07108 60.137143 
L 125.085625 60.137143 
L 125.085625 58.08 
L 126.10017 58.08 
L 126.10017 53.622857 
L 127.114716 53.622857 
L 127.114716 77.965714 
L 128.129261 77.965714 
L 128.129261 79.337143 
L 129.143807 79.337143 
L 129.143807 57.394286 
L 130.158352 57.394286 
L 130.158352 68.022857 
L 131.172898 68.022857 
L 131.172898 70.08 
L 132.187443 70.08 
L 132.187443 77.28 
L 133.201989 77.28 
L 133.201989 72.137143 
L 134.216534 72.137143 
L 134.216534 70.422857 
L 135.23108 70.422857 
L 135.23108 57.737143 
L 136.245625 57.737143 
L 136.245625 85.508571 
L 137.26017 85.508571 
L 137.26017 80.708571 
L 138.274716 80.708571 
L 138.274716 75.908571 
L 139.289261 75.908571 
L 139.289261 72.822857 
L 140.303807 72.822857 
L 140.303807 82.08 
L 141.318352 82.08 
L 141.318352 68.365714 
L 142.332898 68.365714 
L 142.332898 86.537143 
L 143.347443 86.537143 
L 143.347443 77.28 
L 144.361989 77.28 
L 144.361989 63.565714 
L 145.376534 63.565714 
L 145.376534 62.537143 
L 146.39108 62.537143 
L 146.39108 74.88 
L 147.405625 74.88 
L 147.405625 78.651429 
L 148.42017 78.651429 
L 148.42017 79.337143 
L 149.434716 79.337143 
L 149.434716 72.137143 
L 150.449261 72.137143 
L 150.449261 90.308571 
L 151.463807 90.308571 
L 151.463807 86.88 
L 152.478352 86.88 
L 152.478352 95.794286 
L 153.492898 95.794286 
L 153.492898 79.337143 
L 154.507443 79.337143 
L 154.507443 85.508571 
L 155.521989 85.508571 
L 155.521989 85.851429 
L 156.536534 85.851429 
L 156.536534 88.251429 
L 157.55108 88.251429 
L 157.55108 93.737143 
L 158.565625 93.737143 
L 158.565625 89.28 
L 159.58017 89.28 
L 159.58017 84.822857 
L 160.594716 84.822857 
L 160.594716 90.308571 
L 161.609261 90.308571 
L 161.609261 73.165714 
L 162.623807 73.165714 
L 162.623807 83.794286 
L 163.638352 83.794286 
L 163.638352 79.337143 
L 164.652898 79.337143 
L 164.652898 76.251429 
L 165.667443 76.251429 
L 165.667443 98.88 
L 166.681989 98.88 
L 166.681989 86.88 
L 167.696534 86.88 
L 167.696534 107.108571 
L 168.71108 107.108571 
L 168.71108 97.508571 
L 169.725625 97.508571 
L 169.725625 108.137143 
L 170.74017 108.137143 
L 170.74017 108.48 
L 171.754716 108.48 
L 171.754716 103.337143 
L 172.769261 103.337143 
L 172.769261 110.88 
L 173.783807 110.88 
L 173.783807 114.308571 
L 174.798352 114.308571 
L 174.798352 111.908571 
L 175.812898 111.908571 
L 175.812898 123.222857 
L 176.827443 123.222857 
L 176.827443 118.422857 
L 177.841989 118.422857 
L 177.841989 122.194286 
L 178.856534 122.194286 
L 178.856534 130.422857 
L 179.87108 130.422857 
L 179.87108 133.165714 
L 180.885625 133.165714 
L 180.885625 145.165714 
L 181.90017 145.165714 
L 181.90017 154.08 
L 182.914716 154.08 
L 182.914716 151.68 
L 183.929261 151.68 
L 183.929261 148.594286 
L 184.943807 148.594286 
L 184.943807 161.622857 
L 185.958352 161.622857 
L 185.958352 166.765714 
L 186.972898 166.765714 
L 186.972898 166.422857 
L 187.987443 166.422857 
L 187.987443 175.68 
L 189.001989 175.68 
L 189.001989 178.422857 
L 190.016534 178.422857 
L 190.016534 176.022857 
L 191.03108 176.022857 
L 191.03108 186.994286 
L 192.045625 186.994286 
L 192.045625 186.651429 
L 193.06017 186.651429 
L 193.06017 190.422857 
L 194.074716 190.422857 
L 194.074716 191.451429 
L 195.089261 191.451429 
L 195.089261 195.565714 
L 196.103807 195.565714 
L 196.103807 202.765714 
L 197.118352 202.765714 
L 197.118352 206.88 
L 198.132898 206.88 
L 198.132898 208.251429 
L 199.147443 208.251429 
L 199.147443 209.28 
L 200.161989 209.28 
L 200.161989 214.765714 
L 201.176534 214.765714 
L 201.176534 215.794286 
L 202.19108 215.794286 
L 202.19108 217.165714 
L 203.205625 217.165714 
L 203.205625 216.48 
L 204.22017 216.48 
L 204.22017 218.88 
L 205.234716 218.88 
L 205.234716 218.537143 
L 206.249261 218.537143 
L 206.249261 218.88 
L 220.452898 218.88 
L 220.452898 218.537143 
L 221.467443 218.537143 
L 221.467443 215.451429 
L 222.481989 215.451429 
L 222.481989 209.28 
L 223.496534 209.28 
L 223.496534 208.937143 
L 224.51108 208.937143 
L 224.51108 203.794286 
L 225.525625 203.794286 
L 225.525625 202.422857 
L 226.54017 202.422857 
L 226.54017 190.08 
L 227.554716 190.08 
L 227.554716 194.194286 
L 228.569261 194.194286 
L 228.569261 191.794286 
L 229.583807 191.794286 
L 229.583807 179.794286 
L 230.598352 179.794286 
L 230.598352 178.422857 
L 231.612898 178.422857 
L 231.612898 172.594286 
L 232.627443 172.594286 
L 232.627443 172.251429 
L 233.641989 172.251429 
L 233.641989 158.88 
L 234.656534 158.88 
L 234.656534 162.308571 
L 235.67108 162.308571 
L 235.67108 164.022857 
L 236.685625 164.022857 
L 236.685625 162.994286 
L 237.70017 162.994286 
L 237.70017 156.137143 
L 238.714716 156.137143 
L 238.714716 155.794286 
L 239.729261 155.794286 
L 239.729261 151.68 
L 240.743807 151.68 
L 240.743807 141.737143 
L 241.758352 141.737143 
L 241.758352 149.965714 
L 242.772898 149.965714 
L 242.772898 143.451429 
L 243.787443 143.451429 
L 243.787443 129.737143 
L 244.801989 129.737143 
L 244.801989 137.965714 
L 245.816534 137.965714 
L 245.816534 137.622857 
L 246.83108 137.622857 
L 246.83108 127.68 
L 247.845625 127.68 
L 247.845625 123.908571 
L 248.86017 123.908571 
L 248.86017 131.451429 
L 249.874716 131.451429 
L 249.874716 123.222857 
L 250.889261 123.222857 
L 250.889261 113.28 
L 251.903807 113.28 
L 251.903807 110.537143 
L 252.918352 110.537143 
L 252.918352 109.851429 
L 253.932898 109.851429 
L 253.932898 113.622857 
L 254.947443 113.622857 
L 254.947443 112.251429 
L 255.961989 112.251429 
L 255.961989 115.68 
L 256.976534 115.68 
L 256.976534 102.308571 
L 257.99108 102.308571 
L 257.99108 108.822857 
L 259.005625 108.822857 
L 259.005625 102.994286 
L 260.02017 102.994286 
L 260.02017 105.394286 
L 261.034716 105.394286 
L 261.034716 90.651429 
L 262.049261 90.651429 
L 262.049261 93.051429 
L 263.063807 93.051429 
L 263.063807 96.822857 
L 264.078352 96.822857 
L 264.078352 92.022857 
L 265.092898 92.022857 
L 265.092898 101.28 
L 266.107443 101.28 
L 266.107443 104.708571 
L 267.121989 104.708571 
L 267.121989 99.565714 
L 268.136534 99.565714 
L 268.136534 101.622857 
L 269.15108 101.622857 
L 269.15108 97.851429 
L 270.165625 97.851429 
L 270.165625 102.994286 
L 271.18017 102.994286 
L 271.18017 107.794286 
L 272.194716 107.794286 
L 272.194716 104.708571 
L 273.209261 104.708571 
L 273.209261 109.165714 
L 274.223807 109.165714 
L 274.223807 118.08 
L 275.238352 118.08 
L 275.238352 102.651429 
L 276.252898 102.651429 
L 276.252898 105.737143 
L 277.267443 105.737143 
L 277.267443 103.337143 
L 278.281989 103.337143 
L 278.281989 98.537143 
L 279.296534 98.537143 
L 279.296534 113.965714 
L 280.31108 113.965714 
L 280.31108 112.937143 
L 281.325625 112.937143 
L 281.325625 116.022857 
L 282.34017 116.022857 
L 282.34017 122.88 
L 283.354716 122.88 
L 283.354716 122.194286 
L 284.369261 122.194286 
L 284.369261 113.965714 
L 285.383807 113.965714 
L 285.383807 116.708571 
L 286.398352 116.708571 
L 286.398352 119.451429 
L 287.412898 119.451429 
L 287.412898 111.565714 
L 288.427443 111.565714 
L 288.427443 122.88 
L 289.441989 122.88 
L 289.441989 131.108571 
L 290.456534 131.108571 
L 290.456534 126.651429 
L 291.47108 126.651429 
L 291.47108 119.794286 
L 292.485625 119.794286 
L 292.485625 122.88 
L 293.50017 122.88 
L 293.50017 135.565714 
L 294.514716 135.565714 
L 294.514716 130.422857 
L 295.529261 130.422857 
L 295.529261 122.88 
L 296.543807 122.88 
L 296.543807 132.48 
L 297.558352 132.48 
L 297.558352 123.222857 
L 298.572898 123.222857 
L 298.572898 132.137143 
L 299.587443 132.137143 
L 299.587443 144.137143 
L 300.601989 144.137143 
L 300.601989 133.851429 
L 301.616534 133.851429 
L 301.616534 129.051429 
L 302.63108 129.051429 
L 302.63108 132.137143 
L 303.645625 132.137143 
L 303.645625 136.594286 
L 304.66017 136.594286 
L 304.66017 137.965714 
L 305.674716 137.965714 
L 305.674716 141.051429 
L 306.689261 141.051429 
L 306.689261 138.651429 
L 307.703807 138.651429 
L 307.703807 145.165714 
L 308.718352 145.165714 
L 308.718352 141.051429 
L 309.732898 141.051429 
L 309.732898 143.451429 
L 310.747443 143.451429 
L 310.747443 147.222857 
L 311.761989 147.222857 
L 311.761989 141.394286 
L 312.776534 141.394286 
L 312.776534 146.88 
L 313.79108 146.88 
L 313.79108 154.422857 
L 314.805625 154.422857 
L 314.805625 157.851429 
L 315.82017 157.851429 
L 315.82017 147.222857 
L 316.834716 147.222857 
L 316.834716 160.594286 
L 317.849261 160.594286 
L 317.849261 152.365714 
L 318.863807 152.365714 
L 318.863807 154.08 
L 319.878352 154.08 
L 319.878352 166.422857 
L 320.892898 166.422857 
L 320.892898 154.08 
L 321.907443 154.08 
L 321.907443 162.994286 
L 322.921989 162.994286 
L 322.921989 161.28 
L 323.936534 161.28 
L 323.936534 156.137143 
L 324.95108 156.137143 
L 324.95108 157.851429 
L 325.965625 157.851429 
L 325.965625 171.908571 
L 326.98017 171.908571 
L 326.98017 172.937143 
L 327.994716 172.937143 
L 327.994716 164.708571 
L 329.009261 164.708571 
L 329.009261 161.622857 
L 330.023807 161.622857 
L 330.023807 165.394286 
L 331.038352 165.394286 
L 331.038352 169.508571 
L 332.052898 169.508571 
L 332.052898 173.622857 
L 333.067443 173.622857 
L 333.067443 177.051429 
L 334.081989 177.051429 
L 334.081989 170.537143 
L 335.096534 170.537143 
L 335.096534 170.88 
L 336.11108 170.88 
L 336.11108 185.622857 
L 337.125625 185.622857 
L 337.125625 184.251429 
L 338.14017 184.251429 
L 338.14017 193.165714 
L 339.154716 193.165714 
L 339.154716 183.908571 
L 340.169261 183.908571 
L 340.169261 192.822857 
L 341.183807 192.822857 
L 341.183807 193.851429 
L 342.198352 193.851429 
L 342.198352 193.165714 
L 343.212898 193.165714 
L 343.212898 195.908571 
L 344.227443 195.908571 
L 344.227443 195.222857 
L 345.241989 195.222857 
L 345.241989 198.651429 
L 346.256534 198.651429 
L 346.256534 201.737143 
L 347.27108 201.737143 
L 347.27108 205.165714 
L 348.285625 205.165714 
L 348.285625 203.794286 
L 349.30017 203.794286 
L 349.30017 202.08 
L 350.314716 202.08 
L 350.314716 210.651429 
L 351.329261 210.651429 
L 351.329261 208.594286 
L 352.343807 208.594286 
L 352.343807 206.88 
L 353.358352 206.88 
L 353.358352 210.651429 
L 354.372898 210.651429 
L 354.372898 210.994286 
L 355.387443 210.994286 
L 355.387443 214.08 
L 356.401989 214.08 
L 356.401989 213.051429 
L 357.416534 213.051429 
L 357.416534 211.68 
L 358.43108 211.68 
L 358.43108 216.48 
L 359.445625 216.48 
L 359.445625 215.451429 
L 360.46017 215.451429 
L 360.46017 216.48 
L 361.474716 216.48 
L 361.474716 215.794286 
L 362.489261 215.794286 
L 362.489261 218.194286 
L 363.503807 218.194286 
L 363.503807 218.88 
L 364.518352 218.88 
L 364.518352 218.537143 
L 365.532898 218.537143 
L 365.532898 218.194286 
L 366.547443 218.194286 
L 366.547443 218.194286 
" clip-path="url(#p8d953139d0)" style="fill: none; stroke: #ff7f0e; stroke-width: 1.5; stroke-linecap: square"/>
   </g>
   <g id="patch_3">
    <path d="M 46.965625 228.96 
L 46.965625 7.2 
" style="fill: none; stroke: #000000; stroke-width: 0.8; stroke-linejoin: miter; stroke-linecap: square"/>
   </g>
   <g id="patch_4">
    <path d="M 381.765625 228.96 
L 381.765625 7.2 
" style="fill: none; stroke: #000000; stroke-width: 0.8; stroke-linejoin: miter; stroke-linecap: square"/>
   </g>
   <g id="patch_5">
    <path d="M 46.965625 228.96 
L 381.765625 228.96 
" style="fill: none; stroke: #000000; stroke-width: 0.8; stroke-linejoin: miter; stroke-linecap: square"/>
   </g>
   <g id="patch_6">
    <path d="M 46.965625 7.2 
L 381.765625 7.2 
" style="fill: none; stroke: #000000; stroke-width: 0.8; stroke-linejoin: miter; stroke-linecap: square"/>
   </g>
   <g id="legend_1">
    <g id="patch_7">
     <path d="M 246.957813 45.1125 
L 374.765625 45.1125 
Q 376.765625 45.1125 376.765625 43.1125 
L 376.765625 14.2 
Q 376.765625 12.2 374.765625 12.2 
L 246.957813 12.2 
Q 244.957813 12.2 244.957813 14.2 
L 244.957813 43.1125 
Q 244.957813 45.1125 246.957813 45.1125 
z
" style="fill: #ffffff; opacity: 0.8; stroke: #cccccc; stroke-linejoin: miter"/>
    </g>
    <g id="line2d_16">
     <path d="M 248.957813 20.298437 
L 248.957813 20.298437 
L 258.957813 20.298437 
L 258.957813 20.298437 
L 268.957813 20.298437 
" style="fill: none; stroke: #1f77b4; stroke-width: 1.5; stroke-linecap: square"/>
    </g>
    <g id="text_16">
     <!-- detector_number:0 -->
     <g transform="translate(276.957813 23.798437) scale(0.1 -0.1)">
      <defs>
       <path id="DejaVuSans-64" d="M 2906 2969 
L 2906 4863 
L 3481 4863 
L 3481 0 
L 2906 0 
L 2906 525 
Q 2725 213 2448 61 
Q 2172 -91 1784 -91 
Q 1150 -91 751 415 
Q 353 922 353 1747 
Q 353 2572 751 3078 
Q 1150 3584 1784 3584 
Q 2172 3584 2448 3432 
Q 2725 3281 2906 2969 
z
M 947 1747 
Q 947 1113 1208 752 
Q 1469 391 1925 391 
Q 2381 391 2643 752 
Q 2906 1113 2906 1747 
Q 2906 2381 2643 2742 
Q 2381 3103 1925 3103 
Q 1469 3103 1208 2742 
Q 947 2381 947 1747 
z
" transform="scale(0.015625)"/>
       <path id="DejaVuSans-72" d="M 2631 2963 
Q 2534 3019 2420 3045 
Q 2306 3072 2169 3072 
Q 1681 3072 1420 2755 
Q 1159 2438 1159 1844 
L 1159 0 
L 581 0 
L 581 3500 
L 1159 3500 
L 1159 2956 
Q 1341 3275 1631 3429 
Q 1922 3584 2338 3584 
Q 2397 3584 2469 3576 
Q 2541 3569 2628 3553 
L 2631 2963 
z
" transform="scale(0.015625)"/>
       <path id="DejaVuSans-62" d="M 3116 1747 
Q 3116 2381 2855 2742 
Q 2594 3103 2138 3103 
Q 1681 3103 1420 2742 
Q 1159 2381 1159 1747 
Q 1159 1113 1420 752 
Q 1681 391 2138 391 
Q 2594 391 2855 752 
Q 3116 1113 3116 1747 
z
M 1159 2969 
Q 1341 3281 1617 3432 
Q 1894 3584 2278 3584 
Q 2916 3584 3314 3078 
Q 3713 2572 3713 1747 
Q 3713 922 3314 415 
Q 2916 -91 2278 -91 
Q 1894 -91 1617 61 
Q 1341 213 1159 525 
L 1159 0 
L 581 0 
L 581 4863 
L 1159 4863 
L 1159 2969 
z
" transform="scale(0.015625)"/>
       <path id="DejaVuSans-3a" d="M 750 794 
L 1409 794 
L 1409 0 
L 750 0 
L 750 794 
z
M 750 3309 
L 1409 3309 
L 1409 2516 
L 750 2516 
L 750 3309 
z
" transform="scale(0.015625)"/>
      </defs>
      <use xlink:href="#DejaVuSans-64"/>
      <use xlink:href="#DejaVuSans-65" transform="translate(63.476562 0)"/>
      <use xlink:href="#DejaVuSans-74" transform="translate(125 0)"/>
      <use xlink:href="#DejaVuSans-65" transform="translate(164.208984 0)"/>
      <use xlink:href="#DejaVuSans-63" transform="translate(225.732422 0)"/>
      <use xlink:href="#DejaVuSans-74" transform="translate(280.712891 0)"/>
      <use xlink:href="#DejaVuSans-6f" transform="translate(319.921875 0)"/>
      <use xlink:href="#DejaVuSans-72" transform="translate(381.103516 0)"/>
      <use xlink:href="#DejaVuSans-5f" transform="translate(422.216797 0)"/>
      <use xlink:href="#DejaVuSans-6e" transform="translate(472.216797 0)"/>
      <use xlink:href="#DejaVuSans-75" transform="translate(535.595703 0)"/>
      <use xlink:href="#DejaVuSans-6d" transform="translate(598.974609 0)"/>
      <use xlink:href="#DejaVuSans-62" transform="translate(696.386719 0)"/>
      <use xlink:href="#DejaVuSans-65" transform="translate(759.863281 0)"/>
      <use xlink:href="#DejaVuSans-72" transform="translate(821.386719 0)"/>
      <use xlink:href="#DejaVuSans-3a" transform="translate(860.75 0)"/>
      <use xlink:href="#DejaVuSans-30" transform="translate(894.441406 0)"/>
     </g>
    </g>
    <g id="line2d_17">
     <path d="M 248.957813 35.254687 
L 248.957813 35.254687 
L 258.957813 35.254687 
L 258.957813 35.254687 
L 268.957813 35.254687 
" style="fill: none; stroke: #ff7f0e; stroke-width: 1.5; stroke-linecap: square"/>
    </g>
    <g id="text_17">
     <!-- detector_number:1 -->
     <g transform="translate(276.957813 38.754687) scale(0.1 -0.1)">
      <use xlink:href="#DejaVuSans-64"/>
      <use xlink:href="#DejaVuSans-65" transform="translate(63.476562 0)"/>
      <use xlink:href="#DejaVuSans-74" transform="translate(125 0)"/>
      <use xlink:href="#DejaVuSans-65" transform="translate(164.208984 0)"/>
      <use xlink:href="#DejaVuSans-63" transform="translate(225.732422 0)"/>
      <use xlink:href="#DejaVuSans-74" transform="translate(280.712891 0)"/>
      <use xlink:href="#DejaVuSans-6f" transform="translate(319.921875 0)"/>
      <use xlink:href="#DejaVuSans-72" transform="translate(381.103516 0)"/>
      <use xlink:href="#DejaVuSans-5f" transform="translate(422.216797 0)"/>
      <use xlink:href="#DejaVuSans-6e" transform="translate(472.216797 0)"/>
      <use xlink:href="#DejaVuSans-75" transform="translate(535.595703 0)"/>
      <use xlink:href="#DejaVuSans-6d" transform="translate(598.974609 0)"/>
      <use xlink:href="#DejaVuSans-62" transform="translate(696.386719 0)"/>
      <use xlink:href="#DejaVuSans-65" transform="translate(759.863281 0)"/>
      <use xlink:href="#DejaVuSans-72" transform="translate(821.386719 0)"/>
      <use xlink:href="#DejaVuSans-3a" transform="translate(860.75 0)"/>
      <use xlink:href="#DejaVuSans-31" transform="translate(894.441406 0)"/>
     </g>
    </g>
   </g>
  </g>
 </g>
 <defs>
  <clipPath id="p8d953139d0">
   <rect x="46.965625" y="7.2" width="334.8" height="221.76"/>
  </clipPath>
 </defs>
</svg>
