<?xml version="1.0" encoding="utf-8" standalone="no"?>
<!DOCTYPE svg PUBLIC "-//W3C//DTD SVG 1.1//EN"
  "http://www.w3.org/Graphics/SVG/1.1/DTD/svg11.dtd">
<svg xmlns:xlink="http://www.w3.org/1999/xlink" width="388.965625pt" height="266.794375pt" viewBox="0 0 388.965625 266.794375" xmlns="http://www.w3.org/2000/svg" version="1.1">
 <metadata>
  <rdf:RDF xmlns:dc="http://purl.org/dc/elements/1.1/" xmlns:cc="http://creativecommons.org/ns#" xmlns:rdf="http://www.w3.org/1999/02/22-rdf-syntax-ns#">
   <cc:Work>
    <dc:type rdf:resource="http://purl.org/dc/dcmitype/StillImage"/>
    <dc:date>2026-06-18T08:05:19.671208</dc:date>
    <dc:format>image/svg+xml</dc:format>
    <dc:creator>
     <cc:Agent>
      <dc:title>Matplotlib v3.10.9, https://matplotlib.org/</dc:title>
     </cc:Agent>
    </dc:creator>
   </cc:Work>
  </rdf:RDF>
 </metadata>
 <defs>
  <style type="text/css">*{stroke-linejoin: round; stroke-linecap: butt}</style>
 </defs>
 <g id="figure_1">
  <g id="patch_1">
   <path d="M 0 266.794375 
L 388.965625 266.794375 
L 388.965625 0 
L 0 0 
z
" style="fill: #ffffff"/>
  </g>
  <g id="axes_1">
   <g id="patch_2">
    <path d="M 46.965625 228.96 
L 381.765625 228.96 
L 381.765625 7.2 
L 46.965625 7.2 
z
" style="fill: #ffffff"/>
   </g>
   <g id="matplotlib.axis_1">
    <g id="xtick_1">
     <g id="line2d_1">
      <defs>
       <path id="m081bfaf0db" d="M 0 0 
L 0 3.5 
" style="stroke: #000000; stroke-width: 0.8"/>
      </defs>
      <g>
       <use xlink:href="#m081bfaf0db" x="62.178715" y="228.96" style="stroke: #000000; stroke-width: 0.8"/>
      </g>
     </g>
     <g id="text_1">
      <!-- 0 -->
      <g transform="translate(58.997465 243.558437) scale(0.1 -0.1)">
       <defs>
        <path id="DejaVuSans-30" d="M 2034 4250 
Q 1547 4250 1301 3770 
Q 1056 3291 1056 2328 
Q 1056 1369 1301 889 
Q 1547 409 2034 409 
Q 2525 409 2770 889 
Q 3016 1369 3016 2328 
Q 3016 3291 2770 3770 
Q 2525 4250 2034 4250 
z
M 2034 4750 
Q 2819 4750 3233 4129 
Q 3647 3509 3647 2328 
Q 3647 1150 3233 529 
Q 2819 -91 2034 -91 
Q 1250 -91 836 529 
Q 422 1150 422 2328 
Q 422 3509 836 4129 
Q 1250 4750 2034 4750 
z
" transform="scale(0.015625)"/>
       </defs>
       <use xlink:href="#DejaVuSans-30"/>
      </g>
     </g>
    </g>
    <g id="xtick_2">
     <g id="line2d_2">
      <g>
       <use xlink:href="#m081bfaf0db" x="104.790408" y="228.96" style="stroke: #000000; stroke-width: 0.8"/>
      </g>
     </g>
     <g id="text_2">
      <!-- 10000 -->
      <g transform="translate(88.884158 243.558437) scale(0.1 -0.1)">
       <defs>
        <path id="DejaVuSans-31" d="M 794 531 
L 1825 531 
L 1825 4091 
L 703 3866 
L 703 4441 
L 1819 4666 
L 2450 4666 
L 2450 531 
L 3481 531 
L 3481 0 
L 794 0 
L 794 531 
z
" transform="scale(0.015625)"/>
       </defs>
       <use xlink:href="#DejaVuSans-31"/>
       <use xlink:href="#DejaVuSans-30" transform="translate(63.623047 0)"/>
       <use xlink:href="#DejaVuSans-30" transform="translate(127.246094 0)"/>
       <use xlink:href="#DejaVuSans-30" transform="translate(190.869141 0)"/>
       <use xlink:href="#DejaVuSans-30" transform="translate(254.492188 0)"/>
      </g>
     </g>
    </g>
    <g id="xtick_3">
     <g id="line2d_3">
      <g>
       <use xlink:href="#m081bfaf0db" x="147.402101" y="228.96" style="stroke: #000000; stroke-width: 0.8"/>
      </g>
     </g>
     <g id="text_3">
      <!-- 20000 -->
      <g transform="translate(131.495851 243.558437) scale(0.1 -0.1)">
       <defs>
        <path id="DejaVuSans-32" d="M 1228 531 
L 3431 531 
L 3431 0 
L 469 0 
L 469 531 
Q 828 903 1448 1529 
Q 2069 2156 2228 2338 
Q 2531 2678 2651 2914 
Q 2772 3150 2772 3378 
Q 2772 3750 2511 3984 
Q 2250 4219 1831 4219 
Q 1534 4219 1204 4116 
Q 875 4013 500 3803 
L 500 4441 
Q 881 4594 1212 4672 
Q 1544 4750 1819 4750 
Q 2544 4750 2975 4387 
Q 3406 4025 3406 3419 
Q 3406 3131 3298 2873 
Q 3191 2616 2906 2266 
Q 2828 2175 2409 1742 
Q 1991 1309 1228 531 
z
" transform="scale(0.015625)"/>
       </defs>
       <use xlink:href="#DejaVuSans-32"/>
       <use xlink:href="#DejaVuSans-30" transform="translate(63.623047 0)"/>
       <use xlink:href="#DejaVuSans-30" transform="translate(127.246094 0)"/>
       <use xlink:href="#DejaVuSans-30" transform="translate(190.869141 0)"/>
       <use xlink:href="#DejaVuSans-30" transform="translate(254.492188 0)"/>
      </g>
     </g>
    </g>
    <g id="xtick_4">
     <g id="line2d_4">
      <g>
       <use xlink:href="#m081bfaf0db" x="190.013793" y="228.96" style="stroke: #000000; stroke-width: 0.8"/>
      </g>
     </g>
     <g id="text_4">
      <!-- 30000 -->
      <g transform="translate(174.107543 243.558437) scale(0.1 -0.1)">
       <defs>
        <path id="DejaVuSans-33" d="M 2597 2516 
Q 3050 2419 3304 2112 
Q 3559 1806 3559 1356 
Q 3559 666 3084 287 
Q 2609 -91 1734 -91 
Q 1441 -91 1130 -33 
Q 819 25 488 141 
L 488 750 
Q 750 597 1062 519 
Q 1375 441 1716 441 
Q 2309 441 2620 675 
Q 2931 909 2931 1356 
Q 2931 1769 2642 2001 
Q 2353 2234 1838 2234 
L 1294 2234 
L 1294 2753 
L 1863 2753 
Q 2328 2753 2575 2939 
Q 2822 3125 2822 3475 
Q 2822 3834 2567 4026 
Q 2313 4219 1838 4219 
Q 1578 4219 1281 4162 
Q 984 4106 628 3988 
L 628 4550 
Q 988 4650 1302 4700 
Q 1616 4750 1894 4750 
Q 2613 4750 3031 4423 
Q 3450 4097 3450 3541 
Q 3450 3153 3228 2886 
Q 3006 2619 2597 2516 
z
" transform="scale(0.015625)"/>
       </defs>
       <use xlink:href="#DejaVuSans-33"/>
       <use xlink:href="#DejaVuSans-30" transform="translate(63.623047 0)"/>
       <use xlink:href="#DejaVuSans-30" transform="translate(127.246094 0)"/>
       <use xlink:href="#DejaVuSans-30" transform="translate(190.869141 0)"/>
       <use xlink:href="#DejaVuSans-30" transform="translate(254.492188 0)"/>
      </g>
     </g>
    </g>
    <g id="xtick_5">
     <g id="line2d_5">
      <g>
       <use xlink:href="#m081bfaf0db" x="232.625486" y="228.96" style="stroke: #000000; stroke-width: 0.8"/>
      </g>
     </g>
     <g id="text_5">
      <!-- 40000 -->
      <g transform="translate(216.719236 243.558437) scale(0.1 -0.1)">
       <defs>
        <path id="DejaVuSans-34" d="M 2419 4116 
L 825 1625 
L 2419 1625 
L 2419 4116 
z
M 2253 4666 
L 3047 4666 
L 3047 1625 
L 3713 1625 
L 3713 1100 
L 3047 1100 
L 3047 0 
L 2419 0 
L 2419 1100 
L 313 1100 
L 313 1709 
L 2253 4666 
z
" transform="scale(0.015625)"/>
       </defs>
       <use xlink:href="#DejaVuSans-34"/>
       <use xlink:href="#DejaVuSans-30" transform="translate(63.623047 0)"/>
       <use xlink:href="#DejaVuSans-30" transform="translate(127.246094 0)"/>
       <use xlink:href="#DejaVuSans-30" transform="translate(190.869141 0)"/>
       <use xlink:href="#DejaVuSans-30" transform="translate(254.492188 0)"/>
      </g>
     </g>
    </g>
    <g id="xtick_6">
     <g id="line2d_6">
      <g>
       <use xlink:href="#m081bfaf0db" x="275.237179" y="228.96" style="stroke: #000000; stroke-width: 0.8"/>
      </g>
     </g>
     <g id="text_6">
      <!-- 50000 -->
      <g transform="translate(259.330929 243.558437) scale(0.1 -0.1)">
       <defs>
        <path id="DejaVuSans-35" d="M 691 4666 
L 3169 4666 
L 3169 4134 
L 1269 4134 
L 1269 2991 
Q 1406 3038 1543 3061 
Q 1681 3084 1819 3084 
Q 2600 3084 3056 2656 
Q 3513 2228 3513 1497 
Q 3513 744 3044 326 
Q 2575 -91 1722 -91 
Q 1428 -91 1123 -41 
Q 819 9 494 109 
L 494 744 
Q 775 591 1075 516 
Q 1375 441 1709 441 
Q 2250 441 2565 725 
Q 2881 1009 2881 1497 
Q 2881 1984 2565 2268 
Q 2250 2553 1709 2553 
Q 1456 2553 1204 2497 
Q 953 2441 691 2322 
L 691 4666 
z
" transform="scale(0.015625)"/>
       </defs>
       <use xlink:href="#DejaVuSans-35"/>
       <use xlink:href="#DejaVuSans-30" transform="translate(63.623047 0)"/>
       <use xlink:href="#DejaVuSans-30" transform="translate(127.246094 0)"/>
       <use xlink:href="#DejaVuSans-30" transform="translate(190.869141 0)"/>
       <use xlink:href="#DejaVuSans-30" transform="translate(254.492188 0)"/>
      </g>
     </g>
    </g>
    <g id="xtick_7">
     <g id="line2d_7">
      <g>
       <use xlink:href="#m081bfaf0db" x="317.848872" y="228.96" style="stroke: #000000; stroke-width: 0.8"/>
      </g>
     </g>
     <g id="text_7">
      <!-- 60000 -->
      <g transform="translate(301.942622 243.558437) scale(0.1 -0.1)">
       <defs>
        <path id="DejaVuSans-36" d="M 2113 2584 
Q 1688 2584 1439 2293 
Q 1191 2003 1191 1497 
Q 1191 994 1439 701 
Q 1688 409 2113 409 
Q 2538 409 2786 701 
Q 3034 994 3034 1497 
Q 3034 2003 2786 2293 
Q 2538 2584 2113 2584 
z
M 3366 4563 
L 3366 3988 
Q 3128 4100 2886 4159 
Q 2644 4219 2406 4219 
Q 1781 4219 1451 3797 
Q 1122 3375 1075 2522 
Q 1259 2794 1537 2939 
Q 1816 3084 2150 3084 
Q 2853 3084 3261 2657 
Q 3669 2231 3669 1497 
Q 3669 778 3244 343 
Q 2819 -91 2113 -91 
Q 1303 -91 875 529 
Q 447 1150 447 2328 
Q 447 3434 972 4092 
Q 1497 4750 2381 4750 
Q 2619 4750 2861 4703 
Q 3103 4656 3366 4563 
z
" transform="scale(0.015625)"/>
       </defs>
       <use xlink:href="#DejaVuSans-36"/>
       <use xlink:href="#DejaVuSans-30" transform="translate(63.623047 0)"/>
       <use xlink:href="#DejaVuSans-30" transform="translate(127.246094 0)"/>
       <use xlink:href="#DejaVuSans-30" transform="translate(190.869141 0)"/>
       <use xlink:href="#DejaVuSans-30" transform="translate(254.492188 0)"/>
      </g>
     </g>
    </g>
    <g id="xtick_8">
     <g id="line2d_8">
      <g>
       <use xlink:href="#m081bfaf0db" x="360.460565" y="228.96" style="stroke: #000000; stroke-width: 0.8"/>
      </g>
     </g>
     <g id="text_8">
      <!-- 70000 -->
      <g transform="translate(344.554315 243.558437) scale(0.1 -0.1)">
       <defs>
        <path id="DejaVuSans-37" d="M 525 4666 
L 3525 4666 
L 3525 4397 
L 1831 0 
L 1172 0 
L 2766 4134 
L 525 4134 
L 525 4666 
z
" transform="scale(0.015625)"/>
       </defs>
       <use xlink:href="#DejaVuSans-37"/>
       <use xlink:href="#DejaVuSans-30" transform="translate(63.623047 0)"/>
       <use xlink:href="#DejaVuSans-30" transform="translate(127.246094 0)"/>
       <use xlink:href="#DejaVuSans-30" transform="translate(190.869141 0)"/>
       <use xlink:href="#DejaVuSans-30" transform="translate(254.492188 0)"/>
      </g>
     </g>
    </g>
    <g id="text_9">
     <!-- event_time_offset [µs] -->
     <g transform="translate(158.330469 257.236562) scale(0.1 -0.1)">
      <defs>
       <path id="DejaVuSans-65" d="M 3597 1894 
L 3597 1613 
L 953 1613 
Q 991 1019 1311 708 
Q 1631 397 2203 397 
Q 2534 397 2845 478 
Q 3156 559 3463 722 
L 3463 178 
Q 3153 47 2828 -22 
Q 2503 -91 2169 -91 
Q 1331 -91 842 396 
Q 353 884 353 1716 
Q 353 2575 817 3079 
Q 1281 3584 2069 3584 
Q 2775 3584 3186 3129 
Q 3597 2675 3597 1894 
z
M 3022 2063 
Q 3016 2534 2758 2815 
Q 2500 3097 2075 3097 
Q 1594 3097 1305 2825 
Q 1016 2553 972 2059 
L 3022 2063 
z
" transform="scale(0.015625)"/>
       <path id="DejaVuSans-76" d="M 191 3500 
L 800 3500 
L 1894 563 
L 2988 3500 
L 3597 3500 
L 2284 0 
L 1503 0 
L 191 3500 
z
" transform="scale(0.015625)"/>
       <path id="DejaVuSans-6e" d="M 3513 2113 
L 3513 0 
L 2938 0 
L 2938 2094 
Q 2938 2591 2744 2837 
Q 2550 3084 2163 3084 
Q 1697 3084 1428 2787 
Q 1159 2491 1159 1978 
L 1159 0 
L 581 0 
L 581 3500 
L 1159 3500 
L 1159 2956 
Q 1366 3272 1645 3428 
Q 1925 3584 2291 3584 
Q 2894 3584 3203 3211 
Q 3513 2838 3513 2113 
z
" transform="scale(0.015625)"/>
       <path id="DejaVuSans-74" d="M 1172 4494 
L 1172 3500 
L 2356 3500 
L 2356 3053 
L 1172 3053 
L 1172 1153 
Q 1172 725 1289 603 
Q 1406 481 1766 481 
L 2356 481 
L 2356 0 
L 1766 0 
Q 1100 0 847 248 
Q 594 497 594 1153 
L 594 3053 
L 172 3053 
L 172 3500 
L 594 3500 
L 594 4494 
L 1172 4494 
z
" transform="scale(0.015625)"/>
       <path id="DejaVuSans-5f" d="M 3263 -1063 
L 3263 -1509 
L -63 -1509 
L -63 -1063 
L 3263 -1063 
z
" transform="scale(0.015625)"/>
       <path id="DejaVuSans-69" d="M 603 3500 
L 1178 3500 
L 1178 0 
L 603 0 
L 603 3500 
z
M 603 4863 
L 1178 4863 
L 1178 4134 
L 603 4134 
L 603 4863 
z
" transform="scale(0.015625)"/>
       <path id="DejaVuSans-6d" d="M 3328 2828 
Q 3544 3216 3844 3400 
Q 4144 3584 4550 3584 
Q 5097 3584 5394 3201 
Q 5691 2819 5691 2113 
L 5691 0 
L 5113 0 
L 5113 2094 
Q 5113 2597 4934 2840 
Q 4756 3084 4391 3084 
Q 3944 3084 3684 2787 
Q 3425 2491 3425 1978 
L 3425 0 
L 2847 0 
L 2847 2094 
Q 2847 2600 2669 2842 
Q 2491 3084 2119 3084 
Q 1678 3084 1418 2786 
Q 1159 2488 1159 1978 
L 1159 0 
L 581 0 
L 581 3500 
L 1159 3500 
L 1159 2956 
Q 1356 3278 1631 3431 
Q 1906 3584 2284 3584 
Q 2666 3584 2933 3390 
Q 3200 3197 3328 2828 
z
" transform="scale(0.015625)"/>
       <path id="DejaVuSans-6f" d="M 1959 3097 
Q 1497 3097 1228 2736 
Q 959 2375 959 1747 
Q 959 1119 1226 758 
Q 1494 397 1959 397 
Q 2419 397 2687 759 
Q 2956 1122 2956 1747 
Q 2956 2369 2687 2733 
Q 2419 3097 1959 3097 
z
M 1959 3584 
Q 2709 3584 3137 3096 
Q 3566 2609 3566 1747 
Q 3566 888 3137 398 
Q 2709 -91 1959 -91 
Q 1206 -91 779 398 
Q 353 888 353 1747 
Q 353 2609 779 3096 
Q 1206 3584 1959 3584 
z
" transform="scale(0.015625)"/>
       <path id="DejaVuSans-66" d="M 2375 4863 
L 2375 4384 
L 1825 4384 
Q 1516 4384 1395 4259 
Q 1275 4134 1275 3809 
L 1275 3500 
L 2222 3500 
L 2222 3053 
L 1275 3053 
L 1275 0 
L 697 0 
L 697 3053 
L 147 3053 
L 147 3500 
L 697 3500 
L 697 3744 
Q 697 4328 969 4595 
Q 1241 4863 1831 4863 
L 2375 4863 
z
" transform="scale(0.015625)"/>
       <path id="DejaVuSans-73" d="M 2834 3397 
L 2834 2853 
Q 2591 2978 2328 3040 
Q 2066 3103 1784 3103 
Q 1356 3103 1142 2972 
Q 928 2841 928 2578 
Q 928 2378 1081 2264 
Q 1234 2150 1697 2047 
L 1894 2003 
Q 2506 1872 2764 1633 
Q 3022 1394 3022 966 
Q 3022 478 2636 193 
Q 2250 -91 1575 -91 
Q 1294 -91 989 -36 
Q 684 19 347 128 
L 347 722 
Q 666 556 975 473 
Q 1284 391 1588 391 
Q 1994 391 2212 530 
Q 2431 669 2431 922 
Q 2431 1156 2273 1281 
Q 2116 1406 1581 1522 
L 1381 1569 
Q 847 1681 609 1914 
Q 372 2147 372 2553 
Q 372 3047 722 3315 
Q 1072 3584 1716 3584 
Q 2034 3584 2315 3537 
Q 2597 3491 2834 3397 
z
" transform="scale(0.015625)"/>
       <path id="DejaVuSans-20" transform="scale(0.015625)"/>
       <path id="DejaVuSans-5b" d="M 550 4863 
L 1875 4863 
L 1875 4416 
L 1125 4416 
L 1125 -397 
L 1875 -397 
L 1875 -844 
L 550 -844 
L 550 4863 
z
" transform="scale(0.015625)"/>
       <path id="DejaVuSans-b5" d="M 544 -1331 
L 544 3500 
L 1119 3500 
L 1119 1325 
Q 1119 872 1334 640 
Q 1550 409 1972 409 
Q 2434 409 2667 671 
Q 2900 934 2900 1459 
L 2900 3500 
L 3475 3500 
L 3475 806 
Q 3475 619 3529 530 
Q 3584 441 3700 441 
Q 3728 441 3778 458 
Q 3828 475 3916 513 
L 3916 50 
Q 3788 -22 3673 -56 
Q 3559 -91 3450 -91 
Q 3234 -91 3106 31 
Q 2978 153 2931 403 
Q 2775 156 2548 32 
Q 2322 -91 2016 -91 
Q 1697 -91 1473 31 
Q 1250 153 1119 397 
L 1119 -1331 
L 544 -1331 
z
" transform="scale(0.015625)"/>
       <path id="DejaVuSans-5d" d="M 1947 4863 
L 1947 -844 
L 622 -844 
L 622 -397 
L 1369 -397 
L 1369 4416 
L 622 4416 
L 622 4863 
L 1947 4863 
z
" transform="scale(0.015625)"/>
      </defs>
      <use xlink:href="#DejaVuSans-65"/>
      <use xlink:href="#DejaVuSans-76" transform="translate(61.523438 0)"/>
      <use xlink:href="#DejaVuSans-65" transform="translate(120.703125 0)"/>
      <use xlink:href="#DejaVuSans-6e" transform="translate(182.226562 0)"/>
      <use xlink:href="#DejaVuSans-74" transform="translate(245.605469 0)"/>
      <use xlink:href="#DejaVuSans-5f" transform="translate(284.814453 0)"/>
      <use xlink:href="#DejaVuSans-74" transform="translate(334.814453 0)"/>
      <use xlink:href="#DejaVuSans-69" transform="translate(374.023438 0)"/>
      <use xlink:href="#DejaVuSans-6d" transform="translate(401.806641 0)"/>
      <use xlink:href="#DejaVuSans-65" transform="translate(499.21875 0)"/>
      <use xlink:href="#DejaVuSans-5f" transform="translate(560.742188 0)"/>
      <use xlink:href="#DejaVuSans-6f" transform="translate(610.742188 0)"/>
      <use xlink:href="#DejaVuSans-66" transform="translate(671.923828 0)"/>
      <use xlink:href="#DejaVuSans-66" transform="translate(707.128906 0)"/>
      <use xlink:href="#DejaVuSans-73" transform="translate(742.333984 0)"/>
      <use xlink:href="#DejaVuSans-65" transform="translate(794.433594 0)"/>
      <use xlink:href="#DejaVuSans-74" transform="translate(855.957031 0)"/>
      <use xlink:href="#DejaVuSans-20" transform="translate(895.166016 0)"/>
      <use xlink:href="#DejaVuSans-5b" transform="translate(926.953125 0)"/>
      <use xlink:href="#DejaVuSans-b5" transform="translate(965.966797 0)"/>
      <use xlink:href="#DejaVuSans-73" transform="translate(1029.589844 0)"/>
      <use xlink:href="#DejaVuSans-5d" transform="translate(1081.689453 0)"/>
     </g>
    </g>
   </g>
   <g id="matplotlib.axis_2">
    <g id="ytick_1">
     <g id="line2d_9">
      <defs>
       <path id="m778d634407" d="M 0 0 
L -3.5 0 
" style="stroke: #000000; stroke-width: 0.8"/>
      </defs>
      <g>
       <use xlink:href="#m778d634407" x="46.965625" y="218.88" style="stroke: #000000; stroke-width: 0.8"/>
      </g>
     </g>
     <g id="text_10">
      <!-- 0 -->
      <g transform="translate(33.603125 222.679219) scale(0.1 -0.1)">
       <use xlink:href="#DejaVuSans-30"/>
      </g>
     </g>
    </g>
    <g id="ytick_2">
     <g id="line2d_10">
      <g>
       <use xlink:href="#m778d634407" x="46.965625" y="183.071829" style="stroke: #000000; stroke-width: 0.8"/>
      </g>
     </g>
     <g id="text_11">
      <!-- 100 -->
      <g transform="translate(20.878125 186.871048) scale(0.1 -0.1)">
       <use xlink:href="#DejaVuSans-31"/>
       <use xlink:href="#DejaVuSans-30" transform="translate(63.623047 0)"/>
       <use xlink:href="#DejaVuSans-30" transform="translate(127.246094 0)"/>
      </g>
     </g>
    </g>
    <g id="ytick_3">
     <g id="line2d_11">
      <g>
       <use xlink:href="#m778d634407" x="46.965625" y="147.263659" style="stroke: #000000; stroke-width: 0.8"/>
      </g>
     </g>
     <g id="text_12">
      <!-- 200 -->
      <g transform="translate(20.878125 151.062878) scale(0.1 -0.1)">
       <use xlink:href="#DejaVuSans-32"/>
       <use xlink:href="#DejaVuSans-30" transform="translate(63.623047 0)"/>
       <use xlink:href="#DejaVuSans-30" transform="translate(127.246094 0)"/>
      </g>
     </g>
    </g>
    <g id="ytick_4">
     <g id="line2d_12">
      <g>
       <use xlink:href="#m778d634407" x="46.965625" y="111.455488" style="stroke: #000000; stroke-width: 0.8"/>
      </g>
     </g>
     <g id="text_13">
      <!-- 300 -->
      <g transform="translate(20.878125 115.254707) scale(0.1 -0.1)">
       <use xlink:href="#DejaVuSans-33"/>
       <use xlink:href="#DejaVuSans-30" transform="translate(63.623047 0)"/>
       <use xlink:href="#DejaVuSans-30" transform="translate(127.246094 0)"/>
      </g>
     </g>
    </g>
    <g id="ytick_5">
     <g id="line2d_13">
      <g>
       <use xlink:href="#m778d634407" x="46.965625" y="75.647318" style="stroke: #000000; stroke-width: 0.8"/>
      </g>
     </g>
     <g id="text_14">
      <!-- 400 -->
      <g transform="translate(20.878125 79.446537) scale(0.1 -0.1)">
       <use xlink:href="#DejaVuSans-34"/>
       <use xlink:href="#DejaVuSans-30" transform="translate(63.623047 0)"/>
       <use xlink:href="#DejaVuSans-30" transform="translate(127.246094 0)"/>
      </g>
     </g>
    </g>
    <g id="ytick_6">
     <g id="line2d_14">
      <g>
       <use xlink:href="#m778d634407" x="46.965625" y="39.839147" style="stroke: #000000; stroke-width: 0.8"/>
      </g>
     </g>
     <g id="text_15">
      <!-- 500 -->
      <g transform="translate(20.878125 43.638366) scale(0.1 -0.1)">
       <use xlink:href="#DejaVuSans-35"/>
       <use xlink:href="#DejaVuSans-30" transform="translate(63.623047 0)"/>
       <use xlink:href="#DejaVuSans-30" transform="translate(127.246094 0)"/>
      </g>
     </g>
    </g>
    <g id="text_16">
     <!-- [counts] -->
     <g transform="translate(14.798438 138.6925) rotate(-90) scale(0.1 -0.1)">
      <defs>
       <path id="DejaVuSans-63" d="M 3122 3366 
L 3122 2828 
Q 2878 2963 2633 3030 
Q 2388 3097 2138 3097 
Q 1578 3097 1268 2742 
Q 959 2388 959 1747 
Q 959 1106 1268 751 
Q 1578 397 2138 397 
Q 2388 397 2633 464 
Q 2878 531 3122 666 
L 3122 134 
Q 2881 22 2623 -34 
Q 2366 -91 2075 -91 
Q 1284 -91 818 406 
Q 353 903 353 1747 
Q 353 2603 823 3093 
Q 1294 3584 2113 3584 
Q 2378 3584 2631 3529 
Q 2884 3475 3122 3366 
z
" transform="scale(0.015625)"/>
       <path id="DejaVuSans-75" d="M 544 1381 
L 544 3500 
L 1119 3500 
L 1119 1403 
Q 1119 906 1312 657 
Q 1506 409 1894 409 
Q 2359 409 2629 706 
Q 2900 1003 2900 1516 
L 2900 3500 
L 3475 3500 
L 3475 0 
L 2900 0 
L 2900 538 
Q 2691 219 2414 64 
Q 2138 -91 1772 -91 
Q 1169 -91 856 284 
Q 544 659 544 1381 
z
M 1991 3584 
L 1991 3584 
z
" transform="scale(0.015625)"/>
      </defs>
      <use xlink:href="#DejaVuSans-5b"/>
      <use xlink:href="#DejaVuSans-63" transform="translate(39.013672 0)"/>
      <use xlink:href="#DejaVuSans-6f" transform="translate(93.994141 0)"/>
      <use xlink:href="#DejaVuSans-75" transform="translate(155.175781 0)"/>
      <use xlink:href="#DejaVuSans-6e" transform="translate(218.554688 0)"/>
      <use xlink:href="#DejaVuSans-74" transform="translate(281.933594 0)"/>
      <use xlink:href="#DejaVuSans-73" transform="translate(321.142578 0)"/>
      <use xlink:href="#DejaVuSans-5d" transform="translate(373.242188 0)"/>
     </g>
    </g>
   </g>
   <g id="line2d_15">
    <path d="M 62.183807 115.752469 
L 63.198352 115.752469 
L 63.198352 108.590835 
L 64.212898 108.590835 
L 64.212898 127.569165 
L 65.227443 127.569165 
L 65.227443 125.420675 
L 66.241989 125.420675 
L 66.241989 115.394387 
L 67.256534 115.394387 
L 67.256534 125.062593 
L 69.285625 125.062593 
L 69.285625 116.468632 
L 70.30017 116.468632 
L 70.30017 123.630266 
L 71.314716 123.630266 
L 71.314716 130.075737 
L 72.329261 130.075737 
L 72.329261 132.224227 
L 73.343807 132.224227 
L 73.343807 121.839858 
L 74.358352 121.839858 
L 74.358352 127.211083 
L 75.372898 127.211083 
L 75.372898 144.040924 
L 76.387443 144.040924 
L 76.387443 130.791901 
L 77.401989 130.791901 
L 77.401989 134.372718 
L 78.416534 134.372718 
L 78.416534 141.17627 
L 79.43108 141.17627 
L 79.43108 142.250515 
L 80.445625 142.250515 
L 80.445625 140.460107 
L 81.46017 140.460107 
L 81.46017 141.17627 
L 82.474716 141.17627 
L 82.474716 139.743943 
L 83.489261 139.743943 
L 83.489261 146.547496 
L 84.503807 146.547496 
L 84.503807 134.372718 
L 85.518352 134.372718 
L 85.518352 144.757087 
L 86.532898 144.757087 
L 86.532898 142.250515 
L 87.547443 142.250515 
L 87.547443 143.682842 
L 88.561989 143.682842 
L 88.561989 145.831332 
L 89.576534 145.831332 
L 89.576534 150.486394 
L 90.59108 150.486394 
L 90.59108 145.47325 
L 91.605625 145.47325 
L 91.605625 153.70913 
L 92.62017 153.70913 
L 92.62017 148.695986 
L 93.634716 148.695986 
L 93.634716 152.992966 
L 94.649261 152.992966 
L 94.649261 154.783375 
L 95.663807 154.783375 
L 95.663807 166.241989 
L 96.678352 166.241989 
L 96.678352 158.364192 
L 97.692898 158.364192 
L 97.692898 163.019254 
L 98.707443 163.019254 
L 98.707443 161.586927 
L 99.721989 161.586927 
L 99.721989 171.255133 
L 100.736534 171.255133 
L 100.736534 166.241989 
L 101.75108 166.241989 
L 101.75108 165.883908 
L 102.765625 165.883908 
L 102.765625 173.403623 
L 103.78017 173.403623 
L 103.78017 168.748561 
L 104.794716 168.748561 
L 104.794716 180.565258 
L 105.809261 180.565258 
L 105.809261 182.713748 
L 106.823807 182.713748 
L 106.823807 179.491012 
L 107.838352 179.491012 
L 107.838352 184.504156 
L 108.852898 184.504156 
L 108.852898 182.355666 
L 109.867443 182.355666 
L 109.867443 195.962771 
L 110.881989 195.962771 
L 110.881989 192.381954 
L 111.896534 192.381954 
L 111.896534 192.740036 
L 112.91108 192.740036 
L 112.91108 194.172362 
L 113.925625 194.172362 
L 113.925625 194.530444 
L 114.94017 194.530444 
L 114.94017 194.172362 
L 115.954716 194.172362 
L 115.954716 201.692078 
L 116.969261 201.692078 
L 116.969261 197.395098 
L 117.983807 197.395098 
L 117.983807 205.630977 
L 118.998352 205.630977 
L 118.998352 202.408242 
L 120.012898 202.408242 
L 120.012898 204.914813 
L 121.027443 204.914813 
L 121.027443 211.002202 
L 122.041989 211.002202 
L 122.041989 209.927957 
L 123.056534 209.927957 
L 123.056534 211.718366 
L 124.07108 211.718366 
L 124.07108 213.508774 
L 125.085625 213.508774 
L 125.085625 212.076448 
L 126.10017 212.076448 
L 126.10017 213.866856 
L 127.114716 213.866856 
L 127.114716 213.508774 
L 128.129261 213.508774 
L 128.129261 214.58302 
L 129.143807 214.58302 
L 129.143807 216.373428 
L 130.158352 216.373428 
L 130.158352 217.805755 
L 131.172898 217.805755 
L 131.172898 218.163837 
L 133.201989 218.163837 
L 133.201989 218.521918 
L 134.216534 218.521918 
L 134.216534 218.88 
L 135.23108 218.88 
L 135.23108 218.521918 
L 136.245625 218.521918 
L 136.245625 218.88 
L 149.434716 218.88 
L 149.434716 216.373428 
L 150.449261 216.373428 
L 150.449261 211.002202 
L 151.463807 211.002202 
L 151.463807 209.211794 
L 152.478352 209.211794 
L 152.478352 203.124405 
L 153.492898 203.124405 
L 153.492898 196.320853 
L 154.507443 196.320853 
L 154.507443 191.66579 
L 155.521989 191.66579 
L 155.521989 181.997584 
L 156.536534 181.997584 
L 156.536534 177.342522 
L 157.55108 177.342522 
L 157.55108 168.032398 
L 158.565625 168.032398 
L 158.565625 167.316234 
L 159.58017 167.316234 
L 159.58017 153.70913 
L 160.594716 153.70913 
L 160.594716 162.303091 
L 161.609261 162.303091 
L 161.609261 154.783375 
L 162.623807 154.783375 
L 162.623807 148.695986 
L 163.638352 148.695986 
L 163.638352 128.285329 
L 164.652898 128.285329 
L 164.652898 130.791901 
L 165.667443 130.791901 
L 165.667443 123.630266 
L 166.681989 123.630266 
L 166.681989 117.900959 
L 167.696534 117.900959 
L 167.696534 122.19794 
L 168.71108 122.19794 
L 168.71108 106.084263 
L 169.725625 106.084263 
L 169.725625 97.490302 
L 170.74017 97.490302 
L 170.74017 99.638792 
L 171.754716 99.638792 
L 171.754716 88.538259 
L 172.769261 88.538259 
L 172.769261 88.180178 
L 173.783807 88.180178 
L 173.783807 92.119076 
L 174.798352 92.119076 
L 174.798352 81.734707 
L 175.812898 81.734707 
L 175.812898 84.241279 
L 176.827443 84.241279 
L 176.827443 66.695275 
L 177.841989 66.695275 
L 177.841989 65.262948 
L 178.856534 65.262948 
L 178.856534 62.398295 
L 179.87108 62.398295 
L 179.87108 66.337194 
L 180.885625 66.337194 
L 180.885625 59.533641 
L 181.90017 59.533641 
L 181.90017 45.568455 
L 182.914716 45.568455 
L 182.914716 59.17556 
L 183.929261 59.17556 
L 183.929261 49.865435 
L 184.943807 49.865435 
L 184.943807 34.10984 
L 185.958352 34.10984 
L 185.958352 41.271474 
L 186.972898 41.271474 
L 186.972898 37.332575 
L 187.987443 37.332575 
L 187.987443 26.590124 
L 189.001989 26.590124 
L 189.001989 35.900249 
L 190.016534 35.900249 
L 190.016534 41.271474 
L 191.03108 41.271474 
L 191.03108 30.887105 
L 192.045625 30.887105 
L 192.045625 26.948206 
L 193.06017 26.948206 
L 193.06017 34.10984 
L 194.074716 34.10984 
L 194.074716 24.441634 
L 195.089261 24.441634 
L 195.089261 34.467922 
L 196.103807 34.467922 
L 196.103807 25.515879 
L 197.118352 25.515879 
L 197.118352 23.009307 
L 198.132898 23.009307 
L 198.132898 17.28 
L 199.147443 17.28 
L 199.147443 29.81286 
L 200.161989 29.81286 
L 200.161989 30.529023 
L 202.19108 30.529023 
L 202.19108 36.974494 
L 203.205625 36.974494 
L 203.205625 31.245187 
L 204.22017 31.245187 
L 204.22017 56.668988 
L 205.234716 56.668988 
L 205.234716 44.852291 
L 206.249261 44.852291 
L 206.249261 54.878579 
L 207.263807 54.878579 
L 207.263807 36.974494 
L 208.278352 36.974494 
L 208.278352 69.918011 
L 209.292898 69.918011 
L 209.292898 56.310906 
L 210.307443 56.310906 
L 210.307443 42.703801 
L 211.321989 42.703801 
L 211.321989 55.594742 
L 212.336534 55.594742 
L 212.336534 46.284618 
L 213.35108 46.284618 
L 213.35108 48.075027 
L 214.365625 48.075027 
L 214.365625 63.114458 
L 215.38017 63.114458 
L 215.38017 50.93968 
L 216.394716 50.93968 
L 216.394716 59.533641 
L 217.409261 59.533641 
L 217.409261 63.114458 
L 218.423807 63.114458 
L 218.423807 54.162416 
L 219.438352 54.162416 
L 219.438352 58.459396 
L 220.452898 58.459396 
L 220.452898 73.498828 
L 221.467443 73.498828 
L 221.467443 65.979112 
L 222.481989 65.979112 
L 222.481989 63.114458 
L 223.496534 63.114458 
L 223.496534 77.437726 
L 224.51108 77.437726 
L 224.51108 76.721563 
L 225.525625 76.721563 
L 225.525625 63.830622 
L 226.54017 63.830622 
L 226.54017 60.607886 
L 227.554716 60.607886 
L 227.554716 70.992256 
L 228.569261 70.992256 
L 228.569261 65.62103 
L 229.583807 65.62103 
L 229.583807 61.32405 
L 230.598352 61.32405 
L 230.598352 71.350337 
L 231.612898 71.350337 
L 231.612898 63.830622 
L 232.627443 63.830622 
L 232.627443 60.965968 
L 233.641989 60.965968 
L 233.641989 64.546785 
L 234.656534 64.546785 
L 234.656534 68.127602 
L 235.67108 68.127602 
L 235.67108 86.031687 
L 236.685625 86.031687 
L 236.685625 65.262948 
L 237.70017 65.262948 
L 237.70017 67.411439 
L 238.714716 67.411439 
L 238.714716 75.647318 
L 239.729261 75.647318 
L 239.729261 74.573073 
L 240.743807 74.573073 
L 240.743807 82.092789 
L 241.758352 82.092789 
L 241.758352 78.870053 
L 242.772898 78.870053 
L 242.772898 69.201847 
L 243.787443 69.201847 
L 243.787443 64.904867 
L 244.801989 64.904867 
L 244.801989 71.350337 
L 246.83108 71.350337 
L 246.83108 78.870053 
L 247.845625 78.870053 
L 247.845625 81.376625 
L 248.86017 81.376625 
L 248.86017 86.031687 
L 249.874716 86.031687 
L 249.874716 88.538259 
L 250.889261 88.538259 
L 250.889261 85.673606 
L 251.903807 85.673606 
L 251.903807 84.957442 
L 252.918352 84.957442 
L 252.918352 97.848384 
L 253.932898 97.848384 
L 253.932898 88.896341 
L 254.947443 88.896341 
L 254.947443 86.747851 
L 255.961989 86.747851 
L 255.961989 87.822096 
L 256.976534 87.822096 
L 256.976534 116.826714 
L 257.99108 116.826714 
L 257.99108 116.468632 
L 259.005625 116.468632 
L 259.005625 118.617123 
L 260.02017 118.617123 
L 260.02017 120.049449 
L 261.034716 120.049449 
L 261.034716 130.075737 
L 262.049261 130.075737 
L 262.049261 122.19794 
L 263.063807 122.19794 
L 263.063807 132.940391 
L 264.078352 132.940391 
L 264.078352 144.399005 
L 265.092898 144.399005 
L 265.092898 142.250515 
L 266.107443 142.250515 
L 266.107443 140.102025 
L 267.121989 140.102025 
L 267.121989 154.783375 
L 268.136534 154.783375 
L 268.136534 161.586927 
L 269.15108 161.586927 
L 269.15108 167.316234 
L 270.165625 167.316234 
L 270.165625 171.613215 
L 271.18017 171.613215 
L 271.18017 170.180888 
L 272.194716 170.180888 
L 272.194716 179.132931 
L 273.209261 179.132931 
L 273.209261 174.477869 
L 274.223807 174.477869 
L 274.223807 182.713748 
L 275.238352 182.713748 
L 275.238352 191.307709 
L 276.252898 191.307709 
L 276.252898 195.962771 
L 277.267443 195.962771 
L 277.267443 192.740036 
L 278.281989 192.740036 
L 278.281989 198.827425 
L 279.296534 198.827425 
L 279.296534 199.90167 
L 280.31108 199.90167 
L 280.31108 206.34714 
L 281.325625 206.34714 
L 281.325625 213.150693 
L 282.34017 213.150693 
L 282.34017 212.434529 
L 283.354716 212.434529 
L 283.354716 214.941101 
L 284.369261 214.941101 
L 284.369261 216.015346 
L 285.383807 216.015346 
L 285.383807 216.73151 
L 286.398352 216.73151 
L 286.398352 218.163837 
L 287.412898 218.163837 
L 287.412898 218.88 
L 297.558352 218.88 
L 297.558352 218.163837 
L 298.572898 218.163837 
L 298.572898 213.866856 
L 299.587443 213.866856 
L 299.587443 212.076448 
L 300.601989 212.076448 
L 300.601989 206.705222 
L 301.616534 206.705222 
L 301.616534 201.333996 
L 302.63108 201.333996 
L 302.63108 198.827425 
L 303.645625 198.827425 
L 303.645625 196.320853 
L 304.66017 196.320853 
L 304.66017 188.801137 
L 305.674716 188.801137 
L 305.674716 178.774849 
L 306.689261 178.774849 
L 306.689261 181.639503 
L 307.703807 181.639503 
L 307.703807 178.416767 
L 308.718352 178.416767 
L 308.718352 168.748561 
L 309.732898 168.748561 
L 309.732898 171.971297 
L 310.747443 171.971297 
L 310.747443 160.870764 
L 311.761989 160.870764 
L 311.761989 168.39048 
L 312.776534 168.39048 
L 312.776534 152.634885 
L 313.79108 152.634885 
L 313.79108 156.931865 
L 314.805625 156.931865 
L 314.805625 146.547496 
L 315.82017 146.547496 
L 315.82017 146.189414 
L 316.834716 146.189414 
L 316.834716 136.163126 
L 317.849261 136.163126 
L 317.849261 136.87929 
L 318.863807 136.87929 
L 318.863807 139.385861 
L 319.878352 139.385861 
L 319.878352 125.778757 
L 320.892898 125.778757 
L 320.892898 123.272185 
L 321.907443 123.272185 
L 321.907443 130.075737 
L 322.921989 130.075737 
L 322.921989 123.272185 
L 323.936534 123.272185 
L 323.936534 111.455488 
L 324.95108 111.455488 
L 324.95108 120.049449 
L 325.965625 120.049449 
L 325.965625 116.468632 
L 326.98017 116.468632 
L 326.98017 110.381243 
L 327.994716 110.381243 
L 327.994716 111.81357 
L 329.009261 111.81357 
L 329.009261 114.678224 
L 330.023807 114.678224 
L 330.023807 121.123694 
L 331.038352 121.123694 
L 331.038352 94.267567 
L 332.052898 94.267567 
L 332.052898 106.442345 
L 333.067443 106.442345 
L 333.067443 95.341812 
L 334.081989 95.341812 
L 334.081989 85.673606 
L 335.096534 85.673606 
L 335.096534 87.105933 
L 336.11108 87.105933 
L 336.11108 107.158508 
L 337.125625 107.158508 
L 337.125625 110.381243 
L 338.14017 110.381243 
L 338.14017 85.673606 
L 339.154716 85.673606 
L 339.154716 94.267567 
L 340.169261 94.267567 
L 340.169261 85.315524 
L 341.183807 85.315524 
L 341.183807 85.673606 
L 342.198352 85.673606 
L 342.198352 90.68675 
L 343.212898 90.68675 
L 343.212898 102.503446 
L 344.227443 102.503446 
L 344.227443 77.437726 
L 345.241989 77.437726 
L 345.241989 105.010018 
L 346.256534 105.010018 
L 346.256534 81.734707 
L 347.27108 81.734707 
L 347.27108 90.328668 
L 348.285625 90.328668 
L 348.285625 94.625648 
L 349.30017 94.625648 
L 349.30017 86.747851 
L 350.314716 86.747851 
L 350.314716 98.922629 
L 351.329261 98.922629 
L 351.329261 94.625648 
L 352.343807 94.625648 
L 352.343807 94.267567 
L 353.358352 94.267567 
L 353.358352 95.699893 
L 354.372898 95.699893 
L 354.372898 106.800426 
L 355.387443 106.800426 
L 355.387443 107.158508 
L 356.401989 107.158508 
L 356.401989 111.455488 
L 357.416534 111.455488 
L 357.416534 111.81357 
L 358.43108 111.81357 
L 358.43108 102.861528 
L 359.445625 102.861528 
L 359.445625 122.556021 
L 360.46017 122.556021 
L 360.46017 109.306998 
L 361.474716 109.306998 
L 361.474716 101.071119 
L 362.489261 101.071119 
L 362.489261 110.381243 
L 363.503807 110.381243 
L 363.503807 113.603979 
L 364.518352 113.603979 
L 364.518352 115.036306 
L 365.532898 115.036306 
L 365.532898 107.874671 
L 366.547443 107.874671 
L 366.547443 107.874671 
" clip-path="url(#p6d37704b3d)" style="fill: none; stroke: #1f77b4; stroke-width: 1.5; stroke-linecap: square"/>
   </g>
   <g id="patch_3">
    <path d="M 46.965625 228.96 
L 46.965625 7.2 
" style="fill: none; stroke: #000000; stroke-width: 0.8; stroke-linejoin: miter; stroke-linecap: square"/>
   </g>
   <g id="patch_4">
    <path d="M 381.765625 228.96 
L 381.765625 7.2 
" style="fill: none; stroke: #000000; stroke-width: 0.8; stroke-linejoin: miter; stroke-linecap: square"/>
   </g>
   <g id="patch_5">
    <path d="M 46.965625 228.96 
L 381.765625 228.96 
" style="fill: none; stroke: #000000; stroke-width: 0.8; stroke-linejoin: miter; stroke-linecap: square"/>
   </g>
   <g id="patch_6">
    <path d="M 46.965625 7.2 
L 381.765625 7.2 
" style="fill: none; stroke: #000000; stroke-width: 0.8; stroke-linejoin: miter; stroke-linecap: square"/>
   </g>
  </g>
 </g>
 <defs>
  <clipPath id="p6d37704b3d">
   <rect x="46.965625" y="7.2" width="334.8" height="221.76"/>
  </clipPath>
 </defs>
</svg>
