<?xml version="1.0" encoding="utf-8" standalone="no"?>
<!DOCTYPE svg PUBLIC "-//W3C//DTD SVG 1.1//EN"
  "http://www.w3.org/Graphics/SVG/1.1/DTD/svg11.dtd">
<svg xmlns:xlink="http://www.w3.org/1999/xlink" width="388.965625pt" height="268.200625pt" viewBox="0 0 388.965625 268.200625" xmlns="http://www.w3.org/2000/svg" version="1.1">
 <metadata>
  <rdf:RDF xmlns:dc="http://purl.org/dc/elements/1.1/" xmlns:cc="http://creativecommons.org/ns#" xmlns:rdf="http://www.w3.org/1999/02/22-rdf-syntax-ns#">
   <cc:Work>
    <dc:type rdf:resource="http://purl.org/dc/dcmitype/StillImage"/>
    <dc:date>2026-06-04T11:42:11.497801</dc:date>
    <dc:format>image/svg+xml</dc:format>
    <dc:creator>
     <cc:Agent>
      <dc:title>Matplotlib v3.10.9, https://matplotlib.org/</dc:title>
     </cc:Agent>
    </dc:creator>
   </cc:Work>
  </rdf:RDF>
 </metadata>
 <defs>
  <style type="text/css">*{stroke-linejoin: round; stroke-linecap: butt}</style>
 </defs>
 <g id="figure_1">
  <g id="patch_1">
   <path d="M 0 268.200625 
L 388.965625 268.200625 
L 388.965625 0 
L 0 0 
z
" style="fill: #ffffff"/>
  </g>
  <g id="axes_1">
   <g id="patch_2">
    <path d="M 46.965625 228.96 
L 381.765625 228.96 
L 381.765625 7.2 
L 46.965625 7.2 
z
" style="fill: #ffffff"/>
   </g>
   <g id="matplotlib.axis_1">
    <g id="xtick_1">
     <g id="line2d_1">
      <defs>
       <path id="m05127f67af" d="M 0 0 
L 0 3.5 
" style="stroke: #000000; stroke-width: 0.8"/>
      </defs>
      <g>
       <use xlink:href="#m05127f67af" x="78.202946" y="228.96" style="stroke: #000000; stroke-width: 0.8"/>
      </g>
     </g>
     <g id="text_1">
      <!-- 1.0 -->
      <g transform="translate(70.251383 243.558437) scale(0.1 -0.1)">
       <defs>
        <path id="DejaVuSans-31" d="M 794 531 
L 1825 531 
L 1825 4091 
L 703 3866 
L 703 4441 
L 1819 4666 
L 2450 4666 
L 2450 531 
L 3481 531 
L 3481 0 
L 794 0 
L 794 531 
z
" transform="scale(0.015625)"/>
        <path id="DejaVuSans-2e" d="M 684 794 
L 1344 794 
L 1344 0 
L 684 0 
L 684 794 
z
" transform="scale(0.015625)"/>
        <path id="DejaVuSans-30" d="M 2034 4250 
Q 1547 4250 1301 3770 
Q 1056 3291 1056 2328 
Q 1056 1369 1301 889 
Q 1547 409 2034 409 
Q 2525 409 2770 889 
Q 3016 1369 3016 2328 
Q 3016 3291 2770 3770 
Q 2525 4250 2034 4250 
z
M 2034 4750 
Q 2819 4750 3233 4129 
Q 3647 3509 3647 2328 
Q 3647 1150 3233 529 
Q 2819 -91 2034 -91 
Q 1250 -91 836 529 
Q 422 1150 422 2328 
Q 422 3509 836 4129 
Q 1250 4750 2034 4750 
z
" transform="scale(0.015625)"/>
       </defs>
       <use xlink:href="#DejaVuSans-31"/>
       <use xlink:href="#DejaVuSans-2e" transform="translate(63.623047 0)"/>
       <use xlink:href="#DejaVuSans-30" transform="translate(95.410156 0)"/>
      </g>
     </g>
    </g>
    <g id="xtick_2">
     <g id="line2d_2">
      <g>
       <use xlink:href="#m05127f67af" x="118.250792" y="228.96" style="stroke: #000000; stroke-width: 0.8"/>
      </g>
     </g>
     <g id="text_2">
      <!-- 1.5 -->
      <g transform="translate(110.29923 243.558437) scale(0.1 -0.1)">
       <defs>
        <path id="DejaVuSans-35" d="M 691 4666 
L 3169 4666 
L 3169 4134 
L 1269 4134 
L 1269 2991 
Q 1406 3038 1543 3061 
Q 1681 3084 1819 3084 
Q 2600 3084 3056 2656 
Q 3513 2228 3513 1497 
Q 3513 744 3044 326 
Q 2575 -91 1722 -91 
Q 1428 -91 1123 -41 
Q 819 9 494 109 
L 494 744 
Q 775 591 1075 516 
Q 1375 441 1709 441 
Q 2250 441 2565 725 
Q 2881 1009 2881 1497 
Q 2881 1984 2565 2268 
Q 2250 2553 1709 2553 
Q 1456 2553 1204 2497 
Q 953 2441 691 2322 
L 691 4666 
z
" transform="scale(0.015625)"/>
       </defs>
       <use xlink:href="#DejaVuSans-31"/>
       <use xlink:href="#DejaVuSans-2e" transform="translate(63.623047 0)"/>
       <use xlink:href="#DejaVuSans-35" transform="translate(95.410156 0)"/>
      </g>
     </g>
    </g>
    <g id="xtick_3">
     <g id="line2d_3">
      <g>
       <use xlink:href="#m05127f67af" x="158.298639" y="228.96" style="stroke: #000000; stroke-width: 0.8"/>
      </g>
     </g>
     <g id="text_3">
      <!-- 2.0 -->
      <g transform="translate(150.347077 243.558437) scale(0.1 -0.1)">
       <defs>
        <path id="DejaVuSans-32" d="M 1228 531 
L 3431 531 
L 3431 0 
L 469 0 
L 469 531 
Q 828 903 1448 1529 
Q 2069 2156 2228 2338 
Q 2531 2678 2651 2914 
Q 2772 3150 2772 3378 
Q 2772 3750 2511 3984 
Q 2250 4219 1831 4219 
Q 1534 4219 1204 4116 
Q 875 4013 500 3803 
L 500 4441 
Q 881 4594 1212 4672 
Q 1544 4750 1819 4750 
Q 2544 4750 2975 4387 
Q 3406 4025 3406 3419 
Q 3406 3131 3298 2873 
Q 3191 2616 2906 2266 
Q 2828 2175 2409 1742 
Q 1991 1309 1228 531 
z
" transform="scale(0.015625)"/>
       </defs>
       <use xlink:href="#DejaVuSans-32"/>
       <use xlink:href="#DejaVuSans-2e" transform="translate(63.623047 0)"/>
       <use xlink:href="#DejaVuSans-30" transform="translate(95.410156 0)"/>
      </g>
     </g>
    </g>
    <g id="xtick_4">
     <g id="line2d_4">
      <g>
       <use xlink:href="#m05127f67af" x="198.346486" y="228.96" style="stroke: #000000; stroke-width: 0.8"/>
      </g>
     </g>
     <g id="text_4">
      <!-- 2.5 -->
      <g transform="translate(190.394924 243.558437) scale(0.1 -0.1)">
       <use xlink:href="#DejaVuSans-32"/>
       <use xlink:href="#DejaVuSans-2e" transform="translate(63.623047 0)"/>
       <use xlink:href="#DejaVuSans-35" transform="translate(95.410156 0)"/>
      </g>
     </g>
    </g>
    <g id="xtick_5">
     <g id="line2d_5">
      <g>
       <use xlink:href="#m05127f67af" x="238.394333" y="228.96" style="stroke: #000000; stroke-width: 0.8"/>
      </g>
     </g>
     <g id="text_5">
      <!-- 3.0 -->
      <g transform="translate(230.442771 243.558437) scale(0.1 -0.1)">
       <defs>
        <path id="DejaVuSans-33" d="M 2597 2516 
Q 3050 2419 3304 2112 
Q 3559 1806 3559 1356 
Q 3559 666 3084 287 
Q 2609 -91 1734 -91 
Q 1441 -91 1130 -33 
Q 819 25 488 141 
L 488 750 
Q 750 597 1062 519 
Q 1375 441 1716 441 
Q 2309 441 2620 675 
Q 2931 909 2931 1356 
Q 2931 1769 2642 2001 
Q 2353 2234 1838 2234 
L 1294 2234 
L 1294 2753 
L 1863 2753 
Q 2328 2753 2575 2939 
Q 2822 3125 2822 3475 
Q 2822 3834 2567 4026 
Q 2313 4219 1838 4219 
Q 1578 4219 1281 4162 
Q 984 4106 628 3988 
L 628 4550 
Q 988 4650 1302 4700 
Q 1616 4750 1894 4750 
Q 2613 4750 3031 4423 
Q 3450 4097 3450 3541 
Q 3450 3153 3228 2886 
Q 3006 2619 2597 2516 
z
" transform="scale(0.015625)"/>
       </defs>
       <use xlink:href="#DejaVuSans-33"/>
       <use xlink:href="#DejaVuSans-2e" transform="translate(63.623047 0)"/>
       <use xlink:href="#DejaVuSans-30" transform="translate(95.410156 0)"/>
      </g>
     </g>
    </g>
    <g id="xtick_6">
     <g id="line2d_6">
      <g>
       <use xlink:href="#m05127f67af" x="278.44218" y="228.96" style="stroke: #000000; stroke-width: 0.8"/>
      </g>
     </g>
     <g id="text_6">
      <!-- 3.5 -->
      <g transform="translate(270.490618 243.558437) scale(0.1 -0.1)">
       <use xlink:href="#DejaVuSans-33"/>
       <use xlink:href="#DejaVuSans-2e" transform="translate(63.623047 0)"/>
       <use xlink:href="#DejaVuSans-35" transform="translate(95.410156 0)"/>
      </g>
     </g>
    </g>
    <g id="xtick_7">
     <g id="line2d_7">
      <g>
       <use xlink:href="#m05127f67af" x="318.490027" y="228.96" style="stroke: #000000; stroke-width: 0.8"/>
      </g>
     </g>
     <g id="text_7">
      <!-- 4.0 -->
      <g transform="translate(310.538464 243.558437) scale(0.1 -0.1)">
       <defs>
        <path id="DejaVuSans-34" d="M 2419 4116 
L 825 1625 
L 2419 1625 
L 2419 4116 
z
M 2253 4666 
L 3047 4666 
L 3047 1625 
L 3713 1625 
L 3713 1100 
L 3047 1100 
L 3047 0 
L 2419 0 
L 2419 1100 
L 313 1100 
L 313 1709 
L 2253 4666 
z
" transform="scale(0.015625)"/>
       </defs>
       <use xlink:href="#DejaVuSans-34"/>
       <use xlink:href="#DejaVuSans-2e" transform="translate(63.623047 0)"/>
       <use xlink:href="#DejaVuSans-30" transform="translate(95.410156 0)"/>
      </g>
     </g>
    </g>
    <g id="xtick_8">
     <g id="line2d_8">
      <g>
       <use xlink:href="#m05127f67af" x="358.537874" y="228.96" style="stroke: #000000; stroke-width: 0.8"/>
      </g>
     </g>
     <g id="text_8">
      <!-- 4.5 -->
      <g transform="translate(350.586311 243.558437) scale(0.1 -0.1)">
       <use xlink:href="#DejaVuSans-34"/>
       <use xlink:href="#DejaVuSans-2e" transform="translate(63.623047 0)"/>
       <use xlink:href="#DejaVuSans-35" transform="translate(95.410156 0)"/>
      </g>
     </g>
    </g>
    <g id="text_9">
     <!-- wavelength [Å] -->
     <g transform="translate(176.328125 258.920937) scale(0.1 -0.1)">
      <defs>
       <path id="DejaVuSans-77" d="M 269 3500 
L 844 3500 
L 1563 769 
L 2278 3500 
L 2956 3500 
L 3675 769 
L 4391 3500 
L 4966 3500 
L 4050 0 
L 3372 0 
L 2619 2869 
L 1863 0 
L 1184 0 
L 269 3500 
z
" transform="scale(0.015625)"/>
       <path id="DejaVuSans-61" d="M 2194 1759 
Q 1497 1759 1228 1600 
Q 959 1441 959 1056 
Q 959 750 1161 570 
Q 1363 391 1709 391 
Q 2188 391 2477 730 
Q 2766 1069 2766 1631 
L 2766 1759 
L 2194 1759 
z
M 3341 1997 
L 3341 0 
L 2766 0 
L 2766 531 
Q 2569 213 2275 61 
Q 1981 -91 1556 -91 
Q 1019 -91 701 211 
Q 384 513 384 1019 
Q 384 1609 779 1909 
Q 1175 2209 1959 2209 
L 2766 2209 
L 2766 2266 
Q 2766 2663 2505 2880 
Q 2244 3097 1772 3097 
Q 1472 3097 1187 3025 
Q 903 2953 641 2809 
L 641 3341 
Q 956 3463 1253 3523 
Q 1550 3584 1831 3584 
Q 2591 3584 2966 3190 
Q 3341 2797 3341 1997 
z
" transform="scale(0.015625)"/>
       <path id="DejaVuSans-76" d="M 191 3500 
L 800 3500 
L 1894 563 
L 2988 3500 
L 3597 3500 
L 2284 0 
L 1503 0 
L 191 3500 
z
" transform="scale(0.015625)"/>
       <path id="DejaVuSans-65" d="M 3597 1894 
L 3597 1613 
L 953 1613 
Q 991 1019 1311 708 
Q 1631 397 2203 397 
Q 2534 397 2845 478 
Q 3156 559 3463 722 
L 3463 178 
Q 3153 47 2828 -22 
Q 2503 -91 2169 -91 
Q 1331 -91 842 396 
Q 353 884 353 1716 
Q 353 2575 817 3079 
Q 1281 3584 2069 3584 
Q 2775 3584 3186 3129 
Q 3597 2675 3597 1894 
z
M 3022 2063 
Q 3016 2534 2758 2815 
Q 2500 3097 2075 3097 
Q 1594 3097 1305 2825 
Q 1016 2553 972 2059 
L 3022 2063 
z
" transform="scale(0.015625)"/>
       <path id="DejaVuSans-6c" d="M 603 4863 
L 1178 4863 
L 1178 0 
L 603 0 
L 603 4863 
z
" transform="scale(0.015625)"/>
       <path id="DejaVuSans-6e" d="M 3513 2113 
L 3513 0 
L 2938 0 
L 2938 2094 
Q 2938 2591 2744 2837 
Q 2550 3084 2163 3084 
Q 1697 3084 1428 2787 
Q 1159 2491 1159 1978 
L 1159 0 
L 581 0 
L 581 3500 
L 1159 3500 
L 1159 2956 
Q 1366 3272 1645 3428 
Q 1925 3584 2291 3584 
Q 2894 3584 3203 3211 
Q 3513 2838 3513 2113 
z
" transform="scale(0.015625)"/>
       <path id="DejaVuSans-67" d="M 2906 1791 
Q 2906 2416 2648 2759 
Q 2391 3103 1925 3103 
Q 1463 3103 1205 2759 
Q 947 2416 947 1791 
Q 947 1169 1205 825 
Q 1463 481 1925 481 
Q 2391 481 2648 825 
Q 2906 1169 2906 1791 
z
M 3481 434 
Q 3481 -459 3084 -895 
Q 2688 -1331 1869 -1331 
Q 1566 -1331 1297 -1286 
Q 1028 -1241 775 -1147 
L 775 -588 
Q 1028 -725 1275 -790 
Q 1522 -856 1778 -856 
Q 2344 -856 2625 -561 
Q 2906 -266 2906 331 
L 2906 616 
Q 2728 306 2450 153 
Q 2172 0 1784 0 
Q 1141 0 747 490 
Q 353 981 353 1791 
Q 353 2603 747 3093 
Q 1141 3584 1784 3584 
Q 2172 3584 2450 3431 
Q 2728 3278 2906 2969 
L 2906 3500 
L 3481 3500 
L 3481 434 
z
" transform="scale(0.015625)"/>
       <path id="DejaVuSans-74" d="M 1172 4494 
L 1172 3500 
L 2356 3500 
L 2356 3053 
L 1172 3053 
L 1172 1153 
Q 1172 725 1289 603 
Q 1406 481 1766 481 
L 2356 481 
L 2356 0 
L 1766 0 
Q 1100 0 847 248 
Q 594 497 594 1153 
L 594 3053 
L 172 3053 
L 172 3500 
L 594 3500 
L 594 4494 
L 1172 4494 
z
" transform="scale(0.015625)"/>
       <path id="DejaVuSans-68" d="M 3513 2113 
L 3513 0 
L 2938 0 
L 2938 2094 
Q 2938 2591 2744 2837 
Q 2550 3084 2163 3084 
Q 1697 3084 1428 2787 
Q 1159 2491 1159 1978 
L 1159 0 
L 581 0 
L 581 4863 
L 1159 4863 
L 1159 2956 
Q 1366 3272 1645 3428 
Q 1925 3584 2291 3584 
Q 2894 3584 3203 3211 
Q 3513 2838 3513 2113 
z
" transform="scale(0.015625)"/>
       <path id="DejaVuSans-20" transform="scale(0.015625)"/>
       <path id="DejaVuSans-5b" d="M 550 4863 
L 1875 4863 
L 1875 4416 
L 1125 4416 
L 1125 -397 
L 1875 -397 
L 1875 -844 
L 550 -844 
L 550 4863 
z
" transform="scale(0.015625)"/>
       <path id="DejaVuSans-c5" d="M 2663 5081 
Q 2663 5278 2523 5417 
Q 2384 5556 2188 5556 
Q 1988 5556 1852 5420 
Q 1716 5284 1716 5081 
Q 1716 4884 1853 4746 
Q 1991 4609 2188 4609 
Q 2384 4609 2523 4746 
Q 2663 4884 2663 5081 
z
M 2188 4044 
L 1338 1722 
L 3041 1722 
L 2188 4044 
z
M 1716 4366 
Q 1525 4494 1428 4673 
Q 1331 4853 1331 5081 
Q 1331 5441 1579 5691 
Q 1828 5941 2188 5941 
Q 2544 5941 2795 5689 
Q 3047 5438 3047 5081 
Q 3047 4863 2948 4678 
Q 2850 4494 2663 4366 
L 4325 0 
L 3669 0 
L 3244 1197 
L 1141 1197 
L 716 0 
L 50 0 
L 1716 4366 
z
" transform="scale(0.015625)"/>
       <path id="DejaVuSans-5d" d="M 1947 4863 
L 1947 -844 
L 622 -844 
L 622 -397 
L 1369 -397 
L 1369 4416 
L 622 4416 
L 622 4863 
L 1947 4863 
z
" transform="scale(0.015625)"/>
      </defs>
      <use xlink:href="#DejaVuSans-77"/>
      <use xlink:href="#DejaVuSans-61" transform="translate(81.787109 0)"/>
      <use xlink:href="#DejaVuSans-76" transform="translate(143.066406 0)"/>
      <use xlink:href="#DejaVuSans-65" transform="translate(202.246094 0)"/>
      <use xlink:href="#DejaVuSans-6c" transform="translate(263.769531 0)"/>
      <use xlink:href="#DejaVuSans-65" transform="translate(291.552734 0)"/>
      <use xlink:href="#DejaVuSans-6e" transform="translate(353.076172 0)"/>
      <use xlink:href="#DejaVuSans-67" transform="translate(416.455078 0)"/>
      <use xlink:href="#DejaVuSans-74" transform="translate(479.931641 0)"/>
      <use xlink:href="#DejaVuSans-68" transform="translate(519.140625 0)"/>
      <use xlink:href="#DejaVuSans-20" transform="translate(582.519531 0)"/>
      <use xlink:href="#DejaVuSans-5b" transform="translate(614.306641 0)"/>
      <use xlink:href="#DejaVuSans-c5" transform="translate(653.320312 0)"/>
      <use xlink:href="#DejaVuSans-5d" transform="translate(721.728516 0)"/>
     </g>
    </g>
   </g>
   <g id="matplotlib.axis_2">
    <g id="ytick_1">
     <g id="line2d_9">
      <defs>
       <path id="mfc6f8762eb" d="M 0 0 
L -3.5 0 
" style="stroke: #000000; stroke-width: 0.8"/>
      </defs>
      <g>
       <use xlink:href="#mfc6f8762eb" x="46.965625" y="218.88" style="stroke: #000000; stroke-width: 0.8"/>
      </g>
     </g>
     <g id="text_10">
      <!-- 0 -->
      <g transform="translate(33.603125 222.679219) scale(0.1 -0.1)">
       <use xlink:href="#DejaVuSans-30"/>
      </g>
     </g>
    </g>
    <g id="ytick_2">
     <g id="line2d_10">
      <g>
       <use xlink:href="#mfc6f8762eb" x="46.965625" y="193.742843" style="stroke: #000000; stroke-width: 0.8"/>
      </g>
     </g>
     <g id="text_11">
      <!-- 100 -->
      <g transform="translate(20.878125 197.542062) scale(0.1 -0.1)">
       <use xlink:href="#DejaVuSans-31"/>
       <use xlink:href="#DejaVuSans-30" transform="translate(63.623047 0)"/>
       <use xlink:href="#DejaVuSans-30" transform="translate(127.246094 0)"/>
      </g>
     </g>
    </g>
    <g id="ytick_3">
     <g id="line2d_11">
      <g>
       <use xlink:href="#mfc6f8762eb" x="46.965625" y="168.605686" style="stroke: #000000; stroke-width: 0.8"/>
      </g>
     </g>
     <g id="text_12">
      <!-- 200 -->
      <g transform="translate(20.878125 172.404905) scale(0.1 -0.1)">
       <use xlink:href="#DejaVuSans-32"/>
       <use xlink:href="#DejaVuSans-30" transform="translate(63.623047 0)"/>
       <use xlink:href="#DejaVuSans-30" transform="translate(127.246094 0)"/>
      </g>
     </g>
    </g>
    <g id="ytick_4">
     <g id="line2d_12">
      <g>
       <use xlink:href="#mfc6f8762eb" x="46.965625" y="143.468529" style="stroke: #000000; stroke-width: 0.8"/>
      </g>
     </g>
     <g id="text_13">
      <!-- 300 -->
      <g transform="translate(20.878125 147.267747) scale(0.1 -0.1)">
       <use xlink:href="#DejaVuSans-33"/>
       <use xlink:href="#DejaVuSans-30" transform="translate(63.623047 0)"/>
       <use xlink:href="#DejaVuSans-30" transform="translate(127.246094 0)"/>
      </g>
     </g>
    </g>
    <g id="ytick_5">
     <g id="line2d_13">
      <g>
       <use xlink:href="#mfc6f8762eb" x="46.965625" y="118.331372" style="stroke: #000000; stroke-width: 0.8"/>
      </g>
     </g>
     <g id="text_14">
      <!-- 400 -->
      <g transform="translate(20.878125 122.13059) scale(0.1 -0.1)">
       <use xlink:href="#DejaVuSans-34"/>
       <use xlink:href="#DejaVuSans-30" transform="translate(63.623047 0)"/>
       <use xlink:href="#DejaVuSans-30" transform="translate(127.246094 0)"/>
      </g>
     </g>
    </g>
    <g id="ytick_6">
     <g id="line2d_14">
      <g>
       <use xlink:href="#mfc6f8762eb" x="46.965625" y="93.194214" style="stroke: #000000; stroke-width: 0.8"/>
      </g>
     </g>
     <g id="text_15">
      <!-- 500 -->
      <g transform="translate(20.878125 96.993433) scale(0.1 -0.1)">
       <use xlink:href="#DejaVuSans-35"/>
       <use xlink:href="#DejaVuSans-30" transform="translate(63.623047 0)"/>
       <use xlink:href="#DejaVuSans-30" transform="translate(127.246094 0)"/>
      </g>
     </g>
    </g>
    <g id="ytick_7">
     <g id="line2d_15">
      <g>
       <use xlink:href="#mfc6f8762eb" x="46.965625" y="68.057057" style="stroke: #000000; stroke-width: 0.8"/>
      </g>
     </g>
     <g id="text_16">
      <!-- 600 -->
      <g transform="translate(20.878125 71.856276) scale(0.1 -0.1)">
       <defs>
        <path id="DejaVuSans-36" d="M 2113 2584 
Q 1688 2584 1439 2293 
Q 1191 2003 1191 1497 
Q 1191 994 1439 701 
Q 1688 409 2113 409 
Q 2538 409 2786 701 
Q 3034 994 3034 1497 
Q 3034 2003 2786 2293 
Q 2538 2584 2113 2584 
z
M 3366 4563 
L 3366 3988 
Q 3128 4100 2886 4159 
Q 2644 4219 2406 4219 
Q 1781 4219 1451 3797 
Q 1122 3375 1075 2522 
Q 1259 2794 1537 2939 
Q 1816 3084 2150 3084 
Q 2853 3084 3261 2657 
Q 3669 2231 3669 1497 
Q 3669 778 3244 343 
Q 2819 -91 2113 -91 
Q 1303 -91 875 529 
Q 447 1150 447 2328 
Q 447 3434 972 4092 
Q 1497 4750 2381 4750 
Q 2619 4750 2861 4703 
Q 3103 4656 3366 4563 
z
" transform="scale(0.015625)"/>
       </defs>
       <use xlink:href="#DejaVuSans-36"/>
       <use xlink:href="#DejaVuSans-30" transform="translate(63.623047 0)"/>
       <use xlink:href="#DejaVuSans-30" transform="translate(127.246094 0)"/>
      </g>
     </g>
    </g>
    <g id="ytick_8">
     <g id="line2d_16">
      <g>
       <use xlink:href="#mfc6f8762eb" x="46.965625" y="42.9199" style="stroke: #000000; stroke-width: 0.8"/>
      </g>
     </g>
     <g id="text_17">
      <!-- 700 -->
      <g transform="translate(20.878125 46.719119) scale(0.1 -0.1)">
       <defs>
        <path id="DejaVuSans-37" d="M 525 4666 
L 3525 4666 
L 3525 4397 
L 1831 0 
L 1172 0 
L 2766 4134 
L 525 4134 
L 525 4666 
z
" transform="scale(0.015625)"/>
       </defs>
       <use xlink:href="#DejaVuSans-37"/>
       <use xlink:href="#DejaVuSans-30" transform="translate(63.623047 0)"/>
       <use xlink:href="#DejaVuSans-30" transform="translate(127.246094 0)"/>
      </g>
     </g>
    </g>
    <g id="ytick_9">
     <g id="line2d_17">
      <g>
       <use xlink:href="#mfc6f8762eb" x="46.965625" y="17.782743" style="stroke: #000000; stroke-width: 0.8"/>
      </g>
     </g>
     <g id="text_18">
      <!-- 800 -->
      <g transform="translate(20.878125 21.581962) scale(0.1 -0.1)">
       <defs>
        <path id="DejaVuSans-38" d="M 2034 2216 
Q 1584 2216 1326 1975 
Q 1069 1734 1069 1313 
Q 1069 891 1326 650 
Q 1584 409 2034 409 
Q 2484 409 2743 651 
Q 3003 894 3003 1313 
Q 3003 1734 2745 1975 
Q 2488 2216 2034 2216 
z
M 1403 2484 
Q 997 2584 770 2862 
Q 544 3141 544 3541 
Q 544 4100 942 4425 
Q 1341 4750 2034 4750 
Q 2731 4750 3128 4425 
Q 3525 4100 3525 3541 
Q 3525 3141 3298 2862 
Q 3072 2584 2669 2484 
Q 3125 2378 3379 2068 
Q 3634 1759 3634 1313 
Q 3634 634 3220 271 
Q 2806 -91 2034 -91 
Q 1263 -91 848 271 
Q 434 634 434 1313 
Q 434 1759 690 2068 
Q 947 2378 1403 2484 
z
M 1172 3481 
Q 1172 3119 1398 2916 
Q 1625 2713 2034 2713 
Q 2441 2713 2670 2916 
Q 2900 3119 2900 3481 
Q 2900 3844 2670 4047 
Q 2441 4250 2034 4250 
Q 1625 4250 1398 4047 
Q 1172 3844 1172 3481 
z
" transform="scale(0.015625)"/>
       </defs>
       <use xlink:href="#DejaVuSans-38"/>
       <use xlink:href="#DejaVuSans-30" transform="translate(63.623047 0)"/>
       <use xlink:href="#DejaVuSans-30" transform="translate(127.246094 0)"/>
      </g>
     </g>
    </g>
    <g id="text_19">
     <!-- [counts] -->
     <g transform="translate(14.798438 138.6925) rotate(-90) scale(0.1 -0.1)">
      <defs>
       <path id="DejaVuSans-63" d="M 3122 3366 
L 3122 2828 
Q 2878 2963 2633 3030 
Q 2388 3097 2138 3097 
Q 1578 3097 1268 2742 
Q 959 2388 959 1747 
Q 959 1106 1268 751 
Q 1578 397 2138 397 
Q 2388 397 2633 464 
Q 2878 531 3122 666 
L 3122 134 
Q 2881 22 2623 -34 
Q 2366 -91 2075 -91 
Q 1284 -91 818 406 
Q 353 903 353 1747 
Q 353 2603 823 3093 
Q 1294 3584 2113 3584 
Q 2378 3584 2631 3529 
Q 2884 3475 3122 3366 
z
" transform="scale(0.015625)"/>
       <path id="DejaVuSans-6f" d="M 1959 3097 
Q 1497 3097 1228 2736 
Q 959 2375 959 1747 
Q 959 1119 1226 758 
Q 1494 397 1959 397 
Q 2419 397 2687 759 
Q 2956 1122 2956 1747 
Q 2956 2369 2687 2733 
Q 2419 3097 1959 3097 
z
M 1959 3584 
Q 2709 3584 3137 3096 
Q 3566 2609 3566 1747 
Q 3566 888 3137 398 
Q 2709 -91 1959 -91 
Q 1206 -91 779 398 
Q 353 888 353 1747 
Q 353 2609 779 3096 
Q 1206 3584 1959 3584 
z
" transform="scale(0.015625)"/>
       <path id="DejaVuSans-75" d="M 544 1381 
L 544 3500 
L 1119 3500 
L 1119 1403 
Q 1119 906 1312 657 
Q 1506 409 1894 409 
Q 2359 409 2629 706 
Q 2900 1003 2900 1516 
L 2900 3500 
L 3475 3500 
L 3475 0 
L 2900 0 
L 2900 538 
Q 2691 219 2414 64 
Q 2138 -91 1772 -91 
Q 1169 -91 856 284 
Q 544 659 544 1381 
z
M 1991 3584 
L 1991 3584 
z
" transform="scale(0.015625)"/>
       <path id="DejaVuSans-73" d="M 2834 3397 
L 2834 2853 
Q 2591 2978 2328 3040 
Q 2066 3103 1784 3103 
Q 1356 3103 1142 2972 
Q 928 2841 928 2578 
Q 928 2378 1081 2264 
Q 1234 2150 1697 2047 
L 1894 2003 
Q 2506 1872 2764 1633 
Q 3022 1394 3022 966 
Q 3022 478 2636 193 
Q 2250 -91 1575 -91 
Q 1294 -91 989 -36 
Q 684 19 347 128 
L 347 722 
Q 666 556 975 473 
Q 1284 391 1588 391 
Q 1994 391 2212 530 
Q 2431 669 2431 922 
Q 2431 1156 2273 1281 
Q 2116 1406 1581 1522 
L 1381 1569 
Q 847 1681 609 1914 
Q 372 2147 372 2553 
Q 372 3047 722 3315 
Q 1072 3584 1716 3584 
Q 2034 3584 2315 3537 
Q 2597 3491 2834 3397 
z
" transform="scale(0.015625)"/>
      </defs>
      <use xlink:href="#DejaVuSans-5b"/>
      <use xlink:href="#DejaVuSans-63" transform="translate(39.013672 0)"/>
      <use xlink:href="#DejaVuSans-6f" transform="translate(93.994141 0)"/>
      <use xlink:href="#DejaVuSans-75" transform="translate(155.175781 0)"/>
      <use xlink:href="#DejaVuSans-6e" transform="translate(218.554688 0)"/>
      <use xlink:href="#DejaVuSans-74" transform="translate(281.933594 0)"/>
      <use xlink:href="#DejaVuSans-73" transform="translate(321.142578 0)"/>
      <use xlink:href="#DejaVuSans-5d" transform="translate(373.242188 0)"/>
     </g>
    </g>
   </g>
   <g id="line2d_18">
    <path d="M 62.183807 218.88 
L 69.792898 218.88 
L 69.792898 217.874514 
L 71.314716 217.874514 
L 71.314716 209.32788 
L 72.836534 209.32788 
L 72.836534 203.546334 
L 74.358352 203.546334 
L 74.358352 198.518903 
L 75.88017 198.518903 
L 75.88017 184.442095 
L 77.401989 184.442095 
L 77.401989 181.425636 
L 78.923807 181.425636 
L 78.923807 169.862544 
L 80.445625 169.862544 
L 80.445625 164.583741 
L 81.967443 164.583741 
L 81.967443 154.780249 
L 83.489261 154.780249 
L 83.489261 156.53985 
L 85.01108 156.53985 
L 85.01108 143.217157 
L 86.532898 143.217157 
L 86.532898 130.145835 
L 88.054716 130.145835 
L 88.054716 127.129377 
L 89.576534 127.129377 
L 89.576534 114.309426 
L 91.098352 114.309426 
L 91.098352 103.249077 
L 92.62017 103.249077 
L 92.62017 86.658554 
L 94.141989 86.658554 
L 94.141989 95.70793 
L 95.663807 95.70793 
L 95.663807 85.653067 
L 97.185625 85.653067 
L 97.185625 84.898953 
L 98.707443 84.898953 
L 98.707443 85.904439 
L 100.229261 85.904439 
L 100.229261 77.609177 
L 101.75108 77.609177 
L 101.75108 66.297456 
L 103.272898 66.297456 
L 103.272898 63.280998 
L 104.794716 63.280998 
L 104.794716 55.237107 
L 106.316534 55.237107 
L 106.316534 56.493965 
L 107.838352 56.493965 
L 107.838352 50.963791 
L 109.36017 50.963791 
L 109.36017 40.908928 
L 110.881989 40.908928 
L 110.881989 47.193217 
L 112.403807 47.193217 
L 112.403807 36.132868 
L 113.925625 36.132868 
L 113.925625 36.384239 
L 115.447443 36.384239 
L 115.447443 24.821147 
L 116.969261 24.821147 
L 116.969261 33.619152 
L 118.49108 33.619152 
L 118.49108 17.28 
L 120.012898 17.28 
L 120.012898 19.793716 
L 121.534716 19.793716 
L 121.534716 37.892469 
L 123.056534 37.892469 
L 123.056534 31.105436 
L 124.578352 31.105436 
L 124.578352 20.296459 
L 126.10017 20.296459 
L 126.10017 42.668529 
L 127.621989 42.668529 
L 127.621989 51.466534 
L 129.143807 51.466534 
L 129.143807 28.340349 
L 130.665625 28.340349 
L 130.665625 43.422643 
L 132.187443 43.422643 
L 132.187443 39.903441 
L 133.709261 39.903441 
L 133.709261 42.165786 
L 135.23108 42.165786 
L 135.23108 47.69596 
L 136.752898 47.69596 
L 136.752898 45.684988 
L 138.274716 45.684988 
L 138.274716 32.613666 
L 139.796534 32.613666 
L 139.796534 41.914414 
L 141.318352 41.914414 
L 141.318352 47.69596 
L 142.84017 47.69596 
L 142.84017 54.231621 
L 144.361989 54.231621 
L 144.361989 65.543342 
L 145.883807 65.543342 
L 145.883807 43.171272 
L 147.405625 43.171272 
L 147.405625 59.510424 
L 148.927443 59.510424 
L 148.927443 57.750823 
L 150.449261 57.750823 
L 150.449261 57.499451 
L 151.97108 57.499451 
L 151.97108 64.537855 
L 153.492898 64.537855 
L 153.492898 62.275511 
L 155.014716 62.275511 
L 155.014716 65.040599 
L 156.536534 65.040599 
L 156.536534 57.24808 
L 158.058352 57.24808 
L 158.058352 70.319401 
L 159.58017 70.319401 
L 159.58017 73.587232 
L 161.101989 73.587232 
L 161.101989 72.079002 
L 162.623807 72.079002 
L 162.623807 64.286484 
L 164.145625 64.286484 
L 164.145625 68.057057 
L 165.667443 68.057057 
L 165.667443 85.653067 
L 167.189261 85.653067 
L 167.189261 62.526883 
L 168.71108 62.526883 
L 168.71108 77.609177 
L 170.232898 77.609177 
L 170.232898 76.855062 
L 171.754716 76.855062 
L 171.754716 78.363292 
L 173.276534 78.363292 
L 173.276534 80.625636 
L 174.798352 80.625636 
L 174.798352 85.150324 
L 176.32017 85.150324 
L 176.32017 77.609177 
L 177.841989 77.609177 
L 177.841989 86.407182 
L 179.363807 86.407182 
L 179.363807 98.473017 
L 180.885625 98.473017 
L 180.885625 104.254564 
L 182.407443 104.254564 
L 182.407443 110.287481 
L 183.929261 110.287481 
L 183.929261 99.478504 
L 185.45108 99.478504 
L 185.45108 109.030623 
L 186.972898 109.030623 
L 186.972898 109.784738 
L 188.494716 109.784738 
L 188.494716 123.610175 
L 190.016534 123.610175 
L 190.016534 136.430125 
L 191.538352 136.430125 
L 191.538352 137.435611 
L 193.06017 137.435611 
L 193.06017 148.747332 
L 194.581989 148.747332 
L 194.581989 151.763791 
L 196.103807 151.763791 
L 196.103807 171.370773 
L 197.625625 171.370773 
L 197.625625 170.365287 
L 199.147443 170.365287 
L 199.147443 176.398204 
L 200.669261 176.398204 
L 200.669261 191.229127 
L 202.19108 191.229127 
L 202.19108 190.223641 
L 203.712898 190.223641 
L 203.712898 192.737357 
L 205.234716 192.737357 
L 205.234716 200.781247 
L 206.756534 200.781247 
L 206.756534 206.814165 
L 208.278352 206.814165 
L 208.278352 212.595711 
L 209.80017 212.595711 
L 209.80017 215.61217 
L 211.321989 215.61217 
L 211.321989 217.120399 
L 212.843807 217.120399 
L 212.843807 213.852569 
L 214.365625 213.852569 
L 214.365625 206.311421 
L 215.887443 206.311421 
L 215.887443 201.535362 
L 217.409261 201.535362 
L 217.409261 191.229127 
L 218.93108 191.229127 
L 218.93108 187.961297 
L 220.452898 187.961297 
L 220.452898 180.671521 
L 221.974716 180.671521 
L 221.974716 177.906434 
L 223.496534 177.906434 
L 223.496534 172.879002 
L 225.018352 172.879002 
L 225.018352 171.622145 
L 226.54017 171.622145 
L 226.54017 163.075511 
L 228.061989 163.075511 
L 228.061989 153.020648 
L 229.583807 153.020648 
L 229.583807 147.239102 
L 231.105625 147.239102 
L 231.105625 147.741845 
L 232.627443 147.741845 
L 232.627443 140.45207 
L 234.149261 140.45207 
L 234.149261 137.938354 
L 235.67108 137.938354 
L 235.67108 128.637606 
L 237.192898 128.637606 
L 237.192898 128.888978 
L 238.714716 128.888978 
L 238.714716 124.364289 
L 240.236534 124.364289 
L 240.236534 125.621147 
L 241.758352 125.621147 
L 241.758352 128.888978 
L 243.28017 128.888978 
L 243.28017 107.773766 
L 244.801989 107.773766 
L 244.801989 100.735362 
L 246.323807 100.735362 
L 246.323807 102.746334 
L 247.845625 102.746334 
L 247.845625 101.238105 
L 249.367443 101.238105 
L 249.367443 103.500449 
L 250.889261 103.500449 
L 250.889261 106.014165 
L 252.41108 106.014165 
L 252.41108 99.729875 
L 253.932898 99.729875 
L 253.932898 89.926384 
L 255.454716 89.926384 
L 255.454716 85.653067 
L 256.976534 85.653067 
L 256.976534 94.702444 
L 258.498352 94.702444 
L 258.498352 82.88798 
L 260.02017 82.88798 
L 260.02017 92.188728 
L 261.541989 92.188728 
L 261.541989 75.095461 
L 263.063807 75.095461 
L 263.063807 88.669526 
L 264.585625 88.669526 
L 264.585625 95.70793 
L 266.107443 95.70793 
L 266.107443 92.4401 
L 267.629261 92.4401 
L 267.629261 102.746334 
L 269.15108 102.746334 
L 269.15108 96.713416 
L 270.672898 96.713416 
L 270.672898 111.544339 
L 272.194716 111.544339 
L 272.194716 102.746334 
L 273.716534 102.746334 
L 273.716534 100.735362 
L 275.238352 100.735362 
L 275.238352 105.511421 
L 276.76017 105.511421 
L 276.76017 101.489476 
L 278.281989 101.489476 
L 278.281989 104.505935 
L 279.803807 104.505935 
L 279.803807 108.276509 
L 281.325625 108.276509 
L 281.325625 99.729875 
L 282.847443 99.729875 
L 282.847443 127.883491 
L 284.369261 127.883491 
L 284.369261 119.839601 
L 285.89108 119.839601 
L 285.89108 112.298454 
L 287.412898 112.298454 
L 287.412898 116.069027 
L 288.934716 116.069027 
L 288.934716 119.839601 
L 290.456534 119.839601 
L 290.456534 125.621147 
L 291.978352 125.621147 
L 291.978352 125.369776 
L 293.50017 125.369776 
L 293.50017 126.878005 
L 295.021989 126.878005 
L 295.021989 136.932868 
L 296.543807 136.932868 
L 296.543807 127.380748 
L 298.065625 127.380748 
L 298.065625 133.665037 
L 299.587443 133.665037 
L 299.587443 140.954813 
L 301.109261 140.954813 
L 301.109261 132.40818 
L 302.63108 132.40818 
L 302.63108 130.648579 
L 304.152898 130.648579 
L 304.152898 132.910923 
L 305.674716 132.910923 
L 305.674716 140.703441 
L 307.196534 140.703441 
L 307.196534 140.954813 
L 308.718352 140.954813 
L 308.718352 147.239102 
L 310.24017 147.239102 
L 310.24017 143.468529 
L 311.761989 143.468529 
L 311.761989 152.266534 
L 313.283807 152.266534 
L 313.283807 156.037107 
L 314.805625 156.037107 
L 314.805625 159.053566 
L 316.327443 159.053566 
L 316.327443 153.020648 
L 317.849261 153.020648 
L 317.849261 160.813167 
L 319.37108 160.813167 
L 319.37108 161.31591 
L 320.892898 161.31591 
L 320.892898 166.594713 
L 322.414716 166.594713 
L 322.414716 162.82414 
L 323.936534 162.82414 
L 323.936534 176.146833 
L 325.458352 176.146833 
L 325.458352 172.627631 
L 326.98017 172.627631 
L 326.98017 171.622145 
L 328.501989 171.622145 
L 328.501989 172.376259 
L 330.023807 172.376259 
L 330.023807 185.447581 
L 331.545625 185.447581 
L 331.545625 180.168778 
L 333.067443 180.168778 
L 333.067443 179.917406 
L 334.589261 179.917406 
L 334.589261 187.709925 
L 336.11108 187.709925 
L 336.11108 192.988728 
L 337.632898 192.988728 
L 337.632898 195.251072 
L 339.154716 195.251072 
L 339.154716 202.038105 
L 340.676534 202.038105 
L 340.676534 201.535362 
L 342.198352 201.535362 
L 342.198352 203.546334 
L 343.72017 203.546334 
L 343.72017 204.55182 
L 345.241989 204.55182 
L 345.241989 205.054564 
L 346.763807 205.054564 
L 346.763807 208.825137 
L 348.285625 208.825137 
L 348.285625 210.333367 
L 349.807443 210.333367 
L 349.807443 213.098454 
L 351.329261 213.098454 
L 351.329261 214.858055 
L 352.85108 214.858055 
L 352.85108 214.606683 
L 354.372898 214.606683 
L 354.372898 215.61217 
L 355.894716 215.61217 
L 355.894716 218.125885 
L 357.416534 218.125885 
L 357.416534 218.377257 
L 358.938352 218.377257 
L 358.938352 218.88 
L 366.547443 218.88 
L 366.547443 218.88 
" clip-path="url(#p6d3e6534b7)" style="fill: none; stroke: #1f77b4; stroke-width: 1.5; stroke-linecap: square"/>
   </g>
   <g id="line2d_19">
    <path d="M 62.183807 218.88 
L 69.792898 218.88 
L 69.792898 217.623142 
L 71.314716 217.623142 
L 71.314716 209.076509 
L 72.836534 209.076509 
L 72.836534 204.300449 
L 74.358352 204.300449 
L 74.358352 197.764788 
L 75.88017 197.764788 
L 75.88017 185.196209 
L 77.401989 185.196209 
L 77.401989 180.922893 
L 78.923807 180.922893 
L 78.923807 170.86803 
L 80.445625 170.86803 
L 80.445625 165.337855 
L 81.967443 165.337855 
L 81.967443 151.763791 
L 83.489261 151.763791 
L 83.489261 155.785736 
L 85.01108 155.785736 
L 85.01108 145.982244 
L 86.532898 145.982244 
L 86.532898 129.391721 
L 88.054716 129.391721 
L 88.054716 126.626633 
L 89.576534 126.626633 
L 89.576534 115.817656 
L 91.098352 115.817656 
L 91.098352 102.746334 
L 92.62017 102.746334 
L 92.62017 88.418155 
L 94.141989 88.418155 
L 94.141989 91.937357 
L 95.663807 91.937357 
L 95.663807 79.871521 
L 97.185625 79.871521 
L 97.185625 88.418155 
L 98.707443 88.418155 
L 98.707443 87.66404 
L 100.229261 87.66404 
L 100.229261 77.106434 
L 101.75108 77.106434 
L 101.75108 62.778254 
L 103.272898 62.778254 
L 103.272898 61.521397 
L 104.794716 61.521397 
L 104.794716 60.013167 
L 106.316534 60.013167 
L 106.316534 58.253566 
L 107.838352 58.253566 
L 107.838352 52.220648 
L 109.36017 52.220648 
L 109.36017 44.930873 
L 110.881989 44.930873 
L 110.881989 37.892469 
L 112.403807 37.892469 
L 112.403807 40.154813 
L 113.925625 40.154813 
L 113.925625 31.105436 
L 115.447443 31.105436 
L 115.447443 24.318404 
L 116.969261 24.318404 
L 116.969261 39.400698 
L 118.49108 39.400698 
L 118.49108 24.821147 
L 120.012898 24.821147 
L 120.012898 24.569776 
L 121.534716 24.569776 
L 121.534716 21.553317 
L 123.056534 21.553317 
L 123.056534 30.854065 
L 124.578352 30.854065 
L 124.578352 30.09995 
L 126.10017 30.09995 
L 126.10017 35.127382 
L 127.621989 35.127382 
L 127.621989 39.903441 
L 129.143807 39.903441 
L 129.143807 41.663042 
L 130.665625 41.663042 
L 130.665625 48.701446 
L 132.187443 48.701446 
L 132.187443 32.110923 
L 133.709261 32.110923 
L 133.709261 49.706933 
L 135.23108 49.706933 
L 135.23108 52.220648 
L 136.752898 52.220648 
L 136.752898 27.837606 
L 138.274716 27.837606 
L 138.274716 44.176758 
L 139.796534 44.176758 
L 139.796534 34.624638 
L 141.318352 34.624638 
L 141.318352 49.706933 
L 142.84017 49.706933 
L 142.84017 59.761796 
L 144.361989 59.761796 
L 144.361989 47.69596 
L 145.883807 47.69596 
L 145.883807 61.270025 
L 147.405625 61.270025 
L 147.405625 55.991222 
L 148.927443 55.991222 
L 148.927443 57.24808 
L 150.449261 57.24808 
L 150.449261 57.499451 
L 151.97108 57.499451 
L 151.97108 58.253566 
L 153.492898 58.253566 
L 153.492898 64.537855 
L 155.014716 64.537855 
L 155.014716 60.51591 
L 156.536534 60.51591 
L 156.536534 61.270025 
L 158.058352 61.270025 
L 158.058352 70.319401 
L 159.58017 70.319401 
L 159.58017 74.84409 
L 161.101989 74.84409 
L 161.101989 73.084489 
L 162.623807 73.084489 
L 162.623807 60.264539 
L 164.145625 60.264539 
L 164.145625 72.330374 
L 165.667443 72.330374 
L 165.667443 73.33586 
L 167.189261 73.33586 
L 167.189261 78.363292 
L 168.71108 78.363292 
L 168.71108 60.264539 
L 170.232898 60.264539 
L 170.232898 70.822145 
L 171.754716 70.822145 
L 171.754716 86.15581 
L 173.276534 86.15581 
L 173.276534 83.139352 
L 174.798352 83.139352 
L 174.798352 76.100948 
L 176.32017 76.100948 
L 176.32017 82.88798 
L 177.841989 82.88798 
L 177.841989 83.390723 
L 179.363807 83.390723 
L 179.363807 91.183242 
L 180.885625 91.183242 
L 180.885625 100.735362 
L 182.407443 100.735362 
L 182.407443 108.276509 
L 183.929261 108.276509 
L 183.929261 106.014165 
L 185.45108 106.014165 
L 185.45108 106.516908 
L 186.972898 106.516908 
L 186.972898 116.823142 
L 188.494716 116.823142 
L 188.494716 127.63212 
L 190.016534 127.63212 
L 190.016534 137.435611 
L 191.538352 137.435611 
L 191.538352 142.714414 
L 193.06017 142.714414 
L 193.06017 141.960299 
L 194.581989 141.960299 
L 194.581989 162.070025 
L 196.103807 162.070025 
L 196.103807 167.851571 
L 197.625625 167.851571 
L 197.625625 171.622145 
L 199.147443 171.622145 
L 199.147443 181.677007 
L 200.669261 181.677007 
L 200.669261 190.977756 
L 202.19108 190.977756 
L 202.19108 191.229127 
L 203.712898 191.229127 
L 203.712898 196.005187 
L 205.234716 196.005187 
L 205.234716 200.781247 
L 206.756534 200.781247 
L 206.756534 206.562793 
L 208.278352 206.562793 
L 208.278352 214.10394 
L 209.80017 214.10394 
L 209.80017 214.858055 
L 211.321989 214.858055 
L 211.321989 217.371771 
L 212.843807 217.371771 
L 212.843807 210.333367 
L 214.365625 210.333367 
L 214.365625 205.305935 
L 215.887443 205.305935 
L 215.887443 203.546334 
L 217.409261 203.546334 
L 217.409261 190.726384 
L 218.93108 190.726384 
L 218.93108 187.207182 
L 220.452898 187.207182 
L 220.452898 179.666035 
L 221.974716 179.666035 
L 221.974716 177.403691 
L 223.496534 177.403691 
L 223.496534 175.392718 
L 225.018352 175.392718 
L 225.018352 168.354314 
L 226.54017 168.354314 
L 226.54017 165.086484 
L 228.061989 165.086484 
L 228.061989 153.27202 
L 229.583807 153.27202 
L 229.583807 147.741845 
L 231.105625 147.741845 
L 231.105625 147.239102 
L 232.627443 147.239102 
L 232.627443 139.949327 
L 234.149261 139.949327 
L 234.149261 136.932868 
L 235.67108 136.932868 
L 235.67108 130.89995 
L 237.192898 130.89995 
L 237.192898 123.861546 
L 238.714716 123.861546 
L 238.714716 131.905436 
L 240.236534 131.905436 
L 240.236534 121.34783 
L 241.758352 121.34783 
L 241.758352 128.134863 
L 243.28017 128.134863 
L 243.28017 106.014165 
L 244.801989 106.014165 
L 244.801989 103.249077 
L 246.323807 103.249077 
L 246.323807 96.964788 
L 247.845625 96.964788 
L 247.845625 104.505935 
L 249.367443 104.505935 
L 249.367443 96.964788 
L 250.889261 96.964788 
L 250.889261 109.281995 
L 252.41108 109.281995 
L 252.41108 101.238105 
L 253.932898 101.238105 
L 253.932898 89.423641 
L 255.454716 89.423641 
L 255.454716 92.691471 
L 256.976534 92.691471 
L 256.976534 86.15581 
L 258.498352 86.15581 
L 258.498352 96.713416 
L 260.02017 96.713416 
L 260.02017 81.379751 
L 261.541989 81.379751 
L 261.541989 82.88798 
L 263.063807 82.88798 
L 263.063807 86.909925 
L 264.585625 86.909925 
L 264.585625 91.434613 
L 266.107443 91.434613 
L 266.107443 95.456559 
L 267.629261 95.456559 
L 267.629261 100.232618 
L 269.15108 100.232618 
L 269.15108 94.451072 
L 270.672898 94.451072 
L 270.672898 117.577257 
L 272.194716 117.577257 
L 272.194716 98.724389 
L 273.716534 98.724389 
L 273.716534 102.243591 
L 275.238352 102.243591 
L 275.238352 102.494963 
L 276.76017 102.494963 
L 276.76017 103.249077 
L 278.281989 103.249077 
L 278.281989 102.997706 
L 279.803807 102.997706 
L 279.803807 105.511421 
L 281.325625 105.511421 
L 281.325625 112.549825 
L 282.847443 112.549825 
L 282.847443 119.588229 
L 285.89108 119.588229 
L 285.89108 110.538853 
L 287.412898 110.538853 
L 287.412898 120.342344 
L 288.934716 120.342344 
L 288.934716 116.571771 
L 290.456534 116.571771 
L 290.456534 135.424638 
L 291.978352 135.424638 
L 291.978352 121.096459 
L 293.50017 121.096459 
L 293.50017 127.129377 
L 295.021989 127.129377 
L 295.021989 129.643092 
L 296.543807 129.643092 
L 296.543807 131.905436 
L 298.065625 131.905436 
L 298.065625 132.156808 
L 299.587443 132.156808 
L 299.587443 143.7199 
L 301.109261 143.7199 
L 301.109261 130.145835 
L 302.63108 130.145835 
L 302.63108 128.888978 
L 304.152898 128.888978 
L 304.152898 137.435611 
L 305.674716 137.435611 
L 305.674716 134.921895 
L 307.196534 134.921895 
L 307.196534 142.714414 
L 308.718352 142.714414 
L 308.718352 141.206185 
L 310.24017 141.206185 
L 310.24017 152.266534 
L 311.761989 152.266534 
L 311.761989 145.479501 
L 313.283807 145.479501 
L 313.283807 159.807681 
L 314.805625 159.807681 
L 314.805625 150.758304 
L 316.327443 150.758304 
L 316.327443 158.299451 
L 317.849261 158.299451 
L 317.849261 155.785736 
L 319.37108 155.785736 
L 319.37108 168.354314 
L 320.892898 168.354314 
L 320.892898 165.840599 
L 322.414716 165.840599 
L 322.414716 161.818653 
L 323.936534 161.818653 
L 323.936534 170.616658 
L 325.458352 170.616658 
L 325.458352 173.130374 
L 328.501989 173.130374 
L 328.501989 175.895461 
L 330.023807 175.895461 
L 330.023807 180.922893 
L 331.545625 180.922893 
L 331.545625 177.655062 
L 333.067443 177.655062 
L 333.067443 184.944838 
L 334.589261 184.944838 
L 334.589261 188.212668 
L 336.11108 188.212668 
L 336.11108 194.245586 
L 337.632898 194.245586 
L 337.632898 198.267531 
L 339.154716 198.267531 
L 339.154716 202.540848 
L 340.676534 202.540848 
L 340.676534 202.792219 
L 342.198352 202.792219 
L 342.198352 202.540848 
L 343.72017 202.540848 
L 343.72017 203.797706 
L 345.241989 203.797706 
L 345.241989 204.55182 
L 346.763807 204.55182 
L 346.763807 211.087481 
L 348.285625 211.087481 
L 348.285625 209.830623 
L 349.807443 209.830623 
L 349.807443 213.349825 
L 351.329261 213.349825 
L 351.329261 215.109426 
L 352.85108 215.109426 
L 352.85108 214.858055 
L 354.372898 214.858055 
L 354.372898 216.114913 
L 355.894716 216.114913 
L 355.894716 217.874514 
L 357.416534 217.874514 
L 357.416534 218.628628 
L 358.938352 218.628628 
L 358.938352 218.88 
L 366.547443 218.88 
L 366.547443 218.88 
" clip-path="url(#p6d3e6534b7)" style="fill: none; stroke: #000000; stroke-width: 1.5; stroke-linecap: square"/>
   </g>
   <g id="patch_3">
    <path d="M 46.965625 228.96 
L 46.965625 7.2 
" style="fill: none; stroke: #000000; stroke-width: 0.8; stroke-linejoin: miter; stroke-linecap: square"/>
   </g>
   <g id="patch_4">
    <path d="M 381.765625 228.96 
L 381.765625 7.2 
" style="fill: none; stroke: #000000; stroke-width: 0.8; stroke-linejoin: miter; stroke-linecap: square"/>
   </g>
   <g id="patch_5">
    <path d="M 46.965625 228.96 
L 381.765625 228.96 
" style="fill: none; stroke: #000000; stroke-width: 0.8; stroke-linejoin: miter; stroke-linecap: square"/>
   </g>
   <g id="patch_6">
    <path d="M 46.965625 7.2 
L 381.765625 7.2 
" style="fill: none; stroke: #000000; stroke-width: 0.8; stroke-linejoin: miter; stroke-linecap: square"/>
   </g>
   <g id="legend_1">
    <g id="patch_7">
     <path d="M 277.7625 44.834375 
L 374.765625 44.834375 
Q 376.765625 44.834375 376.765625 42.834375 
L 376.765625 14.2 
Q 376.765625 12.2 374.765625 12.2 
L 277.7625 12.2 
Q 275.7625 12.2 275.7625 14.2 
L 275.7625 42.834375 
Q 275.7625 44.834375 277.7625 44.834375 
z
" style="fill: #ffffff; opacity: 0.8; stroke: #cccccc; stroke-linejoin: miter"/>
    </g>
    <g id="line2d_20">
     <path d="M 279.7625 20.298437 
L 279.7625 20.298437 
L 289.7625 20.298437 
L 289.7625 20.298437 
L 299.7625 20.298437 
" style="fill: none; stroke: #1f77b4; stroke-width: 1.5; stroke-linecap: square"/>
    </g>
    <g id="text_20">
     <!-- wfm -->
     <g transform="translate(307.7625 23.798437) scale(0.1 -0.1)">
      <defs>
       <path id="DejaVuSans-66" d="M 2375 4863 
L 2375 4384 
L 1825 4384 
Q 1516 4384 1395 4259 
Q 1275 4134 1275 3809 
L 1275 3500 
L 2222 3500 
L 2222 3053 
L 1275 3053 
L 1275 0 
L 697 0 
L 697 3053 
L 147 3053 
L 147 3500 
L 697 3500 
L 697 3744 
Q 697 4328 969 4595 
Q 1241 4863 1831 4863 
L 2375 4863 
z
" transform="scale(0.015625)"/>
       <path id="DejaVuSans-6d" d="M 3328 2828 
Q 3544 3216 3844 3400 
Q 4144 3584 4550 3584 
Q 5097 3584 5394 3201 
Q 5691 2819 5691 2113 
L 5691 0 
L 5113 0 
L 5113 2094 
Q 5113 2597 4934 2840 
Q 4756 3084 4391 3084 
Q 3944 3084 3684 2787 
Q 3425 2491 3425 1978 
L 3425 0 
L 2847 0 
L 2847 2094 
Q 2847 2600 2669 2842 
Q 2491 3084 2119 3084 
Q 1678 3084 1418 2786 
Q 1159 2488 1159 1978 
L 1159 0 
L 581 0 
L 581 3500 
L 1159 3500 
L 1159 2956 
Q 1356 3278 1631 3431 
Q 1906 3584 2284 3584 
Q 2666 3584 2933 3390 
Q 3200 3197 3328 2828 
z
" transform="scale(0.015625)"/>
      </defs>
      <use xlink:href="#DejaVuSans-77"/>
      <use xlink:href="#DejaVuSans-66" transform="translate(81.787109 0)"/>
      <use xlink:href="#DejaVuSans-6d" transform="translate(116.992188 0)"/>
     </g>
    </g>
    <g id="line2d_21">
     <path d="M 279.7625 34.976562 
L 279.7625 34.976562 
L 289.7625 34.976562 
L 289.7625 34.976562 
L 299.7625 34.976562 
" style="fill: none; stroke: #000000; stroke-width: 1.5; stroke-linecap: square"/>
    </g>
    <g id="text_21">
     <!-- ground_truth -->
     <g transform="translate(307.7625 38.476562) scale(0.1 -0.1)">
      <defs>
       <path id="DejaVuSans-72" d="M 2631 2963 
Q 2534 3019 2420 3045 
Q 2306 3072 2169 3072 
Q 1681 3072 1420 2755 
Q 1159 2438 1159 1844 
L 1159 0 
L 581 0 
L 581 3500 
L 1159 3500 
L 1159 2956 
Q 1341 3275 1631 3429 
Q 1922 3584 2338 3584 
Q 2397 3584 2469 3576 
Q 2541 3569 2628 3553 
L 2631 2963 
z
" transform="scale(0.015625)"/>
       <path id="DejaVuSans-64" d="M 2906 2969 
L 2906 4863 
L 3481 4863 
L 3481 0 
L 2906 0 
L 2906 525 
Q 2725 213 2448 61 
Q 2172 -91 1784 -91 
Q 1150 -91 751 415 
Q 353 922 353 1747 
Q 353 2572 751 3078 
Q 1150 3584 1784 3584 
Q 2172 3584 2448 3432 
Q 2725 3281 2906 2969 
z
M 947 1747 
Q 947 1113 1208 752 
Q 1469 391 1925 391 
Q 2381 391 2643 752 
Q 2906 1113 2906 1747 
Q 2906 2381 2643 2742 
Q 2381 3103 1925 3103 
Q 1469 3103 1208 2742 
Q 947 2381 947 1747 
z
" transform="scale(0.015625)"/>
       <path id="DejaVuSans-5f" d="M 3263 -1063 
L 3263 -1509 
L -63 -1509 
L -63 -1063 
L 3263 -1063 
z
" transform="scale(0.015625)"/>
      </defs>
      <use xlink:href="#DejaVuSans-67"/>
      <use xlink:href="#DejaVuSans-72" transform="translate(63.476562 0)"/>
      <use xlink:href="#DejaVuSans-6f" transform="translate(102.339844 0)"/>
      <use xlink:href="#DejaVuSans-75" transform="translate(163.521484 0)"/>
      <use xlink:href="#DejaVuSans-6e" transform="translate(226.900391 0)"/>
      <use xlink:href="#DejaVuSans-64" transform="translate(290.279297 0)"/>
      <use xlink:href="#DejaVuSans-5f" transform="translate(353.755859 0)"/>
      <use xlink:href="#DejaVuSans-74" transform="translate(403.755859 0)"/>
      <use xlink:href="#DejaVuSans-72" transform="translate(442.964844 0)"/>
      <use xlink:href="#DejaVuSans-75" transform="translate(484.078125 0)"/>
      <use xlink:href="#DejaVuSans-74" transform="translate(547.457031 0)"/>
      <use xlink:href="#DejaVuSans-68" transform="translate(586.666016 0)"/>
     </g>
    </g>
   </g>
  </g>
 </g>
 <defs>
  <clipPath id="p6d3e6534b7">
   <rect x="46.965625" y="7.2" width="334.8" height="221.76"/>
  </clipPath>
 </defs>
</svg>
