<?xml version="1.0" encoding="utf-8" standalone="no"?>
<!DOCTYPE svg PUBLIC "-//W3C//DTD SVG 1.1//EN"
  "http://www.w3.org/Graphics/SVG/1.1/DTD/svg11.dtd">
<svg xmlns:xlink="http://www.w3.org/1999/xlink" width="388.965625pt" height="268.200625pt" viewBox="0 0 388.965625 268.200625" xmlns="http://www.w3.org/2000/svg" version="1.1">
 <metadata>
  <rdf:RDF xmlns:dc="http://purl.org/dc/elements/1.1/" xmlns:cc="http://creativecommons.org/ns#" xmlns:rdf="http://www.w3.org/1999/02/22-rdf-syntax-ns#">
   <cc:Work>
    <dc:type rdf:resource="http://purl.org/dc/dcmitype/StillImage"/>
    <dc:date>2026-05-27T14:57:20.058797</dc:date>
    <dc:format>image/svg+xml</dc:format>
    <dc:creator>
     <cc:Agent>
      <dc:title>Matplotlib v3.10.9, https://matplotlib.org/</dc:title>
     </cc:Agent>
    </dc:creator>
   </cc:Work>
  </rdf:RDF>
 </metadata>
 <defs>
  <style type="text/css">*{stroke-linejoin: round; stroke-linecap: butt}</style>
 </defs>
 <g id="figure_1">
  <g id="patch_1">
   <path d="M 0 268.200625 
L 388.965625 268.200625 
L 388.965625 0 
L 0 0 
z
" style="fill: #ffffff"/>
  </g>
  <g id="axes_1">
   <g id="patch_2">
    <path d="M 46.965625 228.96 
L 381.765625 228.96 
L 381.765625 7.2 
L 46.965625 7.2 
z
" style="fill: #ffffff"/>
   </g>
   <g id="matplotlib.axis_1">
    <g id="xtick_1">
     <g id="line2d_1">
      <defs>
       <path id="m2d84e2221b" d="M 0 0 
L 0 3.5 
" style="stroke: #000000; stroke-width: 0.8"/>
      </defs>
      <g>
       <use xlink:href="#m2d84e2221b" x="101.883412" y="228.96" style="stroke: #000000; stroke-width: 0.8"/>
      </g>
     </g>
     <g id="text_1">
      <!-- 2 -->
      <g transform="translate(98.702162 243.558437) scale(0.1 -0.1)">
       <defs>
        <path id="DejaVuSans-32" d="M 1228 531 
L 3431 531 
L 3431 0 
L 469 0 
L 469 531 
Q 828 903 1448 1529 
Q 2069 2156 2228 2338 
Q 2531 2678 2651 2914 
Q 2772 3150 2772 3378 
Q 2772 3750 2511 3984 
Q 2250 4219 1831 4219 
Q 1534 4219 1204 4116 
Q 875 4013 500 3803 
L 500 4441 
Q 881 4594 1212 4672 
Q 1544 4750 1819 4750 
Q 2544 4750 2975 4387 
Q 3406 4025 3406 3419 
Q 3406 3131 3298 2873 
Q 3191 2616 2906 2266 
Q 2828 2175 2409 1742 
Q 1991 1309 1228 531 
z
" transform="scale(0.015625)"/>
       </defs>
       <use xlink:href="#DejaVuSans-32"/>
      </g>
     </g>
    </g>
    <g id="xtick_2">
     <g id="line2d_2">
      <g>
       <use xlink:href="#m2d84e2221b" x="168.049419" y="228.96" style="stroke: #000000; stroke-width: 0.8"/>
      </g>
     </g>
     <g id="text_2">
      <!-- 4 -->
      <g transform="translate(164.868169 243.558437) scale(0.1 -0.1)">
       <defs>
        <path id="DejaVuSans-34" d="M 2419 4116 
L 825 1625 
L 2419 1625 
L 2419 4116 
z
M 2253 4666 
L 3047 4666 
L 3047 1625 
L 3713 1625 
L 3713 1100 
L 3047 1100 
L 3047 0 
L 2419 0 
L 2419 1100 
L 313 1100 
L 313 1709 
L 2253 4666 
z
" transform="scale(0.015625)"/>
       </defs>
       <use xlink:href="#DejaVuSans-34"/>
      </g>
     </g>
    </g>
    <g id="xtick_3">
     <g id="line2d_3">
      <g>
       <use xlink:href="#m2d84e2221b" x="234.215427" y="228.96" style="stroke: #000000; stroke-width: 0.8"/>
      </g>
     </g>
     <g id="text_3">
      <!-- 6 -->
      <g transform="translate(231.034177 243.558437) scale(0.1 -0.1)">
       <defs>
        <path id="DejaVuSans-36" d="M 2113 2584 
Q 1688 2584 1439 2293 
Q 1191 2003 1191 1497 
Q 1191 994 1439 701 
Q 1688 409 2113 409 
Q 2538 409 2786 701 
Q 3034 994 3034 1497 
Q 3034 2003 2786 2293 
Q 2538 2584 2113 2584 
z
M 3366 4563 
L 3366 3988 
Q 3128 4100 2886 4159 
Q 2644 4219 2406 4219 
Q 1781 4219 1451 3797 
Q 1122 3375 1075 2522 
Q 1259 2794 1537 2939 
Q 1816 3084 2150 3084 
Q 2853 3084 3261 2657 
Q 3669 2231 3669 1497 
Q 3669 778 3244 343 
Q 2819 -91 2113 -91 
Q 1303 -91 875 529 
Q 447 1150 447 2328 
Q 447 3434 972 4092 
Q 1497 4750 2381 4750 
Q 2619 4750 2861 4703 
Q 3103 4656 3366 4563 
z
" transform="scale(0.015625)"/>
       </defs>
       <use xlink:href="#DejaVuSans-36"/>
      </g>
     </g>
    </g>
    <g id="xtick_4">
     <g id="line2d_4">
      <g>
       <use xlink:href="#m2d84e2221b" x="300.381435" y="228.96" style="stroke: #000000; stroke-width: 0.8"/>
      </g>
     </g>
     <g id="text_4">
      <!-- 8 -->
      <g transform="translate(297.200185 243.558437) scale(0.1 -0.1)">
       <defs>
        <path id="DejaVuSans-38" d="M 2034 2216 
Q 1584 2216 1326 1975 
Q 1069 1734 1069 1313 
Q 1069 891 1326 650 
Q 1584 409 2034 409 
Q 2484 409 2743 651 
Q 3003 894 3003 1313 
Q 3003 1734 2745 1975 
Q 2488 2216 2034 2216 
z
M 1403 2484 
Q 997 2584 770 2862 
Q 544 3141 544 3541 
Q 544 4100 942 4425 
Q 1341 4750 2034 4750 
Q 2731 4750 3128 4425 
Q 3525 4100 3525 3541 
Q 3525 3141 3298 2862 
Q 3072 2584 2669 2484 
Q 3125 2378 3379 2068 
Q 3634 1759 3634 1313 
Q 3634 634 3220 271 
Q 2806 -91 2034 -91 
Q 1263 -91 848 271 
Q 434 634 434 1313 
Q 434 1759 690 2068 
Q 947 2378 1403 2484 
z
M 1172 3481 
Q 1172 3119 1398 2916 
Q 1625 2713 2034 2713 
Q 2441 2713 2670 2916 
Q 2900 3119 2900 3481 
Q 2900 3844 2670 4047 
Q 2441 4250 2034 4250 
Q 1625 4250 1398 4047 
Q 1172 3844 1172 3481 
z
" transform="scale(0.015625)"/>
       </defs>
       <use xlink:href="#DejaVuSans-38"/>
      </g>
     </g>
    </g>
    <g id="xtick_5">
     <g id="line2d_5">
      <g>
       <use xlink:href="#m2d84e2221b" x="366.547443" y="228.96" style="stroke: #000000; stroke-width: 0.8"/>
      </g>
     </g>
     <g id="text_5">
      <!-- 10 -->
      <g transform="translate(360.184943 243.558437) scale(0.1 -0.1)">
       <defs>
        <path id="DejaVuSans-31" d="M 794 531 
L 1825 531 
L 1825 4091 
L 703 3866 
L 703 4441 
L 1819 4666 
L 2450 4666 
L 2450 531 
L 3481 531 
L 3481 0 
L 794 0 
L 794 531 
z
" transform="scale(0.015625)"/>
        <path id="DejaVuSans-30" d="M 2034 4250 
Q 1547 4250 1301 3770 
Q 1056 3291 1056 2328 
Q 1056 1369 1301 889 
Q 1547 409 2034 409 
Q 2525 409 2770 889 
Q 3016 1369 3016 2328 
Q 3016 3291 2770 3770 
Q 2525 4250 2034 4250 
z
M 2034 4750 
Q 2819 4750 3233 4129 
Q 3647 3509 3647 2328 
Q 3647 1150 3233 529 
Q 2819 -91 2034 -91 
Q 1250 -91 836 529 
Q 422 1150 422 2328 
Q 422 3509 836 4129 
Q 1250 4750 2034 4750 
z
" transform="scale(0.015625)"/>
       </defs>
       <use xlink:href="#DejaVuSans-31"/>
       <use xlink:href="#DejaVuSans-30" transform="translate(63.623047 0)"/>
      </g>
     </g>
    </g>
    <g id="text_6">
     <!-- wavelength [Å] -->
     <g transform="translate(176.328125 258.920937) scale(0.1 -0.1)">
      <defs>
       <path id="DejaVuSans-77" d="M 269 3500 
L 844 3500 
L 1563 769 
L 2278 3500 
L 2956 3500 
L 3675 769 
L 4391 3500 
L 4966 3500 
L 4050 0 
L 3372 0 
L 2619 2869 
L 1863 0 
L 1184 0 
L 269 3500 
z
" transform="scale(0.015625)"/>
       <path id="DejaVuSans-61" d="M 2194 1759 
Q 1497 1759 1228 1600 
Q 959 1441 959 1056 
Q 959 750 1161 570 
Q 1363 391 1709 391 
Q 2188 391 2477 730 
Q 2766 1069 2766 1631 
L 2766 1759 
L 2194 1759 
z
M 3341 1997 
L 3341 0 
L 2766 0 
L 2766 531 
Q 2569 213 2275 61 
Q 1981 -91 1556 -91 
Q 1019 -91 701 211 
Q 384 513 384 1019 
Q 384 1609 779 1909 
Q 1175 2209 1959 2209 
L 2766 2209 
L 2766 2266 
Q 2766 2663 2505 2880 
Q 2244 3097 1772 3097 
Q 1472 3097 1187 3025 
Q 903 2953 641 2809 
L 641 3341 
Q 956 3463 1253 3523 
Q 1550 3584 1831 3584 
Q 2591 3584 2966 3190 
Q 3341 2797 3341 1997 
z
" transform="scale(0.015625)"/>
       <path id="DejaVuSans-76" d="M 191 3500 
L 800 3500 
L 1894 563 
L 2988 3500 
L 3597 3500 
L 2284 0 
L 1503 0 
L 191 3500 
z
" transform="scale(0.015625)"/>
       <path id="DejaVuSans-65" d="M 3597 1894 
L 3597 1613 
L 953 1613 
Q 991 1019 1311 708 
Q 1631 397 2203 397 
Q 2534 397 2845 478 
Q 3156 559 3463 722 
L 3463 178 
Q 3153 47 2828 -22 
Q 2503 -91 2169 -91 
Q 1331 -91 842 396 
Q 353 884 353 1716 
Q 353 2575 817 3079 
Q 1281 3584 2069 3584 
Q 2775 3584 3186 3129 
Q 3597 2675 3597 1894 
z
M 3022 2063 
Q 3016 2534 2758 2815 
Q 2500 3097 2075 3097 
Q 1594 3097 1305 2825 
Q 1016 2553 972 2059 
L 3022 2063 
z
" transform="scale(0.015625)"/>
       <path id="DejaVuSans-6c" d="M 603 4863 
L 1178 4863 
L 1178 0 
L 603 0 
L 603 4863 
z
" transform="scale(0.015625)"/>
       <path id="DejaVuSans-6e" d="M 3513 2113 
L 3513 0 
L 2938 0 
L 2938 2094 
Q 2938 2591 2744 2837 
Q 2550 3084 2163 3084 
Q 1697 3084 1428 2787 
Q 1159 2491 1159 1978 
L 1159 0 
L 581 0 
L 581 3500 
L 1159 3500 
L 1159 2956 
Q 1366 3272 1645 3428 
Q 1925 3584 2291 3584 
Q 2894 3584 3203 3211 
Q 3513 2838 3513 2113 
z
" transform="scale(0.015625)"/>
       <path id="DejaVuSans-67" d="M 2906 1791 
Q 2906 2416 2648 2759 
Q 2391 3103 1925 3103 
Q 1463 3103 1205 2759 
Q 947 2416 947 1791 
Q 947 1169 1205 825 
Q 1463 481 1925 481 
Q 2391 481 2648 825 
Q 2906 1169 2906 1791 
z
M 3481 434 
Q 3481 -459 3084 -895 
Q 2688 -1331 1869 -1331 
Q 1566 -1331 1297 -1286 
Q 1028 -1241 775 -1147 
L 775 -588 
Q 1028 -725 1275 -790 
Q 1522 -856 1778 -856 
Q 2344 -856 2625 -561 
Q 2906 -266 2906 331 
L 2906 616 
Q 2728 306 2450 153 
Q 2172 0 1784 0 
Q 1141 0 747 490 
Q 353 981 353 1791 
Q 353 2603 747 3093 
Q 1141 3584 1784 3584 
Q 2172 3584 2450 3431 
Q 2728 3278 2906 2969 
L 2906 3500 
L 3481 3500 
L 3481 434 
z
" transform="scale(0.015625)"/>
       <path id="DejaVuSans-74" d="M 1172 4494 
L 1172 3500 
L 2356 3500 
L 2356 3053 
L 1172 3053 
L 1172 1153 
Q 1172 725 1289 603 
Q 1406 481 1766 481 
L 2356 481 
L 2356 0 
L 1766 0 
Q 1100 0 847 248 
Q 594 497 594 1153 
L 594 3053 
L 172 3053 
L 172 3500 
L 594 3500 
L 594 4494 
L 1172 4494 
z
" transform="scale(0.015625)"/>
       <path id="DejaVuSans-68" d="M 3513 2113 
L 3513 0 
L 2938 0 
L 2938 2094 
Q 2938 2591 2744 2837 
Q 2550 3084 2163 3084 
Q 1697 3084 1428 2787 
Q 1159 2491 1159 1978 
L 1159 0 
L 581 0 
L 581 4863 
L 1159 4863 
L 1159 2956 
Q 1366 3272 1645 3428 
Q 1925 3584 2291 3584 
Q 2894 3584 3203 3211 
Q 3513 2838 3513 2113 
z
" transform="scale(0.015625)"/>
       <path id="DejaVuSans-20" transform="scale(0.015625)"/>
       <path id="DejaVuSans-5b" d="M 550 4863 
L 1875 4863 
L 1875 4416 
L 1125 4416 
L 1125 -397 
L 1875 -397 
L 1875 -844 
L 550 -844 
L 550 4863 
z
" transform="scale(0.015625)"/>
       <path id="DejaVuSans-c5" d="M 2663 5081 
Q 2663 5278 2523 5417 
Q 2384 5556 2188 5556 
Q 1988 5556 1852 5420 
Q 1716 5284 1716 5081 
Q 1716 4884 1853 4746 
Q 1991 4609 2188 4609 
Q 2384 4609 2523 4746 
Q 2663 4884 2663 5081 
z
M 2188 4044 
L 1338 1722 
L 3041 1722 
L 2188 4044 
z
M 1716 4366 
Q 1525 4494 1428 4673 
Q 1331 4853 1331 5081 
Q 1331 5441 1579 5691 
Q 1828 5941 2188 5941 
Q 2544 5941 2795 5689 
Q 3047 5438 3047 5081 
Q 3047 4863 2948 4678 
Q 2850 4494 2663 4366 
L 4325 0 
L 3669 0 
L 3244 1197 
L 1141 1197 
L 716 0 
L 50 0 
L 1716 4366 
z
" transform="scale(0.015625)"/>
       <path id="DejaVuSans-5d" d="M 1947 4863 
L 1947 -844 
L 622 -844 
L 622 -397 
L 1369 -397 
L 1369 4416 
L 622 4416 
L 622 4863 
L 1947 4863 
z
" transform="scale(0.015625)"/>
      </defs>
      <use xlink:href="#DejaVuSans-77"/>
      <use xlink:href="#DejaVuSans-61" transform="translate(81.787109 0)"/>
      <use xlink:href="#DejaVuSans-76" transform="translate(143.066406 0)"/>
      <use xlink:href="#DejaVuSans-65" transform="translate(202.246094 0)"/>
      <use xlink:href="#DejaVuSans-6c" transform="translate(263.769531 0)"/>
      <use xlink:href="#DejaVuSans-65" transform="translate(291.552734 0)"/>
      <use xlink:href="#DejaVuSans-6e" transform="translate(353.076172 0)"/>
      <use xlink:href="#DejaVuSans-67" transform="translate(416.455078 0)"/>
      <use xlink:href="#DejaVuSans-74" transform="translate(479.931641 0)"/>
      <use xlink:href="#DejaVuSans-68" transform="translate(519.140625 0)"/>
      <use xlink:href="#DejaVuSans-20" transform="translate(582.519531 0)"/>
      <use xlink:href="#DejaVuSans-5b" transform="translate(614.306641 0)"/>
      <use xlink:href="#DejaVuSans-c5" transform="translate(653.320312 0)"/>
      <use xlink:href="#DejaVuSans-5d" transform="translate(721.728516 0)"/>
     </g>
    </g>
   </g>
   <g id="matplotlib.axis_2">
    <g id="ytick_1">
     <g id="line2d_6">
      <defs>
       <path id="m58a9f7fff3" d="M 0 0 
L -3.5 0 
" style="stroke: #000000; stroke-width: 0.8"/>
      </defs>
      <g>
       <use xlink:href="#m58a9f7fff3" x="46.965625" y="218.88" style="stroke: #000000; stroke-width: 0.8"/>
      </g>
     </g>
     <g id="text_7">
      <!-- 0 -->
      <g transform="translate(33.603125 222.679219) scale(0.1 -0.1)">
       <use xlink:href="#DejaVuSans-30"/>
      </g>
     </g>
    </g>
    <g id="ytick_2">
     <g id="line2d_7">
      <g>
       <use xlink:href="#m58a9f7fff3" x="46.965625" y="175.053913" style="stroke: #000000; stroke-width: 0.8"/>
      </g>
     </g>
     <g id="text_8">
      <!-- 100 -->
      <g transform="translate(20.878125 178.853132) scale(0.1 -0.1)">
       <use xlink:href="#DejaVuSans-31"/>
       <use xlink:href="#DejaVuSans-30" transform="translate(63.623047 0)"/>
       <use xlink:href="#DejaVuSans-30" transform="translate(127.246094 0)"/>
      </g>
     </g>
    </g>
    <g id="ytick_3">
     <g id="line2d_8">
      <g>
       <use xlink:href="#m58a9f7fff3" x="46.965625" y="131.227826" style="stroke: #000000; stroke-width: 0.8"/>
      </g>
     </g>
     <g id="text_9">
      <!-- 200 -->
      <g transform="translate(20.878125 135.027045) scale(0.1 -0.1)">
       <use xlink:href="#DejaVuSans-32"/>
       <use xlink:href="#DejaVuSans-30" transform="translate(63.623047 0)"/>
       <use xlink:href="#DejaVuSans-30" transform="translate(127.246094 0)"/>
      </g>
     </g>
    </g>
    <g id="ytick_4">
     <g id="line2d_9">
      <g>
       <use xlink:href="#m58a9f7fff3" x="46.965625" y="87.401739" style="stroke: #000000; stroke-width: 0.8"/>
      </g>
     </g>
     <g id="text_10">
      <!-- 300 -->
      <g transform="translate(20.878125 91.200958) scale(0.1 -0.1)">
       <defs>
        <path id="DejaVuSans-33" d="M 2597 2516 
Q 3050 2419 3304 2112 
Q 3559 1806 3559 1356 
Q 3559 666 3084 287 
Q 2609 -91 1734 -91 
Q 1441 -91 1130 -33 
Q 819 25 488 141 
L 488 750 
Q 750 597 1062 519 
Q 1375 441 1716 441 
Q 2309 441 2620 675 
Q 2931 909 2931 1356 
Q 2931 1769 2642 2001 
Q 2353 2234 1838 2234 
L 1294 2234 
L 1294 2753 
L 1863 2753 
Q 2328 2753 2575 2939 
Q 2822 3125 2822 3475 
Q 2822 3834 2567 4026 
Q 2313 4219 1838 4219 
Q 1578 4219 1281 4162 
Q 984 4106 628 3988 
L 628 4550 
Q 988 4650 1302 4700 
Q 1616 4750 1894 4750 
Q 2613 4750 3031 4423 
Q 3450 4097 3450 3541 
Q 3450 3153 3228 2886 
Q 3006 2619 2597 2516 
z
" transform="scale(0.015625)"/>
       </defs>
       <use xlink:href="#DejaVuSans-33"/>
       <use xlink:href="#DejaVuSans-30" transform="translate(63.623047 0)"/>
       <use xlink:href="#DejaVuSans-30" transform="translate(127.246094 0)"/>
      </g>
     </g>
    </g>
    <g id="ytick_5">
     <g id="line2d_10">
      <g>
       <use xlink:href="#m58a9f7fff3" x="46.965625" y="43.575652" style="stroke: #000000; stroke-width: 0.8"/>
      </g>
     </g>
     <g id="text_11">
      <!-- 400 -->
      <g transform="translate(20.878125 47.374871) scale(0.1 -0.1)">
       <use xlink:href="#DejaVuSans-34"/>
       <use xlink:href="#DejaVuSans-30" transform="translate(63.623047 0)"/>
       <use xlink:href="#DejaVuSans-30" transform="translate(127.246094 0)"/>
      </g>
     </g>
    </g>
    <g id="text_12">
     <!-- [counts] -->
     <g transform="translate(14.798438 138.6925) rotate(-90) scale(0.1 -0.1)">
      <defs>
       <path id="DejaVuSans-63" d="M 3122 3366 
L 3122 2828 
Q 2878 2963 2633 3030 
Q 2388 3097 2138 3097 
Q 1578 3097 1268 2742 
Q 959 2388 959 1747 
Q 959 1106 1268 751 
Q 1578 397 2138 397 
Q 2388 397 2633 464 
Q 2878 531 3122 666 
L 3122 134 
Q 2881 22 2623 -34 
Q 2366 -91 2075 -91 
Q 1284 -91 818 406 
Q 353 903 353 1747 
Q 353 2603 823 3093 
Q 1294 3584 2113 3584 
Q 2378 3584 2631 3529 
Q 2884 3475 3122 3366 
z
" transform="scale(0.015625)"/>
       <path id="DejaVuSans-6f" d="M 1959 3097 
Q 1497 3097 1228 2736 
Q 959 2375 959 1747 
Q 959 1119 1226 758 
Q 1494 397 1959 397 
Q 2419 397 2687 759 
Q 2956 1122 2956 1747 
Q 2956 2369 2687 2733 
Q 2419 3097 1959 3097 
z
M 1959 3584 
Q 2709 3584 3137 3096 
Q 3566 2609 3566 1747 
Q 3566 888 3137 398 
Q 2709 -91 1959 -91 
Q 1206 -91 779 398 
Q 353 888 353 1747 
Q 353 2609 779 3096 
Q 1206 3584 1959 3584 
z
" transform="scale(0.015625)"/>
       <path id="DejaVuSans-75" d="M 544 1381 
L 544 3500 
L 1119 3500 
L 1119 1403 
Q 1119 906 1312 657 
Q 1506 409 1894 409 
Q 2359 409 2629 706 
Q 2900 1003 2900 1516 
L 2900 3500 
L 3475 3500 
L 3475 0 
L 2900 0 
L 2900 538 
Q 2691 219 2414 64 
Q 2138 -91 1772 -91 
Q 1169 -91 856 284 
Q 544 659 544 1381 
z
M 1991 3584 
L 1991 3584 
z
" transform="scale(0.015625)"/>
       <path id="DejaVuSans-73" d="M 2834 3397 
L 2834 2853 
Q 2591 2978 2328 3040 
Q 2066 3103 1784 3103 
Q 1356 3103 1142 2972 
Q 928 2841 928 2578 
Q 928 2378 1081 2264 
Q 1234 2150 1697 2047 
L 1894 2003 
Q 2506 1872 2764 1633 
Q 3022 1394 3022 966 
Q 3022 478 2636 193 
Q 2250 -91 1575 -91 
Q 1294 -91 989 -36 
Q 684 19 347 128 
L 347 722 
Q 666 556 975 473 
Q 1284 391 1588 391 
Q 1994 391 2212 530 
Q 2431 669 2431 922 
Q 2431 1156 2273 1281 
Q 2116 1406 1581 1522 
L 1381 1569 
Q 847 1681 609 1914 
Q 372 2147 372 2553 
Q 372 3047 722 3315 
Q 1072 3584 1716 3584 
Q 2034 3584 2315 3537 
Q 2597 3491 2834 3397 
z
" transform="scale(0.015625)"/>
      </defs>
      <use xlink:href="#DejaVuSans-5b"/>
      <use xlink:href="#DejaVuSans-63" transform="translate(39.013672 0)"/>
      <use xlink:href="#DejaVuSans-6f" transform="translate(93.994141 0)"/>
      <use xlink:href="#DejaVuSans-75" transform="translate(155.175781 0)"/>
      <use xlink:href="#DejaVuSans-6e" transform="translate(218.554688 0)"/>
      <use xlink:href="#DejaVuSans-74" transform="translate(281.933594 0)"/>
      <use xlink:href="#DejaVuSans-73" transform="translate(321.142578 0)"/>
      <use xlink:href="#DejaVuSans-5d" transform="translate(373.242188 0)"/>
     </g>
    </g>
   </g>
   <g id="line2d_11">
    <path d="M 62.183807 218.88 
L 69.031989 218.88 
L 69.031989 167.603478 
L 69.792898 167.603478 
L 69.792898 151.387826 
L 71.314716 151.387826 
L 71.314716 152.702609 
L 72.075625 152.702609 
L 72.075625 150.073043 
L 72.836534 150.073043 
L 72.836534 137.801739 
L 73.597443 137.801739 
L 73.597443 131.666087 
L 74.358352 131.666087 
L 74.358352 132.104348 
L 75.119261 132.104348 
L 75.119261 117.641739 
L 75.88017 117.641739 
L 75.88017 141.307826 
L 76.64108 141.307826 
L 76.64108 113.25913 
L 77.401989 113.25913 
L 77.401989 139.554783 
L 78.162898 139.554783 
L 78.162898 138.678261 
L 78.923807 138.678261 
L 78.923807 139.993043 
L 79.684716 139.993043 
L 79.684716 134.733913 
L 80.445625 134.733913 
L 80.445625 126.845217 
L 81.206534 126.845217 
L 81.206534 132.542609 
L 82.728352 132.542609 
L 82.728352 129.474783 
L 83.489261 129.474783 
L 83.489261 142.622609 
L 84.25017 142.622609 
L 84.25017 138.678261 
L 85.01108 138.678261 
L 85.01108 127.283478 
L 85.771989 127.283478 
L 85.771989 141.746087 
L 86.532898 141.746087 
L 86.532898 144.813913 
L 87.293807 144.813913 
L 87.293807 131.227826 
L 88.054716 131.227826 
L 88.054716 144.375652 
L 88.815625 144.375652 
L 88.815625 136.925217 
L 89.576534 136.925217 
L 89.576534 144.375652 
L 90.337443 144.375652 
L 90.337443 142.184348 
L 91.098352 142.184348 
L 91.098352 126.406957 
L 91.859261 126.406957 
L 91.859261 134.733913 
L 92.62017 134.733913 
L 92.62017 142.622609 
L 93.38108 142.622609 
L 93.38108 132.542609 
L 94.141989 132.542609 
L 94.141989 140.431304 
L 94.902898 140.431304 
L 94.902898 126.406957 
L 96.424716 126.406957 
L 96.424716 136.048696 
L 97.185625 136.048696 
L 97.185625 133.857391 
L 97.946534 133.857391 
L 97.946534 126.406957 
L 98.707443 126.406957 
L 98.707443 136.925217 
L 99.468352 136.925217 
L 99.468352 141.307826 
L 100.229261 141.307826 
L 100.229261 132.104348 
L 100.99017 132.104348 
L 100.99017 131.666087 
L 101.75108 131.666087 
L 101.75108 128.598261 
L 102.511989 128.598261 
L 102.511989 117.641739 
L 103.272898 117.641739 
L 103.272898 118.956522 
L 104.033807 118.956522 
L 104.033807 129.036522 
L 104.794716 129.036522 
L 104.794716 124.215652 
L 105.555625 124.215652 
L 105.555625 120.709565 
L 106.316534 120.709565 
L 106.316534 108.438261 
L 107.077443 108.438261 
L 107.077443 113.25913 
L 107.838352 113.25913 
L 107.838352 119.833043 
L 108.599261 119.833043 
L 108.599261 113.697391 
L 109.36017 113.697391 
L 109.36017 113.25913 
L 110.12108 113.25913 
L 110.12108 115.450435 
L 110.881989 115.450435 
L 110.881989 108.438261 
L 111.642898 108.438261 
L 111.642898 105.808696 
L 112.403807 105.808696 
L 112.403807 101.426087 
L 113.164716 101.426087 
L 113.164716 96.605217 
L 113.925625 96.605217 
L 113.925625 108.438261 
L 114.686534 108.438261 
L 114.686534 93.975652 
L 115.447443 93.975652 
L 115.447443 107.561739 
L 116.208352 107.561739 
L 116.208352 104.493913 
L 116.969261 104.493913 
L 116.969261 110.191304 
L 117.73017 110.191304 
L 117.73017 121.147826 
L 118.49108 121.147826 
L 118.49108 110.629565 
L 119.251989 110.629565 
L 119.251989 26.921739 
L 120.012898 26.921739 
L 120.012898 17.28 
L 120.773807 17.28 
L 120.773807 60.667826 
L 121.534716 60.667826 
L 121.534716 62.85913 
L 122.295625 62.85913 
L 122.295625 46.643478 
L 123.056534 46.643478 
L 123.056534 54.093913 
L 123.817443 54.093913 
L 123.817443 47.958261 
L 124.578352 47.958261 
L 124.578352 52.34087 
L 125.339261 52.34087 
L 125.339261 45.328696 
L 126.10017 45.328696 
L 126.10017 71.186087 
L 126.86108 71.186087 
L 126.86108 39.631304 
L 127.621989 39.631304 
L 127.621989 57.6 
L 128.382898 57.6 
L 128.382898 71.186087 
L 129.143807 71.186087 
L 129.143807 70.309565 
L 129.904716 70.309565 
L 129.904716 58.914783 
L 130.665625 58.914783 
L 130.665625 63.735652 
L 131.426534 63.735652 
L 131.426534 62.42087 
L 132.187443 62.42087 
L 132.187443 65.050435 
L 132.948352 65.050435 
L 132.948352 62.42087 
L 133.709261 62.42087 
L 133.709261 64.612174 
L 134.47017 64.612174 
L 134.47017 71.186087 
L 135.23108 71.186087 
L 135.23108 72.062609 
L 135.991989 72.062609 
L 135.991989 80.827826 
L 136.752898 80.827826 
L 136.752898 69.433043 
L 137.513807 69.433043 
L 137.513807 76.006957 
L 138.274716 76.006957 
L 138.274716 86.086957 
L 139.035625 86.086957 
L 139.035625 75.568696 
L 139.796534 75.568696 
L 139.796534 76.883478 
L 140.557443 76.883478 
L 140.557443 89.593043 
L 141.318352 89.593043 
L 141.318352 84.333913 
L 142.079261 84.333913 
L 142.079261 86.525217 
L 142.84017 86.525217 
L 142.84017 90.907826 
L 143.60108 90.907826 
L 143.60108 108.438261 
L 144.361989 108.438261 
L 144.361989 97.92 
L 145.122898 97.92 
L 145.122898 95.290435 
L 146.644716 95.290435 
L 146.644716 99.673043 
L 147.405625 99.673043 
L 147.405625 91.784348 
L 148.166534 91.784348 
L 148.166534 112.382609 
L 148.927443 112.382609 
L 148.927443 101.864348 
L 149.688352 101.864348 
L 149.688352 110.629565 
L 150.449261 110.629565 
L 150.449261 119.833043 
L 151.21017 119.833043 
L 151.21017 102.74087 
L 151.97108 102.74087 
L 151.97108 115.888696 
L 152.731989 115.888696 
L 152.731989 107.123478 
L 153.492898 107.123478 
L 153.492898 109.314783 
L 154.253807 109.314783 
L 154.253807 111.067826 
L 155.014716 111.067826 
L 155.014716 129.913043 
L 155.775625 129.913043 
L 155.775625 121.586087 
L 156.536534 121.586087 
L 156.536534 129.036522 
L 157.297443 129.036522 
L 157.297443 122.462609 
L 158.058352 122.462609 
L 158.058352 126.406957 
L 158.819261 126.406957 
L 158.819261 124.653913 
L 159.58017 124.653913 
L 159.58017 129.036522 
L 160.34108 129.036522 
L 160.34108 138.24 
L 161.101989 138.24 
L 161.101989 147.005217 
L 161.862898 147.005217 
L 161.862898 143.06087 
L 162.623807 143.06087 
L 162.623807 144.375652 
L 163.384716 144.375652 
L 163.384716 143.06087 
L 164.145625 143.06087 
L 164.145625 131.666087 
L 164.906534 131.666087 
L 164.906534 147.881739 
L 165.667443 147.881739 
L 165.667443 150.949565 
L 166.428352 150.949565 
L 166.428352 161.906087 
L 167.189261 161.906087 
L 167.189261 148.758261 
L 167.95017 148.758261 
L 167.95017 93.537391 
L 168.71108 93.537391 
L 168.71108 117.203478 
L 169.471989 117.203478 
L 169.471989 140.431304 
L 170.232898 140.431304 
L 170.232898 136.486957 
L 171.754716 136.486957 
L 171.754716 143.937391 
L 172.515625 143.937391 
L 172.515625 136.048696 
L 173.276534 136.048696 
L 173.276534 128.598261 
L 174.037443 128.598261 
L 174.037443 132.104348 
L 174.798352 132.104348 
L 174.798352 143.06087 
L 175.559261 143.06087 
L 175.559261 143.49913 
L 176.32017 143.49913 
L 176.32017 141.307826 
L 177.08108 141.307826 
L 177.08108 135.610435 
L 177.841989 135.610435 
L 177.841989 143.06087 
L 178.602898 143.06087 
L 178.602898 149.634783 
L 179.363807 149.634783 
L 179.363807 142.622609 
L 180.124716 142.622609 
L 180.124716 147.443478 
L 180.885625 147.443478 
L 180.885625 140.431304 
L 181.646534 140.431304 
L 181.646534 147.881739 
L 182.407443 147.881739 
L 182.407443 145.252174 
L 183.168352 145.252174 
L 183.168352 155.770435 
L 183.929261 155.770435 
L 183.929261 156.208696 
L 184.69017 156.208696 
L 184.69017 147.005217 
L 185.45108 147.005217 
L 185.45108 148.32 
L 186.211989 148.32 
L 186.211989 149.634783 
L 186.972898 149.634783 
L 186.972898 150.511304 
L 187.733807 150.511304 
L 187.733807 159.714783 
L 188.494716 159.714783 
L 188.494716 151.387826 
L 189.255625 151.387826 
L 189.255625 161.906087 
L 190.016534 161.906087 
L 190.016534 158.4 
L 190.777443 158.4 
L 190.777443 156.646957 
L 191.538352 156.646957 
L 191.538352 150.949565 
L 192.299261 150.949565 
L 192.299261 170.233043 
L 193.06017 170.233043 
L 193.06017 156.208696 
L 193.82108 156.208696 
L 193.82108 165.850435 
L 194.581989 165.850435 
L 194.581989 159.276522 
L 195.342898 159.276522 
L 195.342898 161.029565 
L 196.103807 161.029565 
L 196.103807 166.726957 
L 196.864716 166.726957 
L 196.864716 162.782609 
L 197.625625 162.782609 
L 197.625625 161.029565 
L 198.386534 161.029565 
L 198.386534 171.109565 
L 199.147443 171.109565 
L 199.147443 155.770435 
L 199.908352 155.770435 
L 199.908352 169.794783 
L 200.669261 169.794783 
L 200.669261 153.57913 
L 201.43017 153.57913 
L 201.43017 167.603478 
L 202.19108 167.603478 
L 202.19108 172.424348 
L 202.951989 172.424348 
L 202.951989 162.782609 
L 203.712898 162.782609 
L 203.712898 174.615652 
L 204.473807 174.615652 
L 204.473807 163.22087 
L 205.234716 163.22087 
L 205.234716 167.165217 
L 205.995625 167.165217 
L 205.995625 172.862609 
L 206.756534 172.862609 
L 206.756534 168.48 
L 207.517443 168.48 
L 207.517443 173.30087 
L 208.278352 173.30087 
L 208.278352 188.201739 
L 209.039261 188.201739 
L 209.039261 182.066087 
L 209.80017 182.066087 
L 209.80017 183.81913 
L 210.56108 183.81913 
L 210.56108 181.189565 
L 211.321989 181.189565 
L 211.321989 182.066087 
L 212.082898 182.066087 
L 212.082898 186.448696 
L 212.843807 186.448696 
L 212.843807 190.393043 
L 213.604716 190.393043 
L 213.604716 193.89913 
L 214.365625 193.89913 
L 214.365625 191.269565 
L 215.126534 191.269565 
L 215.126534 192.584348 
L 215.887443 192.584348 
L 215.887443 182.504348 
L 216.648352 182.504348 
L 216.648352 176.368696 
L 217.409261 176.368696 
L 217.409261 177.683478 
L 218.17017 177.683478 
L 218.17017 168.48 
L 218.93108 168.48 
L 218.93108 175.930435 
L 219.691989 175.930435 
L 219.691989 176.806957 
L 220.452898 176.806957 
L 220.452898 180.313043 
L 221.213807 180.313043 
L 221.213807 179.436522 
L 221.974716 179.436522 
L 221.974716 186.010435 
L 222.735625 186.010435 
L 222.735625 181.189565 
L 223.496534 181.189565 
L 223.496534 178.56 
L 224.257443 178.56 
L 224.257443 184.257391 
L 225.018352 184.257391 
L 225.018352 175.053913 
L 225.779261 175.053913 
L 225.779261 180.751304 
L 226.54017 180.751304 
L 226.54017 181.189565 
L 227.30108 181.189565 
L 227.30108 186.010435 
L 228.061989 186.010435 
L 228.061989 187.763478 
L 228.822898 187.763478 
L 228.822898 185.133913 
L 229.583807 185.133913 
L 229.583807 185.572174 
L 230.344716 185.572174 
L 230.344716 180.313043 
L 231.105625 180.313043 
L 231.105625 181.627826 
L 231.866534 181.627826 
L 231.866534 186.010435 
L 232.627443 186.010435 
L 232.627443 181.627826 
L 233.388352 181.627826 
L 233.388352 176.806957 
L 234.149261 176.806957 
L 234.149261 179.436522 
L 234.91017 179.436522 
L 234.91017 186.886957 
L 235.67108 186.886957 
L 235.67108 184.257391 
L 236.431989 184.257391 
L 236.431989 186.448696 
L 237.192898 186.448696 
L 237.192898 187.763478 
L 237.953807 187.763478 
L 237.953807 191.269565 
L 238.714716 191.269565 
L 238.714716 190.831304 
L 239.475625 190.831304 
L 239.475625 189.954783 
L 240.236534 189.954783 
L 240.236534 188.201739 
L 240.997443 188.201739 
L 240.997443 195.652174 
L 241.758352 195.652174 
L 241.758352 185.572174 
L 242.519261 185.572174 
L 242.519261 188.64 
L 244.04108 188.64 
L 244.04108 191.707826 
L 244.801989 191.707826 
L 244.801989 189.078261 
L 245.562898 189.078261 
L 245.562898 185.572174 
L 246.323807 185.572174 
L 246.323807 191.269565 
L 247.084716 191.269565 
L 247.084716 194.337391 
L 247.845625 194.337391 
L 247.845625 187.325217 
L 248.606534 187.325217 
L 248.606534 190.831304 
L 249.367443 190.831304 
L 249.367443 188.201739 
L 250.128352 188.201739 
L 250.128352 190.831304 
L 251.65017 190.831304 
L 251.65017 190.393043 
L 252.41108 190.393043 
L 252.41108 197.843478 
L 253.171989 197.843478 
L 253.171989 195.652174 
L 253.932898 195.652174 
L 253.932898 194.775652 
L 254.693807 194.775652 
L 254.693807 197.843478 
L 255.454716 197.843478 
L 255.454716 200.034783 
L 256.215625 200.034783 
L 256.215625 201.787826 
L 256.976534 201.787826 
L 256.976534 198.72 
L 257.737443 198.72 
L 257.737443 194.775652 
L 258.498352 194.775652 
L 258.498352 205.293913 
L 259.259261 205.293913 
L 259.259261 218.003478 
L 260.02017 218.003478 
L 260.02017 217.565217 
L 260.78108 217.565217 
L 260.78108 207.485217 
L 261.541989 207.485217 
L 261.541989 202.226087 
L 262.302898 202.226087 
L 262.302898 199.158261 
L 263.063807 199.158261 
L 263.063807 195.652174 
L 263.824716 195.652174 
L 263.824716 193.89913 
L 264.585625 193.89913 
L 264.585625 196.528696 
L 265.346534 196.528696 
L 265.346534 200.473043 
L 266.107443 200.473043 
L 266.107443 199.596522 
L 266.868352 199.596522 
L 266.868352 194.337391 
L 267.629261 194.337391 
L 267.629261 189.078261 
L 268.39017 189.078261 
L 268.39017 196.528696 
L 269.15108 196.528696 
L 269.15108 196.090435 
L 269.911989 196.090435 
L 269.911989 195.652174 
L 270.672898 195.652174 
L 270.672898 192.584348 
L 271.433807 192.584348 
L 271.433807 201.349565 
L 272.194716 201.349565 
L 272.194716 194.337391 
L 272.955625 194.337391 
L 272.955625 196.966957 
L 273.716534 196.966957 
L 273.716534 194.337391 
L 275.999261 194.337391 
L 275.999261 200.034783 
L 276.76017 200.034783 
L 276.76017 195.652174 
L 277.52108 195.652174 
L 277.52108 200.473043 
L 278.281989 200.473043 
L 278.281989 200.034783 
L 279.042898 200.034783 
L 279.042898 196.528696 
L 279.803807 196.528696 
L 279.803807 201.349565 
L 280.564716 201.349565 
L 280.564716 199.596522 
L 281.325625 199.596522 
L 281.325625 200.473043 
L 282.086534 200.473043 
L 282.086534 202.664348 
L 282.847443 202.664348 
L 282.847443 200.034783 
L 283.608352 200.034783 
L 283.608352 206.170435 
L 284.369261 206.170435 
L 284.369261 199.596522 
L 285.13017 199.596522 
L 285.13017 201.787826 
L 285.89108 201.787826 
L 285.89108 200.911304 
L 286.651989 200.911304 
L 286.651989 202.664348 
L 287.412898 202.664348 
L 287.412898 200.911304 
L 288.173807 200.911304 
L 288.173807 203.97913 
L 288.934716 203.97913 
L 288.934716 204.417391 
L 289.695625 204.417391 
L 289.695625 201.349565 
L 290.456534 201.349565 
L 290.456534 200.473043 
L 291.217443 200.473043 
L 291.217443 201.349565 
L 291.978352 201.349565 
L 291.978352 200.911304 
L 292.739261 200.911304 
L 292.739261 203.97913 
L 293.50017 203.97913 
L 293.50017 205.732174 
L 294.26108 205.732174 
L 294.26108 203.54087 
L 295.021989 203.54087 
L 295.021989 204.417391 
L 295.782898 204.417391 
L 295.782898 200.473043 
L 296.543807 200.473043 
L 296.543807 205.732174 
L 297.304716 205.732174 
L 297.304716 203.102609 
L 298.065625 203.102609 
L 298.065625 204.855652 
L 298.826534 204.855652 
L 298.826534 210.991304 
L 299.587443 210.991304 
L 299.587443 208.8 
L 301.109261 208.8 
L 301.109261 214.05913 
L 301.87017 214.05913 
L 301.87017 218.88 
L 304.152898 218.88 
L 304.152898 214.05913 
L 304.913807 214.05913 
L 304.913807 207.923478 
L 305.674716 207.923478 
L 305.674716 211.867826 
L 306.435625 211.867826 
L 306.435625 206.608696 
L 307.196534 206.608696 
L 307.196534 205.293913 
L 307.957443 205.293913 
L 307.957443 210.114783 
L 308.718352 210.114783 
L 308.718352 210.991304 
L 309.479261 210.991304 
L 309.479261 204.855652 
L 310.24017 204.855652 
L 310.24017 205.732174 
L 311.00108 205.732174 
L 311.00108 207.923478 
L 311.761989 207.923478 
L 311.761989 208.8 
L 312.522898 208.8 
L 312.522898 210.114783 
L 313.283807 210.114783 
L 313.283807 208.361739 
L 314.044716 208.361739 
L 314.044716 203.97913 
L 314.805625 203.97913 
L 314.805625 207.485217 
L 315.566534 207.485217 
L 315.566534 209.676522 
L 316.327443 209.676522 
L 316.327443 207.923478 
L 317.088352 207.923478 
L 317.088352 205.732174 
L 317.849261 205.732174 
L 317.849261 206.608696 
L 318.61017 206.608696 
L 318.61017 204.855652 
L 319.37108 204.855652 
L 319.37108 207.485217 
L 320.131989 207.485217 
L 320.131989 205.293913 
L 320.892898 205.293913 
L 320.892898 205.732174 
L 321.653807 205.732174 
L 321.653807 209.676522 
L 322.414716 209.676522 
L 322.414716 203.97913 
L 323.175625 203.97913 
L 323.175625 210.114783 
L 323.936534 210.114783 
L 323.936534 205.732174 
L 324.697443 205.732174 
L 324.697443 208.361739 
L 325.458352 208.361739 
L 325.458352 207.923478 
L 326.219261 207.923478 
L 326.219261 210.991304 
L 326.98017 210.991304 
L 326.98017 207.923478 
L 327.74108 207.923478 
L 327.74108 207.046957 
L 328.501989 207.046957 
L 328.501989 208.8 
L 329.262898 208.8 
L 329.262898 207.485217 
L 330.023807 207.485217 
L 330.023807 208.8 
L 330.784716 208.8 
L 330.784716 210.114783 
L 331.545625 210.114783 
L 331.545625 211.429565 
L 332.306534 211.429565 
L 332.306534 208.8 
L 333.067443 208.8 
L 333.067443 206.608696 
L 333.828352 206.608696 
L 333.828352 203.97913 
L 334.589261 203.97913 
L 334.589261 208.361739 
L 335.35017 208.361739 
L 335.35017 208.8 
L 336.11108 208.8 
L 336.11108 207.923478 
L 336.871989 207.923478 
L 336.871989 208.361739 
L 337.632898 208.361739 
L 337.632898 210.991304 
L 338.393807 210.991304 
L 338.393807 213.62087 
L 339.154716 213.62087 
L 339.154716 203.54087 
L 340.676534 203.54087 
L 340.676534 210.114783 
L 341.437443 210.114783 
L 341.437443 211.867826 
L 342.198352 211.867826 
L 342.198352 209.238261 
L 342.959261 209.238261 
L 342.959261 214.497391 
L 343.72017 214.497391 
L 343.72017 212.306087 
L 345.241989 212.306087 
L 345.241989 216.688696 
L 346.002898 216.688696 
L 346.002898 218.003478 
L 346.763807 218.003478 
L 346.763807 218.88 
L 366.547443 218.88 
L 366.547443 218.88 
" clip-path="url(#p5a3ff0a119)" style="fill: none; stroke: #1f77b4; stroke-width: 1.5; stroke-linecap: square"/>
   </g>
   <g id="line2d_12">
    <path d="M 62.183807 218.88 
L 68.27108 218.88 
L 68.27108 193.022609 
L 69.031989 193.022609 
L 69.031989 161.906087 
L 69.792898 161.906087 
L 69.792898 154.017391 
L 70.553807 154.017391 
L 70.553807 150.949565 
L 71.314716 150.949565 
L 71.314716 152.702609 
L 72.075625 152.702609 
L 72.075625 148.758261 
L 72.836534 148.758261 
L 72.836534 136.486957 
L 73.597443 136.486957 
L 73.597443 132.542609 
L 74.358352 132.542609 
L 74.358352 131.666087 
L 75.119261 131.666087 
L 75.119261 119.833043 
L 75.88017 119.833043 
L 75.88017 138.24 
L 76.64108 138.24 
L 76.64108 111.506087 
L 77.401989 111.506087 
L 77.401989 142.622609 
L 78.162898 142.622609 
L 78.162898 140.869565 
L 78.923807 140.869565 
L 78.923807 139.993043 
L 79.684716 139.993043 
L 79.684716 134.295652 
L 80.445625 134.295652 
L 80.445625 128.598261 
L 81.206534 128.598261 
L 81.206534 127.721739 
L 81.967443 127.721739 
L 81.967443 134.295652 
L 82.728352 134.295652 
L 82.728352 130.351304 
L 83.489261 130.351304 
L 83.489261 139.993043 
L 84.25017 139.993043 
L 84.25017 139.116522 
L 85.01108 139.116522 
L 85.01108 125.092174 
L 85.771989 125.092174 
L 85.771989 147.881739 
L 86.532898 147.881739 
L 86.532898 139.993043 
L 87.293807 139.993043 
L 87.293807 133.41913 
L 88.054716 133.41913 
L 88.054716 144.813913 
L 88.815625 144.813913 
L 88.815625 136.925217 
L 89.576534 136.925217 
L 89.576534 146.566957 
L 90.337443 146.566957 
L 90.337443 139.116522 
L 91.098352 139.116522 
L 91.098352 126.406957 
L 91.859261 126.406957 
L 91.859261 135.610435 
L 92.62017 135.610435 
L 92.62017 145.252174 
L 93.38108 145.252174 
L 93.38108 130.351304 
L 94.141989 130.351304 
L 94.141989 132.98087 
L 95.663807 132.98087 
L 95.663807 129.913043 
L 96.424716 129.913043 
L 96.424716 133.41913 
L 97.185625 133.41913 
L 97.185625 132.542609 
L 97.946534 132.542609 
L 97.946534 129.036522 
L 98.707443 129.036522 
L 98.707443 135.610435 
L 99.468352 135.610435 
L 99.468352 140.431304 
L 100.229261 140.431304 
L 100.229261 134.733913 
L 100.99017 134.733913 
L 100.99017 128.16 
L 102.511989 128.16 
L 102.511989 119.833043 
L 103.272898 119.833043 
L 103.272898 115.888696 
L 104.033807 115.888696 
L 104.033807 130.789565 
L 104.794716 130.789565 
L 104.794716 122.462609 
L 105.555625 122.462609 
L 105.555625 117.641739 
L 106.316534 117.641739 
L 106.316534 108.876522 
L 107.077443 108.876522 
L 107.077443 116.765217 
L 107.838352 116.765217 
L 107.838352 121.586087 
L 108.599261 121.586087 
L 108.599261 115.012174 
L 109.36017 115.012174 
L 109.36017 110.629565 
L 110.12108 110.629565 
L 110.12108 117.203478 
L 110.881989 117.203478 
L 110.881989 108.438261 
L 111.642898 108.438261 
L 111.642898 101.426087 
L 112.403807 101.426087 
L 112.403807 103.617391 
L 113.164716 103.617391 
L 113.164716 97.043478 
L 113.925625 97.043478 
L 113.925625 109.314783 
L 114.686534 109.314783 
L 114.686534 93.09913 
L 115.447443 93.09913 
L 115.447443 108.438261 
L 116.208352 108.438261 
L 116.208352 104.932174 
L 116.969261 104.932174 
L 116.969261 109.753043 
L 117.73017 109.753043 
L 117.73017 117.203478 
L 118.49108 117.203478 
L 118.49108 110.191304 
L 119.251989 110.191304 
L 119.251989 22.10087 
L 120.012898 22.10087 
L 120.012898 21.662609 
L 120.773807 21.662609 
L 120.773807 55.846957 
L 121.534716 55.846957 
L 121.534716 60.667826 
L 122.295625 60.667826 
L 122.295625 56.285217 
L 123.056534 56.285217 
L 123.056534 47.081739 
L 123.817443 47.081739 
L 123.817443 40.507826 
L 124.578352 40.507826 
L 124.578352 58.038261 
L 125.339261 58.038261 
L 125.339261 50.149565 
L 126.10017 50.149565 
L 126.10017 62.42087 
L 126.86108 62.42087 
L 126.86108 45.328696 
L 127.621989 45.328696 
L 127.621989 58.914783 
L 128.382898 58.914783 
L 128.382898 66.803478 
L 129.143807 66.803478 
L 129.143807 74.253913 
L 129.904716 74.253913 
L 129.904716 63.735652 
L 130.665625 63.735652 
L 130.665625 59.353043 
L 131.426534 59.353043 
L 131.426534 53.655652 
L 132.187443 53.655652 
L 132.187443 76.883478 
L 132.948352 76.883478 
L 132.948352 57.161739 
L 133.709261 57.161739 
L 133.709261 70.747826 
L 134.47017 70.747826 
L 134.47017 67.241739 
L 135.23108 67.241739 
L 135.23108 71.186087 
L 135.991989 71.186087 
L 135.991989 77.76 
L 136.752898 77.76 
L 136.752898 75.130435 
L 137.513807 75.130435 
L 137.513807 73.815652 
L 138.274716 73.815652 
L 138.274716 83.895652 
L 139.035625 83.895652 
L 139.035625 81.704348 
L 139.796534 81.704348 
L 139.796534 69.433043 
L 140.557443 69.433043 
L 140.557443 90.907826 
L 141.318352 90.907826 
L 141.318352 86.086957 
L 142.079261 86.086957 
L 142.079261 86.963478 
L 142.84017 86.963478 
L 142.84017 92.222609 
L 143.60108 92.222609 
L 143.60108 104.932174 
L 144.361989 104.932174 
L 144.361989 100.549565 
L 145.122898 100.549565 
L 145.122898 95.728696 
L 145.883807 95.728696 
L 145.883807 98.358261 
L 146.644716 98.358261 
L 146.644716 97.481739 
L 147.405625 97.481739 
L 147.405625 94.413913 
L 148.166534 94.413913 
L 148.166534 106.685217 
L 148.927443 106.685217 
L 148.927443 109.314783 
L 149.688352 109.314783 
L 149.688352 107.561739 
L 150.449261 107.561739 
L 150.449261 116.326957 
L 151.21017 116.326957 
L 151.21017 109.753043 
L 151.97108 109.753043 
L 151.97108 103.17913 
L 152.731989 103.17913 
L 152.731989 115.012174 
L 153.492898 115.012174 
L 153.492898 108.438261 
L 154.253807 108.438261 
L 154.253807 111.944348 
L 155.014716 111.944348 
L 155.014716 129.474783 
L 155.775625 129.474783 
L 155.775625 125.530435 
L 156.536534 125.530435 
L 156.536534 121.147826 
L 157.297443 121.147826 
L 157.297443 127.283478 
L 158.058352 127.283478 
L 158.058352 125.530435 
L 159.58017 125.530435 
L 159.58017 128.16 
L 160.34108 128.16 
L 160.34108 136.925217 
L 161.101989 136.925217 
L 161.101989 143.49913 
L 161.862898 143.49913 
L 161.862898 138.24 
L 162.623807 138.24 
L 162.623807 147.443478 
L 163.384716 147.443478 
L 163.384716 146.566957 
L 164.145625 146.566957 
L 164.145625 135.610435 
L 164.906534 135.610435 
L 164.906534 141.307826 
L 165.667443 141.307826 
L 165.667443 151.387826 
L 166.428352 151.387826 
L 166.428352 164.535652 
L 167.189261 164.535652 
L 167.189261 140.431304 
L 167.95017 140.431304 
L 167.95017 92.222609 
L 168.71108 92.222609 
L 168.71108 120.271304 
L 169.471989 120.271304 
L 169.471989 137.363478 
L 170.232898 137.363478 
L 170.232898 133.41913 
L 170.993807 133.41913 
L 170.993807 141.307826 
L 171.754716 141.307826 
L 171.754716 137.363478 
L 172.515625 137.363478 
L 172.515625 139.116522 
L 173.276534 139.116522 
L 173.276534 128.16 
L 174.037443 128.16 
L 174.037443 139.116522 
L 174.798352 139.116522 
L 174.798352 140.869565 
L 175.559261 140.869565 
L 175.559261 139.993043 
L 176.32017 139.993043 
L 176.32017 136.486957 
L 177.08108 136.486957 
L 177.08108 137.801739 
L 177.841989 137.801739 
L 177.841989 150.073043 
L 178.602898 150.073043 
L 178.602898 148.32 
L 179.363807 148.32 
L 179.363807 140.431304 
L 180.124716 140.431304 
L 180.124716 147.005217 
L 180.885625 147.005217 
L 180.885625 146.566957 
L 181.646534 146.566957 
L 181.646534 139.554783 
L 182.407443 139.554783 
L 182.407443 145.252174 
L 183.168352 145.252174 
L 183.168352 159.714783 
L 183.929261 159.714783 
L 183.929261 155.770435 
L 184.69017 155.770435 
L 184.69017 144.813913 
L 185.45108 144.813913 
L 185.45108 144.375652 
L 186.211989 144.375652 
L 186.211989 152.702609 
L 186.972898 152.702609 
L 186.972898 150.511304 
L 187.733807 150.511304 
L 187.733807 158.4 
L 188.494716 158.4 
L 188.494716 154.017391 
L 189.255625 154.017391 
L 189.255625 158.4 
L 190.016534 158.4 
L 190.016534 159.714783 
L 190.777443 159.714783 
L 190.777443 154.017391 
L 191.538352 154.017391 
L 191.538352 159.714783 
L 192.299261 159.714783 
L 192.299261 165.850435 
L 193.06017 165.850435 
L 193.06017 156.208696 
L 193.82108 156.208696 
L 193.82108 165.412174 
L 194.581989 165.412174 
L 194.581989 161.906087 
L 195.342898 161.906087 
L 195.342898 161.029565 
L 196.103807 161.029565 
L 196.103807 162.782609 
L 196.864716 162.782609 
L 196.864716 164.097391 
L 197.625625 164.097391 
L 197.625625 165.850435 
L 198.386534 165.850435 
L 198.386534 164.535652 
L 199.147443 164.535652 
L 199.147443 160.591304 
L 199.908352 160.591304 
L 199.908352 164.097391 
L 200.669261 164.097391 
L 200.669261 162.782609 
L 202.19108 162.782609 
L 202.19108 168.48 
L 202.951989 168.48 
L 202.951989 166.726957 
L 203.712898 166.726957 
L 203.712898 170.671304 
L 204.473807 170.671304 
L 204.473807 165.850435 
L 205.234716 165.850435 
L 205.234716 167.603478 
L 205.995625 167.603478 
L 205.995625 174.615652 
L 206.756534 174.615652 
L 206.756534 167.603478 
L 207.517443 167.603478 
L 207.517443 172.424348 
L 208.278352 172.424348 
L 208.278352 182.504348 
L 209.039261 182.504348 
L 209.039261 183.81913 
L 209.80017 183.81913 
L 209.80017 186.886957 
L 210.56108 186.886957 
L 210.56108 185.572174 
L 211.321989 185.572174 
L 211.321989 178.121739 
L 212.082898 178.121739 
L 212.082898 185.572174 
L 212.843807 185.572174 
L 212.843807 189.078261 
L 213.604716 189.078261 
L 213.604716 195.213913 
L 214.365625 195.213913 
L 214.365625 187.763478 
L 215.126534 187.763478 
L 215.126534 188.201739 
L 215.887443 188.201739 
L 215.887443 181.627826 
L 216.648352 181.627826 
L 216.648352 177.683478 
L 217.409261 177.683478 
L 217.409261 174.615652 
L 218.17017 174.615652 
L 218.17017 172.424348 
L 218.93108 172.424348 
L 218.93108 173.73913 
L 219.691989 173.73913 
L 219.691989 179.874783 
L 220.452898 179.874783 
L 220.452898 179.436522 
L 221.213807 179.436522 
L 221.213807 178.56 
L 221.974716 178.56 
L 221.974716 182.504348 
L 222.735625 182.504348 
L 222.735625 184.257391 
L 223.496534 184.257391 
L 223.496534 182.504348 
L 224.257443 182.504348 
L 224.257443 182.066087 
L 225.018352 182.066087 
L 225.018352 176.368696 
L 225.779261 176.368696 
L 225.779261 177.683478 
L 226.54017 177.683478 
L 226.54017 182.504348 
L 227.30108 182.504348 
L 227.30108 186.448696 
L 228.061989 186.448696 
L 228.061989 183.38087 
L 228.822898 183.38087 
L 228.822898 189.954783 
L 229.583807 189.954783 
L 229.583807 183.38087 
L 231.105625 183.38087 
L 231.105625 176.368696 
L 231.866534 176.368696 
L 231.866534 189.078261 
L 232.627443 189.078261 
L 232.627443 178.121739 
L 233.388352 178.121739 
L 233.388352 179.436522 
L 234.149261 179.436522 
L 234.149261 182.942609 
L 234.91017 182.942609 
L 234.91017 183.81913 
L 235.67108 183.81913 
L 235.67108 183.38087 
L 236.431989 183.38087 
L 236.431989 190.831304 
L 237.192898 190.831304 
L 237.192898 186.448696 
L 237.953807 186.448696 
L 237.953807 188.64 
L 238.714716 188.64 
L 238.714716 193.89913 
L 239.475625 193.89913 
L 239.475625 184.695652 
L 240.236534 184.695652 
L 240.236534 192.146087 
L 240.997443 192.146087 
L 240.997443 195.652174 
L 241.758352 195.652174 
L 241.758352 183.38087 
L 242.519261 183.38087 
L 242.519261 189.516522 
L 243.28017 189.516522 
L 243.28017 188.201739 
L 244.04108 188.201739 
L 244.04108 189.078261 
L 244.801989 189.078261 
L 244.801989 193.46087 
L 245.562898 193.46087 
L 245.562898 184.257391 
L 246.323807 184.257391 
L 246.323807 192.146087 
L 247.084716 192.146087 
L 247.084716 192.584348 
L 247.845625 192.584348 
L 247.845625 189.078261 
L 248.606534 189.078261 
L 248.606534 189.954783 
L 249.367443 189.954783 
L 249.367443 192.146087 
L 250.128352 192.146087 
L 250.128352 186.010435 
L 250.889261 186.010435 
L 250.889261 191.707826 
L 251.65017 191.707826 
L 251.65017 189.954783 
L 252.41108 189.954783 
L 252.41108 197.843478 
L 253.171989 197.843478 
L 253.171989 193.022609 
L 253.932898 193.022609 
L 253.932898 200.473043 
L 254.693807 200.473043 
L 254.693807 193.89913 
L 255.454716 193.89913 
L 255.454716 203.54087 
L 256.215625 203.54087 
L 256.215625 198.72 
L 256.976534 198.72 
L 256.976534 199.596522 
L 257.737443 199.596522 
L 257.737443 197.405217 
L 258.498352 197.405217 
L 258.498352 203.102609 
L 259.259261 203.102609 
L 259.259261 214.497391 
L 260.02017 214.497391 
L 260.02017 213.62087 
L 260.78108 213.62087 
L 260.78108 206.608696 
L 261.541989 206.608696 
L 261.541989 203.54087 
L 262.302898 203.54087 
L 262.302898 194.775652 
L 263.063807 194.775652 
L 263.063807 201.349565 
L 263.824716 201.349565 
L 263.824716 192.584348 
L 264.585625 192.584348 
L 264.585625 200.034783 
L 265.346534 200.034783 
L 265.346534 195.652174 
L 266.107443 195.652174 
L 266.107443 200.473043 
L 266.868352 200.473043 
L 266.868352 194.337391 
L 267.629261 194.337391 
L 267.629261 189.954783 
L 268.39017 189.954783 
L 268.39017 196.528696 
L 269.15108 196.528696 
L 269.15108 195.213913 
L 269.911989 195.213913 
L 269.911989 193.89913 
L 270.672898 193.89913 
L 270.672898 196.528696 
L 271.433807 196.528696 
L 271.433807 196.966957 
L 272.194716 196.966957 
L 272.194716 199.158261 
L 272.955625 199.158261 
L 272.955625 197.843478 
L 273.716534 197.843478 
L 273.716534 191.707826 
L 274.477443 191.707826 
L 274.477443 196.090435 
L 275.238352 196.090435 
L 275.238352 196.966957 
L 275.999261 196.966957 
L 275.999261 195.652174 
L 276.76017 195.652174 
L 276.76017 197.843478 
L 277.52108 197.843478 
L 277.52108 197.405217 
L 278.281989 197.405217 
L 278.281989 199.596522 
L 279.042898 199.596522 
L 279.042898 198.72 
L 279.803807 198.72 
L 279.803807 199.158261 
L 280.564716 199.158261 
L 280.564716 200.911304 
L 281.325625 200.911304 
L 281.325625 201.787826 
L 282.086534 201.787826 
L 282.086534 200.911304 
L 282.847443 200.911304 
L 282.847443 199.596522 
L 283.608352 199.596522 
L 283.608352 202.664348 
L 284.369261 202.664348 
L 284.369261 202.226087 
L 285.13017 202.226087 
L 285.13017 201.349565 
L 285.89108 201.349565 
L 285.89108 203.97913 
L 286.651989 203.97913 
L 286.651989 202.226087 
L 287.412898 202.226087 
L 287.412898 199.158261 
L 288.173807 199.158261 
L 288.173807 205.293913 
L 288.934716 205.293913 
L 288.934716 202.226087 
L 289.695625 202.226087 
L 289.695625 200.034783 
L 290.456534 200.034783 
L 290.456534 201.787826 
L 291.217443 201.787826 
L 291.217443 201.349565 
L 291.978352 201.349565 
L 291.978352 201.787826 
L 292.739261 201.787826 
L 292.739261 200.911304 
L 293.50017 200.911304 
L 293.50017 208.8 
L 294.26108 208.8 
L 294.26108 205.732174 
L 295.021989 205.732174 
L 295.021989 200.911304 
L 295.782898 200.911304 
L 295.782898 203.102609 
L 296.543807 203.102609 
L 296.543807 202.664348 
L 297.304716 202.664348 
L 297.304716 205.293913 
L 298.065625 205.293913 
L 298.065625 206.608696 
L 298.826534 206.608696 
L 298.826534 208.8 
L 299.587443 208.8 
L 299.587443 209.238261 
L 300.348352 209.238261 
L 300.348352 209.676522 
L 301.109261 209.676522 
L 301.109261 214.497391 
L 301.87017 214.497391 
L 301.87017 216.250435 
L 302.63108 216.250435 
L 302.63108 218.88 
L 303.391989 218.88 
L 303.391989 217.565217 
L 304.152898 217.565217 
L 304.152898 213.62087 
L 304.913807 213.62087 
L 304.913807 210.991304 
L 305.674716 210.991304 
L 305.674716 208.361739 
L 306.435625 208.361739 
L 306.435625 206.608696 
L 307.196534 206.608696 
L 307.196534 207.485217 
L 307.957443 207.485217 
L 307.957443 208.361739 
L 308.718352 208.361739 
L 308.718352 209.238261 
L 309.479261 209.238261 
L 309.479261 206.608696 
L 310.24017 206.608696 
L 310.24017 207.923478 
L 311.00108 207.923478 
L 311.00108 205.732174 
L 311.761989 205.732174 
L 311.761989 207.485217 
L 312.522898 207.485217 
L 312.522898 212.744348 
L 313.283807 212.744348 
L 313.283807 208.361739 
L 314.044716 208.361739 
L 314.044716 203.97913 
L 314.805625 203.97913 
L 314.805625 206.608696 
L 315.566534 206.608696 
L 315.566534 210.553043 
L 316.327443 210.553043 
L 316.327443 209.238261 
L 317.088352 209.238261 
L 317.088352 203.54087 
L 317.849261 203.54087 
L 317.849261 208.361739 
L 318.61017 208.361739 
L 318.61017 203.102609 
L 319.37108 203.102609 
L 319.37108 206.608696 
L 320.131989 206.608696 
L 320.131989 207.046957 
L 320.892898 207.046957 
L 320.892898 206.170435 
L 321.653807 206.170435 
L 321.653807 208.361739 
L 322.414716 208.361739 
L 322.414716 206.170435 
L 323.175625 206.170435 
L 323.175625 206.608696 
L 324.697443 206.608696 
L 324.697443 207.923478 
L 325.458352 207.923478 
L 325.458352 209.238261 
L 326.219261 209.238261 
L 326.219261 211.867826 
L 326.98017 211.867826 
L 326.98017 207.046957 
L 327.74108 207.046957 
L 327.74108 204.855652 
L 328.501989 204.855652 
L 328.501989 208.361739 
L 329.262898 208.361739 
L 329.262898 210.114783 
L 330.023807 210.114783 
L 330.023807 209.676522 
L 330.784716 209.676522 
L 330.784716 207.923478 
L 331.545625 207.923478 
L 331.545625 211.867826 
L 332.306534 211.867826 
L 332.306534 207.485217 
L 333.828352 207.485217 
L 333.828352 206.608696 
L 334.589261 206.608696 
L 334.589261 207.046957 
L 335.35017 207.046957 
L 335.35017 207.923478 
L 336.11108 207.923478 
L 336.11108 210.114783 
L 336.871989 210.114783 
L 336.871989 208.8 
L 337.632898 208.8 
L 337.632898 210.114783 
L 339.154716 210.114783 
L 339.154716 207.046957 
L 339.915625 207.046957 
L 339.915625 202.226087 
L 340.676534 202.226087 
L 340.676534 208.361739 
L 341.437443 208.361739 
L 341.437443 210.114783 
L 342.198352 210.114783 
L 342.198352 211.867826 
L 342.959261 211.867826 
L 342.959261 213.62087 
L 343.72017 213.62087 
L 343.72017 213.182609 
L 344.48108 213.182609 
L 344.48108 214.497391 
L 346.002898 214.497391 
L 346.002898 217.565217 
L 346.763807 217.565217 
L 346.763807 218.441739 
L 347.524716 218.441739 
L 347.524716 218.88 
L 366.547443 218.88 
L 366.547443 218.88 
" clip-path="url(#p5a3ff0a119)" style="fill: none; stroke: #000000; stroke-width: 1.5; stroke-linecap: square"/>
   </g>
   <g id="patch_3">
    <path d="M 46.965625 228.96 
L 46.965625 7.2 
" style="fill: none; stroke: #000000; stroke-width: 0.8; stroke-linejoin: miter; stroke-linecap: square"/>
   </g>
   <g id="patch_4">
    <path d="M 381.765625 228.96 
L 381.765625 7.2 
" style="fill: none; stroke: #000000; stroke-width: 0.8; stroke-linejoin: miter; stroke-linecap: square"/>
   </g>
   <g id="patch_5">
    <path d="M 46.965625 228.96 
L 381.765625 228.96 
" style="fill: none; stroke: #000000; stroke-width: 0.8; stroke-linejoin: miter; stroke-linecap: square"/>
   </g>
   <g id="patch_6">
    <path d="M 46.965625 7.2 
L 381.765625 7.2 
" style="fill: none; stroke: #000000; stroke-width: 0.8; stroke-linejoin: miter; stroke-linecap: square"/>
   </g>
   <g id="legend_1">
    <g id="patch_7">
     <path d="M 277.7625 44.834375 
L 374.765625 44.834375 
Q 376.765625 44.834375 376.765625 42.834375 
L 376.765625 14.2 
Q 376.765625 12.2 374.765625 12.2 
L 277.7625 12.2 
Q 275.7625 12.2 275.7625 14.2 
L 275.7625 42.834375 
Q 275.7625 44.834375 277.7625 44.834375 
z
" style="fill: #ffffff; opacity: 0.8; stroke: #cccccc; stroke-linejoin: miter"/>
    </g>
    <g id="line2d_13">
     <path d="M 279.7625 20.298437 
L 279.7625 20.298437 
L 289.7625 20.298437 
L 289.7625 20.298437 
L 299.7625 20.298437 
" style="fill: none; stroke: #1f77b4; stroke-width: 1.5; stroke-linecap: square"/>
    </g>
    <g id="text_13">
     <!-- wfm -->
     <g transform="translate(307.7625 23.798437) scale(0.1 -0.1)">
      <defs>
       <path id="DejaVuSans-66" d="M 2375 4863 
L 2375 4384 
L 1825 4384 
Q 1516 4384 1395 4259 
Q 1275 4134 1275 3809 
L 1275 3500 
L 2222 3500 
L 2222 3053 
L 1275 3053 
L 1275 0 
L 697 0 
L 697 3053 
L 147 3053 
L 147 3500 
L 697 3500 
L 697 3744 
Q 697 4328 969 4595 
Q 1241 4863 1831 4863 
L 2375 4863 
z
" transform="scale(0.015625)"/>
       <path id="DejaVuSans-6d" d="M 3328 2828 
Q 3544 3216 3844 3400 
Q 4144 3584 4550 3584 
Q 5097 3584 5394 3201 
Q 5691 2819 5691 2113 
L 5691 0 
L 5113 0 
L 5113 2094 
Q 5113 2597 4934 2840 
Q 4756 3084 4391 3084 
Q 3944 3084 3684 2787 
Q 3425 2491 3425 1978 
L 3425 0 
L 2847 0 
L 2847 2094 
Q 2847 2600 2669 2842 
Q 2491 3084 2119 3084 
Q 1678 3084 1418 2786 
Q 1159 2488 1159 1978 
L 1159 0 
L 581 0 
L 581 3500 
L 1159 3500 
L 1159 2956 
Q 1356 3278 1631 3431 
Q 1906 3584 2284 3584 
Q 2666 3584 2933 3390 
Q 3200 3197 3328 2828 
z
" transform="scale(0.015625)"/>
      </defs>
      <use xlink:href="#DejaVuSans-77"/>
      <use xlink:href="#DejaVuSans-66" transform="translate(81.787109 0)"/>
      <use xlink:href="#DejaVuSans-6d" transform="translate(116.992188 0)"/>
     </g>
    </g>
    <g id="line2d_14">
     <path d="M 279.7625 34.976562 
L 279.7625 34.976562 
L 289.7625 34.976562 
L 289.7625 34.976562 
L 299.7625 34.976562 
" style="fill: none; stroke: #000000; stroke-width: 1.5; stroke-linecap: square"/>
    </g>
    <g id="text_14">
     <!-- ground_truth -->
     <g transform="translate(307.7625 38.476562) scale(0.1 -0.1)">
      <defs>
       <path id="DejaVuSans-72" d="M 2631 2963 
Q 2534 3019 2420 3045 
Q 2306 3072 2169 3072 
Q 1681 3072 1420 2755 
Q 1159 2438 1159 1844 
L 1159 0 
L 581 0 
L 581 3500 
L 1159 3500 
L 1159 2956 
Q 1341 3275 1631 3429 
Q 1922 3584 2338 3584 
Q 2397 3584 2469 3576 
Q 2541 3569 2628 3553 
L 2631 2963 
z
" transform="scale(0.015625)"/>
       <path id="DejaVuSans-64" d="M 2906 2969 
L 2906 4863 
L 3481 4863 
L 3481 0 
L 2906 0 
L 2906 525 
Q 2725 213 2448 61 
Q 2172 -91 1784 -91 
Q 1150 -91 751 415 
Q 353 922 353 1747 
Q 353 2572 751 3078 
Q 1150 3584 1784 3584 
Q 2172 3584 2448 3432 
Q 2725 3281 2906 2969 
z
M 947 1747 
Q 947 1113 1208 752 
Q 1469 391 1925 391 
Q 2381 391 2643 752 
Q 2906 1113 2906 1747 
Q 2906 2381 2643 2742 
Q 2381 3103 1925 3103 
Q 1469 3103 1208 2742 
Q 947 2381 947 1747 
z
" transform="scale(0.015625)"/>
       <path id="DejaVuSans-5f" d="M 3263 -1063 
L 3263 -1509 
L -63 -1509 
L -63 -1063 
L 3263 -1063 
z
" transform="scale(0.015625)"/>
      </defs>
      <use xlink:href="#DejaVuSans-67"/>
      <use xlink:href="#DejaVuSans-72" transform="translate(63.476562 0)"/>
      <use xlink:href="#DejaVuSans-6f" transform="translate(102.339844 0)"/>
      <use xlink:href="#DejaVuSans-75" transform="translate(163.521484 0)"/>
      <use xlink:href="#DejaVuSans-6e" transform="translate(226.900391 0)"/>
      <use xlink:href="#DejaVuSans-64" transform="translate(290.279297 0)"/>
      <use xlink:href="#DejaVuSans-5f" transform="translate(353.755859 0)"/>
      <use xlink:href="#DejaVuSans-74" transform="translate(403.755859 0)"/>
      <use xlink:href="#DejaVuSans-72" transform="translate(442.964844 0)"/>
      <use xlink:href="#DejaVuSans-75" transform="translate(484.078125 0)"/>
      <use xlink:href="#DejaVuSans-74" transform="translate(547.457031 0)"/>
      <use xlink:href="#DejaVuSans-68" transform="translate(586.666016 0)"/>
     </g>
    </g>
   </g>
  </g>
 </g>
 <defs>
  <clipPath id="p5a3ff0a119">
   <rect x="46.965625" y="7.2" width="334.8" height="221.76"/>
  </clipPath>
 </defs>
</svg>
