<?xml version="1.0" encoding="utf-8" standalone="no"?>
<!DOCTYPE svg PUBLIC "-//W3C//DTD SVG 1.1//EN"
  "http://www.w3.org/Graphics/SVG/1.1/DTD/svg11.dtd">
<svg xmlns:xlink="http://www.w3.org/1999/xlink" width="388.965625pt" height="268.200625pt" viewBox="0 0 388.965625 268.200625" xmlns="http://www.w3.org/2000/svg" version="1.1">
 <metadata>
  <rdf:RDF xmlns:dc="http://purl.org/dc/elements/1.1/" xmlns:cc="http://creativecommons.org/ns#" xmlns:rdf="http://www.w3.org/1999/02/22-rdf-syntax-ns#">
   <cc:Work>
    <dc:type rdf:resource="http://purl.org/dc/dcmitype/StillImage"/>
    <dc:date>2026-06-04T11:42:38.529998</dc:date>
    <dc:format>image/svg+xml</dc:format>
    <dc:creator>
     <cc:Agent>
      <dc:title>Matplotlib v3.10.9, https://matplotlib.org/</dc:title>
     </cc:Agent>
    </dc:creator>
   </cc:Work>
  </rdf:RDF>
 </metadata>
 <defs>
  <style type="text/css">*{stroke-linejoin: round; stroke-linecap: butt}</style>
 </defs>
 <g id="figure_1">
  <g id="patch_1">
   <path d="M 0 268.200625 
L 388.965625 268.200625 
L 388.965625 0 
L 0 0 
z
" style="fill: #ffffff"/>
  </g>
  <g id="axes_1">
   <g id="patch_2">
    <path d="M 46.965625 228.96 
L 381.765625 228.96 
L 381.765625 7.2 
L 46.965625 7.2 
z
" style="fill: #ffffff"/>
   </g>
   <g id="matplotlib.axis_1">
    <g id="xtick_1">
     <g id="line2d_1">
      <defs>
       <path id="mb8b90dfc66" d="M 0 0 
L 0 3.5 
" style="stroke: #000000; stroke-width: 0.8"/>
      </defs>
      <g>
       <use xlink:href="#mb8b90dfc66" x="61.939531" y="228.96" style="stroke: #000000; stroke-width: 0.8"/>
      </g>
     </g>
     <g id="text_1">
      <!-- 6.0 -->
      <g transform="translate(53.987968 243.558437) scale(0.1 -0.1)">
       <defs>
        <path id="DejaVuSans-36" d="M 2113 2584 
Q 1688 2584 1439 2293 
Q 1191 2003 1191 1497 
Q 1191 994 1439 701 
Q 1688 409 2113 409 
Q 2538 409 2786 701 
Q 3034 994 3034 1497 
Q 3034 2003 2786 2293 
Q 2538 2584 2113 2584 
z
M 3366 4563 
L 3366 3988 
Q 3128 4100 2886 4159 
Q 2644 4219 2406 4219 
Q 1781 4219 1451 3797 
Q 1122 3375 1075 2522 
Q 1259 2794 1537 2939 
Q 1816 3084 2150 3084 
Q 2853 3084 3261 2657 
Q 3669 2231 3669 1497 
Q 3669 778 3244 343 
Q 2819 -91 2113 -91 
Q 1303 -91 875 529 
Q 447 1150 447 2328 
Q 447 3434 972 4092 
Q 1497 4750 2381 4750 
Q 2619 4750 2861 4703 
Q 3103 4656 3366 4563 
z
" transform="scale(0.015625)"/>
        <path id="DejaVuSans-2e" d="M 684 794 
L 1344 794 
L 1344 0 
L 684 0 
L 684 794 
z
" transform="scale(0.015625)"/>
        <path id="DejaVuSans-30" d="M 2034 4250 
Q 1547 4250 1301 3770 
Q 1056 3291 1056 2328 
Q 1056 1369 1301 889 
Q 1547 409 2034 409 
Q 2525 409 2770 889 
Q 3016 1369 3016 2328 
Q 3016 3291 2770 3770 
Q 2525 4250 2034 4250 
z
M 2034 4750 
Q 2819 4750 3233 4129 
Q 3647 3509 3647 2328 
Q 3647 1150 3233 529 
Q 2819 -91 2034 -91 
Q 1250 -91 836 529 
Q 422 1150 422 2328 
Q 422 3509 836 4129 
Q 1250 4750 2034 4750 
z
" transform="scale(0.015625)"/>
       </defs>
       <use xlink:href="#DejaVuSans-36"/>
       <use xlink:href="#DejaVuSans-2e" transform="translate(63.623047 0)"/>
       <use xlink:href="#DejaVuSans-30" transform="translate(95.410156 0)"/>
      </g>
     </g>
    </g>
    <g id="xtick_2">
     <g id="line2d_2">
      <g>
       <use xlink:href="#mb8b90dfc66" x="120.246741" y="228.96" style="stroke: #000000; stroke-width: 0.8"/>
      </g>
     </g>
     <g id="text_2">
      <!-- 6.5 -->
      <g transform="translate(112.295178 243.558437) scale(0.1 -0.1)">
       <defs>
        <path id="DejaVuSans-35" d="M 691 4666 
L 3169 4666 
L 3169 4134 
L 1269 4134 
L 1269 2991 
Q 1406 3038 1543 3061 
Q 1681 3084 1819 3084 
Q 2600 3084 3056 2656 
Q 3513 2228 3513 1497 
Q 3513 744 3044 326 
Q 2575 -91 1722 -91 
Q 1428 -91 1123 -41 
Q 819 9 494 109 
L 494 744 
Q 775 591 1075 516 
Q 1375 441 1709 441 
Q 2250 441 2565 725 
Q 2881 1009 2881 1497 
Q 2881 1984 2565 2268 
Q 2250 2553 1709 2553 
Q 1456 2553 1204 2497 
Q 953 2441 691 2322 
L 691 4666 
z
" transform="scale(0.015625)"/>
       </defs>
       <use xlink:href="#DejaVuSans-36"/>
       <use xlink:href="#DejaVuSans-2e" transform="translate(63.623047 0)"/>
       <use xlink:href="#DejaVuSans-35" transform="translate(95.410156 0)"/>
      </g>
     </g>
    </g>
    <g id="xtick_3">
     <g id="line2d_3">
      <g>
       <use xlink:href="#mb8b90dfc66" x="178.553951" y="228.96" style="stroke: #000000; stroke-width: 0.8"/>
      </g>
     </g>
     <g id="text_3">
      <!-- 7.0 -->
      <g transform="translate(170.602388 243.558437) scale(0.1 -0.1)">
       <defs>
        <path id="DejaVuSans-37" d="M 525 4666 
L 3525 4666 
L 3525 4397 
L 1831 0 
L 1172 0 
L 2766 4134 
L 525 4134 
L 525 4666 
z
" transform="scale(0.015625)"/>
       </defs>
       <use xlink:href="#DejaVuSans-37"/>
       <use xlink:href="#DejaVuSans-2e" transform="translate(63.623047 0)"/>
       <use xlink:href="#DejaVuSans-30" transform="translate(95.410156 0)"/>
      </g>
     </g>
    </g>
    <g id="xtick_4">
     <g id="line2d_4">
      <g>
       <use xlink:href="#mb8b90dfc66" x="236.861161" y="228.96" style="stroke: #000000; stroke-width: 0.8"/>
      </g>
     </g>
     <g id="text_4">
      <!-- 7.5 -->
      <g transform="translate(228.909598 243.558437) scale(0.1 -0.1)">
       <use xlink:href="#DejaVuSans-37"/>
       <use xlink:href="#DejaVuSans-2e" transform="translate(63.623047 0)"/>
       <use xlink:href="#DejaVuSans-35" transform="translate(95.410156 0)"/>
      </g>
     </g>
    </g>
    <g id="xtick_5">
     <g id="line2d_5">
      <g>
       <use xlink:href="#mb8b90dfc66" x="295.168371" y="228.96" style="stroke: #000000; stroke-width: 0.8"/>
      </g>
     </g>
     <g id="text_5">
      <!-- 8.0 -->
      <g transform="translate(287.216808 243.558437) scale(0.1 -0.1)">
       <defs>
        <path id="DejaVuSans-38" d="M 2034 2216 
Q 1584 2216 1326 1975 
Q 1069 1734 1069 1313 
Q 1069 891 1326 650 
Q 1584 409 2034 409 
Q 2484 409 2743 651 
Q 3003 894 3003 1313 
Q 3003 1734 2745 1975 
Q 2488 2216 2034 2216 
z
M 1403 2484 
Q 997 2584 770 2862 
Q 544 3141 544 3541 
Q 544 4100 942 4425 
Q 1341 4750 2034 4750 
Q 2731 4750 3128 4425 
Q 3525 4100 3525 3541 
Q 3525 3141 3298 2862 
Q 3072 2584 2669 2484 
Q 3125 2378 3379 2068 
Q 3634 1759 3634 1313 
Q 3634 634 3220 271 
Q 2806 -91 2034 -91 
Q 1263 -91 848 271 
Q 434 634 434 1313 
Q 434 1759 690 2068 
Q 947 2378 1403 2484 
z
M 1172 3481 
Q 1172 3119 1398 2916 
Q 1625 2713 2034 2713 
Q 2441 2713 2670 2916 
Q 2900 3119 2900 3481 
Q 2900 3844 2670 4047 
Q 2441 4250 2034 4250 
Q 1625 4250 1398 4047 
Q 1172 3844 1172 3481 
z
" transform="scale(0.015625)"/>
       </defs>
       <use xlink:href="#DejaVuSans-38"/>
       <use xlink:href="#DejaVuSans-2e" transform="translate(63.623047 0)"/>
       <use xlink:href="#DejaVuSans-30" transform="translate(95.410156 0)"/>
      </g>
     </g>
    </g>
    <g id="xtick_6">
     <g id="line2d_6">
      <g>
       <use xlink:href="#mb8b90dfc66" x="353.475581" y="228.96" style="stroke: #000000; stroke-width: 0.8"/>
      </g>
     </g>
     <g id="text_6">
      <!-- 8.5 -->
      <g transform="translate(345.524018 243.558437) scale(0.1 -0.1)">
       <use xlink:href="#DejaVuSans-38"/>
       <use xlink:href="#DejaVuSans-2e" transform="translate(63.623047 0)"/>
       <use xlink:href="#DejaVuSans-35" transform="translate(95.410156 0)"/>
      </g>
     </g>
    </g>
    <g id="text_7">
     <!-- wavelength [Å] -->
     <g transform="translate(176.328125 258.920937) scale(0.1 -0.1)">
      <defs>
       <path id="DejaVuSans-77" d="M 269 3500 
L 844 3500 
L 1563 769 
L 2278 3500 
L 2956 3500 
L 3675 769 
L 4391 3500 
L 4966 3500 
L 4050 0 
L 3372 0 
L 2619 2869 
L 1863 0 
L 1184 0 
L 269 3500 
z
" transform="scale(0.015625)"/>
       <path id="DejaVuSans-61" d="M 2194 1759 
Q 1497 1759 1228 1600 
Q 959 1441 959 1056 
Q 959 750 1161 570 
Q 1363 391 1709 391 
Q 2188 391 2477 730 
Q 2766 1069 2766 1631 
L 2766 1759 
L 2194 1759 
z
M 3341 1997 
L 3341 0 
L 2766 0 
L 2766 531 
Q 2569 213 2275 61 
Q 1981 -91 1556 -91 
Q 1019 -91 701 211 
Q 384 513 384 1019 
Q 384 1609 779 1909 
Q 1175 2209 1959 2209 
L 2766 2209 
L 2766 2266 
Q 2766 2663 2505 2880 
Q 2244 3097 1772 3097 
Q 1472 3097 1187 3025 
Q 903 2953 641 2809 
L 641 3341 
Q 956 3463 1253 3523 
Q 1550 3584 1831 3584 
Q 2591 3584 2966 3190 
Q 3341 2797 3341 1997 
z
" transform="scale(0.015625)"/>
       <path id="DejaVuSans-76" d="M 191 3500 
L 800 3500 
L 1894 563 
L 2988 3500 
L 3597 3500 
L 2284 0 
L 1503 0 
L 191 3500 
z
" transform="scale(0.015625)"/>
       <path id="DejaVuSans-65" d="M 3597 1894 
L 3597 1613 
L 953 1613 
Q 991 1019 1311 708 
Q 1631 397 2203 397 
Q 2534 397 2845 478 
Q 3156 559 3463 722 
L 3463 178 
Q 3153 47 2828 -22 
Q 2503 -91 2169 -91 
Q 1331 -91 842 396 
Q 353 884 353 1716 
Q 353 2575 817 3079 
Q 1281 3584 2069 3584 
Q 2775 3584 3186 3129 
Q 3597 2675 3597 1894 
z
M 3022 2063 
Q 3016 2534 2758 2815 
Q 2500 3097 2075 3097 
Q 1594 3097 1305 2825 
Q 1016 2553 972 2059 
L 3022 2063 
z
" transform="scale(0.015625)"/>
       <path id="DejaVuSans-6c" d="M 603 4863 
L 1178 4863 
L 1178 0 
L 603 0 
L 603 4863 
z
" transform="scale(0.015625)"/>
       <path id="DejaVuSans-6e" d="M 3513 2113 
L 3513 0 
L 2938 0 
L 2938 2094 
Q 2938 2591 2744 2837 
Q 2550 3084 2163 3084 
Q 1697 3084 1428 2787 
Q 1159 2491 1159 1978 
L 1159 0 
L 581 0 
L 581 3500 
L 1159 3500 
L 1159 2956 
Q 1366 3272 1645 3428 
Q 1925 3584 2291 3584 
Q 2894 3584 3203 3211 
Q 3513 2838 3513 2113 
z
" transform="scale(0.015625)"/>
       <path id="DejaVuSans-67" d="M 2906 1791 
Q 2906 2416 2648 2759 
Q 2391 3103 1925 3103 
Q 1463 3103 1205 2759 
Q 947 2416 947 1791 
Q 947 1169 1205 825 
Q 1463 481 1925 481 
Q 2391 481 2648 825 
Q 2906 1169 2906 1791 
z
M 3481 434 
Q 3481 -459 3084 -895 
Q 2688 -1331 1869 -1331 
Q 1566 -1331 1297 -1286 
Q 1028 -1241 775 -1147 
L 775 -588 
Q 1028 -725 1275 -790 
Q 1522 -856 1778 -856 
Q 2344 -856 2625 -561 
Q 2906 -266 2906 331 
L 2906 616 
Q 2728 306 2450 153 
Q 2172 0 1784 0 
Q 1141 0 747 490 
Q 353 981 353 1791 
Q 353 2603 747 3093 
Q 1141 3584 1784 3584 
Q 2172 3584 2450 3431 
Q 2728 3278 2906 2969 
L 2906 3500 
L 3481 3500 
L 3481 434 
z
" transform="scale(0.015625)"/>
       <path id="DejaVuSans-74" d="M 1172 4494 
L 1172 3500 
L 2356 3500 
L 2356 3053 
L 1172 3053 
L 1172 1153 
Q 1172 725 1289 603 
Q 1406 481 1766 481 
L 2356 481 
L 2356 0 
L 1766 0 
Q 1100 0 847 248 
Q 594 497 594 1153 
L 594 3053 
L 172 3053 
L 172 3500 
L 594 3500 
L 594 4494 
L 1172 4494 
z
" transform="scale(0.015625)"/>
       <path id="DejaVuSans-68" d="M 3513 2113 
L 3513 0 
L 2938 0 
L 2938 2094 
Q 2938 2591 2744 2837 
Q 2550 3084 2163 3084 
Q 1697 3084 1428 2787 
Q 1159 2491 1159 1978 
L 1159 0 
L 581 0 
L 581 4863 
L 1159 4863 
L 1159 2956 
Q 1366 3272 1645 3428 
Q 1925 3584 2291 3584 
Q 2894 3584 3203 3211 
Q 3513 2838 3513 2113 
z
" transform="scale(0.015625)"/>
       <path id="DejaVuSans-20" transform="scale(0.015625)"/>
       <path id="DejaVuSans-5b" d="M 550 4863 
L 1875 4863 
L 1875 4416 
L 1125 4416 
L 1125 -397 
L 1875 -397 
L 1875 -844 
L 550 -844 
L 550 4863 
z
" transform="scale(0.015625)"/>
       <path id="DejaVuSans-c5" d="M 2663 5081 
Q 2663 5278 2523 5417 
Q 2384 5556 2188 5556 
Q 1988 5556 1852 5420 
Q 1716 5284 1716 5081 
Q 1716 4884 1853 4746 
Q 1991 4609 2188 4609 
Q 2384 4609 2523 4746 
Q 2663 4884 2663 5081 
z
M 2188 4044 
L 1338 1722 
L 3041 1722 
L 2188 4044 
z
M 1716 4366 
Q 1525 4494 1428 4673 
Q 1331 4853 1331 5081 
Q 1331 5441 1579 5691 
Q 1828 5941 2188 5941 
Q 2544 5941 2795 5689 
Q 3047 5438 3047 5081 
Q 3047 4863 2948 4678 
Q 2850 4494 2663 4366 
L 4325 0 
L 3669 0 
L 3244 1197 
L 1141 1197 
L 716 0 
L 50 0 
L 1716 4366 
z
" transform="scale(0.015625)"/>
       <path id="DejaVuSans-5d" d="M 1947 4863 
L 1947 -844 
L 622 -844 
L 622 -397 
L 1369 -397 
L 1369 4416 
L 622 4416 
L 622 4863 
L 1947 4863 
z
" transform="scale(0.015625)"/>
      </defs>
      <use xlink:href="#DejaVuSans-77"/>
      <use xlink:href="#DejaVuSans-61" transform="translate(81.787109 0)"/>
      <use xlink:href="#DejaVuSans-76" transform="translate(143.066406 0)"/>
      <use xlink:href="#DejaVuSans-65" transform="translate(202.246094 0)"/>
      <use xlink:href="#DejaVuSans-6c" transform="translate(263.769531 0)"/>
      <use xlink:href="#DejaVuSans-65" transform="translate(291.552734 0)"/>
      <use xlink:href="#DejaVuSans-6e" transform="translate(353.076172 0)"/>
      <use xlink:href="#DejaVuSans-67" transform="translate(416.455078 0)"/>
      <use xlink:href="#DejaVuSans-74" transform="translate(479.931641 0)"/>
      <use xlink:href="#DejaVuSans-68" transform="translate(519.140625 0)"/>
      <use xlink:href="#DejaVuSans-20" transform="translate(582.519531 0)"/>
      <use xlink:href="#DejaVuSans-5b" transform="translate(614.306641 0)"/>
      <use xlink:href="#DejaVuSans-c5" transform="translate(653.320312 0)"/>
      <use xlink:href="#DejaVuSans-5d" transform="translate(721.728516 0)"/>
     </g>
    </g>
   </g>
   <g id="matplotlib.axis_2">
    <g id="ytick_1">
     <g id="line2d_7">
      <defs>
       <path id="m13f4014f57" d="M 0 0 
L -3.5 0 
" style="stroke: #000000; stroke-width: 0.8"/>
      </defs>
      <g>
       <use xlink:href="#m13f4014f57" x="46.965625" y="218.88" style="stroke: #000000; stroke-width: 0.8"/>
      </g>
     </g>
     <g id="text_8">
      <!-- 0 -->
      <g transform="translate(33.603125 222.679219) scale(0.1 -0.1)">
       <use xlink:href="#DejaVuSans-30"/>
      </g>
     </g>
    </g>
    <g id="ytick_2">
     <g id="line2d_8">
      <g>
       <use xlink:href="#m13f4014f57" x="46.965625" y="177.398519" style="stroke: #000000; stroke-width: 0.8"/>
      </g>
     </g>
     <g id="text_9">
      <!-- 100 -->
      <g transform="translate(20.878125 181.197737) scale(0.1 -0.1)">
       <defs>
        <path id="DejaVuSans-31" d="M 794 531 
L 1825 531 
L 1825 4091 
L 703 3866 
L 703 4441 
L 1819 4666 
L 2450 4666 
L 2450 531 
L 3481 531 
L 3481 0 
L 794 0 
L 794 531 
z
" transform="scale(0.015625)"/>
       </defs>
       <use xlink:href="#DejaVuSans-31"/>
       <use xlink:href="#DejaVuSans-30" transform="translate(63.623047 0)"/>
       <use xlink:href="#DejaVuSans-30" transform="translate(127.246094 0)"/>
      </g>
     </g>
    </g>
    <g id="ytick_3">
     <g id="line2d_9">
      <g>
       <use xlink:href="#m13f4014f57" x="46.965625" y="135.917037" style="stroke: #000000; stroke-width: 0.8"/>
      </g>
     </g>
     <g id="text_10">
      <!-- 200 -->
      <g transform="translate(20.878125 139.716256) scale(0.1 -0.1)">
       <defs>
        <path id="DejaVuSans-32" d="M 1228 531 
L 3431 531 
L 3431 0 
L 469 0 
L 469 531 
Q 828 903 1448 1529 
Q 2069 2156 2228 2338 
Q 2531 2678 2651 2914 
Q 2772 3150 2772 3378 
Q 2772 3750 2511 3984 
Q 2250 4219 1831 4219 
Q 1534 4219 1204 4116 
Q 875 4013 500 3803 
L 500 4441 
Q 881 4594 1212 4672 
Q 1544 4750 1819 4750 
Q 2544 4750 2975 4387 
Q 3406 4025 3406 3419 
Q 3406 3131 3298 2873 
Q 3191 2616 2906 2266 
Q 2828 2175 2409 1742 
Q 1991 1309 1228 531 
z
" transform="scale(0.015625)"/>
       </defs>
       <use xlink:href="#DejaVuSans-32"/>
       <use xlink:href="#DejaVuSans-30" transform="translate(63.623047 0)"/>
       <use xlink:href="#DejaVuSans-30" transform="translate(127.246094 0)"/>
      </g>
     </g>
    </g>
    <g id="ytick_4">
     <g id="line2d_10">
      <g>
       <use xlink:href="#m13f4014f57" x="46.965625" y="94.435556" style="stroke: #000000; stroke-width: 0.8"/>
      </g>
     </g>
     <g id="text_11">
      <!-- 300 -->
      <g transform="translate(20.878125 98.234774) scale(0.1 -0.1)">
       <defs>
        <path id="DejaVuSans-33" d="M 2597 2516 
Q 3050 2419 3304 2112 
Q 3559 1806 3559 1356 
Q 3559 666 3084 287 
Q 2609 -91 1734 -91 
Q 1441 -91 1130 -33 
Q 819 25 488 141 
L 488 750 
Q 750 597 1062 519 
Q 1375 441 1716 441 
Q 2309 441 2620 675 
Q 2931 909 2931 1356 
Q 2931 1769 2642 2001 
Q 2353 2234 1838 2234 
L 1294 2234 
L 1294 2753 
L 1863 2753 
Q 2328 2753 2575 2939 
Q 2822 3125 2822 3475 
Q 2822 3834 2567 4026 
Q 2313 4219 1838 4219 
Q 1578 4219 1281 4162 
Q 984 4106 628 3988 
L 628 4550 
Q 988 4650 1302 4700 
Q 1616 4750 1894 4750 
Q 2613 4750 3031 4423 
Q 3450 4097 3450 3541 
Q 3450 3153 3228 2886 
Q 3006 2619 2597 2516 
z
" transform="scale(0.015625)"/>
       </defs>
       <use xlink:href="#DejaVuSans-33"/>
       <use xlink:href="#DejaVuSans-30" transform="translate(63.623047 0)"/>
       <use xlink:href="#DejaVuSans-30" transform="translate(127.246094 0)"/>
      </g>
     </g>
    </g>
    <g id="ytick_5">
     <g id="line2d_11">
      <g>
       <use xlink:href="#m13f4014f57" x="46.965625" y="52.954074" style="stroke: #000000; stroke-width: 0.8"/>
      </g>
     </g>
     <g id="text_12">
      <!-- 400 -->
      <g transform="translate(20.878125 56.753293) scale(0.1 -0.1)">
       <defs>
        <path id="DejaVuSans-34" d="M 2419 4116 
L 825 1625 
L 2419 1625 
L 2419 4116 
z
M 2253 4666 
L 3047 4666 
L 3047 1625 
L 3713 1625 
L 3713 1100 
L 3047 1100 
L 3047 0 
L 2419 0 
L 2419 1100 
L 313 1100 
L 313 1709 
L 2253 4666 
z
" transform="scale(0.015625)"/>
       </defs>
       <use xlink:href="#DejaVuSans-34"/>
       <use xlink:href="#DejaVuSans-30" transform="translate(63.623047 0)"/>
       <use xlink:href="#DejaVuSans-30" transform="translate(127.246094 0)"/>
      </g>
     </g>
    </g>
    <g id="ytick_6">
     <g id="line2d_12">
      <g>
       <use xlink:href="#m13f4014f57" x="46.965625" y="11.472593" style="stroke: #000000; stroke-width: 0.8"/>
      </g>
     </g>
     <g id="text_13">
      <!-- 500 -->
      <g transform="translate(20.878125 15.271811) scale(0.1 -0.1)">
       <use xlink:href="#DejaVuSans-35"/>
       <use xlink:href="#DejaVuSans-30" transform="translate(63.623047 0)"/>
       <use xlink:href="#DejaVuSans-30" transform="translate(127.246094 0)"/>
      </g>
     </g>
    </g>
    <g id="text_14">
     <!-- [counts] -->
     <g transform="translate(14.798438 138.6925) rotate(-90) scale(0.1 -0.1)">
      <defs>
       <path id="DejaVuSans-63" d="M 3122 3366 
L 3122 2828 
Q 2878 2963 2633 3030 
Q 2388 3097 2138 3097 
Q 1578 3097 1268 2742 
Q 959 2388 959 1747 
Q 959 1106 1268 751 
Q 1578 397 2138 397 
Q 2388 397 2633 464 
Q 2878 531 3122 666 
L 3122 134 
Q 2881 22 2623 -34 
Q 2366 -91 2075 -91 
Q 1284 -91 818 406 
Q 353 903 353 1747 
Q 353 2603 823 3093 
Q 1294 3584 2113 3584 
Q 2378 3584 2631 3529 
Q 2884 3475 3122 3366 
z
" transform="scale(0.015625)"/>
       <path id="DejaVuSans-6f" d="M 1959 3097 
Q 1497 3097 1228 2736 
Q 959 2375 959 1747 
Q 959 1119 1226 758 
Q 1494 397 1959 397 
Q 2419 397 2687 759 
Q 2956 1122 2956 1747 
Q 2956 2369 2687 2733 
Q 2419 3097 1959 3097 
z
M 1959 3584 
Q 2709 3584 3137 3096 
Q 3566 2609 3566 1747 
Q 3566 888 3137 398 
Q 2709 -91 1959 -91 
Q 1206 -91 779 398 
Q 353 888 353 1747 
Q 353 2609 779 3096 
Q 1206 3584 1959 3584 
z
" transform="scale(0.015625)"/>
       <path id="DejaVuSans-75" d="M 544 1381 
L 544 3500 
L 1119 3500 
L 1119 1403 
Q 1119 906 1312 657 
Q 1506 409 1894 409 
Q 2359 409 2629 706 
Q 2900 1003 2900 1516 
L 2900 3500 
L 3475 3500 
L 3475 0 
L 2900 0 
L 2900 538 
Q 2691 219 2414 64 
Q 2138 -91 1772 -91 
Q 1169 -91 856 284 
Q 544 659 544 1381 
z
M 1991 3584 
L 1991 3584 
z
" transform="scale(0.015625)"/>
       <path id="DejaVuSans-73" d="M 2834 3397 
L 2834 2853 
Q 2591 2978 2328 3040 
Q 2066 3103 1784 3103 
Q 1356 3103 1142 2972 
Q 928 2841 928 2578 
Q 928 2378 1081 2264 
Q 1234 2150 1697 2047 
L 1894 2003 
Q 2506 1872 2764 1633 
Q 3022 1394 3022 966 
Q 3022 478 2636 193 
Q 2250 -91 1575 -91 
Q 1294 -91 989 -36 
Q 684 19 347 128 
L 347 722 
Q 666 556 975 473 
Q 1284 391 1588 391 
Q 1994 391 2212 530 
Q 2431 669 2431 922 
Q 2431 1156 2273 1281 
Q 2116 1406 1581 1522 
L 1381 1569 
Q 847 1681 609 1914 
Q 372 2147 372 2553 
Q 372 3047 722 3315 
Q 1072 3584 1716 3584 
Q 2034 3584 2315 3537 
Q 2597 3491 2834 3397 
z
" transform="scale(0.015625)"/>
      </defs>
      <use xlink:href="#DejaVuSans-5b"/>
      <use xlink:href="#DejaVuSans-63" transform="translate(39.013672 0)"/>
      <use xlink:href="#DejaVuSans-6f" transform="translate(93.994141 0)"/>
      <use xlink:href="#DejaVuSans-75" transform="translate(155.175781 0)"/>
      <use xlink:href="#DejaVuSans-6e" transform="translate(218.554688 0)"/>
      <use xlink:href="#DejaVuSans-74" transform="translate(281.933594 0)"/>
      <use xlink:href="#DejaVuSans-73" transform="translate(321.142578 0)"/>
      <use xlink:href="#DejaVuSans-5d" transform="translate(373.242188 0)"/>
     </g>
    </g>
   </g>
   <g id="line2d_13">
    <path d="M 93.333082 217.220741 
L 96.831514 217.220741 
L 96.831514 217.635556 
L 100.329947 217.635556 
L 100.329947 218.05037 
L 103.828379 218.05037 
L 103.828379 214.731852 
L 107.326812 214.731852 
L 107.326812 215.561481 
L 110.825245 215.561481 
L 110.825245 215.146667 
L 114.323677 215.146667 
L 114.323677 213.487407 
L 117.82211 213.487407 
L 117.82211 212.242963 
L 121.320542 212.242963 
L 121.320542 210.583704 
L 124.818975 210.583704 
L 124.818975 211.413333 
L 128.317408 211.413333 
L 128.317408 205.191111 
L 131.81584 205.191111 
L 131.81584 204.361481 
L 135.314273 204.361481 
L 135.314273 202.702222 
L 138.812705 202.702222 
L 138.812705 199.383704 
L 142.311138 199.383704 
L 142.311138 200.213333 
L 145.809571 200.213333 
L 145.809571 194.820741 
L 149.308003 194.820741 
L 149.308003 191.502222 
L 152.806436 191.502222 
L 152.806436 179.472593 
L 156.304868 179.472593 
L 156.304868 181.131852 
L 159.803301 181.131852 
L 159.803301 165.368889 
L 163.301734 165.368889 
L 163.301734 153.754074 
L 166.800166 153.754074 
L 166.800166 128.45037 
L 170.298599 128.45037 
L 170.298599 101.487407 
L 173.797031 101.487407 
L 173.797031 105.220741 
L 177.295464 105.220741 
L 177.295464 105.635556 
L 180.793897 105.635556 
L 180.793897 99.413333 
L 184.292329 99.413333 
L 184.292329 62.494815 
L 187.790762 62.494815 
L 187.790762 40.094815 
L 191.289194 40.094815 
L 191.289194 52.539259 
L 194.787627 52.539259 
L 194.787627 38.85037 
L 198.28606 38.85037 
L 198.28606 52.954074 
L 201.784492 52.954074 
L 201.784492 26.405926 
L 205.282925 26.405926 
L 205.282925 40.924444 
L 208.781357 40.924444 
L 208.781357 42.583704 
L 215.778223 42.583704 
L 215.778223 48.391111 
L 219.276655 48.391111 
L 219.276655 54.198519 
L 222.775088 54.198519 
L 222.775088 63.739259 
L 226.27352 63.739259 
L 226.27352 63.324444 
L 229.771953 63.324444 
L 229.771953 59.591111 
L 233.270386 59.591111 
L 233.270386 64.154074 
L 236.768818 64.154074 
L 236.768818 98.583704 
L 240.267251 98.583704 
L 240.267251 84.894815 
L 243.765683 84.894815 
L 243.765683 104.805926 
L 247.264116 104.805926 
L 247.264116 78.257778 
L 250.762549 78.257778 
L 250.762549 69.131852 
L 254.260981 69.131852 
L 254.260981 70.376296 
L 257.759414 70.376296 
L 257.759414 96.50963 
L 261.257846 96.50963 
L 261.257846 93.605926 
L 264.756279 93.605926 
L 264.756279 109.368889 
L 268.254712 109.368889 
L 268.254712 89.872593 
L 271.753144 89.872593 
L 271.753144 90.287407 
L 275.251577 90.287407 
L 275.251577 91.117037 
L 278.75001 91.117037 
L 278.75001 96.094815 
L 282.248442 96.094815 
L 282.248442 110.613333 
L 285.746875 110.613333 
L 285.746875 111.028148 
L 289.245307 111.028148 
L 289.245307 104.391111 
L 292.74374 104.391111 
L 292.74374 113.931852 
L 296.242173 113.931852 
L 296.242173 84.48 
L 299.740605 84.48 
L 299.740605 94.85037 
L 303.239038 94.85037 
L 303.239038 113.517037 
L 306.73747 113.517037 
L 306.73747 111.028148 
L 310.235903 111.028148 
L 310.235903 120.983704 
L 313.734336 120.983704 
L 313.734336 136.331852 
L 317.232768 136.331852 
L 317.232768 148.361481 
L 320.731201 148.361481 
L 320.731201 140.065185 
L 324.229633 140.065185 
L 324.229633 146.702222 
L 327.728066 146.702222 
L 327.728066 155.828148 
L 331.226499 155.828148 
L 331.226499 151.265185 
L 334.724931 151.265185 
L 334.724931 179.057778 
L 338.223364 179.057778 
L 338.223364 191.917037 
L 341.721796 191.917037 
L 341.721796 197.724444 
L 345.220229 197.724444 
L 345.220229 214.317037 
L 348.718662 214.317037 
L 348.718662 218.88 
L 359.213959 218.88 
L 359.213959 218.88 
" clip-path="url(#p5d0b19cfe2)" style="fill: none; stroke: #1f77b4; stroke-width: 1.5; stroke-linecap: square"/>
   </g>
   <g id="line2d_14">
    <path d="M 93.333082 218.88 
L 124.818975 218.88 
L 124.818975 206.85037 
L 128.317408 206.85037 
L 128.317408 203.531852 
L 131.81584 203.531852 
L 131.81584 208.094815 
L 135.314273 208.094815 
L 135.314273 199.798519 
L 138.812705 199.798519 
L 138.812705 202.702222 
L 142.311138 202.702222 
L 142.311138 199.798519 
L 145.809571 199.798519 
L 145.809571 189.842963 
L 149.308003 189.842963 
L 149.308003 187.768889 
L 152.806436 187.768889 
L 152.806436 186.10963 
L 156.304868 186.10963 
L 156.304868 171.591111 
L 159.803301 171.591111 
L 159.803301 168.687407 
L 163.301734 168.687407 
L 163.301734 135.502222 
L 166.800166 135.502222 
L 166.800166 139.235556 
L 170.298599 139.235556 
L 170.298599 104.391111 
L 173.797031 104.391111 
L 173.797031 124.717037 
L 177.295464 124.717037 
L 177.295464 79.087407 
L 180.793897 79.087407 
L 180.793897 90.702222 
L 184.292329 90.702222 
L 184.292329 62.08 
L 187.790762 62.08 
L 187.790762 37.191111 
L 191.289194 37.191111 
L 191.289194 72.865185 
L 194.787627 72.865185 
L 194.787627 17.28 
L 198.28606 17.28 
L 198.28606 69.546667 
L 201.784492 69.546667 
L 201.784492 49.220741 
L 205.282925 49.220741 
L 205.282925 46.731852 
L 208.781357 46.731852 
L 208.781357 70.376296 
L 212.27979 70.376296 
L 212.27979 42.998519 
L 215.778223 42.998519 
L 215.778223 37.191111 
L 219.276655 37.191111 
L 219.276655 51.70963 
L 222.775088 51.70963 
L 222.775088 85.724444 
L 226.27352 85.724444 
L 226.27352 65.813333 
L 229.771953 65.813333 
L 229.771953 49.220741 
L 233.270386 49.220741 
L 233.270386 99.413333 
L 236.768818 99.413333 
L 236.768818 69.961481 
L 240.267251 69.961481 
L 240.267251 34.287407 
L 243.765683 34.287407 
L 243.765683 112.687407 
L 247.264116 112.687407 
L 247.264116 62.08 
L 250.762549 62.08 
L 250.762549 86.139259 
L 254.260981 86.139259 
L 254.260981 107.70963 
L 257.759414 107.70963 
L 257.759414 93.605926 
L 261.257846 93.605926 
L 261.257846 71.620741 
L 264.756279 71.620741 
L 264.756279 85.30963 
L 268.254712 85.30963 
L 268.254712 99.828148 
L 271.753144 99.828148 
L 271.753144 77.842963 
L 275.251577 77.842963 
L 275.251577 108.539259 
L 278.75001 108.539259 
L 278.75001 103.561481 
L 282.248442 103.561481 
L 282.248442 96.50963 
L 285.746875 96.50963 
L 285.746875 96.094815 
L 289.245307 96.094815 
L 289.245307 108.539259 
L 292.74374 108.539259 
L 292.74374 101.072593 
L 296.242173 101.072593 
L 296.242173 111.442963 
L 299.740605 111.442963 
L 299.740605 117.665185 
L 303.239038 117.665185 
L 303.239038 101.072593 
L 306.73747 101.072593 
L 306.73747 122.642963 
L 310.235903 122.642963 
L 310.235903 140.894815 
L 313.734336 140.894815 
L 313.734336 137.576296 
L 317.232768 137.576296 
L 317.232768 120.568889 
L 320.731201 120.568889 
L 320.731201 144.213333 
L 324.229633 144.213333 
L 324.229633 158.317037 
L 327.728066 158.317037 
L 327.728066 152.50963 
L 331.226499 152.50963 
L 331.226499 149.605926 
L 334.724931 149.605926 
L 334.724931 172.005926 
L 338.223364 172.005926 
L 338.223364 181.131852 
L 341.721796 181.131852 
L 341.721796 190.672593 
L 345.220229 190.672593 
L 345.220229 195.235556 
L 348.718662 195.235556 
L 348.718662 202.702222 
L 352.217094 202.702222 
L 352.217094 218.88 
L 359.213959 218.88 
L 359.213959 218.88 
" clip-path="url(#p5d0b19cfe2)" style="fill: none; stroke: #ff7f0e; stroke-width: 1.5; stroke-linecap: square"/>
   </g>
   <g id="line2d_15">
    <path d="M 93.333082 218.88 
L 107.326812 218.88 
L 107.326812 215.561481 
L 110.825245 215.561481 
L 110.825245 215.976296 
L 114.323677 215.976296 
L 114.323677 218.88 
L 121.320542 218.88 
L 121.320542 216.805926 
L 124.818975 216.805926 
L 124.818975 207.68 
L 128.317408 207.68 
L 128.317408 218.05037 
L 131.81584 218.05037 
L 131.81584 204.361481 
L 135.314273 204.361481 
L 135.314273 200.628148 
L 142.311138 200.628148 
L 142.311138 201.872593 
L 145.809571 201.872593 
L 145.809571 190.672593 
L 149.308003 190.672593 
L 149.308003 187.768889 
L 152.806436 187.768889 
L 152.806436 184.865185 
L 156.304868 184.865185 
L 156.304868 166.198519 
L 159.803301 166.198519 
L 159.803301 174.90963 
L 163.301734 174.90963 
L 163.301734 142.554074 
L 166.800166 142.554074 
L 166.800166 130.939259 
L 170.298599 130.939259 
L 170.298599 113.102222 
L 173.797031 113.102222 
L 173.797031 110.613333 
L 177.295464 110.613333 
L 177.295464 80.331852 
L 180.793897 80.331852 
L 180.793897 102.731852 
L 184.292329 102.731852 
L 184.292329 52.124444 
L 187.790762 52.124444 
L 187.790762 52.539259 
L 191.289194 52.539259 
L 191.289194 56.272593 
L 194.787627 56.272593 
L 194.787627 24.746667 
L 198.28606 24.746667 
L 198.28606 76.598519 
L 201.784492 76.598519 
L 201.784492 44.657778 
L 205.282925 44.657778 
L 205.282925 40.094815 
L 208.781357 40.094815 
L 208.781357 65.398519 
L 212.27979 65.398519 
L 212.27979 55.442963 
L 215.778223 55.442963 
L 215.778223 37.191111 
L 219.276655 37.191111 
L 219.276655 48.391111 
L 222.775088 48.391111 
L 222.775088 88.628148 
L 226.27352 88.628148 
L 226.27352 68.302222 
L 229.771953 68.302222 
L 229.771953 51.294815 
L 233.270386 51.294815 
L 233.270386 88.628148 
L 236.768818 88.628148 
L 236.768818 69.961481 
L 240.267251 69.961481 
L 240.267251 33.457778 
L 243.765683 33.457778 
L 243.765683 101.902222 
L 247.264116 101.902222 
L 247.264116 80.331852 
L 250.762549 80.331852 
L 250.762549 82.820741 
L 254.260981 82.820741 
L 254.260981 102.731852 
L 257.759414 102.731852 
L 257.759414 94.435556 
L 261.257846 94.435556 
L 261.257846 75.354074 
L 264.756279 75.354074 
L 264.756279 94.020741 
L 268.254712 94.020741 
L 268.254712 86.139259 
L 271.753144 86.139259 
L 271.753144 82.820741 
L 275.251577 82.820741 
L 275.251577 100.242963 
L 278.75001 100.242963 
L 278.75001 107.70963 
L 282.248442 107.70963 
L 282.248442 94.435556 
L 285.746875 94.435556 
L 285.746875 105.220741 
L 289.245307 105.220741 
L 289.245307 104.391111 
L 292.74374 104.391111 
L 292.74374 97.339259 
L 296.242173 97.339259 
L 296.242173 118.08 
L 299.740605 118.08 
L 299.740605 111.028148 
L 303.239038 111.028148 
L 303.239038 112.687407 
L 306.73747 112.687407 
L 306.73747 118.08 
L 310.235903 118.08 
L 310.235903 134.257778 
L 313.734336 134.257778 
L 313.734336 145.457778 
L 317.232768 145.457778 
L 317.232768 117.25037 
L 320.731201 117.25037 
L 320.731201 150.020741 
L 324.229633 150.020741 
L 324.229633 154.168889 
L 327.728066 154.168889 
L 327.728066 150.020741 
L 331.226499 150.020741 
L 331.226499 152.924444 
L 334.724931 152.924444 
L 334.724931 176.568889 
L 338.223364 176.568889 
L 338.223364 174.494815 
L 341.721796 174.494815 
L 341.721796 190.257778 
L 345.220229 190.257778 
L 345.220229 192.746667 
L 348.718662 192.746667 
L 348.718662 204.361481 
L 352.217094 204.361481 
L 352.217094 211.828148 
L 355.715527 211.828148 
L 355.715527 218.88 
L 359.213959 218.88 
L 359.213959 218.88 
" clip-path="url(#p5d0b19cfe2)" style="fill: none; stroke: #2ca02c; stroke-width: 1.5; stroke-linecap: square"/>
   </g>
   <g id="line2d_16">
    <path d="M 93.333082 218.88 
L 110.825245 218.88 
L 110.825245 216.391111 
L 114.323677 216.391111 
L 114.323677 218.88 
L 121.320542 218.88 
L 121.320542 215.976296 
L 124.818975 215.976296 
L 124.818975 205.191111 
L 128.317408 205.191111 
L 128.317408 208.924444 
L 131.81584 208.924444 
L 131.81584 211.413333 
L 135.314273 211.413333 
L 135.314273 204.361481 
L 142.311138 204.361481 
L 142.311138 197.30963 
L 145.809571 197.30963 
L 145.809571 187.768889 
L 149.308003 187.768889 
L 149.308003 189.013333 
L 152.806436 189.013333 
L 152.806436 187.354074 
L 156.304868 187.354074 
L 156.304868 167.857778 
L 159.803301 167.857778 
L 159.803301 173.25037 
L 163.301734 173.25037 
L 163.301734 134.257778 
L 166.800166 134.257778 
L 166.800166 131.354074 
L 170.298599 131.354074 
L 170.298599 124.717037 
L 173.797031 124.717037 
L 173.797031 104.391111 
L 177.295464 104.391111 
L 177.295464 89.457778 
L 180.793897 89.457778 
L 180.793897 94.435556 
L 184.292329 94.435556 
L 184.292329 55.857778 
L 187.790762 55.857778 
L 187.790762 47.561481 
L 191.289194 47.561481 
L 191.289194 50.465185 
L 194.787627 50.465185 
L 194.787627 39.265185 
L 198.28606 39.265185 
L 198.28606 64.568889 
L 201.784492 64.568889 
L 201.784492 46.731852 
L 205.282925 46.731852 
L 205.282925 42.998519 
L 208.781357 42.998519 
L 208.781357 67.887407 
L 212.27979 67.887407 
L 212.27979 42.168889 
L 215.778223 42.168889 
L 215.778223 46.317037 
L 219.276655 46.317037 
L 219.276655 67.887407 
L 222.775088 67.887407 
L 222.775088 56.272593 
L 226.27352 56.272593 
L 226.27352 75.768889 
L 229.771953 75.768889 
L 229.771953 55.028148 
L 233.270386 55.028148 
L 233.270386 93.191111 
L 236.768818 93.191111 
L 236.768818 62.494815 
L 240.267251 62.494815 
L 240.267251 54.198519 
L 243.765683 54.198519 
L 243.765683 87.383704 
L 247.264116 87.383704 
L 247.264116 79.502222 
L 250.762549 79.502222 
L 250.762549 86.139259 
L 254.260981 86.139259 
L 254.260981 101.902222 
L 257.759414 101.902222 
L 257.759414 85.30963 
L 261.257846 85.30963 
L 261.257846 75.768889 
L 264.756279 75.768889 
L 264.756279 100.242963 
L 268.254712 100.242963 
L 268.254712 92.776296 
L 271.753144 92.776296 
L 271.753144 81.576296 
L 275.251577 81.576296 
L 275.251577 101.072593 
L 278.75001 101.072593 
L 278.75001 106.05037 
L 282.248442 106.05037 
L 282.248442 91.117037 
L 285.746875 91.117037 
L 285.746875 98.583704 
L 289.245307 98.583704 
L 289.245307 109.783704 
L 292.74374 109.783704 
L 292.74374 104.391111 
L 296.242173 104.391111 
L 296.242173 110.613333 
L 299.740605 110.613333 
L 299.740605 108.124444 
L 303.239038 108.124444 
L 303.239038 118.90963 
L 306.73747 118.90963 
L 306.73747 116.005926 
L 310.235903 116.005926 
L 310.235903 128.865185 
L 313.734336 128.865185 
L 313.734336 147.117037 
L 317.232768 147.117037 
L 317.232768 125.961481 
L 320.731201 125.961481 
L 320.731201 147.531852 
L 324.229633 147.531852 
L 324.229633 153.754074 
L 327.728066 153.754074 
L 327.728066 143.798519 
L 331.226499 143.798519 
L 331.226499 158.731852 
L 334.724931 158.731852 
L 334.724931 176.983704 
L 338.223364 176.983704 
L 338.223364 176.154074 
L 341.721796 176.154074 
L 341.721796 189.428148 
L 345.220229 189.428148 
L 345.220229 198.968889 
L 348.718662 198.968889 
L 348.718662 218.88 
L 352.217094 218.88 
L 352.217094 218.465185 
L 355.715527 218.465185 
L 355.715527 216.391111 
L 359.213959 216.391111 
L 359.213959 216.391111 
" clip-path="url(#p5d0b19cfe2)" style="fill: none; stroke: #d62728; stroke-width: 1.5; stroke-linecap: square"/>
   </g>
   <g id="line2d_17">
    <path d="M 62.183807 218.05037 
L 65.682239 218.05037 
L 65.682239 218.88 
L 69.180672 218.88 
L 69.180672 218.05037 
L 76.177537 218.05037 
L 76.177537 217.635556 
L 79.67597 217.635556 
L 79.67597 217.220741 
L 83.174402 217.220741 
L 83.174402 217.635556 
L 86.672835 217.635556 
L 86.672835 218.05037 
L 90.171268 218.05037 
L 90.171268 216.805926 
L 93.6697 216.805926 
L 93.6697 215.976296 
L 97.168133 215.976296 
L 97.168133 217.220741 
L 100.666565 217.220741 
L 100.666565 216.391111 
L 104.164998 216.391111 
L 104.164998 214.317037 
L 107.663431 214.317037 
L 107.663431 215.561481 
L 111.161863 215.561481 
L 111.161863 213.487407 
L 114.660296 213.487407 
L 114.660296 214.731852 
L 118.158728 214.731852 
L 118.158728 210.998519 
L 121.657161 210.998519 
L 121.657161 212.242963 
L 125.155594 212.242963 
L 125.155594 206.435556 
L 128.654026 206.435556 
L 128.654026 208.50963 
L 132.152459 208.50963 
L 132.152459 205.605926 
L 135.650891 205.605926 
L 135.650891 199.798519 
L 142.647757 199.798519 
L 142.647757 200.628148 
L 146.146189 200.628148 
L 146.146189 189.842963 
L 149.644622 189.842963 
L 149.644622 186.524444 
L 153.143054 186.524444 
L 153.143054 185.28 
L 156.641487 185.28 
L 156.641487 169.517037 
L 160.13992 169.517037 
L 160.13992 158.317037 
L 163.638352 158.317037 
L 163.638352 144.628148 
L 167.136785 144.628148 
L 167.136785 128.865185 
L 170.635217 128.865185 
L 170.635217 124.302222 
L 174.13365 124.302222 
L 174.13365 102.731852 
L 177.632083 102.731852 
L 177.632083 91.531852 
L 181.130515 91.531852 
L 181.130515 86.139259 
L 184.628948 86.139259 
L 184.628948 57.517037 
L 188.12738 57.517037 
L 188.12738 56.687407 
L 191.625813 56.687407 
L 191.625813 43.828148 
L 195.124246 43.828148 
L 195.124246 38.020741 
L 198.622678 38.020741 
L 198.622678 59.176296 
L 202.121111 59.176296 
L 202.121111 52.124444 
L 205.619543 52.124444 
L 205.619543 44.242963 
L 209.117976 44.242963 
L 209.117976 65.813333 
L 212.616409 65.813333 
L 212.616409 56.272593 
L 216.114841 56.272593 
L 216.114841 52.954074 
L 219.613274 52.954074 
L 219.613274 45.487407 
L 223.111707 45.487407 
L 223.111707 63.739259 
L 226.610139 63.739259 
L 226.610139 77.842963 
L 230.108572 77.842963 
L 230.108572 61.25037 
L 233.607004 61.25037 
L 233.607004 82.820741 
L 237.105437 82.820741 
L 237.105437 63.739259 
L 240.60387 63.739259 
L 240.60387 57.517037 
L 244.102302 57.517037 
L 244.102302 81.161481 
L 251.099167 81.161481 
L 251.099167 94.435556 
L 254.5976 94.435556 
L 254.5976 83.65037 
L 258.096033 83.65037 
L 258.096033 94.435556 
L 261.594465 94.435556 
L 261.594465 86.554074 
L 265.092898 86.554074 
L 265.092898 86.139259 
L 268.59133 86.139259 
L 268.59133 95.68 
L 272.089763 95.68 
L 272.089763 89.872593 
L 275.588196 89.872593 
L 275.588196 92.776296 
L 279.086628 92.776296 
L 279.086628 103.976296 
L 282.585061 103.976296 
L 282.585061 86.968889 
L 286.083493 86.968889 
L 286.083493 110.613333 
L 289.581926 110.613333 
L 289.581926 100.657778 
L 293.080359 100.657778 
L 293.080359 110.198519 
L 296.578791 110.198519 
L 296.578791 112.272593 
L 300.077224 112.272593 
L 300.077224 113.102222 
L 303.575656 113.102222 
L 303.575656 112.687407 
L 307.074089 112.687407 
L 307.074089 124.717037 
L 310.572522 124.717037 
L 310.572522 133.428148 
L 314.070954 133.428148 
L 314.070954 125.546667 
L 317.569387 125.546667 
L 317.569387 140.894815 
L 321.067819 140.894815 
L 321.067819 142.139259 
L 324.566252 142.139259 
L 324.566252 155.413333 
L 328.064685 155.413333 
L 328.064685 147.531852 
L 331.563117 147.531852 
L 331.563117 162.88 
L 335.06155 162.88 
L 335.06155 167.442963 
L 338.559982 167.442963 
L 338.559982 183.205926 
L 342.058415 183.205926 
L 342.058415 189.013333 
L 345.556848 189.013333 
L 345.556848 197.30963 
L 349.05528 197.30963 
L 349.05528 202.702222 
L 352.553713 202.702222 
L 352.553713 207.265185 
L 356.052145 207.265185 
L 356.052145 214.731852 
L 359.550578 214.731852 
L 359.550578 213.487407 
L 363.049011 213.487407 
L 363.049011 217.220741 
L 366.547443 217.220741 
L 366.547443 217.220741 
" clip-path="url(#p5d0b19cfe2)" style="fill: none; stroke: #9467bd; stroke-width: 1.5; stroke-linecap: square"/>
   </g>
   <g id="patch_3">
    <path d="M 46.965625 228.96 
L 46.965625 7.2 
" style="fill: none; stroke: #000000; stroke-width: 0.8; stroke-linejoin: miter; stroke-linecap: square"/>
   </g>
   <g id="patch_4">
    <path d="M 381.765625 228.96 
L 381.765625 7.2 
" style="fill: none; stroke: #000000; stroke-width: 0.8; stroke-linejoin: miter; stroke-linecap: square"/>
   </g>
   <g id="patch_5">
    <path d="M 46.965625 228.96 
L 381.765625 228.96 
" style="fill: none; stroke: #000000; stroke-width: 0.8; stroke-linejoin: miter; stroke-linecap: square"/>
   </g>
   <g id="patch_6">
    <path d="M 46.965625 7.2 
L 381.765625 7.2 
" style="fill: none; stroke: #000000; stroke-width: 0.8; stroke-linejoin: miter; stroke-linecap: square"/>
   </g>
   <g id="legend_1">
    <g id="patch_7">
     <path d="M 53.965625 88.590625 
L 128.189063 88.590625 
Q 130.189063 88.590625 130.189063 86.590625 
L 130.189063 14.2 
Q 130.189063 12.2 128.189063 12.2 
L 53.965625 12.2 
Q 51.965625 12.2 51.965625 14.2 
L 51.965625 86.590625 
Q 51.965625 88.590625 53.965625 88.590625 
z
" style="fill: #ffffff; opacity: 0.8; stroke: #cccccc; stroke-linejoin: miter"/>
    </g>
    <g id="line2d_18">
     <path d="M 55.965625 20.298437 
L 55.965625 20.298437 
L 65.965625 20.298437 
L 65.965625 20.298437 
L 75.965625 20.298437 
" style="fill: none; stroke: #1f77b4; stroke-width: 1.5; stroke-linecap: square"/>
    </g>
    <g id="text_15">
     <!-- beam -->
     <g transform="translate(83.965625 23.798437) scale(0.1 -0.1)">
      <defs>
       <path id="DejaVuSans-62" d="M 3116 1747 
Q 3116 2381 2855 2742 
Q 2594 3103 2138 3103 
Q 1681 3103 1420 2742 
Q 1159 2381 1159 1747 
Q 1159 1113 1420 752 
Q 1681 391 2138 391 
Q 2594 391 2855 752 
Q 3116 1113 3116 1747 
z
M 1159 2969 
Q 1341 3281 1617 3432 
Q 1894 3584 2278 3584 
Q 2916 3584 3314 3078 
Q 3713 2572 3713 1747 
Q 3713 922 3314 415 
Q 2916 -91 2278 -91 
Q 1894 -91 1617 61 
Q 1341 213 1159 525 
L 1159 0 
L 581 0 
L 581 4863 
L 1159 4863 
L 1159 2969 
z
" transform="scale(0.015625)"/>
       <path id="DejaVuSans-6d" d="M 3328 2828 
Q 3544 3216 3844 3400 
Q 4144 3584 4550 3584 
Q 5097 3584 5394 3201 
Q 5691 2819 5691 2113 
L 5691 0 
L 5113 0 
L 5113 2094 
Q 5113 2597 4934 2840 
Q 4756 3084 4391 3084 
Q 3944 3084 3684 2787 
Q 3425 2491 3425 1978 
L 3425 0 
L 2847 0 
L 2847 2094 
Q 2847 2600 2669 2842 
Q 2491 3084 2119 3084 
Q 1678 3084 1418 2786 
Q 1159 2488 1159 1978 
L 1159 0 
L 581 0 
L 581 3500 
L 1159 3500 
L 1159 2956 
Q 1356 3278 1631 3431 
Q 1906 3584 2284 3584 
Q 2666 3584 2933 3390 
Q 3200 3197 3328 2828 
z
" transform="scale(0.015625)"/>
      </defs>
      <use xlink:href="#DejaVuSans-62"/>
      <use xlink:href="#DejaVuSans-65" transform="translate(63.476562 0)"/>
      <use xlink:href="#DejaVuSans-61" transform="translate(125 0)"/>
      <use xlink:href="#DejaVuSans-6d" transform="translate(186.279297 0)"/>
     </g>
    </g>
    <g id="line2d_19">
     <path d="M 55.965625 34.976562 
L 55.965625 34.976562 
L 65.965625 34.976562 
L 65.965625 34.976562 
L 75.965625 34.976562 
" style="fill: none; stroke: #ff7f0e; stroke-width: 1.5; stroke-linecap: square"/>
    </g>
    <g id="text_16">
     <!-- sample -->
     <g transform="translate(83.965625 38.476562) scale(0.1 -0.1)">
      <defs>
       <path id="DejaVuSans-70" d="M 1159 525 
L 1159 -1331 
L 581 -1331 
L 581 3500 
L 1159 3500 
L 1159 2969 
Q 1341 3281 1617 3432 
Q 1894 3584 2278 3584 
Q 2916 3584 3314 3078 
Q 3713 2572 3713 1747 
Q 3713 922 3314 415 
Q 2916 -91 2278 -91 
Q 1894 -91 1617 61 
Q 1341 213 1159 525 
z
M 3116 1747 
Q 3116 2381 2855 2742 
Q 2594 3103 2138 3103 
Q 1681 3103 1420 2742 
Q 1159 2381 1159 1747 
Q 1159 1113 1420 752 
Q 1681 391 2138 391 
Q 2594 391 2855 752 
Q 3116 1113 3116 1747 
z
" transform="scale(0.015625)"/>
      </defs>
      <use xlink:href="#DejaVuSans-73"/>
      <use xlink:href="#DejaVuSans-61" transform="translate(52.099609 0)"/>
      <use xlink:href="#DejaVuSans-6d" transform="translate(113.378906 0)"/>
      <use xlink:href="#DejaVuSans-70" transform="translate(210.791016 0)"/>
      <use xlink:href="#DejaVuSans-6c" transform="translate(274.267578 0)"/>
      <use xlink:href="#DejaVuSans-65" transform="translate(302.050781 0)"/>
     </g>
    </g>
    <g id="line2d_20">
     <path d="M 55.965625 49.654687 
L 55.965625 49.654687 
L 65.965625 49.654687 
L 65.965625 49.654687 
L 75.965625 49.654687 
" style="fill: none; stroke: #2ca02c; stroke-width: 1.5; stroke-linecap: square"/>
    </g>
    <g id="text_17">
     <!-- monitor -->
     <g transform="translate(83.965625 53.154687) scale(0.1 -0.1)">
      <defs>
       <path id="DejaVuSans-69" d="M 603 3500 
L 1178 3500 
L 1178 0 
L 603 0 
L 603 3500 
z
M 603 4863 
L 1178 4863 
L 1178 4134 
L 603 4134 
L 603 4863 
z
" transform="scale(0.015625)"/>
       <path id="DejaVuSans-72" d="M 2631 2963 
Q 2534 3019 2420 3045 
Q 2306 3072 2169 3072 
Q 1681 3072 1420 2755 
Q 1159 2438 1159 1844 
L 1159 0 
L 581 0 
L 581 3500 
L 1159 3500 
L 1159 2956 
Q 1341 3275 1631 3429 
Q 1922 3584 2338 3584 
Q 2397 3584 2469 3576 
Q 2541 3569 2628 3553 
L 2631 2963 
z
" transform="scale(0.015625)"/>
      </defs>
      <use xlink:href="#DejaVuSans-6d"/>
      <use xlink:href="#DejaVuSans-6f" transform="translate(97.412109 0)"/>
      <use xlink:href="#DejaVuSans-6e" transform="translate(158.59375 0)"/>
      <use xlink:href="#DejaVuSans-69" transform="translate(221.972656 0)"/>
      <use xlink:href="#DejaVuSans-74" transform="translate(249.755859 0)"/>
      <use xlink:href="#DejaVuSans-6f" transform="translate(288.964844 0)"/>
      <use xlink:href="#DejaVuSans-72" transform="translate(350.146484 0)"/>
     </g>
    </g>
    <g id="line2d_21">
     <path d="M 55.965625 64.332812 
L 55.965625 64.332812 
L 65.965625 64.332812 
L 65.965625 64.332812 
L 75.965625 64.332812 
" style="fill: none; stroke: #d62728; stroke-width: 1.5; stroke-linecap: square"/>
    </g>
    <g id="text_18">
     <!-- detector -->
     <g transform="translate(83.965625 67.832812) scale(0.1 -0.1)">
      <defs>
       <path id="DejaVuSans-64" d="M 2906 2969 
L 2906 4863 
L 3481 4863 
L 3481 0 
L 2906 0 
L 2906 525 
Q 2725 213 2448 61 
Q 2172 -91 1784 -91 
Q 1150 -91 751 415 
Q 353 922 353 1747 
Q 353 2572 751 3078 
Q 1150 3584 1784 3584 
Q 2172 3584 2448 3432 
Q 2725 3281 2906 2969 
z
M 947 1747 
Q 947 1113 1208 752 
Q 1469 391 1925 391 
Q 2381 391 2643 752 
Q 2906 1113 2906 1747 
Q 2906 2381 2643 2742 
Q 2381 3103 1925 3103 
Q 1469 3103 1208 2742 
Q 947 2381 947 1747 
z
" transform="scale(0.015625)"/>
      </defs>
      <use xlink:href="#DejaVuSans-64"/>
      <use xlink:href="#DejaVuSans-65" transform="translate(63.476562 0)"/>
      <use xlink:href="#DejaVuSans-74" transform="translate(125 0)"/>
      <use xlink:href="#DejaVuSans-65" transform="translate(164.208984 0)"/>
      <use xlink:href="#DejaVuSans-63" transform="translate(225.732422 0)"/>
      <use xlink:href="#DejaVuSans-74" transform="translate(280.712891 0)"/>
      <use xlink:href="#DejaVuSans-6f" transform="translate(319.921875 0)"/>
      <use xlink:href="#DejaVuSans-72" transform="translate(381.103516 0)"/>
     </g>
    </g>
    <g id="line2d_22">
     <path d="M 55.965625 79.010937 
L 55.965625 79.010937 
L 65.965625 79.010937 
L 65.965625 79.010937 
L 75.965625 79.010937 
" style="fill: none; stroke: #9467bd; stroke-width: 1.5; stroke-linecap: square"/>
    </g>
    <g id="text_19">
     <!-- true -->
     <g transform="translate(83.965625 82.510937) scale(0.1 -0.1)">
      <use xlink:href="#DejaVuSans-74"/>
      <use xlink:href="#DejaVuSans-72" transform="translate(39.208984 0)"/>
      <use xlink:href="#DejaVuSans-75" transform="translate(80.322266 0)"/>
      <use xlink:href="#DejaVuSans-65" transform="translate(143.701172 0)"/>
     </g>
    </g>
   </g>
  </g>
 </g>
 <defs>
  <clipPath id="p5d0b19cfe2">
   <rect x="46.965625" y="7.2" width="334.8" height="221.76"/>
  </clipPath>
 </defs>
</svg>
