<?xml version="1.0" encoding="UTF-8" standalone="no"?>
<!-- Created with Inkscape (http://www.inkscape.org/) -->

<svg
   width="187.52904mm"
   height="41.931965mm"
   viewBox="0 0 187.52905 41.931965"
   version="1.1"
   id="svg8"
   inkscape:version="1.3 (1:1.3+202307231459+0e150ed6c4)"
   sodipodi:docname="logo-text.svg"
   inkscape:export-filename="logo-dark.svg"
   inkscape:export-xdpi="96"
   inkscape:export-ydpi="96"
   xmlns:inkscape="http://www.inkscape.org/namespaces/inkscape"
   xmlns:sodipodi="http://sodipodi.sourceforge.net/DTD/sodipodi-0.dtd"
   xmlns="http://www.w3.org/2000/svg"
   xmlns:svg="http://www.w3.org/2000/svg"
   xmlns:rdf="http://www.w3.org/1999/02/22-rdf-syntax-ns#"
   xmlns:cc="http://creativecommons.org/ns#"
   xmlns:dc="http://purl.org/dc/elements/1.1/">
  <defs
     id="defs2">
    <inkscape:path-effect
       effect="fillet_chamfer"
       id="path-effect889"
       is_visible="true"
       lpeversion="1"
       satellites_param="F,0,0,1,0,0.52916667,0,1 @ F,0,0,1,0,0.52916667,0,1 @ F,0,0,1,0,0.52916667,0,1 @ F,0,0,1,0,0.52916667,0,1 @ F,0,0,1,0,0.52916667,0,1 @ F,0,0,1,0,0.52916667,0,1 @ F,0,0,1,0,0.52916667,0,1 @ F,0,0,1,0,0.52916667,0,1 @ F,0,0,1,0,0.52916667,0,1 @ F,0,0,1,0,0.52916667,0,1 @ F,0,0,1,0,0.52916667,0,1 @ F,0,0,1,0,0.52916667,0,1 @ F,0,0,1,0,0.52916667,0,1 @ F,0,0,1,0,0.52916667,0,1 @ F,0,0,1,0,0.52916667,0,1 @ F,0,0,1,0,0.52916667,0,1 @ F,0,0,1,0,0.52916667,0,1 @ F,0,0,1,0,0.52916667,0,1 @ F,0,0,1,0,0.52916667,0,1 @ F,0,0,1,0,0.52916667,0,1 | F,0,0,1,0,0.52916667,0,1 @ F,0,0,1,0,0.52916667,0,1 @ F,0,0,1,0,0.52916667,0,1 @ F,0,0,1,0,0.52916667,0,1 @ F,0,0,1,0,0.52916667,0,1 @ F,0,0,1,0,0.52916667,0,1 | F,0,0,1,0,0.52916667,0,1 @ F,0,0,1,0,0.52916667,0,1 @ F,0,0,1,0,0.52916667,0,1 @ F,0,0,1,0,0.52916667,0,1 @ F,0,0,1,0,0.52916667,0,1 @ F,0,0,1,0,0.52916667,0,1 @ F,0,0,1,0,0.52916667,0,1 @ F,0,0,1,0,0.52916667,0,1 @ F,0,0,1,0,0.52916667,0,1 @ F,0,0,1,0,0.52916667,0,1 @ F,0,0,1,0,0.52916667,0,1 @ F,0,0,1,0,0.52916667,0,1 @ F,0,0,1,0,0.52916667,0,1 @ F,0,0,1,0,0.52916667,0,1 @ F,0,0,1,0,0.52916667,0,1 @ F,0,0,1,0,0.52916667,0,1 @ F,0,0,1,0,0.52916667,0,1 @ F,0,0,1,0,0.52916667,0,1 @ F,0,0,1,0,0.52916667,0,1 @ F,0,0,1,0,0.52916667,0,1 @ F,0,0,1,0,0.52916667,0,1 @ F,0,0,1,0,0.52916667,0,1 @ F,0,0,1,0,0.52916667,0,1 @ F,0,0,1,0,0.52916667,0,1 @ F,0,0,1,0,0.52916667,0,1 | F,0,0,1,0,0.52916667,0,1 @ F,0,0,1,0,0.52916667,0,1 @ F,0,0,1,0,0.52916667,0,1 @ F,0,0,1,0,0.52916667,0,1 @ F,0,0,1,0,0.52916667,0,1 @ F,0,0,1,0,0.52916667,0,1 @ F,0,0,1,0,0.52916667,0,1 @ F,0,0,1,0,0.52916667,0,1 @ F,0,0,1,0,0.52916667,0,1 @ F,0,0,1,0,0.52916667,0,1 @ F,0,0,1,0,0.52916667,0,1 @ F,0,0,1,0,0.52916667,0,1 @ F,0,0,1,0,0.52916667,0,1 @ F,0,0,1,0,0.52916667,0,1 @ F,0,0,1,0,0.52916667,0,1 @ F,0,0,1,0,0.52916667,0,1 | F,0,0,1,0,0.52916667,0,1 @ F,0,0,1,0,0.52916667,0,1 @ F,0,0,1,0,0.52916667,0,1 @ F,0,0,1,0,0.52916667,0,1 @ F,0,0,1,0,0.52916667,0,1 @ F,0,0,1,0,0.52916667,0,1 | F,0,0,1,0,0.52916667,0,1 @ F,0,0,1,0,0.52916667,0,1 @ F,0,0,1,0,0.52916667,0,1 @ F,0,0,1,0,0.52916667,0,1 @ F,0,0,1,0,0.52916667,0,1 @ F,0,0,1,0,0.52916667,0,1"
       unit="px"
       method="auto"
       mode="F"
       radius="2"
       chamfer_steps="1"
       flexible="false"
       use_knot_distance="true"
       apply_no_radius="true"
       apply_with_radius="true"
       only_selected="false"
       hide_knots="false"
       nodesatellites_param="F,0,0,1,0,0.52916667,0,1 @ F,0,0,1,0,0.52916667,0,1 @ F,0,0,1,0,0.52916667,0,1 @ F,0,0,1,0,0.52916667,0,1 @ F,0,0,1,0,0.52916667,0,1 @ F,0,0,1,0,0.52916667,0,1 @ F,0,0,1,0,0.52916667,0,1 @ F,0,0,1,0,0.52916667,0,1 @ F,0,0,1,0,0.52916667,0,1 @ F,0,0,1,0,0.52916667,0,1 @ F,0,0,1,0,0.52916667,0,1 @ F,0,0,1,0,0.52916667,0,1 @ F,0,0,1,0,0.52916667,0,1 @ F,0,0,1,0,0.52916667,0,1 @ F,0,0,1,0,0.52916667,0,1 @ F,0,0,1,0,0.52916667,0,1 @ F,0,0,1,0,0.52916667,0,1 @ F,0,0,1,0,0.52916667,0,1 @ F,0,0,1,0,0.52916667,0,1 @ F,0,0,1,0,0.52916667,0,1 | F,0,0,1,0,0.52916667,0,1 @ F,0,0,1,0,0.52916667,0,1 @ F,0,0,1,0,0.52916667,0,1 @ F,0,0,1,0,0.52916667,0,1 @ F,0,0,1,0,0.52916667,0,1 @ F,0,0,1,0,0.52916667,0,1 | F,0,0,1,0,0.52916667,0,1 @ F,0,0,1,0,0.52916667,0,1 @ F,0,0,1,0,0.52916667,0,1 @ F,0,0,1,0,0.52916667,0,1 @ F,0,0,1,0,0.52916667,0,1 @ F,0,0,1,0,0.52916667,0,1 @ F,0,0,1,0,0.52916667,0,1 @ F,0,0,1,0,0.52916667,0,1 @ F,0,0,1,0,0.52916667,0,1 @ F,0,0,1,0,0.52916667,0,1 @ F,0,0,1,0,0.52916667,0,1 @ F,0,0,1,0,0.52916667,0,1 @ F,0,0,1,0,0.52916667,0,1 @ F,0,0,1,0,0.52916667,0,1 @ F,0,0,1,0,0.52916667,0,1 @ F,0,0,1,0,0.52916667,0,1 @ F,0,0,1,0,0.52916667,0,1 @ F,0,0,1,0,0.52916667,0,1 @ F,0,0,1,0,0.52916667,0,1 @ F,0,0,1,0,0.52916667,0,1 @ F,0,0,1,0,0.52916667,0,1 @ F,0,0,1,0,0.52916667,0,1 @ F,0,0,1,0,0.52916667,0,1 @ F,0,0,1,0,0.52916667,0,1 @ F,0,0,1,0,0.52916667,0,1 | F,0,0,1,0,0.52916667,0,1 @ F,0,0,1,0,0.52916667,0,1 @ F,0,0,1,0,0.52916667,0,1 @ F,0,0,1,0,0.52916667,0,1 @ F,0,0,1,0,0.52916667,0,1 @ F,0,0,1,0,0.52916667,0,1 @ F,0,0,1,0,0.52916667,0,1 @ F,0,0,1,0,0.52916667,0,1 @ F,0,0,1,0,0.52916667,0,1 @ F,0,0,1,0,0.52916667,0,1 @ F,0,0,1,0,0.52916667,0,1 @ F,0,0,1,0,0.52916667,0,1 @ F,0,0,1,0,0.52916667,0,1 @ F,0,0,1,0,0.52916667,0,1 @ F,0,0,1,0,0.52916667,0,1 @ F,0,0,1,0,0.52916667,0,1 | F,0,0,1,0,0.52916667,0,1 @ F,0,0,1,0,0.52916667,0,1 @ F,0,0,1,0,0.52916667,0,1 @ F,0,0,1,0,0.52916667,0,1 @ F,0,0,1,0,0.52916667,0,1 @ F,0,0,1,0,0.52916667,0,1 | F,0,0,1,0,0.52916667,0,1 @ F,0,0,1,0,0.52916667,0,1 @ F,0,0,1,0,0.52916667,0,1 @ F,0,0,1,0,0.52916667,0,1 @ F,0,0,1,0,0.52916667,0,1 @ F,0,0,1,0,0.52916667,0,1" />
    <inkscape:path-effect
       effect="offset"
       id="path-effect972"
       is_visible="true"
       lpeversion="1.2"
       linejoin_type="miter"
       unit="mm"
       offset="0.2"
       miter_limit="4"
       attempt_force_join="false"
       update_on_knot_move="true" />
  </defs>
  <sodipodi:namedview
     id="base"
     pagecolor="#ffffff"
     bordercolor="#666666"
     borderopacity="1.0"
     inkscape:pageopacity="0.0"
     inkscape:pageshadow="2"
     inkscape:zoom="0.98428988"
     inkscape:cx="332.72718"
     inkscape:cy="323.07556"
     inkscape:document-units="mm"
     inkscape:current-layer="layer1"
     showgrid="true"
     showguides="true"
     inkscape:guide-bbox="true"
     inkscape:window-width="1933"
     inkscape:window-height="1376"
     inkscape:window-x="70"
     inkscape:window-y="27"
     inkscape:window-maximized="0"
     inkscape:snap-global="true"
     inkscape:snap-bbox="true"
     inkscape:snap-bbox-midpoints="false"
     inkscape:pagecheckerboard="0"
     inkscape:bbox-nodes="true"
     inkscape:snap-intersection-paths="true"
     inkscape:object-paths="true"
     inkscape:snap-bbox-edge-midpoints="true"
     inkscape:showpageshadow="2"
     inkscape:deskcolor="#d1d1d1">
    <inkscape:grid
       type="axonomgrid"
       id="grid815"
       units="mm"
       empspacing="12"
       spacingy="1"
       originx="-25.582033"
       originy="-19.562769"
       gridanglex="30"
       gridanglez="30"
       visible="true" />
    <sodipodi:guide
       position="1082.9305,-1531.3453"
       orientation="0,1"
       id="guide37689"
       inkscape:locked="false" />
    <sodipodi:guide
       position="1082.9305,-1579.3453"
       orientation="0,1"
       id="guide37691"
       inkscape:locked="false" />
    <sodipodi:guide
       position="1082.9305,-1543.3453"
       orientation="0,1"
       id="guide37693"
       inkscape:locked="false" />
    <sodipodi:guide
       position="1082.9305,-1567.3453"
       orientation="0,1"
       id="guide37695"
       inkscape:locked="false" />
    <sodipodi:guide
       position="-13.457676,10.39899"
       orientation="0,-1"
       id="guide894"
       inkscape:locked="false" />
    <sodipodi:guide
       position="9.9250099,31.89899"
       orientation="0,-1"
       id="guide896"
       inkscape:locked="false" />
  </sodipodi:namedview>
  <metadata
     id="metadata5">
    <rdf:RDF>
      <cc:Work
         rdf:about="">
        <dc:format>image/svg+xml</dc:format>
        <dc:type
           rdf:resource="http://purl.org/dc/dcmitype/StillImage" />
      </cc:Work>
    </rdf:RDF>
  </metadata>
  <g
     inkscape:label="Layer 1"
     inkscape:groupmode="layer"
     id="layer1"
     transform="translate(-25.582031,-19.221566)">
    <path
       id="path968"
       style="fill:#ffffff;fill-opacity:1;fill-rule:evenodd;stroke:none;stroke-width:0.0700042px;stroke-linecap:butt;stroke-linejoin:miter;stroke-opacity:1"
       d="m 43.508533,19.221628 -6.011206,3.470806 a 0.91643847,0.91643847 0.00116589 0 1 -0.916518,-1.8e-5 L 34.89966,21.721647 a 0.91627133,0.91627133 179.99664 0 0 -0.916476,5.3e-5 l -2.745665,1.585896 a 0.91674179,0.91674179 119.99463 0 0 -0.458222,0.793836 v 1.939714 a 0.9167437,0.9167437 119.99458 0 1 -0.458222,0.793836 l -4.280822,2.472614 a 0.9167437,0.9167437 119.99458 0 0 -0.458222,0.793836 l 0,18.056901 v 2.115235 a 0.91692054,0.91692054 60.010201 0 0 0.458178,0.793913 l 0.915676,0.529101 a 2288.1291,2288.1291 30.007152 0 0 0.916477,0.529281 l 1.979885,1.142806 a 0.30555207,0.30555207 149.99695 0 0 0.4583,-0.264633 v -1.402604 a 0.91721457,0.91721457 60.018154 0 0 -0.458104,-0.79404 l -1.681448,-0.972206 a 0.91721457,0.91721457 60.018154 0 1 -0.458104,-0.79404 V 31.333854 a 0.91688292,0.91688292 119.99082 0 1 0.458187,-0.793897 l 3.214485,-1.857258 a 0.91613034,0.91613034 179.99282 0 1 0.91644,-1.15e-4 l 1.68115,0.970769 a 0.91651564,0.91651564 0.00325503 0 0 0.916537,5.2e-5 l 2.747495,-1.586107 a 0.9164974,0.9164974 120.00125 0 0 0.458284,-0.79373 v -1.939714 a 0.91690644,0.91690644 119.99018 0 1 0.458181,-0.793907 l 4.944966,-2.857238 a 0.9164511,0.9164511 179.98286 0 1 0.91652,-2.74e-4 l 1.682931,0.971067 a 0.91673325,0.91673325 179.9905 0 0 0.916591,-1.52e-4 l 1.214356,-0.701232 a 0.305504,0.305504 89.99478 0 0 -4.8e-5,-0.529153 l -3.813869,-2.201399 a 0.91662475,0.91662475 179.99612 0 0 -0.916564,6.2e-5 z m -8.609052,4.961265 0.617054,0.35687 a 0.91733246,0.91733246 60.021341 0 1 0.458074,0.794091 v 0.707292 a 0.91733246,0.91733246 119.97866 0 1 -0.458074,0.794091 l -0.617054,0.35687 a 0.9149688,0.9149688 0 0 1 -0.916149,0 l -0.617054,-0.35687 a 0.91733246,0.91733246 60.021341 0 1 -0.458075,-0.794091 v -0.707292 a 0.91733246,0.91733246 119.97866 0 1 0.458075,-0.794091 l 0.617054,-0.35687 a 0.9149688,0.9149688 180 0 1 0.916149,0 z m 17.27115,0.03871 -17.470168,10.086081 a 0.91652877,0.91652877 120.0004 0 0 -0.458276,0.793743 v 5.939714 a 0.91721457,0.91721457 119.98185 0 1 -0.458104,0.79404 l -1.681448,0.972206 a 0.91721457,0.91721457 119.98185 0 0 -0.458104,0.79404 v 3.172136 a 0.91721457,0.91721457 60.018154 0 0 0.458104,0.79404 l 1.681448,0.972206 a 0.91721457,0.91721457 60.018154 0 1 0.458104,0.79404 v 5.939714 a 0.91692054,0.91692054 60.010201 0 0 0.458178,0.793913 l 0.915676,0.529101 a 2863.9272,2863.9272 30.009816 0 0 0.916453,0.529323 l 6.976028,4.027487 a 0.91689704,0.91689704 0.00879516 0 0 0.916631,1.4e-4 l 0.149694,-0.08636 a 0.91620451,0.91620451 120.00918 0 0 0.458356,-0.793603 V 41.333854 A 0.91676155,0.91676155 119.9941 0 1 45.49142,40.54001 l 5.612863,-3.242129 A 0.30544187,0.30544187 29.9941 0 1 51.5625,37.56237 v 18.941666 a 0.30548764,0.30548764 29.997817 0 0 0.458252,0.264549 l 1.214356,-0.701232 a 0.91662421,0.91662421 119.99782 0 0 0.458251,-0.793785 V 35.103385 a 0.91765857,0.91765857 60.030155 0 0 -0.457993,-0.794232 l -0.15042,-0.08706 a 0.91537123,0.91537123 0.02854493 0 0 -0.91625,-4.57e-4 l -8.808095,5.086017 a 0.91660302,0.91660302 119.99839 0 0 -0.458257,0.793775 V 57.81263 a 0.30544187,0.30544187 150.0059 0 1 -0.458218,0.264489 L 36.831264,54.83499 a 0.91676155,0.91676155 60.0059 0 1 -0.458217,-0.793844 l 0,-4.707292 a 0.91721457,0.91721457 119.98185 0 1 0.458104,-0.79404 l 1.681448,-0.972206 a 0.91721457,0.91721457 119.98185 0 0 0.458104,-0.79404 v -3.172136 a 0.91721457,0.91721457 60.018154 0 0 -0.458104,-0.79404 l -1.681448,-0.972206 a 0.91721457,0.91721457 60.018154 0 1 -0.458104,-0.79404 l 0,-4.707292 a 0.91661308,0.91661308 119.99812 0 1 0.458254,-0.79378 l 17.47021,-10.087961 a 0.30556458,0.30556458 90.000301 0 0 3e-6,-0.529231 L 53.087158,24.22165 a 0.9164777,0.9164777 0.00258349 0 0 -0.916527,-4.2e-5 z m 6.062419,3.49986 -1.2161,0.701596 a 0.30552709,0.30552709 90.019382 0 0 -1.79e-4,0.529183 l 2.747708,1.587694 a 0.91692054,0.91692054 60.010201 0 1 0.458177,0.793913 l 0,5.707292 a 0.91721457,0.91721457 119.98185 0 1 -0.458104,0.79404 l -1.681448,0.972206 A 0.91721457,0.91721457 119.98185 0 0 57.625,39.601432 v 3.172136 a 0.91721457,0.91721457 60.018154 0 0 0.458104,0.79404 l 1.681448,0.972206 a 0.91721457,0.91721457 60.018154 0 1 0.458104,0.79404 v 3.707292 a 0.91721457,0.91721457 119.98185 0 1 -0.458104,0.79404 l -1.681448,0.972206 A 0.91721457,0.91721457 119.98185 0 0 57.625,51.601432 v 1.402604 a 0.30548884,0.30548884 29.997915 0 0 0.458253,0.26455 l 3.81201,-2.201235 a 0.91662061,0.91662061 119.99791 0 0 0.458253,-0.793783 v -4.939714 a 0.91721457,0.91721457 119.98185 0 1 0.458104,-0.79404 l 1.681448,-0.972206 a 0.91721457,0.91721457 119.98185 0 0 0.458104,-0.79404 v -3.172136 a 0.91721457,0.91721457 60.018154 0 0 -0.458104,-0.79404 L 62.81162,37.835186 a 0.91721457,0.91721457 60.018154 0 1 -0.458104,-0.79404 V 30.101432 A 0.91674179,0.91674179 60.005365 0 0 61.895293,29.307596 L 59.149628,27.7217 a 0.91668452,0.91668452 0.01454543 0 0 -0.916578,-2.32e-4 z m 3.512134,11.961425 0.617054,0.35687 a 0.91733246,0.91733246 60.021341 0 1 0.458074,0.794091 v 0.707292 a 0.91733246,0.91733246 119.97866 0 1 -0.458074,0.794091 l -0.617054,0.35687 a 0.91438574,0.91438574 0.01583111 0 1 -0.916003,-2.53e-4 L 60.213787,42.33549 a 0.91791834,0.91791834 60.037172 0 1 -0.457928,-0.794344 v -0.707292 a 0.91791834,0.91791834 119.96283 0 1 0.457928,-0.794344 l 0.615394,-0.356364 a 0.91438574,0.91438574 179.98417 0 1 0.916003,-2.53e-4 z m -25.980469,4 0.617054,0.35687 a 0.91733246,0.91733246 60.021341 0 1 0.458075,0.794091 v 0.707292 a 0.91733246,0.91733246 119.97866 0 1 -0.458075,0.794091 l -0.617054,0.35687 a 0.9149688,0.9149688 0 0 1 -0.916149,0 l -0.617054,-0.35687 a 0.91733246,0.91733246 60.021341 0 1 -0.458075,-0.794091 v -0.707292 a 0.91733246,0.91733246 119.97866 0 1 0.458075,-0.794091 l 0.617054,-0.35687 a 0.9149688,0.9149688 180 0 1 0.916149,0 z"
       inkscape:path-effect="#path-effect972;#path-effect889"
       inkscape:original-d="m 37.039423,44.188158 v 1.999892 l -1.7323,0.9997 -1.732,-0.9997 v -1.999892 l 1.732,-1.000394 z m 6.92831,-25.000209 -6.92778,3.999882 -2.5983,-1.500193 -3.4639,1.999791 v 2.999887 l -5.19702,3.000587 v 18.999746 2.0004 l 1.7322,0.9999 2.5983,1.50019 v -2.00039 l -2.5983,-1.5002 V 30.687798 l 4.33092,-2.500389 2.5978,1.500193 3.4639,-2.000391 v -2.999287 l 6.0619,-3.499984 2.5983,1.500193 1.7317,-1.000395 z m -9.5265,15.500131 -2.1e-4,6.99979 -2.5978,1.499693 v 3.999787 l 2.5978,1.50009 2.1e-4,7.000189 1.7322,1.00049 7.7943,4.49998 v 0 l 0.8656,-0.4997 V 40.688154 l 6.9283,-3.999682 3.3e-4,19.999447 1.73205,-0.99999 -1.8e-4,-20.999349 -0.8661,-0.500197 -9.5261,5.499875 v 18.999751 l -6.9282,-3.99978 -2.1e-4,-6.000289 2.5977,-1.50009 v -3.999786 l -2.5977,-1.499594 2.1e-4,-5.999994 18.1866,-10.500553 -1.73205,-0.999996 z m -1.73178,-8.000664 v -1.999991 l 1.7322,-0.999996 1.7319,0.999996 3e-4,1.999891 -1.7322,1.000896 z m 25.98099,1.000395 -1.73233,1.000096 3.4641,1.999991 -4.2e-4,7.000473 -2.5978,1.499694 v 3.999782 l 2.5978,1.500093 4.2e-4,5.000019 -2.59807,1.49998 v 1.99999 l 4.33012,-2.49998 -2.7e-4,-6.000009 2.5978,-1.500093 v -3.999782 l -2.5978,-1.499694 4.2e-4,-8.000368 z m 2.59705,15.499836 -1.7318,-0.999795 v -1.999891 l 1.7318,-1.000296 1.7326,1.000296 v 1.999891 z"
       sodipodi:nodetypes="cccccccccccccccccccccccccccccccccccccccccccccccccccccccccccccccccccccccccccccccccccccc"
       inkscape:export-filename="/home/simon/code/scipp/scipp/docs/_static/icon-2022.png"
       inkscape:export-xdpi="300"
       inkscape:export-ydpi="300" />
    <g
       id="text897"
       style="font-size:41.0089px;line-height:19.2229px;font-family:Lato;-inkscape-font-specification:Lato;letter-spacing:0px;word-spacing:0px;fill:#0065ac;stroke-width:0.264583px"
       aria-label="essnmx">
      <path
         id="path1"
         style="font-weight:bold;-inkscape-font-specification:'Lato Bold';fill:#fbfeff;fill-opacity:1"
         d="m 92.72987,29.331543 c -1.572006,0 -2.987097,0.27332 -4.244702,0.820105 -1.243935,0.546785 -2.303245,1.291802 -3.1781,2.235006 -0.861186,0.929534 -1.524259,2.029816 -1.989026,3.30109 -0.464768,1.257605 -0.697115,2.604237 -0.697115,4.039547 0,1.845398 0.266835,3.471834 0.799951,4.879806 0.533115,1.394301 1.26413,2.570043 2.193664,3.526916 0.929535,0.943204 2.023332,1.660734 3.280937,2.15284 1.257605,0.478437 2.617722,0.717786 4.080371,0.717786 0.73816,0 1.496662,-0.05446 2.27583,-0.163814 0.792838,-0.109357 1.565342,-0.294249 2.317171,-0.553972 0.765499,-0.273392 1.496514,-0.628657 2.193665,-1.066085 0.697144,-0.451097 1.326244,-1.004738 1.886704,-1.66088 l -1.45572,-1.845365 c -0.205047,-0.314401 -0.519856,-0.471806 -0.943614,-0.471806 -0.314401,0 -0.642178,0.09595 -0.983919,0.287321 -0.328071,0.191374 -0.717824,0.403236 -1.168921,0.63562 -0.437429,0.232384 -0.956582,0.444245 -1.558045,0.63562 -0.587794,0.191374 -1.291838,0.287321 -2.112016,0.287321 -0.820177,0 -1.572195,-0.123434 -2.255676,-0.369487 -0.669811,-0.259723 -1.25094,-0.642474 -1.743046,-1.14825 -0.492107,-0.519445 -0.888344,-1.168516 -1.189075,-1.947685 -0.300731,-0.792838 -0.492107,-1.72923 -0.574125,-2.809131 h 13.020397 c 0.46476,0 0.77906,-0.129917 0.94309,-0.38964 0.16404,-0.273392 0.24598,-0.793062 0.24598,-1.558561 0,-1.517328 -0.23235,-2.863442 -0.69711,-4.03903 -0.4511,-1.189257 -1.07968,-2.187108 -1.886193,-2.993616 -0.806508,-0.820177 -1.770388,-1.442278 -2.891296,-1.866036 -1.120909,-0.423758 -2.344107,-0.63562 -3.670061,-0.63562 z m 19.99154,0 c -1.29861,0 -2.44687,0.177891 -3.44475,0.533301 -0.98421,0.341741 -1.81117,0.806437 -2.48098,1.39423 -0.65614,0.574124 -1.15533,1.250683 -1.49707,2.02985 -0.34174,0.779169 -0.51263,1.59913 -0.51263,2.460315 0,0.929535 0.14392,1.722525 0.43098,2.378667 0.30074,0.656141 0.68997,1.209783 1.16841,1.66088 0.4921,0.451098 1.04575,0.826848 1.66088,1.12758 0.6288,0.287062 1.26439,0.539896 1.90686,0.75861 0.65614,0.218714 1.29224,0.424092 1.90738,0.615466 0.6288,0.177705 1.18244,0.382567 1.66088,0.61495 0.4921,0.232383 0.88134,0.505704 1.1684,0.820105 0.30073,0.314401 0.45114,0.717639 0.45114,1.209745 0,0.328071 -0.0685,0.649364 -0.20516,0.963765 -0.12303,0.300732 -0.32788,0.567568 -0.61495,0.799952 -0.27339,0.232383 -0.62865,0.423759 -1.06608,0.574125 -0.42376,0.136696 -0.93643,0.204638 -1.53789,0.204638 -0.7655,0 -1.40109,-0.08843 -1.90687,-0.266133 -0.4921,-0.177705 -0.92283,-0.369081 -1.29191,-0.574125 -0.36908,-0.205045 -0.69737,-0.396421 -0.98443,-0.574126 -0.2734,-0.177705 -0.5672,-0.26665 -0.8816,-0.26665 -0.3144,0 -0.57424,0.06146 -0.77928,0.184485 -0.20505,0.123026 -0.38243,0.300917 -0.53279,0.533301 l -1.16892,1.927014 c 0.4101,0.36908 0.88179,0.710859 1.4149,1.02526 0.54679,0.314402 1.1344,0.587722 1.7632,0.820105 0.64248,0.232384 1.30555,0.410275 1.98903,0.533301 0.69715,0.136696 1.40819,0.205155 2.13269,0.205155 1.36695,0 2.56967,-0.170889 3.60856,-0.51263 1.05256,-0.355409 1.9345,-0.840591 2.64532,-1.455725 0.71082,-0.628802 1.24397,-1.367335 1.59938,-2.214852 0.36908,-0.861186 0.55346,-1.797579 0.55346,-2.809131 0,-0.847516 -0.1504,-1.572047 -0.45114,-2.17351 -0.28706,-0.601463 -0.67681,-1.113616 -1.16892,-1.537374 -0.47844,-0.437428 -1.02508,-0.793209 -1.64021,-1.066602 -0.61513,-0.287061 -1.24372,-0.539896 -1.88619,-0.75861 -0.6288,-0.218714 -1.2509,-0.416574 -1.86603,-0.594279 -0.61514,-0.191375 -1.16878,-0.403754 -1.66089,-0.636137 -0.47843,-0.232383 -0.86818,-0.498702 -1.16892,-0.799434 -0.28706,-0.314401 -0.43046,-0.697153 -0.43046,-1.14825 0,-0.683482 0.28032,-1.237123 0.84077,-1.660881 0.57413,-0.423757 1.36011,-0.63562 2.358,-0.63562 0.64247,0 1.19611,0.06846 1.66088,0.205155 0.47843,0.136697 0.90216,0.293585 1.27124,0.47129 0.36908,0.164035 0.69037,0.314439 0.96377,0.451135 0.28706,0.136696 0.55338,0.205155 0.79943,0.205155 0.23239,0 0.42376,-0.04097 0.57413,-0.12299 0.15036,-0.09569 0.29377,-0.253092 0.43046,-0.471806 l 1.14825,-1.824694 c -0.79284,-0.779169 -1.78369,-1.407753 -2.97294,-1.88619 -1.18926,-0.478436 -2.50841,-0.717786 -3.95739,-0.717786 z m 18.02319,0 c -1.29861,0 -2.44687,0.177891 -3.44475,0.533301 -0.98421,0.341741 -1.81117,0.806437 -2.48098,1.39423 -0.65615,0.574124 -1.15481,1.250683 -1.49655,2.02985 -0.34174,0.779169 -0.51263,1.59913 -0.51263,2.460315 0,0.929535 0.1434,1.722525 0.43046,2.378667 0.30073,0.656141 0.69048,1.209783 1.16892,1.66088 0.49211,0.451098 1.04575,0.826848 1.66088,1.12758 0.6288,0.287062 1.26439,0.539896 1.90686,0.75861 0.65615,0.218714 1.29173,0.424092 1.90686,0.615466 0.6288,0.177705 1.18245,0.382567 1.66089,0.61495 0.4921,0.232383 0.88186,0.505704 1.16892,0.820105 0.30073,0.314401 0.45061,0.717639 0.45061,1.209745 0,0.328071 -0.0679,0.649364 -0.20463,0.963765 -0.12303,0.300732 -0.32841,0.567568 -0.61547,0.799952 -0.27339,0.232383 -0.62866,0.423759 -1.06608,0.574125 -0.42376,0.136696 -0.93644,0.204638 -1.5379,0.204638 -0.76549,0 -1.40108,-0.08843 -1.90686,-0.266133 -0.4921,-0.177705 -0.92283,-0.369081 -1.29191,-0.574125 -0.36908,-0.205045 -0.69686,-0.396421 -0.98392,-0.574126 -0.27339,-0.177705 -0.5672,-0.26665 -0.8816,-0.26665 -0.3144,0 -0.57424,0.06146 -0.77928,0.184485 -0.20504,0.123026 -0.38293,0.300917 -0.5333,0.533301 l -1.16892,1.927014 c 0.41009,0.36908 0.88178,0.710859 1.4149,1.02526 0.54678,0.314402 1.13491,0.587722 1.76372,0.820105 0.64247,0.232384 1.30503,0.410275 1.98851,0.533301 0.69715,0.136696 1.4082,0.205155 2.13268,0.205155 1.36697,0 2.56968,-0.170889 3.60857,-0.51263 1.05256,-0.355409 1.9345,-0.840591 2.64532,-1.455725 0.71082,-0.628802 1.24397,-1.367335 1.59938,-2.214852 0.36908,-0.861186 0.55346,-1.797579 0.55346,-2.809131 0,-0.847516 -0.15041,-1.572047 -0.45114,-2.17351 -0.28706,-0.601463 -0.6763,-1.113616 -1.1684,-1.537374 -0.47844,-0.437428 -1.0256,-0.793209 -1.64073,-1.066602 -0.61513,-0.287061 -1.24372,-0.539896 -1.88619,-0.75861 -0.6288,-0.218714 -1.2509,-0.416574 -1.86604,-0.594279 -0.61513,-0.191375 -1.16877,-0.403754 -1.66088,-0.636137 -0.47844,-0.232383 -0.86767,-0.498702 -1.1684,-0.799434 -0.28706,-0.314401 -0.43098,-0.697153 -0.43098,-1.14825 0,-0.683482 0.28032,-1.237123 0.84077,-1.660881 0.57413,-0.423757 1.36012,-0.63562 2.358,-0.63562 0.64247,0 1.19611,0.06846 1.66088,0.205155 0.47844,0.136697 0.90216,0.293585 1.27124,0.47129 0.36908,0.164035 0.69037,0.314439 0.96377,0.451135 0.28706,0.136696 0.55389,0.205155 0.79995,0.205155 0.23238,0 0.42376,-0.04097 0.57412,-0.12299 0.15036,-0.09569 0.29377,-0.253092 0.43047,-0.471806 l 1.14825,-1.824694 c -0.79284,-0.779169 -1.78421,-1.407753 -2.97346,-1.88619 -1.18926,-0.478436 -2.5084,-0.717786 -3.95739,-0.717786 z m 21.09949,0.63562 c -1.531,0 -2.91212,0.355265 -4.14238,1.066085 -1.23027,0.71082 -2.31654,1.661215 -3.25975,2.850472 l -0.185,-3.075781 c -0.0547,-0.34174 -0.25254,-0.51263 -0.59428,-0.51263 h -1.08676 v 20.401855 h 1.96836 V 35.359599 c 0.90219,-1.202927 1.92753,-2.139319 3.07578,-2.809131 1.14825,-0.68348 2.39194,-1.024743 3.73156,-1.024743 1.79072,0 3.12387,0.54664 3.99872,1.640209 0.87486,1.0799 1.31206,2.576419 1.31206,4.490166 v 13.041064 h 1.96836 V 37.6561 c 0,-1.189257 -0.14341,-2.255051 -0.43047,-3.198255 -0.28706,-0.943203 -0.71078,-1.750196 -1.27124,-2.420007 -0.56045,-0.669811 -1.2715,-1.181964 -2.13268,-1.537374 -0.84752,-0.35541 -1.83137,-0.533301 -2.95228,-0.533301 z m 21.34495,0 c -1.28494,0 -2.4402,0.348781 -3.46542,1.045931 -1.02522,0.697151 -1.93413,1.612541 -2.72696,2.747119 l -0.18449,-2.952274 c -0.0547,-0.34174 -0.25306,-0.51263 -0.5948,-0.51263 h -1.08675 v 20.401855 h 1.96835 V 35.236609 c 0.73816,-1.161917 1.57913,-2.070823 2.52233,-2.726965 0.9432,-0.656142 1.96854,-0.983919 3.07578,-0.983919 1.51733,0 2.66559,0.526154 3.44475,1.578715 0.79284,1.05256 1.18908,2.569565 1.18908,4.55166 v 13.041064 h 1.96835 V 37.6561 c 0,-1.011552 0.14341,-1.899972 0.43047,-2.665471 0.30073,-0.765498 0.69748,-1.401084 1.18959,-1.90686 0.50577,-0.519446 1.0799,-0.909198 1.72237,-1.168921 0.65615,-0.259722 1.33971,-0.389123 2.05053,-0.389123 1.59934,0 2.82954,0.526154 3.69073,1.578715 0.86118,1.038891 1.29139,2.555896 1.29139,4.55166 v 13.041064 h 1.9482 V 37.6561 c 0,-1.230266 -0.1504,-2.323547 -0.45113,-3.28042 -0.30073,-0.956873 -0.73145,-1.763349 -1.29191,-2.419491 -0.56046,-0.656141 -1.24402,-1.148324 -2.05052,-1.476395 -0.80651,-0.341741 -1.71542,-0.512631 -2.72697,-0.512631 -0.71082,0 -1.40786,0.09543 -2.09135,0.286805 -0.66981,0.191374 -1.29191,0.492181 -1.86603,0.90227 -0.57413,0.396419 -1.08679,0.902604 -1.53789,1.517737 -0.43743,0.615133 -0.77921,1.339147 -1.02526,2.172994 -0.3144,-1.530998 -0.9225,-2.726709 -1.8247,-3.587895 -0.88852,-0.861186 -2.07775,-1.291911 -3.56774,-1.291911 z m 22.75985,0.328146 7.11481,9.965283 -7.40213,10.436572 h 1.76372 c 0.16403,0 0.29395,-0.05446 0.38964,-0.163814 0.10936,-0.109357 0.21179,-0.22579 0.30747,-0.348816 l 5.90507,-8.325073 c 0.13669,-0.205044 0.23912,-0.443877 0.30747,-0.717269 l 6.19239,9.042342 c 0.0683,0.109357 0.15729,0.225789 0.26665,0.348816 0.10935,0.109356 0.25976,0.163814 0.45114,0.163814 h 1.86603 l -7.40213,-10.539408 7.11481,-9.862447 h -1.78387 c -0.15037,0 -0.27328,0.04097 -0.36897,0.12299 -0.0957,0.08202 -0.18463,0.184448 -0.26665,0.307474 l -5.59759,7.894092 c -0.15037,0.218715 -0.2598,0.458063 -0.32815,0.717786 l -5.98723,-8.632548 c -0.0683,-0.109357 -0.15028,-0.204786 -0.24598,-0.286804 -0.0957,-0.08202 -0.23909,-0.12299 -0.43046,-0.12299 z m -103.1167,2.66547 c 0.751829,0 1.407901,0.129917 1.968355,0.38964 0.574124,0.246053 1.04582,0.587833 1.414901,1.025261 0.369079,0.437428 0.6424,0.950097 0.820105,1.53789 0.191375,0.574124 0.287321,1.189224 0.287321,1.845366 h -9.555489 c 0.232383,-1.530997 0.765539,-2.713741 1.599385,-3.547587 0.833847,-0.833847 1.989103,-1.25057 3.465422,-1.25057 z" />
    </g>
  </g>
</svg>
