<?xml version="1.0" encoding="UTF-8" standalone="no"?>
<!DOCTYPE svg PUBLIC "-//W3C//DTD SVG 1.1//EN"
 "http://www.w3.org/Graphics/SVG/1.1/DTD/svg11.dtd">
<!-- Generated by graphviz version 14.1.2 (20260126.1125)
 -->
<!-- Pages: 1 -->
<svg width="860pt" height="585pt"
 viewBox="0.00 0.00 860.00 585.00" xmlns="http://www.w3.org/2000/svg" xmlns:xlink="http://www.w3.org/1999/xlink">
<g id="graph0" class="graph" transform="scale(1 1) rotate(0) translate(4 581.25)">
<polygon fill="white" stroke="none" points="-4,4 -4,-581.25 856,-581.25 856,4 -4,4"/>
<!-- FilePath -->
<g id="node1" class="node">
<title>FilePath</title>
<polygon fill="none" stroke="black" points="366.62,-512.12 291.38,-512.12 291.38,-486.88 366.62,-486.88 366.62,-512.12"/>
<text xml:space="preserve" text-anchor="start" x="299.38" y="-494.82" font-family="Times,serif" font-size="14.00">FilePath</text>
</g>
<!-- CrystalRotation -->
<g id="node2" class="node">
<title>CrystalRotation</title>
<polygon fill="none" stroke="black" points="154,-378 0,-378 0,-345 154,-345 154,-378"/>
<text xml:space="preserve" text-anchor="start" x="20.75" y="-361.7" font-family="Times,serif" font-size="14.00">CrystalRotation</text>
<text xml:space="preserve" text-anchor="start" x="8" y="-350.55" font-family="Times,serif" font-size="11.00">via:</text>
<text xml:space="preserve" text-anchor="start" x="28.25" y="-350.55" font-family="Times,serif" font-style="italic" font-size="11.00">load_crystal_rotation</text>
</g>
<!-- FilePath&#45;&gt;CrystalRotation -->
<g id="edge1" class="edge">
<title>FilePath&#45;&gt;CrystalRotation</title>
<path fill="none" stroke="black" d="M291.07,-494.46C252.24,-488.87 191.44,-475.95 147,-447 123.86,-431.93 104.49,-406.83 92.03,-387.9"/>
<polygon fill="black" stroke="black" points="95.12,-386.23 86.81,-379.66 89.2,-389.98 95.12,-386.23"/>
</g>
<!-- McStasInstrument -->
<g id="node3" class="node">
<title>McStasInstrument</title>
<polygon fill="none" stroke="black" points="341.38,-447 150.62,-447 150.62,-414 341.38,-414 341.38,-447"/>
<text xml:space="preserve" text-anchor="start" x="179.25" y="-430.7" font-family="Times,serif" font-size="14.00">McStasInstrument</text>
<text xml:space="preserve" text-anchor="start" x="158.62" y="-419.55" font-family="Times,serif" font-size="11.00">via:</text>
<text xml:space="preserve" text-anchor="start" x="178.88" y="-419.55" font-family="Times,serif" font-style="italic" font-size="11.00">read_mcstas_geometry_xml</text>
</g>
<!-- FilePath&#45;&gt;McStasInstrument -->
<g id="edge7" class="edge">
<title>FilePath&#45;&gt;McStasInstrument</title>
<path fill="none" stroke="black" d="M314.16,-486.52C303.17,-477.65 287.86,-465.29 274.54,-454.54"/>
<polygon fill="black" stroke="black" points="276.86,-451.91 266.88,-448.36 272.46,-457.36 276.86,-451.91"/>
</g>
<!-- DetectorBankPrefix -->
<g id="node5" class="node">
<title>DetectorBankPrefix</title>
<polygon fill="none" stroke="black" points="572.25,-447 377.75,-447 377.75,-414 572.25,-414 572.25,-447"/>
<text xml:space="preserve" text-anchor="start" x="404.88" y="-430.7" font-family="Times,serif" font-size="14.00">DetectorBankPrefix</text>
<text xml:space="preserve" text-anchor="start" x="385.75" y="-419.55" font-family="Times,serif" font-size="11.00">via:</text>
<text xml:space="preserve" text-anchor="start" x="406" y="-419.55" font-family="Times,serif" font-style="italic" font-size="11.00">load_event_data_bank_name</text>
</g>
<!-- FilePath&#45;&gt;DetectorBankPrefix -->
<g id="edge4" class="edge">
<title>FilePath&#45;&gt;DetectorBankPrefix</title>
<path fill="none" stroke="black" d="M355.1,-486.52C375.91,-476.97 405.55,-463.37 430.15,-452.08"/>
<polygon fill="black" stroke="black" points="431.33,-455.39 438.96,-448.04 428.42,-449.03 431.33,-455.39"/>
</g>
<!-- RawEventProbability -->
<g id="node8" class="node">
<title>RawEventProbability</title>
<polygon fill="none" stroke="black" points="798.75,-378 631.25,-378 631.25,-345 798.75,-345 798.75,-378"/>
<text xml:space="preserve" text-anchor="start" x="639.25" y="-361.7" font-family="Times,serif" font-size="14.00">RawEventProbability</text>
<text xml:space="preserve" text-anchor="start" x="646.38" y="-350.55" font-family="Times,serif" font-size="11.00">via:</text>
<text xml:space="preserve" text-anchor="start" x="666.62" y="-350.55" font-family="Times,serif" font-style="italic" font-size="11.00">load_raw_event_data</text>
</g>
<!-- FilePath&#45;&gt;RawEventProbability -->
<g id="edge26" class="edge">
<title>FilePath&#45;&gt;RawEventProbability</title>
<path fill="none" stroke="black" d="M331.8,-486.67C336.9,-467.91 349.62,-431.63 375,-414 464.84,-351.6 512.08,-392.86 619.85,-378.96"/>
<polygon fill="black" stroke="black" points="620.27,-382.44 629.67,-377.55 619.27,-375.51 620.27,-382.44"/>
</g>
<!-- NMXExperimentMetadata -->
<g id="node12" class="node">
<title>NMXExperimentMetadata</title>
<polygon fill="none" stroke="black" points="267.12,-309 62.87,-309 62.87,-276 267.12,-276 267.12,-309"/>
<text xml:space="preserve" text-anchor="start" x="70.88" y="-292.7" font-family="Times,serif" font-size="14.00">NMXExperimentMetadata</text>
<text xml:space="preserve" text-anchor="start" x="79.12" y="-281.55" font-family="Times,serif" font-size="11.00">via:</text>
<text xml:space="preserve" text-anchor="start" x="99.38" y="-281.55" font-family="Times,serif" font-style="italic" font-size="11.00">load_experiment_metadata</text>
</g>
<!-- CrystalRotation&#45;&gt;NMXExperimentMetadata -->
<g id="edge13" class="edge">
<title>CrystalRotation&#45;&gt;NMXExperimentMetadata</title>
<path fill="none" stroke="black" d="M97.85,-344.62C108.95,-336.17 122.8,-325.63 135.03,-316.32"/>
<polygon fill="black" stroke="black" points="136.95,-319.26 142.79,-310.41 132.71,-313.69 136.95,-319.26"/>
</g>
<!-- McStasInstrument&#45;&gt;CrystalRotation -->
<g id="edge2" class="edge">
<title>McStasInstrument&#45;&gt;CrystalRotation</title>
<path fill="none" stroke="black" d="M205.95,-413.62C182.55,-404.34 152.79,-392.55 127.76,-382.62"/>
<polygon fill="black" stroke="black" points="129.34,-379.49 118.76,-379.05 126.76,-385.99 129.34,-379.49"/>
</g>
<!-- NMXDetectorMetadata -->
<g id="node11" class="node">
<title>NMXDetectorMetadata</title>
<polygon fill="none" stroke="black" points="358.25,-378 175.75,-378 175.75,-345 358.25,-345 358.25,-378"/>
<text xml:space="preserve" text-anchor="start" x="183.75" y="-361.7" font-family="Times,serif" font-size="14.00">NMXDetectorMetadata</text>
<text xml:space="preserve" text-anchor="start" x="189.38" y="-350.55" font-family="Times,serif" font-size="11.00">via:</text>
<text xml:space="preserve" text-anchor="start" x="209.62" y="-350.55" font-family="Times,serif" font-style="italic" font-size="11.00">load_detector_metadata</text>
</g>
<!-- McStasInstrument&#45;&gt;NMXDetectorMetadata -->
<g id="edge10" class="edge">
<title>McStasInstrument&#45;&gt;NMXDetectorMetadata</title>
<path fill="none" stroke="black" d="M250.98,-413.62C253.28,-406.28 256.07,-397.36 258.68,-389.04"/>
<polygon fill="black" stroke="black" points="261.96,-390.3 261.61,-379.71 255.28,-388.2 261.96,-390.3"/>
</g>
<!-- McStasInstrument&#45;&gt;NMXExperimentMetadata -->
<g id="edge12" class="edge">
<title>McStasInstrument&#45;&gt;NMXExperimentMetadata</title>
<path fill="none" stroke="black" d="M211.72,-413.66C197.31,-405.18 181.87,-393.3 173,-378 163.02,-360.79 161.34,-338.22 161.99,-320.74"/>
<polygon fill="black" stroke="black" points="165.47,-321.04 162.65,-310.83 158.49,-320.57 165.47,-321.04"/>
</g>
<!-- PixelIds -->
<g id="node17" class="node">
<title>PixelIds</title>
<polygon fill="none" stroke="black" points="500.62,-378 365.38,-378 365.38,-345 500.62,-345 500.62,-378"/>
<text xml:space="preserve" text-anchor="start" x="404.5" y="-361.7" font-family="Times,serif" font-size="14.00">PixelIds</text>
<text xml:space="preserve" text-anchor="start" x="373.38" y="-350.55" font-family="Times,serif" font-size="11.00">via:</text>
<text xml:space="preserve" text-anchor="start" x="393.62" y="-350.55" font-family="Times,serif" font-style="italic" font-size="11.00">retrieve_pixel_ids</text>
</g>
<!-- McStasInstrument&#45;&gt;PixelIds -->
<g id="edge23" class="edge">
<title>McStasInstrument&#45;&gt;PixelIds</title>
<path fill="none" stroke="black" d="M290.32,-413.62C316.44,-404.26 349.73,-392.34 377.58,-382.36"/>
<polygon fill="black" stroke="black" points="378.7,-385.67 386.93,-379.01 376.33,-379.08 378.7,-385.67"/>
</g>
<!-- DetectorName -->
<g id="node4" class="node">
<title>DetectorName</title>
<polygon fill="none" stroke="black" points="605.12,-516 418.88,-516 418.88,-483 605.12,-483 605.12,-516"/>
<text xml:space="preserve" text-anchor="start" x="459.88" y="-499.7" font-family="Times,serif" font-size="14.00">DetectorName</text>
<text xml:space="preserve" text-anchor="start" x="426.88" y="-488.55" font-family="Times,serif" font-size="11.00">via:</text>
<text xml:space="preserve" text-anchor="start" x="447.12" y="-488.55" font-family="Times,serif" font-style="italic" font-size="11.00">detector_name_from_index</text>
</g>
<!-- DetectorName&#45;&gt;DetectorBankPrefix -->
<g id="edge3" class="edge">
<title>DetectorName&#45;&gt;DetectorBankPrefix</title>
<path fill="none" stroke="black" d="M503.23,-482.62C499.04,-475.03 493.91,-465.75 489.19,-457.19"/>
<polygon fill="black" stroke="black" points="492.34,-455.65 484.44,-448.59 486.21,-459.03 492.34,-455.65"/>
</g>
<!-- DetectorName&#45;&gt;RawEventProbability -->
<g id="edge27" class="edge">
<title>DetectorName&#45;&gt;RawEventProbability</title>
<path fill="none" stroke="black" d="M535.68,-482.63C571.8,-458.44 640.77,-412.23 681.84,-384.71"/>
<polygon fill="black" stroke="black" points="683.54,-387.79 689.9,-379.32 679.64,-381.98 683.54,-387.79"/>
</g>
<!-- DetectorName&#45;&gt;NMXDetectorMetadata -->
<g id="edge11" class="edge">
<title>DetectorName&#45;&gt;NMXDetectorMetadata</title>
<path fill="none" stroke="black" d="M450.58,-482.52C425.53,-474.28 397.08,-462.63 374,-447 357.59,-435.89 359.02,-426.94 344,-414 331.55,-403.27 316.77,-392.9 303.5,-384.31"/>
<polygon fill="black" stroke="black" points="305.76,-381.6 295.44,-379.21 302.02,-387.52 305.76,-381.6"/>
</g>
<!-- DetectorName&#45;&gt;PixelIds -->
<g id="edge24" class="edge">
<title>DetectorName&#45;&gt;PixelIds</title>
<path fill="none" stroke="black" d="M541.29,-482.65C554.15,-473.98 567.92,-461.93 575,-447 581.28,-433.75 583.42,-426.01 575,-414 566.55,-401.95 538.23,-390.57 509.07,-381.59"/>
<polygon fill="black" stroke="black" points="510.36,-378.32 499.78,-378.82 508.36,-385.03 510.36,-378.32"/>
</g>
<!-- DetectorBankPrefix&#45;&gt;RawEventProbability -->
<g id="edge28" class="edge">
<title>DetectorBankPrefix&#45;&gt;RawEventProbability</title>
<path fill="none" stroke="black" d="M532.18,-413.54C566.61,-403.93 610.64,-391.63 646.87,-381.52"/>
<polygon fill="black" stroke="black" points="647.69,-384.92 656.38,-378.86 645.81,-378.18 647.69,-384.92"/>
</g>
<!-- DetectorIndex -->
<g id="node6" class="node">
<title>DetectorIndex</title>
<polygon fill="none" stroke="red" stroke-dasharray="5,2" points="571,-577.25 453,-577.25 453,-552 571,-552 571,-577.25"/>
<text xml:space="preserve" text-anchor="start" x="461" y="-559.95" font-family="Times,serif" font-size="14.00" fill="red">DetectorIndex</text>
</g>
<!-- DetectorIndex&#45;&gt;DetectorName -->
<g id="edge5" class="edge">
<title>DetectorIndex&#45;&gt;DetectorName</title>
<path fill="none" stroke="black" d="M512,-551.75C512,-544.95 512,-536.13 512,-527.72"/>
<polygon fill="black" stroke="black" points="515.5,-527.89 512,-517.89 508.5,-527.89 515.5,-527.89"/>
</g>
<!-- MaximumCounts -->
<g id="node7" class="node">
<title>MaximumCounts</title>
<polygon fill="none" stroke="black" points="678.75,-305.12 541.25,-305.12 541.25,-279.88 678.75,-279.88 678.75,-305.12"/>
<text xml:space="preserve" text-anchor="start" x="549.25" y="-287.82" font-family="Times,serif" font-size="14.00">MaximumCounts</text>
</g>
<!-- McStasWeight2CountScaleFactor -->
<g id="node10" class="node">
<title>McStasWeight2CountScaleFactor</title>
<polygon fill="none" stroke="black" points="744.75,-240 475.25,-240 475.25,-207 744.75,-207 744.75,-240"/>
<text xml:space="preserve" text-anchor="start" x="490.38" y="-223.7" font-family="Times,serif" font-size="14.00">McStasWeight2CountScaleFactor</text>
<text xml:space="preserve" text-anchor="start" x="483.25" y="-212.55" font-family="Times,serif" font-size="11.00">via:</text>
<text xml:space="preserve" text-anchor="start" x="503.5" y="-212.55" font-family="Times,serif" font-style="italic" font-size="11.00">mcstas_weight_to_probability_scalefactor</text>
</g>
<!-- MaximumCounts&#45;&gt;McStasWeight2CountScaleFactor -->
<g id="edge8" class="edge">
<title>MaximumCounts&#45;&gt;McStasWeight2CountScaleFactor</title>
<path fill="none" stroke="black" d="M610,-279.52C610,-271.71 610,-261.19 610,-251.43"/>
<polygon fill="black" stroke="black" points="613.5,-251.67 610,-241.67 606.5,-251.67 613.5,-251.67"/>
</g>
<!-- MaximumProbability -->
<g id="node9" class="node">
<title>MaximumProbability</title>
<polygon fill="none" stroke="black" points="852,-309 686,-309 686,-276 852,-276 852,-309"/>
<text xml:space="preserve" text-anchor="start" x="694" y="-292.7" font-family="Times,serif" font-size="14.00">MaximumProbability</text>
<text xml:space="preserve" text-anchor="start" x="698.5" y="-281.55" font-family="Times,serif" font-size="11.00">via:</text>
<text xml:space="preserve" text-anchor="start" x="718.75" y="-281.55" font-family="Times,serif" font-style="italic" font-size="11.00">maximum_probability</text>
</g>
<!-- RawEventProbability&#45;&gt;MaximumProbability -->
<g id="edge6" class="edge">
<title>RawEventProbability&#45;&gt;MaximumProbability</title>
<path fill="none" stroke="black" d="M727.8,-344.62C734.19,-336.7 742.06,-326.93 749.2,-318.06"/>
<polygon fill="black" stroke="black" points="751.79,-320.42 755.34,-310.44 746.34,-316.03 751.79,-320.42"/>
</g>
<!-- NMXReducedProbability -->
<g id="node13" class="node">
<title>NMXReducedProbability</title>
<polygon fill="none" stroke="black" points="533.75,-309 330.25,-309 330.25,-276 533.75,-276 533.75,-309"/>
<text xml:space="preserve" text-anchor="start" x="343.88" y="-292.7" font-family="Times,serif" font-size="14.00">NMXReducedProbability</text>
<text xml:space="preserve" text-anchor="start" x="338.25" y="-281.55" font-family="Times,serif" font-size="11.00">via:</text>
<text xml:space="preserve" text-anchor="start" x="358.5" y="-281.55" font-family="Times,serif" font-style="italic" font-size="11.00">reduce_raw_event_probability</text>
</g>
<!-- RawEventProbability&#45;&gt;NMXReducedProbability -->
<g id="edge20" class="edge">
<title>RawEventProbability&#45;&gt;NMXReducedProbability</title>
<path fill="none" stroke="black" d="M647.57,-344.54C606.37,-334.78 553.48,-322.26 510.41,-312.06"/>
<polygon fill="black" stroke="black" points="511.41,-308.7 500.87,-309.81 509.8,-315.52 511.41,-308.7"/>
</g>
<!-- MaximumProbability&#45;&gt;McStasWeight2CountScaleFactor -->
<g id="edge9" class="edge">
<title>MaximumProbability&#45;&gt;McStasWeight2CountScaleFactor</title>
<path fill="none" stroke="black" d="M731.32,-275.62C709.5,-266.43 681.8,-254.76 658.38,-244.89"/>
<polygon fill="black" stroke="black" points="659.93,-241.74 649.36,-241.08 657.21,-248.19 659.93,-241.74"/>
</g>
<!-- NMXReducedCounts -->
<g id="node14" class="node">
<title>NMXReducedCounts</title>
<polygon fill="none" stroke="black" points="537.25,-171 318.75,-171 318.75,-138 537.25,-138 537.25,-171"/>
<text xml:space="preserve" text-anchor="start" x="354.12" y="-154.7" font-family="Times,serif" font-size="14.00">NMXReducedCounts</text>
<text xml:space="preserve" text-anchor="start" x="326.75" y="-143.55" font-family="Times,serif" font-size="11.00">via:</text>
<text xml:space="preserve" text-anchor="start" x="347" y="-143.55" font-family="Times,serif" font-style="italic" font-size="11.00">raw_event_probability_to_counts</text>
</g>
<!-- McStasWeight2CountScaleFactor&#45;&gt;NMXReducedCounts -->
<g id="edge15" class="edge">
<title>McStasWeight2CountScaleFactor&#45;&gt;NMXReducedCounts</title>
<path fill="none" stroke="black" d="M566.87,-206.62C541.44,-197.26 509.04,-185.34 481.94,-175.36"/>
<polygon fill="black" stroke="black" points="483.47,-172.19 472.87,-172.02 481.05,-178.76 483.47,-172.19"/>
</g>
<!-- NMXReducedDataGroup -->
<g id="node15" class="node">
<title>NMXReducedDataGroup</title>
<polygon fill="none" stroke="black" points="389.75,-33 198.25,-33 198.25,0 389.75,0 389.75,-33"/>
<text xml:space="preserve" text-anchor="start" x="206.25" y="-16.7" font-family="Times,serif" font-size="14.00">NMXReducedDataGroup</text>
<text xml:space="preserve" text-anchor="start" x="210.75" y="-5.55" font-family="Times,serif" font-size="11.00">via:</text>
<text xml:space="preserve" text-anchor="start" x="231" y="-5.55" font-family="Times,serif" font-style="italic" font-size="11.00">format_nmx_reduced_data</text>
</g>
<!-- NMXDetectorMetadata&#45;&gt;NMXReducedDataGroup -->
<g id="edge19" class="edge">
<title>NMXDetectorMetadata&#45;&gt;NMXReducedDataGroup</title>
<path fill="none" stroke="black" d="M270.66,-344.69C276.18,-319.43 286,-268.37 286,-224.5 286,-224.5 286,-224.5 286,-153.5 286,-115.76 289.11,-72.23 291.45,-44.79"/>
<polygon fill="black" stroke="black" points="294.93,-45.17 292.32,-34.9 287.96,-44.56 294.93,-45.17"/>
</g>
<!-- NMXExperimentMetadata&#45;&gt;NMXReducedDataGroup -->
<g id="edge18" class="edge">
<title>NMXExperimentMetadata&#45;&gt;NMXReducedDataGroup</title>
<path fill="none" stroke="black" d="M172.49,-275.58C193.87,-230.18 255.29,-99.72 281.69,-43.64"/>
<polygon fill="black" stroke="black" points="284.75,-45.37 285.84,-34.83 278.42,-42.39 284.75,-45.37"/>
</g>
<!-- NMXReducedProbability&#45;&gt;NMXReducedCounts -->
<g id="edge14" class="edge">
<title>NMXReducedProbability&#45;&gt;NMXReducedCounts</title>
<path fill="none" stroke="black" d="M431.53,-275.63C430.86,-252.81 429.61,-210.39 428.8,-182.55"/>
<polygon fill="black" stroke="black" points="432.3,-182.67 428.51,-172.78 425.3,-182.88 432.3,-182.67"/>
</g>
<!-- NMXReducedCounts&#45;&gt;NMXReducedDataGroup -->
<g id="edge16" class="edge">
<title>NMXReducedCounts&#45;&gt;NMXReducedDataGroup</title>
<path fill="none" stroke="black" d="M364.32,-137.55C344.97,-129.78 325.32,-118.43 312,-102 298.96,-85.93 294.75,-62.63 293.64,-44.57"/>
<polygon fill="black" stroke="black" points="297.14,-44.72 293.34,-34.84 290.15,-44.94 297.14,-44.72"/>
</g>
<!-- ProtonCharge -->
<g id="node16" class="node">
<title>ProtonCharge</title>
<polygon fill="none" stroke="black" points="541,-102 315,-102 315,-69 541,-69 541,-102"/>
<text xml:space="preserve" text-anchor="start" x="378.12" y="-85.7" font-family="Times,serif" font-size="14.00">ProtonCharge</text>
<text xml:space="preserve" text-anchor="start" x="323" y="-74.55" font-family="Times,serif" font-size="11.00">via:</text>
<text xml:space="preserve" text-anchor="start" x="343.25" y="-74.55" font-family="Times,serif" font-style="italic" font-size="11.00">proton_charge_from_event_counts</text>
</g>
<!-- NMXReducedCounts&#45;&gt;ProtonCharge -->
<g id="edge25" class="edge">
<title>NMXReducedCounts&#45;&gt;ProtonCharge</title>
<path fill="none" stroke="black" d="M428,-137.62C428,-130.45 428,-121.76 428,-113.6"/>
<polygon fill="black" stroke="black" points="431.5,-113.78 428,-103.78 424.5,-113.78 431.5,-113.78"/>
</g>
<!-- ProtonCharge&#45;&gt;NMXReducedDataGroup -->
<g id="edge17" class="edge">
<title>ProtonCharge&#45;&gt;NMXReducedDataGroup</title>
<path fill="none" stroke="black" d="M396.24,-68.62C378.27,-59.63 355.56,-48.28 336.12,-38.56"/>
<polygon fill="black" stroke="black" points="337.86,-35.51 327.35,-34.17 334.73,-41.78 337.86,-35.51"/>
</g>
<!-- PixelIds&#45;&gt;NMXReducedProbability -->
<g id="edge21" class="edge">
<title>PixelIds&#45;&gt;NMXReducedProbability</title>
<path fill="none" stroke="black" d="M432.76,-344.62C432.66,-337.45 432.53,-328.76 432.4,-320.6"/>
<polygon fill="black" stroke="black" points="435.91,-320.72 432.26,-310.78 428.91,-320.83 435.91,-320.72"/>
</g>
<!-- TimeBinSteps -->
<g id="node18" class="node">
<title>TimeBinSteps</title>
<polygon fill="none" stroke="black" points="623.88,-374.12 508.12,-374.12 508.12,-348.88 623.88,-348.88 623.88,-374.12"/>
<text xml:space="preserve" text-anchor="start" x="516.12" y="-356.82" font-family="Times,serif" font-size="14.00">TimeBinSteps</text>
</g>
<!-- TimeBinSteps&#45;&gt;NMXReducedProbability -->
<g id="edge22" class="edge">
<title>TimeBinSteps&#45;&gt;NMXReducedProbability</title>
<path fill="none" stroke="black" d="M542.04,-348.52C523.2,-339.1 496.47,-325.74 474.08,-314.54"/>
<polygon fill="black" stroke="black" points="475.68,-311.42 465.17,-310.08 472.54,-317.69 475.68,-311.42"/>
</g>
</g>
</svg>
