<?xml version="1.0" encoding="utf-8" standalone="no"?>
<!DOCTYPE svg PUBLIC "-//W3C//DTD SVG 1.1//EN"
  "http://www.w3.org/Graphics/SVG/1.1/DTD/svg11.dtd">
<svg xmlns:xlink="http://www.w3.org/1999/xlink" width="392.14375pt" height="270.998865pt" viewBox="0 0 392.14375 270.998865" xmlns="http://www.w3.org/2000/svg" version="1.1">
 <metadata>
  <rdf:RDF xmlns:dc="http://purl.org/dc/elements/1.1/" xmlns:cc="http://creativecommons.org/ns#" xmlns:rdf="http://www.w3.org/1999/02/22-rdf-syntax-ns#">
   <cc:Work>
    <dc:type rdf:resource="http://purl.org/dc/dcmitype/StillImage"/>
    <dc:date>2026-04-23T10:42:33.060911</dc:date>
    <dc:format>image/svg+xml</dc:format>
    <dc:creator>
     <cc:Agent>
      <dc:title>Matplotlib v3.10.8, https://matplotlib.org/</dc:title>
     </cc:Agent>
    </dc:creator>
   </cc:Work>
  </rdf:RDF>
 </metadata>
 <defs>
  <style type="text/css">*{stroke-linejoin: round; stroke-linecap: butt}</style>
 </defs>
 <g id="figure_1">
  <g id="patch_1">
   <path d="M 0 270.998865 
L 392.14375 270.998865 
L 392.14375 0 
L 0 0 
z
" style="fill: #ffffff"/>
  </g>
  <g id="axes_1">
   <g id="patch_2">
    <path d="M 50.14375 231.75824 
L 384.94375 231.75824 
L 384.94375 9.99824 
L 50.14375 9.99824 
z
" style="fill: #ffffff"/>
   </g>
   <g id="matplotlib.axis_1">
    <g id="xtick_1">
     <g id="line2d_1">
      <defs>
       <path id="m25bb1e4b58" d="M 0 0 
L 0 3.5 
" style="stroke: #000000; stroke-width: 0.8"/>
      </defs>
      <g>
       <use xlink:href="#m25bb1e4b58" x="90.725568" y="231.75824" style="stroke: #000000; stroke-width: 0.8"/>
      </g>
     </g>
     <g id="text_1">
      <!-- 2 -->
      <g transform="translate(87.544318 246.356677) scale(0.1 -0.1)">
       <defs>
        <path id="DejaVuSans-32" d="M 1228 531 
L 3431 531 
L 3431 0 
L 469 0 
L 469 531 
Q 828 903 1448 1529 
Q 2069 2156 2228 2338 
Q 2531 2678 2651 2914 
Q 2772 3150 2772 3378 
Q 2772 3750 2511 3984 
Q 2250 4219 1831 4219 
Q 1534 4219 1204 4116 
Q 875 4013 500 3803 
L 500 4441 
Q 881 4594 1212 4672 
Q 1544 4750 1819 4750 
Q 2544 4750 2975 4387 
Q 3406 4025 3406 3419 
Q 3406 3131 3298 2873 
Q 3191 2616 2906 2266 
Q 2828 2175 2409 1742 
Q 1991 1309 1228 531 
z
" transform="scale(0.015625)"/>
       </defs>
       <use xlink:href="#DejaVuSans-32"/>
      </g>
     </g>
    </g>
    <g id="xtick_2">
     <g id="line2d_2">
      <g>
       <use xlink:href="#m25bb1e4b58" x="141.452841" y="231.75824" style="stroke: #000000; stroke-width: 0.8"/>
      </g>
     </g>
     <g id="text_2">
      <!-- 4 -->
      <g transform="translate(138.271591 246.356677) scale(0.1 -0.1)">
       <defs>
        <path id="DejaVuSans-34" d="M 2419 4116 
L 825 1625 
L 2419 1625 
L 2419 4116 
z
M 2253 4666 
L 3047 4666 
L 3047 1625 
L 3713 1625 
L 3713 1100 
L 3047 1100 
L 3047 0 
L 2419 0 
L 2419 1100 
L 313 1100 
L 313 1709 
L 2253 4666 
z
" transform="scale(0.015625)"/>
       </defs>
       <use xlink:href="#DejaVuSans-34"/>
      </g>
     </g>
    </g>
    <g id="xtick_3">
     <g id="line2d_3">
      <g>
       <use xlink:href="#m25bb1e4b58" x="192.180114" y="231.75824" style="stroke: #000000; stroke-width: 0.8"/>
      </g>
     </g>
     <g id="text_3">
      <!-- 6 -->
      <g transform="translate(188.998864 246.356677) scale(0.1 -0.1)">
       <defs>
        <path id="DejaVuSans-36" d="M 2113 2584 
Q 1688 2584 1439 2293 
Q 1191 2003 1191 1497 
Q 1191 994 1439 701 
Q 1688 409 2113 409 
Q 2538 409 2786 701 
Q 3034 994 3034 1497 
Q 3034 2003 2786 2293 
Q 2538 2584 2113 2584 
z
M 3366 4563 
L 3366 3988 
Q 3128 4100 2886 4159 
Q 2644 4219 2406 4219 
Q 1781 4219 1451 3797 
Q 1122 3375 1075 2522 
Q 1259 2794 1537 2939 
Q 1816 3084 2150 3084 
Q 2853 3084 3261 2657 
Q 3669 2231 3669 1497 
Q 3669 778 3244 343 
Q 2819 -91 2113 -91 
Q 1303 -91 875 529 
Q 447 1150 447 2328 
Q 447 3434 972 4092 
Q 1497 4750 2381 4750 
Q 2619 4750 2861 4703 
Q 3103 4656 3366 4563 
z
" transform="scale(0.015625)"/>
       </defs>
       <use xlink:href="#DejaVuSans-36"/>
      </g>
     </g>
    </g>
    <g id="xtick_4">
     <g id="line2d_4">
      <g>
       <use xlink:href="#m25bb1e4b58" x="242.907386" y="231.75824" style="stroke: #000000; stroke-width: 0.8"/>
      </g>
     </g>
     <g id="text_4">
      <!-- 8 -->
      <g transform="translate(239.726136 246.356677) scale(0.1 -0.1)">
       <defs>
        <path id="DejaVuSans-38" d="M 2034 2216 
Q 1584 2216 1326 1975 
Q 1069 1734 1069 1313 
Q 1069 891 1326 650 
Q 1584 409 2034 409 
Q 2484 409 2743 651 
Q 3003 894 3003 1313 
Q 3003 1734 2745 1975 
Q 2488 2216 2034 2216 
z
M 1403 2484 
Q 997 2584 770 2862 
Q 544 3141 544 3541 
Q 544 4100 942 4425 
Q 1341 4750 2034 4750 
Q 2731 4750 3128 4425 
Q 3525 4100 3525 3541 
Q 3525 3141 3298 2862 
Q 3072 2584 2669 2484 
Q 3125 2378 3379 2068 
Q 3634 1759 3634 1313 
Q 3634 634 3220 271 
Q 2806 -91 2034 -91 
Q 1263 -91 848 271 
Q 434 634 434 1313 
Q 434 1759 690 2068 
Q 947 2378 1403 2484 
z
M 1172 3481 
Q 1172 3119 1398 2916 
Q 1625 2713 2034 2713 
Q 2441 2713 2670 2916 
Q 2900 3119 2900 3481 
Q 2900 3844 2670 4047 
Q 2441 4250 2034 4250 
Q 1625 4250 1398 4047 
Q 1172 3844 1172 3481 
z
" transform="scale(0.015625)"/>
       </defs>
       <use xlink:href="#DejaVuSans-38"/>
      </g>
     </g>
    </g>
    <g id="xtick_5">
     <g id="line2d_5">
      <g>
       <use xlink:href="#m25bb1e4b58" x="293.634659" y="231.75824" style="stroke: #000000; stroke-width: 0.8"/>
      </g>
     </g>
     <g id="text_5">
      <!-- 10 -->
      <g transform="translate(287.272159 246.356677) scale(0.1 -0.1)">
       <defs>
        <path id="DejaVuSans-31" d="M 794 531 
L 1825 531 
L 1825 4091 
L 703 3866 
L 703 4441 
L 1819 4666 
L 2450 4666 
L 2450 531 
L 3481 531 
L 3481 0 
L 794 0 
L 794 531 
z
" transform="scale(0.015625)"/>
        <path id="DejaVuSans-30" d="M 2034 4250 
Q 1547 4250 1301 3770 
Q 1056 3291 1056 2328 
Q 1056 1369 1301 889 
Q 1547 409 2034 409 
Q 2525 409 2770 889 
Q 3016 1369 3016 2328 
Q 3016 3291 2770 3770 
Q 2525 4250 2034 4250 
z
M 2034 4750 
Q 2819 4750 3233 4129 
Q 3647 3509 3647 2328 
Q 3647 1150 3233 529 
Q 2819 -91 2034 -91 
Q 1250 -91 836 529 
Q 422 1150 422 2328 
Q 422 3509 836 4129 
Q 1250 4750 2034 4750 
z
" transform="scale(0.015625)"/>
       </defs>
       <use xlink:href="#DejaVuSans-31"/>
       <use xlink:href="#DejaVuSans-30" transform="translate(63.623047 0)"/>
      </g>
     </g>
    </g>
    <g id="xtick_6">
     <g id="line2d_6">
      <g>
       <use xlink:href="#m25bb1e4b58" x="344.361932" y="231.75824" style="stroke: #000000; stroke-width: 0.8"/>
      </g>
     </g>
     <g id="text_6">
      <!-- 12 -->
      <g transform="translate(337.999432 246.356677) scale(0.1 -0.1)">
       <use xlink:href="#DejaVuSans-31"/>
       <use xlink:href="#DejaVuSans-32" transform="translate(63.623047 0)"/>
      </g>
     </g>
    </g>
    <g id="text_7">
     <!-- wavelength [Å] -->
     <g transform="translate(179.50625 261.719177) scale(0.1 -0.1)">
      <defs>
       <path id="DejaVuSans-77" d="M 269 3500 
L 844 3500 
L 1563 769 
L 2278 3500 
L 2956 3500 
L 3675 769 
L 4391 3500 
L 4966 3500 
L 4050 0 
L 3372 0 
L 2619 2869 
L 1863 0 
L 1184 0 
L 269 3500 
z
" transform="scale(0.015625)"/>
       <path id="DejaVuSans-61" d="M 2194 1759 
Q 1497 1759 1228 1600 
Q 959 1441 959 1056 
Q 959 750 1161 570 
Q 1363 391 1709 391 
Q 2188 391 2477 730 
Q 2766 1069 2766 1631 
L 2766 1759 
L 2194 1759 
z
M 3341 1997 
L 3341 0 
L 2766 0 
L 2766 531 
Q 2569 213 2275 61 
Q 1981 -91 1556 -91 
Q 1019 -91 701 211 
Q 384 513 384 1019 
Q 384 1609 779 1909 
Q 1175 2209 1959 2209 
L 2766 2209 
L 2766 2266 
Q 2766 2663 2505 2880 
Q 2244 3097 1772 3097 
Q 1472 3097 1187 3025 
Q 903 2953 641 2809 
L 641 3341 
Q 956 3463 1253 3523 
Q 1550 3584 1831 3584 
Q 2591 3584 2966 3190 
Q 3341 2797 3341 1997 
z
" transform="scale(0.015625)"/>
       <path id="DejaVuSans-76" d="M 191 3500 
L 800 3500 
L 1894 563 
L 2988 3500 
L 3597 3500 
L 2284 0 
L 1503 0 
L 191 3500 
z
" transform="scale(0.015625)"/>
       <path id="DejaVuSans-65" d="M 3597 1894 
L 3597 1613 
L 953 1613 
Q 991 1019 1311 708 
Q 1631 397 2203 397 
Q 2534 397 2845 478 
Q 3156 559 3463 722 
L 3463 178 
Q 3153 47 2828 -22 
Q 2503 -91 2169 -91 
Q 1331 -91 842 396 
Q 353 884 353 1716 
Q 353 2575 817 3079 
Q 1281 3584 2069 3584 
Q 2775 3584 3186 3129 
Q 3597 2675 3597 1894 
z
M 3022 2063 
Q 3016 2534 2758 2815 
Q 2500 3097 2075 3097 
Q 1594 3097 1305 2825 
Q 1016 2553 972 2059 
L 3022 2063 
z
" transform="scale(0.015625)"/>
       <path id="DejaVuSans-6c" d="M 603 4863 
L 1178 4863 
L 1178 0 
L 603 0 
L 603 4863 
z
" transform="scale(0.015625)"/>
       <path id="DejaVuSans-6e" d="M 3513 2113 
L 3513 0 
L 2938 0 
L 2938 2094 
Q 2938 2591 2744 2837 
Q 2550 3084 2163 3084 
Q 1697 3084 1428 2787 
Q 1159 2491 1159 1978 
L 1159 0 
L 581 0 
L 581 3500 
L 1159 3500 
L 1159 2956 
Q 1366 3272 1645 3428 
Q 1925 3584 2291 3584 
Q 2894 3584 3203 3211 
Q 3513 2838 3513 2113 
z
" transform="scale(0.015625)"/>
       <path id="DejaVuSans-67" d="M 2906 1791 
Q 2906 2416 2648 2759 
Q 2391 3103 1925 3103 
Q 1463 3103 1205 2759 
Q 947 2416 947 1791 
Q 947 1169 1205 825 
Q 1463 481 1925 481 
Q 2391 481 2648 825 
Q 2906 1169 2906 1791 
z
M 3481 434 
Q 3481 -459 3084 -895 
Q 2688 -1331 1869 -1331 
Q 1566 -1331 1297 -1286 
Q 1028 -1241 775 -1147 
L 775 -588 
Q 1028 -725 1275 -790 
Q 1522 -856 1778 -856 
Q 2344 -856 2625 -561 
Q 2906 -266 2906 331 
L 2906 616 
Q 2728 306 2450 153 
Q 2172 0 1784 0 
Q 1141 0 747 490 
Q 353 981 353 1791 
Q 353 2603 747 3093 
Q 1141 3584 1784 3584 
Q 2172 3584 2450 3431 
Q 2728 3278 2906 2969 
L 2906 3500 
L 3481 3500 
L 3481 434 
z
" transform="scale(0.015625)"/>
       <path id="DejaVuSans-74" d="M 1172 4494 
L 1172 3500 
L 2356 3500 
L 2356 3053 
L 1172 3053 
L 1172 1153 
Q 1172 725 1289 603 
Q 1406 481 1766 481 
L 2356 481 
L 2356 0 
L 1766 0 
Q 1100 0 847 248 
Q 594 497 594 1153 
L 594 3053 
L 172 3053 
L 172 3500 
L 594 3500 
L 594 4494 
L 1172 4494 
z
" transform="scale(0.015625)"/>
       <path id="DejaVuSans-68" d="M 3513 2113 
L 3513 0 
L 2938 0 
L 2938 2094 
Q 2938 2591 2744 2837 
Q 2550 3084 2163 3084 
Q 1697 3084 1428 2787 
Q 1159 2491 1159 1978 
L 1159 0 
L 581 0 
L 581 4863 
L 1159 4863 
L 1159 2956 
Q 1366 3272 1645 3428 
Q 1925 3584 2291 3584 
Q 2894 3584 3203 3211 
Q 3513 2838 3513 2113 
z
" transform="scale(0.015625)"/>
       <path id="DejaVuSans-20" transform="scale(0.015625)"/>
       <path id="DejaVuSans-5b" d="M 550 4863 
L 1875 4863 
L 1875 4416 
L 1125 4416 
L 1125 -397 
L 1875 -397 
L 1875 -844 
L 550 -844 
L 550 4863 
z
" transform="scale(0.015625)"/>
       <path id="DejaVuSans-c5" d="M 2663 5081 
Q 2663 5278 2523 5417 
Q 2384 5556 2188 5556 
Q 1988 5556 1852 5420 
Q 1716 5284 1716 5081 
Q 1716 4884 1853 4746 
Q 1991 4609 2188 4609 
Q 2384 4609 2523 4746 
Q 2663 4884 2663 5081 
z
M 2188 4044 
L 1338 1722 
L 3041 1722 
L 2188 4044 
z
M 1716 4366 
Q 1525 4494 1428 4673 
Q 1331 4853 1331 5081 
Q 1331 5441 1579 5691 
Q 1828 5941 2188 5941 
Q 2544 5941 2795 5689 
Q 3047 5438 3047 5081 
Q 3047 4863 2948 4678 
Q 2850 4494 2663 4366 
L 4325 0 
L 3669 0 
L 3244 1197 
L 1141 1197 
L 716 0 
L 50 0 
L 1716 4366 
z
" transform="scale(0.015625)"/>
       <path id="DejaVuSans-5d" d="M 1947 4863 
L 1947 -844 
L 622 -844 
L 622 -397 
L 1369 -397 
L 1369 4416 
L 622 4416 
L 622 4863 
L 1947 4863 
z
" transform="scale(0.015625)"/>
      </defs>
      <use xlink:href="#DejaVuSans-77"/>
      <use xlink:href="#DejaVuSans-61" transform="translate(81.787109 0)"/>
      <use xlink:href="#DejaVuSans-76" transform="translate(143.066406 0)"/>
      <use xlink:href="#DejaVuSans-65" transform="translate(202.246094 0)"/>
      <use xlink:href="#DejaVuSans-6c" transform="translate(263.769531 0)"/>
      <use xlink:href="#DejaVuSans-65" transform="translate(291.552734 0)"/>
      <use xlink:href="#DejaVuSans-6e" transform="translate(353.076172 0)"/>
      <use xlink:href="#DejaVuSans-67" transform="translate(416.455078 0)"/>
      <use xlink:href="#DejaVuSans-74" transform="translate(479.931641 0)"/>
      <use xlink:href="#DejaVuSans-68" transform="translate(519.140625 0)"/>
      <use xlink:href="#DejaVuSans-20" transform="translate(582.519531 0)"/>
      <use xlink:href="#DejaVuSans-5b" transform="translate(614.306641 0)"/>
      <use xlink:href="#DejaVuSans-c5" transform="translate(653.320312 0)"/>
      <use xlink:href="#DejaVuSans-5d" transform="translate(721.728516 0)"/>
     </g>
    </g>
   </g>
   <g id="matplotlib.axis_2">
    <g id="ytick_1">
     <g id="line2d_7">
      <defs>
       <path id="m09881cdf35" d="M 0 0 
L -3.5 0 
" style="stroke: #000000; stroke-width: 0.8"/>
      </defs>
      <g>
       <use xlink:href="#m09881cdf35" x="50.14375" y="219.319534" style="stroke: #000000; stroke-width: 0.8"/>
      </g>
     </g>
     <g id="text_8">
      <!-- 0.55 -->
      <g transform="translate(20.878125 223.118753) scale(0.1 -0.1)">
       <defs>
        <path id="DejaVuSans-2e" d="M 684 794 
L 1344 794 
L 1344 0 
L 684 0 
L 684 794 
z
" transform="scale(0.015625)"/>
        <path id="DejaVuSans-35" d="M 691 4666 
L 3169 4666 
L 3169 4134 
L 1269 4134 
L 1269 2991 
Q 1406 3038 1543 3061 
Q 1681 3084 1819 3084 
Q 2600 3084 3056 2656 
Q 3513 2228 3513 1497 
Q 3513 744 3044 326 
Q 2575 -91 1722 -91 
Q 1428 -91 1123 -41 
Q 819 9 494 109 
L 494 744 
Q 775 591 1075 516 
Q 1375 441 1709 441 
Q 2250 441 2565 725 
Q 2881 1009 2881 1497 
Q 2881 1984 2565 2268 
Q 2250 2553 1709 2553 
Q 1456 2553 1204 2497 
Q 953 2441 691 2322 
L 691 4666 
z
" transform="scale(0.015625)"/>
       </defs>
       <use xlink:href="#DejaVuSans-30"/>
       <use xlink:href="#DejaVuSans-2e" transform="translate(63.623047 0)"/>
       <use xlink:href="#DejaVuSans-35" transform="translate(95.410156 0)"/>
       <use xlink:href="#DejaVuSans-35" transform="translate(159.033203 0)"/>
      </g>
     </g>
    </g>
    <g id="ytick_2">
     <g id="line2d_8">
      <g>
       <use xlink:href="#m09881cdf35" x="50.14375" y="193.279495" style="stroke: #000000; stroke-width: 0.8"/>
      </g>
     </g>
     <g id="text_9">
      <!-- 0.60 -->
      <g transform="translate(20.878125 197.078713) scale(0.1 -0.1)">
       <use xlink:href="#DejaVuSans-30"/>
       <use xlink:href="#DejaVuSans-2e" transform="translate(63.623047 0)"/>
       <use xlink:href="#DejaVuSans-36" transform="translate(95.410156 0)"/>
       <use xlink:href="#DejaVuSans-30" transform="translate(159.033203 0)"/>
      </g>
     </g>
    </g>
    <g id="ytick_3">
     <g id="line2d_9">
      <g>
       <use xlink:href="#m09881cdf35" x="50.14375" y="167.239455" style="stroke: #000000; stroke-width: 0.8"/>
      </g>
     </g>
     <g id="text_10">
      <!-- 0.65 -->
      <g transform="translate(20.878125 171.038674) scale(0.1 -0.1)">
       <use xlink:href="#DejaVuSans-30"/>
       <use xlink:href="#DejaVuSans-2e" transform="translate(63.623047 0)"/>
       <use xlink:href="#DejaVuSans-36" transform="translate(95.410156 0)"/>
       <use xlink:href="#DejaVuSans-35" transform="translate(159.033203 0)"/>
      </g>
     </g>
    </g>
    <g id="ytick_4">
     <g id="line2d_10">
      <g>
       <use xlink:href="#m09881cdf35" x="50.14375" y="141.199416" style="stroke: #000000; stroke-width: 0.8"/>
      </g>
     </g>
     <g id="text_11">
      <!-- 0.70 -->
      <g transform="translate(20.878125 144.998635) scale(0.1 -0.1)">
       <defs>
        <path id="DejaVuSans-37" d="M 525 4666 
L 3525 4666 
L 3525 4397 
L 1831 0 
L 1172 0 
L 2766 4134 
L 525 4134 
L 525 4666 
z
" transform="scale(0.015625)"/>
       </defs>
       <use xlink:href="#DejaVuSans-30"/>
       <use xlink:href="#DejaVuSans-2e" transform="translate(63.623047 0)"/>
       <use xlink:href="#DejaVuSans-37" transform="translate(95.410156 0)"/>
       <use xlink:href="#DejaVuSans-30" transform="translate(159.033203 0)"/>
      </g>
     </g>
    </g>
    <g id="ytick_5">
     <g id="line2d_11">
      <g>
       <use xlink:href="#m09881cdf35" x="50.14375" y="115.159376" style="stroke: #000000; stroke-width: 0.8"/>
      </g>
     </g>
     <g id="text_12">
      <!-- 0.75 -->
      <g transform="translate(20.878125 118.958595) scale(0.1 -0.1)">
       <use xlink:href="#DejaVuSans-30"/>
       <use xlink:href="#DejaVuSans-2e" transform="translate(63.623047 0)"/>
       <use xlink:href="#DejaVuSans-37" transform="translate(95.410156 0)"/>
       <use xlink:href="#DejaVuSans-35" transform="translate(159.033203 0)"/>
      </g>
     </g>
    </g>
    <g id="ytick_6">
     <g id="line2d_12">
      <g>
       <use xlink:href="#m09881cdf35" x="50.14375" y="89.119337" style="stroke: #000000; stroke-width: 0.8"/>
      </g>
     </g>
     <g id="text_13">
      <!-- 0.80 -->
      <g transform="translate(20.878125 92.918556) scale(0.1 -0.1)">
       <use xlink:href="#DejaVuSans-30"/>
       <use xlink:href="#DejaVuSans-2e" transform="translate(63.623047 0)"/>
       <use xlink:href="#DejaVuSans-38" transform="translate(95.410156 0)"/>
       <use xlink:href="#DejaVuSans-30" transform="translate(159.033203 0)"/>
      </g>
     </g>
    </g>
    <g id="ytick_7">
     <g id="line2d_13">
      <g>
       <use xlink:href="#m09881cdf35" x="50.14375" y="63.079298" style="stroke: #000000; stroke-width: 0.8"/>
      </g>
     </g>
     <g id="text_14">
      <!-- 0.85 -->
      <g transform="translate(20.878125 66.878516) scale(0.1 -0.1)">
       <use xlink:href="#DejaVuSans-30"/>
       <use xlink:href="#DejaVuSans-2e" transform="translate(63.623047 0)"/>
       <use xlink:href="#DejaVuSans-38" transform="translate(95.410156 0)"/>
       <use xlink:href="#DejaVuSans-35" transform="translate(159.033203 0)"/>
      </g>
     </g>
    </g>
    <g id="ytick_8">
     <g id="line2d_14">
      <g>
       <use xlink:href="#m09881cdf35" x="50.14375" y="37.039258" style="stroke: #000000; stroke-width: 0.8"/>
      </g>
     </g>
     <g id="text_15">
      <!-- 0.90 -->
      <g transform="translate(20.878125 40.838477) scale(0.1 -0.1)">
       <defs>
        <path id="DejaVuSans-39" d="M 703 97 
L 703 672 
Q 941 559 1184 500 
Q 1428 441 1663 441 
Q 2288 441 2617 861 
Q 2947 1281 2994 2138 
Q 2813 1869 2534 1725 
Q 2256 1581 1919 1581 
Q 1219 1581 811 2004 
Q 403 2428 403 3163 
Q 403 3881 828 4315 
Q 1253 4750 1959 4750 
Q 2769 4750 3195 4129 
Q 3622 3509 3622 2328 
Q 3622 1225 3098 567 
Q 2575 -91 1691 -91 
Q 1453 -91 1209 -44 
Q 966 3 703 97 
z
M 1959 2075 
Q 2384 2075 2632 2365 
Q 2881 2656 2881 3163 
Q 2881 3666 2632 3958 
Q 2384 4250 1959 4250 
Q 1534 4250 1286 3958 
Q 1038 3666 1038 3163 
Q 1038 2656 1286 2365 
Q 1534 2075 1959 2075 
z
" transform="scale(0.015625)"/>
       </defs>
       <use xlink:href="#DejaVuSans-30"/>
       <use xlink:href="#DejaVuSans-2e" transform="translate(63.623047 0)"/>
       <use xlink:href="#DejaVuSans-39" transform="translate(95.410156 0)"/>
       <use xlink:href="#DejaVuSans-30" transform="translate(159.033203 0)"/>
      </g>
     </g>
    </g>
    <g id="ytick_9">
     <g id="line2d_15">
      <g>
       <use xlink:href="#m09881cdf35" x="50.14375" y="10.999219" style="stroke: #000000; stroke-width: 0.8"/>
      </g>
     </g>
     <g id="text_16">
      <!-- 0.95 -->
      <g transform="translate(20.878125 14.798438) scale(0.1 -0.1)">
       <use xlink:href="#DejaVuSans-30"/>
       <use xlink:href="#DejaVuSans-2e" transform="translate(63.623047 0)"/>
       <use xlink:href="#DejaVuSans-39" transform="translate(95.410156 0)"/>
       <use xlink:href="#DejaVuSans-35" transform="translate(159.033203 0)"/>
      </g>
     </g>
    </g>
    <g id="text_17">
     <!-- [dimensionless] -->
     <g transform="translate(14.798438 160.355584) rotate(-90) scale(0.1 -0.1)">
      <defs>
       <path id="DejaVuSans-64" d="M 2906 2969 
L 2906 4863 
L 3481 4863 
L 3481 0 
L 2906 0 
L 2906 525 
Q 2725 213 2448 61 
Q 2172 -91 1784 -91 
Q 1150 -91 751 415 
Q 353 922 353 1747 
Q 353 2572 751 3078 
Q 1150 3584 1784 3584 
Q 2172 3584 2448 3432 
Q 2725 3281 2906 2969 
z
M 947 1747 
Q 947 1113 1208 752 
Q 1469 391 1925 391 
Q 2381 391 2643 752 
Q 2906 1113 2906 1747 
Q 2906 2381 2643 2742 
Q 2381 3103 1925 3103 
Q 1469 3103 1208 2742 
Q 947 2381 947 1747 
z
" transform="scale(0.015625)"/>
       <path id="DejaVuSans-69" d="M 603 3500 
L 1178 3500 
L 1178 0 
L 603 0 
L 603 3500 
z
M 603 4863 
L 1178 4863 
L 1178 4134 
L 603 4134 
L 603 4863 
z
" transform="scale(0.015625)"/>
       <path id="DejaVuSans-6d" d="M 3328 2828 
Q 3544 3216 3844 3400 
Q 4144 3584 4550 3584 
Q 5097 3584 5394 3201 
Q 5691 2819 5691 2113 
L 5691 0 
L 5113 0 
L 5113 2094 
Q 5113 2597 4934 2840 
Q 4756 3084 4391 3084 
Q 3944 3084 3684 2787 
Q 3425 2491 3425 1978 
L 3425 0 
L 2847 0 
L 2847 2094 
Q 2847 2600 2669 2842 
Q 2491 3084 2119 3084 
Q 1678 3084 1418 2786 
Q 1159 2488 1159 1978 
L 1159 0 
L 581 0 
L 581 3500 
L 1159 3500 
L 1159 2956 
Q 1356 3278 1631 3431 
Q 1906 3584 2284 3584 
Q 2666 3584 2933 3390 
Q 3200 3197 3328 2828 
z
" transform="scale(0.015625)"/>
       <path id="DejaVuSans-73" d="M 2834 3397 
L 2834 2853 
Q 2591 2978 2328 3040 
Q 2066 3103 1784 3103 
Q 1356 3103 1142 2972 
Q 928 2841 928 2578 
Q 928 2378 1081 2264 
Q 1234 2150 1697 2047 
L 1894 2003 
Q 2506 1872 2764 1633 
Q 3022 1394 3022 966 
Q 3022 478 2636 193 
Q 2250 -91 1575 -91 
Q 1294 -91 989 -36 
Q 684 19 347 128 
L 347 722 
Q 666 556 975 473 
Q 1284 391 1588 391 
Q 1994 391 2212 530 
Q 2431 669 2431 922 
Q 2431 1156 2273 1281 
Q 2116 1406 1581 1522 
L 1381 1569 
Q 847 1681 609 1914 
Q 372 2147 372 2553 
Q 372 3047 722 3315 
Q 1072 3584 1716 3584 
Q 2034 3584 2315 3537 
Q 2597 3491 2834 3397 
z
" transform="scale(0.015625)"/>
       <path id="DejaVuSans-6f" d="M 1959 3097 
Q 1497 3097 1228 2736 
Q 959 2375 959 1747 
Q 959 1119 1226 758 
Q 1494 397 1959 397 
Q 2419 397 2687 759 
Q 2956 1122 2956 1747 
Q 2956 2369 2687 2733 
Q 2419 3097 1959 3097 
z
M 1959 3584 
Q 2709 3584 3137 3096 
Q 3566 2609 3566 1747 
Q 3566 888 3137 398 
Q 2709 -91 1959 -91 
Q 1206 -91 779 398 
Q 353 888 353 1747 
Q 353 2609 779 3096 
Q 1206 3584 1959 3584 
z
" transform="scale(0.015625)"/>
      </defs>
      <use xlink:href="#DejaVuSans-5b"/>
      <use xlink:href="#DejaVuSans-64" transform="translate(39.013672 0)"/>
      <use xlink:href="#DejaVuSans-69" transform="translate(102.490234 0)"/>
      <use xlink:href="#DejaVuSans-6d" transform="translate(130.273438 0)"/>
      <use xlink:href="#DejaVuSans-65" transform="translate(227.685547 0)"/>
      <use xlink:href="#DejaVuSans-6e" transform="translate(289.208984 0)"/>
      <use xlink:href="#DejaVuSans-73" transform="translate(352.587891 0)"/>
      <use xlink:href="#DejaVuSans-69" transform="translate(404.6875 0)"/>
      <use xlink:href="#DejaVuSans-6f" transform="translate(432.470703 0)"/>
      <use xlink:href="#DejaVuSans-6e" transform="translate(493.652344 0)"/>
      <use xlink:href="#DejaVuSans-6c" transform="translate(557.03125 0)"/>
      <use xlink:href="#DejaVuSans-65" transform="translate(584.814453 0)"/>
      <use xlink:href="#DejaVuSans-73" transform="translate(646.337891 0)"/>
      <use xlink:href="#DejaVuSans-73" transform="translate(698.4375 0)"/>
      <use xlink:href="#DejaVuSans-5d" transform="translate(750.537109 0)"/>
     </g>
    </g>
   </g>
   <g id="line2d_16">
    <path d="M 65.361932 32.868137 
L 66.88375 32.868137 
L 66.88375 46.790478 
L 68.405568 46.790478 
L 68.405568 60.907825 
L 69.927386 60.907825 
L 69.927386 54.604407 
L 71.449205 54.604407 
L 71.449205 56.131401 
L 72.971023 56.131401 
L 72.971023 51.922955 
L 74.492841 51.922955 
L 74.492841 63.277334 
L 76.014659 63.277334 
L 76.014659 60.57378 
L 77.536477 60.57378 
L 77.536477 75.287199 
L 79.058295 75.287199 
L 79.058295 78.303005 
L 80.580114 78.303005 
L 80.580114 79.29235 
L 82.101932 79.29235 
L 82.101932 72.914275 
L 83.62375 72.914275 
L 83.62375 77.803661 
L 85.145568 77.803661 
L 85.145568 86.091294 
L 86.667386 86.091294 
L 86.667386 78.903019 
L 88.189205 78.903019 
L 88.189205 80.567095 
L 89.711023 80.567095 
L 89.711023 77.366371 
L 91.232841 77.366371 
L 91.232841 84.55598 
L 92.754659 84.55598 
L 92.754659 89.834138 
L 94.276477 89.834138 
L 94.276477 87.567472 
L 95.798295 87.567472 
L 95.798295 86.735387 
L 97.320114 86.735387 
L 97.320114 84.928703 
L 98.841932 84.928703 
L 98.841932 88.750271 
L 100.36375 88.750271 
L 100.36375 84.941337 
L 101.885568 84.941337 
L 101.885568 87.087374 
L 103.407386 87.087374 
L 103.407386 83.321962 
L 104.929205 83.321962 
L 104.929205 91.796995 
L 106.451023 91.796995 
L 106.451023 84.016623 
L 107.972841 84.016623 
L 107.972841 85.147985 
L 109.494659 85.147985 
L 109.494659 99.51311 
L 111.016477 99.51311 
L 111.016477 92.791865 
L 112.538295 92.791865 
L 112.538295 88.549832 
L 114.060114 88.549832 
L 114.060114 91.197913 
L 115.581932 91.197913 
L 115.581932 93.667595 
L 117.10375 93.667595 
L 117.10375 91.267727 
L 118.625568 91.267727 
L 118.625568 94.205804 
L 120.147386 94.205804 
L 120.147386 90.911363 
L 121.669205 90.911363 
L 121.669205 94.554469 
L 123.191023 94.554469 
L 123.191023 93.650739 
L 124.712841 93.650739 
L 124.712841 96.466883 
L 126.234659 96.466883 
L 126.234659 101.152912 
L 127.756477 101.152912 
L 127.756477 97.924932 
L 129.278295 97.924932 
L 129.278295 95.114594 
L 130.800114 95.114594 
L 130.800114 99.138028 
L 132.321932 99.138028 
L 132.321932 106.521496 
L 133.84375 106.521496 
L 133.84375 97.636923 
L 135.365568 97.636923 
L 135.365568 98.044755 
L 136.887386 98.044755 
L 136.887386 104.919907 
L 138.409205 104.919907 
L 138.409205 112.669082 
L 139.931023 112.669082 
L 139.931023 107.546104 
L 141.452841 107.546104 
L 141.452841 105.554967 
L 142.974659 105.554967 
L 142.974659 107.328964 
L 144.496477 107.328964 
L 144.496477 108.40771 
L 146.018295 108.40771 
L 146.018295 109.588118 
L 147.540114 109.588118 
L 147.540114 111.881295 
L 149.061932 111.881295 
L 149.061932 109.987227 
L 150.58375 109.987227 
L 150.58375 108.889701 
L 152.105568 108.889701 
L 152.105568 106.075513 
L 153.627386 106.075513 
L 153.627386 111.615667 
L 155.149205 111.615667 
L 155.149205 107.971878 
L 156.671023 107.971878 
L 156.671023 111.440558 
L 158.192841 111.440558 
L 158.192841 110.835268 
L 159.714659 110.835268 
L 159.714659 114.533039 
L 161.236477 114.533039 
L 161.236477 114.775292 
L 162.758295 114.775292 
L 162.758295 125.770793 
L 164.280114 125.770793 
L 164.280114 108.559288 
L 165.801932 108.559288 
L 165.801932 108.823426 
L 167.32375 108.823426 
L 167.32375 113.937216 
L 168.845568 113.937216 
L 168.845568 116.165577 
L 170.367386 116.165577 
L 170.367386 110.214083 
L 171.889205 110.214083 
L 171.889205 121.536085 
L 173.411023 121.536085 
L 173.411023 111.325019 
L 174.932841 111.325019 
L 174.932841 110.322575 
L 176.454659 110.322575 
L 176.454659 115.35162 
L 177.976477 115.35162 
L 177.976477 117.010854 
L 179.498295 117.010854 
L 179.498295 119.954115 
L 181.020114 119.954115 
L 181.020114 121.269806 
L 182.541932 121.269806 
L 182.541932 121.61934 
L 184.06375 121.61934 
L 184.06375 125.972504 
L 185.585568 125.972504 
L 185.585568 115.300711 
L 187.107386 115.300711 
L 187.107386 126.944838 
L 188.629205 126.944838 
L 188.629205 127.211117 
L 190.151023 127.211117 
L 190.151023 125.67422 
L 191.672841 125.67422 
L 191.672841 134.048553 
L 193.194659 134.048553 
L 193.194659 128.220359 
L 194.716477 128.220359 
L 194.716477 127.62019 
L 196.238295 127.62019 
L 196.238295 123.982703 
L 197.760114 123.982703 
L 197.760114 123.7059 
L 199.281932 123.7059 
L 199.281932 130.377075 
L 200.80375 130.377075 
L 200.80375 118.186048 
L 202.325568 118.186048 
L 202.325568 134.788039 
L 203.847386 134.788039 
L 203.847386 130.260294 
L 205.369205 130.260294 
L 205.369205 131.200157 
L 206.891023 131.200157 
L 206.891023 136.08765 
L 208.412841 136.08765 
L 208.412841 132.794016 
L 209.934659 132.794016 
L 209.934659 134.026265 
L 211.456477 134.026265 
L 211.456477 131.28068 
L 212.978295 131.28068 
L 212.978295 134.544421 
L 214.500114 134.544421 
L 214.500114 132.484153 
L 216.021932 132.484153 
L 216.021932 147.374698 
L 217.54375 147.374698 
L 217.54375 133.312668 
L 219.065568 133.312668 
L 219.065568 142.348354 
L 220.587386 142.348354 
L 220.587386 146.277296 
L 222.109205 146.277296 
L 222.109205 139.30731 
L 223.631023 139.30731 
L 223.631023 139.421731 
L 225.152841 139.421731 
L 225.152841 141.228415 
L 226.674659 141.228415 
L 226.674659 144.695047 
L 228.196477 144.695047 
L 228.196477 145.822839 
L 229.718295 145.822839 
L 229.718295 149.047932 
L 231.240114 149.047932 
L 231.240114 143.4 
L 232.761932 143.4 
L 232.761932 147.72982 
L 234.28375 147.72982 
L 234.28375 142.973139 
L 235.805568 142.973139 
L 235.805568 153.802254 
L 237.327386 153.802254 
L 237.327386 148.259089 
L 238.849205 148.259089 
L 238.849205 142.197117 
L 240.371023 142.197117 
L 240.371023 150.722221 
L 241.892841 150.722221 
L 241.892841 139.41661 
L 243.414659 139.41661 
L 243.414659 140.535027 
L 244.936477 140.535027 
L 244.936477 144.036705 
L 246.458295 144.036705 
L 246.458295 148.314965 
L 247.980114 148.314965 
L 247.980114 153.902768 
L 249.501932 153.902768 
L 249.501932 140.699271 
L 251.02375 140.699271 
L 251.02375 146.321221 
L 252.545568 146.321221 
L 252.545568 148.485138 
L 254.067386 148.485138 
L 254.067386 142.372505 
L 255.589205 142.372505 
L 255.589205 145.28224 
L 257.111023 145.28224 
L 257.111023 151.554803 
L 258.632841 151.554803 
L 258.632841 147.549683 
L 260.154659 147.549683 
L 260.154659 149.339604 
L 263.198295 149.28795 
L 263.198295 155.516401 
L 264.720114 155.516401 
L 264.720114 147.745062 
L 266.241932 147.745062 
L 266.241932 123.216862 
L 267.76375 123.216862 
L 267.76375 157.286207 
L 269.285568 157.286207 
L 269.285568 163.53049 
L 270.807386 163.53049 
L 270.807386 134.257467 
L 272.329205 134.257467 
L 272.329205 136.501907 
L 273.851023 136.501907 
L 273.851023 160.3302 
L 275.372841 160.3302 
L 275.372841 140.25512 
L 276.894659 140.25512 
L 276.894659 152.478679 
L 278.416477 152.478679 
L 278.416477 159.005694 
L 279.938295 159.005694 
L 279.938295 150.965002 
L 281.460114 150.965002 
L 281.460114 148.423768 
L 282.981932 148.423768 
L 282.981932 174.47533 
L 284.50375 174.47533 
L 284.50375 148.894646 
L 286.025568 148.894646 
L 286.025568 161.830498 
L 287.547386 161.830498 
L 287.547386 154.286418 
L 289.069205 154.286418 
L 289.069205 143.187547 
L 290.591023 143.187547 
L 290.591023 134.604084 
L 292.112841 134.604084 
L 292.112841 159.236958 
L 293.634659 159.236958 
L 293.634659 158.063099 
L 295.156477 158.063099 
L 295.156477 148.395147 
L 296.678295 148.395147 
L 296.678295 153.138014 
L 298.200114 153.138014 
L 298.200114 148.32285 
L 299.721932 148.32285 
L 299.721932 154.905181 
L 301.24375 154.905181 
L 301.24375 155.913275 
L 302.765568 155.913275 
L 302.765568 159.614523 
L 305.809205 159.568643 
L 305.809205 158.282132 
L 307.331023 158.282132 
L 307.331023 178.559886 
L 308.852841 178.559886 
L 308.852841 155.472259 
L 310.374659 155.472259 
L 310.374659 153.369744 
L 311.896477 153.369744 
L 311.896477 163.108938 
L 313.418295 163.108938 
L 313.418295 157.783347 
L 314.940114 157.783347 
L 314.940114 158.926474 
L 316.461932 158.926474 
L 316.461932 160.750573 
L 317.98375 160.750573 
L 317.98375 156.89281 
L 319.505568 156.89281 
L 319.505568 167.199703 
L 321.027386 167.199703 
L 321.027386 155.071071 
L 322.549205 155.071071 
L 322.549205 169.435327 
L 324.071023 169.435327 
L 324.071023 168.96746 
L 325.592841 168.96746 
L 325.592841 180.058912 
L 327.114659 180.058912 
L 327.114659 149.651795 
L 328.636477 149.651795 
L 328.636477 167.134669 
L 330.158295 167.134669 
L 330.158295 151.493308 
L 331.680114 151.493308 
L 331.680114 162.31131 
L 333.201932 162.31131 
L 333.201932 181.617103 
L 334.72375 181.617103 
L 334.72375 182.432394 
L 336.245568 182.432394 
L 336.245568 145.597101 
L 337.767386 145.597101 
L 337.767386 159.315681 
L 339.289205 159.315681 
L 339.289205 138.513469 
L 340.811023 138.513469 
L 340.811023 179.186162 
L 342.332841 179.186162 
L 342.332841 158.488345 
L 343.854659 158.488345 
L 343.854659 182.401476 
L 345.376477 182.401476 
L 345.376477 151.332199 
L 346.898295 151.332199 
L 346.898295 159.905574 
L 348.420114 159.905574 
L 348.420114 181.992899 
L 349.941932 181.992899 
L 349.941932 172.528491 
L 351.46375 172.528491 
L 351.46375 165.49254 
L 352.985568 165.49254 
L 352.985568 123.040667 
L 354.507386 123.040667 
L 354.507386 198.47811 
L 356.029205 198.47811 
L 356.029205 164.457471 
L 357.551023 164.457471 
L 357.551023 171.263275 
L 359.072841 171.263275 
L 359.072841 196.939134 
L 360.594659 196.939134 
L 360.594659 208.040085 
L 362.116477 208.040085 
L 362.116477 181.187169 
L 363.638295 181.187169 
L 363.638295 189.790066 
L 366.681932 189.680797 
L 366.681932 195.804233 
L 368.20375 195.804233 
L 368.20375 173.404407 
L 369.725568 173.404407 
L 369.725568 173.404407 
" clip-path="url(#p45ecd882e2)" style="fill: none; stroke: #1f77b4; stroke-width: 1.5; stroke-linecap: square"/>
   </g>
   <g id="LineCollection_1">
    <path d="M 66.122841 45.658037 
L 66.122841 20.078238 
" clip-path="url(#p45ecd882e2)" style="fill: none; stroke: #1f77b4; stroke-width: 1.5"/>
    <path d="M 67.644659 57.897091 
L 67.644659 35.683865 
" clip-path="url(#p45ecd882e2)" style="fill: none; stroke: #1f77b4; stroke-width: 1.5"/>
    <path d="M 69.166477 70.979376 
L 69.166477 50.836274 
" clip-path="url(#p45ecd882e2)" style="fill: none; stroke: #1f77b4; stroke-width: 1.5"/>
    <path d="M 70.688295 64.352372 
L 70.688295 44.856442 
" clip-path="url(#p45ecd882e2)" style="fill: none; stroke: #1f77b4; stroke-width: 1.5"/>
    <path d="M 72.210114 65.46806 
L 72.210114 46.794742 
" clip-path="url(#p45ecd882e2)" style="fill: none; stroke: #1f77b4; stroke-width: 1.5"/>
    <path d="M 73.731932 60.902606 
L 73.731932 42.943304 
" clip-path="url(#p45ecd882e2)" style="fill: none; stroke: #1f77b4; stroke-width: 1.5"/>
    <path d="M 75.25375 71.67566 
L 75.25375 54.879009 
" clip-path="url(#p45ecd882e2)" style="fill: none; stroke: #1f77b4; stroke-width: 1.5"/>
    <path d="M 76.775568 68.741956 
L 76.775568 52.405605 
" clip-path="url(#p45ecd882e2)" style="fill: none; stroke: #1f77b4; stroke-width: 1.5"/>
    <path d="M 78.297386 82.924694 
L 78.297386 67.649704 
" clip-path="url(#p45ecd882e2)" style="fill: none; stroke: #1f77b4; stroke-width: 1.5"/>
    <path d="M 79.819205 85.644322 
L 79.819205 70.961689 
" clip-path="url(#p45ecd882e2)" style="fill: none; stroke: #1f77b4; stroke-width: 1.5"/>
    <path d="M 81.341023 86.321044 
L 81.341023 72.263656 
" clip-path="url(#p45ecd882e2)" style="fill: none; stroke: #1f77b4; stroke-width: 1.5"/>
    <path d="M 82.862841 79.763281 
L 82.862841 66.065269 
" clip-path="url(#p45ecd882e2)" style="fill: none; stroke: #1f77b4; stroke-width: 1.5"/>
    <path d="M 84.384659 84.301401 
L 84.384659 71.305922 
" clip-path="url(#p45ecd882e2)" style="fill: none; stroke: #1f77b4; stroke-width: 1.5"/>
    <path d="M 85.906477 92.202091 
L 85.906477 79.980496 
" clip-path="url(#p45ecd882e2)" style="fill: none; stroke: #1f77b4; stroke-width: 1.5"/>
    <path d="M 87.428295 84.822129 
L 87.428295 72.983909 
" clip-path="url(#p45ecd882e2)" style="fill: none; stroke: #1f77b4; stroke-width: 1.5"/>
    <path d="M 88.950114 86.116116 
L 88.950114 75.018075 
" clip-path="url(#p45ecd882e2)" style="fill: none; stroke: #1f77b4; stroke-width: 1.5"/>
    <path d="M 90.471932 82.673709 
L 90.471932 72.059032 
" clip-path="url(#p45ecd882e2)" style="fill: none; stroke: #1f77b4; stroke-width: 1.5"/>
    <path d="M 91.99375 89.482159 
L 91.99375 79.629802 
" clip-path="url(#p45ecd882e2)" style="fill: none; stroke: #1f77b4; stroke-width: 1.5"/>
    <path d="M 93.515568 94.410001 
L 93.515568 85.258276 
" clip-path="url(#p45ecd882e2)" style="fill: none; stroke: #1f77b4; stroke-width: 1.5"/>
    <path d="M 95.037386 91.87355 
L 95.037386 83.261394 
" clip-path="url(#p45ecd882e2)" style="fill: none; stroke: #1f77b4; stroke-width: 1.5"/>
    <path d="M 96.559205 90.808378 
L 96.559205 82.662396 
" clip-path="url(#p45ecd882e2)" style="fill: none; stroke: #1f77b4; stroke-width: 1.5"/>
    <path d="M 98.081023 88.791516 
L 98.081023 81.065891 
" clip-path="url(#p45ecd882e2)" style="fill: none; stroke: #1f77b4; stroke-width: 1.5"/>
    <path d="M 99.602841 92.387315 
L 99.602841 85.113226 
" clip-path="url(#p45ecd882e2)" style="fill: none; stroke: #1f77b4; stroke-width: 1.5"/>
    <path d="M 101.124659 88.462892 
L 101.124659 81.419782 
" clip-path="url(#p45ecd882e2)" style="fill: none; stroke: #1f77b4; stroke-width: 1.5"/>
    <path d="M 102.646477 90.449272 
L 102.646477 83.725476 
" clip-path="url(#p45ecd882e2)" style="fill: none; stroke: #1f77b4; stroke-width: 1.5"/>
    <path d="M 104.168295 86.625811 
L 104.168295 80.018112 
" clip-path="url(#p45ecd882e2)" style="fill: none; stroke: #1f77b4; stroke-width: 1.5"/>
    <path d="M 105.690114 94.993608 
L 105.690114 88.600382 
" clip-path="url(#p45ecd882e2)" style="fill: none; stroke: #1f77b4; stroke-width: 1.5"/>
    <path d="M 107.211932 87.248464 
L 107.211932 80.784782 
" clip-path="url(#p45ecd882e2)" style="fill: none; stroke: #1f77b4; stroke-width: 1.5"/>
    <path d="M 108.73375 88.366414 
L 108.73375 81.929556 
" clip-path="url(#p45ecd882e2)" style="fill: none; stroke: #1f77b4; stroke-width: 1.5"/>
    <path d="M 110.255568 102.63091 
L 110.255568 96.395311 
" clip-path="url(#p45ecd882e2)" style="fill: none; stroke: #1f77b4; stroke-width: 1.5"/>
    <path d="M 111.777386 95.983381 
L 111.777386 89.600349 
" clip-path="url(#p45ecd882e2)" style="fill: none; stroke: #1f77b4; stroke-width: 1.5"/>
    <path d="M 113.299205 91.77576 
L 113.299205 85.323903 
" clip-path="url(#p45ecd882e2)" style="fill: none; stroke: #1f77b4; stroke-width: 1.5"/>
    <path d="M 114.821023 94.39872 
L 114.821023 87.997106 
" clip-path="url(#p45ecd882e2)" style="fill: none; stroke: #1f77b4; stroke-width: 1.5"/>
    <path d="M 116.342841 96.86903 
L 116.342841 90.46616 
" clip-path="url(#p45ecd882e2)" style="fill: none; stroke: #1f77b4; stroke-width: 1.5"/>
    <path d="M 117.864659 94.508302 
L 117.864659 88.027151 
" clip-path="url(#p45ecd882e2)" style="fill: none; stroke: #1f77b4; stroke-width: 1.5"/>
    <path d="M 119.386477 97.456967 
L 119.386477 90.954641 
" clip-path="url(#p45ecd882e2)" style="fill: none; stroke: #1f77b4; stroke-width: 1.5"/>
    <path d="M 120.908295 94.219583 
L 120.908295 87.603143 
" clip-path="url(#p45ecd882e2)" style="fill: none; stroke: #1f77b4; stroke-width: 1.5"/>
    <path d="M 122.430114 97.869532 
L 122.430114 91.239407 
" clip-path="url(#p45ecd882e2)" style="fill: none; stroke: #1f77b4; stroke-width: 1.5"/>
    <path d="M 123.951932 97.015394 
L 123.951932 90.286084 
" clip-path="url(#p45ecd882e2)" style="fill: none; stroke: #1f77b4; stroke-width: 1.5"/>
    <path d="M 125.47375 99.841919 
L 125.47375 93.091846 
" clip-path="url(#p45ecd882e2)" style="fill: none; stroke: #1f77b4; stroke-width: 1.5"/>
    <path d="M 126.995568 104.518842 
L 126.995568 97.786981 
" clip-path="url(#p45ecd882e2)" style="fill: none; stroke: #1f77b4; stroke-width: 1.5"/>
    <path d="M 128.517386 101.358258 
L 128.517386 94.491606 
" clip-path="url(#p45ecd882e2)" style="fill: none; stroke: #1f77b4; stroke-width: 1.5"/>
    <path d="M 130.039205 98.611876 
L 130.039205 91.617311 
" clip-path="url(#p45ecd882e2)" style="fill: none; stroke: #1f77b4; stroke-width: 1.5"/>
    <path d="M 131.561023 102.644967 
L 131.561023 95.63109 
" clip-path="url(#p45ecd882e2)" style="fill: none; stroke: #1f77b4; stroke-width: 1.5"/>
    <path d="M 133.082841 110.005089 
L 133.082841 103.037902 
" clip-path="url(#p45ecd882e2)" style="fill: none; stroke: #1f77b4; stroke-width: 1.5"/>
    <path d="M 134.604659 101.237419 
L 134.604659 94.036427 
" clip-path="url(#p45ecd882e2)" style="fill: none; stroke: #1f77b4; stroke-width: 1.5"/>
    <path d="M 136.126477 101.686581 
L 136.126477 94.402929 
" clip-path="url(#p45ecd882e2)" style="fill: none; stroke: #1f77b4; stroke-width: 1.5"/>
    <path d="M 137.648295 108.522426 
L 137.648295 101.317389 
" clip-path="url(#p45ecd882e2)" style="fill: none; stroke: #1f77b4; stroke-width: 1.5"/>
    <path d="M 139.170114 116.23135 
L 139.170114 109.106815 
" clip-path="url(#p45ecd882e2)" style="fill: none; stroke: #1f77b4; stroke-width: 1.5"/>
    <path d="M 140.691932 111.174212 
L 140.691932 103.917996 
" clip-path="url(#p45ecd882e2)" style="fill: none; stroke: #1f77b4; stroke-width: 1.5"/>
    <path d="M 142.21375 109.164534 
L 142.21375 101.945401 
" clip-path="url(#p45ecd882e2)" style="fill: none; stroke: #1f77b4; stroke-width: 1.5"/>
    <path d="M 143.735568 110.9081 
L 143.735568 103.749828 
" clip-path="url(#p45ecd882e2)" style="fill: none; stroke: #1f77b4; stroke-width: 1.5"/>
    <path d="M 145.257386 111.962378 
L 145.257386 104.853041 
" clip-path="url(#p45ecd882e2)" style="fill: none; stroke: #1f77b4; stroke-width: 1.5"/>
    <path d="M 146.779205 113.166819 
L 146.779205 106.009417 
" clip-path="url(#p45ecd882e2)" style="fill: none; stroke: #1f77b4; stroke-width: 1.5"/>
    <path d="M 148.301023 115.456042 
L 148.301023 108.306548 
" clip-path="url(#p45ecd882e2)" style="fill: none; stroke: #1f77b4; stroke-width: 1.5"/>
    <path d="M 149.822841 113.615611 
L 149.822841 106.358843 
" clip-path="url(#p45ecd882e2)" style="fill: none; stroke: #1f77b4; stroke-width: 1.5"/>
    <path d="M 151.344659 112.549845 
L 151.344659 105.229557 
" clip-path="url(#p45ecd882e2)" style="fill: none; stroke: #1f77b4; stroke-width: 1.5"/>
    <path d="M 152.866477 109.79451 
L 152.866477 102.356516 
" clip-path="url(#p45ecd882e2)" style="fill: none; stroke: #1f77b4; stroke-width: 1.5"/>
    <path d="M 154.388295 115.308932 
L 154.388295 107.922402 
" clip-path="url(#p45ecd882e2)" style="fill: none; stroke: #1f77b4; stroke-width: 1.5"/>
    <path d="M 155.910114 111.742895 
L 155.910114 104.200861 
" clip-path="url(#p45ecd882e2)" style="fill: none; stroke: #1f77b4; stroke-width: 1.5"/>
    <path d="M 157.431932 115.218881 
L 157.431932 107.662236 
" clip-path="url(#p45ecd882e2)" style="fill: none; stroke: #1f77b4; stroke-width: 1.5"/>
    <path d="M 158.95375 114.643013 
L 158.95375 107.027522 
" clip-path="url(#p45ecd882e2)" style="fill: none; stroke: #1f77b4; stroke-width: 1.5"/>
    <path d="M 160.475568 118.335181 
L 160.475568 110.730897 
" clip-path="url(#p45ecd882e2)" style="fill: none; stroke: #1f77b4; stroke-width: 1.5"/>
    <path d="M 161.997386 118.594962 
L 161.997386 110.955622 
" clip-path="url(#p45ecd882e2)" style="fill: none; stroke: #1f77b4; stroke-width: 1.5"/>
    <path d="M 163.519205 129.539162 
L 163.519205 122.002423 
" clip-path="url(#p45ecd882e2)" style="fill: none; stroke: #1f77b4; stroke-width: 1.5"/>
    <path d="M 165.041023 112.541476 
L 165.041023 104.577101 
" clip-path="url(#p45ecd882e2)" style="fill: none; stroke: #1f77b4; stroke-width: 1.5"/>
    <path d="M 166.562841 112.841448 
L 166.562841 104.805404 
" clip-path="url(#p45ecd882e2)" style="fill: none; stroke: #1f77b4; stroke-width: 1.5"/>
    <path d="M 168.084659 117.954423 
L 168.084659 109.920009 
" clip-path="url(#p45ecd882e2)" style="fill: none; stroke: #1f77b4; stroke-width: 1.5"/>
    <path d="M 169.606477 120.210303 
L 169.606477 112.12085 
" clip-path="url(#p45ecd882e2)" style="fill: none; stroke: #1f77b4; stroke-width: 1.5"/>
    <path d="M 171.128295 114.389989 
L 171.128295 106.038178 
" clip-path="url(#p45ecd882e2)" style="fill: none; stroke: #1f77b4; stroke-width: 1.5"/>
    <path d="M 172.650114 125.635346 
L 172.650114 117.436824 
" clip-path="url(#p45ecd882e2)" style="fill: none; stroke: #1f77b4; stroke-width: 1.5"/>
    <path d="M 174.171932 115.580563 
L 174.171932 107.069476 
" clip-path="url(#p45ecd882e2)" style="fill: none; stroke: #1f77b4; stroke-width: 1.5"/>
    <path d="M 175.69375 114.669367 
L 175.69375 105.975784 
" clip-path="url(#p45ecd882e2)" style="fill: none; stroke: #1f77b4; stroke-width: 1.5"/>
    <path d="M 177.215568 119.690641 
L 177.215568 111.0126 
" clip-path="url(#p45ecd882e2)" style="fill: none; stroke: #1f77b4; stroke-width: 1.5"/>
    <path d="M 178.737386 121.380144 
L 178.737386 112.641564 
" clip-path="url(#p45ecd882e2)" style="fill: none; stroke: #1f77b4; stroke-width: 1.5"/>
    <path d="M 180.259205 124.35704 
L 180.259205 115.55119 
" clip-path="url(#p45ecd882e2)" style="fill: none; stroke: #1f77b4; stroke-width: 1.5"/>
    <path d="M 181.781023 125.720952 
L 181.781023 116.818659 
" clip-path="url(#p45ecd882e2)" style="fill: none; stroke: #1f77b4; stroke-width: 1.5"/>
    <path d="M 183.302841 126.127039 
L 183.302841 117.111641 
" clip-path="url(#p45ecd882e2)" style="fill: none; stroke: #1f77b4; stroke-width: 1.5"/>
    <path d="M 184.824659 130.480582 
L 184.824659 121.464427 
" clip-path="url(#p45ecd882e2)" style="fill: none; stroke: #1f77b4; stroke-width: 1.5"/>
    <path d="M 186.346477 119.994894 
L 186.346477 110.606529 
" clip-path="url(#p45ecd882e2)" style="fill: none; stroke: #1f77b4; stroke-width: 1.5"/>
    <path d="M 187.868295 131.569634 
L 187.868295 122.320041 
" clip-path="url(#p45ecd882e2)" style="fill: none; stroke: #1f77b4; stroke-width: 1.5"/>
    <path d="M 189.390114 131.872918 
L 189.390114 122.549316 
" clip-path="url(#p45ecd882e2)" style="fill: none; stroke: #1f77b4; stroke-width: 1.5"/>
    <path d="M 190.911932 130.42185 
L 190.911932 120.926591 
" clip-path="url(#p45ecd882e2)" style="fill: none; stroke: #1f77b4; stroke-width: 1.5"/>
    <path d="M 192.43375 138.775615 
L 192.43375 129.321492 
" clip-path="url(#p45ecd882e2)" style="fill: none; stroke: #1f77b4; stroke-width: 1.5"/>
    <path d="M 193.955568 133.083723 
L 193.955568 123.356996 
" clip-path="url(#p45ecd882e2)" style="fill: none; stroke: #1f77b4; stroke-width: 1.5"/>
    <path d="M 195.477386 132.553697 
L 195.477386 122.686684 
" clip-path="url(#p45ecd882e2)" style="fill: none; stroke: #1f77b4; stroke-width: 1.5"/>
    <path d="M 196.999205 129.042971 
L 196.999205 118.922434 
" clip-path="url(#p45ecd882e2)" style="fill: none; stroke: #1f77b4; stroke-width: 1.5"/>
    <path d="M 198.521023 128.830714 
L 198.521023 118.581086 
" clip-path="url(#p45ecd882e2)" style="fill: none; stroke: #1f77b4; stroke-width: 1.5"/>
    <path d="M 200.042841 135.478138 
L 200.042841 125.276011 
" clip-path="url(#p45ecd882e2)" style="fill: none; stroke: #1f77b4; stroke-width: 1.5"/>
    <path d="M 201.564659 123.531384 
L 201.564659 112.840711 
" clip-path="url(#p45ecd882e2)" style="fill: none; stroke: #1f77b4; stroke-width: 1.5"/>
    <path d="M 203.086477 139.956525 
L 203.086477 129.619554 
" clip-path="url(#p45ecd882e2)" style="fill: none; stroke: #1f77b4; stroke-width: 1.5"/>
    <path d="M 204.608295 135.601792 
L 204.608295 124.918796 
" clip-path="url(#p45ecd882e2)" style="fill: none; stroke: #1f77b4; stroke-width: 1.5"/>
    <path d="M 206.130114 136.584229 
L 206.130114 125.816085 
" clip-path="url(#p45ecd882e2)" style="fill: none; stroke: #1f77b4; stroke-width: 1.5"/>
    <path d="M 207.651932 141.47547 
L 207.651932 130.699829 
" clip-path="url(#p45ecd882e2)" style="fill: none; stroke: #1f77b4; stroke-width: 1.5"/>
    <path d="M 209.17375 138.314875 
L 209.17375 127.273157 
" clip-path="url(#p45ecd882e2)" style="fill: none; stroke: #1f77b4; stroke-width: 1.5"/>
    <path d="M 210.695568 139.581362 
L 210.695568 128.471168 
" clip-path="url(#p45ecd882e2)" style="fill: none; stroke: #1f77b4; stroke-width: 1.5"/>
    <path d="M 212.217386 136.961197 
L 212.217386 125.600164 
" clip-path="url(#p45ecd882e2)" style="fill: none; stroke: #1f77b4; stroke-width: 1.5"/>
    <path d="M 213.739205 140.233478 
L 213.739205 128.855363 
" clip-path="url(#p45ecd882e2)" style="fill: none; stroke: #1f77b4; stroke-width: 1.5"/>
    <path d="M 215.261023 138.279803 
L 215.261023 126.688503 
" clip-path="url(#p45ecd882e2)" style="fill: none; stroke: #1f77b4; stroke-width: 1.5"/>
    <path d="M 216.782841 153.0139 
L 216.782841 141.735497 
" clip-path="url(#p45ecd882e2)" style="fill: none; stroke: #1f77b4; stroke-width: 1.5"/>
    <path d="M 218.304659 139.261941 
L 218.304659 127.363396 
" clip-path="url(#p45ecd882e2)" style="fill: none; stroke: #1f77b4; stroke-width: 1.5"/>
    <path d="M 219.826477 148.244561 
L 219.826477 136.452147 
" clip-path="url(#p45ecd882e2)" style="fill: none; stroke: #1f77b4; stroke-width: 1.5"/>
    <path d="M 221.348295 152.204822 
L 221.348295 140.34977 
" clip-path="url(#p45ecd882e2)" style="fill: none; stroke: #1f77b4; stroke-width: 1.5"/>
    <path d="M 222.870114 145.408662 
L 222.870114 133.205958 
" clip-path="url(#p45ecd882e2)" style="fill: none; stroke: #1f77b4; stroke-width: 1.5"/>
    <path d="M 224.391932 145.612685 
L 224.391932 133.230778 
" clip-path="url(#p45ecd882e2)" style="fill: none; stroke: #1f77b4; stroke-width: 1.5"/>
    <path d="M 225.91375 147.465754 
L 225.91375 134.991077 
" clip-path="url(#p45ecd882e2)" style="fill: none; stroke: #1f77b4; stroke-width: 1.5"/>
    <path d="M 227.435568 150.930614 
L 227.435568 138.45948 
" clip-path="url(#p45ecd882e2)" style="fill: none; stroke: #1f77b4; stroke-width: 1.5"/>
    <path d="M 228.957386 152.151074 
L 228.957386 139.494605 
" clip-path="url(#p45ecd882e2)" style="fill: none; stroke: #1f77b4; stroke-width: 1.5"/>
    <path d="M 230.479205 155.389143 
L 230.479205 142.70672 
" clip-path="url(#p45ecd882e2)" style="fill: none; stroke: #1f77b4; stroke-width: 1.5"/>
    <path d="M 232.001023 149.901736 
L 232.001023 136.898264 
" clip-path="url(#p45ecd882e2)" style="fill: none; stroke: #1f77b4; stroke-width: 1.5"/>
    <path d="M 233.522841 154.252763 
L 233.522841 141.206877 
" clip-path="url(#p45ecd882e2)" style="fill: none; stroke: #1f77b4; stroke-width: 1.5"/>
    <path d="M 235.044659 149.6703 
L 235.044659 136.275979 
" clip-path="url(#p45ecd882e2)" style="fill: none; stroke: #1f77b4; stroke-width: 1.5"/>
    <path d="M 236.566477 160.381055 
L 236.566477 147.223453 
" clip-path="url(#p45ecd882e2)" style="fill: none; stroke: #1f77b4; stroke-width: 1.5"/>
    <path d="M 238.088295 155.033507 
L 238.088295 141.484671 
" clip-path="url(#p45ecd882e2)" style="fill: none; stroke: #1f77b4; stroke-width: 1.5"/>
    <path d="M 239.610114 149.173316 
L 239.610114 135.220917 
" clip-path="url(#p45ecd882e2)" style="fill: none; stroke: #1f77b4; stroke-width: 1.5"/>
    <path d="M 241.131932 157.635798 
L 241.131932 143.808644 
" clip-path="url(#p45ecd882e2)" style="fill: none; stroke: #1f77b4; stroke-width: 1.5"/>
    <path d="M 242.65375 146.637443 
L 242.65375 132.195776 
" clip-path="url(#p45ecd882e2)" style="fill: none; stroke: #1f77b4; stroke-width: 1.5"/>
    <path d="M 244.175568 147.786388 
L 244.175568 133.283666 
" clip-path="url(#p45ecd882e2)" style="fill: none; stroke: #1f77b4; stroke-width: 1.5"/>
    <path d="M 245.697386 151.371245 
L 245.697386 136.702165 
" clip-path="url(#p45ecd882e2)" style="fill: none; stroke: #1f77b4; stroke-width: 1.5"/>
    <path d="M 247.219205 155.602576 
L 247.219205 141.027354 
" clip-path="url(#p45ecd882e2)" style="fill: none; stroke: #1f77b4; stroke-width: 1.5"/>
    <path d="M 248.741023 161.187419 
L 248.741023 146.618118 
" clip-path="url(#p45ecd882e2)" style="fill: none; stroke: #1f77b4; stroke-width: 1.5"/>
    <path d="M 250.262841 148.341788 
L 250.262841 133.056754 
" clip-path="url(#p45ecd882e2)" style="fill: none; stroke: #1f77b4; stroke-width: 1.5"/>
    <path d="M 251.784659 153.954216 
L 251.784659 138.688226 
" clip-path="url(#p45ecd882e2)" style="fill: none; stroke: #1f77b4; stroke-width: 1.5"/>
    <path d="M 253.306477 156.158534 
L 253.306477 140.811742 
" clip-path="url(#p45ecd882e2)" style="fill: none; stroke: #1f77b4; stroke-width: 1.5"/>
    <path d="M 254.828295 150.265332 
L 254.828295 134.479677 
" clip-path="url(#p45ecd882e2)" style="fill: none; stroke: #1f77b4; stroke-width: 1.5"/>
    <path d="M 256.350114 153.252321 
L 256.350114 137.31216 
" clip-path="url(#p45ecd882e2)" style="fill: none; stroke: #1f77b4; stroke-width: 1.5"/>
    <path d="M 257.871932 159.411177 
L 257.871932 143.698428 
" clip-path="url(#p45ecd882e2)" style="fill: none; stroke: #1f77b4; stroke-width: 1.5"/>
    <path d="M 259.39375 155.617327 
L 259.39375 139.482039 
" clip-path="url(#p45ecd882e2)" style="fill: none; stroke: #1f77b4; stroke-width: 1.5"/>
    <path d="M 260.915568 157.470605 
L 260.915568 141.208603 
" clip-path="url(#p45ecd882e2)" style="fill: none; stroke: #1f77b4; stroke-width: 1.5"/>
    <path d="M 262.437386 157.498892 
L 262.437386 141.077007 
" clip-path="url(#p45ecd882e2)" style="fill: none; stroke: #1f77b4; stroke-width: 1.5"/>
    <path d="M 263.959205 163.742772 
L 263.959205 147.290031 
" clip-path="url(#p45ecd882e2)" style="fill: none; stroke: #1f77b4; stroke-width: 1.5"/>
    <path d="M 265.481023 156.225273 
L 265.481023 139.264851 
" clip-path="url(#p45ecd882e2)" style="fill: none; stroke: #1f77b4; stroke-width: 1.5"/>
    <path d="M 267.002841 132.350171 
L 267.002841 114.083554 
" clip-path="url(#p45ecd882e2)" style="fill: none; stroke: #1f77b4; stroke-width: 1.5"/>
    <path d="M 268.524659 165.715172 
L 268.524659 148.857242 
" clip-path="url(#p45ecd882e2)" style="fill: none; stroke: #1f77b4; stroke-width: 1.5"/>
    <path d="M 270.046477 171.940014 
L 270.046477 155.120966 
" clip-path="url(#p45ecd882e2)" style="fill: none; stroke: #1f77b4; stroke-width: 1.5"/>
    <path d="M 271.568295 143.4957 
L 271.568295 125.019234 
" clip-path="url(#p45ecd882e2)" style="fill: none; stroke: #1f77b4; stroke-width: 1.5"/>
    <path d="M 273.090114 145.785267 
L 273.090114 127.218548 
" clip-path="url(#p45ecd882e2)" style="fill: none; stroke: #1f77b4; stroke-width: 1.5"/>
    <path d="M 274.611932 169.143345 
L 274.611932 151.517055 
" clip-path="url(#p45ecd882e2)" style="fill: none; stroke: #1f77b4; stroke-width: 1.5"/>
    <path d="M 276.13375 149.579599 
L 276.13375 130.930641 
" clip-path="url(#p45ecd882e2)" style="fill: none; stroke: #1f77b4; stroke-width: 1.5"/>
    <path d="M 277.655568 161.685459 
L 277.655568 143.271899 
" clip-path="url(#p45ecd882e2)" style="fill: none; stroke: #1f77b4; stroke-width: 1.5"/>
    <path d="M 279.177386 168.139646 
L 279.177386 149.871741 
" clip-path="url(#p45ecd882e2)" style="fill: none; stroke: #1f77b4; stroke-width: 1.5"/>
    <path d="M 280.699205 160.368821 
L 280.699205 141.561182 
" clip-path="url(#p45ecd882e2)" style="fill: none; stroke: #1f77b4; stroke-width: 1.5"/>
    <path d="M 282.221023 157.98428 
L 282.221023 138.863255 
" clip-path="url(#p45ecd882e2)" style="fill: none; stroke: #1f77b4; stroke-width: 1.5"/>
    <path d="M 283.742841 183.472415 
L 283.742841 165.478245 
" clip-path="url(#p45ecd882e2)" style="fill: none; stroke: #1f77b4; stroke-width: 1.5"/>
    <path d="M 285.264659 158.698336 
L 285.264659 139.090956 
" clip-path="url(#p45ecd882e2)" style="fill: none; stroke: #1f77b4; stroke-width: 1.5"/>
    <path d="M 286.786477 171.32192 
L 286.786477 152.339076 
" clip-path="url(#p45ecd882e2)" style="fill: none; stroke: #1f77b4; stroke-width: 1.5"/>
    <path d="M 288.308295 164.195414 
L 288.308295 144.377423 
" clip-path="url(#p45ecd882e2)" style="fill: none; stroke: #1f77b4; stroke-width: 1.5"/>
    <path d="M 289.830114 153.540881 
L 289.830114 132.834214 
" clip-path="url(#p45ecd882e2)" style="fill: none; stroke: #1f77b4; stroke-width: 1.5"/>
    <path d="M 291.351932 145.303676 
L 291.351932 123.904491 
" clip-path="url(#p45ecd882e2)" style="fill: none; stroke: #1f77b4; stroke-width: 1.5"/>
    <path d="M 292.87375 169.307396 
L 292.87375 149.166519 
" clip-path="url(#p45ecd882e2)" style="fill: none; stroke: #1f77b4; stroke-width: 1.5"/>
    <path d="M 294.395568 168.241616 
L 294.395568 147.884582 
" clip-path="url(#p45ecd882e2)" style="fill: none; stroke: #1f77b4; stroke-width: 1.5"/>
    <path d="M 295.917386 158.964408 
L 295.917386 137.825886 
" clip-path="url(#p45ecd882e2)" style="fill: none; stroke: #1f77b4; stroke-width: 1.5"/>
    <path d="M 297.439205 163.750442 
L 297.439205 142.525586 
" clip-path="url(#p45ecd882e2)" style="fill: none; stroke: #1f77b4; stroke-width: 1.5"/>
    <path d="M 298.961023 159.1089 
L 298.961023 137.536799 
" clip-path="url(#p45ecd882e2)" style="fill: none; stroke: #1f77b4; stroke-width: 1.5"/>
    <path d="M 300.482841 165.667125 
L 300.482841 144.143238 
" clip-path="url(#p45ecd882e2)" style="fill: none; stroke: #1f77b4; stroke-width: 1.5"/>
    <path d="M 302.004659 166.810751 
L 302.004659 145.015799 
" clip-path="url(#p45ecd882e2)" style="fill: none; stroke: #1f77b4; stroke-width: 1.5"/>
    <path d="M 303.526477 170.379943 
L 303.526477 148.849103 
" clip-path="url(#p45ecd882e2)" style="fill: none; stroke: #1f77b4; stroke-width: 1.5"/>
    <path d="M 305.048295 170.57653 
L 305.048295 148.560756 
" clip-path="url(#p45ecd882e2)" style="fill: none; stroke: #1f77b4; stroke-width: 1.5"/>
    <path d="M 306.570114 169.409453 
L 306.570114 147.154811 
" clip-path="url(#p45ecd882e2)" style="fill: none; stroke: #1f77b4; stroke-width: 1.5"/>
    <path d="M 308.091932 189.120989 
L 308.091932 167.998784 
" clip-path="url(#p45ecd882e2)" style="fill: none; stroke: #1f77b4; stroke-width: 1.5"/>
    <path d="M 309.61375 166.952597 
L 309.61375 143.991922 
" clip-path="url(#p45ecd882e2)" style="fill: none; stroke: #1f77b4; stroke-width: 1.5"/>
    <path d="M 311.135568 165.085358 
L 311.135568 141.654129 
" clip-path="url(#p45ecd882e2)" style="fill: none; stroke: #1f77b4; stroke-width: 1.5"/>
    <path d="M 312.657386 174.596028 
L 312.657386 151.621847 
" clip-path="url(#p45ecd882e2)" style="fill: none; stroke: #1f77b4; stroke-width: 1.5"/>
    <path d="M 314.179205 169.68705 
L 314.179205 145.879644 
" clip-path="url(#p45ecd882e2)" style="fill: none; stroke: #1f77b4; stroke-width: 1.5"/>
    <path d="M 315.701023 170.628188 
L 315.701023 147.22476 
" clip-path="url(#p45ecd882e2)" style="fill: none; stroke: #1f77b4; stroke-width: 1.5"/>
    <path d="M 317.222841 172.567516 
L 317.222841 148.933629 
" clip-path="url(#p45ecd882e2)" style="fill: none; stroke: #1f77b4; stroke-width: 1.5"/>
    <path d="M 318.744659 169.036668 
L 318.744659 144.748952 
" clip-path="url(#p45ecd882e2)" style="fill: none; stroke: #1f77b4; stroke-width: 1.5"/>
    <path d="M 320.266477 179.1566 
L 320.266477 155.242805 
" clip-path="url(#p45ecd882e2)" style="fill: none; stroke: #1f77b4; stroke-width: 1.5"/>
    <path d="M 321.788295 167.499839 
L 321.788295 142.642302 
" clip-path="url(#p45ecd882e2)" style="fill: none; stroke: #1f77b4; stroke-width: 1.5"/>
    <path d="M 323.310114 181.425972 
L 323.310114 157.444682 
" clip-path="url(#p45ecd882e2)" style="fill: none; stroke: #1f77b4; stroke-width: 1.5"/>
    <path d="M 324.831932 181.264456 
L 324.831932 156.670464 
" clip-path="url(#p45ecd882e2)" style="fill: none; stroke: #1f77b4; stroke-width: 1.5"/>
    <path d="M 326.35375 191.963015 
L 326.35375 168.154808 
" clip-path="url(#p45ecd882e2)" style="fill: none; stroke: #1f77b4; stroke-width: 1.5"/>
    <path d="M 327.875568 162.905826 
L 327.875568 136.397764 
" clip-path="url(#p45ecd882e2)" style="fill: none; stroke: #1f77b4; stroke-width: 1.5"/>
    <path d="M 329.397386 179.674356 
L 329.397386 154.594983 
" clip-path="url(#p45ecd882e2)" style="fill: none; stroke: #1f77b4; stroke-width: 1.5"/>
    <path d="M 330.919205 164.813142 
L 330.919205 138.173474 
" clip-path="url(#p45ecd882e2)" style="fill: none; stroke: #1f77b4; stroke-width: 1.5"/>
    <path d="M 332.441023 175.429219 
L 332.441023 149.1934 
" clip-path="url(#p45ecd882e2)" style="fill: none; stroke: #1f77b4; stroke-width: 1.5"/>
    <path d="M 333.962841 194.116101 
L 333.962841 169.118105 
" clip-path="url(#p45ecd882e2)" style="fill: none; stroke: #1f77b4; stroke-width: 1.5"/>
    <path d="M 335.484659 195.07718 
L 335.484659 169.787608 
" clip-path="url(#p45ecd882e2)" style="fill: none; stroke: #1f77b4; stroke-width: 1.5"/>
    <path d="M 337.006477 159.83518 
L 337.006477 131.359022 
" clip-path="url(#p45ecd882e2)" style="fill: none; stroke: #1f77b4; stroke-width: 1.5"/>
    <path d="M 338.528295 173.023939 
L 338.528295 145.607422 
" clip-path="url(#p45ecd882e2)" style="fill: none; stroke: #1f77b4; stroke-width: 1.5"/>
    <path d="M 340.050114 153.207094 
L 340.050114 123.819844 
" clip-path="url(#p45ecd882e2)" style="fill: none; stroke: #1f77b4; stroke-width: 1.5"/>
    <path d="M 341.571932 192.429058 
L 341.571932 165.943265 
" clip-path="url(#p45ecd882e2)" style="fill: none; stroke: #1f77b4; stroke-width: 1.5"/>
    <path d="M 343.09375 172.75276 
L 343.09375 144.22393 
" clip-path="url(#p45ecd882e2)" style="fill: none; stroke: #1f77b4; stroke-width: 1.5"/>
    <path d="M 344.615568 195.804419 
L 344.615568 168.998533 
" clip-path="url(#p45ecd882e2)" style="fill: none; stroke: #1f77b4; stroke-width: 1.5"/>
    <path d="M 346.137386 166.08003 
L 346.137386 136.584369 
" clip-path="url(#p45ecd882e2)" style="fill: none; stroke: #1f77b4; stroke-width: 1.5"/>
    <path d="M 347.659205 174.512222 
L 347.659205 145.298926 
" clip-path="url(#p45ecd882e2)" style="fill: none; stroke: #1f77b4; stroke-width: 1.5"/>
    <path d="M 349.181023 195.81243 
L 349.181023 168.173369 
" clip-path="url(#p45ecd882e2)" style="fill: none; stroke: #1f77b4; stroke-width: 1.5"/>
    <path d="M 350.702841 186.719131 
L 350.702841 158.33785 
" clip-path="url(#p45ecd882e2)" style="fill: none; stroke: #1f77b4; stroke-width: 1.5"/>
    <path d="M 352.224659 180.326403 
L 352.224659 150.658677 
" clip-path="url(#p45ecd882e2)" style="fill: none; stroke: #1f77b4; stroke-width: 1.5"/>
    <path d="M 353.746477 139.763183 
L 353.746477 106.31815 
" clip-path="url(#p45ecd882e2)" style="fill: none; stroke: #1f77b4; stroke-width: 1.5"/>
    <path d="M 355.268295 211.976282 
L 355.268295 184.979939 
" clip-path="url(#p45ecd882e2)" style="fill: none; stroke: #1f77b4; stroke-width: 1.5"/>
    <path d="M 356.790114 179.944171 
L 356.790114 148.97077 
" clip-path="url(#p45ecd882e2)" style="fill: none; stroke: #1f77b4; stroke-width: 1.5"/>
    <path d="M 358.311932 186.303429 
L 358.311932 156.22312 
" clip-path="url(#p45ecd882e2)" style="fill: none; stroke: #1f77b4; stroke-width: 1.5"/>
    <path d="M 359.83375 210.876909 
L 359.83375 183.001359 
" clip-path="url(#p45ecd882e2)" style="fill: none; stroke: #1f77b4; stroke-width: 1.5"/>
    <path d="M 361.355568 221.67822 
L 361.355568 194.40195 
" clip-path="url(#p45ecd882e2)" style="fill: none; stroke: #1f77b4; stroke-width: 1.5"/>
    <path d="M 362.877386 196.125603 
L 362.877386 166.248736 
" clip-path="url(#p45ecd882e2)" style="fill: none; stroke: #1f77b4; stroke-width: 1.5"/>
    <path d="M 364.399205 204.447025 
L 364.399205 175.133106 
" clip-path="url(#p45ecd882e2)" style="fill: none; stroke: #1f77b4; stroke-width: 1.5"/>
    <path d="M 365.921023 204.845744 
L 365.921023 174.51585 
" clip-path="url(#p45ecd882e2)" style="fill: none; stroke: #1f77b4; stroke-width: 1.5"/>
    <path d="M 367.442841 210.720736 
L 367.442841 180.88773 
" clip-path="url(#p45ecd882e2)" style="fill: none; stroke: #1f77b4; stroke-width: 1.5"/>
    <path d="M 368.964659 189.423768 
L 368.964659 157.385045 
" clip-path="url(#p45ecd882e2)" style="fill: none; stroke: #1f77b4; stroke-width: 1.5"/>
   </g>
   <g id="patch_3">
    <path d="M 50.14375 231.75824 
L 50.14375 9.99824 
" style="fill: none; stroke: #000000; stroke-width: 0.8; stroke-linejoin: miter; stroke-linecap: square"/>
   </g>
   <g id="patch_4">
    <path d="M 384.94375 231.75824 
L 384.94375 9.99824 
" style="fill: none; stroke: #000000; stroke-width: 0.8; stroke-linejoin: miter; stroke-linecap: square"/>
   </g>
   <g id="patch_5">
    <path d="M 50.14375 231.75824 
L 384.94375 231.75824 
" style="fill: none; stroke: #000000; stroke-width: 0.8; stroke-linejoin: miter; stroke-linecap: square"/>
   </g>
   <g id="patch_6">
    <path d="M 50.14375 9.99824 
L 384.94375 9.99824 
" style="fill: none; stroke: #000000; stroke-width: 0.8; stroke-linejoin: miter; stroke-linecap: square"/>
   </g>
  </g>
 </g>
 <defs>
  <clipPath id="p45ecd882e2">
   <rect x="50.14375" y="9.99824" width="334.8" height="221.76"/>
  </clipPath>
 </defs>
</svg>
