<?xml version="1.0" encoding="utf-8" standalone="no"?>
<!DOCTYPE svg PUBLIC "-//W3C//DTD SVG 1.1//EN"
  "http://www.w3.org/Graphics/SVG/1.1/DTD/svg11.dtd">
<svg xmlns:xlink="http://www.w3.org/1999/xlink" width="246.29705pt" height="267.439687pt" viewBox="0 0 246.29705 267.439687" xmlns="http://www.w3.org/2000/svg" version="1.1">
 <metadata>
  <rdf:RDF xmlns:dc="http://purl.org/dc/elements/1.1/" xmlns:cc="http://creativecommons.org/ns#" xmlns:rdf="http://www.w3.org/1999/02/22-rdf-syntax-ns#">
   <cc:Work>
    <dc:type rdf:resource="http://purl.org/dc/dcmitype/StillImage"/>
    <dc:date>2026-04-23T10:41:06.891178</dc:date>
    <dc:format>image/svg+xml</dc:format>
    <dc:creator>
     <cc:Agent>
      <dc:title>Matplotlib v3.10.8, https://matplotlib.org/</dc:title>
     </cc:Agent>
    </dc:creator>
   </cc:Work>
  </rdf:RDF>
 </metadata>
 <defs>
  <style type="text/css">*{stroke-linejoin: round; stroke-linecap: butt}</style>
 </defs>
 <g id="figure_1">
  <g id="patch_1">
   <path d="M 0 267.439687 
L 246.29705 267.439687 
L 246.29705 0 
L 0 0 
z
" style="fill: #ffffff"/>
  </g>
  <g id="axes_1">
   <g id="patch_2">
    <path d="M 45.478125 228.96 
L 231.631272 228.96 
L 231.631272 7.2 
L 45.478125 7.2 
z
" style="fill: #ffffff"/>
   </g>
   <g id="matplotlib.axis_1">
    <g id="xtick_1">
     <g id="line2d_1">
      <defs>
       <path id="ma565e45a47" d="M 0 0 
L 0 3.5 
" style="stroke: #000000; stroke-width: 0.8"/>
      </defs>
      <g>
       <use xlink:href="#ma565e45a47" x="83.206282" y="228.96" style="stroke: #000000; stroke-width: 0.8"/>
      </g>
     </g>
     <g id="text_1">
      <!-- $\mathdefault{10^{-2}}$ -->
      <g transform="translate(71.456282 243.558437) scale(0.1 -0.1)">
       <defs>
        <path id="DejaVuSans-31" d="M 794 531 
L 1825 531 
L 1825 4091 
L 703 3866 
L 703 4441 
L 1819 4666 
L 2450 4666 
L 2450 531 
L 3481 531 
L 3481 0 
L 794 0 
L 794 531 
z
" transform="scale(0.015625)"/>
        <path id="DejaVuSans-30" d="M 2034 4250 
Q 1547 4250 1301 3770 
Q 1056 3291 1056 2328 
Q 1056 1369 1301 889 
Q 1547 409 2034 409 
Q 2525 409 2770 889 
Q 3016 1369 3016 2328 
Q 3016 3291 2770 3770 
Q 2525 4250 2034 4250 
z
M 2034 4750 
Q 2819 4750 3233 4129 
Q 3647 3509 3647 2328 
Q 3647 1150 3233 529 
Q 2819 -91 2034 -91 
Q 1250 -91 836 529 
Q 422 1150 422 2328 
Q 422 3509 836 4129 
Q 1250 4750 2034 4750 
z
" transform="scale(0.015625)"/>
        <path id="DejaVuSans-2212" d="M 678 2272 
L 4684 2272 
L 4684 1741 
L 678 1741 
L 678 2272 
z
" transform="scale(0.015625)"/>
        <path id="DejaVuSans-32" d="M 1228 531 
L 3431 531 
L 3431 0 
L 469 0 
L 469 531 
Q 828 903 1448 1529 
Q 2069 2156 2228 2338 
Q 2531 2678 2651 2914 
Q 2772 3150 2772 3378 
Q 2772 3750 2511 3984 
Q 2250 4219 1831 4219 
Q 1534 4219 1204 4116 
Q 875 4013 500 3803 
L 500 4441 
Q 881 4594 1212 4672 
Q 1544 4750 1819 4750 
Q 2544 4750 2975 4387 
Q 3406 4025 3406 3419 
Q 3406 3131 3298 2873 
Q 3191 2616 2906 2266 
Q 2828 2175 2409 1742 
Q 1991 1309 1228 531 
z
" transform="scale(0.015625)"/>
       </defs>
       <use xlink:href="#DejaVuSans-31" transform="translate(0 0.765625)"/>
       <use xlink:href="#DejaVuSans-30" transform="translate(63.623047 0.765625)"/>
       <use xlink:href="#DejaVuSans-2212" transform="translate(128.203125 39.046875) scale(0.7)"/>
       <use xlink:href="#DejaVuSans-32" transform="translate(186.855469 39.046875) scale(0.7)"/>
      </g>
     </g>
    </g>
    <g id="xtick_2">
     <g id="line2d_2">
      <g>
       <use xlink:href="#ma565e45a47" x="156.751666" y="228.96" style="stroke: #000000; stroke-width: 0.8"/>
      </g>
     </g>
     <g id="text_2">
      <!-- $\mathdefault{10^{-1}}$ -->
      <g transform="translate(145.001666 243.558437) scale(0.1 -0.1)">
       <use xlink:href="#DejaVuSans-31" transform="translate(0 0.684375)"/>
       <use xlink:href="#DejaVuSans-30" transform="translate(63.623047 0.684375)"/>
       <use xlink:href="#DejaVuSans-2212" transform="translate(128.203125 38.965625) scale(0.7)"/>
       <use xlink:href="#DejaVuSans-31" transform="translate(186.855469 38.965625) scale(0.7)"/>
      </g>
     </g>
    </g>
    <g id="xtick_3">
     <g id="line2d_3">
      <g>
       <use xlink:href="#ma565e45a47" x="230.29705" y="228.96" style="stroke: #000000; stroke-width: 0.8"/>
      </g>
     </g>
     <g id="text_3">
      <!-- $\mathdefault{10^{0}}$ -->
      <g transform="translate(221.49705 243.558437) scale(0.1 -0.1)">
       <use xlink:href="#DejaVuSans-31" transform="translate(0 0.765625)"/>
       <use xlink:href="#DejaVuSans-30" transform="translate(63.623047 0.765625)"/>
       <use xlink:href="#DejaVuSans-30" transform="translate(128.203125 39.046875) scale(0.7)"/>
      </g>
     </g>
    </g>
    <g id="xtick_4">
     <g id="line2d_4">
      <defs>
       <path id="m07cafbfacd" d="M 0 0 
L 0 2 
" style="stroke: #000000; stroke-width: 0.6"/>
      </defs>
      <g>
       <use xlink:href="#m07cafbfacd" x="53.939632" y="228.96" style="stroke: #000000; stroke-width: 0.6"/>
      </g>
     </g>
    </g>
    <g id="xtick_5">
     <g id="line2d_5">
      <g>
       <use xlink:href="#m07cafbfacd" x="61.066916" y="228.96" style="stroke: #000000; stroke-width: 0.6"/>
      </g>
     </g>
    </g>
    <g id="xtick_6">
     <g id="line2d_6">
      <g>
       <use xlink:href="#m07cafbfacd" x="66.890331" y="228.96" style="stroke: #000000; stroke-width: 0.6"/>
      </g>
     </g>
    </g>
    <g id="xtick_7">
     <g id="line2d_7">
      <g>
       <use xlink:href="#m07cafbfacd" x="71.813958" y="228.96" style="stroke: #000000; stroke-width: 0.6"/>
      </g>
     </g>
    </g>
    <g id="xtick_8">
     <g id="line2d_8">
      <g>
       <use xlink:href="#m07cafbfacd" x="76.078998" y="228.96" style="stroke: #000000; stroke-width: 0.6"/>
      </g>
     </g>
    </g>
    <g id="xtick_9">
     <g id="line2d_9">
      <g>
       <use xlink:href="#m07cafbfacd" x="79.84103" y="228.96" style="stroke: #000000; stroke-width: 0.6"/>
      </g>
     </g>
    </g>
    <g id="xtick_10">
     <g id="line2d_10">
      <g>
       <use xlink:href="#m07cafbfacd" x="105.345649" y="228.96" style="stroke: #000000; stroke-width: 0.6"/>
      </g>
     </g>
    </g>
    <g id="xtick_11">
     <g id="line2d_11">
      <g>
       <use xlink:href="#m07cafbfacd" x="118.296348" y="228.96" style="stroke: #000000; stroke-width: 0.6"/>
      </g>
     </g>
    </g>
    <g id="xtick_12">
     <g id="line2d_12">
      <g>
       <use xlink:href="#m07cafbfacd" x="127.485015" y="228.96" style="stroke: #000000; stroke-width: 0.6"/>
      </g>
     </g>
    </g>
    <g id="xtick_13">
     <g id="line2d_13">
      <g>
       <use xlink:href="#m07cafbfacd" x="134.612299" y="228.96" style="stroke: #000000; stroke-width: 0.6"/>
      </g>
     </g>
    </g>
    <g id="xtick_14">
     <g id="line2d_14">
      <g>
       <use xlink:href="#m07cafbfacd" x="140.435715" y="228.96" style="stroke: #000000; stroke-width: 0.6"/>
      </g>
     </g>
    </g>
    <g id="xtick_15">
     <g id="line2d_15">
      <g>
       <use xlink:href="#m07cafbfacd" x="145.359342" y="228.96" style="stroke: #000000; stroke-width: 0.6"/>
      </g>
     </g>
    </g>
    <g id="xtick_16">
     <g id="line2d_16">
      <g>
       <use xlink:href="#m07cafbfacd" x="149.624382" y="228.96" style="stroke: #000000; stroke-width: 0.6"/>
      </g>
     </g>
    </g>
    <g id="xtick_17">
     <g id="line2d_17">
      <g>
       <use xlink:href="#m07cafbfacd" x="153.386414" y="228.96" style="stroke: #000000; stroke-width: 0.6"/>
      </g>
     </g>
    </g>
    <g id="xtick_18">
     <g id="line2d_18">
      <g>
       <use xlink:href="#m07cafbfacd" x="178.891033" y="228.96" style="stroke: #000000; stroke-width: 0.6"/>
      </g>
     </g>
    </g>
    <g id="xtick_19">
     <g id="line2d_19">
      <g>
       <use xlink:href="#m07cafbfacd" x="191.841732" y="228.96" style="stroke: #000000; stroke-width: 0.6"/>
      </g>
     </g>
    </g>
    <g id="xtick_20">
     <g id="line2d_20">
      <g>
       <use xlink:href="#m07cafbfacd" x="201.030399" y="228.96" style="stroke: #000000; stroke-width: 0.6"/>
      </g>
     </g>
    </g>
    <g id="xtick_21">
     <g id="line2d_21">
      <g>
       <use xlink:href="#m07cafbfacd" x="208.157683" y="228.96" style="stroke: #000000; stroke-width: 0.6"/>
      </g>
     </g>
    </g>
    <g id="xtick_22">
     <g id="line2d_22">
      <g>
       <use xlink:href="#m07cafbfacd" x="213.981098" y="228.96" style="stroke: #000000; stroke-width: 0.6"/>
      </g>
     </g>
    </g>
    <g id="xtick_23">
     <g id="line2d_23">
      <g>
       <use xlink:href="#m07cafbfacd" x="218.904726" y="228.96" style="stroke: #000000; stroke-width: 0.6"/>
      </g>
     </g>
    </g>
    <g id="xtick_24">
     <g id="line2d_24">
      <g>
       <use xlink:href="#m07cafbfacd" x="223.169766" y="228.96" style="stroke: #000000; stroke-width: 0.6"/>
      </g>
     </g>
    </g>
    <g id="xtick_25">
     <g id="line2d_25">
      <g>
       <use xlink:href="#m07cafbfacd" x="226.931798" y="228.96" style="stroke: #000000; stroke-width: 0.6"/>
      </g>
     </g>
    </g>
    <g id="text_4">
     <!-- Q [1/Å] -->
     <g transform="translate(120.842199 258.16) scale(0.1 -0.1)">
      <defs>
       <path id="DejaVuSans-51" d="M 2522 4238 
Q 1834 4238 1429 3725 
Q 1025 3213 1025 2328 
Q 1025 1447 1429 934 
Q 1834 422 2522 422 
Q 3209 422 3611 934 
Q 4013 1447 4013 2328 
Q 4013 3213 3611 3725 
Q 3209 4238 2522 4238 
z
M 3406 84 
L 4238 -825 
L 3475 -825 
L 2784 -78 
Q 2681 -84 2626 -87 
Q 2572 -91 2522 -91 
Q 1538 -91 948 567 
Q 359 1225 359 2328 
Q 359 3434 948 4092 
Q 1538 4750 2522 4750 
Q 3503 4750 4090 4092 
Q 4678 3434 4678 2328 
Q 4678 1516 4351 937 
Q 4025 359 3406 84 
z
" transform="scale(0.015625)"/>
       <path id="DejaVuSans-20" transform="scale(0.015625)"/>
       <path id="DejaVuSans-5b" d="M 550 4863 
L 1875 4863 
L 1875 4416 
L 1125 4416 
L 1125 -397 
L 1875 -397 
L 1875 -844 
L 550 -844 
L 550 4863 
z
" transform="scale(0.015625)"/>
       <path id="DejaVuSans-2f" d="M 1625 4666 
L 2156 4666 
L 531 -594 
L 0 -594 
L 1625 4666 
z
" transform="scale(0.015625)"/>
       <path id="DejaVuSans-c5" d="M 2663 5081 
Q 2663 5278 2523 5417 
Q 2384 5556 2188 5556 
Q 1988 5556 1852 5420 
Q 1716 5284 1716 5081 
Q 1716 4884 1853 4746 
Q 1991 4609 2188 4609 
Q 2384 4609 2523 4746 
Q 2663 4884 2663 5081 
z
M 2188 4044 
L 1338 1722 
L 3041 1722 
L 2188 4044 
z
M 1716 4366 
Q 1525 4494 1428 4673 
Q 1331 4853 1331 5081 
Q 1331 5441 1579 5691 
Q 1828 5941 2188 5941 
Q 2544 5941 2795 5689 
Q 3047 5438 3047 5081 
Q 3047 4863 2948 4678 
Q 2850 4494 2663 4366 
L 4325 0 
L 3669 0 
L 3244 1197 
L 1141 1197 
L 716 0 
L 50 0 
L 1716 4366 
z
" transform="scale(0.015625)"/>
       <path id="DejaVuSans-5d" d="M 1947 4863 
L 1947 -844 
L 622 -844 
L 622 -397 
L 1369 -397 
L 1369 4416 
L 622 4416 
L 622 4863 
L 1947 4863 
z
" transform="scale(0.015625)"/>
      </defs>
      <use xlink:href="#DejaVuSans-51"/>
      <use xlink:href="#DejaVuSans-20" transform="translate(78.710938 0)"/>
      <use xlink:href="#DejaVuSans-5b" transform="translate(110.498047 0)"/>
      <use xlink:href="#DejaVuSans-31" transform="translate(149.511719 0)"/>
      <use xlink:href="#DejaVuSans-2f" transform="translate(213.134766 0)"/>
      <use xlink:href="#DejaVuSans-c5" transform="translate(246.826172 0)"/>
      <use xlink:href="#DejaVuSans-5d" transform="translate(315.234375 0)"/>
     </g>
    </g>
   </g>
   <g id="matplotlib.axis_2">
    <g id="ytick_1">
     <g id="line2d_26">
      <defs>
       <path id="m186a4b6a64" d="M 0 0 
L -3.5 0 
" style="stroke: #000000; stroke-width: 0.8"/>
      </defs>
      <g>
       <use xlink:href="#m186a4b6a64" x="45.478125" y="198.637965" style="stroke: #000000; stroke-width: 0.8"/>
      </g>
     </g>
     <g id="text_5">
      <!-- $\mathdefault{10^{1}}$ -->
      <g transform="translate(20.878125 202.437184) scale(0.1 -0.1)">
       <use xlink:href="#DejaVuSans-31" transform="translate(0 0.684375)"/>
       <use xlink:href="#DejaVuSans-30" transform="translate(63.623047 0.684375)"/>
       <use xlink:href="#DejaVuSans-31" transform="translate(128.203125 38.965625) scale(0.7)"/>
      </g>
     </g>
    </g>
    <g id="ytick_2">
     <g id="line2d_27">
      <g>
       <use xlink:href="#m186a4b6a64" x="45.478125" y="125.092581" style="stroke: #000000; stroke-width: 0.8"/>
      </g>
     </g>
     <g id="text_6">
      <!-- $\mathdefault{10^{2}}$ -->
      <g transform="translate(20.878125 128.8918) scale(0.1 -0.1)">
       <use xlink:href="#DejaVuSans-31" transform="translate(0 0.765625)"/>
       <use xlink:href="#DejaVuSans-30" transform="translate(63.623047 0.765625)"/>
       <use xlink:href="#DejaVuSans-32" transform="translate(128.203125 39.046875) scale(0.7)"/>
      </g>
     </g>
    </g>
    <g id="ytick_3">
     <g id="line2d_28">
      <g>
       <use xlink:href="#m186a4b6a64" x="45.478125" y="51.547198" style="stroke: #000000; stroke-width: 0.8"/>
      </g>
     </g>
     <g id="text_7">
      <!-- $\mathdefault{10^{3}}$ -->
      <g transform="translate(20.878125 55.346416) scale(0.1 -0.1)">
       <defs>
        <path id="DejaVuSans-33" d="M 2597 2516 
Q 3050 2419 3304 2112 
Q 3559 1806 3559 1356 
Q 3559 666 3084 287 
Q 2609 -91 1734 -91 
Q 1441 -91 1130 -33 
Q 819 25 488 141 
L 488 750 
Q 750 597 1062 519 
Q 1375 441 1716 441 
Q 2309 441 2620 675 
Q 2931 909 2931 1356 
Q 2931 1769 2642 2001 
Q 2353 2234 1838 2234 
L 1294 2234 
L 1294 2753 
L 1863 2753 
Q 2328 2753 2575 2939 
Q 2822 3125 2822 3475 
Q 2822 3834 2567 4026 
Q 2313 4219 1838 4219 
Q 1578 4219 1281 4162 
Q 984 4106 628 3988 
L 628 4550 
Q 988 4650 1302 4700 
Q 1616 4750 1894 4750 
Q 2613 4750 3031 4423 
Q 3450 4097 3450 3541 
Q 3450 3153 3228 2886 
Q 3006 2619 2597 2516 
z
" transform="scale(0.015625)"/>
       </defs>
       <use xlink:href="#DejaVuSans-31" transform="translate(0 0.765625)"/>
       <use xlink:href="#DejaVuSans-30" transform="translate(63.623047 0.765625)"/>
       <use xlink:href="#DejaVuSans-33" transform="translate(128.203125 39.046875) scale(0.7)"/>
      </g>
     </g>
    </g>
    <g id="ytick_4">
     <g id="line2d_29">
      <defs>
       <path id="m1fabb3c8b0" d="M 0 0 
L -2 0 
" style="stroke: #000000; stroke-width: 0.6"/>
      </defs>
      <g>
       <use xlink:href="#m1fabb3c8b0" x="45.478125" y="227.904616" style="stroke: #000000; stroke-width: 0.6"/>
      </g>
     </g>
    </g>
    <g id="ytick_5">
     <g id="line2d_30">
      <g>
       <use xlink:href="#m1fabb3c8b0" x="45.478125" y="220.777332" style="stroke: #000000; stroke-width: 0.6"/>
      </g>
     </g>
    </g>
    <g id="ytick_6">
     <g id="line2d_31">
      <g>
       <use xlink:href="#m1fabb3c8b0" x="45.478125" y="214.953916" style="stroke: #000000; stroke-width: 0.6"/>
      </g>
     </g>
    </g>
    <g id="ytick_7">
     <g id="line2d_32">
      <g>
       <use xlink:href="#m1fabb3c8b0" x="45.478125" y="210.030289" style="stroke: #000000; stroke-width: 0.6"/>
      </g>
     </g>
    </g>
    <g id="ytick_8">
     <g id="line2d_33">
      <g>
       <use xlink:href="#m1fabb3c8b0" x="45.478125" y="205.765249" style="stroke: #000000; stroke-width: 0.6"/>
      </g>
     </g>
    </g>
    <g id="ytick_9">
     <g id="line2d_34">
      <g>
       <use xlink:href="#m1fabb3c8b0" x="45.478125" y="202.003217" style="stroke: #000000; stroke-width: 0.6"/>
      </g>
     </g>
    </g>
    <g id="ytick_10">
     <g id="line2d_35">
      <g>
       <use xlink:href="#m1fabb3c8b0" x="45.478125" y="176.498599" style="stroke: #000000; stroke-width: 0.6"/>
      </g>
     </g>
    </g>
    <g id="ytick_11">
     <g id="line2d_36">
      <g>
       <use xlink:href="#m1fabb3c8b0" x="45.478125" y="163.547899" style="stroke: #000000; stroke-width: 0.6"/>
      </g>
     </g>
    </g>
    <g id="ytick_12">
     <g id="line2d_37">
      <g>
       <use xlink:href="#m1fabb3c8b0" x="45.478125" y="154.359232" style="stroke: #000000; stroke-width: 0.6"/>
      </g>
     </g>
    </g>
    <g id="ytick_13">
     <g id="line2d_38">
      <g>
       <use xlink:href="#m1fabb3c8b0" x="45.478125" y="147.231948" style="stroke: #000000; stroke-width: 0.6"/>
      </g>
     </g>
    </g>
    <g id="ytick_14">
     <g id="line2d_39">
      <g>
       <use xlink:href="#m1fabb3c8b0" x="45.478125" y="141.408533" style="stroke: #000000; stroke-width: 0.6"/>
      </g>
     </g>
    </g>
    <g id="ytick_15">
     <g id="line2d_40">
      <g>
       <use xlink:href="#m1fabb3c8b0" x="45.478125" y="136.484905" style="stroke: #000000; stroke-width: 0.6"/>
      </g>
     </g>
    </g>
    <g id="ytick_16">
     <g id="line2d_41">
      <g>
       <use xlink:href="#m1fabb3c8b0" x="45.478125" y="132.219865" style="stroke: #000000; stroke-width: 0.6"/>
      </g>
     </g>
    </g>
    <g id="ytick_17">
     <g id="line2d_42">
      <g>
       <use xlink:href="#m1fabb3c8b0" x="45.478125" y="128.457834" style="stroke: #000000; stroke-width: 0.6"/>
      </g>
     </g>
    </g>
    <g id="ytick_18">
     <g id="line2d_43">
      <g>
       <use xlink:href="#m1fabb3c8b0" x="45.478125" y="102.953215" style="stroke: #000000; stroke-width: 0.6"/>
      </g>
     </g>
    </g>
    <g id="ytick_19">
     <g id="line2d_44">
      <g>
       <use xlink:href="#m1fabb3c8b0" x="45.478125" y="90.002516" style="stroke: #000000; stroke-width: 0.6"/>
      </g>
     </g>
    </g>
    <g id="ytick_20">
     <g id="line2d_45">
      <g>
       <use xlink:href="#m1fabb3c8b0" x="45.478125" y="80.813848" style="stroke: #000000; stroke-width: 0.6"/>
      </g>
     </g>
    </g>
    <g id="ytick_21">
     <g id="line2d_46">
      <g>
       <use xlink:href="#m1fabb3c8b0" x="45.478125" y="73.686564" style="stroke: #000000; stroke-width: 0.6"/>
      </g>
     </g>
    </g>
    <g id="ytick_22">
     <g id="line2d_47">
      <g>
       <use xlink:href="#m1fabb3c8b0" x="45.478125" y="67.863149" style="stroke: #000000; stroke-width: 0.6"/>
      </g>
     </g>
    </g>
    <g id="ytick_23">
     <g id="line2d_48">
      <g>
       <use xlink:href="#m1fabb3c8b0" x="45.478125" y="62.939522" style="stroke: #000000; stroke-width: 0.6"/>
      </g>
     </g>
    </g>
    <g id="ytick_24">
     <g id="line2d_49">
      <g>
       <use xlink:href="#m1fabb3c8b0" x="45.478125" y="58.674482" style="stroke: #000000; stroke-width: 0.6"/>
      </g>
     </g>
    </g>
    <g id="ytick_25">
     <g id="line2d_50">
      <g>
       <use xlink:href="#m1fabb3c8b0" x="45.478125" y="54.91245" style="stroke: #000000; stroke-width: 0.6"/>
      </g>
     </g>
    </g>
    <g id="ytick_26">
     <g id="line2d_51">
      <g>
       <use xlink:href="#m1fabb3c8b0" x="45.478125" y="29.407831" style="stroke: #000000; stroke-width: 0.6"/>
      </g>
     </g>
    </g>
    <g id="ytick_27">
     <g id="line2d_52">
      <g>
       <use xlink:href="#m1fabb3c8b0" x="45.478125" y="16.457132" style="stroke: #000000; stroke-width: 0.6"/>
      </g>
     </g>
    </g>
    <g id="ytick_28">
     <g id="line2d_53">
      <g>
       <use xlink:href="#m1fabb3c8b0" x="45.478125" y="7.268465" style="stroke: #000000; stroke-width: 0.6"/>
      </g>
     </g>
    </g>
    <g id="text_8">
     <!-- ess.sans.types.IntensityQ[ess.reduce.nexus.types.SampleRun] [dimensionless] -->
     <g transform="translate(14.798438 315.847969) rotate(-90) scale(0.1 -0.1)">
      <defs>
       <path id="DejaVuSans-65" d="M 3597 1894 
L 3597 1613 
L 953 1613 
Q 991 1019 1311 708 
Q 1631 397 2203 397 
Q 2534 397 2845 478 
Q 3156 559 3463 722 
L 3463 178 
Q 3153 47 2828 -22 
Q 2503 -91 2169 -91 
Q 1331 -91 842 396 
Q 353 884 353 1716 
Q 353 2575 817 3079 
Q 1281 3584 2069 3584 
Q 2775 3584 3186 3129 
Q 3597 2675 3597 1894 
z
M 3022 2063 
Q 3016 2534 2758 2815 
Q 2500 3097 2075 3097 
Q 1594 3097 1305 2825 
Q 1016 2553 972 2059 
L 3022 2063 
z
" transform="scale(0.015625)"/>
       <path id="DejaVuSans-73" d="M 2834 3397 
L 2834 2853 
Q 2591 2978 2328 3040 
Q 2066 3103 1784 3103 
Q 1356 3103 1142 2972 
Q 928 2841 928 2578 
Q 928 2378 1081 2264 
Q 1234 2150 1697 2047 
L 1894 2003 
Q 2506 1872 2764 1633 
Q 3022 1394 3022 966 
Q 3022 478 2636 193 
Q 2250 -91 1575 -91 
Q 1294 -91 989 -36 
Q 684 19 347 128 
L 347 722 
Q 666 556 975 473 
Q 1284 391 1588 391 
Q 1994 391 2212 530 
Q 2431 669 2431 922 
Q 2431 1156 2273 1281 
Q 2116 1406 1581 1522 
L 1381 1569 
Q 847 1681 609 1914 
Q 372 2147 372 2553 
Q 372 3047 722 3315 
Q 1072 3584 1716 3584 
Q 2034 3584 2315 3537 
Q 2597 3491 2834 3397 
z
" transform="scale(0.015625)"/>
       <path id="DejaVuSans-2e" d="M 684 794 
L 1344 794 
L 1344 0 
L 684 0 
L 684 794 
z
" transform="scale(0.015625)"/>
       <path id="DejaVuSans-61" d="M 2194 1759 
Q 1497 1759 1228 1600 
Q 959 1441 959 1056 
Q 959 750 1161 570 
Q 1363 391 1709 391 
Q 2188 391 2477 730 
Q 2766 1069 2766 1631 
L 2766 1759 
L 2194 1759 
z
M 3341 1997 
L 3341 0 
L 2766 0 
L 2766 531 
Q 2569 213 2275 61 
Q 1981 -91 1556 -91 
Q 1019 -91 701 211 
Q 384 513 384 1019 
Q 384 1609 779 1909 
Q 1175 2209 1959 2209 
L 2766 2209 
L 2766 2266 
Q 2766 2663 2505 2880 
Q 2244 3097 1772 3097 
Q 1472 3097 1187 3025 
Q 903 2953 641 2809 
L 641 3341 
Q 956 3463 1253 3523 
Q 1550 3584 1831 3584 
Q 2591 3584 2966 3190 
Q 3341 2797 3341 1997 
z
" transform="scale(0.015625)"/>
       <path id="DejaVuSans-6e" d="M 3513 2113 
L 3513 0 
L 2938 0 
L 2938 2094 
Q 2938 2591 2744 2837 
Q 2550 3084 2163 3084 
Q 1697 3084 1428 2787 
Q 1159 2491 1159 1978 
L 1159 0 
L 581 0 
L 581 3500 
L 1159 3500 
L 1159 2956 
Q 1366 3272 1645 3428 
Q 1925 3584 2291 3584 
Q 2894 3584 3203 3211 
Q 3513 2838 3513 2113 
z
" transform="scale(0.015625)"/>
       <path id="DejaVuSans-74" d="M 1172 4494 
L 1172 3500 
L 2356 3500 
L 2356 3053 
L 1172 3053 
L 1172 1153 
Q 1172 725 1289 603 
Q 1406 481 1766 481 
L 2356 481 
L 2356 0 
L 1766 0 
Q 1100 0 847 248 
Q 594 497 594 1153 
L 594 3053 
L 172 3053 
L 172 3500 
L 594 3500 
L 594 4494 
L 1172 4494 
z
" transform="scale(0.015625)"/>
       <path id="DejaVuSans-79" d="M 2059 -325 
Q 1816 -950 1584 -1140 
Q 1353 -1331 966 -1331 
L 506 -1331 
L 506 -850 
L 844 -850 
Q 1081 -850 1212 -737 
Q 1344 -625 1503 -206 
L 1606 56 
L 191 3500 
L 800 3500 
L 1894 763 
L 2988 3500 
L 3597 3500 
L 2059 -325 
z
" transform="scale(0.015625)"/>
       <path id="DejaVuSans-70" d="M 1159 525 
L 1159 -1331 
L 581 -1331 
L 581 3500 
L 1159 3500 
L 1159 2969 
Q 1341 3281 1617 3432 
Q 1894 3584 2278 3584 
Q 2916 3584 3314 3078 
Q 3713 2572 3713 1747 
Q 3713 922 3314 415 
Q 2916 -91 2278 -91 
Q 1894 -91 1617 61 
Q 1341 213 1159 525 
z
M 3116 1747 
Q 3116 2381 2855 2742 
Q 2594 3103 2138 3103 
Q 1681 3103 1420 2742 
Q 1159 2381 1159 1747 
Q 1159 1113 1420 752 
Q 1681 391 2138 391 
Q 2594 391 2855 752 
Q 3116 1113 3116 1747 
z
" transform="scale(0.015625)"/>
       <path id="DejaVuSans-49" d="M 628 4666 
L 1259 4666 
L 1259 0 
L 628 0 
L 628 4666 
z
" transform="scale(0.015625)"/>
       <path id="DejaVuSans-69" d="M 603 3500 
L 1178 3500 
L 1178 0 
L 603 0 
L 603 3500 
z
M 603 4863 
L 1178 4863 
L 1178 4134 
L 603 4134 
L 603 4863 
z
" transform="scale(0.015625)"/>
       <path id="DejaVuSans-72" d="M 2631 2963 
Q 2534 3019 2420 3045 
Q 2306 3072 2169 3072 
Q 1681 3072 1420 2755 
Q 1159 2438 1159 1844 
L 1159 0 
L 581 0 
L 581 3500 
L 1159 3500 
L 1159 2956 
Q 1341 3275 1631 3429 
Q 1922 3584 2338 3584 
Q 2397 3584 2469 3576 
Q 2541 3569 2628 3553 
L 2631 2963 
z
" transform="scale(0.015625)"/>
       <path id="DejaVuSans-64" d="M 2906 2969 
L 2906 4863 
L 3481 4863 
L 3481 0 
L 2906 0 
L 2906 525 
Q 2725 213 2448 61 
Q 2172 -91 1784 -91 
Q 1150 -91 751 415 
Q 353 922 353 1747 
Q 353 2572 751 3078 
Q 1150 3584 1784 3584 
Q 2172 3584 2448 3432 
Q 2725 3281 2906 2969 
z
M 947 1747 
Q 947 1113 1208 752 
Q 1469 391 1925 391 
Q 2381 391 2643 752 
Q 2906 1113 2906 1747 
Q 2906 2381 2643 2742 
Q 2381 3103 1925 3103 
Q 1469 3103 1208 2742 
Q 947 2381 947 1747 
z
" transform="scale(0.015625)"/>
       <path id="DejaVuSans-75" d="M 544 1381 
L 544 3500 
L 1119 3500 
L 1119 1403 
Q 1119 906 1312 657 
Q 1506 409 1894 409 
Q 2359 409 2629 706 
Q 2900 1003 2900 1516 
L 2900 3500 
L 3475 3500 
L 3475 0 
L 2900 0 
L 2900 538 
Q 2691 219 2414 64 
Q 2138 -91 1772 -91 
Q 1169 -91 856 284 
Q 544 659 544 1381 
z
M 1991 3584 
L 1991 3584 
z
" transform="scale(0.015625)"/>
       <path id="DejaVuSans-63" d="M 3122 3366 
L 3122 2828 
Q 2878 2963 2633 3030 
Q 2388 3097 2138 3097 
Q 1578 3097 1268 2742 
Q 959 2388 959 1747 
Q 959 1106 1268 751 
Q 1578 397 2138 397 
Q 2388 397 2633 464 
Q 2878 531 3122 666 
L 3122 134 
Q 2881 22 2623 -34 
Q 2366 -91 2075 -91 
Q 1284 -91 818 406 
Q 353 903 353 1747 
Q 353 2603 823 3093 
Q 1294 3584 2113 3584 
Q 2378 3584 2631 3529 
Q 2884 3475 3122 3366 
z
" transform="scale(0.015625)"/>
       <path id="DejaVuSans-78" d="M 3513 3500 
L 2247 1797 
L 3578 0 
L 2900 0 
L 1881 1375 
L 863 0 
L 184 0 
L 1544 1831 
L 300 3500 
L 978 3500 
L 1906 2253 
L 2834 3500 
L 3513 3500 
z
" transform="scale(0.015625)"/>
       <path id="DejaVuSans-53" d="M 3425 4513 
L 3425 3897 
Q 3066 4069 2747 4153 
Q 2428 4238 2131 4238 
Q 1616 4238 1336 4038 
Q 1056 3838 1056 3469 
Q 1056 3159 1242 3001 
Q 1428 2844 1947 2747 
L 2328 2669 
Q 3034 2534 3370 2195 
Q 3706 1856 3706 1288 
Q 3706 609 3251 259 
Q 2797 -91 1919 -91 
Q 1588 -91 1214 -16 
Q 841 59 441 206 
L 441 856 
Q 825 641 1194 531 
Q 1563 422 1919 422 
Q 2459 422 2753 634 
Q 3047 847 3047 1241 
Q 3047 1584 2836 1778 
Q 2625 1972 2144 2069 
L 1759 2144 
Q 1053 2284 737 2584 
Q 422 2884 422 3419 
Q 422 4038 858 4394 
Q 1294 4750 2059 4750 
Q 2388 4750 2728 4690 
Q 3069 4631 3425 4513 
z
" transform="scale(0.015625)"/>
       <path id="DejaVuSans-6d" d="M 3328 2828 
Q 3544 3216 3844 3400 
Q 4144 3584 4550 3584 
Q 5097 3584 5394 3201 
Q 5691 2819 5691 2113 
L 5691 0 
L 5113 0 
L 5113 2094 
Q 5113 2597 4934 2840 
Q 4756 3084 4391 3084 
Q 3944 3084 3684 2787 
Q 3425 2491 3425 1978 
L 3425 0 
L 2847 0 
L 2847 2094 
Q 2847 2600 2669 2842 
Q 2491 3084 2119 3084 
Q 1678 3084 1418 2786 
Q 1159 2488 1159 1978 
L 1159 0 
L 581 0 
L 581 3500 
L 1159 3500 
L 1159 2956 
Q 1356 3278 1631 3431 
Q 1906 3584 2284 3584 
Q 2666 3584 2933 3390 
Q 3200 3197 3328 2828 
z
" transform="scale(0.015625)"/>
       <path id="DejaVuSans-6c" d="M 603 4863 
L 1178 4863 
L 1178 0 
L 603 0 
L 603 4863 
z
" transform="scale(0.015625)"/>
       <path id="DejaVuSans-52" d="M 2841 2188 
Q 3044 2119 3236 1894 
Q 3428 1669 3622 1275 
L 4263 0 
L 3584 0 
L 2988 1197 
Q 2756 1666 2539 1819 
Q 2322 1972 1947 1972 
L 1259 1972 
L 1259 0 
L 628 0 
L 628 4666 
L 2053 4666 
Q 2853 4666 3247 4331 
Q 3641 3997 3641 3322 
Q 3641 2881 3436 2590 
Q 3231 2300 2841 2188 
z
M 1259 4147 
L 1259 2491 
L 2053 2491 
Q 2509 2491 2742 2702 
Q 2975 2913 2975 3322 
Q 2975 3731 2742 3939 
Q 2509 4147 2053 4147 
L 1259 4147 
z
" transform="scale(0.015625)"/>
       <path id="DejaVuSans-6f" d="M 1959 3097 
Q 1497 3097 1228 2736 
Q 959 2375 959 1747 
Q 959 1119 1226 758 
Q 1494 397 1959 397 
Q 2419 397 2687 759 
Q 2956 1122 2956 1747 
Q 2956 2369 2687 2733 
Q 2419 3097 1959 3097 
z
M 1959 3584 
Q 2709 3584 3137 3096 
Q 3566 2609 3566 1747 
Q 3566 888 3137 398 
Q 2709 -91 1959 -91 
Q 1206 -91 779 398 
Q 353 888 353 1747 
Q 353 2609 779 3096 
Q 1206 3584 1959 3584 
z
" transform="scale(0.015625)"/>
      </defs>
      <use xlink:href="#DejaVuSans-65"/>
      <use xlink:href="#DejaVuSans-73" transform="translate(61.523438 0)"/>
      <use xlink:href="#DejaVuSans-73" transform="translate(113.623047 0)"/>
      <use xlink:href="#DejaVuSans-2e" transform="translate(165.722656 0)"/>
      <use xlink:href="#DejaVuSans-73" transform="translate(197.509766 0)"/>
      <use xlink:href="#DejaVuSans-61" transform="translate(249.609375 0)"/>
      <use xlink:href="#DejaVuSans-6e" transform="translate(310.888672 0)"/>
      <use xlink:href="#DejaVuSans-73" transform="translate(374.267578 0)"/>
      <use xlink:href="#DejaVuSans-2e" transform="translate(426.367188 0)"/>
      <use xlink:href="#DejaVuSans-74" transform="translate(458.154297 0)"/>
      <use xlink:href="#DejaVuSans-79" transform="translate(497.363281 0)"/>
      <use xlink:href="#DejaVuSans-70" transform="translate(556.542969 0)"/>
      <use xlink:href="#DejaVuSans-65" transform="translate(620.019531 0)"/>
      <use xlink:href="#DejaVuSans-73" transform="translate(681.542969 0)"/>
      <use xlink:href="#DejaVuSans-2e" transform="translate(733.642578 0)"/>
      <use xlink:href="#DejaVuSans-49" transform="translate(765.429688 0)"/>
      <use xlink:href="#DejaVuSans-6e" transform="translate(794.921875 0)"/>
      <use xlink:href="#DejaVuSans-74" transform="translate(858.300781 0)"/>
      <use xlink:href="#DejaVuSans-65" transform="translate(897.509766 0)"/>
      <use xlink:href="#DejaVuSans-6e" transform="translate(959.033203 0)"/>
      <use xlink:href="#DejaVuSans-73" transform="translate(1022.412109 0)"/>
      <use xlink:href="#DejaVuSans-69" transform="translate(1074.511719 0)"/>
      <use xlink:href="#DejaVuSans-74" transform="translate(1102.294922 0)"/>
      <use xlink:href="#DejaVuSans-79" transform="translate(1141.503906 0)"/>
      <use xlink:href="#DejaVuSans-51" transform="translate(1200.683594 0)"/>
      <use xlink:href="#DejaVuSans-5b" transform="translate(1279.394531 0)"/>
      <use xlink:href="#DejaVuSans-65" transform="translate(1318.408203 0)"/>
      <use xlink:href="#DejaVuSans-73" transform="translate(1379.931641 0)"/>
      <use xlink:href="#DejaVuSans-73" transform="translate(1432.03125 0)"/>
      <use xlink:href="#DejaVuSans-2e" transform="translate(1484.130859 0)"/>
      <use xlink:href="#DejaVuSans-72" transform="translate(1515.917969 0)"/>
      <use xlink:href="#DejaVuSans-65" transform="translate(1554.78125 0)"/>
      <use xlink:href="#DejaVuSans-64" transform="translate(1616.304688 0)"/>
      <use xlink:href="#DejaVuSans-75" transform="translate(1679.78125 0)"/>
      <use xlink:href="#DejaVuSans-63" transform="translate(1743.160156 0)"/>
      <use xlink:href="#DejaVuSans-65" transform="translate(1798.140625 0)"/>
      <use xlink:href="#DejaVuSans-2e" transform="translate(1859.664062 0)"/>
      <use xlink:href="#DejaVuSans-6e" transform="translate(1891.451172 0)"/>
      <use xlink:href="#DejaVuSans-65" transform="translate(1954.830078 0)"/>
      <use xlink:href="#DejaVuSans-78" transform="translate(2014.603516 0)"/>
      <use xlink:href="#DejaVuSans-75" transform="translate(2073.783203 0)"/>
      <use xlink:href="#DejaVuSans-73" transform="translate(2137.162109 0)"/>
      <use xlink:href="#DejaVuSans-2e" transform="translate(2189.261719 0)"/>
      <use xlink:href="#DejaVuSans-74" transform="translate(2221.048828 0)"/>
      <use xlink:href="#DejaVuSans-79" transform="translate(2260.257812 0)"/>
      <use xlink:href="#DejaVuSans-70" transform="translate(2319.4375 0)"/>
      <use xlink:href="#DejaVuSans-65" transform="translate(2382.914062 0)"/>
      <use xlink:href="#DejaVuSans-73" transform="translate(2444.4375 0)"/>
      <use xlink:href="#DejaVuSans-2e" transform="translate(2496.537109 0)"/>
      <use xlink:href="#DejaVuSans-53" transform="translate(2528.324219 0)"/>
      <use xlink:href="#DejaVuSans-61" transform="translate(2591.800781 0)"/>
      <use xlink:href="#DejaVuSans-6d" transform="translate(2653.080078 0)"/>
      <use xlink:href="#DejaVuSans-70" transform="translate(2750.492188 0)"/>
      <use xlink:href="#DejaVuSans-6c" transform="translate(2813.96875 0)"/>
      <use xlink:href="#DejaVuSans-65" transform="translate(2841.751953 0)"/>
      <use xlink:href="#DejaVuSans-52" transform="translate(2903.275391 0)"/>
      <use xlink:href="#DejaVuSans-75" transform="translate(2968.257812 0)"/>
      <use xlink:href="#DejaVuSans-6e" transform="translate(3031.636719 0)"/>
      <use xlink:href="#DejaVuSans-5d" transform="translate(3095.015625 0)"/>
      <use xlink:href="#DejaVuSans-20" transform="translate(3134.029297 0)"/>
      <use xlink:href="#DejaVuSans-5b" transform="translate(3165.816406 0)"/>
      <use xlink:href="#DejaVuSans-64" transform="translate(3204.830078 0)"/>
      <use xlink:href="#DejaVuSans-69" transform="translate(3268.306641 0)"/>
      <use xlink:href="#DejaVuSans-6d" transform="translate(3296.089844 0)"/>
      <use xlink:href="#DejaVuSans-65" transform="translate(3393.501953 0)"/>
      <use xlink:href="#DejaVuSans-6e" transform="translate(3455.025391 0)"/>
      <use xlink:href="#DejaVuSans-73" transform="translate(3518.404297 0)"/>
      <use xlink:href="#DejaVuSans-69" transform="translate(3570.503906 0)"/>
      <use xlink:href="#DejaVuSans-6f" transform="translate(3598.287109 0)"/>
      <use xlink:href="#DejaVuSans-6e" transform="translate(3659.46875 0)"/>
      <use xlink:href="#DejaVuSans-6c" transform="translate(3722.847656 0)"/>
      <use xlink:href="#DejaVuSans-65" transform="translate(3750.630859 0)"/>
      <use xlink:href="#DejaVuSans-73" transform="translate(3812.154297 0)"/>
      <use xlink:href="#DejaVuSans-73" transform="translate(3864.253906 0)"/>
      <use xlink:href="#DejaVuSans-5d" transform="translate(3916.353516 0)"/>
     </g>
    </g>
   </g>
   <g id="line2d_54">
    <path d="M 55.148418 268.439687 
L 55.148418 29.648328 
L 56.357205 29.648328 
L 56.357205 46.459216 
L 57.565992 46.459216 
L 57.565992 49.909005 
L 58.774778 49.909005 
L 58.774778 53.127263 
L 59.983565 53.127263 
L 59.983565 51.761813 
L 61.192352 51.761813 
L 61.192352 54.863949 
L 62.401138 54.863949 
L 62.401138 52.894791 
L 63.609925 52.894791 
L 63.609925 49.798671 
L 64.818712 49.798671 
L 64.818712 53.892994 
L 66.027498 53.892994 
L 66.027498 50.791401 
L 67.236285 50.791401 
L 67.236285 52.57572 
L 68.445072 52.57572 
L 68.445072 50.329667 
L 69.653858 50.329667 
L 69.653858 57.310716 
L 70.862645 57.310716 
L 70.862645 53.549697 
L 72.071432 53.549697 
L 72.071432 53.693131 
L 73.280218 53.693131 
L 73.280218 54.122686 
L 74.489005 54.122686 
L 74.489005 54.50782 
L 75.697792 54.50782 
L 75.697792 56.097145 
L 76.906578 56.097145 
L 76.906578 56.457701 
L 79.324152 56.535047 
L 79.324152 57.672598 
L 80.532938 57.672598 
L 80.532938 58.40911 
L 82.950512 58.414869 
L 82.950512 57.432246 
L 84.159298 57.432246 
L 84.159298 58.433015 
L 85.368085 58.433015 
L 85.368085 58.762965 
L 87.785658 58.686854 
L 87.785658 59.835528 
L 88.994445 59.835528 
L 88.994445 59.687819 
L 90.203232 59.687819 
L 90.203232 60.482483 
L 91.412018 60.482483 
L 91.412018 61.363267 
L 93.829592 61.388062 
L 93.829592 61.718654 
L 95.038379 61.718654 
L 95.038379 62.125206 
L 96.247165 62.125206 
L 96.247165 62.777527 
L 97.455952 62.777527 
L 97.455952 63.418381 
L 98.664739 63.418381 
L 98.664739 64.079605 
L 99.873525 64.079605 
L 99.873525 65.034324 
L 101.082312 65.034324 
L 101.082312 65.483387 
L 102.291099 65.483387 
L 102.291099 66.700187 
L 103.499885 66.700187 
L 103.499885 67.12535 
L 104.708672 67.12535 
L 104.708672 67.541887 
L 105.917459 67.541887 
L 105.917459 68.539216 
L 107.126245 68.539216 
L 107.126245 69.517578 
L 108.335032 69.517578 
L 108.335032 70.402715 
L 109.543819 70.402715 
L 109.543819 71.527254 
L 110.752605 71.527254 
L 110.752605 72.458061 
L 111.961392 72.458061 
L 111.961392 73.806867 
L 113.170179 73.806867 
L 113.170179 74.697846 
L 114.378965 74.697846 
L 114.378965 75.830398 
L 115.587752 75.830398 
L 115.587752 77.475585 
L 116.796539 77.475585 
L 116.796539 78.779645 
L 118.005325 78.779645 
L 118.005325 79.965184 
L 119.214112 79.965184 
L 119.214112 81.631864 
L 120.422899 81.631864 
L 120.422899 82.849779 
L 121.631685 82.849779 
L 121.631685 84.474163 
L 122.840472 84.474163 
L 122.840472 86.185022 
L 124.049259 86.185022 
L 124.049259 87.852627 
L 125.258045 87.852627 
L 125.258045 89.740133 
L 126.466832 89.740133 
L 126.466832 91.42791 
L 127.675619 91.42791 
L 127.675619 92.987872 
L 128.884405 92.987872 
L 128.884405 95.391518 
L 130.093192 95.391518 
L 130.093192 97.302964 
L 131.301979 97.302964 
L 131.301979 98.998601 
L 132.510765 98.998601 
L 132.510765 101.239161 
L 133.719552 101.239161 
L 133.719552 103.312205 
L 134.928339 103.312205 
L 134.928339 105.358058 
L 136.137125 105.358058 
L 136.137125 107.567325 
L 137.345912 107.567325 
L 137.345912 109.487704 
L 138.554699 109.487704 
L 138.554699 111.85732 
L 139.763485 111.85732 
L 139.763485 114.107349 
L 140.972272 114.107349 
L 140.972272 116.225893 
L 142.181059 116.225893 
L 142.181059 118.622817 
L 143.389845 118.622817 
L 143.389845 120.756795 
L 144.598632 120.756795 
L 144.598632 122.747596 
L 145.807419 122.747596 
L 145.807419 124.955142 
L 147.016205 124.955142 
L 147.016205 127.340685 
L 148.224992 127.340685 
L 148.224992 129.619132 
L 149.433779 129.619132 
L 149.433779 132.1621 
L 150.642565 132.1621 
L 150.642565 134.290952 
L 151.851352 134.290952 
L 151.851352 136.432278 
L 153.060139 136.432278 
L 153.060139 138.910448 
L 154.268925 138.910448 
L 154.268925 141.012244 
L 155.477712 141.012244 
L 155.477712 143.384023 
L 156.686499 143.384023 
L 156.686499 145.655165 
L 157.895285 145.655165 
L 157.895285 147.836026 
L 159.104072 147.836026 
L 159.104072 150.308171 
L 160.312859 150.308171 
L 160.312859 152.422668 
L 161.521645 152.422668 
L 161.521645 154.543897 
L 162.730432 154.543897 
L 162.730432 156.934102 
L 163.939219 156.934102 
L 163.939219 159.045946 
L 165.148005 159.045946 
L 165.148005 161.135282 
L 166.356792 161.135282 
L 166.356792 163.55764 
L 167.565579 163.55764 
L 167.565579 165.451065 
L 168.774365 165.451065 
L 168.774365 167.658104 
L 169.983152 167.658104 
L 169.983152 169.79607 
L 171.191939 169.79607 
L 171.191939 171.931412 
L 172.400725 171.931412 
L 172.400725 173.954255 
L 173.609512 173.954255 
L 173.609512 175.864842 
L 174.818299 175.864842 
L 174.818299 177.84696 
L 176.027085 177.84696 
L 176.027085 179.692213 
L 177.235872 179.692213 
L 177.235872 181.761217 
L 178.444659 181.761217 
L 178.444659 183.470455 
L 179.653445 183.470455 
L 179.653445 185.428507 
L 180.862232 185.428507 
L 180.862232 186.869523 
L 182.071019 186.869523 
L 182.071019 188.637522 
L 183.279805 188.637522 
L 183.279805 190.308752 
L 184.488592 190.308752 
L 184.488592 192.213273 
L 185.697379 192.213273 
L 185.697379 193.524716 
L 186.906166 193.524716 
L 186.906166 195.4007 
L 188.114952 195.4007 
L 188.114952 196.490404 
L 189.323739 196.490404 
L 189.323739 198.146067 
L 190.532526 198.146067 
L 190.532526 199.529507 
L 191.741312 199.529507 
L 191.741312 200.594453 
L 192.950099 200.594453 
L 192.950099 201.688868 
L 194.158886 201.688868 
L 194.158886 202.942873 
L 195.367672 202.942873 
L 195.367672 204.627679 
L 196.576459 204.627679 
L 196.576459 205.133266 
L 197.785246 205.133266 
L 197.785246 205.885307 
L 198.994032 205.885307 
L 198.994032 206.917987 
L 200.202819 206.917987 
L 200.202819 207.648751 
L 201.411606 207.648751 
L 201.411606 208.565905 
L 202.620392 208.565905 
L 202.620392 209.130492 
L 203.829179 209.130492 
L 203.829179 209.325126 
L 205.037966 209.325126 
L 205.037966 210.008139 
L 207.455539 209.99555 
L 207.455539 210.56671 
L 208.664326 210.56671 
L 208.664326 210.76766 
L 209.873112 210.76766 
L 209.873112 211.374364 
L 211.081899 211.374364 
L 211.081899 212.27188 
L 212.290686 212.27188 
L 212.290686 212.806239 
L 213.499472 212.806239 
L 213.499472 213.472403 
L 214.708259 213.472403 
L 214.708259 215.181032 
L 215.917046 215.181032 
L 215.917046 215.694215 
L 217.125832 215.694215 
L 217.125832 216.084408 
L 218.334619 216.084408 
L 218.334619 217.267574 
L 219.543406 217.267574 
L 219.543406 216.553905 
L 220.752192 216.553905 
L 220.752192 216.162944 
L 221.960979 216.162944 
L 221.960979 213.763856 
L 223.169766 213.763856 
L 223.169766 213.763856 
" clip-path="url(#p32f9f92c0b)" style="fill: none; stroke: #1f77b4; stroke-width: 1.5; stroke-linecap: square"/>
   </g>
   <g id="LineCollection_1">
    <path clip-path="url(#p32f9f92c0b)" style="fill: none; stroke: #1f77b4; stroke-width: 1.5"/>
    <path d="M 55.75853 50.101698 
L 55.75853 17.280002 
" clip-path="url(#p32f9f92c0b)" style="fill: none; stroke: #1f77b4; stroke-width: 1.5"/>
    <path d="M 56.967316 62.367082 
L 56.967316 35.888676 
" clip-path="url(#p32f9f92c0b)" style="fill: none; stroke: #1f77b4; stroke-width: 1.5"/>
    <path d="M 58.176103 61.335306 
L 58.176103 41.510717 
" clip-path="url(#p32f9f92c0b)" style="fill: none; stroke: #1f77b4; stroke-width: 1.5"/>
    <path d="M 59.38489 61.301752 
L 59.38489 46.624311 
" clip-path="url(#p32f9f92c0b)" style="fill: none; stroke: #1f77b4; stroke-width: 1.5"/>
    <path d="M 60.593676 57.922883 
L 60.593676 46.59917 
" clip-path="url(#p32f9f92c0b)" style="fill: none; stroke: #1f77b4; stroke-width: 1.5"/>
    <path d="M 61.802463 59.754431 
L 61.802463 50.623791 
" clip-path="url(#p32f9f92c0b)" style="fill: none; stroke: #1f77b4; stroke-width: 1.5"/>
    <path d="M 63.01125 56.783146 
L 63.01125 49.42884 
" clip-path="url(#p32f9f92c0b)" style="fill: none; stroke: #1f77b4; stroke-width: 1.5"/>
    <path d="M 64.220036 53.014312 
L 64.220036 46.877362 
" clip-path="url(#p32f9f92c0b)" style="fill: none; stroke: #1f77b4; stroke-width: 1.5"/>
    <path d="M 65.428823 56.740894 
L 65.428823 51.278364 
" clip-path="url(#p32f9f92c0b)" style="fill: none; stroke: #1f77b4; stroke-width: 1.5"/>
    <path d="M 66.63761 53.181846 
L 66.63761 48.567469 
" clip-path="url(#p32f9f92c0b)" style="fill: none; stroke: #1f77b4; stroke-width: 1.5"/>
    <path d="M 67.846396 54.727903 
L 67.846396 50.559445 
" clip-path="url(#p32f9f92c0b)" style="fill: none; stroke: #1f77b4; stroke-width: 1.5"/>
    <path d="M 69.055183 52.200969 
L 69.055183 48.561958 
" clip-path="url(#p32f9f92c0b)" style="fill: none; stroke: #1f77b4; stroke-width: 1.5"/>
    <path d="M 70.26397 59.107571 
L 70.26397 55.609585 
" clip-path="url(#p32f9f92c0b)" style="fill: none; stroke: #1f77b4; stroke-width: 1.5"/>
    <path d="M 71.472756 55.108274 
L 71.472756 52.063648 
" clip-path="url(#p32f9f92c0b)" style="fill: none; stroke: #1f77b4; stroke-width: 1.5"/>
    <path d="M 72.681543 55.104387 
L 72.681543 52.3416 
" clip-path="url(#p32f9f92c0b)" style="fill: none; stroke: #1f77b4; stroke-width: 1.5"/>
    <path d="M 73.89033 55.411009 
L 73.89033 52.884318 
" clip-path="url(#p32f9f92c0b)" style="fill: none; stroke: #1f77b4; stroke-width: 1.5"/>
    <path d="M 75.099116 55.688093 
L 75.099116 53.36961 
" clip-path="url(#p32f9f92c0b)" style="fill: none; stroke: #1f77b4; stroke-width: 1.5"/>
    <path d="M 76.307903 57.195242 
L 76.307903 55.035548 
" clip-path="url(#p32f9f92c0b)" style="fill: none; stroke: #1f77b4; stroke-width: 1.5"/>
    <path d="M 77.51669 57.469166 
L 77.51669 55.477286 
" clip-path="url(#p32f9f92c0b)" style="fill: none; stroke: #1f77b4; stroke-width: 1.5"/>
    <path d="M 78.725476 57.470441 
L 78.725476 55.626269 
" clip-path="url(#p32f9f92c0b)" style="fill: none; stroke: #1f77b4; stroke-width: 1.5"/>
    <path d="M 79.934263 58.543607 
L 79.934263 56.824712 
" clip-path="url(#p32f9f92c0b)" style="fill: none; stroke: #1f77b4; stroke-width: 1.5"/>
    <path d="M 81.14305 59.218305 
L 81.14305 57.61991 
" clip-path="url(#p32f9f92c0b)" style="fill: none; stroke: #1f77b4; stroke-width: 1.5"/>
    <path d="M 82.351836 59.166266 
L 82.351836 57.680744 
" clip-path="url(#p32f9f92c0b)" style="fill: none; stroke: #1f77b4; stroke-width: 1.5"/>
    <path d="M 83.560623 58.127977 
L 83.560623 56.751346 
" clip-path="url(#p32f9f92c0b)" style="fill: none; stroke: #1f77b4; stroke-width: 1.5"/>
    <path d="M 84.76941 59.084046 
L 84.76941 57.794989 
" clip-path="url(#p32f9f92c0b)" style="fill: none; stroke: #1f77b4; stroke-width: 1.5"/>
    <path d="M 85.978196 59.373387 
L 85.978196 58.16399 
" clip-path="url(#p32f9f92c0b)" style="fill: none; stroke: #1f77b4; stroke-width: 1.5"/>
    <path d="M 87.186983 59.257253 
L 87.186983 58.126462 
" clip-path="url(#p32f9f92c0b)" style="fill: none; stroke: #1f77b4; stroke-width: 1.5"/>
    <path d="M 88.39577 60.373815 
L 88.39577 59.306163 
" clip-path="url(#p32f9f92c0b)" style="fill: none; stroke: #1f77b4; stroke-width: 1.5"/>
    <path d="M 89.604556 60.194419 
L 89.604556 59.18913 
" clip-path="url(#p32f9f92c0b)" style="fill: none; stroke: #1f77b4; stroke-width: 1.5"/>
    <path d="M 90.813343 60.959191 
L 90.813343 60.012785 
" clip-path="url(#p32f9f92c0b)" style="fill: none; stroke: #1f77b4; stroke-width: 1.5"/>
    <path d="M 92.02213 61.816996 
L 92.02213 60.915893 
" clip-path="url(#p32f9f92c0b)" style="fill: none; stroke: #1f77b4; stroke-width: 1.5"/>
    <path d="M 93.230916 61.816035 
L 93.230916 60.965747 
" clip-path="url(#p32f9f92c0b)" style="fill: none; stroke: #1f77b4; stroke-width: 1.5"/>
    <path d="M 94.439703 62.125461 
L 94.439703 61.316964 
" clip-path="url(#p32f9f92c0b)" style="fill: none; stroke: #1f77b4; stroke-width: 1.5"/>
    <path d="M 95.64849 62.512382 
L 95.64849 61.742667 
" clip-path="url(#p32f9f92c0b)" style="fill: none; stroke: #1f77b4; stroke-width: 1.5"/>
    <path d="M 96.857277 63.147219 
L 96.857277 62.412065 
" clip-path="url(#p32f9f92c0b)" style="fill: none; stroke: #1f77b4; stroke-width: 1.5"/>
    <path d="M 98.066063 63.771541 
L 98.066063 63.069082 
" clip-path="url(#p32f9f92c0b)" style="fill: none; stroke: #1f77b4; stroke-width: 1.5"/>
    <path d="M 99.27485 64.419447 
L 99.27485 63.743341 
" clip-path="url(#p32f9f92c0b)" style="fill: none; stroke: #1f77b4; stroke-width: 1.5"/>
    <path d="M 100.483637 65.361054 
L 100.483637 64.710904 
" clip-path="url(#p32f9f92c0b)" style="fill: none; stroke: #1f77b4; stroke-width: 1.5"/>
    <path d="M 101.692423 65.797844 
L 101.692423 65.171995 
" clip-path="url(#p32f9f92c0b)" style="fill: none; stroke: #1f77b4; stroke-width: 1.5"/>
    <path d="M 102.90121 67.00437 
L 102.90121 66.398874 
" clip-path="url(#p32f9f92c0b)" style="fill: none; stroke: #1f77b4; stroke-width: 1.5"/>
    <path d="M 104.109997 67.420178 
L 104.109997 66.833219 
" clip-path="url(#p32f9f92c0b)" style="fill: none; stroke: #1f77b4; stroke-width: 1.5"/>
    <path d="M 105.318783 67.826434 
L 105.318783 67.259852 
" clip-path="url(#p32f9f92c0b)" style="fill: none; stroke: #1f77b4; stroke-width: 1.5"/>
    <path d="M 106.52757 68.816161 
L 106.52757 68.264653 
" clip-path="url(#p32f9f92c0b)" style="fill: none; stroke: #1f77b4; stroke-width: 1.5"/>
    <path d="M 107.736357 69.787495 
L 107.736357 69.249922 
" clip-path="url(#p32f9f92c0b)" style="fill: none; stroke: #1f77b4; stroke-width: 1.5"/>
    <path d="M 108.945143 70.665138 
L 108.945143 70.14243 
" clip-path="url(#p32f9f92c0b)" style="fill: none; stroke: #1f77b4; stroke-width: 1.5"/>
    <path d="M 110.15393 71.783843 
L 110.15393 71.27271 
" clip-path="url(#p32f9f92c0b)" style="fill: none; stroke: #1f77b4; stroke-width: 1.5"/>
    <path d="M 111.362717 72.7085 
L 111.362717 72.209571 
" clip-path="url(#p32f9f92c0b)" style="fill: none; stroke: #1f77b4; stroke-width: 1.5"/>
    <path d="M 112.571503 74.052149 
L 112.571503 73.563454 
" clip-path="url(#p32f9f92c0b)" style="fill: none; stroke: #1f77b4; stroke-width: 1.5"/>
    <path d="M 113.78029 74.938095 
L 113.78029 74.45939 
" clip-path="url(#p32f9f92c0b)" style="fill: none; stroke: #1f77b4; stroke-width: 1.5"/>
    <path d="M 114.989077 76.066176 
L 114.989077 75.596348 
" clip-path="url(#p32f9f92c0b)" style="fill: none; stroke: #1f77b4; stroke-width: 1.5"/>
    <path d="M 116.197863 77.707492 
L 116.197863 77.245349 
" clip-path="url(#p32f9f92c0b)" style="fill: none; stroke: #1f77b4; stroke-width: 1.5"/>
    <path d="M 117.40665 79.008465 
L 117.40665 78.552453 
" clip-path="url(#p32f9f92c0b)" style="fill: none; stroke: #1f77b4; stroke-width: 1.5"/>
    <path d="M 118.615437 80.190504 
L 118.615437 79.741443 
" clip-path="url(#p32f9f92c0b)" style="fill: none; stroke: #1f77b4; stroke-width: 1.5"/>
    <path d="M 119.824223 81.854855 
L 119.824223 81.41042 
" clip-path="url(#p32f9f92c0b)" style="fill: none; stroke: #1f77b4; stroke-width: 1.5"/>
    <path d="M 121.03301 83.070246 
L 121.03301 82.630823 
" clip-path="url(#p32f9f92c0b)" style="fill: none; stroke: #1f77b4; stroke-width: 1.5"/>
    <path d="M 122.241797 84.692698 
L 122.241797 84.257112 
" clip-path="url(#p32f9f92c0b)" style="fill: none; stroke: #1f77b4; stroke-width: 1.5"/>
    <path d="M 123.450583 86.401995 
L 123.450583 85.969513 
" clip-path="url(#p32f9f92c0b)" style="fill: none; stroke: #1f77b4; stroke-width: 1.5"/>
    <path d="M 124.65937 88.068366 
L 124.65937 87.638335 
" clip-path="url(#p32f9f92c0b)" style="fill: none; stroke: #1f77b4; stroke-width: 1.5"/>
    <path d="M 125.868157 89.954413 
L 125.868157 89.527282 
" clip-path="url(#p32f9f92c0b)" style="fill: none; stroke: #1f77b4; stroke-width: 1.5"/>
    <path d="M 127.076943 91.641051 
L 127.076943 91.216181 
" clip-path="url(#p32f9f92c0b)" style="fill: none; stroke: #1f77b4; stroke-width: 1.5"/>
    <path d="M 128.28573 93.200099 
L 128.28573 92.777046 
" clip-path="url(#p32f9f92c0b)" style="fill: none; stroke: #1f77b4; stroke-width: 1.5"/>
    <path d="M 129.494517 95.602641 
L 129.494517 95.181781 
" clip-path="url(#p32f9f92c0b)" style="fill: none; stroke: #1f77b4; stroke-width: 1.5"/>
    <path d="M 130.703303 97.513551 
L 130.703303 97.093757 
" clip-path="url(#p32f9f92c0b)" style="fill: none; stroke: #1f77b4; stroke-width: 1.5"/>
    <path d="M 131.91209 99.208319 
L 131.91209 98.790251 
" clip-path="url(#p32f9f92c0b)" style="fill: none; stroke: #1f77b4; stroke-width: 1.5"/>
    <path d="M 133.120877 101.448173 
L 133.120877 101.031508 
" clip-path="url(#p32f9f92c0b)" style="fill: none; stroke: #1f77b4; stroke-width: 1.5"/>
    <path d="M 134.329663 103.520587 
L 134.329663 103.105173 
" clip-path="url(#p32f9f92c0b)" style="fill: none; stroke: #1f77b4; stroke-width: 1.5"/>
    <path d="M 135.53845 105.565903 
L 135.53845 105.151557 
" clip-path="url(#p32f9f92c0b)" style="fill: none; stroke: #1f77b4; stroke-width: 1.5"/>
    <path d="M 136.747237 107.774465 
L 136.747237 107.36152 
" clip-path="url(#p32f9f92c0b)" style="fill: none; stroke: #1f77b4; stroke-width: 1.5"/>
    <path d="M 137.956023 109.694081 
L 137.956023 109.282652 
" clip-path="url(#p32f9f92c0b)" style="fill: none; stroke: #1f77b4; stroke-width: 1.5"/>
    <path d="M 139.16481 112.063043 
L 139.16481 111.652913 
" clip-path="url(#p32f9f92c0b)" style="fill: none; stroke: #1f77b4; stroke-width: 1.5"/>
    <path d="M 140.373597 114.312069 
L 140.373597 113.903934 
" clip-path="url(#p32f9f92c0b)" style="fill: none; stroke: #1f77b4; stroke-width: 1.5"/>
    <path d="M 141.582383 116.430197 
L 141.582383 116.022887 
" clip-path="url(#p32f9f92c0b)" style="fill: none; stroke: #1f77b4; stroke-width: 1.5"/>
    <path d="M 142.79117 118.826349 
L 142.79117 118.420574 
" clip-path="url(#p32f9f92c0b)" style="fill: none; stroke: #1f77b4; stroke-width: 1.5"/>
    <path d="M 143.999957 120.959235 
L 143.999957 120.555631 
" clip-path="url(#p32f9f92c0b)" style="fill: none; stroke: #1f77b4; stroke-width: 1.5"/>
    <path d="M 145.208743 122.949448 
L 145.208743 122.547012 
" clip-path="url(#p32f9f92c0b)" style="fill: none; stroke: #1f77b4; stroke-width: 1.5"/>
    <path d="M 146.41753 125.156264 
L 146.41753 124.755278 
" clip-path="url(#p32f9f92c0b)" style="fill: none; stroke: #1f77b4; stroke-width: 1.5"/>
    <path d="M 147.626317 127.54091 
L 147.626317 127.141707 
" clip-path="url(#p32f9f92c0b)" style="fill: none; stroke: #1f77b4; stroke-width: 1.5"/>
    <path d="M 148.835103 129.819019 
L 148.835103 129.420488 
" clip-path="url(#p32f9f92c0b)" style="fill: none; stroke: #1f77b4; stroke-width: 1.5"/>
    <path d="M 150.04389 132.361477 
L 150.04389 131.963961 
" clip-path="url(#p32f9f92c0b)" style="fill: none; stroke: #1f77b4; stroke-width: 1.5"/>
    <path d="M 151.252677 134.489641 
L 151.252677 134.093492 
" clip-path="url(#p32f9f92c0b)" style="fill: none; stroke: #1f77b4; stroke-width: 1.5"/>
    <path d="M 152.461463 136.630584 
L 152.461463 136.235195 
" clip-path="url(#p32f9f92c0b)" style="fill: none; stroke: #1f77b4; stroke-width: 1.5"/>
    <path d="M 153.67025 139.108379 
L 153.67025 138.713737 
" clip-path="url(#p32f9f92c0b)" style="fill: none; stroke: #1f77b4; stroke-width: 1.5"/>
    <path d="M 154.879037 141.2099 
L 154.879037 140.815804 
" clip-path="url(#p32f9f92c0b)" style="fill: none; stroke: #1f77b4; stroke-width: 1.5"/>
    <path d="M 156.087823 143.581622 
L 156.087823 143.187638 
" clip-path="url(#p32f9f92c0b)" style="fill: none; stroke: #1f77b4; stroke-width: 1.5"/>
    <path d="M 157.29661 145.852527 
L 157.29661 145.459015 
" clip-path="url(#p32f9f92c0b)" style="fill: none; stroke: #1f77b4; stroke-width: 1.5"/>
    <path d="M 158.505397 148.033397 
L 158.505397 147.639867 
" clip-path="url(#p32f9f92c0b)" style="fill: none; stroke: #1f77b4; stroke-width: 1.5"/>
    <path d="M 159.714183 150.505872 
L 159.714183 150.111687 
" clip-path="url(#p32f9f92c0b)" style="fill: none; stroke: #1f77b4; stroke-width: 1.5"/>
    <path d="M 160.92297 152.620334 
L 160.92297 152.226218 
" clip-path="url(#p32f9f92c0b)" style="fill: none; stroke: #1f77b4; stroke-width: 1.5"/>
    <path d="M 162.131757 154.741809 
L 162.131757 154.347203 
" clip-path="url(#p32f9f92c0b)" style="fill: none; stroke: #1f77b4; stroke-width: 1.5"/>
    <path d="M 163.340543 157.132621 
L 163.340543 156.736809 
" clip-path="url(#p32f9f92c0b)" style="fill: none; stroke: #1f77b4; stroke-width: 1.5"/>
    <path d="M 164.54933 159.244844 
L 164.54933 158.848278 
" clip-path="url(#p32f9f92c0b)" style="fill: none; stroke: #1f77b4; stroke-width: 1.5"/>
    <path d="M 165.758117 161.334766 
L 165.758117 160.937035 
" clip-path="url(#p32f9f92c0b)" style="fill: none; stroke: #1f77b4; stroke-width: 1.5"/>
    <path d="M 166.966903 163.758161 
L 166.966903 163.35837 
" clip-path="url(#p32f9f92c0b)" style="fill: none; stroke: #1f77b4; stroke-width: 1.5"/>
    <path d="M 168.17569 165.652272 
L 168.17569 165.251118 
" clip-path="url(#p32f9f92c0b)" style="fill: none; stroke: #1f77b4; stroke-width: 1.5"/>
    <path d="M 169.384477 167.86048 
L 169.384477 167.457001 
" clip-path="url(#p32f9f92c0b)" style="fill: none; stroke: #1f77b4; stroke-width: 1.5"/>
    <path d="M 170.593263 169.999733 
L 170.593263 169.593698 
" clip-path="url(#p32f9f92c0b)" style="fill: none; stroke: #1f77b4; stroke-width: 1.5"/>
    <path d="M 171.80205 172.13666 
L 171.80205 171.727476 
" clip-path="url(#p32f9f92c0b)" style="fill: none; stroke: #1f77b4; stroke-width: 1.5"/>
    <path d="M 173.010837 174.16114 
L 173.010837 173.748701 
" clip-path="url(#p32f9f92c0b)" style="fill: none; stroke: #1f77b4; stroke-width: 1.5"/>
    <path d="M 174.219623 176.073567 
L 174.219623 175.657472 
" clip-path="url(#p32f9f92c0b)" style="fill: none; stroke: #1f77b4; stroke-width: 1.5"/>
    <path d="M 175.42841 178.057849 
L 175.42841 177.637455 
" clip-path="url(#p32f9f92c0b)" style="fill: none; stroke: #1f77b4; stroke-width: 1.5"/>
    <path d="M 176.637197 179.905467 
L 176.637197 179.480374 
" clip-path="url(#p32f9f92c0b)" style="fill: none; stroke: #1f77b4; stroke-width: 1.5"/>
    <path d="M 177.845983 181.977416 
L 177.845983 181.546471 
" clip-path="url(#p32f9f92c0b)" style="fill: none; stroke: #1f77b4; stroke-width: 1.5"/>
    <path d="M 179.05477 183.689549 
L 179.05477 183.252853 
" clip-path="url(#p32f9f92c0b)" style="fill: none; stroke: #1f77b4; stroke-width: 1.5"/>
    <path d="M 180.263557 185.651176 
L 180.263557 185.207381 
" clip-path="url(#p32f9f92c0b)" style="fill: none; stroke: #1f77b4; stroke-width: 1.5"/>
    <path d="M 181.472343 187.095667 
L 181.472343 186.644968 
" clip-path="url(#p32f9f92c0b)" style="fill: none; stroke: #1f77b4; stroke-width: 1.5"/>
    <path d="M 182.68113 188.867886 
L 182.68113 188.408807 
" clip-path="url(#p32f9f92c0b)" style="fill: none; stroke: #1f77b4; stroke-width: 1.5"/>
    <path d="M 183.889917 190.543754 
L 183.889917 190.075467 
" clip-path="url(#p32f9f92c0b)" style="fill: none; stroke: #1f77b4; stroke-width: 1.5"/>
    <path d="M 185.098703 192.45388 
L 185.098703 191.974464 
" clip-path="url(#p32f9f92c0b)" style="fill: none; stroke: #1f77b4; stroke-width: 1.5"/>
    <path d="M 186.30749 193.770491 
L 186.30749 193.280818 
" clip-path="url(#p32f9f92c0b)" style="fill: none; stroke: #1f77b4; stroke-width: 1.5"/>
    <path d="M 187.516277 195.653218 
L 187.516277 195.150163 
" clip-path="url(#p32f9f92c0b)" style="fill: none; stroke: #1f77b4; stroke-width: 1.5"/>
    <path d="M 188.725064 196.749286 
L 188.725064 196.233604 
" clip-path="url(#p32f9f92c0b)" style="fill: none; stroke: #1f77b4; stroke-width: 1.5"/>
    <path d="M 189.93385 198.412741 
L 189.93385 197.881601 
" clip-path="url(#p32f9f92c0b)" style="fill: none; stroke: #1f77b4; stroke-width: 1.5"/>
    <path d="M 191.142637 199.804315 
L 191.142637 199.257043 
" clip-path="url(#p32f9f92c0b)" style="fill: none; stroke: #1f77b4; stroke-width: 1.5"/>
    <path d="M 192.351424 200.877807 
L 192.351424 200.313591 
" clip-path="url(#p32f9f92c0b)" style="fill: none; stroke: #1f77b4; stroke-width: 1.5"/>
    <path d="M 193.56021 201.981438 
L 193.56021 201.398954 
" clip-path="url(#p32f9f92c0b)" style="fill: none; stroke: #1f77b4; stroke-width: 1.5"/>
    <path d="M 194.768997 203.245703 
L 194.768997 202.642886 
" clip-path="url(#p32f9f92c0b)" style="fill: none; stroke: #1f77b4; stroke-width: 1.5"/>
    <path d="M 195.977784 204.942648 
L 195.977784 204.315786 
" clip-path="url(#p32f9f92c0b)" style="fill: none; stroke: #1f77b4; stroke-width: 1.5"/>
    <path d="M 197.18657 205.459599 
L 197.18657 204.810233 
" clip-path="url(#p32f9f92c0b)" style="fill: none; stroke: #1f77b4; stroke-width: 1.5"/>
    <path d="M 198.395357 206.225334 
L 198.395357 205.548861 
" clip-path="url(#p32f9f92c0b)" style="fill: none; stroke: #1f77b4; stroke-width: 1.5"/>
    <path d="M 199.604144 207.273871 
L 199.604144 206.566024 
" clip-path="url(#p32f9f92c0b)" style="fill: none; stroke: #1f77b4; stroke-width: 1.5"/>
    <path d="M 200.81293 208.022426 
L 200.81293 207.279397 
" clip-path="url(#p32f9f92c0b)" style="fill: none; stroke: #1f77b4; stroke-width: 1.5"/>
    <path d="M 202.021717 208.960111 
L 202.021717 208.176504 
" clip-path="url(#p32f9f92c0b)" style="fill: none; stroke: #1f77b4; stroke-width: 1.5"/>
    <path d="M 203.230504 209.547248 
L 203.230504 208.719103 
" clip-path="url(#p32f9f92c0b)" style="fill: none; stroke: #1f77b4; stroke-width: 1.5"/>
    <path d="M 204.43929 209.766665 
L 204.43929 208.889608 
" clip-path="url(#p32f9f92c0b)" style="fill: none; stroke: #1f77b4; stroke-width: 1.5"/>
    <path d="M 205.648077 210.480636 
L 205.648077 209.54253 
" clip-path="url(#p32f9f92c0b)" style="fill: none; stroke: #1f77b4; stroke-width: 1.5"/>
    <path d="M 206.856864 210.50259 
L 206.856864 209.496434 
" clip-path="url(#p32f9f92c0b)" style="fill: none; stroke: #1f77b4; stroke-width: 1.5"/>
    <path d="M 208.06565 211.117686 
L 208.06565 210.025078 
" clip-path="url(#p32f9f92c0b)" style="fill: none; stroke: #1f77b4; stroke-width: 1.5"/>
    <path d="M 209.274437 211.372631 
L 209.274437 210.173935 
" clip-path="url(#p32f9f92c0b)" style="fill: none; stroke: #1f77b4; stroke-width: 1.5"/>
    <path d="M 210.483224 212.046471 
L 210.483224 210.716108 
" clip-path="url(#p32f9f92c0b)" style="fill: none; stroke: #1f77b4; stroke-width: 1.5"/>
    <path d="M 211.69201 213.022505 
L 211.69201 211.538492 
" clip-path="url(#p32f9f92c0b)" style="fill: none; stroke: #1f77b4; stroke-width: 1.5"/>
    <path d="M 212.900797 213.645437 
L 212.900797 211.988526 
" clip-path="url(#p32f9f92c0b)" style="fill: none; stroke: #1f77b4; stroke-width: 1.5"/>
    <path d="M 214.109584 214.410391 
L 214.109584 212.561177 
" clip-path="url(#p32f9f92c0b)" style="fill: none; stroke: #1f77b4; stroke-width: 1.5"/>
    <path d="M 215.31837 216.238508 
L 215.31837 214.157449 
" clip-path="url(#p32f9f92c0b)" style="fill: none; stroke: #1f77b4; stroke-width: 1.5"/>
    <path d="M 216.527157 216.888019 
L 216.527157 214.543427 
" clip-path="url(#p32f9f92c0b)" style="fill: none; stroke: #1f77b4; stroke-width: 1.5"/>
    <path d="M 217.735944 217.450865 
L 217.735944 214.774019 
" clip-path="url(#p32f9f92c0b)" style="fill: none; stroke: #1f77b4; stroke-width: 1.5"/>
    <path d="M 218.94473 218.879999 
L 218.94473 215.732651 
" clip-path="url(#p32f9f92c0b)" style="fill: none; stroke: #1f77b4; stroke-width: 1.5"/>
    <path d="M 220.153517 218.493024 
L 220.153517 214.725803 
" clip-path="url(#p32f9f92c0b)" style="fill: none; stroke: #1f77b4; stroke-width: 1.5"/>
    <path d="M 221.362304 218.623111 
L 221.362304 213.878792 
" clip-path="url(#p32f9f92c0b)" style="fill: none; stroke: #1f77b4; stroke-width: 1.5"/>
    <path d="M 222.57109 217.065495 
L 222.57109 210.771757 
" clip-path="url(#p32f9f92c0b)" style="fill: none; stroke: #1f77b4; stroke-width: 1.5"/>
   </g>
   <g id="patch_3">
    <path d="M 45.478125 228.96 
L 45.478125 7.2 
" style="fill: none; stroke: #000000; stroke-width: 0.8; stroke-linejoin: miter; stroke-linecap: square"/>
   </g>
   <g id="patch_4">
    <path d="M 231.631272 228.96 
L 231.631272 7.2 
" style="fill: none; stroke: #000000; stroke-width: 0.8; stroke-linejoin: miter; stroke-linecap: square"/>
   </g>
   <g id="patch_5">
    <path d="M 45.478125 228.96 
L 231.631272 228.96 
" style="fill: none; stroke: #000000; stroke-width: 0.8; stroke-linejoin: miter; stroke-linecap: square"/>
   </g>
   <g id="patch_6">
    <path d="M 45.478125 7.2 
L 231.631272 7.2 
" style="fill: none; stroke: #000000; stroke-width: 0.8; stroke-linejoin: miter; stroke-linecap: square"/>
   </g>
  </g>
 </g>
 <defs>
  <clipPath id="p32f9f92c0b">
   <rect x="45.478125" y="7.2" width="186.153147" height="221.76"/>
  </clipPath>
 </defs>
</svg>
