<?xml version="1.0" encoding="utf-8" standalone="no"?>
<!DOCTYPE svg PUBLIC "-//W3C//DTD SVG 1.1//EN"
  "http://www.w3.org/Graphics/SVG/1.1/DTD/svg11.dtd">
<svg xmlns:xlink="http://www.w3.org/1999/xlink" width="387.478125pt" height="267.439687pt" viewBox="0 0 387.478125 267.439687" xmlns="http://www.w3.org/2000/svg" version="1.1">
 <metadata>
  <rdf:RDF xmlns:dc="http://purl.org/dc/elements/1.1/" xmlns:cc="http://creativecommons.org/ns#" xmlns:rdf="http://www.w3.org/1999/02/22-rdf-syntax-ns#">
   <cc:Work>
    <dc:type rdf:resource="http://purl.org/dc/dcmitype/StillImage"/>
    <dc:date>2026-04-23T10:44:16.185487</dc:date>
    <dc:format>image/svg+xml</dc:format>
    <dc:creator>
     <cc:Agent>
      <dc:title>Matplotlib v3.10.8, https://matplotlib.org/</dc:title>
     </cc:Agent>
    </dc:creator>
   </cc:Work>
  </rdf:RDF>
 </metadata>
 <defs>
  <style type="text/css">*{stroke-linejoin: round; stroke-linecap: butt}</style>
 </defs>
 <g id="figure_1">
  <g id="patch_1">
   <path d="M 0 267.439687 
L 387.478125 267.439687 
L 387.478125 0 
L 0 0 
z
" style="fill: #ffffff"/>
  </g>
  <g id="axes_1">
   <g id="patch_2">
    <path d="M 45.478125 228.96 
L 380.278125 228.96 
L 380.278125 7.2 
L 45.478125 7.2 
z
" style="fill: #ffffff"/>
   </g>
   <g id="matplotlib.axis_1">
    <g id="xtick_1">
     <g id="line2d_1">
      <defs>
       <path id="m46465b622e" d="M 0 0 
L 0 3.5 
" style="stroke: #000000; stroke-width: 0.8"/>
      </defs>
      <g>
       <use xlink:href="#m46465b622e" x="50.201009" y="228.96" style="stroke: #000000; stroke-width: 0.8"/>
      </g>
     </g>
     <g id="text_1">
      <!-- 0.00 -->
      <g transform="translate(39.068197 243.558437) scale(0.1 -0.1)">
       <defs>
        <path id="DejaVuSans-30" d="M 2034 4250 
Q 1547 4250 1301 3770 
Q 1056 3291 1056 2328 
Q 1056 1369 1301 889 
Q 1547 409 2034 409 
Q 2525 409 2770 889 
Q 3016 1369 3016 2328 
Q 3016 3291 2770 3770 
Q 2525 4250 2034 4250 
z
M 2034 4750 
Q 2819 4750 3233 4129 
Q 3647 3509 3647 2328 
Q 3647 1150 3233 529 
Q 2819 -91 2034 -91 
Q 1250 -91 836 529 
Q 422 1150 422 2328 
Q 422 3509 836 4129 
Q 1250 4750 2034 4750 
z
" transform="scale(0.015625)"/>
        <path id="DejaVuSans-2e" d="M 684 794 
L 1344 794 
L 1344 0 
L 684 0 
L 684 794 
z
" transform="scale(0.015625)"/>
       </defs>
       <use xlink:href="#DejaVuSans-30"/>
       <use xlink:href="#DejaVuSans-2e" transform="translate(63.623047 0)"/>
       <use xlink:href="#DejaVuSans-30" transform="translate(95.410156 0)"/>
       <use xlink:href="#DejaVuSans-30" transform="translate(159.033203 0)"/>
      </g>
     </g>
    </g>
    <g id="xtick_2">
     <g id="line2d_2">
      <g>
       <use xlink:href="#m46465b622e" x="102.677498" y="228.96" style="stroke: #000000; stroke-width: 0.8"/>
      </g>
     </g>
     <g id="text_2">
      <!-- 0.05 -->
      <g transform="translate(91.544686 243.558437) scale(0.1 -0.1)">
       <defs>
        <path id="DejaVuSans-35" d="M 691 4666 
L 3169 4666 
L 3169 4134 
L 1269 4134 
L 1269 2991 
Q 1406 3038 1543 3061 
Q 1681 3084 1819 3084 
Q 2600 3084 3056 2656 
Q 3513 2228 3513 1497 
Q 3513 744 3044 326 
Q 2575 -91 1722 -91 
Q 1428 -91 1123 -41 
Q 819 9 494 109 
L 494 744 
Q 775 591 1075 516 
Q 1375 441 1709 441 
Q 2250 441 2565 725 
Q 2881 1009 2881 1497 
Q 2881 1984 2565 2268 
Q 2250 2553 1709 2553 
Q 1456 2553 1204 2497 
Q 953 2441 691 2322 
L 691 4666 
z
" transform="scale(0.015625)"/>
       </defs>
       <use xlink:href="#DejaVuSans-30"/>
       <use xlink:href="#DejaVuSans-2e" transform="translate(63.623047 0)"/>
       <use xlink:href="#DejaVuSans-30" transform="translate(95.410156 0)"/>
       <use xlink:href="#DejaVuSans-35" transform="translate(159.033203 0)"/>
      </g>
     </g>
    </g>
    <g id="xtick_3">
     <g id="line2d_3">
      <g>
       <use xlink:href="#m46465b622e" x="155.153987" y="228.96" style="stroke: #000000; stroke-width: 0.8"/>
      </g>
     </g>
     <g id="text_3">
      <!-- 0.10 -->
      <g transform="translate(144.021175 243.558437) scale(0.1 -0.1)">
       <defs>
        <path id="DejaVuSans-31" d="M 794 531 
L 1825 531 
L 1825 4091 
L 703 3866 
L 703 4441 
L 1819 4666 
L 2450 4666 
L 2450 531 
L 3481 531 
L 3481 0 
L 794 0 
L 794 531 
z
" transform="scale(0.015625)"/>
       </defs>
       <use xlink:href="#DejaVuSans-30"/>
       <use xlink:href="#DejaVuSans-2e" transform="translate(63.623047 0)"/>
       <use xlink:href="#DejaVuSans-31" transform="translate(95.410156 0)"/>
       <use xlink:href="#DejaVuSans-30" transform="translate(159.033203 0)"/>
      </g>
     </g>
    </g>
    <g id="xtick_4">
     <g id="line2d_4">
      <g>
       <use xlink:href="#m46465b622e" x="207.630476" y="228.96" style="stroke: #000000; stroke-width: 0.8"/>
      </g>
     </g>
     <g id="text_4">
      <!-- 0.15 -->
      <g transform="translate(196.497664 243.558437) scale(0.1 -0.1)">
       <use xlink:href="#DejaVuSans-30"/>
       <use xlink:href="#DejaVuSans-2e" transform="translate(63.623047 0)"/>
       <use xlink:href="#DejaVuSans-31" transform="translate(95.410156 0)"/>
       <use xlink:href="#DejaVuSans-35" transform="translate(159.033203 0)"/>
      </g>
     </g>
    </g>
    <g id="xtick_5">
     <g id="line2d_5">
      <g>
       <use xlink:href="#m46465b622e" x="260.106965" y="228.96" style="stroke: #000000; stroke-width: 0.8"/>
      </g>
     </g>
     <g id="text_5">
      <!-- 0.20 -->
      <g transform="translate(248.974153 243.558437) scale(0.1 -0.1)">
       <defs>
        <path id="DejaVuSans-32" d="M 1228 531 
L 3431 531 
L 3431 0 
L 469 0 
L 469 531 
Q 828 903 1448 1529 
Q 2069 2156 2228 2338 
Q 2531 2678 2651 2914 
Q 2772 3150 2772 3378 
Q 2772 3750 2511 3984 
Q 2250 4219 1831 4219 
Q 1534 4219 1204 4116 
Q 875 4013 500 3803 
L 500 4441 
Q 881 4594 1212 4672 
Q 1544 4750 1819 4750 
Q 2544 4750 2975 4387 
Q 3406 4025 3406 3419 
Q 3406 3131 3298 2873 
Q 3191 2616 2906 2266 
Q 2828 2175 2409 1742 
Q 1991 1309 1228 531 
z
" transform="scale(0.015625)"/>
       </defs>
       <use xlink:href="#DejaVuSans-30"/>
       <use xlink:href="#DejaVuSans-2e" transform="translate(63.623047 0)"/>
       <use xlink:href="#DejaVuSans-32" transform="translate(95.410156 0)"/>
       <use xlink:href="#DejaVuSans-30" transform="translate(159.033203 0)"/>
      </g>
     </g>
    </g>
    <g id="xtick_6">
     <g id="line2d_6">
      <g>
       <use xlink:href="#m46465b622e" x="312.583454" y="228.96" style="stroke: #000000; stroke-width: 0.8"/>
      </g>
     </g>
     <g id="text_6">
      <!-- 0.25 -->
      <g transform="translate(301.450642 243.558437) scale(0.1 -0.1)">
       <use xlink:href="#DejaVuSans-30"/>
       <use xlink:href="#DejaVuSans-2e" transform="translate(63.623047 0)"/>
       <use xlink:href="#DejaVuSans-32" transform="translate(95.410156 0)"/>
       <use xlink:href="#DejaVuSans-35" transform="translate(159.033203 0)"/>
      </g>
     </g>
    </g>
    <g id="xtick_7">
     <g id="line2d_7">
      <g>
       <use xlink:href="#m46465b622e" x="365.059943" y="228.96" style="stroke: #000000; stroke-width: 0.8"/>
      </g>
     </g>
     <g id="text_7">
      <!-- 0.30 -->
      <g transform="translate(353.927131 243.558437) scale(0.1 -0.1)">
       <defs>
        <path id="DejaVuSans-33" d="M 2597 2516 
Q 3050 2419 3304 2112 
Q 3559 1806 3559 1356 
Q 3559 666 3084 287 
Q 2609 -91 1734 -91 
Q 1441 -91 1130 -33 
Q 819 25 488 141 
L 488 750 
Q 750 597 1062 519 
Q 1375 441 1716 441 
Q 2309 441 2620 675 
Q 2931 909 2931 1356 
Q 2931 1769 2642 2001 
Q 2353 2234 1838 2234 
L 1294 2234 
L 1294 2753 
L 1863 2753 
Q 2328 2753 2575 2939 
Q 2822 3125 2822 3475 
Q 2822 3834 2567 4026 
Q 2313 4219 1838 4219 
Q 1578 4219 1281 4162 
Q 984 4106 628 3988 
L 628 4550 
Q 988 4650 1302 4700 
Q 1616 4750 1894 4750 
Q 2613 4750 3031 4423 
Q 3450 4097 3450 3541 
Q 3450 3153 3228 2886 
Q 3006 2619 2597 2516 
z
" transform="scale(0.015625)"/>
       </defs>
       <use xlink:href="#DejaVuSans-30"/>
       <use xlink:href="#DejaVuSans-2e" transform="translate(63.623047 0)"/>
       <use xlink:href="#DejaVuSans-33" transform="translate(95.410156 0)"/>
       <use xlink:href="#DejaVuSans-30" transform="translate(159.033203 0)"/>
      </g>
     </g>
    </g>
    <g id="text_8">
     <!-- Q [1/Å] -->
     <g transform="translate(195.165625 258.16) scale(0.1 -0.1)">
      <defs>
       <path id="DejaVuSans-51" d="M 2522 4238 
Q 1834 4238 1429 3725 
Q 1025 3213 1025 2328 
Q 1025 1447 1429 934 
Q 1834 422 2522 422 
Q 3209 422 3611 934 
Q 4013 1447 4013 2328 
Q 4013 3213 3611 3725 
Q 3209 4238 2522 4238 
z
M 3406 84 
L 4238 -825 
L 3475 -825 
L 2784 -78 
Q 2681 -84 2626 -87 
Q 2572 -91 2522 -91 
Q 1538 -91 948 567 
Q 359 1225 359 2328 
Q 359 3434 948 4092 
Q 1538 4750 2522 4750 
Q 3503 4750 4090 4092 
Q 4678 3434 4678 2328 
Q 4678 1516 4351 937 
Q 4025 359 3406 84 
z
" transform="scale(0.015625)"/>
       <path id="DejaVuSans-20" transform="scale(0.015625)"/>
       <path id="DejaVuSans-5b" d="M 550 4863 
L 1875 4863 
L 1875 4416 
L 1125 4416 
L 1125 -397 
L 1875 -397 
L 1875 -844 
L 550 -844 
L 550 4863 
z
" transform="scale(0.015625)"/>
       <path id="DejaVuSans-2f" d="M 1625 4666 
L 2156 4666 
L 531 -594 
L 0 -594 
L 1625 4666 
z
" transform="scale(0.015625)"/>
       <path id="DejaVuSans-c5" d="M 2663 5081 
Q 2663 5278 2523 5417 
Q 2384 5556 2188 5556 
Q 1988 5556 1852 5420 
Q 1716 5284 1716 5081 
Q 1716 4884 1853 4746 
Q 1991 4609 2188 4609 
Q 2384 4609 2523 4746 
Q 2663 4884 2663 5081 
z
M 2188 4044 
L 1338 1722 
L 3041 1722 
L 2188 4044 
z
M 1716 4366 
Q 1525 4494 1428 4673 
Q 1331 4853 1331 5081 
Q 1331 5441 1579 5691 
Q 1828 5941 2188 5941 
Q 2544 5941 2795 5689 
Q 3047 5438 3047 5081 
Q 3047 4863 2948 4678 
Q 2850 4494 2663 4366 
L 4325 0 
L 3669 0 
L 3244 1197 
L 1141 1197 
L 716 0 
L 50 0 
L 1716 4366 
z
" transform="scale(0.015625)"/>
       <path id="DejaVuSans-5d" d="M 1947 4863 
L 1947 -844 
L 622 -844 
L 622 -397 
L 1369 -397 
L 1369 4416 
L 622 4416 
L 622 4863 
L 1947 4863 
z
" transform="scale(0.015625)"/>
      </defs>
      <use xlink:href="#DejaVuSans-51"/>
      <use xlink:href="#DejaVuSans-20" transform="translate(78.710938 0)"/>
      <use xlink:href="#DejaVuSans-5b" transform="translate(110.498047 0)"/>
      <use xlink:href="#DejaVuSans-31" transform="translate(149.511719 0)"/>
      <use xlink:href="#DejaVuSans-2f" transform="translate(213.134766 0)"/>
      <use xlink:href="#DejaVuSans-c5" transform="translate(246.826172 0)"/>
      <use xlink:href="#DejaVuSans-5d" transform="translate(315.234375 0)"/>
     </g>
    </g>
   </g>
   <g id="matplotlib.axis_2">
    <g id="ytick_1">
     <g id="line2d_8">
      <defs>
       <path id="m5a78bd3f42" d="M 0 0 
L -3.5 0 
" style="stroke: #000000; stroke-width: 0.8"/>
      </defs>
      <g>
       <use xlink:href="#m5a78bd3f42" x="45.478125" y="111.140667" style="stroke: #000000; stroke-width: 0.8"/>
      </g>
     </g>
     <g id="text_9">
      <!-- $\mathdefault{10^{0}}$ -->
      <g transform="translate(20.878125 114.939885) scale(0.1 -0.1)">
       <use xlink:href="#DejaVuSans-31" transform="translate(0 0.765625)"/>
       <use xlink:href="#DejaVuSans-30" transform="translate(63.623047 0.765625)"/>
       <use xlink:href="#DejaVuSans-30" transform="translate(128.203125 39.046875) scale(0.7)"/>
      </g>
     </g>
    </g>
    <g id="ytick_2">
     <g id="line2d_9">
      <defs>
       <path id="m7a5da7b678" d="M 0 0 
L -2 0 
" style="stroke: #000000; stroke-width: 0.6"/>
      </defs>
      <g>
       <use xlink:href="#m7a5da7b678" x="45.478125" y="206.544401" style="stroke: #000000; stroke-width: 0.6"/>
      </g>
     </g>
    </g>
    <g id="ytick_3">
     <g id="line2d_10">
      <g>
       <use xlink:href="#m7a5da7b678" x="45.478125" y="182.509373" style="stroke: #000000; stroke-width: 0.6"/>
      </g>
     </g>
    </g>
    <g id="ytick_4">
     <g id="line2d_11">
      <g>
       <use xlink:href="#m7a5da7b678" x="45.478125" y="165.456249" style="stroke: #000000; stroke-width: 0.6"/>
      </g>
     </g>
    </g>
    <g id="ytick_5">
     <g id="line2d_12">
      <g>
       <use xlink:href="#m7a5da7b678" x="45.478125" y="152.228819" style="stroke: #000000; stroke-width: 0.6"/>
      </g>
     </g>
    </g>
    <g id="ytick_6">
     <g id="line2d_13">
      <g>
       <use xlink:href="#m7a5da7b678" x="45.478125" y="141.421221" style="stroke: #000000; stroke-width: 0.6"/>
      </g>
     </g>
    </g>
    <g id="ytick_7">
     <g id="line2d_14">
      <g>
       <use xlink:href="#m7a5da7b678" x="45.478125" y="132.283527" style="stroke: #000000; stroke-width: 0.6"/>
      </g>
     </g>
    </g>
    <g id="ytick_8">
     <g id="line2d_15">
      <g>
       <use xlink:href="#m7a5da7b678" x="45.478125" y="124.368097" style="stroke: #000000; stroke-width: 0.6"/>
      </g>
     </g>
    </g>
    <g id="ytick_9">
     <g id="line2d_16">
      <g>
       <use xlink:href="#m7a5da7b678" x="45.478125" y="117.386193" style="stroke: #000000; stroke-width: 0.6"/>
      </g>
     </g>
    </g>
    <g id="ytick_10">
     <g id="line2d_17">
      <g>
       <use xlink:href="#m7a5da7b678" x="45.478125" y="70.052514" style="stroke: #000000; stroke-width: 0.6"/>
      </g>
     </g>
    </g>
    <g id="ytick_11">
     <g id="line2d_18">
      <g>
       <use xlink:href="#m7a5da7b678" x="45.478125" y="46.017486" style="stroke: #000000; stroke-width: 0.6"/>
      </g>
     </g>
    </g>
    <g id="ytick_12">
     <g id="line2d_19">
      <g>
       <use xlink:href="#m7a5da7b678" x="45.478125" y="28.964362" style="stroke: #000000; stroke-width: 0.6"/>
      </g>
     </g>
    </g>
    <g id="ytick_13">
     <g id="line2d_20">
      <g>
       <use xlink:href="#m7a5da7b678" x="45.478125" y="15.736932" style="stroke: #000000; stroke-width: 0.6"/>
      </g>
     </g>
    </g>
    <g id="text_10">
     <!-- [dimensionless] -->
     <g transform="translate(14.798438 157.557344) rotate(-90) scale(0.1 -0.1)">
      <defs>
       <path id="DejaVuSans-64" d="M 2906 2969 
L 2906 4863 
L 3481 4863 
L 3481 0 
L 2906 0 
L 2906 525 
Q 2725 213 2448 61 
Q 2172 -91 1784 -91 
Q 1150 -91 751 415 
Q 353 922 353 1747 
Q 353 2572 751 3078 
Q 1150 3584 1784 3584 
Q 2172 3584 2448 3432 
Q 2725 3281 2906 2969 
z
M 947 1747 
Q 947 1113 1208 752 
Q 1469 391 1925 391 
Q 2381 391 2643 752 
Q 2906 1113 2906 1747 
Q 2906 2381 2643 2742 
Q 2381 3103 1925 3103 
Q 1469 3103 1208 2742 
Q 947 2381 947 1747 
z
" transform="scale(0.015625)"/>
       <path id="DejaVuSans-69" d="M 603 3500 
L 1178 3500 
L 1178 0 
L 603 0 
L 603 3500 
z
M 603 4863 
L 1178 4863 
L 1178 4134 
L 603 4134 
L 603 4863 
z
" transform="scale(0.015625)"/>
       <path id="DejaVuSans-6d" d="M 3328 2828 
Q 3544 3216 3844 3400 
Q 4144 3584 4550 3584 
Q 5097 3584 5394 3201 
Q 5691 2819 5691 2113 
L 5691 0 
L 5113 0 
L 5113 2094 
Q 5113 2597 4934 2840 
Q 4756 3084 4391 3084 
Q 3944 3084 3684 2787 
Q 3425 2491 3425 1978 
L 3425 0 
L 2847 0 
L 2847 2094 
Q 2847 2600 2669 2842 
Q 2491 3084 2119 3084 
Q 1678 3084 1418 2786 
Q 1159 2488 1159 1978 
L 1159 0 
L 581 0 
L 581 3500 
L 1159 3500 
L 1159 2956 
Q 1356 3278 1631 3431 
Q 1906 3584 2284 3584 
Q 2666 3584 2933 3390 
Q 3200 3197 3328 2828 
z
" transform="scale(0.015625)"/>
       <path id="DejaVuSans-65" d="M 3597 1894 
L 3597 1613 
L 953 1613 
Q 991 1019 1311 708 
Q 1631 397 2203 397 
Q 2534 397 2845 478 
Q 3156 559 3463 722 
L 3463 178 
Q 3153 47 2828 -22 
Q 2503 -91 2169 -91 
Q 1331 -91 842 396 
Q 353 884 353 1716 
Q 353 2575 817 3079 
Q 1281 3584 2069 3584 
Q 2775 3584 3186 3129 
Q 3597 2675 3597 1894 
z
M 3022 2063 
Q 3016 2534 2758 2815 
Q 2500 3097 2075 3097 
Q 1594 3097 1305 2825 
Q 1016 2553 972 2059 
L 3022 2063 
z
" transform="scale(0.015625)"/>
       <path id="DejaVuSans-6e" d="M 3513 2113 
L 3513 0 
L 2938 0 
L 2938 2094 
Q 2938 2591 2744 2837 
Q 2550 3084 2163 3084 
Q 1697 3084 1428 2787 
Q 1159 2491 1159 1978 
L 1159 0 
L 581 0 
L 581 3500 
L 1159 3500 
L 1159 2956 
Q 1366 3272 1645 3428 
Q 1925 3584 2291 3584 
Q 2894 3584 3203 3211 
Q 3513 2838 3513 2113 
z
" transform="scale(0.015625)"/>
       <path id="DejaVuSans-73" d="M 2834 3397 
L 2834 2853 
Q 2591 2978 2328 3040 
Q 2066 3103 1784 3103 
Q 1356 3103 1142 2972 
Q 928 2841 928 2578 
Q 928 2378 1081 2264 
Q 1234 2150 1697 2047 
L 1894 2003 
Q 2506 1872 2764 1633 
Q 3022 1394 3022 966 
Q 3022 478 2636 193 
Q 2250 -91 1575 -91 
Q 1294 -91 989 -36 
Q 684 19 347 128 
L 347 722 
Q 666 556 975 473 
Q 1284 391 1588 391 
Q 1994 391 2212 530 
Q 2431 669 2431 922 
Q 2431 1156 2273 1281 
Q 2116 1406 1581 1522 
L 1381 1569 
Q 847 1681 609 1914 
Q 372 2147 372 2553 
Q 372 3047 722 3315 
Q 1072 3584 1716 3584 
Q 2034 3584 2315 3537 
Q 2597 3491 2834 3397 
z
" transform="scale(0.015625)"/>
       <path id="DejaVuSans-6f" d="M 1959 3097 
Q 1497 3097 1228 2736 
Q 959 2375 959 1747 
Q 959 1119 1226 758 
Q 1494 397 1959 397 
Q 2419 397 2687 759 
Q 2956 1122 2956 1747 
Q 2956 2369 2687 2733 
Q 2419 3097 1959 3097 
z
M 1959 3584 
Q 2709 3584 3137 3096 
Q 3566 2609 3566 1747 
Q 3566 888 3137 398 
Q 2709 -91 1959 -91 
Q 1206 -91 779 398 
Q 353 888 353 1747 
Q 353 2609 779 3096 
Q 1206 3584 1959 3584 
z
" transform="scale(0.015625)"/>
       <path id="DejaVuSans-6c" d="M 603 4863 
L 1178 4863 
L 1178 0 
L 603 0 
L 603 4863 
z
" transform="scale(0.015625)"/>
      </defs>
      <use xlink:href="#DejaVuSans-5b"/>
      <use xlink:href="#DejaVuSans-64" transform="translate(39.013672 0)"/>
      <use xlink:href="#DejaVuSans-69" transform="translate(102.490234 0)"/>
      <use xlink:href="#DejaVuSans-6d" transform="translate(130.273438 0)"/>
      <use xlink:href="#DejaVuSans-65" transform="translate(227.685547 0)"/>
      <use xlink:href="#DejaVuSans-6e" transform="translate(289.208984 0)"/>
      <use xlink:href="#DejaVuSans-73" transform="translate(352.587891 0)"/>
      <use xlink:href="#DejaVuSans-69" transform="translate(404.6875 0)"/>
      <use xlink:href="#DejaVuSans-6f" transform="translate(432.470703 0)"/>
      <use xlink:href="#DejaVuSans-6e" transform="translate(493.652344 0)"/>
      <use xlink:href="#DejaVuSans-6c" transform="translate(557.03125 0)"/>
      <use xlink:href="#DejaVuSans-65" transform="translate(584.814453 0)"/>
      <use xlink:href="#DejaVuSans-73" transform="translate(646.337891 0)"/>
      <use xlink:href="#DejaVuSans-73" transform="translate(698.4375 0)"/>
      <use xlink:href="#DejaVuSans-5d" transform="translate(750.537109 0)"/>
     </g>
    </g>
   </g>
   <g id="line2d_21">
    <path d="M 60.696307 23.959064 
L 63.739943 23.959064 
L 63.739943 18.682837 
L 66.78358 18.682837 
L 66.78358 17.533719 
L 69.827216 17.533719 
L 69.827216 18.863332 
L 72.870852 18.863332 
L 72.870852 21.678796 
L 75.914489 21.678796 
L 75.914489 25.856747 
L 78.958125 25.856747 
L 78.958125 31.122426 
L 82.001761 31.122426 
L 82.001761 37.430713 
L 85.045398 37.430713 
L 85.045398 43.809455 
L 88.089034 43.809455 
L 88.089034 50.31859 
L 91.13267 50.31859 
L 91.13267 56.466061 
L 94.176307 56.466061 
L 94.176307 62.806218 
L 97.219943 62.806218 
L 97.219943 67.945583 
L 100.26358 67.945583 
L 100.26358 73.118418 
L 103.307216 73.118418 
L 103.307216 78.21123 
L 106.350852 78.21123 
L 106.350852 82.477397 
L 109.394489 82.477397 
L 109.394489 86.177435 
L 112.438125 86.177435 
L 112.438125 90.644065 
L 115.481761 90.644065 
L 115.481761 94.639238 
L 118.525398 94.639238 
L 118.525398 98.29203 
L 121.569034 98.29203 
L 121.569034 100.951802 
L 124.61267 100.951802 
L 124.61267 105.230105 
L 127.656307 105.230105 
L 127.656307 107.659618 
L 130.699943 107.659618 
L 130.699943 110.195327 
L 133.74358 110.195327 
L 133.74358 112.767177 
L 136.787216 112.767177 
L 136.787216 116.371537 
L 139.830852 116.371537 
L 139.830852 118.697269 
L 142.874489 118.697269 
L 142.874489 121.374417 
L 145.918125 121.374417 
L 145.918125 123.65088 
L 148.961761 123.65088 
L 148.961761 125.418065 
L 152.005398 125.418065 
L 152.005398 127.453013 
L 155.049034 127.453013 
L 155.049034 129.532707 
L 158.09267 129.532707 
L 158.09267 131.500919 
L 161.136307 131.500919 
L 161.136307 133.69694 
L 164.179943 133.69694 
L 164.179943 134.95273 
L 167.22358 134.95273 
L 167.22358 136.235464 
L 170.267216 136.235464 
L 170.267216 138.310554 
L 173.310852 138.310554 
L 173.310852 139.234173 
L 176.354489 139.234173 
L 176.354489 140.47679 
L 179.398125 140.47679 
L 179.398125 142.372309 
L 182.441761 142.372309 
L 182.441761 143.848675 
L 185.485398 143.848675 
L 185.485398 144.563849 
L 188.529034 144.563849 
L 188.529034 147.163771 
L 191.57267 147.163771 
L 191.57267 147.924155 
L 194.616307 147.924155 
L 194.616307 148.748876 
L 197.659943 148.748876 
L 197.659943 149.534805 
L 200.70358 149.534805 
L 200.70358 150.781703 
L 203.747216 150.781703 
L 203.747216 154.281253 
L 206.790852 154.281253 
L 206.790852 152.764865 
L 209.834489 152.764865 
L 209.834489 155.129315 
L 212.878125 155.129315 
L 212.878125 154.900547 
L 215.921761 154.900547 
L 215.921761 158.269452 
L 222.009034 158.285722 
L 222.009034 158.673897 
L 225.05267 158.673897 
L 225.05267 161.137691 
L 228.096307 161.137691 
L 228.096307 160.319919 
L 231.139943 160.319919 
L 231.139943 162.262241 
L 234.18358 162.262241 
L 234.18358 163.197127 
L 237.227216 163.197127 
L 237.227216 164.971398 
L 240.270852 164.971398 
L 240.270852 165.399744 
L 243.314489 165.399744 
L 243.314489 165.58698 
L 246.358125 165.58698 
L 246.358125 166.599963 
L 249.401761 166.599963 
L 249.401761 166.159081 
L 252.445398 166.159081 
L 252.445398 169.587978 
L 255.489034 169.587978 
L 255.489034 170.364862 
L 258.53267 170.364862 
L 258.53267 169.803615 
L 261.576307 169.803615 
L 261.576307 171.928539 
L 264.619943 171.928539 
L 264.619943 170.619794 
L 267.66358 170.619794 
L 267.66358 171.121129 
L 270.707216 171.121129 
L 270.707216 174.340865 
L 273.750852 174.340865 
L 273.750852 173.421985 
L 276.794489 173.421985 
L 276.794489 175.262676 
L 279.838125 175.262676 
L 279.838125 178.798003 
L 282.881761 178.798003 
L 282.881761 175.446479 
L 285.925398 175.446479 
L 285.925398 176.251816 
L 288.969034 176.251816 
L 288.969034 179.886927 
L 292.01267 179.886927 
L 292.01267 179.366564 
L 298.099943 179.465433 
L 298.099943 180.641453 
L 301.14358 180.641453 
L 301.14358 181.789222 
L 304.187216 181.789222 
L 304.187216 180.125918 
L 307.230852 180.125918 
L 307.230852 179.653537 
L 310.274489 179.653537 
L 310.274489 185.679385 
L 313.318125 185.679385 
L 313.318125 182.039873 
L 316.361761 182.039873 
L 316.361761 182.508723 
L 319.405398 182.508723 
L 319.405398 185.940373 
L 322.449034 185.940373 
L 322.449034 190.240974 
L 325.49267 190.240974 
L 325.49267 193.126617 
L 328.536307 193.126617 
L 328.536307 194.098645 
L 331.579943 194.098645 
L 331.579943 195.125758 
L 334.62358 195.125758 
L 334.62358 189.38891 
L 337.667216 189.38891 
L 337.667216 188.876119 
L 340.710852 188.876119 
L 340.710852 183.6634 
L 343.754489 183.6634 
L 343.754489 191.46666 
L 346.798125 191.46666 
L 346.798125 185.834719 
L 349.841761 185.834719 
L 349.841761 188.398428 
L 352.885398 188.398428 
L 352.885398 186.792889 
L 355.929034 186.792889 
L 355.929034 189.852777 
L 358.97267 189.852777 
L 358.97267 210.828914 
L 362.016307 210.828914 
L 362.016307 204.364506 
L 365.059943 204.364506 
L 365.059943 204.364506 
" clip-path="url(#pda5d18fb3b)" style="fill: none; stroke: #1f77b4; stroke-width: 1.5; stroke-linecap: square"/>
   </g>
   <g id="LineCollection_1">
    <path d="M 62.218125 24.347697 
L 62.218125 23.572963 
" clip-path="url(#pda5d18fb3b)" style="fill: none; stroke: #1f77b4; stroke-width: 1.5"/>
    <path d="M 65.261761 18.980458 
L 65.261761 18.386703 
" clip-path="url(#pda5d18fb3b)" style="fill: none; stroke: #1f77b4; stroke-width: 1.5"/>
    <path d="M 68.305398 17.788529 
L 68.305398 17.28 
" clip-path="url(#pda5d18fb3b)" style="fill: none; stroke: #1f77b4; stroke-width: 1.5"/>
    <path d="M 71.349034 19.095024 
L 71.349034 18.632542 
" clip-path="url(#pda5d18fb3b)" style="fill: none; stroke: #1f77b4; stroke-width: 1.5"/>
    <path d="M 74.39267 21.896948 
L 74.39267 21.461443 
" clip-path="url(#pda5d18fb3b)" style="fill: none; stroke: #1f77b4; stroke-width: 1.5"/>
    <path d="M 77.436307 26.067762 
L 77.436307 25.646479 
" clip-path="url(#pda5d18fb3b)" style="fill: none; stroke: #1f77b4; stroke-width: 1.5"/>
    <path d="M 80.479943 31.330689 
L 80.479943 30.914893 
" clip-path="url(#pda5d18fb3b)" style="fill: none; stroke: #1f77b4; stroke-width: 1.5"/>
    <path d="M 83.52358 37.639689 
L 83.52358 37.222472 
" clip-path="url(#pda5d18fb3b)" style="fill: none; stroke: #1f77b4; stroke-width: 1.5"/>
    <path d="M 86.567216 44.020525 
L 86.567216 43.599133 
" clip-path="url(#pda5d18fb3b)" style="fill: none; stroke: #1f77b4; stroke-width: 1.5"/>
    <path d="M 89.610852 50.533165 
L 89.610852 50.104788 
" clip-path="url(#pda5d18fb3b)" style="fill: none; stroke: #1f77b4; stroke-width: 1.5"/>
    <path d="M 92.654489 56.684826 
L 92.654489 56.248102 
" clip-path="url(#pda5d18fb3b)" style="fill: none; stroke: #1f77b4; stroke-width: 1.5"/>
    <path d="M 95.698125 63.030933 
L 95.698125 62.582352 
" clip-path="url(#pda5d18fb3b)" style="fill: none; stroke: #1f77b4; stroke-width: 1.5"/>
    <path d="M 98.741761 68.175382 
L 98.741761 67.716672 
" clip-path="url(#pda5d18fb3b)" style="fill: none; stroke: #1f77b4; stroke-width: 1.5"/>
    <path d="M 101.785398 73.35445 
L 101.785398 72.883322 
" clip-path="url(#pda5d18fb3b)" style="fill: none; stroke: #1f77b4; stroke-width: 1.5"/>
    <path d="M 104.829034 78.454597 
L 104.829034 77.968859 
" clip-path="url(#pda5d18fb3b)" style="fill: none; stroke: #1f77b4; stroke-width: 1.5"/>
    <path d="M 107.87267 82.727622 
L 107.87267 82.228225 
" clip-path="url(#pda5d18fb3b)" style="fill: none; stroke: #1f77b4; stroke-width: 1.5"/>
    <path d="M 110.916307 86.434376 
L 110.916307 85.921603 
" clip-path="url(#pda5d18fb3b)" style="fill: none; stroke: #1f77b4; stroke-width: 1.5"/>
    <path d="M 113.959943 90.910221 
L 113.959943 90.379097 
" clip-path="url(#pda5d18fb3b)" style="fill: none; stroke: #1f77b4; stroke-width: 1.5"/>
    <path d="M 117.00358 94.91448 
L 117.00358 94.365267 
" clip-path="url(#pda5d18fb3b)" style="fill: none; stroke: #1f77b4; stroke-width: 1.5"/>
    <path d="M 120.047216 98.576313 
L 120.047216 98.009103 
" clip-path="url(#pda5d18fb3b)" style="fill: none; stroke: #1f77b4; stroke-width: 1.5"/>
    <path d="M 123.090852 101.243381 
L 123.090852 100.661649 
" clip-path="url(#pda5d18fb3b)" style="fill: none; stroke: #1f77b4; stroke-width: 1.5"/>
    <path d="M 126.134489 105.533737 
L 126.134489 104.928021 
" clip-path="url(#pda5d18fb3b)" style="fill: none; stroke: #1f77b4; stroke-width: 1.5"/>
    <path d="M 129.178125 107.971397 
L 129.178125 107.349471 
" clip-path="url(#pda5d18fb3b)" style="fill: none; stroke: #1f77b4; stroke-width: 1.5"/>
    <path d="M 132.221761 110.516025 
L 132.221761 109.876355 
" clip-path="url(#pda5d18fb3b)" style="fill: none; stroke: #1f77b4; stroke-width: 1.5"/>
    <path d="M 135.265398 113.097625 
L 135.265398 112.438561 
" clip-path="url(#pda5d18fb3b)" style="fill: none; stroke: #1f77b4; stroke-width: 1.5"/>
    <path d="M 138.309034 116.715523 
L 138.309034 116.029536 
" clip-path="url(#pda5d18fb3b)" style="fill: none; stroke: #1f77b4; stroke-width: 1.5"/>
    <path d="M 141.35267 119.051664 
L 141.35267 118.344979 
" clip-path="url(#pda5d18fb3b)" style="fill: none; stroke: #1f77b4; stroke-width: 1.5"/>
    <path d="M 144.396307 121.741295 
L 144.396307 121.009797 
" clip-path="url(#pda5d18fb3b)" style="fill: none; stroke: #1f77b4; stroke-width: 1.5"/>
    <path d="M 147.439943 124.029568 
L 147.439943 123.274596 
" clip-path="url(#pda5d18fb3b)" style="fill: none; stroke: #1f77b4; stroke-width: 1.5"/>
    <path d="M 150.48358 125.807692 
L 150.48358 125.030982 
" clip-path="url(#pda5d18fb3b)" style="fill: none; stroke: #1f77b4; stroke-width: 1.5"/>
    <path d="M 153.527216 127.855146 
L 153.527216 127.05359 
" clip-path="url(#pda5d18fb3b)" style="fill: none; stroke: #1f77b4; stroke-width: 1.5"/>
    <path d="M 156.570852 129.948244 
L 156.570852 129.120063 
" clip-path="url(#pda5d18fb3b)" style="fill: none; stroke: #1f77b4; stroke-width: 1.5"/>
    <path d="M 159.614489 131.930259 
L 159.614489 131.074667 
" clip-path="url(#pda5d18fb3b)" style="fill: none; stroke: #1f77b4; stroke-width: 1.5"/>
    <path d="M 162.658125 134.141604 
L 162.658125 133.255587 
" clip-path="url(#pda5d18fb3b)" style="fill: none; stroke: #1f77b4; stroke-width: 1.5"/>
    <path d="M 165.701761 135.409878 
L 165.701761 134.499081 
" clip-path="url(#pda5d18fb3b)" style="fill: none; stroke: #1f77b4; stroke-width: 1.5"/>
    <path d="M 168.745398 136.705913 
L 168.745398 135.768719 
" clip-path="url(#pda5d18fb3b)" style="fill: none; stroke: #1f77b4; stroke-width: 1.5"/>
    <path d="M 171.789034 138.798094 
L 171.789034 137.826992 
" clip-path="url(#pda5d18fb3b)" style="fill: none; stroke: #1f77b4; stroke-width: 1.5"/>
    <path d="M 174.83267 139.734871 
L 174.83267 138.737668 
" clip-path="url(#pda5d18fb3b)" style="fill: none; stroke: #1f77b4; stroke-width: 1.5"/>
    <path d="M 177.876307 140.992334 
L 177.876307 139.965692 
" clip-path="url(#pda5d18fb3b)" style="fill: none; stroke: #1f77b4; stroke-width: 1.5"/>
    <path d="M 180.919943 142.906804 
L 180.919943 141.842589 
" clip-path="url(#pda5d18fb3b)" style="fill: none; stroke: #1f77b4; stroke-width: 1.5"/>
    <path d="M 183.96358 144.400504 
L 183.96358 143.301937 
" clip-path="url(#pda5d18fb3b)" style="fill: none; stroke: #1f77b4; stroke-width: 1.5"/>
    <path d="M 187.007216 145.130382 
L 187.007216 144.00268 
" clip-path="url(#pda5d18fb3b)" style="fill: none; stroke: #1f77b4; stroke-width: 1.5"/>
    <path d="M 190.050852 147.754711 
L 190.050852 146.578665 
" clip-path="url(#pda5d18fb3b)" style="fill: none; stroke: #1f77b4; stroke-width: 1.5"/>
    <path d="M 193.094489 148.531628 
L 193.094489 147.322845 
" clip-path="url(#pda5d18fb3b)" style="fill: none; stroke: #1f77b4; stroke-width: 1.5"/>
    <path d="M 196.138125 149.373555 
L 196.138125 148.130712 
" clip-path="url(#pda5d18fb3b)" style="fill: none; stroke: #1f77b4; stroke-width: 1.5"/>
    <path d="M 199.181761 150.177071 
L 199.181761 148.899423 
" clip-path="url(#pda5d18fb3b)" style="fill: none; stroke: #1f77b4; stroke-width: 1.5"/>
    <path d="M 202.225398 151.445019 
L 202.225398 150.125727 
" clip-path="url(#pda5d18fb3b)" style="fill: none; stroke: #1f77b4; stroke-width: 1.5"/>
    <path d="M 205.269034 154.980294 
L 205.269034 153.590359 
" clip-path="url(#pda5d18fb3b)" style="fill: none; stroke: #1f77b4; stroke-width: 1.5"/>
    <path d="M 208.31267 153.469977 
L 208.31267 152.068042 
" clip-path="url(#pda5d18fb3b)" style="fill: none; stroke: #1f77b4; stroke-width: 1.5"/>
    <path d="M 211.356307 155.864904 
L 211.356307 154.402743 
" clip-path="url(#pda5d18fb3b)" style="fill: none; stroke: #1f77b4; stroke-width: 1.5"/>
    <path d="M 214.399943 155.65164 
L 214.399943 154.158852 
" clip-path="url(#pda5d18fb3b)" style="fill: none; stroke: #1f77b4; stroke-width: 1.5"/>
    <path d="M 217.44358 159.060759 
L 217.44358 157.488569 
" clip-path="url(#pda5d18fb3b)" style="fill: none; stroke: #1f77b4; stroke-width: 1.5"/>
    <path d="M 220.487216 159.095665 
L 220.487216 157.486695 
" clip-path="url(#pda5d18fb3b)" style="fill: none; stroke: #1f77b4; stroke-width: 1.5"/>
    <path d="M 223.530852 159.50572 
L 223.530852 157.853585 
" clip-path="url(#pda5d18fb3b)" style="fill: none; stroke: #1f77b4; stroke-width: 1.5"/>
    <path d="M 226.574489 162.007967 
L 226.574489 160.280007 
" clip-path="url(#pda5d18fb3b)" style="fill: none; stroke: #1f77b4; stroke-width: 1.5"/>
    <path d="M 229.618125 161.206172 
L 229.618125 159.446721 
" clip-path="url(#pda5d18fb3b)" style="fill: none; stroke: #1f77b4; stroke-width: 1.5"/>
    <path d="M 232.661761 163.185932 
L 232.661761 161.352723 
" clip-path="url(#pda5d18fb3b)" style="fill: none; stroke: #1f77b4; stroke-width: 1.5"/>
    <path d="M 235.705398 164.151057 
L 235.705398 162.258306 
" clip-path="url(#pda5d18fb3b)" style="fill: none; stroke: #1f77b4; stroke-width: 1.5"/>
    <path d="M 238.749034 165.966154 
L 238.749034 163.993061 
" clip-path="url(#pda5d18fb3b)" style="fill: none; stroke: #1f77b4; stroke-width: 1.5"/>
    <path d="M 241.79267 166.424558 
L 241.79267 164.392346 
" clip-path="url(#pda5d18fb3b)" style="fill: none; stroke: #1f77b4; stroke-width: 1.5"/>
    <path d="M 244.836307 166.641919 
L 244.836307 164.550489 
" clip-path="url(#pda5d18fb3b)" style="fill: none; stroke: #1f77b4; stroke-width: 1.5"/>
    <path d="M 247.879943 167.693695 
L 247.879943 165.526047 
" clip-path="url(#pda5d18fb3b)" style="fill: none; stroke: #1f77b4; stroke-width: 1.5"/>
    <path d="M 250.92358 167.279191 
L 250.92358 165.059744 
" clip-path="url(#pda5d18fb3b)" style="fill: none; stroke: #1f77b4; stroke-width: 1.5"/>
    <path d="M 253.967216 170.775513 
L 253.967216 168.423768 
" clip-path="url(#pda5d18fb3b)" style="fill: none; stroke: #1f77b4; stroke-width: 1.5"/>
    <path d="M 257.010852 171.596227 
L 257.010852 169.158556 
" clip-path="url(#pda5d18fb3b)" style="fill: none; stroke: #1f77b4; stroke-width: 1.5"/>
    <path d="M 260.054489 171.066092 
L 260.054489 168.567467 
" clip-path="url(#pda5d18fb3b)" style="fill: none; stroke: #1f77b4; stroke-width: 1.5"/>
    <path d="M 263.098125 173.254074 
L 263.098125 170.631998 
" clip-path="url(#pda5d18fb3b)" style="fill: none; stroke: #1f77b4; stroke-width: 1.5"/>
    <path d="M 266.141761 171.973396 
L 266.141761 169.296414 
" clip-path="url(#pda5d18fb3b)" style="fill: none; stroke: #1f77b4; stroke-width: 1.5"/>
    <path d="M 269.185398 172.525992 
L 269.185398 169.748791 
" clip-path="url(#pda5d18fb3b)" style="fill: none; stroke: #1f77b4; stroke-width: 1.5"/>
    <path d="M 272.229034 175.829446 
L 272.229034 172.888752 
" clip-path="url(#pda5d18fb3b)" style="fill: none; stroke: #1f77b4; stroke-width: 1.5"/>
    <path d="M 275.27267 174.951596 
L 275.27267 171.930853 
" clip-path="url(#pda5d18fb3b)" style="fill: none; stroke: #1f77b4; stroke-width: 1.5"/>
    <path d="M 278.316307 176.869658 
L 278.316307 173.698111 
" clip-path="url(#pda5d18fb3b)" style="fill: none; stroke: #1f77b4; stroke-width: 1.5"/>
    <path d="M 281.359943 180.512769 
L 281.359943 177.131449 
" clip-path="url(#pda5d18fb3b)" style="fill: none; stroke: #1f77b4; stroke-width: 1.5"/>
    <path d="M 284.40358 177.173396 
L 284.40358 173.768451 
" clip-path="url(#pda5d18fb3b)" style="fill: none; stroke: #1f77b4; stroke-width: 1.5"/>
    <path d="M 287.447216 178.05581 
L 287.447216 174.501105 
" clip-path="url(#pda5d18fb3b)" style="fill: none; stroke: #1f77b4; stroke-width: 1.5"/>
    <path d="M 290.490852 181.820432 
L 290.490852 178.014502 
" clip-path="url(#pda5d18fb3b)" style="fill: none; stroke: #1f77b4; stroke-width: 1.5"/>
    <path d="M 293.534489 181.364908 
L 293.534489 177.433396 
" clip-path="url(#pda5d18fb3b)" style="fill: none; stroke: #1f77b4; stroke-width: 1.5"/>
    <path d="M 296.578125 181.543052 
L 296.578125 177.458173 
" clip-path="url(#pda5d18fb3b)" style="fill: none; stroke: #1f77b4; stroke-width: 1.5"/>
    <path d="M 299.621761 182.827258 
L 299.621761 178.53339 
" clip-path="url(#pda5d18fb3b)" style="fill: none; stroke: #1f77b4; stroke-width: 1.5"/>
    <path d="M 302.665398 184.08657 
L 302.665398 179.577598 
" clip-path="url(#pda5d18fb3b)" style="fill: none; stroke: #1f77b4; stroke-width: 1.5"/>
    <path d="M 305.709034 182.486715 
L 305.709034 177.855552 
" clip-path="url(#pda5d18fb3b)" style="fill: none; stroke: #1f77b4; stroke-width: 1.5"/>
    <path d="M 308.75267 182.10356 
L 308.75267 177.300769 
" clip-path="url(#pda5d18fb3b)" style="fill: none; stroke: #1f77b4; stroke-width: 1.5"/>
    <path d="M 311.796307 188.380436 
L 311.796307 183.096064 
" clip-path="url(#pda5d18fb3b)" style="fill: none; stroke: #1f77b4; stroke-width: 1.5"/>
    <path d="M 314.839943 184.777281 
L 314.839943 179.423317 
" clip-path="url(#pda5d18fb3b)" style="fill: none; stroke: #1f77b4; stroke-width: 1.5"/>
    <path d="M 317.88358 185.380935 
L 317.88358 179.769272 
" clip-path="url(#pda5d18fb3b)" style="fill: none; stroke: #1f77b4; stroke-width: 1.5"/>
    <path d="M 320.927216 189.041147 
L 320.927216 182.993768 
" clip-path="url(#pda5d18fb3b)" style="fill: none; stroke: #1f77b4; stroke-width: 1.5"/>
    <path d="M 323.970852 193.61848 
L 323.970852 187.04558 
" clip-path="url(#pda5d18fb3b)" style="fill: none; stroke: #1f77b4; stroke-width: 1.5"/>
    <path d="M 327.014489 196.759385 
L 327.014489 189.703682 
" clip-path="url(#pda5d18fb3b)" style="fill: none; stroke: #1f77b4; stroke-width: 1.5"/>
    <path d="M 330.058125 197.947704 
L 330.058125 190.484349 
" clip-path="url(#pda5d18fb3b)" style="fill: none; stroke: #1f77b4; stroke-width: 1.5"/>
    <path d="M 333.101761 199.206118 
L 333.101761 191.308271 
" clip-path="url(#pda5d18fb3b)" style="fill: none; stroke: #1f77b4; stroke-width: 1.5"/>
    <path d="M 336.145398 193.478647 
L 336.145398 185.563217 
" clip-path="url(#pda5d18fb3b)" style="fill: none; stroke: #1f77b4; stroke-width: 1.5"/>
    <path d="M 339.189034 193.167937 
L 339.189034 184.874168 
" clip-path="url(#pda5d18fb3b)" style="fill: none; stroke: #1f77b4; stroke-width: 1.5"/>
    <path d="M 342.23267 188.010538 
L 342.23267 179.613395 
" clip-path="url(#pda5d18fb3b)" style="fill: none; stroke: #1f77b4; stroke-width: 1.5"/>
    <path d="M 345.276307 196.364575 
L 345.276307 186.942738 
" clip-path="url(#pda5d18fb3b)" style="fill: none; stroke: #1f77b4; stroke-width: 1.5"/>
    <path d="M 348.319943 190.798133 
L 348.319943 181.25498 
" clip-path="url(#pda5d18fb3b)" style="fill: none; stroke: #1f77b4; stroke-width: 1.5"/>
    <path d="M 351.36358 193.796368 
L 351.36358 183.451272 
" clip-path="url(#pda5d18fb3b)" style="fill: none; stroke: #1f77b4; stroke-width: 1.5"/>
    <path d="M 354.407216 192.467308 
L 354.407216 181.614521 
" clip-path="url(#pda5d18fb3b)" style="fill: none; stroke: #1f77b4; stroke-width: 1.5"/>
    <path d="M 357.450852 196.065625 
L 357.450852 184.229761 
" clip-path="url(#pda5d18fb3b)" style="fill: none; stroke: #1f77b4; stroke-width: 1.5"/>
    <path d="M 360.494489 218.88 
L 360.494489 203.741715 
" clip-path="url(#pda5d18fb3b)" style="fill: none; stroke: #1f77b4; stroke-width: 1.5"/>
    <path d="M 363.538125 212.558309 
L 363.538125 197.16699 
" clip-path="url(#pda5d18fb3b)" style="fill: none; stroke: #1f77b4; stroke-width: 1.5"/>
   </g>
   <g id="patch_3">
    <path d="M 45.478125 228.96 
L 45.478125 7.2 
" style="fill: none; stroke: #000000; stroke-width: 0.8; stroke-linejoin: miter; stroke-linecap: square"/>
   </g>
   <g id="patch_4">
    <path d="M 380.278125 228.96 
L 380.278125 7.2 
" style="fill: none; stroke: #000000; stroke-width: 0.8; stroke-linejoin: miter; stroke-linecap: square"/>
   </g>
   <g id="patch_5">
    <path d="M 45.478125 228.96 
L 380.278125 228.96 
" style="fill: none; stroke: #000000; stroke-width: 0.8; stroke-linejoin: miter; stroke-linecap: square"/>
   </g>
   <g id="patch_6">
    <path d="M 45.478125 7.2 
L 380.278125 7.2 
" style="fill: none; stroke: #000000; stroke-width: 0.8; stroke-linejoin: miter; stroke-linecap: square"/>
   </g>
  </g>
 </g>
 <defs>
  <clipPath id="pda5d18fb3b">
   <rect x="45.478125" y="7.2" width="334.8" height="221.76"/>
  </clipPath>
 </defs>
</svg>
