<?xml version="1.0" encoding="UTF-8" standalone="no"?>
<!-- Created with Inkscape (http://www.inkscape.org/) -->

<svg
   width="322.70325mm"
   height="42.054707mm"
   viewBox="0 0 322.70326 42.054707"
   version="1.1"
   id="svg8"
   xmlns="http://www.w3.org/2000/svg"
   xmlns:svg="http://www.w3.org/2000/svg"
   xmlns:rdf="http://www.w3.org/1999/02/22-rdf-syntax-ns#"
   xmlns:cc="http://creativecommons.org/ns#"
   xmlns:dc="http://purl.org/dc/elements/1.1/">
  <defs
     id="defs2" />
  <metadata
     id="metadata5">
    <rdf:RDF>
      <cc:Work
         rdf:about="">
        <dc:format>image/svg+xml</dc:format>
        <dc:type
           rdf:resource="http://purl.org/dc/dcmitype/StillImage" />
      </cc:Work>
    </rdf:RDF>
  </metadata>
  <path
     id="path8254"
     style="fill:#ffffff;fill-opacity:1;fill-rule:evenodd;stroke:none;stroke-width:0.0700042px;stroke-linecap:butt;stroke-linejoin:miter;stroke-opacity:1"
     d="M 17.926502,0.12281789 11.915295,3.5936259 a 0.91643846,0.91643846 0 0 1 -0.916517,-2e-5 l -1.68115,-0.97077 a 0.9162711,0.9162711 0 0 0 -0.916475,5e-5 l -2.745665,1.5859 a 0.91674198,0.91674198 0 0 0 -0.458222,0.79384 v 1.93971 a 0.9167438,0.9167438 0 0 1 -0.458222,0.79384 L 0.458222,10.208786 A 0.9167438,0.9167438 0 0 0 0,11.002626 v 18.0569 2.11523 a 0.91692071,0.91692071 0 0 0 0.458177,0.79392 l 0.915677,0.5291 a 2286.8691,2286.8691 0 0 0 0.916477,0.52928 l 1.979885,1.1428 a 0.3055521,0.3055521 0 0 0 0.4583,-0.26463 v -1.4026 A 0.91721489,0.91721489 0 0 0 4.270412,31.708586 L 2.588964,30.736376 A 0.91721489,0.91721489 0 0 1 2.13086,29.942336 v -17.70729 a 0.91688301,0.91688301 0 0 1 0.458187,-0.7939 L 5.803532,9.5838859 a 0.91613021,0.91613021 0 0 1 0.91644,-1.1e-4 l 1.68115,0.9707701 a 0.91651552,0.91651552 0 0 0 0.916536,5e-5 l 2.747497,-1.5861101 a 0.91649747,0.91649747 0 0 0 0.458283,-0.79373 v -1.93971 a 0.91690648,0.91690648 0 0 1 0.458181,-0.79391 l 4.944966,-2.85724 a 0.916451,0.916451 0 0 1 0.91652,-2.7e-4 l 1.682931,0.97107 a 0.91673323,0.91673323 0 0 0 0.916591,-1.5e-4 l 1.214356,-0.70124 a 0.30550399,0.30550399 0 0 0 -4.8e-5,-0.52915 L 18.843066,0.12275589 a 0.91662478,0.91662478 0 0 0 -0.916564,6.2e-5 z M 9.31745,5.0840859 l 0.617053,0.35687 a 0.91733263,0.91733263 0 0 1 0.458075,0.79409 v 0.70729 a 0.91733263,0.91733263 0 0 1 -0.458075,0.79409 l -0.617053,0.35687 a 0.91496847,0.91496847 0 0 1 -0.91615,0 l -0.617053,-0.35687 a 0.91733263,0.91733263 0 0 1 -0.458075,-0.79409 v -0.70729 a 0.91733263,0.91733263 0 0 1 0.458075,-0.79409 L 8.4013,5.0840859 a 0.91496847,0.91496847 0 0 1 0.91615,0 z M 26.5886,5.1227859 9.118432,15.208866 a 0.91652881,0.91652881 0 0 0 -0.458275,0.79374 v 5.93972 a 0.91721471,0.91721471 0 0 1 -0.458104,0.79404 l -1.681449,0.9722 A 0.91721471,0.91721471 0 0 0 6.0625,24.502606 v 3.17214 a 0.91721471,0.91721471 0 0 0 0.458104,0.79404 l 1.681449,0.9722 a 0.91721471,0.91721471 0 0 1 0.458104,0.79405 v 5.93971 a 0.91692071,0.91692071 0 0 0 0.458177,0.79391 l 0.915677,0.5291 a 2863.0058,2863.0058 0 0 0 0.916452,0.52933 l 6.976028,4.02748 a 0.91689642,0.91689642 0 0 0 0.916631,1.4e-4 l 0.149694,-0.0864 a 0.91620508,0.91620508 0 0 0 0.458356,-0.7936 v -18.93971 a 0.91676162,0.91676162 0 0 1 0.458217,-0.79385 l 5.612863,-3.24212 a 0.30544185,0.30544185 0 0 1 0.458217,0.26448 v 18.94167 a 0.30548758,0.30548758 0 0 0 0.458252,0.26455 l 1.214355,-0.70123 a 0.91662439,0.91662439 0 0 0 0.458252,-0.79379 v -20.17018 a 0.91765905,0.91765905 0 0 0 -0.457993,-0.79423 l -0.15042,-0.0871 a 0.91537068,0.91537068 0 0 0 -0.91625,-4.6e-4 l -8.808095,5.08602 a 0.91660309,0.91660309 0 0 0 -0.458257,0.79377 v 17.7112 a 0.30544185,0.30544185 0 0 1 -0.458217,0.26449 l -5.612863,-3.24213 a 0.91676162,0.91676162 0 0 1 -0.458217,-0.79384 v -4.70729 a 0.91721489,0.91721489 0 0 1 0.458104,-0.79404 l 1.681448,-0.97221 a 0.91721489,0.91721489 0 0 0 0.458104,-0.79404 v -3.17213 a 0.91721489,0.91721489 0 0 0 -0.458104,-0.79404 l -1.681448,-0.97221 a 0.91721489,0.91721489 0 0 1 -0.458104,-0.79404 v -4.70729 a 0.9166131,0.9166131 0 0 1 0.458254,-0.79378 L 28.719481,6.3533059 a 0.30556457,0.30556457 0 0 0 2e-6,-0.52923 l -1.214356,-0.70124 a 0.9164777,0.9164777 0 0 0 -0.916527,-4e-5 z m 6.062419,3.49986 -1.2161,0.70159 a 0.30552722,0.30552722 0 0 0 -1.79e-4,0.52919 l 2.747708,1.5876901 a 0.91692071,0.91692071 0 0 1 0.458177,0.79392 v 5.70729 a 0.91721489,0.91721489 0 0 1 -0.458104,0.79404 l -1.681448,0.9722 a 0.91721489,0.91721489 0 0 0 -0.458104,0.79405 v 3.17213 a 0.91721489,0.91721489 0 0 0 0.458104,0.79404 l 1.681448,0.97221 a 0.91721489,0.91721489 0 0 1 0.458104,0.79404 v 3.70729 a 0.91721489,0.91721489 0 0 1 -0.458104,0.79404 l -1.681448,0.97221 a 0.91721489,0.91721489 0 0 0 -0.458104,0.79404 v 1.4026 a 0.30548884,0.30548884 0 0 0 0.458253,0.26455 l 3.81201,-2.20123 a 0.91662061,0.91662061 0 0 0 0.458253,-0.79379 v -4.93971 a 0.91721489,0.91721489 0 0 1 0.458104,-0.79404 l 1.681448,-0.97221 a 0.91721489,0.91721489 0 0 0 0.458104,-0.79404 v -3.17213 a 0.91721489,0.91721489 0 0 0 -0.458104,-0.79404 l -1.681448,-0.97221 a 0.91721489,0.91721489 0 0 1 -0.458104,-0.79404 v -6.93971 a 0.91674185,0.91674185 0 0 0 -0.458222,-0.79384 L 33.567597,8.6228759 a 0.91668426,0.91668426 0 0 0 -0.916578,-2.3e-4 z m 3.512134,11.9614201 0.617053,0.35687 a 0.91733263,0.91733263 0 0 1 0.458075,0.7941 v 0.70729 a 0.91733263,0.91733263 0 0 1 -0.458075,0.79409 l -0.617053,0.35687 a 0.91438545,0.91438545 0 0 1 -0.916003,-2.6e-4 l -0.615394,-0.35636 a 0.91791847,0.91791847 0 0 1 -0.457928,-0.79434 v -0.70729 a 0.91791847,0.91791847 0 0 1 0.457928,-0.79435 l 0.615394,-0.35636 a 0.91438545,0.91438545 0 0 1 0.916003,-2.5e-4 z m -25.980468,4 0.617053,0.35687 a 0.91733263,0.91733263 0 0 1 0.458075,0.7941 v 0.70729 a 0.91733263,0.91733263 0 0 1 -0.458075,0.79409 l -0.617053,0.35687 a 0.91496847,0.91496847 0 0 1 -0.91615,0 l -0.617053,-0.35687 a 0.91733263,0.91733263 0 0 1 -0.458075,-0.79409 v -0.70729 a 0.91733263,0.91733263 0 0 1 0.458075,-0.7941 l 0.617053,-0.35687 a 0.91496847,0.91496847 0 0 1 0.91615,0 z" />
  <g
     id="text8262"
     style="font-size:35.2778px;line-height:16.5364px;font-family:Lato;-inkscape-font-specification:Lato;letter-spacing:0px;word-spacing:0px;fill:#ffffff;stroke-width:0.264583px"
     aria-label="essspectroscopy"
     transform="translate(0,0.12275589)">
    <path
       style="font-weight:bold;-inkscape-font-specification:'Lato Bold'"
       d="m 66.374835,11.861102 q 3.986392,0 6.314727,2.293057 2.328335,2.257779 2.328335,6.455837 v 2.540002 H 62.60011 q 0.07056,2.222502 1.305279,3.492502 1.270001,1.270001 3.492502,1.270001 1.869724,0 3.386669,-0.352778 1.516946,-0.388056 3.139725,-1.164167 v 4.056947 q -1.411112,0.705556 -2.998613,1.023056 -1.552224,0.352778 -3.774725,0.352778 -2.89278,0 -5.115281,-1.058334 -2.222502,-1.093612 -3.492503,-3.280835 -1.270001,-2.187224 -1.270001,-5.503337 0,-3.386669 1.12889,-5.609171 1.164167,-2.257779 3.21028,-3.386669 2.046112,-1.128889 4.762503,-1.128889 z m 0.03528,3.739447 q -1.516945,0 -2.540002,0.987778 -0.987778,0.987778 -1.164167,3.069169 h 7.37306 q -0.03528,-1.76389 -0.917223,-2.89278 -0.881945,-1.164167 -2.751668,-1.164167 z m 26.317226,10.160006 q 0,2.928058 -2.08139,4.515559 -2.046113,1.552223 -6.138338,1.552223 -2.010834,0 -3.457224,-0.282222 -1.44639,-0.246945 -2.89278,-0.846667 v -4.33917 q 1.552223,0.705556 3.351391,1.164167 1.799168,0.458612 3.175002,0.458612 1.552224,0 2.187224,-0.458612 0.670278,-0.458611 0.670278,-1.199445 0,-0.493889 -0.282222,-0.881945 -0.246945,-0.388056 -1.12889,-0.881945 -0.881945,-0.493889 -2.751668,-1.270001 -1.799168,-0.776111 -2.963336,-1.516945 -1.164167,-0.776112 -1.728612,-1.834446 -0.564445,-1.093612 -0.564445,-2.716391 0,-2.681112 2.081391,-4.021669 2.08139,-1.340556 5.538614,-1.340556 1.799168,0 3.421947,0.352778 1.622779,0.352778 3.351391,1.164167 l -1.587501,3.774725 Q 89.517061,16.553049 88.24706,16.164993 86.977059,15.74166 85.671781,15.74166 q -2.328335,0 -2.328335,1.270001 0,0.458611 0.282222,0.846667 0.317501,0.352778 1.164168,0.776111 0.881945,0.423334 2.575279,1.12889 1.658057,0.670278 2.857502,1.411112 1.199445,0.705556 1.834446,1.799168 0.670278,1.058334 0.670278,2.786946 z m 17.533059,0 q 0,2.928058 -2.08139,4.515559 -2.04612,1.552223 -6.13834,1.552223 -2.01084,0 -3.457223,-0.282222 -1.44639,-0.246945 -2.89278,-0.846667 v -4.33917 q 1.552223,0.705556 3.351391,1.164167 1.799162,0.458612 3.175002,0.458612 1.55222,0 2.18722,-0.458612 0.67028,-0.458611 0.67028,-1.199445 0,-0.493889 -0.28222,-0.881945 -0.24695,-0.388056 -1.12889,-0.881945 -0.88195,-0.493889 -2.75167,-1.270001 -1.799166,-0.776111 -2.963333,-1.516945 -1.164168,-0.776112 -1.728613,-1.834446 -0.564445,-1.093612 -0.564445,-2.716391 0,-2.681112 2.081391,-4.021669 2.08139,-1.340556 5.53861,-1.340556 1.79917,0 3.42195,0.352778 1.62278,0.352778 3.35139,1.164167 l -1.5875,3.774725 q -1.41111,-0.599723 -2.68111,-0.987779 -1.27,-0.423333 -2.57528,-0.423333 -2.32834,0 -2.32834,1.270001 0,0.458611 0.28222,0.846667 0.3175,0.352778 1.16417,0.776111 0.88195,0.423334 2.57528,1.12889 1.65806,0.670278 2.8575,1.411112 1.19945,0.705556 1.83445,1.799168 0.67028,1.058334 0.67028,2.786946 z"
       id="path1" />
    <path
       style="font-weight:300;-inkscape-font-specification:'Lato Light'"
       d="m 126.52345,26.501389 q 0,2.540002 -1.905,3.951114 -1.905,1.375834 -5.36222,1.375834 -1.97556,0 -3.4925,-0.352778 -1.51695,-0.3175 -2.54001,-0.846667 v -1.940279 q 1.23473,0.635 2.82223,1.058334 1.5875,0.388056 3.24556,0.388056 2.75166,0 3.98639,-0.917223 1.27,-0.952501 1.27,-2.57528 0,-1.552223 -1.30528,-2.363612 -1.30528,-0.846668 -3.84528,-1.728613 -1.76389,-0.599722 -3.10445,-1.199445 -1.30528,-0.635 -2.04611,-1.587501 -0.74083,-0.952501 -0.74083,-2.610557 0,-2.257779 1.83444,-3.52778 1.83445,-1.270001 4.90362,-1.270001 1.69333,0 3.13972,0.3175 1.48167,0.3175 2.71639,0.846667 l -0.74083,1.658057 q -1.09361,-0.458611 -2.46945,-0.776112 -1.37583,-0.352778 -2.75167,-0.352778 -2.2225,0 -3.45722,0.776112 -1.23473,0.776112 -1.23473,2.257779 0,1.12889 0.59973,1.799168 0.59972,0.635001 1.72861,1.093612 1.12889,0.458611 2.75167,1.023056 1.69333,0.599723 3.03389,1.234723 1.34056,0.635001 2.15195,1.622779 0.81138,0.987779 0.81138,2.645835 z m 13.15862,-14.146398 q 3.59834,0 5.60917,2.434168 2.01084,2.434168 2.01084,7.196672 0,4.762503 -2.11667,7.302505 -2.08139,2.540001 -5.715,2.540001 -2.46945,0 -3.98639,-1.058334 -1.51695,-1.058334 -2.22251,-2.540002 h -0.14111 q 0.0706,0.881946 0.10584,1.94028 0.0353,1.023056 0.0353,1.905001 v 7.725838 h -2.01083 V 12.707769 h 1.65806 l 0.24694,3.492502 h 0.10583 q 0.70556,-1.516945 2.25778,-2.681113 1.55223,-1.164167 4.16278,-1.164167 z m -0.28222,1.728612 q -3.13972,0 -4.62139,1.975557 -1.48167,1.975557 -1.51695,5.679726 v 0.352778 q 0,4.021669 1.44639,6.032504 1.48167,1.975557 4.55084,1.975557 2.89278,0 4.40973,-2.151946 1.55222,-2.187224 1.55222,-5.997226 0,-3.774725 -1.48167,-5.820837 -1.44639,-2.046113 -4.33917,-2.046113 z m 20.10838,-1.728612 q 2.39889,0 3.98639,1.128889 1.62278,1.093612 2.43417,3.033891 0.84666,1.940279 0.84666,4.445003 v 1.375835 h -13.40556 q 0,3.739447 1.72861,5.750281 1.76389,1.975557 5.00945,1.975557 1.72861,0 3.03389,-0.282222 1.30528,-0.3175 2.8575,-0.987779 v 1.834446 q -1.41111,0.635 -2.78694,0.917223 -1.37584,0.282222 -3.17501,0.282222 -4.23333,0 -6.49111,-2.575279 -2.25778,-2.57528 -2.25778,-7.020283 0,-2.857502 0.9525,-5.080003 0.98778,-2.222502 2.82222,-3.492503 1.83445,-1.305278 4.44501,-1.305278 z m -0.0353,1.693334 q -2.57528,0 -4.19806,1.728613 -1.5875,1.728612 -1.83445,4.903614 h 11.25362 q 0,-2.963335 -1.30528,-4.797781 -1.27,-1.834446 -3.91583,-1.834446 z m 19.89668,17.780012 q -4.1275,0 -6.38528,-2.540001 -2.2225,-2.540002 -2.2225,-7.090839 0,-3.175002 1.12889,-5.362225 1.12889,-2.187224 3.13972,-3.316114 2.04612,-1.164167 4.76251,-1.164167 1.34055,0 2.54,0.246944 1.19944,0.246945 2.11667,0.670279 l -0.56445,1.728612 q -0.9525,-0.388056 -2.04611,-0.599723 -1.09361,-0.246944 -2.08139,-0.246944 -3.35139,0 -5.15056,2.151946 -1.76389,2.151945 -1.76389,5.856115 0,3.52778 1.5875,5.715003 1.5875,2.151946 4.93889,2.151946 1.37584,0 2.61056,-0.282222 1.23472,-0.282222 2.2225,-0.705556 v 1.799168 q -0.91722,0.458611 -2.11667,0.705556 -1.16416,0.282222 -2.71639,0.282222 z m 14.56972,-1.728612 q 0.77611,0 1.48167,-0.105833 0.70556,-0.105834 1.23472,-0.317501 v 1.622779 q -0.52916,0.211667 -1.30528,0.352778 -0.77611,0.176389 -1.65805,0.176389 -2.36361,0 -3.63362,-1.305278 -1.27,-1.305279 -1.27,-4.268614 V 14.330548 h -2.78694 v -1.12889 l 2.78694,-0.670278 0.70556,-4.303892 h 1.30528 v 4.480281 h 5.75028 v 1.622779 h -5.75028 v 11.818063 q 0,3.951114 3.13972,3.951114 z m 14.42863,-17.709456 q 1.37584,0 2.54,0.282222 l -0.3175,1.869724 q -1.12889,-0.317501 -2.32833,-0.317501 -2.57528,0 -4.09223,1.905002 -1.51694,1.905001 -1.51694,5.044725 v 10.301118 h -2.01084 v -18.76779 h 1.69334 l 0.21166,3.492502 h 0.10584 q 0.70555,-1.587501 2.15194,-2.681113 1.44639,-1.128889 3.56306,-1.128889 z m 21.16663,9.666117 q 0,2.963336 -0.98778,5.150559 -0.9525,2.187224 -2.8575,3.421947 -1.86972,1.199445 -4.58611,1.199445 -2.61056,0 -4.48028,-1.199445 -1.86973,-1.199445 -2.89278,-3.386669 -0.98778,-2.222501 -0.98778,-5.185837 0,-4.550836 2.25778,-7.126116 2.25778,-2.575279 6.24417,-2.575279 2.68111,0 4.51556,1.234723 1.86972,1.199445 2.82222,3.386669 0.9525,2.187224 0.9525,5.080003 z m -14.71084,0 q 0,3.633614 1.51694,5.856115 1.55223,2.187224 4.79779,2.187224 3.28083,0 4.79778,-2.222502 1.51694,-2.222501 1.51694,-5.820837 0,-2.328335 -0.635,-4.127503 -0.635,-1.799167 -2.01083,-2.822224 -1.37584,-1.023056 -3.59834,-1.023056 -3.175,0 -4.79778,2.116668 -1.5875,2.116668 -1.5875,5.856115 z m 31.64419,4.445003 q 0,2.540002 -1.905,3.951114 -1.905,1.375834 -5.36223,1.375834 -1.97556,0 -3.4925,-0.352778 -1.51695,-0.3175 -2.54,-0.846667 v -1.940279 q 1.23472,0.635 2.82222,1.058334 1.5875,0.388056 3.24556,0.388056 2.75167,0 3.98639,-0.917223 1.27,-0.952501 1.27,-2.57528 0,-1.552223 -1.30528,-2.363612 -1.30528,-0.846668 -3.84528,-1.728613 -1.76389,-0.599722 -3.10444,-1.199445 -1.30528,-0.635 -2.04612,-1.587501 -0.74083,-0.952501 -0.74083,-2.610557 0,-2.257779 1.83445,-3.52778 1.83444,-1.270001 4.90361,-1.270001 1.69333,0 3.13972,0.3175 1.48167,0.3175 2.71639,0.846667 l -0.74083,1.658057 q -1.09361,-0.458611 -2.46945,-0.776112 -1.37583,-0.352778 -2.75166,-0.352778 -2.22251,0 -3.45723,0.776112 -1.23472,0.776112 -1.23472,2.257779 0,1.12889 0.59972,1.799168 0.59972,0.635001 1.72861,1.093612 1.12889,0.458611 2.75167,1.023056 1.69334,0.599723 3.03389,1.234723 1.34056,0.635001 2.15195,1.622779 0.81139,0.987779 0.81139,2.645835 z m 12.24139,5.326948 q -4.1275,0 -6.38528,-2.540001 -2.2225,-2.540002 -2.2225,-7.090839 0,-3.175002 1.12889,-5.362225 1.12889,-2.187224 3.13973,-3.316114 2.04611,-1.164167 4.7625,-1.164167 1.34055,0 2.54,0.246944 1.19945,0.246945 2.11667,0.670279 l -0.56445,1.728612 q -0.9525,-0.388056 -2.04611,-0.599723 -1.09361,-0.246944 -2.08139,-0.246944 -3.35139,0 -5.15056,2.151946 -1.76389,2.151945 -1.76389,5.856115 0,3.52778 1.5875,5.715003 1.5875,2.151946 4.93889,2.151946 1.37584,0 2.61056,-0.282222 1.23473,-0.282222 2.2225,-0.705556 v 1.799168 q -0.91722,0.458611 -2.11666,0.705556 -1.16417,0.282222 -2.7164,0.282222 z m 24.97669,-9.771951 q 0,2.963336 -0.98778,5.150559 -0.9525,2.187224 -2.8575,3.421947 -1.86972,1.199445 -4.58611,1.199445 -2.61056,0 -4.48028,-1.199445 -1.86973,-1.199445 -2.89278,-3.386669 -0.98778,-2.222501 -0.98778,-5.185837 0,-4.550836 2.25778,-7.126116 2.25778,-2.575279 6.24417,-2.575279 2.68111,0 4.51556,1.234723 1.86972,1.199445 2.82222,3.386669 0.9525,2.187224 0.9525,5.080003 z m -14.71084,0 q 0,3.633614 1.51694,5.856115 1.55223,2.187224 4.79778,2.187224 3.28084,0 4.79779,-2.222502 1.51694,-2.222501 1.51694,-5.820837 0,-2.328335 -0.635,-4.127503 -0.635,-1.799167 -2.01083,-2.822224 -1.37584,-1.023056 -3.59834,-1.023056 -3.175,0 -4.79778,2.116668 -1.5875,2.116668 -1.5875,5.856115 z m 28.25752,-9.701395 q 3.59833,0 5.60917,2.434168 2.01083,2.434168 2.01083,7.196672 0,4.762503 -2.11667,7.302505 -2.08139,2.540001 -5.715,2.540001 -2.46945,0 -3.98639,-1.058334 -1.51695,-1.058334 -2.2225,-2.540002 h -0.14111 q 0.0706,0.881946 0.10583,1.94028 0.0353,1.023056 0.0353,1.905001 v 7.725838 h -2.01084 V 12.707769 h 1.65806 l 0.24694,3.492502 h 0.10584 q 0.70555,-1.516945 2.25778,-2.681113 1.55222,-1.164167 4.16278,-1.164167 z m -0.28222,1.728612 q -3.13973,0 -4.6214,1.975557 -1.48166,1.975557 -1.51694,5.679726 v 0.352778 q 0,4.021669 1.44639,6.032504 1.48167,1.975557 4.55083,1.975557 2.89278,0 4.40973,-2.151946 1.55222,-2.187224 1.55222,-5.997226 0,-3.774725 -1.48167,-5.820837 -1.44639,-2.046113 -4.33916,-2.046113 z m 9.20751,-1.375834 h 2.11667 l 4.48028,11.641674 q 0.56445,1.587501 0.98778,2.822224 0.42333,1.199446 0.67028,2.151946 h 0.10583 q 0.52917,-1.76389 1.65806,-4.903614 l 4.37444,-11.71223 h 2.15195 l -8.46667,22.083904 q -0.9525,2.504723 -2.25778,3.84528 -1.30528,1.340556 -3.52778,1.340556 -0.67028,0 -1.23472,-0.07055 -0.52917,-0.07056 -0.98778,-0.246945 V 37.96668 q 0.42333,0.141111 0.91722,0.211667 0.49389,0.105833 1.05833,0.105833 1.48167,0 2.39889,-0.917223 0.95251,-0.917223 1.69334,-2.822224 l 1.19944,-3.139724 z"
       id="path2" />
  </g>
</svg>
