<?xml version="1.0" encoding="UTF-8" standalone="no"?>
<!DOCTYPE svg PUBLIC "-//W3C//DTD SVG 1.1//EN"
 "http://www.w3.org/Graphics/SVG/1.1/DTD/svg11.dtd">
<!-- Generated by graphviz version 14.1.2 (20260126.1125)
 -->
<!-- Pages: 1 -->
<svg width="2141pt" height="904pt"
 viewBox="0.00 0.00 2141.00 904.00" xmlns="http://www.w3.org/2000/svg" xmlns:xlink="http://www.w3.org/1999/xlink">
<g id="graph0" class="graph" transform="scale(1 1) rotate(0) translate(4 899.62)">
<polygon fill="white" stroke="none" points="-4,4 -4,-899.62 2137.25,-899.62 2137.25,4 -4,4"/>
<g id="clust3" class="cluster">
<title>cluster_BeamSize</title>
<polygon fill="#f0f0ff" stroke="#f0f0ff" points="708.25,-158.62 708.25,-247.62 834,-247.62 834,-158.62 708.25,-158.62"/>
<text xml:space="preserve" text-anchor="middle" x="771.12" y="-230.32" font-family="Times,serif" font-size="14.00">BeamSize</text>
</g>
<g id="clust4" class="cluster">
<title>cluster_ChopperDistance</title>
<polygon fill="#f0f0ff" stroke="#f0f0ff" points="672.88,-53.62 672.88,-150.62 870.38,-150.62 870.38,-53.62 672.88,-53.62"/>
<text xml:space="preserve" text-anchor="start" x="710.12" y="-134.32" font-family="Times,serif" font-size="14.00">ChopperDistance</text>
<text xml:space="preserve" text-anchor="start" x="680.88" y="-123.17" font-family="Times,serif" font-size="11.00">via:</text>
<text xml:space="preserve" text-anchor="start" x="701.12" y="-123.17" font-family="Times,serif" font-style="italic" font-size="11.00">load_amor_chopper_distance</text>
</g>
<g id="clust5" class="cluster">
<title>cluster_ChopperFrequency</title>
<polygon fill="#f0f0ff" stroke="#f0f0ff" points="695.38,-588.62 695.38,-677.62 847.88,-677.62 847.88,-588.62 695.38,-588.62"/>
<text xml:space="preserve" text-anchor="middle" x="771.62" y="-660.33" font-family="Times,serif" font-size="14.00">ChopperFrequency</text>
</g>
<g id="clust6" class="cluster">
<title>cluster_ChopperPhase</title>
<polygon fill="#f0f0ff" stroke="#f0f0ff" points="708.25,-491.62 708.25,-580.62 834,-580.62 834,-491.62 708.25,-491.62"/>
<text xml:space="preserve" text-anchor="middle" x="771.12" y="-563.33" font-family="Times,serif" font-size="14.00">ChopperPhase</text>
</g>
<g id="clust7" class="cluster">
<title>cluster_ChopperSeparation</title>
<polygon fill="#f0f0ff" stroke="#f0f0ff" points="666.5,-386.62 666.5,-483.62 876.75,-483.62 876.75,-386.62 666.5,-386.62"/>
<text xml:space="preserve" text-anchor="start" x="702.25" y="-467.32" font-family="Times,serif" font-size="14.00">ChopperSeparation</text>
<text xml:space="preserve" text-anchor="start" x="674.5" y="-456.18" font-family="Times,serif" font-size="11.00">via:</text>
<text xml:space="preserve" text-anchor="start" x="694.75" y="-456.18" font-family="Times,serif" font-style="italic" font-size="11.00">load_amor_chopper_separation</text>
</g>
<g id="clust8" class="cluster">
<title>cluster_CoordTransformationGraph</title>
<polygon fill="#f0f0ff" stroke="#f0f0ff" points="948.75,-386.62 948.75,-483.62 1171.75,-483.62 1171.75,-386.62 948.75,-386.62"/>
<text xml:space="preserve" text-anchor="start" x="961.62" y="-467.32" font-family="Times,serif" font-size="14.00">CoordTransformationGraph</text>
<text xml:space="preserve" text-anchor="start" x="956.75" y="-456.18" font-family="Times,serif" font-size="11.00">via:</text>
<text xml:space="preserve" text-anchor="start" x="977" y="-456.18" font-family="Times,serif" font-style="italic" font-size="11.00">coordinate_transformation_graph</text>
</g>
<g id="clust10" class="cluster">
<title>cluster_DetectorRotation</title>
<polygon fill="#f0f0ff" stroke="#f0f0ff" points="672.88,-685.62 672.88,-782.62 870.38,-782.62 870.38,-685.62 672.88,-685.62"/>
<text xml:space="preserve" text-anchor="start" x="710.12" y="-766.33" font-family="Times,serif" font-size="14.00">DetectorRotation</text>
<text xml:space="preserve" text-anchor="start" x="680.88" y="-755.18" font-family="Times,serif" font-size="11.00">via:</text>
<text xml:space="preserve" text-anchor="start" x="701.12" y="-755.18" font-family="Times,serif" font-style="italic" font-size="11.00">load_amor_detector_rotation</text>
</g>
<g id="clust12" class="cluster">
<title>cluster_Filename</title>
<polygon fill="#f0f0ff" stroke="#f0f0ff" points="35.5,-441.62 35.5,-530.62 161.25,-530.62 161.25,-441.62 35.5,-441.62"/>
<text xml:space="preserve" text-anchor="middle" x="98.38" y="-513.33" font-family="Times,serif" font-size="14.00">Filename</text>
</g>
<g id="clust19" class="cluster">
<title>cluster_RawChopper</title>
<polygon fill="#f0f0ff" stroke="#f0f0ff" points="368.75,-386.62 368.75,-483.62 494.5,-483.62 494.5,-386.62 368.75,-386.62"/>
<text xml:space="preserve" text-anchor="start" x="385.88" y="-467.32" font-family="Times,serif" font-size="14.00">RawChopper</text>
<text xml:space="preserve" text-anchor="start" x="381.75" y="-456.18" font-family="Times,serif" font-size="11.00">via:</text>
<text xml:space="preserve" text-anchor="start" x="402" y="-456.18" font-family="Times,serif" font-style="italic" font-size="11.00">amor_chopper</text>
</g>
<g id="clust21" class="cluster">
<title>cluster_RawSampleRotation</title>
<polygon fill="#f0f0ff" stroke="#f0f0ff" points="336.75,-664.62 336.75,-761.62 527.5,-761.62 527.5,-664.62 336.75,-664.62"/>
<text xml:space="preserve" text-anchor="start" x="359.75" y="-745.33" font-family="Times,serif" font-size="14.00">RawSampleRotation</text>
<text xml:space="preserve" text-anchor="start" x="344.75" y="-734.18" font-family="Times,serif" font-size="11.00">via:</text>
<text xml:space="preserve" text-anchor="start" x="365" y="-734.18" font-family="Times,serif" font-style="italic" font-size="11.00">load_amor_sample_rotation</text>
</g>
<g id="clust27" class="cluster">
<title>cluster_SampleRotationOffset</title>
<polygon fill="#f0f0ff" stroke="#f0f0ff" points="345.75,-790.62 345.75,-879.62 518.5,-879.62 518.5,-790.62 345.75,-790.62"/>
<text xml:space="preserve" text-anchor="middle" x="432.12" y="-862.33" font-family="Times,serif" font-size="14.00">SampleRotationOffset</text>
</g>
<g id="clust28" class="cluster">
<title>cluster_SampleRotation</title>
<polygon fill="#f0f0ff" stroke="#f0f0ff" points="685.25,-790.62 685.25,-887.62 858,-887.62 858,-790.62 685.25,-790.62"/>
<text xml:space="preserve" text-anchor="start" x="714.62" y="-871.33" font-family="Times,serif" font-size="14.00">SampleRotation</text>
<text xml:space="preserve" text-anchor="start" x="693.25" y="-860.18" font-family="Times,serif" font-size="11.00">via:</text>
<text xml:space="preserve" text-anchor="start" x="713.5" y="-860.18" font-family="Times,serif" font-style="italic" font-size="11.00">correct_sample_rotation</text>
</g>
<g id="clust29" class="cluster">
<title>cluster_SampleSize</title>
<polygon fill="#f0f0ff" stroke="#f0f0ff" points="708.25,-255.62 708.25,-344.62 834,-344.62 834,-255.62 708.25,-255.62"/>
<text xml:space="preserve" text-anchor="middle" x="771.12" y="-327.32" font-family="Times,serif" font-size="14.00">SampleSize</text>
</g>
<!-- Alpha -->
<g id="node1" class="node">
<title>Alpha</title>
<polygon fill="none" stroke="black" points="1407.12,-337.25 1350.62,-337.25 1350.62,-312 1407.12,-312 1407.12,-337.25"/>
<text xml:space="preserve" text-anchor="start" x="1358.62" y="-319.95" font-family="Times,serif" font-size="14.00">Alpha</text>
</g>
<!-- Sample -->
<g id="node42" class="node">
<title>Sample</title>
<polygon fill="none" stroke="black" points="1899,-365.12 1586,-365.12 1586,-332.12 1899,-332.12 1899,-365.12"/>
<text xml:space="preserve" text-anchor="start" x="1715.88" y="-348.82" font-family="Times,serif" font-size="14.00">Sample</text>
<text xml:space="preserve" text-anchor="start" x="1594" y="-337.68" font-family="Times,serif" font-size="11.00">via:</text>
<text xml:space="preserve" text-anchor="start" x="1614.25" y="-337.68" font-family="Times,serif" font-style="italic" font-size="11.00">mask_events_where_supermirror_does_not_cover</text>
</g>
<!-- Alpha&#45;&gt;Sample -->
<g id="edge54" class="edge">
<title>Alpha:e&#45;&gt;Sample:w</title>
<path fill="none" stroke="black" d="M1408.12,-324.62C1484,-324.62 1504.29,-346.34 1574.74,-348.46"/>
<polygon fill="black" stroke="black" points="1574.44,-351.95 1584.49,-348.6 1574.54,-344.96 1574.44,-351.95"/>
</g>
<!-- BeamDivergenceLimits -->
<g id="node2" class="node">
<title>BeamDivergenceLimits</title>
<polygon fill="none" stroke="black" points="1151,-517.25 968.5,-517.25 968.5,-492 1151,-492 1151,-517.25"/>
<text xml:space="preserve" text-anchor="start" x="976.5" y="-499.95" font-family="Times,serif" font-size="14.00">BeamDivergenceLimits</text>
</g>
<!-- QBins -->
<g id="node32" class="node">
<title>QBins</title>
<polygon fill="none" stroke="black" points="1411.62,-550.12 1346.12,-550.12 1346.12,-517.12 1411.62,-517.12 1411.62,-550.12"/>
<text xml:space="preserve" text-anchor="start" x="1357.5" y="-533.83" font-family="Times,serif" font-size="14.00">QBins</text>
<text xml:space="preserve" text-anchor="start" x="1354.12" y="-522.68" font-family="Times,serif" font-size="11.00">via:</text>
<text xml:space="preserve" text-anchor="start" x="1374.38" y="-522.68" font-family="Times,serif" font-style="italic" font-size="11.00">qgrid</text>
</g>
<!-- BeamDivergenceLimits&#45;&gt;QBins -->
<g id="edge30" class="edge">
<title>BeamDivergenceLimits:e&#45;&gt;QBins:w</title>
<path fill="none" stroke="black" d="M1152,-504.62C1234.9,-504.62 1256.44,-531.08 1333.82,-533.45"/>
<polygon fill="black" stroke="black" points="1333.56,-536.95 1343.61,-533.6 1333.67,-529.95 1333.56,-536.95"/>
</g>
<!-- ReducibleData[SampleRun] -->
<g id="node38" class="node">
<title>ReducibleData[SampleRun]</title>
<polygon fill="none" stroke="black" points="1514,-374.12 1243.75,-374.12 1243.75,-341.12 1514,-341.12 1514,-374.12"/>
<text xml:space="preserve" text-anchor="start" x="1280.62" y="-357.82" font-family="Times,serif" font-size="14.00">ReducibleData[SampleRun]</text>
<text xml:space="preserve" text-anchor="start" x="1251.75" y="-346.68" font-family="Times,serif" font-size="11.00">via:</text>
<text xml:space="preserve" text-anchor="start" x="1272" y="-346.68" font-family="Times,serif" font-style="italic" font-size="11.00">add_coords_masks_and_apply_corrections</text>
</g>
<!-- BeamDivergenceLimits&#45;&gt;ReducibleData[SampleRun] -->
<g id="edge39" class="edge">
<title>BeamDivergenceLimits:e&#45;&gt;ReducibleData[SampleRun]:w</title>
<path fill="none" stroke="black" d="M1152,-504.62C1224.8,-504.62 1173.13,-373.26 1232.32,-358.9"/>
<polygon fill="black" stroke="black" points="1232.69,-362.38 1242.25,-357.79 1231.92,-355.42 1232.69,-362.38"/>
</g>
<!-- BeamSize[ReferenceRun] -->
<g id="node3" class="node">
<title>BeamSize[ReferenceRun]</title>
<polygon fill="none" stroke="black" points="826,-214.75 716.25,-214.75 716.25,-192.5 826,-192.5 826,-214.75"/>
<text xml:space="preserve" text-anchor="start" x="724.25" y="-199.35" font-family="Times,serif" font-size="12.00">[ReferenceRun]</text>
</g>
<!-- CoordTransformationGraph[ReferenceRun] -->
<g id="node16" class="node">
<title>CoordTransformationGraph[ReferenceRun]</title>
<polygon fill="none" stroke="black" points="1114.62,-442.75 1004.88,-442.75 1004.88,-420.5 1114.62,-420.5 1114.62,-442.75"/>
<text xml:space="preserve" text-anchor="start" x="1012.88" y="-427.35" font-family="Times,serif" font-size="12.00">[ReferenceRun]</text>
</g>
<!-- BeamSize[ReferenceRun]&#45;&gt;CoordTransformationGraph[ReferenceRun] -->
<g id="edge13" class="edge">
<title>BeamSize[ReferenceRun]:e&#45;&gt;CoordTransformationGraph[ReferenceRun]:w</title>
<path fill="none" stroke="black" d="M827,-203.62C858.67,-203.62 858.99,-228.41 876.75,-254.62 920.95,-319.85 888.95,-365.32 948.75,-416.62 964.86,-430.45 974.81,-431.64 992.48,-431.66"/>
<polygon fill="black" stroke="black" points="992.37,-435.16 1002.36,-431.63 992.35,-428.16 992.37,-435.16"/>
</g>
<!-- BeamSize[SampleRun] -->
<g id="node4" class="node">
<title>BeamSize[SampleRun]</title>
<polygon fill="none" stroke="black" points="818.12,-188.75 724.12,-188.75 724.12,-166.5 818.12,-166.5 818.12,-188.75"/>
<text xml:space="preserve" text-anchor="start" x="732.12" y="-173.35" font-family="Times,serif" font-size="12.00">[SampleRun]</text>
</g>
<!-- CoordTransformationGraph[SampleRun] -->
<g id="node21" class="node">
<title>CoordTransformationGraph[SampleRun]</title>
<polygon fill="none" stroke="black" points="1106.75,-416.75 1012.75,-416.75 1012.75,-394.5 1106.75,-394.5 1106.75,-416.75"/>
<text xml:space="preserve" text-anchor="start" x="1020.75" y="-401.35" font-family="Times,serif" font-size="12.00">[SampleRun]</text>
</g>
<!-- BeamSize[SampleRun]&#45;&gt;CoordTransformationGraph[SampleRun] -->
<g id="edge21" class="edge">
<title>BeamSize[SampleRun]:e&#45;&gt;CoordTransformationGraph[SampleRun]:w</title>
<path fill="none" stroke="black" d="M819.12,-177.62C845.59,-177.62 856.9,-175.13 876.75,-192.62 957.79,-264.06 903.9,-395.67 1000.26,-405.09"/>
<polygon fill="black" stroke="black" points="1000.09,-408.59 1010.24,-405.55 1000.41,-401.59 1000.09,-408.59"/>
</g>
<!-- RawChopper[ReferenceRun] -->
<g id="node5" class="node">
<title>RawChopper[ReferenceRun]</title>
<polygon fill="none" stroke="black" points="486.5,-442.75 376.75,-442.75 376.75,-420.5 486.5,-420.5 486.5,-442.75"/>
<text xml:space="preserve" text-anchor="start" x="384.75" y="-427.35" font-family="Times,serif" font-size="12.00">[ReferenceRun]</text>
</g>
<!-- ChopperDistance[ReferenceRun] -->
<g id="node6" class="node">
<title>ChopperDistance[ReferenceRun]</title>
<polygon fill="none" stroke="black" points="826,-109.75 716.25,-109.75 716.25,-87.5 826,-87.5 826,-109.75"/>
<text xml:space="preserve" text-anchor="start" x="724.25" y="-94.35" font-family="Times,serif" font-size="12.00">[ReferenceRun]</text>
</g>
<!-- RawChopper[ReferenceRun]&#45;&gt;ChopperDistance[ReferenceRun] -->
<g id="edge1" class="edge">
<title>RawChopper[ReferenceRun]:e&#45;&gt;ChopperDistance[ReferenceRun]:w</title>
<path fill="none" stroke="black" d="M487.5,-431.62C535.52,-431.62 558.38,-448.27 594.5,-416.62 705.21,-319.63 571.49,-110.06 703.9,-99.07"/>
<polygon fill="black" stroke="black" points="703.88,-102.58 713.74,-98.68 703.61,-95.58 703.88,-102.58"/>
</g>
<!-- ChopperSeparation[ReferenceRun] -->
<g id="node13" class="node">
<title>ChopperSeparation[ReferenceRun]</title>
<polygon fill="none" stroke="black" points="826,-442.75 716.25,-442.75 716.25,-420.5 826,-420.5 826,-442.75"/>
<text xml:space="preserve" text-anchor="start" x="724.25" y="-427.35" font-family="Times,serif" font-size="12.00">[ReferenceRun]</text>
</g>
<!-- RawChopper[ReferenceRun]&#45;&gt;ChopperSeparation[ReferenceRun] -->
<g id="edge3" class="edge">
<title>RawChopper[ReferenceRun]:e&#45;&gt;ChopperSeparation[ReferenceRun]:w</title>
<path fill="none" stroke="black" d="M487.5,-431.62C584.87,-431.62 611.99,-431.62 704.01,-431.62"/>
<polygon fill="black" stroke="black" points="703.74,-435.13 713.74,-431.63 703.74,-428.13 703.74,-435.13"/>
</g>
<!-- ChopperDistance[ReferenceRun]&#45;&gt;CoordTransformationGraph[ReferenceRun] -->
<g id="edge10" class="edge">
<title>ChopperDistance[ReferenceRun]:e&#45;&gt;CoordTransformationGraph[ReferenceRun]:w</title>
<path fill="none" stroke="black" d="M827,-98.62C861.3,-98.62 860.73,-127.29 876.75,-157.62 932.54,-263.28 864.04,-332.37 948.75,-416.62 963.8,-431.59 974.47,-432.02 992.39,-431.75"/>
<polygon fill="black" stroke="black" points="992.4,-435.26 1002.36,-431.64 992.32,-428.26 992.4,-435.26"/>
</g>
<!-- RawChopper[SampleRun] -->
<g id="node7" class="node">
<title>RawChopper[SampleRun]</title>
<polygon fill="none" stroke="black" points="478.62,-416.75 384.62,-416.75 384.62,-394.5 478.62,-394.5 478.62,-416.75"/>
<text xml:space="preserve" text-anchor="start" x="392.62" y="-401.35" font-family="Times,serif" font-size="12.00">[SampleRun]</text>
</g>
<!-- ChopperDistance[SampleRun] -->
<g id="node8" class="node">
<title>ChopperDistance[SampleRun]</title>
<polygon fill="none" stroke="black" points="818.12,-83.75 724.12,-83.75 724.12,-61.5 818.12,-61.5 818.12,-83.75"/>
<text xml:space="preserve" text-anchor="start" x="732.12" y="-68.35" font-family="Times,serif" font-size="12.00">[SampleRun]</text>
</g>
<!-- RawChopper[SampleRun]&#45;&gt;ChopperDistance[SampleRun] -->
<g id="edge2" class="edge">
<title>RawChopper[SampleRun]:e&#45;&gt;ChopperDistance[SampleRun]:w</title>
<path fill="none" stroke="black" d="M479.62,-405.62C547.61,-405.62 556.96,-361.3 594.5,-304.62 650.61,-219.91 592.48,-157.24 666.5,-87.62 682.43,-72.65 693.18,-72.25 711.64,-72.5"/>
<polygon fill="black" stroke="black" points="711.58,-76 721.61,-72.61 711.65,-69 711.58,-76"/>
</g>
<!-- ChopperSeparation[SampleRun] -->
<g id="node14" class="node">
<title>ChopperSeparation[SampleRun]</title>
<polygon fill="none" stroke="black" points="818.12,-416.75 724.12,-416.75 724.12,-394.5 818.12,-394.5 818.12,-416.75"/>
<text xml:space="preserve" text-anchor="start" x="732.12" y="-401.35" font-family="Times,serif" font-size="12.00">[SampleRun]</text>
</g>
<!-- RawChopper[SampleRun]&#45;&gt;ChopperSeparation[SampleRun] -->
<g id="edge4" class="edge">
<title>RawChopper[SampleRun]:e&#45;&gt;ChopperSeparation[SampleRun]:w</title>
<path fill="none" stroke="black" d="M479.62,-405.62C583.94,-405.62 612.84,-405.62 711.7,-405.62"/>
<polygon fill="black" stroke="black" points="711.61,-409.13 721.61,-405.63 711.61,-402.13 711.61,-409.13"/>
</g>
<!-- ChopperDistance[SampleRun]&#45;&gt;CoordTransformationGraph[SampleRun] -->
<g id="edge18" class="edge">
<title>ChopperDistance[SampleRun]:e&#45;&gt;CoordTransformationGraph[SampleRun]:w</title>
<path fill="none" stroke="black" d="M819.12,-72.62C845.59,-72.62 858.1,-68.84 876.75,-87.62 968.8,-180.34 867.84,-270.05 948.75,-372.62 965.8,-394.24 976.97,-403.24 1000.45,-405.2"/>
<polygon fill="black" stroke="black" points="1000.11,-408.69 1010.24,-405.57 1000.38,-401.69 1000.11,-408.69"/>
</g>
<!-- ChopperFrequency[ReferenceRun] -->
<g id="node9" class="node">
<title>ChopperFrequency[ReferenceRun]</title>
<polygon fill="none" stroke="black" points="826,-644.75 716.25,-644.75 716.25,-622.5 826,-622.5 826,-644.75"/>
<text xml:space="preserve" text-anchor="start" x="724.25" y="-629.35" font-family="Times,serif" font-size="12.00">[ReferenceRun]</text>
</g>
<!-- ChopperFrequency[ReferenceRun]&#45;&gt;CoordTransformationGraph[ReferenceRun] -->
<g id="edge9" class="edge">
<title>ChopperFrequency[ReferenceRun]:e&#45;&gt;CoordTransformationGraph[ReferenceRun]:w</title>
<path fill="none" stroke="black" d="M827,-633.62C850.09,-633.62 858.75,-633.1 876.75,-618.62 951.93,-558.17 907.31,-441.46 992.52,-432.21"/>
<polygon fill="black" stroke="black" points="992.56,-435.71 1002.36,-431.7 992.2,-428.72 992.56,-435.71"/>
</g>
<!-- ChopperFrequency[SampleRun] -->
<g id="node10" class="node">
<title>ChopperFrequency[SampleRun]</title>
<polygon fill="none" stroke="black" points="818.12,-618.75 724.12,-618.75 724.12,-596.5 818.12,-596.5 818.12,-618.75"/>
<text xml:space="preserve" text-anchor="start" x="732.12" y="-603.35" font-family="Times,serif" font-size="12.00">[SampleRun]</text>
</g>
<!-- ChopperFrequency[SampleRun]&#45;&gt;CoordTransformationGraph[SampleRun] -->
<g id="edge17" class="edge">
<title>ChopperFrequency[SampleRun]:e&#45;&gt;CoordTransformationGraph[SampleRun]:w</title>
<path fill="none" stroke="black" d="M819.12,-607.62C847.22,-607.62 856.92,-601.53 876.75,-581.62 932.08,-526.11 888.4,-470.64 948.75,-420.62 967.8,-404.84 979.38,-405.11 1000.53,-405.5"/>
<polygon fill="black" stroke="black" points="1000.2,-408.99 1010.24,-405.61 1000.28,-401.99 1000.2,-408.99"/>
</g>
<!-- ChopperPhase[ReferenceRun] -->
<g id="node11" class="node">
<title>ChopperPhase[ReferenceRun]</title>
<polygon fill="none" stroke="black" points="826,-547.75 716.25,-547.75 716.25,-525.5 826,-525.5 826,-547.75"/>
<text xml:space="preserve" text-anchor="start" x="724.25" y="-532.35" font-family="Times,serif" font-size="12.00">[ReferenceRun]</text>
</g>
<!-- ChopperPhase[ReferenceRun]&#45;&gt;CoordTransformationGraph[ReferenceRun] -->
<g id="edge8" class="edge">
<title>ChopperPhase[ReferenceRun]:e&#45;&gt;CoordTransformationGraph[ReferenceRun]:w</title>
<path fill="none" stroke="black" d="M827,-536.62C914.49,-536.62 912.79,-440.45 992.61,-432.19"/>
<polygon fill="black" stroke="black" points="992.55,-435.7 1002.36,-431.7 992.2,-428.71 992.55,-435.7"/>
</g>
<!-- ChopperPhase[SampleRun] -->
<g id="node12" class="node">
<title>ChopperPhase[SampleRun]</title>
<polygon fill="none" stroke="black" points="818.12,-521.75 724.12,-521.75 724.12,-499.5 818.12,-499.5 818.12,-521.75"/>
<text xml:space="preserve" text-anchor="start" x="732.12" y="-506.35" font-family="Times,serif" font-size="12.00">[SampleRun]</text>
</g>
<!-- ChopperPhase[SampleRun]&#45;&gt;CoordTransformationGraph[SampleRun] -->
<g id="edge16" class="edge">
<title>ChopperPhase[SampleRun]:e&#45;&gt;CoordTransformationGraph[SampleRun]:w</title>
<path fill="none" stroke="black" d="M819.12,-510.62C889.26,-510.62 886.55,-453.02 948.75,-420.62 970.59,-409.25 980.1,-406.36 1000.42,-405.76"/>
<polygon fill="black" stroke="black" points="1000.28,-409.26 1010.24,-405.64 1000.2,-402.26 1000.28,-409.26"/>
</g>
<!-- ChopperSeparation[ReferenceRun]&#45;&gt;CoordTransformationGraph[ReferenceRun] -->
<g id="edge11" class="edge">
<title>ChopperSeparation[ReferenceRun]:e&#45;&gt;CoordTransformationGraph[ReferenceRun]:w</title>
<path fill="none" stroke="black" d="M827,-431.62C901.77,-431.62 923.2,-431.62 992.77,-431.62"/>
<polygon fill="black" stroke="black" points="992.36,-435.13 1002.36,-431.63 992.36,-428.13 992.36,-435.13"/>
</g>
<!-- ChopperSeparation[SampleRun]&#45;&gt;CoordTransformationGraph[SampleRun] -->
<g id="edge19" class="edge">
<title>ChopperSeparation[SampleRun]:e&#45;&gt;CoordTransformationGraph[SampleRun]:w</title>
<path fill="none" stroke="black" d="M819.12,-405.62C900.89,-405.62 924.09,-405.62 1000.59,-405.62"/>
<polygon fill="black" stroke="black" points="1000.24,-409.13 1010.24,-405.63 1000.24,-402.13 1000.24,-409.13"/>
</g>
<!-- GravityToggle -->
<g id="node15" class="node">
<title>GravityToggle</title>
<polygon fill="none" stroke="black" points="829.38,-378.25 712.88,-378.25 712.88,-353 829.38,-353 829.38,-378.25"/>
<text xml:space="preserve" text-anchor="start" x="720.88" y="-360.95" font-family="Times,serif" font-size="14.00">GravityToggle</text>
</g>
<!-- GravityToggle&#45;&gt;CoordTransformationGraph[ReferenceRun] -->
<g id="edge5" class="edge">
<title>GravityToggle:e&#45;&gt;CoordTransformationGraph[ReferenceRun]:w</title>
<path fill="none" stroke="black" stroke-width="2" d="M830.38,-365.62C883.75,-365.62 906.15,-393.25 937.66,-412.76"/>
<polygon fill="black" stroke="black" stroke-width="2" points="935.69,-415.66 946.12,-417.53 939.12,-409.57 935.69,-415.66"/>
</g>
<!-- Reference -->
<g id="node41" class="node">
<title>Reference</title>
<polygon fill="none" stroke="black" points="1866.75,-416.12 1618.25,-416.12 1618.25,-383.12 1866.75,-383.12 1866.75,-416.12"/>
<text xml:space="preserve" text-anchor="start" x="1706.5" y="-399.82" font-family="Times,serif" font-size="14.00">Reference</text>
<text xml:space="preserve" text-anchor="start" x="1626.25" y="-388.68" font-family="Times,serif" font-size="11.00">via:</text>
<text xml:space="preserve" text-anchor="start" x="1646.5" y="-388.68" font-family="Times,serif" font-style="italic" font-size="11.00">evaluate_reference_at_sample_coords</text>
</g>
<!-- CoordTransformationGraph[ReferenceRun]&#45;&gt;Reference -->
<g id="edge46" class="edge">
<title>CoordTransformationGraph[ReferenceRun]:e&#45;&gt;Reference:w</title>
<path fill="none" stroke="black" d="M1115.62,-431.62C1292.68,-431.62 1339.06,-459.9 1514,-432.62 1557.7,-425.81 1567.58,-403.7 1606.17,-400.12"/>
<polygon fill="black" stroke="black" points="1605.9,-403.63 1615.74,-399.69 1605.59,-396.64 1605.9,-403.63"/>
</g>
<!-- DetectorRotation[ReferenceRun] -->
<g id="node17" class="node">
<title>DetectorRotation[ReferenceRun]</title>
<polygon fill="none" stroke="black" points="826,-741.75 716.25,-741.75 716.25,-719.5 826,-719.5 826,-741.75"/>
<text xml:space="preserve" text-anchor="start" x="724.25" y="-726.35" font-family="Times,serif" font-size="12.00">[ReferenceRun]</text>
</g>
<!-- DetectorRotation[ReferenceRun]&#45;&gt;CoordTransformationGraph[ReferenceRun] -->
<g id="edge6" class="edge">
<title>DetectorRotation[ReferenceRun]:e&#45;&gt;CoordTransformationGraph[ReferenceRun]:w</title>
<path fill="none" stroke="black" d="M827,-730.62C947,-730.62 887.65,-592.91 948.75,-489.62 964.74,-462.6 967.74,-438.09 992.7,-432.71"/>
<polygon fill="black" stroke="black" points="992.76,-436.23 1002.37,-431.77 992.08,-429.26 992.76,-436.23"/>
</g>
<!-- SampleRotation[ReferenceRun] -->
<g id="node18" class="node">
<title>SampleRotation[ReferenceRun]</title>
<polygon fill="none" stroke="black" points="826,-846.75 716.25,-846.75 716.25,-824.5 826,-824.5 826,-846.75"/>
<text xml:space="preserve" text-anchor="start" x="724.25" y="-831.35" font-family="Times,serif" font-size="12.00">[ReferenceRun]</text>
</g>
<!-- SampleRotation[ReferenceRun]&#45;&gt;CoordTransformationGraph[ReferenceRun] -->
<g id="edge7" class="edge">
<title>SampleRotation[ReferenceRun]:e&#45;&gt;CoordTransformationGraph[ReferenceRun]:w</title>
<path fill="none" stroke="black" d="M827,-835.62C1019.09,-835.62 816.31,-447.64 992.59,-432.1"/>
<polygon fill="black" stroke="black" points="992.52,-435.61 1002.36,-431.69 992.22,-428.62 992.52,-435.61"/>
</g>
<!-- SampleSize[ReferenceRun] -->
<g id="node19" class="node">
<title>SampleSize[ReferenceRun]</title>
<polygon fill="none" stroke="black" points="826,-311.75 716.25,-311.75 716.25,-289.5 826,-289.5 826,-311.75"/>
<text xml:space="preserve" text-anchor="start" x="724.25" y="-296.35" font-family="Times,serif" font-size="12.00">[ReferenceRun]</text>
</g>
<!-- SampleSize[ReferenceRun]&#45;&gt;CoordTransformationGraph[ReferenceRun] -->
<g id="edge12" class="edge">
<title>SampleSize[ReferenceRun]:e&#45;&gt;CoordTransformationGraph[ReferenceRun]:w</title>
<path fill="none" stroke="black" d="M827,-300.62C901.74,-300.62 883.65,-379.91 948.75,-416.62 967.24,-427.05 975.59,-430.53 992.67,-431.39"/>
<polygon fill="black" stroke="black" points="992.29,-434.88 1002.36,-431.59 992.44,-427.88 992.29,-434.88"/>
</g>
<!-- DetectorRotation[SampleRun] -->
<g id="node20" class="node">
<title>DetectorRotation[SampleRun]</title>
<polygon fill="none" stroke="black" points="818.12,-715.75 724.12,-715.75 724.12,-693.5 818.12,-693.5 818.12,-715.75"/>
<text xml:space="preserve" text-anchor="start" x="732.12" y="-700.35" font-family="Times,serif" font-size="12.00">[SampleRun]</text>
</g>
<!-- DetectorRotation[SampleRun]&#45;&gt;CoordTransformationGraph[SampleRun] -->
<g id="edge14" class="edge">
<title>DetectorRotation[SampleRun]:e&#45;&gt;CoordTransformationGraph[SampleRun]:w</title>
<path fill="none" stroke="black" d="M819.12,-704.62C957.87,-704.62 848.77,-516.83 948.75,-420.62 966.57,-403.47 979.03,-404.72 1000.45,-405.41"/>
<polygon fill="black" stroke="black" points="1000.17,-408.91 1010.24,-405.6 1000.3,-401.91 1000.17,-408.91"/>
</g>
<!-- DetectorRotation[SampleRun]&#45;&gt;QBins -->
<g id="edge27" class="edge">
<title>DetectorRotation[SampleRun]:e&#45;&gt;QBins:w</title>
<path fill="none" stroke="black" d="M819.12,-704.62C1061.11,-704.62 1098.18,-538.93 1333.76,-533.75"/>
<polygon fill="black" stroke="black" points="1333.65,-537.25 1343.61,-533.64 1333.57,-530.25 1333.65,-537.25"/>
</g>
<!-- CoordTransformationGraph[SampleRun]&#45;&gt;ReducibleData[SampleRun] -->
<g id="edge42" class="edge">
<title>CoordTransformationGraph[SampleRun]:e&#45;&gt;ReducibleData[SampleRun]:w</title>
<path fill="none" stroke="black" d="M1107.75,-405.62C1167.84,-405.62 1178.46,-363.44 1232.36,-358.16"/>
<polygon fill="black" stroke="black" points="1232.41,-361.67 1242.24,-357.7 1232.08,-354.67 1232.41,-361.67"/>
</g>
<!-- SampleRotation[SampleRun] -->
<g id="node22" class="node">
<title>SampleRotation[SampleRun]</title>
<polygon fill="none" stroke="black" points="818.12,-820.75 724.12,-820.75 724.12,-798.5 818.12,-798.5 818.12,-820.75"/>
<text xml:space="preserve" text-anchor="start" x="732.12" y="-805.35" font-family="Times,serif" font-size="12.00">[SampleRun]</text>
</g>
<!-- SampleRotation[SampleRun]&#45;&gt;CoordTransformationGraph[SampleRun] -->
<g id="edge15" class="edge">
<title>SampleRotation[SampleRun]:e&#45;&gt;CoordTransformationGraph[SampleRun]:w</title>
<path fill="none" stroke="black" d="M819.12,-809.62C1014.18,-809.62 864.66,-507.97 948.75,-420.62 965.91,-402.81 978.85,-404.54 1000.41,-405.37"/>
<polygon fill="black" stroke="black" points="1000.16,-408.87 1010.24,-405.59 1000.32,-401.87 1000.16,-408.87"/>
</g>
<!-- SampleRotation[SampleRun]&#45;&gt;QBins -->
<g id="edge28" class="edge">
<title>SampleRotation[SampleRun]:e&#45;&gt;QBins:w</title>
<path fill="none" stroke="black" d="M819.12,-809.62C834.84,-809.62 907.7,-772.92 1171.75,-630.62 1245.99,-590.62 1256.03,-538.55 1333.7,-533.95"/>
<polygon fill="black" stroke="black" points="1333.72,-537.45 1343.61,-533.67 1333.52,-530.46 1333.72,-537.45"/>
</g>
<!-- SampleSize[SampleRun] -->
<g id="node23" class="node">
<title>SampleSize[SampleRun]</title>
<polygon fill="none" stroke="black" points="818.12,-285.75 724.12,-285.75 724.12,-263.5 818.12,-263.5 818.12,-285.75"/>
<text xml:space="preserve" text-anchor="start" x="732.12" y="-270.35" font-family="Times,serif" font-size="12.00">[SampleRun]</text>
</g>
<!-- SampleSize[SampleRun]&#45;&gt;CoordTransformationGraph[SampleRun] -->
<g id="edge20" class="edge">
<title>SampleSize[SampleRun]:e&#45;&gt;CoordTransformationGraph[SampleRun]:w</title>
<path fill="none" stroke="black" d="M819.12,-274.62C845.59,-274.62 854.26,-275.67 876.75,-289.62 940.55,-329.22 933.59,-398.16 1000.38,-405.06"/>
<polygon fill="black" stroke="black" points="1000.08,-408.55 1010.24,-405.55 1000.42,-401.56 1000.08,-408.55"/>
</g>
<!-- CriticalEdge -->
<g id="node24" class="node">
<title>CriticalEdge</title>
<polygon fill="none" stroke="black" points="1431.5,-308.25 1326.25,-308.25 1326.25,-283 1431.5,-283 1431.5,-308.25"/>
<text xml:space="preserve" text-anchor="start" x="1334.25" y="-290.95" font-family="Times,serif" font-size="14.00">CriticalEdge</text>
</g>
<!-- CriticalEdge&#45;&gt;Sample -->
<g id="edge52" class="edge">
<title>CriticalEdge:e&#45;&gt;Sample:w</title>
<path fill="none" stroke="black" d="M1432.5,-295.62C1469.5,-295.62 1479.05,-300.47 1514,-312.62 1543.83,-323 1549.22,-343.11 1574.69,-347.69"/>
<polygon fill="black" stroke="black" points="1574.24,-351.16 1584.49,-348.5 1574.82,-344.18 1574.24,-351.16"/>
</g>
<!-- Filename[ReferenceRun] -->
<g id="node25" class="node">
<title>Filename[ReferenceRun]</title>
<polygon fill="none" stroke="black" points="153.25,-497.75 43.5,-497.75 43.5,-475.5 153.25,-475.5 153.25,-497.75"/>
<text xml:space="preserve" text-anchor="start" x="51.5" y="-482.35" font-family="Times,serif" font-size="12.00">[ReferenceRun]</text>
</g>
<!-- Filename[ReferenceRun]&#45;&gt;RawChopper[ReferenceRun] -->
<g id="edge31" class="edge">
<title>Filename[ReferenceRun]:e&#45;&gt;RawChopper[ReferenceRun]:w</title>
<path fill="none" stroke="black" d="M154.25,-486.62C251.82,-486.62 272.78,-435.73 364.51,-431.86"/>
<polygon fill="black" stroke="black" points="364.31,-435.36 374.24,-431.66 364.17,-428.36 364.31,-435.36"/>
</g>
<!-- Filename[ReferenceRun]&#45;&gt;DetectorRotation[ReferenceRun] -->
<g id="edge22" class="edge">
<title>Filename[ReferenceRun]:e&#45;&gt;DetectorRotation[ReferenceRun]:w</title>
<path fill="none" stroke="black" d="M154.25,-486.62C206.97,-486.62 548.33,-638.17 594.5,-663.62 644.78,-691.35 652.95,-725.84 704.05,-730.17"/>
<polygon fill="black" stroke="black" points="703.6,-733.66 713.74,-730.56 703.89,-726.66 703.6,-733.66"/>
</g>
<!-- RawSampleRotation[ReferenceRun] -->
<g id="node35" class="node">
<title>RawSampleRotation[ReferenceRun]</title>
<polygon fill="none" stroke="black" points="486.5,-720.75 376.75,-720.75 376.75,-698.5 486.5,-698.5 486.5,-720.75"/>
<text xml:space="preserve" text-anchor="start" x="384.75" y="-705.35" font-family="Times,serif" font-size="12.00">[ReferenceRun]</text>
</g>
<!-- Filename[ReferenceRun]&#45;&gt;RawSampleRotation[ReferenceRun] -->
<g id="edge34" class="edge">
<title>Filename[ReferenceRun]:e&#45;&gt;RawSampleRotation[ReferenceRun]:w</title>
<path fill="none" stroke="black" d="M154.25,-486.62C259.78,-486.62 181.86,-634.74 268.75,-694.62 305.05,-719.64 324.4,-711.37 364.48,-709.84"/>
<polygon fill="black" stroke="black" points="364.31,-713.35 374.24,-709.65 364.17,-706.35 364.31,-713.35"/>
</g>
<!-- Filename[SampleRun] -->
<g id="node26" class="node">
<title>Filename[SampleRun]</title>
<polygon fill="none" stroke="red" stroke-dasharray="5,2" points="145.38,-471.75 51.37,-471.75 51.37,-449.5 145.38,-449.5 145.38,-471.75"/>
<text xml:space="preserve" text-anchor="start" x="59.38" y="-456.35" font-family="Times,serif" font-size="12.00" fill="red">[SampleRun]</text>
</g>
<!-- Filename[SampleRun]&#45;&gt;RawChopper[SampleRun] -->
<g id="edge32" class="edge">
<title>Filename[SampleRun]:e&#45;&gt;RawChopper[SampleRun]:w</title>
<path fill="none" stroke="black" d="M146.38,-460.62C203.6,-460.62 212.94,-433.27 268.75,-420.62 315.04,-410.13 329.85,-406.24 372.22,-405.69"/>
<polygon fill="black" stroke="black" points="372.13,-409.19 382.11,-405.63 372.09,-402.19 372.13,-409.19"/>
</g>
<!-- Filename[SampleRun]&#45;&gt;DetectorRotation[SampleRun] -->
<g id="edge23" class="edge">
<title>Filename[SampleRun]:e&#45;&gt;DetectorRotation[SampleRun]:w</title>
<path fill="none" stroke="black" d="M146.38,-460.62C201.8,-460.62 214,-475.99 268.75,-484.62 340.77,-495.98 535.48,-480.82 594.5,-523.62 655.99,-568.22 612.67,-625.03 666.5,-678.62 683.14,-695.19 692.36,-702.35 711.65,-704.15"/>
<polygon fill="black" stroke="black" points="711.48,-707.65 721.61,-704.56 711.77,-700.65 711.48,-707.65"/>
</g>
<!-- NeXusComponent[NXdetector, SampleRun] -->
<g id="node29" class="node">
<title>NeXusComponent[NXdetector, SampleRun]</title>
<polygon fill="none" stroke="black" points="594.5,-112.12 268.75,-112.12 268.75,-79.12 594.5,-79.12 594.5,-112.12"/>
<text xml:space="preserve" text-anchor="start" x="276.75" y="-95.83" font-family="Times,serif" font-size="14.00">NeXusComponent[NXdetector, SampleRun]</text>
<text xml:space="preserve" text-anchor="start" x="383.25" y="-84.68" font-family="Times,serif" font-size="11.00">via:</text>
<text xml:space="preserve" text-anchor="start" x="403.5" y="-84.68" font-family="Times,serif" font-style="italic" font-size="11.00">load_detector</text>
</g>
<!-- Filename[SampleRun]&#45;&gt;NeXusComponent[NXdetector, SampleRun] -->
<g id="edge24" class="edge">
<title>Filename[SampleRun]:e&#45;&gt;NeXusComponent[NXdetector, SampleRun]:w</title>
<path fill="none" stroke="black" d="M146.38,-460.62C313.46,-460.62 107.74,-112.53 257.35,-96.22"/>
<polygon fill="black" stroke="black" points="257.43,-99.72 267.24,-95.7 257.07,-92.73 257.43,-99.72"/>
</g>
<!-- ProtonCharge[SampleRun] -->
<g id="node31" class="node">
<title>ProtonCharge[SampleRun]</title>
<polygon fill="none" stroke="black" points="535.62,-302.12 327.62,-302.12 327.62,-269.12 535.62,-269.12 535.62,-302.12"/>
<text xml:space="preserve" text-anchor="start" x="335.62" y="-285.82" font-family="Times,serif" font-size="14.00">ProtonCharge[SampleRun]</text>
<text xml:space="preserve" text-anchor="start" x="349.5" y="-274.68" font-family="Times,serif" font-size="11.00">via:</text>
<text xml:space="preserve" text-anchor="start" x="369.75" y="-274.68" font-family="Times,serif" font-style="italic" font-size="11.00">load_amor_proton_charge</text>
</g>
<!-- Filename[SampleRun]&#45;&gt;ProtonCharge[SampleRun] -->
<g id="edge26" class="edge">
<title>Filename[SampleRun]:e&#45;&gt;ProtonCharge[SampleRun]:w</title>
<path fill="none" stroke="black" d="M146.38,-460.62C254.11,-460.62 217.81,-297.71 315.41,-286.26"/>
<polygon fill="black" stroke="black" points="315.33,-289.77 325.11,-285.71 314.93,-282.78 315.33,-289.77"/>
</g>
<!-- RawSampleRotation[SampleRun] -->
<g id="node36" class="node">
<title>RawSampleRotation[SampleRun]</title>
<polygon fill="none" stroke="black" points="478.62,-694.75 384.62,-694.75 384.62,-672.5 478.62,-672.5 478.62,-694.75"/>
<text xml:space="preserve" text-anchor="start" x="392.62" y="-679.35" font-family="Times,serif" font-size="12.00">[SampleRun]</text>
</g>
<!-- Filename[SampleRun]&#45;&gt;RawSampleRotation[SampleRun] -->
<g id="edge35" class="edge">
<title>Filename[SampleRun]:e&#45;&gt;RawSampleRotation[SampleRun]:w</title>
<path fill="none" stroke="black" d="M146.38,-460.62C287.13,-460.62 241.62,-671.6 372.19,-683.13"/>
<polygon fill="black" stroke="black" points="371.97,-686.63 382.11,-683.56 372.27,-679.63 371.97,-686.63"/>
</g>
<!-- DetectorSpatialResolution -->
<g id="node27" class="node">
<title>DetectorSpatialResolution</title>
<polygon fill="none" stroke="black" points="1481,-432.25 1276.75,-432.25 1276.75,-407 1481,-407 1481,-432.25"/>
<text xml:space="preserve" text-anchor="start" x="1284.75" y="-414.95" font-family="Times,serif" font-size="14.00">DetectorSpatialResolution</text>
</g>
<!-- DetectorSpatialResolution&#45;&gt;Reference -->
<g id="edge45" class="edge">
<title>DetectorSpatialResolution:e&#45;&gt;Reference:w</title>
<path fill="none" stroke="black" d="M1482,-419.62C1538.73,-419.62 1554.46,-402.19 1605.74,-399.88"/>
<polygon fill="black" stroke="black" points="1605.82,-403.38 1615.74,-399.66 1605.66,-396.38 1605.82,-403.38"/>
</g>
<!-- MValue -->
<g id="node28" class="node">
<title>MValue</title>
<polygon fill="none" stroke="black" points="1413.5,-279.25 1344.25,-279.25 1344.25,-254 1413.5,-254 1413.5,-279.25"/>
<text xml:space="preserve" text-anchor="start" x="1352.25" y="-261.95" font-family="Times,serif" font-size="14.00">MValue</text>
</g>
<!-- MValue&#45;&gt;Sample -->
<g id="edge53" class="edge">
<title>MValue:e&#45;&gt;Sample:w</title>
<path fill="none" stroke="black" d="M1414.5,-266.62C1459.36,-266.62 1473.64,-264.04 1514,-283.62 1549,-300.61 1544.36,-339.87 1574.79,-347.37"/>
<polygon fill="black" stroke="black" points="1574.17,-350.82 1584.5,-348.46 1574.95,-343.87 1574.17,-350.82"/>
</g>
<!-- RawDetector[SampleRun] -->
<g id="node34" class="node">
<title>RawDetector[SampleRun]</title>
<polygon fill="none" stroke="black" points="871.75,-35.12 670.5,-35.12 670.5,-2.12 871.75,-2.12 871.75,-35.12"/>
<text xml:space="preserve" text-anchor="start" x="678.5" y="-18.82" font-family="Times,serif" font-size="14.00">RawDetector[SampleRun]</text>
<text xml:space="preserve" text-anchor="start" x="728" y="-7.68" font-family="Times,serif" font-size="11.00">via:</text>
<text xml:space="preserve" text-anchor="start" x="748.25" y="-7.68" font-family="Times,serif" font-style="italic" font-size="11.00">load_events</text>
</g>
<!-- NeXusComponent[NXdetector, SampleRun]&#45;&gt;RawDetector[SampleRun] -->
<g id="edge33" class="edge">
<title>NeXusComponent[NXdetector, SampleRun]:e&#45;&gt;RawDetector[SampleRun]:w</title>
<path fill="none" stroke="black" d="M594.5,-95.62C637.98,-95.62 624.87,-31.84 658.18,-20.38"/>
<polygon fill="black" stroke="black" points="658.66,-23.85 668,-18.86 657.59,-16.93 658.66,-23.85"/>
</g>
<!-- NeXusName[NXdetector] -->
<g id="node30" class="node">
<title>NeXusName[NXdetector]</title>
<polygon fill="none" stroke="black" points="196.75,-108.25 0,-108.25 0,-83 196.75,-83 196.75,-108.25"/>
<text xml:space="preserve" text-anchor="start" x="8" y="-90.95" font-family="Times,serif" font-size="14.00">NeXusName[NXdetector]</text>
</g>
<!-- NeXusName[NXdetector]&#45;&gt;NeXusComponent[NXdetector, SampleRun] -->
<g id="edge25" class="edge">
<title>NeXusName[NXdetector]:e&#45;&gt;NeXusComponent[NXdetector, SampleRun]:w</title>
<path fill="none" stroke="black" d="M196.75,-95.62C224.62,-95.62 234.29,-95.62 257.47,-95.62"/>
<polygon fill="black" stroke="black" points="257.24,-99.13 267.24,-95.63 257.24,-92.13 257.24,-99.13"/>
</g>
<!-- ProtonCharge[SampleRun]&#45;&gt;ReducibleData[SampleRun] -->
<g id="edge41" class="edge">
<title>ProtonCharge[SampleRun]:e&#45;&gt;ReducibleData[SampleRun]:w</title>
<path fill="none" stroke="black" d="M536.62,-285.62C655.18,-285.62 564.28,-112.68 666.5,-52.62 706.79,-28.96 832.81,-36.75 876.75,-52.62 972.98,-87.39 1126.45,-339 1232.37,-356.65"/>
<polygon fill="black" stroke="black" points="1231.98,-360.13 1242.24,-357.5 1232.58,-353.15 1231.98,-360.13"/>
</g>
<!-- ReflectivityOverQ -->
<g id="node43" class="node">
<title>ReflectivityOverQ</title>
<polygon fill="none" stroke="black" points="2133.25,-416.12 1971,-416.12 1971,-383.12 2133.25,-383.12 2133.25,-416.12"/>
<text xml:space="preserve" text-anchor="start" x="1988.75" y="-399.82" font-family="Times,serif" font-size="14.00">ReflectivityOverQ</text>
<text xml:space="preserve" text-anchor="start" x="1979" y="-388.68" font-family="Times,serif" font-size="11.00">via:</text>
<text xml:space="preserve" text-anchor="start" x="1999.25" y="-388.68" font-family="Times,serif" font-style="italic" font-size="11.00">reduce_sample_over_q</text>
</g>
<!-- QBins&#45;&gt;ReflectivityOverQ -->
<g id="edge49" class="edge">
<title>QBins:e&#45;&gt;ReflectivityOverQ:w</title>
<path fill="none" stroke="black" d="M1412.62,-533.62C1634.75,-533.62 1683.51,-472.52 1899,-418.62 1927.09,-411.6 1935.81,-402.32 1959.72,-400.11"/>
<polygon fill="black" stroke="black" points="1959.65,-403.62 1969.49,-399.69 1959.35,-396.63 1959.65,-403.62"/>
</g>
<!-- WavelengthBins -->
<g id="node33" class="node">
<title>WavelengthBins</title>
<polygon fill="none" stroke="black" points="1125.5,-546.25 994,-546.25 994,-521 1125.5,-521 1125.5,-546.25"/>
<text xml:space="preserve" text-anchor="start" x="1002" y="-528.95" font-family="Times,serif" font-size="14.00">WavelengthBins</text>
</g>
<!-- WavelengthBins&#45;&gt;QBins -->
<g id="edge29" class="edge">
<title>WavelengthBins:e&#45;&gt;QBins:w</title>
<path fill="none" stroke="black" d="M1126.5,-533.62C1219.78,-533.62 1245.9,-533.62 1333.79,-533.62"/>
<polygon fill="black" stroke="black" points="1333.61,-537.13 1343.61,-533.63 1333.61,-530.13 1333.61,-537.13"/>
</g>
<!-- WavelengthBins&#45;&gt;ReducibleData[SampleRun] -->
<g id="edge40" class="edge">
<title>WavelengthBins:e&#45;&gt;ReducibleData[SampleRun]:w</title>
<path fill="none" stroke="black" d="M1126.5,-533.62C1147.98,-533.62 1156.07,-531.31 1171.75,-516.62 1225.39,-466.4 1172.41,-368.66 1232.61,-358.49"/>
<polygon fill="black" stroke="black" points="1232.54,-362 1242.24,-357.74 1232,-355.02 1232.54,-362"/>
</g>
<!-- RawDetector[SampleRun]&#45;&gt;ReducibleData[SampleRun] -->
<g id="edge36" class="edge">
<title>RawDetector[SampleRun]:e&#45;&gt;ReducibleData[SampleRun]:w</title>
<path fill="none" stroke="black" d="M872.75,-18.62C906.67,-18.63 914.93,-23.01 948.75,-25.62 973.5,-27.54 1152.85,-23.53 1171.75,-39.62 1279.06,-131.01 1108.64,-345.47 1232.59,-357.13"/>
<polygon fill="black" stroke="black" points="1232.09,-360.61 1242.24,-357.56 1232.4,-353.62 1232.09,-360.61"/>
</g>
<!-- RawSampleRotation[ReferenceRun]&#45;&gt;SampleRotation[ReferenceRun] -->
<g id="edge55" class="edge">
<title>RawSampleRotation[ReferenceRun]:e&#45;&gt;SampleRotation[ReferenceRun]:w</title>
<path fill="none" stroke="black" d="M487.5,-709.62C599.23,-709.62 599.68,-827.16 703.8,-835.19"/>
<polygon fill="black" stroke="black" points="703.61,-838.69 713.74,-835.57 703.88,-831.69 703.61,-838.69"/>
</g>
<!-- RawSampleRotation[SampleRun]&#45;&gt;SampleRotation[SampleRun] -->
<g id="edge57" class="edge">
<title>RawSampleRotation[SampleRun]:e&#45;&gt;SampleRotation[SampleRun]:w</title>
<path fill="none" stroke="black" d="M479.62,-683.62C531.11,-683.62 549.29,-673.99 594.5,-698.62 657.31,-732.85 648.78,-801.84 711.89,-809.02"/>
<polygon fill="black" stroke="black" points="711.44,-812.5 721.61,-809.54 711.82,-805.51 711.44,-812.5"/>
</g>
<!-- ReducedReference -->
<g id="node37" class="node">
<title>ReducedReference</title>
<polygon fill="none" stroke="black" points="1453.62,-403.25 1304.12,-403.25 1304.12,-378 1453.62,-378 1453.62,-403.25"/>
<text xml:space="preserve" text-anchor="start" x="1312.12" y="-385.95" font-family="Times,serif" font-size="14.00">ReducedReference</text>
</g>
<!-- ReducedReference&#45;&gt;Reference -->
<g id="edge43" class="edge">
<title>ReducedReference:e&#45;&gt;Reference:w</title>
<path fill="none" stroke="black" d="M1454.62,-390.62C1523.05,-390.62 1542.75,-398.67 1605.85,-399.55"/>
<polygon fill="black" stroke="black" points="1605.71,-403.05 1615.74,-399.61 1605.76,-396.05 1605.71,-403.05"/>
</g>
<!-- ReducedReference&#45;&gt;Sample -->
<g id="edge51" class="edge">
<title>ReducedReference:e&#45;&gt;Sample:w</title>
<path fill="none" stroke="black" d="M1454.62,-390.62C1482.07,-390.62 1487.83,-381.91 1514,-373.62 1542.26,-364.68 1550.25,-352.25 1574.51,-349.28"/>
<polygon fill="black" stroke="black" points="1574.7,-352.77 1584.49,-348.71 1574.31,-345.79 1574.7,-352.77"/>
</g>
<!-- ReducibleData[SampleRun]&#45;&gt;Reference -->
<g id="edge44" class="edge">
<title>ReducibleData[SampleRun]:e&#45;&gt;Reference:w</title>
<path fill="none" stroke="black" d="M1514,-357.62C1559.48,-357.62 1566.72,-393.02 1605.92,-398.82"/>
<polygon fill="black" stroke="black" points="1605.52,-402.3 1615.74,-399.52 1606.01,-395.32 1605.52,-402.3"/>
</g>
<!-- ReducibleData[SampleRun]&#45;&gt;Sample -->
<g id="edge50" class="edge">
<title>ReducibleData[SampleRun]:e&#45;&gt;Sample:w</title>
<path fill="none" stroke="black" d="M1514,-357.62C1542.09,-357.62 1551.41,-350.8 1574.66,-349.04"/>
<polygon fill="black" stroke="black" points="1574.62,-352.54 1584.49,-348.68 1574.37,-345.54 1574.62,-352.54"/>
</g>
<!-- YIndexLimits -->
<g id="node39" class="node">
<title>YIndexLimits</title>
<polygon fill="none" stroke="black" points="1114.62,-25.25 1004.88,-25.25 1004.88,0 1114.62,0 1114.62,-25.25"/>
<text xml:space="preserve" text-anchor="start" x="1012.88" y="-7.95" font-family="Times,serif" font-size="14.00">YIndexLimits</text>
</g>
<!-- YIndexLimits&#45;&gt;ReducibleData[SampleRun] -->
<g id="edge37" class="edge">
<title>YIndexLimits:e&#45;&gt;ReducibleData[SampleRun]:w</title>
<path fill="none" stroke="black" d="M1115.62,-12.62C1141.69,-12.63 1154.05,-10.49 1171.75,-29.62 1270.42,-136.31 1103.72,-346.18 1232.62,-357.18"/>
<polygon fill="black" stroke="black" points="1232.1,-360.66 1242.24,-357.56 1232.39,-353.66 1232.1,-360.66"/>
</g>
<!-- ZIndexLimits -->
<g id="node40" class="node">
<title>ZIndexLimits</title>
<polygon fill="none" stroke="black" points="1115,-370.25 1004.5,-370.25 1004.5,-345 1115,-345 1115,-370.25"/>
<text xml:space="preserve" text-anchor="start" x="1012.5" y="-352.95" font-family="Times,serif" font-size="14.00">ZIndexLimits</text>
</g>
<!-- ZIndexLimits&#45;&gt;ReducibleData[SampleRun] -->
<g id="edge38" class="edge">
<title>ZIndexLimits:e&#45;&gt;ReducibleData[SampleRun]:w</title>
<path fill="none" stroke="black" d="M1116,-357.62C1168.79,-357.62 1184.77,-357.62 1232.38,-357.62"/>
<polygon fill="black" stroke="black" points="1232.24,-361.13 1242.24,-357.63 1232.24,-354.13 1232.24,-361.13"/>
</g>
<!-- Reference&#45;&gt;ReflectivityOverQ -->
<g id="edge48" class="edge">
<title>Reference:e&#45;&gt;ReflectivityOverQ:w</title>
<path fill="none" stroke="black" d="M1867.75,-399.62C1909.7,-399.62 1922.89,-399.62 1959.89,-399.62"/>
<polygon fill="black" stroke="black" points="1959.49,-403.13 1969.49,-399.63 1959.49,-396.13 1959.49,-403.13"/>
</g>
<!-- Sample&#45;&gt;ReflectivityOverQ -->
<g id="edge47" class="edge">
<title>Sample:e&#45;&gt;ReflectivityOverQ:w</title>
<path fill="none" stroke="black" d="M1899,-348.62C1933.93,-348.62 1932.65,-389.08 1959.65,-397.93"/>
<polygon fill="black" stroke="black" points="1959.1,-401.38 1969.5,-399.4 1960.13,-394.46 1959.1,-401.38"/>
</g>
<!-- SampleRotationOffset[ReferenceRun] -->
<g id="node44" class="node">
<title>SampleRotationOffset[ReferenceRun]</title>
<polygon fill="none" stroke="black" points="486.5,-846.75 376.75,-846.75 376.75,-824.5 486.5,-824.5 486.5,-846.75"/>
<text xml:space="preserve" text-anchor="start" x="384.75" y="-831.35" font-family="Times,serif" font-size="12.00">[ReferenceRun]</text>
</g>
<!-- SampleRotationOffset[ReferenceRun]&#45;&gt;SampleRotation[ReferenceRun] -->
<g id="edge56" class="edge">
<title>SampleRotationOffset[ReferenceRun]:e&#45;&gt;SampleRotation[ReferenceRun]:w</title>
<path fill="none" stroke="black" d="M487.5,-835.62C584.87,-835.62 611.99,-835.62 704.01,-835.62"/>
<polygon fill="black" stroke="black" points="703.74,-839.13 713.74,-835.63 703.74,-832.13 703.74,-839.13"/>
</g>
<!-- SampleRotationOffset[SampleRun] -->
<g id="node45" class="node">
<title>SampleRotationOffset[SampleRun]</title>
<polygon fill="none" stroke="black" points="478.62,-820.75 384.62,-820.75 384.62,-798.5 478.62,-798.5 478.62,-820.75"/>
<text xml:space="preserve" text-anchor="start" x="392.62" y="-805.35" font-family="Times,serif" font-size="12.00">[SampleRun]</text>
</g>
<!-- SampleRotationOffset[SampleRun]&#45;&gt;SampleRotation[SampleRun] -->
<g id="edge58" class="edge">
<title>SampleRotationOffset[SampleRun]:e&#45;&gt;SampleRotation[SampleRun]:w</title>
<path fill="none" stroke="black" d="M479.62,-809.62C583.94,-809.62 612.84,-809.62 711.7,-809.62"/>
<polygon fill="black" stroke="black" points="711.61,-813.13 721.61,-809.63 711.61,-806.13 711.61,-813.13"/>
</g>
</g>
</svg>
