<?xml version="1.0" encoding="UTF-8" standalone="no"?>
<!DOCTYPE svg PUBLIC "-//W3C//DTD SVG 1.1//EN"
 "http://www.w3.org/Graphics/SVG/1.1/DTD/svg11.dtd">
<!-- Generated by graphviz version 14.1.2 (20260126.1125)
 -->
<!-- Pages: 1 -->
<svg width="375pt" height="278pt"
 viewBox="0.00 0.00 375.00 278.00" xmlns="http://www.w3.org/2000/svg" xmlns:xlink="http://www.w3.org/1999/xlink">
<g id="graph0" class="graph" transform="scale(1 1) rotate(0) translate(4 274.25)">
<polygon fill="white" stroke="none" points="-4,4 -4,-274.25 371,-274.25 371,4 -4,4"/>
<!-- source_position -->
<g id="node1" class="node">
<title>source_position</title>
<polygon fill="none" stroke="black" points="127,-270.25 0,-270.25 0,-245 127,-245 127,-270.25"/>
<text xml:space="preserve" text-anchor="middle" x="63.5" y="-252.95" font-family="Times,serif" font-size="14.00">source_position</text>
</g>
<!-- incident_beam -->
<g id="node2" class="node">
<title>incident_beam</title>
<polygon fill="none" stroke="black" points="186.25,-209 66.75,-209 66.75,-183.75 186.25,-183.75 186.25,-209"/>
<text xml:space="preserve" text-anchor="middle" x="126.5" y="-191.7" font-family="Times,serif" font-size="14.00">incident_beam</text>
</g>
<!-- source_position&#45;&gt;incident_beam -->
<g id="edge1" class="edge">
<title>source_position&#45;&gt;incident_beam</title>
<path fill="none" stroke="black" d="M76.25,-244.63C84.62,-236.76 95.76,-226.28 105.43,-217.19"/>
<polygon fill="black" stroke="black" points="107.78,-219.78 112.67,-210.38 102.99,-214.69 107.78,-219.78"/>
</g>
<!-- L1 -->
<g id="node6" class="node">
<title>L1</title>
<polygon fill="none" stroke="black" points="136.5,-147.75 82.5,-147.75 82.5,-122.5 136.5,-122.5 136.5,-147.75"/>
<text xml:space="preserve" text-anchor="middle" x="109.5" y="-130.45" font-family="Times,serif" font-size="14.00">L1</text>
</g>
<!-- incident_beam&#45;&gt;L1 -->
<g id="edge5" class="edge">
<title>incident_beam&#45;&gt;L1</title>
<path fill="none" stroke="black" d="M123.06,-183.38C121.06,-176.4 118.46,-167.35 116.08,-159.05"/>
<polygon fill="black" stroke="black" points="119.47,-158.2 113.35,-149.55 112.75,-160.13 119.47,-158.2"/>
</g>
<!-- two_theta -->
<g id="node8" class="node">
<title>two_theta</title>
<polygon fill="none" stroke="black" points="240.75,-147.75 154.25,-147.75 154.25,-122.5 240.75,-122.5 240.75,-147.75"/>
<text xml:space="preserve" text-anchor="middle" x="197.5" y="-130.45" font-family="Times,serif" font-size="14.00">two_theta</text>
</g>
<!-- incident_beam&#45;&gt;two_theta -->
<g id="edge7" class="edge">
<title>incident_beam&#45;&gt;two_theta</title>
<path fill="none" stroke="black" d="M140.87,-183.38C150.49,-175.35 163.37,-164.6 174.42,-155.39"/>
<polygon fill="black" stroke="black" points="176.56,-158.16 181.99,-149.07 172.07,-152.79 176.56,-158.16"/>
</g>
<!-- sample_position -->
<g id="node3" class="node">
<title>sample_position</title>
<polygon fill="none" stroke="black" points="275.88,-270.25 145.12,-270.25 145.12,-245 275.88,-245 275.88,-270.25"/>
<text xml:space="preserve" text-anchor="middle" x="210.5" y="-252.95" font-family="Times,serif" font-size="14.00">sample_position</text>
</g>
<!-- sample_position&#45;&gt;incident_beam -->
<g id="edge2" class="edge">
<title>sample_position&#45;&gt;incident_beam</title>
<path fill="none" stroke="black" d="M193.5,-244.63C181.77,-236.36 165.96,-225.21 152.64,-215.81"/>
<polygon fill="black" stroke="black" points="154.9,-213.12 144.71,-210.22 150.86,-218.84 154.9,-213.12"/>
</g>
<!-- scattered_beam -->
<g id="node5" class="node">
<title>scattered_beam</title>
<polygon fill="none" stroke="black" points="335.12,-209 205.88,-209 205.88,-183.75 335.12,-183.75 335.12,-209"/>
<text xml:space="preserve" text-anchor="middle" x="270.5" y="-191.7" font-family="Times,serif" font-size="14.00">scattered_beam</text>
</g>
<!-- sample_position&#45;&gt;scattered_beam -->
<g id="edge4" class="edge">
<title>sample_position&#45;&gt;scattered_beam</title>
<path fill="none" stroke="black" d="M222.64,-244.63C230.61,-236.76 241.23,-226.28 250.43,-217.19"/>
<polygon fill="black" stroke="black" points="252.64,-219.93 257.3,-210.41 247.72,-214.95 252.64,-219.93"/>
</g>
<!-- position -->
<g id="node4" class="node">
<title>position</title>
<polygon fill="none" stroke="black" points="367,-270.25 294,-270.25 294,-245 367,-245 367,-270.25"/>
<text xml:space="preserve" text-anchor="middle" x="330.5" y="-252.95" font-family="Times,serif" font-size="14.00">position</text>
</g>
<!-- position&#45;&gt;scattered_beam -->
<g id="edge3" class="edge">
<title>position&#45;&gt;scattered_beam</title>
<path fill="none" stroke="black" d="M318.36,-244.63C310.39,-236.76 299.77,-226.28 290.57,-217.19"/>
<polygon fill="black" stroke="black" points="293.28,-214.95 283.7,-210.41 288.36,-219.93 293.28,-214.95"/>
</g>
<!-- L2 -->
<g id="node7" class="node">
<title>L2</title>
<polygon fill="none" stroke="black" points="312.5,-147.75 258.5,-147.75 258.5,-122.5 312.5,-122.5 312.5,-147.75"/>
<text xml:space="preserve" text-anchor="middle" x="285.5" y="-130.45" font-family="Times,serif" font-size="14.00">L2</text>
</g>
<!-- scattered_beam&#45;&gt;L2 -->
<g id="edge6" class="edge">
<title>scattered_beam&#45;&gt;L2</title>
<path fill="none" stroke="black" d="M273.54,-183.38C275.3,-176.4 277.59,-167.35 279.7,-159.05"/>
<polygon fill="black" stroke="black" points="283.04,-160.12 282.1,-149.56 276.25,-158.4 283.04,-160.12"/>
</g>
<!-- scattered_beam&#45;&gt;two_theta -->
<g id="edge8" class="edge">
<title>scattered_beam&#45;&gt;two_theta</title>
<path fill="none" stroke="black" d="M255.73,-183.38C245.73,-175.27 232.32,-164.39 220.89,-155.11"/>
<polygon fill="black" stroke="black" points="223.4,-152.64 213.43,-149.05 218.98,-158.07 223.4,-152.64"/>
</g>
<!-- Ltotal -->
<g id="node9" class="node">
<title>Ltotal</title>
<polygon fill="none" stroke="black" points="226.5,-86.5 168.5,-86.5 168.5,-61.25 226.5,-61.25 226.5,-86.5"/>
<text xml:space="preserve" text-anchor="middle" x="197.5" y="-69.2" font-family="Times,serif" font-size="14.00">Ltotal</text>
</g>
<!-- L1&#45;&gt;Ltotal -->
<g id="edge9" class="edge">
<title>L1&#45;&gt;Ltotal</title>
<path fill="none" stroke="black" d="M127.31,-122.13C139.71,-113.78 156.48,-102.49 170.52,-93.04"/>
<polygon fill="black" stroke="black" points="172.12,-96.18 178.46,-87.69 168.21,-90.37 172.12,-96.18"/>
</g>
<!-- L2&#45;&gt;Ltotal -->
<g id="edge10" class="edge">
<title>L2&#45;&gt;Ltotal</title>
<path fill="none" stroke="black" d="M267.69,-122.13C255.29,-113.78 238.52,-102.49 224.48,-93.04"/>
<polygon fill="black" stroke="black" points="226.79,-90.37 216.54,-87.69 222.88,-96.18 226.79,-90.37"/>
</g>
<!-- wavelength -->
<g id="node11" class="node">
<title>wavelength</title>
<polygon fill="none" stroke="black" points="283.75,-25.25 185.25,-25.25 185.25,0 283.75,0 283.75,-25.25"/>
<text xml:space="preserve" text-anchor="middle" x="234.5" y="-7.95" font-family="Times,serif" font-size="14.00">wavelength</text>
</g>
<!-- Ltotal&#45;&gt;wavelength -->
<g id="edge12" class="edge">
<title>Ltotal&#45;&gt;wavelength</title>
<path fill="none" stroke="black" d="M204.99,-60.88C209.6,-53.5 215.65,-43.81 221.07,-35.13"/>
<polygon fill="black" stroke="black" points="223.89,-37.22 226.22,-26.88 217.96,-33.51 223.89,-37.22"/>
</g>
<!-- tof -->
<g id="node10" class="node">
<title>tof</title>
<polygon fill="none" stroke="black" points="298.5,-86.5 244.5,-86.5 244.5,-61.25 298.5,-61.25 298.5,-86.5"/>
<text xml:space="preserve" text-anchor="middle" x="271.5" y="-69.2" font-family="Times,serif" font-size="14.00">tof</text>
</g>
<!-- tof&#45;&gt;wavelength -->
<g id="edge11" class="edge">
<title>tof&#45;&gt;wavelength</title>
<path fill="none" stroke="black" d="M264.01,-60.88C259.4,-53.5 253.35,-43.81 247.93,-35.13"/>
<polygon fill="black" stroke="black" points="251.04,-33.51 242.78,-26.88 245.11,-37.22 251.04,-33.51"/>
</g>
</g>
</svg>
