<?xml version="1.0" encoding="utf-8" standalone="no"?>
<!DOCTYPE svg PUBLIC "-//W3C//DTD SVG 1.1//EN"
  "http://www.w3.org/Graphics/SVG/1.1/DTD/svg11.dtd">
<svg xmlns:xlink="http://www.w3.org/1999/xlink" width="424.34375pt" height="280.274375pt" viewBox="0 0 424.34375 280.274375" xmlns="http://www.w3.org/2000/svg" version="1.1">
 <metadata>
  <rdf:RDF xmlns:dc="http://purl.org/dc/elements/1.1/" xmlns:cc="http://creativecommons.org/ns#" xmlns:rdf="http://www.w3.org/1999/02/22-rdf-syntax-ns#">
   <cc:Work>
    <dc:type rdf:resource="http://purl.org/dc/dcmitype/StillImage"/>
    <dc:date>2024-01-22T12:09:43.196954</dc:date>
    <dc:format>image/svg+xml</dc:format>
    <dc:creator>
     <cc:Agent>
      <dc:title>Matplotlib v3.7.3, https://matplotlib.org/</dc:title>
     </cc:Agent>
    </dc:creator>
   </cc:Work>
  </rdf:RDF>
 </metadata>
 <defs>
  <style type="text/css">*{stroke-linejoin: round; stroke-linecap: butt}</style>
 </defs>
 <g id="figure_1">
  <g id="patch_1">
   <path d="M 0 280.274375 
L 424.34375 280.274375 
L 424.34375 0 
L 0 0 
z
" style="fill: #ffffff"/>
  </g>
  <g id="axes_1">
   <g id="patch_2">
    <path d="M 50.14375 241.03375 
L 417.14375 241.03375 
L 417.14375 7.2 
L 50.14375 7.2 
z
" style="fill: #ffffff"/>
   </g>
   <g id="line2d_1">
    <path d="M 71.591802 23.430785 
L 73.974919 23.430785 
L 73.974919 21.522568 
L 76.358036 21.522568 
L 76.358036 25.79925 
L 78.741153 25.79925 
L 78.741153 29.626409 
L 81.124269 29.626409 
L 81.124269 29.626409 
" clip-path="url(#pbf31b51af6)" style="fill: none; stroke: #000000; stroke-width: 4.5; stroke-linecap: square"/>
   </g>
   <g id="matplotlib.axis_1">
    <g id="xtick_1">
     <g id="line2d_2">
      <defs>
       <path id="m2712dd7015" d="M 0 0 
L 0 3.5 
" style="stroke: #000000; stroke-width: 0.8"/>
      </defs>
      <g>
       <use xlink:href="#m2712dd7015" x="66.825568" y="241.03375" style="stroke: #000000; stroke-width: 0.8"/>
      </g>
     </g>
     <g id="text_1">
      <!-- 2 -->
      <g transform="translate(63.644318 255.632188) scale(0.1 -0.1)">
       <defs>
        <path id="DejaVuSans-32" d="M 1228 531 
L 3431 531 
L 3431 0 
L 469 0 
L 469 531 
Q 828 903 1448 1529 
Q 2069 2156 2228 2338 
Q 2531 2678 2651 2914 
Q 2772 3150 2772 3378 
Q 2772 3750 2511 3984 
Q 2250 4219 1831 4219 
Q 1534 4219 1204 4116 
Q 875 4013 500 3803 
L 500 4441 
Q 881 4594 1212 4672 
Q 1544 4750 1819 4750 
Q 2544 4750 2975 4387 
Q 3406 4025 3406 3419 
Q 3406 3131 3298 2873 
Q 3191 2616 2906 2266 
Q 2828 2175 2409 1742 
Q 1991 1309 1228 531 
z
" transform="scale(0.015625)"/>
       </defs>
       <use xlink:href="#DejaVuSans-32"/>
      </g>
     </g>
    </g>
    <g id="xtick_2">
     <g id="line2d_3">
      <g>
       <use xlink:href="#m2712dd7015" x="114.487906" y="241.03375" style="stroke: #000000; stroke-width: 0.8"/>
      </g>
     </g>
     <g id="text_2">
      <!-- 4 -->
      <g transform="translate(111.306656 255.632188) scale(0.1 -0.1)">
       <defs>
        <path id="DejaVuSans-34" d="M 2419 4116 
L 825 1625 
L 2419 1625 
L 2419 4116 
z
M 2253 4666 
L 3047 4666 
L 3047 1625 
L 3713 1625 
L 3713 1100 
L 3047 1100 
L 3047 0 
L 2419 0 
L 2419 1100 
L 313 1100 
L 313 1709 
L 2253 4666 
z
" transform="scale(0.015625)"/>
       </defs>
       <use xlink:href="#DejaVuSans-34"/>
      </g>
     </g>
    </g>
    <g id="xtick_3">
     <g id="line2d_4">
      <g>
       <use xlink:href="#m2712dd7015" x="162.150244" y="241.03375" style="stroke: #000000; stroke-width: 0.8"/>
      </g>
     </g>
     <g id="text_3">
      <!-- 6 -->
      <g transform="translate(158.968994 255.632188) scale(0.1 -0.1)">
       <defs>
        <path id="DejaVuSans-36" d="M 2113 2584 
Q 1688 2584 1439 2293 
Q 1191 2003 1191 1497 
Q 1191 994 1439 701 
Q 1688 409 2113 409 
Q 2538 409 2786 701 
Q 3034 994 3034 1497 
Q 3034 2003 2786 2293 
Q 2538 2584 2113 2584 
z
M 3366 4563 
L 3366 3988 
Q 3128 4100 2886 4159 
Q 2644 4219 2406 4219 
Q 1781 4219 1451 3797 
Q 1122 3375 1075 2522 
Q 1259 2794 1537 2939 
Q 1816 3084 2150 3084 
Q 2853 3084 3261 2657 
Q 3669 2231 3669 1497 
Q 3669 778 3244 343 
Q 2819 -91 2113 -91 
Q 1303 -91 875 529 
Q 447 1150 447 2328 
Q 447 3434 972 4092 
Q 1497 4750 2381 4750 
Q 2619 4750 2861 4703 
Q 3103 4656 3366 4563 
z
" transform="scale(0.015625)"/>
       </defs>
       <use xlink:href="#DejaVuSans-36"/>
      </g>
     </g>
    </g>
    <g id="xtick_4">
     <g id="line2d_5">
      <g>
       <use xlink:href="#m2712dd7015" x="209.812581" y="241.03375" style="stroke: #000000; stroke-width: 0.8"/>
      </g>
     </g>
     <g id="text_4">
      <!-- 8 -->
      <g transform="translate(206.631331 255.632188) scale(0.1 -0.1)">
       <defs>
        <path id="DejaVuSans-38" d="M 2034 2216 
Q 1584 2216 1326 1975 
Q 1069 1734 1069 1313 
Q 1069 891 1326 650 
Q 1584 409 2034 409 
Q 2484 409 2743 651 
Q 3003 894 3003 1313 
Q 3003 1734 2745 1975 
Q 2488 2216 2034 2216 
z
M 1403 2484 
Q 997 2584 770 2862 
Q 544 3141 544 3541 
Q 544 4100 942 4425 
Q 1341 4750 2034 4750 
Q 2731 4750 3128 4425 
Q 3525 4100 3525 3541 
Q 3525 3141 3298 2862 
Q 3072 2584 2669 2484 
Q 3125 2378 3379 2068 
Q 3634 1759 3634 1313 
Q 3634 634 3220 271 
Q 2806 -91 2034 -91 
Q 1263 -91 848 271 
Q 434 634 434 1313 
Q 434 1759 690 2068 
Q 947 2378 1403 2484 
z
M 1172 3481 
Q 1172 3119 1398 2916 
Q 1625 2713 2034 2713 
Q 2441 2713 2670 2916 
Q 2900 3119 2900 3481 
Q 2900 3844 2670 4047 
Q 2441 4250 2034 4250 
Q 1625 4250 1398 4047 
Q 1172 3844 1172 3481 
z
" transform="scale(0.015625)"/>
       </defs>
       <use xlink:href="#DejaVuSans-38"/>
      </g>
     </g>
    </g>
    <g id="xtick_5">
     <g id="line2d_6">
      <g>
       <use xlink:href="#m2712dd7015" x="257.474919" y="241.03375" style="stroke: #000000; stroke-width: 0.8"/>
      </g>
     </g>
     <g id="text_5">
      <!-- 10 -->
      <g transform="translate(251.112419 255.632188) scale(0.1 -0.1)">
       <defs>
        <path id="DejaVuSans-31" d="M 794 531 
L 1825 531 
L 1825 4091 
L 703 3866 
L 703 4441 
L 1819 4666 
L 2450 4666 
L 2450 531 
L 3481 531 
L 3481 0 
L 794 0 
L 794 531 
z
" transform="scale(0.015625)"/>
        <path id="DejaVuSans-30" d="M 2034 4250 
Q 1547 4250 1301 3770 
Q 1056 3291 1056 2328 
Q 1056 1369 1301 889 
Q 1547 409 2034 409 
Q 2525 409 2770 889 
Q 3016 1369 3016 2328 
Q 3016 3291 2770 3770 
Q 2525 4250 2034 4250 
z
M 2034 4750 
Q 2819 4750 3233 4129 
Q 3647 3509 3647 2328 
Q 3647 1150 3233 529 
Q 2819 -91 2034 -91 
Q 1250 -91 836 529 
Q 422 1150 422 2328 
Q 422 3509 836 4129 
Q 1250 4750 2034 4750 
z
" transform="scale(0.015625)"/>
       </defs>
       <use xlink:href="#DejaVuSans-31"/>
       <use xlink:href="#DejaVuSans-30" x="63.623047"/>
      </g>
     </g>
    </g>
    <g id="xtick_6">
     <g id="line2d_7">
      <g>
       <use xlink:href="#m2712dd7015" x="305.137256" y="241.03375" style="stroke: #000000; stroke-width: 0.8"/>
      </g>
     </g>
     <g id="text_6">
      <!-- 12 -->
      <g transform="translate(298.774756 255.632188) scale(0.1 -0.1)">
       <use xlink:href="#DejaVuSans-31"/>
       <use xlink:href="#DejaVuSans-32" x="63.623047"/>
      </g>
     </g>
    </g>
    <g id="xtick_7">
     <g id="line2d_8">
      <g>
       <use xlink:href="#m2712dd7015" x="352.799594" y="241.03375" style="stroke: #000000; stroke-width: 0.8"/>
      </g>
     </g>
     <g id="text_7">
      <!-- 14 -->
      <g transform="translate(346.437094 255.632188) scale(0.1 -0.1)">
       <use xlink:href="#DejaVuSans-31"/>
       <use xlink:href="#DejaVuSans-34" x="63.623047"/>
      </g>
     </g>
    </g>
    <g id="xtick_8">
     <g id="line2d_9">
      <g>
       <use xlink:href="#m2712dd7015" x="400.461932" y="241.03375" style="stroke: #000000; stroke-width: 0.8"/>
      </g>
     </g>
     <g id="text_8">
      <!-- 16 -->
      <g transform="translate(394.099432 255.632188) scale(0.1 -0.1)">
       <use xlink:href="#DejaVuSans-31"/>
       <use xlink:href="#DejaVuSans-36" x="63.623047"/>
      </g>
     </g>
    </g>
    <g id="text_9">
     <!-- wavelength [Å] -->
     <g transform="translate(195.60625 270.994687) scale(0.1 -0.1)">
      <defs>
       <path id="DejaVuSans-77" d="M 269 3500 
L 844 3500 
L 1563 769 
L 2278 3500 
L 2956 3500 
L 3675 769 
L 4391 3500 
L 4966 3500 
L 4050 0 
L 3372 0 
L 2619 2869 
L 1863 0 
L 1184 0 
L 269 3500 
z
" transform="scale(0.015625)"/>
       <path id="DejaVuSans-61" d="M 2194 1759 
Q 1497 1759 1228 1600 
Q 959 1441 959 1056 
Q 959 750 1161 570 
Q 1363 391 1709 391 
Q 2188 391 2477 730 
Q 2766 1069 2766 1631 
L 2766 1759 
L 2194 1759 
z
M 3341 1997 
L 3341 0 
L 2766 0 
L 2766 531 
Q 2569 213 2275 61 
Q 1981 -91 1556 -91 
Q 1019 -91 701 211 
Q 384 513 384 1019 
Q 384 1609 779 1909 
Q 1175 2209 1959 2209 
L 2766 2209 
L 2766 2266 
Q 2766 2663 2505 2880 
Q 2244 3097 1772 3097 
Q 1472 3097 1187 3025 
Q 903 2953 641 2809 
L 641 3341 
Q 956 3463 1253 3523 
Q 1550 3584 1831 3584 
Q 2591 3584 2966 3190 
Q 3341 2797 3341 1997 
z
" transform="scale(0.015625)"/>
       <path id="DejaVuSans-76" d="M 191 3500 
L 800 3500 
L 1894 563 
L 2988 3500 
L 3597 3500 
L 2284 0 
L 1503 0 
L 191 3500 
z
" transform="scale(0.015625)"/>
       <path id="DejaVuSans-65" d="M 3597 1894 
L 3597 1613 
L 953 1613 
Q 991 1019 1311 708 
Q 1631 397 2203 397 
Q 2534 397 2845 478 
Q 3156 559 3463 722 
L 3463 178 
Q 3153 47 2828 -22 
Q 2503 -91 2169 -91 
Q 1331 -91 842 396 
Q 353 884 353 1716 
Q 353 2575 817 3079 
Q 1281 3584 2069 3584 
Q 2775 3584 3186 3129 
Q 3597 2675 3597 1894 
z
M 3022 2063 
Q 3016 2534 2758 2815 
Q 2500 3097 2075 3097 
Q 1594 3097 1305 2825 
Q 1016 2553 972 2059 
L 3022 2063 
z
" transform="scale(0.015625)"/>
       <path id="DejaVuSans-6c" d="M 603 4863 
L 1178 4863 
L 1178 0 
L 603 0 
L 603 4863 
z
" transform="scale(0.015625)"/>
       <path id="DejaVuSans-6e" d="M 3513 2113 
L 3513 0 
L 2938 0 
L 2938 2094 
Q 2938 2591 2744 2837 
Q 2550 3084 2163 3084 
Q 1697 3084 1428 2787 
Q 1159 2491 1159 1978 
L 1159 0 
L 581 0 
L 581 3500 
L 1159 3500 
L 1159 2956 
Q 1366 3272 1645 3428 
Q 1925 3584 2291 3584 
Q 2894 3584 3203 3211 
Q 3513 2838 3513 2113 
z
" transform="scale(0.015625)"/>
       <path id="DejaVuSans-67" d="M 2906 1791 
Q 2906 2416 2648 2759 
Q 2391 3103 1925 3103 
Q 1463 3103 1205 2759 
Q 947 2416 947 1791 
Q 947 1169 1205 825 
Q 1463 481 1925 481 
Q 2391 481 2648 825 
Q 2906 1169 2906 1791 
z
M 3481 434 
Q 3481 -459 3084 -895 
Q 2688 -1331 1869 -1331 
Q 1566 -1331 1297 -1286 
Q 1028 -1241 775 -1147 
L 775 -588 
Q 1028 -725 1275 -790 
Q 1522 -856 1778 -856 
Q 2344 -856 2625 -561 
Q 2906 -266 2906 331 
L 2906 616 
Q 2728 306 2450 153 
Q 2172 0 1784 0 
Q 1141 0 747 490 
Q 353 981 353 1791 
Q 353 2603 747 3093 
Q 1141 3584 1784 3584 
Q 2172 3584 2450 3431 
Q 2728 3278 2906 2969 
L 2906 3500 
L 3481 3500 
L 3481 434 
z
" transform="scale(0.015625)"/>
       <path id="DejaVuSans-74" d="M 1172 4494 
L 1172 3500 
L 2356 3500 
L 2356 3053 
L 1172 3053 
L 1172 1153 
Q 1172 725 1289 603 
Q 1406 481 1766 481 
L 2356 481 
L 2356 0 
L 1766 0 
Q 1100 0 847 248 
Q 594 497 594 1153 
L 594 3053 
L 172 3053 
L 172 3500 
L 594 3500 
L 594 4494 
L 1172 4494 
z
" transform="scale(0.015625)"/>
       <path id="DejaVuSans-68" d="M 3513 2113 
L 3513 0 
L 2938 0 
L 2938 2094 
Q 2938 2591 2744 2837 
Q 2550 3084 2163 3084 
Q 1697 3084 1428 2787 
Q 1159 2491 1159 1978 
L 1159 0 
L 581 0 
L 581 4863 
L 1159 4863 
L 1159 2956 
Q 1366 3272 1645 3428 
Q 1925 3584 2291 3584 
Q 2894 3584 3203 3211 
Q 3513 2838 3513 2113 
z
" transform="scale(0.015625)"/>
       <path id="DejaVuSans-20" transform="scale(0.015625)"/>
       <path id="DejaVuSans-5b" d="M 550 4863 
L 1875 4863 
L 1875 4416 
L 1125 4416 
L 1125 -397 
L 1875 -397 
L 1875 -844 
L 550 -844 
L 550 4863 
z
" transform="scale(0.015625)"/>
       <path id="DejaVuSans-c5" d="M 2663 5081 
Q 2663 5278 2523 5417 
Q 2384 5556 2188 5556 
Q 1988 5556 1852 5420 
Q 1716 5284 1716 5081 
Q 1716 4884 1853 4746 
Q 1991 4609 2188 4609 
Q 2384 4609 2523 4746 
Q 2663 4884 2663 5081 
z
M 2188 4044 
L 1338 1722 
L 3041 1722 
L 2188 4044 
z
M 1716 4366 
Q 1525 4494 1428 4673 
Q 1331 4853 1331 5081 
Q 1331 5441 1579 5691 
Q 1828 5941 2188 5941 
Q 2544 5941 2795 5689 
Q 3047 5438 3047 5081 
Q 3047 4863 2948 4678 
Q 2850 4494 2663 4366 
L 4325 0 
L 3669 0 
L 3244 1197 
L 1141 1197 
L 716 0 
L 50 0 
L 1716 4366 
z
" transform="scale(0.015625)"/>
       <path id="DejaVuSans-5d" d="M 1947 4863 
L 1947 -844 
L 622 -844 
L 622 -397 
L 1369 -397 
L 1369 4416 
L 622 4416 
L 622 4863 
L 1947 4863 
z
" transform="scale(0.015625)"/>
      </defs>
      <use xlink:href="#DejaVuSans-77"/>
      <use xlink:href="#DejaVuSans-61" x="81.787109"/>
      <use xlink:href="#DejaVuSans-76" x="143.066406"/>
      <use xlink:href="#DejaVuSans-65" x="202.246094"/>
      <use xlink:href="#DejaVuSans-6c" x="263.769531"/>
      <use xlink:href="#DejaVuSans-65" x="291.552734"/>
      <use xlink:href="#DejaVuSans-6e" x="353.076172"/>
      <use xlink:href="#DejaVuSans-67" x="416.455078"/>
      <use xlink:href="#DejaVuSans-74" x="479.931641"/>
      <use xlink:href="#DejaVuSans-68" x="519.140625"/>
      <use xlink:href="#DejaVuSans-20" x="582.519531"/>
      <use xlink:href="#DejaVuSans-5b" x="614.306641"/>
      <use xlink:href="#DejaVuSans-c5" x="653.320312"/>
      <use xlink:href="#DejaVuSans-5d" x="721.728516"/>
     </g>
    </g>
   </g>
   <g id="matplotlib.axis_2">
    <g id="ytick_1">
     <g id="line2d_10">
      <defs>
       <path id="m9c17646fdc" d="M 0 0 
L -3.5 0 
" style="stroke: #000000; stroke-width: 0.8"/>
      </defs>
      <g>
       <use xlink:href="#m9c17646fdc" x="50.14375" y="236.660094" style="stroke: #000000; stroke-width: 0.8"/>
      </g>
     </g>
     <g id="text_10">
      <!-- 0.50 -->
      <g transform="translate(20.878125 240.459312) scale(0.1 -0.1)">
       <defs>
        <path id="DejaVuSans-2e" d="M 684 794 
L 1344 794 
L 1344 0 
L 684 0 
L 684 794 
z
" transform="scale(0.015625)"/>
        <path id="DejaVuSans-35" d="M 691 4666 
L 3169 4666 
L 3169 4134 
L 1269 4134 
L 1269 2991 
Q 1406 3038 1543 3061 
Q 1681 3084 1819 3084 
Q 2600 3084 3056 2656 
Q 3513 2228 3513 1497 
Q 3513 744 3044 326 
Q 2575 -91 1722 -91 
Q 1428 -91 1123 -41 
Q 819 9 494 109 
L 494 744 
Q 775 591 1075 516 
Q 1375 441 1709 441 
Q 2250 441 2565 725 
Q 2881 1009 2881 1497 
Q 2881 1984 2565 2268 
Q 2250 2553 1709 2553 
Q 1456 2553 1204 2497 
Q 953 2441 691 2322 
L 691 4666 
z
" transform="scale(0.015625)"/>
       </defs>
       <use xlink:href="#DejaVuSans-30"/>
       <use xlink:href="#DejaVuSans-2e" x="63.623047"/>
       <use xlink:href="#DejaVuSans-35" x="95.410156"/>
       <use xlink:href="#DejaVuSans-30" x="159.033203"/>
      </g>
     </g>
    </g>
    <g id="ytick_2">
     <g id="line2d_11">
      <g>
       <use xlink:href="#m9c17646fdc" x="50.14375" y="195.568566" style="stroke: #000000; stroke-width: 0.8"/>
      </g>
     </g>
     <g id="text_11">
      <!-- 0.55 -->
      <g transform="translate(20.878125 199.367785) scale(0.1 -0.1)">
       <use xlink:href="#DejaVuSans-30"/>
       <use xlink:href="#DejaVuSans-2e" x="63.623047"/>
       <use xlink:href="#DejaVuSans-35" x="95.410156"/>
       <use xlink:href="#DejaVuSans-35" x="159.033203"/>
      </g>
     </g>
    </g>
    <g id="ytick_3">
     <g id="line2d_12">
      <g>
       <use xlink:href="#m9c17646fdc" x="50.14375" y="154.477039" style="stroke: #000000; stroke-width: 0.8"/>
      </g>
     </g>
     <g id="text_12">
      <!-- 0.60 -->
      <g transform="translate(20.878125 158.276258) scale(0.1 -0.1)">
       <use xlink:href="#DejaVuSans-30"/>
       <use xlink:href="#DejaVuSans-2e" x="63.623047"/>
       <use xlink:href="#DejaVuSans-36" x="95.410156"/>
       <use xlink:href="#DejaVuSans-30" x="159.033203"/>
      </g>
     </g>
    </g>
    <g id="ytick_4">
     <g id="line2d_13">
      <g>
       <use xlink:href="#m9c17646fdc" x="50.14375" y="113.385512" style="stroke: #000000; stroke-width: 0.8"/>
      </g>
     </g>
     <g id="text_13">
      <!-- 0.65 -->
      <g transform="translate(20.878125 117.184731) scale(0.1 -0.1)">
       <use xlink:href="#DejaVuSans-30"/>
       <use xlink:href="#DejaVuSans-2e" x="63.623047"/>
       <use xlink:href="#DejaVuSans-36" x="95.410156"/>
       <use xlink:href="#DejaVuSans-35" x="159.033203"/>
      </g>
     </g>
    </g>
    <g id="ytick_5">
     <g id="line2d_14">
      <g>
       <use xlink:href="#m9c17646fdc" x="50.14375" y="72.293985" style="stroke: #000000; stroke-width: 0.8"/>
      </g>
     </g>
     <g id="text_14">
      <!-- 0.70 -->
      <g transform="translate(20.878125 76.093204) scale(0.1 -0.1)">
       <defs>
        <path id="DejaVuSans-37" d="M 525 4666 
L 3525 4666 
L 3525 4397 
L 1831 0 
L 1172 0 
L 2766 4134 
L 525 4134 
L 525 4666 
z
" transform="scale(0.015625)"/>
       </defs>
       <use xlink:href="#DejaVuSans-30"/>
       <use xlink:href="#DejaVuSans-2e" x="63.623047"/>
       <use xlink:href="#DejaVuSans-37" x="95.410156"/>
       <use xlink:href="#DejaVuSans-30" x="159.033203"/>
      </g>
     </g>
    </g>
    <g id="ytick_6">
     <g id="line2d_15">
      <g>
       <use xlink:href="#m9c17646fdc" x="50.14375" y="31.202458" style="stroke: #000000; stroke-width: 0.8"/>
      </g>
     </g>
     <g id="text_15">
      <!-- 0.75 -->
      <g transform="translate(20.878125 35.001677) scale(0.1 -0.1)">
       <use xlink:href="#DejaVuSans-30"/>
       <use xlink:href="#DejaVuSans-2e" x="63.623047"/>
       <use xlink:href="#DejaVuSans-37" x="95.410156"/>
       <use xlink:href="#DejaVuSans-35" x="159.033203"/>
      </g>
     </g>
    </g>
    <g id="text_16">
     <!-- [dimensionless] -->
     <g transform="translate(14.798438 163.594219) rotate(-90) scale(0.1 -0.1)">
      <defs>
       <path id="DejaVuSans-64" d="M 2906 2969 
L 2906 4863 
L 3481 4863 
L 3481 0 
L 2906 0 
L 2906 525 
Q 2725 213 2448 61 
Q 2172 -91 1784 -91 
Q 1150 -91 751 415 
Q 353 922 353 1747 
Q 353 2572 751 3078 
Q 1150 3584 1784 3584 
Q 2172 3584 2448 3432 
Q 2725 3281 2906 2969 
z
M 947 1747 
Q 947 1113 1208 752 
Q 1469 391 1925 391 
Q 2381 391 2643 752 
Q 2906 1113 2906 1747 
Q 2906 2381 2643 2742 
Q 2381 3103 1925 3103 
Q 1469 3103 1208 2742 
Q 947 2381 947 1747 
z
" transform="scale(0.015625)"/>
       <path id="DejaVuSans-69" d="M 603 3500 
L 1178 3500 
L 1178 0 
L 603 0 
L 603 3500 
z
M 603 4863 
L 1178 4863 
L 1178 4134 
L 603 4134 
L 603 4863 
z
" transform="scale(0.015625)"/>
       <path id="DejaVuSans-6d" d="M 3328 2828 
Q 3544 3216 3844 3400 
Q 4144 3584 4550 3584 
Q 5097 3584 5394 3201 
Q 5691 2819 5691 2113 
L 5691 0 
L 5113 0 
L 5113 2094 
Q 5113 2597 4934 2840 
Q 4756 3084 4391 3084 
Q 3944 3084 3684 2787 
Q 3425 2491 3425 1978 
L 3425 0 
L 2847 0 
L 2847 2094 
Q 2847 2600 2669 2842 
Q 2491 3084 2119 3084 
Q 1678 3084 1418 2786 
Q 1159 2488 1159 1978 
L 1159 0 
L 581 0 
L 581 3500 
L 1159 3500 
L 1159 2956 
Q 1356 3278 1631 3431 
Q 1906 3584 2284 3584 
Q 2666 3584 2933 3390 
Q 3200 3197 3328 2828 
z
" transform="scale(0.015625)"/>
       <path id="DejaVuSans-73" d="M 2834 3397 
L 2834 2853 
Q 2591 2978 2328 3040 
Q 2066 3103 1784 3103 
Q 1356 3103 1142 2972 
Q 928 2841 928 2578 
Q 928 2378 1081 2264 
Q 1234 2150 1697 2047 
L 1894 2003 
Q 2506 1872 2764 1633 
Q 3022 1394 3022 966 
Q 3022 478 2636 193 
Q 2250 -91 1575 -91 
Q 1294 -91 989 -36 
Q 684 19 347 128 
L 347 722 
Q 666 556 975 473 
Q 1284 391 1588 391 
Q 1994 391 2212 530 
Q 2431 669 2431 922 
Q 2431 1156 2273 1281 
Q 2116 1406 1581 1522 
L 1381 1569 
Q 847 1681 609 1914 
Q 372 2147 372 2553 
Q 372 3047 722 3315 
Q 1072 3584 1716 3584 
Q 2034 3584 2315 3537 
Q 2597 3491 2834 3397 
z
" transform="scale(0.015625)"/>
       <path id="DejaVuSans-6f" d="M 1959 3097 
Q 1497 3097 1228 2736 
Q 959 2375 959 1747 
Q 959 1119 1226 758 
Q 1494 397 1959 397 
Q 2419 397 2687 759 
Q 2956 1122 2956 1747 
Q 2956 2369 2687 2733 
Q 2419 3097 1959 3097 
z
M 1959 3584 
Q 2709 3584 3137 3096 
Q 3566 2609 3566 1747 
Q 3566 888 3137 398 
Q 2709 -91 1959 -91 
Q 1206 -91 779 398 
Q 353 888 353 1747 
Q 353 2609 779 3096 
Q 1206 3584 1959 3584 
z
" transform="scale(0.015625)"/>
      </defs>
      <use xlink:href="#DejaVuSans-5b"/>
      <use xlink:href="#DejaVuSans-64" x="39.013672"/>
      <use xlink:href="#DejaVuSans-69" x="102.490234"/>
      <use xlink:href="#DejaVuSans-6d" x="130.273438"/>
      <use xlink:href="#DejaVuSans-65" x="227.685547"/>
      <use xlink:href="#DejaVuSans-6e" x="289.208984"/>
      <use xlink:href="#DejaVuSans-73" x="352.587891"/>
      <use xlink:href="#DejaVuSans-69" x="404.6875"/>
      <use xlink:href="#DejaVuSans-6f" x="432.470703"/>
      <use xlink:href="#DejaVuSans-6e" x="493.652344"/>
      <use xlink:href="#DejaVuSans-6c" x="557.03125"/>
      <use xlink:href="#DejaVuSans-65" x="584.814453"/>
      <use xlink:href="#DejaVuSans-73" x="646.337891"/>
      <use xlink:href="#DejaVuSans-73" x="698.4375"/>
      <use xlink:href="#DejaVuSans-5d" x="750.537109"/>
     </g>
    </g>
   </g>
   <g id="patch_3">
    <path d="M 50.14375 241.03375 
L 50.14375 7.2 
" style="fill: none; stroke: #000000; stroke-width: 0.8; stroke-linejoin: miter; stroke-linecap: square"/>
   </g>
   <g id="patch_4">
    <path d="M 417.14375 241.03375 
L 417.14375 7.2 
" style="fill: none; stroke: #000000; stroke-width: 0.8; stroke-linejoin: miter; stroke-linecap: square"/>
   </g>
   <g id="patch_5">
    <path d="M 50.14375 241.03375 
L 417.14375 241.03375 
" style="fill: none; stroke: #000000; stroke-width: 0.8; stroke-linejoin: miter; stroke-linecap: square"/>
   </g>
   <g id="patch_6">
    <path d="M 50.14375 7.2 
L 417.14375 7.2 
" style="fill: none; stroke: #000000; stroke-width: 0.8; stroke-linejoin: miter; stroke-linecap: square"/>
   </g>
   <g id="line2d_16">
    <path d="M 66.825568 19.764422 
L 69.208685 19.764422 
L 69.208685 17.828807 
L 71.591802 17.828807 
L 71.591802 23.430785 
L 73.974919 23.430785 
L 73.974919 21.522568 
L 76.358036 21.522568 
L 76.358036 25.79925 
L 78.741153 25.79925 
L 78.741153 29.626409 
L 81.124269 29.626409 
L 81.124269 28.908241 
L 83.507386 28.908241 
L 83.507386 30.664847 
L 85.890503 30.664847 
L 85.890503 33.38059 
L 88.27362 33.38059 
L 88.27362 34.805374 
L 90.656737 34.805374 
L 90.656737 35.909298 
L 93.039854 35.909298 
L 93.039854 40.200703 
L 95.422971 40.200703 
L 95.422971 40.879309 
L 97.806088 40.879309 
L 97.806088 42.537846 
L 100.189205 42.537846 
L 100.189205 49.465925 
L 102.572321 49.465925 
L 102.572321 51.048872 
L 104.955438 51.048872 
L 104.955438 53.679073 
L 109.721672 53.605494 
L 109.721672 58.51056 
L 112.104789 58.51056 
L 112.104789 59.510247 
L 114.487906 59.510247 
L 114.487906 60.227096 
L 116.871023 60.227096 
L 116.871023 63.235754 
L 119.25414 63.235754 
L 119.25414 63.563184 
L 121.637256 63.563184 
L 121.637256 66.276962 
L 124.020373 66.276962 
L 124.020373 65.25456 
L 126.40349 65.25456 
L 126.40349 69.802501 
L 128.786607 69.802501 
L 128.786607 69.327546 
L 131.169724 69.327546 
L 131.169724 74.321364 
L 133.552841 74.321364 
L 133.552841 75.81412 
L 135.935958 75.81412 
L 135.935958 80.810259 
L 138.319075 80.810259 
L 138.319075 81.386918 
L 140.702192 81.386918 
L 140.702192 80.975733 
L 143.085308 80.975733 
L 143.085308 83.728512 
L 145.468425 83.728512 
L 145.468425 88.192629 
L 147.851542 88.192629 
L 147.851542 92.45578 
L 150.234659 92.45578 
L 150.234659 92.608532 
L 152.617776 92.608532 
L 152.617776 96.593711 
L 155.000893 96.593711 
L 155.000893 94.644558 
L 157.38401 94.644558 
L 157.38401 98.890894 
L 159.767127 98.890894 
L 159.767127 93.495467 
L 162.150244 93.495467 
L 162.150244 98.050213 
L 164.53336 98.050213 
L 164.53336 101.168754 
L 166.916477 101.168754 
L 166.916477 103.271667 
L 169.299594 103.271667 
L 169.299594 107.744108 
L 171.682711 107.744108 
L 171.682711 105.195908 
L 174.065828 105.195908 
L 174.065828 109.180881 
L 176.448945 109.180881 
L 176.448945 112.065799 
L 178.832062 112.065799 
L 178.832062 111.005966 
L 181.215179 111.005966 
L 181.215179 120.248165 
L 183.598295 120.248165 
L 183.598295 117.317641 
L 185.981412 117.317641 
L 185.981412 111.518607 
L 188.364529 111.518607 
L 188.364529 118.431419 
L 190.747646 118.431419 
L 190.747646 120.178976 
L 193.130763 120.178976 
L 193.130763 118.621934 
L 195.51388 118.621934 
L 195.51388 117.351356 
L 197.896997 117.351356 
L 197.896997 123.746153 
L 200.280114 123.746153 
L 200.280114 122.455306 
L 202.663231 122.455306 
L 202.663231 113.584844 
L 205.046347 113.584844 
L 205.046347 121.602902 
L 207.429464 121.602902 
L 207.429464 125.559621 
L 209.812581 125.559621 
L 209.812581 118.962852 
L 212.195698 118.962852 
L 212.195698 125.259892 
L 214.578815 125.259892 
L 214.578815 126.255806 
L 216.961932 126.255806 
L 216.961932 122.080971 
L 219.345049 122.080971 
L 219.345049 130.633621 
L 221.728166 130.633621 
L 221.728166 133.992679 
L 224.111282 133.992679 
L 224.111282 128.031487 
L 226.494399 128.031487 
L 226.494399 136.039549 
L 228.877516 136.039549 
L 228.877516 132.990916 
L 231.260633 132.990916 
L 231.260633 132.002674 
L 233.64375 132.002674 
L 233.64375 129.239821 
L 236.026867 129.239821 
L 236.026867 129.917044 
L 238.409984 129.917044 
L 238.409984 134.454996 
L 240.793101 134.454996 
L 240.793101 133.356442 
L 243.176218 133.356442 
L 243.176218 135.615836 
L 245.559334 135.615836 
L 245.559334 130.95457 
L 247.942451 130.95457 
L 247.942451 139.00481 
L 250.325568 139.00481 
L 250.325568 131.073268 
L 252.708685 131.073268 
L 252.708685 131.579776 
L 255.091802 131.579776 
L 255.091802 139.356825 
L 257.474919 139.356825 
L 257.474919 138.643647 
L 259.858036 138.643647 
L 259.858036 136.454479 
L 262.241153 136.454479 
L 262.241153 154.599027 
L 264.624269 154.599027 
L 264.624269 143.825684 
L 267.007386 143.825684 
L 267.007386 143.620807 
L 269.390503 143.620807 
L 269.390503 149.56554 
L 271.77362 149.56554 
L 271.77362 142.186084 
L 274.156737 142.186084 
L 274.156737 155.125272 
L 276.539854 155.125272 
L 276.539854 146.646228 
L 278.922971 146.646228 
L 278.922971 149.329326 
L 281.306088 149.329326 
L 281.306088 157.290771 
L 283.689205 157.290771 
L 283.689205 153.995943 
L 286.072321 153.995943 
L 286.072321 156.984414 
L 288.455438 156.984414 
L 288.455438 152.151958 
L 290.838555 152.151958 
L 290.838555 149.744677 
L 293.221672 149.744677 
L 293.221672 164.608814 
L 295.604789 164.608814 
L 295.604789 152.32126 
L 297.987906 152.32126 
L 297.987906 173.873717 
L 300.371023 173.873717 
L 300.371023 169.847113 
L 302.75414 169.847113 
L 302.75414 165.484959 
L 305.137256 165.484959 
L 305.137256 165.751162 
L 307.520373 165.751162 
L 307.520373 163.581548 
L 309.90349 163.581548 
L 309.90349 170.841825 
L 312.286607 170.841825 
L 312.286607 182.563458 
L 314.669724 182.563458 
L 314.669724 180.222037 
L 317.052841 180.222037 
L 317.052841 173.247145 
L 319.435958 173.247145 
L 319.435958 179.350179 
L 321.819075 179.350179 
L 321.819075 167.88247 
L 324.202192 167.88247 
L 324.202192 171.065367 
L 326.585308 171.065367 
L 326.585308 168.239867 
L 328.968425 168.239867 
L 328.968425 182.210068 
L 331.351542 182.210068 
L 331.351542 178.656139 
L 333.734659 178.656139 
L 333.734659 175.977119 
L 336.117776 175.977119 
L 336.117776 180.682426 
L 338.500893 180.682426 
L 338.500893 185.8576 
L 340.88401 185.8576 
L 340.88401 192.987463 
L 343.267127 192.987463 
L 343.267127 196.953408 
L 345.650244 196.953408 
L 345.650244 192.044514 
L 348.03336 192.044514 
L 348.03336 196.579806 
L 350.416477 196.579806 
L 350.416477 196.726109 
L 352.799594 196.726109 
L 352.799594 210.147347 
L 355.182711 210.147347 
L 355.182711 207.522597 
L 357.565828 207.522597 
L 357.565828 201.263463 
L 359.948945 201.263463 
L 359.948945 193.337173 
L 362.332062 193.337173 
L 362.332062 207.416328 
L 364.715179 207.416328 
L 364.715179 205.171402 
L 367.098295 205.171402 
L 367.098295 218.036553 
L 369.481412 218.036553 
L 369.481412 197.658932 
L 371.864529 197.658932 
L 371.864529 215.30434 
L 374.247646 215.30434 
L 374.247646 210.363874 
L 376.630763 210.363874 
L 376.630763 210.852857 
L 379.01388 210.852857 
L 379.01388 201.964197 
L 381.396997 201.964197 
L 381.396997 213.704187 
L 383.780114 213.704187 
L 383.780114 220.142032 
L 386.163231 220.142032 
L 386.163231 213.858355 
L 388.546347 213.858355 
L 388.546347 230.404943 
L 390.929464 230.404943 
L 390.929464 216.518324 
L 393.312581 216.518324 
L 393.312581 220.005906 
L 395.695698 220.005906 
L 395.695698 218.413496 
L 398.078815 218.413496 
L 398.078815 202.139592 
L 400.461932 202.139592 
L 400.461932 202.139592 
" clip-path="url(#pbf31b51af6)" style="fill: none; stroke: #1f77b4; stroke-width: 1.5; stroke-linecap: square"/>
   </g>
   <g id="LineCollection_1">
    <path d="M 68.017127 22.201945 
L 68.017127 17.326899 
" clip-path="url(#pbf31b51af6)" style="fill: none; stroke: #1f77b4; stroke-width: 1.5"/>
    <path d="M 70.400244 20.027117 
L 70.400244 15.630497 
" clip-path="url(#pbf31b51af6)" style="fill: none; stroke: #1f77b4; stroke-width: 1.5"/>
    <path d="M 72.78336 25.390792 
L 72.78336 21.470778 
" clip-path="url(#pbf31b51af6)" style="fill: none; stroke: #1f77b4; stroke-width: 1.5"/>
    <path d="M 75.166477 23.316513 
L 75.166477 19.728622 
" clip-path="url(#pbf31b51af6)" style="fill: none; stroke: #1f77b4; stroke-width: 1.5"/>
    <path d="M 77.549594 27.458681 
L 77.549594 24.139818 
" clip-path="url(#pbf31b51af6)" style="fill: none; stroke: #1f77b4; stroke-width: 1.5"/>
    <path d="M 79.932711 31.202953 
L 79.932711 28.049866 
" clip-path="url(#pbf31b51af6)" style="fill: none; stroke: #1f77b4; stroke-width: 1.5"/>
    <path d="M 82.315828 30.46592 
L 82.315828 27.350561 
" clip-path="url(#pbf31b51af6)" style="fill: none; stroke: #1f77b4; stroke-width: 1.5"/>
    <path d="M 84.698945 32.224449 
L 84.698945 29.105246 
" clip-path="url(#pbf31b51af6)" style="fill: none; stroke: #1f77b4; stroke-width: 1.5"/>
    <path d="M 87.082062 34.911916 
L 87.082062 31.849263 
" clip-path="url(#pbf31b51af6)" style="fill: none; stroke: #1f77b4; stroke-width: 1.5"/>
    <path d="M 89.465179 36.326244 
L 89.465179 33.284503 
" clip-path="url(#pbf31b51af6)" style="fill: none; stroke: #1f77b4; stroke-width: 1.5"/>
    <path d="M 91.848295 37.431653 
L 91.848295 34.386944 
" clip-path="url(#pbf31b51af6)" style="fill: none; stroke: #1f77b4; stroke-width: 1.5"/>
    <path d="M 94.231412 41.723147 
L 94.231412 38.678259 
" clip-path="url(#pbf31b51af6)" style="fill: none; stroke: #1f77b4; stroke-width: 1.5"/>
    <path d="M 96.614529 42.414903 
L 96.614529 39.343716 
" clip-path="url(#pbf31b51af6)" style="fill: none; stroke: #1f77b4; stroke-width: 1.5"/>
    <path d="M 98.997646 44.08877 
L 98.997646 40.986923 
" clip-path="url(#pbf31b51af6)" style="fill: none; stroke: #1f77b4; stroke-width: 1.5"/>
    <path d="M 101.380763 51.024884 
L 101.380763 47.906967 
" clip-path="url(#pbf31b51af6)" style="fill: none; stroke: #1f77b4; stroke-width: 1.5"/>
    <path d="M 103.76388 52.649014 
L 103.76388 49.44873 
" clip-path="url(#pbf31b51af6)" style="fill: none; stroke: #1f77b4; stroke-width: 1.5"/>
    <path d="M 106.146997 55.326593 
L 106.146997 52.031553 
" clip-path="url(#pbf31b51af6)" style="fill: none; stroke: #1f77b4; stroke-width: 1.5"/>
    <path d="M 108.530114 55.258718 
L 108.530114 51.952269 
" clip-path="url(#pbf31b51af6)" style="fill: none; stroke: #1f77b4; stroke-width: 1.5"/>
    <path d="M 110.913231 60.162271 
L 110.913231 56.85885 
" clip-path="url(#pbf31b51af6)" style="fill: none; stroke: #1f77b4; stroke-width: 1.5"/>
    <path d="M 113.296347 61.185772 
L 113.296347 57.834721 
" clip-path="url(#pbf31b51af6)" style="fill: none; stroke: #1f77b4; stroke-width: 1.5"/>
    <path d="M 115.679464 61.923922 
L 115.679464 58.53027 
" clip-path="url(#pbf31b51af6)" style="fill: none; stroke: #1f77b4; stroke-width: 1.5"/>
    <path d="M 118.062581 64.933026 
L 118.062581 61.538482 
" clip-path="url(#pbf31b51af6)" style="fill: none; stroke: #1f77b4; stroke-width: 1.5"/>
    <path d="M 120.445698 65.278134 
L 120.445698 61.848234 
" clip-path="url(#pbf31b51af6)" style="fill: none; stroke: #1f77b4; stroke-width: 1.5"/>
    <path d="M 122.828815 68.000445 
L 122.828815 64.553479 
" clip-path="url(#pbf31b51af6)" style="fill: none; stroke: #1f77b4; stroke-width: 1.5"/>
    <path d="M 125.211932 67.000878 
L 125.211932 63.508242 
" clip-path="url(#pbf31b51af6)" style="fill: none; stroke: #1f77b4; stroke-width: 1.5"/>
    <path d="M 127.595049 71.564396 
L 127.595049 68.040605 
" clip-path="url(#pbf31b51af6)" style="fill: none; stroke: #1f77b4; stroke-width: 1.5"/>
    <path d="M 129.978166 71.122413 
L 129.978166 67.532679 
" clip-path="url(#pbf31b51af6)" style="fill: none; stroke: #1f77b4; stroke-width: 1.5"/>
    <path d="M 132.361282 76.124655 
L 132.361282 72.518074 
" clip-path="url(#pbf31b51af6)" style="fill: none; stroke: #1f77b4; stroke-width: 1.5"/>
    <path d="M 134.744399 77.651825 
L 134.744399 73.976415 
" clip-path="url(#pbf31b51af6)" style="fill: none; stroke: #1f77b4; stroke-width: 1.5"/>
    <path d="M 137.127516 82.673345 
L 137.127516 78.947173 
" clip-path="url(#pbf31b51af6)" style="fill: none; stroke: #1f77b4; stroke-width: 1.5"/>
    <path d="M 139.510633 83.290314 
L 139.510633 79.483521 
" clip-path="url(#pbf31b51af6)" style="fill: none; stroke: #1f77b4; stroke-width: 1.5"/>
    <path d="M 141.89375 82.925189 
L 141.89375 79.026276 
" clip-path="url(#pbf31b51af6)" style="fill: none; stroke: #1f77b4; stroke-width: 1.5"/>
    <path d="M 144.276867 85.715176 
L 144.276867 81.741847 
" clip-path="url(#pbf31b51af6)" style="fill: none; stroke: #1f77b4; stroke-width: 1.5"/>
    <path d="M 146.659984 90.208985 
L 146.659984 86.176273 
" clip-path="url(#pbf31b51af6)" style="fill: none; stroke: #1f77b4; stroke-width: 1.5"/>
    <path d="M 149.043101 94.508459 
L 149.043101 90.403101 
" clip-path="url(#pbf31b51af6)" style="fill: none; stroke: #1f77b4; stroke-width: 1.5"/>
    <path d="M 151.426218 94.710121 
L 151.426218 90.506943 
" clip-path="url(#pbf31b51af6)" style="fill: none; stroke: #1f77b4; stroke-width: 1.5"/>
    <path d="M 153.809334 98.729673 
L 153.809334 94.457749 
" clip-path="url(#pbf31b51af6)" style="fill: none; stroke: #1f77b4; stroke-width: 1.5"/>
    <path d="M 156.192451 96.842526 
L 156.192451 92.44659 
" clip-path="url(#pbf31b51af6)" style="fill: none; stroke: #1f77b4; stroke-width: 1.5"/>
    <path d="M 158.575568 101.124841 
L 158.575568 96.656947 
" clip-path="url(#pbf31b51af6)" style="fill: none; stroke: #1f77b4; stroke-width: 1.5"/>
    <path d="M 160.958685 95.80869 
L 160.958685 91.182245 
" clip-path="url(#pbf31b51af6)" style="fill: none; stroke: #1f77b4; stroke-width: 1.5"/>
    <path d="M 163.341802 100.400403 
L 163.341802 95.700024 
" clip-path="url(#pbf31b51af6)" style="fill: none; stroke: #1f77b4; stroke-width: 1.5"/>
    <path d="M 165.724919 103.561846 
L 165.724919 98.775662 
" clip-path="url(#pbf31b51af6)" style="fill: none; stroke: #1f77b4; stroke-width: 1.5"/>
    <path d="M 168.108036 105.716495 
L 168.108036 100.82684 
" clip-path="url(#pbf31b51af6)" style="fill: none; stroke: #1f77b4; stroke-width: 1.5"/>
    <path d="M 170.491153 110.225888 
L 170.491153 105.262327 
" clip-path="url(#pbf31b51af6)" style="fill: none; stroke: #1f77b4; stroke-width: 1.5"/>
    <path d="M 172.874269 107.752432 
L 172.874269 102.639384 
" clip-path="url(#pbf31b51af6)" style="fill: none; stroke: #1f77b4; stroke-width: 1.5"/>
    <path d="M 175.257386 111.782457 
L 175.257386 106.579304 
" clip-path="url(#pbf31b51af6)" style="fill: none; stroke: #1f77b4; stroke-width: 1.5"/>
    <path d="M 177.640503 114.714495 
L 177.640503 109.417103 
" clip-path="url(#pbf31b51af6)" style="fill: none; stroke: #1f77b4; stroke-width: 1.5"/>
    <path d="M 180.02362 113.723285 
L 180.02362 108.288646 
" clip-path="url(#pbf31b51af6)" style="fill: none; stroke: #1f77b4; stroke-width: 1.5"/>
    <path d="M 182.406737 122.98382 
L 182.406737 117.512509 
" clip-path="url(#pbf31b51af6)" style="fill: none; stroke: #1f77b4; stroke-width: 1.5"/>
    <path d="M 184.789854 120.132054 
L 184.789854 114.503228 
" clip-path="url(#pbf31b51af6)" style="fill: none; stroke: #1f77b4; stroke-width: 1.5"/>
    <path d="M 187.172971 114.427891 
L 187.172971 108.609323 
" clip-path="url(#pbf31b51af6)" style="fill: none; stroke: #1f77b4; stroke-width: 1.5"/>
    <path d="M 189.556088 121.37242 
L 189.556088 115.490418 
" clip-path="url(#pbf31b51af6)" style="fill: none; stroke: #1f77b4; stroke-width: 1.5"/>
    <path d="M 191.939205 123.175917 
L 191.939205 117.182034 
" clip-path="url(#pbf31b51af6)" style="fill: none; stroke: #1f77b4; stroke-width: 1.5"/>
    <path d="M 194.322321 121.697087 
L 194.322321 115.54678 
" clip-path="url(#pbf31b51af6)" style="fill: none; stroke: #1f77b4; stroke-width: 1.5"/>
    <path d="M 196.705438 120.499352 
L 196.705438 114.203359 
" clip-path="url(#pbf31b51af6)" style="fill: none; stroke: #1f77b4; stroke-width: 1.5"/>
    <path d="M 199.088555 126.936211 
L 199.088555 120.556095 
" clip-path="url(#pbf31b51af6)" style="fill: none; stroke: #1f77b4; stroke-width: 1.5"/>
    <path d="M 201.471672 125.7226 
L 201.471672 119.188013 
" clip-path="url(#pbf31b51af6)" style="fill: none; stroke: #1f77b4; stroke-width: 1.5"/>
    <path d="M 203.854789 116.977227 
L 203.854789 110.192461 
" clip-path="url(#pbf31b51af6)" style="fill: none; stroke: #1f77b4; stroke-width: 1.5"/>
    <path d="M 206.237906 125.015772 
L 206.237906 118.190032 
" clip-path="url(#pbf31b51af6)" style="fill: none; stroke: #1f77b4; stroke-width: 1.5"/>
    <path d="M 208.621023 129.018367 
L 208.621023 122.100876 
" clip-path="url(#pbf31b51af6)" style="fill: none; stroke: #1f77b4; stroke-width: 1.5"/>
    <path d="M 211.00414 122.536637 
L 211.00414 115.389067 
" clip-path="url(#pbf31b51af6)" style="fill: none; stroke: #1f77b4; stroke-width: 1.5"/>
    <path d="M 213.387256 128.872354 
L 213.387256 121.647429 
" clip-path="url(#pbf31b51af6)" style="fill: none; stroke: #1f77b4; stroke-width: 1.5"/>
    <path d="M 215.770373 129.93345 
L 215.770373 122.578161 
" clip-path="url(#pbf31b51af6)" style="fill: none; stroke: #1f77b4; stroke-width: 1.5"/>
    <path d="M 218.15349 125.864231 
L 218.15349 118.297711 
" clip-path="url(#pbf31b51af6)" style="fill: none; stroke: #1f77b4; stroke-width: 1.5"/>
    <path d="M 220.536607 134.431584 
L 220.536607 126.835657 
" clip-path="url(#pbf31b51af6)" style="fill: none; stroke: #1f77b4; stroke-width: 1.5"/>
    <path d="M 222.919724 137.843748 
L 222.919724 130.141609 
" clip-path="url(#pbf31b51af6)" style="fill: none; stroke: #1f77b4; stroke-width: 1.5"/>
    <path d="M 225.302841 132.008262 
L 225.302841 124.054713 
" clip-path="url(#pbf31b51af6)" style="fill: none; stroke: #1f77b4; stroke-width: 1.5"/>
    <path d="M 227.685958 140.03488 
L 227.685958 132.044218 
" clip-path="url(#pbf31b51af6)" style="fill: none; stroke: #1f77b4; stroke-width: 1.5"/>
    <path d="M 230.069075 137.091441 
L 230.069075 128.890392 
" clip-path="url(#pbf31b51af6)" style="fill: none; stroke: #1f77b4; stroke-width: 1.5"/>
    <path d="M 232.452192 136.189012 
L 232.452192 127.816336 
" clip-path="url(#pbf31b51af6)" style="fill: none; stroke: #1f77b4; stroke-width: 1.5"/>
    <path d="M 234.835308 133.527273 
L 234.835308 124.952369 
" clip-path="url(#pbf31b51af6)" style="fill: none; stroke: #1f77b4; stroke-width: 1.5"/>
    <path d="M 237.218425 134.284863 
L 237.218425 125.549225 
" clip-path="url(#pbf31b51af6)" style="fill: none; stroke: #1f77b4; stroke-width: 1.5"/>
    <path d="M 239.601542 138.865916 
L 239.601542 130.044075 
" clip-path="url(#pbf31b51af6)" style="fill: none; stroke: #1f77b4; stroke-width: 1.5"/>
    <path d="M 241.984659 137.860365 
L 241.984659 128.852518 
" clip-path="url(#pbf31b51af6)" style="fill: none; stroke: #1f77b4; stroke-width: 1.5"/>
    <path d="M 244.367776 140.194577 
L 244.367776 131.037096 
" clip-path="url(#pbf31b51af6)" style="fill: none; stroke: #1f77b4; stroke-width: 1.5"/>
    <path d="M 246.750893 135.662004 
L 246.750893 126.247136 
" clip-path="url(#pbf31b51af6)" style="fill: none; stroke: #1f77b4; stroke-width: 1.5"/>
    <path d="M 249.13401 143.720968 
L 249.13401 134.288652 
" clip-path="url(#pbf31b51af6)" style="fill: none; stroke: #1f77b4; stroke-width: 1.5"/>
    <path d="M 251.517127 135.950668 
L 251.517127 126.195868 
" clip-path="url(#pbf31b51af6)" style="fill: none; stroke: #1f77b4; stroke-width: 1.5"/>
    <path d="M 253.900244 136.560637 
L 253.900244 126.598915 
" clip-path="url(#pbf31b51af6)" style="fill: none; stroke: #1f77b4; stroke-width: 1.5"/>
    <path d="M 256.28336 144.353262 
L 256.28336 134.360389 
" clip-path="url(#pbf31b51af6)" style="fill: none; stroke: #1f77b4; stroke-width: 1.5"/>
    <path d="M 258.666477 143.729963 
L 258.666477 133.557331 
" clip-path="url(#pbf31b51af6)" style="fill: none; stroke: #1f77b4; stroke-width: 1.5"/>
    <path d="M 261.049594 141.666378 
L 261.049594 131.242581 
" clip-path="url(#pbf31b51af6)" style="fill: none; stroke: #1f77b4; stroke-width: 1.5"/>
    <path d="M 263.432711 159.731678 
L 263.432711 149.466375 
" clip-path="url(#pbf31b51af6)" style="fill: none; stroke: #1f77b4; stroke-width: 1.5"/>
    <path d="M 265.815828 149.158141 
L 265.815828 138.493228 
" clip-path="url(#pbf31b51af6)" style="fill: none; stroke: #1f77b4; stroke-width: 1.5"/>
    <path d="M 268.198945 149.038354 
L 268.198945 138.20326 
" clip-path="url(#pbf31b51af6)" style="fill: none; stroke: #1f77b4; stroke-width: 1.5"/>
    <path d="M 270.582062 155.027128 
L 270.582062 144.103952 
" clip-path="url(#pbf31b51af6)" style="fill: none; stroke: #1f77b4; stroke-width: 1.5"/>
    <path d="M 272.965179 147.825108 
L 272.965179 136.547059 
" clip-path="url(#pbf31b51af6)" style="fill: none; stroke: #1f77b4; stroke-width: 1.5"/>
    <path d="M 275.348295 160.726503 
L 275.348295 149.524042 
" clip-path="url(#pbf31b51af6)" style="fill: none; stroke: #1f77b4; stroke-width: 1.5"/>
    <path d="M 277.731412 152.441208 
L 277.731412 140.851248 
" clip-path="url(#pbf31b51af6)" style="fill: none; stroke: #1f77b4; stroke-width: 1.5"/>
    <path d="M 280.114529 155.192006 
L 280.114529 143.466646 
" clip-path="url(#pbf31b51af6)" style="fill: none; stroke: #1f77b4; stroke-width: 1.5"/>
    <path d="M 282.497646 163.147584 
L 282.497646 151.433958 
" clip-path="url(#pbf31b51af6)" style="fill: none; stroke: #1f77b4; stroke-width: 1.5"/>
    <path d="M 284.880763 159.997403 
L 284.880763 147.994483 
" clip-path="url(#pbf31b51af6)" style="fill: none; stroke: #1f77b4; stroke-width: 1.5"/>
    <path d="M 287.26388 163.068288 
L 287.26388 150.90054 
" clip-path="url(#pbf31b51af6)" style="fill: none; stroke: #1f77b4; stroke-width: 1.5"/>
    <path d="M 289.646997 158.398269 
L 289.646997 145.905646 
" clip-path="url(#pbf31b51af6)" style="fill: none; stroke: #1f77b4; stroke-width: 1.5"/>
    <path d="M 292.030114 156.107349 
L 292.030114 143.382005 
" clip-path="url(#pbf31b51af6)" style="fill: none; stroke: #1f77b4; stroke-width: 1.5"/>
    <path d="M 294.413231 170.90742 
L 294.413231 158.310209 
" clip-path="url(#pbf31b51af6)" style="fill: none; stroke: #1f77b4; stroke-width: 1.5"/>
    <path d="M 296.796347 158.874202 
L 296.796347 145.768317 
" clip-path="url(#pbf31b51af6)" style="fill: none; stroke: #1f77b4; stroke-width: 1.5"/>
    <path d="M 299.179464 180.277093 
L 299.179464 167.47034 
" clip-path="url(#pbf31b51af6)" style="fill: none; stroke: #1f77b4; stroke-width: 1.5"/>
    <path d="M 301.562581 176.407936 
L 301.562581 163.286291 
" clip-path="url(#pbf31b51af6)" style="fill: none; stroke: #1f77b4; stroke-width: 1.5"/>
    <path d="M 303.945698 172.215455 
L 303.945698 158.754463 
" clip-path="url(#pbf31b51af6)" style="fill: none; stroke: #1f77b4; stroke-width: 1.5"/>
    <path d="M 306.328815 172.600748 
L 306.328815 158.901575 
" clip-path="url(#pbf31b51af6)" style="fill: none; stroke: #1f77b4; stroke-width: 1.5"/>
    <path d="M 308.711932 170.553791 
L 308.711932 156.609306 
" clip-path="url(#pbf31b51af6)" style="fill: none; stroke: #1f77b4; stroke-width: 1.5"/>
    <path d="M 311.095049 177.842286 
L 311.095049 163.841364 
" clip-path="url(#pbf31b51af6)" style="fill: none; stroke: #1f77b4; stroke-width: 1.5"/>
    <path d="M 313.478166 189.49446 
L 313.478166 175.632457 
" clip-path="url(#pbf31b51af6)" style="fill: none; stroke: #1f77b4; stroke-width: 1.5"/>
    <path d="M 315.861282 187.316753 
L 315.861282 173.127322 
" clip-path="url(#pbf31b51af6)" style="fill: none; stroke: #1f77b4; stroke-width: 1.5"/>
    <path d="M 318.244399 180.566112 
L 318.244399 165.928178 
" clip-path="url(#pbf31b51af6)" style="fill: none; stroke: #1f77b4; stroke-width: 1.5"/>
    <path d="M 320.627516 186.687822 
L 320.627516 172.012536 
" clip-path="url(#pbf31b51af6)" style="fill: none; stroke: #1f77b4; stroke-width: 1.5"/>
    <path d="M 323.010633 175.525851 
L 323.010633 160.23909 
" clip-path="url(#pbf31b51af6)" style="fill: none; stroke: #1f77b4; stroke-width: 1.5"/>
    <path d="M 325.39375 178.803469 
L 325.39375 163.327265 
" clip-path="url(#pbf31b51af6)" style="fill: none; stroke: #1f77b4; stroke-width: 1.5"/>
    <path d="M 327.776867 176.098554 
L 327.776867 160.381181 
" clip-path="url(#pbf31b51af6)" style="fill: none; stroke: #1f77b4; stroke-width: 1.5"/>
    <path d="M 330.159984 189.972411 
L 330.159984 174.447725 
" clip-path="url(#pbf31b51af6)" style="fill: none; stroke: #1f77b4; stroke-width: 1.5"/>
    <path d="M 332.543101 186.569765 
L 332.543101 170.742513 
" clip-path="url(#pbf31b51af6)" style="fill: none; stroke: #1f77b4; stroke-width: 1.5"/>
    <path d="M 334.926218 184.096373 
L 334.926218 167.857866 
" clip-path="url(#pbf31b51af6)" style="fill: none; stroke: #1f77b4; stroke-width: 1.5"/>
    <path d="M 337.309334 188.877192 
L 337.309334 172.487659 
" clip-path="url(#pbf31b51af6)" style="fill: none; stroke: #1f77b4; stroke-width: 1.5"/>
    <path d="M 339.692451 194.072724 
L 339.692451 177.642477 
" clip-path="url(#pbf31b51af6)" style="fill: none; stroke: #1f77b4; stroke-width: 1.5"/>
    <path d="M 342.075568 201.203867 
L 342.075568 184.771059 
" clip-path="url(#pbf31b51af6)" style="fill: none; stroke: #1f77b4; stroke-width: 1.5"/>
    <path d="M 344.458685 205.211271 
L 344.458685 188.695545 
" clip-path="url(#pbf31b51af6)" style="fill: none; stroke: #1f77b4; stroke-width: 1.5"/>
    <path d="M 346.841802 200.550522 
L 346.841802 183.538505 
" clip-path="url(#pbf31b51af6)" style="fill: none; stroke: #1f77b4; stroke-width: 1.5"/>
    <path d="M 349.224919 205.170471 
L 349.224919 187.989141 
" clip-path="url(#pbf31b51af6)" style="fill: none; stroke: #1f77b4; stroke-width: 1.5"/>
    <path d="M 351.608036 205.397315 
L 351.608036 188.054903 
" clip-path="url(#pbf31b51af6)" style="fill: none; stroke: #1f77b4; stroke-width: 1.5"/>
    <path d="M 353.991153 218.725456 
L 353.991153 201.569238 
" clip-path="url(#pbf31b51af6)" style="fill: none; stroke: #1f77b4; stroke-width: 1.5"/>
    <path d="M 356.374269 216.263789 
L 356.374269 198.781406 
" clip-path="url(#pbf31b51af6)" style="fill: none; stroke: #1f77b4; stroke-width: 1.5"/>
    <path d="M 358.757386 210.274363 
L 358.757386 192.252564 
" clip-path="url(#pbf31b51af6)" style="fill: none; stroke: #1f77b4; stroke-width: 1.5"/>
    <path d="M 361.140503 202.6516 
L 361.140503 184.022745 
" clip-path="url(#pbf31b51af6)" style="fill: none; stroke: #1f77b4; stroke-width: 1.5"/>
    <path d="M 363.52362 216.575096 
L 363.52362 198.257561 
" clip-path="url(#pbf31b51af6)" style="fill: none; stroke: #1f77b4; stroke-width: 1.5"/>
    <path d="M 365.906737 214.525701 
L 365.906737 195.817103 
" clip-path="url(#pbf31b51af6)" style="fill: none; stroke: #1f77b4; stroke-width: 1.5"/>
    <path d="M 368.289854 227.245744 
L 368.289854 208.827362 
" clip-path="url(#pbf31b51af6)" style="fill: none; stroke: #1f77b4; stroke-width: 1.5"/>
    <path d="M 370.672971 207.435459 
L 370.672971 187.882404 
" clip-path="url(#pbf31b51af6)" style="fill: none; stroke: #1f77b4; stroke-width: 1.5"/>
    <path d="M 373.056088 224.863974 
L 373.056088 205.744705 
" clip-path="url(#pbf31b51af6)" style="fill: none; stroke: #1f77b4; stroke-width: 1.5"/>
    <path d="M 375.439205 220.153251 
L 375.439205 200.574497 
" clip-path="url(#pbf31b51af6)" style="fill: none; stroke: #1f77b4; stroke-width: 1.5"/>
    <path d="M 377.822321 220.814713 
L 377.822321 200.891001 
" clip-path="url(#pbf31b51af6)" style="fill: none; stroke: #1f77b4; stroke-width: 1.5"/>
    <path d="M 380.205438 212.263231 
L 380.205438 191.665163 
" clip-path="url(#pbf31b51af6)" style="fill: none; stroke: #1f77b4; stroke-width: 1.5"/>
    <path d="M 382.588555 223.895082 
L 382.588555 203.513292 
" clip-path="url(#pbf31b51af6)" style="fill: none; stroke: #1f77b4; stroke-width: 1.5"/>
    <path d="M 384.971672 230.290131 
L 384.971672 209.993933 
" clip-path="url(#pbf31b51af6)" style="fill: none; stroke: #1f77b4; stroke-width: 1.5"/>
    <path d="M 387.354789 224.381185 
L 387.354789 203.335524 
" clip-path="url(#pbf31b51af6)" style="fill: none; stroke: #1f77b4; stroke-width: 1.5"/>
    <path d="M 389.737906 240.637004 
L 389.737906 220.172883 
" clip-path="url(#pbf31b51af6)" style="fill: none; stroke: #1f77b4; stroke-width: 1.5"/>
    <path d="M 392.121023 227.226262 
L 392.121023 205.810386 
" clip-path="url(#pbf31b51af6)" style="fill: none; stroke: #1f77b4; stroke-width: 1.5"/>
    <path d="M 394.50414 230.778051 
L 394.50414 209.233761 
" clip-path="url(#pbf31b51af6)" style="fill: none; stroke: #1f77b4; stroke-width: 1.5"/>
    <path d="M 396.887256 229.469028 
L 396.887256 207.357965 
" clip-path="url(#pbf31b51af6)" style="fill: none; stroke: #1f77b4; stroke-width: 1.5"/>
    <path d="M 399.270373 213.727283 
L 399.270373 190.551901 
" clip-path="url(#pbf31b51af6)" style="fill: none; stroke: #1f77b4; stroke-width: 1.5"/>
   </g>
  </g>
 </g>
 <defs>
  <clipPath id="pbf31b51af6">
   <rect x="50.14375" y="7.2" width="367" height="233.83375"/>
  </clipPath>
 </defs>
</svg>
