<?xml version="1.0" encoding="UTF-8" standalone="no"?>
<!DOCTYPE svg PUBLIC "-//W3C//DTD SVG 1.1//EN"
 "http://www.w3.org/Graphics/SVG/1.1/DTD/svg11.dtd">
<!-- Generated by graphviz version 9.0.0 (20231125.0833)
 -->
<!-- Pages: 1 -->
<svg width="622pt" height="401pt"
 viewBox="0.00 0.00 621.50 400.75" xmlns="http://www.w3.org/2000/svg" xmlns:xlink="http://www.w3.org/1999/xlink">
<g id="graph0" class="graph" transform="scale(1 1) rotate(0) translate(4 396.75)">
<polygon fill="white" stroke="none" points="-4,4 -4,-396.75 617.5,-396.75 617.5,4 -4,4"/>
<!-- source_position -->
<g id="node1" class="node">
<title>source_position</title>
<polygon fill="none" stroke="black" points="308,-392.75 181,-392.75 181,-367.5 308,-367.5 308,-392.75"/>
<text text-anchor="middle" x="244.5" y="-375.45" font-family="Times,serif" font-size="14.00">source_position</text>
</g>
<!-- incident_beam -->
<g id="node2" class="node">
<title>incident_beam</title>
<polygon fill="none" stroke="black" points="358.25,-331.5 238.75,-331.5 238.75,-306.25 358.25,-306.25 358.25,-331.5"/>
<text text-anchor="middle" x="298.5" y="-314.2" font-family="Times,serif" font-size="14.00">incident_beam</text>
</g>
<!-- source_position&#45;&gt;incident_beam -->
<g id="edge1" class="edge">
<title>source_position&#45;&gt;incident_beam</title>
<path fill="none" stroke="black" d="M255.43,-367.13C262.45,-359.43 271.76,-349.21 279.93,-340.25"/>
<polygon fill="black" stroke="black" points="282.42,-342.71 286.57,-332.97 277.25,-338 282.42,-342.71"/>
</g>
<!-- L1 -->
<g id="node6" class="node">
<title>L1</title>
<polygon fill="none" stroke="black" points="325.5,-270.25 271.5,-270.25 271.5,-245 325.5,-245 325.5,-270.25"/>
<text text-anchor="middle" x="298.5" y="-252.95" font-family="Times,serif" font-size="14.00">L1</text>
</g>
<!-- incident_beam&#45;&gt;L1 -->
<g id="edge5" class="edge">
<title>incident_beam&#45;&gt;L1</title>
<path fill="none" stroke="black" d="M298.5,-305.88C298.5,-298.98 298.5,-290.06 298.5,-281.84"/>
<polygon fill="black" stroke="black" points="302,-282.11 298.5,-272.11 295,-282.11 302,-282.11"/>
</g>
<!-- two_theta -->
<g id="node8" class="node">
<title>two_theta</title>
<polygon fill="none" stroke="black" points="429.75,-270.25 343.25,-270.25 343.25,-245 429.75,-245 429.75,-270.25"/>
<text text-anchor="middle" x="386.5" y="-252.95" font-family="Times,serif" font-size="14.00">two_theta</text>
</g>
<!-- incident_beam&#45;&gt;two_theta -->
<g id="edge7" class="edge">
<title>incident_beam&#45;&gt;two_theta</title>
<path fill="none" stroke="black" d="M316.31,-305.88C328.71,-297.53 345.48,-286.24 359.52,-276.79"/>
<polygon fill="black" stroke="black" points="361.12,-279.93 367.46,-271.44 357.21,-274.12 361.12,-279.93"/>
</g>
<!-- theta -->
<g id="node13" class="node">
<title>theta</title>
<polygon fill="none" stroke="black" points="376.5,-86.5 322.5,-86.5 322.5,-61.25 376.5,-61.25 376.5,-86.5"/>
<text text-anchor="middle" x="349.5" y="-69.2" font-family="Times,serif" font-size="14.00">theta</text>
</g>
<!-- incident_beam&#45;&gt;theta -->
<g id="edge15" class="edge">
<title>incident_beam&#45;&gt;theta</title>
<path fill="none" stroke="black" d="M285.87,-305.88C277.45,-296.96 267.11,-284.01 262.5,-270.25 258.93,-259.61 259.87,-255.91 262.5,-245 276.39,-187.34 313.31,-127.24 334.32,-96.23"/>
<polygon fill="black" stroke="black" points="337.12,-98.34 339.92,-88.12 331.36,-94.36 337.12,-98.34"/>
</g>
<!-- sample_position -->
<g id="node3" class="node">
<title>sample_position</title>
<polygon fill="none" stroke="black" points="456.88,-392.75 326.12,-392.75 326.12,-367.5 456.88,-367.5 456.88,-392.75"/>
<text text-anchor="middle" x="391.5" y="-375.45" font-family="Times,serif" font-size="14.00">sample_position</text>
</g>
<!-- sample_position&#45;&gt;incident_beam -->
<g id="edge2" class="edge">
<title>sample_position&#45;&gt;incident_beam</title>
<path fill="none" stroke="black" d="M372.68,-367.13C359.44,-358.7 341.5,-347.27 326.58,-337.77"/>
<polygon fill="black" stroke="black" points="328.88,-335.08 318.57,-332.66 325.12,-340.99 328.88,-335.08"/>
</g>
<!-- scattered_beam -->
<g id="node5" class="node">
<title>scattered_beam</title>
<polygon fill="none" stroke="black" points="522.12,-331.5 392.88,-331.5 392.88,-306.25 522.12,-306.25 522.12,-331.5"/>
<text text-anchor="middle" x="457.5" y="-314.2" font-family="Times,serif" font-size="14.00">scattered_beam</text>
</g>
<!-- sample_position&#45;&gt;scattered_beam -->
<g id="edge4" class="edge">
<title>sample_position&#45;&gt;scattered_beam</title>
<path fill="none" stroke="black" d="M404.86,-367.13C413.71,-359.18 425.54,-348.57 435.74,-339.41"/>
<polygon fill="black" stroke="black" points="437.93,-342.14 443.04,-332.86 433.26,-336.93 437.93,-342.14"/>
</g>
<!-- position -->
<g id="node4" class="node">
<title>position</title>
<polygon fill="none" stroke="black" points="548,-392.75 475,-392.75 475,-367.5 548,-367.5 548,-392.75"/>
<text text-anchor="middle" x="511.5" y="-375.45" font-family="Times,serif" font-size="14.00">position</text>
</g>
<!-- position&#45;&gt;scattered_beam -->
<g id="edge3" class="edge">
<title>position&#45;&gt;scattered_beam</title>
<path fill="none" stroke="black" d="M500.57,-367.13C493.55,-359.43 484.24,-349.21 476.07,-340.25"/>
<polygon fill="black" stroke="black" points="478.75,-338 469.43,-332.97 473.58,-342.71 478.75,-338"/>
</g>
<!-- L2 -->
<g id="node7" class="node">
<title>L2</title>
<polygon fill="none" stroke="black" points="539.5,-270.25 485.5,-270.25 485.5,-245 539.5,-245 539.5,-270.25"/>
<text text-anchor="middle" x="512.5" y="-252.95" font-family="Times,serif" font-size="14.00">L2</text>
</g>
<!-- scattered_beam&#45;&gt;L2 -->
<g id="edge6" class="edge">
<title>scattered_beam&#45;&gt;L2</title>
<path fill="none" stroke="black" d="M468.63,-305.88C475.79,-298.18 485.27,-287.96 493.59,-279"/>
<polygon fill="black" stroke="black" points="496.12,-281.42 500.36,-271.71 490.99,-276.65 496.12,-281.42"/>
</g>
<!-- scattered_beam&#45;&gt;two_theta -->
<g id="edge8" class="edge">
<title>scattered_beam&#45;&gt;two_theta</title>
<path fill="none" stroke="black" d="M443.13,-305.88C433.51,-297.85 420.63,-287.1 409.58,-277.89"/>
<polygon fill="black" stroke="black" points="411.93,-275.29 402.01,-271.57 407.44,-280.66 411.93,-275.29"/>
</g>
<!-- scattered_beam&#45;&gt;theta -->
<g id="edge16" class="edge">
<title>scattered_beam&#45;&gt;theta</title>
<path fill="none" stroke="black" d="M455.27,-306.01C452.33,-291.37 446.55,-265.86 438.5,-245 416.92,-189.13 381.79,-127.87 362.76,-96.32"/>
<polygon fill="black" stroke="black" points="365.94,-94.82 357.75,-88.1 359.97,-98.46 365.94,-94.82"/>
</g>
<!-- Ltotal -->
<g id="node9" class="node">
<title>Ltotal</title>
<polygon fill="none" stroke="black" points="541.5,-209 483.5,-209 483.5,-183.75 541.5,-183.75 541.5,-209"/>
<text text-anchor="middle" x="512.5" y="-191.7" font-family="Times,serif" font-size="14.00">Ltotal</text>
</g>
<!-- L1&#45;&gt;Ltotal -->
<g id="edge9" class="edge">
<title>L1&#45;&gt;Ltotal</title>
<path fill="none" stroke="black" d="M325.97,-247.59C328.85,-246.7 331.73,-245.82 334.5,-245 381.43,-231.15 435.82,-216.85 472,-207.58"/>
<polygon fill="black" stroke="black" points="472.79,-211 481.61,-205.13 471.06,-204.21 472.79,-211"/>
</g>
<!-- L2&#45;&gt;Ltotal -->
<g id="edge10" class="edge">
<title>L2&#45;&gt;Ltotal</title>
<path fill="none" stroke="black" d="M512.5,-244.63C512.5,-237.73 512.5,-228.81 512.5,-220.59"/>
<polygon fill="black" stroke="black" points="516,-220.86 512.5,-210.86 509,-220.86 516,-220.86"/>
</g>
<!-- wavelength -->
<g id="node11" class="node">
<title>wavelength</title>
<polygon fill="none" stroke="black" points="581.75,-147.75 483.25,-147.75 483.25,-122.5 581.75,-122.5 581.75,-147.75"/>
<text text-anchor="middle" x="532.5" y="-130.45" font-family="Times,serif" font-size="14.00">wavelength</text>
</g>
<!-- Ltotal&#45;&gt;wavelength -->
<g id="edge12" class="edge">
<title>Ltotal&#45;&gt;wavelength</title>
<path fill="none" stroke="black" d="M516.55,-183.38C518.93,-176.32 522.03,-167.15 524.86,-158.76"/>
<polygon fill="black" stroke="black" points="528.09,-160.13 527.97,-149.53 521.46,-157.89 528.09,-160.13"/>
</g>
<!-- tof -->
<g id="node10" class="node">
<title>tof</title>
<polygon fill="none" stroke="black" points="613.5,-209 559.5,-209 559.5,-183.75 613.5,-183.75 613.5,-209"/>
<text text-anchor="middle" x="586.5" y="-191.7" font-family="Times,serif" font-size="14.00">tof</text>
</g>
<!-- tof&#45;&gt;wavelength -->
<g id="edge11" class="edge">
<title>tof&#45;&gt;wavelength</title>
<path fill="none" stroke="black" d="M575.57,-183.38C568.55,-175.68 559.24,-165.46 551.07,-156.5"/>
<polygon fill="black" stroke="black" points="553.75,-154.25 544.43,-149.22 548.58,-158.96 553.75,-154.25"/>
</g>
<!-- wavelength&#45;&gt;theta -->
<g id="edge14" class="edge">
<title>wavelength&#45;&gt;theta</title>
<path fill="none" stroke="black" d="M495.47,-122.13C464.08,-111.97 419.24,-97.45 387.56,-87.2"/>
<polygon fill="black" stroke="black" points="388.98,-83.98 378.39,-84.23 386.82,-90.64 388.98,-83.98"/>
</g>
<!-- Q -->
<g id="node15" class="node">
<title>Q</title>
<polygon fill="none" stroke="black" points="403.5,-25.25 349.5,-25.25 349.5,0 403.5,0 403.5,-25.25"/>
<text text-anchor="middle" x="376.5" y="-7.95" font-family="Times,serif" font-size="14.00">Q</text>
</g>
<!-- wavelength&#45;&gt;Q -->
<g id="edge18" class="edge">
<title>wavelength&#45;&gt;Q</title>
<path fill="none" stroke="black" d="M516.97,-122.13C489.76,-101.11 433.26,-57.47 400.82,-32.41"/>
<polygon fill="black" stroke="black" points="403.22,-29.84 393.16,-26.5 398.94,-35.38 403.22,-29.84"/>
</g>
<!-- gravity -->
<g id="node12" class="node">
<title>gravity</title>
<polygon fill="none" stroke="black" points="67,-147.75 0,-147.75 0,-122.5 67,-122.5 67,-147.75"/>
<text text-anchor="middle" x="33.5" y="-130.45" font-family="Times,serif" font-size="14.00">gravity</text>
</g>
<!-- gravity&#45;&gt;theta -->
<g id="edge13" class="edge">
<title>gravity&#45;&gt;theta</title>
<path fill="none" stroke="black" d="M67.23,-124.69C70.35,-123.91 73.48,-123.17 76.5,-122.5 159.47,-104.09 257.91,-88.41 310.98,-80.46"/>
<polygon fill="black" stroke="black" points="311.34,-83.94 320.72,-79.01 310.31,-77.02 311.34,-83.94"/>
</g>
<!-- theta&#45;&gt;Q -->
<g id="edge19" class="edge">
<title>theta&#45;&gt;Q</title>
<path fill="none" stroke="black" d="M354.96,-60.88C358.22,-53.74 362.46,-44.44 366.31,-35.98"/>
<polygon fill="black" stroke="black" points="369.45,-37.53 370.42,-26.97 363.08,-34.62 369.45,-37.53"/>
</g>
<!-- sample_rotation -->
<g id="node14" class="node">
<title>sample_rotation</title>
<polygon fill="none" stroke="black" points="215.88,-147.75 85.12,-147.75 85.12,-122.5 215.88,-122.5 215.88,-147.75"/>
<text text-anchor="middle" x="150.5" y="-130.45" font-family="Times,serif" font-size="14.00">sample_rotation</text>
</g>
<!-- sample_rotation&#45;&gt;theta -->
<g id="edge17" class="edge">
<title>sample_rotation&#45;&gt;theta</title>
<path fill="none" stroke="black" d="M190.77,-122.13C226.02,-111.64 276.87,-96.5 311.45,-86.2"/>
<polygon fill="black" stroke="black" points="312.03,-89.68 320.61,-83.48 310.03,-82.97 312.03,-89.68"/>
</g>
</g>
</svg>
