<?xml version="1.0" encoding="UTF-8" standalone="no"?>
<!DOCTYPE svg PUBLIC "-//W3C//DTD SVG 1.1//EN"
 "http://www.w3.org/Graphics/SVG/1.1/DTD/svg11.dtd">
<!-- Generated by graphviz version 9.0.0 (20231125.0833)
 -->
<!-- Pages: 1 -->
<svg width="232pt" height="156pt"
 viewBox="0.00 0.00 231.50 155.75" xmlns="http://www.w3.org/2000/svg" xmlns:xlink="http://www.w3.org/1999/xlink">
<g id="graph0" class="graph" transform="scale(1 1) rotate(0) translate(4 151.75)">
<polygon fill="white" stroke="none" points="-4,4 -4,-151.75 227.5,-151.75 227.5,4 -4,4"/>
<!-- source_position -->
<g id="node1" class="node">
<title>source_position</title>
<polygon fill="none" stroke="black" points="127,-147.75 0,-147.75 0,-122.5 127,-122.5 127,-147.75"/>
<text text-anchor="middle" x="63.5" y="-130.45" font-family="Times,serif" font-size="14.00">source_position</text>
</g>
<!-- Ltotal -->
<g id="node2" class="node">
<title>Ltotal</title>
<polygon fill="none" stroke="black" points="151.5,-86.5 93.5,-86.5 93.5,-61.25 151.5,-61.25 151.5,-86.5"/>
<text text-anchor="middle" x="122.5" y="-69.2" font-family="Times,serif" font-size="14.00">Ltotal</text>
</g>
<!-- source_position&#45;&gt;Ltotal -->
<g id="edge1" class="edge">
<title>source_position&#45;&gt;Ltotal</title>
<path fill="none" stroke="black" d="M75.44,-122.13C83.2,-114.34 93.5,-104 102.49,-94.97"/>
<polygon fill="black" stroke="black" points="104.93,-97.48 109.51,-87.92 99.97,-92.54 104.93,-97.48"/>
</g>
<!-- wavelength -->
<g id="node5" class="node">
<title>wavelength</title>
<polygon fill="none" stroke="black" points="208.75,-25.25 110.25,-25.25 110.25,0 208.75,0 208.75,-25.25"/>
<text text-anchor="middle" x="159.5" y="-7.95" font-family="Times,serif" font-size="14.00">wavelength</text>
</g>
<!-- Ltotal&#45;&gt;wavelength -->
<g id="edge4" class="edge">
<title>Ltotal&#45;&gt;wavelength</title>
<path fill="none" stroke="black" d="M129.99,-60.88C134.6,-53.5 140.65,-43.81 146.07,-35.13"/>
<polygon fill="black" stroke="black" points="148.89,-37.22 151.22,-26.88 142.96,-33.51 148.89,-37.22"/>
</g>
<!-- position -->
<g id="node3" class="node">
<title>position</title>
<polygon fill="none" stroke="black" points="218,-147.75 145,-147.75 145,-122.5 218,-122.5 218,-147.75"/>
<text text-anchor="middle" x="181.5" y="-130.45" font-family="Times,serif" font-size="14.00">position</text>
</g>
<!-- position&#45;&gt;Ltotal -->
<g id="edge2" class="edge">
<title>position&#45;&gt;Ltotal</title>
<path fill="none" stroke="black" d="M169.56,-122.13C161.8,-114.34 151.5,-104 142.51,-94.97"/>
<polygon fill="black" stroke="black" points="145.03,-92.54 135.49,-87.92 140.07,-97.48 145.03,-92.54"/>
</g>
<!-- tof -->
<g id="node4" class="node">
<title>tof</title>
<polygon fill="none" stroke="black" points="223.5,-86.5 169.5,-86.5 169.5,-61.25 223.5,-61.25 223.5,-86.5"/>
<text text-anchor="middle" x="196.5" y="-69.2" font-family="Times,serif" font-size="14.00">tof</text>
</g>
<!-- tof&#45;&gt;wavelength -->
<g id="edge3" class="edge">
<title>tof&#45;&gt;wavelength</title>
<path fill="none" stroke="black" d="M189.01,-60.88C184.4,-53.5 178.35,-43.81 172.93,-35.13"/>
<polygon fill="black" stroke="black" points="176.04,-33.51 167.78,-26.88 170.11,-37.22 176.04,-33.51"/>
</g>
</g>
</svg>
