<?xml version="1.0" encoding="utf-8" standalone="no"?>
<!DOCTYPE svg PUBLIC "-//W3C//DTD SVG 1.1//EN"
  "http://www.w3.org/Graphics/SVG/1.1/DTD/svg11.dtd">
<svg xmlns:xlink="http://www.w3.org/1999/xlink" width="424.315625pt" height="280.132187pt" viewBox="0 0 424.315625 280.132187" xmlns="http://www.w3.org/2000/svg" version="1.1">
 <metadata>
  <rdf:RDF xmlns:dc="http://purl.org/dc/elements/1.1/" xmlns:cc="http://creativecommons.org/ns#" xmlns:rdf="http://www.w3.org/1999/02/22-rdf-syntax-ns#">
   <cc:Work>
    <dc:type rdf:resource="http://purl.org/dc/dcmitype/StillImage"/>
    <dc:date>2024-01-22T12:09:45.506758</dc:date>
    <dc:format>image/svg+xml</dc:format>
    <dc:creator>
     <cc:Agent>
      <dc:title>Matplotlib v3.7.3, https://matplotlib.org/</dc:title>
     </cc:Agent>
    </dc:creator>
   </cc:Work>
  </rdf:RDF>
 </metadata>
 <defs>
  <style type="text/css">*{stroke-linejoin: round; stroke-linecap: butt}</style>
 </defs>
 <g id="figure_1">
  <g id="patch_1">
   <path d="M 0 280.132187 
L 424.315625 280.132187 
L 424.315625 0 
L 0 0 
z
" style="fill: #ffffff"/>
  </g>
  <g id="axes_1">
   <g id="patch_2">
    <path d="M 46.965625 241.6525 
L 417.115625 241.6525 
L 417.115625 7.2 
L 46.965625 7.2 
z
" style="fill: #ffffff"/>
   </g>
   <g id="matplotlib.axis_1">
    <g id="xtick_1">
     <g id="line2d_1">
      <defs>
       <path id="m316204c4c9" d="M 0 0 
L 0 3.5 
" style="stroke: #000000; stroke-width: 0.8"/>
      </defs>
      <g>
       <use xlink:href="#m316204c4c9" x="58.046204" y="241.6525" style="stroke: #000000; stroke-width: 0.8"/>
      </g>
     </g>
     <g id="text_1">
      <!-- 0.0 -->
      <g transform="translate(50.094641 256.250937) scale(0.1 -0.1)">
       <defs>
        <path id="DejaVuSans-30" d="M 2034 4250 
Q 1547 4250 1301 3770 
Q 1056 3291 1056 2328 
Q 1056 1369 1301 889 
Q 1547 409 2034 409 
Q 2525 409 2770 889 
Q 3016 1369 3016 2328 
Q 3016 3291 2770 3770 
Q 2525 4250 2034 4250 
z
M 2034 4750 
Q 2819 4750 3233 4129 
Q 3647 3509 3647 2328 
Q 3647 1150 3233 529 
Q 2819 -91 2034 -91 
Q 1250 -91 836 529 
Q 422 1150 422 2328 
Q 422 3509 836 4129 
Q 1250 4750 2034 4750 
z
" transform="scale(0.015625)"/>
        <path id="DejaVuSans-2e" d="M 684 794 
L 1344 794 
L 1344 0 
L 684 0 
L 684 794 
z
" transform="scale(0.015625)"/>
       </defs>
       <use xlink:href="#DejaVuSans-30"/>
       <use xlink:href="#DejaVuSans-2e" x="63.623047"/>
       <use xlink:href="#DejaVuSans-30" x="95.410156"/>
      </g>
     </g>
    </g>
    <g id="xtick_2">
     <g id="line2d_2">
      <g>
       <use xlink:href="#m316204c4c9" x="115.490418" y="241.6525" style="stroke: #000000; stroke-width: 0.8"/>
      </g>
     </g>
     <g id="text_2">
      <!-- 0.1 -->
      <g transform="translate(107.538855 256.250937) scale(0.1 -0.1)">
       <defs>
        <path id="DejaVuSans-31" d="M 794 531 
L 1825 531 
L 1825 4091 
L 703 3866 
L 703 4441 
L 1819 4666 
L 2450 4666 
L 2450 531 
L 3481 531 
L 3481 0 
L 794 0 
L 794 531 
z
" transform="scale(0.015625)"/>
       </defs>
       <use xlink:href="#DejaVuSans-30"/>
       <use xlink:href="#DejaVuSans-2e" x="63.623047"/>
       <use xlink:href="#DejaVuSans-31" x="95.410156"/>
      </g>
     </g>
    </g>
    <g id="xtick_3">
     <g id="line2d_3">
      <g>
       <use xlink:href="#m316204c4c9" x="172.934632" y="241.6525" style="stroke: #000000; stroke-width: 0.8"/>
      </g>
     </g>
     <g id="text_3">
      <!-- 0.2 -->
      <g transform="translate(164.983069 256.250937) scale(0.1 -0.1)">
       <defs>
        <path id="DejaVuSans-32" d="M 1228 531 
L 3431 531 
L 3431 0 
L 469 0 
L 469 531 
Q 828 903 1448 1529 
Q 2069 2156 2228 2338 
Q 2531 2678 2651 2914 
Q 2772 3150 2772 3378 
Q 2772 3750 2511 3984 
Q 2250 4219 1831 4219 
Q 1534 4219 1204 4116 
Q 875 4013 500 3803 
L 500 4441 
Q 881 4594 1212 4672 
Q 1544 4750 1819 4750 
Q 2544 4750 2975 4387 
Q 3406 4025 3406 3419 
Q 3406 3131 3298 2873 
Q 3191 2616 2906 2266 
Q 2828 2175 2409 1742 
Q 1991 1309 1228 531 
z
" transform="scale(0.015625)"/>
       </defs>
       <use xlink:href="#DejaVuSans-30"/>
       <use xlink:href="#DejaVuSans-2e" x="63.623047"/>
       <use xlink:href="#DejaVuSans-32" x="95.410156"/>
      </g>
     </g>
    </g>
    <g id="xtick_4">
     <g id="line2d_4">
      <g>
       <use xlink:href="#m316204c4c9" x="230.378846" y="241.6525" style="stroke: #000000; stroke-width: 0.8"/>
      </g>
     </g>
     <g id="text_4">
      <!-- 0.3 -->
      <g transform="translate(222.427283 256.250937) scale(0.1 -0.1)">
       <defs>
        <path id="DejaVuSans-33" d="M 2597 2516 
Q 3050 2419 3304 2112 
Q 3559 1806 3559 1356 
Q 3559 666 3084 287 
Q 2609 -91 1734 -91 
Q 1441 -91 1130 -33 
Q 819 25 488 141 
L 488 750 
Q 750 597 1062 519 
Q 1375 441 1716 441 
Q 2309 441 2620 675 
Q 2931 909 2931 1356 
Q 2931 1769 2642 2001 
Q 2353 2234 1838 2234 
L 1294 2234 
L 1294 2753 
L 1863 2753 
Q 2328 2753 2575 2939 
Q 2822 3125 2822 3475 
Q 2822 3834 2567 4026 
Q 2313 4219 1838 4219 
Q 1578 4219 1281 4162 
Q 984 4106 628 3988 
L 628 4550 
Q 988 4650 1302 4700 
Q 1616 4750 1894 4750 
Q 2613 4750 3031 4423 
Q 3450 4097 3450 3541 
Q 3450 3153 3228 2886 
Q 3006 2619 2597 2516 
z
" transform="scale(0.015625)"/>
       </defs>
       <use xlink:href="#DejaVuSans-30"/>
       <use xlink:href="#DejaVuSans-2e" x="63.623047"/>
       <use xlink:href="#DejaVuSans-33" x="95.410156"/>
      </g>
     </g>
    </g>
    <g id="xtick_5">
     <g id="line2d_5">
      <g>
       <use xlink:href="#m316204c4c9" x="287.82306" y="241.6525" style="stroke: #000000; stroke-width: 0.8"/>
      </g>
     </g>
     <g id="text_5">
      <!-- 0.4 -->
      <g transform="translate(279.871498 256.250937) scale(0.1 -0.1)">
       <defs>
        <path id="DejaVuSans-34" d="M 2419 4116 
L 825 1625 
L 2419 1625 
L 2419 4116 
z
M 2253 4666 
L 3047 4666 
L 3047 1625 
L 3713 1625 
L 3713 1100 
L 3047 1100 
L 3047 0 
L 2419 0 
L 2419 1100 
L 313 1100 
L 313 1709 
L 2253 4666 
z
" transform="scale(0.015625)"/>
       </defs>
       <use xlink:href="#DejaVuSans-30"/>
       <use xlink:href="#DejaVuSans-2e" x="63.623047"/>
       <use xlink:href="#DejaVuSans-34" x="95.410156"/>
      </g>
     </g>
    </g>
    <g id="xtick_6">
     <g id="line2d_6">
      <g>
       <use xlink:href="#m316204c4c9" x="345.267274" y="241.6525" style="stroke: #000000; stroke-width: 0.8"/>
      </g>
     </g>
     <g id="text_6">
      <!-- 0.5 -->
      <g transform="translate(337.315712 256.250937) scale(0.1 -0.1)">
       <defs>
        <path id="DejaVuSans-35" d="M 691 4666 
L 3169 4666 
L 3169 4134 
L 1269 4134 
L 1269 2991 
Q 1406 3038 1543 3061 
Q 1681 3084 1819 3084 
Q 2600 3084 3056 2656 
Q 3513 2228 3513 1497 
Q 3513 744 3044 326 
Q 2575 -91 1722 -91 
Q 1428 -91 1123 -41 
Q 819 9 494 109 
L 494 744 
Q 775 591 1075 516 
Q 1375 441 1709 441 
Q 2250 441 2565 725 
Q 2881 1009 2881 1497 
Q 2881 1984 2565 2268 
Q 2250 2553 1709 2553 
Q 1456 2553 1204 2497 
Q 953 2441 691 2322 
L 691 4666 
z
" transform="scale(0.015625)"/>
       </defs>
       <use xlink:href="#DejaVuSans-30"/>
       <use xlink:href="#DejaVuSans-2e" x="63.623047"/>
       <use xlink:href="#DejaVuSans-35" x="95.410156"/>
      </g>
     </g>
    </g>
    <g id="xtick_7">
     <g id="line2d_7">
      <g>
       <use xlink:href="#m316204c4c9" x="402.711488" y="241.6525" style="stroke: #000000; stroke-width: 0.8"/>
      </g>
     </g>
     <g id="text_7">
      <!-- 0.6 -->
      <g transform="translate(394.759926 256.250937) scale(0.1 -0.1)">
       <defs>
        <path id="DejaVuSans-36" d="M 2113 2584 
Q 1688 2584 1439 2293 
Q 1191 2003 1191 1497 
Q 1191 994 1439 701 
Q 1688 409 2113 409 
Q 2538 409 2786 701 
Q 3034 994 3034 1497 
Q 3034 2003 2786 2293 
Q 2538 2584 2113 2584 
z
M 3366 4563 
L 3366 3988 
Q 3128 4100 2886 4159 
Q 2644 4219 2406 4219 
Q 1781 4219 1451 3797 
Q 1122 3375 1075 2522 
Q 1259 2794 1537 2939 
Q 1816 3084 2150 3084 
Q 2853 3084 3261 2657 
Q 3669 2231 3669 1497 
Q 3669 778 3244 343 
Q 2819 -91 2113 -91 
Q 1303 -91 875 529 
Q 447 1150 447 2328 
Q 447 3434 972 4092 
Q 1497 4750 2381 4750 
Q 2619 4750 2861 4703 
Q 3103 4656 3366 4563 
z
" transform="scale(0.015625)"/>
       </defs>
       <use xlink:href="#DejaVuSans-30"/>
       <use xlink:href="#DejaVuSans-2e" x="63.623047"/>
       <use xlink:href="#DejaVuSans-36" x="95.410156"/>
      </g>
     </g>
    </g>
    <g id="text_8">
     <!-- Q [1/Å] -->
     <g transform="translate(214.328125 270.8525) scale(0.1 -0.1)">
      <defs>
       <path id="DejaVuSans-51" d="M 2522 4238 
Q 1834 4238 1429 3725 
Q 1025 3213 1025 2328 
Q 1025 1447 1429 934 
Q 1834 422 2522 422 
Q 3209 422 3611 934 
Q 4013 1447 4013 2328 
Q 4013 3213 3611 3725 
Q 3209 4238 2522 4238 
z
M 3406 84 
L 4238 -825 
L 3475 -825 
L 2784 -78 
Q 2681 -84 2626 -87 
Q 2572 -91 2522 -91 
Q 1538 -91 948 567 
Q 359 1225 359 2328 
Q 359 3434 948 4092 
Q 1538 4750 2522 4750 
Q 3503 4750 4090 4092 
Q 4678 3434 4678 2328 
Q 4678 1516 4351 937 
Q 4025 359 3406 84 
z
" transform="scale(0.015625)"/>
       <path id="DejaVuSans-20" transform="scale(0.015625)"/>
       <path id="DejaVuSans-5b" d="M 550 4863 
L 1875 4863 
L 1875 4416 
L 1125 4416 
L 1125 -397 
L 1875 -397 
L 1875 -844 
L 550 -844 
L 550 4863 
z
" transform="scale(0.015625)"/>
       <path id="DejaVuSans-2f" d="M 1625 4666 
L 2156 4666 
L 531 -594 
L 0 -594 
L 1625 4666 
z
" transform="scale(0.015625)"/>
       <path id="DejaVuSans-c5" d="M 2663 5081 
Q 2663 5278 2523 5417 
Q 2384 5556 2188 5556 
Q 1988 5556 1852 5420 
Q 1716 5284 1716 5081 
Q 1716 4884 1853 4746 
Q 1991 4609 2188 4609 
Q 2384 4609 2523 4746 
Q 2663 4884 2663 5081 
z
M 2188 4044 
L 1338 1722 
L 3041 1722 
L 2188 4044 
z
M 1716 4366 
Q 1525 4494 1428 4673 
Q 1331 4853 1331 5081 
Q 1331 5441 1579 5691 
Q 1828 5941 2188 5941 
Q 2544 5941 2795 5689 
Q 3047 5438 3047 5081 
Q 3047 4863 2948 4678 
Q 2850 4494 2663 4366 
L 4325 0 
L 3669 0 
L 3244 1197 
L 1141 1197 
L 716 0 
L 50 0 
L 1716 4366 
z
" transform="scale(0.015625)"/>
       <path id="DejaVuSans-5d" d="M 1947 4863 
L 1947 -844 
L 622 -844 
L 622 -397 
L 1369 -397 
L 1369 4416 
L 622 4416 
L 622 4863 
L 1947 4863 
z
" transform="scale(0.015625)"/>
      </defs>
      <use xlink:href="#DejaVuSans-51"/>
      <use xlink:href="#DejaVuSans-20" x="78.710938"/>
      <use xlink:href="#DejaVuSans-5b" x="110.498047"/>
      <use xlink:href="#DejaVuSans-31" x="149.511719"/>
      <use xlink:href="#DejaVuSans-2f" x="213.134766"/>
      <use xlink:href="#DejaVuSans-c5" x="246.826172"/>
      <use xlink:href="#DejaVuSans-5d" x="315.234375"/>
     </g>
    </g>
   </g>
   <g id="matplotlib.axis_2">
    <g id="ytick_1">
     <g id="line2d_8">
      <defs>
       <path id="mb0337575ff" d="M 0 0 
L -3.5 0 
" style="stroke: #000000; stroke-width: 0.8"/>
      </defs>
      <g>
       <use xlink:href="#mb0337575ff" x="46.965625" y="234.027628" style="stroke: #000000; stroke-width: 0.8"/>
      </g>
     </g>
     <g id="text_9">
      <!-- 0 -->
      <g transform="translate(33.603125 237.826847) scale(0.1 -0.1)">
       <use xlink:href="#DejaVuSans-30"/>
      </g>
     </g>
    </g>
    <g id="ytick_2">
     <g id="line2d_9">
      <g>
       <use xlink:href="#mb0337575ff" x="46.965625" y="186.045391" style="stroke: #000000; stroke-width: 0.8"/>
      </g>
     </g>
     <g id="text_10">
      <!-- 100 -->
      <g transform="translate(20.878125 189.84461) scale(0.1 -0.1)">
       <use xlink:href="#DejaVuSans-31"/>
       <use xlink:href="#DejaVuSans-30" x="63.623047"/>
       <use xlink:href="#DejaVuSans-30" x="127.246094"/>
      </g>
     </g>
    </g>
    <g id="ytick_3">
     <g id="line2d_10">
      <g>
       <use xlink:href="#mb0337575ff" x="46.965625" y="138.063154" style="stroke: #000000; stroke-width: 0.8"/>
      </g>
     </g>
     <g id="text_11">
      <!-- 200 -->
      <g transform="translate(20.878125 141.862373) scale(0.1 -0.1)">
       <use xlink:href="#DejaVuSans-32"/>
       <use xlink:href="#DejaVuSans-30" x="63.623047"/>
       <use xlink:href="#DejaVuSans-30" x="127.246094"/>
      </g>
     </g>
    </g>
    <g id="ytick_4">
     <g id="line2d_11">
      <g>
       <use xlink:href="#mb0337575ff" x="46.965625" y="90.080917" style="stroke: #000000; stroke-width: 0.8"/>
      </g>
     </g>
     <g id="text_12">
      <!-- 300 -->
      <g transform="translate(20.878125 93.880136) scale(0.1 -0.1)">
       <use xlink:href="#DejaVuSans-33"/>
       <use xlink:href="#DejaVuSans-30" x="63.623047"/>
       <use xlink:href="#DejaVuSans-30" x="127.246094"/>
      </g>
     </g>
    </g>
    <g id="ytick_5">
     <g id="line2d_12">
      <g>
       <use xlink:href="#mb0337575ff" x="46.965625" y="42.09868" style="stroke: #000000; stroke-width: 0.8"/>
      </g>
     </g>
     <g id="text_13">
      <!-- 400 -->
      <g transform="translate(20.878125 45.897899) scale(0.1 -0.1)">
       <use xlink:href="#DejaVuSans-34"/>
       <use xlink:href="#DejaVuSans-30" x="63.623047"/>
       <use xlink:href="#DejaVuSans-30" x="127.246094"/>
      </g>
     </g>
    </g>
    <g id="text_14">
     <!-- [dimensionless] -->
     <g transform="translate(14.798437 163.903594) rotate(-90) scale(0.1 -0.1)">
      <defs>
       <path id="DejaVuSans-64" d="M 2906 2969 
L 2906 4863 
L 3481 4863 
L 3481 0 
L 2906 0 
L 2906 525 
Q 2725 213 2448 61 
Q 2172 -91 1784 -91 
Q 1150 -91 751 415 
Q 353 922 353 1747 
Q 353 2572 751 3078 
Q 1150 3584 1784 3584 
Q 2172 3584 2448 3432 
Q 2725 3281 2906 2969 
z
M 947 1747 
Q 947 1113 1208 752 
Q 1469 391 1925 391 
Q 2381 391 2643 752 
Q 2906 1113 2906 1747 
Q 2906 2381 2643 2742 
Q 2381 3103 1925 3103 
Q 1469 3103 1208 2742 
Q 947 2381 947 1747 
z
" transform="scale(0.015625)"/>
       <path id="DejaVuSans-69" d="M 603 3500 
L 1178 3500 
L 1178 0 
L 603 0 
L 603 3500 
z
M 603 4863 
L 1178 4863 
L 1178 4134 
L 603 4134 
L 603 4863 
z
" transform="scale(0.015625)"/>
       <path id="DejaVuSans-6d" d="M 3328 2828 
Q 3544 3216 3844 3400 
Q 4144 3584 4550 3584 
Q 5097 3584 5394 3201 
Q 5691 2819 5691 2113 
L 5691 0 
L 5113 0 
L 5113 2094 
Q 5113 2597 4934 2840 
Q 4756 3084 4391 3084 
Q 3944 3084 3684 2787 
Q 3425 2491 3425 1978 
L 3425 0 
L 2847 0 
L 2847 2094 
Q 2847 2600 2669 2842 
Q 2491 3084 2119 3084 
Q 1678 3084 1418 2786 
Q 1159 2488 1159 1978 
L 1159 0 
L 581 0 
L 581 3500 
L 1159 3500 
L 1159 2956 
Q 1356 3278 1631 3431 
Q 1906 3584 2284 3584 
Q 2666 3584 2933 3390 
Q 3200 3197 3328 2828 
z
" transform="scale(0.015625)"/>
       <path id="DejaVuSans-65" d="M 3597 1894 
L 3597 1613 
L 953 1613 
Q 991 1019 1311 708 
Q 1631 397 2203 397 
Q 2534 397 2845 478 
Q 3156 559 3463 722 
L 3463 178 
Q 3153 47 2828 -22 
Q 2503 -91 2169 -91 
Q 1331 -91 842 396 
Q 353 884 353 1716 
Q 353 2575 817 3079 
Q 1281 3584 2069 3584 
Q 2775 3584 3186 3129 
Q 3597 2675 3597 1894 
z
M 3022 2063 
Q 3016 2534 2758 2815 
Q 2500 3097 2075 3097 
Q 1594 3097 1305 2825 
Q 1016 2553 972 2059 
L 3022 2063 
z
" transform="scale(0.015625)"/>
       <path id="DejaVuSans-6e" d="M 3513 2113 
L 3513 0 
L 2938 0 
L 2938 2094 
Q 2938 2591 2744 2837 
Q 2550 3084 2163 3084 
Q 1697 3084 1428 2787 
Q 1159 2491 1159 1978 
L 1159 0 
L 581 0 
L 581 3500 
L 1159 3500 
L 1159 2956 
Q 1366 3272 1645 3428 
Q 1925 3584 2291 3584 
Q 2894 3584 3203 3211 
Q 3513 2838 3513 2113 
z
" transform="scale(0.015625)"/>
       <path id="DejaVuSans-73" d="M 2834 3397 
L 2834 2853 
Q 2591 2978 2328 3040 
Q 2066 3103 1784 3103 
Q 1356 3103 1142 2972 
Q 928 2841 928 2578 
Q 928 2378 1081 2264 
Q 1234 2150 1697 2047 
L 1894 2003 
Q 2506 1872 2764 1633 
Q 3022 1394 3022 966 
Q 3022 478 2636 193 
Q 2250 -91 1575 -91 
Q 1294 -91 989 -36 
Q 684 19 347 128 
L 347 722 
Q 666 556 975 473 
Q 1284 391 1588 391 
Q 1994 391 2212 530 
Q 2431 669 2431 922 
Q 2431 1156 2273 1281 
Q 2116 1406 1581 1522 
L 1381 1569 
Q 847 1681 609 1914 
Q 372 2147 372 2553 
Q 372 3047 722 3315 
Q 1072 3584 1716 3584 
Q 2034 3584 2315 3537 
Q 2597 3491 2834 3397 
z
" transform="scale(0.015625)"/>
       <path id="DejaVuSans-6f" d="M 1959 3097 
Q 1497 3097 1228 2736 
Q 959 2375 959 1747 
Q 959 1119 1226 758 
Q 1494 397 1959 397 
Q 2419 397 2687 759 
Q 2956 1122 2956 1747 
Q 2956 2369 2687 2733 
Q 2419 3097 1959 3097 
z
M 1959 3584 
Q 2709 3584 3137 3096 
Q 3566 2609 3566 1747 
Q 3566 888 3137 398 
Q 2709 -91 1959 -91 
Q 1206 -91 779 398 
Q 353 888 353 1747 
Q 353 2609 779 3096 
Q 1206 3584 1959 3584 
z
" transform="scale(0.015625)"/>
       <path id="DejaVuSans-6c" d="M 603 4863 
L 1178 4863 
L 1178 0 
L 603 0 
L 603 4863 
z
" transform="scale(0.015625)"/>
      </defs>
      <use xlink:href="#DejaVuSans-5b"/>
      <use xlink:href="#DejaVuSans-64" x="39.013672"/>
      <use xlink:href="#DejaVuSans-69" x="102.490234"/>
      <use xlink:href="#DejaVuSans-6d" x="130.273438"/>
      <use xlink:href="#DejaVuSans-65" x="227.685547"/>
      <use xlink:href="#DejaVuSans-6e" x="289.208984"/>
      <use xlink:href="#DejaVuSans-73" x="352.587891"/>
      <use xlink:href="#DejaVuSans-69" x="404.6875"/>
      <use xlink:href="#DejaVuSans-6f" x="432.470703"/>
      <use xlink:href="#DejaVuSans-6e" x="493.652344"/>
      <use xlink:href="#DejaVuSans-6c" x="557.03125"/>
      <use xlink:href="#DejaVuSans-65" x="584.814453"/>
      <use xlink:href="#DejaVuSans-73" x="646.337891"/>
      <use xlink:href="#DejaVuSans-73" x="698.4375"/>
      <use xlink:href="#DejaVuSans-5d" x="750.537109"/>
     </g>
    </g>
   </g>
   <g id="patch_3">
    <path d="M 46.965625 241.6525 
L 46.965625 7.2 
" style="fill: none; stroke: #000000; stroke-width: 0.8; stroke-linejoin: miter; stroke-linecap: square"/>
   </g>
   <g id="patch_4">
    <path d="M 417.115625 241.6525 
L 417.115625 7.2 
" style="fill: none; stroke: #000000; stroke-width: 0.8; stroke-linejoin: miter; stroke-linecap: square"/>
   </g>
   <g id="patch_5">
    <path d="M 46.965625 241.6525 
L 417.115625 241.6525 
" style="fill: none; stroke: #000000; stroke-width: 0.8; stroke-linejoin: miter; stroke-linecap: square"/>
   </g>
   <g id="patch_6">
    <path d="M 46.965625 7.2 
L 417.115625 7.2 
" style="fill: none; stroke: #000000; stroke-width: 0.8; stroke-linejoin: miter; stroke-linecap: square"/>
   </g>
   <g id="line2d_13">
    <path d="M 63.790625 153.98403 
L 66.211488 153.98403 
L 66.211488 152.114256 
L 68.632352 152.114256 
L 68.632352 149.763042 
L 71.053215 149.763042 
L 71.053215 145.939743 
L 73.474078 145.939743 
L 73.474078 141.021175 
L 75.894942 141.021175 
L 75.894942 136.000693 
L 78.315805 136.000693 
L 78.315805 129.896129 
L 80.736668 129.896129 
L 80.736668 122.429486 
L 83.157531 122.429486 
L 83.157531 111.291722 
L 85.578395 111.291722 
L 85.578395 99.358718 
L 87.999258 99.358718 
L 87.999258 85.38783 
L 90.420121 85.38783 
L 90.420121 67.588907 
L 92.840985 67.588907 
L 92.840985 50.818699 
L 95.261848 50.818699 
L 95.261848 32.924816 
L 97.682711 32.924816 
L 97.682711 20.423618 
L 100.103575 20.423618 
L 100.103575 17.856932 
L 102.524438 17.856932 
L 102.524438 27.449938 
L 104.945301 27.449938 
L 104.945301 49.288797 
L 107.366165 49.288797 
L 107.366165 78.169072 
L 109.787028 78.169072 
L 109.787028 108.392068 
L 112.207891 108.392068 
L 112.207891 135.567516 
L 114.628754 135.567516 
L 114.628754 157.342999 
L 117.049618 157.342999 
L 117.049618 174.233822 
L 119.470481 174.233822 
L 119.470481 186.986963 
L 121.891344 186.986963 
L 121.891344 196.87802 
L 124.312208 196.87802 
L 124.312208 204.074252 
L 126.733071 204.074252 
L 126.733071 209.194141 
L 129.153934 209.194141 
L 129.153934 213.454765 
L 131.574798 213.454765 
L 131.574798 216.372582 
L 133.995661 216.372582 
L 133.995661 218.8113 
L 136.416524 218.8113 
L 136.416524 220.521111 
L 138.837388 220.521111 
L 138.837388 221.880576 
L 141.258251 221.880576 
L 141.258251 222.97777 
L 143.679114 222.97777 
L 143.679114 223.653191 
L 146.099978 223.653191 
L 146.099978 224.1988 
L 148.520841 224.1988 
L 148.520841 224.501613 
L 150.941704 224.501613 
L 150.941704 224.775907 
L 153.362567 224.775907 
L 153.362567 225.019624 
L 155.783431 225.019624 
L 155.783431 225.193482 
L 160.625157 225.151406 
L 160.625157 225.327239 
L 170.308611 225.330711 
L 170.308611 225.51857 
L 179.992064 225.576371 
L 179.992064 225.771376 
L 196.938107 225.837338 
L 196.938107 226.020128 
L 199.35897 226.020128 
L 199.35897 226.144985 
L 201.779834 226.144985 
L 201.779834 226.023066 
L 209.042424 226.084239 
L 209.042424 226.17243 
L 211.463287 226.17243 
L 211.463287 226.331272 
L 213.88415 226.331272 
L 213.88415 226.195548 
L 223.567603 226.242516 
L 223.567603 226.369061 
L 228.40933 226.296474 
L 228.40933 226.497711 
L 230.830193 226.497711 
L 230.830193 226.30836 
L 233.251057 226.30836 
L 233.251057 226.467379 
L 235.67192 226.467379 
L 235.67192 226.246888 
L 240.513647 226.265208 
L 240.513647 226.023278 
L 242.93451 226.023278 
L 242.93451 226.266112 
L 245.355373 226.266112 
L 245.355373 226.603857 
L 247.776237 226.603857 
L 247.776237 226.293164 
L 255.038826 226.382891 
L 255.038826 225.928999 
L 257.45969 225.928999 
L 257.45969 226.203 
L 259.880553 226.203 
L 259.880553 226.473958 
L 262.301416 226.473958 
L 262.301416 226.287832 
L 276.826596 226.179262 
L 276.826596 226.468827 
L 279.24746 226.468827 
L 279.24746 226.587191 
L 281.668323 226.587191 
L 281.668323 226.053499 
L 284.089186 226.053499 
L 284.089186 226.505309 
L 286.510049 226.505309 
L 286.510049 226.006797 
L 288.930913 226.006797 
L 288.930913 226.465043 
L 291.351776 226.465043 
L 291.351776 226.652946 
L 293.772639 226.652946 
L 293.772639 226.178992 
L 296.193503 226.178992 
L 296.193503 226.893905 
L 298.614366 226.893905 
L 298.614366 226.451785 
L 301.035229 226.451785 
L 301.035229 226.243435 
L 303.456093 226.243435 
L 303.456093 226.762109 
L 308.297819 226.750588 
L 308.297819 226.141009 
L 313.139546 226.060105 
L 313.139546 226.9671 
L 315.560409 226.9671 
L 315.560409 226.466069 
L 317.981272 226.466069 
L 317.981272 225.241863 
L 320.402136 225.241863 
L 320.402136 226.627481 
L 322.822999 226.627481 
L 322.822999 226.823761 
L 325.243862 226.823761 
L 325.243862 226.301479 
L 327.664726 226.301479 
L 327.664726 227.606502 
L 330.085589 227.606502 
L 330.085589 226.60885 
L 332.506452 226.60885 
L 332.506452 228.325999 
L 334.927316 228.325999 
L 334.927316 226.847059 
L 337.348179 226.847059 
L 337.348179 226.960397 
L 339.769042 226.960397 
L 339.769042 227.31198 
L 342.189906 227.31198 
L 342.189906 226.738218 
L 347.031632 226.78595 
L 347.031632 227.408275 
L 349.452496 227.408275 
L 349.452496 227.115486 
L 351.873359 227.115486 
L 351.873359 226.817253 
L 354.294222 226.817253 
L 354.294222 227.982279 
L 356.715085 227.982279 
L 356.715085 226.701389 
L 361.556812 226.759007 
L 361.556812 226.466107 
L 363.977675 226.466107 
L 363.977675 227.146427 
L 366.398539 227.146427 
L 366.398539 228.226195 
L 368.819402 228.226195 
L 368.819402 227.96142 
L 371.240265 227.96142 
L 371.240265 226.124951 
L 373.661129 226.124951 
L 373.661129 225.782099 
L 376.081992 225.782099 
L 376.081992 223.673786 
L 378.502855 223.673786 
L 378.502855 228.375708 
L 380.923719 228.375708 
L 380.923719 223.515496 
L 383.344582 223.515496 
L 383.344582 227.99163 
L 385.765445 227.99163 
L 385.765445 226.943755 
L 388.186308 226.943755 
L 388.186308 229.339923 
L 390.607172 229.339923 
L 390.607172 227.966552 
L 393.028035 227.966552 
L 393.028035 230.995568 
L 395.448898 230.995568 
L 395.448898 224.167568 
L 397.869762 224.167568 
L 397.869762 214.297395 
L 400.290625 214.297395 
L 400.290625 214.297395 
" clip-path="url(#pecea1caac9)" style="fill: none; stroke: #1f77b4; stroke-width: 1.5; stroke-linecap: square"/>
   </g>
   <g id="LineCollection_1">
    <path d="M 65.001057 154.539607 
L 65.001057 153.428453 
" clip-path="url(#pecea1caac9)" style="fill: none; stroke: #1f77b4; stroke-width: 1.5"/>
    <path d="M 67.42192 152.545403 
L 67.42192 151.683109 
" clip-path="url(#pecea1caac9)" style="fill: none; stroke: #1f77b4; stroke-width: 1.5"/>
    <path d="M 69.842783 150.136135 
L 69.842783 149.389948 
" clip-path="url(#pecea1caac9)" style="fill: none; stroke: #1f77b4; stroke-width: 1.5"/>
    <path d="M 72.263647 146.283571 
L 72.263647 145.595914 
" clip-path="url(#pecea1caac9)" style="fill: none; stroke: #1f77b4; stroke-width: 1.5"/>
    <path d="M 74.68451 141.346823 
L 74.68451 140.695528 
" clip-path="url(#pecea1caac9)" style="fill: none; stroke: #1f77b4; stroke-width: 1.5"/>
    <path d="M 77.105373 136.312825 
L 77.105373 135.68856 
" clip-path="url(#pecea1caac9)" style="fill: none; stroke: #1f77b4; stroke-width: 1.5"/>
    <path d="M 79.526237 130.198856 
L 79.526237 129.593402 
" clip-path="url(#pecea1caac9)" style="fill: none; stroke: #1f77b4; stroke-width: 1.5"/>
    <path d="M 81.9471 122.726945 
L 81.9471 122.132028 
" clip-path="url(#pecea1caac9)" style="fill: none; stroke: #1f77b4; stroke-width: 1.5"/>
    <path d="M 84.367963 111.589829 
L 84.367963 110.993616 
" clip-path="url(#pecea1caac9)" style="fill: none; stroke: #1f77b4; stroke-width: 1.5"/>
    <path d="M 86.788826 99.65893 
L 86.788826 99.058506 
" clip-path="url(#pecea1caac9)" style="fill: none; stroke: #1f77b4; stroke-width: 1.5"/>
    <path d="M 89.20969 85.69195 
L 89.20969 85.083711 
" clip-path="url(#pecea1caac9)" style="fill: none; stroke: #1f77b4; stroke-width: 1.5"/>
    <path d="M 91.630553 67.901254 
L 91.630553 67.27656 
" clip-path="url(#pecea1caac9)" style="fill: none; stroke: #1f77b4; stroke-width: 1.5"/>
    <path d="M 94.051416 51.137199 
L 94.051416 50.500199 
" clip-path="url(#pecea1caac9)" style="fill: none; stroke: #1f77b4; stroke-width: 1.5"/>
    <path d="M 96.47228 33.251696 
L 96.47228 32.597935 
" clip-path="url(#pecea1caac9)" style="fill: none; stroke: #1f77b4; stroke-width: 1.5"/>
    <path d="M 98.893143 20.753601 
L 98.893143 20.093636 
" clip-path="url(#pecea1caac9)" style="fill: none; stroke: #1f77b4; stroke-width: 1.5"/>
    <path d="M 101.314006 18.182906 
L 101.314006 17.530957 
" clip-path="url(#pecea1caac9)" style="fill: none; stroke: #1f77b4; stroke-width: 1.5"/>
    <path d="M 103.73487 27.763978 
L 103.73487 27.135898 
" clip-path="url(#pecea1caac9)" style="fill: none; stroke: #1f77b4; stroke-width: 1.5"/>
    <path d="M 106.155733 49.581899 
L 106.155733 48.995695 
" clip-path="url(#pecea1caac9)" style="fill: none; stroke: #1f77b4; stroke-width: 1.5"/>
    <path d="M 108.576596 78.435346 
L 108.576596 77.902798 
" clip-path="url(#pecea1caac9)" style="fill: none; stroke: #1f77b4; stroke-width: 1.5"/>
    <path d="M 110.99746 108.628858 
L 110.99746 108.155279 
" clip-path="url(#pecea1caac9)" style="fill: none; stroke: #1f77b4; stroke-width: 1.5"/>
    <path d="M 113.418323 135.775619 
L 113.418323 135.359412 
" clip-path="url(#pecea1caac9)" style="fill: none; stroke: #1f77b4; stroke-width: 1.5"/>
    <path d="M 115.839186 157.52561 
L 115.839186 157.160389 
" clip-path="url(#pecea1caac9)" style="fill: none; stroke: #1f77b4; stroke-width: 1.5"/>
    <path d="M 118.260049 174.394207 
L 118.260049 174.073436 
" clip-path="url(#pecea1caac9)" style="fill: none; stroke: #1f77b4; stroke-width: 1.5"/>
    <path d="M 120.680913 187.128951 
L 120.680913 186.844974 
" clip-path="url(#pecea1caac9)" style="fill: none; stroke: #1f77b4; stroke-width: 1.5"/>
    <path d="M 123.101776 197.003976 
L 123.101776 196.752065 
" clip-path="url(#pecea1caac9)" style="fill: none; stroke: #1f77b4; stroke-width: 1.5"/>
    <path d="M 125.522639 204.187261 
L 125.522639 203.961244 
" clip-path="url(#pecea1caac9)" style="fill: none; stroke: #1f77b4; stroke-width: 1.5"/>
    <path d="M 127.943503 209.297202 
L 127.943503 209.09108 
" clip-path="url(#pecea1caac9)" style="fill: none; stroke: #1f77b4; stroke-width: 1.5"/>
    <path d="M 130.364366 213.548605 
L 130.364366 213.360924 
" clip-path="url(#pecea1caac9)" style="fill: none; stroke: #1f77b4; stroke-width: 1.5"/>
    <path d="M 132.785229 216.45997 
L 132.785229 216.285193 
" clip-path="url(#pecea1caac9)" style="fill: none; stroke: #1f77b4; stroke-width: 1.5"/>
    <path d="M 135.206093 218.892782 
L 135.206093 218.729819 
" clip-path="url(#pecea1caac9)" style="fill: none; stroke: #1f77b4; stroke-width: 1.5"/>
    <path d="M 137.626956 220.598197 
L 137.626956 220.444025 
" clip-path="url(#pecea1caac9)" style="fill: none; stroke: #1f77b4; stroke-width: 1.5"/>
    <path d="M 140.047819 221.954123 
L 140.047819 221.807029 
" clip-path="url(#pecea1caac9)" style="fill: none; stroke: #1f77b4; stroke-width: 1.5"/>
    <path d="M 142.468683 223.048446 
L 142.468683 222.907094 
" clip-path="url(#pecea1caac9)" style="fill: none; stroke: #1f77b4; stroke-width: 1.5"/>
    <path d="M 144.889546 223.722218 
L 144.889546 223.584165 
" clip-path="url(#pecea1caac9)" style="fill: none; stroke: #1f77b4; stroke-width: 1.5"/>
    <path d="M 147.310409 224.266567 
L 147.310409 224.131033 
" clip-path="url(#pecea1caac9)" style="fill: none; stroke: #1f77b4; stroke-width: 1.5"/>
    <path d="M 149.731272 224.568952 
L 149.731272 224.434274 
" clip-path="url(#pecea1caac9)" style="fill: none; stroke: #1f77b4; stroke-width: 1.5"/>
    <path d="M 152.152136 224.842955 
L 152.152136 224.708858 
" clip-path="url(#pecea1caac9)" style="fill: none; stroke: #1f77b4; stroke-width: 1.5"/>
    <path d="M 154.572999 225.08656 
L 154.572999 224.952689 
" clip-path="url(#pecea1caac9)" style="fill: none; stroke: #1f77b4; stroke-width: 1.5"/>
    <path d="M 156.993862 225.260507 
L 156.993862 225.126456 
" clip-path="url(#pecea1caac9)" style="fill: none; stroke: #1f77b4; stroke-width: 1.5"/>
    <path d="M 159.414726 225.219471 
L 159.414726 225.08334 
" clip-path="url(#pecea1caac9)" style="fill: none; stroke: #1f77b4; stroke-width: 1.5"/>
    <path d="M 161.835589 225.395499 
L 161.835589 225.258979 
" clip-path="url(#pecea1caac9)" style="fill: none; stroke: #1f77b4; stroke-width: 1.5"/>
    <path d="M 164.256452 225.399471 
L 164.256452 225.261007 
" clip-path="url(#pecea1caac9)" style="fill: none; stroke: #1f77b4; stroke-width: 1.5"/>
    <path d="M 166.677316 225.378829 
L 166.677316 225.238212 
" clip-path="url(#pecea1caac9)" style="fill: none; stroke: #1f77b4; stroke-width: 1.5"/>
    <path d="M 169.098179 225.402247 
L 169.098179 225.259174 
" clip-path="url(#pecea1caac9)" style="fill: none; stroke: #1f77b4; stroke-width: 1.5"/>
    <path d="M 171.519042 225.590488 
L 171.519042 225.446653 
" clip-path="url(#pecea1caac9)" style="fill: none; stroke: #1f77b4; stroke-width: 1.5"/>
    <path d="M 173.939906 225.503236 
L 173.939906 225.356237 
" clip-path="url(#pecea1caac9)" style="fill: none; stroke: #1f77b4; stroke-width: 1.5"/>
    <path d="M 176.360769 225.504891 
L 176.360769 225.355209 
" clip-path="url(#pecea1caac9)" style="fill: none; stroke: #1f77b4; stroke-width: 1.5"/>
    <path d="M 178.781632 225.652125 
L 178.781632 225.500617 
" clip-path="url(#pecea1caac9)" style="fill: none; stroke: #1f77b4; stroke-width: 1.5"/>
    <path d="M 181.202496 225.847633 
L 181.202496 225.695118 
" clip-path="url(#pecea1caac9)" style="fill: none; stroke: #1f77b4; stroke-width: 1.5"/>
    <path d="M 183.623359 225.921235 
L 183.623359 225.766143 
" clip-path="url(#pecea1caac9)" style="fill: none; stroke: #1f77b4; stroke-width: 1.5"/>
    <path d="M 186.044222 225.830145 
L 186.044222 225.670852 
" clip-path="url(#pecea1caac9)" style="fill: none; stroke: #1f77b4; stroke-width: 1.5"/>
    <path d="M 188.465085 225.929059 
L 188.465085 225.766903 
" clip-path="url(#pecea1caac9)" style="fill: none; stroke: #1f77b4; stroke-width: 1.5"/>
    <path d="M 190.885949 225.91927 
L 190.885949 225.753425 
" clip-path="url(#pecea1caac9)" style="fill: none; stroke: #1f77b4; stroke-width: 1.5"/>
    <path d="M 193.306812 225.860184 
L 193.306812 225.689984 
" clip-path="url(#pecea1caac9)" style="fill: none; stroke: #1f77b4; stroke-width: 1.5"/>
    <path d="M 195.727675 225.924048 
L 195.727675 225.750628 
" clip-path="url(#pecea1caac9)" style="fill: none; stroke: #1f77b4; stroke-width: 1.5"/>
    <path d="M 198.148539 226.107721 
L 198.148539 225.932534 
" clip-path="url(#pecea1caac9)" style="fill: none; stroke: #1f77b4; stroke-width: 1.5"/>
    <path d="M 200.569402 226.233745 
L 200.569402 226.056225 
" clip-path="url(#pecea1caac9)" style="fill: none; stroke: #1f77b4; stroke-width: 1.5"/>
    <path d="M 202.990265 226.114674 
L 202.990265 225.931458 
" clip-path="url(#pecea1caac9)" style="fill: none; stroke: #1f77b4; stroke-width: 1.5"/>
    <path d="M 205.411129 226.216059 
L 205.411129 226.030807 
" clip-path="url(#pecea1caac9)" style="fill: none; stroke: #1f77b4; stroke-width: 1.5"/>
    <path d="M 207.831992 226.179515 
L 207.831992 225.988964 
" clip-path="url(#pecea1caac9)" style="fill: none; stroke: #1f77b4; stroke-width: 1.5"/>
    <path d="M 210.252855 226.269179 
L 210.252855 226.07568 
" clip-path="url(#pecea1caac9)" style="fill: none; stroke: #1f77b4; stroke-width: 1.5"/>
    <path d="M 212.673719 226.42938 
L 212.673719 226.233163 
" clip-path="url(#pecea1caac9)" style="fill: none; stroke: #1f77b4; stroke-width: 1.5"/>
    <path d="M 215.094582 226.296863 
L 215.094582 226.094234 
" clip-path="url(#pecea1caac9)" style="fill: none; stroke: #1f77b4; stroke-width: 1.5"/>
    <path d="M 217.515445 226.319311 
L 217.515445 226.111222 
" clip-path="url(#pecea1caac9)" style="fill: none; stroke: #1f77b4; stroke-width: 1.5"/>
    <path d="M 219.936308 226.411053 
L 219.936308 226.198814 
" clip-path="url(#pecea1caac9)" style="fill: none; stroke: #1f77b4; stroke-width: 1.5"/>
    <path d="M 222.357172 226.352252 
L 222.357172 226.132779 
" clip-path="url(#pecea1caac9)" style="fill: none; stroke: #1f77b4; stroke-width: 1.5"/>
    <path d="M 224.778035 226.481131 
L 224.778035 226.256991 
" clip-path="url(#pecea1caac9)" style="fill: none; stroke: #1f77b4; stroke-width: 1.5"/>
    <path d="M 227.198898 226.412591 
L 227.198898 226.180357 
" clip-path="url(#pecea1caac9)" style="fill: none; stroke: #1f77b4; stroke-width: 1.5"/>
    <path d="M 229.619762 226.615771 
L 229.619762 226.379652 
" clip-path="url(#pecea1caac9)" style="fill: none; stroke: #1f77b4; stroke-width: 1.5"/>
    <path d="M 232.040625 226.432015 
L 232.040625 226.184705 
" clip-path="url(#pecea1caac9)" style="fill: none; stroke: #1f77b4; stroke-width: 1.5"/>
    <path d="M 234.461488 226.594125 
L 234.461488 226.340633 
" clip-path="url(#pecea1caac9)" style="fill: none; stroke: #1f77b4; stroke-width: 1.5"/>
    <path d="M 236.882352 226.380582 
L 236.882352 226.113193 
" clip-path="url(#pecea1caac9)" style="fill: none; stroke: #1f77b4; stroke-width: 1.5"/>
    <path d="M 239.303215 226.402947 
L 239.303215 226.127469 
" clip-path="url(#pecea1caac9)" style="fill: none; stroke: #1f77b4; stroke-width: 1.5"/>
    <path d="M 241.724078 226.169077 
L 241.724078 225.877479 
" clip-path="url(#pecea1caac9)" style="fill: none; stroke: #1f77b4; stroke-width: 1.5"/>
    <path d="M 244.144942 226.416235 
L 244.144942 226.115989 
" clip-path="url(#pecea1caac9)" style="fill: none; stroke: #1f77b4; stroke-width: 1.5"/>
    <path d="M 246.565805 226.755584 
L 246.565805 226.45213 
" clip-path="url(#pecea1caac9)" style="fill: none; stroke: #1f77b4; stroke-width: 1.5"/>
    <path d="M 248.986668 226.45465 
L 248.986668 226.131679 
" clip-path="url(#pecea1caac9)" style="fill: none; stroke: #1f77b4; stroke-width: 1.5"/>
    <path d="M 251.407531 226.475257 
L 251.407531 226.138291 
" clip-path="url(#pecea1caac9)" style="fill: none; stroke: #1f77b4; stroke-width: 1.5"/>
    <path d="M 253.828395 226.55677 
L 253.828395 226.209012 
" clip-path="url(#pecea1caac9)" style="fill: none; stroke: #1f77b4; stroke-width: 1.5"/>
    <path d="M 256.249258 226.116228 
L 256.249258 225.741769 
" clip-path="url(#pecea1caac9)" style="fill: none; stroke: #1f77b4; stroke-width: 1.5"/>
    <path d="M 258.670121 226.396451 
L 258.670121 226.009548 
" clip-path="url(#pecea1caac9)" style="fill: none; stroke: #1f77b4; stroke-width: 1.5"/>
    <path d="M 261.090985 226.673014 
L 261.090985 226.274901 
" clip-path="url(#pecea1caac9)" style="fill: none; stroke: #1f77b4; stroke-width: 1.5"/>
    <path d="M 263.511848 226.496332 
L 263.511848 226.079333 
" clip-path="url(#pecea1caac9)" style="fill: none; stroke: #1f77b4; stroke-width: 1.5"/>
    <path d="M 265.932711 226.418338 
L 265.932711 225.98196 
" clip-path="url(#pecea1caac9)" style="fill: none; stroke: #1f77b4; stroke-width: 1.5"/>
    <path d="M 268.353575 226.436427 
L 268.353575 225.979601 
" clip-path="url(#pecea1caac9)" style="fill: none; stroke: #1f77b4; stroke-width: 1.5"/>
    <path d="M 270.774438 226.616747 
L 270.774438 226.149794 
" clip-path="url(#pecea1caac9)" style="fill: none; stroke: #1f77b4; stroke-width: 1.5"/>
    <path d="M 273.195301 226.428301 
L 273.195301 225.937774 
" clip-path="url(#pecea1caac9)" style="fill: none; stroke: #1f77b4; stroke-width: 1.5"/>
    <path d="M 275.616165 226.433763 
L 275.616165 225.924762 
" clip-path="url(#pecea1caac9)" style="fill: none; stroke: #1f77b4; stroke-width: 1.5"/>
    <path d="M 278.037028 226.728857 
L 278.037028 226.208796 
" clip-path="url(#pecea1caac9)" style="fill: none; stroke: #1f77b4; stroke-width: 1.5"/>
    <path d="M 280.457891 226.849759 
L 280.457891 226.324624 
" clip-path="url(#pecea1caac9)" style="fill: none; stroke: #1f77b4; stroke-width: 1.5"/>
    <path d="M 282.878754 226.340494 
L 282.878754 225.766504 
" clip-path="url(#pecea1caac9)" style="fill: none; stroke: #1f77b4; stroke-width: 1.5"/>
    <path d="M 285.299618 226.794629 
L 285.299618 226.215989 
" clip-path="url(#pecea1caac9)" style="fill: none; stroke: #1f77b4; stroke-width: 1.5"/>
    <path d="M 287.720481 226.313706 
L 287.720481 225.699888 
" clip-path="url(#pecea1caac9)" style="fill: none; stroke: #1f77b4; stroke-width: 1.5"/>
    <path d="M 290.141344 226.771746 
L 290.141344 226.15834 
" clip-path="url(#pecea1caac9)" style="fill: none; stroke: #1f77b4; stroke-width: 1.5"/>
    <path d="M 292.562208 226.966549 
L 292.562208 226.339342 
" clip-path="url(#pecea1caac9)" style="fill: none; stroke: #1f77b4; stroke-width: 1.5"/>
    <path d="M 294.983071 226.516432 
L 294.983071 225.841553 
" clip-path="url(#pecea1caac9)" style="fill: none; stroke: #1f77b4; stroke-width: 1.5"/>
    <path d="M 297.403934 227.224368 
L 297.403934 226.563441 
" clip-path="url(#pecea1caac9)" style="fill: none; stroke: #1f77b4; stroke-width: 1.5"/>
    <path d="M 299.824798 226.80273 
L 299.824798 226.100841 
" clip-path="url(#pecea1caac9)" style="fill: none; stroke: #1f77b4; stroke-width: 1.5"/>
    <path d="M 302.245661 226.618386 
L 302.245661 225.868483 
" clip-path="url(#pecea1caac9)" style="fill: none; stroke: #1f77b4; stroke-width: 1.5"/>
    <path d="M 304.666524 227.137299 
L 304.666524 226.38692 
" clip-path="url(#pecea1caac9)" style="fill: none; stroke: #1f77b4; stroke-width: 1.5"/>
    <path d="M 307.087388 227.143511 
L 307.087388 226.357664 
" clip-path="url(#pecea1caac9)" style="fill: none; stroke: #1f77b4; stroke-width: 1.5"/>
    <path d="M 309.508251 226.566847 
L 309.508251 225.715172 
" clip-path="url(#pecea1caac9)" style="fill: none; stroke: #1f77b4; stroke-width: 1.5"/>
    <path d="M 311.929114 226.499369 
L 311.929114 225.620841 
" clip-path="url(#pecea1caac9)" style="fill: none; stroke: #1f77b4; stroke-width: 1.5"/>
    <path d="M 314.349978 227.410117 
L 314.349978 226.524083 
" clip-path="url(#pecea1caac9)" style="fill: none; stroke: #1f77b4; stroke-width: 1.5"/>
    <path d="M 316.770841 226.944304 
L 316.770841 225.987834 
" clip-path="url(#pecea1caac9)" style="fill: none; stroke: #1f77b4; stroke-width: 1.5"/>
    <path d="M 319.191704 225.793131 
L 319.191704 224.690595 
" clip-path="url(#pecea1caac9)" style="fill: none; stroke: #1f77b4; stroke-width: 1.5"/>
    <path d="M 321.612567 227.152064 
L 321.612567 226.102899 
" clip-path="url(#pecea1caac9)" style="fill: none; stroke: #1f77b4; stroke-width: 1.5"/>
    <path d="M 324.033431 227.366773 
L 324.033431 226.280749 
" clip-path="url(#pecea1caac9)" style="fill: none; stroke: #1f77b4; stroke-width: 1.5"/>
    <path d="M 326.454294 226.892312 
L 326.454294 225.710645 
" clip-path="url(#pecea1caac9)" style="fill: none; stroke: #1f77b4; stroke-width: 1.5"/>
    <path d="M 328.875157 228.157109 
L 328.875157 227.055895 
" clip-path="url(#pecea1caac9)" style="fill: none; stroke: #1f77b4; stroke-width: 1.5"/>
    <path d="M 331.296021 227.242679 
L 331.296021 225.975021 
" clip-path="url(#pecea1caac9)" style="fill: none; stroke: #1f77b4; stroke-width: 1.5"/>
    <path d="M 333.716884 228.904912 
L 333.716884 227.747086 
" clip-path="url(#pecea1caac9)" style="fill: none; stroke: #1f77b4; stroke-width: 1.5"/>
    <path d="M 336.137747 227.508084 
L 336.137747 226.186034 
" clip-path="url(#pecea1caac9)" style="fill: none; stroke: #1f77b4; stroke-width: 1.5"/>
    <path d="M 338.558611 227.66712 
L 338.558611 226.253674 
" clip-path="url(#pecea1caac9)" style="fill: none; stroke: #1f77b4; stroke-width: 1.5"/>
    <path d="M 340.979474 228.027871 
L 340.979474 226.59609 
" clip-path="url(#pecea1caac9)" style="fill: none; stroke: #1f77b4; stroke-width: 1.5"/>
    <path d="M 343.400337 227.519725 
L 343.400337 225.956712 
" clip-path="url(#pecea1caac9)" style="fill: none; stroke: #1f77b4; stroke-width: 1.5"/>
    <path d="M 345.821201 227.605909 
L 345.821201 225.965991 
" clip-path="url(#pecea1caac9)" style="fill: none; stroke: #1f77b4; stroke-width: 1.5"/>
    <path d="M 348.242064 228.229304 
L 348.242064 226.587245 
" clip-path="url(#pecea1caac9)" style="fill: none; stroke: #1f77b4; stroke-width: 1.5"/>
    <path d="M 350.662927 228.000495 
L 350.662927 226.230477 
" clip-path="url(#pecea1caac9)" style="fill: none; stroke: #1f77b4; stroke-width: 1.5"/>
    <path d="M 353.08379 227.755964 
L 353.08379 225.878542 
" clip-path="url(#pecea1caac9)" style="fill: none; stroke: #1f77b4; stroke-width: 1.5"/>
    <path d="M 355.504654 228.873617 
L 355.504654 227.09094 
" clip-path="url(#pecea1caac9)" style="fill: none; stroke: #1f77b4; stroke-width: 1.5"/>
    <path d="M 357.925517 227.737476 
L 357.925517 225.665302 
" clip-path="url(#pecea1caac9)" style="fill: none; stroke: #1f77b4; stroke-width: 1.5"/>
    <path d="M 360.34638 227.842549 
L 360.34638 225.675465 
" clip-path="url(#pecea1caac9)" style="fill: none; stroke: #1f77b4; stroke-width: 1.5"/>
    <path d="M 362.767244 227.632875 
L 362.767244 225.299339 
" clip-path="url(#pecea1caac9)" style="fill: none; stroke: #1f77b4; stroke-width: 1.5"/>
    <path d="M 365.188107 228.293294 
L 365.188107 225.99956 
" clip-path="url(#pecea1caac9)" style="fill: none; stroke: #1f77b4; stroke-width: 1.5"/>
    <path d="M 367.60897 229.342681 
L 367.60897 227.109709 
" clip-path="url(#pecea1caac9)" style="fill: none; stroke: #1f77b4; stroke-width: 1.5"/>
    <path d="M 370.029834 229.174661 
L 370.029834 226.748178 
" clip-path="url(#pecea1caac9)" style="fill: none; stroke: #1f77b4; stroke-width: 1.5"/>
    <path d="M 372.450697 227.567776 
L 372.450697 224.682127 
" clip-path="url(#pecea1caac9)" style="fill: none; stroke: #1f77b4; stroke-width: 1.5"/>
    <path d="M 374.87156 227.368952 
L 374.87156 224.195246 
" clip-path="url(#pecea1caac9)" style="fill: none; stroke: #1f77b4; stroke-width: 1.5"/>
    <path d="M 377.292424 225.596447 
L 377.292424 221.751126 
" clip-path="url(#pecea1caac9)" style="fill: none; stroke: #1f77b4; stroke-width: 1.5"/>
    <path d="M 379.713287 229.886247 
L 379.713287 226.865169 
" clip-path="url(#pecea1caac9)" style="fill: none; stroke: #1f77b4; stroke-width: 1.5"/>
    <path d="M 382.13415 225.866081 
L 382.13415 221.164912 
" clip-path="url(#pecea1caac9)" style="fill: none; stroke: #1f77b4; stroke-width: 1.5"/>
    <path d="M 384.555013 230.125678 
L 384.555013 225.857582 
" clip-path="url(#pecea1caac9)" style="fill: none; stroke: #1f77b4; stroke-width: 1.5"/>
    <path d="M 386.975877 229.305046 
L 386.975877 224.582464 
" clip-path="url(#pecea1caac9)" style="fill: none; stroke: #1f77b4; stroke-width: 1.5"/>
    <path d="M 389.39674 231.436329 
L 389.39674 227.243518 
" clip-path="url(#pecea1caac9)" style="fill: none; stroke: #1f77b4; stroke-width: 1.5"/>
    <path d="M 391.817603 230.99709 
L 391.817603 224.936013 
" clip-path="url(#pecea1caac9)" style="fill: none; stroke: #1f77b4; stroke-width: 1.5"/>
    <path d="M 394.238467 233.139558 
L 394.238467 228.851578 
" clip-path="url(#pecea1caac9)" style="fill: none; stroke: #1f77b4; stroke-width: 1.5"/>
    <path d="M 396.65933 229.097598 
L 396.65933 219.237538 
" clip-path="url(#pecea1caac9)" style="fill: none; stroke: #1f77b4; stroke-width: 1.5"/>
    <path d="M 399.080193 225.688651 
L 399.080193 202.90614 
" clip-path="url(#pecea1caac9)" style="fill: none; stroke: #1f77b4; stroke-width: 1.5"/>
    <path clip-path="url(#pecea1caac9)" style="fill: none; stroke: #1f77b4; stroke-width: 1.5"/>
   </g>
  </g>
 </g>
 <defs>
  <clipPath id="pecea1caac9">
   <rect x="46.965625" y="7.2" width="370.15" height="234.4525"/>
  </clipPath>
 </defs>
</svg>
