<?xml version="1.0" encoding="utf-8" standalone="no"?>
<!DOCTYPE svg PUBLIC "-//W3C//DTD SVG 1.1//EN"
  "http://www.w3.org/Graphics/SVG/1.1/DTD/svg11.dtd">
<svg xmlns:xlink="http://www.w3.org/1999/xlink" width="424.34375pt" height="280.274375pt" viewBox="0 0 424.34375 280.274375" xmlns="http://www.w3.org/2000/svg" version="1.1">
 <metadata>
  <rdf:RDF xmlns:dc="http://purl.org/dc/elements/1.1/" xmlns:cc="http://creativecommons.org/ns#" xmlns:rdf="http://www.w3.org/1999/02/22-rdf-syntax-ns#">
   <cc:Work>
    <dc:type rdf:resource="http://purl.org/dc/dcmitype/StillImage"/>
    <dc:date>2024-01-22T12:10:30.227909</dc:date>
    <dc:format>image/svg+xml</dc:format>
    <dc:creator>
     <cc:Agent>
      <dc:title>Matplotlib v3.7.3, https://matplotlib.org/</dc:title>
     </cc:Agent>
    </dc:creator>
   </cc:Work>
  </rdf:RDF>
 </metadata>
 <defs>
  <style type="text/css">*{stroke-linejoin: round; stroke-linecap: butt}</style>
 </defs>
 <g id="figure_1">
  <g id="patch_1">
   <path d="M 0 280.274375 
L 424.34375 280.274375 
L 424.34375 0 
L 0 0 
z
" style="fill: #ffffff"/>
  </g>
  <g id="axes_1">
   <g id="patch_2">
    <path d="M 50.14375 241.03375 
L 417.14375 241.03375 
L 417.14375 7.2 
L 50.14375 7.2 
z
" style="fill: #ffffff"/>
   </g>
   <g id="matplotlib.axis_1">
    <g id="xtick_1">
     <g id="line2d_1">
      <defs>
       <path id="m42bbd31d0c" d="M 0 0 
L 0 3.5 
" style="stroke: #000000; stroke-width: 0.8"/>
      </defs>
      <g>
       <use xlink:href="#m42bbd31d0c" x="103.231433" y="241.03375" style="stroke: #000000; stroke-width: 0.8"/>
      </g>
     </g>
     <g id="text_1">
      <!-- 2 -->
      <g transform="translate(100.050183 255.632187) scale(0.1 -0.1)">
       <defs>
        <path id="DejaVuSans-32" d="M 1228 531 
L 3431 531 
L 3431 0 
L 469 0 
L 469 531 
Q 828 903 1448 1529 
Q 2069 2156 2228 2338 
Q 2531 2678 2651 2914 
Q 2772 3150 2772 3378 
Q 2772 3750 2511 3984 
Q 2250 4219 1831 4219 
Q 1534 4219 1204 4116 
Q 875 4013 500 3803 
L 500 4441 
Q 881 4594 1212 4672 
Q 1544 4750 1819 4750 
Q 2544 4750 2975 4387 
Q 3406 4025 3406 3419 
Q 3406 3131 3298 2873 
Q 3191 2616 2906 2266 
Q 2828 2175 2409 1742 
Q 1991 1309 1228 531 
z
" transform="scale(0.015625)"/>
       </defs>
       <use xlink:href="#DejaVuSans-32"/>
      </g>
     </g>
    </g>
    <g id="xtick_2">
     <g id="line2d_2">
      <g>
       <use xlink:href="#m42bbd31d0c" x="175.649852" y="241.03375" style="stroke: #000000; stroke-width: 0.8"/>
      </g>
     </g>
     <g id="text_2">
      <!-- 4 -->
      <g transform="translate(172.468602 255.632187) scale(0.1 -0.1)">
       <defs>
        <path id="DejaVuSans-34" d="M 2419 4116 
L 825 1625 
L 2419 1625 
L 2419 4116 
z
M 2253 4666 
L 3047 4666 
L 3047 1625 
L 3713 1625 
L 3713 1100 
L 3047 1100 
L 3047 0 
L 2419 0 
L 2419 1100 
L 313 1100 
L 313 1709 
L 2253 4666 
z
" transform="scale(0.015625)"/>
       </defs>
       <use xlink:href="#DejaVuSans-34"/>
      </g>
     </g>
    </g>
    <g id="xtick_3">
     <g id="line2d_3">
      <g>
       <use xlink:href="#m42bbd31d0c" x="248.068271" y="241.03375" style="stroke: #000000; stroke-width: 0.8"/>
      </g>
     </g>
     <g id="text_3">
      <!-- 6 -->
      <g transform="translate(244.887021 255.632187) scale(0.1 -0.1)">
       <defs>
        <path id="DejaVuSans-36" d="M 2113 2584 
Q 1688 2584 1439 2293 
Q 1191 2003 1191 1497 
Q 1191 994 1439 701 
Q 1688 409 2113 409 
Q 2538 409 2786 701 
Q 3034 994 3034 1497 
Q 3034 2003 2786 2293 
Q 2538 2584 2113 2584 
z
M 3366 4563 
L 3366 3988 
Q 3128 4100 2886 4159 
Q 2644 4219 2406 4219 
Q 1781 4219 1451 3797 
Q 1122 3375 1075 2522 
Q 1259 2794 1537 2939 
Q 1816 3084 2150 3084 
Q 2853 3084 3261 2657 
Q 3669 2231 3669 1497 
Q 3669 778 3244 343 
Q 2819 -91 2113 -91 
Q 1303 -91 875 529 
Q 447 1150 447 2328 
Q 447 3434 972 4092 
Q 1497 4750 2381 4750 
Q 2619 4750 2861 4703 
Q 3103 4656 3366 4563 
z
" transform="scale(0.015625)"/>
       </defs>
       <use xlink:href="#DejaVuSans-36"/>
      </g>
     </g>
    </g>
    <g id="xtick_4">
     <g id="line2d_4">
      <g>
       <use xlink:href="#m42bbd31d0c" x="320.486691" y="241.03375" style="stroke: #000000; stroke-width: 0.8"/>
      </g>
     </g>
     <g id="text_4">
      <!-- 8 -->
      <g transform="translate(317.305441 255.632187) scale(0.1 -0.1)">
       <defs>
        <path id="DejaVuSans-38" d="M 2034 2216 
Q 1584 2216 1326 1975 
Q 1069 1734 1069 1313 
Q 1069 891 1326 650 
Q 1584 409 2034 409 
Q 2484 409 2743 651 
Q 3003 894 3003 1313 
Q 3003 1734 2745 1975 
Q 2488 2216 2034 2216 
z
M 1403 2484 
Q 997 2584 770 2862 
Q 544 3141 544 3541 
Q 544 4100 942 4425 
Q 1341 4750 2034 4750 
Q 2731 4750 3128 4425 
Q 3525 4100 3525 3541 
Q 3525 3141 3298 2862 
Q 3072 2584 2669 2484 
Q 3125 2378 3379 2068 
Q 3634 1759 3634 1313 
Q 3634 634 3220 271 
Q 2806 -91 2034 -91 
Q 1263 -91 848 271 
Q 434 634 434 1313 
Q 434 1759 690 2068 
Q 947 2378 1403 2484 
z
M 1172 3481 
Q 1172 3119 1398 2916 
Q 1625 2713 2034 2713 
Q 2441 2713 2670 2916 
Q 2900 3119 2900 3481 
Q 2900 3844 2670 4047 
Q 2441 4250 2034 4250 
Q 1625 4250 1398 4047 
Q 1172 3844 1172 3481 
z
" transform="scale(0.015625)"/>
       </defs>
       <use xlink:href="#DejaVuSans-38"/>
      </g>
     </g>
    </g>
    <g id="xtick_5">
     <g id="line2d_5">
      <g>
       <use xlink:href="#m42bbd31d0c" x="392.90511" y="241.03375" style="stroke: #000000; stroke-width: 0.8"/>
      </g>
     </g>
     <g id="text_5">
      <!-- 10 -->
      <g transform="translate(386.54261 255.632187) scale(0.1 -0.1)">
       <defs>
        <path id="DejaVuSans-31" d="M 794 531 
L 1825 531 
L 1825 4091 
L 703 3866 
L 703 4441 
L 1819 4666 
L 2450 4666 
L 2450 531 
L 3481 531 
L 3481 0 
L 794 0 
L 794 531 
z
" transform="scale(0.015625)"/>
        <path id="DejaVuSans-30" d="M 2034 4250 
Q 1547 4250 1301 3770 
Q 1056 3291 1056 2328 
Q 1056 1369 1301 889 
Q 1547 409 2034 409 
Q 2525 409 2770 889 
Q 3016 1369 3016 2328 
Q 3016 3291 2770 3770 
Q 2525 4250 2034 4250 
z
M 2034 4750 
Q 2819 4750 3233 4129 
Q 3647 3509 3647 2328 
Q 3647 1150 3233 529 
Q 2819 -91 2034 -91 
Q 1250 -91 836 529 
Q 422 1150 422 2328 
Q 422 3509 836 4129 
Q 1250 4750 2034 4750 
z
" transform="scale(0.015625)"/>
       </defs>
       <use xlink:href="#DejaVuSans-31"/>
       <use xlink:href="#DejaVuSans-30" x="63.623047"/>
      </g>
     </g>
    </g>
    <g id="text_6">
     <!-- wavelength [Å] -->
     <g transform="translate(195.60625 270.994687) scale(0.1 -0.1)">
      <defs>
       <path id="DejaVuSans-77" d="M 269 3500 
L 844 3500 
L 1563 769 
L 2278 3500 
L 2956 3500 
L 3675 769 
L 4391 3500 
L 4966 3500 
L 4050 0 
L 3372 0 
L 2619 2869 
L 1863 0 
L 1184 0 
L 269 3500 
z
" transform="scale(0.015625)"/>
       <path id="DejaVuSans-61" d="M 2194 1759 
Q 1497 1759 1228 1600 
Q 959 1441 959 1056 
Q 959 750 1161 570 
Q 1363 391 1709 391 
Q 2188 391 2477 730 
Q 2766 1069 2766 1631 
L 2766 1759 
L 2194 1759 
z
M 3341 1997 
L 3341 0 
L 2766 0 
L 2766 531 
Q 2569 213 2275 61 
Q 1981 -91 1556 -91 
Q 1019 -91 701 211 
Q 384 513 384 1019 
Q 384 1609 779 1909 
Q 1175 2209 1959 2209 
L 2766 2209 
L 2766 2266 
Q 2766 2663 2505 2880 
Q 2244 3097 1772 3097 
Q 1472 3097 1187 3025 
Q 903 2953 641 2809 
L 641 3341 
Q 956 3463 1253 3523 
Q 1550 3584 1831 3584 
Q 2591 3584 2966 3190 
Q 3341 2797 3341 1997 
z
" transform="scale(0.015625)"/>
       <path id="DejaVuSans-76" d="M 191 3500 
L 800 3500 
L 1894 563 
L 2988 3500 
L 3597 3500 
L 2284 0 
L 1503 0 
L 191 3500 
z
" transform="scale(0.015625)"/>
       <path id="DejaVuSans-65" d="M 3597 1894 
L 3597 1613 
L 953 1613 
Q 991 1019 1311 708 
Q 1631 397 2203 397 
Q 2534 397 2845 478 
Q 3156 559 3463 722 
L 3463 178 
Q 3153 47 2828 -22 
Q 2503 -91 2169 -91 
Q 1331 -91 842 396 
Q 353 884 353 1716 
Q 353 2575 817 3079 
Q 1281 3584 2069 3584 
Q 2775 3584 3186 3129 
Q 3597 2675 3597 1894 
z
M 3022 2063 
Q 3016 2534 2758 2815 
Q 2500 3097 2075 3097 
Q 1594 3097 1305 2825 
Q 1016 2553 972 2059 
L 3022 2063 
z
" transform="scale(0.015625)"/>
       <path id="DejaVuSans-6c" d="M 603 4863 
L 1178 4863 
L 1178 0 
L 603 0 
L 603 4863 
z
" transform="scale(0.015625)"/>
       <path id="DejaVuSans-6e" d="M 3513 2113 
L 3513 0 
L 2938 0 
L 2938 2094 
Q 2938 2591 2744 2837 
Q 2550 3084 2163 3084 
Q 1697 3084 1428 2787 
Q 1159 2491 1159 1978 
L 1159 0 
L 581 0 
L 581 3500 
L 1159 3500 
L 1159 2956 
Q 1366 3272 1645 3428 
Q 1925 3584 2291 3584 
Q 2894 3584 3203 3211 
Q 3513 2838 3513 2113 
z
" transform="scale(0.015625)"/>
       <path id="DejaVuSans-67" d="M 2906 1791 
Q 2906 2416 2648 2759 
Q 2391 3103 1925 3103 
Q 1463 3103 1205 2759 
Q 947 2416 947 1791 
Q 947 1169 1205 825 
Q 1463 481 1925 481 
Q 2391 481 2648 825 
Q 2906 1169 2906 1791 
z
M 3481 434 
Q 3481 -459 3084 -895 
Q 2688 -1331 1869 -1331 
Q 1566 -1331 1297 -1286 
Q 1028 -1241 775 -1147 
L 775 -588 
Q 1028 -725 1275 -790 
Q 1522 -856 1778 -856 
Q 2344 -856 2625 -561 
Q 2906 -266 2906 331 
L 2906 616 
Q 2728 306 2450 153 
Q 2172 0 1784 0 
Q 1141 0 747 490 
Q 353 981 353 1791 
Q 353 2603 747 3093 
Q 1141 3584 1784 3584 
Q 2172 3584 2450 3431 
Q 2728 3278 2906 2969 
L 2906 3500 
L 3481 3500 
L 3481 434 
z
" transform="scale(0.015625)"/>
       <path id="DejaVuSans-74" d="M 1172 4494 
L 1172 3500 
L 2356 3500 
L 2356 3053 
L 1172 3053 
L 1172 1153 
Q 1172 725 1289 603 
Q 1406 481 1766 481 
L 2356 481 
L 2356 0 
L 1766 0 
Q 1100 0 847 248 
Q 594 497 594 1153 
L 594 3053 
L 172 3053 
L 172 3500 
L 594 3500 
L 594 4494 
L 1172 4494 
z
" transform="scale(0.015625)"/>
       <path id="DejaVuSans-68" d="M 3513 2113 
L 3513 0 
L 2938 0 
L 2938 2094 
Q 2938 2591 2744 2837 
Q 2550 3084 2163 3084 
Q 1697 3084 1428 2787 
Q 1159 2491 1159 1978 
L 1159 0 
L 581 0 
L 581 4863 
L 1159 4863 
L 1159 2956 
Q 1366 3272 1645 3428 
Q 1925 3584 2291 3584 
Q 2894 3584 3203 3211 
Q 3513 2838 3513 2113 
z
" transform="scale(0.015625)"/>
       <path id="DejaVuSans-20" transform="scale(0.015625)"/>
       <path id="DejaVuSans-5b" d="M 550 4863 
L 1875 4863 
L 1875 4416 
L 1125 4416 
L 1125 -397 
L 1875 -397 
L 1875 -844 
L 550 -844 
L 550 4863 
z
" transform="scale(0.015625)"/>
       <path id="DejaVuSans-c5" d="M 2663 5081 
Q 2663 5278 2523 5417 
Q 2384 5556 2188 5556 
Q 1988 5556 1852 5420 
Q 1716 5284 1716 5081 
Q 1716 4884 1853 4746 
Q 1991 4609 2188 4609 
Q 2384 4609 2523 4746 
Q 2663 4884 2663 5081 
z
M 2188 4044 
L 1338 1722 
L 3041 1722 
L 2188 4044 
z
M 1716 4366 
Q 1525 4494 1428 4673 
Q 1331 4853 1331 5081 
Q 1331 5441 1579 5691 
Q 1828 5941 2188 5941 
Q 2544 5941 2795 5689 
Q 3047 5438 3047 5081 
Q 3047 4863 2948 4678 
Q 2850 4494 2663 4366 
L 4325 0 
L 3669 0 
L 3244 1197 
L 1141 1197 
L 716 0 
L 50 0 
L 1716 4366 
z
" transform="scale(0.015625)"/>
       <path id="DejaVuSans-5d" d="M 1947 4863 
L 1947 -844 
L 622 -844 
L 622 -397 
L 1369 -397 
L 1369 4416 
L 622 4416 
L 622 4863 
L 1947 4863 
z
" transform="scale(0.015625)"/>
      </defs>
      <use xlink:href="#DejaVuSans-77"/>
      <use xlink:href="#DejaVuSans-61" x="81.787109"/>
      <use xlink:href="#DejaVuSans-76" x="143.066406"/>
      <use xlink:href="#DejaVuSans-65" x="202.246094"/>
      <use xlink:href="#DejaVuSans-6c" x="263.769531"/>
      <use xlink:href="#DejaVuSans-65" x="291.552734"/>
      <use xlink:href="#DejaVuSans-6e" x="353.076172"/>
      <use xlink:href="#DejaVuSans-67" x="416.455078"/>
      <use xlink:href="#DejaVuSans-74" x="479.931641"/>
      <use xlink:href="#DejaVuSans-68" x="519.140625"/>
      <use xlink:href="#DejaVuSans-20" x="582.519531"/>
      <use xlink:href="#DejaVuSans-5b" x="614.306641"/>
      <use xlink:href="#DejaVuSans-c5" x="653.320312"/>
      <use xlink:href="#DejaVuSans-5d" x="721.728516"/>
     </g>
    </g>
   </g>
   <g id="matplotlib.axis_2">
    <g id="ytick_1">
     <g id="line2d_6">
      <defs>
       <path id="mcc4b724185" d="M 0 0 
L -3.5 0 
" style="stroke: #000000; stroke-width: 0.8"/>
      </defs>
      <g>
       <use xlink:href="#mcc4b724185" x="50.14375" y="211.994247" style="stroke: #000000; stroke-width: 0.8"/>
      </g>
     </g>
     <g id="text_7">
      <!-- 0.25 -->
      <g transform="translate(20.878125 215.793466) scale(0.1 -0.1)">
       <defs>
        <path id="DejaVuSans-2e" d="M 684 794 
L 1344 794 
L 1344 0 
L 684 0 
L 684 794 
z
" transform="scale(0.015625)"/>
        <path id="DejaVuSans-35" d="M 691 4666 
L 3169 4666 
L 3169 4134 
L 1269 4134 
L 1269 2991 
Q 1406 3038 1543 3061 
Q 1681 3084 1819 3084 
Q 2600 3084 3056 2656 
Q 3513 2228 3513 1497 
Q 3513 744 3044 326 
Q 2575 -91 1722 -91 
Q 1428 -91 1123 -41 
Q 819 9 494 109 
L 494 744 
Q 775 591 1075 516 
Q 1375 441 1709 441 
Q 2250 441 2565 725 
Q 2881 1009 2881 1497 
Q 2881 1984 2565 2268 
Q 2250 2553 1709 2553 
Q 1456 2553 1204 2497 
Q 953 2441 691 2322 
L 691 4666 
z
" transform="scale(0.015625)"/>
       </defs>
       <use xlink:href="#DejaVuSans-30"/>
       <use xlink:href="#DejaVuSans-2e" x="63.623047"/>
       <use xlink:href="#DejaVuSans-32" x="95.410156"/>
       <use xlink:href="#DejaVuSans-35" x="159.033203"/>
      </g>
     </g>
    </g>
    <g id="ytick_2">
     <g id="line2d_7">
      <g>
       <use xlink:href="#mcc4b724185" x="50.14375" y="180.38592" style="stroke: #000000; stroke-width: 0.8"/>
      </g>
     </g>
     <g id="text_8">
      <!-- 0.50 -->
      <g transform="translate(20.878125 184.185138) scale(0.1 -0.1)">
       <use xlink:href="#DejaVuSans-30"/>
       <use xlink:href="#DejaVuSans-2e" x="63.623047"/>
       <use xlink:href="#DejaVuSans-35" x="95.410156"/>
       <use xlink:href="#DejaVuSans-30" x="159.033203"/>
      </g>
     </g>
    </g>
    <g id="ytick_3">
     <g id="line2d_8">
      <g>
       <use xlink:href="#mcc4b724185" x="50.14375" y="148.777592" style="stroke: #000000; stroke-width: 0.8"/>
      </g>
     </g>
     <g id="text_9">
      <!-- 0.75 -->
      <g transform="translate(20.878125 152.576811) scale(0.1 -0.1)">
       <defs>
        <path id="DejaVuSans-37" d="M 525 4666 
L 3525 4666 
L 3525 4397 
L 1831 0 
L 1172 0 
L 2766 4134 
L 525 4134 
L 525 4666 
z
" transform="scale(0.015625)"/>
       </defs>
       <use xlink:href="#DejaVuSans-30"/>
       <use xlink:href="#DejaVuSans-2e" x="63.623047"/>
       <use xlink:href="#DejaVuSans-37" x="95.410156"/>
       <use xlink:href="#DejaVuSans-35" x="159.033203"/>
      </g>
     </g>
    </g>
    <g id="ytick_4">
     <g id="line2d_9">
      <g>
       <use xlink:href="#mcc4b724185" x="50.14375" y="117.169265" style="stroke: #000000; stroke-width: 0.8"/>
      </g>
     </g>
     <g id="text_10">
      <!-- 1.00 -->
      <g transform="translate(20.878125 120.968483) scale(0.1 -0.1)">
       <use xlink:href="#DejaVuSans-31"/>
       <use xlink:href="#DejaVuSans-2e" x="63.623047"/>
       <use xlink:href="#DejaVuSans-30" x="95.410156"/>
       <use xlink:href="#DejaVuSans-30" x="159.033203"/>
      </g>
     </g>
    </g>
    <g id="ytick_5">
     <g id="line2d_10">
      <g>
       <use xlink:href="#mcc4b724185" x="50.14375" y="85.560937" style="stroke: #000000; stroke-width: 0.8"/>
      </g>
     </g>
     <g id="text_11">
      <!-- 1.25 -->
      <g transform="translate(20.878125 89.360156) scale(0.1 -0.1)">
       <use xlink:href="#DejaVuSans-31"/>
       <use xlink:href="#DejaVuSans-2e" x="63.623047"/>
       <use xlink:href="#DejaVuSans-32" x="95.410156"/>
       <use xlink:href="#DejaVuSans-35" x="159.033203"/>
      </g>
     </g>
    </g>
    <g id="ytick_6">
     <g id="line2d_11">
      <g>
       <use xlink:href="#mcc4b724185" x="50.14375" y="53.95261" style="stroke: #000000; stroke-width: 0.8"/>
      </g>
     </g>
     <g id="text_12">
      <!-- 1.50 -->
      <g transform="translate(20.878125 57.751828) scale(0.1 -0.1)">
       <use xlink:href="#DejaVuSans-31"/>
       <use xlink:href="#DejaVuSans-2e" x="63.623047"/>
       <use xlink:href="#DejaVuSans-35" x="95.410156"/>
       <use xlink:href="#DejaVuSans-30" x="159.033203"/>
      </g>
     </g>
    </g>
    <g id="ytick_7">
     <g id="line2d_12">
      <g>
       <use xlink:href="#mcc4b724185" x="50.14375" y="22.344282" style="stroke: #000000; stroke-width: 0.8"/>
      </g>
     </g>
     <g id="text_13">
      <!-- 1.75 -->
      <g transform="translate(20.878125 26.143501) scale(0.1 -0.1)">
       <use xlink:href="#DejaVuSans-31"/>
       <use xlink:href="#DejaVuSans-2e" x="63.623047"/>
       <use xlink:href="#DejaVuSans-37" x="95.410156"/>
       <use xlink:href="#DejaVuSans-35" x="159.033203"/>
      </g>
     </g>
    </g>
    <g id="text_14">
     <!-- [dimensionless] -->
     <g transform="translate(14.798438 163.594219) rotate(-90) scale(0.1 -0.1)">
      <defs>
       <path id="DejaVuSans-64" d="M 2906 2969 
L 2906 4863 
L 3481 4863 
L 3481 0 
L 2906 0 
L 2906 525 
Q 2725 213 2448 61 
Q 2172 -91 1784 -91 
Q 1150 -91 751 415 
Q 353 922 353 1747 
Q 353 2572 751 3078 
Q 1150 3584 1784 3584 
Q 2172 3584 2448 3432 
Q 2725 3281 2906 2969 
z
M 947 1747 
Q 947 1113 1208 752 
Q 1469 391 1925 391 
Q 2381 391 2643 752 
Q 2906 1113 2906 1747 
Q 2906 2381 2643 2742 
Q 2381 3103 1925 3103 
Q 1469 3103 1208 2742 
Q 947 2381 947 1747 
z
" transform="scale(0.015625)"/>
       <path id="DejaVuSans-69" d="M 603 3500 
L 1178 3500 
L 1178 0 
L 603 0 
L 603 3500 
z
M 603 4863 
L 1178 4863 
L 1178 4134 
L 603 4134 
L 603 4863 
z
" transform="scale(0.015625)"/>
       <path id="DejaVuSans-6d" d="M 3328 2828 
Q 3544 3216 3844 3400 
Q 4144 3584 4550 3584 
Q 5097 3584 5394 3201 
Q 5691 2819 5691 2113 
L 5691 0 
L 5113 0 
L 5113 2094 
Q 5113 2597 4934 2840 
Q 4756 3084 4391 3084 
Q 3944 3084 3684 2787 
Q 3425 2491 3425 1978 
L 3425 0 
L 2847 0 
L 2847 2094 
Q 2847 2600 2669 2842 
Q 2491 3084 2119 3084 
Q 1678 3084 1418 2786 
Q 1159 2488 1159 1978 
L 1159 0 
L 581 0 
L 581 3500 
L 1159 3500 
L 1159 2956 
Q 1356 3278 1631 3431 
Q 1906 3584 2284 3584 
Q 2666 3584 2933 3390 
Q 3200 3197 3328 2828 
z
" transform="scale(0.015625)"/>
       <path id="DejaVuSans-73" d="M 2834 3397 
L 2834 2853 
Q 2591 2978 2328 3040 
Q 2066 3103 1784 3103 
Q 1356 3103 1142 2972 
Q 928 2841 928 2578 
Q 928 2378 1081 2264 
Q 1234 2150 1697 2047 
L 1894 2003 
Q 2506 1872 2764 1633 
Q 3022 1394 3022 966 
Q 3022 478 2636 193 
Q 2250 -91 1575 -91 
Q 1294 -91 989 -36 
Q 684 19 347 128 
L 347 722 
Q 666 556 975 473 
Q 1284 391 1588 391 
Q 1994 391 2212 530 
Q 2431 669 2431 922 
Q 2431 1156 2273 1281 
Q 2116 1406 1581 1522 
L 1381 1569 
Q 847 1681 609 1914 
Q 372 2147 372 2553 
Q 372 3047 722 3315 
Q 1072 3584 1716 3584 
Q 2034 3584 2315 3537 
Q 2597 3491 2834 3397 
z
" transform="scale(0.015625)"/>
       <path id="DejaVuSans-6f" d="M 1959 3097 
Q 1497 3097 1228 2736 
Q 959 2375 959 1747 
Q 959 1119 1226 758 
Q 1494 397 1959 397 
Q 2419 397 2687 759 
Q 2956 1122 2956 1747 
Q 2956 2369 2687 2733 
Q 2419 3097 1959 3097 
z
M 1959 3584 
Q 2709 3584 3137 3096 
Q 3566 2609 3566 1747 
Q 3566 888 3137 398 
Q 2709 -91 1959 -91 
Q 1206 -91 779 398 
Q 353 888 353 1747 
Q 353 2609 779 3096 
Q 1206 3584 1959 3584 
z
" transform="scale(0.015625)"/>
      </defs>
      <use xlink:href="#DejaVuSans-5b"/>
      <use xlink:href="#DejaVuSans-64" x="39.013672"/>
      <use xlink:href="#DejaVuSans-69" x="102.490234"/>
      <use xlink:href="#DejaVuSans-6d" x="130.273438"/>
      <use xlink:href="#DejaVuSans-65" x="227.685547"/>
      <use xlink:href="#DejaVuSans-6e" x="289.208984"/>
      <use xlink:href="#DejaVuSans-73" x="352.587891"/>
      <use xlink:href="#DejaVuSans-69" x="404.6875"/>
      <use xlink:href="#DejaVuSans-6f" x="432.470703"/>
      <use xlink:href="#DejaVuSans-6e" x="493.652344"/>
      <use xlink:href="#DejaVuSans-6c" x="557.03125"/>
      <use xlink:href="#DejaVuSans-65" x="584.814453"/>
      <use xlink:href="#DejaVuSans-73" x="646.337891"/>
      <use xlink:href="#DejaVuSans-73" x="698.4375"/>
      <use xlink:href="#DejaVuSans-5d" x="750.537109"/>
     </g>
    </g>
   </g>
   <g id="patch_3">
    <path d="M 50.14375 241.03375 
L 50.14375 7.2 
" style="fill: none; stroke: #000000; stroke-width: 0.8; stroke-linejoin: miter; stroke-linecap: square"/>
   </g>
   <g id="patch_4">
    <path d="M 417.14375 241.03375 
L 417.14375 7.2 
" style="fill: none; stroke: #000000; stroke-width: 0.8; stroke-linejoin: miter; stroke-linecap: square"/>
   </g>
   <g id="patch_5">
    <path d="M 50.14375 241.03375 
L 417.14375 241.03375 
" style="fill: none; stroke: #000000; stroke-width: 0.8; stroke-linejoin: miter; stroke-linecap: square"/>
   </g>
   <g id="patch_6">
    <path d="M 50.14375 7.2 
L 417.14375 7.2 
" style="fill: none; stroke: #000000; stroke-width: 0.8; stroke-linejoin: miter; stroke-linecap: square"/>
   </g>
   <g id="line2d_13">
    <path d="M 66.825568 17.828807 
L 68.384617 17.828807 
L 68.384617 51.079125 
L 69.943665 51.079125 
L 69.943665 54.090337 
L 71.502713 54.090337 
L 71.502713 44.426812 
L 73.061762 44.426812 
L 73.061762 62.345399 
L 74.62081 62.345399 
L 74.62081 59.155627 
L 76.179859 59.155627 
L 76.179859 52.5236 
L 77.738907 52.5236 
L 77.738907 53.820908 
L 79.297956 53.820908 
L 79.297956 60.293887 
L 80.857004 60.293887 
L 80.857004 54.448149 
L 82.416052 54.448149 
L 82.416052 56.743632 
L 83.975101 56.743632 
L 83.975101 66.545062 
L 85.534149 66.545062 
L 85.534149 47.616544 
L 87.093198 47.616544 
L 87.093198 57.199804 
L 88.652246 57.199804 
L 88.652246 63.746739 
L 90.211295 63.746739 
L 90.211295 50.322618 
L 91.770343 50.322618 
L 91.770343 59.145654 
L 93.329391 59.145654 
L 93.329391 80.952742 
L 94.88844 80.952742 
L 94.88844 71.782948 
L 96.447488 71.782948 
L 96.447488 70.13718 
L 98.006537 70.13718 
L 98.006537 68.541069 
L 99.565585 68.541069 
L 99.565585 68.135377 
L 101.124634 68.135377 
L 101.124634 67.949162 
L 102.683682 67.949162 
L 102.683682 76.694785 
L 104.24273 76.694785 
L 104.24273 82.873039 
L 105.801779 82.873039 
L 105.801779 78.967372 
L 107.360827 78.967372 
L 107.360827 85.106608 
L 108.919876 85.106608 
L 108.919876 83.751928 
L 110.478924 83.751928 
L 110.478924 81.411712 
L 112.037973 81.411712 
L 112.037973 90.778499 
L 113.597021 90.778499 
L 113.597021 77.50672 
L 115.156069 77.50672 
L 115.156069 96.701577 
L 116.715118 96.701577 
L 116.715118 85.97322 
L 118.274166 85.97322 
L 118.274166 88.034043 
L 119.833215 88.034043 
L 119.833215 84.390258 
L 121.392263 84.390258 
L 121.392263 97.796419 
L 122.951312 97.796419 
L 122.951312 92.432313 
L 124.51036 92.432313 
L 124.51036 78.689562 
L 126.069408 78.689562 
L 126.069408 89.118584 
L 127.628457 89.118584 
L 127.628457 100.841784 
L 129.187505 100.841784 
L 129.187505 92.824127 
L 130.746554 92.824127 
L 130.746554 102.751431 
L 132.305602 102.751431 
L 132.305602 106.710384 
L 133.864651 106.710384 
L 133.864651 97.811702 
L 135.423699 97.811702 
L 135.423699 97.608954 
L 136.982747 97.608954 
L 136.982747 105.32475 
L 138.541796 105.32475 
L 138.541796 107.216004 
L 140.100844 107.216004 
L 140.100844 104.823925 
L 141.659893 104.823925 
L 141.659893 116.065044 
L 143.218941 116.065044 
L 143.218941 102.980638 
L 144.77799 102.980638 
L 144.77799 116.486579 
L 146.337038 116.486579 
L 146.337038 120.539022 
L 147.896086 120.539022 
L 147.896086 109.084224 
L 149.455135 109.084224 
L 149.455135 129.993955 
L 151.014183 129.993955 
L 151.014183 122.343346 
L 152.573232 122.343346 
L 152.573232 129.087159 
L 154.13228 129.087159 
L 154.13228 118.294366 
L 155.691329 118.294366 
L 155.691329 128.614806 
L 157.250377 128.614806 
L 157.250377 124.255088 
L 158.809425 124.255088 
L 158.809425 122.000232 
L 160.368474 122.000232 
L 160.368474 122.739014 
L 161.927522 122.739014 
L 161.927522 132.24604 
L 163.486571 132.24604 
L 163.486571 135.453466 
L 165.045619 135.453466 
L 165.045619 147.586554 
L 166.604668 147.586554 
L 166.604668 128.109277 
L 168.163716 128.109277 
L 168.163716 135.082814 
L 169.722764 135.082814 
L 169.722764 133.787733 
L 171.281813 133.787733 
L 171.281813 136.620543 
L 172.840861 136.620543 
L 172.840861 130.947254 
L 174.39991 130.947254 
L 174.39991 122.589771 
L 175.958958 122.589771 
L 175.958958 116.75743 
L 177.518007 116.75743 
L 177.518007 93.020641 
L 179.077055 93.020641 
L 179.077055 82.167201 
L 180.636103 82.167201 
L 180.636103 59.77612 
L 182.195152 59.77612 
L 182.195152 44.453026 
L 183.7542 44.453026 
L 183.7542 59.913973 
L 185.313249 59.913973 
L 185.313249 48.084397 
L 186.872297 48.084397 
L 186.872297 52.928858 
L 188.431346 52.928858 
L 188.431346 41.521995 
L 189.990394 41.521995 
L 189.990394 38.21513 
L 191.549442 38.21513 
L 191.549442 38.009813 
L 193.108491 38.009813 
L 193.108491 29.765368 
L 194.667539 29.765368 
L 194.667539 49.048448 
L 196.226588 49.048448 
L 196.226588 44.279372 
L 197.785636 44.279372 
L 197.785636 50.596579 
L 199.344685 50.596579 
L 199.344685 25.153121 
L 200.903733 25.153121 
L 200.903733 45.159055 
L 202.462781 45.159055 
L 202.462781 51.981196 
L 204.02183 51.981196 
L 204.02183 55.111367 
L 205.580878 55.111367 
L 205.580878 61.271105 
L 207.139927 61.271105 
L 207.139927 36.889707 
L 208.698975 36.889707 
L 208.698975 52.053397 
L 210.258024 52.053397 
L 210.258024 69.448795 
L 211.817072 69.448795 
L 211.817072 52.360076 
L 213.37612 52.360076 
L 213.37612 59.29391 
L 214.935169 59.29391 
L 214.935169 63.632034 
L 216.494217 63.632034 
L 216.494217 47.164244 
L 218.053266 47.164244 
L 218.053266 66.651152 
L 219.612314 66.651152 
L 219.612314 68.683345 
L 221.171363 68.683345 
L 221.171363 76.82395 
L 222.730411 76.82395 
L 222.730411 80.62711 
L 224.289459 80.62711 
L 224.289459 86.383214 
L 225.848508 86.383214 
L 225.848508 78.906552 
L 227.407556 78.906552 
L 227.407556 71.851705 
L 228.966605 71.851705 
L 228.966605 79.252346 
L 230.525653 79.252346 
L 230.525653 72.545744 
L 232.084702 72.545744 
L 232.084702 84.450101 
L 233.64375 84.450101 
L 233.64375 77.894236 
L 235.202798 77.894236 
L 235.202798 76.299269 
L 236.761847 76.299269 
L 236.761847 79.93396 
L 238.320895 79.93396 
L 238.320895 93.84161 
L 239.879944 93.84161 
L 239.879944 85.627481 
L 241.438992 85.627481 
L 241.438992 73.79732 
L 242.998041 73.79732 
L 242.998041 74.125115 
L 244.557089 74.125115 
L 244.557089 97.613522 
L 246.116137 97.613522 
L 246.116137 100.08718 
L 247.675186 100.08718 
L 247.675186 86.139346 
L 249.234234 86.139346 
L 249.234234 92.886472 
L 250.793283 92.886472 
L 250.793283 102.224742 
L 252.352331 102.224742 
L 252.352331 92.96469 
L 253.91138 92.96469 
L 253.91138 86.645891 
L 255.470428 86.645891 
L 255.470428 102.970872 
L 257.029476 102.970872 
L 257.029476 99.431707 
L 258.588525 99.431707 
L 258.588525 89.863083 
L 260.147573 89.863083 
L 260.147573 108.496455 
L 261.706622 108.496455 
L 261.706622 108.138314 
L 263.26567 108.138314 
L 263.26567 111.856941 
L 264.824719 111.856941 
L 264.824719 108.390993 
L 266.383767 108.390993 
L 266.383767 116.121113 
L 267.942815 116.121113 
L 267.942815 118.598624 
L 269.501864 118.598624 
L 269.501864 127.050826 
L 271.060912 127.050826 
L 271.060912 111.906832 
L 272.619961 111.906832 
L 272.619961 117.564369 
L 274.179009 117.564369 
L 274.179009 108.30647 
L 275.738058 108.30647 
L 275.738058 120.355588 
L 277.297106 120.355588 
L 277.297106 117.169265 
L 278.856154 117.169265 
L 278.856154 112.87429 
L 280.415203 112.87429 
L 280.415203 128.191006 
L 281.974251 128.191006 
L 281.974251 119.419468 
L 283.5333 119.419468 
L 283.5333 119.054319 
L 285.092348 119.054319 
L 285.092348 118.001976 
L 286.651397 118.001976 
L 286.651397 132.667541 
L 288.210445 132.667541 
L 288.210445 123.250509 
L 289.769493 123.250509 
L 289.769493 128.930503 
L 291.328542 128.930503 
L 291.328542 131.695645 
L 292.88759 131.695645 
L 292.88759 137.811438 
L 294.446639 137.811438 
L 294.446639 139.511949 
L 296.005687 139.511949 
L 296.005687 130.003748 
L 297.564736 130.003748 
L 297.564736 125.704236 
L 299.123784 125.704236 
L 299.123784 134.213313 
L 300.682832 134.213313 
L 300.682832 145.136674 
L 302.241881 145.136674 
L 302.241881 141.107672 
L 303.800929 141.107672 
L 303.800929 150.731096 
L 305.359978 150.731096 
L 305.359978 138.843546 
L 306.919026 138.843546 
L 306.919026 139.811938 
L 308.478075 139.811938 
L 308.478075 152.621419 
L 310.037123 152.621419 
L 310.037123 143.304289 
L 311.596171 143.304289 
L 311.596171 146.578752 
L 313.15522 146.578752 
L 313.15522 148.475281 
L 314.714268 148.475281 
L 314.714268 156.939998 
L 316.273317 156.939998 
L 316.273317 150.260778 
L 317.832365 150.260778 
L 317.832365 151.329395 
L 319.391414 151.329395 
L 319.391414 152.877417 
L 320.950462 152.877417 
L 320.950462 159.181172 
L 322.50951 159.181172 
L 322.50951 168.024406 
L 324.068559 168.024406 
L 324.068559 161.176439 
L 325.627607 161.176439 
L 325.627607 163.692344 
L 327.186656 163.692344 
L 327.186656 165.909837 
L 328.745704 165.909837 
L 328.745704 162.080989 
L 330.304753 162.080989 
L 330.304753 163.033662 
L 331.863801 163.033662 
L 331.863801 174.238957 
L 333.422849 174.238957 
L 333.422849 173.290825 
L 334.981898 173.290825 
L 334.981898 174.699766 
L 336.540946 174.699766 
L 336.540946 168.154871 
L 338.099995 168.154871 
L 338.099995 176.251497 
L 339.659043 176.251497 
L 339.659043 175.583012 
L 341.218092 175.583012 
L 341.218092 175.342405 
L 342.77714 175.342405 
L 342.77714 175.750032 
L 344.336188 175.750032 
L 344.336188 179.185156 
L 345.895237 179.185156 
L 345.895237 184.174931 
L 347.454285 184.174931 
L 347.454285 184.966837 
L 349.013334 184.966837 
L 349.013334 183.8535 
L 350.572382 183.8535 
L 350.572382 186.349755 
L 352.131431 186.349755 
L 352.131431 188.222695 
L 353.690479 188.222695 
L 353.690479 185.014754 
L 355.249527 185.014754 
L 355.249527 190.855764 
L 356.808576 190.855764 
L 356.808576 196.257912 
L 358.367624 196.257912 
L 358.367624 194.111033 
L 359.926673 194.111033 
L 359.926673 193.479793 
L 361.485721 193.479793 
L 361.485721 197.149442 
L 363.04477 197.149442 
L 363.04477 200.194241 
L 364.603818 200.194241 
L 364.603818 198.373339 
L 366.162866 198.373339 
L 366.162866 201.192243 
L 367.721915 201.192243 
L 367.721915 200.23063 
L 369.280963 200.23063 
L 369.280963 198.015769 
L 370.840012 198.015769 
L 370.840012 201.139552 
L 372.39906 201.139552 
L 372.39906 204.005329 
L 373.958109 204.005329 
L 373.958109 205.352673 
L 375.517157 205.352673 
L 375.517157 207.906963 
L 377.076205 207.906963 
L 377.076205 214.066924 
L 378.635254 214.066924 
L 378.635254 210.764481 
L 380.194302 210.764481 
L 380.194302 210.996814 
L 381.753351 210.996814 
L 381.753351 213.074874 
L 383.312399 213.074874 
L 383.312399 216.569137 
L 384.871448 216.569137 
L 384.871448 217.443959 
L 386.430496 217.443959 
L 386.430496 220.959756 
L 387.989544 220.959756 
L 387.989544 220.758374 
L 389.548593 220.758374 
L 389.548593 221.746488 
L 391.107641 221.746488 
L 391.107641 221.578708 
L 392.66669 221.578708 
L 392.66669 225.580589 
L 394.225738 225.580589 
L 394.225738 226.19509 
L 395.784787 226.19509 
L 395.784787 230.404943 
L 398.902883 230.319698 
L 398.902883 227.021157 
L 400.461932 227.021157 
L 400.461932 227.021157 
" clip-path="url(#p300587382f)" style="fill: none; stroke: #1f77b4; stroke-width: 1.5; stroke-linecap: square"/>
   </g>
   <g id="LineCollection_1">
    <path clip-path="url(#p300587382f)" style="fill: none; stroke: #1f77b4; stroke-width: 1.5"/>
    <path clip-path="url(#p300587382f)" style="fill: none; stroke: #1f77b4; stroke-width: 1.5"/>
    <path clip-path="url(#p300587382f)" style="fill: none; stroke: #1f77b4; stroke-width: 1.5"/>
    <path clip-path="url(#p300587382f)" style="fill: none; stroke: #1f77b4; stroke-width: 1.5"/>
    <path clip-path="url(#p300587382f)" style="fill: none; stroke: #1f77b4; stroke-width: 1.5"/>
    <path clip-path="url(#p300587382f)" style="fill: none; stroke: #1f77b4; stroke-width: 1.5"/>
    <path clip-path="url(#p300587382f)" style="fill: none; stroke: #1f77b4; stroke-width: 1.5"/>
    <path clip-path="url(#p300587382f)" style="fill: none; stroke: #1f77b4; stroke-width: 1.5"/>
    <path clip-path="url(#p300587382f)" style="fill: none; stroke: #1f77b4; stroke-width: 1.5"/>
    <path clip-path="url(#p300587382f)" style="fill: none; stroke: #1f77b4; stroke-width: 1.5"/>
    <path clip-path="url(#p300587382f)" style="fill: none; stroke: #1f77b4; stroke-width: 1.5"/>
    <path clip-path="url(#p300587382f)" style="fill: none; stroke: #1f77b4; stroke-width: 1.5"/>
    <path clip-path="url(#p300587382f)" style="fill: none; stroke: #1f77b4; stroke-width: 1.5"/>
    <path clip-path="url(#p300587382f)" style="fill: none; stroke: #1f77b4; stroke-width: 1.5"/>
    <path clip-path="url(#p300587382f)" style="fill: none; stroke: #1f77b4; stroke-width: 1.5"/>
    <path clip-path="url(#p300587382f)" style="fill: none; stroke: #1f77b4; stroke-width: 1.5"/>
    <path clip-path="url(#p300587382f)" style="fill: none; stroke: #1f77b4; stroke-width: 1.5"/>
    <path clip-path="url(#p300587382f)" style="fill: none; stroke: #1f77b4; stroke-width: 1.5"/>
    <path clip-path="url(#p300587382f)" style="fill: none; stroke: #1f77b4; stroke-width: 1.5"/>
    <path clip-path="url(#p300587382f)" style="fill: none; stroke: #1f77b4; stroke-width: 1.5"/>
    <path clip-path="url(#p300587382f)" style="fill: none; stroke: #1f77b4; stroke-width: 1.5"/>
    <path d="M 67.605092 61.341016 
L 67.605092 -1 
" clip-path="url(#p300587382f)" style="fill: none; stroke: #1f77b4; stroke-width: 1.5"/>
    <path d="M 69.164141 66.330387 
L 69.164141 35.827864 
" clip-path="url(#p300587382f)" style="fill: none; stroke: #1f77b4; stroke-width: 1.5"/>
    <path d="M 70.723189 65.511712 
L 70.723189 42.668961 
" clip-path="url(#p300587382f)" style="fill: none; stroke: #1f77b4; stroke-width: 1.5"/>
    <path d="M 72.282238 54.362177 
L 72.282238 34.491448 
" clip-path="url(#p300587382f)" style="fill: none; stroke: #1f77b4; stroke-width: 1.5"/>
    <path d="M 73.841286 70.07276 
L 73.841286 54.618038 
" clip-path="url(#p300587382f)" style="fill: none; stroke: #1f77b4; stroke-width: 1.5"/>
    <path d="M 75.400335 66.836298 
L 75.400335 51.474955 
" clip-path="url(#p300587382f)" style="fill: none; stroke: #1f77b4; stroke-width: 1.5"/>
    <path d="M 76.959383 60.604856 
L 76.959383 44.442344 
" clip-path="url(#p300587382f)" style="fill: none; stroke: #1f77b4; stroke-width: 1.5"/>
    <path d="M 78.518431 61.72738 
L 78.518431 45.914436 
" clip-path="url(#p300587382f)" style="fill: none; stroke: #1f77b4; stroke-width: 1.5"/>
    <path d="M 80.07748 67.956526 
L 80.07748 52.631249 
" clip-path="url(#p300587382f)" style="fill: none; stroke: #1f77b4; stroke-width: 1.5"/>
    <path d="M 81.636528 62.624181 
L 81.636528 46.272117 
" clip-path="url(#p300587382f)" style="fill: none; stroke: #1f77b4; stroke-width: 1.5"/>
    <path d="M 83.195577 64.781996 
L 83.195577 48.705268 
" clip-path="url(#p300587382f)" style="fill: none; stroke: #1f77b4; stroke-width: 1.5"/>
    <path d="M 84.754625 73.897591 
L 84.754625 59.192533 
" clip-path="url(#p300587382f)" style="fill: none; stroke: #1f77b4; stroke-width: 1.5"/>
    <path d="M 86.313674 56.100059 
L 86.313674 39.133029 
" clip-path="url(#p300587382f)" style="fill: none; stroke: #1f77b4; stroke-width: 1.5"/>
    <path d="M 87.872722 65.18295 
L 87.872722 49.216658 
" clip-path="url(#p300587382f)" style="fill: none; stroke: #1f77b4; stroke-width: 1.5"/>
    <path d="M 89.43177 71.47225 
L 89.43177 56.021228 
" clip-path="url(#p300587382f)" style="fill: none; stroke: #1f77b4; stroke-width: 1.5"/>
    <path d="M 90.990819 58.50487 
L 90.990819 42.140365 
" clip-path="url(#p300587382f)" style="fill: none; stroke: #1f77b4; stroke-width: 1.5"/>
    <path d="M 92.549867 67.070952 
L 92.549867 51.220355 
" clip-path="url(#p300587382f)" style="fill: none; stroke: #1f77b4; stroke-width: 1.5"/>
    <path d="M 94.108916 87.900724 
L 94.108916 74.004759 
" clip-path="url(#p300587382f)" style="fill: none; stroke: #1f77b4; stroke-width: 1.5"/>
    <path d="M 95.667964 79.032755 
L 95.667964 64.533141 
" clip-path="url(#p300587382f)" style="fill: none; stroke: #1f77b4; stroke-width: 1.5"/>
    <path d="M 97.227013 77.681509 
L 97.227013 62.592851 
" clip-path="url(#p300587382f)" style="fill: none; stroke: #1f77b4; stroke-width: 1.5"/>
    <path d="M 98.786061 75.94816 
L 98.786061 61.133977 
" clip-path="url(#p300587382f)" style="fill: none; stroke: #1f77b4; stroke-width: 1.5"/>
    <path d="M 100.345109 75.863394 
L 100.345109 60.407359 
" clip-path="url(#p300587382f)" style="fill: none; stroke: #1f77b4; stroke-width: 1.5"/>
    <path d="M 101.904158 75.411032 
L 101.904158 60.487292 
" clip-path="url(#p300587382f)" style="fill: none; stroke: #1f77b4; stroke-width: 1.5"/>
    <path d="M 103.463206 83.840002 
L 103.463206 69.549567 
" clip-path="url(#p300587382f)" style="fill: none; stroke: #1f77b4; stroke-width: 1.5"/>
    <path d="M 105.022255 89.921659 
L 105.022255 75.824418 
" clip-path="url(#p300587382f)" style="fill: none; stroke: #1f77b4; stroke-width: 1.5"/>
    <path d="M 106.581303 86.145604 
L 106.581303 71.78914 
" clip-path="url(#p300587382f)" style="fill: none; stroke: #1f77b4; stroke-width: 1.5"/>
    <path d="M 108.140352 91.915841 
L 108.140352 78.297375 
" clip-path="url(#p300587382f)" style="fill: none; stroke: #1f77b4; stroke-width: 1.5"/>
    <path d="M 109.6994 90.652642 
L 109.6994 76.851214 
" clip-path="url(#p300587382f)" style="fill: none; stroke: #1f77b4; stroke-width: 1.5"/>
    <path d="M 111.258448 88.479927 
L 111.258448 74.343497 
" clip-path="url(#p300587382f)" style="fill: none; stroke: #1f77b4; stroke-width: 1.5"/>
    <path d="M 112.817497 97.520137 
L 112.817497 84.036861 
" clip-path="url(#p300587382f)" style="fill: none; stroke: #1f77b4; stroke-width: 1.5"/>
    <path d="M 114.376545 84.924665 
L 114.376545 70.088775 
" clip-path="url(#p300587382f)" style="fill: none; stroke: #1f77b4; stroke-width: 1.5"/>
    <path d="M 115.935594 103.11566 
L 115.935594 90.287495 
" clip-path="url(#p300587382f)" style="fill: none; stroke: #1f77b4; stroke-width: 1.5"/>
    <path d="M 117.494642 92.949625 
L 117.494642 78.996814 
" clip-path="url(#p300587382f)" style="fill: none; stroke: #1f77b4; stroke-width: 1.5"/>
    <path d="M 119.053691 94.891231 
L 119.053691 81.176856 
" clip-path="url(#p300587382f)" style="fill: none; stroke: #1f77b4; stroke-width: 1.5"/>
    <path d="M 120.612739 91.428769 
L 120.612739 77.351748 
" clip-path="url(#p300587382f)" style="fill: none; stroke: #1f77b4; stroke-width: 1.5"/>
    <path d="M 122.171787 104.122105 
L 122.171787 91.470733 
" clip-path="url(#p300587382f)" style="fill: none; stroke: #1f77b4; stroke-width: 1.5"/>
    <path d="M 123.730836 99.023401 
L 123.730836 85.841224 
" clip-path="url(#p300587382f)" style="fill: none; stroke: #1f77b4; stroke-width: 1.5"/>
    <path d="M 125.289884 86.10397 
L 125.289884 71.275153 
" clip-path="url(#p300587382f)" style="fill: none; stroke: #1f77b4; stroke-width: 1.5"/>
    <path d="M 126.848933 95.97181 
L 126.848933 82.265359 
" clip-path="url(#p300587382f)" style="fill: none; stroke: #1f77b4; stroke-width: 1.5"/>
    <path d="M 128.407981 107.354665 
L 128.407981 94.328903 
" clip-path="url(#p300587382f)" style="fill: none; stroke: #1f77b4; stroke-width: 1.5"/>
    <path d="M 129.96703 99.492372 
L 129.96703 86.155883 
" clip-path="url(#p300587382f)" style="fill: none; stroke: #1f77b4; stroke-width: 1.5"/>
    <path d="M 131.526078 109.176379 
L 131.526078 96.326483 
" clip-path="url(#p300587382f)" style="fill: none; stroke: #1f77b4; stroke-width: 1.5"/>
    <path d="M 133.085126 112.854142 
L 133.085126 100.566625 
" clip-path="url(#p300587382f)" style="fill: none; stroke: #1f77b4; stroke-width: 1.5"/>
    <path d="M 134.644175 104.330313 
L 134.644175 91.293091 
" clip-path="url(#p300587382f)" style="fill: none; stroke: #1f77b4; stroke-width: 1.5"/>
    <path d="M 136.203223 104.286387 
L 136.203223 90.931522 
" clip-path="url(#p300587382f)" style="fill: none; stroke: #1f77b4; stroke-width: 1.5"/>
    <path d="M 137.762272 111.63928 
L 137.762272 99.01022 
" clip-path="url(#p300587382f)" style="fill: none; stroke: #1f77b4; stroke-width: 1.5"/>
    <path d="M 139.32132 113.391203 
L 139.32132 101.040805 
" clip-path="url(#p300587382f)" style="fill: none; stroke: #1f77b4; stroke-width: 1.5"/>
    <path d="M 140.880369 111.251083 
L 140.880369 98.396766 
" clip-path="url(#p300587382f)" style="fill: none; stroke: #1f77b4; stroke-width: 1.5"/>
    <path d="M 142.439417 122.011568 
L 142.439417 110.118519 
" clip-path="url(#p300587382f)" style="fill: none; stroke: #1f77b4; stroke-width: 1.5"/>
    <path d="M 143.998465 109.440241 
L 143.998465 96.521034 
" clip-path="url(#p300587382f)" style="fill: none; stroke: #1f77b4; stroke-width: 1.5"/>
    <path d="M 145.557514 122.386224 
L 145.557514 110.586935 
" clip-path="url(#p300587382f)" style="fill: none; stroke: #1f77b4; stroke-width: 1.5"/>
    <path d="M 147.116562 126.260337 
L 147.116562 114.817708 
" clip-path="url(#p300587382f)" style="fill: none; stroke: #1f77b4; stroke-width: 1.5"/>
    <path d="M 148.675611 115.305324 
L 148.675611 102.863124 
" clip-path="url(#p300587382f)" style="fill: none; stroke: #1f77b4; stroke-width: 1.5"/>
    <path d="M 150.234659 135.27992 
L 150.234659 124.70799 
" clip-path="url(#p300587382f)" style="fill: none; stroke: #1f77b4; stroke-width: 1.5"/>
    <path d="M 151.793708 127.957281 
L 151.793708 116.72941 
" clip-path="url(#p300587382f)" style="fill: none; stroke: #1f77b4; stroke-width: 1.5"/>
    <path d="M 153.352756 134.404192 
L 153.352756 123.770125 
" clip-path="url(#p300587382f)" style="fill: none; stroke: #1f77b4; stroke-width: 1.5"/>
    <path d="M 154.911804 124.217988 
L 154.911804 112.370744 
" clip-path="url(#p300587382f)" style="fill: none; stroke: #1f77b4; stroke-width: 1.5"/>
    <path d="M 156.470853 134.020502 
L 156.470853 123.209111 
" clip-path="url(#p300587382f)" style="fill: none; stroke: #1f77b4; stroke-width: 1.5"/>
    <path d="M 158.029901 129.932624 
L 158.029901 118.577551 
" clip-path="url(#p300587382f)" style="fill: none; stroke: #1f77b4; stroke-width: 1.5"/>
    <path d="M 159.58895 127.738493 
L 159.58895 116.261971 
" clip-path="url(#p300587382f)" style="fill: none; stroke: #1f77b4; stroke-width: 1.5"/>
    <path d="M 161.147998 128.4764 
L 161.147998 117.001628 
" clip-path="url(#p300587382f)" style="fill: none; stroke: #1f77b4; stroke-width: 1.5"/>
    <path d="M 162.707047 137.508945 
L 162.707047 126.983135 
" clip-path="url(#p300587382f)" style="fill: none; stroke: #1f77b4; stroke-width: 1.5"/>
    <path d="M 164.266095 140.554485 
L 164.266095 130.352448 
" clip-path="url(#p300587382f)" style="fill: none; stroke: #1f77b4; stroke-width: 1.5"/>
    <path d="M 165.825143 152.129287 
L 165.825143 143.043821 
" clip-path="url(#p300587382f)" style="fill: none; stroke: #1f77b4; stroke-width: 1.5"/>
    <path d="M 167.384192 133.641311 
L 167.384192 122.577244 
" clip-path="url(#p300587382f)" style="fill: none; stroke: #1f77b4; stroke-width: 1.5"/>
    <path d="M 168.94324 140.199226 
L 168.94324 129.966402 
" clip-path="url(#p300587382f)" style="fill: none; stroke: #1f77b4; stroke-width: 1.5"/>
    <path d="M 170.502289 139.010787 
L 170.502289 128.56468 
" clip-path="url(#p300587382f)" style="fill: none; stroke: #1f77b4; stroke-width: 1.5"/>
    <path d="M 172.061337 141.750185 
L 172.061337 131.490902 
" clip-path="url(#p300587382f)" style="fill: none; stroke: #1f77b4; stroke-width: 1.5"/>
    <path d="M 173.620386 136.311607 
L 173.620386 125.5829 
" clip-path="url(#p300587382f)" style="fill: none; stroke: #1f77b4; stroke-width: 1.5"/>
    <path d="M 175.179434 128.25497 
L 175.179434 116.924572 
" clip-path="url(#p300587382f)" style="fill: none; stroke: #1f77b4; stroke-width: 1.5"/>
    <path d="M 176.738482 122.663604 
L 176.738482 110.851256 
" clip-path="url(#p300587382f)" style="fill: none; stroke: #1f77b4; stroke-width: 1.5"/>
    <path d="M 178.297531 99.787375 
L 178.297531 86.253908 
" clip-path="url(#p300587382f)" style="fill: none; stroke: #1f77b4; stroke-width: 1.5"/>
    <path d="M 179.856579 89.161348 
L 179.856579 75.173054 
" clip-path="url(#p300587382f)" style="fill: none; stroke: #1f77b4; stroke-width: 1.5"/>
    <path d="M 181.415628 67.732295 
L 181.415628 51.819944 
" clip-path="url(#p300587382f)" style="fill: none; stroke: #1f77b4; stroke-width: 1.5"/>
    <path d="M 182.974676 52.825418 
L 182.974676 36.080634 
" clip-path="url(#p300587382f)" style="fill: none; stroke: #1f77b4; stroke-width: 1.5"/>
    <path d="M 184.533725 67.5972 
L 184.533725 52.230746 
" clip-path="url(#p300587382f)" style="fill: none; stroke: #1f77b4; stroke-width: 1.5"/>
    <path d="M 186.092773 56.233027 
L 186.092773 39.935767 
" clip-path="url(#p300587382f)" style="fill: none; stroke: #1f77b4; stroke-width: 1.5"/>
    <path d="M 187.651821 60.751796 
L 187.651821 45.10592 
" clip-path="url(#p300587382f)" style="fill: none; stroke: #1f77b4; stroke-width: 1.5"/>
    <path d="M 189.21087 49.877042 
L 189.21087 33.166948 
" clip-path="url(#p300587382f)" style="fill: none; stroke: #1f77b4; stroke-width: 1.5"/>
    <path d="M 190.769918 46.693933 
L 190.769918 29.736327 
" clip-path="url(#p300587382f)" style="fill: none; stroke: #1f77b4; stroke-width: 1.5"/>
    <path d="M 192.328967 46.661336 
L 192.328967 29.35829 
" clip-path="url(#p300587382f)" style="fill: none; stroke: #1f77b4; stroke-width: 1.5"/>
    <path d="M 193.888015 38.658605 
L 193.888015 20.87213 
" clip-path="url(#p300587382f)" style="fill: none; stroke: #1f77b4; stroke-width: 1.5"/>
    <path d="M 195.447064 57.194918 
L 195.447064 40.901979 
" clip-path="url(#p300587382f)" style="fill: none; stroke: #1f77b4; stroke-width: 1.5"/>
    <path d="M 197.006112 52.644093 
L 197.006112 35.91465 
" clip-path="url(#p300587382f)" style="fill: none; stroke: #1f77b4; stroke-width: 1.5"/>
    <path d="M 198.56516 58.769527 
L 198.56516 42.423631 
" clip-path="url(#p300587382f)" style="fill: none; stroke: #1f77b4; stroke-width: 1.5"/>
    <path d="M 200.124209 34.358896 
L 200.124209 15.947346 
" clip-path="url(#p300587382f)" style="fill: none; stroke: #1f77b4; stroke-width: 1.5"/>
    <path d="M 201.683257 53.562212 
L 201.683257 36.755899 
" clip-path="url(#p300587382f)" style="fill: none; stroke: #1f77b4; stroke-width: 1.5"/>
    <path d="M 203.242306 59.940688 
L 203.242306 44.021704 
" clip-path="url(#p300587382f)" style="fill: none; stroke: #1f77b4; stroke-width: 1.5"/>
    <path d="M 204.801354 62.886235 
L 204.801354 47.336499 
" clip-path="url(#p300587382f)" style="fill: none; stroke: #1f77b4; stroke-width: 1.5"/>
    <path d="M 206.360403 68.766781 
L 206.360403 53.775428 
" clip-path="url(#p300587382f)" style="fill: none; stroke: #1f77b4; stroke-width: 1.5"/>
    <path d="M 207.919451 45.617752 
L 207.919451 28.161663 
" clip-path="url(#p300587382f)" style="fill: none; stroke: #1f77b4; stroke-width: 1.5"/>
    <path d="M 209.478499 60.137536 
L 209.478499 43.969258 
" clip-path="url(#p300587382f)" style="fill: none; stroke: #1f77b4; stroke-width: 1.5"/>
    <path d="M 211.037548 76.776185 
L 211.037548 62.121405 
" clip-path="url(#p300587382f)" style="fill: none; stroke: #1f77b4; stroke-width: 1.5"/>
    <path d="M 212.596596 60.517422 
L 212.596596 44.20273 
" clip-path="url(#p300587382f)" style="fill: none; stroke: #1f77b4; stroke-width: 1.5"/>
    <path d="M 214.155645 67.1204 
L 214.155645 51.46742 
" clip-path="url(#p300587382f)" style="fill: none; stroke: #1f77b4; stroke-width: 1.5"/>
    <path d="M 215.714693 71.262883 
L 215.714693 56.001186 
" clip-path="url(#p300587382f)" style="fill: none; stroke: #1f77b4; stroke-width: 1.5"/>
    <path d="M 217.273742 55.587099 
L 217.273742 38.741389 
" clip-path="url(#p300587382f)" style="fill: none; stroke: #1f77b4; stroke-width: 1.5"/>
    <path d="M 218.83279 74.306697 
L 218.83279 58.995606 
" clip-path="url(#p300587382f)" style="fill: none; stroke: #1f77b4; stroke-width: 1.5"/>
    <path d="M 220.391838 76.104991 
L 220.391838 61.261699 
" clip-path="url(#p300587382f)" style="fill: none; stroke: #1f77b4; stroke-width: 1.5"/>
    <path d="M 221.950887 84.048174 
L 221.950887 69.599726 
" clip-path="url(#p300587382f)" style="fill: none; stroke: #1f77b4; stroke-width: 1.5"/>
    <path d="M 223.509935 87.519063 
L 223.509935 73.735156 
" clip-path="url(#p300587382f)" style="fill: none; stroke: #1f77b4; stroke-width: 1.5"/>
    <path d="M 225.068984 93.195373 
L 225.068984 79.571055 
" clip-path="url(#p300587382f)" style="fill: none; stroke: #1f77b4; stroke-width: 1.5"/>
    <path d="M 226.628032 85.872915 
L 226.628032 71.94019 
" clip-path="url(#p300587382f)" style="fill: none; stroke: #1f77b4; stroke-width: 1.5"/>
    <path d="M 228.187081 79.221169 
L 228.187081 64.482241 
" clip-path="url(#p300587382f)" style="fill: none; stroke: #1f77b4; stroke-width: 1.5"/>
    <path d="M 229.746129 86.282371 
L 229.746129 72.222322 
" clip-path="url(#p300587382f)" style="fill: none; stroke: #1f77b4; stroke-width: 1.5"/>
    <path d="M 231.305177 79.923099 
L 231.305177 65.168388 
" clip-path="url(#p300587382f)" style="fill: none; stroke: #1f77b4; stroke-width: 1.5"/>
    <path d="M 232.864226 91.407425 
L 232.864226 77.492778 
" clip-path="url(#p300587382f)" style="fill: none; stroke: #1f77b4; stroke-width: 1.5"/>
    <path d="M 234.423274 85.070609 
L 234.423274 70.717864 
" clip-path="url(#p300587382f)" style="fill: none; stroke: #1f77b4; stroke-width: 1.5"/>
    <path d="M 235.982323 83.457768 
L 235.982323 69.140769 
" clip-path="url(#p300587382f)" style="fill: none; stroke: #1f77b4; stroke-width: 1.5"/>
    <path d="M 237.541371 87.157288 
L 237.541371 72.710633 
" clip-path="url(#p300587382f)" style="fill: none; stroke: #1f77b4; stroke-width: 1.5"/>
    <path d="M 239.100419 100.33501 
L 239.100419 87.34821 
" clip-path="url(#p300587382f)" style="fill: none; stroke: #1f77b4; stroke-width: 1.5"/>
    <path d="M 240.659468 92.504555 
L 240.659468 78.750407 
" clip-path="url(#p300587382f)" style="fill: none; stroke: #1f77b4; stroke-width: 1.5"/>
    <path d="M 242.218516 81.16374 
L 242.218516 66.4309 
" clip-path="url(#p300587382f)" style="fill: none; stroke: #1f77b4; stroke-width: 1.5"/>
    <path d="M 243.777565 81.631682 
L 243.777565 66.618549 
" clip-path="url(#p300587382f)" style="fill: none; stroke: #1f77b4; stroke-width: 1.5"/>
    <path d="M 245.336613 104.149441 
L 245.336613 91.077602 
" clip-path="url(#p300587382f)" style="fill: none; stroke: #1f77b4; stroke-width: 1.5"/>
    <path d="M 246.895662 106.384309 
L 246.895662 93.790051 
" clip-path="url(#p300587382f)" style="fill: none; stroke: #1f77b4; stroke-width: 1.5"/>
    <path d="M 248.45471 93.076187 
L 248.45471 79.202504 
" clip-path="url(#p300587382f)" style="fill: none; stroke: #1f77b4; stroke-width: 1.5"/>
    <path d="M 250.013758 99.581137 
L 250.013758 86.191807 
" clip-path="url(#p300587382f)" style="fill: none; stroke: #1f77b4; stroke-width: 1.5"/>
    <path d="M 251.572807 108.518007 
L 251.572807 95.931476 
" clip-path="url(#p300587382f)" style="fill: none; stroke: #1f77b4; stroke-width: 1.5"/>
    <path d="M 253.131855 99.820461 
L 253.131855 86.108918 
" clip-path="url(#p300587382f)" style="fill: none; stroke: #1f77b4; stroke-width: 1.5"/>
    <path d="M 254.690904 93.779782 
L 254.690904 79.512001 
" clip-path="url(#p300587382f)" style="fill: none; stroke: #1f77b4; stroke-width: 1.5"/>
    <path d="M 256.249952 109.308756 
L 256.249952 96.632987 
" clip-path="url(#p300587382f)" style="fill: none; stroke: #1f77b4; stroke-width: 1.5"/>
    <path d="M 257.809001 106.048799 
L 257.809001 92.814615 
" clip-path="url(#p300587382f)" style="fill: none; stroke: #1f77b4; stroke-width: 1.5"/>
    <path d="M 259.368049 96.823814 
L 259.368049 82.902352 
" clip-path="url(#p300587382f)" style="fill: none; stroke: #1f77b4; stroke-width: 1.5"/>
    <path d="M 260.927097 114.650565 
L 260.927097 102.342344 
" clip-path="url(#p300587382f)" style="fill: none; stroke: #1f77b4; stroke-width: 1.5"/>
    <path d="M 262.486146 114.334752 
L 262.486146 101.941876 
" clip-path="url(#p300587382f)" style="fill: none; stroke: #1f77b4; stroke-width: 1.5"/>
    <path d="M 264.045194 117.83431 
L 264.045194 105.879572 
" clip-path="url(#p300587382f)" style="fill: none; stroke: #1f77b4; stroke-width: 1.5"/>
    <path d="M 265.604243 114.445788 
L 265.604243 102.336199 
" clip-path="url(#p300587382f)" style="fill: none; stroke: #1f77b4; stroke-width: 1.5"/>
    <path d="M 267.163291 121.912783 
L 267.163291 110.329442 
" clip-path="url(#p300587382f)" style="fill: none; stroke: #1f77b4; stroke-width: 1.5"/>
    <path d="M 268.72234 124.282181 
L 268.72234 112.915066 
" clip-path="url(#p300587382f)" style="fill: none; stroke: #1f77b4; stroke-width: 1.5"/>
    <path d="M 270.281388 132.377841 
L 270.281388 121.723811 
" clip-path="url(#p300587382f)" style="fill: none; stroke: #1f77b4; stroke-width: 1.5"/>
    <path d="M 271.840436 117.930133 
L 271.840436 105.883532 
" clip-path="url(#p300587382f)" style="fill: none; stroke: #1f77b4; stroke-width: 1.5"/>
    <path d="M 273.399485 123.321706 
L 273.399485 111.807031 
" clip-path="url(#p300587382f)" style="fill: none; stroke: #1f77b4; stroke-width: 1.5"/>
    <path d="M 274.958533 114.534253 
L 274.958533 102.078686 
" clip-path="url(#p300587382f)" style="fill: none; stroke: #1f77b4; stroke-width: 1.5"/>
    <path d="M 276.517582 125.925194 
L 276.517582 114.785982 
" clip-path="url(#p300587382f)" style="fill: none; stroke: #1f77b4; stroke-width: 1.5"/>
    <path d="M 278.07663 123.010527 
L 278.07663 111.328002 
" clip-path="url(#p300587382f)" style="fill: none; stroke: #1f77b4; stroke-width: 1.5"/>
    <path d="M 279.635679 118.848251 
L 279.635679 106.900329 
" clip-path="url(#p300587382f)" style="fill: none; stroke: #1f77b4; stroke-width: 1.5"/>
    <path d="M 281.194727 133.479449 
L 281.194727 122.902563 
" clip-path="url(#p300587382f)" style="fill: none; stroke: #1f77b4; stroke-width: 1.5"/>
    <path d="M 282.753775 125.303245 
L 282.753775 113.535692 
" clip-path="url(#p300587382f)" style="fill: none; stroke: #1f77b4; stroke-width: 1.5"/>
    <path d="M 284.312824 124.824069 
L 284.312824 113.28457 
" clip-path="url(#p300587382f)" style="fill: none; stroke: #1f77b4; stroke-width: 1.5"/>
    <path d="M 285.871872 123.896736 
L 285.871872 112.107215 
" clip-path="url(#p300587382f)" style="fill: none; stroke: #1f77b4; stroke-width: 1.5"/>
    <path d="M 287.430921 137.988676 
L 287.430921 127.346406 
" clip-path="url(#p300587382f)" style="fill: none; stroke: #1f77b4; stroke-width: 1.5"/>
    <path d="M 288.989969 129.014426 
L 288.989969 117.486592 
" clip-path="url(#p300587382f)" style="fill: none; stroke: #1f77b4; stroke-width: 1.5"/>
    <path d="M 290.549018 134.336636 
L 290.549018 123.52437 
" clip-path="url(#p300587382f)" style="fill: none; stroke: #1f77b4; stroke-width: 1.5"/>
    <path d="M 292.108066 137.022406 
L 292.108066 126.368884 
" clip-path="url(#p300587382f)" style="fill: none; stroke: #1f77b4; stroke-width: 1.5"/>
    <path d="M 293.667114 142.818299 
L 293.667114 132.804576 
" clip-path="url(#p300587382f)" style="fill: none; stroke: #1f77b4; stroke-width: 1.5"/>
    <path d="M 295.226163 144.506268 
L 295.226163 134.51763 
" clip-path="url(#p300587382f)" style="fill: none; stroke: #1f77b4; stroke-width: 1.5"/>
    <path d="M 296.785211 135.430202 
L 296.785211 124.577294 
" clip-path="url(#p300587382f)" style="fill: none; stroke: #1f77b4; stroke-width: 1.5"/>
    <path d="M 298.34426 131.445242 
L 298.34426 119.963231 
" clip-path="url(#p300587382f)" style="fill: none; stroke: #1f77b4; stroke-width: 1.5"/>
    <path d="M 299.903308 139.552262 
L 299.903308 128.874364 
" clip-path="url(#p300587382f)" style="fill: none; stroke: #1f77b4; stroke-width: 1.5"/>
    <path d="M 301.462357 149.887864 
L 301.462357 140.385484 
" clip-path="url(#p300587382f)" style="fill: none; stroke: #1f77b4; stroke-width: 1.5"/>
    <path d="M 303.021405 146.160599 
L 303.021405 136.054744 
" clip-path="url(#p300587382f)" style="fill: none; stroke: #1f77b4; stroke-width: 1.5"/>
    <path d="M 304.580453 155.273718 
L 304.580453 146.188473 
" clip-path="url(#p300587382f)" style="fill: none; stroke: #1f77b4; stroke-width: 1.5"/>
    <path d="M 306.139502 143.906064 
L 306.139502 133.781029 
" clip-path="url(#p300587382f)" style="fill: none; stroke: #1f77b4; stroke-width: 1.5"/>
    <path d="M 307.69855 144.967481 
L 307.69855 134.656394 
" clip-path="url(#p300587382f)" style="fill: none; stroke: #1f77b4; stroke-width: 1.5"/>
    <path d="M 309.257599 157.080121 
L 309.257599 148.162717 
" clip-path="url(#p300587382f)" style="fill: none; stroke: #1f77b4; stroke-width: 1.5"/>
    <path d="M 310.816647 148.265261 
L 310.816647 138.343317 
" clip-path="url(#p300587382f)" style="fill: none; stroke: #1f77b4; stroke-width: 1.5"/>
    <path d="M 312.375696 151.433228 
L 312.375696 141.724276 
" clip-path="url(#p300587382f)" style="fill: none; stroke: #1f77b4; stroke-width: 1.5"/>
    <path d="M 313.934744 153.207927 
L 313.934744 143.742635 
" clip-path="url(#p300587382f)" style="fill: none; stroke: #1f77b4; stroke-width: 1.5"/>
    <path d="M 315.493792 161.370047 
L 315.493792 152.509949 
" clip-path="url(#p300587382f)" style="fill: none; stroke: #1f77b4; stroke-width: 1.5"/>
    <path d="M 317.052841 154.885845 
L 317.052841 145.635711 
" clip-path="url(#p300587382f)" style="fill: none; stroke: #1f77b4; stroke-width: 1.5"/>
    <path d="M 318.611889 155.990197 
L 318.611889 146.668592 
" clip-path="url(#p300587382f)" style="fill: none; stroke: #1f77b4; stroke-width: 1.5"/>
    <path d="M 320.170938 157.417077 
L 320.170938 148.337757 
" clip-path="url(#p300587382f)" style="fill: none; stroke: #1f77b4; stroke-width: 1.5"/>
    <path d="M 321.729986 163.500774 
L 321.729986 154.86157 
" clip-path="url(#p300587382f)" style="fill: none; stroke: #1f77b4; stroke-width: 1.5"/>
    <path d="M 323.289035 171.957439 
L 323.289035 164.091372 
" clip-path="url(#p300587382f)" style="fill: none; stroke: #1f77b4; stroke-width: 1.5"/>
    <path d="M 324.848083 165.537933 
L 324.848083 156.814945 
" clip-path="url(#p300587382f)" style="fill: none; stroke: #1f77b4; stroke-width: 1.5"/>
    <path d="M 326.407131 167.916701 
L 326.407131 159.467987 
" clip-path="url(#p300587382f)" style="fill: none; stroke: #1f77b4; stroke-width: 1.5"/>
    <path d="M 327.96618 169.991348 
L 327.96618 161.828326 
" clip-path="url(#p300587382f)" style="fill: none; stroke: #1f77b4; stroke-width: 1.5"/>
    <path d="M 329.525228 166.35281 
L 329.525228 157.809169 
" clip-path="url(#p300587382f)" style="fill: none; stroke: #1f77b4; stroke-width: 1.5"/>
    <path d="M 331.084277 167.270711 
L 331.084277 158.796614 
" clip-path="url(#p300587382f)" style="fill: none; stroke: #1f77b4; stroke-width: 1.5"/>
    <path d="M 332.643325 177.967349 
L 332.643325 170.510566 
" clip-path="url(#p300587382f)" style="fill: none; stroke: #1f77b4; stroke-width: 1.5"/>
    <path d="M 334.202374 177.030792 
L 334.202374 169.550858 
" clip-path="url(#p300587382f)" style="fill: none; stroke: #1f77b4; stroke-width: 1.5"/>
    <path d="M 335.761422 178.473696 
L 335.761422 170.925836 
" clip-path="url(#p300587382f)" style="fill: none; stroke: #1f77b4; stroke-width: 1.5"/>
    <path d="M 337.32047 172.22377 
L 337.32047 164.085973 
" clip-path="url(#p300587382f)" style="fill: none; stroke: #1f77b4; stroke-width: 1.5"/>
    <path d="M 338.879519 179.961955 
L 338.879519 172.541039 
" clip-path="url(#p300587382f)" style="fill: none; stroke: #1f77b4; stroke-width: 1.5"/>
    <path d="M 340.438567 179.268072 
L 340.438567 171.897951 
" clip-path="url(#p300587382f)" style="fill: none; stroke: #1f77b4; stroke-width: 1.5"/>
    <path d="M 341.997616 179.153492 
L 341.997616 171.531318 
" clip-path="url(#p300587382f)" style="fill: none; stroke: #1f77b4; stroke-width: 1.5"/>
    <path d="M 343.556664 179.577243 
L 343.556664 171.922821 
" clip-path="url(#p300587382f)" style="fill: none; stroke: #1f77b4; stroke-width: 1.5"/>
    <path d="M 345.115713 182.891426 
L 345.115713 175.478886 
" clip-path="url(#p300587382f)" style="fill: none; stroke: #1f77b4; stroke-width: 1.5"/>
    <path d="M 346.674761 187.582919 
L 346.674761 180.766942 
" clip-path="url(#p300587382f)" style="fill: none; stroke: #1f77b4; stroke-width: 1.5"/>
    <path d="M 348.233809 188.318493 
L 348.233809 181.61518 
" clip-path="url(#p300587382f)" style="fill: none; stroke: #1f77b4; stroke-width: 1.5"/>
    <path d="M 349.792858 187.279053 
L 349.792858 180.427947 
" clip-path="url(#p300587382f)" style="fill: none; stroke: #1f77b4; stroke-width: 1.5"/>
    <path d="M 351.351906 189.669941 
L 351.351906 183.029569 
" clip-path="url(#p300587382f)" style="fill: none; stroke: #1f77b4; stroke-width: 1.5"/>
    <path d="M 352.910955 191.447853 
L 352.910955 184.997537 
" clip-path="url(#p300587382f)" style="fill: none; stroke: #1f77b4; stroke-width: 1.5"/>
    <path d="M 354.470003 188.382082 
L 354.470003 181.647427 
" clip-path="url(#p300587382f)" style="fill: none; stroke: #1f77b4; stroke-width: 1.5"/>
    <path d="M 356.029052 194.003286 
L 356.029052 187.708242 
" clip-path="url(#p300587382f)" style="fill: none; stroke: #1f77b4; stroke-width: 1.5"/>
    <path d="M 357.5881 199.229065 
L 357.5881 193.28676 
" clip-path="url(#p300587382f)" style="fill: none; stroke: #1f77b4; stroke-width: 1.5"/>
    <path d="M 359.147148 197.162603 
L 359.147148 191.059463 
" clip-path="url(#p300587382f)" style="fill: none; stroke: #1f77b4; stroke-width: 1.5"/>
    <path d="M 360.706197 196.619005 
L 360.706197 190.34058 
" clip-path="url(#p300587382f)" style="fill: none; stroke: #1f77b4; stroke-width: 1.5"/>
    <path d="M 362.265245 200.073966 
L 362.265245 194.224918 
" clip-path="url(#p300587382f)" style="fill: none; stroke: #1f77b4; stroke-width: 1.5"/>
    <path d="M 363.824294 202.955425 
L 363.824294 197.433056 
" clip-path="url(#p300587382f)" style="fill: none; stroke: #1f77b4; stroke-width: 1.5"/>
    <path d="M 365.383342 201.202525 
L 365.383342 195.544153 
" clip-path="url(#p300587382f)" style="fill: none; stroke: #1f77b4; stroke-width: 1.5"/>
    <path d="M 366.942391 203.936267 
L 366.942391 198.448218 
" clip-path="url(#p300587382f)" style="fill: none; stroke: #1f77b4; stroke-width: 1.5"/>
    <path d="M 368.501439 203.049274 
L 368.501439 197.411987 
" clip-path="url(#p300587382f)" style="fill: none; stroke: #1f77b4; stroke-width: 1.5"/>
    <path d="M 370.060487 201.040723 
L 370.060487 194.990815 
" clip-path="url(#p300587382f)" style="fill: none; stroke: #1f77b4; stroke-width: 1.5"/>
    <path d="M 371.619536 203.922531 
L 371.619536 198.356572 
" clip-path="url(#p300587382f)" style="fill: none; stroke: #1f77b4; stroke-width: 1.5"/>
    <path d="M 373.178584 206.693184 
L 373.178584 201.317474 
" clip-path="url(#p300587382f)" style="fill: none; stroke: #1f77b4; stroke-width: 1.5"/>
    <path d="M 374.737633 207.98511 
L 374.737633 202.720237 
" clip-path="url(#p300587382f)" style="fill: none; stroke: #1f77b4; stroke-width: 1.5"/>
    <path d="M 376.296681 210.404223 
L 376.296681 205.409704 
" clip-path="url(#p300587382f)" style="fill: none; stroke: #1f77b4; stroke-width: 1.5"/>
    <path d="M 377.85573 216.239463 
L 377.85573 211.894386 
" clip-path="url(#p300587382f)" style="fill: none; stroke: #1f77b4; stroke-width: 1.5"/>
    <path d="M 379.414778 213.109614 
L 379.414778 208.419347 
" clip-path="url(#p300587382f)" style="fill: none; stroke: #1f77b4; stroke-width: 1.5"/>
    <path d="M 380.973826 213.372239 
L 380.973826 208.621389 
" clip-path="url(#p300587382f)" style="fill: none; stroke: #1f77b4; stroke-width: 1.5"/>
    <path d="M 382.532875 215.337459 
L 382.532875 210.812288 
" clip-path="url(#p300587382f)" style="fill: none; stroke: #1f77b4; stroke-width: 1.5"/>
    <path d="M 384.091923 218.701987 
L 384.091923 214.436286 
" clip-path="url(#p300587382f)" style="fill: none; stroke: #1f77b4; stroke-width: 1.5"/>
    <path d="M 385.650972 219.551098 
L 385.650972 215.336819 
" clip-path="url(#p300587382f)" style="fill: none; stroke: #1f77b4; stroke-width: 1.5"/>
    <path d="M 387.21002 222.829064 
L 387.21002 219.090449 
" clip-path="url(#p300587382f)" style="fill: none; stroke: #1f77b4; stroke-width: 1.5"/>
    <path d="M 388.769069 222.726913 
L 388.769069 218.789836 
" clip-path="url(#p300587382f)" style="fill: none; stroke: #1f77b4; stroke-width: 1.5"/>
    <path d="M 390.328117 223.629566 
L 390.328117 219.863411 
" clip-path="url(#p300587382f)" style="fill: none; stroke: #1f77b4; stroke-width: 1.5"/>
    <path d="M 391.887165 223.453728 
L 391.887165 219.703688 
" clip-path="url(#p300587382f)" style="fill: none; stroke: #1f77b4; stroke-width: 1.5"/>
    <path d="M 393.446214 227.276659 
L 393.446214 223.884519 
" clip-path="url(#p300587382f)" style="fill: none; stroke: #1f77b4; stroke-width: 1.5"/>
    <path d="M 395.005262 228.100044 
L 395.005262 224.290136 
" clip-path="url(#p300587382f)" style="fill: none; stroke: #1f77b4; stroke-width: 1.5"/>
    <path d="M 396.564311 232.366365 
L 396.564311 228.443521 
" clip-path="url(#p300587382f)" style="fill: none; stroke: #1f77b4; stroke-width: 1.5"/>
    <path d="M 398.123359 233.006916 
L 398.123359 227.63248 
" clip-path="url(#p300587382f)" style="fill: none; stroke: #1f77b4; stroke-width: 1.5"/>
    <path d="M 399.682408 233.256155 
L 399.682408 220.786159 
" clip-path="url(#p300587382f)" style="fill: none; stroke: #1f77b4; stroke-width: 1.5"/>
    <path clip-path="url(#p300587382f)" style="fill: none; stroke: #1f77b4; stroke-width: 1.5"/>
    <path clip-path="url(#p300587382f)" style="fill: none; stroke: #1f77b4; stroke-width: 1.5"/>
    <path clip-path="url(#p300587382f)" style="fill: none; stroke: #1f77b4; stroke-width: 1.5"/>
    <path clip-path="url(#p300587382f)" style="fill: none; stroke: #1f77b4; stroke-width: 1.5"/>
    <path clip-path="url(#p300587382f)" style="fill: none; stroke: #1f77b4; stroke-width: 1.5"/>
    <path clip-path="url(#p300587382f)" style="fill: none; stroke: #1f77b4; stroke-width: 1.5"/>
    <path clip-path="url(#p300587382f)" style="fill: none; stroke: #1f77b4; stroke-width: 1.5"/>
    <path clip-path="url(#p300587382f)" style="fill: none; stroke: #1f77b4; stroke-width: 1.5"/>
    <path clip-path="url(#p300587382f)" style="fill: none; stroke: #1f77b4; stroke-width: 1.5"/>
    <path clip-path="url(#p300587382f)" style="fill: none; stroke: #1f77b4; stroke-width: 1.5"/>
    <path clip-path="url(#p300587382f)" style="fill: none; stroke: #1f77b4; stroke-width: 1.5"/>
    <path clip-path="url(#p300587382f)" style="fill: none; stroke: #1f77b4; stroke-width: 1.5"/>
    <path clip-path="url(#p300587382f)" style="fill: none; stroke: #1f77b4; stroke-width: 1.5"/>
    <path clip-path="url(#p300587382f)" style="fill: none; stroke: #1f77b4; stroke-width: 1.5"/>
    <path clip-path="url(#p300587382f)" style="fill: none; stroke: #1f77b4; stroke-width: 1.5"/>
    <path clip-path="url(#p300587382f)" style="fill: none; stroke: #1f77b4; stroke-width: 1.5"/>
    <path clip-path="url(#p300587382f)" style="fill: none; stroke: #1f77b4; stroke-width: 1.5"/>
    <path clip-path="url(#p300587382f)" style="fill: none; stroke: #1f77b4; stroke-width: 1.5"/>
    <path clip-path="url(#p300587382f)" style="fill: none; stroke: #1f77b4; stroke-width: 1.5"/>
    <path clip-path="url(#p300587382f)" style="fill: none; stroke: #1f77b4; stroke-width: 1.5"/>
    <path clip-path="url(#p300587382f)" style="fill: none; stroke: #1f77b4; stroke-width: 1.5"/>
   </g>
  </g>
 </g>
 <defs>
  <clipPath id="p300587382f">
   <rect x="50.14375" y="7.2" width="367" height="233.83375"/>
  </clipPath>
 </defs>
</svg>
