<?xml version="1.0" encoding="utf-8" standalone="no"?>
<!DOCTYPE svg PUBLIC "-//W3C//DTD SVG 1.1//EN"
  "http://www.w3.org/Graphics/SVG/1.1/DTD/svg11.dtd">
<svg xmlns:xlink="http://www.w3.org/1999/xlink" width="424.37125pt" height="280.274375pt" viewBox="0 0 424.37125 280.274375" xmlns="http://www.w3.org/2000/svg" version="1.1">
 <metadata>
  <rdf:RDF xmlns:dc="http://purl.org/dc/elements/1.1/" xmlns:cc="http://creativecommons.org/ns#" xmlns:rdf="http://www.w3.org/1999/02/22-rdf-syntax-ns#">
   <cc:Work>
    <dc:type rdf:resource="http://purl.org/dc/dcmitype/StillImage"/>
    <dc:date>2024-01-22T12:10:32.009604</dc:date>
    <dc:format>image/svg+xml</dc:format>
    <dc:creator>
     <cc:Agent>
      <dc:title>Matplotlib v3.7.3, https://matplotlib.org/</dc:title>
     </cc:Agent>
    </dc:creator>
   </cc:Work>
  </rdf:RDF>
 </metadata>
 <defs>
  <style type="text/css">*{stroke-linejoin: round; stroke-linecap: butt}</style>
 </defs>
 <g id="figure_1">
  <g id="patch_1">
   <path d="M 0 280.274375 
L 424.37125 280.274375 
L 424.37125 0 
L 0 0 
z
" style="fill: #ffffff"/>
  </g>
  <g id="axes_1">
   <g id="patch_2">
    <path d="M 43.78125 241.03375 
L 417.17125 241.03375 
L 417.17125 7.2 
L 43.78125 7.2 
z
" style="fill: #ffffff"/>
   </g>
   <g id="matplotlib.axis_1">
    <g id="xtick_1">
     <g id="line2d_1">
      <defs>
       <path id="m35e55a05b8" d="M 0 0 
L 0 3.5 
" style="stroke: #000000; stroke-width: 0.8"/>
      </defs>
      <g>
       <use xlink:href="#m35e55a05b8" x="60.938984" y="241.03375" style="stroke: #000000; stroke-width: 0.8"/>
      </g>
     </g>
     <g id="text_1">
      <!-- 1 -->
      <g transform="translate(57.757734 255.632187) scale(0.1 -0.1)">
       <defs>
        <path id="DejaVuSans-31" d="M 794 531 
L 1825 531 
L 1825 4091 
L 703 3866 
L 703 4441 
L 1819 4666 
L 2450 4666 
L 2450 531 
L 3481 531 
L 3481 0 
L 794 0 
L 794 531 
z
" transform="scale(0.015625)"/>
       </defs>
       <use xlink:href="#DejaVuSans-31"/>
      </g>
     </g>
    </g>
    <g id="xtick_2">
     <g id="line2d_2">
      <g>
       <use xlink:href="#m35e55a05b8" x="104.625503" y="241.03375" style="stroke: #000000; stroke-width: 0.8"/>
      </g>
     </g>
     <g id="text_2">
      <!-- 2 -->
      <g transform="translate(101.444253 255.632187) scale(0.1 -0.1)">
       <defs>
        <path id="DejaVuSans-32" d="M 1228 531 
L 3431 531 
L 3431 0 
L 469 0 
L 469 531 
Q 828 903 1448 1529 
Q 2069 2156 2228 2338 
Q 2531 2678 2651 2914 
Q 2772 3150 2772 3378 
Q 2772 3750 2511 3984 
Q 2250 4219 1831 4219 
Q 1534 4219 1204 4116 
Q 875 4013 500 3803 
L 500 4441 
Q 881 4594 1212 4672 
Q 1544 4750 1819 4750 
Q 2544 4750 2975 4387 
Q 3406 4025 3406 3419 
Q 3406 3131 3298 2873 
Q 3191 2616 2906 2266 
Q 2828 2175 2409 1742 
Q 1991 1309 1228 531 
z
" transform="scale(0.015625)"/>
       </defs>
       <use xlink:href="#DejaVuSans-32"/>
      </g>
     </g>
    </g>
    <g id="xtick_3">
     <g id="line2d_3">
      <g>
       <use xlink:href="#m35e55a05b8" x="148.312022" y="241.03375" style="stroke: #000000; stroke-width: 0.8"/>
      </g>
     </g>
     <g id="text_3">
      <!-- 3 -->
      <g transform="translate(145.130772 255.632187) scale(0.1 -0.1)">
       <defs>
        <path id="DejaVuSans-33" d="M 2597 2516 
Q 3050 2419 3304 2112 
Q 3559 1806 3559 1356 
Q 3559 666 3084 287 
Q 2609 -91 1734 -91 
Q 1441 -91 1130 -33 
Q 819 25 488 141 
L 488 750 
Q 750 597 1062 519 
Q 1375 441 1716 441 
Q 2309 441 2620 675 
Q 2931 909 2931 1356 
Q 2931 1769 2642 2001 
Q 2353 2234 1838 2234 
L 1294 2234 
L 1294 2753 
L 1863 2753 
Q 2328 2753 2575 2939 
Q 2822 3125 2822 3475 
Q 2822 3834 2567 4026 
Q 2313 4219 1838 4219 
Q 1578 4219 1281 4162 
Q 984 4106 628 3988 
L 628 4550 
Q 988 4650 1302 4700 
Q 1616 4750 1894 4750 
Q 2613 4750 3031 4423 
Q 3450 4097 3450 3541 
Q 3450 3153 3228 2886 
Q 3006 2619 2597 2516 
z
" transform="scale(0.015625)"/>
       </defs>
       <use xlink:href="#DejaVuSans-33"/>
      </g>
     </g>
    </g>
    <g id="xtick_4">
     <g id="line2d_4">
      <g>
       <use xlink:href="#m35e55a05b8" x="191.99854" y="241.03375" style="stroke: #000000; stroke-width: 0.8"/>
      </g>
     </g>
     <g id="text_4">
      <!-- 4 -->
      <g transform="translate(188.81729 255.632187) scale(0.1 -0.1)">
       <defs>
        <path id="DejaVuSans-34" d="M 2419 4116 
L 825 1625 
L 2419 1625 
L 2419 4116 
z
M 2253 4666 
L 3047 4666 
L 3047 1625 
L 3713 1625 
L 3713 1100 
L 3047 1100 
L 3047 0 
L 2419 0 
L 2419 1100 
L 313 1100 
L 313 1709 
L 2253 4666 
z
" transform="scale(0.015625)"/>
       </defs>
       <use xlink:href="#DejaVuSans-34"/>
      </g>
     </g>
    </g>
    <g id="xtick_5">
     <g id="line2d_5">
      <g>
       <use xlink:href="#m35e55a05b8" x="235.685059" y="241.03375" style="stroke: #000000; stroke-width: 0.8"/>
      </g>
     </g>
     <g id="text_5">
      <!-- 5 -->
      <g transform="translate(232.503809 255.632187) scale(0.1 -0.1)">
       <defs>
        <path id="DejaVuSans-35" d="M 691 4666 
L 3169 4666 
L 3169 4134 
L 1269 4134 
L 1269 2991 
Q 1406 3038 1543 3061 
Q 1681 3084 1819 3084 
Q 2600 3084 3056 2656 
Q 3513 2228 3513 1497 
Q 3513 744 3044 326 
Q 2575 -91 1722 -91 
Q 1428 -91 1123 -41 
Q 819 9 494 109 
L 494 744 
Q 775 591 1075 516 
Q 1375 441 1709 441 
Q 2250 441 2565 725 
Q 2881 1009 2881 1497 
Q 2881 1984 2565 2268 
Q 2250 2553 1709 2553 
Q 1456 2553 1204 2497 
Q 953 2441 691 2322 
L 691 4666 
z
" transform="scale(0.015625)"/>
       </defs>
       <use xlink:href="#DejaVuSans-35"/>
      </g>
     </g>
    </g>
    <g id="xtick_6">
     <g id="line2d_6">
      <g>
       <use xlink:href="#m35e55a05b8" x="279.371577" y="241.03375" style="stroke: #000000; stroke-width: 0.8"/>
      </g>
     </g>
     <g id="text_6">
      <!-- 6 -->
      <g transform="translate(276.190327 255.632187) scale(0.1 -0.1)">
       <defs>
        <path id="DejaVuSans-36" d="M 2113 2584 
Q 1688 2584 1439 2293 
Q 1191 2003 1191 1497 
Q 1191 994 1439 701 
Q 1688 409 2113 409 
Q 2538 409 2786 701 
Q 3034 994 3034 1497 
Q 3034 2003 2786 2293 
Q 2538 2584 2113 2584 
z
M 3366 4563 
L 3366 3988 
Q 3128 4100 2886 4159 
Q 2644 4219 2406 4219 
Q 1781 4219 1451 3797 
Q 1122 3375 1075 2522 
Q 1259 2794 1537 2939 
Q 1816 3084 2150 3084 
Q 2853 3084 3261 2657 
Q 3669 2231 3669 1497 
Q 3669 778 3244 343 
Q 2819 -91 2113 -91 
Q 1303 -91 875 529 
Q 447 1150 447 2328 
Q 447 3434 972 4092 
Q 1497 4750 2381 4750 
Q 2619 4750 2861 4703 
Q 3103 4656 3366 4563 
z
" transform="scale(0.015625)"/>
       </defs>
       <use xlink:href="#DejaVuSans-36"/>
      </g>
     </g>
    </g>
    <g id="xtick_7">
     <g id="line2d_7">
      <g>
       <use xlink:href="#m35e55a05b8" x="323.058096" y="241.03375" style="stroke: #000000; stroke-width: 0.8"/>
      </g>
     </g>
     <g id="text_7">
      <!-- 7 -->
      <g transform="translate(319.876846 255.632187) scale(0.1 -0.1)">
       <defs>
        <path id="DejaVuSans-37" d="M 525 4666 
L 3525 4666 
L 3525 4397 
L 1831 0 
L 1172 0 
L 2766 4134 
L 525 4134 
L 525 4666 
z
" transform="scale(0.015625)"/>
       </defs>
       <use xlink:href="#DejaVuSans-37"/>
      </g>
     </g>
    </g>
    <g id="xtick_8">
     <g id="line2d_8">
      <g>
       <use xlink:href="#m35e55a05b8" x="366.744614" y="241.03375" style="stroke: #000000; stroke-width: 0.8"/>
      </g>
     </g>
     <g id="text_8">
      <!-- 8 -->
      <g transform="translate(363.563364 255.632187) scale(0.1 -0.1)">
       <defs>
        <path id="DejaVuSans-38" d="M 2034 2216 
Q 1584 2216 1326 1975 
Q 1069 1734 1069 1313 
Q 1069 891 1326 650 
Q 1584 409 2034 409 
Q 2484 409 2743 651 
Q 3003 894 3003 1313 
Q 3003 1734 2745 1975 
Q 2488 2216 2034 2216 
z
M 1403 2484 
Q 997 2584 770 2862 
Q 544 3141 544 3541 
Q 544 4100 942 4425 
Q 1341 4750 2034 4750 
Q 2731 4750 3128 4425 
Q 3525 4100 3525 3541 
Q 3525 3141 3298 2862 
Q 3072 2584 2669 2484 
Q 3125 2378 3379 2068 
Q 3634 1759 3634 1313 
Q 3634 634 3220 271 
Q 2806 -91 2034 -91 
Q 1263 -91 848 271 
Q 434 634 434 1313 
Q 434 1759 690 2068 
Q 947 2378 1403 2484 
z
M 1172 3481 
Q 1172 3119 1398 2916 
Q 1625 2713 2034 2713 
Q 2441 2713 2670 2916 
Q 2900 3119 2900 3481 
Q 2900 3844 2670 4047 
Q 2441 4250 2034 4250 
Q 1625 4250 1398 4047 
Q 1172 3844 1172 3481 
z
" transform="scale(0.015625)"/>
       </defs>
       <use xlink:href="#DejaVuSans-38"/>
      </g>
     </g>
    </g>
    <g id="xtick_9">
     <g id="line2d_9">
      <g>
       <use xlink:href="#m35e55a05b8" x="410.431133" y="241.03375" style="stroke: #000000; stroke-width: 0.8"/>
      </g>
     </g>
     <g id="text_9">
      <!-- 9 -->
      <g transform="translate(407.249883 255.632187) scale(0.1 -0.1)">
       <defs>
        <path id="DejaVuSans-39" d="M 703 97 
L 703 672 
Q 941 559 1184 500 
Q 1428 441 1663 441 
Q 2288 441 2617 861 
Q 2947 1281 2994 2138 
Q 2813 1869 2534 1725 
Q 2256 1581 1919 1581 
Q 1219 1581 811 2004 
Q 403 2428 403 3163 
Q 403 3881 828 4315 
Q 1253 4750 1959 4750 
Q 2769 4750 3195 4129 
Q 3622 3509 3622 2328 
Q 3622 1225 3098 567 
Q 2575 -91 1691 -91 
Q 1453 -91 1209 -44 
Q 966 3 703 97 
z
M 1959 2075 
Q 2384 2075 2632 2365 
Q 2881 2656 2881 3163 
Q 2881 3666 2632 3958 
Q 2384 4250 1959 4250 
Q 1534 4250 1286 3958 
Q 1038 3666 1038 3163 
Q 1038 2656 1286 2365 
Q 1534 2075 1959 2075 
z
" transform="scale(0.015625)"/>
       </defs>
       <use xlink:href="#DejaVuSans-39"/>
      </g>
     </g>
    </g>
    <g id="text_10">
     <!-- wavelength [Å] -->
     <g transform="translate(192.43875 270.994687) scale(0.1 -0.1)">
      <defs>
       <path id="DejaVuSans-77" d="M 269 3500 
L 844 3500 
L 1563 769 
L 2278 3500 
L 2956 3500 
L 3675 769 
L 4391 3500 
L 4966 3500 
L 4050 0 
L 3372 0 
L 2619 2869 
L 1863 0 
L 1184 0 
L 269 3500 
z
" transform="scale(0.015625)"/>
       <path id="DejaVuSans-61" d="M 2194 1759 
Q 1497 1759 1228 1600 
Q 959 1441 959 1056 
Q 959 750 1161 570 
Q 1363 391 1709 391 
Q 2188 391 2477 730 
Q 2766 1069 2766 1631 
L 2766 1759 
L 2194 1759 
z
M 3341 1997 
L 3341 0 
L 2766 0 
L 2766 531 
Q 2569 213 2275 61 
Q 1981 -91 1556 -91 
Q 1019 -91 701 211 
Q 384 513 384 1019 
Q 384 1609 779 1909 
Q 1175 2209 1959 2209 
L 2766 2209 
L 2766 2266 
Q 2766 2663 2505 2880 
Q 2244 3097 1772 3097 
Q 1472 3097 1187 3025 
Q 903 2953 641 2809 
L 641 3341 
Q 956 3463 1253 3523 
Q 1550 3584 1831 3584 
Q 2591 3584 2966 3190 
Q 3341 2797 3341 1997 
z
" transform="scale(0.015625)"/>
       <path id="DejaVuSans-76" d="M 191 3500 
L 800 3500 
L 1894 563 
L 2988 3500 
L 3597 3500 
L 2284 0 
L 1503 0 
L 191 3500 
z
" transform="scale(0.015625)"/>
       <path id="DejaVuSans-65" d="M 3597 1894 
L 3597 1613 
L 953 1613 
Q 991 1019 1311 708 
Q 1631 397 2203 397 
Q 2534 397 2845 478 
Q 3156 559 3463 722 
L 3463 178 
Q 3153 47 2828 -22 
Q 2503 -91 2169 -91 
Q 1331 -91 842 396 
Q 353 884 353 1716 
Q 353 2575 817 3079 
Q 1281 3584 2069 3584 
Q 2775 3584 3186 3129 
Q 3597 2675 3597 1894 
z
M 3022 2063 
Q 3016 2534 2758 2815 
Q 2500 3097 2075 3097 
Q 1594 3097 1305 2825 
Q 1016 2553 972 2059 
L 3022 2063 
z
" transform="scale(0.015625)"/>
       <path id="DejaVuSans-6c" d="M 603 4863 
L 1178 4863 
L 1178 0 
L 603 0 
L 603 4863 
z
" transform="scale(0.015625)"/>
       <path id="DejaVuSans-6e" d="M 3513 2113 
L 3513 0 
L 2938 0 
L 2938 2094 
Q 2938 2591 2744 2837 
Q 2550 3084 2163 3084 
Q 1697 3084 1428 2787 
Q 1159 2491 1159 1978 
L 1159 0 
L 581 0 
L 581 3500 
L 1159 3500 
L 1159 2956 
Q 1366 3272 1645 3428 
Q 1925 3584 2291 3584 
Q 2894 3584 3203 3211 
Q 3513 2838 3513 2113 
z
" transform="scale(0.015625)"/>
       <path id="DejaVuSans-67" d="M 2906 1791 
Q 2906 2416 2648 2759 
Q 2391 3103 1925 3103 
Q 1463 3103 1205 2759 
Q 947 2416 947 1791 
Q 947 1169 1205 825 
Q 1463 481 1925 481 
Q 2391 481 2648 825 
Q 2906 1169 2906 1791 
z
M 3481 434 
Q 3481 -459 3084 -895 
Q 2688 -1331 1869 -1331 
Q 1566 -1331 1297 -1286 
Q 1028 -1241 775 -1147 
L 775 -588 
Q 1028 -725 1275 -790 
Q 1522 -856 1778 -856 
Q 2344 -856 2625 -561 
Q 2906 -266 2906 331 
L 2906 616 
Q 2728 306 2450 153 
Q 2172 0 1784 0 
Q 1141 0 747 490 
Q 353 981 353 1791 
Q 353 2603 747 3093 
Q 1141 3584 1784 3584 
Q 2172 3584 2450 3431 
Q 2728 3278 2906 2969 
L 2906 3500 
L 3481 3500 
L 3481 434 
z
" transform="scale(0.015625)"/>
       <path id="DejaVuSans-74" d="M 1172 4494 
L 1172 3500 
L 2356 3500 
L 2356 3053 
L 1172 3053 
L 1172 1153 
Q 1172 725 1289 603 
Q 1406 481 1766 481 
L 2356 481 
L 2356 0 
L 1766 0 
Q 1100 0 847 248 
Q 594 497 594 1153 
L 594 3053 
L 172 3053 
L 172 3500 
L 594 3500 
L 594 4494 
L 1172 4494 
z
" transform="scale(0.015625)"/>
       <path id="DejaVuSans-68" d="M 3513 2113 
L 3513 0 
L 2938 0 
L 2938 2094 
Q 2938 2591 2744 2837 
Q 2550 3084 2163 3084 
Q 1697 3084 1428 2787 
Q 1159 2491 1159 1978 
L 1159 0 
L 581 0 
L 581 4863 
L 1159 4863 
L 1159 2956 
Q 1366 3272 1645 3428 
Q 1925 3584 2291 3584 
Q 2894 3584 3203 3211 
Q 3513 2838 3513 2113 
z
" transform="scale(0.015625)"/>
       <path id="DejaVuSans-20" transform="scale(0.015625)"/>
       <path id="DejaVuSans-5b" d="M 550 4863 
L 1875 4863 
L 1875 4416 
L 1125 4416 
L 1125 -397 
L 1875 -397 
L 1875 -844 
L 550 -844 
L 550 4863 
z
" transform="scale(0.015625)"/>
       <path id="DejaVuSans-c5" d="M 2663 5081 
Q 2663 5278 2523 5417 
Q 2384 5556 2188 5556 
Q 1988 5556 1852 5420 
Q 1716 5284 1716 5081 
Q 1716 4884 1853 4746 
Q 1991 4609 2188 4609 
Q 2384 4609 2523 4746 
Q 2663 4884 2663 5081 
z
M 2188 4044 
L 1338 1722 
L 3041 1722 
L 2188 4044 
z
M 1716 4366 
Q 1525 4494 1428 4673 
Q 1331 4853 1331 5081 
Q 1331 5441 1579 5691 
Q 1828 5941 2188 5941 
Q 2544 5941 2795 5689 
Q 3047 5438 3047 5081 
Q 3047 4863 2948 4678 
Q 2850 4494 2663 4366 
L 4325 0 
L 3669 0 
L 3244 1197 
L 1141 1197 
L 716 0 
L 50 0 
L 1716 4366 
z
" transform="scale(0.015625)"/>
       <path id="DejaVuSans-5d" d="M 1947 4863 
L 1947 -844 
L 622 -844 
L 622 -397 
L 1369 -397 
L 1369 4416 
L 622 4416 
L 622 4863 
L 1947 4863 
z
" transform="scale(0.015625)"/>
      </defs>
      <use xlink:href="#DejaVuSans-77"/>
      <use xlink:href="#DejaVuSans-61" x="81.787109"/>
      <use xlink:href="#DejaVuSans-76" x="143.066406"/>
      <use xlink:href="#DejaVuSans-65" x="202.246094"/>
      <use xlink:href="#DejaVuSans-6c" x="263.769531"/>
      <use xlink:href="#DejaVuSans-65" x="291.552734"/>
      <use xlink:href="#DejaVuSans-6e" x="353.076172"/>
      <use xlink:href="#DejaVuSans-67" x="416.455078"/>
      <use xlink:href="#DejaVuSans-74" x="479.931641"/>
      <use xlink:href="#DejaVuSans-68" x="519.140625"/>
      <use xlink:href="#DejaVuSans-20" x="582.519531"/>
      <use xlink:href="#DejaVuSans-5b" x="614.306641"/>
      <use xlink:href="#DejaVuSans-c5" x="653.320312"/>
      <use xlink:href="#DejaVuSans-5d" x="721.728516"/>
     </g>
    </g>
   </g>
   <g id="matplotlib.axis_2">
    <g id="ytick_1">
     <g id="line2d_10">
      <defs>
       <path id="m1fd9571f04" d="M 0 0 
L -3.5 0 
" style="stroke: #000000; stroke-width: 0.8"/>
      </defs>
      <g>
       <use xlink:href="#m1fd9571f04" x="43.78125" y="233.066146" style="stroke: #000000; stroke-width: 0.8"/>
      </g>
     </g>
     <g id="text_11">
      <!-- 0.4 -->
      <g transform="translate(20.878125 236.865365) scale(0.1 -0.1)">
       <defs>
        <path id="DejaVuSans-30" d="M 2034 4250 
Q 1547 4250 1301 3770 
Q 1056 3291 1056 2328 
Q 1056 1369 1301 889 
Q 1547 409 2034 409 
Q 2525 409 2770 889 
Q 3016 1369 3016 2328 
Q 3016 3291 2770 3770 
Q 2525 4250 2034 4250 
z
M 2034 4750 
Q 2819 4750 3233 4129 
Q 3647 3509 3647 2328 
Q 3647 1150 3233 529 
Q 2819 -91 2034 -91 
Q 1250 -91 836 529 
Q 422 1150 422 2328 
Q 422 3509 836 4129 
Q 1250 4750 2034 4750 
z
" transform="scale(0.015625)"/>
        <path id="DejaVuSans-2e" d="M 684 794 
L 1344 794 
L 1344 0 
L 684 0 
L 684 794 
z
" transform="scale(0.015625)"/>
       </defs>
       <use xlink:href="#DejaVuSans-30"/>
       <use xlink:href="#DejaVuSans-2e" x="63.623047"/>
       <use xlink:href="#DejaVuSans-34" x="95.410156"/>
      </g>
     </g>
    </g>
    <g id="ytick_2">
     <g id="line2d_11">
      <g>
       <use xlink:href="#m1fd9571f04" x="43.78125" y="201.710229" style="stroke: #000000; stroke-width: 0.8"/>
      </g>
     </g>
     <g id="text_12">
      <!-- 0.6 -->
      <g transform="translate(20.878125 205.509448) scale(0.1 -0.1)">
       <use xlink:href="#DejaVuSans-30"/>
       <use xlink:href="#DejaVuSans-2e" x="63.623047"/>
       <use xlink:href="#DejaVuSans-36" x="95.410156"/>
      </g>
     </g>
    </g>
    <g id="ytick_3">
     <g id="line2d_12">
      <g>
       <use xlink:href="#m1fd9571f04" x="43.78125" y="170.354312" style="stroke: #000000; stroke-width: 0.8"/>
      </g>
     </g>
     <g id="text_13">
      <!-- 0.8 -->
      <g transform="translate(20.878125 174.153531) scale(0.1 -0.1)">
       <use xlink:href="#DejaVuSans-30"/>
       <use xlink:href="#DejaVuSans-2e" x="63.623047"/>
       <use xlink:href="#DejaVuSans-38" x="95.410156"/>
      </g>
     </g>
    </g>
    <g id="ytick_4">
     <g id="line2d_13">
      <g>
       <use xlink:href="#m1fd9571f04" x="43.78125" y="138.998395" style="stroke: #000000; stroke-width: 0.8"/>
      </g>
     </g>
     <g id="text_14">
      <!-- 1.0 -->
      <g transform="translate(20.878125 142.797614) scale(0.1 -0.1)">
       <use xlink:href="#DejaVuSans-31"/>
       <use xlink:href="#DejaVuSans-2e" x="63.623047"/>
       <use xlink:href="#DejaVuSans-30" x="95.410156"/>
      </g>
     </g>
    </g>
    <g id="ytick_5">
     <g id="line2d_14">
      <g>
       <use xlink:href="#m1fd9571f04" x="43.78125" y="107.642478" style="stroke: #000000; stroke-width: 0.8"/>
      </g>
     </g>
     <g id="text_15">
      <!-- 1.2 -->
      <g transform="translate(20.878125 111.441697) scale(0.1 -0.1)">
       <use xlink:href="#DejaVuSans-31"/>
       <use xlink:href="#DejaVuSans-2e" x="63.623047"/>
       <use xlink:href="#DejaVuSans-32" x="95.410156"/>
      </g>
     </g>
    </g>
    <g id="ytick_6">
     <g id="line2d_15">
      <g>
       <use xlink:href="#m1fd9571f04" x="43.78125" y="76.286561" style="stroke: #000000; stroke-width: 0.8"/>
      </g>
     </g>
     <g id="text_16">
      <!-- 1.4 -->
      <g transform="translate(20.878125 80.08578) scale(0.1 -0.1)">
       <use xlink:href="#DejaVuSans-31"/>
       <use xlink:href="#DejaVuSans-2e" x="63.623047"/>
       <use xlink:href="#DejaVuSans-34" x="95.410156"/>
      </g>
     </g>
    </g>
    <g id="ytick_7">
     <g id="line2d_16">
      <g>
       <use xlink:href="#m1fd9571f04" x="43.78125" y="44.930644" style="stroke: #000000; stroke-width: 0.8"/>
      </g>
     </g>
     <g id="text_17">
      <!-- 1.6 -->
      <g transform="translate(20.878125 48.729862) scale(0.1 -0.1)">
       <use xlink:href="#DejaVuSans-31"/>
       <use xlink:href="#DejaVuSans-2e" x="63.623047"/>
       <use xlink:href="#DejaVuSans-36" x="95.410156"/>
      </g>
     </g>
    </g>
    <g id="ytick_8">
     <g id="line2d_17">
      <g>
       <use xlink:href="#m1fd9571f04" x="43.78125" y="13.574727" style="stroke: #000000; stroke-width: 0.8"/>
      </g>
     </g>
     <g id="text_18">
      <!-- 1.8 -->
      <g transform="translate(20.878125 17.373945) scale(0.1 -0.1)">
       <use xlink:href="#DejaVuSans-31"/>
       <use xlink:href="#DejaVuSans-2e" x="63.623047"/>
       <use xlink:href="#DejaVuSans-38" x="95.410156"/>
      </g>
     </g>
    </g>
    <g id="text_19">
     <!-- [dimensionless] -->
     <g transform="translate(14.798438 163.594219) rotate(-90) scale(0.1 -0.1)">
      <defs>
       <path id="DejaVuSans-64" d="M 2906 2969 
L 2906 4863 
L 3481 4863 
L 3481 0 
L 2906 0 
L 2906 525 
Q 2725 213 2448 61 
Q 2172 -91 1784 -91 
Q 1150 -91 751 415 
Q 353 922 353 1747 
Q 353 2572 751 3078 
Q 1150 3584 1784 3584 
Q 2172 3584 2448 3432 
Q 2725 3281 2906 2969 
z
M 947 1747 
Q 947 1113 1208 752 
Q 1469 391 1925 391 
Q 2381 391 2643 752 
Q 2906 1113 2906 1747 
Q 2906 2381 2643 2742 
Q 2381 3103 1925 3103 
Q 1469 3103 1208 2742 
Q 947 2381 947 1747 
z
" transform="scale(0.015625)"/>
       <path id="DejaVuSans-69" d="M 603 3500 
L 1178 3500 
L 1178 0 
L 603 0 
L 603 3500 
z
M 603 4863 
L 1178 4863 
L 1178 4134 
L 603 4134 
L 603 4863 
z
" transform="scale(0.015625)"/>
       <path id="DejaVuSans-6d" d="M 3328 2828 
Q 3544 3216 3844 3400 
Q 4144 3584 4550 3584 
Q 5097 3584 5394 3201 
Q 5691 2819 5691 2113 
L 5691 0 
L 5113 0 
L 5113 2094 
Q 5113 2597 4934 2840 
Q 4756 3084 4391 3084 
Q 3944 3084 3684 2787 
Q 3425 2491 3425 1978 
L 3425 0 
L 2847 0 
L 2847 2094 
Q 2847 2600 2669 2842 
Q 2491 3084 2119 3084 
Q 1678 3084 1418 2786 
Q 1159 2488 1159 1978 
L 1159 0 
L 581 0 
L 581 3500 
L 1159 3500 
L 1159 2956 
Q 1356 3278 1631 3431 
Q 1906 3584 2284 3584 
Q 2666 3584 2933 3390 
Q 3200 3197 3328 2828 
z
" transform="scale(0.015625)"/>
       <path id="DejaVuSans-73" d="M 2834 3397 
L 2834 2853 
Q 2591 2978 2328 3040 
Q 2066 3103 1784 3103 
Q 1356 3103 1142 2972 
Q 928 2841 928 2578 
Q 928 2378 1081 2264 
Q 1234 2150 1697 2047 
L 1894 2003 
Q 2506 1872 2764 1633 
Q 3022 1394 3022 966 
Q 3022 478 2636 193 
Q 2250 -91 1575 -91 
Q 1294 -91 989 -36 
Q 684 19 347 128 
L 347 722 
Q 666 556 975 473 
Q 1284 391 1588 391 
Q 1994 391 2212 530 
Q 2431 669 2431 922 
Q 2431 1156 2273 1281 
Q 2116 1406 1581 1522 
L 1381 1569 
Q 847 1681 609 1914 
Q 372 2147 372 2553 
Q 372 3047 722 3315 
Q 1072 3584 1716 3584 
Q 2034 3584 2315 3537 
Q 2597 3491 2834 3397 
z
" transform="scale(0.015625)"/>
       <path id="DejaVuSans-6f" d="M 1959 3097 
Q 1497 3097 1228 2736 
Q 959 2375 959 1747 
Q 959 1119 1226 758 
Q 1494 397 1959 397 
Q 2419 397 2687 759 
Q 2956 1122 2956 1747 
Q 2956 2369 2687 2733 
Q 2419 3097 1959 3097 
z
M 1959 3584 
Q 2709 3584 3137 3096 
Q 3566 2609 3566 1747 
Q 3566 888 3137 398 
Q 2709 -91 1959 -91 
Q 1206 -91 779 398 
Q 353 888 353 1747 
Q 353 2609 779 3096 
Q 1206 3584 1959 3584 
z
" transform="scale(0.015625)"/>
      </defs>
      <use xlink:href="#DejaVuSans-5b"/>
      <use xlink:href="#DejaVuSans-64" x="39.013672"/>
      <use xlink:href="#DejaVuSans-69" x="102.490234"/>
      <use xlink:href="#DejaVuSans-6d" x="130.273438"/>
      <use xlink:href="#DejaVuSans-65" x="227.685547"/>
      <use xlink:href="#DejaVuSans-6e" x="289.208984"/>
      <use xlink:href="#DejaVuSans-73" x="352.587891"/>
      <use xlink:href="#DejaVuSans-69" x="404.6875"/>
      <use xlink:href="#DejaVuSans-6f" x="432.470703"/>
      <use xlink:href="#DejaVuSans-6e" x="493.652344"/>
      <use xlink:href="#DejaVuSans-6c" x="557.03125"/>
      <use xlink:href="#DejaVuSans-65" x="584.814453"/>
      <use xlink:href="#DejaVuSans-73" x="646.337891"/>
      <use xlink:href="#DejaVuSans-73" x="698.4375"/>
      <use xlink:href="#DejaVuSans-5d" x="750.537109"/>
     </g>
    </g>
   </g>
   <g id="patch_3">
    <path d="M 43.78125 241.03375 
L 43.78125 7.2 
" style="fill: none; stroke: #000000; stroke-width: 0.8; stroke-linejoin: miter; stroke-linecap: square"/>
   </g>
   <g id="patch_4">
    <path d="M 417.17125 241.03375 
L 417.17125 7.2 
" style="fill: none; stroke: #000000; stroke-width: 0.8; stroke-linejoin: miter; stroke-linecap: square"/>
   </g>
   <g id="patch_5">
    <path d="M 43.78125 241.03375 
L 417.17125 241.03375 
" style="fill: none; stroke: #000000; stroke-width: 0.8; stroke-linejoin: miter; stroke-linecap: square"/>
   </g>
   <g id="patch_6">
    <path d="M 43.78125 7.2 
L 417.17125 7.2 
" style="fill: none; stroke: #000000; stroke-width: 0.8; stroke-linejoin: miter; stroke-linecap: square"/>
   </g>
   <g id="legend_1">
    <g id="patch_7">
     <path d="M 304.522812 44.834375 
L 410.17125 44.834375 
Q 412.17125 44.834375 412.17125 42.834375 
L 412.17125 14.2 
Q 412.17125 12.2 410.17125 12.2 
L 304.522812 12.2 
Q 302.522812 12.2 302.522812 14.2 
L 302.522812 42.834375 
Q 302.522812 44.834375 304.522812 44.834375 
z
" style="fill: #ffffff; opacity: 0.8; stroke: #cccccc; stroke-linejoin: miter"/>
    </g>
    <g id="line2d_18">
     <path d="M 306.522812 20.298437 
L 306.522812 20.298437 
L 316.522812 20.298437 
L 316.522812 20.298437 
L 326.522812 20.298437 
" style="fill: none; stroke: #1f77b4; stroke-width: 1.5; stroke-linecap: square"/>
    </g>
    <g id="text_20">
     <!-- stitched_event -->
     <g transform="translate(334.522812 23.798437) scale(0.1 -0.1)">
      <defs>
       <path id="DejaVuSans-63" d="M 3122 3366 
L 3122 2828 
Q 2878 2963 2633 3030 
Q 2388 3097 2138 3097 
Q 1578 3097 1268 2742 
Q 959 2388 959 1747 
Q 959 1106 1268 751 
Q 1578 397 2138 397 
Q 2388 397 2633 464 
Q 2878 531 3122 666 
L 3122 134 
Q 2881 22 2623 -34 
Q 2366 -91 2075 -91 
Q 1284 -91 818 406 
Q 353 903 353 1747 
Q 353 2603 823 3093 
Q 1294 3584 2113 3584 
Q 2378 3584 2631 3529 
Q 2884 3475 3122 3366 
z
" transform="scale(0.015625)"/>
       <path id="DejaVuSans-5f" d="M 3263 -1063 
L 3263 -1509 
L -63 -1509 
L -63 -1063 
L 3263 -1063 
z
" transform="scale(0.015625)"/>
      </defs>
      <use xlink:href="#DejaVuSans-73"/>
      <use xlink:href="#DejaVuSans-74" x="52.099609"/>
      <use xlink:href="#DejaVuSans-69" x="91.308594"/>
      <use xlink:href="#DejaVuSans-74" x="119.091797"/>
      <use xlink:href="#DejaVuSans-63" x="158.300781"/>
      <use xlink:href="#DejaVuSans-68" x="213.28125"/>
      <use xlink:href="#DejaVuSans-65" x="276.660156"/>
      <use xlink:href="#DejaVuSans-64" x="338.183594"/>
      <use xlink:href="#DejaVuSans-5f" x="401.660156"/>
      <use xlink:href="#DejaVuSans-65" x="451.660156"/>
      <use xlink:href="#DejaVuSans-76" x="513.183594"/>
      <use xlink:href="#DejaVuSans-65" x="572.363281"/>
      <use xlink:href="#DejaVuSans-6e" x="633.886719"/>
      <use xlink:href="#DejaVuSans-74" x="697.265625"/>
     </g>
    </g>
    <g id="line2d_19">
     <path d="M 306.522812 35.254687 
L 306.522812 35.254687 
L 316.522812 35.254687 
L 316.522812 35.254687 
L 326.522812 35.254687 
" style="fill: none; stroke: #ff7f0e; stroke-width: 1.5; stroke-linecap: square"/>
    </g>
    <g id="text_21">
     <!-- original -->
     <g transform="translate(334.522812 38.754687) scale(0.1 -0.1)">
      <defs>
       <path id="DejaVuSans-72" d="M 2631 2963 
Q 2534 3019 2420 3045 
Q 2306 3072 2169 3072 
Q 1681 3072 1420 2755 
Q 1159 2438 1159 1844 
L 1159 0 
L 581 0 
L 581 3500 
L 1159 3500 
L 1159 2956 
Q 1341 3275 1631 3429 
Q 1922 3584 2338 3584 
Q 2397 3584 2469 3576 
Q 2541 3569 2628 3553 
L 2631 2963 
z
" transform="scale(0.015625)"/>
      </defs>
      <use xlink:href="#DejaVuSans-6f"/>
      <use xlink:href="#DejaVuSans-72" x="61.181641"/>
      <use xlink:href="#DejaVuSans-69" x="102.294922"/>
      <use xlink:href="#DejaVuSans-67" x="130.078125"/>
      <use xlink:href="#DejaVuSans-69" x="193.554688"/>
      <use xlink:href="#DejaVuSans-6e" x="221.337891"/>
      <use xlink:href="#DejaVuSans-61" x="284.716797"/>
      <use xlink:href="#DejaVuSans-6c" x="345.996094"/>
     </g>
    </g>
   </g>
   <g id="line2d_20">
    <path d="M 60.753523 57.01274 
L 62.074322 57.01274 
L 62.074322 46.513277 
L 63.395122 46.513277 
L 63.395122 43.437505 
L 64.715921 43.437505 
L 64.715921 67.895541 
L 66.03672 67.895541 
L 66.03672 51.084609 
L 67.35752 51.084609 
L 67.35752 63.93423 
L 68.678319 63.93423 
L 68.678319 41.513653 
L 69.999119 41.513653 
L 69.999119 63.726378 
L 71.319918 63.726378 
L 71.319918 37.83319 
L 72.640718 37.83319 
L 72.640718 74.361198 
L 73.961517 74.361198 
L 73.961517 56.558066 
L 75.282317 56.558066 
L 75.282317 38.958088 
L 76.603116 38.958088 
L 76.603116 52.174257 
L 77.923915 52.174257 
L 77.923915 84.797453 
L 79.244715 84.797453 
L 79.244715 73.471324 
L 80.565514 73.471324 
L 80.565514 84.660016 
L 81.886314 84.660016 
L 81.886314 69.771046 
L 83.207113 69.771046 
L 83.207113 53.071122 
L 84.527913 53.071122 
L 84.527913 46.054146 
L 85.848712 46.054146 
L 85.848712 86.738533 
L 87.169511 86.738533 
L 87.169511 86.889573 
L 88.490311 86.889573 
L 88.490311 105.650251 
L 89.81111 105.650251 
L 89.81111 90.620694 
L 91.13191 90.620694 
L 91.13191 69.478395 
L 92.452709 69.478395 
L 92.452709 86.24082 
L 93.773509 86.24082 
L 93.773509 56.455501 
L 95.094308 56.455501 
L 95.094308 64.432495 
L 96.415107 64.432495 
L 96.415107 42.117987 
L 97.735907 42.117987 
L 97.735907 86.303034 
L 100.377506 86.276057 
L 100.377506 103.641575 
L 101.698305 103.641575 
L 101.698305 107.378983 
L 103.019105 107.378983 
L 103.019105 76.648012 
L 104.339904 76.648012 
L 104.339904 85.58453 
L 105.660703 85.58453 
L 105.660703 88.793696 
L 106.981503 88.793696 
L 106.981503 102.925216 
L 108.302302 102.925216 
L 108.302302 111.381395 
L 109.623102 111.381395 
L 109.623102 81.157383 
L 110.943901 81.157383 
L 110.943901 102.929472 
L 112.264701 102.929472 
L 112.264701 128.428985 
L 113.5855 128.428985 
L 113.5855 109.399889 
L 114.9063 109.399889 
L 114.9063 106.253292 
L 116.227099 106.253292 
L 116.227099 101.879241 
L 117.547898 101.879241 
L 117.547898 95.58251 
L 118.868698 95.58251 
L 118.868698 101.155047 
L 120.189497 101.155047 
L 120.189497 92.111042 
L 121.510297 92.111042 
L 121.510297 100.172103 
L 122.831096 100.172103 
L 122.831096 123.079237 
L 124.151896 123.079237 
L 124.151896 89.404853 
L 125.472695 89.404853 
L 125.472695 119.400947 
L 126.793494 119.400947 
L 126.793494 101.155047 
L 128.114294 101.155047 
L 128.114294 114.439116 
L 129.435093 114.439116 
L 129.435093 125.147567 
L 130.755893 125.147567 
L 130.755893 116.128436 
L 132.076692 116.128436 
L 132.076692 109.120318 
L 133.397492 109.120318 
L 133.397492 110.0315 
L 134.718291 110.0315 
L 134.718291 116.983804 
L 136.03909 116.983804 
L 136.03909 127.303144 
L 137.35989 127.303144 
L 137.35989 120.377065 
L 138.680689 120.377065 
L 138.680689 111.147331 
L 140.001489 111.147331 
L 140.001489 115.871905 
L 141.322288 115.871905 
L 141.322288 122.252141 
L 142.643088 122.252141 
L 142.643088 127.734619 
L 143.963887 127.734619 
L 143.963887 151.562613 
L 145.284687 151.562613 
L 145.284687 124.428979 
L 146.605486 124.428979 
L 146.605486 118.369502 
L 147.926285 118.369502 
L 147.926285 135.017663 
L 149.247085 135.017663 
L 149.247085 157.443052 
L 150.567884 157.443052 
L 150.567884 144.157504 
L 151.888684 144.157504 
L 151.888684 142.4441 
L 153.209483 142.4441 
L 153.209483 129.478572 
L 154.530283 129.478572 
L 154.530283 136.204303 
L 155.851082 136.204303 
L 155.851082 157.568404 
L 157.171881 157.568404 
L 157.171881 130.681993 
L 158.492681 130.681993 
L 158.492681 146.027499 
L 159.81348 146.027499 
L 159.81348 152.234945 
L 161.13428 152.234945 
L 161.13428 135.752441 
L 162.455079 135.752441 
L 162.455079 139.600236 
L 163.775879 139.600236 
L 163.775879 152.460685 
L 165.096678 152.460685 
L 165.096678 153.901398 
L 166.417477 153.901398 
L 166.417477 120.432392 
L 167.738277 120.432392 
L 167.738277 155.063096 
L 169.059076 155.063096 
L 169.059076 148.02601 
L 170.379876 148.02601 
L 170.379876 151.540762 
L 171.700675 151.540762 
L 171.700675 150.196937 
L 173.021475 150.196937 
L 173.021475 157.23542 
L 174.342274 157.23542 
L 174.342274 155.454268 
L 175.663073 155.454268 
L 175.663073 175.200758 
L 176.983873 175.200758 
L 176.983873 146.964837 
L 178.304672 146.964837 
L 178.304672 159.07383 
L 179.625472 159.07383 
L 179.625472 161.786126 
L 180.946271 161.786126 
L 180.946271 161.131984 
L 182.267071 161.131984 
L 182.267071 140.937936 
L 183.58787 140.937936 
L 183.58787 154.190215 
L 184.90867 154.190215 
L 184.90867 159.550026 
L 186.229469 159.550026 
L 186.229469 160.664672 
L 187.550268 160.664672 
L 187.550268 150.787889 
L 188.871068 150.787889 
L 188.871068 138.153222 
L 190.191867 138.153222 
L 190.191867 101.647964 
L 191.512667 101.647964 
L 191.512667 89.699432 
L 192.833466 89.699432 
L 192.833466 70.9 
L 194.154266 70.9 
L 194.154266 60.955972 
L 195.475065 60.955972 
L 195.475065 37.363679 
L 196.795864 37.363679 
L 196.795864 62.904538 
L 198.116664 62.904538 
L 198.116664 48.242888 
L 199.437463 48.242888 
L 199.437463 42.535708 
L 200.758263 42.535708 
L 200.758263 52.445329 
L 202.079062 52.445329 
L 202.079062 23.917986 
L 203.399862 23.917986 
L 203.399862 17.828807 
L 204.720661 17.828807 
L 204.720661 34.63059 
L 206.04146 34.63059 
L 206.04146 56.600033 
L 207.36226 56.600033 
L 207.36226 62.715259 
L 208.683059 62.715259 
L 208.683059 23.325652 
L 210.003859 23.325652 
L 210.003859 50.486843 
L 211.324658 50.486843 
L 211.324658 62.41586 
L 212.645458 62.41586 
L 212.645458 46.775109 
L 213.966257 46.775109 
L 213.966257 59.61911 
L 215.287057 59.61911 
L 215.287057 52.703749 
L 216.607856 52.703749 
L 216.607856 64.711649 
L 217.928655 64.711649 
L 217.928655 68.173491 
L 219.249455 68.173491 
L 219.249455 62.739369 
L 220.570254 62.739369 
L 220.570254 53.400345 
L 221.891054 53.400345 
L 221.891054 49.849219 
L 223.211853 49.849219 
L 223.211853 57.58067 
L 224.532653 57.58067 
L 224.532653 56.064266 
L 225.853452 56.064266 
L 225.853452 67.893091 
L 227.174251 67.893091 
L 227.174251 53.728347 
L 228.495051 53.728347 
L 228.495051 65.909783 
L 229.81585 65.909783 
L 229.81585 61.190993 
L 231.13665 61.190993 
L 231.13665 94.175769 
L 232.457449 94.175769 
L 232.457449 59.217068 
L 233.778249 59.217068 
L 233.778249 71.04577 
L 235.099048 71.04577 
L 235.099048 54.849832 
L 236.419847 54.849832 
L 236.419847 85.239275 
L 237.740647 85.239275 
L 237.740647 88.878633 
L 239.061446 88.878633 
L 239.061446 70.881908 
L 240.382246 70.881908 
L 240.382246 94.993681 
L 241.703045 94.993681 
L 241.703045 79.608741 
L 243.023845 79.608741 
L 243.023845 55.000809 
L 244.344644 55.000809 
L 244.344644 85.315113 
L 245.665443 85.315113 
L 245.665443 83.852634 
L 246.986243 83.852634 
L 246.986243 76.102114 
L 248.307042 76.102114 
L 248.307042 85.134334 
L 249.627842 85.134334 
L 249.627842 102.633765 
L 250.948641 102.633765 
L 250.948641 77.413353 
L 252.269441 77.413353 
L 252.269441 87.95793 
L 254.91104 87.958133 
L 254.91104 91.707504 
L 256.231839 91.707504 
L 256.231839 86.620164 
L 257.552638 86.620164 
L 257.552638 88.934326 
L 258.873438 88.934326 
L 258.873438 78.210237 
L 260.194237 78.210237 
L 260.194237 105.74734 
L 261.515037 105.74734 
L 261.515037 87.894456 
L 262.835836 87.894456 
L 262.835836 98.961604 
L 264.156636 98.961604 
L 264.156636 104.691751 
L 265.477435 104.691751 
L 265.477435 103.521415 
L 266.798234 103.521415 
L 266.798234 110.849721 
L 268.119034 110.849721 
L 268.119034 112.578775 
L 269.439833 112.578775 
L 269.439833 105.249714 
L 270.760633 105.249714 
L 270.760633 118.106562 
L 272.081432 118.106562 
L 272.081432 96.170801 
L 273.402232 96.170801 
L 273.402232 83.228543 
L 274.723031 83.228543 
L 274.723031 111.708491 
L 276.04383 111.708491 
L 276.04383 123.891155 
L 277.36463 123.891155 
L 277.36463 102.142096 
L 278.685429 102.142096 
L 278.685429 115.968625 
L 280.006229 115.968625 
L 280.006229 122.730502 
L 281.327028 122.730502 
L 281.327028 103.619726 
L 282.647828 103.619726 
L 282.647828 97.651989 
L 283.968627 97.651989 
L 283.968627 115.947954 
L 285.289427 115.947954 
L 285.289427 113.101767 
L 286.610226 113.101767 
L 286.610226 137.655529 
L 287.931025 137.655529 
L 287.931025 125.373286 
L 289.251825 125.373286 
L 289.251825 108.696458 
L 290.572624 108.696458 
L 290.572624 122.44845 
L 291.893424 122.44845 
L 291.893424 114.61046 
L 293.214223 114.61046 
L 293.214223 129.925502 
L 294.535023 129.925502 
L 294.535023 107.833673 
L 295.855822 107.833673 
L 295.855822 121.253214 
L 297.176621 121.253214 
L 297.176621 118.476539 
L 298.497421 118.476539 
L 298.497421 125.838658 
L 299.81822 125.838658 
L 299.81822 122.99087 
L 301.13902 122.99087 
L 301.13902 136.572405 
L 302.459819 136.572405 
L 302.459819 145.229007 
L 303.780619 145.229007 
L 303.780619 132.733324 
L 305.101418 132.733324 
L 305.101418 143.361742 
L 306.422217 143.361742 
L 306.422217 127.984242 
L 307.743017 127.984242 
L 307.743017 134.290299 
L 309.063816 134.290299 
L 309.063816 143.683044 
L 310.384616 143.683044 
L 310.384616 143.132232 
L 311.705415 143.132232 
L 311.705415 147.079817 
L 313.026215 147.079817 
L 313.026215 140.269152 
L 314.347014 140.269152 
L 314.347014 130.130055 
L 315.667813 130.130055 
L 315.667813 146.649839 
L 316.988613 146.649839 
L 316.988613 146.117855 
L 318.309412 146.117855 
L 318.309412 152.710895 
L 319.630212 152.710895 
L 319.630212 147.006783 
L 320.951011 147.006783 
L 320.951011 157.249454 
L 322.271811 157.249454 
L 322.271811 150.011205 
L 323.59261 150.011205 
L 323.59261 151.828661 
L 324.91341 151.828661 
L 324.91341 155.636229 
L 326.234209 155.636229 
L 326.234209 153.39652 
L 327.555008 153.39652 
L 327.555008 166.656818 
L 328.875808 166.656818 
L 328.875808 160.272321 
L 330.196607 160.272321 
L 330.196607 152.86984 
L 331.517407 152.86984 
L 331.517407 165.671084 
L 332.838206 165.671084 
L 332.838206 167.794646 
L 334.159006 167.794646 
L 334.159006 166.389423 
L 335.479805 166.389423 
L 335.479805 174.50436 
L 336.800604 174.50436 
L 336.800604 173.166367 
L 338.121404 173.166367 
L 338.121404 175.166511 
L 339.442203 175.166511 
L 339.442203 173.621803 
L 340.763003 173.621803 
L 340.763003 170.019768 
L 342.083802 170.019768 
L 342.083802 181.287625 
L 343.404602 181.287625 
L 343.404602 174.507624 
L 344.725401 174.507624 
L 344.725401 166.895699 
L 346.0462 166.895699 
L 346.0462 175.580298 
L 347.367 175.580298 
L 347.367 176.702991 
L 348.687799 176.702991 
L 348.687799 172.177678 
L 350.008599 172.177678 
L 350.008599 183.242126 
L 351.329398 183.242126 
L 351.329398 192.941202 
L 352.650198 192.941202 
L 352.650198 184.553721 
L 353.970997 184.553721 
L 353.970997 185.619013 
L 355.291797 185.619013 
L 355.291797 186.140023 
L 356.612596 186.140023 
L 356.612596 181.521801 
L 357.933395 181.521801 
L 357.933395 185.922826 
L 359.254195 185.922826 
L 359.254195 187.301965 
L 360.574994 187.301965 
L 360.574994 192.144017 
L 361.895794 192.144017 
L 361.895794 196.021294 
L 363.216593 196.021294 
L 363.216593 189.420646 
L 364.537393 189.420646 
L 364.537393 188.650006 
L 365.858192 188.650006 
L 365.858192 195.06066 
L 367.178991 195.06066 
L 367.178991 189.554632 
L 368.499791 189.554632 
L 368.499791 192.998726 
L 369.82059 192.998726 
L 369.82059 200.358919 
L 371.14139 200.358919 
L 371.14139 201.450014 
L 372.462189 201.450014 
L 372.462189 201.737098 
L 373.782989 201.737098 
L 373.782989 205.693206 
L 375.103788 205.693206 
L 375.103788 203.003529 
L 376.424587 203.003529 
L 376.424587 201.404566 
L 377.745387 201.404566 
L 377.745387 203.21131 
L 379.066186 203.21131 
L 379.066186 206.15049 
L 380.386986 206.15049 
L 380.386986 200.364835 
L 381.707785 200.364835 
L 381.707785 210.005588 
L 383.028585 210.005588 
L 383.028585 206.971827 
L 384.349384 206.971827 
L 384.349384 218.318236 
L 385.670183 218.318236 
L 385.670183 213.211963 
L 386.990983 213.211963 
L 386.990983 218.673266 
L 388.311782 218.673266 
L 388.311782 211.328129 
L 389.632582 211.328129 
L 389.632582 212.649599 
L 390.953381 212.649599 
L 390.953381 211.601947 
L 392.274181 211.601947 
L 392.274181 217.055181 
L 393.59498 217.055181 
L 393.59498 224.198885 
L 394.91578 224.198885 
L 394.91578 219.426051 
L 396.236579 219.426051 
L 396.236579 224.539537 
L 397.557378 224.539537 
L 397.557378 219.881916 
L 398.878178 219.881916 
L 398.878178 230.404943 
L 400.198977 230.404943 
L 400.198977 230.404943 
" clip-path="url(#p02e1b89f59)" style="fill: none; stroke: #1f77b4; stroke-width: 1.5; stroke-linecap: square"/>
   </g>
   <g id="LineCollection_1">
    <path d="M 61.413922 67.712066 
L 61.413922 46.313414 
" clip-path="url(#p02e1b89f59)" style="fill: none; stroke: #1f77b4; stroke-width: 1.5"/>
    <path d="M 62.734722 57.616409 
L 62.734722 35.410144 
" clip-path="url(#p02e1b89f59)" style="fill: none; stroke: #1f77b4; stroke-width: 1.5"/>
    <path d="M 64.055521 54.644339 
L 64.055521 32.230671 
" clip-path="url(#p02e1b89f59)" style="fill: none; stroke: #1f77b4; stroke-width: 1.5"/>
    <path d="M 65.376321 77.927506 
L 65.376321 57.863576 
" clip-path="url(#p02e1b89f59)" style="fill: none; stroke: #1f77b4; stroke-width: 1.5"/>
    <path d="M 66.69712 62.016702 
L 66.69712 40.152515 
" clip-path="url(#p02e1b89f59)" style="fill: none; stroke: #1f77b4; stroke-width: 1.5"/>
    <path d="M 68.01792 74.429303 
L 68.01792 53.439156 
" clip-path="url(#p02e1b89f59)" style="fill: none; stroke: #1f77b4; stroke-width: 1.5"/>
    <path d="M 69.338719 52.817081 
L 69.338719 30.210225 
" clip-path="url(#p02e1b89f59)" style="fill: none; stroke: #1f77b4; stroke-width: 1.5"/>
    <path d="M 70.659518 73.892743 
L 70.659518 53.560013 
" clip-path="url(#p02e1b89f59)" style="fill: none; stroke: #1f77b4; stroke-width: 1.5"/>
    <path d="M 71.980318 49.521784 
L 71.980318 26.144595 
" clip-path="url(#p02e1b89f59)" style="fill: none; stroke: #1f77b4; stroke-width: 1.5"/>
    <path d="M 73.301117 84.43601 
L 73.301117 64.286385 
" clip-path="url(#p02e1b89f59)" style="fill: none; stroke: #1f77b4; stroke-width: 1.5"/>
    <path d="M 74.621917 67.234973 
L 74.621917 45.881159 
" clip-path="url(#p02e1b89f59)" style="fill: none; stroke: #1f77b4; stroke-width: 1.5"/>
    <path d="M 75.942716 50.263953 
L 75.942716 27.652223 
" clip-path="url(#p02e1b89f59)" style="fill: none; stroke: #1f77b4; stroke-width: 1.5"/>
    <path d="M 77.263516 63.16794 
L 77.263516 41.180575 
" clip-path="url(#p02e1b89f59)" style="fill: none; stroke: #1f77b4; stroke-width: 1.5"/>
    <path d="M 78.584315 94.518922 
L 78.584315 75.075983 
" clip-path="url(#p02e1b89f59)" style="fill: none; stroke: #1f77b4; stroke-width: 1.5"/>
    <path d="M 79.905115 83.859032 
L 79.905115 63.083616 
" clip-path="url(#p02e1b89f59)" style="fill: none; stroke: #1f77b4; stroke-width: 1.5"/>
    <path d="M 81.225914 94.356985 
L 81.225914 74.963047 
" clip-path="url(#p02e1b89f59)" style="fill: none; stroke: #1f77b4; stroke-width: 1.5"/>
    <path d="M 82.546713 80.49686 
L 82.546713 59.045231 
" clip-path="url(#p02e1b89f59)" style="fill: none; stroke: #1f77b4; stroke-width: 1.5"/>
    <path d="M 83.867513 64.114667 
L 83.867513 42.027578 
" clip-path="url(#p02e1b89f59)" style="fill: none; stroke: #1f77b4; stroke-width: 1.5"/>
    <path d="M 85.188312 57.347048 
L 85.188312 34.761243 
" clip-path="url(#p02e1b89f59)" style="fill: none; stroke: #1f77b4; stroke-width: 1.5"/>
    <path d="M 86.509112 96.401385 
L 86.509112 77.075681 
" clip-path="url(#p02e1b89f59)" style="fill: none; stroke: #1f77b4; stroke-width: 1.5"/>
    <path d="M 87.829911 96.618476 
L 87.829911 77.16067 
" clip-path="url(#p02e1b89f59)" style="fill: none; stroke: #1f77b4; stroke-width: 1.5"/>
    <path d="M 89.150711 114.724553 
L 89.150711 96.57595 
" clip-path="url(#p02e1b89f59)" style="fill: none; stroke: #1f77b4; stroke-width: 1.5"/>
    <path d="M 90.47151 100.207065 
L 90.47151 81.034324 
" clip-path="url(#p02e1b89f59)" style="fill: none; stroke: #1f77b4; stroke-width: 1.5"/>
    <path d="M 91.792309 79.894678 
L 91.792309 59.062113 
" clip-path="url(#p02e1b89f59)" style="fill: none; stroke: #1f77b4; stroke-width: 1.5"/>
    <path d="M 93.113109 96.453037 
L 93.113109 76.028604 
" clip-path="url(#p02e1b89f59)" style="fill: none; stroke: #1f77b4; stroke-width: 1.5"/>
    <path d="M 94.433908 67.60186 
L 94.433908 45.309142 
" clip-path="url(#p02e1b89f59)" style="fill: none; stroke: #1f77b4; stroke-width: 1.5"/>
    <path d="M 95.754708 74.948199 
L 95.754708 53.916791 
" clip-path="url(#p02e1b89f59)" style="fill: none; stroke: #1f77b4; stroke-width: 1.5"/>
    <path d="M 97.075507 53.612418 
L 97.075507 30.623555 
" clip-path="url(#p02e1b89f59)" style="fill: none; stroke: #1f77b4; stroke-width: 1.5"/>
    <path d="M 98.396307 95.85427 
L 98.396307 76.751799 
" clip-path="url(#p02e1b89f59)" style="fill: none; stroke: #1f77b4; stroke-width: 1.5"/>
    <path d="M 99.717106 96.119316 
L 99.717106 76.432798 
" clip-path="url(#p02e1b89f59)" style="fill: none; stroke: #1f77b4; stroke-width: 1.5"/>
    <path d="M 101.037905 113.095989 
L 101.037905 94.18716 
" clip-path="url(#p02e1b89f59)" style="fill: none; stroke: #1f77b4; stroke-width: 1.5"/>
    <path d="M 102.358705 116.474972 
L 102.358705 98.282994 
" clip-path="url(#p02e1b89f59)" style="fill: none; stroke: #1f77b4; stroke-width: 1.5"/>
    <path d="M 103.679504 86.598192 
L 103.679504 66.697833 
" clip-path="url(#p02e1b89f59)" style="fill: none; stroke: #1f77b4; stroke-width: 1.5"/>
    <path d="M 105.000304 95.78041 
L 105.000304 75.38865 
" clip-path="url(#p02e1b89f59)" style="fill: none; stroke: #1f77b4; stroke-width: 1.5"/>
    <path d="M 106.321103 98.341169 
L 106.321103 79.246223 
" clip-path="url(#p02e1b89f59)" style="fill: none; stroke: #1f77b4; stroke-width: 1.5"/>
    <path d="M 107.641903 112.369257 
L 107.641903 93.481176 
" clip-path="url(#p02e1b89f59)" style="fill: none; stroke: #1f77b4; stroke-width: 1.5"/>
    <path d="M 108.962702 120.232714 
L 108.962702 102.530076 
" clip-path="url(#p02e1b89f59)" style="fill: none; stroke: #1f77b4; stroke-width: 1.5"/>
    <path d="M 110.283502 91.592593 
L 110.283502 70.722172 
" clip-path="url(#p02e1b89f59)" style="fill: none; stroke: #1f77b4; stroke-width: 1.5"/>
    <path d="M 111.604301 112.559867 
L 111.604301 93.299077 
" clip-path="url(#p02e1b89f59)" style="fill: none; stroke: #1f77b4; stroke-width: 1.5"/>
    <path d="M 112.9251 137.013807 
L 112.9251 119.844162 
" clip-path="url(#p02e1b89f59)" style="fill: none; stroke: #1f77b4; stroke-width: 1.5"/>
    <path d="M 114.2459 118.684043 
L 114.2459 100.115735 
" clip-path="url(#p02e1b89f59)" style="fill: none; stroke: #1f77b4; stroke-width: 1.5"/>
    <path d="M 115.566699 115.950218 
L 115.566699 96.556365 
" clip-path="url(#p02e1b89f59)" style="fill: none; stroke: #1f77b4; stroke-width: 1.5"/>
    <path d="M 116.887499 111.61074 
L 116.887499 92.147742 
" clip-path="url(#p02e1b89f59)" style="fill: none; stroke: #1f77b4; stroke-width: 1.5"/>
    <path d="M 118.208298 105.409719 
L 118.208298 85.755301 
" clip-path="url(#p02e1b89f59)" style="fill: none; stroke: #1f77b4; stroke-width: 1.5"/>
    <path d="M 119.529098 110.518847 
L 119.529098 91.791247 
" clip-path="url(#p02e1b89f59)" style="fill: none; stroke: #1f77b4; stroke-width: 1.5"/>
    <path d="M 120.849897 102.084655 
L 120.849897 82.13743 
" clip-path="url(#p02e1b89f59)" style="fill: none; stroke: #1f77b4; stroke-width: 1.5"/>
    <path d="M 122.170696 109.976939 
L 122.170696 90.367266 
" clip-path="url(#p02e1b89f59)" style="fill: none; stroke: #1f77b4; stroke-width: 1.5"/>
    <path d="M 123.491496 132.206649 
L 123.491496 113.951825 
" clip-path="url(#p02e1b89f59)" style="fill: none; stroke: #1f77b4; stroke-width: 1.5"/>
    <path d="M 124.812295 99.895388 
L 124.812295 78.914317 
" clip-path="url(#p02e1b89f59)" style="fill: none; stroke: #1f77b4; stroke-width: 1.5"/>
    <path d="M 126.133095 127.257404 
L 126.133095 111.544489 
" clip-path="url(#p02e1b89f59)" style="fill: none; stroke: #1f77b4; stroke-width: 1.5"/>
    <path d="M 127.453894 108.800558 
L 127.453894 93.509536 
" clip-path="url(#p02e1b89f59)" style="fill: none; stroke: #1f77b4; stroke-width: 1.5"/>
    <path d="M 128.774694 121.635329 
L 128.774694 107.242902 
" clip-path="url(#p02e1b89f59)" style="fill: none; stroke: #1f77b4; stroke-width: 1.5"/>
    <path d="M 130.095493 132.238725 
L 130.095493 118.056409 
" clip-path="url(#p02e1b89f59)" style="fill: none; stroke: #1f77b4; stroke-width: 1.5"/>
    <path d="M 131.416292 123.481003 
L 131.416292 108.77587 
" clip-path="url(#p02e1b89f59)" style="fill: none; stroke: #1f77b4; stroke-width: 1.5"/>
    <path d="M 132.737092 116.864183 
L 132.737092 101.376454 
" clip-path="url(#p02e1b89f59)" style="fill: none; stroke: #1f77b4; stroke-width: 1.5"/>
    <path d="M 134.057891 117.479256 
L 134.057891 102.583745 
" clip-path="url(#p02e1b89f59)" style="fill: none; stroke: #1f77b4; stroke-width: 1.5"/>
    <path d="M 135.378691 124.276971 
L 135.378691 109.690638 
" clip-path="url(#p02e1b89f59)" style="fill: none; stroke: #1f77b4; stroke-width: 1.5"/>
    <path d="M 136.69949 134.600599 
L 136.69949 120.005689 
" clip-path="url(#p02e1b89f59)" style="fill: none; stroke: #1f77b4; stroke-width: 1.5"/>
    <path d="M 138.02029 127.635207 
L 138.02029 113.118923 
" clip-path="url(#p02e1b89f59)" style="fill: none; stroke: #1f77b4; stroke-width: 1.5"/>
    <path d="M 139.341089 118.748455 
L 139.341089 103.546207 
" clip-path="url(#p02e1b89f59)" style="fill: none; stroke: #1f77b4; stroke-width: 1.5"/>
    <path d="M 140.661888 123.222667 
L 140.661888 108.521142 
" clip-path="url(#p02e1b89f59)" style="fill: none; stroke: #1f77b4; stroke-width: 1.5"/>
    <path d="M 141.982688 129.330408 
L 141.982688 115.173874 
" clip-path="url(#p02e1b89f59)" style="fill: none; stroke: #1f77b4; stroke-width: 1.5"/>
    <path d="M 143.303487 134.88702 
L 143.303487 120.582219 
" clip-path="url(#p02e1b89f59)" style="fill: none; stroke: #1f77b4; stroke-width: 1.5"/>
    <path d="M 144.624287 157.838781 
L 144.624287 145.286444 
" clip-path="url(#p02e1b89f59)" style="fill: none; stroke: #1f77b4; stroke-width: 1.5"/>
    <path d="M 145.945086 131.795848 
L 145.945086 117.06211 
" clip-path="url(#p02e1b89f59)" style="fill: none; stroke: #1f77b4; stroke-width: 1.5"/>
    <path d="M 147.265886 125.873081 
L 147.265886 110.865923 
" clip-path="url(#p02e1b89f59)" style="fill: none; stroke: #1f77b4; stroke-width: 1.5"/>
    <path d="M 148.586685 142.033819 
L 148.586685 128.001508 
" clip-path="url(#p02e1b89f59)" style="fill: none; stroke: #1f77b4; stroke-width: 1.5"/>
    <path d="M 149.907485 163.757149 
L 149.907485 151.128955 
" clip-path="url(#p02e1b89f59)" style="fill: none; stroke: #1f77b4; stroke-width: 1.5"/>
    <path d="M 151.228284 150.749699 
L 151.228284 137.565309 
" clip-path="url(#p02e1b89f59)" style="fill: none; stroke: #1f77b4; stroke-width: 1.5"/>
    <path d="M 152.549083 149.079506 
L 152.549083 135.808694 
" clip-path="url(#p02e1b89f59)" style="fill: none; stroke: #1f77b4; stroke-width: 1.5"/>
    <path d="M 153.869883 136.512288 
L 153.869883 122.444857 
" clip-path="url(#p02e1b89f59)" style="fill: none; stroke: #1f77b4; stroke-width: 1.5"/>
    <path d="M 155.190682 143.242797 
L 155.190682 129.16581 
" clip-path="url(#p02e1b89f59)" style="fill: none; stroke: #1f77b4; stroke-width: 1.5"/>
    <path d="M 156.511482 164.054901 
L 156.511482 151.081907 
" clip-path="url(#p02e1b89f59)" style="fill: none; stroke: #1f77b4; stroke-width: 1.5"/>
    <path d="M 157.832281 137.813053 
L 157.832281 123.550932 
" clip-path="url(#p02e1b89f59)" style="fill: none; stroke: #1f77b4; stroke-width: 1.5"/>
    <path d="M 159.153081 152.792537 
L 159.153081 139.262462 
" clip-path="url(#p02e1b89f59)" style="fill: none; stroke: #1f77b4; stroke-width: 1.5"/>
    <path d="M 160.47388 158.732833 
L 160.47388 145.737058 
" clip-path="url(#p02e1b89f59)" style="fill: none; stroke: #1f77b4; stroke-width: 1.5"/>
    <path d="M 161.794679 142.959629 
L 161.794679 128.545253 
" clip-path="url(#p02e1b89f59)" style="fill: none; stroke: #1f77b4; stroke-width: 1.5"/>
    <path d="M 163.115479 146.455678 
L 163.115479 132.744794 
" clip-path="url(#p02e1b89f59)" style="fill: none; stroke: #1f77b4; stroke-width: 1.5"/>
    <path d="M 164.436278 158.800669 
L 164.436278 146.120701 
" clip-path="url(#p02e1b89f59)" style="fill: none; stroke: #1f77b4; stroke-width: 1.5"/>
    <path d="M 165.757078 160.4043 
L 165.757078 147.398495 
" clip-path="url(#p02e1b89f59)" style="fill: none; stroke: #1f77b4; stroke-width: 1.5"/>
    <path d="M 167.077877 128.196825 
L 167.077877 112.667958 
" clip-path="url(#p02e1b89f59)" style="fill: none; stroke: #1f77b4; stroke-width: 1.5"/>
    <path d="M 168.398677 161.533174 
L 168.398677 148.593019 
" clip-path="url(#p02e1b89f59)" style="fill: none; stroke: #1f77b4; stroke-width: 1.5"/>
    <path d="M 169.719476 154.693963 
L 169.719476 141.358057 
" clip-path="url(#p02e1b89f59)" style="fill: none; stroke: #1f77b4; stroke-width: 1.5"/>
    <path d="M 171.040275 158.103783 
L 171.040275 144.977741 
" clip-path="url(#p02e1b89f59)" style="fill: none; stroke: #1f77b4; stroke-width: 1.5"/>
    <path d="M 172.361075 156.926423 
L 172.361075 143.467451 
" clip-path="url(#p02e1b89f59)" style="fill: none; stroke: #1f77b4; stroke-width: 1.5"/>
    <path d="M 173.681874 163.619124 
L 173.681874 150.851716 
" clip-path="url(#p02e1b89f59)" style="fill: none; stroke: #1f77b4; stroke-width: 1.5"/>
    <path d="M 175.002674 161.933815 
L 175.002674 148.974721 
" clip-path="url(#p02e1b89f59)" style="fill: none; stroke: #1f77b4; stroke-width: 1.5"/>
    <path d="M 176.323473 181.133975 
L 176.323473 169.26754 
" clip-path="url(#p02e1b89f59)" style="fill: none; stroke: #1f77b4; stroke-width: 1.5"/>
    <path d="M 177.644273 153.851088 
L 177.644273 140.078586 
" clip-path="url(#p02e1b89f59)" style="fill: none; stroke: #1f77b4; stroke-width: 1.5"/>
    <path d="M 178.965072 165.673968 
L 178.965072 152.473691 
" clip-path="url(#p02e1b89f59)" style="fill: none; stroke: #1f77b4; stroke-width: 1.5"/>
    <path d="M 180.285872 168.16669 
L 180.285872 155.405561 
" clip-path="url(#p02e1b89f59)" style="fill: none; stroke: #1f77b4; stroke-width: 1.5"/>
    <path d="M 181.606671 167.565618 
L 181.606671 154.698349 
" clip-path="url(#p02e1b89f59)" style="fill: none; stroke: #1f77b4; stroke-width: 1.5"/>
    <path d="M 182.92747 148.012759 
L 182.92747 133.863114 
" clip-path="url(#p02e1b89f59)" style="fill: none; stroke: #1f77b4; stroke-width: 1.5"/>
    <path d="M 184.24827 160.749142 
L 184.24827 147.631289 
" clip-path="url(#p02e1b89f59)" style="fill: none; stroke: #1f77b4; stroke-width: 1.5"/>
    <path d="M 185.569069 165.87425 
L 185.569069 153.225802 
" clip-path="url(#p02e1b89f59)" style="fill: none; stroke: #1f77b4; stroke-width: 1.5"/>
    <path d="M 186.889869 167.041063 
L 186.889869 154.288281 
" clip-path="url(#p02e1b89f59)" style="fill: none; stroke: #1f77b4; stroke-width: 1.5"/>
    <path d="M 188.210668 156.264089 
L 188.210668 145.311689 
" clip-path="url(#p02e1b89f59)" style="fill: none; stroke: #1f77b4; stroke-width: 1.5"/>
    <path d="M 189.531468 143.924275 
L 189.531468 132.38217 
" clip-path="url(#p02e1b89f59)" style="fill: none; stroke: #1f77b4; stroke-width: 1.5"/>
    <path d="M 190.852267 108.338127 
L 190.852267 94.957802 
" clip-path="url(#p02e1b89f59)" style="fill: none; stroke: #1f77b4; stroke-width: 1.5"/>
    <path d="M 192.173066 96.464292 
L 192.173066 82.934572 
" clip-path="url(#p02e1b89f59)" style="fill: none; stroke: #1f77b4; stroke-width: 1.5"/>
    <path d="M 193.493866 77.917165 
L 193.493866 63.882834 
" clip-path="url(#p02e1b89f59)" style="fill: none; stroke: #1f77b4; stroke-width: 1.5"/>
    <path d="M 194.814665 68.330255 
L 194.814665 53.581689 
" clip-path="url(#p02e1b89f59)" style="fill: none; stroke: #1f77b4; stroke-width: 1.5"/>
    <path d="M 196.135465 45.357574 
L 196.135465 29.369785 
" clip-path="url(#p02e1b89f59)" style="fill: none; stroke: #1f77b4; stroke-width: 1.5"/>
    <path d="M 197.456264 70.040379 
L 197.456264 55.768697 
" clip-path="url(#p02e1b89f59)" style="fill: none; stroke: #1f77b4; stroke-width: 1.5"/>
    <path d="M 198.777064 55.636114 
L 198.777064 40.849663 
" clip-path="url(#p02e1b89f59)" style="fill: none; stroke: #1f77b4; stroke-width: 1.5"/>
    <path d="M 200.097863 50.029526 
L 200.097863 35.04189 
" clip-path="url(#p02e1b89f59)" style="fill: none; stroke: #1f77b4; stroke-width: 1.5"/>
    <path d="M 201.418662 59.822433 
L 201.418662 45.068224 
" clip-path="url(#p02e1b89f59)" style="fill: none; stroke: #1f77b4; stroke-width: 1.5"/>
    <path d="M 202.739462 31.876095 
L 202.739462 15.959877 
" clip-path="url(#p02e1b89f59)" style="fill: none; stroke: #1f77b4; stroke-width: 1.5"/>
    <path d="M 204.060261 25.979143 
L 204.060261 9.67847 
" clip-path="url(#p02e1b89f59)" style="fill: none; stroke: #1f77b4; stroke-width: 1.5"/>
    <path d="M 205.381061 42.344834 
L 205.381061 26.916345 
" clip-path="url(#p02e1b89f59)" style="fill: none; stroke: #1f77b4; stroke-width: 1.5"/>
    <path d="M 206.70186 63.898288 
L 206.70186 49.301779 
" clip-path="url(#p02e1b89f59)" style="fill: none; stroke: #1f77b4; stroke-width: 1.5"/>
    <path d="M 208.02266 69.904308 
L 208.02266 55.526209 
" clip-path="url(#p02e1b89f59)" style="fill: none; stroke: #1f77b4; stroke-width: 1.5"/>
    <path d="M 209.343459 31.394994 
L 209.343459 15.25631 
" clip-path="url(#p02e1b89f59)" style="fill: none; stroke: #1f77b4; stroke-width: 1.5"/>
    <path d="M 210.664258 57.754928 
L 210.664258 43.218758 
" clip-path="url(#p02e1b89f59)" style="fill: none; stroke: #1f77b4; stroke-width: 1.5"/>
    <path d="M 211.985058 69.676588 
L 211.985058 55.155131 
" clip-path="url(#p02e1b89f59)" style="fill: none; stroke: #1f77b4; stroke-width: 1.5"/>
    <path d="M 213.305857 54.259054 
L 213.305857 39.291165 
" clip-path="url(#p02e1b89f59)" style="fill: none; stroke: #1f77b4; stroke-width: 1.5"/>
    <path d="M 214.626657 66.82524 
L 214.626657 52.412979 
" clip-path="url(#p02e1b89f59)" style="fill: none; stroke: #1f77b4; stroke-width: 1.5"/>
    <path d="M 215.947456 60.009504 
L 215.947456 45.397994 
" clip-path="url(#p02e1b89f59)" style="fill: none; stroke: #1f77b4; stroke-width: 1.5"/>
    <path d="M 217.268256 71.775553 
L 217.268256 57.647745 
" clip-path="url(#p02e1b89f59)" style="fill: none; stroke: #1f77b4; stroke-width: 1.5"/>
    <path d="M 218.589055 75.238003 
L 218.589055 61.10898 
" clip-path="url(#p02e1b89f59)" style="fill: none; stroke: #1f77b4; stroke-width: 1.5"/>
    <path d="M 219.909855 69.969066 
L 219.909855 55.509672 
" clip-path="url(#p02e1b89f59)" style="fill: none; stroke: #1f77b4; stroke-width: 1.5"/>
    <path d="M 221.230654 60.789358 
L 221.230654 46.011333 
" clip-path="url(#p02e1b89f59)" style="fill: none; stroke: #1f77b4; stroke-width: 1.5"/>
    <path d="M 222.551453 57.475146 
L 222.551453 42.223292 
" clip-path="url(#p02e1b89f59)" style="fill: none; stroke: #1f77b4; stroke-width: 1.5"/>
    <path d="M 223.872253 64.88995 
L 223.872253 50.27139 
" clip-path="url(#p02e1b89f59)" style="fill: none; stroke: #1f77b4; stroke-width: 1.5"/>
    <path d="M 225.193052 63.444441 
L 225.193052 48.684092 
" clip-path="url(#p02e1b89f59)" style="fill: none; stroke: #1f77b4; stroke-width: 1.5"/>
    <path d="M 226.513852 74.932478 
L 226.513852 60.853703 
" clip-path="url(#p02e1b89f59)" style="fill: none; stroke: #1f77b4; stroke-width: 1.5"/>
    <path d="M 227.834651 61.117669 
L 227.834651 46.339025 
" clip-path="url(#p02e1b89f59)" style="fill: none; stroke: #1f77b4; stroke-width: 1.5"/>
    <path d="M 229.155451 73.110766 
L 229.155451 58.708799 
" clip-path="url(#p02e1b89f59)" style="fill: none; stroke: #1f77b4; stroke-width: 1.5"/>
    <path d="M 230.47625 68.583456 
L 230.47625 53.79853 
" clip-path="url(#p02e1b89f59)" style="fill: none; stroke: #1f77b4; stroke-width: 1.5"/>
    <path d="M 231.797049 100.51308 
L 231.797049 87.838458 
" clip-path="url(#p02e1b89f59)" style="fill: none; stroke: #1f77b4; stroke-width: 1.5"/>
    <path d="M 233.117849 66.624077 
L 233.117849 51.810058 
" clip-path="url(#p02e1b89f59)" style="fill: none; stroke: #1f77b4; stroke-width: 1.5"/>
    <path d="M 234.438648 78.110167 
L 234.438648 63.981374 
" clip-path="url(#p02e1b89f59)" style="fill: none; stroke: #1f77b4; stroke-width: 1.5"/>
    <path d="M 235.759448 62.375163 
L 235.759448 47.324501 
" clip-path="url(#p02e1b89f59)" style="fill: none; stroke: #1f77b4; stroke-width: 1.5"/>
    <path d="M 237.080247 91.954417 
L 237.080247 78.524133 
" clip-path="url(#p02e1b89f59)" style="fill: none; stroke: #1f77b4; stroke-width: 1.5"/>
    <path d="M 238.401047 95.424639 
L 238.401047 82.332628 
" clip-path="url(#p02e1b89f59)" style="fill: none; stroke: #1f77b4; stroke-width: 1.5"/>
    <path d="M 239.721846 77.968985 
L 239.721846 63.794832 
" clip-path="url(#p02e1b89f59)" style="fill: none; stroke: #1f77b4; stroke-width: 1.5"/>
    <path d="M 241.042645 101.40423 
L 241.042645 88.583132 
" clip-path="url(#p02e1b89f59)" style="fill: none; stroke: #1f77b4; stroke-width: 1.5"/>
    <path d="M 242.363445 86.622197 
L 242.363445 72.595284 
" clip-path="url(#p02e1b89f59)" style="fill: none; stroke: #1f77b4; stroke-width: 1.5"/>
    <path d="M 243.684244 62.580818 
L 243.684244 47.4208 
" clip-path="url(#p02e1b89f59)" style="fill: none; stroke: #1f77b4; stroke-width: 1.5"/>
    <path d="M 245.005044 91.857034 
L 245.005044 78.773192 
" clip-path="url(#p02e1b89f59)" style="fill: none; stroke: #1f77b4; stroke-width: 1.5"/>
    <path d="M 246.325843 90.168221 
L 246.325843 77.537048 
" clip-path="url(#p02e1b89f59)" style="fill: none; stroke: #1f77b4; stroke-width: 1.5"/>
    <path d="M 247.646643 82.467526 
L 247.646643 69.736703 
" clip-path="url(#p02e1b89f59)" style="fill: none; stroke: #1f77b4; stroke-width: 1.5"/>
    <path d="M 248.967442 91.378541 
L 248.967442 78.890128 
" clip-path="url(#p02e1b89f59)" style="fill: none; stroke: #1f77b4; stroke-width: 1.5"/>
    <path d="M 250.288242 108.389655 
L 250.288242 96.877874 
" clip-path="url(#p02e1b89f59)" style="fill: none; stroke: #1f77b4; stroke-width: 1.5"/>
    <path d="M 251.609041 83.926624 
L 251.609041 70.900083 
" clip-path="url(#p02e1b89f59)" style="fill: none; stroke: #1f77b4; stroke-width: 1.5"/>
    <path d="M 252.92984 93.974753 
L 252.92984 81.941107 
" clip-path="url(#p02e1b89f59)" style="fill: none; stroke: #1f77b4; stroke-width: 1.5"/>
    <path d="M 254.25064 94.124053 
L 254.25064 81.792214 
" clip-path="url(#p02e1b89f59)" style="fill: none; stroke: #1f77b4; stroke-width: 1.5"/>
    <path d="M 255.571439 97.620727 
L 255.571439 85.79428 
" clip-path="url(#p02e1b89f59)" style="fill: none; stroke: #1f77b4; stroke-width: 1.5"/>
    <path d="M 256.892239 92.71415 
L 256.892239 80.526178 
" clip-path="url(#p02e1b89f59)" style="fill: none; stroke: #1f77b4; stroke-width: 1.5"/>
    <path d="M 258.213038 95.173733 
L 258.213038 82.694918 
" clip-path="url(#p02e1b89f59)" style="fill: none; stroke: #1f77b4; stroke-width: 1.5"/>
    <path d="M 259.533838 84.679625 
L 259.533838 71.740849 
" clip-path="url(#p02e1b89f59)" style="fill: none; stroke: #1f77b4; stroke-width: 1.5"/>
    <path d="M 260.854637 111.469182 
L 260.854637 100.025498 
" clip-path="url(#p02e1b89f59)" style="fill: none; stroke: #1f77b4; stroke-width: 1.5"/>
    <path d="M 262.175436 94.054137 
L 262.175436 81.734775 
" clip-path="url(#p02e1b89f59)" style="fill: none; stroke: #1f77b4; stroke-width: 1.5"/>
    <path d="M 263.496236 105.029712 
L 263.496236 92.893495 
" clip-path="url(#p02e1b89f59)" style="fill: none; stroke: #1f77b4; stroke-width: 1.5"/>
    <path d="M 264.817035 110.519826 
L 264.817035 98.863676 
" clip-path="url(#p02e1b89f59)" style="fill: none; stroke: #1f77b4; stroke-width: 1.5"/>
    <path d="M 266.137835 109.390647 
L 266.137835 97.652182 
" clip-path="url(#p02e1b89f59)" style="fill: none; stroke: #1f77b4; stroke-width: 1.5"/>
    <path d="M 267.458634 116.466517 
L 267.458634 105.232925 
" clip-path="url(#p02e1b89f59)" style="fill: none; stroke: #1f77b4; stroke-width: 1.5"/>
    <path d="M 268.779434 118.221687 
L 268.779434 106.935863 
" clip-path="url(#p02e1b89f59)" style="fill: none; stroke: #1f77b4; stroke-width: 1.5"/>
    <path d="M 270.100233 111.082516 
L 270.100233 99.416913 
" clip-path="url(#p02e1b89f59)" style="fill: none; stroke: #1f77b4; stroke-width: 1.5"/>
    <path d="M 271.421032 123.787867 
L 271.421032 112.425256 
" clip-path="url(#p02e1b89f59)" style="fill: none; stroke: #1f77b4; stroke-width: 1.5"/>
    <path d="M 272.741832 102.348488 
L 272.741832 89.993114 
" clip-path="url(#p02e1b89f59)" style="fill: none; stroke: #1f77b4; stroke-width: 1.5"/>
    <path d="M 274.062631 89.666479 
L 274.062631 76.790606 
" clip-path="url(#p02e1b89f59)" style="fill: none; stroke: #1f77b4; stroke-width: 1.5"/>
    <path d="M 275.383431 117.514781 
L 275.383431 105.9022 
" clip-path="url(#p02e1b89f59)" style="fill: none; stroke: #1f77b4; stroke-width: 1.5"/>
    <path d="M 276.70423 129.262618 
L 276.70423 118.519691 
" clip-path="url(#p02e1b89f59)" style="fill: none; stroke: #1f77b4; stroke-width: 1.5"/>
    <path d="M 278.02503 108.160976 
L 278.02503 96.123217 
" clip-path="url(#p02e1b89f59)" style="fill: none; stroke: #1f77b4; stroke-width: 1.5"/>
    <path d="M 279.345829 121.612525 
L 279.345829 110.324726 
" clip-path="url(#p02e1b89f59)" style="fill: none; stroke: #1f77b4; stroke-width: 1.5"/>
    <path d="M 280.666628 128.292459 
L 280.666628 117.168545 
" clip-path="url(#p02e1b89f59)" style="fill: none; stroke: #1f77b4; stroke-width: 1.5"/>
    <path d="M 281.987428 109.494175 
L 281.987428 97.745276 
" clip-path="url(#p02e1b89f59)" style="fill: none; stroke: #1f77b4; stroke-width: 1.5"/>
    <path d="M 283.308227 103.740253 
L 283.308227 91.563725 
" clip-path="url(#p02e1b89f59)" style="fill: none; stroke: #1f77b4; stroke-width: 1.5"/>
    <path d="M 284.629027 121.683641 
L 284.629027 110.212267 
" clip-path="url(#p02e1b89f59)" style="fill: none; stroke: #1f77b4; stroke-width: 1.5"/>
    <path d="M 285.949826 118.755454 
L 285.949826 107.44808 
" clip-path="url(#p02e1b89f59)" style="fill: none; stroke: #1f77b4; stroke-width: 1.5"/>
    <path d="M 287.270626 142.807437 
L 287.270626 132.503621 
" clip-path="url(#p02e1b89f59)" style="fill: none; stroke: #1f77b4; stroke-width: 1.5"/>
    <path d="M 288.591425 130.937197 
L 288.591425 119.809376 
" clip-path="url(#p02e1b89f59)" style="fill: none; stroke: #1f77b4; stroke-width: 1.5"/>
    <path d="M 289.912225 114.630324 
L 289.912225 102.762593 
" clip-path="url(#p02e1b89f59)" style="fill: none; stroke: #1f77b4; stroke-width: 1.5"/>
    <path d="M 291.233024 128.002287 
L 291.233024 116.894614 
" clip-path="url(#p02e1b89f59)" style="fill: none; stroke: #1f77b4; stroke-width: 1.5"/>
    <path d="M 292.553823 120.374166 
L 292.553823 108.846753 
" clip-path="url(#p02e1b89f59)" style="fill: none; stroke: #1f77b4; stroke-width: 1.5"/>
    <path d="M 293.874623 135.411415 
L 293.874623 124.43959 
" clip-path="url(#p02e1b89f59)" style="fill: none; stroke: #1f77b4; stroke-width: 1.5"/>
    <path d="M 295.195422 113.828165 
L 295.195422 101.83918 
" clip-path="url(#p02e1b89f59)" style="fill: none; stroke: #1f77b4; stroke-width: 1.5"/>
    <path d="M 296.516222 126.903662 
L 296.516222 115.602767 
" clip-path="url(#p02e1b89f59)" style="fill: none; stroke: #1f77b4; stroke-width: 1.5"/>
    <path d="M 297.837021 124.201901 
L 297.837021 112.751177 
" clip-path="url(#p02e1b89f59)" style="fill: none; stroke: #1f77b4; stroke-width: 1.5"/>
    <path d="M 299.157821 131.093117 
L 299.157821 120.584198 
" clip-path="url(#p02e1b89f59)" style="fill: none; stroke: #1f77b4; stroke-width: 1.5"/>
    <path d="M 300.47862 128.198231 
L 300.47862 117.783509 
" clip-path="url(#p02e1b89f59)" style="fill: none; stroke: #1f77b4; stroke-width: 1.5"/>
    <path d="M 301.799419 141.485596 
L 301.799419 131.659215 
" clip-path="url(#p02e1b89f59)" style="fill: none; stroke: #1f77b4; stroke-width: 1.5"/>
    <path d="M 303.120219 149.899579 
L 303.120219 140.558436 
" clip-path="url(#p02e1b89f59)" style="fill: none; stroke: #1f77b4; stroke-width: 1.5"/>
    <path d="M 304.441018 137.724747 
L 304.441018 127.741901 
" clip-path="url(#p02e1b89f59)" style="fill: none; stroke: #1f77b4; stroke-width: 1.5"/>
    <path d="M 305.761818 148.15054 
L 305.761818 138.572945 
" clip-path="url(#p02e1b89f59)" style="fill: none; stroke: #1f77b4; stroke-width: 1.5"/>
    <path d="M 307.082617 133.357942 
L 307.082617 122.610542 
" clip-path="url(#p02e1b89f59)" style="fill: none; stroke: #1f77b4; stroke-width: 1.5"/>
    <path d="M 308.403417 139.324514 
L 308.403417 129.256085 
" clip-path="url(#p02e1b89f59)" style="fill: none; stroke: #1f77b4; stroke-width: 1.5"/>
    <path d="M 309.724216 148.55648 
L 309.724216 138.809608 
" clip-path="url(#p02e1b89f59)" style="fill: none; stroke: #1f77b4; stroke-width: 1.5"/>
    <path d="M 311.045015 147.966571 
L 311.045015 138.297892 
" clip-path="url(#p02e1b89f59)" style="fill: none; stroke: #1f77b4; stroke-width: 1.5"/>
    <path d="M 312.365815 151.754104 
L 312.365815 142.40553 
" clip-path="url(#p02e1b89f59)" style="fill: none; stroke: #1f77b4; stroke-width: 1.5"/>
    <path d="M 313.686614 145.239235 
L 313.686614 135.299068 
" clip-path="url(#p02e1b89f59)" style="fill: none; stroke: #1f77b4; stroke-width: 1.5"/>
    <path d="M 315.007414 135.251826 
L 315.007414 125.008284 
" clip-path="url(#p02e1b89f59)" style="fill: none; stroke: #1f77b4; stroke-width: 1.5"/>
    <path d="M 316.328213 151.379896 
L 316.328213 141.919782 
" clip-path="url(#p02e1b89f59)" style="fill: none; stroke: #1f77b4; stroke-width: 1.5"/>
    <path d="M 317.649013 150.879177 
L 317.649013 141.356532 
" clip-path="url(#p02e1b89f59)" style="fill: none; stroke: #1f77b4; stroke-width: 1.5"/>
    <path d="M 318.969812 157.379713 
L 318.969812 148.042077 
" clip-path="url(#p02e1b89f59)" style="fill: none; stroke: #1f77b4; stroke-width: 1.5"/>
    <path d="M 320.290612 151.793417 
L 320.290612 142.220148 
" clip-path="url(#p02e1b89f59)" style="fill: none; stroke: #1f77b4; stroke-width: 1.5"/>
    <path d="M 321.611411 161.801784 
L 321.611411 152.697124 
" clip-path="url(#p02e1b89f59)" style="fill: none; stroke: #1f77b4; stroke-width: 1.5"/>
    <path d="M 322.93221 154.733054 
L 322.93221 145.289356 
" clip-path="url(#p02e1b89f59)" style="fill: none; stroke: #1f77b4; stroke-width: 1.5"/>
    <path d="M 324.25301 156.574529 
L 324.25301 147.082792 
" clip-path="url(#p02e1b89f59)" style="fill: none; stroke: #1f77b4; stroke-width: 1.5"/>
    <path d="M 325.573809 160.37118 
L 325.573809 150.901278 
" clip-path="url(#p02e1b89f59)" style="fill: none; stroke: #1f77b4; stroke-width: 1.5"/>
    <path d="M 326.894609 158.169158 
L 326.894609 148.623883 
" clip-path="url(#p02e1b89f59)" style="fill: none; stroke: #1f77b4; stroke-width: 1.5"/>
    <path d="M 328.215408 170.992282 
L 328.215408 162.321353 
" clip-path="url(#p02e1b89f59)" style="fill: none; stroke: #1f77b4; stroke-width: 1.5"/>
    <path d="M 329.536208 164.842814 
L 329.536208 155.701829 
" clip-path="url(#p02e1b89f59)" style="fill: none; stroke: #1f77b4; stroke-width: 1.5"/>
    <path d="M 330.857007 157.670933 
L 330.857007 148.068747 
" clip-path="url(#p02e1b89f59)" style="fill: none; stroke: #1f77b4; stroke-width: 1.5"/>
    <path d="M 332.177806 170.162873 
L 332.177806 161.179295 
" clip-path="url(#p02e1b89f59)" style="fill: none; stroke: #1f77b4; stroke-width: 1.5"/>
    <path d="M 333.498606 172.31954 
L 333.498606 163.269751 
" clip-path="url(#p02e1b89f59)" style="fill: none; stroke: #1f77b4; stroke-width: 1.5"/>
    <path d="M 334.819405 170.814418 
L 334.819405 161.964428 
" clip-path="url(#p02e1b89f59)" style="fill: none; stroke: #1f77b4; stroke-width: 1.5"/>
    <path d="M 336.140205 178.821815 
L 336.140205 170.186905 
" clip-path="url(#p02e1b89f59)" style="fill: none; stroke: #1f77b4; stroke-width: 1.5"/>
    <path d="M 337.461004 177.471843 
L 337.461004 168.86089 
" clip-path="url(#p02e1b89f59)" style="fill: none; stroke: #1f77b4; stroke-width: 1.5"/>
    <path d="M 338.781804 179.465845 
L 338.781804 170.867176 
" clip-path="url(#p02e1b89f59)" style="fill: none; stroke: #1f77b4; stroke-width: 1.5"/>
    <path d="M 340.102603 177.900747 
L 340.102603 169.342858 
" clip-path="url(#p02e1b89f59)" style="fill: none; stroke: #1f77b4; stroke-width: 1.5"/>
    <path d="M 341.423402 174.39281 
L 341.423402 165.646726 
" clip-path="url(#p02e1b89f59)" style="fill: none; stroke: #1f77b4; stroke-width: 1.5"/>
    <path d="M 342.744202 185.394944 
L 342.744202 177.180307 
" clip-path="url(#p02e1b89f59)" style="fill: none; stroke: #1f77b4; stroke-width: 1.5"/>
    <path d="M 344.065001 178.892163 
L 344.065001 170.123085 
" clip-path="url(#p02e1b89f59)" style="fill: none; stroke: #1f77b4; stroke-width: 1.5"/>
    <path d="M 345.385801 171.481125 
L 345.385801 162.310273 
" clip-path="url(#p02e1b89f59)" style="fill: none; stroke: #1f77b4; stroke-width: 1.5"/>
    <path d="M 346.7066 179.943198 
L 346.7066 171.217399 
" clip-path="url(#p02e1b89f59)" style="fill: none; stroke: #1f77b4; stroke-width: 1.5"/>
    <path d="M 348.0274 180.915562 
L 348.0274 172.490421 
" clip-path="url(#p02e1b89f59)" style="fill: none; stroke: #1f77b4; stroke-width: 1.5"/>
    <path d="M 349.348199 176.475682 
L 349.348199 167.879675 
" clip-path="url(#p02e1b89f59)" style="fill: none; stroke: #1f77b4; stroke-width: 1.5"/>
    <path d="M 350.668998 187.108903 
L 350.668998 179.375348 
" clip-path="url(#p02e1b89f59)" style="fill: none; stroke: #1f77b4; stroke-width: 1.5"/>
    <path d="M 351.989798 196.637593 
L 351.989798 189.24481 
" clip-path="url(#p02e1b89f59)" style="fill: none; stroke: #1f77b4; stroke-width: 1.5"/>
    <path d="M 353.310597 188.402795 
L 353.310597 180.704647 
" clip-path="url(#p02e1b89f59)" style="fill: none; stroke: #1f77b4; stroke-width: 1.5"/>
    <path d="M 354.631397 189.390784 
L 354.631397 181.847242 
" clip-path="url(#p02e1b89f59)" style="fill: none; stroke: #1f77b4; stroke-width: 1.5"/>
    <path d="M 355.952196 189.982832 
L 355.952196 182.297215 
" clip-path="url(#p02e1b89f59)" style="fill: none; stroke: #1f77b4; stroke-width: 1.5"/>
    <path d="M 357.272996 185.461669 
L 357.272996 177.581933 
" clip-path="url(#p02e1b89f59)" style="fill: none; stroke: #1f77b4; stroke-width: 1.5"/>
    <path d="M 358.593795 189.79953 
L 358.593795 182.046122 
" clip-path="url(#p02e1b89f59)" style="fill: none; stroke: #1f77b4; stroke-width: 1.5"/>
    <path d="M 359.914595 191.171176 
L 359.914595 183.432753 
" clip-path="url(#p02e1b89f59)" style="fill: none; stroke: #1f77b4; stroke-width: 1.5"/>
    <path d="M 361.235394 195.854708 
L 361.235394 188.433326 
" clip-path="url(#p02e1b89f59)" style="fill: none; stroke: #1f77b4; stroke-width: 1.5"/>
    <path d="M 362.556193 199.6712 
L 362.556193 192.371387 
" clip-path="url(#p02e1b89f59)" style="fill: none; stroke: #1f77b4; stroke-width: 1.5"/>
    <path d="M 363.876993 193.202278 
L 363.876993 185.639015 
" clip-path="url(#p02e1b89f59)" style="fill: none; stroke: #1f77b4; stroke-width: 1.5"/>
    <path d="M 365.197792 192.553967 
L 365.197792 184.746046 
" clip-path="url(#p02e1b89f59)" style="fill: none; stroke: #1f77b4; stroke-width: 1.5"/>
    <path d="M 366.518592 198.80379 
L 366.518592 191.317531 
" clip-path="url(#p02e1b89f59)" style="fill: none; stroke: #1f77b4; stroke-width: 1.5"/>
    <path d="M 367.839391 193.385143 
L 367.839391 185.72412 
" clip-path="url(#p02e1b89f59)" style="fill: none; stroke: #1f77b4; stroke-width: 1.5"/>
    <path d="M 369.160191 196.756707 
L 369.160191 189.240744 
" clip-path="url(#p02e1b89f59)" style="fill: none; stroke: #1f77b4; stroke-width: 1.5"/>
    <path d="M 370.48099 203.986207 
L 370.48099 196.73163 
" clip-path="url(#p02e1b89f59)" style="fill: none; stroke: #1f77b4; stroke-width: 1.5"/>
    <path d="M 371.801789 204.953267 
L 371.801789 197.946762 
" clip-path="url(#p02e1b89f59)" style="fill: none; stroke: #1f77b4; stroke-width: 1.5"/>
    <path d="M 373.122589 205.291509 
L 373.122589 198.182687 
" clip-path="url(#p02e1b89f59)" style="fill: none; stroke: #1f77b4; stroke-width: 1.5"/>
    <path d="M 374.443388 209.163142 
L 374.443388 202.22327 
" clip-path="url(#p02e1b89f59)" style="fill: none; stroke: #1f77b4; stroke-width: 1.5"/>
    <path d="M 375.764188 206.502584 
L 375.764188 199.504474 
" clip-path="url(#p02e1b89f59)" style="fill: none; stroke: #1f77b4; stroke-width: 1.5"/>
    <path d="M 377.084987 204.87146 
L 377.084987 197.937672 
" clip-path="url(#p02e1b89f59)" style="fill: none; stroke: #1f77b4; stroke-width: 1.5"/>
    <path d="M 378.405787 206.798196 
L 378.405787 199.624425 
" clip-path="url(#p02e1b89f59)" style="fill: none; stroke: #1f77b4; stroke-width: 1.5"/>
    <path d="M 379.726586 209.655203 
L 379.726586 202.645778 
" clip-path="url(#p02e1b89f59)" style="fill: none; stroke: #1f77b4; stroke-width: 1.5"/>
    <path d="M 381.047385 203.984062 
L 381.047385 196.745608 
" clip-path="url(#p02e1b89f59)" style="fill: none; stroke: #1f77b4; stroke-width: 1.5"/>
    <path d="M 382.368185 213.398691 
L 382.368185 206.612484 
" clip-path="url(#p02e1b89f59)" style="fill: none; stroke: #1f77b4; stroke-width: 1.5"/>
    <path d="M 383.688984 210.415582 
L 383.688984 203.528072 
" clip-path="url(#p02e1b89f59)" style="fill: none; stroke: #1f77b4; stroke-width: 1.5"/>
    <path d="M 385.009784 221.526291 
L 385.009784 215.110181 
" clip-path="url(#p02e1b89f59)" style="fill: none; stroke: #1f77b4; stroke-width: 1.5"/>
    <path d="M 386.330583 216.574311 
L 386.330583 209.849615 
" clip-path="url(#p02e1b89f59)" style="fill: none; stroke: #1f77b4; stroke-width: 1.5"/>
    <path d="M 387.651383 221.902828 
L 387.651383 215.443705 
" clip-path="url(#p02e1b89f59)" style="fill: none; stroke: #1f77b4; stroke-width: 1.5"/>
    <path d="M 388.972182 214.645633 
L 388.972182 208.010626 
" clip-path="url(#p02e1b89f59)" style="fill: none; stroke: #1f77b4; stroke-width: 1.5"/>
    <path d="M 390.292982 216.004388 
L 390.292982 209.294811 
" clip-path="url(#p02e1b89f59)" style="fill: none; stroke: #1f77b4; stroke-width: 1.5"/>
    <path d="M 391.613781 215.007344 
L 391.613781 208.196549 
" clip-path="url(#p02e1b89f59)" style="fill: none; stroke: #1f77b4; stroke-width: 1.5"/>
    <path d="M 392.93458 220.293404 
L 392.93458 213.816958 
" clip-path="url(#p02e1b89f59)" style="fill: none; stroke: #1f77b4; stroke-width: 1.5"/>
    <path d="M 394.25538 227.290631 
L 394.25538 221.107139 
" clip-path="url(#p02e1b89f59)" style="fill: none; stroke: #1f77b4; stroke-width: 1.5"/>
    <path d="M 395.576179 222.646763 
L 395.576179 216.205339 
" clip-path="url(#p02e1b89f59)" style="fill: none; stroke: #1f77b4; stroke-width: 1.5"/>
    <path d="M 396.896979 227.669575 
L 396.896979 221.4095 
" clip-path="url(#p02e1b89f59)" style="fill: none; stroke: #1f77b4; stroke-width: 1.5"/>
    <path d="M 398.217778 223.938731 
L 398.217778 215.8251 
" clip-path="url(#p02e1b89f59)" style="fill: none; stroke: #1f77b4; stroke-width: 1.5"/>
    <path d="M 399.538578 236.554721 
L 399.538578 224.255165 
" clip-path="url(#p02e1b89f59)" style="fill: none; stroke: #1f77b4; stroke-width: 1.5"/>
   </g>
   <g id="line2d_21">
    <path d="M 60.753523 70.343282 
L 62.074322 70.343282 
L 62.074322 47.462488 
L 63.395122 47.462488 
L 63.395122 44.440708 
L 64.715921 44.440708 
L 64.715921 58.489959 
L 66.03672 58.489959 
L 66.03672 55.752597 
L 67.35752 55.752597 
L 67.35752 64.16101 
L 68.678319 64.16101 
L 68.678319 37.091664 
L 69.999119 37.091664 
L 69.999119 80.261255 
L 71.319918 80.261255 
L 71.319918 34.13258 
L 72.640718 34.13258 
L 72.640718 50.533425 
L 73.961517 50.533425 
L 73.961517 74.678565 
L 75.282317 74.678565 
L 75.282317 32.824878 
L 76.603116 32.824878 
L 76.603116 55.382616 
L 77.923915 55.382616 
L 77.923915 87.912912 
L 79.244715 87.912912 
L 79.244715 53.298943 
L 80.565514 53.298943 
L 80.565514 85.710952 
L 81.886314 85.710952 
L 81.886314 74.652376 
L 83.207113 74.652376 
L 83.207113 50.340291 
L 84.527913 50.340291 
L 84.527913 65.705152 
L 85.848712 65.705152 
L 85.848712 75.920894 
L 87.169511 75.920894 
L 87.169511 88.439298 
L 88.490311 88.439298 
L 88.490311 97.649933 
L 89.81111 97.649933 
L 89.81111 91.964519 
L 91.13191 91.964519 
L 91.13191 70.707901 
L 92.452709 70.707901 
L 92.452709 79.892992 
L 93.773509 79.892992 
L 93.773509 70.723414 
L 95.094308 70.723414 
L 95.094308 52.007841 
L 96.415107 52.007841 
L 96.415107 56.614218 
L 97.735907 56.614218 
L 97.735907 83.03741 
L 99.056706 83.03741 
L 99.056706 90.793178 
L 100.377506 90.793178 
L 100.377506 113.696791 
L 101.698305 113.696791 
L 101.698305 86.585278 
L 104.339904 86.594169 
L 104.339904 73.967635 
L 105.660703 73.967635 
L 105.660703 97.447521 
L 106.981503 97.447521 
L 106.981503 102.74878 
L 108.302302 102.74878 
L 108.302302 98.643886 
L 109.623102 98.643886 
L 109.623102 99.571576 
L 110.943901 99.571576 
L 110.943901 113.175875 
L 112.264701 113.175875 
L 112.264701 105.43561 
L 113.5855 105.43561 
L 113.5855 106.395912 
L 114.9063 106.395912 
L 114.9063 102.38211 
L 116.227099 102.38211 
L 116.227099 116.218455 
L 117.547898 116.218455 
L 117.547898 101.371295 
L 118.868698 101.371295 
L 118.868698 100.475411 
L 120.189497 100.475411 
L 120.189497 95.834395 
L 121.510297 95.834395 
L 121.510297 85.743107 
L 122.831096 85.743107 
L 122.831096 117.508358 
L 124.151896 117.508358 
L 124.151896 91.912777 
L 125.472695 91.912777 
L 125.472695 119.930608 
L 126.793494 119.930608 
L 126.793494 93.9056 
L 128.114294 93.9056 
L 128.114294 116.601311 
L 129.435093 116.601311 
L 129.435093 121.828638 
L 130.755893 121.828638 
L 130.755893 121.443924 
L 132.076692 121.443924 
L 132.076692 111.546717 
L 133.397492 111.546717 
L 133.397492 105.380328 
L 134.718291 105.380328 
L 134.718291 111.36563 
L 136.03909 111.36563 
L 136.03909 131.282864 
L 137.35989 131.282864 
L 137.35989 122.622964 
L 138.680689 122.622964 
L 138.680689 117.342071 
L 140.001489 117.342071 
L 140.001489 115.160563 
L 141.322288 115.160563 
L 141.322288 114.089489 
L 142.643088 114.089489 
L 142.643088 130.436045 
L 143.963887 130.436045 
L 143.963887 152.619317 
L 145.284687 152.619317 
L 145.284687 123.351117 
L 146.605486 123.351117 
L 146.605486 122.326537 
L 147.926285 122.326537 
L 147.926285 133.258873 
L 149.247085 133.258873 
L 149.247085 148.725596 
L 150.567884 148.725596 
L 150.567884 143.139743 
L 151.888684 143.139743 
L 151.888684 149.265377 
L 153.209483 149.265377 
L 153.209483 126.108295 
L 154.530283 126.108295 
L 154.530283 143.538344 
L 155.851082 143.538344 
L 155.851082 146.554038 
L 157.171881 146.554038 
L 157.171881 136.911975 
L 158.492681 136.911975 
L 158.492681 149.450367 
L 159.81348 149.450367 
L 159.81348 144.65079 
L 161.13428 144.65079 
L 161.13428 149.123104 
L 162.455079 149.123104 
L 162.455079 131.442752 
L 163.775879 131.442752 
L 163.775879 147.941259 
L 165.096678 147.941259 
L 165.096678 164.210639 
L 166.417477 164.210639 
L 166.417477 121.90712 
L 167.738277 121.90712 
L 167.738277 148.947869 
L 169.059076 148.947869 
L 169.059076 138.67447 
L 170.379876 138.67447 
L 170.379876 159.284109 
L 171.700675 159.284109 
L 171.700675 151.352509 
L 173.021475 151.352509 
L 173.021475 148.349066 
L 174.342274 148.349066 
L 174.342274 164.888602 
L 175.663073 164.888602 
L 175.663073 168.052961 
L 176.983873 168.052961 
L 176.983873 147.021231 
L 178.304672 147.021231 
L 178.304672 160.251423 
L 179.625472 160.251423 
L 179.625472 169.032798 
L 180.946271 169.032798 
L 180.946271 156.659337 
L 182.267071 156.659337 
L 182.267071 127.608425 
L 183.58787 127.608425 
L 183.58787 169.610467 
L 184.90867 169.610467 
L 184.90867 158.082053 
L 187.550268 158.020576 
L 187.550268 142.254201 
L 188.871068 142.254201 
L 188.871068 149.728557 
L 190.191867 149.728557 
L 190.191867 102.908625 
L 191.512667 102.908625 
L 191.512667 99.910297 
L 192.833466 99.910297 
L 192.833466 69.519097 
L 194.154266 69.519097 
L 194.154266 60.833215 
L 195.475065 60.833215 
L 195.475065 48.585628 
L 196.795864 48.585628 
L 196.795864 57.56011 
L 198.116664 57.56011 
L 198.116664 41.679249 
L 199.437463 41.679249 
L 199.437463 55.881027 
L 200.758263 55.881027 
L 200.758263 37.248893 
L 202.079062 37.248893 
L 202.079062 28.00612 
L 203.399862 28.00612 
L 203.399862 29.565351 
L 204.720661 29.565351 
L 204.720661 37.797983 
L 206.04146 37.797983 
L 206.04146 44.300826 
L 207.36226 44.300826 
L 207.36226 56.705839 
L 208.683059 56.705839 
L 208.683059 42.429581 
L 210.003859 42.429581 
L 210.003859 38.355294 
L 211.324658 38.355294 
L 211.324658 59.740017 
L 212.645458 59.740017 
L 212.645458 53.213339 
L 213.966257 53.213339 
L 213.966257 66.21543 
L 215.287057 66.21543 
L 215.287057 49.898369 
L 216.607856 49.898369 
L 216.607856 55.281141 
L 217.928655 55.281141 
L 217.928655 58.058439 
L 219.249455 58.058439 
L 219.249455 77.300768 
L 220.570254 77.300768 
L 220.570254 67.488857 
L 221.891054 67.488857 
L 221.891054 39.797153 
L 223.211853 39.797153 
L 223.211853 39.929086 
L 224.532653 39.929086 
L 224.532653 62.917418 
L 225.853452 62.917418 
L 225.853452 54.785361 
L 227.174251 54.785361 
L 227.174251 61.57904 
L 228.495051 61.57904 
L 228.495051 63.817541 
L 229.81585 63.817541 
L 229.81585 65.925082 
L 231.13665 65.925082 
L 231.13665 84.457066 
L 232.457449 84.457066 
L 232.457449 81.039984 
L 233.778249 81.039984 
L 233.778249 57.409019 
L 235.099048 57.409019 
L 235.099048 65.314285 
L 236.419847 65.314285 
L 236.419847 80.342333 
L 237.740647 80.342333 
L 237.740647 84.82325 
L 239.061446 84.82325 
L 239.061446 69.744679 
L 240.382246 69.744679 
L 240.382246 83.80339 
L 241.703045 83.80339 
L 241.703045 78.851643 
L 243.023845 78.851643 
L 243.023845 72.099704 
L 244.344644 72.099704 
L 244.344644 91.920726 
L 245.665443 91.920726 
L 245.665443 55.540761 
L 246.986243 55.540761 
L 246.986243 96.740704 
L 248.307042 96.740704 
L 248.307042 89.300875 
L 249.627842 89.300875 
L 249.627842 91.542691 
L 250.948641 91.542691 
L 250.948641 97.03306 
L 252.269441 97.03306 
L 252.269441 80.251946 
L 253.59024 80.251946 
L 253.59024 78.502912 
L 254.91104 78.502912 
L 254.91104 94.984104 
L 256.231839 94.984104 
L 256.231839 94.400264 
L 257.552638 94.400264 
L 257.552638 74.035569 
L 258.873438 74.035569 
L 258.873438 88.286092 
L 260.194237 88.286092 
L 260.194237 93.72713 
L 261.515037 93.72713 
L 261.515037 97.436022 
L 262.835836 97.436022 
L 262.835836 90.8018 
L 264.156636 90.8018 
L 264.156636 106.861243 
L 265.477435 106.861243 
L 265.477435 100.217044 
L 266.798234 100.217044 
L 266.798234 110.972602 
L 268.119034 110.972602 
L 268.119034 119.230534 
L 269.439833 119.230534 
L 269.439833 107.247838 
L 270.760633 107.247838 
L 270.760633 108.165699 
L 272.081432 108.165699 
L 272.081432 100.996786 
L 273.402232 100.996786 
L 273.402232 84.475049 
L 274.723031 84.475049 
L 274.723031 108.442745 
L 276.04383 108.442745 
L 276.04383 116.773597 
L 277.36463 116.773597 
L 277.36463 112.178466 
L 278.685429 112.178466 
L 278.685429 116.426334 
L 280.006229 116.426334 
L 280.006229 110.261534 
L 281.327028 110.261534 
L 281.327028 122.151466 
L 282.647828 122.151466 
L 282.647828 95.376013 
L 283.968627 95.376013 
L 283.968627 111.331409 
L 285.289427 111.331409 
L 285.289427 110.428887 
L 286.610226 110.428887 
L 286.610226 134.991249 
L 287.931025 134.991249 
L 287.931025 119.471357 
L 289.251825 119.471357 
L 289.251825 122.063406 
L 290.572624 122.063406 
L 290.572624 118.166285 
L 291.893424 118.166285 
L 291.893424 118.316047 
L 293.214223 118.316047 
L 293.214223 117.431825 
L 294.535023 117.431825 
L 294.535023 130.029311 
L 295.855822 130.029311 
L 295.855822 105.815558 
L 297.176621 105.815558 
L 297.176621 127.262847 
L 298.497421 127.262847 
L 298.497421 114.311598 
L 299.81822 114.311598 
L 299.81822 121.190098 
L 301.13902 121.190098 
L 301.13902 138.402275 
L 302.459819 138.402275 
L 302.459819 143.818021 
L 303.780619 143.818021 
L 303.780619 145.860299 
L 305.101418 145.860299 
L 305.101418 132.38906 
L 306.422217 132.38906 
L 306.422217 129.59162 
L 307.743017 129.59162 
L 307.743017 136.077036 
L 309.063816 136.077036 
L 309.063816 133.464998 
L 310.384616 133.464998 
L 310.384616 151.747171 
L 311.705415 151.747171 
L 311.705415 146.708867 
L 313.026215 146.708867 
L 313.026215 140.072228 
L 314.347014 140.072228 
L 314.347014 132.974352 
L 315.667813 132.974352 
L 315.667813 144.613927 
L 316.988613 144.613927 
L 316.988613 145.233083 
L 318.309412 145.233083 
L 318.309412 152.309869 
L 319.630212 152.309869 
L 319.630212 142.197978 
L 320.951011 142.197978 
L 320.951011 147.987701 
L 322.271811 147.987701 
L 322.271811 162.317342 
L 323.59261 162.317342 
L 323.59261 151.478362 
L 324.91341 151.478362 
L 324.91341 150.970058 
L 326.234209 150.970058 
L 326.234209 166.736322 
L 327.555008 166.736322 
L 327.555008 155.624179 
L 328.875808 155.624179 
L 328.875808 160.031622 
L 330.196607 160.031622 
L 330.196607 165.306774 
L 331.517407 165.306774 
L 331.517407 155.34964 
L 332.838206 155.34964 
L 332.838206 165.906003 
L 334.159006 165.906003 
L 334.159006 169.976909 
L 335.479805 169.976909 
L 335.479805 170.471421 
L 336.800604 170.471421 
L 336.800604 166.909308 
L 338.121404 166.909308 
L 338.121404 177.508332 
L 339.442203 177.508332 
L 339.442203 181.623757 
L 340.763003 181.623757 
L 340.763003 172.996998 
L 342.083802 172.996998 
L 342.083802 174.481654 
L 343.404602 174.481654 
L 343.404602 172.436295 
L 344.725401 172.436295 
L 344.725401 169.135647 
L 346.0462 169.135647 
L 346.0462 182.68863 
L 347.367 182.68863 
L 347.367 170.06897 
L 348.687799 170.06897 
L 348.687799 175.764628 
L 350.008599 175.764628 
L 350.008599 193.070455 
L 351.329398 193.070455 
L 351.329398 180.475186 
L 352.650198 180.475186 
L 352.650198 183.308502 
L 353.970997 183.308502 
L 353.970997 195.55013 
L 355.291797 195.55013 
L 355.291797 174.704741 
L 356.612596 174.704741 
L 356.612596 182.616862 
L 357.933395 182.616862 
L 357.933395 187.309149 
L 359.254195 187.309149 
L 359.254195 188.739158 
L 360.574994 188.739158 
L 360.574994 191.617123 
L 361.895794 191.617123 
L 361.895794 195.747636 
L 363.216593 195.747636 
L 363.216593 189.660794 
L 364.537393 189.660794 
L 364.537393 187.53921 
L 365.858192 187.53921 
L 365.858192 193.577885 
L 367.178991 193.577885 
L 367.178991 199.584404 
L 368.499791 199.584404 
L 368.499791 187.789889 
L 369.82059 187.789889 
L 369.82059 197.246366 
L 371.14139 197.246366 
L 371.14139 201.923535 
L 372.462189 201.923535 
L 372.462189 201.227418 
L 373.782989 201.227418 
L 373.782989 206.356512 
L 375.103788 206.356512 
L 375.103788 198.45732 
L 376.424587 198.45732 
L 376.424587 206.39292 
L 377.745387 206.39292 
L 377.745387 203.701081 
L 379.066186 203.701081 
L 379.066186 202.204889 
L 380.386986 202.204889 
L 380.386986 201.013431 
L 381.707785 201.013431 
L 381.707785 207.597904 
L 383.028585 207.597904 
L 383.028585 215.671623 
L 384.349384 215.671623 
L 384.349384 208.340555 
L 385.670183 208.340555 
L 385.670183 214.230631 
L 386.990983 214.230631 
L 386.990983 216.719333 
L 388.311782 216.719333 
L 388.311782 213.974115 
L 389.632582 213.974115 
L 389.632582 216.358437 
L 390.953381 216.358437 
L 390.953381 212.518014 
L 392.274181 212.518014 
L 392.274181 211.76412 
L 393.59498 211.76412 
L 393.59498 222.516492 
L 394.91578 222.516492 
L 394.91578 219.886398 
L 396.236579 219.886398 
L 396.236579 227.618503 
L 397.557378 227.618503 
L 397.557378 222.670978 
L 398.878178 222.670978 
L 398.878178 222.670978 
" clip-path="url(#p02e1b89f59)" style="fill: none; stroke: #ff7f0e; stroke-width: 1.5; stroke-linecap: square"/>
   </g>
  </g>
 </g>
 <defs>
  <clipPath id="p02e1b89f59">
   <rect x="43.78125" y="7.2" width="373.39" height="233.83375"/>
  </clipPath>
 </defs>
</svg>
