<?xml version="1.0" encoding="UTF-8" standalone="no"?>
<!DOCTYPE svg PUBLIC "-//W3C//DTD SVG 1.1//EN"
 "http://www.w3.org/Graphics/SVG/1.1/DTD/svg11.dtd">
<!-- Generated by graphviz version 2.50.0 (20211209.0339)
 -->
<!-- Pages: 1 -->
<svg width="431pt" height="385pt"
 viewBox="0.00 0.00 430.50 385.00" xmlns="http://www.w3.org/2000/svg" xmlns:xlink="http://www.w3.org/1999/xlink">
<g id="graph0" class="graph" transform="scale(1 1) rotate(0) translate(4 381)">
<polygon fill="white" stroke="transparent" points="-4,4 -4,-381 426.5,-381 426.5,4 -4,4"/>
<!-- source_chopper -->
<g id="node1" class="node">
<title>source_chopper</title>
<polygon fill="none" stroke="black" points="172.5,-377 44.5,-377 44.5,-354 172.5,-354 172.5,-377"/>
<text text-anchor="middle" x="108.5" y="-361.8" font-family="Times,serif" font-size="14.00">source_chopper</text>
</g>
<!-- incident_beam -->
<g id="node2" class="node">
<title>incident_beam</title>
<polygon fill="none" stroke="black" points="231.5,-318 111.5,-318 111.5,-295 231.5,-295 231.5,-318"/>
<text text-anchor="middle" x="171.5" y="-302.8" font-family="Times,serif" font-size="14.00">incident_beam</text>
</g>
<!-- source_chopper&#45;&gt;incident_beam -->
<g id="edge1" class="edge">
<title>source_chopper&#45;&gt;incident_beam</title>
<path fill="none" stroke="black" d="M120.35,-353.78C129.33,-345.66 141.84,-334.33 152.25,-324.92"/>
<polygon fill="black" stroke="black" points="154.64,-327.48 159.7,-318.17 149.94,-322.29 154.64,-327.48"/>
</g>
<!-- L1 -->
<g id="node6" class="node">
<title>L1</title>
<polygon fill="none" stroke="black" points="187.5,-259 133.5,-259 133.5,-236 187.5,-236 187.5,-259"/>
<text text-anchor="middle" x="160.5" y="-243.8" font-family="Times,serif" font-size="14.00">L1</text>
</g>
<!-- incident_beam&#45;&gt;L1 -->
<g id="edge5" class="edge">
<title>incident_beam&#45;&gt;L1</title>
<path fill="none" stroke="black" d="M169.43,-294.78C168.03,-287.53 166.14,-277.74 164.46,-269.02"/>
<polygon fill="black" stroke="black" points="167.89,-268.33 162.56,-259.17 161.02,-269.66 167.89,-268.33"/>
</g>
<!-- theta -->
<g id="node12" class="node">
<title>theta</title>
<polygon fill="none" stroke="black" points="256.5,-82 202.5,-82 202.5,-59 256.5,-59 256.5,-82"/>
<text text-anchor="middle" x="229.5" y="-66.8" font-family="Times,serif" font-size="14.00">theta</text>
</g>
<!-- incident_beam&#45;&gt;theta -->
<g id="edge13" class="edge">
<title>incident_beam&#45;&gt;theta</title>
<path fill="none" stroke="black" d="M179.58,-294.7C197.91,-269.45 242.19,-203.94 257.5,-141 259.92,-131.07 260.24,-127.85 257.5,-118 254.79,-108.24 249.41,-98.47 244.09,-90.43"/>
<polygon fill="black" stroke="black" points="246.88,-88.31 238.25,-82.17 241.17,-92.36 246.88,-88.31"/>
</g>
<!-- sample_position -->
<g id="node3" class="node">
<title>sample_position</title>
<polygon fill="none" stroke="black" points="322,-377 191,-377 191,-354 322,-354 322,-377"/>
<text text-anchor="middle" x="256.5" y="-361.8" font-family="Times,serif" font-size="14.00">sample_position</text>
</g>
<!-- sample_position&#45;&gt;incident_beam -->
<g id="edge2" class="edge">
<title>sample_position&#45;&gt;incident_beam</title>
<path fill="none" stroke="black" d="M240.51,-353.78C227.93,-345.34 210.18,-333.44 195.83,-323.82"/>
<polygon fill="black" stroke="black" points="197.67,-320.84 187.42,-318.17 193.77,-326.65 197.67,-320.84"/>
</g>
<!-- scattered_beam -->
<g id="node5" class="node">
<title>scattered_beam</title>
<polygon fill="none" stroke="black" points="381.5,-318 251.5,-318 251.5,-295 381.5,-295 381.5,-318"/>
<text text-anchor="middle" x="316.5" y="-302.8" font-family="Times,serif" font-size="14.00">scattered_beam</text>
</g>
<!-- sample_position&#45;&gt;scattered_beam -->
<g id="edge4" class="edge">
<title>sample_position&#45;&gt;scattered_beam</title>
<path fill="none" stroke="black" d="M267.79,-353.78C276.25,-345.74 288.02,-334.55 297.88,-325.19"/>
<polygon fill="black" stroke="black" points="300.43,-327.6 305.27,-318.17 295.6,-322.52 300.43,-327.6"/>
</g>
<!-- position -->
<g id="node4" class="node">
<title>position</title>
<polygon fill="none" stroke="black" points="414.5,-377 340.5,-377 340.5,-354 414.5,-354 414.5,-377"/>
<text text-anchor="middle" x="377.5" y="-361.8" font-family="Times,serif" font-size="14.00">position</text>
</g>
<!-- position&#45;&gt;scattered_beam -->
<g id="edge3" class="edge">
<title>position&#45;&gt;scattered_beam</title>
<path fill="none" stroke="black" d="M366.03,-353.78C357.42,-345.74 345.45,-334.55 335.43,-325.19"/>
<polygon fill="black" stroke="black" points="337.62,-322.44 327.92,-318.17 332.84,-327.56 337.62,-322.44"/>
</g>
<!-- L2 -->
<g id="node7" class="node">
<title>L2</title>
<polygon fill="none" stroke="black" points="298.5,-259 244.5,-259 244.5,-236 298.5,-236 298.5,-259"/>
<text text-anchor="middle" x="271.5" y="-243.8" font-family="Times,serif" font-size="14.00">L2</text>
</g>
<!-- scattered_beam&#45;&gt;L2 -->
<g id="edge6" class="edge">
<title>scattered_beam&#45;&gt;L2</title>
<path fill="none" stroke="black" d="M308.04,-294.78C301.88,-286.98 293.38,-276.21 286.13,-267.03"/>
<polygon fill="black" stroke="black" points="288.87,-264.85 279.93,-259.17 283.38,-269.19 288.87,-264.85"/>
</g>
<!-- scattered_beam&#45;&gt;theta -->
<g id="edge14" class="edge">
<title>scattered_beam&#45;&gt;theta</title>
<path fill="none" stroke="black" d="M315.97,-294.59C314.08,-264.5 305.82,-178.59 271.5,-118 265.63,-107.64 257.1,-97.63 249.25,-89.57"/>
<polygon fill="black" stroke="black" points="251.35,-86.73 241.76,-82.22 246.45,-91.73 251.35,-86.73"/>
</g>
<!-- Ltotal -->
<g id="node8" class="node">
<title>Ltotal</title>
<polygon fill="none" stroke="black" points="116,-200 57,-200 57,-177 116,-177 116,-200"/>
<text text-anchor="middle" x="86.5" y="-184.8" font-family="Times,serif" font-size="14.00">Ltotal</text>
</g>
<!-- L1&#45;&gt;Ltotal -->
<g id="edge7" class="edge">
<title>L1&#45;&gt;Ltotal</title>
<path fill="none" stroke="black" d="M146.58,-235.78C135.83,-227.5 120.75,-215.89 108.39,-206.36"/>
<polygon fill="black" stroke="black" points="110.41,-203.5 100.36,-200.17 106.14,-209.05 110.41,-203.5"/>
</g>
<!-- L2&#45;&gt;Ltotal -->
<g id="edge8" class="edge">
<title>L2&#45;&gt;Ltotal</title>
<path fill="none" stroke="black" d="M244.2,-238.09C212.87,-228.44 161.24,-212.53 125.64,-201.56"/>
<polygon fill="black" stroke="black" points="126.64,-198.21 116.05,-198.61 124.58,-204.9 126.64,-198.21"/>
</g>
<!-- wavelength -->
<g id="node10" class="node">
<title>wavelength</title>
<polygon fill="none" stroke="black" points="99,-141 0,-141 0,-118 99,-118 99,-141"/>
<text text-anchor="middle" x="49.5" y="-125.8" font-family="Times,serif" font-size="14.00">wavelength</text>
</g>
<!-- Ltotal&#45;&gt;wavelength -->
<g id="edge10" class="edge">
<title>Ltotal&#45;&gt;wavelength</title>
<path fill="none" stroke="black" d="M79.54,-176.78C74.58,-169.14 67.77,-158.65 61.9,-149.6"/>
<polygon fill="black" stroke="black" points="64.81,-147.66 56.43,-141.17 58.94,-151.47 64.81,-147.66"/>
</g>
<!-- tof -->
<g id="node9" class="node">
<title>tof</title>
<polygon fill="none" stroke="black" points="188.5,-200 134.5,-200 134.5,-177 188.5,-177 188.5,-200"/>
<text text-anchor="middle" x="161.5" y="-184.8" font-family="Times,serif" font-size="14.00">tof</text>
</g>
<!-- tof&#45;&gt;wavelength -->
<g id="edge9" class="edge">
<title>tof&#45;&gt;wavelength</title>
<path fill="none" stroke="black" d="M140.7,-176.91C123.41,-168.11 98.59,-155.49 79.21,-145.62"/>
<polygon fill="black" stroke="black" points="80.69,-142.45 70.19,-141.03 77.52,-148.69 80.69,-142.45"/>
</g>
<!-- wavelength&#45;&gt;theta -->
<g id="edge12" class="edge">
<title>wavelength&#45;&gt;theta</title>
<path fill="none" stroke="black" d="M82.93,-117.91C114.03,-108.06 160.29,-93.42 192.49,-83.22"/>
<polygon fill="black" stroke="black" points="193.94,-86.43 202.41,-80.08 191.82,-79.76 193.94,-86.43"/>
</g>
<!-- Q -->
<g id="node14" class="node">
<title>Q</title>
<polygon fill="none" stroke="black" points="189.5,-23 135.5,-23 135.5,0 189.5,0 189.5,-23"/>
<text text-anchor="middle" x="162.5" y="-7.8" font-family="Times,serif" font-size="14.00">Q</text>
</g>
<!-- wavelength&#45;&gt;Q -->
<g id="edge16" class="edge">
<title>wavelength&#45;&gt;Q</title>
<path fill="none" stroke="black" d="M59.93,-117.79C79.35,-97.85 121.26,-54.84 145.06,-30.41"/>
<polygon fill="black" stroke="black" points="147.63,-32.78 152.1,-23.18 142.61,-27.9 147.63,-32.78"/>
</g>
<!-- gravity -->
<g id="node11" class="node">
<title>gravity</title>
<polygon fill="none" stroke="black" points="422.5,-141 354.5,-141 354.5,-118 422.5,-118 422.5,-141"/>
<text text-anchor="middle" x="388.5" y="-125.8" font-family="Times,serif" font-size="14.00">gravity</text>
</g>
<!-- gravity&#45;&gt;theta -->
<g id="edge11" class="edge">
<title>gravity&#45;&gt;theta</title>
<path fill="none" stroke="black" d="M358.97,-117.91C332.78,-108.52 294.42,-94.77 266.25,-84.68"/>
<polygon fill="black" stroke="black" points="267.35,-81.35 256.75,-81.27 264.98,-87.94 267.35,-81.35"/>
</g>
<!-- theta&#45;&gt;Q -->
<g id="edge17" class="edge">
<title>theta&#45;&gt;Q</title>
<path fill="none" stroke="black" d="M216.9,-58.78C207.35,-50.66 194.04,-39.33 182.97,-29.92"/>
<polygon fill="black" stroke="black" points="184.93,-26.99 175.05,-23.17 180.39,-32.32 184.93,-26.99"/>
</g>
<!-- sample_rotation -->
<g id="node13" class="node">
<title>sample_rotation</title>
<polygon fill="none" stroke="black" points="248,-141 117,-141 117,-118 248,-118 248,-141"/>
<text text-anchor="middle" x="182.5" y="-125.8" font-family="Times,serif" font-size="14.00">sample_rotation</text>
</g>
<!-- sample_rotation&#45;&gt;theta -->
<g id="edge15" class="edge">
<title>sample_rotation&#45;&gt;theta</title>
<path fill="none" stroke="black" d="M191.34,-117.78C197.77,-109.98 206.65,-99.21 214.22,-90.03"/>
<polygon fill="black" stroke="black" points="217.04,-92.12 220.7,-82.17 211.64,-87.66 217.04,-92.12"/>
</g>
</g>
</svg>
