<?xml version="1.0" encoding="utf-8" standalone="no"?>
<!DOCTYPE svg PUBLIC "-//W3C//DTD SVG 1.1//EN"
  "http://www.w3.org/Graphics/SVG/1.1/DTD/svg11.dtd">
<svg xmlns:xlink="http://www.w3.org/1999/xlink" width="395.328125pt" height="266.794375pt" viewBox="0 0 395.328125 266.794375" xmlns="http://www.w3.org/2000/svg" version="1.1">
 <metadata>
  <rdf:RDF xmlns:dc="http://purl.org/dc/elements/1.1/" xmlns:cc="http://creativecommons.org/ns#" xmlns:rdf="http://www.w3.org/1999/02/22-rdf-syntax-ns#">
   <cc:Work>
    <dc:type rdf:resource="http://purl.org/dc/dcmitype/StillImage"/>
    <dc:date>2026-02-24T15:28:28.771221</dc:date>
    <dc:format>image/svg+xml</dc:format>
    <dc:creator>
     <cc:Agent>
      <dc:title>Matplotlib v3.10.8, https://matplotlib.org/</dc:title>
     </cc:Agent>
    </dc:creator>
   </cc:Work>
  </rdf:RDF>
 </metadata>
 <defs>
  <style type="text/css">*{stroke-linejoin: round; stroke-linecap: butt}</style>
 </defs>
 <g id="figure_1">
  <g id="patch_1">
   <path d="M 0 266.794375 
L 395.328125 266.794375 
L 395.328125 0 
L 0 0 
z
" style="fill: #ffffff"/>
  </g>
  <g id="axes_1">
   <g id="patch_2">
    <path d="M 53.328125 228.96 
L 388.128125 228.96 
L 388.128125 7.2 
L 53.328125 7.2 
z
" style="fill: #ffffff"/>
   </g>
   <g id="matplotlib.axis_1">
    <g id="xtick_1">
     <g id="line2d_1">
      <defs>
       <path id="ma6caf2bc75" d="M 0 0 
L 0 3.5 
" style="stroke: #000000; stroke-width: 0.8"/>
      </defs>
      <g>
       <use xlink:href="#ma6caf2bc75" x="68.545729" y="228.96" style="stroke: #000000; stroke-width: 0.8"/>
      </g>
     </g>
     <g id="text_1">
      <!-- 0 -->
      <g transform="translate(65.364479 243.558437) scale(0.1 -0.1)">
       <defs>
        <path id="DejaVuSans-30" d="M 2034 4250 
Q 1547 4250 1301 3770 
Q 1056 3291 1056 2328 
Q 1056 1369 1301 889 
Q 1547 409 2034 409 
Q 2525 409 2770 889 
Q 3016 1369 3016 2328 
Q 3016 3291 2770 3770 
Q 2525 4250 2034 4250 
z
M 2034 4750 
Q 2819 4750 3233 4129 
Q 3647 3509 3647 2328 
Q 3647 1150 3233 529 
Q 2819 -91 2034 -91 
Q 1250 -91 836 529 
Q 422 1150 422 2328 
Q 422 3509 836 4129 
Q 1250 4750 2034 4750 
z
" transform="scale(0.015625)"/>
       </defs>
       <use xlink:href="#DejaVuSans-30"/>
      </g>
     </g>
    </g>
    <g id="xtick_2">
     <g id="line2d_2">
      <g>
       <use xlink:href="#ma6caf2bc75" x="111.156725" y="228.96" style="stroke: #000000; stroke-width: 0.8"/>
      </g>
     </g>
     <g id="text_2">
      <!-- 1 -->
      <g transform="translate(107.975475 243.558437) scale(0.1 -0.1)">
       <defs>
        <path id="DejaVuSans-31" d="M 794 531 
L 1825 531 
L 1825 4091 
L 703 3866 
L 703 4441 
L 1819 4666 
L 2450 4666 
L 2450 531 
L 3481 531 
L 3481 0 
L 794 0 
L 794 531 
z
" transform="scale(0.015625)"/>
       </defs>
       <use xlink:href="#DejaVuSans-31"/>
      </g>
     </g>
    </g>
    <g id="xtick_3">
     <g id="line2d_3">
      <g>
       <use xlink:href="#ma6caf2bc75" x="153.767721" y="228.96" style="stroke: #000000; stroke-width: 0.8"/>
      </g>
     </g>
     <g id="text_3">
      <!-- 2 -->
      <g transform="translate(150.586471 243.558437) scale(0.1 -0.1)">
       <defs>
        <path id="DejaVuSans-32" d="M 1228 531 
L 3431 531 
L 3431 0 
L 469 0 
L 469 531 
Q 828 903 1448 1529 
Q 2069 2156 2228 2338 
Q 2531 2678 2651 2914 
Q 2772 3150 2772 3378 
Q 2772 3750 2511 3984 
Q 2250 4219 1831 4219 
Q 1534 4219 1204 4116 
Q 875 4013 500 3803 
L 500 4441 
Q 881 4594 1212 4672 
Q 1544 4750 1819 4750 
Q 2544 4750 2975 4387 
Q 3406 4025 3406 3419 
Q 3406 3131 3298 2873 
Q 3191 2616 2906 2266 
Q 2828 2175 2409 1742 
Q 1991 1309 1228 531 
z
" transform="scale(0.015625)"/>
       </defs>
       <use xlink:href="#DejaVuSans-32"/>
      </g>
     </g>
    </g>
    <g id="xtick_4">
     <g id="line2d_4">
      <g>
       <use xlink:href="#ma6caf2bc75" x="196.378717" y="228.96" style="stroke: #000000; stroke-width: 0.8"/>
      </g>
     </g>
     <g id="text_4">
      <!-- 3 -->
      <g transform="translate(193.197467 243.558437) scale(0.1 -0.1)">
       <defs>
        <path id="DejaVuSans-33" d="M 2597 2516 
Q 3050 2419 3304 2112 
Q 3559 1806 3559 1356 
Q 3559 666 3084 287 
Q 2609 -91 1734 -91 
Q 1441 -91 1130 -33 
Q 819 25 488 141 
L 488 750 
Q 750 597 1062 519 
Q 1375 441 1716 441 
Q 2309 441 2620 675 
Q 2931 909 2931 1356 
Q 2931 1769 2642 2001 
Q 2353 2234 1838 2234 
L 1294 2234 
L 1294 2753 
L 1863 2753 
Q 2328 2753 2575 2939 
Q 2822 3125 2822 3475 
Q 2822 3834 2567 4026 
Q 2313 4219 1838 4219 
Q 1578 4219 1281 4162 
Q 984 4106 628 3988 
L 628 4550 
Q 988 4650 1302 4700 
Q 1616 4750 1894 4750 
Q 2613 4750 3031 4423 
Q 3450 4097 3450 3541 
Q 3450 3153 3228 2886 
Q 3006 2619 2597 2516 
z
" transform="scale(0.015625)"/>
       </defs>
       <use xlink:href="#DejaVuSans-33"/>
      </g>
     </g>
    </g>
    <g id="xtick_5">
     <g id="line2d_5">
      <g>
       <use xlink:href="#ma6caf2bc75" x="238.989713" y="228.96" style="stroke: #000000; stroke-width: 0.8"/>
      </g>
     </g>
     <g id="text_5">
      <!-- 4 -->
      <g transform="translate(235.808463 243.558437) scale(0.1 -0.1)">
       <defs>
        <path id="DejaVuSans-34" d="M 2419 4116 
L 825 1625 
L 2419 1625 
L 2419 4116 
z
M 2253 4666 
L 3047 4666 
L 3047 1625 
L 3713 1625 
L 3713 1100 
L 3047 1100 
L 3047 0 
L 2419 0 
L 2419 1100 
L 313 1100 
L 313 1709 
L 2253 4666 
z
" transform="scale(0.015625)"/>
       </defs>
       <use xlink:href="#DejaVuSans-34"/>
      </g>
     </g>
    </g>
    <g id="xtick_6">
     <g id="line2d_6">
      <g>
       <use xlink:href="#ma6caf2bc75" x="281.600709" y="228.96" style="stroke: #000000; stroke-width: 0.8"/>
      </g>
     </g>
     <g id="text_6">
      <!-- 5 -->
      <g transform="translate(278.419459 243.558437) scale(0.1 -0.1)">
       <defs>
        <path id="DejaVuSans-35" d="M 691 4666 
L 3169 4666 
L 3169 4134 
L 1269 4134 
L 1269 2991 
Q 1406 3038 1543 3061 
Q 1681 3084 1819 3084 
Q 2600 3084 3056 2656 
Q 3513 2228 3513 1497 
Q 3513 744 3044 326 
Q 2575 -91 1722 -91 
Q 1428 -91 1123 -41 
Q 819 9 494 109 
L 494 744 
Q 775 591 1075 516 
Q 1375 441 1709 441 
Q 2250 441 2565 725 
Q 2881 1009 2881 1497 
Q 2881 1984 2565 2268 
Q 2250 2553 1709 2553 
Q 1456 2553 1204 2497 
Q 953 2441 691 2322 
L 691 4666 
z
" transform="scale(0.015625)"/>
       </defs>
       <use xlink:href="#DejaVuSans-35"/>
      </g>
     </g>
    </g>
    <g id="xtick_7">
     <g id="line2d_7">
      <g>
       <use xlink:href="#ma6caf2bc75" x="324.211705" y="228.96" style="stroke: #000000; stroke-width: 0.8"/>
      </g>
     </g>
     <g id="text_7">
      <!-- 6 -->
      <g transform="translate(321.030455 243.558437) scale(0.1 -0.1)">
       <defs>
        <path id="DejaVuSans-36" d="M 2113 2584 
Q 1688 2584 1439 2293 
Q 1191 2003 1191 1497 
Q 1191 994 1439 701 
Q 1688 409 2113 409 
Q 2538 409 2786 701 
Q 3034 994 3034 1497 
Q 3034 2003 2786 2293 
Q 2538 2584 2113 2584 
z
M 3366 4563 
L 3366 3988 
Q 3128 4100 2886 4159 
Q 2644 4219 2406 4219 
Q 1781 4219 1451 3797 
Q 1122 3375 1075 2522 
Q 1259 2794 1537 2939 
Q 1816 3084 2150 3084 
Q 2853 3084 3261 2657 
Q 3669 2231 3669 1497 
Q 3669 778 3244 343 
Q 2819 -91 2113 -91 
Q 1303 -91 875 529 
Q 447 1150 447 2328 
Q 447 3434 972 4092 
Q 1497 4750 2381 4750 
Q 2619 4750 2861 4703 
Q 3103 4656 3366 4563 
z
" transform="scale(0.015625)"/>
       </defs>
       <use xlink:href="#DejaVuSans-36"/>
      </g>
     </g>
    </g>
    <g id="xtick_8">
     <g id="line2d_8">
      <g>
       <use xlink:href="#ma6caf2bc75" x="366.8227" y="228.96" style="stroke: #000000; stroke-width: 0.8"/>
      </g>
     </g>
     <g id="text_8">
      <!-- 7 -->
      <g transform="translate(363.64145 243.558437) scale(0.1 -0.1)">
       <defs>
        <path id="DejaVuSans-37" d="M 525 4666 
L 3525 4666 
L 3525 4397 
L 1831 0 
L 1172 0 
L 2766 4134 
L 525 4134 
L 525 4666 
z
" transform="scale(0.015625)"/>
       </defs>
       <use xlink:href="#DejaVuSans-37"/>
      </g>
     </g>
    </g>
    <g id="text_9">
     <!-- event_time_offset [ns] -->
     <g transform="translate(164.705469 257.236562) scale(0.1 -0.1)">
      <defs>
       <path id="DejaVuSans-65" d="M 3597 1894 
L 3597 1613 
L 953 1613 
Q 991 1019 1311 708 
Q 1631 397 2203 397 
Q 2534 397 2845 478 
Q 3156 559 3463 722 
L 3463 178 
Q 3153 47 2828 -22 
Q 2503 -91 2169 -91 
Q 1331 -91 842 396 
Q 353 884 353 1716 
Q 353 2575 817 3079 
Q 1281 3584 2069 3584 
Q 2775 3584 3186 3129 
Q 3597 2675 3597 1894 
z
M 3022 2063 
Q 3016 2534 2758 2815 
Q 2500 3097 2075 3097 
Q 1594 3097 1305 2825 
Q 1016 2553 972 2059 
L 3022 2063 
z
" transform="scale(0.015625)"/>
       <path id="DejaVuSans-76" d="M 191 3500 
L 800 3500 
L 1894 563 
L 2988 3500 
L 3597 3500 
L 2284 0 
L 1503 0 
L 191 3500 
z
" transform="scale(0.015625)"/>
       <path id="DejaVuSans-6e" d="M 3513 2113 
L 3513 0 
L 2938 0 
L 2938 2094 
Q 2938 2591 2744 2837 
Q 2550 3084 2163 3084 
Q 1697 3084 1428 2787 
Q 1159 2491 1159 1978 
L 1159 0 
L 581 0 
L 581 3500 
L 1159 3500 
L 1159 2956 
Q 1366 3272 1645 3428 
Q 1925 3584 2291 3584 
Q 2894 3584 3203 3211 
Q 3513 2838 3513 2113 
z
" transform="scale(0.015625)"/>
       <path id="DejaVuSans-74" d="M 1172 4494 
L 1172 3500 
L 2356 3500 
L 2356 3053 
L 1172 3053 
L 1172 1153 
Q 1172 725 1289 603 
Q 1406 481 1766 481 
L 2356 481 
L 2356 0 
L 1766 0 
Q 1100 0 847 248 
Q 594 497 594 1153 
L 594 3053 
L 172 3053 
L 172 3500 
L 594 3500 
L 594 4494 
L 1172 4494 
z
" transform="scale(0.015625)"/>
       <path id="DejaVuSans-5f" d="M 3263 -1063 
L 3263 -1509 
L -63 -1509 
L -63 -1063 
L 3263 -1063 
z
" transform="scale(0.015625)"/>
       <path id="DejaVuSans-69" d="M 603 3500 
L 1178 3500 
L 1178 0 
L 603 0 
L 603 3500 
z
M 603 4863 
L 1178 4863 
L 1178 4134 
L 603 4134 
L 603 4863 
z
" transform="scale(0.015625)"/>
       <path id="DejaVuSans-6d" d="M 3328 2828 
Q 3544 3216 3844 3400 
Q 4144 3584 4550 3584 
Q 5097 3584 5394 3201 
Q 5691 2819 5691 2113 
L 5691 0 
L 5113 0 
L 5113 2094 
Q 5113 2597 4934 2840 
Q 4756 3084 4391 3084 
Q 3944 3084 3684 2787 
Q 3425 2491 3425 1978 
L 3425 0 
L 2847 0 
L 2847 2094 
Q 2847 2600 2669 2842 
Q 2491 3084 2119 3084 
Q 1678 3084 1418 2786 
Q 1159 2488 1159 1978 
L 1159 0 
L 581 0 
L 581 3500 
L 1159 3500 
L 1159 2956 
Q 1356 3278 1631 3431 
Q 1906 3584 2284 3584 
Q 2666 3584 2933 3390 
Q 3200 3197 3328 2828 
z
" transform="scale(0.015625)"/>
       <path id="DejaVuSans-6f" d="M 1959 3097 
Q 1497 3097 1228 2736 
Q 959 2375 959 1747 
Q 959 1119 1226 758 
Q 1494 397 1959 397 
Q 2419 397 2687 759 
Q 2956 1122 2956 1747 
Q 2956 2369 2687 2733 
Q 2419 3097 1959 3097 
z
M 1959 3584 
Q 2709 3584 3137 3096 
Q 3566 2609 3566 1747 
Q 3566 888 3137 398 
Q 2709 -91 1959 -91 
Q 1206 -91 779 398 
Q 353 888 353 1747 
Q 353 2609 779 3096 
Q 1206 3584 1959 3584 
z
" transform="scale(0.015625)"/>
       <path id="DejaVuSans-66" d="M 2375 4863 
L 2375 4384 
L 1825 4384 
Q 1516 4384 1395 4259 
Q 1275 4134 1275 3809 
L 1275 3500 
L 2222 3500 
L 2222 3053 
L 1275 3053 
L 1275 0 
L 697 0 
L 697 3053 
L 147 3053 
L 147 3500 
L 697 3500 
L 697 3744 
Q 697 4328 969 4595 
Q 1241 4863 1831 4863 
L 2375 4863 
z
" transform="scale(0.015625)"/>
       <path id="DejaVuSans-73" d="M 2834 3397 
L 2834 2853 
Q 2591 2978 2328 3040 
Q 2066 3103 1784 3103 
Q 1356 3103 1142 2972 
Q 928 2841 928 2578 
Q 928 2378 1081 2264 
Q 1234 2150 1697 2047 
L 1894 2003 
Q 2506 1872 2764 1633 
Q 3022 1394 3022 966 
Q 3022 478 2636 193 
Q 2250 -91 1575 -91 
Q 1294 -91 989 -36 
Q 684 19 347 128 
L 347 722 
Q 666 556 975 473 
Q 1284 391 1588 391 
Q 1994 391 2212 530 
Q 2431 669 2431 922 
Q 2431 1156 2273 1281 
Q 2116 1406 1581 1522 
L 1381 1569 
Q 847 1681 609 1914 
Q 372 2147 372 2553 
Q 372 3047 722 3315 
Q 1072 3584 1716 3584 
Q 2034 3584 2315 3537 
Q 2597 3491 2834 3397 
z
" transform="scale(0.015625)"/>
       <path id="DejaVuSans-20" transform="scale(0.015625)"/>
       <path id="DejaVuSans-5b" d="M 550 4863 
L 1875 4863 
L 1875 4416 
L 1125 4416 
L 1125 -397 
L 1875 -397 
L 1875 -844 
L 550 -844 
L 550 4863 
z
" transform="scale(0.015625)"/>
       <path id="DejaVuSans-5d" d="M 1947 4863 
L 1947 -844 
L 622 -844 
L 622 -397 
L 1369 -397 
L 1369 4416 
L 622 4416 
L 622 4863 
L 1947 4863 
z
" transform="scale(0.015625)"/>
      </defs>
      <use xlink:href="#DejaVuSans-65"/>
      <use xlink:href="#DejaVuSans-76" transform="translate(61.523438 0)"/>
      <use xlink:href="#DejaVuSans-65" transform="translate(120.703125 0)"/>
      <use xlink:href="#DejaVuSans-6e" transform="translate(182.226562 0)"/>
      <use xlink:href="#DejaVuSans-74" transform="translate(245.605469 0)"/>
      <use xlink:href="#DejaVuSans-5f" transform="translate(284.814453 0)"/>
      <use xlink:href="#DejaVuSans-74" transform="translate(334.814453 0)"/>
      <use xlink:href="#DejaVuSans-69" transform="translate(374.023438 0)"/>
      <use xlink:href="#DejaVuSans-6d" transform="translate(401.806641 0)"/>
      <use xlink:href="#DejaVuSans-65" transform="translate(499.21875 0)"/>
      <use xlink:href="#DejaVuSans-5f" transform="translate(560.742188 0)"/>
      <use xlink:href="#DejaVuSans-6f" transform="translate(610.742188 0)"/>
      <use xlink:href="#DejaVuSans-66" transform="translate(671.923828 0)"/>
      <use xlink:href="#DejaVuSans-66" transform="translate(707.128906 0)"/>
      <use xlink:href="#DejaVuSans-73" transform="translate(742.333984 0)"/>
      <use xlink:href="#DejaVuSans-65" transform="translate(794.433594 0)"/>
      <use xlink:href="#DejaVuSans-74" transform="translate(855.957031 0)"/>
      <use xlink:href="#DejaVuSans-20" transform="translate(895.166016 0)"/>
      <use xlink:href="#DejaVuSans-5b" transform="translate(926.953125 0)"/>
      <use xlink:href="#DejaVuSans-6e" transform="translate(965.966797 0)"/>
      <use xlink:href="#DejaVuSans-73" transform="translate(1029.345703 0)"/>
      <use xlink:href="#DejaVuSans-5d" transform="translate(1081.445312 0)"/>
     </g>
    </g>
    <g id="text_10">
     <!-- 1e7 -->
     <g transform="translate(369.25 256.236562) scale(0.1 -0.1)">
      <use xlink:href="#DejaVuSans-31"/>
      <use xlink:href="#DejaVuSans-65" transform="translate(63.623047 0)"/>
      <use xlink:href="#DejaVuSans-37" transform="translate(125.146484 0)"/>
     </g>
    </g>
   </g>
   <g id="matplotlib.axis_2">
    <g id="ytick_1">
     <g id="line2d_9">
      <defs>
       <path id="mcb3b90bae1" d="M 0 0 
L -3.5 0 
" style="stroke: #000000; stroke-width: 0.8"/>
      </defs>
      <g>
       <use xlink:href="#mcb3b90bae1" x="53.328125" y="220.042865" style="stroke: #000000; stroke-width: 0.8"/>
      </g>
     </g>
     <g id="text_11">
      <!-- 0 -->
      <g transform="translate(39.965625 223.842083) scale(0.1 -0.1)">
       <use xlink:href="#DejaVuSans-30"/>
      </g>
     </g>
    </g>
    <g id="ytick_2">
     <g id="line2d_10">
      <g>
       <use xlink:href="#mcb3b90bae1" x="53.328125" y="183.515641" style="stroke: #000000; stroke-width: 0.8"/>
      </g>
     </g>
     <g id="text_12">
      <!-- 1000 -->
      <g transform="translate(20.878125 187.31486) scale(0.1 -0.1)">
       <use xlink:href="#DejaVuSans-31"/>
       <use xlink:href="#DejaVuSans-30" transform="translate(63.623047 0)"/>
       <use xlink:href="#DejaVuSans-30" transform="translate(127.246094 0)"/>
       <use xlink:href="#DejaVuSans-30" transform="translate(190.869141 0)"/>
      </g>
     </g>
    </g>
    <g id="ytick_3">
     <g id="line2d_11">
      <g>
       <use xlink:href="#mcb3b90bae1" x="53.328125" y="146.988418" style="stroke: #000000; stroke-width: 0.8"/>
      </g>
     </g>
     <g id="text_13">
      <!-- 2000 -->
      <g transform="translate(20.878125 150.787636) scale(0.1 -0.1)">
       <use xlink:href="#DejaVuSans-32"/>
       <use xlink:href="#DejaVuSans-30" transform="translate(63.623047 0)"/>
       <use xlink:href="#DejaVuSans-30" transform="translate(127.246094 0)"/>
       <use xlink:href="#DejaVuSans-30" transform="translate(190.869141 0)"/>
      </g>
     </g>
    </g>
    <g id="ytick_4">
     <g id="line2d_12">
      <g>
       <use xlink:href="#mcb3b90bae1" x="53.328125" y="110.461194" style="stroke: #000000; stroke-width: 0.8"/>
      </g>
     </g>
     <g id="text_14">
      <!-- 3000 -->
      <g transform="translate(20.878125 114.260413) scale(0.1 -0.1)">
       <use xlink:href="#DejaVuSans-33"/>
       <use xlink:href="#DejaVuSans-30" transform="translate(63.623047 0)"/>
       <use xlink:href="#DejaVuSans-30" transform="translate(127.246094 0)"/>
       <use xlink:href="#DejaVuSans-30" transform="translate(190.869141 0)"/>
      </g>
     </g>
    </g>
    <g id="ytick_5">
     <g id="line2d_13">
      <g>
       <use xlink:href="#mcb3b90bae1" x="53.328125" y="73.933971" style="stroke: #000000; stroke-width: 0.8"/>
      </g>
     </g>
     <g id="text_15">
      <!-- 4000 -->
      <g transform="translate(20.878125 77.73319) scale(0.1 -0.1)">
       <use xlink:href="#DejaVuSans-34"/>
       <use xlink:href="#DejaVuSans-30" transform="translate(63.623047 0)"/>
       <use xlink:href="#DejaVuSans-30" transform="translate(127.246094 0)"/>
       <use xlink:href="#DejaVuSans-30" transform="translate(190.869141 0)"/>
      </g>
     </g>
    </g>
    <g id="ytick_6">
     <g id="line2d_14">
      <g>
       <use xlink:href="#mcb3b90bae1" x="53.328125" y="37.406747" style="stroke: #000000; stroke-width: 0.8"/>
      </g>
     </g>
     <g id="text_16">
      <!-- 5000 -->
      <g transform="translate(20.878125 41.205966) scale(0.1 -0.1)">
       <use xlink:href="#DejaVuSans-35"/>
       <use xlink:href="#DejaVuSans-30" transform="translate(63.623047 0)"/>
       <use xlink:href="#DejaVuSans-30" transform="translate(127.246094 0)"/>
       <use xlink:href="#DejaVuSans-30" transform="translate(190.869141 0)"/>
      </g>
     </g>
    </g>
    <g id="text_17">
     <!-- [counts] -->
     <g transform="translate(14.798438 138.6925) rotate(-90) scale(0.1 -0.1)">
      <defs>
       <path id="DejaVuSans-63" d="M 3122 3366 
L 3122 2828 
Q 2878 2963 2633 3030 
Q 2388 3097 2138 3097 
Q 1578 3097 1268 2742 
Q 959 2388 959 1747 
Q 959 1106 1268 751 
Q 1578 397 2138 397 
Q 2388 397 2633 464 
Q 2878 531 3122 666 
L 3122 134 
Q 2881 22 2623 -34 
Q 2366 -91 2075 -91 
Q 1284 -91 818 406 
Q 353 903 353 1747 
Q 353 2603 823 3093 
Q 1294 3584 2113 3584 
Q 2378 3584 2631 3529 
Q 2884 3475 3122 3366 
z
" transform="scale(0.015625)"/>
       <path id="DejaVuSans-75" d="M 544 1381 
L 544 3500 
L 1119 3500 
L 1119 1403 
Q 1119 906 1312 657 
Q 1506 409 1894 409 
Q 2359 409 2629 706 
Q 2900 1003 2900 1516 
L 2900 3500 
L 3475 3500 
L 3475 0 
L 2900 0 
L 2900 538 
Q 2691 219 2414 64 
Q 2138 -91 1772 -91 
Q 1169 -91 856 284 
Q 544 659 544 1381 
z
M 1991 3584 
L 1991 3584 
z
" transform="scale(0.015625)"/>
      </defs>
      <use xlink:href="#DejaVuSans-5b"/>
      <use xlink:href="#DejaVuSans-63" transform="translate(39.013672 0)"/>
      <use xlink:href="#DejaVuSans-6f" transform="translate(93.994141 0)"/>
      <use xlink:href="#DejaVuSans-75" transform="translate(155.175781 0)"/>
      <use xlink:href="#DejaVuSans-6e" transform="translate(218.554688 0)"/>
      <use xlink:href="#DejaVuSans-74" transform="translate(281.933594 0)"/>
      <use xlink:href="#DejaVuSans-73" transform="translate(321.142578 0)"/>
      <use xlink:href="#DejaVuSans-5d" transform="translate(373.242188 0)"/>
     </g>
    </g>
   </g>
   <g id="line2d_15">
    <path d="M 68.546307 68.308778 
L 69.560852 68.308778 
L 69.560852 73.751335 
L 70.575398 73.751335 
L 70.575398 72.180664 
L 71.589943 72.180664 
L 71.589943 76.783094 
L 72.604489 76.783094 
L 72.604489 78.974728 
L 73.619034 78.974728 
L 73.619034 81.933433 
L 74.63358 81.933433 
L 74.63358 78.755564 
L 75.648125 78.755564 
L 75.648125 80.581926 
L 76.66267 80.581926 
L 76.66267 85.65921 
L 77.677216 85.65921 
L 77.677216 86.024482 
L 78.691761 86.024482 
L 78.691761 83.832848 
L 79.706307 83.832848 
L 79.706307 89.677204 
L 80.720852 89.677204 
L 80.720852 94.754488 
L 81.735398 94.754488 
L 81.735398 95.886832 
L 82.749943 95.886832 
L 82.749943 91.540093 
L 83.764489 91.540093 
L 83.764489 96.982649 
L 84.779034 96.982649 
L 84.779034 100.964116 
L 85.79358 100.964116 
L 85.79358 99.210809 
L 86.808125 99.210809 
L 86.808125 100.489262 
L 87.82267 100.489262 
L 87.82267 103.374913 
L 88.837216 103.374913 
L 88.837216 99.064701 
L 89.851761 99.064701 
L 89.851761 101.475497 
L 90.866307 101.475497 
L 90.866307 102.169515 
L 91.880852 102.169515 
L 91.880852 101.18328 
L 92.895398 101.18328 
L 92.895398 104.945584 
L 93.909943 104.945584 
L 93.909943 107.539016 
L 94.924489 107.539016 
L 94.924489 109.949813 
L 95.939034 109.949813 
L 95.939034 115.246261 
L 96.95358 115.246261 
L 96.95358 116.597768 
L 97.968125 116.597768 
L 97.968125 112.433664 
L 98.98267 112.433664 
L 98.98267 118.095384 
L 99.997216 118.095384 
L 99.997216 115.465424 
L 101.011761 115.465424 
L 101.011761 120.90798 
L 102.026307 120.90798 
L 102.026307 121.236725 
L 103.040852 121.236725 
L 103.040852 127.409826 
L 104.055398 127.409826 
L 104.055398 128.469115 
L 105.069943 128.469115 
L 105.069943 128.943969 
L 106.084489 128.943969 
L 106.084489 129.711041 
L 107.099034 129.711041 
L 107.099034 131.646984 
L 108.11358 131.646984 
L 108.11358 134.569162 
L 109.128125 134.569162 
L 109.128125 137.199122 
L 110.14267 137.199122 
L 110.14267 141.107535 
L 111.157216 141.107535 
L 111.157216 143.189587 
L 112.171761 143.189587 
L 112.171761 144.833312 
L 113.186307 144.833312 
L 113.186307 149.289633 
L 114.200852 149.289633 
L 114.200852 160.868763 
L 115.215398 160.868763 
L 115.215398 169.817932 
L 116.229943 169.817932 
L 116.229943 179.424592 
L 117.244489 179.424592 
L 117.244489 186.328237 
L 118.259034 186.328237 
L 118.259034 191.478576 
L 119.27358 191.478576 
L 119.27358 200.464273 
L 120.288125 200.464273 
L 120.288125 206.199047 
L 121.30267 206.199047 
L 121.30267 209.04817 
L 122.317216 209.04817 
L 122.317216 213.687128 
L 123.331761 213.687128 
L 123.331761 217.084159 
L 124.346307 217.084159 
L 124.346307 218.65483 
L 125.360852 218.65483 
L 125.360852 215.038635 
L 126.375398 215.038635 
L 126.375398 209.413443 
L 127.389943 209.413443 
L 127.389943 202.87507 
L 128.404489 202.87507 
L 128.404489 195.094771 
L 129.419034 195.094771 
L 129.419034 186.03602 
L 130.43358 186.03602 
L 130.43358 175.625761 
L 131.448125 175.625761 
L 131.448125 168.758643 
L 132.46267 168.758643 
L 132.46267 157.983112 
L 133.477216 157.983112 
L 133.477216 150.604613 
L 134.491761 150.604613 
L 134.491761 143.226114 
L 135.506307 143.226114 
L 135.506307 131.793093 
L 136.520852 131.793093 
L 136.520852 128.213425 
L 137.535398 128.213425 
L 137.535398 128.067316 
L 138.549943 128.067316 
L 138.549943 131.500875 
L 139.564489 131.500875 
L 139.564489 129.491878 
L 140.579034 129.491878 
L 140.579034 128.578697 
L 141.59358 128.578697 
L 141.59358 129.126605 
L 142.608125 129.126605 
L 142.608125 121.56547 
L 143.62267 121.56547 
L 143.62267 124.889448 
L 144.637216 124.889448 
L 144.637216 120.579235 
L 145.651761 120.579235 
L 145.651761 109.98634 
L 146.666307 109.98634 
L 146.666307 99.4665 
L 147.680852 99.4665 
L 147.680852 92.526328 
L 148.695398 92.526328 
L 148.695398 90.079004 
L 149.709943 90.079004 
L 149.709943 83.065777 
L 150.724489 83.065777 
L 150.724489 85.476573 
L 151.739034 85.476573 
L 151.739034 79.486109 
L 152.75358 79.486109 
L 152.75358 62.062623 
L 153.768125 62.062623 
L 153.768125 64.546474 
L 154.78267 64.546474 
L 154.78267 60.163208 
L 155.797216 60.163208 
L 155.797216 60.017099 
L 156.811761 60.017099 
L 156.811761 60.711116 
L 157.826307 60.711116 
L 157.826307 58.702119 
L 158.840852 58.702119 
L 158.840852 60.418898 
L 159.855398 60.418898 
L 159.855398 63.487185 
L 160.869943 63.487185 
L 160.869943 55.049396 
L 161.884489 55.049396 
L 161.884489 59.615299 
L 162.899034 59.615299 
L 162.899034 59.834463 
L 163.91358 59.834463 
L 163.91358 60.12668 
L 164.928125 60.12668 
L 164.928125 54.538015 
L 165.94267 54.538015 
L 165.94267 59.797935 
L 166.957216 59.797935 
L 166.957216 57.277557 
L 167.971761 57.277557 
L 167.971761 65.971036 
L 168.986307 65.971036 
L 168.986307 61.806933 
L 170.000852 61.806933 
L 170.000852 58.957809 
L 171.015398 58.957809 
L 171.015398 62.720113 
L 172.029943 62.720113 
L 172.029943 65.496182 
L 173.044489 65.496182 
L 173.044489 66.44589 
L 174.059034 66.44589 
L 174.059034 66.957271 
L 175.07358 66.957271 
L 175.07358 70.609994 
L 176.088125 70.609994 
L 176.088125 68.710578 
L 177.10267 68.710578 
L 177.10267 65.240492 
L 178.117216 65.240492 
L 178.117216 66.774635 
L 179.131761 66.774635 
L 179.131761 65.386601 
L 180.146307 65.386601 
L 180.146307 72.290246 
L 181.160852 72.290246 
L 181.160852 72.692045 
L 182.175398 72.692045 
L 182.175398 72.326773 
L 183.189943 72.326773 
L 183.189943 75.541169 
L 184.204489 75.541169 
L 184.204489 77.075312 
L 185.219034 77.075312 
L 185.219034 80.362762 
L 186.23358 80.362762 
L 186.23358 83.102304 
L 187.248125 83.102304 
L 187.248125 87.266407 
L 188.26267 87.266407 
L 188.26267 89.165823 
L 189.277216 89.165823 
L 189.277216 88.435279 
L 190.291761 88.435279 
L 190.291761 89.750259 
L 191.306307 89.750259 
L 191.306307 89.384986 
L 192.320852 89.384986 
L 192.320852 95.485033 
L 193.335398 95.485033 
L 193.335398 91.759256 
L 194.349943 91.759256 
L 194.349943 97.311394 
L 195.364489 97.311394 
L 195.364489 97.640139 
L 196.379034 97.640139 
L 196.379034 98.297629 
L 197.39358 98.297629 
L 197.39358 97.055703 
L 198.408125 97.055703 
L 198.408125 100.818007 
L 199.42267 100.818007 
L 199.42267 105.38391 
L 200.437216 105.38391 
L 200.437216 106.187509 
L 201.451761 106.187509 
L 201.451761 111.082157 
L 202.466307 111.082157 
L 202.466307 115.684587 
L 203.480852 115.684587 
L 203.480852 124.231958 
L 204.495398 124.231958 
L 204.495398 126.715809 
L 205.509943 126.715809 
L 205.509943 131.062548 
L 206.524489 131.062548 
L 206.524489 132.888909 
L 207.539034 132.888909 
L 207.539034 140.011718 
L 208.55358 140.011718 
L 208.55358 141.728498 
L 209.568125 141.728498 
L 209.568125 141.911134 
L 210.58267 141.911134 
L 210.58267 146.477037 
L 211.597216 146.477037 
L 211.597216 147.35369 
L 212.611761 147.35369 
L 212.611761 148.157289 
L 213.626307 148.157289 
L 213.626307 147.171054 
L 214.640852 147.171054 
L 214.640852 145.454274 
L 215.655398 145.454274 
L 215.655398 140.596154 
L 216.669943 140.596154 
L 216.669943 138.294939 
L 217.684489 138.294939 
L 217.684489 133.400291 
L 218.699034 133.400291 
L 218.699034 126.423591 
L 219.71358 126.423591 
L 219.71358 120.871453 
L 220.728125 120.871453 
L 220.728125 119.300782 
L 221.74267 119.300782 
L 221.74267 112.798937 
L 222.757216 112.798937 
L 222.757216 110.607303 
L 223.771761 110.607303 
L 223.771761 100.050936 
L 224.786307 100.050936 
L 224.786307 91.941892 
L 225.800852 91.941892 
L 225.800852 91.649674 
L 226.815398 91.649674 
L 226.815398 91.357456 
L 227.829943 91.357456 
L 227.829943 96.617377 
L 228.844489 96.617377 
L 228.844489 102.023406 
L 229.859034 102.023406 
L 229.859034 108.963578 
L 230.87358 108.963578 
L 230.87358 123.976267 
L 231.888125 123.976267 
L 231.888125 124.524175 
L 232.90267 124.524175 
L 232.90267 128.54217 
L 233.917216 128.54217 
L 233.917216 137.053013 
L 234.931761 137.053013 
L 234.931761 145.198584 
L 235.946307 145.198584 
L 235.946307 156.010642 
L 236.960852 156.010642 
L 236.960852 161.16098 
L 237.975398 161.16098 
L 237.975398 165.763411 
L 238.989943 165.763411 
L 238.989943 166.055628 
L 240.004489 166.055628 
L 240.004489 167.88199 
L 241.019034 167.88199 
L 241.019034 161.124453 
L 242.03358 161.124453 
L 242.03358 157.910058 
L 243.048125 157.910058 
L 243.048125 145.454274 
L 244.06267 145.454274 
L 244.06267 133.911672 
L 245.077216 133.911672 
L 245.077216 120.688817 
L 246.091761 120.688817 
L 246.091761 102.49826 
L 247.106307 102.49826 
L 247.106307 91.247875 
L 248.120852 91.247875 
L 248.120852 85.440046 
L 249.135398 85.440046 
L 249.135398 72.947736 
L 250.149943 72.947736 
L 250.149943 64.47342 
L 251.164489 64.47342 
L 251.164489 49.278095 
L 252.179034 49.278095 
L 252.179034 33.060008 
L 253.19358 33.060008 
L 253.19358 32.877372 
L 254.208125 32.877372 
L 254.208125 32.000718 
L 255.22267 32.000718 
L 255.22267 34.374988 
L 256.237216 34.374988 
L 256.237216 30.758793 
L 257.251761 30.758793 
L 257.251761 39.34269 
L 258.266307 39.34269 
L 258.266307 36.493567 
L 259.280852 36.493567 
L 259.280852 32.585154 
L 260.295398 32.585154 
L 260.295398 39.671435 
L 261.309943 39.671435 
L 261.309943 34.046243 
L 262.324489 34.046243 
L 262.324489 43.835539 
L 263.339034 43.835539 
L 263.339034 39.525326 
L 264.35358 39.525326 
L 264.35358 34.338461 
L 265.368125 34.338461 
L 265.368125 40.475034 
L 266.38267 40.475034 
L 266.38267 30.649211 
L 267.397216 30.649211 
L 267.397216 19.983262 
L 268.411761 19.983262 
L 268.411761 22.211423 
L 269.426307 22.211423 
L 269.426307 28.859377 
L 270.440852 28.859377 
L 270.440852 29.736031 
L 271.455398 29.736031 
L 271.455398 28.530632 
L 272.469943 28.530632 
L 272.469943 27.50787 
L 273.484489 27.50787 
L 273.484489 30.13783 
L 274.499034 30.13783 
L 274.499034 28.640214 
L 275.51358 28.640214 
L 275.51358 30.539629 
L 277.54267 30.466575 
L 277.54267 38.612146 
L 278.557216 38.612146 
L 278.557216 31.051011 
L 279.571761 31.051011 
L 279.571761 42.228341 
L 280.586307 42.228341 
L 280.586307 37.479802 
L 281.600852 37.479802 
L 281.600852 42.666668 
L 282.615398 42.666668 
L 282.615398 39.488799 
L 283.629943 39.488799 
L 283.629943 44.456502 
L 284.644489 44.456502 
L 284.644489 46.611608 
L 285.659034 46.611608 
L 285.659034 54.318852 
L 286.67358 54.318852 
L 286.67358 54.063161 
L 287.688125 54.063161 
L 287.688125 60.930279 
L 288.70267 60.930279 
L 288.70267 61.112915 
L 289.717216 61.112915 
L 289.717216 65.277019 
L 290.731761 65.277019 
L 290.731761 71.340538 
L 291.746307 71.340538 
L 291.746307 70.756102 
L 292.760852 70.756102 
L 292.760852 79.632218 
L 293.775398 79.632218 
L 293.775398 73.313008 
L 294.789943 73.313008 
L 294.789943 79.449582 
L 295.804489 79.449582 
L 295.804489 85.147828 
L 296.819034 85.147828 
L 296.819034 82.590923 
L 297.83358 82.590923 
L 297.83358 83.68674 
L 298.848125 83.68674 
L 298.848125 90.480803 
L 299.86267 90.480803 
L 299.86267 87.741261 
L 300.877216 87.741261 
L 300.877216 88.654442 
L 301.891761 88.654442 
L 301.891761 85.987955 
L 302.906307 85.987955 
L 302.906307 87.777789 
L 303.920852 87.777789 
L 303.920852 79.851381 
L 304.935398 79.851381 
L 304.935398 79.413054 
L 305.949943 79.413054 
L 305.949943 81.020252 
L 306.964489 81.020252 
L 306.964489 76.673513 
L 307.979034 76.673513 
L 307.979034 79.376527 
L 308.99358 79.376527 
L 308.99358 79.522636 
L 310.008125 79.522636 
L 310.008125 78.865146 
L 311.02267 78.865146 
L 311.02267 79.741799 
L 312.037216 79.741799 
L 312.037216 78.061547 
L 313.051761 78.061547 
L 313.051761 85.622682 
L 314.066307 85.622682 
L 314.066307 86.755026 
L 315.080852 86.755026 
L 315.080852 92.562855 
L 316.095398 92.562855 
L 316.095398 88.910132 
L 317.109943 88.910132 
L 317.109943 92.526328 
L 318.124489 92.526328 
L 318.124489 91.978419 
L 319.139034 91.978419 
L 319.139034 102.315623 
L 320.15358 102.315623 
L 320.15358 103.594076 
L 321.168125 103.594076 
L 321.168125 103.995876 
L 322.18267 103.995876 
L 322.18267 104.507257 
L 323.197216 104.507257 
L 323.197216 115.940278 
L 324.211761 115.940278 
L 324.211761 120.90798 
L 325.226307 120.90798 
L 325.226307 126.058319 
L 326.240852 126.058319 
L 326.240852 131.939202 
L 327.255398 131.939202 
L 327.255398 141.984188 
L 328.269943 141.984188 
L 328.269943 150.421977 
L 329.284489 150.421977 
L 329.284489 157.508258 
L 330.299034 157.508258 
L 330.299034 163.717886 
L 331.31358 163.717886 
L 331.31358 170.329314 
L 332.328125 170.329314 
L 332.328125 175.917979 
L 333.34267 175.917979 
L 333.34267 182.237188 
L 334.357216 182.237188 
L 334.357216 185.999492 
L 335.371761 185.999492 
L 335.371761 186.29171 
L 336.386307 186.29171 
L 336.386307 188.739034 
L 337.400852 188.739034 
L 337.400852 185.962965 
L 338.415398 185.962965 
L 338.415398 176.794632 
L 339.429943 176.794632 
L 339.429943 167.955044 
L 340.444489 167.955044 
L 340.444489 162.768178 
L 341.459034 162.768178 
L 341.459034 152.61361 
L 342.47358 152.61361 
L 342.47358 141.43628 
L 343.488125 141.43628 
L 343.488125 138.915901 
L 344.50267 138.915901 
L 344.50267 129.418823 
L 345.517216 129.418823 
L 345.517216 101.694661 
L 346.531761 101.694661 
L 346.531761 62.026096 
L 347.546307 62.026096 
L 347.546307 46.465499 
L 348.560852 46.465499 
L 348.560852 45.6619 
L 349.575398 45.6619 
L 349.575398 39.890599 
L 350.589943 39.890599 
L 350.589943 41.534324 
L 351.604489 41.534324 
L 351.604489 42.191814 
L 352.619034 42.191814 
L 352.619034 41.095997 
L 353.63358 41.095997 
L 353.63358 46.355917 
L 354.648125 46.355917 
L 354.648125 43.579848 
L 355.66267 43.579848 
L 355.66267 48.364914 
L 356.677216 48.364914 
L 356.677216 51.835001 
L 357.691761 51.835001 
L 357.691761 46.940353 
L 358.706307 46.940353 
L 358.706307 43.908593 
L 359.720852 43.908593 
L 359.720852 47.890061 
L 360.735398 47.890061 
L 360.735398 48.839768 
L 361.749943 48.839768 
L 361.749943 45.406209 
L 362.764489 45.406209 
L 362.764489 54.830233 
L 363.779034 54.830233 
L 363.779034 51.140983 
L 364.79358 51.140983 
L 364.79358 57.569775 
L 365.808125 57.569775 
L 365.808125 60.747643 
L 366.82267 60.747643 
L 366.82267 55.633832 
L 368.851761 55.706886 
L 368.851761 58.848228 
L 369.866307 58.848228 
L 369.866307 59.286554 
L 370.880852 59.286554 
L 370.880852 59.542245 
L 371.895398 59.542245 
L 371.895398 65.313546 
L 372.909943 65.313546 
L 372.909943 65.313546 
" clip-path="url(#pbd9078412d)" style="fill: none; stroke: #1f77b4; stroke-width: 1.5; stroke-linecap: square"/>
   </g>
   <g id="LineCollection_1">
    <path d="M 69.05358 70.663014 
L 69.05358 65.954543 
" clip-path="url(#pbd9078412d)" style="fill: none; stroke: #1f77b4; stroke-width: 1.5"/>
    <path d="M 70.068125 76.062963 
L 70.068125 71.439707 
" clip-path="url(#pbd9078412d)" style="fill: none; stroke: #1f77b4; stroke-width: 1.5"/>
    <path d="M 71.08267 74.504668 
L 71.08267 69.85666 
" clip-path="url(#pbd9078412d)" style="fill: none; stroke: #1f77b4; stroke-width: 1.5"/>
    <path d="M 72.097216 79.070644 
L 72.097216 74.495545 
" clip-path="url(#pbd9078412d)" style="fill: none; stroke: #1f77b4; stroke-width: 1.5"/>
    <path d="M 73.111761 81.244712 
L 73.111761 76.704744 
" clip-path="url(#pbd9078412d)" style="fill: none; stroke: #1f77b4; stroke-width: 1.5"/>
    <path d="M 74.126307 84.179486 
L 74.126307 79.68738 
" clip-path="url(#pbd9078412d)" style="fill: none; stroke: #1f77b4; stroke-width: 1.5"/>
    <path d="M 75.140852 81.027311 
L 75.140852 76.483818 
" clip-path="url(#pbd9078412d)" style="fill: none; stroke: #1f77b4; stroke-width: 1.5"/>
    <path d="M 76.155398 82.838941 
L 76.155398 78.32491 
" clip-path="url(#pbd9078412d)" style="fill: none; stroke: #1f77b4; stroke-width: 1.5"/>
    <path d="M 77.169943 87.87476 
L 77.169943 83.44366 
" clip-path="url(#pbd9078412d)" style="fill: none; stroke: #1f77b4; stroke-width: 1.5"/>
    <path d="M 78.184489 88.237019 
L 78.184489 83.811945 
" clip-path="url(#pbd9078412d)" style="fill: none; stroke: #1f77b4; stroke-width: 1.5"/>
    <path d="M 79.199034 86.063403 
L 79.199034 81.602294 
" clip-path="url(#pbd9078412d)" style="fill: none; stroke: #1f77b4; stroke-width: 1.5"/>
    <path d="M 80.21358 91.859381 
L 80.21358 87.495027 
" clip-path="url(#pbd9078412d)" style="fill: none; stroke: #1f77b4; stroke-width: 1.5"/>
    <path d="M 81.228125 96.893749 
L 81.228125 92.615228 
" clip-path="url(#pbd9078412d)" style="fill: none; stroke: #1f77b4; stroke-width: 1.5"/>
    <path d="M 82.24267 98.016404 
L 82.24267 93.757261 
" clip-path="url(#pbd9078412d)" style="fill: none; stroke: #1f77b4; stroke-width: 1.5"/>
    <path d="M 83.257216 93.706622 
L 83.257216 89.373563 
" clip-path="url(#pbd9078412d)" style="fill: none; stroke: #1f77b4; stroke-width: 1.5"/>
    <path d="M 84.271761 99.102802 
L 84.271761 94.862496 
" clip-path="url(#pbd9078412d)" style="fill: none; stroke: #1f77b4; stroke-width: 1.5"/>
    <path d="M 85.286307 103.049689 
L 85.286307 98.878543 
" clip-path="url(#pbd9078412d)" style="fill: none; stroke: #1f77b4; stroke-width: 1.5"/>
    <path d="M 86.300852 101.311681 
L 86.300852 97.109938 
" clip-path="url(#pbd9078412d)" style="fill: none; stroke: #1f77b4; stroke-width: 1.5"/>
    <path d="M 87.315398 102.57899 
L 87.315398 98.399535 
" clip-path="url(#pbd9078412d)" style="fill: none; stroke: #1f77b4; stroke-width: 1.5"/>
    <path d="M 88.329943 105.439267 
L 88.329943 101.310559 
" clip-path="url(#pbd9078412d)" style="fill: none; stroke: #1f77b4; stroke-width: 1.5"/>
    <path d="M 89.344489 101.166842 
L 89.344489 96.96256 
" clip-path="url(#pbd9078412d)" style="fill: none; stroke: #1f77b4; stroke-width: 1.5"/>
    <path d="M 90.359034 103.556588 
L 90.359034 99.394407 
" clip-path="url(#pbd9078412d)" style="fill: none; stroke: #1f77b4; stroke-width: 1.5"/>
    <path d="M 91.37358 104.244505 
L 91.37358 100.094524 
" clip-path="url(#pbd9078412d)" style="fill: none; stroke: #1f77b4; stroke-width: 1.5"/>
    <path d="M 92.388125 103.266933 
L 92.388125 99.099626 
" clip-path="url(#pbd9078412d)" style="fill: none; stroke: #1f77b4; stroke-width: 1.5"/>
    <path d="M 93.40267 106.995994 
L 93.40267 102.895173 
" clip-path="url(#pbd9078412d)" style="fill: none; stroke: #1f77b4; stroke-width: 1.5"/>
    <path d="M 94.417216 109.566195 
L 94.417216 105.511838 
" clip-path="url(#pbd9078412d)" style="fill: none; stroke: #1f77b4; stroke-width: 1.5"/>
    <path d="M 95.431761 111.955154 
L 95.431761 107.944472 
" clip-path="url(#pbd9078412d)" style="fill: none; stroke: #1f77b4; stroke-width: 1.5"/>
    <path d="M 96.446307 117.20277 
L 96.446307 113.289751 
" clip-path="url(#pbd9078412d)" style="fill: none; stroke: #1f77b4; stroke-width: 1.5"/>
    <path d="M 97.460852 118.54162 
L 97.460852 114.653915 
" clip-path="url(#pbd9078412d)" style="fill: none; stroke: #1f77b4; stroke-width: 1.5"/>
    <path d="M 98.475398 114.416255 
L 98.475398 110.451074 
" clip-path="url(#pbd9078412d)" style="fill: none; stroke: #1f77b4; stroke-width: 1.5"/>
    <path d="M 99.489943 120.025114 
L 99.489943 116.165654 
" clip-path="url(#pbd9078412d)" style="fill: none; stroke: #1f77b4; stroke-width: 1.5"/>
    <path d="M 100.504489 117.419886 
L 100.504489 113.510961 
" clip-path="url(#pbd9078412d)" style="fill: none; stroke: #1f77b4; stroke-width: 1.5"/>
    <path d="M 101.519034 122.810905 
L 101.519034 119.005056 
" clip-path="url(#pbd9078412d)" style="fill: none; stroke: #1f77b4; stroke-width: 1.5"/>
    <path d="M 102.53358 123.136492 
L 102.53358 119.336958 
" clip-path="url(#pbd9078412d)" style="fill: none; stroke: #1f77b4; stroke-width: 1.5"/>
    <path d="M 103.548125 129.24929 
L 103.548125 125.570362 
" clip-path="url(#pbd9078412d)" style="fill: none; stroke: #1f77b4; stroke-width: 1.5"/>
    <path d="M 104.56267 130.298032 
L 104.56267 126.640199 
" clip-path="url(#pbd9078412d)" style="fill: none; stroke: #1f77b4; stroke-width: 1.5"/>
    <path d="M 105.577216 130.768138 
L 105.577216 127.119801 
" clip-path="url(#pbd9078412d)" style="fill: none; stroke: #1f77b4; stroke-width: 1.5"/>
    <path d="M 106.591761 131.527513 
L 106.591761 127.894569 
" clip-path="url(#pbd9078412d)" style="fill: none; stroke: #1f77b4; stroke-width: 1.5"/>
    <path d="M 107.606307 133.443886 
L 107.606307 129.850082 
" clip-path="url(#pbd9078412d)" style="fill: none; stroke: #1f77b4; stroke-width: 1.5"/>
    <path d="M 108.620852 136.336113 
L 108.620852 132.80221 
" clip-path="url(#pbd9078412d)" style="fill: none; stroke: #1f77b4; stroke-width: 1.5"/>
    <path d="M 109.635398 138.938677 
L 109.635398 135.459567 
" clip-path="url(#pbd9078412d)" style="fill: none; stroke: #1f77b4; stroke-width: 1.5"/>
    <path d="M 110.649943 142.80556 
L 110.649943 139.40951 
" clip-path="url(#pbd9078412d)" style="fill: none; stroke: #1f77b4; stroke-width: 1.5"/>
    <path d="M 111.664489 144.865068 
L 111.664489 141.514105 
" clip-path="url(#pbd9078412d)" style="fill: none; stroke: #1f77b4; stroke-width: 1.5"/>
    <path d="M 112.679034 146.490778 
L 112.679034 143.175845 
" clip-path="url(#pbd9078412d)" style="fill: none; stroke: #1f77b4; stroke-width: 1.5"/>
    <path d="M 113.69358 150.897246 
L 113.69358 147.68202 
" clip-path="url(#pbd9078412d)" style="fill: none; stroke: #1f77b4; stroke-width: 1.5"/>
    <path d="M 114.708125 162.338955 
L 114.708125 159.39857 
" clip-path="url(#pbd9078412d)" style="fill: none; stroke: #1f77b4; stroke-width: 1.5"/>
    <path d="M 115.72267 171.172398 
L 115.72267 168.463467 
" clip-path="url(#pbd9078412d)" style="fill: none; stroke: #1f77b4; stroke-width: 1.5"/>
    <path d="M 116.737216 180.642653 
L 116.737216 178.206531 
" clip-path="url(#pbd9078412d)" style="fill: none; stroke: #1f77b4; stroke-width: 1.5"/>
    <path d="M 117.751761 187.437968 
L 117.751761 185.218507 
" clip-path="url(#pbd9078412d)" style="fill: none; stroke: #1f77b4; stroke-width: 1.5"/>
    <path d="M 118.766307 192.500033 
L 118.766307 190.457119 
" clip-path="url(#pbd9078412d)" style="fill: none; stroke: #1f77b4; stroke-width: 1.5"/>
    <path d="M 119.780852 201.309939 
L 119.780852 199.618606 
" clip-path="url(#pbd9078412d)" style="fill: none; stroke: #1f77b4; stroke-width: 1.5"/>
    <path d="M 120.795398 206.910156 
L 120.795398 205.487938 
" clip-path="url(#pbd9078412d)" style="fill: none; stroke: #1f77b4; stroke-width: 1.5"/>
    <path d="M 121.809943 209.681894 
L 121.809943 208.414447 
" clip-path="url(#pbd9078412d)" style="fill: none; stroke: #1f77b4; stroke-width: 1.5"/>
    <path d="M 122.824489 214.168955 
L 122.824489 213.205301 
" clip-path="url(#pbd9078412d)" style="fill: none; stroke: #1f77b4; stroke-width: 1.5"/>
    <path d="M 123.839034 217.412905 
L 123.839034 216.755414 
" clip-path="url(#pbd9078412d)" style="fill: none; stroke: #1f77b4; stroke-width: 1.5"/>
    <path d="M 124.85358 218.879999 
L 124.85358 218.429661 
" clip-path="url(#pbd9078412d)" style="fill: none; stroke: #1f77b4; stroke-width: 1.5"/>
    <path d="M 125.868125 215.466175 
L 125.868125 214.611095 
" clip-path="url(#pbd9078412d)" style="fill: none; stroke: #1f77b4; stroke-width: 1.5"/>
    <path d="M 126.88267 210.03655 
L 126.88267 208.790335 
" clip-path="url(#pbd9078412d)" style="fill: none; stroke: #1f77b4; stroke-width: 1.5"/>
    <path d="M 127.897216 203.666961 
L 127.897216 202.083178 
" clip-path="url(#pbd9078412d)" style="fill: none; stroke: #1f77b4; stroke-width: 1.5"/>
    <path d="M 128.911761 196.049383 
L 128.911761 194.140159 
" clip-path="url(#pbd9078412d)" style="fill: none; stroke: #1f77b4; stroke-width: 1.5"/>
    <path d="M 129.926307 187.150549 
L 129.926307 184.92149 
" clip-path="url(#pbd9078412d)" style="fill: none; stroke: #1f77b4; stroke-width: 1.5"/>
    <path d="M 130.940852 176.899509 
L 130.940852 174.352013 
" clip-path="url(#pbd9078412d)" style="fill: none; stroke: #1f77b4; stroke-width: 1.5"/>
    <path d="M 131.955398 170.127318 
L 131.955398 167.389968 
" clip-path="url(#pbd9078412d)" style="fill: none; stroke: #1f77b4; stroke-width: 1.5"/>
    <path d="M 132.969943 159.488725 
L 132.969943 156.477499 
" clip-path="url(#pbd9078412d)" style="fill: none; stroke: #1f77b4; stroke-width: 1.5"/>
    <path d="M 133.984489 152.197217 
L 133.984489 149.012009 
" clip-path="url(#pbd9078412d)" style="fill: none; stroke: #1f77b4; stroke-width: 1.5"/>
    <path d="M 134.999034 144.901197 
L 134.999034 141.551031 
" clip-path="url(#pbd9078412d)" style="fill: none; stroke: #1f77b4; stroke-width: 1.5"/>
    <path d="M 136.01358 133.588509 
L 136.01358 129.997677 
" clip-path="url(#pbd9078412d)" style="fill: none; stroke: #1f77b4; stroke-width: 1.5"/>
    <path d="M 137.028125 130.044893 
L 137.028125 126.381957 
" clip-path="url(#pbd9078412d)" style="fill: none; stroke: #1f77b4; stroke-width: 1.5"/>
    <path d="M 138.04267 129.90024 
L 138.04267 126.234392 
" clip-path="url(#pbd9078412d)" style="fill: none; stroke: #1f77b4; stroke-width: 1.5"/>
    <path d="M 139.057216 133.299261 
L 139.057216 129.702489 
" clip-path="url(#pbd9078412d)" style="fill: none; stroke: #1f77b4; stroke-width: 1.5"/>
    <path d="M 140.071761 131.310552 
L 140.071761 127.673203 
" clip-path="url(#pbd9078412d)" style="fill: none; stroke: #1f77b4; stroke-width: 1.5"/>
    <path d="M 141.086307 130.406519 
L 141.086307 126.750875 
" clip-path="url(#pbd9078412d)" style="fill: none; stroke: #1f77b4; stroke-width: 1.5"/>
    <path d="M 142.100852 130.948944 
L 142.100852 127.304267 
" clip-path="url(#pbd9078412d)" style="fill: none; stroke: #1f77b4; stroke-width: 1.5"/>
    <path d="M 143.115398 123.462074 
L 143.115398 119.668866 
" clip-path="url(#pbd9078412d)" style="fill: none; stroke: #1f77b4; stroke-width: 1.5"/>
    <path d="M 144.129943 126.753768 
L 144.129943 123.025127 
" clip-path="url(#pbd9078412d)" style="fill: none; stroke: #1f77b4; stroke-width: 1.5"/>
    <path d="M 145.144489 122.485312 
L 145.144489 118.673158 
" clip-path="url(#pbd9078412d)" style="fill: none; stroke: #1f77b4; stroke-width: 1.5"/>
    <path d="M 146.159034 111.991349 
L 146.159034 107.981332 
" clip-path="url(#pbd9078412d)" style="fill: none; stroke: #1f77b4; stroke-width: 1.5"/>
    <path d="M 147.17358 101.565147 
L 147.17358 97.367853 
" clip-path="url(#pbd9078412d)" style="fill: none; stroke: #1f77b4; stroke-width: 1.5"/>
    <path d="M 148.188125 94.684527 
L 148.188125 90.368128 
" clip-path="url(#pbd9078412d)" style="fill: none; stroke: #1f77b4; stroke-width: 1.5"/>
    <path d="M 149.20267 92.257815 
L 149.20267 87.900192 
" clip-path="url(#pbd9078412d)" style="fill: none; stroke: #1f77b4; stroke-width: 1.5"/>
    <path d="M 150.217216 85.302603 
L 150.217216 80.82895 
" clip-path="url(#pbd9078412d)" style="fill: none; stroke: #1f77b4; stroke-width: 1.5"/>
    <path d="M 151.231761 87.693629 
L 151.231761 83.259518 
" clip-path="url(#pbd9078412d)" style="fill: none; stroke: #1f77b4; stroke-width: 1.5"/>
    <path d="M 152.246307 81.751975 
L 152.246307 77.220243 
" clip-path="url(#pbd9078412d)" style="fill: none; stroke: #1f77b4; stroke-width: 1.5"/>
    <path d="M 153.260852 64.464826 
L 153.260852 59.66042 
" clip-path="url(#pbd9078412d)" style="fill: none; stroke: #1f77b4; stroke-width: 1.5"/>
    <path d="M 154.275398 66.929718 
L 154.275398 62.163231 
" clip-path="url(#pbd9078412d)" style="fill: none; stroke: #1f77b4; stroke-width: 1.5"/>
    <path d="M 155.289943 62.579808 
L 155.289943 57.746607 
" clip-path="url(#pbd9078412d)" style="fill: none; stroke: #1f77b4; stroke-width: 1.5"/>
    <path d="M 156.304489 62.434804 
L 156.304489 57.599394 
" clip-path="url(#pbd9078412d)" style="fill: none; stroke: #1f77b4; stroke-width: 1.5"/>
    <path d="M 157.319034 63.123573 
L 157.319034 58.298659 
" clip-path="url(#pbd9078412d)" style="fill: none; stroke: #1f77b4; stroke-width: 1.5"/>
    <path d="M 158.33358 61.129737 
L 158.33358 56.274501 
" clip-path="url(#pbd9078412d)" style="fill: none; stroke: #1f77b4; stroke-width: 1.5"/>
    <path d="M 159.348125 62.833566 
L 159.348125 58.004231 
" clip-path="url(#pbd9078412d)" style="fill: none; stroke: #1f77b4; stroke-width: 1.5"/>
    <path d="M 160.36267 65.878533 
L 160.36267 61.095837 
" clip-path="url(#pbd9078412d)" style="fill: none; stroke: #1f77b4; stroke-width: 1.5"/>
    <path d="M 161.377216 57.504341 
L 161.377216 52.594452 
" clip-path="url(#pbd9078412d)" style="fill: none; stroke: #1f77b4; stroke-width: 1.5"/>
    <path d="M 162.391761 62.036037 
L 162.391761 57.194561 
" clip-path="url(#pbd9078412d)" style="fill: none; stroke: #1f77b4; stroke-width: 1.5"/>
    <path d="M 163.406307 62.253547 
L 163.406307 57.415378 
" clip-path="url(#pbd9078412d)" style="fill: none; stroke: #1f77b4; stroke-width: 1.5"/>
    <path d="M 164.420852 62.543557 
L 164.420852 57.709803 
" clip-path="url(#pbd9078412d)" style="fill: none; stroke: #1f77b4; stroke-width: 1.5"/>
    <path d="M 165.435398 56.996761 
L 165.435398 52.079269 
" clip-path="url(#pbd9078412d)" style="fill: none; stroke: #1f77b4; stroke-width: 1.5"/>
    <path d="M 166.449943 62.217295 
L 166.449943 57.378576 
" clip-path="url(#pbd9078412d)" style="fill: none; stroke: #1f77b4; stroke-width: 1.5"/>
    <path d="M 167.464489 59.715869 
L 167.464489 54.839245 
" clip-path="url(#pbd9078412d)" style="fill: none; stroke: #1f77b4; stroke-width: 1.5"/>
    <path d="M 168.479034 68.343338 
L 168.479034 63.598734 
" clip-path="url(#pbd9078412d)" style="fill: none; stroke: #1f77b4; stroke-width: 1.5"/>
    <path d="M 169.49358 64.211079 
L 169.49358 59.402786 
" clip-path="url(#pbd9078412d)" style="fill: none; stroke: #1f77b4; stroke-width: 1.5"/>
    <path d="M 170.508125 61.383503 
L 170.508125 56.532116 
" clip-path="url(#pbd9078412d)" style="fill: none; stroke: #1f77b4; stroke-width: 1.5"/>
    <path d="M 171.52267 65.117312 
L 171.52267 60.322914 
" clip-path="url(#pbd9078412d)" style="fill: none; stroke: #1f77b4; stroke-width: 1.5"/>
    <path d="M 172.537216 67.872137 
L 172.537216 63.120228 
" clip-path="url(#pbd9078412d)" style="fill: none; stroke: #1f77b4; stroke-width: 1.5"/>
    <path d="M 173.551761 68.814533 
L 173.551761 64.077247 
" clip-path="url(#pbd9078412d)" style="fill: none; stroke: #1f77b4; stroke-width: 1.5"/>
    <path d="M 174.566307 69.321968 
L 174.566307 64.592574 
" clip-path="url(#pbd9078412d)" style="fill: none; stroke: #1f77b4; stroke-width: 1.5"/>
    <path d="M 175.580852 72.946309 
L 175.580852 68.273679 
" clip-path="url(#pbd9078412d)" style="fill: none; stroke: #1f77b4; stroke-width: 1.5"/>
    <path d="M 176.595398 71.061694 
L 176.595398 66.359461 
" clip-path="url(#pbd9078412d)" style="fill: none; stroke: #1f77b4; stroke-width: 1.5"/>
    <path d="M 177.609943 67.618411 
L 177.609943 62.862572 
" clip-path="url(#pbd9078412d)" style="fill: none; stroke: #1f77b4; stroke-width: 1.5"/>
    <path d="M 178.624489 69.140742 
L 178.624489 64.408528 
" clip-path="url(#pbd9078412d)" style="fill: none; stroke: #1f77b4; stroke-width: 1.5"/>
    <path d="M 179.639034 67.763397 
L 179.639034 63.009804 
" clip-path="url(#pbd9078412d)" style="fill: none; stroke: #1f77b4; stroke-width: 1.5"/>
    <path d="M 180.65358 74.613389 
L 180.65358 69.967103 
" clip-path="url(#pbd9078412d)" style="fill: none; stroke: #1f77b4; stroke-width: 1.5"/>
    <path d="M 181.668125 75.012027 
L 181.668125 70.372063 
" clip-path="url(#pbd9078412d)" style="fill: none; stroke: #1f77b4; stroke-width: 1.5"/>
    <path d="M 182.68267 74.649629 
L 182.68267 70.003917 
" clip-path="url(#pbd9078412d)" style="fill: none; stroke: #1f77b4; stroke-width: 1.5"/>
    <path d="M 183.697216 77.838612 
L 183.697216 73.243725 
" clip-path="url(#pbd9078412d)" style="fill: none; stroke: #1f77b4; stroke-width: 1.5"/>
    <path d="M 184.711761 79.360527 
L 184.711761 74.790097 
" clip-path="url(#pbd9078412d)" style="fill: none; stroke: #1f77b4; stroke-width: 1.5"/>
    <path d="M 185.726307 82.621551 
L 185.726307 78.103973 
" clip-path="url(#pbd9078412d)" style="fill: none; stroke: #1f77b4; stroke-width: 1.5"/>
    <path d="M 186.740852 85.338832 
L 186.740852 80.865776 
" clip-path="url(#pbd9078412d)" style="fill: none; stroke: #1f77b4; stroke-width: 1.5"/>
    <path d="M 187.755398 89.468669 
L 187.755398 85.064146 
" clip-path="url(#pbd9078412d)" style="fill: none; stroke: #1f77b4; stroke-width: 1.5"/>
    <path d="M 188.769943 91.352276 
L 188.769943 86.97937 
" clip-path="url(#pbd9078412d)" style="fill: none; stroke: #1f77b4; stroke-width: 1.5"/>
    <path d="M 189.784489 90.627825 
L 189.784489 86.242732 
" clip-path="url(#pbd9078412d)" style="fill: none; stroke: #1f77b4; stroke-width: 1.5"/>
    <path d="M 190.799034 91.931824 
L 190.799034 87.568693 
" clip-path="url(#pbd9078412d)" style="fill: none; stroke: #1f77b4; stroke-width: 1.5"/>
    <path d="M 191.81358 91.569607 
L 191.81358 87.200365 
" clip-path="url(#pbd9078412d)" style="fill: none; stroke: #1f77b4; stroke-width: 1.5"/>
    <path d="M 192.828125 97.618047 
L 192.828125 93.352018 
" clip-path="url(#pbd9078412d)" style="fill: none; stroke: #1f77b4; stroke-width: 1.5"/>
    <path d="M 193.84267 93.923937 
L 193.84267 89.594575 
" clip-path="url(#pbd9078412d)" style="fill: none; stroke: #1f77b4; stroke-width: 1.5"/>
    <path d="M 194.857216 99.428713 
L 194.857216 95.194075 
" clip-path="url(#pbd9078412d)" style="fill: none; stroke: #1f77b4; stroke-width: 1.5"/>
    <path d="M 195.871761 99.75462 
L 195.871761 95.525658 
" clip-path="url(#pbd9078412d)" style="fill: none; stroke: #1f77b4; stroke-width: 1.5"/>
    <path d="M 196.886307 100.406424 
L 196.886307 96.188834 
" clip-path="url(#pbd9078412d)" style="fill: none; stroke: #1f77b4; stroke-width: 1.5"/>
    <path d="M 197.900852 99.175227 
L 197.900852 94.93618 
" clip-path="url(#pbd9078412d)" style="fill: none; stroke: #1f77b4; stroke-width: 1.5"/>
    <path d="M 198.915398 102.90486 
L 198.915398 98.731155 
" clip-path="url(#pbd9078412d)" style="fill: none; stroke: #1f77b4; stroke-width: 1.5"/>
    <path d="M 199.929943 107.430413 
L 199.929943 103.337408 
" clip-path="url(#pbd9078412d)" style="fill: none; stroke: #1f77b4; stroke-width: 1.5"/>
    <path d="M 200.944489 108.226828 
L 200.944489 104.148191 
" clip-path="url(#pbd9078412d)" style="fill: none; stroke: #1f77b4; stroke-width: 1.5"/>
    <path d="M 201.959034 113.077159 
L 201.959034 109.087155 
" clip-path="url(#pbd9078412d)" style="fill: none; stroke: #1f77b4; stroke-width: 1.5"/>
    <path d="M 202.97358 117.637001 
L 202.97358 113.732174 
" clip-path="url(#pbd9078412d)" style="fill: none; stroke: #1f77b4; stroke-width: 1.5"/>
    <path d="M 203.988125 126.102708 
L 203.988125 122.361207 
" clip-path="url(#pbd9078412d)" style="fill: none; stroke: #1f77b4; stroke-width: 1.5"/>
    <path d="M 205.00267 128.562151 
L 205.00267 124.869467 
" clip-path="url(#pbd9078412d)" style="fill: none; stroke: #1f77b4; stroke-width: 1.5"/>
    <path d="M 206.017216 132.86538 
L 206.017216 129.259716 
" clip-path="url(#pbd9078412d)" style="fill: none; stroke: #1f77b4; stroke-width: 1.5"/>
    <path d="M 207.031761 134.673144 
L 207.031761 131.104675 
" clip-path="url(#pbd9078412d)" style="fill: none; stroke: #1f77b4; stroke-width: 1.5"/>
    <path d="M 208.046307 141.721489 
L 208.046307 138.301947 
" clip-path="url(#pbd9078412d)" style="fill: none; stroke: #1f77b4; stroke-width: 1.5"/>
    <path d="M 209.060852 143.41983 
L 209.060852 140.037165 
" clip-path="url(#pbd9078412d)" style="fill: none; stroke: #1f77b4; stroke-width: 1.5"/>
    <path d="M 210.075398 143.600493 
L 210.075398 140.221774 
" clip-path="url(#pbd9078412d)" style="fill: none; stroke: #1f77b4; stroke-width: 1.5"/>
    <path d="M 211.089943 148.116291 
L 211.089943 144.837782 
" clip-path="url(#pbd9078412d)" style="fill: none; stroke: #1f77b4; stroke-width: 1.5"/>
    <path d="M 212.104489 148.983148 
L 212.104489 145.724232 
" clip-path="url(#pbd9078412d)" style="fill: none; stroke: #1f77b4; stroke-width: 1.5"/>
    <path d="M 213.119034 149.777715 
L 213.119034 146.536863 
" clip-path="url(#pbd9078412d)" style="fill: none; stroke: #1f77b4; stroke-width: 1.5"/>
    <path d="M 214.13358 148.802558 
L 214.13358 145.53955 
" clip-path="url(#pbd9078412d)" style="fill: none; stroke: #1f77b4; stroke-width: 1.5"/>
    <path d="M 215.148125 147.104885 
L 215.148125 143.803664 
" clip-path="url(#pbd9078412d)" style="fill: none; stroke: #1f77b4; stroke-width: 1.5"/>
    <path d="M 216.16267 142.29967 
L 216.16267 138.892637 
" clip-path="url(#pbd9078412d)" style="fill: none; stroke: #1f77b4; stroke-width: 1.5"/>
    <path d="M 217.177216 140.02295 
L 217.177216 136.566927 
" clip-path="url(#pbd9078412d)" style="fill: none; stroke: #1f77b4; stroke-width: 1.5"/>
    <path d="M 218.191761 135.179283 
L 218.191761 131.621299 
" clip-path="url(#pbd9078412d)" style="fill: none; stroke: #1f77b4; stroke-width: 1.5"/>
    <path d="M 219.206307 128.272821 
L 219.206307 124.574361 
" clip-path="url(#pbd9078412d)" style="fill: none; stroke: #1f77b4; stroke-width: 1.5"/>
    <path d="M 220.220852 122.774728 
L 220.220852 118.968178 
" clip-path="url(#pbd9078412d)" style="fill: none; stroke: #1f77b4; stroke-width: 1.5"/>
    <path d="M 221.235398 121.21907 
L 221.235398 117.382495 
" clip-path="url(#pbd9078412d)" style="fill: none; stroke: #1f77b4; stroke-width: 1.5"/>
    <path d="M 222.249943 114.778159 
L 222.249943 110.819714 
" clip-path="url(#pbd9078412d)" style="fill: none; stroke: #1f77b4; stroke-width: 1.5"/>
    <path d="M 223.264489 112.606647 
L 223.264489 108.607959 
" clip-path="url(#pbd9078412d)" style="fill: none; stroke: #1f77b4; stroke-width: 1.5"/>
    <path d="M 224.279034 102.14449 
L 224.279034 97.957381 
" clip-path="url(#pbd9078412d)" style="fill: none; stroke: #1f77b4; stroke-width: 1.5"/>
    <path d="M 225.29358 94.105032 
L 225.29358 89.778752 
" clip-path="url(#pbd9078412d)" style="fill: none; stroke: #1f77b4; stroke-width: 1.5"/>
    <path d="M 226.308125 93.81528 
L 226.308125 89.484069 
" clip-path="url(#pbd9078412d)" style="fill: none; stroke: #1f77b4; stroke-width: 1.5"/>
    <path d="M 227.32267 93.525525 
L 227.32267 89.189388 
" clip-path="url(#pbd9078412d)" style="fill: none; stroke: #1f77b4; stroke-width: 1.5"/>
    <path d="M 228.337216 98.740674 
L 228.337216 94.49408 
" clip-path="url(#pbd9078412d)" style="fill: none; stroke: #1f77b4; stroke-width: 1.5"/>
    <path d="M 229.351761 104.099682 
L 229.351761 99.947129 
" clip-path="url(#pbd9078412d)" style="fill: none; stroke: #1f77b4; stroke-width: 1.5"/>
    <path d="M 230.366307 110.977882 
L 230.366307 106.949275 
" clip-path="url(#pbd9078412d)" style="fill: none; stroke: #1f77b4; stroke-width: 1.5"/>
    <path d="M 231.380852 125.849512 
L 231.380852 122.103022 
" clip-path="url(#pbd9078412d)" style="fill: none; stroke: #1f77b4; stroke-width: 1.5"/>
    <path d="M 232.395398 126.39207 
L 232.395398 122.65628 
" clip-path="url(#pbd9078412d)" style="fill: none; stroke: #1f77b4; stroke-width: 1.5"/>
    <path d="M 233.409943 130.370357 
L 233.409943 126.713983 
" clip-path="url(#pbd9078412d)" style="fill: none; stroke: #1f77b4; stroke-width: 1.5"/>
    <path d="M 234.424489 138.794101 
L 234.424489 135.311925 
" clip-path="url(#pbd9078412d)" style="fill: none; stroke: #1f77b4; stroke-width: 1.5"/>
    <path d="M 235.439034 146.852021 
L 235.439034 143.545147 
" clip-path="url(#pbd9078412d)" style="fill: none; stroke: #1f77b4; stroke-width: 1.5"/>
    <path d="M 236.45358 157.539995 
L 236.45358 154.481289 
" clip-path="url(#pbd9078412d)" style="fill: none; stroke: #1f77b4; stroke-width: 1.5"/>
    <path d="M 237.468125 162.627538 
L 237.468125 159.694423 
" clip-path="url(#pbd9078412d)" style="fill: none; stroke: #1f77b4; stroke-width: 1.5"/>
    <path d="M 238.48267 167.171487 
L 238.48267 164.355335 
" clip-path="url(#pbd9078412d)" style="fill: none; stroke: #1f77b4; stroke-width: 1.5"/>
    <path d="M 239.497216 167.459909 
L 239.497216 164.651348 
" clip-path="url(#pbd9078412d)" style="fill: none; stroke: #1f77b4; stroke-width: 1.5"/>
    <path d="M 240.511761 169.262313 
L 240.511761 166.501666 
" clip-path="url(#pbd9078412d)" style="fill: none; stroke: #1f77b4; stroke-width: 1.5"/>
    <path d="M 241.526307 162.591466 
L 241.526307 159.657441 
" clip-path="url(#pbd9078412d)" style="fill: none; stroke: #1f77b4; stroke-width: 1.5"/>
    <path d="M 242.540852 159.416557 
L 242.540852 156.403559 
" clip-path="url(#pbd9078412d)" style="fill: none; stroke: #1f77b4; stroke-width: 1.5"/>
    <path d="M 243.555398 147.104885 
L 243.555398 143.803664 
" clip-path="url(#pbd9078412d)" style="fill: none; stroke: #1f77b4; stroke-width: 1.5"/>
    <path d="M 244.569943 135.685406 
L 244.569943 132.137937 
" clip-path="url(#pbd9078412d)" style="fill: none; stroke: #1f77b4; stroke-width: 1.5"/>
    <path d="M 245.584489 122.593844 
L 245.584489 118.78379 
" clip-path="url(#pbd9078412d)" style="fill: none; stroke: #1f77b4; stroke-width: 1.5"/>
    <path d="M 246.599034 104.570355 
L 246.599034 100.426165 
" clip-path="url(#pbd9078412d)" style="fill: none; stroke: #1f77b4; stroke-width: 1.5"/>
    <path d="M 247.61358 93.416866 
L 247.61358 89.078883 
" clip-path="url(#pbd9078412d)" style="fill: none; stroke: #1f77b4; stroke-width: 1.5"/>
    <path d="M 248.628125 87.657402 
L 248.628125 83.22269 
" clip-path="url(#pbd9078412d)" style="fill: none; stroke: #1f77b4; stroke-width: 1.5"/>
    <path d="M 249.64267 75.265704 
L 249.64267 70.629768 
" clip-path="url(#pbd9078412d)" style="fill: none; stroke: #1f77b4; stroke-width: 1.5"/>
    <path d="M 250.657216 66.857224 
L 250.657216 62.089616 
" clip-path="url(#pbd9078412d)" style="fill: none; stroke: #1f77b4; stroke-width: 1.5"/>
    <path d="M 251.671761 51.775606 
L 251.671761 46.780584 
" clip-path="url(#pbd9078412d)" style="fill: none; stroke: #1f77b4; stroke-width: 1.5"/>
    <path d="M 252.686307 35.673428 
L 252.686307 30.446588 
" clip-path="url(#pbd9078412d)" style="fill: none; stroke: #1f77b4; stroke-width: 1.5"/>
    <path d="M 253.700852 35.492068 
L 253.700852 30.262676 
" clip-path="url(#pbd9078412d)" style="fill: none; stroke: #1f77b4; stroke-width: 1.5"/>
    <path d="M 254.715398 34.621531 
L 254.715398 29.379906 
" clip-path="url(#pbd9078412d)" style="fill: none; stroke: #1f77b4; stroke-width: 1.5"/>
    <path d="M 255.729943 36.979202 
L 255.729943 31.770774 
" clip-path="url(#pbd9078412d)" style="fill: none; stroke: #1f77b4; stroke-width: 1.5"/>
    <path d="M 256.744489 33.388245 
L 256.744489 28.12934 
" clip-path="url(#pbd9078412d)" style="fill: none; stroke: #1f77b4; stroke-width: 1.5"/>
    <path d="M 257.759034 41.911829 
L 257.759034 36.773551 
" clip-path="url(#pbd9078412d)" style="fill: none; stroke: #1f77b4; stroke-width: 1.5"/>
    <path d="M 258.77358 39.082881 
L 258.77358 33.904253 
" clip-path="url(#pbd9078412d)" style="fill: none; stroke: #1f77b4; stroke-width: 1.5"/>
    <path d="M 259.788125 35.20189 
L 259.788125 29.968418 
" clip-path="url(#pbd9078412d)" style="fill: none; stroke: #1f77b4; stroke-width: 1.5"/>
    <path d="M 260.80267 42.238236 
L 260.80267 37.104634 
" clip-path="url(#pbd9078412d)" style="fill: none; stroke: #1f77b4; stroke-width: 1.5"/>
    <path d="M 261.817216 36.652762 
L 261.817216 31.439724 
" clip-path="url(#pbd9078412d)" style="fill: none; stroke: #1f77b4; stroke-width: 1.5"/>
    <path d="M 262.831761 46.372538 
L 262.831761 41.29854 
" clip-path="url(#pbd9078412d)" style="fill: none; stroke: #1f77b4; stroke-width: 1.5"/>
    <path d="M 263.846307 42.093167 
L 263.846307 36.957486 
" clip-path="url(#pbd9078412d)" style="fill: none; stroke: #1f77b4; stroke-width: 1.5"/>
    <path d="M 264.860852 36.942931 
L 264.860852 31.73399 
" clip-path="url(#pbd9078412d)" style="fill: none; stroke: #1f77b4; stroke-width: 1.5"/>
    <path d="M 265.875398 43.036111 
L 265.875398 37.913958 
" clip-path="url(#pbd9078412d)" style="fill: none; stroke: #1f77b4; stroke-width: 1.5"/>
    <path d="M 266.889943 33.279425 
L 266.889943 28.018997 
" clip-path="url(#pbd9078412d)" style="fill: none; stroke: #1f77b4; stroke-width: 1.5"/>
    <path d="M 267.904489 22.686523 
L 267.904489 17.28 
" clip-path="url(#pbd9078412d)" style="fill: none; stroke: #1f77b4; stroke-width: 1.5"/>
    <path d="M 268.919034 24.899588 
L 268.919034 19.523257 
" clip-path="url(#pbd9078412d)" style="fill: none; stroke: #1f77b4; stroke-width: 1.5"/>
    <path d="M 269.93358 31.50199 
L 269.93358 26.216764 
" clip-path="url(#pbd9078412d)" style="fill: none; stroke: #1f77b4; stroke-width: 1.5"/>
    <path d="M 270.948125 32.372578 
L 270.948125 27.099484 
" clip-path="url(#pbd9078412d)" style="fill: none; stroke: #1f77b4; stroke-width: 1.5"/>
    <path d="M 271.96267 31.175516 
L 271.96267 25.885748 
" clip-path="url(#pbd9078412d)" style="fill: none; stroke: #1f77b4; stroke-width: 1.5"/>
    <path d="M 272.977216 30.159807 
L 272.977216 24.855933 
" clip-path="url(#pbd9078412d)" style="fill: none; stroke: #1f77b4; stroke-width: 1.5"/>
    <path d="M 273.991761 32.771592 
L 273.991761 27.504068 
" clip-path="url(#pbd9078412d)" style="fill: none; stroke: #1f77b4; stroke-width: 1.5"/>
    <path d="M 275.006307 31.284341 
L 275.006307 25.996087 
" clip-path="url(#pbd9078412d)" style="fill: none; stroke: #1f77b4; stroke-width: 1.5"/>
    <path d="M 276.020852 33.170604 
L 276.020852 27.908655 
" clip-path="url(#pbd9078412d)" style="fill: none; stroke: #1f77b4; stroke-width: 1.5"/>
    <path d="M 277.035398 33.098057 
L 277.035398 27.835093 
" clip-path="url(#pbd9078412d)" style="fill: none; stroke: #1f77b4; stroke-width: 1.5"/>
    <path d="M 278.049943 41.186473 
L 278.049943 36.037819 
" clip-path="url(#pbd9078412d)" style="fill: none; stroke: #1f77b4; stroke-width: 1.5"/>
    <path d="M 279.064489 33.678433 
L 279.064489 28.423588 
" clip-path="url(#pbd9078412d)" style="fill: none; stroke: #1f77b4; stroke-width: 1.5"/>
    <path d="M 280.079034 44.776884 
L 280.079034 39.679798 
" clip-path="url(#pbd9078412d)" style="fill: none; stroke: #1f77b4; stroke-width: 1.5"/>
    <path d="M 281.09358 40.06215 
L 281.09358 34.897454 
" clip-path="url(#pbd9078412d)" style="fill: none; stroke: #1f77b4; stroke-width: 1.5"/>
    <path d="M 282.108125 45.212067 
L 282.108125 40.121268 
" clip-path="url(#pbd9078412d)" style="fill: none; stroke: #1f77b4; stroke-width: 1.5"/>
    <path d="M 283.12267 42.056899 
L 283.12267 36.920699 
" clip-path="url(#pbd9078412d)" style="fill: none; stroke: #1f77b4; stroke-width: 1.5"/>
    <path d="M 284.137216 46.989027 
L 284.137216 41.923977 
" clip-path="url(#pbd9078412d)" style="fill: none; stroke: #1f77b4; stroke-width: 1.5"/>
    <path d="M 285.151761 49.128543 
L 285.151761 44.094673 
" clip-path="url(#pbd9078412d)" style="fill: none; stroke: #1f77b4; stroke-width: 1.5"/>
    <path d="M 286.166307 56.779225 
L 286.166307 51.858478 
" clip-path="url(#pbd9078412d)" style="fill: none; stroke: #1f77b4; stroke-width: 1.5"/>
    <path d="M 287.180852 56.525432 
L 287.180852 51.600891 
" clip-path="url(#pbd9078412d)" style="fill: none; stroke: #1f77b4; stroke-width: 1.5"/>
    <path d="M 288.195398 63.341076 
L 288.195398 58.519483 
" clip-path="url(#pbd9078412d)" style="fill: none; stroke: #1f77b4; stroke-width: 1.5"/>
    <path d="M 289.209943 63.522328 
L 289.209943 58.703503 
" clip-path="url(#pbd9078412d)" style="fill: none; stroke: #1f77b4; stroke-width: 1.5"/>
    <path d="M 290.224489 67.654658 
L 290.224489 62.89938 
" clip-path="url(#pbd9078412d)" style="fill: none; stroke: #1f77b4; stroke-width: 1.5"/>
    <path d="M 291.239034 73.671135 
L 291.239034 69.009941 
" clip-path="url(#pbd9078412d)" style="fill: none; stroke: #1f77b4; stroke-width: 1.5"/>
    <path d="M 292.25358 73.091275 
L 292.25358 68.42093 
" clip-path="url(#pbd9078412d)" style="fill: none; stroke: #1f77b4; stroke-width: 1.5"/>
    <path d="M 293.268125 81.896906 
L 293.268125 77.36753 
" clip-path="url(#pbd9078412d)" style="fill: none; stroke: #1f77b4; stroke-width: 1.5"/>
    <path d="M 294.28267 75.628096 
L 294.28267 70.99792 
" clip-path="url(#pbd9078412d)" style="fill: none; stroke: #1f77b4; stroke-width: 1.5"/>
    <path d="M 295.297216 81.715742 
L 295.297216 77.183421 
" clip-path="url(#pbd9078412d)" style="fill: none; stroke: #1f77b4; stroke-width: 1.5"/>
    <path d="M 296.311761 87.36759 
L 296.311761 82.928067 
" clip-path="url(#pbd9078412d)" style="fill: none; stroke: #1f77b4; stroke-width: 1.5"/>
    <path d="M 297.326307 84.831623 
L 297.326307 80.350223 
" clip-path="url(#pbd9078412d)" style="fill: none; stroke: #1f77b4; stroke-width: 1.5"/>
    <path d="M 298.340852 85.91849 
L 298.340852 81.454989 
" clip-path="url(#pbd9078412d)" style="fill: none; stroke: #1f77b4; stroke-width: 1.5"/>
    <path d="M 299.355398 92.656244 
L 299.355398 88.305362 
" clip-path="url(#pbd9078412d)" style="fill: none; stroke: #1f77b4; stroke-width: 1.5"/>
    <path d="M 300.369943 89.939581 
L 300.369943 85.542941 
" clip-path="url(#pbd9078412d)" style="fill: none; stroke: #1f77b4; stroke-width: 1.5"/>
    <path d="M 301.384489 90.845162 
L 301.384489 86.463722 
" clip-path="url(#pbd9078412d)" style="fill: none; stroke: #1f77b4; stroke-width: 1.5"/>
    <path d="M 302.399034 88.200793 
L 302.399034 83.775116 
" clip-path="url(#pbd9078412d)" style="fill: none; stroke: #1f77b4; stroke-width: 1.5"/>
    <path d="M 303.41358 89.975805 
L 303.41358 85.579772 
" clip-path="url(#pbd9078412d)" style="fill: none; stroke: #1f77b4; stroke-width: 1.5"/>
    <path d="M 304.428125 82.114301 
L 304.428125 77.588461 
" clip-path="url(#pbd9078412d)" style="fill: none; stroke: #1f77b4; stroke-width: 1.5"/>
    <path d="M 305.44267 81.679509 
L 305.44267 77.1466 
" clip-path="url(#pbd9078412d)" style="fill: none; stroke: #1f77b4; stroke-width: 1.5"/>
    <path d="M 306.457216 83.273718 
L 306.457216 78.766786 
" clip-path="url(#pbd9078412d)" style="fill: none; stroke: #1f77b4; stroke-width: 1.5"/>
    <path d="M 307.471761 78.961937 
L 307.471761 74.385089 
" clip-path="url(#pbd9078412d)" style="fill: none; stroke: #1f77b4; stroke-width: 1.5"/>
    <path d="M 308.486307 81.643276 
L 308.486307 77.109778 
" clip-path="url(#pbd9078412d)" style="fill: none; stroke: #1f77b4; stroke-width: 1.5"/>
    <path d="M 309.500852 81.788207 
L 309.500852 77.257065 
" clip-path="url(#pbd9078412d)" style="fill: none; stroke: #1f77b4; stroke-width: 1.5"/>
    <path d="M 310.515398 81.136012 
L 310.515398 76.594281 
" clip-path="url(#pbd9078412d)" style="fill: none; stroke: #1f77b4; stroke-width: 1.5"/>
    <path d="M 311.529943 82.005603 
L 311.529943 77.477995 
" clip-path="url(#pbd9078412d)" style="fill: none; stroke: #1f77b4; stroke-width: 1.5"/>
    <path d="M 312.544489 80.338866 
L 312.544489 75.784228 
" clip-path="url(#pbd9078412d)" style="fill: none; stroke: #1f77b4; stroke-width: 1.5"/>
    <path d="M 313.559034 87.838533 
L 313.559034 83.406831 
" clip-path="url(#pbd9078412d)" style="fill: none; stroke: #1f77b4; stroke-width: 1.5"/>
    <path d="M 314.57358 88.961525 
L 314.57358 84.548528 
" clip-path="url(#pbd9078412d)" style="fill: none; stroke: #1f77b4; stroke-width: 1.5"/>
    <path d="M 315.588125 94.720745 
L 315.588125 90.404964 
" clip-path="url(#pbd9078412d)" style="fill: none; stroke: #1f77b4; stroke-width: 1.5"/>
    <path d="M 316.60267 91.09872 
L 316.60267 86.721545 
" clip-path="url(#pbd9078412d)" style="fill: none; stroke: #1f77b4; stroke-width: 1.5"/>
    <path d="M 317.617216 94.684527 
L 317.617216 90.368128 
" clip-path="url(#pbd9078412d)" style="fill: none; stroke: #1f77b4; stroke-width: 1.5"/>
    <path d="M 318.631761 94.14125 
L 318.631761 89.815588 
" clip-path="url(#pbd9078412d)" style="fill: none; stroke: #1f77b4; stroke-width: 1.5"/>
    <path d="M 319.646307 104.389328 
L 319.646307 100.241919 
" clip-path="url(#pbd9078412d)" style="fill: none; stroke: #1f77b4; stroke-width: 1.5"/>
    <path d="M 320.660852 105.65649 
L 320.660852 101.531662 
" clip-path="url(#pbd9078412d)" style="fill: none; stroke: #1f77b4; stroke-width: 1.5"/>
    <path d="M 321.675398 106.054728 
L 321.675398 101.937023 
" clip-path="url(#pbd9078412d)" style="fill: none; stroke: #1f77b4; stroke-width: 1.5"/>
    <path d="M 322.689943 106.561568 
L 322.689943 102.452946 
" clip-path="url(#pbd9078412d)" style="fill: none; stroke: #1f77b4; stroke-width: 1.5"/>
    <path d="M 323.704489 117.890298 
L 323.704489 113.990258 
" clip-path="url(#pbd9078412d)" style="fill: none; stroke: #1f77b4; stroke-width: 1.5"/>
    <path d="M 324.719034 122.810905 
L 324.719034 119.005056 
" clip-path="url(#pbd9078412d)" style="fill: none; stroke: #1f77b4; stroke-width: 1.5"/>
    <path d="M 325.73358 127.911153 
L 325.73358 124.205485 
" clip-path="url(#pbd9078412d)" style="fill: none; stroke: #1f77b4; stroke-width: 1.5"/>
    <path d="M 326.748125 133.733131 
L 326.748125 130.145272 
" clip-path="url(#pbd9078412d)" style="fill: none; stroke: #1f77b4; stroke-width: 1.5"/>
    <path d="M 327.76267 143.672757 
L 327.76267 140.295619 
" clip-path="url(#pbd9078412d)" style="fill: none; stroke: #1f77b4; stroke-width: 1.5"/>
    <path d="M 328.777216 152.016674 
L 328.777216 148.82728 
" clip-path="url(#pbd9078412d)" style="fill: none; stroke: #1f77b4; stroke-width: 1.5"/>
    <path d="M 329.791761 159.01962 
L 329.791761 155.996896 
" clip-path="url(#pbd9078412d)" style="fill: none; stroke: #1f77b4; stroke-width: 1.5"/>
    <path d="M 330.806307 165.152248 
L 330.806307 162.283524 
" clip-path="url(#pbd9078412d)" style="fill: none; stroke: #1f77b4; stroke-width: 1.5"/>
    <path d="M 331.820852 171.676866 
L 331.820852 168.981761 
" clip-path="url(#pbd9078412d)" style="fill: none; stroke: #1f77b4; stroke-width: 1.5"/>
    <path d="M 332.835398 177.18753 
L 332.835398 174.648428 
" clip-path="url(#pbd9078412d)" style="fill: none; stroke: #1f77b4; stroke-width: 1.5"/>
    <path d="M 333.849943 183.412321 
L 333.849943 181.062056 
" clip-path="url(#pbd9078412d)" style="fill: none; stroke: #1f77b4; stroke-width: 1.5"/>
    <path d="M 334.864489 187.11462 
L 334.864489 184.884365 
" clip-path="url(#pbd9078412d)" style="fill: none; stroke: #1f77b4; stroke-width: 1.5"/>
    <path d="M 335.879034 187.402042 
L 335.879034 185.181379 
" clip-path="url(#pbd9078412d)" style="fill: none; stroke: #1f77b4; stroke-width: 1.5"/>
    <path d="M 336.89358 189.808353 
L 336.89358 187.669716 
" clip-path="url(#pbd9078412d)" style="fill: none; stroke: #1f77b4; stroke-width: 1.5"/>
    <path d="M 337.908125 187.078691 
L 337.908125 184.847239 
" clip-path="url(#pbd9078412d)" style="fill: none; stroke: #1f77b4; stroke-width: 1.5"/>
    <path d="M 338.92267 178.051508 
L 338.92267 175.537756 
" clip-path="url(#pbd9078412d)" style="fill: none; stroke: #1f77b4; stroke-width: 1.5"/>
    <path d="M 339.937216 169.3344 
L 339.937216 166.575688 
" clip-path="url(#pbd9078412d)" style="fill: none; stroke: #1f77b4; stroke-width: 1.5"/>
    <path d="M 340.951761 164.214583 
L 340.951761 161.321774 
" clip-path="url(#pbd9078412d)" style="fill: none; stroke: #1f77b4; stroke-width: 1.5"/>
    <path d="M 341.966307 154.183006 
L 341.966307 151.044214 
" clip-path="url(#pbd9078412d)" style="fill: none; stroke: #1f77b4; stroke-width: 1.5"/>
    <path d="M 342.980852 143.130765 
L 342.980852 139.741795 
" clip-path="url(#pbd9078412d)" style="fill: none; stroke: #1f77b4; stroke-width: 1.5"/>
    <path d="M 343.995398 140.637338 
L 343.995398 137.194465 
" clip-path="url(#pbd9078412d)" style="fill: none; stroke: #1f77b4; stroke-width: 1.5"/>
    <path d="M 345.009943 131.238231 
L 345.009943 127.599415 
" clip-path="url(#pbd9078412d)" style="fill: none; stroke: #1f77b4; stroke-width: 1.5"/>
    <path d="M 346.024489 103.773827 
L 346.024489 99.615495 
" clip-path="url(#pbd9078412d)" style="fill: none; stroke: #1f77b4; stroke-width: 1.5"/>
    <path d="M 347.039034 64.428577 
L 347.039034 59.623615 
" clip-path="url(#pbd9078412d)" style="fill: none; stroke: #1f77b4; stroke-width: 1.5"/>
    <path d="M 348.05358 48.983494 
L 348.05358 43.947504 
" clip-path="url(#pbd9078412d)" style="fill: none; stroke: #1f77b4; stroke-width: 1.5"/>
    <path d="M 349.068125 48.185717 
L 349.068125 43.138083 
" clip-path="url(#pbd9078412d)" style="fill: none; stroke: #1f77b4; stroke-width: 1.5"/>
    <path d="M 350.08267 42.45584 
L 350.08267 37.325357 
" clip-path="url(#pbd9078412d)" style="fill: none; stroke: #1f77b4; stroke-width: 1.5"/>
    <path d="M 351.097216 44.087835 
L 351.097216 38.980812 
" clip-path="url(#pbd9078412d)" style="fill: none; stroke: #1f77b4; stroke-width: 1.5"/>
    <path d="M 352.111761 44.740618 
L 352.111761 39.643009 
" clip-path="url(#pbd9078412d)" style="fill: none; stroke: #1f77b4; stroke-width: 1.5"/>
    <path d="M 353.126307 43.652642 
L 353.126307 38.539352 
" clip-path="url(#pbd9078412d)" style="fill: none; stroke: #1f77b4; stroke-width: 1.5"/>
    <path d="M 354.140852 48.874707 
L 354.140852 43.837128 
" clip-path="url(#pbd9078412d)" style="fill: none; stroke: #1f77b4; stroke-width: 1.5"/>
    <path d="M 355.155398 46.118687 
L 355.155398 41.041009 
" clip-path="url(#pbd9078412d)" style="fill: none; stroke: #1f77b4; stroke-width: 1.5"/>
    <path d="M 356.169943 50.869095 
L 356.169943 45.860734 
" clip-path="url(#pbd9078412d)" style="fill: none; stroke: #1f77b4; stroke-width: 1.5"/>
    <path d="M 357.184489 54.313744 
L 357.184489 49.356258 
" clip-path="url(#pbd9078412d)" style="fill: none; stroke: #1f77b4; stroke-width: 1.5"/>
    <path d="M 358.199034 49.454901 
L 358.199034 44.425804 
" clip-path="url(#pbd9078412d)" style="fill: none; stroke: #1f77b4; stroke-width: 1.5"/>
    <path d="M 359.21358 46.445066 
L 359.21358 41.37212 
" clip-path="url(#pbd9078412d)" style="fill: none; stroke: #1f77b4; stroke-width: 1.5"/>
    <path d="M 360.228125 50.397702 
L 360.228125 45.38242 
" clip-path="url(#pbd9078412d)" style="fill: none; stroke: #1f77b4; stroke-width: 1.5"/>
    <path d="M 361.24267 51.340483 
L 361.24267 46.339054 
" clip-path="url(#pbd9078412d)" style="fill: none; stroke: #1f77b4; stroke-width: 1.5"/>
    <path d="M 362.257216 47.931876 
L 362.257216 42.880543 
" clip-path="url(#pbd9078412d)" style="fill: none; stroke: #1f77b4; stroke-width: 1.5"/>
    <path d="M 363.271761 57.286808 
L 363.271761 52.373659 
" clip-path="url(#pbd9078412d)" style="fill: none; stroke: #1f77b4; stroke-width: 1.5"/>
    <path d="M 364.286307 53.624835 
L 364.286307 48.657132 
" clip-path="url(#pbd9078412d)" style="fill: none; stroke: #1f77b4; stroke-width: 1.5"/>
    <path d="M 365.300852 60.005897 
L 365.300852 55.133653 
" clip-path="url(#pbd9078412d)" style="fill: none; stroke: #1f77b4; stroke-width: 1.5"/>
    <path d="M 366.315398 63.159823 
L 366.315398 58.335463 
" clip-path="url(#pbd9078412d)" style="fill: none; stroke: #1f77b4; stroke-width: 1.5"/>
    <path d="M 367.329943 58.084425 
L 367.329943 53.183239 
" clip-path="url(#pbd9078412d)" style="fill: none; stroke: #1f77b4; stroke-width: 1.5"/>
    <path d="M 368.344489 58.156935 
L 368.344489 53.256838 
" clip-path="url(#pbd9078412d)" style="fill: none; stroke: #1f77b4; stroke-width: 1.5"/>
    <path d="M 369.359034 61.274746 
L 369.359034 56.421709 
" clip-path="url(#pbd9078412d)" style="fill: none; stroke: #1f77b4; stroke-width: 1.5"/>
    <path d="M 370.37358 61.709772 
L 370.37358 56.863337 
" clip-path="url(#pbd9078412d)" style="fill: none; stroke: #1f77b4; stroke-width: 1.5"/>
    <path d="M 371.388125 61.963534 
L 371.388125 57.120955 
" clip-path="url(#pbd9078412d)" style="fill: none; stroke: #1f77b4; stroke-width: 1.5"/>
    <path d="M 372.40267 67.690904 
L 372.40267 62.936188 
" clip-path="url(#pbd9078412d)" style="fill: none; stroke: #1f77b4; stroke-width: 1.5"/>
   </g>
   <g id="patch_3">
    <path d="M 53.328125 228.96 
L 53.328125 7.2 
" style="fill: none; stroke: #000000; stroke-width: 0.8; stroke-linejoin: miter; stroke-linecap: square"/>
   </g>
   <g id="patch_4">
    <path d="M 388.128125 228.96 
L 388.128125 7.2 
" style="fill: none; stroke: #000000; stroke-width: 0.8; stroke-linejoin: miter; stroke-linecap: square"/>
   </g>
   <g id="patch_5">
    <path d="M 53.328125 228.96 
L 388.128125 228.96 
" style="fill: none; stroke: #000000; stroke-width: 0.8; stroke-linejoin: miter; stroke-linecap: square"/>
   </g>
   <g id="patch_6">
    <path d="M 53.328125 7.2 
L 388.128125 7.2 
" style="fill: none; stroke: #000000; stroke-width: 0.8; stroke-linejoin: miter; stroke-linecap: square"/>
   </g>
  </g>
 </g>
 <defs>
  <clipPath id="pbd9078412d">
   <rect x="53.328125" y="7.2" width="334.8" height="221.76"/>
  </clipPath>
 </defs>
</svg>
