<?xml version="1.0" encoding="UTF-8" standalone="no"?>
<!DOCTYPE svg PUBLIC "-//W3C//DTD SVG 1.1//EN"
 "http://www.w3.org/Graphics/SVG/1.1/DTD/svg11.dtd">
<!-- Generated by graphviz version 2.49.0 (20210829.0051)
 -->
<!-- Pages: 1 -->
<svg width="556pt" height="385pt"
 viewBox="0.00 0.00 556.00 385.00" xmlns="http://www.w3.org/2000/svg" xmlns:xlink="http://www.w3.org/1999/xlink">
<g id="graph0" class="graph" transform="scale(1 1) rotate(0) translate(4 381)">
<polygon fill="white" stroke="transparent" points="-4,4 -4,-381 552,-381 552,4 -4,4"/>
<!-- source_chopper_1 -->
<g id="node1" class="node">
<title>source_chopper_1</title>
<polygon fill="none" stroke="black" points="144,-377 0,-377 0,-354 144,-354 144,-377"/>
<text text-anchor="middle" x="72" y="-361.8" font-family="Times,serif" font-size="14.00">source_chopper_1</text>
</g>
<!-- incident_beam -->
<g id="node2" class="node">
<title>incident_beam</title>
<polygon fill="none" stroke="black" points="294,-318 174,-318 174,-295 294,-295 294,-318"/>
<text text-anchor="middle" x="234" y="-302.8" font-family="Times,serif" font-size="14.00">incident_beam</text>
</g>
<!-- source_chopper_1&#45;&gt;incident_beam -->
<g id="edge1" class="edge">
<title>source_chopper_1&#45;&gt;incident_beam</title>
<path fill="none" stroke="black" d="M102.09,-353.91C128.12,-344.75 165.94,-331.45 194.42,-321.43"/>
<polygon fill="black" stroke="black" points="195.8,-324.65 204.07,-318.03 193.48,-318.05 195.8,-324.65"/>
</g>
<!-- L1 -->
<g id="node7" class="node">
<title>L1</title>
<polygon fill="none" stroke="black" points="257,-259 203,-259 203,-236 257,-236 257,-259"/>
<text text-anchor="middle" x="230" y="-243.8" font-family="Times,serif" font-size="14.00">L1</text>
</g>
<!-- incident_beam&#45;&gt;L1 -->
<g id="edge6" class="edge">
<title>incident_beam&#45;&gt;L1</title>
<path fill="none" stroke="black" d="M233.25,-294.78C232.74,-287.61 232.07,-277.95 231.46,-269.31"/>
<polygon fill="black" stroke="black" points="234.94,-268.9 230.75,-259.17 227.96,-269.39 234.94,-268.9"/>
</g>
<!-- theta -->
<g id="node13" class="node">
<title>theta</title>
<polygon fill="none" stroke="black" points="344,-82 290,-82 290,-59 344,-59 344,-82"/>
<text text-anchor="middle" x="317" y="-66.8" font-family="Times,serif" font-size="14.00">theta</text>
</g>
<!-- incident_beam&#45;&gt;theta -->
<g id="edge14" class="edge">
<title>incident_beam&#45;&gt;theta</title>
<path fill="none" stroke="black" d="M244.74,-294.79C268.49,-270.25 324.97,-206.93 345,-141 350.34,-123.44 341.28,-104.12 332.08,-90.32"/>
<polygon fill="black" stroke="black" points="334.86,-88.18 326.17,-82.12 329.18,-92.28 334.86,-88.18"/>
</g>
<!-- source_chopper_2 -->
<g id="node3" class="node">
<title>source_chopper_2</title>
<polygon fill="none" stroke="black" points="306,-377 162,-377 162,-354 306,-354 306,-377"/>
<text text-anchor="middle" x="234" y="-361.8" font-family="Times,serif" font-size="14.00">source_chopper_2</text>
</g>
<!-- source_chopper_2&#45;&gt;incident_beam -->
<g id="edge2" class="edge">
<title>source_chopper_2&#45;&gt;incident_beam</title>
<path fill="none" stroke="black" d="M234,-353.78C234,-346.61 234,-336.95 234,-328.31"/>
<polygon fill="black" stroke="black" points="237.5,-328.17 234,-318.17 230.5,-328.17 237.5,-328.17"/>
</g>
<!-- sample_position -->
<g id="node4" class="node">
<title>sample_position</title>
<polygon fill="none" stroke="black" points="455.5,-377 324.5,-377 324.5,-354 455.5,-354 455.5,-377"/>
<text text-anchor="middle" x="390" y="-361.8" font-family="Times,serif" font-size="14.00">sample_position</text>
</g>
<!-- sample_position&#45;&gt;incident_beam -->
<g id="edge3" class="edge">
<title>sample_position&#45;&gt;incident_beam</title>
<path fill="none" stroke="black" d="M361.02,-353.91C336.07,-344.79 299.85,-331.56 272.47,-321.56"/>
<polygon fill="black" stroke="black" points="273.42,-318.18 262.82,-318.03 271.01,-324.75 273.42,-318.18"/>
</g>
<!-- scattered_beam -->
<g id="node6" class="node">
<title>scattered_beam</title>
<polygon fill="none" stroke="black" points="470,-318 340,-318 340,-295 470,-295 470,-318"/>
<text text-anchor="middle" x="405" y="-302.8" font-family="Times,serif" font-size="14.00">scattered_beam</text>
</g>
<!-- sample_position&#45;&gt;scattered_beam -->
<g id="edge5" class="edge">
<title>sample_position&#45;&gt;scattered_beam</title>
<path fill="none" stroke="black" d="M392.82,-353.78C394.73,-346.53 397.31,-336.74 399.6,-328.02"/>
<polygon fill="black" stroke="black" points="403.03,-328.73 402.19,-318.17 396.26,-326.95 403.03,-328.73"/>
</g>
<!-- position -->
<g id="node5" class="node">
<title>position</title>
<polygon fill="none" stroke="black" points="548,-377 474,-377 474,-354 548,-354 548,-377"/>
<text text-anchor="middle" x="511" y="-361.8" font-family="Times,serif" font-size="14.00">position</text>
</g>
<!-- position&#45;&gt;scattered_beam -->
<g id="edge4" class="edge">
<title>position&#45;&gt;scattered_beam</title>
<path fill="none" stroke="black" d="M491.06,-353.78C474.92,-345.1 451.98,-332.76 433.84,-323.01"/>
<polygon fill="black" stroke="black" points="435.31,-319.83 424.85,-318.17 432,-325.99 435.31,-319.83"/>
</g>
<!-- L2 -->
<g id="node8" class="node">
<title>L2</title>
<polygon fill="none" stroke="black" points="392,-259 338,-259 338,-236 392,-236 392,-259"/>
<text text-anchor="middle" x="365" y="-243.8" font-family="Times,serif" font-size="14.00">L2</text>
</g>
<!-- scattered_beam&#45;&gt;L2 -->
<g id="edge7" class="edge">
<title>scattered_beam&#45;&gt;L2</title>
<path fill="none" stroke="black" d="M397.48,-294.78C392.11,-287.14 384.76,-276.65 378.4,-267.6"/>
<polygon fill="black" stroke="black" points="381.1,-265.35 372.49,-259.17 375.37,-269.37 381.1,-265.35"/>
</g>
<!-- scattered_beam&#45;&gt;theta -->
<g id="edge15" class="edge">
<title>scattered_beam&#45;&gt;theta</title>
<path fill="none" stroke="black" d="M405.32,-294.54C405.51,-280.74 405.12,-256.37 401,-236 389.96,-181.44 387.54,-165.8 359,-118 352.89,-107.77 344.33,-97.79 336.52,-89.71"/>
<polygon fill="black" stroke="black" points="338.65,-86.89 329.09,-82.32 333.72,-91.86 338.65,-86.89"/>
</g>
<!-- Ltotal -->
<g id="node9" class="node">
<title>Ltotal</title>
<polygon fill="none" stroke="black" points="197.5,-200 138.5,-200 138.5,-177 197.5,-177 197.5,-200"/>
<text text-anchor="middle" x="168" y="-184.8" font-family="Times,serif" font-size="14.00">Ltotal</text>
</g>
<!-- L1&#45;&gt;Ltotal -->
<g id="edge8" class="edge">
<title>L1&#45;&gt;Ltotal</title>
<path fill="none" stroke="black" d="M218.34,-235.78C209.59,-227.74 197.43,-216.55 187.25,-207.19"/>
<polygon fill="black" stroke="black" points="189.34,-204.36 179.61,-200.17 184.6,-209.52 189.34,-204.36"/>
</g>
<!-- L2&#45;&gt;Ltotal -->
<g id="edge9" class="edge">
<title>L2&#45;&gt;Ltotal</title>
<path fill="none" stroke="black" d="M337.61,-238.57C303.83,-228.8 246.18,-212.12 207.59,-200.96"/>
<polygon fill="black" stroke="black" points="208.31,-197.52 197.73,-198.1 206.37,-204.24 208.31,-197.52"/>
</g>
<!-- wavelength -->
<g id="node11" class="node">
<title>wavelength</title>
<polygon fill="none" stroke="black" points="186.5,-141 87.5,-141 87.5,-118 186.5,-118 186.5,-141"/>
<text text-anchor="middle" x="137" y="-125.8" font-family="Times,serif" font-size="14.00">wavelength</text>
</g>
<!-- Ltotal&#45;&gt;wavelength -->
<g id="edge11" class="edge">
<title>Ltotal&#45;&gt;wavelength</title>
<path fill="none" stroke="black" d="M162.17,-176.78C158.1,-169.29 152.55,-159.09 147.69,-150.16"/>
<polygon fill="black" stroke="black" points="150.66,-148.29 142.8,-141.17 144.51,-151.63 150.66,-148.29"/>
</g>
<!-- tof -->
<g id="node10" class="node">
<title>tof</title>
<polygon fill="none" stroke="black" points="270,-200 216,-200 216,-177 270,-177 270,-200"/>
<text text-anchor="middle" x="243" y="-184.8" font-family="Times,serif" font-size="14.00">tof</text>
</g>
<!-- tof&#45;&gt;wavelength -->
<g id="edge10" class="edge">
<title>tof&#45;&gt;wavelength</title>
<path fill="none" stroke="black" d="M223.06,-176.78C206.92,-168.1 183.98,-155.76 165.84,-146.01"/>
<polygon fill="black" stroke="black" points="167.31,-142.83 156.85,-141.17 164,-148.99 167.31,-142.83"/>
</g>
<!-- wavelength&#45;&gt;theta -->
<g id="edge13" class="edge">
<title>wavelength&#45;&gt;theta</title>
<path fill="none" stroke="black" d="M170.43,-117.91C201.53,-108.06 247.79,-93.42 279.99,-83.22"/>
<polygon fill="black" stroke="black" points="281.44,-86.43 289.91,-80.08 279.32,-79.76 281.44,-86.43"/>
</g>
<!-- Q -->
<g id="node15" class="node">
<title>Q</title>
<polygon fill="none" stroke="black" points="277,-23 223,-23 223,0 277,0 277,-23"/>
<text text-anchor="middle" x="250" y="-7.8" font-family="Times,serif" font-size="14.00">Q</text>
</g>
<!-- wavelength&#45;&gt;Q -->
<g id="edge17" class="edge">
<title>wavelength&#45;&gt;Q</title>
<path fill="none" stroke="black" d="M147.43,-117.79C166.85,-97.85 208.76,-54.84 232.56,-30.41"/>
<polygon fill="black" stroke="black" points="235.13,-32.78 239.6,-23.18 230.11,-27.9 235.13,-32.78"/>
</g>
<!-- gravity -->
<g id="node12" class="node">
<title>gravity</title>
<polygon fill="none" stroke="black" points="516,-141 448,-141 448,-118 516,-118 516,-141"/>
<text text-anchor="middle" x="482" y="-125.8" font-family="Times,serif" font-size="14.00">gravity</text>
</g>
<!-- gravity&#45;&gt;theta -->
<g id="edge12" class="edge">
<title>gravity&#45;&gt;theta</title>
<path fill="none" stroke="black" d="M451.35,-117.91C423.72,-108.37 383.04,-94.31 353.69,-84.17"/>
<polygon fill="black" stroke="black" points="354.8,-80.85 344.2,-80.9 352.51,-87.47 354.8,-80.85"/>
</g>
<!-- theta&#45;&gt;Q -->
<g id="edge18" class="edge">
<title>theta&#45;&gt;Q</title>
<path fill="none" stroke="black" d="M304.4,-58.78C294.85,-50.66 281.54,-39.33 270.47,-29.92"/>
<polygon fill="black" stroke="black" points="272.43,-26.99 262.55,-23.17 267.89,-32.32 272.43,-26.99"/>
</g>
<!-- sample_rotation -->
<g id="node14" class="node">
<title>sample_rotation</title>
<polygon fill="none" stroke="black" points="335.5,-141 204.5,-141 204.5,-118 335.5,-118 335.5,-141"/>
<text text-anchor="middle" x="270" y="-125.8" font-family="Times,serif" font-size="14.00">sample_rotation</text>
</g>
<!-- sample_rotation&#45;&gt;theta -->
<g id="edge16" class="edge">
<title>sample_rotation&#45;&gt;theta</title>
<path fill="none" stroke="black" d="M278.84,-117.78C285.27,-109.98 294.15,-99.21 301.72,-90.03"/>
<polygon fill="black" stroke="black" points="304.54,-92.12 308.2,-82.17 299.14,-87.66 304.54,-92.12"/>
</g>
</g>
</svg>
