<?xml version="1.0" encoding="UTF-8" standalone="no"?>
<!-- Created with Inkscape (http://www.inkscape.org/) -->

<svg
   width="208.17397mm"
   height="41.93195mm"
   viewBox="0 0 208.17398 41.93195"
   version="1.1"
   id="svg8"
   xmlns="http://www.w3.org/2000/svg"
   xmlns:svg="http://www.w3.org/2000/svg"
   xmlns:rdf="http://www.w3.org/1999/02/22-rdf-syntax-ns#"
   xmlns:cc="http://creativecommons.org/ns#"
   xmlns:dc="http://purl.org/dc/elements/1.1/">
  <defs
     id="defs2">
    <rect
       x="-197.65958"
       y="211.67747"
       width="1288.5021"
       height="366.45435"
       id="rect10136" />
    <rect
       x="-197.65958"
       y="211.67747"
       width="1288.5021"
       height="366.45435"
       id="rect11574" />
  </defs>
  <metadata
     id="metadata5">
    <rdf:RDF>
      <cc:Work
         rdf:about="">
        <dc:format>image/svg+xml</dc:format>
        <dc:type
           rdf:resource="http://purl.org/dc/dcmitype/StillImage" />
      </cc:Work>
    </rdf:RDF>
  </metadata>
  <g
     id="g2">
    <path
       id="path8254"
       style="fill:#f9f9f9;fill-opacity:1;fill-rule:evenodd;stroke:none;stroke-width:0.0700042px;stroke-linecap:butt;stroke-linejoin:miter;stroke-opacity:1"
       d="M 17.926502,6.2e-5 11.915295,3.47087 a 0.91643846,0.91643846 0 0 1 -0.916517,-2e-5 L 9.317628,2.50008 a 0.9162711,0.9162711 0 0 0 -0.916475,5e-5 L 5.655488,4.08603 A 0.91674198,0.91674198 0 0 0 5.197266,4.87987 V 6.81958 A 0.9167438,0.9167438 0 0 1 4.739044,7.61342 L 0.458222,10.08603 A 0.9167438,0.9167438 0 0 0 0,10.87987 v 18.0569 2.11523 a 0.91692071,0.91692071 0 0 0 0.458177,0.79392 l 0.915677,0.5291 a 2286.8691,2286.8691 0 0 0 0.916477,0.52928 l 1.979885,1.1428 a 0.3055521,0.3055521 0 0 0 0.4583,-0.26463 v -1.4026 A 0.91721489,0.91721489 0 0 0 4.270412,31.58583 L 2.588964,30.61362 A 0.91721489,0.91721489 0 0 1 2.13086,29.81958 V 12.11229 a 0.91688301,0.91688301 0 0 1 0.458187,-0.7939 L 5.803532,9.46113 a 0.91613021,0.91613021 0 0 1 0.91644,-1.1e-4 l 1.68115,0.97077 a 0.91651552,0.91651552 0 0 0 0.916536,5e-5 L 12.065155,8.84573 A 0.91649747,0.91649747 0 0 0 12.523438,8.052 V 6.11229 a 0.91690648,0.91690648 0 0 1 0.458181,-0.79391 l 4.944966,-2.85724 a 0.916451,0.916451 0 0 1 0.91652,-2.7e-4 l 1.682931,0.97107 a 0.91673323,0.91673323 0 0 0 0.916591,-1.5e-4 L 22.656983,2.73055 A 0.30550399,0.30550399 0 0 0 22.656935,2.2014 L 18.843066,0 A 0.91662478,0.91662478 0 0 0 17.926502,6.2e-5 Z M 9.31745,4.96133 9.934503,5.3182 a 0.91733263,0.91733263 0 0 1 0.458075,0.79409 V 6.81958 A 0.91733263,0.91733263 0 0 1 9.934503,7.61367 L 9.31745,7.97054 a 0.91496847,0.91496847 0 0 1 -0.91615,0 L 7.784247,7.61367 A 0.91733263,0.91733263 0 0 1 7.326172,6.81958 V 6.11229 A 0.91733263,0.91733263 0 0 1 7.784247,5.3182 L 8.4013,4.96133 a 0.91496847,0.91496847 0 0 1 0.91615,0 z M 26.5886,5.00003 9.118432,15.08611 a 0.91652881,0.91652881 0 0 0 -0.458275,0.79374 v 5.93972 a 0.91721471,0.91721471 0 0 1 -0.458104,0.79404 l -1.681449,0.9722 A 0.91721471,0.91721471 0 0 0 6.0625,24.37985 v 3.17214 a 0.91721471,0.91721471 0 0 0 0.458104,0.79404 l 1.681449,0.9722 a 0.91721471,0.91721471 0 0 1 0.458104,0.79405 v 5.93971 a 0.91692071,0.91692071 0 0 0 0.458177,0.79391 l 0.915677,0.5291 a 2863.0058,2863.0058 0 0 0 0.916452,0.52933 l 6.976028,4.02748 a 0.91689642,0.91689642 0 0 0 0.916631,1.4e-4 l 0.149694,-0.0864 a 0.91620508,0.91620508 0 0 0 0.458356,-0.7936 V 22.11224 a 0.91676162,0.91676162 0 0 1 0.458217,-0.79385 l 5.612863,-3.24212 a 0.30544185,0.30544185 0 0 1 0.458217,0.26448 v 18.94167 a 0.30548758,0.30548758 0 0 0 0.458252,0.26455 l 1.214355,-0.70123 a 0.91662439,0.91662439 0 0 0 0.458252,-0.79379 V 15.88177 a 0.91765905,0.91765905 0 0 0 -0.457993,-0.79423 l -0.15042,-0.0871 a 0.91537068,0.91537068 0 0 0 -0.91625,-4.6e-4 L 17.77857,20.086 a 0.91660309,0.91660309 0 0 0 -0.458257,0.79377 v 17.7112 a 0.30544185,0.30544185 0 0 1 -0.458217,0.26449 L 11.249233,35.61333 A 0.91676162,0.91676162 0 0 1 10.791016,34.81949 V 30.1122 a 0.91721489,0.91721489 0 0 1 0.458104,-0.79404 l 1.681448,-0.97221 a 0.91721489,0.91721489 0 0 0 0.458104,-0.79404 V 24.37978 A 0.91721489,0.91721489 0 0 0 12.930568,23.58574 L 11.24912,22.61353 A 0.91721489,0.91721489 0 0 1 10.791016,21.81949 V 17.1122 A 0.9166131,0.9166131 0 0 1 11.24927,16.31842 L 28.719481,6.23055 a 0.30556457,0.30556457 0 0 0 2e-6,-0.52923 L 27.505127,5.00008 a 0.9164777,0.9164777 0 0 0 -0.916527,-4e-5 z m 6.062419,3.49986 -1.2161,0.70159 a 0.30552722,0.30552722 0 0 0 -1.79e-4,0.52919 l 2.747708,1.58769 a 0.91692071,0.91692071 0 0 1 0.458177,0.79392 v 5.70729 a 0.91721489,0.91721489 0 0 1 -0.458104,0.79404 l -1.681448,0.9722 a 0.91721489,0.91721489 0 0 0 -0.458104,0.79405 v 3.17213 a 0.91721489,0.91721489 0 0 0 0.458104,0.79404 l 1.681448,0.97221 a 0.91721489,0.91721489 0 0 1 0.458104,0.79404 v 3.70729 a 0.91721489,0.91721489 0 0 1 -0.458104,0.79404 l -1.681448,0.97221 a 0.91721489,0.91721489 0 0 0 -0.458104,0.79404 v 1.4026 a 0.30548884,0.30548884 0 0 0 0.458253,0.26455 l 3.81201,-2.20123 a 0.91662061,0.91662061 0 0 0 0.458253,-0.79379 v -4.93971 a 0.91721489,0.91721489 0 0 1 0.458104,-0.79404 l 1.681448,-0.97221 a 0.91721489,0.91721489 0 0 0 0.458104,-0.79404 v -3.17213 a 0.91721489,0.91721489 0 0 0 -0.458104,-0.79404 l -1.681448,-0.97221 a 0.91721489,0.91721489 0 0 1 -0.458104,-0.79404 v -6.93971 a 0.91674185,0.91674185 0 0 0 -0.458222,-0.79384 l -2.745666,-1.5859 a 0.91668426,0.91668426 0 0 0 -0.916578,-2.3e-4 z m 3.512134,11.96142 0.617053,0.35687 a 0.91733263,0.91733263 0 0 1 0.458075,0.7941 v 0.70729 a 0.91733263,0.91733263 0 0 1 -0.458075,0.79409 l -0.617053,0.35687 a 0.91438545,0.91438545 0 0 1 -0.916003,-2.6e-4 l -0.615394,-0.35636 a 0.91791847,0.91791847 0 0 1 -0.457928,-0.79434 v -0.70729 a 0.91791847,0.91791847 0 0 1 0.457928,-0.79435 l 0.615394,-0.35636 a 0.91438545,0.91438545 0 0 1 0.916003,-2.5e-4 z m -25.980468,4 0.617053,0.35687 a 0.91733263,0.91733263 0 0 1 0.458075,0.7941 v 0.70729 a 0.91733263,0.91733263 0 0 1 -0.458075,0.79409 l -0.617053,0.35687 a 0.91496847,0.91496847 0 0 1 -0.91615,0 L 8.649482,27.11366 A 0.91733263,0.91733263 0 0 1 8.191407,26.31957 v -0.70729 a 0.91733263,0.91733263 0 0 1 0.458075,-0.7941 l 0.617053,-0.35687 a 0.91496847,0.91496847 0 0 1 0.91615,0 z" />
    <g
       id="text8262"
       style="font-size:35.2778px;line-height:16.5364px;font-family:Lato;-inkscape-font-specification:Lato;letter-spacing:0px;word-spacing:0px;fill:#f9f9f9;stroke-width:0.264583px"
       aria-label="essreduce">
      <path
         style="font-weight:bold;-inkscape-font-specification:'Lato Bold'"
         d="m 65.49289,13.095825 q 1.710974,0 3.139724,0.546806 1.44639,0.546805 2.487085,1.60514 1.040696,1.040695 1.622779,2.575279 0.582084,1.516946 0.582084,3.474863 0,0.49389 -0.05292,0.829029 -0.03528,0.3175 -0.15875,0.511528 -0.105833,0.176389 -0.299861,0.264583 -0.194028,0.07056 -0.493889,0.07056 h -11.18306 q 0.194028,2.786946 1.499306,4.092225 1.305279,1.305279 3.457225,1.305279 1.058334,0 1.816807,-0.246945 0.776111,-0.246945 1.340556,-0.546806 0.582084,-0.299861 1.005417,-0.546806 0.440973,-0.246944 0.846668,-0.246944 0.264583,0 0.458611,0.105833 0.194028,0.105833 0.335139,0.299861 l 1.270001,1.587501 q -0.723195,0.846668 -1.622779,1.428751 -0.899584,0.564445 -1.887362,0.917223 -0.97014,0.335139 -1.993196,0.476251 -1.005417,0.141111 -1.957918,0.141111 -1.887362,0 -3.510141,-0.617362 -1.622779,-0.635 -2.822224,-1.852084 -1.199446,-1.234723 -1.887363,-3.033891 -0.687917,-1.816807 -0.687917,-4.198059 0,-1.852084 0.599723,-3.474863 0.599722,-1.640418 1.710973,-2.839863 1.12889,-1.217084 2.73403,-1.92264 1.622779,-0.705556 3.651252,-0.705556 z m 0.08819,3.122085 q -1.905002,0 -2.980975,1.075973 -1.075973,1.075973 -1.375834,3.05153 h 8.18445 q 0,-0.846667 -0.229306,-1.587501 Q 68.95011,17.999439 68.473859,17.434994 67.997609,16.870549 67.274414,16.553049 66.551219,16.21791 65.58108,16.21791 Z m 22.030991,0.687917 q -0.176389,0.282223 -0.370417,0.405695 -0.194028,0.105833 -0.493889,0.105833 -0.3175,0 -0.687917,-0.176389 -0.352778,-0.176389 -0.829028,-0.388055 -0.476251,-0.229306 -1.093612,-0.405695 -0.599723,-0.176389 -1.428751,-0.176389 -1.28764,0 -2.028474,0.546806 -0.740834,0.546806 -0.740834,1.428751 0,0.582083 0.370417,0.987778 0.388056,0.388056 1.005418,0.687917 0.635,0.299862 1.428751,0.546806 0.79375,0.229306 1.622778,0.511528 0.829029,0.282223 1.622779,0.65264 0.793751,0.352778 1.411112,0.917222 0.635001,0.546806 1.005418,1.322918 0.388056,0.776112 0.388056,1.869723 0,1.305279 -0.476251,2.41653 -0.47625,1.093612 -1.393473,1.905001 -0.917223,0.793751 -2.275418,1.252362 -1.340557,0.440973 -3.086808,0.440973 -0.934861,0 -1.834445,-0.176389 -0.881945,-0.15875 -1.710974,-0.458612 -0.811384,-0.299861 -1.51694,-0.705556 -0.687917,-0.405695 -1.217084,-0.881945 l 1.005417,-1.658057 q 0.194028,-0.299861 0.458611,-0.458611 0.264584,-0.15875 0.670279,-0.15875 0.405694,0 0.758472,0.229306 0.370417,0.229305 0.846668,0.493889 0.47625,0.264583 1.11125,0.493889 0.65264,0.229306 1.640418,0.229306 0.776112,0 1.322918,-0.176389 0.564444,-0.194028 0.917222,-0.493889 0.370417,-0.299862 0.529168,-0.687918 0.176389,-0.405694 0.176389,-0.829028 0,-0.635 -0.388056,-1.040695 -0.370417,-0.405695 -1.005418,-0.705556 -0.617361,-0.299861 -1.428751,-0.529167 -0.79375,-0.246945 -1.640417,-0.529167 -0.829029,-0.282223 -1.640418,-0.652639 -0.793751,-0.388056 -1.428751,-0.97014 -0.617362,-0.582084 -1.005417,-1.428751 -0.370417,-0.846667 -0.370417,-2.046112 0,-1.111251 0.440972,-2.116669 0.440973,-1.005417 1.28764,-1.746251 0.864306,-0.758472 2.134307,-1.199445 1.28764,-0.458611 2.963335,-0.458611 1.869724,0 3.404308,0.617361 1.534584,0.617362 2.557641,1.622779 z m 15.416419,0 q -0.17639,0.282223 -0.37042,0.405695 -0.19403,0.105833 -0.49389,0.105833 -0.3175,0 -0.68792,-0.176389 -0.35277,-0.176389 -0.82902,-0.388055 -0.47626,-0.229306 -1.093622,-0.405695 -0.599722,-0.176389 -1.428751,-0.176389 -1.287639,0 -2.028473,0.546806 -0.740834,0.546806 -0.740834,1.428751 0,0.582083 0.370417,0.987778 0.388056,0.388056 1.005417,0.687917 0.635001,0.299862 1.428751,0.546806 0.793751,0.229306 1.622779,0.511528 0.829026,0.282223 1.622776,0.65264 0.79376,0.352778 1.41111,0.917222 0.635,0.546806 1.00542,1.322918 0.38806,0.776112 0.38806,1.869723 0,1.305279 -0.47625,2.41653 -0.47625,1.093612 -1.39347,1.905001 -0.91722,0.793751 -2.27542,1.252362 -1.34056,0.440973 -3.086811,0.440973 -0.934862,0 -1.834446,-0.176389 Q 94.261948,31.422643 93.43292,31.122781 92.62153,30.82292 91.915974,30.417225 91.228057,30.01153 90.69889,29.53528 l 1.005417,-1.658057 q 0.194028,-0.299861 0.458612,-0.458611 0.264583,-0.15875 0.670278,-0.15875 0.405695,0 0.758473,0.229306 0.370417,0.229305 0.846667,0.493889 0.47625,0.264583 1.111251,0.493889 0.652639,0.229306 1.640418,0.229306 0.776111,0 1.322917,-0.176389 0.564445,-0.194028 0.917223,-0.493889 0.370417,-0.299862 0.529167,-0.687918 0.176397,-0.405694 0.176397,-0.829028 0,-0.635 -0.388064,-1.040695 -0.370417,-0.405695 -1.005417,-0.705556 -0.617362,-0.299861 -1.428751,-0.529167 -0.793751,-0.246945 -1.640418,-0.529167 -0.829028,-0.282223 -1.640418,-0.652639 -0.79375,-0.388056 -1.428751,-0.97014 -0.617361,-0.582084 -1.005417,-1.428751 -0.370417,-0.846667 -0.370417,-2.046112 0,-1.111251 0.440973,-2.116669 0.440972,-1.005417 1.287639,-1.746251 0.864306,-0.758472 2.134307,-1.199445 1.28764,-0.458611 2.963336,-0.458611 1.869723,0 3.404308,0.617361 1.53459,0.617362 2.55765,1.622779 z"
         id="path1" />
      <path
         style="font-weight:300;-inkscape-font-specification:'Lato Light'"
         d="M 108.23197,31.475559 V 13.924853 h 0.88194 q 0.29986,0 0.42334,0.123472 0.14111,0.123473 0.15875,0.423334 l 0.14111,3.704169 q 0.84667,-2.134307 2.25778,-3.333752 1.41111,-1.217084 3.47486,-1.217084 0.79375,0 1.46403,0.176389 0.67028,0.15875 1.27,0.47625 l -0.22931,1.164167 q -0.0529,0.282223 -0.35277,0.282223 -0.10584,0 -0.29986,-0.07056 -0.19403,-0.07056 -0.49389,-0.15875 -0.28223,-0.08819 -0.70556,-0.15875 -0.42333,-0.07056 -0.97014,-0.07056 -1.9932,0 -3.28084,1.234723 -1.27,1.234724 -2.06375,3.563058 v 11.412369 z m 20.61985,-17.832928 q 1.48167,0 2.73403,0.511528 1.27,0.511528 2.18722,1.499306 0.93486,0.97014 1.44639,2.398891 0.52917,1.428751 0.52917,3.280835 0,0.388056 -0.12347,0.529167 -0.10584,0.141112 -0.35278,0.141112 h -12.68237 v 0.335139 q 0,1.975557 0.45861,3.474863 0.45861,1.499307 1.30528,2.522363 0.84667,1.005417 2.04611,1.516945 1.19945,0.511528 2.68112,0.511528 1.32291,0 2.29305,-0.282222 0.97014,-0.299861 1.62278,-0.652639 0.67028,-0.370417 1.05834,-0.65264 0.38805,-0.299861 0.56444,-0.299861 0.22931,0 0.35278,0.176389 l 0.45861,0.564445 q -0.42333,0.529167 -1.12889,0.987778 -0.68792,0.458612 -1.55222,0.793751 -0.84667,0.3175 -1.83445,0.511528 -0.97014,0.194028 -1.95792,0.194028 -1.79916,0 -3.28083,-0.617362 -1.48167,-0.635 -2.54,-1.834445 -1.05834,-1.199446 -1.64042,-2.928058 -0.56445,-1.746251 -0.56445,-3.986391 0,-1.887363 0.52917,-3.474864 0.54681,-1.60514 1.55222,-2.751668 1.02306,-1.164168 2.48709,-1.816807 1.48167,-0.652639 3.35139,-0.652639 z m 0.0176,1.252362 q -1.3582,0 -2.43417,0.423333 -1.07597,0.423334 -1.86972,1.217084 -0.77611,0.793751 -1.27,1.905002 -0.47625,1.11125 -0.635,2.487085 h 11.57111 q 0,-1.411112 -0.38805,-2.522363 -0.38806,-1.12889 -1.09361,-1.905002 -0.70556,-0.776111 -1.69334,-1.181806 -0.98778,-0.423333 -2.18722,-0.423333 z m 23.83014,16.580566 q -0.44097,0 -0.51152,-0.458611 l -0.17639,-2.769308 q -1.16417,1.587501 -2.73403,2.522363 -1.55223,0.934862 -3.4925,0.934862 -3.22792,0 -5.04473,-2.24014 -1.79917,-2.240141 -1.79917,-6.720422 0,-1.92264 0.49389,-3.580696 0.51153,-1.675696 1.48167,-2.89278 0.98778,-1.234723 2.39889,-1.940279 1.42875,-0.705556 3.28083,-0.705556 1.78153,0 3.08681,0.670278 1.30528,0.652639 2.25778,1.92264 V 5.8109586 h 1.69334 V 31.475559 Z m -6.43819,-1.128889 q 1.74625,0 3.15736,-0.899584 1.41111,-0.899584 2.52236,-2.504724 v -9.260423 q -1.02305,-1.499307 -2.25778,-2.116668 -1.21708,-0.617362 -2.76931,-0.617362 -1.55222,0 -2.71639,0.564445 -1.16416,0.564445 -1.95791,1.60514 -0.77612,1.023056 -1.18181,2.469446 -0.38806,1.428751 -0.38806,3.157363 0,3.915836 1.44639,5.767921 1.44639,1.834446 4.14515,1.834446 z m 14.5168,-16.421817 v 11.218341 q 0,2.469446 1.12889,3.880558 1.12889,1.393473 3.43958,1.393473 1.71098,0 3.19264,-0.864306 1.48167,-0.881945 2.66348,-2.434168 V 13.924853 h 1.69333 v 17.550706 h -0.93486 q -0.49389,0 -0.51153,-0.458611 l -0.15875,-2.610557 q -1.21708,1.516945 -2.82222,2.434168 -1.5875,0.917223 -3.54542,0.917223 -1.46403,0 -2.55764,-0.458612 -1.09361,-0.458611 -1.81681,-1.322917 -0.72319,-0.864306 -1.09361,-2.081391 -0.37042,-1.217084 -0.37042,-2.751668 V 13.924853 Z m 29.38642,2.345974 q -0.0882,0.08819 -0.17639,0.15875 -0.0706,0.05292 -0.21167,0.05292 -0.17639,0 -0.49389,-0.229306 -0.29986,-0.246945 -0.81139,-0.529167 -0.51152,-0.282223 -1.28764,-0.511528 -0.75847,-0.246945 -1.85208,-0.246945 -1.51695,0 -2.69875,0.546806 -1.16417,0.529167 -1.97556,1.534584 -0.79375,1.005418 -1.21708,2.434169 -0.42334,1.428751 -0.42334,3.21028 0,1.852084 0.42334,3.280835 0.44097,1.428751 1.23472,2.41653 0.79375,0.970139 1.92264,1.481667 1.12889,0.511528 2.50472,0.511528 1.27001,0 2.11667,-0.299861 0.86431,-0.299861 1.41111,-0.652639 0.56445,-0.352778 0.88195,-0.65264 0.33514,-0.299861 0.52917,-0.299861 0.2293,0 0.35277,0.176389 l 0.45862,0.564445 q -0.4057,0.529167 -1.02306,0.987778 -0.61736,0.458612 -1.39347,0.793751 -0.77612,0.335139 -1.69334,0.511528 -0.89958,0.194028 -1.88736,0.194028 -1.6757,0 -3.06917,-0.599723 -1.37583,-0.617361 -2.38125,-1.76389 -0.98778,-1.164167 -1.55222,-2.839863 -0.54681,-1.675695 -0.54681,-3.810002 0,-2.010835 0.52917,-3.668892 0.52916,-1.658056 1.53458,-2.857502 1.02306,-1.199445 2.48709,-1.852084 1.48166,-0.670278 3.38667,-0.670278 1.71097,0 3.03389,0.546805 1.34055,0.546806 2.32833,1.481668 z m 11.11251,-2.628196 q 1.48166,0 2.73403,0.511528 1.27,0.511528 2.18722,1.499306 0.93486,0.97014 1.44639,2.398891 0.52917,1.428751 0.52917,3.280835 0,0.388056 -0.12348,0.529167 -0.10583,0.141112 -0.35277,0.141112 h -12.68237 v 0.335139 q 0,1.975557 0.45861,3.474863 0.45861,1.499307 1.30528,2.522363 0.84666,1.005417 2.04611,1.516945 1.19944,0.511528 2.68111,0.511528 1.32292,0 2.29306,-0.282222 0.97014,-0.299861 1.62278,-0.652639 0.67028,-0.370417 1.05833,-0.65264 0.38806,-0.299861 0.56445,-0.299861 0.2293,0 0.35277,0.176389 l 0.45862,0.564445 q -0.42334,0.529167 -1.12889,0.987778 -0.68792,0.458612 -1.55223,0.793751 -0.84666,0.3175 -1.83444,0.511528 -0.97014,0.194028 -1.95792,0.194028 -1.79917,0 -3.28084,-0.617362 -1.48166,-0.635 -2.54,-1.834445 -1.05833,-1.199446 -1.64042,-2.928058 -0.56444,-1.746251 -0.56444,-3.986391 0,-1.887363 0.52917,-3.474864 0.5468,-1.60514 1.55222,-2.751668 1.02306,-1.164168 2.48708,-1.816807 1.48167,-0.652639 3.3514,-0.652639 z m 0.0176,1.252362 q -1.35819,0 -2.43416,0.423333 -1.07598,0.423334 -1.86973,1.217084 -0.77611,0.793751 -1.27,1.905002 -0.47625,1.11125 -0.635,2.487085 H 206.657 q 0,-1.411112 -0.38806,-2.522363 -0.38805,-1.12889 -1.09361,-1.905002 -0.70555,-0.776111 -1.69333,-1.181806 -0.98778,-0.423333 -2.18723,-0.423333 z"
         id="path2" />
    </g>
    <text
       xml:space="preserve"
       transform="matrix(0.26458333,0,0,0.26458333,-3.607878,-80.26964)"
       id="text10134"
       style="font-style:normal;font-weight:normal;font-size:40px;line-height:1.25;font-family:sans-serif;white-space:pre;shape-inside:url(#rect10136);display:inline;fill:#000000;fill-opacity:1;stroke:none" />
    <text
       xml:space="preserve"
       transform="matrix(0.26458333,0,0,0.26458333,-3.607878,-80.26964)"
       id="text11572"
       style="font-style:normal;font-weight:normal;font-size:40px;line-height:1.25;font-family:sans-serif;white-space:pre;shape-inside:url(#rect11574);display:inline;fill:#000000;fill-opacity:1;stroke:none" />
  </g>
</svg>
