<?xml version="1.0" encoding="UTF-8" standalone="no"?>
<!DOCTYPE svg PUBLIC "-//W3C//DTD SVG 1.1//EN"
 "http://www.w3.org/Graphics/SVG/1.1/DTD/svg11.dtd">
<!-- Generated by graphviz version 14.1.2 (20260126.1125)
 -->
<!-- Pages: 1 -->
<svg width="1159pt" height="277pt"
 viewBox="0.00 0.00 1159.00 277.00" xmlns="http://www.w3.org/2000/svg" xmlns:xlink="http://www.w3.org/1999/xlink">
<g id="graph0" class="graph" transform="scale(1 1) rotate(0) translate(4 272.98)">
<polygon fill="white" stroke="none" points="-4,4 -4,-272.98 1154.75,-272.98 1154.75,4 -4,4"/>
<!-- DiskChoppers[AnyRun] -->
<g id="node1" class="node">
<title>DiskChoppers[AnyRun]</title>
<polygon fill="none" stroke="black" points="181.75,-164.72 0,-164.72 0,-139.47 181.75,-139.47 181.75,-164.72"/>
<text xml:space="preserve" text-anchor="start" x="8" y="-147.42" font-family="Times,serif" font-size="14.00">DiskChoppers[AnyRun]</text>
</g>
<!-- SimulationResults[AnyRun] -->
<g id="node3" class="node">
<title>SimulationResults[AnyRun]</title>
<polygon fill="none" stroke="black" points="806.62,-150.6 565.62,-150.6 565.62,-117.6 806.62,-117.6 806.62,-150.6"/>
<text xml:space="preserve" text-anchor="start" x="587.88" y="-134.3" font-family="Times,serif" font-size="14.00">SimulationResults[AnyRun]</text>
<text xml:space="preserve" text-anchor="start" x="573.62" y="-123.15" font-family="Times,serif" font-size="11.00">via:</text>
<text xml:space="preserve" text-anchor="start" x="593.88" y="-123.15" font-family="Times,serif" font-style="italic" font-size="11.00">simulate_chopper_cascade_using_tof</text>
</g>
<!-- DiskChoppers[AnyRun]&#45;&gt;SimulationResults[AnyRun] -->
<g id="edge9" class="edge">
<title>DiskChoppers[AnyRun]:e&#45;&gt;SimulationResults[AnyRun]:w</title>
<path fill="none" stroke="black" d="M181.75,-152.1C230.92,-152.1 209.08,-215.55 253.75,-236.1 346.82,-278.9 392.08,-280.81 484.25,-236.1 532.43,-212.72 510.71,-144.93 553.41,-135.25"/>
<polygon fill="black" stroke="black" points="553.53,-138.76 563.12,-134.25 552.81,-131.79 553.53,-138.76"/>
</g>
<!-- PulseStride[AnyRun] -->
<g id="node8" class="node">
<title>PulseStride[AnyRun]</title>
<polygon fill="none" stroke="black" points="483.88,-61.6 254.12,-61.6 254.12,-28.6 483.88,-28.6 483.88,-61.6"/>
<text xml:space="preserve" text-anchor="start" x="294.38" y="-45.3" font-family="Times,serif" font-size="14.00">PulseStride[AnyRun]</text>
<text xml:space="preserve" text-anchor="start" x="262.12" y="-34.15" font-family="Times,serif" font-size="11.00">via:</text>
<text xml:space="preserve" text-anchor="start" x="282.38" y="-34.15" font-family="Times,serif" font-style="italic" font-size="11.00">guess_pulse_stride_from_choppers</text>
</g>
<!-- DiskChoppers[AnyRun]&#45;&gt;PulseStride[AnyRun] -->
<g id="edge7" class="edge">
<title>DiskChoppers[AnyRun]:e&#45;&gt;PulseStride[AnyRun]:w</title>
<path fill="none" stroke="black" d="M181.75,-152.1C234.82,-152.1 202.21,-60.39 242.56,-46.78"/>
<polygon fill="black" stroke="black" points="242.88,-50.27 252.25,-45.32 241.84,-43.34 242.88,-50.27"/>
</g>
<!-- DistanceResolution -->
<g id="node2" class="node">
<title>DistanceResolution</title>
<polygon fill="none" stroke="black" points="763.12,-179.72 609.12,-179.72 609.12,-154.47 763.12,-154.47 763.12,-179.72"/>
<text xml:space="preserve" text-anchor="start" x="617.12" y="-162.42" font-family="Times,serif" font-size="14.00">DistanceResolution</text>
</g>
<!-- LookupTable[AnyRun, NXdetector] -->
<g id="node4" class="node">
<title>LookupTable[AnyRun, NXdetector]</title>
<polygon fill="none" stroke="black" points="1150.75,-100.6 888,-100.6 888,-67.6 1150.75,-67.6 1150.75,-100.6"/>
<text xml:space="preserve" text-anchor="start" x="896" y="-84.3" font-family="Times,serif" font-size="14.00">LookupTable[AnyRun, NXdetector]</text>
<text xml:space="preserve" text-anchor="start" x="900.88" y="-73.15" font-family="Times,serif" font-size="11.00">via:</text>
<text xml:space="preserve" text-anchor="start" x="921.12" y="-73.15" font-family="Times,serif" font-style="italic" font-size="11.00">make_wavelength_lut_from_simulation</text>
</g>
<!-- DistanceResolution&#45;&gt;LookupTable[AnyRun, NXdetector] -->
<g id="edge3" class="edge">
<title>DistanceResolution:e&#45;&gt;LookupTable[AnyRun, NXdetector]:w</title>
<path fill="none" stroke="black" d="M764.12,-167.1C788.39,-167.1 795.06,-162.35 816,-150.1 849.81,-130.32 845.88,-92.49 876.69,-85.3"/>
<polygon fill="black" stroke="black" points="876.92,-88.79 886.49,-84.26 876.18,-81.83 876.92,-88.79"/>
</g>
<!-- SimulationResults[AnyRun]&#45;&gt;LookupTable[AnyRun, NXdetector] -->
<g id="edge1" class="edge">
<title>SimulationResults[AnyRun]:e&#45;&gt;LookupTable[AnyRun, NXdetector]:w</title>
<path fill="none" stroke="black" d="M807.62,-134.1C845.59,-134.1 846.23,-93.38 876.9,-85.43"/>
<polygon fill="black" stroke="black" points="876.99,-88.95 886.5,-84.28 876.15,-82 876.99,-88.95"/>
</g>
<!-- LtotalRange[AnyRun, NXdetector] -->
<g id="node5" class="node">
<title>LtotalRange[AnyRun, NXdetector]</title>
<polygon fill="none" stroke="black" points="816,-111.72 556.25,-111.72 556.25,-86.47 816,-86.47 816,-111.72"/>
<text xml:space="preserve" text-anchor="start" x="564.25" y="-94.42" font-family="Times,serif" font-size="14.00">LtotalRange[AnyRun, NXdetector]</text>
</g>
<!-- LtotalRange[AnyRun, NXdetector]&#45;&gt;LookupTable[AnyRun, NXdetector] -->
<g id="edge2" class="edge">
<title>LtotalRange[AnyRun, NXdetector]:e&#45;&gt;LookupTable[AnyRun, NXdetector]:w</title>
<path fill="none" stroke="black" d="M816,-99.1C844.47,-99.1 853.17,-87.71 876.55,-84.78"/>
<polygon fill="black" stroke="black" points="876.72,-88.28 886.49,-84.19 876.3,-81.29 876.72,-88.28"/>
</g>
<!-- TimeResolution -->
<g id="node6" class="node">
<title>TimeResolution</title>
<polygon fill="none" stroke="black" points="749.62,-82.72 622.62,-82.72 622.62,-57.47 749.62,-57.47 749.62,-82.72"/>
<text xml:space="preserve" text-anchor="start" x="630.62" y="-65.42" font-family="Times,serif" font-size="14.00">TimeResolution</text>
</g>
<!-- TimeResolution&#45;&gt;LookupTable[AnyRun, NXdetector] -->
<g id="edge4" class="edge">
<title>TimeResolution:e&#45;&gt;LookupTable[AnyRun, NXdetector]:w</title>
<path fill="none" stroke="black" d="M750.62,-70.1C808.04,-70.1 824.55,-82.35 876.69,-83.93"/>
<polygon fill="black" stroke="black" points="876.44,-87.43 886.49,-84.07 876.54,-80.43 876.44,-87.43"/>
</g>
<!-- PulsePeriod -->
<g id="node7" class="node">
<title>PulsePeriod</title>
<polygon fill="none" stroke="black" points="141.25,-45.72 40.5,-45.72 40.5,-20.47 141.25,-20.47 141.25,-45.72"/>
<text xml:space="preserve" text-anchor="start" x="48.5" y="-28.42" font-family="Times,serif" font-size="14.00">PulsePeriod</text>
</g>
<!-- PulsePeriod&#45;&gt;LookupTable[AnyRun, NXdetector] -->
<g id="edge5" class="edge">
<title>PulsePeriod:e&#45;&gt;LookupTable[AnyRun, NXdetector]:w</title>
<path fill="none" stroke="black" d="M142.25,-33.1C191.86,-33.1 204.16,-29.21 253.75,-28.1 503.61,-22.5 577.44,37.41 816,-37.1 848.49,-47.24 849.91,-76.6 876.82,-82.9"/>
<polygon fill="black" stroke="black" points="876.18,-86.35 886.5,-83.93 876.93,-79.39 876.18,-86.35"/>
</g>
<!-- PulsePeriod&#45;&gt;PulseStride[AnyRun] -->
<g id="edge8" class="edge">
<title>PulsePeriod:e&#45;&gt;PulseStride[AnyRun]:w</title>
<path fill="none" stroke="black" d="M142.25,-33.1C188.1,-33.1 201.77,-43.25 242.47,-44.88"/>
<polygon fill="black" stroke="black" points="242.17,-48.37 252.24,-45.07 242.31,-41.37 242.17,-48.37"/>
</g>
<!-- PulseStride[AnyRun]&#45;&gt;SimulationResults[AnyRun] -->
<g id="edge12" class="edge">
<title>PulseStride[AnyRun]:e&#45;&gt;SimulationResults[AnyRun]:w</title>
<path fill="none" stroke="black" d="M484.25,-45.1C533.38,-45.1 514.94,-120.73 553.51,-132.55"/>
<polygon fill="black" stroke="black" points="552.74,-135.98 563.13,-133.89 553.7,-129.04 552.74,-135.98"/>
</g>
<!-- PulseStride[AnyRun]&#45;&gt;LookupTable[AnyRun, NXdetector] -->
<g id="edge6" class="edge">
<title>PulseStride[AnyRun]:e&#45;&gt;LookupTable[AnyRun, NXdetector]:w</title>
<path fill="none" stroke="black" d="M484.25,-45.1C631.76,-45.1 671.62,-24.85 816,-55.1 845.68,-61.31 852.16,-79 876.71,-83.2"/>
<polygon fill="black" stroke="black" points="876.24,-86.67 886.49,-83.98 876.8,-79.69 876.24,-86.67"/>
</g>
<!-- NumberOfSimulatedNeutrons -->
<g id="node9" class="node">
<title>NumberOfSimulatedNeutrons</title>
<polygon fill="none" stroke="black" points="484.25,-235.72 253.75,-235.72 253.75,-210.47 484.25,-210.47 484.25,-235.72"/>
<text xml:space="preserve" text-anchor="start" x="261.75" y="-218.42" font-family="Times,serif" font-size="14.00">NumberOfSimulatedNeutrons</text>
</g>
<!-- NumberOfSimulatedNeutrons&#45;&gt;SimulationResults[AnyRun] -->
<g id="edge11" class="edge">
<title>NumberOfSimulatedNeutrons:e&#45;&gt;SimulationResults[AnyRun]:w</title>
<path fill="none" stroke="black" d="M484.25,-223.1C533.38,-223.1 514.94,-147.46 553.51,-135.64"/>
<polygon fill="black" stroke="black" points="553.7,-139.15 563.13,-134.3 552.74,-132.21 553.7,-139.15"/>
</g>
<!-- Position[NXsource, AnyRun] -->
<g id="node10" class="node">
<title>Position[NXsource, AnyRun]</title>
<polygon fill="none" stroke="black" points="477.5,-206.72 260.5,-206.72 260.5,-181.47 477.5,-181.47 477.5,-206.72"/>
<text xml:space="preserve" text-anchor="start" x="268.5" y="-189.42" font-family="Times,serif" font-size="14.00">Position[NXsource, AnyRun]</text>
</g>
<!-- Position[NXsource, AnyRun]&#45;&gt;SimulationResults[AnyRun] -->
<g id="edge10" class="edge">
<title>Position[NXsource, AnyRun]:e&#45;&gt;SimulationResults[AnyRun]:w</title>
<path fill="none" stroke="black" d="M478.5,-194.1C520.96,-194.1 518.83,-144.39 553.28,-135.46"/>
<polygon fill="black" stroke="black" points="553.61,-138.95 563.12,-134.28 552.78,-132 553.61,-138.95"/>
</g>
<!-- SimulationFacility -->
<g id="node11" class="node">
<title>SimulationFacility</title>
<polygon fill="none" stroke="black" points="441.88,-177.72 296.12,-177.72 296.12,-152.47 441.88,-152.47 441.88,-177.72"/>
<text xml:space="preserve" text-anchor="start" x="304.12" y="-160.42" font-family="Times,serif" font-size="14.00">SimulationFacility</text>
</g>
<!-- SimulationFacility&#45;&gt;SimulationResults[AnyRun] -->
<g id="edge14" class="edge">
<title>SimulationFacility:e&#45;&gt;SimulationResults[AnyRun]:w</title>
<path fill="none" stroke="black" d="M442.88,-165.1C494.68,-165.1 507.09,-138.41 553.2,-134.56"/>
<polygon fill="black" stroke="black" points="553.26,-138.06 563.11,-134.16 552.98,-131.06 553.26,-138.06"/>
</g>
<!-- SimulationMaxWavelength -->
<g id="node12" class="node">
<title>SimulationMaxWavelength</title>
<polygon fill="none" stroke="black" points="473,-148.72 265,-148.72 265,-123.47 473,-123.47 473,-148.72"/>
<text xml:space="preserve" text-anchor="start" x="273" y="-131.42" font-family="Times,serif" font-size="14.00">SimulationMaxWavelength</text>
</g>
<!-- SimulationMaxWavelength&#45;&gt;SimulationResults[AnyRun] -->
<g id="edge16" class="edge">
<title>SimulationMaxWavelength:e&#45;&gt;SimulationResults[AnyRun]:w</title>
<path fill="none" stroke="black" d="M474,-136.1C510.2,-136.1 521.98,-134.48 553.22,-134.15"/>
<polygon fill="black" stroke="black" points="553.13,-137.65 563.11,-134.1 553.09,-130.65 553.13,-137.65"/>
</g>
<!-- SimulationMinWavelength -->
<g id="node13" class="node">
<title>SimulationMinWavelength</title>
<polygon fill="none" stroke="black" points="471.5,-119.72 266.5,-119.72 266.5,-94.47 471.5,-94.47 471.5,-119.72"/>
<text xml:space="preserve" text-anchor="start" x="274.5" y="-102.42" font-family="Times,serif" font-size="14.00">SimulationMinWavelength</text>
</g>
<!-- SimulationMinWavelength&#45;&gt;SimulationResults[AnyRun] -->
<g id="edge15" class="edge">
<title>SimulationMinWavelength:e&#45;&gt;SimulationResults[AnyRun]:w</title>
<path fill="none" stroke="black" d="M472.5,-107.1C511.17,-107.1 520.37,-129.27 553.51,-133.43"/>
<polygon fill="black" stroke="black" points="552.92,-136.9 563.11,-134 553.34,-129.91 552.92,-136.9"/>
</g>
<!-- SimulationSeed -->
<g id="node14" class="node">
<title>SimulationSeed</title>
<polygon fill="none" stroke="black" points="433.25,-90.72 304.75,-90.72 304.75,-65.47 433.25,-65.47 433.25,-90.72"/>
<text xml:space="preserve" text-anchor="start" x="312.75" y="-73.42" font-family="Times,serif" font-size="14.00">SimulationSeed</text>
</g>
<!-- SimulationSeed&#45;&gt;SimulationResults[AnyRun] -->
<g id="edge13" class="edge">
<title>SimulationSeed:e&#45;&gt;SimulationResults[AnyRun]:w</title>
<path fill="none" stroke="black" d="M434.25,-78.1C493.25,-78.1 500.77,-127.11 553.13,-133.43"/>
<polygon fill="black" stroke="black" points="552.93,-136.92 563.11,-134.01 553.33,-129.93 552.93,-136.92"/>
</g>
</g>
</svg>
