<?xml version="1.0" encoding="utf-8" standalone="no"?>
<!DOCTYPE svg PUBLIC "-//W3C//DTD SVG 1.1//EN"
  "http://www.w3.org/Graphics/SVG/1.1/DTD/svg11.dtd">
<svg xmlns:xlink="http://www.w3.org/1999/xlink" width="401.690625pt" height="268.200625pt" viewBox="0 0 401.690625 268.200625" xmlns="http://www.w3.org/2000/svg" version="1.1">
 <metadata>
  <rdf:RDF xmlns:dc="http://purl.org/dc/elements/1.1/" xmlns:cc="http://creativecommons.org/ns#" xmlns:rdf="http://www.w3.org/1999/02/22-rdf-syntax-ns#">
   <cc:Work>
    <dc:type rdf:resource="http://purl.org/dc/dcmitype/StillImage"/>
    <dc:date>2026-04-23T11:41:31.956718</dc:date>
    <dc:format>image/svg+xml</dc:format>
    <dc:creator>
     <cc:Agent>
      <dc:title>Matplotlib v3.10.8, https://matplotlib.org/</dc:title>
     </cc:Agent>
    </dc:creator>
   </cc:Work>
  </rdf:RDF>
 </metadata>
 <defs>
  <style type="text/css">*{stroke-linejoin: round; stroke-linecap: butt}</style>
 </defs>
 <g id="figure_1">
  <g id="patch_1">
   <path d="M 0 268.200625 
L 401.690625 268.200625 
L 401.690625 0 
L 0 0 
z
" style="fill: #ffffff"/>
  </g>
  <g id="axes_1">
   <g id="patch_2">
    <path d="M 59.690625 228.96 
L 394.490625 228.96 
L 394.490625 7.2 
L 59.690625 7.2 
z
" style="fill: #ffffff"/>
   </g>
   <g id="matplotlib.axis_1">
    <g id="xtick_1">
     <g id="line2d_1">
      <defs>
       <path id="m55128fe48a" d="M 0 0 
L 0 3.5 
" style="stroke: #000000; stroke-width: 0.8"/>
      </defs>
      <g>
       <use xlink:href="#m55128fe48a" x="67.461326" y="228.96" style="stroke: #000000; stroke-width: 0.8"/>
      </g>
     </g>
     <g id="text_1">
      <!-- 0.25 -->
      <g transform="translate(56.328514 243.558437) scale(0.1 -0.1)">
       <defs>
        <path id="DejaVuSans-30" d="M 2034 4250 
Q 1547 4250 1301 3770 
Q 1056 3291 1056 2328 
Q 1056 1369 1301 889 
Q 1547 409 2034 409 
Q 2525 409 2770 889 
Q 3016 1369 3016 2328 
Q 3016 3291 2770 3770 
Q 2525 4250 2034 4250 
z
M 2034 4750 
Q 2819 4750 3233 4129 
Q 3647 3509 3647 2328 
Q 3647 1150 3233 529 
Q 2819 -91 2034 -91 
Q 1250 -91 836 529 
Q 422 1150 422 2328 
Q 422 3509 836 4129 
Q 1250 4750 2034 4750 
z
" transform="scale(0.015625)"/>
        <path id="DejaVuSans-2e" d="M 684 794 
L 1344 794 
L 1344 0 
L 684 0 
L 684 794 
z
" transform="scale(0.015625)"/>
        <path id="DejaVuSans-32" d="M 1228 531 
L 3431 531 
L 3431 0 
L 469 0 
L 469 531 
Q 828 903 1448 1529 
Q 2069 2156 2228 2338 
Q 2531 2678 2651 2914 
Q 2772 3150 2772 3378 
Q 2772 3750 2511 3984 
Q 2250 4219 1831 4219 
Q 1534 4219 1204 4116 
Q 875 4013 500 3803 
L 500 4441 
Q 881 4594 1212 4672 
Q 1544 4750 1819 4750 
Q 2544 4750 2975 4387 
Q 3406 4025 3406 3419 
Q 3406 3131 3298 2873 
Q 3191 2616 2906 2266 
Q 2828 2175 2409 1742 
Q 1991 1309 1228 531 
z
" transform="scale(0.015625)"/>
        <path id="DejaVuSans-35" d="M 691 4666 
L 3169 4666 
L 3169 4134 
L 1269 4134 
L 1269 2991 
Q 1406 3038 1543 3061 
Q 1681 3084 1819 3084 
Q 2600 3084 3056 2656 
Q 3513 2228 3513 1497 
Q 3513 744 3044 326 
Q 2575 -91 1722 -91 
Q 1428 -91 1123 -41 
Q 819 9 494 109 
L 494 744 
Q 775 591 1075 516 
Q 1375 441 1709 441 
Q 2250 441 2565 725 
Q 2881 1009 2881 1497 
Q 2881 1984 2565 2268 
Q 2250 2553 1709 2553 
Q 1456 2553 1204 2497 
Q 953 2441 691 2322 
L 691 4666 
z
" transform="scale(0.015625)"/>
       </defs>
       <use xlink:href="#DejaVuSans-30"/>
       <use xlink:href="#DejaVuSans-2e" transform="translate(63.623047 0)"/>
       <use xlink:href="#DejaVuSans-32" transform="translate(95.410156 0)"/>
       <use xlink:href="#DejaVuSans-35" transform="translate(159.033203 0)"/>
      </g>
     </g>
    </g>
    <g id="xtick_2">
     <g id="line2d_2">
      <g>
       <use xlink:href="#m55128fe48a" x="104.698729" y="228.96" style="stroke: #000000; stroke-width: 0.8"/>
      </g>
     </g>
     <g id="text_2">
      <!-- 0.50 -->
      <g transform="translate(93.565917 243.558437) scale(0.1 -0.1)">
       <use xlink:href="#DejaVuSans-30"/>
       <use xlink:href="#DejaVuSans-2e" transform="translate(63.623047 0)"/>
       <use xlink:href="#DejaVuSans-35" transform="translate(95.410156 0)"/>
       <use xlink:href="#DejaVuSans-30" transform="translate(159.033203 0)"/>
      </g>
     </g>
    </g>
    <g id="xtick_3">
     <g id="line2d_3">
      <g>
       <use xlink:href="#m55128fe48a" x="141.936132" y="228.96" style="stroke: #000000; stroke-width: 0.8"/>
      </g>
     </g>
     <g id="text_3">
      <!-- 0.75 -->
      <g transform="translate(130.80332 243.558437) scale(0.1 -0.1)">
       <defs>
        <path id="DejaVuSans-37" d="M 525 4666 
L 3525 4666 
L 3525 4397 
L 1831 0 
L 1172 0 
L 2766 4134 
L 525 4134 
L 525 4666 
z
" transform="scale(0.015625)"/>
       </defs>
       <use xlink:href="#DejaVuSans-30"/>
       <use xlink:href="#DejaVuSans-2e" transform="translate(63.623047 0)"/>
       <use xlink:href="#DejaVuSans-37" transform="translate(95.410156 0)"/>
       <use xlink:href="#DejaVuSans-35" transform="translate(159.033203 0)"/>
      </g>
     </g>
    </g>
    <g id="xtick_4">
     <g id="line2d_4">
      <g>
       <use xlink:href="#m55128fe48a" x="179.173535" y="228.96" style="stroke: #000000; stroke-width: 0.8"/>
      </g>
     </g>
     <g id="text_4">
      <!-- 1.00 -->
      <g transform="translate(168.040722 243.558437) scale(0.1 -0.1)">
       <defs>
        <path id="DejaVuSans-31" d="M 794 531 
L 1825 531 
L 1825 4091 
L 703 3866 
L 703 4441 
L 1819 4666 
L 2450 4666 
L 2450 531 
L 3481 531 
L 3481 0 
L 794 0 
L 794 531 
z
" transform="scale(0.015625)"/>
       </defs>
       <use xlink:href="#DejaVuSans-31"/>
       <use xlink:href="#DejaVuSans-2e" transform="translate(63.623047 0)"/>
       <use xlink:href="#DejaVuSans-30" transform="translate(95.410156 0)"/>
       <use xlink:href="#DejaVuSans-30" transform="translate(159.033203 0)"/>
      </g>
     </g>
    </g>
    <g id="xtick_5">
     <g id="line2d_5">
      <g>
       <use xlink:href="#m55128fe48a" x="216.410938" y="228.96" style="stroke: #000000; stroke-width: 0.8"/>
      </g>
     </g>
     <g id="text_5">
      <!-- 1.25 -->
      <g transform="translate(205.278125 243.558437) scale(0.1 -0.1)">
       <use xlink:href="#DejaVuSans-31"/>
       <use xlink:href="#DejaVuSans-2e" transform="translate(63.623047 0)"/>
       <use xlink:href="#DejaVuSans-32" transform="translate(95.410156 0)"/>
       <use xlink:href="#DejaVuSans-35" transform="translate(159.033203 0)"/>
      </g>
     </g>
    </g>
    <g id="xtick_6">
     <g id="line2d_6">
      <g>
       <use xlink:href="#m55128fe48a" x="253.648341" y="228.96" style="stroke: #000000; stroke-width: 0.8"/>
      </g>
     </g>
     <g id="text_6">
      <!-- 1.50 -->
      <g transform="translate(242.515528 243.558437) scale(0.1 -0.1)">
       <use xlink:href="#DejaVuSans-31"/>
       <use xlink:href="#DejaVuSans-2e" transform="translate(63.623047 0)"/>
       <use xlink:href="#DejaVuSans-35" transform="translate(95.410156 0)"/>
       <use xlink:href="#DejaVuSans-30" transform="translate(159.033203 0)"/>
      </g>
     </g>
    </g>
    <g id="xtick_7">
     <g id="line2d_7">
      <g>
       <use xlink:href="#m55128fe48a" x="290.885744" y="228.96" style="stroke: #000000; stroke-width: 0.8"/>
      </g>
     </g>
     <g id="text_7">
      <!-- 1.75 -->
      <g transform="translate(279.752931 243.558437) scale(0.1 -0.1)">
       <use xlink:href="#DejaVuSans-31"/>
       <use xlink:href="#DejaVuSans-2e" transform="translate(63.623047 0)"/>
       <use xlink:href="#DejaVuSans-37" transform="translate(95.410156 0)"/>
       <use xlink:href="#DejaVuSans-35" transform="translate(159.033203 0)"/>
      </g>
     </g>
    </g>
    <g id="xtick_8">
     <g id="line2d_8">
      <g>
       <use xlink:href="#m55128fe48a" x="328.123147" y="228.96" style="stroke: #000000; stroke-width: 0.8"/>
      </g>
     </g>
     <g id="text_8">
      <!-- 2.00 -->
      <g transform="translate(316.990334 243.558437) scale(0.1 -0.1)">
       <use xlink:href="#DejaVuSans-32"/>
       <use xlink:href="#DejaVuSans-2e" transform="translate(63.623047 0)"/>
       <use xlink:href="#DejaVuSans-30" transform="translate(95.410156 0)"/>
       <use xlink:href="#DejaVuSans-30" transform="translate(159.033203 0)"/>
      </g>
     </g>
    </g>
    <g id="xtick_9">
     <g id="line2d_9">
      <g>
       <use xlink:href="#m55128fe48a" x="365.360549" y="228.96" style="stroke: #000000; stroke-width: 0.8"/>
      </g>
     </g>
     <g id="text_9">
      <!-- 2.25 -->
      <g transform="translate(354.227737 243.558437) scale(0.1 -0.1)">
       <use xlink:href="#DejaVuSans-32"/>
       <use xlink:href="#DejaVuSans-2e" transform="translate(63.623047 0)"/>
       <use xlink:href="#DejaVuSans-32" transform="translate(95.410156 0)"/>
       <use xlink:href="#DejaVuSans-35" transform="translate(159.033203 0)"/>
      </g>
     </g>
    </g>
    <g id="text_10">
     <!-- dspacing [Å] -->
     <g transform="translate(195.68125 258.920937) scale(0.1 -0.1)">
      <defs>
       <path id="DejaVuSans-64" d="M 2906 2969 
L 2906 4863 
L 3481 4863 
L 3481 0 
L 2906 0 
L 2906 525 
Q 2725 213 2448 61 
Q 2172 -91 1784 -91 
Q 1150 -91 751 415 
Q 353 922 353 1747 
Q 353 2572 751 3078 
Q 1150 3584 1784 3584 
Q 2172 3584 2448 3432 
Q 2725 3281 2906 2969 
z
M 947 1747 
Q 947 1113 1208 752 
Q 1469 391 1925 391 
Q 2381 391 2643 752 
Q 2906 1113 2906 1747 
Q 2906 2381 2643 2742 
Q 2381 3103 1925 3103 
Q 1469 3103 1208 2742 
Q 947 2381 947 1747 
z
" transform="scale(0.015625)"/>
       <path id="DejaVuSans-73" d="M 2834 3397 
L 2834 2853 
Q 2591 2978 2328 3040 
Q 2066 3103 1784 3103 
Q 1356 3103 1142 2972 
Q 928 2841 928 2578 
Q 928 2378 1081 2264 
Q 1234 2150 1697 2047 
L 1894 2003 
Q 2506 1872 2764 1633 
Q 3022 1394 3022 966 
Q 3022 478 2636 193 
Q 2250 -91 1575 -91 
Q 1294 -91 989 -36 
Q 684 19 347 128 
L 347 722 
Q 666 556 975 473 
Q 1284 391 1588 391 
Q 1994 391 2212 530 
Q 2431 669 2431 922 
Q 2431 1156 2273 1281 
Q 2116 1406 1581 1522 
L 1381 1569 
Q 847 1681 609 1914 
Q 372 2147 372 2553 
Q 372 3047 722 3315 
Q 1072 3584 1716 3584 
Q 2034 3584 2315 3537 
Q 2597 3491 2834 3397 
z
" transform="scale(0.015625)"/>
       <path id="DejaVuSans-70" d="M 1159 525 
L 1159 -1331 
L 581 -1331 
L 581 3500 
L 1159 3500 
L 1159 2969 
Q 1341 3281 1617 3432 
Q 1894 3584 2278 3584 
Q 2916 3584 3314 3078 
Q 3713 2572 3713 1747 
Q 3713 922 3314 415 
Q 2916 -91 2278 -91 
Q 1894 -91 1617 61 
Q 1341 213 1159 525 
z
M 3116 1747 
Q 3116 2381 2855 2742 
Q 2594 3103 2138 3103 
Q 1681 3103 1420 2742 
Q 1159 2381 1159 1747 
Q 1159 1113 1420 752 
Q 1681 391 2138 391 
Q 2594 391 2855 752 
Q 3116 1113 3116 1747 
z
" transform="scale(0.015625)"/>
       <path id="DejaVuSans-61" d="M 2194 1759 
Q 1497 1759 1228 1600 
Q 959 1441 959 1056 
Q 959 750 1161 570 
Q 1363 391 1709 391 
Q 2188 391 2477 730 
Q 2766 1069 2766 1631 
L 2766 1759 
L 2194 1759 
z
M 3341 1997 
L 3341 0 
L 2766 0 
L 2766 531 
Q 2569 213 2275 61 
Q 1981 -91 1556 -91 
Q 1019 -91 701 211 
Q 384 513 384 1019 
Q 384 1609 779 1909 
Q 1175 2209 1959 2209 
L 2766 2209 
L 2766 2266 
Q 2766 2663 2505 2880 
Q 2244 3097 1772 3097 
Q 1472 3097 1187 3025 
Q 903 2953 641 2809 
L 641 3341 
Q 956 3463 1253 3523 
Q 1550 3584 1831 3584 
Q 2591 3584 2966 3190 
Q 3341 2797 3341 1997 
z
" transform="scale(0.015625)"/>
       <path id="DejaVuSans-63" d="M 3122 3366 
L 3122 2828 
Q 2878 2963 2633 3030 
Q 2388 3097 2138 3097 
Q 1578 3097 1268 2742 
Q 959 2388 959 1747 
Q 959 1106 1268 751 
Q 1578 397 2138 397 
Q 2388 397 2633 464 
Q 2878 531 3122 666 
L 3122 134 
Q 2881 22 2623 -34 
Q 2366 -91 2075 -91 
Q 1284 -91 818 406 
Q 353 903 353 1747 
Q 353 2603 823 3093 
Q 1294 3584 2113 3584 
Q 2378 3584 2631 3529 
Q 2884 3475 3122 3366 
z
" transform="scale(0.015625)"/>
       <path id="DejaVuSans-69" d="M 603 3500 
L 1178 3500 
L 1178 0 
L 603 0 
L 603 3500 
z
M 603 4863 
L 1178 4863 
L 1178 4134 
L 603 4134 
L 603 4863 
z
" transform="scale(0.015625)"/>
       <path id="DejaVuSans-6e" d="M 3513 2113 
L 3513 0 
L 2938 0 
L 2938 2094 
Q 2938 2591 2744 2837 
Q 2550 3084 2163 3084 
Q 1697 3084 1428 2787 
Q 1159 2491 1159 1978 
L 1159 0 
L 581 0 
L 581 3500 
L 1159 3500 
L 1159 2956 
Q 1366 3272 1645 3428 
Q 1925 3584 2291 3584 
Q 2894 3584 3203 3211 
Q 3513 2838 3513 2113 
z
" transform="scale(0.015625)"/>
       <path id="DejaVuSans-67" d="M 2906 1791 
Q 2906 2416 2648 2759 
Q 2391 3103 1925 3103 
Q 1463 3103 1205 2759 
Q 947 2416 947 1791 
Q 947 1169 1205 825 
Q 1463 481 1925 481 
Q 2391 481 2648 825 
Q 2906 1169 2906 1791 
z
M 3481 434 
Q 3481 -459 3084 -895 
Q 2688 -1331 1869 -1331 
Q 1566 -1331 1297 -1286 
Q 1028 -1241 775 -1147 
L 775 -588 
Q 1028 -725 1275 -790 
Q 1522 -856 1778 -856 
Q 2344 -856 2625 -561 
Q 2906 -266 2906 331 
L 2906 616 
Q 2728 306 2450 153 
Q 2172 0 1784 0 
Q 1141 0 747 490 
Q 353 981 353 1791 
Q 353 2603 747 3093 
Q 1141 3584 1784 3584 
Q 2172 3584 2450 3431 
Q 2728 3278 2906 2969 
L 2906 3500 
L 3481 3500 
L 3481 434 
z
" transform="scale(0.015625)"/>
       <path id="DejaVuSans-20" transform="scale(0.015625)"/>
       <path id="DejaVuSans-5b" d="M 550 4863 
L 1875 4863 
L 1875 4416 
L 1125 4416 
L 1125 -397 
L 1875 -397 
L 1875 -844 
L 550 -844 
L 550 4863 
z
" transform="scale(0.015625)"/>
       <path id="DejaVuSans-c5" d="M 2663 5081 
Q 2663 5278 2523 5417 
Q 2384 5556 2188 5556 
Q 1988 5556 1852 5420 
Q 1716 5284 1716 5081 
Q 1716 4884 1853 4746 
Q 1991 4609 2188 4609 
Q 2384 4609 2523 4746 
Q 2663 4884 2663 5081 
z
M 2188 4044 
L 1338 1722 
L 3041 1722 
L 2188 4044 
z
M 1716 4366 
Q 1525 4494 1428 4673 
Q 1331 4853 1331 5081 
Q 1331 5441 1579 5691 
Q 1828 5941 2188 5941 
Q 2544 5941 2795 5689 
Q 3047 5438 3047 5081 
Q 3047 4863 2948 4678 
Q 2850 4494 2663 4366 
L 4325 0 
L 3669 0 
L 3244 1197 
L 1141 1197 
L 716 0 
L 50 0 
L 1716 4366 
z
" transform="scale(0.015625)"/>
       <path id="DejaVuSans-5d" d="M 1947 4863 
L 1947 -844 
L 622 -844 
L 622 -397 
L 1369 -397 
L 1369 4416 
L 622 4416 
L 622 4863 
L 1947 4863 
z
" transform="scale(0.015625)"/>
      </defs>
      <use xlink:href="#DejaVuSans-64"/>
      <use xlink:href="#DejaVuSans-73" transform="translate(63.476562 0)"/>
      <use xlink:href="#DejaVuSans-70" transform="translate(115.576172 0)"/>
      <use xlink:href="#DejaVuSans-61" transform="translate(179.052734 0)"/>
      <use xlink:href="#DejaVuSans-63" transform="translate(240.332031 0)"/>
      <use xlink:href="#DejaVuSans-69" transform="translate(295.3125 0)"/>
      <use xlink:href="#DejaVuSans-6e" transform="translate(323.095703 0)"/>
      <use xlink:href="#DejaVuSans-67" transform="translate(386.474609 0)"/>
      <use xlink:href="#DejaVuSans-20" transform="translate(449.951172 0)"/>
      <use xlink:href="#DejaVuSans-5b" transform="translate(481.738281 0)"/>
      <use xlink:href="#DejaVuSans-c5" transform="translate(520.751953 0)"/>
      <use xlink:href="#DejaVuSans-5d" transform="translate(589.160156 0)"/>
     </g>
    </g>
   </g>
   <g id="matplotlib.axis_2">
    <g id="ytick_1">
     <g id="line2d_10">
      <defs>
       <path id="mb87b43d485" d="M 0 0 
L -3.5 0 
" style="stroke: #000000; stroke-width: 0.8"/>
      </defs>
      <g>
       <use xlink:href="#mb87b43d485" x="59.690625" y="217.181833" style="stroke: #000000; stroke-width: 0.8"/>
      </g>
     </g>
     <g id="text_11">
      <!-- 0 -->
      <g transform="translate(46.328125 220.981051) scale(0.1 -0.1)">
       <use xlink:href="#DejaVuSans-30"/>
      </g>
     </g>
    </g>
    <g id="ytick_2">
     <g id="line2d_11">
      <g>
       <use xlink:href="#mb87b43d485" x="59.690625" y="190.824611" style="stroke: #000000; stroke-width: 0.8"/>
      </g>
     </g>
     <g id="text_12">
      <!-- 2000 -->
      <g transform="translate(27.240625 194.62383) scale(0.1 -0.1)">
       <use xlink:href="#DejaVuSans-32"/>
       <use xlink:href="#DejaVuSans-30" transform="translate(63.623047 0)"/>
       <use xlink:href="#DejaVuSans-30" transform="translate(127.246094 0)"/>
       <use xlink:href="#DejaVuSans-30" transform="translate(190.869141 0)"/>
      </g>
     </g>
    </g>
    <g id="ytick_3">
     <g id="line2d_12">
      <g>
       <use xlink:href="#mb87b43d485" x="59.690625" y="164.46739" style="stroke: #000000; stroke-width: 0.8"/>
      </g>
     </g>
     <g id="text_13">
      <!-- 4000 -->
      <g transform="translate(27.240625 168.266609) scale(0.1 -0.1)">
       <defs>
        <path id="DejaVuSans-34" d="M 2419 4116 
L 825 1625 
L 2419 1625 
L 2419 4116 
z
M 2253 4666 
L 3047 4666 
L 3047 1625 
L 3713 1625 
L 3713 1100 
L 3047 1100 
L 3047 0 
L 2419 0 
L 2419 1100 
L 313 1100 
L 313 1709 
L 2253 4666 
z
" transform="scale(0.015625)"/>
       </defs>
       <use xlink:href="#DejaVuSans-34"/>
       <use xlink:href="#DejaVuSans-30" transform="translate(63.623047 0)"/>
       <use xlink:href="#DejaVuSans-30" transform="translate(127.246094 0)"/>
       <use xlink:href="#DejaVuSans-30" transform="translate(190.869141 0)"/>
      </g>
     </g>
    </g>
    <g id="ytick_4">
     <g id="line2d_13">
      <g>
       <use xlink:href="#mb87b43d485" x="59.690625" y="138.110169" style="stroke: #000000; stroke-width: 0.8"/>
      </g>
     </g>
     <g id="text_14">
      <!-- 6000 -->
      <g transform="translate(27.240625 141.909388) scale(0.1 -0.1)">
       <defs>
        <path id="DejaVuSans-36" d="M 2113 2584 
Q 1688 2584 1439 2293 
Q 1191 2003 1191 1497 
Q 1191 994 1439 701 
Q 1688 409 2113 409 
Q 2538 409 2786 701 
Q 3034 994 3034 1497 
Q 3034 2003 2786 2293 
Q 2538 2584 2113 2584 
z
M 3366 4563 
L 3366 3988 
Q 3128 4100 2886 4159 
Q 2644 4219 2406 4219 
Q 1781 4219 1451 3797 
Q 1122 3375 1075 2522 
Q 1259 2794 1537 2939 
Q 1816 3084 2150 3084 
Q 2853 3084 3261 2657 
Q 3669 2231 3669 1497 
Q 3669 778 3244 343 
Q 2819 -91 2113 -91 
Q 1303 -91 875 529 
Q 447 1150 447 2328 
Q 447 3434 972 4092 
Q 1497 4750 2381 4750 
Q 2619 4750 2861 4703 
Q 3103 4656 3366 4563 
z
" transform="scale(0.015625)"/>
       </defs>
       <use xlink:href="#DejaVuSans-36"/>
       <use xlink:href="#DejaVuSans-30" transform="translate(63.623047 0)"/>
       <use xlink:href="#DejaVuSans-30" transform="translate(127.246094 0)"/>
       <use xlink:href="#DejaVuSans-30" transform="translate(190.869141 0)"/>
      </g>
     </g>
    </g>
    <g id="ytick_5">
     <g id="line2d_14">
      <g>
       <use xlink:href="#mb87b43d485" x="59.690625" y="111.752948" style="stroke: #000000; stroke-width: 0.8"/>
      </g>
     </g>
     <g id="text_15">
      <!-- 8000 -->
      <g transform="translate(27.240625 115.552166) scale(0.1 -0.1)">
       <defs>
        <path id="DejaVuSans-38" d="M 2034 2216 
Q 1584 2216 1326 1975 
Q 1069 1734 1069 1313 
Q 1069 891 1326 650 
Q 1584 409 2034 409 
Q 2484 409 2743 651 
Q 3003 894 3003 1313 
Q 3003 1734 2745 1975 
Q 2488 2216 2034 2216 
z
M 1403 2484 
Q 997 2584 770 2862 
Q 544 3141 544 3541 
Q 544 4100 942 4425 
Q 1341 4750 2034 4750 
Q 2731 4750 3128 4425 
Q 3525 4100 3525 3541 
Q 3525 3141 3298 2862 
Q 3072 2584 2669 2484 
Q 3125 2378 3379 2068 
Q 3634 1759 3634 1313 
Q 3634 634 3220 271 
Q 2806 -91 2034 -91 
Q 1263 -91 848 271 
Q 434 634 434 1313 
Q 434 1759 690 2068 
Q 947 2378 1403 2484 
z
M 1172 3481 
Q 1172 3119 1398 2916 
Q 1625 2713 2034 2713 
Q 2441 2713 2670 2916 
Q 2900 3119 2900 3481 
Q 2900 3844 2670 4047 
Q 2441 4250 2034 4250 
Q 1625 4250 1398 4047 
Q 1172 3844 1172 3481 
z
" transform="scale(0.015625)"/>
       </defs>
       <use xlink:href="#DejaVuSans-38"/>
       <use xlink:href="#DejaVuSans-30" transform="translate(63.623047 0)"/>
       <use xlink:href="#DejaVuSans-30" transform="translate(127.246094 0)"/>
       <use xlink:href="#DejaVuSans-30" transform="translate(190.869141 0)"/>
      </g>
     </g>
    </g>
    <g id="ytick_6">
     <g id="line2d_15">
      <g>
       <use xlink:href="#mb87b43d485" x="59.690625" y="85.395726" style="stroke: #000000; stroke-width: 0.8"/>
      </g>
     </g>
     <g id="text_16">
      <!-- 10000 -->
      <g transform="translate(20.878125 89.194945) scale(0.1 -0.1)">
       <use xlink:href="#DejaVuSans-31"/>
       <use xlink:href="#DejaVuSans-30" transform="translate(63.623047 0)"/>
       <use xlink:href="#DejaVuSans-30" transform="translate(127.246094 0)"/>
       <use xlink:href="#DejaVuSans-30" transform="translate(190.869141 0)"/>
       <use xlink:href="#DejaVuSans-30" transform="translate(254.492188 0)"/>
      </g>
     </g>
    </g>
    <g id="ytick_7">
     <g id="line2d_16">
      <g>
       <use xlink:href="#mb87b43d485" x="59.690625" y="59.038505" style="stroke: #000000; stroke-width: 0.8"/>
      </g>
     </g>
     <g id="text_17">
      <!-- 12000 -->
      <g transform="translate(20.878125 62.837724) scale(0.1 -0.1)">
       <use xlink:href="#DejaVuSans-31"/>
       <use xlink:href="#DejaVuSans-32" transform="translate(63.623047 0)"/>
       <use xlink:href="#DejaVuSans-30" transform="translate(127.246094 0)"/>
       <use xlink:href="#DejaVuSans-30" transform="translate(190.869141 0)"/>
       <use xlink:href="#DejaVuSans-30" transform="translate(254.492188 0)"/>
      </g>
     </g>
    </g>
    <g id="ytick_8">
     <g id="line2d_17">
      <g>
       <use xlink:href="#mb87b43d485" x="59.690625" y="32.681284" style="stroke: #000000; stroke-width: 0.8"/>
      </g>
     </g>
     <g id="text_18">
      <!-- 14000 -->
      <g transform="translate(20.878125 36.480503) scale(0.1 -0.1)">
       <use xlink:href="#DejaVuSans-31"/>
       <use xlink:href="#DejaVuSans-34" transform="translate(63.623047 0)"/>
       <use xlink:href="#DejaVuSans-30" transform="translate(127.246094 0)"/>
       <use xlink:href="#DejaVuSans-30" transform="translate(190.869141 0)"/>
       <use xlink:href="#DejaVuSans-30" transform="translate(254.492188 0)"/>
      </g>
     </g>
    </g>
    <g id="text_19">
     <!-- [dimensionless] -->
     <g transform="translate(14.798438 157.557344) rotate(-90) scale(0.1 -0.1)">
      <defs>
       <path id="DejaVuSans-6d" d="M 3328 2828 
Q 3544 3216 3844 3400 
Q 4144 3584 4550 3584 
Q 5097 3584 5394 3201 
Q 5691 2819 5691 2113 
L 5691 0 
L 5113 0 
L 5113 2094 
Q 5113 2597 4934 2840 
Q 4756 3084 4391 3084 
Q 3944 3084 3684 2787 
Q 3425 2491 3425 1978 
L 3425 0 
L 2847 0 
L 2847 2094 
Q 2847 2600 2669 2842 
Q 2491 3084 2119 3084 
Q 1678 3084 1418 2786 
Q 1159 2488 1159 1978 
L 1159 0 
L 581 0 
L 581 3500 
L 1159 3500 
L 1159 2956 
Q 1356 3278 1631 3431 
Q 1906 3584 2284 3584 
Q 2666 3584 2933 3390 
Q 3200 3197 3328 2828 
z
" transform="scale(0.015625)"/>
       <path id="DejaVuSans-65" d="M 3597 1894 
L 3597 1613 
L 953 1613 
Q 991 1019 1311 708 
Q 1631 397 2203 397 
Q 2534 397 2845 478 
Q 3156 559 3463 722 
L 3463 178 
Q 3153 47 2828 -22 
Q 2503 -91 2169 -91 
Q 1331 -91 842 396 
Q 353 884 353 1716 
Q 353 2575 817 3079 
Q 1281 3584 2069 3584 
Q 2775 3584 3186 3129 
Q 3597 2675 3597 1894 
z
M 3022 2063 
Q 3016 2534 2758 2815 
Q 2500 3097 2075 3097 
Q 1594 3097 1305 2825 
Q 1016 2553 972 2059 
L 3022 2063 
z
" transform="scale(0.015625)"/>
       <path id="DejaVuSans-6f" d="M 1959 3097 
Q 1497 3097 1228 2736 
Q 959 2375 959 1747 
Q 959 1119 1226 758 
Q 1494 397 1959 397 
Q 2419 397 2687 759 
Q 2956 1122 2956 1747 
Q 2956 2369 2687 2733 
Q 2419 3097 1959 3097 
z
M 1959 3584 
Q 2709 3584 3137 3096 
Q 3566 2609 3566 1747 
Q 3566 888 3137 398 
Q 2709 -91 1959 -91 
Q 1206 -91 779 398 
Q 353 888 353 1747 
Q 353 2609 779 3096 
Q 1206 3584 1959 3584 
z
" transform="scale(0.015625)"/>
       <path id="DejaVuSans-6c" d="M 603 4863 
L 1178 4863 
L 1178 0 
L 603 0 
L 603 4863 
z
" transform="scale(0.015625)"/>
      </defs>
      <use xlink:href="#DejaVuSans-5b"/>
      <use xlink:href="#DejaVuSans-64" transform="translate(39.013672 0)"/>
      <use xlink:href="#DejaVuSans-69" transform="translate(102.490234 0)"/>
      <use xlink:href="#DejaVuSans-6d" transform="translate(130.273438 0)"/>
      <use xlink:href="#DejaVuSans-65" transform="translate(227.685547 0)"/>
      <use xlink:href="#DejaVuSans-6e" transform="translate(289.208984 0)"/>
      <use xlink:href="#DejaVuSans-73" transform="translate(352.587891 0)"/>
      <use xlink:href="#DejaVuSans-69" transform="translate(404.6875 0)"/>
      <use xlink:href="#DejaVuSans-6f" transform="translate(432.470703 0)"/>
      <use xlink:href="#DejaVuSans-6e" transform="translate(493.652344 0)"/>
      <use xlink:href="#DejaVuSans-6c" transform="translate(557.03125 0)"/>
      <use xlink:href="#DejaVuSans-65" transform="translate(584.814453 0)"/>
      <use xlink:href="#DejaVuSans-73" transform="translate(646.337891 0)"/>
      <use xlink:href="#DejaVuSans-73" transform="translate(698.4375 0)"/>
      <use xlink:href="#DejaVuSans-5d" transform="translate(750.537109 0)"/>
     </g>
    </g>
   </g>
   <g id="line2d_18">
    <path d="M 74.908807 217.612321 
L 76.430625 217.612321 
L 76.430625 218.07381 
L 80.99608 218.092038 
L 80.99608 218.365617 
L 82.517898 218.365617 
L 82.517898 218.159793 
L 91.648807 218.11535 
L 91.648807 218.321345 
L 93.170625 218.321345 
L 93.170625 217.730999 
L 97.73608 217.669276 
L 97.73608 217.51742 
L 102.301534 217.565324 
L 102.301534 217.372347 
L 103.823352 217.372347 
L 103.823352 217.058838 
L 105.34517 217.058838 
L 105.34517 211.114399 
L 106.866989 211.114399 
L 106.866989 209.720622 
L 108.388807 209.720622 
L 108.388807 210.128078 
L 109.910625 210.128078 
L 109.910625 201.890875 
L 111.432443 201.890875 
L 111.432443 206.738251 
L 112.954261 206.738251 
L 112.954261 215.733324 
L 114.47608 215.733324 
L 114.47608 217.000738 
L 117.519716 216.980996 
L 117.519716 214.024989 
L 119.041534 214.024989 
L 119.041534 205.286374 
L 120.563352 205.286374 
L 120.563352 208.750345 
L 122.08517 208.750345 
L 122.08517 209.020888 
L 123.606989 209.020888 
L 123.606989 201.064118 
L 125.128807 201.064118 
L 125.128807 209.630868 
L 126.650625 209.630868 
L 126.650625 215.863902 
L 128.172443 215.863902 
L 128.172443 216.23583 
L 129.694261 216.23583 
L 129.694261 210.499609 
L 131.21608 210.499609 
L 131.21608 187.671461 
L 132.737898 187.671461 
L 132.737898 191.609483 
L 134.259716 191.609483 
L 134.259716 211.319437 
L 135.781534 211.319437 
L 135.781534 215.484605 
L 137.303352 215.484605 
L 137.303352 216.59028 
L 138.82517 216.59028 
L 138.82517 215.758373 
L 140.346989 215.758373 
L 140.346989 216.237578 
L 141.868807 216.237578 
L 141.868807 215.93115 
L 143.390625 215.93115 
L 143.390625 215.639563 
L 144.912443 215.639563 
L 144.912443 216.014218 
L 147.95608 215.987359 
L 147.95608 215.608825 
L 149.477898 215.608825 
L 149.477898 207.778035 
L 150.999716 207.778035 
L 150.999716 190.884793 
L 152.521534 190.884793 
L 152.521534 196.160102 
L 154.043352 196.160102 
L 154.043352 212.511528 
L 155.56517 212.511528 
L 155.56517 215.639162 
L 157.086989 215.639162 
L 157.086989 216.022732 
L 160.130625 216.049159 
L 160.130625 210.206611 
L 161.652443 210.206611 
L 161.652443 187.463865 
L 163.174261 187.463865 
L 163.174261 185.865092 
L 164.69608 185.865092 
L 164.69608 209.746749 
L 166.217898 209.746749 
L 166.217898 215.076211 
L 167.739716 215.076211 
L 167.739716 215.911948 
L 170.783352 215.97769 
L 170.783352 216.155987 
L 172.30517 216.155987 
L 172.30517 216.571065 
L 175.348807 216.621166 
L 175.348807 216.412777 
L 179.914261 216.411817 
L 179.914261 213.083131 
L 181.43608 213.083131 
L 181.43608 188.706106 
L 182.957898 188.706106 
L 182.957898 164.267067 
L 184.479716 164.267067 
L 184.479716 192.182248 
L 186.001534 192.182248 
L 186.001534 211.590201 
L 187.523352 211.590201 
L 187.523352 204.133754 
L 189.04517 204.133754 
L 189.04517 169.387282 
L 190.566989 169.387282 
L 190.566989 171.96468 
L 192.088807 171.96468 
L 192.088807 207.605029 
L 193.610625 207.605029 
L 193.610625 214.481224 
L 195.132443 214.481224 
L 195.132443 213.768306 
L 196.654261 213.768306 
L 196.654261 215.039214 
L 198.17608 215.039214 
L 198.17608 217.700068 
L 199.697898 217.700068 
L 199.697898 217.84117 
L 201.219716 217.84117 
L 201.219716 213.95351 
L 202.741534 213.95351 
L 202.741534 210.662054 
L 204.263352 210.662054 
L 204.263352 217.506115 
L 205.78517 217.506115 
L 205.78517 218.005002 
L 207.306989 218.005002 
L 207.306989 218.232913 
L 208.828807 218.232913 
L 208.828807 218.430271 
L 210.350625 218.430271 
L 210.350625 218.755458 
L 211.872443 218.755458 
L 211.872443 218.304823 
L 213.394261 218.304823 
L 213.394261 218.509076 
L 216.437898 218.427567 
L 216.437898 218.214799 
L 217.959716 218.214799 
L 217.959716 218.444008 
L 219.481534 218.444008 
L 219.481534 218.282344 
L 222.52517 218.17461 
L 222.52517 217.906182 
L 224.046989 217.906182 
L 224.046989 217.596458 
L 225.568807 217.596458 
L 225.568807 217.19044 
L 227.090625 217.19044 
L 227.090625 216.977616 
L 228.612443 216.977616 
L 228.612443 216.631956 
L 231.65608 216.622666 
L 231.65608 216.188703 
L 233.177898 216.188703 
L 233.177898 215.91631 
L 236.221534 215.806298 
L 236.221534 215.560296 
L 237.743352 215.560296 
L 237.743352 215.382787 
L 239.26517 215.382787 
L 239.26517 214.889885 
L 240.786989 214.889885 
L 240.786989 214.751105 
L 242.308807 214.751105 
L 242.308807 214.479547 
L 243.830625 214.479547 
L 243.830625 214.166577 
L 245.352443 214.166577 
L 245.352443 213.546009 
L 246.874261 213.546009 
L 246.874261 214.543181 
L 248.39608 214.543181 
L 248.39608 213.562632 
L 249.917898 213.562632 
L 249.917898 214.146115 
L 251.439716 214.146115 
L 251.439716 214.742269 
L 252.961534 214.742269 
L 252.961534 214.997632 
L 254.483352 214.997632 
L 254.483352 215.485906 
L 256.00517 215.485906 
L 256.00517 215.752806 
L 259.048807 215.715041 
L 259.048807 215.571933 
L 260.570625 215.571933 
L 260.570625 215.443123 
L 262.092443 215.443123 
L 262.092443 216.072397 
L 263.614261 216.072397 
L 263.614261 215.779478 
L 265.13608 215.779478 
L 265.13608 216.136812 
L 266.657898 216.136812 
L 266.657898 216.290598 
L 268.179716 216.290598 
L 268.179716 216.460875 
L 272.74517 216.356879 
L 272.74517 216.323458 
L 274.266989 216.323458 
L 274.266989 216.452623 
L 275.788807 216.452623 
L 275.788807 216.708654 
L 280.354261 216.626861 
L 280.354261 216.530752 
L 287.963352 216.600104 
L 287.963352 216.69928 
L 291.006989 216.714443 
L 291.006989 216.523115 
L 292.528807 216.523115 
L 292.528807 216.407858 
L 294.050625 216.407858 
L 294.050625 216.700925 
L 297.094261 216.759385 
L 297.094261 216.846846 
L 298.61608 216.846846 
L 298.61608 217.151392 
L 300.137898 217.151392 
L 300.137898 217.022049 
L 301.659716 217.022049 
L 301.659716 216.817925 
L 306.22517 216.710786 
L 306.22517 216.659427 
L 307.746989 216.659427 
L 307.746989 216.429638 
L 309.268807 216.429638 
L 309.268807 216.786433 
L 310.790625 216.786433 
L 310.790625 216.570877 
L 312.312443 216.570877 
L 312.312443 216.370274 
L 315.35608 216.472333 
L 315.35608 216.66327 
L 316.877898 216.66327 
L 316.877898 216.175691 
L 321.443352 216.145308 
L 321.443352 216.463415 
L 322.96517 216.463415 
L 322.96517 215.989594 
L 324.486989 215.989594 
L 324.486989 215.272501 
L 326.008807 215.272501 
L 326.008807 214.819291 
L 327.530625 214.819291 
L 327.530625 213.521963 
L 329.052443 213.521963 
L 329.052443 210.770391 
L 330.574261 210.770391 
L 330.574261 205.398668 
L 332.09608 205.398668 
L 332.09608 192.468674 
L 333.617898 192.468674 
L 333.617898 149.215641 
L 335.139716 149.215641 
L 335.139716 35.656878 
L 336.661534 35.656878 
L 336.661534 17.860433 
L 338.183352 17.860433 
L 338.183352 134.078478 
L 339.70517 134.078478 
L 339.70517 186.526913 
L 341.226989 186.526913 
L 341.226989 199.466242 
L 342.748807 199.466242 
L 342.748807 207.955735 
L 344.270625 207.955735 
L 344.270625 211.706001 
L 345.792443 211.706001 
L 345.792443 213.637893 
L 347.314261 213.637893 
L 347.314261 215.580816 
L 348.83608 215.580816 
L 348.83608 216.003703 
L 350.357898 216.003703 
L 350.357898 216.355392 
L 351.879716 216.355392 
L 351.879716 216.61377 
L 357.966989 216.559448 
L 357.966989 216.340967 
L 359.488807 216.340967 
L 359.488807 215.744518 
L 361.010625 215.744518 
L 361.010625 215.534874 
L 362.532443 215.534874 
L 362.532443 215.708557 
L 364.054261 215.708557 
L 364.054261 216.514014 
L 365.57608 216.514014 
L 365.57608 216.861476 
L 367.097898 216.861476 
L 367.097898 216.745728 
L 368.619716 216.745728 
L 368.619716 217.097667 
L 370.141534 217.097667 
L 370.141534 216.784266 
L 371.663352 216.784266 
L 371.663352 216.967348 
L 379.272443 217.04639 
L 379.272443 217.04639 
" clip-path="url(#p48c785683c)" style="fill: none; stroke: #1f77b4; stroke-width: 1.5; stroke-linecap: square"/>
   </g>
   <g id="LineCollection_1">
    <path d="M 75.669716 217.683064 
L 75.669716 217.541579 
" clip-path="url(#p48c785683c)" style="fill: none; stroke: #1f77b4; stroke-width: 1.5"/>
    <path d="M 77.191534 218.185672 
L 77.191534 217.961948 
" clip-path="url(#p48c785683c)" style="fill: none; stroke: #1f77b4; stroke-width: 1.5"/>
    <path d="M 78.713352 218.149865 
L 78.713352 217.92549 
" clip-path="url(#p48c785683c)" style="fill: none; stroke: #1f77b4; stroke-width: 1.5"/>
    <path d="M 80.23517 218.203461 
L 80.23517 217.980615 
" clip-path="url(#p48c785683c)" style="fill: none; stroke: #1f77b4; stroke-width: 1.5"/>
    <path d="M 81.756989 218.492732 
L 81.756989 218.238503 
" clip-path="url(#p48c785683c)" style="fill: none; stroke: #1f77b4; stroke-width: 1.5"/>
    <path d="M 83.278807 218.269695 
L 83.278807 218.04989 
" clip-path="url(#p48c785683c)" style="fill: none; stroke: #1f77b4; stroke-width: 1.5"/>
    <path d="M 84.800625 218.170834 
L 84.800625 217.944659 
" clip-path="url(#p48c785683c)" style="fill: none; stroke: #1f77b4; stroke-width: 1.5"/>
    <path d="M 86.322443 218.36268 
L 86.322443 218.090851 
" clip-path="url(#p48c785683c)" style="fill: none; stroke: #1f77b4; stroke-width: 1.5"/>
    <path d="M 87.844261 218.274728 
L 87.844261 217.984657 
" clip-path="url(#p48c785683c)" style="fill: none; stroke: #1f77b4; stroke-width: 1.5"/>
    <path d="M 89.36608 218.30356 
L 89.36608 218.0214 
" clip-path="url(#p48c785683c)" style="fill: none; stroke: #1f77b4; stroke-width: 1.5"/>
    <path d="M 90.887898 218.261011 
L 90.887898 217.969689 
" clip-path="url(#p48c785683c)" style="fill: none; stroke: #1f77b4; stroke-width: 1.5"/>
    <path d="M 92.409716 218.466673 
L 92.409716 218.176017 
" clip-path="url(#p48c785683c)" style="fill: none; stroke: #1f77b4; stroke-width: 1.5"/>
    <path d="M 93.931534 217.867906 
L 93.931534 217.594091 
" clip-path="url(#p48c785683c)" style="fill: none; stroke: #1f77b4; stroke-width: 1.5"/>
    <path d="M 95.453352 217.928482 
L 95.453352 217.612792 
" clip-path="url(#p48c785683c)" style="fill: none; stroke: #1f77b4; stroke-width: 1.5"/>
    <path d="M 96.97517 217.81522 
L 96.97517 217.523332 
" clip-path="url(#p48c785683c)" style="fill: none; stroke: #1f77b4; stroke-width: 1.5"/>
    <path d="M 98.496989 217.682839 
L 98.496989 217.352001 
" clip-path="url(#p48c785683c)" style="fill: none; stroke: #1f77b4; stroke-width: 1.5"/>
    <path d="M 100.018807 217.717227 
L 100.018807 217.396094 
" clip-path="url(#p48c785683c)" style="fill: none; stroke: #1f77b4; stroke-width: 1.5"/>
    <path d="M 101.540625 217.720817 
L 101.540625 217.409831 
" clip-path="url(#p48c785683c)" style="fill: none; stroke: #1f77b4; stroke-width: 1.5"/>
    <path d="M 103.062443 217.516956 
L 103.062443 217.227737 
" clip-path="url(#p48c785683c)" style="fill: none; stroke: #1f77b4; stroke-width: 1.5"/>
    <path d="M 104.584261 217.210748 
L 104.584261 216.906928 
" clip-path="url(#p48c785683c)" style="fill: none; stroke: #1f77b4; stroke-width: 1.5"/>
    <path d="M 106.10608 211.365521 
L 106.10608 210.863277 
" clip-path="url(#p48c785683c)" style="fill: none; stroke: #1f77b4; stroke-width: 1.5"/>
    <path d="M 107.627898 209.980496 
L 107.627898 209.460748 
" clip-path="url(#p48c785683c)" style="fill: none; stroke: #1f77b4; stroke-width: 1.5"/>
    <path d="M 109.149716 210.380035 
L 109.149716 209.876122 
" clip-path="url(#p48c785683c)" style="fill: none; stroke: #1f77b4; stroke-width: 1.5"/>
    <path d="M 110.671534 202.206032 
L 110.671534 201.575717 
" clip-path="url(#p48c785683c)" style="fill: none; stroke: #1f77b4; stroke-width: 1.5"/>
    <path d="M 112.193352 207.018996 
L 112.193352 206.457506 
" clip-path="url(#p48c785683c)" style="fill: none; stroke: #1f77b4; stroke-width: 1.5"/>
    <path d="M 113.71517 215.922216 
L 113.71517 215.544432 
" clip-path="url(#p48c785683c)" style="fill: none; stroke: #1f77b4; stroke-width: 1.5"/>
    <path d="M 115.236989 217.155007 
L 115.236989 216.846468 
" clip-path="url(#p48c785683c)" style="fill: none; stroke: #1f77b4; stroke-width: 1.5"/>
    <path d="M 116.758807 217.131121 
L 116.758807 216.83087 
" clip-path="url(#p48c785683c)" style="fill: none; stroke: #1f77b4; stroke-width: 1.5"/>
    <path d="M 118.280625 214.211793 
L 118.280625 213.838184 
" clip-path="url(#p48c785683c)" style="fill: none; stroke: #1f77b4; stroke-width: 1.5"/>
    <path d="M 119.802443 205.583732 
L 119.802443 204.989015 
" clip-path="url(#p48c785683c)" style="fill: none; stroke: #1f77b4; stroke-width: 1.5"/>
    <path d="M 121.324261 209.011014 
L 121.324261 208.489676 
" clip-path="url(#p48c785683c)" style="fill: none; stroke: #1f77b4; stroke-width: 1.5"/>
    <path d="M 122.84608 209.264999 
L 122.84608 208.776778 
" clip-path="url(#p48c785683c)" style="fill: none; stroke: #1f77b4; stroke-width: 1.5"/>
    <path d="M 124.367898 201.39257 
L 124.367898 200.735665 
" clip-path="url(#p48c785683c)" style="fill: none; stroke: #1f77b4; stroke-width: 1.5"/>
    <path d="M 125.889716 209.892102 
L 125.889716 209.369634 
" clip-path="url(#p48c785683c)" style="fill: none; stroke: #1f77b4; stroke-width: 1.5"/>
    <path d="M 127.411534 216.052975 
L 127.411534 215.674829 
" clip-path="url(#p48c785683c)" style="fill: none; stroke: #1f77b4; stroke-width: 1.5"/>
    <path d="M 128.933352 216.390304 
L 128.933352 216.081356 
" clip-path="url(#p48c785683c)" style="fill: none; stroke: #1f77b4; stroke-width: 1.5"/>
    <path d="M 130.45517 210.726469 
L 130.45517 210.272749 
" clip-path="url(#p48c785683c)" style="fill: none; stroke: #1f77b4; stroke-width: 1.5"/>
    <path d="M 131.976989 188.071389 
L 131.976989 187.271533 
" clip-path="url(#p48c785683c)" style="fill: none; stroke: #1f77b4; stroke-width: 1.5"/>
    <path d="M 133.498807 191.959044 
L 133.498807 191.259922 
" clip-path="url(#p48c785683c)" style="fill: none; stroke: #1f77b4; stroke-width: 1.5"/>
    <path d="M 135.020625 211.541036 
L 135.020625 211.097839 
" clip-path="url(#p48c785683c)" style="fill: none; stroke: #1f77b4; stroke-width: 1.5"/>
    <path d="M 136.542443 215.661318 
L 136.542443 215.307893 
" clip-path="url(#p48c785683c)" style="fill: none; stroke: #1f77b4; stroke-width: 1.5"/>
    <path d="M 138.064261 216.746585 
L 138.064261 216.433974 
" clip-path="url(#p48c785683c)" style="fill: none; stroke: #1f77b4; stroke-width: 1.5"/>
    <path d="M 139.58608 215.917538 
L 139.58608 215.599208 
" clip-path="url(#p48c785683c)" style="fill: none; stroke: #1f77b4; stroke-width: 1.5"/>
    <path d="M 141.107898 216.395668 
L 141.107898 216.079487 
" clip-path="url(#p48c785683c)" style="fill: none; stroke: #1f77b4; stroke-width: 1.5"/>
    <path d="M 142.629716 216.09304 
L 142.629716 215.76926 
" clip-path="url(#p48c785683c)" style="fill: none; stroke: #1f77b4; stroke-width: 1.5"/>
    <path d="M 144.151534 215.788246 
L 144.151534 215.49088 
" clip-path="url(#p48c785683c)" style="fill: none; stroke: #1f77b4; stroke-width: 1.5"/>
    <path d="M 145.673352 216.171332 
L 145.673352 215.857105 
" clip-path="url(#p48c785683c)" style="fill: none; stroke: #1f77b4; stroke-width: 1.5"/>
    <path d="M 147.19517 216.140783 
L 147.19517 215.833934 
" clip-path="url(#p48c785683c)" style="fill: none; stroke: #1f77b4; stroke-width: 1.5"/>
    <path d="M 148.716989 215.770749 
L 148.716989 215.446902 
" clip-path="url(#p48c785683c)" style="fill: none; stroke: #1f77b4; stroke-width: 1.5"/>
    <path d="M 150.238807 208.019784 
L 150.238807 207.536286 
" clip-path="url(#p48c785683c)" style="fill: none; stroke: #1f77b4; stroke-width: 1.5"/>
    <path d="M 151.760625 191.218867 
L 151.760625 190.550719 
" clip-path="url(#p48c785683c)" style="fill: none; stroke: #1f77b4; stroke-width: 1.5"/>
    <path d="M 153.282443 196.464314 
L 153.282443 195.85589 
" clip-path="url(#p48c785683c)" style="fill: none; stroke: #1f77b4; stroke-width: 1.5"/>
    <path d="M 154.804261 212.717417 
L 154.804261 212.305639 
" clip-path="url(#p48c785683c)" style="fill: none; stroke: #1f77b4; stroke-width: 1.5"/>
    <path d="M 156.32608 215.792431 
L 156.32608 215.485893 
" clip-path="url(#p48c785683c)" style="fill: none; stroke: #1f77b4; stroke-width: 1.5"/>
    <path d="M 157.847898 216.170352 
L 157.847898 215.875112 
" clip-path="url(#p48c785683c)" style="fill: none; stroke: #1f77b4; stroke-width: 1.5"/>
    <path d="M 159.369716 216.208673 
L 159.369716 215.889646 
" clip-path="url(#p48c785683c)" style="fill: none; stroke: #1f77b4; stroke-width: 1.5"/>
    <path d="M 160.891534 210.412876 
L 160.891534 210.000347 
" clip-path="url(#p48c785683c)" style="fill: none; stroke: #1f77b4; stroke-width: 1.5"/>
    <path d="M 162.413352 187.771401 
L 162.413352 187.156329 
" clip-path="url(#p48c785683c)" style="fill: none; stroke: #1f77b4; stroke-width: 1.5"/>
    <path d="M 163.93517 186.225807 
L 163.93517 185.504377 
" clip-path="url(#p48c785683c)" style="fill: none; stroke: #1f77b4; stroke-width: 1.5"/>
    <path d="M 165.456989 209.963692 
L 165.456989 209.529805 
" clip-path="url(#p48c785683c)" style="fill: none; stroke: #1f77b4; stroke-width: 1.5"/>
    <path d="M 166.978807 215.230658 
L 166.978807 214.921764 
" clip-path="url(#p48c785683c)" style="fill: none; stroke: #1f77b4; stroke-width: 1.5"/>
    <path d="M 168.500625 216.072343 
L 168.500625 215.751552 
" clip-path="url(#p48c785683c)" style="fill: none; stroke: #1f77b4; stroke-width: 1.5"/>
    <path d="M 170.022443 216.135732 
L 170.022443 215.819648 
" clip-path="url(#p48c785683c)" style="fill: none; stroke: #1f77b4; stroke-width: 1.5"/>
    <path d="M 171.544261 216.311585 
L 171.544261 216.00039 
" clip-path="url(#p48c785683c)" style="fill: none; stroke: #1f77b4; stroke-width: 1.5"/>
    <path d="M 173.06608 216.714643 
L 173.06608 216.427487 
" clip-path="url(#p48c785683c)" style="fill: none; stroke: #1f77b4; stroke-width: 1.5"/>
    <path d="M 174.587898 216.771347 
L 174.587898 216.470985 
" clip-path="url(#p48c785683c)" style="fill: none; stroke: #1f77b4; stroke-width: 1.5"/>
    <path d="M 176.109716 216.546129 
L 176.109716 216.279425 
" clip-path="url(#p48c785683c)" style="fill: none; stroke: #1f77b4; stroke-width: 1.5"/>
    <path d="M 177.631534 216.522702 
L 177.631534 216.256778 
" clip-path="url(#p48c785683c)" style="fill: none; stroke: #1f77b4; stroke-width: 1.5"/>
    <path d="M 179.153352 216.556732 
L 179.153352 216.266902 
" clip-path="url(#p48c785683c)" style="fill: none; stroke: #1f77b4; stroke-width: 1.5"/>
    <path d="M 180.67517 213.262705 
L 180.67517 212.903557 
" clip-path="url(#p48c785683c)" style="fill: none; stroke: #1f77b4; stroke-width: 1.5"/>
    <path d="M 182.196989 189.056464 
L 182.196989 188.355747 
" clip-path="url(#p48c785683c)" style="fill: none; stroke: #1f77b4; stroke-width: 1.5"/>
    <path d="M 183.718807 164.73213 
L 183.718807 163.802005 
" clip-path="url(#p48c785683c)" style="fill: none; stroke: #1f77b4; stroke-width: 1.5"/>
    <path d="M 185.240625 192.483175 
L 185.240625 191.881321 
" clip-path="url(#p48c785683c)" style="fill: none; stroke: #1f77b4; stroke-width: 1.5"/>
    <path d="M 186.762443 211.803375 
L 186.762443 211.377028 
" clip-path="url(#p48c785683c)" style="fill: none; stroke: #1f77b4; stroke-width: 1.5"/>
    <path d="M 188.284261 204.382782 
L 188.284261 203.884727 
" clip-path="url(#p48c785683c)" style="fill: none; stroke: #1f77b4; stroke-width: 1.5"/>
    <path d="M 189.80608 169.787973 
L 189.80608 168.986591 
" clip-path="url(#p48c785683c)" style="fill: none; stroke: #1f77b4; stroke-width: 1.5"/>
    <path d="M 191.327898 172.327653 
L 191.327898 171.601706 
" clip-path="url(#p48c785683c)" style="fill: none; stroke: #1f77b4; stroke-width: 1.5"/>
    <path d="M 192.849716 207.84548 
L 192.849716 207.364578 
" clip-path="url(#p48c785683c)" style="fill: none; stroke: #1f77b4; stroke-width: 1.5"/>
    <path d="M 194.371534 214.680454 
L 194.371534 214.281993 
" clip-path="url(#p48c785683c)" style="fill: none; stroke: #1f77b4; stroke-width: 1.5"/>
    <path d="M 195.893352 213.972207 
L 195.893352 213.564404 
" clip-path="url(#p48c785683c)" style="fill: none; stroke: #1f77b4; stroke-width: 1.5"/>
    <path d="M 197.41517 215.207465 
L 197.41517 214.870962 
" clip-path="url(#p48c785683c)" style="fill: none; stroke: #1f77b4; stroke-width: 1.5"/>
    <path d="M 198.936989 217.821922 
L 198.936989 217.578215 
" clip-path="url(#p48c785683c)" style="fill: none; stroke: #1f77b4; stroke-width: 1.5"/>
    <path d="M 200.458807 217.954618 
L 200.458807 217.727723 
" clip-path="url(#p48c785683c)" style="fill: none; stroke: #1f77b4; stroke-width: 1.5"/>
    <path d="M 201.980625 214.14603 
L 201.980625 213.760991 
" clip-path="url(#p48c785683c)" style="fill: none; stroke: #1f77b4; stroke-width: 1.5"/>
    <path d="M 203.502443 210.83267 
L 203.502443 210.491438 
" clip-path="url(#p48c785683c)" style="fill: none; stroke: #1f77b4; stroke-width: 1.5"/>
    <path d="M 205.024261 217.640983 
L 205.024261 217.371248 
" clip-path="url(#p48c785683c)" style="fill: none; stroke: #1f77b4; stroke-width: 1.5"/>
    <path d="M 206.54608 218.127965 
L 206.54608 217.882038 
" clip-path="url(#p48c785683c)" style="fill: none; stroke: #1f77b4; stroke-width: 1.5"/>
    <path d="M 208.067898 218.354967 
L 208.067898 218.110858 
" clip-path="url(#p48c785683c)" style="fill: none; stroke: #1f77b4; stroke-width: 1.5"/>
    <path d="M 209.589716 218.561985 
L 209.589716 218.298557 
" clip-path="url(#p48c785683c)" style="fill: none; stroke: #1f77b4; stroke-width: 1.5"/>
    <path d="M 211.111534 218.88 
L 211.111534 218.630915 
" clip-path="url(#p48c785683c)" style="fill: none; stroke: #1f77b4; stroke-width: 1.5"/>
    <path d="M 212.633352 218.436087 
L 212.633352 218.173559 
" clip-path="url(#p48c785683c)" style="fill: none; stroke: #1f77b4; stroke-width: 1.5"/>
    <path d="M 214.15517 218.616654 
L 214.15517 218.401498 
" clip-path="url(#p48c785683c)" style="fill: none; stroke: #1f77b4; stroke-width: 1.5"/>
    <path d="M 215.676989 218.538679 
L 215.676989 218.316455 
" clip-path="url(#p48c785683c)" style="fill: none; stroke: #1f77b4; stroke-width: 1.5"/>
    <path d="M 217.198807 218.341263 
L 217.198807 218.088335 
" clip-path="url(#p48c785683c)" style="fill: none; stroke: #1f77b4; stroke-width: 1.5"/>
    <path d="M 218.720625 218.571264 
L 218.720625 218.316751 
" clip-path="url(#p48c785683c)" style="fill: none; stroke: #1f77b4; stroke-width: 1.5"/>
    <path d="M 220.242443 218.415036 
L 220.242443 218.149652 
" clip-path="url(#p48c785683c)" style="fill: none; stroke: #1f77b4; stroke-width: 1.5"/>
    <path d="M 221.764261 218.293029 
L 221.764261 218.056191 
" clip-path="url(#p48c785683c)" style="fill: none; stroke: #1f77b4; stroke-width: 1.5"/>
    <path d="M 223.28608 218.033287 
L 223.28608 217.779077 
" clip-path="url(#p48c785683c)" style="fill: none; stroke: #1f77b4; stroke-width: 1.5"/>
    <path d="M 224.807898 217.70699 
L 224.807898 217.485927 
" clip-path="url(#p48c785683c)" style="fill: none; stroke: #1f77b4; stroke-width: 1.5"/>
    <path d="M 226.329716 217.313617 
L 226.329716 217.067264 
" clip-path="url(#p48c785683c)" style="fill: none; stroke: #1f77b4; stroke-width: 1.5"/>
    <path d="M 227.851534 217.11491 
L 227.851534 216.840322 
" clip-path="url(#p48c785683c)" style="fill: none; stroke: #1f77b4; stroke-width: 1.5"/>
    <path d="M 229.373352 216.763453 
L 229.373352 216.500458 
" clip-path="url(#p48c785683c)" style="fill: none; stroke: #1f77b4; stroke-width: 1.5"/>
    <path d="M 230.89517 216.753927 
L 230.89517 216.491405 
" clip-path="url(#p48c785683c)" style="fill: none; stroke: #1f77b4; stroke-width: 1.5"/>
    <path d="M 232.416989 216.314967 
L 232.416989 216.062438 
" clip-path="url(#p48c785683c)" style="fill: none; stroke: #1f77b4; stroke-width: 1.5"/>
    <path d="M 233.938807 216.050106 
L 233.938807 215.782514 
" clip-path="url(#p48c785683c)" style="fill: none; stroke: #1f77b4; stroke-width: 1.5"/>
    <path d="M 235.460625 215.952078 
L 235.460625 215.660518 
" clip-path="url(#p48c785683c)" style="fill: none; stroke: #1f77b4; stroke-width: 1.5"/>
    <path d="M 236.982443 215.707192 
L 236.982443 215.4134 
" clip-path="url(#p48c785683c)" style="fill: none; stroke: #1f77b4; stroke-width: 1.5"/>
    <path d="M 238.504261 215.517699 
L 238.504261 215.247875 
" clip-path="url(#p48c785683c)" style="fill: none; stroke: #1f77b4; stroke-width: 1.5"/>
    <path d="M 240.02608 215.040449 
L 240.02608 214.739322 
" clip-path="url(#p48c785683c)" style="fill: none; stroke: #1f77b4; stroke-width: 1.5"/>
    <path d="M 241.547898 214.91447 
L 241.547898 214.58774 
" clip-path="url(#p48c785683c)" style="fill: none; stroke: #1f77b4; stroke-width: 1.5"/>
    <path d="M 243.069716 214.627788 
L 243.069716 214.331305 
" clip-path="url(#p48c785683c)" style="fill: none; stroke: #1f77b4; stroke-width: 1.5"/>
    <path d="M 244.591534 214.343087 
L 244.591534 213.990068 
" clip-path="url(#p48c785683c)" style="fill: none; stroke: #1f77b4; stroke-width: 1.5"/>
    <path d="M 246.113352 213.74654 
L 246.113352 213.345477 
" clip-path="url(#p48c785683c)" style="fill: none; stroke: #1f77b4; stroke-width: 1.5"/>
    <path d="M 247.63517 214.706507 
L 247.63517 214.379856 
" clip-path="url(#p48c785683c)" style="fill: none; stroke: #1f77b4; stroke-width: 1.5"/>
    <path d="M 249.156989 213.748465 
L 249.156989 213.376799 
" clip-path="url(#p48c785683c)" style="fill: none; stroke: #1f77b4; stroke-width: 1.5"/>
    <path d="M 250.678807 214.320147 
L 250.678807 213.972084 
" clip-path="url(#p48c785683c)" style="fill: none; stroke: #1f77b4; stroke-width: 1.5"/>
    <path d="M 252.200625 214.879748 
L 252.200625 214.604791 
" clip-path="url(#p48c785683c)" style="fill: none; stroke: #1f77b4; stroke-width: 1.5"/>
    <path d="M 253.722443 215.143821 
L 253.722443 214.851443 
" clip-path="url(#p48c785683c)" style="fill: none; stroke: #1f77b4; stroke-width: 1.5"/>
    <path d="M 255.244261 215.615904 
L 255.244261 215.355909 
" clip-path="url(#p48c785683c)" style="fill: none; stroke: #1f77b4; stroke-width: 1.5"/>
    <path d="M 256.76608 215.879457 
L 256.76608 215.626156 
" clip-path="url(#p48c785683c)" style="fill: none; stroke: #1f77b4; stroke-width: 1.5"/>
    <path d="M 258.287898 215.848167 
L 258.287898 215.581916 
" clip-path="url(#p48c785683c)" style="fill: none; stroke: #1f77b4; stroke-width: 1.5"/>
    <path d="M 259.809716 215.701065 
L 259.809716 215.442801 
" clip-path="url(#p48c785683c)" style="fill: none; stroke: #1f77b4; stroke-width: 1.5"/>
    <path d="M 261.331534 215.602507 
L 261.331534 215.283739 
" clip-path="url(#p48c785683c)" style="fill: none; stroke: #1f77b4; stroke-width: 1.5"/>
    <path d="M 262.853352 216.210186 
L 262.853352 215.934608 
" clip-path="url(#p48c785683c)" style="fill: none; stroke: #1f77b4; stroke-width: 1.5"/>
    <path d="M 264.37517 215.919919 
L 264.37517 215.639038 
" clip-path="url(#p48c785683c)" style="fill: none; stroke: #1f77b4; stroke-width: 1.5"/>
    <path d="M 265.896989 216.252569 
L 265.896989 216.021055 
" clip-path="url(#p48c785683c)" style="fill: none; stroke: #1f77b4; stroke-width: 1.5"/>
    <path d="M 267.418807 216.409742 
L 267.418807 216.171455 
" clip-path="url(#p48c785683c)" style="fill: none; stroke: #1f77b4; stroke-width: 1.5"/>
    <path d="M 268.940625 216.58948 
L 268.940625 216.33227 
" clip-path="url(#p48c785683c)" style="fill: none; stroke: #1f77b4; stroke-width: 1.5"/>
    <path d="M 270.462443 216.506746 
L 270.462443 216.237363 
" clip-path="url(#p48c785683c)" style="fill: none; stroke: #1f77b4; stroke-width: 1.5"/>
    <path d="M 271.984261 216.478137 
L 271.984261 216.235622 
" clip-path="url(#p48c785683c)" style="fill: none; stroke: #1f77b4; stroke-width: 1.5"/>
    <path d="M 273.50608 216.438123 
L 273.50608 216.208794 
" clip-path="url(#p48c785683c)" style="fill: none; stroke: #1f77b4; stroke-width: 1.5"/>
    <path d="M 275.027898 216.571264 
L 275.027898 216.333982 
" clip-path="url(#p48c785683c)" style="fill: none; stroke: #1f77b4; stroke-width: 1.5"/>
    <path d="M 276.549716 216.82246 
L 276.549716 216.594847 
" clip-path="url(#p48c785683c)" style="fill: none; stroke: #1f77b4; stroke-width: 1.5"/>
    <path d="M 278.071534 216.760899 
L 278.071534 216.503446 
" clip-path="url(#p48c785683c)" style="fill: none; stroke: #1f77b4; stroke-width: 1.5"/>
    <path d="M 279.593352 216.750788 
L 279.593352 216.502935 
" clip-path="url(#p48c785683c)" style="fill: none; stroke: #1f77b4; stroke-width: 1.5"/>
    <path d="M 281.11517 216.66859 
L 281.11517 216.392915 
" clip-path="url(#p48c785683c)" style="fill: none; stroke: #1f77b4; stroke-width: 1.5"/>
    <path d="M 282.636989 216.580964 
L 282.636989 216.308271 
" clip-path="url(#p48c785683c)" style="fill: none; stroke: #1f77b4; stroke-width: 1.5"/>
    <path d="M 284.158807 216.646885 
L 284.158807 216.385751 
" clip-path="url(#p48c785683c)" style="fill: none; stroke: #1f77b4; stroke-width: 1.5"/>
    <path d="M 285.680625 216.592265 
L 285.680625 216.354942 
" clip-path="url(#p48c785683c)" style="fill: none; stroke: #1f77b4; stroke-width: 1.5"/>
    <path d="M 287.202443 216.719399 
L 287.202443 216.48081 
" clip-path="url(#p48c785683c)" style="fill: none; stroke: #1f77b4; stroke-width: 1.5"/>
    <path d="M 288.724261 216.819636 
L 288.724261 216.578924 
" clip-path="url(#p48c785683c)" style="fill: none; stroke: #1f77b4; stroke-width: 1.5"/>
    <path d="M 290.24608 216.845495 
L 290.24608 216.583391 
" clip-path="url(#p48c785683c)" style="fill: none; stroke: #1f77b4; stroke-width: 1.5"/>
    <path d="M 291.767898 216.6424 
L 291.767898 216.403831 
" clip-path="url(#p48c785683c)" style="fill: none; stroke: #1f77b4; stroke-width: 1.5"/>
    <path d="M 293.289716 216.538839 
L 293.289716 216.276878 
" clip-path="url(#p48c785683c)" style="fill: none; stroke: #1f77b4; stroke-width: 1.5"/>
    <path d="M 294.811534 216.825387 
L 294.811534 216.576463 
" clip-path="url(#p48c785683c)" style="fill: none; stroke: #1f77b4; stroke-width: 1.5"/>
    <path d="M 296.333352 216.89626 
L 296.333352 216.62251 
" clip-path="url(#p48c785683c)" style="fill: none; stroke: #1f77b4; stroke-width: 1.5"/>
    <path d="M 297.85517 216.966758 
L 297.85517 216.726934 
" clip-path="url(#p48c785683c)" style="fill: none; stroke: #1f77b4; stroke-width: 1.5"/>
    <path d="M 299.376989 217.283876 
L 299.376989 217.018908 
" clip-path="url(#p48c785683c)" style="fill: none; stroke: #1f77b4; stroke-width: 1.5"/>
    <path d="M 300.898807 217.149971 
L 300.898807 216.894126 
" clip-path="url(#p48c785683c)" style="fill: none; stroke: #1f77b4; stroke-width: 1.5"/>
    <path d="M 302.420625 216.932037 
L 302.420625 216.703813 
" clip-path="url(#p48c785683c)" style="fill: none; stroke: #1f77b4; stroke-width: 1.5"/>
    <path d="M 303.942443 216.852051 
L 303.942443 216.589068 
" clip-path="url(#p48c785683c)" style="fill: none; stroke: #1f77b4; stroke-width: 1.5"/>
    <path d="M 305.464261 216.823268 
L 305.464261 216.598303 
" clip-path="url(#p48c785683c)" style="fill: none; stroke: #1f77b4; stroke-width: 1.5"/>
    <path d="M 306.98608 216.779502 
L 306.98608 216.539351 
" clip-path="url(#p48c785683c)" style="fill: none; stroke: #1f77b4; stroke-width: 1.5"/>
    <path d="M 308.507898 216.555279 
L 308.507898 216.303997 
" clip-path="url(#p48c785683c)" style="fill: none; stroke: #1f77b4; stroke-width: 1.5"/>
    <path d="M 310.029716 216.917048 
L 310.029716 216.655818 
" clip-path="url(#p48c785683c)" style="fill: none; stroke: #1f77b4; stroke-width: 1.5"/>
    <path d="M 311.551534 216.688213 
L 311.551534 216.453541 
" clip-path="url(#p48c785683c)" style="fill: none; stroke: #1f77b4; stroke-width: 1.5"/>
    <path d="M 313.073352 216.511233 
L 313.073352 216.229315 
" clip-path="url(#p48c785683c)" style="fill: none; stroke: #1f77b4; stroke-width: 1.5"/>
    <path d="M 314.59517 216.603946 
L 314.59517 216.34072 
" clip-path="url(#p48c785683c)" style="fill: none; stroke: #1f77b4; stroke-width: 1.5"/>
    <path d="M 316.116989 216.79887 
L 316.116989 216.52767 
" clip-path="url(#p48c785683c)" style="fill: none; stroke: #1f77b4; stroke-width: 1.5"/>
    <path d="M 317.638807 216.300095 
L 317.638807 216.051287 
" clip-path="url(#p48c785683c)" style="fill: none; stroke: #1f77b4; stroke-width: 1.5"/>
    <path d="M 319.160625 216.366319 
L 319.160625 216.106272 
" clip-path="url(#p48c785683c)" style="fill: none; stroke: #1f77b4; stroke-width: 1.5"/>
    <path d="M 320.682443 216.269221 
L 320.682443 216.021395 
" clip-path="url(#p48c785683c)" style="fill: none; stroke: #1f77b4; stroke-width: 1.5"/>
    <path d="M 322.204261 216.589951 
L 322.204261 216.336879 
" clip-path="url(#p48c785683c)" style="fill: none; stroke: #1f77b4; stroke-width: 1.5"/>
    <path d="M 323.72608 216.141476 
L 323.72608 215.837712 
" clip-path="url(#p48c785683c)" style="fill: none; stroke: #1f77b4; stroke-width: 1.5"/>
    <path d="M 325.247898 215.431614 
L 325.247898 215.113387 
" clip-path="url(#p48c785683c)" style="fill: none; stroke: #1f77b4; stroke-width: 1.5"/>
    <path d="M 326.769716 214.982306 
L 326.769716 214.656276 
" clip-path="url(#p48c785683c)" style="fill: none; stroke: #1f77b4; stroke-width: 1.5"/>
    <path d="M 328.291534 213.707708 
L 328.291534 213.336218 
" clip-path="url(#p48c785683c)" style="fill: none; stroke: #1f77b4; stroke-width: 1.5"/>
    <path d="M 329.813352 210.995569 
L 329.813352 210.545212 
" clip-path="url(#p48c785683c)" style="fill: none; stroke: #1f77b4; stroke-width: 1.5"/>
    <path d="M 331.33517 205.671326 
L 331.33517 205.12601 
" clip-path="url(#p48c785683c)" style="fill: none; stroke: #1f77b4; stroke-width: 1.5"/>
    <path d="M 332.856989 192.838688 
L 332.856989 192.098661 
" clip-path="url(#p48c785683c)" style="fill: none; stroke: #1f77b4; stroke-width: 1.5"/>
    <path d="M 334.378807 149.687629 
L 334.378807 148.743654 
" clip-path="url(#p48c785683c)" style="fill: none; stroke: #1f77b4; stroke-width: 1.5"/>
    <path d="M 335.900625 36.201395 
L 335.900625 35.112362 
" clip-path="url(#p48c785683c)" style="fill: none; stroke: #1f77b4; stroke-width: 1.5"/>
    <path d="M 337.422443 18.440865 
L 337.422443 17.28 
" clip-path="url(#p48c785683c)" style="fill: none; stroke: #1f77b4; stroke-width: 1.5"/>
    <path d="M 338.944261 134.509655 
L 338.944261 133.647302 
" clip-path="url(#p48c785683c)" style="fill: none; stroke: #1f77b4; stroke-width: 1.5"/>
    <path d="M 340.46608 186.883261 
L 340.46608 186.170566 
" clip-path="url(#p48c785683c)" style="fill: none; stroke: #1f77b4; stroke-width: 1.5"/>
    <path d="M 341.987898 199.819095 
L 341.987898 199.113388 
" clip-path="url(#p48c785683c)" style="fill: none; stroke: #1f77b4; stroke-width: 1.5"/>
    <path d="M 343.509716 208.226637 
L 343.509716 207.684834 
" clip-path="url(#p48c785683c)" style="fill: none; stroke: #1f77b4; stroke-width: 1.5"/>
    <path d="M 345.031534 211.935884 
L 345.031534 211.476117 
" clip-path="url(#p48c785683c)" style="fill: none; stroke: #1f77b4; stroke-width: 1.5"/>
    <path d="M 346.553352 213.845234 
L 346.553352 213.430553 
" clip-path="url(#p48c785683c)" style="fill: none; stroke: #1f77b4; stroke-width: 1.5"/>
    <path d="M 348.07517 215.73963 
L 348.07517 215.422002 
" clip-path="url(#p48c785683c)" style="fill: none; stroke: #1f77b4; stroke-width: 1.5"/>
    <path d="M 349.596989 216.157366 
L 349.596989 215.85004 
" clip-path="url(#p48c785683c)" style="fill: none; stroke: #1f77b4; stroke-width: 1.5"/>
    <path d="M 351.118807 216.477075 
L 351.118807 216.233709 
" clip-path="url(#p48c785683c)" style="fill: none; stroke: #1f77b4; stroke-width: 1.5"/>
    <path d="M 352.640625 216.74429 
L 352.640625 216.483249 
" clip-path="url(#p48c785683c)" style="fill: none; stroke: #1f77b4; stroke-width: 1.5"/>
    <path d="M 354.162443 216.687508 
L 354.162443 216.487723 
" clip-path="url(#p48c785683c)" style="fill: none; stroke: #1f77b4; stroke-width: 1.5"/>
    <path d="M 355.684261 216.775227 
L 355.684261 216.596598 
" clip-path="url(#p48c785683c)" style="fill: none; stroke: #1f77b4; stroke-width: 1.5"/>
    <path d="M 357.20608 216.681765 
L 357.20608 216.437132 
" clip-path="url(#p48c785683c)" style="fill: none; stroke: #1f77b4; stroke-width: 1.5"/>
    <path d="M 358.727898 216.439071 
L 358.727898 216.242863 
" clip-path="url(#p48c785683c)" style="fill: none; stroke: #1f77b4; stroke-width: 1.5"/>
    <path d="M 360.249716 215.850031 
L 360.249716 215.639006 
" clip-path="url(#p48c785683c)" style="fill: none; stroke: #1f77b4; stroke-width: 1.5"/>
    <path d="M 361.771534 215.659272 
L 361.771534 215.410475 
" clip-path="url(#p48c785683c)" style="fill: none; stroke: #1f77b4; stroke-width: 1.5"/>
    <path d="M 363.293352 215.832976 
L 363.293352 215.584138 
" clip-path="url(#p48c785683c)" style="fill: none; stroke: #1f77b4; stroke-width: 1.5"/>
    <path d="M 364.81517 216.618732 
L 364.81517 216.409296 
" clip-path="url(#p48c785683c)" style="fill: none; stroke: #1f77b4; stroke-width: 1.5"/>
    <path d="M 366.336989 216.973425 
L 366.336989 216.749528 
" clip-path="url(#p48c785683c)" style="fill: none; stroke: #1f77b4; stroke-width: 1.5"/>
    <path d="M 367.858807 216.846693 
L 367.858807 216.644763 
" clip-path="url(#p48c785683c)" style="fill: none; stroke: #1f77b4; stroke-width: 1.5"/>
    <path d="M 369.380625 217.192431 
L 369.380625 217.002904 
" clip-path="url(#p48c785683c)" style="fill: none; stroke: #1f77b4; stroke-width: 1.5"/>
    <path d="M 370.902443 216.8865 
L 370.902443 216.682033 
" clip-path="url(#p48c785683c)" style="fill: none; stroke: #1f77b4; stroke-width: 1.5"/>
    <path d="M 372.424261 217.07081 
L 372.424261 216.863885 
" clip-path="url(#p48c785683c)" style="fill: none; stroke: #1f77b4; stroke-width: 1.5"/>
    <path d="M 373.94608 217.14615 
L 373.94608 216.968727 
" clip-path="url(#p48c785683c)" style="fill: none; stroke: #1f77b4; stroke-width: 1.5"/>
    <path d="M 375.467898 217.062874 
L 375.467898 216.892644 
" clip-path="url(#p48c785683c)" style="fill: none; stroke: #1f77b4; stroke-width: 1.5"/>
    <path d="M 376.989716 217.09093 
L 376.989716 216.917429 
" clip-path="url(#p48c785683c)" style="fill: none; stroke: #1f77b4; stroke-width: 1.5"/>
    <path d="M 378.511534 217.142623 
L 378.511534 216.950157 
" clip-path="url(#p48c785683c)" style="fill: none; stroke: #1f77b4; stroke-width: 1.5"/>
   </g>
   <g id="patch_3">
    <path d="M 59.690625 228.96 
L 59.690625 7.2 
" style="fill: none; stroke: #000000; stroke-width: 0.8; stroke-linejoin: miter; stroke-linecap: square"/>
   </g>
   <g id="patch_4">
    <path d="M 394.490625 228.96 
L 394.490625 7.2 
" style="fill: none; stroke: #000000; stroke-width: 0.8; stroke-linejoin: miter; stroke-linecap: square"/>
   </g>
   <g id="patch_5">
    <path d="M 59.690625 228.96 
L 394.490625 228.96 
" style="fill: none; stroke: #000000; stroke-width: 0.8; stroke-linejoin: miter; stroke-linecap: square"/>
   </g>
   <g id="patch_6">
    <path d="M 59.690625 7.2 
L 394.490625 7.2 
" style="fill: none; stroke: #000000; stroke-width: 0.8; stroke-linejoin: miter; stroke-linecap: square"/>
   </g>
  </g>
 </g>
 <defs>
  <clipPath id="p48c785683c">
   <rect x="59.690625" y="7.2" width="334.8" height="221.76"/>
  </clipPath>
 </defs>
</svg>
