<?xml version="1.0" encoding="utf-8" standalone="no"?>
<!DOCTYPE svg PUBLIC "-//W3C//DTD SVG 1.1//EN"
  "http://www.w3.org/Graphics/SVG/1.1/DTD/svg11.dtd">
<svg xmlns:xlink="http://www.w3.org/1999/xlink" width="382.603125pt" height="283.31875pt" viewBox="0 0 382.603125 283.31875" xmlns="http://www.w3.org/2000/svg" version="1.1">
 <metadata>
  <rdf:RDF xmlns:dc="http://purl.org/dc/elements/1.1/" xmlns:cc="http://creativecommons.org/ns#" xmlns:rdf="http://www.w3.org/1999/02/22-rdf-syntax-ns#">
   <cc:Work>
    <dc:type rdf:resource="http://purl.org/dc/dcmitype/StillImage"/>
    <dc:date>2026-04-22T09:39:54.515709</dc:date>
    <dc:format>image/svg+xml</dc:format>
    <dc:creator>
     <cc:Agent>
      <dc:title>Matplotlib v3.10.8, https://matplotlib.org/</dc:title>
     </cc:Agent>
    </dc:creator>
   </cc:Work>
  </rdf:RDF>
 </metadata>
 <defs>
  <style type="text/css">*{stroke-linejoin: round; stroke-linecap: butt}</style>
 </defs>
 <g id="figure_1">
  <g id="patch_1">
   <path d="M 0 283.31875 
L 382.603125 283.31875 
L 382.603125 0 
L 0 0 
z
" style="fill: #ffffff"/>
  </g>
  <g id="axes_1">
   <g id="patch_2">
    <path d="M 40.603125 244.078125 
L 375.403125 244.078125 
L 375.403125 22.318125 
L 40.603125 22.318125 
z
" style="fill: #ffffff"/>
   </g>
   <g id="matplotlib.axis_1">
    <g id="xtick_1">
     <g id="line2d_1">
      <defs>
       <path id="m262030a760" d="M 0 0 
L 0 3.5 
" style="stroke: #000000; stroke-width: 0.8"/>
      </defs>
      <g>
       <use xlink:href="#m262030a760" x="48.373826" y="244.078125" style="stroke: #000000; stroke-width: 0.8"/>
      </g>
     </g>
     <g id="text_1">
      <!-- 0.25 -->
      <g transform="translate(37.241014 258.676563) scale(0.1 -0.1)">
       <defs>
        <path id="DejaVuSans-30" d="M 2034 4250 
Q 1547 4250 1301 3770 
Q 1056 3291 1056 2328 
Q 1056 1369 1301 889 
Q 1547 409 2034 409 
Q 2525 409 2770 889 
Q 3016 1369 3016 2328 
Q 3016 3291 2770 3770 
Q 2525 4250 2034 4250 
z
M 2034 4750 
Q 2819 4750 3233 4129 
Q 3647 3509 3647 2328 
Q 3647 1150 3233 529 
Q 2819 -91 2034 -91 
Q 1250 -91 836 529 
Q 422 1150 422 2328 
Q 422 3509 836 4129 
Q 1250 4750 2034 4750 
z
" transform="scale(0.015625)"/>
        <path id="DejaVuSans-2e" d="M 684 794 
L 1344 794 
L 1344 0 
L 684 0 
L 684 794 
z
" transform="scale(0.015625)"/>
        <path id="DejaVuSans-32" d="M 1228 531 
L 3431 531 
L 3431 0 
L 469 0 
L 469 531 
Q 828 903 1448 1529 
Q 2069 2156 2228 2338 
Q 2531 2678 2651 2914 
Q 2772 3150 2772 3378 
Q 2772 3750 2511 3984 
Q 2250 4219 1831 4219 
Q 1534 4219 1204 4116 
Q 875 4013 500 3803 
L 500 4441 
Q 881 4594 1212 4672 
Q 1544 4750 1819 4750 
Q 2544 4750 2975 4387 
Q 3406 4025 3406 3419 
Q 3406 3131 3298 2873 
Q 3191 2616 2906 2266 
Q 2828 2175 2409 1742 
Q 1991 1309 1228 531 
z
" transform="scale(0.015625)"/>
        <path id="DejaVuSans-35" d="M 691 4666 
L 3169 4666 
L 3169 4134 
L 1269 4134 
L 1269 2991 
Q 1406 3038 1543 3061 
Q 1681 3084 1819 3084 
Q 2600 3084 3056 2656 
Q 3513 2228 3513 1497 
Q 3513 744 3044 326 
Q 2575 -91 1722 -91 
Q 1428 -91 1123 -41 
Q 819 9 494 109 
L 494 744 
Q 775 591 1075 516 
Q 1375 441 1709 441 
Q 2250 441 2565 725 
Q 2881 1009 2881 1497 
Q 2881 1984 2565 2268 
Q 2250 2553 1709 2553 
Q 1456 2553 1204 2497 
Q 953 2441 691 2322 
L 691 4666 
z
" transform="scale(0.015625)"/>
       </defs>
       <use xlink:href="#DejaVuSans-30"/>
       <use xlink:href="#DejaVuSans-2e" transform="translate(63.623047 0)"/>
       <use xlink:href="#DejaVuSans-32" transform="translate(95.410156 0)"/>
       <use xlink:href="#DejaVuSans-35" transform="translate(159.033203 0)"/>
      </g>
     </g>
    </g>
    <g id="xtick_2">
     <g id="line2d_2">
      <g>
       <use xlink:href="#m262030a760" x="85.611229" y="244.078125" style="stroke: #000000; stroke-width: 0.8"/>
      </g>
     </g>
     <g id="text_2">
      <!-- 0.50 -->
      <g transform="translate(74.478417 258.676563) scale(0.1 -0.1)">
       <use xlink:href="#DejaVuSans-30"/>
       <use xlink:href="#DejaVuSans-2e" transform="translate(63.623047 0)"/>
       <use xlink:href="#DejaVuSans-35" transform="translate(95.410156 0)"/>
       <use xlink:href="#DejaVuSans-30" transform="translate(159.033203 0)"/>
      </g>
     </g>
    </g>
    <g id="xtick_3">
     <g id="line2d_3">
      <g>
       <use xlink:href="#m262030a760" x="122.848632" y="244.078125" style="stroke: #000000; stroke-width: 0.8"/>
      </g>
     </g>
     <g id="text_3">
      <!-- 0.75 -->
      <g transform="translate(111.71582 258.676563) scale(0.1 -0.1)">
       <defs>
        <path id="DejaVuSans-37" d="M 525 4666 
L 3525 4666 
L 3525 4397 
L 1831 0 
L 1172 0 
L 2766 4134 
L 525 4134 
L 525 4666 
z
" transform="scale(0.015625)"/>
       </defs>
       <use xlink:href="#DejaVuSans-30"/>
       <use xlink:href="#DejaVuSans-2e" transform="translate(63.623047 0)"/>
       <use xlink:href="#DejaVuSans-37" transform="translate(95.410156 0)"/>
       <use xlink:href="#DejaVuSans-35" transform="translate(159.033203 0)"/>
      </g>
     </g>
    </g>
    <g id="xtick_4">
     <g id="line2d_4">
      <g>
       <use xlink:href="#m262030a760" x="160.086035" y="244.078125" style="stroke: #000000; stroke-width: 0.8"/>
      </g>
     </g>
     <g id="text_4">
      <!-- 1.00 -->
      <g transform="translate(148.953222 258.676563) scale(0.1 -0.1)">
       <defs>
        <path id="DejaVuSans-31" d="M 794 531 
L 1825 531 
L 1825 4091 
L 703 3866 
L 703 4441 
L 1819 4666 
L 2450 4666 
L 2450 531 
L 3481 531 
L 3481 0 
L 794 0 
L 794 531 
z
" transform="scale(0.015625)"/>
       </defs>
       <use xlink:href="#DejaVuSans-31"/>
       <use xlink:href="#DejaVuSans-2e" transform="translate(63.623047 0)"/>
       <use xlink:href="#DejaVuSans-30" transform="translate(95.410156 0)"/>
       <use xlink:href="#DejaVuSans-30" transform="translate(159.033203 0)"/>
      </g>
     </g>
    </g>
    <g id="xtick_5">
     <g id="line2d_5">
      <g>
       <use xlink:href="#m262030a760" x="197.323438" y="244.078125" style="stroke: #000000; stroke-width: 0.8"/>
      </g>
     </g>
     <g id="text_5">
      <!-- 1.25 -->
      <g transform="translate(186.190625 258.676563) scale(0.1 -0.1)">
       <use xlink:href="#DejaVuSans-31"/>
       <use xlink:href="#DejaVuSans-2e" transform="translate(63.623047 0)"/>
       <use xlink:href="#DejaVuSans-32" transform="translate(95.410156 0)"/>
       <use xlink:href="#DejaVuSans-35" transform="translate(159.033203 0)"/>
      </g>
     </g>
    </g>
    <g id="xtick_6">
     <g id="line2d_6">
      <g>
       <use xlink:href="#m262030a760" x="234.560841" y="244.078125" style="stroke: #000000; stroke-width: 0.8"/>
      </g>
     </g>
     <g id="text_6">
      <!-- 1.50 -->
      <g transform="translate(223.428028 258.676563) scale(0.1 -0.1)">
       <use xlink:href="#DejaVuSans-31"/>
       <use xlink:href="#DejaVuSans-2e" transform="translate(63.623047 0)"/>
       <use xlink:href="#DejaVuSans-35" transform="translate(95.410156 0)"/>
       <use xlink:href="#DejaVuSans-30" transform="translate(159.033203 0)"/>
      </g>
     </g>
    </g>
    <g id="xtick_7">
     <g id="line2d_7">
      <g>
       <use xlink:href="#m262030a760" x="271.798244" y="244.078125" style="stroke: #000000; stroke-width: 0.8"/>
      </g>
     </g>
     <g id="text_7">
      <!-- 1.75 -->
      <g transform="translate(260.665431 258.676563) scale(0.1 -0.1)">
       <use xlink:href="#DejaVuSans-31"/>
       <use xlink:href="#DejaVuSans-2e" transform="translate(63.623047 0)"/>
       <use xlink:href="#DejaVuSans-37" transform="translate(95.410156 0)"/>
       <use xlink:href="#DejaVuSans-35" transform="translate(159.033203 0)"/>
      </g>
     </g>
    </g>
    <g id="xtick_8">
     <g id="line2d_8">
      <g>
       <use xlink:href="#m262030a760" x="309.035647" y="244.078125" style="stroke: #000000; stroke-width: 0.8"/>
      </g>
     </g>
     <g id="text_8">
      <!-- 2.00 -->
      <g transform="translate(297.902834 258.676563) scale(0.1 -0.1)">
       <use xlink:href="#DejaVuSans-32"/>
       <use xlink:href="#DejaVuSans-2e" transform="translate(63.623047 0)"/>
       <use xlink:href="#DejaVuSans-30" transform="translate(95.410156 0)"/>
       <use xlink:href="#DejaVuSans-30" transform="translate(159.033203 0)"/>
      </g>
     </g>
    </g>
    <g id="xtick_9">
     <g id="line2d_9">
      <g>
       <use xlink:href="#m262030a760" x="346.273049" y="244.078125" style="stroke: #000000; stroke-width: 0.8"/>
      </g>
     </g>
     <g id="text_9">
      <!-- 2.25 -->
      <g transform="translate(335.140237 258.676563) scale(0.1 -0.1)">
       <use xlink:href="#DejaVuSans-32"/>
       <use xlink:href="#DejaVuSans-2e" transform="translate(63.623047 0)"/>
       <use xlink:href="#DejaVuSans-32" transform="translate(95.410156 0)"/>
       <use xlink:href="#DejaVuSans-35" transform="translate(159.033203 0)"/>
      </g>
     </g>
    </g>
    <g id="text_10">
     <!-- dspacing [Å] -->
     <g transform="translate(176.59375 274.039062) scale(0.1 -0.1)">
      <defs>
       <path id="DejaVuSans-64" d="M 2906 2969 
L 2906 4863 
L 3481 4863 
L 3481 0 
L 2906 0 
L 2906 525 
Q 2725 213 2448 61 
Q 2172 -91 1784 -91 
Q 1150 -91 751 415 
Q 353 922 353 1747 
Q 353 2572 751 3078 
Q 1150 3584 1784 3584 
Q 2172 3584 2448 3432 
Q 2725 3281 2906 2969 
z
M 947 1747 
Q 947 1113 1208 752 
Q 1469 391 1925 391 
Q 2381 391 2643 752 
Q 2906 1113 2906 1747 
Q 2906 2381 2643 2742 
Q 2381 3103 1925 3103 
Q 1469 3103 1208 2742 
Q 947 2381 947 1747 
z
" transform="scale(0.015625)"/>
       <path id="DejaVuSans-73" d="M 2834 3397 
L 2834 2853 
Q 2591 2978 2328 3040 
Q 2066 3103 1784 3103 
Q 1356 3103 1142 2972 
Q 928 2841 928 2578 
Q 928 2378 1081 2264 
Q 1234 2150 1697 2047 
L 1894 2003 
Q 2506 1872 2764 1633 
Q 3022 1394 3022 966 
Q 3022 478 2636 193 
Q 2250 -91 1575 -91 
Q 1294 -91 989 -36 
Q 684 19 347 128 
L 347 722 
Q 666 556 975 473 
Q 1284 391 1588 391 
Q 1994 391 2212 530 
Q 2431 669 2431 922 
Q 2431 1156 2273 1281 
Q 2116 1406 1581 1522 
L 1381 1569 
Q 847 1681 609 1914 
Q 372 2147 372 2553 
Q 372 3047 722 3315 
Q 1072 3584 1716 3584 
Q 2034 3584 2315 3537 
Q 2597 3491 2834 3397 
z
" transform="scale(0.015625)"/>
       <path id="DejaVuSans-70" d="M 1159 525 
L 1159 -1331 
L 581 -1331 
L 581 3500 
L 1159 3500 
L 1159 2969 
Q 1341 3281 1617 3432 
Q 1894 3584 2278 3584 
Q 2916 3584 3314 3078 
Q 3713 2572 3713 1747 
Q 3713 922 3314 415 
Q 2916 -91 2278 -91 
Q 1894 -91 1617 61 
Q 1341 213 1159 525 
z
M 3116 1747 
Q 3116 2381 2855 2742 
Q 2594 3103 2138 3103 
Q 1681 3103 1420 2742 
Q 1159 2381 1159 1747 
Q 1159 1113 1420 752 
Q 1681 391 2138 391 
Q 2594 391 2855 752 
Q 3116 1113 3116 1747 
z
" transform="scale(0.015625)"/>
       <path id="DejaVuSans-61" d="M 2194 1759 
Q 1497 1759 1228 1600 
Q 959 1441 959 1056 
Q 959 750 1161 570 
Q 1363 391 1709 391 
Q 2188 391 2477 730 
Q 2766 1069 2766 1631 
L 2766 1759 
L 2194 1759 
z
M 3341 1997 
L 3341 0 
L 2766 0 
L 2766 531 
Q 2569 213 2275 61 
Q 1981 -91 1556 -91 
Q 1019 -91 701 211 
Q 384 513 384 1019 
Q 384 1609 779 1909 
Q 1175 2209 1959 2209 
L 2766 2209 
L 2766 2266 
Q 2766 2663 2505 2880 
Q 2244 3097 1772 3097 
Q 1472 3097 1187 3025 
Q 903 2953 641 2809 
L 641 3341 
Q 956 3463 1253 3523 
Q 1550 3584 1831 3584 
Q 2591 3584 2966 3190 
Q 3341 2797 3341 1997 
z
" transform="scale(0.015625)"/>
       <path id="DejaVuSans-63" d="M 3122 3366 
L 3122 2828 
Q 2878 2963 2633 3030 
Q 2388 3097 2138 3097 
Q 1578 3097 1268 2742 
Q 959 2388 959 1747 
Q 959 1106 1268 751 
Q 1578 397 2138 397 
Q 2388 397 2633 464 
Q 2878 531 3122 666 
L 3122 134 
Q 2881 22 2623 -34 
Q 2366 -91 2075 -91 
Q 1284 -91 818 406 
Q 353 903 353 1747 
Q 353 2603 823 3093 
Q 1294 3584 2113 3584 
Q 2378 3584 2631 3529 
Q 2884 3475 3122 3366 
z
" transform="scale(0.015625)"/>
       <path id="DejaVuSans-69" d="M 603 3500 
L 1178 3500 
L 1178 0 
L 603 0 
L 603 3500 
z
M 603 4863 
L 1178 4863 
L 1178 4134 
L 603 4134 
L 603 4863 
z
" transform="scale(0.015625)"/>
       <path id="DejaVuSans-6e" d="M 3513 2113 
L 3513 0 
L 2938 0 
L 2938 2094 
Q 2938 2591 2744 2837 
Q 2550 3084 2163 3084 
Q 1697 3084 1428 2787 
Q 1159 2491 1159 1978 
L 1159 0 
L 581 0 
L 581 3500 
L 1159 3500 
L 1159 2956 
Q 1366 3272 1645 3428 
Q 1925 3584 2291 3584 
Q 2894 3584 3203 3211 
Q 3513 2838 3513 2113 
z
" transform="scale(0.015625)"/>
       <path id="DejaVuSans-67" d="M 2906 1791 
Q 2906 2416 2648 2759 
Q 2391 3103 1925 3103 
Q 1463 3103 1205 2759 
Q 947 2416 947 1791 
Q 947 1169 1205 825 
Q 1463 481 1925 481 
Q 2391 481 2648 825 
Q 2906 1169 2906 1791 
z
M 3481 434 
Q 3481 -459 3084 -895 
Q 2688 -1331 1869 -1331 
Q 1566 -1331 1297 -1286 
Q 1028 -1241 775 -1147 
L 775 -588 
Q 1028 -725 1275 -790 
Q 1522 -856 1778 -856 
Q 2344 -856 2625 -561 
Q 2906 -266 2906 331 
L 2906 616 
Q 2728 306 2450 153 
Q 2172 0 1784 0 
Q 1141 0 747 490 
Q 353 981 353 1791 
Q 353 2603 747 3093 
Q 1141 3584 1784 3584 
Q 2172 3584 2450 3431 
Q 2728 3278 2906 2969 
L 2906 3500 
L 3481 3500 
L 3481 434 
z
" transform="scale(0.015625)"/>
       <path id="DejaVuSans-20" transform="scale(0.015625)"/>
       <path id="DejaVuSans-5b" d="M 550 4863 
L 1875 4863 
L 1875 4416 
L 1125 4416 
L 1125 -397 
L 1875 -397 
L 1875 -844 
L 550 -844 
L 550 4863 
z
" transform="scale(0.015625)"/>
       <path id="DejaVuSans-c5" d="M 2663 5081 
Q 2663 5278 2523 5417 
Q 2384 5556 2188 5556 
Q 1988 5556 1852 5420 
Q 1716 5284 1716 5081 
Q 1716 4884 1853 4746 
Q 1991 4609 2188 4609 
Q 2384 4609 2523 4746 
Q 2663 4884 2663 5081 
z
M 2188 4044 
L 1338 1722 
L 3041 1722 
L 2188 4044 
z
M 1716 4366 
Q 1525 4494 1428 4673 
Q 1331 4853 1331 5081 
Q 1331 5441 1579 5691 
Q 1828 5941 2188 5941 
Q 2544 5941 2795 5689 
Q 3047 5438 3047 5081 
Q 3047 4863 2948 4678 
Q 2850 4494 2663 4366 
L 4325 0 
L 3669 0 
L 3244 1197 
L 1141 1197 
L 716 0 
L 50 0 
L 1716 4366 
z
" transform="scale(0.015625)"/>
       <path id="DejaVuSans-5d" d="M 1947 4863 
L 1947 -844 
L 622 -844 
L 622 -397 
L 1369 -397 
L 1369 4416 
L 622 4416 
L 622 4863 
L 1947 4863 
z
" transform="scale(0.015625)"/>
      </defs>
      <use xlink:href="#DejaVuSans-64"/>
      <use xlink:href="#DejaVuSans-73" transform="translate(63.476562 0)"/>
      <use xlink:href="#DejaVuSans-70" transform="translate(115.576172 0)"/>
      <use xlink:href="#DejaVuSans-61" transform="translate(179.052734 0)"/>
      <use xlink:href="#DejaVuSans-63" transform="translate(240.332031 0)"/>
      <use xlink:href="#DejaVuSans-69" transform="translate(295.3125 0)"/>
      <use xlink:href="#DejaVuSans-6e" transform="translate(323.095703 0)"/>
      <use xlink:href="#DejaVuSans-67" transform="translate(386.474609 0)"/>
      <use xlink:href="#DejaVuSans-20" transform="translate(449.951172 0)"/>
      <use xlink:href="#DejaVuSans-5b" transform="translate(481.738281 0)"/>
      <use xlink:href="#DejaVuSans-c5" transform="translate(520.751953 0)"/>
      <use xlink:href="#DejaVuSans-5d" transform="translate(589.160156 0)"/>
     </g>
    </g>
   </g>
   <g id="matplotlib.axis_2">
    <g id="ytick_1">
     <g id="line2d_10">
      <defs>
       <path id="m24cced4276" d="M 0 0 
L -3.5 0 
" style="stroke: #000000; stroke-width: 0.8"/>
      </defs>
      <g>
       <use xlink:href="#m24cced4276" x="40.603125" y="229.634538" style="stroke: #000000; stroke-width: 0.8"/>
      </g>
     </g>
     <g id="text_11">
      <!-- 0 -->
      <g transform="translate(27.240625 233.433757) scale(0.1 -0.1)">
       <use xlink:href="#DejaVuSans-30"/>
      </g>
     </g>
    </g>
    <g id="ytick_2">
     <g id="line2d_11">
      <g>
       <use xlink:href="#m24cced4276" x="40.603125" y="189.369182" style="stroke: #000000; stroke-width: 0.8"/>
      </g>
     </g>
     <g id="text_12">
      <!-- 10 -->
      <g transform="translate(20.878125 193.168401) scale(0.1 -0.1)">
       <use xlink:href="#DejaVuSans-31"/>
       <use xlink:href="#DejaVuSans-30" transform="translate(63.623047 0)"/>
      </g>
     </g>
    </g>
    <g id="ytick_3">
     <g id="line2d_12">
      <g>
       <use xlink:href="#m24cced4276" x="40.603125" y="149.103826" style="stroke: #000000; stroke-width: 0.8"/>
      </g>
     </g>
     <g id="text_13">
      <!-- 20 -->
      <g transform="translate(20.878125 152.903045) scale(0.1 -0.1)">
       <use xlink:href="#DejaVuSans-32"/>
       <use xlink:href="#DejaVuSans-30" transform="translate(63.623047 0)"/>
      </g>
     </g>
    </g>
    <g id="ytick_4">
     <g id="line2d_13">
      <g>
       <use xlink:href="#m24cced4276" x="40.603125" y="108.838469" style="stroke: #000000; stroke-width: 0.8"/>
      </g>
     </g>
     <g id="text_14">
      <!-- 30 -->
      <g transform="translate(20.878125 112.637688) scale(0.1 -0.1)">
       <defs>
        <path id="DejaVuSans-33" d="M 2597 2516 
Q 3050 2419 3304 2112 
Q 3559 1806 3559 1356 
Q 3559 666 3084 287 
Q 2609 -91 1734 -91 
Q 1441 -91 1130 -33 
Q 819 25 488 141 
L 488 750 
Q 750 597 1062 519 
Q 1375 441 1716 441 
Q 2309 441 2620 675 
Q 2931 909 2931 1356 
Q 2931 1769 2642 2001 
Q 2353 2234 1838 2234 
L 1294 2234 
L 1294 2753 
L 1863 2753 
Q 2328 2753 2575 2939 
Q 2822 3125 2822 3475 
Q 2822 3834 2567 4026 
Q 2313 4219 1838 4219 
Q 1578 4219 1281 4162 
Q 984 4106 628 3988 
L 628 4550 
Q 988 4650 1302 4700 
Q 1616 4750 1894 4750 
Q 2613 4750 3031 4423 
Q 3450 4097 3450 3541 
Q 3450 3153 3228 2886 
Q 3006 2619 2597 2516 
z
" transform="scale(0.015625)"/>
       </defs>
       <use xlink:href="#DejaVuSans-33"/>
       <use xlink:href="#DejaVuSans-30" transform="translate(63.623047 0)"/>
      </g>
     </g>
    </g>
    <g id="ytick_5">
     <g id="line2d_14">
      <g>
       <use xlink:href="#m24cced4276" x="40.603125" y="68.573113" style="stroke: #000000; stroke-width: 0.8"/>
      </g>
     </g>
     <g id="text_15">
      <!-- 40 -->
      <g transform="translate(20.878125 72.372332) scale(0.1 -0.1)">
       <defs>
        <path id="DejaVuSans-34" d="M 2419 4116 
L 825 1625 
L 2419 1625 
L 2419 4116 
z
M 2253 4666 
L 3047 4666 
L 3047 1625 
L 3713 1625 
L 3713 1100 
L 3047 1100 
L 3047 0 
L 2419 0 
L 2419 1100 
L 313 1100 
L 313 1709 
L 2253 4666 
z
" transform="scale(0.015625)"/>
       </defs>
       <use xlink:href="#DejaVuSans-34"/>
       <use xlink:href="#DejaVuSans-30" transform="translate(63.623047 0)"/>
      </g>
     </g>
    </g>
    <g id="ytick_6">
     <g id="line2d_15">
      <g>
       <use xlink:href="#m24cced4276" x="40.603125" y="28.307757" style="stroke: #000000; stroke-width: 0.8"/>
      </g>
     </g>
     <g id="text_16">
      <!-- 50 -->
      <g transform="translate(20.878125 32.106976) scale(0.1 -0.1)">
       <use xlink:href="#DejaVuSans-35"/>
       <use xlink:href="#DejaVuSans-30" transform="translate(63.623047 0)"/>
      </g>
     </g>
    </g>
    <g id="text_17">
     <!-- I(d) [dimensionless] -->
     <g transform="translate(14.798438 182.815313) rotate(-90) scale(0.1 -0.1)">
      <defs>
       <path id="DejaVuSans-49" d="M 628 4666 
L 1259 4666 
L 1259 0 
L 628 0 
L 628 4666 
z
" transform="scale(0.015625)"/>
       <path id="DejaVuSans-28" d="M 1984 4856 
Q 1566 4138 1362 3434 
Q 1159 2731 1159 2009 
Q 1159 1288 1364 580 
Q 1569 -128 1984 -844 
L 1484 -844 
Q 1016 -109 783 600 
Q 550 1309 550 2009 
Q 550 2706 781 3412 
Q 1013 4119 1484 4856 
L 1984 4856 
z
" transform="scale(0.015625)"/>
       <path id="DejaVuSans-29" d="M 513 4856 
L 1013 4856 
Q 1481 4119 1714 3412 
Q 1947 2706 1947 2009 
Q 1947 1309 1714 600 
Q 1481 -109 1013 -844 
L 513 -844 
Q 928 -128 1133 580 
Q 1338 1288 1338 2009 
Q 1338 2731 1133 3434 
Q 928 4138 513 4856 
z
" transform="scale(0.015625)"/>
       <path id="DejaVuSans-6d" d="M 3328 2828 
Q 3544 3216 3844 3400 
Q 4144 3584 4550 3584 
Q 5097 3584 5394 3201 
Q 5691 2819 5691 2113 
L 5691 0 
L 5113 0 
L 5113 2094 
Q 5113 2597 4934 2840 
Q 4756 3084 4391 3084 
Q 3944 3084 3684 2787 
Q 3425 2491 3425 1978 
L 3425 0 
L 2847 0 
L 2847 2094 
Q 2847 2600 2669 2842 
Q 2491 3084 2119 3084 
Q 1678 3084 1418 2786 
Q 1159 2488 1159 1978 
L 1159 0 
L 581 0 
L 581 3500 
L 1159 3500 
L 1159 2956 
Q 1356 3278 1631 3431 
Q 1906 3584 2284 3584 
Q 2666 3584 2933 3390 
Q 3200 3197 3328 2828 
z
" transform="scale(0.015625)"/>
       <path id="DejaVuSans-65" d="M 3597 1894 
L 3597 1613 
L 953 1613 
Q 991 1019 1311 708 
Q 1631 397 2203 397 
Q 2534 397 2845 478 
Q 3156 559 3463 722 
L 3463 178 
Q 3153 47 2828 -22 
Q 2503 -91 2169 -91 
Q 1331 -91 842 396 
Q 353 884 353 1716 
Q 353 2575 817 3079 
Q 1281 3584 2069 3584 
Q 2775 3584 3186 3129 
Q 3597 2675 3597 1894 
z
M 3022 2063 
Q 3016 2534 2758 2815 
Q 2500 3097 2075 3097 
Q 1594 3097 1305 2825 
Q 1016 2553 972 2059 
L 3022 2063 
z
" transform="scale(0.015625)"/>
       <path id="DejaVuSans-6f" d="M 1959 3097 
Q 1497 3097 1228 2736 
Q 959 2375 959 1747 
Q 959 1119 1226 758 
Q 1494 397 1959 397 
Q 2419 397 2687 759 
Q 2956 1122 2956 1747 
Q 2956 2369 2687 2733 
Q 2419 3097 1959 3097 
z
M 1959 3584 
Q 2709 3584 3137 3096 
Q 3566 2609 3566 1747 
Q 3566 888 3137 398 
Q 2709 -91 1959 -91 
Q 1206 -91 779 398 
Q 353 888 353 1747 
Q 353 2609 779 3096 
Q 1206 3584 1959 3584 
z
" transform="scale(0.015625)"/>
       <path id="DejaVuSans-6c" d="M 603 4863 
L 1178 4863 
L 1178 0 
L 603 0 
L 603 4863 
z
" transform="scale(0.015625)"/>
      </defs>
      <use xlink:href="#DejaVuSans-49"/>
      <use xlink:href="#DejaVuSans-28" transform="translate(29.492188 0)"/>
      <use xlink:href="#DejaVuSans-64" transform="translate(68.505859 0)"/>
      <use xlink:href="#DejaVuSans-29" transform="translate(131.982422 0)"/>
      <use xlink:href="#DejaVuSans-20" transform="translate(170.996094 0)"/>
      <use xlink:href="#DejaVuSans-5b" transform="translate(202.783203 0)"/>
      <use xlink:href="#DejaVuSans-64" transform="translate(241.796875 0)"/>
      <use xlink:href="#DejaVuSans-69" transform="translate(305.273438 0)"/>
      <use xlink:href="#DejaVuSans-6d" transform="translate(333.056641 0)"/>
      <use xlink:href="#DejaVuSans-65" transform="translate(430.46875 0)"/>
      <use xlink:href="#DejaVuSans-6e" transform="translate(491.992188 0)"/>
      <use xlink:href="#DejaVuSans-73" transform="translate(555.371094 0)"/>
      <use xlink:href="#DejaVuSans-69" transform="translate(607.470703 0)"/>
      <use xlink:href="#DejaVuSans-6f" transform="translate(635.253906 0)"/>
      <use xlink:href="#DejaVuSans-6e" transform="translate(696.435547 0)"/>
      <use xlink:href="#DejaVuSans-6c" transform="translate(759.814453 0)"/>
      <use xlink:href="#DejaVuSans-65" transform="translate(787.597656 0)"/>
      <use xlink:href="#DejaVuSans-73" transform="translate(849.121094 0)"/>
      <use xlink:href="#DejaVuSans-73" transform="translate(901.220703 0)"/>
      <use xlink:href="#DejaVuSans-5d" transform="translate(953.320312 0)"/>
     </g>
    </g>
   </g>
   <g id="line2d_16">
    <path d="M 55.821307 229.60975 
L 57.343125 229.60975 
L 57.343125 230.571713 
L 58.864943 230.571713 
L 58.864943 230.280666 
L 60.386761 230.280666 
L 60.386761 230.416229 
L 61.90858 230.416229 
L 61.90858 230.283306 
L 63.430398 230.283306 
L 63.430398 230.45778 
L 64.952216 230.45778 
L 64.952216 230.7582 
L 66.474034 230.7582 
L 66.474034 230.494674 
L 67.995852 230.494674 
L 67.995852 230.104336 
L 69.51767 230.104336 
L 69.51767 230.741979 
L 71.039489 230.741979 
L 71.039489 230.158744 
L 72.561307 230.158744 
L 72.561307 230.397189 
L 74.083125 230.397189 
L 74.083125 232.634914 
L 75.604943 232.634914 
L 75.604943 231.168751 
L 77.126761 231.168751 
L 77.126761 230.313231 
L 78.64858 230.313231 
L 78.64858 230.024984 
L 80.170398 230.024984 
L 80.170398 230.796806 
L 81.692216 230.796806 
L 81.692216 230.661104 
L 83.214034 230.661104 
L 83.214034 232.408132 
L 84.735852 232.408132 
L 84.735852 229.257177 
L 86.25767 229.257177 
L 86.25767 223.157678 
L 87.779489 223.157678 
L 87.779489 223.709476 
L 89.301307 223.709476 
L 89.301307 225.145787 
L 90.823125 225.145787 
L 90.823125 208.842984 
L 92.344943 208.842984 
L 92.344943 217.203089 
L 93.866761 217.203089 
L 93.866761 224.630719 
L 95.38858 224.630719 
L 95.38858 229.946975 
L 96.910398 229.946975 
L 96.910398 227.97594 
L 98.432216 227.97594 
L 98.432216 227.49409 
L 99.954034 227.49409 
L 99.954034 220.068407 
L 101.475852 220.068407 
L 101.475852 220.499419 
L 102.99767 220.499419 
L 102.99767 220.880476 
L 106.041307 220.962667 
L 106.041307 221.243544 
L 107.563125 221.243544 
L 107.563125 227.699418 
L 109.084943 227.699418 
L 109.084943 228.705993 
L 110.606761 228.705993 
L 110.606761 224.302006 
L 112.12858 224.302006 
L 112.12858 202.525836 
L 113.650398 202.525836 
L 113.650398 214.99866 
L 115.172216 214.99866 
L 115.172216 218.941304 
L 116.694034 218.941304 
L 116.694034 226.988117 
L 118.215852 226.988117 
L 118.215852 230.257575 
L 119.73767 230.257575 
L 119.73767 229.661682 
L 121.259489 229.661682 
L 121.259489 229.915483 
L 122.781307 229.915483 
L 122.781307 229.400162 
L 124.303125 229.400162 
L 124.303125 229.52936 
L 125.824943 229.52936 
L 125.824943 229.823913 
L 127.346761 229.823913 
L 127.346761 229.298623 
L 128.86858 229.298623 
L 128.86858 228.821831 
L 130.390398 228.821831 
L 130.390398 222.630825 
L 131.912216 222.630825 
L 131.912216 212.242527 
L 133.434034 212.242527 
L 133.434034 215.721249 
L 134.955852 215.721249 
L 134.955852 225.488288 
L 136.47767 225.488288 
L 136.47767 228.208785 
L 137.999489 228.208785 
L 137.999489 228.596393 
L 141.043125 228.63949 
L 141.043125 224.17825 
L 142.564943 224.17825 
L 142.564943 210.869288 
L 144.086761 210.869288 
L 144.086761 211.161996 
L 145.60858 211.161996 
L 145.60858 224.671679 
L 147.130398 224.671679 
L 147.130398 228.416829 
L 148.652216 228.416829 
L 148.652216 228.912614 
L 151.695852 228.951876 
L 151.695852 229.217711 
L 154.739489 229.141428 
L 154.739489 228.990838 
L 160.826761 229.046756 
L 160.826761 226.819527 
L 162.34858 226.819527 
L 162.34858 210.365628 
L 163.870398 210.365628 
L 163.870398 197.753807 
L 165.392216 197.753807 
L 165.392216 213.136461 
L 166.914034 213.136461 
L 166.914034 226.782007 
L 168.435852 226.782007 
L 168.435852 221.125044 
L 169.95767 221.125044 
L 169.95767 198.461827 
L 171.479489 198.461827 
L 171.479489 200.279286 
L 173.001307 200.279286 
L 173.001307 222.949873 
L 174.523125 222.949873 
L 174.523125 228.775504 
L 176.044943 228.775504 
L 176.044943 229.411166 
L 177.566761 229.411166 
L 177.566761 229.047241 
L 180.610398 229.018599 
L 180.610398 229.444 
L 185.175852 229.506923 
L 185.175852 228.313235 
L 186.69767 228.313235 
L 186.69767 229.280942 
L 188.219489 229.280942 
L 188.219489 229.587165 
L 191.263125 229.563819 
L 191.263125 229.922594 
L 194.306761 229.864676 
L 194.306761 230.0577 
L 198.872216 230.025531 
L 198.872216 230.184478 
L 206.481307 230.250574 
L 206.481307 230.300887 
L 209.524943 230.38223 
L 209.524943 230.495789 
L 211.046761 230.495789 
L 211.046761 230.375927 
L 212.56858 230.375927 
L 212.56858 230.495788 
L 217.134034 230.462096 
L 217.134034 230.336308 
L 224.743125 230.314631 
L 224.743125 230.214645 
L 226.264943 230.214645 
L 226.264943 230.400053 
L 227.786761 230.400053 
L 227.786761 230.224521 
L 229.30858 230.224521 
L 229.30858 230.523768 
L 230.830398 230.523768 
L 230.830398 230.135011 
L 235.395852 230.193398 
L 235.395852 230.347074 
L 239.961307 230.300656 
L 239.961307 230.056153 
L 241.483125 230.056153 
L 241.483125 230.206321 
L 244.526761 230.126038 
L 244.526761 229.94398 
L 252.135852 229.982687 
L 252.135852 229.814911 
L 256.701307 229.77987 
L 256.701307 229.694021 
L 259.744943 229.776924 
L 259.744943 229.960227 
L 262.78858 229.858837 
L 262.78858 229.669858 
L 267.354034 229.635498 
L 267.354034 229.51406 
L 271.919489 229.493872 
L 271.919489 229.332947 
L 273.441307 229.332947 
L 273.441307 229.54899 
L 274.963125 229.54899 
L 274.963125 229.396604 
L 278.006761 229.326109 
L 278.006761 229.278032 
L 279.52858 229.278032 
L 279.52858 229.420476 
L 281.050398 229.420476 
L 281.050398 229.206525 
L 282.572216 229.206525 
L 282.572216 228.960966 
L 284.094034 228.960966 
L 284.094034 229.105016 
L 285.615852 229.105016 
L 285.615852 228.98339 
L 287.13767 228.98339 
L 287.13767 228.780005 
L 290.181307 228.727253 
L 290.181307 228.920524 
L 291.703125 228.920524 
L 291.703125 228.617723 
L 293.224943 228.617723 
L 293.224943 228.830475 
L 296.26858 228.863397 
L 296.26858 228.673618 
L 297.790398 228.673618 
L 297.790398 228.801786 
L 303.87767 228.72394 
L 303.87767 228.64222 
L 308.443125 228.678666 
L 308.443125 228.516391 
L 309.964943 228.516391 
L 309.964943 228.203398 
L 311.486761 228.203398 
L 311.486761 227.29026 
L 313.00858 227.29026 
L 313.00858 221.640495 
L 314.530398 221.640495 
L 314.530398 176.776326 
L 316.052216 176.776326 
L 316.052216 53.161012 
L 317.574034 53.161012 
L 317.574034 32.820191 
L 319.095852 32.820191 
L 319.095852 150.480599 
L 320.61767 150.480599 
L 320.61767 216.417327 
L 322.139489 216.417327 
L 322.139489 226.79566 
L 323.661307 226.79566 
L 323.661307 228.140064 
L 325.183125 228.140064 
L 325.183125 228.633889 
L 326.704943 228.633889 
L 326.704943 229.05406 
L 328.226761 229.05406 
L 328.226761 229.735511 
L 331.270398 229.712407 
L 331.270398 229.018612 
L 334.314034 228.947069 
L 334.314034 228.856765 
L 338.879489 228.920569 
L 338.879489 228.472007 
L 340.401307 228.472007 
L 340.401307 228.185152 
L 343.444943 228.087221 
L 343.444943 228.50533 
L 344.966761 228.50533 
L 344.966761 228.839799 
L 346.48858 228.839799 
L 346.48858 228.951608 
L 348.010398 228.951608 
L 348.010398 228.81572 
L 349.532216 228.81572 
L 349.532216 229.143722 
L 360.184943 229.112334 
L 360.184943 229.112334 
" clip-path="url(#p99a6691bbb)" style="fill: none; stroke: #1f77b4; stroke-width: 1.5; stroke-linecap: square"/>
   </g>
   <g id="LineCollection_1">
    <path d="M 56.582216 229.974483 
L 56.582216 229.245017 
" clip-path="url(#p99a6691bbb)" style="fill: none; stroke: #1f77b4; stroke-width: 1.5"/>
    <path d="M 58.104034 230.99558 
L 58.104034 230.147847 
" clip-path="url(#p99a6691bbb)" style="fill: none; stroke: #1f77b4; stroke-width: 1.5"/>
    <path d="M 59.625852 230.490099 
L 59.625852 230.071233 
" clip-path="url(#p99a6691bbb)" style="fill: none; stroke: #1f77b4; stroke-width: 1.5"/>
    <path d="M 61.14767 230.583117 
L 61.14767 230.249341 
" clip-path="url(#p99a6691bbb)" style="fill: none; stroke: #1f77b4; stroke-width: 1.5"/>
    <path d="M 62.669489 230.505099 
L 62.669489 230.061512 
" clip-path="url(#p99a6691bbb)" style="fill: none; stroke: #1f77b4; stroke-width: 1.5"/>
    <path d="M 64.191307 230.732976 
L 64.191307 230.182583 
" clip-path="url(#p99a6691bbb)" style="fill: none; stroke: #1f77b4; stroke-width: 1.5"/>
    <path d="M 65.713125 231.081595 
L 65.713125 230.434805 
" clip-path="url(#p99a6691bbb)" style="fill: none; stroke: #1f77b4; stroke-width: 1.5"/>
    <path d="M 67.234943 230.699705 
L 67.234943 230.289643 
" clip-path="url(#p99a6691bbb)" style="fill: none; stroke: #1f77b4; stroke-width: 1.5"/>
    <path d="M 68.756761 230.228246 
L 68.756761 229.980425 
" clip-path="url(#p99a6691bbb)" style="fill: none; stroke: #1f77b4; stroke-width: 1.5"/>
    <path d="M 70.27858 231.156261 
L 70.27858 230.327698 
" clip-path="url(#p99a6691bbb)" style="fill: none; stroke: #1f77b4; stroke-width: 1.5"/>
    <path d="M 71.800398 230.354358 
L 71.800398 229.963129 
" clip-path="url(#p99a6691bbb)" style="fill: none; stroke: #1f77b4; stroke-width: 1.5"/>
    <path d="M 73.322216 230.629706 
L 73.322216 230.164671 
" clip-path="url(#p99a6691bbb)" style="fill: none; stroke: #1f77b4; stroke-width: 1.5"/>
    <path d="M 74.844034 233.998125 
L 74.844034 231.271704 
" clip-path="url(#p99a6691bbb)" style="fill: none; stroke: #1f77b4; stroke-width: 1.5"/>
    <path d="M 76.365852 231.864063 
L 76.365852 230.473439 
" clip-path="url(#p99a6691bbb)" style="fill: none; stroke: #1f77b4; stroke-width: 1.5"/>
    <path d="M 77.88767 230.684091 
L 77.88767 229.942371 
" clip-path="url(#p99a6691bbb)" style="fill: none; stroke: #1f77b4; stroke-width: 1.5"/>
    <path d="M 79.409489 230.360557 
L 79.409489 229.68941 
" clip-path="url(#p99a6691bbb)" style="fill: none; stroke: #1f77b4; stroke-width: 1.5"/>
    <path d="M 80.931307 231.307049 
L 80.931307 230.286563 
" clip-path="url(#p99a6691bbb)" style="fill: none; stroke: #1f77b4; stroke-width: 1.5"/>
    <path d="M 82.453125 231.110147 
L 82.453125 230.21206 
" clip-path="url(#p99a6691bbb)" style="fill: none; stroke: #1f77b4; stroke-width: 1.5"/>
    <path d="M 83.974943 233.532821 
L 83.974943 231.283442 
" clip-path="url(#p99a6691bbb)" style="fill: none; stroke: #1f77b4; stroke-width: 1.5"/>
    <path d="M 85.496761 230.11811 
L 85.496761 228.396244 
" clip-path="url(#p99a6691bbb)" style="fill: none; stroke: #1f77b4; stroke-width: 1.5"/>
    <path d="M 87.01858 224.275305 
L 87.01858 222.040052 
" clip-path="url(#p99a6691bbb)" style="fill: none; stroke: #1f77b4; stroke-width: 1.5"/>
    <path d="M 88.540398 224.632567 
L 88.540398 222.786385 
" clip-path="url(#p99a6691bbb)" style="fill: none; stroke: #1f77b4; stroke-width: 1.5"/>
    <path d="M 90.062216 225.814142 
L 90.062216 224.477432 
" clip-path="url(#p99a6691bbb)" style="fill: none; stroke: #1f77b4; stroke-width: 1.5"/>
    <path d="M 91.584034 211.02775 
L 91.584034 206.658218 
" clip-path="url(#p99a6691bbb)" style="fill: none; stroke: #1f77b4; stroke-width: 1.5"/>
    <path d="M 93.105852 218.824189 
L 93.105852 215.581989 
" clip-path="url(#p99a6691bbb)" style="fill: none; stroke: #1f77b4; stroke-width: 1.5"/>
    <path d="M 94.62767 225.876714 
L 94.62767 223.384724 
" clip-path="url(#p99a6691bbb)" style="fill: none; stroke: #1f77b4; stroke-width: 1.5"/>
    <path d="M 96.149489 230.279416 
L 96.149489 229.614534 
" clip-path="url(#p99a6691bbb)" style="fill: none; stroke: #1f77b4; stroke-width: 1.5"/>
    <path d="M 97.671307 228.90649 
L 97.671307 227.04539 
" clip-path="url(#p99a6691bbb)" style="fill: none; stroke: #1f77b4; stroke-width: 1.5"/>
    <path d="M 99.193125 228.314701 
L 99.193125 226.67348 
" clip-path="url(#p99a6691bbb)" style="fill: none; stroke: #1f77b4; stroke-width: 1.5"/>
    <path d="M 100.714943 221.237224 
L 100.714943 218.89959 
" clip-path="url(#p99a6691bbb)" style="fill: none; stroke: #1f77b4; stroke-width: 1.5"/>
    <path d="M 102.236761 221.918559 
L 102.236761 219.080279 
" clip-path="url(#p99a6691bbb)" style="fill: none; stroke: #1f77b4; stroke-width: 1.5"/>
    <path d="M 103.75858 222.232413 
L 103.75858 219.52854 
" clip-path="url(#p99a6691bbb)" style="fill: none; stroke: #1f77b4; stroke-width: 1.5"/>
    <path d="M 105.280398 222.138798 
L 105.280398 219.786536 
" clip-path="url(#p99a6691bbb)" style="fill: none; stroke: #1f77b4; stroke-width: 1.5"/>
    <path d="M 106.802216 222.610839 
L 106.802216 219.876249 
" clip-path="url(#p99a6691bbb)" style="fill: none; stroke: #1f77b4; stroke-width: 1.5"/>
    <path d="M 108.324034 228.184123 
L 108.324034 227.214712 
" clip-path="url(#p99a6691bbb)" style="fill: none; stroke: #1f77b4; stroke-width: 1.5"/>
    <path d="M 109.845852 229.294253 
L 109.845852 228.117733 
" clip-path="url(#p99a6691bbb)" style="fill: none; stroke: #1f77b4; stroke-width: 1.5"/>
    <path d="M 111.36767 225.267975 
L 111.36767 223.336037 
" clip-path="url(#p99a6691bbb)" style="fill: none; stroke: #1f77b4; stroke-width: 1.5"/>
    <path d="M 112.889489 204.997627 
L 112.889489 200.054045 
" clip-path="url(#p99a6691bbb)" style="fill: none; stroke: #1f77b4; stroke-width: 1.5"/>
    <path d="M 114.411307 216.196835 
L 114.411307 213.800485 
" clip-path="url(#p99a6691bbb)" style="fill: none; stroke: #1f77b4; stroke-width: 1.5"/>
    <path d="M 115.933125 220.353855 
L 115.933125 217.528752 
" clip-path="url(#p99a6691bbb)" style="fill: none; stroke: #1f77b4; stroke-width: 1.5"/>
    <path d="M 117.454943 227.548958 
L 117.454943 226.427277 
" clip-path="url(#p99a6691bbb)" style="fill: none; stroke: #1f77b4; stroke-width: 1.5"/>
    <path d="M 118.976761 231.065935 
L 118.976761 229.449215 
" clip-path="url(#p99a6691bbb)" style="fill: none; stroke: #1f77b4; stroke-width: 1.5"/>
    <path d="M 120.49858 229.887207 
L 120.49858 229.436157 
" clip-path="url(#p99a6691bbb)" style="fill: none; stroke: #1f77b4; stroke-width: 1.5"/>
    <path d="M 122.020398 230.233391 
L 122.020398 229.597576 
" clip-path="url(#p99a6691bbb)" style="fill: none; stroke: #1f77b4; stroke-width: 1.5"/>
    <path d="M 123.542216 229.579612 
L 123.542216 229.220712 
" clip-path="url(#p99a6691bbb)" style="fill: none; stroke: #1f77b4; stroke-width: 1.5"/>
    <path d="M 125.064034 229.735692 
L 125.064034 229.323029 
" clip-path="url(#p99a6691bbb)" style="fill: none; stroke: #1f77b4; stroke-width: 1.5"/>
    <path d="M 126.585852 229.973325 
L 126.585852 229.6745 
" clip-path="url(#p99a6691bbb)" style="fill: none; stroke: #1f77b4; stroke-width: 1.5"/>
    <path d="M 128.10767 229.497748 
L 128.10767 229.099499 
" clip-path="url(#p99a6691bbb)" style="fill: none; stroke: #1f77b4; stroke-width: 1.5"/>
    <path d="M 129.629489 228.962927 
L 129.629489 228.680735 
" clip-path="url(#p99a6691bbb)" style="fill: none; stroke: #1f77b4; stroke-width: 1.5"/>
    <path d="M 131.151307 222.866239 
L 131.151307 222.395411 
" clip-path="url(#p99a6691bbb)" style="fill: none; stroke: #1f77b4; stroke-width: 1.5"/>
    <path d="M 132.673125 212.539369 
L 132.673125 211.945685 
" clip-path="url(#p99a6691bbb)" style="fill: none; stroke: #1f77b4; stroke-width: 1.5"/>
    <path d="M 134.194943 215.973958 
L 134.194943 215.468539 
" clip-path="url(#p99a6691bbb)" style="fill: none; stroke: #1f77b4; stroke-width: 1.5"/>
    <path d="M 135.716761 225.648283 
L 135.716761 225.328293 
" clip-path="url(#p99a6691bbb)" style="fill: none; stroke: #1f77b4; stroke-width: 1.5"/>
    <path d="M 137.23858 228.334032 
L 137.23858 228.083538 
" clip-path="url(#p99a6691bbb)" style="fill: none; stroke: #1f77b4; stroke-width: 1.5"/>
    <path d="M 138.760398 228.703438 
L 138.760398 228.489347 
" clip-path="url(#p99a6691bbb)" style="fill: none; stroke: #1f77b4; stroke-width: 1.5"/>
    <path d="M 140.282216 228.743397 
L 140.282216 228.535583 
" clip-path="url(#p99a6691bbb)" style="fill: none; stroke: #1f77b4; stroke-width: 1.5"/>
    <path d="M 141.804034 224.314435 
L 141.804034 224.042064 
" clip-path="url(#p99a6691bbb)" style="fill: none; stroke: #1f77b4; stroke-width: 1.5"/>
    <path d="M 143.325852 211.080829 
L 143.325852 210.657747 
" clip-path="url(#p99a6691bbb)" style="fill: none; stroke: #1f77b4; stroke-width: 1.5"/>
    <path d="M 144.84767 211.369866 
L 144.84767 210.954126 
" clip-path="url(#p99a6691bbb)" style="fill: none; stroke: #1f77b4; stroke-width: 1.5"/>
    <path d="M 146.369489 224.792569 
L 146.369489 224.550789 
" clip-path="url(#p99a6691bbb)" style="fill: none; stroke: #1f77b4; stroke-width: 1.5"/>
    <path d="M 147.891307 228.511477 
L 147.891307 228.322181 
" clip-path="url(#p99a6691bbb)" style="fill: none; stroke: #1f77b4; stroke-width: 1.5"/>
    <path d="M 149.413125 229.004709 
L 149.413125 228.820518 
" clip-path="url(#p99a6691bbb)" style="fill: none; stroke: #1f77b4; stroke-width: 1.5"/>
    <path d="M 150.934943 229.042059 
L 150.934943 228.861692 
" clip-path="url(#p99a6691bbb)" style="fill: none; stroke: #1f77b4; stroke-width: 1.5"/>
    <path d="M 152.456761 229.301447 
L 152.456761 229.133974 
" clip-path="url(#p99a6691bbb)" style="fill: none; stroke: #1f77b4; stroke-width: 1.5"/>
    <path d="M 153.97858 229.225518 
L 153.97858 229.057339 
" clip-path="url(#p99a6691bbb)" style="fill: none; stroke: #1f77b4; stroke-width: 1.5"/>
    <path d="M 155.500398 229.072442 
L 155.500398 228.909234 
" clip-path="url(#p99a6691bbb)" style="fill: none; stroke: #1f77b4; stroke-width: 1.5"/>
    <path d="M 157.022216 229.092057 
L 157.022216 228.905246 
" clip-path="url(#p99a6691bbb)" style="fill: none; stroke: #1f77b4; stroke-width: 1.5"/>
    <path d="M 158.544034 229.150016 
L 158.544034 228.986418 
" clip-path="url(#p99a6691bbb)" style="fill: none; stroke: #1f77b4; stroke-width: 1.5"/>
    <path d="M 160.065852 229.130677 
L 160.065852 228.962835 
" clip-path="url(#p99a6691bbb)" style="fill: none; stroke: #1f77b4; stroke-width: 1.5"/>
    <path d="M 161.58767 226.923284 
L 161.58767 226.715769 
" clip-path="url(#p99a6691bbb)" style="fill: none; stroke: #1f77b4; stroke-width: 1.5"/>
    <path d="M 163.109489 210.568733 
L 163.109489 210.162523 
" clip-path="url(#p99a6691bbb)" style="fill: none; stroke: #1f77b4; stroke-width: 1.5"/>
    <path d="M 164.631307 198.007006 
L 164.631307 197.500608 
" clip-path="url(#p99a6691bbb)" style="fill: none; stroke: #1f77b4; stroke-width: 1.5"/>
    <path d="M 166.153125 213.32016 
L 166.153125 212.952762 
" clip-path="url(#p99a6691bbb)" style="fill: none; stroke: #1f77b4; stroke-width: 1.5"/>
    <path d="M 167.674943 226.882493 
L 167.674943 226.681521 
" clip-path="url(#p99a6691bbb)" style="fill: none; stroke: #1f77b4; stroke-width: 1.5"/>
    <path d="M 169.196761 221.260631 
L 169.196761 220.989456 
" clip-path="url(#p99a6691bbb)" style="fill: none; stroke: #1f77b4; stroke-width: 1.5"/>
    <path d="M 170.71858 198.704433 
L 170.71858 198.219221 
" clip-path="url(#p99a6691bbb)" style="fill: none; stroke: #1f77b4; stroke-width: 1.5"/>
    <path d="M 172.240398 200.517808 
L 172.240398 200.040764 
" clip-path="url(#p99a6691bbb)" style="fill: none; stroke: #1f77b4; stroke-width: 1.5"/>
    <path d="M 173.762216 223.075925 
L 173.762216 222.823821 
" clip-path="url(#p99a6691bbb)" style="fill: none; stroke: #1f77b4; stroke-width: 1.5"/>
    <path d="M 175.284034 228.857025 
L 175.284034 228.693983 
" clip-path="url(#p99a6691bbb)" style="fill: none; stroke: #1f77b4; stroke-width: 1.5"/>
    <path d="M 176.805852 229.488177 
L 176.805852 229.334156 
" clip-path="url(#p99a6691bbb)" style="fill: none; stroke: #1f77b4; stroke-width: 1.5"/>
    <path d="M 178.32767 229.12965 
L 178.32767 228.964833 
" clip-path="url(#p99a6691bbb)" style="fill: none; stroke: #1f77b4; stroke-width: 1.5"/>
    <path d="M 179.849489 229.099875 
L 179.849489 228.937323 
" clip-path="url(#p99a6691bbb)" style="fill: none; stroke: #1f77b4; stroke-width: 1.5"/>
    <path d="M 181.371307 229.520389 
L 181.371307 229.36761 
" clip-path="url(#p99a6691bbb)" style="fill: none; stroke: #1f77b4; stroke-width: 1.5"/>
    <path d="M 182.893125 229.496129 
L 182.893125 229.346381 
" clip-path="url(#p99a6691bbb)" style="fill: none; stroke: #1f77b4; stroke-width: 1.5"/>
    <path d="M 184.414943 229.580975 
L 184.414943 229.432871 
" clip-path="url(#p99a6691bbb)" style="fill: none; stroke: #1f77b4; stroke-width: 1.5"/>
    <path d="M 185.936761 228.400637 
L 185.936761 228.225834 
" clip-path="url(#p99a6691bbb)" style="fill: none; stroke: #1f77b4; stroke-width: 1.5"/>
    <path d="M 187.45858 229.361568 
L 187.45858 229.200316 
" clip-path="url(#p99a6691bbb)" style="fill: none; stroke: #1f77b4; stroke-width: 1.5"/>
    <path d="M 188.980398 229.661077 
L 188.980398 229.513253 
" clip-path="url(#p99a6691bbb)" style="fill: none; stroke: #1f77b4; stroke-width: 1.5"/>
    <path d="M 190.502216 229.635304 
L 190.502216 229.492335 
" clip-path="url(#p99a6691bbb)" style="fill: none; stroke: #1f77b4; stroke-width: 1.5"/>
    <path d="M 192.024034 229.994568 
L 192.024034 229.850619 
" clip-path="url(#p99a6691bbb)" style="fill: none; stroke: #1f77b4; stroke-width: 1.5"/>
    <path d="M 193.545852 229.936433 
L 193.545852 229.79292 
" clip-path="url(#p99a6691bbb)" style="fill: none; stroke: #1f77b4; stroke-width: 1.5"/>
    <path d="M 195.06767 230.125431 
L 195.06767 229.989969 
" clip-path="url(#p99a6691bbb)" style="fill: none; stroke: #1f77b4; stroke-width: 1.5"/>
    <path d="M 196.589489 230.075498 
L 196.589489 229.939687 
" clip-path="url(#p99a6691bbb)" style="fill: none; stroke: #1f77b4; stroke-width: 1.5"/>
    <path d="M 198.111307 230.093952 
L 198.111307 229.95711 
" clip-path="url(#p99a6691bbb)" style="fill: none; stroke: #1f77b4; stroke-width: 1.5"/>
    <path d="M 199.633125 230.250296 
L 199.633125 230.11866 
" clip-path="url(#p99a6691bbb)" style="fill: none; stroke: #1f77b4; stroke-width: 1.5"/>
    <path d="M 201.154943 230.290368 
L 201.154943 230.159583 
" clip-path="url(#p99a6691bbb)" style="fill: none; stroke: #1f77b4; stroke-width: 1.5"/>
    <path d="M 202.676761 230.288904 
L 202.676761 230.148767 
" clip-path="url(#p99a6691bbb)" style="fill: none; stroke: #1f77b4; stroke-width: 1.5"/>
    <path d="M 204.19858 230.171243 
L 204.19858 230.034611 
" clip-path="url(#p99a6691bbb)" style="fill: none; stroke: #1f77b4; stroke-width: 1.5"/>
    <path d="M 205.720398 230.319266 
L 205.720398 230.181883 
" clip-path="url(#p99a6691bbb)" style="fill: none; stroke: #1f77b4; stroke-width: 1.5"/>
    <path d="M 207.242216 230.366226 
L 207.242216 230.235548 
" clip-path="url(#p99a6691bbb)" style="fill: none; stroke: #1f77b4; stroke-width: 1.5"/>
    <path d="M 208.764034 230.449847 
L 208.764034 230.314613 
" clip-path="url(#p99a6691bbb)" style="fill: none; stroke: #1f77b4; stroke-width: 1.5"/>
    <path d="M 210.285852 230.562133 
L 210.285852 230.429445 
" clip-path="url(#p99a6691bbb)" style="fill: none; stroke: #1f77b4; stroke-width: 1.5"/>
    <path d="M 211.80767 230.436163 
L 211.80767 230.315691 
" clip-path="url(#p99a6691bbb)" style="fill: none; stroke: #1f77b4; stroke-width: 1.5"/>
    <path d="M 213.329489 230.56203 
L 213.329489 230.429546 
" clip-path="url(#p99a6691bbb)" style="fill: none; stroke: #1f77b4; stroke-width: 1.5"/>
    <path d="M 214.851307 230.565375 
L 214.851307 230.439043 
" clip-path="url(#p99a6691bbb)" style="fill: none; stroke: #1f77b4; stroke-width: 1.5"/>
    <path d="M 216.373125 230.529749 
L 216.373125 230.394442 
" clip-path="url(#p99a6691bbb)" style="fill: none; stroke: #1f77b4; stroke-width: 1.5"/>
    <path d="M 217.894943 230.401032 
L 217.894943 230.271583 
" clip-path="url(#p99a6691bbb)" style="fill: none; stroke: #1f77b4; stroke-width: 1.5"/>
    <path d="M 219.416761 230.288781 
L 219.416761 230.169279 
" clip-path="url(#p99a6691bbb)" style="fill: none; stroke: #1f77b4; stroke-width: 1.5"/>
    <path d="M 220.93858 230.470383 
L 220.93858 230.343537 
" clip-path="url(#p99a6691bbb)" style="fill: none; stroke: #1f77b4; stroke-width: 1.5"/>
    <path d="M 222.460398 230.346028 
L 222.460398 230.22255 
" clip-path="url(#p99a6691bbb)" style="fill: none; stroke: #1f77b4; stroke-width: 1.5"/>
    <path d="M 223.982216 230.379689 
L 223.982216 230.249573 
" clip-path="url(#p99a6691bbb)" style="fill: none; stroke: #1f77b4; stroke-width: 1.5"/>
    <path d="M 225.504034 230.276503 
L 225.504034 230.152787 
" clip-path="url(#p99a6691bbb)" style="fill: none; stroke: #1f77b4; stroke-width: 1.5"/>
    <path d="M 227.025852 230.466952 
L 227.025852 230.333154 
" clip-path="url(#p99a6691bbb)" style="fill: none; stroke: #1f77b4; stroke-width: 1.5"/>
    <path d="M 228.54767 230.292095 
L 228.54767 230.156946 
" clip-path="url(#p99a6691bbb)" style="fill: none; stroke: #1f77b4; stroke-width: 1.5"/>
    <path d="M 230.069489 230.592135 
L 230.069489 230.455401 
" clip-path="url(#p99a6691bbb)" style="fill: none; stroke: #1f77b4; stroke-width: 1.5"/>
    <path d="M 231.591307 230.195203 
L 231.591307 230.074818 
" clip-path="url(#p99a6691bbb)" style="fill: none; stroke: #1f77b4; stroke-width: 1.5"/>
    <path d="M 233.113125 230.251196 
L 233.113125 230.127594 
" clip-path="url(#p99a6691bbb)" style="fill: none; stroke: #1f77b4; stroke-width: 1.5"/>
    <path d="M 234.634943 230.252796 
L 234.634943 230.133999 
" clip-path="url(#p99a6691bbb)" style="fill: none; stroke: #1f77b4; stroke-width: 1.5"/>
    <path d="M 236.156761 230.404689 
L 236.156761 230.289458 
" clip-path="url(#p99a6691bbb)" style="fill: none; stroke: #1f77b4; stroke-width: 1.5"/>
    <path d="M 237.67858 230.510867 
L 237.67858 230.389437 
" clip-path="url(#p99a6691bbb)" style="fill: none; stroke: #1f77b4; stroke-width: 1.5"/>
    <path d="M 239.200398 230.364209 
L 239.200398 230.237102 
" clip-path="url(#p99a6691bbb)" style="fill: none; stroke: #1f77b4; stroke-width: 1.5"/>
    <path d="M 240.722216 230.114592 
L 240.722216 229.997714 
" clip-path="url(#p99a6691bbb)" style="fill: none; stroke: #1f77b4; stroke-width: 1.5"/>
    <path d="M 242.244034 230.268034 
L 242.244034 230.144609 
" clip-path="url(#p99a6691bbb)" style="fill: none; stroke: #1f77b4; stroke-width: 1.5"/>
    <path d="M 243.765852 230.188548 
L 243.765852 230.063527 
" clip-path="url(#p99a6691bbb)" style="fill: none; stroke: #1f77b4; stroke-width: 1.5"/>
    <path d="M 245.28767 230.008456 
L 245.28767 229.879504 
" clip-path="url(#p99a6691bbb)" style="fill: none; stroke: #1f77b4; stroke-width: 1.5"/>
    <path d="M 246.809489 230.045524 
L 246.809489 229.913684 
" clip-path="url(#p99a6691bbb)" style="fill: none; stroke: #1f77b4; stroke-width: 1.5"/>
    <path d="M 248.331307 230.087707 
L 248.331307 229.962645 
" clip-path="url(#p99a6691bbb)" style="fill: none; stroke: #1f77b4; stroke-width: 1.5"/>
    <path d="M 249.853125 230.018611 
L 249.853125 229.895762 
" clip-path="url(#p99a6691bbb)" style="fill: none; stroke: #1f77b4; stroke-width: 1.5"/>
    <path d="M 251.374943 230.048003 
L 251.374943 229.917371 
" clip-path="url(#p99a6691bbb)" style="fill: none; stroke: #1f77b4; stroke-width: 1.5"/>
    <path d="M 252.896761 229.875075 
L 252.896761 229.754746 
" clip-path="url(#p99a6691bbb)" style="fill: none; stroke: #1f77b4; stroke-width: 1.5"/>
    <path d="M 254.41858 229.940013 
L 254.41858 229.821755 
" clip-path="url(#p99a6691bbb)" style="fill: none; stroke: #1f77b4; stroke-width: 1.5"/>
    <path d="M 255.940398 229.839638 
L 255.940398 229.720103 
" clip-path="url(#p99a6691bbb)" style="fill: none; stroke: #1f77b4; stroke-width: 1.5"/>
    <path d="M 257.462216 229.75693 
L 257.462216 229.631112 
" clip-path="url(#p99a6691bbb)" style="fill: none; stroke: #1f77b4; stroke-width: 1.5"/>
    <path d="M 258.984034 229.835905 
L 258.984034 229.717943 
" clip-path="url(#p99a6691bbb)" style="fill: none; stroke: #1f77b4; stroke-width: 1.5"/>
    <path d="M 260.505852 230.023951 
L 260.505852 229.896502 
" clip-path="url(#p99a6691bbb)" style="fill: none; stroke: #1f77b4; stroke-width: 1.5"/>
    <path d="M 262.02767 229.920904 
L 262.02767 229.796771 
" clip-path="url(#p99a6691bbb)" style="fill: none; stroke: #1f77b4; stroke-width: 1.5"/>
    <path d="M 263.549489 229.730915 
L 263.549489 229.6088 
" clip-path="url(#p99a6691bbb)" style="fill: none; stroke: #1f77b4; stroke-width: 1.5"/>
    <path d="M 265.071307 229.629745 
L 265.071307 229.501955 
" clip-path="url(#p99a6691bbb)" style="fill: none; stroke: #1f77b4; stroke-width: 1.5"/>
    <path d="M 266.593125 229.699928 
L 266.593125 229.571068 
" clip-path="url(#p99a6691bbb)" style="fill: none; stroke: #1f77b4; stroke-width: 1.5"/>
    <path d="M 268.114943 229.577401 
L 268.114943 229.450719 
" clip-path="url(#p99a6691bbb)" style="fill: none; stroke: #1f77b4; stroke-width: 1.5"/>
    <path d="M 269.636761 229.61542 
L 269.636761 229.491359 
" clip-path="url(#p99a6691bbb)" style="fill: none; stroke: #1f77b4; stroke-width: 1.5"/>
    <path d="M 271.15858 229.557501 
L 271.15858 229.430243 
" clip-path="url(#p99a6691bbb)" style="fill: none; stroke: #1f77b4; stroke-width: 1.5"/>
    <path d="M 272.680398 229.395197 
L 272.680398 229.270696 
" clip-path="url(#p99a6691bbb)" style="fill: none; stroke: #1f77b4; stroke-width: 1.5"/>
    <path d="M 274.202216 229.612333 
L 274.202216 229.485648 
" clip-path="url(#p99a6691bbb)" style="fill: none; stroke: #1f77b4; stroke-width: 1.5"/>
    <path d="M 275.724034 229.458409 
L 275.724034 229.334799 
" clip-path="url(#p99a6691bbb)" style="fill: none; stroke: #1f77b4; stroke-width: 1.5"/>
    <path d="M 277.245852 229.387511 
L 277.245852 229.264706 
" clip-path="url(#p99a6691bbb)" style="fill: none; stroke: #1f77b4; stroke-width: 1.5"/>
    <path d="M 278.76767 229.339341 
L 278.76767 229.216723 
" clip-path="url(#p99a6691bbb)" style="fill: none; stroke: #1f77b4; stroke-width: 1.5"/>
    <path d="M 280.289489 229.485774 
L 280.289489 229.355179 
" clip-path="url(#p99a6691bbb)" style="fill: none; stroke: #1f77b4; stroke-width: 1.5"/>
    <path d="M 281.811307 229.270439 
L 281.811307 229.142612 
" clip-path="url(#p99a6691bbb)" style="fill: none; stroke: #1f77b4; stroke-width: 1.5"/>
    <path d="M 283.333125 229.025171 
L 283.333125 228.896761 
" clip-path="url(#p99a6691bbb)" style="fill: none; stroke: #1f77b4; stroke-width: 1.5"/>
    <path d="M 284.854943 229.170846 
L 284.854943 229.039187 
" clip-path="url(#p99a6691bbb)" style="fill: none; stroke: #1f77b4; stroke-width: 1.5"/>
    <path d="M 286.376761 229.047904 
L 286.376761 228.918875 
" clip-path="url(#p99a6691bbb)" style="fill: none; stroke: #1f77b4; stroke-width: 1.5"/>
    <path d="M 287.89858 228.847237 
L 287.89858 228.712772 
" clip-path="url(#p99a6691bbb)" style="fill: none; stroke: #1f77b4; stroke-width: 1.5"/>
    <path d="M 289.420398 228.795734 
L 289.420398 228.658771 
" clip-path="url(#p99a6691bbb)" style="fill: none; stroke: #1f77b4; stroke-width: 1.5"/>
    <path d="M 290.942216 228.986544 
L 290.942216 228.854505 
" clip-path="url(#p99a6691bbb)" style="fill: none; stroke: #1f77b4; stroke-width: 1.5"/>
    <path d="M 292.464034 228.686676 
L 292.464034 228.548771 
" clip-path="url(#p99a6691bbb)" style="fill: none; stroke: #1f77b4; stroke-width: 1.5"/>
    <path d="M 293.985852 228.897132 
L 293.985852 228.763818 
" clip-path="url(#p99a6691bbb)" style="fill: none; stroke: #1f77b4; stroke-width: 1.5"/>
    <path d="M 295.50767 228.926988 
L 295.50767 228.799805 
" clip-path="url(#p99a6691bbb)" style="fill: none; stroke: #1f77b4; stroke-width: 1.5"/>
    <path d="M 297.029489 228.739012 
L 297.029489 228.608224 
" clip-path="url(#p99a6691bbb)" style="fill: none; stroke: #1f77b4; stroke-width: 1.5"/>
    <path d="M 298.551307 228.866435 
L 298.551307 228.737137 
" clip-path="url(#p99a6691bbb)" style="fill: none; stroke: #1f77b4; stroke-width: 1.5"/>
    <path d="M 300.073125 228.860186 
L 300.073125 228.721123 
" clip-path="url(#p99a6691bbb)" style="fill: none; stroke: #1f77b4; stroke-width: 1.5"/>
    <path d="M 301.594943 228.850043 
L 301.594943 228.71554 
" clip-path="url(#p99a6691bbb)" style="fill: none; stroke: #1f77b4; stroke-width: 1.5"/>
    <path d="M 303.116761 228.788589 
L 303.116761 228.659292 
" clip-path="url(#p99a6691bbb)" style="fill: none; stroke: #1f77b4; stroke-width: 1.5"/>
    <path d="M 304.63858 228.709286 
L 304.63858 228.575153 
" clip-path="url(#p99a6691bbb)" style="fill: none; stroke: #1f77b4; stroke-width: 1.5"/>
    <path d="M 306.160398 228.767108 
L 306.160398 228.630747 
" clip-path="url(#p99a6691bbb)" style="fill: none; stroke: #1f77b4; stroke-width: 1.5"/>
    <path d="M 307.682216 228.74432 
L 307.682216 228.613012 
" clip-path="url(#p99a6691bbb)" style="fill: none; stroke: #1f77b4; stroke-width: 1.5"/>
    <path d="M 309.204034 228.583324 
L 309.204034 228.449459 
" clip-path="url(#p99a6691bbb)" style="fill: none; stroke: #1f77b4; stroke-width: 1.5"/>
    <path d="M 310.725852 228.273352 
L 310.725852 228.133445 
" clip-path="url(#p99a6691bbb)" style="fill: none; stroke: #1f77b4; stroke-width: 1.5"/>
    <path d="M 312.24767 227.362061 
L 312.24767 227.218458 
" clip-path="url(#p99a6691bbb)" style="fill: none; stroke: #1f77b4; stroke-width: 1.5"/>
    <path d="M 313.769489 221.735001 
L 313.769489 221.545989 
" clip-path="url(#p99a6691bbb)" style="fill: none; stroke: #1f77b4; stroke-width: 1.5"/>
    <path d="M 315.291307 176.987591 
L 315.291307 176.56506 
" clip-path="url(#p99a6691bbb)" style="fill: none; stroke: #1f77b4; stroke-width: 1.5"/>
    <path d="M 316.813125 53.557671 
L 316.813125 52.764353 
" clip-path="url(#p99a6691bbb)" style="fill: none; stroke: #1f77b4; stroke-width: 1.5"/>
    <path d="M 318.334943 33.242257 
L 318.334943 32.398125 
" clip-path="url(#p99a6691bbb)" style="fill: none; stroke: #1f77b4; stroke-width: 1.5"/>
    <path d="M 319.856761 150.7345 
L 319.856761 150.226697 
" clip-path="url(#p99a6691bbb)" style="fill: none; stroke: #1f77b4; stroke-width: 1.5"/>
    <path d="M 321.37858 216.525261 
L 321.37858 216.309393 
" clip-path="url(#p99a6691bbb)" style="fill: none; stroke: #1f77b4; stroke-width: 1.5"/>
    <path d="M 322.900398 226.867556 
L 322.900398 226.723764 
" clip-path="url(#p99a6691bbb)" style="fill: none; stroke: #1f77b4; stroke-width: 1.5"/>
    <path d="M 324.422216 228.209612 
L 324.422216 228.070516 
" clip-path="url(#p99a6691bbb)" style="fill: none; stroke: #1f77b4; stroke-width: 1.5"/>
    <path d="M 325.944034 228.701067 
L 325.944034 228.56671 
" clip-path="url(#p99a6691bbb)" style="fill: none; stroke: #1f77b4; stroke-width: 1.5"/>
    <path d="M 327.465852 229.113108 
L 327.465852 228.995013 
" clip-path="url(#p99a6691bbb)" style="fill: none; stroke: #1f77b4; stroke-width: 1.5"/>
    <path d="M 328.98767 229.784214 
L 328.98767 229.686808 
" clip-path="url(#p99a6691bbb)" style="fill: none; stroke: #1f77b4; stroke-width: 1.5"/>
    <path d="M 330.509489 229.762952 
L 330.509489 229.661863 
" clip-path="url(#p99a6691bbb)" style="fill: none; stroke: #1f77b4; stroke-width: 1.5"/>
    <path d="M 332.031307 229.079939 
L 332.031307 228.957285 
" clip-path="url(#p99a6691bbb)" style="fill: none; stroke: #1f77b4; stroke-width: 1.5"/>
    <path d="M 333.553125 229.010266 
L 333.553125 228.883873 
" clip-path="url(#p99a6691bbb)" style="fill: none; stroke: #1f77b4; stroke-width: 1.5"/>
    <path d="M 335.074943 228.923255 
L 335.074943 228.790275 
" clip-path="url(#p99a6691bbb)" style="fill: none; stroke: #1f77b4; stroke-width: 1.5"/>
    <path d="M 336.596761 228.896431 
L 336.596761 228.758959 
" clip-path="url(#p99a6691bbb)" style="fill: none; stroke: #1f77b4; stroke-width: 1.5"/>
    <path d="M 338.11858 228.988745 
L 338.11858 228.852393 
" clip-path="url(#p99a6691bbb)" style="fill: none; stroke: #1f77b4; stroke-width: 1.5"/>
    <path d="M 339.640398 228.538849 
L 339.640398 228.405166 
" clip-path="url(#p99a6691bbb)" style="fill: none; stroke: #1f77b4; stroke-width: 1.5"/>
    <path d="M 341.162216 228.255467 
L 341.162216 228.114838 
" clip-path="url(#p99a6691bbb)" style="fill: none; stroke: #1f77b4; stroke-width: 1.5"/>
    <path d="M 342.684034 228.160625 
L 342.684034 228.013816 
" clip-path="url(#p99a6691bbb)" style="fill: none; stroke: #1f77b4; stroke-width: 1.5"/>
    <path d="M 344.205852 228.573471 
L 344.205852 228.43719 
" clip-path="url(#p99a6691bbb)" style="fill: none; stroke: #1f77b4; stroke-width: 1.5"/>
    <path d="M 345.72767 228.907101 
L 345.72767 228.772497 
" clip-path="url(#p99a6691bbb)" style="fill: none; stroke: #1f77b4; stroke-width: 1.5"/>
    <path d="M 347.249489 229.020987 
L 347.249489 228.882228 
" clip-path="url(#p99a6691bbb)" style="fill: none; stroke: #1f77b4; stroke-width: 1.5"/>
    <path d="M 348.771307 228.884326 
L 348.771307 228.747114 
" clip-path="url(#p99a6691bbb)" style="fill: none; stroke: #1f77b4; stroke-width: 1.5"/>
    <path d="M 350.293125 229.213155 
L 350.293125 229.074289 
" clip-path="url(#p99a6691bbb)" style="fill: none; stroke: #1f77b4; stroke-width: 1.5"/>
    <path d="M 351.814943 229.236889 
L 351.814943 229.097501 
" clip-path="url(#p99a6691bbb)" style="fill: none; stroke: #1f77b4; stroke-width: 1.5"/>
    <path d="M 353.336761 229.210607 
L 353.336761 229.071417 
" clip-path="url(#p99a6691bbb)" style="fill: none; stroke: #1f77b4; stroke-width: 1.5"/>
    <path d="M 354.85858 229.267894 
L 354.85858 229.129292 
" clip-path="url(#p99a6691bbb)" style="fill: none; stroke: #1f77b4; stroke-width: 1.5"/>
    <path d="M 356.380398 229.133913 
L 356.380398 228.987832 
" clip-path="url(#p99a6691bbb)" style="fill: none; stroke: #1f77b4; stroke-width: 1.5"/>
    <path d="M 357.902216 229.211397 
L 357.902216 229.066009 
" clip-path="url(#p99a6691bbb)" style="fill: none; stroke: #1f77b4; stroke-width: 1.5"/>
    <path d="M 359.424034 229.183277 
L 359.424034 229.041391 
" clip-path="url(#p99a6691bbb)" style="fill: none; stroke: #1f77b4; stroke-width: 1.5"/>
   </g>
   <g id="patch_3">
    <path d="M 40.603125 244.078125 
L 40.603125 22.318125 
" style="fill: none; stroke: #000000; stroke-width: 0.8; stroke-linejoin: miter; stroke-linecap: square"/>
   </g>
   <g id="patch_4">
    <path d="M 375.403125 244.078125 
L 375.403125 22.318125 
" style="fill: none; stroke: #000000; stroke-width: 0.8; stroke-linejoin: miter; stroke-linecap: square"/>
   </g>
   <g id="patch_5">
    <path d="M 40.603125 244.078125 
L 375.403125 244.078125 
" style="fill: none; stroke: #000000; stroke-width: 0.8; stroke-linejoin: miter; stroke-linecap: square"/>
   </g>
   <g id="patch_6">
    <path d="M 40.603125 22.318125 
L 375.403125 22.318125 
" style="fill: none; stroke: #000000; stroke-width: 0.8; stroke-linejoin: miter; stroke-linecap: square"/>
   </g>
   <g id="text_18">
    <!-- Mantle -->
    <g transform="translate(187.635938 16.318125) scale(0.12 -0.12)">
     <defs>
      <path id="DejaVuSans-4d" d="M 628 4666 
L 1569 4666 
L 2759 1491 
L 3956 4666 
L 4897 4666 
L 4897 0 
L 4281 0 
L 4281 4097 
L 3078 897 
L 2444 897 
L 1241 4097 
L 1241 0 
L 628 0 
L 628 4666 
z
" transform="scale(0.015625)"/>
      <path id="DejaVuSans-74" d="M 1172 4494 
L 1172 3500 
L 2356 3500 
L 2356 3053 
L 1172 3053 
L 1172 1153 
Q 1172 725 1289 603 
Q 1406 481 1766 481 
L 2356 481 
L 2356 0 
L 1766 0 
Q 1100 0 847 248 
Q 594 497 594 1153 
L 594 3053 
L 172 3053 
L 172 3500 
L 594 3500 
L 594 4494 
L 1172 4494 
z
" transform="scale(0.015625)"/>
     </defs>
     <use xlink:href="#DejaVuSans-4d"/>
     <use xlink:href="#DejaVuSans-61" transform="translate(86.279297 0)"/>
     <use xlink:href="#DejaVuSans-6e" transform="translate(147.558594 0)"/>
     <use xlink:href="#DejaVuSans-74" transform="translate(210.9375 0)"/>
     <use xlink:href="#DejaVuSans-6c" transform="translate(250.146484 0)"/>
     <use xlink:href="#DejaVuSans-65" transform="translate(277.929688 0)"/>
    </g>
   </g>
  </g>
 </g>
 <defs>
  <clipPath id="p99a6691bbb">
   <rect x="40.603125" y="22.318125" width="334.8" height="221.76"/>
  </clipPath>
 </defs>
</svg>
