<?xml version="1.0" encoding="UTF-8" standalone="no"?>
<!DOCTYPE svg PUBLIC "-//W3C//DTD SVG 1.1//EN"
 "http://www.w3.org/Graphics/SVG/1.1/DTD/svg11.dtd">
<!-- Generated by graphviz version 14.1.2 (20260126.1125)
 -->
<!-- Pages: 1 -->
<svg width="3039pt" height="354pt"
 viewBox="0.00 0.00 3039.00 354.00" xmlns="http://www.w3.org/2000/svg" xmlns:xlink="http://www.w3.org/1999/xlink">
<g id="graph0" class="graph" transform="scale(1 1) rotate(0) translate(4 349.5)">
<polygon fill="white" stroke="none" points="-4,4 -4,-349.5 3035.25,-349.5 3035.25,4 -4,4"/>
<g id="clust1" class="cluster">
<title>cluster_AccumulatedProtonCharge</title>
<polygon fill="#f0f0ff" stroke="#f0f0ff" points="1954,-240.5 1954,-337.5 2192,-337.5 2192,-240.5 1954,-240.5"/>
<text xml:space="preserve" text-anchor="start" x="1977" y="-321.2" font-family="Times,serif" font-size="14.00">AccumulatedProtonCharge</text>
<text xml:space="preserve" text-anchor="start" x="1962" y="-310.05" font-family="Times,serif" font-size="11.00">via:</text>
<text xml:space="preserve" text-anchor="start" x="1982.25" y="-310.05" font-family="Times,serif" font-style="italic" font-size="11.00">extract_accumulated_proton_charge</text>
</g>
<g id="clust4" class="cluster">
<title>cluster_CorrectedDetector</title>
<polygon fill="#f0f0ff" stroke="#f0f0ff" points="1703.5,-30.5 1703.5,-127.5 1895.75,-127.5 1895.75,-30.5 1703.5,-30.5"/>
<text xml:space="preserve" text-anchor="start" x="1732.88" y="-111.2" font-family="Times,serif" font-size="14.00">CorrectedDetector</text>
<text xml:space="preserve" text-anchor="start" x="1711.5" y="-100.05" font-family="Times,serif" font-size="11.00">via:</text>
<text xml:space="preserve" text-anchor="start" x="1731.75" y="-100.05" font-family="Times,serif" font-style="italic" font-size="11.00">add_masks_and_corrections</text>
</g>
<g id="clust5" class="cluster">
<title>cluster_CorrectedDspacing</title>
<polygon fill="#f0f0ff" stroke="#f0f0ff" points="1954.75,-135.5 1954.75,-232.5 2191.25,-232.5 2191.25,-135.5 1954.75,-135.5"/>
<text xml:space="preserve" text-anchor="start" x="2004.38" y="-216.2" font-family="Times,serif" font-size="14.00">CorrectedDspacing</text>
<text xml:space="preserve" text-anchor="start" x="1962.75" y="-205.05" font-family="Times,serif" font-size="11.00">via:</text>
<text xml:space="preserve" text-anchor="start" x="1983" y="-205.05" font-family="Times,serif" font-style="italic" font-size="11.00">focus_data_dspacing_and_two_theta</text>
</g>
<g id="clust8" class="cluster">
<title>cluster_DspacingDetector</title>
<polygon fill="#f0f0ff" stroke="#f0f0ff" points="1359.5,-86.5 1359.5,-183.5 1637.25,-183.5 1637.25,-86.5 1359.5,-86.5"/>
<text xml:space="preserve" text-anchor="start" x="1434.25" y="-167.2" font-family="Times,serif" font-size="14.00">DspacingDetector</text>
<text xml:space="preserve" text-anchor="start" x="1367.5" y="-156.05" font-family="Times,serif" font-size="11.00">via:</text>
<text xml:space="preserve" text-anchor="start" x="1387.75" y="-156.05" font-family="Times,serif" font-style="italic" font-size="11.00">add_scattering_coordinates_from_positions</text>
</g>
<g id="clust9" class="cluster">
<title>cluster_ElasticCoordTransformGraph</title>
<polygon fill="#f0f0ff" stroke="#f0f0ff" points="739,-86.5 739,-183.5 1014.5,-183.5 1014.5,-86.5 739,-86.5"/>
<text xml:space="preserve" text-anchor="start" x="771.75" y="-167.2" font-family="Times,serif" font-size="14.00">ElasticCoordTransformGraph</text>
<text xml:space="preserve" text-anchor="start" x="747" y="-156.05" font-family="Times,serif" font-size="11.00">via:</text>
<text xml:space="preserve" text-anchor="start" x="767.25" y="-156.05" font-family="Times,serif" font-style="italic" font-size="11.00">detector_coordinate_transformation_graph</text>
</g>
<g id="clust10" class="cluster">
<title>cluster_Filename</title>
<polygon fill="#f0f0ff" stroke="#f0f0ff" points="8,-107.5 8,-196.5 133,-196.5 133,-107.5 8,-107.5"/>
<text xml:space="preserve" text-anchor="middle" x="70.5" y="-179.2" font-family="Times,serif" font-size="14.00">Filename</text>
</g>
<g id="clust11" class="cluster">
<title>cluster_FocussedDataDspacing</title>
<polygon fill="#f0f0ff" stroke="#f0f0ff" points="2524.25,-187.5 2524.25,-284.5 2706,-284.5 2706,-187.5 2524.25,-187.5"/>
<text xml:space="preserve" text-anchor="start" x="2532.25" y="-268.2" font-family="Times,serif" font-size="14.00">FocussedDataDspacing</text>
<text xml:space="preserve" text-anchor="start" x="2548.75" y="-257.05" font-family="Times,serif" font-size="11.00">via:</text>
<text xml:space="preserve" text-anchor="start" x="2569" y="-257.05" font-family="Times,serif" font-style="italic" font-size="11.00">integrate_two_theta</text>
</g>
<g id="clust14" class="cluster">
<title>cluster_KeepEvents</title>
<polygon fill="#f0f0ff" stroke="#f0f0ff" points="1736.62,-135.5 1736.62,-224.5 1861.62,-224.5 1861.62,-135.5 1736.62,-135.5"/>
<text xml:space="preserve" text-anchor="middle" x="1799.12" y="-207.2" font-family="Times,serif" font-size="14.00">KeepEvents</text>
</g>
<g id="clust17" class="cluster">
<title>cluster_NormalizedDspacing</title>
<polygon fill="#f0f0ff" stroke="#f0f0ff" points="2248,-187.5 2248,-284.5 2444,-284.5 2444,-187.5 2248,-187.5"/>
<text xml:space="preserve" text-anchor="start" x="2271.75" y="-268.2" font-family="Times,serif" font-size="14.00">NormalizedDspacing</text>
<text xml:space="preserve" text-anchor="start" x="2256" y="-257.05" font-family="Times,serif" font-size="11.00">via:</text>
<text xml:space="preserve" text-anchor="start" x="2276.25" y="-257.05" font-family="Times,serif" font-style="italic" font-size="11.00">normalize_by_proton_charge</text>
</g>
<g id="clust18" class="cluster">
<title>cluster_Position</title>
<polygon fill="#f0f0ff" stroke="#f0f0ff" points="469.38,-41.5 469.38,-219.5 663.38,-219.5 663.38,-41.5 469.38,-41.5"/>
<text xml:space="preserve" text-anchor="middle" x="566.38" y="-202.2" font-family="Times,serif" font-size="14.00">Position</text>
</g>
<g id="clust19" class="cluster">
<title>cluster_RawDataAndMetadata</title>
<polygon fill="#f0f0ff" stroke="#f0f0ff" points="207.62,-107.5 207.62,-204.5 384.12,-204.5 384.12,-107.5 207.62,-107.5"/>
<text xml:space="preserve" text-anchor="start" x="215.62" y="-188.2" font-family="Times,serif" font-size="14.00">RawDataAndMetadata</text>
<text xml:space="preserve" text-anchor="start" x="254.62" y="-177.05" font-family="Times,serif" font-size="11.00">via:</text>
<text xml:space="preserve" text-anchor="start" x="274.88" y="-177.05" font-family="Times,serif" font-style="italic" font-size="11.00">pooch_load</text>
</g>
<g id="clust20" class="cluster">
<title>cluster_TofDetector</title>
<polygon fill="#f0f0ff" stroke="#f0f0ff" points="810.25,-195.5 810.25,-292.5 943.25,-292.5 943.25,-195.5 810.25,-195.5"/>
<text xml:space="preserve" text-anchor="start" x="834.75" y="-276.2" font-family="Times,serif" font-size="14.00">TofDetector</text>
<text xml:space="preserve" text-anchor="start" x="818.25" y="-265.05" font-family="Times,serif" font-size="11.00">via:</text>
<text xml:space="preserve" text-anchor="start" x="838.5" y="-265.05" font-family="Times,serif" font-style="italic" font-size="11.00">extract_raw_data</text>
</g>
<g id="clust24" class="cluster">
<title>cluster_WavelengthDetector</title>
<polygon fill="#f0f0ff" stroke="#f0f0ff" points="1078.5,-134.5 1078.5,-231.5 1295.5,-231.5 1295.5,-134.5 1078.5,-134.5"/>
<text xml:space="preserve" text-anchor="start" x="1113.88" y="-215.2" font-family="Times,serif" font-size="14.00">WavelengthDetector</text>
<text xml:space="preserve" text-anchor="start" x="1086.5" y="-204.05" font-family="Times,serif" font-size="11.00">via:</text>
<text xml:space="preserve" text-anchor="start" x="1106.75" y="-204.05" font-family="Times,serif" font-style="italic" font-size="11.00">convert_detector_to_wavelength</text>
</g>
<!-- TofDetector[SampleRun] -->
<g id="node1" class="node">
<title>TofDetector[SampleRun]</title>
<polygon fill="none" stroke="black" points="923.25,-251.62 829.25,-251.62 829.25,-229.38 923.25,-229.38 923.25,-251.62"/>
<text xml:space="preserve" text-anchor="start" x="837.25" y="-236.22" font-family="Times,serif" font-size="12.00">[SampleRun]</text>
</g>
<!-- AccumulatedProtonCharge[SampleRun] -->
<g id="node2" class="node">
<title>AccumulatedProtonCharge[SampleRun]</title>
<polygon fill="none" stroke="black" points="2119.5,-296.62 2025.5,-296.62 2025.5,-274.38 2119.5,-274.38 2119.5,-296.62"/>
<text xml:space="preserve" text-anchor="start" x="2033.5" y="-281.23" font-family="Times,serif" font-size="12.00">[SampleRun]</text>
</g>
<!-- TofDetector[SampleRun]&#45;&gt;AccumulatedProtonCharge[SampleRun] -->
<g id="edge1" class="edge">
<title>TofDetector[SampleRun]:e&#45;&gt;AccumulatedProtonCharge[SampleRun]:w</title>
<path fill="none" stroke="black" d="M924.25,-240.5C994.01,-240.5 1009.1,-262.44 1078.5,-269.5 1493.07,-311.67 1602.03,-285.97 2013.18,-285.51"/>
<polygon fill="black" stroke="black" points="2012.99,-289.01 2022.99,-285.5 2012.98,-282.01 2012.99,-289.01"/>
</g>
<!-- WavelengthDetector[SampleRun] -->
<g id="node22" class="node">
<title>WavelengthDetector[SampleRun]</title>
<polygon fill="none" stroke="black" points="1233.5,-190.62 1139.5,-190.62 1139.5,-168.38 1233.5,-168.38 1233.5,-190.62"/>
<text xml:space="preserve" text-anchor="start" x="1147.5" y="-175.22" font-family="Times,serif" font-size="12.00">[SampleRun]</text>
</g>
<!-- TofDetector[SampleRun]&#45;&gt;WavelengthDetector[SampleRun] -->
<g id="edge45" class="edge">
<title>TofDetector[SampleRun]:e&#45;&gt;WavelengthDetector[SampleRun]:w</title>
<path fill="none" stroke="black" d="M924.25,-240.5C964.91,-240.5 975.2,-235.95 1014.5,-225.5 1067.42,-211.42 1078.34,-183.65 1127.12,-179.92"/>
<polygon fill="black" stroke="black" points="1127.12,-183.42 1136.99,-179.56 1126.87,-176.43 1127.12,-183.42"/>
</g>
<!-- NormalizedDspacing[SampleRun] -->
<g id="node33" class="node">
<title>NormalizedDspacing[SampleRun]</title>
<polygon fill="none" stroke="black" points="2392.5,-243.62 2298.5,-243.62 2298.5,-221.38 2392.5,-221.38 2392.5,-243.62"/>
<text xml:space="preserve" text-anchor="start" x="2306.5" y="-228.22" font-family="Times,serif" font-size="12.00">[SampleRun]</text>
</g>
<!-- AccumulatedProtonCharge[SampleRun]&#45;&gt;NormalizedDspacing[SampleRun] -->
<g id="edge33" class="edge">
<title>AccumulatedProtonCharge[SampleRun]:e&#45;&gt;NormalizedDspacing[SampleRun]:w</title>
<path fill="none" stroke="black" d="M2120.5,-285.5C2152.97,-285.5 2160.76,-279.36 2192,-270.5 2236.01,-258.02 2246.13,-236.43 2286.04,-232.97"/>
<polygon fill="black" stroke="black" points="2286.14,-236.47 2295.99,-232.56 2285.85,-229.48 2286.14,-236.47"/>
</g>
<!-- TofDetector[VanadiumRun] -->
<g id="node3" class="node">
<title>TofDetector[VanadiumRun]</title>
<polygon fill="none" stroke="black" points="930.75,-225.62 821.75,-225.62 821.75,-203.38 930.75,-203.38 930.75,-225.62"/>
<text xml:space="preserve" text-anchor="start" x="829.75" y="-210.22" font-family="Times,serif" font-size="12.00">[VanadiumRun]</text>
</g>
<!-- AccumulatedProtonCharge[VanadiumRun] -->
<g id="node4" class="node">
<title>AccumulatedProtonCharge[VanadiumRun]</title>
<polygon fill="none" stroke="black" points="2127,-270.62 2018,-270.62 2018,-248.38 2127,-248.38 2127,-270.62"/>
<text xml:space="preserve" text-anchor="start" x="2026" y="-255.22" font-family="Times,serif" font-size="12.00">[VanadiumRun]</text>
</g>
<!-- TofDetector[VanadiumRun]&#45;&gt;AccumulatedProtonCharge[VanadiumRun] -->
<g id="edge2" class="edge">
<title>TofDetector[VanadiumRun]:e&#45;&gt;AccumulatedProtonCharge[VanadiumRun]:w</title>
<path fill="none" stroke="black" d="M931.75,-214.5C997.46,-214.5 1013.05,-226.63 1078.5,-232.5 1355.41,-257.34 1425.52,-254.02 1703.5,-258.5 1839.01,-260.69 1875.68,-259.57 2005.8,-259.5"/>
<polygon fill="black" stroke="black" points="2005.49,-263 2015.49,-259.5 2005.49,-256 2005.49,-263"/>
</g>
<!-- WavelengthDetector[VanadiumRun] -->
<g id="node24" class="node">
<title>WavelengthDetector[VanadiumRun]</title>
<polygon fill="none" stroke="black" points="1241,-164.62 1132,-164.62 1132,-142.38 1241,-142.38 1241,-164.62"/>
<text xml:space="preserve" text-anchor="start" x="1140" y="-149.22" font-family="Times,serif" font-size="12.00">[VanadiumRun]</text>
</g>
<!-- TofDetector[VanadiumRun]&#45;&gt;WavelengthDetector[VanadiumRun] -->
<g id="edge47" class="edge">
<title>TofDetector[VanadiumRun]:e&#45;&gt;WavelengthDetector[VanadiumRun]:w</title>
<path fill="none" stroke="black" d="M931.75,-214.5C1020.47,-214.5 1037.07,-158.52 1119.74,-153.81"/>
<polygon fill="black" stroke="black" points="1119.59,-157.32 1129.49,-153.54 1119.39,-150.32 1119.59,-157.32"/>
</g>
<!-- NormalizedDspacing[VanadiumRun] -->
<g id="node35" class="node">
<title>NormalizedDspacing[VanadiumRun]</title>
<polygon fill="none" stroke="black" points="2400,-217.62 2291,-217.62 2291,-195.38 2400,-195.38 2400,-217.62"/>
<text xml:space="preserve" text-anchor="start" x="2299" y="-202.22" font-family="Times,serif" font-size="12.00">[VanadiumRun]</text>
</g>
<!-- AccumulatedProtonCharge[VanadiumRun]&#45;&gt;NormalizedDspacing[VanadiumRun] -->
<g id="edge35" class="edge">
<title>AccumulatedProtonCharge[VanadiumRun]:e&#45;&gt;NormalizedDspacing[VanadiumRun]:w</title>
<path fill="none" stroke="black" d="M2128,-259.5C2199.76,-259.5 2212.96,-211.94 2278.54,-206.93"/>
<polygon fill="black" stroke="black" points="2278.62,-210.43 2288.49,-206.56 2278.36,-203.43 2278.62,-210.43"/>
</g>
<!-- CalibrationFilename -->
<g id="node5" class="node">
<title>CalibrationFilename</title>
<polygon fill="none" stroke="black" points="647.12,-330.12 485.62,-330.12 485.62,-304.88 647.12,-304.88 647.12,-330.12"/>
<text xml:space="preserve" text-anchor="start" x="493.62" y="-312.82" font-family="Times,serif" font-size="14.00">CalibrationFilename</text>
</g>
<!-- CalibrationData -->
<g id="node6" class="node">
<title>CalibrationData</title>
<polygon fill="none" stroke="black" points="958.5,-334 794,-334 794,-301 958.5,-301 958.5,-334"/>
<text xml:space="preserve" text-anchor="start" x="819.62" y="-317.7" font-family="Times,serif" font-size="14.00">CalibrationData</text>
<text xml:space="preserve" text-anchor="start" x="802" y="-306.55" font-family="Times,serif" font-size="11.00">via:</text>
<text xml:space="preserve" text-anchor="start" x="822.25" y="-306.55" font-family="Times,serif" font-style="italic" font-size="11.00">pooch_load_calibration</text>
</g>
<!-- CalibrationFilename&#45;&gt;CalibrationData -->
<g id="edge3" class="edge">
<title>CalibrationFilename:e&#45;&gt;CalibrationData:w</title>
<path fill="none" stroke="black" d="M648.12,-317.5C708.62,-317.5 726.48,-317.5 781.81,-317.5"/>
<polygon fill="black" stroke="black" points="781.49,-321 791.49,-317.5 781.49,-314 781.49,-321"/>
</g>
<!-- DspacingDetector[SampleRun] -->
<g id="node8" class="node">
<title>DspacingDetector[SampleRun]</title>
<polygon fill="none" stroke="black" points="1544.88,-142.62 1450.88,-142.62 1450.88,-120.38 1544.88,-120.38 1544.88,-142.62"/>
<text xml:space="preserve" text-anchor="start" x="1458.88" y="-127.22" font-family="Times,serif" font-size="12.00">[SampleRun]</text>
</g>
<!-- CalibrationData&#45;&gt;DspacingDetector[SampleRun] -->
<g id="edge19" class="edge">
<title>CalibrationData:e&#45;&gt;DspacingDetector[SampleRun]:w</title>
<path fill="none" stroke="black" stroke-width="2" d="M959.5,-317.5C1113.54,-317.5 1154.83,-295.27 1295.5,-232.5 1320.8,-221.21 1337.26,-206.02 1351.14,-190.86"/>
<polygon fill="black" stroke="black" stroke-width="2" points="1353.46,-193.51 1357.49,-183.71 1348.23,-188.86 1353.46,-193.51"/>
</g>
<!-- DetectorBankSizes -->
<g id="node7" class="node">
<title>DetectorBankSizes</title>
<polygon fill="none" stroke="black" points="667,-291 465.75,-291 465.75,-258 667,-258 667,-291"/>
<text xml:space="preserve" text-anchor="start" x="498.5" y="-274.7" font-family="Times,serif" font-size="14.00">DetectorBankSizes</text>
<text xml:space="preserve" text-anchor="start" x="473.75" y="-263.55" font-family="Times,serif" font-size="11.00">via:</text>
<text xml:space="preserve" text-anchor="start" x="494" y="-263.55" font-family="Times,serif" font-style="italic" font-size="11.00">powgen_detector_dimensions</text>
</g>
<!-- DetectorBankSizes&#45;&gt;TofDetector[SampleRun] -->
<g id="edge43" class="edge">
<title>DetectorBankSizes:e&#45;&gt;TofDetector[SampleRun]:w</title>
<path fill="none" stroke="black" stroke-width="2" d="M667,-274.5C728.73,-274.5 748.92,-250.35 797.59,-242.76"/>
<polygon fill="black" stroke="black" stroke-width="2" points="797.73,-246.26 807.25,-241.6 796.9,-239.31 797.73,-246.26"/>
</g>
<!-- DetectorBankSizes&#45;&gt;CalibrationData -->
<g id="edge4" class="edge">
<title>DetectorBankSizes:e&#45;&gt;CalibrationData:w</title>
<path fill="none" stroke="black" d="M667,-274.5C722.13,-274.5 732.54,-311.82 781.55,-316.92"/>
<polygon fill="black" stroke="black" points="781.33,-320.42 791.49,-317.42 781.68,-313.43 781.33,-320.42"/>
</g>
<!-- CorrectedDetector[SampleRun] -->
<g id="node9" class="node">
<title>CorrectedDetector[SampleRun]</title>
<polygon fill="none" stroke="black" points="1846.12,-86.62 1752.12,-86.62 1752.12,-64.38 1846.12,-64.38 1846.12,-86.62"/>
<text xml:space="preserve" text-anchor="start" x="1760.12" y="-71.22" font-family="Times,serif" font-size="12.00">[SampleRun]</text>
</g>
<!-- DspacingDetector[SampleRun]&#45;&gt;CorrectedDetector[SampleRun] -->
<g id="edge5" class="edge">
<title>DspacingDetector[SampleRun]:e&#45;&gt;CorrectedDetector[SampleRun]:w</title>
<path fill="none" stroke="black" d="M1545.88,-131.5C1587.03,-131.5 1597.42,-126.85 1637.25,-116.5 1685.45,-103.98 1695.9,-79.5 1739.87,-75.94"/>
<polygon fill="black" stroke="black" points="1739.76,-79.44 1749.61,-75.56 1739.48,-72.45 1739.76,-79.44"/>
</g>
<!-- CorrectedDspacing[SampleRun] -->
<g id="node16" class="node">
<title>CorrectedDspacing[SampleRun]</title>
<polygon fill="none" stroke="black" points="2119.5,-191.62 2025.5,-191.62 2025.5,-169.38 2119.5,-169.38 2119.5,-191.62"/>
<text xml:space="preserve" text-anchor="start" x="2033.5" y="-176.22" font-family="Times,serif" font-size="12.00">[SampleRun]</text>
</g>
<!-- CorrectedDetector[SampleRun]&#45;&gt;CorrectedDspacing[SampleRun] -->
<g id="edge11" class="edge">
<title>CorrectedDetector[SampleRun]:e&#45;&gt;CorrectedDspacing[SampleRun]:w</title>
<path fill="none" stroke="black" d="M1847.12,-75.5C1909.22,-75.5 1898.21,-138.22 1954,-165.5 1979.07,-177.76 1989.65,-180.04 2013.14,-180.43"/>
<polygon fill="black" stroke="black" points="2012.96,-183.93 2022.99,-180.49 2013.01,-176.93 2012.96,-183.93"/>
</g>
<!-- MaskedDetectorIDs -->
<g id="node10" class="node">
<title>MaskedDetectorIDs</title>
<polygon fill="none" stroke="black" points="1576.75,-78.12 1419,-78.12 1419,-52.88 1576.75,-52.88 1576.75,-78.12"/>
<text xml:space="preserve" text-anchor="start" x="1427" y="-60.83" font-family="Times,serif" font-size="14.00">MaskedDetectorIDs</text>
</g>
<!-- MaskedDetectorIDs&#45;&gt;CorrectedDetector[SampleRun] -->
<g id="edge6" class="edge">
<title>MaskedDetectorIDs:e&#45;&gt;CorrectedDetector[SampleRun]:w</title>
<path fill="none" stroke="black" stroke-width="2" d="M1577.75,-65.5C1630.02,-65.5 1655.61,-70.09 1690.65,-73.05"/>
<polygon fill="black" stroke="black" stroke-width="2" points="1690.25,-76.53 1700.48,-73.79 1690.78,-69.55 1690.25,-76.53"/>
</g>
<!-- TofMask -->
<g id="node11" class="node">
<title>TofMask</title>
<polygon fill="none" stroke="black" points="1535.88,-49.12 1459.88,-49.12 1459.88,-23.88 1535.88,-23.88 1535.88,-49.12"/>
<text xml:space="preserve" text-anchor="start" x="1467.88" y="-31.82" font-family="Times,serif" font-size="14.00">TofMask</text>
</g>
<!-- TofMask&#45;&gt;CorrectedDetector[SampleRun] -->
<g id="edge7" class="edge">
<title>TofMask:e&#45;&gt;CorrectedDetector[SampleRun]:w</title>
<path fill="none" stroke="black" stroke-width="2" d="M1536.88,-36.5C1582.12,-36.5 1592.73,-45.43 1637.25,-53.5 1661.08,-57.82 1676.27,-62.93 1691.03,-67.15"/>
<polygon fill="black" stroke="black" stroke-width="2" points="1690.01,-70.5 1700.58,-69.66 1691.8,-63.73 1690.01,-70.5"/>
</g>
<!-- WavelengthMask -->
<g id="node12" class="node">
<title>WavelengthMask</title>
<polygon fill="none" stroke="black" points="1567,-246.12 1428.75,-246.12 1428.75,-220.88 1567,-220.88 1567,-246.12"/>
<text xml:space="preserve" text-anchor="start" x="1436.75" y="-228.82" font-family="Times,serif" font-size="14.00">WavelengthMask</text>
</g>
<!-- WavelengthMask&#45;&gt;CorrectedDetector[SampleRun] -->
<g id="edge8" class="edge">
<title>WavelengthMask:e&#45;&gt;CorrectedDetector[SampleRun]:w</title>
<path fill="none" stroke="black" stroke-width="2" d="M1568,-233.5C1599.69,-233.5 1610.5,-233.5 1637.25,-216.5 1679.4,-189.71 1682.1,-141.94 1697.25,-109.5"/>
<polygon fill="black" stroke="black" stroke-width="2" points="1700.21,-111.39 1702.03,-100.95 1694.1,-107.98 1700.21,-111.39"/>
</g>
<!-- TwoThetaMask -->
<g id="node13" class="node">
<title>TwoThetaMask</title>
<polygon fill="none" stroke="black" points="1559.88,-217.12 1435.88,-217.12 1435.88,-191.88 1559.88,-191.88 1559.88,-217.12"/>
<text xml:space="preserve" text-anchor="start" x="1443.88" y="-199.82" font-family="Times,serif" font-size="14.00">TwoThetaMask</text>
</g>
<!-- TwoThetaMask&#45;&gt;CorrectedDetector[SampleRun] -->
<g id="edge9" class="edge">
<title>TwoThetaMask:e&#45;&gt;CorrectedDetector[SampleRun]:w</title>
<path fill="none" stroke="black" stroke-width="2" d="M1560.88,-204.5C1595.96,-204.5 1606.62,-201.62 1637.25,-184.5 1672.28,-164.92 1681.55,-132 1696.25,-107.46"/>
<polygon fill="black" stroke="black" stroke-width="2" points="1699.04,-109.58 1701.79,-99.35 1693.26,-105.63 1699.04,-109.58"/>
</g>
<!-- DspacingDetector[VanadiumRun] -->
<g id="node14" class="node">
<title>DspacingDetector[VanadiumRun]</title>
<polygon fill="none" stroke="black" points="1552.38,-116.62 1443.38,-116.62 1443.38,-94.38 1552.38,-94.38 1552.38,-116.62"/>
<text xml:space="preserve" text-anchor="start" x="1451.38" y="-101.22" font-family="Times,serif" font-size="12.00">[VanadiumRun]</text>
</g>
<!-- CorrectedDetector[VanadiumRun] -->
<g id="node15" class="node">
<title>CorrectedDetector[VanadiumRun]</title>
<polygon fill="none" stroke="black" points="1853.62,-60.62 1744.62,-60.62 1744.62,-38.38 1853.62,-38.38 1853.62,-60.62"/>
<text xml:space="preserve" text-anchor="start" x="1752.62" y="-45.23" font-family="Times,serif" font-size="12.00">[VanadiumRun]</text>
</g>
<!-- DspacingDetector[VanadiumRun]&#45;&gt;CorrectedDetector[VanadiumRun] -->
<g id="edge10" class="edge">
<title>DspacingDetector[VanadiumRun]:e&#45;&gt;CorrectedDetector[VanadiumRun]:w</title>
<path fill="none" stroke="black" d="M1553.38,-105.5C1637.56,-105.5 1654.08,-54.42 1732.18,-49.83"/>
<polygon fill="black" stroke="black" points="1732.22,-53.33 1742.11,-49.54 1732.02,-46.33 1732.22,-53.33"/>
</g>
<!-- CorrectedDspacing[VanadiumRun] -->
<g id="node19" class="node">
<title>CorrectedDspacing[VanadiumRun]</title>
<polygon fill="none" stroke="black" points="2127,-165.62 2018,-165.62 2018,-143.38 2127,-143.38 2127,-165.62"/>
<text xml:space="preserve" text-anchor="start" x="2026" y="-150.22" font-family="Times,serif" font-size="12.00">[VanadiumRun]</text>
</g>
<!-- CorrectedDetector[VanadiumRun]&#45;&gt;CorrectedDspacing[VanadiumRun] -->
<g id="edge14" class="edge">
<title>CorrectedDetector[VanadiumRun]:e&#45;&gt;CorrectedDspacing[VanadiumRun]:w</title>
<path fill="none" stroke="black" d="M1854.62,-49.5C1936.54,-49.5 1931.74,-144.89 2005.52,-153.83"/>
<polygon fill="black" stroke="black" points="2005.3,-157.32 2015.49,-154.41 2005.71,-150.33 2005.3,-157.32"/>
</g>
<!-- CorrectedDspacing[SampleRun]&#45;&gt;NormalizedDspacing[SampleRun] -->
<g id="edge32" class="edge">
<title>CorrectedDspacing[SampleRun]:e&#45;&gt;NormalizedDspacing[SampleRun]:w</title>
<path fill="none" stroke="black" d="M2120.5,-180.5C2198.65,-180.5 2214.14,-227.74 2286.41,-232.17"/>
<polygon fill="black" stroke="black" points="2285.89,-235.65 2295.99,-232.45 2286.1,-228.66 2285.89,-235.65"/>
</g>
<!-- DspacingBins -->
<g id="node17" class="node">
<title>DspacingBins</title>
<polygon fill="none" stroke="black" points="1855.88,-258.12 1742.38,-258.12 1742.38,-232.88 1855.88,-232.88 1855.88,-258.12"/>
<text xml:space="preserve" text-anchor="start" x="1750.38" y="-240.82" font-family="Times,serif" font-size="14.00">DspacingBins</text>
</g>
<!-- DspacingBins&#45;&gt;CorrectedDspacing[SampleRun] -->
<g id="edge12" class="edge">
<title>DspacingBins:e&#45;&gt;CorrectedDspacing[SampleRun]:w</title>
<path fill="none" stroke="black" stroke-width="2" d="M1856.88,-245.5C1899.03,-245.5 1921.12,-227.41 1944.31,-210.32"/>
<polygon fill="black" stroke="black" stroke-width="2" points="1946.19,-213.28 1952.29,-204.62 1942.12,-207.58 1946.19,-213.28"/>
</g>
<!-- KeepEvents[SampleRun] -->
<g id="node18" class="node">
<title>KeepEvents[SampleRun]</title>
<polygon fill="none" stroke="black" points="1846.12,-191.62 1752.12,-191.62 1752.12,-169.38 1846.12,-169.38 1846.12,-191.62"/>
<text xml:space="preserve" text-anchor="start" x="1760.12" y="-176.22" font-family="Times,serif" font-size="12.00">[SampleRun]</text>
</g>
<!-- KeepEvents[SampleRun]&#45;&gt;CorrectedDspacing[SampleRun] -->
<g id="edge13" class="edge">
<title>KeepEvents[SampleRun]:e&#45;&gt;CorrectedDspacing[SampleRun]:w</title>
<path fill="none" stroke="black" d="M1847.12,-180.5C1922.11,-180.5 1943.6,-180.5 2013.36,-180.5"/>
<polygon fill="black" stroke="black" points="2012.99,-184 2022.99,-180.5 2012.99,-177 2012.99,-184"/>
</g>
<!-- CorrectedDspacing[VanadiumRun]&#45;&gt;NormalizedDspacing[VanadiumRun] -->
<g id="edge34" class="edge">
<title>CorrectedDspacing[VanadiumRun]:e&#45;&gt;NormalizedDspacing[VanadiumRun]:w</title>
<path fill="none" stroke="black" d="M2128,-154.5C2157.22,-154.5 2164.05,-160.99 2192,-169.5 2232.71,-181.9 2241.98,-202.54 2278.83,-206"/>
<polygon fill="black" stroke="black" points="2278.34,-209.48 2288.49,-206.43 2278.65,-202.49 2278.34,-209.48"/>
</g>
<!-- KeepEvents[VanadiumRun] -->
<g id="node20" class="node">
<title>KeepEvents[VanadiumRun]</title>
<polygon fill="none" stroke="black" points="1853.62,-165.62 1744.62,-165.62 1744.62,-143.38 1853.62,-143.38 1853.62,-165.62"/>
<text xml:space="preserve" text-anchor="start" x="1752.62" y="-150.22" font-family="Times,serif" font-size="12.00">[VanadiumRun]</text>
</g>
<!-- KeepEvents[VanadiumRun]&#45;&gt;CorrectedDspacing[VanadiumRun] -->
<g id="edge15" class="edge">
<title>KeepEvents[VanadiumRun]:e&#45;&gt;CorrectedDspacing[VanadiumRun]:w</title>
<path fill="none" stroke="black" d="M1854.62,-154.5C1922.85,-154.5 1942.7,-154.5 2005.63,-154.5"/>
<polygon fill="black" stroke="black" points="2005.49,-158 2015.49,-154.5 2005.49,-151 2005.49,-158"/>
</g>
<!-- NeXusName[NXdetector] -->
<g id="node21" class="node">
<title>NeXusName[NXdetector]</title>
<polygon fill="none" stroke="black" points="393.75,-287.12 197,-287.12 197,-261.88 393.75,-261.88 393.75,-287.12"/>
<text xml:space="preserve" text-anchor="start" x="205" y="-269.82" font-family="Times,serif" font-size="14.00">NeXusName[NXdetector]</text>
</g>
<!-- NeXusName[NXdetector]&#45;&gt;DetectorBankSizes -->
<g id="edge16" class="edge">
<title>NeXusName[NXdetector]:e&#45;&gt;DetectorBankSizes:w</title>
<path fill="none" stroke="black" d="M393.75,-274.5C421.62,-274.5 431.29,-274.5 454.47,-274.5"/>
<polygon fill="black" stroke="black" points="454.24,-278 464.24,-274.5 454.24,-271 454.24,-278"/>
</g>
<!-- WavelengthDetector[SampleRun]&#45;&gt;DspacingDetector[SampleRun] -->
<g id="edge17" class="edge">
<title>WavelengthDetector[SampleRun]:e&#45;&gt;DspacingDetector[SampleRun]:w</title>
<path fill="none" stroke="black" d="M1234.5,-179.5C1328.64,-179.5 1350.14,-135.27 1438.46,-131.72"/>
<polygon fill="black" stroke="black" points="1438.43,-135.23 1448.36,-131.53 1438.29,-128.23 1438.43,-135.23"/>
</g>
<!-- ElasticCoordTransformGraph[SampleRun] -->
<g id="node23" class="node">
<title>ElasticCoordTransformGraph[SampleRun]</title>
<polygon fill="none" stroke="black" points="923.25,-142.62 829.25,-142.62 829.25,-120.38 923.25,-120.38 923.25,-142.62"/>
<text xml:space="preserve" text-anchor="start" x="837.25" y="-127.22" font-family="Times,serif" font-size="12.00">[SampleRun]</text>
</g>
<!-- ElasticCoordTransformGraph[SampleRun]&#45;&gt;DspacingDetector[SampleRun] -->
<g id="edge18" class="edge">
<title>ElasticCoordTransformGraph[SampleRun]:e&#45;&gt;DspacingDetector[SampleRun]:w</title>
<path fill="none" stroke="black" d="M924.25,-131.5C1153.98,-131.5 1214.28,-131.5 1438.38,-131.5"/>
<polygon fill="black" stroke="black" points="1438.36,-135 1448.36,-131.5 1438.36,-128 1438.36,-135"/>
</g>
<!-- ElasticCoordTransformGraph[SampleRun]&#45;&gt;WavelengthDetector[SampleRun] -->
<g id="edge46" class="edge">
<title>ElasticCoordTransformGraph[SampleRun]:e&#45;&gt;WavelengthDetector[SampleRun]:w</title>
<path fill="none" stroke="black" d="M924.25,-131.5C1017.93,-131.5 1039.26,-175.73 1127.15,-179.28"/>
<polygon fill="black" stroke="black" points="1126.92,-182.77 1136.99,-179.47 1127.06,-175.77 1126.92,-182.77"/>
</g>
<!-- WavelengthDetector[VanadiumRun]&#45;&gt;DspacingDetector[VanadiumRun] -->
<g id="edge20" class="edge">
<title>WavelengthDetector[VanadiumRun]:e&#45;&gt;DspacingDetector[VanadiumRun]:w</title>
<path fill="none" stroke="black" d="M1242,-153.5C1296.24,-153.5 1306.64,-132.68 1359.5,-120.5 1391.99,-113.02 1402.65,-106.96 1431.04,-105.73"/>
<polygon fill="black" stroke="black" points="1430.94,-109.23 1440.86,-105.53 1430.79,-102.23 1430.94,-109.23"/>
</g>
<!-- ElasticCoordTransformGraph[VanadiumRun] -->
<g id="node25" class="node">
<title>ElasticCoordTransformGraph[VanadiumRun]</title>
<polygon fill="none" stroke="black" points="930.75,-116.62 821.75,-116.62 821.75,-94.38 930.75,-94.38 930.75,-116.62"/>
<text xml:space="preserve" text-anchor="start" x="829.75" y="-101.22" font-family="Times,serif" font-size="12.00">[VanadiumRun]</text>
</g>
<!-- ElasticCoordTransformGraph[VanadiumRun]&#45;&gt;DspacingDetector[VanadiumRun] -->
<g id="edge21" class="edge">
<title>ElasticCoordTransformGraph[VanadiumRun]:e&#45;&gt;DspacingDetector[VanadiumRun]:w</title>
<path fill="none" stroke="black" d="M931.75,-105.5C1154.82,-105.5 1213.44,-105.5 1430.89,-105.5"/>
<polygon fill="black" stroke="black" points="1430.86,-109 1440.86,-105.5 1430.86,-102 1430.86,-109"/>
</g>
<!-- ElasticCoordTransformGraph[VanadiumRun]&#45;&gt;WavelengthDetector[VanadiumRun] -->
<g id="edge48" class="edge">
<title>ElasticCoordTransformGraph[VanadiumRun]:e&#45;&gt;WavelengthDetector[VanadiumRun]:w</title>
<path fill="none" stroke="black" d="M931.75,-105.5C969.13,-105.5 978.09,-112.06 1014.5,-120.5 1063.04,-131.75 1075.43,-150.45 1119.7,-153.17"/>
<polygon fill="black" stroke="black" points="1119.39,-156.66 1129.49,-153.46 1119.59,-149.66 1119.39,-156.66"/>
</g>
<!-- Position[NXsource, SampleRun] -->
<g id="node26" class="node">
<title>Position[NXsource, SampleRun]</title>
<polygon fill="none" stroke="black" points="646.75,-151 486,-151 486,-120 646.75,-120 646.75,-151"/>
<text xml:space="preserve" text-anchor="start" x="494" y="-136.6" font-family="Times,serif" font-size="12.00">[NXsource, SampleRun]</text>
<text xml:space="preserve" text-anchor="start" x="512.38" y="-125.55" font-family="Times,serif" font-size="11.00">via:</text>
<text xml:space="preserve" text-anchor="start" x="532.62" y="-125.55" font-family="Times,serif" font-style="italic" font-size="11.00">source_position</text>
</g>
<!-- Position[NXsource, SampleRun]&#45;&gt;ElasticCoordTransformGraph[SampleRun] -->
<g id="edge22" class="edge">
<title>Position[NXsource, SampleRun]:e&#45;&gt;ElasticCoordTransformGraph[SampleRun]:w</title>
<path fill="none" stroke="black" d="M647.75,-135.5C724.07,-135.5 745.91,-131.88 816.91,-131.53"/>
<polygon fill="black" stroke="black" points="816.75,-135.03 826.74,-131.5 816.73,-128.03 816.75,-135.03"/>
</g>
<!-- Position[NXsample, SampleRun] -->
<g id="node27" class="node">
<title>Position[NXsample, SampleRun]</title>
<polygon fill="none" stroke="black" points="647.88,-186 484.88,-186 484.88,-155 647.88,-155 647.88,-186"/>
<text xml:space="preserve" text-anchor="start" x="492.88" y="-171.6" font-family="Times,serif" font-size="12.00">[NXsample, SampleRun]</text>
<text xml:space="preserve" text-anchor="start" x="510.88" y="-160.55" font-family="Times,serif" font-size="11.00">via:</text>
<text xml:space="preserve" text-anchor="start" x="531.12" y="-160.55" font-family="Times,serif" font-style="italic" font-size="11.00">sample_position</text>
</g>
<!-- Position[NXsample, SampleRun]&#45;&gt;ElasticCoordTransformGraph[SampleRun] -->
<g id="edge23" class="edge">
<title>Position[NXsample, SampleRun]:e&#45;&gt;ElasticCoordTransformGraph[SampleRun]:w</title>
<path fill="none" stroke="black" d="M648.88,-170.5C726.48,-170.5 744.93,-135.22 816.75,-131.77"/>
<polygon fill="black" stroke="black" points="816.82,-135.27 826.74,-131.54 816.66,-128.27 816.82,-135.27"/>
</g>
<!-- GravityVector -->
<g id="node28" class="node">
<title>GravityVector</title>
<polygon fill="none" stroke="black" points="642.62,-33 490.12,-33 490.12,0 642.62,0 642.62,-33"/>
<text xml:space="preserve" text-anchor="start" x="516.88" y="-16.7" font-family="Times,serif" font-size="14.00">GravityVector</text>
<text xml:space="preserve" text-anchor="start" x="498.12" y="-5.55" font-family="Times,serif" font-size="11.00">via:</text>
<text xml:space="preserve" text-anchor="start" x="518.38" y="-5.55" font-family="Times,serif" font-style="italic" font-size="11.00">gravity_vector_neg_y</text>
</g>
<!-- GravityVector&#45;&gt;ElasticCoordTransformGraph[SampleRun] -->
<g id="edge24" class="edge">
<title>GravityVector:e&#45;&gt;ElasticCoordTransformGraph[SampleRun]:w</title>
<path fill="none" stroke="black" stroke-width="2" d="M643.62,-16.5C700.48,-16.5 687.35,-77.46 728.1,-109.42"/>
<polygon fill="black" stroke="black" stroke-width="2" points="726.17,-112.34 736.46,-114.85 729.98,-106.47 726.17,-112.34"/>
</g>
<!-- Position[NXsource, VanadiumRun] -->
<g id="node29" class="node">
<title>Position[NXsource, VanadiumRun]</title>
<polygon fill="none" stroke="black" points="654.25,-81 478.5,-81 478.5,-50 654.25,-50 654.25,-81"/>
<text xml:space="preserve" text-anchor="start" x="486.5" y="-66.6" font-family="Times,serif" font-size="12.00">[NXsource, VanadiumRun]</text>
<text xml:space="preserve" text-anchor="start" x="512.38" y="-55.55" font-family="Times,serif" font-size="11.00">via:</text>
<text xml:space="preserve" text-anchor="start" x="532.62" y="-55.55" font-family="Times,serif" font-style="italic" font-size="11.00">source_position</text>
</g>
<!-- Position[NXsource, VanadiumRun]&#45;&gt;ElasticCoordTransformGraph[VanadiumRun] -->
<g id="edge25" class="edge">
<title>Position[NXsource, VanadiumRun]:e&#45;&gt;ElasticCoordTransformGraph[VanadiumRun]:w</title>
<path fill="none" stroke="black" d="M655.25,-65.5C726.93,-65.5 743.41,-101.39 809.27,-105.18"/>
<polygon fill="black" stroke="black" points="809.14,-108.68 819.24,-105.46 809.34,-101.68 809.14,-108.68"/>
</g>
<!-- Position[NXsample, VanadiumRun] -->
<g id="node30" class="node">
<title>Position[NXsample, VanadiumRun]</title>
<polygon fill="none" stroke="black" points="655.38,-116 477.38,-116 477.38,-85 655.38,-85 655.38,-116"/>
<text xml:space="preserve" text-anchor="start" x="485.38" y="-101.6" font-family="Times,serif" font-size="12.00">[NXsample, VanadiumRun]</text>
<text xml:space="preserve" text-anchor="start" x="510.88" y="-90.55" font-family="Times,serif" font-size="11.00">via:</text>
<text xml:space="preserve" text-anchor="start" x="531.12" y="-90.55" font-family="Times,serif" font-style="italic" font-size="11.00">sample_position</text>
</g>
<!-- Position[NXsample, VanadiumRun]&#45;&gt;ElasticCoordTransformGraph[VanadiumRun] -->
<g id="edge26" class="edge">
<title>Position[NXsample, VanadiumRun]:e&#45;&gt;ElasticCoordTransformGraph[VanadiumRun]:w</title>
<path fill="none" stroke="black" d="M656.38,-100.5C725.61,-100.5 745.59,-104.99 809.63,-105.46"/>
<polygon fill="black" stroke="black" points="809.22,-108.96 819.24,-105.49 809.25,-101.96 809.22,-108.96"/>
</g>
<!-- Filename[SampleRun] -->
<g id="node31" class="node">
<title>Filename[SampleRun]</title>
<polygon fill="none" stroke="black" points="117.5,-163.62 23.5,-163.62 23.5,-141.38 117.5,-141.38 117.5,-163.62"/>
<text xml:space="preserve" text-anchor="start" x="31.5" y="-148.22" font-family="Times,serif" font-size="12.00">[SampleRun]</text>
</g>
<!-- RawDataAndMetadata[SampleRun] -->
<g id="node39" class="node">
<title>RawDataAndMetadata[SampleRun]</title>
<polygon fill="none" stroke="black" points="342.38,-163.62 248.38,-163.62 248.38,-141.38 342.38,-141.38 342.38,-163.62"/>
<text xml:space="preserve" text-anchor="start" x="256.38" y="-148.22" font-family="Times,serif" font-size="12.00">[SampleRun]</text>
</g>
<!-- Filename[SampleRun]&#45;&gt;RawDataAndMetadata[SampleRun] -->
<g id="edge40" class="edge">
<title>Filename[SampleRun]:e&#45;&gt;RawDataAndMetadata[SampleRun]:w</title>
<path fill="none" stroke="black" d="M118.5,-152.5C171.75,-152.5 187.87,-152.5 235.9,-152.5"/>
<polygon fill="black" stroke="black" points="235.86,-156 245.86,-152.5 235.86,-149 235.86,-156"/>
</g>
<!-- Filename[VanadiumRun] -->
<g id="node32" class="node">
<title>Filename[VanadiumRun]</title>
<polygon fill="none" stroke="black" points="125,-137.62 16,-137.62 16,-115.38 125,-115.38 125,-137.62"/>
<text xml:space="preserve" text-anchor="start" x="24" y="-122.22" font-family="Times,serif" font-size="12.00">[VanadiumRun]</text>
</g>
<!-- RawDataAndMetadata[VanadiumRun] -->
<g id="node40" class="node">
<title>RawDataAndMetadata[VanadiumRun]</title>
<polygon fill="none" stroke="black" points="349.88,-137.62 240.88,-137.62 240.88,-115.38 349.88,-115.38 349.88,-137.62"/>
<text xml:space="preserve" text-anchor="start" x="248.88" y="-122.22" font-family="Times,serif" font-size="12.00">[VanadiumRun]</text>
</g>
<!-- Filename[VanadiumRun]&#45;&gt;RawDataAndMetadata[VanadiumRun] -->
<g id="edge41" class="edge">
<title>Filename[VanadiumRun]:e&#45;&gt;RawDataAndMetadata[VanadiumRun]:w</title>
<path fill="none" stroke="black" d="M126,-126.5C172.56,-126.5 186.99,-126.5 228.41,-126.5"/>
<polygon fill="black" stroke="black" points="228.36,-130 238.36,-126.5 228.36,-123 228.36,-130"/>
</g>
<!-- FocussedDataDspacing[SampleRun] -->
<g id="node34" class="node">
<title>FocussedDataDspacing[SampleRun]</title>
<polygon fill="none" stroke="black" points="2661.62,-243.62 2567.62,-243.62 2567.62,-221.38 2661.62,-221.38 2661.62,-243.62"/>
<text xml:space="preserve" text-anchor="start" x="2575.62" y="-228.22" font-family="Times,serif" font-size="12.00">[SampleRun]</text>
</g>
<!-- NormalizedDspacing[SampleRun]&#45;&gt;FocussedDataDspacing[SampleRun] -->
<g id="edge27" class="edge">
<title>NormalizedDspacing[SampleRun]:e&#45;&gt;FocussedDataDspacing[SampleRun]:w</title>
<path fill="none" stroke="black" d="M2393.5,-232.5C2466.54,-232.5 2487.58,-232.5 2555.33,-232.5"/>
<polygon fill="black" stroke="black" points="2555.11,-236 2565.11,-232.5 2555.11,-229 2555.11,-236"/>
</g>
<!-- IntensityDspacing[SampleRun] -->
<g id="node37" class="node">
<title>IntensityDspacing[SampleRun]</title>
<polygon fill="none" stroke="black" points="3031.25,-223 2793.25,-223 2793.25,-190 3031.25,-190 3031.25,-223"/>
<text xml:space="preserve" text-anchor="start" x="2801.25" y="-206.7" font-family="Times,serif" font-size="14.00">IntensityDspacing[SampleRun]</text>
<text xml:space="preserve" text-anchor="start" x="2808" y="-195.55" font-family="Times,serif" font-size="11.00">via:</text>
<text xml:space="preserve" text-anchor="start" x="2828.25" y="-195.55" font-family="Times,serif" font-style="italic" font-size="11.00">normalize_by_vanadium_dspacing</text>
</g>
<!-- FocussedDataDspacing[SampleRun]&#45;&gt;IntensityDspacing[SampleRun] -->
<g id="edge29" class="edge">
<title>FocussedDataDspacing[SampleRun]:e&#45;&gt;IntensityDspacing[SampleRun]:w</title>
<path fill="none" stroke="black" d="M2662.62,-232.5C2717.89,-232.5 2732.22,-209.84 2782.05,-206.83"/>
<polygon fill="black" stroke="black" points="2781.84,-210.34 2791.74,-206.54 2781.64,-203.34 2781.84,-210.34"/>
</g>
<!-- FocussedDataDspacing[VanadiumRun] -->
<g id="node36" class="node">
<title>FocussedDataDspacing[VanadiumRun]</title>
<polygon fill="none" stroke="black" points="2669.12,-217.62 2560.12,-217.62 2560.12,-195.38 2669.12,-195.38 2669.12,-217.62"/>
<text xml:space="preserve" text-anchor="start" x="2568.12" y="-202.22" font-family="Times,serif" font-size="12.00">[VanadiumRun]</text>
</g>
<!-- NormalizedDspacing[VanadiumRun]&#45;&gt;FocussedDataDspacing[VanadiumRun] -->
<g id="edge28" class="edge">
<title>NormalizedDspacing[VanadiumRun]:e&#45;&gt;FocussedDataDspacing[VanadiumRun]:w</title>
<path fill="none" stroke="black" d="M2401,-206.5C2467.3,-206.5 2486.69,-206.5 2547.67,-206.5"/>
<polygon fill="black" stroke="black" points="2547.61,-210 2557.61,-206.5 2547.61,-203 2547.61,-210"/>
</g>
<!-- FocussedDataDspacing[VanadiumRun]&#45;&gt;IntensityDspacing[SampleRun] -->
<g id="edge30" class="edge">
<title>FocussedDataDspacing[VanadiumRun]:e&#45;&gt;IntensityDspacing[SampleRun]:w</title>
<path fill="none" stroke="black" d="M2670.12,-206.5C2720.89,-206.5 2736.34,-206.5 2782,-206.5"/>
<polygon fill="black" stroke="black" points="2781.74,-210 2791.74,-206.5 2781.74,-203 2781.74,-210"/>
</g>
<!-- UncertaintyBroadcastMode -->
<g id="node38" class="node">
<title>UncertaintyBroadcastMode</title>
<polygon fill="none" stroke="black" points="2721.25,-179.12 2508,-179.12 2508,-153.88 2721.25,-153.88 2721.25,-179.12"/>
<text xml:space="preserve" text-anchor="start" x="2516" y="-161.82" font-family="Times,serif" font-size="14.00">UncertaintyBroadcastMode</text>
</g>
<!-- UncertaintyBroadcastMode&#45;&gt;IntensityDspacing[SampleRun] -->
<g id="edge31" class="edge">
<title>UncertaintyBroadcastMode:e&#45;&gt;IntensityDspacing[SampleRun]:w</title>
<path fill="none" stroke="black" d="M2721.25,-166.5C2753.71,-166.5 2756.43,-197.95 2782.16,-205.08"/>
<polygon fill="black" stroke="black" points="2781.38,-208.51 2791.75,-206.31 2782.28,-201.56 2781.38,-208.51"/>
</g>
<!-- RawDataAndMetadata[SampleRun]&#45;&gt;TofDetector[SampleRun] -->
<g id="edge42" class="edge">
<title>RawDataAndMetadata[SampleRun]:e&#45;&gt;TofDetector[SampleRun]:w</title>
<path fill="none" stroke="black" d="M343.38,-152.5C408.6,-152.5 403.48,-214.1 465.75,-233.5 539.29,-256.41 729.91,-241.91 816.93,-240.59"/>
<polygon fill="black" stroke="black" points="816.77,-244.09 826.74,-240.51 816.71,-237.1 816.77,-244.09"/>
</g>
<!-- RawDataAndMetadata[SampleRun]&#45;&gt;Position[NXsource, SampleRun] -->
<g id="edge38" class="edge">
<title>RawDataAndMetadata[SampleRun]:e&#45;&gt;Position[NXsource, SampleRun]:w</title>
<path fill="none" stroke="black" d="M343.38,-152.5C402.81,-152.5 419.56,-137.56 473.66,-135.69"/>
<polygon fill="black" stroke="black" points="473.55,-139.19 483.49,-135.53 473.43,-132.19 473.55,-139.19"/>
</g>
<!-- RawDataAndMetadata[SampleRun]&#45;&gt;Position[NXsample, SampleRun] -->
<g id="edge36" class="edge">
<title>RawDataAndMetadata[SampleRun]:e&#45;&gt;Position[NXsample, SampleRun]:w</title>
<path fill="none" stroke="black" d="M343.38,-152.5C402.4,-152.5 418.91,-168.32 472.61,-170.3"/>
<polygon fill="black" stroke="black" points="472.3,-173.79 482.36,-170.47 472.43,-166.79 472.3,-173.79"/>
</g>
<!-- RawDataAndMetadata[VanadiumRun]&#45;&gt;TofDetector[VanadiumRun] -->
<g id="edge44" class="edge">
<title>RawDataAndMetadata[VanadiumRun]:e&#45;&gt;TofDetector[VanadiumRun]:w</title>
<path fill="none" stroke="black" d="M350.88,-126.5C371.06,-126.5 376.91,-130.37 393.75,-141.5 433.38,-167.7 422.29,-201.31 465.75,-220.5 534.68,-250.94 723.79,-217.76 809.38,-214.72"/>
<polygon fill="black" stroke="black" points="809.31,-218.22 819.24,-214.53 809.17,-211.22 809.31,-218.22"/>
</g>
<!-- RawDataAndMetadata[VanadiumRun]&#45;&gt;Position[NXsource, VanadiumRun] -->
<g id="edge39" class="edge">
<title>RawDataAndMetadata[VanadiumRun]:e&#45;&gt;Position[NXsource, VanadiumRun]:w</title>
<path fill="none" stroke="black" d="M350.88,-126.5C409.32,-126.5 414.56,-73.11 466.15,-66.23"/>
<polygon fill="black" stroke="black" points="466.23,-69.73 475.99,-65.6 465.79,-62.74 466.23,-69.73"/>
</g>
<!-- RawDataAndMetadata[VanadiumRun]&#45;&gt;Position[NXsample, VanadiumRun] -->
<g id="edge37" class="edge">
<title>RawDataAndMetadata[VanadiumRun]:e&#45;&gt;Position[NXsample, VanadiumRun]:w</title>
<path fill="none" stroke="black" d="M350.88,-126.5C403.83,-126.5 417.56,-104.03 465,-100.87"/>
<polygon fill="black" stroke="black" points="464.98,-104.37 474.86,-100.55 464.75,-97.37 464.98,-104.37"/>
</g>
</g>
</svg>
