<?xml version="1.0" encoding="UTF-8" standalone="no"?>
<!-- Created with Inkscape (http://www.inkscape.org/) -->

<svg
   width="274.19016mm"
   height="42.177399mm"
   viewBox="0 0 274.19017 42.177399"
   version="1.1"
   id="svg8"
   sodipodi:docname="logo-dark.svg"
   inkscape:version="1.1.2 (0a00cf5339, 2022-02-04)"
   xmlns:inkscape="http://www.inkscape.org/namespaces/inkscape"
   xmlns:sodipodi="http://sodipodi.sourceforge.net/DTD/sodipodi-0.dtd"
   xmlns="http://www.w3.org/2000/svg"
   xmlns:svg="http://www.w3.org/2000/svg"
   xmlns:rdf="http://www.w3.org/1999/02/22-rdf-syntax-ns#"
   xmlns:cc="http://creativecommons.org/ns#"
   xmlns:dc="http://purl.org/dc/elements/1.1/">
  <sodipodi:namedview
     id="namedview960"
     pagecolor="#ffffff"
     bordercolor="#666666"
     borderopacity="1.0"
     inkscape:pageshadow="2"
     inkscape:pageopacity="0.0"
     inkscape:pagecheckerboard="0"
     inkscape:document-units="mm"
     showgrid="false"
     fit-margin-top="0"
     fit-margin-left="0"
     fit-margin-right="0"
     fit-margin-bottom="0"
     inkscape:zoom="0.8484807"
     inkscape:cx="695.94983"
     inkscape:cy="140.25069"
     inkscape:window-width="2560"
     inkscape:window-height="1403"
     inkscape:window-x="1920"
     inkscape:window-y="897"
     inkscape:window-maximized="1"
     inkscape:current-layer="layer1" />
  <defs
     id="defs2">
    <rect
       x="-197.65958"
       y="211.67747"
       width="1288.5021"
       height="366.45435"
       id="rect10136" />
    <rect
       x="-197.65958"
       y="211.67747"
       width="1288.5021"
       height="366.45435"
       id="rect11574" />
  </defs>
  <metadata
     id="metadata5">
    <rdf:RDF>
      <cc:Work
         rdf:about="">
        <dc:format>image/svg+xml</dc:format>
        <dc:type
           rdf:resource="http://purl.org/dc/dcmitype/StillImage" />
      </cc:Work>
    </rdf:RDF>
  </metadata>
  <g
     id="layer1"
     transform="translate(-29.189909,-99.245694)">
    <path
       id="path8254"
       style="fill:#ffffff;fill-opacity:1;fill-rule:evenodd;stroke:none;stroke-width:0.0700042px;stroke-linecap:butt;stroke-linejoin:miter;stroke-opacity:1"
       d="m 47.116411,99.368512 -6.011207,3.470808 a 0.91643846,0.91643846 0 0 1 -0.916517,-2e-5 l -1.68115,-0.97077 a 0.9162711,0.9162711 0 0 0 -0.916475,5e-5 l -2.745665,1.5859 a 0.91674198,0.91674198 0 0 0 -0.458222,0.79384 v 1.93971 a 0.9167438,0.9167438 0 0 1 -0.458222,0.79384 l -4.280822,2.47261 a 0.9167438,0.9167438 0 0 0 -0.458222,0.79384 v 18.0569 2.11523 a 0.91692071,0.91692071 0 0 0 0.458177,0.79392 l 0.915677,0.5291 a 2286.8691,2286.8691 0 0 0 0.916477,0.52928 l 1.979885,1.1428 a 0.3055521,0.3055521 0 0 0 0.4583,-0.26463 v -1.4026 a 0.91721489,0.91721489 0 0 0 -0.458104,-0.79404 l -1.681448,-0.97221 a 0.91721489,0.91721489 0 0 1 -0.458104,-0.79404 v -17.70729 a 0.91688301,0.91688301 0 0 1 0.458187,-0.7939 l 3.214485,-1.85726 a 0.91613021,0.91613021 0 0 1 0.91644,-1.1e-4 l 1.68115,0.97077 a 0.91651552,0.91651552 0 0 0 0.916536,5e-5 l 2.747497,-1.58611 a 0.91649747,0.91649747 0 0 0 0.458283,-0.79373 v -1.93971 a 0.91690648,0.91690648 0 0 1 0.458181,-0.79391 l 4.944966,-2.85724 a 0.916451,0.916451 0 0 1 0.91652,-2.7e-4 l 1.682931,0.97107 a 0.91673323,0.91673323 0 0 0 0.916591,-1.5e-4 l 1.214356,-0.70124 a 0.30550399,0.30550399 0 0 0 -4.8e-5,-0.52915 l -3.813869,-2.2014 a 0.91662478,0.91662478 0 0 0 -0.916564,6.2e-5 z m -8.609052,4.961268 0.617053,0.35687 a 0.91733263,0.91733263 0 0 1 0.458075,0.79409 v 0.70729 a 0.91733263,0.91733263 0 0 1 -0.458075,0.79409 l -0.617053,0.35687 a 0.91496847,0.91496847 0 0 1 -0.91615,0 l -0.617053,-0.35687 a 0.91733263,0.91733263 0 0 1 -0.458075,-0.79409 v -0.70729 a 0.91733263,0.91733263 0 0 1 0.458075,-0.79409 l 0.617053,-0.35687 a 0.91496847,0.91496847 0 0 1 0.91615,0 z m 17.27115,0.0387 -17.470168,10.08608 a 0.91652881,0.91652881 0 0 0 -0.458275,0.79374 v 5.93972 a 0.91721471,0.91721471 0 0 1 -0.458104,0.79404 l -1.681449,0.9722 a 0.91721471,0.91721471 0 0 0 -0.458104,0.79404 v 3.17214 a 0.91721471,0.91721471 0 0 0 0.458104,0.79404 l 1.681449,0.9722 a 0.91721471,0.91721471 0 0 1 0.458104,0.79405 v 5.93971 a 0.91692071,0.91692071 0 0 0 0.458177,0.79391 l 0.915677,0.5291 a 2863.0058,2863.0058 0 0 0 0.916452,0.52933 l 6.976028,4.02748 a 0.91689642,0.91689642 0 0 0 0.916631,1.4e-4 l 0.149694,-0.0864 a 0.91620508,0.91620508 0 0 0 0.458356,-0.7936 v -18.93971 a 0.91676162,0.91676162 0 0 1 0.458217,-0.79385 l 5.612863,-3.24212 a 0.30544185,0.30544185 0 0 1 0.458217,0.26448 v 18.94167 a 0.30548758,0.30548758 0 0 0 0.458252,0.26455 l 1.214355,-0.70123 a 0.91662439,0.91662439 0 0 0 0.458252,-0.79379 v -20.17018 a 0.91765905,0.91765905 0 0 0 -0.457993,-0.79423 l -0.15042,-0.0871 a 0.91537068,0.91537068 0 0 0 -0.91625,-4.6e-4 l -8.808095,5.08602 a 0.91660309,0.91660309 0 0 0 -0.458257,0.79377 v 17.7112 a 0.30544185,0.30544185 0 0 1 -0.458217,0.26449 l -5.612863,-3.24213 a 0.91676162,0.91676162 0 0 1 -0.458217,-0.79384 v -4.70729 a 0.91721489,0.91721489 0 0 1 0.458104,-0.79404 l 1.681448,-0.97221 a 0.91721489,0.91721489 0 0 0 0.458104,-0.79404 v -3.17213 a 0.91721489,0.91721489 0 0 0 -0.458104,-0.79404 l -1.681448,-0.97221 a 0.91721489,0.91721489 0 0 1 -0.458104,-0.79404 v -4.70729 a 0.9166131,0.9166131 0 0 1 0.458254,-0.79378 L 57.90939,105.599 a 0.30556457,0.30556457 0 0 0 2e-6,-0.52923 l -1.214356,-0.70124 a 0.9164777,0.9164777 0 0 0 -0.916527,-4e-5 z m 6.062419,3.49986 -1.2161,0.70159 a 0.30552722,0.30552722 0 0 0 -1.79e-4,0.52919 l 2.747708,1.58769 a 0.91692071,0.91692071 0 0 1 0.458177,0.79392 v 5.70729 a 0.91721489,0.91721489 0 0 1 -0.458104,0.79404 l -1.681448,0.9722 a 0.91721489,0.91721489 0 0 0 -0.458104,0.79405 v 3.17213 a 0.91721489,0.91721489 0 0 0 0.458104,0.79404 l 1.681448,0.97221 a 0.91721489,0.91721489 0 0 1 0.458104,0.79404 v 3.70729 a 0.91721489,0.91721489 0 0 1 -0.458104,0.79404 l -1.681448,0.97221 a 0.91721489,0.91721489 0 0 0 -0.458104,0.79404 v 1.4026 a 0.30548884,0.30548884 0 0 0 0.458253,0.26455 l 3.81201,-2.20123 a 0.91662061,0.91662061 0 0 0 0.458253,-0.79379 v -4.93971 a 0.91721489,0.91721489 0 0 1 0.458104,-0.79404 l 1.681448,-0.97221 a 0.91721489,0.91721489 0 0 0 0.458104,-0.79404 v -3.17213 a 0.91721489,0.91721489 0 0 0 -0.458104,-0.79404 l -1.681448,-0.97221 a 0.91721489,0.91721489 0 0 1 -0.458104,-0.79404 v -6.93971 a 0.91674185,0.91674185 0 0 0 -0.458222,-0.79384 l -2.745666,-1.5859 a 0.91668426,0.91668426 0 0 0 -0.916578,-2.3e-4 z m 3.512134,11.96142 0.617053,0.35687 a 0.91733263,0.91733263 0 0 1 0.458075,0.7941 v 0.70729 a 0.91733263,0.91733263 0 0 1 -0.458075,0.79409 l -0.617053,0.35687 a 0.91438545,0.91438545 0 0 1 -0.916003,-2.6e-4 l -0.615394,-0.35636 a 0.91791847,0.91791847 0 0 1 -0.457928,-0.79434 v -0.70729 a 0.91791847,0.91791847 0 0 1 0.457928,-0.79435 l 0.615394,-0.35636 a 0.91438545,0.91438545 0 0 1 0.916003,-2.5e-4 z m -25.980468,4 0.617053,0.35687 a 0.91733263,0.91733263 0 0 1 0.458075,0.7941 v 0.70729 a 0.91733263,0.91733263 0 0 1 -0.458075,0.79409 l -0.617053,0.35687 a 0.91496847,0.91496847 0 0 1 -0.91615,0 l -0.617053,-0.35687 a 0.91733263,0.91733263 0 0 1 -0.458075,-0.79409 v -0.70729 a 0.91733263,0.91733263 0 0 1 0.458075,-0.7941 l 0.617053,-0.35687 a 0.91496847,0.91496847 0 0 1 0.91615,0 z" />
    <g
       aria-label="essreflectometry"
       id="text8262"
       style="font-size:25.4px;line-height:11.9062px;font-family:Lato;-inkscape-font-specification:Lato;letter-spacing:0px;word-spacing:0px;fill:#ffffff;stroke-width:0.264583px">
      <path
         d="m 91.974872,114.35016 q 1.2319,0 2.2733,0.3937 1.0414,0.3937 1.7907,1.1557 0.7493,0.7493 1.1684,1.8542 0.4318,1.0922 0.4318,2.5019 0,0.7112 -0.1524,0.9652 -0.1524,0.2413 -0.5842,0.2413 h -8.0645 q 0.0762,1.0033 0.3556,1.7399 0.2794,0.7239 0.7366,1.2065 0.4572,0.4699 1.0795,0.7112 0.635,0.2286 1.397,0.2286 0.762,0 1.3081,-0.1778 0.5588,-0.1778 0.9652,-0.3937 0.4191,-0.2159 0.7239,-0.3937 0.3175,-0.1778 0.6096,-0.1778 0.3937,0 0.5842,0.2921 l 0.9017,1.143 q -0.5207,0.6096 -1.1684,1.0287 -0.6477,0.4064 -1.3589,0.6604 -0.6985,0.2413 -1.4351,0.3429 -0.7239,0.1016 -1.4097,0.1016 -1.3589,0 -2.5273,-0.4445 -1.1684,-0.4572 -2.032,-1.3335 -0.8636,-0.889 -1.3589,-2.1844 -0.4953,-1.3081 -0.4953,-3.0226 0,-1.3335 0.4318,-2.5019 0.4318,-1.1811 1.2319,-2.0447 0.8128,-0.8763 1.9685,-1.3843 1.1684,-0.508 2.6289,-0.508 z m 0.0635,2.2479 q -1.3716,0 -2.1463,0.7747 -0.7747,0.7747 -0.9906,2.1971 h 5.9182 q 0,-0.6096 -0.1778,-1.143 -0.1651,-0.5461 -0.508,-0.9525 -0.3429,-0.4064 -0.8763,-0.635 -0.5207,-0.2413 -1.2192,-0.2413 z"
         style="font-weight:bold;-inkscape-font-specification:'Lato Bold'"
         id="path16" />
      <path
         d="m 107.93873,117.09336 q -0.127,0.2032 -0.2667,0.2921 -0.1397,0.0762 -0.3556,0.0762 -0.2286,0 -0.4953,-0.127 -0.254,-0.127 -0.5969,-0.2794 -0.3429,-0.1651 -0.7874,-0.2921 -0.4318,-0.127 -1.0287,-0.127 -0.9271,0 -1.4605,0.3937 -0.5207,0.3937 -0.5207,1.0287 0,0.4191 0.2667,0.7112 0.2794,0.2794 0.7239,0.4953 0.4572,0.2159 1.0287,0.3937 0.5715,0.1651 1.1557,0.3683 0.5969,0.2032 1.1684,0.4699 0.5715,0.254 1.016,0.6604 0.4572,0.3937 0.7239,0.9525 0.2794,0.5588 0.2794,1.3462 0,0.9398 -0.3429,1.7399 -0.3302,0.7874 -0.9906,1.3716 -0.6604,0.5715 -1.6383,0.9017 -0.9652,0.3175 -2.2352,0.3175 -0.6731,0 -1.3208,-0.127 -0.635,-0.1143 -1.2319,-0.3302 -0.5842,-0.2159 -1.092196,-0.508 -0.4953,-0.2921 -0.8763,-0.635 l 0.7239,-1.1938 q 0.1397,-0.2159 0.330196,-0.3302 0.1905,-0.1143 0.4826,-0.1143 0.2921,0 0.5461,0.1651 0.2667,0.1651 0.6096,0.3556 0.3429,0.1905 0.8001,0.3556 0.4699,0.1651 1.1811,0.1651 0.5588,0 0.9525,-0.127 0.4064,-0.1397 0.6604,-0.3556 0.2667,-0.2159 0.381,-0.4953 0.127,-0.2921 0.127,-0.5969 0,-0.4572 -0.2794,-0.7493 -0.2667,-0.2921 -0.7239,-0.508 -0.4445,-0.2159 -1.0287,-0.381 -0.5715,-0.1778 -1.1811,-0.381 -0.5969,-0.2032 -1.1811,-0.4699 -0.5715,-0.2794 -1.0287,-0.6985 -0.444496,-0.4191 -0.723896,-1.0287 -0.2667,-0.6096 -0.2667,-1.4732 0,-0.8001 0.3175,-1.524 0.317496,-0.7239 0.927096,-1.2573 0.6223,-0.5461 1.5367,-0.8636 0.9271,-0.3302 2.1336,-0.3302 1.3462,0 2.4511,0.4445 1.1049,0.4445 1.8415,1.1684 z"
         style="font-weight:bold;-inkscape-font-specification:'Lato Bold'"
         id="path18" />
      <path
         d="m 119.10201,117.09336 q -0.127,0.2032 -0.2667,0.2921 -0.1397,0.0762 -0.3556,0.0762 -0.2286,0 -0.4953,-0.127 -0.254,-0.127 -0.5969,-0.2794 -0.3429,-0.1651 -0.7874,-0.2921 -0.4318,-0.127 -1.0287,-0.127 -0.9271,0 -1.4605,0.3937 -0.5207,0.3937 -0.5207,1.0287 0,0.4191 0.2667,0.7112 0.2794,0.2794 0.7239,0.4953 0.4572,0.2159 1.0287,0.3937 0.5715,0.1651 1.1557,0.3683 0.5969,0.2032 1.1684,0.4699 0.5715,0.254 1.016,0.6604 0.4572,0.3937 0.7239,0.9525 0.2794,0.5588 0.2794,1.3462 0,0.9398 -0.3429,1.7399 -0.3302,0.7874 -0.9906,1.3716 -0.6604,0.5715 -1.6383,0.9017 -0.9652,0.3175 -2.2352,0.3175 -0.6731,0 -1.3208,-0.127 -0.635,-0.1143 -1.2319,-0.3302 -0.5842,-0.2159 -1.0922,-0.508 -0.4953,-0.2921 -0.8763,-0.635 l 0.7239,-1.1938 q 0.1397,-0.2159 0.3302,-0.3302 0.1905,-0.1143 0.4826,-0.1143 0.2921,0 0.5461,0.1651 0.2667,0.1651 0.6096,0.3556 0.3429,0.1905 0.8001,0.3556 0.4699,0.1651 1.1811,0.1651 0.5588,0 0.9525,-0.127 0.4064,-0.1397 0.6604,-0.3556 0.2667,-0.2159 0.381,-0.4953 0.127,-0.2921 0.127,-0.5969 0,-0.4572 -0.2794,-0.7493 -0.2667,-0.2921 -0.7239,-0.508 -0.4445,-0.2159 -1.0287,-0.381 -0.5715,-0.1778 -1.1811,-0.381 -0.5969,-0.2032 -1.1811,-0.4699 -0.5715,-0.2794 -1.0287,-0.6985 -0.4445,-0.4191 -0.7239,-1.0287 -0.2667,-0.6096 -0.2667,-1.4732 0,-0.8001 0.3175,-1.524 0.3175,-0.7239 0.9271,-1.2573 0.6223,-0.5461 1.5367,-0.8636 0.9271,-0.3302 2.1336,-0.3302 1.3462,0 2.4511,0.4445 1.1049,0.4445 1.8415,1.1684 z"
         style="font-weight:bold;-inkscape-font-specification:'Lato Bold'"
         id="path20" />
      <path
         d="m 122.84848,127.58356 v -12.6365 h 0.6477 q 0.2159,0 0.3048,0.0889 0.0889,0.0889 0.1143,0.3048 l 0.0889,2.6543 q 0.2921,-0.7747 0.6604,-1.3716 0.381,-0.6096 0.8636,-1.0287 0.4953,-0.4191 1.0922,-0.635 0.6096,-0.2286 1.3462,-0.2286 0.3937,0 0.7747,0.0762 0.381,0.0635 0.6731,0.2413 l -0.1016,0.8382 q -0.0635,0.2032 -0.2413,0.2032 -0.1524,0 -0.4699,-0.0889 -0.3048,-0.0889 -0.8128,-0.0889 -0.7366,0 -1.3081,0.2286 -0.5715,0.2286 -1.016,0.6731 -0.4445,0.4318 -0.7874,1.0922 -0.3302,0.6477 -0.6096,1.4986 v 8.1788 z"
         style="font-weight:300;-inkscape-font-specification:'Lato Light'"
         id="path22" />
      <path
         d="m 136.06914,114.74386 q 1.0668,0 1.9812,0.3683 0.9144,0.3683 1.5875,1.0795 0.6731,0.6985 1.0541,1.7272 0.3937,1.0287 0.3937,2.3622 0,0.2794 -0.0762,0.381 -0.0762,0.1016 -0.254,0.1016 h -9.1948 v 0.2413 q 0,1.4224 0.3302,2.5019 0.3302,1.0795 0.9398,1.8161 0.6096,0.7239 1.4732,1.0922 0.8636,0.3683 1.9304,0.3683 0.9525,0 1.651,-0.2032 0.6985,-0.2159 1.1684,-0.4699 0.4826,-0.2667 0.762,-0.4699 0.2794,-0.2159 0.4064,-0.2159 0.1651,0 0.254,0.127 l 0.3302,0.4064 q -0.3048,0.381 -0.8128,0.7112 -0.4953,0.3302 -1.1176,0.5715 -0.6096,0.2286 -1.3208,0.3683 -0.6985,0.1397 -1.4097,0.1397 -1.2954,0 -2.3622,-0.4445 -1.0668,-0.4572 -1.8288,-1.3208 -0.762,-0.8636 -1.1811,-2.1082 -0.4064,-1.2573 -0.4064,-2.8702 0,-1.3589 0.381,-2.5019 0.3937,-1.1557 1.1176,-1.9812 0.7366,-0.8382 1.7907,-1.3081 1.0668,-0.4699 2.413,-0.4699 z m 0.0127,0.9017 q -0.9779,0 -1.7526,0.3048 -0.7747,0.3048 -1.3462,0.8763 -0.5588,0.5715 -0.9144,1.3716 -0.3429,0.8001 -0.4572,1.7907 h 8.382 q 0,-1.016 -0.2921,-1.8161 -0.2794,-0.8128 -0.8001,-1.3716 -0.5207,-0.5588 -1.2446,-0.8509 -0.7112,-0.3048 -1.5748,-0.3048 z"
         style="font-weight:300;-inkscape-font-specification:'Lato Light'"
         id="path24" />
      <path
         d="m 145.04798,127.58356 v -11.3157 l -1.778,-0.1143 q -0.3556,-0.0381 -0.3556,-0.3175 v -0.4953 h 2.1336 v -0.8255 q 0,-1.1176 0.3302,-2.0701 0.3302,-0.9652 0.9652,-1.6637 0.6477,-0.6985 1.5875,-1.0922 0.9398,-0.3937 2.1717,-0.3937 0.8636,0 1.6891,0.0762 0.8382,0.0762 1.5748,0.1016 h 0.9017 v 18.1102 h -1.2065 v -17.2593 q -0.6731,-0.0254 -1.4351,-0.0762 -0.7493,-0.0508 -1.3716,-0.0508 -0.9525,0 -1.7018,0.3048 -0.7493,0.2921 -1.27,0.8636 -0.508,0.5588 -0.7874,1.3589 -0.2667,0.8001 -0.2667,1.7907 v 0.8255 h 3.6703 v 0.9017 h -3.6322 v 11.3411 z"
         style="font-weight:300;-inkscape-font-specification:'Lato Light'"
         id="path26" />
      <path
         d="m 163.50104,114.74386 q 1.0668,0 1.9812,0.3683 0.9144,0.3683 1.5875,1.0795 0.6731,0.6985 1.0541,1.7272 0.3937,1.0287 0.3937,2.3622 0,0.2794 -0.0762,0.381 -0.0762,0.1016 -0.254,0.1016 h -9.1948 v 0.2413 q 0,1.4224 0.3302,2.5019 0.3302,1.0795 0.9398,1.8161 0.6096,0.7239 1.4732,1.0922 0.8636,0.3683 1.9304,0.3683 0.9525,0 1.651,-0.2032 0.6985,-0.2159 1.1684,-0.4699 0.4826,-0.2667 0.762,-0.4699 0.2794,-0.2159 0.4064,-0.2159 0.1651,0 0.254,0.127 l 0.3302,0.4064 q -0.3048,0.381 -0.8128,0.7112 -0.4953,0.3302 -1.1176,0.5715 -0.6096,0.2286 -1.3208,0.3683 -0.6985,0.1397 -1.4097,0.1397 -1.2954,0 -2.3622,-0.4445 -1.0668,-0.4572 -1.8288,-1.3208 -0.762,-0.8636 -1.1811,-2.1082 -0.4064,-1.2573 -0.4064,-2.8702 0,-1.3589 0.381,-2.5019 0.3937,-1.1557 1.1176,-1.9812 0.7366,-0.8382 1.7907,-1.3081 1.0668,-0.4699 2.413,-0.4699 z m 0.0127,0.9017 q -0.9779,0 -1.7526,0.3048 -0.7747,0.3048 -1.3462,0.8763 -0.5588,0.5715 -0.9144,1.3716 -0.3429,0.8001 -0.4572,1.7907 h 8.382 q 0,-1.016 -0.2921,-1.8161 -0.2794,-0.8128 -0.8001,-1.3716 -0.5207,-0.5588 -1.2446,-0.8509 -0.7112,-0.3048 -1.5748,-0.3048 z"
         style="font-weight:300;-inkscape-font-specification:'Lato Light'"
         id="path28" />
      <path
         d="m 180.30312,116.63616 q -0.0635,0.0635 -0.127,0.1143 -0.0508,0.0381 -0.1524,0.0381 -0.127,0 -0.3429,-0.1651 -0.2159,-0.1778 -0.5842,-0.381 -0.3683,-0.2032 -0.9271,-0.3683 -0.5461,-0.1778 -1.3335,-0.1778 -1.0922,0 -1.9431,0.3937 -0.8382,0.381 -1.4224,1.1049 -0.5842,0.7239 -0.889,1.7526 -0.2921,1.0287 -0.2921,2.3114 0,1.3335 0.3048,2.3622 0.3175,1.0287 0.889,1.7399 0.5715,0.6985 1.3843,1.0668 0.8128,0.3683 1.8034,0.3683 0.9144,0 1.524,-0.2159 0.6223,-0.2159 1.016,-0.4699 0.4064,-0.254 0.635,-0.4699 0.2286,-0.2159 0.381,-0.2159 0.1524,0 0.254,0.127 l 0.3175,0.4064 q -0.2921,0.381 -0.7366,0.7112 -0.4445,0.3302 -1.0033,0.5715 -0.5588,0.2413 -1.2192,0.3683 -0.6477,0.1397 -1.3589,0.1397 -1.2065,0 -2.2098,-0.4318 -0.9906,-0.4445 -1.7145,-1.27 -0.7112,-0.8382 -1.1176,-2.0447 -0.3937,-1.2065 -0.3937,-2.7432 0,-1.4478 0.381,-2.6416 0.381,-1.1938 1.1176,-2.0574 0.7366,-0.8636 1.7907,-1.3335 1.0668,-0.4826 2.4384,-0.4826 1.2319,0 2.1844,0.3937 0.9525,0.3937 1.6637,1.0668 z"
         style="font-weight:300;-inkscape-font-specification:'Lato Light'"
         id="path30" />
      <path
         d="m 187.23729,127.78676 q -1.2827,0 -2.0066,-0.7112 -0.7112,-0.7112 -0.7112,-2.1971 v -8.636 h -1.8161 q -0.1397,0 -0.2286,-0.0762 -0.0889,-0.0762 -0.0889,-0.2159 v -0.4699 l 2.159,-0.1524 0.3048,-4.5212 q 0.0254,-0.1143 0.1016,-0.2032 0.0762,-0.0889 0.2159,-0.0889 h 0.5715 v 4.826 h 3.9878 v 0.9017 h -3.9878 v 8.5725 q 0,0.5207 0.127,0.9017 0.1397,0.3683 0.3683,0.6096 0.2413,0.2413 0.5588,0.3556 0.3175,0.1143 0.6858,0.1143 0.4572,0 0.7874,-0.127 0.3302,-0.1397 0.5715,-0.2921 0.2413,-0.1651 0.3937,-0.2921 0.1524,-0.1397 0.2413,-0.1397 0.1016,0 0.2032,0.127 l 0.3302,0.5334 q -0.4826,0.5334 -1.2319,0.8636 -0.7366,0.3175 -1.5367,0.3175 z"
         style="font-weight:300;-inkscape-font-specification:'Lato Light'"
         id="path32" />
      <path
         d="m 197.48616,114.74386 q 1.3589,0 2.4257,0.4699 1.0795,0.4572 1.8161,1.3081 0.7366,0.8509 1.1176,2.0574 0.3937,1.1938 0.3937,2.6797 0,1.4859 -0.3937,2.6797 -0.381,1.1938 -1.1176,2.0447 -0.7366,0.8509 -1.8161,1.3081 -1.0668,0.4572 -2.4257,0.4572 -1.3589,0 -2.4384,-0.4572 -1.0668,-0.4572 -1.8161,-1.3081 -0.7366,-0.8509 -1.1303,-2.0447 -0.381,-1.1938 -0.381,-2.6797 0,-1.4859 0.381,-2.6797 0.3937,-1.2065 1.1303,-2.0574 0.7493,-0.8509 1.8161,-1.3081 1.0795,-0.4699 2.4384,-0.4699 z m 0,12.0523 q 1.1303,0 1.9685,-0.381 0.8509,-0.3937 1.4097,-1.1176 0.5715,-0.7239 0.8509,-1.7399 0.2794,-1.0287 0.2794,-2.2987 0,-1.2573 -0.2794,-2.286 -0.2794,-1.0287 -0.8509,-1.7526 -0.5588,-0.7366 -1.4097,-1.1303 -0.8382,-0.3937 -1.9685,-0.3937 -1.1303,0 -1.9812,0.3937 -0.8382,0.3937 -1.4097,1.1303 -0.5588,0.7239 -0.8509,1.7526 -0.2794,1.0287 -0.2794,2.286 0,1.27 0.2794,2.2987 0.2921,1.016 0.8509,1.7399 0.5715,0.7239 1.4097,1.1176 0.8509,0.381 1.9812,0.381 z"
         style="font-weight:300;-inkscape-font-specification:'Lato Light'"
         id="path34" />
      <path
         d="m 206.65552,127.58356 v -12.6365 h 0.6731 q 0.3175,0 0.3683,0.3175 l 0.1143,1.8288 q 0.7366,-1.0541 1.6891,-1.7018 0.9525,-0.6477 2.1463,-0.6477 1.3843,0 2.2098,0.8001 0.8382,0.8001 1.1303,2.2225 0.2286,-0.7747 0.635,-1.3462 0.4191,-0.5715 0.9525,-0.9398 0.5334,-0.381 1.1557,-0.5588 0.635,-0.1778 1.2954,-0.1778 0.9398,0 1.6891,0.3175 0.7493,0.3048 1.27,0.9144 0.5207,0.6096 0.8001,1.4986 0.2794,0.889 0.2794,2.032 v 8.0772 h -1.2065 v -8.0772 q 0,-1.8542 -0.8001,-2.8194 -0.8001,-0.9779 -2.286,-0.9779 -0.6604,0 -1.27,0.2413 -0.5969,0.2413 -1.0668,0.7239 -0.4572,0.4699 -0.7366,1.1811 -0.2667,0.7112 -0.2667,1.651 v 8.0772 h -1.2192 v -8.0772 q 0,-1.8415 -0.7366,-2.8194 -0.7239,-0.9779 -2.1336,-0.9779 -1.0287,0 -1.905,0.6096 -0.8763,0.6096 -1.5621,1.6891 v 9.5758 z"
         style="font-weight:300;-inkscape-font-specification:'Lato Light'"
         id="path36" />
      <path
         d="m 232.04278,114.74386 q 1.0668,0 1.9812,0.3683 0.9144,0.3683 1.5875,1.0795 0.6731,0.6985 1.0541,1.7272 0.3937,1.0287 0.3937,2.3622 0,0.2794 -0.0762,0.381 -0.0762,0.1016 -0.254,0.1016 h -9.1948 v 0.2413 q 0,1.4224 0.3302,2.5019 0.3302,1.0795 0.9398,1.8161 0.6096,0.7239 1.4732,1.0922 0.8636,0.3683 1.9304,0.3683 0.9525,0 1.651,-0.2032 0.6985,-0.2159 1.1684,-0.4699 0.4826,-0.2667 0.762,-0.4699 0.2794,-0.2159 0.4064,-0.2159 0.1651,0 0.254,0.127 l 0.3302,0.4064 q -0.3048,0.381 -0.8128,0.7112 -0.4953,0.3302 -1.1176,0.5715 -0.6096,0.2286 -1.3208,0.3683 -0.6985,0.1397 -1.4097,0.1397 -1.2954,0 -2.3622,-0.4445 -1.0668,-0.4572 -1.8288,-1.3208 -0.762,-0.8636 -1.1811,-2.1082 -0.4064,-1.2573 -0.4064,-2.8702 0,-1.3589 0.381,-2.5019 0.3937,-1.1557 1.1176,-1.9812 0.7366,-0.8382 1.7907,-1.3081 1.0668,-0.4699 2.413,-0.4699 z m 0.0127,0.9017 q -0.9779,0 -1.7526,0.3048 -0.7747,0.3048 -1.3462,0.8763 -0.5588,0.5715 -0.9144,1.3716 -0.3429,0.8001 -0.4572,1.7907 h 8.382 q 0,-1.016 -0.2921,-1.8161 -0.2794,-0.8128 -0.8001,-1.3716 -0.5207,-0.5588 -1.2446,-0.8509 -0.7112,-0.3048 -1.5748,-0.3048 z"
         style="font-weight:300;-inkscape-font-specification:'Lato Light'"
         id="path38" />
      <path
         d="m 243.70133,127.78676 q -1.2827,0 -2.0066,-0.7112 -0.7112,-0.7112 -0.7112,-2.1971 v -8.636 h -1.8161 q -0.1397,0 -0.2286,-0.0762 -0.0889,-0.0762 -0.0889,-0.2159 v -0.4699 l 2.159,-0.1524 0.3048,-4.5212 q 0.0254,-0.1143 0.1016,-0.2032 0.0762,-0.0889 0.2159,-0.0889 h 0.5715 v 4.826 h 3.9878 v 0.9017 h -3.9878 v 8.5725 q 0,0.5207 0.127,0.9017 0.1397,0.3683 0.3683,0.6096 0.2413,0.2413 0.5588,0.3556 0.3175,0.1143 0.6858,0.1143 0.4572,0 0.7874,-0.127 0.3302,-0.1397 0.5715,-0.2921 0.2413,-0.1651 0.3937,-0.2921 0.1524,-0.1397 0.2413,-0.1397 0.1016,0 0.2032,0.127 l 0.3302,0.5334 q -0.4826,0.5334 -1.2319,0.8636 -0.7366,0.3175 -1.5367,0.3175 z"
         style="font-weight:300;-inkscape-font-specification:'Lato Light'"
         id="path40" />
      <path
         d="m 248.94639,127.58356 v -12.6365 h 0.6477 q 0.2159,0 0.3048,0.0889 0.0889,0.0889 0.1143,0.3048 l 0.0889,2.6543 q 0.2921,-0.7747 0.6604,-1.3716 0.381,-0.6096 0.8636,-1.0287 0.4953,-0.4191 1.0922,-0.635 0.6096,-0.2286 1.3462,-0.2286 0.3937,0 0.7747,0.0762 0.381,0.0635 0.6731,0.2413 l -0.1016,0.8382 q -0.0635,0.2032 -0.2413,0.2032 -0.1524,0 -0.4699,-0.0889 -0.3048,-0.0889 -0.8128,-0.0889 -0.7366,0 -1.3081,0.2286 -0.5715,0.2286 -1.016,0.6731 -0.4445,0.4318 -0.7874,1.0922 -0.3302,0.6477 -0.6096,1.4986 v 8.1788 z"
         style="font-weight:300;-inkscape-font-specification:'Lato Light'"
         id="path42" />
      <path
         d="m 260.87166,131.64756 q -0.0762,0.1778 -0.2032,0.2921 -0.1143,0.1143 -0.3429,0.1143 h -0.8636 l 2.2225,-4.9403 -5.3467,-12.1666 h 1.0033 q 0.1905,0 0.3048,0.1016 0.1143,0.0889 0.1524,0.2032 l 4.2545,9.8298 q 0.0762,0.1905 0.127,0.3937 0.0635,0.1905 0.1143,0.3937 0.0635,-0.2032 0.127,-0.3937 0.0762,-0.2032 0.1524,-0.3937 l 4.2037,-9.8298 q 0.0635,-0.1397 0.1778,-0.2159 0.1143,-0.0889 0.254,-0.0889 h 0.9271 z"
         style="font-weight:300;-inkscape-font-specification:'Lato Light'"
         id="path44" />
    </g>
    <g
       transform="matrix(0.26458333,0,0,0.26458333,25.582031,19.09881)"
       id="text10134"
       style="font-size:40px;line-height:1.25;white-space:pre;shape-inside:url(#rect10136)" />
    <g
       transform="matrix(0.26458333,0,0,0.26458333,25.582031,19.09881)"
       id="text11572"
       style="font-size:40px;line-height:1.25;white-space:pre;shape-inside:url(#rect11574)" />
  </g>
</svg>
